<?xml version="1.0" encoding="utf-8" standalone="no"?>
<!DOCTYPE svg PUBLIC "-//W3C//DTD SVG 1.1//EN"
  "http://www.w3.org/Graphics/SVG/1.1/DTD/svg11.dtd">
<svg xmlns:xlink="http://www.w3.org/1999/xlink" width="460.8pt" height="345.6pt" viewBox="0 0 460.8 345.6" xmlns="http://www.w3.org/2000/svg" version="1.1">
 <metadata>
  <rdf:RDF xmlns:dc="http://purl.org/dc/elements/1.1/" xmlns:cc="http://creativecommons.org/ns#" xmlns:rdf="http://www.w3.org/1999/02/22-rdf-syntax-ns#">
   <cc:Work>
    <dc:type rdf:resource="http://purl.org/dc/dcmitype/StillImage"/>
    <dc:date>2022-10-10T13:01:15.633315</dc:date>
    <dc:format>image/svg+xml</dc:format>
    <dc:creator>
     <cc:Agent>
      <dc:title>Matplotlib v3.5.3, https://matplotlib.org/</dc:title>
     </cc:Agent>
    </dc:creator>
   </cc:Work>
  </rdf:RDF>
 </metadata>
 <defs>
  <style type="text/css">*{stroke-linejoin: round; stroke-linecap: butt}</style>
 </defs>
 <g id="figure_1">
  <g id="patch_1">
   <path d="M 0 345.6 
L 460.8 345.6 
L 460.8 0 
L 0 0 
z
" style="fill: #ffffff"/>
  </g>
  <g id="axes_1">
   <g id="patch_2">
    <path d="M 57.6 307.584 
L 414.72 307.584 
L 414.72 41.472 
L 57.6 41.472 
z
" style="fill: #ffffff"/>
   </g>
   <g id="matplotlib.axis_1">
    <g id="xtick_1">
     <g id="line2d_1">
      <defs>
       <path id="meb9f9df0df" d="M 0 0 
L 0 3.5 
" style="stroke: #000000; stroke-width: 0.8"/>
      </defs>
      <g>
       <use xlink:href="#meb9f9df0df" x="73.832727" y="307.584" style="stroke: #000000; stroke-width: 0.8"/>
      </g>
     </g>
     <g id="text_1">
      <!-- 0 -->
      <g transform="translate(70.651477 322.182437)scale(0.1 -0.1)">
       <defs>
        <path id="DejaVuSans-30" d="M 2034 4250 
Q 1547 4250 1301 3770 
Q 1056 3291 1056 2328 
Q 1056 1369 1301 889 
Q 1547 409 2034 409 
Q 2525 409 2770 889 
Q 3016 1369 3016 2328 
Q 3016 3291 2770 3770 
Q 2525 4250 2034 4250 
z
M 2034 4750 
Q 2819 4750 3233 4129 
Q 3647 3509 3647 2328 
Q 3647 1150 3233 529 
Q 2819 -91 2034 -91 
Q 1250 -91 836 529 
Q 422 1150 422 2328 
Q 422 3509 836 4129 
Q 1250 4750 2034 4750 
z
" transform="scale(0.015625)"/>
       </defs>
       <use xlink:href="#DejaVuSans-30"/>
      </g>
     </g>
    </g>
    <g id="xtick_2">
     <g id="line2d_2">
      <g>
       <use xlink:href="#meb9f9df0df" x="122.955824" y="307.584" style="stroke: #000000; stroke-width: 0.8"/>
      </g>
     </g>
     <g id="text_2">
      <!-- 25000 -->
      <g transform="translate(107.049574 322.182437)scale(0.1 -0.1)">
       <defs>
        <path id="DejaVuSans-32" d="M 1228 531 
L 3431 531 
L 3431 0 
L 469 0 
L 469 531 
Q 828 903 1448 1529 
Q 2069 2156 2228 2338 
Q 2531 2678 2651 2914 
Q 2772 3150 2772 3378 
Q 2772 3750 2511 3984 
Q 2250 4219 1831 4219 
Q 1534 4219 1204 4116 
Q 875 4013 500 3803 
L 500 4441 
Q 881 4594 1212 4672 
Q 1544 4750 1819 4750 
Q 2544 4750 2975 4387 
Q 3406 4025 3406 3419 
Q 3406 3131 3298 2873 
Q 3191 2616 2906 2266 
Q 2828 2175 2409 1742 
Q 1991 1309 1228 531 
z
" transform="scale(0.015625)"/>
        <path id="DejaVuSans-35" d="M 691 4666 
L 3169 4666 
L 3169 4134 
L 1269 4134 
L 1269 2991 
Q 1406 3038 1543 3061 
Q 1681 3084 1819 3084 
Q 2600 3084 3056 2656 
Q 3513 2228 3513 1497 
Q 3513 744 3044 326 
Q 2575 -91 1722 -91 
Q 1428 -91 1123 -41 
Q 819 9 494 109 
L 494 744 
Q 775 591 1075 516 
Q 1375 441 1709 441 
Q 2250 441 2565 725 
Q 2881 1009 2881 1497 
Q 2881 1984 2565 2268 
Q 2250 2553 1709 2553 
Q 1456 2553 1204 2497 
Q 953 2441 691 2322 
L 691 4666 
z
" transform="scale(0.015625)"/>
       </defs>
       <use xlink:href="#DejaVuSans-32"/>
       <use xlink:href="#DejaVuSans-35" x="63.623047"/>
       <use xlink:href="#DejaVuSans-30" x="127.246094"/>
       <use xlink:href="#DejaVuSans-30" x="190.869141"/>
       <use xlink:href="#DejaVuSans-30" x="254.492188"/>
      </g>
     </g>
    </g>
    <g id="xtick_3">
     <g id="line2d_3">
      <g>
       <use xlink:href="#meb9f9df0df" x="172.07892" y="307.584" style="stroke: #000000; stroke-width: 0.8"/>
      </g>
     </g>
     <g id="text_3">
      <!-- 50000 -->
      <g transform="translate(156.17267 322.182437)scale(0.1 -0.1)">
       <use xlink:href="#DejaVuSans-35"/>
       <use xlink:href="#DejaVuSans-30" x="63.623047"/>
       <use xlink:href="#DejaVuSans-30" x="127.246094"/>
       <use xlink:href="#DejaVuSans-30" x="190.869141"/>
       <use xlink:href="#DejaVuSans-30" x="254.492188"/>
      </g>
     </g>
    </g>
    <g id="xtick_4">
     <g id="line2d_4">
      <g>
       <use xlink:href="#meb9f9df0df" x="221.202017" y="307.584" style="stroke: #000000; stroke-width: 0.8"/>
      </g>
     </g>
     <g id="text_4">
      <!-- 75000 -->
      <g transform="translate(205.295767 322.182437)scale(0.1 -0.1)">
       <defs>
        <path id="DejaVuSans-37" d="M 525 4666 
L 3525 4666 
L 3525 4397 
L 1831 0 
L 1172 0 
L 2766 4134 
L 525 4134 
L 525 4666 
z
" transform="scale(0.015625)"/>
       </defs>
       <use xlink:href="#DejaVuSans-37"/>
       <use xlink:href="#DejaVuSans-35" x="63.623047"/>
       <use xlink:href="#DejaVuSans-30" x="127.246094"/>
       <use xlink:href="#DejaVuSans-30" x="190.869141"/>
       <use xlink:href="#DejaVuSans-30" x="254.492188"/>
      </g>
     </g>
    </g>
    <g id="xtick_5">
     <g id="line2d_5">
      <g>
       <use xlink:href="#meb9f9df0df" x="270.325114" y="307.584" style="stroke: #000000; stroke-width: 0.8"/>
      </g>
     </g>
     <g id="text_5">
      <!-- 100000 -->
      <g transform="translate(251.237614 322.182437)scale(0.1 -0.1)">
       <defs>
        <path id="DejaVuSans-31" d="M 794 531 
L 1825 531 
L 1825 4091 
L 703 3866 
L 703 4441 
L 1819 4666 
L 2450 4666 
L 2450 531 
L 3481 531 
L 3481 0 
L 794 0 
L 794 531 
z
" transform="scale(0.015625)"/>
       </defs>
       <use xlink:href="#DejaVuSans-31"/>
       <use xlink:href="#DejaVuSans-30" x="63.623047"/>
       <use xlink:href="#DejaVuSans-30" x="127.246094"/>
       <use xlink:href="#DejaVuSans-30" x="190.869141"/>
       <use xlink:href="#DejaVuSans-30" x="254.492188"/>
       <use xlink:href="#DejaVuSans-30" x="318.115234"/>
      </g>
     </g>
    </g>
    <g id="xtick_6">
     <g id="line2d_6">
      <g>
       <use xlink:href="#meb9f9df0df" x="319.44821" y="307.584" style="stroke: #000000; stroke-width: 0.8"/>
      </g>
     </g>
     <g id="text_6">
      <!-- 125000 -->
      <g transform="translate(300.36071 322.182437)scale(0.1 -0.1)">
       <use xlink:href="#DejaVuSans-31"/>
       <use xlink:href="#DejaVuSans-32" x="63.623047"/>
       <use xlink:href="#DejaVuSans-35" x="127.246094"/>
       <use xlink:href="#DejaVuSans-30" x="190.869141"/>
       <use xlink:href="#DejaVuSans-30" x="254.492188"/>
       <use xlink:href="#DejaVuSans-30" x="318.115234"/>
      </g>
     </g>
    </g>
    <g id="xtick_7">
     <g id="line2d_7">
      <g>
       <use xlink:href="#meb9f9df0df" x="368.571307" y="307.584" style="stroke: #000000; stroke-width: 0.8"/>
      </g>
     </g>
     <g id="text_7">
      <!-- 150000 -->
      <g transform="translate(349.483807 322.182437)scale(0.1 -0.1)">
       <use xlink:href="#DejaVuSans-31"/>
       <use xlink:href="#DejaVuSans-35" x="63.623047"/>
       <use xlink:href="#DejaVuSans-30" x="127.246094"/>
       <use xlink:href="#DejaVuSans-30" x="190.869141"/>
       <use xlink:href="#DejaVuSans-30" x="254.492188"/>
       <use xlink:href="#DejaVuSans-30" x="318.115234"/>
      </g>
     </g>
    </g>
   </g>
   <g id="matplotlib.axis_2">
    <g id="ytick_1">
     <g id="line2d_8">
      <defs>
       <path id="m2a03416579" d="M 0 0 
L -3.5 0 
" style="stroke: #000000; stroke-width: 0.8"/>
      </defs>
      <g>
       <use xlink:href="#m2a03416579" x="57.6" y="295.488" style="stroke: #000000; stroke-width: 0.8"/>
      </g>
     </g>
     <g id="text_8">
      <!-- 0.0 -->
      <g transform="translate(34.696875 299.287219)scale(0.1 -0.1)">
       <defs>
        <path id="DejaVuSans-2e" d="M 684 794 
L 1344 794 
L 1344 0 
L 684 0 
L 684 794 
z
" transform="scale(0.015625)"/>
       </defs>
       <use xlink:href="#DejaVuSans-30"/>
       <use xlink:href="#DejaVuSans-2e" x="63.623047"/>
       <use xlink:href="#DejaVuSans-30" x="95.410156"/>
      </g>
     </g>
    </g>
    <g id="ytick_2">
     <g id="line2d_9">
      <g>
       <use xlink:href="#m2a03416579" x="57.6" y="247.104" style="stroke: #000000; stroke-width: 0.8"/>
      </g>
     </g>
     <g id="text_9">
      <!-- 0.2 -->
      <g transform="translate(34.696875 250.903219)scale(0.1 -0.1)">
       <use xlink:href="#DejaVuSans-30"/>
       <use xlink:href="#DejaVuSans-2e" x="63.623047"/>
       <use xlink:href="#DejaVuSans-32" x="95.410156"/>
      </g>
     </g>
    </g>
    <g id="ytick_3">
     <g id="line2d_10">
      <g>
       <use xlink:href="#m2a03416579" x="57.6" y="198.72" style="stroke: #000000; stroke-width: 0.8"/>
      </g>
     </g>
     <g id="text_10">
      <!-- 0.4 -->
      <g transform="translate(34.696875 202.519219)scale(0.1 -0.1)">
       <defs>
        <path id="DejaVuSans-34" d="M 2419 4116 
L 825 1625 
L 2419 1625 
L 2419 4116 
z
M 2253 4666 
L 3047 4666 
L 3047 1625 
L 3713 1625 
L 3713 1100 
L 3047 1100 
L 3047 0 
L 2419 0 
L 2419 1100 
L 313 1100 
L 313 1709 
L 2253 4666 
z
" transform="scale(0.015625)"/>
       </defs>
       <use xlink:href="#DejaVuSans-30"/>
       <use xlink:href="#DejaVuSans-2e" x="63.623047"/>
       <use xlink:href="#DejaVuSans-34" x="95.410156"/>
      </g>
     </g>
    </g>
    <g id="ytick_4">
     <g id="line2d_11">
      <g>
       <use xlink:href="#m2a03416579" x="57.6" y="150.336" style="stroke: #000000; stroke-width: 0.8"/>
      </g>
     </g>
     <g id="text_11">
      <!-- 0.6 -->
      <g transform="translate(34.696875 154.135219)scale(0.1 -0.1)">
       <defs>
        <path id="DejaVuSans-36" d="M 2113 2584 
Q 1688 2584 1439 2293 
Q 1191 2003 1191 1497 
Q 1191 994 1439 701 
Q 1688 409 2113 409 
Q 2538 409 2786 701 
Q 3034 994 3034 1497 
Q 3034 2003 2786 2293 
Q 2538 2584 2113 2584 
z
M 3366 4563 
L 3366 3988 
Q 3128 4100 2886 4159 
Q 2644 4219 2406 4219 
Q 1781 4219 1451 3797 
Q 1122 3375 1075 2522 
Q 1259 2794 1537 2939 
Q 1816 3084 2150 3084 
Q 2853 3084 3261 2657 
Q 3669 2231 3669 1497 
Q 3669 778 3244 343 
Q 2819 -91 2113 -91 
Q 1303 -91 875 529 
Q 447 1150 447 2328 
Q 447 3434 972 4092 
Q 1497 4750 2381 4750 
Q 2619 4750 2861 4703 
Q 3103 4656 3366 4563 
z
" transform="scale(0.015625)"/>
       </defs>
       <use xlink:href="#DejaVuSans-30"/>
       <use xlink:href="#DejaVuSans-2e" x="63.623047"/>
       <use xlink:href="#DejaVuSans-36" x="95.410156"/>
      </g>
     </g>
    </g>
    <g id="ytick_5">
     <g id="line2d_12">
      <g>
       <use xlink:href="#m2a03416579" x="57.6" y="101.952" style="stroke: #000000; stroke-width: 0.8"/>
      </g>
     </g>
     <g id="text_12">
      <!-- 0.8 -->
      <g transform="translate(34.696875 105.751219)scale(0.1 -0.1)">
       <defs>
        <path id="DejaVuSans-38" d="M 2034 2216 
Q 1584 2216 1326 1975 
Q 1069 1734 1069 1313 
Q 1069 891 1326 650 
Q 1584 409 2034 409 
Q 2484 409 2743 651 
Q 3003 894 3003 1313 
Q 3003 1734 2745 1975 
Q 2488 2216 2034 2216 
z
M 1403 2484 
Q 997 2584 770 2862 
Q 544 3141 544 3541 
Q 544 4100 942 4425 
Q 1341 4750 2034 4750 
Q 2731 4750 3128 4425 
Q 3525 4100 3525 3541 
Q 3525 3141 3298 2862 
Q 3072 2584 2669 2484 
Q 3125 2378 3379 2068 
Q 3634 1759 3634 1313 
Q 3634 634 3220 271 
Q 2806 -91 2034 -91 
Q 1263 -91 848 271 
Q 434 634 434 1313 
Q 434 1759 690 2068 
Q 947 2378 1403 2484 
z
M 1172 3481 
Q 1172 3119 1398 2916 
Q 1625 2713 2034 2713 
Q 2441 2713 2670 2916 
Q 2900 3119 2900 3481 
Q 2900 3844 2670 4047 
Q 2441 4250 2034 4250 
Q 1625 4250 1398 4047 
Q 1172 3844 1172 3481 
z
" transform="scale(0.015625)"/>
       </defs>
       <use xlink:href="#DejaVuSans-30"/>
       <use xlink:href="#DejaVuSans-2e" x="63.623047"/>
       <use xlink:href="#DejaVuSans-38" x="95.410156"/>
      </g>
     </g>
    </g>
    <g id="ytick_6">
     <g id="line2d_13">
      <g>
       <use xlink:href="#m2a03416579" x="57.6" y="53.568" style="stroke: #000000; stroke-width: 0.8"/>
      </g>
     </g>
     <g id="text_13">
      <!-- 1.0 -->
      <g transform="translate(34.696875 57.367219)scale(0.1 -0.1)">
       <use xlink:href="#DejaVuSans-31"/>
       <use xlink:href="#DejaVuSans-2e" x="63.623047"/>
       <use xlink:href="#DejaVuSans-30" x="95.410156"/>
      </g>
     </g>
    </g>
   </g>
   <g id="line2d_14">
    <path d="M 73.832727 295.488 
L 73.88185 295.488 
L 74.02922 266.4576 
L 74.088167 266.4576 
L 74.215887 242.2656 
L 74.235537 242.2656 
L 74.373081 220.4928 
L 74.402555 220.4928 
L 74.5401 196.3008 
L 74.559749 196.3008 
L 74.697294 174.528 
L 74.726768 181.7856 
L 74.785715 167.2704 
L 74.79554 167.2704 
L 74.834838 167.2704 
L 74.962558 152.7552 
L 74.982208 152.7552 
L 75.090279 145.4976 
L 75.100103 152.7552 
L 75.159051 135.8208 
L 75.198349 145.4976 
L 75.208174 145.4976 
L 75.276946 128.5632 
L 75.326069 135.8208 
L 75.335894 135.8208 
L 75.404666 121.3056 
L 75.453789 128.5632 
L 75.463614 135.8208 
L 75.512737 121.3056 
L 75.552036 121.3056 
L 75.56186 121.3056 
L 75.640457 106.7904 
L 75.679756 114.048 
L 75.8173 135.8208 
L 75.827125 135.8208 
L 75.895897 145.4976 
L 75.935196 135.8208 
L 75.974494 135.8208 
L 76.112039 114.048 
L 76.131688 121.3056 
L 76.22011 114.048 
L 76.279057 114.048 
L 76.396953 106.7904 
L 76.436251 106.7904 
L 76.544322 99.5328 
L 76.701516 135.8208 
L 76.789938 121.3056 
L 76.809587 128.5632 
L 76.907833 135.8208 
L 76.917658 128.5632 
L 76.966781 128.5632 
L 77.094501 114.048 
L 77.123975 114.048 
L 77.133799 121.3056 
L 77.212396 106.7904 
L 77.222221 106.7904 
L 77.24187 106.7904 
L 77.261519 114.048 
L 77.330292 99.5328 
L 77.340116 99.5328 
L 77.379415 99.5328 
L 77.507135 82.5984 
L 77.556258 92.2752 
L 77.605381 82.5984 
L 77.713452 75.3408 
L 77.742926 82.5984 
L 77.801873 68.0832 
L 77.811698 68.0832 
L 77.919769 68.0832 
L 77.988541 53.568 
L 78.02784 60.8256 
L 78.106437 75.3408 
L 78.145735 68.0832 
L 78.165384 68.0832 
L 78.263631 60.8256 
L 78.273455 68.0832 
L 78.312754 68.0832 
L 78.371701 60.8256 
L 78.401175 75.3408 
L 78.411 75.3408 
L 78.420824 75.3408 
L 78.440474 68.0832 
L 78.469948 82.5984 
L 78.519071 82.5984 
L 78.53872 82.5984 
L 78.676265 60.8256 
L 78.705738 60.8256 
L 78.823634 53.568 
L 80.179431 53.568 
L 80.199081 68.0832 
L 80.297327 60.8256 
L 80.415222 53.568 
L 395.451465 53.568 
L 395.579185 68.0832 
L 395.736379 68.0832 
L 395.873924 92.2752 
L 395.883749 92.2752 
L 396.021293 114.048 
L 396.031118 114.048 
L 396.207961 167.2704 
L 396.237435 167.2704 
L 396.365155 181.7856 
L 396.5027 181.7856 
L 396.620595 189.0432 
L 396.640244 189.0432 
L 396.75814 203.5584 
L 396.767964 203.5584 
L 396.895684 220.4928 
L 396.925158 220.4928 
L 397.052878 235.008 
L 397.259195 235.008 
L 397.377091 256.7808 
L 397.917445 256.7808 
L 398.03534 266.4576 
L 398.143411 266.4576 
L 398.261306 273.7152 
L 398.349728 273.7152 
L 398.467623 280.9728 
L 398.487273 280.9728 
L 398.487273 280.9728 
" clip-path="url(#p0b634627d5)" style="fill: none; stroke-dasharray: 5.55,2.4; stroke-dashoffset: 0; stroke: #1f77b4; stroke-width: 1.5"/>
   </g>
   <g id="line2d_15">
    <path d="M 73.832727 295.488 
L 73.88185 295.488 
L 74.02922 266.4576 
L 74.088167 266.4576 
L 74.215887 242.2656 
L 74.235537 242.2656 
L 74.373081 220.4928 
L 74.402555 220.4928 
L 74.5401 196.3008 
L 74.559749 196.3008 
L 74.697294 174.528 
L 74.726768 181.7856 
L 74.805365 174.528 
L 74.834838 174.528 
L 74.962558 160.0128 
L 75.021506 160.0128 
L 75.149226 174.528 
L 75.1787 174.528 
L 75.208174 181.7856 
L 75.286771 174.528 
L 75.335894 174.528 
L 75.404666 167.2704 
L 75.443965 174.528 
L 75.502913 174.528 
L 75.630633 160.0128 
L 75.70923 160.0128 
L 75.827125 167.2704 
L 76.357654 167.2704 
L 76.47555 174.528 
L 76.485374 174.528 
L 76.60327 167.2704 
L 76.613095 167.2704 
L 76.622919 174.528 
L 76.721165 167.2704 
L 76.848885 167.2704 
L 76.966781 174.528 
L 77.065027 160.0128 
L 77.084676 167.2704 
L 77.261519 167.2704 
L 77.379415 160.0128 
L 77.49731 160.0128 
L 77.615206 152.7552 
L 77.742926 152.7552 
L 77.870646 135.8208 
L 77.949243 135.8208 
L 78.067138 145.4976 
L 78.165384 145.4976 
L 78.214507 135.8208 
L 78.273455 145.4976 
L 78.342228 145.4976 
L 78.420824 152.7552 
L 78.450298 145.4976 
L 78.460123 145.4976 
L 78.587843 160.0128 
L 78.597668 160.0128 
L 78.715563 152.7552 
L 78.774511 152.7552 
L 78.902231 135.8208 
L 78.92188 135.8208 
L 79.039776 145.4976 
L 79.088899 145.4976 
L 79.108548 152.7552 
L 79.167496 135.8208 
L 79.17732 135.8208 
L 79.255917 135.8208 
L 79.373813 152.7552 
L 79.403286 152.7552 
L 79.531006 167.2704 
L 79.599779 167.2704 
L 79.648902 174.528 
L 79.698025 167.2704 
L 79.81592 160.0128 
L 79.884693 160.0128 
L 79.953465 167.2704 
L 79.992764 160.0128 
L 80.199081 160.0128 
L 80.316976 152.7552 
L 80.366099 152.7552 
L 80.493819 135.8208 
L 80.876979 135.8208 
L 81.004699 152.7552 
L 81.279789 152.7552 
L 81.299438 145.4976 
L 81.378035 152.7552 
L 81.49593 160.0128 
L 81.633475 160.0128 
L 81.712072 181.7856 
L 81.761195 174.528 
L 81.859441 174.528 
L 81.957687 167.2704 
L 81.967512 174.528 
L 82.203303 174.528 
L 82.2819 189.0432 
L 82.321198 181.7856 
L 82.576638 181.7856 
L 82.694534 189.0432 
L 82.714183 189.0432 
L 82.851728 167.2704 
L 82.871377 167.2704 
L 82.999097 152.7552 
L 83.116993 152.7552 
L 83.234888 145.4976 
L 83.313485 145.4976 
L 83.45103 167.2704 
L 83.509977 167.2704 
L 83.627873 160.0128 
L 83.637697 160.0128 
L 83.755593 152.7552 
L 83.765417 152.7552 
L 83.883313 160.0128 
L 84.040507 160.0128 
L 84.148578 152.7552 
L 84.266473 160.0128 
L 84.286122 160.0128 
L 84.413842 174.528 
L 84.512088 174.528 
L 84.639809 160.0128 
L 84.747879 160.0128 
L 84.865775 167.2704 
L 85.219461 167.2704 
L 85.307883 174.528 
L 85.327532 167.2704 
L 85.357006 167.2704 
L 85.474901 160.0128 
L 85.573147 160.0128 
L 85.671394 174.528 
L 85.691043 167.2704 
L 85.749991 167.2704 
L 85.838412 189.0432 
L 85.877711 181.7856 
L 85.926834 181.7856 
L 86.054554 196.3008 
L 86.192098 174.528 
L 86.368942 174.528 
L 86.378766 181.7856 
L 86.457363 167.2704 
L 86.467188 167.2704 
L 86.565434 167.2704 
L 86.594908 160.0128 
L 86.673505 167.2704 
L 86.712803 167.2704 
L 86.830699 174.528 
L 86.958419 174.528 
L 87.076314 167.2704 
L 87.095963 167.2704 
L 87.154911 174.528 
L 87.204034 167.2704 
L 87.32193 167.2704 
L 87.439825 160.0128 
L 87.567545 160.0128 
L 87.636317 152.7552 
L 87.665791 167.2704 
L 87.685441 167.2704 
L 87.773862 160.0128 
L 87.793511 167.2704 
L 87.999828 167.2704 
L 88.117724 174.528 
L 88.235619 167.2704 
L 88.265093 167.2704 
L 88.382988 160.0128 
L 88.412462 160.0128 
L 88.530358 152.7552 
L 88.658078 152.7552 
L 88.785798 167.2704 
L 88.903693 160.0128 
L 89.247555 160.0128 
L 89.36545 167.2704 
L 89.404749 167.2704 
L 89.532469 152.7552 
L 90.062998 152.7552 
L 90.102297 145.4976 
L 90.171069 152.7552 
L 90.220192 152.7552 
L 90.338088 160.0128 
L 90.573879 160.0128 
L 90.623002 167.2704 
L 90.681949 160.0128 
L 90.839143 160.0128 
L 90.957039 152.7552 
L 90.986513 152.7552 
L 91.035636 160.0128 
L 91.094583 152.7552 
L 91.104408 152.7552 
L 91.222303 145.4976 
L 91.350024 160.0128 
L 91.497393 160.0128 
L 91.566165 181.7856 
L 91.615288 174.528 
L 91.634937 174.528 
L 91.762658 189.0432 
L 91.782307 189.0432 
L 91.910027 174.528 
L 91.968975 181.7856 
L 92.018098 174.528 
L 92.273538 174.528 
L 92.332485 181.7856 
L 92.381609 174.528 
L 92.47003 160.0128 
L 92.499504 167.2704 
L 92.548627 167.2704 
L 92.666523 160.0128 
L 92.715646 160.0128 
L 92.833541 167.2704 
L 92.990735 167.2704 
L 93.10863 160.0128 
L 93.118455 160.0128 
L 93.167578 152.7552 
L 93.226526 160.0128 
L 93.413194 160.0128 
L 93.550738 135.8208 
L 93.678458 152.7552 
L 93.757055 152.7552 
L 93.796354 145.4976 
L 93.865126 152.7552 
L 93.983021 152.7552 
L 94.110742 167.2704 
L 94.140215 167.2704 
L 94.258111 160.0128 
L 94.415305 160.0128 
L 94.543025 145.4976 
L 94.621622 145.4976 
L 94.749342 128.5632 
L 94.945834 128.5632 
L 95.083379 152.7552 
L 95.240573 152.7552 
L 95.378117 181.7856 
L 95.496013 174.528 
L 95.505837 174.528 
L 95.633558 160.0128 
L 95.761278 160.0128 
L 95.888998 145.4976 
L 95.918472 145.4976 
L 96.036367 152.7552 
L 96.065841 152.7552 
L 96.164087 167.2704 
L 96.183736 160.0128 
L 96.223035 160.0128 
L 96.34093 152.7552 
L 96.547247 152.7552 
L 96.665143 145.4976 
L 96.773213 145.4976 
L 96.891109 152.7552 
L 96.97953 152.7552 
L 97.097426 145.4976 
L 97.244795 145.4976 
L 97.362691 135.8208 
L 97.372515 135.8208 
L 97.500235 152.7552 
L 97.539534 152.7552 
L 97.657429 145.4976 
L 97.716377 145.4976 
L 97.775325 160.0128 
L 97.834272 152.7552 
L 97.89322 152.7552 
L 97.932518 160.0128 
L 98.001291 152.7552 
L 98.060239 152.7552 
L 98.119186 160.0128 
L 98.168309 152.7552 
L 98.256731 152.7552 
L 98.374626 160.0128 
L 98.423749 160.0128 
L 98.541645 152.7552 
L 98.689014 152.7552 
L 98.698839 145.4976 
L 98.797085 152.7552 
L 99.081999 152.7552 
L 99.199894 160.0128 
L 99.298141 160.0128 
L 99.416036 167.2704 
L 99.425861 167.2704 
L 99.543756 160.0128 
L 99.563405 160.0128 
L 99.681301 152.7552 
L 99.779547 152.7552 
L 99.848319 160.0128 
L 99.887618 152.7552 
L 99.917092 152.7552 
L 100.034987 160.0128 
L 100.044812 160.0128 
L 100.08411 167.2704 
L 100.152882 160.0128 
L 100.280602 160.0128 
L 100.329726 167.2704 
L 100.388673 160.0128 
L 100.418147 160.0128 
L 100.486919 167.2704 
L 100.526218 160.0128 
L 100.929027 160.0128 
L 100.97815 167.2704 
L 101.037098 160.0128 
L 101.154994 152.7552 
L 101.164818 152.7552 
L 101.213941 160.0128 
L 101.272889 152.7552 
L 101.616751 152.7552 
L 101.744471 167.2704 
L 101.823068 167.2704 
L 101.950788 181.7856 
L 101.999911 181.7856 
L 102.117806 174.528 
L 102.137456 174.528 
L 102.275 152.7552 
L 102.392896 160.0128 
L 102.412545 160.0128 
L 102.53044 152.7552 
L 102.697459 152.7552 
L 102.78588 145.4976 
L 102.80553 152.7552 
L 102.864477 152.7552 
L 102.903776 160.0128 
L 102.972548 152.7552 
L 103.080619 152.7552 
L 103.159216 160.0128 
L 103.18869 152.7552 
L 103.237813 152.7552 
L 103.355708 160.0128 
L 103.512902 160.0128 
L 103.630798 167.2704 
L 103.650447 167.2704 
L 103.768342 160.0128 
L 103.915712 160.0128 
L 103.935361 152.7552 
L 104.023782 160.0128 
L 104.033607 160.0128 
L 104.072906 167.2704 
L 104.131853 160.0128 
L 104.249749 152.7552 
L 104.259573 152.7552 
L 104.377469 145.4976 
L 104.475715 145.4976 
L 104.61326 167.2704 
L 104.701681 167.2704 
L 104.829401 152.7552 
L 104.976771 152.7552 
L 105.094666 145.4976 
L 105.222386 145.4976 
L 105.340281 152.7552 
L 105.477826 152.7552 
L 105.595722 145.4976 
L 105.811863 145.4976 
L 105.929759 160.0128 
L 106.008356 152.7552 
L 106.037829 160.0128 
L 106.057479 160.0128 
L 106.175374 167.2704 
L 106.195023 167.2704 
L 106.332568 189.0432 
L 106.430814 189.0432 
L 106.54871 196.3008 
L 106.558534 196.3008 
L 106.696079 220.4928 
L 106.715728 220.4928 
L 106.833624 227.7504 
L 106.961344 213.2352 
L 107.138187 213.2352 
L 107.265907 227.7504 
L 107.393627 227.7504 
L 107.521347 213.2352 
L 107.649067 213.2352 
L 107.766962 220.4928 
L 107.983104 220.4928 
L 108.100999 227.7504 
L 108.179596 227.7504 
L 108.307316 242.2656 
L 108.48416 242.2656 
L 108.602055 235.008 
L 108.61188 235.008 
L 108.729775 227.7504 
L 108.837846 227.7504 
L 108.955741 220.4928 
L 109.132584 220.4928 
L 109.191532 227.7504 
L 109.240655 220.4928 
L 109.299603 220.4928 
L 109.427323 203.5584 
L 109.476446 203.5584 
L 109.594342 196.3008 
L 109.712237 196.3008 
L 109.731886 203.5584 
L 109.781009 189.0432 
L 109.810483 189.0432 
L 110.124871 189.0432 
L 110.242766 181.7856 
L 110.39996 181.7856 
L 110.517856 174.528 
L 110.566979 174.528 
L 110.596453 167.2704 
L 110.67505 174.528 
L 110.763471 174.528 
L 110.881367 167.2704 
L 111.018911 167.2704 
L 111.136807 174.528 
L 111.490493 174.528 
L 111.608389 167.2704 
L 111.804881 167.2704 
L 111.922776 174.528 
L 111.95225 174.528 
L 112.070146 167.2704 
L 112.384533 167.2704 
L 112.502429 160.0128 
L 112.551552 160.0128 
L 112.669447 167.2704 
L 112.777518 167.2704 
L 112.846291 174.528 
L 112.885589 167.2704 
L 112.895414 167.2704 
L 113.013309 174.528 
L 113.229451 174.528 
L 113.347346 167.2704 
L 113.406294 167.2704 
L 113.534014 181.7856 
L 113.612611 181.7856 
L 113.730506 174.528 
L 113.799279 174.528 
L 113.917174 181.7856 
L 113.995771 181.7856 
L 114.113666 174.528 
L 114.192263 174.528 
L 114.310159 167.2704 
L 114.683494 167.2704 
L 114.80139 174.528 
L 114.860338 174.528 
L 114.870162 167.2704 
L 114.968408 174.528 
L 115.214024 174.528 
L 115.331919 181.7856 
L 115.449815 174.528 
L 115.587359 174.528 
L 115.656132 167.2704 
L 115.69543 174.528 
L 116.510874 174.528 
L 116.589471 167.2704 
L 116.618944 174.528 
L 116.86456 174.528 
L 116.982455 167.2704 
L 117.277194 167.2704 
L 117.404914 152.7552 
L 118.308779 152.7552 
L 118.328428 145.4976 
L 118.387376 160.0128 
L 118.407025 160.0128 
L 118.465973 160.0128 
L 118.524921 167.2704 
L 118.574044 160.0128 
L 118.682114 160.0128 
L 118.780361 167.2704 
L 118.790185 160.0128 
L 118.92773 160.0128 
L 119.045625 167.2704 
L 119.075099 167.2704 
L 119.163521 174.528 
L 119.18317 167.2704 
L 119.222469 167.2704 
L 119.232293 174.528 
L 119.330539 167.2704 
L 119.605629 167.2704 
L 119.635103 174.528 
L 119.7137 167.2704 
L 119.772647 167.2704 
L 119.890543 174.528 
L 119.910192 174.528 
L 120.028087 167.2704 
L 120.057561 167.2704 
L 120.175457 174.528 
L 120.214755 174.528 
L 120.332651 167.2704 
L 120.961426 167.2704 
L 121.049848 174.528 
L 121.069497 167.2704 
L 121.226691 167.2704 
L 121.344586 160.0128 
L 121.383885 160.0128 
L 121.50178 152.7552 
L 121.609851 152.7552 
L 121.727746 145.4976 
L 121.845642 145.4976 
L 121.963537 152.7552 
L 121.993011 152.7552 
L 122.071608 145.4976 
L 122.101082 152.7552 
L 122.130556 152.7552 
L 122.248451 145.4976 
L 122.444944 145.4976 
L 122.562839 135.8208 
L 123.260387 135.8208 
L 123.388107 160.0128 
L 123.496178 160.0128 
L 123.525652 152.7552 
L 123.555126 167.2704 
L 123.5846 167.2704 
L 123.594424 174.528 
L 123.69267 167.2704 
L 123.71232 167.2704 
L 123.849864 145.4976 
L 123.96776 145.4976 
L 124.036532 135.8208 
L 124.07583 145.4976 
L 124.321446 145.4976 
L 124.370569 135.8208 
L 124.429517 145.4976 
L 124.557237 145.4976 
L 124.675132 152.7552 
L 124.704606 152.7552 
L 124.763554 160.0128 
L 124.812677 152.7552 
L 124.910923 145.4976 
L 124.920748 152.7552 
L 125.009169 152.7552 
L 125.127065 160.0128 
L 125.136889 160.0128 
L 125.254785 152.7552 
L 125.333382 152.7552 
L 125.451277 145.4976 
L 125.608471 145.4976 
L 125.726367 135.8208 
L 125.785314 135.8208 
L 125.90321 145.4976 
L 125.942508 145.4976 
L 126.060404 152.7552 
L 126.099702 152.7552 
L 126.217597 145.4976 
L 126.374791 145.4976 
L 126.492687 152.7552 
L 126.590933 152.7552 
L 126.708828 145.4976 
L 126.846373 145.4976 
L 126.974093 128.5632 
L 127.003567 128.5632 
L 127.121462 135.8208 
L 127.170586 135.8208 
L 127.288481 145.4976 
L 127.317955 145.4976 
L 127.43585 135.8208 
L 127.504623 135.8208 
L 127.622518 128.5632 
L 127.642167 128.5632 
L 127.760063 121.3056 
L 127.877958 121.3056 
L 127.995854 128.5632 
L 128.359365 128.5632 
L 128.457611 135.8208 
L 128.467435 128.5632 
L 128.536208 128.5632 
L 128.654103 121.3056 
L 128.722875 121.3056 
L 128.830946 128.5632 
L 128.948842 121.3056 
L 128.978316 121.3056 
L 129.096211 128.5632 
L 129.145334 128.5632 
L 129.273054 145.4976 
L 129.292703 145.4976 
L 129.400774 152.7552 
L 129.51867 145.4976 
L 129.656214 145.4976 
L 129.764285 152.7552 
L 129.892005 135.8208 
L 130.167094 135.8208 
L 130.294815 152.7552 
L 130.393061 152.7552 
L 130.520781 135.8208 
L 130.658325 135.8208 
L 130.786045 152.7552 
L 130.825344 152.7552 
L 130.962889 174.528 
L 131.041486 174.528 
L 131.129907 189.0432 
L 131.159381 181.7856 
L 131.218329 181.7856 
L 131.3264 189.0432 
L 131.45412 174.528 
L 131.601489 174.528 
L 131.719384 167.2704 
L 131.807806 167.2704 
L 131.876578 160.0128 
L 131.906052 167.2704 
L 131.965 174.528 
L 132.014123 167.2704 
L 132.230265 167.2704 
L 132.259738 160.0128 
L 132.299037 174.528 
L 132.318686 174.528 
L 132.436582 181.7856 
L 132.544652 181.7856 
L 132.662548 174.528 
L 132.711671 174.528 
L 132.800092 160.0128 
L 132.829566 167.2704 
L 133.202902 167.2704 
L 133.340446 189.0432 
L 133.428868 189.0432 
L 133.556588 174.528 
L 133.576237 174.528 
L 133.664659 181.7856 
L 133.684308 174.528 
L 133.694133 174.528 
L 133.762905 181.7856 
L 133.802204 174.528 
L 133.920099 174.528 
L 133.959398 167.2704 
L 134.02817 174.528 
L 134.077293 174.528 
L 134.15589 167.2704 
L 134.185364 174.528 
L 134.322908 174.528 
L 134.440804 167.2704 
L 134.480102 167.2704 
L 134.607822 152.7552 
L 134.676595 152.7552 
L 134.784666 160.0128 
L 134.912386 145.4976 
L 134.932035 145.4976 
L 134.990983 135.8208 
L 135.040106 145.4976 
L 135.600109 145.4976 
L 135.718004 152.7552 
L 135.845724 152.7552 
L 135.96362 145.4976 
L 136.042217 145.4976 
L 136.160112 135.8208 
L 136.523623 135.8208 
L 136.651343 160.0128 
L 136.700466 160.0128 
L 136.838011 181.7856 
L 136.847836 181.7856 
L 136.975556 196.3008 
L 137.014854 196.3008 
L 137.13275 203.5584 
L 137.162223 203.5584 
L 137.250645 196.3008 
L 137.270294 203.5584 
L 137.319417 203.5584 
L 137.437313 213.2352 
L 137.447137 213.2352 
L 137.456962 220.4928 
L 137.555208 213.2352 
L 137.574857 213.2352 
L 137.702577 196.3008 
L 137.840122 174.528 
L 137.938368 174.528 
L 138.056264 167.2704 
L 138.105387 167.2704 
L 138.125036 160.0128 
L 138.213458 167.2704 
L 138.252756 167.2704 
L 138.380476 181.7856 
L 138.40995 181.7856 
L 138.527845 174.528 
L 138.596618 174.528 
L 138.714513 167.2704 
L 138.94048 167.2704 
L 138.950304 174.528 
L 139.04855 167.2704 
L 139.117323 167.2704 
L 139.235218 160.0128 
L 139.490658 160.0128 
L 139.618378 145.4976 
L 139.746098 145.4976 
L 139.814871 135.8208 
L 139.854169 145.4976 
L 140.060486 145.4976 
L 140.099785 135.8208 
L 140.129258 152.7552 
L 140.158732 152.7552 
L 140.237329 152.7552 
L 140.355225 160.0128 
L 140.404348 160.0128 
L 140.522243 167.2704 
L 140.541892 167.2704 
L 140.659788 174.528 
L 140.738385 174.528 
L 140.85628 181.7856 
L 140.87593 181.7856 
L 140.964351 174.528 
L 140.984 181.7856 
L 140.993825 181.7856 
L 141.00365 174.528 
L 141.101896 181.7856 
L 141.357336 181.7856 
L 141.416284 167.2704 
L 141.475231 174.528 
L 141.485056 174.528 
L 141.612776 160.0128 
L 141.878041 160.0128 
L 141.995936 152.7552 
L 142.113832 152.7552 
L 142.241552 135.8208 
L 142.310324 135.8208 
L 142.438044 152.7552 
L 142.66401 152.7552 
L 142.781906 160.0128 
L 142.801555 160.0128 
L 142.91945 167.2704 
L 142.929275 167.2704 
L 143.056995 181.7856 
L 143.233838 181.7856 
L 143.361558 196.3008 
L 143.381207 196.3008 
L 143.508927 213.2352 
L 143.538401 213.2352 
L 143.646472 220.4928 
L 143.666121 213.2352 
L 143.754543 220.4928 
L 143.764368 220.4928 
L 143.882263 213.2352 
L 143.96086 213.2352 
L 144.08858 196.3008 
L 144.137703 196.3008 
L 144.196651 213.2352 
L 144.255599 203.5584 
L 144.353845 203.5584 
L 144.481565 189.0432 
L 144.540513 189.0432 
L 144.658408 181.7856 
L 144.864725 181.7856 
L 144.992445 167.2704 
L 145.031743 167.2704 
L 145.149639 174.528 
L 145.179113 174.528 
L 145.297008 181.7856 
L 145.306833 181.7856 
L 145.424728 174.528 
L 145.542624 174.528 
L 145.660519 167.2704 
L 145.778415 174.528 
L 145.915959 174.528 
L 145.974907 181.7856 
L 146.02403 174.528 
L 146.092802 174.528 
L 146.210698 167.2704 
L 146.446489 167.2704 
L 146.564384 160.0128 
L 146.692104 160.0128 
L 146.81 152.7552 
L 146.859123 152.7552 
L 146.977018 160.0128 
L 147.075264 160.0128 
L 147.094914 167.2704 
L 147.183335 160.0128 
L 147.389652 160.0128 
L 147.4486 152.7552 
L 147.497723 160.0128 
L 147.595969 160.0128 
L 147.713865 152.7552 
L 147.83176 152.7552 
L 147.949655 145.4976 
L 147.988954 145.4976 
L 148.106849 135.8208 
L 148.136323 135.8208 
L 148.254219 145.4976 
L 148.283692 145.4976 
L 148.411413 128.5632 
L 148.578431 128.5632 
L 148.696326 121.3056 
L 148.85352 121.3056 
L 148.991065 145.4976 
L 149.010714 145.4976 
L 149.12861 152.7552 
L 149.226856 152.7552 
L 149.344751 145.4976 
L 149.354576 145.4976 
L 149.472471 135.8208 
L 149.570718 135.8208 
L 149.698438 121.3056 
L 149.727912 121.3056 
L 149.845807 128.5632 
L 150.003001 128.5632 
L 150.120896 121.3056 
L 150.170019 121.3056 
L 150.287915 128.5632 
L 150.317389 128.5632 
L 150.445109 145.4976 
L 150.592478 145.4976 
L 150.690724 135.8208 
L 150.700549 145.4976 
L 150.759497 145.4976 
L 150.78897 152.7552 
L 150.867567 145.4976 
L 151.005112 145.4976 
L 151.06406 152.7552 
L 151.113183 145.4976 
L 151.142657 145.4976 
L 151.270377 160.0128 
L 151.437395 160.0128 
L 151.545466 174.528 
L 151.555291 167.2704 
L 151.604414 167.2704 
L 151.673186 152.7552 
L 151.722309 160.0128 
L 151.810731 160.0128 
L 151.928626 152.7552 
L 152.056346 152.7552 
L 152.184066 135.8208 
L 152.586876 135.8208 
L 152.685122 145.4976 
L 152.694947 135.8208 
L 152.842316 135.8208 
L 152.960211 128.5632 
L 153.402319 128.5632 
L 153.520215 121.3056 
L 153.677408 121.3056 
L 153.795304 128.5632 
L 153.883725 128.5632 
L 154.02127 152.7552 
L 154.050744 152.7552 
L 154.168639 145.4976 
L 154.286535 145.4976 
L 154.40443 135.8208 
L 154.414255 135.8208 
L 154.433904 145.4976 
L 154.492852 128.5632 
L 154.512501 128.5632 
L 154.964434 128.5632 
L 154.974258 121.3056 
L 155.003732 135.8208 
L 155.06268 135.8208 
L 155.092154 135.8208 
L 155.219874 152.7552 
L 155.229698 152.7552 
L 155.347594 160.0128 
L 155.406541 160.0128 
L 155.553911 189.0432 
L 155.642332 189.0432 
L 155.799526 227.7504 
L 155.927246 227.7504 
L 156.045142 235.008 
L 156.182686 235.008 
L 156.300582 242.2656 
L 156.644444 242.2656 
L 156.781988 220.4928 
L 156.821287 220.4928 
L 156.880234 213.2352 
L 156.929357 220.4928 
L 156.99813 220.4928 
L 157.12585 203.5584 
L 157.155324 203.5584 
L 157.233921 213.2352 
L 157.263395 203.5584 
L 157.351816 203.5584 
L 157.469712 196.3008 
L 157.518835 196.3008 
L 157.528659 203.5584 
L 157.626905 196.3008 
L 157.715327 196.3008 
L 157.843047 181.7856 
L 158.039539 181.7856 
L 158.088663 174.528 
L 158.14761 181.7856 
L 158.334278 181.7856 
L 158.393226 189.0432 
L 158.442349 181.7856 
L 158.560244 181.7856 
L 158.599543 189.0432 
L 158.668315 181.7856 
L 158.727263 181.7856 
L 158.845158 174.528 
L 159.179195 174.528 
L 159.297091 167.2704 
L 159.346214 167.2704 
L 159.464109 160.0128 
L 159.965165 160.0128 
L 160.08306 167.2704 
L 160.112534 167.2704 
L 160.23043 174.528 
L 160.367974 152.7552 
L 160.525168 152.7552 
L 160.643064 160.0128 
L 160.839556 160.0128 
L 160.957451 152.7552 
L 161.320962 152.7552 
L 161.438858 145.4976 
L 161.733596 145.4976 
L 161.861316 160.0128 
L 162.215003 160.0128 
L 162.342723 174.528 
L 162.362372 174.528 
L 162.499917 196.3008 
L 162.558864 196.3008 
L 162.686584 213.2352 
L 162.696409 213.2352 
L 162.824129 227.7504 
L 162.9322 227.7504 
L 163.069745 249.5232 
L 163.344834 249.5232 
L 163.482379 273.7152 
L 163.580625 273.7152 
L 163.718169 249.5232 
L 163.904837 249.5232 
L 164.022733 242.2656 
L 164.062031 242.2656 
L 164.189751 227.7504 
L 164.258524 227.7504 
L 164.376419 220.4928 
L 164.572911 220.4928 
L 164.61221 227.7504 
L 164.690807 213.2352 
L 164.779228 213.2352 
L 164.897124 203.5584 
L 165.132915 203.5584 
L 165.25081 196.3008 
L 165.270459 196.3008 
L 165.388355 189.0432 
L 165.417829 189.0432 
L 165.535724 181.7856 
L 165.555373 181.7856 
L 165.683093 196.3008 
L 165.712567 196.3008 
L 165.840287 181.7856 
L 166.046604 181.7856 
L 166.174324 167.2704 
L 166.518186 167.2704 
L 166.636081 160.0128 
L 166.763801 174.528 
L 166.8031 174.528 
L 166.832574 181.7856 
L 166.911171 174.528 
L 166.960294 174.528 
L 166.979943 181.7856 
L 167.068365 174.528 
L 167.225559 174.528 
L 167.343454 181.7856 
L 167.471174 167.2704 
L 167.598894 167.2704 
L 167.71679 174.528 
L 167.815036 174.528 
L 167.932931 181.7856 
L 167.97223 181.7856 
L 168.090125 174.528 
L 168.286617 174.528 
L 168.404513 167.2704 
L 168.512584 167.2704 
L 168.630479 160.0128 
L 168.650128 160.0128 
L 168.768024 152.7552 
L 168.944867 152.7552 
L 169.082412 174.528 
L 169.367326 174.528 
L 169.465572 167.2704 
L 169.475396 174.528 
L 169.50487 174.528 
L 169.622766 167.2704 
L 169.681713 167.2704 
L 169.711187 174.528 
L 169.789784 167.2704 
L 170.14347 167.2704 
L 170.261366 174.528 
L 170.300664 174.528 
L 170.41856 167.2704 
L 170.821369 167.2704 
L 170.939265 160.0128 
L 171.05716 160.0128 
L 171.175056 152.7552 
L 171.71541 152.7552 
L 171.774357 160.0128 
L 171.82348 152.7552 
L 172.707696 152.7552 
L 172.835416 167.2704 
L 173.022084 167.2704 
L 173.051558 174.528 
L 173.12033 160.0128 
L 173.218576 160.0128 
L 173.316823 167.2704 
L 173.326647 160.0128 
L 173.37577 160.0128 
L 173.50349 145.4976 
L 173.896475 145.4976 
L 174.01437 135.8208 
L 174.063494 135.8208 
L 174.181389 128.5632 
L 174.436829 128.5632 
L 174.574374 152.7552 
L 174.692269 152.7552 
L 174.702094 145.4976 
L 174.80034 152.7552 
L 175.075429 152.7552 
L 175.085254 145.4976 
L 175.134377 160.0128 
L 175.173676 160.0128 
L 175.262097 160.0128 
L 175.379993 167.2704 
L 175.389817 167.2704 
L 175.507713 174.528 
L 175.664907 174.528 
L 175.782802 181.7856 
L 175.871224 181.7856 
L 175.920347 189.0432 
L 175.979294 181.7856 
L 176.107014 160.0128 
L 176.215085 167.2704 
L 176.313331 152.7552 
L 176.332981 160.0128 
L 176.382104 160.0128 
L 176.411578 152.7552 
L 176.490175 160.0128 
L 176.637544 160.0128 
L 176.765264 174.528 
L 176.775089 174.528 
L 176.902809 160.0128 
L 177.030529 160.0128 
L 177.138599 174.528 
L 177.148424 167.2704 
L 177.177898 167.2704 
L 177.295793 174.528 
L 177.384215 174.528 
L 177.511935 160.0128 
L 177.865621 160.0128 
L 177.983517 152.7552 
L 178.042464 152.7552 
L 178.16036 145.4976 
L 178.356852 145.4976 
L 178.474748 152.7552 
L 178.592643 145.4976 
L 178.700714 145.4976 
L 178.818609 135.8208 
L 178.965979 135.8208 
L 179.083874 128.5632 
L 179.123173 128.5632 
L 179.132997 135.8208 
L 179.231243 128.5632 
L 179.241068 128.5632 
L 179.358963 121.3056 
L 179.742124 121.3056 
L 179.860019 128.5632 
L 180.036862 128.5632 
L 180.144933 121.3056 
L 180.262828 128.5632 
L 180.292302 128.5632 
L 180.410198 135.8208 
L 180.439672 135.8208 
L 180.508444 145.4976 
L 180.547742 135.8208 
L 180.557567 135.8208 
L 180.655813 128.5632 
L 180.665638 135.8208 
L 181.029149 135.8208 
L 181.147044 128.5632 
L 181.323887 128.5632 
L 181.451607 114.048 
L 181.913364 114.048 
L 182.03126 121.3056 
L 182.090208 121.3056 
L 182.237577 152.7552 
L 182.355472 128.5632 
L 182.365297 135.8208 
L 182.443894 135.8208 
L 182.54214 121.3056 
L 182.561789 128.5632 
L 182.581439 128.5632 
L 182.640386 152.7552 
L 182.709159 145.4976 
L 182.79758 145.4976 
L 182.915476 135.8208 
L 182.9253 135.8208 
L 183.05302 160.0128 
L 183.190565 160.0128 
L 183.318285 174.528 
L 183.396882 174.528 
L 183.554076 213.2352 
L 183.681796 213.2352 
L 183.809516 227.7504 
L 183.829165 227.7504 
L 183.888113 235.008 
L 183.937236 227.7504 
L 184.015833 227.7504 
L 184.143553 213.2352 
L 184.212325 213.2352 
L 184.310572 220.4928 
L 184.320396 213.2352 
L 184.359695 213.2352 
L 184.487415 196.3008 
L 184.615135 181.7856 
L 184.703556 181.7856 
L 184.782153 189.0432 
L 184.811627 181.7856 
L 184.831276 181.7856 
L 184.958996 196.3008 
L 185.076892 189.0432 
L 185.175138 189.0432 
L 185.293033 181.7856 
L 185.49935 181.7856 
L 185.617246 174.528 
L 185.911984 174.528 
L 186.02988 181.7856 
L 186.098652 181.7856 
L 186.216548 174.528 
L 186.324618 174.528 
L 186.432689 181.7856 
L 186.471988 174.528 
L 186.491637 189.0432 
L 186.530936 189.0432 
L 186.560409 189.0432 
L 186.678305 181.7856 
L 186.7962 181.7856 
L 186.815849 189.0432 
L 186.884622 174.528 
L 186.894446 174.528 
L 186.914096 174.528 
L 187.041816 189.0432 
L 187.061465 189.0432 
L 187.17936 181.7856 
L 187.228483 181.7856 
L 187.248133 189.0432 
L 187.336554 181.7856 
L 187.375853 181.7856 
L 187.415151 174.528 
L 187.474099 189.0432 
L 187.483924 181.7856 
L 187.572345 181.7856 
L 187.700065 167.2704 
L 187.729539 167.2704 
L 187.857259 152.7552 
L 187.994804 152.7552 
L 188.112699 145.4976 
L 188.260069 145.4976 
L 188.387789 160.0128 
L 188.456561 160.0128 
L 188.574456 167.2704 
L 188.712001 167.2704 
L 188.839721 152.7552 
L 188.908493 152.7552 
L 189.026389 145.4976 
L 189.036213 145.4976 
L 189.173758 167.2704 
L 189.281829 167.2704 
L 189.399724 160.0128 
L 189.507795 160.0128 
L 189.527444 152.7552 
L 189.615866 160.0128 
L 189.635515 160.0128 
L 189.753411 152.7552 
L 189.90078 152.7552 
L 190.018675 145.4976 
L 190.077623 145.4976 
L 190.166045 135.8208 
L 190.185694 145.4976 
L 190.195519 145.4976 
L 190.215168 135.8208 
L 190.234817 152.7552 
L 190.303589 145.4976 
L 190.352712 145.4976 
L 190.450959 167.2704 
L 190.480432 160.0128 
L 190.559029 160.0128 
L 190.676925 152.7552 
L 191.010962 152.7552 
L 191.158331 181.7856 
L 191.168156 181.7856 
L 191.3057 160.0128 
L 191.403947 160.0128 
L 191.492368 152.7552 
L 191.512017 160.0128 
L 191.561141 160.0128 
L 191.688861 145.4976 
L 191.895178 145.4976 
L 192.013073 135.8208 
L 192.278338 135.8208 
L 192.406058 121.3056 
L 192.533778 121.3056 
L 192.651673 128.5632 
L 192.867815 128.5632 
L 192.946412 121.3056 
L 192.966061 135.8208 
L 193.103606 135.8208 
L 193.192027 128.5632 
L 193.211677 135.8208 
L 193.2608 135.8208 
L 193.378695 128.5632 
L 193.417994 128.5632 
L 193.535889 121.3056 
L 193.752031 121.3056 
L 193.869926 128.5632 
L 193.958348 128.5632 
L 194.086068 145.4976 
L 194.184314 145.4976 
L 194.312034 160.0128 
L 194.498702 160.0128 
L 194.646071 189.0432 
L 194.655896 189.0432 
L 194.783616 220.4928 
L 194.79344 220.4928 
L 194.92116 235.008 
L 195.058705 235.008 
L 195.176601 242.2656 
L 195.19625 242.2656 
L 195.32397 227.7504 
L 195.392742 227.7504 
L 195.432041 235.008 
L 195.490988 220.4928 
L 195.510638 220.4928 
L 195.549936 227.7504 
L 195.599059 213.2352 
L 195.608884 213.2352 
L 195.716955 213.2352 
L 195.83485 220.4928 
L 195.952745 213.2352 
L 195.96257 213.2352 
L 196.09029 196.3008 
L 196.109939 189.0432 
L 196.198361 196.3008 
L 196.208186 196.3008 
L 196.34573 174.528 
L 196.60117 174.528 
L 196.72889 189.0432 
L 196.768189 189.0432 
L 196.886084 181.7856 
L 196.895909 181.7856 
L 197.013804 174.528 
L 197.593457 174.528 
L 197.721177 160.0128 
L 197.789949 160.0128 
L 197.907845 167.2704 
L 198.15346 167.2704 
L 198.163285 160.0128 
L 198.261531 167.2704 
L 198.389251 167.2704 
L 198.507146 160.0128 
L 198.693814 160.0128 
L 198.81171 152.7552 
L 198.890307 152.7552 
L 199.008202 145.4976 
L 199.214519 145.4976 
L 199.312765 135.8208 
L 199.32259 145.4976 
L 199.499433 145.4976 
L 199.617328 135.8208 
L 199.813821 135.8208 
L 199.931716 128.5632 
L 200.098735 128.5632 
L 200.226455 145.4976 
L 200.540843 145.4976 
L 200.59979 152.7552 
L 200.648913 145.4976 
L 200.737335 145.4976 
L 200.85523 135.8208 
L 200.953477 135.8208 
L 200.963301 128.5632 
L 201.012424 145.4976 
L 201.041898 145.4976 
L 201.081197 145.4976 
L 201.208917 160.0128 
L 201.218741 160.0128 
L 201.336637 152.7552 
L 201.434883 152.7552 
L 201.552778 167.2704 
L 201.6412 167.2704 
L 201.76892 152.7552 
L 201.818043 152.7552 
L 201.876991 135.8208 
L 201.935939 145.4976 
L 201.945763 145.4976 
L 202.063659 135.8208 
L 202.476293 135.8208 
L 202.604013 152.7552 
L 202.751382 152.7552 
L 202.879102 135.8208 
L 202.987173 135.8208 
L 203.114893 121.3056 
L 203.930336 121.3056 
L 204.048232 128.5632 
L 204.755604 128.5632 
L 204.8735 121.3056 
L 204.893149 121.3056 
L 205.011044 128.5632 
L 205.374555 128.5632 
L 205.492451 135.8208 
L 205.620171 121.3056 
L 206.248946 121.3056 
L 206.396316 152.7552 
L 206.543685 152.7552 
L 206.730353 213.2352 
L 206.750002 213.2352 
L 206.897371 242.2656 
L 207.034916 242.2656 
L 207.152811 256.7808 
L 207.211759 256.7808 
L 207.339479 242.2656 
L 207.516322 242.2656 
L 207.624393 227.7504 
L 207.634218 235.008 
L 207.693166 235.008 
L 207.820886 220.4928 
L 207.840535 220.4928 
L 207.978079 196.3008 
L 208.046852 196.3008 
L 208.08615 203.5584 
L 208.154923 196.3008 
L 208.23352 196.3008 
L 208.351415 189.0432 
L 208.459486 189.0432 
L 208.577381 181.7856 
L 208.773874 181.7856 
L 208.832821 174.528 
L 208.881944 181.7856 
L 209.117735 181.7856 
L 209.235631 174.528 
L 209.274929 174.528 
L 209.392825 181.7856 
L 209.422299 181.7856 
L 209.550019 167.2704 
L 209.687563 167.2704 
L 209.795634 174.528 
L 209.913529 167.2704 
L 210.0216 167.2704 
L 210.139496 160.0128 
L 210.306514 160.0128 
L 210.385111 152.7552 
L 210.414585 160.0128 
L 210.463708 160.0128 
L 210.591428 145.4976 
L 210.797745 145.4976 
L 210.925465 128.5632 
L 211.102308 128.5632 
L 211.220204 135.8208 
L 211.259502 135.8208 
L 211.387222 152.7552 
L 211.514942 152.7552 
L 211.623013 145.4976 
L 211.750733 160.0128 
L 212.074946 160.0128 
L 212.23214 196.3008 
L 212.458106 196.3008 
L 212.585826 213.2352 
L 212.693897 213.2352 
L 212.841266 242.2656 
L 213.077057 242.2656 
L 213.194952 249.5232 
L 213.332497 249.5232 
L 213.460217 266.4576 
L 213.774605 266.4576 
L 213.8925 273.7152 
L 213.941623 273.7152 
L 214.059519 280.9728 
L 214.383731 280.9728 
L 214.501627 288.2304 
L 215.248298 288.2304 
L 215.376018 273.7152 
L 215.44479 273.7152 
L 215.57251 256.7808 
L 215.71988 256.7808 
L 215.8476 242.2656 
L 215.936021 242.2656 
L 216.053917 235.008 
L 216.112864 235.008 
L 216.23076 227.7504 
L 216.4862 227.7504 
L 216.604095 220.4928 
L 216.672868 220.4928 
L 216.790763 213.2352 
L 216.918483 213.2352 
L 217.036378 203.5584 
L 217.183748 203.5584 
L 217.301643 196.3008 
L 217.7634 196.3008 
L 217.881296 189.0432 
L 217.940243 189.0432 
L 218.058139 181.7856 
L 218.431474 181.7856 
L 218.539545 189.0432 
L 218.657441 181.7856 
L 219.030776 181.7856 
L 219.148672 174.528 
L 219.649727 174.528 
L 219.69885 181.7856 
L 219.757798 174.528 
L 219.905167 174.528 
L 220.023063 181.7856 
L 220.140958 174.528 
L 220.180257 174.528 
L 220.298152 181.7856 
L 220.416048 181.7856 
L 220.455346 189.0432 
L 220.524118 181.7856 
L 220.700961 181.7856 
L 220.818857 203.5584 
L 220.956402 181.7856 
L 221.339562 181.7856 
L 221.477106 203.5584 
L 221.663774 203.5584 
L 221.78167 196.3008 
L 221.850442 196.3008 
L 221.899565 189.0432 
L 221.958513 196.3008 
L 221.968337 196.3008 
L 222.086233 203.5584 
L 222.145181 203.5584 
L 222.263076 196.3008 
L 222.518516 196.3008 
L 222.636412 189.0432 
L 222.646236 189.0432 
L 222.764132 181.7856 
L 222.823079 181.7856 
L 222.832904 189.0432 
L 222.93115 181.7856 
L 223.019572 181.7856 
L 223.137467 174.528 
L 223.324135 174.528 
L 223.432206 167.2704 
L 223.481329 181.7856 
L 223.550101 174.528 
L 223.667997 167.2704 
L 223.687646 167.2704 
L 223.785892 152.7552 
L 223.795717 160.0128 
L 223.923437 174.528 
L 224.051157 174.528 
L 224.169052 181.7856 
L 224.336071 181.7856 
L 224.365545 174.528 
L 224.444141 181.7856 
L 224.837126 181.7856 
L 224.955022 174.528 
L 225.210462 174.528 
L 225.338182 160.0128 
L 225.387305 160.0128 
L 225.5052 152.7552 
L 225.691868 152.7552 
L 225.829413 174.528 
L 225.858887 174.528 
L 225.917834 167.2704 
L 225.966957 174.528 
L 226.133976 174.528 
L 226.251871 167.2704 
L 226.684155 167.2704 
L 226.772576 152.7552 
L 226.80205 160.0128 
L 227.018192 160.0128 
L 227.136087 152.7552 
L 227.224509 152.7552 
L 227.342404 145.4976 
L 227.58802 145.4976 
L 227.705915 152.7552 
L 227.725564 152.7552 
L 227.84346 160.0128 
L 227.853284 160.0128 
L 227.97118 167.2704 
L 228.187321 167.2704 
L 228.295392 160.0128 
L 228.413288 167.2704 
L 228.590131 167.2704 
L 228.708026 160.0128 
L 228.963466 160.0128 
L 229.032239 167.2704 
L 229.071537 160.0128 
L 229.179608 160.0128 
L 229.307328 145.4976 
L 229.749436 145.4976 
L 229.867331 152.7552 
L 230.103122 152.7552 
L 230.171895 160.0128 
L 230.211193 152.7552 
L 230.378212 152.7552 
L 230.496107 145.4976 
L 230.515756 145.4976 
L 230.574704 152.7552 
L 230.623827 145.4976 
L 230.761372 145.4976 
L 230.879267 135.8208 
L 230.918566 135.8208 
L 231.036461 152.7552 
L 231.154356 145.4976 
L 231.193655 145.4976 
L 231.31155 135.8208 
L 231.488394 135.8208 
L 231.606289 128.5632 
L 231.616114 128.5632 
L 231.724184 145.4976 
L 231.734009 135.8208 
L 231.999274 135.8208 
L 232.117169 128.5632 
L 232.254714 128.5632 
L 232.372609 121.3056 
L 232.441382 121.3056 
L 232.559277 128.5632 
L 232.657523 128.5632 
L 232.775419 121.3056 
L 232.893314 128.5632 
L 232.932613 128.5632 
L 233.050508 135.8208 
L 233.178228 135.8208 
L 233.305948 160.0128 
L 233.325597 160.0128 
L 233.492616 203.5584 
L 233.541739 203.5584 
L 233.669459 227.7504 
L 233.738231 227.7504 
L 233.865951 242.2656 
L 233.885601 242.2656 
L 234.023145 266.4576 
L 234.16069 266.4576 
L 234.28841 249.5232 
L 234.308059 249.5232 
L 234.445604 227.7504 
L 234.494727 227.7504 
L 234.573324 213.2352 
L 234.612622 220.4928 
L 234.779641 220.4928 
L 234.907361 203.5584 
L 234.966309 203.5584 
L 235.084204 196.3008 
L 235.113678 196.3008 
L 235.192275 189.0432 
L 235.221749 196.3008 
L 235.575435 196.3008 
L 235.693331 189.0432 
L 235.722804 189.0432 
L 235.8407 181.7856 
L 235.929121 181.7856 
L 236.047017 174.528 
L 236.076491 174.528 
L 236.194386 167.2704 
L 236.22386 167.2704 
L 236.272983 174.528 
L 236.331931 167.2704 
L 236.803513 167.2704 
L 236.931233 152.7552 
L 236.950882 152.7552 
L 237.000005 160.0128 
L 237.058953 152.7552 
L 237.078602 152.7552 
L 237.167023 160.0128 
L 237.186673 152.7552 
L 237.37334 152.7552 
L 237.491236 167.2704 
L 237.609131 160.0128 
L 237.717202 160.0128 
L 237.835098 152.7552 
L 237.884221 160.0128 
L 237.943168 152.7552 
L 238.051239 152.7552 
L 238.120012 160.0128 
L 238.15931 152.7552 
L 238.41475 152.7552 
L 238.454049 145.4976 
L 238.522821 152.7552 
L 238.611243 152.7552 
L 238.738963 135.8208 
L 239.092649 135.8208 
L 239.220369 152.7552 
L 239.465984 152.7552 
L 239.58388 160.0128 
L 239.593704 160.0128 
L 239.750898 196.3008 
L 239.809846 196.3008 
L 239.858969 203.5584 
L 239.917917 196.3008 
L 240.025988 196.3008 
L 240.143883 189.0432 
L 240.281428 189.0432 
L 240.399323 196.3008 
L 240.458271 189.0432 
L 240.507394 196.3008 
L 240.517219 196.3008 
L 240.644939 181.7856 
L 240.674413 181.7856 
L 240.792308 174.528 
L 240.841431 174.528 
L 240.890554 167.2704 
L 240.949502 174.528 
L 241.028099 174.528 
L 241.11652 181.7856 
L 241.13617 174.528 
L 241.421084 174.528 
L 241.538979 167.2704 
L 241.705998 167.2704 
L 241.823893 174.528 
L 241.882841 174.528 
L 242.000736 167.2704 
L 242.069509 167.2704 
L 242.177579 160.0128 
L 242.295475 167.2704 
L 242.334773 167.2704 
L 242.364247 174.528 
L 242.442844 167.2704 
L 242.472318 167.2704 
L 242.600038 152.7552 
L 242.767056 152.7552 
L 242.894777 135.8208 
L 242.953724 135.8208 
L 243.081444 152.7552 
L 243.120743 152.7552 
L 243.238638 145.4976 
L 243.425306 145.4976 
L 243.553026 160.0128 
L 243.631623 160.0128 
L 243.759343 174.528 
L 243.778992 174.528 
L 243.906712 189.0432 
L 243.916537 189.0432 
L 244.044257 174.528 
L 244.083555 174.528 
L 244.211276 160.0128 
L 244.270223 160.0128 
L 244.299697 167.2704 
L 244.368469 152.7552 
L 244.417593 152.7552 
L 244.535488 145.4976 
L 244.545313 145.4976 
L 244.555137 135.8208 
L 244.614085 174.528 
L 244.62391 174.528 
L 244.673033 174.528 
L 244.761454 189.0432 
L 244.790928 181.7856 
L 244.820402 181.7856 
L 244.938297 174.528 
L 245.056193 174.528 
L 245.174088 167.2704 
L 245.459002 167.2704 
L 245.576898 160.0128 
L 245.635845 160.0128 
L 245.753741 152.7552 
L 245.77339 152.7552 
L 245.891285 145.4976 
L 245.920759 145.4976 
L 246.009181 152.7552 
L 246.02883 145.4976 
L 246.127076 145.4976 
L 246.244972 135.8208 
L 246.55936 135.8208 
L 246.677255 145.4976 
L 246.962169 145.4976 
L 247.030941 152.7552 
L 247.07024 145.4976 
L 247.355154 145.4976 
L 247.384628 152.7552 
L 247.463225 145.4976 
L 248.259019 145.4976 
L 248.278668 152.7552 
L 248.34744 135.8208 
L 248.62253 135.8208 
L 248.75025 121.3056 
L 248.936917 121.3056 
L 249.054813 114.048 
L 249.221831 114.048 
L 249.349551 128.5632 
L 249.398675 128.5632 
L 249.487096 145.4976 
L 249.51657 135.8208 
L 249.546044 135.8208 
L 249.673764 152.7552 
L 249.693413 152.7552 
L 249.781835 160.0128 
L 249.801484 152.7552 
L 249.880081 152.7552 
L 249.929204 135.8208 
L 249.988152 152.7552 
L 250.096223 152.7552 
L 250.223943 135.8208 
L 250.341838 145.4976 
L 250.420435 145.4976 
L 250.53833 152.7552 
L 250.626752 152.7552 
L 250.754472 135.8208 
L 250.872367 135.8208 
L 250.990263 145.4976 
L 251.019737 145.4976 
L 251.147457 128.5632 
L 251.176931 128.5632 
L 251.294826 121.3056 
L 251.432371 121.3056 
L 251.550266 114.048 
L 251.648512 114.048 
L 251.776232 128.5632 
L 251.786057 128.5632 
L 251.864654 121.3056 
L 251.894128 128.5632 
L 251.992374 128.5632 
L 252.120094 145.4976 
L 252.247814 145.4976 
L 252.306762 135.8208 
L 252.336236 152.7552 
L 252.34606 152.7552 
L 252.385359 152.7552 
L 252.503254 145.4976 
L 252.591676 145.4976 
L 252.62115 152.7552 
L 252.699747 145.4976 
L 252.856941 145.4976 
L 252.974836 135.8208 
L 253.043608 135.8208 
L 253.161504 145.4976 
L 253.220451 145.4976 
L 253.338347 135.8208 
L 253.495541 135.8208 
L 253.613436 128.5632 
L 253.927824 128.5632 
L 254.045719 121.3056 
L 254.291335 121.3056 
L 254.40923 114.048 
L 254.66467 114.048 
L 254.782566 121.3056 
L 254.831689 121.3056 
L 254.949584 114.048 
L 255.313095 114.048 
L 255.430991 106.7904 
L 255.509588 106.7904 
L 255.588185 114.048 
L 255.617659 106.7904 
L 255.715905 106.7904 
L 255.755203 114.048 
L 255.823976 106.7904 
L 255.843625 106.7904 
L 255.96152 99.5328 
L 256.226785 99.5328 
L 256.354505 114.048 
L 256.423277 114.048 
L 256.550997 128.5632 
L 256.60012 128.5632 
L 256.737665 152.7552 
L 256.796613 152.7552 
L 256.943982 181.7856 
L 257.052053 181.7856 
L 257.189598 203.5584 
L 257.219072 203.5584 
L 257.346792 235.008 
L 257.572758 235.008 
L 257.710302 256.7808 
L 257.89697 256.7808 
L 258.014866 249.5232 
L 258.083638 249.5232 
L 258.201533 242.2656 
L 258.240832 242.2656 
L 258.289955 249.5232 
L 258.348903 242.2656 
L 258.466798 235.008 
L 258.476623 235.008 
L 258.614167 213.2352 
L 258.771361 213.2352 
L 258.889257 203.5584 
L 259.016977 203.5584 
L 259.144697 189.0432 
L 259.311715 189.0432 
L 259.429611 181.7856 
L 259.616279 181.7856 
L 259.714525 174.528 
L 259.724349 181.7856 
L 259.852069 181.7856 
L 259.861894 174.528 
L 259.96014 181.7856 
L 260.294177 181.7856 
L 260.412073 174.528 
L 260.421897 174.528 
L 260.539793 167.2704 
L 260.598741 167.2704 
L 260.716636 160.0128 
L 260.814882 160.0128 
L 260.824707 167.2704 
L 260.922953 160.0128 
L 261.12927 160.0128 
L 261.207867 152.7552 
L 261.237341 160.0128 
L 261.315938 160.0128 
L 261.355236 152.7552 
L 261.424009 160.0128 
L 261.502606 160.0128 
L 261.620501 152.7552 
L 261.649975 152.7552 
L 261.777695 167.2704 
L 261.89559 160.0128 
L 261.925064 160.0128 
L 262.052784 174.528 
L 262.180504 174.528 
L 262.2984 167.2704 
L 262.337698 167.2704 
L 262.367172 160.0128 
L 262.445769 167.2704 
L 262.465418 167.2704 
L 262.583314 160.0128 
L 262.691384 160.0128 
L 262.80928 152.7552 
L 262.937 167.2704 
L 263.398757 167.2704 
L 263.516652 160.0128 
L 263.840865 160.0128 
L 263.899813 174.528 
L 263.95876 167.2704 
L 264.410693 167.2704 
L 264.440167 174.528 
L 264.518764 167.2704 
L 264.587536 167.2704 
L 264.705431 160.0128 
L 264.74473 160.0128 
L 264.87245 145.4976 
L 265.108241 145.4976 
L 265.118065 152.7552 
L 265.216312 145.4976 
L 265.226136 145.4976 
L 265.353856 167.2704 
L 265.471752 160.0128 
L 265.560173 160.0128 
L 265.697718 181.7856 
L 265.756666 181.7856 
L 265.874561 174.528 
L 266.188949 174.528 
L 266.306844 167.2704 
L 266.434564 167.2704 
L 266.562284 152.7552 
L 266.611408 152.7552 
L 266.729303 160.0128 
L 266.876672 160.0128 
L 266.955269 152.7552 
L 266.974918 167.2704 
L 267.250008 167.2704 
L 267.377728 152.7552 
L 267.505448 152.7552 
L 267.633168 135.8208 
L 267.839485 135.8208 
L 267.95738 128.5632 
L 268.055627 128.5632 
L 268.0851 135.8208 
L 268.163697 128.5632 
L 268.48791 128.5632 
L 268.537033 135.8208 
L 268.595981 128.5632 
L 268.664753 128.5632 
L 268.802298 152.7552 
L 268.87107 152.7552 
L 268.99879 167.2704 
L 269.077387 167.2704 
L 269.185458 160.0128 
L 269.264055 167.2704 
L 269.293529 160.0128 
L 269.313178 160.0128 
L 269.440898 174.528 
L 269.568618 160.0128 
L 269.607916 160.0128 
L 269.745461 181.7856 
L 269.794584 181.7856 
L 269.824058 189.0432 
L 269.902655 181.7856 
L 269.922304 181.7856 
L 269.932129 189.0432 
L 269.991077 174.528 
L 270.02055 174.528 
L 270.079498 174.528 
L 270.187569 189.0432 
L 270.197394 181.7856 
L 270.236692 181.7856 
L 270.374237 160.0128 
L 270.403711 160.0128 
L 270.531431 145.4976 
L 270.590378 145.4976 
L 270.737748 174.528 
L 270.757397 174.528 
L 270.767222 181.7856 
L 270.845819 167.2704 
L 270.855643 167.2704 
L 270.953889 167.2704 
L 271.071785 160.0128 
L 271.091434 160.0128 
L 271.140557 152.7552 
L 271.199505 160.0128 
L 271.248628 160.0128 
L 271.346874 167.2704 
L 271.356699 160.0128 
L 271.395997 160.0128 
L 271.523717 145.4976 
L 271.621963 145.4976 
L 271.739859 152.7552 
L 271.936351 152.7552 
L 272.054247 160.0128 
L 272.280213 160.0128 
L 272.398108 167.2704 
L 272.516004 160.0128 
L 272.712496 160.0128 
L 272.830392 167.2704 
L 272.899164 167.2704 
L 272.908989 160.0128 
L 272.928638 174.528 
L 273.007235 167.2704 
L 273.066182 167.2704 
L 273.184078 160.0128 
L 273.419869 160.0128 
L 273.498466 167.2704 
L 273.52794 160.0128 
L 273.645835 160.0128 
L 273.65566 152.7552 
L 273.753906 160.0128 
L 274.019171 160.0128 
L 274.137066 167.2704 
L 274.42198 167.2704 
L 274.539875 160.0128 
L 274.697069 160.0128 
L 274.824789 145.4976 
L 274.873912 145.4976 
L 274.913211 135.8208 
L 274.972159 152.7552 
L 275.109703 152.7552 
L 275.227599 145.4976 
L 275.276722 145.4976 
L 275.394617 152.7552 
L 275.44374 152.7552 
L 275.561636 145.4976 
L 275.57146 145.4976 
L 275.689356 135.8208 
L 275.748304 135.8208 
L 275.758128 145.4976 
L 275.856374 135.8208 
L 275.944796 135.8208 
L 276.062691 128.5632 
L 276.141288 128.5632 
L 276.259184 135.8208 
L 276.337781 135.8208 
L 276.445852 145.4976 
L 276.563747 135.8208 
L 276.691467 135.8208 
L 276.819187 152.7552 
L 277.084452 152.7552 
L 277.202347 145.4976 
L 277.320243 152.7552 
L 277.37919 152.7552 
L 277.497086 145.4976 
L 277.50691 145.4976 
L 277.63463 128.5632 
L 277.782 128.5632 
L 277.899895 121.3056 
L 277.949018 121.3056 
L 278.066914 128.5632 
L 278.174985 128.5632 
L 278.302705 114.048 
L 278.754637 114.048 
L 278.902006 145.4976 
L 278.921656 145.4976 
L 279.049376 128.5632 
L 279.07885 128.5632 
L 279.196745 135.8208 
L 279.20657 135.8208 
L 279.236043 128.5632 
L 279.294991 135.8208 
L 279.393237 145.4976 
L 279.403062 135.8208 
L 279.452185 135.8208 
L 279.520957 128.5632 
L 279.560256 135.8208 
L 279.737099 135.8208 
L 279.864819 152.7552 
L 279.904118 152.7552 
L 280.031838 135.8208 
L 280.120259 135.8208 
L 280.247979 152.7552 
L 280.287278 152.7552 
L 280.346225 135.8208 
L 280.405173 145.4976 
L 280.621315 145.4976 
L 280.73921 135.8208 
L 280.857106 135.8208 
L 280.876755 145.4976 
L 280.955352 135.8208 
L 281.063423 128.5632 
L 281.181318 135.8208 
L 281.338512 135.8208 
L 281.466232 152.7552 
L 281.800269 152.7552 
L 281.927989 135.8208 
L 282.173605 135.8208 
L 282.301325 152.7552 
L 282.713959 152.7552 
L 282.831854 145.4976 
L 282.989048 145.4976 
L 283.106943 152.7552 
L 283.234663 152.7552 
L 283.352559 145.4976 
L 283.657122 145.4976 
L 283.775018 135.8208 
L 283.784842 135.8208 
L 283.902738 128.5632 
L 285.003095 128.5632 
L 285.12099 135.8208 
L 285.170113 135.8208 
L 285.288009 128.5632 
L 285.356781 128.5632 
L 285.474677 121.3056 
L 285.65152 121.3056 
L 285.769415 128.5632 
L 285.789064 128.5632 
L 285.857837 135.8208 
L 285.897135 128.5632 
L 285.916785 128.5632 
L 286.03468 121.3056 
L 286.054329 121.3056 
L 286.103452 128.5632 
L 286.1624 121.3056 
L 286.309769 121.3056 
L 286.427665 128.5632 
L 286.496437 128.5632 
L 286.614333 135.8208 
L 286.624157 135.8208 
L 286.761702 167.2704 
L 286.830474 167.2704 
L 286.958194 181.7856 
L 287.036791 181.7856 
L 287.174336 203.5584 
L 287.518197 203.5584 
L 287.665567 242.2656 
L 287.822761 242.2656 
L 287.940656 249.5232 
L 288.176447 249.5232 
L 288.304167 266.4576 
L 288.667678 266.4576 
L 288.805223 288.2304 
L 289.11961 288.2304 
L 289.24733 273.7152 
L 289.286629 273.7152 
L 289.414349 256.7808 
L 289.473297 256.7808 
L 289.601017 242.2656 
L 289.689438 242.2656 
L 289.817158 227.7504 
L 289.836808 227.7504 
L 289.954703 220.4928 
L 289.994002 220.4928 
L 290.111897 213.2352 
L 290.54418 213.2352 
L 290.662076 203.5584 
L 290.721023 203.5584 
L 290.838919 196.3008 
L 290.937165 196.3008 
L 291.05506 203.5584 
L 291.222079 203.5584 
L 291.349799 189.0432 
L 291.497168 189.0432 
L 291.615064 181.7856 
L 291.782082 181.7856 
L 291.899978 174.528 
L 292.361735 174.528 
L 292.47963 181.7856 
L 292.568052 181.7856 
L 292.685947 174.528 
L 292.75472 174.528 
L 292.872615 167.2704 
L 292.921738 167.2704 
L 293.039634 174.528 
L 293.412969 174.528 
L 293.491566 167.2704 
L 293.511215 181.7856 
L 293.589812 181.7856 
L 293.707708 174.528 
L 293.943499 174.528 
L 294.061394 181.7856 
L 294.228412 181.7856 
L 294.277536 189.0432 
L 294.336483 181.7856 
L 294.395431 181.7856 
L 294.523151 167.2704 
L 294.837539 167.2704 
L 294.857188 160.0128 
L 294.94561 167.2704 
L 295.004557 167.2704 
L 295.102804 160.0128 
L 295.112628 167.2704 
L 295.151927 167.2704 
L 295.240348 152.7552 
L 295.269822 160.0128 
L 295.662807 160.0128 
L 295.741404 181.7856 
L 295.780702 174.528 
L 295.888773 160.0128 
L 295.898598 167.2704 
L 296.075441 167.2704 
L 296.203161 181.7856 
L 296.311232 181.7856 
L 296.438952 167.2704 
L 296.547023 167.2704 
L 296.664918 174.528 
L 296.822112 174.528 
L 296.890884 181.7856 
L 296.930183 174.528 
L 297.067727 174.528 
L 297.097201 167.2704 
L 297.116851 181.7856 
L 297.165974 181.7856 
L 297.185623 181.7856 
L 297.303518 174.528 
L 297.362466 174.528 
L 297.450888 181.7856 
L 297.470537 174.528 
L 297.617906 174.528 
L 297.696503 167.2704 
L 297.725977 174.528 
L 297.794749 174.528 
L 297.912645 167.2704 
L 297.961768 167.2704 
L 298.079663 160.0128 
L 298.197559 160.0128 
L 298.256506 167.2704 
L 298.30563 160.0128 
L 298.325279 160.0128 
L 298.452999 145.4976 
L 298.492297 145.4976 
L 298.600368 135.8208 
L 298.718264 145.4976 
L 298.737913 145.4976 
L 298.855808 152.7552 
L 298.993353 152.7552 
L 299.121073 167.2704 
L 299.248793 152.7552 
L 299.494408 152.7552 
L 299.543532 160.0128 
L 299.592655 152.7552 
L 299.71055 145.4976 
L 300.123184 145.4976 
L 300.24108 152.7552 
L 300.634064 152.7552 
L 300.75196 145.4976 
L 300.801083 145.4976 
L 300.918978 135.8208 
L 300.968101 135.8208 
L 301.095821 121.3056 
L 301.429858 121.3056 
L 301.547754 128.5632 
L 301.646 128.5632 
L 301.754071 152.7552 
L 301.77372 145.4976 
L 301.950563 145.4976 
L 302.048809 152.7552 
L 302.058634 145.4976 
L 302.107757 145.4976 
L 302.235477 160.0128 
L 302.353373 152.7552 
L 302.589164 152.7552 
L 302.707059 145.4976 
L 302.785656 145.4976 
L 302.903551 135.8208 
L 302.933025 135.8208 
L 303.050921 145.4976 
L 303.168816 135.8208 
L 303.522502 135.8208 
L 303.532327 145.4976 
L 303.630573 135.8208 
L 303.915487 135.8208 
L 304.043207 121.3056 
L 304.121804 128.5632 
L 304.151278 121.3056 
L 304.396893 121.3056 
L 304.514789 128.5632 
L 304.544263 128.5632 
L 304.662158 135.8208 
L 304.937248 135.8208 
L 305.055143 128.5632 
L 305.123915 128.5632 
L 305.241811 121.3056 
L 305.281109 121.3056 
L 305.300758 128.5632 
L 305.38918 121.3056 
L 305.733042 121.3056 
L 305.850937 114.048 
L 305.959008 114.048 
L 306.086728 128.5632 
L 306.312694 128.5632 
L 306.440414 145.4976 
L 306.460064 145.4976 
L 306.519011 167.2704 
L 306.587784 160.0128 
L 306.666381 160.0128 
L 306.735153 174.528 
L 306.784276 167.2704 
L 306.902171 167.2704 
L 306.921821 160.0128 
L 306.990593 174.528 
L 307.000418 174.528 
L 307.029891 174.528 
L 307.098664 167.2704 
L 307.128138 181.7856 
L 307.285332 181.7856 
L 307.334455 189.0432 
L 307.393402 181.7856 
L 307.413052 181.7856 
L 307.540772 167.2704 
L 307.747089 167.2704 
L 307.874809 152.7552 
L 307.914107 152.7552 
L 308.002529 174.528 
L 308.041827 167.2704 
L 308.189197 167.2704 
L 308.307092 160.0128 
L 308.601831 160.0128 
L 308.719726 152.7552 
L 309.014465 152.7552 
L 309.13236 145.4976 
L 309.250255 145.4976 
L 309.368151 152.7552 
L 309.407449 152.7552 
L 309.535169 167.2704 
L 309.584292 167.2704 
L 309.712013 152.7552 
L 309.89868 152.7552 
L 309.957628 145.4976 
L 310.006751 152.7552 
L 310.095173 152.7552 
L 310.114822 145.4976 
L 310.203244 152.7552 
L 310.222893 152.7552 
L 310.340788 145.4976 
L 310.625702 145.4976 
L 310.753422 128.5632 
L 310.773071 128.5632 
L 310.920441 160.0128 
L 311.146407 160.0128 
L 311.274127 174.528 
L 311.32325 174.528 
L 311.45097 189.0432 
L 311.529567 189.0432 
L 311.667112 213.2352 
L 311.824306 213.2352 
L 311.952026 227.7504 
L 311.971675 227.7504 
L 312.099395 242.2656 
L 312.10922 242.2656 
L 312.246764 266.4576 
L 312.531678 266.4576 
L 312.669223 288.2304 
L 315.164676 288.2304 
L 315.282572 280.9728 
L 315.292396 280.9728 
L 315.410292 273.7152 
L 315.57731 273.7152 
L 315.695206 266.4576 
L 315.8524 266.4576 
L 315.970295 256.7808 
L 316.029243 256.7808 
L 316.147138 249.5232 
L 316.156963 249.5232 
L 316.274858 242.2656 
L 316.422228 242.2656 
L 316.540123 235.008 
L 316.697317 235.008 
L 316.815212 227.7504 
L 316.825037 227.7504 
L 316.942932 220.4928 
L 317.38504 220.4928 
L 317.502936 213.2352 
L 317.591357 213.2352 
L 317.709253 220.4928 
L 318.210308 220.4928 
L 318.328204 227.7504 
L 318.485398 227.7504 
L 318.622942 249.5232 
L 318.701539 249.5232 
L 318.819435 256.7808 
L 318.848909 256.7808 
L 318.966804 266.4576 
L 319.202595 266.4576 
L 319.330315 280.9728 
L 319.399087 280.9728 
L 319.516983 288.2304 
L 321.668574 288.2304 
L 321.78647 280.9728 
L 321.796294 280.9728 
L 321.924014 266.4576 
L 322.395596 266.4576 
L 322.513492 256.7808 
L 322.788581 256.7808 
L 322.916301 242.2656 
L 323.093144 242.2656 
L 323.211039 235.008 
L 323.407532 235.008 
L 323.525427 227.7504 
L 323.643323 227.7504 
L 323.761218 220.4928 
L 323.790692 220.4928 
L 323.908587 227.7504 
L 324.203326 227.7504 
L 324.321221 220.4928 
L 324.48824 220.4928 
L 324.606135 227.7504 
L 324.694557 227.7504 
L 324.812452 220.4928 
L 325.765441 220.4928 
L 325.883336 213.2352 
L 326.433515 213.2352 
L 326.55141 220.4928 
L 326.708604 220.4928 
L 326.836324 203.5584 
L 327.091764 203.5584 
L 327.20966 196.3008 
L 327.366853 196.3008 
L 327.484749 203.5584 
L 327.524047 203.5584 
L 327.641943 213.2352 
L 327.759838 213.2352 
L 327.887558 227.7504 
L 328.005454 227.7504 
L 328.133174 242.2656 
L 328.408263 242.2656 
L 328.535983 256.7808 
L 328.604755 256.7808 
L 328.722651 266.4576 
L 328.850371 266.4576 
L 328.978091 280.9728 
L 329.567568 280.9728 
L 329.685464 288.2304 
L 334.244087 288.2304 
L 334.361982 280.9728 
L 334.460229 280.9728 
L 334.578124 273.7152 
L 334.794266 273.7152 
L 334.912161 266.4576 
L 335.46234 266.4576 
L 335.580235 256.7808 
L 336.140239 256.7808 
L 336.258134 249.5232 
L 336.936033 249.5232 
L 337.053928 242.2656 
L 337.427264 242.2656 
L 337.545159 235.008 
L 337.90867 235.008 
L 338.026565 242.2656 
L 338.134636 242.2656 
L 338.252532 249.5232 
L 338.380252 249.5232 
L 338.498147 242.2656 
L 338.655341 242.2656 
L 338.773236 249.5232 
L 338.792886 249.5232 
L 338.910781 242.2656 
L 339.136747 242.2656 
L 339.146572 249.5232 
L 339.244818 242.2656 
L 339.775348 242.2656 
L 339.893243 235.008 
L 340.09956 235.008 
L 340.217456 227.7504 
L 340.276403 227.7504 
L 340.394299 235.008 
L 341.072197 235.008 
L 341.190093 227.7504 
L 341.317813 227.7504 
L 341.435708 235.008 
L 341.828693 235.008 
L 341.946589 242.2656 
L 342.103782 242.2656 
L 342.221678 235.008 
L 342.319924 235.008 
L 342.378872 242.2656 
L 342.427995 235.008 
L 342.644137 235.008 
L 342.762032 242.2656 
L 342.9487 242.2656 
L 343.027297 249.5232 
L 343.056771 242.2656 
L 343.145192 242.2656 
L 343.263088 235.008 
L 343.302386 242.2656 
L 343.371158 235.008 
L 343.754318 235.008 
L 343.872214 242.2656 
L 343.882039 242.2656 
L 343.97046 249.5232 
L 343.990109 242.2656 
L 344.442042 242.2656 
L 344.559937 249.5232 
L 344.658183 249.5232 
L 344.776079 256.7808 
L 344.893974 249.5232 
L 345.080642 249.5232 
L 345.198538 256.7808 
L 345.414679 256.7808 
L 345.532575 249.5232 
L 345.601347 249.5232 
L 345.719242 242.2656 
L 345.729067 242.2656 
L 345.846962 235.008 
L 345.896086 235.008 
L 346.013981 227.7504 
L 346.760652 227.7504 
L 346.878547 235.008 
L 347.045566 235.008 
L 347.055391 227.7504 
L 347.104514 242.2656 
L 347.153637 235.008 
L 347.183111 235.008 
L 347.310831 220.4928 
L 347.772588 220.4928 
L 347.890483 213.2352 
L 348.411188 213.2352 
L 348.538908 227.7504 
L 348.656804 227.7504 
L 348.774699 235.008 
L 348.784524 235.008 
L 348.902419 227.7504 
L 348.981016 227.7504 
L 349.089087 235.008 
L 349.13821 227.7504 
L 349.197158 235.008 
L 349.246281 235.008 
L 349.364176 227.7504 
L 349.570493 227.7504 
L 349.698213 213.2352 
L 350.002776 213.2352 
L 350.120672 220.4928 
L 350.376112 220.4928 
L 350.494007 213.2352 
L 351.545242 213.2352 
L 351.614014 220.4928 
L 351.653312 213.2352 
L 351.731909 213.2352 
L 351.849805 220.4928 
L 351.898928 220.4928 
L 352.006999 213.2352 
L 352.134719 227.7504 
L 352.360685 227.7504 
L 352.47858 235.008 
L 352.508054 235.008 
L 352.62595 242.2656 
L 352.743845 242.2656 
L 352.871565 227.7504 
L 352.88139 227.7504 
L 352.999285 220.4928 
L 353.166304 220.4928 
L 353.284199 227.7504 
L 353.343147 227.7504 
L 353.362796 235.008 
L 353.421744 220.4928 
L 353.441393 220.4928 
L 353.51999 220.4928 
L 353.637886 213.2352 
L 354.119292 213.2352 
L 354.237187 220.4928 
L 355.042806 220.4928 
L 355.07228 213.2352 
L 355.150877 220.4928 
L 355.445615 220.4928 
L 355.563511 213.2352 
L 355.573336 213.2352 
L 355.691231 203.5584 
L 356.025268 203.5584 
L 356.143163 213.2352 
L 356.634394 213.2352 
L 356.75229 203.5584 
L 356.771939 203.5584 
L 356.889835 196.3008 
L 356.958607 196.3008 
L 357.076502 203.5584 
L 357.086327 203.5584 
L 357.13545 196.3008 
L 357.194398 203.5584 
L 357.51861 203.5584 
L 357.636506 196.3008 
L 357.832998 196.3008 
L 357.950893 203.5584 
L 358.02949 203.5584 
L 358.147386 213.2352 
L 358.314404 213.2352 
L 358.442124 227.7504 
L 358.550195 227.7504 
L 358.677915 242.2656 
L 358.717214 242.2656 
L 358.854758 266.4576 
L 358.953005 266.4576 
L 359.0709 256.7808 
L 359.169146 256.7808 
L 359.237919 249.5232 
L 359.277217 256.7808 
L 359.306691 256.7808 
L 359.424586 249.5232 
L 360.004239 249.5232 
L 360.122134 242.2656 
L 360.200731 242.2656 
L 360.318627 235.008 
L 360.328451 235.008 
L 360.446347 227.7504 
L 361.242141 227.7504 
L 361.330562 235.008 
L 361.350212 227.7504 
L 361.458283 227.7504 
L 361.576178 220.4928 
L 361.77267 220.4928 
L 361.890566 213.2352 
L 362.106707 213.2352 
L 362.224603 203.5584 
L 362.273726 203.5584 
L 362.391621 196.3008 
L 362.480043 196.3008 
L 362.597938 203.5584 
L 362.774781 203.5584 
L 362.892677 196.3008 
L 363.177591 196.3008 
L 363.305311 213.2352 
L 363.393733 213.2352 
L 363.511628 203.5584 
L 363.629523 203.5584 
L 363.747419 196.3008 
L 364.09128 196.3008 
L 364.160053 203.5584 
L 364.199351 196.3008 
L 364.219001 196.3008 
L 364.346721 181.7856 
L 364.720056 181.7856 
L 364.818302 174.528 
L 364.828127 181.7856 
L 364.946022 189.0432 
L 365.162164 189.0432 
L 365.270235 196.3008 
L 365.38813 189.0432 
L 365.486376 189.0432 
L 365.614096 174.528 
L 365.820413 174.528 
L 365.938309 167.2704 
L 366.262521 167.2704 
L 366.390241 181.7856 
L 366.871648 181.7856 
L 367.038666 227.7504 
L 367.225334 227.7504 
L 367.353054 242.2656 
L 367.412002 242.2656 
L 367.539722 256.7808 
L 367.588845 256.7808 
L 367.647793 249.5232 
L 367.696916 256.7808 
L 367.70674 256.7808 
L 367.83446 242.2656 
L 367.844285 242.2656 
L 367.952356 249.5232 
L 368.080076 235.008 
L 368.148848 235.008 
L 368.276568 220.4928 
L 369.013415 220.4928 
L 369.13131 227.7504 
L 369.691313 227.7504 
L 369.809209 235.008 
L 369.91728 235.008 
L 370.045 249.5232 
L 370.054824 249.5232 
L 370.182544 266.4576 
L 370.595178 266.4576 
L 370.722899 280.9728 
L 370.742548 280.9728 
L 370.742548 280.9728 
" clip-path="url(#p0b634627d5)" style="fill: none; stroke-dasharray: 1.5,2.475; stroke-dashoffset: 0; stroke: #ff7f0e; stroke-width: 1.5"/>
   </g>
   <g id="patch_3">
    <path d="M 57.6 307.584 
L 57.6 41.472 
" style="fill: none; stroke: #000000; stroke-width: 0.8; stroke-linejoin: miter; stroke-linecap: square"/>
   </g>
   <g id="patch_4">
    <path d="M 414.72 307.584 
L 414.72 41.472 
" style="fill: none; stroke: #000000; stroke-width: 0.8; stroke-linejoin: miter; stroke-linecap: square"/>
   </g>
   <g id="patch_5">
    <path d="M 57.6 307.584 
L 414.72 307.584 
" style="fill: none; stroke: #000000; stroke-width: 0.8; stroke-linejoin: miter; stroke-linecap: square"/>
   </g>
   <g id="patch_6">
    <path d="M 57.6 41.472 
L 414.72 41.472 
" style="fill: none; stroke: #000000; stroke-width: 0.8; stroke-linejoin: miter; stroke-linecap: square"/>
   </g>
   <g id="text_14">
    <!-- Percentage of Riders Occupied -->
    <g transform="translate(143.879063 -18.2775)scale(0.12 -0.12)">
     <defs>
      <path id="DejaVuSans-50" d="M 1259 4147 
L 1259 2394 
L 2053 2394 
Q 2494 2394 2734 2622 
Q 2975 2850 2975 3272 
Q 2975 3691 2734 3919 
Q 2494 4147 2053 4147 
L 1259 4147 
z
M 628 4666 
L 2053 4666 
Q 2838 4666 3239 4311 
Q 3641 3956 3641 3272 
Q 3641 2581 3239 2228 
Q 2838 1875 2053 1875 
L 1259 1875 
L 1259 0 
L 628 0 
L 628 4666 
z
" transform="scale(0.015625)"/>
      <path id="DejaVuSans-65" d="M 3597 1894 
L 3597 1613 
L 953 1613 
Q 991 1019 1311 708 
Q 1631 397 2203 397 
Q 2534 397 2845 478 
Q 3156 559 3463 722 
L 3463 178 
Q 3153 47 2828 -22 
Q 2503 -91 2169 -91 
Q 1331 -91 842 396 
Q 353 884 353 1716 
Q 353 2575 817 3079 
Q 1281 3584 2069 3584 
Q 2775 3584 3186 3129 
Q 3597 2675 3597 1894 
z
M 3022 2063 
Q 3016 2534 2758 2815 
Q 2500 3097 2075 3097 
Q 1594 3097 1305 2825 
Q 1016 2553 972 2059 
L 3022 2063 
z
" transform="scale(0.015625)"/>
      <path id="DejaVuSans-72" d="M 2631 2963 
Q 2534 3019 2420 3045 
Q 2306 3072 2169 3072 
Q 1681 3072 1420 2755 
Q 1159 2438 1159 1844 
L 1159 0 
L 581 0 
L 581 3500 
L 1159 3500 
L 1159 2956 
Q 1341 3275 1631 3429 
Q 1922 3584 2338 3584 
Q 2397 3584 2469 3576 
Q 2541 3569 2628 3553 
L 2631 2963 
z
" transform="scale(0.015625)"/>
      <path id="DejaVuSans-63" d="M 3122 3366 
L 3122 2828 
Q 2878 2963 2633 3030 
Q 2388 3097 2138 3097 
Q 1578 3097 1268 2742 
Q 959 2388 959 1747 
Q 959 1106 1268 751 
Q 1578 397 2138 397 
Q 2388 397 2633 464 
Q 2878 531 3122 666 
L 3122 134 
Q 2881 22 2623 -34 
Q 2366 -91 2075 -91 
Q 1284 -91 818 406 
Q 353 903 353 1747 
Q 353 2603 823 3093 
Q 1294 3584 2113 3584 
Q 2378 3584 2631 3529 
Q 2884 3475 3122 3366 
z
" transform="scale(0.015625)"/>
      <path id="DejaVuSans-6e" d="M 3513 2113 
L 3513 0 
L 2938 0 
L 2938 2094 
Q 2938 2591 2744 2837 
Q 2550 3084 2163 3084 
Q 1697 3084 1428 2787 
Q 1159 2491 1159 1978 
L 1159 0 
L 581 0 
L 581 3500 
L 1159 3500 
L 1159 2956 
Q 1366 3272 1645 3428 
Q 1925 3584 2291 3584 
Q 2894 3584 3203 3211 
Q 3513 2838 3513 2113 
z
" transform="scale(0.015625)"/>
      <path id="DejaVuSans-74" d="M 1172 4494 
L 1172 3500 
L 2356 3500 
L 2356 3053 
L 1172 3053 
L 1172 1153 
Q 1172 725 1289 603 
Q 1406 481 1766 481 
L 2356 481 
L 2356 0 
L 1766 0 
Q 1100 0 847 248 
Q 594 497 594 1153 
L 594 3053 
L 172 3053 
L 172 3500 
L 594 3500 
L 594 4494 
L 1172 4494 
z
" transform="scale(0.015625)"/>
      <path id="DejaVuSans-61" d="M 2194 1759 
Q 1497 1759 1228 1600 
Q 959 1441 959 1056 
Q 959 750 1161 570 
Q 1363 391 1709 391 
Q 2188 391 2477 730 
Q 2766 1069 2766 1631 
L 2766 1759 
L 2194 1759 
z
M 3341 1997 
L 3341 0 
L 2766 0 
L 2766 531 
Q 2569 213 2275 61 
Q 1981 -91 1556 -91 
Q 1019 -91 701 211 
Q 384 513 384 1019 
Q 384 1609 779 1909 
Q 1175 2209 1959 2209 
L 2766 2209 
L 2766 2266 
Q 2766 2663 2505 2880 
Q 2244 3097 1772 3097 
Q 1472 3097 1187 3025 
Q 903 2953 641 2809 
L 641 3341 
Q 956 3463 1253 3523 
Q 1550 3584 1831 3584 
Q 2591 3584 2966 3190 
Q 3341 2797 3341 1997 
z
" transform="scale(0.015625)"/>
      <path id="DejaVuSans-67" d="M 2906 1791 
Q 2906 2416 2648 2759 
Q 2391 3103 1925 3103 
Q 1463 3103 1205 2759 
Q 947 2416 947 1791 
Q 947 1169 1205 825 
Q 1463 481 1925 481 
Q 2391 481 2648 825 
Q 2906 1169 2906 1791 
z
M 3481 434 
Q 3481 -459 3084 -895 
Q 2688 -1331 1869 -1331 
Q 1566 -1331 1297 -1286 
Q 1028 -1241 775 -1147 
L 775 -588 
Q 1028 -725 1275 -790 
Q 1522 -856 1778 -856 
Q 2344 -856 2625 -561 
Q 2906 -266 2906 331 
L 2906 616 
Q 2728 306 2450 153 
Q 2172 0 1784 0 
Q 1141 0 747 490 
Q 353 981 353 1791 
Q 353 2603 747 3093 
Q 1141 3584 1784 3584 
Q 2172 3584 2450 3431 
Q 2728 3278 2906 2969 
L 2906 3500 
L 3481 3500 
L 3481 434 
z
" transform="scale(0.015625)"/>
      <path id="DejaVuSans-20" transform="scale(0.015625)"/>
      <path id="DejaVuSans-6f" d="M 1959 3097 
Q 1497 3097 1228 2736 
Q 959 2375 959 1747 
Q 959 1119 1226 758 
Q 1494 397 1959 397 
Q 2419 397 2687 759 
Q 2956 1122 2956 1747 
Q 2956 2369 2687 2733 
Q 2419 3097 1959 3097 
z
M 1959 3584 
Q 2709 3584 3137 3096 
Q 3566 2609 3566 1747 
Q 3566 888 3137 398 
Q 2709 -91 1959 -91 
Q 1206 -91 779 398 
Q 353 888 353 1747 
Q 353 2609 779 3096 
Q 1206 3584 1959 3584 
z
" transform="scale(0.015625)"/>
      <path id="DejaVuSans-66" d="M 2375 4863 
L 2375 4384 
L 1825 4384 
Q 1516 4384 1395 4259 
Q 1275 4134 1275 3809 
L 1275 3500 
L 2222 3500 
L 2222 3053 
L 1275 3053 
L 1275 0 
L 697 0 
L 697 3053 
L 147 3053 
L 147 3500 
L 697 3500 
L 697 3744 
Q 697 4328 969 4595 
Q 1241 4863 1831 4863 
L 2375 4863 
z
" transform="scale(0.015625)"/>
      <path id="DejaVuSans-52" d="M 2841 2188 
Q 3044 2119 3236 1894 
Q 3428 1669 3622 1275 
L 4263 0 
L 3584 0 
L 2988 1197 
Q 2756 1666 2539 1819 
Q 2322 1972 1947 1972 
L 1259 1972 
L 1259 0 
L 628 0 
L 628 4666 
L 2053 4666 
Q 2853 4666 3247 4331 
Q 3641 3997 3641 3322 
Q 3641 2881 3436 2590 
Q 3231 2300 2841 2188 
z
M 1259 4147 
L 1259 2491 
L 2053 2491 
Q 2509 2491 2742 2702 
Q 2975 2913 2975 3322 
Q 2975 3731 2742 3939 
Q 2509 4147 2053 4147 
L 1259 4147 
z
" transform="scale(0.015625)"/>
      <path id="DejaVuSans-69" d="M 603 3500 
L 1178 3500 
L 1178 0 
L 603 0 
L 603 3500 
z
M 603 4863 
L 1178 4863 
L 1178 4134 
L 603 4134 
L 603 4863 
z
" transform="scale(0.015625)"/>
      <path id="DejaVuSans-64" d="M 2906 2969 
L 2906 4863 
L 3481 4863 
L 3481 0 
L 2906 0 
L 2906 525 
Q 2725 213 2448 61 
Q 2172 -91 1784 -91 
Q 1150 -91 751 415 
Q 353 922 353 1747 
Q 353 2572 751 3078 
Q 1150 3584 1784 3584 
Q 2172 3584 2448 3432 
Q 2725 3281 2906 2969 
z
M 947 1747 
Q 947 1113 1208 752 
Q 1469 391 1925 391 
Q 2381 391 2643 752 
Q 2906 1113 2906 1747 
Q 2906 2381 2643 2742 
Q 2381 3103 1925 3103 
Q 1469 3103 1208 2742 
Q 947 2381 947 1747 
z
" transform="scale(0.015625)"/>
      <path id="DejaVuSans-73" d="M 2834 3397 
L 2834 2853 
Q 2591 2978 2328 3040 
Q 2066 3103 1784 3103 
Q 1356 3103 1142 2972 
Q 928 2841 928 2578 
Q 928 2378 1081 2264 
Q 1234 2150 1697 2047 
L 1894 2003 
Q 2506 1872 2764 1633 
Q 3022 1394 3022 966 
Q 3022 478 2636 193 
Q 2250 -91 1575 -91 
Q 1294 -91 989 -36 
Q 684 19 347 128 
L 347 722 
Q 666 556 975 473 
Q 1284 391 1588 391 
Q 1994 391 2212 530 
Q 2431 669 2431 922 
Q 2431 1156 2273 1281 
Q 2116 1406 1581 1522 
L 1381 1569 
Q 847 1681 609 1914 
Q 372 2147 372 2553 
Q 372 3047 722 3315 
Q 1072 3584 1716 3584 
Q 2034 3584 2315 3537 
Q 2597 3491 2834 3397 
z
" transform="scale(0.015625)"/>
      <path id="DejaVuSans-4f" d="M 2522 4238 
Q 1834 4238 1429 3725 
Q 1025 3213 1025 2328 
Q 1025 1447 1429 934 
Q 1834 422 2522 422 
Q 3209 422 3611 934 
Q 4013 1447 4013 2328 
Q 4013 3213 3611 3725 
Q 3209 4238 2522 4238 
z
M 2522 4750 
Q 3503 4750 4090 4092 
Q 4678 3434 4678 2328 
Q 4678 1225 4090 567 
Q 3503 -91 2522 -91 
Q 1538 -91 948 565 
Q 359 1222 359 2328 
Q 359 3434 948 4092 
Q 1538 4750 2522 4750 
z
" transform="scale(0.015625)"/>
      <path id="DejaVuSans-75" d="M 544 1381 
L 544 3500 
L 1119 3500 
L 1119 1403 
Q 1119 906 1312 657 
Q 1506 409 1894 409 
Q 2359 409 2629 706 
Q 2900 1003 2900 1516 
L 2900 3500 
L 3475 3500 
L 3475 0 
L 2900 0 
L 2900 538 
Q 2691 219 2414 64 
Q 2138 -91 1772 -91 
Q 1169 -91 856 284 
Q 544 659 544 1381 
z
M 1991 3584 
L 1991 3584 
z
" transform="scale(0.015625)"/>
      <path id="DejaVuSans-70" d="M 1159 525 
L 1159 -1331 
L 581 -1331 
L 581 3500 
L 1159 3500 
L 1159 2969 
Q 1341 3281 1617 3432 
Q 1894 3584 2278 3584 
Q 2916 3584 3314 3078 
Q 3713 2572 3713 1747 
Q 3713 922 3314 415 
Q 2916 -91 2278 -91 
Q 1894 -91 1617 61 
Q 1341 213 1159 525 
z
M 3116 1747 
Q 3116 2381 2855 2742 
Q 2594 3103 2138 3103 
Q 1681 3103 1420 2742 
Q 1159 2381 1159 1747 
Q 1159 1113 1420 752 
Q 1681 391 2138 391 
Q 2594 391 2855 752 
Q 3116 1113 3116 1747 
z
" transform="scale(0.015625)"/>
     </defs>
     <use xlink:href="#DejaVuSans-50"/>
     <use xlink:href="#DejaVuSans-65" x="56.677734"/>
     <use xlink:href="#DejaVuSans-72" x="118.201172"/>
     <use xlink:href="#DejaVuSans-63" x="157.064453"/>
     <use xlink:href="#DejaVuSans-65" x="212.044922"/>
     <use xlink:href="#DejaVuSans-6e" x="273.568359"/>
     <use xlink:href="#DejaVuSans-74" x="336.947266"/>
     <use xlink:href="#DejaVuSans-61" x="376.15625"/>
     <use xlink:href="#DejaVuSans-67" x="437.435547"/>
     <use xlink:href="#DejaVuSans-65" x="500.912109"/>
     <use xlink:href="#DejaVuSans-20" x="562.435547"/>
     <use xlink:href="#DejaVuSans-6f" x="594.222656"/>
     <use xlink:href="#DejaVuSans-66" x="655.404297"/>
     <use xlink:href="#DejaVuSans-20" x="690.609375"/>
     <use xlink:href="#DejaVuSans-52" x="722.396484"/>
     <use xlink:href="#DejaVuSans-69" x="791.878906"/>
     <use xlink:href="#DejaVuSans-64" x="819.662109"/>
     <use xlink:href="#DejaVuSans-65" x="883.138672"/>
     <use xlink:href="#DejaVuSans-72" x="944.662109"/>
     <use xlink:href="#DejaVuSans-73" x="985.775391"/>
     <use xlink:href="#DejaVuSans-20" x="1037.875"/>
     <use xlink:href="#DejaVuSans-4f" x="1069.662109"/>
     <use xlink:href="#DejaVuSans-63" x="1148.373047"/>
     <use xlink:href="#DejaVuSans-63" x="1203.353516"/>
     <use xlink:href="#DejaVuSans-75" x="1258.333984"/>
     <use xlink:href="#DejaVuSans-70" x="1321.712891"/>
     <use xlink:href="#DejaVuSans-69" x="1385.189453"/>
     <use xlink:href="#DejaVuSans-65" x="1412.972656"/>
     <use xlink:href="#DejaVuSans-64" x="1474.496094"/>
    </g>
    <!-- lambda :30 -->
    <g transform="translate(202.11375 -4.840125)scale(0.12 -0.12)">
     <defs>
      <path id="DejaVuSans-6c" d="M 603 4863 
L 1178 4863 
L 1178 0 
L 603 0 
L 603 4863 
z
" transform="scale(0.015625)"/>
      <path id="DejaVuSans-6d" d="M 3328 2828 
Q 3544 3216 3844 3400 
Q 4144 3584 4550 3584 
Q 5097 3584 5394 3201 
Q 5691 2819 5691 2113 
L 5691 0 
L 5113 0 
L 5113 2094 
Q 5113 2597 4934 2840 
Q 4756 3084 4391 3084 
Q 3944 3084 3684 2787 
Q 3425 2491 3425 1978 
L 3425 0 
L 2847 0 
L 2847 2094 
Q 2847 2600 2669 2842 
Q 2491 3084 2119 3084 
Q 1678 3084 1418 2786 
Q 1159 2488 1159 1978 
L 1159 0 
L 581 0 
L 581 3500 
L 1159 3500 
L 1159 2956 
Q 1356 3278 1631 3431 
Q 1906 3584 2284 3584 
Q 2666 3584 2933 3390 
Q 3200 3197 3328 2828 
z
" transform="scale(0.015625)"/>
      <path id="DejaVuSans-62" d="M 3116 1747 
Q 3116 2381 2855 2742 
Q 2594 3103 2138 3103 
Q 1681 3103 1420 2742 
Q 1159 2381 1159 1747 
Q 1159 1113 1420 752 
Q 1681 391 2138 391 
Q 2594 391 2855 752 
Q 3116 1113 3116 1747 
z
M 1159 2969 
Q 1341 3281 1617 3432 
Q 1894 3584 2278 3584 
Q 2916 3584 3314 3078 
Q 3713 2572 3713 1747 
Q 3713 922 3314 415 
Q 2916 -91 2278 -91 
Q 1894 -91 1617 61 
Q 1341 213 1159 525 
L 1159 0 
L 581 0 
L 581 4863 
L 1159 4863 
L 1159 2969 
z
" transform="scale(0.015625)"/>
      <path id="DejaVuSans-3a" d="M 750 794 
L 1409 794 
L 1409 0 
L 750 0 
L 750 794 
z
M 750 3309 
L 1409 3309 
L 1409 2516 
L 750 2516 
L 750 3309 
z
" transform="scale(0.015625)"/>
      <path id="DejaVuSans-33" d="M 2597 2516 
Q 3050 2419 3304 2112 
Q 3559 1806 3559 1356 
Q 3559 666 3084 287 
Q 2609 -91 1734 -91 
Q 1441 -91 1130 -33 
Q 819 25 488 141 
L 488 750 
Q 750 597 1062 519 
Q 1375 441 1716 441 
Q 2309 441 2620 675 
Q 2931 909 2931 1356 
Q 2931 1769 2642 2001 
Q 2353 2234 1838 2234 
L 1294 2234 
L 1294 2753 
L 1863 2753 
Q 2328 2753 2575 2939 
Q 2822 3125 2822 3475 
Q 2822 3834 2567 4026 
Q 2313 4219 1838 4219 
Q 1578 4219 1281 4162 
Q 984 4106 628 3988 
L 628 4550 
Q 988 4650 1302 4700 
Q 1616 4750 1894 4750 
Q 2613 4750 3031 4423 
Q 3450 4097 3450 3541 
Q 3450 3153 3228 2886 
Q 3006 2619 2597 2516 
z
" transform="scale(0.015625)"/>
     </defs>
     <use xlink:href="#DejaVuSans-6c"/>
     <use xlink:href="#DejaVuSans-61" x="27.783203"/>
     <use xlink:href="#DejaVuSans-6d" x="89.0625"/>
     <use xlink:href="#DejaVuSans-62" x="186.474609"/>
     <use xlink:href="#DejaVuSans-64" x="249.951172"/>
     <use xlink:href="#DejaVuSans-61" x="313.427734"/>
     <use xlink:href="#DejaVuSans-20" x="374.707031"/>
     <use xlink:href="#DejaVuSans-3a" x="406.494141"/>
     <use xlink:href="#DejaVuSans-33" x="440.185547"/>
     <use xlink:href="#DejaVuSans-30" x="503.808594"/>
    </g>
    <!-- #Orders per period:5000 -->
    <g transform="translate(160.767188 8.59725)scale(0.12 -0.12)">
     <defs>
      <path id="DejaVuSans-23" d="M 3272 2816 
L 2363 2816 
L 2100 1772 
L 3016 1772 
L 3272 2816 
z
M 2803 4594 
L 2478 3297 
L 3391 3297 
L 3719 4594 
L 4219 4594 
L 3897 3297 
L 4872 3297 
L 4872 2816 
L 3775 2816 
L 3519 1772 
L 4513 1772 
L 4513 1294 
L 3397 1294 
L 3072 0 
L 2572 0 
L 2894 1294 
L 1978 1294 
L 1656 0 
L 1153 0 
L 1478 1294 
L 494 1294 
L 494 1772 
L 1594 1772 
L 1856 2816 
L 850 2816 
L 850 3297 
L 1978 3297 
L 2297 4594 
L 2803 4594 
z
" transform="scale(0.015625)"/>
     </defs>
     <use xlink:href="#DejaVuSans-23"/>
     <use xlink:href="#DejaVuSans-4f" x="83.789062"/>
     <use xlink:href="#DejaVuSans-72" x="162.5"/>
     <use xlink:href="#DejaVuSans-64" x="201.863281"/>
     <use xlink:href="#DejaVuSans-65" x="265.339844"/>
     <use xlink:href="#DejaVuSans-72" x="326.863281"/>
     <use xlink:href="#DejaVuSans-73" x="367.976562"/>
     <use xlink:href="#DejaVuSans-20" x="420.076172"/>
     <use xlink:href="#DejaVuSans-70" x="451.863281"/>
     <use xlink:href="#DejaVuSans-65" x="515.339844"/>
     <use xlink:href="#DejaVuSans-72" x="576.863281"/>
     <use xlink:href="#DejaVuSans-20" x="617.976562"/>
     <use xlink:href="#DejaVuSans-70" x="649.763672"/>
     <use xlink:href="#DejaVuSans-65" x="713.240234"/>
     <use xlink:href="#DejaVuSans-72" x="774.763672"/>
     <use xlink:href="#DejaVuSans-69" x="815.876953"/>
     <use xlink:href="#DejaVuSans-6f" x="843.660156"/>
     <use xlink:href="#DejaVuSans-64" x="904.841797"/>
     <use xlink:href="#DejaVuSans-3a" x="968.318359"/>
     <use xlink:href="#DejaVuSans-35" x="1002.009766"/>
     <use xlink:href="#DejaVuSans-30" x="1065.632812"/>
     <use xlink:href="#DejaVuSans-30" x="1129.255859"/>
     <use xlink:href="#DejaVuSans-30" x="1192.878906"/>
    </g>
    <!--  NUmber of Riders:32 -->
    <g transform="translate(171.37875 22.034625)scale(0.12 -0.12)">
     <defs>
      <path id="DejaVuSans-4e" d="M 628 4666 
L 1478 4666 
L 3547 763 
L 3547 4666 
L 4159 4666 
L 4159 0 
L 3309 0 
L 1241 3903 
L 1241 0 
L 628 0 
L 628 4666 
z
" transform="scale(0.015625)"/>
      <path id="DejaVuSans-55" d="M 556 4666 
L 1191 4666 
L 1191 1831 
Q 1191 1081 1462 751 
Q 1734 422 2344 422 
Q 2950 422 3222 751 
Q 3494 1081 3494 1831 
L 3494 4666 
L 4128 4666 
L 4128 1753 
Q 4128 841 3676 375 
Q 3225 -91 2344 -91 
Q 1459 -91 1007 375 
Q 556 841 556 1753 
L 556 4666 
z
" transform="scale(0.015625)"/>
     </defs>
     <use xlink:href="#DejaVuSans-20"/>
     <use xlink:href="#DejaVuSans-4e" x="31.787109"/>
     <use xlink:href="#DejaVuSans-55" x="106.591797"/>
     <use xlink:href="#DejaVuSans-6d" x="179.785156"/>
     <use xlink:href="#DejaVuSans-62" x="277.197266"/>
     <use xlink:href="#DejaVuSans-65" x="340.673828"/>
     <use xlink:href="#DejaVuSans-72" x="402.197266"/>
     <use xlink:href="#DejaVuSans-20" x="443.310547"/>
     <use xlink:href="#DejaVuSans-6f" x="475.097656"/>
     <use xlink:href="#DejaVuSans-66" x="536.279297"/>
     <use xlink:href="#DejaVuSans-20" x="571.484375"/>
     <use xlink:href="#DejaVuSans-52" x="603.271484"/>
     <use xlink:href="#DejaVuSans-69" x="672.753906"/>
     <use xlink:href="#DejaVuSans-64" x="700.537109"/>
     <use xlink:href="#DejaVuSans-65" x="764.013672"/>
     <use xlink:href="#DejaVuSans-72" x="825.537109"/>
     <use xlink:href="#DejaVuSans-73" x="866.650391"/>
     <use xlink:href="#DejaVuSans-3a" x="918.75"/>
     <use xlink:href="#DejaVuSans-33" x="952.441406"/>
     <use xlink:href="#DejaVuSans-32" x="1016.064453"/>
    </g>
    <!-- Difference in mean=0.511 -->
    <g transform="translate(156.636562 35.472)scale(0.12 -0.12)">
     <defs>
      <path id="DejaVuSans-44" d="M 1259 4147 
L 1259 519 
L 2022 519 
Q 2988 519 3436 956 
Q 3884 1394 3884 2338 
Q 3884 3275 3436 3711 
Q 2988 4147 2022 4147 
L 1259 4147 
z
M 628 4666 
L 1925 4666 
Q 3281 4666 3915 4102 
Q 4550 3538 4550 2338 
Q 4550 1131 3912 565 
Q 3275 0 1925 0 
L 628 0 
L 628 4666 
z
" transform="scale(0.015625)"/>
      <path id="DejaVuSans-3d" d="M 678 2906 
L 4684 2906 
L 4684 2381 
L 678 2381 
L 678 2906 
z
M 678 1631 
L 4684 1631 
L 4684 1100 
L 678 1100 
L 678 1631 
z
" transform="scale(0.015625)"/>
     </defs>
     <use xlink:href="#DejaVuSans-44"/>
     <use xlink:href="#DejaVuSans-69" x="77.001953"/>
     <use xlink:href="#DejaVuSans-66" x="104.785156"/>
     <use xlink:href="#DejaVuSans-66" x="139.990234"/>
     <use xlink:href="#DejaVuSans-65" x="175.195312"/>
     <use xlink:href="#DejaVuSans-72" x="236.71875"/>
     <use xlink:href="#DejaVuSans-65" x="275.582031"/>
     <use xlink:href="#DejaVuSans-6e" x="337.105469"/>
     <use xlink:href="#DejaVuSans-63" x="400.484375"/>
     <use xlink:href="#DejaVuSans-65" x="455.464844"/>
     <use xlink:href="#DejaVuSans-20" x="516.988281"/>
     <use xlink:href="#DejaVuSans-69" x="548.775391"/>
     <use xlink:href="#DejaVuSans-6e" x="576.558594"/>
     <use xlink:href="#DejaVuSans-20" x="639.9375"/>
     <use xlink:href="#DejaVuSans-6d" x="671.724609"/>
     <use xlink:href="#DejaVuSans-65" x="769.136719"/>
     <use xlink:href="#DejaVuSans-61" x="830.660156"/>
     <use xlink:href="#DejaVuSans-6e" x="891.939453"/>
     <use xlink:href="#DejaVuSans-3d" x="955.318359"/>
     <use xlink:href="#DejaVuSans-30" x="1039.107422"/>
     <use xlink:href="#DejaVuSans-2e" x="1102.730469"/>
     <use xlink:href="#DejaVuSans-35" x="1134.517578"/>
     <use xlink:href="#DejaVuSans-31" x="1198.140625"/>
     <use xlink:href="#DejaVuSans-31" x="1261.763672"/>
    </g>
   </g>
   <g id="legend_1">
    <g id="patch_7">
     <path d="M 64.6 302.584 
L 156.384375 302.584 
Q 158.384375 302.584 158.384375 300.584 
L 158.384375 272.22775 
Q 158.384375 270.22775 156.384375 270.22775 
L 64.6 270.22775 
Q 62.6 270.22775 62.6 272.22775 
L 62.6 300.584 
Q 62.6 302.584 64.6 302.584 
z
" style="fill: #ffffff; opacity: 0.8; stroke: #cccccc; stroke-linejoin: miter"/>
    </g>
    <g id="line2d_16">
     <path d="M 66.6 278.326187 
L 76.6 278.326187 
L 86.6 278.326187 
" style="fill: none; stroke-dasharray: 5.55,2.4; stroke-dashoffset: 0; stroke: #1f77b4; stroke-width: 1.5"/>
    </g>
    <g id="text_15">
     <!-- Default -->
     <g transform="translate(94.6 281.826187)scale(0.1 -0.1)">
      <use xlink:href="#DejaVuSans-44"/>
      <use xlink:href="#DejaVuSans-65" x="77.001953"/>
      <use xlink:href="#DejaVuSans-66" x="138.525391"/>
      <use xlink:href="#DejaVuSans-61" x="173.730469"/>
      <use xlink:href="#DejaVuSans-75" x="235.009766"/>
      <use xlink:href="#DejaVuSans-6c" x="298.388672"/>
      <use xlink:href="#DejaVuSans-74" x="326.171875"/>
     </g>
    </g>
    <g id="line2d_17">
     <path d="M 66.6 293.004312 
L 76.6 293.004312 
L 86.6 293.004312 
" style="fill: none; stroke-dasharray: 1.5,2.475; stroke-dashoffset: 0; stroke: #ff7f0e; stroke-width: 1.5"/>
    </g>
    <g id="text_16">
     <!-- Anticipation -->
     <g transform="translate(94.6 296.504312)scale(0.1 -0.1)">
      <defs>
       <path id="DejaVuSans-41" d="M 2188 4044 
L 1331 1722 
L 3047 1722 
L 2188 4044 
z
M 1831 4666 
L 2547 4666 
L 4325 0 
L 3669 0 
L 3244 1197 
L 1141 1197 
L 716 0 
L 50 0 
L 1831 4666 
z
" transform="scale(0.015625)"/>
      </defs>
      <use xlink:href="#DejaVuSans-41"/>
      <use xlink:href="#DejaVuSans-6e" x="68.408203"/>
      <use xlink:href="#DejaVuSans-74" x="131.787109"/>
      <use xlink:href="#DejaVuSans-69" x="170.996094"/>
      <use xlink:href="#DejaVuSans-63" x="198.779297"/>
      <use xlink:href="#DejaVuSans-69" x="253.759766"/>
      <use xlink:href="#DejaVuSans-70" x="281.542969"/>
      <use xlink:href="#DejaVuSans-61" x="345.019531"/>
      <use xlink:href="#DejaVuSans-74" x="406.298828"/>
      <use xlink:href="#DejaVuSans-69" x="445.507812"/>
      <use xlink:href="#DejaVuSans-6f" x="473.291016"/>
      <use xlink:href="#DejaVuSans-6e" x="534.472656"/>
     </g>
    </g>
   </g>
  </g>
 </g>
 <defs>
  <clipPath id="p0b634627d5">
   <rect x="57.6" y="41.472" width="357.12" height="266.112"/>
  </clipPath>
 </defs>
</svg>
