<?xml version="1.0" encoding="utf-8" standalone="no"?>
<!DOCTYPE svg PUBLIC "-//W3C//DTD SVG 1.1//EN"
  "http://www.w3.org/Graphics/SVG/1.1/DTD/svg11.dtd">
<svg xmlns:xlink="http://www.w3.org/1999/xlink" width="460.8pt" height="345.6pt" viewBox="0 0 460.8 345.6" xmlns="http://www.w3.org/2000/svg" version="1.1">
 <metadata>
  <rdf:RDF xmlns:dc="http://purl.org/dc/elements/1.1/" xmlns:cc="http://creativecommons.org/ns#" xmlns:rdf="http://www.w3.org/1999/02/22-rdf-syntax-ns#">
   <cc:Work>
    <dc:type rdf:resource="http://purl.org/dc/dcmitype/StillImage"/>
    <dc:date>2022-10-10T12:49:34.679258</dc:date>
    <dc:format>image/svg+xml</dc:format>
    <dc:creator>
     <cc:Agent>
      <dc:title>Matplotlib v3.5.3, https://matplotlib.org/</dc:title>
     </cc:Agent>
    </dc:creator>
   </cc:Work>
  </rdf:RDF>
 </metadata>
 <defs>
  <style type="text/css">*{stroke-linejoin: round; stroke-linecap: butt}</style>
 </defs>
 <g id="figure_1">
  <g id="patch_1">
   <path d="M 0 345.6 
L 460.8 345.6 
L 460.8 0 
L 0 0 
z
" style="fill: #ffffff"/>
  </g>
  <g id="axes_1">
   <g id="patch_2">
    <path d="M 57.6 307.584 
L 414.72 307.584 
L 414.72 41.472 
L 57.6 41.472 
z
" style="fill: #ffffff"/>
   </g>
   <g id="matplotlib.axis_1">
    <g id="xtick_1">
     <g id="line2d_1">
      <defs>
       <path id="mf9920bb301" d="M 0 0 
L 0 3.5 
" style="stroke: #000000; stroke-width: 0.8"/>
      </defs>
      <g>
       <use xlink:href="#mf9920bb301" x="73.832727" y="307.584" style="stroke: #000000; stroke-width: 0.8"/>
      </g>
     </g>
     <g id="text_1">
      <!-- 0 -->
      <g transform="translate(70.651477 322.182437)scale(0.1 -0.1)">
       <defs>
        <path id="DejaVuSans-30" d="M 2034 4250 
Q 1547 4250 1301 3770 
Q 1056 3291 1056 2328 
Q 1056 1369 1301 889 
Q 1547 409 2034 409 
Q 2525 409 2770 889 
Q 3016 1369 3016 2328 
Q 3016 3291 2770 3770 
Q 2525 4250 2034 4250 
z
M 2034 4750 
Q 2819 4750 3233 4129 
Q 3647 3509 3647 2328 
Q 3647 1150 3233 529 
Q 2819 -91 2034 -91 
Q 1250 -91 836 529 
Q 422 1150 422 2328 
Q 422 3509 836 4129 
Q 1250 4750 2034 4750 
z
" transform="scale(0.015625)"/>
       </defs>
       <use xlink:href="#DejaVuSans-30"/>
      </g>
     </g>
    </g>
    <g id="xtick_2">
     <g id="line2d_2">
      <g>
       <use xlink:href="#mf9920bb301" x="138.776625" y="307.584" style="stroke: #000000; stroke-width: 0.8"/>
      </g>
     </g>
     <g id="text_2">
      <!-- 1000 -->
      <g transform="translate(126.051625 322.182437)scale(0.1 -0.1)">
       <defs>
        <path id="DejaVuSans-31" d="M 794 531 
L 1825 531 
L 1825 4091 
L 703 3866 
L 703 4441 
L 1819 4666 
L 2450 4666 
L 2450 531 
L 3481 531 
L 3481 0 
L 794 0 
L 794 531 
z
" transform="scale(0.015625)"/>
       </defs>
       <use xlink:href="#DejaVuSans-31"/>
       <use xlink:href="#DejaVuSans-30" x="63.623047"/>
       <use xlink:href="#DejaVuSans-30" x="127.246094"/>
       <use xlink:href="#DejaVuSans-30" x="190.869141"/>
      </g>
     </g>
    </g>
    <g id="xtick_3">
     <g id="line2d_3">
      <g>
       <use xlink:href="#mf9920bb301" x="203.720523" y="307.584" style="stroke: #000000; stroke-width: 0.8"/>
      </g>
     </g>
     <g id="text_3">
      <!-- 2000 -->
      <g transform="translate(190.995523 322.182437)scale(0.1 -0.1)">
       <defs>
        <path id="DejaVuSans-32" d="M 1228 531 
L 3431 531 
L 3431 0 
L 469 0 
L 469 531 
Q 828 903 1448 1529 
Q 2069 2156 2228 2338 
Q 2531 2678 2651 2914 
Q 2772 3150 2772 3378 
Q 2772 3750 2511 3984 
Q 2250 4219 1831 4219 
Q 1534 4219 1204 4116 
Q 875 4013 500 3803 
L 500 4441 
Q 881 4594 1212 4672 
Q 1544 4750 1819 4750 
Q 2544 4750 2975 4387 
Q 3406 4025 3406 3419 
Q 3406 3131 3298 2873 
Q 3191 2616 2906 2266 
Q 2828 2175 2409 1742 
Q 1991 1309 1228 531 
z
" transform="scale(0.015625)"/>
       </defs>
       <use xlink:href="#DejaVuSans-32"/>
       <use xlink:href="#DejaVuSans-30" x="63.623047"/>
       <use xlink:href="#DejaVuSans-30" x="127.246094"/>
       <use xlink:href="#DejaVuSans-30" x="190.869141"/>
      </g>
     </g>
    </g>
    <g id="xtick_4">
     <g id="line2d_4">
      <g>
       <use xlink:href="#mf9920bb301" x="268.664421" y="307.584" style="stroke: #000000; stroke-width: 0.8"/>
      </g>
     </g>
     <g id="text_4">
      <!-- 3000 -->
      <g transform="translate(255.939421 322.182437)scale(0.1 -0.1)">
       <defs>
        <path id="DejaVuSans-33" d="M 2597 2516 
Q 3050 2419 3304 2112 
Q 3559 1806 3559 1356 
Q 3559 666 3084 287 
Q 2609 -91 1734 -91 
Q 1441 -91 1130 -33 
Q 819 25 488 141 
L 488 750 
Q 750 597 1062 519 
Q 1375 441 1716 441 
Q 2309 441 2620 675 
Q 2931 909 2931 1356 
Q 2931 1769 2642 2001 
Q 2353 2234 1838 2234 
L 1294 2234 
L 1294 2753 
L 1863 2753 
Q 2328 2753 2575 2939 
Q 2822 3125 2822 3475 
Q 2822 3834 2567 4026 
Q 2313 4219 1838 4219 
Q 1578 4219 1281 4162 
Q 984 4106 628 3988 
L 628 4550 
Q 988 4650 1302 4700 
Q 1616 4750 1894 4750 
Q 2613 4750 3031 4423 
Q 3450 4097 3450 3541 
Q 3450 3153 3228 2886 
Q 3006 2619 2597 2516 
z
" transform="scale(0.015625)"/>
       </defs>
       <use xlink:href="#DejaVuSans-33"/>
       <use xlink:href="#DejaVuSans-30" x="63.623047"/>
       <use xlink:href="#DejaVuSans-30" x="127.246094"/>
       <use xlink:href="#DejaVuSans-30" x="190.869141"/>
      </g>
     </g>
    </g>
    <g id="xtick_5">
     <g id="line2d_5">
      <g>
       <use xlink:href="#mf9920bb301" x="333.608319" y="307.584" style="stroke: #000000; stroke-width: 0.8"/>
      </g>
     </g>
     <g id="text_5">
      <!-- 4000 -->
      <g transform="translate(320.883319 322.182437)scale(0.1 -0.1)">
       <defs>
        <path id="DejaVuSans-34" d="M 2419 4116 
L 825 1625 
L 2419 1625 
L 2419 4116 
z
M 2253 4666 
L 3047 4666 
L 3047 1625 
L 3713 1625 
L 3713 1100 
L 3047 1100 
L 3047 0 
L 2419 0 
L 2419 1100 
L 313 1100 
L 313 1709 
L 2253 4666 
z
" transform="scale(0.015625)"/>
       </defs>
       <use xlink:href="#DejaVuSans-34"/>
       <use xlink:href="#DejaVuSans-30" x="63.623047"/>
       <use xlink:href="#DejaVuSans-30" x="127.246094"/>
       <use xlink:href="#DejaVuSans-30" x="190.869141"/>
      </g>
     </g>
    </g>
    <g id="xtick_6">
     <g id="line2d_6">
      <g>
       <use xlink:href="#mf9920bb301" x="398.552217" y="307.584" style="stroke: #000000; stroke-width: 0.8"/>
      </g>
     </g>
     <g id="text_6">
      <!-- 5000 -->
      <g transform="translate(385.827217 322.182437)scale(0.1 -0.1)">
       <defs>
        <path id="DejaVuSans-35" d="M 691 4666 
L 3169 4666 
L 3169 4134 
L 1269 4134 
L 1269 2991 
Q 1406 3038 1543 3061 
Q 1681 3084 1819 3084 
Q 2600 3084 3056 2656 
Q 3513 2228 3513 1497 
Q 3513 744 3044 326 
Q 2575 -91 1722 -91 
Q 1428 -91 1123 -41 
Q 819 9 494 109 
L 494 744 
Q 775 591 1075 516 
Q 1375 441 1709 441 
Q 2250 441 2565 725 
Q 2881 1009 2881 1497 
Q 2881 1984 2565 2268 
Q 2250 2553 1709 2553 
Q 1456 2553 1204 2497 
Q 953 2441 691 2322 
L 691 4666 
z
" transform="scale(0.015625)"/>
       </defs>
       <use xlink:href="#DejaVuSans-35"/>
       <use xlink:href="#DejaVuSans-30" x="63.623047"/>
       <use xlink:href="#DejaVuSans-30" x="127.246094"/>
       <use xlink:href="#DejaVuSans-30" x="190.869141"/>
      </g>
     </g>
    </g>
    <g id="text_7">
     <!-- Number of Orders -->
     <g transform="translate(191.261562 335.860562)scale(0.1 -0.1)">
      <defs>
       <path id="DejaVuSans-4e" d="M 628 4666 
L 1478 4666 
L 3547 763 
L 3547 4666 
L 4159 4666 
L 4159 0 
L 3309 0 
L 1241 3903 
L 1241 0 
L 628 0 
L 628 4666 
z
" transform="scale(0.015625)"/>
       <path id="DejaVuSans-75" d="M 544 1381 
L 544 3500 
L 1119 3500 
L 1119 1403 
Q 1119 906 1312 657 
Q 1506 409 1894 409 
Q 2359 409 2629 706 
Q 2900 1003 2900 1516 
L 2900 3500 
L 3475 3500 
L 3475 0 
L 2900 0 
L 2900 538 
Q 2691 219 2414 64 
Q 2138 -91 1772 -91 
Q 1169 -91 856 284 
Q 544 659 544 1381 
z
M 1991 3584 
L 1991 3584 
z
" transform="scale(0.015625)"/>
       <path id="DejaVuSans-6d" d="M 3328 2828 
Q 3544 3216 3844 3400 
Q 4144 3584 4550 3584 
Q 5097 3584 5394 3201 
Q 5691 2819 5691 2113 
L 5691 0 
L 5113 0 
L 5113 2094 
Q 5113 2597 4934 2840 
Q 4756 3084 4391 3084 
Q 3944 3084 3684 2787 
Q 3425 2491 3425 1978 
L 3425 0 
L 2847 0 
L 2847 2094 
Q 2847 2600 2669 2842 
Q 2491 3084 2119 3084 
Q 1678 3084 1418 2786 
Q 1159 2488 1159 1978 
L 1159 0 
L 581 0 
L 581 3500 
L 1159 3500 
L 1159 2956 
Q 1356 3278 1631 3431 
Q 1906 3584 2284 3584 
Q 2666 3584 2933 3390 
Q 3200 3197 3328 2828 
z
" transform="scale(0.015625)"/>
       <path id="DejaVuSans-62" d="M 3116 1747 
Q 3116 2381 2855 2742 
Q 2594 3103 2138 3103 
Q 1681 3103 1420 2742 
Q 1159 2381 1159 1747 
Q 1159 1113 1420 752 
Q 1681 391 2138 391 
Q 2594 391 2855 752 
Q 3116 1113 3116 1747 
z
M 1159 2969 
Q 1341 3281 1617 3432 
Q 1894 3584 2278 3584 
Q 2916 3584 3314 3078 
Q 3713 2572 3713 1747 
Q 3713 922 3314 415 
Q 2916 -91 2278 -91 
Q 1894 -91 1617 61 
Q 1341 213 1159 525 
L 1159 0 
L 581 0 
L 581 4863 
L 1159 4863 
L 1159 2969 
z
" transform="scale(0.015625)"/>
       <path id="DejaVuSans-65" d="M 3597 1894 
L 3597 1613 
L 953 1613 
Q 991 1019 1311 708 
Q 1631 397 2203 397 
Q 2534 397 2845 478 
Q 3156 559 3463 722 
L 3463 178 
Q 3153 47 2828 -22 
Q 2503 -91 2169 -91 
Q 1331 -91 842 396 
Q 353 884 353 1716 
Q 353 2575 817 3079 
Q 1281 3584 2069 3584 
Q 2775 3584 3186 3129 
Q 3597 2675 3597 1894 
z
M 3022 2063 
Q 3016 2534 2758 2815 
Q 2500 3097 2075 3097 
Q 1594 3097 1305 2825 
Q 1016 2553 972 2059 
L 3022 2063 
z
" transform="scale(0.015625)"/>
       <path id="DejaVuSans-72" d="M 2631 2963 
Q 2534 3019 2420 3045 
Q 2306 3072 2169 3072 
Q 1681 3072 1420 2755 
Q 1159 2438 1159 1844 
L 1159 0 
L 581 0 
L 581 3500 
L 1159 3500 
L 1159 2956 
Q 1341 3275 1631 3429 
Q 1922 3584 2338 3584 
Q 2397 3584 2469 3576 
Q 2541 3569 2628 3553 
L 2631 2963 
z
" transform="scale(0.015625)"/>
       <path id="DejaVuSans-20" transform="scale(0.015625)"/>
       <path id="DejaVuSans-6f" d="M 1959 3097 
Q 1497 3097 1228 2736 
Q 959 2375 959 1747 
Q 959 1119 1226 758 
Q 1494 397 1959 397 
Q 2419 397 2687 759 
Q 2956 1122 2956 1747 
Q 2956 2369 2687 2733 
Q 2419 3097 1959 3097 
z
M 1959 3584 
Q 2709 3584 3137 3096 
Q 3566 2609 3566 1747 
Q 3566 888 3137 398 
Q 2709 -91 1959 -91 
Q 1206 -91 779 398 
Q 353 888 353 1747 
Q 353 2609 779 3096 
Q 1206 3584 1959 3584 
z
" transform="scale(0.015625)"/>
       <path id="DejaVuSans-66" d="M 2375 4863 
L 2375 4384 
L 1825 4384 
Q 1516 4384 1395 4259 
Q 1275 4134 1275 3809 
L 1275 3500 
L 2222 3500 
L 2222 3053 
L 1275 3053 
L 1275 0 
L 697 0 
L 697 3053 
L 147 3053 
L 147 3500 
L 697 3500 
L 697 3744 
Q 697 4328 969 4595 
Q 1241 4863 1831 4863 
L 2375 4863 
z
" transform="scale(0.015625)"/>
       <path id="DejaVuSans-4f" d="M 2522 4238 
Q 1834 4238 1429 3725 
Q 1025 3213 1025 2328 
Q 1025 1447 1429 934 
Q 1834 422 2522 422 
Q 3209 422 3611 934 
Q 4013 1447 4013 2328 
Q 4013 3213 3611 3725 
Q 3209 4238 2522 4238 
z
M 2522 4750 
Q 3503 4750 4090 4092 
Q 4678 3434 4678 2328 
Q 4678 1225 4090 567 
Q 3503 -91 2522 -91 
Q 1538 -91 948 565 
Q 359 1222 359 2328 
Q 359 3434 948 4092 
Q 1538 4750 2522 4750 
z
" transform="scale(0.015625)"/>
       <path id="DejaVuSans-64" d="M 2906 2969 
L 2906 4863 
L 3481 4863 
L 3481 0 
L 2906 0 
L 2906 525 
Q 2725 213 2448 61 
Q 2172 -91 1784 -91 
Q 1150 -91 751 415 
Q 353 922 353 1747 
Q 353 2572 751 3078 
Q 1150 3584 1784 3584 
Q 2172 3584 2448 3432 
Q 2725 3281 2906 2969 
z
M 947 1747 
Q 947 1113 1208 752 
Q 1469 391 1925 391 
Q 2381 391 2643 752 
Q 2906 1113 2906 1747 
Q 2906 2381 2643 2742 
Q 2381 3103 1925 3103 
Q 1469 3103 1208 2742 
Q 947 2381 947 1747 
z
" transform="scale(0.015625)"/>
       <path id="DejaVuSans-73" d="M 2834 3397 
L 2834 2853 
Q 2591 2978 2328 3040 
Q 2066 3103 1784 3103 
Q 1356 3103 1142 2972 
Q 928 2841 928 2578 
Q 928 2378 1081 2264 
Q 1234 2150 1697 2047 
L 1894 2003 
Q 2506 1872 2764 1633 
Q 3022 1394 3022 966 
Q 3022 478 2636 193 
Q 2250 -91 1575 -91 
Q 1294 -91 989 -36 
Q 684 19 347 128 
L 347 722 
Q 666 556 975 473 
Q 1284 391 1588 391 
Q 1994 391 2212 530 
Q 2431 669 2431 922 
Q 2431 1156 2273 1281 
Q 2116 1406 1581 1522 
L 1381 1569 
Q 847 1681 609 1914 
Q 372 2147 372 2553 
Q 372 3047 722 3315 
Q 1072 3584 1716 3584 
Q 2034 3584 2315 3537 
Q 2597 3491 2834 3397 
z
" transform="scale(0.015625)"/>
      </defs>
      <use xlink:href="#DejaVuSans-4e"/>
      <use xlink:href="#DejaVuSans-75" x="74.804688"/>
      <use xlink:href="#DejaVuSans-6d" x="138.183594"/>
      <use xlink:href="#DejaVuSans-62" x="235.595703"/>
      <use xlink:href="#DejaVuSans-65" x="299.072266"/>
      <use xlink:href="#DejaVuSans-72" x="360.595703"/>
      <use xlink:href="#DejaVuSans-20" x="401.708984"/>
      <use xlink:href="#DejaVuSans-6f" x="433.496094"/>
      <use xlink:href="#DejaVuSans-66" x="494.677734"/>
      <use xlink:href="#DejaVuSans-20" x="529.882812"/>
      <use xlink:href="#DejaVuSans-4f" x="561.669922"/>
      <use xlink:href="#DejaVuSans-72" x="640.380859"/>
      <use xlink:href="#DejaVuSans-64" x="679.744141"/>
      <use xlink:href="#DejaVuSans-65" x="743.220703"/>
      <use xlink:href="#DejaVuSans-72" x="804.744141"/>
      <use xlink:href="#DejaVuSans-73" x="845.857422"/>
     </g>
    </g>
   </g>
   <g id="matplotlib.axis_2">
    <g id="ytick_1">
     <g id="line2d_7">
      <defs>
       <path id="m108cca5172" d="M 0 0 
L -3.5 0 
" style="stroke: #000000; stroke-width: 0.8"/>
      </defs>
      <g>
       <use xlink:href="#m108cca5172" x="57.6" y="300.236767" style="stroke: #000000; stroke-width: 0.8"/>
      </g>
     </g>
     <g id="text_8">
      <!-- 0 -->
      <g transform="translate(44.2375 304.035986)scale(0.1 -0.1)">
       <use xlink:href="#DejaVuSans-30"/>
      </g>
     </g>
    </g>
    <g id="ytick_2">
     <g id="line2d_8">
      <g>
       <use xlink:href="#m108cca5172" x="57.6" y="266.055457" style="stroke: #000000; stroke-width: 0.8"/>
      </g>
     </g>
     <g id="text_9">
      <!-- 1000 -->
      <g transform="translate(25.15 269.854676)scale(0.1 -0.1)">
       <use xlink:href="#DejaVuSans-31"/>
       <use xlink:href="#DejaVuSans-30" x="63.623047"/>
       <use xlink:href="#DejaVuSans-30" x="127.246094"/>
       <use xlink:href="#DejaVuSans-30" x="190.869141"/>
      </g>
     </g>
    </g>
    <g id="ytick_3">
     <g id="line2d_9">
      <g>
       <use xlink:href="#m108cca5172" x="57.6" y="231.874147" style="stroke: #000000; stroke-width: 0.8"/>
      </g>
     </g>
     <g id="text_10">
      <!-- 2000 -->
      <g transform="translate(25.15 235.673366)scale(0.1 -0.1)">
       <use xlink:href="#DejaVuSans-32"/>
       <use xlink:href="#DejaVuSans-30" x="63.623047"/>
       <use xlink:href="#DejaVuSans-30" x="127.246094"/>
       <use xlink:href="#DejaVuSans-30" x="190.869141"/>
      </g>
     </g>
    </g>
    <g id="ytick_4">
     <g id="line2d_10">
      <g>
       <use xlink:href="#m108cca5172" x="57.6" y="197.692837" style="stroke: #000000; stroke-width: 0.8"/>
      </g>
     </g>
     <g id="text_11">
      <!-- 3000 -->
      <g transform="translate(25.15 201.492056)scale(0.1 -0.1)">
       <use xlink:href="#DejaVuSans-33"/>
       <use xlink:href="#DejaVuSans-30" x="63.623047"/>
       <use xlink:href="#DejaVuSans-30" x="127.246094"/>
       <use xlink:href="#DejaVuSans-30" x="190.869141"/>
      </g>
     </g>
    </g>
    <g id="ytick_5">
     <g id="line2d_11">
      <g>
       <use xlink:href="#m108cca5172" x="57.6" y="163.511527" style="stroke: #000000; stroke-width: 0.8"/>
      </g>
     </g>
     <g id="text_12">
      <!-- 4000 -->
      <g transform="translate(25.15 167.310746)scale(0.1 -0.1)">
       <use xlink:href="#DejaVuSans-34"/>
       <use xlink:href="#DejaVuSans-30" x="63.623047"/>
       <use xlink:href="#DejaVuSans-30" x="127.246094"/>
       <use xlink:href="#DejaVuSans-30" x="190.869141"/>
      </g>
     </g>
    </g>
    <g id="ytick_6">
     <g id="line2d_12">
      <g>
       <use xlink:href="#m108cca5172" x="57.6" y="129.330217" style="stroke: #000000; stroke-width: 0.8"/>
      </g>
     </g>
     <g id="text_13">
      <!-- 5000 -->
      <g transform="translate(25.15 133.129436)scale(0.1 -0.1)">
       <use xlink:href="#DejaVuSans-35"/>
       <use xlink:href="#DejaVuSans-30" x="63.623047"/>
       <use xlink:href="#DejaVuSans-30" x="127.246094"/>
       <use xlink:href="#DejaVuSans-30" x="190.869141"/>
      </g>
     </g>
    </g>
    <g id="ytick_7">
     <g id="line2d_13">
      <g>
       <use xlink:href="#m108cca5172" x="57.6" y="95.148907" style="stroke: #000000; stroke-width: 0.8"/>
      </g>
     </g>
     <g id="text_14">
      <!-- 6000 -->
      <g transform="translate(25.15 98.948126)scale(0.1 -0.1)">
       <defs>
        <path id="DejaVuSans-36" d="M 2113 2584 
Q 1688 2584 1439 2293 
Q 1191 2003 1191 1497 
Q 1191 994 1439 701 
Q 1688 409 2113 409 
Q 2538 409 2786 701 
Q 3034 994 3034 1497 
Q 3034 2003 2786 2293 
Q 2538 2584 2113 2584 
z
M 3366 4563 
L 3366 3988 
Q 3128 4100 2886 4159 
Q 2644 4219 2406 4219 
Q 1781 4219 1451 3797 
Q 1122 3375 1075 2522 
Q 1259 2794 1537 2939 
Q 1816 3084 2150 3084 
Q 2853 3084 3261 2657 
Q 3669 2231 3669 1497 
Q 3669 778 3244 343 
Q 2819 -91 2113 -91 
Q 1303 -91 875 529 
Q 447 1150 447 2328 
Q 447 3434 972 4092 
Q 1497 4750 2381 4750 
Q 2619 4750 2861 4703 
Q 3103 4656 3366 4563 
z
" transform="scale(0.015625)"/>
       </defs>
       <use xlink:href="#DejaVuSans-36"/>
       <use xlink:href="#DejaVuSans-30" x="63.623047"/>
       <use xlink:href="#DejaVuSans-30" x="127.246094"/>
       <use xlink:href="#DejaVuSans-30" x="190.869141"/>
      </g>
     </g>
    </g>
    <g id="ytick_8">
     <g id="line2d_14">
      <g>
       <use xlink:href="#m108cca5172" x="57.6" y="60.967597" style="stroke: #000000; stroke-width: 0.8"/>
      </g>
     </g>
     <g id="text_15">
      <!-- 7000 -->
      <g transform="translate(25.15 64.766816)scale(0.1 -0.1)">
       <defs>
        <path id="DejaVuSans-37" d="M 525 4666 
L 3525 4666 
L 3525 4397 
L 1831 0 
L 1172 0 
L 2766 4134 
L 525 4134 
L 525 4666 
z
" transform="scale(0.015625)"/>
       </defs>
       <use xlink:href="#DejaVuSans-37"/>
       <use xlink:href="#DejaVuSans-30" x="63.623047"/>
       <use xlink:href="#DejaVuSans-30" x="127.246094"/>
       <use xlink:href="#DejaVuSans-30" x="190.869141"/>
      </g>
     </g>
    </g>
    <g id="text_16">
     <!-- Waiting Time/s -->
     <g transform="translate(19.070312 211.410031)rotate(-90)scale(0.1 -0.1)">
      <defs>
       <path id="DejaVuSans-57" d="M 213 4666 
L 850 4666 
L 1831 722 
L 2809 4666 
L 3519 4666 
L 4500 722 
L 5478 4666 
L 6119 4666 
L 4947 0 
L 4153 0 
L 3169 4050 
L 2175 0 
L 1381 0 
L 213 4666 
z
" transform="scale(0.015625)"/>
       <path id="DejaVuSans-61" d="M 2194 1759 
Q 1497 1759 1228 1600 
Q 959 1441 959 1056 
Q 959 750 1161 570 
Q 1363 391 1709 391 
Q 2188 391 2477 730 
Q 2766 1069 2766 1631 
L 2766 1759 
L 2194 1759 
z
M 3341 1997 
L 3341 0 
L 2766 0 
L 2766 531 
Q 2569 213 2275 61 
Q 1981 -91 1556 -91 
Q 1019 -91 701 211 
Q 384 513 384 1019 
Q 384 1609 779 1909 
Q 1175 2209 1959 2209 
L 2766 2209 
L 2766 2266 
Q 2766 2663 2505 2880 
Q 2244 3097 1772 3097 
Q 1472 3097 1187 3025 
Q 903 2953 641 2809 
L 641 3341 
Q 956 3463 1253 3523 
Q 1550 3584 1831 3584 
Q 2591 3584 2966 3190 
Q 3341 2797 3341 1997 
z
" transform="scale(0.015625)"/>
       <path id="DejaVuSans-69" d="M 603 3500 
L 1178 3500 
L 1178 0 
L 603 0 
L 603 3500 
z
M 603 4863 
L 1178 4863 
L 1178 4134 
L 603 4134 
L 603 4863 
z
" transform="scale(0.015625)"/>
       <path id="DejaVuSans-74" d="M 1172 4494 
L 1172 3500 
L 2356 3500 
L 2356 3053 
L 1172 3053 
L 1172 1153 
Q 1172 725 1289 603 
Q 1406 481 1766 481 
L 2356 481 
L 2356 0 
L 1766 0 
Q 1100 0 847 248 
Q 594 497 594 1153 
L 594 3053 
L 172 3053 
L 172 3500 
L 594 3500 
L 594 4494 
L 1172 4494 
z
" transform="scale(0.015625)"/>
       <path id="DejaVuSans-6e" d="M 3513 2113 
L 3513 0 
L 2938 0 
L 2938 2094 
Q 2938 2591 2744 2837 
Q 2550 3084 2163 3084 
Q 1697 3084 1428 2787 
Q 1159 2491 1159 1978 
L 1159 0 
L 581 0 
L 581 3500 
L 1159 3500 
L 1159 2956 
Q 1366 3272 1645 3428 
Q 1925 3584 2291 3584 
Q 2894 3584 3203 3211 
Q 3513 2838 3513 2113 
z
" transform="scale(0.015625)"/>
       <path id="DejaVuSans-67" d="M 2906 1791 
Q 2906 2416 2648 2759 
Q 2391 3103 1925 3103 
Q 1463 3103 1205 2759 
Q 947 2416 947 1791 
Q 947 1169 1205 825 
Q 1463 481 1925 481 
Q 2391 481 2648 825 
Q 2906 1169 2906 1791 
z
M 3481 434 
Q 3481 -459 3084 -895 
Q 2688 -1331 1869 -1331 
Q 1566 -1331 1297 -1286 
Q 1028 -1241 775 -1147 
L 775 -588 
Q 1028 -725 1275 -790 
Q 1522 -856 1778 -856 
Q 2344 -856 2625 -561 
Q 2906 -266 2906 331 
L 2906 616 
Q 2728 306 2450 153 
Q 2172 0 1784 0 
Q 1141 0 747 490 
Q 353 981 353 1791 
Q 353 2603 747 3093 
Q 1141 3584 1784 3584 
Q 2172 3584 2450 3431 
Q 2728 3278 2906 2969 
L 2906 3500 
L 3481 3500 
L 3481 434 
z
" transform="scale(0.015625)"/>
       <path id="DejaVuSans-54" d="M -19 4666 
L 3928 4666 
L 3928 4134 
L 2272 4134 
L 2272 0 
L 1638 0 
L 1638 4134 
L -19 4134 
L -19 4666 
z
" transform="scale(0.015625)"/>
       <path id="DejaVuSans-2f" d="M 1625 4666 
L 2156 4666 
L 531 -594 
L 0 -594 
L 1625 4666 
z
" transform="scale(0.015625)"/>
      </defs>
      <use xlink:href="#DejaVuSans-57"/>
      <use xlink:href="#DejaVuSans-61" x="92.501953"/>
      <use xlink:href="#DejaVuSans-69" x="153.78125"/>
      <use xlink:href="#DejaVuSans-74" x="181.564453"/>
      <use xlink:href="#DejaVuSans-69" x="220.773438"/>
      <use xlink:href="#DejaVuSans-6e" x="248.556641"/>
      <use xlink:href="#DejaVuSans-67" x="311.935547"/>
      <use xlink:href="#DejaVuSans-20" x="375.412109"/>
      <use xlink:href="#DejaVuSans-54" x="407.199219"/>
      <use xlink:href="#DejaVuSans-69" x="465.158203"/>
      <use xlink:href="#DejaVuSans-6d" x="492.941406"/>
      <use xlink:href="#DejaVuSans-65" x="590.353516"/>
      <use xlink:href="#DejaVuSans-2f" x="651.876953"/>
      <use xlink:href="#DejaVuSans-73" x="685.568359"/>
     </g>
    </g>
   </g>
   <g id="line2d_15">
    <path d="M 73.832727 295.488 
L 74.157447 287.858168 
L 74.222391 287.977281 
L 74.482166 285.147789 
L 74.612054 283.579638 
L 74.676998 283.665109 
L 74.936774 280.803762 
L 75.001717 281.039524 
L 75.066661 280.490038 
L 75.131605 280.754856 
L 75.196549 280.457492 
L 75.456325 278.461715 
L 75.521269 278.082084 
L 75.586213 278.534516 
L 75.651156 277.66673 
L 75.7161 277.888115 
L 75.781044 277.445101 
L 75.845988 277.782884 
L 76.04082 277.052701 
L 76.105764 277.265253 
L 76.170708 277.150081 
L 76.365539 276.618945 
L 76.495427 277.042879 
L 77.079922 275.1255 
L 77.20981 275.292884 
L 77.404642 274.906412 
L 77.599473 275.436766 
L 77.664417 275.229463 
L 77.729361 275.320803 
L 77.924193 275.220836 
L 78.054081 274.991381 
L 78.183968 275.29551 
L 78.248912 275.214065 
L 78.313856 275.207885 
L 78.573632 275.730311 
L 78.638576 275.761642 
L 78.768464 275.353881 
L 78.898351 274.990672 
L 78.963295 275.021336 
L 79.093183 275.207945 
L 79.158127 275.054525 
L 79.223071 275.182141 
L 79.742622 274.295217 
L 79.87251 274.272413 
L 80.002398 273.867555 
L 80.067341 273.974765 
L 80.262173 274.048549 
L 80.457005 274.018387 
L 80.586893 273.811981 
L 80.71678 273.898711 
L 80.911612 273.655806 
L 81.0415 273.295759 
L 81.106444 273.372583 
L 81.561051 273.116285 
L 81.755883 272.88024 
L 81.820827 273.011233 
L 81.885771 272.973359 
L 82.080602 272.892326 
L 82.21049 272.980984 
L 82.405322 272.76524 
L 82.794985 272.783889 
L 83.054761 272.622739 
L 83.37948 272.660471 
L 83.444424 272.517162 
L 83.509368 272.554413 
L 83.769144 272.533121 
L 83.899031 272.36369 
L 84.028919 272.42751 
L 84.093863 272.29386 
L 84.158807 272.340203 
L 84.353639 272.38739 
L 84.678358 271.879345 
L 85.003078 271.723358 
L 85.262853 271.524786 
L 85.392741 271.454134 
L 85.717461 271.534492 
L 85.847348 271.311564 
L 86.04218 271.409563 
L 86.561731 271.051146 
L 86.821507 271.087619 
L 86.951395 271.126359 
L 87.146226 271.027996 
L 87.341058 271.118898 
L 87.470946 271.104475 
L 87.665778 271.033309 
L 87.795665 271.000929 
L 87.925553 270.844736 
L 88.055441 270.797608 
L 88.185329 270.743876 
L 88.445104 270.791849 
L 89.094543 270.676912 
L 89.484207 271.041251 
L 89.679038 270.914389 
L 89.938814 270.922951 
L 90.003758 270.96569 
L 90.19859 270.819888 
L 90.393421 270.909336 
L 90.718141 270.868146 
L 91.04286 270.917026 
L 92.081963 271.103293 
L 92.341738 271.182621 
L 92.731402 271.1727 
L 93.315897 271.359334 
L 93.575672 271.517356 
L 93.770504 271.464919 
L 94.225111 271.506435 
L 94.484887 271.677925 
L 94.939494 271.505039 
L 95.19927 271.453881 
L 95.394101 271.353818 
L 95.653877 271.440892 
L 95.783765 271.453475 
L 96.108484 271.422913 
L 96.238372 271.372793 
L 96.692979 271.48656 
L 97.017699 271.380381 
L 97.342418 271.303687 
L 97.797026 271.318737 
L 98.186689 271.254234 
L 98.316577 271.175835 
L 98.511408 271.149571 
L 98.771184 271.244312 
L 99.225791 271.259744 
L 99.680399 271.09489 
L 99.940174 271.121104 
L 100.394782 270.949708 
L 100.719501 270.88764 
L 103.512089 270.195318 
L 103.966696 270.084254 
L 104.226471 270.155507 
L 104.486247 270.064604 
L 104.746023 269.946961 
L 105.005798 269.722309 
L 108.123105 268.328762 
L 108.577713 268.094471 
L 108.772544 268.017824 
L 110.136366 267.363477 
L 110.396142 267.231195 
L 113.123785 265.529058 
L 113.448505 265.321251 
L 113.903112 265.075704 
L 114.227832 264.897137 
L 114.747383 264.44798 
L 115.461766 263.941277 
L 116.111205 263.483065 
L 116.630756 263.19738 
L 118.449185 262.039211 
L 118.708961 261.848977 
L 118.968736 261.68852 
L 119.423344 261.383369 
L 120.267614 260.819478 
L 120.852109 260.397392 
L 122.605595 259.368926 
L 122.930314 259.154429 
L 123.514809 258.757803 
L 123.904473 258.456564 
L 124.424024 258.169 
L 124.943575 257.808648 
L 129.294816 254.925702 
L 129.554592 254.792507 
L 130.009199 254.49477 
L 130.52875 254.211973 
L 131.502909 253.655045 
L 131.762684 253.497005 
L 132.152348 253.213407 
L 133.126506 252.682907 
L 134.295496 251.945136 
L 142.088764 247.463628 
L 142.608315 247.163114 
L 146.115286 245.192496 
L 148.51821 243.787519 
L 149.167649 243.423349 
L 152.999339 241.038619 
L 154.298217 240.247818 
L 161.961597 235.360507 
L 169.884752 230.619507 
L 170.599135 230.158333 
L 171.378462 229.680534 
L 172.67734 228.891914 
L 174.690601 227.744388 
L 175.794647 227.066294 
L 178.067683 225.671913 
L 178.976898 225.116005 
L 179.886112 224.523389 
L 181.249934 223.660307 
L 181.704542 223.387381 
L 186.120727 220.55799 
L 193.784107 215.961005 
L 201.057823 211.784928 
L 202.161869 211.124406 
L 202.941196 210.669608 
L 206.448167 208.592018 
L 207.292437 208.097233 
L 227.684821 195.460083 
L 228.33426 195.053889 
L 230.542353 193.580272 
L 232.16595 192.499872 
L 233.010221 191.91172 
L 235.283257 190.377345 
L 237.16663 189.114769 
L 237.816069 188.670996 
L 243.271357 184.923458 
L 244.050684 184.368477 
L 248.921476 180.865932 
L 249.765747 180.257823 
L 259.442387 173.254768 
L 261.845312 171.446617 
L 266.65116 167.694277 
L 268.14487 166.502569 
L 271.457008 163.81918 
L 283.081966 154.325546 
L 285.614778 152.310117 
L 287.628039 150.69408 
L 305.942218 135.762361 
L 308.47503 133.647676 
L 311.13773 131.357122 
L 315.943579 127.184902 
L 332.439329 112.222903 
L 335.686523 109.178909 
L 341.661362 103.657981 
L 343.025184 102.378427 
L 346.337323 99.32524 
L 362.11869 85.375359 
L 364.846334 82.960793 
L 366.989482 81.065872 
L 373.548816 75.383087 
L 378.549496 71.059909 
L 390.304342 60.778262 
L 396.214236 55.609394 
L 398.487273 53.568 
L 398.487273 53.568 
" clip-path="url(#pba11b33162)" style="fill: none; stroke-dasharray: 2,3.3; stroke-dashoffset: 0; stroke: #0000ff; stroke-width: 2"/>
   </g>
   <g id="line2d_16">
    <path d="M 73.832727 295.488 
L 74.157447 287.858168 
L 74.222391 287.977281 
L 74.482166 284.275555 
L 74.54711 284.317278 
L 74.806886 282.070248 
L 74.936774 280.430498 
L 75.001717 280.754262 
L 75.066661 280.219039 
L 75.131605 280.532289 
L 75.326437 279.674575 
L 75.391381 278.902222 
L 75.456325 278.961034 
L 75.651156 278.471321 
L 75.7161 278.851651 
L 75.910932 277.351374 
L 75.975876 277.297235 
L 76.04082 277.552294 
L 76.105764 277.480939 
L 76.170708 277.391023 
L 76.300595 277.708287 
L 76.430483 277.205541 
L 76.495427 277.392543 
L 76.755203 276.707468 
L 76.820147 276.990916 
L 76.88509 276.821433 
L 76.950034 276.612431 
L 77.014978 276.781434 
L 77.079922 276.695856 
L 77.144866 276.683918 
L 77.404642 275.652807 
L 77.469586 275.820754 
L 77.534529 275.736803 
L 77.599473 275.944745 
L 77.664417 275.87272 
L 77.794305 275.903646 
L 77.989137 275.6089 
L 78.054081 275.693129 
L 78.183968 275.465169 
L 78.248912 275.554092 
L 78.313856 275.757699 
L 78.3788 275.67333 
L 78.443744 275.59341 
L 78.508688 275.670725 
L 78.638576 275.76272 
L 78.963295 275.093783 
L 79.028239 275.171108 
L 79.093183 275.261718 
L 79.223071 275.090016 
L 79.288015 275.196834 
L 79.352959 275.115053 
L 79.482846 275.12148 
L 79.742622 274.684373 
L 80.002398 273.844716 
L 80.521949 273.878615 
L 80.651837 273.732623 
L 80.71678 273.807808 
L 81.301276 273.429607 
L 81.496107 273.627384 
L 81.755883 273.816093 
L 81.820827 273.675027 
L 82.145546 273.535355 
L 82.275434 273.279431 
L 82.405322 273.305902 
L 82.794985 273.374982 
L 82.924873 273.406646 
L 83.184649 273.06492 
L 83.37948 273.144639 
L 83.574312 272.91221 
L 83.7042 272.923844 
L 83.769144 273.021021 
L 83.834088 272.971654 
L 83.963975 272.925639 
L 84.093863 273.009136 
L 84.288695 272.889167 
L 84.613414 272.981615 
L 84.743302 272.861619 
L 84.938134 272.924864 
L 85.068022 273.004833 
L 85.327797 273.182324 
L 85.457685 273.074852 
L 85.587573 273.193396 
L 85.847348 273.068345 
L 85.977236 273.113322 
L 86.107124 273.212214 
L 86.431843 273.404782 
L 86.626675 273.13812 
L 87.795665 273.139274 
L 87.990497 273.109418 
L 88.185329 273.101949 
L 88.639936 273.065708 
L 89.029599 273.162834 
L 89.159487 273.128274 
L 89.549151 273.346894 
L 90.003758 273.489249 
L 90.133646 273.393308 
L 90.458365 273.404617 
L 90.588253 273.351828 
L 90.653197 273.393531 
L 90.848029 273.254749 
L 91.04286 273.182567 
L 91.302636 273.225804 
L 91.757243 273.16049 
L 92.146906 273.220543 
L 92.276794 273.197309 
L 92.53657 273.274694 
L 92.796345 273.232822 
L 93.70556 273.006082 
L 93.900392 272.969227 
L 94.290055 272.996838 
L 94.484887 273.026328 
L 94.744662 272.885203 
L 95.004438 272.880334 
L 95.19927 272.832517 
L 96.692979 272.743737 
L 97.017699 272.768419 
L 97.277474 272.673922 
L 97.53725 272.715064 
L 98.121745 272.730521 
L 98.316577 272.734742 
L 98.641296 272.849176 
L 98.836128 272.774499 
L 99.290735 272.687894 
L 99.485567 272.689438 
L 99.940174 272.768806 
L 100.135006 272.803508 
L 100.654557 272.699081 
L 100.979277 272.659623 
L 101.174108 272.59306 
L 101.433884 272.570441 
L 101.693659 272.485289 
L 101.953435 272.500224 
L 102.148267 272.388242 
L 102.927594 272.441562 
L 104.421303 272.357774 
L 105.135686 272.437083 
L 105.655237 272.373084 
L 106.174788 272.434688 
L 106.824227 272.333364 
L 107.148947 272.34399 
L 107.53861 272.237282 
L 112.344459 271.796657 
L 112.604234 271.69759 
L 113.123785 271.630744 
L 113.903112 271.593486 
L 114.097944 271.543096 
L 115.851429 271.441994 
L 116.630756 271.542364 
L 116.955475 271.545283 
L 117.215251 271.490179 
L 117.410083 271.479239 
L 118.449185 271.475461 
L 118.708961 271.386937 
L 119.163568 271.435841 
L 119.813007 271.396313 
L 120.917053 271.392732 
L 121.241773 271.366873 
L 121.956156 271.409593 
L 123.969416 271.478962 
L 124.748743 271.467818 
L 126.437285 271.450564 
L 126.956836 271.409916 
L 128.580433 271.420152 
L 129.619536 271.330595 
L 130.268975 271.363982 
L 130.463806 271.338198 
L 131.048301 271.358395 
L 132.282235 271.30228 
L 132.606955 271.310283 
L 134.165608 271.303136 
L 134.815047 271.347271 
L 136.048981 271.360362 
L 136.243813 271.319348 
L 144.166969 271.354573 
L 145.400903 271.383931 
L 146.245173 271.391137 
L 149.297537 271.33589 
L 150.011919 271.377459 
L 151.700461 271.330823 
L 152.284956 271.296383 
L 153.19417 271.302627 
L 153.908553 271.301554 
L 154.493048 271.245372 
L 154.882712 271.200747 
L 158.649458 271.281608 
L 159.493729 271.29612 
L 162.805867 271.223898 
L 163.325419 271.214388 
L 164.234633 271.243341 
L 165.468567 271.307326 
L 165.988118 271.35242 
L 166.637557 271.32884 
L 167.871491 271.289883 
L 169.235313 271.240254 
L 170.404303 271.215296 
L 170.793967 271.19928 
L 175.924535 271.102435 
L 177.3533 271.084725 
L 179.886112 271.057729 
L 180.405664 271.059402 
L 181.704542 271.056739 
L 185.731063 271.021263 
L 186.445446 271.025163 
L 188.458707 271.076115 
L 191.640958 271.121209 
L 192.485229 271.118159 
L 194.823209 271.06172 
L 196.83647 271.052944 
L 198.395123 271.03743 
L 203.33086 270.998331 
L 204.045243 271.003145 
L 228.788868 270.848408 
L 230.282577 270.865468 
L 232.880333 270.849556 
L 235.607977 270.800272 
L 236.192472 270.771595 
L 237.49135 270.741749 
L 239.764386 270.71428 
L 242.556974 270.685611 
L 243.271357 270.706904 
L 253.012941 270.650507 
L 254.961258 270.633289 
L 255.935417 270.634787 
L 259.247556 270.630331 
L 261.715424 270.646945 
L 263.923516 270.619787 
L 269.898355 270.60918 
L 271.197233 270.609539 
L 273.015662 270.606892 
L 274.054764 270.605423 
L 276.457689 270.583601 
L 279.445108 270.52445 
L 287.563095 270.503124 
L 290.030963 270.480328 
L 296.395465 270.405024 
L 299.252997 270.412297 
L 300.162211 270.39787 
L 305.357723 270.320468 
L 308.345142 270.307763 
L 309.903796 270.295118 
L 312.956159 270.290475 
L 315.099308 270.29194 
L 326.46449 270.265835 
L 330.166292 270.186261 
L 331.660002 270.19895 
L 365.62566 270.011778 
L 367.768809 270.009141 
L 369.45735 270.012656 
L 375.042526 270.021326 
L 376.146572 270.022177 
L 398.487273 269.757527 
L 398.487273 269.757527 
" clip-path="url(#pba11b33162)" style="fill: none; stroke-dasharray: 2,3.3; stroke-dashoffset: 0; stroke: #ffa500; stroke-width: 2"/>
   </g>
   <g id="patch_3">
    <path d="M 57.6 307.584 
L 57.6 41.472 
" style="fill: none; stroke: #000000; stroke-width: 0.8; stroke-linejoin: miter; stroke-linecap: square"/>
   </g>
   <g id="patch_4">
    <path d="M 414.72 307.584 
L 414.72 41.472 
" style="fill: none; stroke: #000000; stroke-width: 0.8; stroke-linejoin: miter; stroke-linecap: square"/>
   </g>
   <g id="patch_5">
    <path d="M 57.6 307.584 
L 414.72 307.584 
" style="fill: none; stroke: #000000; stroke-width: 0.8; stroke-linejoin: miter; stroke-linecap: square"/>
   </g>
   <g id="patch_6">
    <path d="M 57.6 41.472 
L 414.72 41.472 
" style="fill: none; stroke: #000000; stroke-width: 0.8; stroke-linejoin: miter; stroke-linecap: square"/>
   </g>
   <g id="text_17">
    <!-- Waiting Time Plot -->
    <g transform="translate(183.833438 8.2635)scale(0.12 -0.12)">
     <defs>
      <path id="DejaVuSans-50" d="M 1259 4147 
L 1259 2394 
L 2053 2394 
Q 2494 2394 2734 2622 
Q 2975 2850 2975 3272 
Q 2975 3691 2734 3919 
Q 2494 4147 2053 4147 
L 1259 4147 
z
M 628 4666 
L 2053 4666 
Q 2838 4666 3239 4311 
Q 3641 3956 3641 3272 
Q 3641 2581 3239 2228 
Q 2838 1875 2053 1875 
L 1259 1875 
L 1259 0 
L 628 0 
L 628 4666 
z
" transform="scale(0.015625)"/>
      <path id="DejaVuSans-6c" d="M 603 4863 
L 1178 4863 
L 1178 0 
L 603 0 
L 603 4863 
z
" transform="scale(0.015625)"/>
     </defs>
     <use xlink:href="#DejaVuSans-57"/>
     <use xlink:href="#DejaVuSans-61" x="92.501953"/>
     <use xlink:href="#DejaVuSans-69" x="153.78125"/>
     <use xlink:href="#DejaVuSans-74" x="181.564453"/>
     <use xlink:href="#DejaVuSans-69" x="220.773438"/>
     <use xlink:href="#DejaVuSans-6e" x="248.556641"/>
     <use xlink:href="#DejaVuSans-67" x="311.935547"/>
     <use xlink:href="#DejaVuSans-20" x="375.412109"/>
     <use xlink:href="#DejaVuSans-54" x="407.199219"/>
     <use xlink:href="#DejaVuSans-69" x="465.158203"/>
     <use xlink:href="#DejaVuSans-6d" x="492.941406"/>
     <use xlink:href="#DejaVuSans-65" x="590.353516"/>
     <use xlink:href="#DejaVuSans-20" x="651.876953"/>
     <use xlink:href="#DejaVuSans-50" x="683.664062"/>
     <use xlink:href="#DejaVuSans-6c" x="743.966797"/>
     <use xlink:href="#DejaVuSans-6f" x="771.75"/>
     <use xlink:href="#DejaVuSans-74" x="832.931641"/>
    </g>
    <!--  avg_d = 7216.480786960317  -->
    <g transform="translate(142.671562 21.700875)scale(0.12 -0.12)">
     <defs>
      <path id="DejaVuSans-76" d="M 191 3500 
L 800 3500 
L 1894 563 
L 2988 3500 
L 3597 3500 
L 2284 0 
L 1503 0 
L 191 3500 
z
" transform="scale(0.015625)"/>
      <path id="DejaVuSans-5f" d="M 3263 -1063 
L 3263 -1509 
L -63 -1509 
L -63 -1063 
L 3263 -1063 
z
" transform="scale(0.015625)"/>
      <path id="DejaVuSans-3d" d="M 678 2906 
L 4684 2906 
L 4684 2381 
L 678 2381 
L 678 2906 
z
M 678 1631 
L 4684 1631 
L 4684 1100 
L 678 1100 
L 678 1631 
z
" transform="scale(0.015625)"/>
      <path id="DejaVuSans-2e" d="M 684 794 
L 1344 794 
L 1344 0 
L 684 0 
L 684 794 
z
" transform="scale(0.015625)"/>
      <path id="DejaVuSans-38" d="M 2034 2216 
Q 1584 2216 1326 1975 
Q 1069 1734 1069 1313 
Q 1069 891 1326 650 
Q 1584 409 2034 409 
Q 2484 409 2743 651 
Q 3003 894 3003 1313 
Q 3003 1734 2745 1975 
Q 2488 2216 2034 2216 
z
M 1403 2484 
Q 997 2584 770 2862 
Q 544 3141 544 3541 
Q 544 4100 942 4425 
Q 1341 4750 2034 4750 
Q 2731 4750 3128 4425 
Q 3525 4100 3525 3541 
Q 3525 3141 3298 2862 
Q 3072 2584 2669 2484 
Q 3125 2378 3379 2068 
Q 3634 1759 3634 1313 
Q 3634 634 3220 271 
Q 2806 -91 2034 -91 
Q 1263 -91 848 271 
Q 434 634 434 1313 
Q 434 1759 690 2068 
Q 947 2378 1403 2484 
z
M 1172 3481 
Q 1172 3119 1398 2916 
Q 1625 2713 2034 2713 
Q 2441 2713 2670 2916 
Q 2900 3119 2900 3481 
Q 2900 3844 2670 4047 
Q 2441 4250 2034 4250 
Q 1625 4250 1398 4047 
Q 1172 3844 1172 3481 
z
" transform="scale(0.015625)"/>
      <path id="DejaVuSans-39" d="M 703 97 
L 703 672 
Q 941 559 1184 500 
Q 1428 441 1663 441 
Q 2288 441 2617 861 
Q 2947 1281 2994 2138 
Q 2813 1869 2534 1725 
Q 2256 1581 1919 1581 
Q 1219 1581 811 2004 
Q 403 2428 403 3163 
Q 403 3881 828 4315 
Q 1253 4750 1959 4750 
Q 2769 4750 3195 4129 
Q 3622 3509 3622 2328 
Q 3622 1225 3098 567 
Q 2575 -91 1691 -91 
Q 1453 -91 1209 -44 
Q 966 3 703 97 
z
M 1959 2075 
Q 2384 2075 2632 2365 
Q 2881 2656 2881 3163 
Q 2881 3666 2632 3958 
Q 2384 4250 1959 4250 
Q 1534 4250 1286 3958 
Q 1038 3666 1038 3163 
Q 1038 2656 1286 2365 
Q 1534 2075 1959 2075 
z
" transform="scale(0.015625)"/>
     </defs>
     <use xlink:href="#DejaVuSans-20"/>
     <use xlink:href="#DejaVuSans-61" x="31.787109"/>
     <use xlink:href="#DejaVuSans-76" x="93.066406"/>
     <use xlink:href="#DejaVuSans-67" x="152.246094"/>
     <use xlink:href="#DejaVuSans-5f" x="215.722656"/>
     <use xlink:href="#DejaVuSans-64" x="265.722656"/>
     <use xlink:href="#DejaVuSans-20" x="329.199219"/>
     <use xlink:href="#DejaVuSans-3d" x="360.986328"/>
     <use xlink:href="#DejaVuSans-20" x="444.775391"/>
     <use xlink:href="#DejaVuSans-37" x="476.5625"/>
     <use xlink:href="#DejaVuSans-32" x="540.185547"/>
     <use xlink:href="#DejaVuSans-31" x="603.808594"/>
     <use xlink:href="#DejaVuSans-36" x="667.431641"/>
     <use xlink:href="#DejaVuSans-2e" x="731.054688"/>
     <use xlink:href="#DejaVuSans-34" x="762.841797"/>
     <use xlink:href="#DejaVuSans-38" x="826.464844"/>
     <use xlink:href="#DejaVuSans-30" x="890.087891"/>
     <use xlink:href="#DejaVuSans-37" x="953.710938"/>
     <use xlink:href="#DejaVuSans-38" x="1017.333984"/>
     <use xlink:href="#DejaVuSans-36" x="1080.957031"/>
     <use xlink:href="#DejaVuSans-39" x="1144.580078"/>
     <use xlink:href="#DejaVuSans-36" x="1208.203125"/>
     <use xlink:href="#DejaVuSans-30" x="1271.826172"/>
     <use xlink:href="#DejaVuSans-33" x="1335.449219"/>
     <use xlink:href="#DejaVuSans-31" x="1399.072266"/>
     <use xlink:href="#DejaVuSans-37" x="1462.695312"/>
     <use xlink:href="#DejaVuSans-20" x="1526.318359"/>
    </g>
    <!--  avg_a = 891.6931584386535diff = 6324.7876285216635 -->
    <g transform="translate(59.364375 35.472)scale(0.12 -0.12)">
     <use xlink:href="#DejaVuSans-20"/>
     <use xlink:href="#DejaVuSans-61" x="31.787109"/>
     <use xlink:href="#DejaVuSans-76" x="93.066406"/>
     <use xlink:href="#DejaVuSans-67" x="152.246094"/>
     <use xlink:href="#DejaVuSans-5f" x="215.722656"/>
     <use xlink:href="#DejaVuSans-61" x="265.722656"/>
     <use xlink:href="#DejaVuSans-20" x="327.001953"/>
     <use xlink:href="#DejaVuSans-3d" x="358.789062"/>
     <use xlink:href="#DejaVuSans-20" x="442.578125"/>
     <use xlink:href="#DejaVuSans-38" x="474.365234"/>
     <use xlink:href="#DejaVuSans-39" x="537.988281"/>
     <use xlink:href="#DejaVuSans-31" x="601.611328"/>
     <use xlink:href="#DejaVuSans-2e" x="665.234375"/>
     <use xlink:href="#DejaVuSans-36" x="697.021484"/>
     <use xlink:href="#DejaVuSans-39" x="760.644531"/>
     <use xlink:href="#DejaVuSans-33" x="824.267578"/>
     <use xlink:href="#DejaVuSans-31" x="887.890625"/>
     <use xlink:href="#DejaVuSans-35" x="951.513672"/>
     <use xlink:href="#DejaVuSans-38" x="1015.136719"/>
     <use xlink:href="#DejaVuSans-34" x="1078.759766"/>
     <use xlink:href="#DejaVuSans-33" x="1142.382812"/>
     <use xlink:href="#DejaVuSans-38" x="1206.005859"/>
     <use xlink:href="#DejaVuSans-36" x="1269.628906"/>
     <use xlink:href="#DejaVuSans-35" x="1333.251953"/>
     <use xlink:href="#DejaVuSans-33" x="1396.875"/>
     <use xlink:href="#DejaVuSans-35" x="1460.498047"/>
     <use xlink:href="#DejaVuSans-64" x="1524.121094"/>
     <use xlink:href="#DejaVuSans-69" x="1587.597656"/>
     <use xlink:href="#DejaVuSans-66" x="1615.380859"/>
     <use xlink:href="#DejaVuSans-66" x="1650.585938"/>
     <use xlink:href="#DejaVuSans-20" x="1685.791016"/>
     <use xlink:href="#DejaVuSans-3d" x="1717.578125"/>
     <use xlink:href="#DejaVuSans-20" x="1801.367188"/>
     <use xlink:href="#DejaVuSans-36" x="1833.154297"/>
     <use xlink:href="#DejaVuSans-33" x="1896.777344"/>
     <use xlink:href="#DejaVuSans-32" x="1960.400391"/>
     <use xlink:href="#DejaVuSans-34" x="2024.023438"/>
     <use xlink:href="#DejaVuSans-2e" x="2087.646484"/>
     <use xlink:href="#DejaVuSans-37" x="2119.433594"/>
     <use xlink:href="#DejaVuSans-38" x="2183.056641"/>
     <use xlink:href="#DejaVuSans-37" x="2246.679688"/>
     <use xlink:href="#DejaVuSans-36" x="2310.302734"/>
     <use xlink:href="#DejaVuSans-32" x="2373.925781"/>
     <use xlink:href="#DejaVuSans-38" x="2437.548828"/>
     <use xlink:href="#DejaVuSans-35" x="2501.171875"/>
     <use xlink:href="#DejaVuSans-32" x="2564.794922"/>
     <use xlink:href="#DejaVuSans-31" x="2628.417969"/>
     <use xlink:href="#DejaVuSans-36" x="2692.041016"/>
     <use xlink:href="#DejaVuSans-36" x="2755.664062"/>
     <use xlink:href="#DejaVuSans-33" x="2819.287109"/>
     <use xlink:href="#DejaVuSans-35" x="2882.910156"/>
    </g>
   </g>
   <g id="legend_1">
    <g id="patch_7">
     <path d="M 64.6 78.82825 
L 208.43125 78.82825 
Q 210.43125 78.82825 210.43125 76.82825 
L 210.43125 48.472 
Q 210.43125 46.472 208.43125 46.472 
L 64.6 46.472 
Q 62.6 46.472 62.6 48.472 
L 62.6 76.82825 
Q 62.6 78.82825 64.6 78.82825 
z
" style="fill: #ffffff; opacity: 0.8; stroke: #cccccc; stroke-linejoin: miter"/>
    </g>
    <g id="line2d_17">
     <path d="M 66.6 54.570437 
L 76.6 54.570437 
L 86.6 54.570437 
" style="fill: none; stroke-dasharray: 2,3.3; stroke-dashoffset: 0; stroke: #0000ff; stroke-width: 2"/>
    </g>
    <g id="text_18">
     <!-- Average (Default) -->
     <g transform="translate(94.6 58.070437)scale(0.1 -0.1)">
      <defs>
       <path id="DejaVuSans-41" d="M 2188 4044 
L 1331 1722 
L 3047 1722 
L 2188 4044 
z
M 1831 4666 
L 2547 4666 
L 4325 0 
L 3669 0 
L 3244 1197 
L 1141 1197 
L 716 0 
L 50 0 
L 1831 4666 
z
" transform="scale(0.015625)"/>
       <path id="DejaVuSans-28" d="M 1984 4856 
Q 1566 4138 1362 3434 
Q 1159 2731 1159 2009 
Q 1159 1288 1364 580 
Q 1569 -128 1984 -844 
L 1484 -844 
Q 1016 -109 783 600 
Q 550 1309 550 2009 
Q 550 2706 781 3412 
Q 1013 4119 1484 4856 
L 1984 4856 
z
" transform="scale(0.015625)"/>
       <path id="DejaVuSans-44" d="M 1259 4147 
L 1259 519 
L 2022 519 
Q 2988 519 3436 956 
Q 3884 1394 3884 2338 
Q 3884 3275 3436 3711 
Q 2988 4147 2022 4147 
L 1259 4147 
z
M 628 4666 
L 1925 4666 
Q 3281 4666 3915 4102 
Q 4550 3538 4550 2338 
Q 4550 1131 3912 565 
Q 3275 0 1925 0 
L 628 0 
L 628 4666 
z
" transform="scale(0.015625)"/>
       <path id="DejaVuSans-29" d="M 513 4856 
L 1013 4856 
Q 1481 4119 1714 3412 
Q 1947 2706 1947 2009 
Q 1947 1309 1714 600 
Q 1481 -109 1013 -844 
L 513 -844 
Q 928 -128 1133 580 
Q 1338 1288 1338 2009 
Q 1338 2731 1133 3434 
Q 928 4138 513 4856 
z
" transform="scale(0.015625)"/>
      </defs>
      <use xlink:href="#DejaVuSans-41"/>
      <use xlink:href="#DejaVuSans-76" x="62.533203"/>
      <use xlink:href="#DejaVuSans-65" x="121.712891"/>
      <use xlink:href="#DejaVuSans-72" x="183.236328"/>
      <use xlink:href="#DejaVuSans-61" x="224.349609"/>
      <use xlink:href="#DejaVuSans-67" x="285.628906"/>
      <use xlink:href="#DejaVuSans-65" x="349.105469"/>
      <use xlink:href="#DejaVuSans-20" x="410.628906"/>
      <use xlink:href="#DejaVuSans-28" x="442.416016"/>
      <use xlink:href="#DejaVuSans-44" x="481.429688"/>
      <use xlink:href="#DejaVuSans-65" x="558.431641"/>
      <use xlink:href="#DejaVuSans-66" x="619.955078"/>
      <use xlink:href="#DejaVuSans-61" x="655.160156"/>
      <use xlink:href="#DejaVuSans-75" x="716.439453"/>
      <use xlink:href="#DejaVuSans-6c" x="779.818359"/>
      <use xlink:href="#DejaVuSans-74" x="807.601562"/>
      <use xlink:href="#DejaVuSans-29" x="846.810547"/>
     </g>
    </g>
    <g id="line2d_18">
     <path d="M 66.6 69.248562 
L 76.6 69.248562 
L 86.6 69.248562 
" style="fill: none; stroke-dasharray: 2,3.3; stroke-dashoffset: 0; stroke: #ffa500; stroke-width: 2"/>
    </g>
    <g id="text_19">
     <!-- Average (Anticipation) -->
     <g transform="translate(94.6 72.748562)scale(0.1 -0.1)">
      <defs>
       <path id="DejaVuSans-63" d="M 3122 3366 
L 3122 2828 
Q 2878 2963 2633 3030 
Q 2388 3097 2138 3097 
Q 1578 3097 1268 2742 
Q 959 2388 959 1747 
Q 959 1106 1268 751 
Q 1578 397 2138 397 
Q 2388 397 2633 464 
Q 2878 531 3122 666 
L 3122 134 
Q 2881 22 2623 -34 
Q 2366 -91 2075 -91 
Q 1284 -91 818 406 
Q 353 903 353 1747 
Q 353 2603 823 3093 
Q 1294 3584 2113 3584 
Q 2378 3584 2631 3529 
Q 2884 3475 3122 3366 
z
" transform="scale(0.015625)"/>
       <path id="DejaVuSans-70" d="M 1159 525 
L 1159 -1331 
L 581 -1331 
L 581 3500 
L 1159 3500 
L 1159 2969 
Q 1341 3281 1617 3432 
Q 1894 3584 2278 3584 
Q 2916 3584 3314 3078 
Q 3713 2572 3713 1747 
Q 3713 922 3314 415 
Q 2916 -91 2278 -91 
Q 1894 -91 1617 61 
Q 1341 213 1159 525 
z
M 3116 1747 
Q 3116 2381 2855 2742 
Q 2594 3103 2138 3103 
Q 1681 3103 1420 2742 
Q 1159 2381 1159 1747 
Q 1159 1113 1420 752 
Q 1681 391 2138 391 
Q 2594 391 2855 752 
Q 3116 1113 3116 1747 
z
" transform="scale(0.015625)"/>
      </defs>
      <use xlink:href="#DejaVuSans-41"/>
      <use xlink:href="#DejaVuSans-76" x="62.533203"/>
      <use xlink:href="#DejaVuSans-65" x="121.712891"/>
      <use xlink:href="#DejaVuSans-72" x="183.236328"/>
      <use xlink:href="#DejaVuSans-61" x="224.349609"/>
      <use xlink:href="#DejaVuSans-67" x="285.628906"/>
      <use xlink:href="#DejaVuSans-65" x="349.105469"/>
      <use xlink:href="#DejaVuSans-20" x="410.628906"/>
      <use xlink:href="#DejaVuSans-28" x="442.416016"/>
      <use xlink:href="#DejaVuSans-41" x="481.429688"/>
      <use xlink:href="#DejaVuSans-6e" x="549.837891"/>
      <use xlink:href="#DejaVuSans-74" x="613.216797"/>
      <use xlink:href="#DejaVuSans-69" x="652.425781"/>
      <use xlink:href="#DejaVuSans-63" x="680.208984"/>
      <use xlink:href="#DejaVuSans-69" x="735.189453"/>
      <use xlink:href="#DejaVuSans-70" x="762.972656"/>
      <use xlink:href="#DejaVuSans-61" x="826.449219"/>
      <use xlink:href="#DejaVuSans-74" x="887.728516"/>
      <use xlink:href="#DejaVuSans-69" x="926.9375"/>
      <use xlink:href="#DejaVuSans-6f" x="954.720703"/>
      <use xlink:href="#DejaVuSans-6e" x="1015.902344"/>
      <use xlink:href="#DejaVuSans-29" x="1079.28125"/>
     </g>
    </g>
   </g>
  </g>
 </g>
 <defs>
  <clipPath id="pba11b33162">
   <rect x="57.6" y="41.472" width="357.12" height="266.112"/>
  </clipPath>
 </defs>
</svg>
