<?xml version="1.0" encoding="utf-8" standalone="no"?>
<!DOCTYPE svg PUBLIC "-//W3C//DTD SVG 1.1//EN"
  "http://www.w3.org/Graphics/SVG/1.1/DTD/svg11.dtd">
<svg xmlns:xlink="http://www.w3.org/1999/xlink" width="460.8pt" height="345.6pt" viewBox="0 0 460.8 345.6" xmlns="http://www.w3.org/2000/svg" version="1.1">
 <metadata>
  <rdf:RDF xmlns:dc="http://purl.org/dc/elements/1.1/" xmlns:cc="http://creativecommons.org/ns#" xmlns:rdf="http://www.w3.org/1999/02/22-rdf-syntax-ns#">
   <cc:Work>
    <dc:type rdf:resource="http://purl.org/dc/dcmitype/StillImage"/>
    <dc:date>2022-10-10T12:33:41.085613</dc:date>
    <dc:format>image/svg+xml</dc:format>
    <dc:creator>
     <cc:Agent>
      <dc:title>Matplotlib v3.5.3, https://matplotlib.org/</dc:title>
     </cc:Agent>
    </dc:creator>
   </cc:Work>
  </rdf:RDF>
 </metadata>
 <defs>
  <style type="text/css">*{stroke-linejoin: round; stroke-linecap: butt}</style>
 </defs>
 <g id="figure_1">
  <g id="patch_1">
   <path d="M 0 345.6 
L 460.8 345.6 
L 460.8 0 
L 0 0 
z
" style="fill: #ffffff"/>
  </g>
  <g id="axes_1">
   <g id="patch_2">
    <path d="M 57.6 307.584 
L 414.72 307.584 
L 414.72 41.472 
L 57.6 41.472 
z
" style="fill: #ffffff"/>
   </g>
   <g id="matplotlib.axis_1">
    <g id="xtick_1">
     <g id="line2d_1">
      <defs>
       <path id="m8b4f365754" d="M 0 0 
L 0 3.5 
" style="stroke: #000000; stroke-width: 0.8"/>
      </defs>
      <g>
       <use xlink:href="#m8b4f365754" x="73.832727" y="307.584" style="stroke: #000000; stroke-width: 0.8"/>
      </g>
     </g>
     <g id="text_1">
      <!-- 0 -->
      <g transform="translate(70.651477 322.182437)scale(0.1 -0.1)">
       <defs>
        <path id="DejaVuSans-30" d="M 2034 4250 
Q 1547 4250 1301 3770 
Q 1056 3291 1056 2328 
Q 1056 1369 1301 889 
Q 1547 409 2034 409 
Q 2525 409 2770 889 
Q 3016 1369 3016 2328 
Q 3016 3291 2770 3770 
Q 2525 4250 2034 4250 
z
M 2034 4750 
Q 2819 4750 3233 4129 
Q 3647 3509 3647 2328 
Q 3647 1150 3233 529 
Q 2819 -91 2034 -91 
Q 1250 -91 836 529 
Q 422 1150 422 2328 
Q 422 3509 836 4129 
Q 1250 4750 2034 4750 
z
" transform="scale(0.015625)"/>
       </defs>
       <use xlink:href="#DejaVuSans-30"/>
      </g>
     </g>
    </g>
    <g id="xtick_2">
     <g id="line2d_2">
      <g>
       <use xlink:href="#m8b4f365754" x="138.776625" y="307.584" style="stroke: #000000; stroke-width: 0.8"/>
      </g>
     </g>
     <g id="text_2">
      <!-- 1000 -->
      <g transform="translate(126.051625 322.182437)scale(0.1 -0.1)">
       <defs>
        <path id="DejaVuSans-31" d="M 794 531 
L 1825 531 
L 1825 4091 
L 703 3866 
L 703 4441 
L 1819 4666 
L 2450 4666 
L 2450 531 
L 3481 531 
L 3481 0 
L 794 0 
L 794 531 
z
" transform="scale(0.015625)"/>
       </defs>
       <use xlink:href="#DejaVuSans-31"/>
       <use xlink:href="#DejaVuSans-30" x="63.623047"/>
       <use xlink:href="#DejaVuSans-30" x="127.246094"/>
       <use xlink:href="#DejaVuSans-30" x="190.869141"/>
      </g>
     </g>
    </g>
    <g id="xtick_3">
     <g id="line2d_3">
      <g>
       <use xlink:href="#m8b4f365754" x="203.720523" y="307.584" style="stroke: #000000; stroke-width: 0.8"/>
      </g>
     </g>
     <g id="text_3">
      <!-- 2000 -->
      <g transform="translate(190.995523 322.182437)scale(0.1 -0.1)">
       <defs>
        <path id="DejaVuSans-32" d="M 1228 531 
L 3431 531 
L 3431 0 
L 469 0 
L 469 531 
Q 828 903 1448 1529 
Q 2069 2156 2228 2338 
Q 2531 2678 2651 2914 
Q 2772 3150 2772 3378 
Q 2772 3750 2511 3984 
Q 2250 4219 1831 4219 
Q 1534 4219 1204 4116 
Q 875 4013 500 3803 
L 500 4441 
Q 881 4594 1212 4672 
Q 1544 4750 1819 4750 
Q 2544 4750 2975 4387 
Q 3406 4025 3406 3419 
Q 3406 3131 3298 2873 
Q 3191 2616 2906 2266 
Q 2828 2175 2409 1742 
Q 1991 1309 1228 531 
z
" transform="scale(0.015625)"/>
       </defs>
       <use xlink:href="#DejaVuSans-32"/>
       <use xlink:href="#DejaVuSans-30" x="63.623047"/>
       <use xlink:href="#DejaVuSans-30" x="127.246094"/>
       <use xlink:href="#DejaVuSans-30" x="190.869141"/>
      </g>
     </g>
    </g>
    <g id="xtick_4">
     <g id="line2d_4">
      <g>
       <use xlink:href="#m8b4f365754" x="268.664421" y="307.584" style="stroke: #000000; stroke-width: 0.8"/>
      </g>
     </g>
     <g id="text_4">
      <!-- 3000 -->
      <g transform="translate(255.939421 322.182437)scale(0.1 -0.1)">
       <defs>
        <path id="DejaVuSans-33" d="M 2597 2516 
Q 3050 2419 3304 2112 
Q 3559 1806 3559 1356 
Q 3559 666 3084 287 
Q 2609 -91 1734 -91 
Q 1441 -91 1130 -33 
Q 819 25 488 141 
L 488 750 
Q 750 597 1062 519 
Q 1375 441 1716 441 
Q 2309 441 2620 675 
Q 2931 909 2931 1356 
Q 2931 1769 2642 2001 
Q 2353 2234 1838 2234 
L 1294 2234 
L 1294 2753 
L 1863 2753 
Q 2328 2753 2575 2939 
Q 2822 3125 2822 3475 
Q 2822 3834 2567 4026 
Q 2313 4219 1838 4219 
Q 1578 4219 1281 4162 
Q 984 4106 628 3988 
L 628 4550 
Q 988 4650 1302 4700 
Q 1616 4750 1894 4750 
Q 2613 4750 3031 4423 
Q 3450 4097 3450 3541 
Q 3450 3153 3228 2886 
Q 3006 2619 2597 2516 
z
" transform="scale(0.015625)"/>
       </defs>
       <use xlink:href="#DejaVuSans-33"/>
       <use xlink:href="#DejaVuSans-30" x="63.623047"/>
       <use xlink:href="#DejaVuSans-30" x="127.246094"/>
       <use xlink:href="#DejaVuSans-30" x="190.869141"/>
      </g>
     </g>
    </g>
    <g id="xtick_5">
     <g id="line2d_5">
      <g>
       <use xlink:href="#m8b4f365754" x="333.608319" y="307.584" style="stroke: #000000; stroke-width: 0.8"/>
      </g>
     </g>
     <g id="text_5">
      <!-- 4000 -->
      <g transform="translate(320.883319 322.182437)scale(0.1 -0.1)">
       <defs>
        <path id="DejaVuSans-34" d="M 2419 4116 
L 825 1625 
L 2419 1625 
L 2419 4116 
z
M 2253 4666 
L 3047 4666 
L 3047 1625 
L 3713 1625 
L 3713 1100 
L 3047 1100 
L 3047 0 
L 2419 0 
L 2419 1100 
L 313 1100 
L 313 1709 
L 2253 4666 
z
" transform="scale(0.015625)"/>
       </defs>
       <use xlink:href="#DejaVuSans-34"/>
       <use xlink:href="#DejaVuSans-30" x="63.623047"/>
       <use xlink:href="#DejaVuSans-30" x="127.246094"/>
       <use xlink:href="#DejaVuSans-30" x="190.869141"/>
      </g>
     </g>
    </g>
    <g id="xtick_6">
     <g id="line2d_6">
      <g>
       <use xlink:href="#m8b4f365754" x="398.552217" y="307.584" style="stroke: #000000; stroke-width: 0.8"/>
      </g>
     </g>
     <g id="text_6">
      <!-- 5000 -->
      <g transform="translate(385.827217 322.182437)scale(0.1 -0.1)">
       <defs>
        <path id="DejaVuSans-35" d="M 691 4666 
L 3169 4666 
L 3169 4134 
L 1269 4134 
L 1269 2991 
Q 1406 3038 1543 3061 
Q 1681 3084 1819 3084 
Q 2600 3084 3056 2656 
Q 3513 2228 3513 1497 
Q 3513 744 3044 326 
Q 2575 -91 1722 -91 
Q 1428 -91 1123 -41 
Q 819 9 494 109 
L 494 744 
Q 775 591 1075 516 
Q 1375 441 1709 441 
Q 2250 441 2565 725 
Q 2881 1009 2881 1497 
Q 2881 1984 2565 2268 
Q 2250 2553 1709 2553 
Q 1456 2553 1204 2497 
Q 953 2441 691 2322 
L 691 4666 
z
" transform="scale(0.015625)"/>
       </defs>
       <use xlink:href="#DejaVuSans-35"/>
       <use xlink:href="#DejaVuSans-30" x="63.623047"/>
       <use xlink:href="#DejaVuSans-30" x="127.246094"/>
       <use xlink:href="#DejaVuSans-30" x="190.869141"/>
      </g>
     </g>
    </g>
    <g id="text_7">
     <!-- Number of Orders -->
     <g transform="translate(191.261562 335.860562)scale(0.1 -0.1)">
      <defs>
       <path id="DejaVuSans-4e" d="M 628 4666 
L 1478 4666 
L 3547 763 
L 3547 4666 
L 4159 4666 
L 4159 0 
L 3309 0 
L 1241 3903 
L 1241 0 
L 628 0 
L 628 4666 
z
" transform="scale(0.015625)"/>
       <path id="DejaVuSans-75" d="M 544 1381 
L 544 3500 
L 1119 3500 
L 1119 1403 
Q 1119 906 1312 657 
Q 1506 409 1894 409 
Q 2359 409 2629 706 
Q 2900 1003 2900 1516 
L 2900 3500 
L 3475 3500 
L 3475 0 
L 2900 0 
L 2900 538 
Q 2691 219 2414 64 
Q 2138 -91 1772 -91 
Q 1169 -91 856 284 
Q 544 659 544 1381 
z
M 1991 3584 
L 1991 3584 
z
" transform="scale(0.015625)"/>
       <path id="DejaVuSans-6d" d="M 3328 2828 
Q 3544 3216 3844 3400 
Q 4144 3584 4550 3584 
Q 5097 3584 5394 3201 
Q 5691 2819 5691 2113 
L 5691 0 
L 5113 0 
L 5113 2094 
Q 5113 2597 4934 2840 
Q 4756 3084 4391 3084 
Q 3944 3084 3684 2787 
Q 3425 2491 3425 1978 
L 3425 0 
L 2847 0 
L 2847 2094 
Q 2847 2600 2669 2842 
Q 2491 3084 2119 3084 
Q 1678 3084 1418 2786 
Q 1159 2488 1159 1978 
L 1159 0 
L 581 0 
L 581 3500 
L 1159 3500 
L 1159 2956 
Q 1356 3278 1631 3431 
Q 1906 3584 2284 3584 
Q 2666 3584 2933 3390 
Q 3200 3197 3328 2828 
z
" transform="scale(0.015625)"/>
       <path id="DejaVuSans-62" d="M 3116 1747 
Q 3116 2381 2855 2742 
Q 2594 3103 2138 3103 
Q 1681 3103 1420 2742 
Q 1159 2381 1159 1747 
Q 1159 1113 1420 752 
Q 1681 391 2138 391 
Q 2594 391 2855 752 
Q 3116 1113 3116 1747 
z
M 1159 2969 
Q 1341 3281 1617 3432 
Q 1894 3584 2278 3584 
Q 2916 3584 3314 3078 
Q 3713 2572 3713 1747 
Q 3713 922 3314 415 
Q 2916 -91 2278 -91 
Q 1894 -91 1617 61 
Q 1341 213 1159 525 
L 1159 0 
L 581 0 
L 581 4863 
L 1159 4863 
L 1159 2969 
z
" transform="scale(0.015625)"/>
       <path id="DejaVuSans-65" d="M 3597 1894 
L 3597 1613 
L 953 1613 
Q 991 1019 1311 708 
Q 1631 397 2203 397 
Q 2534 397 2845 478 
Q 3156 559 3463 722 
L 3463 178 
Q 3153 47 2828 -22 
Q 2503 -91 2169 -91 
Q 1331 -91 842 396 
Q 353 884 353 1716 
Q 353 2575 817 3079 
Q 1281 3584 2069 3584 
Q 2775 3584 3186 3129 
Q 3597 2675 3597 1894 
z
M 3022 2063 
Q 3016 2534 2758 2815 
Q 2500 3097 2075 3097 
Q 1594 3097 1305 2825 
Q 1016 2553 972 2059 
L 3022 2063 
z
" transform="scale(0.015625)"/>
       <path id="DejaVuSans-72" d="M 2631 2963 
Q 2534 3019 2420 3045 
Q 2306 3072 2169 3072 
Q 1681 3072 1420 2755 
Q 1159 2438 1159 1844 
L 1159 0 
L 581 0 
L 581 3500 
L 1159 3500 
L 1159 2956 
Q 1341 3275 1631 3429 
Q 1922 3584 2338 3584 
Q 2397 3584 2469 3576 
Q 2541 3569 2628 3553 
L 2631 2963 
z
" transform="scale(0.015625)"/>
       <path id="DejaVuSans-20" transform="scale(0.015625)"/>
       <path id="DejaVuSans-6f" d="M 1959 3097 
Q 1497 3097 1228 2736 
Q 959 2375 959 1747 
Q 959 1119 1226 758 
Q 1494 397 1959 397 
Q 2419 397 2687 759 
Q 2956 1122 2956 1747 
Q 2956 2369 2687 2733 
Q 2419 3097 1959 3097 
z
M 1959 3584 
Q 2709 3584 3137 3096 
Q 3566 2609 3566 1747 
Q 3566 888 3137 398 
Q 2709 -91 1959 -91 
Q 1206 -91 779 398 
Q 353 888 353 1747 
Q 353 2609 779 3096 
Q 1206 3584 1959 3584 
z
" transform="scale(0.015625)"/>
       <path id="DejaVuSans-66" d="M 2375 4863 
L 2375 4384 
L 1825 4384 
Q 1516 4384 1395 4259 
Q 1275 4134 1275 3809 
L 1275 3500 
L 2222 3500 
L 2222 3053 
L 1275 3053 
L 1275 0 
L 697 0 
L 697 3053 
L 147 3053 
L 147 3500 
L 697 3500 
L 697 3744 
Q 697 4328 969 4595 
Q 1241 4863 1831 4863 
L 2375 4863 
z
" transform="scale(0.015625)"/>
       <path id="DejaVuSans-4f" d="M 2522 4238 
Q 1834 4238 1429 3725 
Q 1025 3213 1025 2328 
Q 1025 1447 1429 934 
Q 1834 422 2522 422 
Q 3209 422 3611 934 
Q 4013 1447 4013 2328 
Q 4013 3213 3611 3725 
Q 3209 4238 2522 4238 
z
M 2522 4750 
Q 3503 4750 4090 4092 
Q 4678 3434 4678 2328 
Q 4678 1225 4090 567 
Q 3503 -91 2522 -91 
Q 1538 -91 948 565 
Q 359 1222 359 2328 
Q 359 3434 948 4092 
Q 1538 4750 2522 4750 
z
" transform="scale(0.015625)"/>
       <path id="DejaVuSans-64" d="M 2906 2969 
L 2906 4863 
L 3481 4863 
L 3481 0 
L 2906 0 
L 2906 525 
Q 2725 213 2448 61 
Q 2172 -91 1784 -91 
Q 1150 -91 751 415 
Q 353 922 353 1747 
Q 353 2572 751 3078 
Q 1150 3584 1784 3584 
Q 2172 3584 2448 3432 
Q 2725 3281 2906 2969 
z
M 947 1747 
Q 947 1113 1208 752 
Q 1469 391 1925 391 
Q 2381 391 2643 752 
Q 2906 1113 2906 1747 
Q 2906 2381 2643 2742 
Q 2381 3103 1925 3103 
Q 1469 3103 1208 2742 
Q 947 2381 947 1747 
z
" transform="scale(0.015625)"/>
       <path id="DejaVuSans-73" d="M 2834 3397 
L 2834 2853 
Q 2591 2978 2328 3040 
Q 2066 3103 1784 3103 
Q 1356 3103 1142 2972 
Q 928 2841 928 2578 
Q 928 2378 1081 2264 
Q 1234 2150 1697 2047 
L 1894 2003 
Q 2506 1872 2764 1633 
Q 3022 1394 3022 966 
Q 3022 478 2636 193 
Q 2250 -91 1575 -91 
Q 1294 -91 989 -36 
Q 684 19 347 128 
L 347 722 
Q 666 556 975 473 
Q 1284 391 1588 391 
Q 1994 391 2212 530 
Q 2431 669 2431 922 
Q 2431 1156 2273 1281 
Q 2116 1406 1581 1522 
L 1381 1569 
Q 847 1681 609 1914 
Q 372 2147 372 2553 
Q 372 3047 722 3315 
Q 1072 3584 1716 3584 
Q 2034 3584 2315 3537 
Q 2597 3491 2834 3397 
z
" transform="scale(0.015625)"/>
      </defs>
      <use xlink:href="#DejaVuSans-4e"/>
      <use xlink:href="#DejaVuSans-75" x="74.804688"/>
      <use xlink:href="#DejaVuSans-6d" x="138.183594"/>
      <use xlink:href="#DejaVuSans-62" x="235.595703"/>
      <use xlink:href="#DejaVuSans-65" x="299.072266"/>
      <use xlink:href="#DejaVuSans-72" x="360.595703"/>
      <use xlink:href="#DejaVuSans-20" x="401.708984"/>
      <use xlink:href="#DejaVuSans-6f" x="433.496094"/>
      <use xlink:href="#DejaVuSans-66" x="494.677734"/>
      <use xlink:href="#DejaVuSans-20" x="529.882812"/>
      <use xlink:href="#DejaVuSans-4f" x="561.669922"/>
      <use xlink:href="#DejaVuSans-72" x="640.380859"/>
      <use xlink:href="#DejaVuSans-64" x="679.744141"/>
      <use xlink:href="#DejaVuSans-65" x="743.220703"/>
      <use xlink:href="#DejaVuSans-72" x="804.744141"/>
      <use xlink:href="#DejaVuSans-73" x="845.857422"/>
     </g>
    </g>
   </g>
   <g id="matplotlib.axis_2">
    <g id="ytick_1">
     <g id="line2d_7">
      <defs>
       <path id="m7b597ee802" d="M 0 0 
L -3.5 0 
" style="stroke: #000000; stroke-width: 0.8"/>
      </defs>
      <g>
       <use xlink:href="#m7b597ee802" x="57.6" y="286.22702" style="stroke: #000000; stroke-width: 0.8"/>
      </g>
     </g>
     <g id="text_8">
      <!-- 200 -->
      <g transform="translate(31.5125 290.026239)scale(0.1 -0.1)">
       <use xlink:href="#DejaVuSans-32"/>
       <use xlink:href="#DejaVuSans-30" x="63.623047"/>
       <use xlink:href="#DejaVuSans-30" x="127.246094"/>
      </g>
     </g>
    </g>
    <g id="ytick_2">
     <g id="line2d_8">
      <g>
       <use xlink:href="#m7b597ee802" x="57.6" y="255.647778" style="stroke: #000000; stroke-width: 0.8"/>
      </g>
     </g>
     <g id="text_9">
      <!-- 300 -->
      <g transform="translate(31.5125 259.446997)scale(0.1 -0.1)">
       <use xlink:href="#DejaVuSans-33"/>
       <use xlink:href="#DejaVuSans-30" x="63.623047"/>
       <use xlink:href="#DejaVuSans-30" x="127.246094"/>
      </g>
     </g>
    </g>
    <g id="ytick_3">
     <g id="line2d_9">
      <g>
       <use xlink:href="#m7b597ee802" x="57.6" y="225.068536" style="stroke: #000000; stroke-width: 0.8"/>
      </g>
     </g>
     <g id="text_10">
      <!-- 400 -->
      <g transform="translate(31.5125 228.867754)scale(0.1 -0.1)">
       <use xlink:href="#DejaVuSans-34"/>
       <use xlink:href="#DejaVuSans-30" x="63.623047"/>
       <use xlink:href="#DejaVuSans-30" x="127.246094"/>
      </g>
     </g>
    </g>
    <g id="ytick_4">
     <g id="line2d_10">
      <g>
       <use xlink:href="#m7b597ee802" x="57.6" y="194.489293" style="stroke: #000000; stroke-width: 0.8"/>
      </g>
     </g>
     <g id="text_11">
      <!-- 500 -->
      <g transform="translate(31.5125 198.288512)scale(0.1 -0.1)">
       <use xlink:href="#DejaVuSans-35"/>
       <use xlink:href="#DejaVuSans-30" x="63.623047"/>
       <use xlink:href="#DejaVuSans-30" x="127.246094"/>
      </g>
     </g>
    </g>
    <g id="ytick_5">
     <g id="line2d_11">
      <g>
       <use xlink:href="#m7b597ee802" x="57.6" y="163.910051" style="stroke: #000000; stroke-width: 0.8"/>
      </g>
     </g>
     <g id="text_12">
      <!-- 600 -->
      <g transform="translate(31.5125 167.70927)scale(0.1 -0.1)">
       <defs>
        <path id="DejaVuSans-36" d="M 2113 2584 
Q 1688 2584 1439 2293 
Q 1191 2003 1191 1497 
Q 1191 994 1439 701 
Q 1688 409 2113 409 
Q 2538 409 2786 701 
Q 3034 994 3034 1497 
Q 3034 2003 2786 2293 
Q 2538 2584 2113 2584 
z
M 3366 4563 
L 3366 3988 
Q 3128 4100 2886 4159 
Q 2644 4219 2406 4219 
Q 1781 4219 1451 3797 
Q 1122 3375 1075 2522 
Q 1259 2794 1537 2939 
Q 1816 3084 2150 3084 
Q 2853 3084 3261 2657 
Q 3669 2231 3669 1497 
Q 3669 778 3244 343 
Q 2819 -91 2113 -91 
Q 1303 -91 875 529 
Q 447 1150 447 2328 
Q 447 3434 972 4092 
Q 1497 4750 2381 4750 
Q 2619 4750 2861 4703 
Q 3103 4656 3366 4563 
z
" transform="scale(0.015625)"/>
       </defs>
       <use xlink:href="#DejaVuSans-36"/>
       <use xlink:href="#DejaVuSans-30" x="63.623047"/>
       <use xlink:href="#DejaVuSans-30" x="127.246094"/>
      </g>
     </g>
    </g>
    <g id="ytick_6">
     <g id="line2d_12">
      <g>
       <use xlink:href="#m7b597ee802" x="57.6" y="133.330809" style="stroke: #000000; stroke-width: 0.8"/>
      </g>
     </g>
     <g id="text_13">
      <!-- 700 -->
      <g transform="translate(31.5125 137.130028)scale(0.1 -0.1)">
       <defs>
        <path id="DejaVuSans-37" d="M 525 4666 
L 3525 4666 
L 3525 4397 
L 1831 0 
L 1172 0 
L 2766 4134 
L 525 4134 
L 525 4666 
z
" transform="scale(0.015625)"/>
       </defs>
       <use xlink:href="#DejaVuSans-37"/>
       <use xlink:href="#DejaVuSans-30" x="63.623047"/>
       <use xlink:href="#DejaVuSans-30" x="127.246094"/>
      </g>
     </g>
    </g>
    <g id="ytick_7">
     <g id="line2d_13">
      <g>
       <use xlink:href="#m7b597ee802" x="57.6" y="102.751567" style="stroke: #000000; stroke-width: 0.8"/>
      </g>
     </g>
     <g id="text_14">
      <!-- 800 -->
      <g transform="translate(31.5125 106.550785)scale(0.1 -0.1)">
       <defs>
        <path id="DejaVuSans-38" d="M 2034 2216 
Q 1584 2216 1326 1975 
Q 1069 1734 1069 1313 
Q 1069 891 1326 650 
Q 1584 409 2034 409 
Q 2484 409 2743 651 
Q 3003 894 3003 1313 
Q 3003 1734 2745 1975 
Q 2488 2216 2034 2216 
z
M 1403 2484 
Q 997 2584 770 2862 
Q 544 3141 544 3541 
Q 544 4100 942 4425 
Q 1341 4750 2034 4750 
Q 2731 4750 3128 4425 
Q 3525 4100 3525 3541 
Q 3525 3141 3298 2862 
Q 3072 2584 2669 2484 
Q 3125 2378 3379 2068 
Q 3634 1759 3634 1313 
Q 3634 634 3220 271 
Q 2806 -91 2034 -91 
Q 1263 -91 848 271 
Q 434 634 434 1313 
Q 434 1759 690 2068 
Q 947 2378 1403 2484 
z
M 1172 3481 
Q 1172 3119 1398 2916 
Q 1625 2713 2034 2713 
Q 2441 2713 2670 2916 
Q 2900 3119 2900 3481 
Q 2900 3844 2670 4047 
Q 2441 4250 2034 4250 
Q 1625 4250 1398 4047 
Q 1172 3844 1172 3481 
z
" transform="scale(0.015625)"/>
       </defs>
       <use xlink:href="#DejaVuSans-38"/>
       <use xlink:href="#DejaVuSans-30" x="63.623047"/>
       <use xlink:href="#DejaVuSans-30" x="127.246094"/>
      </g>
     </g>
    </g>
    <g id="ytick_8">
     <g id="line2d_14">
      <g>
       <use xlink:href="#m7b597ee802" x="57.6" y="72.172324" style="stroke: #000000; stroke-width: 0.8"/>
      </g>
     </g>
     <g id="text_15">
      <!-- 900 -->
      <g transform="translate(31.5125 75.971543)scale(0.1 -0.1)">
       <defs>
        <path id="DejaVuSans-39" d="M 703 97 
L 703 672 
Q 941 559 1184 500 
Q 1428 441 1663 441 
Q 2288 441 2617 861 
Q 2947 1281 2994 2138 
Q 2813 1869 2534 1725 
Q 2256 1581 1919 1581 
Q 1219 1581 811 2004 
Q 403 2428 403 3163 
Q 403 3881 828 4315 
Q 1253 4750 1959 4750 
Q 2769 4750 3195 4129 
Q 3622 3509 3622 2328 
Q 3622 1225 3098 567 
Q 2575 -91 1691 -91 
Q 1453 -91 1209 -44 
Q 966 3 703 97 
z
M 1959 2075 
Q 2384 2075 2632 2365 
Q 2881 2656 2881 3163 
Q 2881 3666 2632 3958 
Q 2384 4250 1959 4250 
Q 1534 4250 1286 3958 
Q 1038 3666 1038 3163 
Q 1038 2656 1286 2365 
Q 1534 2075 1959 2075 
z
" transform="scale(0.015625)"/>
       </defs>
       <use xlink:href="#DejaVuSans-39"/>
       <use xlink:href="#DejaVuSans-30" x="63.623047"/>
       <use xlink:href="#DejaVuSans-30" x="127.246094"/>
      </g>
     </g>
    </g>
    <g id="ytick_9">
     <g id="line2d_15">
      <g>
       <use xlink:href="#m7b597ee802" x="57.6" y="41.593082" style="stroke: #000000; stroke-width: 0.8"/>
      </g>
     </g>
     <g id="text_16">
      <!-- 1000 -->
      <g transform="translate(25.15 45.392301)scale(0.1 -0.1)">
       <use xlink:href="#DejaVuSans-31"/>
       <use xlink:href="#DejaVuSans-30" x="63.623047"/>
       <use xlink:href="#DejaVuSans-30" x="127.246094"/>
       <use xlink:href="#DejaVuSans-30" x="190.869141"/>
      </g>
     </g>
    </g>
    <g id="text_17">
     <!-- Waiting Time/s -->
     <g transform="translate(19.070312 211.410031)rotate(-90)scale(0.1 -0.1)">
      <defs>
       <path id="DejaVuSans-57" d="M 213 4666 
L 850 4666 
L 1831 722 
L 2809 4666 
L 3519 4666 
L 4500 722 
L 5478 4666 
L 6119 4666 
L 4947 0 
L 4153 0 
L 3169 4050 
L 2175 0 
L 1381 0 
L 213 4666 
z
" transform="scale(0.015625)"/>
       <path id="DejaVuSans-61" d="M 2194 1759 
Q 1497 1759 1228 1600 
Q 959 1441 959 1056 
Q 959 750 1161 570 
Q 1363 391 1709 391 
Q 2188 391 2477 730 
Q 2766 1069 2766 1631 
L 2766 1759 
L 2194 1759 
z
M 3341 1997 
L 3341 0 
L 2766 0 
L 2766 531 
Q 2569 213 2275 61 
Q 1981 -91 1556 -91 
Q 1019 -91 701 211 
Q 384 513 384 1019 
Q 384 1609 779 1909 
Q 1175 2209 1959 2209 
L 2766 2209 
L 2766 2266 
Q 2766 2663 2505 2880 
Q 2244 3097 1772 3097 
Q 1472 3097 1187 3025 
Q 903 2953 641 2809 
L 641 3341 
Q 956 3463 1253 3523 
Q 1550 3584 1831 3584 
Q 2591 3584 2966 3190 
Q 3341 2797 3341 1997 
z
" transform="scale(0.015625)"/>
       <path id="DejaVuSans-69" d="M 603 3500 
L 1178 3500 
L 1178 0 
L 603 0 
L 603 3500 
z
M 603 4863 
L 1178 4863 
L 1178 4134 
L 603 4134 
L 603 4863 
z
" transform="scale(0.015625)"/>
       <path id="DejaVuSans-74" d="M 1172 4494 
L 1172 3500 
L 2356 3500 
L 2356 3053 
L 1172 3053 
L 1172 1153 
Q 1172 725 1289 603 
Q 1406 481 1766 481 
L 2356 481 
L 2356 0 
L 1766 0 
Q 1100 0 847 248 
Q 594 497 594 1153 
L 594 3053 
L 172 3053 
L 172 3500 
L 594 3500 
L 594 4494 
L 1172 4494 
z
" transform="scale(0.015625)"/>
       <path id="DejaVuSans-6e" d="M 3513 2113 
L 3513 0 
L 2938 0 
L 2938 2094 
Q 2938 2591 2744 2837 
Q 2550 3084 2163 3084 
Q 1697 3084 1428 2787 
Q 1159 2491 1159 1978 
L 1159 0 
L 581 0 
L 581 3500 
L 1159 3500 
L 1159 2956 
Q 1366 3272 1645 3428 
Q 1925 3584 2291 3584 
Q 2894 3584 3203 3211 
Q 3513 2838 3513 2113 
z
" transform="scale(0.015625)"/>
       <path id="DejaVuSans-67" d="M 2906 1791 
Q 2906 2416 2648 2759 
Q 2391 3103 1925 3103 
Q 1463 3103 1205 2759 
Q 947 2416 947 1791 
Q 947 1169 1205 825 
Q 1463 481 1925 481 
Q 2391 481 2648 825 
Q 2906 1169 2906 1791 
z
M 3481 434 
Q 3481 -459 3084 -895 
Q 2688 -1331 1869 -1331 
Q 1566 -1331 1297 -1286 
Q 1028 -1241 775 -1147 
L 775 -588 
Q 1028 -725 1275 -790 
Q 1522 -856 1778 -856 
Q 2344 -856 2625 -561 
Q 2906 -266 2906 331 
L 2906 616 
Q 2728 306 2450 153 
Q 2172 0 1784 0 
Q 1141 0 747 490 
Q 353 981 353 1791 
Q 353 2603 747 3093 
Q 1141 3584 1784 3584 
Q 2172 3584 2450 3431 
Q 2728 3278 2906 2969 
L 2906 3500 
L 3481 3500 
L 3481 434 
z
" transform="scale(0.015625)"/>
       <path id="DejaVuSans-54" d="M -19 4666 
L 3928 4666 
L 3928 4134 
L 2272 4134 
L 2272 0 
L 1638 0 
L 1638 4134 
L -19 4134 
L -19 4666 
z
" transform="scale(0.015625)"/>
       <path id="DejaVuSans-2f" d="M 1625 4666 
L 2156 4666 
L 531 -594 
L 0 -594 
L 1625 4666 
z
" transform="scale(0.015625)"/>
      </defs>
      <use xlink:href="#DejaVuSans-57"/>
      <use xlink:href="#DejaVuSans-61" x="92.501953"/>
      <use xlink:href="#DejaVuSans-69" x="153.78125"/>
      <use xlink:href="#DejaVuSans-74" x="181.564453"/>
      <use xlink:href="#DejaVuSans-69" x="220.773438"/>
      <use xlink:href="#DejaVuSans-6e" x="248.556641"/>
      <use xlink:href="#DejaVuSans-67" x="311.935547"/>
      <use xlink:href="#DejaVuSans-20" x="375.412109"/>
      <use xlink:href="#DejaVuSans-54" x="407.199219"/>
      <use xlink:href="#DejaVuSans-69" x="465.158203"/>
      <use xlink:href="#DejaVuSans-6d" x="492.941406"/>
      <use xlink:href="#DejaVuSans-65" x="590.353516"/>
      <use xlink:href="#DejaVuSans-2f" x="651.876953"/>
      <use xlink:href="#DejaVuSans-73" x="685.568359"/>
     </g>
    </g>
   </g>
   <g id="line2d_16">
    <path d="M 73.832727 295.488 
L 73.897671 294.190091 
L 74.027559 254.516 
L 74.157447 255.045377 
L 74.352278 249.099516 
L 74.417222 249.324715 
L 74.482166 250.703471 
L 74.741942 222.742665 
L 74.806886 225.584545 
L 74.936774 232.11205 
L 75.131605 224.775327 
L 75.196549 227.193841 
L 75.261493 225.541507 
L 75.326437 221.098007 
L 75.391381 221.900698 
L 75.521269 218.078301 
L 75.586213 218.966125 
L 75.651156 219.489437 
L 75.781044 214.783765 
L 75.845988 214.828995 
L 75.910932 211.990348 
L 75.975876 212.485192 
L 76.04082 212.543511 
L 76.105764 210.271026 
L 76.170708 210.443304 
L 76.300595 209.231887 
L 76.560371 200.141794 
L 76.625315 201.494501 
L 76.950034 196.404586 
L 77.014978 197.74567 
L 77.274754 193.456499 
L 77.404642 195.565843 
L 77.599473 194.684988 
L 77.729361 191.324541 
L 77.859249 193.661701 
L 78.054081 190.452196 
L 78.119025 189.620738 
L 78.183968 191.206427 
L 78.3788 187.435286 
L 78.573632 189.81587 
L 78.638576 189.110932 
L 78.833407 185.766859 
L 79.028239 187.91469 
L 79.093183 187.096131 
L 79.158127 186.393124 
L 79.288015 188.114543 
L 79.417902 186.994173 
L 79.482846 187.18357 
L 79.54779 188.29164 
L 79.612734 187.855517 
L 79.677678 188.215253 
L 79.742622 186.944859 
L 79.807566 187.379795 
L 79.937454 186.952073 
L 80.067341 187.996393 
L 80.132285 187.333975 
L 80.262173 187.950104 
L 80.457005 186.92652 
L 80.586893 184.402454 
L 80.651837 184.771912 
L 80.911612 183.477721 
L 81.106444 184.502751 
L 81.301276 183.187364 
L 81.366219 183.733999 
L 81.561051 184.868694 
L 81.625995 184.829378 
L 81.755883 184.276511 
L 82.080602 179.755076 
L 82.340378 180.858212 
L 82.53521 179.853976 
L 82.730041 178.514109 
L 82.859929 177.054407 
L 82.924873 177.928769 
L 83.119705 175.674989 
L 83.184649 175.535798 
L 83.249592 175.953242 
L 83.444424 174.555726 
L 83.509368 174.606446 
L 83.574312 174.03401 
L 83.639256 174.429299 
L 83.7042 174.56911 
L 83.899031 173.488322 
L 83.963975 172.79923 
L 84.028919 172.912567 
L 84.158807 173.512453 
L 84.418583 171.87082 
L 84.483527 171.987182 
L 84.678358 173.289619 
L 84.743302 172.658671 
L 84.808246 173.323758 
L 84.87319 173.056869 
L 84.938134 172.94615 
L 85.003078 173.785257 
L 85.068022 173.768863 
L 85.132966 172.90462 
L 85.197909 173.328014 
L 85.262853 173.385883 
L 85.392741 172.24953 
L 85.457685 172.526626 
L 85.522629 172.897044 
L 85.717461 172.086814 
L 85.782404 172.471545 
L 85.847348 172.181486 
L 85.912292 172.758311 
L 85.977236 172.188058 
L 86.04218 172.89088 
L 86.107124 172.507074 
L 86.172068 171.914709 
L 86.301956 172.587045 
L 86.561731 171.256784 
L 86.626675 171.883959 
L 86.691619 171.660049 
L 86.756563 171.672803 
L 86.821507 171.952075 
L 86.886451 171.309394 
L 86.951395 171.751978 
L 87.016339 171.494426 
L 87.146226 172.136672 
L 87.730721 169.533207 
L 87.860609 170.211732 
L 87.990497 170.097786 
L 88.055441 170.231298 
L 88.120385 169.511508 
L 88.185329 169.774952 
L 88.250273 169.861894 
L 88.38016 169.349021 
L 88.445104 168.807441 
L 88.510048 168.938968 
L 88.574992 168.786224 
L 88.639936 169.153532 
L 88.769824 168.555756 
L 88.964655 169.713339 
L 89.029599 169.261506 
L 89.094543 169.184677 
L 89.419263 168.283848 
L 89.549151 168.252123 
L 89.679038 167.606768 
L 89.743982 167.901672 
L 89.808926 167.814685 
L 89.938814 167.829509 
L 90.068702 167.440077 
L 90.263533 168.001369 
L 90.393421 167.158425 
L 90.458365 167.119023 
L 90.718141 167.955853 
L 90.783085 167.618662 
L 90.848029 167.854633 
L 90.912972 167.918232 
L 91.172748 166.190535 
L 91.237692 166.15898 
L 91.36758 165.927683 
L 91.432524 166.240942 
L 91.627355 165.828417 
L 91.692299 165.861181 
L 91.757243 165.584527 
L 91.822187 165.764232 
L 92.081963 166.007853 
L 92.146906 165.634858 
L 92.21185 165.790077 
L 92.276794 165.876345 
L 92.471626 166.834842 
L 92.53657 166.713312 
L 92.601514 166.343764 
L 92.666458 166.421417 
L 92.731402 166.543676 
L 92.796345 166.24531 
L 92.861289 166.694012 
L 92.926233 166.401623 
L 93.056121 166.777193 
L 93.121065 166.14365 
L 93.186009 166.279233 
L 93.380841 165.720815 
L 93.510728 166.293494 
L 93.575672 166.168632 
L 93.640616 166.490417 
L 93.835448 165.909061 
L 93.900392 165.90327 
L 93.965336 166.223289 
L 94.03028 165.98719 
L 94.354999 164.691559 
L 94.419943 164.644611 
L 94.679718 165.060149 
L 94.744662 164.853632 
L 94.87455 165.388346 
L 94.939494 165.231036 
L 95.004438 165.080551 
L 95.069382 165.112374 
L 95.134326 165.165395 
L 95.19927 165.365333 
L 95.459045 164.395234 
L 95.718821 163.589732 
L 95.783765 163.331412 
L 95.913653 163.588797 
L 95.978596 163.505198 
L 96.04354 163.608337 
L 96.108484 163.530377 
L 96.173428 163.347596 
L 96.238372 163.388385 
L 96.303316 163.48277 
L 96.36826 163.21868 
L 96.433204 163.357819 
L 96.628035 163.028639 
L 96.692979 163.165112 
L 96.822867 162.693059 
L 97.082643 163.552534 
L 97.342418 163.110419 
L 97.407362 163.306349 
L 97.472306 163.354171 
L 97.53725 163.59355 
L 97.602194 163.411937 
L 97.861969 162.636338 
L 97.926913 162.74498 
L 98.056801 163.107531 
L 98.121745 163.045647 
L 98.186689 163.162627 
L 98.316577 162.484333 
L 98.381521 162.692491 
L 98.446465 162.708851 
L 98.641296 161.865051 
L 98.771184 162.357822 
L 98.836128 162.290638 
L 98.901072 162.439638 
L 98.966016 162.374917 
L 99.160847 162.021016 
L 99.225791 161.702177 
L 99.290735 161.920624 
L 99.355679 161.986835 
L 99.420623 161.882738 
L 99.485567 161.537413 
L 99.550511 161.732688 
L 99.615455 161.800512 
L 99.810286 161.191899 
L 99.940174 161.208937 
L 100.070062 160.747597 
L 100.135006 160.850675 
L 100.264894 160.516284 
L 100.329838 160.511641 
L 100.524669 161.013988 
L 100.589613 160.967767 
L 100.849389 160.708099 
L 100.914333 160.821073 
L 100.979277 160.742198 
L 101.36894 160.740914 
L 101.563772 159.66772 
L 101.758603 159.968367 
L 101.823547 159.691146 
L 101.888491 159.757883 
L 101.953435 159.998261 
L 102.018379 159.841723 
L 102.278155 159.135955 
L 102.472986 159.200746 
L 102.602874 158.869302 
L 102.667818 159.033992 
L 103.122425 157.898176 
L 103.187369 157.819312 
L 103.252313 157.875669 
L 103.382201 157.947627 
L 103.512089 157.503223 
L 103.70692 157.984298 
L 103.836808 157.935554 
L 103.966696 157.783528 
L 104.096584 157.90291 
L 104.486247 157.114344 
L 104.616135 157.229126 
L 104.810967 157.524815 
L 104.87591 157.36131 
L 104.940854 157.602015 
L 105.005798 157.550565 
L 105.070742 157.23442 
L 105.135686 157.404173 
L 105.20063 157.356809 
L 105.460406 156.558219 
L 105.525349 156.834554 
L 105.720181 156.277793 
L 105.785125 156.371606 
L 105.979957 156.233779 
L 106.109845 156.078592 
L 106.239732 155.882889 
L 106.36962 156.025329 
L 106.499508 155.663399 
L 106.564452 155.922965 
L 106.629396 155.745472 
L 106.824227 155.853127 
L 106.889171 155.681205 
L 106.954115 155.81608 
L 107.084003 156.221608 
L 107.148947 156.154386 
L 107.213891 155.980886 
L 107.343779 156.249892 
L 107.733442 156.007741 
L 107.798386 156.07057 
L 107.86333 155.802313 
L 107.928274 155.875954 
L 107.993218 156.041229 
L 108.058161 155.772608 
L 108.123105 155.944688 
L 108.252993 156.13023 
L 108.512769 155.512097 
L 108.7076 155.908944 
L 109.03232 155.482084 
L 109.097264 155.500669 
L 109.227152 155.770384 
L 109.292096 155.617252 
L 109.357039 155.755169 
L 109.486927 155.172849 
L 109.616815 155.300036 
L 109.681759 155.241181 
L 109.746703 155.31295 
L 109.941534 155.311153 
L 110.006478 155.043697 
L 110.071422 155.073652 
L 110.20131 155.049881 
L 110.331198 155.429395 
L 110.396142 155.359776 
L 110.52603 155.220352 
L 110.590973 154.954133 
L 110.655917 154.971544 
L 110.785805 155.043384 
L 110.850749 154.96987 
L 110.915693 155.107991 
L 111.110525 154.721402 
L 111.305356 154.468996 
L 111.3703 154.660321 
L 111.435244 154.545621 
L 111.565132 154.350982 
L 111.630076 154.167868 
L 111.69502 154.214637 
L 111.759964 154.283718 
L 111.954795 153.847736 
L 112.019739 154.011121 
L 112.084683 153.97097 
L 112.214571 153.643773 
L 112.279515 153.676405 
L 112.409403 153.858177 
L 112.604234 153.31062 
L 112.669178 153.376335 
L 112.734122 153.520084 
L 112.928954 153.128735 
L 113.123785 153.256661 
L 113.318617 153.012174 
L 113.383561 153.123318 
L 113.708281 152.508046 
L 113.903112 152.462803 
L 113.968056 152.335044 
L 114.033 152.38888 
L 114.097944 152.49643 
L 114.227832 152.264089 
L 114.292776 152.356004 
L 114.422663 151.909513 
L 114.617495 152.286074 
L 114.942215 151.370226 
L 115.396822 150.169075 
L 115.461766 150.3511 
L 115.656598 149.916207 
L 115.981317 150.101631 
L 116.046261 150.319716 
L 116.306036 149.570898 
L 116.500868 149.527164 
L 116.565812 149.401041 
L 116.630756 149.442084 
L 116.6957 149.453823 
L 116.760644 149.248634 
L 116.825588 149.336523 
L 117.020419 149.256009 
L 117.085363 148.952341 
L 117.150307 149.017448 
L 117.280195 148.959952 
L 117.410083 148.767205 
L 117.734802 148.372795 
L 117.799746 148.483726 
L 117.86469 148.387018 
L 117.929634 148.253459 
L 118.059522 147.736284 
L 118.124466 147.643994 
L 118.18941 147.265515 
L 118.254353 147.383062 
L 118.449185 146.961209 
L 118.514129 146.929286 
L 118.773905 146.408279 
L 118.903792 146.32515 
L 119.098624 146.110426 
L 119.228512 145.793071 
L 119.423344 146.128111 
L 119.618175 145.74615 
L 120.007839 145.469278 
L 120.20267 145.354213 
L 120.267614 145.280686 
L 120.397502 145.630504 
L 120.462446 145.418474 
L 120.52739 145.440858 
L 120.787165 145.229905 
L 120.917053 145.462304 
L 120.981997 145.243055 
L 121.046941 145.368786 
L 121.111885 145.329108 
L 121.241773 145.547366 
L 121.436604 145.20529 
L 121.631436 145.529483 
L 121.891212 145.237754 
L 122.021099 145.38249 
L 122.150987 145.327328 
L 122.280875 145.515531 
L 122.345819 145.227291 
L 122.410763 145.369312 
L 122.735482 145.498889 
L 122.800426 145.445756 
L 122.86537 145.534121 
L 122.930314 145.723259 
L 122.995258 145.640025 
L 123.060202 145.579522 
L 123.125146 145.775017 
L 123.19009 145.688624 
L 123.255034 145.631282 
L 123.319977 145.800056 
L 123.384921 145.754205 
L 123.449865 145.715832 
L 123.579753 145.961742 
L 123.839529 145.86675 
L 124.099304 145.47971 
L 124.294136 145.788661 
L 124.488968 145.812674 
L 124.553912 146.011647 
L 124.618855 145.899814 
L 124.878631 146.213465 
L 124.943575 146.162306 
L 125.138407 146.430954 
L 125.398182 146.425964 
L 125.593014 146.74523 
L 125.657958 146.615525 
L 125.722902 146.728441 
L 125.787846 146.747718 
L 125.982677 146.44037 
L 126.177509 146.621402 
L 126.372341 146.453204 
L 126.632116 146.592441 
L 126.69706 146.454104 
L 126.762004 146.519955 
L 126.826948 146.605529 
L 127.151667 146.190825 
L 127.281555 146.081943 
L 127.411443 146.172116 
L 127.606275 146.008376 
L 127.671219 146.038644 
L 127.801106 145.91071 
L 128.19077 145.93568 
L 128.320658 145.771208 
L 128.385601 145.836593 
L 128.580433 145.679197 
L 128.710321 145.688237 
L 128.840209 145.873987 
L 128.905153 145.765258 
L 129.164928 145.406697 
L 129.35976 145.378368 
L 129.554592 144.937123 
L 129.619536 144.983525 
L 130.074143 144.475073 
L 130.268975 144.670186 
L 131.113245 143.849431 
L 131.243133 143.546698 
L 131.308077 143.588099 
L 131.502909 143.639557 
L 131.632796 143.745287 
L 131.69774 143.808334 
L 132.152348 143.172263 
L 132.282235 143.346455 
L 132.542011 142.974502 
L 132.801787 143.020783 
L 132.86673 142.995077 
L 132.931674 143.091592 
L 133.061562 143.008217 
L 133.386282 143.02899 
L 133.711001 143.303796 
L 133.905833 143.225243 
L 134.035721 143.208186 
L 134.165608 143.05507 
L 134.68516 143.573557 
L 134.815047 143.575031 
L 134.879991 143.604072 
L 134.944935 143.476054 
L 135.009879 143.572296 
L 135.139767 143.514027 
L 135.334599 143.698816 
L 135.594374 143.675695 
L 135.659318 143.623705 
L 135.85415 143.816471 
L 136.048981 143.8637 
L 136.113925 143.751 
L 136.308757 143.878605 
L 136.503589 143.764381 
L 136.828308 144.1952 
L 136.893252 144.172496 
L 137.088084 144.540871 
L 137.282915 144.431255 
L 137.347859 144.537816 
L 137.412803 144.494578 
L 137.542691 144.42479 
L 137.672579 144.225231 
L 137.867411 144.293451 
L 138.062242 144.263614 
L 138.386962 144.341743 
L 138.646737 144.37622 
L 138.906513 144.216567 
L 138.971457 144.175643 
L 139.101345 144.248953 
L 139.166289 144.163913 
L 139.231232 144.229024 
L 139.36112 144.237594 
L 139.555952 144.328752 
L 139.750784 144.269444 
L 139.945615 144.292651 
L 140.010559 144.133354 
L 140.075503 144.211566 
L 140.724942 144.005319 
L 140.85483 143.979212 
L 141.049662 143.705054 
L 141.244493 143.729933 
L 141.439325 143.956624 
L 141.893932 144.022 
L 142.088764 143.801332 
L 142.218652 143.90154 
L 142.413483 143.563113 
L 142.543371 143.582516 
L 142.738203 143.662196 
L 142.868091 143.705439 
L 142.997979 143.612962 
L 143.19281 143.632017 
L 143.842249 143.491305 
L 144.102025 143.674091 
L 144.296856 143.609905 
L 144.946295 143.062517 
L 145.076183 143.081443 
L 145.465847 143.079122 
L 145.595734 142.901141 
L 146.050342 143.143371 
L 146.245173 142.970937 
L 146.440005 143.067618 
L 146.634837 143.091994 
L 146.829668 142.800435 
L 146.894612 142.896718 
L 146.959556 142.829193 
L 147.089444 142.765367 
L 147.154388 142.691492 
L 147.219332 142.752596 
L 147.414164 142.897282 
L 147.544051 142.903637 
L 147.738883 143.0375 
L 147.933715 143.02898 
L 148.648098 143.24103 
L 148.713042 143.181513 
L 148.842929 143.338518 
L 149.232593 143.193844 
L 149.557312 143.349068 
L 149.6872 143.355697 
L 149.752144 143.443157 
L 149.817088 143.374233 
L 150.011919 143.421107 
L 150.076863 143.497933 
L 150.141807 143.403333 
L 150.336639 143.165871 
L 150.661358 143.357777 
L 151.051022 143.233772 
L 151.18091 143.305405 
L 151.245854 143.376321 
L 151.310797 143.294641 
L 151.440685 143.31683 
L 151.635517 143.342876 
L 152.3499 143.286997 
L 152.544731 143.479214 
L 152.804507 143.509418 
L 152.869451 143.432603 
L 152.934395 143.499879 
L 152.999339 143.45284 
L 153.129227 143.553108 
L 153.453946 143.445429 
L 153.51889 143.383839 
L 153.778666 143.599305 
L 154.103385 143.35523 
L 154.493048 143.512335 
L 155.0126 143.215497 
L 155.467207 143.434222 
L 155.791926 143.176412 
L 155.85687 143.031664 
L 155.921814 143.097339 
L 156.051702 143.156278 
L 156.246534 143.054108 
L 156.571253 143.019689 
L 156.701141 143.028153 
L 156.831029 143.10731 
L 157.02586 143.007092 
L 157.090804 143.064909 
L 157.155748 142.980731 
L 157.220692 142.938884 
L 157.35058 143.047949 
L 157.480468 143.074205 
L 157.610356 143.132896 
L 158.259795 143.131003 
L 158.454626 143.007132 
L 159.104065 142.936723 
L 159.298897 143.08014 
L 159.428785 143.066747 
L 159.68856 143.245038 
L 159.883392 143.192499 
L 160.208111 143.355629 
L 160.402943 143.210834 
L 160.662719 143.468558 
L 160.792607 143.497672 
L 160.922494 143.583387 
L 161.052382 143.608149 
L 161.377102 143.671147 
L 161.442046 143.565731 
L 161.506989 143.612321 
L 162.091484 143.597023 
L 162.35126 143.752631 
L 162.740923 143.591166 
L 162.870811 143.604192 
L 163.065643 143.592951 
L 163.260475 143.68001 
L 163.715082 143.485317 
L 163.909914 143.48698 
L 164.104745 143.291167 
L 164.299577 143.416224 
L 164.68924 143.342414 
L 165.01396 143.426399 
L 165.143848 143.433874 
L 165.338679 143.588479 
L 165.403623 143.458359 
L 165.468567 143.490776 
L 165.598455 143.445147 
L 165.728343 143.363555 
L 165.858231 143.477736 
L 166.118006 143.419612 
L 166.377782 143.494315 
L 166.572613 143.407817 
L 167.092165 143.648519 
L 167.416884 143.457484 
L 167.936435 143.349014 
L 168.455986 143.454352 
L 168.650818 143.364046 
L 169.560033 143.800695 
L 169.624977 143.757128 
L 169.819808 143.898341 
L 170.079584 143.839908 
L 170.209472 143.830229 
L 170.274416 143.91166 
L 170.33936 143.837142 
L 170.534191 143.853878 
L 171.118686 143.853175 
L 171.443406 143.687789 
L 171.573294 143.769262 
L 171.768125 143.906507 
L 171.962957 143.964324 
L 172.157789 143.758848 
L 172.67734 143.577949 
L 172.742284 143.636823 
L 172.872172 143.524441 
L 173.261835 143.382933 
L 173.586554 143.531911 
L 174.041162 143.514084 
L 174.365881 143.585507 
L 174.625657 143.362144 
L 174.885432 143.352476 
L 175.534871 143.406992 
L 175.729703 143.354421 
L 176.054423 143.522574 
L 176.18431 143.467996 
L 176.379142 143.599197 
L 176.50903 143.552226 
L 176.833749 143.620496 
L 176.963637 143.582441 
L 177.223413 143.742091 
L 177.483188 143.692741 
L 177.67802 143.802806 
L 178.132627 143.869176 
L 178.327459 144.003299 
L 179.756225 143.607285 
L 179.951056 143.772145 
L 180.210832 143.829368 
L 180.405664 143.708254 
L 180.600495 143.790139 
L 180.990159 143.331676 
L 181.50971 143.619181 
L 181.639598 143.662861 
L 181.704542 143.702348 
L 181.899373 143.566296 
L 182.029261 143.611864 
L 182.224093 143.706254 
L 182.353981 143.658722 
L 182.938476 143.893083 
L 183.068363 143.747025 
L 183.133307 143.815431 
L 183.782746 143.992518 
L 184.042522 143.799387 
L 184.497129 143.983798 
L 184.756905 143.941021 
L 185.01668 143.942119 
L 185.081624 143.835048 
L 185.146568 143.886254 
L 185.406344 144.069185 
L 185.601176 144.062773 
L 185.925895 144.069102 
L 186.120727 143.894204 
L 186.250614 143.882911 
L 186.380502 143.971409 
L 186.51039 143.937913 
L 187.029941 144.149344 
L 187.159829 144.110393 
L 187.354661 144.221866 
L 187.614436 144.257033 
L 187.939156 144.021971 
L 188.069044 144.067951 
L 188.263875 144.126344 
L 188.458707 144.146519 
L 188.653539 144.19395 
L 188.978258 144.199714 
L 189.17309 144.337257 
L 189.432865 144.337683 
L 189.627697 144.406426 
L 189.887473 144.476732 
L 190.34208 144.354226 
L 190.471968 144.258538 
L 190.601856 144.217042 
L 190.991519 144.071019 
L 191.576014 144.004083 
L 191.83579 143.929 
L 192.030621 143.990731 
L 192.290397 143.894702 
L 192.420285 143.905828 
L 192.68006 143.845883 
L 192.874892 143.96764 
L 193.329499 143.893581 
L 193.459387 143.887295 
L 193.654219 144.079029 
L 194.17377 143.871627 
L 194.693321 143.954789 
L 194.953097 143.905383 
L 195.862311 144.06043 
L 196.057143 144.128334 
L 196.316919 144.00554 
L 196.446806 143.900008 
L 196.83647 143.623997 
L 197.550853 143.604957 
L 197.680741 143.530262 
L 197.940516 143.623287 
L 198.135348 143.609691 
L 198.395123 143.683034 
L 198.719843 143.620673 
L 199.49917 143.622593 
L 199.564114 143.496316 
L 199.629057 143.53249 
L 199.888833 143.599145 
L 200.34344 143.520646 
L 200.473328 143.5856 
L 200.66816 143.572993 
L 201.057823 143.704915 
L 201.382543 143.692658 
L 201.51243 143.717382 
L 201.707262 143.65597 
L 202.226813 143.586246 
L 202.551533 143.686901 
L 202.681421 143.656964 
L 203.00614 143.770329 
L 203.265916 143.724757 
L 203.785467 143.559812 
L 204.045243 143.473555 
L 204.17513 143.494099 
L 204.629738 143.496382 
L 205.019401 143.39022 
L 205.214233 143.589496 
L 205.34412 143.433884 
L 205.538952 143.492015 
L 206.123447 143.529069 
L 206.383223 143.301428 
L 206.513111 143.280153 
L 206.83783 143.221212 
L 207.097606 143.33917 
L 207.357381 143.045054 
L 207.617157 142.948629 
L 207.941876 143.037805 
L 209.045923 142.742547 
L 209.240754 142.746479 
L 209.370642 142.640265 
L 209.760306 142.654237 
L 209.955137 142.477033 
L 210.539632 142.677359 
L 210.929296 142.520567 
L 211.513791 142.473406 
L 211.708622 142.495321 
L 212.682781 142.360397 
L 212.812669 142.333261 
L 213.072444 142.228285 
L 213.786827 142.199807 
L 213.981659 142.00582 
L 214.176491 141.978472 
L 214.371322 141.932698 
L 214.50121 141.884699 
L 215.020761 141.764807 
L 215.410425 141.533285 
L 215.605256 141.565445 
L 216.254695 141.265264 
L 216.709303 141.215581 
L 216.83919 141.268817 
L 216.969078 141.233103 
L 217.098966 141.353912 
L 217.16391 141.254953 
L 217.488629 141.182693 
L 217.683461 141.176106 
L 217.943237 141.181079 
L 218.138068 141.154449 
L 218.267956 141.109579 
L 218.462788 141.083654 
L 218.527732 141.120617 
L 218.65762 141.05086 
L 218.982339 141.052441 
L 219.177171 140.917245 
L 220.9956 140.894924 
L 221.190432 140.922061 
L 221.645039 140.828612 
L 221.839871 140.837311 
L 221.969758 140.758342 
L 222.099646 140.74907 
L 222.359422 140.563514 
L 222.814029 140.667609 
L 223.073805 140.471798 
L 223.398524 140.442537 
L 223.528412 140.366698 
L 223.723244 140.371795 
L 223.918075 140.299885 
L 224.112907 140.269349 
L 224.437626 139.955938 
L 225.022122 139.957849 
L 225.281897 139.96219 
L 225.476729 139.991603 
L 225.736504 140.028082 
L 226.061224 139.91552 
L 226.450887 139.920002 
L 228.399204 139.873278 
L 228.983699 139.883407 
L 229.568194 139.817415 
L 229.763026 139.889182 
L 229.892914 139.869359 
L 230.087746 139.89734 
L 230.542353 139.814623 
L 230.802128 139.834218 
L 230.99696 139.79994 
L 231.126848 139.860863 
L 231.32168 139.761461 
L 232.230894 139.982403 
L 232.360782 139.98518 
L 232.685501 140.147847 
L 232.945277 140.052408 
L 233.33494 140.15447 
L 233.464828 140.16779 
L 233.724604 140.212152 
L 233.854492 140.228772 
L 234.179211 140.233403 
L 234.309099 140.2501 
L 234.633818 140.387985 
L 234.893594 140.35482 
L 235.15337 140.441361 
L 235.413145 140.469106 
L 235.607977 140.374884 
L 236.192472 140.421431 
L 236.647079 140.521225 
L 238.010901 140.354001 
L 238.270677 140.306693 
L 238.530452 140.254719 
L 238.855172 140.336185 
L 239.179891 140.361988 
L 239.374723 140.443857 
L 239.569555 140.395446 
L 240.089106 140.389478 
L 240.218994 140.344574 
L 240.478769 140.493791 
L 240.738545 140.520711 
L 240.99832 140.552936 
L 241.32304 140.482087 
L 241.452928 140.490796 
L 241.647759 140.488973 
L 242.167311 140.584905 
L 242.297198 140.603213 
L 242.49203 140.537455 
L 242.686862 140.551056 
L 243.336301 140.576629 
L 243.531132 140.597267 
L 244.050684 140.499842 
L 244.310459 140.586142 
L 245.089786 140.485184 
L 245.284618 140.533674 
L 246.258776 140.61999 
L 246.518552 140.573433 
L 246.778327 140.606061 
L 247.103047 140.483583 
L 247.297878 140.493508 
L 247.49271 140.371255 
L 249.116308 140.407698 
L 249.246195 140.386309 
L 249.441027 140.415284 
L 249.830691 140.471874 
L 250.15541 140.462673 
L 250.545073 140.358385 
L 251.3244 140.353588 
L 251.519232 140.40868 
L 251.779007 140.356745 
L 252.038783 140.354871 
L 252.233615 140.265818 
L 253.142829 140.370886 
L 253.597437 140.355086 
L 253.922156 140.411796 
L 254.571595 140.338978 
L 255.15609 140.422625 
L 255.285978 140.436265 
L 255.48081 140.460372 
L 255.675641 140.330945 
L 257.559014 140.467597 
L 257.81879 140.422034 
L 258.338341 140.430113 
L 259.247556 140.374914 
L 259.377443 140.40347 
L 260.091826 140.49851 
L 260.286658 140.47185 
L 260.741265 140.617302 
L 261.975199 140.584847 
L 262.105087 140.545492 
L 262.234975 140.594891 
L 262.559694 140.592513 
L 262.949358 140.652403 
L 263.14419 140.656119 
L 263.403965 140.600892 
L 264.31318 140.385338 
L 264.572955 140.421705 
L 264.897675 140.351196 
L 266.910936 140.217615 
L 267.300599 140.185088 
L 267.950038 140.314548 
L 268.924196 140.267126 
L 269.898355 140.129022 
L 270.028243 140.131199 
L 270.677682 140.080887 
L 271.457008 139.942438 
L 271.65184 139.883204 
L 272.041504 139.800347 
L 272.366223 139.766256 
L 272.82083 139.764166 
L 273.924877 139.524252 
L 274.249596 139.548915 
L 274.444428 139.563596 
L 274.704203 139.615865 
L 274.963979 139.690294 
L 275.223755 139.734636 
L 275.938137 139.623743 
L 276.457689 139.614303 
L 276.65252 139.624222 
L 276.912296 139.640529 
L 277.172072 139.675733 
L 277.496791 139.579123 
L 277.951398 139.561438 
L 278.406006 139.430649 
L 278.730725 139.404788 
L 279.31522 139.499652 
L 280.289379 139.448802 
L 280.80893 139.447504 
L 281.328481 139.569892 
L 281.588257 139.645502 
L 281.718144 139.653773 
L 281.97792 139.578808 
L 282.302639 139.562946 
L 282.757247 139.660606 
L 283.276798 139.605956 
L 283.731405 139.701381 
L 283.991181 139.75429 
L 284.770508 139.611527 
L 285.225115 139.641537 
L 285.48489 139.708506 
L 285.80961 139.720439 
L 286.653881 139.876847 
L 287.043544 139.896307 
L 287.498151 139.889901 
L 288.017702 139.937227 
L 288.342422 139.906871 
L 288.797029 140.032626 
L 289.251637 139.860212 
L 291.524673 140.020325 
L 291.914336 139.991982 
L 292.174112 140.006014 
L 292.953439 139.909116 
L 294.122429 139.799199 
L 294.512092 139.720895 
L 294.771868 139.711486 
L 295.681082 139.809458 
L 296.005802 139.820833 
L 298.278838 139.891548 
L 298.668502 139.903715 
L 298.928277 139.925796 
L 299.772548 139.805803 
L 300.292099 139.789587 
L 300.941538 139.733205 
L 301.915697 139.692828 
L 303.928957 139.554332 
L 304.188733 139.493495 
L 308.539974 138.787767 
L 309.449189 138.728271 
L 309.64402 138.705839 
L 310.358403 138.648666 
L 311.007842 138.649106 
L 312.046945 138.699896 
L 312.63144 138.809563 
L 312.891215 138.789947 
L 313.215935 138.856634 
L 315.943579 138.748692 
L 316.333242 138.735993 
L 317.3074 138.583761 
L 317.697064 138.472063 
L 318.281559 138.506575 
L 318.541334 138.479265 
L 318.995942 138.432066 
L 319.645381 138.447909 
L 319.9701 138.433844 
L 320.164932 138.412829 
L 320.619539 138.366014 
L 321.074146 138.315203 
L 321.723585 138.330272 
L 321.983361 138.323144 
L 322.243137 138.324114 
L 322.567856 138.37722 
L 324.321341 138.357745 
L 324.775949 138.340004 
L 325.2955 138.312596 
L 326.204714 138.432675 
L 326.399546 138.403892 
L 327.763368 138.452939 
L 328.023144 138.498308 
L 328.282919 138.493453 
L 328.932358 138.580539 
L 329.257078 138.575814 
L 329.776629 138.652504 
L 330.29618 138.691882 
L 330.555956 138.661803 
L 331.335282 138.670257 
L 331.530114 138.63999 
L 331.919777 138.648687 
L 336.206075 138.926178 
L 336.595738 139.031506 
L 336.855514 139.064253 
L 337.245177 139.110547 
L 337.63484 139.125144 
L 338.154392 139.124581 
L 339.583157 139.085128 
L 340.817091 139.092498 
L 341.206755 139.107245 
L 341.726306 139.076761 
L 341.986082 139.131992 
L 342.440689 139.175738 
L 342.765408 139.113813 
L 343.479791 139.145403 
L 343.804511 139.128403 
L 344.12923 139.128131 
L 344.324062 139.126282 
L 344.713725 139.123395 
L 345.038445 139.128741 
L 345.29822 139.068771 
L 345.557996 139.124093 
L 347.831032 139.282038 
L 348.155752 139.313365 
L 348.480471 139.335269 
L 348.870135 139.393889 
L 350.104069 139.453384 
L 350.363844 139.458783 
L 350.753508 139.434055 
L 351.532835 139.442297 
L 351.79261 139.410301 
L 352.11733 139.442486 
L 352.766769 139.468533 
L 353.091488 139.5267 
L 353.351264 139.514122 
L 354.909917 139.601612 
L 355.234637 139.566284 
L 355.819132 139.590004 
L 356.403627 139.515749 
L 359.845653 139.237242 
L 360.170373 139.218499 
L 360.430149 139.142169 
L 361.534195 139.248971 
L 361.79397 139.29877 
L 362.833073 139.416559 
L 363.28768 139.405318 
L 363.872175 139.453384 
L 364.326782 139.414145 
L 364.976221 139.385475 
L 365.430829 139.426044 
L 366.015324 139.354662 
L 366.664763 139.467458 
L 367.314202 139.405165 
L 367.638921 139.462311 
L 368.223416 139.582336 
L 369.067687 139.548516 
L 369.587238 139.692164 
L 369.911958 139.725313 
L 372.704545 139.855391 
L 372.899377 139.866809 
L 379.588598 139.444097 
L 380.043206 139.560016 
L 380.627701 139.590314 
L 381.017364 139.529853 
L 381.212196 139.549231 
L 381.471971 139.480884 
L 382.381186 139.558652 
L 383.030625 139.583164 
L 383.550176 139.614446 
L 383.93984 139.593442 
L 386.797371 139.540324 
L 387.187034 139.511029 
L 388.356025 139.416416 
L 388.680744 139.350708 
L 393.031985 139.014093 
L 393.486593 139.054462 
L 394.395807 139.028868 
L 394.785471 139.04612 
L 398.487273 138.820124 
L 398.487273 138.820124 
" clip-path="url(#p7121ba7701)" style="fill: none; stroke-dasharray: 2,3.3; stroke-dashoffset: 0; stroke: #0000ff; stroke-width: 2"/>
   </g>
   <g id="line2d_17">
    <path d="M 73.832727 295.488 
L 73.897671 294.190091 
L 74.027559 254.516 
L 74.157447 255.045377 
L 74.482166 235.701836 
L 74.676998 219.01513 
L 74.806886 227.75447 
L 74.87183 224.256411 
L 74.936774 223.838488 
L 75.066661 218.473501 
L 75.196549 221.700824 
L 75.261493 220.287316 
L 75.326437 222.070802 
L 75.586213 209.049763 
L 75.651156 209.731325 
L 75.845988 206.799277 
L 75.975876 198.598961 
L 76.04082 198.81018 
L 76.105764 198.313087 
L 76.430483 184.198491 
L 76.560371 181.496946 
L 76.625315 179.076528 
L 76.690259 180.95169 
L 76.88509 178.572325 
L 76.950034 178.826394 
L 77.014978 180.090812 
L 77.339698 172.017823 
L 77.534529 177.281985 
L 77.794305 171.131873 
L 77.859249 173.09234 
L 78.054081 168.576219 
L 78.183968 171.08647 
L 78.313856 167.962268 
L 78.3788 168.020371 
L 78.443744 167.474901 
L 78.573632 162.070489 
L 78.638576 163.144551 
L 78.768464 160.794456 
L 78.833407 162.028169 
L 78.898351 161.834443 
L 79.093183 159.337413 
L 79.158127 160.075413 
L 79.223071 157.69552 
L 79.288015 158.515501 
L 79.352959 159.626691 
L 79.612734 156.329801 
L 79.677678 156.255214 
L 79.742622 153.107758 
L 79.807566 154.06268 
L 79.87251 153.812752 
L 80.002398 152.868328 
L 80.197229 153.985566 
L 80.262173 153.66856 
L 80.327117 151.16653 
L 80.392061 151.491646 
L 80.457005 151.363308 
L 80.651837 147.957219 
L 80.71678 148.36306 
L 80.781724 149.48956 
L 80.846668 149.077499 
L 80.911612 149.125592 
L 81.0415 150.517781 
L 81.106444 150.305221 
L 81.171388 151.43014 
L 81.236332 150.877981 
L 81.301276 150.753825 
L 81.366219 150.320203 
L 81.431163 151.30676 
L 81.496107 150.848983 
L 81.820827 146.235602 
L 81.885771 145.826931 
L 82.080602 147.652724 
L 82.340378 144.814822 
L 82.470266 143.5334 
L 82.859929 139.762977 
L 82.924873 140.47302 
L 82.989817 140.633126 
L 83.054761 141.334488 
L 83.119705 141.028486 
L 83.184649 140.929467 
L 83.37948 141.950674 
L 83.509368 140.123298 
L 83.574312 139.790992 
L 83.639256 140.434027 
L 83.769144 138.23223 
L 83.899031 139.673246 
L 84.028919 138.238306 
L 84.223751 136.603911 
L 84.288695 137.291949 
L 84.418583 136.080125 
L 84.483527 136.034769 
L 84.54847 135.246461 
L 84.613414 135.801807 
L 84.808246 134.915504 
L 84.938134 134.361468 
L 85.068022 134.946148 
L 85.132966 134.630938 
L 85.197909 133.51869 
L 85.262853 133.979884 
L 85.327797 133.896749 
L 85.587573 135.780844 
L 85.717461 133.622198 
L 85.782404 134.187029 
L 85.912292 132.844691 
L 85.977236 133.563148 
L 86.04218 132.652 
L 86.107124 132.803714 
L 86.172068 132.530898 
L 86.3669 130.962701 
L 86.431843 130.421022 
L 86.496787 130.939227 
L 86.561731 130.668514 
L 86.626675 130.907062 
L 86.691619 130.106869 
L 86.756563 130.244224 
L 86.821507 130.293325 
L 87.016339 129.7703 
L 87.081282 129.88472 
L 87.21117 128.521098 
L 87.276114 128.824783 
L 87.341058 127.896525 
L 87.406002 128.363455 
L 87.470946 128.17465 
L 87.665778 126.501939 
L 87.730721 126.867489 
L 87.795665 126.609223 
L 87.860609 125.743947 
L 87.925553 125.882278 
L 87.990497 125.925312 
L 88.38016 122.543432 
L 88.445104 122.28218 
L 88.510048 122.344436 
L 88.639936 123.199699 
L 88.70488 122.940277 
L 88.769824 122.770159 
L 88.834768 122.930858 
L 88.899712 122.391914 
L 88.964655 122.545233 
L 89.029599 122.532326 
L 89.224431 122.933535 
L 89.419263 121.814136 
L 89.484207 122.07844 
L 89.549151 121.763039 
L 89.614094 121.815233 
L 89.679038 121.720739 
L 89.808926 120.131499 
L 89.938814 120.570813 
L 90.068702 119.37167 
L 90.133646 119.470926 
L 90.19859 119.728529 
L 90.393421 118.12787 
L 90.523309 118.397853 
L 90.588253 118.549607 
L 90.653197 118.338649 
L 90.718141 118.60661 
L 90.848029 117.80915 
L 90.977916 118.048894 
L 91.172748 117.547226 
L 91.36758 117.999404 
L 91.497467 116.676396 
L 91.562411 117.036286 
L 91.627355 116.577837 
L 91.692299 116.598851 
L 91.757243 117.111155 
L 91.822187 116.889626 
L 91.887131 117.061282 
L 92.017019 117.991114 
L 92.21185 116.350729 
L 92.471626 117.077393 
L 92.666458 115.825993 
L 92.861289 114.943309 
L 93.121065 115.847484 
L 93.186009 115.688757 
L 93.250953 115.234254 
L 93.380841 115.776904 
L 94.160167 112.649473 
L 94.225111 113.153609 
L 94.290055 113.028933 
L 94.419943 113.065792 
L 94.679718 111.309908 
L 94.809606 111.289688 
L 95.004438 110.087746 
L 95.19927 109.771663 
L 95.264214 110.133546 
L 95.329157 109.787262 
L 95.394101 109.803458 
L 95.588933 110.441263 
L 95.783765 109.425592 
L 95.913653 109.945229 
L 96.238372 108.355604 
L 96.303316 108.355343 
L 96.36826 108.548408 
L 96.433204 108.288921 
L 96.563092 109.169025 
L 96.887811 107.161912 
L 97.147587 106.337702 
L 97.212531 106.441832 
L 97.342418 106.598612 
L 97.407362 106.581507 
L 97.472306 106.204536 
L 97.53725 106.374899 
L 97.602194 106.113893 
L 97.667138 106.333313 
L 97.732082 105.682343 
L 97.797026 105.786504 
L 97.861969 105.698071 
L 97.926913 105.315845 
L 97.991857 105.486185 
L 98.056801 105.3912 
L 98.121745 105.029595 
L 98.186689 105.167577 
L 98.251633 105.231205 
L 98.316577 105.013442 
L 98.381521 105.287813 
L 98.576352 104.36475 
L 98.641296 104.348384 
L 98.70624 104.745422 
L 98.771184 104.557948 
L 98.836128 104.592887 
L 98.901072 104.783911 
L 99.03096 104.016367 
L 99.225791 104.314365 
L 99.420623 103.27001 
L 99.485567 103.183939 
L 99.550511 103.444036 
L 99.810286 101.825027 
L 100.005118 102.186005 
L 100.264894 100.766962 
L 100.329838 100.669462 
L 100.394782 100.744524 
L 100.459725 100.791248 
L 100.654557 100.186791 
L 100.784445 99.521322 
L 101.04422 99.425339 
L 101.303996 99.964212 
L 101.563772 99.492869 
L 101.758603 98.969691 
L 101.888491 99.008127 
L 101.953435 99.113612 
L 102.148267 97.801952 
L 102.213211 97.73389 
L 102.408042 96.9986 
L 102.53793 96.927412 
L 102.667818 97.125626 
L 102.797706 96.497992 
L 102.86265 96.669044 
L 102.927594 96.670229 
L 102.992537 97.074327 
L 103.057481 96.852411 
L 103.122425 96.97549 
L 103.187369 96.616419 
L 103.252313 96.684705 
L 103.382201 96.872017 
L 103.577032 96.050448 
L 103.641976 96.31286 
L 103.70692 96.189414 
L 103.836808 96.649736 
L 103.901752 96.444475 
L 103.966696 96.406276 
L 104.161528 95.641644 
L 104.486247 94.608632 
L 104.616135 95.011559 
L 104.810967 94.536959 
L 104.940854 94.598277 
L 105.135686 93.703827 
L 105.20063 93.758487 
L 105.330518 94.017056 
L 105.395462 93.7127 
L 105.460406 93.728821 
L 105.525349 93.93959 
L 105.590293 93.782979 
L 105.720181 93.891097 
L 105.850069 94.38095 
L 105.915013 94.128405 
L 105.979957 94.177896 
L 106.304676 93.700447 
L 106.36962 93.960161 
L 106.499508 93.019965 
L 106.564452 93.13841 
L 106.629396 93.048815 
L 106.824227 93.162661 
L 107.019059 92.612723 
L 107.084003 92.814256 
L 107.148947 92.647199 
L 107.343779 91.72885 
L 107.408722 91.693003 
L 107.603554 92.141903 
L 107.668498 92.084983 
L 107.798386 91.734065 
L 107.86333 91.902521 
L 107.928274 91.833285 
L 107.993218 91.836263 
L 108.123105 92.094486 
L 108.188049 92.160824 
L 108.447825 91.3843 
L 108.512769 91.457265 
L 108.577713 91.444217 
L 108.642657 91.283609 
L 108.7076 91.391859 
L 108.837488 91.62993 
L 108.902432 91.549709 
L 108.967376 91.681317 
L 109.097264 91.282008 
L 109.162208 91.453941 
L 109.292096 91.019298 
L 109.357039 91.037205 
L 109.551871 91.190274 
L 109.681759 90.540695 
L 109.746703 90.564567 
L 109.941534 90.175849 
L 110.006478 90.251532 
L 110.136366 90.2859 
L 110.331198 89.756574 
L 110.461086 90.024775 
L 110.655917 89.600384 
L 110.720861 89.603046 
L 110.915693 89.121534 
L 110.980637 89.274367 
L 111.240412 88.822747 
L 111.565132 89.484666 
L 111.759964 89.35405 
L 111.954795 88.60566 
L 112.214571 88.000469 
L 112.279515 87.940627 
L 112.409403 87.598023 
L 112.474347 87.786933 
L 112.604234 87.266576 
L 112.669178 87.288214 
L 112.86401 87.480111 
L 112.993898 87.339964 
L 113.058842 87.395345 
L 113.188729 86.930786 
L 113.253673 87.108131 
L 113.318617 86.955328 
L 113.383561 87.03496 
L 113.448505 87.097802 
L 113.903112 85.504539 
L 114.033 85.494557 
L 114.097944 85.243102 
L 114.162888 85.262779 
L 114.227832 85.363229 
L 114.292776 85.260501 
L 114.422663 84.830618 
L 114.487607 84.950696 
L 114.682439 84.299633 
L 114.747383 84.462861 
L 114.877271 84.635197 
L 114.942215 84.420723 
L 115.007159 84.465557 
L 115.20199 84.375805 
L 115.331878 84.774478 
L 115.52671 84.022014 
L 115.656598 84.141241 
L 115.851429 83.875632 
L 115.916373 84.012352 
L 115.981317 83.932746 
L 116.111205 83.401722 
L 116.176149 83.423797 
L 116.306036 83.624212 
L 116.37098 83.521898 
L 116.500868 83.175634 
L 116.565812 83.305697 
L 116.6957 83.124221 
L 116.825588 83.119897 
L 116.890532 83.122028 
L 116.955475 83.266769 
L 117.280195 82.519786 
L 117.539971 82.619848 
L 117.734802 82.439937 
L 117.86469 82.515785 
L 117.994578 82.358282 
L 118.18941 81.658657 
L 118.384241 81.688789 
L 118.579073 81.251168 
L 118.773905 81.258873 
L 118.903792 81.589152 
L 119.098624 80.796184 
L 119.163568 80.865291 
L 119.488287 80.180732 
L 119.553231 80.361176 
L 119.618175 80.33383 
L 119.877951 80.38625 
L 119.942895 80.634505 
L 120.007839 80.453972 
L 120.397502 79.684545 
L 120.462446 79.582912 
L 120.52739 79.651268 
L 120.657278 79.784656 
L 120.722222 79.628893 
L 120.787165 79.757715 
L 120.852109 79.736351 
L 121.111885 80.397749 
L 121.176829 80.425459 
L 121.306717 80.756751 
L 121.371661 80.696657 
L 121.501548 80.945936 
L 121.566492 80.873225 
L 121.631436 80.712353 
L 121.69638 80.817462 
L 121.761324 80.831044 
L 122.150987 79.81545 
L 122.215931 79.922241 
L 122.345819 79.596861 
L 122.605595 79.928463 
L 123.19009 79.847168 
L 123.384921 80.281429 
L 123.514809 80.249776 
L 123.709641 80.124118 
L 123.774585 80.155151 
L 123.839529 79.91575 
L 123.904473 80.092744 
L 123.969416 80.159013 
L 124.03436 80.435997 
L 124.099304 80.386087 
L 124.164248 80.390551 
L 124.294136 79.951761 
L 124.35908 80.078297 
L 124.424024 80.021042 
L 124.488968 79.768437 
L 124.553912 80.020512 
L 124.618855 79.846143 
L 124.813687 79.369985 
L 124.878631 79.532318 
L 124.943575 79.406041 
L 125.073463 79.501486 
L 125.20335 79.181574 
L 125.333238 79.409911 
L 125.463126 79.333169 
L 125.593014 79.184729 
L 125.917733 78.591111 
L 126.047621 78.673368 
L 126.177509 78.537628 
L 126.307397 78.187724 
L 126.372341 78.21556 
L 126.437285 78.004789 
L 126.567172 78.237857 
L 126.826948 77.809442 
L 126.956836 77.96501 
L 127.086724 77.972497 
L 127.281555 77.962895 
L 127.346499 77.818159 
L 127.411443 77.860436 
L 127.476387 78.0349 
L 127.541331 77.97709 
L 127.736163 77.619452 
L 127.801106 77.501034 
L 127.995938 77.729473 
L 128.125826 77.270543 
L 128.19077 77.318302 
L 128.255714 77.513948 
L 128.320658 77.479593 
L 128.385601 77.44174 
L 128.580433 77.712888 
L 128.645377 77.664015 
L 128.840209 77.38961 
L 129.099984 77.117151 
L 129.35976 76.392233 
L 129.489648 76.610547 
L 129.554592 76.396374 
L 129.619536 76.496697 
L 129.814367 76.241484 
L 129.944255 76.319121 
L 130.788526 75.897518 
L 130.85347 75.987093 
L 130.918414 75.90338 
L 131.113245 75.504239 
L 131.243133 75.427025 
L 131.502909 74.909892 
L 131.567852 75.0054 
L 131.632796 74.931241 
L 131.892572 75.211055 
L 132.087404 75.078816 
L 132.152348 75.243034 
L 132.217291 75.129286 
L 132.282235 75.139933 
L 132.347179 74.940998 
L 132.412123 74.998181 
L 132.542011 74.966747 
L 132.931674 74.306482 
L 133.061562 74.405489 
L 133.126506 74.453338 
L 133.386282 74.197736 
L 133.451226 74.206999 
L 133.581113 73.820838 
L 133.646057 73.838521 
L 133.840889 74.027582 
L 133.905833 73.942191 
L 133.970777 74.005293 
L 134.100664 74.116393 
L 134.165608 73.968546 
L 134.230552 74.050954 
L 134.295496 74.111453 
L 134.555272 73.739216 
L 134.750103 73.926609 
L 134.879991 74.0296 
L 135.074823 73.880318 
L 135.139767 74.09092 
L 135.204711 73.909662 
L 135.269655 73.958953 
L 135.464486 74.046729 
L 135.594374 74.078792 
L 135.919094 74.107081 
L 135.984038 73.936724 
L 136.048981 74.024435 
L 136.178869 74.108338 
L 136.243813 74.260913 
L 136.308757 74.104744 
L 136.373701 74.186913 
L 136.633477 74.260399 
L 136.69842 74.44179 
L 136.763364 74.284726 
L 136.958196 74.512456 
L 137.02314 74.57329 
L 137.153028 74.296799 
L 137.347859 74.204364 
L 137.412803 73.929015 
L 137.477747 74.007801 
L 137.737523 73.934911 
L 138.257074 74.383612 
L 138.451906 73.95946 
L 138.51685 73.932396 
L 138.646737 73.668922 
L 138.841569 73.784271 
L 139.036401 73.696608 
L 139.231232 74.037526 
L 139.296176 73.968141 
L 139.491008 73.77671 
L 139.620896 73.651935 
L 139.750784 73.737781 
L 139.945615 74.008463 
L 140.53011 74.073877 
L 140.659998 73.854385 
L 140.724942 73.902347 
L 140.85483 73.729815 
L 140.984718 73.77305 
L 141.049662 73.732183 
L 141.114605 73.524351 
L 141.179549 73.556543 
L 141.374381 73.540128 
L 141.504269 73.721814 
L 141.634157 73.366912 
L 141.764044 73.461759 
L 141.958876 73.369615 
L 142.02382 73.415214 
L 142.153708 73.24317 
L 142.34854 73.276176 
L 142.478427 73.210338 
L 142.543371 73.070346 
L 142.608315 73.175592 
L 142.933035 73.032717 
L 142.997979 72.843943 
L 143.062922 72.886657 
L 143.127866 72.872035 
L 143.387642 73.19585 
L 143.51753 73.219466 
L 143.777305 72.756426 
L 144.037081 72.598015 
L 144.166969 72.679402 
L 144.491688 72.423897 
L 144.621576 72.590473 
L 144.68652 72.409393 
L 144.751464 72.350436 
L 144.816408 72.470973 
L 144.881352 72.333454 
L 145.141127 72.650129 
L 145.400903 72.429157 
L 145.465847 72.503775 
L 145.530791 72.442853 
L 145.595734 72.424563 
L 145.725622 72.127696 
L 145.920454 72.215439 
L 146.050342 72.103487 
L 146.245173 71.779921 
L 146.440005 71.815612 
L 146.504949 71.600998 
L 146.569893 71.65219 
L 146.699781 71.667246 
L 146.894612 71.411445 
L 147.0245 71.459749 
L 147.284276 70.773574 
L 147.414164 70.850817 
L 147.868771 70.992688 
L 148.19349 70.826301 
L 148.453266 71.16741 
L 148.583154 71.141478 
L 149.102705 70.882263 
L 149.167649 70.955082 
L 149.232593 70.870412 
L 149.297537 70.922829 
L 149.427424 70.758746 
L 149.557312 70.825298 
L 149.817088 70.861638 
L 149.946976 70.658802 
L 150.076863 70.857044 
L 150.141807 70.738458 
L 150.336639 70.505952 
L 150.466527 70.521783 
L 150.726302 70.876392 
L 150.85619 70.861163 
L 150.921134 70.666307 
L 150.986078 70.745955 
L 151.310797 70.438817 
L 151.440685 70.488715 
L 151.570573 70.228004 
L 151.635517 70.294429 
L 151.830349 70.396945 
L 151.960236 70.432248 
L 152.284956 69.712339 
L 152.609675 69.65948 
L 152.869451 69.52705 
L 153.064283 69.541083 
L 153.259114 69.59727 
L 153.324058 69.546985 
L 153.51889 69.748629 
L 153.583834 69.65573 
L 153.778666 69.835398 
L 153.908553 69.791501 
L 154.038441 69.531524 
L 154.103385 69.569285 
L 154.557992 69.073324 
L 154.752824 69.013718 
L 154.947656 69.189745 
L 155.597095 69.09766 
L 155.662039 69.176968 
L 155.726982 69.041114 
L 155.791926 69.11893 
L 155.921814 69.053607 
L 156.116646 69.251998 
L 156.18159 69.159881 
L 156.246534 69.243106 
L 156.441365 69.347458 
L 156.506309 69.19613 
L 156.571253 69.228848 
L 157.155748 69.554788 
L 157.610356 69.026166 
L 157.935075 69.147434 
L 158.129907 69.100885 
L 158.389682 69.115307 
L 158.714402 69.425784 
L 158.909233 69.298161 
L 158.974177 69.416958 
L 159.039121 69.317199 
L 159.298897 69.561707 
L 159.363841 69.47294 
L 159.428785 69.520563 
L 159.68856 69.372973 
L 159.753504 69.353118 
L 159.818448 69.479111 
L 160.01328 69.212811 
L 160.143168 69.410401 
L 160.208111 69.370718 
L 160.402943 69.456612 
L 160.467887 69.424789 
L 160.662719 69.153239 
L 160.727663 69.061428 
L 160.792607 69.127765 
L 160.85755 69.180275 
L 160.922494 68.982497 
L 160.987438 69.051602 
L 161.117326 69.00961 
L 161.312158 69.158244 
L 161.506989 69.289465 
L 161.766765 69.320512 
L 162.091484 68.841575 
L 162.156428 68.855241 
L 162.286316 68.721204 
L 162.481148 68.7894 
L 162.611036 68.507779 
L 163.52025 69.095949 
L 163.84497 68.598095 
L 164.169689 68.7406 
L 164.364521 68.446795 
L 164.949016 68.650386 
L 165.01396 68.591055 
L 165.078904 68.67899 
L 165.273735 68.671547 
L 165.403623 68.623905 
L 165.468567 68.498576 
L 165.533511 68.572399 
L 165.793287 68.579227 
L 165.858231 68.469494 
L 165.923174 68.511003 
L 166.118006 68.735164 
L 166.377782 68.771836 
L 166.50767 68.611369 
L 166.702501 68.527496 
L 167.092165 68.181966 
L 167.157109 68.267135 
L 167.222052 68.200505 
L 167.416884 68.373266 
L 167.546772 68.503931 
L 167.741604 68.295204 
L 167.806547 68.44441 
L 167.871491 68.375933 
L 167.936435 68.394424 
L 168.131267 68.177037 
L 168.196211 68.288774 
L 168.261155 68.239637 
L 168.391043 68.202829 
L 168.52093 68.156264 
L 168.650818 68.277569 
L 169.624977 67.804991 
L 169.819808 67.817502 
L 169.949696 67.735929 
L 170.079584 67.729139 
L 170.33936 67.359323 
L 170.534191 67.489021 
L 171.18363 67.448956 
L 171.638237 67.169633 
L 171.833069 67.298909 
L 172.157789 67.307136 
L 172.287676 67.39801 
L 172.807228 67.207153 
L 173.196891 67.238924 
L 173.326779 67.094154 
L 173.456667 67.017007 
L 173.651498 66.969904 
L 174.171049 66.998688 
L 174.430825 67.00116 
L 174.690601 67.083106 
L 174.885432 67.198054 
L 175.01532 67.154016 
L 175.080264 67.238018 
L 175.145208 67.168515 
L 175.729703 67.270355 
L 175.859591 67.098502 
L 176.119366 66.803932 
L 176.314198 66.668788 
L 176.444086 66.576738 
L 176.573974 66.703823 
L 176.703861 66.758306 
L 177.3533 66.828121 
L 177.483188 66.663823 
L 177.548132 66.813191 
L 177.613076 66.737674 
L 177.807908 66.751481 
L 177.872852 66.794444 
L 177.937796 66.687624 
L 178.002739 66.733446 
L 178.067683 66.764534 
L 178.262515 66.592128 
L 178.327459 66.635367 
L 178.522291 66.530461 
L 178.717122 66.746293 
L 179.041842 66.928187 
L 179.366561 66.67532 
L 179.496449 66.868719 
L 179.626337 66.745978 
L 179.691281 66.767218 
L 179.886112 66.507314 
L 180.080944 66.252189 
L 180.34072 66.226815 
L 180.470608 66.232198 
L 180.535551 66.122687 
L 180.600495 66.184262 
L 180.665439 66.266059 
L 180.730383 66.205994 
L 180.925215 66.318178 
L 181.120047 66.039102 
L 181.18499 66.069399 
L 181.249934 65.967972 
L 181.314878 66.018527 
L 181.50971 65.973377 
L 181.704542 65.732475 
L 182.224093 65.921766 
L 182.418925 65.961843 
L 182.613756 65.711697 
L 182.743644 65.727399 
L 183.133307 65.548754 
L 183.328139 65.608232 
L 183.522971 65.543181 
L 183.717802 65.543653 
L 184.042522 65.429689 
L 184.107466 65.45978 
L 184.237354 65.382822 
L 184.367241 65.389654 
L 184.432185 65.299343 
L 184.497129 65.370574 
L 184.627017 65.358958 
L 184.821849 65.229336 
L 185.01668 65.362365 
L 185.146568 65.375694 
L 185.276456 65.357971 
L 185.925895 65.258178 
L 186.055783 65.380423 
L 186.380502 65.312566 
L 186.575334 65.1705 
L 186.705222 65.304113 
L 186.770166 65.240029 
L 186.900053 65.267299 
L 187.289717 65.406543 
L 187.614436 65.136397 
L 187.67938 65.220271 
L 187.809268 65.129298 
L 187.939156 65.109883 
L 188.133988 65.003924 
L 188.393763 65.116248 
L 188.523651 65.056118 
L 188.653539 65.149896 
L 189.043202 65.06792 
L 189.17309 64.87092 
L 189.238034 64.952855 
L 189.627697 65.192225 
L 190.277136 64.804836 
L 190.407024 64.863548 
L 190.6668 64.597402 
L 190.861631 64.70413 
L 191.056463 64.433479 
L 191.381182 64.574821 
L 191.83579 64.13087 
L 192.290397 64.176751 
L 192.355341 64.048035 
L 192.420285 64.110099 
L 192.550173 64.131106 
L 193.069724 64.450194 
L 193.134668 64.472974 
L 193.199612 64.301975 
L 193.264555 64.341124 
L 193.394443 64.228027 
L 193.459387 64.076491 
L 193.524331 64.163032 
L 193.978938 64.312463 
L 194.17377 64.176759 
L 194.303658 64.199562 
L 194.368602 64.090209 
L 194.433546 64.160949 
L 194.888153 64.296185 
L 195.472648 64.380541 
L 195.862311 64.307528 
L 195.927255 64.391957 
L 195.992199 64.298114 
L 196.187031 64.258213 
L 196.446806 64.330281 
L 196.51175 64.398522 
L 196.706582 64.266518 
L 197.485909 64.017829 
L 197.680741 63.717286 
L 197.810628 63.81419 
L 197.940516 63.84797 
L 198.00546 63.896839 
L 198.070404 63.777453 
L 198.135348 63.839289 
L 198.265236 63.873668 
L 198.395123 63.789638 
L 198.589955 63.863731 
L 198.784787 63.91304 
L 198.849731 63.993237 
L 198.914675 63.902047 
L 199.109506 63.788251 
L 199.304338 63.860114 
L 199.434226 63.875233 
L 199.629057 63.986082 
L 200.083665 63.758435 
L 200.278496 63.531376 
L 200.408384 63.61094 
L 200.66816 63.504287 
L 200.862992 63.628036 
L 201.967038 63.830315 
L 202.031982 63.910536 
L 202.226813 63.789469 
L 202.551533 63.552902 
L 202.616477 63.569857 
L 202.811308 63.409552 
L 203.071084 63.338848 
L 203.525691 63.240406 
L 203.590635 63.243412 
L 203.655579 63.126962 
L 203.720523 63.172332 
L 203.980299 63.128435 
L 204.305018 63.033008 
L 204.629738 62.947122 
L 204.824569 63.083834 
L 205.019401 62.845054 
L 205.084345 62.893874 
L 205.409064 62.747379 
L 205.603896 62.820704 
L 205.798728 62.880698 
L 206.383223 62.641292 
L 206.513111 62.759742 
L 206.642998 62.72126 
L 206.967718 62.806259 
L 207.097606 62.68032 
L 207.811989 62.744279 
L 208.071764 62.710272 
L 208.201652 62.804714 
L 208.33154 62.721432 
L 209.045923 62.812824 
L 209.110867 62.754355 
L 209.17581 62.839513 
L 209.630418 62.670206 
L 210.085025 62.758633 
L 210.214913 62.705221 
L 210.539632 62.742123 
L 210.799408 62.621443 
L 211.189071 62.528904 
L 211.383903 62.219551 
L 211.578735 62.21464 
L 211.83851 62.138815 
L 211.968398 62.170493 
L 212.098286 62.161444 
L 212.358061 62.046495 
L 212.552893 62.122984 
L 212.747725 62.083069 
L 212.877613 62.075187 
L 213.137388 62.033034 
L 213.33222 62.035222 
L 213.462108 61.955184 
L 213.721883 61.934435 
L 213.786827 61.79593 
L 213.851771 61.855819 
L 214.241434 61.79822 
L 214.306378 61.721033 
L 214.371322 61.777648 
L 214.566154 61.76946 
L 214.82593 61.765886 
L 214.890873 61.692649 
L 214.955817 61.770341 
L 215.280537 61.592638 
L 215.605256 61.41099 
L 215.735144 61.473621 
L 215.865032 61.415343 
L 216.254695 61.659349 
L 216.709303 61.378074 
L 216.83919 61.427423 
L 216.904134 61.495376 
L 216.969078 61.433232 
L 217.098966 61.340621 
L 217.293798 61.123724 
L 217.423685 61.159221 
L 217.943237 61.091404 
L 218.073124 61.140976 
L 218.138068 61.177668 
L 218.3329 61.037885 
L 218.527732 61.050698 
L 218.787507 60.91733 
L 218.917395 60.96874 
L 219.112227 60.930954 
L 219.372002 60.903384 
L 219.761666 60.656413 
L 222.099646 60.719366 
L 222.554253 60.631508 
L 222.878973 60.70862 
L 223.073805 60.60777 
L 223.203692 60.570745 
L 223.398524 60.659196 
L 223.528412 60.682287 
L 223.853131 60.618597 
L 224.307739 60.560652 
L 225.087065 60.636144 
L 225.346841 60.748365 
L 226.710663 60.447527 
L 226.970438 60.582118 
L 227.16527 60.494755 
L 227.48999 60.492682 
L 227.814709 60.575082 
L 228.269316 60.614874 
L 228.464148 60.682368 
L 228.788868 60.664492 
L 228.918755 60.599278 
L 229.048643 60.644334 
L 229.243475 60.653089 
L 229.438307 60.652868 
L 229.763026 60.5429 
L 229.892914 60.574684 
L 230.347521 60.474065 
L 230.477409 60.411916 
L 230.672241 60.512312 
L 231.061904 60.187933 
L 231.581455 60.347293 
L 231.776287 60.226378 
L 231.906175 60.135873 
L 232.555614 60.121224 
L 232.815389 60.251609 
L 233.205053 60.174871 
L 233.399884 60.278881 
L 233.65966 60.410404 
L 233.789548 60.414562 
L 234.179211 60.472451 
L 234.438987 60.442839 
L 235.802809 60.512822 
L 235.99764 60.439416 
L 236.452248 60.604973 
L 237.49135 60.667973 
L 237.751125 60.553693 
L 238.010901 60.38528 
L 238.530452 60.31307 
L 238.920116 60.46365 
L 238.98506 60.332786 
L 239.050003 60.391806 
L 239.309779 60.362287 
L 239.504611 60.276349 
L 240.218994 60.141326 
L 240.608657 60.158267 
L 240.868433 59.913206 
L 241.452928 60.150736 
L 241.712703 60.020978 
L 243.336301 59.952955 
L 243.531132 59.937268 
L 243.790908 59.965906 
L 244.505291 59.961748 
L 244.700123 60.005104 
L 245.219674 59.839393 
L 245.414505 59.916278 
L 245.609337 59.84652 
L 245.934057 59.957704 
L 246.583496 59.823072 
L 246.778327 59.788232 
L 246.908215 59.74058 
L 247.167991 59.729629 
L 247.687542 59.733442 
L 247.947317 59.766838 
L 248.142149 59.635163 
L 249.116308 59.623744 
L 249.376083 59.740717 
L 249.505971 59.750492 
L 250.999681 59.401887 
L 251.064625 59.484548 
L 251.129568 59.424429 
L 252.168671 59.244021 
L 252.81811 59.359971 
L 253.142829 59.185985 
L 253.9871 59.244382 
L 254.246876 59.161458 
L 254.441707 59.203116 
L 255.221034 58.997228 
L 255.350922 59.045815 
L 255.545754 58.933894 
L 256.000361 59.070034 
L 256.32508 59.0358 
L 256.6498 59.103843 
L 257.234295 59.02266 
L 257.688902 59.17202 
L 258.143509 59.23357 
L 258.338341 59.228388 
L 258.792948 58.960424 
L 258.922836 58.964558 
L 259.117668 59.03718 
L 259.3125 59.002302 
L 259.702163 58.999074 
L 260.286658 58.925463 
L 260.416546 58.892113 
L 260.611378 58.955988 
L 261.390704 58.866151 
L 261.520592 58.876474 
L 261.845312 58.752594 
L 262.105087 58.776644 
L 262.234975 58.723123 
L 262.559694 58.883982 
L 262.884414 58.880702 
L 263.014302 58.769765 
L 263.209133 58.828238 
L 263.533853 58.861498 
L 263.793629 58.67503 
L 264.183292 58.612385 
L 264.31318 58.668426 
L 264.443068 58.636161 
L 264.897675 58.641408 
L 265.092507 58.612403 
L 265.287338 58.602924 
L 265.417226 58.590858 
L 265.741945 58.554738 
L 266.001721 58.358201 
L 266.586216 58.270883 
L 267.950038 58.217826 
L 268.339701 58.389387 
L 268.599477 58.361521 
L 268.98914 58.446525 
L 269.443748 58.196947 
L 269.638579 58.139847 
L 269.833411 58.120136 
L 269.963299 58.128371 
L 270.288018 58.224514 
L 270.612738 58.200807 
L 270.872513 58.274085 
L 271.197233 58.214708 
L 271.586896 57.935148 
L 271.716784 57.963514 
L 272.236335 58.000954 
L 272.431167 57.905903 
L 272.690943 57.787123 
L 272.950718 57.845971 
L 273.080606 57.782867 
L 273.340382 57.734284 
L 273.535213 57.720167 
L 273.859933 57.854211 
L 274.379484 57.618266 
L 274.639259 57.718766 
L 275.48353 57.832532 
L 275.678362 57.797694 
L 275.938137 57.780214 
L 276.132969 57.756294 
L 278.081286 57.686436 
L 278.341062 57.55338 
L 278.535893 57.567335 
L 279.250276 57.560654 
L 279.380164 57.562057 
L 279.63994 57.545723 
L 280.029603 57.578192 
L 280.354323 57.741148 
L 280.549154 57.750752 
L 281.003761 57.662047 
L 281.393425 57.883132 
L 281.588257 57.829231 
L 282.107808 57.775873 
L 282.302639 57.840621 
L 282.497471 57.743665 
L 283.081966 57.734991 
L 283.926237 57.560799 
L 284.250956 57.625921 
L 284.705564 57.432204 
L 285.290059 57.516954 
L 285.48489 57.369901 
L 285.874554 57.438002 
L 286.134329 57.405126 
L 286.394105 57.506448 
L 286.653881 57.615733 
L 287.368263 57.643328 
L 287.628039 57.715524 
L 288.017702 57.607554 
L 288.14759 57.526507 
L 288.277478 57.566033 
L 288.537254 57.555772 
L 288.667141 57.516288 
L 289.6413 57.272533 
L 289.901075 57.3212 
L 290.225795 57.232454 
L 290.550514 57.337864 
L 290.875234 57.370117 
L 291.070066 57.329378 
L 291.914336 57.266796 
L 292.174112 57.138122 
L 292.433888 57.094368 
L 292.628719 56.945888 
L 295.81097 57.004502 
L 296.005802 56.93491 
L 296.850073 57.099383 
L 298.343782 57.233884 
L 298.538614 57.265524 
L 300.616819 57.029555 
L 300.81165 57.003162 
L 301.331202 56.669062 
L 301.785809 56.692943 
L 301.98064 56.712509 
L 302.175472 56.654796 
L 302.435248 56.681339 
L 303.279518 56.577764 
L 303.47435 56.611057 
L 304.058845 56.493783 
L 304.578396 56.546745 
L 305.682443 56.550512 
L 305.877274 56.545346 
L 306.526713 56.597531 
L 306.786489 56.557819 
L 307.825591 56.329473 
L 308.020423 56.327303 
L 308.734806 56.337223 
L 309.059525 56.265352 
L 310.877954 56.221914 
L 311.332562 56.171144 
L 311.527393 56.170728 
L 311.722225 56.230468 
L 311.982001 56.301988 
L 312.176832 56.364197 
L 312.501552 56.139107 
L 312.891215 56.158237 
L 313.150991 56.160923 
L 314.125149 56.299094 
L 314.709644 56.226469 
L 315.229196 56.290344 
L 315.748747 56.309295 
L 315.943579 56.352394 
L 316.398186 56.338175 
L 316.852793 56.349196 
L 317.502232 56.354346 
L 317.891895 56.209801 
L 318.216615 56.183067 
L 318.411447 56.189508 
L 318.866054 56.099531 
L 319.190773 56.112885 
L 319.385605 56.15257 
L 319.840212 56.028066 
L 320.164932 56.04801 
L 320.489651 56.049868 
L 320.749427 55.920859 
L 321.658642 55.927866 
L 322.048305 55.796735 
L 322.308081 55.830186 
L 322.6328 55.818127 
L 323.412127 55.820934 
L 323.671902 55.781258 
L 324.321341 55.809054 
L 324.581117 55.677872 
L 324.905836 55.800979 
L 325.100668 55.819789 
L 325.490332 55.782101 
L 325.750107 55.667881 
L 326.334602 55.557247 
L 326.724266 55.573138 
L 326.984041 55.560093 
L 327.373705 55.621629 
L 327.568536 55.653078 
L 327.828312 55.639698 
L 328.217975 55.624485 
L 328.607639 55.677421 
L 329.062246 55.72293 
L 330.685843 55.638575 
L 332.764048 55.783317 
L 333.023824 55.817424 
L 333.543375 55.801725 
L 334.062926 55.596267 
L 334.192814 55.643637 
L 334.452589 55.664686 
L 334.777309 55.674259 
L 335.166972 55.7045 
L 335.62158 55.759214 
L 335.816411 55.769639 
L 336.206075 55.811458 
L 337.504953 55.855084 
L 337.699784 55.847616 
L 337.894616 55.865704 
L 338.024504 55.902149 
L 338.349223 55.866805 
L 339.713045 55.845504 
L 339.972821 55.79796 
L 341.076867 55.584736 
L 341.46653 55.604354 
L 342.245857 55.53228 
L 342.440689 55.543633 
L 343.025184 55.377725 
L 343.674623 55.484956 
L 344.259118 55.418696 
L 346.337323 55.530638 
L 346.79193 55.559841 
L 348.415527 55.678989 
L 348.610359 55.677533 
L 348.805191 55.715547 
L 349.000023 55.683197 
L 349.584518 55.701451 
L 349.909237 55.694846 
L 350.233957 55.618815 
L 352.377105 55.493331 
L 352.701825 55.549466 
L 353.091488 55.431184 
L 353.675983 55.522408 
L 354.000703 55.63246 
L 358.741607 55.248412 
L 358.936439 55.264364 
L 359.715766 55.356434 
L 360.105429 55.226492 
L 360.300261 55.16568 
L 360.62498 55.230525 
L 364.261839 55.168324 
L 364.521614 55.031717 
L 364.78139 55.02422 
L 365.106109 54.948838 
L 366.080268 54.834806 
L 366.340043 54.798249 
L 368.158472 54.897692 
L 368.418248 54.918148 
L 369.587238 54.791071 
L 370.496453 54.903889 
L 371.405667 54.748583 
L 371.665443 54.707944 
L 371.925218 54.728948 
L 372.12005 54.742273 
L 373.483872 54.673169 
L 373.938479 54.640466 
L 374.263199 54.537229 
L 374.587918 54.479243 
L 376.081628 54.476443 
L 376.27646 54.445893 
L 376.731067 54.527768 
L 377.835113 54.370732 
L 378.224777 54.427838 
L 380.627701 54.471793 
L 381.017364 54.463641 
L 381.212196 54.47434 
L 381.601859 54.442851 
L 382.705906 54.46507 
L 382.900737 54.42557 
L 383.420288 54.392434 
L 383.680064 54.345563 
L 384.199615 54.295867 
L 384.654222 54.302472 
L 385.10883 54.348728 
L 385.628381 54.273886 
L 385.9531 54.25357 
L 386.212876 54.280623 
L 386.407708 54.290727 
L 386.732427 54.188724 
L 387.057147 54.165346 
L 387.251978 54.122524 
L 387.511754 54.078823 
L 388.031305 54.103486 
L 388.420969 54.102473 
L 388.6158 54.089839 
L 388.875576 54.113627 
L 389.265239 54.034349 
L 389.525015 54.044453 
L 390.044566 54.008129 
L 390.434229 53.949114 
L 391.018724 54.05281 
L 391.538276 54.041832 
L 391.798051 54.033735 
L 392.057827 53.935875 
L 394.071088 53.835959 
L 397.902778 53.683713 
L 398.357385 53.606734 
L 398.487273 53.568 
L 398.487273 53.568 
" clip-path="url(#p7121ba7701)" style="fill: none; stroke-dasharray: 2,3.3; stroke-dashoffset: 0; stroke: #ffa500; stroke-width: 2"/>
   </g>
   <g id="patch_3">
    <path d="M 57.6 307.584 
L 57.6 41.472 
" style="fill: none; stroke: #000000; stroke-width: 0.8; stroke-linejoin: miter; stroke-linecap: square"/>
   </g>
   <g id="patch_4">
    <path d="M 414.72 307.584 
L 414.72 41.472 
" style="fill: none; stroke: #000000; stroke-width: 0.8; stroke-linejoin: miter; stroke-linecap: square"/>
   </g>
   <g id="patch_5">
    <path d="M 57.6 307.584 
L 414.72 307.584 
" style="fill: none; stroke: #000000; stroke-width: 0.8; stroke-linejoin: miter; stroke-linecap: square"/>
   </g>
   <g id="patch_6">
    <path d="M 57.6 41.472 
L 414.72 41.472 
" style="fill: none; stroke: #000000; stroke-width: 0.8; stroke-linejoin: miter; stroke-linecap: square"/>
   </g>
   <g id="text_18">
    <!-- Waiting Time Plot -->
    <g transform="translate(183.833438 8.2635)scale(0.12 -0.12)">
     <defs>
      <path id="DejaVuSans-50" d="M 1259 4147 
L 1259 2394 
L 2053 2394 
Q 2494 2394 2734 2622 
Q 2975 2850 2975 3272 
Q 2975 3691 2734 3919 
Q 2494 4147 2053 4147 
L 1259 4147 
z
M 628 4666 
L 2053 4666 
Q 2838 4666 3239 4311 
Q 3641 3956 3641 3272 
Q 3641 2581 3239 2228 
Q 2838 1875 2053 1875 
L 1259 1875 
L 1259 0 
L 628 0 
L 628 4666 
z
" transform="scale(0.015625)"/>
      <path id="DejaVuSans-6c" d="M 603 4863 
L 1178 4863 
L 1178 0 
L 603 0 
L 603 4863 
z
" transform="scale(0.015625)"/>
     </defs>
     <use xlink:href="#DejaVuSans-57"/>
     <use xlink:href="#DejaVuSans-61" x="92.501953"/>
     <use xlink:href="#DejaVuSans-69" x="153.78125"/>
     <use xlink:href="#DejaVuSans-74" x="181.564453"/>
     <use xlink:href="#DejaVuSans-69" x="220.773438"/>
     <use xlink:href="#DejaVuSans-6e" x="248.556641"/>
     <use xlink:href="#DejaVuSans-67" x="311.935547"/>
     <use xlink:href="#DejaVuSans-20" x="375.412109"/>
     <use xlink:href="#DejaVuSans-54" x="407.199219"/>
     <use xlink:href="#DejaVuSans-69" x="465.158203"/>
     <use xlink:href="#DejaVuSans-6d" x="492.941406"/>
     <use xlink:href="#DejaVuSans-65" x="590.353516"/>
     <use xlink:href="#DejaVuSans-20" x="651.876953"/>
     <use xlink:href="#DejaVuSans-50" x="683.664062"/>
     <use xlink:href="#DejaVuSans-6c" x="743.966797"/>
     <use xlink:href="#DejaVuSans-6f" x="771.75"/>
     <use xlink:href="#DejaVuSans-74" x="832.931641"/>
    </g>
    <!--  avg_d = 682.048883025144  -->
    <g transform="translate(146.489062 21.700875)scale(0.12 -0.12)">
     <defs>
      <path id="DejaVuSans-76" d="M 191 3500 
L 800 3500 
L 1894 563 
L 2988 3500 
L 3597 3500 
L 2284 0 
L 1503 0 
L 191 3500 
z
" transform="scale(0.015625)"/>
      <path id="DejaVuSans-5f" d="M 3263 -1063 
L 3263 -1509 
L -63 -1509 
L -63 -1063 
L 3263 -1063 
z
" transform="scale(0.015625)"/>
      <path id="DejaVuSans-3d" d="M 678 2906 
L 4684 2906 
L 4684 2381 
L 678 2381 
L 678 2906 
z
M 678 1631 
L 4684 1631 
L 4684 1100 
L 678 1100 
L 678 1631 
z
" transform="scale(0.015625)"/>
      <path id="DejaVuSans-2e" d="M 684 794 
L 1344 794 
L 1344 0 
L 684 0 
L 684 794 
z
" transform="scale(0.015625)"/>
     </defs>
     <use xlink:href="#DejaVuSans-20"/>
     <use xlink:href="#DejaVuSans-61" x="31.787109"/>
     <use xlink:href="#DejaVuSans-76" x="93.066406"/>
     <use xlink:href="#DejaVuSans-67" x="152.246094"/>
     <use xlink:href="#DejaVuSans-5f" x="215.722656"/>
     <use xlink:href="#DejaVuSans-64" x="265.722656"/>
     <use xlink:href="#DejaVuSans-20" x="329.199219"/>
     <use xlink:href="#DejaVuSans-3d" x="360.986328"/>
     <use xlink:href="#DejaVuSans-20" x="444.775391"/>
     <use xlink:href="#DejaVuSans-36" x="476.5625"/>
     <use xlink:href="#DejaVuSans-38" x="540.185547"/>
     <use xlink:href="#DejaVuSans-32" x="603.808594"/>
     <use xlink:href="#DejaVuSans-2e" x="667.431641"/>
     <use xlink:href="#DejaVuSans-30" x="699.21875"/>
     <use xlink:href="#DejaVuSans-34" x="762.841797"/>
     <use xlink:href="#DejaVuSans-38" x="826.464844"/>
     <use xlink:href="#DejaVuSans-38" x="890.087891"/>
     <use xlink:href="#DejaVuSans-38" x="953.710938"/>
     <use xlink:href="#DejaVuSans-33" x="1017.333984"/>
     <use xlink:href="#DejaVuSans-30" x="1080.957031"/>
     <use xlink:href="#DejaVuSans-32" x="1144.580078"/>
     <use xlink:href="#DejaVuSans-35" x="1208.203125"/>
     <use xlink:href="#DejaVuSans-31" x="1271.826172"/>
     <use xlink:href="#DejaVuSans-34" x="1335.449219"/>
     <use xlink:href="#DejaVuSans-34" x="1399.072266"/>
     <use xlink:href="#DejaVuSans-20" x="1462.695312"/>
    </g>
    <!--  avg_a = 960.839717037832diff = -278.7908340126879 -->
    <g transform="translate(64.834688 35.472)scale(0.12 -0.12)">
     <defs>
      <path id="DejaVuSans-2d" d="M 313 2009 
L 1997 2009 
L 1997 1497 
L 313 1497 
L 313 2009 
z
" transform="scale(0.015625)"/>
     </defs>
     <use xlink:href="#DejaVuSans-20"/>
     <use xlink:href="#DejaVuSans-61" x="31.787109"/>
     <use xlink:href="#DejaVuSans-76" x="93.066406"/>
     <use xlink:href="#DejaVuSans-67" x="152.246094"/>
     <use xlink:href="#DejaVuSans-5f" x="215.722656"/>
     <use xlink:href="#DejaVuSans-61" x="265.722656"/>
     <use xlink:href="#DejaVuSans-20" x="327.001953"/>
     <use xlink:href="#DejaVuSans-3d" x="358.789062"/>
     <use xlink:href="#DejaVuSans-20" x="442.578125"/>
     <use xlink:href="#DejaVuSans-39" x="474.365234"/>
     <use xlink:href="#DejaVuSans-36" x="537.988281"/>
     <use xlink:href="#DejaVuSans-30" x="601.611328"/>
     <use xlink:href="#DejaVuSans-2e" x="665.234375"/>
     <use xlink:href="#DejaVuSans-38" x="697.021484"/>
     <use xlink:href="#DejaVuSans-33" x="760.644531"/>
     <use xlink:href="#DejaVuSans-39" x="824.267578"/>
     <use xlink:href="#DejaVuSans-37" x="887.890625"/>
     <use xlink:href="#DejaVuSans-31" x="951.513672"/>
     <use xlink:href="#DejaVuSans-37" x="1015.136719"/>
     <use xlink:href="#DejaVuSans-30" x="1078.759766"/>
     <use xlink:href="#DejaVuSans-33" x="1142.382812"/>
     <use xlink:href="#DejaVuSans-37" x="1206.005859"/>
     <use xlink:href="#DejaVuSans-38" x="1269.628906"/>
     <use xlink:href="#DejaVuSans-33" x="1333.251953"/>
     <use xlink:href="#DejaVuSans-32" x="1396.875"/>
     <use xlink:href="#DejaVuSans-64" x="1460.498047"/>
     <use xlink:href="#DejaVuSans-69" x="1523.974609"/>
     <use xlink:href="#DejaVuSans-66" x="1551.757812"/>
     <use xlink:href="#DejaVuSans-66" x="1586.962891"/>
     <use xlink:href="#DejaVuSans-20" x="1622.167969"/>
     <use xlink:href="#DejaVuSans-3d" x="1653.955078"/>
     <use xlink:href="#DejaVuSans-20" x="1737.744141"/>
     <use xlink:href="#DejaVuSans-2d" x="1769.53125"/>
     <use xlink:href="#DejaVuSans-32" x="1805.615234"/>
     <use xlink:href="#DejaVuSans-37" x="1869.238281"/>
     <use xlink:href="#DejaVuSans-38" x="1932.861328"/>
     <use xlink:href="#DejaVuSans-2e" x="1996.484375"/>
     <use xlink:href="#DejaVuSans-37" x="2028.271484"/>
     <use xlink:href="#DejaVuSans-39" x="2091.894531"/>
     <use xlink:href="#DejaVuSans-30" x="2155.517578"/>
     <use xlink:href="#DejaVuSans-38" x="2219.140625"/>
     <use xlink:href="#DejaVuSans-33" x="2282.763672"/>
     <use xlink:href="#DejaVuSans-34" x="2346.386719"/>
     <use xlink:href="#DejaVuSans-30" x="2410.009766"/>
     <use xlink:href="#DejaVuSans-31" x="2473.632812"/>
     <use xlink:href="#DejaVuSans-32" x="2537.255859"/>
     <use xlink:href="#DejaVuSans-36" x="2600.878906"/>
     <use xlink:href="#DejaVuSans-38" x="2664.501953"/>
     <use xlink:href="#DejaVuSans-37" x="2728.125"/>
     <use xlink:href="#DejaVuSans-39" x="2791.748047"/>
    </g>
   </g>
   <g id="legend_1">
    <g id="patch_7">
     <path d="M 263.88875 302.584 
L 407.72 302.584 
Q 409.72 302.584 409.72 300.584 
L 409.72 272.22775 
Q 409.72 270.22775 407.72 270.22775 
L 263.88875 270.22775 
Q 261.88875 270.22775 261.88875 272.22775 
L 261.88875 300.584 
Q 261.88875 302.584 263.88875 302.584 
z
" style="fill: #ffffff; opacity: 0.8; stroke: #cccccc; stroke-linejoin: miter"/>
    </g>
    <g id="line2d_18">
     <path d="M 265.88875 278.326187 
L 275.88875 278.326187 
L 285.88875 278.326187 
" style="fill: none; stroke-dasharray: 2,3.3; stroke-dashoffset: 0; stroke: #0000ff; stroke-width: 2"/>
    </g>
    <g id="text_19">
     <!-- Average (Default) -->
     <g transform="translate(293.88875 281.826187)scale(0.1 -0.1)">
      <defs>
       <path id="DejaVuSans-41" d="M 2188 4044 
L 1331 1722 
L 3047 1722 
L 2188 4044 
z
M 1831 4666 
L 2547 4666 
L 4325 0 
L 3669 0 
L 3244 1197 
L 1141 1197 
L 716 0 
L 50 0 
L 1831 4666 
z
" transform="scale(0.015625)"/>
       <path id="DejaVuSans-28" d="M 1984 4856 
Q 1566 4138 1362 3434 
Q 1159 2731 1159 2009 
Q 1159 1288 1364 580 
Q 1569 -128 1984 -844 
L 1484 -844 
Q 1016 -109 783 600 
Q 550 1309 550 2009 
Q 550 2706 781 3412 
Q 1013 4119 1484 4856 
L 1984 4856 
z
" transform="scale(0.015625)"/>
       <path id="DejaVuSans-44" d="M 1259 4147 
L 1259 519 
L 2022 519 
Q 2988 519 3436 956 
Q 3884 1394 3884 2338 
Q 3884 3275 3436 3711 
Q 2988 4147 2022 4147 
L 1259 4147 
z
M 628 4666 
L 1925 4666 
Q 3281 4666 3915 4102 
Q 4550 3538 4550 2338 
Q 4550 1131 3912 565 
Q 3275 0 1925 0 
L 628 0 
L 628 4666 
z
" transform="scale(0.015625)"/>
       <path id="DejaVuSans-29" d="M 513 4856 
L 1013 4856 
Q 1481 4119 1714 3412 
Q 1947 2706 1947 2009 
Q 1947 1309 1714 600 
Q 1481 -109 1013 -844 
L 513 -844 
Q 928 -128 1133 580 
Q 1338 1288 1338 2009 
Q 1338 2731 1133 3434 
Q 928 4138 513 4856 
z
" transform="scale(0.015625)"/>
      </defs>
      <use xlink:href="#DejaVuSans-41"/>
      <use xlink:href="#DejaVuSans-76" x="62.533203"/>
      <use xlink:href="#DejaVuSans-65" x="121.712891"/>
      <use xlink:href="#DejaVuSans-72" x="183.236328"/>
      <use xlink:href="#DejaVuSans-61" x="224.349609"/>
      <use xlink:href="#DejaVuSans-67" x="285.628906"/>
      <use xlink:href="#DejaVuSans-65" x="349.105469"/>
      <use xlink:href="#DejaVuSans-20" x="410.628906"/>
      <use xlink:href="#DejaVuSans-28" x="442.416016"/>
      <use xlink:href="#DejaVuSans-44" x="481.429688"/>
      <use xlink:href="#DejaVuSans-65" x="558.431641"/>
      <use xlink:href="#DejaVuSans-66" x="619.955078"/>
      <use xlink:href="#DejaVuSans-61" x="655.160156"/>
      <use xlink:href="#DejaVuSans-75" x="716.439453"/>
      <use xlink:href="#DejaVuSans-6c" x="779.818359"/>
      <use xlink:href="#DejaVuSans-74" x="807.601562"/>
      <use xlink:href="#DejaVuSans-29" x="846.810547"/>
     </g>
    </g>
    <g id="line2d_19">
     <path d="M 265.88875 293.004312 
L 275.88875 293.004312 
L 285.88875 293.004312 
" style="fill: none; stroke-dasharray: 2,3.3; stroke-dashoffset: 0; stroke: #ffa500; stroke-width: 2"/>
    </g>
    <g id="text_20">
     <!-- Average (Anticipation) -->
     <g transform="translate(293.88875 296.504312)scale(0.1 -0.1)">
      <defs>
       <path id="DejaVuSans-63" d="M 3122 3366 
L 3122 2828 
Q 2878 2963 2633 3030 
Q 2388 3097 2138 3097 
Q 1578 3097 1268 2742 
Q 959 2388 959 1747 
Q 959 1106 1268 751 
Q 1578 397 2138 397 
Q 2388 397 2633 464 
Q 2878 531 3122 666 
L 3122 134 
Q 2881 22 2623 -34 
Q 2366 -91 2075 -91 
Q 1284 -91 818 406 
Q 353 903 353 1747 
Q 353 2603 823 3093 
Q 1294 3584 2113 3584 
Q 2378 3584 2631 3529 
Q 2884 3475 3122 3366 
z
" transform="scale(0.015625)"/>
       <path id="DejaVuSans-70" d="M 1159 525 
L 1159 -1331 
L 581 -1331 
L 581 3500 
L 1159 3500 
L 1159 2969 
Q 1341 3281 1617 3432 
Q 1894 3584 2278 3584 
Q 2916 3584 3314 3078 
Q 3713 2572 3713 1747 
Q 3713 922 3314 415 
Q 2916 -91 2278 -91 
Q 1894 -91 1617 61 
Q 1341 213 1159 525 
z
M 3116 1747 
Q 3116 2381 2855 2742 
Q 2594 3103 2138 3103 
Q 1681 3103 1420 2742 
Q 1159 2381 1159 1747 
Q 1159 1113 1420 752 
Q 1681 391 2138 391 
Q 2594 391 2855 752 
Q 3116 1113 3116 1747 
z
" transform="scale(0.015625)"/>
      </defs>
      <use xlink:href="#DejaVuSans-41"/>
      <use xlink:href="#DejaVuSans-76" x="62.533203"/>
      <use xlink:href="#DejaVuSans-65" x="121.712891"/>
      <use xlink:href="#DejaVuSans-72" x="183.236328"/>
      <use xlink:href="#DejaVuSans-61" x="224.349609"/>
      <use xlink:href="#DejaVuSans-67" x="285.628906"/>
      <use xlink:href="#DejaVuSans-65" x="349.105469"/>
      <use xlink:href="#DejaVuSans-20" x="410.628906"/>
      <use xlink:href="#DejaVuSans-28" x="442.416016"/>
      <use xlink:href="#DejaVuSans-41" x="481.429688"/>
      <use xlink:href="#DejaVuSans-6e" x="549.837891"/>
      <use xlink:href="#DejaVuSans-74" x="613.216797"/>
      <use xlink:href="#DejaVuSans-69" x="652.425781"/>
      <use xlink:href="#DejaVuSans-63" x="680.208984"/>
      <use xlink:href="#DejaVuSans-69" x="735.189453"/>
      <use xlink:href="#DejaVuSans-70" x="762.972656"/>
      <use xlink:href="#DejaVuSans-61" x="826.449219"/>
      <use xlink:href="#DejaVuSans-74" x="887.728516"/>
      <use xlink:href="#DejaVuSans-69" x="926.9375"/>
      <use xlink:href="#DejaVuSans-6f" x="954.720703"/>
      <use xlink:href="#DejaVuSans-6e" x="1015.902344"/>
      <use xlink:href="#DejaVuSans-29" x="1079.28125"/>
     </g>
    </g>
   </g>
  </g>
 </g>
 <defs>
  <clipPath id="p7121ba7701">
   <rect x="57.6" y="41.472" width="357.12" height="266.112"/>
  </clipPath>
 </defs>
</svg>
