<?xml version="1.0" encoding="utf-8" standalone="no"?>
<!DOCTYPE svg PUBLIC "-//W3C//DTD SVG 1.1//EN"
  "http://www.w3.org/Graphics/SVG/1.1/DTD/svg11.dtd">
<svg xmlns:xlink="http://www.w3.org/1999/xlink" width="460.8pt" height="345.6pt" viewBox="0 0 460.8 345.6" xmlns="http://www.w3.org/2000/svg" version="1.1">
 <metadata>
  <rdf:RDF xmlns:dc="http://purl.org/dc/elements/1.1/" xmlns:cc="http://creativecommons.org/ns#" xmlns:rdf="http://www.w3.org/1999/02/22-rdf-syntax-ns#">
   <cc:Work>
    <dc:type rdf:resource="http://purl.org/dc/dcmitype/StillImage"/>
    <dc:date>2022-10-10T12:10:00.479245</dc:date>
    <dc:format>image/svg+xml</dc:format>
    <dc:creator>
     <cc:Agent>
      <dc:title>Matplotlib v3.5.3, https://matplotlib.org/</dc:title>
     </cc:Agent>
    </dc:creator>
   </cc:Work>
  </rdf:RDF>
 </metadata>
 <defs>
  <style type="text/css">*{stroke-linejoin: round; stroke-linecap: butt}</style>
 </defs>
 <g id="figure_1">
  <g id="patch_1">
   <path d="M 0 345.6 
L 460.8 345.6 
L 460.8 0 
L 0 0 
z
" style="fill: #ffffff"/>
  </g>
  <g id="axes_1">
   <g id="patch_2">
    <path d="M 57.6 307.584 
L 414.72 307.584 
L 414.72 41.472 
L 57.6 41.472 
z
" style="fill: #ffffff"/>
   </g>
   <g id="matplotlib.axis_1">
    <g id="xtick_1">
     <g id="line2d_1">
      <defs>
       <path id="mbb1afbe243" d="M 0 0 
L 0 3.5 
" style="stroke: #000000; stroke-width: 0.8"/>
      </defs>
      <g>
       <use xlink:href="#mbb1afbe243" x="73.832727" y="307.584" style="stroke: #000000; stroke-width: 0.8"/>
      </g>
     </g>
     <g id="text_1">
      <!-- 0 -->
      <g transform="translate(70.651477 322.182437)scale(0.1 -0.1)">
       <defs>
        <path id="DejaVuSans-30" d="M 2034 4250 
Q 1547 4250 1301 3770 
Q 1056 3291 1056 2328 
Q 1056 1369 1301 889 
Q 1547 409 2034 409 
Q 2525 409 2770 889 
Q 3016 1369 3016 2328 
Q 3016 3291 2770 3770 
Q 2525 4250 2034 4250 
z
M 2034 4750 
Q 2819 4750 3233 4129 
Q 3647 3509 3647 2328 
Q 3647 1150 3233 529 
Q 2819 -91 2034 -91 
Q 1250 -91 836 529 
Q 422 1150 422 2328 
Q 422 3509 836 4129 
Q 1250 4750 2034 4750 
z
" transform="scale(0.015625)"/>
       </defs>
       <use xlink:href="#DejaVuSans-30"/>
      </g>
     </g>
    </g>
    <g id="xtick_2">
     <g id="line2d_2">
      <g>
       <use xlink:href="#mbb1afbe243" x="138.776625" y="307.584" style="stroke: #000000; stroke-width: 0.8"/>
      </g>
     </g>
     <g id="text_2">
      <!-- 1000 -->
      <g transform="translate(126.051625 322.182437)scale(0.1 -0.1)">
       <defs>
        <path id="DejaVuSans-31" d="M 794 531 
L 1825 531 
L 1825 4091 
L 703 3866 
L 703 4441 
L 1819 4666 
L 2450 4666 
L 2450 531 
L 3481 531 
L 3481 0 
L 794 0 
L 794 531 
z
" transform="scale(0.015625)"/>
       </defs>
       <use xlink:href="#DejaVuSans-31"/>
       <use xlink:href="#DejaVuSans-30" x="63.623047"/>
       <use xlink:href="#DejaVuSans-30" x="127.246094"/>
       <use xlink:href="#DejaVuSans-30" x="190.869141"/>
      </g>
     </g>
    </g>
    <g id="xtick_3">
     <g id="line2d_3">
      <g>
       <use xlink:href="#mbb1afbe243" x="203.720523" y="307.584" style="stroke: #000000; stroke-width: 0.8"/>
      </g>
     </g>
     <g id="text_3">
      <!-- 2000 -->
      <g transform="translate(190.995523 322.182437)scale(0.1 -0.1)">
       <defs>
        <path id="DejaVuSans-32" d="M 1228 531 
L 3431 531 
L 3431 0 
L 469 0 
L 469 531 
Q 828 903 1448 1529 
Q 2069 2156 2228 2338 
Q 2531 2678 2651 2914 
Q 2772 3150 2772 3378 
Q 2772 3750 2511 3984 
Q 2250 4219 1831 4219 
Q 1534 4219 1204 4116 
Q 875 4013 500 3803 
L 500 4441 
Q 881 4594 1212 4672 
Q 1544 4750 1819 4750 
Q 2544 4750 2975 4387 
Q 3406 4025 3406 3419 
Q 3406 3131 3298 2873 
Q 3191 2616 2906 2266 
Q 2828 2175 2409 1742 
Q 1991 1309 1228 531 
z
" transform="scale(0.015625)"/>
       </defs>
       <use xlink:href="#DejaVuSans-32"/>
       <use xlink:href="#DejaVuSans-30" x="63.623047"/>
       <use xlink:href="#DejaVuSans-30" x="127.246094"/>
       <use xlink:href="#DejaVuSans-30" x="190.869141"/>
      </g>
     </g>
    </g>
    <g id="xtick_4">
     <g id="line2d_4">
      <g>
       <use xlink:href="#mbb1afbe243" x="268.664421" y="307.584" style="stroke: #000000; stroke-width: 0.8"/>
      </g>
     </g>
     <g id="text_4">
      <!-- 3000 -->
      <g transform="translate(255.939421 322.182437)scale(0.1 -0.1)">
       <defs>
        <path id="DejaVuSans-33" d="M 2597 2516 
Q 3050 2419 3304 2112 
Q 3559 1806 3559 1356 
Q 3559 666 3084 287 
Q 2609 -91 1734 -91 
Q 1441 -91 1130 -33 
Q 819 25 488 141 
L 488 750 
Q 750 597 1062 519 
Q 1375 441 1716 441 
Q 2309 441 2620 675 
Q 2931 909 2931 1356 
Q 2931 1769 2642 2001 
Q 2353 2234 1838 2234 
L 1294 2234 
L 1294 2753 
L 1863 2753 
Q 2328 2753 2575 2939 
Q 2822 3125 2822 3475 
Q 2822 3834 2567 4026 
Q 2313 4219 1838 4219 
Q 1578 4219 1281 4162 
Q 984 4106 628 3988 
L 628 4550 
Q 988 4650 1302 4700 
Q 1616 4750 1894 4750 
Q 2613 4750 3031 4423 
Q 3450 4097 3450 3541 
Q 3450 3153 3228 2886 
Q 3006 2619 2597 2516 
z
" transform="scale(0.015625)"/>
       </defs>
       <use xlink:href="#DejaVuSans-33"/>
       <use xlink:href="#DejaVuSans-30" x="63.623047"/>
       <use xlink:href="#DejaVuSans-30" x="127.246094"/>
       <use xlink:href="#DejaVuSans-30" x="190.869141"/>
      </g>
     </g>
    </g>
    <g id="xtick_5">
     <g id="line2d_5">
      <g>
       <use xlink:href="#mbb1afbe243" x="333.608319" y="307.584" style="stroke: #000000; stroke-width: 0.8"/>
      </g>
     </g>
     <g id="text_5">
      <!-- 4000 -->
      <g transform="translate(320.883319 322.182437)scale(0.1 -0.1)">
       <defs>
        <path id="DejaVuSans-34" d="M 2419 4116 
L 825 1625 
L 2419 1625 
L 2419 4116 
z
M 2253 4666 
L 3047 4666 
L 3047 1625 
L 3713 1625 
L 3713 1100 
L 3047 1100 
L 3047 0 
L 2419 0 
L 2419 1100 
L 313 1100 
L 313 1709 
L 2253 4666 
z
" transform="scale(0.015625)"/>
       </defs>
       <use xlink:href="#DejaVuSans-34"/>
       <use xlink:href="#DejaVuSans-30" x="63.623047"/>
       <use xlink:href="#DejaVuSans-30" x="127.246094"/>
       <use xlink:href="#DejaVuSans-30" x="190.869141"/>
      </g>
     </g>
    </g>
    <g id="xtick_6">
     <g id="line2d_6">
      <g>
       <use xlink:href="#mbb1afbe243" x="398.552217" y="307.584" style="stroke: #000000; stroke-width: 0.8"/>
      </g>
     </g>
     <g id="text_6">
      <!-- 5000 -->
      <g transform="translate(385.827217 322.182437)scale(0.1 -0.1)">
       <defs>
        <path id="DejaVuSans-35" d="M 691 4666 
L 3169 4666 
L 3169 4134 
L 1269 4134 
L 1269 2991 
Q 1406 3038 1543 3061 
Q 1681 3084 1819 3084 
Q 2600 3084 3056 2656 
Q 3513 2228 3513 1497 
Q 3513 744 3044 326 
Q 2575 -91 1722 -91 
Q 1428 -91 1123 -41 
Q 819 9 494 109 
L 494 744 
Q 775 591 1075 516 
Q 1375 441 1709 441 
Q 2250 441 2565 725 
Q 2881 1009 2881 1497 
Q 2881 1984 2565 2268 
Q 2250 2553 1709 2553 
Q 1456 2553 1204 2497 
Q 953 2441 691 2322 
L 691 4666 
z
" transform="scale(0.015625)"/>
       </defs>
       <use xlink:href="#DejaVuSans-35"/>
       <use xlink:href="#DejaVuSans-30" x="63.623047"/>
       <use xlink:href="#DejaVuSans-30" x="127.246094"/>
       <use xlink:href="#DejaVuSans-30" x="190.869141"/>
      </g>
     </g>
    </g>
    <g id="text_7">
     <!-- Number of Orders -->
     <g transform="translate(191.261562 335.860562)scale(0.1 -0.1)">
      <defs>
       <path id="DejaVuSans-4e" d="M 628 4666 
L 1478 4666 
L 3547 763 
L 3547 4666 
L 4159 4666 
L 4159 0 
L 3309 0 
L 1241 3903 
L 1241 0 
L 628 0 
L 628 4666 
z
" transform="scale(0.015625)"/>
       <path id="DejaVuSans-75" d="M 544 1381 
L 544 3500 
L 1119 3500 
L 1119 1403 
Q 1119 906 1312 657 
Q 1506 409 1894 409 
Q 2359 409 2629 706 
Q 2900 1003 2900 1516 
L 2900 3500 
L 3475 3500 
L 3475 0 
L 2900 0 
L 2900 538 
Q 2691 219 2414 64 
Q 2138 -91 1772 -91 
Q 1169 -91 856 284 
Q 544 659 544 1381 
z
M 1991 3584 
L 1991 3584 
z
" transform="scale(0.015625)"/>
       <path id="DejaVuSans-6d" d="M 3328 2828 
Q 3544 3216 3844 3400 
Q 4144 3584 4550 3584 
Q 5097 3584 5394 3201 
Q 5691 2819 5691 2113 
L 5691 0 
L 5113 0 
L 5113 2094 
Q 5113 2597 4934 2840 
Q 4756 3084 4391 3084 
Q 3944 3084 3684 2787 
Q 3425 2491 3425 1978 
L 3425 0 
L 2847 0 
L 2847 2094 
Q 2847 2600 2669 2842 
Q 2491 3084 2119 3084 
Q 1678 3084 1418 2786 
Q 1159 2488 1159 1978 
L 1159 0 
L 581 0 
L 581 3500 
L 1159 3500 
L 1159 2956 
Q 1356 3278 1631 3431 
Q 1906 3584 2284 3584 
Q 2666 3584 2933 3390 
Q 3200 3197 3328 2828 
z
" transform="scale(0.015625)"/>
       <path id="DejaVuSans-62" d="M 3116 1747 
Q 3116 2381 2855 2742 
Q 2594 3103 2138 3103 
Q 1681 3103 1420 2742 
Q 1159 2381 1159 1747 
Q 1159 1113 1420 752 
Q 1681 391 2138 391 
Q 2594 391 2855 752 
Q 3116 1113 3116 1747 
z
M 1159 2969 
Q 1341 3281 1617 3432 
Q 1894 3584 2278 3584 
Q 2916 3584 3314 3078 
Q 3713 2572 3713 1747 
Q 3713 922 3314 415 
Q 2916 -91 2278 -91 
Q 1894 -91 1617 61 
Q 1341 213 1159 525 
L 1159 0 
L 581 0 
L 581 4863 
L 1159 4863 
L 1159 2969 
z
" transform="scale(0.015625)"/>
       <path id="DejaVuSans-65" d="M 3597 1894 
L 3597 1613 
L 953 1613 
Q 991 1019 1311 708 
Q 1631 397 2203 397 
Q 2534 397 2845 478 
Q 3156 559 3463 722 
L 3463 178 
Q 3153 47 2828 -22 
Q 2503 -91 2169 -91 
Q 1331 -91 842 396 
Q 353 884 353 1716 
Q 353 2575 817 3079 
Q 1281 3584 2069 3584 
Q 2775 3584 3186 3129 
Q 3597 2675 3597 1894 
z
M 3022 2063 
Q 3016 2534 2758 2815 
Q 2500 3097 2075 3097 
Q 1594 3097 1305 2825 
Q 1016 2553 972 2059 
L 3022 2063 
z
" transform="scale(0.015625)"/>
       <path id="DejaVuSans-72" d="M 2631 2963 
Q 2534 3019 2420 3045 
Q 2306 3072 2169 3072 
Q 1681 3072 1420 2755 
Q 1159 2438 1159 1844 
L 1159 0 
L 581 0 
L 581 3500 
L 1159 3500 
L 1159 2956 
Q 1341 3275 1631 3429 
Q 1922 3584 2338 3584 
Q 2397 3584 2469 3576 
Q 2541 3569 2628 3553 
L 2631 2963 
z
" transform="scale(0.015625)"/>
       <path id="DejaVuSans-20" transform="scale(0.015625)"/>
       <path id="DejaVuSans-6f" d="M 1959 3097 
Q 1497 3097 1228 2736 
Q 959 2375 959 1747 
Q 959 1119 1226 758 
Q 1494 397 1959 397 
Q 2419 397 2687 759 
Q 2956 1122 2956 1747 
Q 2956 2369 2687 2733 
Q 2419 3097 1959 3097 
z
M 1959 3584 
Q 2709 3584 3137 3096 
Q 3566 2609 3566 1747 
Q 3566 888 3137 398 
Q 2709 -91 1959 -91 
Q 1206 -91 779 398 
Q 353 888 353 1747 
Q 353 2609 779 3096 
Q 1206 3584 1959 3584 
z
" transform="scale(0.015625)"/>
       <path id="DejaVuSans-66" d="M 2375 4863 
L 2375 4384 
L 1825 4384 
Q 1516 4384 1395 4259 
Q 1275 4134 1275 3809 
L 1275 3500 
L 2222 3500 
L 2222 3053 
L 1275 3053 
L 1275 0 
L 697 0 
L 697 3053 
L 147 3053 
L 147 3500 
L 697 3500 
L 697 3744 
Q 697 4328 969 4595 
Q 1241 4863 1831 4863 
L 2375 4863 
z
" transform="scale(0.015625)"/>
       <path id="DejaVuSans-4f" d="M 2522 4238 
Q 1834 4238 1429 3725 
Q 1025 3213 1025 2328 
Q 1025 1447 1429 934 
Q 1834 422 2522 422 
Q 3209 422 3611 934 
Q 4013 1447 4013 2328 
Q 4013 3213 3611 3725 
Q 3209 4238 2522 4238 
z
M 2522 4750 
Q 3503 4750 4090 4092 
Q 4678 3434 4678 2328 
Q 4678 1225 4090 567 
Q 3503 -91 2522 -91 
Q 1538 -91 948 565 
Q 359 1222 359 2328 
Q 359 3434 948 4092 
Q 1538 4750 2522 4750 
z
" transform="scale(0.015625)"/>
       <path id="DejaVuSans-64" d="M 2906 2969 
L 2906 4863 
L 3481 4863 
L 3481 0 
L 2906 0 
L 2906 525 
Q 2725 213 2448 61 
Q 2172 -91 1784 -91 
Q 1150 -91 751 415 
Q 353 922 353 1747 
Q 353 2572 751 3078 
Q 1150 3584 1784 3584 
Q 2172 3584 2448 3432 
Q 2725 3281 2906 2969 
z
M 947 1747 
Q 947 1113 1208 752 
Q 1469 391 1925 391 
Q 2381 391 2643 752 
Q 2906 1113 2906 1747 
Q 2906 2381 2643 2742 
Q 2381 3103 1925 3103 
Q 1469 3103 1208 2742 
Q 947 2381 947 1747 
z
" transform="scale(0.015625)"/>
       <path id="DejaVuSans-73" d="M 2834 3397 
L 2834 2853 
Q 2591 2978 2328 3040 
Q 2066 3103 1784 3103 
Q 1356 3103 1142 2972 
Q 928 2841 928 2578 
Q 928 2378 1081 2264 
Q 1234 2150 1697 2047 
L 1894 2003 
Q 2506 1872 2764 1633 
Q 3022 1394 3022 966 
Q 3022 478 2636 193 
Q 2250 -91 1575 -91 
Q 1294 -91 989 -36 
Q 684 19 347 128 
L 347 722 
Q 666 556 975 473 
Q 1284 391 1588 391 
Q 1994 391 2212 530 
Q 2431 669 2431 922 
Q 2431 1156 2273 1281 
Q 2116 1406 1581 1522 
L 1381 1569 
Q 847 1681 609 1914 
Q 372 2147 372 2553 
Q 372 3047 722 3315 
Q 1072 3584 1716 3584 
Q 2034 3584 2315 3537 
Q 2597 3491 2834 3397 
z
" transform="scale(0.015625)"/>
      </defs>
      <use xlink:href="#DejaVuSans-4e"/>
      <use xlink:href="#DejaVuSans-75" x="74.804688"/>
      <use xlink:href="#DejaVuSans-6d" x="138.183594"/>
      <use xlink:href="#DejaVuSans-62" x="235.595703"/>
      <use xlink:href="#DejaVuSans-65" x="299.072266"/>
      <use xlink:href="#DejaVuSans-72" x="360.595703"/>
      <use xlink:href="#DejaVuSans-20" x="401.708984"/>
      <use xlink:href="#DejaVuSans-6f" x="433.496094"/>
      <use xlink:href="#DejaVuSans-66" x="494.677734"/>
      <use xlink:href="#DejaVuSans-20" x="529.882812"/>
      <use xlink:href="#DejaVuSans-4f" x="561.669922"/>
      <use xlink:href="#DejaVuSans-72" x="640.380859"/>
      <use xlink:href="#DejaVuSans-64" x="679.744141"/>
      <use xlink:href="#DejaVuSans-65" x="743.220703"/>
      <use xlink:href="#DejaVuSans-72" x="804.744141"/>
      <use xlink:href="#DejaVuSans-73" x="845.857422"/>
     </g>
    </g>
   </g>
   <g id="matplotlib.axis_2">
    <g id="ytick_1">
     <g id="line2d_7">
      <defs>
       <path id="me83fa5080a" d="M 0 0 
L -3.5 0 
" style="stroke: #000000; stroke-width: 0.8"/>
      </defs>
      <g>
       <use xlink:href="#me83fa5080a" x="57.6" y="296.021704" style="stroke: #000000; stroke-width: 0.8"/>
      </g>
     </g>
     <g id="text_8">
      <!-- 200 -->
      <g transform="translate(31.5125 299.820922)scale(0.1 -0.1)">
       <use xlink:href="#DejaVuSans-32"/>
       <use xlink:href="#DejaVuSans-30" x="63.623047"/>
       <use xlink:href="#DejaVuSans-30" x="127.246094"/>
      </g>
     </g>
    </g>
    <g id="ytick_2">
     <g id="line2d_8">
      <g>
       <use xlink:href="#me83fa5080a" x="57.6" y="239.266257" style="stroke: #000000; stroke-width: 0.8"/>
      </g>
     </g>
     <g id="text_9">
      <!-- 400 -->
      <g transform="translate(31.5125 243.065475)scale(0.1 -0.1)">
       <use xlink:href="#DejaVuSans-34"/>
       <use xlink:href="#DejaVuSans-30" x="63.623047"/>
       <use xlink:href="#DejaVuSans-30" x="127.246094"/>
      </g>
     </g>
    </g>
    <g id="ytick_3">
     <g id="line2d_9">
      <g>
       <use xlink:href="#me83fa5080a" x="57.6" y="182.510809" style="stroke: #000000; stroke-width: 0.8"/>
      </g>
     </g>
     <g id="text_10">
      <!-- 600 -->
      <g transform="translate(31.5125 186.310028)scale(0.1 -0.1)">
       <defs>
        <path id="DejaVuSans-36" d="M 2113 2584 
Q 1688 2584 1439 2293 
Q 1191 2003 1191 1497 
Q 1191 994 1439 701 
Q 1688 409 2113 409 
Q 2538 409 2786 701 
Q 3034 994 3034 1497 
Q 3034 2003 2786 2293 
Q 2538 2584 2113 2584 
z
M 3366 4563 
L 3366 3988 
Q 3128 4100 2886 4159 
Q 2644 4219 2406 4219 
Q 1781 4219 1451 3797 
Q 1122 3375 1075 2522 
Q 1259 2794 1537 2939 
Q 1816 3084 2150 3084 
Q 2853 3084 3261 2657 
Q 3669 2231 3669 1497 
Q 3669 778 3244 343 
Q 2819 -91 2113 -91 
Q 1303 -91 875 529 
Q 447 1150 447 2328 
Q 447 3434 972 4092 
Q 1497 4750 2381 4750 
Q 2619 4750 2861 4703 
Q 3103 4656 3366 4563 
z
" transform="scale(0.015625)"/>
       </defs>
       <use xlink:href="#DejaVuSans-36"/>
       <use xlink:href="#DejaVuSans-30" x="63.623047"/>
       <use xlink:href="#DejaVuSans-30" x="127.246094"/>
      </g>
     </g>
    </g>
    <g id="ytick_4">
     <g id="line2d_10">
      <g>
       <use xlink:href="#me83fa5080a" x="57.6" y="125.755362" style="stroke: #000000; stroke-width: 0.8"/>
      </g>
     </g>
     <g id="text_11">
      <!-- 800 -->
      <g transform="translate(31.5125 129.554581)scale(0.1 -0.1)">
       <defs>
        <path id="DejaVuSans-38" d="M 2034 2216 
Q 1584 2216 1326 1975 
Q 1069 1734 1069 1313 
Q 1069 891 1326 650 
Q 1584 409 2034 409 
Q 2484 409 2743 651 
Q 3003 894 3003 1313 
Q 3003 1734 2745 1975 
Q 2488 2216 2034 2216 
z
M 1403 2484 
Q 997 2584 770 2862 
Q 544 3141 544 3541 
Q 544 4100 942 4425 
Q 1341 4750 2034 4750 
Q 2731 4750 3128 4425 
Q 3525 4100 3525 3541 
Q 3525 3141 3298 2862 
Q 3072 2584 2669 2484 
Q 3125 2378 3379 2068 
Q 3634 1759 3634 1313 
Q 3634 634 3220 271 
Q 2806 -91 2034 -91 
Q 1263 -91 848 271 
Q 434 634 434 1313 
Q 434 1759 690 2068 
Q 947 2378 1403 2484 
z
M 1172 3481 
Q 1172 3119 1398 2916 
Q 1625 2713 2034 2713 
Q 2441 2713 2670 2916 
Q 2900 3119 2900 3481 
Q 2900 3844 2670 4047 
Q 2441 4250 2034 4250 
Q 1625 4250 1398 4047 
Q 1172 3844 1172 3481 
z
" transform="scale(0.015625)"/>
       </defs>
       <use xlink:href="#DejaVuSans-38"/>
       <use xlink:href="#DejaVuSans-30" x="63.623047"/>
       <use xlink:href="#DejaVuSans-30" x="127.246094"/>
      </g>
     </g>
    </g>
    <g id="ytick_5">
     <g id="line2d_11">
      <g>
       <use xlink:href="#me83fa5080a" x="57.6" y="68.999915" style="stroke: #000000; stroke-width: 0.8"/>
      </g>
     </g>
     <g id="text_12">
      <!-- 1000 -->
      <g transform="translate(25.15 72.799134)scale(0.1 -0.1)">
       <use xlink:href="#DejaVuSans-31"/>
       <use xlink:href="#DejaVuSans-30" x="63.623047"/>
       <use xlink:href="#DejaVuSans-30" x="127.246094"/>
       <use xlink:href="#DejaVuSans-30" x="190.869141"/>
      </g>
     </g>
    </g>
    <g id="text_13">
     <!-- Waiting Time/s -->
     <g transform="translate(19.070312 211.410031)rotate(-90)scale(0.1 -0.1)">
      <defs>
       <path id="DejaVuSans-57" d="M 213 4666 
L 850 4666 
L 1831 722 
L 2809 4666 
L 3519 4666 
L 4500 722 
L 5478 4666 
L 6119 4666 
L 4947 0 
L 4153 0 
L 3169 4050 
L 2175 0 
L 1381 0 
L 213 4666 
z
" transform="scale(0.015625)"/>
       <path id="DejaVuSans-61" d="M 2194 1759 
Q 1497 1759 1228 1600 
Q 959 1441 959 1056 
Q 959 750 1161 570 
Q 1363 391 1709 391 
Q 2188 391 2477 730 
Q 2766 1069 2766 1631 
L 2766 1759 
L 2194 1759 
z
M 3341 1997 
L 3341 0 
L 2766 0 
L 2766 531 
Q 2569 213 2275 61 
Q 1981 -91 1556 -91 
Q 1019 -91 701 211 
Q 384 513 384 1019 
Q 384 1609 779 1909 
Q 1175 2209 1959 2209 
L 2766 2209 
L 2766 2266 
Q 2766 2663 2505 2880 
Q 2244 3097 1772 3097 
Q 1472 3097 1187 3025 
Q 903 2953 641 2809 
L 641 3341 
Q 956 3463 1253 3523 
Q 1550 3584 1831 3584 
Q 2591 3584 2966 3190 
Q 3341 2797 3341 1997 
z
" transform="scale(0.015625)"/>
       <path id="DejaVuSans-69" d="M 603 3500 
L 1178 3500 
L 1178 0 
L 603 0 
L 603 3500 
z
M 603 4863 
L 1178 4863 
L 1178 4134 
L 603 4134 
L 603 4863 
z
" transform="scale(0.015625)"/>
       <path id="DejaVuSans-74" d="M 1172 4494 
L 1172 3500 
L 2356 3500 
L 2356 3053 
L 1172 3053 
L 1172 1153 
Q 1172 725 1289 603 
Q 1406 481 1766 481 
L 2356 481 
L 2356 0 
L 1766 0 
Q 1100 0 847 248 
Q 594 497 594 1153 
L 594 3053 
L 172 3053 
L 172 3500 
L 594 3500 
L 594 4494 
L 1172 4494 
z
" transform="scale(0.015625)"/>
       <path id="DejaVuSans-6e" d="M 3513 2113 
L 3513 0 
L 2938 0 
L 2938 2094 
Q 2938 2591 2744 2837 
Q 2550 3084 2163 3084 
Q 1697 3084 1428 2787 
Q 1159 2491 1159 1978 
L 1159 0 
L 581 0 
L 581 3500 
L 1159 3500 
L 1159 2956 
Q 1366 3272 1645 3428 
Q 1925 3584 2291 3584 
Q 2894 3584 3203 3211 
Q 3513 2838 3513 2113 
z
" transform="scale(0.015625)"/>
       <path id="DejaVuSans-67" d="M 2906 1791 
Q 2906 2416 2648 2759 
Q 2391 3103 1925 3103 
Q 1463 3103 1205 2759 
Q 947 2416 947 1791 
Q 947 1169 1205 825 
Q 1463 481 1925 481 
Q 2391 481 2648 825 
Q 2906 1169 2906 1791 
z
M 3481 434 
Q 3481 -459 3084 -895 
Q 2688 -1331 1869 -1331 
Q 1566 -1331 1297 -1286 
Q 1028 -1241 775 -1147 
L 775 -588 
Q 1028 -725 1275 -790 
Q 1522 -856 1778 -856 
Q 2344 -856 2625 -561 
Q 2906 -266 2906 331 
L 2906 616 
Q 2728 306 2450 153 
Q 2172 0 1784 0 
Q 1141 0 747 490 
Q 353 981 353 1791 
Q 353 2603 747 3093 
Q 1141 3584 1784 3584 
Q 2172 3584 2450 3431 
Q 2728 3278 2906 2969 
L 2906 3500 
L 3481 3500 
L 3481 434 
z
" transform="scale(0.015625)"/>
       <path id="DejaVuSans-54" d="M -19 4666 
L 3928 4666 
L 3928 4134 
L 2272 4134 
L 2272 0 
L 1638 0 
L 1638 4134 
L -19 4134 
L -19 4666 
z
" transform="scale(0.015625)"/>
       <path id="DejaVuSans-2f" d="M 1625 4666 
L 2156 4666 
L 531 -594 
L 0 -594 
L 1625 4666 
z
" transform="scale(0.015625)"/>
      </defs>
      <use xlink:href="#DejaVuSans-57"/>
      <use xlink:href="#DejaVuSans-61" x="92.501953"/>
      <use xlink:href="#DejaVuSans-69" x="153.78125"/>
      <use xlink:href="#DejaVuSans-74" x="181.564453"/>
      <use xlink:href="#DejaVuSans-69" x="220.773438"/>
      <use xlink:href="#DejaVuSans-6e" x="248.556641"/>
      <use xlink:href="#DejaVuSans-67" x="311.935547"/>
      <use xlink:href="#DejaVuSans-20" x="375.412109"/>
      <use xlink:href="#DejaVuSans-54" x="407.199219"/>
      <use xlink:href="#DejaVuSans-69" x="465.158203"/>
      <use xlink:href="#DejaVuSans-6d" x="492.941406"/>
      <use xlink:href="#DejaVuSans-65" x="590.353516"/>
      <use xlink:href="#DejaVuSans-2f" x="651.876953"/>
      <use xlink:href="#DejaVuSans-73" x="685.568359"/>
     </g>
    </g>
   </g>
   <g id="line2d_12">
    <path d="M 73.832727 295.488 
L 73.962615 268.237598 
L 74.027559 269.681211 
L 74.092503 276.212647 
L 74.352278 235.54016 
L 74.417222 235.236645 
L 74.482166 236.507453 
L 74.806886 223.981554 
L 74.936774 231.149975 
L 75.001717 230.1412 
L 75.261493 214.757355 
L 75.326437 213.307955 
L 75.456325 206.114061 
L 75.521269 207.624335 
L 75.7161 200.357199 
L 75.781044 200.188081 
L 76.04082 196.204421 
L 76.170708 197.708797 
L 76.235651 199.959789 
L 76.495427 192.80426 
L 76.560371 194.253634 
L 76.690259 188.650427 
L 76.950034 183.547768 
L 77.014978 182.831166 
L 77.144866 184.666896 
L 77.20981 183.280024 
L 77.274754 185.31076 
L 77.339698 184.86516 
L 77.404642 184.143224 
L 77.469586 184.527148 
L 77.534529 184.390428 
L 77.599473 184.455393 
L 77.729361 183.44892 
L 77.924193 185.899273 
L 78.054081 188.025239 
L 78.119025 187.068082 
L 78.183968 188.272022 
L 78.248912 188.007516 
L 78.3788 183.887303 
L 78.508688 184.865257 
L 78.573632 184.525546 
L 78.768464 185.800822 
L 78.833407 184.917938 
L 78.898351 185.323724 
L 79.093183 186.349494 
L 79.288015 183.481444 
L 79.352959 183.439351 
L 79.612734 186.104361 
L 79.677678 185.155211 
L 80.002398 183.832492 
L 80.392061 185.885513 
L 80.651837 183.001847 
L 80.976556 180.633315 
L 81.106444 180.008424 
L 81.301276 180.617454 
L 81.366219 180.888673 
L 81.625995 178.501973 
L 81.690939 179.184063 
L 81.755883 178.155052 
L 81.820827 178.461933 
L 81.885771 178.519624 
L 81.950715 179.421211 
L 82.015658 178.866579 
L 82.145546 177.867554 
L 82.275434 175.98858 
L 82.340378 176.577192 
L 82.53521 175.123378 
L 82.665097 175.379257 
L 82.794985 174.578354 
L 82.859929 173.994239 
L 82.989817 171.905999 
L 83.054761 172.171725 
L 83.249592 170.572832 
L 83.314536 170.644119 
L 83.444424 170.712924 
L 83.509368 171.56105 
L 83.769144 169.640256 
L 83.834088 169.654449 
L 83.963975 169.474828 
L 84.093863 169.940996 
L 84.158807 169.763449 
L 84.223751 170.002288 
L 84.353639 169.219542 
L 84.418583 169.304932 
L 84.483527 169.684258 
L 84.743302 166.943938 
L 84.808246 167.705774 
L 85.003078 166.350851 
L 85.197909 165.368527 
L 85.457685 163.149719 
L 85.522629 162.715478 
L 85.587573 163.610385 
L 85.652517 163.587557 
L 85.847348 162.896222 
L 85.912292 162.776726 
L 86.237012 164.686526 
L 86.756563 161.684547 
L 86.951395 160.867769 
L 87.406002 156.77624 
L 87.600834 157.636837 
L 87.665778 157.559415 
L 87.795665 158.088141 
L 88.055441 156.377155 
L 88.120385 156.615842 
L 88.185329 156.437024 
L 88.250273 156.152481 
L 88.315216 156.275397 
L 88.38016 156.621219 
L 88.445104 156.589585 
L 88.574992 155.208115 
L 88.899712 155.991104 
L 89.224431 154.565037 
L 89.354319 155.141457 
L 89.419263 155.002843 
L 89.808926 153.585902 
L 89.87387 153.650095 
L 89.938814 154.113105 
L 90.003758 153.829269 
L 90.068702 153.68535 
L 90.133646 153.752071 
L 90.19859 153.868164 
L 90.393421 152.861293 
L 90.458365 153.422725 
L 90.523309 153.291885 
L 90.848029 154.347571 
L 90.977916 153.976463 
L 91.04286 153.900136 
L 91.172748 153.283498 
L 91.237692 153.548206 
L 91.302636 153.380951 
L 91.36758 153.803468 
L 91.432524 153.782105 
L 91.562411 153.135666 
L 91.692299 153.288382 
L 91.887131 153.969708 
L 91.952075 153.962611 
L 92.146906 153.380662 
L 92.276794 153.791461 
L 92.406682 153.275109 
L 92.471626 153.393311 
L 92.53657 153.872243 
L 92.731402 153.143932 
L 92.926233 152.53909 
L 92.991177 152.829997 
L 93.056121 152.717574 
L 93.315897 152.283209 
L 93.380841 152.298601 
L 93.445784 152.525601 
L 93.510728 152.08729 
L 93.575672 152.121989 
L 93.640616 152.107051 
L 93.770504 152.477701 
L 94.095223 151.072504 
L 94.290055 150.79141 
L 94.354999 151.093866 
L 94.419943 150.981275 
L 94.484887 150.306128 
L 94.549831 150.51168 
L 94.614775 150.406385 
L 94.679718 149.7816 
L 94.744662 149.930639 
L 94.809606 149.965863 
L 95.069382 148.716597 
L 95.19927 148.851791 
L 95.264214 148.777187 
L 95.394101 148.967784 
L 95.459045 148.677429 
L 95.523989 149.006258 
L 95.588933 148.779661 
L 95.718821 148.226186 
L 95.783765 148.438741 
L 95.848709 147.923636 
L 95.913653 148.21419 
L 96.04354 148.282178 
L 96.108484 148.598348 
L 96.173428 148.462948 
L 96.36826 148.14323 
L 96.563092 147.507477 
L 96.628035 147.615237 
L 96.692979 147.387559 
L 96.887811 147.957035 
L 96.952755 147.900452 
L 97.082643 148.193933 
L 97.147587 147.983918 
L 97.407362 148.678668 
L 97.53725 148.457805 
L 97.602194 148.627516 
L 98.056801 146.481991 
L 98.186689 146.94264 
L 98.381521 145.991876 
L 98.511408 145.295407 
L 98.576352 145.625632 
L 98.641296 145.287527 
L 98.70624 145.401277 
L 98.771184 145.466985 
L 98.836128 145.784426 
L 98.901072 145.557927 
L 99.03096 145.312273 
L 99.225791 145.64572 
L 99.290735 145.575063 
L 99.355679 145.83348 
L 99.485567 145.601694 
L 99.550511 145.899886 
L 99.615455 145.684476 
L 99.810286 146.344707 
L 99.87523 146.054236 
L 99.940174 146.25871 
L 100.005118 146.036815 
L 100.070062 146.27358 
L 100.135006 146.201853 
L 100.19995 146.123242 
L 100.264894 146.338794 
L 100.329838 146.197419 
L 100.394782 146.293533 
L 100.719501 145.262063 
L 100.914333 145.826847 
L 101.04422 145.35192 
L 101.109164 145.389304 
L 101.174108 145.361666 
L 101.303996 145.717617 
L 101.433884 145.263921 
L 101.693659 145.181722 
L 101.758603 145.460133 
L 101.823547 145.355565 
L 101.888491 144.963478 
L 101.953435 145.229527 
L 102.148267 145.303517 
L 102.278155 145.173807 
L 102.343098 145.297638 
L 102.408042 144.861493 
L 102.472986 145.164811 
L 102.53793 145.220258 
L 102.732762 145.683469 
L 102.927594 145.145657 
L 102.992537 145.438357 
L 103.057481 145.216855 
L 103.122425 145.376683 
L 103.252313 145.188218 
L 103.382201 145.219501 
L 103.512089 145.182918 
L 103.70692 145.396297 
L 103.771864 145.395192 
L 103.836808 145.230764 
L 104.03164 145.517566 
L 104.291415 145.626063 
L 104.486247 146.075713 
L 104.746023 146.412151 
L 105.070742 145.617007 
L 105.135686 145.852869 
L 105.20063 145.802108 
L 105.265574 145.695576 
L 105.460406 146.146795 
L 105.525349 145.97275 
L 105.590293 146.030729 
L 105.655237 146.044507 
L 105.720181 146.223447 
L 105.915013 145.825155 
L 106.044901 146.088337 
L 106.109845 145.969243 
L 106.239732 145.55115 
L 106.304676 145.525075 
L 106.434564 145.036481 
L 106.499508 145.189296 
L 106.564452 145.264149 
L 106.629396 145.023106 
L 106.69434 145.189991 
L 106.759283 145.141923 
L 106.889171 145.699979 
L 107.084003 145.285413 
L 107.148947 145.375448 
L 107.213891 145.325899 
L 107.278835 145.334453 
L 107.473666 144.726124 
L 107.603554 144.911534 
L 107.668498 144.673427 
L 107.733442 144.821252 
L 107.798386 145.093732 
L 107.86333 145.015211 
L 107.928274 145.111856 
L 107.993218 145.026676 
L 108.123105 144.691166 
L 108.188049 144.719975 
L 108.382881 144.711623 
L 108.642657 144.493046 
L 108.902432 144.844123 
L 108.967376 144.627154 
L 109.03232 144.788515 
L 109.097264 144.797966 
L 109.421983 144.175884 
L 109.486927 144.304221 
L 109.616815 144.110167 
L 109.746703 144.364508 
L 109.811647 144.302316 
L 109.941534 144.260986 
L 110.071422 144.403749 
L 110.266254 143.978699 
L 110.655917 144.636212 
L 110.720861 144.573408 
L 110.785805 144.803338 
L 111.045581 144.222702 
L 111.110525 144.440388 
L 111.175469 144.314525 
L 111.305356 143.916681 
L 111.500188 144.401285 
L 111.69502 143.99122 
L 111.759964 144.187253 
L 111.824908 144.049122 
L 111.889851 144.106302 
L 112.084683 143.805067 
L 112.279515 143.940256 
L 112.474347 143.556435 
L 112.53929 143.63519 
L 112.799066 142.966156 
L 112.86401 142.97629 
L 113.058842 142.798267 
L 113.448505 142.981083 
L 113.643337 142.712995 
L 113.708281 142.785907 
L 113.773224 142.709069 
L 114.292776 141.621013 
L 114.35772 141.851205 
L 114.422663 141.807135 
L 114.487607 141.763214 
L 114.617495 141.459769 
L 114.747383 141.688407 
L 114.877271 141.553716 
L 115.007159 141.820006 
L 115.072102 141.671883 
L 115.396822 140.987414 
L 115.461766 141.066791 
L 115.591654 141.33314 
L 115.851429 140.687378 
L 115.916373 140.84134 
L 115.981317 140.636573 
L 116.046261 140.718602 
L 116.306036 140.880236 
L 116.37098 140.723409 
L 116.565812 141.142495 
L 116.760644 140.907412 
L 116.825588 140.971724 
L 117.020419 140.607667 
L 117.085363 140.718874 
L 117.215251 140.332822 
L 117.280195 140.421211 
L 117.475027 140.133265 
L 117.604914 140.28848 
L 117.669858 140.425885 
L 117.734802 140.384644 
L 117.86469 139.941239 
L 118.254353 140.256198 
L 118.384241 140.099383 
L 118.449185 140.165907 
L 118.514129 139.953825 
L 118.579073 140.061066 
L 118.644017 139.977867 
L 118.708961 139.526262 
L 118.773905 139.554751 
L 119.03368 139.951483 
L 119.488287 139.335777 
L 119.618175 139.535233 
L 119.748063 139.264402 
L 119.877951 139.456028 
L 119.942895 139.242152 
L 120.007839 139.354355 
L 120.137726 139.268374 
L 120.20267 139.451917 
L 120.52739 138.816706 
L 120.592334 138.842944 
L 120.657278 139.002454 
L 120.722222 138.908434 
L 120.852109 138.735271 
L 121.046941 138.880957 
L 121.111885 138.875631 
L 121.241773 138.661455 
L 121.501548 138.871056 
L 121.566492 138.807269 
L 121.761324 139.001042 
L 121.956156 138.75919 
L 122.150987 138.85941 
L 122.215931 139.066237 
L 122.280875 138.995031 
L 122.410763 138.975937 
L 122.540651 139.237114 
L 122.735482 139.419258 
L 122.995258 139.564762 
L 123.125146 139.466282 
L 123.319977 139.595923 
L 123.514809 139.642886 
L 123.579753 139.849704 
L 123.644697 139.672875 
L 123.709641 139.734857 
L 123.774585 139.803293 
L 123.969416 139.458024 
L 124.03436 139.441367 
L 124.099304 139.302394 
L 124.164248 139.339055 
L 124.424024 139.515934 
L 124.488968 139.373527 
L 124.553912 139.45588 
L 124.618855 139.412906 
L 124.748743 139.146977 
L 124.813687 139.173064 
L 125.008519 138.951903 
L 125.20335 139.023006 
L 125.333238 139.035543 
L 125.52807 139.081492 
L 125.593014 138.96484 
L 125.657958 139.034416 
L 125.852789 139.009311 
L 126.047621 139.298926 
L 126.242453 139.132316 
L 126.437285 139.054587 
L 126.502228 138.822601 
L 126.567172 138.922536 
L 126.632116 138.898047 
L 126.69706 139.071136 
L 126.762004 138.784368 
L 126.826948 138.991843 
L 127.151667 138.910832 
L 127.281555 138.857175 
L 127.346499 138.850328 
L 127.411443 138.96228 
L 127.606275 138.684464 
L 127.801106 138.61631 
L 127.86605 138.72559 
L 128.060882 138.232362 
L 128.320658 138.432337 
L 128.385601 138.269901 
L 128.450545 138.304496 
L 128.515489 138.394187 
L 128.580433 138.338227 
L 128.710321 138.28303 
L 128.840209 138.405777 
L 128.905153 138.251306 
L 128.970097 138.380022 
L 129.099984 138.433411 
L 129.229872 138.370688 
L 129.294816 138.191556 
L 129.35976 138.261141 
L 129.749423 138.419115 
L 129.944255 138.164404 
L 130.074143 138.165299 
L 130.139087 138.290698 
L 130.204031 138.210619 
L 130.268975 138.091852 
L 130.333918 138.175563 
L 130.85347 137.896695 
L 130.918414 137.734426 
L 130.983357 137.782625 
L 131.243133 137.643065 
L 131.437965 137.563563 
L 131.567852 137.878818 
L 131.632796 137.798561 
L 131.827628 138.113113 
L 131.892572 137.896308 
L 131.957516 138.04118 
L 132.412123 138.5069 
L 132.477067 138.398151 
L 132.801787 137.78073 
L 132.86673 137.824492 
L 132.996618 138.090779 
L 133.126506 137.786818 
L 133.256394 137.832996 
L 133.386282 137.424316 
L 133.516169 137.588947 
L 133.581113 137.402079 
L 133.646057 137.429082 
L 133.840889 137.395909 
L 133.970777 137.791083 
L 134.035721 137.689661 
L 134.165608 137.811674 
L 134.36044 137.61557 
L 134.555272 137.677361 
L 134.815047 137.525278 
L 135.009879 137.658679 
L 135.074823 137.664601 
L 135.334599 137.940577 
L 135.724262 137.546444 
L 135.919094 137.283651 
L 135.984038 137.208173 
L 136.048981 137.265159 
L 136.178869 137.525088 
L 136.243813 137.462738 
L 136.503589 137.396436 
L 136.69842 137.226594 
L 137.153028 137.051221 
L 137.282915 137.079808 
L 137.477747 136.903716 
L 137.932354 136.964657 
L 138.322018 137.51712 
L 138.581793 136.984417 
L 138.646737 137.124757 
L 138.711681 137.009364 
L 138.971457 137.017965 
L 139.101345 137.177067 
L 139.296176 136.975273 
L 139.491008 137.201992 
L 139.555952 137.15535 
L 139.68584 137.34147 
L 139.750784 137.295088 
L 139.880671 137.152299 
L 140.075503 137.326679 
L 140.400223 137.014476 
L 140.53011 136.798903 
L 140.659998 136.754169 
L 140.789886 136.579145 
L 140.984718 136.773338 
L 141.244493 136.533814 
L 141.309437 136.599575 
L 141.504269 136.433283 
L 141.893932 136.421647 
L 142.02382 136.546311 
L 142.153708 136.452649 
L 142.218652 136.533663 
L 142.34854 136.379187 
L 142.413483 136.428377 
L 142.608315 136.277346 
L 142.803147 136.413348 
L 143.062922 136.297206 
L 143.127866 136.382595 
L 143.19281 136.181447 
L 143.257754 136.260887 
L 143.452586 136.270057 
L 143.51753 136.387311 
L 143.582474 136.329539 
L 144.037081 136.389512 
L 144.166969 136.433661 
L 144.231913 136.32758 
L 144.296856 136.38224 
L 144.3618 136.419663 
L 144.426744 136.295365 
L 144.491688 136.339974 
L 144.556632 136.367087 
L 144.751464 136.154126 
L 145.076183 136.370891 
L 145.206071 136.138341 
L 145.271015 136.27948 
L 145.660678 136.755308 
L 145.85551 136.420983 
L 145.985398 136.463272 
L 146.245173 136.619446 
L 146.310117 136.737644 
L 146.375061 136.681289 
L 146.634837 136.852688 
L 146.829668 136.630144 
L 146.894612 136.781515 
L 146.959556 136.742193 
L 147.219332 136.642968 
L 147.34922 136.593153 
L 149.037761 137.18563 
L 149.167649 137.079863 
L 149.427424 137.250579 
L 149.946976 137.66425 
L 150.141807 137.5651 
L 150.336639 137.700072 
L 150.466527 137.805723 
L 150.596415 137.72257 
L 150.661358 137.77209 
L 151.115966 137.262061 
L 151.375741 137.315502 
L 151.570573 137.427725 
L 151.765405 137.226852 
L 152.220012 137.422804 
L 152.544731 137.358628 
L 152.609675 137.450943 
L 152.674619 137.40497 
L 152.804507 137.42135 
L 152.934395 137.533472 
L 153.843609 137.536109 
L 153.973497 137.438089 
L 154.103385 137.478547 
L 154.233273 137.378451 
L 154.298217 137.424556 
L 154.493048 137.205565 
L 154.817768 137.626828 
L 155.0126 137.786259 
L 155.077544 137.605721 
L 155.142487 137.65468 
L 155.272375 137.645919 
L 155.402263 137.683042 
L 155.662039 137.617762 
L 156.116646 137.671954 
L 156.311478 137.527982 
L 156.636197 137.64741 
L 156.701141 137.562862 
L 156.766085 137.657618 
L 156.895973 137.853373 
L 156.960917 137.774876 
L 157.610356 137.844415 
L 157.740243 137.821383 
L 157.935075 137.712552 
L 158.194851 137.704771 
L 158.324738 137.690808 
L 159.039121 137.749746 
L 159.233953 137.837603 
L 159.363841 137.869654 
L 159.558672 137.556895 
L 159.818448 137.40878 
L 160.078224 137.551787 
L 160.273055 137.343972 
L 160.337999 137.39802 
L 160.532831 137.191657 
L 160.922494 137.065488 
L 161.442046 137.186847 
L 161.571933 137.061867 
L 161.701821 137.154625 
L 162.221372 136.869265 
L 162.35126 136.939709 
L 162.611036 136.765303 
L 162.740923 136.817027 
L 162.870811 136.637998 
L 162.935755 136.701867 
L 163.065643 136.620906 
L 163.325419 136.684496 
L 163.52025 136.63625 
L 163.974858 136.730472 
L 164.234633 136.176718 
L 164.364521 136.094027 
L 164.559353 135.881888 
L 164.884072 135.897438 
L 165.01396 135.773545 
L 165.078904 135.850948 
L 165.273735 135.659585 
L 165.403623 135.633877 
L 165.793287 135.492481 
L 166.50767 135.505857 
L 166.572613 135.602393 
L 166.637557 135.510663 
L 167.092165 135.549631 
L 167.222052 135.67045 
L 167.416884 135.464961 
L 167.67666 135.272841 
L 167.741604 135.398739 
L 167.871491 135.340049 
L 168.066323 135.186188 
L 168.391043 135.211569 
L 168.650818 135.139897 
L 169.105425 135.194401 
L 169.235313 135.30229 
L 169.430145 135.253491 
L 169.689921 135.276719 
L 169.819808 135.459488 
L 169.884752 135.317671 
L 169.949696 135.348482 
L 170.079584 135.366619 
L 170.404303 135.475636 
L 170.988798 135.209458 
L 171.313518 135.354962 
L 171.50835 135.180349 
L 171.638237 135.366636 
L 171.703181 135.310318 
L 171.833069 135.311464 
L 172.157789 135.17807 
L 172.35262 135.129795 
L 172.482508 135.157144 
L 172.872172 135.161289 
L 174.106106 134.378671 
L 174.235993 134.417838 
L 174.560713 134.172759 
L 174.625657 134.22688 
L 174.690601 134.136379 
L 175.34004 133.616441 
L 175.404984 133.715584 
L 175.469927 133.653343 
L 175.664759 133.531654 
L 175.794647 133.428388 
L 176.054423 133.349582 
L 176.249254 133.474927 
L 176.833749 133.391916 
L 177.093525 133.124501 
L 177.3533 133.102801 
L 177.418244 133.195748 
L 177.483188 133.128308 
L 177.613076 133.22109 
L 177.742964 133.177023 
L 177.937796 133.154451 
L 178.197571 132.966164 
L 178.457347 132.898092 
L 178.652178 132.805601 
L 178.782066 132.851947 
L 179.17173 132.442136 
L 179.756225 132.677646 
L 180.016 132.592949 
L 180.145888 132.656194 
L 180.405664 132.564773 
L 180.730383 132.541516 
L 180.925215 132.399906 
L 181.120047 132.366834 
L 181.18499 132.289338 
L 181.249934 132.344488 
L 181.574654 132.523697 
L 181.964317 132.437799 
L 182.094205 132.474821 
L 182.289037 132.545104 
L 182.483868 132.579423 
L 182.613756 132.642923 
L 182.743644 132.619233 
L 183.328139 132.635332 
L 183.522971 132.639059 
L 184.17241 132.572546 
L 184.237354 132.689723 
L 184.302298 132.636272 
L 184.432185 132.740523 
L 184.627017 132.872077 
L 185.146568 132.755117 
L 185.471288 132.83525 
L 185.536232 132.791691 
L 185.666119 132.928819 
L 186.705222 132.485088 
L 186.964997 132.518809 
L 187.354661 132.491922 
L 187.484549 132.541376 
L 187.614436 132.556385 
L 188.0041 132.641139 
L 188.328819 132.558956 
L 189.497809 132.460953 
L 189.692641 132.519599 
L 189.952417 132.392695 
L 190.536912 132.124062 
L 190.6668 132.032186 
L 191.251295 132.080471 
L 191.51107 131.877307 
L 191.770846 131.915014 
L 191.965677 131.881179 
L 192.095565 131.926117 
L 192.225453 131.8805 
L 192.809948 132.143368 
L 193.00478 132.241027 
L 193.264555 131.945601 
L 193.329499 132.006803 
L 193.524331 131.998889 
L 193.719163 131.832155 
L 193.913994 131.827509 
L 193.978938 131.768283 
L 194.043882 131.854945 
L 194.238714 131.817918 
L 194.49849 131.939338 
L 194.758265 131.963328 
L 194.888153 131.874244 
L 195.212872 131.57578 
L 195.34276 131.656039 
L 195.66748 131.601182 
L 195.992199 131.570232 
L 196.316919 131.431229 
L 196.51175 131.615049 
L 197.096245 131.508526 
L 197.161189 131.503863 
L 197.291077 131.367883 
L 197.420965 131.399941 
L 197.550853 131.396804 
L 197.745684 131.252075 
L 198.589955 131.197521 
L 198.784787 131.094449 
L 199.17445 130.997039 
L 199.304338 131.035115 
L 199.49917 131.024277 
L 199.888833 130.825584 
L 200.083665 130.821549 
L 200.473328 130.862906 
L 200.538272 130.784867 
L 200.603216 130.858891 
L 201.057823 130.86358 
L 201.447487 130.831729 
L 201.642318 130.872959 
L 202.941196 130.720184 
L 203.071084 130.718589 
L 203.33086 130.584408 
L 203.590635 130.531412 
L 204.045243 130.39548 
L 204.240074 130.492189 
L 204.305018 130.444387 
L 204.49985 130.577273 
L 205.279177 130.50658 
L 205.798728 130.744225 
L 206.123447 130.499849 
L 206.318279 130.649038 
L 206.578055 130.440964 
L 206.772886 130.455445 
L 207.16255 130.417533 
L 207.357381 130.336637 
L 207.617157 130.33228 
L 207.876932 130.179273 
L 208.071764 130.316882 
L 208.33154 130.077 
L 208.591315 130.062097 
L 208.786147 130.049462 
L 208.980979 130.102647 
L 209.17581 130.075488 
L 209.370642 129.987131 
L 210.149969 129.865621 
L 210.799408 129.875981 
L 210.99424 129.787867 
L 211.124127 129.761933 
L 211.578735 129.76849 
L 211.708622 129.699653 
L 212.098286 129.809949 
L 212.293118 129.892736 
L 212.552893 129.683198 
L 213.0075 129.558616 
L 213.202332 129.496137 
L 214.046603 129.529586 
L 214.241434 129.416844 
L 214.50121 129.485845 
L 214.760986 129.404497 
L 215.150649 129.38857 
L 215.410425 129.21805 
L 216.709303 129.522533 
L 216.83919 129.483909 
L 217.423685 129.541471 
L 217.813349 129.733725 
L 218.267956 129.286869 
L 218.462788 129.379206 
L 218.917395 129.315683 
L 219.307059 129.468134 
L 219.436946 129.467244 
L 220.411105 129.079862 
L 220.605936 129.125979 
L 221.385263 129.094472 
L 221.515151 129.092613 
L 221.904814 129.028253 
L 222.229534 129.018725 
L 222.489309 129.042576 
L 224.177851 128.905375 
L 224.307739 128.911703 
L 224.437626 128.820208 
L 224.632458 128.833103 
L 224.762346 128.789736 
L 224.892234 128.805199 
L 225.087065 128.79785 
L 225.281897 128.849262 
L 225.67156 128.876652 
L 225.931336 128.814387 
L 226.126168 128.867129 
L 226.256056 128.819192 
L 226.450887 128.854422 
L 226.710663 128.883546 
L 227.230214 128.886162 
L 227.554934 128.949913 
L 227.749765 128.947659 
L 227.879653 128.87884 
L 228.139429 128.978808 
L 228.33426 129.041813 
L 228.529092 128.985492 
L 228.723924 128.923328 
L 229.113587 128.909034 
L 231.256736 129.070937 
L 231.451567 129.084542 
L 231.971119 128.922139 
L 232.101006 128.896306 
L 232.295838 128.929482 
L 232.555614 128.828097 
L 232.685501 128.866631 
L 232.880333 128.716621 
L 233.33494 128.825182 
L 233.464828 128.856117 
L 234.114267 128.74452 
L 234.438987 128.885348 
L 234.893594 128.904954 
L 235.023482 128.890904 
L 235.348201 128.848456 
L 235.672921 128.945086 
L 235.867752 129.01779 
L 235.99764 129.000559 
L 236.192472 129.056606 
L 236.32236 129.094983 
L 236.517191 129.087832 
L 236.841911 129.10513 
L 237.945957 129.027165 
L 238.140789 129.07845 
L 238.725284 128.997557 
L 240.413825 129.016584 
L 241.193152 128.860124 
L 241.517872 128.914461 
L 242.81675 128.991332 
L 243.076525 129.104679 
L 243.466189 129.183097 
L 243.855852 129.321666 
L 244.050684 129.323271 
L 244.505291 129.361341 
L 245.15473 129.46384 
L 246.583496 129.521186 
L 247.297878 129.458846 
L 247.49271 129.498177 
L 247.752486 129.556621 
L 247.947317 129.504324 
L 248.921476 129.206508 
L 249.181252 129.282534 
L 250.220354 129.124094 
L 250.480129 128.921682 
L 250.804849 129.012881 
L 251.584176 128.98211 
L 252.038783 128.811774 
L 252.298559 128.833688 
L 253.9871 128.870122 
L 254.376763 128.787086 
L 255.091146 128.782821 
L 255.675641 128.620375 
L 256.065305 128.641949 
L 256.519912 128.503389 
L 256.909575 128.575263 
L 257.299239 128.531828 
L 257.49407 128.545081 
L 258.143509 128.420266 
L 258.403285 128.450399 
L 258.533173 128.472651 
L 259.052724 128.493565 
L 260.611378 128.387057 
L 261.065985 128.510956 
L 261.195873 128.534022 
L 261.520592 128.480962 
L 261.780368 128.524193 
L 261.910256 128.542727 
L 262.364863 128.607088 
L 262.689582 128.606729 
L 263.014302 128.619585 
L 263.339021 128.605435 
L 263.598797 128.646103 
L 264.962619 128.515441 
L 265.15745 128.494014 
L 265.741945 128.59509 
L 265.936777 128.620543 
L 266.97588 128.71144 
L 267.235655 128.736977 
L 267.365543 128.734328 
L 267.690262 128.557563 
L 268.534533 128.661258 
L 268.794309 128.606071 
L 270.093187 128.504026 
L 270.352962 128.512589 
L 270.612738 128.53465 
L 270.937457 128.628204 
L 272.366223 128.822354 
L 272.496111 128.794968 
L 273.535213 128.847245 
L 273.730045 128.734244 
L 274.249596 128.772252 
L 274.899035 128.579236 
L 275.223755 128.630086 
L 275.80825 128.478643 
L 276.003081 128.555376 
L 276.522633 128.33736 
L 276.782408 128.353828 
L 277.042184 128.341608 
L 281.133649 128.646284 
L 281.393425 128.691735 
L 282.237696 128.686724 
L 284.705564 128.767358 
L 285.614778 128.816036 
L 285.80961 128.815486 
L 287.043544 128.710568 
L 287.368263 128.695794 
L 287.952759 128.507689 
L 288.14759 128.495634 
L 288.797029 128.441803 
L 289.446468 128.231588 
L 289.706244 128.255099 
L 290.095907 128.125678 
L 291.199953 128.162657 
L 291.524673 128.056723 
L 292.304 128.141061 
L 292.498831 128.073676 
L 292.758607 128.081854 
L 293.213214 128.090424 
L 293.408046 127.959249 
L 293.602878 127.979407 
L 294.317261 127.933218 
L 294.512092 127.855059 
L 295.096587 127.793204 
L 295.551195 127.681233 
L 295.746026 127.69258 
L 296.395465 127.725089 
L 296.655241 127.715596 
L 296.97996 127.734587 
L 297.239736 127.735053 
L 297.499512 127.68974 
L 297.824231 127.660171 
L 298.084007 127.618568 
L 298.733446 127.659325 
L 299.123109 127.654771 
L 300.097267 127.651932 
L 300.421987 127.615535 
L 301.655921 127.620104 
L 302.045584 127.68306 
L 302.435248 127.66321 
L 302.695023 127.6245 
L 303.993901 127.804675 
L 304.448509 127.770321 
L 304.708284 127.825678 
L 305.033004 127.744958 
L 305.487611 127.683373 
L 306.007162 127.630937 
L 306.461769 127.546838 
L 307.111208 127.495336 
L 307.30604 127.430738 
L 309.189413 127.450598 
L 309.514133 127.389507 
L 310.813011 127.333503 
L 311.13773 127.388146 
L 312.176832 127.250466 
L 312.436608 127.18404 
L 312.63144 127.186251 
L 313.345823 127.145493 
L 313.47571 127.140532 
L 315.229196 127.092874 
L 315.488971 127.106439 
L 315.813691 127.043143 
L 316.657961 127.075814 
L 316.787849 127.060245 
L 317.242456 127.164893 
L 317.567176 127.182805 
L 317.956839 127.342371 
L 318.216615 127.361457 
L 318.80111 127.416357 
L 319.190773 127.52007 
L 319.450549 127.535368 
L 319.775269 127.539579 
L 320.164932 127.653615 
L 320.684483 127.616291 
L 321.268978 127.657572 
L 321.528754 127.599922 
L 323.542015 127.484868 
L 323.736846 127.482959 
L 324.451229 127.559076 
L 325.100668 127.621697 
L 325.360444 127.580796 
L 325.490332 127.576534 
L 325.750107 127.507308 
L 326.13977 127.610759 
L 326.659322 127.603171 
L 326.854153 127.544434 
L 327.308761 127.580025 
L 327.568536 127.529437 
L 329.062246 127.468281 
L 330.101348 127.592472 
L 330.491012 127.54961 
L 330.750787 127.56844 
L 332.439329 127.31639 
L 332.63416 127.346511 
L 332.828992 127.297841 
L 333.218655 127.265297 
L 335.29686 127.091236 
L 335.491692 127.11376 
L 335.686523 127.042142 
L 336.725626 126.984018 
L 336.985401 127.000768 
L 337.180233 127.01308 
L 337.440009 127.052469 
L 337.829672 127.160937 
L 338.219336 127.157595 
L 338.608999 127.152667 
L 338.868774 127.136476 
L 339.193494 127.204814 
L 339.583157 127.150203 
L 340.62226 127.088057 
L 341.141811 127.201254 
L 341.46653 127.18036 
L 341.726306 127.170319 
L 343.28496 127.288385 
L 343.674623 127.219686 
L 343.934399 127.228942 
L 345.103389 127.29088 
L 345.363164 127.244588 
L 345.557996 127.243445 
L 346.012603 127.343577 
L 347.181593 127.325257 
L 347.636201 127.35746 
L 348.025864 127.430887 
L 349.714405 127.634176 
L 350.104069 127.602693 
L 350.363844 127.587246 
L 350.688564 127.642781 
L 351.208115 127.679714 
L 351.662722 127.687325 
L 352.247217 127.709673 
L 352.571937 127.724705 
L 354.195534 127.923267 
L 354.520254 127.898579 
L 355.494412 128.111343 
L 359.845653 128.498505 
L 360.9497 128.524722 
L 361.209475 128.534494 
L 361.404307 128.53736 
L 362.313522 128.61724 
L 362.962961 128.513197 
L 363.352624 128.641712 
L 363.742287 128.693106 
L 364.586558 128.605033 
L 365.235997 128.649278 
L 365.690604 128.677784 
L 367.314202 128.798845 
L 367.573977 128.813412 
L 368.61308 128.946419 
L 368.937799 128.897691 
L 369.132631 128.856342 
L 369.45735 128.863949 
L 369.78207 128.883012 
L 369.976902 128.823843 
L 371.990162 128.95435 
L 372.249938 128.968722 
L 373.678704 129.02189 
L 373.873535 129.068904 
L 374.328143 129.094297 
L 376.27646 129.099539 
L 376.471291 129.075344 
L 377.510394 129.165319 
L 377.770169 129.232421 
L 378.744328 129.139119 
L 379.78343 129.110582 
L 380.043206 129.104957 
L 380.822533 129.164431 
L 382.056467 129.172046 
L 382.640962 129.129396 
L 384.394447 129.134271 
L 384.719166 129.06467 
L 385.043886 129.066613 
L 385.368605 129.0435 
L 385.9531 129.118053 
L 387.901417 129.15669 
L 389.460071 129.128412 
L 389.849734 129.12492 
L 390.304342 129.070299 
L 391.018724 128.926818 
L 391.2785 128.916935 
L 391.60322 128.813603 
L 391.992883 128.746695 
L 397.058507 128.556659 
L 397.643002 128.553134 
L 398.487273 128.379071 
L 398.487273 128.379071 
" clip-path="url(#p1c5028205d)" style="fill: none; stroke-dasharray: 2,3.3; stroke-dashoffset: 0; stroke: #0000ff; stroke-width: 2"/>
   </g>
   <g id="line2d_13">
    <path d="M 73.832727 295.488 
L 73.962615 268.237598 
L 74.027559 269.681211 
L 74.092503 276.212647 
L 74.352278 235.54016 
L 74.417222 235.236645 
L 74.741942 222.299288 
L 74.806886 220.091945 
L 74.936774 227.922202 
L 75.001717 227.194851 
L 75.391381 202.453089 
L 75.456325 202.342587 
L 75.651156 195.65275 
L 75.7161 195.599333 
L 76.04082 182.040696 
L 76.105764 181.755524 
L 76.170708 178.226854 
L 76.235651 180.250551 
L 76.300595 182.287386 
L 76.430483 178.568707 
L 76.625315 173.485104 
L 76.690259 173.535576 
L 76.88509 168.861279 
L 77.079922 165.05992 
L 77.144866 165.207193 
L 77.274754 166.960887 
L 77.404642 168.26974 
L 77.469586 167.45383 
L 77.664417 168.820467 
L 77.794305 164.768028 
L 77.924193 167.60899 
L 78.054081 165.817307 
L 78.119025 166.59505 
L 78.183968 166.297844 
L 78.248912 164.414699 
L 78.313856 164.766122 
L 78.3788 164.726658 
L 78.443744 165.024762 
L 78.508688 163.771596 
L 78.573632 164.405258 
L 78.638576 164.74003 
L 78.70352 163.942506 
L 78.833407 165.556819 
L 79.093183 158.991478 
L 79.158127 159.061191 
L 79.223071 159.410872 
L 79.288015 159.021196 
L 79.417902 160.572135 
L 79.482846 160.203912 
L 79.612734 157.21446 
L 79.87251 158.41946 
L 79.937454 157.928295 
L 80.002398 158.090961 
L 80.067341 158.812878 
L 80.392061 155.987903 
L 80.457005 155.966542 
L 80.521949 156.644353 
L 80.586893 154.286743 
L 80.651837 154.96997 
L 80.71678 154.959925 
L 80.781724 153.354275 
L 80.846668 154.078393 
L 81.106444 150.7749 
L 81.301276 148.284518 
L 81.366219 149.036713 
L 81.561051 150.270157 
L 81.625995 151.520579 
L 81.885771 148.731886 
L 81.950715 148.614882 
L 82.145546 146.839084 
L 82.470266 142.600975 
L 82.53521 142.658093 
L 82.600153 143.076204 
L 82.730041 141.767447 
L 82.859929 140.813485 
L 82.924873 142.075807 
L 82.989817 141.327227 
L 83.054761 141.595787 
L 83.119705 140.576448 
L 83.184649 141.026293 
L 83.249592 141.575237 
L 83.314536 141.298262 
L 83.574312 136.991529 
L 83.639256 137.031672 
L 83.7042 136.939578 
L 84.158807 133.537906 
L 84.223751 134.007801 
L 84.288695 133.28431 
L 84.353639 133.329891 
L 84.418583 133.415092 
L 84.483527 134.369454 
L 84.54847 134.173251 
L 84.808246 131.018089 
L 84.87319 130.528733 
L 84.938134 129.122407 
L 85.003078 129.470783 
L 85.262853 127.999539 
L 85.392741 129.706615 
L 85.457685 128.618313 
L 85.522629 128.71129 
L 85.587573 129.624586 
L 85.652517 129.113731 
L 85.847348 128.147937 
L 85.912292 128.761156 
L 85.977236 128.574838 
L 86.04218 128.722259 
L 86.107124 128.071958 
L 86.172068 128.608801 
L 86.431843 126.061708 
L 86.496787 125.829898 
L 86.561731 124.815568 
L 86.626675 125.193884 
L 86.691619 124.729481 
L 86.821507 123.274135 
L 86.951395 122.60064 
L 87.081282 121.892479 
L 87.146226 122.506365 
L 87.341058 121.299082 
L 87.406002 121.373774 
L 87.665778 119.216842 
L 87.730721 119.382607 
L 87.925553 120.591266 
L 88.120385 121.054339 
L 88.315216 120.049465 
L 88.38016 120.141561 
L 88.445104 120.084384 
L 88.510048 119.703117 
L 88.574992 119.809174 
L 88.639936 120.052955 
L 88.834768 117.200771 
L 88.899712 117.503455 
L 88.964655 117.579467 
L 89.224431 116.432729 
L 89.289375 116.523353 
L 89.419263 116.201386 
L 89.484207 116.505322 
L 89.549151 116.328658 
L 89.614094 116.404534 
L 89.87387 118.052577 
L 89.938814 118.167351 
L 90.133646 116.799671 
L 90.19859 116.071858 
L 90.263533 116.360322 
L 90.393421 116.077005 
L 90.783085 114.646002 
L 90.848029 114.656873 
L 90.912972 114.416709 
L 91.04286 114.969132 
L 91.172748 113.890817 
L 91.237692 114.199068 
L 91.302636 113.909583 
L 91.432524 114.24664 
L 91.497467 114.1402 
L 91.757243 114.836109 
L 91.822187 114.627688 
L 91.887131 114.762414 
L 91.952075 114.980231 
L 92.341738 112.005504 
L 92.406682 112.446766 
L 92.471626 112.044424 
L 92.601514 112.5749 
L 92.796345 112.084057 
L 92.861289 112.207323 
L 93.056121 110.932904 
L 93.250953 111.543788 
L 93.315897 111.425921 
L 93.380841 111.091797 
L 93.445784 111.262023 
L 93.510728 111.011003 
L 93.575672 111.238323 
L 93.770504 110.204347 
L 93.835448 110.709045 
L 93.965336 110.109153 
L 94.03028 110.296866 
L 94.095223 110.201023 
L 94.160167 110.328286 
L 94.354999 109.168805 
L 94.419943 109.305018 
L 94.549831 108.922446 
L 94.614775 108.945319 
L 94.679718 109.102312 
L 95.004438 107.574397 
L 95.264214 106.230022 
L 95.394101 106.732793 
L 95.459045 106.528441 
L 95.523989 106.302026 
L 95.588933 106.626735 
L 95.653877 106.59528 
L 95.718821 106.509068 
L 95.848709 105.915276 
L 95.913653 106.282274 
L 95.978596 106.122248 
L 96.04354 105.751574 
L 96.108484 105.91908 
L 96.173428 105.937956 
L 96.36826 106.576345 
L 96.433204 106.347015 
L 96.498148 106.55081 
L 96.563092 105.753495 
L 96.628035 106.235232 
L 96.692979 105.790341 
L 96.822867 106.386818 
L 97.017699 105.917716 
L 97.082643 106.299092 
L 97.407362 104.425473 
L 97.602194 105.425435 
L 97.861969 104.586743 
L 97.926913 104.66776 
L 98.056801 103.645918 
L 98.121745 103.782687 
L 98.186689 103.954459 
L 98.251633 103.89066 
L 98.316577 103.819326 
L 98.446465 103.209419 
L 98.511408 103.58014 
L 98.576352 103.205409 
L 98.641296 103.358793 
L 98.70624 103.775655 
L 98.771184 102.942235 
L 98.836128 103.16235 
L 98.966016 103.174667 
L 99.03096 102.772748 
L 99.095904 103.047576 
L 99.225791 102.455479 
L 99.355679 102.868749 
L 99.485567 102.5871 
L 99.615455 102.889262 
L 99.680399 102.534085 
L 99.745343 102.729494 
L 99.87523 102.465604 
L 100.394782 100.28948 
L 100.459725 100.646791 
L 100.654557 99.87076 
L 100.719501 100.178157 
L 100.914333 99.128201 
L 100.979277 99.074115 
L 101.04422 99.318954 
L 101.109164 98.880729 
L 101.174108 98.972311 
L 101.36894 98.570097 
L 101.433884 98.053813 
L 101.498828 98.222948 
L 101.628716 98.795065 
L 101.953435 98.004041 
L 102.018379 98.236902 
L 102.148267 97.806572 
L 102.343098 98.581727 
L 102.408042 98.398923 
L 102.53793 98.662496 
L 102.602874 98.716127 
L 102.797706 97.957749 
L 103.122425 97.785241 
L 103.317257 96.908906 
L 103.382201 96.876082 
L 103.512089 96.099307 
L 103.577032 96.126086 
L 103.771864 96.419925 
L 103.966696 96.060101 
L 104.356359 96.605257 
L 104.421303 96.466305 
L 104.486247 96.615074 
L 104.810967 96.007545 
L 105.005798 96.700509 
L 105.070742 96.366178 
L 105.135686 96.508375 
L 105.265574 96.252091 
L 105.525349 97.099618 
L 105.590293 97.039217 
L 105.655237 96.596889 
L 105.720181 96.685716 
L 105.979957 95.993019 
L 106.044901 96.20375 
L 106.174788 96.548987 
L 106.239732 96.449584 
L 106.304676 96.504194 
L 106.36962 96.148385 
L 106.499508 96.635285 
L 106.564452 96.60357 
L 106.69434 96.529627 
L 107.019059 95.08291 
L 107.084003 95.093758 
L 107.148947 94.89357 
L 107.278835 95.163922 
L 107.603554 94.407077 
L 107.668498 94.280492 
L 107.733442 94.362625 
L 107.928274 94.904399 
L 108.123105 94.955679 
L 108.382881 94.060528 
L 108.447825 94.087834 
L 108.577713 93.983944 
L 108.837488 94.404646 
L 109.486927 93.4047 
L 109.551871 93.582796 
L 109.616815 93.275937 
L 109.681759 93.399867 
L 109.811647 93.478201 
L 109.941534 93.153797 
L 110.006478 93.211471 
L 110.266254 92.686577 
L 110.461086 93.14604 
L 110.590973 93.256925 
L 110.785805 92.823855 
L 110.850749 92.793066 
L 110.915693 92.981739 
L 111.045581 92.406549 
L 111.175469 92.644274 
L 111.240412 92.590243 
L 111.305356 92.173235 
L 111.3703 92.315559 
L 111.565132 92.723009 
L 111.69502 92.112253 
L 111.759964 92.318463 
L 111.824908 92.478065 
L 112.084683 92.036865 
L 112.214571 92.183628 
L 112.53929 91.172286 
L 112.669178 91.061508 
L 112.86401 90.582072 
L 112.993898 90.938219 
L 113.058842 91.03793 
L 113.253673 90.540097 
L 113.448505 90.096206 
L 113.513449 90.153862 
L 113.773224 89.506118 
L 113.838168 89.803962 
L 113.903112 89.751631 
L 114.292776 89.443374 
L 114.35772 89.432539 
L 114.422663 89.057924 
L 114.487607 89.328899 
L 114.617495 88.859066 
L 114.682439 89.11267 
L 114.747383 89.086957 
L 114.942215 88.647594 
L 115.007159 88.689755 
L 115.20199 88.08408 
L 115.396822 88.043936 
L 115.461766 88.257744 
L 115.656598 87.639654 
L 115.721541 87.69012 
L 115.786485 87.548021 
L 115.851429 87.657405 
L 115.916373 87.540779 
L 116.111205 87.799467 
L 116.306036 87.017507 
L 116.630756 87.542109 
L 116.890532 87.361293 
L 117.085363 86.904984 
L 117.280195 87.337986 
L 117.475027 86.793383 
L 117.799746 87.311451 
L 117.86469 87.316442 
L 118.124466 87.002349 
L 118.384241 86.895454 
L 118.449185 86.447364 
L 118.514129 86.647178 
L 118.773905 86.829186 
L 118.968736 86.408091 
L 119.03368 86.236241 
L 119.098624 86.334001 
L 119.228512 86.130886 
L 119.3584 86.373366 
L 119.488287 86.166383 
L 119.683119 86.471348 
L 119.877951 86.041369 
L 120.007839 85.985687 
L 120.072783 86.11877 
L 120.137726 86.040438 
L 120.20267 85.970071 
L 120.332558 85.685198 
L 120.397502 85.940312 
L 120.462446 85.802457 
L 120.52739 85.741018 
L 120.592334 85.879549 
L 120.722222 85.72467 
L 120.787165 85.757273 
L 121.111885 84.584601 
L 121.306717 84.876677 
L 121.371661 84.734273 
L 121.436604 84.806312 
L 121.761324 84.845672 
L 122.280875 84.318156 
L 122.410763 84.348023 
L 122.605595 84.864985 
L 122.670538 84.819635 
L 122.735482 84.793224 
L 122.930314 84.915448 
L 122.995258 84.948973 
L 123.19009 84.785024 
L 123.319977 85.072037 
L 123.384921 84.947159 
L 123.514809 84.7678 
L 123.579753 84.850868 
L 123.709641 84.535815 
L 123.774585 84.516403 
L 123.904473 84.64989 
L 124.03436 84.514255 
L 124.229192 84.089426 
L 124.35908 84.357992 
L 124.424024 84.249778 
L 124.488968 84.346536 
L 124.748743 84.676098 
L 124.813687 84.602714 
L 124.878631 84.266067 
L 124.943575 84.296023 
L 125.008519 84.448267 
L 125.073463 84.386744 
L 125.333238 83.912157 
L 125.398182 84.019995 
L 125.52807 83.227418 
L 125.593014 83.458156 
L 126.047621 83.018647 
L 126.242453 83.314339 
L 126.307397 83.368156 
L 126.372341 83.160327 
L 126.437285 83.217518 
L 126.567172 83.269759 
L 126.762004 83.617871 
L 126.956836 83.1302 
L 127.086724 82.99848 
L 127.216611 83.148462 
L 127.281555 82.728316 
L 127.346499 82.742321 
L 127.541331 82.527733 
L 127.671219 82.834588 
L 127.736163 82.752063 
L 127.86605 82.93149 
L 127.930994 82.67847 
L 127.995938 82.727489 
L 128.060882 82.878306 
L 128.125826 82.807374 
L 128.19077 82.786525 
L 128.320658 82.544339 
L 128.450545 82.865599 
L 128.515489 82.795366 
L 128.580433 82.85262 
L 128.710321 82.633681 
L 128.905153 82.415486 
L 128.970097 82.576651 
L 129.229872 82.838902 
L 129.294816 82.761879 
L 129.35976 82.910112 
L 129.489648 82.638944 
L 129.619536 82.918701 
L 129.684479 82.8645 
L 129.879311 82.937908 
L 130.074143 82.497097 
L 130.268975 82.190659 
L 130.398862 82.261476 
L 130.658638 81.671346 
L 130.723582 81.750562 
L 130.788526 81.810882 
L 130.85347 81.688461 
L 130.918414 81.853084 
L 130.983357 81.748304 
L 131.048301 81.698002 
L 131.113245 81.422359 
L 131.178189 81.532293 
L 131.243133 81.454998 
L 131.373021 81.834386 
L 131.437965 81.724198 
L 131.632796 82.082089 
L 131.892572 82.092435 
L 132.087404 82.253193 
L 132.217291 82.114458 
L 132.412123 81.843554 
L 132.542011 81.943956 
L 132.671899 82.141092 
L 132.736843 81.995242 
L 132.801787 82.047532 
L 132.86673 82.19745 
L 132.996618 81.919569 
L 133.061562 82.016267 
L 133.19145 81.488871 
L 133.256394 81.506981 
L 133.451226 81.296114 
L 133.581113 81.152938 
L 133.711001 81.454755 
L 133.775945 81.396868 
L 133.905833 81.045715 
L 134.035721 81.250083 
L 134.100664 81.104959 
L 134.165608 81.178379 
L 134.295496 81.234884 
L 134.68516 80.961471 
L 134.944935 81.501395 
L 135.074823 81.269121 
L 135.139767 81.368173 
L 135.334599 81.081743 
L 135.399542 81.172453 
L 135.464486 80.959302 
L 135.52943 80.997277 
L 135.919094 80.559827 
L 136.048981 80.264821 
L 136.178869 80.398376 
L 136.243813 80.253417 
L 136.438645 80.490065 
L 136.633477 80.581156 
L 136.828308 80.747663 
L 136.958196 80.425834 
L 137.02314 80.4526 
L 137.153028 80.323206 
L 137.347859 80.76225 
L 137.477747 80.570968 
L 137.672579 80.658219 
L 137.932354 80.198198 
L 138.062242 80.012683 
L 138.127186 80.141472 
L 138.19213 80.059247 
L 138.322018 80.167425 
L 138.451906 79.978211 
L 138.51685 80.096987 
L 138.711681 79.961943 
L 138.776625 80.016483 
L 138.971457 79.664415 
L 139.036401 79.709363 
L 139.166289 79.611088 
L 139.231232 79.655979 
L 139.491008 79.281877 
L 139.620896 79.337195 
L 139.750784 79.242415 
L 139.815728 79.289251 
L 140.010559 78.975021 
L 140.140447 78.967597 
L 140.400223 79.025654 
L 140.53011 79.05893 
L 140.724942 79.171972 
L 141.244493 78.449505 
L 141.439325 78.639784 
L 141.504269 78.54726 
L 141.569213 78.696111 
L 141.634157 78.58548 
L 141.958876 78.472892 
L 142.088764 78.459853 
L 142.283596 78.298144 
L 142.34854 78.305115 
L 142.413483 78.105546 
L 142.478427 78.162329 
L 142.803147 78.603863 
L 142.997979 78.323082 
L 143.127866 78.385908 
L 143.19281 78.397146 
L 143.387642 77.90484 
L 143.582474 78.198809 
L 143.712361 78.077214 
L 143.972137 78.294026 
L 144.037081 78.321263 
L 144.102025 78.085771 
L 144.166969 78.217315 
L 144.296856 78.128551 
L 144.491688 78.33925 
L 144.816408 77.751418 
L 144.946295 77.740958 
L 145.141127 77.682712 
L 145.335959 78.014307 
L 145.400903 78.175483 
L 145.595734 77.942492 
L 145.660678 78.091981 
L 145.85551 77.80088 
L 146.050342 78.041052 
L 146.310117 77.910855 
L 146.569893 78.041936 
L 146.764725 77.973351 
L 146.894612 77.858229 
L 147.089444 77.941446 
L 147.219332 77.857342 
L 147.284276 77.883432 
L 147.34922 77.732496 
L 147.414164 77.825069 
L 147.868771 77.695121 
L 147.998659 77.972772 
L 148.063603 77.909904 
L 148.19349 77.992117 
L 148.583154 78.089091 
L 148.842929 78.303387 
L 149.037761 78.105184 
L 149.102705 78.170022 
L 149.492368 77.778037 
L 149.622256 77.95382 
L 149.817088 77.916819 
L 149.946976 78.116624 
L 150.011919 78.081569 
L 150.206751 77.836018 
L 150.336639 77.732 
L 150.466527 77.788247 
L 150.531471 77.838051 
L 150.661358 77.708666 
L 150.791246 77.754416 
L 150.85619 77.720748 
L 150.921134 77.824094 
L 151.18091 77.556544 
L 151.375741 77.600232 
L 151.440685 77.671888 
L 151.570573 77.595089 
L 151.635517 77.585793 
L 151.765405 77.369679 
L 152.02518 77.591061 
L 152.090124 77.500679 
L 152.220012 77.426327 
L 152.284956 77.514658 
L 152.3499 77.416087 
L 152.609675 77.02372 
L 152.739563 77.142623 
L 152.934395 77.347154 
L 153.129227 77.275993 
L 153.389002 77.500445 
L 153.713722 76.875321 
L 153.778666 77.049431 
L 153.843609 77.000621 
L 154.038441 76.613705 
L 154.233273 76.669977 
L 154.493048 76.796367 
L 154.817768 76.178499 
L 154.882712 76.272818 
L 155.077544 76.283814 
L 155.272375 76.010833 
L 155.337319 76.004416 
L 155.402263 76.150182 
L 155.467207 76.065378 
L 155.921814 75.829124 
L 156.701141 76.106091 
L 156.895973 76.420271 
L 157.090804 76.301396 
L 157.220692 76.389454 
L 157.415524 76.145959 
L 157.545412 76.237067 
L 157.935075 76.037555 
L 158.000019 76.116255 
L 158.194851 75.868905 
L 158.324738 75.959235 
L 158.909233 75.651542 
L 159.039121 75.749279 
L 159.169009 75.814398 
L 159.298897 76.039243 
L 159.363841 75.972085 
L 159.428785 75.767546 
L 159.493729 75.813695 
L 160.402943 75.799741 
L 160.597775 75.423722 
L 160.662719 75.50082 
L 160.85755 75.271989 
L 161.377102 75.165973 
L 161.506989 75.196532 
L 161.766765 75.102317 
L 162.026541 74.995034 
L 162.091484 75.08606 
L 162.156428 74.903319 
L 162.221372 75.009173 
L 162.286316 74.968731 
L 162.35126 75.073092 
L 162.416204 74.978351 
L 162.611036 74.870472 
L 163.130587 74.729898 
L 163.195531 74.802505 
L 163.390362 74.676328 
L 163.52025 74.675243 
L 163.715082 74.514205 
L 163.84497 74.600719 
L 164.104745 74.520561 
L 164.169689 74.593309 
L 164.429465 74.210372 
L 164.559353 74.342514 
L 165.468567 73.857555 
L 165.793287 73.93795 
L 166.053062 73.851236 
L 166.247894 73.963253 
L 166.442726 73.810218 
L 166.572613 73.899598 
L 166.832389 73.750178 
L 166.962277 73.855523 
L 167.286996 73.524197 
L 167.806547 73.515154 
L 168.001379 73.289176 
L 168.196211 73.2812 
L 168.715762 73.254397 
L 168.84565 73.354229 
L 168.910594 73.190106 
L 168.975538 73.241374 
L 169.105425 73.198446 
L 169.235313 73.3048 
L 169.430145 73.155566 
L 170.079584 72.692377 
L 170.274416 72.748817 
L 170.469247 72.517156 
L 170.858911 72.464454 
L 170.988798 72.375708 
L 171.118686 72.232051 
L 171.18363 72.081667 
L 171.248574 72.15289 
L 171.313518 72.190728 
L 171.378462 72.039554 
L 171.443406 72.14605 
L 171.573294 72.182929 
L 171.703181 72.261738 
L 171.833069 72.170471 
L 171.898013 72.260239 
L 171.962957 72.203531 
L 172.092845 72.186657 
L 172.157789 72.0935 
L 172.287676 72.23146 
L 172.417564 72.146889 
L 172.67734 72.014537 
L 172.937115 71.905931 
L 173.067003 71.824828 
L 173.196891 71.849646 
L 173.326779 71.54414 
L 173.391723 71.567358 
L 173.586554 71.356259 
L 173.911274 71.141433 
L 174.885432 70.955111 
L 175.210152 70.436006 
L 175.275096 70.496879 
L 175.404984 70.425489 
L 175.599815 70.261309 
L 175.729703 70.409493 
L 175.989479 70.307789 
L 176.054423 70.160011 
L 176.119366 70.219659 
L 176.379142 70.100601 
L 176.444086 70.1453 
L 176.50903 69.973083 
L 176.573974 70.028251 
L 177.223413 69.580574 
L 177.483188 69.486049 
L 177.613076 69.536325 
L 177.67802 69.539564 
L 177.937796 69.28682 
L 178.002739 69.312843 
L 178.132627 69.074918 
L 178.197571 69.137454 
L 179.17173 69.004775 
L 179.431505 69.140973 
L 180.990159 68.137876 
L 181.249934 68.257957 
L 181.50971 68.062362 
L 181.704542 68.283625 
L 181.769486 68.159038 
L 181.834429 68.228871 
L 181.964317 68.223159 
L 182.418925 68.153652 
L 182.483868 68.268827 
L 182.548812 68.190114 
L 182.743644 68.20813 
L 183.328139 68.061297 
L 183.458027 67.901605 
L 183.652859 68.009397 
L 184.237354 67.902178 
L 184.367241 67.8182 
L 184.691961 67.838162 
L 184.821849 67.93281 
L 185.601176 68.203895 
L 185.666119 68.317741 
L 185.731063 68.226414 
L 185.860951 68.187887 
L 186.51039 68.152069 
L 186.83511 68.445958 
L 187.224773 68.508731 
L 187.484549 68.283294 
L 187.67938 68.237069 
L 187.874212 68.100313 
L 188.133988 67.864853 
L 188.393763 67.935937 
L 188.588595 67.813603 
L 188.718483 67.870573 
L 188.913314 67.648211 
L 188.978258 67.715613 
L 189.238034 67.802527 
L 189.627697 67.650529 
L 189.757585 67.614577 
L 189.952417 67.473742 
L 190.082304 67.470962 
L 190.277136 67.394606 
L 190.536912 67.451261 
L 190.731743 67.391312 
L 190.861631 67.408209 
L 191.121407 67.295588 
L 191.316239 67.463262 
L 191.446126 67.35242 
L 191.900734 67.418119 
L 192.290397 67.40869 
L 192.420285 67.42145 
L 192.68006 67.46315 
L 192.939836 67.285482 
L 193.264555 67.342934 
L 193.849051 67.017277 
L 194.108826 66.939221 
L 194.303658 66.951246 
L 194.49849 66.92152 
L 194.823209 66.819002 
L 194.953097 66.915599 
L 195.147928 67.004728 
L 195.277816 67.10491 
L 195.407704 67.072954 
L 195.66748 66.975174 
L 195.862311 66.846352 
L 196.51175 66.562291 
L 196.641638 66.631551 
L 197.031302 66.247679 
L 197.356021 66.080112 
L 197.680741 66.229241 
L 198.330179 66.425705 
L 198.589955 66.218199 
L 198.849731 66.285649 
L 199.109506 66.217329 
L 199.694001 65.879865 
L 200.34344 65.849566 
L 200.473328 65.799864 
L 200.733104 65.895256 
L 200.798048 65.823222 
L 200.862992 65.897203 
L 200.992879 65.94099 
L 201.447487 65.891266 
L 202.551533 65.706559 
L 202.811308 65.437629 
L 203.200972 65.249439 
L 203.460747 65.304807 
L 204.045243 65.166969 
L 204.694681 65.035445 
L 204.824569 65.100509 
L 205.214233 65.165734 
L 205.279177 65.237962 
L 205.34412 65.150972 
L 205.66884 64.920224 
L 206.253335 64.974687 
L 206.642998 65.012154 
L 206.83783 64.965126 
L 206.967718 64.927051 
L 207.227493 64.842547 
L 207.357381 64.778019 
L 207.487269 64.807238 
L 207.811989 64.616196 
L 208.00682 64.574553 
L 208.396484 64.509273 
L 208.656259 64.588147 
L 208.721203 64.615909 
L 208.916035 64.386348 
L 209.045923 64.458235 
L 209.17581 64.300074 
L 209.370642 64.181589 
L 209.565474 64.177075 
L 209.825249 64.143447 
L 209.955137 64.212165 
L 210.149969 63.941602 
L 210.279857 63.983969 
L 210.474688 63.875677 
L 210.66952 63.750256 
L 210.734464 63.764092 
L 210.864352 63.680051 
L 210.99424 63.631409 
L 211.189071 63.474728 
L 211.318959 63.530187 
L 211.708622 63.389188 
L 212.033342 63.564331 
L 212.16323 63.580544 
L 212.358061 63.513194 
L 212.487949 63.436336 
L 212.747725 63.334248 
L 213.33222 63.143475 
L 213.656939 62.937609 
L 214.241434 62.697015 
L 214.696042 62.706614 
L 214.955817 62.920962 
L 215.345481 62.809623 
L 215.605256 62.905525 
L 215.929976 62.856372 
L 216.189751 62.69937 
L 216.319639 62.618366 
L 216.384583 62.708627 
L 216.449527 62.654064 
L 216.644359 62.685428 
L 217.228854 62.514394 
L 217.423685 62.621916 
L 217.618517 62.530324 
L 218.008181 62.67736 
L 218.138068 62.725105 
L 218.65762 62.606618 
L 218.852451 62.688278 
L 218.982339 62.710816 
L 219.177171 62.628181 
L 219.50189 62.701011 
L 219.696722 62.634874 
L 219.891554 62.598387 
L 220.021441 62.508613 
L 220.605936 62.42399 
L 220.865712 62.399564 
L 222.294478 62.053886 
L 222.424366 61.974036 
L 222.554253 61.955444 
L 224.047963 61.644302 
L 224.307739 61.766421 
L 224.50257 61.789881 
L 224.82729 61.765518 
L 224.957178 61.865614 
L 225.022122 61.788215 
L 225.411785 61.668512 
L 225.67156 61.689505 
L 225.801448 61.613332 
L 225.99628 61.620613 
L 226.515831 61.561123 
L 227.100326 61.601312 
L 227.230214 61.688001 
L 227.749765 61.416057 
L 227.879653 61.393889 
L 228.269316 61.424455 
L 228.464148 61.352768 
L 228.853811 61.351119 
L 229.308419 61.268986 
L 229.50325 61.17086 
L 229.763026 61.250496 
L 229.82797 61.223777 
L 229.957858 61.28383 
L 230.282577 61.296221 
L 230.412465 61.356779 
L 230.737185 61.309234 
L 230.932016 61.240566 
L 231.32168 61.332888 
L 231.451567 61.334149 
L 231.581455 61.419675 
L 231.776287 61.324861 
L 231.906175 61.288735 
L 232.16595 61.17821 
L 232.555614 60.997775 
L 232.620558 61.089067 
L 232.685501 61.02635 
L 232.945277 61.087182 
L 233.269997 61.133839 
L 233.529772 61.324829 
L 233.724604 61.247534 
L 233.854492 61.202777 
L 234.179211 61.038593 
L 234.568875 60.779595 
L 234.82865 60.887744 
L 235.283257 60.770956 
L 235.607977 60.941879 
L 235.932696 60.914226 
L 236.32236 61.152917 
L 236.647079 61.231785 
L 237.101687 60.976152 
L 237.296518 61.084622 
L 237.426406 61.046425 
L 237.556294 61.032659 
L 238.920116 60.781522 
L 239.050003 60.827699 
L 239.244835 60.81715 
L 239.504611 60.771624 
L 239.699442 60.699552 
L 239.82933 60.812508 
L 240.089106 60.635794 
L 240.218994 60.721144 
L 240.478769 60.541128 
L 241.193152 60.393978 
L 241.32304 60.422774 
L 241.452928 60.413914 
L 242.102367 60.544364 
L 242.81675 60.28373 
L 243.011581 60.318877 
L 244.570235 60.319841 
L 244.765066 60.221572 
L 245.414505 60.258066 
L 245.869113 60.184829 
L 246.388664 60.284831 
L 246.583496 60.268433 
L 246.778327 60.188802 
L 246.908215 60.158959 
L 247.232935 60.244873 
L 247.882374 60.213209 
L 248.856532 60.090639 
L 248.921476 60.15125 
L 249.051364 60.084569 
L 249.960578 60.073186 
L 250.090466 60.000884 
L 250.285298 60.051633 
L 250.674961 59.944396 
L 250.804849 59.86323 
L 251.064625 59.9485 
L 251.194512 59.977494 
L 251.519232 59.962855 
L 251.714064 59.932104 
L 251.843951 59.94452 
L 252.103727 59.875149 
L 253.597437 59.641603 
L 253.792268 59.636853 
L 253.9871 59.660445 
L 254.246876 59.532164 
L 254.506651 59.500062 
L 254.701483 59.454543 
L 254.961258 59.51408 
L 255.091146 59.490514 
L 255.740585 59.33229 
L 255.870473 59.307301 
L 256.065305 59.274164 
L 256.32508 59.322989 
L 256.454968 59.29845 
L 256.6498 59.323184 
L 256.909575 59.286042 
L 257.104407 59.380277 
L 258.792948 59.23449 
L 258.922836 59.217664 
L 259.637219 59.150292 
L 259.832051 59.163859 
L 260.026882 59.018448 
L 260.416546 59.187348 
L 260.546434 59.122801 
L 260.676321 59.08108 
L 261.195873 59.149332 
L 261.390704 59.225628 
L 262.040143 59.315367 
L 262.624638 59.23974 
L 262.81947 59.234377 
L 263.598797 59.269139 
L 263.923516 59.240847 
L 264.118348 59.281547 
L 264.897675 59.179337 
L 265.027563 59.261563 
L 265.222394 59.170977 
L 265.417226 59.204533 
L 268.274757 59.17809 
L 268.469589 59.124759 
L 268.924196 59.194723 
L 269.183972 59.157687 
L 269.378804 59.162928 
L 269.573635 59.135888 
L 269.703523 59.131318 
L 270.028243 59.127242 
L 270.158131 59.150676 
L 270.417906 59.259389 
L 270.612738 59.13367 
L 271.327121 59.185677 
L 271.716784 58.985432 
L 272.041504 59.071173 
L 272.431167 59.062695 
L 272.625999 59.080395 
L 273.015662 59.102757 
L 273.210494 59.077591 
L 273.470269 59.040048 
L 273.665101 58.91415 
L 273.794989 58.919663 
L 274.249596 58.791978 
L 274.509372 58.788438 
L 274.834091 58.784607 
L 275.678362 58.761786 
L 276.262857 58.636078 
L 276.457689 58.523088 
L 276.97724 58.568492 
L 277.237015 58.497083 
L 277.82151 58.54148 
L 278.276118 58.427846 
L 279.704884 58.282355 
L 279.964659 58.261572 
L 280.289379 58.222092 
L 280.48421 58.200876 
L 280.679042 58.189757 
L 281.198593 58.089672 
L 281.523313 58.177621 
L 282.887135 58.323144 
L 283.276798 58.36727 
L 283.47163 58.445771 
L 283.666461 58.384754 
L 283.991181 58.27423 
L 284.250956 58.248933 
L 285.939498 58.260923 
L 286.329161 58.126202 
L 286.523993 58.187899 
L 286.848712 58.112833 
L 287.692983 57.943692 
L 287.952759 57.82678 
L 288.212534 57.895006 
L 289.576356 57.821153 
L 289.901075 57.809428 
L 290.160851 57.686092 
L 290.355683 57.71974 
L 290.550514 57.63068 
L 290.745346 57.572479 
L 291.13501 57.599485 
L 292.888495 57.817095 
L 293.14827 57.740656 
L 293.408046 57.781818 
L 293.797709 57.53366 
L 294.317261 57.548026 
L 294.64198 57.538211 
L 295.031643 57.397035 
L 295.226475 57.291756 
L 295.356363 57.306687 
L 295.551195 57.25545 
L 295.81097 57.233644 
L 295.940858 57.239457 
L 296.785129 57.370807 
L 296.97996 57.354589 
L 297.174792 57.331209 
L 298.408726 57.139985 
L 298.603558 57.184231 
L 298.798389 57.171237 
L 299.058165 57.201181 
L 299.317941 57.073315 
L 299.577716 57.107958 
L 300.162211 57.005669 
L 300.616819 57.031598 
L 300.941538 56.889325 
L 301.201314 56.900447 
L 301.396145 56.856352 
L 301.850753 56.923315 
L 302.175472 56.835337 
L 302.565136 57.049845 
L 305.747387 56.645761 
L 306.007162 56.681754 
L 306.266938 56.620774 
L 307.760647 56.438031 
L 307.955479 56.31997 
L 308.280199 56.403711 
L 310.163572 56.15712 
L 310.423347 56.100549 
L 310.553235 56.141669 
L 310.748067 56.077367 
L 313.215935 55.75188 
L 313.345823 55.767994 
L 316.852793 55.49967 
L 317.047625 55.605781 
L 317.242456 55.59208 
L 317.372344 55.595217 
L 318.281559 55.581618 
L 318.476391 55.529652 
L 318.671222 55.579709 
L 318.930998 55.570077 
L 319.385605 55.57329 
L 319.580437 55.593389 
L 320.035044 55.630976 
L 320.229876 55.653173 
L 320.619539 55.699236 
L 320.814371 55.763108 
L 321.009203 55.77606 
L 321.593698 55.771634 
L 322.178193 55.723195 
L 322.892576 55.772605 
L 324.775949 55.697763 
L 325.2955 55.619247 
L 325.685163 55.674564 
L 325.944939 55.540294 
L 326.659322 55.425621 
L 326.984041 55.399877 
L 327.308761 55.359881 
L 327.698424 55.406592 
L 328.023144 55.401046 
L 328.282919 55.351962 
L 328.80247 55.323901 
L 329.062246 55.404486 
L 329.322021 55.366793 
L 329.516853 55.377493 
L 329.906517 55.396794 
L 330.166292 55.466366 
L 330.491012 55.448864 
L 331.075507 55.405957 
L 331.270338 55.334209 
L 331.400226 55.288623 
L 331.724946 55.251171 
L 332.569216 55.324777 
L 332.828992 55.197797 
L 333.023824 55.190397 
L 333.543375 55.079169 
L 334.192814 55.108049 
L 334.582477 54.909097 
L 335.946299 54.899476 
L 336.335962 54.934153 
L 336.595738 54.962813 
L 336.79057 54.980584 
L 336.920458 54.934092 
L 337.180233 54.998329 
L 337.375065 54.988989 
L 337.699784 54.998607 
L 338.154392 54.921465 
L 338.803831 54.880184 
L 339.063606 54.828626 
L 339.907877 54.875486 
L 340.102709 54.893208 
L 341.401586 54.660308 
L 341.596418 54.699787 
L 341.921138 54.657904 
L 342.830352 54.727107 
L 343.090128 54.645277 
L 343.414847 54.548949 
L 344.648781 54.480024 
L 344.973501 54.536255 
L 345.233276 54.472077 
L 346.012603 54.366009 
L 346.337323 54.299767 
L 346.79193 54.315064 
L 346.986762 54.291678 
L 348.480471 54.138233 
L 348.935079 54.198278 
L 349.45463 54.121407 
L 349.779349 54.257764 
L 350.169013 54.248479 
L 350.428788 54.222955 
L 350.883396 54.275893 
L 351.208115 54.266332 
L 351.467891 54.21953 
L 352.247217 54.258131 
L 352.506993 54.25889 
L 352.896656 54.199319 
L 353.156432 54.106134 
L 353.935759 54.267673 
L 354.13059 54.201241 
L 354.520254 54.220594 
L 354.844973 54.160078 
L 355.299581 54.176087 
L 355.429468 54.141632 
L 355.754188 54.150812 
L 356.598459 54.293135 
L 356.923178 54.252076 
L 357.832393 54.428822 
L 358.027224 54.430725 
L 358.351944 54.372369 
L 358.741607 54.353688 
L 359.001383 54.370726 
L 359.845653 54.428179 
L 360.040485 54.464182 
L 360.430149 54.356235 
L 361.079588 54.258615 
L 361.469251 54.324128 
L 362.638241 54.257997 
L 362.898017 54.214786 
L 363.157792 54.25063 
L 363.677343 54.355052 
L 364.78139 54.311716 
L 364.976221 54.270682 
L 365.235997 54.306615 
L 365.495773 54.308408 
L 366.145212 54.264503 
L 366.340043 54.212559 
L 366.599819 54.185169 
L 367.509033 54.251809 
L 367.768809 54.303093 
L 368.093529 54.303624 
L 371.016004 54.389075 
L 371.145892 54.351331 
L 371.405667 54.382683 
L 372.314882 54.246653 
L 373.029265 54.22081 
L 373.28904 54.246689 
L 374.393087 54.263589 
L 374.78275 54.201899 
L 375.042526 54.25282 
L 375.95174 54.220587 
L 376.211516 54.253186 
L 376.601179 54.275115 
L 377.055786 54.338212 
L 377.380506 54.289728 
L 377.705225 54.421412 
L 379.004103 54.14652 
L 379.393767 54.104645 
L 381.601859 54.144643 
L 383.095569 54.265033 
L 383.355345 54.183017 
L 384.329503 54.266148 
L 385.758269 54.12512 
L 386.147932 54.175774 
L 386.537596 54.170085 
L 386.927259 54.233155 
L 387.187034 54.214993 
L 387.511754 54.288469 
L 387.77153 54.295119 
L 388.161193 54.288176 
L 388.420969 54.325286 
L 390.10951 54.218587 
L 393.746368 54.221262 
L 394.330863 54.225874 
L 395.11019 54.102076 
L 395.369966 54.105824 
L 395.759629 53.985069 
L 397.253339 53.930211 
L 397.578058 53.805305 
L 398.487273 53.568 
L 398.487273 53.568 
" clip-path="url(#p1c5028205d)" style="fill: none; stroke-dasharray: 2,3.3; stroke-dashoffset: 0; stroke: #ffa500; stroke-width: 2"/>
   </g>
   <g id="patch_3">
    <path d="M 57.6 307.584 
L 57.6 41.472 
" style="fill: none; stroke: #000000; stroke-width: 0.8; stroke-linejoin: miter; stroke-linecap: square"/>
   </g>
   <g id="patch_4">
    <path d="M 414.72 307.584 
L 414.72 41.472 
" style="fill: none; stroke: #000000; stroke-width: 0.8; stroke-linejoin: miter; stroke-linecap: square"/>
   </g>
   <g id="patch_5">
    <path d="M 57.6 307.584 
L 414.72 307.584 
" style="fill: none; stroke: #000000; stroke-width: 0.8; stroke-linejoin: miter; stroke-linecap: square"/>
   </g>
   <g id="patch_6">
    <path d="M 57.6 41.472 
L 414.72 41.472 
" style="fill: none; stroke: #000000; stroke-width: 0.8; stroke-linejoin: miter; stroke-linecap: square"/>
   </g>
   <g id="text_14">
    <!-- Waiting Time Plot -->
    <g transform="translate(183.833438 8.2635)scale(0.12 -0.12)">
     <defs>
      <path id="DejaVuSans-50" d="M 1259 4147 
L 1259 2394 
L 2053 2394 
Q 2494 2394 2734 2622 
Q 2975 2850 2975 3272 
Q 2975 3691 2734 3919 
Q 2494 4147 2053 4147 
L 1259 4147 
z
M 628 4666 
L 2053 4666 
Q 2838 4666 3239 4311 
Q 3641 3956 3641 3272 
Q 3641 2581 3239 2228 
Q 2838 1875 2053 1875 
L 1259 1875 
L 1259 0 
L 628 0 
L 628 4666 
z
" transform="scale(0.015625)"/>
      <path id="DejaVuSans-6c" d="M 603 4863 
L 1178 4863 
L 1178 0 
L 603 0 
L 603 4863 
z
" transform="scale(0.015625)"/>
     </defs>
     <use xlink:href="#DejaVuSans-57"/>
     <use xlink:href="#DejaVuSans-61" x="92.501953"/>
     <use xlink:href="#DejaVuSans-69" x="153.78125"/>
     <use xlink:href="#DejaVuSans-74" x="181.564453"/>
     <use xlink:href="#DejaVuSans-69" x="220.773438"/>
     <use xlink:href="#DejaVuSans-6e" x="248.556641"/>
     <use xlink:href="#DejaVuSans-67" x="311.935547"/>
     <use xlink:href="#DejaVuSans-20" x="375.412109"/>
     <use xlink:href="#DejaVuSans-54" x="407.199219"/>
     <use xlink:href="#DejaVuSans-69" x="465.158203"/>
     <use xlink:href="#DejaVuSans-6d" x="492.941406"/>
     <use xlink:href="#DejaVuSans-65" x="590.353516"/>
     <use xlink:href="#DejaVuSans-20" x="651.876953"/>
     <use xlink:href="#DejaVuSans-50" x="683.664062"/>
     <use xlink:href="#DejaVuSans-6c" x="743.966797"/>
     <use xlink:href="#DejaVuSans-6f" x="771.75"/>
     <use xlink:href="#DejaVuSans-74" x="832.931641"/>
    </g>
    <!--  avg_d = 790.7543363691004  -->
    <g transform="translate(142.671562 21.700875)scale(0.12 -0.12)">
     <defs>
      <path id="DejaVuSans-76" d="M 191 3500 
L 800 3500 
L 1894 563 
L 2988 3500 
L 3597 3500 
L 2284 0 
L 1503 0 
L 191 3500 
z
" transform="scale(0.015625)"/>
      <path id="DejaVuSans-5f" d="M 3263 -1063 
L 3263 -1509 
L -63 -1509 
L -63 -1063 
L 3263 -1063 
z
" transform="scale(0.015625)"/>
      <path id="DejaVuSans-3d" d="M 678 2906 
L 4684 2906 
L 4684 2381 
L 678 2381 
L 678 2906 
z
M 678 1631 
L 4684 1631 
L 4684 1100 
L 678 1100 
L 678 1631 
z
" transform="scale(0.015625)"/>
      <path id="DejaVuSans-37" d="M 525 4666 
L 3525 4666 
L 3525 4397 
L 1831 0 
L 1172 0 
L 2766 4134 
L 525 4134 
L 525 4666 
z
" transform="scale(0.015625)"/>
      <path id="DejaVuSans-39" d="M 703 97 
L 703 672 
Q 941 559 1184 500 
Q 1428 441 1663 441 
Q 2288 441 2617 861 
Q 2947 1281 2994 2138 
Q 2813 1869 2534 1725 
Q 2256 1581 1919 1581 
Q 1219 1581 811 2004 
Q 403 2428 403 3163 
Q 403 3881 828 4315 
Q 1253 4750 1959 4750 
Q 2769 4750 3195 4129 
Q 3622 3509 3622 2328 
Q 3622 1225 3098 567 
Q 2575 -91 1691 -91 
Q 1453 -91 1209 -44 
Q 966 3 703 97 
z
M 1959 2075 
Q 2384 2075 2632 2365 
Q 2881 2656 2881 3163 
Q 2881 3666 2632 3958 
Q 2384 4250 1959 4250 
Q 1534 4250 1286 3958 
Q 1038 3666 1038 3163 
Q 1038 2656 1286 2365 
Q 1534 2075 1959 2075 
z
" transform="scale(0.015625)"/>
      <path id="DejaVuSans-2e" d="M 684 794 
L 1344 794 
L 1344 0 
L 684 0 
L 684 794 
z
" transform="scale(0.015625)"/>
     </defs>
     <use xlink:href="#DejaVuSans-20"/>
     <use xlink:href="#DejaVuSans-61" x="31.787109"/>
     <use xlink:href="#DejaVuSans-76" x="93.066406"/>
     <use xlink:href="#DejaVuSans-67" x="152.246094"/>
     <use xlink:href="#DejaVuSans-5f" x="215.722656"/>
     <use xlink:href="#DejaVuSans-64" x="265.722656"/>
     <use xlink:href="#DejaVuSans-20" x="329.199219"/>
     <use xlink:href="#DejaVuSans-3d" x="360.986328"/>
     <use xlink:href="#DejaVuSans-20" x="444.775391"/>
     <use xlink:href="#DejaVuSans-37" x="476.5625"/>
     <use xlink:href="#DejaVuSans-39" x="540.185547"/>
     <use xlink:href="#DejaVuSans-30" x="603.808594"/>
     <use xlink:href="#DejaVuSans-2e" x="667.431641"/>
     <use xlink:href="#DejaVuSans-37" x="699.21875"/>
     <use xlink:href="#DejaVuSans-35" x="762.841797"/>
     <use xlink:href="#DejaVuSans-34" x="826.464844"/>
     <use xlink:href="#DejaVuSans-33" x="890.087891"/>
     <use xlink:href="#DejaVuSans-33" x="953.710938"/>
     <use xlink:href="#DejaVuSans-36" x="1017.333984"/>
     <use xlink:href="#DejaVuSans-33" x="1080.957031"/>
     <use xlink:href="#DejaVuSans-36" x="1144.580078"/>
     <use xlink:href="#DejaVuSans-39" x="1208.203125"/>
     <use xlink:href="#DejaVuSans-31" x="1271.826172"/>
     <use xlink:href="#DejaVuSans-30" x="1335.449219"/>
     <use xlink:href="#DejaVuSans-30" x="1399.072266"/>
     <use xlink:href="#DejaVuSans-34" x="1462.695312"/>
     <use xlink:href="#DejaVuSans-20" x="1526.318359"/>
    </g>
    <!--  avg_a = 1054.3803845619443diff = -263.6260481928439 -->
    <g transform="translate(57.199688 35.472)scale(0.12 -0.12)">
     <defs>
      <path id="DejaVuSans-2d" d="M 313 2009 
L 1997 2009 
L 1997 1497 
L 313 1497 
L 313 2009 
z
" transform="scale(0.015625)"/>
     </defs>
     <use xlink:href="#DejaVuSans-20"/>
     <use xlink:href="#DejaVuSans-61" x="31.787109"/>
     <use xlink:href="#DejaVuSans-76" x="93.066406"/>
     <use xlink:href="#DejaVuSans-67" x="152.246094"/>
     <use xlink:href="#DejaVuSans-5f" x="215.722656"/>
     <use xlink:href="#DejaVuSans-61" x="265.722656"/>
     <use xlink:href="#DejaVuSans-20" x="327.001953"/>
     <use xlink:href="#DejaVuSans-3d" x="358.789062"/>
     <use xlink:href="#DejaVuSans-20" x="442.578125"/>
     <use xlink:href="#DejaVuSans-31" x="474.365234"/>
     <use xlink:href="#DejaVuSans-30" x="537.988281"/>
     <use xlink:href="#DejaVuSans-35" x="601.611328"/>
     <use xlink:href="#DejaVuSans-34" x="665.234375"/>
     <use xlink:href="#DejaVuSans-2e" x="728.857422"/>
     <use xlink:href="#DejaVuSans-33" x="760.644531"/>
     <use xlink:href="#DejaVuSans-38" x="824.267578"/>
     <use xlink:href="#DejaVuSans-30" x="887.890625"/>
     <use xlink:href="#DejaVuSans-33" x="951.513672"/>
     <use xlink:href="#DejaVuSans-38" x="1015.136719"/>
     <use xlink:href="#DejaVuSans-34" x="1078.759766"/>
     <use xlink:href="#DejaVuSans-35" x="1142.382812"/>
     <use xlink:href="#DejaVuSans-36" x="1206.005859"/>
     <use xlink:href="#DejaVuSans-31" x="1269.628906"/>
     <use xlink:href="#DejaVuSans-39" x="1333.251953"/>
     <use xlink:href="#DejaVuSans-34" x="1396.875"/>
     <use xlink:href="#DejaVuSans-34" x="1460.498047"/>
     <use xlink:href="#DejaVuSans-33" x="1524.121094"/>
     <use xlink:href="#DejaVuSans-64" x="1587.744141"/>
     <use xlink:href="#DejaVuSans-69" x="1651.220703"/>
     <use xlink:href="#DejaVuSans-66" x="1679.003906"/>
     <use xlink:href="#DejaVuSans-66" x="1714.208984"/>
     <use xlink:href="#DejaVuSans-20" x="1749.414062"/>
     <use xlink:href="#DejaVuSans-3d" x="1781.201172"/>
     <use xlink:href="#DejaVuSans-20" x="1864.990234"/>
     <use xlink:href="#DejaVuSans-2d" x="1896.777344"/>
     <use xlink:href="#DejaVuSans-32" x="1932.861328"/>
     <use xlink:href="#DejaVuSans-36" x="1996.484375"/>
     <use xlink:href="#DejaVuSans-33" x="2060.107422"/>
     <use xlink:href="#DejaVuSans-2e" x="2123.730469"/>
     <use xlink:href="#DejaVuSans-36" x="2155.517578"/>
     <use xlink:href="#DejaVuSans-32" x="2219.140625"/>
     <use xlink:href="#DejaVuSans-36" x="2282.763672"/>
     <use xlink:href="#DejaVuSans-30" x="2346.386719"/>
     <use xlink:href="#DejaVuSans-34" x="2410.009766"/>
     <use xlink:href="#DejaVuSans-38" x="2473.632812"/>
     <use xlink:href="#DejaVuSans-31" x="2537.255859"/>
     <use xlink:href="#DejaVuSans-39" x="2600.878906"/>
     <use xlink:href="#DejaVuSans-32" x="2664.501953"/>
     <use xlink:href="#DejaVuSans-38" x="2728.125"/>
     <use xlink:href="#DejaVuSans-34" x="2791.748047"/>
     <use xlink:href="#DejaVuSans-33" x="2855.371094"/>
     <use xlink:href="#DejaVuSans-39" x="2918.994141"/>
    </g>
   </g>
   <g id="legend_1">
    <g id="patch_7">
     <path d="M 263.88875 302.584 
L 407.72 302.584 
Q 409.72 302.584 409.72 300.584 
L 409.72 272.22775 
Q 409.72 270.22775 407.72 270.22775 
L 263.88875 270.22775 
Q 261.88875 270.22775 261.88875 272.22775 
L 261.88875 300.584 
Q 261.88875 302.584 263.88875 302.584 
z
" style="fill: #ffffff; opacity: 0.8; stroke: #cccccc; stroke-linejoin: miter"/>
    </g>
    <g id="line2d_14">
     <path d="M 265.88875 278.326187 
L 275.88875 278.326187 
L 285.88875 278.326187 
" style="fill: none; stroke-dasharray: 2,3.3; stroke-dashoffset: 0; stroke: #0000ff; stroke-width: 2"/>
    </g>
    <g id="text_15">
     <!-- Average (Default) -->
     <g transform="translate(293.88875 281.826187)scale(0.1 -0.1)">
      <defs>
       <path id="DejaVuSans-41" d="M 2188 4044 
L 1331 1722 
L 3047 1722 
L 2188 4044 
z
M 1831 4666 
L 2547 4666 
L 4325 0 
L 3669 0 
L 3244 1197 
L 1141 1197 
L 716 0 
L 50 0 
L 1831 4666 
z
" transform="scale(0.015625)"/>
       <path id="DejaVuSans-28" d="M 1984 4856 
Q 1566 4138 1362 3434 
Q 1159 2731 1159 2009 
Q 1159 1288 1364 580 
Q 1569 -128 1984 -844 
L 1484 -844 
Q 1016 -109 783 600 
Q 550 1309 550 2009 
Q 550 2706 781 3412 
Q 1013 4119 1484 4856 
L 1984 4856 
z
" transform="scale(0.015625)"/>
       <path id="DejaVuSans-44" d="M 1259 4147 
L 1259 519 
L 2022 519 
Q 2988 519 3436 956 
Q 3884 1394 3884 2338 
Q 3884 3275 3436 3711 
Q 2988 4147 2022 4147 
L 1259 4147 
z
M 628 4666 
L 1925 4666 
Q 3281 4666 3915 4102 
Q 4550 3538 4550 2338 
Q 4550 1131 3912 565 
Q 3275 0 1925 0 
L 628 0 
L 628 4666 
z
" transform="scale(0.015625)"/>
       <path id="DejaVuSans-29" d="M 513 4856 
L 1013 4856 
Q 1481 4119 1714 3412 
Q 1947 2706 1947 2009 
Q 1947 1309 1714 600 
Q 1481 -109 1013 -844 
L 513 -844 
Q 928 -128 1133 580 
Q 1338 1288 1338 2009 
Q 1338 2731 1133 3434 
Q 928 4138 513 4856 
z
" transform="scale(0.015625)"/>
      </defs>
      <use xlink:href="#DejaVuSans-41"/>
      <use xlink:href="#DejaVuSans-76" x="62.533203"/>
      <use xlink:href="#DejaVuSans-65" x="121.712891"/>
      <use xlink:href="#DejaVuSans-72" x="183.236328"/>
      <use xlink:href="#DejaVuSans-61" x="224.349609"/>
      <use xlink:href="#DejaVuSans-67" x="285.628906"/>
      <use xlink:href="#DejaVuSans-65" x="349.105469"/>
      <use xlink:href="#DejaVuSans-20" x="410.628906"/>
      <use xlink:href="#DejaVuSans-28" x="442.416016"/>
      <use xlink:href="#DejaVuSans-44" x="481.429688"/>
      <use xlink:href="#DejaVuSans-65" x="558.431641"/>
      <use xlink:href="#DejaVuSans-66" x="619.955078"/>
      <use xlink:href="#DejaVuSans-61" x="655.160156"/>
      <use xlink:href="#DejaVuSans-75" x="716.439453"/>
      <use xlink:href="#DejaVuSans-6c" x="779.818359"/>
      <use xlink:href="#DejaVuSans-74" x="807.601562"/>
      <use xlink:href="#DejaVuSans-29" x="846.810547"/>
     </g>
    </g>
    <g id="line2d_15">
     <path d="M 265.88875 293.004312 
L 275.88875 293.004312 
L 285.88875 293.004312 
" style="fill: none; stroke-dasharray: 2,3.3; stroke-dashoffset: 0; stroke: #ffa500; stroke-width: 2"/>
    </g>
    <g id="text_16">
     <!-- Average (Anticipation) -->
     <g transform="translate(293.88875 296.504312)scale(0.1 -0.1)">
      <defs>
       <path id="DejaVuSans-63" d="M 3122 3366 
L 3122 2828 
Q 2878 2963 2633 3030 
Q 2388 3097 2138 3097 
Q 1578 3097 1268 2742 
Q 959 2388 959 1747 
Q 959 1106 1268 751 
Q 1578 397 2138 397 
Q 2388 397 2633 464 
Q 2878 531 3122 666 
L 3122 134 
Q 2881 22 2623 -34 
Q 2366 -91 2075 -91 
Q 1284 -91 818 406 
Q 353 903 353 1747 
Q 353 2603 823 3093 
Q 1294 3584 2113 3584 
Q 2378 3584 2631 3529 
Q 2884 3475 3122 3366 
z
" transform="scale(0.015625)"/>
       <path id="DejaVuSans-70" d="M 1159 525 
L 1159 -1331 
L 581 -1331 
L 581 3500 
L 1159 3500 
L 1159 2969 
Q 1341 3281 1617 3432 
Q 1894 3584 2278 3584 
Q 2916 3584 3314 3078 
Q 3713 2572 3713 1747 
Q 3713 922 3314 415 
Q 2916 -91 2278 -91 
Q 1894 -91 1617 61 
Q 1341 213 1159 525 
z
M 3116 1747 
Q 3116 2381 2855 2742 
Q 2594 3103 2138 3103 
Q 1681 3103 1420 2742 
Q 1159 2381 1159 1747 
Q 1159 1113 1420 752 
Q 1681 391 2138 391 
Q 2594 391 2855 752 
Q 3116 1113 3116 1747 
z
" transform="scale(0.015625)"/>
      </defs>
      <use xlink:href="#DejaVuSans-41"/>
      <use xlink:href="#DejaVuSans-76" x="62.533203"/>
      <use xlink:href="#DejaVuSans-65" x="121.712891"/>
      <use xlink:href="#DejaVuSans-72" x="183.236328"/>
      <use xlink:href="#DejaVuSans-61" x="224.349609"/>
      <use xlink:href="#DejaVuSans-67" x="285.628906"/>
      <use xlink:href="#DejaVuSans-65" x="349.105469"/>
      <use xlink:href="#DejaVuSans-20" x="410.628906"/>
      <use xlink:href="#DejaVuSans-28" x="442.416016"/>
      <use xlink:href="#DejaVuSans-41" x="481.429688"/>
      <use xlink:href="#DejaVuSans-6e" x="549.837891"/>
      <use xlink:href="#DejaVuSans-74" x="613.216797"/>
      <use xlink:href="#DejaVuSans-69" x="652.425781"/>
      <use xlink:href="#DejaVuSans-63" x="680.208984"/>
      <use xlink:href="#DejaVuSans-69" x="735.189453"/>
      <use xlink:href="#DejaVuSans-70" x="762.972656"/>
      <use xlink:href="#DejaVuSans-61" x="826.449219"/>
      <use xlink:href="#DejaVuSans-74" x="887.728516"/>
      <use xlink:href="#DejaVuSans-69" x="926.9375"/>
      <use xlink:href="#DejaVuSans-6f" x="954.720703"/>
      <use xlink:href="#DejaVuSans-6e" x="1015.902344"/>
      <use xlink:href="#DejaVuSans-29" x="1079.28125"/>
     </g>
    </g>
   </g>
  </g>
 </g>
 <defs>
  <clipPath id="p1c5028205d">
   <rect x="57.6" y="41.472" width="357.12" height="266.112"/>
  </clipPath>
 </defs>
</svg>
