<?xml version="1.0" encoding="utf-8" standalone="no"?>
<!DOCTYPE svg PUBLIC "-//W3C//DTD SVG 1.1//EN"
  "http://www.w3.org/Graphics/SVG/1.1/DTD/svg11.dtd">
<svg xmlns:xlink="http://www.w3.org/1999/xlink" width="460.8pt" height="345.6pt" viewBox="0 0 460.8 345.6" xmlns="http://www.w3.org/2000/svg" version="1.1">
 <metadata>
  <rdf:RDF xmlns:dc="http://purl.org/dc/elements/1.1/" xmlns:cc="http://creativecommons.org/ns#" xmlns:rdf="http://www.w3.org/1999/02/22-rdf-syntax-ns#">
   <cc:Work>
    <dc:type rdf:resource="http://purl.org/dc/dcmitype/StillImage"/>
    <dc:date>2022-10-10T12:33:20.406030</dc:date>
    <dc:format>image/svg+xml</dc:format>
    <dc:creator>
     <cc:Agent>
      <dc:title>Matplotlib v3.5.3, https://matplotlib.org/</dc:title>
     </cc:Agent>
    </dc:creator>
   </cc:Work>
  </rdf:RDF>
 </metadata>
 <defs>
  <style type="text/css">*{stroke-linejoin: round; stroke-linecap: butt}</style>
 </defs>
 <g id="figure_1">
  <g id="patch_1">
   <path d="M 0 345.6 
L 460.8 345.6 
L 460.8 0 
L 0 0 
z
" style="fill: #ffffff"/>
  </g>
  <g id="axes_1">
   <g id="patch_2">
    <path d="M 57.6 307.584 
L 414.72 307.584 
L 414.72 41.472 
L 57.6 41.472 
z
" style="fill: #ffffff"/>
   </g>
   <g id="matplotlib.axis_1">
    <g id="xtick_1">
     <g id="line2d_1">
      <defs>
       <path id="m8080fd5d48" d="M 0 0 
L 0 3.5 
" style="stroke: #000000; stroke-width: 0.8"/>
      </defs>
      <g>
       <use xlink:href="#m8080fd5d48" x="73.832727" y="307.584" style="stroke: #000000; stroke-width: 0.8"/>
      </g>
     </g>
     <g id="text_1">
      <!-- 0 -->
      <g transform="translate(70.651477 322.182437)scale(0.1 -0.1)">
       <defs>
        <path id="DejaVuSans-30" d="M 2034 4250 
Q 1547 4250 1301 3770 
Q 1056 3291 1056 2328 
Q 1056 1369 1301 889 
Q 1547 409 2034 409 
Q 2525 409 2770 889 
Q 3016 1369 3016 2328 
Q 3016 3291 2770 3770 
Q 2525 4250 2034 4250 
z
M 2034 4750 
Q 2819 4750 3233 4129 
Q 3647 3509 3647 2328 
Q 3647 1150 3233 529 
Q 2819 -91 2034 -91 
Q 1250 -91 836 529 
Q 422 1150 422 2328 
Q 422 3509 836 4129 
Q 1250 4750 2034 4750 
z
" transform="scale(0.015625)"/>
       </defs>
       <use xlink:href="#DejaVuSans-30"/>
      </g>
     </g>
    </g>
    <g id="xtick_2">
     <g id="line2d_2">
      <g>
       <use xlink:href="#m8080fd5d48" x="138.776625" y="307.584" style="stroke: #000000; stroke-width: 0.8"/>
      </g>
     </g>
     <g id="text_2">
      <!-- 1000 -->
      <g transform="translate(126.051625 322.182437)scale(0.1 -0.1)">
       <defs>
        <path id="DejaVuSans-31" d="M 794 531 
L 1825 531 
L 1825 4091 
L 703 3866 
L 703 4441 
L 1819 4666 
L 2450 4666 
L 2450 531 
L 3481 531 
L 3481 0 
L 794 0 
L 794 531 
z
" transform="scale(0.015625)"/>
       </defs>
       <use xlink:href="#DejaVuSans-31"/>
       <use xlink:href="#DejaVuSans-30" x="63.623047"/>
       <use xlink:href="#DejaVuSans-30" x="127.246094"/>
       <use xlink:href="#DejaVuSans-30" x="190.869141"/>
      </g>
     </g>
    </g>
    <g id="xtick_3">
     <g id="line2d_3">
      <g>
       <use xlink:href="#m8080fd5d48" x="203.720523" y="307.584" style="stroke: #000000; stroke-width: 0.8"/>
      </g>
     </g>
     <g id="text_3">
      <!-- 2000 -->
      <g transform="translate(190.995523 322.182437)scale(0.1 -0.1)">
       <defs>
        <path id="DejaVuSans-32" d="M 1228 531 
L 3431 531 
L 3431 0 
L 469 0 
L 469 531 
Q 828 903 1448 1529 
Q 2069 2156 2228 2338 
Q 2531 2678 2651 2914 
Q 2772 3150 2772 3378 
Q 2772 3750 2511 3984 
Q 2250 4219 1831 4219 
Q 1534 4219 1204 4116 
Q 875 4013 500 3803 
L 500 4441 
Q 881 4594 1212 4672 
Q 1544 4750 1819 4750 
Q 2544 4750 2975 4387 
Q 3406 4025 3406 3419 
Q 3406 3131 3298 2873 
Q 3191 2616 2906 2266 
Q 2828 2175 2409 1742 
Q 1991 1309 1228 531 
z
" transform="scale(0.015625)"/>
       </defs>
       <use xlink:href="#DejaVuSans-32"/>
       <use xlink:href="#DejaVuSans-30" x="63.623047"/>
       <use xlink:href="#DejaVuSans-30" x="127.246094"/>
       <use xlink:href="#DejaVuSans-30" x="190.869141"/>
      </g>
     </g>
    </g>
    <g id="xtick_4">
     <g id="line2d_4">
      <g>
       <use xlink:href="#m8080fd5d48" x="268.664421" y="307.584" style="stroke: #000000; stroke-width: 0.8"/>
      </g>
     </g>
     <g id="text_4">
      <!-- 3000 -->
      <g transform="translate(255.939421 322.182437)scale(0.1 -0.1)">
       <defs>
        <path id="DejaVuSans-33" d="M 2597 2516 
Q 3050 2419 3304 2112 
Q 3559 1806 3559 1356 
Q 3559 666 3084 287 
Q 2609 -91 1734 -91 
Q 1441 -91 1130 -33 
Q 819 25 488 141 
L 488 750 
Q 750 597 1062 519 
Q 1375 441 1716 441 
Q 2309 441 2620 675 
Q 2931 909 2931 1356 
Q 2931 1769 2642 2001 
Q 2353 2234 1838 2234 
L 1294 2234 
L 1294 2753 
L 1863 2753 
Q 2328 2753 2575 2939 
Q 2822 3125 2822 3475 
Q 2822 3834 2567 4026 
Q 2313 4219 1838 4219 
Q 1578 4219 1281 4162 
Q 984 4106 628 3988 
L 628 4550 
Q 988 4650 1302 4700 
Q 1616 4750 1894 4750 
Q 2613 4750 3031 4423 
Q 3450 4097 3450 3541 
Q 3450 3153 3228 2886 
Q 3006 2619 2597 2516 
z
" transform="scale(0.015625)"/>
       </defs>
       <use xlink:href="#DejaVuSans-33"/>
       <use xlink:href="#DejaVuSans-30" x="63.623047"/>
       <use xlink:href="#DejaVuSans-30" x="127.246094"/>
       <use xlink:href="#DejaVuSans-30" x="190.869141"/>
      </g>
     </g>
    </g>
    <g id="xtick_5">
     <g id="line2d_5">
      <g>
       <use xlink:href="#m8080fd5d48" x="333.608319" y="307.584" style="stroke: #000000; stroke-width: 0.8"/>
      </g>
     </g>
     <g id="text_5">
      <!-- 4000 -->
      <g transform="translate(320.883319 322.182437)scale(0.1 -0.1)">
       <defs>
        <path id="DejaVuSans-34" d="M 2419 4116 
L 825 1625 
L 2419 1625 
L 2419 4116 
z
M 2253 4666 
L 3047 4666 
L 3047 1625 
L 3713 1625 
L 3713 1100 
L 3047 1100 
L 3047 0 
L 2419 0 
L 2419 1100 
L 313 1100 
L 313 1709 
L 2253 4666 
z
" transform="scale(0.015625)"/>
       </defs>
       <use xlink:href="#DejaVuSans-34"/>
       <use xlink:href="#DejaVuSans-30" x="63.623047"/>
       <use xlink:href="#DejaVuSans-30" x="127.246094"/>
       <use xlink:href="#DejaVuSans-30" x="190.869141"/>
      </g>
     </g>
    </g>
    <g id="xtick_6">
     <g id="line2d_6">
      <g>
       <use xlink:href="#m8080fd5d48" x="398.552217" y="307.584" style="stroke: #000000; stroke-width: 0.8"/>
      </g>
     </g>
     <g id="text_6">
      <!-- 5000 -->
      <g transform="translate(385.827217 322.182437)scale(0.1 -0.1)">
       <defs>
        <path id="DejaVuSans-35" d="M 691 4666 
L 3169 4666 
L 3169 4134 
L 1269 4134 
L 1269 2991 
Q 1406 3038 1543 3061 
Q 1681 3084 1819 3084 
Q 2600 3084 3056 2656 
Q 3513 2228 3513 1497 
Q 3513 744 3044 326 
Q 2575 -91 1722 -91 
Q 1428 -91 1123 -41 
Q 819 9 494 109 
L 494 744 
Q 775 591 1075 516 
Q 1375 441 1709 441 
Q 2250 441 2565 725 
Q 2881 1009 2881 1497 
Q 2881 1984 2565 2268 
Q 2250 2553 1709 2553 
Q 1456 2553 1204 2497 
Q 953 2441 691 2322 
L 691 4666 
z
" transform="scale(0.015625)"/>
       </defs>
       <use xlink:href="#DejaVuSans-35"/>
       <use xlink:href="#DejaVuSans-30" x="63.623047"/>
       <use xlink:href="#DejaVuSans-30" x="127.246094"/>
       <use xlink:href="#DejaVuSans-30" x="190.869141"/>
      </g>
     </g>
    </g>
    <g id="text_7">
     <!-- Number of Orders -->
     <g transform="translate(191.261562 335.860562)scale(0.1 -0.1)">
      <defs>
       <path id="DejaVuSans-4e" d="M 628 4666 
L 1478 4666 
L 3547 763 
L 3547 4666 
L 4159 4666 
L 4159 0 
L 3309 0 
L 1241 3903 
L 1241 0 
L 628 0 
L 628 4666 
z
" transform="scale(0.015625)"/>
       <path id="DejaVuSans-75" d="M 544 1381 
L 544 3500 
L 1119 3500 
L 1119 1403 
Q 1119 906 1312 657 
Q 1506 409 1894 409 
Q 2359 409 2629 706 
Q 2900 1003 2900 1516 
L 2900 3500 
L 3475 3500 
L 3475 0 
L 2900 0 
L 2900 538 
Q 2691 219 2414 64 
Q 2138 -91 1772 -91 
Q 1169 -91 856 284 
Q 544 659 544 1381 
z
M 1991 3584 
L 1991 3584 
z
" transform="scale(0.015625)"/>
       <path id="DejaVuSans-6d" d="M 3328 2828 
Q 3544 3216 3844 3400 
Q 4144 3584 4550 3584 
Q 5097 3584 5394 3201 
Q 5691 2819 5691 2113 
L 5691 0 
L 5113 0 
L 5113 2094 
Q 5113 2597 4934 2840 
Q 4756 3084 4391 3084 
Q 3944 3084 3684 2787 
Q 3425 2491 3425 1978 
L 3425 0 
L 2847 0 
L 2847 2094 
Q 2847 2600 2669 2842 
Q 2491 3084 2119 3084 
Q 1678 3084 1418 2786 
Q 1159 2488 1159 1978 
L 1159 0 
L 581 0 
L 581 3500 
L 1159 3500 
L 1159 2956 
Q 1356 3278 1631 3431 
Q 1906 3584 2284 3584 
Q 2666 3584 2933 3390 
Q 3200 3197 3328 2828 
z
" transform="scale(0.015625)"/>
       <path id="DejaVuSans-62" d="M 3116 1747 
Q 3116 2381 2855 2742 
Q 2594 3103 2138 3103 
Q 1681 3103 1420 2742 
Q 1159 2381 1159 1747 
Q 1159 1113 1420 752 
Q 1681 391 2138 391 
Q 2594 391 2855 752 
Q 3116 1113 3116 1747 
z
M 1159 2969 
Q 1341 3281 1617 3432 
Q 1894 3584 2278 3584 
Q 2916 3584 3314 3078 
Q 3713 2572 3713 1747 
Q 3713 922 3314 415 
Q 2916 -91 2278 -91 
Q 1894 -91 1617 61 
Q 1341 213 1159 525 
L 1159 0 
L 581 0 
L 581 4863 
L 1159 4863 
L 1159 2969 
z
" transform="scale(0.015625)"/>
       <path id="DejaVuSans-65" d="M 3597 1894 
L 3597 1613 
L 953 1613 
Q 991 1019 1311 708 
Q 1631 397 2203 397 
Q 2534 397 2845 478 
Q 3156 559 3463 722 
L 3463 178 
Q 3153 47 2828 -22 
Q 2503 -91 2169 -91 
Q 1331 -91 842 396 
Q 353 884 353 1716 
Q 353 2575 817 3079 
Q 1281 3584 2069 3584 
Q 2775 3584 3186 3129 
Q 3597 2675 3597 1894 
z
M 3022 2063 
Q 3016 2534 2758 2815 
Q 2500 3097 2075 3097 
Q 1594 3097 1305 2825 
Q 1016 2553 972 2059 
L 3022 2063 
z
" transform="scale(0.015625)"/>
       <path id="DejaVuSans-72" d="M 2631 2963 
Q 2534 3019 2420 3045 
Q 2306 3072 2169 3072 
Q 1681 3072 1420 2755 
Q 1159 2438 1159 1844 
L 1159 0 
L 581 0 
L 581 3500 
L 1159 3500 
L 1159 2956 
Q 1341 3275 1631 3429 
Q 1922 3584 2338 3584 
Q 2397 3584 2469 3576 
Q 2541 3569 2628 3553 
L 2631 2963 
z
" transform="scale(0.015625)"/>
       <path id="DejaVuSans-20" transform="scale(0.015625)"/>
       <path id="DejaVuSans-6f" d="M 1959 3097 
Q 1497 3097 1228 2736 
Q 959 2375 959 1747 
Q 959 1119 1226 758 
Q 1494 397 1959 397 
Q 2419 397 2687 759 
Q 2956 1122 2956 1747 
Q 2956 2369 2687 2733 
Q 2419 3097 1959 3097 
z
M 1959 3584 
Q 2709 3584 3137 3096 
Q 3566 2609 3566 1747 
Q 3566 888 3137 398 
Q 2709 -91 1959 -91 
Q 1206 -91 779 398 
Q 353 888 353 1747 
Q 353 2609 779 3096 
Q 1206 3584 1959 3584 
z
" transform="scale(0.015625)"/>
       <path id="DejaVuSans-66" d="M 2375 4863 
L 2375 4384 
L 1825 4384 
Q 1516 4384 1395 4259 
Q 1275 4134 1275 3809 
L 1275 3500 
L 2222 3500 
L 2222 3053 
L 1275 3053 
L 1275 0 
L 697 0 
L 697 3053 
L 147 3053 
L 147 3500 
L 697 3500 
L 697 3744 
Q 697 4328 969 4595 
Q 1241 4863 1831 4863 
L 2375 4863 
z
" transform="scale(0.015625)"/>
       <path id="DejaVuSans-4f" d="M 2522 4238 
Q 1834 4238 1429 3725 
Q 1025 3213 1025 2328 
Q 1025 1447 1429 934 
Q 1834 422 2522 422 
Q 3209 422 3611 934 
Q 4013 1447 4013 2328 
Q 4013 3213 3611 3725 
Q 3209 4238 2522 4238 
z
M 2522 4750 
Q 3503 4750 4090 4092 
Q 4678 3434 4678 2328 
Q 4678 1225 4090 567 
Q 3503 -91 2522 -91 
Q 1538 -91 948 565 
Q 359 1222 359 2328 
Q 359 3434 948 4092 
Q 1538 4750 2522 4750 
z
" transform="scale(0.015625)"/>
       <path id="DejaVuSans-64" d="M 2906 2969 
L 2906 4863 
L 3481 4863 
L 3481 0 
L 2906 0 
L 2906 525 
Q 2725 213 2448 61 
Q 2172 -91 1784 -91 
Q 1150 -91 751 415 
Q 353 922 353 1747 
Q 353 2572 751 3078 
Q 1150 3584 1784 3584 
Q 2172 3584 2448 3432 
Q 2725 3281 2906 2969 
z
M 947 1747 
Q 947 1113 1208 752 
Q 1469 391 1925 391 
Q 2381 391 2643 752 
Q 2906 1113 2906 1747 
Q 2906 2381 2643 2742 
Q 2381 3103 1925 3103 
Q 1469 3103 1208 2742 
Q 947 2381 947 1747 
z
" transform="scale(0.015625)"/>
       <path id="DejaVuSans-73" d="M 2834 3397 
L 2834 2853 
Q 2591 2978 2328 3040 
Q 2066 3103 1784 3103 
Q 1356 3103 1142 2972 
Q 928 2841 928 2578 
Q 928 2378 1081 2264 
Q 1234 2150 1697 2047 
L 1894 2003 
Q 2506 1872 2764 1633 
Q 3022 1394 3022 966 
Q 3022 478 2636 193 
Q 2250 -91 1575 -91 
Q 1294 -91 989 -36 
Q 684 19 347 128 
L 347 722 
Q 666 556 975 473 
Q 1284 391 1588 391 
Q 1994 391 2212 530 
Q 2431 669 2431 922 
Q 2431 1156 2273 1281 
Q 2116 1406 1581 1522 
L 1381 1569 
Q 847 1681 609 1914 
Q 372 2147 372 2553 
Q 372 3047 722 3315 
Q 1072 3584 1716 3584 
Q 2034 3584 2315 3537 
Q 2597 3491 2834 3397 
z
" transform="scale(0.015625)"/>
      </defs>
      <use xlink:href="#DejaVuSans-4e"/>
      <use xlink:href="#DejaVuSans-75" x="74.804688"/>
      <use xlink:href="#DejaVuSans-6d" x="138.183594"/>
      <use xlink:href="#DejaVuSans-62" x="235.595703"/>
      <use xlink:href="#DejaVuSans-65" x="299.072266"/>
      <use xlink:href="#DejaVuSans-72" x="360.595703"/>
      <use xlink:href="#DejaVuSans-20" x="401.708984"/>
      <use xlink:href="#DejaVuSans-6f" x="433.496094"/>
      <use xlink:href="#DejaVuSans-66" x="494.677734"/>
      <use xlink:href="#DejaVuSans-20" x="529.882812"/>
      <use xlink:href="#DejaVuSans-4f" x="561.669922"/>
      <use xlink:href="#DejaVuSans-72" x="640.380859"/>
      <use xlink:href="#DejaVuSans-64" x="679.744141"/>
      <use xlink:href="#DejaVuSans-65" x="743.220703"/>
      <use xlink:href="#DejaVuSans-72" x="804.744141"/>
      <use xlink:href="#DejaVuSans-73" x="845.857422"/>
     </g>
    </g>
   </g>
   <g id="matplotlib.axis_2">
    <g id="ytick_1">
     <g id="line2d_7">
      <defs>
       <path id="m893d7391c9" d="M 0 0 
L -3.5 0 
" style="stroke: #000000; stroke-width: 0.8"/>
      </defs>
      <g>
       <use xlink:href="#m893d7391c9" x="57.6" y="298.408063" style="stroke: #000000; stroke-width: 0.8"/>
      </g>
     </g>
     <g id="text_8">
      <!-- 200 -->
      <g transform="translate(31.5125 302.207282)scale(0.1 -0.1)">
       <use xlink:href="#DejaVuSans-32"/>
       <use xlink:href="#DejaVuSans-30" x="63.623047"/>
       <use xlink:href="#DejaVuSans-30" x="127.246094"/>
      </g>
     </g>
    </g>
    <g id="ytick_2">
     <g id="line2d_8">
      <g>
       <use xlink:href="#m893d7391c9" x="57.6" y="267.7264" style="stroke: #000000; stroke-width: 0.8"/>
      </g>
     </g>
     <g id="text_9">
      <!-- 300 -->
      <g transform="translate(31.5125 271.525619)scale(0.1 -0.1)">
       <use xlink:href="#DejaVuSans-33"/>
       <use xlink:href="#DejaVuSans-30" x="63.623047"/>
       <use xlink:href="#DejaVuSans-30" x="127.246094"/>
      </g>
     </g>
    </g>
    <g id="ytick_3">
     <g id="line2d_9">
      <g>
       <use xlink:href="#m893d7391c9" x="57.6" y="237.044736" style="stroke: #000000; stroke-width: 0.8"/>
      </g>
     </g>
     <g id="text_10">
      <!-- 400 -->
      <g transform="translate(31.5125 240.843955)scale(0.1 -0.1)">
       <use xlink:href="#DejaVuSans-34"/>
       <use xlink:href="#DejaVuSans-30" x="63.623047"/>
       <use xlink:href="#DejaVuSans-30" x="127.246094"/>
      </g>
     </g>
    </g>
    <g id="ytick_4">
     <g id="line2d_10">
      <g>
       <use xlink:href="#m893d7391c9" x="57.6" y="206.363073" style="stroke: #000000; stroke-width: 0.8"/>
      </g>
     </g>
     <g id="text_11">
      <!-- 500 -->
      <g transform="translate(31.5125 210.162292)scale(0.1 -0.1)">
       <use xlink:href="#DejaVuSans-35"/>
       <use xlink:href="#DejaVuSans-30" x="63.623047"/>
       <use xlink:href="#DejaVuSans-30" x="127.246094"/>
      </g>
     </g>
    </g>
    <g id="ytick_5">
     <g id="line2d_11">
      <g>
       <use xlink:href="#m893d7391c9" x="57.6" y="175.681409" style="stroke: #000000; stroke-width: 0.8"/>
      </g>
     </g>
     <g id="text_12">
      <!-- 600 -->
      <g transform="translate(31.5125 179.480628)scale(0.1 -0.1)">
       <defs>
        <path id="DejaVuSans-36" d="M 2113 2584 
Q 1688 2584 1439 2293 
Q 1191 2003 1191 1497 
Q 1191 994 1439 701 
Q 1688 409 2113 409 
Q 2538 409 2786 701 
Q 3034 994 3034 1497 
Q 3034 2003 2786 2293 
Q 2538 2584 2113 2584 
z
M 3366 4563 
L 3366 3988 
Q 3128 4100 2886 4159 
Q 2644 4219 2406 4219 
Q 1781 4219 1451 3797 
Q 1122 3375 1075 2522 
Q 1259 2794 1537 2939 
Q 1816 3084 2150 3084 
Q 2853 3084 3261 2657 
Q 3669 2231 3669 1497 
Q 3669 778 3244 343 
Q 2819 -91 2113 -91 
Q 1303 -91 875 529 
Q 447 1150 447 2328 
Q 447 3434 972 4092 
Q 1497 4750 2381 4750 
Q 2619 4750 2861 4703 
Q 3103 4656 3366 4563 
z
" transform="scale(0.015625)"/>
       </defs>
       <use xlink:href="#DejaVuSans-36"/>
       <use xlink:href="#DejaVuSans-30" x="63.623047"/>
       <use xlink:href="#DejaVuSans-30" x="127.246094"/>
      </g>
     </g>
    </g>
    <g id="ytick_6">
     <g id="line2d_12">
      <g>
       <use xlink:href="#m893d7391c9" x="57.6" y="144.999746" style="stroke: #000000; stroke-width: 0.8"/>
      </g>
     </g>
     <g id="text_13">
      <!-- 700 -->
      <g transform="translate(31.5125 148.798965)scale(0.1 -0.1)">
       <defs>
        <path id="DejaVuSans-37" d="M 525 4666 
L 3525 4666 
L 3525 4397 
L 1831 0 
L 1172 0 
L 2766 4134 
L 525 4134 
L 525 4666 
z
" transform="scale(0.015625)"/>
       </defs>
       <use xlink:href="#DejaVuSans-37"/>
       <use xlink:href="#DejaVuSans-30" x="63.623047"/>
       <use xlink:href="#DejaVuSans-30" x="127.246094"/>
      </g>
     </g>
    </g>
    <g id="ytick_7">
     <g id="line2d_13">
      <g>
       <use xlink:href="#m893d7391c9" x="57.6" y="114.318082" style="stroke: #000000; stroke-width: 0.8"/>
      </g>
     </g>
     <g id="text_14">
      <!-- 800 -->
      <g transform="translate(31.5125 118.117301)scale(0.1 -0.1)">
       <defs>
        <path id="DejaVuSans-38" d="M 2034 2216 
Q 1584 2216 1326 1975 
Q 1069 1734 1069 1313 
Q 1069 891 1326 650 
Q 1584 409 2034 409 
Q 2484 409 2743 651 
Q 3003 894 3003 1313 
Q 3003 1734 2745 1975 
Q 2488 2216 2034 2216 
z
M 1403 2484 
Q 997 2584 770 2862 
Q 544 3141 544 3541 
Q 544 4100 942 4425 
Q 1341 4750 2034 4750 
Q 2731 4750 3128 4425 
Q 3525 4100 3525 3541 
Q 3525 3141 3298 2862 
Q 3072 2584 2669 2484 
Q 3125 2378 3379 2068 
Q 3634 1759 3634 1313 
Q 3634 634 3220 271 
Q 2806 -91 2034 -91 
Q 1263 -91 848 271 
Q 434 634 434 1313 
Q 434 1759 690 2068 
Q 947 2378 1403 2484 
z
M 1172 3481 
Q 1172 3119 1398 2916 
Q 1625 2713 2034 2713 
Q 2441 2713 2670 2916 
Q 2900 3119 2900 3481 
Q 2900 3844 2670 4047 
Q 2441 4250 2034 4250 
Q 1625 4250 1398 4047 
Q 1172 3844 1172 3481 
z
" transform="scale(0.015625)"/>
       </defs>
       <use xlink:href="#DejaVuSans-38"/>
       <use xlink:href="#DejaVuSans-30" x="63.623047"/>
       <use xlink:href="#DejaVuSans-30" x="127.246094"/>
      </g>
     </g>
    </g>
    <g id="ytick_8">
     <g id="line2d_14">
      <g>
       <use xlink:href="#m893d7391c9" x="57.6" y="83.636419" style="stroke: #000000; stroke-width: 0.8"/>
      </g>
     </g>
     <g id="text_15">
      <!-- 900 -->
      <g transform="translate(31.5125 87.435638)scale(0.1 -0.1)">
       <defs>
        <path id="DejaVuSans-39" d="M 703 97 
L 703 672 
Q 941 559 1184 500 
Q 1428 441 1663 441 
Q 2288 441 2617 861 
Q 2947 1281 2994 2138 
Q 2813 1869 2534 1725 
Q 2256 1581 1919 1581 
Q 1219 1581 811 2004 
Q 403 2428 403 3163 
Q 403 3881 828 4315 
Q 1253 4750 1959 4750 
Q 2769 4750 3195 4129 
Q 3622 3509 3622 2328 
Q 3622 1225 3098 567 
Q 2575 -91 1691 -91 
Q 1453 -91 1209 -44 
Q 966 3 703 97 
z
M 1959 2075 
Q 2384 2075 2632 2365 
Q 2881 2656 2881 3163 
Q 2881 3666 2632 3958 
Q 2384 4250 1959 4250 
Q 1534 4250 1286 3958 
Q 1038 3666 1038 3163 
Q 1038 2656 1286 2365 
Q 1534 2075 1959 2075 
z
" transform="scale(0.015625)"/>
       </defs>
       <use xlink:href="#DejaVuSans-39"/>
       <use xlink:href="#DejaVuSans-30" x="63.623047"/>
       <use xlink:href="#DejaVuSans-30" x="127.246094"/>
      </g>
     </g>
    </g>
    <g id="ytick_9">
     <g id="line2d_15">
      <g>
       <use xlink:href="#m893d7391c9" x="57.6" y="52.954755" style="stroke: #000000; stroke-width: 0.8"/>
      </g>
     </g>
     <g id="text_16">
      <!-- 1000 -->
      <g transform="translate(25.15 56.753974)scale(0.1 -0.1)">
       <use xlink:href="#DejaVuSans-31"/>
       <use xlink:href="#DejaVuSans-30" x="63.623047"/>
       <use xlink:href="#DejaVuSans-30" x="127.246094"/>
       <use xlink:href="#DejaVuSans-30" x="190.869141"/>
      </g>
     </g>
    </g>
    <g id="text_17">
     <!-- Waiting Time/s -->
     <g transform="translate(19.070312 211.410031)rotate(-90)scale(0.1 -0.1)">
      <defs>
       <path id="DejaVuSans-57" d="M 213 4666 
L 850 4666 
L 1831 722 
L 2809 4666 
L 3519 4666 
L 4500 722 
L 5478 4666 
L 6119 4666 
L 4947 0 
L 4153 0 
L 3169 4050 
L 2175 0 
L 1381 0 
L 213 4666 
z
" transform="scale(0.015625)"/>
       <path id="DejaVuSans-61" d="M 2194 1759 
Q 1497 1759 1228 1600 
Q 959 1441 959 1056 
Q 959 750 1161 570 
Q 1363 391 1709 391 
Q 2188 391 2477 730 
Q 2766 1069 2766 1631 
L 2766 1759 
L 2194 1759 
z
M 3341 1997 
L 3341 0 
L 2766 0 
L 2766 531 
Q 2569 213 2275 61 
Q 1981 -91 1556 -91 
Q 1019 -91 701 211 
Q 384 513 384 1019 
Q 384 1609 779 1909 
Q 1175 2209 1959 2209 
L 2766 2209 
L 2766 2266 
Q 2766 2663 2505 2880 
Q 2244 3097 1772 3097 
Q 1472 3097 1187 3025 
Q 903 2953 641 2809 
L 641 3341 
Q 956 3463 1253 3523 
Q 1550 3584 1831 3584 
Q 2591 3584 2966 3190 
Q 3341 2797 3341 1997 
z
" transform="scale(0.015625)"/>
       <path id="DejaVuSans-69" d="M 603 3500 
L 1178 3500 
L 1178 0 
L 603 0 
L 603 3500 
z
M 603 4863 
L 1178 4863 
L 1178 4134 
L 603 4134 
L 603 4863 
z
" transform="scale(0.015625)"/>
       <path id="DejaVuSans-74" d="M 1172 4494 
L 1172 3500 
L 2356 3500 
L 2356 3053 
L 1172 3053 
L 1172 1153 
Q 1172 725 1289 603 
Q 1406 481 1766 481 
L 2356 481 
L 2356 0 
L 1766 0 
Q 1100 0 847 248 
Q 594 497 594 1153 
L 594 3053 
L 172 3053 
L 172 3500 
L 594 3500 
L 594 4494 
L 1172 4494 
z
" transform="scale(0.015625)"/>
       <path id="DejaVuSans-6e" d="M 3513 2113 
L 3513 0 
L 2938 0 
L 2938 2094 
Q 2938 2591 2744 2837 
Q 2550 3084 2163 3084 
Q 1697 3084 1428 2787 
Q 1159 2491 1159 1978 
L 1159 0 
L 581 0 
L 581 3500 
L 1159 3500 
L 1159 2956 
Q 1366 3272 1645 3428 
Q 1925 3584 2291 3584 
Q 2894 3584 3203 3211 
Q 3513 2838 3513 2113 
z
" transform="scale(0.015625)"/>
       <path id="DejaVuSans-67" d="M 2906 1791 
Q 2906 2416 2648 2759 
Q 2391 3103 1925 3103 
Q 1463 3103 1205 2759 
Q 947 2416 947 1791 
Q 947 1169 1205 825 
Q 1463 481 1925 481 
Q 2391 481 2648 825 
Q 2906 1169 2906 1791 
z
M 3481 434 
Q 3481 -459 3084 -895 
Q 2688 -1331 1869 -1331 
Q 1566 -1331 1297 -1286 
Q 1028 -1241 775 -1147 
L 775 -588 
Q 1028 -725 1275 -790 
Q 1522 -856 1778 -856 
Q 2344 -856 2625 -561 
Q 2906 -266 2906 331 
L 2906 616 
Q 2728 306 2450 153 
Q 2172 0 1784 0 
Q 1141 0 747 490 
Q 353 981 353 1791 
Q 353 2603 747 3093 
Q 1141 3584 1784 3584 
Q 2172 3584 2450 3431 
Q 2728 3278 2906 2969 
L 2906 3500 
L 3481 3500 
L 3481 434 
z
" transform="scale(0.015625)"/>
       <path id="DejaVuSans-54" d="M -19 4666 
L 3928 4666 
L 3928 4134 
L 2272 4134 
L 2272 0 
L 1638 0 
L 1638 4134 
L -19 4134 
L -19 4666 
z
" transform="scale(0.015625)"/>
       <path id="DejaVuSans-2f" d="M 1625 4666 
L 2156 4666 
L 531 -594 
L 0 -594 
L 1625 4666 
z
" transform="scale(0.015625)"/>
      </defs>
      <use xlink:href="#DejaVuSans-57"/>
      <use xlink:href="#DejaVuSans-61" x="92.501953"/>
      <use xlink:href="#DejaVuSans-69" x="153.78125"/>
      <use xlink:href="#DejaVuSans-74" x="181.564453"/>
      <use xlink:href="#DejaVuSans-69" x="220.773438"/>
      <use xlink:href="#DejaVuSans-6e" x="248.556641"/>
      <use xlink:href="#DejaVuSans-67" x="311.935547"/>
      <use xlink:href="#DejaVuSans-20" x="375.412109"/>
      <use xlink:href="#DejaVuSans-54" x="407.199219"/>
      <use xlink:href="#DejaVuSans-69" x="465.158203"/>
      <use xlink:href="#DejaVuSans-6d" x="492.941406"/>
      <use xlink:href="#DejaVuSans-65" x="590.353516"/>
      <use xlink:href="#DejaVuSans-2f" x="651.876953"/>
      <use xlink:href="#DejaVuSans-73" x="685.568359"/>
     </g>
    </g>
   </g>
   <g id="line2d_16">
    <path d="M 73.832727 295.488 
L 73.897671 245.443294 
L 73.962615 256.856471 
L 74.157447 237.048242 
L 74.222391 243.131597 
L 74.287335 242.192548 
L 74.417222 218.269134 
L 74.482166 221.608523 
L 74.612054 212.69104 
L 74.676998 216.619388 
L 74.741942 214.035905 
L 74.806886 215.366624 
L 74.87183 210.292246 
L 75.001717 216.411222 
L 75.391381 194.927388 
L 75.456325 192.832246 
L 75.651156 196.937098 
L 75.781044 194.633138 
L 75.975876 184.45664 
L 76.170708 187.593875 
L 76.300595 183.636604 
L 76.365539 184.415188 
L 76.430483 183.819398 
L 76.560371 177.466728 
L 76.625315 178.297078 
L 76.690259 180.092475 
L 76.820147 176.466903 
L 76.88509 176.701488 
L 76.950034 175.770732 
L 77.014978 176.312721 
L 77.079922 176.247497 
L 77.20981 178.696038 
L 77.339698 176.6243 
L 77.599473 181.313702 
L 77.794305 176.140428 
L 77.924193 177.356628 
L 77.989137 176.511631 
L 78.054081 177.45352 
L 78.183968 174.0496 
L 78.248912 174.768551 
L 78.313856 173.958089 
L 78.443744 175.280678 
L 78.508688 173.561191 
L 78.573632 174.223125 
L 78.70352 172.990812 
L 78.768464 174.189128 
L 79.028239 169.51617 
L 79.223071 170.97892 
L 79.288015 170.095488 
L 79.417902 171.176736 
L 79.482846 170.237945 
L 79.612734 172.528016 
L 79.807566 170.263857 
L 79.87251 170.269626 
L 79.937454 170.114084 
L 80.197229 167.029407 
L 80.262173 168.06367 
L 80.327117 167.978999 
L 80.392061 167.632927 
L 80.457005 167.999504 
L 80.586893 167.415589 
L 80.781724 169.087852 
L 80.846668 168.607056 
L 81.0415 170.472654 
L 81.171388 171.028093 
L 81.366219 170.246078 
L 81.561051 171.972827 
L 81.625995 170.712046 
L 81.690939 171.251803 
L 81.755883 170.946148 
L 81.885771 169.728546 
L 81.950715 170.231083 
L 82.015658 170.178117 
L 82.405322 167.47635 
L 82.470266 167.706869 
L 82.665097 169.759447 
L 82.730041 169.516758 
L 82.859929 168.61517 
L 83.054761 170.088493 
L 83.184649 169.258064 
L 83.249592 169.257285 
L 83.444424 171.334173 
L 83.509368 170.894591 
L 83.574312 171.427504 
L 83.639256 171.365184 
L 83.7042 171.539216 
L 83.899031 169.625434 
L 83.963975 169.658903 
L 84.093863 170.516208 
L 84.158807 170.232445 
L 84.223751 170.494869 
L 84.288695 169.646558 
L 84.353639 170.147163 
L 84.483527 170.256371 
L 84.678358 171.615984 
L 84.743302 170.776933 
L 84.808246 171.121512 
L 85.132966 169.710354 
L 85.197909 169.760744 
L 85.262853 170.293051 
L 85.457685 169.287992 
L 85.522629 169.981565 
L 85.587573 169.91083 
L 85.652517 169.124367 
L 85.717461 169.145402 
L 85.782404 169.374611 
L 85.847348 169.239195 
L 85.977236 168.639708 
L 86.04218 169.042712 
L 86.107124 168.717669 
L 86.172068 169.196326 
L 86.3669 168.335732 
L 86.561731 169.120535 
L 86.756563 168.225736 
L 86.886451 168.623073 
L 86.951395 168.539415 
L 87.146226 169.358329 
L 87.276114 168.636941 
L 87.341058 168.663835 
L 87.665778 167.869419 
L 87.730721 168.522817 
L 87.795665 168.219797 
L 87.990497 168.759169 
L 88.055441 168.702668 
L 88.185329 168.925104 
L 88.574992 166.478141 
L 88.639936 166.709284 
L 89.029599 166.112495 
L 89.094543 166.090891 
L 89.354319 165.163802 
L 89.679038 166.221504 
L 89.808926 165.723554 
L 90.133646 166.537513 
L 90.458365 164.710296 
L 90.523309 164.825112 
L 90.588253 164.645287 
L 90.653197 164.089623 
L 90.718141 164.347428 
L 90.848029 164.475422 
L 91.04286 163.631903 
L 91.432524 165.319098 
L 91.497467 165.41477 
L 91.562411 165.3156 
L 91.627355 165.853734 
L 91.692299 165.55504 
L 91.757243 165.637979 
L 92.017019 164.544142 
L 92.081963 164.87489 
L 92.146906 164.803952 
L 92.21185 164.901567 
L 92.341738 164.463608 
L 92.471626 165.272501 
L 92.601514 164.547052 
L 92.666458 164.825697 
L 92.731402 164.646894 
L 92.861289 164.706952 
L 92.926233 164.848632 
L 92.991177 164.662947 
L 93.056121 164.853265 
L 93.121065 164.670823 
L 93.186009 164.990651 
L 93.445784 163.738192 
L 93.510728 163.734039 
L 93.640616 163.502656 
L 93.70556 163.53197 
L 93.835448 164.229658 
L 93.900392 163.865085 
L 93.965336 163.91141 
L 94.095223 164.219868 
L 94.225111 164.744576 
L 94.354999 164.496757 
L 94.484887 165.194721 
L 94.549831 165.008337 
L 94.614775 164.986276 
L 94.679718 164.81569 
L 94.744662 165.222158 
L 94.809606 165.089884 
L 94.939494 165.443437 
L 95.004438 165.368465 
L 95.069382 165.177348 
L 95.19927 165.777215 
L 95.264214 165.62192 
L 95.329157 165.680448 
L 95.459045 165.430297 
L 95.523989 165.595297 
L 95.588933 165.270507 
L 95.653877 165.308835 
L 95.718821 165.466035 
L 95.848709 164.900115 
L 95.913653 165.116707 
L 95.978596 164.998666 
L 96.04354 164.835933 
L 96.108484 164.865799 
L 96.36826 165.703168 
L 96.433204 165.631664 
L 96.498148 165.571267 
L 96.628035 165.281054 
L 96.757923 165.305091 
L 96.887811 164.666941 
L 96.952755 164.815769 
L 97.147587 165.241577 
L 97.212531 165.229316 
L 97.277474 165.475118 
L 97.342418 165.306741 
L 97.407362 165.33343 
L 97.667138 164.703739 
L 98.186689 165.617687 
L 98.251633 165.339126 
L 98.316577 165.355696 
L 98.446465 165.599378 
L 98.511408 165.315997 
L 98.576352 165.437621 
L 98.641296 165.464212 
L 98.966016 164.836717 
L 99.095904 165.164035 
L 99.225791 165.287937 
L 99.420623 164.947733 
L 99.485567 164.917658 
L 99.87523 165.571371 
L 100.070062 165.198281 
L 100.135006 165.005922 
L 100.329838 165.494176 
L 100.589613 165.065543 
L 100.784445 165.473174 
L 100.849389 165.627114 
L 101.04422 165.112487 
L 101.109164 165.155217 
L 101.239052 164.678278 
L 101.303996 164.711348 
L 101.36894 164.862278 
L 101.433884 164.808861 
L 101.628716 164.423254 
L 101.758603 164.428471 
L 101.953435 163.739271 
L 102.018379 163.864489 
L 102.148267 164.164601 
L 102.213211 164.152981 
L 102.408042 163.609015 
L 102.472986 163.661145 
L 102.53793 163.814585 
L 102.602874 163.711009 
L 103.317257 162.799601 
L 103.641976 163.412586 
L 103.836808 163.039199 
L 103.901752 163.177833 
L 103.966696 163.063608 
L 104.03164 163.054513 
L 104.161528 162.644431 
L 104.226471 162.734677 
L 104.486247 163.51878 
L 104.616135 163.691306 
L 105.330518 162.510189 
L 105.460406 162.76753 
L 105.590293 162.22769 
L 105.655237 162.346224 
L 105.785125 162.235748 
L 106.109845 160.975436 
L 106.239732 160.886145 
L 106.564452 160.288882 
L 106.759283 160.472718 
L 106.954115 160.369096 
L 107.019059 160.461673 
L 107.213891 160.055545 
L 107.278835 160.096513 
L 107.603554 160.897487 
L 107.798386 160.372064 
L 107.928274 160.502248 
L 108.188049 159.680159 
L 108.317937 159.42189 
L 108.512769 159.941465 
L 108.577713 159.91147 
L 109.03232 159.568463 
L 109.292096 160.061981 
L 109.357039 159.777679 
L 109.421983 159.803478 
L 109.551871 159.957184 
L 109.876591 158.781987 
L 110.071422 159.079538 
L 110.266254 159.020944 
L 110.331198 159.098983 
L 110.396142 158.886552 
L 110.461086 159.012468 
L 110.52603 158.854954 
L 110.590973 159.07287 
L 110.655917 159.003 
L 110.720861 158.94268 
L 110.850749 159.056496 
L 110.915693 158.890932 
L 111.110525 159.079491 
L 111.305356 159.325801 
L 111.435244 159.575569 
L 111.69502 159.202002 
L 111.759964 159.180244 
L 111.889851 158.963636 
L 112.084683 159.200868 
L 112.149627 158.998716 
L 112.214571 159.117048 
L 112.344459 158.944741 
L 112.409403 158.985011 
L 112.669178 158.720147 
L 112.86401 159.064632 
L 112.993898 158.829446 
L 113.123785 159.003998 
L 113.318617 158.628069 
L 113.513449 158.931887 
L 114.097944 158.124837 
L 114.35772 158.25284 
L 114.617495 158.644097 
L 114.747383 158.506751 
L 114.877271 158.65169 
L 115.072102 158.489242 
L 115.20199 158.138515 
L 115.331878 158.486327 
L 115.52671 158.095313 
L 115.851429 158.425269 
L 115.916373 158.271461 
L 116.046261 158.155763 
L 116.241093 158.694969 
L 116.37098 158.580454 
L 116.565812 158.634193 
L 116.6957 158.720144 
L 116.760644 158.683979 
L 116.825588 158.459804 
L 116.955475 158.756139 
L 117.215251 158.252714 
L 117.280195 158.150178 
L 117.410083 158.289375 
L 117.604914 158.239635 
L 117.669858 158.310058 
L 118.059522 157.569235 
L 118.579073 157.111909 
L 118.644017 157.293283 
L 118.708961 157.137382 
L 118.773905 157.211872 
L 118.838848 157.226571 
L 119.098624 156.509037 
L 119.228512 156.713957 
L 119.293456 156.498394 
L 119.3584 156.663654 
L 119.488287 156.73407 
L 119.618175 156.559115 
L 119.683119 156.562603 
L 119.748063 156.746425 
L 120.007839 156.149106 
L 120.20267 156.481573 
L 120.267614 156.367201 
L 120.332558 156.45191 
L 120.52739 156.295356 
L 120.657278 155.860133 
L 120.852109 156.288096 
L 121.046941 155.842065 
L 121.241773 155.990509 
L 121.371661 155.786657 
L 121.436604 155.923067 
L 121.501548 155.805037 
L 121.761324 155.951206 
L 121.826268 155.791584 
L 121.891212 155.843123 
L 122.086043 155.973034 
L 122.215931 156.149649 
L 122.280875 156.00068 
L 122.345819 156.071845 
L 122.735482 156.031629 
L 122.800426 156.100205 
L 122.86537 156.032354 
L 122.995258 155.844136 
L 123.060202 156.03105 
L 123.125146 155.972565 
L 123.19009 155.93967 
L 123.384921 156.156413 
L 123.644697 155.65225 
L 123.709641 155.822367 
L 123.774585 155.787355 
L 124.03436 155.610617 
L 124.099304 155.639054 
L 124.164248 155.791843 
L 124.229192 155.730245 
L 124.294136 155.776579 
L 124.553912 155.371631 
L 124.748743 155.496662 
L 124.813687 155.269601 
L 124.878631 155.343087 
L 125.138407 155.12856 
L 125.398182 155.609045 
L 125.852789 155.143781 
L 126.047621 155.155374 
L 126.112565 154.89945 
L 126.177509 154.916665 
L 126.502228 155.144939 
L 126.567172 155.042763 
L 126.632116 155.098074 
L 127.086724 155.820423 
L 127.216611 155.94803 
L 127.346499 156.042924 
L 127.411443 155.986326 
L 127.606275 156.217746 
L 127.801106 155.665731 
L 128.125826 155.75062 
L 128.19077 155.645667 
L 128.255714 155.746278 
L 128.840209 156.284152 
L 128.905153 156.406131 
L 129.099984 155.965507 
L 129.424704 155.901079 
L 129.489648 155.873479 
L 129.554592 155.691515 
L 129.619536 155.833623 
L 129.749423 155.720699 
L 129.879311 155.812194 
L 130.268975 155.380257 
L 130.398862 155.304661 
L 130.658638 154.83522 
L 130.983357 155.005112 
L 131.178189 154.670763 
L 131.243133 154.728262 
L 131.308077 154.528288 
L 131.373021 154.558984 
L 131.827628 154.180858 
L 131.957516 154.323809 
L 132.02246 154.300993 
L 132.087404 154.07296 
L 132.152348 154.107446 
L 132.217291 154.168057 
L 132.477067 153.741675 
L 132.736843 153.234734 
L 132.801787 153.329346 
L 132.931674 153.324925 
L 132.996618 153.093966 
L 133.061562 153.186762 
L 133.126506 153.229301 
L 133.19145 153.067239 
L 133.256394 153.156368 
L 133.321338 153.097352 
L 133.386282 152.794041 
L 133.451226 152.828396 
L 133.711001 152.603996 
L 133.775945 152.652543 
L 133.840889 152.50392 
L 133.905833 152.579908 
L 134.035721 152.472756 
L 134.100664 152.227017 
L 134.165608 152.277988 
L 134.295496 152.162969 
L 134.36044 152.273535 
L 134.425384 152.19937 
L 134.620216 151.924469 
L 134.750103 151.942871 
L 135.009879 151.494775 
L 135.074823 151.530361 
L 135.269655 151.30146 
L 135.399542 151.287511 
L 135.464486 151.306946 
L 135.789206 150.790951 
L 135.85415 150.789129 
L 135.984038 150.657916 
L 136.113925 150.886823 
L 136.243813 150.692299 
L 136.308757 150.788811 
L 136.373701 150.709003 
L 137.088084 150.471765 
L 137.412803 150.676554 
L 137.737523 150.094892 
L 137.802467 150.196345 
L 137.867411 150.273434 
L 137.997298 150.064557 
L 138.062242 150.217263 
L 138.19213 149.981526 
L 138.386962 149.953466 
L 138.51685 149.750279 
L 138.646737 149.772055 
L 138.841569 149.992642 
L 139.555952 150.256088 
L 139.620896 150.229821 
L 139.880671 150.525026 
L 139.945615 150.503468 
L 140.075503 150.294357 
L 140.140447 150.324248 
L 140.465166 149.963534 
L 141.114605 149.58785 
L 141.309437 149.729183 
L 141.504269 149.582808 
L 141.569213 149.709055 
L 141.699101 149.517727 
L 141.764044 149.579381 
L 141.893932 149.522047 
L 141.958876 149.574114 
L 142.088764 149.412765 
L 142.218652 149.602336 
L 142.283596 149.49988 
L 142.543371 149.41248 
L 142.608315 149.53847 
L 142.673259 149.489373 
L 142.868091 149.135155 
L 142.933035 149.132894 
L 143.127866 148.764983 
L 143.257754 148.801189 
L 143.322698 148.564534 
L 143.387642 148.632542 
L 143.51753 148.541217 
L 143.582474 148.455581 
L 143.647417 148.543442 
L 144.037081 148.634696 
L 144.296856 148.550199 
L 144.491688 148.670409 
L 144.556632 148.745256 
L 144.751464 148.514746 
L 144.946295 148.587425 
L 145.076183 148.555384 
L 145.141127 148.438186 
L 145.206071 148.522287 
L 145.271015 148.54737 
L 145.335959 148.698241 
L 145.400903 148.644857 
L 145.465847 148.555924 
L 145.530791 148.632846 
L 145.660678 148.764312 
L 145.790566 148.813938 
L 146.440005 148.236588 
L 146.569893 148.107044 
L 146.699781 148.135083 
L 146.894612 148.271971 
L 147.219332 148.059322 
L 147.34922 147.950906 
L 147.673939 148.09746 
L 148.323378 147.750572 
L 148.583154 147.422363 
L 148.713042 147.488824 
L 148.842929 147.387057 
L 148.972817 147.406222 
L 149.037761 147.368381 
L 149.102705 147.468353 
L 149.167649 147.402679 
L 149.36248 147.437634 
L 149.622256 147.569731 
L 149.6872 147.478921 
L 149.752144 147.577604 
L 149.817088 147.519432 
L 149.882032 147.665928 
L 149.946976 147.616686 
L 150.271695 147.768329 
L 150.401583 147.634907 
L 150.661358 147.416773 
L 151.570573 147.611887 
L 151.765405 147.792131 
L 152.02518 147.580997 
L 152.090124 147.674718 
L 152.155068 147.576553 
L 152.479788 147.448648 
L 152.674619 147.625654 
L 152.999339 147.911123 
L 153.064283 147.787067 
L 153.129227 147.901113 
L 153.259114 147.880258 
L 153.389002 147.687721 
L 153.453946 147.741869 
L 153.583834 147.705605 
L 154.168329 147.537992 
L 154.298217 147.344943 
L 154.622936 147.634487 
L 154.882712 147.447698 
L 155.337319 147.131858 
L 155.467207 147.129977 
L 155.662039 147.002415 
L 155.921814 147.129887 
L 156.051702 147.073948 
L 156.18159 147.093259 
L 156.246534 146.972429 
L 156.311478 147.078244 
L 156.376421 146.969426 
L 156.441365 147.034587 
L 156.571253 147.007793 
L 156.766085 146.759959 
L 157.415524 146.933973 
L 157.870131 146.644947 
L 158.064963 146.886592 
L 158.259795 146.879289 
L 158.389682 146.857521 
L 158.51957 146.947747 
L 158.714402 146.967922 
L 158.779346 146.99702 
L 158.909233 146.876119 
L 159.104065 146.951449 
L 159.298897 146.812564 
L 159.428785 146.80924 
L 159.493729 146.715894 
L 159.558672 146.761299 
L 160.078224 147.03469 
L 160.143168 146.981903 
L 160.208111 147.088749 
L 160.273055 146.908305 
L 160.337999 146.957915 
L 160.467887 146.938281 
L 160.727663 146.766465 
L 160.922494 146.90583 
L 161.052382 146.914234 
L 161.247214 147.129124 
L 161.571933 146.843656 
L 162.091484 146.697815 
L 162.156428 146.76953 
L 162.35126 146.660401 
L 162.481148 146.643523 
L 162.611036 146.656081 
L 162.870811 146.355028 
L 163.130587 146.256282 
L 163.325419 145.956704 
L 163.585194 146.190318 
L 163.650138 146.200784 
L 164.169689 145.495151 
L 164.364521 145.540612 
L 164.68924 145.505172 
L 165.338679 145.398531 
L 165.468567 145.27127 
L 165.728343 145.358321 
L 165.858231 145.360794 
L 166.312838 145.098732 
L 166.442726 145.117041 
L 166.50767 144.994719 
L 166.572613 145.083687 
L 166.832389 145.14976 
L 167.027221 145.065308 
L 167.222052 145.216354 
L 167.416884 145.05207 
L 167.611716 144.937245 
L 167.741604 145.028851 
L 168.001379 144.829928 
L 168.326099 144.658111 
L 168.455986 144.651318 
L 168.585874 144.709612 
L 168.780706 144.689403 
L 168.84565 144.818877 
L 168.910594 144.753273 
L 169.495089 144.74539 
L 169.689921 144.578384 
L 170.01464 144.447659 
L 170.144528 144.50292 
L 170.274416 144.588944 
L 170.469247 144.813019 
L 170.729023 144.683756 
L 170.923855 144.747692 
L 171.053742 144.655165 
L 171.18363 144.768335 
L 171.313518 144.73816 
L 171.50835 144.88067 
L 171.638237 144.824486 
L 171.833069 144.893607 
L 172.222733 145.140889 
L 172.482508 145.248409 
L 172.547452 145.168441 
L 172.612396 145.249671 
L 173.002059 145.365866 
L 173.067003 145.47384 
L 173.131947 145.391112 
L 173.391723 145.557859 
L 173.651498 145.401553 
L 173.84633 145.326097 
L 174.106106 145.338744 
L 174.300937 145.240497 
L 174.430825 145.281428 
L 174.560713 145.239001 
L 174.755545 145.161888 
L 174.950376 145.345669 
L 175.275096 145.464791 
L 175.404984 145.518971 
L 175.534871 145.510032 
L 175.664759 145.501167 
L 175.794647 145.415117 
L 175.859591 145.473321 
L 175.989479 145.413058 
L 176.18431 145.513703 
L 176.573974 145.614765 
L 176.768805 145.616976 
L 177.67802 146.024408 
L 177.807908 145.845596 
L 177.872852 145.885915 
L 178.652178 145.932544 
L 179.041842 146.108375 
L 179.236674 146.136026 
L 179.431505 146.267071 
L 179.626337 146.341528 
L 179.756225 146.366831 
L 180.210832 146.398827 
L 180.535551 146.497445 
L 180.600495 146.426522 
L 180.665439 146.498492 
L 181.249934 146.307764 
L 181.639598 146.398392 
L 181.899373 146.358012 
L 182.159149 146.240275 
L 182.353981 146.388833 
L 182.6787 146.16727 
L 183.263195 146.127439 
L 183.328139 146.181355 
L 183.393083 146.097917 
L 183.522971 146.04736 
L 183.717802 146.195052 
L 183.977578 146.099089 
L 184.17241 146.127185 
L 184.562073 146.080321 
L 184.691961 146.207077 
L 185.01668 146.105787 
L 185.276456 146.145261 
L 186.445446 146.166428 
L 186.770166 146.317145 
L 187.029941 146.219765 
L 187.354661 146.300125 
L 187.549492 146.315395 
L 187.809268 146.439632 
L 187.939156 146.349387 
L 188.133988 146.400142 
L 188.263875 146.350526 
L 188.328819 146.403852 
L 188.523651 146.245584 
L 189.302978 146.396753 
L 189.432865 146.393979 
L 189.627697 146.309817 
L 189.822529 146.306241 
L 190.407024 146.522762 
L 190.6668 146.477715 
L 190.861631 146.480232 
L 191.316239 146.455138 
L 191.51107 146.43062 
L 191.770846 146.482791 
L 191.900734 146.385703 
L 192.290397 146.538053 
L 192.420285 146.489314 
L 193.00478 146.524448 
L 193.329499 146.390335 
L 193.524331 146.434515 
L 193.589275 146.295395 
L 193.654219 146.336912 
L 193.913994 146.339484 
L 194.108826 146.274749 
L 194.953097 146.149067 
L 195.082985 146.118075 
L 195.212872 146.157415 
L 195.472648 146.240136 
L 195.732424 146.131292 
L 195.862311 146.199673 
L 195.992199 146.244278 
L 196.316919 146.216702 
L 196.771526 146.286531 
L 196.966358 146.238306 
L 197.291077 146.387103 
L 197.485909 146.32431 
L 197.810628 146.33029 
L 197.875572 146.215183 
L 197.940516 146.254139 
L 198.135348 146.266867 
L 199.239394 146.431416 
L 199.369282 146.398254 
L 199.823889 146.496408 
L 199.953777 146.386433 
L 200.278496 146.475966 
L 200.473328 146.435533 
L 200.603216 146.411765 
L 201.252655 146.242829 
L 201.382543 146.312589 
L 201.577374 146.230795 
L 202.356701 146.348077 
L 202.486589 146.456491 
L 202.681421 146.468366 
L 203.071084 146.320132 
L 203.265916 146.334796 
L 203.395804 146.352075 
L 203.655579 146.282568 
L 204.045243 146.253093 
L 204.17513 146.181408 
L 204.434906 146.211335 
L 205.603896 146.030518 
L 205.928616 146.231109 
L 206.188391 146.138715 
L 206.318279 146.178217 
L 207.811989 146.014618 
L 208.266596 146.084844 
L 209.045923 146.294146 
L 209.240754 146.312415 
L 210.539632 146.386811 
L 211.318959 146.446917 
L 211.513791 146.403615 
L 211.83851 146.623466 
L 212.358061 146.663557 
L 212.747725 146.779379 
L 213.137388 146.576789 
L 213.656939 146.550001 
L 214.50121 146.83215 
L 214.631098 146.7774 
L 215.280537 146.93562 
L 217.034022 147.191682 
L 217.293798 147.120723 
L 217.748405 147.115892 
L 217.878293 147.032398 
L 218.267956 147.109992 
L 218.65762 147.023582 
L 218.982339 147.071093 
L 219.307059 146.903462 
L 219.566834 147.039589 
L 219.82661 147.095499 
L 220.086385 146.965537 
L 220.216273 146.933995 
L 220.540993 146.904463 
L 220.800768 146.947161 
L 220.865712 146.874416 
L 220.930656 146.934239 
L 223.138748 146.565382 
L 223.268636 146.612643 
L 223.593356 146.52536 
L 223.983019 146.493662 
L 224.307739 146.382039 
L 224.50257 146.306846 
L 224.697402 146.288635 
L 225.022122 146.285794 
L 225.411785 146.302416 
L 225.801448 146.498618 
L 226.385943 146.327769 
L 226.580775 146.384164 
L 227.879653 146.158444 
L 228.009541 146.113107 
L 229.178531 146.133086 
L 229.373363 146.105782 
L 229.698082 146.230146 
L 229.957858 146.204508 
L 230.087746 146.029793 
L 230.347521 146.163108 
L 230.412465 146.07903 
L 230.477409 146.137077 
L 230.867072 146.065961 
L 231.906175 145.896724 
L 233.140109 145.650018 
L 233.33494 145.58242 
L 233.464828 145.539442 
L 233.65966 145.474198 
L 235.088426 145.14036 
L 235.413145 145.170932 
L 235.672921 145.089045 
L 235.867752 145.118314 
L 238.66034 144.963611 
L 240.608657 145.218199 
L 240.803489 145.155719 
L 241.32304 145.30365 
L 241.452928 145.316734 
L 241.647759 145.380963 
L 242.686862 145.235662 
L 243.271357 145.192299 
L 243.466189 145.13212 
L 243.790908 145.189166 
L 244.050684 145.16742 
L 245.349562 145.143539 
L 245.674281 145.301334 
L 245.804169 145.260939 
L 246.063944 145.305462 
L 246.518552 145.213969 
L 246.973159 145.275049 
L 247.49271 145.259629 
L 248.596756 145.491857 
L 248.921476 145.508474 
L 250.674961 145.347608 
L 251.064625 145.228518 
L 252.428446 145.085534 
L 252.558334 144.972206 
L 252.753166 145.002669 
L 253.142829 144.998335 
L 253.337661 144.985634 
L 253.532493 144.963117 
L 253.857212 145.003183 
L 254.116988 145.08392 
L 254.636539 145.068992 
L 255.285978 145.053639 
L 255.48081 145.013899 
L 257.039463 145.038067 
L 257.623958 144.835342 
L 257.81879 144.836163 
L 258.403285 144.898331 
L 259.052724 145.04885 
L 259.247556 145.030719 
L 260.741265 145.077591 
L 260.936097 145.010333 
L 262.81947 144.895648 
L 263.079246 144.887421 
L 263.533853 144.816952 
L 263.923516 144.820986 
L 264.248236 144.880552 
L 264.443068 144.86258 
L 264.572955 144.868021 
L 264.962619 144.930765 
L 268.664421 145.043282 
L 268.794309 145.032017 
L 269.443748 145.144051 
L 269.768467 145.252473 
L 270.093187 145.303029 
L 270.223074 145.321078 
L 270.547794 145.202868 
L 270.80757 145.234587 
L 271.002401 145.273528 
L 271.327121 145.298388 
L 271.521952 145.297694 
L 271.911616 145.335096 
L 272.171391 145.325226 
L 273.600157 145.615757 
L 276.522633 145.499703 
L 276.847352 145.444727 
L 277.237015 145.504524 
L 278.081286 145.512358 
L 280.679042 145.218314 
L 280.873874 145.220637 
L 282.757247 145.139235 
L 283.731405 145.249568 
L 284.056125 145.334795 
L 284.380844 145.296021 
L 285.549834 145.246985 
L 285.874554 145.342957 
L 286.069386 145.382773 
L 286.459049 145.396584 
L 286.653881 145.374809 
L 286.913656 145.438644 
L 287.173432 145.364146 
L 287.692983 145.320028 
L 288.082646 145.154017 
L 288.537254 145.217851 
L 290.290739 145.159721 
L 290.485571 145.115837 
L 290.875234 145.037063 
L 291.13501 144.968122 
L 292.044224 144.9279 
L 292.563775 144.908601 
L 292.823551 144.969277 
L 294.447148 144.847742 
L 294.836812 144.915435 
L 295.291419 144.816446 
L 295.875914 144.905146 
L 296.395465 145.00592 
L 296.590297 144.96837 
L 296.785129 145.012592 
L 297.109848 144.954803 
L 297.369624 144.986151 
L 297.889175 144.905521 
L 298.148951 144.908416 
L 298.47367 144.812902 
L 298.668502 144.780102 
L 299.252997 144.78291 
L 299.447828 144.680708 
L 299.64266 144.712486 
L 299.902436 144.728505 
L 300.357043 144.745807 
L 300.551875 144.705034 
L 300.681763 144.669032 
L 301.071426 144.719296 
L 301.266258 144.687309 
L 301.720865 144.802905 
L 303.084687 145.033355 
L 303.344462 144.932358 
L 303.993901 144.95036 
L 304.513453 144.847988 
L 304.838172 144.891674 
L 305.033004 144.847736 
L 305.292779 144.824308 
L 306.072106 144.678255 
L 306.656601 144.515628 
L 307.046265 144.33939 
L 307.370984 144.375505 
L 307.63076 144.357426 
L 308.734806 144.175919 
L 309.059525 144.104999 
L 310.033684 144.183575 
L 310.293459 144.22378 
L 310.488291 144.175562 
L 311.007842 144.205494 
L 312.30672 144.136925 
L 312.566496 144.116776 
L 312.826271 144.100362 
L 315.813691 144.095381 
L 316.13841 144.072642 
L 318.866054 143.862122 
L 319.190773 143.912781 
L 320.359764 143.699054 
L 320.554595 143.698367 
L 321.204034 143.714635 
L 321.593698 143.754609 
L 321.723585 143.748985 
L 321.983361 143.766881 
L 322.373024 143.805495 
L 323.022463 143.902158 
L 323.736846 143.97223 
L 323.931678 143.984248 
L 324.191454 144.030495 
L 325.425388 144.095053 
L 325.750107 144.028102 
L 326.009883 144.033504 
L 326.399546 144.032666 
L 326.789209 144.104624 
L 327.178873 144.007786 
L 333.478431 143.896532 
L 333.80315 143.875463 
L 334.452589 143.942888 
L 334.777309 143.999642 
L 335.556636 143.953474 
L 335.751467 143.929166 
L 336.335962 143.889815 
L 336.595738 143.855565 
L 338.349223 143.719598 
L 338.479111 143.694093 
L 338.933718 143.552101 
L 340.492372 143.554756 
L 340.946979 143.390425 
L 342.180913 143.433365 
L 342.375745 143.39028 
L 342.700464 143.331007 
L 345.62294 143.324026 
L 346.077547 143.30193 
L 346.337323 143.267817 
L 348.870135 143.182493 
L 349.064966 143.097534 
L 351.857554 143.30182 
L 352.701825 143.377297 
L 352.9616 143.379031 
L 353.546095 143.42923 
L 354.325422 143.48344 
L 354.974861 143.450104 
L 355.364525 143.422588 
L 358.222056 143.376241 
L 358.416888 143.368713 
L 358.806551 143.484309 
L 359.261158 143.444182 
L 359.910597 143.461465 
L 360.754868 143.626372 
L 361.988802 143.638174 
L 362.313522 143.749161 
L 365.690604 143.299244 
L 366.080268 143.303532 
L 366.469931 143.184926 
L 366.989482 142.911533 
L 368.158472 143.015802 
L 370.041845 142.861794 
L 370.496453 142.848138 
L 370.821172 142.852115 
L 371.210836 142.886484 
L 371.470611 142.81573 
L 372.964321 142.765026 
L 373.28904 142.840254 
L 375.562077 142.590452 
L 377.12073 142.654746 
L 377.380506 142.616884 
L 382.186354 142.669138 
L 382.44613 142.62102 
L 385.498493 142.641166 
L 385.758269 142.631989 
L 386.018044 142.63022 
L 386.602539 142.677413 
L 386.927259 142.639481 
L 387.44681 142.685977 
L 388.161193 142.732165 
L 388.420969 142.754206 
L 388.94052 142.749497 
L 390.629061 142.761927 
L 390.953781 142.773399 
L 391.798051 142.718833 
L 392.252659 142.686199 
L 392.642322 142.685814 
L 394.136032 142.680094 
L 395.564797 142.407022 
L 395.824573 142.382627 
L 398.487273 142.047678 
L 398.487273 142.047678 
" clip-path="url(#p2928ba05ca)" style="fill: none; stroke-dasharray: 2,3.3; stroke-dashoffset: 0; stroke: #0000ff; stroke-width: 2"/>
   </g>
   <g id="line2d_17">
    <path d="M 73.832727 295.488 
L 73.897671 245.443294 
L 73.962615 256.856471 
L 74.157447 237.048242 
L 74.222391 243.131597 
L 74.417222 215.582231 
L 74.482166 219.165884 
L 74.612054 210.624192 
L 74.676998 214.700172 
L 74.741942 212.244637 
L 74.806886 213.418605 
L 74.87183 208.458817 
L 75.001717 214.894711 
L 75.391381 193.725878 
L 75.521269 191.761163 
L 75.586213 186.150751 
L 75.651156 187.700712 
L 75.7161 188.406965 
L 75.975876 182.640965 
L 76.170708 173.514628 
L 76.300595 170.054742 
L 76.430483 172.3569 
L 76.495427 169.553134 
L 76.560371 170.309575 
L 76.625315 172.225941 
L 76.690259 171.475607 
L 76.755203 169.539291 
L 76.820147 170.212032 
L 76.88509 171.540073 
L 76.950034 170.924088 
L 77.014978 171.24308 
L 77.339698 161.173115 
L 77.404642 162.458628 
L 77.599473 159.016599 
L 77.664417 157.720938 
L 77.729361 157.753049 
L 77.794305 158.592935 
L 78.054081 153.618864 
L 78.119025 155.260435 
L 78.183968 155.22441 
L 78.248912 155.10744 
L 78.443744 150.59045 
L 78.508688 150.613688 
L 78.638576 151.380469 
L 78.70352 149.082408 
L 78.768464 150.269972 
L 78.833407 151.382288 
L 78.898351 150.679819 
L 78.963295 150.635705 
L 79.028239 149.627292 
L 79.158127 151.990352 
L 79.223071 151.129697 
L 79.288015 149.8205 
L 79.352959 150.640752 
L 79.417902 150.63122 
L 79.612734 149.098788 
L 79.742622 147.910812 
L 79.807566 145.336751 
L 79.87251 146.672732 
L 79.937454 147.629416 
L 80.002398 146.016476 
L 80.067341 146.311537 
L 80.132285 145.583369 
L 80.197229 145.610812 
L 80.262173 145.732858 
L 80.392061 144.258655 
L 80.457005 145.011746 
L 80.71678 141.079229 
L 80.781724 142.058982 
L 80.911612 143.211137 
L 81.0415 140.826315 
L 81.106444 140.540278 
L 81.171388 141.256827 
L 81.431163 136.85989 
L 81.496107 137.817013 
L 81.690939 137.480315 
L 81.755883 136.510308 
L 81.820827 137.042416 
L 82.080602 135.137594 
L 82.21049 134.057581 
L 82.275434 135.115397 
L 82.470266 132.116113 
L 82.53521 132.381067 
L 82.794985 131.240803 
L 82.859929 132.023298 
L 82.924873 131.680712 
L 82.989817 131.333862 
L 83.119705 132.194565 
L 83.184649 131.984438 
L 83.249592 130.792399 
L 83.314536 131.245072 
L 83.37948 131.062282 
L 83.509368 132.071847 
L 83.7042 130.33375 
L 83.769144 130.518184 
L 83.963975 128.459239 
L 84.028919 129.236299 
L 84.093863 129.212807 
L 84.288695 130.562134 
L 84.353639 130.580683 
L 84.483527 131.294756 
L 84.678358 131.192873 
L 84.87319 128.807163 
L 84.938134 128.851718 
L 85.068022 127.670386 
L 85.132966 127.587141 
L 85.197909 127.841759 
L 85.262853 128.785166 
L 85.327797 128.75144 
L 85.392741 128.648668 
L 85.652517 130.798559 
L 85.782404 130.158991 
L 85.847348 130.452593 
L 86.04218 127.74411 
L 86.107124 127.764333 
L 86.172068 127.590571 
L 86.237012 127.853166 
L 86.496787 125.628156 
L 86.561731 126.201907 
L 86.756563 125.530449 
L 86.821507 125.573677 
L 86.886451 125.812745 
L 87.146226 122.296299 
L 87.406002 123.019124 
L 87.53589 121.40389 
L 87.665778 122.586056 
L 88.250273 119.259248 
L 88.38016 118.822811 
L 88.639936 117.879437 
L 88.834768 118.533194 
L 89.029599 116.532948 
L 89.094543 117.22275 
L 89.159487 117.196684 
L 89.289375 116.598934 
L 89.484207 114.580656 
L 89.549151 114.645441 
L 89.614094 114.52021 
L 89.743982 113.244798 
L 89.808926 113.370112 
L 89.87387 113.420909 
L 89.938814 113.76802 
L 90.19859 112.096151 
L 90.263533 112.205769 
L 90.328477 112.864776 
L 90.393421 112.01797 
L 90.458365 112.578453 
L 90.523309 112.347488 
L 90.718141 110.787536 
L 90.783085 110.960947 
L 90.848029 110.752378 
L 90.912972 109.833047 
L 90.977916 110.562967 
L 91.04286 110.086917 
L 91.302636 108.67346 
L 91.36758 108.769083 
L 91.432524 108.000161 
L 91.497467 108.167541 
L 91.627355 107.683281 
L 91.692299 107.884355 
L 91.887131 106.654386 
L 91.952075 106.471401 
L 92.017019 107.128625 
L 92.081963 106.547772 
L 92.146906 106.783181 
L 92.276794 106.615361 
L 92.406682 106.908091 
L 92.53657 106.640372 
L 92.601514 106.790732 
L 92.731402 105.949385 
L 92.796345 106.051352 
L 92.861289 106.377836 
L 93.056121 104.797604 
L 93.186009 104.76687 
L 93.250953 104.317597 
L 93.315897 104.599314 
L 93.380841 104.402984 
L 93.575672 105.564152 
L 93.640616 105.801694 
L 93.835448 104.479264 
L 93.900392 104.451416 
L 94.03028 103.852865 
L 94.095223 104.331707 
L 94.160167 104.248519 
L 94.290055 104.253065 
L 94.419943 104.622479 
L 94.614775 102.863825 
L 94.679718 102.69674 
L 94.744662 102.781193 
L 94.939494 103.454672 
L 95.004438 103.381925 
L 95.134326 103.721373 
L 95.329157 103.516329 
L 95.394101 103.686484 
L 95.848709 102.086742 
L 95.913653 102.214786 
L 95.978596 102.651116 
L 96.108484 101.917021 
L 96.173428 102.015902 
L 96.36826 101.215473 
L 96.433204 101.451369 
L 96.498148 101.455012 
L 96.628035 102.028071 
L 96.692979 101.780547 
L 96.822867 101.537411 
L 96.887811 101.900929 
L 96.952755 101.601452 
L 97.017699 101.869703 
L 97.082643 101.834936 
L 97.212531 101.118838 
L 97.342418 101.626498 
L 97.472306 101.211874 
L 97.602194 101.700555 
L 97.797026 101.063347 
L 97.926913 100.710101 
L 98.056801 99.883206 
L 98.186689 100.104253 
L 98.446465 98.87624 
L 98.511408 98.688403 
L 98.576352 98.803509 
L 98.70624 98.639599 
L 98.836128 98.924779 
L 99.03096 98.218868 
L 99.095904 97.918631 
L 99.160847 97.966926 
L 99.355679 98.860721 
L 99.485567 98.384477 
L 99.615455 98.210161 
L 99.680399 98.544848 
L 99.745343 98.509463 
L 99.940174 97.942787 
L 100.070062 98.350647 
L 100.19995 98.802281 
L 100.394782 98.564834 
L 100.524669 98.889482 
L 100.719501 98.441944 
L 100.784445 98.566387 
L 100.849389 98.74417 
L 100.914333 98.350521 
L 101.109164 98.782596 
L 101.303996 98.126044 
L 101.36894 98.194018 
L 101.498828 98.178534 
L 101.563772 98.069939 
L 101.628716 98.339824 
L 101.888491 97.095662 
L 101.953435 97.128744 
L 102.018379 97.312536 
L 102.278155 96.182664 
L 102.408042 96.361081 
L 102.53793 96.107214 
L 102.732762 96.571155 
L 102.86265 95.859781 
L 102.927594 95.879763 
L 102.992537 96.053887 
L 103.122425 95.756272 
L 103.252313 95.883773 
L 103.317257 95.696453 
L 103.512089 96.20905 
L 103.70692 95.448795 
L 103.771864 95.871332 
L 103.836808 95.561429 
L 103.901752 95.667263 
L 104.161528 96.262931 
L 104.356359 95.662574 
L 104.421303 95.886556 
L 104.551191 95.243929 
L 104.681079 95.544756 
L 104.746023 95.489693 
L 104.87591 94.813722 
L 104.940854 95.109049 
L 105.135686 94.671239 
L 105.20063 94.691288 
L 105.265574 94.934835 
L 105.330518 94.72098 
L 105.395462 94.901252 
L 105.460406 94.818091 
L 105.525349 94.690972 
L 105.785125 93.714889 
L 105.850069 93.900968 
L 105.979957 93.078732 
L 106.044901 93.124808 
L 106.109845 92.651569 
L 106.174788 92.875798 
L 106.499508 91.548954 
L 106.564452 91.721215 
L 106.629396 91.6063 
L 106.759283 92.097705 
L 106.824227 91.714385 
L 106.889171 91.849743 
L 107.084003 91.223105 
L 107.148947 90.879645 
L 107.213891 91.109815 
L 107.408722 90.904029 
L 107.733442 90.334984 
L 107.798386 90.40349 
L 107.928274 90.460393 
L 108.123105 91.139277 
L 108.317937 90.789426 
L 108.382881 90.886675 
L 108.447825 90.427687 
L 108.512769 90.637004 
L 108.642657 91.105193 
L 108.7076 90.95931 
L 108.837488 91.276855 
L 109.03232 90.543333 
L 109.227152 90.625098 
L 109.357039 90.555808 
L 109.746703 88.412465 
L 109.876591 88.504545 
L 110.136366 89.04694 
L 110.20131 88.961131 
L 110.331198 88.712211 
L 110.396142 88.838684 
L 110.461086 88.672524 
L 110.590973 89.123265 
L 110.915693 87.989493 
L 110.980637 87.974592 
L 111.305356 87.205821 
L 111.3703 87.271094 
L 111.565132 87.58293 
L 111.69502 87.251059 
L 111.824908 86.996065 
L 111.889851 87.149493 
L 111.954795 87.059421 
L 112.149627 86.129097 
L 112.214571 86.352035 
L 112.409403 86.512126 
L 112.474347 86.409311 
L 112.604234 86.967869 
L 112.669178 86.936963 
L 112.799066 87.025595 
L 113.318617 85.736582 
L 113.383561 85.837592 
L 113.838168 84.211779 
L 114.033 84.211272 
L 114.097944 84.527763 
L 114.162888 84.405022 
L 114.292776 84.669686 
L 114.35772 84.534172 
L 114.422663 84.574027 
L 114.682439 84.806415 
L 114.747383 84.508234 
L 114.812327 84.581914 
L 115.072102 84.223331 
L 115.266934 84.518396 
L 115.656598 85.520427 
L 115.721541 85.366443 
L 115.786485 85.488104 
L 115.916373 85.288927 
L 116.111205 85.605196 
L 116.37098 86.263174 
L 116.760644 85.031589 
L 116.955475 85.194606 
L 117.020419 85.11129 
L 117.280195 84.314391 
L 117.539971 84.212021 
L 117.669858 84.52555 
L 118.059522 83.499258 
L 118.124466 83.476148 
L 118.254353 83.12358 
L 118.319297 83.174944 
L 118.449185 82.910086 
L 118.514129 83.019401 
L 119.03368 82.420495 
L 119.163568 82.661706 
L 119.228512 82.384409 
L 119.293456 82.452063 
L 119.3584 82.575541 
L 119.423344 82.463732 
L 119.748063 82.735788 
L 119.877951 82.437887 
L 119.942895 82.544028 
L 120.072783 81.971222 
L 120.137726 82.013925 
L 120.267614 82.509597 
L 120.332558 82.466306 
L 120.397502 82.37148 
L 120.592334 81.287432 
L 120.657278 81.416745 
L 120.722222 81.513859 
L 120.917053 81.119985 
L 120.981997 81.273547 
L 121.046941 81.026202 
L 121.111885 81.228939 
L 121.176829 81.077936 
L 121.306717 80.966379 
L 121.371661 80.813704 
L 121.436604 80.885912 
L 121.631436 80.90792 
L 121.69638 80.695276 
L 121.826268 81.018116 
L 121.891212 80.755414 
L 121.956156 80.803467 
L 122.021099 80.747473 
L 122.086043 80.909564 
L 122.215931 80.629578 
L 122.475707 80.956811 
L 122.930314 80.268507 
L 122.995258 80.342583 
L 123.19009 80.191037 
L 123.255034 80.266812 
L 123.384921 80.610085 
L 123.579753 80.637183 
L 123.644697 80.888141 
L 123.709641 80.841831 
L 123.774585 80.927828 
L 123.839529 80.691456 
L 123.904473 80.859549 
L 123.969416 80.872277 
L 124.03436 81.048574 
L 124.099304 80.776677 
L 124.164248 80.832522 
L 124.294136 80.764744 
L 124.488968 80.650318 
L 125.008519 79.342876 
L 125.138407 79.2714 
L 125.398182 79.639191 
L 125.52807 79.257639 
L 125.787846 79.398328 
L 126.047621 78.871658 
L 126.112565 78.562409 
L 126.177509 78.617135 
L 126.242453 78.628411 
L 126.307397 78.468316 
L 126.437285 78.707064 
L 126.567172 78.752692 
L 126.762004 79.023546 
L 127.086724 78.162843 
L 127.346499 78.618884 
L 127.476387 78.518538 
L 127.541331 78.455055 
L 127.606275 78.143707 
L 127.671219 78.261213 
L 127.801106 78.132578 
L 127.930994 77.889596 
L 128.060882 77.799157 
L 128.19077 78.003248 
L 128.255714 77.854516 
L 128.450545 78.235771 
L 128.710321 77.838105 
L 128.775265 77.989246 
L 128.840209 77.848502 
L 128.905153 77.965481 
L 129.03504 78.078406 
L 129.164928 77.929734 
L 129.229872 78.171964 
L 129.294816 77.981906 
L 129.35976 78.154716 
L 129.619536 77.689992 
L 129.814367 77.646091 
L 130.009199 77.487576 
L 130.074143 77.482365 
L 130.204031 77.25124 
L 130.398862 77.732122 
L 130.593694 77.628752 
L 130.658638 77.777207 
L 130.723582 77.7389 
L 130.918414 77.495824 
L 131.113245 77.134073 
L 131.308077 76.735957 
L 131.373021 76.623619 
L 131.437965 76.742058 
L 131.632796 76.526639 
L 131.762684 76.727021 
L 131.957516 76.52794 
L 132.152348 76.381671 
L 132.217291 76.535322 
L 132.347179 76.044061 
L 132.477067 76.134897 
L 132.606955 76.15019 
L 132.671899 75.966008 
L 132.736843 76.108358 
L 132.801787 76.061248 
L 133.061562 75.556522 
L 133.256394 75.573702 
L 133.321338 75.526292 
L 133.451226 75.680444 
L 133.516169 75.514359 
L 133.581113 75.634091 
L 133.646057 75.66752 
L 133.711001 75.482384 
L 133.775945 75.612971 
L 133.905833 75.580375 
L 133.970777 75.585697 
L 134.035721 75.299106 
L 134.100664 75.428914 
L 134.230552 75.309524 
L 134.425384 75.573828 
L 134.555272 75.366685 
L 134.68516 75.610678 
L 134.944935 74.884168 
L 135.009879 74.979096 
L 135.074823 75.075731 
L 135.139767 75.010816 
L 135.204711 74.850526 
L 135.269655 74.949208 
L 135.334599 75.02955 
L 135.659318 74.534336 
L 135.724262 74.605094 
L 135.85415 74.276925 
L 135.919094 74.343109 
L 136.048981 74.352273 
L 136.113925 74.165058 
L 136.178869 74.202467 
L 136.243813 74.29754 
L 136.308757 74.085628 
L 136.373701 74.202833 
L 136.633477 74.634992 
L 136.69842 74.732673 
L 136.893252 74.336662 
L 136.958196 74.321959 
L 137.217972 73.733879 
L 137.282915 73.835241 
L 137.802467 72.807919 
L 137.867411 72.930725 
L 137.997298 72.698325 
L 138.062242 72.757506 
L 138.19213 72.54452 
L 138.257074 72.640501 
L 138.451906 72.767559 
L 138.581793 72.526979 
L 138.711681 72.643109 
L 138.776625 72.651281 
L 138.971457 72.346294 
L 139.231232 72.481289 
L 139.296176 72.40751 
L 139.36112 72.517479 
L 139.426064 72.433324 
L 139.620896 72.344998 
L 139.68584 72.464172 
L 139.750784 72.419698 
L 139.815728 72.355404 
L 139.880671 72.422425 
L 140.140447 72.771909 
L 140.205391 72.693493 
L 140.270335 72.767683 
L 140.465166 72.700399 
L 140.724942 72.965699 
L 140.85483 72.724804 
L 141.114605 72.319596 
L 141.244493 72.422959 
L 141.569213 72.32251 
L 141.828988 72.6347 
L 141.893932 72.42436 
L 142.02382 72.469098 
L 142.153708 72.3462 
L 142.218652 72.309592 
L 142.413483 72.495743 
L 142.608315 72.210453 
L 142.803147 72.511685 
L 142.933035 72.166994 
L 142.997979 72.210119 
L 143.127866 72.267294 
L 143.387642 71.892085 
L 143.452586 71.846475 
L 143.51753 71.961223 
L 143.582474 71.87111 
L 143.647417 71.629627 
L 143.712361 71.663659 
L 143.842249 71.660891 
L 143.972137 71.996126 
L 144.037081 71.952156 
L 144.231913 71.653728 
L 144.426744 71.704764 
L 144.491688 71.786353 
L 144.556632 71.696419 
L 144.751464 71.832876 
L 145.076183 71.456482 
L 145.400903 71.766434 
L 145.465847 71.68613 
L 145.790566 71.813506 
L 145.920454 71.622773 
L 145.985398 71.695672 
L 146.115286 71.747962 
L 146.569893 71.134499 
L 146.764725 71.491763 
L 146.959556 71.217595 
L 147.154388 71.471731 
L 147.933715 70.607589 
L 148.063603 70.624154 
L 148.128546 70.507548 
L 148.19349 70.597135 
L 148.258434 70.74971 
L 148.323378 70.684103 
L 148.842929 70.381272 
L 148.972817 69.971923 
L 149.037761 70.081856 
L 149.102705 69.883297 
L 149.167649 70.006944 
L 149.232593 69.884169 
L 149.297537 69.995963 
L 149.557312 70.046554 
L 150.076863 70.407647 
L 150.206751 70.270795 
L 150.271695 70.314424 
L 150.336639 70.447703 
L 150.531471 70.128541 
L 150.986078 70.47898 
L 151.115966 70.46252 
L 151.245854 70.631001 
L 151.375741 70.678828 
L 151.505629 70.662313 
L 151.700461 70.352181 
L 151.830349 70.478027 
L 152.02518 70.233193 
L 152.284956 70.242331 
L 152.479788 70.170447 
L 152.609675 70.151222 
L 152.934395 70.439636 
L 153.19417 70.038454 
L 153.389002 70.175865 
L 153.713722 69.942238 
L 153.843609 70.091226 
L 153.908553 70.047674 
L 154.103385 69.709335 
L 154.233273 69.82572 
L 154.428105 69.521315 
L 154.557992 69.602011 
L 154.752824 69.464117 
L 155.0126 69.354332 
L 155.142487 69.354668 
L 155.207431 69.186417 
L 155.272375 69.274225 
L 155.402263 69.407561 
L 155.467207 69.189875 
L 155.532151 69.241178 
L 155.85687 69.044413 
L 155.986758 68.9857 
L 156.051702 68.981684 
L 156.18159 68.839801 
L 156.246534 68.873187 
L 156.441365 68.484939 
L 156.506309 68.544473 
L 156.701141 68.625165 
L 156.766085 68.606297 
L 156.960917 68.366456 
L 157.02586 68.33418 
L 157.220692 68.639141 
L 157.675299 68.519987 
L 158.000019 68.354688 
L 158.064963 68.410151 
L 158.194851 68.285986 
L 158.324738 68.305498 
L 158.454626 68.19645 
L 158.649458 68.366879 
L 158.779346 68.415862 
L 159.104065 68.591666 
L 159.233953 68.263318 
L 159.363841 68.384975 
L 159.428785 68.252546 
L 159.623616 68.432517 
L 159.68856 68.357865 
L 159.753504 68.427669 
L 160.01328 68.706215 
L 160.078224 68.589624 
L 160.273055 68.783215 
L 160.467887 68.869586 
L 160.597775 68.893994 
L 160.922494 68.808713 
L 161.18227 69.055786 
L 161.442046 69.006269 
L 162.026541 68.904731 
L 162.611036 68.656923 
L 162.740923 68.555605 
L 162.870811 68.499397 
L 163.130587 68.392837 
L 163.195531 68.232198 
L 163.260475 68.311727 
L 163.325419 68.402328 
L 163.390362 68.33428 
L 163.650138 68.425838 
L 163.780026 68.099525 
L 163.84497 68.143966 
L 163.909914 68.216736 
L 164.234633 67.839045 
L 164.429465 67.65456 
L 164.559353 67.795006 
L 164.624296 67.743937 
L 165.01396 67.803855 
L 165.208792 67.588472 
L 165.598455 67.604596 
L 165.793287 67.328912 
L 165.988118 67.441896 
L 166.18295 67.260918 
L 166.247894 67.338479 
L 166.637557 67.440154 
L 166.897333 67.141856 
L 167.027221 67.168027 
L 167.092165 67.091694 
L 167.286996 67.221865 
L 167.481828 67.188048 
L 167.741604 66.786707 
L 167.806547 66.882884 
L 168.131267 66.648264 
L 168.261155 66.512655 
L 168.391043 66.611489 
L 168.780706 66.087719 
L 169.040482 66.065915 
L 169.365201 65.618356 
L 169.560033 65.681071 
L 169.689921 65.807623 
L 169.884752 65.771538 
L 170.01464 65.805608 
L 170.144528 65.693523 
L 170.274416 65.903606 
L 170.404303 65.695974 
L 170.469247 65.746006 
L 170.599135 65.775017 
L 170.729023 65.697515 
L 170.923855 65.866076 
L 171.18363 65.733575 
L 171.313518 65.904744 
L 171.443406 65.712532 
L 171.50835 65.788457 
L 171.833069 65.644927 
L 172.157789 65.853825 
L 172.417564 65.967704 
L 172.67734 65.792332 
L 173.196891 65.993527 
L 173.326779 65.811557 
L 173.391723 65.934836 
L 173.456667 66.041833 
L 173.716442 65.73732 
L 173.911274 65.651325 
L 174.041162 65.699527 
L 174.495769 65.349831 
L 174.625657 65.508145 
L 174.690601 65.418883 
L 174.885432 65.414563 
L 175.080264 65.411769 
L 175.210152 65.466932 
L 175.469927 65.313274 
L 176.119366 65.404549 
L 176.18431 65.270863 
L 176.249254 65.33063 
L 176.50903 65.319005 
L 176.703861 65.402011 
L 176.898693 65.449676 
L 177.093525 65.336021 
L 177.483188 65.43853 
L 177.807908 65.670473 
L 178.067683 65.745098 
L 178.197571 65.633589 
L 178.457347 65.865485 
L 178.587235 65.734064 
L 178.717122 65.740798 
L 179.041842 65.730772 
L 179.17173 65.695529 
L 179.366561 65.559894 
L 179.431505 65.355303 
L 179.496449 65.411837 
L 179.756225 65.323147 
L 179.886112 65.33801 
L 180.016 65.348985 
L 180.210832 65.38545 
L 180.795327 65.351042 
L 181.50971 65.195759 
L 181.704542 65.047606 
L 181.834429 64.954533 
L 181.899373 64.932219 
L 181.964317 64.769928 
L 182.029261 64.834222 
L 182.289037 64.77915 
L 182.353981 64.889695 
L 182.418925 64.792803 
L 182.613756 64.602088 
L 183.133307 64.302928 
L 183.328139 64.438179 
L 183.522971 64.223332 
L 183.652859 64.07177 
L 183.912634 64.117546 
L 184.302298 64.084524 
L 184.367241 63.966425 
L 184.432185 64.009734 
L 184.497129 64.120315 
L 184.562073 64.077807 
L 184.821849 63.824725 
L 184.951737 63.755593 
L 185.406344 63.729642 
L 185.536232 63.844508 
L 185.731063 63.595512 
L 185.925895 63.691728 
L 186.380502 63.652871 
L 186.51039 63.52879 
L 187.029941 63.514137 
L 187.224773 63.374584 
L 187.354661 63.437307 
L 187.67938 63.418362 
L 187.874212 63.464875 
L 187.939156 63.546145 
L 188.133988 63.346974 
L 188.328819 63.356659 
L 188.523651 63.235007 
L 188.718483 63.401874 
L 188.84837 63.321229 
L 189.043202 63.346591 
L 189.238034 63.045719 
L 189.562753 63.078636 
L 189.692641 63.141683 
L 189.822529 63.019863 
L 190.147248 63.108113 
L 190.34208 63.154809 
L 191.251295 62.796315 
L 191.770846 62.994266 
L 191.965677 62.839597 
L 192.030621 62.880428 
L 192.095565 62.69463 
L 192.160509 62.729924 
L 192.420285 62.887477 
L 192.550173 62.642153 
L 192.615116 62.711829 
L 192.939836 62.920814 
L 193.069724 62.881558 
L 193.264555 62.730692 
L 193.719163 62.600175 
L 193.978938 62.719535 
L 194.108826 62.687516 
L 194.17377 62.837987 
L 194.368602 62.587797 
L 194.433546 62.561763 
L 194.563433 62.624912 
L 196.316919 62.413133 
L 196.51175 62.580039 
L 196.576694 62.478868 
L 196.641638 62.53854 
L 196.901414 62.685434 
L 197.161189 62.701646 
L 197.356021 62.501923 
L 197.875572 62.638451 
L 198.395123 62.430113 
L 198.589955 62.413387 
L 198.849731 62.297496 
L 199.044562 62.250522 
L 199.239394 62.291862 
L 199.434226 62.240105 
L 199.694001 62.444971 
L 199.823889 62.416157 
L 199.888833 62.400075 
L 200.018721 62.211264 
L 200.148609 62.272373 
L 200.34344 62.265359 
L 200.862992 62.199458 
L 200.992879 62.270238 
L 201.577374 62.11897 
L 201.902094 61.9091 
L 202.031982 61.743471 
L 202.161869 61.756451 
L 202.226813 61.741434 
L 202.421645 61.956685 
L 202.811308 61.800962 
L 202.941196 61.845697 
L 203.460747 61.571547 
L 203.785467 61.687315 
L 204.240074 61.451301 
L 204.369962 61.356351 
L 204.49985 61.32602 
L 204.629738 61.263134 
L 205.019401 61.348895 
L 205.149289 61.222168 
L 205.279177 61.211176 
L 205.66884 61.338261 
L 206.383223 61.067256 
L 206.707942 61.177496 
L 206.83783 61.138463 
L 207.357381 61.303626 
L 207.617157 61.33909 
L 207.876932 61.43699 
L 208.071764 61.251037 
L 208.201652 61.15944 
L 208.33154 61.083969 
L 208.461428 61.148341 
L 208.721203 61.323441 
L 208.916035 61.375176 
L 209.045923 61.489318 
L 209.305698 61.409811 
L 209.630418 61.430882 
L 209.890193 61.311673 
L 210.020081 61.33011 
L 210.344801 61.385642 
L 210.604576 61.520483 
L 210.799408 61.38981 
L 210.929296 61.36508 
L 210.99424 61.185325 
L 211.059183 61.239861 
L 211.448847 61.244811 
L 211.643679 61.359178 
L 212.098286 61.372191 
L 212.16323 61.277829 
L 212.228174 61.343607 
L 212.423005 61.374614 
L 212.617837 61.334478 
L 212.942557 61.4309 
L 213.137388 61.37949 
L 213.33222 61.486303 
L 213.591995 61.395423 
L 213.721883 61.370898 
L 213.916715 61.51131 
L 214.631098 61.98691 
L 214.82593 62.107531 
L 215.215593 62.066263 
L 215.6702 62.158252 
L 215.99492 62.350774 
L 216.189751 62.323507 
L 216.449527 62.381289 
L 216.644359 62.330011 
L 216.83919 62.387306 
L 217.228854 62.481748 
L 217.488629 62.264445 
L 218.462788 61.810678 
L 218.65762 61.931366 
L 219.50189 62.001597 
L 219.891554 61.723578 
L 220.151329 61.780588 
L 220.411105 61.67717 
L 220.540993 61.630702 
L 220.735824 61.78461 
L 221.709983 61.485006 
L 221.969758 61.612141 
L 222.099646 61.570594 
L 222.229534 61.542808 
L 222.424366 61.367834 
L 222.619197 61.397365 
L 222.814029 61.33492 
L 223.203692 61.338969 
L 223.268636 61.240126 
L 223.33358 61.314376 
L 223.918075 61.228358 
L 224.697402 61.172067 
L 224.892234 61.135979 
L 225.022122 61.032671 
L 225.281897 61.219742 
L 225.476729 61.115765 
L 225.541673 61.139684 
L 225.67156 61.007445 
L 225.99628 61.036661 
L 226.126168 61.07661 
L 226.256056 60.921767 
L 226.320999 60.96076 
L 226.645719 60.895233 
L 226.905495 60.734841 
L 227.554934 60.883461 
L 227.944597 60.663166 
L 228.009541 60.731554 
L 228.074485 60.643522 
L 228.204373 60.622968 
L 228.723924 60.634193 
L 228.788868 60.567475 
L 228.853811 60.648776 
L 229.113587 60.721732 
L 229.373363 60.517832 
L 230.022802 60.611458 
L 230.152689 60.518592 
L 230.412465 60.658636 
L 231.256736 60.813185 
L 231.776287 60.927322 
L 232.101006 60.659639 
L 232.295838 60.603103 
L 232.555614 60.507892 
L 232.685501 60.541351 
L 232.945277 60.65252 
L 233.140109 60.579732 
L 233.464828 60.448349 
L 233.724604 60.512665 
L 235.348201 60.21925 
L 235.478089 60.275482 
L 235.672921 60.146491 
L 235.867752 60.265078 
L 236.32236 60.145876 
L 236.776967 60.187661 
L 237.101687 60.157638 
L 237.621238 60.210257 
L 238.855172 60.388816 
L 238.920116 60.318688 
L 238.98506 60.390316 
L 239.244835 60.33887 
L 239.569555 60.488295 
L 239.699442 60.449754 
L 239.959218 60.445759 
L 240.99832 60.486171 
L 241.387984 60.589171 
L 241.712703 60.556586 
L 241.842591 60.679281 
L 241.972479 60.65256 
L 242.102367 60.636087 
L 242.297198 60.428893 
L 242.427086 60.37957 
L 242.621918 60.260405 
L 243.141469 60.305928 
L 243.271357 60.362825 
L 244.050684 60.401549 
L 244.245515 60.432105 
L 244.700123 60.523559 
L 245.089786 60.447382 
L 245.349562 60.534108 
L 245.739225 60.58212 
L 245.869113 60.513886 
L 245.999001 60.373721 
L 246.32372 60.532522 
L 246.388664 60.548954 
L 246.453608 60.437854 
L 246.518552 60.478379 
L 247.167991 60.517968 
L 247.297878 60.547643 
L 247.49271 60.466752 
L 247.622598 60.453327 
L 247.752486 60.465852 
L 248.142149 60.418644 
L 248.272037 60.372288 
L 248.596756 60.381926 
L 248.856532 60.424441 
L 249.635859 60.496604 
L 249.895634 60.54388 
L 250.545073 60.378352 
L 250.934737 60.320653 
L 251.129568 60.104008 
L 251.3244 60.112444 
L 251.519232 60.011078 
L 251.714064 59.964009 
L 251.908895 59.988709 
L 252.103727 59.950042 
L 253.727324 59.602585 
L 253.857212 59.4845 
L 254.116988 59.451982 
L 254.441707 59.351384 
L 254.701483 59.293562 
L 255.15609 59.291465 
L 255.350922 59.223937 
L 255.545754 59.15688 
L 256.000361 59.09726 
L 256.390024 59.183191 
L 256.584856 59.158372 
L 257.49407 59.140721 
L 257.753846 59.175436 
L 258.208453 59.1667 
L 258.403285 59.072051 
L 258.792948 59.19374 
L 258.922836 59.152491 
L 259.247556 59.067053 
L 259.572275 59.069324 
L 260.351602 59.217153 
L 260.676321 59.277483 
L 260.936097 59.288254 
L 261.32576 59.224362 
L 261.455648 59.160304 
L 261.65048 59.168798 
L 261.975199 59.187321 
L 262.170031 59.22414 
L 262.624638 59.180017 
L 263.209133 59.148357 
L 263.663741 59.082312 
L 264.118348 59.143419 
L 264.31318 59.033684 
L 264.508011 59.060414 
L 264.702843 59.062183 
L 266.261497 59.156556 
L 266.521272 59.269826 
L 266.586216 59.17319 
L 266.65116 59.235028 
L 266.845992 59.292889 
L 267.170711 59.199831 
L 267.430487 59.284959 
L 268.209814 59.174558 
L 268.404645 59.105677 
L 268.664421 59.003713 
L 268.924196 59.113724 
L 270.028243 58.962769 
L 270.223074 58.983557 
L 270.352962 58.976572 
L 270.547794 58.904231 
L 270.677682 58.906411 
L 271.197233 58.906613 
L 272.690943 59.125666 
L 272.885774 59.064185 
L 273.080606 59.032617 
L 273.859933 59.058631 
L 274.444428 59.158353 
L 274.834091 59.017429 
L 275.093867 59.022791 
L 275.288698 58.965348 
L 275.48353 58.959877 
L 275.743306 58.929977 
L 277.691623 58.934081 
L 277.886454 58.964333 
L 278.276118 58.822252 
L 278.535893 58.865469 
L 278.730725 58.780949 
L 279.31522 58.807764 
L 279.63994 58.932505 
L 279.834771 58.890996 
L 280.48421 59.069617 
L 280.80893 59.063721 
L 281.718144 59.070905 
L 281.97792 59.082766 
L 282.042864 59.126774 
L 282.302639 58.85404 
L 282.497471 58.911374 
L 284.3159 58.685075 
L 284.64062 58.679906 
L 284.965339 58.509037 
L 285.48489 58.395119 
L 285.744666 58.356261 
L 286.523993 58.356026 
L 286.913656 58.384385 
L 287.238376 58.209444 
L 287.498151 58.295055 
L 287.822871 58.282347 
L 288.082646 58.180069 
L 288.212534 58.184664 
L 288.537254 58.204138 
L 288.797029 58.151389 
L 288.991861 58.186737 
L 289.186693 58.170934 
L 289.446468 58.039288 
L 290.095907 58.038856 
L 290.225795 58.05186 
L 290.81029 58.212845 
L 291.199953 58.155706 
L 291.394785 58.042035 
L 291.719505 58.063806 
L 292.044224 58.122187 
L 292.304 57.965596 
L 292.628719 57.908309 
L 293.018383 57.972357 
L 293.278158 57.922195 
L 293.862653 57.956664 
L 294.122429 58.046412 
L 294.577036 58.027789 
L 294.771868 58.013173 
L 295.486251 58.012909 
L 295.681082 57.950949 
L 295.875914 58.027365 
L 296.005802 58.00313 
L 296.265577 58.053349 
L 296.720185 57.881709 
L 296.97996 57.947896 
L 297.239736 57.863627 
L 297.369624 57.794614 
L 297.759287 57.837034 
L 297.889175 57.838242 
L 298.993221 57.677508 
L 299.382885 57.746686 
L 299.64266 57.693751 
L 299.902436 57.609228 
L 300.032324 57.546937 
L 300.357043 57.592606 
L 300.746706 57.5168 
L 301.006482 57.536728 
L 301.720865 57.645626 
L 302.045584 57.630504 
L 302.695023 57.817993 
L 303.019743 57.721351 
L 303.539294 57.683827 
L 303.669182 57.671237 
L 303.928957 57.740677 
L 305.292779 57.526239 
L 305.617499 57.605311 
L 306.266938 57.438293 
L 306.461769 57.479439 
L 306.656601 57.401337 
L 307.111208 57.334035 
L 307.370984 57.435977 
L 307.695704 57.491901 
L 308.020423 57.463991 
L 308.929638 57.642589 
L 309.124469 57.672018 
L 309.319301 57.658344 
L 309.514133 57.524667 
L 309.708964 57.528078 
L 310.358403 57.602164 
L 311.917057 57.608809 
L 312.111889 57.541925 
L 312.63144 57.457445 
L 312.891215 57.368612 
L 313.930318 57.508181 
L 314.190093 57.428747 
L 314.774588 57.406094 
L 315.229196 57.302257 
L 315.878635 57.262761 
L 316.268298 57.305566 
L 316.657961 57.229574 
L 316.852793 57.198304 
L 317.372344 57.174431 
L 317.63212 57.110956 
L 318.346503 57.106864 
L 318.541334 57.008374 
L 319.12583 57.067106 
L 319.645381 57.050866 
L 319.905156 57.095075 
L 320.099988 57.075646 
L 320.359764 57.21194 
L 321.268978 57.087138 
L 321.593698 56.998207 
L 322.762688 57.10419 
L 323.087407 57.006781 
L 323.347183 57.013038 
L 323.542015 57.000669 
L 324.775949 56.932403 
L 325.230556 56.921015 
L 326.919097 56.906723 
L 327.178873 56.852854 
L 327.438648 56.798003 
L 327.763368 56.742672 
L 329.451909 56.58888 
L 329.776629 56.62767 
L 334.12787 56.571292 
L 334.322702 56.510467 
L 335.29686 56.595793 
L 337.115289 56.193305 
L 338.024504 56.100334 
L 338.673943 56.020577 
L 338.998662 55.977575 
L 340.946979 55.962358 
L 341.401586 55.920801 
L 342.635521 55.781602 
L 342.765408 55.688823 
L 343.28496 55.628971 
L 343.544735 55.617483 
L 343.739567 55.653396 
L 343.999342 55.580918 
L 344.843613 55.524038 
L 346.077547 55.42768 
L 346.337323 55.283875 
L 346.79193 55.283768 
L 347.376425 55.248916 
L 349.259798 55.195494 
L 349.45463 55.165389 
L 352.182274 55.180306 
L 352.442049 55.22657 
L 352.766769 55.33368 
L 353.091488 55.290564 
L 354.065647 55.328451 
L 354.390366 55.232109 
L 359.391046 55.016932 
L 359.585878 55.03667 
L 359.78071 55.071708 
L 360.040485 55.09208 
L 360.430149 55.201938 
L 360.819812 55.144144 
L 361.209475 55.200767 
L 362.053746 55.147427 
L 362.443409 55.241816 
L 362.638241 55.235408 
L 362.962961 55.294197 
L 363.28768 55.157253 
L 364.131951 55.070769 
L 364.261839 55.095792 
L 364.651502 55.028473 
L 367.703865 54.833649 
L 368.158472 54.812144 
L 368.418248 54.762406 
L 368.61308 54.817584 
L 368.872855 54.747681 
L 370.496453 54.626157 
L 370.886116 54.498284 
L 371.340723 54.651791 
L 371.535555 54.623268 
L 372.055106 54.560288 
L 372.314882 54.529181 
L 372.704545 54.413564 
L 373.094209 54.456449 
L 373.938479 54.489171 
L 374.198255 54.468646 
L 374.522974 54.505153 
L 375.821852 54.322391 
L 376.081628 54.362601 
L 376.731067 54.344205 
L 377.44545 54.323085 
L 377.835113 54.318614 
L 378.28972 54.3514 
L 378.679384 54.331501 
L 379.069047 54.396805 
L 379.328823 54.366719 
L 379.78343 54.398115 
L 380.238037 54.462994 
L 380.432869 54.442932 
L 381.082308 54.482937 
L 381.407028 54.523654 
L 381.731747 54.434189 
L 382.381186 54.374157 
L 382.770849 54.291258 
L 382.965681 54.336323 
L 383.485232 54.451883 
L 384.264559 54.459597 
L 384.978942 54.462455 
L 385.693325 54.495606 
L 385.9531 54.555693 
L 386.537596 54.515252 
L 387.187034 54.416621 
L 387.44681 54.473461 
L 388.291081 54.55187 
L 388.485912 54.516109 
L 388.810632 54.48719 
L 389.005464 54.426919 
L 390.823893 54.410877 
L 391.018724 54.375452 
L 391.343444 54.364314 
L 391.60322 54.281458 
L 393.161873 54.179234 
L 393.421649 54.149029 
L 394.071088 54.186656 
L 394.850414 54.016046 
L 395.305022 54.016596 
L 395.824573 54.031778 
L 396.149292 53.844593 
L 396.538956 53.781642 
L 396.733787 53.835699 
L 396.993563 53.782138 
L 397.643002 53.785598 
L 398.422329 53.60586 
L 398.487273 53.568 
L 398.487273 53.568 
" clip-path="url(#p2928ba05ca)" style="fill: none; stroke-dasharray: 2,3.3; stroke-dashoffset: 0; stroke: #ffa500; stroke-width: 2"/>
   </g>
   <g id="patch_3">
    <path d="M 57.6 307.584 
L 57.6 41.472 
" style="fill: none; stroke: #000000; stroke-width: 0.8; stroke-linejoin: miter; stroke-linecap: square"/>
   </g>
   <g id="patch_4">
    <path d="M 414.72 307.584 
L 414.72 41.472 
" style="fill: none; stroke: #000000; stroke-width: 0.8; stroke-linejoin: miter; stroke-linecap: square"/>
   </g>
   <g id="patch_5">
    <path d="M 57.6 307.584 
L 414.72 307.584 
" style="fill: none; stroke: #000000; stroke-width: 0.8; stroke-linejoin: miter; stroke-linecap: square"/>
   </g>
   <g id="patch_6">
    <path d="M 57.6 41.472 
L 414.72 41.472 
" style="fill: none; stroke: #000000; stroke-width: 0.8; stroke-linejoin: miter; stroke-linecap: square"/>
   </g>
   <g id="text_18">
    <!-- Waiting Time Plot -->
    <g transform="translate(183.833438 8.2635)scale(0.12 -0.12)">
     <defs>
      <path id="DejaVuSans-50" d="M 1259 4147 
L 1259 2394 
L 2053 2394 
Q 2494 2394 2734 2622 
Q 2975 2850 2975 3272 
Q 2975 3691 2734 3919 
Q 2494 4147 2053 4147 
L 1259 4147 
z
M 628 4666 
L 2053 4666 
Q 2838 4666 3239 4311 
Q 3641 3956 3641 3272 
Q 3641 2581 3239 2228 
Q 2838 1875 2053 1875 
L 1259 1875 
L 1259 0 
L 628 0 
L 628 4666 
z
" transform="scale(0.015625)"/>
      <path id="DejaVuSans-6c" d="M 603 4863 
L 1178 4863 
L 1178 0 
L 603 0 
L 603 4863 
z
" transform="scale(0.015625)"/>
     </defs>
     <use xlink:href="#DejaVuSans-57"/>
     <use xlink:href="#DejaVuSans-61" x="92.501953"/>
     <use xlink:href="#DejaVuSans-69" x="153.78125"/>
     <use xlink:href="#DejaVuSans-74" x="181.564453"/>
     <use xlink:href="#DejaVuSans-69" x="220.773438"/>
     <use xlink:href="#DejaVuSans-6e" x="248.556641"/>
     <use xlink:href="#DejaVuSans-67" x="311.935547"/>
     <use xlink:href="#DejaVuSans-20" x="375.412109"/>
     <use xlink:href="#DejaVuSans-54" x="407.199219"/>
     <use xlink:href="#DejaVuSans-69" x="465.158203"/>
     <use xlink:href="#DejaVuSans-6d" x="492.941406"/>
     <use xlink:href="#DejaVuSans-65" x="590.353516"/>
     <use xlink:href="#DejaVuSans-20" x="651.876953"/>
     <use xlink:href="#DejaVuSans-50" x="683.664062"/>
     <use xlink:href="#DejaVuSans-6c" x="743.966797"/>
     <use xlink:href="#DejaVuSans-6f" x="771.75"/>
     <use xlink:href="#DejaVuSans-74" x="832.931641"/>
    </g>
    <!--  avg_d = 709.6216031767522  -->
    <g transform="translate(142.671562 21.700875)scale(0.12 -0.12)">
     <defs>
      <path id="DejaVuSans-76" d="M 191 3500 
L 800 3500 
L 1894 563 
L 2988 3500 
L 3597 3500 
L 2284 0 
L 1503 0 
L 191 3500 
z
" transform="scale(0.015625)"/>
      <path id="DejaVuSans-5f" d="M 3263 -1063 
L 3263 -1509 
L -63 -1509 
L -63 -1063 
L 3263 -1063 
z
" transform="scale(0.015625)"/>
      <path id="DejaVuSans-3d" d="M 678 2906 
L 4684 2906 
L 4684 2381 
L 678 2381 
L 678 2906 
z
M 678 1631 
L 4684 1631 
L 4684 1100 
L 678 1100 
L 678 1631 
z
" transform="scale(0.015625)"/>
      <path id="DejaVuSans-2e" d="M 684 794 
L 1344 794 
L 1344 0 
L 684 0 
L 684 794 
z
" transform="scale(0.015625)"/>
     </defs>
     <use xlink:href="#DejaVuSans-20"/>
     <use xlink:href="#DejaVuSans-61" x="31.787109"/>
     <use xlink:href="#DejaVuSans-76" x="93.066406"/>
     <use xlink:href="#DejaVuSans-67" x="152.246094"/>
     <use xlink:href="#DejaVuSans-5f" x="215.722656"/>
     <use xlink:href="#DejaVuSans-64" x="265.722656"/>
     <use xlink:href="#DejaVuSans-20" x="329.199219"/>
     <use xlink:href="#DejaVuSans-3d" x="360.986328"/>
     <use xlink:href="#DejaVuSans-20" x="444.775391"/>
     <use xlink:href="#DejaVuSans-37" x="476.5625"/>
     <use xlink:href="#DejaVuSans-30" x="540.185547"/>
     <use xlink:href="#DejaVuSans-39" x="603.808594"/>
     <use xlink:href="#DejaVuSans-2e" x="667.431641"/>
     <use xlink:href="#DejaVuSans-36" x="699.21875"/>
     <use xlink:href="#DejaVuSans-32" x="762.841797"/>
     <use xlink:href="#DejaVuSans-31" x="826.464844"/>
     <use xlink:href="#DejaVuSans-36" x="890.087891"/>
     <use xlink:href="#DejaVuSans-30" x="953.710938"/>
     <use xlink:href="#DejaVuSans-33" x="1017.333984"/>
     <use xlink:href="#DejaVuSans-31" x="1080.957031"/>
     <use xlink:href="#DejaVuSans-37" x="1144.580078"/>
     <use xlink:href="#DejaVuSans-36" x="1208.203125"/>
     <use xlink:href="#DejaVuSans-37" x="1271.826172"/>
     <use xlink:href="#DejaVuSans-35" x="1335.449219"/>
     <use xlink:href="#DejaVuSans-32" x="1399.072266"/>
     <use xlink:href="#DejaVuSans-32" x="1462.695312"/>
     <use xlink:href="#DejaVuSans-20" x="1526.318359"/>
    </g>
    <!--  avg_a = 998.0012667684668diff = -288.3796635917147 -->
    <g transform="translate(61.017188 35.472)scale(0.12 -0.12)">
     <defs>
      <path id="DejaVuSans-2d" d="M 313 2009 
L 1997 2009 
L 1997 1497 
L 313 1497 
L 313 2009 
z
" transform="scale(0.015625)"/>
     </defs>
     <use xlink:href="#DejaVuSans-20"/>
     <use xlink:href="#DejaVuSans-61" x="31.787109"/>
     <use xlink:href="#DejaVuSans-76" x="93.066406"/>
     <use xlink:href="#DejaVuSans-67" x="152.246094"/>
     <use xlink:href="#DejaVuSans-5f" x="215.722656"/>
     <use xlink:href="#DejaVuSans-61" x="265.722656"/>
     <use xlink:href="#DejaVuSans-20" x="327.001953"/>
     <use xlink:href="#DejaVuSans-3d" x="358.789062"/>
     <use xlink:href="#DejaVuSans-20" x="442.578125"/>
     <use xlink:href="#DejaVuSans-39" x="474.365234"/>
     <use xlink:href="#DejaVuSans-39" x="537.988281"/>
     <use xlink:href="#DejaVuSans-38" x="601.611328"/>
     <use xlink:href="#DejaVuSans-2e" x="665.234375"/>
     <use xlink:href="#DejaVuSans-30" x="697.021484"/>
     <use xlink:href="#DejaVuSans-30" x="760.644531"/>
     <use xlink:href="#DejaVuSans-31" x="824.267578"/>
     <use xlink:href="#DejaVuSans-32" x="887.890625"/>
     <use xlink:href="#DejaVuSans-36" x="951.513672"/>
     <use xlink:href="#DejaVuSans-36" x="1015.136719"/>
     <use xlink:href="#DejaVuSans-37" x="1078.759766"/>
     <use xlink:href="#DejaVuSans-36" x="1142.382812"/>
     <use xlink:href="#DejaVuSans-38" x="1206.005859"/>
     <use xlink:href="#DejaVuSans-34" x="1269.628906"/>
     <use xlink:href="#DejaVuSans-36" x="1333.251953"/>
     <use xlink:href="#DejaVuSans-36" x="1396.875"/>
     <use xlink:href="#DejaVuSans-38" x="1460.498047"/>
     <use xlink:href="#DejaVuSans-64" x="1524.121094"/>
     <use xlink:href="#DejaVuSans-69" x="1587.597656"/>
     <use xlink:href="#DejaVuSans-66" x="1615.380859"/>
     <use xlink:href="#DejaVuSans-66" x="1650.585938"/>
     <use xlink:href="#DejaVuSans-20" x="1685.791016"/>
     <use xlink:href="#DejaVuSans-3d" x="1717.578125"/>
     <use xlink:href="#DejaVuSans-20" x="1801.367188"/>
     <use xlink:href="#DejaVuSans-2d" x="1833.154297"/>
     <use xlink:href="#DejaVuSans-32" x="1869.238281"/>
     <use xlink:href="#DejaVuSans-38" x="1932.861328"/>
     <use xlink:href="#DejaVuSans-38" x="1996.484375"/>
     <use xlink:href="#DejaVuSans-2e" x="2060.107422"/>
     <use xlink:href="#DejaVuSans-33" x="2091.894531"/>
     <use xlink:href="#DejaVuSans-37" x="2155.517578"/>
     <use xlink:href="#DejaVuSans-39" x="2219.140625"/>
     <use xlink:href="#DejaVuSans-36" x="2282.763672"/>
     <use xlink:href="#DejaVuSans-36" x="2346.386719"/>
     <use xlink:href="#DejaVuSans-33" x="2410.009766"/>
     <use xlink:href="#DejaVuSans-35" x="2473.632812"/>
     <use xlink:href="#DejaVuSans-39" x="2537.255859"/>
     <use xlink:href="#DejaVuSans-31" x="2600.878906"/>
     <use xlink:href="#DejaVuSans-37" x="2664.501953"/>
     <use xlink:href="#DejaVuSans-31" x="2728.125"/>
     <use xlink:href="#DejaVuSans-34" x="2791.748047"/>
     <use xlink:href="#DejaVuSans-37" x="2855.371094"/>
    </g>
   </g>
   <g id="legend_1">
    <g id="patch_7">
     <path d="M 263.88875 302.584 
L 407.72 302.584 
Q 409.72 302.584 409.72 300.584 
L 409.72 272.22775 
Q 409.72 270.22775 407.72 270.22775 
L 263.88875 270.22775 
Q 261.88875 270.22775 261.88875 272.22775 
L 261.88875 300.584 
Q 261.88875 302.584 263.88875 302.584 
z
" style="fill: #ffffff; opacity: 0.8; stroke: #cccccc; stroke-linejoin: miter"/>
    </g>
    <g id="line2d_18">
     <path d="M 265.88875 278.326187 
L 275.88875 278.326187 
L 285.88875 278.326187 
" style="fill: none; stroke-dasharray: 2,3.3; stroke-dashoffset: 0; stroke: #0000ff; stroke-width: 2"/>
    </g>
    <g id="text_19">
     <!-- Average (Default) -->
     <g transform="translate(293.88875 281.826187)scale(0.1 -0.1)">
      <defs>
       <path id="DejaVuSans-41" d="M 2188 4044 
L 1331 1722 
L 3047 1722 
L 2188 4044 
z
M 1831 4666 
L 2547 4666 
L 4325 0 
L 3669 0 
L 3244 1197 
L 1141 1197 
L 716 0 
L 50 0 
L 1831 4666 
z
" transform="scale(0.015625)"/>
       <path id="DejaVuSans-28" d="M 1984 4856 
Q 1566 4138 1362 3434 
Q 1159 2731 1159 2009 
Q 1159 1288 1364 580 
Q 1569 -128 1984 -844 
L 1484 -844 
Q 1016 -109 783 600 
Q 550 1309 550 2009 
Q 550 2706 781 3412 
Q 1013 4119 1484 4856 
L 1984 4856 
z
" transform="scale(0.015625)"/>
       <path id="DejaVuSans-44" d="M 1259 4147 
L 1259 519 
L 2022 519 
Q 2988 519 3436 956 
Q 3884 1394 3884 2338 
Q 3884 3275 3436 3711 
Q 2988 4147 2022 4147 
L 1259 4147 
z
M 628 4666 
L 1925 4666 
Q 3281 4666 3915 4102 
Q 4550 3538 4550 2338 
Q 4550 1131 3912 565 
Q 3275 0 1925 0 
L 628 0 
L 628 4666 
z
" transform="scale(0.015625)"/>
       <path id="DejaVuSans-29" d="M 513 4856 
L 1013 4856 
Q 1481 4119 1714 3412 
Q 1947 2706 1947 2009 
Q 1947 1309 1714 600 
Q 1481 -109 1013 -844 
L 513 -844 
Q 928 -128 1133 580 
Q 1338 1288 1338 2009 
Q 1338 2731 1133 3434 
Q 928 4138 513 4856 
z
" transform="scale(0.015625)"/>
      </defs>
      <use xlink:href="#DejaVuSans-41"/>
      <use xlink:href="#DejaVuSans-76" x="62.533203"/>
      <use xlink:href="#DejaVuSans-65" x="121.712891"/>
      <use xlink:href="#DejaVuSans-72" x="183.236328"/>
      <use xlink:href="#DejaVuSans-61" x="224.349609"/>
      <use xlink:href="#DejaVuSans-67" x="285.628906"/>
      <use xlink:href="#DejaVuSans-65" x="349.105469"/>
      <use xlink:href="#DejaVuSans-20" x="410.628906"/>
      <use xlink:href="#DejaVuSans-28" x="442.416016"/>
      <use xlink:href="#DejaVuSans-44" x="481.429688"/>
      <use xlink:href="#DejaVuSans-65" x="558.431641"/>
      <use xlink:href="#DejaVuSans-66" x="619.955078"/>
      <use xlink:href="#DejaVuSans-61" x="655.160156"/>
      <use xlink:href="#DejaVuSans-75" x="716.439453"/>
      <use xlink:href="#DejaVuSans-6c" x="779.818359"/>
      <use xlink:href="#DejaVuSans-74" x="807.601562"/>
      <use xlink:href="#DejaVuSans-29" x="846.810547"/>
     </g>
    </g>
    <g id="line2d_19">
     <path d="M 265.88875 293.004312 
L 275.88875 293.004312 
L 285.88875 293.004312 
" style="fill: none; stroke-dasharray: 2,3.3; stroke-dashoffset: 0; stroke: #ffa500; stroke-width: 2"/>
    </g>
    <g id="text_20">
     <!-- Average (Anticipation) -->
     <g transform="translate(293.88875 296.504312)scale(0.1 -0.1)">
      <defs>
       <path id="DejaVuSans-63" d="M 3122 3366 
L 3122 2828 
Q 2878 2963 2633 3030 
Q 2388 3097 2138 3097 
Q 1578 3097 1268 2742 
Q 959 2388 959 1747 
Q 959 1106 1268 751 
Q 1578 397 2138 397 
Q 2388 397 2633 464 
Q 2878 531 3122 666 
L 3122 134 
Q 2881 22 2623 -34 
Q 2366 -91 2075 -91 
Q 1284 -91 818 406 
Q 353 903 353 1747 
Q 353 2603 823 3093 
Q 1294 3584 2113 3584 
Q 2378 3584 2631 3529 
Q 2884 3475 3122 3366 
z
" transform="scale(0.015625)"/>
       <path id="DejaVuSans-70" d="M 1159 525 
L 1159 -1331 
L 581 -1331 
L 581 3500 
L 1159 3500 
L 1159 2969 
Q 1341 3281 1617 3432 
Q 1894 3584 2278 3584 
Q 2916 3584 3314 3078 
Q 3713 2572 3713 1747 
Q 3713 922 3314 415 
Q 2916 -91 2278 -91 
Q 1894 -91 1617 61 
Q 1341 213 1159 525 
z
M 3116 1747 
Q 3116 2381 2855 2742 
Q 2594 3103 2138 3103 
Q 1681 3103 1420 2742 
Q 1159 2381 1159 1747 
Q 1159 1113 1420 752 
Q 1681 391 2138 391 
Q 2594 391 2855 752 
Q 3116 1113 3116 1747 
z
" transform="scale(0.015625)"/>
      </defs>
      <use xlink:href="#DejaVuSans-41"/>
      <use xlink:href="#DejaVuSans-76" x="62.533203"/>
      <use xlink:href="#DejaVuSans-65" x="121.712891"/>
      <use xlink:href="#DejaVuSans-72" x="183.236328"/>
      <use xlink:href="#DejaVuSans-61" x="224.349609"/>
      <use xlink:href="#DejaVuSans-67" x="285.628906"/>
      <use xlink:href="#DejaVuSans-65" x="349.105469"/>
      <use xlink:href="#DejaVuSans-20" x="410.628906"/>
      <use xlink:href="#DejaVuSans-28" x="442.416016"/>
      <use xlink:href="#DejaVuSans-41" x="481.429688"/>
      <use xlink:href="#DejaVuSans-6e" x="549.837891"/>
      <use xlink:href="#DejaVuSans-74" x="613.216797"/>
      <use xlink:href="#DejaVuSans-69" x="652.425781"/>
      <use xlink:href="#DejaVuSans-63" x="680.208984"/>
      <use xlink:href="#DejaVuSans-69" x="735.189453"/>
      <use xlink:href="#DejaVuSans-70" x="762.972656"/>
      <use xlink:href="#DejaVuSans-61" x="826.449219"/>
      <use xlink:href="#DejaVuSans-74" x="887.728516"/>
      <use xlink:href="#DejaVuSans-69" x="926.9375"/>
      <use xlink:href="#DejaVuSans-6f" x="954.720703"/>
      <use xlink:href="#DejaVuSans-6e" x="1015.902344"/>
      <use xlink:href="#DejaVuSans-29" x="1079.28125"/>
     </g>
    </g>
   </g>
  </g>
 </g>
 <defs>
  <clipPath id="p2928ba05ca">
   <rect x="57.6" y="41.472" width="357.12" height="266.112"/>
  </clipPath>
 </defs>
</svg>
