<?xml version="1.0" encoding="utf-8" standalone="no"?>
<!DOCTYPE svg PUBLIC "-//W3C//DTD SVG 1.1//EN"
  "http://www.w3.org/Graphics/SVG/1.1/DTD/svg11.dtd">
<svg xmlns:xlink="http://www.w3.org/1999/xlink" width="460.8pt" height="345.6pt" viewBox="0 0 460.8 345.6" xmlns="http://www.w3.org/2000/svg" version="1.1">
 <metadata>
  <rdf:RDF xmlns:dc="http://purl.org/dc/elements/1.1/" xmlns:cc="http://creativecommons.org/ns#" xmlns:rdf="http://www.w3.org/1999/02/22-rdf-syntax-ns#">
   <cc:Work>
    <dc:type rdf:resource="http://purl.org/dc/dcmitype/StillImage"/>
    <dc:date>2022-10-10T11:34:23.824280</dc:date>
    <dc:format>image/svg+xml</dc:format>
    <dc:creator>
     <cc:Agent>
      <dc:title>Matplotlib v3.5.3, https://matplotlib.org/</dc:title>
     </cc:Agent>
    </dc:creator>
   </cc:Work>
  </rdf:RDF>
 </metadata>
 <defs>
  <style type="text/css">*{stroke-linejoin: round; stroke-linecap: butt}</style>
 </defs>
 <g id="figure_1">
  <g id="patch_1">
   <path d="M 0 345.6 
L 460.8 345.6 
L 460.8 0 
L 0 0 
z
" style="fill: #ffffff"/>
  </g>
  <g id="axes_1">
   <g id="patch_2">
    <path d="M 57.6 307.584 
L 414.72 307.584 
L 414.72 41.472 
L 57.6 41.472 
z
" style="fill: #ffffff"/>
   </g>
   <g id="matplotlib.axis_1">
    <g id="xtick_1">
     <g id="line2d_1">
      <defs>
       <path id="m1d0e23c04c" d="M 0 0 
L 0 3.5 
" style="stroke: #000000; stroke-width: 0.8"/>
      </defs>
      <g>
       <use xlink:href="#m1d0e23c04c" x="73.832727" y="307.584" style="stroke: #000000; stroke-width: 0.8"/>
      </g>
     </g>
     <g id="text_1">
      <!-- 0 -->
      <g transform="translate(70.651477 322.182437)scale(0.1 -0.1)">
       <defs>
        <path id="DejaVuSans-30" d="M 2034 4250 
Q 1547 4250 1301 3770 
Q 1056 3291 1056 2328 
Q 1056 1369 1301 889 
Q 1547 409 2034 409 
Q 2525 409 2770 889 
Q 3016 1369 3016 2328 
Q 3016 3291 2770 3770 
Q 2525 4250 2034 4250 
z
M 2034 4750 
Q 2819 4750 3233 4129 
Q 3647 3509 3647 2328 
Q 3647 1150 3233 529 
Q 2819 -91 2034 -91 
Q 1250 -91 836 529 
Q 422 1150 422 2328 
Q 422 3509 836 4129 
Q 1250 4750 2034 4750 
z
" transform="scale(0.015625)"/>
       </defs>
       <use xlink:href="#DejaVuSans-30"/>
      </g>
     </g>
    </g>
    <g id="xtick_2">
     <g id="line2d_2">
      <g>
       <use xlink:href="#m1d0e23c04c" x="138.776625" y="307.584" style="stroke: #000000; stroke-width: 0.8"/>
      </g>
     </g>
     <g id="text_2">
      <!-- 1000 -->
      <g transform="translate(126.051625 322.182437)scale(0.1 -0.1)">
       <defs>
        <path id="DejaVuSans-31" d="M 794 531 
L 1825 531 
L 1825 4091 
L 703 3866 
L 703 4441 
L 1819 4666 
L 2450 4666 
L 2450 531 
L 3481 531 
L 3481 0 
L 794 0 
L 794 531 
z
" transform="scale(0.015625)"/>
       </defs>
       <use xlink:href="#DejaVuSans-31"/>
       <use xlink:href="#DejaVuSans-30" x="63.623047"/>
       <use xlink:href="#DejaVuSans-30" x="127.246094"/>
       <use xlink:href="#DejaVuSans-30" x="190.869141"/>
      </g>
     </g>
    </g>
    <g id="xtick_3">
     <g id="line2d_3">
      <g>
       <use xlink:href="#m1d0e23c04c" x="203.720523" y="307.584" style="stroke: #000000; stroke-width: 0.8"/>
      </g>
     </g>
     <g id="text_3">
      <!-- 2000 -->
      <g transform="translate(190.995523 322.182437)scale(0.1 -0.1)">
       <defs>
        <path id="DejaVuSans-32" d="M 1228 531 
L 3431 531 
L 3431 0 
L 469 0 
L 469 531 
Q 828 903 1448 1529 
Q 2069 2156 2228 2338 
Q 2531 2678 2651 2914 
Q 2772 3150 2772 3378 
Q 2772 3750 2511 3984 
Q 2250 4219 1831 4219 
Q 1534 4219 1204 4116 
Q 875 4013 500 3803 
L 500 4441 
Q 881 4594 1212 4672 
Q 1544 4750 1819 4750 
Q 2544 4750 2975 4387 
Q 3406 4025 3406 3419 
Q 3406 3131 3298 2873 
Q 3191 2616 2906 2266 
Q 2828 2175 2409 1742 
Q 1991 1309 1228 531 
z
" transform="scale(0.015625)"/>
       </defs>
       <use xlink:href="#DejaVuSans-32"/>
       <use xlink:href="#DejaVuSans-30" x="63.623047"/>
       <use xlink:href="#DejaVuSans-30" x="127.246094"/>
       <use xlink:href="#DejaVuSans-30" x="190.869141"/>
      </g>
     </g>
    </g>
    <g id="xtick_4">
     <g id="line2d_4">
      <g>
       <use xlink:href="#m1d0e23c04c" x="268.664421" y="307.584" style="stroke: #000000; stroke-width: 0.8"/>
      </g>
     </g>
     <g id="text_4">
      <!-- 3000 -->
      <g transform="translate(255.939421 322.182437)scale(0.1 -0.1)">
       <defs>
        <path id="DejaVuSans-33" d="M 2597 2516 
Q 3050 2419 3304 2112 
Q 3559 1806 3559 1356 
Q 3559 666 3084 287 
Q 2609 -91 1734 -91 
Q 1441 -91 1130 -33 
Q 819 25 488 141 
L 488 750 
Q 750 597 1062 519 
Q 1375 441 1716 441 
Q 2309 441 2620 675 
Q 2931 909 2931 1356 
Q 2931 1769 2642 2001 
Q 2353 2234 1838 2234 
L 1294 2234 
L 1294 2753 
L 1863 2753 
Q 2328 2753 2575 2939 
Q 2822 3125 2822 3475 
Q 2822 3834 2567 4026 
Q 2313 4219 1838 4219 
Q 1578 4219 1281 4162 
Q 984 4106 628 3988 
L 628 4550 
Q 988 4650 1302 4700 
Q 1616 4750 1894 4750 
Q 2613 4750 3031 4423 
Q 3450 4097 3450 3541 
Q 3450 3153 3228 2886 
Q 3006 2619 2597 2516 
z
" transform="scale(0.015625)"/>
       </defs>
       <use xlink:href="#DejaVuSans-33"/>
       <use xlink:href="#DejaVuSans-30" x="63.623047"/>
       <use xlink:href="#DejaVuSans-30" x="127.246094"/>
       <use xlink:href="#DejaVuSans-30" x="190.869141"/>
      </g>
     </g>
    </g>
    <g id="xtick_5">
     <g id="line2d_5">
      <g>
       <use xlink:href="#m1d0e23c04c" x="333.608319" y="307.584" style="stroke: #000000; stroke-width: 0.8"/>
      </g>
     </g>
     <g id="text_5">
      <!-- 4000 -->
      <g transform="translate(320.883319 322.182437)scale(0.1 -0.1)">
       <defs>
        <path id="DejaVuSans-34" d="M 2419 4116 
L 825 1625 
L 2419 1625 
L 2419 4116 
z
M 2253 4666 
L 3047 4666 
L 3047 1625 
L 3713 1625 
L 3713 1100 
L 3047 1100 
L 3047 0 
L 2419 0 
L 2419 1100 
L 313 1100 
L 313 1709 
L 2253 4666 
z
" transform="scale(0.015625)"/>
       </defs>
       <use xlink:href="#DejaVuSans-34"/>
       <use xlink:href="#DejaVuSans-30" x="63.623047"/>
       <use xlink:href="#DejaVuSans-30" x="127.246094"/>
       <use xlink:href="#DejaVuSans-30" x="190.869141"/>
      </g>
     </g>
    </g>
    <g id="xtick_6">
     <g id="line2d_6">
      <g>
       <use xlink:href="#m1d0e23c04c" x="398.552217" y="307.584" style="stroke: #000000; stroke-width: 0.8"/>
      </g>
     </g>
     <g id="text_6">
      <!-- 5000 -->
      <g transform="translate(385.827217 322.182437)scale(0.1 -0.1)">
       <defs>
        <path id="DejaVuSans-35" d="M 691 4666 
L 3169 4666 
L 3169 4134 
L 1269 4134 
L 1269 2991 
Q 1406 3038 1543 3061 
Q 1681 3084 1819 3084 
Q 2600 3084 3056 2656 
Q 3513 2228 3513 1497 
Q 3513 744 3044 326 
Q 2575 -91 1722 -91 
Q 1428 -91 1123 -41 
Q 819 9 494 109 
L 494 744 
Q 775 591 1075 516 
Q 1375 441 1709 441 
Q 2250 441 2565 725 
Q 2881 1009 2881 1497 
Q 2881 1984 2565 2268 
Q 2250 2553 1709 2553 
Q 1456 2553 1204 2497 
Q 953 2441 691 2322 
L 691 4666 
z
" transform="scale(0.015625)"/>
       </defs>
       <use xlink:href="#DejaVuSans-35"/>
       <use xlink:href="#DejaVuSans-30" x="63.623047"/>
       <use xlink:href="#DejaVuSans-30" x="127.246094"/>
       <use xlink:href="#DejaVuSans-30" x="190.869141"/>
      </g>
     </g>
    </g>
    <g id="text_7">
     <!-- Number of Orders -->
     <g transform="translate(191.261562 335.860562)scale(0.1 -0.1)">
      <defs>
       <path id="DejaVuSans-4e" d="M 628 4666 
L 1478 4666 
L 3547 763 
L 3547 4666 
L 4159 4666 
L 4159 0 
L 3309 0 
L 1241 3903 
L 1241 0 
L 628 0 
L 628 4666 
z
" transform="scale(0.015625)"/>
       <path id="DejaVuSans-75" d="M 544 1381 
L 544 3500 
L 1119 3500 
L 1119 1403 
Q 1119 906 1312 657 
Q 1506 409 1894 409 
Q 2359 409 2629 706 
Q 2900 1003 2900 1516 
L 2900 3500 
L 3475 3500 
L 3475 0 
L 2900 0 
L 2900 538 
Q 2691 219 2414 64 
Q 2138 -91 1772 -91 
Q 1169 -91 856 284 
Q 544 659 544 1381 
z
M 1991 3584 
L 1991 3584 
z
" transform="scale(0.015625)"/>
       <path id="DejaVuSans-6d" d="M 3328 2828 
Q 3544 3216 3844 3400 
Q 4144 3584 4550 3584 
Q 5097 3584 5394 3201 
Q 5691 2819 5691 2113 
L 5691 0 
L 5113 0 
L 5113 2094 
Q 5113 2597 4934 2840 
Q 4756 3084 4391 3084 
Q 3944 3084 3684 2787 
Q 3425 2491 3425 1978 
L 3425 0 
L 2847 0 
L 2847 2094 
Q 2847 2600 2669 2842 
Q 2491 3084 2119 3084 
Q 1678 3084 1418 2786 
Q 1159 2488 1159 1978 
L 1159 0 
L 581 0 
L 581 3500 
L 1159 3500 
L 1159 2956 
Q 1356 3278 1631 3431 
Q 1906 3584 2284 3584 
Q 2666 3584 2933 3390 
Q 3200 3197 3328 2828 
z
" transform="scale(0.015625)"/>
       <path id="DejaVuSans-62" d="M 3116 1747 
Q 3116 2381 2855 2742 
Q 2594 3103 2138 3103 
Q 1681 3103 1420 2742 
Q 1159 2381 1159 1747 
Q 1159 1113 1420 752 
Q 1681 391 2138 391 
Q 2594 391 2855 752 
Q 3116 1113 3116 1747 
z
M 1159 2969 
Q 1341 3281 1617 3432 
Q 1894 3584 2278 3584 
Q 2916 3584 3314 3078 
Q 3713 2572 3713 1747 
Q 3713 922 3314 415 
Q 2916 -91 2278 -91 
Q 1894 -91 1617 61 
Q 1341 213 1159 525 
L 1159 0 
L 581 0 
L 581 4863 
L 1159 4863 
L 1159 2969 
z
" transform="scale(0.015625)"/>
       <path id="DejaVuSans-65" d="M 3597 1894 
L 3597 1613 
L 953 1613 
Q 991 1019 1311 708 
Q 1631 397 2203 397 
Q 2534 397 2845 478 
Q 3156 559 3463 722 
L 3463 178 
Q 3153 47 2828 -22 
Q 2503 -91 2169 -91 
Q 1331 -91 842 396 
Q 353 884 353 1716 
Q 353 2575 817 3079 
Q 1281 3584 2069 3584 
Q 2775 3584 3186 3129 
Q 3597 2675 3597 1894 
z
M 3022 2063 
Q 3016 2534 2758 2815 
Q 2500 3097 2075 3097 
Q 1594 3097 1305 2825 
Q 1016 2553 972 2059 
L 3022 2063 
z
" transform="scale(0.015625)"/>
       <path id="DejaVuSans-72" d="M 2631 2963 
Q 2534 3019 2420 3045 
Q 2306 3072 2169 3072 
Q 1681 3072 1420 2755 
Q 1159 2438 1159 1844 
L 1159 0 
L 581 0 
L 581 3500 
L 1159 3500 
L 1159 2956 
Q 1341 3275 1631 3429 
Q 1922 3584 2338 3584 
Q 2397 3584 2469 3576 
Q 2541 3569 2628 3553 
L 2631 2963 
z
" transform="scale(0.015625)"/>
       <path id="DejaVuSans-20" transform="scale(0.015625)"/>
       <path id="DejaVuSans-6f" d="M 1959 3097 
Q 1497 3097 1228 2736 
Q 959 2375 959 1747 
Q 959 1119 1226 758 
Q 1494 397 1959 397 
Q 2419 397 2687 759 
Q 2956 1122 2956 1747 
Q 2956 2369 2687 2733 
Q 2419 3097 1959 3097 
z
M 1959 3584 
Q 2709 3584 3137 3096 
Q 3566 2609 3566 1747 
Q 3566 888 3137 398 
Q 2709 -91 1959 -91 
Q 1206 -91 779 398 
Q 353 888 353 1747 
Q 353 2609 779 3096 
Q 1206 3584 1959 3584 
z
" transform="scale(0.015625)"/>
       <path id="DejaVuSans-66" d="M 2375 4863 
L 2375 4384 
L 1825 4384 
Q 1516 4384 1395 4259 
Q 1275 4134 1275 3809 
L 1275 3500 
L 2222 3500 
L 2222 3053 
L 1275 3053 
L 1275 0 
L 697 0 
L 697 3053 
L 147 3053 
L 147 3500 
L 697 3500 
L 697 3744 
Q 697 4328 969 4595 
Q 1241 4863 1831 4863 
L 2375 4863 
z
" transform="scale(0.015625)"/>
       <path id="DejaVuSans-4f" d="M 2522 4238 
Q 1834 4238 1429 3725 
Q 1025 3213 1025 2328 
Q 1025 1447 1429 934 
Q 1834 422 2522 422 
Q 3209 422 3611 934 
Q 4013 1447 4013 2328 
Q 4013 3213 3611 3725 
Q 3209 4238 2522 4238 
z
M 2522 4750 
Q 3503 4750 4090 4092 
Q 4678 3434 4678 2328 
Q 4678 1225 4090 567 
Q 3503 -91 2522 -91 
Q 1538 -91 948 565 
Q 359 1222 359 2328 
Q 359 3434 948 4092 
Q 1538 4750 2522 4750 
z
" transform="scale(0.015625)"/>
       <path id="DejaVuSans-64" d="M 2906 2969 
L 2906 4863 
L 3481 4863 
L 3481 0 
L 2906 0 
L 2906 525 
Q 2725 213 2448 61 
Q 2172 -91 1784 -91 
Q 1150 -91 751 415 
Q 353 922 353 1747 
Q 353 2572 751 3078 
Q 1150 3584 1784 3584 
Q 2172 3584 2448 3432 
Q 2725 3281 2906 2969 
z
M 947 1747 
Q 947 1113 1208 752 
Q 1469 391 1925 391 
Q 2381 391 2643 752 
Q 2906 1113 2906 1747 
Q 2906 2381 2643 2742 
Q 2381 3103 1925 3103 
Q 1469 3103 1208 2742 
Q 947 2381 947 1747 
z
" transform="scale(0.015625)"/>
       <path id="DejaVuSans-73" d="M 2834 3397 
L 2834 2853 
Q 2591 2978 2328 3040 
Q 2066 3103 1784 3103 
Q 1356 3103 1142 2972 
Q 928 2841 928 2578 
Q 928 2378 1081 2264 
Q 1234 2150 1697 2047 
L 1894 2003 
Q 2506 1872 2764 1633 
Q 3022 1394 3022 966 
Q 3022 478 2636 193 
Q 2250 -91 1575 -91 
Q 1294 -91 989 -36 
Q 684 19 347 128 
L 347 722 
Q 666 556 975 473 
Q 1284 391 1588 391 
Q 1994 391 2212 530 
Q 2431 669 2431 922 
Q 2431 1156 2273 1281 
Q 2116 1406 1581 1522 
L 1381 1569 
Q 847 1681 609 1914 
Q 372 2147 372 2553 
Q 372 3047 722 3315 
Q 1072 3584 1716 3584 
Q 2034 3584 2315 3537 
Q 2597 3491 2834 3397 
z
" transform="scale(0.015625)"/>
      </defs>
      <use xlink:href="#DejaVuSans-4e"/>
      <use xlink:href="#DejaVuSans-75" x="74.804688"/>
      <use xlink:href="#DejaVuSans-6d" x="138.183594"/>
      <use xlink:href="#DejaVuSans-62" x="235.595703"/>
      <use xlink:href="#DejaVuSans-65" x="299.072266"/>
      <use xlink:href="#DejaVuSans-72" x="360.595703"/>
      <use xlink:href="#DejaVuSans-20" x="401.708984"/>
      <use xlink:href="#DejaVuSans-6f" x="433.496094"/>
      <use xlink:href="#DejaVuSans-66" x="494.677734"/>
      <use xlink:href="#DejaVuSans-20" x="529.882812"/>
      <use xlink:href="#DejaVuSans-4f" x="561.669922"/>
      <use xlink:href="#DejaVuSans-72" x="640.380859"/>
      <use xlink:href="#DejaVuSans-64" x="679.744141"/>
      <use xlink:href="#DejaVuSans-65" x="743.220703"/>
      <use xlink:href="#DejaVuSans-72" x="804.744141"/>
      <use xlink:href="#DejaVuSans-73" x="845.857422"/>
     </g>
    </g>
   </g>
   <g id="matplotlib.axis_2">
    <g id="ytick_1">
     <g id="line2d_7">
      <defs>
       <path id="m79eca42bb9" d="M 0 0 
L -3.5 0 
" style="stroke: #000000; stroke-width: 0.8"/>
      </defs>
      <g>
       <use xlink:href="#m79eca42bb9" x="57.6" y="295.191752" style="stroke: #000000; stroke-width: 0.8"/>
      </g>
     </g>
     <g id="text_8">
      <!-- 500 -->
      <g transform="translate(31.5125 298.99097)scale(0.1 -0.1)">
       <use xlink:href="#DejaVuSans-35"/>
       <use xlink:href="#DejaVuSans-30" x="63.623047"/>
       <use xlink:href="#DejaVuSans-30" x="127.246094"/>
      </g>
     </g>
    </g>
    <g id="ytick_2">
     <g id="line2d_8">
      <g>
       <use xlink:href="#m79eca42bb9" x="57.6" y="252.095894" style="stroke: #000000; stroke-width: 0.8"/>
      </g>
     </g>
     <g id="text_9">
      <!-- 1000 -->
      <g transform="translate(25.15 255.895112)scale(0.1 -0.1)">
       <use xlink:href="#DejaVuSans-31"/>
       <use xlink:href="#DejaVuSans-30" x="63.623047"/>
       <use xlink:href="#DejaVuSans-30" x="127.246094"/>
       <use xlink:href="#DejaVuSans-30" x="190.869141"/>
      </g>
     </g>
    </g>
    <g id="ytick_3">
     <g id="line2d_9">
      <g>
       <use xlink:href="#m79eca42bb9" x="57.6" y="209.000036" style="stroke: #000000; stroke-width: 0.8"/>
      </g>
     </g>
     <g id="text_10">
      <!-- 1500 -->
      <g transform="translate(25.15 212.799254)scale(0.1 -0.1)">
       <use xlink:href="#DejaVuSans-31"/>
       <use xlink:href="#DejaVuSans-35" x="63.623047"/>
       <use xlink:href="#DejaVuSans-30" x="127.246094"/>
       <use xlink:href="#DejaVuSans-30" x="190.869141"/>
      </g>
     </g>
    </g>
    <g id="ytick_4">
     <g id="line2d_10">
      <g>
       <use xlink:href="#m79eca42bb9" x="57.6" y="165.904178" style="stroke: #000000; stroke-width: 0.8"/>
      </g>
     </g>
     <g id="text_11">
      <!-- 2000 -->
      <g transform="translate(25.15 169.703397)scale(0.1 -0.1)">
       <use xlink:href="#DejaVuSans-32"/>
       <use xlink:href="#DejaVuSans-30" x="63.623047"/>
       <use xlink:href="#DejaVuSans-30" x="127.246094"/>
       <use xlink:href="#DejaVuSans-30" x="190.869141"/>
      </g>
     </g>
    </g>
    <g id="ytick_5">
     <g id="line2d_11">
      <g>
       <use xlink:href="#m79eca42bb9" x="57.6" y="122.80832" style="stroke: #000000; stroke-width: 0.8"/>
      </g>
     </g>
     <g id="text_12">
      <!-- 2500 -->
      <g transform="translate(25.15 126.607539)scale(0.1 -0.1)">
       <use xlink:href="#DejaVuSans-32"/>
       <use xlink:href="#DejaVuSans-35" x="63.623047"/>
       <use xlink:href="#DejaVuSans-30" x="127.246094"/>
       <use xlink:href="#DejaVuSans-30" x="190.869141"/>
      </g>
     </g>
    </g>
    <g id="ytick_6">
     <g id="line2d_12">
      <g>
       <use xlink:href="#m79eca42bb9" x="57.6" y="79.712462" style="stroke: #000000; stroke-width: 0.8"/>
      </g>
     </g>
     <g id="text_13">
      <!-- 3000 -->
      <g transform="translate(25.15 83.511681)scale(0.1 -0.1)">
       <use xlink:href="#DejaVuSans-33"/>
       <use xlink:href="#DejaVuSans-30" x="63.623047"/>
       <use xlink:href="#DejaVuSans-30" x="127.246094"/>
       <use xlink:href="#DejaVuSans-30" x="190.869141"/>
      </g>
     </g>
    </g>
    <g id="text_14">
     <!-- Waiting Time/s -->
     <g transform="translate(19.070312 211.410031)rotate(-90)scale(0.1 -0.1)">
      <defs>
       <path id="DejaVuSans-57" d="M 213 4666 
L 850 4666 
L 1831 722 
L 2809 4666 
L 3519 4666 
L 4500 722 
L 5478 4666 
L 6119 4666 
L 4947 0 
L 4153 0 
L 3169 4050 
L 2175 0 
L 1381 0 
L 213 4666 
z
" transform="scale(0.015625)"/>
       <path id="DejaVuSans-61" d="M 2194 1759 
Q 1497 1759 1228 1600 
Q 959 1441 959 1056 
Q 959 750 1161 570 
Q 1363 391 1709 391 
Q 2188 391 2477 730 
Q 2766 1069 2766 1631 
L 2766 1759 
L 2194 1759 
z
M 3341 1997 
L 3341 0 
L 2766 0 
L 2766 531 
Q 2569 213 2275 61 
Q 1981 -91 1556 -91 
Q 1019 -91 701 211 
Q 384 513 384 1019 
Q 384 1609 779 1909 
Q 1175 2209 1959 2209 
L 2766 2209 
L 2766 2266 
Q 2766 2663 2505 2880 
Q 2244 3097 1772 3097 
Q 1472 3097 1187 3025 
Q 903 2953 641 2809 
L 641 3341 
Q 956 3463 1253 3523 
Q 1550 3584 1831 3584 
Q 2591 3584 2966 3190 
Q 3341 2797 3341 1997 
z
" transform="scale(0.015625)"/>
       <path id="DejaVuSans-69" d="M 603 3500 
L 1178 3500 
L 1178 0 
L 603 0 
L 603 3500 
z
M 603 4863 
L 1178 4863 
L 1178 4134 
L 603 4134 
L 603 4863 
z
" transform="scale(0.015625)"/>
       <path id="DejaVuSans-74" d="M 1172 4494 
L 1172 3500 
L 2356 3500 
L 2356 3053 
L 1172 3053 
L 1172 1153 
Q 1172 725 1289 603 
Q 1406 481 1766 481 
L 2356 481 
L 2356 0 
L 1766 0 
Q 1100 0 847 248 
Q 594 497 594 1153 
L 594 3053 
L 172 3053 
L 172 3500 
L 594 3500 
L 594 4494 
L 1172 4494 
z
" transform="scale(0.015625)"/>
       <path id="DejaVuSans-6e" d="M 3513 2113 
L 3513 0 
L 2938 0 
L 2938 2094 
Q 2938 2591 2744 2837 
Q 2550 3084 2163 3084 
Q 1697 3084 1428 2787 
Q 1159 2491 1159 1978 
L 1159 0 
L 581 0 
L 581 3500 
L 1159 3500 
L 1159 2956 
Q 1366 3272 1645 3428 
Q 1925 3584 2291 3584 
Q 2894 3584 3203 3211 
Q 3513 2838 3513 2113 
z
" transform="scale(0.015625)"/>
       <path id="DejaVuSans-67" d="M 2906 1791 
Q 2906 2416 2648 2759 
Q 2391 3103 1925 3103 
Q 1463 3103 1205 2759 
Q 947 2416 947 1791 
Q 947 1169 1205 825 
Q 1463 481 1925 481 
Q 2391 481 2648 825 
Q 2906 1169 2906 1791 
z
M 3481 434 
Q 3481 -459 3084 -895 
Q 2688 -1331 1869 -1331 
Q 1566 -1331 1297 -1286 
Q 1028 -1241 775 -1147 
L 775 -588 
Q 1028 -725 1275 -790 
Q 1522 -856 1778 -856 
Q 2344 -856 2625 -561 
Q 2906 -266 2906 331 
L 2906 616 
Q 2728 306 2450 153 
Q 2172 0 1784 0 
Q 1141 0 747 490 
Q 353 981 353 1791 
Q 353 2603 747 3093 
Q 1141 3584 1784 3584 
Q 2172 3584 2450 3431 
Q 2728 3278 2906 2969 
L 2906 3500 
L 3481 3500 
L 3481 434 
z
" transform="scale(0.015625)"/>
       <path id="DejaVuSans-54" d="M -19 4666 
L 3928 4666 
L 3928 4134 
L 2272 4134 
L 2272 0 
L 1638 0 
L 1638 4134 
L -19 4134 
L -19 4666 
z
" transform="scale(0.015625)"/>
       <path id="DejaVuSans-2f" d="M 1625 4666 
L 2156 4666 
L 531 -594 
L 0 -594 
L 1625 4666 
z
" transform="scale(0.015625)"/>
      </defs>
      <use xlink:href="#DejaVuSans-57"/>
      <use xlink:href="#DejaVuSans-61" x="92.501953"/>
      <use xlink:href="#DejaVuSans-69" x="153.78125"/>
      <use xlink:href="#DejaVuSans-74" x="181.564453"/>
      <use xlink:href="#DejaVuSans-69" x="220.773438"/>
      <use xlink:href="#DejaVuSans-6e" x="248.556641"/>
      <use xlink:href="#DejaVuSans-67" x="311.935547"/>
      <use xlink:href="#DejaVuSans-20" x="375.412109"/>
      <use xlink:href="#DejaVuSans-54" x="407.199219"/>
      <use xlink:href="#DejaVuSans-69" x="465.158203"/>
      <use xlink:href="#DejaVuSans-6d" x="492.941406"/>
      <use xlink:href="#DejaVuSans-65" x="590.353516"/>
      <use xlink:href="#DejaVuSans-2f" x="651.876953"/>
      <use xlink:href="#DejaVuSans-73" x="685.568359"/>
     </g>
    </g>
   </g>
   <g id="line2d_13">
    <path d="M 73.832727 291.164406 
L 73.897671 295.488 
L 73.962615 289.455954 
L 74.027559 292.627168 
L 74.157447 287.624419 
L 74.287335 294.012146 
L 74.352278 293.595467 
L 74.482166 289.215562 
L 74.54711 289.315534 
L 74.612054 288.123021 
L 74.676998 289.755634 
L 74.741942 288.007044 
L 74.806886 288.080803 
L 74.87183 289.949273 
L 75.001717 286.326202 
L 75.066661 287.124794 
L 75.131605 286.782512 
L 75.196549 286.850519 
L 75.261493 287.232989 
L 75.521269 282.925378 
L 75.586213 283.078894 
L 75.781044 281.3428 
L 75.845988 282.523956 
L 75.910932 281.760811 
L 75.975876 281.432939 
L 76.105764 281.86505 
L 76.300595 281.113074 
L 76.495427 280.471343 
L 76.560371 280.772749 
L 76.625315 279.984085 
L 76.690259 280.464799 
L 76.755203 280.854274 
L 76.950034 279.701805 
L 77.014978 279.537874 
L 77.144866 278.081572 
L 77.20981 278.340017 
L 77.274754 277.387172 
L 77.339698 277.56646 
L 77.404642 277.795158 
L 77.469586 277.736047 
L 77.534529 277.71786 
L 77.664417 277.309539 
L 77.859249 275.998486 
L 77.989137 276.146827 
L 78.119025 276.767517 
L 78.833407 273.387179 
L 79.028239 272.313265 
L 79.093183 272.281655 
L 79.223071 271.425243 
L 79.288015 271.545651 
L 79.742622 269.324717 
L 79.87251 269.848805 
L 80.067341 269.271095 
L 80.132285 269.247561 
L 80.197229 269.612597 
L 80.262173 269.434902 
L 80.327117 269.470126 
L 80.392061 269.755171 
L 80.457005 269.578934 
L 80.586893 269.405309 
L 80.651837 268.918075 
L 80.71678 269.051157 
L 80.781724 269.070502 
L 80.846668 268.668329 
L 80.911612 268.692035 
L 80.976556 268.995331 
L 81.0415 268.70469 
L 81.106444 268.947129 
L 81.171388 268.740224 
L 81.366219 269.394261 
L 81.496107 269.23457 
L 81.625995 269.663779 
L 81.755883 269.501206 
L 81.885771 270.017748 
L 82.21049 269.435537 
L 82.275434 269.585941 
L 82.340378 269.073555 
L 82.405322 269.17756 
L 82.600153 269.003836 
L 82.730041 268.296456 
L 82.859929 268.375161 
L 83.054761 267.860191 
L 83.184649 267.513153 
L 83.314536 267.580578 
L 83.37948 267.574343 
L 83.444424 267.689913 
L 83.509368 267.604681 
L 83.574312 267.687575 
L 83.639256 267.625977 
L 83.834088 267.259963 
L 83.899031 267.265921 
L 83.963975 267.461235 
L 84.158807 267.097756 
L 84.223751 267.127278 
L 84.288695 266.978101 
L 84.418583 267.217712 
L 84.613414 267.140399 
L 84.743302 267.113059 
L 84.808246 266.971566 
L 84.87319 267.120763 
L 85.003078 266.682026 
L 85.132966 266.284372 
L 85.197909 266.333035 
L 85.262853 266.61006 
L 85.327797 266.545649 
L 85.457685 266.092959 
L 85.587573 265.876447 
L 85.847348 265.149323 
L 85.912292 265.176764 
L 86.107124 264.916178 
L 86.626675 264.5771 
L 86.821507 264.367039 
L 86.951395 264.044031 
L 87.016339 264.279982 
L 87.081282 264.13768 
L 87.276114 263.969362 
L 87.406002 263.51323 
L 87.53589 263.3769 
L 87.665778 263.321861 
L 87.925553 262.656106 
L 87.990497 262.867297 
L 88.315216 263.164171 
L 88.445104 262.874618 
L 88.574992 263.149263 
L 88.639936 263.106363 
L 88.769824 263.018007 
L 88.899712 262.693207 
L 88.964655 262.85906 
L 89.029599 262.859823 
L 89.159487 262.494764 
L 89.289375 262.719416 
L 89.354319 262.676322 
L 89.484207 262.30067 
L 89.549151 262.359396 
L 89.679038 262.274094 
L 89.808926 262.25559 
L 89.938814 261.809958 
L 90.003758 261.842564 
L 90.133646 261.914574 
L 90.19859 261.697246 
L 90.263533 261.793934 
L 90.328477 261.865507 
L 90.393421 261.669621 
L 90.458365 261.768479 
L 90.588253 261.768522 
L 90.783085 261.057417 
L 90.912972 261.082854 
L 91.04286 261.268454 
L 91.172748 260.796413 
L 91.237692 260.999778 
L 91.302636 260.873575 
L 91.432524 260.768267 
L 91.497467 260.858952 
L 91.692299 260.657621 
L 91.757243 260.534379 
L 91.822187 260.64161 
L 91.887131 260.65543 
L 91.952075 260.790717 
L 92.017019 260.745496 
L 92.276794 260.439132 
L 92.341738 260.508859 
L 92.53657 260.774403 
L 92.861289 260.147345 
L 92.926233 260.199484 
L 93.121065 260.018608 
L 93.315897 259.933121 
L 93.575672 259.809836 
L 93.70556 259.734752 
L 93.835448 259.555507 
L 93.900392 259.65873 
L 94.095223 259.372821 
L 94.290055 259.545343 
L 94.354999 259.589632 
L 94.484887 259.46216 
L 94.679718 259.567697 
L 94.744662 259.518866 
L 95.19927 260.271072 
L 95.394101 260.435446 
L 95.588933 260.637052 
L 95.653877 260.60781 
L 95.718821 260.424545 
L 95.783765 260.560524 
L 95.848709 260.576166 
L 96.04354 260.368445 
L 96.36826 260.66306 
L 96.563092 260.360598 
L 96.628035 260.433428 
L 96.692979 260.477148 
L 96.887811 260.286898 
L 97.407362 260.919624 
L 97.53725 260.825888 
L 98.316577 261.10821 
L 98.381521 261.263375 
L 98.446465 261.21103 
L 98.576352 261.201103 
L 98.901072 261.466165 
L 99.160847 261.350234 
L 99.680399 261.728101 
L 99.87523 261.642405 
L 100.135006 261.885322 
L 100.264894 261.746569 
L 100.394782 261.798086 
L 100.654557 261.684858 
L 100.914333 261.710194 
L 101.36894 261.616329 
L 101.758603 261.850546 
L 101.888491 261.888133 
L 102.083323 262.066133 
L 102.148267 261.941949 
L 102.343098 261.792555 
L 102.53793 261.98572 
L 103.252313 262.144241 
L 103.447145 262.088963 
L 103.512089 262.121384 
L 103.771864 261.869567 
L 104.356359 262.340331 
L 104.551191 262.324569 
L 104.810967 262.512987 
L 105.135686 262.480622 
L 105.460406 262.203426 
L 105.720181 262.354926 
L 105.785125 262.257513 
L 105.850069 262.302941 
L 105.915013 262.387939 
L 106.109845 262.118046 
L 106.69434 261.881952 
L 106.824227 261.891803 
L 107.084003 261.839235 
L 107.213891 261.735749 
L 107.343779 261.756167 
L 107.473666 261.808318 
L 108.382881 262.305156 
L 108.447825 262.242982 
L 108.512769 262.321654 
L 108.837488 262.488685 
L 109.097264 262.609577 
L 109.227152 262.486003 
L 109.486927 262.522228 
L 109.616815 262.491164 
L 109.811647 262.633434 
L 110.136366 262.362896 
L 110.396142 262.487216 
L 110.850749 262.579796 
L 111.110525 262.692021 
L 111.630076 262.637475 
L 112.084683 262.796846 
L 112.604234 262.935966 
L 112.734122 262.978753 
L 112.993898 262.729895 
L 113.188729 262.829629 
L 113.383561 262.823491 
L 113.708281 262.984379 
L 114.292776 263.026079 
L 114.682439 263.262625 
L 114.747383 263.16538 
L 114.812327 263.240417 
L 115.072102 263.192431 
L 115.20199 263.167445 
L 115.52671 263.040121 
L 116.37098 263.374581 
L 116.565812 263.427492 
L 116.760644 263.392956 
L 117.280195 263.369637 
L 117.475027 263.294466 
L 117.799746 263.334369 
L 117.994578 263.339368 
L 118.838848 263.347224 
L 119.163568 263.55396 
L 119.553231 263.539493 
L 119.877951 263.270985 
L 120.137726 263.170009 
L 120.267614 263.087363 
L 120.787165 263.22062 
L 121.436604 263.149398 
L 121.826268 263.029438 
L 122.021099 263.001716 
L 122.150987 262.962267 
L 122.475707 262.906031 
L 122.800426 262.859955 
L 122.995258 262.682632 
L 123.125146 262.615716 
L 123.255034 262.55264 
L 123.384921 262.487008 
L 125.787846 261.474988 
L 125.852789 261.524356 
L 126.047621 261.365442 
L 126.242453 261.341546 
L 126.437285 261.262949 
L 126.567172 261.284818 
L 127.281555 260.995299 
L 128.515489 260.560902 
L 128.775265 260.411914 
L 128.970097 260.426248 
L 129.099984 260.342084 
L 129.424704 260.261917 
L 129.684479 260.288055 
L 129.879311 260.306127 
L 130.074143 260.296547 
L 130.204031 260.277332 
L 130.463806 260.373845 
L 130.85347 260.31075 
L 130.983357 260.336914 
L 131.178189 260.342806 
L 131.373021 260.352421 
L 131.567852 260.210328 
L 131.69774 260.181981 
L 131.892572 260.177776 
L 132.347179 260.146896 
L 132.606955 259.951828 
L 132.736843 259.965549 
L 133.19145 259.718955 
L 133.581113 259.707563 
L 133.840889 259.643153 
L 134.100664 259.589071 
L 134.555272 259.485853 
L 136.048981 259.243935 
L 136.828308 258.977846 
L 136.958196 258.951241 
L 137.867411 258.75034 
L 137.997298 258.785653 
L 138.127186 258.792499 
L 138.322018 258.729334 
L 139.036401 258.658051 
L 139.426064 258.432555 
L 140.270335 258.397962 
L 140.595054 258.257523 
L 140.789886 258.2223 
L 141.114605 258.212523 
L 141.504269 258.005015 
L 141.893932 257.956995 
L 142.218652 257.829722 
L 142.933035 257.745644 
L 143.19281 257.547929 
L 143.582474 257.498066 
L 144.491688 257.130496 
L 144.68652 257.138484 
L 146.764725 256.521984 
L 147.089444 256.401749 
L 147.544051 256.20214 
L 147.803827 256.085073 
L 148.063603 256.072034 
L 148.453266 255.910977 
L 148.713042 255.747471 
L 149.427424 255.349544 
L 149.817088 255.309594 
L 150.076863 255.160029 
L 150.531471 255.068866 
L 150.85619 254.934521 
L 151.245854 254.671859 
L 151.505629 254.530739 
L 152.220012 254.071715 
L 152.739563 253.903954 
L 153.19417 253.590242 
L 155.662039 252.191755 
L 156.051702 251.955052 
L 156.441365 251.757261 
L 156.766085 251.656048 
L 157.220692 251.394689 
L 157.870131 251.036265 
L 159.428785 250.003792 
L 159.818448 249.86646 
L 160.402943 249.564963 
L 160.662719 249.412322 
L 160.987438 249.161238 
L 161.766765 248.77079 
L 162.156428 248.505701 
L 162.35126 248.455967 
L 162.546092 248.31835 
L 162.805867 248.261806 
L 163.715082 247.762875 
L 164.039801 247.531763 
L 164.429465 247.262242 
L 164.884072 246.905472 
L 171.18363 242.708758 
L 172.092845 242.039984 
L 172.547452 241.705127 
L 177.872852 237.744472 
L 178.262515 237.532919 
L 178.522291 237.343795 
L 179.366561 236.706712 
L 179.691281 236.493692 
L 180.795327 235.657562 
L 181.055103 235.504302 
L 181.314878 235.337568 
L 181.50971 235.21079 
L 184.497129 233.041572 
L 185.211512 232.50707 
L 185.536232 232.272275 
L 186.185671 231.802425 
L 186.900053 231.275622 
L 187.354661 230.904709 
L 187.874212 230.478109 
L 188.653539 229.940674 
L 189.238034 229.538754 
L 189.822529 229.128641 
L 190.601856 228.467188 
L 201.057823 219.670824 
L 201.772206 219.017182 
L 203.525691 217.450872 
L 203.980299 217.052906 
L 204.369962 216.692719 
L 205.019401 216.155502 
L 205.798728 215.517312 
L 206.383223 215.042262 
L 206.902774 214.465899 
L 208.656259 212.998588 
L 208.851091 212.829015 
L 209.955137 211.749655 
L 211.124127 210.739736 
L 211.643679 210.251314 
L 211.903454 210.090748 
L 212.487949 209.561625 
L 213.527052 208.63973 
L 213.916715 208.265177 
L 214.760986 207.479226 
L 215.280537 207.042826 
L 216.254695 206.273273 
L 217.358742 205.279403 
L 217.683461 204.995397 
L 218.592676 204.146465 
L 218.982339 203.78506 
L 222.359422 200.811061 
L 223.008861 200.203078 
L 223.788187 199.546596 
L 224.047963 199.342947 
L 225.216953 198.343762 
L 225.866392 197.818579 
L 226.710663 197.138255 
L 227.295158 196.678499 
L 227.749765 196.332124 
L 228.529092 195.777602 
L 228.853811 195.557826 
L 229.113587 195.312528 
L 229.438307 195.112187 
L 231.386624 193.360791 
L 231.646399 193.173009 
L 233.65966 191.384407 
L 234.309099 190.829269 
L 236.582135 188.948404 
L 237.881013 187.961431 
L 238.790228 187.269236 
L 240.218994 186.172335 
L 240.608657 185.857878 
L 241.193152 185.383215 
L 243.141469 183.792203 
L 245.674281 181.761883 
L 246.908215 180.694048 
L 248.207093 179.628762 
L 249.441027 178.540652 
L 249.765747 178.272449 
L 251.519232 176.779255 
L 252.038783 176.338545 
L 260.091826 169.352448 
L 261.32576 168.278248 
L 261.780368 167.897357 
L 270.093187 161.128351 
L 271.521952 159.96437 
L 275.028923 157.174382 
L 275.873194 156.509304 
L 277.172072 155.511694 
L 279.445108 153.50809 
L 281.003761 152.19657 
L 282.107808 151.23269 
L 292.563775 142.24503 
L 294.057485 140.918713 
L 295.486251 139.640518 
L 296.200634 138.953571 
L 298.148951 137.174025 
L 299.123109 136.343812 
L 299.772548 135.783385 
L 301.201314 134.504575 
L 301.98064 133.822456 
L 303.539294 132.478622 
L 308.47503 128.129498 
L 309.254357 127.436896 
L 311.787169 125.197901 
L 312.63144 124.441524 
L 314.514813 122.752711 
L 318.866054 118.630174 
L 319.775269 117.827979 
L 326.594378 111.708103 
L 327.308761 111.033675 
L 330.880675 107.804542 
L 332.63416 106.218169 
L 348.610359 92.738679 
L 351.467891 90.46605 
L 352.506993 89.635931 
L 353.026544 89.207605 
L 356.078907 86.737651 
L 356.728346 86.188025 
L 358.481832 84.783006 
L 360.105429 83.532818 
L 360.884756 82.924811 
L 361.469251 82.439736 
L 362.703185 81.518427 
L 363.677343 80.757198 
L 364.391726 80.202869 
L 367.11937 78.02734 
L 367.703865 77.547718 
L 369.652182 75.945394 
L 371.600499 74.444769 
L 373.28904 73.084371 
L 376.860955 70.273217 
L 378.159833 69.259209 
L 380.238037 67.670294 
L 380.95242 67.149785 
L 381.796691 66.464172 
L 387.381866 62.113492 
L 388.356025 61.35942 
L 391.473332 59.029797 
L 392.44749 58.271596 
L 394.200975 56.883438 
L 395.175134 56.189809 
L 396.409068 55.258006 
L 397.058507 54.769902 
L 398.422329 53.62958 
L 398.487273 53.568 
L 398.487273 53.568 
" clip-path="url(#p0b14e3be1b)" style="fill: none; stroke-dasharray: 2,3.3; stroke-dashoffset: 0; stroke: #0000ff; stroke-width: 2"/>
   </g>
   <g id="line2d_14">
    <path d="M 73.832727 291.164406 
L 73.897671 295.488 
L 73.962615 289.455954 
L 74.027559 292.627168 
L 74.157447 287.624419 
L 74.352278 293.524564 
L 74.417222 293.999926 
L 74.482166 291.539818 
L 74.54711 291.676352 
L 74.612054 292.112052 
L 74.741942 289.556184 
L 74.806886 290.895148 
L 74.87183 289.285244 
L 74.936774 290.644746 
L 75.131605 288.003976 
L 75.196549 289.013521 
L 75.326437 287.858227 
L 75.391381 287.875045 
L 75.521269 286.110955 
L 75.7161 284.28256 
L 75.910932 285.860776 
L 75.975876 287.21799 
L 76.04082 286.364338 
L 76.105764 286.436225 
L 76.560371 283.509763 
L 76.625315 284.232751 
L 76.690259 283.71444 
L 76.950034 282.050674 
L 77.014978 282.232079 
L 77.274754 279.755824 
L 77.404642 279.348265 
L 77.469586 279.702591 
L 77.924193 277.54298 
L 77.989137 277.324942 
L 78.119025 277.998271 
L 78.183968 277.812439 
L 78.3788 276.50334 
L 78.70352 277.170309 
L 78.833407 276.905746 
L 79.028239 275.079963 
L 79.158127 275.680617 
L 79.482846 273.025132 
L 79.54779 273.084648 
L 79.612734 272.908569 
L 79.742622 273.490815 
L 79.937454 272.340908 
L 80.002398 272.316599 
L 80.067341 272.433354 
L 80.132285 272.343801 
L 80.262173 271.503962 
L 80.327117 271.838152 
L 80.392061 271.844975 
L 80.457005 272.006118 
L 80.911612 270.692404 
L 81.0415 271.036407 
L 81.106444 271.022505 
L 81.366219 271.583401 
L 81.625995 271.900212 
L 81.820827 271.576433 
L 81.885771 271.275907 
L 81.950715 271.6681 
L 82.015658 271.591287 
L 82.080602 271.714008 
L 82.275434 271.394215 
L 82.470266 271.666398 
L 82.53521 271.736483 
L 82.794985 271.458746 
L 82.859929 271.541649 
L 83.054761 270.978994 
L 83.119705 271.097552 
L 83.184649 271.009463 
L 83.249592 270.89346 
L 83.314536 271.03511 
L 83.37948 270.934379 
L 83.444424 271.023565 
L 83.7042 270.112519 
L 83.769144 270.234473 
L 83.963975 269.761912 
L 84.028919 269.242902 
L 84.093863 269.340497 
L 84.158807 269.268048 
L 84.223751 269.413942 
L 84.483527 268.884449 
L 84.54847 268.929273 
L 84.743302 268.110808 
L 84.808246 268.298317 
L 84.87319 268.21592 
L 85.003078 268.144837 
L 85.068022 268.313905 
L 85.392741 267.14875 
L 85.587573 267.452953 
L 85.652517 267.458197 
L 86.04218 266.812621 
L 86.172068 267.144356 
L 86.237012 266.839456 
L 86.301956 266.980135 
L 86.431843 266.773631 
L 86.496787 266.827389 
L 86.756563 266.633932 
L 86.951395 266.863024 
L 87.016339 266.791285 
L 87.081282 266.873783 
L 87.146226 266.964618 
L 87.470946 266.248603 
L 87.53589 266.358547 
L 87.600834 266.191419 
L 87.665778 266.303074 
L 87.730721 266.466923 
L 87.795665 266.232485 
L 87.860609 266.251805 
L 88.120385 266.712651 
L 88.185329 266.72487 
L 88.250273 266.936097 
L 88.315216 266.845518 
L 88.38016 266.579698 
L 88.445104 266.718019 
L 88.639936 266.557991 
L 88.899712 267.126023 
L 89.029599 266.975135 
L 89.224431 267.238105 
L 89.289375 267.227215 
L 89.354319 267.436046 
L 89.419263 267.311663 
L 89.549151 266.978788 
L 89.679038 267.078446 
L 90.19859 267.034793 
L 90.263533 266.646105 
L 90.328477 266.714567 
L 90.523309 266.622048 
L 91.36758 266.877798 
L 91.497467 266.836557 
L 91.562411 266.993033 
L 91.627355 266.92434 
L 91.822187 266.872646 
L 92.081963 267.091002 
L 92.146906 267.012733 
L 92.276794 267.004936 
L 92.601514 266.774676 
L 92.666458 266.867453 
L 92.731402 266.753414 
L 92.796345 266.838303 
L 92.991177 266.879848 
L 93.186009 267.095015 
L 93.380841 266.801684 
L 93.575672 266.6703 
L 93.640616 266.648439 
L 93.70556 266.758196 
L 93.770504 266.60723 
L 93.835448 266.644166 
L 94.03028 266.704248 
L 94.160167 266.526528 
L 94.549831 266.925746 
L 94.809606 266.855124 
L 94.87455 266.962071 
L 94.939494 266.901102 
L 95.004438 266.908901 
L 95.069382 267.068992 
L 95.134326 266.971439 
L 95.329157 266.92359 
L 95.394101 267.04268 
L 95.459045 267.00576 
L 95.588933 266.952232 
L 95.718821 266.626654 
L 95.848709 266.603333 
L 95.913653 266.580518 
L 96.108484 266.862688 
L 96.887811 266.406989 
L 97.082643 266.566972 
L 97.147587 266.517516 
L 97.277474 266.608911 
L 97.342418 266.506499 
L 97.407362 266.572635 
L 97.732082 266.593821 
L 97.797026 266.717191 
L 97.926913 266.407177 
L 97.991857 266.447484 
L 98.121745 266.345963 
L 98.641296 266.051785 
L 98.966016 266.26435 
L 99.095904 266.146636 
L 99.225791 266.120413 
L 99.420623 265.940875 
L 99.485567 265.949574 
L 99.680399 265.778785 
L 99.940174 265.909757 
L 100.135006 265.816307 
L 100.329838 265.762373 
L 100.459725 265.78896 
L 100.784445 265.852751 
L 101.04422 265.704592 
L 101.433884 265.893781 
L 101.628716 265.891062 
L 101.888491 265.73924 
L 102.083323 265.778785 
L 102.213211 265.808923 
L 102.667818 265.778661 
L 102.86265 265.596899 
L 103.122425 265.610204 
L 103.252313 265.565103 
L 103.447145 265.590764 
L 103.641976 265.484352 
L 103.836808 265.632408 
L 103.966696 265.519535 
L 104.161528 265.703149 
L 104.356359 265.549178 
L 104.681079 265.470233 
L 105.20063 265.510244 
L 105.655237 265.259832 
L 105.785125 265.235654 
L 105.850069 265.058866 
L 105.915013 265.112343 
L 106.109845 265.146121 
L 106.304676 264.909653 
L 107.084003 265.294786 
L 107.278835 265.086622 
L 107.53861 265.294423 
L 107.668498 265.157612 
L 107.798386 265.256382 
L 108.252993 265.098711 
L 108.967376 265.220573 
L 109.162208 265.03466 
L 109.292096 264.999187 
L 109.551871 265.124642 
L 109.746703 265.120944 
L 110.006478 265.175774 
L 110.20131 265.045722 
L 110.590973 265.198722 
L 110.785805 265.284273 
L 110.915693 265.264386 
L 111.045581 265.333564 
L 111.175469 265.154808 
L 111.305356 265.188335 
L 111.630076 265.07254 
L 112.084683 264.999529 
L 112.214571 264.997404 
L 112.344459 265.027328 
L 112.53929 265.159509 
L 112.604234 265.187306 
L 112.86401 264.918317 
L 113.383561 264.973422 
L 113.578393 265.016986 
L 113.903112 264.946704 
L 114.033 264.932067 
L 114.097944 264.783066 
L 114.162888 264.816693 
L 114.35772 264.792035 
L 115.007159 264.908039 
L 115.591654 264.879499 
L 116.760644 264.755166 
L 116.955475 264.664801 
L 117.604914 264.525271 
L 117.929634 264.417056 
L 118.449185 264.301126 
L 118.579073 264.248375 
L 118.968736 264.241016 
L 119.163568 264.296096 
L 119.423344 264.342202 
L 119.683119 264.150805 
L 122.670538 263.245813 
L 122.86537 263.107359 
L 122.995258 263.07357 
L 123.19009 262.997774 
L 123.319977 262.980166 
L 123.449865 262.904989 
L 123.839529 262.832194 
L 124.099304 262.705329 
L 124.229192 262.725673 
L 125.268294 262.353428 
L 125.52807 262.473271 
L 127.671219 261.892767 
L 127.801106 261.907549 
L 128.385601 261.961039 
L 128.580433 261.953509 
L 128.775265 261.887511 
L 128.970097 261.864351 
L 129.229872 261.954493 
L 129.424704 261.778103 
L 129.749423 261.868357 
L 129.944255 261.779222 
L 130.268975 261.978665 
L 130.658638 262.025684 
L 131.308077 261.788227 
L 131.502909 261.79762 
L 131.827628 261.888115 
L 132.02246 261.870789 
L 132.152348 261.78801 
L 132.542011 261.737367 
L 132.86673 261.686727 
L 133.061562 261.684074 
L 133.256394 261.597045 
L 134.230552 261.403962 
L 134.36044 261.409167 
L 134.815047 261.31059 
L 135.334599 261.179909 
L 135.85415 261.045816 
L 136.243813 261.151398 
L 136.763364 261.004244 
L 137.217972 260.978492 
L 137.867411 260.83123 
L 138.451906 260.787944 
L 138.906513 260.688447 
L 140.465166 260.744158 
L 140.659998 260.708331 
L 141.504269 260.701893 
L 142.02382 260.692419 
L 142.283596 260.663744 
L 142.868091 260.633172 
L 143.582474 260.411284 
L 143.777305 260.427218 
L 144.231913 260.334962 
L 146.115286 260.27582 
L 146.440005 260.054815 
L 146.764725 260.132367 
L 148.648098 259.713809 
L 148.907873 259.716281 
L 149.297537 259.534203 
L 152.3499 259.240559 
L 152.479788 259.242476 
L 152.674619 259.167215 
L 152.999339 259.194101 
L 154.622936 259.000686 
L 155.142487 259.114811 
L 155.597095 258.994071 
L 155.791926 258.996528 
L 156.441365 259.111867 
L 157.935075 258.923168 
L 158.324738 258.971595 
L 158.584514 259.018285 
L 159.233953 259.097716 
L 159.428785 259.054698 
L 159.623616 259.1195 
L 164.234633 259.417073 
L 164.494409 259.40139 
L 164.819128 259.400927 
L 168.131267 259.29206 
L 168.326099 259.297318 
L 169.105425 259.263535 
L 169.365201 259.286916 
L 169.624977 259.252338 
L 170.599135 259.131886 
L 171.053742 259.116125 
L 172.157789 259.018965 
L 172.547452 258.966174 
L 172.807228 258.928879 
L 173.067003 258.874816 
L 173.651498 258.846734 
L 175.145208 258.781997 
L 175.404984 258.761166 
L 175.599815 258.76921 
L 176.18431 258.778933 
L 177.548132 258.708458 
L 178.262515 258.808051 
L 178.587235 258.743816 
L 180.860271 258.902171 
L 182.029261 258.896378 
L 182.353981 258.946305 
L 182.6787 258.970962 
L 183.133307 259.05598 
L 184.627017 259.144062 
L 184.886793 259.171383 
L 185.860951 259.177274 
L 186.120727 259.14414 
L 186.83511 259.20046 
L 188.263875 259.143014 
L 188.588595 259.121311 
L 188.978258 259.117495 
L 189.238034 259.107959 
L 189.692641 259.136932 
L 190.082304 259.086719 
L 190.536912 259.023233 
L 190.861631 258.957285 
L 191.186351 258.943144 
L 191.381182 258.937255 
L 191.576014 258.886052 
L 192.095565 258.932587 
L 193.134668 258.904809 
L 193.654219 258.952947 
L 194.238714 258.99827 
L 194.953097 258.905335 
L 195.472648 258.878472 
L 195.797367 258.81247 
L 196.966358 258.865672 
L 197.226133 258.855798 
L 197.680741 258.871876 
L 198.00546 258.826686 
L 198.849731 258.852815 
L 199.49917 258.809409 
L 203.136028 258.799135 
L 203.460747 258.75167 
L 204.434906 258.700499 
L 204.824569 258.676447 
L 205.538952 258.610995 
L 207.097606 258.528719 
L 207.487269 258.503569 
L 207.941876 258.477937 
L 208.201652 258.475323 
L 208.656259 258.555218 
L 209.305698 258.506739 
L 209.825249 258.468563 
L 210.149969 258.474502 
L 210.864352 258.50693 
L 211.254015 258.479764 
L 215.605256 258.585738 
L 215.929976 258.607183 
L 216.579415 258.604116 
L 221.709983 258.297678 
L 221.969758 258.274613 
L 222.619197 258.246715 
L 222.943917 258.165244 
L 223.203692 258.166349 
L 223.463468 258.076483 
L 230.412465 257.929731 
L 231.126848 257.876567 
L 231.776287 257.846078 
L 232.036062 257.831094 
L 233.010221 257.75218 
L 233.269997 257.720524 
L 233.854492 257.713718 
L 234.438987 257.673724 
L 238.530452 257.640749 
L 238.98506 257.654881 
L 239.569555 257.678565 
L 241.517872 257.67999 
L 241.842591 257.623506 
L 242.881693 257.66684 
L 251.259456 257.357705 
L 253.207773 257.375516 
L 254.506651 257.351382 
L 256.260136 257.35689 
L 259.3125 257.479147 
L 260.351602 257.503941 
L 260.676321 257.507393 
L 267.430487 257.706519 
L 268.079926 257.732986 
L 271.132289 257.62751 
L 271.846672 257.643999 
L 276.587576 257.350761 
L 277.366903 257.240242 
L 278.016342 257.230783 
L 278.406006 257.199559 
L 280.094547 257.144842 
L 281.588257 257.132309 
L 282.107808 257.117429 
L 282.562415 257.104278 
L 287.108488 257.267523 
L 287.952759 257.16459 
L 289.771188 257.043827 
L 290.875234 256.989031 
L 292.174112 256.971208 
L 292.693663 256.938892 
L 293.602878 256.915477 
L 294.382204 256.871775 
L 294.901756 256.871889 
L 295.551195 256.835599 
L 296.330521 256.876212 
L 299.252997 256.929229 
L 300.551875 257.007434 
L 302.045584 257.032059 
L 303.084687 257.040537 
L 315.359083 256.629825 
L 316.268298 256.565437 
L 317.3074 256.590742 
L 317.891895 256.543282 
L 318.80111 256.550366 
L 324.12651 256.715597 
L 324.711005 256.723171 
L 325.944939 256.766495 
L 326.724266 256.78352 
L 329.711685 256.917653 
L 337.95956 257.169398 
L 338.608999 257.14996 
L 339.388326 257.164896 
L 340.427428 257.150428 
L 341.271699 257.175308 
L 343.674623 257.082828 
L 344.583837 257.059072 
L 346.532154 257.039122 
L 347.246537 257.04385 
L 349.909237 256.972582 
L 351.402947 257.009677 
L 353.546095 257.015594 
L 354.000703 256.991863 
L 356.403627 257.009874 
L 357.312841 256.996424 
L 358.871495 257.000889 
L 359.520934 256.984299 
L 360.235317 256.968429 
L 360.689924 256.950972 
L 362.508353 256.883488 
L 363.157792 256.858786 
L 365.820492 256.914275 
L 366.729707 256.907671 
L 367.573977 256.947641 
L 375.886796 257.035947 
L 376.406347 257.030429 
L 377.835113 257.08494 
L 382.12141 257.119265 
L 398.487273 256.738831 
L 398.487273 256.738831 
" clip-path="url(#p0b14e3be1b)" style="fill: none; stroke-dasharray: 2,3.3; stroke-dashoffset: 0; stroke: #ffa500; stroke-width: 2"/>
   </g>
   <g id="patch_3">
    <path d="M 57.6 307.584 
L 57.6 41.472 
" style="fill: none; stroke: #000000; stroke-width: 0.8; stroke-linejoin: miter; stroke-linecap: square"/>
   </g>
   <g id="patch_4">
    <path d="M 414.72 307.584 
L 414.72 41.472 
" style="fill: none; stroke: #000000; stroke-width: 0.8; stroke-linejoin: miter; stroke-linecap: square"/>
   </g>
   <g id="patch_5">
    <path d="M 57.6 307.584 
L 414.72 307.584 
" style="fill: none; stroke: #000000; stroke-width: 0.8; stroke-linejoin: miter; stroke-linecap: square"/>
   </g>
   <g id="patch_6">
    <path d="M 57.6 41.472 
L 414.72 41.472 
" style="fill: none; stroke: #000000; stroke-width: 0.8; stroke-linejoin: miter; stroke-linecap: square"/>
   </g>
   <g id="text_15">
    <!-- Waiting Time Plot -->
    <g transform="translate(183.833438 8.2635)scale(0.12 -0.12)">
     <defs>
      <path id="DejaVuSans-50" d="M 1259 4147 
L 1259 2394 
L 2053 2394 
Q 2494 2394 2734 2622 
Q 2975 2850 2975 3272 
Q 2975 3691 2734 3919 
Q 2494 4147 2053 4147 
L 1259 4147 
z
M 628 4666 
L 2053 4666 
Q 2838 4666 3239 4311 
Q 3641 3956 3641 3272 
Q 3641 2581 3239 2228 
Q 2838 1875 2053 1875 
L 1259 1875 
L 1259 0 
L 628 0 
L 628 4666 
z
" transform="scale(0.015625)"/>
      <path id="DejaVuSans-6c" d="M 603 4863 
L 1178 4863 
L 1178 0 
L 603 0 
L 603 4863 
z
" transform="scale(0.015625)"/>
     </defs>
     <use xlink:href="#DejaVuSans-57"/>
     <use xlink:href="#DejaVuSans-61" x="92.501953"/>
     <use xlink:href="#DejaVuSans-69" x="153.78125"/>
     <use xlink:href="#DejaVuSans-74" x="181.564453"/>
     <use xlink:href="#DejaVuSans-69" x="220.773438"/>
     <use xlink:href="#DejaVuSans-6e" x="248.556641"/>
     <use xlink:href="#DejaVuSans-67" x="311.935547"/>
     <use xlink:href="#DejaVuSans-20" x="375.412109"/>
     <use xlink:href="#DejaVuSans-54" x="407.199219"/>
     <use xlink:href="#DejaVuSans-69" x="465.158203"/>
     <use xlink:href="#DejaVuSans-6d" x="492.941406"/>
     <use xlink:href="#DejaVuSans-65" x="590.353516"/>
     <use xlink:href="#DejaVuSans-20" x="651.876953"/>
     <use xlink:href="#DejaVuSans-50" x="683.664062"/>
     <use xlink:href="#DejaVuSans-6c" x="743.966797"/>
     <use xlink:href="#DejaVuSans-6f" x="771.75"/>
     <use xlink:href="#DejaVuSans-74" x="832.931641"/>
    </g>
    <!--  avg_d = 3303.329172324329  -->
    <g transform="translate(142.671562 21.700875)scale(0.12 -0.12)">
     <defs>
      <path id="DejaVuSans-76" d="M 191 3500 
L 800 3500 
L 1894 563 
L 2988 3500 
L 3597 3500 
L 2284 0 
L 1503 0 
L 191 3500 
z
" transform="scale(0.015625)"/>
      <path id="DejaVuSans-5f" d="M 3263 -1063 
L 3263 -1509 
L -63 -1509 
L -63 -1063 
L 3263 -1063 
z
" transform="scale(0.015625)"/>
      <path id="DejaVuSans-3d" d="M 678 2906 
L 4684 2906 
L 4684 2381 
L 678 2381 
L 678 2906 
z
M 678 1631 
L 4684 1631 
L 4684 1100 
L 678 1100 
L 678 1631 
z
" transform="scale(0.015625)"/>
      <path id="DejaVuSans-2e" d="M 684 794 
L 1344 794 
L 1344 0 
L 684 0 
L 684 794 
z
" transform="scale(0.015625)"/>
      <path id="DejaVuSans-39" d="M 703 97 
L 703 672 
Q 941 559 1184 500 
Q 1428 441 1663 441 
Q 2288 441 2617 861 
Q 2947 1281 2994 2138 
Q 2813 1869 2534 1725 
Q 2256 1581 1919 1581 
Q 1219 1581 811 2004 
Q 403 2428 403 3163 
Q 403 3881 828 4315 
Q 1253 4750 1959 4750 
Q 2769 4750 3195 4129 
Q 3622 3509 3622 2328 
Q 3622 1225 3098 567 
Q 2575 -91 1691 -91 
Q 1453 -91 1209 -44 
Q 966 3 703 97 
z
M 1959 2075 
Q 2384 2075 2632 2365 
Q 2881 2656 2881 3163 
Q 2881 3666 2632 3958 
Q 2384 4250 1959 4250 
Q 1534 4250 1286 3958 
Q 1038 3666 1038 3163 
Q 1038 2656 1286 2365 
Q 1534 2075 1959 2075 
z
" transform="scale(0.015625)"/>
      <path id="DejaVuSans-37" d="M 525 4666 
L 3525 4666 
L 3525 4397 
L 1831 0 
L 1172 0 
L 2766 4134 
L 525 4134 
L 525 4666 
z
" transform="scale(0.015625)"/>
     </defs>
     <use xlink:href="#DejaVuSans-20"/>
     <use xlink:href="#DejaVuSans-61" x="31.787109"/>
     <use xlink:href="#DejaVuSans-76" x="93.066406"/>
     <use xlink:href="#DejaVuSans-67" x="152.246094"/>
     <use xlink:href="#DejaVuSans-5f" x="215.722656"/>
     <use xlink:href="#DejaVuSans-64" x="265.722656"/>
     <use xlink:href="#DejaVuSans-20" x="329.199219"/>
     <use xlink:href="#DejaVuSans-3d" x="360.986328"/>
     <use xlink:href="#DejaVuSans-20" x="444.775391"/>
     <use xlink:href="#DejaVuSans-33" x="476.5625"/>
     <use xlink:href="#DejaVuSans-33" x="540.185547"/>
     <use xlink:href="#DejaVuSans-30" x="603.808594"/>
     <use xlink:href="#DejaVuSans-33" x="667.431641"/>
     <use xlink:href="#DejaVuSans-2e" x="731.054688"/>
     <use xlink:href="#DejaVuSans-33" x="762.841797"/>
     <use xlink:href="#DejaVuSans-32" x="826.464844"/>
     <use xlink:href="#DejaVuSans-39" x="890.087891"/>
     <use xlink:href="#DejaVuSans-31" x="953.710938"/>
     <use xlink:href="#DejaVuSans-37" x="1017.333984"/>
     <use xlink:href="#DejaVuSans-32" x="1080.957031"/>
     <use xlink:href="#DejaVuSans-33" x="1144.580078"/>
     <use xlink:href="#DejaVuSans-32" x="1208.203125"/>
     <use xlink:href="#DejaVuSans-34" x="1271.826172"/>
     <use xlink:href="#DejaVuSans-33" x="1335.449219"/>
     <use xlink:href="#DejaVuSans-32" x="1399.072266"/>
     <use xlink:href="#DejaVuSans-39" x="1462.695312"/>
     <use xlink:href="#DejaVuSans-20" x="1526.318359"/>
    </g>
    <!--  avg_a = 946.1324430421715diff = 2357.196729282158 -->
    <g transform="translate(63.181875 35.472)scale(0.12 -0.12)">
     <defs>
      <path id="DejaVuSans-36" d="M 2113 2584 
Q 1688 2584 1439 2293 
Q 1191 2003 1191 1497 
Q 1191 994 1439 701 
Q 1688 409 2113 409 
Q 2538 409 2786 701 
Q 3034 994 3034 1497 
Q 3034 2003 2786 2293 
Q 2538 2584 2113 2584 
z
M 3366 4563 
L 3366 3988 
Q 3128 4100 2886 4159 
Q 2644 4219 2406 4219 
Q 1781 4219 1451 3797 
Q 1122 3375 1075 2522 
Q 1259 2794 1537 2939 
Q 1816 3084 2150 3084 
Q 2853 3084 3261 2657 
Q 3669 2231 3669 1497 
Q 3669 778 3244 343 
Q 2819 -91 2113 -91 
Q 1303 -91 875 529 
Q 447 1150 447 2328 
Q 447 3434 972 4092 
Q 1497 4750 2381 4750 
Q 2619 4750 2861 4703 
Q 3103 4656 3366 4563 
z
" transform="scale(0.015625)"/>
      <path id="DejaVuSans-38" d="M 2034 2216 
Q 1584 2216 1326 1975 
Q 1069 1734 1069 1313 
Q 1069 891 1326 650 
Q 1584 409 2034 409 
Q 2484 409 2743 651 
Q 3003 894 3003 1313 
Q 3003 1734 2745 1975 
Q 2488 2216 2034 2216 
z
M 1403 2484 
Q 997 2584 770 2862 
Q 544 3141 544 3541 
Q 544 4100 942 4425 
Q 1341 4750 2034 4750 
Q 2731 4750 3128 4425 
Q 3525 4100 3525 3541 
Q 3525 3141 3298 2862 
Q 3072 2584 2669 2484 
Q 3125 2378 3379 2068 
Q 3634 1759 3634 1313 
Q 3634 634 3220 271 
Q 2806 -91 2034 -91 
Q 1263 -91 848 271 
Q 434 634 434 1313 
Q 434 1759 690 2068 
Q 947 2378 1403 2484 
z
M 1172 3481 
Q 1172 3119 1398 2916 
Q 1625 2713 2034 2713 
Q 2441 2713 2670 2916 
Q 2900 3119 2900 3481 
Q 2900 3844 2670 4047 
Q 2441 4250 2034 4250 
Q 1625 4250 1398 4047 
Q 1172 3844 1172 3481 
z
" transform="scale(0.015625)"/>
     </defs>
     <use xlink:href="#DejaVuSans-20"/>
     <use xlink:href="#DejaVuSans-61" x="31.787109"/>
     <use xlink:href="#DejaVuSans-76" x="93.066406"/>
     <use xlink:href="#DejaVuSans-67" x="152.246094"/>
     <use xlink:href="#DejaVuSans-5f" x="215.722656"/>
     <use xlink:href="#DejaVuSans-61" x="265.722656"/>
     <use xlink:href="#DejaVuSans-20" x="327.001953"/>
     <use xlink:href="#DejaVuSans-3d" x="358.789062"/>
     <use xlink:href="#DejaVuSans-20" x="442.578125"/>
     <use xlink:href="#DejaVuSans-39" x="474.365234"/>
     <use xlink:href="#DejaVuSans-34" x="537.988281"/>
     <use xlink:href="#DejaVuSans-36" x="601.611328"/>
     <use xlink:href="#DejaVuSans-2e" x="665.234375"/>
     <use xlink:href="#DejaVuSans-31" x="697.021484"/>
     <use xlink:href="#DejaVuSans-33" x="760.644531"/>
     <use xlink:href="#DejaVuSans-32" x="824.267578"/>
     <use xlink:href="#DejaVuSans-34" x="887.890625"/>
     <use xlink:href="#DejaVuSans-34" x="951.513672"/>
     <use xlink:href="#DejaVuSans-33" x="1015.136719"/>
     <use xlink:href="#DejaVuSans-30" x="1078.759766"/>
     <use xlink:href="#DejaVuSans-34" x="1142.382812"/>
     <use xlink:href="#DejaVuSans-32" x="1206.005859"/>
     <use xlink:href="#DejaVuSans-31" x="1269.628906"/>
     <use xlink:href="#DejaVuSans-37" x="1333.251953"/>
     <use xlink:href="#DejaVuSans-31" x="1396.875"/>
     <use xlink:href="#DejaVuSans-35" x="1460.498047"/>
     <use xlink:href="#DejaVuSans-64" x="1524.121094"/>
     <use xlink:href="#DejaVuSans-69" x="1587.597656"/>
     <use xlink:href="#DejaVuSans-66" x="1615.380859"/>
     <use xlink:href="#DejaVuSans-66" x="1650.585938"/>
     <use xlink:href="#DejaVuSans-20" x="1685.791016"/>
     <use xlink:href="#DejaVuSans-3d" x="1717.578125"/>
     <use xlink:href="#DejaVuSans-20" x="1801.367188"/>
     <use xlink:href="#DejaVuSans-32" x="1833.154297"/>
     <use xlink:href="#DejaVuSans-33" x="1896.777344"/>
     <use xlink:href="#DejaVuSans-35" x="1960.400391"/>
     <use xlink:href="#DejaVuSans-37" x="2024.023438"/>
     <use xlink:href="#DejaVuSans-2e" x="2087.646484"/>
     <use xlink:href="#DejaVuSans-31" x="2119.433594"/>
     <use xlink:href="#DejaVuSans-39" x="2183.056641"/>
     <use xlink:href="#DejaVuSans-36" x="2246.679688"/>
     <use xlink:href="#DejaVuSans-37" x="2310.302734"/>
     <use xlink:href="#DejaVuSans-32" x="2373.925781"/>
     <use xlink:href="#DejaVuSans-39" x="2437.548828"/>
     <use xlink:href="#DejaVuSans-32" x="2501.171875"/>
     <use xlink:href="#DejaVuSans-38" x="2564.794922"/>
     <use xlink:href="#DejaVuSans-32" x="2628.417969"/>
     <use xlink:href="#DejaVuSans-31" x="2692.041016"/>
     <use xlink:href="#DejaVuSans-35" x="2755.664062"/>
     <use xlink:href="#DejaVuSans-38" x="2819.287109"/>
    </g>
   </g>
   <g id="legend_1">
    <g id="patch_7">
     <path d="M 64.6 78.82825 
L 208.43125 78.82825 
Q 210.43125 78.82825 210.43125 76.82825 
L 210.43125 48.472 
Q 210.43125 46.472 208.43125 46.472 
L 64.6 46.472 
Q 62.6 46.472 62.6 48.472 
L 62.6 76.82825 
Q 62.6 78.82825 64.6 78.82825 
z
" style="fill: #ffffff; opacity: 0.8; stroke: #cccccc; stroke-linejoin: miter"/>
    </g>
    <g id="line2d_15">
     <path d="M 66.6 54.570437 
L 76.6 54.570437 
L 86.6 54.570437 
" style="fill: none; stroke-dasharray: 2,3.3; stroke-dashoffset: 0; stroke: #0000ff; stroke-width: 2"/>
    </g>
    <g id="text_16">
     <!-- Average (Default) -->
     <g transform="translate(94.6 58.070437)scale(0.1 -0.1)">
      <defs>
       <path id="DejaVuSans-41" d="M 2188 4044 
L 1331 1722 
L 3047 1722 
L 2188 4044 
z
M 1831 4666 
L 2547 4666 
L 4325 0 
L 3669 0 
L 3244 1197 
L 1141 1197 
L 716 0 
L 50 0 
L 1831 4666 
z
" transform="scale(0.015625)"/>
       <path id="DejaVuSans-28" d="M 1984 4856 
Q 1566 4138 1362 3434 
Q 1159 2731 1159 2009 
Q 1159 1288 1364 580 
Q 1569 -128 1984 -844 
L 1484 -844 
Q 1016 -109 783 600 
Q 550 1309 550 2009 
Q 550 2706 781 3412 
Q 1013 4119 1484 4856 
L 1984 4856 
z
" transform="scale(0.015625)"/>
       <path id="DejaVuSans-44" d="M 1259 4147 
L 1259 519 
L 2022 519 
Q 2988 519 3436 956 
Q 3884 1394 3884 2338 
Q 3884 3275 3436 3711 
Q 2988 4147 2022 4147 
L 1259 4147 
z
M 628 4666 
L 1925 4666 
Q 3281 4666 3915 4102 
Q 4550 3538 4550 2338 
Q 4550 1131 3912 565 
Q 3275 0 1925 0 
L 628 0 
L 628 4666 
z
" transform="scale(0.015625)"/>
       <path id="DejaVuSans-29" d="M 513 4856 
L 1013 4856 
Q 1481 4119 1714 3412 
Q 1947 2706 1947 2009 
Q 1947 1309 1714 600 
Q 1481 -109 1013 -844 
L 513 -844 
Q 928 -128 1133 580 
Q 1338 1288 1338 2009 
Q 1338 2731 1133 3434 
Q 928 4138 513 4856 
z
" transform="scale(0.015625)"/>
      </defs>
      <use xlink:href="#DejaVuSans-41"/>
      <use xlink:href="#DejaVuSans-76" x="62.533203"/>
      <use xlink:href="#DejaVuSans-65" x="121.712891"/>
      <use xlink:href="#DejaVuSans-72" x="183.236328"/>
      <use xlink:href="#DejaVuSans-61" x="224.349609"/>
      <use xlink:href="#DejaVuSans-67" x="285.628906"/>
      <use xlink:href="#DejaVuSans-65" x="349.105469"/>
      <use xlink:href="#DejaVuSans-20" x="410.628906"/>
      <use xlink:href="#DejaVuSans-28" x="442.416016"/>
      <use xlink:href="#DejaVuSans-44" x="481.429688"/>
      <use xlink:href="#DejaVuSans-65" x="558.431641"/>
      <use xlink:href="#DejaVuSans-66" x="619.955078"/>
      <use xlink:href="#DejaVuSans-61" x="655.160156"/>
      <use xlink:href="#DejaVuSans-75" x="716.439453"/>
      <use xlink:href="#DejaVuSans-6c" x="779.818359"/>
      <use xlink:href="#DejaVuSans-74" x="807.601562"/>
      <use xlink:href="#DejaVuSans-29" x="846.810547"/>
     </g>
    </g>
    <g id="line2d_16">
     <path d="M 66.6 69.248562 
L 76.6 69.248562 
L 86.6 69.248562 
" style="fill: none; stroke-dasharray: 2,3.3; stroke-dashoffset: 0; stroke: #ffa500; stroke-width: 2"/>
    </g>
    <g id="text_17">
     <!-- Average (Anticipation) -->
     <g transform="translate(94.6 72.748562)scale(0.1 -0.1)">
      <defs>
       <path id="DejaVuSans-63" d="M 3122 3366 
L 3122 2828 
Q 2878 2963 2633 3030 
Q 2388 3097 2138 3097 
Q 1578 3097 1268 2742 
Q 959 2388 959 1747 
Q 959 1106 1268 751 
Q 1578 397 2138 397 
Q 2388 397 2633 464 
Q 2878 531 3122 666 
L 3122 134 
Q 2881 22 2623 -34 
Q 2366 -91 2075 -91 
Q 1284 -91 818 406 
Q 353 903 353 1747 
Q 353 2603 823 3093 
Q 1294 3584 2113 3584 
Q 2378 3584 2631 3529 
Q 2884 3475 3122 3366 
z
" transform="scale(0.015625)"/>
       <path id="DejaVuSans-70" d="M 1159 525 
L 1159 -1331 
L 581 -1331 
L 581 3500 
L 1159 3500 
L 1159 2969 
Q 1341 3281 1617 3432 
Q 1894 3584 2278 3584 
Q 2916 3584 3314 3078 
Q 3713 2572 3713 1747 
Q 3713 922 3314 415 
Q 2916 -91 2278 -91 
Q 1894 -91 1617 61 
Q 1341 213 1159 525 
z
M 3116 1747 
Q 3116 2381 2855 2742 
Q 2594 3103 2138 3103 
Q 1681 3103 1420 2742 
Q 1159 2381 1159 1747 
Q 1159 1113 1420 752 
Q 1681 391 2138 391 
Q 2594 391 2855 752 
Q 3116 1113 3116 1747 
z
" transform="scale(0.015625)"/>
      </defs>
      <use xlink:href="#DejaVuSans-41"/>
      <use xlink:href="#DejaVuSans-76" x="62.533203"/>
      <use xlink:href="#DejaVuSans-65" x="121.712891"/>
      <use xlink:href="#DejaVuSans-72" x="183.236328"/>
      <use xlink:href="#DejaVuSans-61" x="224.349609"/>
      <use xlink:href="#DejaVuSans-67" x="285.628906"/>
      <use xlink:href="#DejaVuSans-65" x="349.105469"/>
      <use xlink:href="#DejaVuSans-20" x="410.628906"/>
      <use xlink:href="#DejaVuSans-28" x="442.416016"/>
      <use xlink:href="#DejaVuSans-41" x="481.429688"/>
      <use xlink:href="#DejaVuSans-6e" x="549.837891"/>
      <use xlink:href="#DejaVuSans-74" x="613.216797"/>
      <use xlink:href="#DejaVuSans-69" x="652.425781"/>
      <use xlink:href="#DejaVuSans-63" x="680.208984"/>
      <use xlink:href="#DejaVuSans-69" x="735.189453"/>
      <use xlink:href="#DejaVuSans-70" x="762.972656"/>
      <use xlink:href="#DejaVuSans-61" x="826.449219"/>
      <use xlink:href="#DejaVuSans-74" x="887.728516"/>
      <use xlink:href="#DejaVuSans-69" x="926.9375"/>
      <use xlink:href="#DejaVuSans-6f" x="954.720703"/>
      <use xlink:href="#DejaVuSans-6e" x="1015.902344"/>
      <use xlink:href="#DejaVuSans-29" x="1079.28125"/>
     </g>
    </g>
   </g>
  </g>
 </g>
 <defs>
  <clipPath id="p0b14e3be1b">
   <rect x="57.6" y="41.472" width="357.12" height="266.112"/>
  </clipPath>
 </defs>
</svg>
