<?xml version="1.0" encoding="utf-8" standalone="no"?>
<!DOCTYPE svg PUBLIC "-//W3C//DTD SVG 1.1//EN"
  "http://www.w3.org/Graphics/SVG/1.1/DTD/svg11.dtd">
<svg xmlns:xlink="http://www.w3.org/1999/xlink" width="460.8pt" height="345.6pt" viewBox="0 0 460.8 345.6" xmlns="http://www.w3.org/2000/svg" version="1.1">
 <metadata>
  <rdf:RDF xmlns:dc="http://purl.org/dc/elements/1.1/" xmlns:cc="http://creativecommons.org/ns#" xmlns:rdf="http://www.w3.org/1999/02/22-rdf-syntax-ns#">
   <cc:Work>
    <dc:type rdf:resource="http://purl.org/dc/dcmitype/StillImage"/>
    <dc:date>2022-10-10T12:22:25.257670</dc:date>
    <dc:format>image/svg+xml</dc:format>
    <dc:creator>
     <cc:Agent>
      <dc:title>Matplotlib v3.5.3, https://matplotlib.org/</dc:title>
     </cc:Agent>
    </dc:creator>
   </cc:Work>
  </rdf:RDF>
 </metadata>
 <defs>
  <style type="text/css">*{stroke-linejoin: round; stroke-linecap: butt}</style>
 </defs>
 <g id="figure_1">
  <g id="patch_1">
   <path d="M 0 345.6 
L 460.8 345.6 
L 460.8 0 
L 0 0 
z
" style="fill: #ffffff"/>
  </g>
  <g id="axes_1">
   <g id="patch_2">
    <path d="M 57.6 307.584 
L 414.72 307.584 
L 414.72 41.472 
L 57.6 41.472 
z
" style="fill: #ffffff"/>
   </g>
   <g id="matplotlib.axis_1">
    <g id="xtick_1">
     <g id="line2d_1">
      <defs>
       <path id="m3fa232a8fb" d="M 0 0 
L 0 3.5 
" style="stroke: #000000; stroke-width: 0.8"/>
      </defs>
      <g>
       <use xlink:href="#m3fa232a8fb" x="73.832727" y="307.584" style="stroke: #000000; stroke-width: 0.8"/>
      </g>
     </g>
     <g id="text_1">
      <!-- 0 -->
      <g transform="translate(70.651477 322.182437)scale(0.1 -0.1)">
       <defs>
        <path id="DejaVuSans-30" d="M 2034 4250 
Q 1547 4250 1301 3770 
Q 1056 3291 1056 2328 
Q 1056 1369 1301 889 
Q 1547 409 2034 409 
Q 2525 409 2770 889 
Q 3016 1369 3016 2328 
Q 3016 3291 2770 3770 
Q 2525 4250 2034 4250 
z
M 2034 4750 
Q 2819 4750 3233 4129 
Q 3647 3509 3647 2328 
Q 3647 1150 3233 529 
Q 2819 -91 2034 -91 
Q 1250 -91 836 529 
Q 422 1150 422 2328 
Q 422 3509 836 4129 
Q 1250 4750 2034 4750 
z
" transform="scale(0.015625)"/>
       </defs>
       <use xlink:href="#DejaVuSans-30"/>
      </g>
     </g>
    </g>
    <g id="xtick_2">
     <g id="line2d_2">
      <g>
       <use xlink:href="#m3fa232a8fb" x="138.776625" y="307.584" style="stroke: #000000; stroke-width: 0.8"/>
      </g>
     </g>
     <g id="text_2">
      <!-- 1000 -->
      <g transform="translate(126.051625 322.182437)scale(0.1 -0.1)">
       <defs>
        <path id="DejaVuSans-31" d="M 794 531 
L 1825 531 
L 1825 4091 
L 703 3866 
L 703 4441 
L 1819 4666 
L 2450 4666 
L 2450 531 
L 3481 531 
L 3481 0 
L 794 0 
L 794 531 
z
" transform="scale(0.015625)"/>
       </defs>
       <use xlink:href="#DejaVuSans-31"/>
       <use xlink:href="#DejaVuSans-30" x="63.623047"/>
       <use xlink:href="#DejaVuSans-30" x="127.246094"/>
       <use xlink:href="#DejaVuSans-30" x="190.869141"/>
      </g>
     </g>
    </g>
    <g id="xtick_3">
     <g id="line2d_3">
      <g>
       <use xlink:href="#m3fa232a8fb" x="203.720523" y="307.584" style="stroke: #000000; stroke-width: 0.8"/>
      </g>
     </g>
     <g id="text_3">
      <!-- 2000 -->
      <g transform="translate(190.995523 322.182437)scale(0.1 -0.1)">
       <defs>
        <path id="DejaVuSans-32" d="M 1228 531 
L 3431 531 
L 3431 0 
L 469 0 
L 469 531 
Q 828 903 1448 1529 
Q 2069 2156 2228 2338 
Q 2531 2678 2651 2914 
Q 2772 3150 2772 3378 
Q 2772 3750 2511 3984 
Q 2250 4219 1831 4219 
Q 1534 4219 1204 4116 
Q 875 4013 500 3803 
L 500 4441 
Q 881 4594 1212 4672 
Q 1544 4750 1819 4750 
Q 2544 4750 2975 4387 
Q 3406 4025 3406 3419 
Q 3406 3131 3298 2873 
Q 3191 2616 2906 2266 
Q 2828 2175 2409 1742 
Q 1991 1309 1228 531 
z
" transform="scale(0.015625)"/>
       </defs>
       <use xlink:href="#DejaVuSans-32"/>
       <use xlink:href="#DejaVuSans-30" x="63.623047"/>
       <use xlink:href="#DejaVuSans-30" x="127.246094"/>
       <use xlink:href="#DejaVuSans-30" x="190.869141"/>
      </g>
     </g>
    </g>
    <g id="xtick_4">
     <g id="line2d_4">
      <g>
       <use xlink:href="#m3fa232a8fb" x="268.664421" y="307.584" style="stroke: #000000; stroke-width: 0.8"/>
      </g>
     </g>
     <g id="text_4">
      <!-- 3000 -->
      <g transform="translate(255.939421 322.182437)scale(0.1 -0.1)">
       <defs>
        <path id="DejaVuSans-33" d="M 2597 2516 
Q 3050 2419 3304 2112 
Q 3559 1806 3559 1356 
Q 3559 666 3084 287 
Q 2609 -91 1734 -91 
Q 1441 -91 1130 -33 
Q 819 25 488 141 
L 488 750 
Q 750 597 1062 519 
Q 1375 441 1716 441 
Q 2309 441 2620 675 
Q 2931 909 2931 1356 
Q 2931 1769 2642 2001 
Q 2353 2234 1838 2234 
L 1294 2234 
L 1294 2753 
L 1863 2753 
Q 2328 2753 2575 2939 
Q 2822 3125 2822 3475 
Q 2822 3834 2567 4026 
Q 2313 4219 1838 4219 
Q 1578 4219 1281 4162 
Q 984 4106 628 3988 
L 628 4550 
Q 988 4650 1302 4700 
Q 1616 4750 1894 4750 
Q 2613 4750 3031 4423 
Q 3450 4097 3450 3541 
Q 3450 3153 3228 2886 
Q 3006 2619 2597 2516 
z
" transform="scale(0.015625)"/>
       </defs>
       <use xlink:href="#DejaVuSans-33"/>
       <use xlink:href="#DejaVuSans-30" x="63.623047"/>
       <use xlink:href="#DejaVuSans-30" x="127.246094"/>
       <use xlink:href="#DejaVuSans-30" x="190.869141"/>
      </g>
     </g>
    </g>
    <g id="xtick_5">
     <g id="line2d_5">
      <g>
       <use xlink:href="#m3fa232a8fb" x="333.608319" y="307.584" style="stroke: #000000; stroke-width: 0.8"/>
      </g>
     </g>
     <g id="text_5">
      <!-- 4000 -->
      <g transform="translate(320.883319 322.182437)scale(0.1 -0.1)">
       <defs>
        <path id="DejaVuSans-34" d="M 2419 4116 
L 825 1625 
L 2419 1625 
L 2419 4116 
z
M 2253 4666 
L 3047 4666 
L 3047 1625 
L 3713 1625 
L 3713 1100 
L 3047 1100 
L 3047 0 
L 2419 0 
L 2419 1100 
L 313 1100 
L 313 1709 
L 2253 4666 
z
" transform="scale(0.015625)"/>
       </defs>
       <use xlink:href="#DejaVuSans-34"/>
       <use xlink:href="#DejaVuSans-30" x="63.623047"/>
       <use xlink:href="#DejaVuSans-30" x="127.246094"/>
       <use xlink:href="#DejaVuSans-30" x="190.869141"/>
      </g>
     </g>
    </g>
    <g id="xtick_6">
     <g id="line2d_6">
      <g>
       <use xlink:href="#m3fa232a8fb" x="398.552217" y="307.584" style="stroke: #000000; stroke-width: 0.8"/>
      </g>
     </g>
     <g id="text_6">
      <!-- 5000 -->
      <g transform="translate(385.827217 322.182437)scale(0.1 -0.1)">
       <defs>
        <path id="DejaVuSans-35" d="M 691 4666 
L 3169 4666 
L 3169 4134 
L 1269 4134 
L 1269 2991 
Q 1406 3038 1543 3061 
Q 1681 3084 1819 3084 
Q 2600 3084 3056 2656 
Q 3513 2228 3513 1497 
Q 3513 744 3044 326 
Q 2575 -91 1722 -91 
Q 1428 -91 1123 -41 
Q 819 9 494 109 
L 494 744 
Q 775 591 1075 516 
Q 1375 441 1709 441 
Q 2250 441 2565 725 
Q 2881 1009 2881 1497 
Q 2881 1984 2565 2268 
Q 2250 2553 1709 2553 
Q 1456 2553 1204 2497 
Q 953 2441 691 2322 
L 691 4666 
z
" transform="scale(0.015625)"/>
       </defs>
       <use xlink:href="#DejaVuSans-35"/>
       <use xlink:href="#DejaVuSans-30" x="63.623047"/>
       <use xlink:href="#DejaVuSans-30" x="127.246094"/>
       <use xlink:href="#DejaVuSans-30" x="190.869141"/>
      </g>
     </g>
    </g>
    <g id="text_7">
     <!-- Number of Orders -->
     <g transform="translate(191.261562 335.860562)scale(0.1 -0.1)">
      <defs>
       <path id="DejaVuSans-4e" d="M 628 4666 
L 1478 4666 
L 3547 763 
L 3547 4666 
L 4159 4666 
L 4159 0 
L 3309 0 
L 1241 3903 
L 1241 0 
L 628 0 
L 628 4666 
z
" transform="scale(0.015625)"/>
       <path id="DejaVuSans-75" d="M 544 1381 
L 544 3500 
L 1119 3500 
L 1119 1403 
Q 1119 906 1312 657 
Q 1506 409 1894 409 
Q 2359 409 2629 706 
Q 2900 1003 2900 1516 
L 2900 3500 
L 3475 3500 
L 3475 0 
L 2900 0 
L 2900 538 
Q 2691 219 2414 64 
Q 2138 -91 1772 -91 
Q 1169 -91 856 284 
Q 544 659 544 1381 
z
M 1991 3584 
L 1991 3584 
z
" transform="scale(0.015625)"/>
       <path id="DejaVuSans-6d" d="M 3328 2828 
Q 3544 3216 3844 3400 
Q 4144 3584 4550 3584 
Q 5097 3584 5394 3201 
Q 5691 2819 5691 2113 
L 5691 0 
L 5113 0 
L 5113 2094 
Q 5113 2597 4934 2840 
Q 4756 3084 4391 3084 
Q 3944 3084 3684 2787 
Q 3425 2491 3425 1978 
L 3425 0 
L 2847 0 
L 2847 2094 
Q 2847 2600 2669 2842 
Q 2491 3084 2119 3084 
Q 1678 3084 1418 2786 
Q 1159 2488 1159 1978 
L 1159 0 
L 581 0 
L 581 3500 
L 1159 3500 
L 1159 2956 
Q 1356 3278 1631 3431 
Q 1906 3584 2284 3584 
Q 2666 3584 2933 3390 
Q 3200 3197 3328 2828 
z
" transform="scale(0.015625)"/>
       <path id="DejaVuSans-62" d="M 3116 1747 
Q 3116 2381 2855 2742 
Q 2594 3103 2138 3103 
Q 1681 3103 1420 2742 
Q 1159 2381 1159 1747 
Q 1159 1113 1420 752 
Q 1681 391 2138 391 
Q 2594 391 2855 752 
Q 3116 1113 3116 1747 
z
M 1159 2969 
Q 1341 3281 1617 3432 
Q 1894 3584 2278 3584 
Q 2916 3584 3314 3078 
Q 3713 2572 3713 1747 
Q 3713 922 3314 415 
Q 2916 -91 2278 -91 
Q 1894 -91 1617 61 
Q 1341 213 1159 525 
L 1159 0 
L 581 0 
L 581 4863 
L 1159 4863 
L 1159 2969 
z
" transform="scale(0.015625)"/>
       <path id="DejaVuSans-65" d="M 3597 1894 
L 3597 1613 
L 953 1613 
Q 991 1019 1311 708 
Q 1631 397 2203 397 
Q 2534 397 2845 478 
Q 3156 559 3463 722 
L 3463 178 
Q 3153 47 2828 -22 
Q 2503 -91 2169 -91 
Q 1331 -91 842 396 
Q 353 884 353 1716 
Q 353 2575 817 3079 
Q 1281 3584 2069 3584 
Q 2775 3584 3186 3129 
Q 3597 2675 3597 1894 
z
M 3022 2063 
Q 3016 2534 2758 2815 
Q 2500 3097 2075 3097 
Q 1594 3097 1305 2825 
Q 1016 2553 972 2059 
L 3022 2063 
z
" transform="scale(0.015625)"/>
       <path id="DejaVuSans-72" d="M 2631 2963 
Q 2534 3019 2420 3045 
Q 2306 3072 2169 3072 
Q 1681 3072 1420 2755 
Q 1159 2438 1159 1844 
L 1159 0 
L 581 0 
L 581 3500 
L 1159 3500 
L 1159 2956 
Q 1341 3275 1631 3429 
Q 1922 3584 2338 3584 
Q 2397 3584 2469 3576 
Q 2541 3569 2628 3553 
L 2631 2963 
z
" transform="scale(0.015625)"/>
       <path id="DejaVuSans-20" transform="scale(0.015625)"/>
       <path id="DejaVuSans-6f" d="M 1959 3097 
Q 1497 3097 1228 2736 
Q 959 2375 959 1747 
Q 959 1119 1226 758 
Q 1494 397 1959 397 
Q 2419 397 2687 759 
Q 2956 1122 2956 1747 
Q 2956 2369 2687 2733 
Q 2419 3097 1959 3097 
z
M 1959 3584 
Q 2709 3584 3137 3096 
Q 3566 2609 3566 1747 
Q 3566 888 3137 398 
Q 2709 -91 1959 -91 
Q 1206 -91 779 398 
Q 353 888 353 1747 
Q 353 2609 779 3096 
Q 1206 3584 1959 3584 
z
" transform="scale(0.015625)"/>
       <path id="DejaVuSans-66" d="M 2375 4863 
L 2375 4384 
L 1825 4384 
Q 1516 4384 1395 4259 
Q 1275 4134 1275 3809 
L 1275 3500 
L 2222 3500 
L 2222 3053 
L 1275 3053 
L 1275 0 
L 697 0 
L 697 3053 
L 147 3053 
L 147 3500 
L 697 3500 
L 697 3744 
Q 697 4328 969 4595 
Q 1241 4863 1831 4863 
L 2375 4863 
z
" transform="scale(0.015625)"/>
       <path id="DejaVuSans-4f" d="M 2522 4238 
Q 1834 4238 1429 3725 
Q 1025 3213 1025 2328 
Q 1025 1447 1429 934 
Q 1834 422 2522 422 
Q 3209 422 3611 934 
Q 4013 1447 4013 2328 
Q 4013 3213 3611 3725 
Q 3209 4238 2522 4238 
z
M 2522 4750 
Q 3503 4750 4090 4092 
Q 4678 3434 4678 2328 
Q 4678 1225 4090 567 
Q 3503 -91 2522 -91 
Q 1538 -91 948 565 
Q 359 1222 359 2328 
Q 359 3434 948 4092 
Q 1538 4750 2522 4750 
z
" transform="scale(0.015625)"/>
       <path id="DejaVuSans-64" d="M 2906 2969 
L 2906 4863 
L 3481 4863 
L 3481 0 
L 2906 0 
L 2906 525 
Q 2725 213 2448 61 
Q 2172 -91 1784 -91 
Q 1150 -91 751 415 
Q 353 922 353 1747 
Q 353 2572 751 3078 
Q 1150 3584 1784 3584 
Q 2172 3584 2448 3432 
Q 2725 3281 2906 2969 
z
M 947 1747 
Q 947 1113 1208 752 
Q 1469 391 1925 391 
Q 2381 391 2643 752 
Q 2906 1113 2906 1747 
Q 2906 2381 2643 2742 
Q 2381 3103 1925 3103 
Q 1469 3103 1208 2742 
Q 947 2381 947 1747 
z
" transform="scale(0.015625)"/>
       <path id="DejaVuSans-73" d="M 2834 3397 
L 2834 2853 
Q 2591 2978 2328 3040 
Q 2066 3103 1784 3103 
Q 1356 3103 1142 2972 
Q 928 2841 928 2578 
Q 928 2378 1081 2264 
Q 1234 2150 1697 2047 
L 1894 2003 
Q 2506 1872 2764 1633 
Q 3022 1394 3022 966 
Q 3022 478 2636 193 
Q 2250 -91 1575 -91 
Q 1294 -91 989 -36 
Q 684 19 347 128 
L 347 722 
Q 666 556 975 473 
Q 1284 391 1588 391 
Q 1994 391 2212 530 
Q 2431 669 2431 922 
Q 2431 1156 2273 1281 
Q 2116 1406 1581 1522 
L 1381 1569 
Q 847 1681 609 1914 
Q 372 2147 372 2553 
Q 372 3047 722 3315 
Q 1072 3584 1716 3584 
Q 2034 3584 2315 3537 
Q 2597 3491 2834 3397 
z
" transform="scale(0.015625)"/>
      </defs>
      <use xlink:href="#DejaVuSans-4e"/>
      <use xlink:href="#DejaVuSans-75" x="74.804688"/>
      <use xlink:href="#DejaVuSans-6d" x="138.183594"/>
      <use xlink:href="#DejaVuSans-62" x="235.595703"/>
      <use xlink:href="#DejaVuSans-65" x="299.072266"/>
      <use xlink:href="#DejaVuSans-72" x="360.595703"/>
      <use xlink:href="#DejaVuSans-20" x="401.708984"/>
      <use xlink:href="#DejaVuSans-6f" x="433.496094"/>
      <use xlink:href="#DejaVuSans-66" x="494.677734"/>
      <use xlink:href="#DejaVuSans-20" x="529.882812"/>
      <use xlink:href="#DejaVuSans-4f" x="561.669922"/>
      <use xlink:href="#DejaVuSans-72" x="640.380859"/>
      <use xlink:href="#DejaVuSans-64" x="679.744141"/>
      <use xlink:href="#DejaVuSans-65" x="743.220703"/>
      <use xlink:href="#DejaVuSans-72" x="804.744141"/>
      <use xlink:href="#DejaVuSans-73" x="845.857422"/>
     </g>
    </g>
   </g>
   <g id="matplotlib.axis_2">
    <g id="ytick_1">
     <g id="line2d_7">
      <defs>
       <path id="m40936e7fc5" d="M 0 0 
L -3.5 0 
" style="stroke: #000000; stroke-width: 0.8"/>
      </defs>
      <g>
       <use xlink:href="#m40936e7fc5" x="57.6" y="265.664231" style="stroke: #000000; stroke-width: 0.8"/>
      </g>
     </g>
     <g id="text_8">
      <!-- 500 -->
      <g transform="translate(31.5125 269.46345)scale(0.1 -0.1)">
       <use xlink:href="#DejaVuSans-35"/>
       <use xlink:href="#DejaVuSans-30" x="63.623047"/>
       <use xlink:href="#DejaVuSans-30" x="127.246094"/>
      </g>
     </g>
    </g>
    <g id="ytick_2">
     <g id="line2d_8">
      <g>
       <use xlink:href="#m40936e7fc5" x="57.6" y="219.892636" style="stroke: #000000; stroke-width: 0.8"/>
      </g>
     </g>
     <g id="text_9">
      <!-- 1000 -->
      <g transform="translate(25.15 223.691855)scale(0.1 -0.1)">
       <use xlink:href="#DejaVuSans-31"/>
       <use xlink:href="#DejaVuSans-30" x="63.623047"/>
       <use xlink:href="#DejaVuSans-30" x="127.246094"/>
       <use xlink:href="#DejaVuSans-30" x="190.869141"/>
      </g>
     </g>
    </g>
    <g id="ytick_3">
     <g id="line2d_9">
      <g>
       <use xlink:href="#m40936e7fc5" x="57.6" y="174.121042" style="stroke: #000000; stroke-width: 0.8"/>
      </g>
     </g>
     <g id="text_10">
      <!-- 1500 -->
      <g transform="translate(25.15 177.920261)scale(0.1 -0.1)">
       <use xlink:href="#DejaVuSans-31"/>
       <use xlink:href="#DejaVuSans-35" x="63.623047"/>
       <use xlink:href="#DejaVuSans-30" x="127.246094"/>
       <use xlink:href="#DejaVuSans-30" x="190.869141"/>
      </g>
     </g>
    </g>
    <g id="ytick_4">
     <g id="line2d_10">
      <g>
       <use xlink:href="#m40936e7fc5" x="57.6" y="128.349447" style="stroke: #000000; stroke-width: 0.8"/>
      </g>
     </g>
     <g id="text_11">
      <!-- 2000 -->
      <g transform="translate(25.15 132.148666)scale(0.1 -0.1)">
       <use xlink:href="#DejaVuSans-32"/>
       <use xlink:href="#DejaVuSans-30" x="63.623047"/>
       <use xlink:href="#DejaVuSans-30" x="127.246094"/>
       <use xlink:href="#DejaVuSans-30" x="190.869141"/>
      </g>
     </g>
    </g>
    <g id="ytick_5">
     <g id="line2d_11">
      <g>
       <use xlink:href="#m40936e7fc5" x="57.6" y="82.577853" style="stroke: #000000; stroke-width: 0.8"/>
      </g>
     </g>
     <g id="text_12">
      <!-- 2500 -->
      <g transform="translate(25.15 86.377072)scale(0.1 -0.1)">
       <use xlink:href="#DejaVuSans-32"/>
       <use xlink:href="#DejaVuSans-35" x="63.623047"/>
       <use xlink:href="#DejaVuSans-30" x="127.246094"/>
       <use xlink:href="#DejaVuSans-30" x="190.869141"/>
      </g>
     </g>
    </g>
    <g id="text_13">
     <!-- Waiting Time/s -->
     <g transform="translate(19.070312 211.410031)rotate(-90)scale(0.1 -0.1)">
      <defs>
       <path id="DejaVuSans-57" d="M 213 4666 
L 850 4666 
L 1831 722 
L 2809 4666 
L 3519 4666 
L 4500 722 
L 5478 4666 
L 6119 4666 
L 4947 0 
L 4153 0 
L 3169 4050 
L 2175 0 
L 1381 0 
L 213 4666 
z
" transform="scale(0.015625)"/>
       <path id="DejaVuSans-61" d="M 2194 1759 
Q 1497 1759 1228 1600 
Q 959 1441 959 1056 
Q 959 750 1161 570 
Q 1363 391 1709 391 
Q 2188 391 2477 730 
Q 2766 1069 2766 1631 
L 2766 1759 
L 2194 1759 
z
M 3341 1997 
L 3341 0 
L 2766 0 
L 2766 531 
Q 2569 213 2275 61 
Q 1981 -91 1556 -91 
Q 1019 -91 701 211 
Q 384 513 384 1019 
Q 384 1609 779 1909 
Q 1175 2209 1959 2209 
L 2766 2209 
L 2766 2266 
Q 2766 2663 2505 2880 
Q 2244 3097 1772 3097 
Q 1472 3097 1187 3025 
Q 903 2953 641 2809 
L 641 3341 
Q 956 3463 1253 3523 
Q 1550 3584 1831 3584 
Q 2591 3584 2966 3190 
Q 3341 2797 3341 1997 
z
" transform="scale(0.015625)"/>
       <path id="DejaVuSans-69" d="M 603 3500 
L 1178 3500 
L 1178 0 
L 603 0 
L 603 3500 
z
M 603 4863 
L 1178 4863 
L 1178 4134 
L 603 4134 
L 603 4863 
z
" transform="scale(0.015625)"/>
       <path id="DejaVuSans-74" d="M 1172 4494 
L 1172 3500 
L 2356 3500 
L 2356 3053 
L 1172 3053 
L 1172 1153 
Q 1172 725 1289 603 
Q 1406 481 1766 481 
L 2356 481 
L 2356 0 
L 1766 0 
Q 1100 0 847 248 
Q 594 497 594 1153 
L 594 3053 
L 172 3053 
L 172 3500 
L 594 3500 
L 594 4494 
L 1172 4494 
z
" transform="scale(0.015625)"/>
       <path id="DejaVuSans-6e" d="M 3513 2113 
L 3513 0 
L 2938 0 
L 2938 2094 
Q 2938 2591 2744 2837 
Q 2550 3084 2163 3084 
Q 1697 3084 1428 2787 
Q 1159 2491 1159 1978 
L 1159 0 
L 581 0 
L 581 3500 
L 1159 3500 
L 1159 2956 
Q 1366 3272 1645 3428 
Q 1925 3584 2291 3584 
Q 2894 3584 3203 3211 
Q 3513 2838 3513 2113 
z
" transform="scale(0.015625)"/>
       <path id="DejaVuSans-67" d="M 2906 1791 
Q 2906 2416 2648 2759 
Q 2391 3103 1925 3103 
Q 1463 3103 1205 2759 
Q 947 2416 947 1791 
Q 947 1169 1205 825 
Q 1463 481 1925 481 
Q 2391 481 2648 825 
Q 2906 1169 2906 1791 
z
M 3481 434 
Q 3481 -459 3084 -895 
Q 2688 -1331 1869 -1331 
Q 1566 -1331 1297 -1286 
Q 1028 -1241 775 -1147 
L 775 -588 
Q 1028 -725 1275 -790 
Q 1522 -856 1778 -856 
Q 2344 -856 2625 -561 
Q 2906 -266 2906 331 
L 2906 616 
Q 2728 306 2450 153 
Q 2172 0 1784 0 
Q 1141 0 747 490 
Q 353 981 353 1791 
Q 353 2603 747 3093 
Q 1141 3584 1784 3584 
Q 2172 3584 2450 3431 
Q 2728 3278 2906 2969 
L 2906 3500 
L 3481 3500 
L 3481 434 
z
" transform="scale(0.015625)"/>
       <path id="DejaVuSans-54" d="M -19 4666 
L 3928 4666 
L 3928 4134 
L 2272 4134 
L 2272 0 
L 1638 0 
L 1638 4134 
L -19 4134 
L -19 4666 
z
" transform="scale(0.015625)"/>
       <path id="DejaVuSans-2f" d="M 1625 4666 
L 2156 4666 
L 531 -594 
L 0 -594 
L 1625 4666 
z
" transform="scale(0.015625)"/>
      </defs>
      <use xlink:href="#DejaVuSans-57"/>
      <use xlink:href="#DejaVuSans-61" x="92.501953"/>
      <use xlink:href="#DejaVuSans-69" x="153.78125"/>
      <use xlink:href="#DejaVuSans-74" x="181.564453"/>
      <use xlink:href="#DejaVuSans-69" x="220.773438"/>
      <use xlink:href="#DejaVuSans-6e" x="248.556641"/>
      <use xlink:href="#DejaVuSans-67" x="311.935547"/>
      <use xlink:href="#DejaVuSans-20" x="375.412109"/>
      <use xlink:href="#DejaVuSans-54" x="407.199219"/>
      <use xlink:href="#DejaVuSans-69" x="465.158203"/>
      <use xlink:href="#DejaVuSans-6d" x="492.941406"/>
      <use xlink:href="#DejaVuSans-65" x="590.353516"/>
      <use xlink:href="#DejaVuSans-2f" x="651.876953"/>
      <use xlink:href="#DejaVuSans-73" x="685.568359"/>
     </g>
    </g>
   </g>
   <g id="line2d_12">
    <path d="M 73.832727 295.488 
L 74.092503 273.042477 
L 74.222391 268.168547 
L 74.352278 271.1538 
L 74.54711 263.423039 
L 74.676998 256.963136 
L 74.741942 257.869721 
L 74.87183 255.32892 
L 75.001717 255.863276 
L 75.066661 255.308388 
L 75.196549 252.577429 
L 75.261493 254.143106 
L 75.326437 253.793721 
L 75.456325 254.569195 
L 75.521269 255.973873 
L 75.586213 255.01265 
L 75.781044 253.848763 
L 75.845988 254.046858 
L 76.04082 250.981783 
L 76.105764 251.985085 
L 76.170708 249.738535 
L 76.235651 251.059576 
L 76.365539 248.974908 
L 76.430483 249.088522 
L 76.625315 247.984446 
L 76.755203 248.951822 
L 76.820147 248.683855 
L 76.88509 249.501314 
L 77.014978 247.748475 
L 77.079922 247.85973 
L 77.274754 246.700414 
L 77.404642 245.175476 
L 77.469586 245.906128 
L 77.534529 245.475036 
L 77.599473 245.324785 
L 77.664417 244.414056 
L 77.729361 244.628858 
L 77.924193 244.100865 
L 78.183968 245.166862 
L 78.248912 244.988337 
L 78.313856 245.060617 
L 78.3788 245.071381 
L 78.443744 245.575994 
L 78.638576 244.203078 
L 79.028239 242.357901 
L 79.093183 242.456847 
L 79.223071 243.040437 
L 79.482846 242.276966 
L 79.54779 242.449037 
L 79.612734 242.387031 
L 79.87251 241.325348 
L 79.937454 240.804408 
L 80.002398 241.264598 
L 80.067341 241.151969 
L 80.132285 240.806748 
L 80.197229 240.827201 
L 80.262173 240.842395 
L 80.327117 240.188621 
L 80.392061 240.313394 
L 80.586893 239.311798 
L 80.71678 240.087446 
L 80.781724 240.018357 
L 80.911612 239.563895 
L 80.976556 239.600725 
L 81.171388 239.807503 
L 81.366219 240.228824 
L 81.561051 239.511932 
L 81.755883 240.030248 
L 81.820827 239.992514 
L 81.885771 239.66822 
L 82.015658 240.096759 
L 82.340378 238.588271 
L 82.405322 238.839632 
L 82.600153 238.352181 
L 82.665097 238.363279 
L 82.794985 238.751355 
L 82.859929 238.702874 
L 82.989817 238.338365 
L 83.249592 238.75636 
L 83.509368 239.093894 
L 83.7042 238.390598 
L 83.769144 238.650442 
L 83.963975 238.688533 
L 84.158807 239.214765 
L 84.288695 238.870714 
L 84.353639 239.047075 
L 84.418583 238.944294 
L 84.54847 238.876109 
L 84.613414 239.027981 
L 84.743302 238.180283 
L 84.938134 238.570337 
L 85.262853 238.276964 
L 85.327797 238.387064 
L 85.457685 238.679532 
L 85.522629 238.487817 
L 85.587573 238.490486 
L 85.652517 238.604415 
L 85.717461 238.51593 
L 85.977236 238.885843 
L 86.04218 238.733116 
L 86.107124 238.805084 
L 86.172068 239.000698 
L 86.237012 238.946132 
L 86.301956 238.756533 
L 86.3669 238.842182 
L 86.561731 239.114293 
L 86.821507 238.776657 
L 86.886451 238.693023 
L 87.016339 238.345757 
L 87.146226 238.281312 
L 87.406002 238.01366 
L 87.53589 238.205256 
L 87.600834 238.143083 
L 87.730721 238.337495 
L 87.860609 238.317652 
L 87.925553 238.558647 
L 87.990497 238.529009 
L 88.445104 238.30279 
L 88.639936 238.463565 
L 88.769824 238.687233 
L 89.029599 239.174368 
L 89.094543 239.273121 
L 89.289375 238.902324 
L 89.354319 238.891443 
L 89.419263 238.614922 
L 89.484207 238.675706 
L 89.549151 238.572673 
L 89.614094 238.686597 
L 89.743982 238.396316 
L 89.938814 238.650594 
L 90.133646 238.626506 
L 90.263533 238.341964 
L 90.523309 238.437207 
L 90.653197 238.464158 
L 91.172748 239.017327 
L 91.36758 238.681903 
L 91.627355 238.593851 
L 91.757243 238.733581 
L 92.276794 238.411272 
L 92.406682 238.487158 
L 92.861289 238.490194 
L 92.926233 238.551489 
L 93.315897 237.700772 
L 93.510728 237.520129 
L 93.640616 237.66454 
L 93.835448 237.54445 
L 93.900392 237.463972 
L 93.965336 237.555992 
L 94.160167 237.481216 
L 94.290055 237.342604 
L 94.419943 237.294538 
L 94.484887 237.416013 
L 94.549831 237.353087 
L 95.004438 237.247498 
L 95.069382 237.302277 
L 95.134326 237.140527 
L 95.19927 237.237257 
L 95.523989 237.174154 
L 95.588933 237.257418 
L 95.653877 237.194221 
L 95.913653 236.939605 
L 96.04354 236.931466 
L 96.628035 237.235371 
L 96.692979 237.177009 
L 96.822867 237.255837 
L 97.212531 237.198837 
L 97.342418 237.361401 
L 97.732082 236.919784 
L 97.797026 237.048962 
L 98.056801 237.386925 
L 98.186689 237.361494 
L 98.316577 237.199128 
L 98.641296 237.614726 
L 98.70624 237.456492 
L 98.966016 237.388154 
L 99.095904 237.498461 
L 99.160847 237.414216 
L 99.290735 237.380063 
L 99.485567 237.515107 
L 99.550511 237.416545 
L 99.615455 237.467815 
L 99.940174 237.617007 
L 100.135006 237.535164 
L 100.719501 237.313059 
L 101.109164 237.320126 
L 101.239052 237.214604 
L 101.823547 236.605775 
L 102.018379 236.436931 
L 102.213211 236.44763 
L 102.472986 236.337745 
L 102.667818 236.417229 
L 102.797706 236.320593 
L 102.992537 235.942881 
L 103.057481 236.009292 
L 103.447145 235.729717 
L 103.901752 235.215334 
L 104.096584 235.153477 
L 104.291415 234.888345 
L 104.616135 234.632459 
L 104.746023 234.671806 
L 106.044901 233.495575 
L 106.434564 233.554548 
L 106.759283 233.199993 
L 107.084003 232.846853 
L 107.213891 232.802342 
L 107.473666 232.350967 
L 107.733442 232.168573 
L 107.798386 232.212405 
L 108.252993 231.576664 
L 108.317937 231.604951 
L 108.447825 231.347476 
L 108.512769 231.40459 
L 109.357039 230.40779 
L 109.616815 230.078369 
L 109.876591 230.109011 
L 110.136366 229.791251 
L 110.266254 229.716633 
L 110.785805 228.895521 
L 110.980637 228.782998 
L 111.110525 228.776388 
L 111.69502 228.230854 
L 111.759964 228.208039 
L 111.954795 227.975235 
L 112.474347 227.551373 
L 112.86401 227.451724 
L 114.35772 226.214798 
L 114.422663 226.254985 
L 114.877271 225.746504 
L 115.20199 225.344024 
L 115.396822 225.104531 
L 116.565812 224.048535 
L 116.825588 223.69535 
L 117.085363 223.591387 
L 117.410083 223.291287 
L 117.539971 223.187379 
L 118.124466 222.559163 
L 118.773905 222.034262 
L 119.098624 221.582019 
L 119.228512 221.435598 
L 119.748063 220.802927 
L 119.942895 220.781405 
L 120.332558 220.357516 
L 121.306717 219.488273 
L 121.436604 219.412191 
L 122.021099 218.811444 
L 122.280875 218.727778 
L 122.605595 218.371102 
L 122.670538 218.411903 
L 122.930314 218.045504 
L 124.683799 216.890954 
L 124.878631 216.678646 
L 125.268294 216.323846 
L 126.307397 215.615419 
L 126.567172 215.332284 
L 127.02178 215.017442 
L 127.995938 214.419179 
L 128.060882 214.450881 
L 128.385601 214.136214 
L 128.905153 213.585672 
L 129.294816 213.313385 
L 129.489648 213.28648 
L 132.801787 211.501224 
L 133.256394 211.282038 
L 133.775945 210.939806 
L 133.905833 210.909174 
L 134.425384 210.506888 
L 136.243813 209.634193 
L 136.373701 209.583651 
L 136.568533 209.473509 
L 136.828308 209.470943 
L 137.02314 209.422066 
L 137.153028 209.402155 
L 137.737523 208.88369 
L 137.867411 208.750524 
L 138.127186 208.64395 
L 138.646737 208.264964 
L 139.491008 207.710508 
L 139.68584 207.640349 
L 140.85483 206.924647 
L 140.984718 206.93078 
L 141.309437 206.699616 
L 141.439325 206.640085 
L 141.893932 206.190621 
L 142.153708 206.110741 
L 142.34854 206.023567 
L 144.296856 204.583655 
L 144.556632 204.502222 
L 144.816408 204.402218 
L 145.011239 204.426934 
L 145.595734 204.041072 
L 145.790566 203.946136 
L 147.284276 203.103917 
L 147.803827 202.782841 
L 147.933715 202.697694 
L 148.453266 202.369002 
L 148.583154 202.308522 
L 148.842929 202.174672 
L 150.531471 201.242472 
L 150.85619 200.922151 
L 151.505629 200.525899 
L 152.544731 199.6903 
L 152.999339 199.434124 
L 153.259114 199.268963 
L 153.713722 198.860058 
L 154.038441 198.64072 
L 155.142487 197.650753 
L 156.506309 196.565858 
L 157.02586 196.260615 
L 157.415524 195.968308 
L 157.675299 195.746671 
L 160.402943 193.438171 
L 160.792607 193.142925 
L 161.052382 192.942049 
L 161.247214 192.786174 
L 161.571933 192.540507 
L 162.091484 192.206733 
L 164.559353 190.432376 
L 165.143848 190.069898 
L 167.286996 188.656824 
L 167.67666 188.417963 
L 168.196211 188.249796 
L 168.715762 187.960367 
L 169.040482 187.756397 
L 169.430145 187.436686 
L 170.144528 186.951442 
L 170.534191 186.689081 
L 170.858911 186.53121 
L 171.248574 186.231456 
L 175.924535 183.188294 
L 176.314198 182.98315 
L 176.444086 182.903513 
L 176.833749 182.67643 
L 177.093525 182.548189 
L 178.132627 181.916965 
L 178.84701 181.563527 
L 179.17173 181.350608 
L 180.080944 180.906356 
L 180.535551 180.520344 
L 181.444766 179.990107 
L 181.834429 179.756107 
L 182.353981 179.350738 
L 183.00342 178.914037 
L 183.522971 178.526014 
L 183.912634 178.214209 
L 184.17241 178.056229 
L 188.718483 174.369235 
L 189.17309 173.960807 
L 190.277136 173.061702 
L 190.991519 172.407618 
L 191.316239 172.141713 
L 197.291077 166.3587 
L 197.875572 165.769664 
L 198.395123 165.347989 
L 199.888833 163.898367 
L 200.408384 163.447683 
L 200.862992 163.004111 
L 201.967038 162.023632 
L 202.421645 161.523199 
L 203.071084 161.014055 
L 203.590635 160.547374 
L 204.240074 160.033506 
L 204.889513 159.441537 
L 205.214233 159.07585 
L 208.461428 156.453568 
L 209.045923 156.030022 
L 214.176491 152.435411 
L 214.760986 152.090941 
L 217.553573 150.222456 
L 217.878293 150.032725 
L 223.138748 146.399008 
L 223.528412 146.1485 
L 225.216953 145.093171 
L 226.191112 144.447925 
L 227.684821 143.5774 
L 230.347521 141.946799 
L 230.802128 141.658144 
L 232.360782 140.811263 
L 233.33494 140.279332 
L 234.763706 139.512587 
L 235.15337 139.359116 
L 235.607977 139.146278 
L 236.712023 138.645121 
L 242.362142 135.861102 
L 242.881693 135.537836 
L 243.271357 135.314859 
L 244.245515 134.798369 
L 245.414505 134.209987 
L 246.063944 133.821997 
L 246.713383 133.456629 
L 247.167991 133.229404 
L 248.142149 132.702211 
L 249.051364 132.214308 
L 254.181932 129.401483 
L 254.571595 129.120225 
L 255.221034 128.79622 
L 255.870473 128.435643 
L 266.391384 122.404236 
L 267.040823 122.049772 
L 271.392065 119.652043 
L 272.171391 119.165253 
L 272.885774 118.749862 
L 273.730045 118.258221 
L 274.31454 117.855507 
L 274.963979 117.425379 
L 279.899715 114.120569 
L 281.198593 113.202681 
L 282.172752 112.577359 
L 282.757247 112.141834 
L 284.380844 110.995008 
L 285.48489 110.243308 
L 287.173432 109.135769 
L 288.602198 108.186922 
L 289.446468 107.613987 
L 292.304 105.866118 
L 292.888495 105.510292 
L 293.797709 104.932631 
L 294.447148 104.571712 
L 295.940858 103.621145 
L 296.460409 103.330757 
L 297.369624 102.700706 
L 297.889175 102.346371 
L 307.046265 96.575922 
L 308.410086 95.764607 
L 309.124469 95.321129 
L 309.773908 94.921229 
L 310.813011 94.291803 
L 315.29414 91.337128 
L 326.659322 84.204396 
L 327.568536 83.682902 
L 328.672583 83.077551 
L 330.880675 81.912709 
L 331.46517 81.570195 
L 342.051025 76.52895 
L 344.194174 75.620244 
L 346.662042 74.629701 
L 348.220696 74.054192 
L 349.519574 73.571194 
L 352.377105 72.539966 
L 356.143851 71.238773 
L 356.728346 71.03282 
L 357.897337 70.562665 
L 358.871495 70.186533 
L 359.650822 69.860227 
L 361.469251 69.164765 
L 376.016684 62.942024 
L 376.796011 62.5793 
L 380.173094 61.043556 
L 381.536915 60.535881 
L 383.030625 59.873471 
L 398.487273 53.568 
L 398.487273 53.568 
" clip-path="url(#p4c9b1c433c)" style="fill: none; stroke-dasharray: 2,3.3; stroke-dashoffset: 0; stroke: #0000ff; stroke-width: 2"/>
   </g>
   <g id="line2d_13">
    <path d="M 73.832727 295.488 
L 74.092503 273.042477 
L 74.222391 268.168547 
L 74.352278 271.1538 
L 74.87183 257.404308 
L 74.936774 256.702152 
L 75.066661 253.708918 
L 75.131605 253.470317 
L 75.196549 252.378243 
L 75.261493 252.797888 
L 75.326437 253.270702 
L 75.781044 248.585538 
L 75.845988 249.841695 
L 75.910932 249.272348 
L 75.975876 250.042234 
L 76.105764 248.017871 
L 76.170708 248.04573 
L 76.235651 248.202258 
L 76.300595 249.232827 
L 76.365539 248.344217 
L 76.560371 250.157666 
L 76.625315 250.226569 
L 76.690259 249.482509 
L 76.755203 249.692462 
L 76.88509 248.966809 
L 76.950034 249.0791 
L 77.014978 248.851551 
L 77.079922 247.634321 
L 77.144866 247.745632 
L 77.20981 248.134013 
L 77.274754 247.863017 
L 77.404642 248.155534 
L 77.534529 247.088433 
L 77.599473 247.372534 
L 77.664417 248.030036 
L 77.859249 246.295028 
L 77.924193 246.033749 
L 77.989137 246.188815 
L 78.054081 246.570825 
L 78.248912 245.875565 
L 78.313856 246.352723 
L 78.3788 246.220865 
L 78.638576 244.811877 
L 78.70352 245.418326 
L 78.963295 243.780955 
L 79.093183 244.045167 
L 79.288015 243.258149 
L 79.352959 243.239773 
L 79.482846 242.177912 
L 79.54779 242.284822 
L 79.612734 241.970896 
L 79.677678 242.142549 
L 79.742622 242.196765 
L 79.807566 242.027815 
L 80.002398 240.858865 
L 80.197229 240.199335 
L 80.457005 241.286803 
L 80.521949 241.198617 
L 80.586893 241.413231 
L 80.651837 241.337974 
L 80.781724 241.116023 
L 80.976556 241.794421 
L 81.0415 241.909212 
L 81.106444 241.658854 
L 81.301276 242.211579 
L 81.366219 241.896258 
L 81.431163 242.149121 
L 81.561051 241.717018 
L 81.690939 242.215289 
L 81.885771 241.603294 
L 81.950715 241.603944 
L 82.080602 241.750781 
L 82.21049 241.742552 
L 82.340378 241.266053 
L 82.405322 241.362806 
L 82.53521 241.622927 
L 82.600153 241.590914 
L 82.665097 241.35385 
L 82.730041 241.384945 
L 82.794985 241.367882 
L 82.924873 241.661842 
L 83.054761 241.406205 
L 83.119705 241.550558 
L 83.249592 241.918225 
L 83.37948 241.637075 
L 83.444424 241.757343 
L 83.639256 241.68897 
L 83.834088 241.205899 
L 83.963975 241.576357 
L 84.093863 242.132076 
L 84.158807 241.930898 
L 84.353639 242.262023 
L 84.418583 242.279634 
L 84.483527 242.035134 
L 84.54847 242.379829 
L 84.613414 242.28163 
L 84.743302 242.01087 
L 84.808246 242.043436 
L 85.003078 242.425642 
L 85.327797 241.677383 
L 85.392741 241.830943 
L 85.457685 241.636347 
L 85.522629 241.863914 
L 85.587573 241.78395 
L 85.912292 241.693365 
L 85.977236 241.818065 
L 86.04218 241.691191 
L 86.172068 241.989192 
L 86.301956 241.830418 
L 86.431843 241.9924 
L 86.691619 241.649756 
L 86.886451 241.433298 
L 87.016339 241.905171 
L 87.21117 241.457988 
L 87.53589 240.696069 
L 87.600834 240.69896 
L 87.795665 240.25917 
L 88.055441 240.468651 
L 88.120385 240.346941 
L 88.185329 239.844144 
L 88.250273 239.978321 
L 88.445104 240.077172 
L 88.639936 239.777072 
L 89.094543 240.400121 
L 89.159487 240.298371 
L 89.354319 239.879582 
L 89.484207 239.897033 
L 89.743982 238.997626 
L 89.87387 239.010376 
L 89.938814 238.781143 
L 90.003758 238.917049 
L 90.328477 239.157451 
L 90.523309 238.802912 
L 90.848029 238.728173 
L 91.107804 238.162975 
L 91.172748 238.226702 
L 91.36758 238.543632 
L 91.822187 238.311356 
L 91.887131 238.122854 
L 91.952075 238.158024 
L 92.081963 238.051669 
L 92.146906 238.169698 
L 92.406682 237.647407 
L 92.471626 237.617637 
L 92.666458 237.859454 
L 92.796345 237.711123 
L 92.861289 237.863831 
L 93.121065 237.440965 
L 93.315897 237.714051 
L 93.380841 237.653285 
L 93.445784 237.793956 
L 93.510728 237.738904 
L 93.70556 237.588289 
L 93.835448 237.683032 
L 93.900392 237.772113 
L 94.03028 237.330403 
L 94.095223 237.367551 
L 94.225111 237.62663 
L 94.549831 237.378872 
L 94.679718 237.254107 
L 94.744662 237.121167 
L 94.87455 237.226611 
L 94.939494 237.214497 
L 95.004438 237.347858 
L 95.069382 237.289954 
L 95.264214 237.31567 
L 95.394101 237.285691 
L 95.588933 237.526298 
L 95.718821 237.316842 
L 96.108484 237.568661 
L 96.238372 237.427567 
L 96.433204 237.54784 
L 96.757923 237.211131 
L 96.887811 237.354306 
L 96.952755 237.290756 
L 97.017699 237.362572 
L 97.407362 237.460183 
L 97.53725 237.362177 
L 97.797026 237.480427 
L 97.991857 237.361588 
L 98.251633 237.276016 
L 98.446465 237.461876 
L 98.641296 237.105381 
L 98.70624 237.162882 
L 98.966016 237.086502 
L 99.420623 236.911733 
L 99.485567 236.95782 
L 99.810286 236.646385 
L 99.940174 236.640703 
L 100.070062 236.780553 
L 100.264894 236.674947 
L 100.459725 236.524805 
L 100.589613 236.591029 
L 100.654557 236.447252 
L 100.719501 236.477869 
L 100.979277 236.41573 
L 101.04422 236.374583 
L 101.109164 236.512652 
L 101.303996 236.185746 
L 101.433884 236.051286 
L 101.498828 236.067223 
L 101.693659 235.740414 
L 101.758603 235.764887 
L 101.953435 235.546196 
L 102.018379 235.648007 
L 102.083323 235.569591 
L 102.148267 235.567346 
L 102.278155 235.334956 
L 102.343098 235.425616 
L 102.408042 235.365585 
L 102.797706 235.086037 
L 103.187369 234.712795 
L 103.447145 234.883065 
L 103.771864 234.73028 
L 104.03164 234.641419 
L 104.226471 234.359219 
L 104.486247 234.161318 
L 104.87591 234.076158 
L 105.265574 233.970594 
L 105.460406 233.992315 
L 105.720181 233.904846 
L 106.499508 233.921373 
L 107.019059 233.819942 
L 107.213891 233.636459 
L 107.408722 233.690756 
L 107.603554 233.519905 
L 107.798386 233.306188 
L 108.058161 233.213955 
L 108.188049 233.142203 
L 108.382881 233.148225 
L 108.577713 233.396249 
L 109.03232 233.104171 
L 109.227152 232.891297 
L 109.357039 233.02479 
L 109.486927 233.035468 
L 110.006478 233.217794 
L 110.136366 233.330647 
L 110.590973 233.108982 
L 110.720861 233.019883 
L 111.240412 233.273217 
L 111.500188 233.414117 
L 111.630076 233.270757 
L 111.889851 233.377721 
L 112.019739 233.287401 
L 112.149627 233.187718 
L 112.409403 233.314927 
L 112.604234 233.239326 
L 112.928954 233.303764 
L 113.123785 233.187281 
L 113.188729 233.253054 
L 113.253673 233.163723 
L 113.383561 233.184464 
L 113.578393 233.252373 
L 113.838168 233.208811 
L 114.033 233.275459 
L 114.227832 233.285814 
L 114.487607 233.007154 
L 114.812327 232.897932 
L 114.877271 232.920283 
L 115.007159 232.843131 
L 115.20199 232.693438 
L 115.461766 232.497304 
L 115.656598 232.475455 
L 115.916373 232.405773 
L 116.565812 232.351831 
L 117.215251 232.102737 
L 117.539971 232.000708 
L 117.799746 231.839402 
L 119.3584 231.524388 
L 119.618175 231.691278 
L 120.20267 231.86534 
L 121.111885 231.54815 
L 121.501548 231.706972 
L 121.891212 231.80394 
L 122.086043 231.787244 
L 122.215931 231.851469 
L 122.410763 231.862528 
L 122.540651 231.819094 
L 122.605595 231.723817 
L 122.670538 231.776255 
L 122.86537 231.80486 
L 122.930314 231.7241 
L 122.995258 231.801032 
L 123.255034 231.852317 
L 123.644697 232.117016 
L 124.424024 232.103633 
L 124.553912 231.947265 
L 124.878631 232.025512 
L 125.20335 232.058408 
L 125.333238 232.098464 
L 125.917733 232.229419 
L 126.112565 232.131997 
L 126.307397 232.134752 
L 126.502228 232.152752 
L 126.826948 232.105194 
L 127.086724 232.156597 
L 127.346499 232.17576 
L 127.541331 232.208517 
L 127.801106 232.196184 
L 128.125826 232.202276 
L 128.970097 232.411214 
L 129.229872 232.283311 
L 129.619536 232.220428 
L 130.204031 232.238117 
L 130.463806 232.233565 
L 130.723582 232.233151 
L 131.048301 232.305181 
L 131.957516 231.959913 
L 132.996618 231.900874 
L 133.970777 231.937232 
L 134.100664 231.971597 
L 134.295496 231.950464 
L 134.68516 231.868741 
L 134.944935 231.869275 
L 135.204711 231.850755 
L 135.399542 231.884178 
L 135.85415 232.012693 
L 136.178869 231.904808 
L 136.568533 231.926644 
L 136.763364 232.002362 
L 136.893252 231.994127 
L 137.217972 231.993628 
L 137.672579 232.042669 
L 141.439325 231.461029 
L 143.452586 231.682887 
L 145.85551 231.551076 
L 146.050342 231.472125 
L 147.219332 231.559587 
L 147.803827 231.526664 
L 148.128546 231.529709 
L 148.648098 231.298236 
L 148.972817 231.346079 
L 150.011919 231.317247 
L 150.271695 231.205526 
L 150.661358 231.2057 
L 150.921134 231.113007 
L 151.440685 231.002897 
L 151.830349 231.02132 
L 152.3499 230.967865 
L 152.544731 230.898613 
L 152.869451 230.822804 
L 152.999339 230.815951 
L 153.259114 230.833256 
L 153.51889 230.820315 
L 153.843609 230.731613 
L 154.622936 230.628231 
L 155.142487 230.650833 
L 155.467207 230.505183 
L 155.726982 230.555759 
L 156.18159 230.432935 
L 156.895973 230.375762 
L 157.02586 230.331146 
L 157.220692 230.350153 
L 158.51957 230.297721 
L 159.428785 230.179111 
L 159.623616 230.098132 
L 160.078224 230.026413 
L 160.273055 230.065863 
L 160.467887 230.028569 
L 161.052382 230.003776 
L 161.636877 229.962466 
L 165.468567 229.888613 
L 166.118006 229.969647 
L 166.312838 229.931747 
L 167.092165 229.900837 
L 167.35194 229.805549 
L 167.806547 229.767915 
L 168.326099 229.700393 
L 168.585874 229.696474 
L 168.975538 229.709661 
L 172.937115 229.715272 
L 173.196891 229.69935 
L 173.651498 229.769331 
L 174.041162 229.709879 
L 174.950376 229.632064 
L 175.210152 229.55522 
L 175.664759 229.593376 
L 177.67802 229.655219 
L 177.937796 229.680024 
L 180.080944 229.66066 
L 180.405664 229.644975 
L 180.730383 229.547778 
L 181.249934 229.553108 
L 181.379822 229.510101 
L 181.639598 229.540257 
L 182.613756 229.456302 
L 182.873532 229.438584 
L 183.717802 229.467001 
L 184.17241 229.39748 
L 184.432185 229.3908 
L 184.821849 229.350244 
L 185.01668 229.312823 
L 185.3414 229.356396 
L 185.796007 229.272589 
L 186.315558 229.297672 
L 187.224773 229.244589 
L 187.614436 229.25092 
L 188.263875 229.14192 
L 188.913314 229.096068 
L 192.485229 228.877392 
L 192.874892 228.93006 
L 194.17377 228.777328 
L 194.628377 228.763592 
L 195.34276 228.680804 
L 195.66748 228.630622 
L 195.927255 228.635427 
L 196.251975 228.593647 
L 196.901414 228.587515 
L 197.096245 228.564835 
L 197.420965 228.596303 
L 198.070404 228.4538 
L 201.967038 228.278588 
L 202.356701 228.233556 
L 202.746365 228.22354 
L 205.798728 228.05628 
L 206.253335 228.117105 
L 206.707942 228.11673 
L 207.682101 228.126913 
L 208.656259 228.089614 
L 208.980979 228.039038 
L 211.124127 227.982874 
L 212.293118 227.903503 
L 212.877613 227.875395 
L 215.410425 227.832026 
L 216.644359 227.868219 
L 217.034022 227.885993 
L 224.50257 227.537105 
L 224.82729 227.568257 
L 226.191112 227.667842 
L 226.775607 227.690399 
L 227.425046 227.752542 
L 227.814709 227.809314 
L 228.529092 227.764099 
L 228.853811 227.766221 
L 232.036062 227.757717 
L 232.750445 227.860339 
L 234.049323 227.820584 
L 234.633818 227.813389 
L 234.893594 227.833387 
L 236.062584 227.838904 
L 236.517191 227.877874 
L 237.361462 227.834532 
L 237.816069 227.827071 
L 238.335621 227.807143 
L 239.699442 227.751848 
L 240.089106 227.752492 
L 240.608657 227.819471 
L 241.063264 227.788145 
L 242.037423 227.846426 
L 242.49203 227.88455 
L 244.700123 228.003838 
L 245.024842 227.977447 
L 245.609337 228.019064 
L 245.869113 227.993264 
L 246.32372 228.020386 
L 246.64844 228.027776 
L 247.49271 228.013802 
L 248.531813 228.025261 
L 250.545073 227.971794 
L 250.869793 227.970131 
L 251.843951 227.989989 
L 252.233615 228.003944 
L 252.947998 228.034987 
L 253.272717 227.99051 
L 254.441707 228.013125 
L 254.896315 228.019518 
L 255.350922 228.061995 
L 263.663741 227.519706 
L 264.118348 227.569941 
L 264.508011 227.521075 
L 265.287338 227.565892 
L 265.677002 227.600162 
L 267.365543 227.65857 
L 268.339701 227.690526 
L 268.664421 227.684603 
L 273.730045 227.656953 
L 275.158811 227.569062 
L 275.743306 227.593999 
L 277.301959 227.576071 
L 278.600837 227.563471 
L 279.055445 227.571112 
L 280.029603 227.60282 
L 280.549154 227.529236 
L 281.912976 227.584978 
L 284.64062 227.572035 
L 286.264217 227.63418 
L 286.848712 227.610912 
L 288.861973 227.610036 
L 289.186693 227.580126 
L 289.6413 227.563091 
L 294.901756 227.624127 
L 302.889855 227.241286 
L 303.409406 227.247878 
L 304.96806 227.271871 
L 305.682443 227.288574 
L 326.399546 227.356284 
L 327.113929 227.365274 
L 328.737526 227.345552 
L 329.322021 227.36945 
L 329.841573 227.346173 
L 332.63416 227.240116 
L 333.478431 227.271122 
L 334.712365 227.252293 
L 335.556636 227.275855 
L 336.530794 227.269752 
L 337.375065 227.31127 
L 338.414167 227.296053 
L 343.28496 227.368359 
L 343.609679 227.325195 
L 344.324062 227.343753 
L 345.29822 227.37845 
L 346.272379 227.432749 
L 352.377105 227.551119 
L 357.897337 227.473287 
L 358.481832 227.505351 
L 359.45599 227.431269 
L 371.080948 227.355739 
L 371.730387 227.340653 
L 372.12005 227.332904 
L 373.094209 227.33864 
L 374.068367 227.391208 
L 375.756908 227.383345 
L 376.536235 227.387195 
L 379.718486 227.481098 
L 380.627701 227.504132 
L 388.356025 227.438219 
L 389.070408 227.39835 
L 393.876256 227.229729 
L 396.27918 227.264686 
L 398.487273 227.150799 
L 398.487273 227.150799 
" clip-path="url(#p4c9b1c433c)" style="fill: none; stroke-dasharray: 2,3.3; stroke-dashoffset: 0; stroke: #ffa500; stroke-width: 2"/>
   </g>
   <g id="patch_3">
    <path d="M 57.6 307.584 
L 57.6 41.472 
" style="fill: none; stroke: #000000; stroke-width: 0.8; stroke-linejoin: miter; stroke-linecap: square"/>
   </g>
   <g id="patch_4">
    <path d="M 414.72 307.584 
L 414.72 41.472 
" style="fill: none; stroke: #000000; stroke-width: 0.8; stroke-linejoin: miter; stroke-linecap: square"/>
   </g>
   <g id="patch_5">
    <path d="M 57.6 307.584 
L 414.72 307.584 
" style="fill: none; stroke: #000000; stroke-width: 0.8; stroke-linejoin: miter; stroke-linecap: square"/>
   </g>
   <g id="patch_6">
    <path d="M 57.6 41.472 
L 414.72 41.472 
" style="fill: none; stroke: #000000; stroke-width: 0.8; stroke-linejoin: miter; stroke-linecap: square"/>
   </g>
   <g id="text_14">
    <!-- Waiting Time Plot -->
    <g transform="translate(183.833438 8.2635)scale(0.12 -0.12)">
     <defs>
      <path id="DejaVuSans-50" d="M 1259 4147 
L 1259 2394 
L 2053 2394 
Q 2494 2394 2734 2622 
Q 2975 2850 2975 3272 
Q 2975 3691 2734 3919 
Q 2494 4147 2053 4147 
L 1259 4147 
z
M 628 4666 
L 2053 4666 
Q 2838 4666 3239 4311 
Q 3641 3956 3641 3272 
Q 3641 2581 3239 2228 
Q 2838 1875 2053 1875 
L 1259 1875 
L 1259 0 
L 628 0 
L 628 4666 
z
" transform="scale(0.015625)"/>
      <path id="DejaVuSans-6c" d="M 603 4863 
L 1178 4863 
L 1178 0 
L 603 0 
L 603 4863 
z
" transform="scale(0.015625)"/>
     </defs>
     <use xlink:href="#DejaVuSans-57"/>
     <use xlink:href="#DejaVuSans-61" x="92.501953"/>
     <use xlink:href="#DejaVuSans-69" x="153.78125"/>
     <use xlink:href="#DejaVuSans-74" x="181.564453"/>
     <use xlink:href="#DejaVuSans-69" x="220.773438"/>
     <use xlink:href="#DejaVuSans-6e" x="248.556641"/>
     <use xlink:href="#DejaVuSans-67" x="311.935547"/>
     <use xlink:href="#DejaVuSans-20" x="375.412109"/>
     <use xlink:href="#DejaVuSans-54" x="407.199219"/>
     <use xlink:href="#DejaVuSans-69" x="465.158203"/>
     <use xlink:href="#DejaVuSans-6d" x="492.941406"/>
     <use xlink:href="#DejaVuSans-65" x="590.353516"/>
     <use xlink:href="#DejaVuSans-20" x="651.876953"/>
     <use xlink:href="#DejaVuSans-50" x="683.664062"/>
     <use xlink:href="#DejaVuSans-6c" x="743.966797"/>
     <use xlink:href="#DejaVuSans-6f" x="771.75"/>
     <use xlink:href="#DejaVuSans-74" x="832.931641"/>
    </g>
    <!--  avg_d = 2816.8979946872  -->
    <g transform="translate(150.306562 21.700875)scale(0.12 -0.12)">
     <defs>
      <path id="DejaVuSans-76" d="M 191 3500 
L 800 3500 
L 1894 563 
L 2988 3500 
L 3597 3500 
L 2284 0 
L 1503 0 
L 191 3500 
z
" transform="scale(0.015625)"/>
      <path id="DejaVuSans-5f" d="M 3263 -1063 
L 3263 -1509 
L -63 -1509 
L -63 -1063 
L 3263 -1063 
z
" transform="scale(0.015625)"/>
      <path id="DejaVuSans-3d" d="M 678 2906 
L 4684 2906 
L 4684 2381 
L 678 2381 
L 678 2906 
z
M 678 1631 
L 4684 1631 
L 4684 1100 
L 678 1100 
L 678 1631 
z
" transform="scale(0.015625)"/>
      <path id="DejaVuSans-38" d="M 2034 2216 
Q 1584 2216 1326 1975 
Q 1069 1734 1069 1313 
Q 1069 891 1326 650 
Q 1584 409 2034 409 
Q 2484 409 2743 651 
Q 3003 894 3003 1313 
Q 3003 1734 2745 1975 
Q 2488 2216 2034 2216 
z
M 1403 2484 
Q 997 2584 770 2862 
Q 544 3141 544 3541 
Q 544 4100 942 4425 
Q 1341 4750 2034 4750 
Q 2731 4750 3128 4425 
Q 3525 4100 3525 3541 
Q 3525 3141 3298 2862 
Q 3072 2584 2669 2484 
Q 3125 2378 3379 2068 
Q 3634 1759 3634 1313 
Q 3634 634 3220 271 
Q 2806 -91 2034 -91 
Q 1263 -91 848 271 
Q 434 634 434 1313 
Q 434 1759 690 2068 
Q 947 2378 1403 2484 
z
M 1172 3481 
Q 1172 3119 1398 2916 
Q 1625 2713 2034 2713 
Q 2441 2713 2670 2916 
Q 2900 3119 2900 3481 
Q 2900 3844 2670 4047 
Q 2441 4250 2034 4250 
Q 1625 4250 1398 4047 
Q 1172 3844 1172 3481 
z
" transform="scale(0.015625)"/>
      <path id="DejaVuSans-36" d="M 2113 2584 
Q 1688 2584 1439 2293 
Q 1191 2003 1191 1497 
Q 1191 994 1439 701 
Q 1688 409 2113 409 
Q 2538 409 2786 701 
Q 3034 994 3034 1497 
Q 3034 2003 2786 2293 
Q 2538 2584 2113 2584 
z
M 3366 4563 
L 3366 3988 
Q 3128 4100 2886 4159 
Q 2644 4219 2406 4219 
Q 1781 4219 1451 3797 
Q 1122 3375 1075 2522 
Q 1259 2794 1537 2939 
Q 1816 3084 2150 3084 
Q 2853 3084 3261 2657 
Q 3669 2231 3669 1497 
Q 3669 778 3244 343 
Q 2819 -91 2113 -91 
Q 1303 -91 875 529 
Q 447 1150 447 2328 
Q 447 3434 972 4092 
Q 1497 4750 2381 4750 
Q 2619 4750 2861 4703 
Q 3103 4656 3366 4563 
z
" transform="scale(0.015625)"/>
      <path id="DejaVuSans-2e" d="M 684 794 
L 1344 794 
L 1344 0 
L 684 0 
L 684 794 
z
" transform="scale(0.015625)"/>
      <path id="DejaVuSans-39" d="M 703 97 
L 703 672 
Q 941 559 1184 500 
Q 1428 441 1663 441 
Q 2288 441 2617 861 
Q 2947 1281 2994 2138 
Q 2813 1869 2534 1725 
Q 2256 1581 1919 1581 
Q 1219 1581 811 2004 
Q 403 2428 403 3163 
Q 403 3881 828 4315 
Q 1253 4750 1959 4750 
Q 2769 4750 3195 4129 
Q 3622 3509 3622 2328 
Q 3622 1225 3098 567 
Q 2575 -91 1691 -91 
Q 1453 -91 1209 -44 
Q 966 3 703 97 
z
M 1959 2075 
Q 2384 2075 2632 2365 
Q 2881 2656 2881 3163 
Q 2881 3666 2632 3958 
Q 2384 4250 1959 4250 
Q 1534 4250 1286 3958 
Q 1038 3666 1038 3163 
Q 1038 2656 1286 2365 
Q 1534 2075 1959 2075 
z
" transform="scale(0.015625)"/>
      <path id="DejaVuSans-37" d="M 525 4666 
L 3525 4666 
L 3525 4397 
L 1831 0 
L 1172 0 
L 2766 4134 
L 525 4134 
L 525 4666 
z
" transform="scale(0.015625)"/>
     </defs>
     <use xlink:href="#DejaVuSans-20"/>
     <use xlink:href="#DejaVuSans-61" x="31.787109"/>
     <use xlink:href="#DejaVuSans-76" x="93.066406"/>
     <use xlink:href="#DejaVuSans-67" x="152.246094"/>
     <use xlink:href="#DejaVuSans-5f" x="215.722656"/>
     <use xlink:href="#DejaVuSans-64" x="265.722656"/>
     <use xlink:href="#DejaVuSans-20" x="329.199219"/>
     <use xlink:href="#DejaVuSans-3d" x="360.986328"/>
     <use xlink:href="#DejaVuSans-20" x="444.775391"/>
     <use xlink:href="#DejaVuSans-32" x="476.5625"/>
     <use xlink:href="#DejaVuSans-38" x="540.185547"/>
     <use xlink:href="#DejaVuSans-31" x="603.808594"/>
     <use xlink:href="#DejaVuSans-36" x="667.431641"/>
     <use xlink:href="#DejaVuSans-2e" x="731.054688"/>
     <use xlink:href="#DejaVuSans-38" x="762.841797"/>
     <use xlink:href="#DejaVuSans-39" x="826.464844"/>
     <use xlink:href="#DejaVuSans-37" x="890.087891"/>
     <use xlink:href="#DejaVuSans-39" x="953.710938"/>
     <use xlink:href="#DejaVuSans-39" x="1017.333984"/>
     <use xlink:href="#DejaVuSans-34" x="1080.957031"/>
     <use xlink:href="#DejaVuSans-36" x="1144.580078"/>
     <use xlink:href="#DejaVuSans-38" x="1208.203125"/>
     <use xlink:href="#DejaVuSans-37" x="1271.826172"/>
     <use xlink:href="#DejaVuSans-32" x="1335.449219"/>
     <use xlink:href="#DejaVuSans-20" x="1399.072266"/>
    </g>
    <!--  avg_a = 920.7132410221041diff = 1896.184753665096 -->
    <g transform="translate(63.181875 35.472)scale(0.12 -0.12)">
     <use xlink:href="#DejaVuSans-20"/>
     <use xlink:href="#DejaVuSans-61" x="31.787109"/>
     <use xlink:href="#DejaVuSans-76" x="93.066406"/>
     <use xlink:href="#DejaVuSans-67" x="152.246094"/>
     <use xlink:href="#DejaVuSans-5f" x="215.722656"/>
     <use xlink:href="#DejaVuSans-61" x="265.722656"/>
     <use xlink:href="#DejaVuSans-20" x="327.001953"/>
     <use xlink:href="#DejaVuSans-3d" x="358.789062"/>
     <use xlink:href="#DejaVuSans-20" x="442.578125"/>
     <use xlink:href="#DejaVuSans-39" x="474.365234"/>
     <use xlink:href="#DejaVuSans-32" x="537.988281"/>
     <use xlink:href="#DejaVuSans-30" x="601.611328"/>
     <use xlink:href="#DejaVuSans-2e" x="665.234375"/>
     <use xlink:href="#DejaVuSans-37" x="697.021484"/>
     <use xlink:href="#DejaVuSans-31" x="760.644531"/>
     <use xlink:href="#DejaVuSans-33" x="824.267578"/>
     <use xlink:href="#DejaVuSans-32" x="887.890625"/>
     <use xlink:href="#DejaVuSans-34" x="951.513672"/>
     <use xlink:href="#DejaVuSans-31" x="1015.136719"/>
     <use xlink:href="#DejaVuSans-30" x="1078.759766"/>
     <use xlink:href="#DejaVuSans-32" x="1142.382812"/>
     <use xlink:href="#DejaVuSans-32" x="1206.005859"/>
     <use xlink:href="#DejaVuSans-31" x="1269.628906"/>
     <use xlink:href="#DejaVuSans-30" x="1333.251953"/>
     <use xlink:href="#DejaVuSans-34" x="1396.875"/>
     <use xlink:href="#DejaVuSans-31" x="1460.498047"/>
     <use xlink:href="#DejaVuSans-64" x="1524.121094"/>
     <use xlink:href="#DejaVuSans-69" x="1587.597656"/>
     <use xlink:href="#DejaVuSans-66" x="1615.380859"/>
     <use xlink:href="#DejaVuSans-66" x="1650.585938"/>
     <use xlink:href="#DejaVuSans-20" x="1685.791016"/>
     <use xlink:href="#DejaVuSans-3d" x="1717.578125"/>
     <use xlink:href="#DejaVuSans-20" x="1801.367188"/>
     <use xlink:href="#DejaVuSans-31" x="1833.154297"/>
     <use xlink:href="#DejaVuSans-38" x="1896.777344"/>
     <use xlink:href="#DejaVuSans-39" x="1960.400391"/>
     <use xlink:href="#DejaVuSans-36" x="2024.023438"/>
     <use xlink:href="#DejaVuSans-2e" x="2087.646484"/>
     <use xlink:href="#DejaVuSans-31" x="2119.433594"/>
     <use xlink:href="#DejaVuSans-38" x="2183.056641"/>
     <use xlink:href="#DejaVuSans-34" x="2246.679688"/>
     <use xlink:href="#DejaVuSans-37" x="2310.302734"/>
     <use xlink:href="#DejaVuSans-35" x="2373.925781"/>
     <use xlink:href="#DejaVuSans-33" x="2437.548828"/>
     <use xlink:href="#DejaVuSans-36" x="2501.171875"/>
     <use xlink:href="#DejaVuSans-36" x="2564.794922"/>
     <use xlink:href="#DejaVuSans-35" x="2628.417969"/>
     <use xlink:href="#DejaVuSans-30" x="2692.041016"/>
     <use xlink:href="#DejaVuSans-39" x="2755.664062"/>
     <use xlink:href="#DejaVuSans-36" x="2819.287109"/>
    </g>
   </g>
   <g id="legend_1">
    <g id="patch_7">
     <path d="M 64.6 78.82825 
L 208.43125 78.82825 
Q 210.43125 78.82825 210.43125 76.82825 
L 210.43125 48.472 
Q 210.43125 46.472 208.43125 46.472 
L 64.6 46.472 
Q 62.6 46.472 62.6 48.472 
L 62.6 76.82825 
Q 62.6 78.82825 64.6 78.82825 
z
" style="fill: #ffffff; opacity: 0.8; stroke: #cccccc; stroke-linejoin: miter"/>
    </g>
    <g id="line2d_14">
     <path d="M 66.6 54.570437 
L 76.6 54.570437 
L 86.6 54.570437 
" style="fill: none; stroke-dasharray: 2,3.3; stroke-dashoffset: 0; stroke: #0000ff; stroke-width: 2"/>
    </g>
    <g id="text_15">
     <!-- Average (Default) -->
     <g transform="translate(94.6 58.070437)scale(0.1 -0.1)">
      <defs>
       <path id="DejaVuSans-41" d="M 2188 4044 
L 1331 1722 
L 3047 1722 
L 2188 4044 
z
M 1831 4666 
L 2547 4666 
L 4325 0 
L 3669 0 
L 3244 1197 
L 1141 1197 
L 716 0 
L 50 0 
L 1831 4666 
z
" transform="scale(0.015625)"/>
       <path id="DejaVuSans-28" d="M 1984 4856 
Q 1566 4138 1362 3434 
Q 1159 2731 1159 2009 
Q 1159 1288 1364 580 
Q 1569 -128 1984 -844 
L 1484 -844 
Q 1016 -109 783 600 
Q 550 1309 550 2009 
Q 550 2706 781 3412 
Q 1013 4119 1484 4856 
L 1984 4856 
z
" transform="scale(0.015625)"/>
       <path id="DejaVuSans-44" d="M 1259 4147 
L 1259 519 
L 2022 519 
Q 2988 519 3436 956 
Q 3884 1394 3884 2338 
Q 3884 3275 3436 3711 
Q 2988 4147 2022 4147 
L 1259 4147 
z
M 628 4666 
L 1925 4666 
Q 3281 4666 3915 4102 
Q 4550 3538 4550 2338 
Q 4550 1131 3912 565 
Q 3275 0 1925 0 
L 628 0 
L 628 4666 
z
" transform="scale(0.015625)"/>
       <path id="DejaVuSans-29" d="M 513 4856 
L 1013 4856 
Q 1481 4119 1714 3412 
Q 1947 2706 1947 2009 
Q 1947 1309 1714 600 
Q 1481 -109 1013 -844 
L 513 -844 
Q 928 -128 1133 580 
Q 1338 1288 1338 2009 
Q 1338 2731 1133 3434 
Q 928 4138 513 4856 
z
" transform="scale(0.015625)"/>
      </defs>
      <use xlink:href="#DejaVuSans-41"/>
      <use xlink:href="#DejaVuSans-76" x="62.533203"/>
      <use xlink:href="#DejaVuSans-65" x="121.712891"/>
      <use xlink:href="#DejaVuSans-72" x="183.236328"/>
      <use xlink:href="#DejaVuSans-61" x="224.349609"/>
      <use xlink:href="#DejaVuSans-67" x="285.628906"/>
      <use xlink:href="#DejaVuSans-65" x="349.105469"/>
      <use xlink:href="#DejaVuSans-20" x="410.628906"/>
      <use xlink:href="#DejaVuSans-28" x="442.416016"/>
      <use xlink:href="#DejaVuSans-44" x="481.429688"/>
      <use xlink:href="#DejaVuSans-65" x="558.431641"/>
      <use xlink:href="#DejaVuSans-66" x="619.955078"/>
      <use xlink:href="#DejaVuSans-61" x="655.160156"/>
      <use xlink:href="#DejaVuSans-75" x="716.439453"/>
      <use xlink:href="#DejaVuSans-6c" x="779.818359"/>
      <use xlink:href="#DejaVuSans-74" x="807.601562"/>
      <use xlink:href="#DejaVuSans-29" x="846.810547"/>
     </g>
    </g>
    <g id="line2d_15">
     <path d="M 66.6 69.248562 
L 76.6 69.248562 
L 86.6 69.248562 
" style="fill: none; stroke-dasharray: 2,3.3; stroke-dashoffset: 0; stroke: #ffa500; stroke-width: 2"/>
    </g>
    <g id="text_16">
     <!-- Average (Anticipation) -->
     <g transform="translate(94.6 72.748562)scale(0.1 -0.1)">
      <defs>
       <path id="DejaVuSans-63" d="M 3122 3366 
L 3122 2828 
Q 2878 2963 2633 3030 
Q 2388 3097 2138 3097 
Q 1578 3097 1268 2742 
Q 959 2388 959 1747 
Q 959 1106 1268 751 
Q 1578 397 2138 397 
Q 2388 397 2633 464 
Q 2878 531 3122 666 
L 3122 134 
Q 2881 22 2623 -34 
Q 2366 -91 2075 -91 
Q 1284 -91 818 406 
Q 353 903 353 1747 
Q 353 2603 823 3093 
Q 1294 3584 2113 3584 
Q 2378 3584 2631 3529 
Q 2884 3475 3122 3366 
z
" transform="scale(0.015625)"/>
       <path id="DejaVuSans-70" d="M 1159 525 
L 1159 -1331 
L 581 -1331 
L 581 3500 
L 1159 3500 
L 1159 2969 
Q 1341 3281 1617 3432 
Q 1894 3584 2278 3584 
Q 2916 3584 3314 3078 
Q 3713 2572 3713 1747 
Q 3713 922 3314 415 
Q 2916 -91 2278 -91 
Q 1894 -91 1617 61 
Q 1341 213 1159 525 
z
M 3116 1747 
Q 3116 2381 2855 2742 
Q 2594 3103 2138 3103 
Q 1681 3103 1420 2742 
Q 1159 2381 1159 1747 
Q 1159 1113 1420 752 
Q 1681 391 2138 391 
Q 2594 391 2855 752 
Q 3116 1113 3116 1747 
z
" transform="scale(0.015625)"/>
      </defs>
      <use xlink:href="#DejaVuSans-41"/>
      <use xlink:href="#DejaVuSans-76" x="62.533203"/>
      <use xlink:href="#DejaVuSans-65" x="121.712891"/>
      <use xlink:href="#DejaVuSans-72" x="183.236328"/>
      <use xlink:href="#DejaVuSans-61" x="224.349609"/>
      <use xlink:href="#DejaVuSans-67" x="285.628906"/>
      <use xlink:href="#DejaVuSans-65" x="349.105469"/>
      <use xlink:href="#DejaVuSans-20" x="410.628906"/>
      <use xlink:href="#DejaVuSans-28" x="442.416016"/>
      <use xlink:href="#DejaVuSans-41" x="481.429688"/>
      <use xlink:href="#DejaVuSans-6e" x="549.837891"/>
      <use xlink:href="#DejaVuSans-74" x="613.216797"/>
      <use xlink:href="#DejaVuSans-69" x="652.425781"/>
      <use xlink:href="#DejaVuSans-63" x="680.208984"/>
      <use xlink:href="#DejaVuSans-69" x="735.189453"/>
      <use xlink:href="#DejaVuSans-70" x="762.972656"/>
      <use xlink:href="#DejaVuSans-61" x="826.449219"/>
      <use xlink:href="#DejaVuSans-74" x="887.728516"/>
      <use xlink:href="#DejaVuSans-69" x="926.9375"/>
      <use xlink:href="#DejaVuSans-6f" x="954.720703"/>
      <use xlink:href="#DejaVuSans-6e" x="1015.902344"/>
      <use xlink:href="#DejaVuSans-29" x="1079.28125"/>
     </g>
    </g>
   </g>
  </g>
 </g>
 <defs>
  <clipPath id="p4c9b1c433c">
   <rect x="57.6" y="41.472" width="357.12" height="266.112"/>
  </clipPath>
 </defs>
</svg>
