<?xml version="1.0" encoding="utf-8" standalone="no"?>
<!DOCTYPE svg PUBLIC "-//W3C//DTD SVG 1.1//EN"
  "http://www.w3.org/Graphics/SVG/1.1/DTD/svg11.dtd">
<svg xmlns:xlink="http://www.w3.org/1999/xlink" width="460.8pt" height="345.6pt" viewBox="0 0 460.8 345.6" xmlns="http://www.w3.org/2000/svg" version="1.1">
 <metadata>
  <rdf:RDF xmlns:dc="http://purl.org/dc/elements/1.1/" xmlns:cc="http://creativecommons.org/ns#" xmlns:rdf="http://www.w3.org/1999/02/22-rdf-syntax-ns#">
   <cc:Work>
    <dc:type rdf:resource="http://purl.org/dc/dcmitype/StillImage"/>
    <dc:date>2022-10-10T12:22:18.678874</dc:date>
    <dc:format>image/svg+xml</dc:format>
    <dc:creator>
     <cc:Agent>
      <dc:title>Matplotlib v3.5.3, https://matplotlib.org/</dc:title>
     </cc:Agent>
    </dc:creator>
   </cc:Work>
  </rdf:RDF>
 </metadata>
 <defs>
  <style type="text/css">*{stroke-linejoin: round; stroke-linecap: butt}</style>
 </defs>
 <g id="figure_1">
  <g id="patch_1">
   <path d="M 0 345.6 
L 460.8 345.6 
L 460.8 0 
L 0 0 
z
" style="fill: #ffffff"/>
  </g>
  <g id="axes_1">
   <g id="patch_2">
    <path d="M 57.6 307.584 
L 414.72 307.584 
L 414.72 41.472 
L 57.6 41.472 
z
" style="fill: #ffffff"/>
   </g>
   <g id="matplotlib.axis_1">
    <g id="xtick_1">
     <g id="line2d_1">
      <defs>
       <path id="m504877a529" d="M 0 0 
L 0 3.5 
" style="stroke: #000000; stroke-width: 0.8"/>
      </defs>
      <g>
       <use xlink:href="#m504877a529" x="73.832727" y="307.584" style="stroke: #000000; stroke-width: 0.8"/>
      </g>
     </g>
     <g id="text_1">
      <!-- 0 -->
      <g transform="translate(70.651477 322.182437)scale(0.1 -0.1)">
       <defs>
        <path id="DejaVuSans-30" d="M 2034 4250 
Q 1547 4250 1301 3770 
Q 1056 3291 1056 2328 
Q 1056 1369 1301 889 
Q 1547 409 2034 409 
Q 2525 409 2770 889 
Q 3016 1369 3016 2328 
Q 3016 3291 2770 3770 
Q 2525 4250 2034 4250 
z
M 2034 4750 
Q 2819 4750 3233 4129 
Q 3647 3509 3647 2328 
Q 3647 1150 3233 529 
Q 2819 -91 2034 -91 
Q 1250 -91 836 529 
Q 422 1150 422 2328 
Q 422 3509 836 4129 
Q 1250 4750 2034 4750 
z
" transform="scale(0.015625)"/>
       </defs>
       <use xlink:href="#DejaVuSans-30"/>
      </g>
     </g>
    </g>
    <g id="xtick_2">
     <g id="line2d_2">
      <g>
       <use xlink:href="#m504877a529" x="138.776625" y="307.584" style="stroke: #000000; stroke-width: 0.8"/>
      </g>
     </g>
     <g id="text_2">
      <!-- 1000 -->
      <g transform="translate(126.051625 322.182437)scale(0.1 -0.1)">
       <defs>
        <path id="DejaVuSans-31" d="M 794 531 
L 1825 531 
L 1825 4091 
L 703 3866 
L 703 4441 
L 1819 4666 
L 2450 4666 
L 2450 531 
L 3481 531 
L 3481 0 
L 794 0 
L 794 531 
z
" transform="scale(0.015625)"/>
       </defs>
       <use xlink:href="#DejaVuSans-31"/>
       <use xlink:href="#DejaVuSans-30" x="63.623047"/>
       <use xlink:href="#DejaVuSans-30" x="127.246094"/>
       <use xlink:href="#DejaVuSans-30" x="190.869141"/>
      </g>
     </g>
    </g>
    <g id="xtick_3">
     <g id="line2d_3">
      <g>
       <use xlink:href="#m504877a529" x="203.720523" y="307.584" style="stroke: #000000; stroke-width: 0.8"/>
      </g>
     </g>
     <g id="text_3">
      <!-- 2000 -->
      <g transform="translate(190.995523 322.182437)scale(0.1 -0.1)">
       <defs>
        <path id="DejaVuSans-32" d="M 1228 531 
L 3431 531 
L 3431 0 
L 469 0 
L 469 531 
Q 828 903 1448 1529 
Q 2069 2156 2228 2338 
Q 2531 2678 2651 2914 
Q 2772 3150 2772 3378 
Q 2772 3750 2511 3984 
Q 2250 4219 1831 4219 
Q 1534 4219 1204 4116 
Q 875 4013 500 3803 
L 500 4441 
Q 881 4594 1212 4672 
Q 1544 4750 1819 4750 
Q 2544 4750 2975 4387 
Q 3406 4025 3406 3419 
Q 3406 3131 3298 2873 
Q 3191 2616 2906 2266 
Q 2828 2175 2409 1742 
Q 1991 1309 1228 531 
z
" transform="scale(0.015625)"/>
       </defs>
       <use xlink:href="#DejaVuSans-32"/>
       <use xlink:href="#DejaVuSans-30" x="63.623047"/>
       <use xlink:href="#DejaVuSans-30" x="127.246094"/>
       <use xlink:href="#DejaVuSans-30" x="190.869141"/>
      </g>
     </g>
    </g>
    <g id="xtick_4">
     <g id="line2d_4">
      <g>
       <use xlink:href="#m504877a529" x="268.664421" y="307.584" style="stroke: #000000; stroke-width: 0.8"/>
      </g>
     </g>
     <g id="text_4">
      <!-- 3000 -->
      <g transform="translate(255.939421 322.182437)scale(0.1 -0.1)">
       <defs>
        <path id="DejaVuSans-33" d="M 2597 2516 
Q 3050 2419 3304 2112 
Q 3559 1806 3559 1356 
Q 3559 666 3084 287 
Q 2609 -91 1734 -91 
Q 1441 -91 1130 -33 
Q 819 25 488 141 
L 488 750 
Q 750 597 1062 519 
Q 1375 441 1716 441 
Q 2309 441 2620 675 
Q 2931 909 2931 1356 
Q 2931 1769 2642 2001 
Q 2353 2234 1838 2234 
L 1294 2234 
L 1294 2753 
L 1863 2753 
Q 2328 2753 2575 2939 
Q 2822 3125 2822 3475 
Q 2822 3834 2567 4026 
Q 2313 4219 1838 4219 
Q 1578 4219 1281 4162 
Q 984 4106 628 3988 
L 628 4550 
Q 988 4650 1302 4700 
Q 1616 4750 1894 4750 
Q 2613 4750 3031 4423 
Q 3450 4097 3450 3541 
Q 3450 3153 3228 2886 
Q 3006 2619 2597 2516 
z
" transform="scale(0.015625)"/>
       </defs>
       <use xlink:href="#DejaVuSans-33"/>
       <use xlink:href="#DejaVuSans-30" x="63.623047"/>
       <use xlink:href="#DejaVuSans-30" x="127.246094"/>
       <use xlink:href="#DejaVuSans-30" x="190.869141"/>
      </g>
     </g>
    </g>
    <g id="xtick_5">
     <g id="line2d_5">
      <g>
       <use xlink:href="#m504877a529" x="333.608319" y="307.584" style="stroke: #000000; stroke-width: 0.8"/>
      </g>
     </g>
     <g id="text_5">
      <!-- 4000 -->
      <g transform="translate(320.883319 322.182437)scale(0.1 -0.1)">
       <defs>
        <path id="DejaVuSans-34" d="M 2419 4116 
L 825 1625 
L 2419 1625 
L 2419 4116 
z
M 2253 4666 
L 3047 4666 
L 3047 1625 
L 3713 1625 
L 3713 1100 
L 3047 1100 
L 3047 0 
L 2419 0 
L 2419 1100 
L 313 1100 
L 313 1709 
L 2253 4666 
z
" transform="scale(0.015625)"/>
       </defs>
       <use xlink:href="#DejaVuSans-34"/>
       <use xlink:href="#DejaVuSans-30" x="63.623047"/>
       <use xlink:href="#DejaVuSans-30" x="127.246094"/>
       <use xlink:href="#DejaVuSans-30" x="190.869141"/>
      </g>
     </g>
    </g>
    <g id="xtick_6">
     <g id="line2d_6">
      <g>
       <use xlink:href="#m504877a529" x="398.552217" y="307.584" style="stroke: #000000; stroke-width: 0.8"/>
      </g>
     </g>
     <g id="text_6">
      <!-- 5000 -->
      <g transform="translate(385.827217 322.182437)scale(0.1 -0.1)">
       <defs>
        <path id="DejaVuSans-35" d="M 691 4666 
L 3169 4666 
L 3169 4134 
L 1269 4134 
L 1269 2991 
Q 1406 3038 1543 3061 
Q 1681 3084 1819 3084 
Q 2600 3084 3056 2656 
Q 3513 2228 3513 1497 
Q 3513 744 3044 326 
Q 2575 -91 1722 -91 
Q 1428 -91 1123 -41 
Q 819 9 494 109 
L 494 744 
Q 775 591 1075 516 
Q 1375 441 1709 441 
Q 2250 441 2565 725 
Q 2881 1009 2881 1497 
Q 2881 1984 2565 2268 
Q 2250 2553 1709 2553 
Q 1456 2553 1204 2497 
Q 953 2441 691 2322 
L 691 4666 
z
" transform="scale(0.015625)"/>
       </defs>
       <use xlink:href="#DejaVuSans-35"/>
       <use xlink:href="#DejaVuSans-30" x="63.623047"/>
       <use xlink:href="#DejaVuSans-30" x="127.246094"/>
       <use xlink:href="#DejaVuSans-30" x="190.869141"/>
      </g>
     </g>
    </g>
    <g id="text_7">
     <!-- Number of Orders -->
     <g transform="translate(191.261562 335.860562)scale(0.1 -0.1)">
      <defs>
       <path id="DejaVuSans-4e" d="M 628 4666 
L 1478 4666 
L 3547 763 
L 3547 4666 
L 4159 4666 
L 4159 0 
L 3309 0 
L 1241 3903 
L 1241 0 
L 628 0 
L 628 4666 
z
" transform="scale(0.015625)"/>
       <path id="DejaVuSans-75" d="M 544 1381 
L 544 3500 
L 1119 3500 
L 1119 1403 
Q 1119 906 1312 657 
Q 1506 409 1894 409 
Q 2359 409 2629 706 
Q 2900 1003 2900 1516 
L 2900 3500 
L 3475 3500 
L 3475 0 
L 2900 0 
L 2900 538 
Q 2691 219 2414 64 
Q 2138 -91 1772 -91 
Q 1169 -91 856 284 
Q 544 659 544 1381 
z
M 1991 3584 
L 1991 3584 
z
" transform="scale(0.015625)"/>
       <path id="DejaVuSans-6d" d="M 3328 2828 
Q 3544 3216 3844 3400 
Q 4144 3584 4550 3584 
Q 5097 3584 5394 3201 
Q 5691 2819 5691 2113 
L 5691 0 
L 5113 0 
L 5113 2094 
Q 5113 2597 4934 2840 
Q 4756 3084 4391 3084 
Q 3944 3084 3684 2787 
Q 3425 2491 3425 1978 
L 3425 0 
L 2847 0 
L 2847 2094 
Q 2847 2600 2669 2842 
Q 2491 3084 2119 3084 
Q 1678 3084 1418 2786 
Q 1159 2488 1159 1978 
L 1159 0 
L 581 0 
L 581 3500 
L 1159 3500 
L 1159 2956 
Q 1356 3278 1631 3431 
Q 1906 3584 2284 3584 
Q 2666 3584 2933 3390 
Q 3200 3197 3328 2828 
z
" transform="scale(0.015625)"/>
       <path id="DejaVuSans-62" d="M 3116 1747 
Q 3116 2381 2855 2742 
Q 2594 3103 2138 3103 
Q 1681 3103 1420 2742 
Q 1159 2381 1159 1747 
Q 1159 1113 1420 752 
Q 1681 391 2138 391 
Q 2594 391 2855 752 
Q 3116 1113 3116 1747 
z
M 1159 2969 
Q 1341 3281 1617 3432 
Q 1894 3584 2278 3584 
Q 2916 3584 3314 3078 
Q 3713 2572 3713 1747 
Q 3713 922 3314 415 
Q 2916 -91 2278 -91 
Q 1894 -91 1617 61 
Q 1341 213 1159 525 
L 1159 0 
L 581 0 
L 581 4863 
L 1159 4863 
L 1159 2969 
z
" transform="scale(0.015625)"/>
       <path id="DejaVuSans-65" d="M 3597 1894 
L 3597 1613 
L 953 1613 
Q 991 1019 1311 708 
Q 1631 397 2203 397 
Q 2534 397 2845 478 
Q 3156 559 3463 722 
L 3463 178 
Q 3153 47 2828 -22 
Q 2503 -91 2169 -91 
Q 1331 -91 842 396 
Q 353 884 353 1716 
Q 353 2575 817 3079 
Q 1281 3584 2069 3584 
Q 2775 3584 3186 3129 
Q 3597 2675 3597 1894 
z
M 3022 2063 
Q 3016 2534 2758 2815 
Q 2500 3097 2075 3097 
Q 1594 3097 1305 2825 
Q 1016 2553 972 2059 
L 3022 2063 
z
" transform="scale(0.015625)"/>
       <path id="DejaVuSans-72" d="M 2631 2963 
Q 2534 3019 2420 3045 
Q 2306 3072 2169 3072 
Q 1681 3072 1420 2755 
Q 1159 2438 1159 1844 
L 1159 0 
L 581 0 
L 581 3500 
L 1159 3500 
L 1159 2956 
Q 1341 3275 1631 3429 
Q 1922 3584 2338 3584 
Q 2397 3584 2469 3576 
Q 2541 3569 2628 3553 
L 2631 2963 
z
" transform="scale(0.015625)"/>
       <path id="DejaVuSans-20" transform="scale(0.015625)"/>
       <path id="DejaVuSans-6f" d="M 1959 3097 
Q 1497 3097 1228 2736 
Q 959 2375 959 1747 
Q 959 1119 1226 758 
Q 1494 397 1959 397 
Q 2419 397 2687 759 
Q 2956 1122 2956 1747 
Q 2956 2369 2687 2733 
Q 2419 3097 1959 3097 
z
M 1959 3584 
Q 2709 3584 3137 3096 
Q 3566 2609 3566 1747 
Q 3566 888 3137 398 
Q 2709 -91 1959 -91 
Q 1206 -91 779 398 
Q 353 888 353 1747 
Q 353 2609 779 3096 
Q 1206 3584 1959 3584 
z
" transform="scale(0.015625)"/>
       <path id="DejaVuSans-66" d="M 2375 4863 
L 2375 4384 
L 1825 4384 
Q 1516 4384 1395 4259 
Q 1275 4134 1275 3809 
L 1275 3500 
L 2222 3500 
L 2222 3053 
L 1275 3053 
L 1275 0 
L 697 0 
L 697 3053 
L 147 3053 
L 147 3500 
L 697 3500 
L 697 3744 
Q 697 4328 969 4595 
Q 1241 4863 1831 4863 
L 2375 4863 
z
" transform="scale(0.015625)"/>
       <path id="DejaVuSans-4f" d="M 2522 4238 
Q 1834 4238 1429 3725 
Q 1025 3213 1025 2328 
Q 1025 1447 1429 934 
Q 1834 422 2522 422 
Q 3209 422 3611 934 
Q 4013 1447 4013 2328 
Q 4013 3213 3611 3725 
Q 3209 4238 2522 4238 
z
M 2522 4750 
Q 3503 4750 4090 4092 
Q 4678 3434 4678 2328 
Q 4678 1225 4090 567 
Q 3503 -91 2522 -91 
Q 1538 -91 948 565 
Q 359 1222 359 2328 
Q 359 3434 948 4092 
Q 1538 4750 2522 4750 
z
" transform="scale(0.015625)"/>
       <path id="DejaVuSans-64" d="M 2906 2969 
L 2906 4863 
L 3481 4863 
L 3481 0 
L 2906 0 
L 2906 525 
Q 2725 213 2448 61 
Q 2172 -91 1784 -91 
Q 1150 -91 751 415 
Q 353 922 353 1747 
Q 353 2572 751 3078 
Q 1150 3584 1784 3584 
Q 2172 3584 2448 3432 
Q 2725 3281 2906 2969 
z
M 947 1747 
Q 947 1113 1208 752 
Q 1469 391 1925 391 
Q 2381 391 2643 752 
Q 2906 1113 2906 1747 
Q 2906 2381 2643 2742 
Q 2381 3103 1925 3103 
Q 1469 3103 1208 2742 
Q 947 2381 947 1747 
z
" transform="scale(0.015625)"/>
       <path id="DejaVuSans-73" d="M 2834 3397 
L 2834 2853 
Q 2591 2978 2328 3040 
Q 2066 3103 1784 3103 
Q 1356 3103 1142 2972 
Q 928 2841 928 2578 
Q 928 2378 1081 2264 
Q 1234 2150 1697 2047 
L 1894 2003 
Q 2506 1872 2764 1633 
Q 3022 1394 3022 966 
Q 3022 478 2636 193 
Q 2250 -91 1575 -91 
Q 1294 -91 989 -36 
Q 684 19 347 128 
L 347 722 
Q 666 556 975 473 
Q 1284 391 1588 391 
Q 1994 391 2212 530 
Q 2431 669 2431 922 
Q 2431 1156 2273 1281 
Q 2116 1406 1581 1522 
L 1381 1569 
Q 847 1681 609 1914 
Q 372 2147 372 2553 
Q 372 3047 722 3315 
Q 1072 3584 1716 3584 
Q 2034 3584 2315 3537 
Q 2597 3491 2834 3397 
z
" transform="scale(0.015625)"/>
      </defs>
      <use xlink:href="#DejaVuSans-4e"/>
      <use xlink:href="#DejaVuSans-75" x="74.804688"/>
      <use xlink:href="#DejaVuSans-6d" x="138.183594"/>
      <use xlink:href="#DejaVuSans-62" x="235.595703"/>
      <use xlink:href="#DejaVuSans-65" x="299.072266"/>
      <use xlink:href="#DejaVuSans-72" x="360.595703"/>
      <use xlink:href="#DejaVuSans-20" x="401.708984"/>
      <use xlink:href="#DejaVuSans-6f" x="433.496094"/>
      <use xlink:href="#DejaVuSans-66" x="494.677734"/>
      <use xlink:href="#DejaVuSans-20" x="529.882812"/>
      <use xlink:href="#DejaVuSans-4f" x="561.669922"/>
      <use xlink:href="#DejaVuSans-72" x="640.380859"/>
      <use xlink:href="#DejaVuSans-64" x="679.744141"/>
      <use xlink:href="#DejaVuSans-65" x="743.220703"/>
      <use xlink:href="#DejaVuSans-72" x="804.744141"/>
      <use xlink:href="#DejaVuSans-73" x="845.857422"/>
     </g>
    </g>
   </g>
   <g id="matplotlib.axis_2">
    <g id="ytick_1">
     <g id="line2d_7">
      <defs>
       <path id="m06b1c0c220" d="M 0 0 
L -3.5 0 
" style="stroke: #000000; stroke-width: 0.8"/>
      </defs>
      <g>
       <use xlink:href="#m06b1c0c220" x="57.6" y="306.287656" style="stroke: #000000; stroke-width: 0.8"/>
      </g>
     </g>
     <g id="text_8">
      <!-- 0 -->
      <g transform="translate(44.2375 310.086875)scale(0.1 -0.1)">
       <use xlink:href="#DejaVuSans-30"/>
      </g>
     </g>
    </g>
    <g id="ytick_2">
     <g id="line2d_8">
      <g>
       <use xlink:href="#m06b1c0c220" x="57.6" y="273.171934" style="stroke: #000000; stroke-width: 0.8"/>
      </g>
     </g>
     <g id="text_9">
      <!-- 500 -->
      <g transform="translate(31.5125 276.971153)scale(0.1 -0.1)">
       <use xlink:href="#DejaVuSans-35"/>
       <use xlink:href="#DejaVuSans-30" x="63.623047"/>
       <use xlink:href="#DejaVuSans-30" x="127.246094"/>
      </g>
     </g>
    </g>
    <g id="ytick_3">
     <g id="line2d_9">
      <g>
       <use xlink:href="#m06b1c0c220" x="57.6" y="240.056213" style="stroke: #000000; stroke-width: 0.8"/>
      </g>
     </g>
     <g id="text_10">
      <!-- 1000 -->
      <g transform="translate(25.15 243.855432)scale(0.1 -0.1)">
       <use xlink:href="#DejaVuSans-31"/>
       <use xlink:href="#DejaVuSans-30" x="63.623047"/>
       <use xlink:href="#DejaVuSans-30" x="127.246094"/>
       <use xlink:href="#DejaVuSans-30" x="190.869141"/>
      </g>
     </g>
    </g>
    <g id="ytick_4">
     <g id="line2d_10">
      <g>
       <use xlink:href="#m06b1c0c220" x="57.6" y="206.940491" style="stroke: #000000; stroke-width: 0.8"/>
      </g>
     </g>
     <g id="text_11">
      <!-- 1500 -->
      <g transform="translate(25.15 210.73971)scale(0.1 -0.1)">
       <use xlink:href="#DejaVuSans-31"/>
       <use xlink:href="#DejaVuSans-35" x="63.623047"/>
       <use xlink:href="#DejaVuSans-30" x="127.246094"/>
       <use xlink:href="#DejaVuSans-30" x="190.869141"/>
      </g>
     </g>
    </g>
    <g id="ytick_5">
     <g id="line2d_11">
      <g>
       <use xlink:href="#m06b1c0c220" x="57.6" y="173.82477" style="stroke: #000000; stroke-width: 0.8"/>
      </g>
     </g>
     <g id="text_12">
      <!-- 2000 -->
      <g transform="translate(25.15 177.623989)scale(0.1 -0.1)">
       <use xlink:href="#DejaVuSans-32"/>
       <use xlink:href="#DejaVuSans-30" x="63.623047"/>
       <use xlink:href="#DejaVuSans-30" x="127.246094"/>
       <use xlink:href="#DejaVuSans-30" x="190.869141"/>
      </g>
     </g>
    </g>
    <g id="ytick_6">
     <g id="line2d_12">
      <g>
       <use xlink:href="#m06b1c0c220" x="57.6" y="140.709048" style="stroke: #000000; stroke-width: 0.8"/>
      </g>
     </g>
     <g id="text_13">
      <!-- 2500 -->
      <g transform="translate(25.15 144.508267)scale(0.1 -0.1)">
       <use xlink:href="#DejaVuSans-32"/>
       <use xlink:href="#DejaVuSans-35" x="63.623047"/>
       <use xlink:href="#DejaVuSans-30" x="127.246094"/>
       <use xlink:href="#DejaVuSans-30" x="190.869141"/>
      </g>
     </g>
    </g>
    <g id="ytick_7">
     <g id="line2d_13">
      <g>
       <use xlink:href="#m06b1c0c220" x="57.6" y="107.593327" style="stroke: #000000; stroke-width: 0.8"/>
      </g>
     </g>
     <g id="text_14">
      <!-- 3000 -->
      <g transform="translate(25.15 111.392545)scale(0.1 -0.1)">
       <use xlink:href="#DejaVuSans-33"/>
       <use xlink:href="#DejaVuSans-30" x="63.623047"/>
       <use xlink:href="#DejaVuSans-30" x="127.246094"/>
       <use xlink:href="#DejaVuSans-30" x="190.869141"/>
      </g>
     </g>
    </g>
    <g id="ytick_8">
     <g id="line2d_14">
      <g>
       <use xlink:href="#m06b1c0c220" x="57.6" y="74.477605" style="stroke: #000000; stroke-width: 0.8"/>
      </g>
     </g>
     <g id="text_15">
      <!-- 3500 -->
      <g transform="translate(25.15 78.276824)scale(0.1 -0.1)">
       <use xlink:href="#DejaVuSans-33"/>
       <use xlink:href="#DejaVuSans-35" x="63.623047"/>
       <use xlink:href="#DejaVuSans-30" x="127.246094"/>
       <use xlink:href="#DejaVuSans-30" x="190.869141"/>
      </g>
     </g>
    </g>
    <g id="text_16">
     <!-- Waiting Time/s -->
     <g transform="translate(19.070312 211.410031)rotate(-90)scale(0.1 -0.1)">
      <defs>
       <path id="DejaVuSans-57" d="M 213 4666 
L 850 4666 
L 1831 722 
L 2809 4666 
L 3519 4666 
L 4500 722 
L 5478 4666 
L 6119 4666 
L 4947 0 
L 4153 0 
L 3169 4050 
L 2175 0 
L 1381 0 
L 213 4666 
z
" transform="scale(0.015625)"/>
       <path id="DejaVuSans-61" d="M 2194 1759 
Q 1497 1759 1228 1600 
Q 959 1441 959 1056 
Q 959 750 1161 570 
Q 1363 391 1709 391 
Q 2188 391 2477 730 
Q 2766 1069 2766 1631 
L 2766 1759 
L 2194 1759 
z
M 3341 1997 
L 3341 0 
L 2766 0 
L 2766 531 
Q 2569 213 2275 61 
Q 1981 -91 1556 -91 
Q 1019 -91 701 211 
Q 384 513 384 1019 
Q 384 1609 779 1909 
Q 1175 2209 1959 2209 
L 2766 2209 
L 2766 2266 
Q 2766 2663 2505 2880 
Q 2244 3097 1772 3097 
Q 1472 3097 1187 3025 
Q 903 2953 641 2809 
L 641 3341 
Q 956 3463 1253 3523 
Q 1550 3584 1831 3584 
Q 2591 3584 2966 3190 
Q 3341 2797 3341 1997 
z
" transform="scale(0.015625)"/>
       <path id="DejaVuSans-69" d="M 603 3500 
L 1178 3500 
L 1178 0 
L 603 0 
L 603 3500 
z
M 603 4863 
L 1178 4863 
L 1178 4134 
L 603 4134 
L 603 4863 
z
" transform="scale(0.015625)"/>
       <path id="DejaVuSans-74" d="M 1172 4494 
L 1172 3500 
L 2356 3500 
L 2356 3053 
L 1172 3053 
L 1172 1153 
Q 1172 725 1289 603 
Q 1406 481 1766 481 
L 2356 481 
L 2356 0 
L 1766 0 
Q 1100 0 847 248 
Q 594 497 594 1153 
L 594 3053 
L 172 3053 
L 172 3500 
L 594 3500 
L 594 4494 
L 1172 4494 
z
" transform="scale(0.015625)"/>
       <path id="DejaVuSans-6e" d="M 3513 2113 
L 3513 0 
L 2938 0 
L 2938 2094 
Q 2938 2591 2744 2837 
Q 2550 3084 2163 3084 
Q 1697 3084 1428 2787 
Q 1159 2491 1159 1978 
L 1159 0 
L 581 0 
L 581 3500 
L 1159 3500 
L 1159 2956 
Q 1366 3272 1645 3428 
Q 1925 3584 2291 3584 
Q 2894 3584 3203 3211 
Q 3513 2838 3513 2113 
z
" transform="scale(0.015625)"/>
       <path id="DejaVuSans-67" d="M 2906 1791 
Q 2906 2416 2648 2759 
Q 2391 3103 1925 3103 
Q 1463 3103 1205 2759 
Q 947 2416 947 1791 
Q 947 1169 1205 825 
Q 1463 481 1925 481 
Q 2391 481 2648 825 
Q 2906 1169 2906 1791 
z
M 3481 434 
Q 3481 -459 3084 -895 
Q 2688 -1331 1869 -1331 
Q 1566 -1331 1297 -1286 
Q 1028 -1241 775 -1147 
L 775 -588 
Q 1028 -725 1275 -790 
Q 1522 -856 1778 -856 
Q 2344 -856 2625 -561 
Q 2906 -266 2906 331 
L 2906 616 
Q 2728 306 2450 153 
Q 2172 0 1784 0 
Q 1141 0 747 490 
Q 353 981 353 1791 
Q 353 2603 747 3093 
Q 1141 3584 1784 3584 
Q 2172 3584 2450 3431 
Q 2728 3278 2906 2969 
L 2906 3500 
L 3481 3500 
L 3481 434 
z
" transform="scale(0.015625)"/>
       <path id="DejaVuSans-54" d="M -19 4666 
L 3928 4666 
L 3928 4134 
L 2272 4134 
L 2272 0 
L 1638 0 
L 1638 4134 
L -19 4134 
L -19 4666 
z
" transform="scale(0.015625)"/>
       <path id="DejaVuSans-2f" d="M 1625 4666 
L 2156 4666 
L 531 -594 
L 0 -594 
L 1625 4666 
z
" transform="scale(0.015625)"/>
      </defs>
      <use xlink:href="#DejaVuSans-57"/>
      <use xlink:href="#DejaVuSans-61" x="92.501953"/>
      <use xlink:href="#DejaVuSans-69" x="153.78125"/>
      <use xlink:href="#DejaVuSans-74" x="181.564453"/>
      <use xlink:href="#DejaVuSans-69" x="220.773438"/>
      <use xlink:href="#DejaVuSans-6e" x="248.556641"/>
      <use xlink:href="#DejaVuSans-67" x="311.935547"/>
      <use xlink:href="#DejaVuSans-20" x="375.412109"/>
      <use xlink:href="#DejaVuSans-54" x="407.199219"/>
      <use xlink:href="#DejaVuSans-69" x="465.158203"/>
      <use xlink:href="#DejaVuSans-6d" x="492.941406"/>
      <use xlink:href="#DejaVuSans-65" x="590.353516"/>
      <use xlink:href="#DejaVuSans-2f" x="651.876953"/>
      <use xlink:href="#DejaVuSans-73" x="685.568359"/>
     </g>
    </g>
   </g>
   <g id="line2d_15">
    <path d="M 73.832727 295.488 
L 74.092503 276.846045 
L 74.222391 274.677629 
L 74.287335 274.887023 
L 74.482166 269.110655 
L 74.54711 268.829788 
L 74.612054 269.012102 
L 74.676998 266.847875 
L 74.741942 267.76614 
L 74.806886 267.207861 
L 74.87183 268.279293 
L 74.936774 268.034562 
L 75.001717 268.265525 
L 75.196549 265.856733 
L 75.391381 266.87611 
L 75.845988 262.519378 
L 75.910932 262.738387 
L 76.04082 262.392009 
L 76.105764 262.648759 
L 76.170708 262.606579 
L 76.430483 261.949118 
L 76.495427 262.174691 
L 76.690259 260.138003 
L 76.755203 260.0039 
L 76.820147 260.147562 
L 77.079922 258.805974 
L 77.144866 257.917229 
L 77.20981 257.98737 
L 77.274754 258.002435 
L 77.339698 257.792329 
L 77.534529 256.8001 
L 77.664417 256.417407 
L 77.729361 256.592909 
L 77.794305 256.350195 
L 77.989137 257.166591 
L 78.443744 255.274038 
L 78.508688 255.272611 
L 78.70352 254.672643 
L 78.768464 255.185482 
L 78.833407 254.957643 
L 78.898351 255.100176 
L 78.963295 254.934026 
L 79.158127 255.514005 
L 79.352959 254.456345 
L 79.417902 254.455462 
L 79.482846 254.200402 
L 79.54779 254.362748 
L 80.132285 252.730802 
L 80.197229 252.839741 
L 80.262173 252.799521 
L 80.392061 252.360413 
L 80.521949 252.922573 
L 80.586893 252.692441 
L 80.651837 252.763115 
L 80.71678 252.760492 
L 80.781724 252.589635 
L 81.236332 253.724837 
L 81.431163 253.526982 
L 81.496107 253.262919 
L 81.561051 253.45128 
L 81.625995 253.542522 
L 81.950715 252.370517 
L 82.015658 252.375121 
L 82.145546 251.87767 
L 82.21049 252.068312 
L 82.470266 252.205066 
L 82.665097 251.573582 
L 82.859929 251.83841 
L 83.054761 251.768401 
L 83.119705 251.812103 
L 83.184649 251.709159 
L 83.314536 252.052425 
L 83.509368 251.535853 
L 83.574312 251.775611 
L 83.639256 251.698731 
L 83.769144 251.580725 
L 84.028919 251.567524 
L 84.288695 251.23841 
L 84.418583 251.011577 
L 84.483527 251.192311 
L 84.54847 251.139835 
L 84.613414 251.146737 
L 84.743302 250.95414 
L 85.003078 251.072139 
L 85.132966 251.277024 
L 85.197909 251.301618 
L 85.262853 251.160678 
L 85.327797 251.241778 
L 85.652517 251.652912 
L 85.912292 251.278055 
L 85.977236 251.315601 
L 86.107124 251.13958 
L 86.237012 251.327547 
L 86.3669 251.409094 
L 86.431843 251.521424 
L 86.496787 251.422369 
L 86.821507 251.48235 
L 86.951395 251.545467 
L 87.016339 251.428287 
L 87.081282 251.481411 
L 87.730721 252.059891 
L 88.250273 251.567236 
L 88.315216 251.650589 
L 88.510048 251.525147 
L 88.574992 251.599242 
L 88.639936 251.488219 
L 88.70488 251.619183 
L 88.899712 251.362833 
L 88.964655 251.315838 
L 89.094543 251.118424 
L 89.159487 251.077707 
L 89.354319 251.253872 
L 89.549151 251.049901 
L 89.614094 251.150064 
L 89.743982 250.840699 
L 89.808926 250.869762 
L 89.87387 250.936532 
L 89.938814 250.854431 
L 90.133646 250.886298 
L 90.19859 250.796016 
L 90.393421 251.014271 
L 90.588253 250.758004 
L 90.718141 250.921009 
L 90.783085 250.861284 
L 90.912972 250.838919 
L 91.172748 250.570357 
L 91.237692 250.5664 
L 91.302636 250.447069 
L 91.36758 250.489889 
L 91.757243 250.585027 
L 91.952075 250.627149 
L 92.276794 250.442311 
L 92.471626 250.561836 
L 92.601514 250.54445 
L 92.796345 250.769007 
L 93.056121 250.358395 
L 93.121065 250.457326 
L 93.186009 250.383781 
L 93.250953 250.389837 
L 93.380841 250.642922 
L 93.445784 250.554063 
L 93.835448 250.262132 
L 93.900392 250.400886 
L 93.965336 250.300359 
L 94.419943 250.498666 
L 94.484887 250.42351 
L 94.549831 250.502775 
L 94.679718 250.5616 
L 94.744662 250.630396 
L 94.939494 250.260454 
L 95.069382 250.347859 
L 95.264214 250.081963 
L 95.459045 249.92602 
L 95.588933 249.911612 
L 95.718821 249.716623 
L 95.848709 249.757398 
L 96.04354 249.619794 
L 96.238372 249.641235 
L 96.433204 249.521853 
L 96.563092 249.532035 
L 96.692979 249.625994 
L 96.887811 249.390642 
L 97.017699 249.370709 
L 97.212531 249.364413 
L 97.53725 249.417382 
L 97.732082 249.247196 
L 97.926913 249.121965 
L 98.381521 248.819244 
L 98.641296 248.592241 
L 98.836128 248.636 
L 98.966016 248.70526 
L 99.03096 248.804687 
L 99.095904 248.734006 
L 99.225791 248.685164 
L 99.420623 248.632758 
L 99.550511 248.755017 
L 99.615455 248.697777 
L 99.810286 248.814845 
L 100.005118 248.886622 
L 100.135006 248.794106 
L 100.264894 248.706935 
L 100.394782 248.680414 
L 100.784445 248.516029 
L 100.979277 248.663839 
L 101.36894 248.387568 
L 101.888491 248.333241 
L 102.083323 248.221051 
L 102.213211 248.247104 
L 102.732762 248.10812 
L 102.86265 248.145886 
L 103.512089 247.949666 
L 103.901752 247.999036 
L 104.161528 247.694793 
L 104.291415 247.654907 
L 105.525349 247.414518 
L 105.655237 247.48861 
L 105.850069 247.428852 
L 105.915013 247.50844 
L 105.979957 247.454147 
L 106.239732 247.337145 
L 106.759283 247.54679 
L 107.084003 247.429744 
L 107.343779 247.475587 
L 107.603554 247.432535 
L 108.058161 247.541536 
L 108.188049 247.455573 
L 108.382881 247.539391 
L 108.512769 247.563319 
L 108.837488 247.549232 
L 109.162208 247.684803 
L 109.357039 247.557109 
L 109.681759 247.690501 
L 111.435244 247.852204 
L 111.630076 247.942977 
L 113.318617 248.553319 
L 113.513449 248.533057 
L 113.708281 248.602088 
L 113.838168 248.5661 
L 114.097944 248.686275 
L 114.35772 248.723712 
L 114.942215 248.886192 
L 115.20199 248.964282 
L 116.176149 249.095884 
L 116.435924 249.159279 
L 116.6957 249.079304 
L 117.020419 249.141673 
L 117.410083 249.168907 
L 117.994578 249.180901 
L 118.514129 249.250797 
L 118.838848 249.24821 
L 119.03368 249.246212 
L 119.3584 249.192629 
L 119.748063 248.969661 
L 120.007839 248.9997 
L 120.462446 248.954674 
L 120.787165 248.80049 
L 121.241773 248.824706 
L 121.566492 248.638967 
L 122.215931 248.468186 
L 122.800426 248.327875 
L 124.35908 247.721366 
L 124.618855 247.618436 
L 125.073463 247.480809 
L 125.268294 247.445503 
L 127.411443 246.247243 
L 127.801106 246.011842 
L 128.450545 245.694256 
L 129.099984 245.205331 
L 129.35976 245.076764 
L 129.879311 244.692626 
L 130.398862 244.325416 
L 130.723582 244.046628 
L 131.632796 243.410338 
L 132.02246 243.228763 
L 132.477067 242.85751 
L 132.736843 242.723238 
L 133.061562 242.57187 
L 133.321338 242.429121 
L 133.581113 242.273125 
L 133.711001 242.181709 
L 134.100664 241.943265 
L 134.36044 241.876247 
L 135.52943 241.046516 
L 136.178869 240.677934 
L 142.34854 236.623694 
L 142.543371 236.547339 
L 142.868091 236.249891 
L 143.19281 236.085695 
L 143.387642 236.033832 
L 143.907193 235.747323 
L 144.296856 235.529094 
L 144.751464 235.139555 
L 145.400903 234.820969 
L 146.050342 234.340346 
L 146.310117 234.15404 
L 146.829668 233.898724 
L 147.284276 233.552671 
L 147.738883 233.240259 
L 148.842929 232.61369 
L 149.232593 232.447014 
L 150.336639 231.52181 
L 151.18091 230.966417 
L 151.505629 230.733442 
L 152.220012 230.326858 
L 152.869451 229.912292 
L 153.129227 229.80653 
L 154.038441 229.156331 
L 155.272375 228.264152 
L 155.532151 228.128674 
L 155.791926 227.955035 
L 156.376421 227.526581 
L 157.545412 226.711806 
L 158.259795 226.164354 
L 162.611036 222.927736 
L 163.000699 222.715805 
L 163.455306 222.317832 
L 163.715082 222.124598 
L 164.364521 221.631825 
L 168.391043 218.718568 
L 169.365201 217.946631 
L 169.689921 217.693995 
L 170.469247 217.094734 
L 170.923855 216.81546 
L 174.820488 214.129201 
L 175.210152 213.908614 
L 177.288357 212.427867 
L 179.431505 210.893085 
L 181.055103 209.770211 
L 181.314878 209.56864 
L 182.094205 208.975857 
L 182.808588 208.489086 
L 185.01668 206.94171 
L 185.536232 206.556929 
L 186.055783 206.150978 
L 186.445446 205.934466 
L 187.029941 205.50464 
L 189.757585 203.745071 
L 190.147248 203.451583 
L 190.796687 203.107139 
L 191.316239 202.820243 
L 192.095565 202.305293 
L 193.199612 201.554482 
L 194.108826 200.88451 
L 194.563433 200.643452 
L 196.057143 199.713854 
L 196.706582 199.31346 
L 198.784787 198.100446 
L 199.17445 197.853134 
L 199.694001 197.580887 
L 200.213553 197.218106 
L 200.862992 196.832536 
L 204.694681 194.652092 
L 205.34412 194.226414 
L 205.993559 193.827285 
L 207.552213 192.823397 
L 208.591315 192.181851 
L 209.305698 191.740597 
L 210.279857 191.099823 
L 212.358061 189.797434 
L 213.072444 189.345308 
L 213.721883 188.874271 
L 215.605256 187.629091 
L 217.358742 186.423341 
L 226.061224 179.712974 
L 226.710663 179.210462 
L 227.230214 178.809709 
L 237.881013 170.702635 
L 238.725284 170.104142 
L 245.349562 165.311991 
L 245.739225 165.021427 
L 246.908215 164.144362 
L 250.999681 161.428466 
L 251.519232 161.055263 
L 252.233615 160.573737 
L 253.207773 159.994491 
L 260.871153 155.386695 
L 261.585536 154.961741 
L 262.559694 154.363186 
L 263.403965 153.875164 
L 265.222394 152.777501 
L 266.066665 152.243315 
L 267.495431 151.414257 
L 273.794989 147.338261 
L 274.509372 146.891138 
L 278.081286 144.51221 
L 280.029603 143.280846 
L 281.328481 142.474081 
L 281.848032 142.159664 
L 282.432527 141.784241 
L 283.47163 141.081145 
L 284.380844 140.517039 
L 286.134329 139.406575 
L 292.109168 135.481404 
L 293.732765 134.318501 
L 298.278838 131.328215 
L 299.188053 130.759131 
L 306.656601 125.767221 
L 307.370984 125.311094 
L 308.47503 124.531073 
L 309.189413 124.022614 
L 310.098628 123.361525 
L 316.593018 118.704073 
L 317.567176 117.990513 
L 339.907877 101.051197 
L 341.531474 99.745164 
L 342.375745 99.074524 
L 345.29822 96.768038 
L 346.337323 95.947035 
L 348.155752 94.502633 
L 349.844293 93.079522 
L 355.104749 88.750702 
L 356.143851 87.862684 
L 360.235317 84.489995 
L 361.534195 83.411006 
L 398.487273 53.568 
L 398.487273 53.568 
" clip-path="url(#pcffc56c297)" style="fill: none; stroke-dasharray: 2,3.3; stroke-dashoffset: 0; stroke: #0000ff; stroke-width: 2"/>
   </g>
   <g id="line2d_16">
    <path d="M 73.832727 295.488 
L 74.092503 276.846045 
L 74.417222 268.386442 
L 74.482166 268.525072 
L 74.54711 268.293004 
L 74.612054 268.516609 
L 74.676998 268.404133 
L 74.741942 266.424719 
L 74.806886 266.699884 
L 74.87183 268.034304 
L 74.936774 266.017914 
L 75.001717 266.990089 
L 75.131605 266.609264 
L 75.261493 266.869496 
L 75.326437 266.651655 
L 75.7161 262.740532 
L 75.845988 263.368349 
L 75.975876 262.55434 
L 76.04082 262.692242 
L 76.170708 262.531085 
L 76.430483 261.011363 
L 76.495427 261.164897 
L 76.560371 260.015846 
L 76.625315 260.146191 
L 76.690259 259.956447 
L 76.88509 260.725223 
L 76.950034 260.257486 
L 77.014978 260.45045 
L 77.144866 260.144841 
L 77.729361 257.387781 
L 77.859249 257.149918 
L 77.924193 257.250326 
L 77.989137 257.455902 
L 78.054081 257.220244 
L 78.119025 257.657952 
L 78.183968 257.057236 
L 78.248912 257.487353 
L 78.313856 257.384247 
L 78.638576 256.148739 
L 78.70352 256.456981 
L 79.028239 255.069851 
L 79.093183 255.479988 
L 79.158127 255.46871 
L 79.677678 254.786184 
L 79.742622 254.888273 
L 79.87251 254.796722 
L 80.132285 253.574788 
L 80.327117 254.047587 
L 80.457005 253.936941 
L 80.521949 253.482174 
L 80.586893 253.5061 
L 80.71678 253.539617 
L 80.781724 253.681806 
L 80.976556 252.858197 
L 81.0415 252.785217 
L 81.171388 253.179322 
L 81.366219 252.769741 
L 81.561051 252.715803 
L 81.690939 252.776195 
L 82.015658 252.203151 
L 82.080602 252.389346 
L 82.145546 252.27901 
L 82.405322 251.735377 
L 83.119705 252.320461 
L 83.184649 252.487488 
L 83.249592 252.413816 
L 83.37948 252.522777 
L 83.509368 252.30735 
L 83.574312 252.541065 
L 83.639256 252.432565 
L 83.769144 252.477306 
L 83.899031 252.107637 
L 83.963975 252.093964 
L 84.158807 251.721 
L 84.288695 251.973774 
L 84.418583 251.624107 
L 84.483527 251.670289 
L 84.613414 251.330969 
L 84.678358 251.490262 
L 84.87319 252.096219 
L 84.938134 251.968647 
L 85.003078 252.068396 
L 85.068022 252.088724 
L 85.262853 251.79145 
L 85.327797 251.839277 
L 85.522629 251.749354 
L 85.652517 251.537161 
L 85.782404 251.636157 
L 85.847348 251.815419 
L 85.912292 251.698202 
L 85.977236 251.560849 
L 86.107124 251.781247 
L 86.301956 251.524005 
L 86.626675 251.781212 
L 86.821507 251.685214 
L 87.016339 251.50509 
L 87.081282 251.529959 
L 87.276114 251.839022 
L 87.406002 251.785474 
L 87.53589 251.777389 
L 87.600834 251.862088 
L 87.665778 251.775599 
L 87.860609 251.656994 
L 87.925553 251.782062 
L 88.120385 251.476816 
L 88.250273 251.505081 
L 88.445104 251.682979 
L 88.574992 251.562335 
L 88.639936 251.683614 
L 88.899712 251.218506 
L 89.094543 251.257127 
L 89.159487 251.068668 
L 89.224431 251.191183 
L 89.419263 251.371199 
L 89.614094 250.826119 
L 89.743982 250.818106 
L 89.808926 250.749683 
L 90.003758 250.926957 
L 90.19859 250.712575 
L 90.263533 250.702227 
L 90.393421 250.496043 
L 90.653197 250.680766 
L 90.848029 250.573776 
L 90.912972 250.650459 
L 91.107804 250.527296 
L 91.302636 250.491942 
L 91.497467 250.571766 
L 91.952075 250.345087 
L 92.017019 250.349762 
L 92.276794 250.065359 
L 92.666458 250.149469 
L 92.926233 250.31017 
L 93.380841 250.014265 
L 93.445784 250.134663 
L 93.510728 250.040788 
L 93.770504 250.130114 
L 94.03028 250.307361 
L 94.160167 250.45471 
L 94.290055 250.514478 
L 94.744662 250.248917 
L 94.809606 250.3362 
L 94.87455 250.261788 
L 95.19927 250.051129 
L 95.329157 249.924554 
L 95.523989 249.929922 
L 95.718821 249.695684 
L 95.913653 249.737845 
L 96.238372 249.540705 
L 96.498148 249.517838 
L 96.563092 249.437868 
L 96.628035 249.501368 
L 96.692979 249.554819 
L 96.822867 249.323939 
L 97.147587 249.340033 
L 97.342418 249.253441 
L 97.667138 249.305836 
L 97.861969 249.207551 
L 98.121745 249.206566 
L 98.316577 248.851642 
L 98.381521 248.937749 
L 98.511408 248.940422 
L 98.771184 248.827121 
L 99.03096 248.72491 
L 99.160847 248.714439 
L 99.355679 248.706082 
L 99.485567 248.715377 
L 99.550511 248.693639 
L 99.745343 248.854575 
L 99.940174 248.984261 
L 100.19995 248.957507 
L 100.654557 248.864583 
L 100.719501 248.912987 
L 100.849389 248.775388 
L 101.109164 248.927219 
L 101.433884 248.616927 
L 101.693659 248.82194 
L 101.888491 248.816502 
L 102.083323 248.785555 
L 102.472986 248.732448 
L 102.667818 248.86167 
L 103.122425 248.777313 
L 103.836808 248.621777 
L 104.161528 248.807416 
L 104.421303 248.628753 
L 104.940854 248.509439 
L 105.070742 248.417122 
L 105.330518 248.364455 
L 105.590293 248.473224 
L 106.434564 248.494765 
L 106.69434 248.624114 
L 107.213891 248.645935 
L 107.408722 248.561442 
L 107.668498 248.60832 
L 108.123105 248.734292 
L 108.382881 248.486266 
L 110.266254 248.538527 
L 110.720861 248.620904 
L 110.980637 248.566733 
L 111.175469 248.617928 
L 111.305356 248.654504 
L 112.019739 248.739256 
L 112.279515 248.688973 
L 112.604234 248.902888 
L 112.993898 248.880559 
L 113.773224 249.182503 
L 114.162888 249.169489 
L 114.487607 249.211363 
L 114.747383 249.136277 
L 115.007159 249.261654 
L 116.046261 249.390939 
L 116.241093 249.419948 
L 117.345139 249.334629 
L 117.734802 249.413267 
L 117.994578 249.453619 
L 118.579073 249.456838 
L 118.838848 249.462879 
L 119.03368 249.439329 
L 119.423344 249.243587 
L 120.397502 249.205813 
L 120.722222 249.08328 
L 120.981997 249.143234 
L 121.306717 249.069358 
L 121.566492 249.088257 
L 122.215931 248.825292 
L 122.410763 248.898571 
L 123.319977 248.804361 
L 123.514809 248.83969 
L 123.839529 248.783174 
L 124.553912 248.654408 
L 124.878631 248.511268 
L 125.073463 248.449447 
L 125.268294 248.466723 
L 125.852789 248.352245 
L 126.502228 248.171219 
L 126.891892 248.041602 
L 127.606275 247.959867 
L 127.736163 247.974864 
L 127.930994 247.932469 
L 128.060882 247.967998 
L 128.255714 247.871624 
L 129.03504 247.859295 
L 129.684479 247.742965 
L 129.879311 247.766752 
L 130.009199 247.702962 
L 132.736843 247.560008 
L 132.996618 247.487736 
L 134.68516 247.53878 
L 134.879991 247.490897 
L 135.464486 247.572968 
L 135.984038 247.468326 
L 136.373701 247.559689 
L 136.568533 247.511235 
L 137.542691 247.462119 
L 140.270335 247.179211 
L 140.595054 247.162519 
L 141.049662 247.063483 
L 141.439325 247.084146 
L 141.958876 247.241329 
L 142.153708 247.23754 
L 142.543371 247.179195 
L 142.738203 247.156106 
L 143.19281 247.097505 
L 143.972137 247.208538 
L 144.426744 247.183762 
L 144.751464 247.218405 
L 145.011239 247.175239 
L 145.400903 247.286117 
L 145.725622 247.206668 
L 145.985398 247.282845 
L 146.959556 247.359516 
L 147.738883 247.248337 
L 149.297537 247.318446 
L 149.622256 247.354336 
L 150.076863 247.372787 
L 151.830349 247.433143 
L 152.090124 247.422164 
L 152.3499 247.431985 
L 152.804507 247.463096 
L 154.557992 247.384146 
L 154.882712 247.362598 
L 155.337319 247.402397 
L 155.986758 247.472427 
L 156.506309 247.454468 
L 157.090804 247.582241 
L 158.714402 247.497458 
L 158.974177 247.409243 
L 159.493729 247.40488 
L 160.078224 247.342683 
L 160.662719 247.36014 
L 162.286316 247.255035 
L 162.546092 247.230128 
L 163.000699 247.306821 
L 163.325419 247.293753 
L 163.715082 247.251706 
L 165.923174 247.172457 
L 169.300257 246.98281 
L 170.01464 246.879187 
L 170.33936 246.885503 
L 170.793967 246.833771 
L 171.573294 246.872215 
L 172.092845 246.795941 
L 172.807228 246.804368 
L 173.002059 246.777604 
L 186.055783 246.549782 
L 186.380502 246.512211 
L 187.614436 246.515848 
L 188.0041 246.514315 
L 188.783427 246.562724 
L 189.497809 246.487729 
L 190.082304 246.556887 
L 192.225453 246.545209 
L 192.68006 246.512479 
L 194.368602 246.389909 
L 195.537592 246.385247 
L 196.641638 246.30488 
L 196.966358 246.335647 
L 197.226133 246.327278 
L 199.304338 246.411158 
L 200.148609 246.36862 
L 201.447487 246.408169 
L 202.421645 246.361831 
L 213.916715 245.718298 
L 214.306378 245.70357 
L 216.254695 245.524819 
L 227.879653 244.970293 
L 228.269316 244.993726 
L 228.853811 244.944974 
L 229.438307 244.921317 
L 231.451567 244.958977 
L 232.815389 244.971081 
L 234.633818 244.852404 
L 235.15337 244.838742 
L 237.686182 244.787637 
L 238.140789 244.782638 
L 243.206413 244.73998 
L 243.855852 244.719325 
L 244.570235 244.713068 
L 244.959898 244.701846 
L 246.583496 244.795615 
L 265.15745 244.951763 
L 265.547114 244.941855 
L 266.391384 244.93456 
L 267.950038 244.939387 
L 271.911616 244.852179 
L 273.924877 244.782608 
L 283.47163 244.602722 
L 283.926237 244.603693 
L 288.602198 244.553848 
L 289.901075 244.560292 
L 290.680402 244.54613 
L 291.524673 244.519273 
L 296.525353 244.59302 
L 297.889175 244.608075 
L 302.695023 244.579542 
L 303.734126 244.552098 
L 307.435928 244.432734 
L 308.410086 244.431783 
L 309.838852 244.452845 
L 310.618179 244.457738 
L 319.320661 244.385431 
L 320.489651 244.334055 
L 321.528754 244.342495 
L 323.087407 244.331586 
L 324.12651 244.290641 
L 327.828312 244.27518 
L 329.711685 244.273305 
L 335.881355 244.243288 
L 337.63484 244.236226 
L 339.648101 244.178977 
L 341.206755 244.145942 
L 350.233957 244.032173 
L 351.532835 243.949952 
L 353.611039 243.932662 
L 355.104749 243.927164 
L 356.078907 243.911948 
L 358.871495 243.859372 
L 362.443409 243.852161 
L 363.157792 243.849614 
L 365.430829 243.869772 
L 368.28836 243.86359 
L 374.78275 243.819797 
L 375.432189 243.810353 
L 377.12073 243.822719 
L 380.757589 243.812548 
L 383.160513 243.818843 
L 384.719166 243.83769 
L 389.200295 243.828006 
L 392.187715 243.892236 
L 392.707266 243.885362 
L 394.915358 243.88747 
L 396.798731 243.860008 
L 398.097609 243.814471 
L 398.487273 243.780122 
L 398.487273 243.780122 
" clip-path="url(#pcffc56c297)" style="fill: none; stroke-dasharray: 2,3.3; stroke-dashoffset: 0; stroke: #ffa500; stroke-width: 2"/>
   </g>
   <g id="patch_3">
    <path d="M 57.6 307.584 
L 57.6 41.472 
" style="fill: none; stroke: #000000; stroke-width: 0.8; stroke-linejoin: miter; stroke-linecap: square"/>
   </g>
   <g id="patch_4">
    <path d="M 414.72 307.584 
L 414.72 41.472 
" style="fill: none; stroke: #000000; stroke-width: 0.8; stroke-linejoin: miter; stroke-linecap: square"/>
   </g>
   <g id="patch_5">
    <path d="M 57.6 307.584 
L 414.72 307.584 
" style="fill: none; stroke: #000000; stroke-width: 0.8; stroke-linejoin: miter; stroke-linecap: square"/>
   </g>
   <g id="patch_6">
    <path d="M 57.6 41.472 
L 414.72 41.472 
" style="fill: none; stroke: #000000; stroke-width: 0.8; stroke-linejoin: miter; stroke-linecap: square"/>
   </g>
   <g id="text_17">
    <!-- Waiting Time Plot -->
    <g transform="translate(183.833438 8.2635)scale(0.12 -0.12)">
     <defs>
      <path id="DejaVuSans-50" d="M 1259 4147 
L 1259 2394 
L 2053 2394 
Q 2494 2394 2734 2622 
Q 2975 2850 2975 3272 
Q 2975 3691 2734 3919 
Q 2494 4147 2053 4147 
L 1259 4147 
z
M 628 4666 
L 2053 4666 
Q 2838 4666 3239 4311 
Q 3641 3956 3641 3272 
Q 3641 2581 3239 2228 
Q 2838 1875 2053 1875 
L 1259 1875 
L 1259 0 
L 628 0 
L 628 4666 
z
" transform="scale(0.015625)"/>
      <path id="DejaVuSans-6c" d="M 603 4863 
L 1178 4863 
L 1178 0 
L 603 0 
L 603 4863 
z
" transform="scale(0.015625)"/>
     </defs>
     <use xlink:href="#DejaVuSans-57"/>
     <use xlink:href="#DejaVuSans-61" x="92.501953"/>
     <use xlink:href="#DejaVuSans-69" x="153.78125"/>
     <use xlink:href="#DejaVuSans-74" x="181.564453"/>
     <use xlink:href="#DejaVuSans-69" x="220.773438"/>
     <use xlink:href="#DejaVuSans-6e" x="248.556641"/>
     <use xlink:href="#DejaVuSans-67" x="311.935547"/>
     <use xlink:href="#DejaVuSans-20" x="375.412109"/>
     <use xlink:href="#DejaVuSans-54" x="407.199219"/>
     <use xlink:href="#DejaVuSans-69" x="465.158203"/>
     <use xlink:href="#DejaVuSans-6d" x="492.941406"/>
     <use xlink:href="#DejaVuSans-65" x="590.353516"/>
     <use xlink:href="#DejaVuSans-20" x="651.876953"/>
     <use xlink:href="#DejaVuSans-50" x="683.664062"/>
     <use xlink:href="#DejaVuSans-6c" x="743.966797"/>
     <use xlink:href="#DejaVuSans-6f" x="771.75"/>
     <use xlink:href="#DejaVuSans-74" x="832.931641"/>
    </g>
    <!--  avg_d = 3815.705113323998  -->
    <g transform="translate(142.671562 21.700875)scale(0.12 -0.12)">
     <defs>
      <path id="DejaVuSans-76" d="M 191 3500 
L 800 3500 
L 1894 563 
L 2988 3500 
L 3597 3500 
L 2284 0 
L 1503 0 
L 191 3500 
z
" transform="scale(0.015625)"/>
      <path id="DejaVuSans-5f" d="M 3263 -1063 
L 3263 -1509 
L -63 -1509 
L -63 -1063 
L 3263 -1063 
z
" transform="scale(0.015625)"/>
      <path id="DejaVuSans-3d" d="M 678 2906 
L 4684 2906 
L 4684 2381 
L 678 2381 
L 678 2906 
z
M 678 1631 
L 4684 1631 
L 4684 1100 
L 678 1100 
L 678 1631 
z
" transform="scale(0.015625)"/>
      <path id="DejaVuSans-38" d="M 2034 2216 
Q 1584 2216 1326 1975 
Q 1069 1734 1069 1313 
Q 1069 891 1326 650 
Q 1584 409 2034 409 
Q 2484 409 2743 651 
Q 3003 894 3003 1313 
Q 3003 1734 2745 1975 
Q 2488 2216 2034 2216 
z
M 1403 2484 
Q 997 2584 770 2862 
Q 544 3141 544 3541 
Q 544 4100 942 4425 
Q 1341 4750 2034 4750 
Q 2731 4750 3128 4425 
Q 3525 4100 3525 3541 
Q 3525 3141 3298 2862 
Q 3072 2584 2669 2484 
Q 3125 2378 3379 2068 
Q 3634 1759 3634 1313 
Q 3634 634 3220 271 
Q 2806 -91 2034 -91 
Q 1263 -91 848 271 
Q 434 634 434 1313 
Q 434 1759 690 2068 
Q 947 2378 1403 2484 
z
M 1172 3481 
Q 1172 3119 1398 2916 
Q 1625 2713 2034 2713 
Q 2441 2713 2670 2916 
Q 2900 3119 2900 3481 
Q 2900 3844 2670 4047 
Q 2441 4250 2034 4250 
Q 1625 4250 1398 4047 
Q 1172 3844 1172 3481 
z
" transform="scale(0.015625)"/>
      <path id="DejaVuSans-2e" d="M 684 794 
L 1344 794 
L 1344 0 
L 684 0 
L 684 794 
z
" transform="scale(0.015625)"/>
      <path id="DejaVuSans-37" d="M 525 4666 
L 3525 4666 
L 3525 4397 
L 1831 0 
L 1172 0 
L 2766 4134 
L 525 4134 
L 525 4666 
z
" transform="scale(0.015625)"/>
      <path id="DejaVuSans-39" d="M 703 97 
L 703 672 
Q 941 559 1184 500 
Q 1428 441 1663 441 
Q 2288 441 2617 861 
Q 2947 1281 2994 2138 
Q 2813 1869 2534 1725 
Q 2256 1581 1919 1581 
Q 1219 1581 811 2004 
Q 403 2428 403 3163 
Q 403 3881 828 4315 
Q 1253 4750 1959 4750 
Q 2769 4750 3195 4129 
Q 3622 3509 3622 2328 
Q 3622 1225 3098 567 
Q 2575 -91 1691 -91 
Q 1453 -91 1209 -44 
Q 966 3 703 97 
z
M 1959 2075 
Q 2384 2075 2632 2365 
Q 2881 2656 2881 3163 
Q 2881 3666 2632 3958 
Q 2384 4250 1959 4250 
Q 1534 4250 1286 3958 
Q 1038 3666 1038 3163 
Q 1038 2656 1286 2365 
Q 1534 2075 1959 2075 
z
" transform="scale(0.015625)"/>
     </defs>
     <use xlink:href="#DejaVuSans-20"/>
     <use xlink:href="#DejaVuSans-61" x="31.787109"/>
     <use xlink:href="#DejaVuSans-76" x="93.066406"/>
     <use xlink:href="#DejaVuSans-67" x="152.246094"/>
     <use xlink:href="#DejaVuSans-5f" x="215.722656"/>
     <use xlink:href="#DejaVuSans-64" x="265.722656"/>
     <use xlink:href="#DejaVuSans-20" x="329.199219"/>
     <use xlink:href="#DejaVuSans-3d" x="360.986328"/>
     <use xlink:href="#DejaVuSans-20" x="444.775391"/>
     <use xlink:href="#DejaVuSans-33" x="476.5625"/>
     <use xlink:href="#DejaVuSans-38" x="540.185547"/>
     <use xlink:href="#DejaVuSans-31" x="603.808594"/>
     <use xlink:href="#DejaVuSans-35" x="667.431641"/>
     <use xlink:href="#DejaVuSans-2e" x="731.054688"/>
     <use xlink:href="#DejaVuSans-37" x="762.841797"/>
     <use xlink:href="#DejaVuSans-30" x="826.464844"/>
     <use xlink:href="#DejaVuSans-35" x="890.087891"/>
     <use xlink:href="#DejaVuSans-31" x="953.710938"/>
     <use xlink:href="#DejaVuSans-31" x="1017.333984"/>
     <use xlink:href="#DejaVuSans-33" x="1080.957031"/>
     <use xlink:href="#DejaVuSans-33" x="1144.580078"/>
     <use xlink:href="#DejaVuSans-32" x="1208.203125"/>
     <use xlink:href="#DejaVuSans-33" x="1271.826172"/>
     <use xlink:href="#DejaVuSans-39" x="1335.449219"/>
     <use xlink:href="#DejaVuSans-39" x="1399.072266"/>
     <use xlink:href="#DejaVuSans-38" x="1462.695312"/>
     <use xlink:href="#DejaVuSans-20" x="1526.318359"/>
    </g>
    <!--  avg_a = 943.7742952707775diff = 2871.9308180532203 -->
    <g transform="translate(59.364375 35.472)scale(0.12 -0.12)">
     <use xlink:href="#DejaVuSans-20"/>
     <use xlink:href="#DejaVuSans-61" x="31.787109"/>
     <use xlink:href="#DejaVuSans-76" x="93.066406"/>
     <use xlink:href="#DejaVuSans-67" x="152.246094"/>
     <use xlink:href="#DejaVuSans-5f" x="215.722656"/>
     <use xlink:href="#DejaVuSans-61" x="265.722656"/>
     <use xlink:href="#DejaVuSans-20" x="327.001953"/>
     <use xlink:href="#DejaVuSans-3d" x="358.789062"/>
     <use xlink:href="#DejaVuSans-20" x="442.578125"/>
     <use xlink:href="#DejaVuSans-39" x="474.365234"/>
     <use xlink:href="#DejaVuSans-34" x="537.988281"/>
     <use xlink:href="#DejaVuSans-33" x="601.611328"/>
     <use xlink:href="#DejaVuSans-2e" x="665.234375"/>
     <use xlink:href="#DejaVuSans-37" x="697.021484"/>
     <use xlink:href="#DejaVuSans-37" x="760.644531"/>
     <use xlink:href="#DejaVuSans-34" x="824.267578"/>
     <use xlink:href="#DejaVuSans-32" x="887.890625"/>
     <use xlink:href="#DejaVuSans-39" x="951.513672"/>
     <use xlink:href="#DejaVuSans-35" x="1015.136719"/>
     <use xlink:href="#DejaVuSans-32" x="1078.759766"/>
     <use xlink:href="#DejaVuSans-37" x="1142.382812"/>
     <use xlink:href="#DejaVuSans-30" x="1206.005859"/>
     <use xlink:href="#DejaVuSans-37" x="1269.628906"/>
     <use xlink:href="#DejaVuSans-37" x="1333.251953"/>
     <use xlink:href="#DejaVuSans-37" x="1396.875"/>
     <use xlink:href="#DejaVuSans-35" x="1460.498047"/>
     <use xlink:href="#DejaVuSans-64" x="1524.121094"/>
     <use xlink:href="#DejaVuSans-69" x="1587.597656"/>
     <use xlink:href="#DejaVuSans-66" x="1615.380859"/>
     <use xlink:href="#DejaVuSans-66" x="1650.585938"/>
     <use xlink:href="#DejaVuSans-20" x="1685.791016"/>
     <use xlink:href="#DejaVuSans-3d" x="1717.578125"/>
     <use xlink:href="#DejaVuSans-20" x="1801.367188"/>
     <use xlink:href="#DejaVuSans-32" x="1833.154297"/>
     <use xlink:href="#DejaVuSans-38" x="1896.777344"/>
     <use xlink:href="#DejaVuSans-37" x="1960.400391"/>
     <use xlink:href="#DejaVuSans-31" x="2024.023438"/>
     <use xlink:href="#DejaVuSans-2e" x="2087.646484"/>
     <use xlink:href="#DejaVuSans-39" x="2119.433594"/>
     <use xlink:href="#DejaVuSans-33" x="2183.056641"/>
     <use xlink:href="#DejaVuSans-30" x="2246.679688"/>
     <use xlink:href="#DejaVuSans-38" x="2310.302734"/>
     <use xlink:href="#DejaVuSans-31" x="2373.925781"/>
     <use xlink:href="#DejaVuSans-38" x="2437.548828"/>
     <use xlink:href="#DejaVuSans-30" x="2501.171875"/>
     <use xlink:href="#DejaVuSans-35" x="2564.794922"/>
     <use xlink:href="#DejaVuSans-33" x="2628.417969"/>
     <use xlink:href="#DejaVuSans-32" x="2692.041016"/>
     <use xlink:href="#DejaVuSans-32" x="2755.664062"/>
     <use xlink:href="#DejaVuSans-30" x="2819.287109"/>
     <use xlink:href="#DejaVuSans-33" x="2882.910156"/>
    </g>
   </g>
   <g id="legend_1">
    <g id="patch_7">
     <path d="M 64.6 78.82825 
L 208.43125 78.82825 
Q 210.43125 78.82825 210.43125 76.82825 
L 210.43125 48.472 
Q 210.43125 46.472 208.43125 46.472 
L 64.6 46.472 
Q 62.6 46.472 62.6 48.472 
L 62.6 76.82825 
Q 62.6 78.82825 64.6 78.82825 
z
" style="fill: #ffffff; opacity: 0.8; stroke: #cccccc; stroke-linejoin: miter"/>
    </g>
    <g id="line2d_17">
     <path d="M 66.6 54.570437 
L 76.6 54.570437 
L 86.6 54.570437 
" style="fill: none; stroke-dasharray: 2,3.3; stroke-dashoffset: 0; stroke: #0000ff; stroke-width: 2"/>
    </g>
    <g id="text_18">
     <!-- Average (Default) -->
     <g transform="translate(94.6 58.070437)scale(0.1 -0.1)">
      <defs>
       <path id="DejaVuSans-41" d="M 2188 4044 
L 1331 1722 
L 3047 1722 
L 2188 4044 
z
M 1831 4666 
L 2547 4666 
L 4325 0 
L 3669 0 
L 3244 1197 
L 1141 1197 
L 716 0 
L 50 0 
L 1831 4666 
z
" transform="scale(0.015625)"/>
       <path id="DejaVuSans-28" d="M 1984 4856 
Q 1566 4138 1362 3434 
Q 1159 2731 1159 2009 
Q 1159 1288 1364 580 
Q 1569 -128 1984 -844 
L 1484 -844 
Q 1016 -109 783 600 
Q 550 1309 550 2009 
Q 550 2706 781 3412 
Q 1013 4119 1484 4856 
L 1984 4856 
z
" transform="scale(0.015625)"/>
       <path id="DejaVuSans-44" d="M 1259 4147 
L 1259 519 
L 2022 519 
Q 2988 519 3436 956 
Q 3884 1394 3884 2338 
Q 3884 3275 3436 3711 
Q 2988 4147 2022 4147 
L 1259 4147 
z
M 628 4666 
L 1925 4666 
Q 3281 4666 3915 4102 
Q 4550 3538 4550 2338 
Q 4550 1131 3912 565 
Q 3275 0 1925 0 
L 628 0 
L 628 4666 
z
" transform="scale(0.015625)"/>
       <path id="DejaVuSans-29" d="M 513 4856 
L 1013 4856 
Q 1481 4119 1714 3412 
Q 1947 2706 1947 2009 
Q 1947 1309 1714 600 
Q 1481 -109 1013 -844 
L 513 -844 
Q 928 -128 1133 580 
Q 1338 1288 1338 2009 
Q 1338 2731 1133 3434 
Q 928 4138 513 4856 
z
" transform="scale(0.015625)"/>
      </defs>
      <use xlink:href="#DejaVuSans-41"/>
      <use xlink:href="#DejaVuSans-76" x="62.533203"/>
      <use xlink:href="#DejaVuSans-65" x="121.712891"/>
      <use xlink:href="#DejaVuSans-72" x="183.236328"/>
      <use xlink:href="#DejaVuSans-61" x="224.349609"/>
      <use xlink:href="#DejaVuSans-67" x="285.628906"/>
      <use xlink:href="#DejaVuSans-65" x="349.105469"/>
      <use xlink:href="#DejaVuSans-20" x="410.628906"/>
      <use xlink:href="#DejaVuSans-28" x="442.416016"/>
      <use xlink:href="#DejaVuSans-44" x="481.429688"/>
      <use xlink:href="#DejaVuSans-65" x="558.431641"/>
      <use xlink:href="#DejaVuSans-66" x="619.955078"/>
      <use xlink:href="#DejaVuSans-61" x="655.160156"/>
      <use xlink:href="#DejaVuSans-75" x="716.439453"/>
      <use xlink:href="#DejaVuSans-6c" x="779.818359"/>
      <use xlink:href="#DejaVuSans-74" x="807.601562"/>
      <use xlink:href="#DejaVuSans-29" x="846.810547"/>
     </g>
    </g>
    <g id="line2d_18">
     <path d="M 66.6 69.248562 
L 76.6 69.248562 
L 86.6 69.248562 
" style="fill: none; stroke-dasharray: 2,3.3; stroke-dashoffset: 0; stroke: #ffa500; stroke-width: 2"/>
    </g>
    <g id="text_19">
     <!-- Average (Anticipation) -->
     <g transform="translate(94.6 72.748562)scale(0.1 -0.1)">
      <defs>
       <path id="DejaVuSans-63" d="M 3122 3366 
L 3122 2828 
Q 2878 2963 2633 3030 
Q 2388 3097 2138 3097 
Q 1578 3097 1268 2742 
Q 959 2388 959 1747 
Q 959 1106 1268 751 
Q 1578 397 2138 397 
Q 2388 397 2633 464 
Q 2878 531 3122 666 
L 3122 134 
Q 2881 22 2623 -34 
Q 2366 -91 2075 -91 
Q 1284 -91 818 406 
Q 353 903 353 1747 
Q 353 2603 823 3093 
Q 1294 3584 2113 3584 
Q 2378 3584 2631 3529 
Q 2884 3475 3122 3366 
z
" transform="scale(0.015625)"/>
       <path id="DejaVuSans-70" d="M 1159 525 
L 1159 -1331 
L 581 -1331 
L 581 3500 
L 1159 3500 
L 1159 2969 
Q 1341 3281 1617 3432 
Q 1894 3584 2278 3584 
Q 2916 3584 3314 3078 
Q 3713 2572 3713 1747 
Q 3713 922 3314 415 
Q 2916 -91 2278 -91 
Q 1894 -91 1617 61 
Q 1341 213 1159 525 
z
M 3116 1747 
Q 3116 2381 2855 2742 
Q 2594 3103 2138 3103 
Q 1681 3103 1420 2742 
Q 1159 2381 1159 1747 
Q 1159 1113 1420 752 
Q 1681 391 2138 391 
Q 2594 391 2855 752 
Q 3116 1113 3116 1747 
z
" transform="scale(0.015625)"/>
      </defs>
      <use xlink:href="#DejaVuSans-41"/>
      <use xlink:href="#DejaVuSans-76" x="62.533203"/>
      <use xlink:href="#DejaVuSans-65" x="121.712891"/>
      <use xlink:href="#DejaVuSans-72" x="183.236328"/>
      <use xlink:href="#DejaVuSans-61" x="224.349609"/>
      <use xlink:href="#DejaVuSans-67" x="285.628906"/>
      <use xlink:href="#DejaVuSans-65" x="349.105469"/>
      <use xlink:href="#DejaVuSans-20" x="410.628906"/>
      <use xlink:href="#DejaVuSans-28" x="442.416016"/>
      <use xlink:href="#DejaVuSans-41" x="481.429688"/>
      <use xlink:href="#DejaVuSans-6e" x="549.837891"/>
      <use xlink:href="#DejaVuSans-74" x="613.216797"/>
      <use xlink:href="#DejaVuSans-69" x="652.425781"/>
      <use xlink:href="#DejaVuSans-63" x="680.208984"/>
      <use xlink:href="#DejaVuSans-69" x="735.189453"/>
      <use xlink:href="#DejaVuSans-70" x="762.972656"/>
      <use xlink:href="#DejaVuSans-61" x="826.449219"/>
      <use xlink:href="#DejaVuSans-74" x="887.728516"/>
      <use xlink:href="#DejaVuSans-69" x="926.9375"/>
      <use xlink:href="#DejaVuSans-6f" x="954.720703"/>
      <use xlink:href="#DejaVuSans-6e" x="1015.902344"/>
      <use xlink:href="#DejaVuSans-29" x="1079.28125"/>
     </g>
    </g>
   </g>
  </g>
 </g>
 <defs>
  <clipPath id="pcffc56c297">
   <rect x="57.6" y="41.472" width="357.12" height="266.112"/>
  </clipPath>
 </defs>
</svg>
