<?xml version="1.0" encoding="utf-8" standalone="no"?>
<!DOCTYPE svg PUBLIC "-//W3C//DTD SVG 1.1//EN"
  "http://www.w3.org/Graphics/SVG/1.1/DTD/svg11.dtd">
<svg xmlns:xlink="http://www.w3.org/1999/xlink" width="460.8pt" height="345.6pt" viewBox="0 0 460.8 345.6" xmlns="http://www.w3.org/2000/svg" version="1.1">
 <metadata>
  <rdf:RDF xmlns:dc="http://purl.org/dc/elements/1.1/" xmlns:cc="http://creativecommons.org/ns#" xmlns:rdf="http://www.w3.org/1999/02/22-rdf-syntax-ns#">
   <cc:Work>
    <dc:type rdf:resource="http://purl.org/dc/dcmitype/StillImage"/>
    <dc:date>2022-10-10T12:22:58.096265</dc:date>
    <dc:format>image/svg+xml</dc:format>
    <dc:creator>
     <cc:Agent>
      <dc:title>Matplotlib v3.5.3, https://matplotlib.org/</dc:title>
     </cc:Agent>
    </dc:creator>
   </cc:Work>
  </rdf:RDF>
 </metadata>
 <defs>
  <style type="text/css">*{stroke-linejoin: round; stroke-linecap: butt}</style>
 </defs>
 <g id="figure_1">
  <g id="patch_1">
   <path d="M 0 345.6 
L 460.8 345.6 
L 460.8 0 
L 0 0 
z
" style="fill: #ffffff"/>
  </g>
  <g id="axes_1">
   <g id="patch_2">
    <path d="M 57.6 307.584 
L 414.72 307.584 
L 414.72 41.472 
L 57.6 41.472 
z
" style="fill: #ffffff"/>
   </g>
   <g id="matplotlib.axis_1">
    <g id="xtick_1">
     <g id="line2d_1">
      <defs>
       <path id="me93c845c59" d="M 0 0 
L 0 3.5 
" style="stroke: #000000; stroke-width: 0.8"/>
      </defs>
      <g>
       <use xlink:href="#me93c845c59" x="73.832727" y="307.584" style="stroke: #000000; stroke-width: 0.8"/>
      </g>
     </g>
     <g id="text_1">
      <!-- 0 -->
      <g transform="translate(70.651477 322.182437)scale(0.1 -0.1)">
       <defs>
        <path id="DejaVuSans-30" d="M 2034 4250 
Q 1547 4250 1301 3770 
Q 1056 3291 1056 2328 
Q 1056 1369 1301 889 
Q 1547 409 2034 409 
Q 2525 409 2770 889 
Q 3016 1369 3016 2328 
Q 3016 3291 2770 3770 
Q 2525 4250 2034 4250 
z
M 2034 4750 
Q 2819 4750 3233 4129 
Q 3647 3509 3647 2328 
Q 3647 1150 3233 529 
Q 2819 -91 2034 -91 
Q 1250 -91 836 529 
Q 422 1150 422 2328 
Q 422 3509 836 4129 
Q 1250 4750 2034 4750 
z
" transform="scale(0.015625)"/>
       </defs>
       <use xlink:href="#DejaVuSans-30"/>
      </g>
     </g>
    </g>
    <g id="xtick_2">
     <g id="line2d_2">
      <g>
       <use xlink:href="#me93c845c59" x="138.776625" y="307.584" style="stroke: #000000; stroke-width: 0.8"/>
      </g>
     </g>
     <g id="text_2">
      <!-- 1000 -->
      <g transform="translate(126.051625 322.182437)scale(0.1 -0.1)">
       <defs>
        <path id="DejaVuSans-31" d="M 794 531 
L 1825 531 
L 1825 4091 
L 703 3866 
L 703 4441 
L 1819 4666 
L 2450 4666 
L 2450 531 
L 3481 531 
L 3481 0 
L 794 0 
L 794 531 
z
" transform="scale(0.015625)"/>
       </defs>
       <use xlink:href="#DejaVuSans-31"/>
       <use xlink:href="#DejaVuSans-30" x="63.623047"/>
       <use xlink:href="#DejaVuSans-30" x="127.246094"/>
       <use xlink:href="#DejaVuSans-30" x="190.869141"/>
      </g>
     </g>
    </g>
    <g id="xtick_3">
     <g id="line2d_3">
      <g>
       <use xlink:href="#me93c845c59" x="203.720523" y="307.584" style="stroke: #000000; stroke-width: 0.8"/>
      </g>
     </g>
     <g id="text_3">
      <!-- 2000 -->
      <g transform="translate(190.995523 322.182437)scale(0.1 -0.1)">
       <defs>
        <path id="DejaVuSans-32" d="M 1228 531 
L 3431 531 
L 3431 0 
L 469 0 
L 469 531 
Q 828 903 1448 1529 
Q 2069 2156 2228 2338 
Q 2531 2678 2651 2914 
Q 2772 3150 2772 3378 
Q 2772 3750 2511 3984 
Q 2250 4219 1831 4219 
Q 1534 4219 1204 4116 
Q 875 4013 500 3803 
L 500 4441 
Q 881 4594 1212 4672 
Q 1544 4750 1819 4750 
Q 2544 4750 2975 4387 
Q 3406 4025 3406 3419 
Q 3406 3131 3298 2873 
Q 3191 2616 2906 2266 
Q 2828 2175 2409 1742 
Q 1991 1309 1228 531 
z
" transform="scale(0.015625)"/>
       </defs>
       <use xlink:href="#DejaVuSans-32"/>
       <use xlink:href="#DejaVuSans-30" x="63.623047"/>
       <use xlink:href="#DejaVuSans-30" x="127.246094"/>
       <use xlink:href="#DejaVuSans-30" x="190.869141"/>
      </g>
     </g>
    </g>
    <g id="xtick_4">
     <g id="line2d_4">
      <g>
       <use xlink:href="#me93c845c59" x="268.664421" y="307.584" style="stroke: #000000; stroke-width: 0.8"/>
      </g>
     </g>
     <g id="text_4">
      <!-- 3000 -->
      <g transform="translate(255.939421 322.182437)scale(0.1 -0.1)">
       <defs>
        <path id="DejaVuSans-33" d="M 2597 2516 
Q 3050 2419 3304 2112 
Q 3559 1806 3559 1356 
Q 3559 666 3084 287 
Q 2609 -91 1734 -91 
Q 1441 -91 1130 -33 
Q 819 25 488 141 
L 488 750 
Q 750 597 1062 519 
Q 1375 441 1716 441 
Q 2309 441 2620 675 
Q 2931 909 2931 1356 
Q 2931 1769 2642 2001 
Q 2353 2234 1838 2234 
L 1294 2234 
L 1294 2753 
L 1863 2753 
Q 2328 2753 2575 2939 
Q 2822 3125 2822 3475 
Q 2822 3834 2567 4026 
Q 2313 4219 1838 4219 
Q 1578 4219 1281 4162 
Q 984 4106 628 3988 
L 628 4550 
Q 988 4650 1302 4700 
Q 1616 4750 1894 4750 
Q 2613 4750 3031 4423 
Q 3450 4097 3450 3541 
Q 3450 3153 3228 2886 
Q 3006 2619 2597 2516 
z
" transform="scale(0.015625)"/>
       </defs>
       <use xlink:href="#DejaVuSans-33"/>
       <use xlink:href="#DejaVuSans-30" x="63.623047"/>
       <use xlink:href="#DejaVuSans-30" x="127.246094"/>
       <use xlink:href="#DejaVuSans-30" x="190.869141"/>
      </g>
     </g>
    </g>
    <g id="xtick_5">
     <g id="line2d_5">
      <g>
       <use xlink:href="#me93c845c59" x="333.608319" y="307.584" style="stroke: #000000; stroke-width: 0.8"/>
      </g>
     </g>
     <g id="text_5">
      <!-- 4000 -->
      <g transform="translate(320.883319 322.182437)scale(0.1 -0.1)">
       <defs>
        <path id="DejaVuSans-34" d="M 2419 4116 
L 825 1625 
L 2419 1625 
L 2419 4116 
z
M 2253 4666 
L 3047 4666 
L 3047 1625 
L 3713 1625 
L 3713 1100 
L 3047 1100 
L 3047 0 
L 2419 0 
L 2419 1100 
L 313 1100 
L 313 1709 
L 2253 4666 
z
" transform="scale(0.015625)"/>
       </defs>
       <use xlink:href="#DejaVuSans-34"/>
       <use xlink:href="#DejaVuSans-30" x="63.623047"/>
       <use xlink:href="#DejaVuSans-30" x="127.246094"/>
       <use xlink:href="#DejaVuSans-30" x="190.869141"/>
      </g>
     </g>
    </g>
    <g id="xtick_6">
     <g id="line2d_6">
      <g>
       <use xlink:href="#me93c845c59" x="398.552217" y="307.584" style="stroke: #000000; stroke-width: 0.8"/>
      </g>
     </g>
     <g id="text_6">
      <!-- 5000 -->
      <g transform="translate(385.827217 322.182437)scale(0.1 -0.1)">
       <defs>
        <path id="DejaVuSans-35" d="M 691 4666 
L 3169 4666 
L 3169 4134 
L 1269 4134 
L 1269 2991 
Q 1406 3038 1543 3061 
Q 1681 3084 1819 3084 
Q 2600 3084 3056 2656 
Q 3513 2228 3513 1497 
Q 3513 744 3044 326 
Q 2575 -91 1722 -91 
Q 1428 -91 1123 -41 
Q 819 9 494 109 
L 494 744 
Q 775 591 1075 516 
Q 1375 441 1709 441 
Q 2250 441 2565 725 
Q 2881 1009 2881 1497 
Q 2881 1984 2565 2268 
Q 2250 2553 1709 2553 
Q 1456 2553 1204 2497 
Q 953 2441 691 2322 
L 691 4666 
z
" transform="scale(0.015625)"/>
       </defs>
       <use xlink:href="#DejaVuSans-35"/>
       <use xlink:href="#DejaVuSans-30" x="63.623047"/>
       <use xlink:href="#DejaVuSans-30" x="127.246094"/>
       <use xlink:href="#DejaVuSans-30" x="190.869141"/>
      </g>
     </g>
    </g>
    <g id="text_7">
     <!-- Number of Orders -->
     <g transform="translate(191.261562 335.860562)scale(0.1 -0.1)">
      <defs>
       <path id="DejaVuSans-4e" d="M 628 4666 
L 1478 4666 
L 3547 763 
L 3547 4666 
L 4159 4666 
L 4159 0 
L 3309 0 
L 1241 3903 
L 1241 0 
L 628 0 
L 628 4666 
z
" transform="scale(0.015625)"/>
       <path id="DejaVuSans-75" d="M 544 1381 
L 544 3500 
L 1119 3500 
L 1119 1403 
Q 1119 906 1312 657 
Q 1506 409 1894 409 
Q 2359 409 2629 706 
Q 2900 1003 2900 1516 
L 2900 3500 
L 3475 3500 
L 3475 0 
L 2900 0 
L 2900 538 
Q 2691 219 2414 64 
Q 2138 -91 1772 -91 
Q 1169 -91 856 284 
Q 544 659 544 1381 
z
M 1991 3584 
L 1991 3584 
z
" transform="scale(0.015625)"/>
       <path id="DejaVuSans-6d" d="M 3328 2828 
Q 3544 3216 3844 3400 
Q 4144 3584 4550 3584 
Q 5097 3584 5394 3201 
Q 5691 2819 5691 2113 
L 5691 0 
L 5113 0 
L 5113 2094 
Q 5113 2597 4934 2840 
Q 4756 3084 4391 3084 
Q 3944 3084 3684 2787 
Q 3425 2491 3425 1978 
L 3425 0 
L 2847 0 
L 2847 2094 
Q 2847 2600 2669 2842 
Q 2491 3084 2119 3084 
Q 1678 3084 1418 2786 
Q 1159 2488 1159 1978 
L 1159 0 
L 581 0 
L 581 3500 
L 1159 3500 
L 1159 2956 
Q 1356 3278 1631 3431 
Q 1906 3584 2284 3584 
Q 2666 3584 2933 3390 
Q 3200 3197 3328 2828 
z
" transform="scale(0.015625)"/>
       <path id="DejaVuSans-62" d="M 3116 1747 
Q 3116 2381 2855 2742 
Q 2594 3103 2138 3103 
Q 1681 3103 1420 2742 
Q 1159 2381 1159 1747 
Q 1159 1113 1420 752 
Q 1681 391 2138 391 
Q 2594 391 2855 752 
Q 3116 1113 3116 1747 
z
M 1159 2969 
Q 1341 3281 1617 3432 
Q 1894 3584 2278 3584 
Q 2916 3584 3314 3078 
Q 3713 2572 3713 1747 
Q 3713 922 3314 415 
Q 2916 -91 2278 -91 
Q 1894 -91 1617 61 
Q 1341 213 1159 525 
L 1159 0 
L 581 0 
L 581 4863 
L 1159 4863 
L 1159 2969 
z
" transform="scale(0.015625)"/>
       <path id="DejaVuSans-65" d="M 3597 1894 
L 3597 1613 
L 953 1613 
Q 991 1019 1311 708 
Q 1631 397 2203 397 
Q 2534 397 2845 478 
Q 3156 559 3463 722 
L 3463 178 
Q 3153 47 2828 -22 
Q 2503 -91 2169 -91 
Q 1331 -91 842 396 
Q 353 884 353 1716 
Q 353 2575 817 3079 
Q 1281 3584 2069 3584 
Q 2775 3584 3186 3129 
Q 3597 2675 3597 1894 
z
M 3022 2063 
Q 3016 2534 2758 2815 
Q 2500 3097 2075 3097 
Q 1594 3097 1305 2825 
Q 1016 2553 972 2059 
L 3022 2063 
z
" transform="scale(0.015625)"/>
       <path id="DejaVuSans-72" d="M 2631 2963 
Q 2534 3019 2420 3045 
Q 2306 3072 2169 3072 
Q 1681 3072 1420 2755 
Q 1159 2438 1159 1844 
L 1159 0 
L 581 0 
L 581 3500 
L 1159 3500 
L 1159 2956 
Q 1341 3275 1631 3429 
Q 1922 3584 2338 3584 
Q 2397 3584 2469 3576 
Q 2541 3569 2628 3553 
L 2631 2963 
z
" transform="scale(0.015625)"/>
       <path id="DejaVuSans-20" transform="scale(0.015625)"/>
       <path id="DejaVuSans-6f" d="M 1959 3097 
Q 1497 3097 1228 2736 
Q 959 2375 959 1747 
Q 959 1119 1226 758 
Q 1494 397 1959 397 
Q 2419 397 2687 759 
Q 2956 1122 2956 1747 
Q 2956 2369 2687 2733 
Q 2419 3097 1959 3097 
z
M 1959 3584 
Q 2709 3584 3137 3096 
Q 3566 2609 3566 1747 
Q 3566 888 3137 398 
Q 2709 -91 1959 -91 
Q 1206 -91 779 398 
Q 353 888 353 1747 
Q 353 2609 779 3096 
Q 1206 3584 1959 3584 
z
" transform="scale(0.015625)"/>
       <path id="DejaVuSans-66" d="M 2375 4863 
L 2375 4384 
L 1825 4384 
Q 1516 4384 1395 4259 
Q 1275 4134 1275 3809 
L 1275 3500 
L 2222 3500 
L 2222 3053 
L 1275 3053 
L 1275 0 
L 697 0 
L 697 3053 
L 147 3053 
L 147 3500 
L 697 3500 
L 697 3744 
Q 697 4328 969 4595 
Q 1241 4863 1831 4863 
L 2375 4863 
z
" transform="scale(0.015625)"/>
       <path id="DejaVuSans-4f" d="M 2522 4238 
Q 1834 4238 1429 3725 
Q 1025 3213 1025 2328 
Q 1025 1447 1429 934 
Q 1834 422 2522 422 
Q 3209 422 3611 934 
Q 4013 1447 4013 2328 
Q 4013 3213 3611 3725 
Q 3209 4238 2522 4238 
z
M 2522 4750 
Q 3503 4750 4090 4092 
Q 4678 3434 4678 2328 
Q 4678 1225 4090 567 
Q 3503 -91 2522 -91 
Q 1538 -91 948 565 
Q 359 1222 359 2328 
Q 359 3434 948 4092 
Q 1538 4750 2522 4750 
z
" transform="scale(0.015625)"/>
       <path id="DejaVuSans-64" d="M 2906 2969 
L 2906 4863 
L 3481 4863 
L 3481 0 
L 2906 0 
L 2906 525 
Q 2725 213 2448 61 
Q 2172 -91 1784 -91 
Q 1150 -91 751 415 
Q 353 922 353 1747 
Q 353 2572 751 3078 
Q 1150 3584 1784 3584 
Q 2172 3584 2448 3432 
Q 2725 3281 2906 2969 
z
M 947 1747 
Q 947 1113 1208 752 
Q 1469 391 1925 391 
Q 2381 391 2643 752 
Q 2906 1113 2906 1747 
Q 2906 2381 2643 2742 
Q 2381 3103 1925 3103 
Q 1469 3103 1208 2742 
Q 947 2381 947 1747 
z
" transform="scale(0.015625)"/>
       <path id="DejaVuSans-73" d="M 2834 3397 
L 2834 2853 
Q 2591 2978 2328 3040 
Q 2066 3103 1784 3103 
Q 1356 3103 1142 2972 
Q 928 2841 928 2578 
Q 928 2378 1081 2264 
Q 1234 2150 1697 2047 
L 1894 2003 
Q 2506 1872 2764 1633 
Q 3022 1394 3022 966 
Q 3022 478 2636 193 
Q 2250 -91 1575 -91 
Q 1294 -91 989 -36 
Q 684 19 347 128 
L 347 722 
Q 666 556 975 473 
Q 1284 391 1588 391 
Q 1994 391 2212 530 
Q 2431 669 2431 922 
Q 2431 1156 2273 1281 
Q 2116 1406 1581 1522 
L 1381 1569 
Q 847 1681 609 1914 
Q 372 2147 372 2553 
Q 372 3047 722 3315 
Q 1072 3584 1716 3584 
Q 2034 3584 2315 3537 
Q 2597 3491 2834 3397 
z
" transform="scale(0.015625)"/>
      </defs>
      <use xlink:href="#DejaVuSans-4e"/>
      <use xlink:href="#DejaVuSans-75" x="74.804688"/>
      <use xlink:href="#DejaVuSans-6d" x="138.183594"/>
      <use xlink:href="#DejaVuSans-62" x="235.595703"/>
      <use xlink:href="#DejaVuSans-65" x="299.072266"/>
      <use xlink:href="#DejaVuSans-72" x="360.595703"/>
      <use xlink:href="#DejaVuSans-20" x="401.708984"/>
      <use xlink:href="#DejaVuSans-6f" x="433.496094"/>
      <use xlink:href="#DejaVuSans-66" x="494.677734"/>
      <use xlink:href="#DejaVuSans-20" x="529.882812"/>
      <use xlink:href="#DejaVuSans-4f" x="561.669922"/>
      <use xlink:href="#DejaVuSans-72" x="640.380859"/>
      <use xlink:href="#DejaVuSans-64" x="679.744141"/>
      <use xlink:href="#DejaVuSans-65" x="743.220703"/>
      <use xlink:href="#DejaVuSans-72" x="804.744141"/>
      <use xlink:href="#DejaVuSans-73" x="845.857422"/>
     </g>
    </g>
   </g>
   <g id="matplotlib.axis_2">
    <g id="ytick_1">
     <g id="line2d_7">
      <defs>
       <path id="ma2ca1ecd9d" d="M 0 0 
L -3.5 0 
" style="stroke: #000000; stroke-width: 0.8"/>
      </defs>
      <g>
       <use xlink:href="#ma2ca1ecd9d" x="57.6" y="305.80854" style="stroke: #000000; stroke-width: 0.8"/>
      </g>
     </g>
     <g id="text_8">
      <!-- 200 -->
      <g transform="translate(31.5125 309.607758)scale(0.1 -0.1)">
       <use xlink:href="#DejaVuSans-32"/>
       <use xlink:href="#DejaVuSans-30" x="63.623047"/>
       <use xlink:href="#DejaVuSans-30" x="127.246094"/>
      </g>
     </g>
    </g>
    <g id="ytick_2">
     <g id="line2d_8">
      <g>
       <use xlink:href="#ma2ca1ecd9d" x="57.6" y="260.801973" style="stroke: #000000; stroke-width: 0.8"/>
      </g>
     </g>
     <g id="text_9">
      <!-- 400 -->
      <g transform="translate(31.5125 264.601192)scale(0.1 -0.1)">
       <use xlink:href="#DejaVuSans-34"/>
       <use xlink:href="#DejaVuSans-30" x="63.623047"/>
       <use xlink:href="#DejaVuSans-30" x="127.246094"/>
      </g>
     </g>
    </g>
    <g id="ytick_3">
     <g id="line2d_9">
      <g>
       <use xlink:href="#ma2ca1ecd9d" x="57.6" y="215.795406" style="stroke: #000000; stroke-width: 0.8"/>
      </g>
     </g>
     <g id="text_10">
      <!-- 600 -->
      <g transform="translate(31.5125 219.594625)scale(0.1 -0.1)">
       <defs>
        <path id="DejaVuSans-36" d="M 2113 2584 
Q 1688 2584 1439 2293 
Q 1191 2003 1191 1497 
Q 1191 994 1439 701 
Q 1688 409 2113 409 
Q 2538 409 2786 701 
Q 3034 994 3034 1497 
Q 3034 2003 2786 2293 
Q 2538 2584 2113 2584 
z
M 3366 4563 
L 3366 3988 
Q 3128 4100 2886 4159 
Q 2644 4219 2406 4219 
Q 1781 4219 1451 3797 
Q 1122 3375 1075 2522 
Q 1259 2794 1537 2939 
Q 1816 3084 2150 3084 
Q 2853 3084 3261 2657 
Q 3669 2231 3669 1497 
Q 3669 778 3244 343 
Q 2819 -91 2113 -91 
Q 1303 -91 875 529 
Q 447 1150 447 2328 
Q 447 3434 972 4092 
Q 1497 4750 2381 4750 
Q 2619 4750 2861 4703 
Q 3103 4656 3366 4563 
z
" transform="scale(0.015625)"/>
       </defs>
       <use xlink:href="#DejaVuSans-36"/>
       <use xlink:href="#DejaVuSans-30" x="63.623047"/>
       <use xlink:href="#DejaVuSans-30" x="127.246094"/>
      </g>
     </g>
    </g>
    <g id="ytick_4">
     <g id="line2d_10">
      <g>
       <use xlink:href="#ma2ca1ecd9d" x="57.6" y="170.788839" style="stroke: #000000; stroke-width: 0.8"/>
      </g>
     </g>
     <g id="text_11">
      <!-- 800 -->
      <g transform="translate(31.5125 174.588058)scale(0.1 -0.1)">
       <defs>
        <path id="DejaVuSans-38" d="M 2034 2216 
Q 1584 2216 1326 1975 
Q 1069 1734 1069 1313 
Q 1069 891 1326 650 
Q 1584 409 2034 409 
Q 2484 409 2743 651 
Q 3003 894 3003 1313 
Q 3003 1734 2745 1975 
Q 2488 2216 2034 2216 
z
M 1403 2484 
Q 997 2584 770 2862 
Q 544 3141 544 3541 
Q 544 4100 942 4425 
Q 1341 4750 2034 4750 
Q 2731 4750 3128 4425 
Q 3525 4100 3525 3541 
Q 3525 3141 3298 2862 
Q 3072 2584 2669 2484 
Q 3125 2378 3379 2068 
Q 3634 1759 3634 1313 
Q 3634 634 3220 271 
Q 2806 -91 2034 -91 
Q 1263 -91 848 271 
Q 434 634 434 1313 
Q 434 1759 690 2068 
Q 947 2378 1403 2484 
z
M 1172 3481 
Q 1172 3119 1398 2916 
Q 1625 2713 2034 2713 
Q 2441 2713 2670 2916 
Q 2900 3119 2900 3481 
Q 2900 3844 2670 4047 
Q 2441 4250 2034 4250 
Q 1625 4250 1398 4047 
Q 1172 3844 1172 3481 
z
" transform="scale(0.015625)"/>
       </defs>
       <use xlink:href="#DejaVuSans-38"/>
       <use xlink:href="#DejaVuSans-30" x="63.623047"/>
       <use xlink:href="#DejaVuSans-30" x="127.246094"/>
      </g>
     </g>
    </g>
    <g id="ytick_5">
     <g id="line2d_11">
      <g>
       <use xlink:href="#ma2ca1ecd9d" x="57.6" y="125.782272" style="stroke: #000000; stroke-width: 0.8"/>
      </g>
     </g>
     <g id="text_12">
      <!-- 1000 -->
      <g transform="translate(25.15 129.581491)scale(0.1 -0.1)">
       <use xlink:href="#DejaVuSans-31"/>
       <use xlink:href="#DejaVuSans-30" x="63.623047"/>
       <use xlink:href="#DejaVuSans-30" x="127.246094"/>
       <use xlink:href="#DejaVuSans-30" x="190.869141"/>
      </g>
     </g>
    </g>
    <g id="ytick_6">
     <g id="line2d_12">
      <g>
       <use xlink:href="#ma2ca1ecd9d" x="57.6" y="80.775705" style="stroke: #000000; stroke-width: 0.8"/>
      </g>
     </g>
     <g id="text_13">
      <!-- 1200 -->
      <g transform="translate(25.15 84.574924)scale(0.1 -0.1)">
       <use xlink:href="#DejaVuSans-31"/>
       <use xlink:href="#DejaVuSans-32" x="63.623047"/>
       <use xlink:href="#DejaVuSans-30" x="127.246094"/>
       <use xlink:href="#DejaVuSans-30" x="190.869141"/>
      </g>
     </g>
    </g>
    <g id="text_14">
     <!-- Waiting Time/s -->
     <g transform="translate(19.070312 211.410031)rotate(-90)scale(0.1 -0.1)">
      <defs>
       <path id="DejaVuSans-57" d="M 213 4666 
L 850 4666 
L 1831 722 
L 2809 4666 
L 3519 4666 
L 4500 722 
L 5478 4666 
L 6119 4666 
L 4947 0 
L 4153 0 
L 3169 4050 
L 2175 0 
L 1381 0 
L 213 4666 
z
" transform="scale(0.015625)"/>
       <path id="DejaVuSans-61" d="M 2194 1759 
Q 1497 1759 1228 1600 
Q 959 1441 959 1056 
Q 959 750 1161 570 
Q 1363 391 1709 391 
Q 2188 391 2477 730 
Q 2766 1069 2766 1631 
L 2766 1759 
L 2194 1759 
z
M 3341 1997 
L 3341 0 
L 2766 0 
L 2766 531 
Q 2569 213 2275 61 
Q 1981 -91 1556 -91 
Q 1019 -91 701 211 
Q 384 513 384 1019 
Q 384 1609 779 1909 
Q 1175 2209 1959 2209 
L 2766 2209 
L 2766 2266 
Q 2766 2663 2505 2880 
Q 2244 3097 1772 3097 
Q 1472 3097 1187 3025 
Q 903 2953 641 2809 
L 641 3341 
Q 956 3463 1253 3523 
Q 1550 3584 1831 3584 
Q 2591 3584 2966 3190 
Q 3341 2797 3341 1997 
z
" transform="scale(0.015625)"/>
       <path id="DejaVuSans-69" d="M 603 3500 
L 1178 3500 
L 1178 0 
L 603 0 
L 603 3500 
z
M 603 4863 
L 1178 4863 
L 1178 4134 
L 603 4134 
L 603 4863 
z
" transform="scale(0.015625)"/>
       <path id="DejaVuSans-74" d="M 1172 4494 
L 1172 3500 
L 2356 3500 
L 2356 3053 
L 1172 3053 
L 1172 1153 
Q 1172 725 1289 603 
Q 1406 481 1766 481 
L 2356 481 
L 2356 0 
L 1766 0 
Q 1100 0 847 248 
Q 594 497 594 1153 
L 594 3053 
L 172 3053 
L 172 3500 
L 594 3500 
L 594 4494 
L 1172 4494 
z
" transform="scale(0.015625)"/>
       <path id="DejaVuSans-6e" d="M 3513 2113 
L 3513 0 
L 2938 0 
L 2938 2094 
Q 2938 2591 2744 2837 
Q 2550 3084 2163 3084 
Q 1697 3084 1428 2787 
Q 1159 2491 1159 1978 
L 1159 0 
L 581 0 
L 581 3500 
L 1159 3500 
L 1159 2956 
Q 1366 3272 1645 3428 
Q 1925 3584 2291 3584 
Q 2894 3584 3203 3211 
Q 3513 2838 3513 2113 
z
" transform="scale(0.015625)"/>
       <path id="DejaVuSans-67" d="M 2906 1791 
Q 2906 2416 2648 2759 
Q 2391 3103 1925 3103 
Q 1463 3103 1205 2759 
Q 947 2416 947 1791 
Q 947 1169 1205 825 
Q 1463 481 1925 481 
Q 2391 481 2648 825 
Q 2906 1169 2906 1791 
z
M 3481 434 
Q 3481 -459 3084 -895 
Q 2688 -1331 1869 -1331 
Q 1566 -1331 1297 -1286 
Q 1028 -1241 775 -1147 
L 775 -588 
Q 1028 -725 1275 -790 
Q 1522 -856 1778 -856 
Q 2344 -856 2625 -561 
Q 2906 -266 2906 331 
L 2906 616 
Q 2728 306 2450 153 
Q 2172 0 1784 0 
Q 1141 0 747 490 
Q 353 981 353 1791 
Q 353 2603 747 3093 
Q 1141 3584 1784 3584 
Q 2172 3584 2450 3431 
Q 2728 3278 2906 2969 
L 2906 3500 
L 3481 3500 
L 3481 434 
z
" transform="scale(0.015625)"/>
       <path id="DejaVuSans-54" d="M -19 4666 
L 3928 4666 
L 3928 4134 
L 2272 4134 
L 2272 0 
L 1638 0 
L 1638 4134 
L -19 4134 
L -19 4666 
z
" transform="scale(0.015625)"/>
       <path id="DejaVuSans-2f" d="M 1625 4666 
L 2156 4666 
L 531 -594 
L 0 -594 
L 1625 4666 
z
" transform="scale(0.015625)"/>
      </defs>
      <use xlink:href="#DejaVuSans-57"/>
      <use xlink:href="#DejaVuSans-61" x="92.501953"/>
      <use xlink:href="#DejaVuSans-69" x="153.78125"/>
      <use xlink:href="#DejaVuSans-74" x="181.564453"/>
      <use xlink:href="#DejaVuSans-69" x="220.773438"/>
      <use xlink:href="#DejaVuSans-6e" x="248.556641"/>
      <use xlink:href="#DejaVuSans-67" x="311.935547"/>
      <use xlink:href="#DejaVuSans-20" x="375.412109"/>
      <use xlink:href="#DejaVuSans-54" x="407.199219"/>
      <use xlink:href="#DejaVuSans-69" x="465.158203"/>
      <use xlink:href="#DejaVuSans-6d" x="492.941406"/>
      <use xlink:href="#DejaVuSans-65" x="590.353516"/>
      <use xlink:href="#DejaVuSans-2f" x="651.876953"/>
      <use xlink:href="#DejaVuSans-73" x="685.568359"/>
     </g>
    </g>
   </g>
   <g id="line2d_13">
    <path d="M 73.832727 295.488 
L 74.092503 245.262866 
L 74.157447 245.292154 
L 74.352278 255.18212 
L 74.676998 240.525197 
L 74.806886 231.779278 
L 74.87183 232.273867 
L 74.936774 230.552836 
L 75.001717 231.166438 
L 75.066661 232.527833 
L 75.261493 218.162284 
L 75.326437 218.525276 
L 75.391381 220.152669 
L 75.456325 218.647335 
L 75.521269 221.050084 
L 75.586213 216.580258 
L 75.651156 217.0013 
L 75.7161 217.40836 
L 75.910932 211.250635 
L 75.975876 211.455002 
L 76.170708 207.782579 
L 76.235651 210.010293 
L 76.300595 209.478755 
L 76.365539 208.041061 
L 76.430483 208.595521 
L 76.560371 210.695829 
L 76.625315 210.199563 
L 76.690259 207.705501 
L 76.755203 208.079271 
L 76.88509 204.562952 
L 77.014978 202.433114 
L 77.079922 202.831465 
L 77.144866 202.309997 
L 77.20981 203.051538 
L 77.404642 200.877608 
L 77.794305 204.296909 
L 77.859249 204.424624 
L 77.924193 203.332185 
L 77.989137 205.199361 
L 78.054081 204.81666 
L 78.119025 205.727595 
L 78.183968 204.31236 
L 78.248912 205.384343 
L 78.313856 204.97355 
L 78.443744 203.462002 
L 78.508688 204.298485 
L 78.638576 204.890418 
L 78.833407 203.276497 
L 79.028239 202.376918 
L 79.093183 202.675625 
L 79.158127 204.002731 
L 79.223071 203.478269 
L 79.54779 205.521605 
L 79.677678 205.065193 
L 79.742622 205.529008 
L 79.807566 205.026965 
L 79.87251 205.60112 
L 79.937454 205.516838 
L 80.002398 204.693394 
L 80.067341 204.72506 
L 80.132285 205.283056 
L 80.262173 203.926766 
L 80.392061 204.812385 
L 80.651837 202.659129 
L 80.71678 203.147056 
L 80.781724 203.729776 
L 80.846668 203.450608 
L 80.911612 203.176599 
L 81.171388 200.956723 
L 81.236332 201.20687 
L 81.366219 200.510907 
L 81.561051 199.091135 
L 81.625995 199.179616 
L 81.820827 196.387846 
L 81.885771 196.279402 
L 82.080602 195.103385 
L 82.145546 195.335411 
L 82.470266 193.595835 
L 82.730041 192.471703 
L 82.859929 192.679855 
L 82.924873 192.503649 
L 82.989817 192.918273 
L 83.054761 192.88615 
L 83.119705 192.225157 
L 83.184649 192.332829 
L 83.249592 192.041953 
L 83.314536 192.754326 
L 83.444424 190.360652 
L 83.509368 191.049147 
L 83.574312 190.85769 
L 83.639256 190.975157 
L 83.7042 189.353323 
L 83.769144 189.621199 
L 83.963975 189.201147 
L 84.158807 186.509608 
L 84.353639 187.065152 
L 84.418583 187.111408 
L 84.613414 186.136755 
L 84.743302 185.463884 
L 84.808246 185.696613 
L 84.87319 185.71629 
L 85.068022 182.737417 
L 85.327797 181.708244 
L 85.392741 180.640227 
L 85.457685 180.651961 
L 85.847348 181.49641 
L 86.107124 180.004429 
L 86.301956 180.591754 
L 86.431843 180.928412 
L 86.496787 180.617082 
L 86.691619 178.86368 
L 86.756563 179.226147 
L 86.886451 178.155937 
L 87.016339 178.860241 
L 87.081282 178.481132 
L 87.146226 178.871177 
L 87.21117 178.765804 
L 87.276114 178.772749 
L 87.341058 178.237883 
L 87.406002 178.323799 
L 87.53589 179.20981 
L 87.665778 179.020127 
L 87.795665 178.789215 
L 87.860609 179.011374 
L 87.925553 178.480377 
L 87.990497 178.572345 
L 88.120385 179.153972 
L 88.250273 180.030688 
L 88.315216 179.355685 
L 88.38016 179.812385 
L 88.834768 177.822186 
L 89.029599 178.193823 
L 89.094543 177.906263 
L 89.224431 178.42604 
L 89.289375 178.258244 
L 89.419263 178.171767 
L 89.484207 178.446606 
L 89.549151 178.152004 
L 89.743982 178.897462 
L 89.87387 178.291385 
L 89.938814 178.604403 
L 90.003758 178.006123 
L 90.068702 178.019997 
L 90.133646 178.114008 
L 90.19859 178.038163 
L 90.263533 177.202451 
L 90.328477 177.239129 
L 90.458365 177.625019 
L 90.653197 177.161279 
L 90.848029 176.601721 
L 90.912972 176.318051 
L 90.977916 176.490833 
L 91.04286 176.416878 
L 91.237692 176.956647 
L 91.302636 176.913224 
L 91.497467 176.626238 
L 91.562411 176.658143 
L 91.627355 177.011226 
L 91.692299 176.533741 
L 91.757243 176.630889 
L 91.952075 176.020686 
L 92.146906 176.490806 
L 92.341738 175.914472 
L 92.666458 173.804594 
L 92.731402 173.90019 
L 92.926233 173.578423 
L 93.121065 173.53609 
L 93.250953 174.091397 
L 93.315897 173.735094 
L 93.380841 174.215082 
L 93.445784 173.956864 
L 93.575672 173.356087 
L 93.70556 173.806128 
L 93.835448 174.360372 
L 93.900392 174.206948 
L 94.03028 174.074895 
L 94.290055 172.824207 
L 94.419943 172.400972 
L 94.484887 172.339245 
L 94.549831 172.648905 
L 94.679718 171.907013 
L 94.744662 172.012959 
L 95.004438 171.142702 
L 95.069382 171.207109 
L 95.394101 170.157927 
L 95.459045 170.011077 
L 95.653877 169.30084 
L 95.718821 169.408347 
L 95.783765 169.312683 
L 95.913653 169.252314 
L 96.04354 169.303227 
L 96.108484 169.159617 
L 96.238372 169.496877 
L 96.433204 169.185988 
L 96.628035 169.581717 
L 96.692979 169.621401 
L 96.822867 169.863476 
L 97.082643 169.734242 
L 97.147587 169.962713 
L 97.277474 169.633562 
L 97.53725 169.971451 
L 97.602194 169.86273 
L 97.732082 168.864712 
L 97.861969 168.964596 
L 97.991857 169.213382 
L 98.056801 169.137208 
L 98.121745 169.196472 
L 98.186689 169.415572 
L 98.381521 168.450478 
L 98.511408 168.494882 
L 98.641296 167.46637 
L 98.70624 167.490147 
L 98.771184 167.338314 
L 98.966016 167.662185 
L 99.160847 167.276072 
L 99.225791 167.571795 
L 99.290735 167.543553 
L 99.355679 167.445955 
L 99.615455 167.767238 
L 99.680399 167.758117 
L 99.87523 167.322262 
L 99.940174 167.496665 
L 100.070062 167.264612 
L 100.19995 167.297151 
L 100.524669 166.651221 
L 100.719501 166.174231 
L 100.979277 166.193071 
L 101.174108 166.393782 
L 101.303996 166.300042 
L 101.498828 166.58449 
L 101.823547 165.818122 
L 101.888491 165.897038 
L 102.018379 166.109964 
L 102.083323 165.974343 
L 102.278155 166.523047 
L 102.408042 166.427147 
L 102.472986 166.505467 
L 102.53793 166.793632 
L 102.602874 166.656348 
L 102.732762 166.593263 
L 102.86265 166.836042 
L 102.927594 166.791716 
L 103.122425 166.583852 
L 103.512089 167.21274 
L 103.771864 166.928015 
L 103.836808 167.104462 
L 104.03164 166.754876 
L 104.096584 167.023177 
L 104.161528 166.923481 
L 104.226471 166.936802 
L 104.291415 167.094154 
L 104.356359 166.97551 
L 104.681079 167.225616 
L 104.746023 167.010743 
L 104.810967 167.168038 
L 105.070742 167.623188 
L 105.460406 166.962367 
L 105.525349 167.081983 
L 105.590293 167.073943 
L 105.655237 167.365112 
L 105.720181 167.339718 
L 105.785125 167.126278 
L 105.850069 167.172042 
L 105.915013 167.234155 
L 106.044901 166.768559 
L 106.174788 166.816529 
L 106.304676 166.736327 
L 106.36962 166.878207 
L 106.434564 166.809141 
L 106.564452 166.860168 
L 106.629396 166.561983 
L 106.69434 166.642213 
L 106.889171 167.159294 
L 106.954115 166.999302 
L 107.019059 167.120582 
L 107.084003 167.035916 
L 107.278835 167.399041 
L 107.343779 167.513392 
L 107.473666 167.345184 
L 107.53861 167.470867 
L 107.603554 167.376306 
L 107.668498 167.252142 
L 107.733442 167.343243 
L 107.798386 167.296739 
L 108.058161 167.842005 
L 108.382881 166.952091 
L 108.447825 167.013446 
L 108.512769 167.083156 
L 108.642657 166.843308 
L 109.097264 167.722627 
L 109.162208 167.67647 
L 109.292096 167.783735 
L 109.486927 167.244264 
L 109.551871 167.416798 
L 109.616815 167.322088 
L 109.681759 167.345866 
L 109.941534 166.693335 
L 110.071422 166.784678 
L 110.20131 167.036572 
L 110.266254 166.983067 
L 110.331198 166.867285 
L 110.655917 167.261979 
L 110.720861 167.308359 
L 110.850749 167.687267 
L 110.915693 167.564548 
L 110.980637 167.67559 
L 111.045581 167.589336 
L 111.175469 167.388858 
L 111.305356 167.656116 
L 111.435244 167.362692 
L 111.500188 167.428141 
L 111.565132 167.502845 
L 111.630076 167.422665 
L 111.69502 167.340395 
L 111.759964 167.538952 
L 111.824908 167.375408 
L 111.954795 167.709835 
L 112.019739 167.620138 
L 112.084683 167.772529 
L 112.214571 167.509304 
L 112.279515 167.566317 
L 112.409403 167.598347 
L 112.669178 167.365437 
L 112.86401 167.726968 
L 112.928954 167.662059 
L 112.993898 167.654859 
L 113.123785 167.564864 
L 113.253673 167.760955 
L 113.708281 168.202175 
L 113.968056 167.889307 
L 114.162888 167.972618 
L 114.487607 168.125443 
L 114.552551 167.953515 
L 114.617495 168.060209 
L 114.747383 168.061078 
L 114.812327 168.0113 
L 114.942215 168.215166 
L 115.007159 168.14796 
L 115.137046 168.223846 
L 115.20199 168.160356 
L 115.396822 168.506018 
L 115.461766 168.583563 
L 115.52671 168.522498 
L 115.721541 168.319413 
L 115.981317 168.262232 
L 116.111205 168.287963 
L 116.176149 168.502924 
L 116.500868 167.956054 
L 116.630756 168.070227 
L 116.6957 167.925289 
L 116.760644 168.001437 
L 116.890532 168.137002 
L 116.955475 168.130651 
L 117.020419 168.305418 
L 117.150307 167.997078 
L 117.215251 168.107237 
L 117.539971 167.333635 
L 117.604914 167.424946 
L 117.669858 167.579683 
L 117.734802 167.538118 
L 118.254353 167.545808 
L 118.708961 166.784702 
L 118.838848 166.953238 
L 118.968736 166.606335 
L 119.163568 166.832018 
L 119.488287 166.923439 
L 119.618175 166.713477 
L 119.813007 167.068401 
L 119.942895 166.876218 
L 120.007839 167.027368 
L 120.137726 166.812666 
L 120.267614 166.951643 
L 120.462446 166.451828 
L 120.592334 166.631671 
L 120.657278 166.517059 
L 120.722222 166.338882 
L 120.787165 166.471438 
L 120.981997 166.48724 
L 121.176829 166.611019 
L 121.241773 166.602308 
L 121.501548 166.127694 
L 121.566492 166.188234 
L 121.69638 166.314273 
L 122.021099 165.553167 
L 122.215931 165.470736 
L 122.540651 165.328086 
L 122.735482 165.364728 
L 123.060202 165.19143 
L 123.125146 165.278835 
L 123.19009 165.190603 
L 123.514809 165.264068 
L 123.969416 165.734844 
L 124.03436 165.757431 
L 124.294136 165.302061 
L 124.35908 165.408116 
L 124.618855 164.869664 
L 124.683799 164.973038 
L 124.748743 164.686207 
L 124.813687 164.760131 
L 125.008519 165.005393 
L 125.463126 164.655182 
L 125.852789 165.003456 
L 125.917733 164.882115 
L 125.982677 164.960526 
L 126.047621 165.09013 
L 126.112565 165.029309 
L 126.242453 165.106718 
L 126.437285 164.71127 
L 126.502228 164.897367 
L 126.567172 164.836127 
L 126.69706 165.024301 
L 126.762004 164.897043 
L 126.826948 164.85099 
L 127.02178 165.052802 
L 127.411443 164.760902 
L 127.736163 164.828376 
L 127.801106 164.73197 
L 127.930994 164.845665 
L 128.125826 165.042494 
L 128.19077 165.15467 
L 128.385601 164.876463 
L 128.645377 164.866248 
L 128.840209 165.222104 
L 129.294816 164.896664 
L 129.489648 165.014668 
L 129.554592 164.88233 
L 129.619536 165.056804 
L 129.684479 165.032607 
L 129.814367 164.829197 
L 130.009199 165.034823 
L 130.204031 164.781445 
L 130.268975 164.853523 
L 131.308077 165.743324 
L 131.567852 166.172536 
L 131.632796 166.151802 
L 131.827628 165.742769 
L 131.892572 165.812396 
L 131.957516 165.708943 
L 132.152348 165.930109 
L 132.931674 165.958668 
L 132.996618 165.739437 
L 133.061562 165.890385 
L 133.321338 165.940602 
L 133.646057 166.0602 
L 133.905833 166.048576 
L 134.165608 166.162945 
L 134.230552 166.144746 
L 134.295496 166.243623 
L 134.36044 166.16452 
L 134.68516 166.240002 
L 134.879991 166.22153 
L 135.009879 166.266889 
L 135.074823 166.133035 
L 135.139767 166.193083 
L 135.204711 166.213511 
L 135.334599 166.091761 
L 135.399542 166.160596 
L 135.464486 166.038596 
L 135.659318 166.238402 
L 135.919094 166.251545 
L 136.243813 166.023904 
L 136.373701 166.095145 
L 137.542691 165.253335 
L 137.607635 165.13038 
L 137.672579 165.189372 
L 137.802467 165.265704 
L 137.932354 165.094787 
L 138.127186 165.267844 
L 138.322018 165.027046 
L 138.451906 164.959653 
L 139.036401 164.402982 
L 139.101345 164.485438 
L 139.296176 164.207851 
L 139.68584 164.027688 
L 139.945615 163.969606 
L 140.140447 163.486574 
L 140.335279 163.585511 
L 140.53011 163.245741 
L 140.85483 163.046063 
L 141.179549 162.838372 
L 141.244493 162.622505 
L 141.309437 162.678272 
L 141.504269 162.605555 
L 141.569213 162.379978 
L 141.634157 162.465614 
L 141.699101 162.464625 
L 142.02382 161.922745 
L 142.088764 161.923951 
L 142.153708 161.763088 
L 142.218652 161.844837 
L 142.543371 161.62978 
L 142.738203 161.491808 
L 142.933035 161.562967 
L 143.257754 161.41865 
L 143.452586 161.404677 
L 143.51753 161.481691 
L 143.582474 161.398096 
L 143.972137 161.071526 
L 145.206071 161.035077 
L 145.335959 160.922697 
L 145.595734 161.158177 
L 145.725622 161.191418 
L 145.985398 161.083951 
L 146.18023 161.174538 
L 146.440005 160.938076 
L 146.764725 161.140042 
L 146.959556 161.161413 
L 147.219332 161.37427 
L 147.284276 161.137335 
L 147.34922 161.26573 
L 147.998659 161.097788 
L 148.19349 161.169885 
L 148.258434 161.119679 
L 148.453266 161.291865 
L 148.907873 161.364755 
L 149.102705 161.353434 
L 149.817088 161.258593 
L 149.946976 161.381912 
L 150.271695 161.575432 
L 150.531471 161.539295 
L 150.726302 161.706951 
L 150.85619 161.627816 
L 150.986078 161.646236 
L 151.440685 161.573953 
L 151.830349 161.792442 
L 152.02518 161.678937 
L 152.3499 161.699402 
L 152.544731 161.706299 
L 152.869451 161.656739 
L 152.999339 161.716275 
L 153.324058 162.015637 
L 153.51889 161.953736 
L 153.583834 162.061595 
L 153.648778 162.017283 
L 153.908553 162.030927 
L 154.233273 161.951348 
L 154.68788 162.226492 
L 155.0126 162.409494 
L 155.207431 162.368669 
L 157.415524 162.593588 
L 157.545412 162.352976 
L 157.610356 162.413879 
L 157.740243 162.537534 
L 157.935075 162.519252 
L 158.194851 162.60234 
L 158.649458 162.836427 
L 159.493729 162.835802 
L 159.623616 162.661521 
L 159.948336 162.775245 
L 160.078224 162.724337 
L 160.143168 162.798702 
L 160.273055 162.693934 
L 160.727663 162.875391 
L 160.85755 162.935544 
L 160.922494 162.908463 
L 161.117326 163.059348 
L 161.377102 163.054018 
L 161.442046 163.112696 
L 161.506989 163.027242 
L 161.831709 163.117682 
L 162.091484 163.210298 
L 162.740923 163.255047 
L 162.935755 163.380803 
L 163.195531 163.50722 
L 163.260475 163.542963 
L 163.325419 163.423775 
L 163.390362 163.470108 
L 164.624296 163.084332 
L 164.884072 163.253725 
L 165.403623 163.281078 
L 165.598455 163.408418 
L 165.728343 163.464531 
L 165.923174 163.57642 
L 166.053062 163.482566 
L 166.897333 163.267736 
L 167.092165 163.327813 
L 167.222052 163.316956 
L 167.286996 163.354533 
L 167.35194 163.204294 
L 167.416884 163.25321 
L 167.611716 163.280138 
L 169.105425 163.198362 
L 169.300257 163.327146 
L 169.884752 163.227453 
L 170.079584 163.264983 
L 170.274416 163.195698 
L 170.599135 163.325102 
L 170.729023 163.158392 
L 170.923855 163.306321 
L 170.988798 163.290888 
L 171.118686 163.119593 
L 171.638237 163.421507 
L 171.898013 163.452136 
L 172.092845 163.554404 
L 172.547452 163.491956 
L 172.67734 163.316547 
L 172.872172 163.413002 
L 173.131947 163.568062 
L 173.84633 163.469098 
L 174.495769 163.708926 
L 174.690601 163.82972 
L 174.755545 163.749604 
L 174.820488 163.817354 
L 175.34004 163.983775 
L 175.599815 163.849459 
L 175.924535 164.058052 
L 176.314198 164.383732 
L 176.573974 164.492181 
L 176.833749 164.598732 
L 177.158469 164.491961 
L 177.483188 164.665087 
L 177.613076 164.658206 
L 177.937796 164.811524 
L 179.886112 165.124188 
L 180.145888 164.988584 
L 180.405664 165.07898 
L 180.600495 164.931685 
L 180.795327 164.91607 
L 181.574654 164.684059 
L 181.769486 164.667845 
L 181.899373 164.643281 
L 182.159149 164.680083 
L 182.353981 164.585084 
L 182.613756 164.650304 
L 182.6787 164.72665 
L 182.743644 164.648761 
L 182.938476 164.607947 
L 183.458027 164.477583 
L 183.522971 164.331859 
L 183.587915 164.39581 
L 184.951737 164.092442 
L 185.146568 164.111574 
L 185.3414 164.060563 
L 185.471288 163.958291 
L 185.731063 164.04049 
L 185.925895 163.903785 
L 186.380502 163.988724 
L 186.705222 163.813057 
L 186.964997 163.978958 
L 187.354661 163.993073 
L 187.549492 164.059306 
L 188.263875 163.794688 
L 188.328819 163.885933 
L 188.393763 163.832952 
L 188.718483 163.863706 
L 188.783427 163.80702 
L 188.978258 163.906379 
L 189.17309 163.911166 
L 189.302978 163.942584 
L 189.627697 164.026887 
L 189.822529 163.943617 
L 190.277136 164.123902 
L 190.731743 164.282028 
L 190.991519 164.209529 
L 191.381182 164.345874 
L 191.640958 164.291857 
L 192.030621 164.204451 
L 193.134668 164.504391 
L 193.978938 164.360196 
L 194.368602 164.392573 
L 194.823209 164.37686 
L 195.018041 164.242035 
L 195.147928 164.318857 
L 195.732424 163.99704 
L 195.927255 163.984598 
L 196.187031 163.890462 
L 196.316919 163.868946 
L 196.51175 163.758643 
L 196.641638 163.666369 
L 196.83647 163.721229 
L 197.745684 163.610444 
L 197.875572 163.567439 
L 198.135348 163.520828 
L 198.525011 163.519706 
L 198.719843 163.546873 
L 198.849731 163.577085 
L 198.979618 163.490243 
L 199.953777 163.350994 
L 200.148609 163.327895 
L 200.408384 163.313568 
L 200.733104 163.256542 
L 200.927935 163.328904 
L 201.707262 163.331671 
L 201.902094 163.348876 
L 202.226813 163.45811 
L 202.811308 163.006377 
L 203.00614 162.964425 
L 203.265916 162.991531 
L 203.460747 163.097276 
L 203.785467 163.079322 
L 204.240074 163.146261 
L 204.434906 163.142329 
L 204.824569 163.138984 
L 205.409064 163.208668 
L 205.538952 163.212823 
L 205.993559 163.07486 
L 206.188391 163.025375 
L 206.383223 163.074005 
L 207.487269 163.215446 
L 207.617157 163.166936 
L 208.656259 163.194477 
L 208.916035 163.137668 
L 209.435586 163.051636 
L 210.085025 163.045756 
L 210.409744 163.065761 
L 210.604576 163.069172 
L 210.799408 163.073175 
L 211.059183 162.952107 
L 211.189071 163.039913 
L 211.318959 162.992728 
L 211.448847 162.916682 
L 211.643679 162.830672 
L 211.773566 162.942003 
L 211.903454 162.917938 
L 213.202332 162.713536 
L 213.33222 162.675274 
L 213.527052 162.737438 
L 213.721883 162.680972 
L 213.981659 162.754546 
L 214.696042 162.586804 
L 214.890873 162.620117 
L 215.085705 162.603496 
L 215.280537 162.517987 
L 215.410425 162.490869 
L 215.865032 162.480471 
L 216.189751 162.486764 
L 216.449527 162.457469 
L 216.969078 162.470934 
L 217.16391 162.528506 
L 217.293798 162.535136 
L 217.488629 162.614129 
L 217.878293 162.513652 
L 218.008181 162.536829 
L 218.203012 162.550973 
L 218.787507 162.552633 
L 218.917395 162.482125 
L 219.436946 162.637824 
L 219.631778 162.570033 
L 220.151329 162.668683 
L 220.411105 162.762995 
L 220.930656 162.805755 
L 221.125488 162.815536 
L 221.580095 162.87257 
L 221.709983 162.855412 
L 222.359422 163.017174 
L 222.619197 163.078343 
L 223.008861 163.170997 
L 223.268636 163.154015 
L 223.528412 163.254765 
L 223.723244 163.22496 
L 224.177851 163.421688 
L 224.697402 163.463829 
L 225.022122 163.594254 
L 225.216953 163.515079 
L 225.476729 163.564789 
L 225.801448 163.640567 
L 226.970438 163.758511 
L 227.230214 163.842945 
L 228.594036 164.008777 
L 228.723924 163.959254 
L 228.918755 164.00307 
L 229.243475 164.117034 
L 229.438307 164.015724 
L 229.957858 163.97266 
L 230.282577 164.009444 
L 230.932016 163.877481 
L 231.126848 163.780822 
L 231.386624 163.863887 
L 231.516511 163.824248 
L 231.776287 163.815197 
L 232.101006 163.802834 
L 232.425726 163.801028 
L 233.269997 163.693029 
L 233.464828 163.646243 
L 233.65966 163.69168 
L 233.724604 163.574812 
L 233.789548 163.619008 
L 234.179211 163.492638 
L 234.568875 163.425665 
L 234.698762 163.361675 
L 234.893594 163.306066 
L 235.348201 163.120218 
L 235.543033 163.024866 
L 235.802809 163.00973 
L 236.257416 162.866364 
L 236.452248 162.825543 
L 236.712023 162.751329 
L 236.971799 162.653416 
L 237.16663 162.619312 
L 237.296518 162.611881 
L 237.686182 162.360237 
L 238.140789 162.310797 
L 238.855172 161.864046 
L 239.504611 161.739924 
L 239.959218 161.486144 
L 240.543713 161.319506 
L 241.128208 161.060692 
L 241.517872 160.988983 
L 241.907535 160.721336 
L 242.881693 160.520116 
L 243.790908 160.089361 
L 244.375403 160.045484 
L 244.570235 159.955893 
L 244.700123 159.908629 
L 244.894954 159.759493 
L 245.089786 159.689109 
L 245.284618 159.619537 
L 245.869113 159.462379 
L 246.063944 159.412256 
L 246.258776 159.390598 
L 246.453608 159.294892 
L 247.103047 159.223989 
L 247.297878 159.214574 
L 248.012261 158.932524 
L 248.207093 159.032075 
L 248.336981 158.998605 
L 248.596756 158.99995 
L 249.116308 158.786738 
L 249.376083 158.665132 
L 249.505971 158.60003 
L 249.765747 158.534145 
L 250.285298 158.322949 
L 250.610017 158.242811 
L 251.259456 158.206219 
L 251.454288 158.082634 
L 251.908895 158.129554 
L 252.428446 158.037154 
L 252.558334 158.041127 
L 252.81811 157.929192 
L 253.012941 157.834826 
L 253.337661 157.776467 
L 253.597437 157.612084 
L 253.857212 157.673136 
L 254.181932 157.510977 
L 255.350922 157.485538 
L 255.48081 157.520591 
L 255.740585 157.377473 
L 257.948678 157.338028 
L 258.273397 157.411086 
L 258.468229 157.360643 
L 264.572955 157.372682 
L 264.832731 157.281294 
L 265.222394 157.231861 
L 265.677002 157.127376 
L 266.001721 157.175372 
L 266.261497 157.223486 
L 268.209814 157.258185 
L 268.534533 157.235899 
L 268.859253 157.146416 
L 269.573635 157.15889 
L 269.963299 157.153502 
L 270.223074 157.14756 
L 270.547794 157.212531 
L 270.742626 157.161269 
L 271.521952 157.062806 
L 271.781728 157.132764 
L 272.431167 157.044139 
L 272.625999 157.092128 
L 272.885774 156.990879 
L 273.080606 157.033287 
L 273.405325 156.857476 
L 273.535213 156.821712 
L 273.859933 156.784865 
L 274.054764 156.744361 
L 274.249596 156.702565 
L 274.899035 156.618179 
L 275.093867 156.504699 
L 275.418586 156.401248 
L 276.003081 156.289446 
L 276.392745 156.167397 
L 276.587576 156.08956 
L 276.717464 156.063377 
L 278.470949 155.404655 
L 278.665781 155.367032 
L 278.925557 155.298867 
L 279.120388 155.197469 
L 279.380164 155.142301 
L 280.029603 154.70377 
L 280.419266 154.663924 
L 280.80893 154.429993 
L 281.003761 154.382441 
L 281.588257 154.062303 
L 281.783088 154.043663 
L 282.042864 153.902661 
L 282.237696 153.863567 
L 282.757247 153.592813 
L 283.017022 153.522815 
L 284.575676 152.68591 
L 285.744666 151.875195 
L 286.069386 151.693455 
L 286.459049 151.569461 
L 287.173432 151.289181 
L 287.30332 151.240171 
L 287.563095 151.01809 
L 288.082646 150.664778 
L 288.407366 150.350799 
L 288.797029 150.137761 
L 289.771188 149.469454 
L 290.030963 149.381644 
L 290.225795 149.232547 
L 291.329841 148.5269 
L 291.589617 148.378437 
L 293.018383 147.495962 
L 293.343102 147.264685 
L 293.992541 146.884044 
L 294.382204 146.616559 
L 297.044904 144.965108 
L 297.499512 144.613857 
L 297.889175 144.353779 
L 298.084007 144.247277 
L 299.123109 143.550531 
L 300.551875 142.414277 
L 301.13637 141.9791 
L 301.461089 141.707149 
L 301.655921 141.593025 
L 302.240416 141.211906 
L 302.500192 141.123142 
L 302.954799 140.696609 
L 303.149631 140.523053 
L 303.344462 140.44562 
L 305.942218 138.800274 
L 306.201994 138.664616 
L 307.046265 138.059783 
L 307.435928 137.867084 
L 308.929638 136.903747 
L 309.189413 136.792884 
L 311.332562 135.24662 
L 314.579757 133.402382 
L 315.099308 133.062733 
L 315.618859 132.731247 
L 319.060886 130.183579 
L 319.320661 130.051399 
L 320.489651 129.170803 
L 321.074146 128.722466 
L 321.333922 128.517757 
L 321.593698 128.336344 
L 321.983361 128.063202 
L 322.243137 127.946059 
L 323.152351 127.21201 
L 323.412127 126.967853 
L 326.789209 124.212214 
L 327.113929 123.896131 
L 327.828312 123.42759 
L 328.217975 123.033059 
L 328.412807 122.898329 
L 328.80247 122.50645 
L 329.192134 122.221371 
L 329.516853 121.907988 
L 329.97146 121.547122 
L 331.205395 120.548547 
L 331.46517 120.36465 
L 331.854834 120.032711 
L 332.374385 119.665444 
L 333.218655 118.950336 
L 333.608319 118.688084 
L 334.452589 117.992334 
L 336.920458 116.040813 
L 337.569897 115.512582 
L 337.764728 115.346715 
L 338.024504 115.163285 
L 340.29754 113.23866 
L 340.817091 112.938202 
L 342.570577 111.741699 
L 342.830352 111.528183 
L 343.804511 110.965239 
L 344.194174 110.728792 
L 345.103389 110.021859 
L 345.363164 109.909992 
L 345.817772 109.610545 
L 346.142491 109.370049 
L 346.467211 109.201108 
L 346.726986 109.046052 
L 348.415527 107.84915 
L 348.740247 107.722408 
L 349.12991 107.404009 
L 349.649462 107.123528 
L 350.428788 106.488595 
L 351.013283 106.156652 
L 351.857554 105.548969 
L 353.156432 104.667976 
L 353.481152 104.372966 
L 353.870815 104.077584 
L 354.260478 103.785327 
L 357.247898 101.705564 
L 357.702505 101.320888 
L 357.96228 101.180295 
L 359.45599 100.119856 
L 359.650822 100.014058 
L 360.62498 99.208514 
L 363.222736 96.953661 
L 363.742287 96.477882 
L 364.196895 96.040029 
L 365.560717 94.747224 
L 366.599819 93.771847 
L 366.989482 93.43791 
L 367.509033 92.907752 
L 367.833753 92.580384 
L 369.911958 90.610728 
L 371.925218 88.44268 
L 372.834433 87.378537 
L 373.743648 86.34382 
L 375.95174 83.964354 
L 376.666123 83.061638 
L 378.029945 81.56213 
L 378.28972 81.254744 
L 378.809272 80.609612 
L 381.27714 77.347242 
L 382.056467 76.36419 
L 384.394447 73.386475 
L 384.849054 72.798709 
L 386.732427 70.295162 
L 387.122091 69.749097 
L 388.226137 68.204325 
L 388.6158 67.699464 
L 390.953781 64.439563 
L 391.213556 64.089448 
L 392.252659 62.614407 
L 392.707266 62.018902 
L 394.720527 59.20099 
L 395.369966 58.331456 
L 395.954461 57.504864 
L 398.487273 53.568 
L 398.487273 53.568 
" clip-path="url(#p1dbaeb6dcf)" style="fill: none; stroke-dasharray: 2,3.3; stroke-dashoffset: 0; stroke: #0000ff; stroke-width: 2"/>
   </g>
   <g id="line2d_14">
    <path d="M 73.832727 295.488 
L 74.092503 245.262866 
L 74.157447 245.292154 
L 74.352278 255.18212 
L 74.417222 256.812728 
L 74.54711 250.924359 
L 74.806886 229.965531 
L 75.001717 232.481641 
L 75.196549 216.584202 
L 75.261493 218.143575 
L 75.521269 209.252756 
L 75.586213 210.105579 
L 75.7161 212.146173 
L 75.910932 207.415896 
L 75.975876 206.820491 
L 76.04082 206.882808 
L 76.105764 206.666072 
L 76.170708 204.246802 
L 76.235651 206.567563 
L 76.430483 200.090098 
L 76.495427 200.793414 
L 76.560371 201.73924 
L 76.690259 198.364544 
L 76.950034 203.146121 
L 77.144866 200.532896 
L 77.274754 197.858475 
L 77.404642 198.875844 
L 77.534529 196.647812 
L 77.599473 197.715413 
L 77.664417 196.769528 
L 77.729361 197.168974 
L 77.859249 198.243643 
L 77.924193 197.651394 
L 78.119025 200.240611 
L 78.248912 201.094741 
L 78.313856 200.076704 
L 78.3788 200.669325 
L 78.508688 202.064987 
L 78.573632 202.039078 
L 78.768464 200.102415 
L 78.833407 199.015944 
L 78.963295 201.471907 
L 79.028239 200.752913 
L 79.093183 201.071425 
L 79.158127 200.902668 
L 79.288015 197.501991 
L 79.482846 197.67592 
L 79.612734 197.811284 
L 79.677678 197.617011 
L 79.87251 196.208806 
L 80.197229 197.945631 
L 80.262173 198.693896 
L 80.327117 198.515826 
L 80.457005 196.882136 
L 80.651837 195.145516 
L 80.781724 195.75092 
L 80.976556 194.012591 
L 81.366219 190.161889 
L 81.431163 190.27809 
L 81.820827 187.313811 
L 81.885771 187.234651 
L 81.950715 187.639657 
L 82.21049 186.100792 
L 82.275434 186.356407 
L 82.405322 187.212037 
L 82.470266 186.833024 
L 82.665097 188.118601 
L 82.730041 188.857356 
L 82.794985 188.440749 
L 82.859929 187.796468 
L 82.924873 187.961496 
L 82.989817 187.96881 
L 83.249592 184.800776 
L 83.314536 184.545668 
L 83.37948 183.354789 
L 83.444424 183.519104 
L 83.509368 183.690709 
L 83.639256 182.338829 
L 83.7042 182.536756 
L 83.769144 183.088808 
L 83.834088 182.786301 
L 83.899031 182.793759 
L 83.963975 182.595175 
L 84.093863 183.125734 
L 84.288695 184.789725 
L 84.353639 183.709734 
L 84.418583 183.957447 
L 84.483527 183.787228 
L 84.613414 183.220442 
L 84.678358 183.441804 
L 84.87319 182.40814 
L 84.938134 182.513457 
L 85.068022 183.104435 
L 85.132966 182.826818 
L 85.262853 183.354027 
L 85.327797 183.373935 
L 85.457685 182.333478 
L 85.652517 183.206076 
L 85.782404 181.093624 
L 85.847348 181.503409 
L 85.977236 182.048457 
L 86.107124 181.423686 
L 86.172068 181.073287 
L 86.431843 181.923223 
L 86.496787 181.931024 
L 86.561731 182.259788 
L 86.626675 181.765106 
L 86.691619 181.78374 
L 86.756563 182.221161 
L 86.821507 182.134985 
L 86.951395 182.200045 
L 87.016339 182.488412 
L 87.081282 181.827549 
L 87.146226 181.960049 
L 87.21117 181.991731 
L 87.406002 180.439487 
L 87.53589 181.18695 
L 87.600834 181.14139 
L 87.860609 179.861858 
L 87.925553 180.21284 
L 88.120385 181.032031 
L 88.250273 180.232006 
L 88.445104 181.002411 
L 88.574992 181.030304 
L 88.769824 180.150433 
L 88.834768 180.411905 
L 89.029599 179.454731 
L 89.224431 178.683706 
L 89.289375 178.985137 
L 89.354319 178.929621 
L 89.549151 177.865496 
L 89.743982 178.647744 
L 89.808926 178.357562 
L 89.87387 178.389957 
L 90.19859 177.945492 
L 90.263533 178.160949 
L 90.328477 178.100682 
L 90.458365 178.179687 
L 90.523309 178.095759 
L 90.783085 178.712639 
L 90.977916 178.219267 
L 91.107804 178.714397 
L 91.302636 177.755079 
L 91.432524 177.532658 
L 91.562411 177.205326 
L 91.757243 177.896725 
L 91.887131 177.76868 
L 91.952075 178.05681 
L 92.017019 177.944891 
L 92.146906 177.743306 
L 92.21185 177.787452 
L 92.471626 176.152344 
L 92.666458 176.486263 
L 92.861289 176.233243 
L 92.991177 175.335473 
L 93.121065 175.856938 
L 93.380841 174.448661 
L 93.445784 174.297017 
L 93.510728 174.586813 
L 93.575672 174.369751 
L 93.70556 174.369308 
L 94.095223 172.015935 
L 94.160167 172.080274 
L 94.809606 170.812701 
L 94.939494 171.088673 
L 95.134326 170.306998 
L 95.394101 170.795795 
L 95.459045 170.830865 
L 95.653877 171.224715 
L 95.718821 171.353324 
L 95.913653 170.621664 
L 96.108484 170.821131 
L 96.173428 170.555904 
L 96.238372 170.690633 
L 96.303316 170.667883 
L 96.757923 168.934507 
L 96.952755 169.317714 
L 97.017699 169.337091 
L 97.147587 169.867978 
L 97.212531 169.709457 
L 97.342418 169.34018 
L 97.472306 169.483244 
L 97.602194 168.995703 
L 97.667138 169.03258 
L 97.797026 169.214338 
L 97.861969 169.339122 
L 98.186689 168.323749 
L 98.251633 168.466928 
L 98.316577 168.544261 
L 98.446465 168.091259 
L 98.576352 168.170802 
L 98.70624 168.002051 
L 98.836128 168.499522 
L 99.03096 168.118228 
L 99.095904 168.24984 
L 99.160847 168.217776 
L 99.225791 168.153625 
L 99.355679 168.608645 
L 99.550511 168.098045 
L 99.680399 167.956028 
L 99.745343 167.823265 
L 100.005118 168.124914 
L 100.070062 168.078337 
L 100.135006 168.172318 
L 100.19995 167.893622 
L 100.264894 167.993288 
L 100.329838 167.929917 
L 100.589613 166.873665 
L 100.784445 166.788811 
L 100.914333 166.990558 
L 101.109164 166.735036 
L 101.174108 166.891552 
L 101.36894 166.686059 
L 101.433884 166.743462 
L 101.563772 166.505433 
L 101.628716 166.565959 
L 101.693659 166.481597 
L 101.758603 166.444894 
L 101.823547 166.074899 
L 101.888491 166.128081 
L 101.953435 166.223307 
L 102.213211 165.762548 
L 102.343098 165.818828 
L 102.602874 165.447494 
L 102.732762 165.585921 
L 102.927594 165.155004 
L 102.992537 165.155451 
L 103.252313 165.68131 
L 103.317257 165.724975 
L 103.70692 164.98015 
L 103.771864 165.125018 
L 103.836808 165.087382 
L 104.03164 164.645068 
L 104.096584 164.747333 
L 104.161528 165.078109 
L 104.226471 164.977178 
L 104.356359 165.049544 
L 104.681079 165.638384 
L 104.87591 165.271152 
L 105.005798 165.581686 
L 105.20063 164.734389 
L 105.265574 164.782496 
L 105.395462 164.531278 
L 105.785125 164.671818 
L 105.850069 164.911574 
L 106.044901 164.609191 
L 106.174788 164.841567 
L 106.239732 164.598054 
L 106.304676 164.658942 
L 106.564452 165.358918 
L 106.629396 165.675884 
L 106.69434 165.536792 
L 106.759283 165.444177 
L 106.824227 165.649279 
L 106.889171 165.494701 
L 106.954115 165.685792 
L 107.148947 165.270057 
L 107.408722 165.690866 
L 107.473666 165.704881 
L 107.603554 165.392775 
L 107.668498 165.487613 
L 107.733442 165.672605 
L 108.058161 164.945039 
L 108.317937 165.432775 
L 108.382881 165.470492 
L 108.577713 165.267346 
L 108.642657 165.327039 
L 108.7076 165.051248 
L 108.772544 165.095402 
L 108.902432 165.346526 
L 109.097264 165.124451 
L 109.227152 165.175908 
L 109.486927 164.898236 
L 109.746703 165.247096 
L 109.941534 164.881193 
L 110.136366 165.123638 
L 110.20131 164.920613 
L 110.266254 165.039077 
L 110.331198 165.145897 
L 110.590973 164.781023 
L 110.785805 164.952276 
L 110.850749 165.043881 
L 110.915693 164.99768 
L 110.980637 164.819963 
L 111.045581 164.933872 
L 111.175469 164.957379 
L 111.305356 164.675106 
L 111.3703 164.734456 
L 111.500188 164.740336 
L 111.69502 164.633609 
L 111.889851 165.063884 
L 111.954795 164.929628 
L 112.019739 165.009012 
L 112.084683 165.044946 
L 112.149627 164.726971 
L 112.214571 164.801775 
L 112.409403 164.82634 
L 112.604234 164.951945 
L 112.86401 165.365372 
L 112.993898 165.37162 
L 113.123785 164.754945 
L 113.188729 164.866645 
L 113.253673 164.781736 
L 113.318617 164.641464 
L 113.383561 164.848306 
L 113.448505 164.75227 
L 113.578393 164.737022 
L 113.643337 164.908175 
L 113.708281 164.845072 
L 113.838168 164.811917 
L 114.033 164.881649 
L 114.097944 164.747446 
L 114.162888 164.845585 
L 114.227832 165.009652 
L 114.292776 164.972639 
L 114.422663 164.73566 
L 114.487607 164.766171 
L 114.682439 164.674242 
L 114.877271 164.444938 
L 115.331878 164.034663 
L 115.396822 163.732561 
L 115.461766 163.894159 
L 115.656598 163.83753 
L 115.721541 163.790584 
L 115.981317 163.997362 
L 116.046261 164.006486 
L 116.176149 163.81034 
L 116.435924 164.242075 
L 116.630756 164.008739 
L 116.6957 164.053024 
L 116.760644 163.862362 
L 116.825588 163.913967 
L 116.890532 163.973672 
L 116.955475 163.787134 
L 117.150307 164.029493 
L 117.345139 164.001771 
L 117.799746 163.717143 
L 117.994578 163.864477 
L 118.254353 163.14527 
L 118.384241 163.330392 
L 118.579073 163.194492 
L 119.03368 163.58621 
L 119.553231 163.444077 
L 119.748063 162.91057 
L 120.007839 163.363295 
L 120.20267 163.25765 
L 120.397502 163.304794 
L 120.462446 163.31114 
L 120.52739 163.140301 
L 120.657278 163.470198 
L 120.787165 163.222642 
L 121.046941 163.479158 
L 121.176829 163.25655 
L 121.371661 163.265773 
L 121.501548 163.200973 
L 121.761324 162.56066 
L 121.891212 162.232088 
L 121.956156 162.288725 
L 122.021099 162.30014 
L 122.086043 162.10087 
L 122.150987 162.174785 
L 122.215931 162.186341 
L 122.280875 161.991817 
L 122.345819 162.128399 
L 122.475707 162.18983 
L 122.670538 161.739657 
L 122.995258 161.527227 
L 123.060202 161.612757 
L 123.125146 161.540353 
L 123.449865 161.035978 
L 123.579753 161.140393 
L 123.839529 160.838279 
L 123.904473 160.913546 
L 123.969416 160.841572 
L 124.099304 160.861594 
L 124.424024 160.239298 
L 124.748743 160.694961 
L 124.943575 160.533021 
L 125.073463 160.486195 
L 125.20335 160.59637 
L 125.268294 160.605025 
L 125.463126 160.097988 
L 125.593014 160.036248 
L 125.722902 159.669138 
L 125.787846 159.732055 
L 125.982677 159.458476 
L 126.112565 159.565731 
L 126.437285 159.176653 
L 126.567172 159.356084 
L 126.762004 159.223469 
L 126.826948 159.365576 
L 126.891892 159.275391 
L 127.151667 159.465885 
L 127.801106 159.104121 
L 127.930994 159.352081 
L 127.995938 159.313419 
L 128.060882 159.23776 
L 128.255714 159.557323 
L 128.385601 159.625408 
L 128.580433 159.128349 
L 128.775265 159.302134 
L 129.03504 158.976065 
L 129.099984 159.12442 
L 129.164928 159.095386 
L 129.294816 158.844191 
L 129.749423 159.193806 
L 129.879311 158.909585 
L 130.009199 159.061836 
L 130.204031 158.943886 
L 130.333918 158.806471 
L 130.918414 158.817942 
L 131.113245 159.045843 
L 131.437965 159.157866 
L 131.69774 159.507717 
L 131.762684 159.517569 
L 131.827628 159.389579 
L 131.892572 159.523781 
L 131.957516 159.414559 
L 132.217291 159.315662 
L 132.347179 159.40393 
L 132.477067 159.37772 
L 132.671899 159.472358 
L 132.801787 159.481531 
L 132.86673 159.220736 
L 132.931674 159.271572 
L 133.126506 159.233995 
L 133.451226 158.422036 
L 133.840889 158.472095 
L 134.100664 158.295009 
L 134.295496 158.379099 
L 134.620216 158.237419 
L 134.944935 158.328625 
L 135.139767 157.975168 
L 135.204711 158.121383 
L 135.269655 158.078432 
L 135.464486 157.890029 
L 135.594374 157.884833 
L 135.724262 158.046067 
L 135.984038 157.623648 
L 136.243813 157.202864 
L 136.438645 157.331632 
L 136.633477 157.177337 
L 136.763364 157.11539 
L 136.958196 156.814893 
L 137.153028 156.765936 
L 137.217972 156.653013 
L 137.347859 156.83928 
L 137.542691 156.535261 
L 137.607635 156.599493 
L 137.932354 156.720879 
L 138.386962 156.34374 
L 138.646737 156.509886 
L 138.711681 156.295304 
L 138.776625 156.342666 
L 138.841569 156.411601 
L 138.971457 156.214255 
L 139.101345 156.294409 
L 139.426064 155.912208 
L 139.750784 155.812773 
L 140.010559 155.866126 
L 140.140447 155.848524 
L 140.205391 155.645558 
L 140.270335 155.756764 
L 140.53011 155.714044 
L 141.049662 155.863034 
L 141.439325 155.889497 
L 141.699101 156.037332 
L 142.218652 156.029259 
L 143.127866 155.856557 
L 143.322698 155.832005 
L 143.51753 156.037804 
L 143.712361 156.110437 
L 143.972137 156.155417 
L 144.166969 156.044654 
L 144.426744 156.095392 
L 144.621576 156.044198 
L 145.011239 156.386294 
L 145.076183 156.199281 
L 145.141127 156.335773 
L 145.206071 156.421057 
L 145.335959 156.138325 
L 145.400903 156.176548 
L 145.790566 156.215511 
L 145.920454 155.944821 
L 145.985398 156.029859 
L 146.050342 156.089574 
L 146.115286 155.912594 
L 146.18023 155.963505 
L 146.569893 156.035095 
L 146.634837 155.970669 
L 146.699781 156.084643 
L 146.764725 155.868066 
L 146.829668 155.901887 
L 147.933715 156.284692 
L 148.128546 156.34122 
L 148.258434 156.287918 
L 148.583154 156.461755 
L 148.713042 156.473513 
L 148.842929 156.185208 
L 148.907873 156.210388 
L 149.037761 156.222706 
L 149.102705 156.08798 
L 149.167649 156.180093 
L 149.557312 156.275076 
L 149.6872 156.168912 
L 150.076863 156.367162 
L 150.271695 156.436721 
L 150.596415 156.213944 
L 150.726302 156.190634 
L 150.85619 155.987706 
L 150.986078 155.938645 
L 151.051022 155.835035 
L 151.115966 155.905995 
L 151.245854 155.938625 
L 151.505629 156.119292 
L 151.570573 156.026508 
L 151.635517 156.093032 
L 151.895293 156.20927 
L 152.155068 156.160003 
L 152.284956 156.162037 
L 152.804507 156.077781 
L 153.19417 156.081293 
L 153.389002 156.05641 
L 153.583834 155.95086 
L 153.713722 155.938232 
L 154.038441 156.130613 
L 154.752824 156.284019 
L 154.882712 156.201079 
L 155.077544 156.335799 
L 155.142487 156.255119 
L 155.207431 156.323391 
L 155.402263 156.457627 
L 155.726982 156.250527 
L 155.791926 156.128747 
L 155.85687 156.166101 
L 156.895973 156.415227 
L 157.02586 156.416754 
L 157.285636 156.385106 
L 157.480468 156.346773 
L 157.870131 156.62532 
L 158.064963 156.584233 
L 158.194851 156.516428 
L 158.389682 156.674109 
L 158.649458 156.589823 
L 158.84429 156.600821 
L 158.974177 156.589636 
L 159.039121 156.631891 
L 159.298897 156.416825 
L 159.493729 156.376277 
L 159.623616 156.408376 
L 159.753504 156.401551 
L 160.662719 156.259553 
L 161.636877 156.0299 
L 161.701821 155.993476 
L 161.831709 156.099961 
L 162.221372 155.898295 
L 162.35126 155.780794 
L 162.935755 156.002333 
L 163.130587 155.883784 
L 163.325419 155.945352 
L 163.52025 155.955088 
L 163.715082 156.110812 
L 163.909914 155.947768 
L 164.234633 155.805431 
L 164.494409 156.009092 
L 164.624296 155.965117 
L 164.754184 155.955728 
L 164.949016 155.763747 
L 165.208792 155.636597 
L 166.18295 155.909705 
L 167.222052 155.517948 
L 167.416884 155.609697 
L 167.481828 155.629836 
L 167.611716 155.437176 
L 168.391043 155.283287 
L 168.455986 155.364921 
L 168.52093 155.263889 
L 168.585874 155.306407 
L 169.170369 155.427133 
L 169.365201 155.389484 
L 169.560033 155.417927 
L 169.624977 155.443748 
L 169.819808 155.267479 
L 169.949696 155.361255 
L 170.144528 155.228938 
L 170.404303 155.327346 
L 170.664079 155.355383 
L 170.793967 155.272407 
L 170.988798 155.341428 
L 171.378462 155.499838 
L 171.573294 155.565641 
L 171.962957 155.644185 
L 172.482508 155.602605 
L 172.807228 155.703271 
L 173.196891 155.652928 
L 173.716442 155.315187 
L 173.911274 155.432126 
L 174.625657 155.363051 
L 174.820488 155.378393 
L 175.275096 155.379494 
L 175.404984 155.192496 
L 175.469927 155.240417 
L 175.729703 155.480685 
L 176.054423 155.626568 
L 176.444086 155.409294 
L 176.768805 155.549011 
L 176.898693 155.538963 
L 177.093525 155.623766 
L 177.418244 155.635425 
L 177.548132 155.636894 
L 177.807908 155.735606 
L 177.872852 155.542624 
L 177.937796 155.568611 
L 178.457347 155.519222 
L 178.652178 155.564815 
L 180.016 155.941707 
L 180.210832 155.832555 
L 180.275776 155.861802 
L 180.470608 155.723423 
L 180.730383 155.762051 
L 180.860271 155.785647 
L 181.055103 155.645725 
L 181.18499 155.592621 
L 181.314878 155.575357 
L 181.964317 155.296345 
L 182.224093 155.115041 
L 182.353981 155.120982 
L 182.613756 155.223823 
L 183.198251 155.032114 
L 183.263195 155.024652 
L 183.458027 154.815931 
L 183.652859 154.945359 
L 183.782746 154.844889 
L 184.042522 154.90301 
L 184.432185 154.870806 
L 184.627017 154.718783 
L 185.406344 154.052557 
L 185.796007 154.064698 
L 185.990839 154.006921 
L 186.250614 153.978993 
L 186.51039 153.810675 
L 186.83511 153.765797 
L 187.094885 153.559447 
L 187.289717 153.580277 
L 187.354661 153.445166 
L 187.419605 153.484718 
L 187.614436 153.454107 
L 188.0041 153.331528 
L 188.198931 153.471976 
L 188.328819 153.446382 
L 188.588595 153.509282 
L 189.822529 153.443293 
L 190.082304 153.513832 
L 190.212192 153.384783 
L 190.277136 153.415833 
L 190.536912 153.224139 
L 190.731743 153.27431 
L 191.316239 153.295499 
L 191.770846 153.365702 
L 193.00478 152.997401 
L 193.199612 152.991409 
L 193.459387 152.759644 
L 193.589275 152.712472 
L 193.784107 152.640433 
L 194.433546 152.521302 
L 194.628377 152.41978 
L 195.212872 152.109458 
L 195.34276 152.118264 
L 195.537592 151.918028 
L 195.732424 151.913157 
L 196.057143 151.724708 
L 196.381863 151.602113 
L 196.641638 151.520719 
L 196.771526 151.508395 
L 196.901414 151.387594 
L 197.420965 151.452882 
L 197.615797 151.218325 
L 198.265236 151.353777 
L 198.330179 151.248632 
L 198.395123 151.289996 
L 199.044562 151.346086 
L 199.17445 151.260911 
L 199.694001 151.280928 
L 200.018721 151.21147 
L 200.278496 151.221413 
L 200.408384 151.133369 
L 200.66816 151.182835 
L 200.862992 151.039305 
L 201.382543 150.902415 
L 201.577374 150.95196 
L 201.772206 150.947189 
L 201.902094 150.935945 
L 202.291757 150.712642 
L 202.486589 150.747084 
L 202.746365 150.715803 
L 202.876252 150.734907 
L 203.200972 150.529492 
L 203.590635 150.574313 
L 204.629738 150.386946 
L 204.824569 150.395289 
L 205.214233 150.231018 
L 205.279177 150.289943 
L 205.34412 150.178579 
L 205.409064 150.223033 
L 205.603896 150.234989 
L 205.733784 150.269325 
L 205.993559 150.232403 
L 206.383223 150.305085 
L 207.032662 150.199642 
L 207.292437 149.973972 
L 207.747045 150.075708 
L 208.00682 150.026961 
L 209.240754 149.572894 
L 209.50053 149.521734 
L 210.085025 149.221369 
L 210.344801 149.233661 
L 210.66952 149.110215 
L 210.864352 149.118623 
L 211.059183 148.984068 
L 211.83851 149.00943 
L 212.033342 148.87645 
L 212.423005 148.976467 
L 212.552893 148.996456 
L 212.942557 149.060797 
L 213.0075 149.129579 
L 213.202332 148.96263 
L 213.397164 148.988056 
L 213.721883 148.763586 
L 213.851771 148.752817 
L 214.046603 148.721772 
L 214.306378 148.775251 
L 214.82593 148.92337 
L 215.020761 148.912471 
L 215.345481 148.979809 
L 215.929976 149.04771 
L 216.579415 149.180014 
L 216.774246 149.110578 
L 218.008181 149.203471 
L 218.203012 149.228144 
L 219.891554 149.325916 
L 220.216273 149.280014 
L 221.839871 149.064227 
L 222.099646 149.155102 
L 222.424366 149.1686 
L 222.619197 149.101081 
L 223.008861 149.136084 
L 223.138748 149.117702 
L 223.268636 149.132854 
L 223.788187 148.949363 
L 224.047963 149.103693 
L 224.177851 149.059671 
L 224.242795 149.066839 
L 224.437626 148.947236 
L 224.632458 148.956904 
L 224.762346 148.940772 
L 225.216953 148.942049 
L 225.411785 148.774368 
L 226.580775 148.832097 
L 226.905495 149.038612 
L 227.879653 149.140476 
L 228.139429 149.220429 
L 228.33426 149.231644 
L 228.464148 149.296179 
L 228.65898 149.334866 
L 228.918755 149.290117 
L 229.243475 149.488966 
L 230.022802 149.470182 
L 230.282577 149.555895 
L 231.191792 149.582147 
L 231.386624 149.616649 
L 231.841231 149.676325 
L 231.971119 149.580439 
L 232.295838 149.72525 
L 235.088426 149.362552 
L 235.283257 149.386267 
L 235.543033 149.26042 
L 235.737865 149.163878 
L 235.99764 149.001784 
L 236.257416 148.886532 
L 236.452248 148.810565 
L 236.776967 148.713257 
L 237.231574 148.573025 
L 237.556294 148.473305 
L 238.010901 148.476917 
L 238.205733 148.416804 
L 238.530452 148.379832 
L 238.725284 148.443793 
L 238.855172 148.409798 
L 239.050003 148.430863 
L 239.244835 148.301478 
L 241.193152 147.990238 
L 241.582815 148.143877 
L 241.907535 148.068574 
L 242.167311 148.112488 
L 242.427086 148.107085 
L 242.751806 148.164361 
L 243.66102 148.382162 
L 243.920796 148.478651 
L 244.115627 148.480011 
L 244.440347 148.562115 
L 244.635179 148.497749 
L 245.15473 148.606559 
L 246.583496 148.887305 
L 246.778327 148.962538 
L 247.81743 149.097318 
L 249.441027 149.352521 
L 249.635859 149.338482 
L 250.220354 149.394127 
L 251.064625 149.602834 
L 251.194512 149.629519 
L 251.454288 149.608479 
L 251.779007 149.666369 
L 252.103727 149.630683 
L 252.558334 149.719853 
L 252.753166 149.656646 
L 253.402605 149.688077 
L 253.597437 149.572454 
L 253.922156 149.514314 
L 254.246876 149.464973 
L 254.766427 149.371203 
L 254.961258 149.367814 
L 255.221034 149.271602 
L 255.935417 149.171504 
L 256.454968 149.235343 
L 256.779688 149.149269 
L 256.909575 149.110809 
L 257.169351 149.145214 
L 258.078566 149.062589 
L 258.273397 149.021553 
L 260.48149 149.2819 
L 261.520592 149.215972 
L 261.975199 149.064566 
L 262.234975 148.920296 
L 262.494751 148.868969 
L 262.754526 148.791654 
L 262.884414 148.716911 
L 263.274077 148.804613 
L 267.755206 148.344518 
L 268.014982 148.419735 
L 268.274757 148.417824 
L 269.31386 148.316216 
L 269.638579 148.336205 
L 270.093187 148.314582 
L 270.288018 148.336508 
L 272.690943 148.359011 
L 272.950718 148.22691 
L 273.14555 148.24319 
L 275.418586 147.841511 
L 275.678362 147.892372 
L 275.873194 147.821641 
L 276.262857 147.838406 
L 276.717464 147.661363 
L 276.912296 147.617786 
L 277.301959 147.491573 
L 277.561735 147.511836 
L 278.081286 147.471889 
L 278.665781 147.391836 
L 279.250276 147.316065 
L 279.964659 147.262152 
L 280.224435 147.259688 
L 280.549154 147.224801 
L 281.068705 147.234963 
L 282.692303 147.245043 
L 283.406686 147.246162 
L 284.056125 147.169024 
L 284.64062 147.058848 
L 284.965339 146.937596 
L 285.225115 146.893181 
L 286.329161 146.694016 
L 286.718824 146.809226 
L 287.822871 146.727226 
L 288.14759 146.864012 
L 288.342422 146.821886 
L 288.602198 146.871287 
L 288.861973 146.970578 
L 289.251637 146.923963 
L 289.511412 147.00122 
L 289.771188 146.946278 
L 290.680402 147.012079 
L 291.914336 147.229159 
L 292.109168 147.265432 
L 292.888495 147.262845 
L 294.122429 147.311141 
L 294.64198 147.214295 
L 294.9667 147.214397 
L 295.746026 147.220603 
L 296.070746 147.216283 
L 296.265577 147.193361 
L 296.720185 147.185858 
L 297.044904 147.218075 
L 297.239736 147.226893 
L 297.499512 147.19253 
L 297.824231 147.118553 
L 298.603558 147.090728 
L 299.123109 147.027379 
L 305.617499 146.546517 
L 305.942218 146.411055 
L 308.669862 146.283728 
L 308.994581 146.092372 
L 309.64402 146.139066 
L 310.358403 146.263762 
L 310.813011 146.262483 
L 311.007842 146.213981 
L 311.267618 146.22195 
L 311.46245 146.173934 
L 312.436608 146.263463 
L 312.696384 146.34622 
L 312.956159 146.365026 
L 313.280879 146.366615 
L 313.540654 146.335565 
L 314.384925 146.386019 
L 314.774588 146.433709 
L 315.164252 146.454906 
L 318.866054 146.42032 
L 319.12583 146.322792 
L 320.099988 146.430993 
L 320.424707 146.32651 
L 321.204034 146.318715 
L 321.658642 146.308661 
L 321.918417 146.319084 
L 322.437968 146.250069 
L 322.6328 146.26298 
L 324.646061 146.320027 
L 325.490332 146.281713 
L 326.529434 146.265558 
L 327.243817 146.295562 
L 327.698424 146.288558 
L 328.023144 146.324802 
L 328.412807 146.330358 
L 328.737526 146.377775 
L 329.322021 146.318582 
L 329.581797 146.369557 
L 330.231236 146.305298 
L 330.620899 146.360529 
L 332.374385 146.242072 
L 333.283599 146.194918 
L 333.543375 146.152234 
L 333.933038 146.183218 
L 334.387646 146.072254 
L 335.102028 146.122463 
L 335.816411 146.117682 
L 339.258438 146.01399 
L 339.907877 146.122694 
L 340.167652 146.087457 
L 340.557316 146.13386 
L 341.011923 146.216016 
L 341.46653 146.236543 
L 344.194174 146.512563 
L 344.583837 146.508814 
L 345.947659 146.564669 
L 346.726986 146.37655 
L 347.311481 146.336699 
L 349.12991 146.271269 
L 349.389686 146.19411 
L 353.870815 146.075546 
L 354.520254 146.037608 
L 355.884076 146.203524 
L 356.598459 146.188951 
L 356.858234 146.147902 
L 357.442729 146.214123 
L 360.040485 146.397461 
L 360.300261 146.373519 
L 360.9497 146.328158 
L 361.79397 146.400776 
L 362.573297 146.355619 
L 363.027904 146.343181 
L 363.482512 146.316782 
L 363.937119 146.383462 
L 368.937799 146.033609 
L 369.262519 146.048777 
L 369.652182 146.040791 
L 371.080948 145.993664 
L 371.990162 145.934349 
L 372.249938 145.914907 
L 374.198255 145.833416 
L 374.522974 145.88359 
L 374.847694 145.880485 
L 378.419608 145.801644 
L 378.874216 145.853782 
L 379.458711 145.829787 
L 379.78343 145.86447 
L 380.302981 145.902795 
L 380.757589 145.871124 
L 381.212196 145.912734 
L 381.731747 145.885028 
L 381.991523 145.903012 
L 382.770849 145.945711 
L 383.225457 145.904647 
L 383.809952 145.878734 
L 384.849054 145.887523 
L 385.368605 145.894893 
L 385.628381 145.886391 
L 391.733107 145.75488 
L 391.992883 145.771108 
L 396.27918 145.613894 
L 396.538956 145.558268 
L 396.798731 145.509565 
L 397.188395 145.501815 
L 398.032665 145.388233 
L 398.487273 145.218436 
L 398.487273 145.218436 
" clip-path="url(#p1dbaeb6dcf)" style="fill: none; stroke-dasharray: 2,3.3; stroke-dashoffset: 0; stroke: #ffa500; stroke-width: 2"/>
   </g>
   <g id="patch_3">
    <path d="M 57.6 307.584 
L 57.6 41.472 
" style="fill: none; stroke: #000000; stroke-width: 0.8; stroke-linejoin: miter; stroke-linecap: square"/>
   </g>
   <g id="patch_4">
    <path d="M 414.72 307.584 
L 414.72 41.472 
" style="fill: none; stroke: #000000; stroke-width: 0.8; stroke-linejoin: miter; stroke-linecap: square"/>
   </g>
   <g id="patch_5">
    <path d="M 57.6 307.584 
L 414.72 307.584 
" style="fill: none; stroke: #000000; stroke-width: 0.8; stroke-linejoin: miter; stroke-linecap: square"/>
   </g>
   <g id="patch_6">
    <path d="M 57.6 41.472 
L 414.72 41.472 
" style="fill: none; stroke: #000000; stroke-width: 0.8; stroke-linejoin: miter; stroke-linecap: square"/>
   </g>
   <g id="text_15">
    <!-- Waiting Time Plot -->
    <g transform="translate(183.833438 8.2635)scale(0.12 -0.12)">
     <defs>
      <path id="DejaVuSans-50" d="M 1259 4147 
L 1259 2394 
L 2053 2394 
Q 2494 2394 2734 2622 
Q 2975 2850 2975 3272 
Q 2975 3691 2734 3919 
Q 2494 4147 2053 4147 
L 1259 4147 
z
M 628 4666 
L 2053 4666 
Q 2838 4666 3239 4311 
Q 3641 3956 3641 3272 
Q 3641 2581 3239 2228 
Q 2838 1875 2053 1875 
L 1259 1875 
L 1259 0 
L 628 0 
L 628 4666 
z
" transform="scale(0.015625)"/>
      <path id="DejaVuSans-6c" d="M 603 4863 
L 1178 4863 
L 1178 0 
L 603 0 
L 603 4863 
z
" transform="scale(0.015625)"/>
     </defs>
     <use xlink:href="#DejaVuSans-57"/>
     <use xlink:href="#DejaVuSans-61" x="92.501953"/>
     <use xlink:href="#DejaVuSans-69" x="153.78125"/>
     <use xlink:href="#DejaVuSans-74" x="181.564453"/>
     <use xlink:href="#DejaVuSans-69" x="220.773438"/>
     <use xlink:href="#DejaVuSans-6e" x="248.556641"/>
     <use xlink:href="#DejaVuSans-67" x="311.935547"/>
     <use xlink:href="#DejaVuSans-20" x="375.412109"/>
     <use xlink:href="#DejaVuSans-54" x="407.199219"/>
     <use xlink:href="#DejaVuSans-69" x="465.158203"/>
     <use xlink:href="#DejaVuSans-6d" x="492.941406"/>
     <use xlink:href="#DejaVuSans-65" x="590.353516"/>
     <use xlink:href="#DejaVuSans-20" x="651.876953"/>
     <use xlink:href="#DejaVuSans-50" x="683.664062"/>
     <use xlink:href="#DejaVuSans-6c" x="743.966797"/>
     <use xlink:href="#DejaVuSans-6f" x="771.75"/>
     <use xlink:href="#DejaVuSans-74" x="832.931641"/>
    </g>
    <!--  avg_d = 1320.9054913154234  -->
    <g transform="translate(138.854062 21.700875)scale(0.12 -0.12)">
     <defs>
      <path id="DejaVuSans-76" d="M 191 3500 
L 800 3500 
L 1894 563 
L 2988 3500 
L 3597 3500 
L 2284 0 
L 1503 0 
L 191 3500 
z
" transform="scale(0.015625)"/>
      <path id="DejaVuSans-5f" d="M 3263 -1063 
L 3263 -1509 
L -63 -1509 
L -63 -1063 
L 3263 -1063 
z
" transform="scale(0.015625)"/>
      <path id="DejaVuSans-3d" d="M 678 2906 
L 4684 2906 
L 4684 2381 
L 678 2381 
L 678 2906 
z
M 678 1631 
L 4684 1631 
L 4684 1100 
L 678 1100 
L 678 1631 
z
" transform="scale(0.015625)"/>
      <path id="DejaVuSans-2e" d="M 684 794 
L 1344 794 
L 1344 0 
L 684 0 
L 684 794 
z
" transform="scale(0.015625)"/>
      <path id="DejaVuSans-39" d="M 703 97 
L 703 672 
Q 941 559 1184 500 
Q 1428 441 1663 441 
Q 2288 441 2617 861 
Q 2947 1281 2994 2138 
Q 2813 1869 2534 1725 
Q 2256 1581 1919 1581 
Q 1219 1581 811 2004 
Q 403 2428 403 3163 
Q 403 3881 828 4315 
Q 1253 4750 1959 4750 
Q 2769 4750 3195 4129 
Q 3622 3509 3622 2328 
Q 3622 1225 3098 567 
Q 2575 -91 1691 -91 
Q 1453 -91 1209 -44 
Q 966 3 703 97 
z
M 1959 2075 
Q 2384 2075 2632 2365 
Q 2881 2656 2881 3163 
Q 2881 3666 2632 3958 
Q 2384 4250 1959 4250 
Q 1534 4250 1286 3958 
Q 1038 3666 1038 3163 
Q 1038 2656 1286 2365 
Q 1534 2075 1959 2075 
z
" transform="scale(0.015625)"/>
     </defs>
     <use xlink:href="#DejaVuSans-20"/>
     <use xlink:href="#DejaVuSans-61" x="31.787109"/>
     <use xlink:href="#DejaVuSans-76" x="93.066406"/>
     <use xlink:href="#DejaVuSans-67" x="152.246094"/>
     <use xlink:href="#DejaVuSans-5f" x="215.722656"/>
     <use xlink:href="#DejaVuSans-64" x="265.722656"/>
     <use xlink:href="#DejaVuSans-20" x="329.199219"/>
     <use xlink:href="#DejaVuSans-3d" x="360.986328"/>
     <use xlink:href="#DejaVuSans-20" x="444.775391"/>
     <use xlink:href="#DejaVuSans-31" x="476.5625"/>
     <use xlink:href="#DejaVuSans-33" x="540.185547"/>
     <use xlink:href="#DejaVuSans-32" x="603.808594"/>
     <use xlink:href="#DejaVuSans-30" x="667.431641"/>
     <use xlink:href="#DejaVuSans-2e" x="731.054688"/>
     <use xlink:href="#DejaVuSans-39" x="762.841797"/>
     <use xlink:href="#DejaVuSans-30" x="826.464844"/>
     <use xlink:href="#DejaVuSans-35" x="890.087891"/>
     <use xlink:href="#DejaVuSans-34" x="953.710938"/>
     <use xlink:href="#DejaVuSans-39" x="1017.333984"/>
     <use xlink:href="#DejaVuSans-31" x="1080.957031"/>
     <use xlink:href="#DejaVuSans-33" x="1144.580078"/>
     <use xlink:href="#DejaVuSans-31" x="1208.203125"/>
     <use xlink:href="#DejaVuSans-35" x="1271.826172"/>
     <use xlink:href="#DejaVuSans-34" x="1335.449219"/>
     <use xlink:href="#DejaVuSans-32" x="1399.072266"/>
     <use xlink:href="#DejaVuSans-33" x="1462.695312"/>
     <use xlink:href="#DejaVuSans-34" x="1526.318359"/>
     <use xlink:href="#DejaVuSans-20" x="1589.941406"/>
    </g>
    <!--  avg_a = 913.6296547970362diff = 407.2758365183872 -->
    <g transform="translate(63.181875 35.472)scale(0.12 -0.12)">
     <defs>
      <path id="DejaVuSans-37" d="M 525 4666 
L 3525 4666 
L 3525 4397 
L 1831 0 
L 1172 0 
L 2766 4134 
L 525 4134 
L 525 4666 
z
" transform="scale(0.015625)"/>
     </defs>
     <use xlink:href="#DejaVuSans-20"/>
     <use xlink:href="#DejaVuSans-61" x="31.787109"/>
     <use xlink:href="#DejaVuSans-76" x="93.066406"/>
     <use xlink:href="#DejaVuSans-67" x="152.246094"/>
     <use xlink:href="#DejaVuSans-5f" x="215.722656"/>
     <use xlink:href="#DejaVuSans-61" x="265.722656"/>
     <use xlink:href="#DejaVuSans-20" x="327.001953"/>
     <use xlink:href="#DejaVuSans-3d" x="358.789062"/>
     <use xlink:href="#DejaVuSans-20" x="442.578125"/>
     <use xlink:href="#DejaVuSans-39" x="474.365234"/>
     <use xlink:href="#DejaVuSans-31" x="537.988281"/>
     <use xlink:href="#DejaVuSans-33" x="601.611328"/>
     <use xlink:href="#DejaVuSans-2e" x="665.234375"/>
     <use xlink:href="#DejaVuSans-36" x="697.021484"/>
     <use xlink:href="#DejaVuSans-32" x="760.644531"/>
     <use xlink:href="#DejaVuSans-39" x="824.267578"/>
     <use xlink:href="#DejaVuSans-36" x="887.890625"/>
     <use xlink:href="#DejaVuSans-35" x="951.513672"/>
     <use xlink:href="#DejaVuSans-34" x="1015.136719"/>
     <use xlink:href="#DejaVuSans-37" x="1078.759766"/>
     <use xlink:href="#DejaVuSans-39" x="1142.382812"/>
     <use xlink:href="#DejaVuSans-37" x="1206.005859"/>
     <use xlink:href="#DejaVuSans-30" x="1269.628906"/>
     <use xlink:href="#DejaVuSans-33" x="1333.251953"/>
     <use xlink:href="#DejaVuSans-36" x="1396.875"/>
     <use xlink:href="#DejaVuSans-32" x="1460.498047"/>
     <use xlink:href="#DejaVuSans-64" x="1524.121094"/>
     <use xlink:href="#DejaVuSans-69" x="1587.597656"/>
     <use xlink:href="#DejaVuSans-66" x="1615.380859"/>
     <use xlink:href="#DejaVuSans-66" x="1650.585938"/>
     <use xlink:href="#DejaVuSans-20" x="1685.791016"/>
     <use xlink:href="#DejaVuSans-3d" x="1717.578125"/>
     <use xlink:href="#DejaVuSans-20" x="1801.367188"/>
     <use xlink:href="#DejaVuSans-34" x="1833.154297"/>
     <use xlink:href="#DejaVuSans-30" x="1896.777344"/>
     <use xlink:href="#DejaVuSans-37" x="1960.400391"/>
     <use xlink:href="#DejaVuSans-2e" x="2024.023438"/>
     <use xlink:href="#DejaVuSans-32" x="2055.810547"/>
     <use xlink:href="#DejaVuSans-37" x="2119.433594"/>
     <use xlink:href="#DejaVuSans-35" x="2183.056641"/>
     <use xlink:href="#DejaVuSans-38" x="2246.679688"/>
     <use xlink:href="#DejaVuSans-33" x="2310.302734"/>
     <use xlink:href="#DejaVuSans-36" x="2373.925781"/>
     <use xlink:href="#DejaVuSans-35" x="2437.548828"/>
     <use xlink:href="#DejaVuSans-31" x="2501.171875"/>
     <use xlink:href="#DejaVuSans-38" x="2564.794922"/>
     <use xlink:href="#DejaVuSans-33" x="2628.417969"/>
     <use xlink:href="#DejaVuSans-38" x="2692.041016"/>
     <use xlink:href="#DejaVuSans-37" x="2755.664062"/>
     <use xlink:href="#DejaVuSans-32" x="2819.287109"/>
    </g>
   </g>
   <g id="legend_1">
    <g id="patch_7">
     <path d="M 64.6 78.82825 
L 208.43125 78.82825 
Q 210.43125 78.82825 210.43125 76.82825 
L 210.43125 48.472 
Q 210.43125 46.472 208.43125 46.472 
L 64.6 46.472 
Q 62.6 46.472 62.6 48.472 
L 62.6 76.82825 
Q 62.6 78.82825 64.6 78.82825 
z
" style="fill: #ffffff; opacity: 0.8; stroke: #cccccc; stroke-linejoin: miter"/>
    </g>
    <g id="line2d_15">
     <path d="M 66.6 54.570437 
L 76.6 54.570437 
L 86.6 54.570437 
" style="fill: none; stroke-dasharray: 2,3.3; stroke-dashoffset: 0; stroke: #0000ff; stroke-width: 2"/>
    </g>
    <g id="text_16">
     <!-- Average (Default) -->
     <g transform="translate(94.6 58.070437)scale(0.1 -0.1)">
      <defs>
       <path id="DejaVuSans-41" d="M 2188 4044 
L 1331 1722 
L 3047 1722 
L 2188 4044 
z
M 1831 4666 
L 2547 4666 
L 4325 0 
L 3669 0 
L 3244 1197 
L 1141 1197 
L 716 0 
L 50 0 
L 1831 4666 
z
" transform="scale(0.015625)"/>
       <path id="DejaVuSans-28" d="M 1984 4856 
Q 1566 4138 1362 3434 
Q 1159 2731 1159 2009 
Q 1159 1288 1364 580 
Q 1569 -128 1984 -844 
L 1484 -844 
Q 1016 -109 783 600 
Q 550 1309 550 2009 
Q 550 2706 781 3412 
Q 1013 4119 1484 4856 
L 1984 4856 
z
" transform="scale(0.015625)"/>
       <path id="DejaVuSans-44" d="M 1259 4147 
L 1259 519 
L 2022 519 
Q 2988 519 3436 956 
Q 3884 1394 3884 2338 
Q 3884 3275 3436 3711 
Q 2988 4147 2022 4147 
L 1259 4147 
z
M 628 4666 
L 1925 4666 
Q 3281 4666 3915 4102 
Q 4550 3538 4550 2338 
Q 4550 1131 3912 565 
Q 3275 0 1925 0 
L 628 0 
L 628 4666 
z
" transform="scale(0.015625)"/>
       <path id="DejaVuSans-29" d="M 513 4856 
L 1013 4856 
Q 1481 4119 1714 3412 
Q 1947 2706 1947 2009 
Q 1947 1309 1714 600 
Q 1481 -109 1013 -844 
L 513 -844 
Q 928 -128 1133 580 
Q 1338 1288 1338 2009 
Q 1338 2731 1133 3434 
Q 928 4138 513 4856 
z
" transform="scale(0.015625)"/>
      </defs>
      <use xlink:href="#DejaVuSans-41"/>
      <use xlink:href="#DejaVuSans-76" x="62.533203"/>
      <use xlink:href="#DejaVuSans-65" x="121.712891"/>
      <use xlink:href="#DejaVuSans-72" x="183.236328"/>
      <use xlink:href="#DejaVuSans-61" x="224.349609"/>
      <use xlink:href="#DejaVuSans-67" x="285.628906"/>
      <use xlink:href="#DejaVuSans-65" x="349.105469"/>
      <use xlink:href="#DejaVuSans-20" x="410.628906"/>
      <use xlink:href="#DejaVuSans-28" x="442.416016"/>
      <use xlink:href="#DejaVuSans-44" x="481.429688"/>
      <use xlink:href="#DejaVuSans-65" x="558.431641"/>
      <use xlink:href="#DejaVuSans-66" x="619.955078"/>
      <use xlink:href="#DejaVuSans-61" x="655.160156"/>
      <use xlink:href="#DejaVuSans-75" x="716.439453"/>
      <use xlink:href="#DejaVuSans-6c" x="779.818359"/>
      <use xlink:href="#DejaVuSans-74" x="807.601562"/>
      <use xlink:href="#DejaVuSans-29" x="846.810547"/>
     </g>
    </g>
    <g id="line2d_16">
     <path d="M 66.6 69.248562 
L 76.6 69.248562 
L 86.6 69.248562 
" style="fill: none; stroke-dasharray: 2,3.3; stroke-dashoffset: 0; stroke: #ffa500; stroke-width: 2"/>
    </g>
    <g id="text_17">
     <!-- Average (Anticipation) -->
     <g transform="translate(94.6 72.748562)scale(0.1 -0.1)">
      <defs>
       <path id="DejaVuSans-63" d="M 3122 3366 
L 3122 2828 
Q 2878 2963 2633 3030 
Q 2388 3097 2138 3097 
Q 1578 3097 1268 2742 
Q 959 2388 959 1747 
Q 959 1106 1268 751 
Q 1578 397 2138 397 
Q 2388 397 2633 464 
Q 2878 531 3122 666 
L 3122 134 
Q 2881 22 2623 -34 
Q 2366 -91 2075 -91 
Q 1284 -91 818 406 
Q 353 903 353 1747 
Q 353 2603 823 3093 
Q 1294 3584 2113 3584 
Q 2378 3584 2631 3529 
Q 2884 3475 3122 3366 
z
" transform="scale(0.015625)"/>
       <path id="DejaVuSans-70" d="M 1159 525 
L 1159 -1331 
L 581 -1331 
L 581 3500 
L 1159 3500 
L 1159 2969 
Q 1341 3281 1617 3432 
Q 1894 3584 2278 3584 
Q 2916 3584 3314 3078 
Q 3713 2572 3713 1747 
Q 3713 922 3314 415 
Q 2916 -91 2278 -91 
Q 1894 -91 1617 61 
Q 1341 213 1159 525 
z
M 3116 1747 
Q 3116 2381 2855 2742 
Q 2594 3103 2138 3103 
Q 1681 3103 1420 2742 
Q 1159 2381 1159 1747 
Q 1159 1113 1420 752 
Q 1681 391 2138 391 
Q 2594 391 2855 752 
Q 3116 1113 3116 1747 
z
" transform="scale(0.015625)"/>
      </defs>
      <use xlink:href="#DejaVuSans-41"/>
      <use xlink:href="#DejaVuSans-76" x="62.533203"/>
      <use xlink:href="#DejaVuSans-65" x="121.712891"/>
      <use xlink:href="#DejaVuSans-72" x="183.236328"/>
      <use xlink:href="#DejaVuSans-61" x="224.349609"/>
      <use xlink:href="#DejaVuSans-67" x="285.628906"/>
      <use xlink:href="#DejaVuSans-65" x="349.105469"/>
      <use xlink:href="#DejaVuSans-20" x="410.628906"/>
      <use xlink:href="#DejaVuSans-28" x="442.416016"/>
      <use xlink:href="#DejaVuSans-41" x="481.429688"/>
      <use xlink:href="#DejaVuSans-6e" x="549.837891"/>
      <use xlink:href="#DejaVuSans-74" x="613.216797"/>
      <use xlink:href="#DejaVuSans-69" x="652.425781"/>
      <use xlink:href="#DejaVuSans-63" x="680.208984"/>
      <use xlink:href="#DejaVuSans-69" x="735.189453"/>
      <use xlink:href="#DejaVuSans-70" x="762.972656"/>
      <use xlink:href="#DejaVuSans-61" x="826.449219"/>
      <use xlink:href="#DejaVuSans-74" x="887.728516"/>
      <use xlink:href="#DejaVuSans-69" x="926.9375"/>
      <use xlink:href="#DejaVuSans-6f" x="954.720703"/>
      <use xlink:href="#DejaVuSans-6e" x="1015.902344"/>
      <use xlink:href="#DejaVuSans-29" x="1079.28125"/>
     </g>
    </g>
   </g>
  </g>
 </g>
 <defs>
  <clipPath id="p1dbaeb6dcf">
   <rect x="57.6" y="41.472" width="357.12" height="266.112"/>
  </clipPath>
 </defs>
</svg>
