<?xml version="1.0" encoding="utf-8" standalone="no"?>
<!DOCTYPE svg PUBLIC "-//W3C//DTD SVG 1.1//EN"
  "http://www.w3.org/Graphics/SVG/1.1/DTD/svg11.dtd">
<svg xmlns:xlink="http://www.w3.org/1999/xlink" width="460.8pt" height="345.6pt" viewBox="0 0 460.8 345.6" xmlns="http://www.w3.org/2000/svg" version="1.1">
 <metadata>
  <rdf:RDF xmlns:dc="http://purl.org/dc/elements/1.1/" xmlns:cc="http://creativecommons.org/ns#" xmlns:rdf="http://www.w3.org/1999/02/22-rdf-syntax-ns#">
   <cc:Work>
    <dc:type rdf:resource="http://purl.org/dc/dcmitype/StillImage"/>
    <dc:date>2022-10-10T12:23:04.357383</dc:date>
    <dc:format>image/svg+xml</dc:format>
    <dc:creator>
     <cc:Agent>
      <dc:title>Matplotlib v3.5.3, https://matplotlib.org/</dc:title>
     </cc:Agent>
    </dc:creator>
   </cc:Work>
  </rdf:RDF>
 </metadata>
 <defs>
  <style type="text/css">*{stroke-linejoin: round; stroke-linecap: butt}</style>
 </defs>
 <g id="figure_1">
  <g id="patch_1">
   <path d="M 0 345.6 
L 460.8 345.6 
L 460.8 0 
L 0 0 
z
" style="fill: #ffffff"/>
  </g>
  <g id="axes_1">
   <g id="patch_2">
    <path d="M 57.6 307.584 
L 414.72 307.584 
L 414.72 41.472 
L 57.6 41.472 
z
" style="fill: #ffffff"/>
   </g>
   <g id="matplotlib.axis_1">
    <g id="xtick_1">
     <g id="line2d_1">
      <defs>
       <path id="m5538bedf6b" d="M 0 0 
L 0 3.5 
" style="stroke: #000000; stroke-width: 0.8"/>
      </defs>
      <g>
       <use xlink:href="#m5538bedf6b" x="73.832727" y="307.584" style="stroke: #000000; stroke-width: 0.8"/>
      </g>
     </g>
     <g id="text_1">
      <!-- 0 -->
      <g transform="translate(70.651477 322.182437)scale(0.1 -0.1)">
       <defs>
        <path id="DejaVuSans-30" d="M 2034 4250 
Q 1547 4250 1301 3770 
Q 1056 3291 1056 2328 
Q 1056 1369 1301 889 
Q 1547 409 2034 409 
Q 2525 409 2770 889 
Q 3016 1369 3016 2328 
Q 3016 3291 2770 3770 
Q 2525 4250 2034 4250 
z
M 2034 4750 
Q 2819 4750 3233 4129 
Q 3647 3509 3647 2328 
Q 3647 1150 3233 529 
Q 2819 -91 2034 -91 
Q 1250 -91 836 529 
Q 422 1150 422 2328 
Q 422 3509 836 4129 
Q 1250 4750 2034 4750 
z
" transform="scale(0.015625)"/>
       </defs>
       <use xlink:href="#DejaVuSans-30"/>
      </g>
     </g>
    </g>
    <g id="xtick_2">
     <g id="line2d_2">
      <g>
       <use xlink:href="#m5538bedf6b" x="138.776625" y="307.584" style="stroke: #000000; stroke-width: 0.8"/>
      </g>
     </g>
     <g id="text_2">
      <!-- 1000 -->
      <g transform="translate(126.051625 322.182437)scale(0.1 -0.1)">
       <defs>
        <path id="DejaVuSans-31" d="M 794 531 
L 1825 531 
L 1825 4091 
L 703 3866 
L 703 4441 
L 1819 4666 
L 2450 4666 
L 2450 531 
L 3481 531 
L 3481 0 
L 794 0 
L 794 531 
z
" transform="scale(0.015625)"/>
       </defs>
       <use xlink:href="#DejaVuSans-31"/>
       <use xlink:href="#DejaVuSans-30" x="63.623047"/>
       <use xlink:href="#DejaVuSans-30" x="127.246094"/>
       <use xlink:href="#DejaVuSans-30" x="190.869141"/>
      </g>
     </g>
    </g>
    <g id="xtick_3">
     <g id="line2d_3">
      <g>
       <use xlink:href="#m5538bedf6b" x="203.720523" y="307.584" style="stroke: #000000; stroke-width: 0.8"/>
      </g>
     </g>
     <g id="text_3">
      <!-- 2000 -->
      <g transform="translate(190.995523 322.182437)scale(0.1 -0.1)">
       <defs>
        <path id="DejaVuSans-32" d="M 1228 531 
L 3431 531 
L 3431 0 
L 469 0 
L 469 531 
Q 828 903 1448 1529 
Q 2069 2156 2228 2338 
Q 2531 2678 2651 2914 
Q 2772 3150 2772 3378 
Q 2772 3750 2511 3984 
Q 2250 4219 1831 4219 
Q 1534 4219 1204 4116 
Q 875 4013 500 3803 
L 500 4441 
Q 881 4594 1212 4672 
Q 1544 4750 1819 4750 
Q 2544 4750 2975 4387 
Q 3406 4025 3406 3419 
Q 3406 3131 3298 2873 
Q 3191 2616 2906 2266 
Q 2828 2175 2409 1742 
Q 1991 1309 1228 531 
z
" transform="scale(0.015625)"/>
       </defs>
       <use xlink:href="#DejaVuSans-32"/>
       <use xlink:href="#DejaVuSans-30" x="63.623047"/>
       <use xlink:href="#DejaVuSans-30" x="127.246094"/>
       <use xlink:href="#DejaVuSans-30" x="190.869141"/>
      </g>
     </g>
    </g>
    <g id="xtick_4">
     <g id="line2d_4">
      <g>
       <use xlink:href="#m5538bedf6b" x="268.664421" y="307.584" style="stroke: #000000; stroke-width: 0.8"/>
      </g>
     </g>
     <g id="text_4">
      <!-- 3000 -->
      <g transform="translate(255.939421 322.182437)scale(0.1 -0.1)">
       <defs>
        <path id="DejaVuSans-33" d="M 2597 2516 
Q 3050 2419 3304 2112 
Q 3559 1806 3559 1356 
Q 3559 666 3084 287 
Q 2609 -91 1734 -91 
Q 1441 -91 1130 -33 
Q 819 25 488 141 
L 488 750 
Q 750 597 1062 519 
Q 1375 441 1716 441 
Q 2309 441 2620 675 
Q 2931 909 2931 1356 
Q 2931 1769 2642 2001 
Q 2353 2234 1838 2234 
L 1294 2234 
L 1294 2753 
L 1863 2753 
Q 2328 2753 2575 2939 
Q 2822 3125 2822 3475 
Q 2822 3834 2567 4026 
Q 2313 4219 1838 4219 
Q 1578 4219 1281 4162 
Q 984 4106 628 3988 
L 628 4550 
Q 988 4650 1302 4700 
Q 1616 4750 1894 4750 
Q 2613 4750 3031 4423 
Q 3450 4097 3450 3541 
Q 3450 3153 3228 2886 
Q 3006 2619 2597 2516 
z
" transform="scale(0.015625)"/>
       </defs>
       <use xlink:href="#DejaVuSans-33"/>
       <use xlink:href="#DejaVuSans-30" x="63.623047"/>
       <use xlink:href="#DejaVuSans-30" x="127.246094"/>
       <use xlink:href="#DejaVuSans-30" x="190.869141"/>
      </g>
     </g>
    </g>
    <g id="xtick_5">
     <g id="line2d_5">
      <g>
       <use xlink:href="#m5538bedf6b" x="333.608319" y="307.584" style="stroke: #000000; stroke-width: 0.8"/>
      </g>
     </g>
     <g id="text_5">
      <!-- 4000 -->
      <g transform="translate(320.883319 322.182437)scale(0.1 -0.1)">
       <defs>
        <path id="DejaVuSans-34" d="M 2419 4116 
L 825 1625 
L 2419 1625 
L 2419 4116 
z
M 2253 4666 
L 3047 4666 
L 3047 1625 
L 3713 1625 
L 3713 1100 
L 3047 1100 
L 3047 0 
L 2419 0 
L 2419 1100 
L 313 1100 
L 313 1709 
L 2253 4666 
z
" transform="scale(0.015625)"/>
       </defs>
       <use xlink:href="#DejaVuSans-34"/>
       <use xlink:href="#DejaVuSans-30" x="63.623047"/>
       <use xlink:href="#DejaVuSans-30" x="127.246094"/>
       <use xlink:href="#DejaVuSans-30" x="190.869141"/>
      </g>
     </g>
    </g>
    <g id="xtick_6">
     <g id="line2d_6">
      <g>
       <use xlink:href="#m5538bedf6b" x="398.552217" y="307.584" style="stroke: #000000; stroke-width: 0.8"/>
      </g>
     </g>
     <g id="text_6">
      <!-- 5000 -->
      <g transform="translate(385.827217 322.182437)scale(0.1 -0.1)">
       <defs>
        <path id="DejaVuSans-35" d="M 691 4666 
L 3169 4666 
L 3169 4134 
L 1269 4134 
L 1269 2991 
Q 1406 3038 1543 3061 
Q 1681 3084 1819 3084 
Q 2600 3084 3056 2656 
Q 3513 2228 3513 1497 
Q 3513 744 3044 326 
Q 2575 -91 1722 -91 
Q 1428 -91 1123 -41 
Q 819 9 494 109 
L 494 744 
Q 775 591 1075 516 
Q 1375 441 1709 441 
Q 2250 441 2565 725 
Q 2881 1009 2881 1497 
Q 2881 1984 2565 2268 
Q 2250 2553 1709 2553 
Q 1456 2553 1204 2497 
Q 953 2441 691 2322 
L 691 4666 
z
" transform="scale(0.015625)"/>
       </defs>
       <use xlink:href="#DejaVuSans-35"/>
       <use xlink:href="#DejaVuSans-30" x="63.623047"/>
       <use xlink:href="#DejaVuSans-30" x="127.246094"/>
       <use xlink:href="#DejaVuSans-30" x="190.869141"/>
      </g>
     </g>
    </g>
    <g id="text_7">
     <!-- Number of Orders -->
     <g transform="translate(191.261562 335.860562)scale(0.1 -0.1)">
      <defs>
       <path id="DejaVuSans-4e" d="M 628 4666 
L 1478 4666 
L 3547 763 
L 3547 4666 
L 4159 4666 
L 4159 0 
L 3309 0 
L 1241 3903 
L 1241 0 
L 628 0 
L 628 4666 
z
" transform="scale(0.015625)"/>
       <path id="DejaVuSans-75" d="M 544 1381 
L 544 3500 
L 1119 3500 
L 1119 1403 
Q 1119 906 1312 657 
Q 1506 409 1894 409 
Q 2359 409 2629 706 
Q 2900 1003 2900 1516 
L 2900 3500 
L 3475 3500 
L 3475 0 
L 2900 0 
L 2900 538 
Q 2691 219 2414 64 
Q 2138 -91 1772 -91 
Q 1169 -91 856 284 
Q 544 659 544 1381 
z
M 1991 3584 
L 1991 3584 
z
" transform="scale(0.015625)"/>
       <path id="DejaVuSans-6d" d="M 3328 2828 
Q 3544 3216 3844 3400 
Q 4144 3584 4550 3584 
Q 5097 3584 5394 3201 
Q 5691 2819 5691 2113 
L 5691 0 
L 5113 0 
L 5113 2094 
Q 5113 2597 4934 2840 
Q 4756 3084 4391 3084 
Q 3944 3084 3684 2787 
Q 3425 2491 3425 1978 
L 3425 0 
L 2847 0 
L 2847 2094 
Q 2847 2600 2669 2842 
Q 2491 3084 2119 3084 
Q 1678 3084 1418 2786 
Q 1159 2488 1159 1978 
L 1159 0 
L 581 0 
L 581 3500 
L 1159 3500 
L 1159 2956 
Q 1356 3278 1631 3431 
Q 1906 3584 2284 3584 
Q 2666 3584 2933 3390 
Q 3200 3197 3328 2828 
z
" transform="scale(0.015625)"/>
       <path id="DejaVuSans-62" d="M 3116 1747 
Q 3116 2381 2855 2742 
Q 2594 3103 2138 3103 
Q 1681 3103 1420 2742 
Q 1159 2381 1159 1747 
Q 1159 1113 1420 752 
Q 1681 391 2138 391 
Q 2594 391 2855 752 
Q 3116 1113 3116 1747 
z
M 1159 2969 
Q 1341 3281 1617 3432 
Q 1894 3584 2278 3584 
Q 2916 3584 3314 3078 
Q 3713 2572 3713 1747 
Q 3713 922 3314 415 
Q 2916 -91 2278 -91 
Q 1894 -91 1617 61 
Q 1341 213 1159 525 
L 1159 0 
L 581 0 
L 581 4863 
L 1159 4863 
L 1159 2969 
z
" transform="scale(0.015625)"/>
       <path id="DejaVuSans-65" d="M 3597 1894 
L 3597 1613 
L 953 1613 
Q 991 1019 1311 708 
Q 1631 397 2203 397 
Q 2534 397 2845 478 
Q 3156 559 3463 722 
L 3463 178 
Q 3153 47 2828 -22 
Q 2503 -91 2169 -91 
Q 1331 -91 842 396 
Q 353 884 353 1716 
Q 353 2575 817 3079 
Q 1281 3584 2069 3584 
Q 2775 3584 3186 3129 
Q 3597 2675 3597 1894 
z
M 3022 2063 
Q 3016 2534 2758 2815 
Q 2500 3097 2075 3097 
Q 1594 3097 1305 2825 
Q 1016 2553 972 2059 
L 3022 2063 
z
" transform="scale(0.015625)"/>
       <path id="DejaVuSans-72" d="M 2631 2963 
Q 2534 3019 2420 3045 
Q 2306 3072 2169 3072 
Q 1681 3072 1420 2755 
Q 1159 2438 1159 1844 
L 1159 0 
L 581 0 
L 581 3500 
L 1159 3500 
L 1159 2956 
Q 1341 3275 1631 3429 
Q 1922 3584 2338 3584 
Q 2397 3584 2469 3576 
Q 2541 3569 2628 3553 
L 2631 2963 
z
" transform="scale(0.015625)"/>
       <path id="DejaVuSans-20" transform="scale(0.015625)"/>
       <path id="DejaVuSans-6f" d="M 1959 3097 
Q 1497 3097 1228 2736 
Q 959 2375 959 1747 
Q 959 1119 1226 758 
Q 1494 397 1959 397 
Q 2419 397 2687 759 
Q 2956 1122 2956 1747 
Q 2956 2369 2687 2733 
Q 2419 3097 1959 3097 
z
M 1959 3584 
Q 2709 3584 3137 3096 
Q 3566 2609 3566 1747 
Q 3566 888 3137 398 
Q 2709 -91 1959 -91 
Q 1206 -91 779 398 
Q 353 888 353 1747 
Q 353 2609 779 3096 
Q 1206 3584 1959 3584 
z
" transform="scale(0.015625)"/>
       <path id="DejaVuSans-66" d="M 2375 4863 
L 2375 4384 
L 1825 4384 
Q 1516 4384 1395 4259 
Q 1275 4134 1275 3809 
L 1275 3500 
L 2222 3500 
L 2222 3053 
L 1275 3053 
L 1275 0 
L 697 0 
L 697 3053 
L 147 3053 
L 147 3500 
L 697 3500 
L 697 3744 
Q 697 4328 969 4595 
Q 1241 4863 1831 4863 
L 2375 4863 
z
" transform="scale(0.015625)"/>
       <path id="DejaVuSans-4f" d="M 2522 4238 
Q 1834 4238 1429 3725 
Q 1025 3213 1025 2328 
Q 1025 1447 1429 934 
Q 1834 422 2522 422 
Q 3209 422 3611 934 
Q 4013 1447 4013 2328 
Q 4013 3213 3611 3725 
Q 3209 4238 2522 4238 
z
M 2522 4750 
Q 3503 4750 4090 4092 
Q 4678 3434 4678 2328 
Q 4678 1225 4090 567 
Q 3503 -91 2522 -91 
Q 1538 -91 948 565 
Q 359 1222 359 2328 
Q 359 3434 948 4092 
Q 1538 4750 2522 4750 
z
" transform="scale(0.015625)"/>
       <path id="DejaVuSans-64" d="M 2906 2969 
L 2906 4863 
L 3481 4863 
L 3481 0 
L 2906 0 
L 2906 525 
Q 2725 213 2448 61 
Q 2172 -91 1784 -91 
Q 1150 -91 751 415 
Q 353 922 353 1747 
Q 353 2572 751 3078 
Q 1150 3584 1784 3584 
Q 2172 3584 2448 3432 
Q 2725 3281 2906 2969 
z
M 947 1747 
Q 947 1113 1208 752 
Q 1469 391 1925 391 
Q 2381 391 2643 752 
Q 2906 1113 2906 1747 
Q 2906 2381 2643 2742 
Q 2381 3103 1925 3103 
Q 1469 3103 1208 2742 
Q 947 2381 947 1747 
z
" transform="scale(0.015625)"/>
       <path id="DejaVuSans-73" d="M 2834 3397 
L 2834 2853 
Q 2591 2978 2328 3040 
Q 2066 3103 1784 3103 
Q 1356 3103 1142 2972 
Q 928 2841 928 2578 
Q 928 2378 1081 2264 
Q 1234 2150 1697 2047 
L 1894 2003 
Q 2506 1872 2764 1633 
Q 3022 1394 3022 966 
Q 3022 478 2636 193 
Q 2250 -91 1575 -91 
Q 1294 -91 989 -36 
Q 684 19 347 128 
L 347 722 
Q 666 556 975 473 
Q 1284 391 1588 391 
Q 1994 391 2212 530 
Q 2431 669 2431 922 
Q 2431 1156 2273 1281 
Q 2116 1406 1581 1522 
L 1381 1569 
Q 847 1681 609 1914 
Q 372 2147 372 2553 
Q 372 3047 722 3315 
Q 1072 3584 1716 3584 
Q 2034 3584 2315 3537 
Q 2597 3491 2834 3397 
z
" transform="scale(0.015625)"/>
      </defs>
      <use xlink:href="#DejaVuSans-4e"/>
      <use xlink:href="#DejaVuSans-75" x="74.804688"/>
      <use xlink:href="#DejaVuSans-6d" x="138.183594"/>
      <use xlink:href="#DejaVuSans-62" x="235.595703"/>
      <use xlink:href="#DejaVuSans-65" x="299.072266"/>
      <use xlink:href="#DejaVuSans-72" x="360.595703"/>
      <use xlink:href="#DejaVuSans-20" x="401.708984"/>
      <use xlink:href="#DejaVuSans-6f" x="433.496094"/>
      <use xlink:href="#DejaVuSans-66" x="494.677734"/>
      <use xlink:href="#DejaVuSans-20" x="529.882812"/>
      <use xlink:href="#DejaVuSans-4f" x="561.669922"/>
      <use xlink:href="#DejaVuSans-72" x="640.380859"/>
      <use xlink:href="#DejaVuSans-64" x="679.744141"/>
      <use xlink:href="#DejaVuSans-65" x="743.220703"/>
      <use xlink:href="#DejaVuSans-72" x="804.744141"/>
      <use xlink:href="#DejaVuSans-73" x="845.857422"/>
     </g>
    </g>
   </g>
   <g id="matplotlib.axis_2">
    <g id="ytick_1">
     <g id="line2d_7">
      <defs>
       <path id="mb9b5d6888f" d="M 0 0 
L -3.5 0 
" style="stroke: #000000; stroke-width: 0.8"/>
      </defs>
      <g>
       <use xlink:href="#mb9b5d6888f" x="57.6" y="305.266856" style="stroke: #000000; stroke-width: 0.8"/>
      </g>
     </g>
     <g id="text_8">
      <!-- 0 -->
      <g transform="translate(44.2375 309.066075)scale(0.1 -0.1)">
       <use xlink:href="#DejaVuSans-30"/>
      </g>
     </g>
    </g>
    <g id="ytick_2">
     <g id="line2d_8">
      <g>
       <use xlink:href="#mb9b5d6888f" x="57.6" y="267.245708" style="stroke: #000000; stroke-width: 0.8"/>
      </g>
     </g>
     <g id="text_9">
      <!-- 500 -->
      <g transform="translate(31.5125 271.044926)scale(0.1 -0.1)">
       <use xlink:href="#DejaVuSans-35"/>
       <use xlink:href="#DejaVuSans-30" x="63.623047"/>
       <use xlink:href="#DejaVuSans-30" x="127.246094"/>
      </g>
     </g>
    </g>
    <g id="ytick_3">
     <g id="line2d_9">
      <g>
       <use xlink:href="#mb9b5d6888f" x="57.6" y="229.224559" style="stroke: #000000; stroke-width: 0.8"/>
      </g>
     </g>
     <g id="text_10">
      <!-- 1000 -->
      <g transform="translate(25.15 233.023778)scale(0.1 -0.1)">
       <use xlink:href="#DejaVuSans-31"/>
       <use xlink:href="#DejaVuSans-30" x="63.623047"/>
       <use xlink:href="#DejaVuSans-30" x="127.246094"/>
       <use xlink:href="#DejaVuSans-30" x="190.869141"/>
      </g>
     </g>
    </g>
    <g id="ytick_4">
     <g id="line2d_10">
      <g>
       <use xlink:href="#mb9b5d6888f" x="57.6" y="191.20341" style="stroke: #000000; stroke-width: 0.8"/>
      </g>
     </g>
     <g id="text_11">
      <!-- 1500 -->
      <g transform="translate(25.15 195.002629)scale(0.1 -0.1)">
       <use xlink:href="#DejaVuSans-31"/>
       <use xlink:href="#DejaVuSans-35" x="63.623047"/>
       <use xlink:href="#DejaVuSans-30" x="127.246094"/>
       <use xlink:href="#DejaVuSans-30" x="190.869141"/>
      </g>
     </g>
    </g>
    <g id="ytick_5">
     <g id="line2d_11">
      <g>
       <use xlink:href="#mb9b5d6888f" x="57.6" y="153.182262" style="stroke: #000000; stroke-width: 0.8"/>
      </g>
     </g>
     <g id="text_12">
      <!-- 2000 -->
      <g transform="translate(25.15 156.981481)scale(0.1 -0.1)">
       <use xlink:href="#DejaVuSans-32"/>
       <use xlink:href="#DejaVuSans-30" x="63.623047"/>
       <use xlink:href="#DejaVuSans-30" x="127.246094"/>
       <use xlink:href="#DejaVuSans-30" x="190.869141"/>
      </g>
     </g>
    </g>
    <g id="ytick_6">
     <g id="line2d_12">
      <g>
       <use xlink:href="#mb9b5d6888f" x="57.6" y="115.161113" style="stroke: #000000; stroke-width: 0.8"/>
      </g>
     </g>
     <g id="text_13">
      <!-- 2500 -->
      <g transform="translate(25.15 118.960332)scale(0.1 -0.1)">
       <use xlink:href="#DejaVuSans-32"/>
       <use xlink:href="#DejaVuSans-35" x="63.623047"/>
       <use xlink:href="#DejaVuSans-30" x="127.246094"/>
       <use xlink:href="#DejaVuSans-30" x="190.869141"/>
      </g>
     </g>
    </g>
    <g id="ytick_7">
     <g id="line2d_13">
      <g>
       <use xlink:href="#mb9b5d6888f" x="57.6" y="77.139964" style="stroke: #000000; stroke-width: 0.8"/>
      </g>
     </g>
     <g id="text_14">
      <!-- 3000 -->
      <g transform="translate(25.15 80.939183)scale(0.1 -0.1)">
       <use xlink:href="#DejaVuSans-33"/>
       <use xlink:href="#DejaVuSans-30" x="63.623047"/>
       <use xlink:href="#DejaVuSans-30" x="127.246094"/>
       <use xlink:href="#DejaVuSans-30" x="190.869141"/>
      </g>
     </g>
    </g>
    <g id="text_15">
     <!-- Waiting Time/s -->
     <g transform="translate(19.070312 211.410031)rotate(-90)scale(0.1 -0.1)">
      <defs>
       <path id="DejaVuSans-57" d="M 213 4666 
L 850 4666 
L 1831 722 
L 2809 4666 
L 3519 4666 
L 4500 722 
L 5478 4666 
L 6119 4666 
L 4947 0 
L 4153 0 
L 3169 4050 
L 2175 0 
L 1381 0 
L 213 4666 
z
" transform="scale(0.015625)"/>
       <path id="DejaVuSans-61" d="M 2194 1759 
Q 1497 1759 1228 1600 
Q 959 1441 959 1056 
Q 959 750 1161 570 
Q 1363 391 1709 391 
Q 2188 391 2477 730 
Q 2766 1069 2766 1631 
L 2766 1759 
L 2194 1759 
z
M 3341 1997 
L 3341 0 
L 2766 0 
L 2766 531 
Q 2569 213 2275 61 
Q 1981 -91 1556 -91 
Q 1019 -91 701 211 
Q 384 513 384 1019 
Q 384 1609 779 1909 
Q 1175 2209 1959 2209 
L 2766 2209 
L 2766 2266 
Q 2766 2663 2505 2880 
Q 2244 3097 1772 3097 
Q 1472 3097 1187 3025 
Q 903 2953 641 2809 
L 641 3341 
Q 956 3463 1253 3523 
Q 1550 3584 1831 3584 
Q 2591 3584 2966 3190 
Q 3341 2797 3341 1997 
z
" transform="scale(0.015625)"/>
       <path id="DejaVuSans-69" d="M 603 3500 
L 1178 3500 
L 1178 0 
L 603 0 
L 603 3500 
z
M 603 4863 
L 1178 4863 
L 1178 4134 
L 603 4134 
L 603 4863 
z
" transform="scale(0.015625)"/>
       <path id="DejaVuSans-74" d="M 1172 4494 
L 1172 3500 
L 2356 3500 
L 2356 3053 
L 1172 3053 
L 1172 1153 
Q 1172 725 1289 603 
Q 1406 481 1766 481 
L 2356 481 
L 2356 0 
L 1766 0 
Q 1100 0 847 248 
Q 594 497 594 1153 
L 594 3053 
L 172 3053 
L 172 3500 
L 594 3500 
L 594 4494 
L 1172 4494 
z
" transform="scale(0.015625)"/>
       <path id="DejaVuSans-6e" d="M 3513 2113 
L 3513 0 
L 2938 0 
L 2938 2094 
Q 2938 2591 2744 2837 
Q 2550 3084 2163 3084 
Q 1697 3084 1428 2787 
Q 1159 2491 1159 1978 
L 1159 0 
L 581 0 
L 581 3500 
L 1159 3500 
L 1159 2956 
Q 1366 3272 1645 3428 
Q 1925 3584 2291 3584 
Q 2894 3584 3203 3211 
Q 3513 2838 3513 2113 
z
" transform="scale(0.015625)"/>
       <path id="DejaVuSans-67" d="M 2906 1791 
Q 2906 2416 2648 2759 
Q 2391 3103 1925 3103 
Q 1463 3103 1205 2759 
Q 947 2416 947 1791 
Q 947 1169 1205 825 
Q 1463 481 1925 481 
Q 2391 481 2648 825 
Q 2906 1169 2906 1791 
z
M 3481 434 
Q 3481 -459 3084 -895 
Q 2688 -1331 1869 -1331 
Q 1566 -1331 1297 -1286 
Q 1028 -1241 775 -1147 
L 775 -588 
Q 1028 -725 1275 -790 
Q 1522 -856 1778 -856 
Q 2344 -856 2625 -561 
Q 2906 -266 2906 331 
L 2906 616 
Q 2728 306 2450 153 
Q 2172 0 1784 0 
Q 1141 0 747 490 
Q 353 981 353 1791 
Q 353 2603 747 3093 
Q 1141 3584 1784 3584 
Q 2172 3584 2450 3431 
Q 2728 3278 2906 2969 
L 2906 3500 
L 3481 3500 
L 3481 434 
z
" transform="scale(0.015625)"/>
       <path id="DejaVuSans-54" d="M -19 4666 
L 3928 4666 
L 3928 4134 
L 2272 4134 
L 2272 0 
L 1638 0 
L 1638 4134 
L -19 4134 
L -19 4666 
z
" transform="scale(0.015625)"/>
       <path id="DejaVuSans-2f" d="M 1625 4666 
L 2156 4666 
L 531 -594 
L 0 -594 
L 1625 4666 
z
" transform="scale(0.015625)"/>
      </defs>
      <use xlink:href="#DejaVuSans-57"/>
      <use xlink:href="#DejaVuSans-61" x="92.501953"/>
      <use xlink:href="#DejaVuSans-69" x="153.78125"/>
      <use xlink:href="#DejaVuSans-74" x="181.564453"/>
      <use xlink:href="#DejaVuSans-69" x="220.773438"/>
      <use xlink:href="#DejaVuSans-6e" x="248.556641"/>
      <use xlink:href="#DejaVuSans-67" x="311.935547"/>
      <use xlink:href="#DejaVuSans-20" x="375.412109"/>
      <use xlink:href="#DejaVuSans-54" x="407.199219"/>
      <use xlink:href="#DejaVuSans-69" x="465.158203"/>
      <use xlink:href="#DejaVuSans-6d" x="492.941406"/>
      <use xlink:href="#DejaVuSans-65" x="590.353516"/>
      <use xlink:href="#DejaVuSans-2f" x="651.876953"/>
      <use xlink:href="#DejaVuSans-73" x="685.568359"/>
     </g>
    </g>
   </g>
   <g id="line2d_14">
    <path d="M 73.832727 295.488 
L 74.027559 284.241043 
L 74.157447 277.09199 
L 74.222391 277.770056 
L 74.741942 263.693415 
L 74.806886 264.130852 
L 74.87183 263.766509 
L 75.456325 254.574266 
L 75.521269 254.342772 
L 75.651156 252.445787 
L 75.7161 252.369896 
L 75.845988 251.308255 
L 75.910932 251.465831 
L 75.975876 250.885563 
L 76.04082 251.287296 
L 76.170708 250.978267 
L 76.235651 251.215666 
L 76.690259 246.950047 
L 76.755203 247.17139 
L 76.820147 246.833436 
L 76.88509 247.14297 
L 76.950034 245.943624 
L 77.014978 246.34651 
L 77.079922 245.810908 
L 77.144866 246.666688 
L 77.20981 246.304842 
L 77.339698 246.218978 
L 77.404642 246.424224 
L 77.469586 246.288701 
L 77.534529 246.356559 
L 77.599473 247.20966 
L 77.664417 246.776803 
L 77.729361 246.594758 
L 77.859249 247.117514 
L 77.989137 246.726007 
L 78.054081 246.799885 
L 78.119025 246.225229 
L 78.183968 246.533304 
L 78.248912 246.485449 
L 78.443744 247.056153 
L 78.638576 245.941855 
L 79.158127 243.335821 
L 79.288015 243.981918 
L 79.352959 243.842313 
L 79.417902 243.805715 
L 79.87251 244.523732 
L 80.002398 243.711764 
L 80.067341 243.76997 
L 80.197229 243.94382 
L 80.327117 243.477879 
L 80.392061 243.707517 
L 81.0415 241.265327 
L 81.106444 241.582933 
L 81.171388 241.483452 
L 81.301276 241.322788 
L 81.431163 241.529237 
L 81.755883 240.885027 
L 81.820827 241.024132 
L 82.21049 240.352959 
L 82.470266 241.121785 
L 82.730041 240.637905 
L 82.859929 240.787918 
L 83.119705 240.524225 
L 83.249592 240.63265 
L 83.314536 240.326339 
L 83.37948 240.419484 
L 83.574312 239.869616 
L 83.639256 239.965104 
L 83.7042 240.106748 
L 83.769144 240.035723 
L 83.899031 239.774123 
L 83.963975 239.787782 
L 84.093863 240.080451 
L 84.288695 239.728238 
L 84.353639 239.800524 
L 84.483527 239.625437 
L 84.613414 239.605941 
L 84.808246 239.813991 
L 84.938134 239.432198 
L 85.068022 239.916637 
L 85.132966 239.559575 
L 85.197909 239.76601 
L 85.912292 239.483687 
L 85.977236 239.687673 
L 86.04218 239.475018 
L 86.107124 239.61964 
L 86.172068 239.822813 
L 86.237012 239.77702 
L 86.431843 239.210603 
L 86.626675 239.232758 
L 87.016339 239.354653 
L 87.081282 239.187207 
L 87.146226 239.332944 
L 87.276114 239.084438 
L 87.341058 239.159335 
L 87.600834 238.903316 
L 87.795665 238.930644 
L 87.860609 238.851976 
L 88.120385 239.25502 
L 88.250273 239.39345 
L 88.445104 239.679715 
L 88.964655 239.350506 
L 89.029599 239.460972 
L 89.094543 239.164208 
L 89.159487 239.279284 
L 89.354319 239.593257 
L 89.484207 239.372402 
L 89.549151 239.38588 
L 89.808926 238.853192 
L 90.133646 239.309083 
L 90.328477 239.294811 
L 90.458365 239.178151 
L 90.588253 239.135957 
L 90.653197 239.274961 
L 90.718141 239.160616 
L 90.912972 239.293491 
L 91.04286 239.51598 
L 91.107804 239.45167 
L 91.302636 239.033595 
L 91.497467 238.984387 
L 91.952075 239.617979 
L 92.21185 239.839093 
L 92.341738 239.690864 
L 92.731402 239.980463 
L 92.861289 239.704963 
L 92.991177 239.853891 
L 93.121065 239.729179 
L 93.510728 240.053951 
L 93.575672 239.802849 
L 93.640616 239.838288 
L 93.835448 240.04421 
L 94.03028 240.042032 
L 94.095223 240.145742 
L 94.160167 240.055158 
L 94.225111 240.098555 
L 94.419943 239.781174 
L 95.004438 240.0805 
L 95.134326 239.900415 
L 95.523989 239.724233 
L 95.783765 239.487955 
L 95.913653 239.432526 
L 96.173428 239.330379 
L 96.36826 239.306132 
L 96.498148 239.202733 
L 96.887811 239.252999 
L 97.147587 239.274043 
L 97.277474 239.406556 
L 97.667138 239.274624 
L 97.861969 239.014127 
L 98.056801 239.135951 
L 98.381521 239.003072 
L 98.446465 238.998091 
L 98.576352 238.759236 
L 98.836128 238.982875 
L 99.03096 238.818586 
L 99.290735 238.638586 
L 99.355679 238.697644 
L 99.420623 238.585168 
L 99.485567 238.678684 
L 99.550511 238.63883 
L 99.745343 238.346878 
L 100.005118 238.322721 
L 100.264894 238.276688 
L 100.459725 238.258458 
L 100.654557 238.108205 
L 101.758603 237.273762 
L 101.953435 237.056849 
L 102.083323 237.009279 
L 102.213211 236.91204 
L 102.408042 236.96307 
L 102.602874 236.842487 
L 102.797706 236.698273 
L 102.927594 236.792808 
L 103.447145 236.062622 
L 103.577032 235.972954 
L 103.771864 235.806688 
L 104.096584 235.63633 
L 104.226471 235.648512 
L 104.356359 235.608942 
L 104.681079 235.143493 
L 105.655237 234.144264 
L 105.915013 233.809662 
L 106.69434 233.356057 
L 106.889171 233.164404 
L 108.902432 231.606445 
L 109.227152 231.25652 
L 110.980637 230.085036 
L 111.110525 229.854806 
L 111.175469 229.886486 
L 111.3703 229.544368 
L 111.500188 229.625246 
L 111.954795 229.260047 
L 112.149627 229.114664 
L 112.53929 228.930373 
L 112.669178 228.926397 
L 112.799066 228.84685 
L 112.928954 228.883692 
L 113.058842 228.779105 
L 113.188729 228.75448 
L 113.708281 228.584437 
L 113.968056 228.426795 
L 114.617495 228.356158 
L 114.877271 227.98931 
L 115.072102 227.957558 
L 115.331878 227.667654 
L 116.111205 227.481504 
L 116.435924 227.344538 
L 116.565812 227.308642 
L 116.955475 227.235367 
L 117.085363 227.259319 
L 117.734802 226.908252 
L 117.86469 226.864737 
L 118.254353 226.576059 
L 119.423344 225.969209 
L 119.683119 226.081712 
L 119.877951 225.892488 
L 120.332558 225.659303 
L 120.52739 225.624165 
L 120.787165 225.450637 
L 120.981997 225.413149 
L 121.046941 225.330033 
L 121.111885 225.397744 
L 121.371661 225.365846 
L 121.69638 225.305361 
L 124.878631 223.814534 
L 125.073463 223.720565 
L 125.852789 223.535336 
L 126.112565 223.33068 
L 126.307397 223.288352 
L 126.826948 223.098273 
L 127.086724 222.942616 
L 127.346499 222.816652 
L 127.541331 222.690718 
L 128.255714 222.317814 
L 128.450545 222.274234 
L 128.905153 222.116252 
L 129.229872 221.944527 
L 129.424704 221.855425 
L 129.684479 221.710235 
L 129.879311 221.677406 
L 130.204031 221.506738 
L 130.52875 221.242078 
L 131.373021 220.930338 
L 131.69774 220.705034 
L 132.412123 220.468653 
L 132.671899 220.330282 
L 132.86673 220.338009 
L 133.126506 220.295503 
L 133.516169 220.189223 
L 133.905833 220.031925 
L 134.100664 220.074197 
L 134.425384 219.925143 
L 134.555272 219.887185 
L 135.139767 219.724761 
L 135.399542 219.638951 
L 135.984038 219.573896 
L 136.178869 219.512837 
L 136.438645 219.410504 
L 137.607635 218.940093 
L 138.386962 218.869707 
L 138.906513 218.665379 
L 139.296176 218.662184 
L 139.750784 218.543333 
L 140.595054 218.37204 
L 140.789886 218.229738 
L 140.984718 218.246872 
L 141.179549 218.180922 
L 141.569213 218.083956 
L 141.958876 217.948304 
L 142.153708 217.961735 
L 142.673259 217.776265 
L 143.387642 217.591149 
L 143.907193 217.543006 
L 144.102025 217.468695 
L 144.556632 217.447201 
L 145.011239 217.30494 
L 145.465847 217.291275 
L 145.920454 217.183153 
L 146.050342 217.188631 
L 146.504949 216.903105 
L 146.764725 216.889209 
L 147.089444 216.903699 
L 147.284276 216.903433 
L 147.998659 216.727521 
L 148.388322 216.664652 
L 148.713042 216.543352 
L 148.972817 216.51365 
L 149.752144 216.197675 
L 150.011919 216.028798 
L 150.85619 215.681967 
L 151.115966 215.550229 
L 152.999339 214.874874 
L 153.389002 214.596163 
L 153.713722 214.464315 
L 154.168329 214.238715 
L 154.428105 214.159024 
L 157.805187 212.44287 
L 158.129907 212.331944 
L 158.974177 211.958821 
L 159.298897 211.785674 
L 159.68856 211.562381 
L 160.078224 211.438185 
L 161.117326 210.963503 
L 161.377102 210.818675 
L 162.481148 210.140734 
L 163.195531 209.835168 
L 163.455306 209.704046 
L 163.650138 209.660442 
L 164.234633 209.343226 
L 164.624296 209.057162 
L 166.572613 208.227091 
L 167.222052 207.987764 
L 167.611716 207.684712 
L 170.599135 206.39547 
L 170.923855 206.260003 
L 171.703181 206.065169 
L 171.898013 206.019174 
L 172.092845 205.941331 
L 172.807228 205.692673 
L 174.560713 205.176367 
L 176.18431 204.670475 
L 176.50903 204.5638 
L 176.963637 204.403707 
L 177.937796 204.148445 
L 178.392403 204.021214 
L 178.976898 203.77079 
L 179.951056 203.483307 
L 180.795327 203.115307 
L 181.18499 202.946536 
L 181.639598 202.825252 
L 182.224093 202.60341 
L 182.548812 202.531901 
L 184.562073 201.71032 
L 188.978258 199.981677 
L 189.757585 199.597457 
L 190.601856 199.221892 
L 191.121407 198.9638 
L 191.51107 198.810297 
L 199.694001 194.055779 
L 208.071764 188.64394 
L 208.980979 187.953688 
L 209.565474 187.624592 
L 210.539632 187.010526 
L 211.124127 186.670664 
L 211.448847 186.440614 
L 213.072444 185.379188 
L 213.591995 184.99117 
L 213.916715 184.787536 
L 215.020761 184.084532 
L 215.410425 183.817705 
L 215.865032 183.540956 
L 217.034022 182.788447 
L 217.683461 182.361409 
L 218.592676 181.816795 
L 219.177171 181.42077 
L 220.411105 180.586411 
L 221.320319 179.988824 
L 221.774927 179.688014 
L 222.099646 179.484137 
L 222.554253 179.137619 
L 223.073805 178.776656 
L 230.932016 173.62588 
L 231.516511 173.273328 
L 235.218313 170.84751 
L 237.036743 169.619405 
L 238.010901 168.858367 
L 239.439667 167.765397 
L 239.894274 167.445233 
L 241.517872 166.222408 
L 241.907535 165.945116 
L 242.621918 165.438834 
L 243.206413 164.970609 
L 243.596076 164.666776 
L 243.920796 164.458828 
L 244.440347 164.053255 
L 245.739225 163.104022 
L 247.232935 162.024839 
L 247.687542 161.696121 
L 249.635859 160.184467 
L 252.298559 158.142425 
L 254.246876 156.600216 
L 254.766427 156.165025 
L 255.350922 155.723383 
L 256.454968 154.926583 
L 257.753846 153.908512 
L 258.598117 153.326237 
L 258.98778 153.0235 
L 259.961939 152.343991 
L 260.48149 151.958883 
L 261.32576 151.379805 
L 262.624638 150.429307 
L 263.728685 149.638189 
L 264.767787 148.829906 
L 265.612058 148.22272 
L 268.209814 146.308934 
L 268.859253 145.807904 
L 270.742626 144.358797 
L 271.067345 144.125933 
L 271.781728 143.545548 
L 273.665101 142.168081 
L 275.288698 140.885763 
L 275.873194 140.418262 
L 278.276118 138.499892 
L 284.510732 133.710981 
L 285.225115 133.16819 
L 286.069386 132.556222 
L 286.848712 131.920179 
L 289.186693 130.108519 
L 289.901075 129.552611 
L 296.785129 124.43159 
L 298.019063 123.496732 
L 299.707604 122.22381 
L 300.486931 121.673894 
L 301.655921 120.758638 
L 320.424707 107.296641 
L 322.6328 105.796343 
L 324.516173 104.48348 
L 329.711685 101.062472 
L 330.361124 100.637594 
L 333.218655 98.693323 
L 334.322702 97.937789 
L 336.725626 96.256524 
L 338.219336 95.223171 
L 341.141811 93.255923 
L 343.220016 91.788293 
L 344.194174 91.092528 
L 345.103389 90.453982 
L 359.650822 80.114538 
L 360.430149 79.5844 
L 364.521614 76.73613 
L 368.872855 73.564972 
L 369.847014 72.855008 
L 371.925218 71.376021 
L 384.264559 62.938268 
L 387.251978 60.911133 
L 389.330183 59.525801 
L 395.305022 55.707692 
L 396.149292 55.162775 
L 397.513114 54.244717 
L 398.487273 53.568 
L 398.487273 53.568 
" clip-path="url(#p51ac2984e6)" style="fill: none; stroke-dasharray: 2,3.3; stroke-dashoffset: 0; stroke: #0000ff; stroke-width: 2"/>
   </g>
   <g id="line2d_15">
    <path d="M 73.832727 295.488 
L 74.027559 284.241043 
L 74.157447 277.09199 
L 74.222391 277.770056 
L 74.287335 276.033121 
L 74.352278 277.715576 
L 74.676998 264.64686 
L 74.741942 264.294582 
L 74.806886 263.081775 
L 74.87183 263.437732 
L 74.936774 263.132137 
L 75.456325 257.582438 
L 75.845988 252.462917 
L 75.910932 252.507743 
L 75.975876 252.99818 
L 76.04082 252.935663 
L 76.105764 252.63313 
L 76.365539 250.436219 
L 76.495427 250.664912 
L 76.625315 249.769917 
L 76.690259 250.516032 
L 76.820147 248.950056 
L 76.88509 249.197712 
L 76.950034 247.990689 
L 77.014978 248.264696 
L 77.079922 248.468873 
L 77.144866 248.307118 
L 77.20981 248.222795 
L 77.274754 247.682 
L 77.339698 247.999147 
L 77.404642 248.315017 
L 77.599473 246.436782 
L 77.664417 246.927217 
L 77.729361 247.592955 
L 77.924193 246.320209 
L 78.054081 246.634959 
L 78.119025 246.07725 
L 78.183968 246.300362 
L 78.443744 245.479715 
L 78.573632 245.932593 
L 78.70352 245.331623 
L 78.833407 244.488559 
L 78.898351 244.302912 
L 78.963295 244.840416 
L 79.158127 244.219643 
L 79.223071 244.274587 
L 79.288015 243.947361 
L 79.352959 244.118319 
L 79.54779 243.734424 
L 79.742622 244.455287 
L 79.807566 244.076527 
L 79.87251 244.183399 
L 79.937454 244.165024 
L 80.067341 243.529912 
L 80.132285 243.594271 
L 80.262173 243.902888 
L 80.327117 243.715234 
L 80.71678 241.457512 
L 81.0415 242.228434 
L 81.106444 242.154494 
L 81.171388 241.920685 
L 81.236332 242.227069 
L 81.366219 241.835278 
L 81.755883 241.473952 
L 81.820827 241.522288 
L 81.885771 241.290378 
L 81.950715 241.313942 
L 82.145546 241.608884 
L 82.21049 241.482355 
L 82.275434 241.433817 
L 82.470266 240.951937 
L 82.53521 241.224462 
L 82.600153 240.970373 
L 82.665097 240.988133 
L 82.794985 241.188735 
L 82.859929 241.093533 
L 82.924873 240.885777 
L 82.989817 241.086833 
L 83.119705 240.673448 
L 83.184649 240.71974 
L 83.37948 241.033179 
L 83.444424 241.099777 
L 83.899031 240.038563 
L 83.963975 240.220936 
L 84.223751 239.893557 
L 84.483527 239.07172 
L 84.54847 239.190064 
L 84.613414 239.124653 
L 84.678358 238.906265 
L 84.743302 238.958468 
L 85.068022 239.524624 
L 85.132966 239.346542 
L 85.197909 239.49003 
L 85.327797 239.440187 
L 85.457685 239.805831 
L 85.717461 239.60384 
L 85.782404 239.675533 
L 85.847348 239.448772 
L 85.912292 239.50415 
L 85.977236 239.608651 
L 86.107124 239.395358 
L 86.237012 239.754769 
L 86.431843 239.275138 
L 86.561731 239.378644 
L 86.886451 238.939785 
L 87.081282 239.146276 
L 87.146226 239.266381 
L 87.600834 238.329857 
L 87.665778 238.457614 
L 87.795665 238.450468 
L 87.925553 238.552197 
L 87.990497 238.469848 
L 88.055441 238.543004 
L 88.250273 238.634242 
L 88.38016 238.157505 
L 88.445104 238.286315 
L 88.510048 238.314729 
L 88.639936 238.545578 
L 88.834768 238.216612 
L 88.899712 238.381934 
L 88.964655 238.148638 
L 89.029599 238.191361 
L 89.159487 238.444698 
L 89.289375 238.267343 
L 89.419263 238.386692 
L 89.614094 238.031132 
L 89.679038 238.127626 
L 89.743982 237.908624 
L 89.808926 237.954858 
L 90.003758 238.14597 
L 90.068702 237.98432 
L 90.19859 238.19688 
L 90.263533 238.118064 
L 90.328477 237.844808 
L 90.393421 237.978734 
L 90.653197 238.031171 
L 90.718141 238.187612 
L 90.783085 238.079252 
L 91.04286 238.255615 
L 91.36758 237.948916 
L 91.627355 238.334222 
L 91.757243 238.2463 
L 91.822187 238.329107 
L 91.887131 238.180001 
L 91.952075 238.308957 
L 92.276794 238.711493 
L 92.471626 238.435926 
L 92.53657 238.402631 
L 92.731402 238.607201 
L 92.926233 238.485769 
L 92.991177 238.365829 
L 93.056121 238.411401 
L 93.250953 238.543108 
L 93.640616 238.666642 
L 93.70556 238.745361 
L 93.835448 238.580218 
L 94.03028 238.504401 
L 94.225111 238.637765 
L 94.419943 238.579105 
L 94.549831 238.638002 
L 94.744662 238.564358 
L 95.069382 238.750369 
L 95.264214 238.53613 
L 95.394101 238.502123 
L 95.588933 238.42953 
L 95.718821 238.302934 
L 95.913653 238.389216 
L 95.978596 238.549644 
L 96.04354 238.430498 
L 96.303316 238.355148 
L 96.433204 238.358996 
L 96.563092 238.027991 
L 96.757923 238.153328 
L 96.952755 237.981017 
L 97.017699 238.13246 
L 97.082643 238.093108 
L 97.797026 237.505346 
L 98.966016 237.18678 
L 99.095904 237.277788 
L 99.290735 236.808303 
L 99.355679 236.926413 
L 99.550511 237.084788 
L 99.810286 237.077666 
L 99.940174 237.071511 
L 100.005118 237.176995 
L 100.070062 237.028647 
L 100.135006 237.084193 
L 100.19995 237.070155 
L 100.394782 236.784203 
L 100.589613 236.852616 
L 100.719501 236.927183 
L 100.849389 236.868094 
L 101.109164 236.882347 
L 101.303996 236.980652 
L 101.498828 236.974637 
L 101.563772 236.964158 
L 101.758603 236.776715 
L 102.278155 236.9731 
L 102.408042 237.054062 
L 102.667818 236.933052 
L 102.86265 237.074361 
L 103.122425 236.861005 
L 103.252313 236.817277 
L 103.382201 236.859812 
L 103.512089 236.874479 
L 103.771864 236.957347 
L 104.810967 236.776036 
L 105.005798 236.837099 
L 105.330518 236.755304 
L 105.590293 236.857935 
L 105.785125 236.847335 
L 105.979957 236.953545 
L 106.239732 236.656423 
L 106.36962 236.780463 
L 106.499508 236.632334 
L 106.69434 236.685061 
L 106.889171 236.695469 
L 107.278835 236.61635 
L 107.343779 236.581615 
L 107.473666 236.678461 
L 107.668498 236.689138 
L 107.86333 236.642848 
L 107.993218 236.554444 
L 108.317937 236.625311 
L 108.512769 236.733527 
L 108.772544 236.869544 
L 109.097264 236.777528 
L 109.421983 236.777054 
L 109.681759 236.797056 
L 110.331198 236.862622 
L 110.52603 237.012522 
L 110.785805 236.838531 
L 111.110525 236.952411 
L 111.240412 236.95114 
L 111.3703 236.997509 
L 111.824908 236.679079 
L 112.149627 236.753137 
L 112.474347 236.815726 
L 112.604234 236.775446 
L 112.734122 236.80938 
L 112.928954 236.797683 
L 113.643337 236.618116 
L 113.838168 236.566313 
L 114.033 236.707428 
L 114.422663 236.69974 
L 114.552551 236.681663 
L 114.617495 236.574668 
L 114.682439 236.65171 
L 115.072102 236.640342 
L 115.396822 236.623486 
L 115.591654 236.537883 
L 116.306036 236.55318 
L 116.500868 236.666126 
L 116.760644 236.681314 
L 117.085363 236.594207 
L 117.280195 236.579349 
L 117.410083 236.683902 
L 117.475027 236.598809 
L 117.539971 236.679556 
L 117.994578 236.703473 
L 118.124466 236.675381 
L 118.449185 236.652112 
L 118.644017 236.608724 
L 118.903792 236.475048 
L 119.03368 236.391533 
L 119.3584 236.318713 
L 119.488287 236.271496 
L 119.942895 236.225754 
L 120.20267 236.345903 
L 120.397502 236.328816 
L 120.657278 236.447698 
L 120.852109 236.50149 
L 121.241773 236.354773 
L 121.306717 236.406191 
L 121.501548 236.262633 
L 121.631436 236.259675 
L 121.761324 236.284572 
L 122.021099 236.128912 
L 126.437285 235.916593 
L 126.69706 235.983207 
L 127.086724 236.03248 
L 127.216611 236.084623 
L 127.346499 236.046958 
L 127.606275 236.088737 
L 127.995938 236.137912 
L 128.255714 236.082386 
L 128.515489 236.051296 
L 128.710321 236.114315 
L 128.840209 236.053432 
L 129.099984 236.143045 
L 129.814367 236.148269 
L 130.139087 236.194384 
L 130.593694 236.129293 
L 130.788526 236.114206 
L 131.373021 236.016819 
L 131.632796 236.147907 
L 131.827628 236.120614 
L 132.282235 236.156836 
L 132.477067 236.158828 
L 132.996618 236.299643 
L 133.19145 236.23357 
L 133.386282 236.256085 
L 133.905833 236.239896 
L 134.230552 236.129703 
L 136.113925 236.370791 
L 136.308757 236.318861 
L 137.02314 236.509439 
L 137.347859 236.44413 
L 137.672579 236.450654 
L 138.19213 236.573371 
L 138.51685 236.631599 
L 138.841569 236.563413 
L 138.971457 236.498107 
L 139.620896 236.523383 
L 140.270335 236.638357 
L 140.400223 236.630273 
L 140.659998 236.622917 
L 143.777305 236.777753 
L 145.595734 236.93557 
L 145.85551 236.907993 
L 146.245173 236.933103 
L 152.3499 236.85107 
L 152.739563 236.813313 
L 153.19417 236.821165 
L 153.389002 236.798392 
L 153.843609 236.779251 
L 154.622936 236.655808 
L 155.85687 236.59949 
L 156.571253 236.536115 
L 157.090804 236.436749 
L 157.480468 236.414291 
L 157.870131 236.334944 
L 158.194851 236.292127 
L 158.779346 236.227158 
L 159.104065 236.153892 
L 159.298897 236.163719 
L 159.623616 236.192794 
L 159.948336 236.197218 
L 160.532831 236.217766 
L 160.922494 236.218029 
L 161.247214 236.109488 
L 161.766765 236.083422 
L 162.091484 236.026492 
L 162.481148 236.100397 
L 162.67598 236.110363 
L 163.325419 236.199853 
L 165.273735 236.2242 
L 165.663399 236.228552 
L 165.923174 236.206531 
L 166.572613 236.202203 
L 167.092165 236.240339 
L 168.066323 236.230986 
L 168.52093 236.194875 
L 168.84565 236.219116 
L 169.300257 236.258178 
L 170.404303 236.270638 
L 170.729023 236.284088 
L 171.378462 236.363377 
L 171.833069 236.442955 
L 172.092845 236.450655 
L 172.417564 236.439948 
L 172.742284 236.400547 
L 173.067003 236.386775 
L 173.456667 236.394587 
L 173.716442 236.363652 
L 174.755545 236.372468 
L 175.275096 236.286749 
L 175.599815 236.277926 
L 176.119366 236.36075 
L 176.573974 236.416253 
L 178.262515 236.329034 
L 178.782066 236.400869 
L 180.016 236.372345 
L 183.328139 236.539455 
L 183.652859 236.550251 
L 183.912634 236.558372 
L 184.17241 236.529881 
L 184.562073 236.529512 
L 184.756905 236.538106 
L 186.964997 236.50806 
L 187.354661 236.483956 
L 187.744324 236.495996 
L 188.913314 236.319145 
L 189.497809 236.300013 
L 190.861631 236.255916 
L 191.446126 236.257045 
L 192.874892 236.195975 
L 193.329499 236.195253 
L 194.823209 236.101624 
L 195.147928 236.089783 
L 195.862311 236.080368 
L 196.187031 236.092873 
L 199.239394 236.03289 
L 199.564114 236.064575 
L 200.083665 236.049059 
L 200.473328 236.01519 
L 201.252655 235.975881 
L 202.356701 235.837109 
L 203.395804 235.825821 
L 203.915355 235.775284 
L 204.240074 235.757451 
L 204.759625 235.729301 
L 209.50053 235.565254 
L 210.149969 235.521467 
L 211.513791 235.553004 
L 211.773566 235.469426 
L 212.423005 235.50321 
L 212.812669 235.437484 
L 213.202332 235.423143 
L 213.527052 235.345924 
L 213.786827 235.316552 
L 214.176491 235.309502 
L 217.228854 235.245194 
L 218.3329 235.13968 
L 218.917395 235.101687 
L 219.242115 235.033556 
L 220.67088 234.927996 
L 228.204373 234.939152 
L 228.464148 234.949986 
L 228.788868 234.928243 
L 230.99696 234.984185 
L 231.581455 234.932393 
L 236.387304 234.82576 
L 236.776967 234.814941 
L 237.361462 234.777216 
L 238.400564 234.764221 
L 239.179891 234.711136 
L 239.764386 234.710522 
L 240.218994 234.687738 
L 240.673601 234.686579 
L 241.582815 234.666816 
L 242.167311 234.658076 
L 250.999681 234.581083 
L 252.363503 234.463213 
L 253.597437 234.450052 
L 254.181932 234.428021 
L 255.091146 234.444472 
L 261.455648 234.270864 
L 261.845312 234.295177 
L 262.494751 234.271199 
L 262.884414 234.304786 
L 263.598797 234.297409 
L 270.223074 234.312677 
L 270.677682 234.294352 
L 271.327121 234.288044 
L 272.431167 234.305831 
L 273.015662 234.283914 
L 277.301959 234.197741 
L 277.82151 234.182609 
L 278.406006 234.181782 
L 278.860613 234.15496 
L 281.263537 234.198527 
L 282.757247 234.242691 
L 284.900395 234.236594 
L 286.004442 234.206512 
L 286.459049 234.210945 
L 293.602878 234.115732 
L 294.64198 234.159409 
L 295.746026 234.074956 
L 297.564455 234.092259 
L 299.447828 234.033454 
L 300.097267 234.033193 
L 307.435928 234.055075 
L 308.345142 234.027551 
L 309.124469 233.9836 
L 309.96874 233.958546 
L 311.527393 233.972772 
L 311.917057 233.986222 
L 315.164252 234.096622 
L 315.813691 234.094297 
L 317.047625 234.144087 
L 318.216615 234.146802 
L 320.035044 234.12115 
L 321.13909 234.089892 
L 322.048305 234.081246 
L 322.567856 234.071121 
L 323.542015 234.03664 
L 324.321341 234.046482 
L 325.360444 234.036961 
L 328.932358 234.092866 
L 330.166292 234.098096 
L 330.620899 234.093906 
L 331.724946 234.119824 
L 332.504272 234.107473 
L 333.413487 234.121166 
L 334.192814 234.080036 
L 335.037085 234.096749 
L 339.45327 234.147052 
L 340.102709 234.160068 
L 343.804511 234.168914 
L 345.557996 234.107006 
L 346.077547 234.076614 
L 351.208115 233.896633 
L 351.79261 233.904308 
L 352.442049 233.917646 
L 353.28632 233.927246 
L 362.898017 233.783865 
L 364.326782 233.784108 
L 366.469931 233.774527 
L 368.548136 233.752527 
L 370.366565 233.700047 
L 370.886116 233.707229 
L 373.094209 233.697677 
L 373.61376 233.701989 
L 374.847694 233.72603 
L 380.822533 233.761735 
L 383.030625 233.794399 
L 384.069727 233.803738 
L 386.082988 233.793268 
L 386.992203 233.768171 
L 388.875576 233.730166 
L 389.979622 233.733397 
L 394.850414 233.804928 
L 395.629741 233.778624 
L 398.422329 233.715974 
L 398.487273 233.7086 
L 398.487273 233.7086 
" clip-path="url(#p51ac2984e6)" style="fill: none; stroke-dasharray: 2,3.3; stroke-dashoffset: 0; stroke: #ffa500; stroke-width: 2"/>
   </g>
   <g id="patch_3">
    <path d="M 57.6 307.584 
L 57.6 41.472 
" style="fill: none; stroke: #000000; stroke-width: 0.8; stroke-linejoin: miter; stroke-linecap: square"/>
   </g>
   <g id="patch_4">
    <path d="M 414.72 307.584 
L 414.72 41.472 
" style="fill: none; stroke: #000000; stroke-width: 0.8; stroke-linejoin: miter; stroke-linecap: square"/>
   </g>
   <g id="patch_5">
    <path d="M 57.6 307.584 
L 414.72 307.584 
" style="fill: none; stroke: #000000; stroke-width: 0.8; stroke-linejoin: miter; stroke-linecap: square"/>
   </g>
   <g id="patch_6">
    <path d="M 57.6 41.472 
L 414.72 41.472 
" style="fill: none; stroke: #000000; stroke-width: 0.8; stroke-linejoin: miter; stroke-linecap: square"/>
   </g>
   <g id="text_16">
    <!-- Waiting Time Plot -->
    <g transform="translate(183.833438 8.2635)scale(0.12 -0.12)">
     <defs>
      <path id="DejaVuSans-50" d="M 1259 4147 
L 1259 2394 
L 2053 2394 
Q 2494 2394 2734 2622 
Q 2975 2850 2975 3272 
Q 2975 3691 2734 3919 
Q 2494 4147 2053 4147 
L 1259 4147 
z
M 628 4666 
L 2053 4666 
Q 2838 4666 3239 4311 
Q 3641 3956 3641 3272 
Q 3641 2581 3239 2228 
Q 2838 1875 2053 1875 
L 1259 1875 
L 1259 0 
L 628 0 
L 628 4666 
z
" transform="scale(0.015625)"/>
      <path id="DejaVuSans-6c" d="M 603 4863 
L 1178 4863 
L 1178 0 
L 603 0 
L 603 4863 
z
" transform="scale(0.015625)"/>
     </defs>
     <use xlink:href="#DejaVuSans-57"/>
     <use xlink:href="#DejaVuSans-61" x="92.501953"/>
     <use xlink:href="#DejaVuSans-69" x="153.78125"/>
     <use xlink:href="#DejaVuSans-74" x="181.564453"/>
     <use xlink:href="#DejaVuSans-69" x="220.773438"/>
     <use xlink:href="#DejaVuSans-6e" x="248.556641"/>
     <use xlink:href="#DejaVuSans-67" x="311.935547"/>
     <use xlink:href="#DejaVuSans-20" x="375.412109"/>
     <use xlink:href="#DejaVuSans-54" x="407.199219"/>
     <use xlink:href="#DejaVuSans-69" x="465.158203"/>
     <use xlink:href="#DejaVuSans-6d" x="492.941406"/>
     <use xlink:href="#DejaVuSans-65" x="590.353516"/>
     <use xlink:href="#DejaVuSans-20" x="651.876953"/>
     <use xlink:href="#DejaVuSans-50" x="683.664062"/>
     <use xlink:href="#DejaVuSans-6c" x="743.966797"/>
     <use xlink:href="#DejaVuSans-6f" x="771.75"/>
     <use xlink:href="#DejaVuSans-74" x="832.931641"/>
    </g>
    <!--  avg_d = 3309.9849068424733  -->
    <g transform="translate(138.854062 21.700875)scale(0.12 -0.12)">
     <defs>
      <path id="DejaVuSans-76" d="M 191 3500 
L 800 3500 
L 1894 563 
L 2988 3500 
L 3597 3500 
L 2284 0 
L 1503 0 
L 191 3500 
z
" transform="scale(0.015625)"/>
      <path id="DejaVuSans-5f" d="M 3263 -1063 
L 3263 -1509 
L -63 -1509 
L -63 -1063 
L 3263 -1063 
z
" transform="scale(0.015625)"/>
      <path id="DejaVuSans-3d" d="M 678 2906 
L 4684 2906 
L 4684 2381 
L 678 2381 
L 678 2906 
z
M 678 1631 
L 4684 1631 
L 4684 1100 
L 678 1100 
L 678 1631 
z
" transform="scale(0.015625)"/>
      <path id="DejaVuSans-39" d="M 703 97 
L 703 672 
Q 941 559 1184 500 
Q 1428 441 1663 441 
Q 2288 441 2617 861 
Q 2947 1281 2994 2138 
Q 2813 1869 2534 1725 
Q 2256 1581 1919 1581 
Q 1219 1581 811 2004 
Q 403 2428 403 3163 
Q 403 3881 828 4315 
Q 1253 4750 1959 4750 
Q 2769 4750 3195 4129 
Q 3622 3509 3622 2328 
Q 3622 1225 3098 567 
Q 2575 -91 1691 -91 
Q 1453 -91 1209 -44 
Q 966 3 703 97 
z
M 1959 2075 
Q 2384 2075 2632 2365 
Q 2881 2656 2881 3163 
Q 2881 3666 2632 3958 
Q 2384 4250 1959 4250 
Q 1534 4250 1286 3958 
Q 1038 3666 1038 3163 
Q 1038 2656 1286 2365 
Q 1534 2075 1959 2075 
z
" transform="scale(0.015625)"/>
      <path id="DejaVuSans-2e" d="M 684 794 
L 1344 794 
L 1344 0 
L 684 0 
L 684 794 
z
" transform="scale(0.015625)"/>
      <path id="DejaVuSans-38" d="M 2034 2216 
Q 1584 2216 1326 1975 
Q 1069 1734 1069 1313 
Q 1069 891 1326 650 
Q 1584 409 2034 409 
Q 2484 409 2743 651 
Q 3003 894 3003 1313 
Q 3003 1734 2745 1975 
Q 2488 2216 2034 2216 
z
M 1403 2484 
Q 997 2584 770 2862 
Q 544 3141 544 3541 
Q 544 4100 942 4425 
Q 1341 4750 2034 4750 
Q 2731 4750 3128 4425 
Q 3525 4100 3525 3541 
Q 3525 3141 3298 2862 
Q 3072 2584 2669 2484 
Q 3125 2378 3379 2068 
Q 3634 1759 3634 1313 
Q 3634 634 3220 271 
Q 2806 -91 2034 -91 
Q 1263 -91 848 271 
Q 434 634 434 1313 
Q 434 1759 690 2068 
Q 947 2378 1403 2484 
z
M 1172 3481 
Q 1172 3119 1398 2916 
Q 1625 2713 2034 2713 
Q 2441 2713 2670 2916 
Q 2900 3119 2900 3481 
Q 2900 3844 2670 4047 
Q 2441 4250 2034 4250 
Q 1625 4250 1398 4047 
Q 1172 3844 1172 3481 
z
" transform="scale(0.015625)"/>
      <path id="DejaVuSans-36" d="M 2113 2584 
Q 1688 2584 1439 2293 
Q 1191 2003 1191 1497 
Q 1191 994 1439 701 
Q 1688 409 2113 409 
Q 2538 409 2786 701 
Q 3034 994 3034 1497 
Q 3034 2003 2786 2293 
Q 2538 2584 2113 2584 
z
M 3366 4563 
L 3366 3988 
Q 3128 4100 2886 4159 
Q 2644 4219 2406 4219 
Q 1781 4219 1451 3797 
Q 1122 3375 1075 2522 
Q 1259 2794 1537 2939 
Q 1816 3084 2150 3084 
Q 2853 3084 3261 2657 
Q 3669 2231 3669 1497 
Q 3669 778 3244 343 
Q 2819 -91 2113 -91 
Q 1303 -91 875 529 
Q 447 1150 447 2328 
Q 447 3434 972 4092 
Q 1497 4750 2381 4750 
Q 2619 4750 2861 4703 
Q 3103 4656 3366 4563 
z
" transform="scale(0.015625)"/>
      <path id="DejaVuSans-37" d="M 525 4666 
L 3525 4666 
L 3525 4397 
L 1831 0 
L 1172 0 
L 2766 4134 
L 525 4134 
L 525 4666 
z
" transform="scale(0.015625)"/>
     </defs>
     <use xlink:href="#DejaVuSans-20"/>
     <use xlink:href="#DejaVuSans-61" x="31.787109"/>
     <use xlink:href="#DejaVuSans-76" x="93.066406"/>
     <use xlink:href="#DejaVuSans-67" x="152.246094"/>
     <use xlink:href="#DejaVuSans-5f" x="215.722656"/>
     <use xlink:href="#DejaVuSans-64" x="265.722656"/>
     <use xlink:href="#DejaVuSans-20" x="329.199219"/>
     <use xlink:href="#DejaVuSans-3d" x="360.986328"/>
     <use xlink:href="#DejaVuSans-20" x="444.775391"/>
     <use xlink:href="#DejaVuSans-33" x="476.5625"/>
     <use xlink:href="#DejaVuSans-33" x="540.185547"/>
     <use xlink:href="#DejaVuSans-30" x="603.808594"/>
     <use xlink:href="#DejaVuSans-39" x="667.431641"/>
     <use xlink:href="#DejaVuSans-2e" x="731.054688"/>
     <use xlink:href="#DejaVuSans-39" x="762.841797"/>
     <use xlink:href="#DejaVuSans-38" x="826.464844"/>
     <use xlink:href="#DejaVuSans-34" x="890.087891"/>
     <use xlink:href="#DejaVuSans-39" x="953.710938"/>
     <use xlink:href="#DejaVuSans-30" x="1017.333984"/>
     <use xlink:href="#DejaVuSans-36" x="1080.957031"/>
     <use xlink:href="#DejaVuSans-38" x="1144.580078"/>
     <use xlink:href="#DejaVuSans-34" x="1208.203125"/>
     <use xlink:href="#DejaVuSans-32" x="1271.826172"/>
     <use xlink:href="#DejaVuSans-34" x="1335.449219"/>
     <use xlink:href="#DejaVuSans-37" x="1399.072266"/>
     <use xlink:href="#DejaVuSans-33" x="1462.695312"/>
     <use xlink:href="#DejaVuSans-33" x="1526.318359"/>
     <use xlink:href="#DejaVuSans-20" x="1589.941406"/>
    </g>
    <!--  avg_a = 941.0322790638406diff = 2368.9526277786326 -->
    <g transform="translate(59.364375 35.472)scale(0.12 -0.12)">
     <use xlink:href="#DejaVuSans-20"/>
     <use xlink:href="#DejaVuSans-61" x="31.787109"/>
     <use xlink:href="#DejaVuSans-76" x="93.066406"/>
     <use xlink:href="#DejaVuSans-67" x="152.246094"/>
     <use xlink:href="#DejaVuSans-5f" x="215.722656"/>
     <use xlink:href="#DejaVuSans-61" x="265.722656"/>
     <use xlink:href="#DejaVuSans-20" x="327.001953"/>
     <use xlink:href="#DejaVuSans-3d" x="358.789062"/>
     <use xlink:href="#DejaVuSans-20" x="442.578125"/>
     <use xlink:href="#DejaVuSans-39" x="474.365234"/>
     <use xlink:href="#DejaVuSans-34" x="537.988281"/>
     <use xlink:href="#DejaVuSans-31" x="601.611328"/>
     <use xlink:href="#DejaVuSans-2e" x="665.234375"/>
     <use xlink:href="#DejaVuSans-30" x="697.021484"/>
     <use xlink:href="#DejaVuSans-33" x="760.644531"/>
     <use xlink:href="#DejaVuSans-32" x="824.267578"/>
     <use xlink:href="#DejaVuSans-32" x="887.890625"/>
     <use xlink:href="#DejaVuSans-37" x="951.513672"/>
     <use xlink:href="#DejaVuSans-39" x="1015.136719"/>
     <use xlink:href="#DejaVuSans-30" x="1078.759766"/>
     <use xlink:href="#DejaVuSans-36" x="1142.382812"/>
     <use xlink:href="#DejaVuSans-33" x="1206.005859"/>
     <use xlink:href="#DejaVuSans-38" x="1269.628906"/>
     <use xlink:href="#DejaVuSans-34" x="1333.251953"/>
     <use xlink:href="#DejaVuSans-30" x="1396.875"/>
     <use xlink:href="#DejaVuSans-36" x="1460.498047"/>
     <use xlink:href="#DejaVuSans-64" x="1524.121094"/>
     <use xlink:href="#DejaVuSans-69" x="1587.597656"/>
     <use xlink:href="#DejaVuSans-66" x="1615.380859"/>
     <use xlink:href="#DejaVuSans-66" x="1650.585938"/>
     <use xlink:href="#DejaVuSans-20" x="1685.791016"/>
     <use xlink:href="#DejaVuSans-3d" x="1717.578125"/>
     <use xlink:href="#DejaVuSans-20" x="1801.367188"/>
     <use xlink:href="#DejaVuSans-32" x="1833.154297"/>
     <use xlink:href="#DejaVuSans-33" x="1896.777344"/>
     <use xlink:href="#DejaVuSans-36" x="1960.400391"/>
     <use xlink:href="#DejaVuSans-38" x="2024.023438"/>
     <use xlink:href="#DejaVuSans-2e" x="2087.646484"/>
     <use xlink:href="#DejaVuSans-39" x="2119.433594"/>
     <use xlink:href="#DejaVuSans-35" x="2183.056641"/>
     <use xlink:href="#DejaVuSans-32" x="2246.679688"/>
     <use xlink:href="#DejaVuSans-36" x="2310.302734"/>
     <use xlink:href="#DejaVuSans-32" x="2373.925781"/>
     <use xlink:href="#DejaVuSans-37" x="2437.548828"/>
     <use xlink:href="#DejaVuSans-37" x="2501.171875"/>
     <use xlink:href="#DejaVuSans-37" x="2564.794922"/>
     <use xlink:href="#DejaVuSans-38" x="2628.417969"/>
     <use xlink:href="#DejaVuSans-36" x="2692.041016"/>
     <use xlink:href="#DejaVuSans-33" x="2755.664062"/>
     <use xlink:href="#DejaVuSans-32" x="2819.287109"/>
     <use xlink:href="#DejaVuSans-36" x="2882.910156"/>
    </g>
   </g>
   <g id="legend_1">
    <g id="patch_7">
     <path d="M 64.6 78.82825 
L 208.43125 78.82825 
Q 210.43125 78.82825 210.43125 76.82825 
L 210.43125 48.472 
Q 210.43125 46.472 208.43125 46.472 
L 64.6 46.472 
Q 62.6 46.472 62.6 48.472 
L 62.6 76.82825 
Q 62.6 78.82825 64.6 78.82825 
z
" style="fill: #ffffff; opacity: 0.8; stroke: #cccccc; stroke-linejoin: miter"/>
    </g>
    <g id="line2d_16">
     <path d="M 66.6 54.570437 
L 76.6 54.570437 
L 86.6 54.570437 
" style="fill: none; stroke-dasharray: 2,3.3; stroke-dashoffset: 0; stroke: #0000ff; stroke-width: 2"/>
    </g>
    <g id="text_17">
     <!-- Average (Default) -->
     <g transform="translate(94.6 58.070437)scale(0.1 -0.1)">
      <defs>
       <path id="DejaVuSans-41" d="M 2188 4044 
L 1331 1722 
L 3047 1722 
L 2188 4044 
z
M 1831 4666 
L 2547 4666 
L 4325 0 
L 3669 0 
L 3244 1197 
L 1141 1197 
L 716 0 
L 50 0 
L 1831 4666 
z
" transform="scale(0.015625)"/>
       <path id="DejaVuSans-28" d="M 1984 4856 
Q 1566 4138 1362 3434 
Q 1159 2731 1159 2009 
Q 1159 1288 1364 580 
Q 1569 -128 1984 -844 
L 1484 -844 
Q 1016 -109 783 600 
Q 550 1309 550 2009 
Q 550 2706 781 3412 
Q 1013 4119 1484 4856 
L 1984 4856 
z
" transform="scale(0.015625)"/>
       <path id="DejaVuSans-44" d="M 1259 4147 
L 1259 519 
L 2022 519 
Q 2988 519 3436 956 
Q 3884 1394 3884 2338 
Q 3884 3275 3436 3711 
Q 2988 4147 2022 4147 
L 1259 4147 
z
M 628 4666 
L 1925 4666 
Q 3281 4666 3915 4102 
Q 4550 3538 4550 2338 
Q 4550 1131 3912 565 
Q 3275 0 1925 0 
L 628 0 
L 628 4666 
z
" transform="scale(0.015625)"/>
       <path id="DejaVuSans-29" d="M 513 4856 
L 1013 4856 
Q 1481 4119 1714 3412 
Q 1947 2706 1947 2009 
Q 1947 1309 1714 600 
Q 1481 -109 1013 -844 
L 513 -844 
Q 928 -128 1133 580 
Q 1338 1288 1338 2009 
Q 1338 2731 1133 3434 
Q 928 4138 513 4856 
z
" transform="scale(0.015625)"/>
      </defs>
      <use xlink:href="#DejaVuSans-41"/>
      <use xlink:href="#DejaVuSans-76" x="62.533203"/>
      <use xlink:href="#DejaVuSans-65" x="121.712891"/>
      <use xlink:href="#DejaVuSans-72" x="183.236328"/>
      <use xlink:href="#DejaVuSans-61" x="224.349609"/>
      <use xlink:href="#DejaVuSans-67" x="285.628906"/>
      <use xlink:href="#DejaVuSans-65" x="349.105469"/>
      <use xlink:href="#DejaVuSans-20" x="410.628906"/>
      <use xlink:href="#DejaVuSans-28" x="442.416016"/>
      <use xlink:href="#DejaVuSans-44" x="481.429688"/>
      <use xlink:href="#DejaVuSans-65" x="558.431641"/>
      <use xlink:href="#DejaVuSans-66" x="619.955078"/>
      <use xlink:href="#DejaVuSans-61" x="655.160156"/>
      <use xlink:href="#DejaVuSans-75" x="716.439453"/>
      <use xlink:href="#DejaVuSans-6c" x="779.818359"/>
      <use xlink:href="#DejaVuSans-74" x="807.601562"/>
      <use xlink:href="#DejaVuSans-29" x="846.810547"/>
     </g>
    </g>
    <g id="line2d_17">
     <path d="M 66.6 69.248562 
L 76.6 69.248562 
L 86.6 69.248562 
" style="fill: none; stroke-dasharray: 2,3.3; stroke-dashoffset: 0; stroke: #ffa500; stroke-width: 2"/>
    </g>
    <g id="text_18">
     <!-- Average (Anticipation) -->
     <g transform="translate(94.6 72.748562)scale(0.1 -0.1)">
      <defs>
       <path id="DejaVuSans-63" d="M 3122 3366 
L 3122 2828 
Q 2878 2963 2633 3030 
Q 2388 3097 2138 3097 
Q 1578 3097 1268 2742 
Q 959 2388 959 1747 
Q 959 1106 1268 751 
Q 1578 397 2138 397 
Q 2388 397 2633 464 
Q 2878 531 3122 666 
L 3122 134 
Q 2881 22 2623 -34 
Q 2366 -91 2075 -91 
Q 1284 -91 818 406 
Q 353 903 353 1747 
Q 353 2603 823 3093 
Q 1294 3584 2113 3584 
Q 2378 3584 2631 3529 
Q 2884 3475 3122 3366 
z
" transform="scale(0.015625)"/>
       <path id="DejaVuSans-70" d="M 1159 525 
L 1159 -1331 
L 581 -1331 
L 581 3500 
L 1159 3500 
L 1159 2969 
Q 1341 3281 1617 3432 
Q 1894 3584 2278 3584 
Q 2916 3584 3314 3078 
Q 3713 2572 3713 1747 
Q 3713 922 3314 415 
Q 2916 -91 2278 -91 
Q 1894 -91 1617 61 
Q 1341 213 1159 525 
z
M 3116 1747 
Q 3116 2381 2855 2742 
Q 2594 3103 2138 3103 
Q 1681 3103 1420 2742 
Q 1159 2381 1159 1747 
Q 1159 1113 1420 752 
Q 1681 391 2138 391 
Q 2594 391 2855 752 
Q 3116 1113 3116 1747 
z
" transform="scale(0.015625)"/>
      </defs>
      <use xlink:href="#DejaVuSans-41"/>
      <use xlink:href="#DejaVuSans-76" x="62.533203"/>
      <use xlink:href="#DejaVuSans-65" x="121.712891"/>
      <use xlink:href="#DejaVuSans-72" x="183.236328"/>
      <use xlink:href="#DejaVuSans-61" x="224.349609"/>
      <use xlink:href="#DejaVuSans-67" x="285.628906"/>
      <use xlink:href="#DejaVuSans-65" x="349.105469"/>
      <use xlink:href="#DejaVuSans-20" x="410.628906"/>
      <use xlink:href="#DejaVuSans-28" x="442.416016"/>
      <use xlink:href="#DejaVuSans-41" x="481.429688"/>
      <use xlink:href="#DejaVuSans-6e" x="549.837891"/>
      <use xlink:href="#DejaVuSans-74" x="613.216797"/>
      <use xlink:href="#DejaVuSans-69" x="652.425781"/>
      <use xlink:href="#DejaVuSans-63" x="680.208984"/>
      <use xlink:href="#DejaVuSans-69" x="735.189453"/>
      <use xlink:href="#DejaVuSans-70" x="762.972656"/>
      <use xlink:href="#DejaVuSans-61" x="826.449219"/>
      <use xlink:href="#DejaVuSans-74" x="887.728516"/>
      <use xlink:href="#DejaVuSans-69" x="926.9375"/>
      <use xlink:href="#DejaVuSans-6f" x="954.720703"/>
      <use xlink:href="#DejaVuSans-6e" x="1015.902344"/>
      <use xlink:href="#DejaVuSans-29" x="1079.28125"/>
     </g>
    </g>
   </g>
  </g>
 </g>
 <defs>
  <clipPath id="p51ac2984e6">
   <rect x="57.6" y="41.472" width="357.12" height="266.112"/>
  </clipPath>
 </defs>
</svg>
