<?xml version="1.0" encoding="utf-8" standalone="no"?>
<!DOCTYPE svg PUBLIC "-//W3C//DTD SVG 1.1//EN"
  "http://www.w3.org/Graphics/SVG/1.1/DTD/svg11.dtd">
<svg xmlns:xlink="http://www.w3.org/1999/xlink" width="460.8pt" height="345.6pt" viewBox="0 0 460.8 345.6" xmlns="http://www.w3.org/2000/svg" version="1.1">
 <metadata>
  <rdf:RDF xmlns:dc="http://purl.org/dc/elements/1.1/" xmlns:cc="http://creativecommons.org/ns#" xmlns:rdf="http://www.w3.org/1999/02/22-rdf-syntax-ns#">
   <cc:Work>
    <dc:type rdf:resource="http://purl.org/dc/dcmitype/StillImage"/>
    <dc:date>2022-10-10T11:30:45.269612</dc:date>
    <dc:format>image/svg+xml</dc:format>
    <dc:creator>
     <cc:Agent>
      <dc:title>Matplotlib v3.5.3, https://matplotlib.org/</dc:title>
     </cc:Agent>
    </dc:creator>
   </cc:Work>
  </rdf:RDF>
 </metadata>
 <defs>
  <style type="text/css">*{stroke-linejoin: round; stroke-linecap: butt}</style>
 </defs>
 <g id="figure_1">
  <g id="patch_1">
   <path d="M 0 345.6 
L 460.8 345.6 
L 460.8 0 
L 0 0 
z
" style="fill: #ffffff"/>
  </g>
  <g id="axes_1">
   <g id="patch_2">
    <path d="M 57.6 307.584 
L 414.72 307.584 
L 414.72 41.472 
L 57.6 41.472 
z
" style="fill: #ffffff"/>
   </g>
   <g id="matplotlib.axis_1">
    <g id="xtick_1">
     <g id="line2d_1">
      <defs>
       <path id="m44092bc643" d="M 0 0 
L 0 3.5 
" style="stroke: #000000; stroke-width: 0.8"/>
      </defs>
      <g>
       <use xlink:href="#m44092bc643" x="73.832727" y="307.584" style="stroke: #000000; stroke-width: 0.8"/>
      </g>
     </g>
     <g id="text_1">
      <!-- 0 -->
      <g transform="translate(70.651477 322.182437)scale(0.1 -0.1)">
       <defs>
        <path id="DejaVuSans-30" d="M 2034 4250 
Q 1547 4250 1301 3770 
Q 1056 3291 1056 2328 
Q 1056 1369 1301 889 
Q 1547 409 2034 409 
Q 2525 409 2770 889 
Q 3016 1369 3016 2328 
Q 3016 3291 2770 3770 
Q 2525 4250 2034 4250 
z
M 2034 4750 
Q 2819 4750 3233 4129 
Q 3647 3509 3647 2328 
Q 3647 1150 3233 529 
Q 2819 -91 2034 -91 
Q 1250 -91 836 529 
Q 422 1150 422 2328 
Q 422 3509 836 4129 
Q 1250 4750 2034 4750 
z
" transform="scale(0.015625)"/>
       </defs>
       <use xlink:href="#DejaVuSans-30"/>
      </g>
     </g>
    </g>
    <g id="xtick_2">
     <g id="line2d_2">
      <g>
       <use xlink:href="#m44092bc643" x="138.776625" y="307.584" style="stroke: #000000; stroke-width: 0.8"/>
      </g>
     </g>
     <g id="text_2">
      <!-- 1000 -->
      <g transform="translate(126.051625 322.182437)scale(0.1 -0.1)">
       <defs>
        <path id="DejaVuSans-31" d="M 794 531 
L 1825 531 
L 1825 4091 
L 703 3866 
L 703 4441 
L 1819 4666 
L 2450 4666 
L 2450 531 
L 3481 531 
L 3481 0 
L 794 0 
L 794 531 
z
" transform="scale(0.015625)"/>
       </defs>
       <use xlink:href="#DejaVuSans-31"/>
       <use xlink:href="#DejaVuSans-30" x="63.623047"/>
       <use xlink:href="#DejaVuSans-30" x="127.246094"/>
       <use xlink:href="#DejaVuSans-30" x="190.869141"/>
      </g>
     </g>
    </g>
    <g id="xtick_3">
     <g id="line2d_3">
      <g>
       <use xlink:href="#m44092bc643" x="203.720523" y="307.584" style="stroke: #000000; stroke-width: 0.8"/>
      </g>
     </g>
     <g id="text_3">
      <!-- 2000 -->
      <g transform="translate(190.995523 322.182437)scale(0.1 -0.1)">
       <defs>
        <path id="DejaVuSans-32" d="M 1228 531 
L 3431 531 
L 3431 0 
L 469 0 
L 469 531 
Q 828 903 1448 1529 
Q 2069 2156 2228 2338 
Q 2531 2678 2651 2914 
Q 2772 3150 2772 3378 
Q 2772 3750 2511 3984 
Q 2250 4219 1831 4219 
Q 1534 4219 1204 4116 
Q 875 4013 500 3803 
L 500 4441 
Q 881 4594 1212 4672 
Q 1544 4750 1819 4750 
Q 2544 4750 2975 4387 
Q 3406 4025 3406 3419 
Q 3406 3131 3298 2873 
Q 3191 2616 2906 2266 
Q 2828 2175 2409 1742 
Q 1991 1309 1228 531 
z
" transform="scale(0.015625)"/>
       </defs>
       <use xlink:href="#DejaVuSans-32"/>
       <use xlink:href="#DejaVuSans-30" x="63.623047"/>
       <use xlink:href="#DejaVuSans-30" x="127.246094"/>
       <use xlink:href="#DejaVuSans-30" x="190.869141"/>
      </g>
     </g>
    </g>
    <g id="xtick_4">
     <g id="line2d_4">
      <g>
       <use xlink:href="#m44092bc643" x="268.664421" y="307.584" style="stroke: #000000; stroke-width: 0.8"/>
      </g>
     </g>
     <g id="text_4">
      <!-- 3000 -->
      <g transform="translate(255.939421 322.182437)scale(0.1 -0.1)">
       <defs>
        <path id="DejaVuSans-33" d="M 2597 2516 
Q 3050 2419 3304 2112 
Q 3559 1806 3559 1356 
Q 3559 666 3084 287 
Q 2609 -91 1734 -91 
Q 1441 -91 1130 -33 
Q 819 25 488 141 
L 488 750 
Q 750 597 1062 519 
Q 1375 441 1716 441 
Q 2309 441 2620 675 
Q 2931 909 2931 1356 
Q 2931 1769 2642 2001 
Q 2353 2234 1838 2234 
L 1294 2234 
L 1294 2753 
L 1863 2753 
Q 2328 2753 2575 2939 
Q 2822 3125 2822 3475 
Q 2822 3834 2567 4026 
Q 2313 4219 1838 4219 
Q 1578 4219 1281 4162 
Q 984 4106 628 3988 
L 628 4550 
Q 988 4650 1302 4700 
Q 1616 4750 1894 4750 
Q 2613 4750 3031 4423 
Q 3450 4097 3450 3541 
Q 3450 3153 3228 2886 
Q 3006 2619 2597 2516 
z
" transform="scale(0.015625)"/>
       </defs>
       <use xlink:href="#DejaVuSans-33"/>
       <use xlink:href="#DejaVuSans-30" x="63.623047"/>
       <use xlink:href="#DejaVuSans-30" x="127.246094"/>
       <use xlink:href="#DejaVuSans-30" x="190.869141"/>
      </g>
     </g>
    </g>
    <g id="xtick_5">
     <g id="line2d_5">
      <g>
       <use xlink:href="#m44092bc643" x="333.608319" y="307.584" style="stroke: #000000; stroke-width: 0.8"/>
      </g>
     </g>
     <g id="text_5">
      <!-- 4000 -->
      <g transform="translate(320.883319 322.182437)scale(0.1 -0.1)">
       <defs>
        <path id="DejaVuSans-34" d="M 2419 4116 
L 825 1625 
L 2419 1625 
L 2419 4116 
z
M 2253 4666 
L 3047 4666 
L 3047 1625 
L 3713 1625 
L 3713 1100 
L 3047 1100 
L 3047 0 
L 2419 0 
L 2419 1100 
L 313 1100 
L 313 1709 
L 2253 4666 
z
" transform="scale(0.015625)"/>
       </defs>
       <use xlink:href="#DejaVuSans-34"/>
       <use xlink:href="#DejaVuSans-30" x="63.623047"/>
       <use xlink:href="#DejaVuSans-30" x="127.246094"/>
       <use xlink:href="#DejaVuSans-30" x="190.869141"/>
      </g>
     </g>
    </g>
    <g id="xtick_6">
     <g id="line2d_6">
      <g>
       <use xlink:href="#m44092bc643" x="398.552217" y="307.584" style="stroke: #000000; stroke-width: 0.8"/>
      </g>
     </g>
     <g id="text_6">
      <!-- 5000 -->
      <g transform="translate(385.827217 322.182437)scale(0.1 -0.1)">
       <defs>
        <path id="DejaVuSans-35" d="M 691 4666 
L 3169 4666 
L 3169 4134 
L 1269 4134 
L 1269 2991 
Q 1406 3038 1543 3061 
Q 1681 3084 1819 3084 
Q 2600 3084 3056 2656 
Q 3513 2228 3513 1497 
Q 3513 744 3044 326 
Q 2575 -91 1722 -91 
Q 1428 -91 1123 -41 
Q 819 9 494 109 
L 494 744 
Q 775 591 1075 516 
Q 1375 441 1709 441 
Q 2250 441 2565 725 
Q 2881 1009 2881 1497 
Q 2881 1984 2565 2268 
Q 2250 2553 1709 2553 
Q 1456 2553 1204 2497 
Q 953 2441 691 2322 
L 691 4666 
z
" transform="scale(0.015625)"/>
       </defs>
       <use xlink:href="#DejaVuSans-35"/>
       <use xlink:href="#DejaVuSans-30" x="63.623047"/>
       <use xlink:href="#DejaVuSans-30" x="127.246094"/>
       <use xlink:href="#DejaVuSans-30" x="190.869141"/>
      </g>
     </g>
    </g>
    <g id="text_7">
     <!-- Number of Orders -->
     <g transform="translate(191.261562 335.860562)scale(0.1 -0.1)">
      <defs>
       <path id="DejaVuSans-4e" d="M 628 4666 
L 1478 4666 
L 3547 763 
L 3547 4666 
L 4159 4666 
L 4159 0 
L 3309 0 
L 1241 3903 
L 1241 0 
L 628 0 
L 628 4666 
z
" transform="scale(0.015625)"/>
       <path id="DejaVuSans-75" d="M 544 1381 
L 544 3500 
L 1119 3500 
L 1119 1403 
Q 1119 906 1312 657 
Q 1506 409 1894 409 
Q 2359 409 2629 706 
Q 2900 1003 2900 1516 
L 2900 3500 
L 3475 3500 
L 3475 0 
L 2900 0 
L 2900 538 
Q 2691 219 2414 64 
Q 2138 -91 1772 -91 
Q 1169 -91 856 284 
Q 544 659 544 1381 
z
M 1991 3584 
L 1991 3584 
z
" transform="scale(0.015625)"/>
       <path id="DejaVuSans-6d" d="M 3328 2828 
Q 3544 3216 3844 3400 
Q 4144 3584 4550 3584 
Q 5097 3584 5394 3201 
Q 5691 2819 5691 2113 
L 5691 0 
L 5113 0 
L 5113 2094 
Q 5113 2597 4934 2840 
Q 4756 3084 4391 3084 
Q 3944 3084 3684 2787 
Q 3425 2491 3425 1978 
L 3425 0 
L 2847 0 
L 2847 2094 
Q 2847 2600 2669 2842 
Q 2491 3084 2119 3084 
Q 1678 3084 1418 2786 
Q 1159 2488 1159 1978 
L 1159 0 
L 581 0 
L 581 3500 
L 1159 3500 
L 1159 2956 
Q 1356 3278 1631 3431 
Q 1906 3584 2284 3584 
Q 2666 3584 2933 3390 
Q 3200 3197 3328 2828 
z
" transform="scale(0.015625)"/>
       <path id="DejaVuSans-62" d="M 3116 1747 
Q 3116 2381 2855 2742 
Q 2594 3103 2138 3103 
Q 1681 3103 1420 2742 
Q 1159 2381 1159 1747 
Q 1159 1113 1420 752 
Q 1681 391 2138 391 
Q 2594 391 2855 752 
Q 3116 1113 3116 1747 
z
M 1159 2969 
Q 1341 3281 1617 3432 
Q 1894 3584 2278 3584 
Q 2916 3584 3314 3078 
Q 3713 2572 3713 1747 
Q 3713 922 3314 415 
Q 2916 -91 2278 -91 
Q 1894 -91 1617 61 
Q 1341 213 1159 525 
L 1159 0 
L 581 0 
L 581 4863 
L 1159 4863 
L 1159 2969 
z
" transform="scale(0.015625)"/>
       <path id="DejaVuSans-65" d="M 3597 1894 
L 3597 1613 
L 953 1613 
Q 991 1019 1311 708 
Q 1631 397 2203 397 
Q 2534 397 2845 478 
Q 3156 559 3463 722 
L 3463 178 
Q 3153 47 2828 -22 
Q 2503 -91 2169 -91 
Q 1331 -91 842 396 
Q 353 884 353 1716 
Q 353 2575 817 3079 
Q 1281 3584 2069 3584 
Q 2775 3584 3186 3129 
Q 3597 2675 3597 1894 
z
M 3022 2063 
Q 3016 2534 2758 2815 
Q 2500 3097 2075 3097 
Q 1594 3097 1305 2825 
Q 1016 2553 972 2059 
L 3022 2063 
z
" transform="scale(0.015625)"/>
       <path id="DejaVuSans-72" d="M 2631 2963 
Q 2534 3019 2420 3045 
Q 2306 3072 2169 3072 
Q 1681 3072 1420 2755 
Q 1159 2438 1159 1844 
L 1159 0 
L 581 0 
L 581 3500 
L 1159 3500 
L 1159 2956 
Q 1341 3275 1631 3429 
Q 1922 3584 2338 3584 
Q 2397 3584 2469 3576 
Q 2541 3569 2628 3553 
L 2631 2963 
z
" transform="scale(0.015625)"/>
       <path id="DejaVuSans-20" transform="scale(0.015625)"/>
       <path id="DejaVuSans-6f" d="M 1959 3097 
Q 1497 3097 1228 2736 
Q 959 2375 959 1747 
Q 959 1119 1226 758 
Q 1494 397 1959 397 
Q 2419 397 2687 759 
Q 2956 1122 2956 1747 
Q 2956 2369 2687 2733 
Q 2419 3097 1959 3097 
z
M 1959 3584 
Q 2709 3584 3137 3096 
Q 3566 2609 3566 1747 
Q 3566 888 3137 398 
Q 2709 -91 1959 -91 
Q 1206 -91 779 398 
Q 353 888 353 1747 
Q 353 2609 779 3096 
Q 1206 3584 1959 3584 
z
" transform="scale(0.015625)"/>
       <path id="DejaVuSans-66" d="M 2375 4863 
L 2375 4384 
L 1825 4384 
Q 1516 4384 1395 4259 
Q 1275 4134 1275 3809 
L 1275 3500 
L 2222 3500 
L 2222 3053 
L 1275 3053 
L 1275 0 
L 697 0 
L 697 3053 
L 147 3053 
L 147 3500 
L 697 3500 
L 697 3744 
Q 697 4328 969 4595 
Q 1241 4863 1831 4863 
L 2375 4863 
z
" transform="scale(0.015625)"/>
       <path id="DejaVuSans-4f" d="M 2522 4238 
Q 1834 4238 1429 3725 
Q 1025 3213 1025 2328 
Q 1025 1447 1429 934 
Q 1834 422 2522 422 
Q 3209 422 3611 934 
Q 4013 1447 4013 2328 
Q 4013 3213 3611 3725 
Q 3209 4238 2522 4238 
z
M 2522 4750 
Q 3503 4750 4090 4092 
Q 4678 3434 4678 2328 
Q 4678 1225 4090 567 
Q 3503 -91 2522 -91 
Q 1538 -91 948 565 
Q 359 1222 359 2328 
Q 359 3434 948 4092 
Q 1538 4750 2522 4750 
z
" transform="scale(0.015625)"/>
       <path id="DejaVuSans-64" d="M 2906 2969 
L 2906 4863 
L 3481 4863 
L 3481 0 
L 2906 0 
L 2906 525 
Q 2725 213 2448 61 
Q 2172 -91 1784 -91 
Q 1150 -91 751 415 
Q 353 922 353 1747 
Q 353 2572 751 3078 
Q 1150 3584 1784 3584 
Q 2172 3584 2448 3432 
Q 2725 3281 2906 2969 
z
M 947 1747 
Q 947 1113 1208 752 
Q 1469 391 1925 391 
Q 2381 391 2643 752 
Q 2906 1113 2906 1747 
Q 2906 2381 2643 2742 
Q 2381 3103 1925 3103 
Q 1469 3103 1208 2742 
Q 947 2381 947 1747 
z
" transform="scale(0.015625)"/>
       <path id="DejaVuSans-73" d="M 2834 3397 
L 2834 2853 
Q 2591 2978 2328 3040 
Q 2066 3103 1784 3103 
Q 1356 3103 1142 2972 
Q 928 2841 928 2578 
Q 928 2378 1081 2264 
Q 1234 2150 1697 2047 
L 1894 2003 
Q 2506 1872 2764 1633 
Q 3022 1394 3022 966 
Q 3022 478 2636 193 
Q 2250 -91 1575 -91 
Q 1294 -91 989 -36 
Q 684 19 347 128 
L 347 722 
Q 666 556 975 473 
Q 1284 391 1588 391 
Q 1994 391 2212 530 
Q 2431 669 2431 922 
Q 2431 1156 2273 1281 
Q 2116 1406 1581 1522 
L 1381 1569 
Q 847 1681 609 1914 
Q 372 2147 372 2553 
Q 372 3047 722 3315 
Q 1072 3584 1716 3584 
Q 2034 3584 2315 3537 
Q 2597 3491 2834 3397 
z
" transform="scale(0.015625)"/>
      </defs>
      <use xlink:href="#DejaVuSans-4e"/>
      <use xlink:href="#DejaVuSans-75" x="74.804688"/>
      <use xlink:href="#DejaVuSans-6d" x="138.183594"/>
      <use xlink:href="#DejaVuSans-62" x="235.595703"/>
      <use xlink:href="#DejaVuSans-65" x="299.072266"/>
      <use xlink:href="#DejaVuSans-72" x="360.595703"/>
      <use xlink:href="#DejaVuSans-20" x="401.708984"/>
      <use xlink:href="#DejaVuSans-6f" x="433.496094"/>
      <use xlink:href="#DejaVuSans-66" x="494.677734"/>
      <use xlink:href="#DejaVuSans-20" x="529.882812"/>
      <use xlink:href="#DejaVuSans-4f" x="561.669922"/>
      <use xlink:href="#DejaVuSans-72" x="640.380859"/>
      <use xlink:href="#DejaVuSans-64" x="679.744141"/>
      <use xlink:href="#DejaVuSans-65" x="743.220703"/>
      <use xlink:href="#DejaVuSans-72" x="804.744141"/>
      <use xlink:href="#DejaVuSans-73" x="845.857422"/>
     </g>
    </g>
   </g>
   <g id="matplotlib.axis_2">
    <g id="ytick_1">
     <g id="line2d_7">
      <defs>
       <path id="ma702ee51d6" d="M 0 0 
L -3.5 0 
" style="stroke: #000000; stroke-width: 0.8"/>
      </defs>
      <g>
       <use xlink:href="#ma702ee51d6" x="57.6" y="280.28491" style="stroke: #000000; stroke-width: 0.8"/>
      </g>
     </g>
     <g id="text_8">
      <!-- 400 -->
      <g transform="translate(31.5125 284.084128)scale(0.1 -0.1)">
       <use xlink:href="#DejaVuSans-34"/>
       <use xlink:href="#DejaVuSans-30" x="63.623047"/>
       <use xlink:href="#DejaVuSans-30" x="127.246094"/>
      </g>
     </g>
    </g>
    <g id="ytick_2">
     <g id="line2d_8">
      <g>
       <use xlink:href="#ma702ee51d6" x="57.6" y="245.502348" style="stroke: #000000; stroke-width: 0.8"/>
      </g>
     </g>
     <g id="text_9">
      <!-- 600 -->
      <g transform="translate(31.5125 249.301567)scale(0.1 -0.1)">
       <defs>
        <path id="DejaVuSans-36" d="M 2113 2584 
Q 1688 2584 1439 2293 
Q 1191 2003 1191 1497 
Q 1191 994 1439 701 
Q 1688 409 2113 409 
Q 2538 409 2786 701 
Q 3034 994 3034 1497 
Q 3034 2003 2786 2293 
Q 2538 2584 2113 2584 
z
M 3366 4563 
L 3366 3988 
Q 3128 4100 2886 4159 
Q 2644 4219 2406 4219 
Q 1781 4219 1451 3797 
Q 1122 3375 1075 2522 
Q 1259 2794 1537 2939 
Q 1816 3084 2150 3084 
Q 2853 3084 3261 2657 
Q 3669 2231 3669 1497 
Q 3669 778 3244 343 
Q 2819 -91 2113 -91 
Q 1303 -91 875 529 
Q 447 1150 447 2328 
Q 447 3434 972 4092 
Q 1497 4750 2381 4750 
Q 2619 4750 2861 4703 
Q 3103 4656 3366 4563 
z
" transform="scale(0.015625)"/>
       </defs>
       <use xlink:href="#DejaVuSans-36"/>
       <use xlink:href="#DejaVuSans-30" x="63.623047"/>
       <use xlink:href="#DejaVuSans-30" x="127.246094"/>
      </g>
     </g>
    </g>
    <g id="ytick_3">
     <g id="line2d_9">
      <g>
       <use xlink:href="#ma702ee51d6" x="57.6" y="210.719786" style="stroke: #000000; stroke-width: 0.8"/>
      </g>
     </g>
     <g id="text_10">
      <!-- 800 -->
      <g transform="translate(31.5125 214.519005)scale(0.1 -0.1)">
       <defs>
        <path id="DejaVuSans-38" d="M 2034 2216 
Q 1584 2216 1326 1975 
Q 1069 1734 1069 1313 
Q 1069 891 1326 650 
Q 1584 409 2034 409 
Q 2484 409 2743 651 
Q 3003 894 3003 1313 
Q 3003 1734 2745 1975 
Q 2488 2216 2034 2216 
z
M 1403 2484 
Q 997 2584 770 2862 
Q 544 3141 544 3541 
Q 544 4100 942 4425 
Q 1341 4750 2034 4750 
Q 2731 4750 3128 4425 
Q 3525 4100 3525 3541 
Q 3525 3141 3298 2862 
Q 3072 2584 2669 2484 
Q 3125 2378 3379 2068 
Q 3634 1759 3634 1313 
Q 3634 634 3220 271 
Q 2806 -91 2034 -91 
Q 1263 -91 848 271 
Q 434 634 434 1313 
Q 434 1759 690 2068 
Q 947 2378 1403 2484 
z
M 1172 3481 
Q 1172 3119 1398 2916 
Q 1625 2713 2034 2713 
Q 2441 2713 2670 2916 
Q 2900 3119 2900 3481 
Q 2900 3844 2670 4047 
Q 2441 4250 2034 4250 
Q 1625 4250 1398 4047 
Q 1172 3844 1172 3481 
z
" transform="scale(0.015625)"/>
       </defs>
       <use xlink:href="#DejaVuSans-38"/>
       <use xlink:href="#DejaVuSans-30" x="63.623047"/>
       <use xlink:href="#DejaVuSans-30" x="127.246094"/>
      </g>
     </g>
    </g>
    <g id="ytick_4">
     <g id="line2d_10">
      <g>
       <use xlink:href="#ma702ee51d6" x="57.6" y="175.937224" style="stroke: #000000; stroke-width: 0.8"/>
      </g>
     </g>
     <g id="text_11">
      <!-- 1000 -->
      <g transform="translate(25.15 179.736443)scale(0.1 -0.1)">
       <use xlink:href="#DejaVuSans-31"/>
       <use xlink:href="#DejaVuSans-30" x="63.623047"/>
       <use xlink:href="#DejaVuSans-30" x="127.246094"/>
       <use xlink:href="#DejaVuSans-30" x="190.869141"/>
      </g>
     </g>
    </g>
    <g id="ytick_5">
     <g id="line2d_11">
      <g>
       <use xlink:href="#ma702ee51d6" x="57.6" y="141.154663" style="stroke: #000000; stroke-width: 0.8"/>
      </g>
     </g>
     <g id="text_12">
      <!-- 1200 -->
      <g transform="translate(25.15 144.953881)scale(0.1 -0.1)">
       <use xlink:href="#DejaVuSans-31"/>
       <use xlink:href="#DejaVuSans-32" x="63.623047"/>
       <use xlink:href="#DejaVuSans-30" x="127.246094"/>
       <use xlink:href="#DejaVuSans-30" x="190.869141"/>
      </g>
     </g>
    </g>
    <g id="ytick_6">
     <g id="line2d_12">
      <g>
       <use xlink:href="#ma702ee51d6" x="57.6" y="106.372101" style="stroke: #000000; stroke-width: 0.8"/>
      </g>
     </g>
     <g id="text_13">
      <!-- 1400 -->
      <g transform="translate(25.15 110.17132)scale(0.1 -0.1)">
       <use xlink:href="#DejaVuSans-31"/>
       <use xlink:href="#DejaVuSans-34" x="63.623047"/>
       <use xlink:href="#DejaVuSans-30" x="127.246094"/>
       <use xlink:href="#DejaVuSans-30" x="190.869141"/>
      </g>
     </g>
    </g>
    <g id="ytick_7">
     <g id="line2d_13">
      <g>
       <use xlink:href="#ma702ee51d6" x="57.6" y="71.589539" style="stroke: #000000; stroke-width: 0.8"/>
      </g>
     </g>
     <g id="text_14">
      <!-- 1600 -->
      <g transform="translate(25.15 75.388758)scale(0.1 -0.1)">
       <use xlink:href="#DejaVuSans-31"/>
       <use xlink:href="#DejaVuSans-36" x="63.623047"/>
       <use xlink:href="#DejaVuSans-30" x="127.246094"/>
       <use xlink:href="#DejaVuSans-30" x="190.869141"/>
      </g>
     </g>
    </g>
    <g id="text_15">
     <!-- Waiting Time/s -->
     <g transform="translate(19.070312 211.410031)rotate(-90)scale(0.1 -0.1)">
      <defs>
       <path id="DejaVuSans-57" d="M 213 4666 
L 850 4666 
L 1831 722 
L 2809 4666 
L 3519 4666 
L 4500 722 
L 5478 4666 
L 6119 4666 
L 4947 0 
L 4153 0 
L 3169 4050 
L 2175 0 
L 1381 0 
L 213 4666 
z
" transform="scale(0.015625)"/>
       <path id="DejaVuSans-61" d="M 2194 1759 
Q 1497 1759 1228 1600 
Q 959 1441 959 1056 
Q 959 750 1161 570 
Q 1363 391 1709 391 
Q 2188 391 2477 730 
Q 2766 1069 2766 1631 
L 2766 1759 
L 2194 1759 
z
M 3341 1997 
L 3341 0 
L 2766 0 
L 2766 531 
Q 2569 213 2275 61 
Q 1981 -91 1556 -91 
Q 1019 -91 701 211 
Q 384 513 384 1019 
Q 384 1609 779 1909 
Q 1175 2209 1959 2209 
L 2766 2209 
L 2766 2266 
Q 2766 2663 2505 2880 
Q 2244 3097 1772 3097 
Q 1472 3097 1187 3025 
Q 903 2953 641 2809 
L 641 3341 
Q 956 3463 1253 3523 
Q 1550 3584 1831 3584 
Q 2591 3584 2966 3190 
Q 3341 2797 3341 1997 
z
" transform="scale(0.015625)"/>
       <path id="DejaVuSans-69" d="M 603 3500 
L 1178 3500 
L 1178 0 
L 603 0 
L 603 3500 
z
M 603 4863 
L 1178 4863 
L 1178 4134 
L 603 4134 
L 603 4863 
z
" transform="scale(0.015625)"/>
       <path id="DejaVuSans-74" d="M 1172 4494 
L 1172 3500 
L 2356 3500 
L 2356 3053 
L 1172 3053 
L 1172 1153 
Q 1172 725 1289 603 
Q 1406 481 1766 481 
L 2356 481 
L 2356 0 
L 1766 0 
Q 1100 0 847 248 
Q 594 497 594 1153 
L 594 3053 
L 172 3053 
L 172 3500 
L 594 3500 
L 594 4494 
L 1172 4494 
z
" transform="scale(0.015625)"/>
       <path id="DejaVuSans-6e" d="M 3513 2113 
L 3513 0 
L 2938 0 
L 2938 2094 
Q 2938 2591 2744 2837 
Q 2550 3084 2163 3084 
Q 1697 3084 1428 2787 
Q 1159 2491 1159 1978 
L 1159 0 
L 581 0 
L 581 3500 
L 1159 3500 
L 1159 2956 
Q 1366 3272 1645 3428 
Q 1925 3584 2291 3584 
Q 2894 3584 3203 3211 
Q 3513 2838 3513 2113 
z
" transform="scale(0.015625)"/>
       <path id="DejaVuSans-67" d="M 2906 1791 
Q 2906 2416 2648 2759 
Q 2391 3103 1925 3103 
Q 1463 3103 1205 2759 
Q 947 2416 947 1791 
Q 947 1169 1205 825 
Q 1463 481 1925 481 
Q 2391 481 2648 825 
Q 2906 1169 2906 1791 
z
M 3481 434 
Q 3481 -459 3084 -895 
Q 2688 -1331 1869 -1331 
Q 1566 -1331 1297 -1286 
Q 1028 -1241 775 -1147 
L 775 -588 
Q 1028 -725 1275 -790 
Q 1522 -856 1778 -856 
Q 2344 -856 2625 -561 
Q 2906 -266 2906 331 
L 2906 616 
Q 2728 306 2450 153 
Q 2172 0 1784 0 
Q 1141 0 747 490 
Q 353 981 353 1791 
Q 353 2603 747 3093 
Q 1141 3584 1784 3584 
Q 2172 3584 2450 3431 
Q 2728 3278 2906 2969 
L 2906 3500 
L 3481 3500 
L 3481 434 
z
" transform="scale(0.015625)"/>
       <path id="DejaVuSans-54" d="M -19 4666 
L 3928 4666 
L 3928 4134 
L 2272 4134 
L 2272 0 
L 1638 0 
L 1638 4134 
L -19 4134 
L -19 4666 
z
" transform="scale(0.015625)"/>
       <path id="DejaVuSans-2f" d="M 1625 4666 
L 2156 4666 
L 531 -594 
L 0 -594 
L 1625 4666 
z
" transform="scale(0.015625)"/>
      </defs>
      <use xlink:href="#DejaVuSans-57"/>
      <use xlink:href="#DejaVuSans-61" x="92.501953"/>
      <use xlink:href="#DejaVuSans-69" x="153.78125"/>
      <use xlink:href="#DejaVuSans-74" x="181.564453"/>
      <use xlink:href="#DejaVuSans-69" x="220.773438"/>
      <use xlink:href="#DejaVuSans-6e" x="248.556641"/>
      <use xlink:href="#DejaVuSans-67" x="311.935547"/>
      <use xlink:href="#DejaVuSans-20" x="375.412109"/>
      <use xlink:href="#DejaVuSans-54" x="407.199219"/>
      <use xlink:href="#DejaVuSans-69" x="465.158203"/>
      <use xlink:href="#DejaVuSans-6d" x="492.941406"/>
      <use xlink:href="#DejaVuSans-65" x="590.353516"/>
      <use xlink:href="#DejaVuSans-2f" x="651.876953"/>
      <use xlink:href="#DejaVuSans-73" x="685.568359"/>
     </g>
    </g>
   </g>
   <g id="line2d_14">
    <path d="M 73.832727 283.449471 
L 73.962615 295.488 
L 74.157447 271.671199 
L 74.222391 267.777512 
L 74.287335 269.195025 
L 74.352278 269.011575 
L 74.482166 267.669745 
L 74.741942 253.716282 
L 74.87183 255.948101 
L 74.936774 255.250926 
L 75.196549 247.667774 
L 75.391381 243.579541 
L 75.456325 244.33535 
L 75.521269 245.754733 
L 75.586213 245.308474 
L 75.651156 242.917117 
L 75.7161 243.25848 
L 75.781044 243.411722 
L 75.845988 243.897436 
L 75.910932 246.19636 
L 76.105764 242.995651 
L 76.170708 243.065663 
L 76.235651 243.439887 
L 76.300595 241.816843 
L 76.365539 242.235567 
L 76.430483 242.935878 
L 76.495427 241.759215 
L 76.560371 242.24467 
L 76.625315 242.073786 
L 76.690259 242.565822 
L 76.820147 239.338272 
L 76.88509 239.494109 
L 77.014978 240.411796 
L 77.079922 239.228633 
L 77.20981 240.313606 
L 77.534529 236.816251 
L 77.599473 236.729454 
L 77.664417 236.806469 
L 77.729361 237.091729 
L 77.794305 236.575231 
L 77.859249 237.316609 
L 77.989137 235.697484 
L 78.054081 236.979391 
L 78.119025 236.384901 
L 78.183968 236.171141 
L 78.248912 235.55735 
L 78.313856 235.696676 
L 78.443744 236.340515 
L 78.508688 236.365884 
L 78.638576 234.690157 
L 78.70352 235.353807 
L 78.768464 234.702617 
L 78.898351 235.985351 
L 79.158127 233.651782 
L 79.223071 234.006599 
L 79.288015 233.125103 
L 79.352959 233.358362 
L 79.742622 231.417134 
L 79.807566 231.931855 
L 80.262173 229.241602 
L 80.521949 230.897637 
L 80.71678 229.564964 
L 80.781724 229.546069 
L 80.846668 228.791418 
L 81.0415 230.29861 
L 81.106444 230.178172 
L 81.236332 228.989536 
L 81.301276 229.08255 
L 81.366219 228.543994 
L 81.431163 229.297586 
L 81.625995 228.222525 
L 81.690939 228.523254 
L 81.885771 227.373473 
L 81.950715 227.32824 
L 82.080602 225.783784 
L 82.145546 226.258041 
L 82.340378 225.246956 
L 82.405322 225.457827 
L 82.730041 224.370316 
L 82.989817 225.436906 
L 83.184649 224.923247 
L 83.249592 225.428493 
L 83.314536 225.181601 
L 83.37948 223.920993 
L 83.444424 224.178394 
L 83.7042 223.665179 
L 83.834088 223.759534 
L 84.093863 221.697523 
L 84.158807 220.959065 
L 84.223751 221.156064 
L 84.288695 221.06028 
L 84.418583 221.291229 
L 84.54847 220.067842 
L 84.613414 220.416759 
L 84.743302 219.605124 
L 84.808246 219.857847 
L 85.068022 218.936637 
L 85.327797 218.933335 
L 85.652517 217.609344 
L 85.717461 217.860052 
L 85.977236 216.634091 
L 86.04218 216.722996 
L 86.301956 218.038052 
L 86.626675 217.152583 
L 86.691619 217.357732 
L 86.756563 216.993419 
L 86.821507 217.00839 
L 86.886451 217.475756 
L 87.081282 216.955669 
L 87.146226 217.22214 
L 87.21117 217.177701 
L 87.341058 217.369345 
L 87.470946 216.990065 
L 87.53589 217.421874 
L 87.860609 215.647912 
L 87.925553 215.656437 
L 87.990497 216.071296 
L 88.055441 215.462654 
L 88.120385 215.704273 
L 88.185329 215.840729 
L 88.250273 215.130781 
L 88.315216 215.233889 
L 88.510048 215.899558 
L 88.574992 215.773002 
L 88.639936 215.9332 
L 88.70488 215.649128 
L 88.769824 215.844125 
L 88.899712 215.58171 
L 88.964655 215.132543 
L 89.029599 215.426125 
L 89.094543 215.309688 
L 89.354319 216.03637 
L 89.679038 213.852677 
L 89.808926 213.832892 
L 89.87387 213.601669 
L 89.938814 213.847424 
L 90.003758 213.67289 
L 90.068702 213.1123 
L 90.133646 213.204041 
L 90.393421 212.616453 
L 90.523309 212.943496 
L 90.718141 213.552734 
L 90.783085 213.574762 
L 90.977916 214.14548 
L 91.432524 212.896203 
L 91.497467 213.003526 
L 91.627355 212.39755 
L 91.692299 212.455078 
L 91.822187 212.704573 
L 91.887131 212.603125 
L 92.146906 212.228965 
L 92.276794 212.489049 
L 92.406682 212.889079 
L 92.731402 211.723942 
L 92.926233 211.203827 
L 93.056121 211.289447 
L 93.250953 210.588509 
L 93.510728 209.923366 
L 93.575672 209.854204 
L 93.900392 210.305166 
L 94.03028 210.273867 
L 94.160167 209.693432 
L 94.225111 209.96614 
L 94.290055 209.888436 
L 94.419943 209.677095 
L 94.484887 209.474555 
L 94.549831 209.578834 
L 94.614775 209.706324 
L 94.679718 209.66564 
L 94.809606 209.329997 
L 94.87455 209.428448 
L 95.004438 209.173508 
L 95.264214 208.729389 
L 95.329157 208.740485 
L 95.718821 207.782101 
L 95.848709 207.804133 
L 95.978596 207.260264 
L 96.04354 207.376112 
L 96.238372 207.514141 
L 96.433204 207.222463 
L 96.563092 207.4502 
L 96.757923 206.967357 
L 96.822867 207.02003 
L 97.277474 206.081121 
L 97.407362 206.112635 
L 97.53725 205.958121 
L 97.797026 206.417459 
L 97.926913 206.454597 
L 98.056801 206.646803 
L 98.251633 206.029691 
L 98.381521 206.126813 
L 98.70624 205.279647 
L 98.836128 205.422289 
L 98.901072 205.339173 
L 98.966016 205.527821 
L 99.290735 204.89382 
L 99.355679 204.994531 
L 99.420623 204.798138 
L 99.485567 204.995357 
L 99.550511 204.961341 
L 99.680399 204.981216 
L 100.005118 204.373312 
L 100.070062 204.480334 
L 100.19995 203.814598 
L 100.264894 203.914672 
L 100.524669 204.105882 
L 100.719501 203.867954 
L 100.784445 203.970421 
L 100.849389 203.889479 
L 100.979277 203.569491 
L 101.04422 203.658396 
L 101.174108 203.189664 
L 101.239052 203.21562 
L 101.303996 203.187422 
L 101.36894 203.369594 
L 101.433884 203.258711 
L 101.563772 203.081096 
L 101.758603 202.467761 
L 101.823547 202.490624 
L 102.018379 202.461347 
L 102.213211 202.806353 
L 102.278155 202.790805 
L 102.408042 202.50715 
L 102.472986 202.550413 
L 102.602874 202.256795 
L 102.732762 202.459167 
L 104.096584 200.577285 
L 104.226471 200.678952 
L 104.421303 200.442187 
L 104.486247 200.453029 
L 104.616135 200.190293 
L 104.810967 200.536014 
L 104.87591 200.52008 
L 104.940854 200.259372 
L 105.005798 200.420971 
L 105.135686 200.228917 
L 105.20063 200.314027 
L 105.265574 200.539265 
L 105.330518 200.407565 
L 105.395462 200.127094 
L 105.460406 200.152013 
L 105.525349 200.253352 
L 105.590293 200.162107 
L 105.655237 200.055226 
L 105.720181 200.185345 
L 105.785125 200.099456 
L 105.850069 199.952832 
L 105.915013 200.031541 
L 106.109845 200.224362 
L 106.434564 199.419447 
L 106.499508 199.33322 
L 106.564452 199.507529 
L 106.629396 199.436503 
L 106.759283 199.591013 
L 106.954115 199.137932 
L 107.084003 199.187523 
L 107.148947 199.402993 
L 107.343779 198.827139 
L 107.668498 199.470721 
L 107.86333 199.207901 
L 108.058161 199.156711 
L 108.252993 199.026082 
L 108.317937 199.131303 
L 108.447825 198.861302 
L 108.512769 198.928082 
L 108.577713 198.948305 
L 108.772544 198.555155 
L 108.967376 198.464127 
L 109.03232 198.584625 
L 109.097264 198.324016 
L 109.227152 198.582549 
L 109.357039 198.3554 
L 109.421983 198.440672 
L 109.486927 198.377655 
L 109.681759 198.647721 
L 109.746703 198.667691 
L 109.811647 198.560649 
L 110.006478 198.687716 
L 110.590973 198.346641 
L 110.915693 198.739481 
L 111.110525 198.422579 
L 111.565132 198.996528 
L 111.69502 199.357977 
L 111.824908 199.110454 
L 112.019739 199.368063 
L 112.149627 199.59021 
L 112.214571 199.464555 
L 112.279515 199.51916 
L 112.344459 199.493967 
L 112.53929 199.24453 
L 112.604234 199.229517 
L 112.86401 199.576007 
L 113.058842 199.340322 
L 113.188729 199.446674 
L 113.383561 199.467615 
L 113.448505 199.372614 
L 113.513449 199.448286 
L 113.968056 199.269336 
L 114.097944 199.388604 
L 114.227832 199.535429 
L 114.35772 199.310278 
L 114.422663 199.261563 
L 114.617495 199.489123 
L 114.812327 199.628979 
L 114.877271 199.797232 
L 114.942215 199.73974 
L 115.007159 199.630329 
L 115.072102 199.738075 
L 115.266934 199.713474 
L 115.396822 200.018452 
L 115.461766 199.903222 
L 115.591654 200.077162 
L 115.786485 199.984809 
L 115.851429 199.818004 
L 115.916373 199.942653 
L 116.046261 199.724062 
L 116.111205 199.789219 
L 116.176149 199.719963 
L 116.241093 199.839113 
L 116.306036 199.7464 
L 116.6957 199.879754 
L 116.890532 199.553303 
L 116.955475 199.593146 
L 117.345139 199.157108 
L 117.669858 199.060837 
L 117.86469 199.181473 
L 118.384241 199.487443 
L 118.514129 199.255645 
L 118.838848 199.589932 
L 119.03368 199.447624 
L 119.228512 199.671035 
L 119.423344 199.399047 
L 119.748063 199.68384 
L 119.877951 199.523119 
L 120.072783 199.54845 
L 120.267614 199.583859 
L 120.462446 199.656115 
L 120.592334 199.554688 
L 120.787165 199.644224 
L 120.917053 199.537879 
L 121.046941 199.610348 
L 121.241773 199.140528 
L 121.566492 199.246089 
L 121.761324 199.287319 
L 122.021099 199.431716 
L 122.605595 199.607653 
L 122.800426 199.500042 
L 122.930314 199.728229 
L 123.19009 199.512969 
L 123.644697 199.510837 
L 124.229192 199.520524 
L 124.35908 199.534577 
L 124.488968 199.518566 
L 124.683799 199.725958 
L 124.878631 199.634692 
L 125.20335 199.945434 
L 125.398182 199.80967 
L 125.52807 199.765816 
L 125.657958 199.88455 
L 125.852789 199.967217 
L 125.982677 199.938888 
L 126.112565 199.982295 
L 126.567172 199.933115 
L 126.632116 199.990492 
L 126.69706 199.804402 
L 126.762004 199.85291 
L 126.891892 199.960123 
L 127.736163 200.45263 
L 127.801106 200.407512 
L 128.125826 200.809112 
L 128.255714 200.882806 
L 128.385601 201.003102 
L 128.450545 200.924229 
L 128.580433 200.89435 
L 128.775265 200.740409 
L 128.970097 200.961569 
L 129.164928 201.045706 
L 129.294816 200.954242 
L 129.35976 200.948245 
L 129.554592 201.093784 
L 129.749423 200.966824 
L 129.879311 201.024937 
L 130.009199 201.186469 
L 130.268975 201.420591 
L 130.463806 201.369959 
L 130.658638 201.477548 
L 131.178189 201.338541 
L 131.308077 201.433048 
L 131.892572 201.528454 
L 131.957516 201.591023 
L 132.02246 201.463203 
L 132.087404 201.538747 
L 132.282235 201.527652 
L 132.477067 201.420934 
L 132.801787 201.388779 
L 133.970777 201.735582 
L 134.100664 201.745311 
L 135.204711 201.954529 
L 135.334599 201.929743 
L 135.52943 201.971662 
L 135.594374 201.896411 
L 135.659318 201.960418 
L 136.438645 201.875058 
L 136.633477 201.729118 
L 137.02314 201.932041 
L 137.153028 201.952857 
L 137.217972 201.887682 
L 137.412803 201.999026 
L 137.607635 201.862738 
L 137.737523 201.877847 
L 138.062242 201.896403 
L 138.257074 202.021579 
L 138.386962 201.977701 
L 138.581793 201.956043 
L 138.906513 202.211504 
L 139.231232 202.448867 
L 139.296176 202.347482 
L 139.36112 202.420044 
L 139.555952 202.399584 
L 139.750784 202.243847 
L 139.880671 202.387516 
L 140.010559 202.306984 
L 140.205391 202.401524 
L 140.270335 202.281105 
L 140.335279 202.365475 
L 142.673259 203.049893 
L 142.933035 203.278603 
L 142.997979 203.191126 
L 143.062922 203.264481 
L 143.647417 203.636187 
L 143.907193 203.711264 
L 144.102025 203.772905 
L 144.296856 203.77342 
L 144.556632 204.039467 
L 144.751464 204.016719 
L 145.011239 204.037292 
L 145.335959 204.170918 
L 145.530791 204.209792 
L 145.790566 204.412624 
L 146.050342 204.347478 
L 146.375061 204.356569 
L 146.894612 204.080133 
L 148.323378 204.274729 
L 148.583154 204.392296 
L 148.842929 204.317734 
L 149.037761 204.40276 
L 149.232593 204.304818 
L 149.492368 204.293978 
L 149.946976 204.269025 
L 150.076863 204.142983 
L 150.596415 204.3292 
L 150.921134 204.253781 
L 151.245854 204.326894 
L 151.635517 204.534077 
L 151.765405 204.558922 
L 152.02518 204.73631 
L 154.038441 205.157609 
L 154.363161 205.231634 
L 154.947656 205.182871 
L 155.207431 205.250728 
L 155.402263 205.246347 
L 155.532151 205.220983 
L 156.506309 205.425225 
L 156.831029 205.12131 
L 157.155748 205.170795 
L 157.480468 205.307872 
L 157.740243 205.336568 
L 157.870131 205.435262 
L 158.064963 205.391661 
L 158.714402 205.393515 
L 160.01328 205.621526 
L 160.143168 205.581651 
L 160.532831 205.663634 
L 160.922494 205.418151 
L 161.052382 205.49571 
L 161.247214 205.60132 
L 161.442046 205.686899 
L 161.571933 205.66142 
L 161.766765 205.685039 
L 162.091484 205.606432 
L 162.481148 205.581323 
L 162.740923 205.674931 
L 163.260475 205.589068 
L 164.494409 205.468349 
L 165.923174 205.290644 
L 166.50767 205.350608 
L 166.702501 205.305902 
L 167.481828 205.107181 
L 167.67666 205.150338 
L 172.612396 205.430178 
L 172.807228 205.440843 
L 173.261835 205.594276 
L 173.586554 205.553385 
L 174.625657 205.803678 
L 174.820488 205.789425 
L 175.729703 206.110943 
L 175.924535 206.124257 
L 176.18431 206.289916 
L 176.444086 206.214641 
L 176.573974 206.235029 
L 177.288357 206.303902 
L 177.548132 206.293595 
L 178.132627 206.326569 
L 178.262515 206.344292 
L 178.522291 206.452515 
L 179.691281 206.398505 
L 179.821169 206.400967 
L 180.275776 206.254503 
L 180.405664 206.256835 
L 180.925215 206.147069 
L 181.120047 206.124862 
L 181.769486 205.895845 
L 181.964317 205.819922 
L 183.977578 205.787278 
L 184.17241 205.750108 
L 184.756905 205.591008 
L 185.276456 205.678489 
L 185.406344 205.697972 
L 186.250614 205.608963 
L 186.445446 205.417304 
L 186.770166 205.3962 
L 186.964997 205.334943 
L 187.224773 205.430024 
L 188.328819 205.298674 
L 189.043202 205.193991 
L 189.367922 205.319116 
L 189.562753 205.249858 
L 189.887473 205.210818 
L 190.017361 205.074941 
L 190.407024 205.183682 
L 190.601856 205.141167 
L 191.056463 205.080342 
L 192.615116 205.24134 
L 192.809948 205.228437 
L 193.00478 205.298917 
L 193.199612 205.287557 
L 193.394443 205.331394 
L 194.043882 205.473671 
L 194.238714 205.585099 
L 194.49849 205.453276 
L 195.732424 205.541799 
L 195.992199 205.543676 
L 196.641638 205.568011 
L 198.914675 205.906032 
L 199.17445 205.974955 
L 200.408384 206.038811 
L 200.66816 206.15296 
L 200.862992 206.065916 
L 201.057823 206.099405 
L 203.136028 206.201106 
L 203.265916 206.177333 
L 203.655579 206.159537 
L 203.850411 206.154251 
L 204.369962 206.280568 
L 204.629738 206.238696 
L 204.824569 206.229112 
L 205.34412 206.247022 
L 205.733784 206.117041 
L 206.188391 206.185296 
L 207.032662 206.300901 
L 207.292437 206.325602 
L 207.552213 206.257754 
L 207.682101 206.269787 
L 208.071764 206.247529 
L 208.201652 206.196553 
L 209.305698 206.47389 
L 210.864352 206.489836 
L 211.124127 206.506519 
L 211.578735 206.574229 
L 212.098286 206.529169 
L 212.423005 206.507675 
L 214.371322 206.556736 
L 214.566154 206.531557 
L 215.475369 206.53192 
L 216.059864 206.48628 
L 216.254695 206.482577 
L 216.579415 206.549287 
L 216.969078 206.55939 
L 217.423685 206.560675 
L 219.307059 206.884558 
L 219.50189 206.856415 
L 220.930656 207.014357 
L 221.255375 207.061642 
L 221.580095 207.02922 
L 221.839871 207.111726 
L 222.034702 207.066636 
L 222.424366 207.14496 
L 223.203692 207.227876 
L 223.398524 207.215763 
L 223.788187 207.222344 
L 226.515831 207.274396 
L 227.16527 207.268423 
L 228.074485 207.380991 
L 231.061904 207.412337 
L 231.32168 207.336731 
L 232.555614 207.26475 
L 235.283257 207.133785 
L 235.413145 207.106196 
L 236.582135 207.243155 
L 236.906855 207.2103 
L 237.361462 207.194392 
L 239.309779 207.14515 
L 239.569555 207.064799 
L 240.738545 207.120284 
L 240.933376 207.062677 
L 241.258096 207.093396 
L 241.452928 207.116773 
L 246.453608 207.71408 
L 246.64844 207.716559 
L 247.103047 207.652221 
L 247.49271 207.675517 
L 249.505971 207.713875 
L 249.960578 207.679079 
L 250.610017 207.719459 
L 250.869793 207.745159 
L 252.49339 207.884032 
L 253.272717 207.880189 
L 253.597437 207.829103 
L 253.922156 207.849274 
L 254.376763 207.941423 
L 255.026202 207.928587 
L 256.390024 208.056331 
L 256.779688 208.067623 
L 259.247556 208.042619 
L 259.572275 207.998442 
L 259.896995 208.061713 
L 260.15677 207.959654 
L 260.351602 207.953077 
L 261.910256 207.836432 
L 262.299919 207.8595 
L 262.559694 207.826366 
L 263.209133 207.795185 
L 263.468909 207.712741 
L 263.858572 207.743046 
L 264.248236 207.667247 
L 264.962619 207.602286 
L 265.352282 207.458463 
L 265.547114 207.445216 
L 267.885094 207.210609 
L 268.209814 207.237422 
L 269.119028 206.919562 
L 269.898355 206.681048 
L 271.132289 206.434376 
L 271.521952 206.371294 
L 271.97656 206.219037 
L 272.301279 206.021212 
L 273.14555 205.90222 
L 273.470269 205.756317 
L 277.496791 204.587599 
L 278.016342 204.424398 
L 278.600837 204.172257 
L 278.795669 204.086634 
L 279.120388 203.989252 
L 280.873874 203.299187 
L 281.263537 203.080939 
L 283.081966 202.150241 
L 283.47163 201.975667 
L 285.679722 200.738867 
L 286.329161 200.386123 
L 286.718824 200.195575 
L 288.14759 199.235432 
L 288.537254 199.078119 
L 289.056805 198.761672 
L 289.771188 198.401039 
L 290.225795 198.074801 
L 293.667822 196.008483 
L 294.771868 195.19726 
L 297.434568 193.472668 
L 297.889175 193.124336 
L 299.123109 192.220087 
L 299.512772 191.971328 
L 300.032324 191.602071 
L 300.421987 191.332797 
L 300.746706 191.105576 
L 301.331202 190.62754 
L 301.850753 190.226459 
L 303.214575 189.028671 
L 303.539294 188.767265 
L 303.993901 188.36397 
L 304.318621 188.059929 
L 304.708284 187.697595 
L 305.227835 187.215244 
L 305.552555 186.911514 
L 307.176152 185.379358 
L 308.604918 184.135527 
L 310.748067 181.971325 
L 312.30672 180.579272 
L 314.319981 178.65104 
L 315.164252 177.786431 
L 321.074146 171.759714 
L 322.892576 169.768201 
L 323.542015 168.993995 
L 324.12651 168.311695 
L 336.206075 153.8758 
L 336.660682 153.368177 
L 337.245177 152.631199 
L 338.868774 150.557193 
L 339.518213 149.7125 
L 340.037765 149.094007 
L 340.427428 148.626868 
L 341.531474 147.131553 
L 341.79125 146.807043 
L 343.999342 143.748283 
L 345.557996 141.664597 
L 346.337323 140.499021 
L 347.571257 138.75744 
L 348.610359 137.303558 
L 349.194854 136.546392 
L 349.974181 135.439296 
L 350.753508 134.329452 
L 352.052386 132.522842 
L 352.831713 131.362071 
L 355.819132 126.978786 
L 356.988122 125.220988 
L 358.222056 123.333945 
L 359.520934 121.295693 
L 360.170373 120.279545 
L 361.144531 118.786746 
L 361.729027 117.801387 
L 362.443409 116.622865 
L 363.677343 114.53962 
L 364.846334 112.587003 
L 365.62566 111.210511 
L 369.262519 105.121626 
L 370.171733 103.553212 
L 370.626341 102.795336 
L 371.795331 100.825587 
L 373.418928 98.074801 
L 374.068367 96.959428 
L 375.107469 95.206706 
L 388.096249 72.384292 
L 389.070408 70.677396 
L 389.849734 69.28078 
L 390.499173 68.12459 
L 391.60322 66.166426 
L 394.136032 61.696665 
L 394.915358 60.280416 
L 398.097609 54.343266 
L 398.487273 53.568 
L 398.487273 53.568 
" clip-path="url(#p5030f9a2ec)" style="fill: none; stroke-dasharray: 2,3.3; stroke-dashoffset: 0; stroke: #0000ff; stroke-width: 2"/>
   </g>
   <g id="line2d_15">
    <path d="M 73.832727 283.449471 
L 73.962615 295.488 
L 74.157447 271.671199 
L 74.222391 267.777512 
L 74.287335 269.195025 
L 74.352278 269.011575 
L 74.482166 266.945709 
L 74.741942 253.185323 
L 74.806886 253.668391 
L 74.87183 253.064306 
L 75.001717 248.292468 
L 75.066661 248.432892 
L 75.326437 243.207047 
L 75.391381 244.351202 
L 75.456325 245.944472 
L 75.521269 245.474658 
L 75.586213 245.844899 
L 75.781044 241.652719 
L 75.845988 241.537746 
L 75.910932 241.675877 
L 75.975876 240.625679 
L 76.04082 241.704779 
L 76.105764 240.090205 
L 76.170708 241.662583 
L 76.235651 241.649113 
L 76.365539 239.3125 
L 76.755203 243.460011 
L 76.820147 241.426498 
L 76.88509 241.647647 
L 76.950034 242.32522 
L 77.339698 237.390061 
L 77.404642 237.619963 
L 77.469586 237.243973 
L 77.534529 237.34902 
L 77.599473 237.847226 
L 77.664417 237.782499 
L 77.859249 235.924349 
L 78.054081 235.056199 
L 78.119025 236.157588 
L 78.183968 235.696838 
L 78.248912 236.000201 
L 78.3788 235.189801 
L 78.508688 235.976056 
L 78.638576 234.778023 
L 78.70352 235.425013 
L 78.768464 235.213062 
L 78.833407 235.244973 
L 79.028239 233.279811 
L 79.093183 233.663952 
L 79.158127 233.520916 
L 79.223071 234.114434 
L 79.288015 232.162535 
L 79.352959 232.424422 
L 79.482846 231.556692 
L 79.54779 232.053084 
L 79.612734 232.099276 
L 79.807566 230.06514 
L 79.87251 230.203249 
L 80.197229 227.905217 
L 80.262173 227.792513 
L 80.392061 226.906054 
L 80.651837 228.375321 
L 80.71678 228.557791 
L 80.911612 227.648352 
L 80.976556 227.677521 
L 81.0415 227.0887 
L 81.106444 227.75731 
L 81.171388 227.698782 
L 81.236332 227.575689 
L 81.366219 226.430921 
L 81.431163 226.520239 
L 81.496107 227.009207 
L 81.885771 222.719067 
L 82.080602 223.336264 
L 82.145546 222.761277 
L 82.275434 223.516104 
L 82.405322 222.821004 
L 82.600153 220.493262 
L 82.665097 220.547334 
L 82.794985 220.046077 
L 82.989817 219.022612 
L 83.054761 218.673174 
L 83.314536 220.412169 
L 83.574312 219.672351 
L 83.639256 219.843936 
L 83.7042 219.786841 
L 83.769144 219.662888 
L 83.834088 219.257299 
L 83.899031 219.670378 
L 84.028919 218.839653 
L 84.093863 219.041138 
L 84.353639 218.21423 
L 84.418583 217.52242 
L 84.483527 217.993705 
L 84.678358 218.642186 
L 84.743302 218.569191 
L 84.808246 218.291528 
L 84.87319 218.404898 
L 84.938134 218.381728 
L 85.262853 216.795831 
L 85.327797 216.422797 
L 85.392741 216.657975 
L 85.457685 216.80877 
L 85.522629 216.74378 
L 85.652517 215.756412 
L 85.717461 215.912037 
L 85.912292 216.365427 
L 86.04218 216.519915 
L 86.172068 215.639177 
L 86.237012 215.720979 
L 86.301956 215.733983 
L 86.496787 214.489282 
L 86.561731 214.280896 
L 86.626675 214.331372 
L 86.691619 214.350047 
L 86.756563 213.954916 
L 86.951395 214.728597 
L 87.146226 214.844964 
L 87.21117 214.225718 
L 87.276114 214.237029 
L 87.406002 214.56223 
L 87.665778 213.660435 
L 87.795665 214.086453 
L 87.860609 213.834182 
L 88.120385 215.034784 
L 88.185329 214.711514 
L 88.250273 214.789712 
L 88.315216 215.162995 
L 88.574992 213.985276 
L 88.639936 214.092739 
L 88.70488 214.275289 
L 88.899712 213.429103 
L 88.964655 213.729136 
L 89.289375 212.580863 
L 89.354319 212.798553 
L 89.484207 212.254215 
L 89.549151 212.220646 
L 89.614094 212.548404 
L 89.679038 212.189051 
L 89.743982 212.457879 
L 89.808926 212.426619 
L 89.87387 212.40602 
L 89.938814 212.801149 
L 90.068702 211.779298 
L 90.133646 211.810351 
L 90.393421 212.206257 
L 90.458365 212.081188 
L 90.653197 211.289725 
L 90.848029 211.882465 
L 90.977916 212.098124 
L 91.04286 211.925936 
L 91.172748 212.174807 
L 91.302636 211.898482 
L 91.36758 211.628592 
L 91.432524 211.671308 
L 91.627355 212.277343 
L 91.692299 212.217865 
L 91.757243 211.896624 
L 91.822187 211.927444 
L 91.952075 211.925649 
L 92.21185 211.461715 
L 92.406682 212.001788 
L 92.471626 211.964277 
L 92.53657 212.016948 
L 92.731402 211.27209 
L 92.796345 211.328554 
L 93.186009 210.476784 
L 93.250953 210.155076 
L 93.315897 210.206739 
L 93.380841 210.262082 
L 93.575672 209.853358 
L 93.640616 209.970741 
L 93.70556 210.067428 
L 93.900392 209.69348 
L 94.03028 209.973036 
L 94.095223 209.946327 
L 94.160167 210.001987 
L 94.225111 209.835227 
L 94.290055 209.90139 
L 94.354999 209.809685 
L 94.419943 209.962513 
L 94.484887 209.820711 
L 94.614775 210.17456 
L 94.679718 210.143168 
L 95.004438 208.951011 
L 95.134326 208.729703 
L 95.264214 208.919888 
L 95.329157 208.627365 
L 95.394101 208.650004 
L 95.459045 208.677704 
L 95.523989 208.545228 
L 95.588933 208.620521 
L 95.718821 208.446102 
L 95.783765 208.633673 
L 95.913653 209.069777 
L 96.173428 207.846922 
L 96.238372 207.953842 
L 96.433204 207.5292 
L 96.563092 207.510746 
L 97.017699 206.20863 
L 97.147587 206.458617 
L 97.277474 206.37389 
L 97.407362 206.645616 
L 97.53725 206.509804 
L 97.667138 206.688408 
L 97.991857 205.111423 
L 98.056801 205.308525 
L 98.121745 205.133075 
L 98.186689 205.204451 
L 98.251633 205.151075 
L 98.316577 205.354069 
L 98.381521 204.980641 
L 98.446465 205.180106 
L 98.836128 204.578823 
L 99.03096 204.821076 
L 99.225791 204.156583 
L 99.290735 204.288933 
L 99.355679 204.517849 
L 99.550511 203.92761 
L 99.680399 203.809976 
L 99.745343 203.952267 
L 99.810286 203.806173 
L 100.070062 204.230685 
L 100.19995 204.008976 
L 100.329838 204.308795 
L 101.433884 201.85617 
L 101.563772 201.817117 
L 101.693659 201.712955 
L 101.758603 201.753915 
L 101.823547 201.648312 
L 102.148267 202.002962 
L 102.278155 201.810149 
L 102.472986 202.281214 
L 102.602874 202.037902 
L 102.667818 202.169203 
L 102.992537 201.601451 
L 103.057481 201.558759 
L 103.382201 201.982267 
L 103.577032 201.562953 
L 103.641976 201.698775 
L 103.70692 201.604247 
L 103.836808 201.840523 
L 103.901752 201.726999 
L 104.03164 201.617682 
L 104.226471 201.006397 
L 104.356359 200.921892 
L 104.421303 201.182537 
L 104.486247 201.030867 
L 104.746023 200.486077 
L 104.940854 200.703668 
L 105.525349 200.00815 
L 105.655237 200.195046 
L 105.850069 199.991338 
L 105.915013 200.120798 
L 105.979957 199.996335 
L 106.044901 200.04692 
L 106.239732 200.180805 
L 106.36962 200.198669 
L 106.499508 199.980185 
L 106.564452 200.148904 
L 106.629396 199.959192 
L 106.69434 199.997743 
L 106.759283 200.025747 
L 106.824227 199.920265 
L 106.889171 199.983028 
L 107.019059 200.003723 
L 107.084003 199.684525 
L 107.148947 199.74031 
L 107.343779 200.033174 
L 107.408722 199.847434 
L 107.473666 199.941674 
L 107.53861 200.035411 
L 107.603554 199.907254 
L 107.668498 200.009431 
L 107.86333 200.326001 
L 107.993218 200.200041 
L 108.252993 200.441727 
L 108.577713 200.241961 
L 108.837488 199.620761 
L 108.902432 199.743266 
L 109.03232 199.885365 
L 109.292096 199.79422 
L 109.486927 200.127149 
L 109.681759 199.816324 
L 109.746703 199.806536 
L 109.811647 199.95114 
L 109.876591 199.908751 
L 110.006478 199.963383 
L 110.136366 199.774807 
L 110.331198 200.087688 
L 110.461086 200.156139 
L 110.655917 199.908733 
L 110.915693 200.028771 
L 110.980637 200.160554 
L 111.045581 200.107597 
L 111.175469 200.239955 
L 111.305356 200.534145 
L 111.500188 200.202071 
L 111.69502 200.41401 
L 111.889851 200.887759 
L 112.799066 199.811277 
L 112.86401 199.93703 
L 113.058842 199.731473 
L 113.578393 199.669737 
L 113.708281 199.520944 
L 113.903112 199.797182 
L 114.097944 199.668566 
L 114.227832 199.738587 
L 114.292776 199.909624 
L 114.35772 199.632935 
L 114.422663 199.80891 
L 114.487607 199.80469 
L 114.552551 199.922392 
L 114.682439 199.69797 
L 114.812327 199.706154 
L 114.942215 199.53206 
L 115.007159 199.662333 
L 115.266934 199.246054 
L 115.396822 199.295658 
L 115.52671 199.162738 
L 115.591654 199.247896 
L 115.786485 199.03222 
L 115.851429 199.149376 
L 115.916373 199.108637 
L 116.176149 198.936833 
L 116.37098 199.1728 
L 116.825588 199.019714 
L 116.955475 199.030072 
L 117.020419 199.051825 
L 117.085363 198.923701 
L 117.150307 199.011806 
L 117.345139 198.965369 
L 117.539971 199.016908 
L 117.604914 198.887766 
L 117.669858 198.946501 
L 117.799746 199.016262 
L 118.059522 198.997361 
L 118.124466 198.896934 
L 118.18941 199.016221 
L 118.254353 198.954252 
L 118.838848 198.674524 
L 119.03368 198.745586 
L 119.163568 198.889617 
L 119.293456 198.829445 
L 119.423344 198.786184 
L 119.618175 198.547844 
L 119.748063 198.574897 
L 120.007839 198.255159 
L 120.20267 198.291464 
L 120.462446 198.05836 
L 120.722222 198.100751 
L 120.917053 197.843101 
L 120.981997 197.911846 
L 121.241773 198.034604 
L 121.891212 197.954259 
L 122.021099 197.86286 
L 122.280875 197.648953 
L 122.410763 197.792169 
L 122.475707 197.740222 
L 122.735482 198.038704 
L 122.800426 197.990027 
L 122.86537 198.094179 
L 122.930314 198.021382 
L 123.709641 197.770649 
L 123.839529 197.822993 
L 123.904473 197.807459 
L 124.03436 197.935779 
L 124.229192 197.874835 
L 124.424024 197.919132 
L 124.618855 198.038086 
L 124.878631 198.184095 
L 125.073463 198.164472 
L 125.268294 198.277057 
L 125.333238 198.145851 
L 125.398182 198.191731 
L 125.52807 198.168652 
L 125.787846 197.926972 
L 126.047621 198.299026 
L 126.502228 198.195035 
L 126.956836 198.441447 
L 127.086724 198.249838 
L 127.151667 198.322191 
L 127.801106 198.154041 
L 127.86605 198.28218 
L 127.930994 198.232863 
L 128.060882 198.175957 
L 128.320658 198.300854 
L 128.385601 198.338022 
L 128.515489 198.187804 
L 128.645377 198.403003 
L 128.775265 198.122538 
L 128.905153 198.152252 
L 129.03504 198.052006 
L 129.229872 198.138338 
L 129.294816 198.056135 
L 129.424704 198.267823 
L 129.489648 198.146943 
L 129.554592 198.187114 
L 129.814367 198.25553 
L 129.944255 198.254934 
L 130.268975 198.589513 
L 130.333918 198.479396 
L 130.398862 198.585269 
L 130.593694 198.673168 
L 130.918414 198.498658 
L 131.048301 198.614257 
L 131.178189 198.429608 
L 131.243133 198.562397 
L 131.308077 198.490275 
L 131.502909 198.644243 
L 131.632796 198.560379 
L 131.762684 198.767542 
L 131.827628 198.702804 
L 132.02246 198.722856 
L 132.152348 198.80577 
L 132.217291 198.742891 
L 132.412123 198.924625 
L 132.736843 198.792324 
L 132.86673 198.680553 
L 133.061562 198.788645 
L 133.386282 198.82704 
L 133.581113 198.847264 
L 133.905833 198.732947 
L 134.100664 198.91468 
L 134.295496 198.945006 
L 134.425384 198.906924 
L 134.555272 198.968657 
L 134.620216 198.85734 
L 134.68516 198.911195 
L 134.879991 198.953348 
L 135.074823 198.919635 
L 135.52943 198.913701 
L 135.659318 198.834458 
L 135.724262 198.845546 
L 135.919094 198.668197 
L 136.178869 198.548824 
L 136.438645 198.527385 
L 136.633477 198.810737 
L 136.763364 198.673339 
L 137.088084 198.808319 
L 137.672579 198.537233 
L 137.867411 198.661129 
L 137.997298 198.487161 
L 138.127186 198.516072 
L 138.257074 198.44741 
L 138.386962 198.381426 
L 138.51685 198.485729 
L 138.646737 198.503585 
L 138.841569 198.576055 
L 139.036401 198.712088 
L 139.36112 198.91888 
L 139.880671 198.608918 
L 140.010559 198.706787 
L 140.335279 198.669125 
L 140.53011 198.762344 
L 140.724942 198.743725 
L 141.893932 198.614583 
L 142.088764 198.735672 
L 142.218652 198.821825 
L 142.34854 198.735946 
L 142.478427 198.765237 
L 142.673259 198.631564 
L 142.868091 198.730582 
L 143.127866 198.768274 
L 143.322698 198.719237 
L 143.452586 198.769243 
L 143.582474 198.79052 
L 143.647417 198.85857 
L 143.712361 198.777128 
L 144.166969 198.996741 
L 144.426744 198.887686 
L 144.68652 199.074521 
L 144.816408 199.185917 
L 145.206071 198.782263 
L 145.335959 198.755276 
L 145.465847 198.597077 
L 145.660678 198.7558 
L 145.920454 198.836667 
L 146.245173 198.732697 
L 146.504949 198.414253 
L 146.829668 198.514878 
L 147.0245 198.456545 
L 147.414164 198.326961 
L 147.608995 198.305134 
L 149.427424 198.610511 
L 149.817088 198.565403 
L 150.076863 198.654664 
L 150.206751 198.567197 
L 150.531471 198.722897 
L 151.245854 198.599919 
L 151.375741 198.649474 
L 151.570573 198.561158 
L 152.02518 198.605373 
L 152.220012 198.450088 
L 152.869451 198.370358 
L 152.999339 198.251029 
L 153.259114 198.445995 
L 153.453946 198.532066 
L 153.583834 198.369494 
L 153.648778 198.419865 
L 153.843609 198.38528 
L 153.973497 198.44441 
L 154.428105 198.13391 
L 154.622936 198.097995 
L 154.817768 198.042053 
L 155.662039 197.850941 
L 156.116646 197.963717 
L 156.376421 197.85886 
L 156.571253 197.845546 
L 156.701141 197.820083 
L 157.02586 197.88927 
L 157.155748 197.892227 
L 157.285636 197.889728 
L 157.415524 197.859471 
L 157.545412 197.918323 
L 157.935075 197.664443 
L 158.194851 197.803377 
L 158.51957 197.843671 
L 160.402943 197.65484 
L 160.467887 197.493504 
L 160.532831 197.535081 
L 160.85755 197.357016 
L 160.987438 197.443578 
L 161.117326 197.447709 
L 161.377102 197.644807 
L 162.67598 197.393159 
L 162.870811 197.372685 
L 163.585194 197.408856 
L 164.104745 197.264371 
L 164.559353 197.258427 
L 164.754184 197.289705 
L 165.078904 197.217502 
L 166.18295 197.114014 
L 166.377782 197.181636 
L 166.637557 197.095146 
L 166.832389 197.043074 
L 166.962277 196.996752 
L 167.222052 196.969182 
L 167.35194 196.967558 
L 167.67666 196.849623 
L 167.871491 196.709958 
L 168.066323 196.735393 
L 168.196211 196.671205 
L 168.455986 196.798158 
L 168.715762 196.731808 
L 168.975538 196.572158 
L 169.430145 196.595499 
L 169.560033 196.62329 
L 169.949696 196.614538 
L 171.768125 196.631404 
L 171.962957 196.742261 
L 172.612396 196.689376 
L 172.807228 196.718678 
L 173.067003 196.752538 
L 173.326779 196.60069 
L 173.781386 196.581601 
L 174.235993 196.747567 
L 174.365881 196.704909 
L 174.820488 196.67758 
L 175.275096 196.816878 
L 175.469927 196.716496 
L 175.794647 196.803599 
L 175.924535 196.788286 
L 176.314198 196.572748 
L 176.963637 196.578503 
L 177.158469 196.569107 
L 177.613076 196.6226 
L 179.691281 196.358135 
L 179.821169 196.356086 
L 179.951056 196.404126 
L 180.080944 196.354047 
L 180.275776 196.335829 
L 180.795327 196.243737 
L 181.899373 196.003507 
L 182.029261 195.973434 
L 182.353981 196.064235 
L 182.483868 196.021828 
L 182.613756 195.974673 
L 182.743644 195.922957 
L 182.938476 195.933444 
L 183.00342 195.999924 
L 183.068363 195.927206 
L 183.84769 195.903038 
L 184.042522 195.823164 
L 184.302298 195.617395 
L 184.691961 195.565956 
L 186.380502 195.562479 
L 187.224773 195.356745 
L 187.744324 195.477218 
L 187.939156 195.442104 
L 188.069044 195.408707 
L 188.458707 195.386805 
L 188.588595 195.383867 
L 188.84837 195.194545 
L 188.978258 195.204119 
L 189.108146 195.160277 
L 189.302978 195.159226 
L 189.562753 195.221031 
L 189.822529 195.259383 
L 190.082304 195.23363 
L 190.34208 195.239292 
L 190.6668 195.286754 
L 191.056463 195.34559 
L 194.693321 194.841252 
L 194.888153 194.888441 
L 195.212872 194.767429 
L 195.602536 194.74096 
L 195.862311 194.64179 
L 196.057143 194.72371 
L 196.187031 194.634966 
L 196.381863 194.647159 
L 196.641638 194.621871 
L 197.875572 194.637878 
L 198.330179 194.702043 
L 198.525011 194.703252 
L 198.784787 194.657573 
L 199.044562 194.75429 
L 200.538272 194.661707 
L 200.733104 194.648969 
L 200.992879 194.495023 
L 201.317599 194.51234 
L 201.577374 194.462259 
L 201.772206 194.380724 
L 202.291757 194.3404 
L 202.616477 194.354316 
L 203.200972 194.172404 
L 203.33086 194.226423 
L 203.655579 194.089687 
L 203.785467 194.138929 
L 204.110186 193.987953 
L 204.629738 193.991188 
L 204.824569 193.921419 
L 205.603896 193.961623 
L 205.733784 193.998365 
L 205.928616 193.887116 
L 206.448167 194.056342 
L 206.578055 194.073117 
L 206.772886 194.062497 
L 208.071764 194.01159 
L 208.201652 193.968833 
L 208.721203 194.056203 
L 208.851091 193.99858 
L 209.110867 193.997174 
L 209.890193 194.052631 
L 210.085025 193.980553 
L 210.214913 193.970844 
L 210.409744 193.967398 
L 210.864352 193.95985 
L 211.254015 193.971722 
L 211.578735 193.953461 
L 211.773566 193.945809 
L 212.747725 193.70383 
L 212.942557 193.641237 
L 213.072444 193.60942 
L 213.397164 193.613518 
L 213.656939 193.671474 
L 214.046603 193.447429 
L 214.306378 193.468509 
L 214.50121 193.446534 
L 214.82593 193.434057 
L 214.955817 193.386738 
L 215.215593 193.254274 
L 215.929976 193.126939 
L 216.254695 193.149195 
L 217.16391 193.043691 
L 217.423685 192.997535 
L 217.683461 192.916091 
L 218.267956 192.938406 
L 218.462788 192.92971 
L 220.151329 192.670108 
L 221.839871 192.355246 
L 222.229534 192.380508 
L 222.554253 192.234754 
L 222.943917 192.056215 
L 223.203692 192.070448 
L 223.593356 191.93837 
L 224.242795 191.869167 
L 224.372683 191.799077 
L 224.567514 191.839275 
L 224.957178 191.774663 
L 225.281897 191.690543 
L 225.411785 191.645508 
L 225.606617 191.601127 
L 225.99628 191.610181 
L 226.515831 191.570813 
L 226.905495 191.457919 
L 227.230214 191.38362 
L 227.425046 191.38063 
L 227.814709 191.434457 
L 228.074485 191.457686 
L 229.568194 191.478071 
L 229.763026 191.429333 
L 231.516511 191.316549 
L 232.036062 191.159042 
L 232.230894 191.213433 
L 232.425726 191.2297 
L 235.737865 190.955407 
L 235.932696 190.983097 
L 236.257416 190.842369 
L 237.556294 190.760631 
L 237.751125 190.679084 
L 239.179891 190.829585 
L 239.439667 190.786834 
L 240.608657 190.76084 
L 240.868433 190.801096 
L 241.193152 190.848473 
L 242.297198 190.90382 
L 242.556974 190.802821 
L 242.81675 190.829836 
L 245.544393 191.132758 
L 246.973159 191.126732 
L 247.297878 191.155821 
L 247.882374 191.022056 
L 248.531813 191.063583 
L 248.921476 190.976319 
L 249.246195 191.007699 
L 249.765747 191.019432 
L 251.064625 191.069485 
L 251.389344 191.089291 
L 252.038783 191.11262 
L 252.363503 191.080299 
L 253.077885 191.136414 
L 253.727324 191.118886 
L 254.052044 191.196806 
L 254.831371 191.075764 
L 255.15609 191.170607 
L 255.675641 191.000878 
L 256.584856 190.950505 
L 257.299239 190.786438 
L 257.623958 190.807965 
L 257.883734 190.738658 
L 258.598117 190.705328 
L 258.792948 190.648157 
L 259.182612 190.604774 
L 259.637219 190.701142 
L 260.221714 190.631583 
L 260.416546 190.661049 
L 260.611378 190.605015 
L 260.806209 190.536085 
L 260.936097 190.522445 
L 261.260817 190.494784 
L 261.520592 190.494795 
L 262.299919 190.416916 
L 262.494751 190.418443 
L 263.014302 190.350363 
L 264.118348 190.380872 
L 264.378124 190.393201 
L 265.547114 190.342855 
L 266.001721 190.314094 
L 267.365543 190.282745 
L 267.625319 190.287369 
L 268.079926 190.311877 
L 268.274757 190.27078 
L 268.924196 190.150461 
L 273.210494 189.799589 
L 273.600157 189.819713 
L 274.899035 189.812648 
L 275.743306 189.910783 
L 276.587576 189.906609 
L 276.847352 189.928935 
L 277.042184 189.886241 
L 277.561735 189.987851 
L 278.341062 189.900927 
L 278.730725 189.903076 
L 279.510052 189.892065 
L 279.769827 189.907866 
L 280.029603 189.861988 
L 281.6532 189.709002 
L 281.97792 189.652695 
L 282.757247 189.641221 
L 283.017022 189.552737 
L 283.47163 189.567405 
L 283.731405 189.535733 
L 284.121069 189.500975 
L 284.445788 189.505964 
L 286.069386 189.397187 
L 286.329161 189.38872 
L 286.783768 189.385765 
L 291.719505 189.265202 
L 291.914336 189.269145 
L 292.368944 189.18251 
L 296.005802 189.126001 
L 296.265577 189.127885 
L 298.993221 189.083255 
L 299.317941 189.119906 
L 301.13637 189.103123 
L 301.655921 189.104752 
L 302.045584 189.069651 
L 302.370304 189.085167 
L 302.759967 189.008731 
L 303.539294 189.076888 
L 304.058845 189.061009 
L 304.253677 189.034439 
L 306.981321 188.907418 
L 307.241096 188.930186 
L 311.267618 188.850935 
L 311.722225 188.883508 
L 311.917057 188.862814 
L 312.696384 188.824131 
L 313.086047 188.810274 
L 313.410767 188.82707 
L 313.670542 188.795317 
L 315.359083 188.670521 
L 317.112569 188.704261 
L 317.437288 188.641298 
L 317.697064 188.595402 
L 319.840212 188.549084 
L 320.035044 188.55189 
L 320.749427 188.549958 
L 321.333922 188.564577 
L 323.022463 188.347593 
L 323.217295 188.31769 
L 323.347183 188.33386 
L 323.606958 188.235204 
L 323.931678 188.158674 
L 324.191454 188.120273 
L 329.192134 187.923383 
L 329.516853 187.92694 
L 329.97146 187.897601 
L 330.426068 187.892425 
L 331.724946 187.929763 
L 332.179553 187.972624 
L 332.764048 187.822661 
L 333.088768 187.844582 
L 333.478431 187.868952 
L 333.933038 187.853673 
L 334.387646 187.83404 
L 338.933718 187.862912 
L 339.388326 187.858299 
L 340.817091 187.83747 
L 345.557996 187.79493 
L 345.882715 187.770346 
L 346.726986 187.770638 
L 346.986762 187.760789 
L 347.506313 187.755349 
L 347.96092 187.687782 
L 348.350584 187.728179 
L 348.610359 187.690981 
L 349.324742 187.646472 
L 349.649462 187.636794 
L 351.987442 187.372604 
L 352.312161 187.306703 
L 352.701825 187.35268 
L 353.091488 187.336819 
L 353.416208 187.333746 
L 357.832393 186.993062 
L 366.340043 186.932349 
L 366.664763 186.895114 
L 367.379146 186.916881 
L 367.768809 186.942173 
L 368.353304 186.953577 
L 368.937799 187.016623 
L 369.392406 187.130897 
L 369.976902 187.077759 
L 370.431509 187.048642 
L 372.379826 187.089368 
L 372.964321 187.066639 
L 373.28904 187.055047 
L 374.263199 187.083448 
L 374.977582 187.08821 
L 375.497133 187.120787 
L 375.821852 187.12409 
L 376.146572 187.132079 
L 376.860955 187.098034 
L 377.44545 187.121394 
L 381.536915 187.061515 
L 382.511074 187.088167 
L 383.030625 186.999616 
L 383.93984 187.018628 
L 384.199615 187.009691 
L 384.589279 186.961992 
L 385.368605 186.960674 
L 385.693325 186.967183 
L 392.707266 187.069462 
L 395.43491 187.184752 
L 396.019405 187.165961 
L 396.344124 187.191332 
L 396.668844 187.141242 
L 397.77289 187.111032 
L 398.227497 187.047648 
L 398.487273 186.963186 
L 398.487273 186.963186 
" clip-path="url(#p5030f9a2ec)" style="fill: none; stroke-dasharray: 2,3.3; stroke-dashoffset: 0; stroke: #ffa500; stroke-width: 2"/>
   </g>
   <g id="patch_3">
    <path d="M 57.6 307.584 
L 57.6 41.472 
" style="fill: none; stroke: #000000; stroke-width: 0.8; stroke-linejoin: miter; stroke-linecap: square"/>
   </g>
   <g id="patch_4">
    <path d="M 414.72 307.584 
L 414.72 41.472 
" style="fill: none; stroke: #000000; stroke-width: 0.8; stroke-linejoin: miter; stroke-linecap: square"/>
   </g>
   <g id="patch_5">
    <path d="M 57.6 307.584 
L 414.72 307.584 
" style="fill: none; stroke: #000000; stroke-width: 0.8; stroke-linejoin: miter; stroke-linecap: square"/>
   </g>
   <g id="patch_6">
    <path d="M 57.6 41.472 
L 414.72 41.472 
" style="fill: none; stroke: #000000; stroke-width: 0.8; stroke-linejoin: miter; stroke-linecap: square"/>
   </g>
   <g id="text_16">
    <!-- Waiting Time Plot -->
    <g transform="translate(183.833438 8.2635)scale(0.12 -0.12)">
     <defs>
      <path id="DejaVuSans-50" d="M 1259 4147 
L 1259 2394 
L 2053 2394 
Q 2494 2394 2734 2622 
Q 2975 2850 2975 3272 
Q 2975 3691 2734 3919 
Q 2494 4147 2053 4147 
L 1259 4147 
z
M 628 4666 
L 2053 4666 
Q 2838 4666 3239 4311 
Q 3641 3956 3641 3272 
Q 3641 2581 3239 2228 
Q 2838 1875 2053 1875 
L 1259 1875 
L 1259 0 
L 628 0 
L 628 4666 
z
" transform="scale(0.015625)"/>
      <path id="DejaVuSans-6c" d="M 603 4863 
L 1178 4863 
L 1178 0 
L 603 0 
L 603 4863 
z
" transform="scale(0.015625)"/>
     </defs>
     <use xlink:href="#DejaVuSans-57"/>
     <use xlink:href="#DejaVuSans-61" x="92.501953"/>
     <use xlink:href="#DejaVuSans-69" x="153.78125"/>
     <use xlink:href="#DejaVuSans-74" x="181.564453"/>
     <use xlink:href="#DejaVuSans-69" x="220.773438"/>
     <use xlink:href="#DejaVuSans-6e" x="248.556641"/>
     <use xlink:href="#DejaVuSans-67" x="311.935547"/>
     <use xlink:href="#DejaVuSans-20" x="375.412109"/>
     <use xlink:href="#DejaVuSans-54" x="407.199219"/>
     <use xlink:href="#DejaVuSans-69" x="465.158203"/>
     <use xlink:href="#DejaVuSans-6d" x="492.941406"/>
     <use xlink:href="#DejaVuSans-65" x="590.353516"/>
     <use xlink:href="#DejaVuSans-20" x="651.876953"/>
     <use xlink:href="#DejaVuSans-50" x="683.664062"/>
     <use xlink:href="#DejaVuSans-6c" x="743.966797"/>
     <use xlink:href="#DejaVuSans-6f" x="771.75"/>
     <use xlink:href="#DejaVuSans-74" x="832.931641"/>
    </g>
    <!--  avg_d = 1703.6239893688373  -->
    <g transform="translate(138.854062 21.700875)scale(0.12 -0.12)">
     <defs>
      <path id="DejaVuSans-76" d="M 191 3500 
L 800 3500 
L 1894 563 
L 2988 3500 
L 3597 3500 
L 2284 0 
L 1503 0 
L 191 3500 
z
" transform="scale(0.015625)"/>
      <path id="DejaVuSans-5f" d="M 3263 -1063 
L 3263 -1509 
L -63 -1509 
L -63 -1063 
L 3263 -1063 
z
" transform="scale(0.015625)"/>
      <path id="DejaVuSans-3d" d="M 678 2906 
L 4684 2906 
L 4684 2381 
L 678 2381 
L 678 2906 
z
M 678 1631 
L 4684 1631 
L 4684 1100 
L 678 1100 
L 678 1631 
z
" transform="scale(0.015625)"/>
      <path id="DejaVuSans-37" d="M 525 4666 
L 3525 4666 
L 3525 4397 
L 1831 0 
L 1172 0 
L 2766 4134 
L 525 4134 
L 525 4666 
z
" transform="scale(0.015625)"/>
      <path id="DejaVuSans-2e" d="M 684 794 
L 1344 794 
L 1344 0 
L 684 0 
L 684 794 
z
" transform="scale(0.015625)"/>
      <path id="DejaVuSans-39" d="M 703 97 
L 703 672 
Q 941 559 1184 500 
Q 1428 441 1663 441 
Q 2288 441 2617 861 
Q 2947 1281 2994 2138 
Q 2813 1869 2534 1725 
Q 2256 1581 1919 1581 
Q 1219 1581 811 2004 
Q 403 2428 403 3163 
Q 403 3881 828 4315 
Q 1253 4750 1959 4750 
Q 2769 4750 3195 4129 
Q 3622 3509 3622 2328 
Q 3622 1225 3098 567 
Q 2575 -91 1691 -91 
Q 1453 -91 1209 -44 
Q 966 3 703 97 
z
M 1959 2075 
Q 2384 2075 2632 2365 
Q 2881 2656 2881 3163 
Q 2881 3666 2632 3958 
Q 2384 4250 1959 4250 
Q 1534 4250 1286 3958 
Q 1038 3666 1038 3163 
Q 1038 2656 1286 2365 
Q 1534 2075 1959 2075 
z
" transform="scale(0.015625)"/>
     </defs>
     <use xlink:href="#DejaVuSans-20"/>
     <use xlink:href="#DejaVuSans-61" x="31.787109"/>
     <use xlink:href="#DejaVuSans-76" x="93.066406"/>
     <use xlink:href="#DejaVuSans-67" x="152.246094"/>
     <use xlink:href="#DejaVuSans-5f" x="215.722656"/>
     <use xlink:href="#DejaVuSans-64" x="265.722656"/>
     <use xlink:href="#DejaVuSans-20" x="329.199219"/>
     <use xlink:href="#DejaVuSans-3d" x="360.986328"/>
     <use xlink:href="#DejaVuSans-20" x="444.775391"/>
     <use xlink:href="#DejaVuSans-31" x="476.5625"/>
     <use xlink:href="#DejaVuSans-37" x="540.185547"/>
     <use xlink:href="#DejaVuSans-30" x="603.808594"/>
     <use xlink:href="#DejaVuSans-33" x="667.431641"/>
     <use xlink:href="#DejaVuSans-2e" x="731.054688"/>
     <use xlink:href="#DejaVuSans-36" x="762.841797"/>
     <use xlink:href="#DejaVuSans-32" x="826.464844"/>
     <use xlink:href="#DejaVuSans-33" x="890.087891"/>
     <use xlink:href="#DejaVuSans-39" x="953.710938"/>
     <use xlink:href="#DejaVuSans-38" x="1017.333984"/>
     <use xlink:href="#DejaVuSans-39" x="1080.957031"/>
     <use xlink:href="#DejaVuSans-33" x="1144.580078"/>
     <use xlink:href="#DejaVuSans-36" x="1208.203125"/>
     <use xlink:href="#DejaVuSans-38" x="1271.826172"/>
     <use xlink:href="#DejaVuSans-38" x="1335.449219"/>
     <use xlink:href="#DejaVuSans-33" x="1399.072266"/>
     <use xlink:href="#DejaVuSans-37" x="1462.695312"/>
     <use xlink:href="#DejaVuSans-33" x="1526.318359"/>
     <use xlink:href="#DejaVuSans-20" x="1589.941406"/>
    </g>
    <!--  avg_a = 936.6006370619771diff = 767.0233523068603 -->
    <g transform="translate(63.181875 35.472)scale(0.12 -0.12)">
     <use xlink:href="#DejaVuSans-20"/>
     <use xlink:href="#DejaVuSans-61" x="31.787109"/>
     <use xlink:href="#DejaVuSans-76" x="93.066406"/>
     <use xlink:href="#DejaVuSans-67" x="152.246094"/>
     <use xlink:href="#DejaVuSans-5f" x="215.722656"/>
     <use xlink:href="#DejaVuSans-61" x="265.722656"/>
     <use xlink:href="#DejaVuSans-20" x="327.001953"/>
     <use xlink:href="#DejaVuSans-3d" x="358.789062"/>
     <use xlink:href="#DejaVuSans-20" x="442.578125"/>
     <use xlink:href="#DejaVuSans-39" x="474.365234"/>
     <use xlink:href="#DejaVuSans-33" x="537.988281"/>
     <use xlink:href="#DejaVuSans-36" x="601.611328"/>
     <use xlink:href="#DejaVuSans-2e" x="665.234375"/>
     <use xlink:href="#DejaVuSans-36" x="697.021484"/>
     <use xlink:href="#DejaVuSans-30" x="760.644531"/>
     <use xlink:href="#DejaVuSans-30" x="824.267578"/>
     <use xlink:href="#DejaVuSans-36" x="887.890625"/>
     <use xlink:href="#DejaVuSans-33" x="951.513672"/>
     <use xlink:href="#DejaVuSans-37" x="1015.136719"/>
     <use xlink:href="#DejaVuSans-30" x="1078.759766"/>
     <use xlink:href="#DejaVuSans-36" x="1142.382812"/>
     <use xlink:href="#DejaVuSans-31" x="1206.005859"/>
     <use xlink:href="#DejaVuSans-39" x="1269.628906"/>
     <use xlink:href="#DejaVuSans-37" x="1333.251953"/>
     <use xlink:href="#DejaVuSans-37" x="1396.875"/>
     <use xlink:href="#DejaVuSans-31" x="1460.498047"/>
     <use xlink:href="#DejaVuSans-64" x="1524.121094"/>
     <use xlink:href="#DejaVuSans-69" x="1587.597656"/>
     <use xlink:href="#DejaVuSans-66" x="1615.380859"/>
     <use xlink:href="#DejaVuSans-66" x="1650.585938"/>
     <use xlink:href="#DejaVuSans-20" x="1685.791016"/>
     <use xlink:href="#DejaVuSans-3d" x="1717.578125"/>
     <use xlink:href="#DejaVuSans-20" x="1801.367188"/>
     <use xlink:href="#DejaVuSans-37" x="1833.154297"/>
     <use xlink:href="#DejaVuSans-36" x="1896.777344"/>
     <use xlink:href="#DejaVuSans-37" x="1960.400391"/>
     <use xlink:href="#DejaVuSans-2e" x="2024.023438"/>
     <use xlink:href="#DejaVuSans-30" x="2055.810547"/>
     <use xlink:href="#DejaVuSans-32" x="2119.433594"/>
     <use xlink:href="#DejaVuSans-33" x="2183.056641"/>
     <use xlink:href="#DejaVuSans-33" x="2246.679688"/>
     <use xlink:href="#DejaVuSans-35" x="2310.302734"/>
     <use xlink:href="#DejaVuSans-32" x="2373.925781"/>
     <use xlink:href="#DejaVuSans-33" x="2437.548828"/>
     <use xlink:href="#DejaVuSans-30" x="2501.171875"/>
     <use xlink:href="#DejaVuSans-36" x="2564.794922"/>
     <use xlink:href="#DejaVuSans-38" x="2628.417969"/>
     <use xlink:href="#DejaVuSans-36" x="2692.041016"/>
     <use xlink:href="#DejaVuSans-30" x="2755.664062"/>
     <use xlink:href="#DejaVuSans-33" x="2819.287109"/>
    </g>
   </g>
   <g id="legend_1">
    <g id="patch_7">
     <path d="M 64.6 78.82825 
L 208.43125 78.82825 
Q 210.43125 78.82825 210.43125 76.82825 
L 210.43125 48.472 
Q 210.43125 46.472 208.43125 46.472 
L 64.6 46.472 
Q 62.6 46.472 62.6 48.472 
L 62.6 76.82825 
Q 62.6 78.82825 64.6 78.82825 
z
" style="fill: #ffffff; opacity: 0.8; stroke: #cccccc; stroke-linejoin: miter"/>
    </g>
    <g id="line2d_16">
     <path d="M 66.6 54.570437 
L 76.6 54.570437 
L 86.6 54.570437 
" style="fill: none; stroke-dasharray: 2,3.3; stroke-dashoffset: 0; stroke: #0000ff; stroke-width: 2"/>
    </g>
    <g id="text_17">
     <!-- Average (Default) -->
     <g transform="translate(94.6 58.070437)scale(0.1 -0.1)">
      <defs>
       <path id="DejaVuSans-41" d="M 2188 4044 
L 1331 1722 
L 3047 1722 
L 2188 4044 
z
M 1831 4666 
L 2547 4666 
L 4325 0 
L 3669 0 
L 3244 1197 
L 1141 1197 
L 716 0 
L 50 0 
L 1831 4666 
z
" transform="scale(0.015625)"/>
       <path id="DejaVuSans-28" d="M 1984 4856 
Q 1566 4138 1362 3434 
Q 1159 2731 1159 2009 
Q 1159 1288 1364 580 
Q 1569 -128 1984 -844 
L 1484 -844 
Q 1016 -109 783 600 
Q 550 1309 550 2009 
Q 550 2706 781 3412 
Q 1013 4119 1484 4856 
L 1984 4856 
z
" transform="scale(0.015625)"/>
       <path id="DejaVuSans-44" d="M 1259 4147 
L 1259 519 
L 2022 519 
Q 2988 519 3436 956 
Q 3884 1394 3884 2338 
Q 3884 3275 3436 3711 
Q 2988 4147 2022 4147 
L 1259 4147 
z
M 628 4666 
L 1925 4666 
Q 3281 4666 3915 4102 
Q 4550 3538 4550 2338 
Q 4550 1131 3912 565 
Q 3275 0 1925 0 
L 628 0 
L 628 4666 
z
" transform="scale(0.015625)"/>
       <path id="DejaVuSans-29" d="M 513 4856 
L 1013 4856 
Q 1481 4119 1714 3412 
Q 1947 2706 1947 2009 
Q 1947 1309 1714 600 
Q 1481 -109 1013 -844 
L 513 -844 
Q 928 -128 1133 580 
Q 1338 1288 1338 2009 
Q 1338 2731 1133 3434 
Q 928 4138 513 4856 
z
" transform="scale(0.015625)"/>
      </defs>
      <use xlink:href="#DejaVuSans-41"/>
      <use xlink:href="#DejaVuSans-76" x="62.533203"/>
      <use xlink:href="#DejaVuSans-65" x="121.712891"/>
      <use xlink:href="#DejaVuSans-72" x="183.236328"/>
      <use xlink:href="#DejaVuSans-61" x="224.349609"/>
      <use xlink:href="#DejaVuSans-67" x="285.628906"/>
      <use xlink:href="#DejaVuSans-65" x="349.105469"/>
      <use xlink:href="#DejaVuSans-20" x="410.628906"/>
      <use xlink:href="#DejaVuSans-28" x="442.416016"/>
      <use xlink:href="#DejaVuSans-44" x="481.429688"/>
      <use xlink:href="#DejaVuSans-65" x="558.431641"/>
      <use xlink:href="#DejaVuSans-66" x="619.955078"/>
      <use xlink:href="#DejaVuSans-61" x="655.160156"/>
      <use xlink:href="#DejaVuSans-75" x="716.439453"/>
      <use xlink:href="#DejaVuSans-6c" x="779.818359"/>
      <use xlink:href="#DejaVuSans-74" x="807.601562"/>
      <use xlink:href="#DejaVuSans-29" x="846.810547"/>
     </g>
    </g>
    <g id="line2d_17">
     <path d="M 66.6 69.248562 
L 76.6 69.248562 
L 86.6 69.248562 
" style="fill: none; stroke-dasharray: 2,3.3; stroke-dashoffset: 0; stroke: #ffa500; stroke-width: 2"/>
    </g>
    <g id="text_18">
     <!-- Average (Anticipation) -->
     <g transform="translate(94.6 72.748562)scale(0.1 -0.1)">
      <defs>
       <path id="DejaVuSans-63" d="M 3122 3366 
L 3122 2828 
Q 2878 2963 2633 3030 
Q 2388 3097 2138 3097 
Q 1578 3097 1268 2742 
Q 959 2388 959 1747 
Q 959 1106 1268 751 
Q 1578 397 2138 397 
Q 2388 397 2633 464 
Q 2878 531 3122 666 
L 3122 134 
Q 2881 22 2623 -34 
Q 2366 -91 2075 -91 
Q 1284 -91 818 406 
Q 353 903 353 1747 
Q 353 2603 823 3093 
Q 1294 3584 2113 3584 
Q 2378 3584 2631 3529 
Q 2884 3475 3122 3366 
z
" transform="scale(0.015625)"/>
       <path id="DejaVuSans-70" d="M 1159 525 
L 1159 -1331 
L 581 -1331 
L 581 3500 
L 1159 3500 
L 1159 2969 
Q 1341 3281 1617 3432 
Q 1894 3584 2278 3584 
Q 2916 3584 3314 3078 
Q 3713 2572 3713 1747 
Q 3713 922 3314 415 
Q 2916 -91 2278 -91 
Q 1894 -91 1617 61 
Q 1341 213 1159 525 
z
M 3116 1747 
Q 3116 2381 2855 2742 
Q 2594 3103 2138 3103 
Q 1681 3103 1420 2742 
Q 1159 2381 1159 1747 
Q 1159 1113 1420 752 
Q 1681 391 2138 391 
Q 2594 391 2855 752 
Q 3116 1113 3116 1747 
z
" transform="scale(0.015625)"/>
      </defs>
      <use xlink:href="#DejaVuSans-41"/>
      <use xlink:href="#DejaVuSans-76" x="62.533203"/>
      <use xlink:href="#DejaVuSans-65" x="121.712891"/>
      <use xlink:href="#DejaVuSans-72" x="183.236328"/>
      <use xlink:href="#DejaVuSans-61" x="224.349609"/>
      <use xlink:href="#DejaVuSans-67" x="285.628906"/>
      <use xlink:href="#DejaVuSans-65" x="349.105469"/>
      <use xlink:href="#DejaVuSans-20" x="410.628906"/>
      <use xlink:href="#DejaVuSans-28" x="442.416016"/>
      <use xlink:href="#DejaVuSans-41" x="481.429688"/>
      <use xlink:href="#DejaVuSans-6e" x="549.837891"/>
      <use xlink:href="#DejaVuSans-74" x="613.216797"/>
      <use xlink:href="#DejaVuSans-69" x="652.425781"/>
      <use xlink:href="#DejaVuSans-63" x="680.208984"/>
      <use xlink:href="#DejaVuSans-69" x="735.189453"/>
      <use xlink:href="#DejaVuSans-70" x="762.972656"/>
      <use xlink:href="#DejaVuSans-61" x="826.449219"/>
      <use xlink:href="#DejaVuSans-74" x="887.728516"/>
      <use xlink:href="#DejaVuSans-69" x="926.9375"/>
      <use xlink:href="#DejaVuSans-6f" x="954.720703"/>
      <use xlink:href="#DejaVuSans-6e" x="1015.902344"/>
      <use xlink:href="#DejaVuSans-29" x="1079.28125"/>
     </g>
    </g>
   </g>
  </g>
 </g>
 <defs>
  <clipPath id="p5030f9a2ec">
   <rect x="57.6" y="41.472" width="357.12" height="266.112"/>
  </clipPath>
 </defs>
</svg>
