<?xml version="1.0" encoding="utf-8" standalone="no"?>
<!DOCTYPE svg PUBLIC "-//W3C//DTD SVG 1.1//EN"
  "http://www.w3.org/Graphics/SVG/1.1/DTD/svg11.dtd">
<svg xmlns:xlink="http://www.w3.org/1999/xlink" width="460.8pt" height="345.6pt" viewBox="0 0 460.8 345.6" xmlns="http://www.w3.org/2000/svg" version="1.1">
 <metadata>
  <rdf:RDF xmlns:dc="http://purl.org/dc/elements/1.1/" xmlns:cc="http://creativecommons.org/ns#" xmlns:rdf="http://www.w3.org/1999/02/22-rdf-syntax-ns#">
   <cc:Work>
    <dc:type rdf:resource="http://purl.org/dc/dcmitype/StillImage"/>
    <dc:date>2022-10-04T13:06:17.550976</dc:date>
    <dc:format>image/svg+xml</dc:format>
    <dc:creator>
     <cc:Agent>
      <dc:title>Matplotlib v3.5.3, https://matplotlib.org/</dc:title>
     </cc:Agent>
    </dc:creator>
   </cc:Work>
  </rdf:RDF>
 </metadata>
 <defs>
  <style type="text/css">*{stroke-linejoin: round; stroke-linecap: butt}</style>
 </defs>
 <g id="figure_1">
  <g id="patch_1">
   <path d="M 0 345.6 
L 460.8 345.6 
L 460.8 0 
L 0 0 
z
" style="fill: #ffffff"/>
  </g>
  <g id="axes_1">
   <g id="patch_2">
    <path d="M 57.6 307.584 
L 414.72 307.584 
L 414.72 41.472 
L 57.6 41.472 
z
" style="fill: #ffffff"/>
   </g>
   <g id="matplotlib.axis_1">
    <g id="xtick_1">
     <g id="line2d_1">
      <defs>
       <path id="m754c993956" d="M 0 0 
L 0 3.5 
" style="stroke: #000000; stroke-width: 0.8"/>
      </defs>
      <g>
       <use xlink:href="#m754c993956" x="73.832727" y="307.584" style="stroke: #000000; stroke-width: 0.8"/>
      </g>
     </g>
     <g id="text_1">
      <!-- 0 -->
      <g transform="translate(70.651477 322.182437)scale(0.1 -0.1)">
       <defs>
        <path id="DejaVuSans-30" d="M 2034 4250 
Q 1547 4250 1301 3770 
Q 1056 3291 1056 2328 
Q 1056 1369 1301 889 
Q 1547 409 2034 409 
Q 2525 409 2770 889 
Q 3016 1369 3016 2328 
Q 3016 3291 2770 3770 
Q 2525 4250 2034 4250 
z
M 2034 4750 
Q 2819 4750 3233 4129 
Q 3647 3509 3647 2328 
Q 3647 1150 3233 529 
Q 2819 -91 2034 -91 
Q 1250 -91 836 529 
Q 422 1150 422 2328 
Q 422 3509 836 4129 
Q 1250 4750 2034 4750 
z
" transform="scale(0.015625)"/>
       </defs>
       <use xlink:href="#DejaVuSans-30"/>
      </g>
     </g>
    </g>
    <g id="xtick_2">
     <g id="line2d_2">
      <g>
       <use xlink:href="#m754c993956" x="138.828632" y="307.584" style="stroke: #000000; stroke-width: 0.8"/>
      </g>
     </g>
     <g id="text_2">
      <!-- 200 -->
      <g transform="translate(129.284882 322.182437)scale(0.1 -0.1)">
       <defs>
        <path id="DejaVuSans-32" d="M 1228 531 
L 3431 531 
L 3431 0 
L 469 0 
L 469 531 
Q 828 903 1448 1529 
Q 2069 2156 2228 2338 
Q 2531 2678 2651 2914 
Q 2772 3150 2772 3378 
Q 2772 3750 2511 3984 
Q 2250 4219 1831 4219 
Q 1534 4219 1204 4116 
Q 875 4013 500 3803 
L 500 4441 
Q 881 4594 1212 4672 
Q 1544 4750 1819 4750 
Q 2544 4750 2975 4387 
Q 3406 4025 3406 3419 
Q 3406 3131 3298 2873 
Q 3191 2616 2906 2266 
Q 2828 2175 2409 1742 
Q 1991 1309 1228 531 
z
" transform="scale(0.015625)"/>
       </defs>
       <use xlink:href="#DejaVuSans-32"/>
       <use xlink:href="#DejaVuSans-30" x="63.623047"/>
       <use xlink:href="#DejaVuSans-30" x="127.246094"/>
      </g>
     </g>
    </g>
    <g id="xtick_3">
     <g id="line2d_3">
      <g>
       <use xlink:href="#m754c993956" x="203.824537" y="307.584" style="stroke: #000000; stroke-width: 0.8"/>
      </g>
     </g>
     <g id="text_3">
      <!-- 400 -->
      <g transform="translate(194.280787 322.182437)scale(0.1 -0.1)">
       <defs>
        <path id="DejaVuSans-34" d="M 2419 4116 
L 825 1625 
L 2419 1625 
L 2419 4116 
z
M 2253 4666 
L 3047 4666 
L 3047 1625 
L 3713 1625 
L 3713 1100 
L 3047 1100 
L 3047 0 
L 2419 0 
L 2419 1100 
L 313 1100 
L 313 1709 
L 2253 4666 
z
" transform="scale(0.015625)"/>
       </defs>
       <use xlink:href="#DejaVuSans-34"/>
       <use xlink:href="#DejaVuSans-30" x="63.623047"/>
       <use xlink:href="#DejaVuSans-30" x="127.246094"/>
      </g>
     </g>
    </g>
    <g id="xtick_4">
     <g id="line2d_4">
      <g>
       <use xlink:href="#m754c993956" x="268.820442" y="307.584" style="stroke: #000000; stroke-width: 0.8"/>
      </g>
     </g>
     <g id="text_4">
      <!-- 600 -->
      <g transform="translate(259.276692 322.182437)scale(0.1 -0.1)">
       <defs>
        <path id="DejaVuSans-36" d="M 2113 2584 
Q 1688 2584 1439 2293 
Q 1191 2003 1191 1497 
Q 1191 994 1439 701 
Q 1688 409 2113 409 
Q 2538 409 2786 701 
Q 3034 994 3034 1497 
Q 3034 2003 2786 2293 
Q 2538 2584 2113 2584 
z
M 3366 4563 
L 3366 3988 
Q 3128 4100 2886 4159 
Q 2644 4219 2406 4219 
Q 1781 4219 1451 3797 
Q 1122 3375 1075 2522 
Q 1259 2794 1537 2939 
Q 1816 3084 2150 3084 
Q 2853 3084 3261 2657 
Q 3669 2231 3669 1497 
Q 3669 778 3244 343 
Q 2819 -91 2113 -91 
Q 1303 -91 875 529 
Q 447 1150 447 2328 
Q 447 3434 972 4092 
Q 1497 4750 2381 4750 
Q 2619 4750 2861 4703 
Q 3103 4656 3366 4563 
z
" transform="scale(0.015625)"/>
       </defs>
       <use xlink:href="#DejaVuSans-36"/>
       <use xlink:href="#DejaVuSans-30" x="63.623047"/>
       <use xlink:href="#DejaVuSans-30" x="127.246094"/>
      </g>
     </g>
    </g>
    <g id="xtick_5">
     <g id="line2d_5">
      <g>
       <use xlink:href="#m754c993956" x="333.816347" y="307.584" style="stroke: #000000; stroke-width: 0.8"/>
      </g>
     </g>
     <g id="text_5">
      <!-- 800 -->
      <g transform="translate(324.272597 322.182437)scale(0.1 -0.1)">
       <defs>
        <path id="DejaVuSans-38" d="M 2034 2216 
Q 1584 2216 1326 1975 
Q 1069 1734 1069 1313 
Q 1069 891 1326 650 
Q 1584 409 2034 409 
Q 2484 409 2743 651 
Q 3003 894 3003 1313 
Q 3003 1734 2745 1975 
Q 2488 2216 2034 2216 
z
M 1403 2484 
Q 997 2584 770 2862 
Q 544 3141 544 3541 
Q 544 4100 942 4425 
Q 1341 4750 2034 4750 
Q 2731 4750 3128 4425 
Q 3525 4100 3525 3541 
Q 3525 3141 3298 2862 
Q 3072 2584 2669 2484 
Q 3125 2378 3379 2068 
Q 3634 1759 3634 1313 
Q 3634 634 3220 271 
Q 2806 -91 2034 -91 
Q 1263 -91 848 271 
Q 434 634 434 1313 
Q 434 1759 690 2068 
Q 947 2378 1403 2484 
z
M 1172 3481 
Q 1172 3119 1398 2916 
Q 1625 2713 2034 2713 
Q 2441 2713 2670 2916 
Q 2900 3119 2900 3481 
Q 2900 3844 2670 4047 
Q 2441 4250 2034 4250 
Q 1625 4250 1398 4047 
Q 1172 3844 1172 3481 
z
" transform="scale(0.015625)"/>
       </defs>
       <use xlink:href="#DejaVuSans-38"/>
       <use xlink:href="#DejaVuSans-30" x="63.623047"/>
       <use xlink:href="#DejaVuSans-30" x="127.246094"/>
      </g>
     </g>
    </g>
    <g id="xtick_6">
     <g id="line2d_6">
      <g>
       <use xlink:href="#m754c993956" x="398.812252" y="307.584" style="stroke: #000000; stroke-width: 0.8"/>
      </g>
     </g>
     <g id="text_6">
      <!-- 1000 -->
      <g transform="translate(386.087252 322.182437)scale(0.1 -0.1)">
       <defs>
        <path id="DejaVuSans-31" d="M 794 531 
L 1825 531 
L 1825 4091 
L 703 3866 
L 703 4441 
L 1819 4666 
L 2450 4666 
L 2450 531 
L 3481 531 
L 3481 0 
L 794 0 
L 794 531 
z
" transform="scale(0.015625)"/>
       </defs>
       <use xlink:href="#DejaVuSans-31"/>
       <use xlink:href="#DejaVuSans-30" x="63.623047"/>
       <use xlink:href="#DejaVuSans-30" x="127.246094"/>
       <use xlink:href="#DejaVuSans-30" x="190.869141"/>
      </g>
     </g>
    </g>
    <g id="text_7">
     <!-- Number of Orders -->
     <g transform="translate(191.261562 335.860562)scale(0.1 -0.1)">
      <defs>
       <path id="DejaVuSans-4e" d="M 628 4666 
L 1478 4666 
L 3547 763 
L 3547 4666 
L 4159 4666 
L 4159 0 
L 3309 0 
L 1241 3903 
L 1241 0 
L 628 0 
L 628 4666 
z
" transform="scale(0.015625)"/>
       <path id="DejaVuSans-75" d="M 544 1381 
L 544 3500 
L 1119 3500 
L 1119 1403 
Q 1119 906 1312 657 
Q 1506 409 1894 409 
Q 2359 409 2629 706 
Q 2900 1003 2900 1516 
L 2900 3500 
L 3475 3500 
L 3475 0 
L 2900 0 
L 2900 538 
Q 2691 219 2414 64 
Q 2138 -91 1772 -91 
Q 1169 -91 856 284 
Q 544 659 544 1381 
z
M 1991 3584 
L 1991 3584 
z
" transform="scale(0.015625)"/>
       <path id="DejaVuSans-6d" d="M 3328 2828 
Q 3544 3216 3844 3400 
Q 4144 3584 4550 3584 
Q 5097 3584 5394 3201 
Q 5691 2819 5691 2113 
L 5691 0 
L 5113 0 
L 5113 2094 
Q 5113 2597 4934 2840 
Q 4756 3084 4391 3084 
Q 3944 3084 3684 2787 
Q 3425 2491 3425 1978 
L 3425 0 
L 2847 0 
L 2847 2094 
Q 2847 2600 2669 2842 
Q 2491 3084 2119 3084 
Q 1678 3084 1418 2786 
Q 1159 2488 1159 1978 
L 1159 0 
L 581 0 
L 581 3500 
L 1159 3500 
L 1159 2956 
Q 1356 3278 1631 3431 
Q 1906 3584 2284 3584 
Q 2666 3584 2933 3390 
Q 3200 3197 3328 2828 
z
" transform="scale(0.015625)"/>
       <path id="DejaVuSans-62" d="M 3116 1747 
Q 3116 2381 2855 2742 
Q 2594 3103 2138 3103 
Q 1681 3103 1420 2742 
Q 1159 2381 1159 1747 
Q 1159 1113 1420 752 
Q 1681 391 2138 391 
Q 2594 391 2855 752 
Q 3116 1113 3116 1747 
z
M 1159 2969 
Q 1341 3281 1617 3432 
Q 1894 3584 2278 3584 
Q 2916 3584 3314 3078 
Q 3713 2572 3713 1747 
Q 3713 922 3314 415 
Q 2916 -91 2278 -91 
Q 1894 -91 1617 61 
Q 1341 213 1159 525 
L 1159 0 
L 581 0 
L 581 4863 
L 1159 4863 
L 1159 2969 
z
" transform="scale(0.015625)"/>
       <path id="DejaVuSans-65" d="M 3597 1894 
L 3597 1613 
L 953 1613 
Q 991 1019 1311 708 
Q 1631 397 2203 397 
Q 2534 397 2845 478 
Q 3156 559 3463 722 
L 3463 178 
Q 3153 47 2828 -22 
Q 2503 -91 2169 -91 
Q 1331 -91 842 396 
Q 353 884 353 1716 
Q 353 2575 817 3079 
Q 1281 3584 2069 3584 
Q 2775 3584 3186 3129 
Q 3597 2675 3597 1894 
z
M 3022 2063 
Q 3016 2534 2758 2815 
Q 2500 3097 2075 3097 
Q 1594 3097 1305 2825 
Q 1016 2553 972 2059 
L 3022 2063 
z
" transform="scale(0.015625)"/>
       <path id="DejaVuSans-72" d="M 2631 2963 
Q 2534 3019 2420 3045 
Q 2306 3072 2169 3072 
Q 1681 3072 1420 2755 
Q 1159 2438 1159 1844 
L 1159 0 
L 581 0 
L 581 3500 
L 1159 3500 
L 1159 2956 
Q 1341 3275 1631 3429 
Q 1922 3584 2338 3584 
Q 2397 3584 2469 3576 
Q 2541 3569 2628 3553 
L 2631 2963 
z
" transform="scale(0.015625)"/>
       <path id="DejaVuSans-20" transform="scale(0.015625)"/>
       <path id="DejaVuSans-6f" d="M 1959 3097 
Q 1497 3097 1228 2736 
Q 959 2375 959 1747 
Q 959 1119 1226 758 
Q 1494 397 1959 397 
Q 2419 397 2687 759 
Q 2956 1122 2956 1747 
Q 2956 2369 2687 2733 
Q 2419 3097 1959 3097 
z
M 1959 3584 
Q 2709 3584 3137 3096 
Q 3566 2609 3566 1747 
Q 3566 888 3137 398 
Q 2709 -91 1959 -91 
Q 1206 -91 779 398 
Q 353 888 353 1747 
Q 353 2609 779 3096 
Q 1206 3584 1959 3584 
z
" transform="scale(0.015625)"/>
       <path id="DejaVuSans-66" d="M 2375 4863 
L 2375 4384 
L 1825 4384 
Q 1516 4384 1395 4259 
Q 1275 4134 1275 3809 
L 1275 3500 
L 2222 3500 
L 2222 3053 
L 1275 3053 
L 1275 0 
L 697 0 
L 697 3053 
L 147 3053 
L 147 3500 
L 697 3500 
L 697 3744 
Q 697 4328 969 4595 
Q 1241 4863 1831 4863 
L 2375 4863 
z
" transform="scale(0.015625)"/>
       <path id="DejaVuSans-4f" d="M 2522 4238 
Q 1834 4238 1429 3725 
Q 1025 3213 1025 2328 
Q 1025 1447 1429 934 
Q 1834 422 2522 422 
Q 3209 422 3611 934 
Q 4013 1447 4013 2328 
Q 4013 3213 3611 3725 
Q 3209 4238 2522 4238 
z
M 2522 4750 
Q 3503 4750 4090 4092 
Q 4678 3434 4678 2328 
Q 4678 1225 4090 567 
Q 3503 -91 2522 -91 
Q 1538 -91 948 565 
Q 359 1222 359 2328 
Q 359 3434 948 4092 
Q 1538 4750 2522 4750 
z
" transform="scale(0.015625)"/>
       <path id="DejaVuSans-64" d="M 2906 2969 
L 2906 4863 
L 3481 4863 
L 3481 0 
L 2906 0 
L 2906 525 
Q 2725 213 2448 61 
Q 2172 -91 1784 -91 
Q 1150 -91 751 415 
Q 353 922 353 1747 
Q 353 2572 751 3078 
Q 1150 3584 1784 3584 
Q 2172 3584 2448 3432 
Q 2725 3281 2906 2969 
z
M 947 1747 
Q 947 1113 1208 752 
Q 1469 391 1925 391 
Q 2381 391 2643 752 
Q 2906 1113 2906 1747 
Q 2906 2381 2643 2742 
Q 2381 3103 1925 3103 
Q 1469 3103 1208 2742 
Q 947 2381 947 1747 
z
" transform="scale(0.015625)"/>
       <path id="DejaVuSans-73" d="M 2834 3397 
L 2834 2853 
Q 2591 2978 2328 3040 
Q 2066 3103 1784 3103 
Q 1356 3103 1142 2972 
Q 928 2841 928 2578 
Q 928 2378 1081 2264 
Q 1234 2150 1697 2047 
L 1894 2003 
Q 2506 1872 2764 1633 
Q 3022 1394 3022 966 
Q 3022 478 2636 193 
Q 2250 -91 1575 -91 
Q 1294 -91 989 -36 
Q 684 19 347 128 
L 347 722 
Q 666 556 975 473 
Q 1284 391 1588 391 
Q 1994 391 2212 530 
Q 2431 669 2431 922 
Q 2431 1156 2273 1281 
Q 2116 1406 1581 1522 
L 1381 1569 
Q 847 1681 609 1914 
Q 372 2147 372 2553 
Q 372 3047 722 3315 
Q 1072 3584 1716 3584 
Q 2034 3584 2315 3537 
Q 2597 3491 2834 3397 
z
" transform="scale(0.015625)"/>
      </defs>
      <use xlink:href="#DejaVuSans-4e"/>
      <use xlink:href="#DejaVuSans-75" x="74.804688"/>
      <use xlink:href="#DejaVuSans-6d" x="138.183594"/>
      <use xlink:href="#DejaVuSans-62" x="235.595703"/>
      <use xlink:href="#DejaVuSans-65" x="299.072266"/>
      <use xlink:href="#DejaVuSans-72" x="360.595703"/>
      <use xlink:href="#DejaVuSans-20" x="401.708984"/>
      <use xlink:href="#DejaVuSans-6f" x="433.496094"/>
      <use xlink:href="#DejaVuSans-66" x="494.677734"/>
      <use xlink:href="#DejaVuSans-20" x="529.882812"/>
      <use xlink:href="#DejaVuSans-4f" x="561.669922"/>
      <use xlink:href="#DejaVuSans-72" x="640.380859"/>
      <use xlink:href="#DejaVuSans-64" x="679.744141"/>
      <use xlink:href="#DejaVuSans-65" x="743.220703"/>
      <use xlink:href="#DejaVuSans-72" x="804.744141"/>
      <use xlink:href="#DejaVuSans-73" x="845.857422"/>
     </g>
    </g>
   </g>
   <g id="matplotlib.axis_2">
    <g id="ytick_1">
     <g id="line2d_7">
      <defs>
       <path id="m8b70f96770" d="M 0 0 
L -3.5 0 
" style="stroke: #000000; stroke-width: 0.8"/>
      </defs>
      <g>
       <use xlink:href="#m8b70f96770" x="57.6" y="298.713605" style="stroke: #000000; stroke-width: 0.8"/>
      </g>
     </g>
     <g id="text_8">
      <!-- 1250 -->
      <g transform="translate(25.15 302.512823)scale(0.1 -0.1)">
       <defs>
        <path id="DejaVuSans-35" d="M 691 4666 
L 3169 4666 
L 3169 4134 
L 1269 4134 
L 1269 2991 
Q 1406 3038 1543 3061 
Q 1681 3084 1819 3084 
Q 2600 3084 3056 2656 
Q 3513 2228 3513 1497 
Q 3513 744 3044 326 
Q 2575 -91 1722 -91 
Q 1428 -91 1123 -41 
Q 819 9 494 109 
L 494 744 
Q 775 591 1075 516 
Q 1375 441 1709 441 
Q 2250 441 2565 725 
Q 2881 1009 2881 1497 
Q 2881 1984 2565 2268 
Q 2250 2553 1709 2553 
Q 1456 2553 1204 2497 
Q 953 2441 691 2322 
L 691 4666 
z
" transform="scale(0.015625)"/>
       </defs>
       <use xlink:href="#DejaVuSans-31"/>
       <use xlink:href="#DejaVuSans-32" x="63.623047"/>
       <use xlink:href="#DejaVuSans-35" x="127.246094"/>
       <use xlink:href="#DejaVuSans-30" x="190.869141"/>
      </g>
     </g>
    </g>
    <g id="ytick_2">
     <g id="line2d_8">
      <g>
       <use xlink:href="#m8b70f96770" x="57.6" y="265.158804" style="stroke: #000000; stroke-width: 0.8"/>
      </g>
     </g>
     <g id="text_9">
      <!-- 1500 -->
      <g transform="translate(25.15 268.958022)scale(0.1 -0.1)">
       <use xlink:href="#DejaVuSans-31"/>
       <use xlink:href="#DejaVuSans-35" x="63.623047"/>
       <use xlink:href="#DejaVuSans-30" x="127.246094"/>
       <use xlink:href="#DejaVuSans-30" x="190.869141"/>
      </g>
     </g>
    </g>
    <g id="ytick_3">
     <g id="line2d_9">
      <g>
       <use xlink:href="#m8b70f96770" x="57.6" y="231.604003" style="stroke: #000000; stroke-width: 0.8"/>
      </g>
     </g>
     <g id="text_10">
      <!-- 1750 -->
      <g transform="translate(25.15 235.403221)scale(0.1 -0.1)">
       <defs>
        <path id="DejaVuSans-37" d="M 525 4666 
L 3525 4666 
L 3525 4397 
L 1831 0 
L 1172 0 
L 2766 4134 
L 525 4134 
L 525 4666 
z
" transform="scale(0.015625)"/>
       </defs>
       <use xlink:href="#DejaVuSans-31"/>
       <use xlink:href="#DejaVuSans-37" x="63.623047"/>
       <use xlink:href="#DejaVuSans-35" x="127.246094"/>
       <use xlink:href="#DejaVuSans-30" x="190.869141"/>
      </g>
     </g>
    </g>
    <g id="ytick_4">
     <g id="line2d_10">
      <g>
       <use xlink:href="#m8b70f96770" x="57.6" y="198.049202" style="stroke: #000000; stroke-width: 0.8"/>
      </g>
     </g>
     <g id="text_11">
      <!-- 2000 -->
      <g transform="translate(25.15 201.84842)scale(0.1 -0.1)">
       <use xlink:href="#DejaVuSans-32"/>
       <use xlink:href="#DejaVuSans-30" x="63.623047"/>
       <use xlink:href="#DejaVuSans-30" x="127.246094"/>
       <use xlink:href="#DejaVuSans-30" x="190.869141"/>
      </g>
     </g>
    </g>
    <g id="ytick_5">
     <g id="line2d_11">
      <g>
       <use xlink:href="#m8b70f96770" x="57.6" y="164.4944" style="stroke: #000000; stroke-width: 0.8"/>
      </g>
     </g>
     <g id="text_12">
      <!-- 2250 -->
      <g transform="translate(25.15 168.293619)scale(0.1 -0.1)">
       <use xlink:href="#DejaVuSans-32"/>
       <use xlink:href="#DejaVuSans-32" x="63.623047"/>
       <use xlink:href="#DejaVuSans-35" x="127.246094"/>
       <use xlink:href="#DejaVuSans-30" x="190.869141"/>
      </g>
     </g>
    </g>
    <g id="ytick_6">
     <g id="line2d_12">
      <g>
       <use xlink:href="#m8b70f96770" x="57.6" y="130.939599" style="stroke: #000000; stroke-width: 0.8"/>
      </g>
     </g>
     <g id="text_13">
      <!-- 2500 -->
      <g transform="translate(25.15 134.738818)scale(0.1 -0.1)">
       <use xlink:href="#DejaVuSans-32"/>
       <use xlink:href="#DejaVuSans-35" x="63.623047"/>
       <use xlink:href="#DejaVuSans-30" x="127.246094"/>
       <use xlink:href="#DejaVuSans-30" x="190.869141"/>
      </g>
     </g>
    </g>
    <g id="ytick_7">
     <g id="line2d_13">
      <g>
       <use xlink:href="#m8b70f96770" x="57.6" y="97.384798" style="stroke: #000000; stroke-width: 0.8"/>
      </g>
     </g>
     <g id="text_14">
      <!-- 2750 -->
      <g transform="translate(25.15 101.184017)scale(0.1 -0.1)">
       <use xlink:href="#DejaVuSans-32"/>
       <use xlink:href="#DejaVuSans-37" x="63.623047"/>
       <use xlink:href="#DejaVuSans-35" x="127.246094"/>
       <use xlink:href="#DejaVuSans-30" x="190.869141"/>
      </g>
     </g>
    </g>
    <g id="ytick_8">
     <g id="line2d_14">
      <g>
       <use xlink:href="#m8b70f96770" x="57.6" y="63.829997" style="stroke: #000000; stroke-width: 0.8"/>
      </g>
     </g>
     <g id="text_15">
      <!-- 3000 -->
      <g transform="translate(25.15 67.629216)scale(0.1 -0.1)">
       <defs>
        <path id="DejaVuSans-33" d="M 2597 2516 
Q 3050 2419 3304 2112 
Q 3559 1806 3559 1356 
Q 3559 666 3084 287 
Q 2609 -91 1734 -91 
Q 1441 -91 1130 -33 
Q 819 25 488 141 
L 488 750 
Q 750 597 1062 519 
Q 1375 441 1716 441 
Q 2309 441 2620 675 
Q 2931 909 2931 1356 
Q 2931 1769 2642 2001 
Q 2353 2234 1838 2234 
L 1294 2234 
L 1294 2753 
L 1863 2753 
Q 2328 2753 2575 2939 
Q 2822 3125 2822 3475 
Q 2822 3834 2567 4026 
Q 2313 4219 1838 4219 
Q 1578 4219 1281 4162 
Q 984 4106 628 3988 
L 628 4550 
Q 988 4650 1302 4700 
Q 1616 4750 1894 4750 
Q 2613 4750 3031 4423 
Q 3450 4097 3450 3541 
Q 3450 3153 3228 2886 
Q 3006 2619 2597 2516 
z
" transform="scale(0.015625)"/>
       </defs>
       <use xlink:href="#DejaVuSans-33"/>
       <use xlink:href="#DejaVuSans-30" x="63.623047"/>
       <use xlink:href="#DejaVuSans-30" x="127.246094"/>
       <use xlink:href="#DejaVuSans-30" x="190.869141"/>
      </g>
     </g>
    </g>
    <g id="text_16">
     <!-- Waiting Time/s -->
     <g transform="translate(19.070312 211.410031)rotate(-90)scale(0.1 -0.1)">
      <defs>
       <path id="DejaVuSans-57" d="M 213 4666 
L 850 4666 
L 1831 722 
L 2809 4666 
L 3519 4666 
L 4500 722 
L 5478 4666 
L 6119 4666 
L 4947 0 
L 4153 0 
L 3169 4050 
L 2175 0 
L 1381 0 
L 213 4666 
z
" transform="scale(0.015625)"/>
       <path id="DejaVuSans-61" d="M 2194 1759 
Q 1497 1759 1228 1600 
Q 959 1441 959 1056 
Q 959 750 1161 570 
Q 1363 391 1709 391 
Q 2188 391 2477 730 
Q 2766 1069 2766 1631 
L 2766 1759 
L 2194 1759 
z
M 3341 1997 
L 3341 0 
L 2766 0 
L 2766 531 
Q 2569 213 2275 61 
Q 1981 -91 1556 -91 
Q 1019 -91 701 211 
Q 384 513 384 1019 
Q 384 1609 779 1909 
Q 1175 2209 1959 2209 
L 2766 2209 
L 2766 2266 
Q 2766 2663 2505 2880 
Q 2244 3097 1772 3097 
Q 1472 3097 1187 3025 
Q 903 2953 641 2809 
L 641 3341 
Q 956 3463 1253 3523 
Q 1550 3584 1831 3584 
Q 2591 3584 2966 3190 
Q 3341 2797 3341 1997 
z
" transform="scale(0.015625)"/>
       <path id="DejaVuSans-69" d="M 603 3500 
L 1178 3500 
L 1178 0 
L 603 0 
L 603 3500 
z
M 603 4863 
L 1178 4863 
L 1178 4134 
L 603 4134 
L 603 4863 
z
" transform="scale(0.015625)"/>
       <path id="DejaVuSans-74" d="M 1172 4494 
L 1172 3500 
L 2356 3500 
L 2356 3053 
L 1172 3053 
L 1172 1153 
Q 1172 725 1289 603 
Q 1406 481 1766 481 
L 2356 481 
L 2356 0 
L 1766 0 
Q 1100 0 847 248 
Q 594 497 594 1153 
L 594 3053 
L 172 3053 
L 172 3500 
L 594 3500 
L 594 4494 
L 1172 4494 
z
" transform="scale(0.015625)"/>
       <path id="DejaVuSans-6e" d="M 3513 2113 
L 3513 0 
L 2938 0 
L 2938 2094 
Q 2938 2591 2744 2837 
Q 2550 3084 2163 3084 
Q 1697 3084 1428 2787 
Q 1159 2491 1159 1978 
L 1159 0 
L 581 0 
L 581 3500 
L 1159 3500 
L 1159 2956 
Q 1366 3272 1645 3428 
Q 1925 3584 2291 3584 
Q 2894 3584 3203 3211 
Q 3513 2838 3513 2113 
z
" transform="scale(0.015625)"/>
       <path id="DejaVuSans-67" d="M 2906 1791 
Q 2906 2416 2648 2759 
Q 2391 3103 1925 3103 
Q 1463 3103 1205 2759 
Q 947 2416 947 1791 
Q 947 1169 1205 825 
Q 1463 481 1925 481 
Q 2391 481 2648 825 
Q 2906 1169 2906 1791 
z
M 3481 434 
Q 3481 -459 3084 -895 
Q 2688 -1331 1869 -1331 
Q 1566 -1331 1297 -1286 
Q 1028 -1241 775 -1147 
L 775 -588 
Q 1028 -725 1275 -790 
Q 1522 -856 1778 -856 
Q 2344 -856 2625 -561 
Q 2906 -266 2906 331 
L 2906 616 
Q 2728 306 2450 153 
Q 2172 0 1784 0 
Q 1141 0 747 490 
Q 353 981 353 1791 
Q 353 2603 747 3093 
Q 1141 3584 1784 3584 
Q 2172 3584 2450 3431 
Q 2728 3278 2906 2969 
L 2906 3500 
L 3481 3500 
L 3481 434 
z
" transform="scale(0.015625)"/>
       <path id="DejaVuSans-54" d="M -19 4666 
L 3928 4666 
L 3928 4134 
L 2272 4134 
L 2272 0 
L 1638 0 
L 1638 4134 
L -19 4134 
L -19 4666 
z
" transform="scale(0.015625)"/>
       <path id="DejaVuSans-2f" d="M 1625 4666 
L 2156 4666 
L 531 -594 
L 0 -594 
L 1625 4666 
z
" transform="scale(0.015625)"/>
      </defs>
      <use xlink:href="#DejaVuSans-57"/>
      <use xlink:href="#DejaVuSans-61" x="92.501953"/>
      <use xlink:href="#DejaVuSans-69" x="153.78125"/>
      <use xlink:href="#DejaVuSans-74" x="181.564453"/>
      <use xlink:href="#DejaVuSans-69" x="220.773438"/>
      <use xlink:href="#DejaVuSans-6e" x="248.556641"/>
      <use xlink:href="#DejaVuSans-67" x="311.935547"/>
      <use xlink:href="#DejaVuSans-20" x="375.412109"/>
      <use xlink:href="#DejaVuSans-54" x="407.199219"/>
      <use xlink:href="#DejaVuSans-69" x="465.158203"/>
      <use xlink:href="#DejaVuSans-6d" x="492.941406"/>
      <use xlink:href="#DejaVuSans-65" x="590.353516"/>
      <use xlink:href="#DejaVuSans-2f" x="651.876953"/>
      <use xlink:href="#DejaVuSans-73" x="685.568359"/>
     </g>
    </g>
   </g>
   <g id="line2d_15">
    <path d="M 73.832727 295.488 
L 74.157707 249.587664 
L 74.482686 242.369807 
L 75.132645 220.753789 
L 75.457625 216.698676 
L 75.782604 211.035247 
L 76.432563 180.202181 
L 76.757543 189.587238 
L 77.082523 179.115086 
L 77.407502 173.185389 
L 78.057461 156.501051 
L 78.382441 160.629485 
L 79.0324 144.239608 
L 79.357379 140.99118 
L 80.007338 123.972047 
L 80.332318 126.048148 
L 80.657297 120.886604 
L 81.307256 133.02664 
L 81.957215 117.635259 
L 82.282195 115.656542 
L 82.607174 107.827056 
L 82.932154 106.343488 
L 83.257133 106.410811 
L 83.582113 104.396328 
L 83.907093 103.165419 
L 84.232072 99.715148 
L 84.557052 103.329571 
L 84.882031 103.55479 
L 85.207011 105.495974 
L 85.53199 97.617209 
L 85.85697 101.143772 
L 86.181949 97.336124 
L 86.506929 100.157579 
L 86.831908 94.160629 
L 87.156888 96.793206 
L 87.481867 101.277523 
L 87.806847 99.903267 
L 88.131826 103.69198 
L 88.456806 101.249822 
L 88.781785 102.557732 
L 89.431744 109.186204 
L 89.756724 109.864852 
L 90.081704 111.430592 
L 90.731663 108.453542 
L 91.056642 111.666993 
L 91.381622 109.704183 
L 91.706601 106.565632 
L 92.031581 108.001739 
L 92.35656 103.348893 
L 92.68154 104.42791 
L 93.006519 103.552927 
L 93.331499 104.291644 
L 93.656478 103.65515 
L 93.981458 104.069828 
L 94.306437 103.318133 
L 94.956396 96.99376 
L 95.281376 96.656669 
L 95.606355 97.602637 
L 95.931335 96.331166 
L 96.256314 95.675091 
L 96.581294 97.21255 
L 96.906274 96.096244 
L 97.231253 98.301754 
L 97.556233 99.428882 
L 98.206192 103.250627 
L 98.531171 100.978526 
L 98.856151 99.77745 
L 99.18113 100.908468 
L 99.50611 99.398796 
L 99.831089 99.198307 
L 100.156069 100.27981 
L 100.481048 96.797099 
L 100.806028 97.491816 
L 101.455987 100.615834 
L 101.780966 99.864944 
L 102.430925 97.27366 
L 102.755905 99.971852 
L 103.080885 100.00053 
L 103.405864 99.320003 
L 103.730844 98.101526 
L 104.055823 98.629595 
L 104.380803 98.782788 
L 104.705782 98.31269 
L 105.030762 100.797367 
L 105.355741 100.214321 
L 105.680721 98.317822 
L 106.0057 97.286959 
L 106.33068 97.945017 
L 106.655659 96.524689 
L 106.980639 92.658698 
L 107.305618 91.534231 
L 107.630598 92.510474 
L 108.280557 87.92958 
L 108.605536 88.29691 
L 108.930516 86.64134 
L 109.255495 86.999635 
L 109.580475 85.933143 
L 109.905455 87.688464 
L 110.555414 87.348133 
L 111.205373 85.408517 
L 111.530352 86.039312 
L 111.855332 85.22409 
L 112.180311 86.377912 
L 112.505291 85.844539 
L 112.83027 86.103718 
L 113.15525 87.0225 
L 113.480229 86.864767 
L 113.805209 85.411221 
L 114.130188 83.257189 
L 114.455168 83.496666 
L 115.430106 80.839576 
L 115.755086 79.366534 
L 116.080066 80.45594 
L 116.405045 81.992941 
L 116.730025 82.79461 
L 117.055004 81.433239 
L 117.379984 81.838842 
L 117.704963 81.180184 
L 118.354922 83.49807 
L 118.679902 83.020656 
L 119.004881 83.408378 
L 119.329861 83.213116 
L 119.65484 82.22595 
L 119.97982 80.150472 
L 120.954758 71.417229 
L 121.279738 69.463978 
L 121.604717 70.248662 
L 121.929697 69.140544 
L 122.254676 69.709507 
L 122.904636 69.543249 
L 123.229615 70.613635 
L 123.554595 72.155865 
L 123.879574 71.556106 
L 124.204554 70.517541 
L 124.529533 70.094751 
L 124.854513 69.179442 
L 125.179492 70.130315 
L 125.504472 69.446207 
L 125.829451 70.018655 
L 126.154431 69.352774 
L 126.47941 70.195981 
L 126.80439 69.835712 
L 127.129369 69.889472 
L 127.454349 68.999867 
L 127.779328 69.539941 
L 128.104308 70.515744 
L 128.754267 70.259061 
L 129.404226 68.727537 
L 129.729206 69.343515 
L 130.054185 68.15319 
L 130.379165 68.620013 
L 130.704144 67.802428 
L 131.029124 68.978367 
L 132.004062 70.12381 
L 132.329042 69.883403 
L 132.654021 69.319176 
L 132.979001 69.618175 
L 133.30398 70.37611 
L 133.62896 70.615571 
L 134.278919 70.105213 
L 134.603898 71.060766 
L 134.928878 71.338075 
L 135.253857 71.352523 
L 135.578837 70.544498 
L 136.553776 73.064138 
L 136.878755 72.412334 
L 137.528714 70.416588 
L 137.853694 70.304789 
L 138.178673 71.022855 
L 138.503653 70.899755 
L 138.828632 69.724213 
L 139.153612 69.132071 
L 139.478591 69.273039 
L 139.803571 69.075647 
L 140.12855 67.973303 
L 140.45353 67.780221 
L 141.103489 69.859803 
L 141.428468 69.831229 
L 141.753448 70.428463 
L 143.053366 74.420634 
L 143.703325 72.012864 
L 144.028305 72.197576 
L 144.678264 70.528973 
L 145.003243 70.933701 
L 145.328223 69.935384 
L 145.978182 69.579275 
L 146.303161 69.909358 
L 146.628141 69.339146 
L 146.95312 69.402371 
L 147.2781 70.799607 
L 147.603079 70.479232 
L 147.928059 69.932212 
L 148.253038 70.468044 
L 148.578018 70.761161 
L 148.902998 70.081403 
L 149.227977 70.128009 
L 149.552957 70.341204 
L 149.877936 68.981497 
L 150.202916 69.577106 
L 150.852875 69.654255 
L 151.177854 70.347196 
L 151.827813 67.515427 
L 152.152793 68.007073 
L 152.477772 68.210856 
L 153.127731 68.140654 
L 153.452711 67.962997 
L 153.77769 68.43057 
L 154.10267 68.549689 
L 154.427649 67.853127 
L 154.752629 68.0012 
L 155.077609 69.144261 
L 155.727568 70.405287 
L 156.052547 70.579804 
L 156.702506 70.276132 
L 157.027486 70.513686 
L 157.352465 68.726294 
L 157.677445 69.659174 
L 158.002424 69.191481 
L 158.327404 68.153932 
L 158.652383 68.887899 
L 158.977363 68.690947 
L 159.627322 69.685965 
L 159.952301 70.212498 
L 160.277281 69.580822 
L 160.60226 69.419784 
L 160.92724 69.967297 
L 161.252219 70.045067 
L 161.577199 69.273791 
L 161.902179 69.369671 
L 162.227158 69.598926 
L 162.552138 69.489046 
L 162.877117 69.233206 
L 163.202097 69.721681 
L 163.527076 70.471436 
L 164.177035 71.425748 
L 164.502015 71.382509 
L 165.151974 72.618987 
L 165.476953 72.375794 
L 165.801933 72.314191 
L 166.451892 71.829259 
L 167.101851 73.145893 
L 168.07679 73.469405 
L 168.401769 73.068838 
L 168.726749 72.392941 
L 169.051728 71.249544 
L 169.376708 71.021497 
L 169.701687 70.970594 
L 170.026667 69.55263 
L 170.351646 69.998236 
L 170.676626 70.221407 
L 171.001605 69.972613 
L 171.326585 70.161762 
L 171.651564 70.105347 
L 171.976544 69.837884 
L 172.626503 71.170082 
L 172.951482 71.490947 
L 173.276462 72.164309 
L 173.601441 71.57533 
L 173.926421 71.557251 
L 174.2514 71.734899 
L 174.57638 72.23769 
L 174.90136 71.678791 
L 175.226339 72.210936 
L 175.551319 71.596921 
L 175.876298 70.3823 
L 176.201278 70.166004 
L 176.526257 69.319573 
L 176.851237 69.009817 
L 177.176216 69.026042 
L 178.151155 70.295777 
L 178.476134 70.18621 
L 178.801114 70.651284 
L 179.126093 70.344128 
L 179.451073 70.344983 
L 180.101032 69.042029 
L 180.426011 69.003117 
L 181.075971 67.906339 
L 181.40095 67.93131 
L 181.72593 67.564285 
L 182.050909 67.610208 
L 182.375889 67.798012 
L 182.700868 67.633346 
L 183.025848 66.696074 
L 183.675807 67.737736 
L 184.000786 67.354644 
L 184.325766 67.78863 
L 184.975725 66.470648 
L 185.300704 66.997334 
L 185.625684 67.223971 
L 185.950663 66.154539 
L 186.275643 66.459166 
L 186.600622 66.243328 
L 186.925602 66.606291 
L 187.575561 66.676845 
L 187.900541 66.251271 
L 188.22552 66.116613 
L 188.5505 66.259992 
L 188.875479 65.882739 
L 189.200459 64.970126 
L 189.525438 65.0063 
L 189.850418 65.50123 
L 190.175397 65.208078 
L 190.500377 65.795747 
L 190.825356 65.844564 
L 191.150336 65.69642 
L 191.800295 66.723191 
L 192.125274 66.44875 
L 192.450254 66.733957 
L 192.775233 66.534058 
L 193.100213 66.934226 
L 193.425192 66.586534 
L 193.750172 66.809069 
L 194.075152 67.378346 
L 194.725111 66.622597 
L 195.05009 66.148342 
L 195.37507 66.57971 
L 195.700049 66.273052 
L 196.350008 67.17876 
L 196.674988 66.919193 
L 196.999967 66.928864 
L 197.974906 68.418874 
L 198.624865 68.426321 
L 198.949844 68.767959 
L 199.599803 67.846821 
L 199.924783 68.457522 
L 200.249762 68.822758 
L 200.899722 70.258861 
L 201.224701 70.705975 
L 201.549681 70.513161 
L 201.87466 69.708694 
L 202.19964 69.427874 
L 202.524619 69.732765 
L 202.849599 69.159267 
L 203.174578 68.897661 
L 203.499558 69.156361 
L 204.149517 68.678515 
L 204.799476 68.000472 
L 205.124455 67.691656 
L 205.449435 67.945311 
L 205.774414 67.855681 
L 206.099394 68.198303 
L 206.424373 68.210864 
L 206.749353 68.597867 
L 207.074333 68.408309 
L 208.049271 66.475646 
L 208.69923 66.574939 
L 209.674169 67.534567 
L 209.999148 67.875441 
L 210.324128 67.701107 
L 210.649107 67.805649 
L 210.974087 68.162342 
L 211.624046 67.206758 
L 211.949025 66.986493 
L 212.598984 67.014675 
L 212.923964 66.418706 
L 213.573923 67.114875 
L 214.223882 67.859322 
L 214.873841 68.145295 
L 215.198821 67.757417 
L 215.84878 68.076837 
L 216.173759 67.824781 
L 216.498739 68.01492 
L 216.823718 68.421062 
L 217.473677 67.278482 
L 217.798657 66.895106 
L 218.448616 66.725751 
L 218.773595 67.05771 
L 219.098575 66.817633 
L 219.423554 67.136602 
L 220.073514 66.79355 
L 220.398493 67.483207 
L 220.723473 67.505514 
L 221.048452 67.276577 
L 221.373432 67.314846 
L 221.698411 66.721932 
L 222.023391 66.80886 
L 222.34837 66.631827 
L 222.998329 66.995509 
L 223.323309 66.569082 
L 223.648288 66.873777 
L 223.973268 66.999374 
L 224.298247 67.497005 
L 224.948206 67.377209 
L 225.273186 67.555172 
L 225.923145 67.465384 
L 226.573104 66.999482 
L 226.898084 66.664567 
L 227.223063 66.089237 
L 227.548043 65.741954 
L 228.198002 66.359011 
L 228.522981 66.323306 
L 228.847961 66.725488 
L 229.17294 66.522085 
L 229.49792 66.535781 
L 230.472858 66.041686 
L 231.122817 66.452893 
L 231.447797 65.960727 
L 231.772776 66.309824 
L 232.422735 66.557468 
L 232.747715 66.577917 
L 233.072695 65.65762 
L 233.397674 65.529406 
L 233.722654 65.674064 
L 234.047633 65.203209 
L 234.372613 65.314821 
L 234.697592 64.955774 
L 235.022572 64.873893 
L 235.672531 65.180947 
L 235.99751 64.929587 
L 236.32249 64.999089 
L 236.647469 64.792904 
L 236.972449 64.852042 
L 237.297428 65.083235 
L 237.622408 64.66117 
L 237.947387 63.9976 
L 238.272367 63.802504 
L 239.572285 64.800237 
L 240.222244 64.257914 
L 240.547224 64.094878 
L 240.872203 64.075123 
L 241.197183 64.32614 
L 241.522162 64.422297 
L 241.847142 63.852718 
L 242.172121 64.277287 
L 242.497101 63.513766 
L 242.82208 63.141227 
L 243.14706 63.764638 
L 243.472039 63.49627 
L 244.121998 63.399598 
L 244.446978 63.281269 
L 245.096937 63.666657 
L 245.421916 64.014266 
L 245.746896 63.647657 
L 246.071876 63.826303 
L 246.396855 64.231917 
L 246.721835 64.331158 
L 247.046814 64.625187 
L 247.371794 64.44468 
L 248.021753 64.314372 
L 248.346732 64.248631 
L 248.671712 64.062319 
L 248.996691 64.243402 
L 249.97163 63.748122 
L 250.296609 63.754442 
L 250.621589 64.00168 
L 251.921507 63.914262 
L 252.246486 64.075871 
L 252.571466 63.978847 
L 252.896446 64.23049 
L 253.221425 63.777384 
L 253.871384 64.208109 
L 254.196364 63.887807 
L 254.846323 64.368913 
L 255.171302 64.556592 
L 255.496282 64.538982 
L 255.821261 64.238545 
L 256.146241 64.491208 
L 256.47122 64.378091 
L 257.446159 64.850088 
L 257.771138 64.745017 
L 258.421097 63.816028 
L 258.746077 63.308673 
L 259.071057 63.402044 
L 259.396036 63.885908 
L 259.721016 63.728297 
L 260.045995 63.998336 
L 260.370975 63.958838 
L 261.020934 64.279203 
L 261.345913 64.396133 
L 261.995872 64.821697 
L 262.320852 65.019348 
L 262.645831 64.698143 
L 263.29579 64.8169 
L 263.62077 64.720783 
L 264.270729 63.582317 
L 264.920688 63.384064 
L 265.245667 62.887505 
L 265.570647 62.970731 
L 265.895627 63.387926 
L 266.545586 62.568009 
L 266.870565 62.716567 
L 267.520524 62.532761 
L 267.845504 62.193496 
L 268.170483 62.118813 
L 269.145422 62.271441 
L 269.795381 62.71528 
L 270.770319 62.919657 
L 271.095299 62.573456 
L 271.420278 62.616833 
L 271.745258 62.801694 
L 272.070238 62.469964 
L 272.395217 62.47083 
L 272.720197 62.330491 
L 273.045176 62.570445 
L 273.695135 62.704128 
L 274.345094 63.41815 
L 274.670074 63.065294 
L 274.995053 62.896083 
L 275.320033 63.028201 
L 275.645012 63.385064 
L 275.969992 63.503008 
L 276.294971 63.2485 
L 276.619951 63.420374 
L 276.94493 62.953316 
L 277.26991 62.707313 
L 277.594889 62.754509 
L 278.244848 62.038822 
L 278.569828 61.961585 
L 278.894808 62.008645 
L 279.219787 62.170017 
L 279.544767 62.555623 
L 279.869746 62.223987 
L 280.194726 62.307282 
L 280.519705 62.118717 
L 281.494644 62.01522 
L 281.819623 62.137035 
L 282.794562 62.073406 
L 283.119541 62.160788 
L 283.444521 62.132875 
L 283.7695 62.29114 
L 284.09448 62.282762 
L 284.419459 62.683294 
L 285.069419 62.585208 
L 285.394398 62.411505 
L 285.719378 62.792123 
L 286.694316 63.418144 
L 287.344275 63.22732 
L 287.669255 63.230433 
L 287.994234 63.536572 
L 288.319214 63.449762 
L 288.644193 63.188817 
L 289.294152 63.200216 
L 289.619132 63.332615 
L 290.269091 63.035326 
L 290.91905 62.991806 
L 291.244029 63.2649 
L 291.569009 63.364899 
L 292.868927 63.089716 
L 293.193907 62.878428 
L 293.518886 62.824929 
L 293.843866 63.030546 
L 294.168845 63.372162 
L 295.793743 63.598247 
L 296.118722 63.106915 
L 296.443702 63.30131 
L 297.093661 62.637061 
L 297.41864 62.541374 
L 298.393579 61.677296 
L 298.718559 61.164077 
L 300.018477 61.155054 
L 300.668436 61.099914 
L 300.993415 61.030838 
L 301.643374 61.612618 
L 301.968354 61.685606 
L 302.293333 61.604198 
L 302.618313 61.360045 
L 302.943292 61.361266 
L 303.268272 61.641091 
L 303.593251 61.252485 
L 303.918231 61.579841 
L 304.24321 61.589919 
L 304.56819 61.424491 
L 304.89317 61.854197 
L 305.218149 61.966112 
L 305.543129 61.918941 
L 305.868108 62.020834 
L 306.193088 61.858813 
L 306.518067 61.852171 
L 307.493006 62.317067 
L 308.142965 62.666656 
L 308.467944 62.64929 
L 309.117903 62.3489 
L 309.442883 62.587891 
L 309.767862 62.58082 
L 310.092842 62.318896 
L 310.742801 62.151083 
L 311.067781 62.137461 
L 311.71774 62.253997 
L 312.042719 61.995444 
L 312.367699 62.227115 
L 312.692678 61.723202 
L 313.342637 61.474657 
L 313.992596 60.652148 
L 314.317576 60.305794 
L 314.642555 60.332887 
L 314.967535 60.214637 
L 315.292514 59.959978 
L 315.617494 59.537784 
L 315.942473 59.345225 
L 316.592432 59.81176 
L 316.917412 60.053813 
L 317.242391 59.969475 
L 317.567371 60.052565 
L 317.892351 60.281192 
L 318.867289 60.385231 
L 319.192269 60.095231 
L 319.517248 60.286865 
L 319.842228 60.61835 
L 320.167207 60.311244 
L 320.492187 60.553307 
L 321.142146 60.022632 
L 321.467125 59.79524 
L 322.117084 59.974148 
L 322.442064 60.39937 
L 323.092023 60.50153 
L 323.417002 60.463689 
L 323.741982 60.772803 
L 324.716921 60.743908 
L 325.36688 60.117263 
L 326.016839 59.817586 
L 326.991777 60.187739 
L 327.316757 60.328024 
L 327.641736 60.259991 
L 327.966716 60.353015 
L 328.291695 59.914107 
L 329.916593 59.227187 
L 330.241572 59.28815 
L 331.216511 59.031418 
L 331.541491 58.580506 
L 331.86647 58.765812 
L 332.516429 58.712964 
L 332.841409 58.507119 
L 333.166388 58.715066 
L 333.491368 58.413267 
L 333.816347 58.706599 
L 334.141327 58.589799 
L 334.466306 58.695589 
L 334.791286 58.680129 
L 335.116265 58.95905 
L 335.766224 59.125658 
L 337.391122 58.695124 
L 337.716102 58.173155 
L 338.041081 58.311418 
L 338.366061 58.322039 
L 338.69104 58.665609 
L 339.01602 58.767829 
L 339.340999 58.674211 
L 339.665979 58.846941 
L 340.640917 58.980479 
L 340.965897 58.697307 
L 341.615856 58.570423 
L 341.940835 58.218509 
L 342.265815 58.456805 
L 342.590794 58.410855 
L 343.565733 58.870304 
L 343.890713 58.869347 
L 344.215692 58.401184 
L 344.540672 58.430302 
L 344.865651 58.245558 
L 345.51561 58.233007 
L 345.84059 58.44513 
L 346.815528 58.152978 
L 347.140508 57.897175 
L 347.465487 57.928596 
L 347.790467 58.381448 
L 348.115446 58.128597 
L 349.090385 58.082379 
L 349.740344 58.035227 
L 350.390303 57.647794 
L 350.715283 57.621706 
L 351.365242 57.950301 
L 351.690221 58.088876 
L 352.990139 57.979212 
L 353.315119 58.251184 
L 353.640098 57.973387 
L 354.290057 58.116184 
L 354.940016 58.362 
L 355.264996 58.2413 
L 355.914955 58.300427 
L 356.239934 57.902132 
L 356.564914 58.045433 
L 356.889894 57.944376 
L 357.864832 58.455537 
L 358.189812 58.296719 
L 358.514791 58.512879 
L 359.16475 58.496783 
L 359.48973 58.641267 
L 360.464668 58.53665 
L 360.789648 58.752614 
L 361.114627 58.813344 
L 361.439607 58.64452 
L 361.764586 58.727542 
L 362.089566 58.654808 
L 362.414545 58.738755 
L 362.739525 58.396136 
L 363.064505 58.38527 
L 363.389484 58.654353 
L 363.714464 58.713999 
L 364.364423 58.403191 
L 364.689402 58.712194 
L 365.014382 58.636118 
L 365.339361 58.680067 
L 366.3143 59.118281 
L 366.639279 59.078949 
L 367.289238 59.374487 
L 367.939197 59.14283 
L 368.914136 59.065953 
L 369.239115 59.288911 
L 369.889075 59.212144 
L 370.214054 59.093432 
L 370.864013 59.404709 
L 371.513972 59.138581 
L 372.163931 59.126698 
L 372.488911 58.798791 
L 372.81389 58.76327 
L 373.13887 58.915866 
L 373.463849 58.745741 
L 373.788829 58.403177 
L 374.113808 58.596825 
L 374.438788 58.492488 
L 375.088747 58.017473 
L 376.388665 58.384379 
L 376.713645 58.270362 
L 377.363604 58.330281 
L 377.688583 58.308431 
L 378.013563 57.962876 
L 378.338542 57.843834 
L 379.313481 58.175085 
L 379.63846 58.103163 
L 379.96344 57.867476 
L 380.938378 57.663605 
L 381.588337 57.646242 
L 381.913317 57.385418 
L 382.238296 57.406357 
L 382.888256 57.589586 
L 383.213235 57.611294 
L 384.838133 58.48785 
L 386.46303 58.150646 
L 387.112989 58.394736 
L 388.087928 58.208436 
L 388.737887 57.773448 
L 389.062867 57.907564 
L 389.387846 57.71297 
L 390.037805 57.173907 
L 390.362785 57.317161 
L 391.012744 57.263308 
L 391.662703 56.99556 
L 392.312662 57.096787 
L 392.962621 57.045063 
L 393.2876 56.765598 
L 393.61258 56.715121 
L 394.912498 56.137532 
L 395.562457 56.057169 
L 396.537396 55.152157 
L 398.487273 53.568 
L 398.487273 53.568 
" clip-path="url(#p1153b94c72)" style="fill: none; stroke-dasharray: 2,3.3; stroke-dashoffset: 0; stroke: #0000ff; stroke-width: 2"/>
   </g>
   <g id="line2d_16">
    <path d="M 73.832727 295.488 
L 74.157707 249.587664 
L 74.482686 242.369807 
L 75.132645 220.753789 
L 75.457625 216.698676 
L 75.782604 236.498545 
L 76.107584 229.068061 
L 76.757543 197.711739 
L 77.082523 196.449372 
L 77.407502 208.019052 
L 77.732482 197.740169 
L 79.0324 175.917254 
L 79.357379 169.117115 
L 79.682359 180.562262 
L 80.007338 183.017196 
L 80.657297 171.402765 
L 80.982277 171.518094 
L 81.307256 164.715984 
L 81.632236 166.639671 
L 81.957215 167.421314 
L 82.282195 167.106442 
L 82.607174 159.782892 
L 83.257133 151.607936 
L 83.582113 154.156592 
L 83.907093 149.167502 
L 84.232072 152.893954 
L 84.557052 152.190532 
L 84.882031 145.710999 
L 85.207011 142.782946 
L 85.53199 147.222357 
L 85.85697 148.39372 
L 86.181949 148.383783 
L 86.506929 150.583881 
L 86.831908 144.385028 
L 87.156888 142.490232 
L 87.481867 138.304214 
L 87.806847 142.8729 
L 88.131826 142.997756 
L 88.781785 137.209234 
L 89.106765 132.403172 
L 89.431744 134.247485 
L 89.756724 131.156843 
L 90.081704 131.823992 
L 90.406683 126.41586 
L 90.731663 130.257026 
L 91.056642 127.482644 
L 91.381622 121.782626 
L 91.706601 125.107051 
L 92.031581 124.474201 
L 92.68154 132.090842 
L 93.006519 134.125708 
L 93.331499 131.097402 
L 93.981458 123.73363 
L 94.306437 121.050754 
L 94.631417 116.891939 
L 95.281376 120.849188 
L 95.606355 121.754973 
L 95.931335 119.317852 
L 96.256314 119.697211 
L 96.581294 120.683414 
L 96.906274 122.67658 
L 97.231253 123.030137 
L 97.556233 121.563811 
L 97.881212 123.038821 
L 98.206192 120.010736 
L 98.531171 119.870581 
L 98.856151 121.994227 
L 99.18113 122.529269 
L 100.156069 118.491755 
L 100.481048 118.753372 
L 100.806028 119.981671 
L 101.131007 119.200424 
L 101.455987 120.105408 
L 101.780966 115.842515 
L 102.105946 115.117637 
L 102.430925 115.591978 
L 102.755905 113.483303 
L 103.080885 113.217854 
L 103.405864 113.579021 
L 103.730844 113.24318 
L 104.055823 109.072268 
L 104.380803 109.29857 
L 104.705782 108.81136 
L 105.030762 109.523065 
L 105.355741 111.267016 
L 105.680721 108.944642 
L 106.0057 110.090706 
L 106.33068 108.128387 
L 106.655659 108.252395 
L 106.980639 107.547591 
L 107.305618 109.526268 
L 107.630598 109.151337 
L 107.955577 108.291398 
L 108.280557 109.098371 
L 108.930516 107.99043 
L 109.255495 106.158838 
L 109.580475 101.577764 
L 109.905455 100.201942 
L 110.230434 100.458547 
L 110.880393 96.050904 
L 111.205373 97.126921 
L 111.530352 99.008768 
L 111.855332 98.048043 
L 112.180311 99.793768 
L 112.505291 98.984021 
L 112.83027 99.5742 
L 113.15525 99.184462 
L 113.480229 100.629914 
L 113.805209 99.9852 
L 114.130188 98.486789 
L 114.455168 98.157343 
L 114.780147 98.652514 
L 115.105127 100.360067 
L 115.755086 99.724089 
L 116.080066 97.955534 
L 116.730025 98.913999 
L 117.055004 98.882151 
L 117.379984 98.182172 
L 117.704963 97.947466 
L 118.029943 98.959143 
L 118.354922 96.330564 
L 118.679902 97.664857 
L 119.004881 97.917824 
L 119.329861 94.894626 
L 119.65484 95.521814 
L 119.97982 94.699066 
L 120.304799 95.348618 
L 120.629779 95.621758 
L 120.954758 96.154947 
L 121.279738 95.933059 
L 121.604717 97.775225 
L 121.929697 97.331209 
L 122.254676 96.138563 
L 122.579656 96.772106 
L 122.904636 98.110439 
L 123.229615 98.506679 
L 123.554595 96.849284 
L 123.879574 96.608219 
L 124.204554 96.612818 
L 124.529533 96.388838 
L 124.854513 96.64778 
L 125.829451 99.128176 
L 126.154431 99.198595 
L 126.47941 97.862926 
L 126.80439 99.277586 
L 127.129369 97.588349 
L 127.454349 98.26279 
L 127.779328 98.04071 
L 128.104308 97.291094 
L 128.429287 95.398842 
L 128.754267 95.930584 
L 129.404226 94.308362 
L 129.729206 94.903968 
L 130.054185 94.817015 
L 130.379165 96.241805 
L 130.704144 95.737057 
L 131.029124 94.426129 
L 131.354103 94.508669 
L 132.004062 95.553698 
L 132.329042 95.372892 
L 132.654021 95.573188 
L 133.30398 94.494171 
L 133.62896 94.936101 
L 133.953939 95.134924 
L 134.278919 95.026484 
L 134.603898 95.442549 
L 134.928878 95.636645 
L 135.253857 94.184129 
L 135.578837 93.773052 
L 135.903817 94.747448 
L 136.228796 94.740687 
L 136.553776 94.328046 
L 136.878755 95.084404 
L 137.203735 95.006239 
L 137.528714 93.754455 
L 137.853694 93.830825 
L 138.178673 93.740629 
L 138.503653 94.497114 
L 138.828632 94.676378 
L 139.153612 94.1882 
L 139.478591 94.013852 
L 139.803571 94.353609 
L 140.12855 93.850215 
L 140.45353 93.979181 
L 140.778509 92.932333 
L 141.103489 93.111825 
L 141.428468 92.237233 
L 141.753448 92.274478 
L 142.078428 91.791236 
L 142.403407 90.180047 
L 143.053366 89.541467 
L 143.378346 89.777003 
L 143.703325 89.335435 
L 144.028305 87.624425 
L 144.353284 86.942364 
L 144.678264 86.74852 
L 145.003243 85.855218 
L 145.328223 86.453697 
L 145.653202 86.225747 
L 145.978182 86.936486 
L 146.628141 85.46111 
L 147.2781 83.457796 
L 147.603079 84.521553 
L 147.928059 84.648301 
L 148.578018 83.041403 
L 149.227977 82.063531 
L 149.552957 82.191623 
L 149.877936 81.640472 
L 150.527895 81.481309 
L 150.852875 80.63915 
L 151.177854 81.360713 
L 151.502834 80.742252 
L 151.827813 81.000383 
L 152.152793 81.76622 
L 152.802752 80.635718 
L 153.127731 81.120598 
L 153.452711 81.346319 
L 153.77769 80.178847 
L 154.10267 80.743115 
L 154.427649 79.639556 
L 154.752629 79.069831 
L 155.077609 78.936798 
L 155.727568 77.726636 
L 156.052547 77.712593 
L 156.377527 78.257026 
L 156.702506 77.909089 
L 157.352465 78.248154 
L 157.677445 77.686048 
L 158.327404 77.586541 
L 158.652383 77.336724 
L 158.977363 78.466921 
L 159.627322 79.213572 
L 159.952301 79.287753 
L 160.277281 79.8756 
L 160.60226 79.901367 
L 160.92724 80.133038 
L 161.902179 82.336285 
L 162.552138 81.547071 
L 162.877117 81.904172 
L 163.202097 82.043654 
L 163.527076 82.590041 
L 163.852056 82.10101 
L 164.177035 81.920853 
L 164.502015 82.005061 
L 164.826994 80.660062 
L 165.476953 80.615372 
L 165.801933 78.679858 
L 166.126912 78.834707 
L 166.451892 78.822596 
L 166.776871 78.604866 
L 167.101851 79.425234 
L 167.42683 79.236763 
L 167.75181 79.446473 
L 168.401769 78.905825 
L 168.726749 79.303416 
L 169.051728 78.805723 
L 169.701687 76.384633 
L 170.026667 75.926356 
L 170.351646 76.09743 
L 170.676626 76.795784 
L 171.976544 77.859049 
L 172.301523 77.708344 
L 172.626503 76.954647 
L 172.951482 75.766273 
L 173.276462 75.026985 
L 173.926421 74.640213 
L 174.2514 73.683663 
L 174.57638 73.443951 
L 174.90136 72.728004 
L 175.226339 72.822701 
L 175.551319 72.136307 
L 176.201278 72.246485 
L 176.526257 71.615126 
L 176.851237 71.606646 
L 177.176216 71.757703 
L 177.501196 72.224097 
L 177.826175 72.16248 
L 178.476134 71.800577 
L 178.801114 70.833401 
L 179.126093 70.497456 
L 179.451073 70.874343 
L 179.776052 71.057067 
L 180.101032 71.57523 
L 180.426011 71.187937 
L 180.750991 71.062363 
L 181.075971 71.355187 
L 181.72593 71.401584 
L 182.700868 69.783311 
L 183.025848 69.598039 
L 183.675807 69.652486 
L 184.000786 69.089064 
L 184.325766 69.453855 
L 185.300704 69.377947 
L 185.950663 68.714666 
L 186.600622 69.490728 
L 186.925602 70.1839 
L 187.250581 70.369448 
L 187.575561 70.268412 
L 187.900541 69.668178 
L 188.22552 69.901939 
L 188.5505 69.434867 
L 189.200459 69.501223 
L 189.525438 70.244287 
L 189.850418 70.122502 
L 191.150336 70.87348 
L 191.475315 71.392408 
L 191.800295 71.186971 
L 192.125274 71.725991 
L 192.450254 70.91194 
L 192.775233 70.861063 
L 193.100213 70.987654 
L 193.425192 71.370545 
L 193.750172 71.948414 
L 195.05009 72.966794 
L 195.37507 72.474415 
L 196.025029 73.316069 
L 196.350008 73.565724 
L 196.674988 72.988907 
L 196.999967 73.419536 
L 197.324947 73.543844 
L 197.649926 72.987926 
L 197.974906 73.310073 
L 198.299885 72.946262 
L 198.624865 72.333649 
L 198.949844 72.367377 
L 199.274824 71.324119 
L 199.599803 71.575081 
L 199.924783 70.966549 
L 200.249762 70.880317 
L 200.574742 71.061077 
L 200.899722 70.768843 
L 201.224701 71.035331 
L 201.87466 70.174657 
L 202.524619 70.643116 
L 203.174578 70.134188 
L 203.499558 70.096723 
L 203.824537 69.499106 
L 204.149517 68.397994 
L 205.124455 66.446389 
L 205.449435 66.577553 
L 205.774414 67.125741 
L 206.099394 67.283099 
L 206.749353 67.857831 
L 207.074333 67.685091 
L 207.399312 67.174426 
L 207.724292 67.265374 
L 208.049271 66.853464 
L 208.69923 67.05591 
L 209.02421 66.581276 
L 209.349189 65.524982 
L 209.674169 65.782724 
L 209.999148 65.511053 
L 210.324128 64.809143 
L 210.649107 64.544861 
L 211.299066 64.692839 
L 212.274005 63.156881 
L 213.248943 62.1393 
L 213.573923 62.813631 
L 213.898903 62.253574 
L 214.223882 62.418394 
L 214.548862 62.785184 
L 214.873841 62.774457 
L 215.5238 63.662012 
L 215.84878 63.711769 
L 216.173759 63.422282 
L 216.498739 63.53426 
L 217.148698 63.380973 
L 217.473677 62.753322 
L 218.123636 62.818039 
L 218.773595 62.481431 
L 219.098575 62.457104 
L 219.423554 62.656499 
L 219.748534 62.415884 
L 220.073514 61.65673 
L 220.398493 61.819721 
L 221.048452 61.287827 
L 221.698411 62.285664 
L 222.023391 62.250891 
L 222.34837 62.631091 
L 222.998329 62.191694 
L 223.648288 62.634851 
L 223.973268 62.197363 
L 224.948206 62.464947 
L 225.598165 62.161372 
L 226.248124 61.789632 
L 226.573104 61.126717 
L 227.223063 60.671116 
L 227.548043 60.759554 
L 227.873022 60.695489 
L 228.847961 60.084091 
L 229.17294 60.553289 
L 229.49792 60.7421 
L 230.472858 59.926387 
L 231.447797 58.547258 
L 232.097756 58.870854 
L 232.422735 58.885591 
L 233.072695 59.214344 
L 233.722654 59.332453 
L 234.047633 59.485716 
L 234.372613 59.315213 
L 234.697592 59.656152 
L 235.347551 59.085222 
L 235.672531 59.157902 
L 235.99751 59.525413 
L 236.32249 59.081098 
L 236.647469 59.017752 
L 237.947387 60.175919 
L 238.597346 60.461027 
L 239.247305 60.533383 
L 240.222244 60.781261 
L 240.872203 61.436717 
L 241.197183 61.389887 
L 241.847142 61.687623 
L 242.172121 61.601173 
L 242.497101 61.327869 
L 242.82208 60.889799 
L 243.14706 60.928161 
L 243.472039 60.822704 
L 243.797019 60.537368 
L 244.121998 61.209318 
L 244.446978 61.571441 
L 244.771957 61.41682 
L 245.746896 60.596374 
L 246.071876 61.16555 
L 246.396855 61.169211 
L 246.721835 61.4675 
L 247.371794 60.726636 
L 248.021753 60.543346 
L 248.346732 60.015868 
L 248.671712 59.97992 
L 248.996691 60.33092 
L 249.321671 60.045598 
L 249.64665 60.153564 
L 249.97163 60.030487 
L 250.296609 60.127275 
L 250.946568 59.882739 
L 251.271548 60.011167 
L 251.596527 60.008462 
L 251.921507 59.338171 
L 252.246486 59.02147 
L 252.571466 58.918342 
L 252.896446 59.228996 
L 253.546405 59.602392 
L 253.871384 59.525723 
L 254.196364 59.280673 
L 254.521343 59.262335 
L 254.846323 59.081751 
L 255.171302 59.262953 
L 255.821261 59.416086 
L 256.146241 59.596655 
L 256.7962 60.533213 
L 257.121179 60.613741 
L 257.446159 60.292523 
L 257.771138 59.78899 
L 258.421097 59.627349 
L 258.746077 59.711535 
L 259.396036 59.646057 
L 259.721016 59.944224 
L 260.045995 60.053888 
L 260.370975 60.424987 
L 260.695954 60.59925 
L 261.020934 60.336127 
L 261.670893 60.707504 
L 261.995872 60.545293 
L 262.320852 60.833652 
L 262.645831 60.777828 
L 262.970811 60.872608 
L 263.62077 60.031647 
L 264.270729 60.848115 
L 264.920688 60.792429 
L 265.245667 61.145706 
L 265.570647 61.184273 
L 265.895627 61.069302 
L 266.220606 61.341812 
L 266.545586 61.178982 
L 266.870565 61.23322 
L 267.195545 61.056183 
L 267.520524 61.33148 
L 267.845504 61.159585 
L 268.170483 60.857543 
L 268.495463 61.087463 
L 268.820442 60.77359 
L 269.145422 61.148237 
L 269.795381 61.291785 
L 270.12036 61.460065 
L 270.44534 61.315039 
L 270.770319 61.574374 
L 271.095299 61.23743 
L 271.420278 61.581157 
L 271.745258 61.604754 
L 272.395217 61.092876 
L 274.020115 61.938121 
L 274.345094 61.398549 
L 274.995053 61.226275 
L 275.320033 61.310177 
L 275.645012 61.246932 
L 275.969992 61.413887 
L 276.619951 60.654259 
L 277.26991 60.858256 
L 277.594889 60.605208 
L 277.919869 60.192529 
L 279.219787 59.873459 
L 280.519705 58.119467 
L 280.844685 58.095931 
L 281.169664 58.326677 
L 281.819623 58.284389 
L 282.144603 58.428391 
L 282.469582 58.42815 
L 282.794562 57.928776 
L 283.119541 57.881796 
L 283.444521 57.681927 
L 283.7695 57.259168 
L 284.09448 57.356768 
L 284.419459 57.117175 
L 284.744439 57.055935 
L 285.069419 56.841724 
L 286.044357 57.279915 
L 286.369337 57.170801 
L 286.694316 57.549445 
L 287.019296 57.495799 
L 287.669255 57.700441 
L 287.994234 57.783487 
L 288.644193 58.389809 
L 288.969173 58.143219 
L 289.294152 58.135896 
L 289.944111 58.72488 
L 290.269091 58.768935 
L 290.91905 59.160863 
L 291.244029 58.918989 
L 291.569009 58.989103 
L 292.218968 58.450223 
L 292.868927 58.928135 
L 293.193907 58.875517 
L 293.518886 58.942191 
L 293.843866 59.340523 
L 294.493825 59.528604 
L 295.143784 59.427939 
L 295.468763 59.32116 
L 295.793743 59.573586 
L 296.118722 59.435384 
L 296.443702 59.577348 
L 296.768681 59.3927 
L 297.41864 59.524467 
L 297.74362 59.305666 
L 298.0686 59.28296 
L 298.393579 59.06368 
L 298.718559 59.017579 
L 299.043538 59.111075 
L 299.368518 58.820462 
L 299.693497 58.692282 
L 300.018477 58.847935 
L 300.343456 58.789344 
L 300.668436 58.31142 
L 301.318395 58.747291 
L 301.643374 58.712083 
L 301.968354 59.039557 
L 302.943292 58.720779 
L 303.918231 59.117995 
L 304.56819 58.529947 
L 305.218149 58.36639 
L 305.543129 58.716959 
L 305.868108 58.350432 
L 306.193088 58.47806 
L 306.518067 58.817234 
L 306.843047 58.652765 
L 307.493006 59.077599 
L 307.817985 59.008647 
L 308.142965 58.511401 
L 308.467944 58.622217 
L 309.117903 58.415516 
L 309.442883 58.542481 
L 309.767862 58.488631 
L 310.417821 58.96439 
L 310.742801 59.102612 
L 311.067781 58.94099 
L 311.71774 58.983769 
L 312.692678 59.47818 
L 313.342637 59.78001 
L 313.667617 60.027614 
L 313.992596 60.014433 
L 314.317576 59.846345 
L 314.642555 60.08606 
L 314.967535 60.159126 
L 315.292514 60.062716 
L 316.267453 60.215047 
L 316.592432 59.922452 
L 317.242391 59.719305 
L 317.567371 59.494252 
L 317.892351 59.730508 
L 318.54231 59.740652 
L 318.867289 59.515254 
L 319.842228 59.881737 
L 320.817166 59.99752 
L 321.142146 59.881461 
L 321.467125 59.890648 
L 322.117084 60.225907 
L 322.442064 60.225527 
L 322.767043 60.46666 
L 323.417002 60.617428 
L 324.066962 60.819661 
L 324.391941 60.853792 
L 325.691859 60.255018 
L 326.016839 60.035834 
L 326.341818 60.055761 
L 326.666798 60.355031 
L 326.991777 60.212834 
L 327.316757 60.398893 
L 327.641736 60.432477 
L 327.966716 60.593179 
L 328.291695 60.473327 
L 328.616675 60.750518 
L 328.941654 60.839295 
L 329.591613 60.728745 
L 329.916593 60.390046 
L 330.241572 60.349961 
L 330.566552 60.557374 
L 330.891532 60.440348 
L 331.86647 60.779332 
L 332.19145 60.684537 
L 333.816347 61.012816 
L 335.441245 60.615575 
L 336.091204 60.728747 
L 336.416183 60.467189 
L 337.066143 60.493039 
L 337.391122 60.616387 
L 337.716102 60.420502 
L 338.366061 60.247849 
L 339.01602 59.974593 
L 339.340999 60.072471 
L 339.990958 59.988561 
L 340.640917 59.89957 
L 340.965897 59.664369 
L 341.290876 59.61645 
L 341.615856 59.830721 
L 341.940835 59.626033 
L 342.590794 59.702104 
L 342.915774 59.27048 
L 343.565733 59.535047 
L 343.890713 59.51985 
L 344.865651 59.128633 
L 345.51561 59.591927 
L 345.84059 59.753756 
L 346.165569 59.510742 
L 346.490549 59.491913 
L 346.815528 59.874726 
L 348.115446 60.540396 
L 348.765405 60.531547 
L 349.090385 60.877034 
L 349.740344 60.854827 
L 350.065324 61.260134 
L 351.040262 61.081449 
L 351.365242 61.25953 
L 352.015201 60.913511 
L 353.315119 61.603121 
L 353.965078 61.646157 
L 354.615037 61.583162 
L 354.940016 61.711239 
L 355.264996 61.585946 
L 355.589975 61.76809 
L 355.914955 61.729907 
L 356.239934 62.023961 
L 356.889894 62.109694 
L 357.214873 61.76945 
L 357.864832 62.180824 
L 358.514791 62.112777 
L 359.16475 62.447998 
L 359.48973 62.556345 
L 360.139689 62.460808 
L 360.464668 62.449611 
L 360.789648 62.66485 
L 361.439607 62.472314 
L 361.764586 62.164023 
L 362.414545 62.386243 
L 362.739525 62.641031 
L 363.064505 62.734287 
L 363.389484 62.56353 
L 363.714464 62.795112 
L 364.039443 62.811477 
L 364.364423 62.945793 
L 364.689402 62.64713 
L 366.3143 62.958563 
L 366.639279 63.11863 
L 366.964259 63.142949 
L 367.289238 63.363583 
L 368.914136 63.353049 
L 369.239115 63.202465 
L 369.564095 63.2372 
L 370.214054 63.026066 
L 370.864013 63.25923 
L 371.188993 63.017235 
L 371.838952 63.427873 
L 372.488911 63.763619 
L 373.13887 63.622074 
L 373.463849 63.615115 
L 374.763767 64.072166 
L 375.088747 63.943106 
L 375.738706 64.161094 
L 376.063686 64.487434 
L 377.038624 64.717851 
L 378.013563 64.900534 
L 378.338542 65.135536 
L 378.988501 65.194171 
L 379.313481 65.540068 
L 379.63846 65.572915 
L 379.96344 65.459056 
L 380.613399 65.853855 
L 380.938378 65.665243 
L 381.588337 65.748631 
L 381.913317 65.601266 
L 383.863194 65.592057 
L 384.188174 65.50707 
L 384.513153 65.667416 
L 384.838133 65.500183 
L 385.813071 65.35599 
L 386.138051 65.502343 
L 386.46303 65.340164 
L 386.78801 65.492897 
L 387.437969 65.441076 
L 387.762948 65.377927 
L 388.087928 65.611361 
L 388.412907 65.541163 
L 389.712826 66.06856 
L 390.037805 65.864713 
L 390.362785 65.996844 
L 390.687764 65.91013 
L 391.012744 66.190997 
L 392.637641 66.632824 
L 392.962621 66.733582 
L 393.61258 66.639637 
L 394.262539 66.171882 
L 395.887437 65.30608 
L 396.212416 64.926173 
L 396.862375 64.613602 
L 398.487273 63.147856 
L 398.487273 63.147856 
" clip-path="url(#p1153b94c72)" style="fill: none; stroke-dasharray: 2,3.3; stroke-dashoffset: 0; stroke: #ffa500; stroke-width: 2"/>
   </g>
   <g id="patch_3">
    <path d="M 57.6 307.584 
L 57.6 41.472 
" style="fill: none; stroke: #000000; stroke-width: 0.8; stroke-linejoin: miter; stroke-linecap: square"/>
   </g>
   <g id="patch_4">
    <path d="M 414.72 307.584 
L 414.72 41.472 
" style="fill: none; stroke: #000000; stroke-width: 0.8; stroke-linejoin: miter; stroke-linecap: square"/>
   </g>
   <g id="patch_5">
    <path d="M 57.6 307.584 
L 414.72 307.584 
" style="fill: none; stroke: #000000; stroke-width: 0.8; stroke-linejoin: miter; stroke-linecap: square"/>
   </g>
   <g id="patch_6">
    <path d="M 57.6 41.472 
L 414.72 41.472 
" style="fill: none; stroke: #000000; stroke-width: 0.8; stroke-linejoin: miter; stroke-linecap: square"/>
   </g>
   <g id="text_17">
    <!-- Waiting Time Plot -->
    <g transform="translate(183.833438 8.2635)scale(0.12 -0.12)">
     <defs>
      <path id="DejaVuSans-50" d="M 1259 4147 
L 1259 2394 
L 2053 2394 
Q 2494 2394 2734 2622 
Q 2975 2850 2975 3272 
Q 2975 3691 2734 3919 
Q 2494 4147 2053 4147 
L 1259 4147 
z
M 628 4666 
L 2053 4666 
Q 2838 4666 3239 4311 
Q 3641 3956 3641 3272 
Q 3641 2581 3239 2228 
Q 2838 1875 2053 1875 
L 1259 1875 
L 1259 0 
L 628 0 
L 628 4666 
z
" transform="scale(0.015625)"/>
      <path id="DejaVuSans-6c" d="M 603 4863 
L 1178 4863 
L 1178 0 
L 603 0 
L 603 4863 
z
" transform="scale(0.015625)"/>
     </defs>
     <use xlink:href="#DejaVuSans-57"/>
     <use xlink:href="#DejaVuSans-61" x="92.501953"/>
     <use xlink:href="#DejaVuSans-69" x="153.78125"/>
     <use xlink:href="#DejaVuSans-74" x="181.564453"/>
     <use xlink:href="#DejaVuSans-69" x="220.773438"/>
     <use xlink:href="#DejaVuSans-6e" x="248.556641"/>
     <use xlink:href="#DejaVuSans-67" x="311.935547"/>
     <use xlink:href="#DejaVuSans-20" x="375.412109"/>
     <use xlink:href="#DejaVuSans-54" x="407.199219"/>
     <use xlink:href="#DejaVuSans-69" x="465.158203"/>
     <use xlink:href="#DejaVuSans-6d" x="492.941406"/>
     <use xlink:href="#DejaVuSans-65" x="590.353516"/>
     <use xlink:href="#DejaVuSans-20" x="651.876953"/>
     <use xlink:href="#DejaVuSans-50" x="683.664062"/>
     <use xlink:href="#DejaVuSans-6c" x="743.966797"/>
     <use xlink:href="#DejaVuSans-6f" x="771.75"/>
     <use xlink:href="#DejaVuSans-74" x="832.931641"/>
    </g>
    <!--  avg_d = 3076.4569967238817  -->
    <g transform="translate(138.854062 21.700875)scale(0.12 -0.12)">
     <defs>
      <path id="DejaVuSans-76" d="M 191 3500 
L 800 3500 
L 1894 563 
L 2988 3500 
L 3597 3500 
L 2284 0 
L 1503 0 
L 191 3500 
z
" transform="scale(0.015625)"/>
      <path id="DejaVuSans-5f" d="M 3263 -1063 
L 3263 -1509 
L -63 -1509 
L -63 -1063 
L 3263 -1063 
z
" transform="scale(0.015625)"/>
      <path id="DejaVuSans-3d" d="M 678 2906 
L 4684 2906 
L 4684 2381 
L 678 2381 
L 678 2906 
z
M 678 1631 
L 4684 1631 
L 4684 1100 
L 678 1100 
L 678 1631 
z
" transform="scale(0.015625)"/>
      <path id="DejaVuSans-2e" d="M 684 794 
L 1344 794 
L 1344 0 
L 684 0 
L 684 794 
z
" transform="scale(0.015625)"/>
      <path id="DejaVuSans-39" d="M 703 97 
L 703 672 
Q 941 559 1184 500 
Q 1428 441 1663 441 
Q 2288 441 2617 861 
Q 2947 1281 2994 2138 
Q 2813 1869 2534 1725 
Q 2256 1581 1919 1581 
Q 1219 1581 811 2004 
Q 403 2428 403 3163 
Q 403 3881 828 4315 
Q 1253 4750 1959 4750 
Q 2769 4750 3195 4129 
Q 3622 3509 3622 2328 
Q 3622 1225 3098 567 
Q 2575 -91 1691 -91 
Q 1453 -91 1209 -44 
Q 966 3 703 97 
z
M 1959 2075 
Q 2384 2075 2632 2365 
Q 2881 2656 2881 3163 
Q 2881 3666 2632 3958 
Q 2384 4250 1959 4250 
Q 1534 4250 1286 3958 
Q 1038 3666 1038 3163 
Q 1038 2656 1286 2365 
Q 1534 2075 1959 2075 
z
" transform="scale(0.015625)"/>
     </defs>
     <use xlink:href="#DejaVuSans-20"/>
     <use xlink:href="#DejaVuSans-61" x="31.787109"/>
     <use xlink:href="#DejaVuSans-76" x="93.066406"/>
     <use xlink:href="#DejaVuSans-67" x="152.246094"/>
     <use xlink:href="#DejaVuSans-5f" x="215.722656"/>
     <use xlink:href="#DejaVuSans-64" x="265.722656"/>
     <use xlink:href="#DejaVuSans-20" x="329.199219"/>
     <use xlink:href="#DejaVuSans-3d" x="360.986328"/>
     <use xlink:href="#DejaVuSans-20" x="444.775391"/>
     <use xlink:href="#DejaVuSans-33" x="476.5625"/>
     <use xlink:href="#DejaVuSans-30" x="540.185547"/>
     <use xlink:href="#DejaVuSans-37" x="603.808594"/>
     <use xlink:href="#DejaVuSans-36" x="667.431641"/>
     <use xlink:href="#DejaVuSans-2e" x="731.054688"/>
     <use xlink:href="#DejaVuSans-34" x="762.841797"/>
     <use xlink:href="#DejaVuSans-35" x="826.464844"/>
     <use xlink:href="#DejaVuSans-36" x="890.087891"/>
     <use xlink:href="#DejaVuSans-39" x="953.710938"/>
     <use xlink:href="#DejaVuSans-39" x="1017.333984"/>
     <use xlink:href="#DejaVuSans-36" x="1080.957031"/>
     <use xlink:href="#DejaVuSans-37" x="1144.580078"/>
     <use xlink:href="#DejaVuSans-32" x="1208.203125"/>
     <use xlink:href="#DejaVuSans-33" x="1271.826172"/>
     <use xlink:href="#DejaVuSans-38" x="1335.449219"/>
     <use xlink:href="#DejaVuSans-38" x="1399.072266"/>
     <use xlink:href="#DejaVuSans-31" x="1462.695312"/>
     <use xlink:href="#DejaVuSans-37" x="1526.318359"/>
     <use xlink:href="#DejaVuSans-20" x="1589.941406"/>
    </g>
    <!--  avg_a = 3005.0822960965934diff = 71.37470062728835 -->
    <g transform="translate(59.364375 35.472)scale(0.12 -0.12)">
     <use xlink:href="#DejaVuSans-20"/>
     <use xlink:href="#DejaVuSans-61" x="31.787109"/>
     <use xlink:href="#DejaVuSans-76" x="93.066406"/>
     <use xlink:href="#DejaVuSans-67" x="152.246094"/>
     <use xlink:href="#DejaVuSans-5f" x="215.722656"/>
     <use xlink:href="#DejaVuSans-61" x="265.722656"/>
     <use xlink:href="#DejaVuSans-20" x="327.001953"/>
     <use xlink:href="#DejaVuSans-3d" x="358.789062"/>
     <use xlink:href="#DejaVuSans-20" x="442.578125"/>
     <use xlink:href="#DejaVuSans-33" x="474.365234"/>
     <use xlink:href="#DejaVuSans-30" x="537.988281"/>
     <use xlink:href="#DejaVuSans-30" x="601.611328"/>
     <use xlink:href="#DejaVuSans-35" x="665.234375"/>
     <use xlink:href="#DejaVuSans-2e" x="728.857422"/>
     <use xlink:href="#DejaVuSans-30" x="760.644531"/>
     <use xlink:href="#DejaVuSans-38" x="824.267578"/>
     <use xlink:href="#DejaVuSans-32" x="887.890625"/>
     <use xlink:href="#DejaVuSans-32" x="951.513672"/>
     <use xlink:href="#DejaVuSans-39" x="1015.136719"/>
     <use xlink:href="#DejaVuSans-36" x="1078.759766"/>
     <use xlink:href="#DejaVuSans-30" x="1142.382812"/>
     <use xlink:href="#DejaVuSans-39" x="1206.005859"/>
     <use xlink:href="#DejaVuSans-36" x="1269.628906"/>
     <use xlink:href="#DejaVuSans-35" x="1333.251953"/>
     <use xlink:href="#DejaVuSans-39" x="1396.875"/>
     <use xlink:href="#DejaVuSans-33" x="1460.498047"/>
     <use xlink:href="#DejaVuSans-34" x="1524.121094"/>
     <use xlink:href="#DejaVuSans-64" x="1587.744141"/>
     <use xlink:href="#DejaVuSans-69" x="1651.220703"/>
     <use xlink:href="#DejaVuSans-66" x="1679.003906"/>
     <use xlink:href="#DejaVuSans-66" x="1714.208984"/>
     <use xlink:href="#DejaVuSans-20" x="1749.414062"/>
     <use xlink:href="#DejaVuSans-3d" x="1781.201172"/>
     <use xlink:href="#DejaVuSans-20" x="1864.990234"/>
     <use xlink:href="#DejaVuSans-37" x="1896.777344"/>
     <use xlink:href="#DejaVuSans-31" x="1960.400391"/>
     <use xlink:href="#DejaVuSans-2e" x="2024.023438"/>
     <use xlink:href="#DejaVuSans-33" x="2055.810547"/>
     <use xlink:href="#DejaVuSans-37" x="2119.433594"/>
     <use xlink:href="#DejaVuSans-34" x="2183.056641"/>
     <use xlink:href="#DejaVuSans-37" x="2246.679688"/>
     <use xlink:href="#DejaVuSans-30" x="2310.302734"/>
     <use xlink:href="#DejaVuSans-30" x="2373.925781"/>
     <use xlink:href="#DejaVuSans-36" x="2437.548828"/>
     <use xlink:href="#DejaVuSans-32" x="2501.171875"/>
     <use xlink:href="#DejaVuSans-37" x="2564.794922"/>
     <use xlink:href="#DejaVuSans-32" x="2628.417969"/>
     <use xlink:href="#DejaVuSans-38" x="2692.041016"/>
     <use xlink:href="#DejaVuSans-38" x="2755.664062"/>
     <use xlink:href="#DejaVuSans-33" x="2819.287109"/>
     <use xlink:href="#DejaVuSans-35" x="2882.910156"/>
    </g>
   </g>
   <g id="legend_1">
    <g id="patch_7">
     <path d="M 263.88875 302.584 
L 407.72 302.584 
Q 409.72 302.584 409.72 300.584 
L 409.72 272.22775 
Q 409.72 270.22775 407.72 270.22775 
L 263.88875 270.22775 
Q 261.88875 270.22775 261.88875 272.22775 
L 261.88875 300.584 
Q 261.88875 302.584 263.88875 302.584 
z
" style="fill: #ffffff; opacity: 0.8; stroke: #cccccc; stroke-linejoin: miter"/>
    </g>
    <g id="line2d_17">
     <path d="M 265.88875 278.326187 
L 275.88875 278.326187 
L 285.88875 278.326187 
" style="fill: none; stroke-dasharray: 2,3.3; stroke-dashoffset: 0; stroke: #0000ff; stroke-width: 2"/>
    </g>
    <g id="text_18">
     <!-- Average (Default) -->
     <g transform="translate(293.88875 281.826187)scale(0.1 -0.1)">
      <defs>
       <path id="DejaVuSans-41" d="M 2188 4044 
L 1331 1722 
L 3047 1722 
L 2188 4044 
z
M 1831 4666 
L 2547 4666 
L 4325 0 
L 3669 0 
L 3244 1197 
L 1141 1197 
L 716 0 
L 50 0 
L 1831 4666 
z
" transform="scale(0.015625)"/>
       <path id="DejaVuSans-28" d="M 1984 4856 
Q 1566 4138 1362 3434 
Q 1159 2731 1159 2009 
Q 1159 1288 1364 580 
Q 1569 -128 1984 -844 
L 1484 -844 
Q 1016 -109 783 600 
Q 550 1309 550 2009 
Q 550 2706 781 3412 
Q 1013 4119 1484 4856 
L 1984 4856 
z
" transform="scale(0.015625)"/>
       <path id="DejaVuSans-44" d="M 1259 4147 
L 1259 519 
L 2022 519 
Q 2988 519 3436 956 
Q 3884 1394 3884 2338 
Q 3884 3275 3436 3711 
Q 2988 4147 2022 4147 
L 1259 4147 
z
M 628 4666 
L 1925 4666 
Q 3281 4666 3915 4102 
Q 4550 3538 4550 2338 
Q 4550 1131 3912 565 
Q 3275 0 1925 0 
L 628 0 
L 628 4666 
z
" transform="scale(0.015625)"/>
       <path id="DejaVuSans-29" d="M 513 4856 
L 1013 4856 
Q 1481 4119 1714 3412 
Q 1947 2706 1947 2009 
Q 1947 1309 1714 600 
Q 1481 -109 1013 -844 
L 513 -844 
Q 928 -128 1133 580 
Q 1338 1288 1338 2009 
Q 1338 2731 1133 3434 
Q 928 4138 513 4856 
z
" transform="scale(0.015625)"/>
      </defs>
      <use xlink:href="#DejaVuSans-41"/>
      <use xlink:href="#DejaVuSans-76" x="62.533203"/>
      <use xlink:href="#DejaVuSans-65" x="121.712891"/>
      <use xlink:href="#DejaVuSans-72" x="183.236328"/>
      <use xlink:href="#DejaVuSans-61" x="224.349609"/>
      <use xlink:href="#DejaVuSans-67" x="285.628906"/>
      <use xlink:href="#DejaVuSans-65" x="349.105469"/>
      <use xlink:href="#DejaVuSans-20" x="410.628906"/>
      <use xlink:href="#DejaVuSans-28" x="442.416016"/>
      <use xlink:href="#DejaVuSans-44" x="481.429688"/>
      <use xlink:href="#DejaVuSans-65" x="558.431641"/>
      <use xlink:href="#DejaVuSans-66" x="619.955078"/>
      <use xlink:href="#DejaVuSans-61" x="655.160156"/>
      <use xlink:href="#DejaVuSans-75" x="716.439453"/>
      <use xlink:href="#DejaVuSans-6c" x="779.818359"/>
      <use xlink:href="#DejaVuSans-74" x="807.601562"/>
      <use xlink:href="#DejaVuSans-29" x="846.810547"/>
     </g>
    </g>
    <g id="line2d_18">
     <path d="M 265.88875 293.004312 
L 275.88875 293.004312 
L 285.88875 293.004312 
" style="fill: none; stroke-dasharray: 2,3.3; stroke-dashoffset: 0; stroke: #ffa500; stroke-width: 2"/>
    </g>
    <g id="text_19">
     <!-- Average (Anticipation) -->
     <g transform="translate(293.88875 296.504312)scale(0.1 -0.1)">
      <defs>
       <path id="DejaVuSans-63" d="M 3122 3366 
L 3122 2828 
Q 2878 2963 2633 3030 
Q 2388 3097 2138 3097 
Q 1578 3097 1268 2742 
Q 959 2388 959 1747 
Q 959 1106 1268 751 
Q 1578 397 2138 397 
Q 2388 397 2633 464 
Q 2878 531 3122 666 
L 3122 134 
Q 2881 22 2623 -34 
Q 2366 -91 2075 -91 
Q 1284 -91 818 406 
Q 353 903 353 1747 
Q 353 2603 823 3093 
Q 1294 3584 2113 3584 
Q 2378 3584 2631 3529 
Q 2884 3475 3122 3366 
z
" transform="scale(0.015625)"/>
       <path id="DejaVuSans-70" d="M 1159 525 
L 1159 -1331 
L 581 -1331 
L 581 3500 
L 1159 3500 
L 1159 2969 
Q 1341 3281 1617 3432 
Q 1894 3584 2278 3584 
Q 2916 3584 3314 3078 
Q 3713 2572 3713 1747 
Q 3713 922 3314 415 
Q 2916 -91 2278 -91 
Q 1894 -91 1617 61 
Q 1341 213 1159 525 
z
M 3116 1747 
Q 3116 2381 2855 2742 
Q 2594 3103 2138 3103 
Q 1681 3103 1420 2742 
Q 1159 2381 1159 1747 
Q 1159 1113 1420 752 
Q 1681 391 2138 391 
Q 2594 391 2855 752 
Q 3116 1113 3116 1747 
z
" transform="scale(0.015625)"/>
      </defs>
      <use xlink:href="#DejaVuSans-41"/>
      <use xlink:href="#DejaVuSans-76" x="62.533203"/>
      <use xlink:href="#DejaVuSans-65" x="121.712891"/>
      <use xlink:href="#DejaVuSans-72" x="183.236328"/>
      <use xlink:href="#DejaVuSans-61" x="224.349609"/>
      <use xlink:href="#DejaVuSans-67" x="285.628906"/>
      <use xlink:href="#DejaVuSans-65" x="349.105469"/>
      <use xlink:href="#DejaVuSans-20" x="410.628906"/>
      <use xlink:href="#DejaVuSans-28" x="442.416016"/>
      <use xlink:href="#DejaVuSans-41" x="481.429688"/>
      <use xlink:href="#DejaVuSans-6e" x="549.837891"/>
      <use xlink:href="#DejaVuSans-74" x="613.216797"/>
      <use xlink:href="#DejaVuSans-69" x="652.425781"/>
      <use xlink:href="#DejaVuSans-63" x="680.208984"/>
      <use xlink:href="#DejaVuSans-69" x="735.189453"/>
      <use xlink:href="#DejaVuSans-70" x="762.972656"/>
      <use xlink:href="#DejaVuSans-61" x="826.449219"/>
      <use xlink:href="#DejaVuSans-74" x="887.728516"/>
      <use xlink:href="#DejaVuSans-69" x="926.9375"/>
      <use xlink:href="#DejaVuSans-6f" x="954.720703"/>
      <use xlink:href="#DejaVuSans-6e" x="1015.902344"/>
      <use xlink:href="#DejaVuSans-29" x="1079.28125"/>
     </g>
    </g>
   </g>
  </g>
 </g>
 <defs>
  <clipPath id="p1153b94c72">
   <rect x="57.6" y="41.472" width="357.12" height="266.112"/>
  </clipPath>
 </defs>
</svg>
