<?xml version="1.0" encoding="utf-8" standalone="no"?>
<!DOCTYPE svg PUBLIC "-//W3C//DTD SVG 1.1//EN"
  "http://www.w3.org/Graphics/SVG/1.1/DTD/svg11.dtd">
<svg xmlns:xlink="http://www.w3.org/1999/xlink" width="460.8pt" height="345.6pt" viewBox="0 0 460.8 345.6" xmlns="http://www.w3.org/2000/svg" version="1.1">
 <metadata>
  <rdf:RDF xmlns:dc="http://purl.org/dc/elements/1.1/" xmlns:cc="http://creativecommons.org/ns#" xmlns:rdf="http://www.w3.org/1999/02/22-rdf-syntax-ns#">
   <cc:Work>
    <dc:type rdf:resource="http://purl.org/dc/dcmitype/StillImage"/>
    <dc:date>2022-10-04T12:41:44.959884</dc:date>
    <dc:format>image/svg+xml</dc:format>
    <dc:creator>
     <cc:Agent>
      <dc:title>Matplotlib v3.5.3, https://matplotlib.org/</dc:title>
     </cc:Agent>
    </dc:creator>
   </cc:Work>
  </rdf:RDF>
 </metadata>
 <defs>
  <style type="text/css">*{stroke-linejoin: round; stroke-linecap: butt}</style>
 </defs>
 <g id="figure_1">
  <g id="patch_1">
   <path d="M 0 345.6 
L 460.8 345.6 
L 460.8 0 
L 0 0 
z
" style="fill: #ffffff"/>
  </g>
  <g id="axes_1">
   <g id="patch_2">
    <path d="M 57.6 307.584 
L 414.72 307.584 
L 414.72 41.472 
L 57.6 41.472 
z
" style="fill: #ffffff"/>
   </g>
   <g id="matplotlib.axis_1">
    <g id="xtick_1">
     <g id="line2d_1">
      <defs>
       <path id="m38bec04386" d="M 0 0 
L 0 3.5 
" style="stroke: #000000; stroke-width: 0.8"/>
      </defs>
      <g>
       <use xlink:href="#m38bec04386" x="73.832727" y="307.584" style="stroke: #000000; stroke-width: 0.8"/>
      </g>
     </g>
     <g id="text_1">
      <!-- 0 -->
      <g transform="translate(70.651477 322.182437)scale(0.1 -0.1)">
       <defs>
        <path id="DejaVuSans-30" d="M 2034 4250 
Q 1547 4250 1301 3770 
Q 1056 3291 1056 2328 
Q 1056 1369 1301 889 
Q 1547 409 2034 409 
Q 2525 409 2770 889 
Q 3016 1369 3016 2328 
Q 3016 3291 2770 3770 
Q 2525 4250 2034 4250 
z
M 2034 4750 
Q 2819 4750 3233 4129 
Q 3647 3509 3647 2328 
Q 3647 1150 3233 529 
Q 2819 -91 2034 -91 
Q 1250 -91 836 529 
Q 422 1150 422 2328 
Q 422 3509 836 4129 
Q 1250 4750 2034 4750 
z
" transform="scale(0.015625)"/>
       </defs>
       <use xlink:href="#DejaVuSans-30"/>
      </g>
     </g>
    </g>
    <g id="xtick_2">
     <g id="line2d_2">
      <g>
       <use xlink:href="#m38bec04386" x="138.828632" y="307.584" style="stroke: #000000; stroke-width: 0.8"/>
      </g>
     </g>
     <g id="text_2">
      <!-- 200 -->
      <g transform="translate(129.284882 322.182437)scale(0.1 -0.1)">
       <defs>
        <path id="DejaVuSans-32" d="M 1228 531 
L 3431 531 
L 3431 0 
L 469 0 
L 469 531 
Q 828 903 1448 1529 
Q 2069 2156 2228 2338 
Q 2531 2678 2651 2914 
Q 2772 3150 2772 3378 
Q 2772 3750 2511 3984 
Q 2250 4219 1831 4219 
Q 1534 4219 1204 4116 
Q 875 4013 500 3803 
L 500 4441 
Q 881 4594 1212 4672 
Q 1544 4750 1819 4750 
Q 2544 4750 2975 4387 
Q 3406 4025 3406 3419 
Q 3406 3131 3298 2873 
Q 3191 2616 2906 2266 
Q 2828 2175 2409 1742 
Q 1991 1309 1228 531 
z
" transform="scale(0.015625)"/>
       </defs>
       <use xlink:href="#DejaVuSans-32"/>
       <use xlink:href="#DejaVuSans-30" x="63.623047"/>
       <use xlink:href="#DejaVuSans-30" x="127.246094"/>
      </g>
     </g>
    </g>
    <g id="xtick_3">
     <g id="line2d_3">
      <g>
       <use xlink:href="#m38bec04386" x="203.824537" y="307.584" style="stroke: #000000; stroke-width: 0.8"/>
      </g>
     </g>
     <g id="text_3">
      <!-- 400 -->
      <g transform="translate(194.280787 322.182437)scale(0.1 -0.1)">
       <defs>
        <path id="DejaVuSans-34" d="M 2419 4116 
L 825 1625 
L 2419 1625 
L 2419 4116 
z
M 2253 4666 
L 3047 4666 
L 3047 1625 
L 3713 1625 
L 3713 1100 
L 3047 1100 
L 3047 0 
L 2419 0 
L 2419 1100 
L 313 1100 
L 313 1709 
L 2253 4666 
z
" transform="scale(0.015625)"/>
       </defs>
       <use xlink:href="#DejaVuSans-34"/>
       <use xlink:href="#DejaVuSans-30" x="63.623047"/>
       <use xlink:href="#DejaVuSans-30" x="127.246094"/>
      </g>
     </g>
    </g>
    <g id="xtick_4">
     <g id="line2d_4">
      <g>
       <use xlink:href="#m38bec04386" x="268.820442" y="307.584" style="stroke: #000000; stroke-width: 0.8"/>
      </g>
     </g>
     <g id="text_4">
      <!-- 600 -->
      <g transform="translate(259.276692 322.182437)scale(0.1 -0.1)">
       <defs>
        <path id="DejaVuSans-36" d="M 2113 2584 
Q 1688 2584 1439 2293 
Q 1191 2003 1191 1497 
Q 1191 994 1439 701 
Q 1688 409 2113 409 
Q 2538 409 2786 701 
Q 3034 994 3034 1497 
Q 3034 2003 2786 2293 
Q 2538 2584 2113 2584 
z
M 3366 4563 
L 3366 3988 
Q 3128 4100 2886 4159 
Q 2644 4219 2406 4219 
Q 1781 4219 1451 3797 
Q 1122 3375 1075 2522 
Q 1259 2794 1537 2939 
Q 1816 3084 2150 3084 
Q 2853 3084 3261 2657 
Q 3669 2231 3669 1497 
Q 3669 778 3244 343 
Q 2819 -91 2113 -91 
Q 1303 -91 875 529 
Q 447 1150 447 2328 
Q 447 3434 972 4092 
Q 1497 4750 2381 4750 
Q 2619 4750 2861 4703 
Q 3103 4656 3366 4563 
z
" transform="scale(0.015625)"/>
       </defs>
       <use xlink:href="#DejaVuSans-36"/>
       <use xlink:href="#DejaVuSans-30" x="63.623047"/>
       <use xlink:href="#DejaVuSans-30" x="127.246094"/>
      </g>
     </g>
    </g>
    <g id="xtick_5">
     <g id="line2d_5">
      <g>
       <use xlink:href="#m38bec04386" x="333.816347" y="307.584" style="stroke: #000000; stroke-width: 0.8"/>
      </g>
     </g>
     <g id="text_5">
      <!-- 800 -->
      <g transform="translate(324.272597 322.182437)scale(0.1 -0.1)">
       <defs>
        <path id="DejaVuSans-38" d="M 2034 2216 
Q 1584 2216 1326 1975 
Q 1069 1734 1069 1313 
Q 1069 891 1326 650 
Q 1584 409 2034 409 
Q 2484 409 2743 651 
Q 3003 894 3003 1313 
Q 3003 1734 2745 1975 
Q 2488 2216 2034 2216 
z
M 1403 2484 
Q 997 2584 770 2862 
Q 544 3141 544 3541 
Q 544 4100 942 4425 
Q 1341 4750 2034 4750 
Q 2731 4750 3128 4425 
Q 3525 4100 3525 3541 
Q 3525 3141 3298 2862 
Q 3072 2584 2669 2484 
Q 3125 2378 3379 2068 
Q 3634 1759 3634 1313 
Q 3634 634 3220 271 
Q 2806 -91 2034 -91 
Q 1263 -91 848 271 
Q 434 634 434 1313 
Q 434 1759 690 2068 
Q 947 2378 1403 2484 
z
M 1172 3481 
Q 1172 3119 1398 2916 
Q 1625 2713 2034 2713 
Q 2441 2713 2670 2916 
Q 2900 3119 2900 3481 
Q 2900 3844 2670 4047 
Q 2441 4250 2034 4250 
Q 1625 4250 1398 4047 
Q 1172 3844 1172 3481 
z
" transform="scale(0.015625)"/>
       </defs>
       <use xlink:href="#DejaVuSans-38"/>
       <use xlink:href="#DejaVuSans-30" x="63.623047"/>
       <use xlink:href="#DejaVuSans-30" x="127.246094"/>
      </g>
     </g>
    </g>
    <g id="xtick_6">
     <g id="line2d_6">
      <g>
       <use xlink:href="#m38bec04386" x="398.812252" y="307.584" style="stroke: #000000; stroke-width: 0.8"/>
      </g>
     </g>
     <g id="text_6">
      <!-- 1000 -->
      <g transform="translate(386.087252 322.182437)scale(0.1 -0.1)">
       <defs>
        <path id="DejaVuSans-31" d="M 794 531 
L 1825 531 
L 1825 4091 
L 703 3866 
L 703 4441 
L 1819 4666 
L 2450 4666 
L 2450 531 
L 3481 531 
L 3481 0 
L 794 0 
L 794 531 
z
" transform="scale(0.015625)"/>
       </defs>
       <use xlink:href="#DejaVuSans-31"/>
       <use xlink:href="#DejaVuSans-30" x="63.623047"/>
       <use xlink:href="#DejaVuSans-30" x="127.246094"/>
       <use xlink:href="#DejaVuSans-30" x="190.869141"/>
      </g>
     </g>
    </g>
    <g id="text_7">
     <!-- Number of Orders -->
     <g transform="translate(191.261562 335.860562)scale(0.1 -0.1)">
      <defs>
       <path id="DejaVuSans-4e" d="M 628 4666 
L 1478 4666 
L 3547 763 
L 3547 4666 
L 4159 4666 
L 4159 0 
L 3309 0 
L 1241 3903 
L 1241 0 
L 628 0 
L 628 4666 
z
" transform="scale(0.015625)"/>
       <path id="DejaVuSans-75" d="M 544 1381 
L 544 3500 
L 1119 3500 
L 1119 1403 
Q 1119 906 1312 657 
Q 1506 409 1894 409 
Q 2359 409 2629 706 
Q 2900 1003 2900 1516 
L 2900 3500 
L 3475 3500 
L 3475 0 
L 2900 0 
L 2900 538 
Q 2691 219 2414 64 
Q 2138 -91 1772 -91 
Q 1169 -91 856 284 
Q 544 659 544 1381 
z
M 1991 3584 
L 1991 3584 
z
" transform="scale(0.015625)"/>
       <path id="DejaVuSans-6d" d="M 3328 2828 
Q 3544 3216 3844 3400 
Q 4144 3584 4550 3584 
Q 5097 3584 5394 3201 
Q 5691 2819 5691 2113 
L 5691 0 
L 5113 0 
L 5113 2094 
Q 5113 2597 4934 2840 
Q 4756 3084 4391 3084 
Q 3944 3084 3684 2787 
Q 3425 2491 3425 1978 
L 3425 0 
L 2847 0 
L 2847 2094 
Q 2847 2600 2669 2842 
Q 2491 3084 2119 3084 
Q 1678 3084 1418 2786 
Q 1159 2488 1159 1978 
L 1159 0 
L 581 0 
L 581 3500 
L 1159 3500 
L 1159 2956 
Q 1356 3278 1631 3431 
Q 1906 3584 2284 3584 
Q 2666 3584 2933 3390 
Q 3200 3197 3328 2828 
z
" transform="scale(0.015625)"/>
       <path id="DejaVuSans-62" d="M 3116 1747 
Q 3116 2381 2855 2742 
Q 2594 3103 2138 3103 
Q 1681 3103 1420 2742 
Q 1159 2381 1159 1747 
Q 1159 1113 1420 752 
Q 1681 391 2138 391 
Q 2594 391 2855 752 
Q 3116 1113 3116 1747 
z
M 1159 2969 
Q 1341 3281 1617 3432 
Q 1894 3584 2278 3584 
Q 2916 3584 3314 3078 
Q 3713 2572 3713 1747 
Q 3713 922 3314 415 
Q 2916 -91 2278 -91 
Q 1894 -91 1617 61 
Q 1341 213 1159 525 
L 1159 0 
L 581 0 
L 581 4863 
L 1159 4863 
L 1159 2969 
z
" transform="scale(0.015625)"/>
       <path id="DejaVuSans-65" d="M 3597 1894 
L 3597 1613 
L 953 1613 
Q 991 1019 1311 708 
Q 1631 397 2203 397 
Q 2534 397 2845 478 
Q 3156 559 3463 722 
L 3463 178 
Q 3153 47 2828 -22 
Q 2503 -91 2169 -91 
Q 1331 -91 842 396 
Q 353 884 353 1716 
Q 353 2575 817 3079 
Q 1281 3584 2069 3584 
Q 2775 3584 3186 3129 
Q 3597 2675 3597 1894 
z
M 3022 2063 
Q 3016 2534 2758 2815 
Q 2500 3097 2075 3097 
Q 1594 3097 1305 2825 
Q 1016 2553 972 2059 
L 3022 2063 
z
" transform="scale(0.015625)"/>
       <path id="DejaVuSans-72" d="M 2631 2963 
Q 2534 3019 2420 3045 
Q 2306 3072 2169 3072 
Q 1681 3072 1420 2755 
Q 1159 2438 1159 1844 
L 1159 0 
L 581 0 
L 581 3500 
L 1159 3500 
L 1159 2956 
Q 1341 3275 1631 3429 
Q 1922 3584 2338 3584 
Q 2397 3584 2469 3576 
Q 2541 3569 2628 3553 
L 2631 2963 
z
" transform="scale(0.015625)"/>
       <path id="DejaVuSans-20" transform="scale(0.015625)"/>
       <path id="DejaVuSans-6f" d="M 1959 3097 
Q 1497 3097 1228 2736 
Q 959 2375 959 1747 
Q 959 1119 1226 758 
Q 1494 397 1959 397 
Q 2419 397 2687 759 
Q 2956 1122 2956 1747 
Q 2956 2369 2687 2733 
Q 2419 3097 1959 3097 
z
M 1959 3584 
Q 2709 3584 3137 3096 
Q 3566 2609 3566 1747 
Q 3566 888 3137 398 
Q 2709 -91 1959 -91 
Q 1206 -91 779 398 
Q 353 888 353 1747 
Q 353 2609 779 3096 
Q 1206 3584 1959 3584 
z
" transform="scale(0.015625)"/>
       <path id="DejaVuSans-66" d="M 2375 4863 
L 2375 4384 
L 1825 4384 
Q 1516 4384 1395 4259 
Q 1275 4134 1275 3809 
L 1275 3500 
L 2222 3500 
L 2222 3053 
L 1275 3053 
L 1275 0 
L 697 0 
L 697 3053 
L 147 3053 
L 147 3500 
L 697 3500 
L 697 3744 
Q 697 4328 969 4595 
Q 1241 4863 1831 4863 
L 2375 4863 
z
" transform="scale(0.015625)"/>
       <path id="DejaVuSans-4f" d="M 2522 4238 
Q 1834 4238 1429 3725 
Q 1025 3213 1025 2328 
Q 1025 1447 1429 934 
Q 1834 422 2522 422 
Q 3209 422 3611 934 
Q 4013 1447 4013 2328 
Q 4013 3213 3611 3725 
Q 3209 4238 2522 4238 
z
M 2522 4750 
Q 3503 4750 4090 4092 
Q 4678 3434 4678 2328 
Q 4678 1225 4090 567 
Q 3503 -91 2522 -91 
Q 1538 -91 948 565 
Q 359 1222 359 2328 
Q 359 3434 948 4092 
Q 1538 4750 2522 4750 
z
" transform="scale(0.015625)"/>
       <path id="DejaVuSans-64" d="M 2906 2969 
L 2906 4863 
L 3481 4863 
L 3481 0 
L 2906 0 
L 2906 525 
Q 2725 213 2448 61 
Q 2172 -91 1784 -91 
Q 1150 -91 751 415 
Q 353 922 353 1747 
Q 353 2572 751 3078 
Q 1150 3584 1784 3584 
Q 2172 3584 2448 3432 
Q 2725 3281 2906 2969 
z
M 947 1747 
Q 947 1113 1208 752 
Q 1469 391 1925 391 
Q 2381 391 2643 752 
Q 2906 1113 2906 1747 
Q 2906 2381 2643 2742 
Q 2381 3103 1925 3103 
Q 1469 3103 1208 2742 
Q 947 2381 947 1747 
z
" transform="scale(0.015625)"/>
       <path id="DejaVuSans-73" d="M 2834 3397 
L 2834 2853 
Q 2591 2978 2328 3040 
Q 2066 3103 1784 3103 
Q 1356 3103 1142 2972 
Q 928 2841 928 2578 
Q 928 2378 1081 2264 
Q 1234 2150 1697 2047 
L 1894 2003 
Q 2506 1872 2764 1633 
Q 3022 1394 3022 966 
Q 3022 478 2636 193 
Q 2250 -91 1575 -91 
Q 1294 -91 989 -36 
Q 684 19 347 128 
L 347 722 
Q 666 556 975 473 
Q 1284 391 1588 391 
Q 1994 391 2212 530 
Q 2431 669 2431 922 
Q 2431 1156 2273 1281 
Q 2116 1406 1581 1522 
L 1381 1569 
Q 847 1681 609 1914 
Q 372 2147 372 2553 
Q 372 3047 722 3315 
Q 1072 3584 1716 3584 
Q 2034 3584 2315 3537 
Q 2597 3491 2834 3397 
z
" transform="scale(0.015625)"/>
      </defs>
      <use xlink:href="#DejaVuSans-4e"/>
      <use xlink:href="#DejaVuSans-75" x="74.804688"/>
      <use xlink:href="#DejaVuSans-6d" x="138.183594"/>
      <use xlink:href="#DejaVuSans-62" x="235.595703"/>
      <use xlink:href="#DejaVuSans-65" x="299.072266"/>
      <use xlink:href="#DejaVuSans-72" x="360.595703"/>
      <use xlink:href="#DejaVuSans-20" x="401.708984"/>
      <use xlink:href="#DejaVuSans-6f" x="433.496094"/>
      <use xlink:href="#DejaVuSans-66" x="494.677734"/>
      <use xlink:href="#DejaVuSans-20" x="529.882812"/>
      <use xlink:href="#DejaVuSans-4f" x="561.669922"/>
      <use xlink:href="#DejaVuSans-72" x="640.380859"/>
      <use xlink:href="#DejaVuSans-64" x="679.744141"/>
      <use xlink:href="#DejaVuSans-65" x="743.220703"/>
      <use xlink:href="#DejaVuSans-72" x="804.744141"/>
      <use xlink:href="#DejaVuSans-73" x="845.857422"/>
     </g>
    </g>
   </g>
   <g id="matplotlib.axis_2">
    <g id="ytick_1">
     <g id="line2d_7">
      <defs>
       <path id="m14b1053eb7" d="M 0 0 
L -3.5 0 
" style="stroke: #000000; stroke-width: 0.8"/>
      </defs>
      <g>
       <use xlink:href="#m14b1053eb7" x="57.6" y="301.816179" style="stroke: #000000; stroke-width: 0.8"/>
      </g>
     </g>
     <g id="text_8">
      <!-- 250 -->
      <g transform="translate(31.5125 305.615398)scale(0.1 -0.1)">
       <defs>
        <path id="DejaVuSans-35" d="M 691 4666 
L 3169 4666 
L 3169 4134 
L 1269 4134 
L 1269 2991 
Q 1406 3038 1543 3061 
Q 1681 3084 1819 3084 
Q 2600 3084 3056 2656 
Q 3513 2228 3513 1497 
Q 3513 744 3044 326 
Q 2575 -91 1722 -91 
Q 1428 -91 1123 -41 
Q 819 9 494 109 
L 494 744 
Q 775 591 1075 516 
Q 1375 441 1709 441 
Q 2250 441 2565 725 
Q 2881 1009 2881 1497 
Q 2881 1984 2565 2268 
Q 2250 2553 1709 2553 
Q 1456 2553 1204 2497 
Q 953 2441 691 2322 
L 691 4666 
z
" transform="scale(0.015625)"/>
       </defs>
       <use xlink:href="#DejaVuSans-32"/>
       <use xlink:href="#DejaVuSans-35" x="63.623047"/>
       <use xlink:href="#DejaVuSans-30" x="127.246094"/>
      </g>
     </g>
    </g>
    <g id="ytick_2">
     <g id="line2d_8">
      <g>
       <use xlink:href="#m14b1053eb7" x="57.6" y="257.887603" style="stroke: #000000; stroke-width: 0.8"/>
      </g>
     </g>
     <g id="text_9">
      <!-- 300 -->
      <g transform="translate(31.5125 261.686822)scale(0.1 -0.1)">
       <defs>
        <path id="DejaVuSans-33" d="M 2597 2516 
Q 3050 2419 3304 2112 
Q 3559 1806 3559 1356 
Q 3559 666 3084 287 
Q 2609 -91 1734 -91 
Q 1441 -91 1130 -33 
Q 819 25 488 141 
L 488 750 
Q 750 597 1062 519 
Q 1375 441 1716 441 
Q 2309 441 2620 675 
Q 2931 909 2931 1356 
Q 2931 1769 2642 2001 
Q 2353 2234 1838 2234 
L 1294 2234 
L 1294 2753 
L 1863 2753 
Q 2328 2753 2575 2939 
Q 2822 3125 2822 3475 
Q 2822 3834 2567 4026 
Q 2313 4219 1838 4219 
Q 1578 4219 1281 4162 
Q 984 4106 628 3988 
L 628 4550 
Q 988 4650 1302 4700 
Q 1616 4750 1894 4750 
Q 2613 4750 3031 4423 
Q 3450 4097 3450 3541 
Q 3450 3153 3228 2886 
Q 3006 2619 2597 2516 
z
" transform="scale(0.015625)"/>
       </defs>
       <use xlink:href="#DejaVuSans-33"/>
       <use xlink:href="#DejaVuSans-30" x="63.623047"/>
       <use xlink:href="#DejaVuSans-30" x="127.246094"/>
      </g>
     </g>
    </g>
    <g id="ytick_3">
     <g id="line2d_9">
      <g>
       <use xlink:href="#m14b1053eb7" x="57.6" y="213.959027" style="stroke: #000000; stroke-width: 0.8"/>
      </g>
     </g>
     <g id="text_10">
      <!-- 350 -->
      <g transform="translate(31.5125 217.758246)scale(0.1 -0.1)">
       <use xlink:href="#DejaVuSans-33"/>
       <use xlink:href="#DejaVuSans-35" x="63.623047"/>
       <use xlink:href="#DejaVuSans-30" x="127.246094"/>
      </g>
     </g>
    </g>
    <g id="ytick_4">
     <g id="line2d_10">
      <g>
       <use xlink:href="#m14b1053eb7" x="57.6" y="170.030451" style="stroke: #000000; stroke-width: 0.8"/>
      </g>
     </g>
     <g id="text_11">
      <!-- 400 -->
      <g transform="translate(31.5125 173.82967)scale(0.1 -0.1)">
       <use xlink:href="#DejaVuSans-34"/>
       <use xlink:href="#DejaVuSans-30" x="63.623047"/>
       <use xlink:href="#DejaVuSans-30" x="127.246094"/>
      </g>
     </g>
    </g>
    <g id="ytick_5">
     <g id="line2d_11">
      <g>
       <use xlink:href="#m14b1053eb7" x="57.6" y="126.101875" style="stroke: #000000; stroke-width: 0.8"/>
      </g>
     </g>
     <g id="text_12">
      <!-- 450 -->
      <g transform="translate(31.5125 129.901094)scale(0.1 -0.1)">
       <use xlink:href="#DejaVuSans-34"/>
       <use xlink:href="#DejaVuSans-35" x="63.623047"/>
       <use xlink:href="#DejaVuSans-30" x="127.246094"/>
      </g>
     </g>
    </g>
    <g id="ytick_6">
     <g id="line2d_12">
      <g>
       <use xlink:href="#m14b1053eb7" x="57.6" y="82.1733" style="stroke: #000000; stroke-width: 0.8"/>
      </g>
     </g>
     <g id="text_13">
      <!-- 500 -->
      <g transform="translate(31.5125 85.972518)scale(0.1 -0.1)">
       <use xlink:href="#DejaVuSans-35"/>
       <use xlink:href="#DejaVuSans-30" x="63.623047"/>
       <use xlink:href="#DejaVuSans-30" x="127.246094"/>
      </g>
     </g>
    </g>
    <g id="text_14">
     <!-- Waiting Time/s -->
     <g transform="translate(25.432812 211.410031)rotate(-90)scale(0.1 -0.1)">
      <defs>
       <path id="DejaVuSans-57" d="M 213 4666 
L 850 4666 
L 1831 722 
L 2809 4666 
L 3519 4666 
L 4500 722 
L 5478 4666 
L 6119 4666 
L 4947 0 
L 4153 0 
L 3169 4050 
L 2175 0 
L 1381 0 
L 213 4666 
z
" transform="scale(0.015625)"/>
       <path id="DejaVuSans-61" d="M 2194 1759 
Q 1497 1759 1228 1600 
Q 959 1441 959 1056 
Q 959 750 1161 570 
Q 1363 391 1709 391 
Q 2188 391 2477 730 
Q 2766 1069 2766 1631 
L 2766 1759 
L 2194 1759 
z
M 3341 1997 
L 3341 0 
L 2766 0 
L 2766 531 
Q 2569 213 2275 61 
Q 1981 -91 1556 -91 
Q 1019 -91 701 211 
Q 384 513 384 1019 
Q 384 1609 779 1909 
Q 1175 2209 1959 2209 
L 2766 2209 
L 2766 2266 
Q 2766 2663 2505 2880 
Q 2244 3097 1772 3097 
Q 1472 3097 1187 3025 
Q 903 2953 641 2809 
L 641 3341 
Q 956 3463 1253 3523 
Q 1550 3584 1831 3584 
Q 2591 3584 2966 3190 
Q 3341 2797 3341 1997 
z
" transform="scale(0.015625)"/>
       <path id="DejaVuSans-69" d="M 603 3500 
L 1178 3500 
L 1178 0 
L 603 0 
L 603 3500 
z
M 603 4863 
L 1178 4863 
L 1178 4134 
L 603 4134 
L 603 4863 
z
" transform="scale(0.015625)"/>
       <path id="DejaVuSans-74" d="M 1172 4494 
L 1172 3500 
L 2356 3500 
L 2356 3053 
L 1172 3053 
L 1172 1153 
Q 1172 725 1289 603 
Q 1406 481 1766 481 
L 2356 481 
L 2356 0 
L 1766 0 
Q 1100 0 847 248 
Q 594 497 594 1153 
L 594 3053 
L 172 3053 
L 172 3500 
L 594 3500 
L 594 4494 
L 1172 4494 
z
" transform="scale(0.015625)"/>
       <path id="DejaVuSans-6e" d="M 3513 2113 
L 3513 0 
L 2938 0 
L 2938 2094 
Q 2938 2591 2744 2837 
Q 2550 3084 2163 3084 
Q 1697 3084 1428 2787 
Q 1159 2491 1159 1978 
L 1159 0 
L 581 0 
L 581 3500 
L 1159 3500 
L 1159 2956 
Q 1366 3272 1645 3428 
Q 1925 3584 2291 3584 
Q 2894 3584 3203 3211 
Q 3513 2838 3513 2113 
z
" transform="scale(0.015625)"/>
       <path id="DejaVuSans-67" d="M 2906 1791 
Q 2906 2416 2648 2759 
Q 2391 3103 1925 3103 
Q 1463 3103 1205 2759 
Q 947 2416 947 1791 
Q 947 1169 1205 825 
Q 1463 481 1925 481 
Q 2391 481 2648 825 
Q 2906 1169 2906 1791 
z
M 3481 434 
Q 3481 -459 3084 -895 
Q 2688 -1331 1869 -1331 
Q 1566 -1331 1297 -1286 
Q 1028 -1241 775 -1147 
L 775 -588 
Q 1028 -725 1275 -790 
Q 1522 -856 1778 -856 
Q 2344 -856 2625 -561 
Q 2906 -266 2906 331 
L 2906 616 
Q 2728 306 2450 153 
Q 2172 0 1784 0 
Q 1141 0 747 490 
Q 353 981 353 1791 
Q 353 2603 747 3093 
Q 1141 3584 1784 3584 
Q 2172 3584 2450 3431 
Q 2728 3278 2906 2969 
L 2906 3500 
L 3481 3500 
L 3481 434 
z
" transform="scale(0.015625)"/>
       <path id="DejaVuSans-54" d="M -19 4666 
L 3928 4666 
L 3928 4134 
L 2272 4134 
L 2272 0 
L 1638 0 
L 1638 4134 
L -19 4134 
L -19 4666 
z
" transform="scale(0.015625)"/>
       <path id="DejaVuSans-2f" d="M 1625 4666 
L 2156 4666 
L 531 -594 
L 0 -594 
L 1625 4666 
z
" transform="scale(0.015625)"/>
      </defs>
      <use xlink:href="#DejaVuSans-57"/>
      <use xlink:href="#DejaVuSans-61" x="92.501953"/>
      <use xlink:href="#DejaVuSans-69" x="153.78125"/>
      <use xlink:href="#DejaVuSans-74" x="181.564453"/>
      <use xlink:href="#DejaVuSans-69" x="220.773438"/>
      <use xlink:href="#DejaVuSans-6e" x="248.556641"/>
      <use xlink:href="#DejaVuSans-67" x="311.935547"/>
      <use xlink:href="#DejaVuSans-20" x="375.412109"/>
      <use xlink:href="#DejaVuSans-54" x="407.199219"/>
      <use xlink:href="#DejaVuSans-69" x="465.158203"/>
      <use xlink:href="#DejaVuSans-6d" x="492.941406"/>
      <use xlink:href="#DejaVuSans-65" x="590.353516"/>
      <use xlink:href="#DejaVuSans-2f" x="651.876953"/>
      <use xlink:href="#DejaVuSans-73" x="685.568359"/>
     </g>
    </g>
   </g>
   <g id="line2d_13">
    <path d="M 73.832727 295.488 
L 74.157707 223.776989 
L 74.482686 226.045957 
L 75.132645 170.96343 
L 75.457625 136.23152 
L 75.782604 177.88596 
L 76.107584 185.04478 
L 76.757543 177.300277 
L 77.082523 183.520802 
L 77.732482 152.372021 
L 78.057461 154.282784 
L 78.382441 146.647568 
L 78.70742 123.354028 
L 79.0324 108.967838 
L 79.682359 112.031093 
L 80.007338 104.395978 
L 80.332318 103.760541 
L 80.657297 105.302935 
L 80.982277 93.76201 
L 81.307256 94.048138 
L 81.632236 93.788665 
L 81.957215 88.096403 
L 82.282195 92.795919 
L 82.607174 88.82833 
L 82.932154 88.477814 
L 83.257133 86.043101 
L 83.582113 88.052167 
L 83.907093 74.666084 
L 84.232072 71.941433 
L 84.557052 74.606786 
L 84.882031 65.302504 
L 85.207011 73.105913 
L 85.53199 70.901645 
L 85.85697 73.837729 
L 86.181949 72.514711 
L 86.506929 65.047203 
L 86.831908 60.805893 
L 87.156888 60.097544 
L 87.481867 57.621774 
L 87.806847 62.969876 
L 88.131826 62.242547 
L 88.456806 59.846814 
L 88.781785 60.129373 
L 89.106765 61.457163 
L 89.431744 64.374031 
L 89.756724 69.297883 
L 90.081704 66.691258 
L 90.406683 61.5562 
L 90.731663 66.6354 
L 91.056642 66.506983 
L 91.381622 63.863601 
L 91.706601 69.489113 
L 92.031581 71.055935 
L 92.35656 68.532778 
L 92.68154 68.496181 
L 93.006519 68.090934 
L 93.331499 62.717946 
L 93.656478 60.134866 
L 93.981458 60.566968 
L 94.306437 60.297196 
L 94.631417 62.235833 
L 94.956396 65.624949 
L 95.281376 63.76358 
L 95.606355 59.923868 
L 95.931335 59.106321 
L 96.256314 57.168271 
L 96.581294 57.744357 
L 96.906274 58.876729 
L 97.231253 57.710397 
L 97.881212 56.670697 
L 98.206192 58.015403 
L 98.531171 55.035822 
L 98.856151 54.712962 
L 99.18113 53.621985 
L 99.50611 53.568 
L 99.831089 54.383954 
L 100.156069 57.478373 
L 100.481048 57.209386 
L 101.131007 61.138581 
L 101.455987 60.808003 
L 101.780966 58.846051 
L 102.105946 58.709716 
L 102.430925 59.34658 
L 102.755905 59.399788 
L 103.080885 62.660828 
L 103.730844 64.312435 
L 104.055823 62.744833 
L 104.380803 62.595506 
L 105.030762 67.751252 
L 105.355741 68.508419 
L 105.680721 68.925397 
L 106.0057 71.348097 
L 106.33068 74.901895 
L 106.655659 75.789553 
L 106.980639 75.04986 
L 107.305618 78.257476 
L 107.630598 78.708576 
L 107.955577 77.310227 
L 108.280557 76.862932 
L 108.605536 78.808129 
L 108.930516 79.531751 
L 109.255495 79.846493 
L 109.580475 79.46595 
L 109.905455 82.121522 
L 110.880393 86.864816 
L 111.205373 85.918221 
L 111.530352 87.090683 
L 111.855332 84.615123 
L 112.180311 84.06494 
L 112.505291 85.221396 
L 112.83027 86.929493 
L 113.15525 86.748416 
L 113.480229 85.919048 
L 113.805209 87.098136 
L 114.130188 88.77335 
L 114.455168 88.375357 
L 115.105127 91.623484 
L 115.430106 88.505192 
L 115.755086 88.52262 
L 116.080066 85.594783 
L 116.405045 84.524997 
L 116.730025 82.436013 
L 117.055004 84.952625 
L 117.704963 87.269573 
L 118.029943 87.561614 
L 118.354922 89.567744 
L 118.679902 88.926759 
L 119.004881 89.975729 
L 119.329861 89.019282 
L 119.65484 90.224875 
L 119.97982 89.855046 
L 120.304799 88.404316 
L 120.629779 88.183502 
L 120.954758 86.979439 
L 121.604717 83.200918 
L 121.929697 84.176147 
L 122.254676 84.254421 
L 122.579656 84.902178 
L 122.904636 83.665878 
L 123.229615 83.840738 
L 123.554595 85.893144 
L 123.879574 85.468335 
L 124.529533 87.311369 
L 124.854513 87.745417 
L 125.179492 89.076863 
L 125.829451 86.792611 
L 126.154431 89.283626 
L 126.47941 88.977597 
L 126.80439 88.451649 
L 128.104308 92.543072 
L 128.429287 91.144628 
L 128.754267 91.943413 
L 129.079247 90.713811 
L 129.404226 90.211655 
L 129.729206 90.455096 
L 130.054185 89.315837 
L 130.704144 90.010955 
L 131.029124 89.544862 
L 131.354103 88.047537 
L 131.679083 88.460287 
L 132.004062 88.18858 
L 132.654021 90.527056 
L 132.979001 90.492158 
L 133.30398 91.695663 
L 133.62896 91.233586 
L 133.953939 90.257096 
L 134.278919 89.856182 
L 134.603898 91.28161 
L 134.928878 91.322254 
L 135.253857 92.102835 
L 135.578837 91.637068 
L 135.903817 92.593828 
L 136.553776 90.367646 
L 136.878755 90.214536 
L 137.528714 89.359054 
L 137.853694 89.871385 
L 138.503653 89.281342 
L 138.828632 89.843264 
L 139.153612 90.032735 
L 139.478591 89.815834 
L 139.803571 90.787178 
L 140.12855 90.45354 
L 140.45353 90.549595 
L 140.778509 90.100242 
L 141.103489 90.083712 
L 141.428468 90.757937 
L 141.753448 90.693622 
L 142.078428 89.960697 
L 142.403407 90.669946 
L 142.728387 90.294665 
L 143.053366 90.228045 
L 143.378346 90.492576 
L 143.703325 89.472989 
L 144.028305 89.136258 
L 144.353284 89.519605 
L 144.678264 90.099293 
L 145.653202 89.552098 
L 145.978182 90.064629 
L 146.303161 89.867435 
L 146.628141 90.321469 
L 146.95312 90.236869 
L 147.2781 89.49529 
L 148.253038 91.715055 
L 148.578018 91.314189 
L 148.902998 91.809121 
L 149.227977 91.958454 
L 149.877936 89.945537 
L 150.202916 91.027777 
L 150.527895 90.391774 
L 150.852875 91.446247 
L 151.177854 90.917631 
L 151.502834 91.998615 
L 151.827813 91.696307 
L 152.152793 91.719278 
L 152.477772 91.112459 
L 152.802752 89.568684 
L 153.127731 89.478369 
L 153.452711 89.784522 
L 153.77769 89.072954 
L 154.10267 89.471571 
L 154.427649 89.557959 
L 154.752629 90.552121 
L 155.077609 90.31229 
L 155.727568 91.558847 
L 156.052547 92.902967 
L 156.377527 92.653107 
L 157.027486 90.080078 
L 157.352465 90.495951 
L 157.677445 91.451026 
L 158.002424 90.925102 
L 158.327404 90.745399 
L 158.652383 89.86381 
L 158.977363 89.661265 
L 159.302342 88.934304 
L 159.952301 88.329055 
L 160.60226 88.264282 
L 160.92724 88.607968 
L 161.252219 88.319287 
L 161.577199 89.393243 
L 162.227158 88.698906 
L 162.552138 88.755991 
L 162.877117 88.963684 
L 163.202097 89.98289 
L 163.527076 89.988481 
L 163.852056 89.577208 
L 164.177035 90.90781 
L 164.502015 90.447021 
L 165.151974 90.484934 
L 165.476953 89.571155 
L 165.801933 89.25391 
L 166.451892 89.534906 
L 167.101851 91.20801 
L 167.42683 91.579873 
L 167.75181 92.505345 
L 168.401769 91.925166 
L 168.726749 91.072427 
L 169.051728 91.361659 
L 169.376708 91.114935 
L 169.701687 92.291701 
L 170.026667 91.783995 
L 170.351646 91.922781 
L 170.676626 91.057822 
L 171.001605 89.585855 
L 171.326585 90.009143 
L 171.651564 89.162545 
L 171.976544 89.32267 
L 172.301523 89.177853 
L 172.626503 89.906186 
L 172.951482 89.778916 
L 173.276462 89.039375 
L 173.601441 89.299435 
L 174.57638 89.269062 
L 174.90136 88.557421 
L 175.226339 88.372718 
L 175.551319 87.948436 
L 175.876298 88.252938 
L 176.201278 88.21362 
L 176.526257 87.430677 
L 176.851237 86.171935 
L 177.176216 86.438946 
L 178.151155 84.567848 
L 178.476134 84.867636 
L 178.801114 84.960107 
L 179.126093 84.044354 
L 179.451073 84.193828 
L 180.101032 83.468303 
L 180.426011 82.445043 
L 180.750991 82.584005 
L 181.40095 82.22408 
L 181.72593 83.178804 
L 182.050909 82.678251 
L 182.375889 82.574205 
L 182.700868 82.699067 
L 183.025848 83.29228 
L 183.350827 81.751669 
L 183.675807 82.248202 
L 184.000786 80.971079 
L 184.325766 80.787715 
L 184.975725 79.058663 
L 185.625684 80.272517 
L 185.950663 80.301309 
L 186.275643 79.667329 
L 186.600622 79.461544 
L 187.250581 80.08357 
L 187.575561 79.927068 
L 187.900541 78.169489 
L 188.5505 76.86601 
L 188.875479 77.511635 
L 189.200459 76.560508 
L 189.525438 76.927685 
L 189.850418 76.986549 
L 190.175397 77.692869 
L 190.500377 78.690899 
L 190.825356 79.010212 
L 191.150336 79.487192 
L 191.475315 79.278092 
L 192.450254 80.875446 
L 192.775233 80.920042 
L 193.100213 80.699647 
L 193.750172 79.648069 
L 194.075152 80.488434 
L 194.400131 80.708441 
L 195.05009 80.599549 
L 195.37507 80.013587 
L 195.700049 79.948617 
L 196.025029 80.47534 
L 196.350008 80.784799 
L 196.674988 80.364814 
L 196.999967 80.411298 
L 197.974906 79.442432 
L 198.299885 79.253108 
L 198.624865 79.834662 
L 198.949844 79.743392 
L 199.274824 79.810187 
L 199.599803 79.446411 
L 199.924783 79.938996 
L 200.249762 79.90003 
L 200.574742 79.713477 
L 200.899722 80.024693 
L 201.224701 79.686953 
L 201.549681 80.051726 
L 201.87466 79.368924 
L 202.19964 78.196755 
L 202.524619 78.510221 
L 202.849599 78.601425 
L 203.174578 78.248643 
L 203.499558 77.444892 
L 204.149517 76.923122 
L 204.474496 75.809282 
L 204.799476 75.906587 
L 205.124455 75.125473 
L 205.449435 75.502852 
L 205.774414 75.244343 
L 206.099394 75.434876 
L 206.424373 76.037436 
L 206.749353 75.962529 
L 207.074333 75.163777 
L 207.399312 75.27947 
L 207.724292 75.604941 
L 208.049271 75.159317 
L 208.374251 75.756026 
L 208.69923 75.875416 
L 209.02421 74.422761 
L 209.674169 73.267245 
L 209.999148 73.53901 
L 210.324128 73.580565 
L 210.649107 73.792462 
L 210.974087 74.502513 
L 211.299066 74.256591 
L 211.624046 74.681585 
L 211.949025 73.874816 
L 212.274005 74.322675 
L 212.598984 73.407217 
L 213.573923 75.606088 
L 213.898903 74.721525 
L 214.548862 74.235338 
L 214.873841 74.193652 
L 215.198821 73.650724 
L 215.5238 73.89863 
L 216.173759 73.882267 
L 216.823718 72.948509 
L 217.148698 73.406263 
L 217.473677 73.415537 
L 217.798657 73.611208 
L 218.123636 72.874466 
L 218.448616 73.034561 
L 218.773595 73.353279 
L 219.098575 73.197052 
L 219.423554 73.601942 
L 219.748534 73.525364 
L 220.073514 72.938227 
L 220.398493 73.02528 
L 220.723473 72.513789 
L 221.048452 73.114346 
L 221.373432 72.633866 
L 221.698411 73.521263 
L 222.023391 72.985281 
L 222.34837 73.072861 
L 222.67335 72.943941 
L 222.998329 72.482881 
L 223.323309 72.565423 
L 223.648288 72.763151 
L 223.973268 72.481941 
L 224.298247 71.960137 
L 224.623227 71.977651 
L 224.948206 72.220111 
L 225.273186 72.191214 
L 225.598165 71.956025 
L 225.923145 72.341209 
L 226.248124 72.484854 
L 226.573104 72.381475 
L 226.898084 72.770386 
L 227.223063 72.634063 
L 227.548043 72.768206 
L 227.873022 73.336763 
L 228.198002 73.577024 
L 228.522981 74.152782 
L 228.847961 74.372943 
L 229.17294 73.380106 
L 229.49792 73.765985 
L 229.822899 73.470897 
L 230.147879 73.544161 
L 230.472858 73.085053 
L 230.797838 73.780709 
L 231.122817 73.832996 
L 231.447797 73.533117 
L 232.097756 74.300034 
L 232.747715 74.469545 
L 233.072695 74.349507 
L 233.397674 74.821255 
L 233.722654 75.645373 
L 234.047633 75.60291 
L 234.372613 76.02322 
L 234.697592 76.169537 
L 235.022572 75.84098 
L 235.347551 76.230259 
L 235.672531 75.974175 
L 235.99751 76.658752 
L 236.32249 76.759329 
L 236.647469 77.183455 
L 236.972449 76.85245 
L 237.297428 76.971652 
L 237.622408 77.514012 
L 237.947387 77.437413 
L 238.272367 76.971135 
L 238.597346 77.376097 
L 238.922326 77.492401 
L 239.247305 77.060961 
L 239.572285 77.147764 
L 239.897265 77.082975 
L 240.222244 76.455488 
L 240.547224 76.889483 
L 240.872203 76.574544 
L 241.197183 76.805331 
L 241.847142 76.649997 
L 242.497101 76.8302 
L 242.82208 76.516528 
L 243.14706 76.540647 
L 243.797019 77.020098 
L 244.121998 77.1711 
L 244.446978 76.942806 
L 244.771957 77.154785 
L 245.096937 77.788438 
L 245.421916 77.782221 
L 245.746896 77.539387 
L 246.071876 78.138111 
L 246.396855 78.118073 
L 247.371794 77.639647 
L 248.346732 78.522469 
L 248.996691 77.664084 
L 249.321671 77.760565 
L 249.64665 77.316033 
L 249.97163 77.40642 
L 250.296609 77.908256 
L 250.621589 77.46736 
L 250.946568 77.229705 
L 251.271548 77.473422 
L 251.596527 76.996606 
L 251.921507 76.990201 
L 252.896446 75.934362 
L 253.221425 76.309649 
L 253.546405 76.145962 
L 253.871384 76.441692 
L 254.196364 76.280024 
L 254.521343 76.82326 
L 254.846323 77.005857 
L 255.171302 77.595674 
L 255.496282 77.486983 
L 255.821261 77.629485 
L 256.146241 78.1111 
L 256.47122 78.222103 
L 256.7962 77.734431 
L 257.121179 77.869243 
L 257.446159 77.588134 
L 257.771138 78.015072 
L 258.096118 77.470726 
L 258.421097 77.50692 
L 258.746077 77.760301 
L 259.071057 77.453474 
L 259.396036 77.353908 
L 260.045995 78.045408 
L 260.370975 77.83148 
L 261.020934 77.959034 
L 261.345913 78.521399 
L 261.670893 78.823021 
L 261.995872 78.791166 
L 262.320852 79.036477 
L 262.645831 79.12277 
L 262.970811 79.07927 
L 263.945749 79.783811 
L 264.270729 80.188781 
L 264.595708 79.561495 
L 265.245667 79.935439 
L 265.570647 79.596369 
L 266.220606 78.728361 
L 266.545586 78.738666 
L 266.870565 79.014885 
L 267.195545 78.830204 
L 267.520524 79.238275 
L 267.845504 79.18126 
L 268.170483 78.837834 
L 268.495463 79.020675 
L 268.820442 79.382931 
L 269.145422 79.475168 
L 269.470401 79.799355 
L 269.795381 79.588616 
L 270.44534 79.914989 
L 270.770319 80.334315 
L 271.745258 79.41843 
L 272.720197 79.941104 
L 273.370156 79.034388 
L 273.695135 79.183054 
L 274.020115 78.9384 
L 274.345094 78.995242 
L 274.670074 78.752275 
L 274.995053 78.985227 
L 275.320033 79.074187 
L 275.645012 78.738614 
L 275.969992 79.0638 
L 276.294971 79.034168 
L 276.619951 79.188178 
L 276.94493 78.902789 
L 277.26991 78.874333 
L 277.594889 78.555731 
L 277.919869 78.796177 
L 278.244848 78.507424 
L 278.569828 78.954943 
L 279.219787 78.625754 
L 279.544767 78.550498 
L 279.869746 78.22119 
L 280.194726 78.059192 
L 280.844685 78.730294 
L 281.169664 78.697972 
L 281.819623 78.07835 
L 282.469582 77.697685 
L 282.794562 77.371984 
L 283.7695 77.19301 
L 284.419459 76.607127 
L 284.744439 76.536165 
L 285.394398 76.810805 
L 285.719378 76.728328 
L 286.044357 76.855804 
L 286.369337 76.633981 
L 286.694316 76.674199 
L 287.019296 76.58669 
L 287.344275 76.31595 
L 287.669255 75.842243 
L 288.644193 75.471867 
L 288.969173 75.576675 
L 289.619132 75.458659 
L 289.944111 75.290212 
L 290.269091 75.367014 
L 290.59407 75.761492 
L 290.91905 75.649918 
L 291.244029 75.96116 
L 291.569009 75.925408 
L 291.893989 75.685828 
L 292.218968 75.793326 
L 292.543948 75.671355 
L 293.843866 75.882819 
L 294.168845 76.454922 
L 294.493825 76.796437 
L 295.143784 76.419514 
L 295.793743 76.393368 
L 296.118722 76.556261 
L 296.768681 76.269727 
L 297.74362 76.393634 
L 298.0686 76.168748 
L 298.393579 76.309946 
L 298.718559 76.810413 
L 299.368518 76.792418 
L 299.693497 77.203453 
L 300.018477 76.644968 
L 300.993415 76.97704 
L 301.318395 76.887303 
L 301.643374 76.614889 
L 302.293333 77.578641 
L 302.618313 77.704486 
L 302.943292 77.437758 
L 303.268272 77.56631 
L 303.918231 77.479486 
L 304.24321 77.648039 
L 304.56819 77.584735 
L 304.89317 77.052929 
L 305.543129 77.751998 
L 305.868108 77.398443 
L 306.193088 77.279695 
L 306.518067 76.652964 
L 307.168026 76.49669 
L 307.493006 76.680774 
L 308.142965 76.221504 
L 308.467944 76.341358 
L 308.792924 75.992858 
L 309.117903 76.438962 
L 309.442883 76.434076 
L 310.742801 76.958211 
L 311.067781 76.946353 
L 311.71774 77.633604 
L 312.042719 77.66451 
L 312.367699 77.856639 
L 313.017658 77.815843 
L 313.342637 77.590071 
L 313.667617 76.981818 
L 313.992596 77.068936 
L 314.642555 77.47682 
L 315.292514 77.699894 
L 315.617494 77.344892 
L 315.942473 77.409917 
L 316.267453 77.750698 
L 316.917412 77.264102 
L 317.242391 77.330153 
L 317.567371 77.792531 
L 318.54231 78.105574 
L 318.867289 77.847112 
L 319.192269 78.201091 
L 319.842228 78.613127 
L 320.167207 78.474796 
L 320.817166 77.864663 
L 321.142146 78.3129 
L 321.467125 78.522486 
L 321.792105 78.901321 
L 322.442064 78.423471 
L 322.767043 78.387698 
L 323.092023 77.787548 
L 323.417002 77.825589 
L 323.741982 78.278282 
L 324.066962 78.188987 
L 324.716921 78.597033 
L 325.0419 77.917325 
L 325.36688 78.06079 
L 325.691859 77.870758 
L 326.016839 77.31988 
L 326.666798 77.235701 
L 326.991777 77.550588 
L 327.316757 77.652389 
L 327.641736 77.14125 
L 327.966716 76.843928 
L 328.291695 76.375736 
L 328.616675 76.261268 
L 328.941654 75.946863 
L 329.266634 76.064792 
L 330.241572 76.006118 
L 330.566552 76.040429 
L 330.891532 76.356927 
L 331.541491 76.473545 
L 331.86647 76.493067 
L 332.19145 76.940476 
L 332.516429 76.954184 
L 332.841409 76.519499 
L 333.166388 76.537969 
L 333.491368 76.317581 
L 333.816347 76.544676 
L 334.141327 76.546913 
L 334.466306 76.327146 
L 335.441245 76.288383 
L 335.766224 76.307256 
L 336.091204 76.063549 
L 336.416183 76.224278 
L 336.741163 75.928651 
L 337.066143 76.431333 
L 337.716102 76.389421 
L 338.041081 76.371037 
L 338.69104 76.810649 
L 339.01602 76.547722 
L 339.665979 76.59961 
L 340.315938 77.356514 
L 341.290876 77.112697 
L 341.615856 77.129974 
L 341.940835 77.423136 
L 342.265815 77.495717 
L 342.590794 77.433904 
L 342.915774 77.648929 
L 343.240753 77.602586 
L 343.890713 77.930759 
L 344.215692 77.647937 
L 344.865651 78.124483 
L 345.51561 77.903773 
L 345.84059 77.486273 
L 346.165569 77.355041 
L 347.140508 77.491574 
L 347.465487 77.305779 
L 347.790467 77.400181 
L 348.115446 77.731711 
L 348.765405 77.209342 
L 349.090385 77.326268 
L 349.415364 77.209748 
L 349.740344 77.31933 
L 350.065324 77.029172 
L 350.390303 77.185284 
L 350.715283 77.489866 
L 351.040262 77.202134 
L 351.690221 76.909052 
L 352.015201 76.691182 
L 352.34018 77.011636 
L 352.66516 76.80459 
L 353.640098 76.927209 
L 354.290057 76.604933 
L 354.615037 76.511589 
L 354.940016 76.726976 
L 355.264996 76.431395 
L 355.589975 76.590358 
L 355.914955 76.345014 
L 356.239934 76.29386 
L 356.564914 76.417878 
L 356.889894 76.661828 
L 357.539853 76.606885 
L 357.864832 76.438974 
L 358.189812 76.438159 
L 358.839771 77.020581 
L 359.814709 76.911318 
L 360.139689 76.766638 
L 360.789648 76.995324 
L 361.114627 77.182146 
L 361.439607 77.125112 
L 362.089566 77.56496 
L 363.064505 77.556194 
L 363.389484 77.779879 
L 363.714464 77.855911 
L 364.039443 78.228244 
L 364.364423 77.977642 
L 364.689402 78.39515 
L 365.014382 78.432038 
L 365.339361 78.730634 
L 365.664341 78.28762 
L 365.98932 78.407251 
L 366.3143 78.356076 
L 366.639279 78.024267 
L 366.964259 77.965066 
L 367.289238 78.277849 
L 367.614218 77.986585 
L 368.589156 78.14495 
L 368.914136 77.953249 
L 369.239115 78.155208 
L 369.564095 77.971967 
L 369.889075 78.101 
L 370.214054 77.665253 
L 370.539034 77.949071 
L 370.864013 78.038592 
L 371.188993 77.920943 
L 371.513972 77.978544 
L 371.838952 77.744986 
L 372.163931 78.015244 
L 372.81389 78.133751 
L 373.13887 77.670804 
L 373.788829 78.0896 
L 374.113808 78.150736 
L 374.438788 77.850093 
L 375.413726 77.775082 
L 376.063686 77.895512 
L 376.388665 77.674331 
L 376.713645 77.875418 
L 377.363604 77.767801 
L 377.688583 77.84094 
L 378.013563 77.776968 
L 378.663522 78.022985 
L 379.313481 77.739934 
L 379.63846 78.103178 
L 379.96344 78.208012 
L 380.613399 77.937569 
L 381.263358 77.861253 
L 381.588337 77.693578 
L 381.913317 77.963131 
L 382.563276 78.079019 
L 382.888256 78.021806 
L 383.213235 78.240533 
L 383.538215 77.994017 
L 384.188174 78.043783 
L 384.513153 78.142616 
L 384.838133 77.926281 
L 385.163112 78.122791 
L 385.488092 77.848203 
L 386.138051 77.93487 
L 386.46303 77.90424 
L 386.78801 78.005908 
L 387.112989 77.931373 
L 387.437969 77.672962 
L 388.087928 77.935253 
L 389.387846 78.720006 
L 390.037805 78.460473 
L 390.362785 78.329423 
L 390.687764 78.522255 
L 391.337723 78.560106 
L 391.662703 78.404031 
L 391.987682 78.516506 
L 392.312662 78.431654 
L 392.637641 78.167544 
L 392.962621 78.140769 
L 393.61258 78.328609 
L 393.937559 78.328464 
L 394.262539 78.515395 
L 394.587518 78.472435 
L 394.912498 78.547057 
L 395.237477 78.38543 
L 395.562457 78.360539 
L 395.887437 78.524354 
L 396.212416 78.518681 
L 397.187355 77.984368 
L 398.162293 77.772967 
L 398.487273 77.536259 
L 398.487273 77.536259 
" clip-path="url(#pd835bd0dd6)" style="fill: none; stroke-dasharray: 2,3.3; stroke-dashoffset: 0; stroke: #0000ff; stroke-width: 2"/>
   </g>
   <g id="line2d_14">
    <path d="M 73.832727 295.488 
L 74.157707 223.776989 
L 74.482686 226.045957 
L 75.132645 170.96343 
L 75.457625 136.23152 
L 75.782604 177.88596 
L 76.107584 185.04478 
L 76.757543 177.300277 
L 77.082523 183.520802 
L 77.407502 164.803511 
L 77.732482 166.441749 
L 78.057461 154.781206 
L 78.382441 147.112762 
L 78.70742 123.790147 
L 79.0324 109.378304 
L 79.357379 110.814534 
L 79.682359 109.456845 
L 80.007338 101.950443 
L 80.332318 101.431459 
L 80.657297 103.079722 
L 80.982277 91.635458 
L 81.307256 92.328393 
L 81.632236 90.16585 
L 81.957215 90.379725 
L 82.282195 86.354678 
L 82.607174 90.154941 
L 82.932154 89.420726 
L 83.257133 96.520636 
L 83.582113 82.429568 
L 83.907093 79.377163 
L 84.232072 81.897958 
L 84.557052 77.538948 
L 84.882031 68.15089 
L 85.207011 62.253904 
L 85.53199 60.342934 
L 85.85697 67.543462 
L 86.506929 65.518391 
L 86.831908 61.265589 
L 87.156888 60.546295 
L 87.481867 58.060089 
L 87.806847 63.398229 
L 88.131826 62.651469 
L 88.456806 60.246846 
L 88.781785 60.520894 
L 89.106765 61.840528 
L 89.431744 64.749572 
L 89.756724 61.934862 
L 90.081704 62.101734 
L 90.406683 66.879906 
L 90.731663 64.417266 
L 91.056642 65.270917 
L 91.381622 64.305294 
L 92.031581 74.498899 
L 92.35656 69.063626 
L 92.68154 66.617003 
L 93.006519 66.612945 
L 93.331499 66.245214 
L 93.656478 67.036042 
L 93.981458 67.358602 
L 94.306437 70.105821 
L 94.631417 70.306756 
L 95.281376 69.160668 
L 95.606355 72.348269 
L 95.931335 68.439789 
L 96.256314 67.512265 
L 96.581294 67.942662 
L 96.906274 69.086948 
L 97.231253 68.065337 
L 97.556233 67.766062 
L 97.881212 66.034787 
L 98.206192 65.45974 
L 98.531171 66.672839 
L 98.856151 66.200787 
L 99.18113 68.486218 
L 99.50611 67.236713 
L 99.831089 67.015311 
L 100.156069 67.657323 
L 100.481048 70.55454 
L 100.806028 71.017069 
L 101.131007 70.595132 
L 102.105946 75.569766 
L 102.430925 79.596568 
L 102.755905 77.491253 
L 103.080885 77.15452 
L 103.405864 76.98921 
L 104.055823 78.318387 
L 104.380803 80.80056 
L 104.705782 80.428468 
L 105.030762 82.807283 
L 105.355741 83.08261 
L 105.680721 84.420179 
L 106.0057 86.687931 
L 106.33068 90.089849 
L 106.655659 89.784285 
L 106.980639 90.518836 
L 107.305618 89.644628 
L 107.630598 92.682697 
L 107.955577 91.384012 
L 108.280557 90.805186 
L 108.605536 93.076467 
L 108.930516 93.669186 
L 109.255495 93.855406 
L 109.580475 93.348656 
L 109.905455 95.880276 
L 110.880393 100.356311 
L 111.205373 99.29341 
L 111.530352 100.406135 
L 111.855332 97.817731 
L 112.180311 97.156603 
L 112.505291 98.203961 
L 112.83027 98.118953 
L 113.15525 97.374138 
L 113.480229 98.955658 
L 113.805209 99.878441 
L 114.130188 101.451413 
L 114.455168 100.9528 
L 114.780147 97.711942 
L 115.105127 99.309492 
L 115.430106 96.800487 
L 115.755086 97.477332 
L 116.080066 97.426138 
L 116.405045 96.26672 
L 116.730025 94.199358 
L 117.055004 95.903335 
L 117.379984 96.462776 
L 117.704963 98.319621 
L 118.029943 99.325291 
L 118.354922 98.942151 
L 118.679902 98.307985 
L 119.004881 100.062027 
L 119.329861 99.001212 
L 119.65484 99.77289 
L 119.97982 98.096541 
L 120.304799 97.674616 
L 120.629779 98.355487 
L 120.954758 98.068026 
L 121.279738 96.804913 
L 121.604717 96.199662 
L 121.929697 94.612814 
L 122.254676 94.62151 
L 122.904636 95.630596 
L 123.229615 95.590448 
L 123.554595 97.566557 
L 124.204554 98.412713 
L 124.529533 97.913573 
L 124.854513 98.806737 
L 125.179492 97.892208 
L 125.504472 98.637095 
L 125.829451 98.99271 
L 126.154431 100.230071 
L 126.47941 98.855798 
L 126.80439 101.242879 
L 127.454349 103.386487 
L 127.779328 102.749375 
L 128.104308 103.531898 
L 128.429287 102.068431 
L 129.404226 104.126831 
L 129.729206 103.550045 
L 130.054185 103.785741 
L 130.379165 102.556174 
L 130.704144 102.26916 
L 131.029124 100.883648 
L 131.354103 101.055198 
L 131.679083 102.623489 
L 132.004062 102.952969 
L 132.329042 102.602693 
L 132.654021 104.089508 
L 132.979001 103.980498 
L 133.30398 103.544249 
L 133.62896 105.406833 
L 133.953939 104.457406 
L 134.278919 103.980554 
L 134.603898 104.244909 
L 134.928878 104.216964 
L 135.253857 104.929678 
L 135.578837 104.396755 
L 135.903817 105.400782 
L 136.228796 104.559252 
L 136.553776 103.342532 
L 136.878755 103.315638 
L 137.528714 102.327151 
L 137.853694 102.773986 
L 138.178673 102.627145 
L 138.503653 102.330462 
L 138.828632 103.00061 
L 139.153612 103.380468 
L 139.803571 102.702195 
L 140.12855 103.429723 
L 140.45353 103.462787 
L 140.778509 102.951051 
L 141.103489 102.872738 
L 141.428468 103.076504 
L 142.078428 104.509163 
L 142.403407 105.149788 
L 142.728387 104.734025 
L 143.053366 104.599931 
L 143.703325 102.540025 
L 144.028305 102.143078 
L 144.353284 102.46676 
L 144.678264 102.523032 
L 145.003243 102.260571 
L 145.328223 102.632422 
L 145.653202 102.105539 
L 145.978182 102.561776 
L 146.628141 104.480382 
L 146.95312 104.221147 
L 147.2781 104.607948 
L 147.603079 104.461431 
L 147.928059 103.664212 
L 148.253038 104.448609 
L 148.578018 104.696895 
L 148.902998 104.2418 
L 149.227977 103.384449 
L 149.552957 103.823569 
L 149.877936 102.685142 
L 150.202916 103.713401 
L 150.527895 103.023872 
L 150.852875 104.130151 
L 151.177854 103.548465 
L 151.502834 104.413985 
L 151.827813 104.516856 
L 152.152793 104.164069 
L 152.477772 102.56023 
L 152.802752 102.436156 
L 153.127731 102.69067 
L 153.77769 101.178918 
L 154.10267 99.914832 
L 154.427649 100.268306 
L 154.752629 100.311161 
L 155.077609 99.607962 
L 155.402588 99.333147 
L 156.052547 100.503766 
L 156.377527 101.787537 
L 156.702506 101.36386 
L 157.352465 102.124549 
L 157.677445 103.034726 
L 158.002424 102.464249 
L 158.327404 102.240334 
L 158.652383 101.314871 
L 158.977363 101.068786 
L 159.302342 100.298615 
L 159.627322 100.435727 
L 160.277281 99.746592 
L 160.60226 99.727229 
L 160.92724 99.396139 
L 161.252219 100.433048 
L 161.577199 100.535747 
L 162.227158 99.75978 
L 162.552138 99.776496 
L 162.877117 99.944115 
L 163.202097 100.923537 
L 163.527076 100.889631 
L 163.852056 101.154805 
L 164.177035 101.180539 
L 164.502015 102.464949 
L 164.826994 102.512575 
L 165.476953 101.355096 
L 165.801933 101.516696 
L 166.126912 100.245747 
L 166.451892 100.517552 
L 166.776871 101.311089 
L 167.42683 101.336464 
L 167.75181 102.134137 
L 168.07679 102.465897 
L 168.401769 103.347749 
L 168.726749 103.302584 
L 169.051728 103.022967 
L 169.701687 101.126614 
L 170.026667 101.379071 
L 170.351646 101.101216 
L 170.676626 102.232776 
L 171.001605 101.754751 
L 171.326585 101.859029 
L 171.651564 102.240275 
L 172.301523 102.39834 
L 172.626503 102.480502 
L 172.951482 101.697036 
L 173.276462 101.916713 
L 173.926421 101.803132 
L 174.2514 102.046252 
L 174.57638 101.936932 
L 174.90136 101.968409 
L 175.226339 101.740859 
L 175.551319 101.274003 
L 175.876298 101.89992 
L 176.201278 102.159308 
L 176.526257 102.076245 
L 177.501196 99.42409 
L 177.826175 99.536329 
L 178.476134 98.430946 
L 178.801114 98.687022 
L 179.451073 98.841092 
L 180.101032 97.949492 
L 180.426011 98.152656 
L 180.750991 97.007298 
L 181.075971 97.314681 
L 181.40095 97.126705 
L 181.72593 96.293576 
L 182.050909 97.203318 
L 182.375889 97.06451 
L 182.700868 95.606411 
L 183.350827 94.316463 
L 183.675807 94.359591 
L 184.000786 94.913274 
L 184.325766 94.979732 
L 184.975725 96.661871 
L 185.300704 95.917914 
L 185.625684 96.5585 
L 185.950663 96.673883 
L 186.275643 95.248383 
L 186.600622 94.42853 
L 186.925602 94.676879 
L 187.250581 95.624884 
L 187.900541 95.11623 
L 188.22552 95.989333 
L 188.875479 94.296117 
L 189.200459 94.413864 
L 189.525438 94.745721 
L 189.850418 94.754814 
L 190.175397 95.742117 
L 190.825356 94.090988 
L 191.150336 94.216107 
L 191.475315 94.723061 
L 191.800295 94.958211 
L 192.450254 95.926269 
L 192.775233 95.664385 
L 193.100213 95.069606 
L 193.425192 94.902411 
L 193.750172 94.360355 
L 194.075152 95.085821 
L 194.725111 95.49589 
L 195.05009 95.065737 
L 195.37507 95.652505 
L 195.700049 95.561295 
L 196.025029 95.725244 
L 196.350008 95.619052 
L 196.674988 96.101649 
L 197.324947 96.336069 
L 197.649926 95.878671 
L 198.624865 95.207923 
L 198.949844 95.201508 
L 199.274824 95.430478 
L 199.599803 95.506018 
L 199.924783 95.363881 
L 200.249762 95.934474 
L 200.574742 95.532251 
L 200.899722 95.727771 
L 201.224701 96.332904 
L 201.549681 95.303624 
L 202.19964 96.110161 
L 202.524619 95.735306 
L 202.849599 94.881964 
L 203.174578 94.638937 
L 203.824537 93.726762 
L 204.149517 93.658033 
L 204.474496 93.403725 
L 204.799476 92.495828 
L 205.124455 93.088281 
L 205.449435 93.142548 
L 205.774414 92.795065 
L 206.099394 91.978301 
L 206.749353 92.747542 
L 207.074333 93.305047 
L 207.399312 93.004028 
L 207.724292 92.895689 
L 208.049271 92.967993 
L 208.69923 94.272596 
L 209.349189 92.985805 
L 209.674169 93.215745 
L 209.999148 93.21055 
L 210.324128 92.296671 
L 210.649107 92.464217 
L 210.974087 92.394033 
L 211.299066 93.058538 
L 211.624046 92.75231 
L 212.598984 90.539802 
L 212.923964 90.416819 
L 214.223882 92.765216 
L 214.548862 92.738344 
L 214.873841 92.236073 
L 215.198821 91.991031 
L 215.5238 92.364878 
L 216.173759 92.298251 
L 217.148698 90.774257 
L 217.473677 91.244808 
L 218.448616 91.735502 
L 218.773595 91.478749 
L 219.098575 91.831401 
L 219.423554 91.66789 
L 220.073514 90.961947 
L 220.398493 91.295591 
L 220.723473 90.671818 
L 221.048452 90.719427 
L 221.373432 90.301478 
L 221.698411 90.66835 
L 222.023391 91.514343 
L 222.34837 91.379454 
L 222.67335 91.391271 
L 222.998329 91.222809 
L 223.323309 91.370698 
L 223.973268 90.928325 
L 224.948206 91.217743 
L 225.273186 90.449491 
L 225.598165 90.651445 
L 225.923145 90.377397 
L 226.248124 90.482666 
L 226.573104 90.325228 
L 227.223063 90.942078 
L 227.548043 90.767706 
L 227.873022 91.373324 
L 228.198002 91.467535 
L 228.522981 91.933629 
L 228.847961 92.09627 
L 229.49792 92.953362 
L 229.822899 92.986275 
L 230.147879 92.609322 
L 230.472858 92.755073 
L 230.797838 92.257222 
L 231.122817 92.052538 
L 231.447797 92.706304 
L 232.097756 93.394642 
L 233.072695 93.646307 
L 233.397674 94.136901 
L 233.722654 93.977456 
L 234.047633 94.761127 
L 234.372613 95.142733 
L 234.697592 94.786411 
L 235.022572 94.894682 
L 235.347551 95.300739 
L 235.99751 94.834878 
L 236.32249 95.480443 
L 236.647469 95.808351 
L 236.972449 95.870457 
L 237.297428 96.254982 
L 237.622408 96.249509 
L 237.947387 96.730028 
L 238.272367 96.866335 
L 238.597346 96.362729 
L 238.922326 96.728797 
L 239.247305 96.259639 
L 239.572285 96.792334 
L 239.897265 96.84043 
L 240.222244 96.73738 
L 240.547224 96.072875 
L 240.872203 95.720686 
L 242.172121 96.183912 
L 242.497101 96.001373 
L 242.82208 96.37526 
L 244.121998 96.76705 
L 244.446978 96.91412 
L 244.771957 96.648797 
L 245.096937 97.245529 
L 245.421916 96.965443 
L 245.746896 97.528644 
L 246.071876 97.472051 
L 246.396855 97.251713 
L 247.046814 97.063603 
L 247.371794 96.790188 
L 247.696773 96.992939 
L 248.021753 97.339758 
L 248.346732 97.085055 
L 248.671712 96.672551 
L 248.996691 96.758579 
L 249.321671 96.43269 
L 249.64665 96.567542 
L 249.97163 96.089194 
L 250.296609 96.556686 
L 250.621589 96.638784 
L 251.271548 96.209369 
L 251.596527 96.418007 
L 251.921507 96.326672 
L 252.246486 95.968056 
L 252.571466 95.947015 
L 253.221425 94.713744 
L 253.546405 95.054456 
L 253.871384 94.857289 
L 254.196364 95.589075 
L 254.521343 95.848837 
L 254.846323 96.405943 
L 255.171302 96.263407 
L 255.496282 96.372635 
L 255.821261 96.828837 
L 256.146241 96.960475 
L 256.47122 96.948827 
L 256.7962 96.652323 
L 257.771138 96.914787 
L 258.096118 96.314127 
L 258.421097 95.993867 
L 258.746077 96.214815 
L 259.071057 96.891157 
L 260.045995 97.657498 
L 260.370975 96.855935 
L 260.695954 96.647795 
L 261.020934 96.873603 
L 261.345913 97.403243 
L 261.670893 97.672254 
L 261.995872 97.786456 
L 262.320852 97.743701 
L 262.970811 98.476841 
L 263.29579 98.601534 
L 263.62077 98.374236 
L 263.945749 98.573024 
L 264.270729 97.995418 
L 264.920688 98.494922 
L 265.245667 98.081742 
L 265.895627 98.316997 
L 266.220606 97.926205 
L 266.545586 98.233722 
L 266.870565 97.700998 
L 267.845504 97.022827 
L 268.495463 97.432709 
L 269.145422 98.113379 
L 269.470401 97.926683 
L 269.795381 97.987913 
L 270.44534 97.572134 
L 271.095299 97.838278 
L 271.420278 98.140112 
L 271.745258 97.787171 
L 272.395217 98.033181 
L 272.720197 97.586417 
L 273.045176 97.47785 
L 273.370156 97.699467 
L 273.695135 97.577772 
L 274.345094 97.81837 
L 274.670074 97.2558 
L 274.995053 97.315435 
L 275.320033 96.984771 
L 275.645012 96.838386 
L 275.969992 97.134519 
L 276.294971 97.160645 
L 276.619951 97.787146 
L 276.94493 97.910953 
L 277.919869 97.322103 
L 278.569828 96.768365 
L 279.544767 96.395671 
L 279.869746 96.292549 
L 280.194726 95.935863 
L 280.519705 95.876429 
L 280.844685 96.046879 
L 281.169664 95.817674 
L 281.819623 95.144637 
L 282.469582 94.710888 
L 282.794562 94.746657 
L 283.444521 94.958484 
L 284.09448 94.395341 
L 284.419459 94.371509 
L 284.744439 94.049175 
L 285.069419 94.134946 
L 285.394398 93.831843 
L 285.719378 93.993877 
L 286.694316 93.754582 
L 287.019296 93.77396 
L 287.344275 93.660597 
L 287.669255 93.732608 
L 287.994234 93.590663 
L 288.319214 93.820795 
L 289.294152 93.113081 
L 289.944111 93.261412 
L 290.269091 93.023625 
L 290.59407 93.073764 
L 291.244029 92.869658 
L 291.569009 93.154774 
L 291.893989 93.238953 
L 292.218968 93.44853 
L 292.868927 93.592201 
L 293.518886 93.334685 
L 293.843866 93.881892 
L 294.168845 94.198244 
L 294.818804 93.769661 
L 295.143784 93.198418 
L 295.468763 93.275086 
L 296.118722 93.259653 
L 296.443702 93.58175 
L 296.768681 93.719149 
L 297.093661 93.559124 
L 297.74362 93.734984 
L 298.393579 93.599068 
L 299.043538 93.742686 
L 299.368518 93.342212 
L 300.018477 94.202071 
L 300.993415 94.622082 
L 301.318395 94.507174 
L 301.968354 94.869221 
L 302.293333 94.675359 
L 302.618313 95.159346 
L 302.943292 95.26011 
L 303.268272 94.968929 
L 303.593251 94.528101 
L 303.918231 94.632186 
L 304.24321 95.033735 
L 304.56819 95.177361 
L 305.218149 95.108137 
L 305.543129 95.354476 
L 305.868108 95.756897 
L 306.518067 95.583091 
L 307.168026 94.488975 
L 307.493006 94.298143 
L 307.817985 94.457281 
L 308.142965 94.324182 
L 308.467944 93.950327 
L 308.792924 93.949312 
L 309.117903 94.303867 
L 309.767862 94.580012 
L 310.417821 94.51303 
L 310.742801 94.492556 
L 311.067781 94.791595 
L 311.39276 94.799146 
L 311.71774 94.952748 
L 312.042719 94.771482 
L 312.367699 95.012164 
L 312.692678 94.963204 
L 313.017658 94.71386 
L 313.342637 94.777187 
L 313.667617 95.03083 
L 313.992596 94.883105 
L 314.317576 94.955345 
L 314.642555 94.832864 
L 314.967535 95.190659 
L 315.292514 94.411937 
L 315.617494 94.360735 
L 316.267453 94.501186 
L 316.592432 94.341096 
L 316.917412 94.033821 
L 317.242391 94.27175 
L 317.567371 94.315065 
L 317.892351 94.754242 
L 318.21733 94.567195 
L 318.54231 94.729601 
L 318.867289 94.44912 
L 319.517248 95.00184 
L 319.842228 94.861313 
L 320.167207 94.848906 
L 320.492187 94.982477 
L 321.142146 94.364458 
L 321.467125 94.329051 
L 322.117084 95.000431 
L 322.442064 95.141028 
L 322.767043 94.767748 
L 323.092023 95.062171 
L 323.417002 95.517469 
L 324.391941 95.198112 
L 324.716921 94.562509 
L 325.0419 94.374459 
L 325.691859 94.6016 
L 326.341818 94.111508 
L 326.666798 94.454006 
L 326.991777 94.362366 
L 327.316757 94.442641 
L 327.641736 93.778137 
L 328.291695 93.530703 
L 328.941654 92.813454 
L 329.591613 92.732714 
L 330.566552 92.950661 
L 330.891532 93.245807 
L 331.216511 93.362273 
L 331.541491 93.343449 
L 331.86647 92.936262 
L 332.19145 93.363014 
L 332.516429 93.356116 
L 332.841409 92.993176 
L 333.166388 92.913182 
L 333.491368 93.121644 
L 333.816347 93.017909 
L 334.141327 92.696107 
L 334.466306 92.591241 
L 334.791286 92.28721 
L 336.091204 92.304019 
L 336.416183 92.058758 
L 336.741163 92.542146 
L 337.066143 92.238642 
L 337.716102 92.199248 
L 338.041081 92.007127 
L 338.366061 92.263774 
L 338.69104 91.963892 
L 339.01602 92.123705 
L 339.340999 92.094786 
L 339.990958 92.775768 
L 340.315938 92.943767 
L 341.290876 92.733338 
L 342.265815 92.336894 
L 342.590794 92.508467 
L 342.915774 92.480791 
L 343.890713 92.77485 
L 344.215692 92.451222 
L 345.190631 92.069409 
L 345.51561 92.292642 
L 345.84059 91.843177 
L 346.490549 91.89885 
L 346.815528 91.913623 
L 347.140508 91.759382 
L 347.790467 91.951174 
L 348.440426 91.812495 
L 348.765405 91.469639 
L 349.740344 92.083511 
L 350.065324 91.949924 
L 350.390303 92.041949 
L 350.715283 91.714923 
L 351.040262 91.997743 
L 351.690221 91.670091 
L 352.015201 91.434997 
L 352.34018 91.738267 
L 352.66516 91.514078 
L 353.315119 91.599576 
L 353.965078 91.266179 
L 354.290057 91.462339 
L 354.615037 91.292269 
L 354.940016 90.979528 
L 355.264996 91.121894 
L 356.564914 90.651937 
L 356.889894 90.759347 
L 357.864832 90.51144 
L 358.514791 91.115185 
L 359.16475 91.098832 
L 359.48973 91.144464 
L 359.814709 91.044338 
L 360.139689 91.335178 
L 360.464668 91.220219 
L 361.114627 91.415983 
L 361.439607 91.586318 
L 361.764586 91.513109 
L 362.089566 91.736532 
L 362.739525 91.564735 
L 363.714464 92.02328 
L 364.039443 91.800096 
L 364.364423 92.156433 
L 364.689402 92.272011 
L 365.339361 92.955856 
L 365.664341 92.497019 
L 366.3143 92.681041 
L 366.964259 92.57156 
L 367.289238 92.22476 
L 367.614218 92.207054 
L 367.939197 92.503426 
L 368.264177 92.328892 
L 368.589156 92.023116 
L 369.889075 92.72162 
L 370.214054 93.015621 
L 370.539034 92.816723 
L 370.864013 92.365845 
L 371.188993 92.232555 
L 371.513972 92.274549 
L 371.838952 92.015748 
L 372.163931 92.270477 
L 372.488911 92.335861 
L 372.81389 92.604677 
L 373.13887 92.126034 
L 373.463849 92.22632 
L 373.788829 92.098036 
L 374.113808 91.78199 
L 374.438788 91.719156 
L 374.763767 91.818687 
L 375.088747 91.703189 
L 376.063686 91.831259 
L 376.388665 91.616528 
L 376.713645 91.802671 
L 377.688583 91.634961 
L 378.338542 91.842915 
L 378.663522 92.092911 
L 378.988501 92.159258 
L 379.313481 92.507564 
L 379.63846 92.546015 
L 381.588337 91.583974 
L 381.913317 91.689271 
L 382.238296 91.943808 
L 382.563276 91.83332 
L 383.213235 91.791318 
L 383.538215 91.653689 
L 383.863194 91.857683 
L 384.513153 91.878424 
L 384.838133 91.962713 
L 385.163112 92.167454 
L 385.488092 92.163277 
L 385.813071 91.874365 
L 386.78801 92.018927 
L 387.112989 91.929871 
L 387.437969 91.656969 
L 388.087928 91.956849 
L 388.412907 92.144202 
L 389.712826 91.688911 
L 390.037805 91.88202 
L 390.687764 91.762618 
L 391.012744 91.953532 
L 391.337723 91.834876 
L 391.662703 91.855465 
L 391.987682 91.746994 
L 392.312662 91.845752 
L 392.962621 91.706822 
L 393.937559 91.786471 
L 394.262539 91.959766 
L 394.912498 92.061384 
L 395.237477 91.957949 
L 395.562457 92.024739 
L 395.887437 91.849852 
L 396.212416 91.999917 
L 396.537396 91.977913 
L 397.837314 90.913399 
L 398.487273 90.51955 
L 398.487273 90.51955 
" clip-path="url(#pd835bd0dd6)" style="fill: none; stroke-dasharray: 2,3.3; stroke-dashoffset: 0; stroke: #ffa500; stroke-width: 2"/>
   </g>
   <g id="patch_3">
    <path d="M 57.6 307.584 
L 57.6 41.472 
" style="fill: none; stroke: #000000; stroke-width: 0.8; stroke-linejoin: miter; stroke-linecap: square"/>
   </g>
   <g id="patch_4">
    <path d="M 414.72 307.584 
L 414.72 41.472 
" style="fill: none; stroke: #000000; stroke-width: 0.8; stroke-linejoin: miter; stroke-linecap: square"/>
   </g>
   <g id="patch_5">
    <path d="M 57.6 307.584 
L 414.72 307.584 
" style="fill: none; stroke: #000000; stroke-width: 0.8; stroke-linejoin: miter; stroke-linecap: square"/>
   </g>
   <g id="patch_6">
    <path d="M 57.6 41.472 
L 414.72 41.472 
" style="fill: none; stroke: #000000; stroke-width: 0.8; stroke-linejoin: miter; stroke-linecap: square"/>
   </g>
   <g id="text_15">
    <!-- Waiting Time Plot -->
    <g transform="translate(183.833438 8.2635)scale(0.12 -0.12)">
     <defs>
      <path id="DejaVuSans-50" d="M 1259 4147 
L 1259 2394 
L 2053 2394 
Q 2494 2394 2734 2622 
Q 2975 2850 2975 3272 
Q 2975 3691 2734 3919 
Q 2494 4147 2053 4147 
L 1259 4147 
z
M 628 4666 
L 2053 4666 
Q 2838 4666 3239 4311 
Q 3641 3956 3641 3272 
Q 3641 2581 3239 2228 
Q 2838 1875 2053 1875 
L 1259 1875 
L 1259 0 
L 628 0 
L 628 4666 
z
" transform="scale(0.015625)"/>
      <path id="DejaVuSans-6c" d="M 603 4863 
L 1178 4863 
L 1178 0 
L 603 0 
L 603 4863 
z
" transform="scale(0.015625)"/>
     </defs>
     <use xlink:href="#DejaVuSans-57"/>
     <use xlink:href="#DejaVuSans-61" x="92.501953"/>
     <use xlink:href="#DejaVuSans-69" x="153.78125"/>
     <use xlink:href="#DejaVuSans-74" x="181.564453"/>
     <use xlink:href="#DejaVuSans-69" x="220.773438"/>
     <use xlink:href="#DejaVuSans-6e" x="248.556641"/>
     <use xlink:href="#DejaVuSans-67" x="311.935547"/>
     <use xlink:href="#DejaVuSans-20" x="375.412109"/>
     <use xlink:href="#DejaVuSans-54" x="407.199219"/>
     <use xlink:href="#DejaVuSans-69" x="465.158203"/>
     <use xlink:href="#DejaVuSans-6d" x="492.941406"/>
     <use xlink:href="#DejaVuSans-65" x="590.353516"/>
     <use xlink:href="#DejaVuSans-20" x="651.876953"/>
     <use xlink:href="#DejaVuSans-50" x="683.664062"/>
     <use xlink:href="#DejaVuSans-6c" x="743.966797"/>
     <use xlink:href="#DejaVuSans-6f" x="771.75"/>
     <use xlink:href="#DejaVuSans-74" x="832.931641"/>
    </g>
    <!--  avg_d = 505.2779317106264  -->
    <g transform="translate(142.671562 21.700875)scale(0.12 -0.12)">
     <defs>
      <path id="DejaVuSans-76" d="M 191 3500 
L 800 3500 
L 1894 563 
L 2988 3500 
L 3597 3500 
L 2284 0 
L 1503 0 
L 191 3500 
z
" transform="scale(0.015625)"/>
      <path id="DejaVuSans-5f" d="M 3263 -1063 
L 3263 -1509 
L -63 -1509 
L -63 -1063 
L 3263 -1063 
z
" transform="scale(0.015625)"/>
      <path id="DejaVuSans-3d" d="M 678 2906 
L 4684 2906 
L 4684 2381 
L 678 2381 
L 678 2906 
z
M 678 1631 
L 4684 1631 
L 4684 1100 
L 678 1100 
L 678 1631 
z
" transform="scale(0.015625)"/>
      <path id="DejaVuSans-2e" d="M 684 794 
L 1344 794 
L 1344 0 
L 684 0 
L 684 794 
z
" transform="scale(0.015625)"/>
      <path id="DejaVuSans-37" d="M 525 4666 
L 3525 4666 
L 3525 4397 
L 1831 0 
L 1172 0 
L 2766 4134 
L 525 4134 
L 525 4666 
z
" transform="scale(0.015625)"/>
      <path id="DejaVuSans-39" d="M 703 97 
L 703 672 
Q 941 559 1184 500 
Q 1428 441 1663 441 
Q 2288 441 2617 861 
Q 2947 1281 2994 2138 
Q 2813 1869 2534 1725 
Q 2256 1581 1919 1581 
Q 1219 1581 811 2004 
Q 403 2428 403 3163 
Q 403 3881 828 4315 
Q 1253 4750 1959 4750 
Q 2769 4750 3195 4129 
Q 3622 3509 3622 2328 
Q 3622 1225 3098 567 
Q 2575 -91 1691 -91 
Q 1453 -91 1209 -44 
Q 966 3 703 97 
z
M 1959 2075 
Q 2384 2075 2632 2365 
Q 2881 2656 2881 3163 
Q 2881 3666 2632 3958 
Q 2384 4250 1959 4250 
Q 1534 4250 1286 3958 
Q 1038 3666 1038 3163 
Q 1038 2656 1286 2365 
Q 1534 2075 1959 2075 
z
" transform="scale(0.015625)"/>
     </defs>
     <use xlink:href="#DejaVuSans-20"/>
     <use xlink:href="#DejaVuSans-61" x="31.787109"/>
     <use xlink:href="#DejaVuSans-76" x="93.066406"/>
     <use xlink:href="#DejaVuSans-67" x="152.246094"/>
     <use xlink:href="#DejaVuSans-5f" x="215.722656"/>
     <use xlink:href="#DejaVuSans-64" x="265.722656"/>
     <use xlink:href="#DejaVuSans-20" x="329.199219"/>
     <use xlink:href="#DejaVuSans-3d" x="360.986328"/>
     <use xlink:href="#DejaVuSans-20" x="444.775391"/>
     <use xlink:href="#DejaVuSans-35" x="476.5625"/>
     <use xlink:href="#DejaVuSans-30" x="540.185547"/>
     <use xlink:href="#DejaVuSans-35" x="603.808594"/>
     <use xlink:href="#DejaVuSans-2e" x="667.431641"/>
     <use xlink:href="#DejaVuSans-32" x="699.21875"/>
     <use xlink:href="#DejaVuSans-37" x="762.841797"/>
     <use xlink:href="#DejaVuSans-37" x="826.464844"/>
     <use xlink:href="#DejaVuSans-39" x="890.087891"/>
     <use xlink:href="#DejaVuSans-33" x="953.710938"/>
     <use xlink:href="#DejaVuSans-31" x="1017.333984"/>
     <use xlink:href="#DejaVuSans-37" x="1080.957031"/>
     <use xlink:href="#DejaVuSans-31" x="1144.580078"/>
     <use xlink:href="#DejaVuSans-30" x="1208.203125"/>
     <use xlink:href="#DejaVuSans-36" x="1271.826172"/>
     <use xlink:href="#DejaVuSans-32" x="1335.449219"/>
     <use xlink:href="#DejaVuSans-36" x="1399.072266"/>
     <use xlink:href="#DejaVuSans-34" x="1462.695312"/>
     <use xlink:href="#DejaVuSans-20" x="1526.318359"/>
    </g>
    <!--  avg_a = 490.50020384979246diff = 14.77772786083392 -->
    <g transform="translate(59.364375 35.472)scale(0.12 -0.12)">
     <use xlink:href="#DejaVuSans-20"/>
     <use xlink:href="#DejaVuSans-61" x="31.787109"/>
     <use xlink:href="#DejaVuSans-76" x="93.066406"/>
     <use xlink:href="#DejaVuSans-67" x="152.246094"/>
     <use xlink:href="#DejaVuSans-5f" x="215.722656"/>
     <use xlink:href="#DejaVuSans-61" x="265.722656"/>
     <use xlink:href="#DejaVuSans-20" x="327.001953"/>
     <use xlink:href="#DejaVuSans-3d" x="358.789062"/>
     <use xlink:href="#DejaVuSans-20" x="442.578125"/>
     <use xlink:href="#DejaVuSans-34" x="474.365234"/>
     <use xlink:href="#DejaVuSans-39" x="537.988281"/>
     <use xlink:href="#DejaVuSans-30" x="601.611328"/>
     <use xlink:href="#DejaVuSans-2e" x="665.234375"/>
     <use xlink:href="#DejaVuSans-35" x="697.021484"/>
     <use xlink:href="#DejaVuSans-30" x="760.644531"/>
     <use xlink:href="#DejaVuSans-30" x="824.267578"/>
     <use xlink:href="#DejaVuSans-32" x="887.890625"/>
     <use xlink:href="#DejaVuSans-30" x="951.513672"/>
     <use xlink:href="#DejaVuSans-33" x="1015.136719"/>
     <use xlink:href="#DejaVuSans-38" x="1078.759766"/>
     <use xlink:href="#DejaVuSans-34" x="1142.382812"/>
     <use xlink:href="#DejaVuSans-39" x="1206.005859"/>
     <use xlink:href="#DejaVuSans-37" x="1269.628906"/>
     <use xlink:href="#DejaVuSans-39" x="1333.251953"/>
     <use xlink:href="#DejaVuSans-32" x="1396.875"/>
     <use xlink:href="#DejaVuSans-34" x="1460.498047"/>
     <use xlink:href="#DejaVuSans-36" x="1524.121094"/>
     <use xlink:href="#DejaVuSans-64" x="1587.744141"/>
     <use xlink:href="#DejaVuSans-69" x="1651.220703"/>
     <use xlink:href="#DejaVuSans-66" x="1679.003906"/>
     <use xlink:href="#DejaVuSans-66" x="1714.208984"/>
     <use xlink:href="#DejaVuSans-20" x="1749.414062"/>
     <use xlink:href="#DejaVuSans-3d" x="1781.201172"/>
     <use xlink:href="#DejaVuSans-20" x="1864.990234"/>
     <use xlink:href="#DejaVuSans-31" x="1896.777344"/>
     <use xlink:href="#DejaVuSans-34" x="1960.400391"/>
     <use xlink:href="#DejaVuSans-2e" x="2024.023438"/>
     <use xlink:href="#DejaVuSans-37" x="2055.810547"/>
     <use xlink:href="#DejaVuSans-37" x="2119.433594"/>
     <use xlink:href="#DejaVuSans-37" x="2183.056641"/>
     <use xlink:href="#DejaVuSans-37" x="2246.679688"/>
     <use xlink:href="#DejaVuSans-32" x="2310.302734"/>
     <use xlink:href="#DejaVuSans-37" x="2373.925781"/>
     <use xlink:href="#DejaVuSans-38" x="2437.548828"/>
     <use xlink:href="#DejaVuSans-36" x="2501.171875"/>
     <use xlink:href="#DejaVuSans-30" x="2564.794922"/>
     <use xlink:href="#DejaVuSans-38" x="2628.417969"/>
     <use xlink:href="#DejaVuSans-33" x="2692.041016"/>
     <use xlink:href="#DejaVuSans-33" x="2755.664062"/>
     <use xlink:href="#DejaVuSans-39" x="2819.287109"/>
     <use xlink:href="#DejaVuSans-32" x="2882.910156"/>
    </g>
   </g>
   <g id="legend_1">
    <g id="patch_7">
     <path d="M 263.88875 302.584 
L 407.72 302.584 
Q 409.72 302.584 409.72 300.584 
L 409.72 272.22775 
Q 409.72 270.22775 407.72 270.22775 
L 263.88875 270.22775 
Q 261.88875 270.22775 261.88875 272.22775 
L 261.88875 300.584 
Q 261.88875 302.584 263.88875 302.584 
z
" style="fill: #ffffff; opacity: 0.8; stroke: #cccccc; stroke-linejoin: miter"/>
    </g>
    <g id="line2d_15">
     <path d="M 265.88875 278.326187 
L 275.88875 278.326187 
L 285.88875 278.326187 
" style="fill: none; stroke-dasharray: 2,3.3; stroke-dashoffset: 0; stroke: #0000ff; stroke-width: 2"/>
    </g>
    <g id="text_16">
     <!-- Average (Default) -->
     <g transform="translate(293.88875 281.826187)scale(0.1 -0.1)">
      <defs>
       <path id="DejaVuSans-41" d="M 2188 4044 
L 1331 1722 
L 3047 1722 
L 2188 4044 
z
M 1831 4666 
L 2547 4666 
L 4325 0 
L 3669 0 
L 3244 1197 
L 1141 1197 
L 716 0 
L 50 0 
L 1831 4666 
z
" transform="scale(0.015625)"/>
       <path id="DejaVuSans-28" d="M 1984 4856 
Q 1566 4138 1362 3434 
Q 1159 2731 1159 2009 
Q 1159 1288 1364 580 
Q 1569 -128 1984 -844 
L 1484 -844 
Q 1016 -109 783 600 
Q 550 1309 550 2009 
Q 550 2706 781 3412 
Q 1013 4119 1484 4856 
L 1984 4856 
z
" transform="scale(0.015625)"/>
       <path id="DejaVuSans-44" d="M 1259 4147 
L 1259 519 
L 2022 519 
Q 2988 519 3436 956 
Q 3884 1394 3884 2338 
Q 3884 3275 3436 3711 
Q 2988 4147 2022 4147 
L 1259 4147 
z
M 628 4666 
L 1925 4666 
Q 3281 4666 3915 4102 
Q 4550 3538 4550 2338 
Q 4550 1131 3912 565 
Q 3275 0 1925 0 
L 628 0 
L 628 4666 
z
" transform="scale(0.015625)"/>
       <path id="DejaVuSans-29" d="M 513 4856 
L 1013 4856 
Q 1481 4119 1714 3412 
Q 1947 2706 1947 2009 
Q 1947 1309 1714 600 
Q 1481 -109 1013 -844 
L 513 -844 
Q 928 -128 1133 580 
Q 1338 1288 1338 2009 
Q 1338 2731 1133 3434 
Q 928 4138 513 4856 
z
" transform="scale(0.015625)"/>
      </defs>
      <use xlink:href="#DejaVuSans-41"/>
      <use xlink:href="#DejaVuSans-76" x="62.533203"/>
      <use xlink:href="#DejaVuSans-65" x="121.712891"/>
      <use xlink:href="#DejaVuSans-72" x="183.236328"/>
      <use xlink:href="#DejaVuSans-61" x="224.349609"/>
      <use xlink:href="#DejaVuSans-67" x="285.628906"/>
      <use xlink:href="#DejaVuSans-65" x="349.105469"/>
      <use xlink:href="#DejaVuSans-20" x="410.628906"/>
      <use xlink:href="#DejaVuSans-28" x="442.416016"/>
      <use xlink:href="#DejaVuSans-44" x="481.429688"/>
      <use xlink:href="#DejaVuSans-65" x="558.431641"/>
      <use xlink:href="#DejaVuSans-66" x="619.955078"/>
      <use xlink:href="#DejaVuSans-61" x="655.160156"/>
      <use xlink:href="#DejaVuSans-75" x="716.439453"/>
      <use xlink:href="#DejaVuSans-6c" x="779.818359"/>
      <use xlink:href="#DejaVuSans-74" x="807.601562"/>
      <use xlink:href="#DejaVuSans-29" x="846.810547"/>
     </g>
    </g>
    <g id="line2d_16">
     <path d="M 265.88875 293.004312 
L 275.88875 293.004312 
L 285.88875 293.004312 
" style="fill: none; stroke-dasharray: 2,3.3; stroke-dashoffset: 0; stroke: #ffa500; stroke-width: 2"/>
    </g>
    <g id="text_17">
     <!-- Average (Anticipation) -->
     <g transform="translate(293.88875 296.504312)scale(0.1 -0.1)">
      <defs>
       <path id="DejaVuSans-63" d="M 3122 3366 
L 3122 2828 
Q 2878 2963 2633 3030 
Q 2388 3097 2138 3097 
Q 1578 3097 1268 2742 
Q 959 2388 959 1747 
Q 959 1106 1268 751 
Q 1578 397 2138 397 
Q 2388 397 2633 464 
Q 2878 531 3122 666 
L 3122 134 
Q 2881 22 2623 -34 
Q 2366 -91 2075 -91 
Q 1284 -91 818 406 
Q 353 903 353 1747 
Q 353 2603 823 3093 
Q 1294 3584 2113 3584 
Q 2378 3584 2631 3529 
Q 2884 3475 3122 3366 
z
" transform="scale(0.015625)"/>
       <path id="DejaVuSans-70" d="M 1159 525 
L 1159 -1331 
L 581 -1331 
L 581 3500 
L 1159 3500 
L 1159 2969 
Q 1341 3281 1617 3432 
Q 1894 3584 2278 3584 
Q 2916 3584 3314 3078 
Q 3713 2572 3713 1747 
Q 3713 922 3314 415 
Q 2916 -91 2278 -91 
Q 1894 -91 1617 61 
Q 1341 213 1159 525 
z
M 3116 1747 
Q 3116 2381 2855 2742 
Q 2594 3103 2138 3103 
Q 1681 3103 1420 2742 
Q 1159 2381 1159 1747 
Q 1159 1113 1420 752 
Q 1681 391 2138 391 
Q 2594 391 2855 752 
Q 3116 1113 3116 1747 
z
" transform="scale(0.015625)"/>
      </defs>
      <use xlink:href="#DejaVuSans-41"/>
      <use xlink:href="#DejaVuSans-76" x="62.533203"/>
      <use xlink:href="#DejaVuSans-65" x="121.712891"/>
      <use xlink:href="#DejaVuSans-72" x="183.236328"/>
      <use xlink:href="#DejaVuSans-61" x="224.349609"/>
      <use xlink:href="#DejaVuSans-67" x="285.628906"/>
      <use xlink:href="#DejaVuSans-65" x="349.105469"/>
      <use xlink:href="#DejaVuSans-20" x="410.628906"/>
      <use xlink:href="#DejaVuSans-28" x="442.416016"/>
      <use xlink:href="#DejaVuSans-41" x="481.429688"/>
      <use xlink:href="#DejaVuSans-6e" x="549.837891"/>
      <use xlink:href="#DejaVuSans-74" x="613.216797"/>
      <use xlink:href="#DejaVuSans-69" x="652.425781"/>
      <use xlink:href="#DejaVuSans-63" x="680.208984"/>
      <use xlink:href="#DejaVuSans-69" x="735.189453"/>
      <use xlink:href="#DejaVuSans-70" x="762.972656"/>
      <use xlink:href="#DejaVuSans-61" x="826.449219"/>
      <use xlink:href="#DejaVuSans-74" x="887.728516"/>
      <use xlink:href="#DejaVuSans-69" x="926.9375"/>
      <use xlink:href="#DejaVuSans-6f" x="954.720703"/>
      <use xlink:href="#DejaVuSans-6e" x="1015.902344"/>
      <use xlink:href="#DejaVuSans-29" x="1079.28125"/>
     </g>
    </g>
   </g>
  </g>
 </g>
 <defs>
  <clipPath id="pd835bd0dd6">
   <rect x="57.6" y="41.472" width="357.12" height="266.112"/>
  </clipPath>
 </defs>
</svg>
