<?xml version="1.0" encoding="utf-8" standalone="no"?>
<!DOCTYPE svg PUBLIC "-//W3C//DTD SVG 1.1//EN"
  "http://www.w3.org/Graphics/SVG/1.1/DTD/svg11.dtd">
<svg xmlns:xlink="http://www.w3.org/1999/xlink" width="460.8pt" height="345.6pt" viewBox="0 0 460.8 345.6" xmlns="http://www.w3.org/2000/svg" version="1.1">
 <metadata>
  <rdf:RDF xmlns:dc="http://purl.org/dc/elements/1.1/" xmlns:cc="http://creativecommons.org/ns#" xmlns:rdf="http://www.w3.org/1999/02/22-rdf-syntax-ns#">
   <cc:Work>
    <dc:type rdf:resource="http://purl.org/dc/dcmitype/StillImage"/>
    <dc:date>2022-10-04T13:21:45.843086</dc:date>
    <dc:format>image/svg+xml</dc:format>
    <dc:creator>
     <cc:Agent>
      <dc:title>Matplotlib v3.5.3, https://matplotlib.org/</dc:title>
     </cc:Agent>
    </dc:creator>
   </cc:Work>
  </rdf:RDF>
 </metadata>
 <defs>
  <style type="text/css">*{stroke-linejoin: round; stroke-linecap: butt}</style>
 </defs>
 <g id="figure_1">
  <g id="patch_1">
   <path d="M 0 345.6 
L 460.8 345.6 
L 460.8 0 
L 0 0 
z
" style="fill: #ffffff"/>
  </g>
  <g id="axes_1">
   <g id="patch_2">
    <path d="M 57.6 307.584 
L 414.72 307.584 
L 414.72 41.472 
L 57.6 41.472 
z
" style="fill: #ffffff"/>
   </g>
   <g id="matplotlib.axis_1">
    <g id="xtick_1">
     <g id="line2d_1">
      <defs>
       <path id="m118bbfc7f5" d="M 0 0 
L 0 3.5 
" style="stroke: #000000; stroke-width: 0.8"/>
      </defs>
      <g>
       <use xlink:href="#m118bbfc7f5" x="73.832727" y="307.584" style="stroke: #000000; stroke-width: 0.8"/>
      </g>
     </g>
     <g id="text_1">
      <!-- 0 -->
      <g transform="translate(70.651477 322.182437)scale(0.1 -0.1)">
       <defs>
        <path id="DejaVuSans-30" d="M 2034 4250 
Q 1547 4250 1301 3770 
Q 1056 3291 1056 2328 
Q 1056 1369 1301 889 
Q 1547 409 2034 409 
Q 2525 409 2770 889 
Q 3016 1369 3016 2328 
Q 3016 3291 2770 3770 
Q 2525 4250 2034 4250 
z
M 2034 4750 
Q 2819 4750 3233 4129 
Q 3647 3509 3647 2328 
Q 3647 1150 3233 529 
Q 2819 -91 2034 -91 
Q 1250 -91 836 529 
Q 422 1150 422 2328 
Q 422 3509 836 4129 
Q 1250 4750 2034 4750 
z
" transform="scale(0.015625)"/>
       </defs>
       <use xlink:href="#DejaVuSans-30"/>
      </g>
     </g>
    </g>
    <g id="xtick_2">
     <g id="line2d_2">
      <g>
       <use xlink:href="#m118bbfc7f5" x="138.828632" y="307.584" style="stroke: #000000; stroke-width: 0.8"/>
      </g>
     </g>
     <g id="text_2">
      <!-- 200 -->
      <g transform="translate(129.284882 322.182437)scale(0.1 -0.1)">
       <defs>
        <path id="DejaVuSans-32" d="M 1228 531 
L 3431 531 
L 3431 0 
L 469 0 
L 469 531 
Q 828 903 1448 1529 
Q 2069 2156 2228 2338 
Q 2531 2678 2651 2914 
Q 2772 3150 2772 3378 
Q 2772 3750 2511 3984 
Q 2250 4219 1831 4219 
Q 1534 4219 1204 4116 
Q 875 4013 500 3803 
L 500 4441 
Q 881 4594 1212 4672 
Q 1544 4750 1819 4750 
Q 2544 4750 2975 4387 
Q 3406 4025 3406 3419 
Q 3406 3131 3298 2873 
Q 3191 2616 2906 2266 
Q 2828 2175 2409 1742 
Q 1991 1309 1228 531 
z
" transform="scale(0.015625)"/>
       </defs>
       <use xlink:href="#DejaVuSans-32"/>
       <use xlink:href="#DejaVuSans-30" x="63.623047"/>
       <use xlink:href="#DejaVuSans-30" x="127.246094"/>
      </g>
     </g>
    </g>
    <g id="xtick_3">
     <g id="line2d_3">
      <g>
       <use xlink:href="#m118bbfc7f5" x="203.824537" y="307.584" style="stroke: #000000; stroke-width: 0.8"/>
      </g>
     </g>
     <g id="text_3">
      <!-- 400 -->
      <g transform="translate(194.280787 322.182437)scale(0.1 -0.1)">
       <defs>
        <path id="DejaVuSans-34" d="M 2419 4116 
L 825 1625 
L 2419 1625 
L 2419 4116 
z
M 2253 4666 
L 3047 4666 
L 3047 1625 
L 3713 1625 
L 3713 1100 
L 3047 1100 
L 3047 0 
L 2419 0 
L 2419 1100 
L 313 1100 
L 313 1709 
L 2253 4666 
z
" transform="scale(0.015625)"/>
       </defs>
       <use xlink:href="#DejaVuSans-34"/>
       <use xlink:href="#DejaVuSans-30" x="63.623047"/>
       <use xlink:href="#DejaVuSans-30" x="127.246094"/>
      </g>
     </g>
    </g>
    <g id="xtick_4">
     <g id="line2d_4">
      <g>
       <use xlink:href="#m118bbfc7f5" x="268.820442" y="307.584" style="stroke: #000000; stroke-width: 0.8"/>
      </g>
     </g>
     <g id="text_4">
      <!-- 600 -->
      <g transform="translate(259.276692 322.182437)scale(0.1 -0.1)">
       <defs>
        <path id="DejaVuSans-36" d="M 2113 2584 
Q 1688 2584 1439 2293 
Q 1191 2003 1191 1497 
Q 1191 994 1439 701 
Q 1688 409 2113 409 
Q 2538 409 2786 701 
Q 3034 994 3034 1497 
Q 3034 2003 2786 2293 
Q 2538 2584 2113 2584 
z
M 3366 4563 
L 3366 3988 
Q 3128 4100 2886 4159 
Q 2644 4219 2406 4219 
Q 1781 4219 1451 3797 
Q 1122 3375 1075 2522 
Q 1259 2794 1537 2939 
Q 1816 3084 2150 3084 
Q 2853 3084 3261 2657 
Q 3669 2231 3669 1497 
Q 3669 778 3244 343 
Q 2819 -91 2113 -91 
Q 1303 -91 875 529 
Q 447 1150 447 2328 
Q 447 3434 972 4092 
Q 1497 4750 2381 4750 
Q 2619 4750 2861 4703 
Q 3103 4656 3366 4563 
z
" transform="scale(0.015625)"/>
       </defs>
       <use xlink:href="#DejaVuSans-36"/>
       <use xlink:href="#DejaVuSans-30" x="63.623047"/>
       <use xlink:href="#DejaVuSans-30" x="127.246094"/>
      </g>
     </g>
    </g>
    <g id="xtick_5">
     <g id="line2d_5">
      <g>
       <use xlink:href="#m118bbfc7f5" x="333.816347" y="307.584" style="stroke: #000000; stroke-width: 0.8"/>
      </g>
     </g>
     <g id="text_5">
      <!-- 800 -->
      <g transform="translate(324.272597 322.182437)scale(0.1 -0.1)">
       <defs>
        <path id="DejaVuSans-38" d="M 2034 2216 
Q 1584 2216 1326 1975 
Q 1069 1734 1069 1313 
Q 1069 891 1326 650 
Q 1584 409 2034 409 
Q 2484 409 2743 651 
Q 3003 894 3003 1313 
Q 3003 1734 2745 1975 
Q 2488 2216 2034 2216 
z
M 1403 2484 
Q 997 2584 770 2862 
Q 544 3141 544 3541 
Q 544 4100 942 4425 
Q 1341 4750 2034 4750 
Q 2731 4750 3128 4425 
Q 3525 4100 3525 3541 
Q 3525 3141 3298 2862 
Q 3072 2584 2669 2484 
Q 3125 2378 3379 2068 
Q 3634 1759 3634 1313 
Q 3634 634 3220 271 
Q 2806 -91 2034 -91 
Q 1263 -91 848 271 
Q 434 634 434 1313 
Q 434 1759 690 2068 
Q 947 2378 1403 2484 
z
M 1172 3481 
Q 1172 3119 1398 2916 
Q 1625 2713 2034 2713 
Q 2441 2713 2670 2916 
Q 2900 3119 2900 3481 
Q 2900 3844 2670 4047 
Q 2441 4250 2034 4250 
Q 1625 4250 1398 4047 
Q 1172 3844 1172 3481 
z
" transform="scale(0.015625)"/>
       </defs>
       <use xlink:href="#DejaVuSans-38"/>
       <use xlink:href="#DejaVuSans-30" x="63.623047"/>
       <use xlink:href="#DejaVuSans-30" x="127.246094"/>
      </g>
     </g>
    </g>
    <g id="xtick_6">
     <g id="line2d_6">
      <g>
       <use xlink:href="#m118bbfc7f5" x="398.812252" y="307.584" style="stroke: #000000; stroke-width: 0.8"/>
      </g>
     </g>
     <g id="text_6">
      <!-- 1000 -->
      <g transform="translate(386.087252 322.182437)scale(0.1 -0.1)">
       <defs>
        <path id="DejaVuSans-31" d="M 794 531 
L 1825 531 
L 1825 4091 
L 703 3866 
L 703 4441 
L 1819 4666 
L 2450 4666 
L 2450 531 
L 3481 531 
L 3481 0 
L 794 0 
L 794 531 
z
" transform="scale(0.015625)"/>
       </defs>
       <use xlink:href="#DejaVuSans-31"/>
       <use xlink:href="#DejaVuSans-30" x="63.623047"/>
       <use xlink:href="#DejaVuSans-30" x="127.246094"/>
       <use xlink:href="#DejaVuSans-30" x="190.869141"/>
      </g>
     </g>
    </g>
    <g id="text_7">
     <!-- Number of Orders -->
     <g transform="translate(191.261562 335.860562)scale(0.1 -0.1)">
      <defs>
       <path id="DejaVuSans-4e" d="M 628 4666 
L 1478 4666 
L 3547 763 
L 3547 4666 
L 4159 4666 
L 4159 0 
L 3309 0 
L 1241 3903 
L 1241 0 
L 628 0 
L 628 4666 
z
" transform="scale(0.015625)"/>
       <path id="DejaVuSans-75" d="M 544 1381 
L 544 3500 
L 1119 3500 
L 1119 1403 
Q 1119 906 1312 657 
Q 1506 409 1894 409 
Q 2359 409 2629 706 
Q 2900 1003 2900 1516 
L 2900 3500 
L 3475 3500 
L 3475 0 
L 2900 0 
L 2900 538 
Q 2691 219 2414 64 
Q 2138 -91 1772 -91 
Q 1169 -91 856 284 
Q 544 659 544 1381 
z
M 1991 3584 
L 1991 3584 
z
" transform="scale(0.015625)"/>
       <path id="DejaVuSans-6d" d="M 3328 2828 
Q 3544 3216 3844 3400 
Q 4144 3584 4550 3584 
Q 5097 3584 5394 3201 
Q 5691 2819 5691 2113 
L 5691 0 
L 5113 0 
L 5113 2094 
Q 5113 2597 4934 2840 
Q 4756 3084 4391 3084 
Q 3944 3084 3684 2787 
Q 3425 2491 3425 1978 
L 3425 0 
L 2847 0 
L 2847 2094 
Q 2847 2600 2669 2842 
Q 2491 3084 2119 3084 
Q 1678 3084 1418 2786 
Q 1159 2488 1159 1978 
L 1159 0 
L 581 0 
L 581 3500 
L 1159 3500 
L 1159 2956 
Q 1356 3278 1631 3431 
Q 1906 3584 2284 3584 
Q 2666 3584 2933 3390 
Q 3200 3197 3328 2828 
z
" transform="scale(0.015625)"/>
       <path id="DejaVuSans-62" d="M 3116 1747 
Q 3116 2381 2855 2742 
Q 2594 3103 2138 3103 
Q 1681 3103 1420 2742 
Q 1159 2381 1159 1747 
Q 1159 1113 1420 752 
Q 1681 391 2138 391 
Q 2594 391 2855 752 
Q 3116 1113 3116 1747 
z
M 1159 2969 
Q 1341 3281 1617 3432 
Q 1894 3584 2278 3584 
Q 2916 3584 3314 3078 
Q 3713 2572 3713 1747 
Q 3713 922 3314 415 
Q 2916 -91 2278 -91 
Q 1894 -91 1617 61 
Q 1341 213 1159 525 
L 1159 0 
L 581 0 
L 581 4863 
L 1159 4863 
L 1159 2969 
z
" transform="scale(0.015625)"/>
       <path id="DejaVuSans-65" d="M 3597 1894 
L 3597 1613 
L 953 1613 
Q 991 1019 1311 708 
Q 1631 397 2203 397 
Q 2534 397 2845 478 
Q 3156 559 3463 722 
L 3463 178 
Q 3153 47 2828 -22 
Q 2503 -91 2169 -91 
Q 1331 -91 842 396 
Q 353 884 353 1716 
Q 353 2575 817 3079 
Q 1281 3584 2069 3584 
Q 2775 3584 3186 3129 
Q 3597 2675 3597 1894 
z
M 3022 2063 
Q 3016 2534 2758 2815 
Q 2500 3097 2075 3097 
Q 1594 3097 1305 2825 
Q 1016 2553 972 2059 
L 3022 2063 
z
" transform="scale(0.015625)"/>
       <path id="DejaVuSans-72" d="M 2631 2963 
Q 2534 3019 2420 3045 
Q 2306 3072 2169 3072 
Q 1681 3072 1420 2755 
Q 1159 2438 1159 1844 
L 1159 0 
L 581 0 
L 581 3500 
L 1159 3500 
L 1159 2956 
Q 1341 3275 1631 3429 
Q 1922 3584 2338 3584 
Q 2397 3584 2469 3576 
Q 2541 3569 2628 3553 
L 2631 2963 
z
" transform="scale(0.015625)"/>
       <path id="DejaVuSans-20" transform="scale(0.015625)"/>
       <path id="DejaVuSans-6f" d="M 1959 3097 
Q 1497 3097 1228 2736 
Q 959 2375 959 1747 
Q 959 1119 1226 758 
Q 1494 397 1959 397 
Q 2419 397 2687 759 
Q 2956 1122 2956 1747 
Q 2956 2369 2687 2733 
Q 2419 3097 1959 3097 
z
M 1959 3584 
Q 2709 3584 3137 3096 
Q 3566 2609 3566 1747 
Q 3566 888 3137 398 
Q 2709 -91 1959 -91 
Q 1206 -91 779 398 
Q 353 888 353 1747 
Q 353 2609 779 3096 
Q 1206 3584 1959 3584 
z
" transform="scale(0.015625)"/>
       <path id="DejaVuSans-66" d="M 2375 4863 
L 2375 4384 
L 1825 4384 
Q 1516 4384 1395 4259 
Q 1275 4134 1275 3809 
L 1275 3500 
L 2222 3500 
L 2222 3053 
L 1275 3053 
L 1275 0 
L 697 0 
L 697 3053 
L 147 3053 
L 147 3500 
L 697 3500 
L 697 3744 
Q 697 4328 969 4595 
Q 1241 4863 1831 4863 
L 2375 4863 
z
" transform="scale(0.015625)"/>
       <path id="DejaVuSans-4f" d="M 2522 4238 
Q 1834 4238 1429 3725 
Q 1025 3213 1025 2328 
Q 1025 1447 1429 934 
Q 1834 422 2522 422 
Q 3209 422 3611 934 
Q 4013 1447 4013 2328 
Q 4013 3213 3611 3725 
Q 3209 4238 2522 4238 
z
M 2522 4750 
Q 3503 4750 4090 4092 
Q 4678 3434 4678 2328 
Q 4678 1225 4090 567 
Q 3503 -91 2522 -91 
Q 1538 -91 948 565 
Q 359 1222 359 2328 
Q 359 3434 948 4092 
Q 1538 4750 2522 4750 
z
" transform="scale(0.015625)"/>
       <path id="DejaVuSans-64" d="M 2906 2969 
L 2906 4863 
L 3481 4863 
L 3481 0 
L 2906 0 
L 2906 525 
Q 2725 213 2448 61 
Q 2172 -91 1784 -91 
Q 1150 -91 751 415 
Q 353 922 353 1747 
Q 353 2572 751 3078 
Q 1150 3584 1784 3584 
Q 2172 3584 2448 3432 
Q 2725 3281 2906 2969 
z
M 947 1747 
Q 947 1113 1208 752 
Q 1469 391 1925 391 
Q 2381 391 2643 752 
Q 2906 1113 2906 1747 
Q 2906 2381 2643 2742 
Q 2381 3103 1925 3103 
Q 1469 3103 1208 2742 
Q 947 2381 947 1747 
z
" transform="scale(0.015625)"/>
       <path id="DejaVuSans-73" d="M 2834 3397 
L 2834 2853 
Q 2591 2978 2328 3040 
Q 2066 3103 1784 3103 
Q 1356 3103 1142 2972 
Q 928 2841 928 2578 
Q 928 2378 1081 2264 
Q 1234 2150 1697 2047 
L 1894 2003 
Q 2506 1872 2764 1633 
Q 3022 1394 3022 966 
Q 3022 478 2636 193 
Q 2250 -91 1575 -91 
Q 1294 -91 989 -36 
Q 684 19 347 128 
L 347 722 
Q 666 556 975 473 
Q 1284 391 1588 391 
Q 1994 391 2212 530 
Q 2431 669 2431 922 
Q 2431 1156 2273 1281 
Q 2116 1406 1581 1522 
L 1381 1569 
Q 847 1681 609 1914 
Q 372 2147 372 2553 
Q 372 3047 722 3315 
Q 1072 3584 1716 3584 
Q 2034 3584 2315 3537 
Q 2597 3491 2834 3397 
z
" transform="scale(0.015625)"/>
      </defs>
      <use xlink:href="#DejaVuSans-4e"/>
      <use xlink:href="#DejaVuSans-75" x="74.804688"/>
      <use xlink:href="#DejaVuSans-6d" x="138.183594"/>
      <use xlink:href="#DejaVuSans-62" x="235.595703"/>
      <use xlink:href="#DejaVuSans-65" x="299.072266"/>
      <use xlink:href="#DejaVuSans-72" x="360.595703"/>
      <use xlink:href="#DejaVuSans-20" x="401.708984"/>
      <use xlink:href="#DejaVuSans-6f" x="433.496094"/>
      <use xlink:href="#DejaVuSans-66" x="494.677734"/>
      <use xlink:href="#DejaVuSans-20" x="529.882812"/>
      <use xlink:href="#DejaVuSans-4f" x="561.669922"/>
      <use xlink:href="#DejaVuSans-72" x="640.380859"/>
      <use xlink:href="#DejaVuSans-64" x="679.744141"/>
      <use xlink:href="#DejaVuSans-65" x="743.220703"/>
      <use xlink:href="#DejaVuSans-72" x="804.744141"/>
      <use xlink:href="#DejaVuSans-73" x="845.857422"/>
     </g>
    </g>
   </g>
   <g id="matplotlib.axis_2">
    <g id="ytick_1">
     <g id="line2d_7">
      <defs>
       <path id="m749168735c" d="M 0 0 
L -3.5 0 
" style="stroke: #000000; stroke-width: 0.8"/>
      </defs>
      <g>
       <use xlink:href="#m749168735c" x="57.6" y="265.544874" style="stroke: #000000; stroke-width: 0.8"/>
      </g>
     </g>
     <g id="text_8">
      <!-- 1000 -->
      <g transform="translate(25.15 269.344093)scale(0.1 -0.1)">
       <use xlink:href="#DejaVuSans-31"/>
       <use xlink:href="#DejaVuSans-30" x="63.623047"/>
       <use xlink:href="#DejaVuSans-30" x="127.246094"/>
       <use xlink:href="#DejaVuSans-30" x="190.869141"/>
      </g>
     </g>
    </g>
    <g id="ytick_2">
     <g id="line2d_8">
      <g>
       <use xlink:href="#m749168735c" x="57.6" y="213.776232" style="stroke: #000000; stroke-width: 0.8"/>
      </g>
     </g>
     <g id="text_9">
      <!-- 1500 -->
      <g transform="translate(25.15 217.57545)scale(0.1 -0.1)">
       <defs>
        <path id="DejaVuSans-35" d="M 691 4666 
L 3169 4666 
L 3169 4134 
L 1269 4134 
L 1269 2991 
Q 1406 3038 1543 3061 
Q 1681 3084 1819 3084 
Q 2600 3084 3056 2656 
Q 3513 2228 3513 1497 
Q 3513 744 3044 326 
Q 2575 -91 1722 -91 
Q 1428 -91 1123 -41 
Q 819 9 494 109 
L 494 744 
Q 775 591 1075 516 
Q 1375 441 1709 441 
Q 2250 441 2565 725 
Q 2881 1009 2881 1497 
Q 2881 1984 2565 2268 
Q 2250 2553 1709 2553 
Q 1456 2553 1204 2497 
Q 953 2441 691 2322 
L 691 4666 
z
" transform="scale(0.015625)"/>
       </defs>
       <use xlink:href="#DejaVuSans-31"/>
       <use xlink:href="#DejaVuSans-35" x="63.623047"/>
       <use xlink:href="#DejaVuSans-30" x="127.246094"/>
       <use xlink:href="#DejaVuSans-30" x="190.869141"/>
      </g>
     </g>
    </g>
    <g id="ytick_3">
     <g id="line2d_9">
      <g>
       <use xlink:href="#m749168735c" x="57.6" y="162.007589" style="stroke: #000000; stroke-width: 0.8"/>
      </g>
     </g>
     <g id="text_10">
      <!-- 2000 -->
      <g transform="translate(25.15 165.806808)scale(0.1 -0.1)">
       <use xlink:href="#DejaVuSans-32"/>
       <use xlink:href="#DejaVuSans-30" x="63.623047"/>
       <use xlink:href="#DejaVuSans-30" x="127.246094"/>
       <use xlink:href="#DejaVuSans-30" x="190.869141"/>
      </g>
     </g>
    </g>
    <g id="ytick_4">
     <g id="line2d_10">
      <g>
       <use xlink:href="#m749168735c" x="57.6" y="110.238947" style="stroke: #000000; stroke-width: 0.8"/>
      </g>
     </g>
     <g id="text_11">
      <!-- 2500 -->
      <g transform="translate(25.15 114.038165)scale(0.1 -0.1)">
       <use xlink:href="#DejaVuSans-32"/>
       <use xlink:href="#DejaVuSans-35" x="63.623047"/>
       <use xlink:href="#DejaVuSans-30" x="127.246094"/>
       <use xlink:href="#DejaVuSans-30" x="190.869141"/>
      </g>
     </g>
    </g>
    <g id="ytick_5">
     <g id="line2d_11">
      <g>
       <use xlink:href="#m749168735c" x="57.6" y="58.470304" style="stroke: #000000; stroke-width: 0.8"/>
      </g>
     </g>
     <g id="text_12">
      <!-- 3000 -->
      <g transform="translate(25.15 62.269523)scale(0.1 -0.1)">
       <defs>
        <path id="DejaVuSans-33" d="M 2597 2516 
Q 3050 2419 3304 2112 
Q 3559 1806 3559 1356 
Q 3559 666 3084 287 
Q 2609 -91 1734 -91 
Q 1441 -91 1130 -33 
Q 819 25 488 141 
L 488 750 
Q 750 597 1062 519 
Q 1375 441 1716 441 
Q 2309 441 2620 675 
Q 2931 909 2931 1356 
Q 2931 1769 2642 2001 
Q 2353 2234 1838 2234 
L 1294 2234 
L 1294 2753 
L 1863 2753 
Q 2328 2753 2575 2939 
Q 2822 3125 2822 3475 
Q 2822 3834 2567 4026 
Q 2313 4219 1838 4219 
Q 1578 4219 1281 4162 
Q 984 4106 628 3988 
L 628 4550 
Q 988 4650 1302 4700 
Q 1616 4750 1894 4750 
Q 2613 4750 3031 4423 
Q 3450 4097 3450 3541 
Q 3450 3153 3228 2886 
Q 3006 2619 2597 2516 
z
" transform="scale(0.015625)"/>
       </defs>
       <use xlink:href="#DejaVuSans-33"/>
       <use xlink:href="#DejaVuSans-30" x="63.623047"/>
       <use xlink:href="#DejaVuSans-30" x="127.246094"/>
       <use xlink:href="#DejaVuSans-30" x="190.869141"/>
      </g>
     </g>
    </g>
    <g id="text_13">
     <!-- Waiting Time/s -->
     <g transform="translate(19.070312 211.410031)rotate(-90)scale(0.1 -0.1)">
      <defs>
       <path id="DejaVuSans-57" d="M 213 4666 
L 850 4666 
L 1831 722 
L 2809 4666 
L 3519 4666 
L 4500 722 
L 5478 4666 
L 6119 4666 
L 4947 0 
L 4153 0 
L 3169 4050 
L 2175 0 
L 1381 0 
L 213 4666 
z
" transform="scale(0.015625)"/>
       <path id="DejaVuSans-61" d="M 2194 1759 
Q 1497 1759 1228 1600 
Q 959 1441 959 1056 
Q 959 750 1161 570 
Q 1363 391 1709 391 
Q 2188 391 2477 730 
Q 2766 1069 2766 1631 
L 2766 1759 
L 2194 1759 
z
M 3341 1997 
L 3341 0 
L 2766 0 
L 2766 531 
Q 2569 213 2275 61 
Q 1981 -91 1556 -91 
Q 1019 -91 701 211 
Q 384 513 384 1019 
Q 384 1609 779 1909 
Q 1175 2209 1959 2209 
L 2766 2209 
L 2766 2266 
Q 2766 2663 2505 2880 
Q 2244 3097 1772 3097 
Q 1472 3097 1187 3025 
Q 903 2953 641 2809 
L 641 3341 
Q 956 3463 1253 3523 
Q 1550 3584 1831 3584 
Q 2591 3584 2966 3190 
Q 3341 2797 3341 1997 
z
" transform="scale(0.015625)"/>
       <path id="DejaVuSans-69" d="M 603 3500 
L 1178 3500 
L 1178 0 
L 603 0 
L 603 3500 
z
M 603 4863 
L 1178 4863 
L 1178 4134 
L 603 4134 
L 603 4863 
z
" transform="scale(0.015625)"/>
       <path id="DejaVuSans-74" d="M 1172 4494 
L 1172 3500 
L 2356 3500 
L 2356 3053 
L 1172 3053 
L 1172 1153 
Q 1172 725 1289 603 
Q 1406 481 1766 481 
L 2356 481 
L 2356 0 
L 1766 0 
Q 1100 0 847 248 
Q 594 497 594 1153 
L 594 3053 
L 172 3053 
L 172 3500 
L 594 3500 
L 594 4494 
L 1172 4494 
z
" transform="scale(0.015625)"/>
       <path id="DejaVuSans-6e" d="M 3513 2113 
L 3513 0 
L 2938 0 
L 2938 2094 
Q 2938 2591 2744 2837 
Q 2550 3084 2163 3084 
Q 1697 3084 1428 2787 
Q 1159 2491 1159 1978 
L 1159 0 
L 581 0 
L 581 3500 
L 1159 3500 
L 1159 2956 
Q 1366 3272 1645 3428 
Q 1925 3584 2291 3584 
Q 2894 3584 3203 3211 
Q 3513 2838 3513 2113 
z
" transform="scale(0.015625)"/>
       <path id="DejaVuSans-67" d="M 2906 1791 
Q 2906 2416 2648 2759 
Q 2391 3103 1925 3103 
Q 1463 3103 1205 2759 
Q 947 2416 947 1791 
Q 947 1169 1205 825 
Q 1463 481 1925 481 
Q 2391 481 2648 825 
Q 2906 1169 2906 1791 
z
M 3481 434 
Q 3481 -459 3084 -895 
Q 2688 -1331 1869 -1331 
Q 1566 -1331 1297 -1286 
Q 1028 -1241 775 -1147 
L 775 -588 
Q 1028 -725 1275 -790 
Q 1522 -856 1778 -856 
Q 2344 -856 2625 -561 
Q 2906 -266 2906 331 
L 2906 616 
Q 2728 306 2450 153 
Q 2172 0 1784 0 
Q 1141 0 747 490 
Q 353 981 353 1791 
Q 353 2603 747 3093 
Q 1141 3584 1784 3584 
Q 2172 3584 2450 3431 
Q 2728 3278 2906 2969 
L 2906 3500 
L 3481 3500 
L 3481 434 
z
" transform="scale(0.015625)"/>
       <path id="DejaVuSans-54" d="M -19 4666 
L 3928 4666 
L 3928 4134 
L 2272 4134 
L 2272 0 
L 1638 0 
L 1638 4134 
L -19 4134 
L -19 4666 
z
" transform="scale(0.015625)"/>
       <path id="DejaVuSans-2f" d="M 1625 4666 
L 2156 4666 
L 531 -594 
L 0 -594 
L 1625 4666 
z
" transform="scale(0.015625)"/>
      </defs>
      <use xlink:href="#DejaVuSans-57"/>
      <use xlink:href="#DejaVuSans-61" x="92.501953"/>
      <use xlink:href="#DejaVuSans-69" x="153.78125"/>
      <use xlink:href="#DejaVuSans-74" x="181.564453"/>
      <use xlink:href="#DejaVuSans-69" x="220.773438"/>
      <use xlink:href="#DejaVuSans-6e" x="248.556641"/>
      <use xlink:href="#DejaVuSans-67" x="311.935547"/>
      <use xlink:href="#DejaVuSans-20" x="375.412109"/>
      <use xlink:href="#DejaVuSans-54" x="407.199219"/>
      <use xlink:href="#DejaVuSans-69" x="465.158203"/>
      <use xlink:href="#DejaVuSans-6d" x="492.941406"/>
      <use xlink:href="#DejaVuSans-65" x="590.353516"/>
      <use xlink:href="#DejaVuSans-2f" x="651.876953"/>
      <use xlink:href="#DejaVuSans-73" x="685.568359"/>
     </g>
    </g>
   </g>
   <g id="line2d_12">
    <path d="M 73.832727 295.488 
L 74.482686 278.536026 
L 74.807666 273.971858 
L 75.132645 264.016068 
L 75.782604 236.556998 
L 76.107584 239.983921 
L 76.432563 224.548772 
L 76.757543 215.485737 
L 77.082523 215.947123 
L 77.732482 200.065547 
L 78.382441 186.754763 
L 79.0324 174.060502 
L 79.357379 171.309823 
L 79.682359 177.079974 
L 80.007338 172.616641 
L 80.332318 171.497716 
L 80.657297 175.308072 
L 80.982277 168.705709 
L 81.632236 163.502473 
L 81.957215 164.498018 
L 82.282195 160.905145 
L 83.257133 144.063272 
L 83.582113 141.845226 
L 83.907093 140.466209 
L 84.557052 130.722881 
L 84.882031 130.360166 
L 85.207011 127.883201 
L 85.53199 127.476103 
L 85.85697 126.069915 
L 86.181949 125.667628 
L 86.506929 123.816972 
L 86.831908 120.0666 
L 87.481867 116.808248 
L 87.806847 117.316078 
L 88.131826 113.765867 
L 88.456806 116.616564 
L 88.781785 116.598895 
L 89.106765 111.427552 
L 89.431744 108.08875 
L 89.756724 107.323085 
L 90.081704 105.312003 
L 90.406683 100.710431 
L 90.731663 98.381107 
L 91.056642 98.60873 
L 91.381622 97.789809 
L 91.706601 95.573507 
L 92.031581 96.541833 
L 92.35656 92.780367 
L 92.68154 91.30884 
L 93.006519 91.217577 
L 93.331499 89.538868 
L 93.656478 90.688791 
L 93.981458 92.798868 
L 94.306437 93.054992 
L 94.631417 92.74286 
L 94.956396 94.011582 
L 95.281376 96.298237 
L 95.606355 94.065813 
L 95.931335 90.923132 
L 96.256314 91.017515 
L 96.906274 87.341792 
L 97.231253 87.138444 
L 97.556233 87.539679 
L 97.881212 85.654809 
L 98.206192 87.377258 
L 98.531171 88.352823 
L 98.856151 88.595779 
L 99.18113 88.645364 
L 99.50611 88.111978 
L 99.831089 88.934236 
L 100.156069 88.102269 
L 100.481048 87.687374 
L 101.131007 84.566783 
L 101.455987 85.69513 
L 101.780966 84.646903 
L 102.105946 84.205867 
L 102.430925 85.645659 
L 102.755905 84.831864 
L 103.080885 85.165874 
L 103.730844 88.01245 
L 104.055823 85.838705 
L 104.380803 86.912272 
L 104.705782 87.520306 
L 105.030762 85.866017 
L 105.355741 86.953092 
L 105.680721 87.561694 
L 106.0057 87.644144 
L 106.33068 89.151107 
L 106.655659 88.885056 
L 106.980639 89.379095 
L 107.305618 88.949278 
L 107.630598 86.862672 
L 107.955577 86.713091 
L 108.280557 86.830718 
L 108.605536 85.345853 
L 108.930516 85.032406 
L 109.255495 84.040713 
L 109.580475 83.950216 
L 109.905455 84.310473 
L 110.230434 84.986578 
L 110.555414 84.887939 
L 111.205373 87.752518 
L 111.530352 85.598875 
L 111.855332 85.250324 
L 112.180311 85.391762 
L 113.480229 78.312379 
L 113.805209 77.880408 
L 114.130188 75.253375 
L 114.455168 76.077361 
L 114.780147 74.805677 
L 115.105127 75.37407 
L 115.430106 74.525651 
L 115.755086 74.728012 
L 116.080066 75.308616 
L 116.405045 75.125195 
L 116.730025 75.956698 
L 117.055004 76.402978 
L 117.379984 75.377255 
L 118.354922 77.656249 
L 118.679902 77.285058 
L 119.004881 74.659712 
L 119.65484 73.618222 
L 119.97982 73.728516 
L 120.304799 73.672253 
L 120.629779 72.808871 
L 120.954758 73.023846 
L 121.279738 73.506288 
L 121.604717 74.321747 
L 121.929697 74.52909 
L 122.579656 74.237322 
L 122.904636 74.9268 
L 123.229615 75.014089 
L 123.554595 74.49997 
L 123.879574 75.04852 
L 124.204554 74.280042 
L 124.529533 74.169968 
L 124.854513 73.344608 
L 125.179492 72.997029 
L 125.504472 72.476562 
L 126.154431 73.167618 
L 126.47941 72.920034 
L 127.454349 73.488931 
L 128.104308 72.936461 
L 128.429287 73.135221 
L 128.754267 72.879689 
L 129.079247 72.047017 
L 129.404226 72.274716 
L 129.729206 71.831961 
L 130.054185 70.631323 
L 130.379165 70.666864 
L 130.704144 71.112189 
L 131.029124 71.907238 
L 131.679083 70.978638 
L 132.004062 70.258502 
L 132.329042 70.467596 
L 132.654021 69.68158 
L 132.979001 69.795359 
L 133.62896 67.97449 
L 133.953939 68.245317 
L 134.278919 67.289403 
L 134.603898 67.74054 
L 134.928878 67.700375 
L 135.578837 69.312619 
L 136.228796 68.477733 
L 136.553776 67.971191 
L 136.878755 68.09042 
L 137.203735 67.617121 
L 137.528714 68.46329 
L 137.853694 68.547977 
L 138.178673 68.909869 
L 138.503653 69.093934 
L 138.828632 68.891849 
L 140.12855 69.27286 
L 140.778509 69.132856 
L 141.103489 69.588394 
L 141.428468 69.160384 
L 141.753448 68.939714 
L 142.078428 68.967752 
L 142.403407 69.391287 
L 142.728387 69.531869 
L 143.053366 69.041929 
L 143.378346 68.774839 
L 143.703325 69.21198 
L 144.028305 68.90007 
L 144.353284 68.748729 
L 144.678264 69.088193 
L 145.003243 69.009649 
L 145.328223 69.130792 
L 145.653202 68.882852 
L 145.978182 68.97809 
L 146.303161 68.336398 
L 146.628141 68.313667 
L 146.95312 68.122848 
L 147.603079 66.6793 
L 147.928059 67.071889 
L 148.253038 66.903948 
L 148.578018 67.217029 
L 148.902998 67.88342 
L 149.227977 67.684835 
L 150.202916 65.870671 
L 150.527895 65.576172 
L 150.852875 66.257726 
L 151.177854 65.632125 
L 151.502834 65.723496 
L 151.827813 66.625576 
L 152.152793 66.053957 
L 152.477772 66.683861 
L 152.802752 65.777562 
L 153.127731 65.568682 
L 153.452711 66.354318 
L 153.77769 65.453633 
L 154.10267 65.123167 
L 154.427649 65.196694 
L 154.752629 64.729605 
L 155.077609 64.498287 
L 155.402588 64.478544 
L 156.052547 63.988926 
L 156.702506 64.134879 
L 157.677445 62.735394 
L 158.002424 62.586812 
L 158.327404 62.916477 
L 158.977363 62.962489 
L 159.627322 63.67901 
L 159.952301 63.550525 
L 160.60226 63.565467 
L 160.92724 64.073095 
L 161.252219 63.757027 
L 161.577199 62.449376 
L 161.902179 62.631528 
L 162.227158 63.049096 
L 162.552138 63.021806 
L 163.202097 63.730097 
L 163.527076 63.553849 
L 163.852056 63.525959 
L 164.177035 64.18949 
L 164.502015 64.539988 
L 164.826994 64.500903 
L 165.801933 65.028776 
L 166.451892 64.809661 
L 167.75181 65.229633 
L 168.07679 65.756744 
L 168.401769 65.632239 
L 168.726749 65.182143 
L 169.051728 65.00218 
L 169.376708 65.087499 
L 169.701687 64.432589 
L 170.026667 64.732699 
L 170.676626 64.262087 
L 171.651564 63.047718 
L 171.976544 62.056657 
L 172.301523 61.991283 
L 172.951482 62.536451 
L 173.276462 63.281531 
L 173.601441 63.234195 
L 173.926421 63.00914 
L 174.2514 62.608329 
L 174.57638 62.698489 
L 174.90136 62.00562 
L 175.226339 61.630808 
L 175.551319 62.134059 
L 175.876298 62.297757 
L 176.526257 61.535335 
L 176.851237 60.630196 
L 177.176216 60.559127 
L 177.826175 60.817064 
L 178.151155 60.338643 
L 178.476134 60.268338 
L 178.801114 60.405993 
L 179.126093 60.213465 
L 179.451073 59.820071 
L 179.776052 59.810516 
L 180.426011 59.324214 
L 180.750991 59.69034 
L 181.40095 59.597208 
L 181.72593 60.143282 
L 182.375889 60.464469 
L 182.700868 60.375073 
L 183.025848 60.475598 
L 183.350827 61.106328 
L 183.675807 61.295215 
L 184.000786 61.224342 
L 184.325766 61.346035 
L 184.650745 61.221894 
L 184.975725 60.617215 
L 185.300704 60.610396 
L 185.950663 60.240808 
L 186.275643 60.338979 
L 186.600622 60.942187 
L 187.250581 61.331529 
L 187.575561 61.333596 
L 187.900541 60.83822 
L 188.22552 60.975669 
L 189.200459 60.129143 
L 189.525438 60.424336 
L 190.175397 60.587731 
L 190.500377 60.670464 
L 190.825356 60.954193 
L 191.150336 60.693009 
L 191.475315 60.687713 
L 192.125274 59.711392 
L 192.450254 59.812104 
L 192.775233 59.622139 
L 193.425192 58.425054 
L 193.750172 58.578757 
L 194.075152 58.546881 
L 194.400131 58.257178 
L 194.725111 58.475241 
L 195.05009 58.464344 
L 195.37507 58.107628 
L 196.025029 59.036924 
L 196.350008 58.914985 
L 196.674988 58.929237 
L 197.324947 59.498172 
L 197.974906 59.398852 
L 198.624865 59.98281 
L 199.274824 59.749592 
L 199.599803 60.082621 
L 199.924783 59.894525 
L 200.249762 60.275449 
L 200.574742 59.792771 
L 200.899722 59.675274 
L 201.224701 59.289774 
L 201.549681 59.386465 
L 201.87466 59.691055 
L 202.19964 59.746615 
L 202.849599 60.25799 
L 203.499558 60.109194 
L 203.824537 60.480935 
L 204.474496 60.404944 
L 205.774414 60.415483 
L 206.099394 60.685045 
L 206.424373 60.449539 
L 207.074333 60.719867 
L 208.049271 60.077995 
L 208.69923 60.181063 
L 209.349189 59.288813 
L 209.999148 59.219615 
L 210.324128 58.744725 
L 210.649107 58.705269 
L 211.299066 58.308829 
L 211.949025 58.792221 
L 212.274005 58.661236 
L 212.598984 58.929424 
L 212.923964 58.896315 
L 213.248943 58.63075 
L 213.573923 59.044673 
L 213.898903 58.956098 
L 214.548862 58.25364 
L 214.873841 58.644432 
L 215.84878 57.95733 
L 216.173759 58.275571 
L 216.498739 58.234323 
L 216.823718 58.436307 
L 217.148698 58.345288 
L 217.798657 57.774097 
L 218.448616 57.813066 
L 218.773595 58.065589 
L 219.098575 58.549001 
L 219.748534 59.069609 
L 220.073514 59.014665 
L 220.398493 59.219384 
L 221.048452 58.909233 
L 221.373432 59.045656 
L 221.698411 58.73626 
L 222.023391 58.728351 
L 222.67335 58.208935 
L 222.998329 58.373673 
L 223.323309 58.313014 
L 223.648288 58.807903 
L 223.973268 58.972231 
L 224.298247 59.271444 
L 224.623227 59.2713 
L 224.948206 59.53171 
L 225.273186 59.474526 
L 225.598165 59.10559 
L 226.248124 59.343492 
L 226.898084 58.663577 
L 227.223063 58.639468 
L 227.548043 58.404357 
L 227.873022 58.73467 
L 228.522981 59.021496 
L 228.847961 58.69044 
L 230.472858 59.221147 
L 230.797838 59.023898 
L 231.122817 59.18792 
L 231.447797 58.987746 
L 231.772776 58.939914 
L 232.747715 59.326247 
L 233.072695 59.138138 
L 233.397674 58.715455 
L 234.047633 59.314691 
L 234.697592 59.871791 
L 235.022572 59.881473 
L 235.347551 59.713003 
L 235.672531 59.725213 
L 235.99751 59.625329 
L 236.647469 60.273409 
L 237.297428 60.098013 
L 237.947387 60.752357 
L 238.272367 60.269222 
L 238.597346 60.07494 
L 238.922326 60.090702 
L 239.247305 59.96561 
L 239.572285 60.049395 
L 239.897265 59.69704 
L 240.872203 59.692114 
L 241.197183 59.191204 
L 241.522162 59.13296 
L 241.847142 59.212493 
L 242.497101 58.35479 
L 243.14706 58.58384 
L 243.797019 58.308966 
L 244.771957 58.154774 
L 245.096937 57.86994 
L 245.421916 57.971288 
L 246.071876 58.334469 
L 246.396855 58.467979 
L 246.721835 58.364074 
L 247.046814 58.708904 
L 247.371794 58.7832 
L 247.696773 58.669314 
L 248.021753 58.414252 
L 248.346732 58.475098 
L 248.671712 58.368413 
L 248.996691 58.470577 
L 249.321671 58.847846 
L 249.64665 58.846087 
L 249.97163 58.959362 
L 250.296609 59.218895 
L 250.621589 58.838139 
L 250.946568 58.970155 
L 251.271548 58.981887 
L 251.921507 59.261677 
L 252.246486 59.621168 
L 252.896446 59.532381 
L 253.546405 59.530254 
L 254.196364 59.072271 
L 254.846323 59.639304 
L 255.821261 59.878108 
L 256.146241 60.332749 
L 256.47122 60.19318 
L 257.446159 60.611253 
L 257.771138 60.380687 
L 258.096118 60.399222 
L 258.421097 59.943423 
L 258.746077 59.978477 
L 259.071057 59.871637 
L 259.396036 60.005143 
L 259.721016 59.477985 
L 260.045995 59.415809 
L 260.370975 59.187604 
L 261.020934 59.170212 
L 261.345913 59.070567 
L 261.670893 59.140056 
L 262.645831 58.742318 
L 263.29579 58.987071 
L 263.62077 59.28049 
L 263.945749 58.9495 
L 264.270729 58.994633 
L 264.595708 58.806706 
L 265.245667 58.810317 
L 265.895627 58.805622 
L 266.545586 58.28269 
L 266.870565 57.865972 
L 267.195545 57.791829 
L 267.520524 57.953597 
L 267.845504 58.295106 
L 268.820442 58.84275 
L 269.470401 59.273483 
L 269.795381 59.223565 
L 270.12036 59.286292 
L 270.44534 58.882502 
L 271.095299 58.783258 
L 271.420278 58.698062 
L 271.745258 58.302666 
L 272.395217 58.384681 
L 273.045176 58.418166 
L 273.370156 58.335123 
L 273.695135 58.601408 
L 274.020115 58.63551 
L 274.345094 58.423415 
L 274.670074 58.575629 
L 274.995053 58.481727 
L 275.320033 58.604066 
L 275.645012 58.898784 
L 275.969992 58.91549 
L 276.294971 59.100235 
L 276.619951 58.918623 
L 277.594889 58.655224 
L 277.919869 58.497501 
L 278.244848 58.178383 
L 278.569828 58.208534 
L 278.894808 58.024836 
L 279.219787 58.069934 
L 279.544767 57.771622 
L 279.869746 57.666206 
L 280.194726 57.43891 
L 280.844685 57.271455 
L 281.494644 57.717231 
L 281.819623 57.550779 
L 282.144603 57.536454 
L 282.469582 57.703869 
L 283.119541 57.388876 
L 283.7695 57.230502 
L 284.419459 57.177035 
L 284.744439 57.263871 
L 285.394398 57.699951 
L 286.044357 57.92246 
L 286.369337 57.812938 
L 287.019296 57.939002 
L 287.994234 57.524109 
L 288.644193 57.754032 
L 288.969173 57.78131 
L 289.294152 58.011669 
L 289.619132 57.897717 
L 289.944111 58.01793 
L 290.269091 57.804864 
L 290.59407 57.832977 
L 290.91905 57.567263 
L 291.893989 57.477508 
L 292.543948 57.554813 
L 293.843866 57.987834 
L 294.818804 57.760225 
L 295.143784 57.507557 
L 295.468763 57.621342 
L 296.118722 57.15005 
L 296.443702 56.812877 
L 296.768681 56.953471 
L 297.41864 56.898617 
L 298.0686 56.526546 
L 298.718559 56.586787 
L 299.368518 56.407373 
L 300.343456 56.489701 
L 300.993415 56.91533 
L 301.318395 56.952597 
L 301.968354 56.752448 
L 302.293333 56.976446 
L 302.943292 56.839999 
L 303.268272 57.079384 
L 304.56819 57.581869 
L 304.89317 57.440663 
L 305.218149 57.642976 
L 305.543129 57.6203 
L 305.868108 57.74196 
L 306.843047 57.510456 
L 307.493006 57.017304 
L 308.142965 57.079834 
L 308.467944 57.141829 
L 309.117903 56.765157 
L 309.442883 56.499551 
L 309.767862 56.507346 
L 310.092842 56.647865 
L 310.417821 56.479264 
L 311.067781 56.92172 
L 311.39276 57.197181 
L 311.71774 56.932403 
L 312.042719 56.938436 
L 312.692678 57.122113 
L 313.342637 57.294941 
L 313.667617 57.193041 
L 314.317576 57.529113 
L 317.567371 57.261735 
L 317.892351 57.189867 
L 318.21733 57.287834 
L 318.867289 56.815309 
L 319.517248 57.050863 
L 320.167207 57.20861 
L 320.492187 57.265801 
L 320.817166 57.541459 
L 321.467125 57.455028 
L 321.792105 57.489477 
L 322.117084 57.198396 
L 322.442064 57.267404 
L 322.767043 57.554357 
L 323.092023 57.511021 
L 324.066962 56.420478 
L 324.391941 56.385055 
L 324.716921 56.539412 
L 325.0419 56.521844 
L 325.36688 56.359927 
L 325.691859 56.482403 
L 326.666798 56.284201 
L 326.991777 56.478023 
L 327.641736 56.000101 
L 329.266634 55.742378 
L 330.241572 55.944099 
L 331.216511 55.732745 
L 331.541491 55.838969 
L 333.166388 55.627456 
L 333.491368 55.898263 
L 334.141327 56.011862 
L 334.791286 56.175611 
L 335.441245 55.555809 
L 335.766224 55.439312 
L 336.416183 55.449202 
L 336.741163 55.567498 
L 337.391122 55.516862 
L 338.041081 55.888813 
L 338.366061 55.891901 
L 338.69104 56.096406 
L 339.340999 56.312806 
L 339.665979 56.402064 
L 340.640917 55.446 
L 341.940835 55.724296 
L 342.265815 55.615379 
L 342.590794 55.753327 
L 342.915774 55.639898 
L 343.240753 55.658009 
L 343.565733 55.538499 
L 345.51561 55.49248 
L 345.84059 55.334475 
L 346.815528 55.754171 
L 347.790467 55.434906 
L 348.440426 55.660193 
L 348.765405 55.812431 
L 349.415364 55.646169 
L 349.740344 55.82 
L 350.715283 55.595463 
L 351.040262 55.376922 
L 352.015201 55.515711 
L 352.990139 55.309984 
L 353.640098 55.577799 
L 354.615037 55.594318 
L 354.940016 55.490263 
L 355.264996 55.662494 
L 355.914955 55.725376 
L 356.889894 55.384641 
L 357.539853 54.912974 
L 358.514791 54.848768 
L 359.16475 55.069228 
L 359.814709 55.172462 
L 360.139689 55.106096 
L 360.464668 55.178995 
L 360.789648 55.076203 
L 361.439607 55.163038 
L 362.089566 55.113509 
L 362.414545 55.165889 
L 363.064505 55.025489 
L 363.389484 55.089927 
L 364.039443 54.806372 
L 364.689402 55.001092 
L 365.014382 54.991315 
L 365.664341 55.361603 
L 365.98932 55.170256 
L 366.639279 55.387743 
L 368.264177 55.435346 
L 368.589156 55.531422 
L 368.914136 55.386888 
L 369.889075 55.553606 
L 373.13887 55.681553 
L 373.463849 55.945846 
L 374.113808 56.049097 
L 374.763767 55.777995 
L 375.413726 55.823674 
L 375.738706 55.624923 
L 376.713645 55.78342 
L 377.363604 56.011893 
L 377.688583 55.885927 
L 378.988501 56.118377 
L 379.63846 56.012881 
L 379.96344 56.208603 
L 380.613399 56.335337 
L 381.263358 56.227968 
L 381.588337 56.260165 
L 381.913317 56.024612 
L 383.213235 56.144182 
L 383.538215 55.907242 
L 383.863194 55.853952 
L 384.188174 55.949009 
L 384.838133 55.968427 
L 385.163112 56.172727 
L 385.813071 56.170476 
L 386.46303 56.276129 
L 387.762948 56.679865 
L 388.412907 56.46317 
L 388.737887 56.353987 
L 389.712826 56.595127 
L 390.037805 56.482138 
L 390.687764 56.76029 
L 391.012744 56.857287 
L 391.337723 56.731476 
L 391.987682 56.794311 
L 392.637641 56.595313 
L 393.61258 56.420055 
L 394.587518 56.007564 
L 396.537396 55.168241 
L 397.187355 54.754539 
L 398.487273 53.568 
L 398.487273 53.568 
" clip-path="url(#p7e2e2d9f4f)" style="fill: none; stroke-dasharray: 2,3.3; stroke-dashoffset: 0; stroke: #0000ff; stroke-width: 2"/>
   </g>
   <g id="line2d_13">
    <path d="M 73.832727 295.488 
L 74.482686 278.536026 
L 74.807666 275.276602 
L 75.132645 273.64514 
L 75.457625 281.113428 
L 76.432563 251.757166 
L 76.757543 251.414691 
L 77.082523 250.035438 
L 77.407502 242.59954 
L 78.057461 235.543471 
L 78.382441 235.450837 
L 78.70742 235.8933 
L 79.0324 230.739668 
L 79.357379 232.58593 
L 79.682359 232.22669 
L 80.007338 233.941649 
L 80.332318 231.480276 
L 80.657297 225.552427 
L 80.982277 225.578825 
L 81.307256 223.323953 
L 81.632236 224.122985 
L 81.957215 221.261826 
L 82.282195 223.646524 
L 82.607174 219.423848 
L 82.932154 217.694362 
L 83.257133 219.010865 
L 83.582113 218.039674 
L 83.907093 219.609043 
L 84.232072 218.303918 
L 84.557052 220.131324 
L 84.882031 218.412973 
L 85.207011 215.029556 
L 85.53199 213.787637 
L 85.85697 213.784872 
L 86.181949 214.272679 
L 86.506929 215.249776 
L 87.156888 211.049247 
L 87.481867 210.286377 
L 87.806847 210.511395 
L 88.131826 212.292043 
L 88.456806 211.116151 
L 89.106765 205.638991 
L 89.431744 206.687746 
L 89.756724 207.275503 
L 90.081704 208.848987 
L 90.406683 208.437665 
L 90.731663 206.296174 
L 91.056642 205.369612 
L 91.381622 206.27757 
L 91.706601 203.012859 
L 92.031581 201.094073 
L 92.35656 200.851512 
L 92.68154 201.150195 
L 93.331499 202.950973 
L 93.656478 200.357423 
L 93.981458 199.253718 
L 94.306437 200.205586 
L 94.631417 200.461986 
L 94.956396 198.11477 
L 95.281376 199.115146 
L 95.606355 198.295183 
L 95.931335 198.166074 
L 96.256314 198.882756 
L 96.906274 196.833484 
L 97.231253 196.839185 
L 97.556233 198.108233 
L 97.881212 196.717847 
L 98.206192 193.500731 
L 98.531171 193.415487 
L 98.856151 194.19141 
L 99.18113 192.65789 
L 99.50611 192.60596 
L 99.831089 191.849992 
L 100.156069 192.461509 
L 100.481048 192.11586 
L 100.806028 190.101438 
L 101.131007 190.436274 
L 101.455987 189.548044 
L 101.780966 189.515488 
L 102.105946 189.878487 
L 102.430925 190.702991 
L 102.755905 191.019118 
L 103.080885 189.58625 
L 103.405864 190.577521 
L 103.730844 190.843861 
L 104.055823 190.829342 
L 104.705782 192.300241 
L 105.030762 192.610048 
L 105.355741 191.895104 
L 105.680721 191.772669 
L 106.0057 190.566125 
L 106.33068 190.258191 
L 106.655659 191.532089 
L 106.980639 191.952906 
L 107.305618 192.091508 
L 107.955577 190.195323 
L 108.280557 190.122195 
L 108.605536 189.32702 
L 109.905455 191.135741 
L 110.230434 191.996284 
L 110.555414 192.47602 
L 111.205373 194.283193 
L 111.530352 194.186248 
L 111.855332 194.314096 
L 112.180311 194.590456 
L 112.505291 194.514904 
L 113.15525 194.76625 
L 113.805209 194.062135 
L 114.455168 191.669448 
L 114.780147 191.486638 
L 115.105127 191.477856 
L 115.430106 191.676353 
L 115.755086 190.870678 
L 116.080066 191.091327 
L 116.405045 190.500871 
L 116.730025 191.737235 
L 117.055004 190.478003 
L 117.379984 190.69753 
L 117.704963 191.583082 
L 118.029943 191.78565 
L 118.679902 193.039571 
L 119.004881 192.881376 
L 119.329861 192.850779 
L 119.65484 193.223944 
L 119.97982 193.957708 
L 120.304799 193.382483 
L 120.629779 194.220677 
L 121.279738 194.858041 
L 121.604717 194.626487 
L 121.929697 193.534964 
L 122.579656 193.791414 
L 122.904636 193.591209 
L 123.229615 193.053169 
L 123.554595 193.406711 
L 123.879574 192.379981 
L 124.204554 191.924755 
L 124.529533 191.072745 
L 124.854513 191.662102 
L 125.179492 191.309347 
L 125.829451 191.937118 
L 126.154431 192.603912 
L 126.47941 192.282079 
L 126.80439 192.718286 
L 127.129369 192.616216 
L 127.454349 191.563017 
L 127.779328 191.807464 
L 128.104308 191.668093 
L 128.429287 191.297028 
L 128.754267 191.901032 
L 129.079247 191.085382 
L 129.729206 191.969554 
L 130.054185 191.474968 
L 130.379165 191.359349 
L 130.704144 190.950971 
L 131.029124 190.362548 
L 131.354103 190.460094 
L 131.679083 190.368034 
L 132.329042 190.665082 
L 132.654021 190.251333 
L 133.30398 190.910784 
L 133.62896 190.493403 
L 133.953939 190.880131 
L 134.278919 190.481197 
L 134.603898 189.774804 
L 134.928878 190.267526 
L 135.253857 189.672793 
L 135.903817 188.999543 
L 136.228796 188.638165 
L 136.553776 187.760703 
L 136.878755 187.96143 
L 137.528714 187.867222 
L 137.853694 187.844967 
L 138.178673 188.093384 
L 138.503653 187.775351 
L 138.828632 188.414733 
L 139.153612 188.537109 
L 139.478591 188.227742 
L 139.803571 188.328535 
L 140.12855 187.980716 
L 140.45353 188.235752 
L 140.778509 187.980311 
L 141.103489 188.26664 
L 141.428468 188.13815 
L 141.753448 188.652366 
L 142.078428 188.147734 
L 142.728387 188.454995 
L 143.378346 189.525977 
L 143.703325 189.576509 
L 144.028305 188.942093 
L 144.353284 188.619253 
L 144.678264 188.547007 
L 145.003243 188.948621 
L 145.328223 188.947956 
L 145.653202 189.116154 
L 146.628141 188.574222 
L 147.2781 189.436744 
L 147.603079 188.778701 
L 147.928059 188.909512 
L 148.253038 188.556 
L 148.578018 188.971047 
L 148.902998 188.713888 
L 149.227977 188.666053 
L 149.552957 188.853153 
L 150.202916 188.285982 
L 150.527895 188.637673 
L 150.852875 188.079594 
L 151.177854 187.791881 
L 151.502834 188.036595 
L 151.827813 188.627572 
L 152.152793 188.528423 
L 152.802752 188.874307 
L 153.127731 188.829413 
L 153.452711 189.053244 
L 154.10267 188.959405 
L 154.752629 189.566149 
L 155.077609 188.913252 
L 155.402588 188.720945 
L 155.727568 189.091955 
L 156.052547 188.791737 
L 156.377527 189.155658 
L 157.027486 188.915474 
L 157.352465 188.626126 
L 157.677445 189.057026 
L 158.002424 189.227221 
L 158.652383 188.432874 
L 159.302342 189.018132 
L 159.627322 188.736635 
L 160.277281 189.281538 
L 160.60226 189.043144 
L 160.92724 189.350462 
L 161.252219 189.137239 
L 161.577199 189.34544 
L 162.227158 189.370114 
L 162.552138 188.957752 
L 162.877117 189.046554 
L 163.202097 188.857581 
L 163.527076 189.421453 
L 164.177035 189.018414 
L 164.502015 189.641157 
L 164.826994 189.603106 
L 165.151974 189.206903 
L 165.476953 189.372981 
L 165.801933 189.172549 
L 166.126912 189.232548 
L 166.451892 189.513171 
L 166.776871 189.305418 
L 167.42683 189.51159 
L 167.75181 188.988797 
L 168.07679 189.18398 
L 168.401769 188.666809 
L 168.726749 188.465289 
L 169.051728 188.924612 
L 169.701687 188.982731 
L 170.351646 188.955413 
L 170.676626 189.166755 
L 171.976544 189.089833 
L 172.951482 189.107035 
L 173.276462 189.02737 
L 173.601441 188.641437 
L 173.926421 188.739649 
L 174.57638 187.89663 
L 174.90136 187.961866 
L 175.226339 187.645522 
L 175.876298 187.522986 
L 176.526257 188.108841 
L 176.851237 187.913961 
L 177.176216 187.565371 
L 177.501196 187.836356 
L 178.151155 187.780552 
L 178.476134 187.265686 
L 178.801114 187.566929 
L 179.126093 187.565368 
L 179.776052 187.233488 
L 180.101032 186.844568 
L 180.426011 186.934904 
L 181.075971 187.593854 
L 182.050909 188.069843 
L 182.375889 187.93705 
L 183.675807 188.143874 
L 184.000786 188.273247 
L 184.975725 188.997065 
L 185.300704 189.034617 
L 185.625684 189.532082 
L 186.275643 189.396396 
L 186.600622 189.073149 
L 186.925602 189.233531 
L 187.900541 188.429854 
L 188.22552 188.502765 
L 188.875479 188.077435 
L 189.200459 188.062645 
L 189.525438 187.782347 
L 190.175397 187.859418 
L 190.500377 187.598341 
L 190.825356 187.897281 
L 191.150336 187.676093 
L 191.475315 187.803536 
L 191.800295 187.653317 
L 193.425192 188.013289 
L 194.075152 187.398838 
L 194.725111 187.721851 
L 195.05009 187.574424 
L 195.37507 187.589675 
L 195.700049 187.433538 
L 196.025029 187.501896 
L 196.350008 187.19378 
L 196.674988 187.595556 
L 196.999967 187.492485 
L 197.324947 187.728855 
L 197.649926 187.765529 
L 197.974906 187.932553 
L 198.624865 187.797884 
L 198.949844 187.857068 
L 199.274824 187.635074 
L 199.599803 187.767023 
L 199.924783 187.671631 
L 200.249762 187.823807 
L 200.899722 187.249052 
L 201.87466 187.36961 
L 202.524619 187.057335 
L 202.849599 187.357026 
L 203.174578 187.10557 
L 203.499558 187.313927 
L 203.824537 187.31122 
L 204.474496 187.51198 
L 205.124455 187.105599 
L 205.774414 187.395184 
L 206.099394 187.16795 
L 207.074333 187.590329 
L 208.374251 187.36609 
L 208.69923 187.148878 
L 209.02421 187.102106 
L 209.349189 187.255656 
L 209.674169 187.224772 
L 209.999148 187.012249 
L 210.324128 187.216837 
L 210.649107 187.23837 
L 211.299066 186.869154 
L 211.624046 186.534895 
L 211.949025 186.369889 
L 212.274005 185.984254 
L 213.573923 185.770913 
L 213.898903 185.899685 
L 214.223882 185.483344 
L 215.84878 185.72968 
L 216.173759 185.956402 
L 216.498739 185.877289 
L 216.823718 185.997033 
L 217.148698 185.690588 
L 217.473677 185.775668 
L 218.448616 185.445133 
L 219.098575 185.647573 
L 219.748534 185.349734 
L 221.048452 185.653203 
L 221.373432 185.637705 
L 222.34837 186.332202 
L 222.67335 186.110055 
L 222.998329 186.410573 
L 223.973268 186.626083 
L 224.623227 187.123681 
L 225.598165 187.16105 
L 226.898084 186.479224 
L 227.223063 186.542537 
L 227.548043 186.308244 
L 227.873022 185.860731 
L 228.522981 185.963313 
L 229.17294 185.675966 
L 229.822899 185.70194 
L 230.472858 185.45989 
L 231.772776 185.353873 
L 232.097756 185.620546 
L 232.747715 185.726406 
L 233.072695 186.018735 
L 233.397674 185.856628 
L 233.722654 185.955595 
L 234.047633 185.811129 
L 234.697592 185.948576 
L 235.347551 185.73487 
L 235.99751 185.787631 
L 237.297428 185.982159 
L 237.622408 185.849599 
L 238.272367 186.093726 
L 238.597346 185.818 
L 239.247305 185.979257 
L 239.897265 185.750405 
L 240.222244 185.713393 
L 240.547224 185.477501 
L 240.872203 185.546058 
L 241.197183 185.334733 
L 242.172121 185.49666 
L 242.497101 185.563416 
L 242.82208 185.503825 
L 243.14706 185.181738 
L 243.797019 185.381112 
L 244.121998 185.122053 
L 245.096937 185.623905 
L 245.421916 185.745421 
L 245.746896 185.669565 
L 246.396855 186.013511 
L 247.046814 185.883958 
L 247.371794 186.084918 
L 249.321671 185.683682 
L 249.97163 185.780866 
L 250.946568 185.456639 
L 252.571466 185.850975 
L 252.896446 186.069613 
L 253.221425 185.786798 
L 253.546405 185.689245 
L 254.196364 185.92765 
L 254.521343 185.626663 
L 254.846323 185.651294 
L 255.171302 185.545658 
L 257.446159 185.804152 
L 258.096118 186.11557 
L 258.421097 185.999267 
L 259.721016 186.289544 
L 260.370975 186.125739 
L 261.670893 186.609989 
L 261.995872 186.473286 
L 262.320852 186.492709 
L 262.645831 186.337161 
L 262.970811 186.316949 
L 263.29579 186.14496 
L 264.270729 186.15207 
L 264.920688 185.855102 
L 265.245667 185.880464 
L 265.570647 185.560131 
L 266.545586 186.033129 
L 266.870565 186.110764 
L 267.195545 185.842599 
L 267.520524 185.902591 
L 268.170483 185.631467 
L 269.145422 185.839736 
L 269.795381 185.914443 
L 270.12036 186.08637 
L 270.44534 186.097007 
L 270.770319 185.980112 
L 271.095299 186.269341 
L 271.420278 186.382436 
L 271.745258 186.311885 
L 272.070238 186.125732 
L 272.395217 186.242749 
L 272.720197 186.209273 
L 273.045176 186.341491 
L 273.370156 186.268283 
L 273.695135 186.375762 
L 274.020115 186.278887 
L 274.995053 186.342991 
L 275.320033 186.154619 
L 276.619951 186.462212 
L 276.94493 186.232728 
L 277.594889 186.410679 
L 277.919869 186.22287 
L 278.569828 186.186537 
L 278.894808 186.094276 
L 279.219787 185.852492 
L 279.544767 185.975536 
L 279.869746 185.96459 
L 280.194726 185.8014 
L 280.519705 185.918466 
L 281.819623 185.254892 
L 282.144603 185.423379 
L 282.794562 185.342294 
L 283.119541 185.129487 
L 284.419459 185.354051 
L 284.744439 185.154845 
L 285.069419 185.177078 
L 285.719378 184.728388 
L 286.044357 184.822952 
L 286.369337 184.750268 
L 286.694316 184.878236 
L 287.019296 184.828051 
L 287.344275 184.62078 
L 287.669255 184.584803 
L 288.319214 184.742221 
L 288.644193 184.535149 
L 288.969173 184.509175 
L 289.619132 184.814045 
L 289.944111 184.757015 
L 290.269091 184.834649 
L 290.59407 184.79408 
L 290.91905 184.955025 
L 291.244029 184.939207 
L 291.569009 184.752524 
L 291.893989 184.852746 
L 292.868927 184.555637 
L 293.518886 184.86866 
L 294.493825 184.95771 
L 294.818804 185.15523 
L 295.793743 185.16827 
L 296.118722 185.224835 
L 296.768681 184.780371 
L 297.093661 184.710602 
L 297.74362 184.988042 
L 298.0686 185.048167 
L 298.393579 184.849197 
L 298.718559 184.975312 
L 299.368518 184.701091 
L 300.668436 184.747364 
L 300.993415 184.684532 
L 301.318395 184.433412 
L 301.643374 184.4556 
L 301.968354 184.682577 
L 302.293333 184.383227 
L 302.618313 184.444568 
L 303.268272 184.269916 
L 303.593251 184.409836 
L 304.24321 184.309193 
L 304.89317 184.172109 
L 305.543129 184.070023 
L 305.868108 184.036546 
L 306.843047 184.472739 
L 307.168026 184.482032 
L 307.493006 184.284609 
L 308.467944 184.358922 
L 309.442883 183.821996 
L 309.767862 183.828895 
L 310.092842 184.024861 
L 311.71774 183.813094 
L 312.042719 183.855308 
L 312.367699 183.716216 
L 313.667617 183.703871 
L 314.642555 183.99281 
L 315.292514 184.084669 
L 315.617494 184.28534 
L 316.267453 184.073734 
L 316.592432 184.127305 
L 316.917412 184.053281 
L 317.567371 184.182752 
L 317.892351 184.403135 
L 318.54231 183.887888 
L 319.842228 184.227054 
L 320.492187 184.164998 
L 321.142146 184.372101 
L 321.467125 184.263723 
L 321.792105 184.402151 
L 322.117084 184.239889 
L 322.442064 184.368054 
L 322.767043 184.234391 
L 323.417002 184.449592 
L 324.066962 184.291667 
L 324.391941 184.42942 
L 325.0419 184.206687 
L 325.691859 183.945471 
L 326.016839 184.118891 
L 328.941654 184.020178 
L 329.591613 183.686965 
L 329.916593 183.859812 
L 330.241572 183.834224 
L 330.566552 183.968703 
L 330.891532 183.828084 
L 331.216511 183.815022 
L 331.541491 183.651493 
L 331.86647 183.682196 
L 332.841409 183.453281 
L 333.166388 183.482546 
L 333.491368 183.665978 
L 333.816347 183.614111 
L 334.141327 183.754619 
L 334.466306 183.676581 
L 334.791286 183.825062 
L 335.441245 183.82412 
L 336.091204 183.773858 
L 337.066143 183.576152 
L 337.391122 183.57984 
L 337.716102 183.395415 
L 339.01602 183.305802 
L 340.640917 183.954011 
L 340.965897 184.000684 
L 341.290876 183.829248 
L 341.615856 183.8398 
L 342.265815 183.684344 
L 343.240753 183.838915 
L 343.565733 183.874029 
L 343.890713 183.752403 
L 344.540672 183.744347 
L 344.865651 183.662447 
L 345.51561 183.863197 
L 346.490549 183.618559 
L 346.815528 183.695889 
L 347.140508 183.556341 
L 347.790467 183.539927 
L 348.765405 183.347122 
L 349.090385 183.465268 
L 350.065324 183.147481 
L 352.015201 183.448341 
L 352.34018 183.574095 
L 353.315119 183.407711 
L 353.965078 183.260405 
L 354.615037 183.448919 
L 355.264996 183.60163 
L 356.889894 183.551486 
L 357.214873 183.301806 
L 358.189812 183.251228 
L 358.839771 183.067709 
L 359.16475 182.909732 
L 360.139689 182.807503 
L 360.789648 183.039406 
L 362.739525 183.181563 
L 363.714464 183.519804 
L 365.339361 183.382646 
L 365.664341 183.207329 
L 366.964259 183.255918 
L 367.614218 183.360074 
L 368.264177 183.194999 
L 369.239115 183.204754 
L 369.564095 183.301945 
L 370.214054 182.992785 
L 370.539034 183.058514 
L 370.864013 182.874541 
L 371.838952 182.906123 
L 372.163931 183.024343 
L 373.788829 182.80034 
L 375.738706 182.902351 
L 376.063686 182.742273 
L 377.038624 182.619923 
L 377.363604 182.722013 
L 377.688583 182.546774 
L 378.663522 182.553273 
L 379.313481 182.57671 
L 379.96344 182.529163 
L 380.613399 182.522787 
L 380.938378 182.394105 
L 381.913317 182.29947 
L 382.238296 182.095091 
L 382.888256 182.154051 
L 383.538215 181.939191 
L 383.863194 181.966323 
L 384.188174 181.834072 
L 384.513153 181.934295 
L 385.163112 181.811355 
L 385.813071 181.723773 
L 386.138051 181.682617 
L 386.78801 181.837159 
L 387.437969 181.713603 
L 388.737887 181.679569 
L 389.387846 181.574878 
L 390.037805 181.548714 
L 390.687764 181.494766 
L 391.337723 181.486082 
L 392.312662 181.264445 
L 392.637641 181.25028 
L 392.962621 181.119643 
L 393.937559 181.024266 
L 395.237477 180.823034 
L 395.562457 180.646487 
L 396.212416 180.494112 
L 398.487273 179.512892 
L 398.487273 179.512892 
" clip-path="url(#p7e2e2d9f4f)" style="fill: none; stroke-dasharray: 2,3.3; stroke-dashoffset: 0; stroke: #ffa500; stroke-width: 2"/>
   </g>
   <g id="patch_3">
    <path d="M 57.6 307.584 
L 57.6 41.472 
" style="fill: none; stroke: #000000; stroke-width: 0.8; stroke-linejoin: miter; stroke-linecap: square"/>
   </g>
   <g id="patch_4">
    <path d="M 414.72 307.584 
L 414.72 41.472 
" style="fill: none; stroke: #000000; stroke-width: 0.8; stroke-linejoin: miter; stroke-linecap: square"/>
   </g>
   <g id="patch_5">
    <path d="M 57.6 307.584 
L 414.72 307.584 
" style="fill: none; stroke: #000000; stroke-width: 0.8; stroke-linejoin: miter; stroke-linecap: square"/>
   </g>
   <g id="patch_6">
    <path d="M 57.6 41.472 
L 414.72 41.472 
" style="fill: none; stroke: #000000; stroke-width: 0.8; stroke-linejoin: miter; stroke-linecap: square"/>
   </g>
   <g id="text_14">
    <!-- Waiting Time Plot -->
    <g transform="translate(183.833438 8.2635)scale(0.12 -0.12)">
     <defs>
      <path id="DejaVuSans-50" d="M 1259 4147 
L 1259 2394 
L 2053 2394 
Q 2494 2394 2734 2622 
Q 2975 2850 2975 3272 
Q 2975 3691 2734 3919 
Q 2494 4147 2053 4147 
L 1259 4147 
z
M 628 4666 
L 2053 4666 
Q 2838 4666 3239 4311 
Q 3641 3956 3641 3272 
Q 3641 2581 3239 2228 
Q 2838 1875 2053 1875 
L 1259 1875 
L 1259 0 
L 628 0 
L 628 4666 
z
" transform="scale(0.015625)"/>
      <path id="DejaVuSans-6c" d="M 603 4863 
L 1178 4863 
L 1178 0 
L 603 0 
L 603 4863 
z
" transform="scale(0.015625)"/>
     </defs>
     <use xlink:href="#DejaVuSans-57"/>
     <use xlink:href="#DejaVuSans-61" x="92.501953"/>
     <use xlink:href="#DejaVuSans-69" x="153.78125"/>
     <use xlink:href="#DejaVuSans-74" x="181.564453"/>
     <use xlink:href="#DejaVuSans-69" x="220.773438"/>
     <use xlink:href="#DejaVuSans-6e" x="248.556641"/>
     <use xlink:href="#DejaVuSans-67" x="311.935547"/>
     <use xlink:href="#DejaVuSans-20" x="375.412109"/>
     <use xlink:href="#DejaVuSans-54" x="407.199219"/>
     <use xlink:href="#DejaVuSans-69" x="465.158203"/>
     <use xlink:href="#DejaVuSans-6d" x="492.941406"/>
     <use xlink:href="#DejaVuSans-65" x="590.353516"/>
     <use xlink:href="#DejaVuSans-20" x="651.876953"/>
     <use xlink:href="#DejaVuSans-50" x="683.664062"/>
     <use xlink:href="#DejaVuSans-6c" x="743.966797"/>
     <use xlink:href="#DejaVuSans-6f" x="771.75"/>
     <use xlink:href="#DejaVuSans-74" x="832.931641"/>
    </g>
    <!--  avg_d = 3047.3482011190695  -->
    <g transform="translate(138.854062 21.700875)scale(0.12 -0.12)">
     <defs>
      <path id="DejaVuSans-76" d="M 191 3500 
L 800 3500 
L 1894 563 
L 2988 3500 
L 3597 3500 
L 2284 0 
L 1503 0 
L 191 3500 
z
" transform="scale(0.015625)"/>
      <path id="DejaVuSans-5f" d="M 3263 -1063 
L 3263 -1509 
L -63 -1509 
L -63 -1063 
L 3263 -1063 
z
" transform="scale(0.015625)"/>
      <path id="DejaVuSans-3d" d="M 678 2906 
L 4684 2906 
L 4684 2381 
L 678 2381 
L 678 2906 
z
M 678 1631 
L 4684 1631 
L 4684 1100 
L 678 1100 
L 678 1631 
z
" transform="scale(0.015625)"/>
      <path id="DejaVuSans-37" d="M 525 4666 
L 3525 4666 
L 3525 4397 
L 1831 0 
L 1172 0 
L 2766 4134 
L 525 4134 
L 525 4666 
z
" transform="scale(0.015625)"/>
      <path id="DejaVuSans-2e" d="M 684 794 
L 1344 794 
L 1344 0 
L 684 0 
L 684 794 
z
" transform="scale(0.015625)"/>
      <path id="DejaVuSans-39" d="M 703 97 
L 703 672 
Q 941 559 1184 500 
Q 1428 441 1663 441 
Q 2288 441 2617 861 
Q 2947 1281 2994 2138 
Q 2813 1869 2534 1725 
Q 2256 1581 1919 1581 
Q 1219 1581 811 2004 
Q 403 2428 403 3163 
Q 403 3881 828 4315 
Q 1253 4750 1959 4750 
Q 2769 4750 3195 4129 
Q 3622 3509 3622 2328 
Q 3622 1225 3098 567 
Q 2575 -91 1691 -91 
Q 1453 -91 1209 -44 
Q 966 3 703 97 
z
M 1959 2075 
Q 2384 2075 2632 2365 
Q 2881 2656 2881 3163 
Q 2881 3666 2632 3958 
Q 2384 4250 1959 4250 
Q 1534 4250 1286 3958 
Q 1038 3666 1038 3163 
Q 1038 2656 1286 2365 
Q 1534 2075 1959 2075 
z
" transform="scale(0.015625)"/>
     </defs>
     <use xlink:href="#DejaVuSans-20"/>
     <use xlink:href="#DejaVuSans-61" x="31.787109"/>
     <use xlink:href="#DejaVuSans-76" x="93.066406"/>
     <use xlink:href="#DejaVuSans-67" x="152.246094"/>
     <use xlink:href="#DejaVuSans-5f" x="215.722656"/>
     <use xlink:href="#DejaVuSans-64" x="265.722656"/>
     <use xlink:href="#DejaVuSans-20" x="329.199219"/>
     <use xlink:href="#DejaVuSans-3d" x="360.986328"/>
     <use xlink:href="#DejaVuSans-20" x="444.775391"/>
     <use xlink:href="#DejaVuSans-33" x="476.5625"/>
     <use xlink:href="#DejaVuSans-30" x="540.185547"/>
     <use xlink:href="#DejaVuSans-34" x="603.808594"/>
     <use xlink:href="#DejaVuSans-37" x="667.431641"/>
     <use xlink:href="#DejaVuSans-2e" x="731.054688"/>
     <use xlink:href="#DejaVuSans-33" x="762.841797"/>
     <use xlink:href="#DejaVuSans-34" x="826.464844"/>
     <use xlink:href="#DejaVuSans-38" x="890.087891"/>
     <use xlink:href="#DejaVuSans-32" x="953.710938"/>
     <use xlink:href="#DejaVuSans-30" x="1017.333984"/>
     <use xlink:href="#DejaVuSans-31" x="1080.957031"/>
     <use xlink:href="#DejaVuSans-31" x="1144.580078"/>
     <use xlink:href="#DejaVuSans-31" x="1208.203125"/>
     <use xlink:href="#DejaVuSans-39" x="1271.826172"/>
     <use xlink:href="#DejaVuSans-30" x="1335.449219"/>
     <use xlink:href="#DejaVuSans-36" x="1399.072266"/>
     <use xlink:href="#DejaVuSans-39" x="1462.695312"/>
     <use xlink:href="#DejaVuSans-35" x="1526.318359"/>
     <use xlink:href="#DejaVuSans-20" x="1589.941406"/>
    </g>
    <!--  avg_a = 1830.9275449857769diff = 1216.4206561332926 -->
    <g transform="translate(55.546875 35.472)scale(0.12 -0.12)">
     <use xlink:href="#DejaVuSans-20"/>
     <use xlink:href="#DejaVuSans-61" x="31.787109"/>
     <use xlink:href="#DejaVuSans-76" x="93.066406"/>
     <use xlink:href="#DejaVuSans-67" x="152.246094"/>
     <use xlink:href="#DejaVuSans-5f" x="215.722656"/>
     <use xlink:href="#DejaVuSans-61" x="265.722656"/>
     <use xlink:href="#DejaVuSans-20" x="327.001953"/>
     <use xlink:href="#DejaVuSans-3d" x="358.789062"/>
     <use xlink:href="#DejaVuSans-20" x="442.578125"/>
     <use xlink:href="#DejaVuSans-31" x="474.365234"/>
     <use xlink:href="#DejaVuSans-38" x="537.988281"/>
     <use xlink:href="#DejaVuSans-33" x="601.611328"/>
     <use xlink:href="#DejaVuSans-30" x="665.234375"/>
     <use xlink:href="#DejaVuSans-2e" x="728.857422"/>
     <use xlink:href="#DejaVuSans-39" x="760.644531"/>
     <use xlink:href="#DejaVuSans-32" x="824.267578"/>
     <use xlink:href="#DejaVuSans-37" x="887.890625"/>
     <use xlink:href="#DejaVuSans-35" x="951.513672"/>
     <use xlink:href="#DejaVuSans-34" x="1015.136719"/>
     <use xlink:href="#DejaVuSans-34" x="1078.759766"/>
     <use xlink:href="#DejaVuSans-39" x="1142.382812"/>
     <use xlink:href="#DejaVuSans-38" x="1206.005859"/>
     <use xlink:href="#DejaVuSans-35" x="1269.628906"/>
     <use xlink:href="#DejaVuSans-37" x="1333.251953"/>
     <use xlink:href="#DejaVuSans-37" x="1396.875"/>
     <use xlink:href="#DejaVuSans-36" x="1460.498047"/>
     <use xlink:href="#DejaVuSans-39" x="1524.121094"/>
     <use xlink:href="#DejaVuSans-64" x="1587.744141"/>
     <use xlink:href="#DejaVuSans-69" x="1651.220703"/>
     <use xlink:href="#DejaVuSans-66" x="1679.003906"/>
     <use xlink:href="#DejaVuSans-66" x="1714.208984"/>
     <use xlink:href="#DejaVuSans-20" x="1749.414062"/>
     <use xlink:href="#DejaVuSans-3d" x="1781.201172"/>
     <use xlink:href="#DejaVuSans-20" x="1864.990234"/>
     <use xlink:href="#DejaVuSans-31" x="1896.777344"/>
     <use xlink:href="#DejaVuSans-32" x="1960.400391"/>
     <use xlink:href="#DejaVuSans-31" x="2024.023438"/>
     <use xlink:href="#DejaVuSans-36" x="2087.646484"/>
     <use xlink:href="#DejaVuSans-2e" x="2151.269531"/>
     <use xlink:href="#DejaVuSans-34" x="2183.056641"/>
     <use xlink:href="#DejaVuSans-32" x="2246.679688"/>
     <use xlink:href="#DejaVuSans-30" x="2310.302734"/>
     <use xlink:href="#DejaVuSans-36" x="2373.925781"/>
     <use xlink:href="#DejaVuSans-35" x="2437.548828"/>
     <use xlink:href="#DejaVuSans-36" x="2501.171875"/>
     <use xlink:href="#DejaVuSans-31" x="2564.794922"/>
     <use xlink:href="#DejaVuSans-33" x="2628.417969"/>
     <use xlink:href="#DejaVuSans-33" x="2692.041016"/>
     <use xlink:href="#DejaVuSans-32" x="2755.664062"/>
     <use xlink:href="#DejaVuSans-39" x="2819.287109"/>
     <use xlink:href="#DejaVuSans-32" x="2882.910156"/>
     <use xlink:href="#DejaVuSans-36" x="2946.533203"/>
    </g>
   </g>
   <g id="legend_1">
    <g id="patch_7">
     <path d="M 263.88875 302.584 
L 407.72 302.584 
Q 409.72 302.584 409.72 300.584 
L 409.72 272.22775 
Q 409.72 270.22775 407.72 270.22775 
L 263.88875 270.22775 
Q 261.88875 270.22775 261.88875 272.22775 
L 261.88875 300.584 
Q 261.88875 302.584 263.88875 302.584 
z
" style="fill: #ffffff; opacity: 0.8; stroke: #cccccc; stroke-linejoin: miter"/>
    </g>
    <g id="line2d_14">
     <path d="M 265.88875 278.326187 
L 275.88875 278.326187 
L 285.88875 278.326187 
" style="fill: none; stroke-dasharray: 2,3.3; stroke-dashoffset: 0; stroke: #0000ff; stroke-width: 2"/>
    </g>
    <g id="text_15">
     <!-- Average (Default) -->
     <g transform="translate(293.88875 281.826187)scale(0.1 -0.1)">
      <defs>
       <path id="DejaVuSans-41" d="M 2188 4044 
L 1331 1722 
L 3047 1722 
L 2188 4044 
z
M 1831 4666 
L 2547 4666 
L 4325 0 
L 3669 0 
L 3244 1197 
L 1141 1197 
L 716 0 
L 50 0 
L 1831 4666 
z
" transform="scale(0.015625)"/>
       <path id="DejaVuSans-28" d="M 1984 4856 
Q 1566 4138 1362 3434 
Q 1159 2731 1159 2009 
Q 1159 1288 1364 580 
Q 1569 -128 1984 -844 
L 1484 -844 
Q 1016 -109 783 600 
Q 550 1309 550 2009 
Q 550 2706 781 3412 
Q 1013 4119 1484 4856 
L 1984 4856 
z
" transform="scale(0.015625)"/>
       <path id="DejaVuSans-44" d="M 1259 4147 
L 1259 519 
L 2022 519 
Q 2988 519 3436 956 
Q 3884 1394 3884 2338 
Q 3884 3275 3436 3711 
Q 2988 4147 2022 4147 
L 1259 4147 
z
M 628 4666 
L 1925 4666 
Q 3281 4666 3915 4102 
Q 4550 3538 4550 2338 
Q 4550 1131 3912 565 
Q 3275 0 1925 0 
L 628 0 
L 628 4666 
z
" transform="scale(0.015625)"/>
       <path id="DejaVuSans-29" d="M 513 4856 
L 1013 4856 
Q 1481 4119 1714 3412 
Q 1947 2706 1947 2009 
Q 1947 1309 1714 600 
Q 1481 -109 1013 -844 
L 513 -844 
Q 928 -128 1133 580 
Q 1338 1288 1338 2009 
Q 1338 2731 1133 3434 
Q 928 4138 513 4856 
z
" transform="scale(0.015625)"/>
      </defs>
      <use xlink:href="#DejaVuSans-41"/>
      <use xlink:href="#DejaVuSans-76" x="62.533203"/>
      <use xlink:href="#DejaVuSans-65" x="121.712891"/>
      <use xlink:href="#DejaVuSans-72" x="183.236328"/>
      <use xlink:href="#DejaVuSans-61" x="224.349609"/>
      <use xlink:href="#DejaVuSans-67" x="285.628906"/>
      <use xlink:href="#DejaVuSans-65" x="349.105469"/>
      <use xlink:href="#DejaVuSans-20" x="410.628906"/>
      <use xlink:href="#DejaVuSans-28" x="442.416016"/>
      <use xlink:href="#DejaVuSans-44" x="481.429688"/>
      <use xlink:href="#DejaVuSans-65" x="558.431641"/>
      <use xlink:href="#DejaVuSans-66" x="619.955078"/>
      <use xlink:href="#DejaVuSans-61" x="655.160156"/>
      <use xlink:href="#DejaVuSans-75" x="716.439453"/>
      <use xlink:href="#DejaVuSans-6c" x="779.818359"/>
      <use xlink:href="#DejaVuSans-74" x="807.601562"/>
      <use xlink:href="#DejaVuSans-29" x="846.810547"/>
     </g>
    </g>
    <g id="line2d_15">
     <path d="M 265.88875 293.004312 
L 275.88875 293.004312 
L 285.88875 293.004312 
" style="fill: none; stroke-dasharray: 2,3.3; stroke-dashoffset: 0; stroke: #ffa500; stroke-width: 2"/>
    </g>
    <g id="text_16">
     <!-- Average (Anticipation) -->
     <g transform="translate(293.88875 296.504312)scale(0.1 -0.1)">
      <defs>
       <path id="DejaVuSans-63" d="M 3122 3366 
L 3122 2828 
Q 2878 2963 2633 3030 
Q 2388 3097 2138 3097 
Q 1578 3097 1268 2742 
Q 959 2388 959 1747 
Q 959 1106 1268 751 
Q 1578 397 2138 397 
Q 2388 397 2633 464 
Q 2878 531 3122 666 
L 3122 134 
Q 2881 22 2623 -34 
Q 2366 -91 2075 -91 
Q 1284 -91 818 406 
Q 353 903 353 1747 
Q 353 2603 823 3093 
Q 1294 3584 2113 3584 
Q 2378 3584 2631 3529 
Q 2884 3475 3122 3366 
z
" transform="scale(0.015625)"/>
       <path id="DejaVuSans-70" d="M 1159 525 
L 1159 -1331 
L 581 -1331 
L 581 3500 
L 1159 3500 
L 1159 2969 
Q 1341 3281 1617 3432 
Q 1894 3584 2278 3584 
Q 2916 3584 3314 3078 
Q 3713 2572 3713 1747 
Q 3713 922 3314 415 
Q 2916 -91 2278 -91 
Q 1894 -91 1617 61 
Q 1341 213 1159 525 
z
M 3116 1747 
Q 3116 2381 2855 2742 
Q 2594 3103 2138 3103 
Q 1681 3103 1420 2742 
Q 1159 2381 1159 1747 
Q 1159 1113 1420 752 
Q 1681 391 2138 391 
Q 2594 391 2855 752 
Q 3116 1113 3116 1747 
z
" transform="scale(0.015625)"/>
      </defs>
      <use xlink:href="#DejaVuSans-41"/>
      <use xlink:href="#DejaVuSans-76" x="62.533203"/>
      <use xlink:href="#DejaVuSans-65" x="121.712891"/>
      <use xlink:href="#DejaVuSans-72" x="183.236328"/>
      <use xlink:href="#DejaVuSans-61" x="224.349609"/>
      <use xlink:href="#DejaVuSans-67" x="285.628906"/>
      <use xlink:href="#DejaVuSans-65" x="349.105469"/>
      <use xlink:href="#DejaVuSans-20" x="410.628906"/>
      <use xlink:href="#DejaVuSans-28" x="442.416016"/>
      <use xlink:href="#DejaVuSans-41" x="481.429688"/>
      <use xlink:href="#DejaVuSans-6e" x="549.837891"/>
      <use xlink:href="#DejaVuSans-74" x="613.216797"/>
      <use xlink:href="#DejaVuSans-69" x="652.425781"/>
      <use xlink:href="#DejaVuSans-63" x="680.208984"/>
      <use xlink:href="#DejaVuSans-69" x="735.189453"/>
      <use xlink:href="#DejaVuSans-70" x="762.972656"/>
      <use xlink:href="#DejaVuSans-61" x="826.449219"/>
      <use xlink:href="#DejaVuSans-74" x="887.728516"/>
      <use xlink:href="#DejaVuSans-69" x="926.9375"/>
      <use xlink:href="#DejaVuSans-6f" x="954.720703"/>
      <use xlink:href="#DejaVuSans-6e" x="1015.902344"/>
      <use xlink:href="#DejaVuSans-29" x="1079.28125"/>
     </g>
    </g>
   </g>
  </g>
 </g>
 <defs>
  <clipPath id="p7e2e2d9f4f">
   <rect x="57.6" y="41.472" width="357.12" height="266.112"/>
  </clipPath>
 </defs>
</svg>
