<?xml version="1.0" encoding="utf-8" standalone="no"?>
<!DOCTYPE svg PUBLIC "-//W3C//DTD SVG 1.1//EN"
  "http://www.w3.org/Graphics/SVG/1.1/DTD/svg11.dtd">
<svg xmlns:xlink="http://www.w3.org/1999/xlink" width="460.8pt" height="345.6pt" viewBox="0 0 460.8 345.6" xmlns="http://www.w3.org/2000/svg" version="1.1">
 <metadata>
  <rdf:RDF xmlns:dc="http://purl.org/dc/elements/1.1/" xmlns:cc="http://creativecommons.org/ns#" xmlns:rdf="http://www.w3.org/1999/02/22-rdf-syntax-ns#">
   <cc:Work>
    <dc:type rdf:resource="http://purl.org/dc/dcmitype/StillImage"/>
    <dc:date>2022-10-04T12:57:41.977649</dc:date>
    <dc:format>image/svg+xml</dc:format>
    <dc:creator>
     <cc:Agent>
      <dc:title>Matplotlib v3.5.3, https://matplotlib.org/</dc:title>
     </cc:Agent>
    </dc:creator>
   </cc:Work>
  </rdf:RDF>
 </metadata>
 <defs>
  <style type="text/css">*{stroke-linejoin: round; stroke-linecap: butt}</style>
 </defs>
 <g id="figure_1">
  <g id="patch_1">
   <path d="M 0 345.6 
L 460.8 345.6 
L 460.8 0 
L 0 0 
z
" style="fill: #ffffff"/>
  </g>
  <g id="axes_1">
   <g id="patch_2">
    <path d="M 57.6 307.584 
L 414.72 307.584 
L 414.72 41.472 
L 57.6 41.472 
z
" style="fill: #ffffff"/>
   </g>
   <g id="matplotlib.axis_1">
    <g id="xtick_1">
     <g id="line2d_1">
      <defs>
       <path id="md27e2e6db0" d="M 0 0 
L 0 3.5 
" style="stroke: #000000; stroke-width: 0.8"/>
      </defs>
      <g>
       <use xlink:href="#md27e2e6db0" x="73.832727" y="307.584" style="stroke: #000000; stroke-width: 0.8"/>
      </g>
     </g>
     <g id="text_1">
      <!-- 0 -->
      <g transform="translate(70.651477 322.182437)scale(0.1 -0.1)">
       <defs>
        <path id="DejaVuSans-30" d="M 2034 4250 
Q 1547 4250 1301 3770 
Q 1056 3291 1056 2328 
Q 1056 1369 1301 889 
Q 1547 409 2034 409 
Q 2525 409 2770 889 
Q 3016 1369 3016 2328 
Q 3016 3291 2770 3770 
Q 2525 4250 2034 4250 
z
M 2034 4750 
Q 2819 4750 3233 4129 
Q 3647 3509 3647 2328 
Q 3647 1150 3233 529 
Q 2819 -91 2034 -91 
Q 1250 -91 836 529 
Q 422 1150 422 2328 
Q 422 3509 836 4129 
Q 1250 4750 2034 4750 
z
" transform="scale(0.015625)"/>
       </defs>
       <use xlink:href="#DejaVuSans-30"/>
      </g>
     </g>
    </g>
    <g id="xtick_2">
     <g id="line2d_2">
      <g>
       <use xlink:href="#md27e2e6db0" x="126.374327" y="307.584" style="stroke: #000000; stroke-width: 0.8"/>
      </g>
     </g>
     <g id="text_2">
      <!-- 5000 -->
      <g transform="translate(113.649327 322.182437)scale(0.1 -0.1)">
       <defs>
        <path id="DejaVuSans-35" d="M 691 4666 
L 3169 4666 
L 3169 4134 
L 1269 4134 
L 1269 2991 
Q 1406 3038 1543 3061 
Q 1681 3084 1819 3084 
Q 2600 3084 3056 2656 
Q 3513 2228 3513 1497 
Q 3513 744 3044 326 
Q 2575 -91 1722 -91 
Q 1428 -91 1123 -41 
Q 819 9 494 109 
L 494 744 
Q 775 591 1075 516 
Q 1375 441 1709 441 
Q 2250 441 2565 725 
Q 2881 1009 2881 1497 
Q 2881 1984 2565 2268 
Q 2250 2553 1709 2553 
Q 1456 2553 1204 2497 
Q 953 2441 691 2322 
L 691 4666 
z
" transform="scale(0.015625)"/>
       </defs>
       <use xlink:href="#DejaVuSans-35"/>
       <use xlink:href="#DejaVuSans-30" x="63.623047"/>
       <use xlink:href="#DejaVuSans-30" x="127.246094"/>
       <use xlink:href="#DejaVuSans-30" x="190.869141"/>
      </g>
     </g>
    </g>
    <g id="xtick_3">
     <g id="line2d_3">
      <g>
       <use xlink:href="#md27e2e6db0" x="178.915927" y="307.584" style="stroke: #000000; stroke-width: 0.8"/>
      </g>
     </g>
     <g id="text_3">
      <!-- 10000 -->
      <g transform="translate(163.009677 322.182437)scale(0.1 -0.1)">
       <defs>
        <path id="DejaVuSans-31" d="M 794 531 
L 1825 531 
L 1825 4091 
L 703 3866 
L 703 4441 
L 1819 4666 
L 2450 4666 
L 2450 531 
L 3481 531 
L 3481 0 
L 794 0 
L 794 531 
z
" transform="scale(0.015625)"/>
       </defs>
       <use xlink:href="#DejaVuSans-31"/>
       <use xlink:href="#DejaVuSans-30" x="63.623047"/>
       <use xlink:href="#DejaVuSans-30" x="127.246094"/>
       <use xlink:href="#DejaVuSans-30" x="190.869141"/>
       <use xlink:href="#DejaVuSans-30" x="254.492188"/>
      </g>
     </g>
    </g>
    <g id="xtick_4">
     <g id="line2d_4">
      <g>
       <use xlink:href="#md27e2e6db0" x="231.457527" y="307.584" style="stroke: #000000; stroke-width: 0.8"/>
      </g>
     </g>
     <g id="text_4">
      <!-- 15000 -->
      <g transform="translate(215.551277 322.182437)scale(0.1 -0.1)">
       <use xlink:href="#DejaVuSans-31"/>
       <use xlink:href="#DejaVuSans-35" x="63.623047"/>
       <use xlink:href="#DejaVuSans-30" x="127.246094"/>
       <use xlink:href="#DejaVuSans-30" x="190.869141"/>
       <use xlink:href="#DejaVuSans-30" x="254.492188"/>
      </g>
     </g>
    </g>
    <g id="xtick_5">
     <g id="line2d_5">
      <g>
       <use xlink:href="#md27e2e6db0" x="283.999127" y="307.584" style="stroke: #000000; stroke-width: 0.8"/>
      </g>
     </g>
     <g id="text_5">
      <!-- 20000 -->
      <g transform="translate(268.092877 322.182437)scale(0.1 -0.1)">
       <defs>
        <path id="DejaVuSans-32" d="M 1228 531 
L 3431 531 
L 3431 0 
L 469 0 
L 469 531 
Q 828 903 1448 1529 
Q 2069 2156 2228 2338 
Q 2531 2678 2651 2914 
Q 2772 3150 2772 3378 
Q 2772 3750 2511 3984 
Q 2250 4219 1831 4219 
Q 1534 4219 1204 4116 
Q 875 4013 500 3803 
L 500 4441 
Q 881 4594 1212 4672 
Q 1544 4750 1819 4750 
Q 2544 4750 2975 4387 
Q 3406 4025 3406 3419 
Q 3406 3131 3298 2873 
Q 3191 2616 2906 2266 
Q 2828 2175 2409 1742 
Q 1991 1309 1228 531 
z
" transform="scale(0.015625)"/>
       </defs>
       <use xlink:href="#DejaVuSans-32"/>
       <use xlink:href="#DejaVuSans-30" x="63.623047"/>
       <use xlink:href="#DejaVuSans-30" x="127.246094"/>
       <use xlink:href="#DejaVuSans-30" x="190.869141"/>
       <use xlink:href="#DejaVuSans-30" x="254.492188"/>
      </g>
     </g>
    </g>
    <g id="xtick_6">
     <g id="line2d_6">
      <g>
       <use xlink:href="#md27e2e6db0" x="336.540727" y="307.584" style="stroke: #000000; stroke-width: 0.8"/>
      </g>
     </g>
     <g id="text_6">
      <!-- 25000 -->
      <g transform="translate(320.634477 322.182437)scale(0.1 -0.1)">
       <use xlink:href="#DejaVuSans-32"/>
       <use xlink:href="#DejaVuSans-35" x="63.623047"/>
       <use xlink:href="#DejaVuSans-30" x="127.246094"/>
       <use xlink:href="#DejaVuSans-30" x="190.869141"/>
       <use xlink:href="#DejaVuSans-30" x="254.492188"/>
      </g>
     </g>
    </g>
    <g id="xtick_7">
     <g id="line2d_7">
      <g>
       <use xlink:href="#md27e2e6db0" x="389.082326" y="307.584" style="stroke: #000000; stroke-width: 0.8"/>
      </g>
     </g>
     <g id="text_7">
      <!-- 30000 -->
      <g transform="translate(373.176076 322.182437)scale(0.1 -0.1)">
       <defs>
        <path id="DejaVuSans-33" d="M 2597 2516 
Q 3050 2419 3304 2112 
Q 3559 1806 3559 1356 
Q 3559 666 3084 287 
Q 2609 -91 1734 -91 
Q 1441 -91 1130 -33 
Q 819 25 488 141 
L 488 750 
Q 750 597 1062 519 
Q 1375 441 1716 441 
Q 2309 441 2620 675 
Q 2931 909 2931 1356 
Q 2931 1769 2642 2001 
Q 2353 2234 1838 2234 
L 1294 2234 
L 1294 2753 
L 1863 2753 
Q 2328 2753 2575 2939 
Q 2822 3125 2822 3475 
Q 2822 3834 2567 4026 
Q 2313 4219 1838 4219 
Q 1578 4219 1281 4162 
Q 984 4106 628 3988 
L 628 4550 
Q 988 4650 1302 4700 
Q 1616 4750 1894 4750 
Q 2613 4750 3031 4423 
Q 3450 4097 3450 3541 
Q 3450 3153 3228 2886 
Q 3006 2619 2597 2516 
z
" transform="scale(0.015625)"/>
       </defs>
       <use xlink:href="#DejaVuSans-33"/>
       <use xlink:href="#DejaVuSans-30" x="63.623047"/>
       <use xlink:href="#DejaVuSans-30" x="127.246094"/>
       <use xlink:href="#DejaVuSans-30" x="190.869141"/>
       <use xlink:href="#DejaVuSans-30" x="254.492188"/>
      </g>
     </g>
    </g>
   </g>
   <g id="matplotlib.axis_2">
    <g id="ytick_1">
     <g id="line2d_8">
      <defs>
       <path id="m12df31a9d9" d="M 0 0 
L -3.5 0 
" style="stroke: #000000; stroke-width: 0.8"/>
      </defs>
      <g>
       <use xlink:href="#m12df31a9d9" x="57.6" y="295.488" style="stroke: #000000; stroke-width: 0.8"/>
      </g>
     </g>
     <g id="text_8">
      <!-- 0.0 -->
      <g transform="translate(34.696875 299.287219)scale(0.1 -0.1)">
       <defs>
        <path id="DejaVuSans-2e" d="M 684 794 
L 1344 794 
L 1344 0 
L 684 0 
L 684 794 
z
" transform="scale(0.015625)"/>
       </defs>
       <use xlink:href="#DejaVuSans-30"/>
       <use xlink:href="#DejaVuSans-2e" x="63.623047"/>
       <use xlink:href="#DejaVuSans-30" x="95.410156"/>
      </g>
     </g>
    </g>
    <g id="ytick_2">
     <g id="line2d_9">
      <g>
       <use xlink:href="#m12df31a9d9" x="57.6" y="247.104" style="stroke: #000000; stroke-width: 0.8"/>
      </g>
     </g>
     <g id="text_9">
      <!-- 0.2 -->
      <g transform="translate(34.696875 250.903219)scale(0.1 -0.1)">
       <use xlink:href="#DejaVuSans-30"/>
       <use xlink:href="#DejaVuSans-2e" x="63.623047"/>
       <use xlink:href="#DejaVuSans-32" x="95.410156"/>
      </g>
     </g>
    </g>
    <g id="ytick_3">
     <g id="line2d_10">
      <g>
       <use xlink:href="#m12df31a9d9" x="57.6" y="198.72" style="stroke: #000000; stroke-width: 0.8"/>
      </g>
     </g>
     <g id="text_10">
      <!-- 0.4 -->
      <g transform="translate(34.696875 202.519219)scale(0.1 -0.1)">
       <defs>
        <path id="DejaVuSans-34" d="M 2419 4116 
L 825 1625 
L 2419 1625 
L 2419 4116 
z
M 2253 4666 
L 3047 4666 
L 3047 1625 
L 3713 1625 
L 3713 1100 
L 3047 1100 
L 3047 0 
L 2419 0 
L 2419 1100 
L 313 1100 
L 313 1709 
L 2253 4666 
z
" transform="scale(0.015625)"/>
       </defs>
       <use xlink:href="#DejaVuSans-30"/>
       <use xlink:href="#DejaVuSans-2e" x="63.623047"/>
       <use xlink:href="#DejaVuSans-34" x="95.410156"/>
      </g>
     </g>
    </g>
    <g id="ytick_4">
     <g id="line2d_11">
      <g>
       <use xlink:href="#m12df31a9d9" x="57.6" y="150.336" style="stroke: #000000; stroke-width: 0.8"/>
      </g>
     </g>
     <g id="text_11">
      <!-- 0.6 -->
      <g transform="translate(34.696875 154.135219)scale(0.1 -0.1)">
       <defs>
        <path id="DejaVuSans-36" d="M 2113 2584 
Q 1688 2584 1439 2293 
Q 1191 2003 1191 1497 
Q 1191 994 1439 701 
Q 1688 409 2113 409 
Q 2538 409 2786 701 
Q 3034 994 3034 1497 
Q 3034 2003 2786 2293 
Q 2538 2584 2113 2584 
z
M 3366 4563 
L 3366 3988 
Q 3128 4100 2886 4159 
Q 2644 4219 2406 4219 
Q 1781 4219 1451 3797 
Q 1122 3375 1075 2522 
Q 1259 2794 1537 2939 
Q 1816 3084 2150 3084 
Q 2853 3084 3261 2657 
Q 3669 2231 3669 1497 
Q 3669 778 3244 343 
Q 2819 -91 2113 -91 
Q 1303 -91 875 529 
Q 447 1150 447 2328 
Q 447 3434 972 4092 
Q 1497 4750 2381 4750 
Q 2619 4750 2861 4703 
Q 3103 4656 3366 4563 
z
" transform="scale(0.015625)"/>
       </defs>
       <use xlink:href="#DejaVuSans-30"/>
       <use xlink:href="#DejaVuSans-2e" x="63.623047"/>
       <use xlink:href="#DejaVuSans-36" x="95.410156"/>
      </g>
     </g>
    </g>
    <g id="ytick_5">
     <g id="line2d_12">
      <g>
       <use xlink:href="#m12df31a9d9" x="57.6" y="101.952" style="stroke: #000000; stroke-width: 0.8"/>
      </g>
     </g>
     <g id="text_12">
      <!-- 0.8 -->
      <g transform="translate(34.696875 105.751219)scale(0.1 -0.1)">
       <defs>
        <path id="DejaVuSans-38" d="M 2034 2216 
Q 1584 2216 1326 1975 
Q 1069 1734 1069 1313 
Q 1069 891 1326 650 
Q 1584 409 2034 409 
Q 2484 409 2743 651 
Q 3003 894 3003 1313 
Q 3003 1734 2745 1975 
Q 2488 2216 2034 2216 
z
M 1403 2484 
Q 997 2584 770 2862 
Q 544 3141 544 3541 
Q 544 4100 942 4425 
Q 1341 4750 2034 4750 
Q 2731 4750 3128 4425 
Q 3525 4100 3525 3541 
Q 3525 3141 3298 2862 
Q 3072 2584 2669 2484 
Q 3125 2378 3379 2068 
Q 3634 1759 3634 1313 
Q 3634 634 3220 271 
Q 2806 -91 2034 -91 
Q 1263 -91 848 271 
Q 434 634 434 1313 
Q 434 1759 690 2068 
Q 947 2378 1403 2484 
z
M 1172 3481 
Q 1172 3119 1398 2916 
Q 1625 2713 2034 2713 
Q 2441 2713 2670 2916 
Q 2900 3119 2900 3481 
Q 2900 3844 2670 4047 
Q 2441 4250 2034 4250 
Q 1625 4250 1398 4047 
Q 1172 3844 1172 3481 
z
" transform="scale(0.015625)"/>
       </defs>
       <use xlink:href="#DejaVuSans-30"/>
       <use xlink:href="#DejaVuSans-2e" x="63.623047"/>
       <use xlink:href="#DejaVuSans-38" x="95.410156"/>
      </g>
     </g>
    </g>
    <g id="ytick_6">
     <g id="line2d_13">
      <g>
       <use xlink:href="#m12df31a9d9" x="57.6" y="53.568" style="stroke: #000000; stroke-width: 0.8"/>
      </g>
     </g>
     <g id="text_13">
      <!-- 1.0 -->
      <g transform="translate(34.696875 57.367219)scale(0.1 -0.1)">
       <use xlink:href="#DejaVuSans-31"/>
       <use xlink:href="#DejaVuSans-2e" x="63.623047"/>
       <use xlink:href="#DejaVuSans-30" x="95.410156"/>
      </g>
     </g>
    </g>
   </g>
   <g id="line2d_14">
    <path d="M 73.832727 295.488 
L 74.042894 295.488 
L 74.200518 283.392 
L 74.358143 283.392 
L 74.515768 271.296 
L 74.673393 271.296 
L 74.831018 259.2 
L 75.041184 259.2 
L 75.198809 247.104 
L 75.356434 247.104 
L 75.514058 235.008 
L 75.619142 235.008 
L 75.776766 222.912 
L 76.407266 222.912 
L 76.56489 210.816 
L 76.775057 210.816 
L 76.932682 198.72 
L 77.19539 198.72 
L 77.353014 186.624 
L 77.510639 186.624 
L 77.668264 174.528 
L 77.825889 174.528 
L 77.983514 162.432 
L 78.141138 174.528 
L 78.298763 162.432 
L 78.456388 162.432 
L 78.614013 150.336 
L 78.771638 162.432 
L 78.929262 150.336 
L 79.19197 150.336 
L 79.349595 138.24 
L 79.559762 138.24 
L 79.717386 126.144 
L 79.769928 126.144 
L 79.927553 114.048 
L 80.295344 114.048 
L 80.452969 101.952 
L 80.663135 101.952 
L 80.82076 114.048 
L 80.978385 114.048 
L 81.13601 101.952 
L 81.293634 101.952 
L 81.451259 89.856 
L 81.556342 101.952 
L 81.713967 89.856 
L 82.029217 89.856 
L 82.1343 101.952 
L 82.291925 89.856 
L 82.344466 89.856 
L 82.502091 77.76 
L 82.659716 77.76 
L 82.764799 65.664 
L 82.922424 89.856 
L 83.080049 77.76 
L 83.605465 77.76 
L 83.76309 65.664 
L 83.868173 65.664 
L 83.973256 53.568 
L 84.130881 65.664 
L 84.288506 53.568 
L 84.341047 53.568 
L 84.44613 65.664 
L 84.603755 53.568 
L 84.708838 53.568 
L 84.866463 65.664 
L 85.129171 65.664 
L 85.234254 53.568 
L 85.391879 65.664 
L 85.496962 65.664 
L 85.654587 53.568 
L 86.180003 53.568 
L 86.442711 89.856 
L 86.652878 89.856 
L 86.810502 65.664 
L 86.863044 77.76 
L 86.915586 65.664 
L 87.125752 65.664 
L 87.283377 53.568 
L 87.546085 53.568 
L 87.651168 65.664 
L 87.808793 53.568 
L 88.229126 53.568 
L 88.38675 65.664 
L 88.491834 65.664 
L 88.649458 53.568 
L 88.964708 53.568 
L 89.122333 65.664 
L 89.279958 53.568 
L 90.33079 53.568 
L 90.435873 65.664 
L 90.488414 53.568 
L 90.540956 65.664 
L 90.593498 65.664 
L 90.646039 77.76 
L 90.803664 53.568 
L 91.01383 77.76 
L 91.276538 77.76 
L 91.381622 53.568 
L 91.434163 65.664 
L 91.539246 65.664 
L 91.696871 89.856 
L 91.854496 77.76 
L 91.959579 77.76 
L 92.117204 53.568 
L 92.274829 65.664 
L 92.432454 53.568 
L 92.64262 53.568 
L 92.800245 65.664 
L 92.95787 53.568 
L 93.010411 53.568 
L 93.115494 77.76 
L 93.168036 65.664 
L 93.220578 65.664 
L 93.378202 53.568 
L 94.008702 53.568 
L 94.166326 65.664 
L 94.323951 53.568 
L 96.162907 53.568 
L 96.320532 65.664 
L 96.373074 65.664 
L 96.530698 53.568 
L 96.740865 53.568 
L 96.89849 65.664 
L 96.951031 65.664 
L 97.056114 53.568 
L 97.108656 65.664 
L 97.161198 53.568 
L 97.686614 53.568 
L 97.89678 77.76 
L 98.106946 53.568 
L 98.264571 65.664 
L 98.422196 53.568 
L 98.737446 53.568 
L 98.89507 65.664 
L 98.947612 65.664 
L 99.105237 53.568 
L 99.157778 53.568 
L 99.262862 65.664 
L 99.420486 53.568 
L 99.473028 53.568 
L 99.578111 65.664 
L 99.735736 53.568 
L 100.944193 53.568 
L 100.996734 65.664 
L 101.049276 53.568 
L 101.259442 53.568 
L 101.364526 77.76 
L 101.417067 65.664 
L 101.469609 65.664 
L 101.627234 53.568 
L 101.679775 65.664 
L 101.732317 53.568 
L 101.889942 53.568 
L 101.942483 65.664 
L 101.995025 53.568 
L 102.047566 53.568 
L 102.100108 65.664 
L 102.15265 53.568 
L 102.572982 53.568 
L 102.625524 65.664 
L 102.678066 53.568 
L 102.888232 53.568 
L 102.940774 65.664 
L 102.993315 53.568 
L 103.518731 53.568 
L 103.571273 65.664 
L 103.623814 53.568 
L 103.728898 53.568 
L 103.886522 65.664 
L 103.939064 65.664 
L 104.096689 53.568 
L 104.254314 53.568 
L 104.411938 65.664 
L 104.569563 65.664 
L 104.727188 53.568 
L 105.46277 53.568 
L 105.515312 65.664 
L 105.567854 53.568 
L 105.830562 53.568 
L 106.040728 77.76 
L 106.145811 77.76 
L 106.250894 53.568 
L 106.408519 77.76 
L 106.618686 53.568 
L 106.933935 53.568 
L 107.09156 65.664 
L 107.249185 53.568 
L 107.301726 53.568 
L 107.40681 65.664 
L 107.564434 53.568 
L 107.669518 53.568 
L 107.774601 77.76 
L 107.932226 53.568 
L 108.08985 53.568 
L 108.247475 77.76 
L 108.4051 77.76 
L 108.562725 65.664 
L 108.667808 65.664 
L 108.825433 53.568 
L 109.245766 53.568 
L 109.350849 77.76 
L 109.508474 53.568 
L 110.191514 53.568 
L 110.349139 65.664 
L 110.401681 65.664 
L 110.559306 53.568 
L 110.874555 53.568 
L 111.03218 65.664 
L 111.084722 65.664 
L 111.242346 53.568 
L 111.820304 53.568 
L 111.872846 65.664 
L 111.925387 53.568 
L 112.03047 53.568 
L 112.083012 65.664 
L 112.135554 53.568 
L 113.449094 53.568 
L 113.501635 65.664 
L 113.554177 53.568 
L 113.711802 53.568 
L 113.764343 65.664 
L 113.816885 53.568 
L 113.97451 53.568 
L 114.132134 65.664 
L 114.184676 53.568 
L 114.237218 65.664 
L 114.447384 65.664 
L 114.605009 53.568 
L 114.710092 53.568 
L 114.815175 65.664 
L 114.9728 53.568 
L 115.550758 53.568 
L 115.655841 65.664 
L 115.813466 53.568 
L 116.60159 53.568 
L 116.759214 65.664 
L 116.864298 65.664 
L 117.021922 53.568 
L 117.232089 53.568 
L 117.28463 65.664 
L 117.337172 53.568 
L 117.967671 53.568 
L 118.125296 65.664 
L 118.230379 65.664 
L 118.335462 53.568 
L 118.545629 77.76 
L 118.755795 53.568 
L 119.123586 53.568 
L 119.22867 65.664 
L 119.386294 53.568 
L 119.701544 53.568 
L 119.91171 89.856 
L 120.174418 53.568 
L 120.699834 53.568 
L 120.857459 77.76 
L 121.015084 53.568 
L 121.172709 53.568 
L 121.382875 77.76 
L 121.593042 53.568 
L 121.803208 53.568 
L 121.960833 65.664 
L 122.118458 53.568 
L 123.326914 53.568 
L 123.431998 65.664 
L 123.589622 53.568 
L 124.009955 53.568 
L 124.062497 65.664 
L 124.115038 53.568 
L 124.692996 53.568 
L 124.745538 65.664 
L 124.798079 53.568 
L 126.321786 53.568 
L 126.374327 65.664 
L 126.426869 53.568 
L 126.637035 53.568 
L 126.742118 89.856 
L 126.79466 77.76 
L 126.952285 53.568 
L 127.004826 65.664 
L 127.057368 53.568 
L 127.162451 53.568 
L 127.267534 65.664 
L 127.425159 53.568 
L 127.635326 53.568 
L 127.687867 65.664 
L 127.740409 53.568 
L 129.474282 53.568 
L 129.631906 65.664 
L 129.73699 53.568 
L 129.789531 65.664 
L 129.842073 53.568 
L 129.999698 53.568 
L 130.157322 65.664 
L 130.209864 65.664 
L 130.314947 77.76 
L 130.525114 53.568 
L 130.787822 53.568 
L 130.945446 65.664 
L 131.103071 65.664 
L 131.260696 53.568 
L 132.04882 53.568 
L 132.101362 65.664 
L 132.153903 53.568 
L 132.784402 53.568 
L 132.994569 77.76 
L 133.04711 77.76 
L 133.204735 53.568 
L 133.414901 53.568 
L 133.572526 77.76 
L 133.677609 65.664 
L 133.730151 77.76 
L 133.782693 53.568 
L 133.835234 65.664 
L 133.887776 65.664 
L 134.045401 53.568 
L 134.097942 53.568 
L 134.255567 77.76 
L 134.465733 53.568 
L 135.779273 53.568 
L 135.831815 65.664 
L 135.884357 53.568 
L 135.98944 53.568 
L 136.041981 65.664 
L 136.094523 53.568 
L 136.199606 53.568 
L 136.252148 65.664 
L 136.304689 53.568 
L 136.462314 53.568 
L 136.672481 77.76 
L 136.882647 53.568 
L 136.935189 77.76 
L 136.98773 65.664 
L 137.145355 65.664 
L 137.30298 53.568 
L 137.355521 53.568 
L 137.408063 65.664 
L 137.460605 53.568 
L 137.775854 53.568 
L 137.880937 65.664 
L 138.038562 53.568 
L 138.669061 53.568 
L 138.826686 65.664 
L 138.879228 65.664 
L 139.036853 53.568 
L 139.194477 65.664 
L 139.299561 65.664 
L 139.457185 53.568 
L 139.667352 53.568 
L 139.719893 65.664 
L 139.772435 53.568 
L 139.982601 53.568 
L 140.087685 65.664 
L 140.245309 53.568 
L 140.350393 53.568 
L 140.508017 65.664 
L 140.613101 65.664 
L 140.770725 53.568 
L 141.926641 53.568 
L 142.084265 65.664 
L 142.24189 53.568 
L 142.504598 53.568 
L 142.662223 65.664 
L 142.767306 65.664 
L 142.872389 53.568 
L 143.030014 65.664 
L 143.187639 53.568 
L 143.292722 53.568 
L 143.397805 77.76 
L 143.55543 53.568 
L 144.291013 53.568 
L 144.396096 65.664 
L 144.553721 53.568 
L 145.394386 53.568 
L 145.499469 65.664 
L 145.657094 53.568 
L 146.129969 53.568 
L 146.287593 65.664 
L 146.445218 53.568 
L 146.550301 53.568 
L 146.707926 65.664 
L 146.865551 53.568 
L 149.072298 53.568 
L 149.12484 65.664 
L 149.177381 53.568 
L 150.280755 53.568 
L 150.385838 65.664 
L 150.543463 53.568 
L 151.226504 53.568 
L 151.279045 65.664 
L 151.331587 53.568 
L 151.75192 53.568 
L 151.909545 89.856 
L 151.962086 89.856 
L 152.224794 53.568 
L 153.328168 53.568 
L 153.485793 65.664 
L 153.643417 53.568 
L 154.221375 53.568 
L 154.379 65.664 
L 154.536625 53.568 
L 154.589166 53.568 
L 154.694249 65.664 
L 154.851874 53.568 
L 155.37729 53.568 
L 155.429832 65.664 
L 155.482373 53.568 
L 156.323039 53.568 
L 156.428122 65.664 
L 156.533205 53.568 
L 156.585747 65.664 
L 156.638289 53.568 
L 156.69083 53.568 
L 156.743372 65.664 
L 156.795913 53.568 
L 156.848455 53.568 
L 156.900997 65.664 
L 156.953538 53.568 
L 157.163705 53.568 
L 157.268788 65.664 
L 157.373871 53.568 
L 157.426413 65.664 
L 157.478954 53.568 
L 157.741662 53.568 
L 157.899287 65.664 
L 158.056912 53.568 
L 158.372161 53.568 
L 158.529786 65.664 
L 158.582328 65.664 
L 158.739953 53.568 
L 158.845036 53.568 
L 158.950119 65.664 
L 159.107744 53.568 
L 160.106034 53.568 
L 160.263659 65.664 
L 160.316201 65.664 
L 160.368742 77.76 
L 160.421284 65.664 
L 160.578909 53.568 
L 160.9467 53.568 
L 160.999241 65.664 
L 161.051783 53.568 
L 161.787365 53.568 
L 161.892449 65.664 
L 162.050073 53.568 
L 162.155157 53.568 
L 162.312781 65.664 
L 162.470406 53.568 
L 162.943281 53.568 
L 162.995822 65.664 
L 163.048364 53.568 
L 163.100905 53.568 
L 163.205989 65.664 
L 163.363613 53.568 
L 163.468697 53.568 
L 163.57378 65.664 
L 163.731405 53.568 
L 163.994113 53.568 
L 164.099196 65.664 
L 164.256821 53.568 
L 164.414445 53.568 
L 164.466987 65.664 
L 164.519529 53.568 
L 164.834778 53.568 
L 164.88732 65.664 
L 164.939861 53.568 
L 165.307653 53.568 
L 165.465277 65.664 
L 165.570361 65.664 
L 165.727985 53.568 
L 165.780527 65.664 
L 165.833069 53.568 
L 165.990693 53.568 
L 166.043235 65.664 
L 166.095777 53.568 
L 166.253401 53.568 
L 166.305943 65.664 
L 166.358485 53.568 
L 166.411026 53.568 
L 166.463568 65.664 
L 166.516109 53.568 
L 167.304233 53.568 
L 167.409317 65.664 
L 167.566941 53.568 
L 168.82794 53.568 
L 168.985565 65.664 
L 169.143189 53.568 
L 170.088938 53.568 
L 170.246563 65.664 
L 170.404188 53.568 
L 172.505852 53.568 
L 172.558393 65.664 
L 172.610935 53.568 
L 172.716018 53.568 
L 172.821101 77.76 
L 172.978726 53.568 
L 173.346517 53.568 
L 173.504142 101.952 
L 173.556684 89.856 
L 173.661767 53.568 
L 173.714309 65.664 
L 173.76685 53.568 
L 173.819392 53.568 
L 173.871933 65.664 
L 173.924475 53.568 
L 174.554974 53.568 
L 174.660057 89.856 
L 174.712599 77.76 
L 174.870224 77.76 
L 175.08039 53.568 
L 175.815973 53.568 
L 176.026139 77.76 
L 176.078681 77.76 
L 176.236305 53.568 
L 176.866805 53.568 
L 176.919346 65.664 
L 176.971888 53.568 
L 177.287137 53.568 
L 177.497304 77.76 
L 177.549845 77.76 
L 177.602387 89.856 
L 177.760012 53.568 
L 178.02272 53.568 
L 178.127803 65.664 
L 178.285428 53.568 
L 178.443053 53.568 
L 178.653219 77.76 
L 178.705761 77.76 
L 178.810844 89.856 
L 179.02101 53.568 
L 179.073552 65.664 
L 179.126093 53.568 
L 179.809134 53.568 
L 179.914217 65.664 
L 180.071842 53.568 
L 180.859966 53.568 
L 180.912508 65.664 
L 180.965049 53.568 
L 181.017591 53.568 
L 181.122674 65.664 
L 181.280299 53.568 
L 182.226048 53.568 
L 182.383673 65.664 
L 182.541297 53.568 
L 184.117545 53.568 
L 184.222629 65.664 
L 184.380253 53.568 
L 184.432795 65.664 
L 184.485337 53.568 
L 185.010753 53.568 
L 185.115836 65.664 
L 185.273461 53.568 
L 185.326002 65.664 
L 185.378544 53.568 
L 185.58871 53.568 
L 185.798877 77.76 
L 185.90396 53.568 
L 185.956501 65.664 
L 186.009043 65.664 
L 186.166668 53.568 
L 186.376834 53.568 
L 186.481917 65.664 
L 186.639542 53.568 
L 187.007333 53.568 
L 187.164958 65.664 
L 187.2175 65.664 
L 187.322583 53.568 
L 187.375125 65.664 
L 187.427666 53.568 
L 187.742916 53.568 
L 188.005624 89.856 
L 188.268332 53.568 
L 188.373415 53.568 
L 188.53104 65.664 
L 188.583581 65.664 
L 188.636123 77.76 
L 188.688665 65.664 
L 188.793748 65.664 
L 188.951373 53.568 
L 189.056456 53.568 
L 189.161539 65.664 
L 189.214081 53.568 
L 189.266622 65.664 
L 189.476789 65.664 
L 189.52933 77.76 
L 189.686955 53.568 
L 190.002205 53.568 
L 190.107288 65.664 
L 190.264913 53.568 
L 190.737787 53.568 
L 190.84287 65.664 
L 190.895412 53.568 
L 190.947953 65.664 
L 191.053037 65.664 
L 191.105578 77.76 
L 191.15812 65.664 
L 191.315745 53.568 
L 191.578453 53.568 
L 191.736077 65.664 
L 191.788619 65.664 
L 191.893702 53.568 
L 192.051327 65.664 
L 192.103869 65.664 
L 192.261493 53.568 
L 192.944534 53.568 
L 193.049617 65.664 
L 193.207242 53.568 
L 193.46995 53.568 
L 193.575033 65.664 
L 193.732658 53.568 
L 194.363157 53.568 
L 194.520782 65.664 
L 194.573324 65.664 
L 194.730949 53.568 
L 195.361448 53.568 
L 195.413989 65.664 
L 195.466531 53.568 
L 195.939405 53.568 
L 195.991947 65.664 
L 196.044489 53.568 
L 197.200404 53.568 
L 197.41057 77.76 
L 197.463112 77.76 
L 197.515653 89.856 
L 197.673278 53.568 
L 197.883445 53.568 
L 197.935986 65.664 
L 197.988528 53.568 
L 198.093611 53.568 
L 198.251236 65.664 
L 198.356319 65.664 
L 198.461402 53.568 
L 198.619027 65.664 
L 198.671569 65.664 
L 198.72411 53.568 
L 198.776652 65.664 
L 198.986818 65.664 
L 199.091901 53.568 
L 199.249526 65.664 
L 199.407151 53.568 
L 199.512234 65.664 
L 199.669859 53.568 
L 199.827484 53.568 
L 200.03765 77.76 
L 200.142733 77.76 
L 200.300358 65.664 
L 200.3529 65.664 
L 200.510525 53.568 
L 200.878316 53.568 
L 200.983399 89.856 
L 201.035941 77.76 
L 201.193565 53.568 
L 202.244397 53.568 
L 202.296939 65.664 
L 202.34948 53.568 
L 202.402022 53.568 
L 202.454564 65.664 
L 202.507105 53.568 
L 202.612188 53.568 
L 202.717272 77.76 
L 202.769813 65.664 
L 202.97998 65.664 
L 203.085063 53.568 
L 203.190146 65.664 
L 203.295229 53.568 
L 203.400312 65.664 
L 203.557937 53.568 
L 204.818936 53.568 
L 204.97656 65.664 
L 205.134185 53.568 
L 205.239268 77.76 
L 205.29181 53.568 
L 205.344352 65.664 
L 205.449435 65.664 
L 205.60706 53.568 
L 205.922309 53.568 
L 206.079934 65.664 
L 206.237559 53.568 
L 206.552808 53.568 
L 206.710433 65.664 
L 206.868058 53.568 
L 207.025683 77.76 
L 207.183308 53.568 
L 207.288391 65.664 
L 207.446016 53.568 
L 207.498557 53.568 
L 207.60364 65.664 
L 207.761265 53.568 
L 208.181598 53.568 
L 208.23414 65.664 
L 208.286681 53.568 
L 209.600221 53.568 
L 209.757846 65.664 
L 209.915471 53.568 
L 210.703595 53.568 
L 210.756136 65.664 
L 210.808678 53.568 
L 211.491719 53.568 
L 211.54426 65.664 
L 211.596802 53.568 
L 212.017135 53.568 
L 212.227301 77.76 
L 212.332384 77.76 
L 212.542551 53.568 
L 212.700176 65.664 
L 213.067967 65.664 
L 213.225592 53.568 
L 214.434048 53.568 
L 214.539132 65.664 
L 214.696756 53.568 
L 214.80184 53.568 
L 214.906923 65.664 
L 215.064548 53.568 
L 215.222172 53.568 
L 215.432339 77.76 
L 215.589964 65.664 
L 215.642505 77.76 
L 215.695047 65.664 
L 215.852672 53.568 
L 216.010296 53.568 
L 216.167921 65.664 
L 216.220463 65.664 
L 216.378088 53.568 
L 216.483171 53.568 
L 216.535712 65.664 
L 216.588254 53.568 
L 216.693337 53.568 
L 216.79842 65.664 
L 216.903504 53.568 
L 217.008587 65.664 
L 217.166212 53.568 
L 217.481461 53.568 
L 217.744169 89.856 
L 217.796711 89.856 
L 217.954336 53.568 
L 218.269585 53.568 
L 218.322127 65.664 
L 218.374668 53.568 
L 218.74246 53.568 
L 218.952626 77.76 
L 219.057709 77.76 
L 219.162792 65.664 
L 219.267876 77.76 
L 219.478042 53.568 
L 219.793292 53.568 
L 219.950916 65.664 
L 220.056 65.664 
L 220.213624 53.568 
L 220.476332 53.568 
L 220.686499 77.76 
L 220.844124 65.664 
L 220.949207 65.664 
L 221.106832 53.568 
L 221.264456 53.568 
L 221.36954 65.664 
L 221.527164 53.568 
L 222.000039 53.568 
L 222.157664 65.664 
L 222.315288 53.568 
L 223.628828 53.568 
L 223.68137 65.664 
L 223.733912 53.568 
L 225.047452 53.568 
L 225.152535 65.664 
L 225.31016 53.568 
L 225.888117 53.568 
L 225.940659 65.664 
L 225.9932 53.568 
L 226.413533 53.568 
L 226.6237 77.76 
L 226.833866 53.568 
L 227.096574 53.568 
L 227.254199 65.664 
L 227.359282 65.664 
L 227.516907 53.568 
L 227.674532 53.568 
L 227.832156 65.664 
L 227.989781 53.568 
L 228.042323 65.664 
L 228.094864 53.568 
L 229.093155 53.568 
L 229.303321 101.952 
L 229.355863 101.952 
L 229.513488 65.664 
L 229.618571 77.76 
L 229.776196 53.568 
L 229.986362 53.568 
L 230.143987 65.664 
L 230.24907 65.664 
L 230.406695 53.568 
L 230.511778 53.568 
L 230.56432 65.664 
L 230.616861 53.568 
L 231.037194 53.568 
L 231.194819 77.76 
L 231.299902 53.568 
L 231.352444 65.664 
L 231.457527 65.664 
L 231.510068 53.568 
L 231.56261 65.664 
L 231.615152 65.664 
L 231.772776 53.568 
L 232.088026 53.568 
L 232.140568 65.664 
L 232.193109 53.568 
L 232.350734 53.568 
L 232.403276 65.664 
L 232.455817 53.568 
L 233.033775 53.568 
L 233.1914 65.664 
L 233.243941 53.568 
L 233.296483 65.664 
L 233.401566 65.664 
L 233.559191 53.568 
L 233.926982 53.568 
L 234.137148 77.76 
L 234.18969 77.76 
L 234.347315 53.568 
L 235.608313 53.568 
L 235.660855 65.664 
L 235.713396 53.568 
L 236.291354 53.568 
L 236.343896 65.664 
L 236.396437 53.568 
L 237.289644 53.568 
L 237.342186 65.664 
L 237.394728 53.568 
L 237.709977 53.568 
L 237.81506 77.76 
L 237.867602 65.664 
L 238.025227 53.568 
L 238.077768 53.568 
L 238.182852 65.664 
L 238.340476 53.568 
L 238.498101 53.568 
L 238.603184 89.856 
L 238.655726 77.76 
L 238.865892 53.568 
L 239.1286 53.568 
L 239.338767 77.76 
L 239.496392 65.664 
L 239.548933 65.664 
L 239.706558 53.568 
L 239.811641 53.568 
L 239.969266 89.856 
L 240.021808 77.76 
L 240.179432 77.76 
L 240.389599 53.568 
L 241.650597 53.568 
L 241.808222 65.664 
L 241.860764 65.664 
L 241.913305 77.76 
L 241.965847 65.664 
L 242.176013 65.664 
L 242.333638 53.568 
L 242.701429 53.568 
L 242.806512 77.76 
L 243.016679 53.568 
L 243.06922 53.568 
L 243.174304 65.664 
L 243.331928 53.568 
L 243.437012 53.568 
L 243.489553 65.664 
L 243.542095 53.568 
L 243.909886 53.568 
L 244.172594 101.952 
L 244.38276 65.664 
L 244.487844 101.952 
L 244.540385 89.856 
L 244.69801 77.76 
L 244.750552 77.76 
L 244.908176 65.664 
L 245.170884 65.664 
L 245.328509 53.568 
L 247.167465 53.568 
L 247.220007 65.664 
L 247.272548 53.568 
L 247.692881 53.568 
L 247.850506 65.664 
L 247.903048 65.664 
L 248.060672 53.568 
L 248.270839 53.568 
L 248.32338 65.664 
L 248.375922 53.568 
L 248.428464 53.568 
L 248.533547 65.664 
L 248.691172 53.568 
L 248.743713 65.664 
L 248.796255 53.568 
L 248.901338 53.568 
L 248.95388 77.76 
L 249.006421 53.568 
L 249.216588 53.568 
L 249.269129 65.664 
L 249.321671 53.568 
L 249.847087 53.568 
L 249.95217 65.664 
L 250.109795 53.568 
L 250.319961 53.568 
L 250.477586 65.664 
L 250.635211 53.568 
L 250.740294 53.568 
L 250.845377 65.664 
L 251.003002 53.568 
L 251.475876 53.568 
L 251.528418 77.76 
L 251.58096 65.664 
L 251.686043 65.664 
L 251.843668 53.568 
L 252.8945 53.568 
L 253.052124 65.664 
L 253.209749 53.568 
L 253.419916 53.568 
L 253.524999 89.856 
L 253.57754 77.76 
L 253.630082 77.76 
L 253.840248 53.568 
L 253.89279 65.664 
L 253.945332 53.568 
L 254.470748 53.568 
L 254.523289 77.76 
L 254.575831 65.664 
L 254.628372 65.664 
L 254.785997 53.568 
L 256.730036 53.568 
L 256.887661 65.664 
L 257.045286 53.568 
L 257.465619 53.568 
L 257.51816 65.664 
L 257.570702 53.568 
L 257.675785 53.568 
L 257.83341 89.856 
L 257.991035 53.568 
L 258.306284 53.568 
L 258.463909 65.664 
L 258.621534 53.568 
L 259.252033 53.568 
L 259.409658 65.664 
L 259.4622 65.664 
L 259.619824 53.568 
L 259.724908 53.568 
L 259.777449 65.664 
L 259.829991 53.568 
L 259.935074 53.568 
L 259.987616 65.664 
L 260.040157 53.568 
L 260.302865 53.568 
L 260.355407 77.76 
L 260.407948 65.664 
L 260.513032 65.664 
L 260.670656 89.856 
L 260.723198 89.856 
L 260.985906 53.568 
L 261.090989 53.568 
L 261.248614 65.664 
L 261.668947 65.664 
L 261.826572 53.568 
L 261.984196 65.664 
L 262.08928 65.664 
L 262.246904 53.568 
L 262.351988 65.664 
L 262.509612 53.568 
L 262.667237 65.664 
L 262.877404 65.664 
L 263.035028 53.568 
L 263.245195 53.568 
L 263.40282 65.664 
L 263.770611 65.664 
L 263.928236 53.568 
L 265.189234 53.568 
L 265.346859 65.664 
L 265.451942 65.664 
L 265.609567 53.568 
L 265.662108 53.568 
L 265.71465 65.664 
L 265.767192 53.568 
L 266.240066 53.568 
L 266.292608 65.664 
L 266.345149 53.568 
L 266.607857 53.568 
L 266.765482 65.664 
L 266.818024 65.664 
L 266.975648 53.568 
L 267.02819 53.568 
L 267.133273 65.664 
L 267.290898 53.568 
L 267.448523 65.664 
L 267.501064 65.664 
L 267.658689 53.568 
L 268.394272 53.568 
L 268.446813 65.664 
L 268.499355 53.568 
L 268.814604 53.568 
L 268.919688 77.76 
L 269.024771 53.568 
L 269.182396 65.664 
L 269.287479 65.664 
L 269.445104 53.568 
L 269.602728 53.568 
L 269.707812 65.664 
L 269.812895 53.568 
L 269.865436 65.664 
L 269.917978 53.568 
L 271.336601 53.568 
L 271.389143 65.664 
L 271.441684 53.568 
L 271.914559 53.568 
L 272.072183 65.664 
L 272.229808 53.568 
L 272.28235 53.568 
L 272.387433 65.664 
L 272.545058 53.568 
L 273.385723 53.568 
L 273.543348 89.856 
L 273.59589 77.76 
L 273.806056 53.568 
L 274.121306 53.568 
L 274.226389 65.664 
L 274.331472 53.568 
L 274.489097 65.664 
L 274.646722 53.568 
L 274.751805 53.568 
L 274.90943 65.664 
L 275.014513 65.664 
L 275.172138 53.568 
L 275.434846 53.568 
L 275.592471 65.664 
L 275.697554 65.664 
L 275.750095 89.856 
L 275.802637 65.664 
L 275.855179 65.664 
L 276.012803 53.568 
L 276.065345 53.568 
L 276.117887 65.664 
L 276.170428 53.568 
L 276.748386 53.568 
L 276.906011 65.664 
L 276.958552 65.664 
L 277.011094 77.76 
L 277.063635 65.664 
L 277.22126 53.568 
L 277.589051 53.568 
L 277.746676 65.664 
L 277.799218 65.664 
L 277.956843 53.568 
L 278.114467 53.568 
L 278.167009 65.664 
L 278.219551 53.568 
L 278.5348 53.568 
L 278.692425 65.664 
L 278.85005 53.568 
L 278.955133 53.568 
L 279.007675 65.664 
L 279.060216 53.568 
L 279.322924 53.568 
L 279.480549 65.664 
L 279.585632 65.664 
L 279.743257 101.952 
L 279.795799 89.856 
L 279.953423 53.568 
L 280.321215 53.568 
L 280.426298 65.664 
L 280.478839 53.568 
L 280.531381 65.664 
L 280.583923 65.664 
L 280.741547 53.568 
L 281.16188 53.568 
L 281.319505 65.664 
L 281.47713 53.568 
L 282.265254 53.568 
L 282.317795 65.664 
L 282.370337 53.568 
L 282.422879 53.568 
L 282.47542 65.664 
L 282.527962 53.568 
L 282.685587 53.568 
L 282.738128 65.664 
L 282.79067 53.568 
L 282.843211 53.568 
L 283.000836 65.664 
L 283.053378 65.664 
L 283.211003 53.568 
L 284.892334 53.568 
L 285.1025 77.76 
L 285.312667 53.568 
L 285.365208 53.568 
L 285.470291 65.664 
L 285.627916 53.568 
L 285.785541 65.664 
L 285.943166 53.568 
L 286.678748 53.568 
L 286.73129 65.664 
L 286.783831 53.568 
L 287.624497 53.568 
L 287.72958 77.76 
L 287.887205 53.568 
L 288.04483 65.664 
L 288.202455 53.568 
L 288.412621 53.568 
L 288.465163 65.664 
L 288.517704 53.568 
L 289.305828 53.568 
L 289.410911 77.76 
L 289.568536 53.568 
L 289.621078 53.568 
L 289.673619 65.664 
L 289.726161 53.568 
L 289.831244 53.568 
L 289.988869 65.664 
L 290.146494 53.568 
L 290.987159 53.568 
L 291.039701 65.664 
L 291.092243 53.568 
L 291.460034 53.568 
L 291.512575 65.664 
L 291.565117 53.568 
L 291.722742 53.568 
L 291.827825 65.664 
L 291.98545 53.568 
L 293.824406 53.568 
L 293.876947 65.664 
L 293.929489 53.568 
L 294.034572 53.568 
L 294.139655 65.664 
L 294.29728 53.568 
L 294.717613 53.568 
L 294.822696 77.76 
L 294.980321 53.568 
L 295.348112 53.568 
L 295.453195 65.664 
L 295.61082 53.568 
L 296.083695 53.568 
L 296.136236 65.664 
L 296.188778 53.568 
L 296.976902 53.568 
L 297.029443 65.664 
L 297.081985 53.568 
L 297.134527 53.568 
L 297.23961 65.664 
L 297.397235 53.568 
L 297.607401 53.568 
L 297.659943 65.664 
L 297.712484 53.568 
L 298.658233 53.568 
L 298.815858 65.664 
L 298.920941 65.664 
L 299.078566 53.568 
L 299.603982 53.568 
L 299.656523 65.664 
L 299.709065 53.568 
L 300.444647 53.568 
L 300.497189 65.664 
L 300.549731 53.568 
L 300.759897 53.568 
L 300.86498 65.664 
L 301.022605 53.568 
L 301.127688 53.568 
L 301.232771 65.664 
L 301.390396 53.568 
L 301.600563 53.568 
L 301.653104 65.664 
L 301.705646 53.568 
L 301.968354 53.568 
L 302.125979 77.76 
L 302.17852 77.76 
L 302.283603 89.856 
L 302.546311 53.568 
L 302.703936 53.568 
L 302.861561 65.664 
L 303.124269 65.664 
L 303.281894 53.568 
L 303.702227 53.568 
L 303.80731 65.664 
L 303.964935 53.568 
L 304.385267 53.568 
L 304.490351 77.76 
L 304.647975 53.568 
L 305.593724 53.568 
L 305.751349 65.664 
L 305.856432 53.568 
L 305.908974 65.664 
L 305.961515 53.568 
L 306.014057 53.568 
L 306.171682 65.664 
L 306.276765 65.664 
L 306.43439 53.568 
L 307.169972 53.568 
L 307.222514 65.664 
L 307.275055 53.568 
L 307.590305 53.568 
L 307.642847 65.664 
L 307.695388 53.568 
L 307.74793 53.568 
L 307.800471 65.664 
L 307.853013 53.568 
L 307.958096 53.568 
L 308.115721 77.76 
L 308.273346 65.664 
L 308.325887 65.664 
L 308.483512 53.568 
L 309.639427 53.568 
L 309.691969 65.664 
L 309.744511 53.568 
L 310.269927 53.568 
L 310.427551 65.664 
L 310.585176 53.568 
L 310.637718 53.568 
L 310.690259 65.664 
L 310.742801 53.568 
L 312.213966 53.568 
L 312.319049 65.664 
L 312.476674 53.568 
L 313.159715 53.568 
L 313.212256 65.664 
L 313.264798 53.568 
L 313.422423 53.568 
L 313.527506 65.664 
L 313.685131 53.568 
L 313.947839 53.568 
L 314.105463 65.664 
L 314.263088 53.568 
L 314.31563 53.568 
L 314.368171 65.664 
L 314.420713 53.568 
L 314.525796 53.568 
L 314.683421 65.664 
L 314.841046 65.664 
L 314.998671 53.568 
L 315.156295 53.568 
L 315.366462 77.76 
L 315.471545 77.76 
L 315.62917 65.664 
L 315.681711 65.664 
L 315.839336 53.568 
L 316.102044 53.568 
L 316.207127 65.664 
L 316.364752 53.568 
L 316.680002 53.568 
L 316.785085 65.664 
L 316.94271 53.568 
L 318.571499 53.568 
L 318.624041 65.664 
L 318.676583 53.568 
L 319.149457 53.568 
L 319.359623 89.856 
L 319.622331 53.568 
L 319.779956 53.568 
L 319.885039 65.664 
L 320.042664 53.568 
L 321.040955 53.568 
L 321.146038 77.76 
L 321.303663 53.568 
L 321.408746 53.568 
L 321.461287 65.664 
L 321.513829 53.568 
L 321.829079 53.568 
L 321.986703 77.76 
L 322.039245 77.76 
L 322.19687 53.568 
L 322.722286 53.568 
L 322.774827 65.664 
L 322.827369 53.568 
L 323.19516 53.568 
L 323.300243 65.664 
L 323.457868 53.568 
L 323.930743 53.568 
L 324.035826 77.76 
L 324.193451 53.568 
L 324.245992 53.568 
L 324.298534 65.664 
L 324.351075 53.568 
L 324.613783 53.568 
L 324.771408 65.664 
L 324.981575 65.664 
L 325.139199 53.568 
L 325.244283 53.568 
L 325.349366 65.664 
L 325.454449 53.568 
L 325.612074 65.664 
L 325.769699 53.568 
L 325.927323 65.664 
L 325.979865 65.664 
L 326.13749 53.568 
L 326.767989 53.568 
L 326.925614 65.664 
L 327.030697 53.568 
L 327.188322 65.664 
L 327.240863 65.664 
L 327.398488 53.568 
L 327.713738 53.568 
L 327.871363 65.664 
L 327.923904 53.568 
L 327.976446 65.664 
L 328.028987 65.664 
L 328.186612 53.568 
L 328.239154 53.568 
L 328.344237 89.856 
L 328.396779 77.76 
L 328.44932 65.664 
L 328.501862 77.76 
L 328.659487 77.76 
L 328.76457 89.856 
L 329.027278 53.568 
L 329.237444 53.568 
L 329.447611 77.76 
L 329.657777 53.568 
L 329.973027 53.568 
L 330.130651 77.76 
L 330.288276 65.664 
L 330.445901 65.664 
L 330.603526 53.568 
L 330.761151 53.568 
L 330.918775 65.664 
L 330.971317 53.568 
L 331.023859 65.664 
L 331.128942 65.664 
L 331.286567 53.568 
L 332.074691 53.568 
L 332.179774 65.664 
L 332.337399 53.568 
L 332.495023 53.568 
L 332.70519 77.76 
L 332.862815 53.568 
L 333.020439 65.664 
L 333.178064 53.568 
L 333.388231 53.568 
L 333.650939 89.856 
L 333.70348 89.856 
L 333.808563 53.568 
L 333.913647 65.664 
L 334.123813 89.856 
L 334.176355 77.76 
L 334.228896 89.856 
L 334.386521 89.856 
L 334.596687 65.664 
L 334.701771 65.664 
L 334.806854 53.568 
L 334.964479 77.76 
L 335.122103 65.664 
L 335.174645 65.664 
L 335.227187 53.568 
L 335.279728 65.664 
L 335.437353 65.664 
L 335.594978 53.568 
L 336.383102 53.568 
L 336.435643 65.664 
L 336.488185 53.568 
L 336.855976 53.568 
L 336.961059 65.664 
L 337.118684 53.568 
L 337.381392 53.568 
L 337.539017 65.664 
L 337.591559 65.664 
L 337.749183 53.568 
L 339.062723 53.568 
L 339.220348 77.76 
L 339.430514 53.568 
L 339.640681 53.568 
L 339.693222 65.664 
L 339.745764 53.568 
L 339.850847 53.568 
L 340.008472 65.664 
L 340.166097 53.568 
L 340.323722 53.568 
L 340.376263 65.664 
L 340.428805 53.568 
L 340.901679 53.568 
L 340.954221 65.664 
L 341.006762 53.568 
L 341.374554 53.568 
L 341.532178 65.664 
L 341.58472 65.664 
L 341.742345 53.568 
L 341.794886 53.568 
L 341.89997 65.664 
L 342.057594 53.568 
L 342.162678 65.664 
L 342.320302 53.568 
L 343.003343 53.568 
L 343.160968 65.664 
L 343.318593 53.568 
L 344.579591 53.568 
L 344.737216 77.76 
L 344.947382 53.568 
L 345.315174 53.568 
L 345.367715 65.664 
L 345.420257 53.568 
L 345.735506 53.568 
L 345.945673 77.76 
L 346.103298 65.664 
L 346.208381 65.664 
L 346.366006 53.568 
L 346.52363 53.568 
L 346.576172 65.664 
L 346.628714 53.568 
L 347.83717 53.568 
L 347.942254 65.664 
L 348.099878 53.568 
L 348.46767 53.568 
L 348.520211 65.664 
L 348.572753 53.568 
L 349.045627 53.568 
L 349.203252 65.664 
L 349.255794 65.664 
L 349.413418 53.568 
L 349.676126 53.568 
L 349.833751 89.856 
L 349.886293 77.76 
L 350.096459 53.568 
L 350.149001 53.568 
L 350.201542 65.664 
L 350.254084 53.568 
L 350.46425 53.568 
L 350.516792 65.664 
L 350.569334 53.568 
L 350.884583 53.568 
L 351.147291 89.856 
L 351.252374 89.856 
L 351.515082 53.568 
L 351.725249 53.568 
L 351.77779 65.664 
L 351.830332 53.568 
L 351.987957 53.568 
L 352.09304 65.664 
L 352.145582 53.568 
L 352.198123 65.664 
L 352.40829 65.664 
L 352.513373 53.568 
L 352.670998 77.76 
L 352.881164 53.568 
L 352.986247 65.664 
L 353.143872 53.568 
L 353.248955 53.568 
L 353.301497 65.664 
L 353.354038 53.568 
L 353.774371 53.568 
L 353.931996 77.76 
L 354.142162 53.568 
L 356.821784 53.568 
L 356.979409 77.76 
L 357.137034 53.568 
L 357.189575 65.664 
L 357.242117 53.568 
L 357.452283 53.568 
L 357.609908 65.664 
L 357.767533 53.568 
L 358.135324 53.568 
L 358.292949 65.664 
L 358.34549 53.568 
L 358.398032 65.664 
L 358.555657 65.664 
L 358.66074 53.568 
L 358.713282 65.664 
L 358.765823 53.568 
L 358.923448 53.568 
L 358.97599 65.664 
L 359.028531 53.568 
L 359.606489 53.568 
L 359.816655 77.76 
L 359.97428 53.568 
L 360.131905 53.568 
L 360.184446 65.664 
L 360.236988 53.568 
L 360.28953 53.568 
L 360.447154 65.664 
L 360.604779 53.568 
L 360.709862 53.568 
L 360.762404 65.664 
L 360.814946 53.568 
L 361.025112 53.568 
L 361.182737 65.664 
L 361.235278 65.664 
L 361.28782 89.856 
L 361.340362 77.76 
L 361.445445 77.76 
L 361.655611 53.568 
L 361.918319 53.568 
L 362.075944 65.664 
L 362.233569 65.664 
L 362.391194 53.568 
L 362.548818 65.664 
L 362.758985 65.664 
L 362.91661 53.568 
L 363.442026 53.568 
L 363.59965 65.664 
L 363.652192 65.664 
L 363.809817 53.568 
L 364.335233 53.568 
L 364.387774 65.664 
L 364.440316 53.568 
L 364.545399 53.568 
L 364.597941 65.664 
L 364.650482 53.568 
L 366.647063 53.568 
L 366.804688 65.664 
L 366.962313 53.568 
L 367.382646 53.568 
L 367.54027 65.664 
L 367.697895 53.568 
L 368.433478 53.568 
L 368.538561 65.664 
L 368.696186 53.568 
L 368.748727 53.568 
L 368.85381 77.76 
L 368.906352 65.664 
L 369.063977 53.568 
L 370.535142 53.568 
L 370.587683 65.664 
L 370.640225 53.568 
L 372.11139 53.568 
L 372.269014 65.664 
L 372.426639 53.568 
L 373.845262 53.568 
L 374.055429 77.76 
L 374.213054 53.568 
L 374.528303 53.568 
L 374.685928 65.664 
L 374.843553 53.568 
L 375.211344 53.568 
L 375.263886 77.76 
L 375.316427 65.664 
L 375.368969 65.664 
L 375.526594 53.568 
L 375.73676 53.568 
L 375.841843 77.76 
L 376.05201 53.568 
L 376.629967 53.568 
L 376.787592 65.664 
L 376.840134 65.664 
L 376.997758 53.568 
L 377.155383 65.664 
L 377.207925 65.664 
L 377.36555 53.568 
L 377.470633 77.76 
L 377.628258 53.568 
L 377.838424 53.568 
L 377.996049 89.856 
L 378.101132 89.856 
L 378.258757 53.568 
L 378.626548 53.568 
L 378.784173 65.664 
L 378.941798 53.568 
L 379.467214 53.568 
L 379.519755 65.664 
L 379.572297 53.568 
L 380.780754 53.568 
L 380.885837 77.76 
L 381.043462 53.568 
L 381.096003 53.568 
L 381.148545 65.664 
L 381.201086 53.568 
L 382.041752 53.568 
L 382.199377 65.664 
L 382.357002 65.664 
L 382.514626 53.568 
L 383.092584 53.568 
L 383.250209 65.664 
L 383.355292 53.568 
L 383.565458 77.76 
L 383.618 77.76 
L 383.775625 53.568 
L 383.985791 53.568 
L 384.143416 65.664 
L 384.301041 53.568 
L 386.507788 53.568 
L 386.665413 65.664 
L 386.823038 53.568 
L 387.821328 53.568 
L 387.87387 65.664 
L 387.926411 53.568 
L 388.767077 53.568 
L 388.87216 65.664 
L 389.029785 53.568 
L 389.450118 53.568 
L 389.502659 65.664 
L 389.555201 53.568 
L 389.87045 53.568 
L 390.080617 77.76 
L 390.133158 77.76 
L 390.343325 53.568 
L 390.50095 53.568 
L 390.658574 65.664 
L 390.973824 65.664 
L 391.236532 101.952 
L 391.341615 101.952 
L 391.551782 126.144 
L 391.656865 126.144 
L 391.81449 138.24 
L 391.919573 138.24 
L 392.077198 150.336 
L 392.760238 150.336 
L 392.917863 174.528 
L 393.600904 174.528 
L 393.758529 186.624 
L 394.336486 186.624 
L 394.494111 198.72 
L 394.599194 198.72 
L 394.756819 210.816 
L 394.914444 210.816 
L 395.072069 222.912 
L 396.227984 222.912 
L 396.385609 235.008 
L 397.331358 235.008 
L 397.488982 247.104 
L 397.75169 247.104 
L 397.961857 271.296 
L 398.487273 271.296 
L 398.487273 271.296 
" clip-path="url(#p803874626b)" style="fill: none; stroke-dasharray: 5.55,2.4; stroke-dashoffset: 0; stroke: #1f77b4; stroke-width: 1.5"/>
   </g>
   <g id="line2d_15">
    <path d="M 73.832727 295.488 
L 74.042894 295.488 
L 74.200518 283.392 
L 74.358143 283.392 
L 74.515768 271.296 
L 75.041184 271.296 
L 75.198809 259.2 
L 75.356434 259.2 
L 75.514058 247.104 
L 75.619142 247.104 
L 75.776766 235.008 
L 76.039474 235.008 
L 76.197099 222.912 
L 76.407266 222.912 
L 76.56489 210.816 
L 76.775057 210.816 
L 76.932682 198.72 
L 77.19539 198.72 
L 77.353014 186.624 
L 77.510639 186.624 
L 77.668264 174.528 
L 77.825889 174.528 
L 77.983514 162.432 
L 78.141138 174.528 
L 78.298763 162.432 
L 78.456388 162.432 
L 78.614013 150.336 
L 78.771638 162.432 
L 78.929262 150.336 
L 79.19197 150.336 
L 79.349595 138.24 
L 79.559762 138.24 
L 79.717386 126.144 
L 80.032636 126.144 
L 80.190261 138.24 
L 80.978385 138.24 
L 81.13601 126.144 
L 81.293634 126.144 
L 81.451259 114.048 
L 81.924134 114.048 
L 82.1343 138.24 
L 82.291925 126.144 
L 82.344466 126.144 
L 82.502091 114.048 
L 82.659716 114.048 
L 82.764799 101.952 
L 82.922424 114.048 
L 83.237674 114.048 
L 83.395298 101.952 
L 83.605465 101.952 
L 83.76309 89.856 
L 83.973256 89.856 
L 84.130881 101.952 
L 84.813922 101.952 
L 84.971546 126.144 
L 85.496962 126.144 
L 85.654587 114.048 
L 85.75967 114.048 
L 85.917295 101.952 
L 86.285086 101.952 
L 86.495253 126.144 
L 86.600336 126.144 
L 86.652878 138.24 
L 86.705419 126.144 
L 86.863044 126.144 
L 87.020669 114.048 
L 87.493543 114.048 
L 87.651168 138.24 
L 87.808793 126.144 
L 88.124042 126.144 
L 88.281667 138.24 
L 89.122333 138.24 
L 89.279958 126.144 
L 89.437582 126.144 
L 89.595207 138.24 
L 89.805374 138.24 
L 89.962998 126.144 
L 90.068082 126.144 
L 90.225706 114.048 
L 90.698581 114.048 
L 90.856206 126.144 
L 91.223997 126.144 
L 91.381622 138.24 
L 91.591788 138.24 
L 91.696871 150.336 
L 91.749413 138.24 
L 91.801954 150.336 
L 91.907038 150.336 
L 91.959579 162.432 
L 92.012121 150.336 
L 92.169746 150.336 
L 92.274829 162.432 
L 92.432454 150.336 
L 92.800245 150.336 
L 92.95787 138.24 
L 93.325661 138.24 
L 93.483286 126.144 
L 95.059534 126.144 
L 95.217158 138.24 
L 95.637491 138.24 
L 95.742574 150.336 
L 95.900199 138.24 
L 96.425615 138.24 
L 96.58324 126.144 
L 96.951031 126.144 
L 97.108656 138.24 
L 97.318822 138.24 
L 97.476447 126.144 
L 97.949322 126.144 
L 98.106946 138.24 
L 98.264571 138.24 
L 98.422196 126.144 
L 99.998444 126.144 
L 100.103527 138.24 
L 100.261152 126.144 
L 100.366235 126.144 
L 100.52386 114.048 
L 100.681485 114.048 
L 100.83911 126.144 
L 100.944193 126.144 
L 101.101818 138.24 
L 101.154359 138.24 
L 101.364526 162.432 
L 101.417067 162.432 
L 101.574692 150.336 
L 101.679775 150.336 
L 101.8374 138.24 
L 101.942483 138.24 
L 102.100108 126.144 
L 102.15265 126.144 
L 102.310274 138.24 
L 102.83569 138.24 
L 102.993315 162.432 
L 103.045857 150.336 
L 103.098398 162.432 
L 103.361106 162.432 
L 103.518731 150.336 
L 104.569563 150.336 
L 104.727188 138.24 
L 105.147521 138.24 
L 105.305146 126.144 
L 105.515312 126.144 
L 105.567854 138.24 
L 105.620395 126.144 
L 106.198353 126.144 
L 106.355978 114.048 
L 106.566144 114.048 
L 106.723769 126.144 
L 106.828852 126.144 
L 106.986477 138.24 
L 107.039018 138.24 
L 107.09156 150.336 
L 107.144102 138.24 
L 107.196643 138.24 
L 107.354268 150.336 
L 107.459351 150.336 
L 107.616976 138.24 
L 107.774601 138.24 
L 107.932226 126.144 
L 109.350849 126.144 
L 109.508474 138.24 
L 109.666098 126.144 
L 109.823723 126.144 
L 109.981348 114.048 
L 110.506764 114.048 
L 110.664389 101.952 
L 111.189805 101.952 
L 111.294888 114.048 
L 111.452513 101.952 
L 111.557596 101.952 
L 111.715221 89.856 
L 113.028761 89.856 
L 113.186386 101.952 
L 113.34401 89.856 
L 114.447384 89.856 
L 114.552467 114.048 
L 114.605009 101.952 
L 114.710092 101.952 
L 114.867717 114.048 
L 115.393133 114.048 
L 115.550758 126.144 
L 115.603299 126.144 
L 115.760924 138.24 
L 115.813466 126.144 
L 115.866007 138.24 
L 116.023632 138.24 
L 116.181257 126.144 
L 117.28463 126.144 
L 117.442255 138.24 
L 118.335462 138.24 
L 118.493087 126.144 
L 119.333753 126.144 
L 119.491378 114.048 
L 119.649002 126.144 
L 119.91171 126.144 
L 120.069335 114.048 
L 120.22696 114.048 
L 120.384585 101.952 
L 120.54221 114.048 
L 120.857459 114.048 
L 121.015084 101.952 
L 121.067626 101.952 
L 121.22525 114.048 
L 121.645583 114.048 
L 121.803208 101.952 
L 123.747247 101.952 
L 123.957414 126.144 
L 124.009955 126.144 
L 124.16758 138.24 
L 124.325205 138.24 
L 124.535371 162.432 
L 124.587913 162.432 
L 124.640454 174.528 
L 124.692996 162.432 
L 124.903162 162.432 
L 125.060787 150.336 
L 125.79637 150.336 
L 125.953994 138.24 
L 126.006536 138.24 
L 126.111619 150.336 
L 126.216702 138.24 
L 126.374327 150.336 
L 126.742118 150.336 
L 126.899743 138.24 
L 127.057368 138.24 
L 127.214993 150.336 
L 127.267534 150.336 
L 127.320076 138.24 
L 127.372618 150.336 
L 127.530242 150.336 
L 127.687867 138.24 
L 127.740409 150.336 
L 127.79295 138.24 
L 128.055658 138.24 
L 128.213283 126.144 
L 128.370908 126.144 
L 128.581074 150.336 
L 128.686158 150.336 
L 128.843782 138.24 
L 128.948866 138.24 
L 129.10649 150.336 
L 129.579365 150.336 
L 129.73699 162.432 
L 130.525114 162.432 
L 130.682738 150.336 
L 130.787822 150.336 
L 130.945446 138.24 
L 131.365779 138.24 
L 131.523404 126.144 
L 132.942027 126.144 
L 133.099652 138.24 
L 133.257277 126.144 
L 133.572526 126.144 
L 133.625068 114.048 
L 133.677609 126.144 
L 133.887776 126.144 
L 134.045401 114.048 
L 134.203025 114.048 
L 134.36065 126.144 
L 134.413192 126.144 
L 134.570817 138.24 
L 134.6759 138.24 
L 134.833525 150.336 
L 134.886066 150.336 
L 135.043691 162.432 
L 135.253857 162.432 
L 135.411482 174.528 
L 135.67419 174.528 
L 135.726732 186.624 
L 135.779273 174.528 
L 136.094523 174.528 
L 136.252148 162.432 
L 136.409773 162.432 
L 136.567397 150.336 
L 136.725022 150.336 
L 136.882647 162.432 
L 136.935189 162.432 
L 137.092813 150.336 
L 137.618229 150.336 
L 137.775854 138.24 
L 137.880937 138.24 
L 138.038562 126.144 
L 138.248729 126.144 
L 138.406353 138.24 
L 138.511437 138.24 
L 138.669061 150.336 
L 138.826686 138.24 
L 138.984311 138.24 
L 139.141936 126.144 
L 139.404644 126.144 
L 139.562269 114.048 
L 139.667352 114.048 
L 139.719893 126.144 
L 139.772435 114.048 
L 140.613101 114.048 
L 140.770725 101.952 
L 141.401225 101.952 
L 141.506308 126.144 
L 141.558849 114.048 
L 142.346973 114.048 
L 142.504598 138.24 
L 142.662223 126.144 
L 142.977473 126.144 
L 143.030014 138.24 
L 143.082556 126.144 
L 144.396096 126.144 
L 144.553721 114.048 
L 144.711345 114.048 
L 144.86897 126.144 
L 145.499469 126.144 
L 145.657094 114.048 
L 145.814719 114.048 
L 145.972344 101.952 
L 146.077427 101.952 
L 146.235052 89.856 
L 146.445218 89.856 
L 146.602843 101.952 
L 146.707926 101.952 
L 146.865551 89.856 
L 146.918093 89.856 
L 147.075717 77.76 
L 147.601133 77.76 
L 147.758758 65.664 
L 148.021466 101.952 
L 148.284174 101.952 
L 148.441799 89.856 
L 148.599424 89.856 
L 148.757049 77.76 
L 149.387548 77.76 
L 149.545173 89.856 
L 149.597714 89.856 
L 149.755339 101.952 
L 149.807881 101.952 
L 149.912964 89.856 
L 150.12313 114.048 
L 150.175672 114.048 
L 150.333297 101.952 
L 150.753629 101.952 
L 150.911254 114.048 
L 151.068879 101.952 
L 151.279045 101.952 
L 151.43667 114.048 
L 151.646837 114.048 
L 151.804461 101.952 
L 152.067169 101.952 
L 152.277336 126.144 
L 152.75021 126.144 
L 152.855293 138.24 
L 152.907835 126.144 
L 152.960377 138.24 
L 153.118001 138.24 
L 153.275626 126.144 
L 153.748501 126.144 
L 153.906125 114.048 
L 154.011209 114.048 
L 154.221375 138.24 
L 154.431541 138.24 
L 154.589166 150.336 
L 154.746791 150.336 
L 154.851874 138.24 
L 155.009499 150.336 
L 155.167124 150.336 
L 155.324749 162.432 
L 155.587457 162.432 
L 155.639998 174.528 
L 155.69254 162.432 
L 156.165414 162.432 
L 156.323039 150.336 
L 156.428122 150.336 
L 156.585747 138.24 
L 156.795913 138.24 
L 156.900997 126.144 
L 157.111163 150.336 
L 158.582328 150.336 
L 158.687411 138.24 
L 158.845036 150.336 
L 158.897577 150.336 
L 159.055202 162.432 
L 159.475535 162.432 
L 159.580618 150.336 
L 159.738243 162.432 
L 159.895868 150.336 
L 160.421284 150.336 
L 160.578909 138.24 
L 160.683992 138.24 
L 160.736533 126.144 
L 160.789075 138.24 
L 160.9467 150.336 
L 160.999241 150.336 
L 161.156866 138.24 
L 161.314491 138.24 
L 161.419574 126.144 
L 161.577199 138.24 
L 161.629741 138.24 
L 161.734824 162.432 
L 161.787365 150.336 
L 162.680573 150.336 
L 162.838197 138.24 
L 162.995822 138.24 
L 163.153447 126.144 
L 163.836488 126.144 
L 163.994113 114.048 
L 164.624612 114.048 
L 164.782237 126.144 
L 164.834778 126.144 
L 164.939861 138.24 
L 165.097486 126.144 
L 165.307653 126.144 
L 165.465277 114.048 
L 165.622902 114.048 
L 165.780527 126.144 
L 165.938152 114.048 
L 166.043235 114.048 
L 166.095777 101.952 
L 166.148318 114.048 
L 166.305943 114.048 
L 166.411026 101.952 
L 166.568651 114.048 
L 166.726276 114.048 
L 166.883901 101.952 
L 167.409317 101.952 
L 167.566941 89.856 
L 168.039816 89.856 
L 168.197441 101.952 
L 168.355065 101.952 
L 168.51269 114.048 
L 169.563522 114.048 
L 169.773689 138.24 
L 170.036397 138.24 
L 170.194021 126.144 
L 171.034687 126.144 
L 171.192312 138.24 
L 171.297395 138.24 
L 171.45502 150.336 
L 171.665186 126.144 
L 171.717728 126.144 
L 171.875353 138.24 
L 171.980436 138.24 
L 172.138061 126.144 
L 172.348227 150.336 
L 172.873643 150.336 
L 173.031268 138.24 
L 173.188893 138.24 
L 173.346517 126.144 
L 173.504142 126.144 
L 173.661767 114.048 
L 173.924475 114.048 
L 174.0821 126.144 
L 174.344808 126.144 
L 174.502433 114.048 
L 174.660057 114.048 
L 174.817682 126.144 
L 175.868514 126.144 
L 176.026139 138.24 
L 176.341389 138.24 
L 176.499013 150.336 
L 177.182054 150.336 
L 177.339679 162.432 
L 177.760012 162.432 
L 177.917637 186.624 
L 178.127803 186.624 
L 178.285428 174.528 
L 178.443053 174.528 
L 178.600677 186.624 
L 179.073552 186.624 
L 179.231177 174.528 
L 179.283718 174.528 
L 179.441343 162.432 
L 179.546426 162.432 
L 179.704051 150.336 
L 179.914217 150.336 
L 180.071842 138.24 
L 180.33455 138.24 
L 180.492175 126.144 
L 180.597258 126.144 
L 180.754883 114.048 
L 181.227757 114.048 
L 181.280299 126.144 
L 181.332841 114.048 
L 182.015881 114.048 
L 182.120965 101.952 
L 182.383673 138.24 
L 182.541297 126.144 
L 182.698922 126.144 
L 182.856547 114.048 
L 183.697213 114.048 
L 183.854837 101.952 
L 183.959921 101.952 
L 184.117545 114.048 
L 184.27517 114.048 
L 184.432795 126.144 
L 185.536169 126.144 
L 185.693793 138.24 
L 186.061585 138.24 
L 186.219209 150.336 
L 186.534459 150.336 
L 186.692084 138.24 
L 186.797167 138.24 
L 186.954792 150.336 
L 187.059875 150.336 
L 187.2175 162.432 
L 187.375125 150.336 
L 187.637833 150.336 
L 187.795457 162.432 
L 188.110707 162.432 
L 188.320873 186.624 
L 188.478498 174.528 
L 188.636123 174.528 
L 188.793748 162.432 
L 188.898831 162.432 
L 189.056456 150.336 
L 189.476789 150.336 
L 189.52933 162.432 
L 189.581872 150.336 
L 189.897121 150.336 
L 190.054746 138.24 
L 190.107288 138.24 
L 190.264913 126.144 
L 190.475079 126.144 
L 190.632704 114.048 
L 190.84287 114.048 
L 191.000495 101.952 
L 191.210661 101.952 
L 191.368286 89.856 
L 191.788619 89.856 
L 191.946244 77.76 
L 192.891993 77.76 
L 193.102159 101.952 
L 193.312325 101.952 
L 193.46995 89.856 
L 194.258074 89.856 
L 194.415699 114.048 
L 194.993657 114.048 
L 195.151281 126.144 
L 195.308906 126.144 
L 195.519073 150.336 
L 195.781781 150.336 
L 195.834322 138.24 
L 195.886864 150.336 
L 196.044489 150.336 
L 196.202113 162.432 
L 196.254655 162.432 
L 196.359738 150.336 
L 196.517363 162.432 
L 196.569905 162.432 
L 196.727529 150.336 
L 196.885154 150.336 
L 197.042779 138.24 
L 197.200404 138.24 
L 197.358029 126.144 
L 197.515653 138.24 
L 197.830903 138.24 
L 197.935986 150.336 
L 198.093611 138.24 
L 198.251236 150.336 
L 198.408861 150.336 
L 198.619027 174.528 
L 198.671569 174.528 
L 198.776652 162.432 
L 198.986818 186.624 
L 199.144443 174.528 
L 199.249526 174.528 
L 199.407151 162.432 
L 200.142733 162.432 
L 200.300358 150.336 
L 200.457983 150.336 
L 200.563066 138.24 
L 200.825774 174.528 
L 201.035941 174.528 
L 201.193565 162.432 
L 201.298649 162.432 
L 201.456273 150.336 
L 201.613898 150.336 
L 201.771523 162.432 
L 201.929148 162.432 
L 202.086772 150.336 
L 202.191856 150.336 
L 202.34948 138.24 
L 202.454564 150.336 
L 202.507105 138.24 
L 202.559647 150.336 
L 202.612188 150.336 
L 202.717272 162.432 
L 202.874896 150.336 
L 203.085063 174.528 
L 203.242688 162.432 
L 203.97827 162.432 
L 204.135895 150.336 
L 204.29352 150.336 
L 204.451144 138.24 
L 205.134185 138.24 
L 205.29181 126.144 
L 205.764684 126.144 
L 205.922309 114.048 
L 207.288391 114.048 
L 207.446016 138.24 
L 207.60364 138.24 
L 207.761265 126.144 
L 207.866348 126.144 
L 207.971432 138.24 
L 208.129056 126.144 
L 208.23414 126.144 
L 208.391764 114.048 
L 208.496848 114.048 
L 208.654472 101.952 
L 208.864639 101.952 
L 209.022264 114.048 
L 209.284972 114.048 
L 209.442596 126.144 
L 209.652763 126.144 
L 209.862929 150.336 
L 210.020554 150.336 
L 210.178179 138.24 
L 210.703595 138.24 
L 210.86122 126.144 
L 210.913761 126.144 
L 211.018844 114.048 
L 211.176469 126.144 
L 211.54426 126.144 
L 211.701885 114.048 
L 212.069676 114.048 
L 212.227301 101.952 
L 212.542551 101.952 
L 212.700176 114.048 
L 213.015425 114.048 
L 213.17305 126.144 
L 214.013716 126.144 
L 214.17134 114.048 
L 214.381507 114.048 
L 214.539132 126.144 
L 214.644215 126.144 
L 214.906923 162.432 
L 215.274714 162.432 
L 215.432339 174.528 
L 215.589964 162.432 
L 215.642505 162.432 
L 215.80013 174.528 
L 216.220463 174.528 
L 216.378088 162.432 
L 216.79842 162.432 
L 216.956045 150.336 
L 217.218753 150.336 
L 217.376378 138.24 
L 217.796711 138.24 
L 217.954336 126.144 
L 218.006877 126.144 
L 218.164502 138.24 
L 218.637376 138.24 
L 218.795001 126.144 
L 219.530584 126.144 
L 219.688208 114.048 
L 220.266166 114.048 
L 220.423791 126.144 
L 220.528874 126.144 
L 220.686499 138.24 
L 220.73904 138.24 
L 220.896665 150.336 
L 221.36954 150.336 
L 221.527164 138.24 
L 221.579706 138.24 
L 221.737331 126.144 
L 221.789872 126.144 
L 221.947497 114.048 
L 222.157664 114.048 
L 222.315288 101.952 
L 222.630538 101.952 
L 222.788163 89.856 
L 222.893246 89.856 
L 222.998329 101.952 
L 223.155954 89.856 
L 223.418662 89.856 
L 223.576287 114.048 
L 224.574577 114.048 
L 224.67966 101.952 
L 224.837285 114.048 
L 225.099993 114.048 
L 225.152535 126.144 
L 225.205076 114.048 
L 225.362701 114.048 
L 225.572868 138.24 
L 225.730492 138.24 
L 225.888117 126.144 
L 226.255908 126.144 
L 226.413533 138.24 
L 226.466075 138.24 
L 226.6237 126.144 
L 226.991491 126.144 
L 227.096574 150.336 
L 227.149116 138.24 
L 227.359282 138.24 
L 227.464365 150.336 
L 227.62199 138.24 
L 228.462656 138.24 
L 228.62028 126.144 
L 228.725364 126.144 
L 228.830447 114.048 
L 228.988072 138.24 
L 229.093155 126.144 
L 229.25078 138.24 
L 229.460946 138.24 
L 229.618571 126.144 
L 229.828737 126.144 
L 229.986362 138.24 
L 230.56432 138.24 
L 230.616861 126.144 
L 230.669403 138.24 
L 230.827028 138.24 
L 230.984652 150.336 
L 231.24736 150.336 
L 231.404985 138.24 
L 231.615152 138.24 
L 231.772776 150.336 
L 232.140568 150.336 
L 232.193109 138.24 
L 232.245651 150.336 
L 232.455817 150.336 
L 232.5609 138.24 
L 232.718525 150.336 
L 232.87615 150.336 
L 233.033775 138.24 
L 233.401566 138.24 
L 233.559191 150.336 
L 233.716816 138.24 
L 233.821899 138.24 
L 233.979524 126.144 
L 234.925272 126.144 
L 235.082897 138.24 
L 235.240522 126.144 
L 235.345605 126.144 
L 235.50323 138.24 
L 235.660855 138.24 
L 235.765938 126.144 
L 235.923563 150.336 
L 236.081188 138.24 
L 236.133729 138.24 
L 236.291354 150.336 
L 236.343896 138.24 
L 236.50152 162.432 
L 236.711687 162.432 
L 236.869312 150.336 
L 236.974395 150.336 
L 237.13202 162.432 
L 237.237103 162.432 
L 237.394728 150.336 
L 237.920144 150.336 
L 238.077768 138.24 
L 238.13031 138.24 
L 238.287935 150.336 
L 238.44556 138.24 
L 238.550643 138.24 
L 238.655726 150.336 
L 238.813351 138.24 
L 239.7591 138.24 
L 239.969266 162.432 
L 240.179432 162.432 
L 240.337057 174.528 
L 240.494682 162.432 
L 241.020098 162.432 
L 241.177723 150.336 
L 241.230264 150.336 
L 241.387889 138.24 
L 241.440431 138.24 
L 241.598056 150.336 
L 241.75568 150.336 
L 241.913305 162.432 
L 242.07093 150.336 
L 242.228555 150.336 
L 242.38618 138.24 
L 243.016679 138.24 
L 243.174304 174.528 
L 243.226845 174.528 
L 243.331928 162.432 
L 243.489553 174.528 
L 243.594636 174.528 
L 243.752261 162.432 
L 243.909886 162.432 
L 244.067511 150.336 
L 245.591217 150.336 
L 245.748842 162.432 
L 245.959008 162.432 
L 246.116633 150.336 
L 246.221716 150.336 
L 246.379341 138.24 
L 246.642049 138.24 
L 246.799674 126.144 
L 247.482715 126.144 
L 247.64034 138.24 
L 247.692881 138.24 
L 247.850506 126.144 
L 247.903048 126.144 
L 248.165756 162.432 
L 248.218297 162.432 
L 248.375922 174.528 
L 248.533547 174.528 
L 248.691172 162.432 
L 248.743713 162.432 
L 248.901338 150.336 
L 249.006421 150.336 
L 249.164046 138.24 
L 249.321671 138.24 
L 249.479296 126.144 
L 249.63692 126.144 
L 249.794545 114.048 
L 250.214878 114.048 
L 250.319961 101.952 
L 250.477586 114.048 
L 251.003002 114.048 
L 251.055544 126.144 
L 251.108085 114.048 
L 251.213168 114.048 
L 251.370793 126.144 
L 251.633501 126.144 
L 251.791126 138.24 
L 252.106376 138.24 
L 252.264 126.144 
L 252.8945 126.144 
L 253.052124 114.048 
L 253.104666 114.048 
L 253.157208 126.144 
L 253.209749 114.048 
L 254.050415 114.048 
L 254.20804 126.144 
L 254.680914 126.144 
L 254.838539 114.048 
L 254.89108 114.048 
L 255.048705 126.144 
L 255.889371 126.144 
L 256.046996 138.24 
L 258.253743 138.24 
L 258.411368 150.336 
L 259.252033 150.336 
L 259.409658 162.432 
L 259.777449 162.432 
L 259.935074 174.528 
L 260.092699 174.528 
L 260.250324 162.432 
L 260.355407 162.432 
L 260.513032 150.336 
L 260.723198 150.336 
L 260.880823 138.24 
L 261.038448 138.24 
L 261.196072 126.144 
L 261.301156 126.144 
L 261.406239 114.048 
L 261.563864 126.144 
L 261.77403 126.144 
L 261.984196 150.336 
L 262.509612 150.336 
L 262.667237 138.24 
L 263.140112 138.24 
L 263.192653 150.336 
L 263.245195 138.24 
L 264.033319 138.24 
L 264.190944 126.144 
L 264.348568 138.24 
L 264.821443 138.24 
L 264.979068 126.144 
L 265.136692 138.24 
L 265.241776 138.24 
L 265.3994 126.144 
L 265.609567 126.144 
L 265.767192 114.048 
L 266.292608 114.048 
L 266.450232 101.952 
L 266.765482 101.952 
L 266.923107 114.048 
L 267.868856 114.048 
L 268.02648 101.952 
L 268.604438 101.952 
L 268.709521 89.856 
L 268.867146 101.952 
L 269.182396 101.952 
L 269.34002 114.048 
L 269.602728 114.048 
L 269.760353 126.144 
L 269.812895 126.144 
L 269.97052 138.24 
L 270.128144 138.24 
L 270.180686 126.144 
L 270.233228 138.24 
L 270.285769 138.24 
L 270.443394 150.336 
L 270.495936 150.336 
L 270.65356 138.24 
L 271.389143 138.24 
L 271.546767 150.336 
L 272.229808 150.336 
L 272.387433 162.432 
L 272.597599 162.432 
L 272.755224 150.336 
L 272.807766 150.336 
L 272.965391 162.432 
L 273.543348 162.432 
L 273.59589 150.336 
L 273.648431 162.432 
L 274.016223 162.432 
L 274.173847 174.528 
L 274.226389 174.528 
L 274.384014 162.432 
L 275.539929 162.432 
L 275.750095 186.624 
L 276.012803 186.624 
L 276.117887 198.72 
L 276.275511 186.624 
L 276.380595 186.624 
L 276.538219 174.528 
L 276.695844 174.528 
L 276.853469 162.432 
L 277.063635 162.432 
L 277.22126 150.336 
L 277.273802 150.336 
L 277.431427 138.24 
L 278.061926 138.24 
L 278.219551 126.144 
L 278.377175 126.144 
L 278.5348 114.048 
L 278.797508 114.048 
L 278.955133 126.144 
L 279.112758 126.144 
L 279.270383 114.048 
L 279.690715 114.048 
L 279.84834 126.144 
L 280.005965 126.144 
L 280.216131 150.336 
L 280.268673 138.24 
L 280.321215 150.336 
L 280.689006 150.336 
L 280.846631 138.24 
L 281.056797 138.24 
L 281.214422 126.144 
L 281.319505 126.144 
L 281.47713 138.24 
L 282.055087 138.24 
L 282.107629 150.336 
L 282.160171 138.24 
L 282.47542 138.24 
L 282.633045 126.144 
L 282.685587 126.144 
L 282.843211 114.048 
L 283.105919 114.048 
L 283.263544 126.144 
L 284.209293 126.144 
L 284.314376 114.048 
L 284.472001 126.144 
L 284.734709 126.144 
L 284.892334 138.24 
L 286.048249 138.24 
L 286.205874 126.144 
L 286.573665 126.144 
L 286.626207 138.24 
L 286.678748 126.144 
L 287.519414 126.144 
L 287.677039 114.048 
L 287.939747 114.048 
L 288.097371 126.144 
L 288.517704 126.144 
L 288.675329 114.048 
L 289.410911 114.048 
L 289.515995 101.952 
L 289.673619 114.048 
L 289.988869 114.048 
L 290.146494 101.952 
L 290.619368 101.952 
L 290.776993 89.856 
L 291.092243 89.856 
L 291.249867 101.952 
L 291.827825 101.952 
L 292.037991 126.144 
L 292.090533 126.144 
L 292.248158 114.048 
L 292.300699 114.048 
L 292.405783 126.144 
L 292.563407 114.048 
L 292.615949 126.144 
L 292.668491 114.048 
L 293.29899 114.048 
L 293.456615 101.952 
L 293.509156 114.048 
L 293.561698 101.952 
L 294.192197 101.952 
L 294.349822 114.048 
L 294.559988 114.048 
L 294.665071 101.952 
L 294.875238 126.144 
L 295.137946 126.144 
L 295.295571 114.048 
L 295.663362 114.048 
L 295.873528 138.24 
L 296.188778 138.24 
L 296.293861 150.336 
L 296.451486 138.24 
L 296.609111 138.24 
L 296.766735 126.144 
L 296.976902 126.144 
L 297.134527 138.24 
L 297.23961 138.24 
L 297.397235 126.144 
L 298.763316 126.144 
L 298.920941 138.24 
L 299.236191 138.24 
L 299.393815 126.144 
L 299.971773 126.144 
L 300.024315 114.048 
L 300.076856 126.144 
L 300.181939 126.144 
L 300.339564 138.24 
L 300.392106 138.24 
L 300.549731 126.144 
L 300.707355 126.144 
L 300.86498 114.048 
L 301.337855 114.048 
L 301.495479 101.952 
L 301.863271 101.952 
L 302.020895 114.048 
L 302.231062 114.048 
L 302.388687 101.952 
L 303.124269 101.952 
L 303.229352 89.856 
L 303.386977 101.952 
L 303.597143 101.952 
L 303.754768 114.048 
L 303.80731 114.048 
L 303.964935 101.952 
L 304.858142 101.952 
L 305.015767 114.048 
L 305.173391 101.952 
L 305.593724 101.952 
L 305.751349 114.048 
L 305.908974 114.048 
L 306.066599 126.144 
L 306.224223 126.144 
L 306.381848 138.24 
L 306.539473 138.24 
L 306.697098 126.144 
L 307.958096 126.144 
L 308.115721 138.24 
L 308.325887 138.24 
L 308.483512 126.144 
L 308.641137 126.144 
L 308.798762 114.048 
L 308.903845 114.048 
L 309.008928 101.952 
L 309.219095 126.144 
L 310.322468 126.144 
L 310.480093 114.048 
L 311.215675 114.048 
L 311.268217 101.952 
L 311.320759 114.048 
L 311.583467 114.048 
L 311.68855 126.144 
L 311.846175 114.048 
L 312.161424 114.048 
L 312.319049 126.144 
L 312.476674 126.144 
L 312.581757 138.24 
L 312.739382 126.144 
L 312.897007 126.144 
L 313.054631 114.048 
L 314.946129 114.048 
L 315.103754 126.144 
L 315.156295 126.144 
L 315.261379 138.24 
L 315.419003 126.144 
L 316.207127 126.144 
L 316.364752 114.048 
L 317.100335 114.048 
L 317.257959 101.952 
L 317.310501 101.952 
L 317.363043 114.048 
L 317.415584 101.952 
L 317.625751 101.952 
L 317.783375 89.856 
L 318.624041 89.856 
L 318.781666 101.952 
L 319.149457 101.952 
L 319.307082 114.048 
L 319.885039 114.048 
L 319.937581 101.952 
L 319.990123 114.048 
L 320.778247 114.048 
L 320.935871 101.952 
L 321.356204 101.952 
L 321.513829 114.048 
L 321.88162 114.048 
L 322.039245 126.144 
L 322.354495 126.144 
L 322.512119 138.24 
L 322.932452 138.24 
L 323.037535 150.336 
L 323.19516 138.24 
L 323.352785 150.336 
L 323.720576 150.336 
L 323.878201 138.24 
L 324.245992 138.24 
L 324.403617 150.336 
L 324.82395 150.336 
L 325.034116 174.528 
L 325.086658 174.528 
L 325.244283 162.432 
L 325.401907 162.432 
L 325.559532 150.336 
L 326.084948 150.336 
L 326.295115 174.528 
L 326.452739 162.432 
L 326.557823 162.432 
L 326.715447 174.528 
L 327.030697 174.528 
L 327.188322 186.624 
L 327.240863 186.624 
L 327.398488 174.528 
L 327.503571 174.528 
L 327.661196 162.432 
L 328.028987 162.432 
L 328.186612 150.336 
L 328.396779 150.336 
L 328.554403 138.24 
L 328.712028 138.24 
L 328.869653 150.336 
L 329.184903 150.336 
L 329.342527 138.24 
L 329.605235 138.24 
L 329.76286 126.144 
L 329.867943 126.144 
L 330.025568 114.048 
L 330.130651 114.048 
L 330.288276 126.144 
L 330.340818 126.144 
L 330.498443 138.24 
L 330.550984 126.144 
L 330.603526 138.24 
L 331.023859 138.24 
L 331.181483 150.336 
L 331.234025 150.336 
L 331.39165 138.24 
L 331.549275 138.24 
L 331.706899 126.144 
L 332.179774 126.144 
L 332.337399 114.048 
L 332.547565 138.24 
L 332.652648 138.24 
L 332.810273 126.144 
L 332.862815 126.144 
L 333.072981 150.336 
L 333.493314 150.336 
L 333.650939 138.24 
L 334.123813 138.24 
L 334.281438 126.144 
L 334.491604 126.144 
L 334.649229 114.048 
L 334.754312 114.048 
L 334.911937 126.144 
L 335.122103 126.144 
L 335.174645 138.24 
L 335.227187 126.144 
L 335.647519 126.144 
L 335.805144 138.24 
L 336.015311 138.24 
L 336.172935 126.144 
L 336.33056 126.144 
L 336.488185 114.048 
L 336.64581 114.048 
L 336.803435 101.952 
L 337.749183 101.952 
L 337.906808 114.048 
L 338.222058 114.048 
L 338.379683 126.144 
L 338.432224 126.144 
L 338.589849 114.048 
L 338.642391 114.048 
L 338.800015 126.144 
L 338.95764 114.048 
L 339.010182 114.048 
L 339.167807 126.144 
L 339.220348 126.144 
L 339.27289 114.048 
L 339.325431 126.144 
L 339.483056 138.24 
L 340.638971 138.24 
L 340.796596 126.144 
L 341.006762 126.144 
L 341.164387 138.24 
L 341.26947 138.24 
L 341.427095 150.336 
L 341.637262 150.336 
L 341.794886 138.24 
L 341.89997 138.24 
L 341.952511 126.144 
L 342.005053 138.24 
L 342.162678 138.24 
L 342.320302 126.144 
L 343.844009 126.144 
L 344.001634 138.24 
L 344.106717 138.24 
L 344.264342 126.144 
L 344.316883 126.144 
L 344.474508 114.048 
L 344.894841 114.048 
L 345.052466 126.144 
L 345.105007 126.144 
L 345.262632 138.24 
L 345.682965 138.24 
L 345.84059 126.144 
L 345.945673 126.144 
L 346.103298 114.048 
L 346.208381 114.048 
L 346.366006 126.144 
L 346.52363 126.144 
L 346.576172 138.24 
L 346.628714 126.144 
L 346.733797 126.144 
L 346.891422 114.048 
L 346.996505 114.048 
L 347.15413 126.144 
L 347.311754 126.144 
L 347.469379 114.048 
L 348.204962 114.048 
L 348.362586 126.144 
L 348.835461 126.144 
L 348.993086 138.24 
L 349.255794 138.24 
L 349.413418 126.144 
L 349.623585 150.336 
L 350.201542 150.336 
L 350.359167 138.24 
L 350.411709 138.24 
L 350.569334 150.336 
L 350.832042 150.336 
L 350.989666 138.24 
L 351.252374 138.24 
L 351.409999 126.144 
L 351.462541 126.144 
L 351.620166 114.048 
L 352.09304 114.048 
L 352.145582 101.952 
L 352.198123 114.048 
L 352.513373 114.048 
L 352.670998 126.144 
L 352.986247 126.144 
L 353.143872 114.048 
L 353.354038 114.048 
L 353.564205 138.24 
L 353.616746 138.24 
L 353.774371 126.144 
L 354.457412 126.144 
L 354.615037 138.24 
L 354.772662 138.24 
L 354.930286 126.144 
L 355.087911 126.144 
L 355.245536 138.24 
L 355.71841 138.24 
L 355.770952 162.432 
L 355.823494 150.336 
L 355.876035 150.336 
L 356.086202 174.528 
L 356.138743 174.528 
L 356.296368 162.432 
L 356.559076 162.432 
L 356.716701 150.336 
L 356.874326 150.336 
L 357.03195 138.24 
L 357.609908 138.24 
L 357.767533 126.144 
L 357.925158 138.24 
L 358.082782 126.144 
L 358.135324 126.144 
L 358.292949 138.24 
L 358.450574 126.144 
L 359.133614 126.144 
L 359.291239 138.24 
L 359.764114 138.24 
L 359.816655 150.336 
L 359.869197 138.24 
L 360.079363 138.24 
L 360.236988 150.336 
L 360.447154 150.336 
L 360.604779 138.24 
L 361.130195 138.24 
L 361.28782 150.336 
L 361.445445 138.24 
L 361.497986 138.24 
L 361.655611 126.144 
L 361.760694 126.144 
L 361.918319 114.048 
L 362.075944 114.048 
L 362.181027 101.952 
L 362.338652 114.048 
L 362.758985 114.048 
L 362.91661 101.952 
L 362.969151 101.952 
L 363.126776 114.048 
L 363.284401 101.952 
L 363.652192 101.952 
L 363.809817 114.048 
L 364.282691 114.048 
L 364.440316 101.952 
L 364.545399 101.952 
L 364.755566 126.144 
L 365.280982 126.144 
L 365.333523 114.048 
L 365.386065 126.144 
L 365.648773 126.144 
L 365.806398 138.24 
L 365.858939 138.24 
L 366.016564 126.144 
L 366.174189 126.144 
L 366.331814 114.048 
L 366.384355 114.048 
L 366.54198 126.144 
L 367.330104 126.144 
L 367.435187 114.048 
L 367.592812 126.144 
L 367.645354 126.144 
L 367.802978 114.048 
L 368.118228 114.048 
L 368.223311 126.144 
L 368.380936 114.048 
L 368.906352 114.048 
L 369.063977 101.952 
L 369.641934 101.952 
L 369.799559 89.856 
L 370.955474 89.856 
L 371.113099 77.76 
L 371.165641 77.76 
L 371.323266 89.856 
L 371.533432 89.856 
L 371.638515 101.952 
L 371.79614 89.856 
L 372.269014 89.856 
L 372.426639 101.952 
L 372.584264 89.856 
L 373.057138 89.856 
L 373.267305 114.048 
L 374.265595 114.048 
L 374.475762 138.24 
L 374.73847 138.24 
L 374.896094 126.144 
L 375.579135 126.144 
L 375.73676 114.048 
L 375.789302 114.048 
L 375.999468 138.24 
L 376.104551 138.24 
L 376.209634 150.336 
L 376.367259 138.24 
L 376.524884 138.24 
L 376.682509 126.144 
L 377.102842 126.144 
L 377.260466 138.24 
L 377.470633 138.24 
L 377.628258 126.144 
L 377.890966 126.144 
L 378.04859 114.048 
L 378.153674 114.048 
L 378.311298 101.952 
L 378.468923 101.952 
L 378.626548 114.048 
L 379.204506 114.048 
L 379.36213 101.952 
L 379.467214 101.952 
L 379.624838 89.856 
L 379.940088 89.856 
L 380.097713 101.952 
L 380.255338 101.952 
L 380.360421 89.856 
L 380.518046 101.952 
L 380.728212 101.952 
L 380.885837 114.048 
L 381.516336 114.048 
L 381.673961 126.144 
L 381.726502 126.144 
L 381.884127 114.048 
L 381.98921 114.048 
L 382.041752 101.952 
L 382.094294 114.048 
L 382.30446 114.048 
L 382.462085 101.952 
L 382.61971 101.952 
L 382.777334 114.048 
L 382.934959 114.048 
L 383.092584 126.144 
L 383.618 126.144 
L 383.775625 114.048 
L 383.828166 114.048 
L 383.985791 101.952 
L 384.038333 101.952 
L 384.090874 114.048 
L 384.143416 101.952 
L 385.509498 101.952 
L 385.667122 114.048 
L 385.772206 114.048 
L 385.92983 101.952 
L 386.139997 101.952 
L 386.297622 89.856 
L 386.402705 89.856 
L 386.56033 101.952 
L 386.770496 101.952 
L 386.928121 89.856 
L 387.663703 89.856 
L 387.821328 77.76 
L 387.87387 77.76 
L 388.084036 101.952 
L 388.767077 101.952 
L 388.924702 114.048 
L 389.134868 114.048 
L 389.292493 126.144 
L 389.345034 126.144 
L 389.555201 150.336 
L 389.922992 150.336 
L 390.080617 162.432 
L 390.290783 162.432 
L 390.448408 174.528 
L 390.973824 174.528 
L 391.18399 198.72 
L 391.341615 198.72 
L 391.49924 210.816 
L 391.709406 210.816 
L 391.867031 222.912 
L 392.024656 222.912 
L 392.182281 235.008 
L 393.233113 235.008 
L 393.443279 259.2 
L 394.12632 259.2 
L 394.283945 271.296 
L 396.122901 271.296 
L 396.122901 271.296 
" clip-path="url(#p803874626b)" style="fill: none; stroke-dasharray: 1.5,2.475; stroke-dashoffset: 0; stroke: #ff7f0e; stroke-width: 1.5"/>
   </g>
   <g id="patch_3">
    <path d="M 57.6 307.584 
L 57.6 41.472 
" style="fill: none; stroke: #000000; stroke-width: 0.8; stroke-linejoin: miter; stroke-linecap: square"/>
   </g>
   <g id="patch_4">
    <path d="M 414.72 307.584 
L 414.72 41.472 
" style="fill: none; stroke: #000000; stroke-width: 0.8; stroke-linejoin: miter; stroke-linecap: square"/>
   </g>
   <g id="patch_5">
    <path d="M 57.6 307.584 
L 414.72 307.584 
" style="fill: none; stroke: #000000; stroke-width: 0.8; stroke-linejoin: miter; stroke-linecap: square"/>
   </g>
   <g id="patch_6">
    <path d="M 57.6 41.472 
L 414.72 41.472 
" style="fill: none; stroke: #000000; stroke-width: 0.8; stroke-linejoin: miter; stroke-linecap: square"/>
   </g>
   <g id="text_14">
    <!-- Percentage of Riders Occupied -->
    <g transform="translate(143.879063 -18.2775)scale(0.12 -0.12)">
     <defs>
      <path id="DejaVuSans-50" d="M 1259 4147 
L 1259 2394 
L 2053 2394 
Q 2494 2394 2734 2622 
Q 2975 2850 2975 3272 
Q 2975 3691 2734 3919 
Q 2494 4147 2053 4147 
L 1259 4147 
z
M 628 4666 
L 2053 4666 
Q 2838 4666 3239 4311 
Q 3641 3956 3641 3272 
Q 3641 2581 3239 2228 
Q 2838 1875 2053 1875 
L 1259 1875 
L 1259 0 
L 628 0 
L 628 4666 
z
" transform="scale(0.015625)"/>
      <path id="DejaVuSans-65" d="M 3597 1894 
L 3597 1613 
L 953 1613 
Q 991 1019 1311 708 
Q 1631 397 2203 397 
Q 2534 397 2845 478 
Q 3156 559 3463 722 
L 3463 178 
Q 3153 47 2828 -22 
Q 2503 -91 2169 -91 
Q 1331 -91 842 396 
Q 353 884 353 1716 
Q 353 2575 817 3079 
Q 1281 3584 2069 3584 
Q 2775 3584 3186 3129 
Q 3597 2675 3597 1894 
z
M 3022 2063 
Q 3016 2534 2758 2815 
Q 2500 3097 2075 3097 
Q 1594 3097 1305 2825 
Q 1016 2553 972 2059 
L 3022 2063 
z
" transform="scale(0.015625)"/>
      <path id="DejaVuSans-72" d="M 2631 2963 
Q 2534 3019 2420 3045 
Q 2306 3072 2169 3072 
Q 1681 3072 1420 2755 
Q 1159 2438 1159 1844 
L 1159 0 
L 581 0 
L 581 3500 
L 1159 3500 
L 1159 2956 
Q 1341 3275 1631 3429 
Q 1922 3584 2338 3584 
Q 2397 3584 2469 3576 
Q 2541 3569 2628 3553 
L 2631 2963 
z
" transform="scale(0.015625)"/>
      <path id="DejaVuSans-63" d="M 3122 3366 
L 3122 2828 
Q 2878 2963 2633 3030 
Q 2388 3097 2138 3097 
Q 1578 3097 1268 2742 
Q 959 2388 959 1747 
Q 959 1106 1268 751 
Q 1578 397 2138 397 
Q 2388 397 2633 464 
Q 2878 531 3122 666 
L 3122 134 
Q 2881 22 2623 -34 
Q 2366 -91 2075 -91 
Q 1284 -91 818 406 
Q 353 903 353 1747 
Q 353 2603 823 3093 
Q 1294 3584 2113 3584 
Q 2378 3584 2631 3529 
Q 2884 3475 3122 3366 
z
" transform="scale(0.015625)"/>
      <path id="DejaVuSans-6e" d="M 3513 2113 
L 3513 0 
L 2938 0 
L 2938 2094 
Q 2938 2591 2744 2837 
Q 2550 3084 2163 3084 
Q 1697 3084 1428 2787 
Q 1159 2491 1159 1978 
L 1159 0 
L 581 0 
L 581 3500 
L 1159 3500 
L 1159 2956 
Q 1366 3272 1645 3428 
Q 1925 3584 2291 3584 
Q 2894 3584 3203 3211 
Q 3513 2838 3513 2113 
z
" transform="scale(0.015625)"/>
      <path id="DejaVuSans-74" d="M 1172 4494 
L 1172 3500 
L 2356 3500 
L 2356 3053 
L 1172 3053 
L 1172 1153 
Q 1172 725 1289 603 
Q 1406 481 1766 481 
L 2356 481 
L 2356 0 
L 1766 0 
Q 1100 0 847 248 
Q 594 497 594 1153 
L 594 3053 
L 172 3053 
L 172 3500 
L 594 3500 
L 594 4494 
L 1172 4494 
z
" transform="scale(0.015625)"/>
      <path id="DejaVuSans-61" d="M 2194 1759 
Q 1497 1759 1228 1600 
Q 959 1441 959 1056 
Q 959 750 1161 570 
Q 1363 391 1709 391 
Q 2188 391 2477 730 
Q 2766 1069 2766 1631 
L 2766 1759 
L 2194 1759 
z
M 3341 1997 
L 3341 0 
L 2766 0 
L 2766 531 
Q 2569 213 2275 61 
Q 1981 -91 1556 -91 
Q 1019 -91 701 211 
Q 384 513 384 1019 
Q 384 1609 779 1909 
Q 1175 2209 1959 2209 
L 2766 2209 
L 2766 2266 
Q 2766 2663 2505 2880 
Q 2244 3097 1772 3097 
Q 1472 3097 1187 3025 
Q 903 2953 641 2809 
L 641 3341 
Q 956 3463 1253 3523 
Q 1550 3584 1831 3584 
Q 2591 3584 2966 3190 
Q 3341 2797 3341 1997 
z
" transform="scale(0.015625)"/>
      <path id="DejaVuSans-67" d="M 2906 1791 
Q 2906 2416 2648 2759 
Q 2391 3103 1925 3103 
Q 1463 3103 1205 2759 
Q 947 2416 947 1791 
Q 947 1169 1205 825 
Q 1463 481 1925 481 
Q 2391 481 2648 825 
Q 2906 1169 2906 1791 
z
M 3481 434 
Q 3481 -459 3084 -895 
Q 2688 -1331 1869 -1331 
Q 1566 -1331 1297 -1286 
Q 1028 -1241 775 -1147 
L 775 -588 
Q 1028 -725 1275 -790 
Q 1522 -856 1778 -856 
Q 2344 -856 2625 -561 
Q 2906 -266 2906 331 
L 2906 616 
Q 2728 306 2450 153 
Q 2172 0 1784 0 
Q 1141 0 747 490 
Q 353 981 353 1791 
Q 353 2603 747 3093 
Q 1141 3584 1784 3584 
Q 2172 3584 2450 3431 
Q 2728 3278 2906 2969 
L 2906 3500 
L 3481 3500 
L 3481 434 
z
" transform="scale(0.015625)"/>
      <path id="DejaVuSans-20" transform="scale(0.015625)"/>
      <path id="DejaVuSans-6f" d="M 1959 3097 
Q 1497 3097 1228 2736 
Q 959 2375 959 1747 
Q 959 1119 1226 758 
Q 1494 397 1959 397 
Q 2419 397 2687 759 
Q 2956 1122 2956 1747 
Q 2956 2369 2687 2733 
Q 2419 3097 1959 3097 
z
M 1959 3584 
Q 2709 3584 3137 3096 
Q 3566 2609 3566 1747 
Q 3566 888 3137 398 
Q 2709 -91 1959 -91 
Q 1206 -91 779 398 
Q 353 888 353 1747 
Q 353 2609 779 3096 
Q 1206 3584 1959 3584 
z
" transform="scale(0.015625)"/>
      <path id="DejaVuSans-66" d="M 2375 4863 
L 2375 4384 
L 1825 4384 
Q 1516 4384 1395 4259 
Q 1275 4134 1275 3809 
L 1275 3500 
L 2222 3500 
L 2222 3053 
L 1275 3053 
L 1275 0 
L 697 0 
L 697 3053 
L 147 3053 
L 147 3500 
L 697 3500 
L 697 3744 
Q 697 4328 969 4595 
Q 1241 4863 1831 4863 
L 2375 4863 
z
" transform="scale(0.015625)"/>
      <path id="DejaVuSans-52" d="M 2841 2188 
Q 3044 2119 3236 1894 
Q 3428 1669 3622 1275 
L 4263 0 
L 3584 0 
L 2988 1197 
Q 2756 1666 2539 1819 
Q 2322 1972 1947 1972 
L 1259 1972 
L 1259 0 
L 628 0 
L 628 4666 
L 2053 4666 
Q 2853 4666 3247 4331 
Q 3641 3997 3641 3322 
Q 3641 2881 3436 2590 
Q 3231 2300 2841 2188 
z
M 1259 4147 
L 1259 2491 
L 2053 2491 
Q 2509 2491 2742 2702 
Q 2975 2913 2975 3322 
Q 2975 3731 2742 3939 
Q 2509 4147 2053 4147 
L 1259 4147 
z
" transform="scale(0.015625)"/>
      <path id="DejaVuSans-69" d="M 603 3500 
L 1178 3500 
L 1178 0 
L 603 0 
L 603 3500 
z
M 603 4863 
L 1178 4863 
L 1178 4134 
L 603 4134 
L 603 4863 
z
" transform="scale(0.015625)"/>
      <path id="DejaVuSans-64" d="M 2906 2969 
L 2906 4863 
L 3481 4863 
L 3481 0 
L 2906 0 
L 2906 525 
Q 2725 213 2448 61 
Q 2172 -91 1784 -91 
Q 1150 -91 751 415 
Q 353 922 353 1747 
Q 353 2572 751 3078 
Q 1150 3584 1784 3584 
Q 2172 3584 2448 3432 
Q 2725 3281 2906 2969 
z
M 947 1747 
Q 947 1113 1208 752 
Q 1469 391 1925 391 
Q 2381 391 2643 752 
Q 2906 1113 2906 1747 
Q 2906 2381 2643 2742 
Q 2381 3103 1925 3103 
Q 1469 3103 1208 2742 
Q 947 2381 947 1747 
z
" transform="scale(0.015625)"/>
      <path id="DejaVuSans-73" d="M 2834 3397 
L 2834 2853 
Q 2591 2978 2328 3040 
Q 2066 3103 1784 3103 
Q 1356 3103 1142 2972 
Q 928 2841 928 2578 
Q 928 2378 1081 2264 
Q 1234 2150 1697 2047 
L 1894 2003 
Q 2506 1872 2764 1633 
Q 3022 1394 3022 966 
Q 3022 478 2636 193 
Q 2250 -91 1575 -91 
Q 1294 -91 989 -36 
Q 684 19 347 128 
L 347 722 
Q 666 556 975 473 
Q 1284 391 1588 391 
Q 1994 391 2212 530 
Q 2431 669 2431 922 
Q 2431 1156 2273 1281 
Q 2116 1406 1581 1522 
L 1381 1569 
Q 847 1681 609 1914 
Q 372 2147 372 2553 
Q 372 3047 722 3315 
Q 1072 3584 1716 3584 
Q 2034 3584 2315 3537 
Q 2597 3491 2834 3397 
z
" transform="scale(0.015625)"/>
      <path id="DejaVuSans-4f" d="M 2522 4238 
Q 1834 4238 1429 3725 
Q 1025 3213 1025 2328 
Q 1025 1447 1429 934 
Q 1834 422 2522 422 
Q 3209 422 3611 934 
Q 4013 1447 4013 2328 
Q 4013 3213 3611 3725 
Q 3209 4238 2522 4238 
z
M 2522 4750 
Q 3503 4750 4090 4092 
Q 4678 3434 4678 2328 
Q 4678 1225 4090 567 
Q 3503 -91 2522 -91 
Q 1538 -91 948 565 
Q 359 1222 359 2328 
Q 359 3434 948 4092 
Q 1538 4750 2522 4750 
z
" transform="scale(0.015625)"/>
      <path id="DejaVuSans-75" d="M 544 1381 
L 544 3500 
L 1119 3500 
L 1119 1403 
Q 1119 906 1312 657 
Q 1506 409 1894 409 
Q 2359 409 2629 706 
Q 2900 1003 2900 1516 
L 2900 3500 
L 3475 3500 
L 3475 0 
L 2900 0 
L 2900 538 
Q 2691 219 2414 64 
Q 2138 -91 1772 -91 
Q 1169 -91 856 284 
Q 544 659 544 1381 
z
M 1991 3584 
L 1991 3584 
z
" transform="scale(0.015625)"/>
      <path id="DejaVuSans-70" d="M 1159 525 
L 1159 -1331 
L 581 -1331 
L 581 3500 
L 1159 3500 
L 1159 2969 
Q 1341 3281 1617 3432 
Q 1894 3584 2278 3584 
Q 2916 3584 3314 3078 
Q 3713 2572 3713 1747 
Q 3713 922 3314 415 
Q 2916 -91 2278 -91 
Q 1894 -91 1617 61 
Q 1341 213 1159 525 
z
M 3116 1747 
Q 3116 2381 2855 2742 
Q 2594 3103 2138 3103 
Q 1681 3103 1420 2742 
Q 1159 2381 1159 1747 
Q 1159 1113 1420 752 
Q 1681 391 2138 391 
Q 2594 391 2855 752 
Q 3116 1113 3116 1747 
z
" transform="scale(0.015625)"/>
     </defs>
     <use xlink:href="#DejaVuSans-50"/>
     <use xlink:href="#DejaVuSans-65" x="56.677734"/>
     <use xlink:href="#DejaVuSans-72" x="118.201172"/>
     <use xlink:href="#DejaVuSans-63" x="157.064453"/>
     <use xlink:href="#DejaVuSans-65" x="212.044922"/>
     <use xlink:href="#DejaVuSans-6e" x="273.568359"/>
     <use xlink:href="#DejaVuSans-74" x="336.947266"/>
     <use xlink:href="#DejaVuSans-61" x="376.15625"/>
     <use xlink:href="#DejaVuSans-67" x="437.435547"/>
     <use xlink:href="#DejaVuSans-65" x="500.912109"/>
     <use xlink:href="#DejaVuSans-20" x="562.435547"/>
     <use xlink:href="#DejaVuSans-6f" x="594.222656"/>
     <use xlink:href="#DejaVuSans-66" x="655.404297"/>
     <use xlink:href="#DejaVuSans-20" x="690.609375"/>
     <use xlink:href="#DejaVuSans-52" x="722.396484"/>
     <use xlink:href="#DejaVuSans-69" x="791.878906"/>
     <use xlink:href="#DejaVuSans-64" x="819.662109"/>
     <use xlink:href="#DejaVuSans-65" x="883.138672"/>
     <use xlink:href="#DejaVuSans-72" x="944.662109"/>
     <use xlink:href="#DejaVuSans-73" x="985.775391"/>
     <use xlink:href="#DejaVuSans-20" x="1037.875"/>
     <use xlink:href="#DejaVuSans-4f" x="1069.662109"/>
     <use xlink:href="#DejaVuSans-63" x="1148.373047"/>
     <use xlink:href="#DejaVuSans-63" x="1203.353516"/>
     <use xlink:href="#DejaVuSans-75" x="1258.333984"/>
     <use xlink:href="#DejaVuSans-70" x="1321.712891"/>
     <use xlink:href="#DejaVuSans-69" x="1385.189453"/>
     <use xlink:href="#DejaVuSans-65" x="1412.972656"/>
     <use xlink:href="#DejaVuSans-64" x="1474.496094"/>
    </g>
    <!-- lambda :30 -->
    <g transform="translate(202.11375 -4.840125)scale(0.12 -0.12)">
     <defs>
      <path id="DejaVuSans-6c" d="M 603 4863 
L 1178 4863 
L 1178 0 
L 603 0 
L 603 4863 
z
" transform="scale(0.015625)"/>
      <path id="DejaVuSans-6d" d="M 3328 2828 
Q 3544 3216 3844 3400 
Q 4144 3584 4550 3584 
Q 5097 3584 5394 3201 
Q 5691 2819 5691 2113 
L 5691 0 
L 5113 0 
L 5113 2094 
Q 5113 2597 4934 2840 
Q 4756 3084 4391 3084 
Q 3944 3084 3684 2787 
Q 3425 2491 3425 1978 
L 3425 0 
L 2847 0 
L 2847 2094 
Q 2847 2600 2669 2842 
Q 2491 3084 2119 3084 
Q 1678 3084 1418 2786 
Q 1159 2488 1159 1978 
L 1159 0 
L 581 0 
L 581 3500 
L 1159 3500 
L 1159 2956 
Q 1356 3278 1631 3431 
Q 1906 3584 2284 3584 
Q 2666 3584 2933 3390 
Q 3200 3197 3328 2828 
z
" transform="scale(0.015625)"/>
      <path id="DejaVuSans-62" d="M 3116 1747 
Q 3116 2381 2855 2742 
Q 2594 3103 2138 3103 
Q 1681 3103 1420 2742 
Q 1159 2381 1159 1747 
Q 1159 1113 1420 752 
Q 1681 391 2138 391 
Q 2594 391 2855 752 
Q 3116 1113 3116 1747 
z
M 1159 2969 
Q 1341 3281 1617 3432 
Q 1894 3584 2278 3584 
Q 2916 3584 3314 3078 
Q 3713 2572 3713 1747 
Q 3713 922 3314 415 
Q 2916 -91 2278 -91 
Q 1894 -91 1617 61 
Q 1341 213 1159 525 
L 1159 0 
L 581 0 
L 581 4863 
L 1159 4863 
L 1159 2969 
z
" transform="scale(0.015625)"/>
      <path id="DejaVuSans-3a" d="M 750 794 
L 1409 794 
L 1409 0 
L 750 0 
L 750 794 
z
M 750 3309 
L 1409 3309 
L 1409 2516 
L 750 2516 
L 750 3309 
z
" transform="scale(0.015625)"/>
     </defs>
     <use xlink:href="#DejaVuSans-6c"/>
     <use xlink:href="#DejaVuSans-61" x="27.783203"/>
     <use xlink:href="#DejaVuSans-6d" x="89.0625"/>
     <use xlink:href="#DejaVuSans-62" x="186.474609"/>
     <use xlink:href="#DejaVuSans-64" x="249.951172"/>
     <use xlink:href="#DejaVuSans-61" x="313.427734"/>
     <use xlink:href="#DejaVuSans-20" x="374.707031"/>
     <use xlink:href="#DejaVuSans-3a" x="406.494141"/>
     <use xlink:href="#DejaVuSans-33" x="440.185547"/>
     <use xlink:href="#DejaVuSans-30" x="503.808594"/>
    </g>
    <!-- #Orders per period:1000 -->
    <g transform="translate(160.767188 8.59725)scale(0.12 -0.12)">
     <defs>
      <path id="DejaVuSans-23" d="M 3272 2816 
L 2363 2816 
L 2100 1772 
L 3016 1772 
L 3272 2816 
z
M 2803 4594 
L 2478 3297 
L 3391 3297 
L 3719 4594 
L 4219 4594 
L 3897 3297 
L 4872 3297 
L 4872 2816 
L 3775 2816 
L 3519 1772 
L 4513 1772 
L 4513 1294 
L 3397 1294 
L 3072 0 
L 2572 0 
L 2894 1294 
L 1978 1294 
L 1656 0 
L 1153 0 
L 1478 1294 
L 494 1294 
L 494 1772 
L 1594 1772 
L 1856 2816 
L 850 2816 
L 850 3297 
L 1978 3297 
L 2297 4594 
L 2803 4594 
z
" transform="scale(0.015625)"/>
     </defs>
     <use xlink:href="#DejaVuSans-23"/>
     <use xlink:href="#DejaVuSans-4f" x="83.789062"/>
     <use xlink:href="#DejaVuSans-72" x="162.5"/>
     <use xlink:href="#DejaVuSans-64" x="201.863281"/>
     <use xlink:href="#DejaVuSans-65" x="265.339844"/>
     <use xlink:href="#DejaVuSans-72" x="326.863281"/>
     <use xlink:href="#DejaVuSans-73" x="367.976562"/>
     <use xlink:href="#DejaVuSans-20" x="420.076172"/>
     <use xlink:href="#DejaVuSans-70" x="451.863281"/>
     <use xlink:href="#DejaVuSans-65" x="515.339844"/>
     <use xlink:href="#DejaVuSans-72" x="576.863281"/>
     <use xlink:href="#DejaVuSans-20" x="617.976562"/>
     <use xlink:href="#DejaVuSans-70" x="649.763672"/>
     <use xlink:href="#DejaVuSans-65" x="713.240234"/>
     <use xlink:href="#DejaVuSans-72" x="774.763672"/>
     <use xlink:href="#DejaVuSans-69" x="815.876953"/>
     <use xlink:href="#DejaVuSans-6f" x="843.660156"/>
     <use xlink:href="#DejaVuSans-64" x="904.841797"/>
     <use xlink:href="#DejaVuSans-3a" x="968.318359"/>
     <use xlink:href="#DejaVuSans-31" x="1002.009766"/>
     <use xlink:href="#DejaVuSans-30" x="1065.632812"/>
     <use xlink:href="#DejaVuSans-30" x="1129.255859"/>
     <use xlink:href="#DejaVuSans-30" x="1192.878906"/>
    </g>
    <!--  NUmber of Riders:20 -->
    <g transform="translate(171.37875 22.034625)scale(0.12 -0.12)">
     <defs>
      <path id="DejaVuSans-4e" d="M 628 4666 
L 1478 4666 
L 3547 763 
L 3547 4666 
L 4159 4666 
L 4159 0 
L 3309 0 
L 1241 3903 
L 1241 0 
L 628 0 
L 628 4666 
z
" transform="scale(0.015625)"/>
      <path id="DejaVuSans-55" d="M 556 4666 
L 1191 4666 
L 1191 1831 
Q 1191 1081 1462 751 
Q 1734 422 2344 422 
Q 2950 422 3222 751 
Q 3494 1081 3494 1831 
L 3494 4666 
L 4128 4666 
L 4128 1753 
Q 4128 841 3676 375 
Q 3225 -91 2344 -91 
Q 1459 -91 1007 375 
Q 556 841 556 1753 
L 556 4666 
z
" transform="scale(0.015625)"/>
     </defs>
     <use xlink:href="#DejaVuSans-20"/>
     <use xlink:href="#DejaVuSans-4e" x="31.787109"/>
     <use xlink:href="#DejaVuSans-55" x="106.591797"/>
     <use xlink:href="#DejaVuSans-6d" x="179.785156"/>
     <use xlink:href="#DejaVuSans-62" x="277.197266"/>
     <use xlink:href="#DejaVuSans-65" x="340.673828"/>
     <use xlink:href="#DejaVuSans-72" x="402.197266"/>
     <use xlink:href="#DejaVuSans-20" x="443.310547"/>
     <use xlink:href="#DejaVuSans-6f" x="475.097656"/>
     <use xlink:href="#DejaVuSans-66" x="536.279297"/>
     <use xlink:href="#DejaVuSans-20" x="571.484375"/>
     <use xlink:href="#DejaVuSans-52" x="603.271484"/>
     <use xlink:href="#DejaVuSans-69" x="672.753906"/>
     <use xlink:href="#DejaVuSans-64" x="700.537109"/>
     <use xlink:href="#DejaVuSans-65" x="764.013672"/>
     <use xlink:href="#DejaVuSans-72" x="825.537109"/>
     <use xlink:href="#DejaVuSans-73" x="866.650391"/>
     <use xlink:href="#DejaVuSans-3a" x="918.75"/>
     <use xlink:href="#DejaVuSans-32" x="952.441406"/>
     <use xlink:href="#DejaVuSans-30" x="1016.064453"/>
    </g>
    <!-- Difference in mean=0.282 -->
    <g transform="translate(156.636562 35.472)scale(0.12 -0.12)">
     <defs>
      <path id="DejaVuSans-44" d="M 1259 4147 
L 1259 519 
L 2022 519 
Q 2988 519 3436 956 
Q 3884 1394 3884 2338 
Q 3884 3275 3436 3711 
Q 2988 4147 2022 4147 
L 1259 4147 
z
M 628 4666 
L 1925 4666 
Q 3281 4666 3915 4102 
Q 4550 3538 4550 2338 
Q 4550 1131 3912 565 
Q 3275 0 1925 0 
L 628 0 
L 628 4666 
z
" transform="scale(0.015625)"/>
      <path id="DejaVuSans-3d" d="M 678 2906 
L 4684 2906 
L 4684 2381 
L 678 2381 
L 678 2906 
z
M 678 1631 
L 4684 1631 
L 4684 1100 
L 678 1100 
L 678 1631 
z
" transform="scale(0.015625)"/>
     </defs>
     <use xlink:href="#DejaVuSans-44"/>
     <use xlink:href="#DejaVuSans-69" x="77.001953"/>
     <use xlink:href="#DejaVuSans-66" x="104.785156"/>
     <use xlink:href="#DejaVuSans-66" x="139.990234"/>
     <use xlink:href="#DejaVuSans-65" x="175.195312"/>
     <use xlink:href="#DejaVuSans-72" x="236.71875"/>
     <use xlink:href="#DejaVuSans-65" x="275.582031"/>
     <use xlink:href="#DejaVuSans-6e" x="337.105469"/>
     <use xlink:href="#DejaVuSans-63" x="400.484375"/>
     <use xlink:href="#DejaVuSans-65" x="455.464844"/>
     <use xlink:href="#DejaVuSans-20" x="516.988281"/>
     <use xlink:href="#DejaVuSans-69" x="548.775391"/>
     <use xlink:href="#DejaVuSans-6e" x="576.558594"/>
     <use xlink:href="#DejaVuSans-20" x="639.9375"/>
     <use xlink:href="#DejaVuSans-6d" x="671.724609"/>
     <use xlink:href="#DejaVuSans-65" x="769.136719"/>
     <use xlink:href="#DejaVuSans-61" x="830.660156"/>
     <use xlink:href="#DejaVuSans-6e" x="891.939453"/>
     <use xlink:href="#DejaVuSans-3d" x="955.318359"/>
     <use xlink:href="#DejaVuSans-30" x="1039.107422"/>
     <use xlink:href="#DejaVuSans-2e" x="1102.730469"/>
     <use xlink:href="#DejaVuSans-32" x="1134.517578"/>
     <use xlink:href="#DejaVuSans-38" x="1198.140625"/>
     <use xlink:href="#DejaVuSans-32" x="1261.763672"/>
    </g>
   </g>
   <g id="legend_1">
    <g id="patch_7">
     <path d="M 190.267812 302.584 
L 282.052188 302.584 
Q 284.052188 302.584 284.052188 300.584 
L 284.052188 272.22775 
Q 284.052188 270.22775 282.052188 270.22775 
L 190.267812 270.22775 
Q 188.267812 270.22775 188.267812 272.22775 
L 188.267812 300.584 
Q 188.267812 302.584 190.267812 302.584 
z
" style="fill: #ffffff; opacity: 0.8; stroke: #cccccc; stroke-linejoin: miter"/>
    </g>
    <g id="line2d_16">
     <path d="M 192.267812 278.326187 
L 202.267812 278.326187 
L 212.267812 278.326187 
" style="fill: none; stroke-dasharray: 5.55,2.4; stroke-dashoffset: 0; stroke: #1f77b4; stroke-width: 1.5"/>
    </g>
    <g id="text_15">
     <!-- Default -->
     <g transform="translate(220.267812 281.826187)scale(0.1 -0.1)">
      <use xlink:href="#DejaVuSans-44"/>
      <use xlink:href="#DejaVuSans-65" x="77.001953"/>
      <use xlink:href="#DejaVuSans-66" x="138.525391"/>
      <use xlink:href="#DejaVuSans-61" x="173.730469"/>
      <use xlink:href="#DejaVuSans-75" x="235.009766"/>
      <use xlink:href="#DejaVuSans-6c" x="298.388672"/>
      <use xlink:href="#DejaVuSans-74" x="326.171875"/>
     </g>
    </g>
    <g id="line2d_17">
     <path d="M 192.267812 293.004312 
L 202.267812 293.004312 
L 212.267812 293.004312 
" style="fill: none; stroke-dasharray: 1.5,2.475; stroke-dashoffset: 0; stroke: #ff7f0e; stroke-width: 1.5"/>
    </g>
    <g id="text_16">
     <!-- Anticipation -->
     <g transform="translate(220.267812 296.504312)scale(0.1 -0.1)">
      <defs>
       <path id="DejaVuSans-41" d="M 2188 4044 
L 1331 1722 
L 3047 1722 
L 2188 4044 
z
M 1831 4666 
L 2547 4666 
L 4325 0 
L 3669 0 
L 3244 1197 
L 1141 1197 
L 716 0 
L 50 0 
L 1831 4666 
z
" transform="scale(0.015625)"/>
      </defs>
      <use xlink:href="#DejaVuSans-41"/>
      <use xlink:href="#DejaVuSans-6e" x="68.408203"/>
      <use xlink:href="#DejaVuSans-74" x="131.787109"/>
      <use xlink:href="#DejaVuSans-69" x="170.996094"/>
      <use xlink:href="#DejaVuSans-63" x="198.779297"/>
      <use xlink:href="#DejaVuSans-69" x="253.759766"/>
      <use xlink:href="#DejaVuSans-70" x="281.542969"/>
      <use xlink:href="#DejaVuSans-61" x="345.019531"/>
      <use xlink:href="#DejaVuSans-74" x="406.298828"/>
      <use xlink:href="#DejaVuSans-69" x="445.507812"/>
      <use xlink:href="#DejaVuSans-6f" x="473.291016"/>
      <use xlink:href="#DejaVuSans-6e" x="534.472656"/>
     </g>
    </g>
   </g>
  </g>
 </g>
 <defs>
  <clipPath id="p803874626b">
   <rect x="57.6" y="41.472" width="357.12" height="266.112"/>
  </clipPath>
 </defs>
</svg>
