<?xml version="1.0" encoding="utf-8" standalone="no"?>
<!DOCTYPE svg PUBLIC "-//W3C//DTD SVG 1.1//EN"
  "http://www.w3.org/Graphics/SVG/1.1/DTD/svg11.dtd">
<svg xmlns:xlink="http://www.w3.org/1999/xlink" width="460.8pt" height="345.6pt" viewBox="0 0 460.8 345.6" xmlns="http://www.w3.org/2000/svg" version="1.1">
 <metadata>
  <rdf:RDF xmlns:dc="http://purl.org/dc/elements/1.1/" xmlns:cc="http://creativecommons.org/ns#" xmlns:rdf="http://www.w3.org/1999/02/22-rdf-syntax-ns#">
   <cc:Work>
    <dc:type rdf:resource="http://purl.org/dc/dcmitype/StillImage"/>
    <dc:date>2022-10-04T13:07:09.266370</dc:date>
    <dc:format>image/svg+xml</dc:format>
    <dc:creator>
     <cc:Agent>
      <dc:title>Matplotlib v3.5.3, https://matplotlib.org/</dc:title>
     </cc:Agent>
    </dc:creator>
   </cc:Work>
  </rdf:RDF>
 </metadata>
 <defs>
  <style type="text/css">*{stroke-linejoin: round; stroke-linecap: butt}</style>
 </defs>
 <g id="figure_1">
  <g id="patch_1">
   <path d="M 0 345.6 
L 460.8 345.6 
L 460.8 0 
L 0 0 
z
" style="fill: #ffffff"/>
  </g>
  <g id="axes_1">
   <g id="patch_2">
    <path d="M 57.6 307.584 
L 414.72 307.584 
L 414.72 41.472 
L 57.6 41.472 
z
" style="fill: #ffffff"/>
   </g>
   <g id="matplotlib.axis_1">
    <g id="xtick_1">
     <g id="line2d_1">
      <defs>
       <path id="m9cfa5ed91c" d="M 0 0 
L 0 3.5 
" style="stroke: #000000; stroke-width: 0.8"/>
      </defs>
      <g>
       <use xlink:href="#m9cfa5ed91c" x="73.832727" y="307.584" style="stroke: #000000; stroke-width: 0.8"/>
      </g>
     </g>
     <g id="text_1">
      <!-- 0 -->
      <g transform="translate(70.651477 322.182437)scale(0.1 -0.1)">
       <defs>
        <path id="DejaVuSans-30" d="M 2034 4250 
Q 1547 4250 1301 3770 
Q 1056 3291 1056 2328 
Q 1056 1369 1301 889 
Q 1547 409 2034 409 
Q 2525 409 2770 889 
Q 3016 1369 3016 2328 
Q 3016 3291 2770 3770 
Q 2525 4250 2034 4250 
z
M 2034 4750 
Q 2819 4750 3233 4129 
Q 3647 3509 3647 2328 
Q 3647 1150 3233 529 
Q 2819 -91 2034 -91 
Q 1250 -91 836 529 
Q 422 1150 422 2328 
Q 422 3509 836 4129 
Q 1250 4750 2034 4750 
z
" transform="scale(0.015625)"/>
       </defs>
       <use xlink:href="#DejaVuSans-30"/>
      </g>
     </g>
    </g>
    <g id="xtick_2">
     <g id="line2d_2">
      <g>
       <use xlink:href="#m9cfa5ed91c" x="138.828632" y="307.584" style="stroke: #000000; stroke-width: 0.8"/>
      </g>
     </g>
     <g id="text_2">
      <!-- 200 -->
      <g transform="translate(129.284882 322.182437)scale(0.1 -0.1)">
       <defs>
        <path id="DejaVuSans-32" d="M 1228 531 
L 3431 531 
L 3431 0 
L 469 0 
L 469 531 
Q 828 903 1448 1529 
Q 2069 2156 2228 2338 
Q 2531 2678 2651 2914 
Q 2772 3150 2772 3378 
Q 2772 3750 2511 3984 
Q 2250 4219 1831 4219 
Q 1534 4219 1204 4116 
Q 875 4013 500 3803 
L 500 4441 
Q 881 4594 1212 4672 
Q 1544 4750 1819 4750 
Q 2544 4750 2975 4387 
Q 3406 4025 3406 3419 
Q 3406 3131 3298 2873 
Q 3191 2616 2906 2266 
Q 2828 2175 2409 1742 
Q 1991 1309 1228 531 
z
" transform="scale(0.015625)"/>
       </defs>
       <use xlink:href="#DejaVuSans-32"/>
       <use xlink:href="#DejaVuSans-30" x="63.623047"/>
       <use xlink:href="#DejaVuSans-30" x="127.246094"/>
      </g>
     </g>
    </g>
    <g id="xtick_3">
     <g id="line2d_3">
      <g>
       <use xlink:href="#m9cfa5ed91c" x="203.824537" y="307.584" style="stroke: #000000; stroke-width: 0.8"/>
      </g>
     </g>
     <g id="text_3">
      <!-- 400 -->
      <g transform="translate(194.280787 322.182437)scale(0.1 -0.1)">
       <defs>
        <path id="DejaVuSans-34" d="M 2419 4116 
L 825 1625 
L 2419 1625 
L 2419 4116 
z
M 2253 4666 
L 3047 4666 
L 3047 1625 
L 3713 1625 
L 3713 1100 
L 3047 1100 
L 3047 0 
L 2419 0 
L 2419 1100 
L 313 1100 
L 313 1709 
L 2253 4666 
z
" transform="scale(0.015625)"/>
       </defs>
       <use xlink:href="#DejaVuSans-34"/>
       <use xlink:href="#DejaVuSans-30" x="63.623047"/>
       <use xlink:href="#DejaVuSans-30" x="127.246094"/>
      </g>
     </g>
    </g>
    <g id="xtick_4">
     <g id="line2d_4">
      <g>
       <use xlink:href="#m9cfa5ed91c" x="268.820442" y="307.584" style="stroke: #000000; stroke-width: 0.8"/>
      </g>
     </g>
     <g id="text_4">
      <!-- 600 -->
      <g transform="translate(259.276692 322.182437)scale(0.1 -0.1)">
       <defs>
        <path id="DejaVuSans-36" d="M 2113 2584 
Q 1688 2584 1439 2293 
Q 1191 2003 1191 1497 
Q 1191 994 1439 701 
Q 1688 409 2113 409 
Q 2538 409 2786 701 
Q 3034 994 3034 1497 
Q 3034 2003 2786 2293 
Q 2538 2584 2113 2584 
z
M 3366 4563 
L 3366 3988 
Q 3128 4100 2886 4159 
Q 2644 4219 2406 4219 
Q 1781 4219 1451 3797 
Q 1122 3375 1075 2522 
Q 1259 2794 1537 2939 
Q 1816 3084 2150 3084 
Q 2853 3084 3261 2657 
Q 3669 2231 3669 1497 
Q 3669 778 3244 343 
Q 2819 -91 2113 -91 
Q 1303 -91 875 529 
Q 447 1150 447 2328 
Q 447 3434 972 4092 
Q 1497 4750 2381 4750 
Q 2619 4750 2861 4703 
Q 3103 4656 3366 4563 
z
" transform="scale(0.015625)"/>
       </defs>
       <use xlink:href="#DejaVuSans-36"/>
       <use xlink:href="#DejaVuSans-30" x="63.623047"/>
       <use xlink:href="#DejaVuSans-30" x="127.246094"/>
      </g>
     </g>
    </g>
    <g id="xtick_5">
     <g id="line2d_5">
      <g>
       <use xlink:href="#m9cfa5ed91c" x="333.816347" y="307.584" style="stroke: #000000; stroke-width: 0.8"/>
      </g>
     </g>
     <g id="text_5">
      <!-- 800 -->
      <g transform="translate(324.272597 322.182437)scale(0.1 -0.1)">
       <defs>
        <path id="DejaVuSans-38" d="M 2034 2216 
Q 1584 2216 1326 1975 
Q 1069 1734 1069 1313 
Q 1069 891 1326 650 
Q 1584 409 2034 409 
Q 2484 409 2743 651 
Q 3003 894 3003 1313 
Q 3003 1734 2745 1975 
Q 2488 2216 2034 2216 
z
M 1403 2484 
Q 997 2584 770 2862 
Q 544 3141 544 3541 
Q 544 4100 942 4425 
Q 1341 4750 2034 4750 
Q 2731 4750 3128 4425 
Q 3525 4100 3525 3541 
Q 3525 3141 3298 2862 
Q 3072 2584 2669 2484 
Q 3125 2378 3379 2068 
Q 3634 1759 3634 1313 
Q 3634 634 3220 271 
Q 2806 -91 2034 -91 
Q 1263 -91 848 271 
Q 434 634 434 1313 
Q 434 1759 690 2068 
Q 947 2378 1403 2484 
z
M 1172 3481 
Q 1172 3119 1398 2916 
Q 1625 2713 2034 2713 
Q 2441 2713 2670 2916 
Q 2900 3119 2900 3481 
Q 2900 3844 2670 4047 
Q 2441 4250 2034 4250 
Q 1625 4250 1398 4047 
Q 1172 3844 1172 3481 
z
" transform="scale(0.015625)"/>
       </defs>
       <use xlink:href="#DejaVuSans-38"/>
       <use xlink:href="#DejaVuSans-30" x="63.623047"/>
       <use xlink:href="#DejaVuSans-30" x="127.246094"/>
      </g>
     </g>
    </g>
    <g id="xtick_6">
     <g id="line2d_6">
      <g>
       <use xlink:href="#m9cfa5ed91c" x="398.812252" y="307.584" style="stroke: #000000; stroke-width: 0.8"/>
      </g>
     </g>
     <g id="text_6">
      <!-- 1000 -->
      <g transform="translate(386.087252 322.182437)scale(0.1 -0.1)">
       <defs>
        <path id="DejaVuSans-31" d="M 794 531 
L 1825 531 
L 1825 4091 
L 703 3866 
L 703 4441 
L 1819 4666 
L 2450 4666 
L 2450 531 
L 3481 531 
L 3481 0 
L 794 0 
L 794 531 
z
" transform="scale(0.015625)"/>
       </defs>
       <use xlink:href="#DejaVuSans-31"/>
       <use xlink:href="#DejaVuSans-30" x="63.623047"/>
       <use xlink:href="#DejaVuSans-30" x="127.246094"/>
       <use xlink:href="#DejaVuSans-30" x="190.869141"/>
      </g>
     </g>
    </g>
    <g id="text_7">
     <!-- Number of Orders -->
     <g transform="translate(191.261562 335.860562)scale(0.1 -0.1)">
      <defs>
       <path id="DejaVuSans-4e" d="M 628 4666 
L 1478 4666 
L 3547 763 
L 3547 4666 
L 4159 4666 
L 4159 0 
L 3309 0 
L 1241 3903 
L 1241 0 
L 628 0 
L 628 4666 
z
" transform="scale(0.015625)"/>
       <path id="DejaVuSans-75" d="M 544 1381 
L 544 3500 
L 1119 3500 
L 1119 1403 
Q 1119 906 1312 657 
Q 1506 409 1894 409 
Q 2359 409 2629 706 
Q 2900 1003 2900 1516 
L 2900 3500 
L 3475 3500 
L 3475 0 
L 2900 0 
L 2900 538 
Q 2691 219 2414 64 
Q 2138 -91 1772 -91 
Q 1169 -91 856 284 
Q 544 659 544 1381 
z
M 1991 3584 
L 1991 3584 
z
" transform="scale(0.015625)"/>
       <path id="DejaVuSans-6d" d="M 3328 2828 
Q 3544 3216 3844 3400 
Q 4144 3584 4550 3584 
Q 5097 3584 5394 3201 
Q 5691 2819 5691 2113 
L 5691 0 
L 5113 0 
L 5113 2094 
Q 5113 2597 4934 2840 
Q 4756 3084 4391 3084 
Q 3944 3084 3684 2787 
Q 3425 2491 3425 1978 
L 3425 0 
L 2847 0 
L 2847 2094 
Q 2847 2600 2669 2842 
Q 2491 3084 2119 3084 
Q 1678 3084 1418 2786 
Q 1159 2488 1159 1978 
L 1159 0 
L 581 0 
L 581 3500 
L 1159 3500 
L 1159 2956 
Q 1356 3278 1631 3431 
Q 1906 3584 2284 3584 
Q 2666 3584 2933 3390 
Q 3200 3197 3328 2828 
z
" transform="scale(0.015625)"/>
       <path id="DejaVuSans-62" d="M 3116 1747 
Q 3116 2381 2855 2742 
Q 2594 3103 2138 3103 
Q 1681 3103 1420 2742 
Q 1159 2381 1159 1747 
Q 1159 1113 1420 752 
Q 1681 391 2138 391 
Q 2594 391 2855 752 
Q 3116 1113 3116 1747 
z
M 1159 2969 
Q 1341 3281 1617 3432 
Q 1894 3584 2278 3584 
Q 2916 3584 3314 3078 
Q 3713 2572 3713 1747 
Q 3713 922 3314 415 
Q 2916 -91 2278 -91 
Q 1894 -91 1617 61 
Q 1341 213 1159 525 
L 1159 0 
L 581 0 
L 581 4863 
L 1159 4863 
L 1159 2969 
z
" transform="scale(0.015625)"/>
       <path id="DejaVuSans-65" d="M 3597 1894 
L 3597 1613 
L 953 1613 
Q 991 1019 1311 708 
Q 1631 397 2203 397 
Q 2534 397 2845 478 
Q 3156 559 3463 722 
L 3463 178 
Q 3153 47 2828 -22 
Q 2503 -91 2169 -91 
Q 1331 -91 842 396 
Q 353 884 353 1716 
Q 353 2575 817 3079 
Q 1281 3584 2069 3584 
Q 2775 3584 3186 3129 
Q 3597 2675 3597 1894 
z
M 3022 2063 
Q 3016 2534 2758 2815 
Q 2500 3097 2075 3097 
Q 1594 3097 1305 2825 
Q 1016 2553 972 2059 
L 3022 2063 
z
" transform="scale(0.015625)"/>
       <path id="DejaVuSans-72" d="M 2631 2963 
Q 2534 3019 2420 3045 
Q 2306 3072 2169 3072 
Q 1681 3072 1420 2755 
Q 1159 2438 1159 1844 
L 1159 0 
L 581 0 
L 581 3500 
L 1159 3500 
L 1159 2956 
Q 1341 3275 1631 3429 
Q 1922 3584 2338 3584 
Q 2397 3584 2469 3576 
Q 2541 3569 2628 3553 
L 2631 2963 
z
" transform="scale(0.015625)"/>
       <path id="DejaVuSans-20" transform="scale(0.015625)"/>
       <path id="DejaVuSans-6f" d="M 1959 3097 
Q 1497 3097 1228 2736 
Q 959 2375 959 1747 
Q 959 1119 1226 758 
Q 1494 397 1959 397 
Q 2419 397 2687 759 
Q 2956 1122 2956 1747 
Q 2956 2369 2687 2733 
Q 2419 3097 1959 3097 
z
M 1959 3584 
Q 2709 3584 3137 3096 
Q 3566 2609 3566 1747 
Q 3566 888 3137 398 
Q 2709 -91 1959 -91 
Q 1206 -91 779 398 
Q 353 888 353 1747 
Q 353 2609 779 3096 
Q 1206 3584 1959 3584 
z
" transform="scale(0.015625)"/>
       <path id="DejaVuSans-66" d="M 2375 4863 
L 2375 4384 
L 1825 4384 
Q 1516 4384 1395 4259 
Q 1275 4134 1275 3809 
L 1275 3500 
L 2222 3500 
L 2222 3053 
L 1275 3053 
L 1275 0 
L 697 0 
L 697 3053 
L 147 3053 
L 147 3500 
L 697 3500 
L 697 3744 
Q 697 4328 969 4595 
Q 1241 4863 1831 4863 
L 2375 4863 
z
" transform="scale(0.015625)"/>
       <path id="DejaVuSans-4f" d="M 2522 4238 
Q 1834 4238 1429 3725 
Q 1025 3213 1025 2328 
Q 1025 1447 1429 934 
Q 1834 422 2522 422 
Q 3209 422 3611 934 
Q 4013 1447 4013 2328 
Q 4013 3213 3611 3725 
Q 3209 4238 2522 4238 
z
M 2522 4750 
Q 3503 4750 4090 4092 
Q 4678 3434 4678 2328 
Q 4678 1225 4090 567 
Q 3503 -91 2522 -91 
Q 1538 -91 948 565 
Q 359 1222 359 2328 
Q 359 3434 948 4092 
Q 1538 4750 2522 4750 
z
" transform="scale(0.015625)"/>
       <path id="DejaVuSans-64" d="M 2906 2969 
L 2906 4863 
L 3481 4863 
L 3481 0 
L 2906 0 
L 2906 525 
Q 2725 213 2448 61 
Q 2172 -91 1784 -91 
Q 1150 -91 751 415 
Q 353 922 353 1747 
Q 353 2572 751 3078 
Q 1150 3584 1784 3584 
Q 2172 3584 2448 3432 
Q 2725 3281 2906 2969 
z
M 947 1747 
Q 947 1113 1208 752 
Q 1469 391 1925 391 
Q 2381 391 2643 752 
Q 2906 1113 2906 1747 
Q 2906 2381 2643 2742 
Q 2381 3103 1925 3103 
Q 1469 3103 1208 2742 
Q 947 2381 947 1747 
z
" transform="scale(0.015625)"/>
       <path id="DejaVuSans-73" d="M 2834 3397 
L 2834 2853 
Q 2591 2978 2328 3040 
Q 2066 3103 1784 3103 
Q 1356 3103 1142 2972 
Q 928 2841 928 2578 
Q 928 2378 1081 2264 
Q 1234 2150 1697 2047 
L 1894 2003 
Q 2506 1872 2764 1633 
Q 3022 1394 3022 966 
Q 3022 478 2636 193 
Q 2250 -91 1575 -91 
Q 1294 -91 989 -36 
Q 684 19 347 128 
L 347 722 
Q 666 556 975 473 
Q 1284 391 1588 391 
Q 1994 391 2212 530 
Q 2431 669 2431 922 
Q 2431 1156 2273 1281 
Q 2116 1406 1581 1522 
L 1381 1569 
Q 847 1681 609 1914 
Q 372 2147 372 2553 
Q 372 3047 722 3315 
Q 1072 3584 1716 3584 
Q 2034 3584 2315 3537 
Q 2597 3491 2834 3397 
z
" transform="scale(0.015625)"/>
      </defs>
      <use xlink:href="#DejaVuSans-4e"/>
      <use xlink:href="#DejaVuSans-75" x="74.804688"/>
      <use xlink:href="#DejaVuSans-6d" x="138.183594"/>
      <use xlink:href="#DejaVuSans-62" x="235.595703"/>
      <use xlink:href="#DejaVuSans-65" x="299.072266"/>
      <use xlink:href="#DejaVuSans-72" x="360.595703"/>
      <use xlink:href="#DejaVuSans-20" x="401.708984"/>
      <use xlink:href="#DejaVuSans-6f" x="433.496094"/>
      <use xlink:href="#DejaVuSans-66" x="494.677734"/>
      <use xlink:href="#DejaVuSans-20" x="529.882812"/>
      <use xlink:href="#DejaVuSans-4f" x="561.669922"/>
      <use xlink:href="#DejaVuSans-72" x="640.380859"/>
      <use xlink:href="#DejaVuSans-64" x="679.744141"/>
      <use xlink:href="#DejaVuSans-65" x="743.220703"/>
      <use xlink:href="#DejaVuSans-72" x="804.744141"/>
      <use xlink:href="#DejaVuSans-73" x="845.857422"/>
     </g>
    </g>
   </g>
   <g id="matplotlib.axis_2">
    <g id="ytick_1">
     <g id="line2d_7">
      <defs>
       <path id="m459e2ff6b9" d="M 0 0 
L -3.5 0 
" style="stroke: #000000; stroke-width: 0.8"/>
      </defs>
      <g>
       <use xlink:href="#m459e2ff6b9" x="57.6" y="297.574585" style="stroke: #000000; stroke-width: 0.8"/>
      </g>
     </g>
     <g id="text_8">
      <!-- 1000 -->
      <g transform="translate(25.15 301.373804)scale(0.1 -0.1)">
       <use xlink:href="#DejaVuSans-31"/>
       <use xlink:href="#DejaVuSans-30" x="63.623047"/>
       <use xlink:href="#DejaVuSans-30" x="127.246094"/>
       <use xlink:href="#DejaVuSans-30" x="190.869141"/>
      </g>
     </g>
    </g>
    <g id="ytick_2">
     <g id="line2d_8">
      <g>
       <use xlink:href="#m459e2ff6b9" x="57.6" y="240.007871" style="stroke: #000000; stroke-width: 0.8"/>
      </g>
     </g>
     <g id="text_9">
      <!-- 1500 -->
      <g transform="translate(25.15 243.80709)scale(0.1 -0.1)">
       <defs>
        <path id="DejaVuSans-35" d="M 691 4666 
L 3169 4666 
L 3169 4134 
L 1269 4134 
L 1269 2991 
Q 1406 3038 1543 3061 
Q 1681 3084 1819 3084 
Q 2600 3084 3056 2656 
Q 3513 2228 3513 1497 
Q 3513 744 3044 326 
Q 2575 -91 1722 -91 
Q 1428 -91 1123 -41 
Q 819 9 494 109 
L 494 744 
Q 775 591 1075 516 
Q 1375 441 1709 441 
Q 2250 441 2565 725 
Q 2881 1009 2881 1497 
Q 2881 1984 2565 2268 
Q 2250 2553 1709 2553 
Q 1456 2553 1204 2497 
Q 953 2441 691 2322 
L 691 4666 
z
" transform="scale(0.015625)"/>
       </defs>
       <use xlink:href="#DejaVuSans-31"/>
       <use xlink:href="#DejaVuSans-35" x="63.623047"/>
       <use xlink:href="#DejaVuSans-30" x="127.246094"/>
       <use xlink:href="#DejaVuSans-30" x="190.869141"/>
      </g>
     </g>
    </g>
    <g id="ytick_3">
     <g id="line2d_9">
      <g>
       <use xlink:href="#m459e2ff6b9" x="57.6" y="182.441158" style="stroke: #000000; stroke-width: 0.8"/>
      </g>
     </g>
     <g id="text_10">
      <!-- 2000 -->
      <g transform="translate(25.15 186.240377)scale(0.1 -0.1)">
       <use xlink:href="#DejaVuSans-32"/>
       <use xlink:href="#DejaVuSans-30" x="63.623047"/>
       <use xlink:href="#DejaVuSans-30" x="127.246094"/>
       <use xlink:href="#DejaVuSans-30" x="190.869141"/>
      </g>
     </g>
    </g>
    <g id="ytick_4">
     <g id="line2d_10">
      <g>
       <use xlink:href="#m459e2ff6b9" x="57.6" y="124.874445" style="stroke: #000000; stroke-width: 0.8"/>
      </g>
     </g>
     <g id="text_11">
      <!-- 2500 -->
      <g transform="translate(25.15 128.673663)scale(0.1 -0.1)">
       <use xlink:href="#DejaVuSans-32"/>
       <use xlink:href="#DejaVuSans-35" x="63.623047"/>
       <use xlink:href="#DejaVuSans-30" x="127.246094"/>
       <use xlink:href="#DejaVuSans-30" x="190.869141"/>
      </g>
     </g>
    </g>
    <g id="ytick_5">
     <g id="line2d_11">
      <g>
       <use xlink:href="#m459e2ff6b9" x="57.6" y="67.307731" style="stroke: #000000; stroke-width: 0.8"/>
      </g>
     </g>
     <g id="text_12">
      <!-- 3000 -->
      <g transform="translate(25.15 71.10695)scale(0.1 -0.1)">
       <defs>
        <path id="DejaVuSans-33" d="M 2597 2516 
Q 3050 2419 3304 2112 
Q 3559 1806 3559 1356 
Q 3559 666 3084 287 
Q 2609 -91 1734 -91 
Q 1441 -91 1130 -33 
Q 819 25 488 141 
L 488 750 
Q 750 597 1062 519 
Q 1375 441 1716 441 
Q 2309 441 2620 675 
Q 2931 909 2931 1356 
Q 2931 1769 2642 2001 
Q 2353 2234 1838 2234 
L 1294 2234 
L 1294 2753 
L 1863 2753 
Q 2328 2753 2575 2939 
Q 2822 3125 2822 3475 
Q 2822 3834 2567 4026 
Q 2313 4219 1838 4219 
Q 1578 4219 1281 4162 
Q 984 4106 628 3988 
L 628 4550 
Q 988 4650 1302 4700 
Q 1616 4750 1894 4750 
Q 2613 4750 3031 4423 
Q 3450 4097 3450 3541 
Q 3450 3153 3228 2886 
Q 3006 2619 2597 2516 
z
" transform="scale(0.015625)"/>
       </defs>
       <use xlink:href="#DejaVuSans-33"/>
       <use xlink:href="#DejaVuSans-30" x="63.623047"/>
       <use xlink:href="#DejaVuSans-30" x="127.246094"/>
       <use xlink:href="#DejaVuSans-30" x="190.869141"/>
      </g>
     </g>
    </g>
    <g id="text_13">
     <!-- Waiting Time/s -->
     <g transform="translate(19.070312 211.410031)rotate(-90)scale(0.1 -0.1)">
      <defs>
       <path id="DejaVuSans-57" d="M 213 4666 
L 850 4666 
L 1831 722 
L 2809 4666 
L 3519 4666 
L 4500 722 
L 5478 4666 
L 6119 4666 
L 4947 0 
L 4153 0 
L 3169 4050 
L 2175 0 
L 1381 0 
L 213 4666 
z
" transform="scale(0.015625)"/>
       <path id="DejaVuSans-61" d="M 2194 1759 
Q 1497 1759 1228 1600 
Q 959 1441 959 1056 
Q 959 750 1161 570 
Q 1363 391 1709 391 
Q 2188 391 2477 730 
Q 2766 1069 2766 1631 
L 2766 1759 
L 2194 1759 
z
M 3341 1997 
L 3341 0 
L 2766 0 
L 2766 531 
Q 2569 213 2275 61 
Q 1981 -91 1556 -91 
Q 1019 -91 701 211 
Q 384 513 384 1019 
Q 384 1609 779 1909 
Q 1175 2209 1959 2209 
L 2766 2209 
L 2766 2266 
Q 2766 2663 2505 2880 
Q 2244 3097 1772 3097 
Q 1472 3097 1187 3025 
Q 903 2953 641 2809 
L 641 3341 
Q 956 3463 1253 3523 
Q 1550 3584 1831 3584 
Q 2591 3584 2966 3190 
Q 3341 2797 3341 1997 
z
" transform="scale(0.015625)"/>
       <path id="DejaVuSans-69" d="M 603 3500 
L 1178 3500 
L 1178 0 
L 603 0 
L 603 3500 
z
M 603 4863 
L 1178 4863 
L 1178 4134 
L 603 4134 
L 603 4863 
z
" transform="scale(0.015625)"/>
       <path id="DejaVuSans-74" d="M 1172 4494 
L 1172 3500 
L 2356 3500 
L 2356 3053 
L 1172 3053 
L 1172 1153 
Q 1172 725 1289 603 
Q 1406 481 1766 481 
L 2356 481 
L 2356 0 
L 1766 0 
Q 1100 0 847 248 
Q 594 497 594 1153 
L 594 3053 
L 172 3053 
L 172 3500 
L 594 3500 
L 594 4494 
L 1172 4494 
z
" transform="scale(0.015625)"/>
       <path id="DejaVuSans-6e" d="M 3513 2113 
L 3513 0 
L 2938 0 
L 2938 2094 
Q 2938 2591 2744 2837 
Q 2550 3084 2163 3084 
Q 1697 3084 1428 2787 
Q 1159 2491 1159 1978 
L 1159 0 
L 581 0 
L 581 3500 
L 1159 3500 
L 1159 2956 
Q 1366 3272 1645 3428 
Q 1925 3584 2291 3584 
Q 2894 3584 3203 3211 
Q 3513 2838 3513 2113 
z
" transform="scale(0.015625)"/>
       <path id="DejaVuSans-67" d="M 2906 1791 
Q 2906 2416 2648 2759 
Q 2391 3103 1925 3103 
Q 1463 3103 1205 2759 
Q 947 2416 947 1791 
Q 947 1169 1205 825 
Q 1463 481 1925 481 
Q 2391 481 2648 825 
Q 2906 1169 2906 1791 
z
M 3481 434 
Q 3481 -459 3084 -895 
Q 2688 -1331 1869 -1331 
Q 1566 -1331 1297 -1286 
Q 1028 -1241 775 -1147 
L 775 -588 
Q 1028 -725 1275 -790 
Q 1522 -856 1778 -856 
Q 2344 -856 2625 -561 
Q 2906 -266 2906 331 
L 2906 616 
Q 2728 306 2450 153 
Q 2172 0 1784 0 
Q 1141 0 747 490 
Q 353 981 353 1791 
Q 353 2603 747 3093 
Q 1141 3584 1784 3584 
Q 2172 3584 2450 3431 
Q 2728 3278 2906 2969 
L 2906 3500 
L 3481 3500 
L 3481 434 
z
" transform="scale(0.015625)"/>
       <path id="DejaVuSans-54" d="M -19 4666 
L 3928 4666 
L 3928 4134 
L 2272 4134 
L 2272 0 
L 1638 0 
L 1638 4134 
L -19 4134 
L -19 4666 
z
" transform="scale(0.015625)"/>
       <path id="DejaVuSans-2f" d="M 1625 4666 
L 2156 4666 
L 531 -594 
L 0 -594 
L 1625 4666 
z
" transform="scale(0.015625)"/>
      </defs>
      <use xlink:href="#DejaVuSans-57"/>
      <use xlink:href="#DejaVuSans-61" x="92.501953"/>
      <use xlink:href="#DejaVuSans-69" x="153.78125"/>
      <use xlink:href="#DejaVuSans-74" x="181.564453"/>
      <use xlink:href="#DejaVuSans-69" x="220.773438"/>
      <use xlink:href="#DejaVuSans-6e" x="248.556641"/>
      <use xlink:href="#DejaVuSans-67" x="311.935547"/>
      <use xlink:href="#DejaVuSans-20" x="375.412109"/>
      <use xlink:href="#DejaVuSans-54" x="407.199219"/>
      <use xlink:href="#DejaVuSans-69" x="465.158203"/>
      <use xlink:href="#DejaVuSans-6d" x="492.941406"/>
      <use xlink:href="#DejaVuSans-65" x="590.353516"/>
      <use xlink:href="#DejaVuSans-2f" x="651.876953"/>
      <use xlink:href="#DejaVuSans-73" x="685.568359"/>
     </g>
    </g>
   </g>
   <g id="line2d_12">
    <path d="M 73.832727 237.572554 
L 74.157707 229.98409 
L 74.482686 238.32344 
L 74.807666 228.866931 
L 75.132645 225.07593 
L 75.457625 225.551097 
L 75.782604 218.765947 
L 76.107584 217.229085 
L 76.432563 208.221521 
L 77.407502 195.949084 
L 77.732482 195.616218 
L 78.057461 199.154791 
L 78.70742 185.417149 
L 79.0324 188.704065 
L 79.357379 184.565299 
L 80.332318 167.715669 
L 80.657297 163.373715 
L 80.982277 160.744465 
L 81.307256 156.616248 
L 81.632236 160.088492 
L 81.957215 159.963133 
L 82.282195 158.220964 
L 82.607174 154.36485 
L 82.932154 155.284737 
L 83.257133 154.795307 
L 83.582113 153.715933 
L 83.907093 157.6359 
L 84.232072 158.190358 
L 84.557052 153.172368 
L 84.882031 151.112929 
L 85.207011 146.341571 
L 85.53199 143.593791 
L 85.85697 142.390376 
L 86.181949 141.914027 
L 86.506929 138.389031 
L 86.831908 136.941546 
L 87.156888 132.337844 
L 87.481867 131.668339 
L 87.806847 129.219064 
L 88.131826 130.677431 
L 89.106765 124.417755 
L 89.431744 123.527855 
L 89.756724 125.854182 
L 90.081704 123.625645 
L 90.406683 119.761363 
L 90.731663 119.871942 
L 91.056642 118.751597 
L 91.381622 119.266809 
L 91.706601 115.325945 
L 92.031581 117.498353 
L 92.35656 118.783791 
L 92.68154 116.446073 
L 93.331499 118.336421 
L 93.656478 120.968639 
L 93.981458 120.675459 
L 94.306437 122.964502 
L 94.631417 123.363171 
L 94.956396 124.48328 
L 95.606355 122.031586 
L 95.931335 120.812984 
L 96.256314 115.880523 
L 96.906274 110.281127 
L 97.231253 110.053541 
L 97.556233 108.569683 
L 97.881212 104.20063 
L 98.206192 103.127459 
L 98.531171 100.889431 
L 98.856151 100.651371 
L 99.18113 98.577598 
L 99.50611 99.68171 
L 99.831089 97.790411 
L 100.156069 99.274962 
L 100.481048 99.042857 
L 100.806028 100.673831 
L 101.131007 97.977451 
L 101.455987 97.21742 
L 101.780966 96.924877 
L 102.105946 97.934924 
L 102.430925 99.354068 
L 103.080885 97.215589 
L 103.405864 96.734048 
L 103.730844 93.565332 
L 104.380803 89.915318 
L 104.705782 90.82817 
L 105.030762 90.201279 
L 105.355741 88.247183 
L 105.680721 87.818258 
L 106.0057 84.821868 
L 106.33068 85.790216 
L 106.655659 85.271934 
L 106.980639 85.574902 
L 107.630598 88.782546 
L 107.955577 89.716152 
L 108.280557 86.665814 
L 108.605536 87.668299 
L 109.255495 86.569634 
L 109.580475 86.308048 
L 109.905455 86.252687 
L 110.230434 84.911948 
L 110.555414 86.08535 
L 110.880393 85.314671 
L 111.530352 84.59607 
L 111.855332 85.407956 
L 112.180311 85.669019 
L 113.480229 81.203824 
L 113.805209 81.141253 
L 114.130188 78.457794 
L 114.455168 76.72467 
L 114.780147 77.112212 
L 115.105127 78.64068 
L 115.430106 79.529896 
L 115.755086 79.998465 
L 116.080066 80.219701 
L 116.405045 81.604062 
L 116.730025 81.425564 
L 117.055004 82.345477 
L 117.379984 82.678467 
L 117.704963 81.799098 
L 118.029943 82.002305 
L 118.354922 81.034089 
L 118.679902 82.051741 
L 119.004881 81.568173 
L 119.65484 79.489916 
L 119.97982 80.808736 
L 120.304799 79.848279 
L 120.629779 81.014843 
L 120.954758 80.835671 
L 121.279738 81.15473 
L 121.604717 81.668682 
L 121.929697 80.752403 
L 122.254676 80.97037 
L 122.579656 81.93809 
L 122.904636 81.89927 
L 123.229615 82.397551 
L 123.554595 81.662715 
L 123.879574 82.258254 
L 124.204554 82.28902 
L 124.529533 82.535578 
L 124.854513 82.977951 
L 125.179492 82.555361 
L 125.829451 80.838779 
L 126.154431 80.231132 
L 126.80439 77.166524 
L 127.129369 76.193813 
L 127.454349 76.452984 
L 127.779328 74.794694 
L 128.104308 74.982334 
L 128.429287 74.36842 
L 129.079247 75.697917 
L 129.404226 75.799136 
L 129.729206 75.37896 
L 130.054185 74.24474 
L 130.379165 74.81027 
L 130.704144 76.006938 
L 131.029124 75.193332 
L 131.354103 75.20999 
L 131.679083 74.278309 
L 132.004062 74.724732 
L 132.329042 73.80046 
L 132.654021 73.585205 
L 132.979001 74.797561 
L 133.30398 75.00438 
L 133.62896 75.426196 
L 133.953939 74.869082 
L 134.278919 75.034505 
L 134.928878 74.354381 
L 135.253857 74.554178 
L 135.578837 74.409475 
L 135.903817 74.414604 
L 136.228796 73.227006 
L 137.203735 73.250025 
L 137.528714 72.413721 
L 137.853694 73.693287 
L 138.503653 72.676948 
L 138.828632 71.295735 
L 139.803571 69.815412 
L 140.12855 70.719853 
L 140.45353 69.181191 
L 140.778509 70.192289 
L 141.103489 69.497166 
L 141.428468 70.020777 
L 141.753448 70.072251 
L 142.403407 68.163467 
L 142.728387 68.492018 
L 143.053366 69.665465 
L 143.703325 69.222562 
L 144.353284 69.437272 
L 144.678264 70.012416 
L 145.003243 70.115934 
L 145.328223 69.801925 
L 145.653202 70.338262 
L 145.978182 69.878726 
L 146.303161 69.983366 
L 146.628141 69.554508 
L 146.95312 69.969214 
L 147.2781 68.880111 
L 147.603079 69.599506 
L 147.928059 67.692625 
L 148.253038 66.827414 
L 148.902998 66.823645 
L 150.202916 69.867579 
L 150.527895 69.485891 
L 150.852875 69.378191 
L 151.502834 70.279936 
L 151.827813 70.167534 
L 152.152793 69.937211 
L 152.477772 69.097302 
L 152.802752 70.11889 
L 153.127731 69.863071 
L 153.452711 68.941178 
L 153.77769 69.077547 
L 154.10267 69.407176 
L 154.752629 67.876263 
L 155.077609 67.880214 
L 155.402588 67.227259 
L 155.727568 67.527512 
L 156.377527 67.687929 
L 157.027486 66.73125 
L 157.352465 67.01917 
L 157.677445 65.961039 
L 158.002424 66.162542 
L 158.327404 65.964601 
L 158.652383 66.269347 
L 159.627322 64.195203 
L 159.952301 64.709994 
L 160.277281 64.246947 
L 160.92724 64.360841 
L 161.252219 64.401665 
L 161.577199 63.796636 
L 161.902179 63.542375 
L 162.552138 64.843328 
L 163.202097 64.995279 
L 163.527076 64.684609 
L 164.177035 65.214741 
L 164.826994 65.12946 
L 165.476953 66.21128 
L 166.451892 63.856685 
L 167.101851 65.365652 
L 167.42683 65.090644 
L 167.75181 65.108001 
L 168.07679 65.524971 
L 168.401769 65.644557 
L 168.726749 65.59198 
L 169.051728 65.864133 
L 169.376708 65.365592 
L 169.701687 65.287539 
L 170.026667 65.492505 
L 170.351646 65.170969 
L 171.001605 65.364895 
L 171.326585 65.700137 
L 171.651564 66.262314 
L 172.301523 66.789012 
L 172.626503 66.896847 
L 172.951482 67.212603 
L 173.276462 67.036145 
L 174.2514 67.032811 
L 174.90136 66.619245 
L 175.226339 66.894997 
L 175.551319 67.462698 
L 175.876298 66.928229 
L 176.201278 67.373575 
L 176.526257 67.234477 
L 177.176216 65.59921 
L 177.501196 65.785747 
L 178.151155 64.820913 
L 178.476134 65.333755 
L 178.801114 64.781799 
L 179.126093 64.713612 
L 179.451073 64.085756 
L 180.101032 63.83102 
L 180.426011 64.35464 
L 180.750991 64.618316 
L 181.075971 63.662037 
L 181.40095 63.609558 
L 181.72593 63.718037 
L 182.375889 64.188871 
L 182.700868 64.058302 
L 183.025848 64.121822 
L 183.350827 63.743227 
L 183.675807 63.846732 
L 184.000786 64.262759 
L 184.325766 64.873166 
L 184.650745 64.606266 
L 184.975725 63.776371 
L 185.950663 63.363611 
L 186.600622 62.72876 
L 186.925602 62.178461 
L 187.250581 62.156493 
L 188.5505 63.24264 
L 189.200459 64.173687 
L 189.525438 64.285924 
L 189.850418 63.886277 
L 190.175397 63.893762 
L 190.825356 63.310131 
L 191.150336 62.666451 
L 191.475315 62.446762 
L 191.800295 62.560589 
L 192.125274 62.818076 
L 192.450254 61.970841 
L 193.100213 61.713853 
L 193.425192 62.297336 
L 194.075152 62.347812 
L 194.400131 62.241368 
L 194.725111 62.774702 
L 195.05009 62.397514 
L 195.37507 62.651083 
L 195.700049 62.53557 
L 196.025029 62.252807 
L 196.674988 62.516401 
L 196.999967 62.077497 
L 197.324947 62.194067 
L 197.649926 61.787923 
L 198.299885 62.204302 
L 198.624865 62.849439 
L 198.949844 63.108584 
L 199.599803 62.883015 
L 199.924783 62.513949 
L 200.249762 62.740008 
L 200.574742 63.172872 
L 201.549681 62.825912 
L 202.19964 61.799047 
L 202.524619 61.83861 
L 203.174578 62.638963 
L 203.499558 62.547016 
L 203.824537 62.639981 
L 205.774414 61.70107 
L 206.099394 61.195254 
L 206.424373 61.135418 
L 207.074333 60.60548 
L 207.399312 60.628366 
L 208.049271 61.224346 
L 208.69923 62.172014 
L 209.02421 61.776641 
L 209.674169 62.180189 
L 209.999148 61.671962 
L 210.649107 61.78333 
L 210.974087 62.061075 
L 211.299066 62.571475 
L 211.624046 62.222643 
L 211.949025 62.045731 
L 212.274005 62.238435 
L 212.598984 62.063538 
L 213.248943 62.630323 
L 213.898903 62.410984 
L 214.223882 62.932298 
L 214.548862 63.167528 
L 214.873841 62.796457 
L 215.198821 63.309703 
L 215.5238 63.085601 
L 215.84878 63.281066 
L 217.473677 63.505117 
L 218.123636 62.5996 
L 218.448616 62.852517 
L 218.773595 62.850755 
L 219.748534 63.909604 
L 220.073514 63.501375 
L 220.398493 63.469814 
L 220.723473 63.294783 
L 221.048452 63.741261 
L 222.023391 62.314784 
L 222.34837 62.399457 
L 222.67335 62.985263 
L 222.998329 63.153403 
L 223.323309 63.605882 
L 223.648288 63.599952 
L 224.623227 63.027115 
L 224.948206 62.970514 
L 225.598165 63.429804 
L 225.923145 62.939394 
L 226.248124 62.836459 
L 226.573104 62.955552 
L 226.898084 63.278222 
L 227.223063 62.643129 
L 227.548043 62.253137 
L 227.873022 62.682582 
L 228.198002 62.745277 
L 228.522981 62.54157 
L 229.822899 61.239429 
L 230.147879 61.856649 
L 230.472858 61.592492 
L 230.797838 61.480821 
L 231.122817 61.718229 
L 231.772776 60.710353 
L 232.097756 60.860917 
L 232.422735 60.777991 
L 232.747715 60.42098 
L 233.072695 60.24431 
L 233.397674 60.342374 
L 233.722654 60.577503 
L 234.047633 60.092042 
L 234.372613 60.232835 
L 234.697592 60.193451 
L 235.022572 59.45151 
L 235.347551 59.677504 
L 235.672531 59.585345 
L 236.32249 60.213227 
L 236.647469 60.135642 
L 236.972449 59.601761 
L 237.622408 59.328255 
L 237.947387 59.303874 
L 238.272367 58.944784 
L 238.597346 58.805057 
L 238.922326 58.487372 
L 239.572285 58.793619 
L 239.897265 58.724407 
L 240.222244 59.151661 
L 240.547224 59.275714 
L 240.872203 59.076931 
L 241.522162 59.04843 
L 241.847142 58.761017 
L 242.172121 59.022794 
L 242.497101 58.979932 
L 243.14706 58.576394 
L 243.472039 58.69994 
L 243.797019 58.95881 
L 244.121998 59.059393 
L 244.771957 58.371735 
L 245.096937 58.72556 
L 245.421916 58.701154 
L 246.071876 58.340599 
L 247.696773 57.641718 
L 248.021753 57.840739 
L 248.346732 58.289217 
L 248.671712 57.892214 
L 248.996691 58.187104 
L 249.321671 58.058279 
L 250.296609 58.476025 
L 251.596527 58.323236 
L 251.921507 58.504468 
L 252.246486 58.951852 
L 252.571466 58.959837 
L 253.221425 58.745451 
L 253.546405 58.639956 
L 253.871384 58.923128 
L 254.196364 58.74014 
L 254.521343 58.685396 
L 254.846323 58.850583 
L 255.496282 59.475783 
L 255.821261 59.911256 
L 256.146241 60.143012 
L 257.121179 60.28261 
L 257.446159 60.431332 
L 257.771138 60.377354 
L 258.096118 60.04012 
L 259.071057 60.36075 
L 259.396036 60.686892 
L 259.721016 60.641188 
L 260.045995 60.764903 
L 260.370975 60.606072 
L 260.695954 60.843427 
L 261.020934 60.856068 
L 261.345913 60.664141 
L 261.670893 60.740343 
L 261.995872 60.692475 
L 262.320852 60.777392 
L 262.645831 61.015016 
L 262.970811 60.67258 
L 263.62077 61.022183 
L 263.945749 60.991569 
L 264.595708 61.288757 
L 264.920688 61.627447 
L 266.220606 62.058191 
L 267.520524 61.678536 
L 268.170483 62.16186 
L 268.495463 62.131293 
L 268.820442 62.25122 
L 269.145422 62.199664 
L 269.470401 62.019357 
L 269.795381 62.158771 
L 271.095299 62.160985 
L 271.420278 62.373106 
L 272.070238 61.974126 
L 272.395217 62.085388 
L 273.045176 62.764907 
L 274.020115 63.827796 
L 274.345094 63.504099 
L 274.670074 63.381655 
L 275.320033 63.790464 
L 276.294971 64.412016 
L 276.619951 64.293308 
L 277.26991 64.842022 
L 277.594889 64.747412 
L 277.919869 64.480871 
L 278.244848 64.686673 
L 278.894808 64.520115 
L 279.219787 64.757041 
L 279.869746 64.290276 
L 280.194726 64.606891 
L 280.519705 64.636983 
L 280.844685 64.428042 
L 281.169664 64.860645 
L 281.494644 64.971046 
L 281.819623 64.900486 
L 282.144603 65.250905 
L 282.469582 64.910675 
L 282.794562 65.064156 
L 283.119541 65.041851 
L 283.444521 64.666725 
L 283.7695 64.507075 
L 284.419459 64.64432 
L 284.744439 65.049161 
L 285.069419 65.129068 
L 285.394398 64.989527 
L 285.719378 64.625026 
L 286.044357 64.497707 
L 286.694316 64.710333 
L 287.019296 64.428898 
L 287.344275 64.778081 
L 287.669255 64.707321 
L 287.994234 65.022217 
L 288.319214 64.768413 
L 288.644193 65.027976 
L 288.969173 64.961059 
L 289.619132 65.192166 
L 290.269091 65.271157 
L 290.59407 65.126084 
L 290.91905 65.253973 
L 291.569009 64.823809 
L 291.893989 64.471031 
L 292.218968 64.449006 
L 292.543948 64.783037 
L 292.868927 64.705261 
L 293.193907 64.866834 
L 293.518886 64.805351 
L 293.843866 64.937281 
L 295.143784 64.851133 
L 295.468763 64.59387 
L 296.118722 64.62974 
L 296.443702 64.992321 
L 297.093661 64.357516 
L 297.41864 64.44515 
L 297.74362 64.407331 
L 299.368518 64.814961 
L 299.693497 64.706254 
L 300.343456 64.864483 
L 300.668436 64.626762 
L 300.993415 64.591611 
L 301.318395 64.909783 
L 302.293333 65.260975 
L 302.618313 65.152478 
L 302.943292 64.832948 
L 303.593251 65.259806 
L 304.56819 64.689804 
L 305.218149 65.025212 
L 305.543129 64.904239 
L 305.868108 64.580781 
L 306.193088 64.532689 
L 306.518067 64.267695 
L 306.843047 64.280863 
L 307.168026 64.539436 
L 307.817985 64.671155 
L 308.467944 64.488466 
L 309.117903 64.787851 
L 309.767862 64.372934 
L 310.092842 64.056593 
L 310.742801 64.20152 
L 311.067781 64.246958 
L 311.39276 63.987575 
L 311.71774 64.030265 
L 312.042719 64.193774 
L 312.367699 63.749244 
L 312.692678 63.775238 
L 313.017658 63.923022 
L 313.342637 63.921837 
L 313.667617 63.805175 
L 313.992596 63.569381 
L 314.642555 63.924804 
L 315.292514 63.707705 
L 315.617494 63.777802 
L 315.942473 63.724571 
L 316.267453 63.830759 
L 316.592432 63.657521 
L 316.917412 63.743375 
L 318.21733 64.708052 
L 318.54231 64.77877 
L 318.867289 64.415777 
L 319.192269 64.234142 
L 319.517248 64.239011 
L 319.842228 64.397053 
L 320.817166 63.732612 
L 321.142146 63.751908 
L 321.467125 64.053712 
L 323.417002 64.64565 
L 324.716921 64.428355 
L 325.36688 64.732257 
L 325.691859 64.975813 
L 326.341818 64.740648 
L 326.666798 65.005482 
L 326.991777 64.889244 
L 327.316757 65.003412 
L 327.966716 64.820317 
L 328.291695 65.040905 
L 328.941654 65.232105 
L 329.591613 65.539604 
L 330.241572 65.873186 
L 331.541491 65.88522 
L 331.86647 65.750914 
L 332.19145 65.773219 
L 332.516429 66.144649 
L 332.841409 66.302124 
L 333.491368 66.236329 
L 335.116265 66.935453 
L 335.766224 66.428083 
L 336.091204 66.422929 
L 337.391122 66.787561 
L 337.716102 66.762823 
L 338.041081 66.94049 
L 338.366061 66.952897 
L 338.69104 66.824978 
L 339.01602 66.826602 
L 339.340999 67.062942 
L 339.665979 67.141764 
L 340.315938 67.496193 
L 340.640917 67.331394 
L 340.965897 67.306219 
L 341.615856 66.765232 
L 341.940835 66.540527 
L 343.240753 67.189523 
L 343.890713 66.943339 
L 344.215692 67.015192 
L 344.865651 66.763688 
L 345.190631 66.649288 
L 345.51561 66.653055 
L 346.165569 66.26985 
L 346.815528 66.105432 
L 347.465487 66.399529 
L 347.790467 66.285864 
L 348.440426 66.443864 
L 348.765405 66.15734 
L 349.415364 66.03346 
L 349.740344 66.201888 
L 350.065324 66.227232 
L 350.390303 66.367327 
L 351.040262 66.160414 
L 351.365242 66.275238 
L 352.34018 66.197808 
L 352.66516 65.881603 
L 352.990139 65.853862 
L 353.315119 65.670987 
L 353.640098 65.734227 
L 353.965078 65.667757 
L 354.290057 65.821003 
L 354.615037 65.823448 
L 354.940016 65.587679 
L 355.589975 65.573683 
L 356.239934 65.844496 
L 356.889894 65.941957 
L 357.214873 66.136768 
L 357.864832 66.035706 
L 358.514791 65.77643 
L 358.839771 65.940307 
L 359.16475 65.68489 
L 359.48973 65.753196 
L 359.814709 65.509801 
L 360.139689 65.760345 
L 360.789648 65.369938 
L 362.414545 65.245 
L 362.739525 65.143024 
L 363.064505 65.251405 
L 363.714464 65.33649 
L 364.364423 65.453022 
L 364.689402 65.582479 
L 365.98932 65.521597 
L 366.3143 65.671793 
L 366.639279 65.610081 
L 366.964259 65.878717 
L 368.589156 66.299581 
L 369.564095 66.237862 
L 370.539034 65.689421 
L 371.188993 65.994323 
L 371.513972 65.825436 
L 372.163931 66.075873 
L 372.81389 66.21531 
L 373.463849 66.092075 
L 373.788829 65.753616 
L 374.438788 65.707985 
L 375.088747 65.427573 
L 375.413726 65.642962 
L 375.738706 65.710428 
L 376.388665 66.15314 
L 377.038624 66.400409 
L 377.688583 66.220791 
L 378.338542 66.695969 
L 379.313481 66.987094 
L 379.96344 67.399105 
L 380.613399 67.237728 
L 381.588337 67.775354 
L 383.213235 68.051616 
L 383.538215 67.809012 
L 384.188174 67.869108 
L 384.838133 68.041181 
L 385.163112 68.09794 
L 386.138051 68.001506 
L 386.78801 67.970531 
L 387.112989 67.742115 
L 387.437969 67.860274 
L 387.762948 68.142587 
L 388.087928 68.181944 
L 388.737887 68.516789 
L 389.712826 68.878198 
L 390.037805 68.813075 
L 390.362785 68.894848 
L 390.687764 68.740605 
L 391.012744 68.792967 
L 391.337723 69.049327 
L 391.987682 69.298078 
L 392.312662 69.087344 
L 392.962621 69.107912 
L 394.587518 68.700507 
L 395.562457 68.490736 
L 395.887437 68.427876 
L 397.837314 67.155184 
L 398.487273 66.565405 
L 398.487273 66.565405 
" clip-path="url(#pef362e69ad)" style="fill: none; stroke-dasharray: 2,3.3; stroke-dashoffset: 0; stroke: #0000ff; stroke-width: 2"/>
   </g>
   <g id="line2d_13">
    <path d="M 73.832727 295.488 
L 74.157707 285.517601 
L 74.807666 257.750846 
L 75.132645 246.300157 
L 75.457625 244.176007 
L 75.782604 239.281139 
L 76.107584 231.627877 
L 76.432563 228.832674 
L 76.757543 219.565508 
L 77.407502 208.298461 
L 78.057461 206.742963 
L 78.70742 200.187114 
L 79.0324 205.4198 
L 80.007338 189.242509 
L 80.332318 186.362629 
L 80.657297 186.16181 
L 80.982277 184.574714 
L 81.632236 175.679728 
L 81.957215 175.472646 
L 82.282195 173.508369 
L 82.607174 169.207317 
L 82.932154 170.19118 
L 83.257133 169.321477 
L 83.582113 165.84876 
L 83.907093 164.313019 
L 84.232072 167.958834 
L 84.882031 161.242725 
L 85.207011 161.120126 
L 85.53199 159.982005 
L 85.85697 159.416821 
L 86.506929 154.948629 
L 86.831908 151.688021 
L 87.156888 152.167745 
L 87.481867 155.541863 
L 87.806847 153.84982 
L 88.131826 150.338282 
L 88.456806 149.622749 
L 88.781785 148.468914 
L 89.106765 148.329082 
L 89.431744 144.750186 
L 89.756724 143.098945 
L 90.081704 139.605925 
L 90.406683 138.631774 
L 90.731663 139.028597 
L 91.056642 136.388173 
L 91.381622 137.987454 
L 91.706601 137.521733 
L 92.031581 133.773419 
L 92.68154 129.890167 
L 93.006519 128.281848 
L 93.331499 124.411845 
L 93.656478 123.503546 
L 94.306437 119.349683 
L 94.631417 120.267058 
L 94.956396 118.605109 
L 95.281376 115.122694 
L 95.606355 113.411783 
L 95.931335 110.948781 
L 96.256314 107.305441 
L 96.581294 107.356444 
L 96.906274 104.916388 
L 97.231253 100.567768 
L 97.556233 103.629353 
L 97.881212 101.223224 
L 98.206192 102.746338 
L 98.531171 105.29612 
L 98.856151 105.383046 
L 99.18113 104.802088 
L 99.831089 102.325012 
L 100.156069 101.703259 
L 100.481048 103.294282 
L 101.131007 101.747883 
L 101.455987 102.505171 
L 102.105946 97.734759 
L 102.430925 96.685228 
L 102.755905 94.861816 
L 103.080885 94.590536 
L 103.405864 92.870222 
L 103.730844 92.269766 
L 104.705782 94.604822 
L 105.030762 93.933567 
L 105.355741 93.558676 
L 105.680721 93.50588 
L 106.0057 94.206526 
L 106.33068 92.833184 
L 106.655659 92.415476 
L 107.305618 88.562774 
L 107.630598 90.468707 
L 107.955577 90.31229 
L 108.280557 89.712609 
L 108.605536 89.424854 
L 108.930516 88.358029 
L 109.255495 88.141777 
L 109.905455 84.948313 
L 110.230434 83.94257 
L 110.555414 82.517561 
L 110.880393 79.958098 
L 111.530352 82.7181 
L 112.180311 81.786533 
L 112.505291 81.805037 
L 113.15525 81.017233 
L 113.480229 80.434631 
L 114.130188 76.425025 
L 114.455168 76.89695 
L 114.780147 76.953434 
L 115.105127 77.432589 
L 115.430106 77.250736 
L 115.755086 75.81258 
L 116.405045 74.979297 
L 116.730025 74.175009 
L 117.055004 74.901755 
L 117.379984 74.845633 
L 117.704963 76.042114 
L 118.029943 76.573611 
L 118.354922 75.25301 
L 118.679902 76.028879 
L 119.329861 76.211781 
L 119.65484 76.369164 
L 119.97982 75.021554 
L 120.629779 74.591615 
L 120.954758 74.15987 
L 121.279738 74.77129 
L 121.929697 73.908409 
L 122.254676 74.282257 
L 122.579656 73.867799 
L 122.904636 73.856055 
L 123.554595 72.408613 
L 123.879574 71.257215 
L 124.204554 71.637905 
L 124.529533 72.655962 
L 124.854513 73.008856 
L 125.179492 74.014612 
L 125.504472 72.890534 
L 125.829451 73.491466 
L 126.154431 74.842375 
L 126.47941 74.945418 
L 126.80439 73.091668 
L 127.454349 71.978128 
L 128.104308 71.479186 
L 128.429287 70.766127 
L 128.754267 71.393381 
L 129.079247 71.768146 
L 129.729206 70.677576 
L 130.054185 71.220225 
L 130.379165 72.090026 
L 130.704144 71.4263 
L 131.029124 71.710833 
L 131.354103 71.274842 
L 131.679083 70.210042 
L 132.004062 69.765771 
L 132.329042 68.877213 
L 132.654021 69.190604 
L 132.979001 68.224019 
L 133.30398 68.841301 
L 133.62896 68.801437 
L 133.953939 69.541232 
L 134.278919 69.429644 
L 134.603898 70.606906 
L 135.578837 72.304952 
L 135.903817 72.603748 
L 136.228796 73.43401 
L 136.553776 73.717206 
L 136.878755 73.733844 
L 137.203735 73.571183 
L 137.528714 72.600658 
L 137.853694 72.851523 
L 138.178673 72.213762 
L 138.503653 72.272828 
L 138.828632 72.793646 
L 139.153612 71.554995 
L 139.803571 70.958014 
L 140.12855 71.258114 
L 140.45353 70.6051 
L 140.778509 69.591881 
L 141.103489 69.745606 
L 141.428468 70.68454 
L 141.753448 70.707124 
L 142.078428 70.345479 
L 142.403407 70.551227 
L 143.053366 68.732203 
L 143.378346 68.530918 
L 143.703325 67.466705 
L 144.353284 68.504037 
L 144.678264 68.967625 
L 145.653202 68.587853 
L 145.978182 69.062461 
L 146.303161 68.423784 
L 146.628141 68.902112 
L 146.95312 68.938351 
L 147.2781 68.859952 
L 147.603079 68.555838 
L 148.253038 67.37877 
L 148.578018 67.924287 
L 149.227977 68.392409 
L 149.877936 70.714573 
L 150.202916 71.073187 
L 150.527895 70.490462 
L 150.852875 70.185871 
L 151.177854 71.03261 
L 151.502834 70.535024 
L 152.152793 71.397273 
L 152.477772 71.703748 
L 152.802752 70.701858 
L 153.127731 70.5019 
L 153.452711 70.892233 
L 154.10267 70.166333 
L 154.427649 70.739222 
L 154.752629 69.972842 
L 155.402588 70.897927 
L 155.727568 70.65472 
L 156.052547 71.268536 
L 156.377527 71.06834 
L 157.027486 70.374207 
L 157.352465 70.835205 
L 157.677445 71.09285 
L 158.002424 70.716487 
L 158.327404 71.261065 
L 158.977363 71.270184 
L 159.302342 71.12717 
L 159.627322 70.76821 
L 159.952301 70.958589 
L 160.277281 70.48571 
L 160.60226 70.760776 
L 161.252219 70.453446 
L 161.577199 70.865002 
L 162.552138 70.986667 
L 162.877117 70.745673 
L 163.202097 70.267599 
L 163.527076 70.71392 
L 163.852056 70.175214 
L 164.177035 69.894848 
L 164.502015 70.042159 
L 164.826994 69.988429 
L 165.151974 70.519142 
L 165.476953 70.542373 
L 165.801933 70.239902 
L 166.126912 70.201133 
L 166.451892 70.611117 
L 166.776871 70.664218 
L 167.101851 71.113913 
L 168.07679 70.997926 
L 169.376708 72.970829 
L 170.026667 73.024845 
L 170.351646 72.565725 
L 170.676626 72.76284 
L 171.001605 72.585085 
L 171.651564 72.768958 
L 172.301523 71.082584 
L 172.626503 71.625171 
L 172.951482 71.332448 
L 173.276462 71.220364 
L 173.601441 71.480789 
L 173.926421 71.301252 
L 174.90136 69.427154 
L 175.226339 69.54963 
L 175.551319 69.267552 
L 176.201278 69.278223 
L 176.526257 69.075024 
L 176.851237 69.636275 
L 177.176216 68.858123 
L 177.501196 69.478684 
L 177.826175 69.278215 
L 178.476134 70.325817 
L 179.126093 70.698301 
L 179.451073 70.622093 
L 179.776052 71.228271 
L 180.101032 71.067057 
L 180.426011 70.363365 
L 180.750991 70.899861 
L 181.40095 71.131192 
L 181.72593 71.184871 
L 182.050909 71.672458 
L 182.375889 71.0817 
L 182.700868 71.118358 
L 183.025848 70.85565 
L 183.350827 70.866303 
L 183.675807 70.515432 
L 184.000786 69.759087 
L 184.325766 69.353794 
L 184.650745 69.608537 
L 184.975725 68.871773 
L 185.625684 68.135672 
L 185.950663 68.613195 
L 186.275643 68.87052 
L 186.600622 69.481622 
L 187.250581 68.377398 
L 187.575561 68.283914 
L 187.900541 68.657508 
L 188.22552 68.667099 
L 188.5505 68.865333 
L 189.200459 68.022331 
L 189.525438 68.681722 
L 189.850418 68.294834 
L 190.175397 68.258352 
L 190.500377 67.954507 
L 190.825356 68.109595 
L 191.150336 67.632012 
L 191.800295 67.546887 
L 192.125274 68.281847 
L 192.450254 67.903924 
L 192.775233 67.801959 
L 193.425192 66.65218 
L 194.075152 65.675974 
L 194.400131 65.52745 
L 194.725111 65.55263 
L 195.05009 65.34764 
L 195.37507 64.825613 
L 195.700049 65.008225 
L 196.025029 64.654401 
L 196.350008 64.538083 
L 196.674988 64.264296 
L 196.999967 64.152234 
L 198.949844 64.43376 
L 199.274824 63.525731 
L 199.599803 63.134667 
L 200.249762 63.786391 
L 200.574742 63.275665 
L 200.899722 63.285288 
L 201.224701 63.546734 
L 201.87466 63.469267 
L 202.19964 63.708603 
L 202.524619 63.144224 
L 202.849599 63.129494 
L 203.174578 62.531252 
L 203.499558 62.187115 
L 204.149517 62.404074 
L 204.474496 62.308852 
L 204.799476 62.598841 
L 205.124455 62.25832 
L 205.449435 62.671798 
L 206.099394 61.882012 
L 206.424373 61.988418 
L 206.749353 61.863996 
L 207.074333 62.277418 
L 208.049271 62.515175 
L 208.374251 62.637648 
L 208.69923 63.016081 
L 209.02421 63.093839 
L 209.349189 62.750352 
L 209.674169 62.18211 
L 210.649107 61.925495 
L 211.299066 61.315933 
L 211.624046 60.78145 
L 212.274005 60.633647 
L 212.598984 60.06786 
L 212.923964 60.188754 
L 213.248943 59.893763 
L 213.573923 60.064035 
L 213.898903 59.933999 
L 214.223882 59.615267 
L 214.548862 59.874273 
L 215.198821 59.353579 
L 215.5238 58.65694 
L 215.84878 59.187496 
L 216.173759 58.63329 
L 216.823718 59.316063 
L 217.473677 58.871373 
L 217.798657 58.543076 
L 218.123636 57.952655 
L 218.448616 57.935855 
L 218.773595 58.31231 
L 219.098575 58.097158 
L 219.423554 57.116576 
L 219.748534 56.828708 
L 220.073514 56.86199 
L 220.398493 57.077418 
L 220.723473 56.900672 
L 221.048452 56.413728 
L 221.373432 56.572697 
L 221.698411 56.473988 
L 222.023391 55.728284 
L 222.34837 55.674846 
L 222.67335 55.863606 
L 223.323309 55.850045 
L 223.648288 55.305986 
L 223.973268 55.374125 
L 224.623227 55.238889 
L 224.948206 55.546065 
L 225.273186 55.319178 
L 225.598165 55.454858 
L 225.923145 55.280105 
L 226.573104 56.136983 
L 226.898084 56.328748 
L 227.223063 56.03462 
L 227.548043 55.321597 
L 227.873022 55.67799 
L 228.198002 55.065971 
L 229.17294 54.180371 
L 229.49792 53.84701 
L 229.822899 53.751946 
L 230.472858 53.9793 
L 230.797838 53.568 
L 231.447797 54.239351 
L 231.772776 54.318344 
L 232.097756 54.839326 
L 232.422735 55.086052 
L 232.747715 54.708489 
L 233.397674 53.731154 
L 234.047633 54.13175 
L 234.372613 54.257372 
L 234.697592 54.136566 
L 235.022572 54.232982 
L 235.347551 54.77281 
L 235.672531 54.901379 
L 235.99751 54.628541 
L 236.32249 54.682204 
L 236.647469 54.614211 
L 236.972449 54.709197 
L 237.622408 54.560643 
L 237.947387 54.658947 
L 238.272367 54.934475 
L 238.597346 54.955108 
L 238.922326 55.115401 
L 239.247305 54.895825 
L 239.897265 54.934667 
L 240.547224 55.443205 
L 241.197183 55.503729 
L 241.522162 55.285791 
L 242.172121 55.251205 
L 242.82208 55.038059 
L 243.14706 55.059093 
L 243.472039 55.450526 
L 243.797019 55.027323 
L 244.446978 54.727178 
L 245.096937 55.033721 
L 245.421916 54.962252 
L 245.746896 54.443385 
L 246.071876 54.15779 
L 246.396855 54.344246 
L 246.721835 54.179413 
L 247.371794 54.128209 
L 247.696773 54.278394 
L 248.021753 54.137777 
L 248.346732 54.336669 
L 248.671712 53.797939 
L 248.996691 54.084076 
L 249.64665 54.346268 
L 249.97163 54.604417 
L 250.296609 54.457643 
L 250.946568 53.944588 
L 251.271548 54.130344 
L 251.921507 54.162138 
L 252.246486 54.52455 
L 252.571466 54.634762 
L 252.896446 54.254031 
L 253.546405 54.034279 
L 254.846323 54.473719 
L 255.171302 54.654679 
L 255.821261 54.416922 
L 256.146241 54.515144 
L 256.47122 54.280922 
L 256.7962 54.545349 
L 257.121179 54.539172 
L 257.446159 54.718725 
L 258.096118 54.378638 
L 258.421097 54.315098 
L 258.746077 54.443156 
L 259.071057 54.088173 
L 259.396036 54.148261 
L 259.721016 53.999157 
L 260.045995 54.344524 
L 260.695954 54.500983 
L 261.020934 54.489125 
L 261.345913 54.849706 
L 262.970811 55.736551 
L 263.62077 55.655165 
L 264.270729 56.092454 
L 264.920688 56.355745 
L 265.570647 56.280994 
L 266.220606 56.60675 
L 267.195545 56.52434 
L 268.495463 56.72788 
L 268.820442 57.026065 
L 269.145422 56.799774 
L 269.795381 57.067714 
L 270.44534 56.757504 
L 270.770319 56.482148 
L 271.420278 56.74821 
L 272.070238 57.342791 
L 272.720197 57.052319 
L 273.045176 56.966872 
L 273.370156 57.076336 
L 273.695135 57.368775 
L 274.020115 57.073138 
L 274.345094 57.144357 
L 275.645012 56.30663 
L 275.969992 56.364065 
L 276.294971 56.131515 
L 276.94493 56.168387 
L 277.26991 56.353162 
L 277.594889 56.110048 
L 277.919869 56.274211 
L 278.244848 56.705081 
L 278.894808 56.92044 
L 279.219787 57.005458 
L 279.544767 57.226168 
L 280.194726 56.974768 
L 280.844685 57.156284 
L 281.169664 57.449233 
L 281.494644 57.290032 
L 281.819623 57.448279 
L 282.469582 58.214758 
L 282.794562 57.926507 
L 283.119541 58.199345 
L 283.7695 58.448407 
L 284.419459 58.963013 
L 284.744439 58.944575 
L 286.044357 59.868604 
L 286.369337 59.884155 
L 287.019296 59.49173 
L 287.344275 59.325948 
L 288.644193 59.42395 
L 289.619132 60.011905 
L 289.944111 60.058336 
L 290.269091 59.922792 
L 290.59407 60.028062 
L 290.91905 59.863623 
L 291.569009 60.054671 
L 291.893989 60.052174 
L 292.543948 59.492437 
L 292.868927 59.496029 
L 293.193907 59.256395 
L 293.843866 59.18925 
L 294.168845 59.287296 
L 295.468763 58.901882 
L 295.793743 58.998519 
L 296.118722 58.772052 
L 296.768681 59.031513 
L 297.093661 58.854883 
L 297.74362 59.669221 
L 298.0686 59.745964 
L 298.393579 59.652601 
L 299.693497 58.788008 
L 301.318395 59.218032 
L 301.643374 59.007255 
L 302.293333 59.086988 
L 302.618313 59.369843 
L 303.268272 59.452667 
L 303.593251 59.410952 
L 303.918231 59.854097 
L 304.24321 59.693635 
L 304.89317 59.68019 
L 305.218149 59.45913 
L 305.868108 59.542532 
L 306.518067 59.192717 
L 307.168026 59.206491 
L 307.817985 58.847591 
L 308.142965 58.851605 
L 308.792924 59.126162 
L 309.117903 59.150856 
L 310.092842 58.591058 
L 310.742801 58.761578 
L 312.042719 57.974402 
L 312.367699 57.949344 
L 313.017658 58.223607 
L 313.342637 58.07436 
L 313.667617 58.173462 
L 313.992596 58.145996 
L 314.317576 58.276812 
L 314.642555 58.154873 
L 315.292514 58.296418 
L 315.942473 58.572216 
L 316.267453 58.336005 
L 316.592432 58.433698 
L 316.917412 58.092227 
L 317.242391 57.99579 
L 317.567371 57.558829 
L 318.21733 57.776493 
L 318.54231 57.411925 
L 319.192269 57.489471 
L 319.517248 57.494581 
L 320.167207 57.089071 
L 320.492187 57.31263 
L 320.817166 57.327422 
L 321.142146 57.149327 
L 321.467125 57.313311 
L 322.767043 56.767113 
L 323.741982 57.098217 
L 324.066962 57.114996 
L 324.716921 57.402061 
L 325.36688 57.401717 
L 326.016839 57.672448 
L 326.341818 57.586386 
L 327.316757 57.777416 
L 327.641736 57.634726 
L 328.941654 58.327958 
L 329.266634 58.215978 
L 329.591613 57.972283 
L 329.916593 57.894639 
L 330.241572 57.648748 
L 330.566552 57.716646 
L 330.891532 57.552553 
L 331.541491 57.970979 
L 332.19145 58.311338 
L 333.166388 58.201394 
L 333.816347 57.80134 
L 334.141327 58.166969 
L 334.466306 58.212471 
L 335.116265 57.659299 
L 335.766224 57.771753 
L 336.091204 57.611542 
L 338.69104 58.029669 
L 339.01602 58.254041 
L 339.340999 58.05668 
L 339.665979 58.146499 
L 339.990958 58.057963 
L 340.640917 58.383078 
L 340.965897 58.328848 
L 341.290876 58.439255 
L 341.615856 58.307929 
L 341.940835 58.625711 
L 342.265815 58.671858 
L 342.915774 59.213179 
L 343.240753 59.347743 
L 343.890713 59.354622 
L 344.215692 59.508684 
L 344.865651 59.208478 
L 345.84059 59.513191 
L 346.165569 59.541361 
L 346.490549 59.445758 
L 347.140508 59.770192 
L 347.790467 59.585388 
L 348.115446 59.621593 
L 348.440426 59.82788 
L 348.765405 59.834416 
L 349.740344 59.30449 
L 350.715283 59.745931 
L 351.365242 59.759196 
L 352.015201 60.026259 
L 353.315119 60.491949 
L 354.615037 59.892941 
L 355.264996 60.375836 
L 355.589975 60.36876 
L 355.914955 60.101719 
L 356.564914 60.248709 
L 356.889894 60.390901 
L 357.214873 60.332004 
L 357.864832 60.00436 
L 358.514791 60.115673 
L 358.839771 60.04132 
L 359.16475 59.773865 
L 359.48973 59.759749 
L 359.814709 59.610536 
L 362.739525 60.67396 
L 363.064505 60.914511 
L 363.389484 60.865374 
L 363.714464 61.080734 
L 364.039443 60.958126 
L 364.689402 61.514921 
L 365.339361 61.613213 
L 365.98932 61.452986 
L 366.639279 61.490742 
L 366.964259 61.70457 
L 367.289238 61.684255 
L 367.939197 61.42151 
L 368.264177 61.67679 
L 368.589156 61.759782 
L 368.914136 62.074946 
L 369.239115 62.179045 
L 370.539034 61.819752 
L 371.188993 62.077377 
L 372.163931 61.944264 
L 372.488911 61.899363 
L 373.13887 61.51309 
L 373.463849 61.780365 
L 373.788829 61.824391 
L 374.113808 61.556139 
L 374.438788 61.453005 
L 374.763767 61.486296 
L 375.088747 61.346051 
L 375.413726 61.556155 
L 376.063686 61.500785 
L 376.388665 61.099536 
L 377.038624 60.988581 
L 378.013563 61.256385 
L 378.338542 61.265536 
L 378.663522 61.079674 
L 380.613399 60.824185 
L 381.263358 60.458998 
L 381.588337 60.428035 
L 382.238296 60.506537 
L 382.888256 60.421568 
L 383.863194 60.211174 
L 384.513153 60.419879 
L 385.813071 60.846699 
L 387.762948 61.126447 
L 388.087928 60.865937 
L 388.412907 60.805728 
L 390.362785 61.669073 
L 390.687764 61.691752 
L 391.662703 62.075214 
L 392.962621 62.342297 
L 396.212416 61.264825 
L 396.862375 60.96405 
L 398.487273 59.501466 
L 398.487273 59.501466 
" clip-path="url(#pef362e69ad)" style="fill: none; stroke-dasharray: 2,3.3; stroke-dashoffset: 0; stroke: #ffa500; stroke-width: 2"/>
   </g>
   <g id="patch_3">
    <path d="M 57.6 307.584 
L 57.6 41.472 
" style="fill: none; stroke: #000000; stroke-width: 0.8; stroke-linejoin: miter; stroke-linecap: square"/>
   </g>
   <g id="patch_4">
    <path d="M 414.72 307.584 
L 414.72 41.472 
" style="fill: none; stroke: #000000; stroke-width: 0.8; stroke-linejoin: miter; stroke-linecap: square"/>
   </g>
   <g id="patch_5">
    <path d="M 57.6 307.584 
L 414.72 307.584 
" style="fill: none; stroke: #000000; stroke-width: 0.8; stroke-linejoin: miter; stroke-linecap: square"/>
   </g>
   <g id="patch_6">
    <path d="M 57.6 41.472 
L 414.72 41.472 
" style="fill: none; stroke: #000000; stroke-width: 0.8; stroke-linejoin: miter; stroke-linecap: square"/>
   </g>
   <g id="text_14">
    <!-- Waiting Time Plot -->
    <g transform="translate(183.833438 8.2635)scale(0.12 -0.12)">
     <defs>
      <path id="DejaVuSans-50" d="M 1259 4147 
L 1259 2394 
L 2053 2394 
Q 2494 2394 2734 2622 
Q 2975 2850 2975 3272 
Q 2975 3691 2734 3919 
Q 2494 4147 2053 4147 
L 1259 4147 
z
M 628 4666 
L 2053 4666 
Q 2838 4666 3239 4311 
Q 3641 3956 3641 3272 
Q 3641 2581 3239 2228 
Q 2838 1875 2053 1875 
L 1259 1875 
L 1259 0 
L 628 0 
L 628 4666 
z
" transform="scale(0.015625)"/>
      <path id="DejaVuSans-6c" d="M 603 4863 
L 1178 4863 
L 1178 0 
L 603 0 
L 603 4863 
z
" transform="scale(0.015625)"/>
     </defs>
     <use xlink:href="#DejaVuSans-57"/>
     <use xlink:href="#DejaVuSans-61" x="92.501953"/>
     <use xlink:href="#DejaVuSans-69" x="153.78125"/>
     <use xlink:href="#DejaVuSans-74" x="181.564453"/>
     <use xlink:href="#DejaVuSans-69" x="220.773438"/>
     <use xlink:href="#DejaVuSans-6e" x="248.556641"/>
     <use xlink:href="#DejaVuSans-67" x="311.935547"/>
     <use xlink:href="#DejaVuSans-20" x="375.412109"/>
     <use xlink:href="#DejaVuSans-54" x="407.199219"/>
     <use xlink:href="#DejaVuSans-69" x="465.158203"/>
     <use xlink:href="#DejaVuSans-6d" x="492.941406"/>
     <use xlink:href="#DejaVuSans-65" x="590.353516"/>
     <use xlink:href="#DejaVuSans-20" x="651.876953"/>
     <use xlink:href="#DejaVuSans-50" x="683.664062"/>
     <use xlink:href="#DejaVuSans-6c" x="743.966797"/>
     <use xlink:href="#DejaVuSans-6f" x="771.75"/>
     <use xlink:href="#DejaVuSans-74" x="832.931641"/>
    </g>
    <!--  avg_d = 3006.447529648781  -->
    <g transform="translate(142.671562 21.700875)scale(0.12 -0.12)">
     <defs>
      <path id="DejaVuSans-76" d="M 191 3500 
L 800 3500 
L 1894 563 
L 2988 3500 
L 3597 3500 
L 2284 0 
L 1503 0 
L 191 3500 
z
" transform="scale(0.015625)"/>
      <path id="DejaVuSans-5f" d="M 3263 -1063 
L 3263 -1509 
L -63 -1509 
L -63 -1063 
L 3263 -1063 
z
" transform="scale(0.015625)"/>
      <path id="DejaVuSans-3d" d="M 678 2906 
L 4684 2906 
L 4684 2381 
L 678 2381 
L 678 2906 
z
M 678 1631 
L 4684 1631 
L 4684 1100 
L 678 1100 
L 678 1631 
z
" transform="scale(0.015625)"/>
      <path id="DejaVuSans-2e" d="M 684 794 
L 1344 794 
L 1344 0 
L 684 0 
L 684 794 
z
" transform="scale(0.015625)"/>
      <path id="DejaVuSans-37" d="M 525 4666 
L 3525 4666 
L 3525 4397 
L 1831 0 
L 1172 0 
L 2766 4134 
L 525 4134 
L 525 4666 
z
" transform="scale(0.015625)"/>
      <path id="DejaVuSans-39" d="M 703 97 
L 703 672 
Q 941 559 1184 500 
Q 1428 441 1663 441 
Q 2288 441 2617 861 
Q 2947 1281 2994 2138 
Q 2813 1869 2534 1725 
Q 2256 1581 1919 1581 
Q 1219 1581 811 2004 
Q 403 2428 403 3163 
Q 403 3881 828 4315 
Q 1253 4750 1959 4750 
Q 2769 4750 3195 4129 
Q 3622 3509 3622 2328 
Q 3622 1225 3098 567 
Q 2575 -91 1691 -91 
Q 1453 -91 1209 -44 
Q 966 3 703 97 
z
M 1959 2075 
Q 2384 2075 2632 2365 
Q 2881 2656 2881 3163 
Q 2881 3666 2632 3958 
Q 2384 4250 1959 4250 
Q 1534 4250 1286 3958 
Q 1038 3666 1038 3163 
Q 1038 2656 1286 2365 
Q 1534 2075 1959 2075 
z
" transform="scale(0.015625)"/>
     </defs>
     <use xlink:href="#DejaVuSans-20"/>
     <use xlink:href="#DejaVuSans-61" x="31.787109"/>
     <use xlink:href="#DejaVuSans-76" x="93.066406"/>
     <use xlink:href="#DejaVuSans-67" x="152.246094"/>
     <use xlink:href="#DejaVuSans-5f" x="215.722656"/>
     <use xlink:href="#DejaVuSans-64" x="265.722656"/>
     <use xlink:href="#DejaVuSans-20" x="329.199219"/>
     <use xlink:href="#DejaVuSans-3d" x="360.986328"/>
     <use xlink:href="#DejaVuSans-20" x="444.775391"/>
     <use xlink:href="#DejaVuSans-33" x="476.5625"/>
     <use xlink:href="#DejaVuSans-30" x="540.185547"/>
     <use xlink:href="#DejaVuSans-30" x="603.808594"/>
     <use xlink:href="#DejaVuSans-36" x="667.431641"/>
     <use xlink:href="#DejaVuSans-2e" x="731.054688"/>
     <use xlink:href="#DejaVuSans-34" x="762.841797"/>
     <use xlink:href="#DejaVuSans-34" x="826.464844"/>
     <use xlink:href="#DejaVuSans-37" x="890.087891"/>
     <use xlink:href="#DejaVuSans-35" x="953.710938"/>
     <use xlink:href="#DejaVuSans-32" x="1017.333984"/>
     <use xlink:href="#DejaVuSans-39" x="1080.957031"/>
     <use xlink:href="#DejaVuSans-36" x="1144.580078"/>
     <use xlink:href="#DejaVuSans-34" x="1208.203125"/>
     <use xlink:href="#DejaVuSans-38" x="1271.826172"/>
     <use xlink:href="#DejaVuSans-37" x="1335.449219"/>
     <use xlink:href="#DejaVuSans-38" x="1399.072266"/>
     <use xlink:href="#DejaVuSans-31" x="1462.695312"/>
     <use xlink:href="#DejaVuSans-20" x="1526.318359"/>
    </g>
    <!--  avg_a = 3067.801900841435diff = -61.35437119265407 -->
    <g transform="translate(61.017188 35.472)scale(0.12 -0.12)">
     <defs>
      <path id="DejaVuSans-2d" d="M 313 2009 
L 1997 2009 
L 1997 1497 
L 313 1497 
L 313 2009 
z
" transform="scale(0.015625)"/>
     </defs>
     <use xlink:href="#DejaVuSans-20"/>
     <use xlink:href="#DejaVuSans-61" x="31.787109"/>
     <use xlink:href="#DejaVuSans-76" x="93.066406"/>
     <use xlink:href="#DejaVuSans-67" x="152.246094"/>
     <use xlink:href="#DejaVuSans-5f" x="215.722656"/>
     <use xlink:href="#DejaVuSans-61" x="265.722656"/>
     <use xlink:href="#DejaVuSans-20" x="327.001953"/>
     <use xlink:href="#DejaVuSans-3d" x="358.789062"/>
     <use xlink:href="#DejaVuSans-20" x="442.578125"/>
     <use xlink:href="#DejaVuSans-33" x="474.365234"/>
     <use xlink:href="#DejaVuSans-30" x="537.988281"/>
     <use xlink:href="#DejaVuSans-36" x="601.611328"/>
     <use xlink:href="#DejaVuSans-37" x="665.234375"/>
     <use xlink:href="#DejaVuSans-2e" x="728.857422"/>
     <use xlink:href="#DejaVuSans-38" x="760.644531"/>
     <use xlink:href="#DejaVuSans-30" x="824.267578"/>
     <use xlink:href="#DejaVuSans-31" x="887.890625"/>
     <use xlink:href="#DejaVuSans-39" x="951.513672"/>
     <use xlink:href="#DejaVuSans-30" x="1015.136719"/>
     <use xlink:href="#DejaVuSans-30" x="1078.759766"/>
     <use xlink:href="#DejaVuSans-38" x="1142.382812"/>
     <use xlink:href="#DejaVuSans-34" x="1206.005859"/>
     <use xlink:href="#DejaVuSans-31" x="1269.628906"/>
     <use xlink:href="#DejaVuSans-34" x="1333.251953"/>
     <use xlink:href="#DejaVuSans-33" x="1396.875"/>
     <use xlink:href="#DejaVuSans-35" x="1460.498047"/>
     <use xlink:href="#DejaVuSans-64" x="1524.121094"/>
     <use xlink:href="#DejaVuSans-69" x="1587.597656"/>
     <use xlink:href="#DejaVuSans-66" x="1615.380859"/>
     <use xlink:href="#DejaVuSans-66" x="1650.585938"/>
     <use xlink:href="#DejaVuSans-20" x="1685.791016"/>
     <use xlink:href="#DejaVuSans-3d" x="1717.578125"/>
     <use xlink:href="#DejaVuSans-20" x="1801.367188"/>
     <use xlink:href="#DejaVuSans-2d" x="1833.154297"/>
     <use xlink:href="#DejaVuSans-36" x="1869.238281"/>
     <use xlink:href="#DejaVuSans-31" x="1932.861328"/>
     <use xlink:href="#DejaVuSans-2e" x="1996.484375"/>
     <use xlink:href="#DejaVuSans-33" x="2028.271484"/>
     <use xlink:href="#DejaVuSans-35" x="2091.894531"/>
     <use xlink:href="#DejaVuSans-34" x="2155.517578"/>
     <use xlink:href="#DejaVuSans-33" x="2219.140625"/>
     <use xlink:href="#DejaVuSans-37" x="2282.763672"/>
     <use xlink:href="#DejaVuSans-31" x="2346.386719"/>
     <use xlink:href="#DejaVuSans-31" x="2410.009766"/>
     <use xlink:href="#DejaVuSans-39" x="2473.632812"/>
     <use xlink:href="#DejaVuSans-32" x="2537.255859"/>
     <use xlink:href="#DejaVuSans-36" x="2600.878906"/>
     <use xlink:href="#DejaVuSans-35" x="2664.501953"/>
     <use xlink:href="#DejaVuSans-34" x="2728.125"/>
     <use xlink:href="#DejaVuSans-30" x="2791.748047"/>
     <use xlink:href="#DejaVuSans-37" x="2855.371094"/>
    </g>
   </g>
   <g id="legend_1">
    <g id="patch_7">
     <path d="M 263.88875 302.584 
L 407.72 302.584 
Q 409.72 302.584 409.72 300.584 
L 409.72 272.22775 
Q 409.72 270.22775 407.72 270.22775 
L 263.88875 270.22775 
Q 261.88875 270.22775 261.88875 272.22775 
L 261.88875 300.584 
Q 261.88875 302.584 263.88875 302.584 
z
" style="fill: #ffffff; opacity: 0.8; stroke: #cccccc; stroke-linejoin: miter"/>
    </g>
    <g id="line2d_14">
     <path d="M 265.88875 278.326187 
L 275.88875 278.326187 
L 285.88875 278.326187 
" style="fill: none; stroke-dasharray: 2,3.3; stroke-dashoffset: 0; stroke: #0000ff; stroke-width: 2"/>
    </g>
    <g id="text_15">
     <!-- Average (Default) -->
     <g transform="translate(293.88875 281.826187)scale(0.1 -0.1)">
      <defs>
       <path id="DejaVuSans-41" d="M 2188 4044 
L 1331 1722 
L 3047 1722 
L 2188 4044 
z
M 1831 4666 
L 2547 4666 
L 4325 0 
L 3669 0 
L 3244 1197 
L 1141 1197 
L 716 0 
L 50 0 
L 1831 4666 
z
" transform="scale(0.015625)"/>
       <path id="DejaVuSans-28" d="M 1984 4856 
Q 1566 4138 1362 3434 
Q 1159 2731 1159 2009 
Q 1159 1288 1364 580 
Q 1569 -128 1984 -844 
L 1484 -844 
Q 1016 -109 783 600 
Q 550 1309 550 2009 
Q 550 2706 781 3412 
Q 1013 4119 1484 4856 
L 1984 4856 
z
" transform="scale(0.015625)"/>
       <path id="DejaVuSans-44" d="M 1259 4147 
L 1259 519 
L 2022 519 
Q 2988 519 3436 956 
Q 3884 1394 3884 2338 
Q 3884 3275 3436 3711 
Q 2988 4147 2022 4147 
L 1259 4147 
z
M 628 4666 
L 1925 4666 
Q 3281 4666 3915 4102 
Q 4550 3538 4550 2338 
Q 4550 1131 3912 565 
Q 3275 0 1925 0 
L 628 0 
L 628 4666 
z
" transform="scale(0.015625)"/>
       <path id="DejaVuSans-29" d="M 513 4856 
L 1013 4856 
Q 1481 4119 1714 3412 
Q 1947 2706 1947 2009 
Q 1947 1309 1714 600 
Q 1481 -109 1013 -844 
L 513 -844 
Q 928 -128 1133 580 
Q 1338 1288 1338 2009 
Q 1338 2731 1133 3434 
Q 928 4138 513 4856 
z
" transform="scale(0.015625)"/>
      </defs>
      <use xlink:href="#DejaVuSans-41"/>
      <use xlink:href="#DejaVuSans-76" x="62.533203"/>
      <use xlink:href="#DejaVuSans-65" x="121.712891"/>
      <use xlink:href="#DejaVuSans-72" x="183.236328"/>
      <use xlink:href="#DejaVuSans-61" x="224.349609"/>
      <use xlink:href="#DejaVuSans-67" x="285.628906"/>
      <use xlink:href="#DejaVuSans-65" x="349.105469"/>
      <use xlink:href="#DejaVuSans-20" x="410.628906"/>
      <use xlink:href="#DejaVuSans-28" x="442.416016"/>
      <use xlink:href="#DejaVuSans-44" x="481.429688"/>
      <use xlink:href="#DejaVuSans-65" x="558.431641"/>
      <use xlink:href="#DejaVuSans-66" x="619.955078"/>
      <use xlink:href="#DejaVuSans-61" x="655.160156"/>
      <use xlink:href="#DejaVuSans-75" x="716.439453"/>
      <use xlink:href="#DejaVuSans-6c" x="779.818359"/>
      <use xlink:href="#DejaVuSans-74" x="807.601562"/>
      <use xlink:href="#DejaVuSans-29" x="846.810547"/>
     </g>
    </g>
    <g id="line2d_15">
     <path d="M 265.88875 293.004312 
L 275.88875 293.004312 
L 285.88875 293.004312 
" style="fill: none; stroke-dasharray: 2,3.3; stroke-dashoffset: 0; stroke: #ffa500; stroke-width: 2"/>
    </g>
    <g id="text_16">
     <!-- Average (Anticipation) -->
     <g transform="translate(293.88875 296.504312)scale(0.1 -0.1)">
      <defs>
       <path id="DejaVuSans-63" d="M 3122 3366 
L 3122 2828 
Q 2878 2963 2633 3030 
Q 2388 3097 2138 3097 
Q 1578 3097 1268 2742 
Q 959 2388 959 1747 
Q 959 1106 1268 751 
Q 1578 397 2138 397 
Q 2388 397 2633 464 
Q 2878 531 3122 666 
L 3122 134 
Q 2881 22 2623 -34 
Q 2366 -91 2075 -91 
Q 1284 -91 818 406 
Q 353 903 353 1747 
Q 353 2603 823 3093 
Q 1294 3584 2113 3584 
Q 2378 3584 2631 3529 
Q 2884 3475 3122 3366 
z
" transform="scale(0.015625)"/>
       <path id="DejaVuSans-70" d="M 1159 525 
L 1159 -1331 
L 581 -1331 
L 581 3500 
L 1159 3500 
L 1159 2969 
Q 1341 3281 1617 3432 
Q 1894 3584 2278 3584 
Q 2916 3584 3314 3078 
Q 3713 2572 3713 1747 
Q 3713 922 3314 415 
Q 2916 -91 2278 -91 
Q 1894 -91 1617 61 
Q 1341 213 1159 525 
z
M 3116 1747 
Q 3116 2381 2855 2742 
Q 2594 3103 2138 3103 
Q 1681 3103 1420 2742 
Q 1159 2381 1159 1747 
Q 1159 1113 1420 752 
Q 1681 391 2138 391 
Q 2594 391 2855 752 
Q 3116 1113 3116 1747 
z
" transform="scale(0.015625)"/>
      </defs>
      <use xlink:href="#DejaVuSans-41"/>
      <use xlink:href="#DejaVuSans-76" x="62.533203"/>
      <use xlink:href="#DejaVuSans-65" x="121.712891"/>
      <use xlink:href="#DejaVuSans-72" x="183.236328"/>
      <use xlink:href="#DejaVuSans-61" x="224.349609"/>
      <use xlink:href="#DejaVuSans-67" x="285.628906"/>
      <use xlink:href="#DejaVuSans-65" x="349.105469"/>
      <use xlink:href="#DejaVuSans-20" x="410.628906"/>
      <use xlink:href="#DejaVuSans-28" x="442.416016"/>
      <use xlink:href="#DejaVuSans-41" x="481.429688"/>
      <use xlink:href="#DejaVuSans-6e" x="549.837891"/>
      <use xlink:href="#DejaVuSans-74" x="613.216797"/>
      <use xlink:href="#DejaVuSans-69" x="652.425781"/>
      <use xlink:href="#DejaVuSans-63" x="680.208984"/>
      <use xlink:href="#DejaVuSans-69" x="735.189453"/>
      <use xlink:href="#DejaVuSans-70" x="762.972656"/>
      <use xlink:href="#DejaVuSans-61" x="826.449219"/>
      <use xlink:href="#DejaVuSans-74" x="887.728516"/>
      <use xlink:href="#DejaVuSans-69" x="926.9375"/>
      <use xlink:href="#DejaVuSans-6f" x="954.720703"/>
      <use xlink:href="#DejaVuSans-6e" x="1015.902344"/>
      <use xlink:href="#DejaVuSans-29" x="1079.28125"/>
     </g>
    </g>
   </g>
  </g>
 </g>
 <defs>
  <clipPath id="pef362e69ad">
   <rect x="57.6" y="41.472" width="357.12" height="266.112"/>
  </clipPath>
 </defs>
</svg>
