<?xml version="1.0" encoding="utf-8" standalone="no"?>
<!DOCTYPE svg PUBLIC "-//W3C//DTD SVG 1.1//EN"
  "http://www.w3.org/Graphics/SVG/1.1/DTD/svg11.dtd">
<svg xmlns:xlink="http://www.w3.org/1999/xlink" width="460.8pt" height="345.6pt" viewBox="0 0 460.8 345.6" xmlns="http://www.w3.org/2000/svg" version="1.1">
 <metadata>
  <rdf:RDF xmlns:dc="http://purl.org/dc/elements/1.1/" xmlns:cc="http://creativecommons.org/ns#" xmlns:rdf="http://www.w3.org/1999/02/22-rdf-syntax-ns#">
   <cc:Work>
    <dc:type rdf:resource="http://purl.org/dc/dcmitype/StillImage"/>
    <dc:date>2022-10-04T12:41:19.903431</dc:date>
    <dc:format>image/svg+xml</dc:format>
    <dc:creator>
     <cc:Agent>
      <dc:title>Matplotlib v3.5.3, https://matplotlib.org/</dc:title>
     </cc:Agent>
    </dc:creator>
   </cc:Work>
  </rdf:RDF>
 </metadata>
 <defs>
  <style type="text/css">*{stroke-linejoin: round; stroke-linecap: butt}</style>
 </defs>
 <g id="figure_1">
  <g id="patch_1">
   <path d="M 0 345.6 
L 460.8 345.6 
L 460.8 0 
L 0 0 
z
" style="fill: #ffffff"/>
  </g>
  <g id="axes_1">
   <g id="patch_2">
    <path d="M 57.6 307.584 
L 414.72 307.584 
L 414.72 41.472 
L 57.6 41.472 
z
" style="fill: #ffffff"/>
   </g>
   <g id="matplotlib.axis_1">
    <g id="xtick_1">
     <g id="line2d_1">
      <defs>
       <path id="m4a87a8255e" d="M 0 0 
L 0 3.5 
" style="stroke: #000000; stroke-width: 0.8"/>
      </defs>
      <g>
       <use xlink:href="#m4a87a8255e" x="73.832727" y="307.584" style="stroke: #000000; stroke-width: 0.8"/>
      </g>
     </g>
     <g id="text_1">
      <!-- 0 -->
      <g transform="translate(70.651477 322.182437)scale(0.1 -0.1)">
       <defs>
        <path id="DejaVuSans-30" d="M 2034 4250 
Q 1547 4250 1301 3770 
Q 1056 3291 1056 2328 
Q 1056 1369 1301 889 
Q 1547 409 2034 409 
Q 2525 409 2770 889 
Q 3016 1369 3016 2328 
Q 3016 3291 2770 3770 
Q 2525 4250 2034 4250 
z
M 2034 4750 
Q 2819 4750 3233 4129 
Q 3647 3509 3647 2328 
Q 3647 1150 3233 529 
Q 2819 -91 2034 -91 
Q 1250 -91 836 529 
Q 422 1150 422 2328 
Q 422 3509 836 4129 
Q 1250 4750 2034 4750 
z
" transform="scale(0.015625)"/>
       </defs>
       <use xlink:href="#DejaVuSans-30"/>
      </g>
     </g>
    </g>
    <g id="xtick_2">
     <g id="line2d_2">
      <g>
       <use xlink:href="#m4a87a8255e" x="138.828632" y="307.584" style="stroke: #000000; stroke-width: 0.8"/>
      </g>
     </g>
     <g id="text_2">
      <!-- 200 -->
      <g transform="translate(129.284882 322.182437)scale(0.1 -0.1)">
       <defs>
        <path id="DejaVuSans-32" d="M 1228 531 
L 3431 531 
L 3431 0 
L 469 0 
L 469 531 
Q 828 903 1448 1529 
Q 2069 2156 2228 2338 
Q 2531 2678 2651 2914 
Q 2772 3150 2772 3378 
Q 2772 3750 2511 3984 
Q 2250 4219 1831 4219 
Q 1534 4219 1204 4116 
Q 875 4013 500 3803 
L 500 4441 
Q 881 4594 1212 4672 
Q 1544 4750 1819 4750 
Q 2544 4750 2975 4387 
Q 3406 4025 3406 3419 
Q 3406 3131 3298 2873 
Q 3191 2616 2906 2266 
Q 2828 2175 2409 1742 
Q 1991 1309 1228 531 
z
" transform="scale(0.015625)"/>
       </defs>
       <use xlink:href="#DejaVuSans-32"/>
       <use xlink:href="#DejaVuSans-30" x="63.623047"/>
       <use xlink:href="#DejaVuSans-30" x="127.246094"/>
      </g>
     </g>
    </g>
    <g id="xtick_3">
     <g id="line2d_3">
      <g>
       <use xlink:href="#m4a87a8255e" x="203.824537" y="307.584" style="stroke: #000000; stroke-width: 0.8"/>
      </g>
     </g>
     <g id="text_3">
      <!-- 400 -->
      <g transform="translate(194.280787 322.182437)scale(0.1 -0.1)">
       <defs>
        <path id="DejaVuSans-34" d="M 2419 4116 
L 825 1625 
L 2419 1625 
L 2419 4116 
z
M 2253 4666 
L 3047 4666 
L 3047 1625 
L 3713 1625 
L 3713 1100 
L 3047 1100 
L 3047 0 
L 2419 0 
L 2419 1100 
L 313 1100 
L 313 1709 
L 2253 4666 
z
" transform="scale(0.015625)"/>
       </defs>
       <use xlink:href="#DejaVuSans-34"/>
       <use xlink:href="#DejaVuSans-30" x="63.623047"/>
       <use xlink:href="#DejaVuSans-30" x="127.246094"/>
      </g>
     </g>
    </g>
    <g id="xtick_4">
     <g id="line2d_4">
      <g>
       <use xlink:href="#m4a87a8255e" x="268.820442" y="307.584" style="stroke: #000000; stroke-width: 0.8"/>
      </g>
     </g>
     <g id="text_4">
      <!-- 600 -->
      <g transform="translate(259.276692 322.182437)scale(0.1 -0.1)">
       <defs>
        <path id="DejaVuSans-36" d="M 2113 2584 
Q 1688 2584 1439 2293 
Q 1191 2003 1191 1497 
Q 1191 994 1439 701 
Q 1688 409 2113 409 
Q 2538 409 2786 701 
Q 3034 994 3034 1497 
Q 3034 2003 2786 2293 
Q 2538 2584 2113 2584 
z
M 3366 4563 
L 3366 3988 
Q 3128 4100 2886 4159 
Q 2644 4219 2406 4219 
Q 1781 4219 1451 3797 
Q 1122 3375 1075 2522 
Q 1259 2794 1537 2939 
Q 1816 3084 2150 3084 
Q 2853 3084 3261 2657 
Q 3669 2231 3669 1497 
Q 3669 778 3244 343 
Q 2819 -91 2113 -91 
Q 1303 -91 875 529 
Q 447 1150 447 2328 
Q 447 3434 972 4092 
Q 1497 4750 2381 4750 
Q 2619 4750 2861 4703 
Q 3103 4656 3366 4563 
z
" transform="scale(0.015625)"/>
       </defs>
       <use xlink:href="#DejaVuSans-36"/>
       <use xlink:href="#DejaVuSans-30" x="63.623047"/>
       <use xlink:href="#DejaVuSans-30" x="127.246094"/>
      </g>
     </g>
    </g>
    <g id="xtick_5">
     <g id="line2d_5">
      <g>
       <use xlink:href="#m4a87a8255e" x="333.816347" y="307.584" style="stroke: #000000; stroke-width: 0.8"/>
      </g>
     </g>
     <g id="text_5">
      <!-- 800 -->
      <g transform="translate(324.272597 322.182437)scale(0.1 -0.1)">
       <defs>
        <path id="DejaVuSans-38" d="M 2034 2216 
Q 1584 2216 1326 1975 
Q 1069 1734 1069 1313 
Q 1069 891 1326 650 
Q 1584 409 2034 409 
Q 2484 409 2743 651 
Q 3003 894 3003 1313 
Q 3003 1734 2745 1975 
Q 2488 2216 2034 2216 
z
M 1403 2484 
Q 997 2584 770 2862 
Q 544 3141 544 3541 
Q 544 4100 942 4425 
Q 1341 4750 2034 4750 
Q 2731 4750 3128 4425 
Q 3525 4100 3525 3541 
Q 3525 3141 3298 2862 
Q 3072 2584 2669 2484 
Q 3125 2378 3379 2068 
Q 3634 1759 3634 1313 
Q 3634 634 3220 271 
Q 2806 -91 2034 -91 
Q 1263 -91 848 271 
Q 434 634 434 1313 
Q 434 1759 690 2068 
Q 947 2378 1403 2484 
z
M 1172 3481 
Q 1172 3119 1398 2916 
Q 1625 2713 2034 2713 
Q 2441 2713 2670 2916 
Q 2900 3119 2900 3481 
Q 2900 3844 2670 4047 
Q 2441 4250 2034 4250 
Q 1625 4250 1398 4047 
Q 1172 3844 1172 3481 
z
" transform="scale(0.015625)"/>
       </defs>
       <use xlink:href="#DejaVuSans-38"/>
       <use xlink:href="#DejaVuSans-30" x="63.623047"/>
       <use xlink:href="#DejaVuSans-30" x="127.246094"/>
      </g>
     </g>
    </g>
    <g id="xtick_6">
     <g id="line2d_6">
      <g>
       <use xlink:href="#m4a87a8255e" x="398.812252" y="307.584" style="stroke: #000000; stroke-width: 0.8"/>
      </g>
     </g>
     <g id="text_6">
      <!-- 1000 -->
      <g transform="translate(386.087252 322.182437)scale(0.1 -0.1)">
       <defs>
        <path id="DejaVuSans-31" d="M 794 531 
L 1825 531 
L 1825 4091 
L 703 3866 
L 703 4441 
L 1819 4666 
L 2450 4666 
L 2450 531 
L 3481 531 
L 3481 0 
L 794 0 
L 794 531 
z
" transform="scale(0.015625)"/>
       </defs>
       <use xlink:href="#DejaVuSans-31"/>
       <use xlink:href="#DejaVuSans-30" x="63.623047"/>
       <use xlink:href="#DejaVuSans-30" x="127.246094"/>
       <use xlink:href="#DejaVuSans-30" x="190.869141"/>
      </g>
     </g>
    </g>
    <g id="text_7">
     <!-- Number of Orders -->
     <g transform="translate(191.261562 335.860562)scale(0.1 -0.1)">
      <defs>
       <path id="DejaVuSans-4e" d="M 628 4666 
L 1478 4666 
L 3547 763 
L 3547 4666 
L 4159 4666 
L 4159 0 
L 3309 0 
L 1241 3903 
L 1241 0 
L 628 0 
L 628 4666 
z
" transform="scale(0.015625)"/>
       <path id="DejaVuSans-75" d="M 544 1381 
L 544 3500 
L 1119 3500 
L 1119 1403 
Q 1119 906 1312 657 
Q 1506 409 1894 409 
Q 2359 409 2629 706 
Q 2900 1003 2900 1516 
L 2900 3500 
L 3475 3500 
L 3475 0 
L 2900 0 
L 2900 538 
Q 2691 219 2414 64 
Q 2138 -91 1772 -91 
Q 1169 -91 856 284 
Q 544 659 544 1381 
z
M 1991 3584 
L 1991 3584 
z
" transform="scale(0.015625)"/>
       <path id="DejaVuSans-6d" d="M 3328 2828 
Q 3544 3216 3844 3400 
Q 4144 3584 4550 3584 
Q 5097 3584 5394 3201 
Q 5691 2819 5691 2113 
L 5691 0 
L 5113 0 
L 5113 2094 
Q 5113 2597 4934 2840 
Q 4756 3084 4391 3084 
Q 3944 3084 3684 2787 
Q 3425 2491 3425 1978 
L 3425 0 
L 2847 0 
L 2847 2094 
Q 2847 2600 2669 2842 
Q 2491 3084 2119 3084 
Q 1678 3084 1418 2786 
Q 1159 2488 1159 1978 
L 1159 0 
L 581 0 
L 581 3500 
L 1159 3500 
L 1159 2956 
Q 1356 3278 1631 3431 
Q 1906 3584 2284 3584 
Q 2666 3584 2933 3390 
Q 3200 3197 3328 2828 
z
" transform="scale(0.015625)"/>
       <path id="DejaVuSans-62" d="M 3116 1747 
Q 3116 2381 2855 2742 
Q 2594 3103 2138 3103 
Q 1681 3103 1420 2742 
Q 1159 2381 1159 1747 
Q 1159 1113 1420 752 
Q 1681 391 2138 391 
Q 2594 391 2855 752 
Q 3116 1113 3116 1747 
z
M 1159 2969 
Q 1341 3281 1617 3432 
Q 1894 3584 2278 3584 
Q 2916 3584 3314 3078 
Q 3713 2572 3713 1747 
Q 3713 922 3314 415 
Q 2916 -91 2278 -91 
Q 1894 -91 1617 61 
Q 1341 213 1159 525 
L 1159 0 
L 581 0 
L 581 4863 
L 1159 4863 
L 1159 2969 
z
" transform="scale(0.015625)"/>
       <path id="DejaVuSans-65" d="M 3597 1894 
L 3597 1613 
L 953 1613 
Q 991 1019 1311 708 
Q 1631 397 2203 397 
Q 2534 397 2845 478 
Q 3156 559 3463 722 
L 3463 178 
Q 3153 47 2828 -22 
Q 2503 -91 2169 -91 
Q 1331 -91 842 396 
Q 353 884 353 1716 
Q 353 2575 817 3079 
Q 1281 3584 2069 3584 
Q 2775 3584 3186 3129 
Q 3597 2675 3597 1894 
z
M 3022 2063 
Q 3016 2534 2758 2815 
Q 2500 3097 2075 3097 
Q 1594 3097 1305 2825 
Q 1016 2553 972 2059 
L 3022 2063 
z
" transform="scale(0.015625)"/>
       <path id="DejaVuSans-72" d="M 2631 2963 
Q 2534 3019 2420 3045 
Q 2306 3072 2169 3072 
Q 1681 3072 1420 2755 
Q 1159 2438 1159 1844 
L 1159 0 
L 581 0 
L 581 3500 
L 1159 3500 
L 1159 2956 
Q 1341 3275 1631 3429 
Q 1922 3584 2338 3584 
Q 2397 3584 2469 3576 
Q 2541 3569 2628 3553 
L 2631 2963 
z
" transform="scale(0.015625)"/>
       <path id="DejaVuSans-20" transform="scale(0.015625)"/>
       <path id="DejaVuSans-6f" d="M 1959 3097 
Q 1497 3097 1228 2736 
Q 959 2375 959 1747 
Q 959 1119 1226 758 
Q 1494 397 1959 397 
Q 2419 397 2687 759 
Q 2956 1122 2956 1747 
Q 2956 2369 2687 2733 
Q 2419 3097 1959 3097 
z
M 1959 3584 
Q 2709 3584 3137 3096 
Q 3566 2609 3566 1747 
Q 3566 888 3137 398 
Q 2709 -91 1959 -91 
Q 1206 -91 779 398 
Q 353 888 353 1747 
Q 353 2609 779 3096 
Q 1206 3584 1959 3584 
z
" transform="scale(0.015625)"/>
       <path id="DejaVuSans-66" d="M 2375 4863 
L 2375 4384 
L 1825 4384 
Q 1516 4384 1395 4259 
Q 1275 4134 1275 3809 
L 1275 3500 
L 2222 3500 
L 2222 3053 
L 1275 3053 
L 1275 0 
L 697 0 
L 697 3053 
L 147 3053 
L 147 3500 
L 697 3500 
L 697 3744 
Q 697 4328 969 4595 
Q 1241 4863 1831 4863 
L 2375 4863 
z
" transform="scale(0.015625)"/>
       <path id="DejaVuSans-4f" d="M 2522 4238 
Q 1834 4238 1429 3725 
Q 1025 3213 1025 2328 
Q 1025 1447 1429 934 
Q 1834 422 2522 422 
Q 3209 422 3611 934 
Q 4013 1447 4013 2328 
Q 4013 3213 3611 3725 
Q 3209 4238 2522 4238 
z
M 2522 4750 
Q 3503 4750 4090 4092 
Q 4678 3434 4678 2328 
Q 4678 1225 4090 567 
Q 3503 -91 2522 -91 
Q 1538 -91 948 565 
Q 359 1222 359 2328 
Q 359 3434 948 4092 
Q 1538 4750 2522 4750 
z
" transform="scale(0.015625)"/>
       <path id="DejaVuSans-64" d="M 2906 2969 
L 2906 4863 
L 3481 4863 
L 3481 0 
L 2906 0 
L 2906 525 
Q 2725 213 2448 61 
Q 2172 -91 1784 -91 
Q 1150 -91 751 415 
Q 353 922 353 1747 
Q 353 2572 751 3078 
Q 1150 3584 1784 3584 
Q 2172 3584 2448 3432 
Q 2725 3281 2906 2969 
z
M 947 1747 
Q 947 1113 1208 752 
Q 1469 391 1925 391 
Q 2381 391 2643 752 
Q 2906 1113 2906 1747 
Q 2906 2381 2643 2742 
Q 2381 3103 1925 3103 
Q 1469 3103 1208 2742 
Q 947 2381 947 1747 
z
" transform="scale(0.015625)"/>
       <path id="DejaVuSans-73" d="M 2834 3397 
L 2834 2853 
Q 2591 2978 2328 3040 
Q 2066 3103 1784 3103 
Q 1356 3103 1142 2972 
Q 928 2841 928 2578 
Q 928 2378 1081 2264 
Q 1234 2150 1697 2047 
L 1894 2003 
Q 2506 1872 2764 1633 
Q 3022 1394 3022 966 
Q 3022 478 2636 193 
Q 2250 -91 1575 -91 
Q 1294 -91 989 -36 
Q 684 19 347 128 
L 347 722 
Q 666 556 975 473 
Q 1284 391 1588 391 
Q 1994 391 2212 530 
Q 2431 669 2431 922 
Q 2431 1156 2273 1281 
Q 2116 1406 1581 1522 
L 1381 1569 
Q 847 1681 609 1914 
Q 372 2147 372 2553 
Q 372 3047 722 3315 
Q 1072 3584 1716 3584 
Q 2034 3584 2315 3537 
Q 2597 3491 2834 3397 
z
" transform="scale(0.015625)"/>
      </defs>
      <use xlink:href="#DejaVuSans-4e"/>
      <use xlink:href="#DejaVuSans-75" x="74.804688"/>
      <use xlink:href="#DejaVuSans-6d" x="138.183594"/>
      <use xlink:href="#DejaVuSans-62" x="235.595703"/>
      <use xlink:href="#DejaVuSans-65" x="299.072266"/>
      <use xlink:href="#DejaVuSans-72" x="360.595703"/>
      <use xlink:href="#DejaVuSans-20" x="401.708984"/>
      <use xlink:href="#DejaVuSans-6f" x="433.496094"/>
      <use xlink:href="#DejaVuSans-66" x="494.677734"/>
      <use xlink:href="#DejaVuSans-20" x="529.882812"/>
      <use xlink:href="#DejaVuSans-4f" x="561.669922"/>
      <use xlink:href="#DejaVuSans-72" x="640.380859"/>
      <use xlink:href="#DejaVuSans-64" x="679.744141"/>
      <use xlink:href="#DejaVuSans-65" x="743.220703"/>
      <use xlink:href="#DejaVuSans-72" x="804.744141"/>
      <use xlink:href="#DejaVuSans-73" x="845.857422"/>
     </g>
    </g>
   </g>
   <g id="matplotlib.axis_2">
    <g id="ytick_1">
     <g id="line2d_7">
      <defs>
       <path id="mc319044ca3" d="M 0 0 
L -3.5 0 
" style="stroke: #000000; stroke-width: 0.8"/>
      </defs>
      <g>
       <use xlink:href="#mc319044ca3" x="57.6" y="282.688595" style="stroke: #000000; stroke-width: 0.8"/>
      </g>
     </g>
     <g id="text_8">
      <!-- 1150 -->
      <g transform="translate(25.15 286.487814)scale(0.1 -0.1)">
       <defs>
        <path id="DejaVuSans-35" d="M 691 4666 
L 3169 4666 
L 3169 4134 
L 1269 4134 
L 1269 2991 
Q 1406 3038 1543 3061 
Q 1681 3084 1819 3084 
Q 2600 3084 3056 2656 
Q 3513 2228 3513 1497 
Q 3513 744 3044 326 
Q 2575 -91 1722 -91 
Q 1428 -91 1123 -41 
Q 819 9 494 109 
L 494 744 
Q 775 591 1075 516 
Q 1375 441 1709 441 
Q 2250 441 2565 725 
Q 2881 1009 2881 1497 
Q 2881 1984 2565 2268 
Q 2250 2553 1709 2553 
Q 1456 2553 1204 2497 
Q 953 2441 691 2322 
L 691 4666 
z
" transform="scale(0.015625)"/>
       </defs>
       <use xlink:href="#DejaVuSans-31"/>
       <use xlink:href="#DejaVuSans-31" x="63.623047"/>
       <use xlink:href="#DejaVuSans-35" x="127.246094"/>
       <use xlink:href="#DejaVuSans-30" x="190.869141"/>
      </g>
     </g>
    </g>
    <g id="ytick_2">
     <g id="line2d_8">
      <g>
       <use xlink:href="#mc319044ca3" x="57.6" y="236.783191" style="stroke: #000000; stroke-width: 0.8"/>
      </g>
     </g>
     <g id="text_9">
      <!-- 1200 -->
      <g transform="translate(25.15 240.58241)scale(0.1 -0.1)">
       <use xlink:href="#DejaVuSans-31"/>
       <use xlink:href="#DejaVuSans-32" x="63.623047"/>
       <use xlink:href="#DejaVuSans-30" x="127.246094"/>
       <use xlink:href="#DejaVuSans-30" x="190.869141"/>
      </g>
     </g>
    </g>
    <g id="ytick_3">
     <g id="line2d_9">
      <g>
       <use xlink:href="#mc319044ca3" x="57.6" y="190.877787" style="stroke: #000000; stroke-width: 0.8"/>
      </g>
     </g>
     <g id="text_10">
      <!-- 1250 -->
      <g transform="translate(25.15 194.677006)scale(0.1 -0.1)">
       <use xlink:href="#DejaVuSans-31"/>
       <use xlink:href="#DejaVuSans-32" x="63.623047"/>
       <use xlink:href="#DejaVuSans-35" x="127.246094"/>
       <use xlink:href="#DejaVuSans-30" x="190.869141"/>
      </g>
     </g>
    </g>
    <g id="ytick_4">
     <g id="line2d_10">
      <g>
       <use xlink:href="#mc319044ca3" x="57.6" y="144.972383" style="stroke: #000000; stroke-width: 0.8"/>
      </g>
     </g>
     <g id="text_11">
      <!-- 1300 -->
      <g transform="translate(25.15 148.771602)scale(0.1 -0.1)">
       <defs>
        <path id="DejaVuSans-33" d="M 2597 2516 
Q 3050 2419 3304 2112 
Q 3559 1806 3559 1356 
Q 3559 666 3084 287 
Q 2609 -91 1734 -91 
Q 1441 -91 1130 -33 
Q 819 25 488 141 
L 488 750 
Q 750 597 1062 519 
Q 1375 441 1716 441 
Q 2309 441 2620 675 
Q 2931 909 2931 1356 
Q 2931 1769 2642 2001 
Q 2353 2234 1838 2234 
L 1294 2234 
L 1294 2753 
L 1863 2753 
Q 2328 2753 2575 2939 
Q 2822 3125 2822 3475 
Q 2822 3834 2567 4026 
Q 2313 4219 1838 4219 
Q 1578 4219 1281 4162 
Q 984 4106 628 3988 
L 628 4550 
Q 988 4650 1302 4700 
Q 1616 4750 1894 4750 
Q 2613 4750 3031 4423 
Q 3450 4097 3450 3541 
Q 3450 3153 3228 2886 
Q 3006 2619 2597 2516 
z
" transform="scale(0.015625)"/>
       </defs>
       <use xlink:href="#DejaVuSans-31"/>
       <use xlink:href="#DejaVuSans-33" x="63.623047"/>
       <use xlink:href="#DejaVuSans-30" x="127.246094"/>
       <use xlink:href="#DejaVuSans-30" x="190.869141"/>
      </g>
     </g>
    </g>
    <g id="ytick_5">
     <g id="line2d_11">
      <g>
       <use xlink:href="#mc319044ca3" x="57.6" y="99.066979" style="stroke: #000000; stroke-width: 0.8"/>
      </g>
     </g>
     <g id="text_12">
      <!-- 1350 -->
      <g transform="translate(25.15 102.866198)scale(0.1 -0.1)">
       <use xlink:href="#DejaVuSans-31"/>
       <use xlink:href="#DejaVuSans-33" x="63.623047"/>
       <use xlink:href="#DejaVuSans-35" x="127.246094"/>
       <use xlink:href="#DejaVuSans-30" x="190.869141"/>
      </g>
     </g>
    </g>
    <g id="ytick_6">
     <g id="line2d_12">
      <g>
       <use xlink:href="#mc319044ca3" x="57.6" y="53.161575" style="stroke: #000000; stroke-width: 0.8"/>
      </g>
     </g>
     <g id="text_13">
      <!-- 1400 -->
      <g transform="translate(25.15 56.960794)scale(0.1 -0.1)">
       <use xlink:href="#DejaVuSans-31"/>
       <use xlink:href="#DejaVuSans-34" x="63.623047"/>
       <use xlink:href="#DejaVuSans-30" x="127.246094"/>
       <use xlink:href="#DejaVuSans-30" x="190.869141"/>
      </g>
     </g>
    </g>
    <g id="text_14">
     <!-- Waiting Time/s -->
     <g transform="translate(19.070312 211.410031)rotate(-90)scale(0.1 -0.1)">
      <defs>
       <path id="DejaVuSans-57" d="M 213 4666 
L 850 4666 
L 1831 722 
L 2809 4666 
L 3519 4666 
L 4500 722 
L 5478 4666 
L 6119 4666 
L 4947 0 
L 4153 0 
L 3169 4050 
L 2175 0 
L 1381 0 
L 213 4666 
z
" transform="scale(0.015625)"/>
       <path id="DejaVuSans-61" d="M 2194 1759 
Q 1497 1759 1228 1600 
Q 959 1441 959 1056 
Q 959 750 1161 570 
Q 1363 391 1709 391 
Q 2188 391 2477 730 
Q 2766 1069 2766 1631 
L 2766 1759 
L 2194 1759 
z
M 3341 1997 
L 3341 0 
L 2766 0 
L 2766 531 
Q 2569 213 2275 61 
Q 1981 -91 1556 -91 
Q 1019 -91 701 211 
Q 384 513 384 1019 
Q 384 1609 779 1909 
Q 1175 2209 1959 2209 
L 2766 2209 
L 2766 2266 
Q 2766 2663 2505 2880 
Q 2244 3097 1772 3097 
Q 1472 3097 1187 3025 
Q 903 2953 641 2809 
L 641 3341 
Q 956 3463 1253 3523 
Q 1550 3584 1831 3584 
Q 2591 3584 2966 3190 
Q 3341 2797 3341 1997 
z
" transform="scale(0.015625)"/>
       <path id="DejaVuSans-69" d="M 603 3500 
L 1178 3500 
L 1178 0 
L 603 0 
L 603 3500 
z
M 603 4863 
L 1178 4863 
L 1178 4134 
L 603 4134 
L 603 4863 
z
" transform="scale(0.015625)"/>
       <path id="DejaVuSans-74" d="M 1172 4494 
L 1172 3500 
L 2356 3500 
L 2356 3053 
L 1172 3053 
L 1172 1153 
Q 1172 725 1289 603 
Q 1406 481 1766 481 
L 2356 481 
L 2356 0 
L 1766 0 
Q 1100 0 847 248 
Q 594 497 594 1153 
L 594 3053 
L 172 3053 
L 172 3500 
L 594 3500 
L 594 4494 
L 1172 4494 
z
" transform="scale(0.015625)"/>
       <path id="DejaVuSans-6e" d="M 3513 2113 
L 3513 0 
L 2938 0 
L 2938 2094 
Q 2938 2591 2744 2837 
Q 2550 3084 2163 3084 
Q 1697 3084 1428 2787 
Q 1159 2491 1159 1978 
L 1159 0 
L 581 0 
L 581 3500 
L 1159 3500 
L 1159 2956 
Q 1366 3272 1645 3428 
Q 1925 3584 2291 3584 
Q 2894 3584 3203 3211 
Q 3513 2838 3513 2113 
z
" transform="scale(0.015625)"/>
       <path id="DejaVuSans-67" d="M 2906 1791 
Q 2906 2416 2648 2759 
Q 2391 3103 1925 3103 
Q 1463 3103 1205 2759 
Q 947 2416 947 1791 
Q 947 1169 1205 825 
Q 1463 481 1925 481 
Q 2391 481 2648 825 
Q 2906 1169 2906 1791 
z
M 3481 434 
Q 3481 -459 3084 -895 
Q 2688 -1331 1869 -1331 
Q 1566 -1331 1297 -1286 
Q 1028 -1241 775 -1147 
L 775 -588 
Q 1028 -725 1275 -790 
Q 1522 -856 1778 -856 
Q 2344 -856 2625 -561 
Q 2906 -266 2906 331 
L 2906 616 
Q 2728 306 2450 153 
Q 2172 0 1784 0 
Q 1141 0 747 490 
Q 353 981 353 1791 
Q 353 2603 747 3093 
Q 1141 3584 1784 3584 
Q 2172 3584 2450 3431 
Q 2728 3278 2906 2969 
L 2906 3500 
L 3481 3500 
L 3481 434 
z
" transform="scale(0.015625)"/>
       <path id="DejaVuSans-54" d="M -19 4666 
L 3928 4666 
L 3928 4134 
L 2272 4134 
L 2272 0 
L 1638 0 
L 1638 4134 
L -19 4134 
L -19 4666 
z
" transform="scale(0.015625)"/>
       <path id="DejaVuSans-2f" d="M 1625 4666 
L 2156 4666 
L 531 -594 
L 0 -594 
L 1625 4666 
z
" transform="scale(0.015625)"/>
      </defs>
      <use xlink:href="#DejaVuSans-57"/>
      <use xlink:href="#DejaVuSans-61" x="92.501953"/>
      <use xlink:href="#DejaVuSans-69" x="153.78125"/>
      <use xlink:href="#DejaVuSans-74" x="181.564453"/>
      <use xlink:href="#DejaVuSans-69" x="220.773438"/>
      <use xlink:href="#DejaVuSans-6e" x="248.556641"/>
      <use xlink:href="#DejaVuSans-67" x="311.935547"/>
      <use xlink:href="#DejaVuSans-20" x="375.412109"/>
      <use xlink:href="#DejaVuSans-54" x="407.199219"/>
      <use xlink:href="#DejaVuSans-69" x="465.158203"/>
      <use xlink:href="#DejaVuSans-6d" x="492.941406"/>
      <use xlink:href="#DejaVuSans-65" x="590.353516"/>
      <use xlink:href="#DejaVuSans-2f" x="651.876953"/>
      <use xlink:href="#DejaVuSans-73" x="685.568359"/>
     </g>
    </g>
   </g>
   <g id="line2d_13">
    <path d="M 73.832727 230.791315 
L 74.157707 295.488 
L 74.807666 182.853619 
L 75.132645 149.629509 
L 75.457625 156.653092 
L 75.782604 146.064542 
L 76.107584 155.418447 
L 76.432563 146.850222 
L 76.757543 162.086306 
L 77.082523 143.731064 
L 77.732482 169.005502 
L 78.057461 169.359411 
L 78.382441 161.220383 
L 78.70742 138.845421 
L 79.0324 131.623374 
L 79.682359 107.939415 
L 80.007338 119.809901 
L 80.332318 120.444083 
L 80.657297 120.489352 
L 80.982277 126.308006 
L 81.307256 125.303198 
L 81.632236 132.222919 
L 81.957215 120.340008 
L 82.282195 116.890928 
L 82.607174 119.980968 
L 82.932154 110.660456 
L 83.257133 110.813764 
L 83.582113 102.437937 
L 83.907093 108.888069 
L 84.232072 102.351158 
L 84.882031 95.918866 
L 85.207011 99.074517 
L 85.53199 96.23787 
L 85.85697 96.53524 
L 86.181949 98.783479 
L 86.506929 98.257386 
L 86.831908 94.883307 
L 87.156888 89.473013 
L 87.481867 89.807369 
L 87.806847 89.435046 
L 88.131826 95.266071 
L 88.456806 98.097678 
L 88.781785 93.110653 
L 89.106765 93.52192 
L 89.431744 93.296998 
L 89.756724 93.889798 
L 90.081704 89.875492 
L 90.406683 90.085721 
L 91.056642 82.664768 
L 91.381622 86.160202 
L 92.031581 77.638846 
L 92.35656 77.030682 
L 92.68154 77.168513 
L 93.006519 80.174045 
L 93.331499 77.909264 
L 93.656478 79.226077 
L 93.981458 78.05851 
L 94.631417 80.752188 
L 94.956396 77.961436 
L 95.281376 76.142972 
L 95.606355 78.346826 
L 95.931335 75.888506 
L 96.256314 71.922075 
L 96.581294 71.083131 
L 96.906274 74.013011 
L 97.231253 75.271973 
L 97.556233 74.446796 
L 97.881212 73.208157 
L 98.206192 70.720765 
L 98.531171 72.041397 
L 98.856151 72.893526 
L 99.18113 71.821094 
L 99.50611 69.930192 
L 99.831089 70.020522 
L 100.481048 68.290228 
L 100.806028 70.38666 
L 101.131007 68.072926 
L 101.455987 67.615503 
L 101.780966 68.191423 
L 102.105946 68.054457 
L 102.430925 68.852407 
L 102.755905 70.752385 
L 103.080885 70.873749 
L 103.405864 69.961942 
L 103.730844 72.528172 
L 104.055823 70.408078 
L 104.380803 67.083286 
L 104.705782 69.513053 
L 105.030762 69.90898 
L 105.355741 70.793287 
L 105.680721 67.621549 
L 106.0057 67.194804 
L 106.33068 64.715404 
L 106.655659 65.289505 
L 106.980639 66.79776 
L 107.305618 69.11762 
L 107.955577 65.13891 
L 108.605536 69.308295 
L 108.930516 67.123995 
L 109.580475 71.77198 
L 109.905455 72.998284 
L 110.555414 72.36913 
L 110.880393 74.730549 
L 111.530352 75.402927 
L 111.855332 77.739477 
L 112.180311 75.085762 
L 112.505291 73.624771 
L 112.83027 73.63037 
L 113.15525 76.389471 
L 113.480229 77.155146 
L 113.805209 74.423939 
L 114.130188 74.201444 
L 114.455168 74.826263 
L 114.780147 74.900679 
L 115.105127 76.104059 
L 115.755086 71.308875 
L 116.080066 72.233632 
L 116.730025 74.549047 
L 117.379984 71.482977 
L 117.704963 73.349908 
L 118.029943 74.349813 
L 118.354922 74.368071 
L 118.679902 75.898843 
L 119.004881 76.075412 
L 119.329861 75.295647 
L 119.65484 73.742643 
L 119.97982 71.538269 
L 120.304799 73.200123 
L 120.954758 70.120603 
L 121.279738 71.236776 
L 121.604717 69.990439 
L 121.929697 70.265499 
L 122.579656 69.747895 
L 122.904636 67.942443 
L 123.229615 67.159354 
L 123.879574 69.980907 
L 124.204554 68.858071 
L 124.529533 69.282803 
L 124.854513 68.050003 
L 125.179492 66.105341 
L 125.504472 66.046486 
L 125.829451 64.887773 
L 126.154431 66.419612 
L 126.47941 65.727218 
L 126.80439 66.374503 
L 127.129369 66.592226 
L 127.454349 66.404498 
L 127.779328 65.350024 
L 128.104308 64.699702 
L 128.429287 63.243832 
L 128.754267 63.062651 
L 129.079247 62.148115 
L 129.404226 62.731163 
L 129.729206 62.022997 
L 130.054185 63.394793 
L 130.379165 64.246955 
L 130.704144 63.808318 
L 131.029124 64.149618 
L 131.354103 65.177752 
L 131.679083 63.857916 
L 132.004062 65.160878 
L 132.329042 64.55654 
L 132.979001 61.860485 
L 133.30398 60.524388 
L 133.62896 59.960743 
L 133.953939 60.779278 
L 134.603898 62.956752 
L 134.928878 62.981616 
L 135.253857 64.239969 
L 135.578837 64.393614 
L 135.903817 63.499073 
L 136.228796 64.024274 
L 136.553776 63.227642 
L 136.878755 63.451847 
L 137.203735 62.705783 
L 137.528714 62.779939 
L 137.853694 62.094899 
L 138.178673 62.038452 
L 138.503653 62.182373 
L 139.153612 63.283781 
L 139.478591 62.90519 
L 139.803571 64.315109 
L 140.45353 63.460486 
L 140.778509 62.561583 
L 141.428468 63.951021 
L 141.753448 63.676 
L 142.078428 64.163951 
L 142.403407 63.16821 
L 142.728387 63.081167 
L 143.053366 63.14414 
L 143.378346 63.09176 
L 143.703325 62.744059 
L 144.028305 64.010578 
L 144.353284 64.19932 
L 144.678264 63.086579 
L 145.003243 63.98643 
L 145.653202 63.61536 
L 145.978182 64.699151 
L 146.303161 64.266731 
L 146.628141 64.307115 
L 146.95312 62.671236 
L 147.2781 62.122911 
L 147.603079 63.088213 
L 147.928059 62.403052 
L 148.253038 63.419019 
L 148.902998 62.897362 
L 149.227977 63.975869 
L 149.552957 64.504414 
L 150.202916 63.820908 
L 150.527895 62.413838 
L 150.852875 62.057165 
L 151.177854 62.079031 
L 151.502834 62.780568 
L 151.827813 62.910097 
L 152.152793 63.643585 
L 152.477772 63.957106 
L 152.802752 62.927607 
L 153.452711 62.722848 
L 153.77769 63.043663 
L 154.10267 62.250308 
L 154.427649 63.020836 
L 154.752629 63.082876 
L 155.077609 63.022572 
L 155.402588 63.231607 
L 155.727568 63.159891 
L 156.052547 63.616885 
L 156.377527 63.609667 
L 156.702506 63.161561 
L 157.352465 64.972151 
L 157.677445 65.250882 
L 158.002424 65.342802 
L 158.327404 65.675139 
L 158.652383 64.979687 
L 158.977363 65.326713 
L 159.302342 65.954946 
L 159.627322 65.153083 
L 159.952301 64.02606 
L 160.277281 65.03514 
L 160.60226 65.442123 
L 160.92724 65.446102 
L 161.252219 64.954901 
L 161.577199 65.064645 
L 161.902179 64.467403 
L 162.227158 64.266185 
L 162.552138 64.794738 
L 163.202097 63.267886 
L 163.527076 63.150643 
L 163.852056 62.549409 
L 164.177035 62.57075 
L 164.502015 62.873177 
L 164.826994 63.549607 
L 165.151974 63.617318 
L 165.476953 63.390218 
L 165.801933 62.556096 
L 166.126912 63.625202 
L 166.451892 64.080464 
L 166.776871 63.165556 
L 167.101851 64.070763 
L 167.42683 64.191687 
L 167.75181 62.947381 
L 168.07679 63.052341 
L 168.401769 63.866418 
L 169.051728 62.500363 
L 169.376708 62.724297 
L 169.701687 61.578166 
L 170.026667 62.618662 
L 170.351646 62.247866 
L 170.676626 62.118872 
L 171.001605 61.620603 
L 171.326585 61.801027 
L 171.651564 62.149239 
L 171.976544 62.171899 
L 172.301523 62.443212 
L 172.626503 61.77367 
L 173.276462 62.066147 
L 173.601441 61.066803 
L 173.926421 60.786931 
L 174.57638 58.883242 
L 174.90136 59.079023 
L 175.226339 58.808566 
L 175.551319 58.76759 
L 175.876298 58.90243 
L 176.201278 59.583935 
L 176.526257 58.489642 
L 176.851237 58.254744 
L 177.176216 58.318818 
L 177.826175 59.168068 
L 178.151155 58.304427 
L 178.476134 59.015459 
L 178.801114 60.044859 
L 179.126093 60.198733 
L 179.451073 59.708274 
L 180.101032 60.076349 
L 180.426011 59.701663 
L 180.750991 60.395986 
L 181.075971 60.301536 
L 181.40095 59.182457 
L 181.72593 58.804444 
L 182.050909 59.753442 
L 182.375889 58.936856 
L 182.700868 59.641739 
L 183.025848 58.825874 
L 183.350827 58.705325 
L 183.675807 59.016943 
L 184.000786 58.488087 
L 184.325766 58.184765 
L 184.650745 58.698179 
L 184.975725 58.800872 
L 185.300704 58.444344 
L 185.625684 58.556056 
L 185.950663 57.794537 
L 186.275643 57.778011 
L 186.925602 58.976325 
L 187.250581 58.732413 
L 187.575561 59.131121 
L 187.900541 58.884343 
L 188.22552 59.118645 
L 188.5505 59.982318 
L 188.875479 59.519727 
L 189.200459 59.920586 
L 189.525438 59.039049 
L 189.850418 59.090358 
L 190.175397 59.595168 
L 190.825356 58.094926 
L 191.150336 58.251104 
L 191.475315 58.832179 
L 191.800295 58.995389 
L 192.125274 58.880864 
L 192.450254 58.488723 
L 192.775233 57.875026 
L 193.100213 58.509235 
L 193.425192 58.372516 
L 193.750172 57.809666 
L 194.075152 58.194436 
L 194.725111 57.097949 
L 195.05009 57.116217 
L 195.37507 57.723055 
L 195.700049 57.274373 
L 196.025029 57.485635 
L 196.674988 56.681287 
L 196.999967 57.499203 
L 197.324947 56.827578 
L 197.974906 56.935035 
L 198.299885 56.448628 
L 198.624865 56.304772 
L 199.274824 56.826696 
L 199.599803 56.342835 
L 199.924783 57.026304 
L 200.249762 57.045065 
L 200.899722 57.6812 
L 201.224701 57.187166 
L 201.87466 57.586906 
L 202.524619 56.996314 
L 202.849599 57.476771 
L 203.174578 57.446565 
L 203.499558 56.814596 
L 203.824537 56.83183 
L 204.474496 57.758583 
L 204.799476 58.449008 
L 205.124455 58.514411 
L 205.449435 59.232194 
L 206.099394 58.627475 
L 206.424373 58.809458 
L 206.749353 59.477044 
L 207.074333 59.330319 
L 207.399312 58.606017 
L 207.724292 58.328823 
L 208.049271 58.552669 
L 208.374251 58.492216 
L 208.69923 57.83361 
L 209.02421 58.025582 
L 209.349189 57.671321 
L 209.674169 58.399192 
L 209.999148 57.982341 
L 210.324128 58.218272 
L 210.649107 57.343009 
L 210.974087 57.602195 
L 211.299066 57.309954 
L 211.624046 57.433962 
L 211.949025 57.027735 
L 212.598984 57.627513 
L 213.248943 57.605874 
L 213.573923 57.979645 
L 213.898903 57.551349 
L 214.223882 56.662907 
L 214.548862 56.277715 
L 215.198821 56.839466 
L 215.5238 56.275043 
L 216.173759 56.122434 
L 216.498739 56.59239 
L 217.148698 55.784059 
L 217.473677 55.175962 
L 217.798657 55.66147 
L 218.123636 55.348005 
L 218.448616 56.07782 
L 218.773595 56.331239 
L 219.098575 56.316637 
L 219.423554 56.129447 
L 219.748534 56.677463 
L 220.073514 56.933711 
L 220.398493 56.27774 
L 220.723473 55.913014 
L 221.373432 54.585109 
L 221.698411 55.243024 
L 222.023391 55.628261 
L 222.34837 55.304692 
L 222.67335 55.726202 
L 222.998329 55.303276 
L 223.323309 55.155788 
L 223.973268 54.479729 
L 224.948206 56.277433 
L 225.273186 56.074852 
L 225.598165 55.53487 
L 225.923145 55.311732 
L 226.248124 55.626115 
L 226.573104 56.10214 
L 226.898084 55.392043 
L 227.223063 55.406329 
L 227.548043 56.086626 
L 227.873022 55.878388 
L 228.198002 56.062927 
L 228.522981 56.590228 
L 229.17294 56.997261 
L 229.49792 57.059771 
L 229.822899 56.266463 
L 230.147879 56.25048 
L 230.472858 56.436216 
L 230.797838 56.901936 
L 231.122817 56.838278 
L 231.772776 56.089069 
L 232.097756 56.07775 
L 232.422735 56.583523 
L 233.072695 56.285147 
L 233.722654 56.668388 
L 234.047633 56.184298 
L 234.372613 56.161399 
L 234.697592 56.007302 
L 235.022572 55.41969 
L 235.347551 55.306152 
L 235.672531 55.391264 
L 235.99751 55.621938 
L 236.32249 56.304653 
L 236.972449 56.246395 
L 237.297428 56.260434 
L 237.947387 55.987585 
L 238.272367 55.975479 
L 238.597346 55.632781 
L 238.922326 55.962346 
L 239.247305 55.444891 
L 239.897265 55.226615 
L 240.222244 55.160923 
L 240.547224 55.309447 
L 241.197183 55.155957 
L 241.522162 55.484524 
L 242.497101 55.338226 
L 242.82208 55.193162 
L 243.14706 55.378208 
L 243.797019 55.162848 
L 244.121998 55.750559 
L 244.446978 55.636593 
L 244.771957 55.327546 
L 245.096937 55.24191 
L 245.421916 55.388793 
L 245.746896 55.958325 
L 246.071876 56.128278 
L 246.396855 56.076039 
L 246.721835 55.777446 
L 247.046814 55.308248 
L 247.371794 55.113142 
L 248.021753 55.035005 
L 248.671712 54.473698 
L 248.996691 54.231137 
L 249.321671 54.162167 
L 249.64665 53.667501 
L 249.97163 54.297474 
L 250.296609 54.394323 
L 250.621589 54.311167 
L 251.596527 54.549677 
L 251.921507 54.400032 
L 252.246486 55.012114 
L 252.571466 54.577559 
L 252.896446 54.926376 
L 253.221425 54.917064 
L 253.871384 55.06562 
L 254.196364 54.663465 
L 254.521343 55.008034 
L 254.846323 54.519276 
L 255.496282 55.277416 
L 256.47122 55.01882 
L 256.7962 55.551658 
L 257.121179 55.633701 
L 257.771138 56.597709 
L 258.096118 56.658828 
L 258.421097 56.145019 
L 259.071057 57.07265 
L 259.396036 57.004132 
L 259.721016 57.134311 
L 260.045995 56.907829 
L 260.370975 56.864515 
L 260.695954 56.690272 
L 261.020934 56.727933 
L 261.345913 57.216673 
L 261.670893 57.306619 
L 262.645831 56.667875 
L 262.970811 56.937196 
L 263.29579 56.892345 
L 263.62077 56.967296 
L 263.945749 56.877665 
L 264.270729 57.378589 
L 264.595708 57.541653 
L 264.920688 57.502565 
L 265.570647 57.936661 
L 266.220606 57.921783 
L 266.545586 57.629008 
L 266.870565 58.10805 
L 267.195545 58.296797 
L 267.520524 57.745579 
L 267.845504 57.737843 
L 268.170483 57.848981 
L 268.495463 57.726564 
L 268.820442 57.440451 
L 269.470401 57.479208 
L 270.12036 57.746146 
L 270.770319 56.979686 
L 271.420278 56.41504 
L 271.745258 56.000749 
L 272.070238 55.787572 
L 272.395217 55.891565 
L 272.720197 56.423867 
L 273.045176 56.653213 
L 274.020115 56.364232 
L 274.345094 56.538329 
L 274.670074 56.316256 
L 274.995053 56.370208 
L 275.320033 55.963225 
L 275.645012 56.35168 
L 276.294971 56.531811 
L 276.619951 57.015202 
L 276.94493 57.069506 
L 277.26991 57.271273 
L 277.594889 57.712831 
L 277.919869 57.211654 
L 278.244848 57.303983 
L 278.569828 57.661202 
L 278.894808 57.093806 
L 280.194726 56.093499 
L 280.519705 56.382379 
L 280.844685 56.084793 
L 281.494644 56.804847 
L 282.144603 57.20344 
L 282.469582 57.039707 
L 283.444521 58.168001 
L 284.09448 57.630548 
L 284.419459 57.359792 
L 284.744439 57.555681 
L 285.069419 57.419896 
L 285.394398 57.088959 
L 285.719378 57.468267 
L 286.044357 57.662895 
L 286.369337 58.028889 
L 286.694316 57.856477 
L 287.019296 58.300316 
L 287.344275 58.220882 
L 287.669255 58.754682 
L 287.994234 58.708941 
L 288.319214 58.814874 
L 288.969173 58.389919 
L 289.294152 58.304657 
L 289.619132 58.716095 
L 289.944111 58.811945 
L 290.269091 58.775084 
L 290.59407 59.212743 
L 291.569009 59.904875 
L 291.893989 60.251855 
L 292.543948 60.242863 
L 292.868927 59.854011 
L 293.193907 59.957486 
L 293.518886 59.568422 
L 294.168845 59.620069 
L 294.493825 60.132656 
L 294.818804 60.169287 
L 295.468763 60.583711 
L 295.793743 60.180084 
L 296.118722 60.298639 
L 296.768681 60.178681 
L 297.093661 60.448725 
L 297.41864 60.191891 
L 298.0686 60.368813 
L 298.393579 60.574581 
L 299.043538 60.247218 
L 299.368518 60.409206 
L 299.693497 60.893995 
L 300.343456 60.118253 
L 300.668436 60.34561 
L 300.993415 60.310945 
L 301.318395 60.721084 
L 301.968354 60.652058 
L 302.293333 60.394359 
L 302.618313 60.773108 
L 302.943292 60.802839 
L 303.268272 60.358242 
L 303.593251 60.705553 
L 304.56819 60.632931 
L 304.89317 61.044204 
L 305.218149 61.068824 
L 305.868108 60.327671 
L 306.518067 60.279453 
L 306.843047 60.606673 
L 307.493006 60.683519 
L 307.817985 61.081706 
L 308.142965 60.905757 
L 308.792924 61.300018 
L 309.117903 61.184127 
L 309.442883 61.641029 
L 310.092842 61.09832 
L 310.417821 61.385275 
L 310.742801 61.297684 
L 311.067781 61.48195 
L 311.71774 62.167749 
L 312.042719 62.160202 
L 312.367699 62.297843 
L 312.692678 62.26761 
L 313.017658 62.499831 
L 313.342637 62.250363 
L 313.992596 62.701089 
L 314.317576 62.449395 
L 314.642555 61.963795 
L 314.967535 62.026749 
L 315.292514 62.282195 
L 316.267453 62.486397 
L 316.592432 62.889229 
L 316.917412 62.519418 
L 317.242391 62.779954 
L 317.567371 62.532889 
L 317.892351 62.45934 
L 318.867289 62.54282 
L 319.842228 62.168655 
L 320.167207 62.415192 
L 321.142146 62.479134 
L 321.792105 62.131223 
L 322.117084 62.248947 
L 323.092023 61.636247 
L 323.417002 61.715134 
L 323.741982 61.60369 
L 324.066962 61.251484 
L 324.716921 61.207855 
L 325.0419 61.071836 
L 325.36688 61.352885 
L 325.691859 61.393732 
L 326.666798 61.906644 
L 326.991777 61.346093 
L 327.641736 61.092549 
L 327.966716 61.507279 
L 328.291695 61.541978 
L 328.616675 61.310656 
L 329.266634 61.902082 
L 329.591613 61.711002 
L 330.241572 62.169564 
L 330.566552 62.055619 
L 330.891532 62.301319 
L 331.216511 62.258519 
L 331.86647 62.416975 
L 332.19145 62.450479 
L 332.841409 62.049194 
L 333.166388 62.121327 
L 333.491368 62.32638 
L 334.141327 62.323029 
L 334.791286 62.014478 
L 335.441245 62.46125 
L 335.766224 62.560283 
L 336.741163 63.258978 
L 337.066143 63.403184 
L 337.391122 63.350243 
L 338.366061 63.92019 
L 338.69104 64.278904 
L 339.01602 64.254133 
L 339.340999 63.902901 
L 339.990958 64.367124 
L 340.965897 64.334093 
L 341.290876 64.454564 
L 341.940835 64.146301 
L 342.265815 63.785877 
L 343.240753 64.503593 
L 343.565733 64.306156 
L 343.890713 64.315929 
L 344.215692 64.491263 
L 344.865651 64.08825 
L 345.190631 63.792193 
L 345.51561 64.081107 
L 346.165569 64.218801 
L 346.490549 63.921397 
L 346.815528 64.241918 
L 347.790467 64.620579 
L 348.115446 64.543796 
L 348.440426 64.756223 
L 349.415364 64.810489 
L 349.740344 64.906345 
L 350.065324 64.635042 
L 350.715283 64.573933 
L 351.040262 64.192276 
L 351.365242 64.413549 
L 352.990139 64.813472 
L 353.315119 65.131083 
L 355.589975 66.266207 
L 355.914955 66.013017 
L 356.889894 65.896847 
L 357.214873 66.024372 
L 357.864832 65.782897 
L 358.189812 65.788404 
L 358.839771 66.426689 
L 359.814709 66.273183 
L 360.139689 65.921195 
L 360.464668 66.107656 
L 360.789648 65.644161 
L 361.114627 65.463155 
L 361.439607 65.751489 
L 361.764586 65.706138 
L 362.089566 65.936128 
L 362.739525 65.491739 
L 363.064505 65.722394 
L 363.389484 65.29325 
L 364.364423 65.684137 
L 364.689402 65.384623 
L 365.014382 65.523829 
L 365.339361 65.244339 
L 365.664341 65.516704 
L 365.98932 65.514879 
L 366.3143 65.733379 
L 367.614218 64.94309 
L 367.939197 65.129953 
L 368.914136 64.934999 
L 369.239115 65.171258 
L 369.889075 65.223781 
L 370.539034 65.560441 
L 370.864013 65.534985 
L 371.188993 65.713539 
L 371.513972 65.424812 
L 371.838952 65.68905 
L 372.163931 65.473797 
L 372.488911 65.443859 
L 372.81389 65.257122 
L 373.13887 65.551069 
L 373.463849 65.625863 
L 373.788829 65.551239 
L 374.113808 65.256366 
L 374.438788 65.446656 
L 376.063686 64.851018 
L 376.388665 64.969205 
L 376.713645 64.733849 
L 377.688583 64.629173 
L 378.013563 64.712949 
L 379.63846 64.148917 
L 379.96344 63.810208 
L 380.613399 64.165371 
L 380.938378 64.303293 
L 381.913317 64.052531 
L 382.238296 64.0821 
L 383.213235 63.733522 
L 383.863194 63.447817 
L 384.188174 63.528406 
L 385.163112 63.416944 
L 385.488092 63.650211 
L 385.813071 63.294579 
L 386.138051 63.493205 
L 386.78801 63.452397 
L 387.437969 63.547559 
L 387.762948 63.775094 
L 388.087928 63.73335 
L 388.412907 63.847563 
L 388.737887 63.592842 
L 389.062867 63.884955 
L 389.387846 63.8927 
L 389.712826 63.464477 
L 390.037805 63.429752 
L 391.012744 63.782505 
L 391.337723 63.559847 
L 392.312662 64.045803 
L 392.637641 63.985916 
L 392.962621 64.291477 
L 393.2876 64.429246 
L 393.61258 64.410136 
L 393.937559 64.705401 
L 394.262539 64.789522 
L 394.912498 64.548878 
L 395.237477 64.791772 
L 397.512334 64.388917 
L 397.837314 64.065663 
L 398.162293 63.984821 
L 398.487273 63.617931 
L 398.487273 63.617931 
" clip-path="url(#p006a74e57f)" style="fill: none; stroke-dasharray: 2,3.3; stroke-dashoffset: 0; stroke: #0000ff; stroke-width: 2"/>
   </g>
   <g id="line2d_14">
    <path d="M 73.832727 230.791315 
L 74.157707 295.488 
L 74.807666 182.853619 
L 75.132645 149.629509 
L 75.457625 156.653092 
L 75.782604 146.064542 
L 76.107584 155.418447 
L 76.432563 146.850222 
L 76.757543 162.086306 
L 77.082523 143.731064 
L 77.732482 169.005502 
L 78.057461 169.359411 
L 78.382441 161.220383 
L 78.70742 138.845421 
L 79.0324 131.623374 
L 79.682359 107.939415 
L 80.007338 119.809901 
L 80.332318 120.444083 
L 80.657297 120.489352 
L 80.982277 126.308006 
L 81.307256 125.303198 
L 81.632236 132.222919 
L 81.957215 120.340008 
L 82.282195 116.890928 
L 82.607174 119.980968 
L 82.932154 110.660456 
L 83.257133 110.813764 
L 83.582113 102.437937 
L 83.907093 108.888069 
L 84.232072 102.351158 
L 84.882031 95.918866 
L 85.207011 99.074517 
L 85.53199 96.23787 
L 85.85697 96.53524 
L 86.181949 98.783479 
L 86.506929 98.257386 
L 86.831908 94.883307 
L 87.156888 89.473013 
L 87.481867 89.807369 
L 87.806847 89.435046 
L 88.131826 91.288141 
L 88.456806 86.836874 
L 88.781785 92.475049 
L 89.106765 95.246819 
L 89.431744 90.521528 
L 89.756724 90.968126 
L 90.081704 90.802099 
L 90.406683 91.420077 
L 90.731663 87.603854 
L 91.056642 87.848364 
L 91.381622 84.304032 
L 91.706601 87.707775 
L 92.35656 79.279974 
L 92.68154 78.654303 
L 93.006519 78.762776 
L 93.331499 81.692902 
L 93.656478 79.440151 
L 93.981458 80.711763 
L 94.306437 79.539225 
L 94.631417 80.752188 
L 94.956396 77.961436 
L 95.281376 76.142972 
L 95.606355 78.346826 
L 95.931335 75.888506 
L 96.256314 71.922075 
L 96.581294 71.083131 
L 96.906274 74.013011 
L 97.231253 75.271973 
L 97.556233 74.446796 
L 97.881212 73.208157 
L 98.206192 70.720765 
L 98.531171 71.601113 
L 98.856151 70.5315 
L 99.18113 68.632987 
L 99.50611 68.740661 
L 99.831089 67.811424 
L 100.156069 69.087009 
L 100.481048 68.290228 
L 100.806028 70.38666 
L 101.131007 68.072926 
L 101.455987 67.615503 
L 101.780966 68.191423 
L 102.105946 68.054457 
L 102.430925 68.852407 
L 102.755905 70.752385 
L 103.080885 69.831893 
L 103.405864 69.961942 
L 103.730844 72.528172 
L 104.055823 70.408078 
L 104.380803 70.476092 
L 104.705782 67.185225 
L 105.030762 69.588892 
L 105.355741 69.980005 
L 105.680721 72.608423 
L 106.0057 73.448049 
L 106.33068 70.312833 
L 106.655659 69.868071 
L 106.980639 67.410861 
L 107.305618 67.948003 
L 107.630598 69.402211 
L 107.955577 71.653729 
L 108.605536 67.701734 
L 108.930516 69.377663 
L 109.255495 67.21259 
L 109.905455 71.817492 
L 110.230434 73.032542 
L 110.880393 72.408263 
L 111.205373 74.748988 
L 111.855332 75.415355 
L 112.180311 72.781171 
L 112.505291 71.339385 
L 112.83027 71.363871 
L 113.480229 76.184184 
L 113.805209 76.94534 
L 114.130188 74.237661 
L 114.455168 74.018411 
L 114.780147 74.639751 
L 115.105127 74.715043 
L 115.430106 75.910534 
L 116.405045 69.501216 
L 116.730025 70.425658 
L 117.379984 72.733555 
L 117.704963 71.33339 
L 118.029943 70.637754 
L 118.354922 71.650067 
L 118.679902 73.200393 
L 119.329861 72.60445 
L 119.65484 70.651737 
L 119.97982 70.861294 
L 120.304799 70.133984 
L 120.629779 68.648708 
L 120.954758 70.307587 
L 121.279738 68.632027 
L 121.604717 70.540701 
L 121.929697 69.213517 
L 122.254676 70.313413 
L 122.904636 68.30211 
L 123.554595 71.127145 
L 123.879574 69.989669 
L 124.204554 70.40987 
L 124.529533 69.162039 
L 124.854513 67.198031 
L 125.179492 67.131933 
L 125.504472 65.959194 
L 125.829451 67.493893 
L 126.154431 66.790594 
L 126.47941 67.435325 
L 126.80439 67.647908 
L 127.129369 67.452644 
L 127.454349 66.385504 
L 127.779328 65.725087 
L 128.104308 64.254448 
L 128.429287 64.066215 
L 128.754267 63.140396 
L 129.079247 63.72105 
L 129.404226 63.003012 
L 129.729206 64.377073 
L 130.054185 65.228487 
L 130.379165 65.565573 
L 130.704144 66.597345 
L 131.354103 65.650029 
L 131.679083 64.327554 
L 132.004062 65.627907 
L 132.329042 65.020989 
L 132.979001 62.319858 
L 133.30398 60.981264 
L 133.62896 60.415149 
L 133.953939 61.231241 
L 134.603898 63.403907 
L 134.928878 63.426406 
L 135.253857 64.682417 
L 135.578837 64.833746 
L 135.903817 63.936913 
L 136.228796 64.459845 
L 136.553776 63.660968 
L 136.878755 63.882951 
L 137.203735 63.134687 
L 137.528714 63.206666 
L 137.853694 62.519471 
L 138.178673 62.460891 
L 138.503653 62.602699 
L 139.478591 64.321162 
L 139.803571 65.724139 
L 140.45353 64.855836 
L 140.778509 63.950192 
L 141.103489 63.577498 
L 141.428468 63.521541 
L 141.753448 64.293862 
L 142.078428 64.018519 
L 142.403407 64.502553 
L 142.728387 63.509897 
L 143.053366 63.421664 
L 143.378346 63.482761 
L 143.703325 63.13325 
L 144.028305 64.397975 
L 144.353284 64.58494 
L 144.678264 63.470438 
L 145.003243 64.368545 
L 145.653202 63.994032 
L 145.978182 65.076126 
L 146.303161 64.642022 
L 146.628141 64.680738 
L 146.95312 63.043206 
L 147.2781 62.493242 
L 147.603079 63.45692 
L 147.928059 62.770149 
L 148.578018 60.013968 
L 148.902998 60.233624 
L 149.227977 60.085628 
L 149.552957 61.094132 
L 150.202916 60.601019 
L 150.852875 62.380158 
L 151.177854 62.904322 
L 151.502834 62.607514 
L 152.152793 62.573639 
L 152.477772 62.702953 
L 152.802752 63.431279 
L 153.127731 63.743107 
L 153.452711 62.722848 
L 153.77769 63.043663 
L 154.10267 62.250308 
L 154.427649 63.020836 
L 154.752629 63.082876 
L 155.077609 63.022572 
L 155.402588 63.231607 
L 155.727568 63.159891 
L 156.052547 63.616885 
L 156.377527 63.609667 
L 156.702506 63.161561 
L 157.352465 64.972151 
L 157.677445 65.250882 
L 158.002424 65.342802 
L 158.652383 66.020835 
L 158.977363 66.648818 
L 159.302342 65.841289 
L 159.627322 64.707417 
L 159.952301 65.717729 
L 160.277281 66.12368 
L 160.60226 66.12513 
L 160.92724 65.629579 
L 161.252219 65.737231 
L 161.577199 65.135303 
L 161.902179 64.930889 
L 162.227158 65.458944 
L 162.552138 64.794738 
L 163.202097 63.267886 
L 163.527076 63.150643 
L 163.852056 62.549409 
L 164.177035 62.57075 
L 164.502015 62.873177 
L 164.826994 63.549607 
L 165.151974 63.617318 
L 165.476953 64.690229 
L 165.801933 64.460151 
L 166.126912 63.625202 
L 166.451892 64.080464 
L 166.776871 63.165556 
L 167.101851 64.070763 
L 167.75181 64.413649 
L 168.07679 63.172856 
L 168.401769 63.276684 
L 168.726749 64.087218 
L 169.376708 62.724297 
L 169.701687 61.578166 
L 170.026667 62.618662 
L 170.351646 62.247866 
L 170.676626 62.118872 
L 171.001605 61.620603 
L 171.326585 61.801027 
L 171.651564 62.149239 
L 171.976544 62.171899 
L 172.301523 62.443212 
L 172.626503 61.77367 
L 173.276462 62.066147 
L 173.601441 61.066803 
L 173.926421 60.786931 
L 174.57638 58.883242 
L 174.90136 59.079023 
L 175.226339 58.808566 
L 175.551319 58.76759 
L 175.876298 58.90243 
L 176.201278 59.583935 
L 176.526257 58.489642 
L 176.851237 58.254744 
L 177.176216 58.318818 
L 177.826175 59.168068 
L 178.151155 58.304427 
L 178.476134 59.015459 
L 178.801114 60.044859 
L 179.126093 60.198733 
L 179.451073 59.708274 
L 179.776052 59.960047 
L 180.101032 59.573902 
L 180.426011 58.44683 
L 180.750991 58.358 
L 181.075971 58.478087 
L 181.40095 58.111601 
L 182.050909 59.753442 
L 182.375889 58.936856 
L 182.700868 59.641739 
L 183.025848 58.825874 
L 183.350827 58.824602 
L 183.675807 58.704412 
L 184.000786 59.015116 
L 184.325766 58.487816 
L 184.650745 58.185382 
L 184.975725 58.697298 
L 185.300704 58.799695 
L 185.625684 58.444203 
L 185.950663 58.555593 
L 186.275643 57.79627 
L 186.600622 57.779787 
L 187.250581 58.974666 
L 187.575561 58.731454 
L 187.900541 59.129032 
L 188.22552 58.88296 
L 188.5505 59.116603 
L 188.875479 59.977849 
L 189.200459 59.51657 
L 189.525438 59.916315 
L 189.850418 59.037252 
L 190.175397 59.088424 
L 190.500377 59.591837 
L 190.825356 58.725608 
L 191.150336 58.890014 
L 191.475315 58.775148 
L 191.800295 58.381143 
L 192.125274 57.764379 
L 192.450254 58.402355 
L 192.775233 58.265182 
L 193.100213 57.699564 
L 193.425192 57.717569 
L 193.750172 58.103628 
L 194.400131 57.004682 
L 194.725111 57.023249 
L 195.05009 57.631958 
L 195.37507 57.182323 
L 195.700049 57.394391 
L 196.025029 56.980308 
L 196.350008 56.304725 
L 196.674988 55.915632 
L 196.999967 56.735563 
L 197.324947 56.839709 
L 197.649926 56.351005 
L 197.974906 56.206653 
L 198.624865 56.731798 
L 198.949844 56.245675 
L 199.274824 56.932927 
L 199.599803 56.349904 
L 200.249762 56.992866 
L 200.574742 56.498065 
L 201.224701 56.903346 
L 201.87466 56.313225 
L 202.19964 56.797834 
L 202.524619 56.769186 
L 202.849599 56.135743 
L 203.174578 56.154765 
L 204.149517 57.15879 
L 204.799476 56.558348 
L 205.124455 56.747237 
L 205.449435 57.42648 
L 205.774414 57.283351 
L 206.099394 56.556966 
L 206.424373 57.241888 
L 206.749353 56.965993 
L 207.074333 57.194788 
L 207.399312 57.905321 
L 207.724292 57.846143 
L 208.049271 57.185915 
L 208.374251 56.831117 
L 208.69923 57.566256 
L 209.02421 57.148404 
L 209.674169 57.580142 
L 209.999148 56.702231 
L 210.324128 56.290426 
L 210.649107 56.55272 
L 210.974087 56.26227 
L 211.299066 56.535815 
L 211.624046 56.661644 
L 211.949025 56.25723 
L 212.274005 56.575475 
L 212.923964 56.55869 
L 213.248943 55.666358 
L 213.573923 55.280797 
L 214.223882 55.851045 
L 214.548862 55.429628 
L 214.873841 55.804965 
L 215.198821 55.24162 
L 215.5238 55.132747 
L 215.84878 55.607108 
L 216.173759 55.190168 
L 216.498739 55.763539 
L 216.823718 55.152731 
L 217.148698 55.640488 
L 217.473677 55.325656 
L 217.798657 56.058809 
L 218.123636 56.190432 
L 218.448616 56.667991 
L 218.773595 56.920089 
L 219.423554 56.861826 
L 219.748534 56.673841 
L 220.073514 57.219434 
L 220.398493 57.488003 
L 220.723473 57.443272 
L 221.048452 56.789069 
L 221.373432 56.424822 
L 222.023391 55.100489 
L 222.34837 55.754405 
L 222.67335 56.13685 
L 222.998329 55.813582 
L 223.323309 56.232159 
L 223.648288 55.809969 
L 223.973268 55.662024 
L 224.298247 55.371244 
L 224.623227 55.867689 
L 224.948206 56.622217 
L 225.273186 56.418897 
L 225.598165 55.87818 
L 225.923145 55.65431 
L 226.248124 55.27325 
L 226.573104 55.587047 
L 226.898084 55.572166 
L 227.223063 56.046292 
L 227.548043 55.339309 
L 227.873022 55.353645 
L 228.198002 55.147385 
L 228.522981 55.333069 
L 228.847961 55.860794 
L 229.49792 56.270019 
L 229.822899 56.33391 
L 230.147879 55.543753 
L 230.472858 56.012285 
L 230.797838 55.950334 
L 231.447797 55.203238 
L 231.772776 55.193714 
L 232.097756 55.702335 
L 233.397674 55.118731 
L 233.722654 55.268507 
L 234.047633 54.787252 
L 234.372613 54.767175 
L 234.697592 54.951032 
L 235.022572 54.799681 
L 235.347551 54.215674 
L 235.672531 54.104777 
L 235.99751 53.738845 
L 236.32249 53.826745 
L 236.647469 54.059618 
L 236.972449 54.742724 
L 237.622408 54.690883 
L 237.947387 54.70794 
L 238.597346 54.442278 
L 238.922326 54.433255 
L 239.247305 55.06744 
L 239.572285 54.72853 
L 240.547224 55.617189 
L 241.197183 55.399936 
L 241.522162 55.547137 
L 242.497101 55.400477 
L 242.82208 54.895026 
L 243.14706 54.751089 
L 243.472039 54.936626 
L 243.797019 55.525891 
L 244.121998 55.412135 
L 244.446978 55.102928 
L 244.771957 55.017555 
L 245.096937 55.165141 
L 245.421916 55.736173 
L 245.746896 55.906866 
L 246.071876 55.854946 
L 246.396855 55.556207 
L 246.721835 55.086544 
L 247.046814 54.891487 
L 248.021753 54.752044 
L 248.996691 54.131268 
L 249.321671 54.062482 
L 249.64665 53.568 
L 249.97163 53.666372 
L 250.296609 53.584401 
L 251.271548 53.827333 
L 251.596527 53.678732 
L 251.921507 54.293243 
L 252.246486 53.859205 
L 252.571466 54.479683 
L 252.896446 54.471163 
L 253.221425 54.819542 
L 253.546405 54.953234 
L 254.196364 54.911113 
L 254.521343 54.509957 
L 254.846323 54.854184 
L 255.171302 54.366575 
L 255.821261 55.123909 
L 256.7962 54.866587 
L 257.121179 55.398752 
L 257.771138 55.575831 
L 258.421097 56.536654 
L 258.746077 56.597666 
L 259.396036 57.522092 
L 259.721016 57.452909 
L 260.045995 56.942192 
L 260.370975 57.072026 
L 260.695954 56.846439 
L 261.020934 56.803382 
L 261.345913 56.629847 
L 261.670893 56.667483 
L 261.995872 57.154641 
L 262.970811 56.517775 
L 263.29579 56.786892 
L 263.62077 56.742375 
L 263.945749 56.817454 
L 264.270729 56.72823 
L 264.595708 57.228557 
L 264.920688 57.391599 
L 265.245667 57.352832 
L 265.895627 57.7867 
L 266.545586 57.772352 
L 266.870565 57.48032 
L 267.195545 57.958808 
L 267.520524 58.147489 
L 267.845504 57.597442 
L 268.170483 57.589966 
L 268.495463 57.467982 
L 268.820442 57.679662 
L 269.145422 57.394102 
L 269.470401 57.505072 
L 270.12036 57.543488 
L 270.44534 57.638154 
L 271.095299 56.87331 
L 271.420278 56.976032 
L 272.070238 56.413246 
L 272.395217 56.000312 
L 272.720197 55.787831 
L 273.045176 56.319436 
L 273.370156 56.548578 
L 274.345094 56.260574 
L 274.670074 56.434557 
L 275.320033 56.044071 
L 275.645012 56.098287 
L 275.969992 55.693046 
L 276.294971 56.080689 
L 276.619951 56.20132 
L 276.94493 56.684467 
L 277.26991 56.739212 
L 277.594889 56.941184 
L 277.919869 57.382564 
L 278.244848 56.882708 
L 278.569828 56.975411 
L 278.894808 57.332585 
L 279.219787 56.766604 
L 279.544767 56.497883 
L 279.869746 56.66331 
L 280.519705 55.960419 
L 280.844685 55.674272 
L 281.169664 55.962905 
L 281.494644 55.666904 
L 282.144603 56.069042 
L 282.469582 56.508441 
L 282.794562 56.174807 
L 283.119541 56.013176 
L 283.7695 56.647547 
L 284.419459 56.115608 
L 284.744439 55.847599 
L 285.394398 56.64421 
L 285.719378 56.840399 
L 286.044357 57.20821 
L 286.369337 57.036787 
L 286.694316 57.482553 
L 287.344275 57.319702 
L 287.669255 57.854869 
L 287.994234 57.810491 
L 288.319214 57.917783 
L 288.969173 57.495534 
L 289.294152 57.908811 
L 289.619132 58.006019 
L 289.944111 58.485789 
L 290.269091 58.449417 
L 291.244029 59.096398 
L 291.569009 59.068196 
L 291.893989 58.679356 
L 292.218968 58.785038 
L 292.543948 58.395981 
L 293.193907 58.451326 
L 293.518886 58.967911 
L 293.843866 59.006422 
L 294.493825 59.426094 
L 294.818804 59.321631 
L 295.143784 59.441965 
L 295.468763 59.698129 
L 295.793743 59.683804 
L 296.118722 59.955754 
L 296.443702 59.698514 
L 297.093661 59.877642 
L 297.41864 60.08502 
L 298.0686 59.757652 
L 298.393579 59.921049 
L 298.718559 60.408642 
L 299.368518 59.630947 
L 299.693497 60.04977 
L 300.018477 60.277878 
L 300.343456 60.243211 
L 300.668436 60.65462 
L 301.318395 60.585586 
L 301.643374 60.327248 
L 301.968354 60.70717 
L 302.293333 60.737079 
L 302.618313 60.291314 
L 302.943292 60.639704 
L 303.918231 60.567155 
L 304.24321 60.97968 
L 304.56819 61.00446 
L 305.543129 60.065374 
L 305.868108 60.033359 
L 306.193088 60.361837 
L 306.843047 60.439579 
L 307.168026 60.839214 
L 307.493006 60.663112 
L 308.142965 61.059137 
L 308.467944 60.943259 
L 308.792924 61.401756 
L 309.442883 60.858211 
L 309.767862 61.146286 
L 310.092842 61.058783 
L 310.417821 61.243882 
L 311.067781 61.932208 
L 311.39276 61.924963 
L 311.71774 62.0633 
L 312.042719 62.033304 
L 312.367699 62.266476 
L 312.692678 62.016647 
L 313.342637 62.469228 
L 313.667617 62.217167 
L 313.992596 61.730568 
L 314.317576 61.794006 
L 314.642555 62.050455 
L 315.617494 62.256139 
L 315.942473 62.660359 
L 316.267453 62.289864 
L 316.592432 62.551404 
L 316.917412 62.303984 
L 317.242391 62.230544 
L 318.21733 62.315158 
L 319.192269 61.940906 
L 319.517248 62.188395 
L 320.492187 62.253401 
L 320.817166 62.538068 
L 321.467125 62.189546 
L 321.792105 62.484711 
L 322.117084 62.601973 
L 322.442064 62.30394 
L 322.767043 62.172634 
L 323.092023 62.250925 
L 323.417002 62.13864 
L 323.741982 61.785281 
L 324.391941 61.740213 
L 324.716921 61.603329 
L 325.36688 61.674047 
L 326.016839 62.157224 
L 326.341818 62.080727 
L 326.666798 61.519232 
L 326.991777 61.93501 
L 327.316757 61.91833 
L 327.641736 61.739124 
L 327.966716 61.773571 
L 328.291695 61.541659 
L 328.616675 61.512103 
L 329.266634 62.103017 
L 329.591613 61.911681 
L 329.916593 62.084151 
L 330.566552 61.927679 
L 331.216511 62.305712 
L 332.516429 62.420227 
L 333.166388 62.01952 
L 333.491368 62.091601 
L 334.466306 62.610051 
L 334.791286 62.571059 
L 335.441245 62.262658 
L 336.091204 62.70771 
L 336.416183 62.806194 
L 337.391122 63.502259 
L 337.716102 63.645812 
L 338.041081 63.592702 
L 338.366061 63.785004 
L 338.69104 64.143883 
L 339.01602 64.119278 
L 339.340999 63.76821 
L 339.665979 63.962323 
L 340.315938 63.961899 
L 340.640917 64.083116 
L 341.290876 63.775006 
L 341.615856 63.414159 
L 342.590794 64.134955 
L 342.915774 64.170085 
L 343.240753 63.972812 
L 343.565733 63.982997 
L 343.890713 64.158943 
L 344.540672 63.756243 
L 344.865651 63.460229 
L 345.190631 63.749886 
L 345.84059 64.000851 
L 346.165569 63.703353 
L 346.490549 64.024515 
L 347.465487 64.404398 
L 347.790467 64.327781 
L 348.440426 64.864279 
L 348.765405 64.49941 
L 349.740344 64.554518 
L 350.065324 64.650563 
L 350.390303 64.379879 
L 351.040262 64.319439 
L 351.365242 64.540563 
L 352.66516 64.867491 
L 353.315119 65.082519 
L 353.640098 65.161117 
L 355.264996 66.084445 
L 355.589975 65.831172 
L 355.914955 65.805454 
L 356.239934 65.429401 
L 356.564914 65.262918 
L 356.889894 65.391317 
L 357.539853 65.151014 
L 357.864832 65.358682 
L 358.189812 65.429058 
L 358.839771 66.068162 
L 359.48973 66.045336 
L 359.814709 66.232079 
L 360.139689 65.767392 
L 360.464668 65.585837 
L 360.789648 65.874685 
L 361.114627 65.829091 
L 361.764586 66.173702 
L 362.414545 65.728279 
L 363.064505 66.180577 
L 363.714464 66.240073 
L 364.039443 66.378789 
L 364.364423 66.097406 
L 364.689402 66.094924 
L 365.014382 66.313753 
L 366.3143 65.517378 
L 366.639279 65.704433 
L 367.614218 65.506714 
L 367.939197 65.743385 
L 368.589156 65.794879 
L 369.239115 66.131763 
L 369.564095 66.105568 
L 369.889075 66.28428 
L 370.539034 65.574552 
L 370.864013 65.839493 
L 371.188993 65.62337 
L 371.513972 65.593172 
L 371.838952 65.405661 
L 372.163931 65.700406 
L 372.488911 65.775282 
L 372.81389 65.483799 
L 373.13887 65.409167 
L 373.463849 65.11381 
L 374.113808 65.56931 
L 376.063686 64.851018 
L 376.388665 64.969205 
L 376.713645 64.733849 
L 377.688583 64.629173 
L 378.013563 64.712949 
L 379.63846 64.148917 
L 379.96344 63.810208 
L 380.288419 64.041149 
L 380.938378 63.807838 
L 381.588337 64.069921 
L 382.563276 63.989626 
L 383.213235 63.733522 
L 383.538215 63.574118 
L 383.863194 63.605555 
L 384.188174 63.479354 
L 384.513153 63.775858 
L 384.838133 63.855936 
L 385.813071 63.743683 
L 386.138051 63.976126 
L 386.46303 63.620894 
L 386.78801 63.818769 
L 387.112989 63.746471 
L 387.762948 63.929613 
L 388.087928 63.955147 
L 388.412907 64.181792 
L 388.737887 64.139714 
L 389.062867 63.884955 
L 389.387846 63.8927 
L 389.712826 63.464477 
L 390.037805 63.429752 
L 391.012744 63.782505 
L 391.337723 63.559847 
L 392.312662 64.045803 
L 392.637641 63.985916 
L 392.962621 64.291477 
L 393.2876 64.429246 
L 393.61258 64.410136 
L 393.937559 64.705401 
L 394.262539 64.789522 
L 394.912498 64.548878 
L 395.237477 64.791772 
L 397.512334 64.388917 
L 397.837314 64.065663 
L 398.162293 63.984821 
L 398.487273 63.617931 
L 398.487273 63.617931 
" clip-path="url(#p006a74e57f)" style="fill: none; stroke-dasharray: 2,3.3; stroke-dashoffset: 0; stroke: #ffa500; stroke-width: 2"/>
   </g>
   <g id="patch_3">
    <path d="M 57.6 307.584 
L 57.6 41.472 
" style="fill: none; stroke: #000000; stroke-width: 0.8; stroke-linejoin: miter; stroke-linecap: square"/>
   </g>
   <g id="patch_4">
    <path d="M 414.72 307.584 
L 414.72 41.472 
" style="fill: none; stroke: #000000; stroke-width: 0.8; stroke-linejoin: miter; stroke-linecap: square"/>
   </g>
   <g id="patch_5">
    <path d="M 57.6 307.584 
L 414.72 307.584 
" style="fill: none; stroke: #000000; stroke-width: 0.8; stroke-linejoin: miter; stroke-linecap: square"/>
   </g>
   <g id="patch_6">
    <path d="M 57.6 41.472 
L 414.72 41.472 
" style="fill: none; stroke: #000000; stroke-width: 0.8; stroke-linejoin: miter; stroke-linecap: square"/>
   </g>
   <g id="text_15">
    <!-- Waiting Time Plot -->
    <g transform="translate(183.833438 8.2635)scale(0.12 -0.12)">
     <defs>
      <path id="DejaVuSans-50" d="M 1259 4147 
L 1259 2394 
L 2053 2394 
Q 2494 2394 2734 2622 
Q 2975 2850 2975 3272 
Q 2975 3691 2734 3919 
Q 2494 4147 2053 4147 
L 1259 4147 
z
M 628 4666 
L 2053 4666 
Q 2838 4666 3239 4311 
Q 3641 3956 3641 3272 
Q 3641 2581 3239 2228 
Q 2838 1875 2053 1875 
L 1259 1875 
L 1259 0 
L 628 0 
L 628 4666 
z
" transform="scale(0.015625)"/>
      <path id="DejaVuSans-6c" d="M 603 4863 
L 1178 4863 
L 1178 0 
L 603 0 
L 603 4863 
z
" transform="scale(0.015625)"/>
     </defs>
     <use xlink:href="#DejaVuSans-57"/>
     <use xlink:href="#DejaVuSans-61" x="92.501953"/>
     <use xlink:href="#DejaVuSans-69" x="153.78125"/>
     <use xlink:href="#DejaVuSans-74" x="181.564453"/>
     <use xlink:href="#DejaVuSans-69" x="220.773438"/>
     <use xlink:href="#DejaVuSans-6e" x="248.556641"/>
     <use xlink:href="#DejaVuSans-67" x="311.935547"/>
     <use xlink:href="#DejaVuSans-20" x="375.412109"/>
     <use xlink:href="#DejaVuSans-54" x="407.199219"/>
     <use xlink:href="#DejaVuSans-69" x="465.158203"/>
     <use xlink:href="#DejaVuSans-6d" x="492.941406"/>
     <use xlink:href="#DejaVuSans-65" x="590.353516"/>
     <use xlink:href="#DejaVuSans-20" x="651.876953"/>
     <use xlink:href="#DejaVuSans-50" x="683.664062"/>
     <use xlink:href="#DejaVuSans-6c" x="743.966797"/>
     <use xlink:href="#DejaVuSans-6f" x="771.75"/>
     <use xlink:href="#DejaVuSans-74" x="832.931641"/>
    </g>
    <!--  avg_d = 1388.6109752211494  -->
    <g transform="translate(138.854062 21.700875)scale(0.12 -0.12)">
     <defs>
      <path id="DejaVuSans-76" d="M 191 3500 
L 800 3500 
L 1894 563 
L 2988 3500 
L 3597 3500 
L 2284 0 
L 1503 0 
L 191 3500 
z
" transform="scale(0.015625)"/>
      <path id="DejaVuSans-5f" d="M 3263 -1063 
L 3263 -1509 
L -63 -1509 
L -63 -1063 
L 3263 -1063 
z
" transform="scale(0.015625)"/>
      <path id="DejaVuSans-3d" d="M 678 2906 
L 4684 2906 
L 4684 2381 
L 678 2381 
L 678 2906 
z
M 678 1631 
L 4684 1631 
L 4684 1100 
L 678 1100 
L 678 1631 
z
" transform="scale(0.015625)"/>
      <path id="DejaVuSans-2e" d="M 684 794 
L 1344 794 
L 1344 0 
L 684 0 
L 684 794 
z
" transform="scale(0.015625)"/>
      <path id="DejaVuSans-39" d="M 703 97 
L 703 672 
Q 941 559 1184 500 
Q 1428 441 1663 441 
Q 2288 441 2617 861 
Q 2947 1281 2994 2138 
Q 2813 1869 2534 1725 
Q 2256 1581 1919 1581 
Q 1219 1581 811 2004 
Q 403 2428 403 3163 
Q 403 3881 828 4315 
Q 1253 4750 1959 4750 
Q 2769 4750 3195 4129 
Q 3622 3509 3622 2328 
Q 3622 1225 3098 567 
Q 2575 -91 1691 -91 
Q 1453 -91 1209 -44 
Q 966 3 703 97 
z
M 1959 2075 
Q 2384 2075 2632 2365 
Q 2881 2656 2881 3163 
Q 2881 3666 2632 3958 
Q 2384 4250 1959 4250 
Q 1534 4250 1286 3958 
Q 1038 3666 1038 3163 
Q 1038 2656 1286 2365 
Q 1534 2075 1959 2075 
z
" transform="scale(0.015625)"/>
      <path id="DejaVuSans-37" d="M 525 4666 
L 3525 4666 
L 3525 4397 
L 1831 0 
L 1172 0 
L 2766 4134 
L 525 4134 
L 525 4666 
z
" transform="scale(0.015625)"/>
     </defs>
     <use xlink:href="#DejaVuSans-20"/>
     <use xlink:href="#DejaVuSans-61" x="31.787109"/>
     <use xlink:href="#DejaVuSans-76" x="93.066406"/>
     <use xlink:href="#DejaVuSans-67" x="152.246094"/>
     <use xlink:href="#DejaVuSans-5f" x="215.722656"/>
     <use xlink:href="#DejaVuSans-64" x="265.722656"/>
     <use xlink:href="#DejaVuSans-20" x="329.199219"/>
     <use xlink:href="#DejaVuSans-3d" x="360.986328"/>
     <use xlink:href="#DejaVuSans-20" x="444.775391"/>
     <use xlink:href="#DejaVuSans-31" x="476.5625"/>
     <use xlink:href="#DejaVuSans-33" x="540.185547"/>
     <use xlink:href="#DejaVuSans-38" x="603.808594"/>
     <use xlink:href="#DejaVuSans-38" x="667.431641"/>
     <use xlink:href="#DejaVuSans-2e" x="731.054688"/>
     <use xlink:href="#DejaVuSans-36" x="762.841797"/>
     <use xlink:href="#DejaVuSans-31" x="826.464844"/>
     <use xlink:href="#DejaVuSans-30" x="890.087891"/>
     <use xlink:href="#DejaVuSans-39" x="953.710938"/>
     <use xlink:href="#DejaVuSans-37" x="1017.333984"/>
     <use xlink:href="#DejaVuSans-35" x="1080.957031"/>
     <use xlink:href="#DejaVuSans-32" x="1144.580078"/>
     <use xlink:href="#DejaVuSans-32" x="1208.203125"/>
     <use xlink:href="#DejaVuSans-31" x="1271.826172"/>
     <use xlink:href="#DejaVuSans-31" x="1335.449219"/>
     <use xlink:href="#DejaVuSans-34" x="1399.072266"/>
     <use xlink:href="#DejaVuSans-39" x="1462.695312"/>
     <use xlink:href="#DejaVuSans-34" x="1526.318359"/>
     <use xlink:href="#DejaVuSans-20" x="1589.941406"/>
    </g>
    <!--  avg_a = 1388.610975221149diff = 4.547473508864641e-13 -->
    <g transform="translate(49.690313 35.472)scale(0.12 -0.12)">
     <defs>
      <path id="DejaVuSans-2d" d="M 313 2009 
L 1997 2009 
L 1997 1497 
L 313 1497 
L 313 2009 
z
" transform="scale(0.015625)"/>
     </defs>
     <use xlink:href="#DejaVuSans-20"/>
     <use xlink:href="#DejaVuSans-61" x="31.787109"/>
     <use xlink:href="#DejaVuSans-76" x="93.066406"/>
     <use xlink:href="#DejaVuSans-67" x="152.246094"/>
     <use xlink:href="#DejaVuSans-5f" x="215.722656"/>
     <use xlink:href="#DejaVuSans-61" x="265.722656"/>
     <use xlink:href="#DejaVuSans-20" x="327.001953"/>
     <use xlink:href="#DejaVuSans-3d" x="358.789062"/>
     <use xlink:href="#DejaVuSans-20" x="442.578125"/>
     <use xlink:href="#DejaVuSans-31" x="474.365234"/>
     <use xlink:href="#DejaVuSans-33" x="537.988281"/>
     <use xlink:href="#DejaVuSans-38" x="601.611328"/>
     <use xlink:href="#DejaVuSans-38" x="665.234375"/>
     <use xlink:href="#DejaVuSans-2e" x="728.857422"/>
     <use xlink:href="#DejaVuSans-36" x="760.644531"/>
     <use xlink:href="#DejaVuSans-31" x="824.267578"/>
     <use xlink:href="#DejaVuSans-30" x="887.890625"/>
     <use xlink:href="#DejaVuSans-39" x="951.513672"/>
     <use xlink:href="#DejaVuSans-37" x="1015.136719"/>
     <use xlink:href="#DejaVuSans-35" x="1078.759766"/>
     <use xlink:href="#DejaVuSans-32" x="1142.382812"/>
     <use xlink:href="#DejaVuSans-32" x="1206.005859"/>
     <use xlink:href="#DejaVuSans-31" x="1269.628906"/>
     <use xlink:href="#DejaVuSans-31" x="1333.251953"/>
     <use xlink:href="#DejaVuSans-34" x="1396.875"/>
     <use xlink:href="#DejaVuSans-39" x="1460.498047"/>
     <use xlink:href="#DejaVuSans-64" x="1524.121094"/>
     <use xlink:href="#DejaVuSans-69" x="1587.597656"/>
     <use xlink:href="#DejaVuSans-66" x="1615.380859"/>
     <use xlink:href="#DejaVuSans-66" x="1650.585938"/>
     <use xlink:href="#DejaVuSans-20" x="1685.791016"/>
     <use xlink:href="#DejaVuSans-3d" x="1717.578125"/>
     <use xlink:href="#DejaVuSans-20" x="1801.367188"/>
     <use xlink:href="#DejaVuSans-34" x="1833.154297"/>
     <use xlink:href="#DejaVuSans-2e" x="1896.777344"/>
     <use xlink:href="#DejaVuSans-35" x="1928.564453"/>
     <use xlink:href="#DejaVuSans-34" x="1992.1875"/>
     <use xlink:href="#DejaVuSans-37" x="2055.810547"/>
     <use xlink:href="#DejaVuSans-34" x="2119.433594"/>
     <use xlink:href="#DejaVuSans-37" x="2183.056641"/>
     <use xlink:href="#DejaVuSans-33" x="2246.679688"/>
     <use xlink:href="#DejaVuSans-35" x="2310.302734"/>
     <use xlink:href="#DejaVuSans-30" x="2373.925781"/>
     <use xlink:href="#DejaVuSans-38" x="2437.548828"/>
     <use xlink:href="#DejaVuSans-38" x="2501.171875"/>
     <use xlink:href="#DejaVuSans-36" x="2564.794922"/>
     <use xlink:href="#DejaVuSans-34" x="2628.417969"/>
     <use xlink:href="#DejaVuSans-36" x="2692.041016"/>
     <use xlink:href="#DejaVuSans-34" x="2755.664062"/>
     <use xlink:href="#DejaVuSans-31" x="2819.287109"/>
     <use xlink:href="#DejaVuSans-65" x="2882.910156"/>
     <use xlink:href="#DejaVuSans-2d" x="2944.433594"/>
     <use xlink:href="#DejaVuSans-31" x="2980.517578"/>
     <use xlink:href="#DejaVuSans-33" x="3044.140625"/>
    </g>
   </g>
   <g id="legend_1">
    <g id="patch_7">
     <path d="M 263.88875 302.584 
L 407.72 302.584 
Q 409.72 302.584 409.72 300.584 
L 409.72 272.22775 
Q 409.72 270.22775 407.72 270.22775 
L 263.88875 270.22775 
Q 261.88875 270.22775 261.88875 272.22775 
L 261.88875 300.584 
Q 261.88875 302.584 263.88875 302.584 
z
" style="fill: #ffffff; opacity: 0.8; stroke: #cccccc; stroke-linejoin: miter"/>
    </g>
    <g id="line2d_15">
     <path d="M 265.88875 278.326187 
L 275.88875 278.326187 
L 285.88875 278.326187 
" style="fill: none; stroke-dasharray: 2,3.3; stroke-dashoffset: 0; stroke: #0000ff; stroke-width: 2"/>
    </g>
    <g id="text_16">
     <!-- Average (Default) -->
     <g transform="translate(293.88875 281.826187)scale(0.1 -0.1)">
      <defs>
       <path id="DejaVuSans-41" d="M 2188 4044 
L 1331 1722 
L 3047 1722 
L 2188 4044 
z
M 1831 4666 
L 2547 4666 
L 4325 0 
L 3669 0 
L 3244 1197 
L 1141 1197 
L 716 0 
L 50 0 
L 1831 4666 
z
" transform="scale(0.015625)"/>
       <path id="DejaVuSans-28" d="M 1984 4856 
Q 1566 4138 1362 3434 
Q 1159 2731 1159 2009 
Q 1159 1288 1364 580 
Q 1569 -128 1984 -844 
L 1484 -844 
Q 1016 -109 783 600 
Q 550 1309 550 2009 
Q 550 2706 781 3412 
Q 1013 4119 1484 4856 
L 1984 4856 
z
" transform="scale(0.015625)"/>
       <path id="DejaVuSans-44" d="M 1259 4147 
L 1259 519 
L 2022 519 
Q 2988 519 3436 956 
Q 3884 1394 3884 2338 
Q 3884 3275 3436 3711 
Q 2988 4147 2022 4147 
L 1259 4147 
z
M 628 4666 
L 1925 4666 
Q 3281 4666 3915 4102 
Q 4550 3538 4550 2338 
Q 4550 1131 3912 565 
Q 3275 0 1925 0 
L 628 0 
L 628 4666 
z
" transform="scale(0.015625)"/>
       <path id="DejaVuSans-29" d="M 513 4856 
L 1013 4856 
Q 1481 4119 1714 3412 
Q 1947 2706 1947 2009 
Q 1947 1309 1714 600 
Q 1481 -109 1013 -844 
L 513 -844 
Q 928 -128 1133 580 
Q 1338 1288 1338 2009 
Q 1338 2731 1133 3434 
Q 928 4138 513 4856 
z
" transform="scale(0.015625)"/>
      </defs>
      <use xlink:href="#DejaVuSans-41"/>
      <use xlink:href="#DejaVuSans-76" x="62.533203"/>
      <use xlink:href="#DejaVuSans-65" x="121.712891"/>
      <use xlink:href="#DejaVuSans-72" x="183.236328"/>
      <use xlink:href="#DejaVuSans-61" x="224.349609"/>
      <use xlink:href="#DejaVuSans-67" x="285.628906"/>
      <use xlink:href="#DejaVuSans-65" x="349.105469"/>
      <use xlink:href="#DejaVuSans-20" x="410.628906"/>
      <use xlink:href="#DejaVuSans-28" x="442.416016"/>
      <use xlink:href="#DejaVuSans-44" x="481.429688"/>
      <use xlink:href="#DejaVuSans-65" x="558.431641"/>
      <use xlink:href="#DejaVuSans-66" x="619.955078"/>
      <use xlink:href="#DejaVuSans-61" x="655.160156"/>
      <use xlink:href="#DejaVuSans-75" x="716.439453"/>
      <use xlink:href="#DejaVuSans-6c" x="779.818359"/>
      <use xlink:href="#DejaVuSans-74" x="807.601562"/>
      <use xlink:href="#DejaVuSans-29" x="846.810547"/>
     </g>
    </g>
    <g id="line2d_16">
     <path d="M 265.88875 293.004312 
L 275.88875 293.004312 
L 285.88875 293.004312 
" style="fill: none; stroke-dasharray: 2,3.3; stroke-dashoffset: 0; stroke: #ffa500; stroke-width: 2"/>
    </g>
    <g id="text_17">
     <!-- Average (Anticipation) -->
     <g transform="translate(293.88875 296.504312)scale(0.1 -0.1)">
      <defs>
       <path id="DejaVuSans-63" d="M 3122 3366 
L 3122 2828 
Q 2878 2963 2633 3030 
Q 2388 3097 2138 3097 
Q 1578 3097 1268 2742 
Q 959 2388 959 1747 
Q 959 1106 1268 751 
Q 1578 397 2138 397 
Q 2388 397 2633 464 
Q 2878 531 3122 666 
L 3122 134 
Q 2881 22 2623 -34 
Q 2366 -91 2075 -91 
Q 1284 -91 818 406 
Q 353 903 353 1747 
Q 353 2603 823 3093 
Q 1294 3584 2113 3584 
Q 2378 3584 2631 3529 
Q 2884 3475 3122 3366 
z
" transform="scale(0.015625)"/>
       <path id="DejaVuSans-70" d="M 1159 525 
L 1159 -1331 
L 581 -1331 
L 581 3500 
L 1159 3500 
L 1159 2969 
Q 1341 3281 1617 3432 
Q 1894 3584 2278 3584 
Q 2916 3584 3314 3078 
Q 3713 2572 3713 1747 
Q 3713 922 3314 415 
Q 2916 -91 2278 -91 
Q 1894 -91 1617 61 
Q 1341 213 1159 525 
z
M 3116 1747 
Q 3116 2381 2855 2742 
Q 2594 3103 2138 3103 
Q 1681 3103 1420 2742 
Q 1159 2381 1159 1747 
Q 1159 1113 1420 752 
Q 1681 391 2138 391 
Q 2594 391 2855 752 
Q 3116 1113 3116 1747 
z
" transform="scale(0.015625)"/>
      </defs>
      <use xlink:href="#DejaVuSans-41"/>
      <use xlink:href="#DejaVuSans-76" x="62.533203"/>
      <use xlink:href="#DejaVuSans-65" x="121.712891"/>
      <use xlink:href="#DejaVuSans-72" x="183.236328"/>
      <use xlink:href="#DejaVuSans-61" x="224.349609"/>
      <use xlink:href="#DejaVuSans-67" x="285.628906"/>
      <use xlink:href="#DejaVuSans-65" x="349.105469"/>
      <use xlink:href="#DejaVuSans-20" x="410.628906"/>
      <use xlink:href="#DejaVuSans-28" x="442.416016"/>
      <use xlink:href="#DejaVuSans-41" x="481.429688"/>
      <use xlink:href="#DejaVuSans-6e" x="549.837891"/>
      <use xlink:href="#DejaVuSans-74" x="613.216797"/>
      <use xlink:href="#DejaVuSans-69" x="652.425781"/>
      <use xlink:href="#DejaVuSans-63" x="680.208984"/>
      <use xlink:href="#DejaVuSans-69" x="735.189453"/>
      <use xlink:href="#DejaVuSans-70" x="762.972656"/>
      <use xlink:href="#DejaVuSans-61" x="826.449219"/>
      <use xlink:href="#DejaVuSans-74" x="887.728516"/>
      <use xlink:href="#DejaVuSans-69" x="926.9375"/>
      <use xlink:href="#DejaVuSans-6f" x="954.720703"/>
      <use xlink:href="#DejaVuSans-6e" x="1015.902344"/>
      <use xlink:href="#DejaVuSans-29" x="1079.28125"/>
     </g>
    </g>
   </g>
  </g>
 </g>
 <defs>
  <clipPath id="p006a74e57f">
   <rect x="57.6" y="41.472" width="357.12" height="266.112"/>
  </clipPath>
 </defs>
</svg>
