<?xml version="1.0" encoding="utf-8" standalone="no"?>
<!DOCTYPE svg PUBLIC "-//W3C//DTD SVG 1.1//EN"
  "http://www.w3.org/Graphics/SVG/1.1/DTD/svg11.dtd">
<svg xmlns:xlink="http://www.w3.org/1999/xlink" width="460.8pt" height="345.6pt" viewBox="0 0 460.8 345.6" xmlns="http://www.w3.org/2000/svg" version="1.1">
 <metadata>
  <rdf:RDF xmlns:dc="http://purl.org/dc/elements/1.1/" xmlns:cc="http://creativecommons.org/ns#" xmlns:rdf="http://www.w3.org/1999/02/22-rdf-syntax-ns#">
   <cc:Work>
    <dc:type rdf:resource="http://purl.org/dc/dcmitype/StillImage"/>
    <dc:date>2022-10-04T13:07:24.561762</dc:date>
    <dc:format>image/svg+xml</dc:format>
    <dc:creator>
     <cc:Agent>
      <dc:title>Matplotlib v3.5.3, https://matplotlib.org/</dc:title>
     </cc:Agent>
    </dc:creator>
   </cc:Work>
  </rdf:RDF>
 </metadata>
 <defs>
  <style type="text/css">*{stroke-linejoin: round; stroke-linecap: butt}</style>
 </defs>
 <g id="figure_1">
  <g id="patch_1">
   <path d="M 0 345.6 
L 460.8 345.6 
L 460.8 0 
L 0 0 
z
" style="fill: #ffffff"/>
  </g>
  <g id="axes_1">
   <g id="patch_2">
    <path d="M 57.6 307.584 
L 414.72 307.584 
L 414.72 41.472 
L 57.6 41.472 
z
" style="fill: #ffffff"/>
   </g>
   <g id="matplotlib.axis_1">
    <g id="xtick_1">
     <g id="line2d_1">
      <defs>
       <path id="m5203b1e14f" d="M 0 0 
L 0 3.5 
" style="stroke: #000000; stroke-width: 0.8"/>
      </defs>
      <g>
       <use xlink:href="#m5203b1e14f" x="73.832727" y="307.584" style="stroke: #000000; stroke-width: 0.8"/>
      </g>
     </g>
     <g id="text_1">
      <!-- 0 -->
      <g transform="translate(70.651477 322.182437)scale(0.1 -0.1)">
       <defs>
        <path id="DejaVuSans-30" d="M 2034 4250 
Q 1547 4250 1301 3770 
Q 1056 3291 1056 2328 
Q 1056 1369 1301 889 
Q 1547 409 2034 409 
Q 2525 409 2770 889 
Q 3016 1369 3016 2328 
Q 3016 3291 2770 3770 
Q 2525 4250 2034 4250 
z
M 2034 4750 
Q 2819 4750 3233 4129 
Q 3647 3509 3647 2328 
Q 3647 1150 3233 529 
Q 2819 -91 2034 -91 
Q 1250 -91 836 529 
Q 422 1150 422 2328 
Q 422 3509 836 4129 
Q 1250 4750 2034 4750 
z
" transform="scale(0.015625)"/>
       </defs>
       <use xlink:href="#DejaVuSans-30"/>
      </g>
     </g>
    </g>
    <g id="xtick_2">
     <g id="line2d_2">
      <g>
       <use xlink:href="#m5203b1e14f" x="138.828632" y="307.584" style="stroke: #000000; stroke-width: 0.8"/>
      </g>
     </g>
     <g id="text_2">
      <!-- 200 -->
      <g transform="translate(129.284882 322.182437)scale(0.1 -0.1)">
       <defs>
        <path id="DejaVuSans-32" d="M 1228 531 
L 3431 531 
L 3431 0 
L 469 0 
L 469 531 
Q 828 903 1448 1529 
Q 2069 2156 2228 2338 
Q 2531 2678 2651 2914 
Q 2772 3150 2772 3378 
Q 2772 3750 2511 3984 
Q 2250 4219 1831 4219 
Q 1534 4219 1204 4116 
Q 875 4013 500 3803 
L 500 4441 
Q 881 4594 1212 4672 
Q 1544 4750 1819 4750 
Q 2544 4750 2975 4387 
Q 3406 4025 3406 3419 
Q 3406 3131 3298 2873 
Q 3191 2616 2906 2266 
Q 2828 2175 2409 1742 
Q 1991 1309 1228 531 
z
" transform="scale(0.015625)"/>
       </defs>
       <use xlink:href="#DejaVuSans-32"/>
       <use xlink:href="#DejaVuSans-30" x="63.623047"/>
       <use xlink:href="#DejaVuSans-30" x="127.246094"/>
      </g>
     </g>
    </g>
    <g id="xtick_3">
     <g id="line2d_3">
      <g>
       <use xlink:href="#m5203b1e14f" x="203.824537" y="307.584" style="stroke: #000000; stroke-width: 0.8"/>
      </g>
     </g>
     <g id="text_3">
      <!-- 400 -->
      <g transform="translate(194.280787 322.182437)scale(0.1 -0.1)">
       <defs>
        <path id="DejaVuSans-34" d="M 2419 4116 
L 825 1625 
L 2419 1625 
L 2419 4116 
z
M 2253 4666 
L 3047 4666 
L 3047 1625 
L 3713 1625 
L 3713 1100 
L 3047 1100 
L 3047 0 
L 2419 0 
L 2419 1100 
L 313 1100 
L 313 1709 
L 2253 4666 
z
" transform="scale(0.015625)"/>
       </defs>
       <use xlink:href="#DejaVuSans-34"/>
       <use xlink:href="#DejaVuSans-30" x="63.623047"/>
       <use xlink:href="#DejaVuSans-30" x="127.246094"/>
      </g>
     </g>
    </g>
    <g id="xtick_4">
     <g id="line2d_4">
      <g>
       <use xlink:href="#m5203b1e14f" x="268.820442" y="307.584" style="stroke: #000000; stroke-width: 0.8"/>
      </g>
     </g>
     <g id="text_4">
      <!-- 600 -->
      <g transform="translate(259.276692 322.182437)scale(0.1 -0.1)">
       <defs>
        <path id="DejaVuSans-36" d="M 2113 2584 
Q 1688 2584 1439 2293 
Q 1191 2003 1191 1497 
Q 1191 994 1439 701 
Q 1688 409 2113 409 
Q 2538 409 2786 701 
Q 3034 994 3034 1497 
Q 3034 2003 2786 2293 
Q 2538 2584 2113 2584 
z
M 3366 4563 
L 3366 3988 
Q 3128 4100 2886 4159 
Q 2644 4219 2406 4219 
Q 1781 4219 1451 3797 
Q 1122 3375 1075 2522 
Q 1259 2794 1537 2939 
Q 1816 3084 2150 3084 
Q 2853 3084 3261 2657 
Q 3669 2231 3669 1497 
Q 3669 778 3244 343 
Q 2819 -91 2113 -91 
Q 1303 -91 875 529 
Q 447 1150 447 2328 
Q 447 3434 972 4092 
Q 1497 4750 2381 4750 
Q 2619 4750 2861 4703 
Q 3103 4656 3366 4563 
z
" transform="scale(0.015625)"/>
       </defs>
       <use xlink:href="#DejaVuSans-36"/>
       <use xlink:href="#DejaVuSans-30" x="63.623047"/>
       <use xlink:href="#DejaVuSans-30" x="127.246094"/>
      </g>
     </g>
    </g>
    <g id="xtick_5">
     <g id="line2d_5">
      <g>
       <use xlink:href="#m5203b1e14f" x="333.816347" y="307.584" style="stroke: #000000; stroke-width: 0.8"/>
      </g>
     </g>
     <g id="text_5">
      <!-- 800 -->
      <g transform="translate(324.272597 322.182437)scale(0.1 -0.1)">
       <defs>
        <path id="DejaVuSans-38" d="M 2034 2216 
Q 1584 2216 1326 1975 
Q 1069 1734 1069 1313 
Q 1069 891 1326 650 
Q 1584 409 2034 409 
Q 2484 409 2743 651 
Q 3003 894 3003 1313 
Q 3003 1734 2745 1975 
Q 2488 2216 2034 2216 
z
M 1403 2484 
Q 997 2584 770 2862 
Q 544 3141 544 3541 
Q 544 4100 942 4425 
Q 1341 4750 2034 4750 
Q 2731 4750 3128 4425 
Q 3525 4100 3525 3541 
Q 3525 3141 3298 2862 
Q 3072 2584 2669 2484 
Q 3125 2378 3379 2068 
Q 3634 1759 3634 1313 
Q 3634 634 3220 271 
Q 2806 -91 2034 -91 
Q 1263 -91 848 271 
Q 434 634 434 1313 
Q 434 1759 690 2068 
Q 947 2378 1403 2484 
z
M 1172 3481 
Q 1172 3119 1398 2916 
Q 1625 2713 2034 2713 
Q 2441 2713 2670 2916 
Q 2900 3119 2900 3481 
Q 2900 3844 2670 4047 
Q 2441 4250 2034 4250 
Q 1625 4250 1398 4047 
Q 1172 3844 1172 3481 
z
" transform="scale(0.015625)"/>
       </defs>
       <use xlink:href="#DejaVuSans-38"/>
       <use xlink:href="#DejaVuSans-30" x="63.623047"/>
       <use xlink:href="#DejaVuSans-30" x="127.246094"/>
      </g>
     </g>
    </g>
    <g id="xtick_6">
     <g id="line2d_6">
      <g>
       <use xlink:href="#m5203b1e14f" x="398.812252" y="307.584" style="stroke: #000000; stroke-width: 0.8"/>
      </g>
     </g>
     <g id="text_6">
      <!-- 1000 -->
      <g transform="translate(386.087252 322.182437)scale(0.1 -0.1)">
       <defs>
        <path id="DejaVuSans-31" d="M 794 531 
L 1825 531 
L 1825 4091 
L 703 3866 
L 703 4441 
L 1819 4666 
L 2450 4666 
L 2450 531 
L 3481 531 
L 3481 0 
L 794 0 
L 794 531 
z
" transform="scale(0.015625)"/>
       </defs>
       <use xlink:href="#DejaVuSans-31"/>
       <use xlink:href="#DejaVuSans-30" x="63.623047"/>
       <use xlink:href="#DejaVuSans-30" x="127.246094"/>
       <use xlink:href="#DejaVuSans-30" x="190.869141"/>
      </g>
     </g>
    </g>
    <g id="text_7">
     <!-- Number of Orders -->
     <g transform="translate(191.261562 335.860562)scale(0.1 -0.1)">
      <defs>
       <path id="DejaVuSans-4e" d="M 628 4666 
L 1478 4666 
L 3547 763 
L 3547 4666 
L 4159 4666 
L 4159 0 
L 3309 0 
L 1241 3903 
L 1241 0 
L 628 0 
L 628 4666 
z
" transform="scale(0.015625)"/>
       <path id="DejaVuSans-75" d="M 544 1381 
L 544 3500 
L 1119 3500 
L 1119 1403 
Q 1119 906 1312 657 
Q 1506 409 1894 409 
Q 2359 409 2629 706 
Q 2900 1003 2900 1516 
L 2900 3500 
L 3475 3500 
L 3475 0 
L 2900 0 
L 2900 538 
Q 2691 219 2414 64 
Q 2138 -91 1772 -91 
Q 1169 -91 856 284 
Q 544 659 544 1381 
z
M 1991 3584 
L 1991 3584 
z
" transform="scale(0.015625)"/>
       <path id="DejaVuSans-6d" d="M 3328 2828 
Q 3544 3216 3844 3400 
Q 4144 3584 4550 3584 
Q 5097 3584 5394 3201 
Q 5691 2819 5691 2113 
L 5691 0 
L 5113 0 
L 5113 2094 
Q 5113 2597 4934 2840 
Q 4756 3084 4391 3084 
Q 3944 3084 3684 2787 
Q 3425 2491 3425 1978 
L 3425 0 
L 2847 0 
L 2847 2094 
Q 2847 2600 2669 2842 
Q 2491 3084 2119 3084 
Q 1678 3084 1418 2786 
Q 1159 2488 1159 1978 
L 1159 0 
L 581 0 
L 581 3500 
L 1159 3500 
L 1159 2956 
Q 1356 3278 1631 3431 
Q 1906 3584 2284 3584 
Q 2666 3584 2933 3390 
Q 3200 3197 3328 2828 
z
" transform="scale(0.015625)"/>
       <path id="DejaVuSans-62" d="M 3116 1747 
Q 3116 2381 2855 2742 
Q 2594 3103 2138 3103 
Q 1681 3103 1420 2742 
Q 1159 2381 1159 1747 
Q 1159 1113 1420 752 
Q 1681 391 2138 391 
Q 2594 391 2855 752 
Q 3116 1113 3116 1747 
z
M 1159 2969 
Q 1341 3281 1617 3432 
Q 1894 3584 2278 3584 
Q 2916 3584 3314 3078 
Q 3713 2572 3713 1747 
Q 3713 922 3314 415 
Q 2916 -91 2278 -91 
Q 1894 -91 1617 61 
Q 1341 213 1159 525 
L 1159 0 
L 581 0 
L 581 4863 
L 1159 4863 
L 1159 2969 
z
" transform="scale(0.015625)"/>
       <path id="DejaVuSans-65" d="M 3597 1894 
L 3597 1613 
L 953 1613 
Q 991 1019 1311 708 
Q 1631 397 2203 397 
Q 2534 397 2845 478 
Q 3156 559 3463 722 
L 3463 178 
Q 3153 47 2828 -22 
Q 2503 -91 2169 -91 
Q 1331 -91 842 396 
Q 353 884 353 1716 
Q 353 2575 817 3079 
Q 1281 3584 2069 3584 
Q 2775 3584 3186 3129 
Q 3597 2675 3597 1894 
z
M 3022 2063 
Q 3016 2534 2758 2815 
Q 2500 3097 2075 3097 
Q 1594 3097 1305 2825 
Q 1016 2553 972 2059 
L 3022 2063 
z
" transform="scale(0.015625)"/>
       <path id="DejaVuSans-72" d="M 2631 2963 
Q 2534 3019 2420 3045 
Q 2306 3072 2169 3072 
Q 1681 3072 1420 2755 
Q 1159 2438 1159 1844 
L 1159 0 
L 581 0 
L 581 3500 
L 1159 3500 
L 1159 2956 
Q 1341 3275 1631 3429 
Q 1922 3584 2338 3584 
Q 2397 3584 2469 3576 
Q 2541 3569 2628 3553 
L 2631 2963 
z
" transform="scale(0.015625)"/>
       <path id="DejaVuSans-20" transform="scale(0.015625)"/>
       <path id="DejaVuSans-6f" d="M 1959 3097 
Q 1497 3097 1228 2736 
Q 959 2375 959 1747 
Q 959 1119 1226 758 
Q 1494 397 1959 397 
Q 2419 397 2687 759 
Q 2956 1122 2956 1747 
Q 2956 2369 2687 2733 
Q 2419 3097 1959 3097 
z
M 1959 3584 
Q 2709 3584 3137 3096 
Q 3566 2609 3566 1747 
Q 3566 888 3137 398 
Q 2709 -91 1959 -91 
Q 1206 -91 779 398 
Q 353 888 353 1747 
Q 353 2609 779 3096 
Q 1206 3584 1959 3584 
z
" transform="scale(0.015625)"/>
       <path id="DejaVuSans-66" d="M 2375 4863 
L 2375 4384 
L 1825 4384 
Q 1516 4384 1395 4259 
Q 1275 4134 1275 3809 
L 1275 3500 
L 2222 3500 
L 2222 3053 
L 1275 3053 
L 1275 0 
L 697 0 
L 697 3053 
L 147 3053 
L 147 3500 
L 697 3500 
L 697 3744 
Q 697 4328 969 4595 
Q 1241 4863 1831 4863 
L 2375 4863 
z
" transform="scale(0.015625)"/>
       <path id="DejaVuSans-4f" d="M 2522 4238 
Q 1834 4238 1429 3725 
Q 1025 3213 1025 2328 
Q 1025 1447 1429 934 
Q 1834 422 2522 422 
Q 3209 422 3611 934 
Q 4013 1447 4013 2328 
Q 4013 3213 3611 3725 
Q 3209 4238 2522 4238 
z
M 2522 4750 
Q 3503 4750 4090 4092 
Q 4678 3434 4678 2328 
Q 4678 1225 4090 567 
Q 3503 -91 2522 -91 
Q 1538 -91 948 565 
Q 359 1222 359 2328 
Q 359 3434 948 4092 
Q 1538 4750 2522 4750 
z
" transform="scale(0.015625)"/>
       <path id="DejaVuSans-64" d="M 2906 2969 
L 2906 4863 
L 3481 4863 
L 3481 0 
L 2906 0 
L 2906 525 
Q 2725 213 2448 61 
Q 2172 -91 1784 -91 
Q 1150 -91 751 415 
Q 353 922 353 1747 
Q 353 2572 751 3078 
Q 1150 3584 1784 3584 
Q 2172 3584 2448 3432 
Q 2725 3281 2906 2969 
z
M 947 1747 
Q 947 1113 1208 752 
Q 1469 391 1925 391 
Q 2381 391 2643 752 
Q 2906 1113 2906 1747 
Q 2906 2381 2643 2742 
Q 2381 3103 1925 3103 
Q 1469 3103 1208 2742 
Q 947 2381 947 1747 
z
" transform="scale(0.015625)"/>
       <path id="DejaVuSans-73" d="M 2834 3397 
L 2834 2853 
Q 2591 2978 2328 3040 
Q 2066 3103 1784 3103 
Q 1356 3103 1142 2972 
Q 928 2841 928 2578 
Q 928 2378 1081 2264 
Q 1234 2150 1697 2047 
L 1894 2003 
Q 2506 1872 2764 1633 
Q 3022 1394 3022 966 
Q 3022 478 2636 193 
Q 2250 -91 1575 -91 
Q 1294 -91 989 -36 
Q 684 19 347 128 
L 347 722 
Q 666 556 975 473 
Q 1284 391 1588 391 
Q 1994 391 2212 530 
Q 2431 669 2431 922 
Q 2431 1156 2273 1281 
Q 2116 1406 1581 1522 
L 1381 1569 
Q 847 1681 609 1914 
Q 372 2147 372 2553 
Q 372 3047 722 3315 
Q 1072 3584 1716 3584 
Q 2034 3584 2315 3537 
Q 2597 3491 2834 3397 
z
" transform="scale(0.015625)"/>
      </defs>
      <use xlink:href="#DejaVuSans-4e"/>
      <use xlink:href="#DejaVuSans-75" x="74.804688"/>
      <use xlink:href="#DejaVuSans-6d" x="138.183594"/>
      <use xlink:href="#DejaVuSans-62" x="235.595703"/>
      <use xlink:href="#DejaVuSans-65" x="299.072266"/>
      <use xlink:href="#DejaVuSans-72" x="360.595703"/>
      <use xlink:href="#DejaVuSans-20" x="401.708984"/>
      <use xlink:href="#DejaVuSans-6f" x="433.496094"/>
      <use xlink:href="#DejaVuSans-66" x="494.677734"/>
      <use xlink:href="#DejaVuSans-20" x="529.882812"/>
      <use xlink:href="#DejaVuSans-4f" x="561.669922"/>
      <use xlink:href="#DejaVuSans-72" x="640.380859"/>
      <use xlink:href="#DejaVuSans-64" x="679.744141"/>
      <use xlink:href="#DejaVuSans-65" x="743.220703"/>
      <use xlink:href="#DejaVuSans-72" x="804.744141"/>
      <use xlink:href="#DejaVuSans-73" x="845.857422"/>
     </g>
    </g>
   </g>
   <g id="matplotlib.axis_2">
    <g id="ytick_1">
     <g id="line2d_7">
      <defs>
       <path id="mc64ff51d2f" d="M 0 0 
L -3.5 0 
" style="stroke: #000000; stroke-width: 0.8"/>
      </defs>
      <g>
       <use xlink:href="#mc64ff51d2f" x="57.6" y="273.189204" style="stroke: #000000; stroke-width: 0.8"/>
      </g>
     </g>
     <g id="text_8">
      <!-- 1000 -->
      <g transform="translate(25.15 276.988423)scale(0.1 -0.1)">
       <use xlink:href="#DejaVuSans-31"/>
       <use xlink:href="#DejaVuSans-30" x="63.623047"/>
       <use xlink:href="#DejaVuSans-30" x="127.246094"/>
       <use xlink:href="#DejaVuSans-30" x="190.869141"/>
      </g>
     </g>
    </g>
    <g id="ytick_2">
     <g id="line2d_8">
      <g>
       <use xlink:href="#mc64ff51d2f" x="57.6" y="221.359702" style="stroke: #000000; stroke-width: 0.8"/>
      </g>
     </g>
     <g id="text_9">
      <!-- 1500 -->
      <g transform="translate(25.15 225.158921)scale(0.1 -0.1)">
       <defs>
        <path id="DejaVuSans-35" d="M 691 4666 
L 3169 4666 
L 3169 4134 
L 1269 4134 
L 1269 2991 
Q 1406 3038 1543 3061 
Q 1681 3084 1819 3084 
Q 2600 3084 3056 2656 
Q 3513 2228 3513 1497 
Q 3513 744 3044 326 
Q 2575 -91 1722 -91 
Q 1428 -91 1123 -41 
Q 819 9 494 109 
L 494 744 
Q 775 591 1075 516 
Q 1375 441 1709 441 
Q 2250 441 2565 725 
Q 2881 1009 2881 1497 
Q 2881 1984 2565 2268 
Q 2250 2553 1709 2553 
Q 1456 2553 1204 2497 
Q 953 2441 691 2322 
L 691 4666 
z
" transform="scale(0.015625)"/>
       </defs>
       <use xlink:href="#DejaVuSans-31"/>
       <use xlink:href="#DejaVuSans-35" x="63.623047"/>
       <use xlink:href="#DejaVuSans-30" x="127.246094"/>
       <use xlink:href="#DejaVuSans-30" x="190.869141"/>
      </g>
     </g>
    </g>
    <g id="ytick_3">
     <g id="line2d_9">
      <g>
       <use xlink:href="#mc64ff51d2f" x="57.6" y="169.5302" style="stroke: #000000; stroke-width: 0.8"/>
      </g>
     </g>
     <g id="text_10">
      <!-- 2000 -->
      <g transform="translate(25.15 173.329419)scale(0.1 -0.1)">
       <use xlink:href="#DejaVuSans-32"/>
       <use xlink:href="#DejaVuSans-30" x="63.623047"/>
       <use xlink:href="#DejaVuSans-30" x="127.246094"/>
       <use xlink:href="#DejaVuSans-30" x="190.869141"/>
      </g>
     </g>
    </g>
    <g id="ytick_4">
     <g id="line2d_10">
      <g>
       <use xlink:href="#mc64ff51d2f" x="57.6" y="117.700698" style="stroke: #000000; stroke-width: 0.8"/>
      </g>
     </g>
     <g id="text_11">
      <!-- 2500 -->
      <g transform="translate(25.15 121.499916)scale(0.1 -0.1)">
       <use xlink:href="#DejaVuSans-32"/>
       <use xlink:href="#DejaVuSans-35" x="63.623047"/>
       <use xlink:href="#DejaVuSans-30" x="127.246094"/>
       <use xlink:href="#DejaVuSans-30" x="190.869141"/>
      </g>
     </g>
    </g>
    <g id="ytick_5">
     <g id="line2d_11">
      <g>
       <use xlink:href="#mc64ff51d2f" x="57.6" y="65.871196" style="stroke: #000000; stroke-width: 0.8"/>
      </g>
     </g>
     <g id="text_12">
      <!-- 3000 -->
      <g transform="translate(25.15 69.670414)scale(0.1 -0.1)">
       <defs>
        <path id="DejaVuSans-33" d="M 2597 2516 
Q 3050 2419 3304 2112 
Q 3559 1806 3559 1356 
Q 3559 666 3084 287 
Q 2609 -91 1734 -91 
Q 1441 -91 1130 -33 
Q 819 25 488 141 
L 488 750 
Q 750 597 1062 519 
Q 1375 441 1716 441 
Q 2309 441 2620 675 
Q 2931 909 2931 1356 
Q 2931 1769 2642 2001 
Q 2353 2234 1838 2234 
L 1294 2234 
L 1294 2753 
L 1863 2753 
Q 2328 2753 2575 2939 
Q 2822 3125 2822 3475 
Q 2822 3834 2567 4026 
Q 2313 4219 1838 4219 
Q 1578 4219 1281 4162 
Q 984 4106 628 3988 
L 628 4550 
Q 988 4650 1302 4700 
Q 1616 4750 1894 4750 
Q 2613 4750 3031 4423 
Q 3450 4097 3450 3541 
Q 3450 3153 3228 2886 
Q 3006 2619 2597 2516 
z
" transform="scale(0.015625)"/>
       </defs>
       <use xlink:href="#DejaVuSans-33"/>
       <use xlink:href="#DejaVuSans-30" x="63.623047"/>
       <use xlink:href="#DejaVuSans-30" x="127.246094"/>
       <use xlink:href="#DejaVuSans-30" x="190.869141"/>
      </g>
     </g>
    </g>
    <g id="text_13">
     <!-- Waiting Time/s -->
     <g transform="translate(19.070312 211.410031)rotate(-90)scale(0.1 -0.1)">
      <defs>
       <path id="DejaVuSans-57" d="M 213 4666 
L 850 4666 
L 1831 722 
L 2809 4666 
L 3519 4666 
L 4500 722 
L 5478 4666 
L 6119 4666 
L 4947 0 
L 4153 0 
L 3169 4050 
L 2175 0 
L 1381 0 
L 213 4666 
z
" transform="scale(0.015625)"/>
       <path id="DejaVuSans-61" d="M 2194 1759 
Q 1497 1759 1228 1600 
Q 959 1441 959 1056 
Q 959 750 1161 570 
Q 1363 391 1709 391 
Q 2188 391 2477 730 
Q 2766 1069 2766 1631 
L 2766 1759 
L 2194 1759 
z
M 3341 1997 
L 3341 0 
L 2766 0 
L 2766 531 
Q 2569 213 2275 61 
Q 1981 -91 1556 -91 
Q 1019 -91 701 211 
Q 384 513 384 1019 
Q 384 1609 779 1909 
Q 1175 2209 1959 2209 
L 2766 2209 
L 2766 2266 
Q 2766 2663 2505 2880 
Q 2244 3097 1772 3097 
Q 1472 3097 1187 3025 
Q 903 2953 641 2809 
L 641 3341 
Q 956 3463 1253 3523 
Q 1550 3584 1831 3584 
Q 2591 3584 2966 3190 
Q 3341 2797 3341 1997 
z
" transform="scale(0.015625)"/>
       <path id="DejaVuSans-69" d="M 603 3500 
L 1178 3500 
L 1178 0 
L 603 0 
L 603 3500 
z
M 603 4863 
L 1178 4863 
L 1178 4134 
L 603 4134 
L 603 4863 
z
" transform="scale(0.015625)"/>
       <path id="DejaVuSans-74" d="M 1172 4494 
L 1172 3500 
L 2356 3500 
L 2356 3053 
L 1172 3053 
L 1172 1153 
Q 1172 725 1289 603 
Q 1406 481 1766 481 
L 2356 481 
L 2356 0 
L 1766 0 
Q 1100 0 847 248 
Q 594 497 594 1153 
L 594 3053 
L 172 3053 
L 172 3500 
L 594 3500 
L 594 4494 
L 1172 4494 
z
" transform="scale(0.015625)"/>
       <path id="DejaVuSans-6e" d="M 3513 2113 
L 3513 0 
L 2938 0 
L 2938 2094 
Q 2938 2591 2744 2837 
Q 2550 3084 2163 3084 
Q 1697 3084 1428 2787 
Q 1159 2491 1159 1978 
L 1159 0 
L 581 0 
L 581 3500 
L 1159 3500 
L 1159 2956 
Q 1366 3272 1645 3428 
Q 1925 3584 2291 3584 
Q 2894 3584 3203 3211 
Q 3513 2838 3513 2113 
z
" transform="scale(0.015625)"/>
       <path id="DejaVuSans-67" d="M 2906 1791 
Q 2906 2416 2648 2759 
Q 2391 3103 1925 3103 
Q 1463 3103 1205 2759 
Q 947 2416 947 1791 
Q 947 1169 1205 825 
Q 1463 481 1925 481 
Q 2391 481 2648 825 
Q 2906 1169 2906 1791 
z
M 3481 434 
Q 3481 -459 3084 -895 
Q 2688 -1331 1869 -1331 
Q 1566 -1331 1297 -1286 
Q 1028 -1241 775 -1147 
L 775 -588 
Q 1028 -725 1275 -790 
Q 1522 -856 1778 -856 
Q 2344 -856 2625 -561 
Q 2906 -266 2906 331 
L 2906 616 
Q 2728 306 2450 153 
Q 2172 0 1784 0 
Q 1141 0 747 490 
Q 353 981 353 1791 
Q 353 2603 747 3093 
Q 1141 3584 1784 3584 
Q 2172 3584 2450 3431 
Q 2728 3278 2906 2969 
L 2906 3500 
L 3481 3500 
L 3481 434 
z
" transform="scale(0.015625)"/>
       <path id="DejaVuSans-54" d="M -19 4666 
L 3928 4666 
L 3928 4134 
L 2272 4134 
L 2272 0 
L 1638 0 
L 1638 4134 
L -19 4134 
L -19 4666 
z
" transform="scale(0.015625)"/>
       <path id="DejaVuSans-2f" d="M 1625 4666 
L 2156 4666 
L 531 -594 
L 0 -594 
L 1625 4666 
z
" transform="scale(0.015625)"/>
      </defs>
      <use xlink:href="#DejaVuSans-57"/>
      <use xlink:href="#DejaVuSans-61" x="92.501953"/>
      <use xlink:href="#DejaVuSans-69" x="153.78125"/>
      <use xlink:href="#DejaVuSans-74" x="181.564453"/>
      <use xlink:href="#DejaVuSans-69" x="220.773438"/>
      <use xlink:href="#DejaVuSans-6e" x="248.556641"/>
      <use xlink:href="#DejaVuSans-67" x="311.935547"/>
      <use xlink:href="#DejaVuSans-20" x="375.412109"/>
      <use xlink:href="#DejaVuSans-54" x="407.199219"/>
      <use xlink:href="#DejaVuSans-69" x="465.158203"/>
      <use xlink:href="#DejaVuSans-6d" x="492.941406"/>
      <use xlink:href="#DejaVuSans-65" x="590.353516"/>
      <use xlink:href="#DejaVuSans-2f" x="651.876953"/>
      <use xlink:href="#DejaVuSans-73" x="685.568359"/>
     </g>
    </g>
   </g>
   <g id="line2d_12">
    <path d="M 73.832727 283.077815 
L 74.157707 280.321545 
L 75.132645 251.933676 
L 76.432563 226.604192 
L 77.082523 204.358349 
L 77.732482 188.649879 
L 78.382441 175.143667 
L 78.70742 172.702881 
L 79.0324 171.63743 
L 79.357379 169.275335 
L 80.007338 158.018319 
L 80.332318 157.290894 
L 80.657297 151.771035 
L 80.982277 154.075869 
L 81.307256 147.031601 
L 81.632236 150.901689 
L 81.957215 149.156375 
L 82.282195 144.07681 
L 82.932154 140.172333 
L 83.257133 141.185056 
L 83.582113 137.92878 
L 83.907093 137.567279 
L 84.232072 139.7253 
L 84.557052 136.450166 
L 84.882031 136.621017 
L 85.207011 131.342935 
L 85.53199 129.643445 
L 85.85697 132.039294 
L 86.181949 125.911806 
L 86.506929 125.037652 
L 86.831908 125.458296 
L 87.156888 124.707323 
L 87.481867 126.003325 
L 87.806847 126.551002 
L 88.131826 124.229486 
L 88.456806 122.870077 
L 88.781785 122.028136 
L 89.106765 122.904763 
L 89.431744 123.010355 
L 89.756724 122.341949 
L 90.081704 119.320791 
L 90.406683 117.684683 
L 90.731663 118.979442 
L 91.056642 121.029712 
L 91.381622 121.375673 
L 91.706601 124.255028 
L 92.031581 124.224861 
L 92.35656 122.375673 
L 92.68154 118.773308 
L 93.006519 119.218389 
L 93.331499 119.142892 
L 93.656478 120.210894 
L 93.981458 117.910947 
L 94.306437 113.60991 
L 94.631417 113.092448 
L 95.281376 107.192978 
L 95.606355 106.920189 
L 95.931335 105.774085 
L 96.256314 104.003206 
L 97.231253 100.99381 
L 97.556233 100.039165 
L 98.206192 101.276181 
L 98.531171 99.954313 
L 98.856151 101.920298 
L 99.50611 104.17165 
L 99.831089 101.160424 
L 100.156069 101.978345 
L 100.481048 100.430929 
L 101.131007 101.087978 
L 101.455987 99.176748 
L 101.780966 98.907037 
L 102.105946 96.399455 
L 102.430925 96.401952 
L 102.755905 97.081437 
L 103.730844 99.961567 
L 104.055823 99.260487 
L 104.380803 99.391901 
L 104.705782 100.868218 
L 105.030762 100.054665 
L 105.355741 100.554251 
L 105.680721 99.370252 
L 106.0057 99.277629 
L 106.33068 99.700483 
L 106.980639 98.097404 
L 107.305618 98.145341 
L 107.630598 99.083245 
L 108.280557 101.879017 
L 108.605536 102.50913 
L 108.930516 102.085866 
L 109.580475 102.974029 
L 109.905455 104.30601 
L 110.230434 103.539376 
L 110.555414 102.394211 
L 110.880393 104.022153 
L 111.205373 103.194802 
L 111.530352 103.572862 
L 111.855332 102.902843 
L 112.180311 101.881467 
L 112.505291 101.315469 
L 112.83027 100.10866 
L 113.15525 100.356239 
L 113.805209 99.074851 
L 114.455168 96.247606 
L 115.430106 97.158443 
L 115.755086 97.513297 
L 116.080066 97.044532 
L 116.405045 97.422682 
L 116.730025 97.387952 
L 117.379984 93.979606 
L 117.704963 94.053947 
L 118.354922 96.178646 
L 118.679902 95.764085 
L 119.65484 93.214206 
L 119.97982 93.758888 
L 120.304799 93.794981 
L 121.279738 91.453511 
L 121.929697 89.42429 
L 122.254676 89.514488 
L 122.579656 90.613251 
L 123.229615 89.402836 
L 123.554595 90.794772 
L 123.879574 90.475823 
L 124.204554 90.548317 
L 124.529533 91.291208 
L 124.854513 91.243103 
L 125.179492 89.534905 
L 125.504472 89.244225 
L 126.154431 87.970211 
L 126.47941 88.074903 
L 127.129369 87.031484 
L 127.454349 85.807972 
L 127.779328 85.803184 
L 128.104308 86.425625 
L 128.429287 86.118938 
L 128.754267 86.051746 
L 129.079247 85.08337 
L 129.404226 84.733484 
L 130.054185 86.028418 
L 130.379165 85.850503 
L 130.704144 86.796973 
L 131.029124 86.913938 
L 131.354103 86.240435 
L 131.679083 84.776114 
L 132.004062 84.872058 
L 132.329042 85.828832 
L 132.979001 83.60067 
L 133.30398 83.198471 
L 134.278919 79.962758 
L 134.603898 79.391821 
L 134.928878 78.08198 
L 135.253857 78.175445 
L 135.578837 78.491373 
L 135.903817 78.076217 
L 136.228796 76.642355 
L 136.553776 77.566334 
L 136.878755 77.278904 
L 137.203735 76.46297 
L 137.528714 77.332277 
L 137.853694 76.623643 
L 138.503653 74.673228 
L 138.828632 74.721045 
L 139.153612 74.567005 
L 139.478591 74.758565 
L 139.803571 75.619783 
L 140.12855 75.690043 
L 140.45353 76.634953 
L 141.103489 76.251022 
L 141.428468 76.401694 
L 141.753448 75.800936 
L 142.078428 75.876811 
L 142.403407 75.532694 
L 142.728387 75.387637 
L 143.053366 75.847253 
L 143.378346 75.775261 
L 143.703325 74.78973 
L 144.028305 74.644046 
L 144.353284 74.687212 
L 144.678264 75.463327 
L 145.003243 75.401882 
L 145.328223 74.990303 
L 145.978182 76.598017 
L 146.303161 76.956872 
L 146.628141 76.226648 
L 146.95312 76.089845 
L 147.603079 76.19002 
L 148.253038 74.783266 
L 148.578018 74.893957 
L 149.227977 75.543381 
L 149.552957 76.259438 
L 149.877936 76.573257 
L 150.202916 75.252062 
L 150.527895 75.214204 
L 150.852875 75.356921 
L 151.177854 74.8881 
L 151.827813 75.212368 
L 152.152793 75.255166 
L 152.477772 75.780814 
L 152.802752 75.526018 
L 153.127731 75.797441 
L 153.77769 73.776106 
L 154.752629 71.742682 
L 155.077609 71.938599 
L 155.402588 71.812884 
L 156.052547 70.086976 
L 156.377527 70.230925 
L 156.702506 69.739531 
L 157.027486 69.913821 
L 157.352465 70.414108 
L 157.677445 70.347891 
L 158.002424 70.651838 
L 158.327404 70.0895 
L 158.652383 70.028271 
L 158.977363 70.324903 
L 159.302342 70.31632 
L 159.627322 69.890595 
L 159.952301 70.073617 
L 160.277281 69.99525 
L 160.60226 70.403207 
L 161.252219 70.057982 
L 161.577199 69.504915 
L 161.902179 69.187451 
L 162.227158 68.282781 
L 162.552138 68.827703 
L 162.877117 68.663627 
L 163.202097 68.689256 
L 163.527076 69.211534 
L 163.852056 68.998655 
L 164.502015 69.139881 
L 165.151974 67.825572 
L 165.476953 67.796544 
L 165.801933 67.46473 
L 166.126912 67.667175 
L 166.451892 67.613824 
L 166.776871 67.74553 
L 167.101851 68.271865 
L 167.42683 68.189444 
L 168.401769 69.009424 
L 169.376708 70.320751 
L 169.701687 70.267459 
L 170.026667 70.095834 
L 170.351646 70.457569 
L 170.676626 69.747738 
L 171.001605 69.848648 
L 171.326585 69.187229 
L 171.651564 69.021364 
L 171.976544 68.554252 
L 172.301523 68.797476 
L 172.951482 69.546433 
L 173.276462 69.220749 
L 173.601441 69.07763 
L 174.57638 69.662848 
L 174.90136 69.434848 
L 175.226339 68.813191 
L 175.876298 69.411624 
L 176.526257 68.874287 
L 176.851237 69.374739 
L 177.176216 68.912545 
L 177.501196 68.992545 
L 178.151155 68.158204 
L 178.476134 67.894557 
L 179.126093 66.725137 
L 179.451073 66.893094 
L 179.776052 67.265849 
L 180.426011 67.19881 
L 180.750991 67.672762 
L 181.075971 67.919234 
L 181.40095 68.778654 
L 182.050909 66.432311 
L 182.375889 66.590889 
L 182.700868 66.54315 
L 183.350827 65.363008 
L 183.675807 65.447436 
L 184.000786 65.688201 
L 184.325766 65.12374 
L 184.650745 65.309743 
L 184.975725 65.348601 
L 185.300704 65.739884 
L 185.625684 64.944207 
L 186.275643 65.153059 
L 186.600622 65.439304 
L 186.925602 65.541554 
L 187.575561 65.451106 
L 188.22552 66.221394 
L 188.875479 65.944363 
L 189.200459 66.164111 
L 190.175397 65.057043 
L 190.500377 65.000328 
L 190.825356 65.179129 
L 191.150336 64.81179 
L 191.800295 65.338204 
L 192.450254 65.205414 
L 192.775233 65.822465 
L 193.425192 65.668827 
L 193.750172 65.54493 
L 194.075152 65.216004 
L 194.725111 65.400057 
L 195.05009 65.136236 
L 195.700049 65.040509 
L 196.350008 65.18178 
L 196.674988 65.003387 
L 196.999967 64.558652 
L 197.324947 64.797815 
L 197.649926 64.704173 
L 197.974906 64.972257 
L 198.624865 64.409093 
L 198.949844 64.961236 
L 199.274824 64.961332 
L 199.599803 65.314506 
L 199.924783 65.230439 
L 200.249762 65.360424 
L 200.574742 65.344076 
L 201.224701 65.714971 
L 201.87466 65.178426 
L 202.19964 65.843377 
L 202.524619 65.72155 
L 202.849599 65.895471 
L 203.174578 65.371499 
L 203.499558 65.626333 
L 203.824537 65.429969 
L 204.149517 65.411598 
L 204.474496 64.667154 
L 204.799476 65.007074 
L 205.124455 64.898174 
L 206.424373 65.046698 
L 206.749353 65.265592 
L 207.074333 64.902212 
L 207.399312 64.911125 
L 207.724292 64.243274 
L 208.049271 64.475933 
L 208.374251 64.376477 
L 208.69923 64.454434 
L 209.02421 64.794031 
L 209.349189 64.843913 
L 209.999148 64.17175 
L 210.324128 63.884628 
L 210.649107 64.164702 
L 211.299066 62.911067 
L 212.598984 63.221985 
L 212.923964 63.032702 
L 213.248943 63.309207 
L 213.898903 62.852555 
L 214.223882 62.92558 
L 214.548862 63.142781 
L 214.873841 63.216662 
L 215.198821 62.986154 
L 215.5238 62.924801 
L 215.84878 62.978387 
L 216.173759 63.436671 
L 217.148698 62.802431 
L 217.798657 63.163641 
L 218.773595 62.520499 
L 219.098575 62.812473 
L 219.748534 62.375287 
L 220.073514 62.093035 
L 220.398493 62.191388 
L 220.723473 62.436985 
L 221.048452 62.124998 
L 222.34837 62.424039 
L 222.67335 62.546197 
L 223.323309 62.179646 
L 223.648288 62.589101 
L 224.623227 61.005906 
L 224.948206 61.206071 
L 225.273186 61.093081 
L 225.598165 60.830008 
L 225.923145 60.250538 
L 226.248124 60.310031 
L 226.573104 60.042093 
L 226.898084 60.099432 
L 227.223063 60.293295 
L 227.548043 60.120886 
L 228.198002 60.430827 
L 229.17294 60.406755 
L 229.49792 60.267925 
L 230.147879 60.575792 
L 230.472858 60.14234 
L 230.797838 60.33992 
L 231.122817 60.200895 
L 231.772776 59.269072 
L 232.097756 59.147269 
L 232.422735 59.345574 
L 232.747715 59.357839 
L 233.722654 58.858012 
L 234.372613 58.854985 
L 234.697592 58.357205 
L 235.022572 58.728054 
L 235.347551 58.80898 
L 235.672531 58.669506 
L 235.99751 59.040775 
L 236.32249 59.186107 
L 236.647469 59.101309 
L 236.972449 58.712016 
L 237.297428 58.743057 
L 237.947387 58.438467 
L 238.272367 58.590653 
L 238.597346 58.496738 
L 238.922326 58.605911 
L 239.247305 58.144344 
L 239.572285 58.271983 
L 240.222244 58.14397 
L 240.872203 57.938313 
L 241.197183 58.106887 
L 241.522162 58.078794 
L 241.847142 57.691525 
L 242.82208 57.911239 
L 243.14706 58.249275 
L 243.797019 57.626644 
L 244.121998 57.532776 
L 244.771957 57.784309 
L 245.096937 57.693729 
L 245.421916 58.138707 
L 245.746896 58.385484 
L 246.071876 58.476789 
L 246.396855 58.964345 
L 246.721835 59.000018 
L 247.371794 58.687667 
L 247.696773 58.796257 
L 248.021753 58.169556 
L 248.996691 58.139796 
L 249.64665 57.712486 
L 249.97163 57.651501 
L 250.296609 57.816383 
L 250.621589 57.700008 
L 250.946568 57.93836 
L 251.271548 57.832998 
L 251.596527 57.913972 
L 251.921507 57.834108 
L 252.571466 58.341316 
L 252.896446 58.253218 
L 253.546405 57.82586 
L 254.846323 57.909099 
L 255.496282 58.372526 
L 256.146241 58.42252 
L 256.47122 58.693975 
L 256.7962 58.445392 
L 257.446159 58.622439 
L 257.771138 58.638189 
L 258.096118 58.438472 
L 258.421097 58.501943 
L 258.746077 58.797365 
L 259.396036 58.947183 
L 260.370975 58.224857 
L 261.345913 59.091678 
L 261.995872 58.924537 
L 262.645831 59.523534 
L 262.970811 59.191163 
L 263.945749 59.005886 
L 265.245667 59.592199 
L 265.895627 59.424699 
L 266.220606 59.606079 
L 266.545586 59.523183 
L 267.195545 59.792007 
L 267.520524 59.835272 
L 267.845504 59.546138 
L 268.170483 59.470666 
L 268.495463 59.578622 
L 268.820442 59.457423 
L 269.470401 60.048778 
L 270.44534 60.085471 
L 271.095299 60.272915 
L 271.420278 60.537334 
L 271.745258 60.345424 
L 272.070238 60.484721 
L 272.395217 60.49993 
L 272.720197 60.734449 
L 273.370156 60.327187 
L 273.695135 60.59792 
L 274.345094 60.611856 
L 275.320033 61.016 
L 275.969992 61.00063 
L 276.294971 61.046386 
L 276.619951 60.891544 
L 276.94493 61.028945 
L 277.594889 60.765186 
L 278.569828 61.098172 
L 278.894808 60.835347 
L 279.219787 60.771975 
L 279.544767 60.425483 
L 279.869746 60.341632 
L 280.519705 59.911266 
L 280.844685 59.835567 
L 281.494644 60.076938 
L 281.819623 60.008008 
L 282.469582 59.636548 
L 282.794562 59.28483 
L 283.444521 58.97363 
L 284.09448 59.345305 
L 284.419459 59.321797 
L 285.069419 59.0183 
L 285.719378 58.955395 
L 286.044357 59.33399 
L 287.344275 59.875113 
L 287.669255 60.055396 
L 288.644193 59.831689 
L 288.969173 59.486154 
L 290.269091 59.753554 
L 290.91905 59.284356 
L 292.218968 59.355885 
L 292.543948 59.514799 
L 292.868927 59.211429 
L 293.193907 59.156819 
L 293.843866 59.216122 
L 294.168845 58.981155 
L 294.493825 59.043784 
L 294.818804 59.366343 
L 295.793743 59.278344 
L 296.118722 59.265408 
L 296.768681 59.642653 
L 297.093661 59.70273 
L 297.41864 59.409912 
L 297.74362 59.593032 
L 298.0686 59.516838 
L 299.043538 60.124209 
L 300.018477 59.978597 
L 300.668436 59.84305 
L 300.993415 59.610415 
L 301.968354 59.842657 
L 302.618313 59.504156 
L 302.943292 59.736646 
L 303.268272 59.525461 
L 303.918231 59.639454 
L 305.543129 58.967329 
L 305.868108 59.187579 
L 306.193088 58.996514 
L 306.518067 59.046339 
L 307.168026 58.811023 
L 307.493006 58.692095 
L 308.142965 58.865416 
L 308.467944 59.156455 
L 308.792924 59.066493 
L 309.117903 58.710202 
L 309.442883 58.596689 
L 309.767862 58.156651 
L 310.092842 58.156317 
L 310.417821 57.878237 
L 311.71774 58.257248 
L 312.042719 58.085251 
L 312.367699 58.234271 
L 313.017658 58.226131 
L 313.667617 58.356791 
L 314.642555 58.537305 
L 314.967535 58.320739 
L 315.292514 58.331348 
L 315.617494 58.530557 
L 315.942473 58.515108 
L 316.267453 58.766208 
L 316.592432 58.642173 
L 316.917412 58.72633 
L 317.242391 58.405834 
L 317.567371 58.416307 
L 317.892351 58.121543 
L 318.21733 58.039357 
L 318.867289 58.043662 
L 319.192269 57.998183 
L 319.842228 57.425722 
L 320.167207 57.469371 
L 321.467125 56.628524 
L 322.767043 56.968996 
L 323.092023 57.20755 
L 323.417002 57.052528 
L 323.741982 57.204428 
L 324.066962 56.880243 
L 324.391941 56.838442 
L 324.716921 56.9747 
L 325.36688 56.62887 
L 326.016839 56.874525 
L 326.991777 57.437054 
L 327.641736 57.329751 
L 327.966716 56.900021 
L 328.616675 56.911762 
L 328.941654 57.145235 
L 329.266634 57.179405 
L 329.916593 56.696124 
L 330.891532 56.87362 
L 331.86647 57.397256 
L 332.19145 57.229523 
L 332.516429 57.49401 
L 333.816347 57.930752 
L 334.466306 57.57593 
L 334.791286 57.417596 
L 335.441245 57.605919 
L 335.766224 57.397216 
L 336.741163 57.641437 
L 337.391122 58.211316 
L 337.716102 57.968449 
L 338.366061 58.060505 
L 339.01602 57.542038 
L 340.965897 58.040538 
L 341.615856 57.684538 
L 341.940835 57.760733 
L 342.590794 57.281456 
L 342.915774 57.359426 
L 343.240753 57.248832 
L 343.890713 57.307129 
L 344.215692 57.09658 
L 345.51561 57.260744 
L 345.84059 57.012496 
L 346.815528 56.938358 
L 347.465487 56.885058 
L 347.790467 57.018324 
L 348.440426 56.570402 
L 348.765405 56.50393 
L 349.090385 56.605849 
L 349.415364 56.527769 
L 350.065324 56.099501 
L 350.390303 55.920595 
L 350.715283 55.539901 
L 351.040262 55.520584 
L 351.365242 55.768628 
L 351.690221 55.858786 
L 352.015201 56.094628 
L 353.315119 56.450295 
L 353.965078 56.223639 
L 354.290057 56.379225 
L 354.615037 56.378967 
L 354.940016 56.213957 
L 355.264996 56.442256 
L 355.914955 56.569731 
L 356.239934 56.390581 
L 356.889894 56.431091 
L 357.214873 56.355777 
L 357.864832 56.563197 
L 358.189812 56.824848 
L 358.514791 56.489269 
L 359.16475 56.527707 
L 359.48973 56.329451 
L 360.139689 56.420847 
L 360.464668 56.073632 
L 360.789648 55.935024 
L 361.764586 56.375789 
L 362.739525 56.276867 
L 363.064505 56.374306 
L 363.389484 56.243835 
L 363.714464 56.409066 
L 364.364423 56.244003 
L 364.689402 56.03474 
L 365.014382 56.026611 
L 365.664341 55.582219 
L 366.639279 55.543543 
L 367.939197 55.767021 
L 368.589156 55.777392 
L 368.914136 55.777361 
L 369.889075 56.146343 
L 370.214054 56.164755 
L 371.188993 55.703413 
L 371.838952 55.70244 
L 372.163931 55.407654 
L 372.81389 55.7144 
L 373.788829 55.916716 
L 374.763767 55.483031 
L 375.088747 55.482114 
L 375.738706 55.257468 
L 378.338542 55.726378 
L 379.313481 55.224771 
L 379.63846 55.368083 
L 379.96344 55.363478 
L 380.288419 55.010153 
L 381.588337 54.975814 
L 382.563276 55.164082 
L 382.888256 54.994374 
L 383.538215 54.978891 
L 384.188174 55.033342 
L 384.513153 54.953223 
L 384.838133 55.074862 
L 385.163112 54.929609 
L 385.813071 55.073288 
L 386.138051 54.919213 
L 386.46303 54.968944 
L 387.112989 54.755851 
L 387.437969 54.98039 
L 387.762948 54.962145 
L 388.737887 55.263847 
L 389.387846 55.089989 
L 390.037805 54.966006 
L 390.687764 55.135616 
L 391.012744 55.150549 
L 391.987682 55.587374 
L 392.637641 55.913371 
L 393.61258 55.482979 
L 394.587518 55.405234 
L 395.237477 55.124684 
L 396.212416 54.931589 
L 396.537396 54.704112 
L 397.187355 54.494784 
L 397.837314 54.092711 
L 398.162293 53.903631 
L 398.487273 53.568 
L 398.487273 53.568 
" clip-path="url(#p87627629a2)" style="fill: none; stroke-dasharray: 2,3.3; stroke-dashoffset: 0; stroke: #0000ff; stroke-width: 2"/>
   </g>
   <g id="line2d_13">
    <path d="M 73.832727 295.488 
L 74.157707 289.56805 
L 74.807666 268.483945 
L 75.132645 274.055096 
L 75.457625 275.96623 
L 75.782604 284.181414 
L 76.107584 275.888601 
L 76.432563 277.321501 
L 76.757543 280.449858 
L 77.407502 268.631309 
L 77.732482 264.367043 
L 78.057461 263.593066 
L 78.382441 263.857091 
L 78.70742 262.687206 
L 79.0324 262.923801 
L 79.682359 260.759961 
L 80.007338 259.104104 
L 80.332318 256.599726 
L 80.657297 258.000136 
L 81.307256 250.934095 
L 81.632236 251.911625 
L 81.957215 252.018379 
L 82.607174 241.463642 
L 82.932154 240.764611 
L 83.257133 241.942461 
L 83.582113 245.306943 
L 83.907093 246.533057 
L 84.232072 245.296921 
L 85.207011 235.753814 
L 85.53199 235.014343 
L 85.85697 231.403826 
L 86.181949 231.036435 
L 86.506929 230.235058 
L 86.831908 230.081595 
L 87.156888 230.458679 
L 87.481867 228.740599 
L 87.806847 226.08387 
L 88.131826 226.411087 
L 88.456806 227.302978 
L 88.781785 224.360282 
L 89.106765 223.116404 
L 89.431744 224.61269 
L 89.756724 225.311698 
L 90.081704 224.223696 
L 90.406683 225.271759 
L 90.731663 225.054483 
L 91.381622 222.589306 
L 91.706601 223.837562 
L 92.031581 221.484069 
L 92.35656 221.498504 
L 92.68154 223.376876 
L 93.006519 223.793272 
L 93.331499 223.745327 
L 93.656478 220.367584 
L 93.981458 220.674682 
L 94.306437 217.998325 
L 94.631417 218.256661 
L 94.956396 217.602463 
L 95.281376 219.133206 
L 95.606355 216.97313 
L 95.931335 217.807187 
L 96.581294 216.856907 
L 97.881212 219.068597 
L 98.206192 219.067676 
L 98.531171 218.905142 
L 98.856151 216.880711 
L 99.18113 216.329608 
L 99.50611 214.929582 
L 99.831089 216.076924 
L 100.156069 215.648573 
L 100.481048 213.497425 
L 100.806028 213.897961 
L 101.131007 212.648112 
L 101.455987 212.830135 
L 102.105946 210.128173 
L 102.430925 209.519871 
L 102.755905 210.45973 
L 103.080885 209.374191 
L 103.405864 208.915152 
L 103.730844 209.060367 
L 104.055823 208.723483 
L 104.380803 207.071214 
L 105.355741 208.920858 
L 105.680721 208.39433 
L 106.0057 209.607251 
L 106.33068 210.195165 
L 106.655659 209.119137 
L 106.980639 208.551761 
L 107.305618 207.649078 
L 107.955577 208.520115 
L 108.605536 207.45715 
L 108.930516 208.347024 
L 109.255495 207.77699 
L 109.580475 207.643947 
L 109.905455 206.847814 
L 110.230434 206.822747 
L 110.555414 207.144885 
L 110.880393 205.485303 
L 111.530352 207.560454 
L 111.855332 207.756297 
L 112.180311 208.220773 
L 112.83027 208.145682 
L 113.15525 208.835399 
L 113.480229 207.553463 
L 114.130188 208.366628 
L 114.455168 207.66966 
L 114.780147 207.877324 
L 115.430106 206.721354 
L 116.080066 206.815604 
L 116.405045 207.230939 
L 117.055004 205.886697 
L 117.379984 204.883249 
L 118.029943 205.806447 
L 118.354922 205.789683 
L 118.679902 205.974392 
L 119.004881 205.959811 
L 119.329861 204.855815 
L 119.65484 204.19668 
L 119.97982 204.757337 
L 120.304799 204.536629 
L 120.629779 204.131762 
L 120.954758 203.372958 
L 121.604717 202.267584 
L 121.929697 201.462216 
L 122.254676 201.150363 
L 122.904636 199.389115 
L 123.229615 199.806551 
L 123.554595 199.399316 
L 123.879574 199.603232 
L 124.204554 199.565807 
L 124.854513 197.977967 
L 125.179492 198.070362 
L 125.504472 197.523658 
L 126.154431 198.092009 
L 126.47941 198.696521 
L 126.80439 198.922953 
L 127.454349 198.429378 
L 128.104308 199.463639 
L 128.429287 199.699441 
L 128.754267 200.269632 
L 129.079247 199.953046 
L 129.729206 199.557736 
L 130.054185 199.044898 
L 130.704144 200.184102 
L 131.354103 199.599599 
L 131.679083 199.531825 
L 132.329042 201.121357 
L 132.979001 200.669811 
L 133.30398 200.642395 
L 133.62896 199.772246 
L 133.953939 199.674673 
L 134.278919 199.96796 
L 134.603898 199.811439 
L 134.928878 200.084856 
L 135.253857 199.913543 
L 135.578837 199.43023 
L 135.903817 199.563155 
L 136.228796 199.991106 
L 136.878755 199.316624 
L 137.203735 199.536088 
L 137.528714 198.666884 
L 137.853694 199.017645 
L 138.178673 199.116972 
L 138.503653 198.843043 
L 138.828632 198.131808 
L 139.478591 198.713152 
L 140.12855 198.317912 
L 140.45353 198.640839 
L 140.778509 199.165169 
L 141.103489 198.762861 
L 141.428468 198.899081 
L 142.078428 198.295887 
L 142.403407 197.6859 
L 143.053366 197.238026 
L 143.703325 196.5458 
L 144.028305 196.545422 
L 144.353284 196.051888 
L 144.678264 195.912523 
L 145.003243 196.494266 
L 145.328223 196.387578 
L 146.628141 197.35939 
L 146.95312 197.044305 
L 147.2781 197.490231 
L 147.603079 197.712631 
L 147.928059 197.491903 
L 148.253038 196.945824 
L 148.578018 196.738055 
L 148.902998 196.810746 
L 149.227977 196.179659 
L 150.202916 197.406842 
L 150.527895 197.214784 
L 150.852875 196.82633 
L 151.177854 196.65162 
L 151.502834 197.131393 
L 151.827813 196.849731 
L 152.802752 196.495769 
L 153.127731 196.899339 
L 153.452711 196.68957 
L 154.10267 197.575394 
L 154.427649 197.281109 
L 154.752629 197.138131 
L 155.402588 195.805952 
L 156.377527 195.241813 
L 156.702506 195.766051 
L 157.027486 195.845183 
L 157.352465 195.531378 
L 158.002424 195.623448 
L 158.327404 195.244885 
L 158.652383 194.304519 
L 158.977363 194.423639 
L 159.302342 193.868148 
L 159.952301 193.444674 
L 160.277281 193.734896 
L 160.60226 193.622254 
L 160.92724 194.00842 
L 161.577199 193.927559 
L 161.902179 193.728548 
L 162.552138 193.925862 
L 162.877117 193.865065 
L 163.202097 194.050442 
L 163.527076 194.060388 
L 164.177035 193.630485 
L 164.502015 194.128508 
L 165.151974 194.09206 
L 166.126912 194.196497 
L 167.101851 193.198731 
L 167.42683 193.396822 
L 167.75181 193.758827 
L 168.07679 193.528304 
L 168.401769 193.943643 
L 168.726749 193.954731 
L 169.376708 194.53976 
L 169.701687 193.850452 
L 170.351646 193.704457 
L 171.001605 194.277438 
L 171.326585 193.974226 
L 171.651564 194.54164 
L 172.301523 194.909173 
L 172.626503 194.41123 
L 172.951482 194.551056 
L 173.276462 194.820354 
L 173.601441 194.800979 
L 173.926421 194.565296 
L 174.2514 194.540433 
L 174.57638 194.356443 
L 175.226339 194.775739 
L 175.551319 194.292906 
L 175.876298 194.275882 
L 176.201278 194.619259 
L 176.526257 194.796128 
L 176.851237 194.636053 
L 177.176216 194.648994 
L 177.501196 194.272302 
L 177.826175 194.538725 
L 178.801114 194.867935 
L 179.126093 194.335445 
L 179.451073 194.278492 
L 179.776052 194.098485 
L 180.426011 193.915616 
L 180.750991 194.149566 
L 181.40095 193.488508 
L 181.72593 193.733798 
L 182.050909 193.832832 
L 183.025848 193.249134 
L 183.350827 193.435943 
L 183.675807 193.15757 
L 184.000786 193.450785 
L 184.975725 192.59004 
L 186.275643 192.737559 
L 186.600622 192.997878 
L 186.925602 192.728507 
L 187.250581 192.707836 
L 187.900541 193.078811 
L 188.875479 193.095852 
L 189.200459 193.414562 
L 189.850418 193.296162 
L 190.175397 193.340031 
L 190.500377 193.073608 
L 191.150336 193.564153 
L 191.475315 193.823942 
L 191.800295 193.337409 
L 192.125274 193.214608 
L 192.450254 193.468512 
L 193.425192 193.464787 
L 193.750172 193.572758 
L 194.400131 192.988907 
L 194.725111 193.180283 
L 195.05009 193.087352 
L 195.37507 193.179588 
L 196.025029 192.977902 
L 197.324947 193.068881 
L 197.649926 193.25342 
L 197.974906 193.252198 
L 198.624865 192.929418 
L 198.949844 193.121645 
L 199.274824 192.948565 
L 199.599803 193.065916 
L 200.574742 192.845813 
L 200.899722 192.534984 
L 201.224701 192.656722 
L 201.87466 192.357179 
L 202.524619 192.677729 
L 203.174578 192.570691 
L 203.499558 192.365064 
L 203.824537 192.013539 
L 204.799476 192.313757 
L 205.124455 192.491594 
L 205.774414 192.254336 
L 206.424373 192.80335 
L 206.749353 192.574892 
L 207.074333 192.640126 
L 207.724292 192.560781 
L 208.374251 192.588814 
L 208.69923 192.786407 
L 209.02421 192.828022 
L 209.674169 193.100252 
L 210.974087 192.603646 
L 211.299066 192.578369 
L 211.624046 192.706803 
L 211.949025 192.527707 
L 212.274005 192.732912 
L 212.598984 192.628968 
L 212.923964 192.713005 
L 213.248943 192.377235 
L 213.898903 192.584579 
L 214.223882 192.522116 
L 214.548862 192.755997 
L 214.873841 192.719076 
L 215.198821 192.938689 
L 215.5238 192.913604 
L 215.84878 192.496415 
L 216.498739 192.130824 
L 217.148698 192.542373 
L 217.473677 192.244292 
L 217.798657 192.36772 
L 218.123636 192.172384 
L 218.448616 192.286716 
L 218.773595 192.107743 
L 219.098575 192.135748 
L 219.423554 192.364028 
L 220.073514 192.504551 
L 220.398493 192.411717 
L 220.723473 192.125593 
L 221.698411 191.857538 
L 222.023391 192.130807 
L 222.34837 192.078608 
L 222.67335 191.887365 
L 222.998329 192.255925 
L 223.323309 192.431113 
L 223.648288 192.447413 
L 224.948206 193.039021 
L 225.273186 193.11722 
L 225.598165 193.036426 
L 225.923145 193.283015 
L 226.573104 192.745763 
L 226.898084 193.085807 
L 227.223063 192.979683 
L 227.548043 193.061502 
L 228.198002 192.983056 
L 228.522981 193.099514 
L 228.847961 192.940555 
L 229.17294 193.060046 
L 229.49792 192.898706 
L 229.822899 193.037418 
L 230.147879 192.937896 
L 231.122817 193.134041 
L 231.447797 192.794076 
L 231.772776 193.111045 
L 232.097756 193.041368 
L 232.422735 193.255682 
L 232.747715 193.018899 
L 233.397674 192.91321 
L 234.372613 193.041382 
L 234.697592 193.297602 
L 235.022572 193.391971 
L 235.99751 192.51669 
L 236.32249 192.30226 
L 236.972449 192.288796 
L 237.297428 192.244917 
L 237.622408 191.989007 
L 237.947387 192.205923 
L 238.597346 192.280899 
L 238.922326 191.773718 
L 239.247305 191.614979 
L 239.572285 191.724475 
L 240.547224 191.337895 
L 240.872203 191.46324 
L 241.197183 191.213781 
L 241.522162 191.234105 
L 242.172121 191.789105 
L 242.82208 191.657186 
L 243.14706 191.617606 
L 243.472039 191.26045 
L 243.797019 191.465643 
L 244.121998 191.019871 
L 244.446978 190.980682 
L 244.771957 191.186425 
L 245.096937 191.24116 
L 246.071876 191.023381 
L 246.396855 191.087618 
L 246.721835 190.952651 
L 247.046814 191.109475 
L 247.371794 191.082209 
L 247.696773 190.912771 
L 248.346732 190.953228 
L 248.671712 190.748256 
L 248.996691 190.981873 
L 249.64665 190.232531 
L 250.296609 190.629334 
L 250.621589 190.43382 
L 250.946568 190.551452 
L 251.271548 190.790968 
L 251.921507 190.566085 
L 252.246486 190.562293 
L 252.571466 190.405401 
L 252.896446 190.476479 
L 253.221425 190.24383 
L 253.546405 190.545309 
L 254.196364 190.17231 
L 254.521343 190.292812 
L 255.496282 190.006031 
L 256.146241 189.898015 
L 256.7962 190.375534 
L 257.121179 190.294511 
L 257.771138 190.589249 
L 258.096118 190.504469 
L 258.421097 190.591041 
L 258.746077 190.43511 
L 259.071057 190.42237 
L 259.396036 190.537678 
L 260.045995 190.121119 
L 260.370975 190.1018 
L 261.020934 189.856112 
L 261.345913 189.82117 
L 261.670893 189.657798 
L 264.595708 190.252294 
L 264.920688 190.268413 
L 265.570647 189.991653 
L 265.895627 189.991068 
L 266.220606 189.742914 
L 266.545586 189.997146 
L 266.870565 189.813536 
L 268.495463 189.903817 
L 269.145422 189.663299 
L 269.470401 189.4112 
L 269.795381 189.38357 
L 270.12036 189.175437 
L 270.44534 189.100112 
L 271.095299 189.226106 
L 271.420278 189.213923 
L 271.745258 188.953757 
L 273.370156 188.816568 
L 274.345094 189.104706 
L 274.670074 188.94885 
L 274.995053 189.158566 
L 275.320033 189.232853 
L 275.645012 188.971561 
L 275.969992 188.940802 
L 276.619951 189.293995 
L 277.919869 189.600077 
L 278.569828 189.220075 
L 279.219787 189.387398 
L 279.544767 189.579858 
L 280.844685 189.670408 
L 281.169664 189.828476 
L 281.494644 189.532359 
L 282.144603 189.556486 
L 282.469582 189.741365 
L 282.794562 189.792724 
L 283.7695 189.400029 
L 284.419459 189.605947 
L 284.744439 189.487915 
L 285.394398 189.504741 
L 285.719378 189.327912 
L 286.694316 189.328591 
L 287.019296 189.379956 
L 287.669255 189.723177 
L 288.319214 189.381863 
L 288.644193 189.501099 
L 289.944111 189.284407 
L 290.269091 189.079059 
L 291.244029 189.00566 
L 291.569009 188.863729 
L 292.218968 188.983321 
L 292.543948 188.840859 
L 294.168845 188.931834 
L 294.493825 189.058501 
L 294.818804 189.059529 
L 295.143784 189.218788 
L 295.468763 189.144531 
L 296.118722 189.328341 
L 296.768681 189.400475 
L 297.74362 189.791957 
L 298.718559 189.300931 
L 299.043538 189.324821 
L 300.018477 188.998881 
L 300.343456 189.238327 
L 300.993415 189.231936 
L 301.643374 189.108461 
L 302.618313 188.58115 
L 303.268272 188.598538 
L 303.593251 188.546652 
L 303.918231 188.365353 
L 304.56819 188.500846 
L 306.193088 188.574372 
L 306.843047 188.727917 
L 307.493006 188.811568 
L 308.142965 188.392012 
L 308.467944 188.433569 
L 308.792924 188.362817 
L 309.442883 188.438224 
L 309.767862 188.303531 
L 310.742801 188.798308 
L 311.067781 188.81358 
L 311.39276 188.666683 
L 311.71774 188.752674 
L 312.042719 188.577283 
L 313.017658 188.5462 
L 313.342637 188.516147 
L 313.667617 188.362402 
L 313.992596 188.37263 
L 314.317576 188.187996 
L 314.642555 188.194312 
L 314.967535 188.046036 
L 315.292514 188.034622 
L 315.942473 187.747153 
L 316.267453 187.877543 
L 316.917412 187.453805 
L 317.892351 187.57244 
L 318.54231 187.465319 
L 318.867289 187.167643 
L 319.842228 186.942628 
L 320.492187 187.085936 
L 321.467125 186.898509 
L 321.792105 187.00682 
L 322.117084 186.950431 
L 322.767043 187.056308 
L 323.092023 186.926374 
L 324.066962 187.332189 
L 325.0419 186.818904 
L 325.36688 186.8857 
L 326.666798 186.706304 
L 327.966716 186.678221 
L 329.266634 187.235309 
L 330.241572 187.523713 
L 330.566552 187.506436 
L 330.891532 187.62926 
L 332.19145 187.433318 
L 332.841409 186.977693 
L 333.166388 187.148749 
L 334.791286 186.98548 
L 335.116265 187.164432 
L 335.766224 187.201701 
L 336.091204 187.113735 
L 337.391122 187.268728 
L 338.041081 186.893429 
L 338.366061 186.967644 
L 339.01602 186.697568 
L 339.340999 186.68034 
L 339.990958 186.827294 
L 341.940835 186.753005 
L 342.590794 186.536032 
L 342.915774 186.391588 
L 343.240753 186.558177 
L 344.865651 186.500536 
L 345.190631 186.545902 
L 345.51561 186.384276 
L 346.165569 186.511065 
L 346.490549 186.460854 
L 346.815528 186.535381 
L 347.465487 186.428379 
L 348.765405 186.600736 
L 349.090385 186.436436 
L 350.715283 186.374506 
L 351.365242 186.450532 
L 351.690221 186.370215 
L 352.66516 186.640598 
L 353.315119 186.452161 
L 353.640098 186.402857 
L 354.290057 186.557596 
L 354.940016 186.354845 
L 356.239934 186.491124 
L 356.564914 186.403331 
L 357.214873 186.079979 
L 357.864832 185.88069 
L 358.839771 186.002774 
L 359.16475 185.909726 
L 359.48973 185.989069 
L 359.814709 185.943049 
L 360.464668 186.14654 
L 361.439607 185.9178 
L 361.764586 185.959466 
L 362.089566 185.7822 
L 363.064505 185.733907 
L 363.714464 185.868262 
L 364.364423 185.878731 
L 364.689402 186.034336 
L 365.339361 186.051006 
L 365.664341 186.171675 
L 366.639279 186.151465 
L 366.964259 186.229317 
L 367.614218 185.934282 
L 368.264177 186.121655 
L 368.914136 186.044333 
L 369.564095 186.125067 
L 369.889075 186.121408 
L 370.214054 185.956067 
L 371.188993 186.124451 
L 372.163931 185.967036 
L 372.81389 185.894469 
L 374.113808 185.592504 
L 374.438788 185.42097 
L 374.763767 185.545196 
L 375.088747 185.547894 
L 375.738706 185.432216 
L 377.038624 185.412967 
L 377.363604 185.578535 
L 377.688583 185.390678 
L 378.338542 185.563265 
L 378.663522 185.463626 
L 378.988501 185.596835 
L 379.63846 185.488804 
L 380.288419 185.635028 
L 380.938378 185.389325 
L 382.563276 185.714562 
L 384.513153 185.808664 
L 384.838133 185.95228 
L 385.488092 185.894584 
L 386.46303 185.901327 
L 387.112989 186.039347 
L 387.437969 186.135387 
L 388.737887 185.7608 
L 389.712826 185.863335 
L 391.012744 185.526488 
L 392.637641 185.587673 
L 393.61258 185.307056 
L 395.237477 185.181517 
L 396.537396 184.797907 
L 397.187355 184.661113 
L 398.162293 184.278552 
L 398.487273 184.136387 
L 398.487273 184.136387 
" clip-path="url(#p87627629a2)" style="fill: none; stroke-dasharray: 2,3.3; stroke-dashoffset: 0; stroke: #ffa500; stroke-width: 2"/>
   </g>
   <g id="patch_3">
    <path d="M 57.6 307.584 
L 57.6 41.472 
" style="fill: none; stroke: #000000; stroke-width: 0.8; stroke-linejoin: miter; stroke-linecap: square"/>
   </g>
   <g id="patch_4">
    <path d="M 414.72 307.584 
L 414.72 41.472 
" style="fill: none; stroke: #000000; stroke-width: 0.8; stroke-linejoin: miter; stroke-linecap: square"/>
   </g>
   <g id="patch_5">
    <path d="M 57.6 307.584 
L 414.72 307.584 
" style="fill: none; stroke: #000000; stroke-width: 0.8; stroke-linejoin: miter; stroke-linecap: square"/>
   </g>
   <g id="patch_6">
    <path d="M 57.6 41.472 
L 414.72 41.472 
" style="fill: none; stroke: #000000; stroke-width: 0.8; stroke-linejoin: miter; stroke-linecap: square"/>
   </g>
   <g id="text_14">
    <!-- Waiting Time Plot -->
    <g transform="translate(183.833438 8.2635)scale(0.12 -0.12)">
     <defs>
      <path id="DejaVuSans-50" d="M 1259 4147 
L 1259 2394 
L 2053 2394 
Q 2494 2394 2734 2622 
Q 2975 2850 2975 3272 
Q 2975 3691 2734 3919 
Q 2494 4147 2053 4147 
L 1259 4147 
z
M 628 4666 
L 2053 4666 
Q 2838 4666 3239 4311 
Q 3641 3956 3641 3272 
Q 3641 2581 3239 2228 
Q 2838 1875 2053 1875 
L 1259 1875 
L 1259 0 
L 628 0 
L 628 4666 
z
" transform="scale(0.015625)"/>
      <path id="DejaVuSans-6c" d="M 603 4863 
L 1178 4863 
L 1178 0 
L 603 0 
L 603 4863 
z
" transform="scale(0.015625)"/>
     </defs>
     <use xlink:href="#DejaVuSans-57"/>
     <use xlink:href="#DejaVuSans-61" x="92.501953"/>
     <use xlink:href="#DejaVuSans-69" x="153.78125"/>
     <use xlink:href="#DejaVuSans-74" x="181.564453"/>
     <use xlink:href="#DejaVuSans-69" x="220.773438"/>
     <use xlink:href="#DejaVuSans-6e" x="248.556641"/>
     <use xlink:href="#DejaVuSans-67" x="311.935547"/>
     <use xlink:href="#DejaVuSans-20" x="375.412109"/>
     <use xlink:href="#DejaVuSans-54" x="407.199219"/>
     <use xlink:href="#DejaVuSans-69" x="465.158203"/>
     <use xlink:href="#DejaVuSans-6d" x="492.941406"/>
     <use xlink:href="#DejaVuSans-65" x="590.353516"/>
     <use xlink:href="#DejaVuSans-20" x="651.876953"/>
     <use xlink:href="#DejaVuSans-50" x="683.664062"/>
     <use xlink:href="#DejaVuSans-6c" x="743.966797"/>
     <use xlink:href="#DejaVuSans-6f" x="771.75"/>
     <use xlink:href="#DejaVuSans-74" x="832.931641"/>
    </g>
    <!--  avg_d = 3118.6891153953316  -->
    <g transform="translate(138.854062 21.700875)scale(0.12 -0.12)">
     <defs>
      <path id="DejaVuSans-76" d="M 191 3500 
L 800 3500 
L 1894 563 
L 2988 3500 
L 3597 3500 
L 2284 0 
L 1503 0 
L 191 3500 
z
" transform="scale(0.015625)"/>
      <path id="DejaVuSans-5f" d="M 3263 -1063 
L 3263 -1509 
L -63 -1509 
L -63 -1063 
L 3263 -1063 
z
" transform="scale(0.015625)"/>
      <path id="DejaVuSans-3d" d="M 678 2906 
L 4684 2906 
L 4684 2381 
L 678 2381 
L 678 2906 
z
M 678 1631 
L 4684 1631 
L 4684 1100 
L 678 1100 
L 678 1631 
z
" transform="scale(0.015625)"/>
      <path id="DejaVuSans-2e" d="M 684 794 
L 1344 794 
L 1344 0 
L 684 0 
L 684 794 
z
" transform="scale(0.015625)"/>
      <path id="DejaVuSans-39" d="M 703 97 
L 703 672 
Q 941 559 1184 500 
Q 1428 441 1663 441 
Q 2288 441 2617 861 
Q 2947 1281 2994 2138 
Q 2813 1869 2534 1725 
Q 2256 1581 1919 1581 
Q 1219 1581 811 2004 
Q 403 2428 403 3163 
Q 403 3881 828 4315 
Q 1253 4750 1959 4750 
Q 2769 4750 3195 4129 
Q 3622 3509 3622 2328 
Q 3622 1225 3098 567 
Q 2575 -91 1691 -91 
Q 1453 -91 1209 -44 
Q 966 3 703 97 
z
M 1959 2075 
Q 2384 2075 2632 2365 
Q 2881 2656 2881 3163 
Q 2881 3666 2632 3958 
Q 2384 4250 1959 4250 
Q 1534 4250 1286 3958 
Q 1038 3666 1038 3163 
Q 1038 2656 1286 2365 
Q 1534 2075 1959 2075 
z
" transform="scale(0.015625)"/>
     </defs>
     <use xlink:href="#DejaVuSans-20"/>
     <use xlink:href="#DejaVuSans-61" x="31.787109"/>
     <use xlink:href="#DejaVuSans-76" x="93.066406"/>
     <use xlink:href="#DejaVuSans-67" x="152.246094"/>
     <use xlink:href="#DejaVuSans-5f" x="215.722656"/>
     <use xlink:href="#DejaVuSans-64" x="265.722656"/>
     <use xlink:href="#DejaVuSans-20" x="329.199219"/>
     <use xlink:href="#DejaVuSans-3d" x="360.986328"/>
     <use xlink:href="#DejaVuSans-20" x="444.775391"/>
     <use xlink:href="#DejaVuSans-33" x="476.5625"/>
     <use xlink:href="#DejaVuSans-31" x="540.185547"/>
     <use xlink:href="#DejaVuSans-31" x="603.808594"/>
     <use xlink:href="#DejaVuSans-38" x="667.431641"/>
     <use xlink:href="#DejaVuSans-2e" x="731.054688"/>
     <use xlink:href="#DejaVuSans-36" x="762.841797"/>
     <use xlink:href="#DejaVuSans-38" x="826.464844"/>
     <use xlink:href="#DejaVuSans-39" x="890.087891"/>
     <use xlink:href="#DejaVuSans-31" x="953.710938"/>
     <use xlink:href="#DejaVuSans-31" x="1017.333984"/>
     <use xlink:href="#DejaVuSans-35" x="1080.957031"/>
     <use xlink:href="#DejaVuSans-33" x="1144.580078"/>
     <use xlink:href="#DejaVuSans-39" x="1208.203125"/>
     <use xlink:href="#DejaVuSans-35" x="1271.826172"/>
     <use xlink:href="#DejaVuSans-33" x="1335.449219"/>
     <use xlink:href="#DejaVuSans-33" x="1399.072266"/>
     <use xlink:href="#DejaVuSans-31" x="1462.695312"/>
     <use xlink:href="#DejaVuSans-36" x="1526.318359"/>
     <use xlink:href="#DejaVuSans-20" x="1589.941406"/>
    </g>
    <!--  avg_a = 1859.0938861029188diff = 1259.5952292924128 -->
    <g transform="translate(55.546875 35.472)scale(0.12 -0.12)">
     <use xlink:href="#DejaVuSans-20"/>
     <use xlink:href="#DejaVuSans-61" x="31.787109"/>
     <use xlink:href="#DejaVuSans-76" x="93.066406"/>
     <use xlink:href="#DejaVuSans-67" x="152.246094"/>
     <use xlink:href="#DejaVuSans-5f" x="215.722656"/>
     <use xlink:href="#DejaVuSans-61" x="265.722656"/>
     <use xlink:href="#DejaVuSans-20" x="327.001953"/>
     <use xlink:href="#DejaVuSans-3d" x="358.789062"/>
     <use xlink:href="#DejaVuSans-20" x="442.578125"/>
     <use xlink:href="#DejaVuSans-31" x="474.365234"/>
     <use xlink:href="#DejaVuSans-38" x="537.988281"/>
     <use xlink:href="#DejaVuSans-35" x="601.611328"/>
     <use xlink:href="#DejaVuSans-39" x="665.234375"/>
     <use xlink:href="#DejaVuSans-2e" x="728.857422"/>
     <use xlink:href="#DejaVuSans-30" x="760.644531"/>
     <use xlink:href="#DejaVuSans-39" x="824.267578"/>
     <use xlink:href="#DejaVuSans-33" x="887.890625"/>
     <use xlink:href="#DejaVuSans-38" x="951.513672"/>
     <use xlink:href="#DejaVuSans-38" x="1015.136719"/>
     <use xlink:href="#DejaVuSans-36" x="1078.759766"/>
     <use xlink:href="#DejaVuSans-31" x="1142.382812"/>
     <use xlink:href="#DejaVuSans-30" x="1206.005859"/>
     <use xlink:href="#DejaVuSans-32" x="1269.628906"/>
     <use xlink:href="#DejaVuSans-39" x="1333.251953"/>
     <use xlink:href="#DejaVuSans-31" x="1396.875"/>
     <use xlink:href="#DejaVuSans-38" x="1460.498047"/>
     <use xlink:href="#DejaVuSans-38" x="1524.121094"/>
     <use xlink:href="#DejaVuSans-64" x="1587.744141"/>
     <use xlink:href="#DejaVuSans-69" x="1651.220703"/>
     <use xlink:href="#DejaVuSans-66" x="1679.003906"/>
     <use xlink:href="#DejaVuSans-66" x="1714.208984"/>
     <use xlink:href="#DejaVuSans-20" x="1749.414062"/>
     <use xlink:href="#DejaVuSans-3d" x="1781.201172"/>
     <use xlink:href="#DejaVuSans-20" x="1864.990234"/>
     <use xlink:href="#DejaVuSans-31" x="1896.777344"/>
     <use xlink:href="#DejaVuSans-32" x="1960.400391"/>
     <use xlink:href="#DejaVuSans-35" x="2024.023438"/>
     <use xlink:href="#DejaVuSans-39" x="2087.646484"/>
     <use xlink:href="#DejaVuSans-2e" x="2151.269531"/>
     <use xlink:href="#DejaVuSans-35" x="2183.056641"/>
     <use xlink:href="#DejaVuSans-39" x="2246.679688"/>
     <use xlink:href="#DejaVuSans-35" x="2310.302734"/>
     <use xlink:href="#DejaVuSans-32" x="2373.925781"/>
     <use xlink:href="#DejaVuSans-32" x="2437.548828"/>
     <use xlink:href="#DejaVuSans-39" x="2501.171875"/>
     <use xlink:href="#DejaVuSans-32" x="2564.794922"/>
     <use xlink:href="#DejaVuSans-39" x="2628.417969"/>
     <use xlink:href="#DejaVuSans-32" x="2692.041016"/>
     <use xlink:href="#DejaVuSans-34" x="2755.664062"/>
     <use xlink:href="#DejaVuSans-31" x="2819.287109"/>
     <use xlink:href="#DejaVuSans-32" x="2882.910156"/>
     <use xlink:href="#DejaVuSans-38" x="2946.533203"/>
    </g>
   </g>
   <g id="legend_1">
    <g id="patch_7">
     <path d="M 263.88875 302.584 
L 407.72 302.584 
Q 409.72 302.584 409.72 300.584 
L 409.72 272.22775 
Q 409.72 270.22775 407.72 270.22775 
L 263.88875 270.22775 
Q 261.88875 270.22775 261.88875 272.22775 
L 261.88875 300.584 
Q 261.88875 302.584 263.88875 302.584 
z
" style="fill: #ffffff; opacity: 0.8; stroke: #cccccc; stroke-linejoin: miter"/>
    </g>
    <g id="line2d_14">
     <path d="M 265.88875 278.326187 
L 275.88875 278.326187 
L 285.88875 278.326187 
" style="fill: none; stroke-dasharray: 2,3.3; stroke-dashoffset: 0; stroke: #0000ff; stroke-width: 2"/>
    </g>
    <g id="text_15">
     <!-- Average (Default) -->
     <g transform="translate(293.88875 281.826187)scale(0.1 -0.1)">
      <defs>
       <path id="DejaVuSans-41" d="M 2188 4044 
L 1331 1722 
L 3047 1722 
L 2188 4044 
z
M 1831 4666 
L 2547 4666 
L 4325 0 
L 3669 0 
L 3244 1197 
L 1141 1197 
L 716 0 
L 50 0 
L 1831 4666 
z
" transform="scale(0.015625)"/>
       <path id="DejaVuSans-28" d="M 1984 4856 
Q 1566 4138 1362 3434 
Q 1159 2731 1159 2009 
Q 1159 1288 1364 580 
Q 1569 -128 1984 -844 
L 1484 -844 
Q 1016 -109 783 600 
Q 550 1309 550 2009 
Q 550 2706 781 3412 
Q 1013 4119 1484 4856 
L 1984 4856 
z
" transform="scale(0.015625)"/>
       <path id="DejaVuSans-44" d="M 1259 4147 
L 1259 519 
L 2022 519 
Q 2988 519 3436 956 
Q 3884 1394 3884 2338 
Q 3884 3275 3436 3711 
Q 2988 4147 2022 4147 
L 1259 4147 
z
M 628 4666 
L 1925 4666 
Q 3281 4666 3915 4102 
Q 4550 3538 4550 2338 
Q 4550 1131 3912 565 
Q 3275 0 1925 0 
L 628 0 
L 628 4666 
z
" transform="scale(0.015625)"/>
       <path id="DejaVuSans-29" d="M 513 4856 
L 1013 4856 
Q 1481 4119 1714 3412 
Q 1947 2706 1947 2009 
Q 1947 1309 1714 600 
Q 1481 -109 1013 -844 
L 513 -844 
Q 928 -128 1133 580 
Q 1338 1288 1338 2009 
Q 1338 2731 1133 3434 
Q 928 4138 513 4856 
z
" transform="scale(0.015625)"/>
      </defs>
      <use xlink:href="#DejaVuSans-41"/>
      <use xlink:href="#DejaVuSans-76" x="62.533203"/>
      <use xlink:href="#DejaVuSans-65" x="121.712891"/>
      <use xlink:href="#DejaVuSans-72" x="183.236328"/>
      <use xlink:href="#DejaVuSans-61" x="224.349609"/>
      <use xlink:href="#DejaVuSans-67" x="285.628906"/>
      <use xlink:href="#DejaVuSans-65" x="349.105469"/>
      <use xlink:href="#DejaVuSans-20" x="410.628906"/>
      <use xlink:href="#DejaVuSans-28" x="442.416016"/>
      <use xlink:href="#DejaVuSans-44" x="481.429688"/>
      <use xlink:href="#DejaVuSans-65" x="558.431641"/>
      <use xlink:href="#DejaVuSans-66" x="619.955078"/>
      <use xlink:href="#DejaVuSans-61" x="655.160156"/>
      <use xlink:href="#DejaVuSans-75" x="716.439453"/>
      <use xlink:href="#DejaVuSans-6c" x="779.818359"/>
      <use xlink:href="#DejaVuSans-74" x="807.601562"/>
      <use xlink:href="#DejaVuSans-29" x="846.810547"/>
     </g>
    </g>
    <g id="line2d_15">
     <path d="M 265.88875 293.004312 
L 275.88875 293.004312 
L 285.88875 293.004312 
" style="fill: none; stroke-dasharray: 2,3.3; stroke-dashoffset: 0; stroke: #ffa500; stroke-width: 2"/>
    </g>
    <g id="text_16">
     <!-- Average (Anticipation) -->
     <g transform="translate(293.88875 296.504312)scale(0.1 -0.1)">
      <defs>
       <path id="DejaVuSans-63" d="M 3122 3366 
L 3122 2828 
Q 2878 2963 2633 3030 
Q 2388 3097 2138 3097 
Q 1578 3097 1268 2742 
Q 959 2388 959 1747 
Q 959 1106 1268 751 
Q 1578 397 2138 397 
Q 2388 397 2633 464 
Q 2878 531 3122 666 
L 3122 134 
Q 2881 22 2623 -34 
Q 2366 -91 2075 -91 
Q 1284 -91 818 406 
Q 353 903 353 1747 
Q 353 2603 823 3093 
Q 1294 3584 2113 3584 
Q 2378 3584 2631 3529 
Q 2884 3475 3122 3366 
z
" transform="scale(0.015625)"/>
       <path id="DejaVuSans-70" d="M 1159 525 
L 1159 -1331 
L 581 -1331 
L 581 3500 
L 1159 3500 
L 1159 2969 
Q 1341 3281 1617 3432 
Q 1894 3584 2278 3584 
Q 2916 3584 3314 3078 
Q 3713 2572 3713 1747 
Q 3713 922 3314 415 
Q 2916 -91 2278 -91 
Q 1894 -91 1617 61 
Q 1341 213 1159 525 
z
M 3116 1747 
Q 3116 2381 2855 2742 
Q 2594 3103 2138 3103 
Q 1681 3103 1420 2742 
Q 1159 2381 1159 1747 
Q 1159 1113 1420 752 
Q 1681 391 2138 391 
Q 2594 391 2855 752 
Q 3116 1113 3116 1747 
z
" transform="scale(0.015625)"/>
      </defs>
      <use xlink:href="#DejaVuSans-41"/>
      <use xlink:href="#DejaVuSans-76" x="62.533203"/>
      <use xlink:href="#DejaVuSans-65" x="121.712891"/>
      <use xlink:href="#DejaVuSans-72" x="183.236328"/>
      <use xlink:href="#DejaVuSans-61" x="224.349609"/>
      <use xlink:href="#DejaVuSans-67" x="285.628906"/>
      <use xlink:href="#DejaVuSans-65" x="349.105469"/>
      <use xlink:href="#DejaVuSans-20" x="410.628906"/>
      <use xlink:href="#DejaVuSans-28" x="442.416016"/>
      <use xlink:href="#DejaVuSans-41" x="481.429688"/>
      <use xlink:href="#DejaVuSans-6e" x="549.837891"/>
      <use xlink:href="#DejaVuSans-74" x="613.216797"/>
      <use xlink:href="#DejaVuSans-69" x="652.425781"/>
      <use xlink:href="#DejaVuSans-63" x="680.208984"/>
      <use xlink:href="#DejaVuSans-69" x="735.189453"/>
      <use xlink:href="#DejaVuSans-70" x="762.972656"/>
      <use xlink:href="#DejaVuSans-61" x="826.449219"/>
      <use xlink:href="#DejaVuSans-74" x="887.728516"/>
      <use xlink:href="#DejaVuSans-69" x="926.9375"/>
      <use xlink:href="#DejaVuSans-6f" x="954.720703"/>
      <use xlink:href="#DejaVuSans-6e" x="1015.902344"/>
      <use xlink:href="#DejaVuSans-29" x="1079.28125"/>
     </g>
    </g>
   </g>
  </g>
 </g>
 <defs>
  <clipPath id="p87627629a2">
   <rect x="57.6" y="41.472" width="357.12" height="266.112"/>
  </clipPath>
 </defs>
</svg>
