<?xml version="1.0" encoding="utf-8" standalone="no"?>
<!DOCTYPE svg PUBLIC "-//W3C//DTD SVG 1.1//EN"
  "http://www.w3.org/Graphics/SVG/1.1/DTD/svg11.dtd">
<svg xmlns:xlink="http://www.w3.org/1999/xlink" width="460.8pt" height="345.6pt" viewBox="0 0 460.8 345.6" xmlns="http://www.w3.org/2000/svg" version="1.1">
 <metadata>
  <rdf:RDF xmlns:dc="http://purl.org/dc/elements/1.1/" xmlns:cc="http://creativecommons.org/ns#" xmlns:rdf="http://www.w3.org/1999/02/22-rdf-syntax-ns#">
   <cc:Work>
    <dc:type rdf:resource="http://purl.org/dc/dcmitype/StillImage"/>
    <dc:date>2022-10-04T13:05:11.217400</dc:date>
    <dc:format>image/svg+xml</dc:format>
    <dc:creator>
     <cc:Agent>
      <dc:title>Matplotlib v3.5.3, https://matplotlib.org/</dc:title>
     </cc:Agent>
    </dc:creator>
   </cc:Work>
  </rdf:RDF>
 </metadata>
 <defs>
  <style type="text/css">*{stroke-linejoin: round; stroke-linecap: butt}</style>
 </defs>
 <g id="figure_1">
  <g id="patch_1">
   <path d="M 0 345.6 
L 460.8 345.6 
L 460.8 0 
L 0 0 
z
" style="fill: #ffffff"/>
  </g>
  <g id="axes_1">
   <g id="patch_2">
    <path d="M 57.6 307.584 
L 414.72 307.584 
L 414.72 41.472 
L 57.6 41.472 
z
" style="fill: #ffffff"/>
   </g>
   <g id="matplotlib.axis_1">
    <g id="xtick_1">
     <g id="line2d_1">
      <defs>
       <path id="m2c65ed7a5c" d="M 0 0 
L 0 3.5 
" style="stroke: #000000; stroke-width: 0.8"/>
      </defs>
      <g>
       <use xlink:href="#m2c65ed7a5c" x="73.832727" y="307.584" style="stroke: #000000; stroke-width: 0.8"/>
      </g>
     </g>
     <g id="text_1">
      <!-- 0 -->
      <g transform="translate(70.651477 322.182437)scale(0.1 -0.1)">
       <defs>
        <path id="DejaVuSans-30" d="M 2034 4250 
Q 1547 4250 1301 3770 
Q 1056 3291 1056 2328 
Q 1056 1369 1301 889 
Q 1547 409 2034 409 
Q 2525 409 2770 889 
Q 3016 1369 3016 2328 
Q 3016 3291 2770 3770 
Q 2525 4250 2034 4250 
z
M 2034 4750 
Q 2819 4750 3233 4129 
Q 3647 3509 3647 2328 
Q 3647 1150 3233 529 
Q 2819 -91 2034 -91 
Q 1250 -91 836 529 
Q 422 1150 422 2328 
Q 422 3509 836 4129 
Q 1250 4750 2034 4750 
z
" transform="scale(0.015625)"/>
       </defs>
       <use xlink:href="#DejaVuSans-30"/>
      </g>
     </g>
    </g>
    <g id="xtick_2">
     <g id="line2d_2">
      <g>
       <use xlink:href="#m2c65ed7a5c" x="138.828632" y="307.584" style="stroke: #000000; stroke-width: 0.8"/>
      </g>
     </g>
     <g id="text_2">
      <!-- 200 -->
      <g transform="translate(129.284882 322.182437)scale(0.1 -0.1)">
       <defs>
        <path id="DejaVuSans-32" d="M 1228 531 
L 3431 531 
L 3431 0 
L 469 0 
L 469 531 
Q 828 903 1448 1529 
Q 2069 2156 2228 2338 
Q 2531 2678 2651 2914 
Q 2772 3150 2772 3378 
Q 2772 3750 2511 3984 
Q 2250 4219 1831 4219 
Q 1534 4219 1204 4116 
Q 875 4013 500 3803 
L 500 4441 
Q 881 4594 1212 4672 
Q 1544 4750 1819 4750 
Q 2544 4750 2975 4387 
Q 3406 4025 3406 3419 
Q 3406 3131 3298 2873 
Q 3191 2616 2906 2266 
Q 2828 2175 2409 1742 
Q 1991 1309 1228 531 
z
" transform="scale(0.015625)"/>
       </defs>
       <use xlink:href="#DejaVuSans-32"/>
       <use xlink:href="#DejaVuSans-30" x="63.623047"/>
       <use xlink:href="#DejaVuSans-30" x="127.246094"/>
      </g>
     </g>
    </g>
    <g id="xtick_3">
     <g id="line2d_3">
      <g>
       <use xlink:href="#m2c65ed7a5c" x="203.824537" y="307.584" style="stroke: #000000; stroke-width: 0.8"/>
      </g>
     </g>
     <g id="text_3">
      <!-- 400 -->
      <g transform="translate(194.280787 322.182437)scale(0.1 -0.1)">
       <defs>
        <path id="DejaVuSans-34" d="M 2419 4116 
L 825 1625 
L 2419 1625 
L 2419 4116 
z
M 2253 4666 
L 3047 4666 
L 3047 1625 
L 3713 1625 
L 3713 1100 
L 3047 1100 
L 3047 0 
L 2419 0 
L 2419 1100 
L 313 1100 
L 313 1709 
L 2253 4666 
z
" transform="scale(0.015625)"/>
       </defs>
       <use xlink:href="#DejaVuSans-34"/>
       <use xlink:href="#DejaVuSans-30" x="63.623047"/>
       <use xlink:href="#DejaVuSans-30" x="127.246094"/>
      </g>
     </g>
    </g>
    <g id="xtick_4">
     <g id="line2d_4">
      <g>
       <use xlink:href="#m2c65ed7a5c" x="268.820442" y="307.584" style="stroke: #000000; stroke-width: 0.8"/>
      </g>
     </g>
     <g id="text_4">
      <!-- 600 -->
      <g transform="translate(259.276692 322.182437)scale(0.1 -0.1)">
       <defs>
        <path id="DejaVuSans-36" d="M 2113 2584 
Q 1688 2584 1439 2293 
Q 1191 2003 1191 1497 
Q 1191 994 1439 701 
Q 1688 409 2113 409 
Q 2538 409 2786 701 
Q 3034 994 3034 1497 
Q 3034 2003 2786 2293 
Q 2538 2584 2113 2584 
z
M 3366 4563 
L 3366 3988 
Q 3128 4100 2886 4159 
Q 2644 4219 2406 4219 
Q 1781 4219 1451 3797 
Q 1122 3375 1075 2522 
Q 1259 2794 1537 2939 
Q 1816 3084 2150 3084 
Q 2853 3084 3261 2657 
Q 3669 2231 3669 1497 
Q 3669 778 3244 343 
Q 2819 -91 2113 -91 
Q 1303 -91 875 529 
Q 447 1150 447 2328 
Q 447 3434 972 4092 
Q 1497 4750 2381 4750 
Q 2619 4750 2861 4703 
Q 3103 4656 3366 4563 
z
" transform="scale(0.015625)"/>
       </defs>
       <use xlink:href="#DejaVuSans-36"/>
       <use xlink:href="#DejaVuSans-30" x="63.623047"/>
       <use xlink:href="#DejaVuSans-30" x="127.246094"/>
      </g>
     </g>
    </g>
    <g id="xtick_5">
     <g id="line2d_5">
      <g>
       <use xlink:href="#m2c65ed7a5c" x="333.816347" y="307.584" style="stroke: #000000; stroke-width: 0.8"/>
      </g>
     </g>
     <g id="text_5">
      <!-- 800 -->
      <g transform="translate(324.272597 322.182437)scale(0.1 -0.1)">
       <defs>
        <path id="DejaVuSans-38" d="M 2034 2216 
Q 1584 2216 1326 1975 
Q 1069 1734 1069 1313 
Q 1069 891 1326 650 
Q 1584 409 2034 409 
Q 2484 409 2743 651 
Q 3003 894 3003 1313 
Q 3003 1734 2745 1975 
Q 2488 2216 2034 2216 
z
M 1403 2484 
Q 997 2584 770 2862 
Q 544 3141 544 3541 
Q 544 4100 942 4425 
Q 1341 4750 2034 4750 
Q 2731 4750 3128 4425 
Q 3525 4100 3525 3541 
Q 3525 3141 3298 2862 
Q 3072 2584 2669 2484 
Q 3125 2378 3379 2068 
Q 3634 1759 3634 1313 
Q 3634 634 3220 271 
Q 2806 -91 2034 -91 
Q 1263 -91 848 271 
Q 434 634 434 1313 
Q 434 1759 690 2068 
Q 947 2378 1403 2484 
z
M 1172 3481 
Q 1172 3119 1398 2916 
Q 1625 2713 2034 2713 
Q 2441 2713 2670 2916 
Q 2900 3119 2900 3481 
Q 2900 3844 2670 4047 
Q 2441 4250 2034 4250 
Q 1625 4250 1398 4047 
Q 1172 3844 1172 3481 
z
" transform="scale(0.015625)"/>
       </defs>
       <use xlink:href="#DejaVuSans-38"/>
       <use xlink:href="#DejaVuSans-30" x="63.623047"/>
       <use xlink:href="#DejaVuSans-30" x="127.246094"/>
      </g>
     </g>
    </g>
    <g id="xtick_6">
     <g id="line2d_6">
      <g>
       <use xlink:href="#m2c65ed7a5c" x="398.812252" y="307.584" style="stroke: #000000; stroke-width: 0.8"/>
      </g>
     </g>
     <g id="text_6">
      <!-- 1000 -->
      <g transform="translate(386.087252 322.182437)scale(0.1 -0.1)">
       <defs>
        <path id="DejaVuSans-31" d="M 794 531 
L 1825 531 
L 1825 4091 
L 703 3866 
L 703 4441 
L 1819 4666 
L 2450 4666 
L 2450 531 
L 3481 531 
L 3481 0 
L 794 0 
L 794 531 
z
" transform="scale(0.015625)"/>
       </defs>
       <use xlink:href="#DejaVuSans-31"/>
       <use xlink:href="#DejaVuSans-30" x="63.623047"/>
       <use xlink:href="#DejaVuSans-30" x="127.246094"/>
       <use xlink:href="#DejaVuSans-30" x="190.869141"/>
      </g>
     </g>
    </g>
    <g id="text_7">
     <!-- Number of Orders -->
     <g transform="translate(191.261562 335.860562)scale(0.1 -0.1)">
      <defs>
       <path id="DejaVuSans-4e" d="M 628 4666 
L 1478 4666 
L 3547 763 
L 3547 4666 
L 4159 4666 
L 4159 0 
L 3309 0 
L 1241 3903 
L 1241 0 
L 628 0 
L 628 4666 
z
" transform="scale(0.015625)"/>
       <path id="DejaVuSans-75" d="M 544 1381 
L 544 3500 
L 1119 3500 
L 1119 1403 
Q 1119 906 1312 657 
Q 1506 409 1894 409 
Q 2359 409 2629 706 
Q 2900 1003 2900 1516 
L 2900 3500 
L 3475 3500 
L 3475 0 
L 2900 0 
L 2900 538 
Q 2691 219 2414 64 
Q 2138 -91 1772 -91 
Q 1169 -91 856 284 
Q 544 659 544 1381 
z
M 1991 3584 
L 1991 3584 
z
" transform="scale(0.015625)"/>
       <path id="DejaVuSans-6d" d="M 3328 2828 
Q 3544 3216 3844 3400 
Q 4144 3584 4550 3584 
Q 5097 3584 5394 3201 
Q 5691 2819 5691 2113 
L 5691 0 
L 5113 0 
L 5113 2094 
Q 5113 2597 4934 2840 
Q 4756 3084 4391 3084 
Q 3944 3084 3684 2787 
Q 3425 2491 3425 1978 
L 3425 0 
L 2847 0 
L 2847 2094 
Q 2847 2600 2669 2842 
Q 2491 3084 2119 3084 
Q 1678 3084 1418 2786 
Q 1159 2488 1159 1978 
L 1159 0 
L 581 0 
L 581 3500 
L 1159 3500 
L 1159 2956 
Q 1356 3278 1631 3431 
Q 1906 3584 2284 3584 
Q 2666 3584 2933 3390 
Q 3200 3197 3328 2828 
z
" transform="scale(0.015625)"/>
       <path id="DejaVuSans-62" d="M 3116 1747 
Q 3116 2381 2855 2742 
Q 2594 3103 2138 3103 
Q 1681 3103 1420 2742 
Q 1159 2381 1159 1747 
Q 1159 1113 1420 752 
Q 1681 391 2138 391 
Q 2594 391 2855 752 
Q 3116 1113 3116 1747 
z
M 1159 2969 
Q 1341 3281 1617 3432 
Q 1894 3584 2278 3584 
Q 2916 3584 3314 3078 
Q 3713 2572 3713 1747 
Q 3713 922 3314 415 
Q 2916 -91 2278 -91 
Q 1894 -91 1617 61 
Q 1341 213 1159 525 
L 1159 0 
L 581 0 
L 581 4863 
L 1159 4863 
L 1159 2969 
z
" transform="scale(0.015625)"/>
       <path id="DejaVuSans-65" d="M 3597 1894 
L 3597 1613 
L 953 1613 
Q 991 1019 1311 708 
Q 1631 397 2203 397 
Q 2534 397 2845 478 
Q 3156 559 3463 722 
L 3463 178 
Q 3153 47 2828 -22 
Q 2503 -91 2169 -91 
Q 1331 -91 842 396 
Q 353 884 353 1716 
Q 353 2575 817 3079 
Q 1281 3584 2069 3584 
Q 2775 3584 3186 3129 
Q 3597 2675 3597 1894 
z
M 3022 2063 
Q 3016 2534 2758 2815 
Q 2500 3097 2075 3097 
Q 1594 3097 1305 2825 
Q 1016 2553 972 2059 
L 3022 2063 
z
" transform="scale(0.015625)"/>
       <path id="DejaVuSans-72" d="M 2631 2963 
Q 2534 3019 2420 3045 
Q 2306 3072 2169 3072 
Q 1681 3072 1420 2755 
Q 1159 2438 1159 1844 
L 1159 0 
L 581 0 
L 581 3500 
L 1159 3500 
L 1159 2956 
Q 1341 3275 1631 3429 
Q 1922 3584 2338 3584 
Q 2397 3584 2469 3576 
Q 2541 3569 2628 3553 
L 2631 2963 
z
" transform="scale(0.015625)"/>
       <path id="DejaVuSans-20" transform="scale(0.015625)"/>
       <path id="DejaVuSans-6f" d="M 1959 3097 
Q 1497 3097 1228 2736 
Q 959 2375 959 1747 
Q 959 1119 1226 758 
Q 1494 397 1959 397 
Q 2419 397 2687 759 
Q 2956 1122 2956 1747 
Q 2956 2369 2687 2733 
Q 2419 3097 1959 3097 
z
M 1959 3584 
Q 2709 3584 3137 3096 
Q 3566 2609 3566 1747 
Q 3566 888 3137 398 
Q 2709 -91 1959 -91 
Q 1206 -91 779 398 
Q 353 888 353 1747 
Q 353 2609 779 3096 
Q 1206 3584 1959 3584 
z
" transform="scale(0.015625)"/>
       <path id="DejaVuSans-66" d="M 2375 4863 
L 2375 4384 
L 1825 4384 
Q 1516 4384 1395 4259 
Q 1275 4134 1275 3809 
L 1275 3500 
L 2222 3500 
L 2222 3053 
L 1275 3053 
L 1275 0 
L 697 0 
L 697 3053 
L 147 3053 
L 147 3500 
L 697 3500 
L 697 3744 
Q 697 4328 969 4595 
Q 1241 4863 1831 4863 
L 2375 4863 
z
" transform="scale(0.015625)"/>
       <path id="DejaVuSans-4f" d="M 2522 4238 
Q 1834 4238 1429 3725 
Q 1025 3213 1025 2328 
Q 1025 1447 1429 934 
Q 1834 422 2522 422 
Q 3209 422 3611 934 
Q 4013 1447 4013 2328 
Q 4013 3213 3611 3725 
Q 3209 4238 2522 4238 
z
M 2522 4750 
Q 3503 4750 4090 4092 
Q 4678 3434 4678 2328 
Q 4678 1225 4090 567 
Q 3503 -91 2522 -91 
Q 1538 -91 948 565 
Q 359 1222 359 2328 
Q 359 3434 948 4092 
Q 1538 4750 2522 4750 
z
" transform="scale(0.015625)"/>
       <path id="DejaVuSans-64" d="M 2906 2969 
L 2906 4863 
L 3481 4863 
L 3481 0 
L 2906 0 
L 2906 525 
Q 2725 213 2448 61 
Q 2172 -91 1784 -91 
Q 1150 -91 751 415 
Q 353 922 353 1747 
Q 353 2572 751 3078 
Q 1150 3584 1784 3584 
Q 2172 3584 2448 3432 
Q 2725 3281 2906 2969 
z
M 947 1747 
Q 947 1113 1208 752 
Q 1469 391 1925 391 
Q 2381 391 2643 752 
Q 2906 1113 2906 1747 
Q 2906 2381 2643 2742 
Q 2381 3103 1925 3103 
Q 1469 3103 1208 2742 
Q 947 2381 947 1747 
z
" transform="scale(0.015625)"/>
       <path id="DejaVuSans-73" d="M 2834 3397 
L 2834 2853 
Q 2591 2978 2328 3040 
Q 2066 3103 1784 3103 
Q 1356 3103 1142 2972 
Q 928 2841 928 2578 
Q 928 2378 1081 2264 
Q 1234 2150 1697 2047 
L 1894 2003 
Q 2506 1872 2764 1633 
Q 3022 1394 3022 966 
Q 3022 478 2636 193 
Q 2250 -91 1575 -91 
Q 1294 -91 989 -36 
Q 684 19 347 128 
L 347 722 
Q 666 556 975 473 
Q 1284 391 1588 391 
Q 1994 391 2212 530 
Q 2431 669 2431 922 
Q 2431 1156 2273 1281 
Q 2116 1406 1581 1522 
L 1381 1569 
Q 847 1681 609 1914 
Q 372 2147 372 2553 
Q 372 3047 722 3315 
Q 1072 3584 1716 3584 
Q 2034 3584 2315 3537 
Q 2597 3491 2834 3397 
z
" transform="scale(0.015625)"/>
      </defs>
      <use xlink:href="#DejaVuSans-4e"/>
      <use xlink:href="#DejaVuSans-75" x="74.804688"/>
      <use xlink:href="#DejaVuSans-6d" x="138.183594"/>
      <use xlink:href="#DejaVuSans-62" x="235.595703"/>
      <use xlink:href="#DejaVuSans-65" x="299.072266"/>
      <use xlink:href="#DejaVuSans-72" x="360.595703"/>
      <use xlink:href="#DejaVuSans-20" x="401.708984"/>
      <use xlink:href="#DejaVuSans-6f" x="433.496094"/>
      <use xlink:href="#DejaVuSans-66" x="494.677734"/>
      <use xlink:href="#DejaVuSans-20" x="529.882812"/>
      <use xlink:href="#DejaVuSans-4f" x="561.669922"/>
      <use xlink:href="#DejaVuSans-72" x="640.380859"/>
      <use xlink:href="#DejaVuSans-64" x="679.744141"/>
      <use xlink:href="#DejaVuSans-65" x="743.220703"/>
      <use xlink:href="#DejaVuSans-72" x="804.744141"/>
      <use xlink:href="#DejaVuSans-73" x="845.857422"/>
     </g>
    </g>
   </g>
   <g id="matplotlib.axis_2">
    <g id="ytick_1">
     <g id="line2d_7">
      <defs>
       <path id="ma3fe1745c2" d="M 0 0 
L -3.5 0 
" style="stroke: #000000; stroke-width: 0.8"/>
      </defs>
      <g>
       <use xlink:href="#ma3fe1745c2" x="57.6" y="307.04145" style="stroke: #000000; stroke-width: 0.8"/>
      </g>
     </g>
     <g id="text_8">
      <!-- 3400 -->
      <g transform="translate(25.15 310.840669)scale(0.1 -0.1)">
       <defs>
        <path id="DejaVuSans-33" d="M 2597 2516 
Q 3050 2419 3304 2112 
Q 3559 1806 3559 1356 
Q 3559 666 3084 287 
Q 2609 -91 1734 -91 
Q 1441 -91 1130 -33 
Q 819 25 488 141 
L 488 750 
Q 750 597 1062 519 
Q 1375 441 1716 441 
Q 2309 441 2620 675 
Q 2931 909 2931 1356 
Q 2931 1769 2642 2001 
Q 2353 2234 1838 2234 
L 1294 2234 
L 1294 2753 
L 1863 2753 
Q 2328 2753 2575 2939 
Q 2822 3125 2822 3475 
Q 2822 3834 2567 4026 
Q 2313 4219 1838 4219 
Q 1578 4219 1281 4162 
Q 984 4106 628 3988 
L 628 4550 
Q 988 4650 1302 4700 
Q 1616 4750 1894 4750 
Q 2613 4750 3031 4423 
Q 3450 4097 3450 3541 
Q 3450 3153 3228 2886 
Q 3006 2619 2597 2516 
z
" transform="scale(0.015625)"/>
       </defs>
       <use xlink:href="#DejaVuSans-33"/>
       <use xlink:href="#DejaVuSans-34" x="63.623047"/>
       <use xlink:href="#DejaVuSans-30" x="127.246094"/>
       <use xlink:href="#DejaVuSans-30" x="190.869141"/>
      </g>
     </g>
    </g>
    <g id="ytick_2">
     <g id="line2d_8">
      <g>
       <use xlink:href="#ma3fe1745c2" x="57.6" y="265.091197" style="stroke: #000000; stroke-width: 0.8"/>
      </g>
     </g>
     <g id="text_9">
      <!-- 3600 -->
      <g transform="translate(25.15 268.890415)scale(0.1 -0.1)">
       <use xlink:href="#DejaVuSans-33"/>
       <use xlink:href="#DejaVuSans-36" x="63.623047"/>
       <use xlink:href="#DejaVuSans-30" x="127.246094"/>
       <use xlink:href="#DejaVuSans-30" x="190.869141"/>
      </g>
     </g>
    </g>
    <g id="ytick_3">
     <g id="line2d_9">
      <g>
       <use xlink:href="#ma3fe1745c2" x="57.6" y="223.140943" style="stroke: #000000; stroke-width: 0.8"/>
      </g>
     </g>
     <g id="text_10">
      <!-- 3800 -->
      <g transform="translate(25.15 226.940162)scale(0.1 -0.1)">
       <use xlink:href="#DejaVuSans-33"/>
       <use xlink:href="#DejaVuSans-38" x="63.623047"/>
       <use xlink:href="#DejaVuSans-30" x="127.246094"/>
       <use xlink:href="#DejaVuSans-30" x="190.869141"/>
      </g>
     </g>
    </g>
    <g id="ytick_4">
     <g id="line2d_10">
      <g>
       <use xlink:href="#ma3fe1745c2" x="57.6" y="181.190689" style="stroke: #000000; stroke-width: 0.8"/>
      </g>
     </g>
     <g id="text_11">
      <!-- 4000 -->
      <g transform="translate(25.15 184.989908)scale(0.1 -0.1)">
       <use xlink:href="#DejaVuSans-34"/>
       <use xlink:href="#DejaVuSans-30" x="63.623047"/>
       <use xlink:href="#DejaVuSans-30" x="127.246094"/>
       <use xlink:href="#DejaVuSans-30" x="190.869141"/>
      </g>
     </g>
    </g>
    <g id="ytick_5">
     <g id="line2d_11">
      <g>
       <use xlink:href="#ma3fe1745c2" x="57.6" y="139.240435" style="stroke: #000000; stroke-width: 0.8"/>
      </g>
     </g>
     <g id="text_12">
      <!-- 4200 -->
      <g transform="translate(25.15 143.039654)scale(0.1 -0.1)">
       <use xlink:href="#DejaVuSans-34"/>
       <use xlink:href="#DejaVuSans-32" x="63.623047"/>
       <use xlink:href="#DejaVuSans-30" x="127.246094"/>
       <use xlink:href="#DejaVuSans-30" x="190.869141"/>
      </g>
     </g>
    </g>
    <g id="ytick_6">
     <g id="line2d_12">
      <g>
       <use xlink:href="#ma3fe1745c2" x="57.6" y="97.290181" style="stroke: #000000; stroke-width: 0.8"/>
      </g>
     </g>
     <g id="text_13">
      <!-- 4400 -->
      <g transform="translate(25.15 101.0894)scale(0.1 -0.1)">
       <use xlink:href="#DejaVuSans-34"/>
       <use xlink:href="#DejaVuSans-34" x="63.623047"/>
       <use xlink:href="#DejaVuSans-30" x="127.246094"/>
       <use xlink:href="#DejaVuSans-30" x="190.869141"/>
      </g>
     </g>
    </g>
    <g id="ytick_7">
     <g id="line2d_13">
      <g>
       <use xlink:href="#ma3fe1745c2" x="57.6" y="55.339928" style="stroke: #000000; stroke-width: 0.8"/>
      </g>
     </g>
     <g id="text_14">
      <!-- 4600 -->
      <g transform="translate(25.15 59.139146)scale(0.1 -0.1)">
       <use xlink:href="#DejaVuSans-34"/>
       <use xlink:href="#DejaVuSans-36" x="63.623047"/>
       <use xlink:href="#DejaVuSans-30" x="127.246094"/>
       <use xlink:href="#DejaVuSans-30" x="190.869141"/>
      </g>
     </g>
    </g>
    <g id="text_15">
     <!-- Waiting Time/s -->
     <g transform="translate(19.070312 211.410031)rotate(-90)scale(0.1 -0.1)">
      <defs>
       <path id="DejaVuSans-57" d="M 213 4666 
L 850 4666 
L 1831 722 
L 2809 4666 
L 3519 4666 
L 4500 722 
L 5478 4666 
L 6119 4666 
L 4947 0 
L 4153 0 
L 3169 4050 
L 2175 0 
L 1381 0 
L 213 4666 
z
" transform="scale(0.015625)"/>
       <path id="DejaVuSans-61" d="M 2194 1759 
Q 1497 1759 1228 1600 
Q 959 1441 959 1056 
Q 959 750 1161 570 
Q 1363 391 1709 391 
Q 2188 391 2477 730 
Q 2766 1069 2766 1631 
L 2766 1759 
L 2194 1759 
z
M 3341 1997 
L 3341 0 
L 2766 0 
L 2766 531 
Q 2569 213 2275 61 
Q 1981 -91 1556 -91 
Q 1019 -91 701 211 
Q 384 513 384 1019 
Q 384 1609 779 1909 
Q 1175 2209 1959 2209 
L 2766 2209 
L 2766 2266 
Q 2766 2663 2505 2880 
Q 2244 3097 1772 3097 
Q 1472 3097 1187 3025 
Q 903 2953 641 2809 
L 641 3341 
Q 956 3463 1253 3523 
Q 1550 3584 1831 3584 
Q 2591 3584 2966 3190 
Q 3341 2797 3341 1997 
z
" transform="scale(0.015625)"/>
       <path id="DejaVuSans-69" d="M 603 3500 
L 1178 3500 
L 1178 0 
L 603 0 
L 603 3500 
z
M 603 4863 
L 1178 4863 
L 1178 4134 
L 603 4134 
L 603 4863 
z
" transform="scale(0.015625)"/>
       <path id="DejaVuSans-74" d="M 1172 4494 
L 1172 3500 
L 2356 3500 
L 2356 3053 
L 1172 3053 
L 1172 1153 
Q 1172 725 1289 603 
Q 1406 481 1766 481 
L 2356 481 
L 2356 0 
L 1766 0 
Q 1100 0 847 248 
Q 594 497 594 1153 
L 594 3053 
L 172 3053 
L 172 3500 
L 594 3500 
L 594 4494 
L 1172 4494 
z
" transform="scale(0.015625)"/>
       <path id="DejaVuSans-6e" d="M 3513 2113 
L 3513 0 
L 2938 0 
L 2938 2094 
Q 2938 2591 2744 2837 
Q 2550 3084 2163 3084 
Q 1697 3084 1428 2787 
Q 1159 2491 1159 1978 
L 1159 0 
L 581 0 
L 581 3500 
L 1159 3500 
L 1159 2956 
Q 1366 3272 1645 3428 
Q 1925 3584 2291 3584 
Q 2894 3584 3203 3211 
Q 3513 2838 3513 2113 
z
" transform="scale(0.015625)"/>
       <path id="DejaVuSans-67" d="M 2906 1791 
Q 2906 2416 2648 2759 
Q 2391 3103 1925 3103 
Q 1463 3103 1205 2759 
Q 947 2416 947 1791 
Q 947 1169 1205 825 
Q 1463 481 1925 481 
Q 2391 481 2648 825 
Q 2906 1169 2906 1791 
z
M 3481 434 
Q 3481 -459 3084 -895 
Q 2688 -1331 1869 -1331 
Q 1566 -1331 1297 -1286 
Q 1028 -1241 775 -1147 
L 775 -588 
Q 1028 -725 1275 -790 
Q 1522 -856 1778 -856 
Q 2344 -856 2625 -561 
Q 2906 -266 2906 331 
L 2906 616 
Q 2728 306 2450 153 
Q 2172 0 1784 0 
Q 1141 0 747 490 
Q 353 981 353 1791 
Q 353 2603 747 3093 
Q 1141 3584 1784 3584 
Q 2172 3584 2450 3431 
Q 2728 3278 2906 2969 
L 2906 3500 
L 3481 3500 
L 3481 434 
z
" transform="scale(0.015625)"/>
       <path id="DejaVuSans-54" d="M -19 4666 
L 3928 4666 
L 3928 4134 
L 2272 4134 
L 2272 0 
L 1638 0 
L 1638 4134 
L -19 4134 
L -19 4666 
z
" transform="scale(0.015625)"/>
       <path id="DejaVuSans-2f" d="M 1625 4666 
L 2156 4666 
L 531 -594 
L 0 -594 
L 1625 4666 
z
" transform="scale(0.015625)"/>
      </defs>
      <use xlink:href="#DejaVuSans-57"/>
      <use xlink:href="#DejaVuSans-61" x="92.501953"/>
      <use xlink:href="#DejaVuSans-69" x="153.78125"/>
      <use xlink:href="#DejaVuSans-74" x="181.564453"/>
      <use xlink:href="#DejaVuSans-69" x="220.773438"/>
      <use xlink:href="#DejaVuSans-6e" x="248.556641"/>
      <use xlink:href="#DejaVuSans-67" x="311.935547"/>
      <use xlink:href="#DejaVuSans-20" x="375.412109"/>
      <use xlink:href="#DejaVuSans-54" x="407.199219"/>
      <use xlink:href="#DejaVuSans-69" x="465.158203"/>
      <use xlink:href="#DejaVuSans-6d" x="492.941406"/>
      <use xlink:href="#DejaVuSans-65" x="590.353516"/>
      <use xlink:href="#DejaVuSans-2f" x="651.876953"/>
      <use xlink:href="#DejaVuSans-73" x="685.568359"/>
     </g>
    </g>
   </g>
   <g id="line2d_14">
    <path d="M 73.832727 294.335843 
L 74.157707 295.488 
L 74.482686 257.156041 
L 75.132645 231.668594 
L 75.457625 232.47569 
L 75.782604 220.325395 
L 76.107584 203.565839 
L 76.432563 198.353195 
L 76.757543 195.53391 
L 77.082523 190.324176 
L 78.382441 157.068514 
L 78.70742 152.249584 
L 79.0324 165.224922 
L 79.357379 157.05643 
L 79.682359 155.127921 
L 80.007338 148.286154 
L 80.657297 122.586431 
L 80.982277 125.234855 
L 81.307256 129.781783 
L 81.632236 120.04716 
L 81.957215 121.260676 
L 82.282195 123.731966 
L 82.607174 130.662573 
L 82.932154 122.562633 
L 83.257133 121.874563 
L 83.582113 121.925783 
L 83.907093 116.333182 
L 84.232072 108.525528 
L 84.557052 105.341617 
L 84.882031 110.344237 
L 85.207011 100.956375 
L 85.53199 100.860327 
L 86.506929 111.063048 
L 86.831908 111.83281 
L 87.156888 110.424873 
L 87.481867 103.536875 
L 87.806847 105.087709 
L 88.131826 104.882381 
L 88.456806 107.153565 
L 88.781785 111.959949 
L 89.106765 113.56325 
L 89.431744 113.753222 
L 90.406683 94.838657 
L 90.731663 97.914686 
L 91.056642 91.997168 
L 91.381622 94.773223 
L 91.706601 93.384935 
L 92.031581 94.013273 
L 92.35656 93.046576 
L 92.68154 96.961911 
L 93.006519 98.012097 
L 93.331499 100.175185 
L 93.656478 96.620796 
L 93.981458 91.741074 
L 94.631417 89.572374 
L 94.956396 86.973778 
L 95.281376 89.079416 
L 95.606355 88.305243 
L 95.931335 88.98906 
L 96.256314 88.638072 
L 96.581294 89.786138 
L 96.906274 87.937147 
L 97.231253 90.22168 
L 97.556233 89.411041 
L 97.881212 90.461716 
L 98.206192 88.273456 
L 98.531171 89.603104 
L 98.856151 89.191616 
L 99.18113 91.460972 
L 99.50611 92.944026 
L 99.831089 93.57914 
L 100.156069 91.407689 
L 101.131007 89.30085 
L 101.455987 87.109549 
L 101.780966 89.422236 
L 102.105946 88.773519 
L 102.755905 91.185325 
L 103.405864 92.657969 
L 104.055823 94.565811 
L 105.030762 86.214778 
L 105.355741 87.141029 
L 105.680721 86.797584 
L 106.0057 85.04259 
L 106.33068 85.640229 
L 106.655659 84.812792 
L 106.980639 85.53594 
L 107.305618 85.351788 
L 107.630598 83.71665 
L 107.955577 81.408306 
L 108.280557 80.03179 
L 108.605536 80.463033 
L 108.930516 79.389635 
L 109.255495 78.848057 
L 109.580475 79.517858 
L 109.905455 78.378401 
L 110.230434 79.044416 
L 110.555414 81.300757 
L 110.880393 82.157464 
L 111.205373 80.772532 
L 111.855332 77.310225 
L 112.180311 78.939636 
L 112.83027 77.630728 
L 113.15525 78.550169 
L 113.480229 78.204845 
L 114.130188 80.968431 
L 114.455168 81.1754 
L 114.780147 83.273619 
L 115.430106 79.215277 
L 115.755086 80.303544 
L 116.080066 78.777444 
L 116.405045 80.20323 
L 116.730025 78.853645 
L 117.055004 78.85125 
L 117.379984 79.449321 
L 118.029943 82.583376 
L 118.354922 82.769432 
L 118.679902 82.256441 
L 119.004881 83.29146 
L 119.65484 81.330589 
L 119.97982 81.501014 
L 120.304799 81.190356 
L 120.629779 81.272344 
L 120.954758 80.659384 
L 121.279738 82.648262 
L 121.604717 81.097006 
L 121.929697 80.747674 
L 122.254676 80.861606 
L 122.579656 82.266416 
L 122.904636 81.581832 
L 123.229615 82.001133 
L 123.554595 80.949365 
L 123.879574 81.798571 
L 124.204554 81.59601 
L 125.179492 84.143035 
L 125.504472 84.330209 
L 126.154431 81.419201 
L 126.47941 81.772395 
L 126.80439 80.304536 
L 127.129369 80.649955 
L 127.454349 82.000606 
L 127.779328 80.740757 
L 128.104308 80.779897 
L 128.429287 81.031533 
L 128.754267 79.919121 
L 129.079247 79.842688 
L 129.404226 79.199651 
L 130.054185 78.801991 
L 130.379165 78.787769 
L 130.704144 77.461709 
L 131.029124 78.017415 
L 131.354103 77.516787 
L 131.679083 78.036552 
L 132.004062 79.356325 
L 132.329042 79.810005 
L 132.654021 80.825192 
L 133.30398 79.174917 
L 133.62896 79.238425 
L 133.953939 79.579283 
L 134.278919 78.791915 
L 134.603898 77.643931 
L 134.928878 77.618627 
L 135.253857 77.403135 
L 135.578837 76.672902 
L 135.903817 76.821076 
L 136.228796 76.12085 
L 136.553776 75.968539 
L 136.878755 77.258193 
L 137.203735 77.925706 
L 137.528714 77.071309 
L 138.178673 79.298614 
L 138.503653 79.394215 
L 139.153612 80.427285 
L 139.803571 79.527428 
L 140.45353 79.45683 
L 140.778509 79.691865 
L 141.103489 80.695282 
L 141.428468 80.849889 
L 141.753448 81.764028 
L 142.078428 81.974849 
L 142.403407 81.971761 
L 143.703325 80.205568 
L 144.028305 81.417131 
L 144.353284 81.171947 
L 144.678264 80.039572 
L 145.003243 80.116317 
L 145.328223 79.161201 
L 145.653202 79.383408 
L 145.978182 78.474023 
L 146.303161 78.313557 
L 146.628141 78.680586 
L 146.95312 78.350625 
L 147.2781 78.501477 
L 147.603079 77.304686 
L 147.928059 77.14229 
L 148.253038 76.331702 
L 148.902998 77.563099 
L 149.227977 77.787256 
L 149.552957 77.480978 
L 149.877936 77.780286 
L 150.202916 77.342708 
L 150.527895 77.616148 
L 150.852875 77.370618 
L 151.177854 76.885801 
L 151.502834 77.39857 
L 152.152793 76.267876 
L 152.477772 77.433409 
L 152.802752 76.286598 
L 153.127731 76.115065 
L 153.452711 75.108877 
L 153.77769 75.149134 
L 154.10267 74.808297 
L 154.427649 74.783583 
L 155.077609 75.265017 
L 155.402588 74.807421 
L 155.727568 75.456135 
L 156.052547 75.319848 
L 156.377527 76.183554 
L 156.702506 76.266165 
L 157.352465 77.431288 
L 157.677445 76.771321 
L 158.002424 76.686239 
L 158.327404 77.423571 
L 158.652383 76.725395 
L 158.977363 77.184345 
L 159.302342 77.371565 
L 159.627322 77.408036 
L 160.60226 76.728309 
L 160.92724 76.561786 
L 161.252219 77.603301 
L 161.577199 77.643793 
L 161.902179 77.919756 
L 162.227158 77.828586 
L 162.552138 77.35304 
L 162.877117 77.39434 
L 163.527076 79.432844 
L 163.852056 78.434775 
L 164.177035 78.835547 
L 164.502015 79.0277 
L 164.826994 77.492954 
L 165.476953 75.798394 
L 165.801933 76.035726 
L 166.126912 75.887172 
L 166.451892 76.399701 
L 166.776871 76.11176 
L 167.101851 76.376091 
L 167.42683 75.646742 
L 167.75181 76.127525 
L 168.07679 75.099246 
L 168.401769 74.895215 
L 168.726749 75.052772 
L 169.051728 74.918811 
L 169.376708 75.153798 
L 170.026667 73.84846 
L 170.351646 73.690116 
L 171.326585 72.477773 
L 172.301523 74.219715 
L 173.276462 73.758371 
L 173.601441 73.945179 
L 173.926421 74.683663 
L 174.2514 74.459476 
L 174.57638 73.272267 
L 174.90136 73.36371 
L 175.226339 74.283028 
L 175.551319 74.808617 
L 175.876298 74.492602 
L 176.201278 74.930774 
L 176.851237 75.089724 
L 177.176216 74.600506 
L 177.826175 72.519385 
L 178.151155 72.846183 
L 178.476134 72.923835 
L 178.801114 72.74273 
L 179.126093 73.276413 
L 179.776052 73.340038 
L 180.101032 73.205258 
L 180.426011 73.567441 
L 180.750991 73.640316 
L 181.075971 73.560562 
L 181.40095 74.288513 
L 182.050909 73.290189 
L 182.375889 72.915131 
L 182.700868 72.937176 
L 183.350827 72.516127 
L 183.675807 72.667572 
L 184.000786 71.908359 
L 184.325766 71.666159 
L 184.650745 71.151276 
L 184.975725 71.188107 
L 185.300704 71.346996 
L 185.625684 71.069169 
L 185.950663 71.294315 
L 186.275643 71.704235 
L 186.600622 71.563499 
L 186.925602 71.678164 
L 187.575561 72.619556 
L 187.900541 71.9926 
L 188.22552 72.409026 
L 188.875479 73.843184 
L 189.200459 73.718045 
L 189.525438 73.472151 
L 189.850418 73.730344 
L 190.825356 72.226838 
L 191.475315 72.148081 
L 191.800295 72.399215 
L 192.125274 72.929193 
L 192.450254 72.119988 
L 193.100213 73.417984 
L 193.425192 72.565963 
L 193.750172 72.238468 
L 194.075152 72.767908 
L 194.400131 71.880751 
L 194.725111 72.104041 
L 195.37507 73.258454 
L 195.700049 72.856432 
L 196.350008 72.617319 
L 196.674988 72.020199 
L 196.999967 71.701822 
L 197.324947 71.159466 
L 197.974906 71.897561 
L 198.299885 70.794305 
L 198.624865 70.40386 
L 198.949844 70.247457 
L 199.274824 70.329079 
L 199.599803 71.003598 
L 200.249762 71.449556 
L 200.899722 71.932641 
L 201.549681 71.229515 
L 201.87466 71.308358 
L 202.19964 71.638414 
L 202.524619 71.495616 
L 203.174578 72.064895 
L 203.499558 71.896362 
L 203.824537 71.477734 
L 204.149517 71.930584 
L 204.474496 71.362606 
L 204.799476 71.475208 
L 205.124455 71.800016 
L 205.774414 72.134309 
L 206.099394 71.774222 
L 206.424373 71.743612 
L 206.749353 71.023872 
L 207.724292 70.921696 
L 208.049271 71.0221 
L 208.374251 70.741938 
L 208.69923 71.254137 
L 209.02421 70.737529 
L 209.349189 71.093039 
L 209.674169 70.063117 
L 210.324128 70.816335 
L 210.649107 70.458408 
L 210.974087 70.59609 
L 211.624046 69.708588 
L 211.949025 70.301988 
L 212.274005 70.406859 
L 213.248943 71.156064 
L 213.898903 72.168078 
L 214.223882 71.679727 
L 214.873841 71.41263 
L 215.84878 72.607317 
L 216.173759 72.618685 
L 216.498739 72.056246 
L 216.823718 72.095613 
L 217.148698 71.868826 
L 217.473677 71.314253 
L 217.798657 71.231016 
L 218.123636 71.705495 
L 218.448616 71.722278 
L 219.098575 72.021237 
L 219.423554 71.872642 
L 219.748534 72.2693 
L 220.073514 72.0538 
L 220.398493 72.159729 
L 220.723473 72.00141 
L 221.048452 72.235883 
L 221.373432 72.717151 
L 221.698411 72.44191 
L 222.023391 72.014712 
L 222.67335 72.096064 
L 222.998329 71.892372 
L 223.323309 72.313934 
L 223.973268 72.868696 
L 224.298247 72.586826 
L 224.623227 72.582307 
L 224.948206 72.941781 
L 225.273186 72.825098 
L 225.598165 73.065169 
L 225.923145 73.528996 
L 226.573104 73.589933 
L 226.898084 73.126737 
L 227.223063 72.919807 
L 227.548043 73.13914 
L 228.198002 73.183301 
L 228.522981 73.001995 
L 228.847961 72.560965 
L 229.49792 73.299454 
L 229.822899 73.335445 
L 230.147879 73.733794 
L 230.797838 74.249305 
L 231.122817 73.960741 
L 231.447797 74.231438 
L 231.772776 74.18904 
L 232.097756 73.841369 
L 232.422735 73.201667 
L 232.747715 73.257923 
L 233.072695 73.534475 
L 233.397674 73.126549 
L 234.047633 73.60604 
L 234.372613 73.010159 
L 234.697592 72.946532 
L 235.347551 73.109521 
L 235.99751 72.512692 
L 236.647469 72.946373 
L 237.622408 72.714622 
L 237.947387 73.283525 
L 238.597346 73.223037 
L 238.922326 72.68267 
L 239.897265 73.604136 
L 240.222244 73.577001 
L 240.547224 73.820858 
L 240.872203 73.600944 
L 241.522162 74.001062 
L 241.847142 74.183394 
L 242.497101 73.384146 
L 242.82208 73.356594 
L 243.14706 73.069008 
L 243.472039 73.317172 
L 244.121998 72.611352 
L 245.096937 73.931355 
L 245.421916 74.163351 
L 245.746896 73.884477 
L 246.071876 73.451317 
L 246.721835 73.783478 
L 247.046814 73.118942 
L 247.371794 73.519173 
L 247.696773 73.628562 
L 248.346732 73.512904 
L 248.996691 73.885213 
L 249.64665 74.720444 
L 249.97163 74.596529 
L 250.296609 74.032192 
L 250.621589 74.332597 
L 250.946568 74.022152 
L 251.271548 74.3774 
L 251.596527 74.329182 
L 251.921507 74.028181 
L 252.571466 74.856685 
L 252.896446 74.459949 
L 253.221425 74.537688 
L 254.196364 73.421206 
L 254.521343 73.391797 
L 254.846323 72.918322 
L 255.496282 73.400816 
L 255.821261 73.838029 
L 256.47122 73.145173 
L 256.7962 73.133303 
L 257.121179 73.269456 
L 257.446159 73.063697 
L 257.771138 73.423675 
L 258.096118 73.206596 
L 259.396036 74.426686 
L 259.721016 74.473882 
L 260.045995 74.770544 
L 260.370975 74.507147 
L 261.020934 75.002853 
L 261.995872 75.290339 
L 262.320852 75.561326 
L 262.645831 75.363184 
L 262.970811 75.566529 
L 263.29579 75.509857 
L 263.62077 75.598391 
L 263.945749 75.287283 
L 264.270729 75.329417 
L 264.595708 75.697024 
L 264.920688 75.370191 
L 265.245667 75.393883 
L 265.570647 75.293842 
L 265.895627 75.339657 
L 266.220606 75.227437 
L 266.545586 75.729423 
L 267.195545 75.954982 
L 267.845504 75.127597 
L 268.170483 75.371715 
L 268.495463 74.77303 
L 269.145422 74.990569 
L 269.470401 74.782037 
L 269.795381 75.092634 
L 270.44534 75.031307 
L 270.770319 75.430135 
L 271.095299 75.332688 
L 271.745258 75.483527 
L 272.070238 75.051941 
L 272.395217 74.938116 
L 273.045176 75.516722 
L 273.370156 75.501905 
L 273.695135 75.75892 
L 274.020115 75.590721 
L 274.670074 75.072813 
L 274.995053 75.384197 
L 275.320033 75.156675 
L 275.969992 75.39174 
L 276.294971 75.147338 
L 276.619951 75.118483 
L 276.94493 74.699458 
L 277.26991 74.556729 
L 277.594889 74.748579 
L 277.919869 74.224019 
L 278.244848 74.08277 
L 278.569828 73.804165 
L 278.894808 73.933329 
L 279.219787 74.364342 
L 279.869746 74.719873 
L 280.519705 73.981463 
L 281.169664 74.360301 
L 281.494644 74.263691 
L 281.819623 74.0332 
L 282.469582 74.641613 
L 282.794562 74.369776 
L 283.119541 73.890598 
L 283.444521 73.642834 
L 283.7695 73.639451 
L 284.09448 74.103834 
L 284.419459 74.075584 
L 285.069419 74.504079 
L 285.394398 74.845223 
L 285.719378 74.563143 
L 286.044357 74.943831 
L 286.369337 74.755082 
L 286.694316 74.787416 
L 287.019296 74.511833 
L 287.344275 74.790927 
L 287.669255 74.469616 
L 288.319214 74.807201 
L 288.644193 74.597084 
L 289.294152 74.794196 
L 289.619132 74.549314 
L 290.269091 74.647251 
L 290.59407 74.828354 
L 290.91905 74.604973 
L 291.244029 74.144644 
L 291.893989 74.091897 
L 292.218968 74.333762 
L 292.543948 74.1739 
L 292.868927 74.513632 
L 293.518886 74.416735 
L 294.168845 75.047414 
L 294.493825 74.844659 
L 294.818804 74.938655 
L 295.468763 74.350386 
L 296.118722 74.142443 
L 296.768681 74.233127 
L 297.093661 74.599595 
L 297.41864 74.407206 
L 297.74362 74.742615 
L 298.0686 74.342317 
L 299.043538 74.419138 
L 300.018477 75.069734 
L 300.343456 75.170155 
L 300.668436 75.511126 
L 300.993415 75.132312 
L 301.318395 75.433419 
L 302.293333 74.7985 
L 302.618313 74.862778 
L 302.943292 75.066375 
L 303.268272 75.129147 
L 303.593251 75.018472 
L 303.918231 74.666087 
L 304.56819 75.168111 
L 304.89317 74.845063 
L 305.218149 74.777408 
L 305.543129 74.874187 
L 305.868108 74.579997 
L 307.817985 75.357498 
L 308.792924 74.867983 
L 309.442883 74.88126 
L 309.767862 75.079625 
L 310.092842 74.717923 
L 310.417821 74.635019 
L 311.067781 75.076982 
L 311.39276 75.043162 
L 311.71774 74.892365 
L 312.042719 75.116139 
L 312.367699 75.003217 
L 312.692678 75.17301 
L 313.342637 74.589688 
L 313.667617 74.253781 
L 313.992596 74.101172 
L 314.317576 74.28041 
L 314.642555 74.293847 
L 314.967535 74.112954 
L 315.292514 74.2212 
L 315.942473 73.773781 
L 316.917412 73.011041 
L 317.567371 73.2844 
L 318.21733 72.87646 
L 318.54231 72.999385 
L 318.867289 72.977914 
L 319.192269 73.091222 
L 319.842228 72.755409 
L 320.492187 72.793078 
L 321.142146 73.339785 
L 321.467125 73.154458 
L 323.092023 73.48908 
L 324.716921 74.540897 
L 325.0419 74.542712 
L 325.36688 74.229132 
L 325.691859 74.16875 
L 326.016839 74.415243 
L 326.341818 74.242267 
L 326.666798 74.365865 
L 327.316757 74.02323 
L 327.641736 74.141115 
L 328.291695 73.870762 
L 328.616675 73.958212 
L 329.916593 72.764948 
L 330.566552 72.553781 
L 330.891532 72.565293 
L 331.86647 72.117275 
L 332.19145 72.054706 
L 332.841409 72.565532 
L 333.166388 72.26758 
L 333.816347 72.303215 
L 334.141327 72.591137 
L 334.466306 72.35531 
L 334.791286 72.433067 
L 335.116265 72.643731 
L 335.766224 72.567366 
L 336.091204 72.245105 
L 336.416183 72.215576 
L 336.741163 72.026029 
L 337.066143 72.108643 
L 337.716102 71.89612 
L 338.041081 72.098485 
L 338.366061 72.039496 
L 339.01602 71.525559 
L 339.665979 71.481375 
L 339.990958 71.490553 
L 340.315938 71.676075 
L 340.640917 72.01969 
L 340.965897 71.931366 
L 341.290876 72.005932 
L 341.615856 71.932342 
L 342.590794 72.526583 
L 342.915774 72.455295 
L 344.215692 73.054411 
L 344.540672 72.865216 
L 345.190631 72.299158 
L 345.51561 72.404439 
L 346.815528 72.22295 
L 347.140508 72.034427 
L 347.465487 72.154063 
L 347.790467 71.7674 
L 348.115446 71.875392 
L 348.440426 71.846622 
L 348.765405 71.425258 
L 349.415364 71.467257 
L 349.740344 71.39598 
L 350.065324 71.47682 
L 350.390303 71.363921 
L 351.365242 71.698391 
L 351.690221 71.573317 
L 352.015201 71.635199 
L 352.34018 71.950222 
L 352.990139 71.599597 
L 353.315119 71.579998 
L 353.640098 71.720133 
L 353.965078 72.014912 
L 354.290057 72.052188 
L 354.615037 72.311961 
L 354.940016 72.152161 
L 355.264996 72.356346 
L 355.589975 72.340085 
L 355.914955 72.066791 
L 356.239934 72.133381 
L 356.564914 72.397159 
L 357.214873 72.294137 
L 357.864832 72.460542 
L 358.189812 72.127184 
L 358.514791 72.178874 
L 358.839771 72.035605 
L 359.16475 72.247847 
L 359.48973 72.226453 
L 360.139689 72.656752 
L 360.789648 72.542236 
L 361.114627 72.701655 
L 361.439607 72.598586 
L 362.089566 73.071937 
L 362.414545 72.757047 
L 362.739525 72.899129 
L 363.064505 72.52312 
L 363.714464 72.343352 
L 364.364423 72.038915 
L 364.689402 72.116587 
L 365.339361 72.452746 
L 365.98932 72.06587 
L 366.3143 72.085981 
L 366.964259 72.429979 
L 368.264177 72.089524 
L 368.589156 72.21878 
L 368.914136 72.069859 
L 369.239115 72.090596 
L 369.564095 71.606506 
L 370.214054 71.819254 
L 370.539034 72.025483 
L 371.838952 72.283833 
L 372.163931 72.120848 
L 372.488911 72.221014 
L 372.81389 72.065267 
L 374.113808 72.662864 
L 374.438788 72.622851 
L 375.088747 72.890446 
L 375.738706 72.602277 
L 376.388665 72.750895 
L 377.038624 72.360788 
L 377.363604 71.923149 
L 377.688583 71.742308 
L 378.013563 71.899516 
L 378.338542 71.854965 
L 378.988501 72.055478 
L 379.313481 71.970173 
L 380.288419 71.390921 
L 380.613399 71.269123 
L 380.938378 71.468545 
L 381.913317 71.647352 
L 382.563276 71.518041 
L 384.188174 71.838081 
L 384.838133 71.856086 
L 385.163112 71.903288 
L 385.488092 71.806174 
L 385.813071 71.868971 
L 386.138051 71.600593 
L 386.46303 71.635087 
L 386.78801 71.845124 
L 387.762948 72.024199 
L 388.087928 72.225577 
L 388.412907 72.191862 
L 388.737887 72.393937 
L 389.387846 72.294335 
L 390.362785 72.81297 
L 390.687764 72.701579 
L 391.012744 72.824501 
L 391.337723 72.564781 
L 391.662703 72.855879 
L 391.987682 72.755582 
L 393.61258 72.888617 
L 394.262539 72.793325 
L 394.587518 72.597003 
L 394.912498 72.552869 
L 395.887437 71.934809 
L 396.537396 71.568708 
L 396.862375 71.237824 
L 397.187355 71.111632 
L 397.837314 70.471918 
L 398.487273 70.032787 
L 398.487273 70.032787 
" clip-path="url(#pf50273f00b)" style="fill: none; stroke-dasharray: 2,3.3; stroke-dashoffset: 0; stroke: #0000ff; stroke-width: 2"/>
   </g>
   <g id="line2d_15">
    <path d="M 73.832727 294.335843 
L 74.157707 295.488 
L 74.482686 257.156041 
L 75.132645 231.668594 
L 75.457625 232.47569 
L 75.782604 220.325395 
L 76.107584 203.565839 
L 76.432563 198.353195 
L 76.757543 195.53391 
L 77.082523 190.324176 
L 77.732482 173.171905 
L 78.057461 186.480523 
L 78.70742 169.720017 
L 79.0324 164.440347 
L 79.682359 149.051081 
L 80.332318 122.054711 
L 80.657297 125.445741 
L 81.307256 108.06639 
L 81.632236 113.118179 
L 81.957215 104.398872 
L 82.282195 99.742395 
L 82.607174 101.594401 
L 82.932154 104.573406 
L 83.257133 105.394298 
L 83.907093 90.519545 
L 84.232072 87.784789 
L 84.557052 91.59436 
L 84.882031 89.881429 
L 85.53199 77.970676 
L 85.85697 75.095394 
L 86.181949 67.333492 
L 86.506929 64.762865 
L 86.831908 67.290091 
L 87.156888 61.265112 
L 87.481867 63.835076 
L 87.806847 64.562641 
L 88.131826 68.469787 
L 88.456806 74.22161 
L 88.781785 73.307295 
L 89.106765 74.339891 
L 89.431744 76.796207 
L 90.081704 66.156226 
L 91.056642 53.568 
L 91.706601 57.727639 
L 92.031581 61.238877 
L 92.35656 65.980745 
L 92.68154 67.148401 
L 93.006519 64.374401 
L 93.331499 58.1746 
L 93.656478 62.462935 
L 93.981458 63.428784 
L 94.631417 66.10777 
L 94.956396 64.938041 
L 95.281376 63.073857 
L 95.606355 65.528072 
L 95.931335 66.999439 
L 96.256314 64.871805 
L 96.581294 64.471297 
L 96.906274 66.743244 
L 97.231253 66.711417 
L 97.556233 64.34647 
L 97.881212 63.843391 
L 98.206192 61.99436 
L 98.531171 64.431845 
L 98.856151 65.656732 
L 99.50611 71.135654 
L 99.831089 72.851327 
L 100.156069 72.30396 
L 100.481048 71.193199 
L 100.806028 70.754676 
L 101.131007 71.632905 
L 101.455987 68.411437 
L 101.780966 67.996767 
L 102.430925 73.001229 
L 103.405864 75.384544 
L 104.055823 78.14823 
L 104.380803 80.670764 
L 104.705782 81.966467 
L 105.030762 78.795109 
L 105.355741 79.927839 
L 105.680721 78.248389 
L 106.0057 79.438274 
L 106.655659 74.734195 
L 106.980639 73.045989 
L 107.630598 74.860143 
L 107.955577 74.696435 
L 108.280557 72.106855 
L 108.605536 70.617886 
L 109.255495 71.076011 
L 109.580475 71.81583 
L 109.905455 70.002084 
L 110.230434 71.864307 
L 110.555414 71.550368 
L 111.205373 69.173801 
L 111.855332 71.080366 
L 112.83027 69.081324 
L 113.15525 69.525791 
L 113.480229 67.430141 
L 113.805209 68.957185 
L 114.130188 69.18895 
L 114.455168 69.238819 
L 114.780147 67.033775 
L 115.105127 69.226084 
L 115.430106 69.303328 
L 115.755086 70.467841 
L 116.080066 70.529405 
L 116.405045 71.878969 
L 116.730025 71.341843 
L 117.055004 72.224575 
L 117.379984 74.173479 
L 117.704963 73.333606 
L 118.029943 72.852592 
L 118.354922 74.114736 
L 118.679902 73.722811 
L 119.004881 74.581313 
L 119.329861 74.629105 
L 119.65484 74.143204 
L 119.97982 74.581357 
L 120.304799 73.796065 
L 120.954758 77.36454 
L 121.279738 77.015488 
L 121.604717 76.834297 
L 122.254676 79.162437 
L 122.579656 79.962357 
L 122.904636 81.88912 
L 123.229615 82.251274 
L 123.554595 81.55655 
L 123.879574 80.333098 
L 124.204554 79.567561 
L 124.529533 81.070925 
L 124.854513 80.980914 
L 125.179492 81.267864 
L 125.504472 80.486764 
L 125.829451 80.208031 
L 126.154431 81.071888 
L 126.47941 82.444809 
L 126.80439 82.259065 
L 127.129369 82.40114 
L 127.454349 80.973429 
L 127.779328 81.833637 
L 128.104308 80.8625 
L 128.429287 81.49581 
L 128.754267 79.71271 
L 129.079247 78.99274 
L 129.404226 78.747238 
L 130.054185 77.007731 
L 130.704144 73.887778 
L 131.029124 74.108797 
L 131.354103 75.557794 
L 131.679083 76.086246 
L 132.004062 75.867295 
L 132.329042 74.784068 
L 132.654021 75.156892 
L 132.979001 75.776485 
L 133.30398 75.392129 
L 133.62896 74.649082 
L 133.953939 75.124198 
L 134.278919 74.308032 
L 134.603898 75.194519 
L 134.928878 75.665837 
L 135.253857 75.512714 
L 135.578837 76.010316 
L 135.903817 74.636203 
L 136.228796 75.16048 
L 136.878755 75.701042 
L 137.203735 74.776554 
L 137.853694 74.249325 
L 138.178673 74.769469 
L 138.503653 74.28667 
L 138.828632 74.952362 
L 139.153612 74.133833 
L 139.478591 74.57934 
L 140.12855 73.636135 
L 140.45353 73.368246 
L 140.778509 74.417675 
L 141.103489 74.910299 
L 141.428468 74.971675 
L 141.753448 75.757987 
L 142.078428 74.711558 
L 142.403407 74.716065 
L 142.728387 74.249081 
L 143.053366 74.592434 
L 143.378346 75.449699 
L 144.028305 73.822014 
L 144.353284 73.774533 
L 144.678264 74.581962 
L 145.003243 73.587628 
L 145.328223 73.34144 
L 145.653202 74.173937 
L 145.978182 73.622992 
L 146.303161 74.145463 
L 146.628141 73.343612 
L 146.95312 73.733799 
L 147.2781 73.325747 
L 147.603079 73.919865 
L 148.253038 73.905396 
L 148.578018 74.766493 
L 148.902998 73.574123 
L 149.227977 74.683428 
L 149.552957 73.836878 
L 149.877936 74.672065 
L 150.202916 73.738464 
L 150.527895 73.812282 
L 151.177854 73.276658 
L 151.502834 73.512137 
L 152.152793 72.344548 
L 153.127731 73.301115 
L 153.452711 73.39714 
L 153.77769 73.722002 
L 154.10267 73.094377 
L 154.427649 72.763161 
L 154.752629 73.100301 
L 155.077609 73.85255 
L 155.402588 72.890907 
L 155.727568 72.722304 
L 156.052547 72.199145 
L 156.377527 72.185245 
L 156.702506 73.225427 
L 157.027486 73.444865 
L 157.352465 73.442604 
L 157.677445 72.875331 
L 158.002424 73.585867 
L 158.327404 72.779206 
L 158.652383 72.703828 
L 158.977363 73.008018 
L 159.302342 72.532718 
L 160.277281 70.306696 
L 160.60226 70.375368 
L 160.92724 71.408694 
L 161.252219 71.843915 
L 161.577199 72.837214 
L 161.902179 73.057071 
L 162.552138 72.070167 
L 162.877117 73.109078 
L 163.202097 73.559514 
L 163.527076 74.249097 
L 163.852056 74.005044 
L 164.177035 74.051752 
L 165.151974 73.541289 
L 165.476953 74.493845 
L 166.126912 75.253924 
L 166.451892 75.408442 
L 166.776871 74.618995 
L 167.101851 74.675609 
L 167.42683 74.507561 
L 167.75181 73.039955 
L 168.401769 74.067845 
L 168.726749 74.093533 
L 169.051728 73.727865 
L 169.376708 74.367371 
L 169.701687 73.326212 
L 170.026667 72.908434 
L 170.351646 73.484849 
L 170.676626 72.564084 
L 171.001605 72.725736 
L 171.651564 73.721061 
L 171.976544 73.537705 
L 172.301523 73.039549 
L 172.626503 73.831957 
L 172.951482 74.274339 
L 173.276462 74.156423 
L 173.601441 74.409938 
L 173.926421 74.255414 
L 174.2514 74.266195 
L 174.57638 73.418855 
L 174.90136 72.924017 
L 175.226339 73.033034 
L 175.551319 71.750819 
L 175.876298 72.35602 
L 176.201278 72.484417 
L 176.526257 72.407164 
L 177.176216 73.113425 
L 177.501196 74.013415 
L 177.826175 74.053596 
L 178.151155 73.502551 
L 178.476134 73.610156 
L 178.801114 73.416529 
L 179.126093 73.455928 
L 179.451073 72.918588 
L 179.776052 73.131753 
L 180.426011 73.266712 
L 181.40095 73.60397 
L 182.375889 75.107336 
L 183.025848 75.194052 
L 183.675807 73.75451 
L 184.000786 73.801475 
L 184.325766 73.630568 
L 184.650745 73.821677 
L 184.975725 73.244172 
L 185.300704 73.362912 
L 185.625684 73.010508 
L 185.950663 72.250941 
L 186.275643 73.112219 
L 186.600622 72.943062 
L 186.925602 72.394686 
L 187.250581 72.252934 
L 187.575561 72.399951 
L 187.900541 71.879252 
L 188.22552 71.12167 
L 188.5505 71.034084 
L 188.875479 71.745349 
L 189.200459 71.317458 
L 189.850418 71.482684 
L 190.175397 71.553862 
L 190.500377 71.32543 
L 190.825356 71.277995 
L 191.150336 70.623918 
L 191.475315 70.657943 
L 192.125274 70.265912 
L 192.450254 70.657361 
L 193.425192 71.412332 
L 193.750172 72.245838 
L 194.075152 72.708194 
L 194.725111 72.477599 
L 195.05009 72.520644 
L 195.37507 73.135834 
L 195.700049 73.040163 
L 196.025029 73.28649 
L 196.350008 72.999052 
L 196.674988 72.222391 
L 196.999967 71.806771 
L 197.324947 71.125795 
L 197.649926 71.13412 
L 197.974906 71.012953 
L 198.299885 70.246669 
L 198.624865 70.240579 
L 198.949844 70.813745 
L 199.274824 70.882267 
L 199.599803 70.352222 
L 199.924783 70.1038 
L 200.249762 70.321914 
L 201.224701 68.778712 
L 201.549681 68.9676 
L 201.87466 68.669041 
L 202.524619 69.255261 
L 202.849599 68.742218 
L 203.174578 69.160829 
L 203.499558 68.108545 
L 203.824537 68.192651 
L 204.149517 67.82519 
L 204.474496 67.681783 
L 204.799476 67.792692 
L 205.774414 69.296374 
L 206.099394 69.007394 
L 206.424373 68.940283 
L 207.074333 69.331488 
L 207.399312 68.958822 
L 207.724292 69.039727 
L 208.049271 69.360913 
L 208.69923 69.152858 
L 209.02421 69.389173 
L 209.349189 69.106042 
L 209.999148 70.070785 
L 210.324128 70.315107 
L 210.649107 70.151426 
L 210.974087 69.682051 
L 211.624046 70.344555 
L 212.274005 69.612684 
L 212.598984 70.070818 
L 212.923964 70.299585 
L 213.248943 71.007167 
L 213.573923 71.051316 
L 214.223882 70.418842 
L 214.873841 70.971781 
L 215.198821 70.653822 
L 215.5238 70.132956 
L 215.84878 70.10812 
L 216.173759 69.778075 
L 216.498739 69.920419 
L 217.148698 70.636947 
L 217.473677 70.584136 
L 218.123636 70.817161 
L 218.448616 70.972618 
L 219.098575 71.906964 
L 220.073514 71.549715 
L 220.398493 71.092525 
L 220.723473 71.375345 
L 221.048452 70.762481 
L 221.373432 71.088258 
L 221.698411 70.901515 
L 222.34837 72.019728 
L 222.67335 71.736663 
L 223.323309 72.488042 
L 223.648288 72.290844 
L 224.298247 73.187641 
L 224.623227 72.416121 
L 224.948206 72.419849 
L 225.273186 72.620684 
L 225.923145 72.354423 
L 226.248124 72.745936 
L 226.573104 72.86473 
L 226.898084 72.515941 
L 227.223063 72.605933 
L 227.873022 73.493218 
L 228.522981 73.803252 
L 229.17294 72.903196 
L 229.49792 72.728602 
L 229.822899 73.193882 
L 230.147879 73.077358 
L 230.797838 73.849923 
L 231.122817 73.337132 
L 231.447797 73.264308 
L 231.772776 73.575909 
L 232.422735 73.643814 
L 232.747715 73.860182 
L 233.072695 73.937834 
L 233.722654 74.778241 
L 234.047633 74.864639 
L 234.697592 75.549828 
L 235.022572 75.354351 
L 235.672531 76.053525 
L 235.99751 76.156022 
L 236.647469 76.073122 
L 236.972449 75.816927 
L 237.297428 75.90446 
L 237.622408 75.704806 
L 237.947387 75.754336 
L 238.272367 76.017237 
L 238.597346 75.89816 
L 238.922326 76.029046 
L 239.897265 74.787536 
L 240.547224 75.309632 
L 240.872203 75.420004 
L 241.522162 74.919812 
L 241.847142 75.03874 
L 242.172121 75.326886 
L 242.497101 75.374372 
L 242.82208 75.102877 
L 243.472039 76.006631 
L 243.797019 75.715085 
L 244.121998 76.153416 
L 244.446978 75.980517 
L 245.096937 74.712691 
L 245.746896 75.297451 
L 246.071876 75.254894 
L 246.396855 74.934546 
L 246.721835 74.814372 
L 247.046814 74.983992 
L 247.371794 75.371637 
L 248.021753 74.470885 
L 248.346732 74.384962 
L 248.996691 74.974188 
L 249.64665 75.50891 
L 250.296609 74.860092 
L 250.946568 75.232368 
L 251.271548 75.022335 
L 251.596527 74.987202 
L 252.896446 75.619582 
L 253.221425 75.530951 
L 253.546405 75.65153 
L 253.871384 75.509403 
L 254.196364 75.059165 
L 254.521343 75.406173 
L 254.846323 75.193635 
L 255.171302 75.47836 
L 255.821261 75.131273 
L 256.47122 74.212999 
L 256.7962 74.153825 
L 257.121179 73.63142 
L 257.771138 74.012437 
L 258.096118 73.956905 
L 258.421097 73.639387 
L 258.746077 73.62968 
L 259.071057 73.938381 
L 259.396036 73.60491 
L 259.721016 73.97775 
L 260.045995 74.042701 
L 260.370975 73.571172 
L 261.020934 74.045013 
L 261.345913 73.78349 
L 261.670893 73.332757 
L 261.995872 73.542595 
L 262.320852 72.976773 
L 262.645831 72.751867 
L 263.945749 73.740154 
L 264.270729 73.48908 
L 264.595708 72.886074 
L 264.920688 73.031329 
L 265.245667 73.410818 
L 265.570647 73.295575 
L 265.895627 73.466874 
L 266.545586 74.162455 
L 267.195545 73.255202 
L 267.520524 73.341218 
L 267.845504 73.095447 
L 268.820442 73.847161 
L 269.470401 73.25066 
L 270.12036 73.388787 
L 270.770319 73.304271 
L 272.070238 73.239594 
L 272.720197 73.437651 
L 273.045176 73.093599 
L 273.370156 73.468748 
L 273.695135 73.206538 
L 274.020115 73.296103 
L 274.345094 73.083721 
L 274.670074 72.692212 
L 275.320033 73.260626 
L 275.645012 72.760273 
L 275.969992 72.94886 
L 276.294971 72.797039 
L 276.619951 73.040548 
L 276.94493 72.821277 
L 277.594889 72.10886 
L 277.919869 71.925314 
L 278.244848 71.895496 
L 278.894808 72.624565 
L 279.219787 72.585592 
L 279.544767 72.153042 
L 279.869746 72.026471 
L 280.844685 71.123704 
L 281.169664 71.196201 
L 281.494644 70.942893 
L 281.819623 70.977426 
L 282.144603 70.577984 
L 282.469582 70.940215 
L 282.794562 70.893455 
L 283.119541 71.033888 
L 283.7695 70.054832 
L 284.09448 70.412983 
L 284.744439 70.136394 
L 285.069419 70.266212 
L 285.394398 70.641573 
L 286.044357 70.19106 
L 286.369337 70.483994 
L 286.694316 70.280778 
L 287.994234 70.952083 
L 288.319214 70.959581 
L 288.644193 70.709493 
L 289.294152 71.142435 
L 289.619132 71.577679 
L 289.944111 71.780019 
L 290.269091 71.413567 
L 290.59407 71.522588 
L 290.91905 71.196041 
L 291.244029 71.03092 
L 291.569009 71.176103 
L 291.893989 71.158028 
L 292.218968 71.440031 
L 292.868927 71.365466 
L 294.493825 72.316025 
L 296.118722 72.360369 
L 296.443702 72.654617 
L 296.768681 72.407552 
L 297.41864 72.625525 
L 297.74362 72.498875 
L 298.0686 72.895787 
L 299.043538 72.521993 
L 299.693497 73.094152 
L 300.018477 73.197552 
L 300.343456 73.541837 
L 300.668436 73.12252 
L 300.993415 73.33615 
L 301.968354 72.936504 
L 302.293333 73.041769 
L 302.618313 72.931444 
L 302.943292 73.209345 
L 303.268272 73.302188 
L 303.593251 73.726064 
L 303.918231 73.63448 
L 304.24321 73.836114 
L 304.89317 73.909451 
L 306.193088 74.677626 
L 306.843047 74.858642 
L 307.168026 74.549633 
L 307.493006 74.809525 
L 307.817985 74.650624 
L 308.467944 74.947602 
L 308.792924 74.988416 
L 309.117903 75.32239 
L 309.442883 75.130086 
L 309.767862 75.33122 
L 311.71774 74.991617 
L 312.042719 74.569694 
L 312.367699 74.331611 
L 312.692678 74.288402 
L 313.017658 74.433275 
L 313.342637 74.215661 
L 313.667617 74.479469 
L 313.992596 74.28906 
L 314.317576 74.47083 
L 314.642555 74.387353 
L 314.967535 74.503783 
L 316.267453 74.120819 
L 316.917412 74.50393 
L 317.567371 74.34222 
L 318.21733 74.918232 
L 318.54231 75.150254 
L 318.867289 75.069632 
L 319.192269 74.740644 
L 319.517248 74.590819 
L 319.842228 74.765391 
L 320.167207 74.73727 
L 320.492187 74.495045 
L 321.467125 74.693741 
L 321.792105 74.809171 
L 322.442064 74.722101 
L 322.767043 74.920347 
L 323.741982 74.9437 
L 324.066962 75.135045 
L 324.391941 75.458668 
L 324.716921 75.328077 
L 325.0419 75.536467 
L 325.36688 75.601901 
L 326.341818 75.284876 
L 327.641736 74.077746 
L 327.966716 74.057521 
L 328.616675 74.42877 
L 329.266634 74.93188 
L 329.591613 74.860055 
L 329.916593 74.521004 
L 330.241572 74.591231 
L 330.891532 74.445163 
L 331.541491 74.288081 
L 332.19145 74.483861 
L 332.516429 74.269025 
L 332.841409 74.494512 
L 333.166388 74.367762 
L 333.491368 74.371497 
L 333.816347 74.119891 
L 334.141327 74.225276 
L 334.791286 73.736872 
L 335.116265 74.027844 
L 335.441245 73.921577 
L 335.766224 73.949905 
L 336.091204 73.774675 
L 336.741163 73.875386 
L 337.391122 73.545412 
L 338.041081 73.791644 
L 338.366061 73.772103 
L 338.69104 74.034442 
L 339.01602 73.793534 
L 339.665979 73.82552 
L 340.315938 74.291664 
L 340.640917 73.960831 
L 341.290876 74.138749 
L 342.265815 74.162359 
L 342.590794 74.09034 
L 342.915774 74.236816 
L 343.890713 74.054814 
L 344.865651 74.705551 
L 345.190631 74.738084 
L 345.51561 74.570291 
L 346.490549 74.738363 
L 347.140508 75.203438 
L 347.790467 74.682499 
L 348.440426 74.708911 
L 348.765405 74.744459 
L 349.090385 74.497819 
L 349.415364 74.465555 
L 350.065324 74.819654 
L 351.040262 74.809769 
L 351.690221 74.593853 
L 352.34018 74.785595 
L 352.990139 75.156882 
L 353.315119 75.065152 
L 353.965078 74.71396 
L 354.940016 74.80102 
L 355.264996 74.927033 
L 355.914955 74.701215 
L 356.239934 74.800352 
L 356.564914 75.019111 
L 356.889894 74.998264 
L 357.539853 74.651495 
L 357.864832 74.610677 
L 358.189812 74.708632 
L 358.514791 74.542182 
L 359.16475 74.697221 
L 359.814709 74.657256 
L 360.464668 73.967926 
L 360.789648 73.788399 
L 361.439607 73.824603 
L 361.764586 73.950142 
L 362.414545 74.020757 
L 364.689402 74.333949 
L 365.014382 73.900514 
L 366.639279 74.219825 
L 367.289238 73.844941 
L 367.614218 74.041138 
L 367.939197 73.670094 
L 370.864013 74.438836 
L 371.188993 74.350759 
L 371.513972 74.064427 
L 371.838952 74.076356 
L 373.463849 73.468881 
L 374.113808 73.897957 
L 374.438788 73.739694 
L 375.088747 74.081029 
L 376.063686 74.266358 
L 376.388665 74.456086 
L 377.038624 74.295556 
L 377.688583 74.834135 
L 378.013563 74.848737 
L 378.338542 75.069987 
L 378.663522 75.015879 
L 378.988501 74.743329 
L 379.63846 75.057304 
L 379.96344 74.912623 
L 380.613399 75.288015 
L 380.938378 75.035882 
L 381.588337 75.367722 
L 382.238296 75.423517 
L 382.563276 75.230615 
L 382.888256 75.246324 
L 383.863194 74.740018 
L 384.188174 74.821348 
L 385.163112 74.694299 
L 385.488092 74.507718 
L 386.138051 74.716916 
L 387.112989 74.342168 
L 387.437969 73.920513 
L 388.412907 74.058121 
L 389.062867 73.897447 
L 389.387846 74.01016 
L 389.712826 73.832809 
L 391.012744 74.208907 
L 391.662703 73.834987 
L 392.312662 73.113427 
L 393.937559 73.170966 
L 394.262539 73.100668 
L 394.587518 72.904036 
L 394.912498 72.859591 
L 395.887437 72.240604 
L 396.537396 71.873888 
L 396.862375 71.542696 
L 397.187355 71.416198 
L 397.837314 70.775874 
L 398.487273 70.336135 
L 398.487273 70.336135 
" clip-path="url(#pf50273f00b)" style="fill: none; stroke-dasharray: 2,3.3; stroke-dashoffset: 0; stroke: #ffa500; stroke-width: 2"/>
   </g>
   <g id="patch_3">
    <path d="M 57.6 307.584 
L 57.6 41.472 
" style="fill: none; stroke: #000000; stroke-width: 0.8; stroke-linejoin: miter; stroke-linecap: square"/>
   </g>
   <g id="patch_4">
    <path d="M 414.72 307.584 
L 414.72 41.472 
" style="fill: none; stroke: #000000; stroke-width: 0.8; stroke-linejoin: miter; stroke-linecap: square"/>
   </g>
   <g id="patch_5">
    <path d="M 57.6 307.584 
L 414.72 307.584 
" style="fill: none; stroke: #000000; stroke-width: 0.8; stroke-linejoin: miter; stroke-linecap: square"/>
   </g>
   <g id="patch_6">
    <path d="M 57.6 41.472 
L 414.72 41.472 
" style="fill: none; stroke: #000000; stroke-width: 0.8; stroke-linejoin: miter; stroke-linecap: square"/>
   </g>
   <g id="text_16">
    <!-- Waiting Time Plot -->
    <g transform="translate(183.833438 8.2635)scale(0.12 -0.12)">
     <defs>
      <path id="DejaVuSans-50" d="M 1259 4147 
L 1259 2394 
L 2053 2394 
Q 2494 2394 2734 2622 
Q 2975 2850 2975 3272 
Q 2975 3691 2734 3919 
Q 2494 4147 2053 4147 
L 1259 4147 
z
M 628 4666 
L 2053 4666 
Q 2838 4666 3239 4311 
Q 3641 3956 3641 3272 
Q 3641 2581 3239 2228 
Q 2838 1875 2053 1875 
L 1259 1875 
L 1259 0 
L 628 0 
L 628 4666 
z
" transform="scale(0.015625)"/>
      <path id="DejaVuSans-6c" d="M 603 4863 
L 1178 4863 
L 1178 0 
L 603 0 
L 603 4863 
z
" transform="scale(0.015625)"/>
     </defs>
     <use xlink:href="#DejaVuSans-57"/>
     <use xlink:href="#DejaVuSans-61" x="92.501953"/>
     <use xlink:href="#DejaVuSans-69" x="153.78125"/>
     <use xlink:href="#DejaVuSans-74" x="181.564453"/>
     <use xlink:href="#DejaVuSans-69" x="220.773438"/>
     <use xlink:href="#DejaVuSans-6e" x="248.556641"/>
     <use xlink:href="#DejaVuSans-67" x="311.935547"/>
     <use xlink:href="#DejaVuSans-20" x="375.412109"/>
     <use xlink:href="#DejaVuSans-54" x="407.199219"/>
     <use xlink:href="#DejaVuSans-69" x="465.158203"/>
     <use xlink:href="#DejaVuSans-6d" x="492.941406"/>
     <use xlink:href="#DejaVuSans-65" x="590.353516"/>
     <use xlink:href="#DejaVuSans-20" x="651.876953"/>
     <use xlink:href="#DejaVuSans-50" x="683.664062"/>
     <use xlink:href="#DejaVuSans-6c" x="743.966797"/>
     <use xlink:href="#DejaVuSans-6f" x="771.75"/>
     <use xlink:href="#DejaVuSans-74" x="832.931641"/>
    </g>
    <!--  avg_d = 4529.951036218901  -->
    <g transform="translate(142.671562 21.700875)scale(0.12 -0.12)">
     <defs>
      <path id="DejaVuSans-76" d="M 191 3500 
L 800 3500 
L 1894 563 
L 2988 3500 
L 3597 3500 
L 2284 0 
L 1503 0 
L 191 3500 
z
" transform="scale(0.015625)"/>
      <path id="DejaVuSans-5f" d="M 3263 -1063 
L 3263 -1509 
L -63 -1509 
L -63 -1063 
L 3263 -1063 
z
" transform="scale(0.015625)"/>
      <path id="DejaVuSans-3d" d="M 678 2906 
L 4684 2906 
L 4684 2381 
L 678 2381 
L 678 2906 
z
M 678 1631 
L 4684 1631 
L 4684 1100 
L 678 1100 
L 678 1631 
z
" transform="scale(0.015625)"/>
      <path id="DejaVuSans-35" d="M 691 4666 
L 3169 4666 
L 3169 4134 
L 1269 4134 
L 1269 2991 
Q 1406 3038 1543 3061 
Q 1681 3084 1819 3084 
Q 2600 3084 3056 2656 
Q 3513 2228 3513 1497 
Q 3513 744 3044 326 
Q 2575 -91 1722 -91 
Q 1428 -91 1123 -41 
Q 819 9 494 109 
L 494 744 
Q 775 591 1075 516 
Q 1375 441 1709 441 
Q 2250 441 2565 725 
Q 2881 1009 2881 1497 
Q 2881 1984 2565 2268 
Q 2250 2553 1709 2553 
Q 1456 2553 1204 2497 
Q 953 2441 691 2322 
L 691 4666 
z
" transform="scale(0.015625)"/>
      <path id="DejaVuSans-39" d="M 703 97 
L 703 672 
Q 941 559 1184 500 
Q 1428 441 1663 441 
Q 2288 441 2617 861 
Q 2947 1281 2994 2138 
Q 2813 1869 2534 1725 
Q 2256 1581 1919 1581 
Q 1219 1581 811 2004 
Q 403 2428 403 3163 
Q 403 3881 828 4315 
Q 1253 4750 1959 4750 
Q 2769 4750 3195 4129 
Q 3622 3509 3622 2328 
Q 3622 1225 3098 567 
Q 2575 -91 1691 -91 
Q 1453 -91 1209 -44 
Q 966 3 703 97 
z
M 1959 2075 
Q 2384 2075 2632 2365 
Q 2881 2656 2881 3163 
Q 2881 3666 2632 3958 
Q 2384 4250 1959 4250 
Q 1534 4250 1286 3958 
Q 1038 3666 1038 3163 
Q 1038 2656 1286 2365 
Q 1534 2075 1959 2075 
z
" transform="scale(0.015625)"/>
      <path id="DejaVuSans-2e" d="M 684 794 
L 1344 794 
L 1344 0 
L 684 0 
L 684 794 
z
" transform="scale(0.015625)"/>
     </defs>
     <use xlink:href="#DejaVuSans-20"/>
     <use xlink:href="#DejaVuSans-61" x="31.787109"/>
     <use xlink:href="#DejaVuSans-76" x="93.066406"/>
     <use xlink:href="#DejaVuSans-67" x="152.246094"/>
     <use xlink:href="#DejaVuSans-5f" x="215.722656"/>
     <use xlink:href="#DejaVuSans-64" x="265.722656"/>
     <use xlink:href="#DejaVuSans-20" x="329.199219"/>
     <use xlink:href="#DejaVuSans-3d" x="360.986328"/>
     <use xlink:href="#DejaVuSans-20" x="444.775391"/>
     <use xlink:href="#DejaVuSans-34" x="476.5625"/>
     <use xlink:href="#DejaVuSans-35" x="540.185547"/>
     <use xlink:href="#DejaVuSans-32" x="603.808594"/>
     <use xlink:href="#DejaVuSans-39" x="667.431641"/>
     <use xlink:href="#DejaVuSans-2e" x="731.054688"/>
     <use xlink:href="#DejaVuSans-39" x="762.841797"/>
     <use xlink:href="#DejaVuSans-35" x="826.464844"/>
     <use xlink:href="#DejaVuSans-31" x="890.087891"/>
     <use xlink:href="#DejaVuSans-30" x="953.710938"/>
     <use xlink:href="#DejaVuSans-33" x="1017.333984"/>
     <use xlink:href="#DejaVuSans-36" x="1080.957031"/>
     <use xlink:href="#DejaVuSans-32" x="1144.580078"/>
     <use xlink:href="#DejaVuSans-31" x="1208.203125"/>
     <use xlink:href="#DejaVuSans-38" x="1271.826172"/>
     <use xlink:href="#DejaVuSans-39" x="1335.449219"/>
     <use xlink:href="#DejaVuSans-30" x="1399.072266"/>
     <use xlink:href="#DejaVuSans-31" x="1462.695312"/>
     <use xlink:href="#DejaVuSans-20" x="1526.318359"/>
    </g>
    <!--  avg_a = 4528.50480905337diff = 1.446227165531127 -->
    <g transform="translate(66.999375 35.472)scale(0.12 -0.12)">
     <defs>
      <path id="DejaVuSans-37" d="M 525 4666 
L 3525 4666 
L 3525 4397 
L 1831 0 
L 1172 0 
L 2766 4134 
L 525 4134 
L 525 4666 
z
" transform="scale(0.015625)"/>
     </defs>
     <use xlink:href="#DejaVuSans-20"/>
     <use xlink:href="#DejaVuSans-61" x="31.787109"/>
     <use xlink:href="#DejaVuSans-76" x="93.066406"/>
     <use xlink:href="#DejaVuSans-67" x="152.246094"/>
     <use xlink:href="#DejaVuSans-5f" x="215.722656"/>
     <use xlink:href="#DejaVuSans-61" x="265.722656"/>
     <use xlink:href="#DejaVuSans-20" x="327.001953"/>
     <use xlink:href="#DejaVuSans-3d" x="358.789062"/>
     <use xlink:href="#DejaVuSans-20" x="442.578125"/>
     <use xlink:href="#DejaVuSans-34" x="474.365234"/>
     <use xlink:href="#DejaVuSans-35" x="537.988281"/>
     <use xlink:href="#DejaVuSans-32" x="601.611328"/>
     <use xlink:href="#DejaVuSans-38" x="665.234375"/>
     <use xlink:href="#DejaVuSans-2e" x="728.857422"/>
     <use xlink:href="#DejaVuSans-35" x="760.644531"/>
     <use xlink:href="#DejaVuSans-30" x="824.267578"/>
     <use xlink:href="#DejaVuSans-34" x="887.890625"/>
     <use xlink:href="#DejaVuSans-38" x="951.513672"/>
     <use xlink:href="#DejaVuSans-30" x="1015.136719"/>
     <use xlink:href="#DejaVuSans-39" x="1078.759766"/>
     <use xlink:href="#DejaVuSans-30" x="1142.382812"/>
     <use xlink:href="#DejaVuSans-35" x="1206.005859"/>
     <use xlink:href="#DejaVuSans-33" x="1269.628906"/>
     <use xlink:href="#DejaVuSans-33" x="1333.251953"/>
     <use xlink:href="#DejaVuSans-37" x="1396.875"/>
     <use xlink:href="#DejaVuSans-64" x="1460.498047"/>
     <use xlink:href="#DejaVuSans-69" x="1523.974609"/>
     <use xlink:href="#DejaVuSans-66" x="1551.757812"/>
     <use xlink:href="#DejaVuSans-66" x="1586.962891"/>
     <use xlink:href="#DejaVuSans-20" x="1622.167969"/>
     <use xlink:href="#DejaVuSans-3d" x="1653.955078"/>
     <use xlink:href="#DejaVuSans-20" x="1737.744141"/>
     <use xlink:href="#DejaVuSans-31" x="1769.53125"/>
     <use xlink:href="#DejaVuSans-2e" x="1833.154297"/>
     <use xlink:href="#DejaVuSans-34" x="1864.941406"/>
     <use xlink:href="#DejaVuSans-34" x="1928.564453"/>
     <use xlink:href="#DejaVuSans-36" x="1992.1875"/>
     <use xlink:href="#DejaVuSans-32" x="2055.810547"/>
     <use xlink:href="#DejaVuSans-32" x="2119.433594"/>
     <use xlink:href="#DejaVuSans-37" x="2183.056641"/>
     <use xlink:href="#DejaVuSans-31" x="2246.679688"/>
     <use xlink:href="#DejaVuSans-36" x="2310.302734"/>
     <use xlink:href="#DejaVuSans-35" x="2373.925781"/>
     <use xlink:href="#DejaVuSans-35" x="2437.548828"/>
     <use xlink:href="#DejaVuSans-33" x="2501.171875"/>
     <use xlink:href="#DejaVuSans-31" x="2564.794922"/>
     <use xlink:href="#DejaVuSans-31" x="2628.417969"/>
     <use xlink:href="#DejaVuSans-32" x="2692.041016"/>
     <use xlink:href="#DejaVuSans-37" x="2755.664062"/>
    </g>
   </g>
   <g id="legend_1">
    <g id="patch_7">
     <path d="M 263.88875 302.584 
L 407.72 302.584 
Q 409.72 302.584 409.72 300.584 
L 409.72 272.22775 
Q 409.72 270.22775 407.72 270.22775 
L 263.88875 270.22775 
Q 261.88875 270.22775 261.88875 272.22775 
L 261.88875 300.584 
Q 261.88875 302.584 263.88875 302.584 
z
" style="fill: #ffffff; opacity: 0.8; stroke: #cccccc; stroke-linejoin: miter"/>
    </g>
    <g id="line2d_16">
     <path d="M 265.88875 278.326187 
L 275.88875 278.326187 
L 285.88875 278.326187 
" style="fill: none; stroke-dasharray: 2,3.3; stroke-dashoffset: 0; stroke: #0000ff; stroke-width: 2"/>
    </g>
    <g id="text_17">
     <!-- Average (Default) -->
     <g transform="translate(293.88875 281.826187)scale(0.1 -0.1)">
      <defs>
       <path id="DejaVuSans-41" d="M 2188 4044 
L 1331 1722 
L 3047 1722 
L 2188 4044 
z
M 1831 4666 
L 2547 4666 
L 4325 0 
L 3669 0 
L 3244 1197 
L 1141 1197 
L 716 0 
L 50 0 
L 1831 4666 
z
" transform="scale(0.015625)"/>
       <path id="DejaVuSans-28" d="M 1984 4856 
Q 1566 4138 1362 3434 
Q 1159 2731 1159 2009 
Q 1159 1288 1364 580 
Q 1569 -128 1984 -844 
L 1484 -844 
Q 1016 -109 783 600 
Q 550 1309 550 2009 
Q 550 2706 781 3412 
Q 1013 4119 1484 4856 
L 1984 4856 
z
" transform="scale(0.015625)"/>
       <path id="DejaVuSans-44" d="M 1259 4147 
L 1259 519 
L 2022 519 
Q 2988 519 3436 956 
Q 3884 1394 3884 2338 
Q 3884 3275 3436 3711 
Q 2988 4147 2022 4147 
L 1259 4147 
z
M 628 4666 
L 1925 4666 
Q 3281 4666 3915 4102 
Q 4550 3538 4550 2338 
Q 4550 1131 3912 565 
Q 3275 0 1925 0 
L 628 0 
L 628 4666 
z
" transform="scale(0.015625)"/>
       <path id="DejaVuSans-29" d="M 513 4856 
L 1013 4856 
Q 1481 4119 1714 3412 
Q 1947 2706 1947 2009 
Q 1947 1309 1714 600 
Q 1481 -109 1013 -844 
L 513 -844 
Q 928 -128 1133 580 
Q 1338 1288 1338 2009 
Q 1338 2731 1133 3434 
Q 928 4138 513 4856 
z
" transform="scale(0.015625)"/>
      </defs>
      <use xlink:href="#DejaVuSans-41"/>
      <use xlink:href="#DejaVuSans-76" x="62.533203"/>
      <use xlink:href="#DejaVuSans-65" x="121.712891"/>
      <use xlink:href="#DejaVuSans-72" x="183.236328"/>
      <use xlink:href="#DejaVuSans-61" x="224.349609"/>
      <use xlink:href="#DejaVuSans-67" x="285.628906"/>
      <use xlink:href="#DejaVuSans-65" x="349.105469"/>
      <use xlink:href="#DejaVuSans-20" x="410.628906"/>
      <use xlink:href="#DejaVuSans-28" x="442.416016"/>
      <use xlink:href="#DejaVuSans-44" x="481.429688"/>
      <use xlink:href="#DejaVuSans-65" x="558.431641"/>
      <use xlink:href="#DejaVuSans-66" x="619.955078"/>
      <use xlink:href="#DejaVuSans-61" x="655.160156"/>
      <use xlink:href="#DejaVuSans-75" x="716.439453"/>
      <use xlink:href="#DejaVuSans-6c" x="779.818359"/>
      <use xlink:href="#DejaVuSans-74" x="807.601562"/>
      <use xlink:href="#DejaVuSans-29" x="846.810547"/>
     </g>
    </g>
    <g id="line2d_17">
     <path d="M 265.88875 293.004312 
L 275.88875 293.004312 
L 285.88875 293.004312 
" style="fill: none; stroke-dasharray: 2,3.3; stroke-dashoffset: 0; stroke: #ffa500; stroke-width: 2"/>
    </g>
    <g id="text_18">
     <!-- Average (Anticipation) -->
     <g transform="translate(293.88875 296.504312)scale(0.1 -0.1)">
      <defs>
       <path id="DejaVuSans-63" d="M 3122 3366 
L 3122 2828 
Q 2878 2963 2633 3030 
Q 2388 3097 2138 3097 
Q 1578 3097 1268 2742 
Q 959 2388 959 1747 
Q 959 1106 1268 751 
Q 1578 397 2138 397 
Q 2388 397 2633 464 
Q 2878 531 3122 666 
L 3122 134 
Q 2881 22 2623 -34 
Q 2366 -91 2075 -91 
Q 1284 -91 818 406 
Q 353 903 353 1747 
Q 353 2603 823 3093 
Q 1294 3584 2113 3584 
Q 2378 3584 2631 3529 
Q 2884 3475 3122 3366 
z
" transform="scale(0.015625)"/>
       <path id="DejaVuSans-70" d="M 1159 525 
L 1159 -1331 
L 581 -1331 
L 581 3500 
L 1159 3500 
L 1159 2969 
Q 1341 3281 1617 3432 
Q 1894 3584 2278 3584 
Q 2916 3584 3314 3078 
Q 3713 2572 3713 1747 
Q 3713 922 3314 415 
Q 2916 -91 2278 -91 
Q 1894 -91 1617 61 
Q 1341 213 1159 525 
z
M 3116 1747 
Q 3116 2381 2855 2742 
Q 2594 3103 2138 3103 
Q 1681 3103 1420 2742 
Q 1159 2381 1159 1747 
Q 1159 1113 1420 752 
Q 1681 391 2138 391 
Q 2594 391 2855 752 
Q 3116 1113 3116 1747 
z
" transform="scale(0.015625)"/>
      </defs>
      <use xlink:href="#DejaVuSans-41"/>
      <use xlink:href="#DejaVuSans-76" x="62.533203"/>
      <use xlink:href="#DejaVuSans-65" x="121.712891"/>
      <use xlink:href="#DejaVuSans-72" x="183.236328"/>
      <use xlink:href="#DejaVuSans-61" x="224.349609"/>
      <use xlink:href="#DejaVuSans-67" x="285.628906"/>
      <use xlink:href="#DejaVuSans-65" x="349.105469"/>
      <use xlink:href="#DejaVuSans-20" x="410.628906"/>
      <use xlink:href="#DejaVuSans-28" x="442.416016"/>
      <use xlink:href="#DejaVuSans-41" x="481.429688"/>
      <use xlink:href="#DejaVuSans-6e" x="549.837891"/>
      <use xlink:href="#DejaVuSans-74" x="613.216797"/>
      <use xlink:href="#DejaVuSans-69" x="652.425781"/>
      <use xlink:href="#DejaVuSans-63" x="680.208984"/>
      <use xlink:href="#DejaVuSans-69" x="735.189453"/>
      <use xlink:href="#DejaVuSans-70" x="762.972656"/>
      <use xlink:href="#DejaVuSans-61" x="826.449219"/>
      <use xlink:href="#DejaVuSans-74" x="887.728516"/>
      <use xlink:href="#DejaVuSans-69" x="926.9375"/>
      <use xlink:href="#DejaVuSans-6f" x="954.720703"/>
      <use xlink:href="#DejaVuSans-6e" x="1015.902344"/>
      <use xlink:href="#DejaVuSans-29" x="1079.28125"/>
     </g>
    </g>
   </g>
  </g>
 </g>
 <defs>
  <clipPath id="pf50273f00b">
   <rect x="57.6" y="41.472" width="357.12" height="266.112"/>
  </clipPath>
 </defs>
</svg>
