<?xml version="1.0" encoding="utf-8" standalone="no"?>
<!DOCTYPE svg PUBLIC "-//W3C//DTD SVG 1.1//EN"
  "http://www.w3.org/Graphics/SVG/1.1/DTD/svg11.dtd">
<svg xmlns:xlink="http://www.w3.org/1999/xlink" width="460.8pt" height="345.6pt" viewBox="0 0 460.8 345.6" xmlns="http://www.w3.org/2000/svg" version="1.1">
 <metadata>
  <rdf:RDF xmlns:dc="http://purl.org/dc/elements/1.1/" xmlns:cc="http://creativecommons.org/ns#" xmlns:rdf="http://www.w3.org/1999/02/22-rdf-syntax-ns#">
   <cc:Work>
    <dc:type rdf:resource="http://purl.org/dc/dcmitype/StillImage"/>
    <dc:date>2022-10-04T12:42:37.505164</dc:date>
    <dc:format>image/svg+xml</dc:format>
    <dc:creator>
     <cc:Agent>
      <dc:title>Matplotlib v3.5.3, https://matplotlib.org/</dc:title>
     </cc:Agent>
    </dc:creator>
   </cc:Work>
  </rdf:RDF>
 </metadata>
 <defs>
  <style type="text/css">*{stroke-linejoin: round; stroke-linecap: butt}</style>
 </defs>
 <g id="figure_1">
  <g id="patch_1">
   <path d="M 0 345.6 
L 460.8 345.6 
L 460.8 0 
L 0 0 
z
" style="fill: #ffffff"/>
  </g>
  <g id="axes_1">
   <g id="patch_2">
    <path d="M 57.6 307.584 
L 414.72 307.584 
L 414.72 41.472 
L 57.6 41.472 
z
" style="fill: #ffffff"/>
   </g>
   <g id="matplotlib.axis_1">
    <g id="xtick_1">
     <g id="line2d_1">
      <defs>
       <path id="med542df525" d="M 0 0 
L 0 3.5 
" style="stroke: #000000; stroke-width: 0.8"/>
      </defs>
      <g>
       <use xlink:href="#med542df525" x="73.832727" y="307.584" style="stroke: #000000; stroke-width: 0.8"/>
      </g>
     </g>
     <g id="text_1">
      <!-- 0 -->
      <g transform="translate(70.651477 322.182437)scale(0.1 -0.1)">
       <defs>
        <path id="DejaVuSans-30" d="M 2034 4250 
Q 1547 4250 1301 3770 
Q 1056 3291 1056 2328 
Q 1056 1369 1301 889 
Q 1547 409 2034 409 
Q 2525 409 2770 889 
Q 3016 1369 3016 2328 
Q 3016 3291 2770 3770 
Q 2525 4250 2034 4250 
z
M 2034 4750 
Q 2819 4750 3233 4129 
Q 3647 3509 3647 2328 
Q 3647 1150 3233 529 
Q 2819 -91 2034 -91 
Q 1250 -91 836 529 
Q 422 1150 422 2328 
Q 422 3509 836 4129 
Q 1250 4750 2034 4750 
z
" transform="scale(0.015625)"/>
       </defs>
       <use xlink:href="#DejaVuSans-30"/>
      </g>
     </g>
    </g>
    <g id="xtick_2">
     <g id="line2d_2">
      <g>
       <use xlink:href="#med542df525" x="138.828632" y="307.584" style="stroke: #000000; stroke-width: 0.8"/>
      </g>
     </g>
     <g id="text_2">
      <!-- 200 -->
      <g transform="translate(129.284882 322.182437)scale(0.1 -0.1)">
       <defs>
        <path id="DejaVuSans-32" d="M 1228 531 
L 3431 531 
L 3431 0 
L 469 0 
L 469 531 
Q 828 903 1448 1529 
Q 2069 2156 2228 2338 
Q 2531 2678 2651 2914 
Q 2772 3150 2772 3378 
Q 2772 3750 2511 3984 
Q 2250 4219 1831 4219 
Q 1534 4219 1204 4116 
Q 875 4013 500 3803 
L 500 4441 
Q 881 4594 1212 4672 
Q 1544 4750 1819 4750 
Q 2544 4750 2975 4387 
Q 3406 4025 3406 3419 
Q 3406 3131 3298 2873 
Q 3191 2616 2906 2266 
Q 2828 2175 2409 1742 
Q 1991 1309 1228 531 
z
" transform="scale(0.015625)"/>
       </defs>
       <use xlink:href="#DejaVuSans-32"/>
       <use xlink:href="#DejaVuSans-30" x="63.623047"/>
       <use xlink:href="#DejaVuSans-30" x="127.246094"/>
      </g>
     </g>
    </g>
    <g id="xtick_3">
     <g id="line2d_3">
      <g>
       <use xlink:href="#med542df525" x="203.824537" y="307.584" style="stroke: #000000; stroke-width: 0.8"/>
      </g>
     </g>
     <g id="text_3">
      <!-- 400 -->
      <g transform="translate(194.280787 322.182437)scale(0.1 -0.1)">
       <defs>
        <path id="DejaVuSans-34" d="M 2419 4116 
L 825 1625 
L 2419 1625 
L 2419 4116 
z
M 2253 4666 
L 3047 4666 
L 3047 1625 
L 3713 1625 
L 3713 1100 
L 3047 1100 
L 3047 0 
L 2419 0 
L 2419 1100 
L 313 1100 
L 313 1709 
L 2253 4666 
z
" transform="scale(0.015625)"/>
       </defs>
       <use xlink:href="#DejaVuSans-34"/>
       <use xlink:href="#DejaVuSans-30" x="63.623047"/>
       <use xlink:href="#DejaVuSans-30" x="127.246094"/>
      </g>
     </g>
    </g>
    <g id="xtick_4">
     <g id="line2d_4">
      <g>
       <use xlink:href="#med542df525" x="268.820442" y="307.584" style="stroke: #000000; stroke-width: 0.8"/>
      </g>
     </g>
     <g id="text_4">
      <!-- 600 -->
      <g transform="translate(259.276692 322.182437)scale(0.1 -0.1)">
       <defs>
        <path id="DejaVuSans-36" d="M 2113 2584 
Q 1688 2584 1439 2293 
Q 1191 2003 1191 1497 
Q 1191 994 1439 701 
Q 1688 409 2113 409 
Q 2538 409 2786 701 
Q 3034 994 3034 1497 
Q 3034 2003 2786 2293 
Q 2538 2584 2113 2584 
z
M 3366 4563 
L 3366 3988 
Q 3128 4100 2886 4159 
Q 2644 4219 2406 4219 
Q 1781 4219 1451 3797 
Q 1122 3375 1075 2522 
Q 1259 2794 1537 2939 
Q 1816 3084 2150 3084 
Q 2853 3084 3261 2657 
Q 3669 2231 3669 1497 
Q 3669 778 3244 343 
Q 2819 -91 2113 -91 
Q 1303 -91 875 529 
Q 447 1150 447 2328 
Q 447 3434 972 4092 
Q 1497 4750 2381 4750 
Q 2619 4750 2861 4703 
Q 3103 4656 3366 4563 
z
" transform="scale(0.015625)"/>
       </defs>
       <use xlink:href="#DejaVuSans-36"/>
       <use xlink:href="#DejaVuSans-30" x="63.623047"/>
       <use xlink:href="#DejaVuSans-30" x="127.246094"/>
      </g>
     </g>
    </g>
    <g id="xtick_5">
     <g id="line2d_5">
      <g>
       <use xlink:href="#med542df525" x="333.816347" y="307.584" style="stroke: #000000; stroke-width: 0.8"/>
      </g>
     </g>
     <g id="text_5">
      <!-- 800 -->
      <g transform="translate(324.272597 322.182437)scale(0.1 -0.1)">
       <defs>
        <path id="DejaVuSans-38" d="M 2034 2216 
Q 1584 2216 1326 1975 
Q 1069 1734 1069 1313 
Q 1069 891 1326 650 
Q 1584 409 2034 409 
Q 2484 409 2743 651 
Q 3003 894 3003 1313 
Q 3003 1734 2745 1975 
Q 2488 2216 2034 2216 
z
M 1403 2484 
Q 997 2584 770 2862 
Q 544 3141 544 3541 
Q 544 4100 942 4425 
Q 1341 4750 2034 4750 
Q 2731 4750 3128 4425 
Q 3525 4100 3525 3541 
Q 3525 3141 3298 2862 
Q 3072 2584 2669 2484 
Q 3125 2378 3379 2068 
Q 3634 1759 3634 1313 
Q 3634 634 3220 271 
Q 2806 -91 2034 -91 
Q 1263 -91 848 271 
Q 434 634 434 1313 
Q 434 1759 690 2068 
Q 947 2378 1403 2484 
z
M 1172 3481 
Q 1172 3119 1398 2916 
Q 1625 2713 2034 2713 
Q 2441 2713 2670 2916 
Q 2900 3119 2900 3481 
Q 2900 3844 2670 4047 
Q 2441 4250 2034 4250 
Q 1625 4250 1398 4047 
Q 1172 3844 1172 3481 
z
" transform="scale(0.015625)"/>
       </defs>
       <use xlink:href="#DejaVuSans-38"/>
       <use xlink:href="#DejaVuSans-30" x="63.623047"/>
       <use xlink:href="#DejaVuSans-30" x="127.246094"/>
      </g>
     </g>
    </g>
    <g id="xtick_6">
     <g id="line2d_6">
      <g>
       <use xlink:href="#med542df525" x="398.812252" y="307.584" style="stroke: #000000; stroke-width: 0.8"/>
      </g>
     </g>
     <g id="text_6">
      <!-- 1000 -->
      <g transform="translate(386.087252 322.182437)scale(0.1 -0.1)">
       <defs>
        <path id="DejaVuSans-31" d="M 794 531 
L 1825 531 
L 1825 4091 
L 703 3866 
L 703 4441 
L 1819 4666 
L 2450 4666 
L 2450 531 
L 3481 531 
L 3481 0 
L 794 0 
L 794 531 
z
" transform="scale(0.015625)"/>
       </defs>
       <use xlink:href="#DejaVuSans-31"/>
       <use xlink:href="#DejaVuSans-30" x="63.623047"/>
       <use xlink:href="#DejaVuSans-30" x="127.246094"/>
       <use xlink:href="#DejaVuSans-30" x="190.869141"/>
      </g>
     </g>
    </g>
    <g id="text_7">
     <!-- Number of Orders -->
     <g transform="translate(191.261562 335.860562)scale(0.1 -0.1)">
      <defs>
       <path id="DejaVuSans-4e" d="M 628 4666 
L 1478 4666 
L 3547 763 
L 3547 4666 
L 4159 4666 
L 4159 0 
L 3309 0 
L 1241 3903 
L 1241 0 
L 628 0 
L 628 4666 
z
" transform="scale(0.015625)"/>
       <path id="DejaVuSans-75" d="M 544 1381 
L 544 3500 
L 1119 3500 
L 1119 1403 
Q 1119 906 1312 657 
Q 1506 409 1894 409 
Q 2359 409 2629 706 
Q 2900 1003 2900 1516 
L 2900 3500 
L 3475 3500 
L 3475 0 
L 2900 0 
L 2900 538 
Q 2691 219 2414 64 
Q 2138 -91 1772 -91 
Q 1169 -91 856 284 
Q 544 659 544 1381 
z
M 1991 3584 
L 1991 3584 
z
" transform="scale(0.015625)"/>
       <path id="DejaVuSans-6d" d="M 3328 2828 
Q 3544 3216 3844 3400 
Q 4144 3584 4550 3584 
Q 5097 3584 5394 3201 
Q 5691 2819 5691 2113 
L 5691 0 
L 5113 0 
L 5113 2094 
Q 5113 2597 4934 2840 
Q 4756 3084 4391 3084 
Q 3944 3084 3684 2787 
Q 3425 2491 3425 1978 
L 3425 0 
L 2847 0 
L 2847 2094 
Q 2847 2600 2669 2842 
Q 2491 3084 2119 3084 
Q 1678 3084 1418 2786 
Q 1159 2488 1159 1978 
L 1159 0 
L 581 0 
L 581 3500 
L 1159 3500 
L 1159 2956 
Q 1356 3278 1631 3431 
Q 1906 3584 2284 3584 
Q 2666 3584 2933 3390 
Q 3200 3197 3328 2828 
z
" transform="scale(0.015625)"/>
       <path id="DejaVuSans-62" d="M 3116 1747 
Q 3116 2381 2855 2742 
Q 2594 3103 2138 3103 
Q 1681 3103 1420 2742 
Q 1159 2381 1159 1747 
Q 1159 1113 1420 752 
Q 1681 391 2138 391 
Q 2594 391 2855 752 
Q 3116 1113 3116 1747 
z
M 1159 2969 
Q 1341 3281 1617 3432 
Q 1894 3584 2278 3584 
Q 2916 3584 3314 3078 
Q 3713 2572 3713 1747 
Q 3713 922 3314 415 
Q 2916 -91 2278 -91 
Q 1894 -91 1617 61 
Q 1341 213 1159 525 
L 1159 0 
L 581 0 
L 581 4863 
L 1159 4863 
L 1159 2969 
z
" transform="scale(0.015625)"/>
       <path id="DejaVuSans-65" d="M 3597 1894 
L 3597 1613 
L 953 1613 
Q 991 1019 1311 708 
Q 1631 397 2203 397 
Q 2534 397 2845 478 
Q 3156 559 3463 722 
L 3463 178 
Q 3153 47 2828 -22 
Q 2503 -91 2169 -91 
Q 1331 -91 842 396 
Q 353 884 353 1716 
Q 353 2575 817 3079 
Q 1281 3584 2069 3584 
Q 2775 3584 3186 3129 
Q 3597 2675 3597 1894 
z
M 3022 2063 
Q 3016 2534 2758 2815 
Q 2500 3097 2075 3097 
Q 1594 3097 1305 2825 
Q 1016 2553 972 2059 
L 3022 2063 
z
" transform="scale(0.015625)"/>
       <path id="DejaVuSans-72" d="M 2631 2963 
Q 2534 3019 2420 3045 
Q 2306 3072 2169 3072 
Q 1681 3072 1420 2755 
Q 1159 2438 1159 1844 
L 1159 0 
L 581 0 
L 581 3500 
L 1159 3500 
L 1159 2956 
Q 1341 3275 1631 3429 
Q 1922 3584 2338 3584 
Q 2397 3584 2469 3576 
Q 2541 3569 2628 3553 
L 2631 2963 
z
" transform="scale(0.015625)"/>
       <path id="DejaVuSans-20" transform="scale(0.015625)"/>
       <path id="DejaVuSans-6f" d="M 1959 3097 
Q 1497 3097 1228 2736 
Q 959 2375 959 1747 
Q 959 1119 1226 758 
Q 1494 397 1959 397 
Q 2419 397 2687 759 
Q 2956 1122 2956 1747 
Q 2956 2369 2687 2733 
Q 2419 3097 1959 3097 
z
M 1959 3584 
Q 2709 3584 3137 3096 
Q 3566 2609 3566 1747 
Q 3566 888 3137 398 
Q 2709 -91 1959 -91 
Q 1206 -91 779 398 
Q 353 888 353 1747 
Q 353 2609 779 3096 
Q 1206 3584 1959 3584 
z
" transform="scale(0.015625)"/>
       <path id="DejaVuSans-66" d="M 2375 4863 
L 2375 4384 
L 1825 4384 
Q 1516 4384 1395 4259 
Q 1275 4134 1275 3809 
L 1275 3500 
L 2222 3500 
L 2222 3053 
L 1275 3053 
L 1275 0 
L 697 0 
L 697 3053 
L 147 3053 
L 147 3500 
L 697 3500 
L 697 3744 
Q 697 4328 969 4595 
Q 1241 4863 1831 4863 
L 2375 4863 
z
" transform="scale(0.015625)"/>
       <path id="DejaVuSans-4f" d="M 2522 4238 
Q 1834 4238 1429 3725 
Q 1025 3213 1025 2328 
Q 1025 1447 1429 934 
Q 1834 422 2522 422 
Q 3209 422 3611 934 
Q 4013 1447 4013 2328 
Q 4013 3213 3611 3725 
Q 3209 4238 2522 4238 
z
M 2522 4750 
Q 3503 4750 4090 4092 
Q 4678 3434 4678 2328 
Q 4678 1225 4090 567 
Q 3503 -91 2522 -91 
Q 1538 -91 948 565 
Q 359 1222 359 2328 
Q 359 3434 948 4092 
Q 1538 4750 2522 4750 
z
" transform="scale(0.015625)"/>
       <path id="DejaVuSans-64" d="M 2906 2969 
L 2906 4863 
L 3481 4863 
L 3481 0 
L 2906 0 
L 2906 525 
Q 2725 213 2448 61 
Q 2172 -91 1784 -91 
Q 1150 -91 751 415 
Q 353 922 353 1747 
Q 353 2572 751 3078 
Q 1150 3584 1784 3584 
Q 2172 3584 2448 3432 
Q 2725 3281 2906 2969 
z
M 947 1747 
Q 947 1113 1208 752 
Q 1469 391 1925 391 
Q 2381 391 2643 752 
Q 2906 1113 2906 1747 
Q 2906 2381 2643 2742 
Q 2381 3103 1925 3103 
Q 1469 3103 1208 2742 
Q 947 2381 947 1747 
z
" transform="scale(0.015625)"/>
       <path id="DejaVuSans-73" d="M 2834 3397 
L 2834 2853 
Q 2591 2978 2328 3040 
Q 2066 3103 1784 3103 
Q 1356 3103 1142 2972 
Q 928 2841 928 2578 
Q 928 2378 1081 2264 
Q 1234 2150 1697 2047 
L 1894 2003 
Q 2506 1872 2764 1633 
Q 3022 1394 3022 966 
Q 3022 478 2636 193 
Q 2250 -91 1575 -91 
Q 1294 -91 989 -36 
Q 684 19 347 128 
L 347 722 
Q 666 556 975 473 
Q 1284 391 1588 391 
Q 1994 391 2212 530 
Q 2431 669 2431 922 
Q 2431 1156 2273 1281 
Q 2116 1406 1581 1522 
L 1381 1569 
Q 847 1681 609 1914 
Q 372 2147 372 2553 
Q 372 3047 722 3315 
Q 1072 3584 1716 3584 
Q 2034 3584 2315 3537 
Q 2597 3491 2834 3397 
z
" transform="scale(0.015625)"/>
      </defs>
      <use xlink:href="#DejaVuSans-4e"/>
      <use xlink:href="#DejaVuSans-75" x="74.804688"/>
      <use xlink:href="#DejaVuSans-6d" x="138.183594"/>
      <use xlink:href="#DejaVuSans-62" x="235.595703"/>
      <use xlink:href="#DejaVuSans-65" x="299.072266"/>
      <use xlink:href="#DejaVuSans-72" x="360.595703"/>
      <use xlink:href="#DejaVuSans-20" x="401.708984"/>
      <use xlink:href="#DejaVuSans-6f" x="433.496094"/>
      <use xlink:href="#DejaVuSans-66" x="494.677734"/>
      <use xlink:href="#DejaVuSans-20" x="529.882812"/>
      <use xlink:href="#DejaVuSans-4f" x="561.669922"/>
      <use xlink:href="#DejaVuSans-72" x="640.380859"/>
      <use xlink:href="#DejaVuSans-64" x="679.744141"/>
      <use xlink:href="#DejaVuSans-65" x="743.220703"/>
      <use xlink:href="#DejaVuSans-72" x="804.744141"/>
      <use xlink:href="#DejaVuSans-73" x="845.857422"/>
     </g>
    </g>
   </g>
   <g id="matplotlib.axis_2">
    <g id="ytick_1">
     <g id="line2d_7">
      <defs>
       <path id="m41f4cc2908" d="M 0 0 
L -3.5 0 
" style="stroke: #000000; stroke-width: 0.8"/>
      </defs>
      <g>
       <use xlink:href="#m41f4cc2908" x="57.6" y="279.429592" style="stroke: #000000; stroke-width: 0.8"/>
      </g>
     </g>
     <g id="text_8">
      <!-- 200 -->
      <g transform="translate(31.5125 283.228811)scale(0.1 -0.1)">
       <use xlink:href="#DejaVuSans-32"/>
       <use xlink:href="#DejaVuSans-30" x="63.623047"/>
       <use xlink:href="#DejaVuSans-30" x="127.246094"/>
      </g>
     </g>
    </g>
    <g id="ytick_2">
     <g id="line2d_8">
      <g>
       <use xlink:href="#m41f4cc2908" x="57.6" y="241.165154" style="stroke: #000000; stroke-width: 0.8"/>
      </g>
     </g>
     <g id="text_9">
      <!-- 250 -->
      <g transform="translate(31.5125 244.964372)scale(0.1 -0.1)">
       <defs>
        <path id="DejaVuSans-35" d="M 691 4666 
L 3169 4666 
L 3169 4134 
L 1269 4134 
L 1269 2991 
Q 1406 3038 1543 3061 
Q 1681 3084 1819 3084 
Q 2600 3084 3056 2656 
Q 3513 2228 3513 1497 
Q 3513 744 3044 326 
Q 2575 -91 1722 -91 
Q 1428 -91 1123 -41 
Q 819 9 494 109 
L 494 744 
Q 775 591 1075 516 
Q 1375 441 1709 441 
Q 2250 441 2565 725 
Q 2881 1009 2881 1497 
Q 2881 1984 2565 2268 
Q 2250 2553 1709 2553 
Q 1456 2553 1204 2497 
Q 953 2441 691 2322 
L 691 4666 
z
" transform="scale(0.015625)"/>
       </defs>
       <use xlink:href="#DejaVuSans-32"/>
       <use xlink:href="#DejaVuSans-35" x="63.623047"/>
       <use xlink:href="#DejaVuSans-30" x="127.246094"/>
      </g>
     </g>
    </g>
    <g id="ytick_3">
     <g id="line2d_9">
      <g>
       <use xlink:href="#m41f4cc2908" x="57.6" y="202.900715" style="stroke: #000000; stroke-width: 0.8"/>
      </g>
     </g>
     <g id="text_10">
      <!-- 300 -->
      <g transform="translate(31.5125 206.699934)scale(0.1 -0.1)">
       <defs>
        <path id="DejaVuSans-33" d="M 2597 2516 
Q 3050 2419 3304 2112 
Q 3559 1806 3559 1356 
Q 3559 666 3084 287 
Q 2609 -91 1734 -91 
Q 1441 -91 1130 -33 
Q 819 25 488 141 
L 488 750 
Q 750 597 1062 519 
Q 1375 441 1716 441 
Q 2309 441 2620 675 
Q 2931 909 2931 1356 
Q 2931 1769 2642 2001 
Q 2353 2234 1838 2234 
L 1294 2234 
L 1294 2753 
L 1863 2753 
Q 2328 2753 2575 2939 
Q 2822 3125 2822 3475 
Q 2822 3834 2567 4026 
Q 2313 4219 1838 4219 
Q 1578 4219 1281 4162 
Q 984 4106 628 3988 
L 628 4550 
Q 988 4650 1302 4700 
Q 1616 4750 1894 4750 
Q 2613 4750 3031 4423 
Q 3450 4097 3450 3541 
Q 3450 3153 3228 2886 
Q 3006 2619 2597 2516 
z
" transform="scale(0.015625)"/>
       </defs>
       <use xlink:href="#DejaVuSans-33"/>
       <use xlink:href="#DejaVuSans-30" x="63.623047"/>
       <use xlink:href="#DejaVuSans-30" x="127.246094"/>
      </g>
     </g>
    </g>
    <g id="ytick_4">
     <g id="line2d_10">
      <g>
       <use xlink:href="#m41f4cc2908" x="57.6" y="164.636277" style="stroke: #000000; stroke-width: 0.8"/>
      </g>
     </g>
     <g id="text_11">
      <!-- 350 -->
      <g transform="translate(31.5125 168.435496)scale(0.1 -0.1)">
       <use xlink:href="#DejaVuSans-33"/>
       <use xlink:href="#DejaVuSans-35" x="63.623047"/>
       <use xlink:href="#DejaVuSans-30" x="127.246094"/>
      </g>
     </g>
    </g>
    <g id="ytick_5">
     <g id="line2d_11">
      <g>
       <use xlink:href="#m41f4cc2908" x="57.6" y="126.371839" style="stroke: #000000; stroke-width: 0.8"/>
      </g>
     </g>
     <g id="text_12">
      <!-- 400 -->
      <g transform="translate(31.5125 130.171057)scale(0.1 -0.1)">
       <use xlink:href="#DejaVuSans-34"/>
       <use xlink:href="#DejaVuSans-30" x="63.623047"/>
       <use xlink:href="#DejaVuSans-30" x="127.246094"/>
      </g>
     </g>
    </g>
    <g id="ytick_6">
     <g id="line2d_12">
      <g>
       <use xlink:href="#m41f4cc2908" x="57.6" y="88.1074" style="stroke: #000000; stroke-width: 0.8"/>
      </g>
     </g>
     <g id="text_13">
      <!-- 450 -->
      <g transform="translate(31.5125 91.906619)scale(0.1 -0.1)">
       <use xlink:href="#DejaVuSans-34"/>
       <use xlink:href="#DejaVuSans-35" x="63.623047"/>
       <use xlink:href="#DejaVuSans-30" x="127.246094"/>
      </g>
     </g>
    </g>
    <g id="ytick_7">
     <g id="line2d_13">
      <g>
       <use xlink:href="#m41f4cc2908" x="57.6" y="49.842962" style="stroke: #000000; stroke-width: 0.8"/>
      </g>
     </g>
     <g id="text_14">
      <!-- 500 -->
      <g transform="translate(31.5125 53.642181)scale(0.1 -0.1)">
       <use xlink:href="#DejaVuSans-35"/>
       <use xlink:href="#DejaVuSans-30" x="63.623047"/>
       <use xlink:href="#DejaVuSans-30" x="127.246094"/>
      </g>
     </g>
    </g>
    <g id="text_15">
     <!-- Waiting Time/s -->
     <g transform="translate(25.432812 211.410031)rotate(-90)scale(0.1 -0.1)">
      <defs>
       <path id="DejaVuSans-57" d="M 213 4666 
L 850 4666 
L 1831 722 
L 2809 4666 
L 3519 4666 
L 4500 722 
L 5478 4666 
L 6119 4666 
L 4947 0 
L 4153 0 
L 3169 4050 
L 2175 0 
L 1381 0 
L 213 4666 
z
" transform="scale(0.015625)"/>
       <path id="DejaVuSans-61" d="M 2194 1759 
Q 1497 1759 1228 1600 
Q 959 1441 959 1056 
Q 959 750 1161 570 
Q 1363 391 1709 391 
Q 2188 391 2477 730 
Q 2766 1069 2766 1631 
L 2766 1759 
L 2194 1759 
z
M 3341 1997 
L 3341 0 
L 2766 0 
L 2766 531 
Q 2569 213 2275 61 
Q 1981 -91 1556 -91 
Q 1019 -91 701 211 
Q 384 513 384 1019 
Q 384 1609 779 1909 
Q 1175 2209 1959 2209 
L 2766 2209 
L 2766 2266 
Q 2766 2663 2505 2880 
Q 2244 3097 1772 3097 
Q 1472 3097 1187 3025 
Q 903 2953 641 2809 
L 641 3341 
Q 956 3463 1253 3523 
Q 1550 3584 1831 3584 
Q 2591 3584 2966 3190 
Q 3341 2797 3341 1997 
z
" transform="scale(0.015625)"/>
       <path id="DejaVuSans-69" d="M 603 3500 
L 1178 3500 
L 1178 0 
L 603 0 
L 603 3500 
z
M 603 4863 
L 1178 4863 
L 1178 4134 
L 603 4134 
L 603 4863 
z
" transform="scale(0.015625)"/>
       <path id="DejaVuSans-74" d="M 1172 4494 
L 1172 3500 
L 2356 3500 
L 2356 3053 
L 1172 3053 
L 1172 1153 
Q 1172 725 1289 603 
Q 1406 481 1766 481 
L 2356 481 
L 2356 0 
L 1766 0 
Q 1100 0 847 248 
Q 594 497 594 1153 
L 594 3053 
L 172 3053 
L 172 3500 
L 594 3500 
L 594 4494 
L 1172 4494 
z
" transform="scale(0.015625)"/>
       <path id="DejaVuSans-6e" d="M 3513 2113 
L 3513 0 
L 2938 0 
L 2938 2094 
Q 2938 2591 2744 2837 
Q 2550 3084 2163 3084 
Q 1697 3084 1428 2787 
Q 1159 2491 1159 1978 
L 1159 0 
L 581 0 
L 581 3500 
L 1159 3500 
L 1159 2956 
Q 1366 3272 1645 3428 
Q 1925 3584 2291 3584 
Q 2894 3584 3203 3211 
Q 3513 2838 3513 2113 
z
" transform="scale(0.015625)"/>
       <path id="DejaVuSans-67" d="M 2906 1791 
Q 2906 2416 2648 2759 
Q 2391 3103 1925 3103 
Q 1463 3103 1205 2759 
Q 947 2416 947 1791 
Q 947 1169 1205 825 
Q 1463 481 1925 481 
Q 2391 481 2648 825 
Q 2906 1169 2906 1791 
z
M 3481 434 
Q 3481 -459 3084 -895 
Q 2688 -1331 1869 -1331 
Q 1566 -1331 1297 -1286 
Q 1028 -1241 775 -1147 
L 775 -588 
Q 1028 -725 1275 -790 
Q 1522 -856 1778 -856 
Q 2344 -856 2625 -561 
Q 2906 -266 2906 331 
L 2906 616 
Q 2728 306 2450 153 
Q 2172 0 1784 0 
Q 1141 0 747 490 
Q 353 981 353 1791 
Q 353 2603 747 3093 
Q 1141 3584 1784 3584 
Q 2172 3584 2450 3431 
Q 2728 3278 2906 2969 
L 2906 3500 
L 3481 3500 
L 3481 434 
z
" transform="scale(0.015625)"/>
       <path id="DejaVuSans-54" d="M -19 4666 
L 3928 4666 
L 3928 4134 
L 2272 4134 
L 2272 0 
L 1638 0 
L 1638 4134 
L -19 4134 
L -19 4666 
z
" transform="scale(0.015625)"/>
       <path id="DejaVuSans-2f" d="M 1625 4666 
L 2156 4666 
L 531 -594 
L 0 -594 
L 1625 4666 
z
" transform="scale(0.015625)"/>
      </defs>
      <use xlink:href="#DejaVuSans-57"/>
      <use xlink:href="#DejaVuSans-61" x="92.501953"/>
      <use xlink:href="#DejaVuSans-69" x="153.78125"/>
      <use xlink:href="#DejaVuSans-74" x="181.564453"/>
      <use xlink:href="#DejaVuSans-69" x="220.773438"/>
      <use xlink:href="#DejaVuSans-6e" x="248.556641"/>
      <use xlink:href="#DejaVuSans-67" x="311.935547"/>
      <use xlink:href="#DejaVuSans-20" x="375.412109"/>
      <use xlink:href="#DejaVuSans-54" x="407.199219"/>
      <use xlink:href="#DejaVuSans-69" x="465.158203"/>
      <use xlink:href="#DejaVuSans-6d" x="492.941406"/>
      <use xlink:href="#DejaVuSans-65" x="590.353516"/>
      <use xlink:href="#DejaVuSans-2f" x="651.876953"/>
      <use xlink:href="#DejaVuSans-73" x="685.568359"/>
     </g>
    </g>
   </g>
   <g id="line2d_14">
    <path d="M 73.832727 278.888751 
L 74.157707 295.488 
L 74.482686 282.823458 
L 75.132645 218.892631 
L 75.457625 208.595474 
L 75.782604 190.381211 
L 76.107584 208.504915 
L 76.432563 177.167872 
L 76.757543 175.429562 
L 77.082523 172.446084 
L 77.407502 184.322768 
L 78.70742 129.267543 
L 79.0324 130.486071 
L 79.357379 114.514742 
L 79.682359 108.768101 
L 80.007338 113.792688 
L 80.332318 109.388478 
L 80.657297 107.316031 
L 80.982277 112.016905 
L 81.632236 94.680913 
L 81.957215 95.947368 
L 82.282195 90.963002 
L 82.607174 96.460813 
L 82.932154 99.592237 
L 83.257133 100.505349 
L 83.907093 109.284212 
L 84.232072 104.488406 
L 84.557052 104.92557 
L 84.882031 110.570728 
L 85.53199 99.114248 
L 85.85697 103.37408 
L 86.181949 104.482331 
L 86.506929 104.23805 
L 86.831908 102.835059 
L 87.156888 106.593863 
L 87.481867 101.502901 
L 87.806847 100.475495 
L 88.131826 105.792856 
L 88.456806 106.223058 
L 88.781785 99.06917 
L 89.106765 97.655599 
L 89.431744 97.386406 
L 89.756724 100.275464 
L 90.081704 100.861228 
L 90.406683 98.464628 
L 90.731663 99.591006 
L 91.056642 99.38856 
L 91.381622 97.879002 
L 91.706601 99.626035 
L 92.031581 98.020805 
L 92.68154 90.354265 
L 93.006519 89.775801 
L 93.331499 91.57368 
L 93.656478 91.821519 
L 93.981458 96.0906 
L 94.306437 97.456769 
L 94.631417 98.033173 
L 94.956396 97.704021 
L 95.281376 97.037381 
L 95.606355 93.8511 
L 95.931335 94.474569 
L 96.256314 91.631408 
L 96.581294 91.533298 
L 96.906274 93.539947 
L 97.231253 93.864619 
L 97.881212 90.006758 
L 98.206192 92.297283 
L 98.531171 90.975753 
L 98.856151 90.188541 
L 99.18113 88.741353 
L 99.50611 88.581151 
L 99.831089 90.854072 
L 100.156069 90.72198 
L 100.806028 88.51543 
L 101.131007 88.884338 
L 101.455987 88.779782 
L 102.105946 94.752471 
L 102.430925 95.340964 
L 102.755905 95.346651 
L 103.080885 92.030991 
L 103.405864 92.20183 
L 103.730844 92.527123 
L 104.055823 93.724464 
L 104.380803 94.266861 
L 104.705782 95.436156 
L 105.030762 91.855682 
L 105.355741 89.655573 
L 105.680721 90.815648 
L 106.0057 89.12701 
L 106.33068 88.187365 
L 106.655659 86.766698 
L 106.980639 86.290166 
L 107.305618 87.385723 
L 107.955577 90.40581 
L 108.605536 89.698295 
L 108.930516 91.077402 
L 109.255495 90.895262 
L 109.905455 91.47117 
L 110.230434 90.392717 
L 110.880393 93.017289 
L 111.205373 93.726318 
L 111.530352 91.135802 
L 111.855332 91.999607 
L 112.180311 93.76016 
L 112.505291 91.717342 
L 112.83027 92.91166 
L 113.15525 92.285916 
L 113.480229 92.670178 
L 113.805209 91.518977 
L 114.130188 93.280859 
L 114.455168 92.979517 
L 115.105127 95.048406 
L 115.430106 92.438756 
L 115.755086 91.672046 
L 116.080066 91.768712 
L 116.405045 92.523231 
L 116.730025 91.680144 
L 117.055004 89.905497 
L 117.379984 90.776606 
L 117.704963 90.38505 
L 118.029943 89.260045 
L 118.354922 89.22539 
L 118.679902 90.059071 
L 119.004881 91.318569 
L 119.329861 91.336387 
L 119.65484 89.072792 
L 119.97982 89.569096 
L 120.304799 90.849622 
L 120.629779 89.110151 
L 120.954758 89.347757 
L 121.279738 89.416046 
L 121.929697 87.237815 
L 122.254676 86.720665 
L 122.579656 85.728946 
L 122.904636 85.805106 
L 123.229615 87.224253 
L 123.879574 85.906988 
L 124.204554 85.981695 
L 124.529533 85.673061 
L 125.179492 86.34301 
L 125.504472 85.010643 
L 125.829451 84.402946 
L 126.154431 85.016574 
L 126.80439 82.203286 
L 127.129369 81.668147 
L 127.454349 82.419823 
L 127.779328 83.770116 
L 128.104308 82.593043 
L 128.429287 82.300488 
L 129.079247 82.67142 
L 129.729206 80.310326 
L 130.054185 81.258146 
L 130.379165 81.691435 
L 130.704144 80.860638 
L 131.029124 81.699682 
L 131.354103 81.199035 
L 131.679083 82.379433 
L 132.004062 82.031764 
L 132.329042 81.191785 
L 132.654021 81.387056 
L 132.979001 80.258757 
L 133.30398 81.271007 
L 133.62896 79.075523 
L 133.953939 78.681859 
L 134.278919 79.007169 
L 134.603898 79.050596 
L 135.253857 81.169027 
L 135.578837 81.417953 
L 135.903817 81.439052 
L 136.553776 82.384678 
L 137.203735 80.633217 
L 137.528714 78.741795 
L 137.853694 79.148527 
L 138.178673 78.597283 
L 138.503653 78.708999 
L 138.828632 77.854897 
L 139.153612 78.487391 
L 139.478591 78.247204 
L 140.12855 80.249004 
L 140.778509 80.309462 
L 141.103489 80.133683 
L 141.428468 80.893355 
L 141.753448 81.209169 
L 142.078428 80.485828 
L 142.403407 80.555929 
L 142.728387 81.56416 
L 143.053366 81.499556 
L 143.378346 82.577692 
L 144.028305 80.652483 
L 144.353284 80.46882 
L 144.678264 80.803408 
L 145.003243 80.44489 
L 145.328223 79.852588 
L 145.653202 79.641469 
L 145.978182 78.423385 
L 146.303161 78.178772 
L 146.628141 77.492943 
L 146.95312 77.576456 
L 147.2781 77.342783 
L 147.603079 77.679244 
L 147.928059 79.061663 
L 148.578018 79.945923 
L 148.902998 80.053372 
L 149.227977 79.821028 
L 149.552957 79.25767 
L 149.877936 79.948702 
L 150.202916 80.072625 
L 150.527895 78.798789 
L 150.852875 78.470228 
L 151.502834 76.687187 
L 151.827813 76.77936 
L 152.152793 77.491802 
L 152.802752 75.827522 
L 153.127731 75.559034 
L 153.77769 75.848273 
L 154.427649 74.669198 
L 154.752629 75.24541 
L 155.077609 75.494201 
L 155.402588 75.8905 
L 155.727568 76.789373 
L 156.052547 76.911024 
L 156.377527 76.532244 
L 156.702506 76.402679 
L 157.027486 76.582556 
L 157.352465 76.922123 
L 157.677445 75.868064 
L 158.002424 76.233955 
L 158.327404 76.844044 
L 158.977363 77.229083 
L 159.627322 75.906306 
L 160.277281 75.288434 
L 160.60226 74.384744 
L 160.92724 74.481927 
L 161.252219 75.584049 
L 161.577199 75.360246 
L 161.902179 75.945291 
L 162.227158 76.169471 
L 162.552138 76.080336 
L 162.877117 75.779641 
L 163.202097 75.754614 
L 163.527076 76.367824 
L 163.852056 76.650292 
L 164.177035 76.334081 
L 164.502015 75.68132 
L 164.826994 76.118861 
L 165.476953 75.697832 
L 165.801933 74.995784 
L 166.126912 74.958522 
L 166.776871 75.863056 
L 167.101851 75.951077 
L 167.42683 75.370084 
L 167.75181 75.69322 
L 168.401769 75.092174 
L 168.726749 75.818317 
L 169.051728 75.670424 
L 169.376708 75.739647 
L 169.701687 75.014208 
L 170.026667 74.814433 
L 170.351646 75.740102 
L 170.676626 75.641616 
L 171.001605 75.917454 
L 171.326585 75.602176 
L 171.651564 75.542446 
L 171.976544 75.673325 
L 172.626503 74.570164 
L 172.951482 74.654801 
L 173.276462 74.438344 
L 173.601441 75.317842 
L 173.926421 74.412693 
L 174.2514 74.376763 
L 174.57638 74.553145 
L 175.551319 74.489772 
L 175.876298 74.706179 
L 176.201278 74.030079 
L 176.526257 72.979707 
L 176.851237 72.936553 
L 177.176216 73.647398 
L 177.501196 73.878271 
L 177.826175 73.645683 
L 178.476134 73.747529 
L 178.801114 74.002932 
L 179.126093 73.318528 
L 179.451073 73.721782 
L 179.776052 73.492418 
L 180.426011 72.434824 
L 181.075971 72.242106 
L 181.40095 72.347025 
L 181.72593 71.776225 
L 182.050909 71.933703 
L 182.375889 72.300562 
L 182.700868 72.115837 
L 183.025848 72.218895 
L 183.350827 73.07273 
L 183.675807 73.035153 
L 184.000786 72.821552 
L 184.325766 72.986696 
L 184.650745 72.405454 
L 184.975725 72.986432 
L 185.950663 71.787238 
L 186.275643 71.48048 
L 186.600622 71.449367 
L 187.250581 71.114547 
L 187.575561 71.108987 
L 187.900541 70.558705 
L 188.22552 70.616495 
L 188.5505 71.088719 
L 188.875479 71.255195 
L 189.200459 71.571776 
L 189.525438 71.702658 
L 189.850418 71.327007 
L 190.175397 71.237274 
L 190.500377 70.532685 
L 190.825356 70.920302 
L 191.150336 70.964847 
L 191.475315 71.330157 
L 191.800295 71.523446 
L 192.125274 71.893998 
L 192.775233 72.870123 
L 193.425192 73.403659 
L 193.750172 73.335261 
L 194.075152 72.82618 
L 194.400131 72.694315 
L 194.725111 72.932166 
L 195.05009 71.943707 
L 195.37507 71.522269 
L 195.700049 71.651535 
L 196.350008 71.489306 
L 196.674988 71.52218 
L 196.999967 71.341394 
L 197.324947 71.386688 
L 197.649926 70.509546 
L 197.974906 70.562412 
L 198.299885 71.028563 
L 198.624865 70.734146 
L 198.949844 70.813395 
L 199.599803 71.183279 
L 199.924783 71.68546 
L 200.574742 70.727675 
L 200.899722 70.784887 
L 202.19964 69.420509 
L 202.524619 68.661725 
L 203.174578 68.702681 
L 203.499558 68.289563 
L 203.824537 68.776989 
L 204.149517 68.644213 
L 204.474496 68.707163 
L 204.799476 68.28988 
L 205.449435 68.159323 
L 205.774414 67.586297 
L 206.099394 67.561385 
L 206.424373 66.985962 
L 206.749353 67.052378 
L 207.074333 66.615757 
L 207.724292 67.21431 
L 208.049271 66.959903 
L 208.374251 66.269455 
L 208.69923 66.545285 
L 209.02421 66.12507 
L 209.349189 64.906979 
L 209.674169 64.966808 
L 210.324128 64.446935 
L 210.649107 64.708413 
L 210.974087 64.497949 
L 211.299066 64.529107 
L 211.624046 64.68828 
L 212.274005 63.900748 
L 212.598984 63.051765 
L 212.923964 63.402655 
L 213.248943 63.536091 
L 213.573923 63.383068 
L 213.898903 63.070433 
L 214.223882 63.444143 
L 214.548862 63.190317 
L 214.873841 62.49394 
L 215.198821 62.832097 
L 215.5238 62.817504 
L 215.84878 62.101666 
L 216.173759 62.347702 
L 216.498739 62.309116 
L 216.823718 62.830006 
L 217.148698 62.58975 
L 217.798657 61.315419 
L 218.123636 61.651573 
L 218.448616 61.481918 
L 218.773595 61.151705 
L 219.423554 59.732186 
L 219.748534 59.678731 
L 220.073514 59.489485 
L 220.398493 58.889642 
L 220.723473 58.843588 
L 221.048452 58.921281 
L 221.698411 58.69183 
L 222.67335 59.570437 
L 222.998329 59.125943 
L 223.648288 58.84735 
L 223.973268 58.604337 
L 224.298247 58.594224 
L 224.623227 58.978757 
L 225.273186 58.181422 
L 225.598165 58.320433 
L 225.923145 58.606561 
L 226.248124 58.732333 
L 227.223063 58.242156 
L 227.548043 58.530356 
L 227.873022 58.232573 
L 228.198002 58.897813 
L 228.847961 58.453979 
L 229.17294 57.819871 
L 229.49792 57.662857 
L 230.147879 58.086104 
L 230.472858 57.961774 
L 230.797838 57.61864 
L 231.447797 57.401696 
L 232.097756 57.9495 
L 232.422735 58.660794 
L 232.747715 58.721258 
L 233.072695 59.154942 
L 233.397674 58.740511 
L 233.722654 58.523418 
L 234.047633 58.023084 
L 234.372613 57.829739 
L 234.697592 58.187662 
L 235.022572 58.342907 
L 235.99751 57.864853 
L 236.32249 57.79597 
L 236.647469 58.283402 
L 236.972449 58.402843 
L 237.622408 59.293836 
L 237.947387 58.772024 
L 238.272367 58.873253 
L 238.597346 58.701152 
L 239.247305 59.719046 
L 239.572285 59.74757 
L 239.897265 59.279683 
L 240.222244 59.538337 
L 240.872203 59.114315 
L 241.197183 58.622239 
L 241.522162 58.491829 
L 241.847142 58.687826 
L 242.172121 58.348105 
L 242.497101 58.233403 
L 242.82208 58.490527 
L 243.472039 59.451258 
L 244.121998 59.144835 
L 244.446978 59.373184 
L 245.096937 59.406604 
L 245.421916 59.231907 
L 245.746896 59.502598 
L 246.071876 59.163297 
L 247.371794 59.704002 
L 247.696773 60.11663 
L 248.021753 60.279421 
L 248.346732 60.192796 
L 248.671712 59.831843 
L 249.64665 61.122285 
L 249.97163 61.096737 
L 250.296609 61.333379 
L 250.621589 61.388182 
L 251.596527 60.630419 
L 251.921507 60.765076 
L 252.246486 61.107507 
L 252.571466 60.91975 
L 252.896446 61.01594 
L 253.221425 60.953084 
L 253.546405 61.044719 
L 253.871384 61.480404 
L 254.196364 61.717678 
L 254.521343 61.448138 
L 254.846323 61.868684 
L 255.171302 61.882336 
L 255.496282 61.689954 
L 255.821261 61.291958 
L 256.146241 61.1629 
L 256.47122 61.511523 
L 256.7962 61.181564 
L 257.121179 61.255206 
L 257.446159 60.980219 
L 257.771138 61.350499 
L 258.096118 61.347147 
L 259.071057 60.207351 
L 259.396036 60.084417 
L 259.721016 60.307143 
L 260.045995 59.872174 
L 260.370975 60.094076 
L 260.695954 59.813992 
L 261.670893 59.580516 
L 261.995872 59.828033 
L 262.320852 59.692408 
L 262.645831 58.945315 
L 262.970811 59.247214 
L 263.62077 58.703563 
L 264.270729 59.00404 
L 264.595708 58.822632 
L 265.245667 58.315387 
L 265.570647 58.429075 
L 265.895627 58.332132 
L 266.220606 58.432523 
L 266.545586 58.162851 
L 267.195545 57.261908 
L 267.845504 57.379917 
L 268.170483 56.923315 
L 268.495463 57.238695 
L 269.145422 56.697991 
L 270.12036 56.993811 
L 270.44534 56.955642 
L 271.095299 57.13237 
L 272.070238 55.804 
L 272.395217 55.806293 
L 273.045176 56.38778 
L 273.695135 56.549534 
L 274.020115 56.101987 
L 274.345094 55.897341 
L 274.670074 55.530544 
L 274.995053 55.808697 
L 275.320033 55.917441 
L 275.645012 55.726735 
L 275.969992 54.899658 
L 276.619951 54.829007 
L 276.94493 54.204192 
L 277.26991 54.066379 
L 277.594889 53.568 
L 278.244848 53.68982 
L 278.569828 53.732485 
L 278.894808 53.594473 
L 279.869746 54.496872 
L 280.194726 54.200635 
L 280.844685 54.802219 
L 281.169664 54.903084 
L 281.494644 54.873061 
L 281.819623 54.963147 
L 282.144603 54.769496 
L 282.469582 55.217655 
L 282.794562 54.98822 
L 283.119541 55.18886 
L 283.444521 54.453681 
L 283.7695 54.233523 
L 284.09448 53.838774 
L 284.419459 53.652337 
L 284.744439 53.994514 
L 285.069419 53.789289 
L 285.394398 54.064397 
L 285.719378 53.954936 
L 287.344275 54.722836 
L 288.319214 53.978641 
L 288.644193 54.143838 
L 288.969173 54.022073 
L 289.294152 54.133908 
L 289.944111 54.822377 
L 290.269091 54.675324 
L 290.91905 55.136843 
L 291.244029 55.035267 
L 291.569009 55.409194 
L 291.893989 55.401955 
L 292.218968 55.874527 
L 292.543948 55.741685 
L 292.868927 55.731067 
L 293.193907 55.563548 
L 293.518886 55.731678 
L 293.843866 55.718919 
L 294.168845 55.998998 
L 294.493825 55.992547 
L 294.818804 56.383194 
L 295.468763 56.644549 
L 296.443702 57.284252 
L 296.768681 56.960833 
L 297.093661 57.369068 
L 297.41864 57.272435 
L 298.0686 56.797915 
L 298.393579 56.880731 
L 299.368518 57.428346 
L 299.693497 57.177594 
L 300.668436 57.833127 
L 300.993415 57.877469 
L 301.318395 58.154601 
L 301.968354 58.063622 
L 302.293333 58.269913 
L 302.618313 57.956027 
L 303.268272 58.52365 
L 303.593251 58.451813 
L 303.918231 58.595065 
L 304.24321 58.520026 
L 304.56819 58.592451 
L 304.89317 58.285418 
L 305.218149 58.50857 
L 305.543129 58.363521 
L 305.868108 58.069437 
L 306.193088 58.335442 
L 306.518067 58.312502 
L 306.843047 58.651739 
L 307.493006 58.98093 
L 307.817985 58.91302 
L 308.142965 58.630953 
L 308.792924 59.030068 
L 309.442883 58.933031 
L 309.767862 58.688845 
L 310.417821 58.770672 
L 310.742801 58.469196 
L 311.067781 58.628984 
L 311.39276 58.630371 
L 312.042719 59.272851 
L 312.367699 59.355217 
L 312.692678 59.671215 
L 313.017658 59.595524 
L 313.342637 59.245508 
L 313.667617 59.239889 
L 313.992596 59.053542 
L 314.317576 59.334843 
L 314.642555 59.190056 
L 314.967535 59.287749 
L 315.617494 59.103162 
L 316.267453 59.327945 
L 316.592432 59.142131 
L 316.917412 59.226695 
L 317.567371 59.638742 
L 317.892351 59.405822 
L 318.21733 59.695287 
L 318.54231 59.477951 
L 318.867289 59.522862 
L 319.517248 59.283741 
L 320.167207 59.364449 
L 320.817166 59.38459 
L 321.142146 59.486981 
L 321.467125 59.178985 
L 322.117084 59.347484 
L 322.442064 59.360363 
L 323.092023 59.167007 
L 323.417002 58.701268 
L 324.066962 58.778591 
L 324.391941 58.489538 
L 325.691859 58.505399 
L 326.016839 58.842425 
L 328.291695 58.406547 
L 328.941654 58.252534 
L 329.591613 58.377676 
L 329.916593 58.099459 
L 330.241572 58.390571 
L 330.566552 58.486113 
L 330.891532 58.348967 
L 331.541491 58.642159 
L 331.86647 58.443011 
L 332.19145 58.67272 
L 332.841409 58.524628 
L 333.166388 58.477045 
L 333.491368 58.045204 
L 333.816347 57.873198 
L 334.141327 57.870171 
L 334.466306 58.101864 
L 334.791286 58.062971 
L 335.116265 57.704962 
L 335.441245 57.851903 
L 335.766224 57.863934 
L 336.091204 57.759792 
L 336.416183 58.074754 
L 336.741163 58.153052 
L 337.066143 57.975171 
L 337.391122 58.095183 
L 337.716102 57.943316 
L 338.366061 58.177096 
L 339.01602 58.262419 
L 339.340999 57.780517 
L 339.665979 57.636676 
L 339.990958 57.828754 
L 340.315938 57.793819 
L 340.640917 57.498367 
L 340.965897 57.56601 
L 341.940835 58.006418 
L 342.265815 57.744302 
L 342.590794 57.921689 
L 342.915774 57.96301 
L 343.240753 57.7415 
L 343.565733 57.844332 
L 344.215692 57.344256 
L 344.540672 57.45467 
L 344.865651 57.442387 
L 345.190631 57.556479 
L 345.51561 57.419758 
L 345.84059 57.587481 
L 346.490549 57.431124 
L 346.815528 57.365706 
L 347.140508 57.031182 
L 348.115446 57.332691 
L 348.440426 57.686111 
L 348.765405 57.772846 
L 349.090385 58.081582 
L 350.065324 58.219182 
L 350.715283 58.648227 
L 351.040262 58.337541 
L 351.365242 58.342667 
L 351.690221 58.153137 
L 352.015201 57.733182 
L 352.34018 57.609083 
L 352.66516 57.735725 
L 353.315119 57.225408 
L 353.640098 57.350036 
L 354.290057 56.977917 
L 354.940016 56.987431 
L 355.264996 57.181861 
L 355.589975 57.191773 
L 355.914955 56.959114 
L 356.239934 57.048703 
L 356.564914 56.734547 
L 356.889894 57.062809 
L 357.214873 56.828008 
L 357.539853 56.989119 
L 358.514791 56.840512 
L 358.839771 56.99944 
L 359.16475 56.75196 
L 359.48973 56.841959 
L 359.814709 57.082025 
L 360.464668 56.84431 
L 360.789648 56.421444 
L 361.439607 55.863744 
L 361.764586 56.143449 
L 362.089566 55.930655 
L 362.414545 55.95984 
L 362.739525 56.154771 
L 363.389484 55.846251 
L 363.714464 55.745789 
L 364.364423 55.960655 
L 365.014382 56.299864 
L 365.339361 56.577982 
L 365.98932 56.394353 
L 366.639279 56.045444 
L 366.964259 56.379968 
L 367.289238 56.366266 
L 367.614218 56.024154 
L 368.264177 55.901635 
L 368.589156 55.842564 
L 368.914136 55.971196 
L 369.239115 55.757321 
L 369.564095 55.863876 
L 369.889075 55.770521 
L 370.214054 56.047669 
L 370.539034 56.017547 
L 371.188993 56.559196 
L 371.513972 56.744703 
L 371.838952 56.62582 
L 372.81389 56.881654 
L 373.13887 56.685545 
L 373.788829 56.675772 
L 374.438788 56.989165 
L 374.763767 57.08509 
L 375.088747 57.363747 
L 375.738706 57.47799 
L 376.063686 57.222251 
L 376.388665 57.306 
L 376.713645 57.540825 
L 377.038624 57.094219 
L 377.688583 57.079494 
L 378.013563 57.321735 
L 378.663522 57.107771 
L 379.313481 57.2028 
L 379.63846 56.995266 
L 379.96344 56.998622 
L 380.288419 56.809464 
L 380.938378 57.066236 
L 381.263358 57.125187 
L 381.588337 56.958659 
L 382.563276 57.313466 
L 382.888256 57.166096 
L 383.213235 57.382534 
L 383.863194 57.483379 
L 384.188174 57.292171 
L 385.163112 57.737126 
L 385.813071 57.849999 
L 386.138051 57.817451 
L 386.46303 58.076357 
L 386.78801 57.673097 
L 387.112989 57.782145 
L 387.437969 57.597217 
L 388.087928 57.664605 
L 388.412907 57.639468 
L 388.737887 57.866167 
L 389.062867 57.815926 
L 389.387846 57.889265 
L 389.712826 57.694654 
L 390.037805 57.861184 
L 390.362785 57.796739 
L 391.337723 57.987642 
L 391.662703 57.77284 
L 392.637641 57.679391 
L 393.2876 57.887706 
L 393.61258 57.914193 
L 393.937559 58.095562 
L 394.587518 57.995921 
L 395.237477 57.526837 
L 396.537396 57.404531 
L 397.187355 57.176414 
L 397.512334 57.142904 
L 398.162293 56.840771 
L 398.487273 56.417104 
L 398.487273 56.417104 
" clip-path="url(#p63ba6a3597)" style="fill: none; stroke-dasharray: 2,3.3; stroke-dashoffset: 0; stroke: #0000ff; stroke-width: 2"/>
   </g>
   <g id="line2d_15">
    <path d="M 73.832727 278.888751 
L 74.157707 295.488 
L 74.482686 282.823458 
L 75.132645 218.892631 
L 75.457625 214.197673 
L 75.782604 195.183096 
L 76.107584 203.99154 
L 76.432563 173.155983 
L 76.757543 185.440709 
L 77.082523 183.108351 
L 77.407502 194.096513 
L 77.732482 175.826152 
L 78.382441 152.480934 
L 78.70742 159.166104 
L 79.0324 153.986914 
L 79.357379 155.446295 
L 79.682359 155.158727 
L 80.007338 139.550898 
L 80.332318 133.159358 
L 80.657297 122.94291 
L 80.982277 126.964354 
L 81.307256 118.428469 
L 81.632236 113.524316 
L 81.957215 115.252784 
L 82.282195 120.054596 
L 82.607174 122.455221 
L 82.932154 111.512835 
L 83.257133 106.484514 
L 83.582113 106.899593 
L 83.907093 106.050808 
L 84.232072 112.003999 
L 84.557052 105.67142 
L 84.882031 106.628529 
L 85.207011 110.496382 
L 85.53199 104.8223 
L 85.85697 101.512961 
L 86.181949 104.870631 
L 86.506929 105.913762 
L 86.831908 104.122092 
L 87.156888 103.898021 
L 87.481867 102.755695 
L 87.806847 106.345448 
L 88.131826 105.233261 
L 88.456806 98.857166 
L 88.781785 104.120064 
L 89.106765 104.567191 
L 89.431744 104.156945 
L 89.756724 105.342043 
L 90.081704 109.305795 
L 90.406683 110.033095 
L 90.731663 111.572667 
L 91.381622 106.077227 
L 92.031581 103.316127 
L 92.35656 102.590789 
L 92.68154 104.595141 
L 93.006519 101.187948 
L 93.331499 103.384688 
L 93.656478 103.691888 
L 93.981458 103.000704 
L 94.306437 101.250986 
L 94.631417 105.243642 
L 94.956396 105.693329 
L 95.281376 104.907445 
L 95.606355 102.618665 
L 95.931335 103.115068 
L 96.256314 102.311144 
L 96.581294 102.062616 
L 96.906274 100.614222 
L 97.231253 101.868914 
L 97.556233 102.076645 
L 97.881212 100.338662 
L 98.206192 102.493241 
L 98.531171 101.039296 
L 98.856151 100.157033 
L 99.18113 98.583662 
L 99.50611 98.300431 
L 99.831089 97.530425 
L 100.156069 99.666491 
L 100.481048 99.538064 
L 100.806028 98.523275 
L 101.131007 98.774442 
L 101.455987 98.630074 
L 102.105946 104.378894 
L 102.430925 104.859224 
L 102.755905 104.759153 
L 103.080885 105.745407 
L 103.405864 107.689019 
L 103.730844 104.30828 
L 104.055823 104.545665 
L 104.380803 106.002292 
L 104.705782 106.411146 
L 105.030762 108.156803 
L 105.355741 104.483061 
L 106.0057 100.375369 
L 106.33068 99.324353 
L 106.655659 101.096344 
L 106.980639 99.56414 
L 107.305618 101.515103 
L 107.630598 100.907186 
L 107.955577 102.012434 
L 108.605536 101.089982 
L 108.930516 102.364578 
L 109.255495 102.079827 
L 109.580475 102.290246 
L 109.905455 101.105565 
L 110.230434 102.435934 
L 110.555414 102.063524 
L 111.205373 104.292667 
L 111.530352 104.899265 
L 111.855332 102.236016 
L 112.180311 103.910549 
L 112.505291 101.900219 
L 112.83027 103.123582 
L 113.15525 102.414133 
L 113.480229 102.716053 
L 113.805209 101.35258 
L 114.455168 104.377013 
L 114.780147 103.990673 
L 115.105127 101.49951 
L 115.430106 101.404675 
L 115.755086 100.568996 
L 116.080066 101.167847 
L 116.405045 101.191843 
L 116.730025 100.858785 
L 117.055004 101.722423 
L 117.379984 100.08864 
L 117.704963 99.628612 
L 118.029943 100.350457 
L 118.354922 100.766571 
L 118.679902 101.517222 
L 119.004881 102.694876 
L 119.329861 102.632011 
L 119.65484 100.146053 
L 119.97982 101.039578 
L 120.304799 101.227639 
L 120.629779 102.418931 
L 120.954758 100.612132 
L 121.279738 100.603793 
L 121.929697 98.373134 
L 122.254676 97.781749 
L 122.579656 96.716777 
L 122.904636 96.755692 
L 123.229615 97.13681 
L 123.554595 97.96671 
L 123.879574 97.732505 
L 124.204554 96.929007 
L 124.529533 95.794742 
L 124.854513 95.995583 
L 125.179492 94.847222 
L 125.504472 95.534601 
L 125.829451 95.207066 
L 126.154431 95.85663 
L 126.47941 94.27475 
L 126.80439 94.589416 
L 127.129369 94.145715 
L 127.454349 94.078753 
L 127.779328 94.751612 
L 128.104308 96.020465 
L 128.429287 94.781193 
L 128.754267 96.483522 
L 129.079247 94.611041 
L 129.404226 94.674722 
L 130.054185 92.189228 
L 130.379165 93.063753 
L 130.704144 92.204015 
L 131.029124 92.464301 
L 131.354103 92.426858 
L 131.679083 91.03468 
L 132.004062 90.487735 
L 132.329042 91.60377 
L 132.654021 90.731278 
L 132.979001 90.873353 
L 133.30398 89.958851 
L 133.62896 89.661719 
L 134.278919 91.733389 
L 134.603898 91.987545 
L 134.928878 91.962064 
L 135.253857 93.002006 
L 135.578837 93.188979 
L 135.903817 91.753499 
L 136.228796 91.557782 
L 136.878755 92.391897 
L 137.528714 90.54773 
L 137.853694 91.05791 
L 138.503653 89.855635 
L 138.828632 89.910784 
L 139.153612 90.483595 
L 139.478591 90.184314 
L 140.12855 92.360707 
L 140.45353 93.105336 
L 140.778509 92.982823 
L 141.753448 92.954456 
L 142.078428 92.17545 
L 142.403407 92.625556 
L 142.728387 91.988299 
L 143.053366 92.003995 
L 144.028305 94.648711 
L 144.353284 93.644164 
L 145.003243 93.251431 
L 145.653202 92.621204 
L 145.978182 91.344915 
L 146.303161 91.042616 
L 146.628141 90.20915 
L 146.95312 90.615937 
L 147.2781 90.51867 
L 147.928059 90.031091 
L 148.253038 91.353795 
L 148.578018 91.056048 
L 148.902998 91.413721 
L 149.227977 91.13262 
L 149.552957 90.011345 
L 149.877936 90.656616 
L 150.202916 90.735166 
L 150.527895 90.579717 
L 150.852875 91.041815 
L 151.177854 91.14839 
L 151.502834 90.771111 
L 151.827813 89.736094 
L 152.152793 90.394996 
L 152.477772 90.753411 
L 152.802752 89.710135 
L 153.452711 88.988453 
L 153.77769 89.114013 
L 154.10267 88.420903 
L 154.427649 88.944202 
L 154.752629 89.006113 
L 155.077609 89.200081 
L 155.402588 88.048294 
L 155.727568 88.393405 
L 156.052547 89.239516 
L 156.377527 89.283468 
L 156.702506 89.602906 
L 157.027486 89.422987 
L 157.352465 89.712785 
L 157.677445 88.609341 
L 158.002424 88.347345 
L 158.652383 89.005777 
L 158.977363 89.562664 
L 159.302342 89.209143 
L 159.627322 89.296392 
L 160.277281 88.578219 
L 160.60226 87.62494 
L 160.92724 87.672904 
L 161.252219 88.72617 
L 161.577199 88.453872 
L 161.902179 89.066558 
L 162.227158 89.242675 
L 162.877117 88.89252 
L 163.202097 88.664072 
L 163.852056 90.152821 
L 164.177035 90.076547 
L 164.502015 90.433752 
L 165.151974 89.657121 
L 166.126912 88.858179 
L 166.451892 88.772577 
L 167.101851 89.621665 
L 167.42683 89.661775 
L 167.75181 89.412374 
L 168.401769 89.896336 
L 168.726749 89.530092 
L 169.051728 89.697698 
L 169.376708 89.564736 
L 169.701687 89.239498 
L 170.351646 90.783246 
L 170.676626 90.731689 
L 171.001605 90.365979 
L 171.326585 90.257002 
L 171.651564 89.979764 
L 171.976544 89.983811 
L 172.626503 90.244319 
L 172.951482 89.400182 
L 173.276462 89.135695 
L 173.601441 89.967475 
L 173.926421 89.154771 
L 174.2514 89.071286 
L 174.90136 89.419025 
L 175.226339 89.334681 
L 175.551319 88.467348 
L 175.876298 87.918442 
L 176.201278 88.176281 
L 176.526257 87.874416 
L 176.851237 87.784424 
L 177.176216 88.036506 
L 177.826175 89.189844 
L 178.151155 89.371014 
L 178.476134 88.98442 
L 178.801114 89.526688 
L 179.126093 89.732753 
L 179.451073 89.002197 
L 180.101032 88.368693 
L 180.426011 88.297399 
L 180.750991 87.590633 
L 181.075971 87.443704 
L 181.40095 87.502836 
L 181.72593 86.886523 
L 182.375889 87.228356 
L 182.700868 86.999203 
L 183.025848 87.183918 
L 183.350827 87.993478 
L 184.000786 87.899401 
L 184.325766 87.320427 
L 184.650745 87.442694 
L 184.975725 87.979832 
L 185.300704 87.808704 
L 186.275643 86.583827 
L 186.600622 87.113028 
L 187.250581 87.004265 
L 187.575561 86.729534 
L 187.900541 86.672251 
L 188.22552 87.174231 
L 188.5505 87.123351 
L 188.875479 86.532609 
L 189.200459 86.545042 
L 189.525438 86.817907 
L 189.850418 86.905837 
L 190.175397 86.772709 
L 190.500377 86.823581 
L 190.825356 87.166071 
L 191.150336 86.393138 
L 191.800295 86.76547 
L 192.450254 87.447206 
L 192.775233 87.938856 
L 193.100213 87.927431 
L 194.075152 88.48207 
L 194.400131 87.446496 
L 194.725111 86.981236 
L 195.05009 86.160502 
L 195.37507 86.615257 
L 195.700049 86.606134 
L 196.025029 86.089133 
L 197.649926 85.715972 
L 197.974906 84.803707 
L 198.299885 85.232772 
L 198.624865 85.294044 
L 198.949844 85.194593 
L 199.599803 85.488625 
L 199.924783 85.954032 
L 200.899722 84.370695 
L 201.224701 84.393047 
L 202.524619 82.941711 
L 202.849599 83.064038 
L 203.174578 83.035757 
L 203.499558 83.431077 
L 204.149517 83.595573 
L 204.474496 83.153092 
L 204.799476 83.600108 
L 205.124455 83.126744 
L 205.449435 83.171673 
L 205.774414 82.785082 
L 206.099394 82.626493 
L 206.424373 82.014237 
L 206.749353 82.48397 
L 207.074333 82.512516 
L 207.399312 82.340116 
L 207.724292 82.876753 
L 208.049271 82.746623 
L 208.374251 81.708542 
L 208.69923 81.98519 
L 209.674169 80.160886 
L 209.999148 80.184254 
L 210.649107 79.630712 
L 210.974087 79.876954 
L 211.299066 79.631213 
L 211.624046 79.626689 
L 211.949025 79.192109 
L 212.274005 79.506843 
L 212.598984 78.927345 
L 212.923964 79.246253 
L 213.573923 78.926748 
L 213.898903 79.460596 
L 214.548862 79.156925 
L 215.198821 78.094232 
L 215.84878 78.763358 
L 216.173759 78.712542 
L 216.498739 78.038014 
L 216.823718 77.640337 
L 217.148698 78.125363 
L 217.798657 77.678779 
L 218.123636 77.547521 
L 218.448616 77.227483 
L 218.773595 76.680146 
L 219.098575 76.979752 
L 219.423554 76.847266 
L 219.748534 76.002777 
L 220.073514 75.913364 
L 220.398493 76.427627 
L 220.723473 76.342858 
L 221.048452 76.382006 
L 221.698411 76.073094 
L 222.023391 75.176874 
L 222.34837 74.78969 
L 222.67335 74.715165 
L 223.323309 75.16804 
L 223.648288 75.043784 
L 224.298247 74.439983 
L 224.623227 74.438337 
L 224.948206 74.788045 
L 225.273186 74.424903 
L 225.923145 74.727205 
L 226.573104 74.646449 
L 226.898084 74.401189 
L 227.548043 74.979968 
L 228.198002 74.248663 
L 228.522981 74.878932 
L 229.17294 74.413545 
L 229.49792 74.393459 
L 230.147879 74.916727 
L 230.472858 74.784525 
L 230.797838 75.102624 
L 231.122817 74.724856 
L 231.447797 74.617267 
L 231.772776 75.106782 
L 232.097756 74.755008 
L 232.422735 75.031716 
L 232.747715 75.706696 
L 233.072695 75.73232 
L 234.372613 74.411664 
L 234.697592 74.852335 
L 235.022572 74.97405 
L 235.347551 75.225171 
L 236.32249 74.673855 
L 236.647469 75.127666 
L 236.972449 74.723427 
L 237.297428 74.698997 
L 237.622408 74.395813 
L 237.947387 74.801427 
L 238.272367 74.87104 
L 238.597346 75.234243 
L 238.922326 74.838199 
L 239.572285 75.790943 
L 239.897265 76.017854 
L 240.222244 76.487095 
L 241.197183 75.809683 
L 241.522162 75.327014 
L 241.847142 75.164607 
L 242.172121 75.328102 
L 242.497101 74.957033 
L 242.82208 75.441643 
L 243.472039 75.170745 
L 243.797019 75.652086 
L 244.121998 75.609831 
L 244.446978 75.806877 
L 245.096937 75.778049 
L 245.421916 76.018204 
L 246.071876 75.535585 
L 246.721835 75.900679 
L 247.046814 75.828173 
L 247.371794 75.562459 
L 247.696773 75.721799 
L 248.021753 76.10383 
L 248.346732 75.987792 
L 248.671712 76.113008 
L 248.996691 76.588986 
L 249.321671 76.858977 
L 249.64665 77.37796 
L 249.97163 77.322475 
L 250.296609 77.52929 
L 250.621589 77.554377 
L 251.271548 77.071865 
L 251.596527 77.477521 
L 251.921507 77.133837 
L 252.246486 77.238244 
L 252.571466 77.027678 
L 253.221425 77.179707 
L 253.546405 77.242051 
L 253.871384 77.648552 
L 254.196364 77.856747 
L 254.521343 77.579412 
L 254.846323 77.951599 
L 255.821261 77.74852 
L 256.146241 77.528592 
L 256.47122 77.103877 
L 256.7962 77.423617 
L 257.121179 77.066079 
L 257.446159 77.408592 
L 257.771138 77.362495 
L 258.096118 77.098873 
L 258.421097 77.131705 
L 258.746077 76.899095 
L 259.071057 76.410437 
L 259.396036 76.259176 
L 259.721016 76.453673 
L 260.045995 75.977025 
L 260.370975 75.870272 
L 260.695954 76.064015 
L 261.020934 75.950314 
L 261.345913 76.009445 
L 261.670893 75.889659 
L 261.995872 76.016868 
L 262.320852 76.024377 
L 262.645831 75.150126 
L 263.29579 74.204726 
L 264.270729 74.582882 
L 264.595708 74.172826 
L 264.920688 73.965972 
L 265.245667 73.62206 
L 265.570647 73.709848 
L 265.895627 73.338216 
L 266.220606 73.413301 
L 266.545586 73.247345 
L 267.195545 72.574127 
L 267.520524 72.592072 
L 267.845504 72.483795 
L 268.170483 72.005362 
L 268.495463 72.055029 
L 268.820442 72.344707 
L 269.145422 72.021034 
L 270.12036 72.222821 
L 270.44534 72.159522 
L 271.095299 72.604435 
L 271.420278 72.157799 
L 271.745258 72.505743 
L 272.070238 72.562648 
L 272.720197 71.751799 
L 273.370156 72.026909 
L 273.695135 71.6569 
L 274.020115 71.614928 
L 274.345094 71.733196 
L 274.670074 71.262566 
L 274.995053 71.055794 
L 275.320033 70.665769 
L 275.645012 70.918694 
L 275.969992 70.157646 
L 276.294971 70.218278 
L 277.26991 69.985169 
L 277.594889 69.495779 
L 278.894808 69.739957 
L 279.219787 70.230984 
L 279.544767 70.045631 
L 279.869746 70.205407 
L 280.194726 70.51154 
L 280.844685 70.681718 
L 281.494644 71.035905 
L 282.144603 71.644191 
L 282.469582 71.028563 
L 283.119541 70.706182 
L 283.444521 71.12759 
L 283.7695 70.988426 
L 284.09448 70.54981 
L 284.419459 70.469784 
L 285.069419 71.158874 
L 285.394398 70.898584 
L 285.719378 70.846325 
L 286.369337 71.241997 
L 287.019296 70.934369 
L 287.344275 70.773215 
L 287.669255 70.916902 
L 288.319214 71.445595 
L 288.644193 71.644074 
L 288.969173 72.018173 
L 289.619132 71.765714 
L 289.944111 72.19077 
L 290.269091 72.059274 
L 290.59407 72.30021 
L 290.91905 72.207491 
L 291.893989 72.908093 
L 292.218968 72.874863 
L 292.868927 73.58794 
L 293.193907 73.429287 
L 293.518886 73.568494 
L 293.843866 73.452998 
L 294.168845 73.48521 
L 294.493825 73.631332 
L 295.143784 74.26959 
L 295.468763 74.080471 
L 295.793743 74.301663 
L 296.118722 74.356666 
L 296.443702 74.178385 
L 296.768681 74.422309 
L 297.093661 74.515404 
L 297.41864 74.39701 
L 298.393579 75.235792 
L 299.043538 75.402319 
L 299.368518 75.193031 
L 299.693497 74.820402 
L 300.343456 75.122631 
L 300.993415 75.741288 
L 301.318395 75.769674 
L 301.643374 76.22494 
L 301.968354 76.130685 
L 302.293333 75.823487 
L 302.618313 75.726314 
L 303.268272 76.261942 
L 303.593251 76.251166 
L 303.918231 76.352853 
L 304.89317 76.175438 
L 305.218149 75.912247 
L 305.868108 76.077571 
L 306.193088 76.436333 
L 306.518067 76.484926 
L 307.168026 76.954386 
L 307.817985 76.937758 
L 308.142965 76.845071 
L 308.792924 76.378628 
L 309.442883 76.727752 
L 310.092842 76.781832 
L 310.417821 76.590015 
L 312.042719 77.156885 
L 312.367699 77.473771 
L 312.692678 77.219535 
L 313.017658 77.510865 
L 313.667617 77.18833 
L 313.992596 77.445505 
L 315.292514 77.227537 
L 315.617494 77.21505 
L 316.267453 77.481675 
L 316.592432 77.595752 
L 316.917412 77.385796 
L 317.242391 77.522653 
L 317.567371 77.382778 
L 317.892351 77.564572 
L 318.21733 77.308156 
L 318.54231 77.517209 
L 318.867289 77.345824 
L 319.192269 77.500482 
L 319.517248 77.528436 
L 320.167207 77.351809 
L 320.817166 77.494043 
L 321.142146 77.162011 
L 321.467125 77.010624 
L 321.792105 77.104454 
L 322.117084 76.78517 
L 322.442064 76.873364 
L 323.092023 76.888229 
L 323.741982 77.141113 
L 324.066962 76.94535 
L 324.391941 77.002608 
L 324.716921 76.690353 
L 325.0419 76.651544 
L 325.36688 76.823365 
L 326.016839 76.580054 
L 326.341818 76.893415 
L 327.316757 77.071468 
L 327.641736 77.313865 
L 327.966716 77.400355 
L 328.941654 76.944329 
L 329.266634 77.19476 
L 329.591613 77.038157 
L 329.916593 77.344911 
L 330.241572 77.420226 
L 330.566552 77.686544 
L 330.891532 77.322923 
L 331.541491 77.07286 
L 331.86647 77.139008 
L 332.19145 77.363362 
L 332.516429 77.383167 
L 333.491368 76.602213 
L 333.816347 76.707281 
L 334.141327 77.032466 
L 334.791286 76.581167 
L 335.116265 76.519367 
L 335.766224 76.657814 
L 336.741163 76.541428 
L 337.066143 76.252088 
L 337.391122 76.349591 
L 337.716102 76.563186 
L 338.366061 76.249425 
L 339.990958 76.614897 
L 340.315938 76.448465 
L 340.640917 76.488531 
L 340.965897 76.281705 
L 341.615856 76.403433 
L 342.590794 76.830728 
L 342.915774 76.84924 
L 343.565733 76.444897 
L 344.215692 76.496879 
L 344.540672 76.525261 
L 344.865651 76.333862 
L 345.190631 76.421296 
L 345.51561 76.175052 
L 346.165569 76.390365 
L 347.140508 76.113719 
L 347.790467 76.234897 
L 348.115446 76.3024 
L 348.765405 76.94574 
L 349.740344 77.197279 
L 350.065324 77.467932 
L 350.390303 77.471349 
L 350.715283 77.350387 
L 351.040262 77.588452 
L 351.365242 77.255978 
L 351.690221 77.238996 
L 352.015201 76.79677 
L 352.34018 76.650453 
L 352.66516 76.366777 
L 352.990139 76.47146 
L 353.315119 76.418678 
L 353.640098 76.246001 
L 353.965078 76.340808 
L 354.290057 76.09405 
L 356.239934 76.515777 
L 356.889894 75.865535 
L 357.214873 75.837237 
L 357.539853 75.688988 
L 357.864832 75.387152 
L 358.189812 75.526709 
L 358.514791 75.223566 
L 358.839771 75.404994 
L 359.16475 75.396683 
L 359.814709 75.602741 
L 360.139689 75.674457 
L 360.789648 75.221194 
L 361.114627 75.439408 
L 361.764586 75.125176 
L 362.089566 74.817649 
L 362.739525 75.299565 
L 363.064505 75.306946 
L 363.389484 75.082291 
L 363.714464 74.997327 
L 364.039443 75.155995 
L 364.689402 75.192738 
L 365.339361 75.647942 
L 365.664341 75.736303 
L 366.639279 75.305667 
L 366.964259 75.369853 
L 367.289238 75.113877 
L 367.614218 75.090373 
L 367.939197 75.402767 
L 369.889075 75.177805 
L 370.214054 75.433696 
L 370.539034 75.382365 
L 371.188993 75.807381 
L 371.513972 75.971898 
L 371.838952 75.83207 
L 372.163931 76.022824 
L 372.488911 76.080829 
L 372.81389 75.893403 
L 373.13887 75.966512 
L 373.463849 76.198263 
L 374.438788 76.420087 
L 374.763767 76.188259 
L 375.088747 76.446331 
L 375.738706 76.553527 
L 376.388665 75.871569 
L 377.038624 75.929687 
L 377.363604 75.88388 
L 378.338542 76.194661 
L 378.988501 76.074197 
L 379.96344 76.310613 
L 380.288419 76.081528 
L 381.263358 76.522541 
L 381.588337 76.269847 
L 381.913317 76.308439 
L 382.238296 76.122068 
L 382.563276 76.220369 
L 382.888256 76.456036 
L 383.213235 76.288733 
L 383.538215 76.298077 
L 384.188174 75.793971 
L 384.513153 75.768533 
L 385.163112 76.085467 
L 386.138051 76.231709 
L 386.46303 76.138461 
L 387.112989 76.396052 
L 387.437969 76.191855 
L 387.762948 76.292339 
L 388.087928 76.252775 
L 388.412907 76.463434 
L 389.387846 76.256046 
L 389.712826 76.431079 
L 390.037805 76.324211 
L 390.687764 76.699705 
L 391.662703 76.395463 
L 391.987682 76.521439 
L 392.312662 76.237995 
L 392.637641 76.244683 
L 392.962621 76.129016 
L 393.2876 76.209938 
L 393.937559 76.124519 
L 394.262539 76.132476 
L 394.587518 76.295038 
L 395.237477 75.788986 
L 395.887437 75.818704 
L 397.512334 75.268854 
L 398.162293 75.039322 
L 398.487273 74.737139 
L 398.487273 74.737139 
" clip-path="url(#p63ba6a3597)" style="fill: none; stroke-dasharray: 2,3.3; stroke-dashoffset: 0; stroke: #ffa500; stroke-width: 2"/>
   </g>
   <g id="patch_3">
    <path d="M 57.6 307.584 
L 57.6 41.472 
" style="fill: none; stroke: #000000; stroke-width: 0.8; stroke-linejoin: miter; stroke-linecap: square"/>
   </g>
   <g id="patch_4">
    <path d="M 414.72 307.584 
L 414.72 41.472 
" style="fill: none; stroke: #000000; stroke-width: 0.8; stroke-linejoin: miter; stroke-linecap: square"/>
   </g>
   <g id="patch_5">
    <path d="M 57.6 307.584 
L 414.72 307.584 
" style="fill: none; stroke: #000000; stroke-width: 0.8; stroke-linejoin: miter; stroke-linecap: square"/>
   </g>
   <g id="patch_6">
    <path d="M 57.6 41.472 
L 414.72 41.472 
" style="fill: none; stroke: #000000; stroke-width: 0.8; stroke-linejoin: miter; stroke-linecap: square"/>
   </g>
   <g id="text_16">
    <!-- Waiting Time Plot -->
    <g transform="translate(183.833438 8.2635)scale(0.12 -0.12)">
     <defs>
      <path id="DejaVuSans-50" d="M 1259 4147 
L 1259 2394 
L 2053 2394 
Q 2494 2394 2734 2622 
Q 2975 2850 2975 3272 
Q 2975 3691 2734 3919 
Q 2494 4147 2053 4147 
L 1259 4147 
z
M 628 4666 
L 2053 4666 
Q 2838 4666 3239 4311 
Q 3641 3956 3641 3272 
Q 3641 2581 3239 2228 
Q 2838 1875 2053 1875 
L 1259 1875 
L 1259 0 
L 628 0 
L 628 4666 
z
" transform="scale(0.015625)"/>
      <path id="DejaVuSans-6c" d="M 603 4863 
L 1178 4863 
L 1178 0 
L 603 0 
L 603 4863 
z
" transform="scale(0.015625)"/>
     </defs>
     <use xlink:href="#DejaVuSans-57"/>
     <use xlink:href="#DejaVuSans-61" x="92.501953"/>
     <use xlink:href="#DejaVuSans-69" x="153.78125"/>
     <use xlink:href="#DejaVuSans-74" x="181.564453"/>
     <use xlink:href="#DejaVuSans-69" x="220.773438"/>
     <use xlink:href="#DejaVuSans-6e" x="248.556641"/>
     <use xlink:href="#DejaVuSans-67" x="311.935547"/>
     <use xlink:href="#DejaVuSans-20" x="375.412109"/>
     <use xlink:href="#DejaVuSans-54" x="407.199219"/>
     <use xlink:href="#DejaVuSans-69" x="465.158203"/>
     <use xlink:href="#DejaVuSans-6d" x="492.941406"/>
     <use xlink:href="#DejaVuSans-65" x="590.353516"/>
     <use xlink:href="#DejaVuSans-20" x="651.876953"/>
     <use xlink:href="#DejaVuSans-50" x="683.664062"/>
     <use xlink:href="#DejaVuSans-6c" x="743.966797"/>
     <use xlink:href="#DejaVuSans-6f" x="771.75"/>
     <use xlink:href="#DejaVuSans-74" x="832.931641"/>
    </g>
    <!--  avg_d = 491.4095932322137  -->
    <g transform="translate(142.671562 21.700875)scale(0.12 -0.12)">
     <defs>
      <path id="DejaVuSans-76" d="M 191 3500 
L 800 3500 
L 1894 563 
L 2988 3500 
L 3597 3500 
L 2284 0 
L 1503 0 
L 191 3500 
z
" transform="scale(0.015625)"/>
      <path id="DejaVuSans-5f" d="M 3263 -1063 
L 3263 -1509 
L -63 -1509 
L -63 -1063 
L 3263 -1063 
z
" transform="scale(0.015625)"/>
      <path id="DejaVuSans-3d" d="M 678 2906 
L 4684 2906 
L 4684 2381 
L 678 2381 
L 678 2906 
z
M 678 1631 
L 4684 1631 
L 4684 1100 
L 678 1100 
L 678 1631 
z
" transform="scale(0.015625)"/>
      <path id="DejaVuSans-39" d="M 703 97 
L 703 672 
Q 941 559 1184 500 
Q 1428 441 1663 441 
Q 2288 441 2617 861 
Q 2947 1281 2994 2138 
Q 2813 1869 2534 1725 
Q 2256 1581 1919 1581 
Q 1219 1581 811 2004 
Q 403 2428 403 3163 
Q 403 3881 828 4315 
Q 1253 4750 1959 4750 
Q 2769 4750 3195 4129 
Q 3622 3509 3622 2328 
Q 3622 1225 3098 567 
Q 2575 -91 1691 -91 
Q 1453 -91 1209 -44 
Q 966 3 703 97 
z
M 1959 2075 
Q 2384 2075 2632 2365 
Q 2881 2656 2881 3163 
Q 2881 3666 2632 3958 
Q 2384 4250 1959 4250 
Q 1534 4250 1286 3958 
Q 1038 3666 1038 3163 
Q 1038 2656 1286 2365 
Q 1534 2075 1959 2075 
z
" transform="scale(0.015625)"/>
      <path id="DejaVuSans-2e" d="M 684 794 
L 1344 794 
L 1344 0 
L 684 0 
L 684 794 
z
" transform="scale(0.015625)"/>
      <path id="DejaVuSans-37" d="M 525 4666 
L 3525 4666 
L 3525 4397 
L 1831 0 
L 1172 0 
L 2766 4134 
L 525 4134 
L 525 4666 
z
" transform="scale(0.015625)"/>
     </defs>
     <use xlink:href="#DejaVuSans-20"/>
     <use xlink:href="#DejaVuSans-61" x="31.787109"/>
     <use xlink:href="#DejaVuSans-76" x="93.066406"/>
     <use xlink:href="#DejaVuSans-67" x="152.246094"/>
     <use xlink:href="#DejaVuSans-5f" x="215.722656"/>
     <use xlink:href="#DejaVuSans-64" x="265.722656"/>
     <use xlink:href="#DejaVuSans-20" x="329.199219"/>
     <use xlink:href="#DejaVuSans-3d" x="360.986328"/>
     <use xlink:href="#DejaVuSans-20" x="444.775391"/>
     <use xlink:href="#DejaVuSans-34" x="476.5625"/>
     <use xlink:href="#DejaVuSans-39" x="540.185547"/>
     <use xlink:href="#DejaVuSans-31" x="603.808594"/>
     <use xlink:href="#DejaVuSans-2e" x="667.431641"/>
     <use xlink:href="#DejaVuSans-34" x="699.21875"/>
     <use xlink:href="#DejaVuSans-30" x="762.841797"/>
     <use xlink:href="#DejaVuSans-39" x="826.464844"/>
     <use xlink:href="#DejaVuSans-35" x="890.087891"/>
     <use xlink:href="#DejaVuSans-39" x="953.710938"/>
     <use xlink:href="#DejaVuSans-33" x="1017.333984"/>
     <use xlink:href="#DejaVuSans-32" x="1080.957031"/>
     <use xlink:href="#DejaVuSans-33" x="1144.580078"/>
     <use xlink:href="#DejaVuSans-32" x="1208.203125"/>
     <use xlink:href="#DejaVuSans-32" x="1271.826172"/>
     <use xlink:href="#DejaVuSans-31" x="1335.449219"/>
     <use xlink:href="#DejaVuSans-33" x="1399.072266"/>
     <use xlink:href="#DejaVuSans-37" x="1462.695312"/>
     <use xlink:href="#DejaVuSans-20" x="1526.318359"/>
    </g>
    <!--  avg_a = 467.4708712936547diff = 23.938721938559013 -->
    <g transform="translate(59.364375 35.472)scale(0.12 -0.12)">
     <use xlink:href="#DejaVuSans-20"/>
     <use xlink:href="#DejaVuSans-61" x="31.787109"/>
     <use xlink:href="#DejaVuSans-76" x="93.066406"/>
     <use xlink:href="#DejaVuSans-67" x="152.246094"/>
     <use xlink:href="#DejaVuSans-5f" x="215.722656"/>
     <use xlink:href="#DejaVuSans-61" x="265.722656"/>
     <use xlink:href="#DejaVuSans-20" x="327.001953"/>
     <use xlink:href="#DejaVuSans-3d" x="358.789062"/>
     <use xlink:href="#DejaVuSans-20" x="442.578125"/>
     <use xlink:href="#DejaVuSans-34" x="474.365234"/>
     <use xlink:href="#DejaVuSans-36" x="537.988281"/>
     <use xlink:href="#DejaVuSans-37" x="601.611328"/>
     <use xlink:href="#DejaVuSans-2e" x="665.234375"/>
     <use xlink:href="#DejaVuSans-34" x="697.021484"/>
     <use xlink:href="#DejaVuSans-37" x="760.644531"/>
     <use xlink:href="#DejaVuSans-30" x="824.267578"/>
     <use xlink:href="#DejaVuSans-38" x="887.890625"/>
     <use xlink:href="#DejaVuSans-37" x="951.513672"/>
     <use xlink:href="#DejaVuSans-31" x="1015.136719"/>
     <use xlink:href="#DejaVuSans-32" x="1078.759766"/>
     <use xlink:href="#DejaVuSans-39" x="1142.382812"/>
     <use xlink:href="#DejaVuSans-33" x="1206.005859"/>
     <use xlink:href="#DejaVuSans-36" x="1269.628906"/>
     <use xlink:href="#DejaVuSans-35" x="1333.251953"/>
     <use xlink:href="#DejaVuSans-34" x="1396.875"/>
     <use xlink:href="#DejaVuSans-37" x="1460.498047"/>
     <use xlink:href="#DejaVuSans-64" x="1524.121094"/>
     <use xlink:href="#DejaVuSans-69" x="1587.597656"/>
     <use xlink:href="#DejaVuSans-66" x="1615.380859"/>
     <use xlink:href="#DejaVuSans-66" x="1650.585938"/>
     <use xlink:href="#DejaVuSans-20" x="1685.791016"/>
     <use xlink:href="#DejaVuSans-3d" x="1717.578125"/>
     <use xlink:href="#DejaVuSans-20" x="1801.367188"/>
     <use xlink:href="#DejaVuSans-32" x="1833.154297"/>
     <use xlink:href="#DejaVuSans-33" x="1896.777344"/>
     <use xlink:href="#DejaVuSans-2e" x="1960.400391"/>
     <use xlink:href="#DejaVuSans-39" x="1992.1875"/>
     <use xlink:href="#DejaVuSans-33" x="2055.810547"/>
     <use xlink:href="#DejaVuSans-38" x="2119.433594"/>
     <use xlink:href="#DejaVuSans-37" x="2183.056641"/>
     <use xlink:href="#DejaVuSans-32" x="2246.679688"/>
     <use xlink:href="#DejaVuSans-31" x="2310.302734"/>
     <use xlink:href="#DejaVuSans-39" x="2373.925781"/>
     <use xlink:href="#DejaVuSans-33" x="2437.548828"/>
     <use xlink:href="#DejaVuSans-38" x="2501.171875"/>
     <use xlink:href="#DejaVuSans-35" x="2564.794922"/>
     <use xlink:href="#DejaVuSans-35" x="2628.417969"/>
     <use xlink:href="#DejaVuSans-39" x="2692.041016"/>
     <use xlink:href="#DejaVuSans-30" x="2755.664062"/>
     <use xlink:href="#DejaVuSans-31" x="2819.287109"/>
     <use xlink:href="#DejaVuSans-33" x="2882.910156"/>
    </g>
   </g>
   <g id="legend_1">
    <g id="patch_7">
     <path d="M 263.88875 302.584 
L 407.72 302.584 
Q 409.72 302.584 409.72 300.584 
L 409.72 272.22775 
Q 409.72 270.22775 407.72 270.22775 
L 263.88875 270.22775 
Q 261.88875 270.22775 261.88875 272.22775 
L 261.88875 300.584 
Q 261.88875 302.584 263.88875 302.584 
z
" style="fill: #ffffff; opacity: 0.8; stroke: #cccccc; stroke-linejoin: miter"/>
    </g>
    <g id="line2d_16">
     <path d="M 265.88875 278.326187 
L 275.88875 278.326187 
L 285.88875 278.326187 
" style="fill: none; stroke-dasharray: 2,3.3; stroke-dashoffset: 0; stroke: #0000ff; stroke-width: 2"/>
    </g>
    <g id="text_17">
     <!-- Average (Default) -->
     <g transform="translate(293.88875 281.826187)scale(0.1 -0.1)">
      <defs>
       <path id="DejaVuSans-41" d="M 2188 4044 
L 1331 1722 
L 3047 1722 
L 2188 4044 
z
M 1831 4666 
L 2547 4666 
L 4325 0 
L 3669 0 
L 3244 1197 
L 1141 1197 
L 716 0 
L 50 0 
L 1831 4666 
z
" transform="scale(0.015625)"/>
       <path id="DejaVuSans-28" d="M 1984 4856 
Q 1566 4138 1362 3434 
Q 1159 2731 1159 2009 
Q 1159 1288 1364 580 
Q 1569 -128 1984 -844 
L 1484 -844 
Q 1016 -109 783 600 
Q 550 1309 550 2009 
Q 550 2706 781 3412 
Q 1013 4119 1484 4856 
L 1984 4856 
z
" transform="scale(0.015625)"/>
       <path id="DejaVuSans-44" d="M 1259 4147 
L 1259 519 
L 2022 519 
Q 2988 519 3436 956 
Q 3884 1394 3884 2338 
Q 3884 3275 3436 3711 
Q 2988 4147 2022 4147 
L 1259 4147 
z
M 628 4666 
L 1925 4666 
Q 3281 4666 3915 4102 
Q 4550 3538 4550 2338 
Q 4550 1131 3912 565 
Q 3275 0 1925 0 
L 628 0 
L 628 4666 
z
" transform="scale(0.015625)"/>
       <path id="DejaVuSans-29" d="M 513 4856 
L 1013 4856 
Q 1481 4119 1714 3412 
Q 1947 2706 1947 2009 
Q 1947 1309 1714 600 
Q 1481 -109 1013 -844 
L 513 -844 
Q 928 -128 1133 580 
Q 1338 1288 1338 2009 
Q 1338 2731 1133 3434 
Q 928 4138 513 4856 
z
" transform="scale(0.015625)"/>
      </defs>
      <use xlink:href="#DejaVuSans-41"/>
      <use xlink:href="#DejaVuSans-76" x="62.533203"/>
      <use xlink:href="#DejaVuSans-65" x="121.712891"/>
      <use xlink:href="#DejaVuSans-72" x="183.236328"/>
      <use xlink:href="#DejaVuSans-61" x="224.349609"/>
      <use xlink:href="#DejaVuSans-67" x="285.628906"/>
      <use xlink:href="#DejaVuSans-65" x="349.105469"/>
      <use xlink:href="#DejaVuSans-20" x="410.628906"/>
      <use xlink:href="#DejaVuSans-28" x="442.416016"/>
      <use xlink:href="#DejaVuSans-44" x="481.429688"/>
      <use xlink:href="#DejaVuSans-65" x="558.431641"/>
      <use xlink:href="#DejaVuSans-66" x="619.955078"/>
      <use xlink:href="#DejaVuSans-61" x="655.160156"/>
      <use xlink:href="#DejaVuSans-75" x="716.439453"/>
      <use xlink:href="#DejaVuSans-6c" x="779.818359"/>
      <use xlink:href="#DejaVuSans-74" x="807.601562"/>
      <use xlink:href="#DejaVuSans-29" x="846.810547"/>
     </g>
    </g>
    <g id="line2d_17">
     <path d="M 265.88875 293.004312 
L 275.88875 293.004312 
L 285.88875 293.004312 
" style="fill: none; stroke-dasharray: 2,3.3; stroke-dashoffset: 0; stroke: #ffa500; stroke-width: 2"/>
    </g>
    <g id="text_18">
     <!-- Average (Anticipation) -->
     <g transform="translate(293.88875 296.504312)scale(0.1 -0.1)">
      <defs>
       <path id="DejaVuSans-63" d="M 3122 3366 
L 3122 2828 
Q 2878 2963 2633 3030 
Q 2388 3097 2138 3097 
Q 1578 3097 1268 2742 
Q 959 2388 959 1747 
Q 959 1106 1268 751 
Q 1578 397 2138 397 
Q 2388 397 2633 464 
Q 2878 531 3122 666 
L 3122 134 
Q 2881 22 2623 -34 
Q 2366 -91 2075 -91 
Q 1284 -91 818 406 
Q 353 903 353 1747 
Q 353 2603 823 3093 
Q 1294 3584 2113 3584 
Q 2378 3584 2631 3529 
Q 2884 3475 3122 3366 
z
" transform="scale(0.015625)"/>
       <path id="DejaVuSans-70" d="M 1159 525 
L 1159 -1331 
L 581 -1331 
L 581 3500 
L 1159 3500 
L 1159 2969 
Q 1341 3281 1617 3432 
Q 1894 3584 2278 3584 
Q 2916 3584 3314 3078 
Q 3713 2572 3713 1747 
Q 3713 922 3314 415 
Q 2916 -91 2278 -91 
Q 1894 -91 1617 61 
Q 1341 213 1159 525 
z
M 3116 1747 
Q 3116 2381 2855 2742 
Q 2594 3103 2138 3103 
Q 1681 3103 1420 2742 
Q 1159 2381 1159 1747 
Q 1159 1113 1420 752 
Q 1681 391 2138 391 
Q 2594 391 2855 752 
Q 3116 1113 3116 1747 
z
" transform="scale(0.015625)"/>
      </defs>
      <use xlink:href="#DejaVuSans-41"/>
      <use xlink:href="#DejaVuSans-76" x="62.533203"/>
      <use xlink:href="#DejaVuSans-65" x="121.712891"/>
      <use xlink:href="#DejaVuSans-72" x="183.236328"/>
      <use xlink:href="#DejaVuSans-61" x="224.349609"/>
      <use xlink:href="#DejaVuSans-67" x="285.628906"/>
      <use xlink:href="#DejaVuSans-65" x="349.105469"/>
      <use xlink:href="#DejaVuSans-20" x="410.628906"/>
      <use xlink:href="#DejaVuSans-28" x="442.416016"/>
      <use xlink:href="#DejaVuSans-41" x="481.429688"/>
      <use xlink:href="#DejaVuSans-6e" x="549.837891"/>
      <use xlink:href="#DejaVuSans-74" x="613.216797"/>
      <use xlink:href="#DejaVuSans-69" x="652.425781"/>
      <use xlink:href="#DejaVuSans-63" x="680.208984"/>
      <use xlink:href="#DejaVuSans-69" x="735.189453"/>
      <use xlink:href="#DejaVuSans-70" x="762.972656"/>
      <use xlink:href="#DejaVuSans-61" x="826.449219"/>
      <use xlink:href="#DejaVuSans-74" x="887.728516"/>
      <use xlink:href="#DejaVuSans-69" x="926.9375"/>
      <use xlink:href="#DejaVuSans-6f" x="954.720703"/>
      <use xlink:href="#DejaVuSans-6e" x="1015.902344"/>
      <use xlink:href="#DejaVuSans-29" x="1079.28125"/>
     </g>
    </g>
   </g>
  </g>
 </g>
 <defs>
  <clipPath id="p63ba6a3597">
   <rect x="57.6" y="41.472" width="357.12" height="266.112"/>
  </clipPath>
 </defs>
</svg>
