<?xml version="1.0" encoding="utf-8" standalone="no"?>
<!DOCTYPE svg PUBLIC "-//W3C//DTD SVG 1.1//EN"
  "http://www.w3.org/Graphics/SVG/1.1/DTD/svg11.dtd">
<svg xmlns:xlink="http://www.w3.org/1999/xlink" width="460.8pt" height="345.6pt" viewBox="0 0 460.8 345.6" xmlns="http://www.w3.org/2000/svg" version="1.1">
 <metadata>
  <rdf:RDF xmlns:dc="http://purl.org/dc/elements/1.1/" xmlns:cc="http://creativecommons.org/ns#" xmlns:rdf="http://www.w3.org/1999/02/22-rdf-syntax-ns#">
   <cc:Work>
    <dc:type rdf:resource="http://purl.org/dc/dcmitype/StillImage"/>
    <dc:date>2022-10-04T12:43:08.595665</dc:date>
    <dc:format>image/svg+xml</dc:format>
    <dc:creator>
     <cc:Agent>
      <dc:title>Matplotlib v3.5.3, https://matplotlib.org/</dc:title>
     </cc:Agent>
    </dc:creator>
   </cc:Work>
  </rdf:RDF>
 </metadata>
 <defs>
  <style type="text/css">*{stroke-linejoin: round; stroke-linecap: butt}</style>
 </defs>
 <g id="figure_1">
  <g id="patch_1">
   <path d="M 0 345.6 
L 460.8 345.6 
L 460.8 0 
L 0 0 
z
" style="fill: #ffffff"/>
  </g>
  <g id="axes_1">
   <g id="patch_2">
    <path d="M 57.6 307.584 
L 414.72 307.584 
L 414.72 41.472 
L 57.6 41.472 
z
" style="fill: #ffffff"/>
   </g>
   <g id="matplotlib.axis_1">
    <g id="xtick_1">
     <g id="line2d_1">
      <defs>
       <path id="m6a0ea8db27" d="M 0 0 
L 0 3.5 
" style="stroke: #000000; stroke-width: 0.8"/>
      </defs>
      <g>
       <use xlink:href="#m6a0ea8db27" x="73.832727" y="307.584" style="stroke: #000000; stroke-width: 0.8"/>
      </g>
     </g>
     <g id="text_1">
      <!-- 0 -->
      <g transform="translate(70.651477 322.182437)scale(0.1 -0.1)">
       <defs>
        <path id="DejaVuSans-30" d="M 2034 4250 
Q 1547 4250 1301 3770 
Q 1056 3291 1056 2328 
Q 1056 1369 1301 889 
Q 1547 409 2034 409 
Q 2525 409 2770 889 
Q 3016 1369 3016 2328 
Q 3016 3291 2770 3770 
Q 2525 4250 2034 4250 
z
M 2034 4750 
Q 2819 4750 3233 4129 
Q 3647 3509 3647 2328 
Q 3647 1150 3233 529 
Q 2819 -91 2034 -91 
Q 1250 -91 836 529 
Q 422 1150 422 2328 
Q 422 3509 836 4129 
Q 1250 4750 2034 4750 
z
" transform="scale(0.015625)"/>
       </defs>
       <use xlink:href="#DejaVuSans-30"/>
      </g>
     </g>
    </g>
    <g id="xtick_2">
     <g id="line2d_2">
      <g>
       <use xlink:href="#m6a0ea8db27" x="138.828632" y="307.584" style="stroke: #000000; stroke-width: 0.8"/>
      </g>
     </g>
     <g id="text_2">
      <!-- 200 -->
      <g transform="translate(129.284882 322.182437)scale(0.1 -0.1)">
       <defs>
        <path id="DejaVuSans-32" d="M 1228 531 
L 3431 531 
L 3431 0 
L 469 0 
L 469 531 
Q 828 903 1448 1529 
Q 2069 2156 2228 2338 
Q 2531 2678 2651 2914 
Q 2772 3150 2772 3378 
Q 2772 3750 2511 3984 
Q 2250 4219 1831 4219 
Q 1534 4219 1204 4116 
Q 875 4013 500 3803 
L 500 4441 
Q 881 4594 1212 4672 
Q 1544 4750 1819 4750 
Q 2544 4750 2975 4387 
Q 3406 4025 3406 3419 
Q 3406 3131 3298 2873 
Q 3191 2616 2906 2266 
Q 2828 2175 2409 1742 
Q 1991 1309 1228 531 
z
" transform="scale(0.015625)"/>
       </defs>
       <use xlink:href="#DejaVuSans-32"/>
       <use xlink:href="#DejaVuSans-30" x="63.623047"/>
       <use xlink:href="#DejaVuSans-30" x="127.246094"/>
      </g>
     </g>
    </g>
    <g id="xtick_3">
     <g id="line2d_3">
      <g>
       <use xlink:href="#m6a0ea8db27" x="203.824537" y="307.584" style="stroke: #000000; stroke-width: 0.8"/>
      </g>
     </g>
     <g id="text_3">
      <!-- 400 -->
      <g transform="translate(194.280787 322.182437)scale(0.1 -0.1)">
       <defs>
        <path id="DejaVuSans-34" d="M 2419 4116 
L 825 1625 
L 2419 1625 
L 2419 4116 
z
M 2253 4666 
L 3047 4666 
L 3047 1625 
L 3713 1625 
L 3713 1100 
L 3047 1100 
L 3047 0 
L 2419 0 
L 2419 1100 
L 313 1100 
L 313 1709 
L 2253 4666 
z
" transform="scale(0.015625)"/>
       </defs>
       <use xlink:href="#DejaVuSans-34"/>
       <use xlink:href="#DejaVuSans-30" x="63.623047"/>
       <use xlink:href="#DejaVuSans-30" x="127.246094"/>
      </g>
     </g>
    </g>
    <g id="xtick_4">
     <g id="line2d_4">
      <g>
       <use xlink:href="#m6a0ea8db27" x="268.820442" y="307.584" style="stroke: #000000; stroke-width: 0.8"/>
      </g>
     </g>
     <g id="text_4">
      <!-- 600 -->
      <g transform="translate(259.276692 322.182437)scale(0.1 -0.1)">
       <defs>
        <path id="DejaVuSans-36" d="M 2113 2584 
Q 1688 2584 1439 2293 
Q 1191 2003 1191 1497 
Q 1191 994 1439 701 
Q 1688 409 2113 409 
Q 2538 409 2786 701 
Q 3034 994 3034 1497 
Q 3034 2003 2786 2293 
Q 2538 2584 2113 2584 
z
M 3366 4563 
L 3366 3988 
Q 3128 4100 2886 4159 
Q 2644 4219 2406 4219 
Q 1781 4219 1451 3797 
Q 1122 3375 1075 2522 
Q 1259 2794 1537 2939 
Q 1816 3084 2150 3084 
Q 2853 3084 3261 2657 
Q 3669 2231 3669 1497 
Q 3669 778 3244 343 
Q 2819 -91 2113 -91 
Q 1303 -91 875 529 
Q 447 1150 447 2328 
Q 447 3434 972 4092 
Q 1497 4750 2381 4750 
Q 2619 4750 2861 4703 
Q 3103 4656 3366 4563 
z
" transform="scale(0.015625)"/>
       </defs>
       <use xlink:href="#DejaVuSans-36"/>
       <use xlink:href="#DejaVuSans-30" x="63.623047"/>
       <use xlink:href="#DejaVuSans-30" x="127.246094"/>
      </g>
     </g>
    </g>
    <g id="xtick_5">
     <g id="line2d_5">
      <g>
       <use xlink:href="#m6a0ea8db27" x="333.816347" y="307.584" style="stroke: #000000; stroke-width: 0.8"/>
      </g>
     </g>
     <g id="text_5">
      <!-- 800 -->
      <g transform="translate(324.272597 322.182437)scale(0.1 -0.1)">
       <defs>
        <path id="DejaVuSans-38" d="M 2034 2216 
Q 1584 2216 1326 1975 
Q 1069 1734 1069 1313 
Q 1069 891 1326 650 
Q 1584 409 2034 409 
Q 2484 409 2743 651 
Q 3003 894 3003 1313 
Q 3003 1734 2745 1975 
Q 2488 2216 2034 2216 
z
M 1403 2484 
Q 997 2584 770 2862 
Q 544 3141 544 3541 
Q 544 4100 942 4425 
Q 1341 4750 2034 4750 
Q 2731 4750 3128 4425 
Q 3525 4100 3525 3541 
Q 3525 3141 3298 2862 
Q 3072 2584 2669 2484 
Q 3125 2378 3379 2068 
Q 3634 1759 3634 1313 
Q 3634 634 3220 271 
Q 2806 -91 2034 -91 
Q 1263 -91 848 271 
Q 434 634 434 1313 
Q 434 1759 690 2068 
Q 947 2378 1403 2484 
z
M 1172 3481 
Q 1172 3119 1398 2916 
Q 1625 2713 2034 2713 
Q 2441 2713 2670 2916 
Q 2900 3119 2900 3481 
Q 2900 3844 2670 4047 
Q 2441 4250 2034 4250 
Q 1625 4250 1398 4047 
Q 1172 3844 1172 3481 
z
" transform="scale(0.015625)"/>
       </defs>
       <use xlink:href="#DejaVuSans-38"/>
       <use xlink:href="#DejaVuSans-30" x="63.623047"/>
       <use xlink:href="#DejaVuSans-30" x="127.246094"/>
      </g>
     </g>
    </g>
    <g id="xtick_6">
     <g id="line2d_6">
      <g>
       <use xlink:href="#m6a0ea8db27" x="398.812252" y="307.584" style="stroke: #000000; stroke-width: 0.8"/>
      </g>
     </g>
     <g id="text_6">
      <!-- 1000 -->
      <g transform="translate(386.087252 322.182437)scale(0.1 -0.1)">
       <defs>
        <path id="DejaVuSans-31" d="M 794 531 
L 1825 531 
L 1825 4091 
L 703 3866 
L 703 4441 
L 1819 4666 
L 2450 4666 
L 2450 531 
L 3481 531 
L 3481 0 
L 794 0 
L 794 531 
z
" transform="scale(0.015625)"/>
       </defs>
       <use xlink:href="#DejaVuSans-31"/>
       <use xlink:href="#DejaVuSans-30" x="63.623047"/>
       <use xlink:href="#DejaVuSans-30" x="127.246094"/>
       <use xlink:href="#DejaVuSans-30" x="190.869141"/>
      </g>
     </g>
    </g>
    <g id="text_7">
     <!-- Number of Orders -->
     <g transform="translate(191.261562 335.860562)scale(0.1 -0.1)">
      <defs>
       <path id="DejaVuSans-4e" d="M 628 4666 
L 1478 4666 
L 3547 763 
L 3547 4666 
L 4159 4666 
L 4159 0 
L 3309 0 
L 1241 3903 
L 1241 0 
L 628 0 
L 628 4666 
z
" transform="scale(0.015625)"/>
       <path id="DejaVuSans-75" d="M 544 1381 
L 544 3500 
L 1119 3500 
L 1119 1403 
Q 1119 906 1312 657 
Q 1506 409 1894 409 
Q 2359 409 2629 706 
Q 2900 1003 2900 1516 
L 2900 3500 
L 3475 3500 
L 3475 0 
L 2900 0 
L 2900 538 
Q 2691 219 2414 64 
Q 2138 -91 1772 -91 
Q 1169 -91 856 284 
Q 544 659 544 1381 
z
M 1991 3584 
L 1991 3584 
z
" transform="scale(0.015625)"/>
       <path id="DejaVuSans-6d" d="M 3328 2828 
Q 3544 3216 3844 3400 
Q 4144 3584 4550 3584 
Q 5097 3584 5394 3201 
Q 5691 2819 5691 2113 
L 5691 0 
L 5113 0 
L 5113 2094 
Q 5113 2597 4934 2840 
Q 4756 3084 4391 3084 
Q 3944 3084 3684 2787 
Q 3425 2491 3425 1978 
L 3425 0 
L 2847 0 
L 2847 2094 
Q 2847 2600 2669 2842 
Q 2491 3084 2119 3084 
Q 1678 3084 1418 2786 
Q 1159 2488 1159 1978 
L 1159 0 
L 581 0 
L 581 3500 
L 1159 3500 
L 1159 2956 
Q 1356 3278 1631 3431 
Q 1906 3584 2284 3584 
Q 2666 3584 2933 3390 
Q 3200 3197 3328 2828 
z
" transform="scale(0.015625)"/>
       <path id="DejaVuSans-62" d="M 3116 1747 
Q 3116 2381 2855 2742 
Q 2594 3103 2138 3103 
Q 1681 3103 1420 2742 
Q 1159 2381 1159 1747 
Q 1159 1113 1420 752 
Q 1681 391 2138 391 
Q 2594 391 2855 752 
Q 3116 1113 3116 1747 
z
M 1159 2969 
Q 1341 3281 1617 3432 
Q 1894 3584 2278 3584 
Q 2916 3584 3314 3078 
Q 3713 2572 3713 1747 
Q 3713 922 3314 415 
Q 2916 -91 2278 -91 
Q 1894 -91 1617 61 
Q 1341 213 1159 525 
L 1159 0 
L 581 0 
L 581 4863 
L 1159 4863 
L 1159 2969 
z
" transform="scale(0.015625)"/>
       <path id="DejaVuSans-65" d="M 3597 1894 
L 3597 1613 
L 953 1613 
Q 991 1019 1311 708 
Q 1631 397 2203 397 
Q 2534 397 2845 478 
Q 3156 559 3463 722 
L 3463 178 
Q 3153 47 2828 -22 
Q 2503 -91 2169 -91 
Q 1331 -91 842 396 
Q 353 884 353 1716 
Q 353 2575 817 3079 
Q 1281 3584 2069 3584 
Q 2775 3584 3186 3129 
Q 3597 2675 3597 1894 
z
M 3022 2063 
Q 3016 2534 2758 2815 
Q 2500 3097 2075 3097 
Q 1594 3097 1305 2825 
Q 1016 2553 972 2059 
L 3022 2063 
z
" transform="scale(0.015625)"/>
       <path id="DejaVuSans-72" d="M 2631 2963 
Q 2534 3019 2420 3045 
Q 2306 3072 2169 3072 
Q 1681 3072 1420 2755 
Q 1159 2438 1159 1844 
L 1159 0 
L 581 0 
L 581 3500 
L 1159 3500 
L 1159 2956 
Q 1341 3275 1631 3429 
Q 1922 3584 2338 3584 
Q 2397 3584 2469 3576 
Q 2541 3569 2628 3553 
L 2631 2963 
z
" transform="scale(0.015625)"/>
       <path id="DejaVuSans-20" transform="scale(0.015625)"/>
       <path id="DejaVuSans-6f" d="M 1959 3097 
Q 1497 3097 1228 2736 
Q 959 2375 959 1747 
Q 959 1119 1226 758 
Q 1494 397 1959 397 
Q 2419 397 2687 759 
Q 2956 1122 2956 1747 
Q 2956 2369 2687 2733 
Q 2419 3097 1959 3097 
z
M 1959 3584 
Q 2709 3584 3137 3096 
Q 3566 2609 3566 1747 
Q 3566 888 3137 398 
Q 2709 -91 1959 -91 
Q 1206 -91 779 398 
Q 353 888 353 1747 
Q 353 2609 779 3096 
Q 1206 3584 1959 3584 
z
" transform="scale(0.015625)"/>
       <path id="DejaVuSans-66" d="M 2375 4863 
L 2375 4384 
L 1825 4384 
Q 1516 4384 1395 4259 
Q 1275 4134 1275 3809 
L 1275 3500 
L 2222 3500 
L 2222 3053 
L 1275 3053 
L 1275 0 
L 697 0 
L 697 3053 
L 147 3053 
L 147 3500 
L 697 3500 
L 697 3744 
Q 697 4328 969 4595 
Q 1241 4863 1831 4863 
L 2375 4863 
z
" transform="scale(0.015625)"/>
       <path id="DejaVuSans-4f" d="M 2522 4238 
Q 1834 4238 1429 3725 
Q 1025 3213 1025 2328 
Q 1025 1447 1429 934 
Q 1834 422 2522 422 
Q 3209 422 3611 934 
Q 4013 1447 4013 2328 
Q 4013 3213 3611 3725 
Q 3209 4238 2522 4238 
z
M 2522 4750 
Q 3503 4750 4090 4092 
Q 4678 3434 4678 2328 
Q 4678 1225 4090 567 
Q 3503 -91 2522 -91 
Q 1538 -91 948 565 
Q 359 1222 359 2328 
Q 359 3434 948 4092 
Q 1538 4750 2522 4750 
z
" transform="scale(0.015625)"/>
       <path id="DejaVuSans-64" d="M 2906 2969 
L 2906 4863 
L 3481 4863 
L 3481 0 
L 2906 0 
L 2906 525 
Q 2725 213 2448 61 
Q 2172 -91 1784 -91 
Q 1150 -91 751 415 
Q 353 922 353 1747 
Q 353 2572 751 3078 
Q 1150 3584 1784 3584 
Q 2172 3584 2448 3432 
Q 2725 3281 2906 2969 
z
M 947 1747 
Q 947 1113 1208 752 
Q 1469 391 1925 391 
Q 2381 391 2643 752 
Q 2906 1113 2906 1747 
Q 2906 2381 2643 2742 
Q 2381 3103 1925 3103 
Q 1469 3103 1208 2742 
Q 947 2381 947 1747 
z
" transform="scale(0.015625)"/>
       <path id="DejaVuSans-73" d="M 2834 3397 
L 2834 2853 
Q 2591 2978 2328 3040 
Q 2066 3103 1784 3103 
Q 1356 3103 1142 2972 
Q 928 2841 928 2578 
Q 928 2378 1081 2264 
Q 1234 2150 1697 2047 
L 1894 2003 
Q 2506 1872 2764 1633 
Q 3022 1394 3022 966 
Q 3022 478 2636 193 
Q 2250 -91 1575 -91 
Q 1294 -91 989 -36 
Q 684 19 347 128 
L 347 722 
Q 666 556 975 473 
Q 1284 391 1588 391 
Q 1994 391 2212 530 
Q 2431 669 2431 922 
Q 2431 1156 2273 1281 
Q 2116 1406 1581 1522 
L 1381 1569 
Q 847 1681 609 1914 
Q 372 2147 372 2553 
Q 372 3047 722 3315 
Q 1072 3584 1716 3584 
Q 2034 3584 2315 3537 
Q 2597 3491 2834 3397 
z
" transform="scale(0.015625)"/>
      </defs>
      <use xlink:href="#DejaVuSans-4e"/>
      <use xlink:href="#DejaVuSans-75" x="74.804688"/>
      <use xlink:href="#DejaVuSans-6d" x="138.183594"/>
      <use xlink:href="#DejaVuSans-62" x="235.595703"/>
      <use xlink:href="#DejaVuSans-65" x="299.072266"/>
      <use xlink:href="#DejaVuSans-72" x="360.595703"/>
      <use xlink:href="#DejaVuSans-20" x="401.708984"/>
      <use xlink:href="#DejaVuSans-6f" x="433.496094"/>
      <use xlink:href="#DejaVuSans-66" x="494.677734"/>
      <use xlink:href="#DejaVuSans-20" x="529.882812"/>
      <use xlink:href="#DejaVuSans-4f" x="561.669922"/>
      <use xlink:href="#DejaVuSans-72" x="640.380859"/>
      <use xlink:href="#DejaVuSans-64" x="679.744141"/>
      <use xlink:href="#DejaVuSans-65" x="743.220703"/>
      <use xlink:href="#DejaVuSans-72" x="804.744141"/>
      <use xlink:href="#DejaVuSans-73" x="845.857422"/>
     </g>
    </g>
   </g>
   <g id="matplotlib.axis_2">
    <g id="ytick_1">
     <g id="line2d_7">
      <defs>
       <path id="mc2e8b06e9e" d="M 0 0 
L -3.5 0 
" style="stroke: #000000; stroke-width: 0.8"/>
      </defs>
      <g>
       <use xlink:href="#mc2e8b06e9e" x="57.6" y="290.317972" style="stroke: #000000; stroke-width: 0.8"/>
      </g>
     </g>
     <g id="text_8">
      <!-- 150 -->
      <g transform="translate(31.5125 294.11719)scale(0.1 -0.1)">
       <defs>
        <path id="DejaVuSans-35" d="M 691 4666 
L 3169 4666 
L 3169 4134 
L 1269 4134 
L 1269 2991 
Q 1406 3038 1543 3061 
Q 1681 3084 1819 3084 
Q 2600 3084 3056 2656 
Q 3513 2228 3513 1497 
Q 3513 744 3044 326 
Q 2575 -91 1722 -91 
Q 1428 -91 1123 -41 
Q 819 9 494 109 
L 494 744 
Q 775 591 1075 516 
Q 1375 441 1709 441 
Q 2250 441 2565 725 
Q 2881 1009 2881 1497 
Q 2881 1984 2565 2268 
Q 2250 2553 1709 2553 
Q 1456 2553 1204 2497 
Q 953 2441 691 2322 
L 691 4666 
z
" transform="scale(0.015625)"/>
       </defs>
       <use xlink:href="#DejaVuSans-31"/>
       <use xlink:href="#DejaVuSans-35" x="63.623047"/>
       <use xlink:href="#DejaVuSans-30" x="127.246094"/>
      </g>
     </g>
    </g>
    <g id="ytick_2">
     <g id="line2d_8">
      <g>
       <use xlink:href="#mc2e8b06e9e" x="57.6" y="256.817261" style="stroke: #000000; stroke-width: 0.8"/>
      </g>
     </g>
     <g id="text_9">
      <!-- 200 -->
      <g transform="translate(31.5125 260.61648)scale(0.1 -0.1)">
       <use xlink:href="#DejaVuSans-32"/>
       <use xlink:href="#DejaVuSans-30" x="63.623047"/>
       <use xlink:href="#DejaVuSans-30" x="127.246094"/>
      </g>
     </g>
    </g>
    <g id="ytick_3">
     <g id="line2d_9">
      <g>
       <use xlink:href="#mc2e8b06e9e" x="57.6" y="223.31655" style="stroke: #000000; stroke-width: 0.8"/>
      </g>
     </g>
     <g id="text_10">
      <!-- 250 -->
      <g transform="translate(31.5125 227.115769)scale(0.1 -0.1)">
       <use xlink:href="#DejaVuSans-32"/>
       <use xlink:href="#DejaVuSans-35" x="63.623047"/>
       <use xlink:href="#DejaVuSans-30" x="127.246094"/>
      </g>
     </g>
    </g>
    <g id="ytick_4">
     <g id="line2d_10">
      <g>
       <use xlink:href="#mc2e8b06e9e" x="57.6" y="189.81584" style="stroke: #000000; stroke-width: 0.8"/>
      </g>
     </g>
     <g id="text_11">
      <!-- 300 -->
      <g transform="translate(31.5125 193.615059)scale(0.1 -0.1)">
       <defs>
        <path id="DejaVuSans-33" d="M 2597 2516 
Q 3050 2419 3304 2112 
Q 3559 1806 3559 1356 
Q 3559 666 3084 287 
Q 2609 -91 1734 -91 
Q 1441 -91 1130 -33 
Q 819 25 488 141 
L 488 750 
Q 750 597 1062 519 
Q 1375 441 1716 441 
Q 2309 441 2620 675 
Q 2931 909 2931 1356 
Q 2931 1769 2642 2001 
Q 2353 2234 1838 2234 
L 1294 2234 
L 1294 2753 
L 1863 2753 
Q 2328 2753 2575 2939 
Q 2822 3125 2822 3475 
Q 2822 3834 2567 4026 
Q 2313 4219 1838 4219 
Q 1578 4219 1281 4162 
Q 984 4106 628 3988 
L 628 4550 
Q 988 4650 1302 4700 
Q 1616 4750 1894 4750 
Q 2613 4750 3031 4423 
Q 3450 4097 3450 3541 
Q 3450 3153 3228 2886 
Q 3006 2619 2597 2516 
z
" transform="scale(0.015625)"/>
       </defs>
       <use xlink:href="#DejaVuSans-33"/>
       <use xlink:href="#DejaVuSans-30" x="63.623047"/>
       <use xlink:href="#DejaVuSans-30" x="127.246094"/>
      </g>
     </g>
    </g>
    <g id="ytick_5">
     <g id="line2d_11">
      <g>
       <use xlink:href="#mc2e8b06e9e" x="57.6" y="156.315129" style="stroke: #000000; stroke-width: 0.8"/>
      </g>
     </g>
     <g id="text_12">
      <!-- 350 -->
      <g transform="translate(31.5125 160.114348)scale(0.1 -0.1)">
       <use xlink:href="#DejaVuSans-33"/>
       <use xlink:href="#DejaVuSans-35" x="63.623047"/>
       <use xlink:href="#DejaVuSans-30" x="127.246094"/>
      </g>
     </g>
    </g>
    <g id="ytick_6">
     <g id="line2d_12">
      <g>
       <use xlink:href="#mc2e8b06e9e" x="57.6" y="122.814419" style="stroke: #000000; stroke-width: 0.8"/>
      </g>
     </g>
     <g id="text_13">
      <!-- 400 -->
      <g transform="translate(31.5125 126.613637)scale(0.1 -0.1)">
       <use xlink:href="#DejaVuSans-34"/>
       <use xlink:href="#DejaVuSans-30" x="63.623047"/>
       <use xlink:href="#DejaVuSans-30" x="127.246094"/>
      </g>
     </g>
    </g>
    <g id="ytick_7">
     <g id="line2d_13">
      <g>
       <use xlink:href="#mc2e8b06e9e" x="57.6" y="89.313708" style="stroke: #000000; stroke-width: 0.8"/>
      </g>
     </g>
     <g id="text_14">
      <!-- 450 -->
      <g transform="translate(31.5125 93.112927)scale(0.1 -0.1)">
       <use xlink:href="#DejaVuSans-34"/>
       <use xlink:href="#DejaVuSans-35" x="63.623047"/>
       <use xlink:href="#DejaVuSans-30" x="127.246094"/>
      </g>
     </g>
    </g>
    <g id="ytick_8">
     <g id="line2d_14">
      <g>
       <use xlink:href="#mc2e8b06e9e" x="57.6" y="55.812997" style="stroke: #000000; stroke-width: 0.8"/>
      </g>
     </g>
     <g id="text_15">
      <!-- 500 -->
      <g transform="translate(31.5125 59.612216)scale(0.1 -0.1)">
       <use xlink:href="#DejaVuSans-35"/>
       <use xlink:href="#DejaVuSans-30" x="63.623047"/>
       <use xlink:href="#DejaVuSans-30" x="127.246094"/>
      </g>
     </g>
    </g>
    <g id="text_16">
     <!-- Waiting Time/s -->
     <g transform="translate(25.432812 211.410031)rotate(-90)scale(0.1 -0.1)">
      <defs>
       <path id="DejaVuSans-57" d="M 213 4666 
L 850 4666 
L 1831 722 
L 2809 4666 
L 3519 4666 
L 4500 722 
L 5478 4666 
L 6119 4666 
L 4947 0 
L 4153 0 
L 3169 4050 
L 2175 0 
L 1381 0 
L 213 4666 
z
" transform="scale(0.015625)"/>
       <path id="DejaVuSans-61" d="M 2194 1759 
Q 1497 1759 1228 1600 
Q 959 1441 959 1056 
Q 959 750 1161 570 
Q 1363 391 1709 391 
Q 2188 391 2477 730 
Q 2766 1069 2766 1631 
L 2766 1759 
L 2194 1759 
z
M 3341 1997 
L 3341 0 
L 2766 0 
L 2766 531 
Q 2569 213 2275 61 
Q 1981 -91 1556 -91 
Q 1019 -91 701 211 
Q 384 513 384 1019 
Q 384 1609 779 1909 
Q 1175 2209 1959 2209 
L 2766 2209 
L 2766 2266 
Q 2766 2663 2505 2880 
Q 2244 3097 1772 3097 
Q 1472 3097 1187 3025 
Q 903 2953 641 2809 
L 641 3341 
Q 956 3463 1253 3523 
Q 1550 3584 1831 3584 
Q 2591 3584 2966 3190 
Q 3341 2797 3341 1997 
z
" transform="scale(0.015625)"/>
       <path id="DejaVuSans-69" d="M 603 3500 
L 1178 3500 
L 1178 0 
L 603 0 
L 603 3500 
z
M 603 4863 
L 1178 4863 
L 1178 4134 
L 603 4134 
L 603 4863 
z
" transform="scale(0.015625)"/>
       <path id="DejaVuSans-74" d="M 1172 4494 
L 1172 3500 
L 2356 3500 
L 2356 3053 
L 1172 3053 
L 1172 1153 
Q 1172 725 1289 603 
Q 1406 481 1766 481 
L 2356 481 
L 2356 0 
L 1766 0 
Q 1100 0 847 248 
Q 594 497 594 1153 
L 594 3053 
L 172 3053 
L 172 3500 
L 594 3500 
L 594 4494 
L 1172 4494 
z
" transform="scale(0.015625)"/>
       <path id="DejaVuSans-6e" d="M 3513 2113 
L 3513 0 
L 2938 0 
L 2938 2094 
Q 2938 2591 2744 2837 
Q 2550 3084 2163 3084 
Q 1697 3084 1428 2787 
Q 1159 2491 1159 1978 
L 1159 0 
L 581 0 
L 581 3500 
L 1159 3500 
L 1159 2956 
Q 1366 3272 1645 3428 
Q 1925 3584 2291 3584 
Q 2894 3584 3203 3211 
Q 3513 2838 3513 2113 
z
" transform="scale(0.015625)"/>
       <path id="DejaVuSans-67" d="M 2906 1791 
Q 2906 2416 2648 2759 
Q 2391 3103 1925 3103 
Q 1463 3103 1205 2759 
Q 947 2416 947 1791 
Q 947 1169 1205 825 
Q 1463 481 1925 481 
Q 2391 481 2648 825 
Q 2906 1169 2906 1791 
z
M 3481 434 
Q 3481 -459 3084 -895 
Q 2688 -1331 1869 -1331 
Q 1566 -1331 1297 -1286 
Q 1028 -1241 775 -1147 
L 775 -588 
Q 1028 -725 1275 -790 
Q 1522 -856 1778 -856 
Q 2344 -856 2625 -561 
Q 2906 -266 2906 331 
L 2906 616 
Q 2728 306 2450 153 
Q 2172 0 1784 0 
Q 1141 0 747 490 
Q 353 981 353 1791 
Q 353 2603 747 3093 
Q 1141 3584 1784 3584 
Q 2172 3584 2450 3431 
Q 2728 3278 2906 2969 
L 2906 3500 
L 3481 3500 
L 3481 434 
z
" transform="scale(0.015625)"/>
       <path id="DejaVuSans-54" d="M -19 4666 
L 3928 4666 
L 3928 4134 
L 2272 4134 
L 2272 0 
L 1638 0 
L 1638 4134 
L -19 4134 
L -19 4666 
z
" transform="scale(0.015625)"/>
       <path id="DejaVuSans-2f" d="M 1625 4666 
L 2156 4666 
L 531 -594 
L 0 -594 
L 1625 4666 
z
" transform="scale(0.015625)"/>
      </defs>
      <use xlink:href="#DejaVuSans-57"/>
      <use xlink:href="#DejaVuSans-61" x="92.501953"/>
      <use xlink:href="#DejaVuSans-69" x="153.78125"/>
      <use xlink:href="#DejaVuSans-74" x="181.564453"/>
      <use xlink:href="#DejaVuSans-69" x="220.773438"/>
      <use xlink:href="#DejaVuSans-6e" x="248.556641"/>
      <use xlink:href="#DejaVuSans-67" x="311.935547"/>
      <use xlink:href="#DejaVuSans-20" x="375.412109"/>
      <use xlink:href="#DejaVuSans-54" x="407.199219"/>
      <use xlink:href="#DejaVuSans-69" x="465.158203"/>
      <use xlink:href="#DejaVuSans-6d" x="492.941406"/>
      <use xlink:href="#DejaVuSans-65" x="590.353516"/>
      <use xlink:href="#DejaVuSans-2f" x="651.876953"/>
      <use xlink:href="#DejaVuSans-73" x="685.568359"/>
     </g>
    </g>
   </g>
   <g id="line2d_15">
    <path d="M 73.832727 295.488 
L 74.157707 275.453348 
L 74.482686 276.167147 
L 75.132645 217.924237 
L 75.457625 205.933286 
L 76.107584 198.337008 
L 76.757543 181.708256 
L 77.082523 159.720355 
L 77.407502 163.094301 
L 77.732482 148.580534 
L 78.057461 155.634247 
L 79.0324 144.09727 
L 79.357379 144.338636 
L 80.007338 160.583863 
L 80.657297 148.402631 
L 80.982277 136.00225 
L 81.307256 130.027758 
L 81.632236 130.321112 
L 81.957215 135.679946 
L 82.282195 137.066651 
L 82.607174 135.440348 
L 82.932154 136.675661 
L 83.907093 121.241393 
L 84.232072 122.142368 
L 84.557052 121.974419 
L 84.882031 122.702461 
L 85.207011 126.13703 
L 85.53199 123.676094 
L 85.85697 124.389988 
L 86.181949 120.091116 
L 86.506929 120.39075 
L 86.831908 116.438419 
L 87.481867 102.65184 
L 87.806847 104.767056 
L 88.131826 105.259245 
L 88.456806 110.342887 
L 88.781785 110.022289 
L 89.106765 113.356036 
L 89.756724 106.19431 
L 90.081704 106.416783 
L 90.731663 101.358997 
L 91.056642 102.016098 
L 91.381622 99.548552 
L 91.706601 99.56565 
L 92.031581 99.868434 
L 92.68154 96.362579 
L 93.006519 92.442639 
L 93.331499 90.295188 
L 93.656478 90.944037 
L 93.981458 90.546155 
L 94.306437 92.530035 
L 94.631417 93.331765 
L 94.956396 95.599328 
L 95.281376 96.425846 
L 95.606355 96.302418 
L 96.256314 91.252471 
L 96.581294 89.984102 
L 97.231253 86.184361 
L 97.556233 87.517815 
L 97.881212 87.492063 
L 98.206192 87.591326 
L 98.531171 89.65087 
L 98.856151 90.319095 
L 99.18113 91.503872 
L 99.50611 91.68147 
L 99.831089 89.269214 
L 100.156069 88.174335 
L 100.481048 88.675348 
L 101.131007 91.868426 
L 101.455987 90.930318 
L 101.780966 87.207998 
L 102.105946 87.997633 
L 102.430925 86.84113 
L 102.755905 87.722549 
L 103.080885 86.586792 
L 103.405864 86.347669 
L 103.730844 83.609966 
L 104.055823 81.965116 
L 104.380803 82.590621 
L 104.705782 82.341529 
L 105.030762 82.256563 
L 105.355741 84.568129 
L 105.680721 83.282825 
L 106.0057 82.854338 
L 106.33068 82.752155 
L 106.980639 76.91054 
L 107.305618 78.001879 
L 107.630598 77.423763 
L 108.280557 78.327643 
L 108.930516 76.102267 
L 109.255495 76.507075 
L 109.580475 75.609624 
L 110.555414 79.297954 
L 110.880393 79.572394 
L 111.205373 78.865313 
L 111.530352 76.698329 
L 111.855332 76.590903 
L 112.180311 75.242958 
L 112.505291 75.500395 
L 112.83027 74.736414 
L 113.15525 73.390647 
L 113.480229 74.310056 
L 113.805209 73.903589 
L 114.130188 72.003296 
L 114.455168 72.39025 
L 114.780147 73.781189 
L 115.105127 74.141694 
L 115.430106 73.889697 
L 115.755086 72.947255 
L 116.080066 73.946029 
L 117.055004 69.850572 
L 117.379984 69.533225 
L 117.704963 70.291197 
L 118.029943 70.506511 
L 118.354922 72.175658 
L 118.679902 71.90062 
L 119.004881 71.34179 
L 119.329861 70.466588 
L 119.65484 69.934243 
L 119.97982 70.925566 
L 120.304799 68.90707 
L 120.629779 68.851402 
L 120.954758 68.613744 
L 121.279738 67.966983 
L 121.604717 67.68919 
L 121.929697 66.501347 
L 122.254676 66.749621 
L 122.579656 67.517212 
L 122.904636 67.414205 
L 123.229615 66.886712 
L 123.554595 65.373468 
L 124.204554 64.709132 
L 124.529533 64.584605 
L 124.854513 64.817963 
L 125.179492 65.359119 
L 125.504472 65.030423 
L 125.829451 65.220692 
L 126.154431 65.550498 
L 126.47941 64.512244 
L 126.80439 66.01212 
L 127.129369 66.32035 
L 127.454349 65.780931 
L 128.104308 66.867232 
L 128.429287 67.000456 
L 128.754267 67.001428 
L 129.079247 66.254627 
L 130.054185 67.891284 
L 130.379165 68.82327 
L 130.704144 70.124884 
L 131.029124 70.020597 
L 131.354103 70.826741 
L 131.679083 70.964502 
L 132.004062 70.888964 
L 132.654021 69.084633 
L 132.979001 68.065026 
L 133.30398 67.98035 
L 133.62896 68.611632 
L 133.953939 68.136875 
L 134.278919 68.178506 
L 134.603898 68.025014 
L 134.928878 68.632387 
L 135.253857 68.471661 
L 135.578837 68.637319 
L 135.903817 67.701599 
L 136.228796 68.142596 
L 136.553776 68.194395 
L 137.203735 70.623888 
L 137.528714 70.980877 
L 137.853694 70.574425 
L 138.178673 71.430185 
L 138.503653 71.478893 
L 138.828632 71.75967 
L 139.153612 70.605243 
L 139.478591 71.286217 
L 139.803571 70.756256 
L 140.12855 69.935042 
L 140.45353 68.789597 
L 140.778509 69.509274 
L 141.428468 70.168798 
L 142.078428 68.67107 
L 142.403407 68.293406 
L 142.728387 68.537745 
L 143.053366 68.959707 
L 143.378346 68.823983 
L 143.703325 69.376473 
L 144.028305 67.943436 
L 144.353284 67.780169 
L 145.003243 69.105019 
L 145.328223 68.969992 
L 145.653202 68.356575 
L 145.978182 68.160814 
L 146.303161 66.428576 
L 146.628141 66.033884 
L 147.603079 66.34887 
L 147.928059 66.920934 
L 148.253038 66.941519 
L 148.902998 64.737891 
L 149.227977 64.196231 
L 149.552957 64.402362 
L 149.877936 64.274825 
L 150.202916 64.663038 
L 150.527895 64.51266 
L 150.852875 64.181677 
L 151.177854 64.341519 
L 151.502834 64.238204 
L 151.827813 64.58576 
L 152.152793 64.555777 
L 152.802752 65.797942 
L 153.127731 64.713447 
L 153.452711 64.608724 
L 153.77769 64.967867 
L 154.10267 64.657239 
L 154.752629 65.476035 
L 155.402588 64.788389 
L 155.727568 64.167454 
L 156.052547 64.274279 
L 156.702506 63.782098 
L 157.027486 63.064722 
L 157.352465 63.276106 
L 157.677445 63.063084 
L 158.002424 63.12487 
L 158.327404 62.560835 
L 158.652383 63.221601 
L 158.977363 62.767261 
L 159.302342 62.682316 
L 159.627322 62.946664 
L 159.952301 63.686106 
L 160.277281 63.178708 
L 160.60226 62.339572 
L 160.92724 62.784289 
L 161.577199 62.492919 
L 162.227158 61.59422 
L 162.552138 61.55848 
L 162.877117 61.686872 
L 163.202097 61.367823 
L 163.527076 60.815468 
L 163.852056 61.720757 
L 164.177035 61.539388 
L 164.502015 62.288699 
L 164.826994 62.447203 
L 165.151974 62.886887 
L 165.476953 62.59899 
L 165.801933 62.776403 
L 166.126912 63.256851 
L 166.451892 62.74064 
L 166.776871 63.091178 
L 167.101851 62.83282 
L 167.42683 63.366524 
L 167.75181 63.540814 
L 168.07679 63.525006 
L 169.051728 62.042129 
L 169.701687 62.727753 
L 170.026667 61.912803 
L 170.676626 62.399427 
L 171.001605 62.076053 
L 171.326585 62.248596 
L 171.651564 61.636023 
L 171.976544 61.276213 
L 172.301523 61.643929 
L 172.626503 61.102763 
L 172.951482 60.899469 
L 173.276462 60.073385 
L 173.601441 59.980658 
L 173.926421 59.528344 
L 174.2514 60.41987 
L 174.57638 59.909947 
L 174.90136 59.848453 
L 175.226339 59.955972 
L 175.876298 60.681122 
L 176.201278 60.667351 
L 176.526257 60.20845 
L 176.851237 60.643915 
L 177.176216 60.653783 
L 177.501196 60.871113 
L 177.826175 60.296612 
L 178.151155 59.38283 
L 178.476134 59.709569 
L 178.801114 59.195001 
L 179.451073 58.834679 
L 180.426011 59.136194 
L 181.075971 57.562872 
L 181.40095 57.876379 
L 182.050909 57.731681 
L 183.025848 58.09288 
L 183.350827 58.677904 
L 183.675807 58.937154 
L 184.000786 59.011645 
L 184.325766 58.942262 
L 184.650745 58.622244 
L 184.975725 59.32524 
L 185.300704 59.34687 
L 185.950663 60.261351 
L 186.275643 60.095117 
L 186.600622 60.430688 
L 187.250581 60.266014 
L 187.575561 60.124093 
L 187.900541 60.265408 
L 188.22552 59.741173 
L 188.5505 60.308709 
L 188.875479 59.819419 
L 189.200459 59.88579 
L 189.525438 60.376223 
L 189.850418 60.42735 
L 190.175397 60.266233 
L 190.500377 59.913785 
L 190.825356 60.104733 
L 191.800295 59.309036 
L 192.125274 59.238612 
L 192.775233 58.642155 
L 193.100213 58.768988 
L 193.750172 59.810057 
L 194.075152 59.706595 
L 194.400131 59.962541 
L 194.725111 59.925707 
L 195.05009 59.523198 
L 195.37507 59.653473 
L 196.674988 58.713817 
L 197.324947 58.977709 
L 197.649926 59.44188 
L 197.974906 58.994568 
L 198.624865 58.71697 
L 198.949844 58.748139 
L 199.274824 59.018538 
L 199.599803 58.790438 
L 199.924783 59.011666 
L 200.249762 58.040002 
L 200.899722 57.937253 
L 201.549681 57.317102 
L 201.87466 57.780475 
L 202.19964 57.628941 
L 202.524619 57.731942 
L 203.174578 58.841092 
L 203.499558 57.653893 
L 203.824537 57.349855 
L 204.149517 57.328774 
L 204.474496 56.288733 
L 204.799476 56.513132 
L 205.124455 55.532432 
L 205.774414 54.926551 
L 206.099394 54.721276 
L 206.424373 54.784791 
L 206.749353 54.52704 
L 207.074333 53.568 
L 207.399312 53.755474 
L 207.724292 53.616166 
L 208.374251 54.417714 
L 208.69923 54.362638 
L 209.02421 54.836948 
L 209.349189 54.21984 
L 209.999148 53.936254 
L 210.324128 54.379405 
L 210.974087 54.103095 
L 211.299066 54.205865 
L 211.624046 54.507081 
L 212.274005 54.196238 
L 212.598984 54.524579 
L 212.923964 54.561378 
L 213.573923 53.75559 
L 214.223882 54.282697 
L 214.548862 54.862615 
L 214.873841 54.73067 
L 215.198821 54.827183 
L 215.5238 54.698797 
L 215.84878 54.361023 
L 216.498739 54.163613 
L 216.823718 54.581463 
L 217.473677 54.500064 
L 217.798657 54.915035 
L 218.123636 55.041422 
L 219.098575 54.410357 
L 219.423554 54.618891 
L 219.748534 54.593202 
L 220.073514 54.852399 
L 220.723473 55.075432 
L 221.048452 54.710282 
L 221.373432 55.086491 
L 222.023391 54.924966 
L 222.34837 54.931754 
L 222.67335 54.567494 
L 222.998329 54.830384 
L 223.323309 54.375753 
L 223.648288 54.614253 
L 223.973268 54.702126 
L 224.298247 55.137102 
L 224.948206 54.830619 
L 225.273186 54.916116 
L 225.923145 54.847414 
L 226.898084 54.130163 
L 227.223063 54.111597 
L 227.548043 54.442695 
L 227.873022 54.518874 
L 228.198002 54.33453 
L 228.847961 54.971785 
L 229.822899 54.914548 
L 230.147879 55.147043 
L 230.472858 54.720667 
L 230.797838 54.782573 
L 231.122817 55.089063 
L 231.447797 54.810171 
L 231.772776 55.223207 
L 232.097756 55.332408 
L 232.747715 54.727154 
L 233.072695 54.505011 
L 233.397674 54.64748 
L 233.722654 55.021263 
L 234.047633 55.061149 
L 234.372613 54.959818 
L 234.697592 54.675013 
L 235.022572 54.93643 
L 235.347551 54.912603 
L 235.672531 54.717654 
L 235.99751 55.22525 
L 236.32249 55.311269 
L 236.647469 55.720426 
L 236.972449 55.916026 
L 237.297428 56.27481 
L 237.947387 55.886706 
L 238.272367 56.274206 
L 238.597346 56.339112 
L 238.922326 56.147871 
L 239.247305 56.597088 
L 239.572285 56.164814 
L 239.897265 55.981678 
L 240.222244 55.973398 
L 240.547224 56.198492 
L 240.872203 55.838371 
L 241.197183 55.704186 
L 241.522162 55.153403 
L 241.847142 55.369006 
L 242.172121 55.283443 
L 242.497101 55.617353 
L 243.472039 55.500343 
L 243.797019 55.264057 
L 244.121998 55.372299 
L 244.446978 55.798664 
L 244.771957 55.853423 
L 245.096937 55.652443 
L 245.421916 55.756261 
L 245.746896 56.151935 
L 246.071876 56.29266 
L 247.046814 57.112769 
L 247.696773 56.740205 
L 248.021753 57.291719 
L 248.346732 57.12594 
L 248.671712 57.164768 
L 248.996691 57.366389 
L 249.321671 57.389953 
L 249.64665 56.958529 
L 249.97163 56.95716 
L 250.296609 56.756935 
L 250.621589 56.745308 
L 251.271548 57.339751 
L 251.921507 57.489295 
L 252.246486 58.016092 
L 252.571466 58.245015 
L 252.896446 58.635409 
L 253.221425 58.580854 
L 253.546405 58.712411 
L 254.846323 59.731348 
L 255.171302 59.715496 
L 255.496282 59.456221 
L 255.821261 59.657734 
L 257.121179 59.007321 
L 257.446159 59.046801 
L 257.771138 59.391782 
L 258.096118 59.337244 
L 258.421097 59.518792 
L 260.045995 59.190796 
L 260.695954 59.139074 
L 261.020934 58.940512 
L 261.345913 59.266442 
L 261.995872 58.618713 
L 262.320852 59.072171 
L 262.645831 59.293361 
L 262.970811 59.333772 
L 263.29579 59.608691 
L 263.945749 59.192028 
L 264.270729 59.112112 
L 264.920688 58.505692 
L 265.245667 58.780413 
L 265.570647 58.476296 
L 265.895627 58.608429 
L 266.220606 58.426299 
L 266.545586 58.026803 
L 266.870565 57.947946 
L 267.520524 57.495865 
L 267.845504 57.4749 
L 268.170483 57.220381 
L 268.495463 57.54399 
L 268.820442 57.552635 
L 269.145422 57.232572 
L 269.470401 57.202897 
L 269.795381 57.440285 
L 270.12036 57.371649 
L 270.44534 57.464301 
L 270.770319 57.726671 
L 271.095299 57.787688 
L 271.745258 57.141707 
L 272.720197 57.692048 
L 273.045176 57.396199 
L 273.370156 57.672108 
L 273.695135 57.363708 
L 274.020115 57.43038 
L 274.995053 57.107304 
L 275.320033 56.769545 
L 275.969992 56.820393 
L 276.294971 56.732588 
L 276.619951 57.002729 
L 276.94493 57.050539 
L 277.26991 57.421309 
L 277.594889 57.288819 
L 278.569828 57.360771 
L 278.894808 57.232574 
L 279.219787 57.470624 
L 279.544767 57.454842 
L 279.869746 57.14457 
L 280.194726 57.367277 
L 280.844685 57.542521 
L 281.169664 57.234503 
L 281.494644 57.163479 
L 281.819623 56.908257 
L 282.144603 56.980399 
L 282.794562 56.733631 
L 283.119541 56.796793 
L 283.444521 56.741006 
L 283.7695 56.393202 
L 284.09448 56.667272 
L 285.394398 56.685032 
L 286.044357 56.333458 
L 286.369337 56.53395 
L 287.019296 56.53516 
L 287.344275 56.875964 
L 287.994234 57.069554 
L 288.319214 56.85422 
L 288.644193 56.834561 
L 288.969173 56.70332 
L 289.294152 56.846348 
L 289.619132 56.321438 
L 289.944111 56.426837 
L 290.91905 56.250716 
L 291.569009 56.699759 
L 291.893989 56.49523 
L 292.868927 56.572554 
L 293.193907 56.249883 
L 293.518886 56.208575 
L 293.843866 56.406261 
L 294.493825 56.573224 
L 294.818804 56.72407 
L 295.143784 56.716646 
L 296.443702 56.189126 
L 296.768681 56.510285 
L 297.093661 56.4817 
L 297.41864 56.587315 
L 298.718559 56.208995 
L 299.043538 56.28116 
L 299.368518 56.237107 
L 299.693497 56.584263 
L 300.018477 56.682734 
L 300.343456 56.556323 
L 300.668436 56.691888 
L 300.993415 56.389765 
L 302.293333 57.561886 
L 302.943292 57.765269 
L 303.268272 57.641241 
L 303.593251 57.995644 
L 304.56819 57.510873 
L 305.218149 57.364931 
L 305.543129 57.678104 
L 305.868108 57.649149 
L 306.193088 57.892778 
L 307.168026 57.891676 
L 307.493006 58.327262 
L 307.817985 58.0499 
L 308.467944 58.488948 
L 309.117903 58.162541 
L 310.417821 57.762019 
L 312.042719 57.381421 
L 312.367699 57.68168 
L 312.692678 57.657115 
L 313.017658 57.896475 
L 313.342637 57.956646 
L 313.667617 58.14307 
L 313.992596 57.599985 
L 314.317576 57.664173 
L 314.967535 57.293534 
L 315.292514 57.374737 
L 316.267453 57.04972 
L 316.592432 56.821077 
L 317.242391 56.89321 
L 317.567371 57.135286 
L 317.892351 56.886898 
L 318.867289 57.146863 
L 319.192269 57.379313 
L 320.167207 57.564139 
L 320.492187 57.36898 
L 320.817166 57.512053 
L 321.467125 57.252069 
L 321.792105 57.134632 
L 322.117084 57.385696 
L 322.767043 57.594628 
L 323.092023 57.916125 
L 323.741982 57.902344 
L 324.066962 57.507045 
L 324.716921 57.38225 
L 325.691859 57.518035 
L 326.016839 57.772815 
L 326.341818 57.833265 
L 326.666798 57.749094 
L 327.316757 58.45488 
L 328.616675 58.470774 
L 329.266634 58.884211 
L 329.591613 58.953385 
L 329.916593 58.774551 
L 330.241572 58.797052 
L 330.891532 59.132258 
L 331.216511 59.034176 
L 331.541491 59.139239 
L 332.19145 58.687152 
L 332.516429 58.724128 
L 332.841409 58.956427 
L 334.791286 58.861431 
L 335.116265 59.023751 
L 335.766224 58.778068 
L 336.416183 59.0934 
L 337.391122 59.239767 
L 337.716102 58.935198 
L 338.366061 59.225976 
L 338.69104 59.504737 
L 339.01602 59.298892 
L 339.340999 59.289275 
L 339.665979 58.983003 
L 339.990958 59.240356 
L 340.640917 59.31698 
L 340.965897 59.240868 
L 341.940835 59.582394 
L 342.265815 59.46967 
L 342.590794 59.579082 
L 342.915774 59.220418 
L 343.565733 59.475238 
L 344.215692 59.426564 
L 344.540672 59.704027 
L 346.490549 60.511969 
L 347.140508 60.87823 
L 348.115446 61.14988 
L 348.440426 61.060316 
L 349.415364 61.849559 
L 350.390303 61.921042 
L 350.715283 62.026825 
L 351.040262 61.956081 
L 351.690221 62.467868 
L 352.990139 62.707565 
L 353.315119 63.005427 
L 353.640098 62.726484 
L 353.965078 62.286283 
L 354.290057 62.040264 
L 354.615037 62.035538 
L 354.940016 62.292093 
L 355.264996 62.180227 
L 355.589975 62.355469 
L 356.564914 62.285911 
L 356.889894 62.070766 
L 357.214873 62.338083 
L 357.864832 62.177266 
L 358.189812 61.907443 
L 359.16475 61.820601 
L 359.814709 61.948625 
L 360.139689 61.951364 
L 360.464668 61.669559 
L 360.789648 61.728226 
L 361.114627 61.488111 
L 361.439607 61.486838 
L 361.764586 61.310747 
L 362.089566 61.535968 
L 362.414545 61.47116 
L 362.739525 61.557973 
L 363.064505 61.336619 
L 363.389484 61.592477 
L 364.039443 61.58083 
L 364.689402 61.830752 
L 365.339361 61.588048 
L 365.664341 61.458395 
L 365.98932 61.726396 
L 366.3143 61.473694 
L 366.964259 62.024845 
L 367.289238 61.844548 
L 367.614218 61.871771 
L 368.264177 61.695715 
L 369.239115 61.376597 
L 370.539034 61.377694 
L 370.864013 61.515342 
L 371.513972 61.329292 
L 372.163931 61.332342 
L 372.488911 61.549905 
L 372.81389 61.567566 
L 373.13887 61.776325 
L 373.788829 61.821943 
L 374.113808 61.957564 
L 374.438788 61.827317 
L 375.088747 62.033801 
L 376.063686 61.583417 
L 377.038624 61.709265 
L 377.363604 61.507115 
L 377.688583 61.599442 
L 378.013563 61.843806 
L 378.338542 61.522372 
L 379.313481 61.648426 
L 379.96344 61.204188 
L 380.613399 61.015528 
L 380.938378 61.055007 
L 381.263358 60.975455 
L 383.213235 61.182527 
L 383.538215 60.984912 
L 383.863194 60.652094 
L 384.188174 60.62577 
L 384.513153 60.846778 
L 385.488092 60.579851 
L 385.813071 60.80831 
L 386.46303 60.509339 
L 387.112989 60.916909 
L 387.437969 60.787344 
L 387.762948 60.967821 
L 388.737887 60.556641 
L 389.062867 60.631035 
L 389.712826 60.445639 
L 390.362785 60.867844 
L 390.687764 60.81095 
L 391.337723 61.072345 
L 391.662703 60.814965 
L 392.312662 60.559057 
L 392.637641 60.730423 
L 392.962621 60.744762 
L 393.61258 60.582167 
L 393.937559 60.759652 
L 394.262539 60.770835 
L 394.587518 61.008989 
L 394.912498 61.073377 
L 395.237477 60.875241 
L 396.212416 60.782753 
L 396.537396 60.633968 
L 397.512334 60.57564 
L 397.837314 60.31063 
L 398.162293 60.208001 
L 398.487273 59.881324 
L 398.487273 59.881324 
" clip-path="url(#p8be6e994fd)" style="fill: none; stroke-dasharray: 2,3.3; stroke-dashoffset: 0; stroke: #0000ff; stroke-width: 2"/>
   </g>
   <g id="line2d_16">
    <path d="M 73.832727 295.488 
L 74.157707 275.453348 
L 74.482686 276.167147 
L 74.807666 243.940381 
L 75.132645 250.086415 
L 75.457625 227.381956 
L 75.782604 215.752895 
L 76.107584 210.132506 
L 76.757543 191.144655 
L 77.082523 168.298899 
L 77.407502 170.957967 
L 77.732482 155.839302 
L 78.057461 155.262175 
L 78.382441 151.078768 
L 78.70742 156.695122 
L 79.0324 151.843871 
L 79.357379 152.916182 
L 79.682359 141.298573 
L 80.007338 150.543329 
L 80.332318 154.499503 
L 80.982277 143.376964 
L 81.307256 137.095192 
L 81.632236 136.568309 
L 81.957215 141.885875 
L 82.282195 143.042731 
L 82.607174 139.186461 
L 82.932154 140.901047 
L 83.257133 139.889755 
L 83.907093 132.963519 
L 84.232072 135.227132 
L 84.557052 133.410916 
L 85.207011 134.288905 
L 85.53199 131.607648 
L 85.85697 132.112817 
L 86.181949 133.433347 
L 86.506929 133.268788 
L 86.831908 129.002358 
L 87.481867 114.631411 
L 87.806847 116.234403 
L 88.131826 115.539462 
L 88.456806 117.282546 
L 88.781785 117.487504 
L 89.106765 113.663696 
L 89.431744 118.264575 
L 89.756724 117.504906 
L 90.081704 120.495832 
L 90.731663 114.737298 
L 91.056642 112.768844 
L 91.381622 113.206546 
L 91.706601 113.049004 
L 92.031581 112.335206 
L 92.35656 112.412605 
L 92.68154 110.146075 
L 93.006519 105.99641 
L 93.331499 103.626766 
L 93.656478 104.777035 
L 93.981458 103.480998 
L 94.306437 103.903542 
L 94.631417 103.318526 
L 95.281376 106.516802 
L 95.606355 107.077474 
L 95.931335 109.370557 
L 96.256314 107.790771 
L 96.581294 105.583834 
L 96.906274 107.663373 
L 97.231253 106.204946 
L 97.556233 106.713908 
L 97.881212 106.51991 
L 98.206192 107.002644 
L 98.531171 107.704335 
L 98.856151 105.110982 
L 99.50611 108.537899 
L 100.156069 104.230611 
L 100.481048 103.821816 
L 100.806028 104.375569 
L 101.131007 103.877847 
L 101.780966 106.284769 
L 102.105946 106.76082 
L 102.430925 106.132556 
L 102.755905 105.063101 
L 103.080885 105.734593 
L 103.405864 105.519322 
L 103.730844 102.575473 
L 104.055823 103.257808 
L 104.380803 100.754129 
L 104.705782 100.276462 
L 105.030762 102.507086 
L 105.355741 100.37071 
L 105.680721 100.164078 
L 106.0057 97.909562 
L 106.33068 100.06073 
L 106.655659 99.679947 
L 106.980639 100.501461 
L 107.305618 99.124746 
L 107.955577 98.517627 
L 108.280557 98.818436 
L 108.930516 97.356945 
L 109.255495 96.976853 
L 109.580475 95.77873 
L 109.905455 95.780995 
L 110.230434 97.273414 
L 110.555414 97.53498 
L 110.880393 99.03089 
L 111.205373 99.500053 
L 111.530352 100.248857 
L 111.855332 99.44051 
L 112.180311 99.143875 
L 112.505291 99.617362 
L 112.83027 99.323186 
L 113.15525 98.479609 
L 113.480229 99.665095 
L 113.805209 99.777771 
L 114.130188 98.319367 
L 114.455168 98.44076 
L 114.780147 98.364957 
L 115.105127 99.618566 
L 115.755086 99.934601 
L 116.080066 101.552221 
L 116.405045 101.098295 
L 116.730025 99.972535 
L 117.055004 100.621813 
L 117.379984 100.387691 
L 117.704963 100.58525 
L 118.029943 98.921185 
L 118.354922 98.674263 
L 118.679902 100.128757 
L 119.004881 100.850431 
L 119.329861 99.797225 
L 119.65484 97.759498 
L 119.97982 96.758572 
L 120.304799 95.136428 
L 120.629779 94.924697 
L 120.954758 94.035829 
L 121.279738 93.941905 
L 121.604717 93.718211 
L 121.929697 92.90687 
L 122.254676 93.224917 
L 122.579656 93.817176 
L 122.904636 94.775499 
L 123.229615 94.495007 
L 123.879574 93.348991 
L 124.529533 92.651408 
L 124.854513 93.233441 
L 125.179492 91.140805 
L 125.504472 91.515781 
L 125.829451 91.110265 
L 126.154431 90.098848 
L 126.47941 90.123086 
L 126.80439 90.377602 
L 127.129369 91.724639 
L 127.779328 90.54285 
L 128.104308 90.791496 
L 128.429287 91.2576 
L 128.754267 91.357935 
L 129.404226 90.584871 
L 129.729206 90.634502 
L 130.054185 90.875678 
L 130.379165 91.268666 
L 130.704144 92.577141 
L 131.029124 93.359129 
L 131.354103 93.53831 
L 131.679083 93.025779 
L 132.004062 93.160967 
L 132.329042 93.825902 
L 132.654021 93.835024 
L 132.979001 94.749285 
L 133.30398 94.811044 
L 133.62896 93.612391 
L 133.953939 93.003222 
L 134.603898 94.58497 
L 134.928878 94.742988 
L 135.253857 94.64393 
L 135.578837 94.999854 
L 135.903817 94.729806 
L 136.228796 93.754993 
L 136.553776 94.211923 
L 137.528714 96.972753 
L 137.853694 96.435029 
L 138.178673 97.160836 
L 138.503653 97.080891 
L 138.828632 97.234295 
L 139.153612 95.953755 
L 139.478591 96.56091 
L 140.12855 94.371828 
L 140.45353 94.879279 
L 140.778509 93.965851 
L 141.428468 95.394285 
L 141.753448 95.092163 
L 142.078428 94.137502 
L 142.403407 94.189191 
L 142.728387 93.421441 
L 143.053366 94.057227 
L 143.378346 93.80477 
L 143.703325 94.241608 
L 144.028305 92.693985 
L 144.353284 92.392217 
L 144.678264 92.965964 
L 145.003243 92.472261 
L 145.328223 92.703481 
L 145.653202 92.281436 
L 145.978182 92.043691 
L 146.303161 92.975648 
L 146.95312 92.346089 
L 147.2781 90.530201 
L 148.253038 90.641459 
L 148.578018 89.355823 
L 148.902998 89.760266 
L 149.227977 89.227705 
L 149.877936 90.529884 
L 150.527895 90.000537 
L 150.852875 89.788987 
L 151.177854 90.383033 
L 151.502834 90.467641 
L 151.827813 90.381245 
L 152.152793 91.198079 
L 152.477772 90.696718 
L 152.802752 91.517332 
L 153.127731 90.692306 
L 153.452711 91.344828 
L 153.77769 91.736913 
L 154.752629 91.026925 
L 155.077609 91.465095 
L 155.727568 91.854375 
L 156.052547 91.544501 
L 156.702506 90.288114 
L 157.027486 90.355137 
L 157.677445 90.928708 
L 158.002424 90.610149 
L 158.327404 90.508727 
L 158.652383 90.010624 
L 159.302342 91.134268 
L 159.627322 90.957735 
L 159.952301 90.507733 
L 160.277281 90.482007 
L 160.60226 90.172446 
L 160.92724 90.905295 
L 161.252219 91.093145 
L 161.577199 91.042181 
L 161.902179 90.112947 
L 162.227158 90.449413 
L 162.877117 89.903099 
L 163.527076 89.785156 
L 163.852056 89.809338 
L 164.177035 90.714934 
L 164.502015 90.063686 
L 165.151974 91.32721 
L 165.476953 91.364113 
L 165.801933 91.547995 
L 166.126912 92.044706 
L 166.451892 92.117922 
L 166.776871 92.019927 
L 167.101851 91.708371 
L 167.42683 92.082057 
L 167.75181 91.47357 
L 168.07679 91.99279 
L 168.401769 92.237146 
L 168.726749 92.321967 
L 169.051728 92.020733 
L 169.376708 92.542121 
L 169.701687 91.923187 
L 170.026667 92.303338 
L 170.351646 92.3073 
L 170.676626 92.435191 
L 171.001605 92.011698 
L 171.326585 92.084787 
L 171.651564 91.585706 
L 172.301523 90.432797 
L 172.626503 90.703711 
L 172.951482 89.949171 
L 173.601441 89.29233 
L 173.926421 90.090417 
L 174.2514 90.078496 
L 174.57638 90.375572 
L 175.226339 89.472227 
L 175.551319 89.89992 
L 175.876298 89.324233 
L 176.201278 89.494461 
L 177.176216 90.333428 
L 177.501196 90.227166 
L 178.151155 89.687498 
L 178.476134 89.879924 
L 179.451073 88.147142 
L 179.776052 88.331484 
L 180.101032 88.101001 
L 181.075971 88.156162 
L 182.050909 89.058577 
L 182.375889 88.912455 
L 182.700868 89.123354 
L 183.025848 88.93995 
L 183.350827 88.946229 
L 183.675807 89.438514 
L 184.325766 89.675387 
L 184.650745 89.516547 
L 184.975725 90.069104 
L 185.300704 90.155174 
L 185.625684 90.762694 
L 185.950663 91.092098 
L 186.275643 90.595932 
L 186.600622 90.730941 
L 187.250581 90.492485 
L 187.575561 90.623632 
L 188.22552 90.022009 
L 188.5505 90.17458 
L 189.200459 91.091502 
L 190.500377 90.222105 
L 190.825356 90.128527 
L 191.150336 90.24956 
L 191.475315 90.215675 
L 191.800295 90.589275 
L 192.125274 90.691179 
L 192.450254 90.276635 
L 192.775233 90.122215 
L 193.425192 89.280377 
L 193.750172 89.421304 
L 194.400131 90.291979 
L 195.05009 90.42863 
L 195.37507 90.294799 
L 195.700049 89.825368 
L 196.025029 89.874575 
L 196.350008 89.653377 
L 196.674988 89.080979 
L 196.999967 88.844395 
L 197.974906 89.280924 
L 198.299885 89.663763 
L 198.624865 89.427877 
L 198.949844 89.390351 
L 199.274824 89.030199 
L 199.599803 89.221855 
L 199.924783 88.832063 
L 200.249762 87.893316 
L 200.574742 87.837868 
L 200.899722 87.52804 
L 201.224701 87.505972 
L 201.549681 87.35378 
L 201.87466 87.410394 
L 202.19964 86.554093 
L 202.524619 86.230154 
L 202.849599 86.617388 
L 203.174578 86.668657 
L 203.824537 87.714486 
L 204.474496 88.1168 
L 204.799476 87.739616 
L 205.124455 86.629622 
L 205.774414 85.870929 
L 206.424373 85.30788 
L 206.749353 84.360267 
L 207.074333 84.380829 
L 207.399312 84.107532 
L 207.724292 84.220607 
L 208.049271 83.910903 
L 209.02421 84.635521 
L 209.999148 84.720906 
L 210.649107 85.36001 
L 210.974087 85.142855 
L 211.299066 85.576966 
L 211.949025 85.666341 
L 212.923964 84.983909 
L 213.248943 85.059938 
L 213.573923 84.625595 
L 214.548862 85.364089 
L 214.873841 85.290819 
L 215.5238 86.383601 
L 215.84878 86.407406 
L 216.173759 85.998173 
L 217.148698 85.538508 
L 217.473677 85.683506 
L 217.798657 86.045966 
L 218.123636 85.953333 
L 218.773595 85.543071 
L 219.098575 85.600246 
L 219.423554 85.338703 
L 219.748534 85.539554 
L 220.073514 85.352904 
L 221.048452 85.730213 
L 221.373432 86.038246 
L 221.698411 86.09532 
L 222.023391 86.005117 
L 222.34837 86.122221 
L 222.67335 86.4994 
L 223.323309 85.728245 
L 223.973268 85.932843 
L 224.298247 85.852611 
L 224.623227 86.219661 
L 225.273186 85.706821 
L 225.598165 85.732299 
L 225.923145 85.468686 
L 226.573104 85.381357 
L 227.873022 85.318605 
L 228.198002 85.687812 
L 229.17294 86.177459 
L 229.822899 85.960554 
L 230.147879 85.79932 
L 231.122817 86.452481 
L 231.447797 86.96663 
L 231.772776 86.891259 
L 232.097756 86.404202 
L 232.422735 86.123373 
L 233.072695 86.483955 
L 233.397674 86.197717 
L 233.722654 86.327002 
L 234.047633 86.067012 
L 234.372613 86.37581 
L 234.697592 86.21155 
L 235.022572 86.434868 
L 235.347551 86.944582 
L 235.672531 87.142307 
L 235.99751 87.054164 
L 236.32249 86.795838 
L 236.647469 87.232172 
L 236.972449 87.113761 
L 237.297428 87.246685 
L 237.622408 87.542718 
L 237.947387 87.280411 
L 238.272367 87.353166 
L 238.597346 87.689218 
L 239.247305 87.113094 
L 239.897265 86.565569 
L 240.547224 87.219051 
L 240.872203 87.17973 
L 241.197183 86.937907 
L 241.522162 86.932008 
L 241.847142 87.132157 
L 242.172121 86.938451 
L 242.497101 87.0921 
L 242.82208 87.116211 
L 243.472039 86.806253 
L 243.797019 87.240617 
L 244.771957 87.535535 
L 245.096937 87.274551 
L 245.421916 87.318592 
L 246.071876 87.902909 
L 246.721835 88.135823 
L 247.046814 87.984314 
L 247.371794 88.242849 
L 247.696773 88.013918 
L 248.021753 88.507194 
L 248.346732 88.660321 
L 248.671712 88.524945 
L 248.996691 88.668492 
L 249.321671 88.516538 
L 249.64665 88.103038 
L 250.621589 87.94238 
L 250.946568 88.136652 
L 251.271548 88.128177 
L 251.921507 88.597752 
L 252.571466 88.577041 
L 253.221425 89.270161 
L 253.546405 89.346322 
L 254.521343 90.482464 
L 254.846323 90.27183 
L 256.146241 90.188617 
L 256.47122 90.334827 
L 256.7962 90.184301 
L 257.121179 90.180276 
L 257.446159 90.470861 
L 257.771138 90.361413 
L 258.421097 90.599303 
L 259.071057 90.410334 
L 259.396036 90.387283 
L 259.721016 90.185513 
L 260.045995 90.27742 
L 260.370975 90.093652 
L 260.695954 90.148072 
L 261.020934 89.88336 
L 261.345913 89.78261 
L 261.670893 90.054709 
L 261.995872 90.154822 
L 262.320852 89.793062 
L 262.645831 89.6549 
L 262.970811 89.823253 
L 263.29579 89.582171 
L 263.945749 90.164663 
L 264.920688 89.520303 
L 265.245667 89.723616 
L 265.895627 89.459806 
L 266.220606 89.680939 
L 266.545586 89.639088 
L 267.195545 88.891328 
L 268.170483 88.563283 
L 268.495463 88.893628 
L 268.820442 88.979559 
L 269.145422 89.249832 
L 269.795381 88.72349 
L 270.770319 88.38138 
L 271.095299 88.422724 
L 271.420278 88.633397 
L 271.745258 88.659832 
L 272.720197 88.205232 
L 274.020115 88.925076 
L 274.670074 88.716409 
L 274.995053 88.49294 
L 275.645012 88.493598 
L 275.969992 88.594138 
L 276.294971 88.835744 
L 277.26991 88.718974 
L 278.244848 89.508324 
L 278.569828 89.465331 
L 278.894808 89.286336 
L 279.544767 89.534344 
L 279.869746 89.475194 
L 280.194726 89.570055 
L 280.519705 89.210341 
L 280.844685 89.366222 
L 281.169664 89.105426 
L 281.819623 89.467054 
L 282.469582 89.484739 
L 283.119541 88.980853 
L 283.444521 89.313566 
L 283.7695 89.209781 
L 284.09448 88.865302 
L 285.069419 89.019317 
L 285.394398 88.962495 
L 286.044357 89.131655 
L 286.369337 88.896981 
L 286.694316 89.014284 
L 287.019296 88.949957 
L 287.344275 89.241498 
L 287.994234 89.38336 
L 288.319214 89.11914 
L 288.644193 89.085157 
L 288.969173 88.933615 
L 289.294152 88.467564 
L 289.944111 88.745945 
L 290.59407 88.674224 
L 290.91905 88.751001 
L 291.244029 88.582746 
L 291.569009 88.887672 
L 291.893989 88.757866 
L 292.868927 89.050851 
L 293.193907 88.799677 
L 293.518886 89.029721 
L 294.168845 89.024447 
L 294.493825 88.776249 
L 295.143784 88.593285 
L 295.468763 88.396657 
L 296.118722 88.34865 
L 296.443702 88.623398 
L 296.768681 88.668429 
L 297.41864 88.439203 
L 298.718559 88.963579 
L 300.018477 88.383061 
L 300.343456 88.448365 
L 300.668436 88.750351 
L 300.993415 88.510747 
L 302.293333 89.20461 
L 302.618313 89.257732 
L 302.943292 89.088922 
L 303.593251 89.591934 
L 305.218149 89.101117 
L 305.543129 89.203981 
L 306.193088 89.706231 
L 307.168026 89.527435 
L 307.493006 89.641477 
L 307.817985 89.943336 
L 308.467944 89.566457 
L 308.792924 89.891657 
L 309.117903 89.876234 
L 309.767862 89.508989 
L 310.092842 89.473491 
L 310.417821 89.281041 
L 311.067781 89.234755 
L 311.39276 89.532905 
L 312.042719 89.19187 
L 312.367699 88.683998 
L 312.692678 88.786176 
L 313.017658 88.770236 
L 313.342637 89.014412 
L 313.992596 88.962532 
L 314.317576 89.085643 
L 314.642555 88.863484 
L 315.292514 89.004557 
L 315.617494 89.058413 
L 316.592432 88.48809 
L 316.917412 88.541739 
L 317.567371 88.979312 
L 317.892351 88.910037 
L 318.54231 88.983355 
L 318.867289 88.868774 
L 319.192269 88.972345 
L 319.517248 88.648462 
L 319.842228 88.838739 
L 320.817166 88.83818 
L 321.142146 88.602491 
L 321.467125 88.704253 
L 322.117084 88.32801 
L 322.442064 88.579209 
L 323.092023 88.709321 
L 323.741982 88.911232 
L 324.066962 89.031752 
L 324.391941 89.306852 
L 324.716921 89.335636 
L 325.36688 89.628403 
L 325.691859 89.528287 
L 326.016839 89.801719 
L 326.341818 89.821868 
L 326.666798 89.730147 
L 326.991777 89.94079 
L 327.316757 89.9919 
L 327.641736 89.899533 
L 327.966716 90.159595 
L 328.941654 90.09597 
L 330.241572 90.75525 
L 330.566552 90.867532 
L 330.891532 90.769965 
L 331.541491 91.128912 
L 331.86647 90.974632 
L 332.19145 91.200368 
L 332.516429 90.928356 
L 332.841409 90.889741 
L 333.166388 91.081492 
L 333.816347 90.871433 
L 334.141327 91.018885 
L 334.466306 90.857175 
L 334.791286 90.916114 
L 335.116265 90.794699 
L 335.766224 91.087756 
L 336.416183 90.763412 
L 337.066143 90.856703 
L 337.391122 90.729398 
L 337.716102 90.923392 
L 338.366061 91.017402 
L 338.69104 91.131709 
L 339.01602 90.776331 
L 339.340999 90.909461 
L 339.665979 90.644526 
L 340.640917 91.11128 
L 340.965897 91.013732 
L 341.290876 91.170317 
L 341.615856 91.200423 
L 341.940835 91.074274 
L 342.265815 91.237366 
L 342.590794 90.894668 
L 342.915774 90.84982 
L 344.215692 91.518168 
L 344.865651 91.376458 
L 345.190631 91.624375 
L 345.84059 91.720376 
L 346.490549 91.936208 
L 346.815528 92.21016 
L 347.140508 92.17171 
L 347.790467 92.346346 
L 348.440426 92.357057 
L 348.765405 92.670888 
L 349.415364 92.706125 
L 350.390303 93.214327 
L 351.040262 93.082928 
L 351.365242 92.838526 
L 352.34018 93.437812 
L 353.315119 93.47615 
L 353.965078 94.009114 
L 354.290057 93.694932 
L 354.615037 93.576806 
L 354.940016 93.294742 
L 356.239934 93.34994 
L 356.564914 93.245187 
L 356.889894 93.482033 
L 357.214873 93.215917 
L 357.539853 93.344059 
L 358.189812 93.202314 
L 358.514791 92.95633 
L 358.839771 93.070581 
L 359.16475 93.064463 
L 359.48973 93.282846 
L 359.814709 93.356289 
L 360.464668 93.181517 
L 360.789648 93.172904 
L 361.439607 92.670238 
L 361.764586 92.693756 
L 362.089566 92.522556 
L 362.414545 92.712415 
L 363.064505 92.540147 
L 363.389484 92.547913 
L 364.039443 92.902086 
L 365.339361 92.823435 
L 365.664341 92.612411 
L 365.98932 92.845796 
L 366.639279 92.692992 
L 366.964259 92.77378 
L 367.614218 93.254541 
L 367.939197 93.220865 
L 368.264177 93.057406 
L 368.589156 92.679991 
L 369.564095 92.417598 
L 370.214054 92.268104 
L 370.539034 92.372106 
L 370.864013 92.270591 
L 371.188993 92.348354 
L 372.163931 92.178503 
L 372.81389 92.644836 
L 373.788829 92.607591 
L 374.113808 92.693707 
L 374.438788 92.530268 
L 374.763767 92.635049 
L 375.413726 92.404135 
L 376.388665 92.573704 
L 377.038624 92.24149 
L 377.688583 92.231947 
L 378.013563 92.291384 
L 378.338542 92.502767 
L 378.663522 92.149024 
L 379.313481 92.248468 
L 379.63846 92.125093 
L 380.288419 91.616755 
L 380.613399 91.658662 
L 380.938378 91.565877 
L 381.588337 91.648878 
L 382.238296 91.466509 
L 382.563276 91.575367 
L 382.888256 91.352673 
L 383.213235 91.436228 
L 383.863194 91.195238 
L 384.513153 91.465586 
L 385.813071 90.909266 
L 386.78801 91.565094 
L 387.437969 91.311073 
L 387.762948 91.519794 
L 389.062867 91.31061 
L 389.712826 91.075696 
L 390.687764 91.599661 
L 391.012744 91.482291 
L 391.337723 91.556864 
L 391.662703 91.468796 
L 391.987682 91.581297 
L 392.312662 91.29181 
L 392.637641 91.249186 
L 393.2876 91.475425 
L 393.61258 91.265594 
L 393.937559 91.41196 
L 394.262539 91.250599 
L 394.587518 91.457902 
L 394.912498 91.491503 
L 396.212416 91.017561 
L 397.837314 90.728529 
L 398.487273 90.340882 
L 398.487273 90.340882 
" clip-path="url(#p8be6e994fd)" style="fill: none; stroke-dasharray: 2,3.3; stroke-dashoffset: 0; stroke: #ffa500; stroke-width: 2"/>
   </g>
   <g id="patch_3">
    <path d="M 57.6 307.584 
L 57.6 41.472 
" style="fill: none; stroke: #000000; stroke-width: 0.8; stroke-linejoin: miter; stroke-linecap: square"/>
   </g>
   <g id="patch_4">
    <path d="M 414.72 307.584 
L 414.72 41.472 
" style="fill: none; stroke: #000000; stroke-width: 0.8; stroke-linejoin: miter; stroke-linecap: square"/>
   </g>
   <g id="patch_5">
    <path d="M 57.6 307.584 
L 414.72 307.584 
" style="fill: none; stroke: #000000; stroke-width: 0.8; stroke-linejoin: miter; stroke-linecap: square"/>
   </g>
   <g id="patch_6">
    <path d="M 57.6 41.472 
L 414.72 41.472 
" style="fill: none; stroke: #000000; stroke-width: 0.8; stroke-linejoin: miter; stroke-linecap: square"/>
   </g>
   <g id="text_17">
    <!-- Waiting Time Plot -->
    <g transform="translate(183.833438 8.2635)scale(0.12 -0.12)">
     <defs>
      <path id="DejaVuSans-50" d="M 1259 4147 
L 1259 2394 
L 2053 2394 
Q 2494 2394 2734 2622 
Q 2975 2850 2975 3272 
Q 2975 3691 2734 3919 
Q 2494 4147 2053 4147 
L 1259 4147 
z
M 628 4666 
L 2053 4666 
Q 2838 4666 3239 4311 
Q 3641 3956 3641 3272 
Q 3641 2581 3239 2228 
Q 2838 1875 2053 1875 
L 1259 1875 
L 1259 0 
L 628 0 
L 628 4666 
z
" transform="scale(0.015625)"/>
      <path id="DejaVuSans-6c" d="M 603 4863 
L 1178 4863 
L 1178 0 
L 603 0 
L 603 4863 
z
" transform="scale(0.015625)"/>
     </defs>
     <use xlink:href="#DejaVuSans-57"/>
     <use xlink:href="#DejaVuSans-61" x="92.501953"/>
     <use xlink:href="#DejaVuSans-69" x="153.78125"/>
     <use xlink:href="#DejaVuSans-74" x="181.564453"/>
     <use xlink:href="#DejaVuSans-69" x="220.773438"/>
     <use xlink:href="#DejaVuSans-6e" x="248.556641"/>
     <use xlink:href="#DejaVuSans-67" x="311.935547"/>
     <use xlink:href="#DejaVuSans-20" x="375.412109"/>
     <use xlink:href="#DejaVuSans-54" x="407.199219"/>
     <use xlink:href="#DejaVuSans-69" x="465.158203"/>
     <use xlink:href="#DejaVuSans-6d" x="492.941406"/>
     <use xlink:href="#DejaVuSans-65" x="590.353516"/>
     <use xlink:href="#DejaVuSans-20" x="651.876953"/>
     <use xlink:href="#DejaVuSans-50" x="683.664062"/>
     <use xlink:href="#DejaVuSans-6c" x="743.966797"/>
     <use xlink:href="#DejaVuSans-6f" x="771.75"/>
     <use xlink:href="#DejaVuSans-74" x="832.931641"/>
    </g>
    <!--  avg_d = 493.92799917151535  -->
    <g transform="translate(138.854062 21.700875)scale(0.12 -0.12)">
     <defs>
      <path id="DejaVuSans-76" d="M 191 3500 
L 800 3500 
L 1894 563 
L 2988 3500 
L 3597 3500 
L 2284 0 
L 1503 0 
L 191 3500 
z
" transform="scale(0.015625)"/>
      <path id="DejaVuSans-5f" d="M 3263 -1063 
L 3263 -1509 
L -63 -1509 
L -63 -1063 
L 3263 -1063 
z
" transform="scale(0.015625)"/>
      <path id="DejaVuSans-3d" d="M 678 2906 
L 4684 2906 
L 4684 2381 
L 678 2381 
L 678 2906 
z
M 678 1631 
L 4684 1631 
L 4684 1100 
L 678 1100 
L 678 1631 
z
" transform="scale(0.015625)"/>
      <path id="DejaVuSans-39" d="M 703 97 
L 703 672 
Q 941 559 1184 500 
Q 1428 441 1663 441 
Q 2288 441 2617 861 
Q 2947 1281 2994 2138 
Q 2813 1869 2534 1725 
Q 2256 1581 1919 1581 
Q 1219 1581 811 2004 
Q 403 2428 403 3163 
Q 403 3881 828 4315 
Q 1253 4750 1959 4750 
Q 2769 4750 3195 4129 
Q 3622 3509 3622 2328 
Q 3622 1225 3098 567 
Q 2575 -91 1691 -91 
Q 1453 -91 1209 -44 
Q 966 3 703 97 
z
M 1959 2075 
Q 2384 2075 2632 2365 
Q 2881 2656 2881 3163 
Q 2881 3666 2632 3958 
Q 2384 4250 1959 4250 
Q 1534 4250 1286 3958 
Q 1038 3666 1038 3163 
Q 1038 2656 1286 2365 
Q 1534 2075 1959 2075 
z
" transform="scale(0.015625)"/>
      <path id="DejaVuSans-2e" d="M 684 794 
L 1344 794 
L 1344 0 
L 684 0 
L 684 794 
z
" transform="scale(0.015625)"/>
      <path id="DejaVuSans-37" d="M 525 4666 
L 3525 4666 
L 3525 4397 
L 1831 0 
L 1172 0 
L 2766 4134 
L 525 4134 
L 525 4666 
z
" transform="scale(0.015625)"/>
     </defs>
     <use xlink:href="#DejaVuSans-20"/>
     <use xlink:href="#DejaVuSans-61" x="31.787109"/>
     <use xlink:href="#DejaVuSans-76" x="93.066406"/>
     <use xlink:href="#DejaVuSans-67" x="152.246094"/>
     <use xlink:href="#DejaVuSans-5f" x="215.722656"/>
     <use xlink:href="#DejaVuSans-64" x="265.722656"/>
     <use xlink:href="#DejaVuSans-20" x="329.199219"/>
     <use xlink:href="#DejaVuSans-3d" x="360.986328"/>
     <use xlink:href="#DejaVuSans-20" x="444.775391"/>
     <use xlink:href="#DejaVuSans-34" x="476.5625"/>
     <use xlink:href="#DejaVuSans-39" x="540.185547"/>
     <use xlink:href="#DejaVuSans-33" x="603.808594"/>
     <use xlink:href="#DejaVuSans-2e" x="667.431641"/>
     <use xlink:href="#DejaVuSans-39" x="699.21875"/>
     <use xlink:href="#DejaVuSans-32" x="762.841797"/>
     <use xlink:href="#DejaVuSans-37" x="826.464844"/>
     <use xlink:href="#DejaVuSans-39" x="890.087891"/>
     <use xlink:href="#DejaVuSans-39" x="953.710938"/>
     <use xlink:href="#DejaVuSans-39" x="1017.333984"/>
     <use xlink:href="#DejaVuSans-31" x="1080.957031"/>
     <use xlink:href="#DejaVuSans-37" x="1144.580078"/>
     <use xlink:href="#DejaVuSans-31" x="1208.203125"/>
     <use xlink:href="#DejaVuSans-35" x="1271.826172"/>
     <use xlink:href="#DejaVuSans-31" x="1335.449219"/>
     <use xlink:href="#DejaVuSans-35" x="1399.072266"/>
     <use xlink:href="#DejaVuSans-33" x="1462.695312"/>
     <use xlink:href="#DejaVuSans-35" x="1526.318359"/>
     <use xlink:href="#DejaVuSans-20" x="1589.941406"/>
    </g>
    <!--  avg_a = 448.4669364215786diff = 45.46106274993673 -->
    <g transform="translate(63.181875 35.472)scale(0.12 -0.12)">
     <use xlink:href="#DejaVuSans-20"/>
     <use xlink:href="#DejaVuSans-61" x="31.787109"/>
     <use xlink:href="#DejaVuSans-76" x="93.066406"/>
     <use xlink:href="#DejaVuSans-67" x="152.246094"/>
     <use xlink:href="#DejaVuSans-5f" x="215.722656"/>
     <use xlink:href="#DejaVuSans-61" x="265.722656"/>
     <use xlink:href="#DejaVuSans-20" x="327.001953"/>
     <use xlink:href="#DejaVuSans-3d" x="358.789062"/>
     <use xlink:href="#DejaVuSans-20" x="442.578125"/>
     <use xlink:href="#DejaVuSans-34" x="474.365234"/>
     <use xlink:href="#DejaVuSans-34" x="537.988281"/>
     <use xlink:href="#DejaVuSans-38" x="601.611328"/>
     <use xlink:href="#DejaVuSans-2e" x="665.234375"/>
     <use xlink:href="#DejaVuSans-34" x="697.021484"/>
     <use xlink:href="#DejaVuSans-36" x="760.644531"/>
     <use xlink:href="#DejaVuSans-36" x="824.267578"/>
     <use xlink:href="#DejaVuSans-39" x="887.890625"/>
     <use xlink:href="#DejaVuSans-33" x="951.513672"/>
     <use xlink:href="#DejaVuSans-36" x="1015.136719"/>
     <use xlink:href="#DejaVuSans-34" x="1078.759766"/>
     <use xlink:href="#DejaVuSans-32" x="1142.382812"/>
     <use xlink:href="#DejaVuSans-31" x="1206.005859"/>
     <use xlink:href="#DejaVuSans-35" x="1269.628906"/>
     <use xlink:href="#DejaVuSans-37" x="1333.251953"/>
     <use xlink:href="#DejaVuSans-38" x="1396.875"/>
     <use xlink:href="#DejaVuSans-36" x="1460.498047"/>
     <use xlink:href="#DejaVuSans-64" x="1524.121094"/>
     <use xlink:href="#DejaVuSans-69" x="1587.597656"/>
     <use xlink:href="#DejaVuSans-66" x="1615.380859"/>
     <use xlink:href="#DejaVuSans-66" x="1650.585938"/>
     <use xlink:href="#DejaVuSans-20" x="1685.791016"/>
     <use xlink:href="#DejaVuSans-3d" x="1717.578125"/>
     <use xlink:href="#DejaVuSans-20" x="1801.367188"/>
     <use xlink:href="#DejaVuSans-34" x="1833.154297"/>
     <use xlink:href="#DejaVuSans-35" x="1896.777344"/>
     <use xlink:href="#DejaVuSans-2e" x="1960.400391"/>
     <use xlink:href="#DejaVuSans-34" x="1992.1875"/>
     <use xlink:href="#DejaVuSans-36" x="2055.810547"/>
     <use xlink:href="#DejaVuSans-31" x="2119.433594"/>
     <use xlink:href="#DejaVuSans-30" x="2183.056641"/>
     <use xlink:href="#DejaVuSans-36" x="2246.679688"/>
     <use xlink:href="#DejaVuSans-32" x="2310.302734"/>
     <use xlink:href="#DejaVuSans-37" x="2373.925781"/>
     <use xlink:href="#DejaVuSans-34" x="2437.548828"/>
     <use xlink:href="#DejaVuSans-39" x="2501.171875"/>
     <use xlink:href="#DejaVuSans-39" x="2564.794922"/>
     <use xlink:href="#DejaVuSans-33" x="2628.417969"/>
     <use xlink:href="#DejaVuSans-36" x="2692.041016"/>
     <use xlink:href="#DejaVuSans-37" x="2755.664062"/>
     <use xlink:href="#DejaVuSans-33" x="2819.287109"/>
    </g>
   </g>
   <g id="legend_1">
    <g id="patch_7">
     <path d="M 263.88875 302.584 
L 407.72 302.584 
Q 409.72 302.584 409.72 300.584 
L 409.72 272.22775 
Q 409.72 270.22775 407.72 270.22775 
L 263.88875 270.22775 
Q 261.88875 270.22775 261.88875 272.22775 
L 261.88875 300.584 
Q 261.88875 302.584 263.88875 302.584 
z
" style="fill: #ffffff; opacity: 0.8; stroke: #cccccc; stroke-linejoin: miter"/>
    </g>
    <g id="line2d_17">
     <path d="M 265.88875 278.326187 
L 275.88875 278.326187 
L 285.88875 278.326187 
" style="fill: none; stroke-dasharray: 2,3.3; stroke-dashoffset: 0; stroke: #0000ff; stroke-width: 2"/>
    </g>
    <g id="text_18">
     <!-- Average (Default) -->
     <g transform="translate(293.88875 281.826187)scale(0.1 -0.1)">
      <defs>
       <path id="DejaVuSans-41" d="M 2188 4044 
L 1331 1722 
L 3047 1722 
L 2188 4044 
z
M 1831 4666 
L 2547 4666 
L 4325 0 
L 3669 0 
L 3244 1197 
L 1141 1197 
L 716 0 
L 50 0 
L 1831 4666 
z
" transform="scale(0.015625)"/>
       <path id="DejaVuSans-28" d="M 1984 4856 
Q 1566 4138 1362 3434 
Q 1159 2731 1159 2009 
Q 1159 1288 1364 580 
Q 1569 -128 1984 -844 
L 1484 -844 
Q 1016 -109 783 600 
Q 550 1309 550 2009 
Q 550 2706 781 3412 
Q 1013 4119 1484 4856 
L 1984 4856 
z
" transform="scale(0.015625)"/>
       <path id="DejaVuSans-44" d="M 1259 4147 
L 1259 519 
L 2022 519 
Q 2988 519 3436 956 
Q 3884 1394 3884 2338 
Q 3884 3275 3436 3711 
Q 2988 4147 2022 4147 
L 1259 4147 
z
M 628 4666 
L 1925 4666 
Q 3281 4666 3915 4102 
Q 4550 3538 4550 2338 
Q 4550 1131 3912 565 
Q 3275 0 1925 0 
L 628 0 
L 628 4666 
z
" transform="scale(0.015625)"/>
       <path id="DejaVuSans-29" d="M 513 4856 
L 1013 4856 
Q 1481 4119 1714 3412 
Q 1947 2706 1947 2009 
Q 1947 1309 1714 600 
Q 1481 -109 1013 -844 
L 513 -844 
Q 928 -128 1133 580 
Q 1338 1288 1338 2009 
Q 1338 2731 1133 3434 
Q 928 4138 513 4856 
z
" transform="scale(0.015625)"/>
      </defs>
      <use xlink:href="#DejaVuSans-41"/>
      <use xlink:href="#DejaVuSans-76" x="62.533203"/>
      <use xlink:href="#DejaVuSans-65" x="121.712891"/>
      <use xlink:href="#DejaVuSans-72" x="183.236328"/>
      <use xlink:href="#DejaVuSans-61" x="224.349609"/>
      <use xlink:href="#DejaVuSans-67" x="285.628906"/>
      <use xlink:href="#DejaVuSans-65" x="349.105469"/>
      <use xlink:href="#DejaVuSans-20" x="410.628906"/>
      <use xlink:href="#DejaVuSans-28" x="442.416016"/>
      <use xlink:href="#DejaVuSans-44" x="481.429688"/>
      <use xlink:href="#DejaVuSans-65" x="558.431641"/>
      <use xlink:href="#DejaVuSans-66" x="619.955078"/>
      <use xlink:href="#DejaVuSans-61" x="655.160156"/>
      <use xlink:href="#DejaVuSans-75" x="716.439453"/>
      <use xlink:href="#DejaVuSans-6c" x="779.818359"/>
      <use xlink:href="#DejaVuSans-74" x="807.601562"/>
      <use xlink:href="#DejaVuSans-29" x="846.810547"/>
     </g>
    </g>
    <g id="line2d_18">
     <path d="M 265.88875 293.004312 
L 275.88875 293.004312 
L 285.88875 293.004312 
" style="fill: none; stroke-dasharray: 2,3.3; stroke-dashoffset: 0; stroke: #ffa500; stroke-width: 2"/>
    </g>
    <g id="text_19">
     <!-- Average (Anticipation) -->
     <g transform="translate(293.88875 296.504312)scale(0.1 -0.1)">
      <defs>
       <path id="DejaVuSans-63" d="M 3122 3366 
L 3122 2828 
Q 2878 2963 2633 3030 
Q 2388 3097 2138 3097 
Q 1578 3097 1268 2742 
Q 959 2388 959 1747 
Q 959 1106 1268 751 
Q 1578 397 2138 397 
Q 2388 397 2633 464 
Q 2878 531 3122 666 
L 3122 134 
Q 2881 22 2623 -34 
Q 2366 -91 2075 -91 
Q 1284 -91 818 406 
Q 353 903 353 1747 
Q 353 2603 823 3093 
Q 1294 3584 2113 3584 
Q 2378 3584 2631 3529 
Q 2884 3475 3122 3366 
z
" transform="scale(0.015625)"/>
       <path id="DejaVuSans-70" d="M 1159 525 
L 1159 -1331 
L 581 -1331 
L 581 3500 
L 1159 3500 
L 1159 2969 
Q 1341 3281 1617 3432 
Q 1894 3584 2278 3584 
Q 2916 3584 3314 3078 
Q 3713 2572 3713 1747 
Q 3713 922 3314 415 
Q 2916 -91 2278 -91 
Q 1894 -91 1617 61 
Q 1341 213 1159 525 
z
M 3116 1747 
Q 3116 2381 2855 2742 
Q 2594 3103 2138 3103 
Q 1681 3103 1420 2742 
Q 1159 2381 1159 1747 
Q 1159 1113 1420 752 
Q 1681 391 2138 391 
Q 2594 391 2855 752 
Q 3116 1113 3116 1747 
z
" transform="scale(0.015625)"/>
      </defs>
      <use xlink:href="#DejaVuSans-41"/>
      <use xlink:href="#DejaVuSans-76" x="62.533203"/>
      <use xlink:href="#DejaVuSans-65" x="121.712891"/>
      <use xlink:href="#DejaVuSans-72" x="183.236328"/>
      <use xlink:href="#DejaVuSans-61" x="224.349609"/>
      <use xlink:href="#DejaVuSans-67" x="285.628906"/>
      <use xlink:href="#DejaVuSans-65" x="349.105469"/>
      <use xlink:href="#DejaVuSans-20" x="410.628906"/>
      <use xlink:href="#DejaVuSans-28" x="442.416016"/>
      <use xlink:href="#DejaVuSans-41" x="481.429688"/>
      <use xlink:href="#DejaVuSans-6e" x="549.837891"/>
      <use xlink:href="#DejaVuSans-74" x="613.216797"/>
      <use xlink:href="#DejaVuSans-69" x="652.425781"/>
      <use xlink:href="#DejaVuSans-63" x="680.208984"/>
      <use xlink:href="#DejaVuSans-69" x="735.189453"/>
      <use xlink:href="#DejaVuSans-70" x="762.972656"/>
      <use xlink:href="#DejaVuSans-61" x="826.449219"/>
      <use xlink:href="#DejaVuSans-74" x="887.728516"/>
      <use xlink:href="#DejaVuSans-69" x="926.9375"/>
      <use xlink:href="#DejaVuSans-6f" x="954.720703"/>
      <use xlink:href="#DejaVuSans-6e" x="1015.902344"/>
      <use xlink:href="#DejaVuSans-29" x="1079.28125"/>
     </g>
    </g>
   </g>
  </g>
 </g>
 <defs>
  <clipPath id="p8be6e994fd">
   <rect x="57.6" y="41.472" width="357.12" height="266.112"/>
  </clipPath>
 </defs>
</svg>
