<?xml version="1.0" encoding="utf-8" standalone="no"?>
<!DOCTYPE svg PUBLIC "-//W3C//DTD SVG 1.1//EN"
  "http://www.w3.org/Graphics/SVG/1.1/DTD/svg11.dtd">
<svg xmlns:xlink="http://www.w3.org/1999/xlink" width="460.8pt" height="345.6pt" viewBox="0 0 460.8 345.6" xmlns="http://www.w3.org/2000/svg" version="1.1">
 <metadata>
  <rdf:RDF xmlns:dc="http://purl.org/dc/elements/1.1/" xmlns:cc="http://creativecommons.org/ns#" xmlns:rdf="http://www.w3.org/1999/02/22-rdf-syntax-ns#">
   <cc:Work>
    <dc:type rdf:resource="http://purl.org/dc/dcmitype/StillImage"/>
    <dc:date>2022-10-04T12:42:50.718648</dc:date>
    <dc:format>image/svg+xml</dc:format>
    <dc:creator>
     <cc:Agent>
      <dc:title>Matplotlib v3.5.3, https://matplotlib.org/</dc:title>
     </cc:Agent>
    </dc:creator>
   </cc:Work>
  </rdf:RDF>
 </metadata>
 <defs>
  <style type="text/css">*{stroke-linejoin: round; stroke-linecap: butt}</style>
 </defs>
 <g id="figure_1">
  <g id="patch_1">
   <path d="M 0 345.6 
L 460.8 345.6 
L 460.8 0 
L 0 0 
z
" style="fill: #ffffff"/>
  </g>
  <g id="axes_1">
   <g id="patch_2">
    <path d="M 57.6 307.584 
L 414.72 307.584 
L 414.72 41.472 
L 57.6 41.472 
z
" style="fill: #ffffff"/>
   </g>
   <g id="matplotlib.axis_1">
    <g id="xtick_1">
     <g id="line2d_1">
      <defs>
       <path id="m32295744bd" d="M 0 0 
L 0 3.5 
" style="stroke: #000000; stroke-width: 0.8"/>
      </defs>
      <g>
       <use xlink:href="#m32295744bd" x="73.832727" y="307.584" style="stroke: #000000; stroke-width: 0.8"/>
      </g>
     </g>
     <g id="text_1">
      <!-- 0 -->
      <g transform="translate(70.651477 322.182437)scale(0.1 -0.1)">
       <defs>
        <path id="DejaVuSans-30" d="M 2034 4250 
Q 1547 4250 1301 3770 
Q 1056 3291 1056 2328 
Q 1056 1369 1301 889 
Q 1547 409 2034 409 
Q 2525 409 2770 889 
Q 3016 1369 3016 2328 
Q 3016 3291 2770 3770 
Q 2525 4250 2034 4250 
z
M 2034 4750 
Q 2819 4750 3233 4129 
Q 3647 3509 3647 2328 
Q 3647 1150 3233 529 
Q 2819 -91 2034 -91 
Q 1250 -91 836 529 
Q 422 1150 422 2328 
Q 422 3509 836 4129 
Q 1250 4750 2034 4750 
z
" transform="scale(0.015625)"/>
       </defs>
       <use xlink:href="#DejaVuSans-30"/>
      </g>
     </g>
    </g>
    <g id="xtick_2">
     <g id="line2d_2">
      <g>
       <use xlink:href="#m32295744bd" x="138.828632" y="307.584" style="stroke: #000000; stroke-width: 0.8"/>
      </g>
     </g>
     <g id="text_2">
      <!-- 200 -->
      <g transform="translate(129.284882 322.182437)scale(0.1 -0.1)">
       <defs>
        <path id="DejaVuSans-32" d="M 1228 531 
L 3431 531 
L 3431 0 
L 469 0 
L 469 531 
Q 828 903 1448 1529 
Q 2069 2156 2228 2338 
Q 2531 2678 2651 2914 
Q 2772 3150 2772 3378 
Q 2772 3750 2511 3984 
Q 2250 4219 1831 4219 
Q 1534 4219 1204 4116 
Q 875 4013 500 3803 
L 500 4441 
Q 881 4594 1212 4672 
Q 1544 4750 1819 4750 
Q 2544 4750 2975 4387 
Q 3406 4025 3406 3419 
Q 3406 3131 3298 2873 
Q 3191 2616 2906 2266 
Q 2828 2175 2409 1742 
Q 1991 1309 1228 531 
z
" transform="scale(0.015625)"/>
       </defs>
       <use xlink:href="#DejaVuSans-32"/>
       <use xlink:href="#DejaVuSans-30" x="63.623047"/>
       <use xlink:href="#DejaVuSans-30" x="127.246094"/>
      </g>
     </g>
    </g>
    <g id="xtick_3">
     <g id="line2d_3">
      <g>
       <use xlink:href="#m32295744bd" x="203.824537" y="307.584" style="stroke: #000000; stroke-width: 0.8"/>
      </g>
     </g>
     <g id="text_3">
      <!-- 400 -->
      <g transform="translate(194.280787 322.182437)scale(0.1 -0.1)">
       <defs>
        <path id="DejaVuSans-34" d="M 2419 4116 
L 825 1625 
L 2419 1625 
L 2419 4116 
z
M 2253 4666 
L 3047 4666 
L 3047 1625 
L 3713 1625 
L 3713 1100 
L 3047 1100 
L 3047 0 
L 2419 0 
L 2419 1100 
L 313 1100 
L 313 1709 
L 2253 4666 
z
" transform="scale(0.015625)"/>
       </defs>
       <use xlink:href="#DejaVuSans-34"/>
       <use xlink:href="#DejaVuSans-30" x="63.623047"/>
       <use xlink:href="#DejaVuSans-30" x="127.246094"/>
      </g>
     </g>
    </g>
    <g id="xtick_4">
     <g id="line2d_4">
      <g>
       <use xlink:href="#m32295744bd" x="268.820442" y="307.584" style="stroke: #000000; stroke-width: 0.8"/>
      </g>
     </g>
     <g id="text_4">
      <!-- 600 -->
      <g transform="translate(259.276692 322.182437)scale(0.1 -0.1)">
       <defs>
        <path id="DejaVuSans-36" d="M 2113 2584 
Q 1688 2584 1439 2293 
Q 1191 2003 1191 1497 
Q 1191 994 1439 701 
Q 1688 409 2113 409 
Q 2538 409 2786 701 
Q 3034 994 3034 1497 
Q 3034 2003 2786 2293 
Q 2538 2584 2113 2584 
z
M 3366 4563 
L 3366 3988 
Q 3128 4100 2886 4159 
Q 2644 4219 2406 4219 
Q 1781 4219 1451 3797 
Q 1122 3375 1075 2522 
Q 1259 2794 1537 2939 
Q 1816 3084 2150 3084 
Q 2853 3084 3261 2657 
Q 3669 2231 3669 1497 
Q 3669 778 3244 343 
Q 2819 -91 2113 -91 
Q 1303 -91 875 529 
Q 447 1150 447 2328 
Q 447 3434 972 4092 
Q 1497 4750 2381 4750 
Q 2619 4750 2861 4703 
Q 3103 4656 3366 4563 
z
" transform="scale(0.015625)"/>
       </defs>
       <use xlink:href="#DejaVuSans-36"/>
       <use xlink:href="#DejaVuSans-30" x="63.623047"/>
       <use xlink:href="#DejaVuSans-30" x="127.246094"/>
      </g>
     </g>
    </g>
    <g id="xtick_5">
     <g id="line2d_5">
      <g>
       <use xlink:href="#m32295744bd" x="333.816347" y="307.584" style="stroke: #000000; stroke-width: 0.8"/>
      </g>
     </g>
     <g id="text_5">
      <!-- 800 -->
      <g transform="translate(324.272597 322.182437)scale(0.1 -0.1)">
       <defs>
        <path id="DejaVuSans-38" d="M 2034 2216 
Q 1584 2216 1326 1975 
Q 1069 1734 1069 1313 
Q 1069 891 1326 650 
Q 1584 409 2034 409 
Q 2484 409 2743 651 
Q 3003 894 3003 1313 
Q 3003 1734 2745 1975 
Q 2488 2216 2034 2216 
z
M 1403 2484 
Q 997 2584 770 2862 
Q 544 3141 544 3541 
Q 544 4100 942 4425 
Q 1341 4750 2034 4750 
Q 2731 4750 3128 4425 
Q 3525 4100 3525 3541 
Q 3525 3141 3298 2862 
Q 3072 2584 2669 2484 
Q 3125 2378 3379 2068 
Q 3634 1759 3634 1313 
Q 3634 634 3220 271 
Q 2806 -91 2034 -91 
Q 1263 -91 848 271 
Q 434 634 434 1313 
Q 434 1759 690 2068 
Q 947 2378 1403 2484 
z
M 1172 3481 
Q 1172 3119 1398 2916 
Q 1625 2713 2034 2713 
Q 2441 2713 2670 2916 
Q 2900 3119 2900 3481 
Q 2900 3844 2670 4047 
Q 2441 4250 2034 4250 
Q 1625 4250 1398 4047 
Q 1172 3844 1172 3481 
z
" transform="scale(0.015625)"/>
       </defs>
       <use xlink:href="#DejaVuSans-38"/>
       <use xlink:href="#DejaVuSans-30" x="63.623047"/>
       <use xlink:href="#DejaVuSans-30" x="127.246094"/>
      </g>
     </g>
    </g>
    <g id="xtick_6">
     <g id="line2d_6">
      <g>
       <use xlink:href="#m32295744bd" x="398.812252" y="307.584" style="stroke: #000000; stroke-width: 0.8"/>
      </g>
     </g>
     <g id="text_6">
      <!-- 1000 -->
      <g transform="translate(386.087252 322.182437)scale(0.1 -0.1)">
       <defs>
        <path id="DejaVuSans-31" d="M 794 531 
L 1825 531 
L 1825 4091 
L 703 3866 
L 703 4441 
L 1819 4666 
L 2450 4666 
L 2450 531 
L 3481 531 
L 3481 0 
L 794 0 
L 794 531 
z
" transform="scale(0.015625)"/>
       </defs>
       <use xlink:href="#DejaVuSans-31"/>
       <use xlink:href="#DejaVuSans-30" x="63.623047"/>
       <use xlink:href="#DejaVuSans-30" x="127.246094"/>
       <use xlink:href="#DejaVuSans-30" x="190.869141"/>
      </g>
     </g>
    </g>
    <g id="text_7">
     <!-- Number of Orders -->
     <g transform="translate(191.261562 335.860562)scale(0.1 -0.1)">
      <defs>
       <path id="DejaVuSans-4e" d="M 628 4666 
L 1478 4666 
L 3547 763 
L 3547 4666 
L 4159 4666 
L 4159 0 
L 3309 0 
L 1241 3903 
L 1241 0 
L 628 0 
L 628 4666 
z
" transform="scale(0.015625)"/>
       <path id="DejaVuSans-75" d="M 544 1381 
L 544 3500 
L 1119 3500 
L 1119 1403 
Q 1119 906 1312 657 
Q 1506 409 1894 409 
Q 2359 409 2629 706 
Q 2900 1003 2900 1516 
L 2900 3500 
L 3475 3500 
L 3475 0 
L 2900 0 
L 2900 538 
Q 2691 219 2414 64 
Q 2138 -91 1772 -91 
Q 1169 -91 856 284 
Q 544 659 544 1381 
z
M 1991 3584 
L 1991 3584 
z
" transform="scale(0.015625)"/>
       <path id="DejaVuSans-6d" d="M 3328 2828 
Q 3544 3216 3844 3400 
Q 4144 3584 4550 3584 
Q 5097 3584 5394 3201 
Q 5691 2819 5691 2113 
L 5691 0 
L 5113 0 
L 5113 2094 
Q 5113 2597 4934 2840 
Q 4756 3084 4391 3084 
Q 3944 3084 3684 2787 
Q 3425 2491 3425 1978 
L 3425 0 
L 2847 0 
L 2847 2094 
Q 2847 2600 2669 2842 
Q 2491 3084 2119 3084 
Q 1678 3084 1418 2786 
Q 1159 2488 1159 1978 
L 1159 0 
L 581 0 
L 581 3500 
L 1159 3500 
L 1159 2956 
Q 1356 3278 1631 3431 
Q 1906 3584 2284 3584 
Q 2666 3584 2933 3390 
Q 3200 3197 3328 2828 
z
" transform="scale(0.015625)"/>
       <path id="DejaVuSans-62" d="M 3116 1747 
Q 3116 2381 2855 2742 
Q 2594 3103 2138 3103 
Q 1681 3103 1420 2742 
Q 1159 2381 1159 1747 
Q 1159 1113 1420 752 
Q 1681 391 2138 391 
Q 2594 391 2855 752 
Q 3116 1113 3116 1747 
z
M 1159 2969 
Q 1341 3281 1617 3432 
Q 1894 3584 2278 3584 
Q 2916 3584 3314 3078 
Q 3713 2572 3713 1747 
Q 3713 922 3314 415 
Q 2916 -91 2278 -91 
Q 1894 -91 1617 61 
Q 1341 213 1159 525 
L 1159 0 
L 581 0 
L 581 4863 
L 1159 4863 
L 1159 2969 
z
" transform="scale(0.015625)"/>
       <path id="DejaVuSans-65" d="M 3597 1894 
L 3597 1613 
L 953 1613 
Q 991 1019 1311 708 
Q 1631 397 2203 397 
Q 2534 397 2845 478 
Q 3156 559 3463 722 
L 3463 178 
Q 3153 47 2828 -22 
Q 2503 -91 2169 -91 
Q 1331 -91 842 396 
Q 353 884 353 1716 
Q 353 2575 817 3079 
Q 1281 3584 2069 3584 
Q 2775 3584 3186 3129 
Q 3597 2675 3597 1894 
z
M 3022 2063 
Q 3016 2534 2758 2815 
Q 2500 3097 2075 3097 
Q 1594 3097 1305 2825 
Q 1016 2553 972 2059 
L 3022 2063 
z
" transform="scale(0.015625)"/>
       <path id="DejaVuSans-72" d="M 2631 2963 
Q 2534 3019 2420 3045 
Q 2306 3072 2169 3072 
Q 1681 3072 1420 2755 
Q 1159 2438 1159 1844 
L 1159 0 
L 581 0 
L 581 3500 
L 1159 3500 
L 1159 2956 
Q 1341 3275 1631 3429 
Q 1922 3584 2338 3584 
Q 2397 3584 2469 3576 
Q 2541 3569 2628 3553 
L 2631 2963 
z
" transform="scale(0.015625)"/>
       <path id="DejaVuSans-20" transform="scale(0.015625)"/>
       <path id="DejaVuSans-6f" d="M 1959 3097 
Q 1497 3097 1228 2736 
Q 959 2375 959 1747 
Q 959 1119 1226 758 
Q 1494 397 1959 397 
Q 2419 397 2687 759 
Q 2956 1122 2956 1747 
Q 2956 2369 2687 2733 
Q 2419 3097 1959 3097 
z
M 1959 3584 
Q 2709 3584 3137 3096 
Q 3566 2609 3566 1747 
Q 3566 888 3137 398 
Q 2709 -91 1959 -91 
Q 1206 -91 779 398 
Q 353 888 353 1747 
Q 353 2609 779 3096 
Q 1206 3584 1959 3584 
z
" transform="scale(0.015625)"/>
       <path id="DejaVuSans-66" d="M 2375 4863 
L 2375 4384 
L 1825 4384 
Q 1516 4384 1395 4259 
Q 1275 4134 1275 3809 
L 1275 3500 
L 2222 3500 
L 2222 3053 
L 1275 3053 
L 1275 0 
L 697 0 
L 697 3053 
L 147 3053 
L 147 3500 
L 697 3500 
L 697 3744 
Q 697 4328 969 4595 
Q 1241 4863 1831 4863 
L 2375 4863 
z
" transform="scale(0.015625)"/>
       <path id="DejaVuSans-4f" d="M 2522 4238 
Q 1834 4238 1429 3725 
Q 1025 3213 1025 2328 
Q 1025 1447 1429 934 
Q 1834 422 2522 422 
Q 3209 422 3611 934 
Q 4013 1447 4013 2328 
Q 4013 3213 3611 3725 
Q 3209 4238 2522 4238 
z
M 2522 4750 
Q 3503 4750 4090 4092 
Q 4678 3434 4678 2328 
Q 4678 1225 4090 567 
Q 3503 -91 2522 -91 
Q 1538 -91 948 565 
Q 359 1222 359 2328 
Q 359 3434 948 4092 
Q 1538 4750 2522 4750 
z
" transform="scale(0.015625)"/>
       <path id="DejaVuSans-64" d="M 2906 2969 
L 2906 4863 
L 3481 4863 
L 3481 0 
L 2906 0 
L 2906 525 
Q 2725 213 2448 61 
Q 2172 -91 1784 -91 
Q 1150 -91 751 415 
Q 353 922 353 1747 
Q 353 2572 751 3078 
Q 1150 3584 1784 3584 
Q 2172 3584 2448 3432 
Q 2725 3281 2906 2969 
z
M 947 1747 
Q 947 1113 1208 752 
Q 1469 391 1925 391 
Q 2381 391 2643 752 
Q 2906 1113 2906 1747 
Q 2906 2381 2643 2742 
Q 2381 3103 1925 3103 
Q 1469 3103 1208 2742 
Q 947 2381 947 1747 
z
" transform="scale(0.015625)"/>
       <path id="DejaVuSans-73" d="M 2834 3397 
L 2834 2853 
Q 2591 2978 2328 3040 
Q 2066 3103 1784 3103 
Q 1356 3103 1142 2972 
Q 928 2841 928 2578 
Q 928 2378 1081 2264 
Q 1234 2150 1697 2047 
L 1894 2003 
Q 2506 1872 2764 1633 
Q 3022 1394 3022 966 
Q 3022 478 2636 193 
Q 2250 -91 1575 -91 
Q 1294 -91 989 -36 
Q 684 19 347 128 
L 347 722 
Q 666 556 975 473 
Q 1284 391 1588 391 
Q 1994 391 2212 530 
Q 2431 669 2431 922 
Q 2431 1156 2273 1281 
Q 2116 1406 1581 1522 
L 1381 1569 
Q 847 1681 609 1914 
Q 372 2147 372 2553 
Q 372 3047 722 3315 
Q 1072 3584 1716 3584 
Q 2034 3584 2315 3537 
Q 2597 3491 2834 3397 
z
" transform="scale(0.015625)"/>
      </defs>
      <use xlink:href="#DejaVuSans-4e"/>
      <use xlink:href="#DejaVuSans-75" x="74.804688"/>
      <use xlink:href="#DejaVuSans-6d" x="138.183594"/>
      <use xlink:href="#DejaVuSans-62" x="235.595703"/>
      <use xlink:href="#DejaVuSans-65" x="299.072266"/>
      <use xlink:href="#DejaVuSans-72" x="360.595703"/>
      <use xlink:href="#DejaVuSans-20" x="401.708984"/>
      <use xlink:href="#DejaVuSans-6f" x="433.496094"/>
      <use xlink:href="#DejaVuSans-66" x="494.677734"/>
      <use xlink:href="#DejaVuSans-20" x="529.882812"/>
      <use xlink:href="#DejaVuSans-4f" x="561.669922"/>
      <use xlink:href="#DejaVuSans-72" x="640.380859"/>
      <use xlink:href="#DejaVuSans-64" x="679.744141"/>
      <use xlink:href="#DejaVuSans-65" x="743.220703"/>
      <use xlink:href="#DejaVuSans-72" x="804.744141"/>
      <use xlink:href="#DejaVuSans-73" x="845.857422"/>
     </g>
    </g>
   </g>
   <g id="matplotlib.axis_2">
    <g id="ytick_1">
     <g id="line2d_7">
      <defs>
       <path id="m20e7a83efe" d="M 0 0 
L -3.5 0 
" style="stroke: #000000; stroke-width: 0.8"/>
      </defs>
      <g>
       <use xlink:href="#m20e7a83efe" x="57.6" y="273.009369" style="stroke: #000000; stroke-width: 0.8"/>
      </g>
     </g>
     <g id="text_8">
      <!-- 200 -->
      <g transform="translate(31.5125 276.808587)scale(0.1 -0.1)">
       <use xlink:href="#DejaVuSans-32"/>
       <use xlink:href="#DejaVuSans-30" x="63.623047"/>
       <use xlink:href="#DejaVuSans-30" x="127.246094"/>
      </g>
     </g>
    </g>
    <g id="ytick_2">
     <g id="line2d_8">
      <g>
       <use xlink:href="#m20e7a83efe" x="57.6" y="235.034699" style="stroke: #000000; stroke-width: 0.8"/>
      </g>
     </g>
     <g id="text_9">
      <!-- 250 -->
      <g transform="translate(31.5125 238.833918)scale(0.1 -0.1)">
       <defs>
        <path id="DejaVuSans-35" d="M 691 4666 
L 3169 4666 
L 3169 4134 
L 1269 4134 
L 1269 2991 
Q 1406 3038 1543 3061 
Q 1681 3084 1819 3084 
Q 2600 3084 3056 2656 
Q 3513 2228 3513 1497 
Q 3513 744 3044 326 
Q 2575 -91 1722 -91 
Q 1428 -91 1123 -41 
Q 819 9 494 109 
L 494 744 
Q 775 591 1075 516 
Q 1375 441 1709 441 
Q 2250 441 2565 725 
Q 2881 1009 2881 1497 
Q 2881 1984 2565 2268 
Q 2250 2553 1709 2553 
Q 1456 2553 1204 2497 
Q 953 2441 691 2322 
L 691 4666 
z
" transform="scale(0.015625)"/>
       </defs>
       <use xlink:href="#DejaVuSans-32"/>
       <use xlink:href="#DejaVuSans-35" x="63.623047"/>
       <use xlink:href="#DejaVuSans-30" x="127.246094"/>
      </g>
     </g>
    </g>
    <g id="ytick_3">
     <g id="line2d_9">
      <g>
       <use xlink:href="#m20e7a83efe" x="57.6" y="197.06003" style="stroke: #000000; stroke-width: 0.8"/>
      </g>
     </g>
     <g id="text_10">
      <!-- 300 -->
      <g transform="translate(31.5125 200.859249)scale(0.1 -0.1)">
       <defs>
        <path id="DejaVuSans-33" d="M 2597 2516 
Q 3050 2419 3304 2112 
Q 3559 1806 3559 1356 
Q 3559 666 3084 287 
Q 2609 -91 1734 -91 
Q 1441 -91 1130 -33 
Q 819 25 488 141 
L 488 750 
Q 750 597 1062 519 
Q 1375 441 1716 441 
Q 2309 441 2620 675 
Q 2931 909 2931 1356 
Q 2931 1769 2642 2001 
Q 2353 2234 1838 2234 
L 1294 2234 
L 1294 2753 
L 1863 2753 
Q 2328 2753 2575 2939 
Q 2822 3125 2822 3475 
Q 2822 3834 2567 4026 
Q 2313 4219 1838 4219 
Q 1578 4219 1281 4162 
Q 984 4106 628 3988 
L 628 4550 
Q 988 4650 1302 4700 
Q 1616 4750 1894 4750 
Q 2613 4750 3031 4423 
Q 3450 4097 3450 3541 
Q 3450 3153 3228 2886 
Q 3006 2619 2597 2516 
z
" transform="scale(0.015625)"/>
       </defs>
       <use xlink:href="#DejaVuSans-33"/>
       <use xlink:href="#DejaVuSans-30" x="63.623047"/>
       <use xlink:href="#DejaVuSans-30" x="127.246094"/>
      </g>
     </g>
    </g>
    <g id="ytick_4">
     <g id="line2d_10">
      <g>
       <use xlink:href="#m20e7a83efe" x="57.6" y="159.085361" style="stroke: #000000; stroke-width: 0.8"/>
      </g>
     </g>
     <g id="text_11">
      <!-- 350 -->
      <g transform="translate(31.5125 162.884579)scale(0.1 -0.1)">
       <use xlink:href="#DejaVuSans-33"/>
       <use xlink:href="#DejaVuSans-35" x="63.623047"/>
       <use xlink:href="#DejaVuSans-30" x="127.246094"/>
      </g>
     </g>
    </g>
    <g id="ytick_5">
     <g id="line2d_11">
      <g>
       <use xlink:href="#m20e7a83efe" x="57.6" y="121.110691" style="stroke: #000000; stroke-width: 0.8"/>
      </g>
     </g>
     <g id="text_12">
      <!-- 400 -->
      <g transform="translate(31.5125 124.90991)scale(0.1 -0.1)">
       <use xlink:href="#DejaVuSans-34"/>
       <use xlink:href="#DejaVuSans-30" x="63.623047"/>
       <use xlink:href="#DejaVuSans-30" x="127.246094"/>
      </g>
     </g>
    </g>
    <g id="ytick_6">
     <g id="line2d_12">
      <g>
       <use xlink:href="#m20e7a83efe" x="57.6" y="83.136022" style="stroke: #000000; stroke-width: 0.8"/>
      </g>
     </g>
     <g id="text_13">
      <!-- 450 -->
      <g transform="translate(31.5125 86.935241)scale(0.1 -0.1)">
       <use xlink:href="#DejaVuSans-34"/>
       <use xlink:href="#DejaVuSans-35" x="63.623047"/>
       <use xlink:href="#DejaVuSans-30" x="127.246094"/>
      </g>
     </g>
    </g>
    <g id="ytick_7">
     <g id="line2d_13">
      <g>
       <use xlink:href="#m20e7a83efe" x="57.6" y="45.161353" style="stroke: #000000; stroke-width: 0.8"/>
      </g>
     </g>
     <g id="text_14">
      <!-- 500 -->
      <g transform="translate(31.5125 48.960571)scale(0.1 -0.1)">
       <use xlink:href="#DejaVuSans-35"/>
       <use xlink:href="#DejaVuSans-30" x="63.623047"/>
       <use xlink:href="#DejaVuSans-30" x="127.246094"/>
      </g>
     </g>
    </g>
    <g id="text_15">
     <!-- Waiting Time/s -->
     <g transform="translate(25.432812 211.410031)rotate(-90)scale(0.1 -0.1)">
      <defs>
       <path id="DejaVuSans-57" d="M 213 4666 
L 850 4666 
L 1831 722 
L 2809 4666 
L 3519 4666 
L 4500 722 
L 5478 4666 
L 6119 4666 
L 4947 0 
L 4153 0 
L 3169 4050 
L 2175 0 
L 1381 0 
L 213 4666 
z
" transform="scale(0.015625)"/>
       <path id="DejaVuSans-61" d="M 2194 1759 
Q 1497 1759 1228 1600 
Q 959 1441 959 1056 
Q 959 750 1161 570 
Q 1363 391 1709 391 
Q 2188 391 2477 730 
Q 2766 1069 2766 1631 
L 2766 1759 
L 2194 1759 
z
M 3341 1997 
L 3341 0 
L 2766 0 
L 2766 531 
Q 2569 213 2275 61 
Q 1981 -91 1556 -91 
Q 1019 -91 701 211 
Q 384 513 384 1019 
Q 384 1609 779 1909 
Q 1175 2209 1959 2209 
L 2766 2209 
L 2766 2266 
Q 2766 2663 2505 2880 
Q 2244 3097 1772 3097 
Q 1472 3097 1187 3025 
Q 903 2953 641 2809 
L 641 3341 
Q 956 3463 1253 3523 
Q 1550 3584 1831 3584 
Q 2591 3584 2966 3190 
Q 3341 2797 3341 1997 
z
" transform="scale(0.015625)"/>
       <path id="DejaVuSans-69" d="M 603 3500 
L 1178 3500 
L 1178 0 
L 603 0 
L 603 3500 
z
M 603 4863 
L 1178 4863 
L 1178 4134 
L 603 4134 
L 603 4863 
z
" transform="scale(0.015625)"/>
       <path id="DejaVuSans-74" d="M 1172 4494 
L 1172 3500 
L 2356 3500 
L 2356 3053 
L 1172 3053 
L 1172 1153 
Q 1172 725 1289 603 
Q 1406 481 1766 481 
L 2356 481 
L 2356 0 
L 1766 0 
Q 1100 0 847 248 
Q 594 497 594 1153 
L 594 3053 
L 172 3053 
L 172 3500 
L 594 3500 
L 594 4494 
L 1172 4494 
z
" transform="scale(0.015625)"/>
       <path id="DejaVuSans-6e" d="M 3513 2113 
L 3513 0 
L 2938 0 
L 2938 2094 
Q 2938 2591 2744 2837 
Q 2550 3084 2163 3084 
Q 1697 3084 1428 2787 
Q 1159 2491 1159 1978 
L 1159 0 
L 581 0 
L 581 3500 
L 1159 3500 
L 1159 2956 
Q 1366 3272 1645 3428 
Q 1925 3584 2291 3584 
Q 2894 3584 3203 3211 
Q 3513 2838 3513 2113 
z
" transform="scale(0.015625)"/>
       <path id="DejaVuSans-67" d="M 2906 1791 
Q 2906 2416 2648 2759 
Q 2391 3103 1925 3103 
Q 1463 3103 1205 2759 
Q 947 2416 947 1791 
Q 947 1169 1205 825 
Q 1463 481 1925 481 
Q 2391 481 2648 825 
Q 2906 1169 2906 1791 
z
M 3481 434 
Q 3481 -459 3084 -895 
Q 2688 -1331 1869 -1331 
Q 1566 -1331 1297 -1286 
Q 1028 -1241 775 -1147 
L 775 -588 
Q 1028 -725 1275 -790 
Q 1522 -856 1778 -856 
Q 2344 -856 2625 -561 
Q 2906 -266 2906 331 
L 2906 616 
Q 2728 306 2450 153 
Q 2172 0 1784 0 
Q 1141 0 747 490 
Q 353 981 353 1791 
Q 353 2603 747 3093 
Q 1141 3584 1784 3584 
Q 2172 3584 2450 3431 
Q 2728 3278 2906 2969 
L 2906 3500 
L 3481 3500 
L 3481 434 
z
" transform="scale(0.015625)"/>
       <path id="DejaVuSans-54" d="M -19 4666 
L 3928 4666 
L 3928 4134 
L 2272 4134 
L 2272 0 
L 1638 0 
L 1638 4134 
L -19 4134 
L -19 4666 
z
" transform="scale(0.015625)"/>
       <path id="DejaVuSans-2f" d="M 1625 4666 
L 2156 4666 
L 531 -594 
L 0 -594 
L 1625 4666 
z
" transform="scale(0.015625)"/>
      </defs>
      <use xlink:href="#DejaVuSans-57"/>
      <use xlink:href="#DejaVuSans-61" x="92.501953"/>
      <use xlink:href="#DejaVuSans-69" x="153.78125"/>
      <use xlink:href="#DejaVuSans-74" x="181.564453"/>
      <use xlink:href="#DejaVuSans-69" x="220.773438"/>
      <use xlink:href="#DejaVuSans-6e" x="248.556641"/>
      <use xlink:href="#DejaVuSans-67" x="311.935547"/>
      <use xlink:href="#DejaVuSans-20" x="375.412109"/>
      <use xlink:href="#DejaVuSans-54" x="407.199219"/>
      <use xlink:href="#DejaVuSans-69" x="465.158203"/>
      <use xlink:href="#DejaVuSans-6d" x="492.941406"/>
      <use xlink:href="#DejaVuSans-65" x="590.353516"/>
      <use xlink:href="#DejaVuSans-2f" x="651.876953"/>
      <use xlink:href="#DejaVuSans-73" x="685.568359"/>
     </g>
    </g>
   </g>
   <g id="line2d_14">
    <path d="M 73.832727 295.488 
L 74.157707 274.183829 
L 74.482686 201.587252 
L 74.807666 190.786622 
L 75.457625 124.907515 
L 75.782604 138.635019 
L 76.107584 143.745401 
L 76.432563 127.829448 
L 76.757543 101.208578 
L 77.082523 111.335347 
L 77.407502 109.479247 
L 78.057461 86.797075 
L 78.382441 90.524025 
L 78.70742 96.084645 
L 79.0324 98.930481 
L 79.357379 105.265033 
L 79.682359 106.062783 
L 80.007338 101.959046 
L 80.332318 100.08738 
L 80.657297 87.867209 
L 80.982277 88.032959 
L 81.307256 77.055531 
L 81.632236 78.990618 
L 81.957215 76.777617 
L 82.282195 77.819363 
L 82.607174 77.748128 
L 82.932154 78.956649 
L 83.257133 73.063052 
L 83.582113 77.071309 
L 84.232072 70.379247 
L 84.557052 71.119139 
L 84.882031 72.773957 
L 85.207011 70.633305 
L 85.53199 76.594498 
L 85.85697 72.586724 
L 86.181949 73.966474 
L 86.506929 68.207944 
L 86.831908 65.880188 
L 87.156888 67.552984 
L 87.481867 66.601749 
L 87.806847 67.634993 
L 88.131826 61.773267 
L 88.456806 59.892153 
L 88.781785 60.385693 
L 89.106765 58.86955 
L 89.431744 61.844672 
L 90.081704 63.574483 
L 90.406683 63.103963 
L 91.056642 67.984233 
L 91.381622 64.628642 
L 91.706601 67.693971 
L 92.35656 61.757297 
L 92.68154 61.470453 
L 93.006519 63.707698 
L 93.656478 65.952762 
L 94.306437 70.829678 
L 94.631417 68.473507 
L 94.956396 67.359117 
L 95.281376 68.205006 
L 95.606355 65.286566 
L 95.931335 69.192598 
L 96.256314 69.973768 
L 96.581294 67.084926 
L 96.906274 62.673423 
L 97.231253 60.851041 
L 97.556233 60.301541 
L 98.206192 66.077633 
L 98.531171 66.436105 
L 98.856151 65.194922 
L 99.18113 65.559523 
L 99.50611 64.655791 
L 99.831089 65.041961 
L 100.156069 63.36448 
L 100.481048 62.955848 
L 100.806028 63.079493 
L 101.131007 64.287136 
L 101.455987 64.6929 
L 102.430925 66.737441 
L 102.755905 68.393567 
L 103.080885 67.33776 
L 103.405864 69.872723 
L 103.730844 65.712795 
L 104.055823 66.281105 
L 104.380803 66.170234 
L 104.705782 67.962843 
L 105.030762 68.524658 
L 105.355741 64.89167 
L 105.680721 63.865327 
L 106.0057 66.141854 
L 106.33068 67.088073 
L 107.305618 64.378529 
L 107.630598 64.904878 
L 107.955577 65.711116 
L 108.280557 63.427764 
L 108.605536 62.587013 
L 108.930516 62.13064 
L 109.580475 64.532634 
L 109.905455 62.74233 
L 110.230434 63.945695 
L 110.555414 63.423336 
L 110.880393 65.259821 
L 111.205373 61.890166 
L 111.855332 62.222087 
L 112.180311 63.08505 
L 112.505291 61.60098 
L 112.83027 63.014561 
L 113.480229 60.03008 
L 113.805209 61.447088 
L 114.130188 61.25733 
L 114.455168 59.816859 
L 114.780147 60.126756 
L 115.105127 58.860329 
L 115.430106 56.3246 
L 115.755086 55.22134 
L 116.080066 56.071681 
L 116.405045 56.173827 
L 116.730025 54.929294 
L 117.055004 55.282955 
L 117.704963 53.568 
L 118.029943 54.066364 
L 118.354922 55.142971 
L 118.679902 55.286288 
L 119.004881 54.303435 
L 119.329861 55.931135 
L 119.65484 56.934581 
L 119.97982 58.518946 
L 120.304799 57.601114 
L 120.629779 57.34564 
L 120.954758 58.546505 
L 121.279738 57.793102 
L 121.604717 57.871892 
L 122.254676 54.28469 
L 122.579656 55.624444 
L 122.904636 55.487604 
L 123.229615 56.901069 
L 123.554595 56.810904 
L 123.879574 58.278661 
L 124.204554 56.804321 
L 124.529533 58.450946 
L 124.854513 56.794768 
L 125.179492 56.583586 
L 125.504472 58.057863 
L 126.154431 59.846145 
L 126.47941 58.693245 
L 126.80439 59.725241 
L 127.129369 59.404337 
L 127.454349 59.28871 
L 128.104308 57.623719 
L 128.429287 58.138111 
L 128.754267 59.17825 
L 129.079247 59.685758 
L 129.729206 57.806938 
L 130.379165 60.124389 
L 130.704144 59.742903 
L 131.029124 61.52999 
L 131.354103 62.382429 
L 132.004062 63.271278 
L 132.654021 61.29085 
L 132.979001 61.601802 
L 133.62896 60.285093 
L 133.953939 59.311539 
L 134.278919 58.901445 
L 134.603898 59.36927 
L 134.928878 58.878265 
L 135.253857 58.94826 
L 135.578837 60.448278 
L 135.903817 61.236116 
L 136.228796 61.670692 
L 136.553776 61.185195 
L 136.878755 62.857533 
L 137.203735 62.349842 
L 137.528714 62.462411 
L 137.853694 61.707495 
L 138.178673 62.033617 
L 138.503653 62.871687 
L 138.828632 63.319123 
L 139.153612 63.425592 
L 139.478591 62.682143 
L 139.803571 62.572005 
L 140.12855 62.941323 
L 140.45353 61.697666 
L 140.778509 62.260339 
L 141.103489 62.465326 
L 141.428468 61.867942 
L 141.753448 62.067213 
L 142.078428 62.925708 
L 142.403407 62.554977 
L 142.728387 62.95921 
L 143.053366 62.999587 
L 143.703325 64.175252 
L 144.028305 64.089455 
L 144.353284 63.566288 
L 145.003243 65.896353 
L 145.328223 65.248451 
L 145.653202 64.245656 
L 145.978182 64.298961 
L 146.303161 64.007294 
L 146.628141 63.494228 
L 147.2781 63.413859 
L 147.603079 63.155867 
L 147.928059 62.740624 
L 148.578018 62.739112 
L 148.902998 64.277846 
L 149.227977 64.037139 
L 149.552957 64.492926 
L 149.877936 65.163685 
L 150.202916 64.80753 
L 150.527895 65.35208 
L 150.852875 65.115362 
L 151.502834 64.259625 
L 151.827813 62.882913 
L 152.152793 62.479483 
L 152.802752 60.608131 
L 153.452711 61.690692 
L 154.10267 60.424531 
L 154.752629 61.674923 
L 155.077609 61.125391 
L 155.402588 61.387761 
L 155.727568 62.10999 
L 156.377527 60.910655 
L 156.702506 61.586857 
L 157.027486 61.273097 
L 157.352465 62.545132 
L 157.677445 61.898141 
L 158.002424 62.639155 
L 158.327404 62.286474 
L 158.652383 63.301385 
L 158.977363 63.608808 
L 159.302342 62.951961 
L 159.627322 63.954435 
L 160.60226 62.857314 
L 160.92724 62.861947 
L 161.252219 63.670773 
L 161.577199 63.57609 
L 161.902179 64.113602 
L 162.227158 63.24019 
L 162.552138 63.806027 
L 162.877117 63.856953 
L 163.202097 63.414164 
L 163.527076 64.187824 
L 163.852056 63.44586 
L 164.502015 65.088702 
L 164.826994 64.833406 
L 165.151974 65.978282 
L 165.476953 66.178966 
L 166.126912 64.724182 
L 166.776871 64.057739 
L 167.101851 64.265358 
L 167.75181 63.951544 
L 168.07679 64.242161 
L 168.401769 63.786675 
L 168.726749 63.707319 
L 169.051728 63.820582 
L 169.701687 63.407384 
L 170.676626 64.6287 
L 171.001605 64.687039 
L 171.326585 64.303362 
L 171.651564 64.273237 
L 171.976544 64.035926 
L 172.301523 64.216027 
L 172.626503 63.199747 
L 172.951482 62.890538 
L 173.276462 62.004015 
L 173.926421 62.666428 
L 174.2514 62.590492 
L 174.57638 62.86688 
L 174.90136 62.054429 
L 175.226339 61.706724 
L 175.551319 61.792359 
L 175.876298 62.127212 
L 176.526257 62.149785 
L 176.851237 61.666861 
L 177.501196 61.025699 
L 177.826175 61.036845 
L 178.151155 61.182067 
L 178.476134 61.001083 
L 178.801114 61.132085 
L 179.451073 60.601358 
L 179.776052 59.756692 
L 180.426011 60.768494 
L 180.750991 60.472502 
L 181.075971 59.958215 
L 181.40095 59.687296 
L 181.72593 59.20135 
L 182.050909 59.131426 
L 182.700868 59.71723 
L 183.025848 60.714318 
L 183.350827 61.014101 
L 183.675807 60.474453 
L 184.000786 60.906515 
L 184.325766 60.925191 
L 184.650745 60.311972 
L 184.975725 60.399543 
L 185.300704 59.850812 
L 185.625684 59.054615 
L 185.950663 59.156599 
L 186.600622 60.303361 
L 186.925602 60.417457 
L 187.250581 60.669309 
L 187.575561 59.665093 
L 187.900541 59.615832 
L 188.22552 59.82028 
L 188.5505 58.952693 
L 188.875479 59.147319 
L 189.200459 59.052187 
L 189.525438 58.421544 
L 189.850418 58.487444 
L 190.175397 58.176401 
L 190.500377 57.394789 
L 190.825356 57.911439 
L 191.150336 57.896875 
L 191.475315 58.363694 
L 191.800295 58.48057 
L 192.125274 58.108691 
L 192.450254 57.512227 
L 192.775233 57.588535 
L 193.100213 57.307276 
L 193.425192 57.902241 
L 193.750172 57.642467 
L 194.075152 57.839467 
L 194.400131 58.19671 
L 194.725111 58.893225 
L 195.05009 59.071249 
L 195.700049 58.300891 
L 196.025029 58.508787 
L 196.350008 58.343514 
L 196.674988 58.524505 
L 196.999967 58.996879 
L 197.324947 59.742948 
L 197.649926 59.402217 
L 197.974906 59.701366 
L 198.299885 59.525581 
L 198.624865 60.322586 
L 198.949844 59.528783 
L 199.274824 59.62569 
L 199.599803 59.423261 
L 199.924783 59.562343 
L 200.249762 59.009803 
L 200.574742 58.973049 
L 200.899722 59.450489 
L 201.224701 59.217474 
L 201.549681 58.666553 
L 201.87466 58.86172 
L 202.19964 59.465397 
L 202.524619 59.236114 
L 202.849599 59.146201 
L 203.174578 58.905342 
L 203.499558 58.95045 
L 203.824537 59.71311 
L 204.149517 58.747876 
L 204.474496 59.099029 
L 204.799476 58.799522 
L 205.124455 59.001922 
L 205.449435 59.385527 
L 206.424373 58.4069 
L 206.749353 58.881237 
L 207.074333 58.794823 
L 207.724292 57.991008 
L 208.049271 57.904594 
L 208.69923 58.715401 
L 209.02421 58.865481 
L 209.349189 58.294278 
L 209.674169 58.144172 
L 210.649107 59.244102 
L 210.974087 59.383084 
L 211.624046 58.592438 
L 211.949025 58.574468 
L 212.923964 59.207307 
L 213.248943 58.742389 
L 213.898903 59.749096 
L 214.223882 59.655879 
L 214.548862 59.356841 
L 214.873841 58.537177 
L 215.198821 58.601468 
L 215.5238 58.125131 
L 216.173759 57.898084 
L 216.498739 57.604514 
L 216.823718 57.511809 
L 217.148698 57.073005 
L 217.798657 57.00319 
L 218.123636 56.731929 
L 218.773595 56.840165 
L 219.098575 57.301429 
L 219.423554 57.061756 
L 219.748534 57.249411 
L 220.073514 57.879412 
L 220.398493 57.98193 
L 221.048452 58.466214 
L 221.373432 57.912784 
L 221.698411 57.802423 
L 222.998329 56.075919 
L 223.323309 56.327045 
L 223.648288 56.254486 
L 223.973268 56.696286 
L 224.623227 56.603303 
L 225.273186 57.0263 
L 225.598165 57.080371 
L 225.923145 56.747596 
L 226.248124 56.897324 
L 227.223063 56.318634 
L 227.873022 56.777796 
L 228.522981 56.979527 
L 228.847961 57.297292 
L 229.822899 57.566011 
L 230.147879 57.067178 
L 230.797838 57.466922 
L 231.122817 57.202565 
L 231.772776 56.195612 
L 232.097756 56.453772 
L 232.422735 56.246101 
L 233.072695 56.597185 
L 233.397674 56.513782 
L 233.722654 56.216553 
L 234.372613 56.858761 
L 234.697592 56.676801 
L 235.022572 56.858018 
L 235.347551 56.254985 
L 235.672531 56.536493 
L 236.32249 56.434646 
L 236.647469 56.199075 
L 237.297428 56.706467 
L 237.622408 56.62973 
L 237.947387 56.668017 
L 238.272367 56.424153 
L 239.247305 57.55877 
L 240.222244 57.319362 
L 240.872203 57.803657 
L 241.197183 56.769686 
L 241.522162 56.867142 
L 241.847142 56.470355 
L 242.172121 56.349603 
L 242.497101 56.056827 
L 243.14706 56.940871 
L 243.472039 56.644788 
L 244.121998 56.771105 
L 244.446978 56.624053 
L 244.771957 56.84049 
L 245.096937 56.738361 
L 245.421916 56.764551 
L 245.746896 57.048178 
L 246.071876 57.02707 
L 246.396855 57.382672 
L 246.721835 57.065285 
L 247.046814 57.236484 
L 247.696773 58.209374 
L 248.021753 58.061525 
L 248.346732 57.41485 
L 248.671712 57.651876 
L 249.321671 57.655142 
L 249.64665 58.117482 
L 249.97163 58.289281 
L 250.296609 58.014273 
L 250.621589 57.96281 
L 251.271548 58.844478 
L 251.596527 58.939265 
L 251.921507 58.791956 
L 252.246486 58.832757 
L 252.571466 59.004564 
L 252.896446 58.533852 
L 253.221425 58.728598 
L 253.871384 58.888195 
L 254.196364 58.972201 
L 254.521343 59.28054 
L 254.846323 58.892418 
L 255.171302 59.066909 
L 255.496282 58.724475 
L 255.821261 58.811589 
L 256.146241 58.471681 
L 256.47122 58.806573 
L 256.7962 58.260504 
L 257.446159 58.288705 
L 258.096118 57.591851 
L 258.746077 58.062448 
L 259.396036 57.605778 
L 259.721016 57.210382 
L 260.045995 57.083068 
L 260.370975 57.13643 
L 260.695954 57.068977 
L 261.020934 57.257751 
L 261.345913 57.139036 
L 261.670893 57.168983 
L 261.995872 56.765748 
L 262.320852 56.992519 
L 262.645831 56.762886 
L 263.29579 57.532011 
L 263.62077 57.576161 
L 263.945749 57.202353 
L 265.245667 57.878633 
L 265.570647 58.280896 
L 265.895627 58.158876 
L 266.870565 57.345697 
L 267.520524 57.239607 
L 267.845504 57.443523 
L 268.170483 57.188166 
L 268.495463 57.224209 
L 269.145422 57.939539 
L 269.470401 57.950856 
L 269.795381 57.790591 
L 270.44534 57.209519 
L 271.745258 56.693659 
L 272.070238 56.679359 
L 272.720197 56.367874 
L 273.045176 56.431156 
L 273.370156 56.129374 
L 274.020115 56.248561 
L 274.345094 56.592994 
L 274.670074 56.505343 
L 274.995053 56.650957 
L 275.320033 57.048416 
L 275.969992 57.268658 
L 276.294971 57.109679 
L 276.619951 57.390706 
L 276.94493 57.048287 
L 277.26991 56.952319 
L 277.594889 56.986083 
L 277.919869 56.494723 
L 278.244848 56.235639 
L 278.569828 56.260481 
L 278.894808 56.564284 
L 279.219787 56.584611 
L 279.544767 56.764873 
L 279.869746 56.147644 
L 280.194726 56.304717 
L 280.844685 56.11301 
L 281.169664 55.505285 
L 281.819623 55.455227 
L 282.144603 55.236974 
L 282.794562 55.356956 
L 283.119541 55.200123 
L 283.7695 55.210016 
L 284.09448 55.028083 
L 284.419459 55.294657 
L 285.394398 54.617524 
L 285.719378 54.724757 
L 286.044357 54.986105 
L 286.369337 54.813322 
L 286.694316 54.927839 
L 287.019296 54.746747 
L 287.669255 55.313863 
L 287.994234 55.03254 
L 288.319214 54.90523 
L 288.969173 55.160672 
L 289.294152 55.490958 
L 289.619132 55.44981 
L 290.59407 54.728998 
L 291.569009 55.24385 
L 291.893989 55.534957 
L 292.218968 55.241124 
L 292.868927 55.364679 
L 293.518886 55.690597 
L 293.843866 55.931359 
L 294.168845 55.96401 
L 294.493825 55.75748 
L 294.818804 55.415855 
L 295.143784 55.717037 
L 295.793743 55.834964 
L 296.443702 55.347578 
L 297.093661 55.636377 
L 297.74362 55.510679 
L 298.0686 55.508912 
L 298.393579 55.775467 
L 298.718559 55.364873 
L 299.368518 55.402811 
L 300.018477 55.761226 
L 300.343456 55.901256 
L 300.993415 55.601531 
L 301.318395 55.255265 
L 301.643374 55.550866 
L 301.968354 55.527255 
L 302.293333 55.641936 
L 302.618313 55.442504 
L 302.943292 55.427952 
L 303.268272 55.533899 
L 303.593251 55.333148 
L 303.918231 55.708135 
L 304.24321 55.670784 
L 304.89317 56.121466 
L 305.218149 56.105924 
L 305.543129 55.809671 
L 305.868108 55.670976 
L 306.193088 55.989836 
L 306.518067 56.027742 
L 306.843047 56.369747 
L 307.168026 56.467025 
L 307.493006 56.283567 
L 307.817985 56.617225 
L 308.142965 56.678568 
L 308.467944 56.583807 
L 309.117903 56.032822 
L 309.442883 56.225985 
L 309.767862 56.577474 
L 310.092842 56.451041 
L 310.742801 56.578521 
L 311.39276 56.934635 
L 311.71774 56.702209 
L 312.042719 56.892592 
L 312.367699 57.291412 
L 313.017658 57.54362 
L 313.342637 57.822619 
L 313.667617 57.580673 
L 314.317576 57.705356 
L 314.642555 57.900703 
L 314.967535 57.459428 
L 315.292514 57.713219 
L 316.917412 57.271501 
L 317.242391 57.466798 
L 317.567371 57.444771 
L 317.892351 57.220225 
L 318.21733 57.19316 
L 318.867289 57.327419 
L 319.192269 57.164525 
L 319.517248 57.202568 
L 319.842228 57.000082 
L 320.167207 56.516953 
L 320.492187 56.736854 
L 320.817166 56.551508 
L 321.142146 56.57969 
L 321.467125 56.473714 
L 321.792105 56.017208 
L 322.117084 56.105021 
L 322.442064 56.423461 
L 323.417002 56.392503 
L 324.066962 56.894537 
L 324.391941 56.810562 
L 324.716921 57.030537 
L 325.0419 57.015125 
L 325.691859 56.256854 
L 326.016839 56.143914 
L 326.341818 56.313939 
L 326.991777 56.262622 
L 327.316757 56.606072 
L 327.641736 56.420481 
L 327.966716 56.075439 
L 329.591613 56.647719 
L 330.241572 56.100275 
L 331.216511 56.443535 
L 331.86647 55.983394 
L 332.19145 55.875874 
L 332.516429 55.887578 
L 332.841409 56.073899 
L 333.166388 55.945649 
L 333.816347 56.219659 
L 334.466306 56.144151 
L 334.791286 55.833801 
L 335.116265 55.76948 
L 336.091204 55.953989 
L 336.416183 55.468406 
L 337.066143 55.636177 
L 337.391122 55.622893 
L 337.716102 55.396936 
L 338.041081 55.397151 
L 338.366061 55.640105 
L 338.69104 55.23843 
L 339.01602 55.228972 
L 339.340999 55.44519 
L 339.665979 55.394645 
L 340.315938 55.497584 
L 341.290876 55.421368 
L 342.265815 55.859233 
L 343.565733 56.591197 
L 343.890713 56.8891 
L 344.215692 56.926075 
L 344.865651 57.437826 
L 345.190631 57.01311 
L 345.51561 57.064523 
L 345.84059 57.295355 
L 346.165569 57.374571 
L 346.490549 57.723731 
L 346.815528 57.420667 
L 347.140508 57.29553 
L 347.465487 57.486023 
L 347.790467 57.440276 
L 348.765405 57.890443 
L 349.090385 58.232824 
L 349.415364 58.28684 
L 350.390303 57.866749 
L 351.365242 58.12899 
L 352.015201 57.75579 
L 352.34018 57.877824 
L 352.66516 58.184915 
L 353.965078 58.790129 
L 354.290057 58.637197 
L 354.615037 58.922416 
L 354.940016 59.021251 
L 355.264996 58.630018 
L 355.589975 58.83445 
L 355.914955 58.737051 
L 356.889894 57.911726 
L 357.214873 57.667561 
L 357.864832 57.742494 
L 358.189812 58.046093 
L 359.16475 58.223083 
L 359.48973 58.022212 
L 360.464668 58.325009 
L 360.789648 58.066068 
L 361.114627 58.184115 
L 362.089566 58.103839 
L 362.414545 57.963718 
L 363.389484 58.325651 
L 364.039443 58.019103 
L 364.364423 58.077491 
L 364.689402 57.993593 
L 365.014382 58.28402 
L 365.339361 58.225662 
L 365.98932 57.729951 
L 366.639279 58.009708 
L 367.614218 57.747753 
L 367.939197 57.89868 
L 368.264177 58.191523 
L 368.589156 58.296329 
L 368.914136 58.118382 
L 369.239115 58.105409 
L 369.564095 58.203828 
L 370.864013 57.57551 
L 371.513972 57.736102 
L 371.838952 58.045669 
L 372.163931 58.04164 
L 372.488911 57.886915 
L 372.81389 57.952674 
L 373.13887 57.769428 
L 373.788829 57.750897 
L 374.113808 57.52438 
L 374.438788 57.722483 
L 375.088747 57.536672 
L 375.738706 57.634932 
L 376.063686 57.013346 
L 376.388665 56.940209 
L 376.713645 57.103719 
L 377.038624 56.898829 
L 377.363604 56.911993 
L 377.688583 56.777694 
L 378.663522 57.059422 
L 378.988501 56.860645 
L 379.96344 57.203354 
L 380.288419 56.979141 
L 380.613399 57.144865 
L 380.938378 57.045088 
L 381.263358 57.221537 
L 381.588337 57.230274 
L 381.913317 56.979109 
L 382.563276 57.08364 
L 383.213235 56.519544 
L 384.513153 56.757283 
L 384.838133 56.577549 
L 385.163112 56.11682 
L 385.488092 56.133811 
L 386.138051 56.448787 
L 386.46303 56.576956 
L 387.437969 56.332837 
L 387.762948 56.512613 
L 388.087928 56.557743 
L 388.412907 56.777288 
L 389.062867 56.40137 
L 389.712826 56.17969 
L 390.037805 56.358798 
L 390.687764 55.900598 
L 391.987682 56.045228 
L 392.312662 56.217493 
L 393.2876 55.973383 
L 393.61258 55.750108 
L 393.937559 55.8677 
L 394.587518 55.260053 
L 394.912498 55.367591 
L 395.237477 55.327965 
L 395.562457 55.46663 
L 396.212416 55.302453 
L 396.862375 55.363116 
L 397.512334 55.038557 
L 397.837314 54.746558 
L 398.487273 54.49941 
L 398.487273 54.49941 
" clip-path="url(#p256e3ac842)" style="fill: none; stroke-dasharray: 2,3.3; stroke-dashoffset: 0; stroke: #0000ff; stroke-width: 2"/>
   </g>
   <g id="line2d_15">
    <path d="M 73.832727 295.488 
L 74.157707 274.183829 
L 74.482686 201.587252 
L 74.807666 190.786622 
L 75.457625 124.907515 
L 75.782604 138.635019 
L 76.107584 143.745401 
L 76.432563 127.829448 
L 76.757543 101.208578 
L 77.082523 111.335347 
L 77.407502 109.479247 
L 78.057461 86.797075 
L 78.382441 90.524025 
L 78.70742 101.437158 
L 79.0324 106.028734 
L 79.357379 108.164018 
L 79.682359 106.237293 
L 80.007338 105.687249 
L 80.332318 106.388917 
L 80.982277 82.173285 
L 81.307256 85.109937 
L 81.632236 82.584126 
L 81.957215 83.605331 
L 82.282195 80.929437 
L 82.932154 82.854994 
L 83.257133 80.705998 
L 83.582113 74.946087 
L 83.907093 82.484571 
L 84.232072 81.936768 
L 84.557052 83.96511 
L 84.882031 80.777862 
L 85.207011 81.187798 
L 85.53199 82.481041 
L 85.85697 87.657283 
L 86.181949 84.146791 
L 86.506929 85.203045 
L 86.831908 79.499574 
L 87.156888 76.914494 
L 87.481867 75.74555 
L 87.806847 71.605219 
L 88.131826 73.016479 
L 88.456806 72.068233 
L 88.781785 74.169646 
L 89.106765 74.355456 
L 89.431744 75.083901 
L 89.756724 71.7052 
L 90.081704 71.332106 
L 90.406683 73.934626 
L 90.731663 71.699582 
L 91.056642 71.364606 
L 91.381622 74.001193 
L 91.706601 70.598077 
L 92.031581 73.985378 
L 92.35656 72.030709 
L 92.68154 72.007661 
L 93.006519 74.745651 
L 93.331499 75.648007 
L 93.656478 78.357533 
L 93.981458 78.610118 
L 94.306437 78.159525 
L 94.631417 76.364316 
L 94.956396 78.044481 
L 95.281376 80.587237 
L 95.931335 75.584186 
L 96.256314 79.287309 
L 96.581294 76.729236 
L 96.906274 76.625675 
L 97.231253 74.612167 
L 97.556233 73.861373 
L 97.881212 77.396189 
L 98.206192 77.61045 
L 98.531171 76.208026 
L 98.856151 77.844568 
L 99.18113 78.732749 
L 99.50611 78.92357 
L 99.831089 77.866007 
L 100.156069 76.032136 
L 100.481048 75.470882 
L 100.806028 75.587646 
L 101.131007 75.865236 
L 101.455987 76.363392 
L 101.780966 72.839775 
L 102.430925 74.094344 
L 102.755905 75.668726 
L 103.080885 74.532973 
L 103.405864 74.793237 
L 103.730844 75.270019 
L 104.055823 76.886662 
L 104.380803 76.664153 
L 104.705782 79.980321 
L 105.030762 79.482434 
L 105.355741 81.10262 
L 105.680721 81.988051 
L 106.0057 78.293089 
L 106.33068 79.689257 
L 106.655659 79.447523 
L 106.980639 78.5453 
L 107.305618 78.484128 
L 107.630598 79.293487 
L 107.955577 77.029429 
L 108.280557 77.714819 
L 108.605536 76.74178 
L 108.930516 75.317316 
L 109.255495 74.749361 
L 110.230434 77.98261 
L 110.555414 77.33712 
L 110.880393 79.392773 
L 111.205373 79.644108 
L 111.530352 76.18031 
L 111.855332 76.169628 
L 112.180311 77.016644 
L 112.505291 75.416478 
L 113.15525 78.230072 
L 113.480229 76.517722 
L 113.805209 76.204897 
L 114.130188 74.580106 
L 114.455168 74.809475 
L 115.430106 68.84726 
L 115.755086 68.701885 
L 116.080066 67.727031 
L 116.405045 68.47619 
L 116.730025 68.484301 
L 117.055004 66.965181 
L 117.379984 67.067627 
L 117.704963 66.768252 
L 118.029943 67.027753 
L 118.354922 68.853675 
L 118.679902 69.2349 
L 119.004881 70.187779 
L 119.329861 71.702824 
L 119.65484 71.496137 
L 119.97982 73.101272 
L 120.304799 72.230564 
L 120.629779 71.874197 
L 120.954758 71.31787 
L 121.279738 69.623225 
L 121.604717 70.724905 
L 121.929697 69.095105 
L 122.579656 68.568319 
L 122.904636 69.739774 
L 123.554595 72.837346 
L 123.879574 72.644948 
L 124.204554 71.078516 
L 124.854513 70.668518 
L 125.179492 68.945916 
L 125.829451 70.61005 
L 126.154431 69.38359 
L 126.47941 70.356331 
L 126.80439 69.968647 
L 127.129369 70.972564 
L 127.454349 70.787248 
L 127.779328 71.747552 
L 128.104308 71.285302 
L 128.429287 70.118701 
L 128.754267 69.801443 
L 129.079247 70.971899 
L 129.404226 71.407889 
L 129.729206 72.450621 
L 130.054185 72.485985 
L 130.379165 72.264914 
L 130.704144 73.383859 
L 131.029124 74.03517 
L 131.354103 75.731924 
L 131.679083 75.246387 
L 132.004062 75.51782 
L 132.329042 74.664372 
L 132.979001 75.313287 
L 133.953939 73.357892 
L 134.278919 72.029226 
L 134.603898 71.723913 
L 134.928878 71.798548 
L 135.253857 72.19357 
L 135.578837 73.624241 
L 135.903817 73.132046 
L 136.228796 73.850082 
L 136.553776 74.217398 
L 136.878755 73.670049 
L 137.203735 75.270156 
L 137.528714 74.702034 
L 137.853694 74.75165 
L 138.178673 75.012224 
L 138.503653 75.46632 
L 138.828632 74.974965 
L 139.153612 75.740671 
L 139.478591 76.120305 
L 139.803571 75.913448 
L 140.12855 76.672651 
L 140.45353 76.971726 
L 140.778509 75.666298 
L 141.103489 75.944042 
L 141.428468 75.212982 
L 141.753448 75.060506 
L 142.078428 75.857422 
L 142.403407 75.425693 
L 142.728387 75.7695 
L 143.053366 75.750016 
L 143.378346 76.502162 
L 143.703325 76.358899 
L 144.028305 76.516209 
L 144.353284 75.936038 
L 144.678264 76.884933 
L 145.003243 76.913218 
L 145.328223 76.666818 
L 145.653202 76.031783 
L 145.978182 75.072967 
L 146.303161 75.144801 
L 146.628141 75.985278 
L 147.2781 75.794855 
L 147.928059 74.941214 
L 148.253038 75.095707 
L 148.578018 74.971479 
L 148.902998 74.988632 
L 149.227977 74.855484 
L 149.552957 76.211508 
L 150.202916 77.110382 
L 150.527895 76.68968 
L 150.852875 76.706268 
L 151.502834 76.03899 
L 151.827813 76.374699 
L 152.152793 76.023236 
L 152.477772 74.609444 
L 152.802752 73.696317 
L 153.127731 74.530522 
L 153.452711 74.063381 
L 153.77769 74.944822 
L 154.10267 75.378567 
L 154.427649 74.620454 
L 154.752629 74.178844 
L 155.077609 74.314036 
L 155.402588 74.764385 
L 155.727568 74.494545 
L 156.377527 73.124791 
L 157.027486 74.29706 
L 157.352465 75.518615 
L 157.677445 74.821533 
L 158.002424 75.512842 
L 158.327404 75.110836 
L 158.652383 75.487741 
L 158.977363 74.783229 
L 159.302342 75.744685 
L 159.627322 76.285679 
L 159.952301 76.139694 
L 160.277281 75.561262 
L 160.60226 75.704974 
L 160.92724 76.644258 
L 161.252219 75.933981 
L 161.577199 75.81312 
L 161.902179 76.3501 
L 162.227158 77.113326 
L 162.552138 76.202006 
L 162.877117 77.082091 
L 163.202097 77.103755 
L 163.527076 76.614742 
L 163.852056 76.374331 
L 164.177035 77.022611 
L 164.826994 79.027188 
L 165.151974 78.848897 
L 165.476953 77.868107 
L 165.801933 78.06664 
L 166.451892 76.533813 
L 166.776871 76.120816 
L 167.101851 76.26868 
L 167.42683 75.766852 
L 167.75181 75.645363 
L 168.07679 75.269253 
L 168.401769 75.432391 
L 168.726749 74.976304 
L 169.051728 75.051237 
L 169.376708 75.311466 
L 169.701687 75.036156 
L 170.351646 75.829124 
L 170.676626 75.546481 
L 171.001605 75.478678 
L 171.326585 74.970777 
L 171.651564 74.992529 
L 171.976544 74.719841 
L 172.301523 73.937049 
L 172.626503 73.699117 
L 172.951482 72.655167 
L 173.276462 72.584309 
L 173.601441 72.707882 
L 174.2514 72.585939 
L 174.57638 71.739625 
L 174.90136 71.572684 
L 175.226339 71.688799 
L 175.551319 71.644619 
L 176.201278 72.187079 
L 176.851237 72.324582 
L 177.826175 73.08671 
L 178.151155 73.32508 
L 179.126093 72.633692 
L 179.451073 73.282051 
L 179.776052 72.398606 
L 180.101032 72.22218 
L 180.426011 71.900761 
L 180.750991 71.354735 
L 181.075971 71.648365 
L 181.40095 71.384989 
L 181.72593 70.863915 
L 182.375889 71.381423 
L 182.700868 71.156929 
L 183.025848 71.426614 
L 183.675807 70.407074 
L 184.000786 70.232903 
L 184.325766 70.635081 
L 184.650745 70.625256 
L 184.975725 70.846645 
L 185.300704 70.208151 
L 185.625684 70.765407 
L 185.950663 70.822007 
L 186.275643 71.444673 
L 186.600622 70.85178 
L 186.925602 71.612789 
L 187.250581 71.597326 
L 187.575561 71.83244 
L 187.900541 71.622087 
L 188.22552 72.015183 
L 188.5505 71.862964 
L 188.875479 72.292291 
L 189.200459 71.394544 
L 189.525438 71.265373 
L 189.850418 70.602376 
L 190.175397 70.634163 
L 190.500377 70.264128 
L 190.825356 70.527654 
L 191.150336 71.006598 
L 191.475315 70.704569 
L 191.800295 70.654938 
L 192.125274 71.084246 
L 192.450254 71.087749 
L 192.775233 71.600259 
L 193.100213 71.195761 
L 193.425192 71.753088 
L 193.750172 71.645603 
L 194.075152 71.790694 
L 194.400131 71.350795 
L 194.725111 70.698908 
L 195.05009 71.476731 
L 195.700049 71.737024 
L 196.025029 71.539798 
L 196.350008 71.008329 
L 196.674988 71.422205 
L 196.999967 71.568303 
L 197.324947 72.069197 
L 197.649926 72.779092 
L 197.974906 72.405214 
L 198.299885 72.526781 
L 198.624865 72.31814 
L 198.949844 73.079939 
L 199.274824 72.255222 
L 199.599803 71.840852 
L 200.574742 72.067466 
L 200.899722 72.511502 
L 201.224701 72.245253 
L 201.549681 71.661267 
L 201.87466 71.823536 
L 202.19964 72.394481 
L 202.524619 71.843986 
L 202.849599 72.037516 
L 203.824537 71.386198 
L 204.149517 71.987648 
L 204.799476 72.578995 
L 205.124455 72.246943 
L 205.449435 72.077908 
L 205.774414 72.07852 
L 206.749353 71.147171 
L 207.074333 71.589355 
L 207.399312 71.740945 
L 208.049271 71.483938 
L 208.374251 71.800546 
L 208.69923 71.877265 
L 209.02421 71.273489 
L 209.349189 71.091973 
L 209.674169 71.239987 
L 210.974087 72.722492 
L 211.299066 72.877087 
L 211.624046 72.447421 
L 211.949025 72.418663 
L 212.274005 72.277735 
L 212.598984 71.739751 
L 212.923964 72.014054 
L 213.248943 72.101334 
L 213.573923 71.466111 
L 213.898903 71.485474 
L 214.223882 71.91743 
L 214.548862 71.568296 
L 214.873841 71.904469 
L 215.198821 71.938101 
L 216.823718 71.180187 
L 217.148698 70.492346 
L 217.473677 70.581061 
L 217.798657 70.114799 
L 218.448616 70.165226 
L 218.773595 70.391221 
L 219.098575 70.398497 
L 219.748534 70.761813 
L 220.073514 71.361853 
L 220.723473 71.788134 
L 221.048452 71.390059 
L 221.373432 71.223883 
L 221.698411 70.69923 
L 222.023391 70.889811 
L 222.34837 70.478372 
L 222.67335 70.731766 
L 222.998329 70.394858 
L 223.323309 69.802223 
L 223.648288 70.348586 
L 223.973268 70.245899 
L 224.298247 70.33341 
L 224.948206 70.08524 
L 225.273186 70.256077 
L 225.598165 70.612753 
L 226.248124 70.702455 
L 226.573104 70.325279 
L 226.898084 70.445606 
L 227.548043 70.059562 
L 228.198002 70.462788 
L 228.522981 70.548608 
L 228.847961 70.837985 
L 229.17294 70.659021 
L 229.822899 70.729571 
L 230.147879 70.272272 
L 230.472858 70.387429 
L 230.797838 70.190732 
L 231.447797 70.728028 
L 231.772776 70.129724 
L 232.097756 70.177903 
L 232.422735 69.989342 
L 233.072695 70.438661 
L 233.397674 70.097743 
L 234.047633 70.997652 
L 234.372613 70.825225 
L 234.697592 70.50094 
L 235.022572 70.734362 
L 235.347551 70.52527 
L 236.972449 70.520771 
L 237.297428 70.258185 
L 238.272367 71.00383 
L 238.597346 71.025533 
L 238.922326 71.322681 
L 239.247305 70.587979 
L 239.897265 71.315484 
L 240.222244 71.114592 
L 240.547224 71.10521 
L 241.197183 71.535132 
L 241.522162 71.419593 
L 241.847142 71.146599 
L 242.172121 71.215978 
L 242.497101 71.116936 
L 242.82208 71.242666 
L 243.14706 71.697492 
L 243.472039 71.373193 
L 243.797019 71.632516 
L 244.446978 71.949083 
L 244.771957 71.773509 
L 245.096937 72.16082 
L 245.746896 71.947502 
L 246.071876 71.898336 
L 246.396855 72.225984 
L 246.721835 71.880749 
L 247.046814 71.36645 
L 247.371794 71.510598 
L 248.021753 72.428514 
L 248.346732 72.743975 
L 248.671712 72.569709 
L 248.996691 72.646321 
L 249.321671 72.870768 
L 249.64665 72.798684 
L 249.97163 73.232284 
L 250.296609 72.929807 
L 250.946568 73.758266 
L 251.271548 73.61448 
L 251.921507 73.72069 
L 252.246486 73.546774 
L 252.896446 74.094229 
L 253.221425 73.597081 
L 253.546405 73.619402 
L 254.521343 74.097236 
L 254.846323 73.815359 
L 255.171302 74.096042 
L 255.496282 73.682849 
L 255.821261 73.470353 
L 256.146241 73.531074 
L 256.47122 73.830416 
L 256.7962 73.257709 
L 257.446159 73.232916 
L 258.096118 72.564877 
L 258.421097 72.885529 
L 258.746077 72.735742 
L 259.071057 72.837329 
L 259.396036 73.064095 
L 260.370975 72.310277 
L 260.695954 72.343662 
L 261.020934 72.520627 
L 261.670893 72.163195 
L 261.995872 72.167186 
L 262.320852 72.39646 
L 262.645831 71.968446 
L 262.970811 71.741434 
L 263.62077 72.339799 
L 263.945749 72.358605 
L 264.270729 72.730538 
L 264.920688 72.760597 
L 265.570647 73.518547 
L 266.545586 72.732778 
L 266.870565 72.625466 
L 267.195545 72.722212 
L 267.520524 72.587373 
L 267.845504 72.770913 
L 268.495463 72.411924 
L 268.820442 72.422576 
L 269.470401 72.904477 
L 270.12036 72.654218 
L 271.095299 72.858506 
L 271.420278 72.649446 
L 271.745258 72.616348 
L 272.070238 72.821028 
L 272.720197 72.23773 
L 273.045176 72.009029 
L 273.695135 72.343556 
L 274.020115 72.380637 
L 274.345094 72.672514 
L 274.670074 72.680057 
L 274.995053 73.04135 
L 275.320033 72.756814 
L 275.969992 73.367896 
L 276.294971 73.465085 
L 276.619951 73.232031 
L 276.94493 73.320043 
L 277.594889 73.170648 
L 277.919869 73.424354 
L 278.244848 73.431864 
L 278.569828 73.146349 
L 279.219787 73.650086 
L 279.544767 73.643431 
L 279.869746 72.990462 
L 280.194726 73.215298 
L 280.844685 73.031731 
L 281.169664 72.477939 
L 282.144603 72.364711 
L 282.469582 72.31576 
L 283.119541 72.436057 
L 283.7695 72.513703 
L 284.09448 72.786373 
L 285.394398 72.075371 
L 285.719378 71.978214 
L 286.044357 72.255383 
L 286.369337 72.33536 
L 286.694316 72.626188 
L 287.019296 72.713418 
L 288.319214 71.960542 
L 288.644193 72.186291 
L 289.294152 72.389297 
L 289.619132 72.693179 
L 289.944111 72.594478 
L 290.59407 72.020126 
L 291.893989 72.663016 
L 292.218968 72.343732 
L 292.543948 72.392653 
L 293.518886 72.93935 
L 293.843866 72.735083 
L 294.168845 72.950388 
L 294.493825 72.718877 
L 295.143784 72.804184 
L 295.793743 73.287184 
L 296.118722 73.356416 
L 296.443702 73.121014 
L 296.768681 73.18388 
L 297.093661 72.875799 
L 297.41864 72.746109 
L 298.0686 72.838642 
L 298.393579 73.105051 
L 298.718559 73.116288 
L 299.043538 73.335378 
L 299.368518 72.9007 
L 299.693497 72.939654 
L 300.018477 72.701232 
L 300.668436 73.048675 
L 301.318395 72.700455 
L 301.643374 73.010864 
L 303.268272 72.887593 
L 303.593251 72.673042 
L 303.918231 72.611709 
L 304.89317 73.366977 
L 305.218149 73.327248 
L 305.543129 73.006876 
L 305.868108 72.850742 
L 306.193088 73.145608 
L 306.518067 73.159587 
L 306.843047 73.45407 
L 307.168026 73.285621 
L 307.817985 73.490841 
L 308.142965 73.793135 
L 309.117903 73.168735 
L 310.417821 74.179768 
L 310.742801 74.345926 
L 311.067781 74.195705 
L 311.39276 74.200975 
L 312.042719 74.459058 
L 312.367699 74.191652 
L 312.692678 74.566426 
L 313.017658 74.698585 
L 313.342637 74.45489 
L 313.667617 74.710628 
L 314.642555 74.954033 
L 314.967535 74.489806 
L 315.292514 74.720707 
L 315.942473 74.532514 
L 316.267453 74.586917 
L 316.917412 74.396798 
L 317.242391 74.569262 
L 317.567371 74.524461 
L 317.892351 74.277203 
L 318.54231 74.381701 
L 318.867289 74.312083 
L 319.192269 74.126723 
L 319.517248 74.516778 
L 319.842228 74.389679 
L 320.167207 74.404927 
L 320.492187 74.173952 
L 320.817166 73.669525 
L 321.142146 73.872491 
L 321.467125 73.872254 
L 321.792105 73.443806 
L 322.117084 73.527198 
L 322.442064 73.374761 
L 323.092023 73.940027 
L 323.741982 73.77224 
L 324.066962 74.050754 
L 324.716921 73.506302 
L 325.0419 73.344276 
L 325.36688 73.542349 
L 325.691859 73.432232 
L 326.016839 73.580226 
L 326.666798 73.361464 
L 326.991777 73.111744 
L 327.316757 73.072155 
L 327.641736 72.865508 
L 327.966716 73.16186 
L 328.941654 73.606615 
L 329.266634 73.555079 
L 329.916593 73.649674 
L 330.566552 73.232906 
L 330.891532 73.466386 
L 331.216511 73.065307 
L 331.86647 73.301563 
L 332.19145 73.292594 
L 332.516429 73.056647 
L 332.841409 73.319615 
L 333.491368 73.169647 
L 333.816347 72.893164 
L 334.466306 73.130887 
L 334.791286 73.064342 
L 335.116265 72.733359 
L 336.741163 72.694228 
L 338.041081 73.258809 
L 338.366061 73.011767 
L 338.69104 72.990395 
L 339.990958 73.477943 
L 340.640917 73.339502 
L 340.965897 73.545756 
L 341.290876 73.576648 
L 341.940835 73.287925 
L 342.915774 73.648341 
L 343.890713 74.202882 
L 344.540672 74.365536 
L 345.51561 75.103429 
L 345.84059 74.909695 
L 346.165569 75.118983 
L 346.490549 75.176886 
L 346.815528 75.030487 
L 347.465487 75.465343 
L 347.790467 75.398293 
L 348.765405 75.782075 
L 349.415364 75.472613 
L 349.740344 75.793504 
L 350.065324 75.826758 
L 350.390303 75.746157 
L 351.040262 75.904575 
L 351.365242 75.731696 
L 351.690221 75.772938 
L 352.015201 75.609542 
L 352.34018 75.707288 
L 352.990139 76.165569 
L 353.640098 76.566219 
L 353.965078 76.2187 
L 354.290057 76.342577 
L 354.615037 76.607327 
L 354.940016 76.37932 
L 355.264996 76.337982 
L 355.589975 75.994093 
L 355.914955 76.099954 
L 357.214873 75.344301 
L 357.539853 75.408536 
L 357.864832 75.692293 
L 358.514791 75.771694 
L 358.839771 75.359429 
L 359.16475 75.326786 
L 359.48973 75.106479 
L 360.139689 75.16993 
L 360.464668 75.415988 
L 360.789648 75.514542 
L 361.114627 75.214313 
L 361.439607 75.153421 
L 361.764586 74.977398 
L 362.089566 75.065925 
L 362.414545 74.98764 
L 363.064505 75.08557 
L 363.389484 75.261162 
L 364.039443 74.916727 
L 364.364423 74.81392 
L 364.689402 75.085899 
L 365.014382 75.008745 
L 365.664341 74.475145 
L 365.98932 74.574043 
L 366.639279 74.361509 
L 366.964259 74.466025 
L 367.614218 74.176719 
L 367.939197 74.309513 
L 368.264177 74.623576 
L 368.914136 74.337427 
L 369.239115 74.448393 
L 369.564095 74.417509 
L 369.889075 74.229146 
L 370.539034 74.087439 
L 370.864013 74.253621 
L 371.188993 74.066998 
L 371.513972 74.109065 
L 371.838952 74.42283 
L 372.81389 74.291061 
L 373.13887 73.876139 
L 373.788829 74.000266 
L 374.113808 73.800266 
L 374.438788 73.811835 
L 374.763767 73.628509 
L 375.088747 73.808831 
L 375.413726 73.640574 
L 376.388665 73.635384 
L 376.713645 73.781 
L 377.038624 73.558254 
L 377.363604 73.5536 
L 378.338542 73.169876 
L 379.63846 73.515695 
L 379.96344 73.681604 
L 380.288419 73.499124 
L 380.613399 73.548059 
L 381.588337 74.099947 
L 381.913317 73.978276 
L 382.238296 73.736709 
L 382.563276 73.875117 
L 383.213235 73.949849 
L 383.538215 74.180837 
L 383.863194 74.153193 
L 384.513153 73.555782 
L 385.163112 73.779311 
L 385.488092 73.58222 
L 385.813071 73.603133 
L 386.138051 73.795279 
L 386.46303 73.753592 
L 387.112989 73.983143 
L 387.437969 73.865821 
L 388.087928 74.127365 
L 388.412907 74.331178 
L 389.062867 73.919103 
L 389.712826 73.784331 
L 390.362785 73.418768 
L 391.337723 73.510007 
L 391.987682 73.841302 
L 392.637641 73.532144 
L 393.2876 73.601778 
L 394.262539 73.114751 
L 394.912498 73.467341 
L 395.237477 73.401879 
L 395.887437 73.668648 
L 396.862375 73.341477 
L 397.512334 73.175678 
L 397.837314 72.86131 
L 398.487273 72.619441 
L 398.487273 72.619441 
" clip-path="url(#p256e3ac842)" style="fill: none; stroke-dasharray: 2,3.3; stroke-dashoffset: 0; stroke: #ffa500; stroke-width: 2"/>
   </g>
   <g id="patch_3">
    <path d="M 57.6 307.584 
L 57.6 41.472 
" style="fill: none; stroke: #000000; stroke-width: 0.8; stroke-linejoin: miter; stroke-linecap: square"/>
   </g>
   <g id="patch_4">
    <path d="M 414.72 307.584 
L 414.72 41.472 
" style="fill: none; stroke: #000000; stroke-width: 0.8; stroke-linejoin: miter; stroke-linecap: square"/>
   </g>
   <g id="patch_5">
    <path d="M 57.6 307.584 
L 414.72 307.584 
" style="fill: none; stroke: #000000; stroke-width: 0.8; stroke-linejoin: miter; stroke-linecap: square"/>
   </g>
   <g id="patch_6">
    <path d="M 57.6 41.472 
L 414.72 41.472 
" style="fill: none; stroke: #000000; stroke-width: 0.8; stroke-linejoin: miter; stroke-linecap: square"/>
   </g>
   <g id="text_16">
    <!-- Waiting Time Plot -->
    <g transform="translate(183.833438 8.2635)scale(0.12 -0.12)">
     <defs>
      <path id="DejaVuSans-50" d="M 1259 4147 
L 1259 2394 
L 2053 2394 
Q 2494 2394 2734 2622 
Q 2975 2850 2975 3272 
Q 2975 3691 2734 3919 
Q 2494 4147 2053 4147 
L 1259 4147 
z
M 628 4666 
L 2053 4666 
Q 2838 4666 3239 4311 
Q 3641 3956 3641 3272 
Q 3641 2581 3239 2228 
Q 2838 1875 2053 1875 
L 1259 1875 
L 1259 0 
L 628 0 
L 628 4666 
z
" transform="scale(0.015625)"/>
      <path id="DejaVuSans-6c" d="M 603 4863 
L 1178 4863 
L 1178 0 
L 603 0 
L 603 4863 
z
" transform="scale(0.015625)"/>
     </defs>
     <use xlink:href="#DejaVuSans-57"/>
     <use xlink:href="#DejaVuSans-61" x="92.501953"/>
     <use xlink:href="#DejaVuSans-69" x="153.78125"/>
     <use xlink:href="#DejaVuSans-74" x="181.564453"/>
     <use xlink:href="#DejaVuSans-69" x="220.773438"/>
     <use xlink:href="#DejaVuSans-6e" x="248.556641"/>
     <use xlink:href="#DejaVuSans-67" x="311.935547"/>
     <use xlink:href="#DejaVuSans-20" x="375.412109"/>
     <use xlink:href="#DejaVuSans-54" x="407.199219"/>
     <use xlink:href="#DejaVuSans-69" x="465.158203"/>
     <use xlink:href="#DejaVuSans-6d" x="492.941406"/>
     <use xlink:href="#DejaVuSans-65" x="590.353516"/>
     <use xlink:href="#DejaVuSans-20" x="651.876953"/>
     <use xlink:href="#DejaVuSans-50" x="683.664062"/>
     <use xlink:href="#DejaVuSans-6c" x="743.966797"/>
     <use xlink:href="#DejaVuSans-6f" x="771.75"/>
     <use xlink:href="#DejaVuSans-74" x="832.931641"/>
    </g>
    <!--  avg_d = 487.7048861076525  -->
    <g transform="translate(142.671562 21.700875)scale(0.12 -0.12)">
     <defs>
      <path id="DejaVuSans-76" d="M 191 3500 
L 800 3500 
L 1894 563 
L 2988 3500 
L 3597 3500 
L 2284 0 
L 1503 0 
L 191 3500 
z
" transform="scale(0.015625)"/>
      <path id="DejaVuSans-5f" d="M 3263 -1063 
L 3263 -1509 
L -63 -1509 
L -63 -1063 
L 3263 -1063 
z
" transform="scale(0.015625)"/>
      <path id="DejaVuSans-3d" d="M 678 2906 
L 4684 2906 
L 4684 2381 
L 678 2381 
L 678 2906 
z
M 678 1631 
L 4684 1631 
L 4684 1100 
L 678 1100 
L 678 1631 
z
" transform="scale(0.015625)"/>
      <path id="DejaVuSans-37" d="M 525 4666 
L 3525 4666 
L 3525 4397 
L 1831 0 
L 1172 0 
L 2766 4134 
L 525 4134 
L 525 4666 
z
" transform="scale(0.015625)"/>
      <path id="DejaVuSans-2e" d="M 684 794 
L 1344 794 
L 1344 0 
L 684 0 
L 684 794 
z
" transform="scale(0.015625)"/>
     </defs>
     <use xlink:href="#DejaVuSans-20"/>
     <use xlink:href="#DejaVuSans-61" x="31.787109"/>
     <use xlink:href="#DejaVuSans-76" x="93.066406"/>
     <use xlink:href="#DejaVuSans-67" x="152.246094"/>
     <use xlink:href="#DejaVuSans-5f" x="215.722656"/>
     <use xlink:href="#DejaVuSans-64" x="265.722656"/>
     <use xlink:href="#DejaVuSans-20" x="329.199219"/>
     <use xlink:href="#DejaVuSans-3d" x="360.986328"/>
     <use xlink:href="#DejaVuSans-20" x="444.775391"/>
     <use xlink:href="#DejaVuSans-34" x="476.5625"/>
     <use xlink:href="#DejaVuSans-38" x="540.185547"/>
     <use xlink:href="#DejaVuSans-37" x="603.808594"/>
     <use xlink:href="#DejaVuSans-2e" x="667.431641"/>
     <use xlink:href="#DejaVuSans-37" x="699.21875"/>
     <use xlink:href="#DejaVuSans-30" x="762.841797"/>
     <use xlink:href="#DejaVuSans-34" x="826.464844"/>
     <use xlink:href="#DejaVuSans-38" x="890.087891"/>
     <use xlink:href="#DejaVuSans-38" x="953.710938"/>
     <use xlink:href="#DejaVuSans-36" x="1017.333984"/>
     <use xlink:href="#DejaVuSans-31" x="1080.957031"/>
     <use xlink:href="#DejaVuSans-30" x="1144.580078"/>
     <use xlink:href="#DejaVuSans-37" x="1208.203125"/>
     <use xlink:href="#DejaVuSans-36" x="1271.826172"/>
     <use xlink:href="#DejaVuSans-35" x="1335.449219"/>
     <use xlink:href="#DejaVuSans-32" x="1399.072266"/>
     <use xlink:href="#DejaVuSans-35" x="1462.695312"/>
     <use xlink:href="#DejaVuSans-20" x="1526.318359"/>
    </g>
    <!--  avg_a = 463.8468369782553diff = 23.858049129397216 -->
    <g transform="translate(59.364375 35.472)scale(0.12 -0.12)">
     <defs>
      <path id="DejaVuSans-39" d="M 703 97 
L 703 672 
Q 941 559 1184 500 
Q 1428 441 1663 441 
Q 2288 441 2617 861 
Q 2947 1281 2994 2138 
Q 2813 1869 2534 1725 
Q 2256 1581 1919 1581 
Q 1219 1581 811 2004 
Q 403 2428 403 3163 
Q 403 3881 828 4315 
Q 1253 4750 1959 4750 
Q 2769 4750 3195 4129 
Q 3622 3509 3622 2328 
Q 3622 1225 3098 567 
Q 2575 -91 1691 -91 
Q 1453 -91 1209 -44 
Q 966 3 703 97 
z
M 1959 2075 
Q 2384 2075 2632 2365 
Q 2881 2656 2881 3163 
Q 2881 3666 2632 3958 
Q 2384 4250 1959 4250 
Q 1534 4250 1286 3958 
Q 1038 3666 1038 3163 
Q 1038 2656 1286 2365 
Q 1534 2075 1959 2075 
z
" transform="scale(0.015625)"/>
     </defs>
     <use xlink:href="#DejaVuSans-20"/>
     <use xlink:href="#DejaVuSans-61" x="31.787109"/>
     <use xlink:href="#DejaVuSans-76" x="93.066406"/>
     <use xlink:href="#DejaVuSans-67" x="152.246094"/>
     <use xlink:href="#DejaVuSans-5f" x="215.722656"/>
     <use xlink:href="#DejaVuSans-61" x="265.722656"/>
     <use xlink:href="#DejaVuSans-20" x="327.001953"/>
     <use xlink:href="#DejaVuSans-3d" x="358.789062"/>
     <use xlink:href="#DejaVuSans-20" x="442.578125"/>
     <use xlink:href="#DejaVuSans-34" x="474.365234"/>
     <use xlink:href="#DejaVuSans-36" x="537.988281"/>
     <use xlink:href="#DejaVuSans-33" x="601.611328"/>
     <use xlink:href="#DejaVuSans-2e" x="665.234375"/>
     <use xlink:href="#DejaVuSans-38" x="697.021484"/>
     <use xlink:href="#DejaVuSans-34" x="760.644531"/>
     <use xlink:href="#DejaVuSans-36" x="824.267578"/>
     <use xlink:href="#DejaVuSans-38" x="887.890625"/>
     <use xlink:href="#DejaVuSans-33" x="951.513672"/>
     <use xlink:href="#DejaVuSans-36" x="1015.136719"/>
     <use xlink:href="#DejaVuSans-39" x="1078.759766"/>
     <use xlink:href="#DejaVuSans-37" x="1142.382812"/>
     <use xlink:href="#DejaVuSans-38" x="1206.005859"/>
     <use xlink:href="#DejaVuSans-32" x="1269.628906"/>
     <use xlink:href="#DejaVuSans-35" x="1333.251953"/>
     <use xlink:href="#DejaVuSans-35" x="1396.875"/>
     <use xlink:href="#DejaVuSans-33" x="1460.498047"/>
     <use xlink:href="#DejaVuSans-64" x="1524.121094"/>
     <use xlink:href="#DejaVuSans-69" x="1587.597656"/>
     <use xlink:href="#DejaVuSans-66" x="1615.380859"/>
     <use xlink:href="#DejaVuSans-66" x="1650.585938"/>
     <use xlink:href="#DejaVuSans-20" x="1685.791016"/>
     <use xlink:href="#DejaVuSans-3d" x="1717.578125"/>
     <use xlink:href="#DejaVuSans-20" x="1801.367188"/>
     <use xlink:href="#DejaVuSans-32" x="1833.154297"/>
     <use xlink:href="#DejaVuSans-33" x="1896.777344"/>
     <use xlink:href="#DejaVuSans-2e" x="1960.400391"/>
     <use xlink:href="#DejaVuSans-38" x="1992.1875"/>
     <use xlink:href="#DejaVuSans-35" x="2055.810547"/>
     <use xlink:href="#DejaVuSans-38" x="2119.433594"/>
     <use xlink:href="#DejaVuSans-30" x="2183.056641"/>
     <use xlink:href="#DejaVuSans-34" x="2246.679688"/>
     <use xlink:href="#DejaVuSans-39" x="2310.302734"/>
     <use xlink:href="#DejaVuSans-31" x="2373.925781"/>
     <use xlink:href="#DejaVuSans-32" x="2437.548828"/>
     <use xlink:href="#DejaVuSans-39" x="2501.171875"/>
     <use xlink:href="#DejaVuSans-33" x="2564.794922"/>
     <use xlink:href="#DejaVuSans-39" x="2628.417969"/>
     <use xlink:href="#DejaVuSans-37" x="2692.041016"/>
     <use xlink:href="#DejaVuSans-32" x="2755.664062"/>
     <use xlink:href="#DejaVuSans-31" x="2819.287109"/>
     <use xlink:href="#DejaVuSans-36" x="2882.910156"/>
    </g>
   </g>
   <g id="legend_1">
    <g id="patch_7">
     <path d="M 263.88875 302.584 
L 407.72 302.584 
Q 409.72 302.584 409.72 300.584 
L 409.72 272.22775 
Q 409.72 270.22775 407.72 270.22775 
L 263.88875 270.22775 
Q 261.88875 270.22775 261.88875 272.22775 
L 261.88875 300.584 
Q 261.88875 302.584 263.88875 302.584 
z
" style="fill: #ffffff; opacity: 0.8; stroke: #cccccc; stroke-linejoin: miter"/>
    </g>
    <g id="line2d_16">
     <path d="M 265.88875 278.326187 
L 275.88875 278.326187 
L 285.88875 278.326187 
" style="fill: none; stroke-dasharray: 2,3.3; stroke-dashoffset: 0; stroke: #0000ff; stroke-width: 2"/>
    </g>
    <g id="text_17">
     <!-- Average (Default) -->
     <g transform="translate(293.88875 281.826187)scale(0.1 -0.1)">
      <defs>
       <path id="DejaVuSans-41" d="M 2188 4044 
L 1331 1722 
L 3047 1722 
L 2188 4044 
z
M 1831 4666 
L 2547 4666 
L 4325 0 
L 3669 0 
L 3244 1197 
L 1141 1197 
L 716 0 
L 50 0 
L 1831 4666 
z
" transform="scale(0.015625)"/>
       <path id="DejaVuSans-28" d="M 1984 4856 
Q 1566 4138 1362 3434 
Q 1159 2731 1159 2009 
Q 1159 1288 1364 580 
Q 1569 -128 1984 -844 
L 1484 -844 
Q 1016 -109 783 600 
Q 550 1309 550 2009 
Q 550 2706 781 3412 
Q 1013 4119 1484 4856 
L 1984 4856 
z
" transform="scale(0.015625)"/>
       <path id="DejaVuSans-44" d="M 1259 4147 
L 1259 519 
L 2022 519 
Q 2988 519 3436 956 
Q 3884 1394 3884 2338 
Q 3884 3275 3436 3711 
Q 2988 4147 2022 4147 
L 1259 4147 
z
M 628 4666 
L 1925 4666 
Q 3281 4666 3915 4102 
Q 4550 3538 4550 2338 
Q 4550 1131 3912 565 
Q 3275 0 1925 0 
L 628 0 
L 628 4666 
z
" transform="scale(0.015625)"/>
       <path id="DejaVuSans-29" d="M 513 4856 
L 1013 4856 
Q 1481 4119 1714 3412 
Q 1947 2706 1947 2009 
Q 1947 1309 1714 600 
Q 1481 -109 1013 -844 
L 513 -844 
Q 928 -128 1133 580 
Q 1338 1288 1338 2009 
Q 1338 2731 1133 3434 
Q 928 4138 513 4856 
z
" transform="scale(0.015625)"/>
      </defs>
      <use xlink:href="#DejaVuSans-41"/>
      <use xlink:href="#DejaVuSans-76" x="62.533203"/>
      <use xlink:href="#DejaVuSans-65" x="121.712891"/>
      <use xlink:href="#DejaVuSans-72" x="183.236328"/>
      <use xlink:href="#DejaVuSans-61" x="224.349609"/>
      <use xlink:href="#DejaVuSans-67" x="285.628906"/>
      <use xlink:href="#DejaVuSans-65" x="349.105469"/>
      <use xlink:href="#DejaVuSans-20" x="410.628906"/>
      <use xlink:href="#DejaVuSans-28" x="442.416016"/>
      <use xlink:href="#DejaVuSans-44" x="481.429688"/>
      <use xlink:href="#DejaVuSans-65" x="558.431641"/>
      <use xlink:href="#DejaVuSans-66" x="619.955078"/>
      <use xlink:href="#DejaVuSans-61" x="655.160156"/>
      <use xlink:href="#DejaVuSans-75" x="716.439453"/>
      <use xlink:href="#DejaVuSans-6c" x="779.818359"/>
      <use xlink:href="#DejaVuSans-74" x="807.601562"/>
      <use xlink:href="#DejaVuSans-29" x="846.810547"/>
     </g>
    </g>
    <g id="line2d_17">
     <path d="M 265.88875 293.004312 
L 275.88875 293.004312 
L 285.88875 293.004312 
" style="fill: none; stroke-dasharray: 2,3.3; stroke-dashoffset: 0; stroke: #ffa500; stroke-width: 2"/>
    </g>
    <g id="text_18">
     <!-- Average (Anticipation) -->
     <g transform="translate(293.88875 296.504312)scale(0.1 -0.1)">
      <defs>
       <path id="DejaVuSans-63" d="M 3122 3366 
L 3122 2828 
Q 2878 2963 2633 3030 
Q 2388 3097 2138 3097 
Q 1578 3097 1268 2742 
Q 959 2388 959 1747 
Q 959 1106 1268 751 
Q 1578 397 2138 397 
Q 2388 397 2633 464 
Q 2878 531 3122 666 
L 3122 134 
Q 2881 22 2623 -34 
Q 2366 -91 2075 -91 
Q 1284 -91 818 406 
Q 353 903 353 1747 
Q 353 2603 823 3093 
Q 1294 3584 2113 3584 
Q 2378 3584 2631 3529 
Q 2884 3475 3122 3366 
z
" transform="scale(0.015625)"/>
       <path id="DejaVuSans-70" d="M 1159 525 
L 1159 -1331 
L 581 -1331 
L 581 3500 
L 1159 3500 
L 1159 2969 
Q 1341 3281 1617 3432 
Q 1894 3584 2278 3584 
Q 2916 3584 3314 3078 
Q 3713 2572 3713 1747 
Q 3713 922 3314 415 
Q 2916 -91 2278 -91 
Q 1894 -91 1617 61 
Q 1341 213 1159 525 
z
M 3116 1747 
Q 3116 2381 2855 2742 
Q 2594 3103 2138 3103 
Q 1681 3103 1420 2742 
Q 1159 2381 1159 1747 
Q 1159 1113 1420 752 
Q 1681 391 2138 391 
Q 2594 391 2855 752 
Q 3116 1113 3116 1747 
z
" transform="scale(0.015625)"/>
      </defs>
      <use xlink:href="#DejaVuSans-41"/>
      <use xlink:href="#DejaVuSans-76" x="62.533203"/>
      <use xlink:href="#DejaVuSans-65" x="121.712891"/>
      <use xlink:href="#DejaVuSans-72" x="183.236328"/>
      <use xlink:href="#DejaVuSans-61" x="224.349609"/>
      <use xlink:href="#DejaVuSans-67" x="285.628906"/>
      <use xlink:href="#DejaVuSans-65" x="349.105469"/>
      <use xlink:href="#DejaVuSans-20" x="410.628906"/>
      <use xlink:href="#DejaVuSans-28" x="442.416016"/>
      <use xlink:href="#DejaVuSans-41" x="481.429688"/>
      <use xlink:href="#DejaVuSans-6e" x="549.837891"/>
      <use xlink:href="#DejaVuSans-74" x="613.216797"/>
      <use xlink:href="#DejaVuSans-69" x="652.425781"/>
      <use xlink:href="#DejaVuSans-63" x="680.208984"/>
      <use xlink:href="#DejaVuSans-69" x="735.189453"/>
      <use xlink:href="#DejaVuSans-70" x="762.972656"/>
      <use xlink:href="#DejaVuSans-61" x="826.449219"/>
      <use xlink:href="#DejaVuSans-74" x="887.728516"/>
      <use xlink:href="#DejaVuSans-69" x="926.9375"/>
      <use xlink:href="#DejaVuSans-6f" x="954.720703"/>
      <use xlink:href="#DejaVuSans-6e" x="1015.902344"/>
      <use xlink:href="#DejaVuSans-29" x="1079.28125"/>
     </g>
    </g>
   </g>
  </g>
 </g>
 <defs>
  <clipPath id="p256e3ac842">
   <rect x="57.6" y="41.472" width="357.12" height="266.112"/>
  </clipPath>
 </defs>
</svg>
