<?xml version="1.0" encoding="utf-8" standalone="no"?>
<!DOCTYPE svg PUBLIC "-//W3C//DTD SVG 1.1//EN"
  "http://www.w3.org/Graphics/SVG/1.1/DTD/svg11.dtd">
<svg xmlns:xlink="http://www.w3.org/1999/xlink" width="460.8pt" height="345.6pt" viewBox="0 0 460.8 345.6" xmlns="http://www.w3.org/2000/svg" version="1.1">
 <metadata>
  <rdf:RDF xmlns:dc="http://purl.org/dc/elements/1.1/" xmlns:cc="http://creativecommons.org/ns#" xmlns:rdf="http://www.w3.org/1999/02/22-rdf-syntax-ns#">
   <cc:Work>
    <dc:type rdf:resource="http://purl.org/dc/dcmitype/StillImage"/>
    <dc:date>2022-10-04T12:42:22.017455</dc:date>
    <dc:format>image/svg+xml</dc:format>
    <dc:creator>
     <cc:Agent>
      <dc:title>Matplotlib v3.5.3, https://matplotlib.org/</dc:title>
     </cc:Agent>
    </dc:creator>
   </cc:Work>
  </rdf:RDF>
 </metadata>
 <defs>
  <style type="text/css">*{stroke-linejoin: round; stroke-linecap: butt}</style>
 </defs>
 <g id="figure_1">
  <g id="patch_1">
   <path d="M 0 345.6 
L 460.8 345.6 
L 460.8 0 
L 0 0 
z
" style="fill: #ffffff"/>
  </g>
  <g id="axes_1">
   <g id="patch_2">
    <path d="M 57.6 307.584 
L 414.72 307.584 
L 414.72 41.472 
L 57.6 41.472 
z
" style="fill: #ffffff"/>
   </g>
   <g id="matplotlib.axis_1">
    <g id="xtick_1">
     <g id="line2d_1">
      <defs>
       <path id="md96053e4cd" d="M 0 0 
L 0 3.5 
" style="stroke: #000000; stroke-width: 0.8"/>
      </defs>
      <g>
       <use xlink:href="#md96053e4cd" x="73.832727" y="307.584" style="stroke: #000000; stroke-width: 0.8"/>
      </g>
     </g>
     <g id="text_1">
      <!-- 0 -->
      <g transform="translate(70.651477 322.182437)scale(0.1 -0.1)">
       <defs>
        <path id="DejaVuSans-30" d="M 2034 4250 
Q 1547 4250 1301 3770 
Q 1056 3291 1056 2328 
Q 1056 1369 1301 889 
Q 1547 409 2034 409 
Q 2525 409 2770 889 
Q 3016 1369 3016 2328 
Q 3016 3291 2770 3770 
Q 2525 4250 2034 4250 
z
M 2034 4750 
Q 2819 4750 3233 4129 
Q 3647 3509 3647 2328 
Q 3647 1150 3233 529 
Q 2819 -91 2034 -91 
Q 1250 -91 836 529 
Q 422 1150 422 2328 
Q 422 3509 836 4129 
Q 1250 4750 2034 4750 
z
" transform="scale(0.015625)"/>
       </defs>
       <use xlink:href="#DejaVuSans-30"/>
      </g>
     </g>
    </g>
    <g id="xtick_2">
     <g id="line2d_2">
      <g>
       <use xlink:href="#md96053e4cd" x="138.828632" y="307.584" style="stroke: #000000; stroke-width: 0.8"/>
      </g>
     </g>
     <g id="text_2">
      <!-- 200 -->
      <g transform="translate(129.284882 322.182437)scale(0.1 -0.1)">
       <defs>
        <path id="DejaVuSans-32" d="M 1228 531 
L 3431 531 
L 3431 0 
L 469 0 
L 469 531 
Q 828 903 1448 1529 
Q 2069 2156 2228 2338 
Q 2531 2678 2651 2914 
Q 2772 3150 2772 3378 
Q 2772 3750 2511 3984 
Q 2250 4219 1831 4219 
Q 1534 4219 1204 4116 
Q 875 4013 500 3803 
L 500 4441 
Q 881 4594 1212 4672 
Q 1544 4750 1819 4750 
Q 2544 4750 2975 4387 
Q 3406 4025 3406 3419 
Q 3406 3131 3298 2873 
Q 3191 2616 2906 2266 
Q 2828 2175 2409 1742 
Q 1991 1309 1228 531 
z
" transform="scale(0.015625)"/>
       </defs>
       <use xlink:href="#DejaVuSans-32"/>
       <use xlink:href="#DejaVuSans-30" x="63.623047"/>
       <use xlink:href="#DejaVuSans-30" x="127.246094"/>
      </g>
     </g>
    </g>
    <g id="xtick_3">
     <g id="line2d_3">
      <g>
       <use xlink:href="#md96053e4cd" x="203.824537" y="307.584" style="stroke: #000000; stroke-width: 0.8"/>
      </g>
     </g>
     <g id="text_3">
      <!-- 400 -->
      <g transform="translate(194.280787 322.182437)scale(0.1 -0.1)">
       <defs>
        <path id="DejaVuSans-34" d="M 2419 4116 
L 825 1625 
L 2419 1625 
L 2419 4116 
z
M 2253 4666 
L 3047 4666 
L 3047 1625 
L 3713 1625 
L 3713 1100 
L 3047 1100 
L 3047 0 
L 2419 0 
L 2419 1100 
L 313 1100 
L 313 1709 
L 2253 4666 
z
" transform="scale(0.015625)"/>
       </defs>
       <use xlink:href="#DejaVuSans-34"/>
       <use xlink:href="#DejaVuSans-30" x="63.623047"/>
       <use xlink:href="#DejaVuSans-30" x="127.246094"/>
      </g>
     </g>
    </g>
    <g id="xtick_4">
     <g id="line2d_4">
      <g>
       <use xlink:href="#md96053e4cd" x="268.820442" y="307.584" style="stroke: #000000; stroke-width: 0.8"/>
      </g>
     </g>
     <g id="text_4">
      <!-- 600 -->
      <g transform="translate(259.276692 322.182437)scale(0.1 -0.1)">
       <defs>
        <path id="DejaVuSans-36" d="M 2113 2584 
Q 1688 2584 1439 2293 
Q 1191 2003 1191 1497 
Q 1191 994 1439 701 
Q 1688 409 2113 409 
Q 2538 409 2786 701 
Q 3034 994 3034 1497 
Q 3034 2003 2786 2293 
Q 2538 2584 2113 2584 
z
M 3366 4563 
L 3366 3988 
Q 3128 4100 2886 4159 
Q 2644 4219 2406 4219 
Q 1781 4219 1451 3797 
Q 1122 3375 1075 2522 
Q 1259 2794 1537 2939 
Q 1816 3084 2150 3084 
Q 2853 3084 3261 2657 
Q 3669 2231 3669 1497 
Q 3669 778 3244 343 
Q 2819 -91 2113 -91 
Q 1303 -91 875 529 
Q 447 1150 447 2328 
Q 447 3434 972 4092 
Q 1497 4750 2381 4750 
Q 2619 4750 2861 4703 
Q 3103 4656 3366 4563 
z
" transform="scale(0.015625)"/>
       </defs>
       <use xlink:href="#DejaVuSans-36"/>
       <use xlink:href="#DejaVuSans-30" x="63.623047"/>
       <use xlink:href="#DejaVuSans-30" x="127.246094"/>
      </g>
     </g>
    </g>
    <g id="xtick_5">
     <g id="line2d_5">
      <g>
       <use xlink:href="#md96053e4cd" x="333.816347" y="307.584" style="stroke: #000000; stroke-width: 0.8"/>
      </g>
     </g>
     <g id="text_5">
      <!-- 800 -->
      <g transform="translate(324.272597 322.182437)scale(0.1 -0.1)">
       <defs>
        <path id="DejaVuSans-38" d="M 2034 2216 
Q 1584 2216 1326 1975 
Q 1069 1734 1069 1313 
Q 1069 891 1326 650 
Q 1584 409 2034 409 
Q 2484 409 2743 651 
Q 3003 894 3003 1313 
Q 3003 1734 2745 1975 
Q 2488 2216 2034 2216 
z
M 1403 2484 
Q 997 2584 770 2862 
Q 544 3141 544 3541 
Q 544 4100 942 4425 
Q 1341 4750 2034 4750 
Q 2731 4750 3128 4425 
Q 3525 4100 3525 3541 
Q 3525 3141 3298 2862 
Q 3072 2584 2669 2484 
Q 3125 2378 3379 2068 
Q 3634 1759 3634 1313 
Q 3634 634 3220 271 
Q 2806 -91 2034 -91 
Q 1263 -91 848 271 
Q 434 634 434 1313 
Q 434 1759 690 2068 
Q 947 2378 1403 2484 
z
M 1172 3481 
Q 1172 3119 1398 2916 
Q 1625 2713 2034 2713 
Q 2441 2713 2670 2916 
Q 2900 3119 2900 3481 
Q 2900 3844 2670 4047 
Q 2441 4250 2034 4250 
Q 1625 4250 1398 4047 
Q 1172 3844 1172 3481 
z
" transform="scale(0.015625)"/>
       </defs>
       <use xlink:href="#DejaVuSans-38"/>
       <use xlink:href="#DejaVuSans-30" x="63.623047"/>
       <use xlink:href="#DejaVuSans-30" x="127.246094"/>
      </g>
     </g>
    </g>
    <g id="xtick_6">
     <g id="line2d_6">
      <g>
       <use xlink:href="#md96053e4cd" x="398.812252" y="307.584" style="stroke: #000000; stroke-width: 0.8"/>
      </g>
     </g>
     <g id="text_6">
      <!-- 1000 -->
      <g transform="translate(386.087252 322.182437)scale(0.1 -0.1)">
       <defs>
        <path id="DejaVuSans-31" d="M 794 531 
L 1825 531 
L 1825 4091 
L 703 3866 
L 703 4441 
L 1819 4666 
L 2450 4666 
L 2450 531 
L 3481 531 
L 3481 0 
L 794 0 
L 794 531 
z
" transform="scale(0.015625)"/>
       </defs>
       <use xlink:href="#DejaVuSans-31"/>
       <use xlink:href="#DejaVuSans-30" x="63.623047"/>
       <use xlink:href="#DejaVuSans-30" x="127.246094"/>
       <use xlink:href="#DejaVuSans-30" x="190.869141"/>
      </g>
     </g>
    </g>
    <g id="text_7">
     <!-- Number of Orders -->
     <g transform="translate(191.261562 335.860562)scale(0.1 -0.1)">
      <defs>
       <path id="DejaVuSans-4e" d="M 628 4666 
L 1478 4666 
L 3547 763 
L 3547 4666 
L 4159 4666 
L 4159 0 
L 3309 0 
L 1241 3903 
L 1241 0 
L 628 0 
L 628 4666 
z
" transform="scale(0.015625)"/>
       <path id="DejaVuSans-75" d="M 544 1381 
L 544 3500 
L 1119 3500 
L 1119 1403 
Q 1119 906 1312 657 
Q 1506 409 1894 409 
Q 2359 409 2629 706 
Q 2900 1003 2900 1516 
L 2900 3500 
L 3475 3500 
L 3475 0 
L 2900 0 
L 2900 538 
Q 2691 219 2414 64 
Q 2138 -91 1772 -91 
Q 1169 -91 856 284 
Q 544 659 544 1381 
z
M 1991 3584 
L 1991 3584 
z
" transform="scale(0.015625)"/>
       <path id="DejaVuSans-6d" d="M 3328 2828 
Q 3544 3216 3844 3400 
Q 4144 3584 4550 3584 
Q 5097 3584 5394 3201 
Q 5691 2819 5691 2113 
L 5691 0 
L 5113 0 
L 5113 2094 
Q 5113 2597 4934 2840 
Q 4756 3084 4391 3084 
Q 3944 3084 3684 2787 
Q 3425 2491 3425 1978 
L 3425 0 
L 2847 0 
L 2847 2094 
Q 2847 2600 2669 2842 
Q 2491 3084 2119 3084 
Q 1678 3084 1418 2786 
Q 1159 2488 1159 1978 
L 1159 0 
L 581 0 
L 581 3500 
L 1159 3500 
L 1159 2956 
Q 1356 3278 1631 3431 
Q 1906 3584 2284 3584 
Q 2666 3584 2933 3390 
Q 3200 3197 3328 2828 
z
" transform="scale(0.015625)"/>
       <path id="DejaVuSans-62" d="M 3116 1747 
Q 3116 2381 2855 2742 
Q 2594 3103 2138 3103 
Q 1681 3103 1420 2742 
Q 1159 2381 1159 1747 
Q 1159 1113 1420 752 
Q 1681 391 2138 391 
Q 2594 391 2855 752 
Q 3116 1113 3116 1747 
z
M 1159 2969 
Q 1341 3281 1617 3432 
Q 1894 3584 2278 3584 
Q 2916 3584 3314 3078 
Q 3713 2572 3713 1747 
Q 3713 922 3314 415 
Q 2916 -91 2278 -91 
Q 1894 -91 1617 61 
Q 1341 213 1159 525 
L 1159 0 
L 581 0 
L 581 4863 
L 1159 4863 
L 1159 2969 
z
" transform="scale(0.015625)"/>
       <path id="DejaVuSans-65" d="M 3597 1894 
L 3597 1613 
L 953 1613 
Q 991 1019 1311 708 
Q 1631 397 2203 397 
Q 2534 397 2845 478 
Q 3156 559 3463 722 
L 3463 178 
Q 3153 47 2828 -22 
Q 2503 -91 2169 -91 
Q 1331 -91 842 396 
Q 353 884 353 1716 
Q 353 2575 817 3079 
Q 1281 3584 2069 3584 
Q 2775 3584 3186 3129 
Q 3597 2675 3597 1894 
z
M 3022 2063 
Q 3016 2534 2758 2815 
Q 2500 3097 2075 3097 
Q 1594 3097 1305 2825 
Q 1016 2553 972 2059 
L 3022 2063 
z
" transform="scale(0.015625)"/>
       <path id="DejaVuSans-72" d="M 2631 2963 
Q 2534 3019 2420 3045 
Q 2306 3072 2169 3072 
Q 1681 3072 1420 2755 
Q 1159 2438 1159 1844 
L 1159 0 
L 581 0 
L 581 3500 
L 1159 3500 
L 1159 2956 
Q 1341 3275 1631 3429 
Q 1922 3584 2338 3584 
Q 2397 3584 2469 3576 
Q 2541 3569 2628 3553 
L 2631 2963 
z
" transform="scale(0.015625)"/>
       <path id="DejaVuSans-20" transform="scale(0.015625)"/>
       <path id="DejaVuSans-6f" d="M 1959 3097 
Q 1497 3097 1228 2736 
Q 959 2375 959 1747 
Q 959 1119 1226 758 
Q 1494 397 1959 397 
Q 2419 397 2687 759 
Q 2956 1122 2956 1747 
Q 2956 2369 2687 2733 
Q 2419 3097 1959 3097 
z
M 1959 3584 
Q 2709 3584 3137 3096 
Q 3566 2609 3566 1747 
Q 3566 888 3137 398 
Q 2709 -91 1959 -91 
Q 1206 -91 779 398 
Q 353 888 353 1747 
Q 353 2609 779 3096 
Q 1206 3584 1959 3584 
z
" transform="scale(0.015625)"/>
       <path id="DejaVuSans-66" d="M 2375 4863 
L 2375 4384 
L 1825 4384 
Q 1516 4384 1395 4259 
Q 1275 4134 1275 3809 
L 1275 3500 
L 2222 3500 
L 2222 3053 
L 1275 3053 
L 1275 0 
L 697 0 
L 697 3053 
L 147 3053 
L 147 3500 
L 697 3500 
L 697 3744 
Q 697 4328 969 4595 
Q 1241 4863 1831 4863 
L 2375 4863 
z
" transform="scale(0.015625)"/>
       <path id="DejaVuSans-4f" d="M 2522 4238 
Q 1834 4238 1429 3725 
Q 1025 3213 1025 2328 
Q 1025 1447 1429 934 
Q 1834 422 2522 422 
Q 3209 422 3611 934 
Q 4013 1447 4013 2328 
Q 4013 3213 3611 3725 
Q 3209 4238 2522 4238 
z
M 2522 4750 
Q 3503 4750 4090 4092 
Q 4678 3434 4678 2328 
Q 4678 1225 4090 567 
Q 3503 -91 2522 -91 
Q 1538 -91 948 565 
Q 359 1222 359 2328 
Q 359 3434 948 4092 
Q 1538 4750 2522 4750 
z
" transform="scale(0.015625)"/>
       <path id="DejaVuSans-64" d="M 2906 2969 
L 2906 4863 
L 3481 4863 
L 3481 0 
L 2906 0 
L 2906 525 
Q 2725 213 2448 61 
Q 2172 -91 1784 -91 
Q 1150 -91 751 415 
Q 353 922 353 1747 
Q 353 2572 751 3078 
Q 1150 3584 1784 3584 
Q 2172 3584 2448 3432 
Q 2725 3281 2906 2969 
z
M 947 1747 
Q 947 1113 1208 752 
Q 1469 391 1925 391 
Q 2381 391 2643 752 
Q 2906 1113 2906 1747 
Q 2906 2381 2643 2742 
Q 2381 3103 1925 3103 
Q 1469 3103 1208 2742 
Q 947 2381 947 1747 
z
" transform="scale(0.015625)"/>
       <path id="DejaVuSans-73" d="M 2834 3397 
L 2834 2853 
Q 2591 2978 2328 3040 
Q 2066 3103 1784 3103 
Q 1356 3103 1142 2972 
Q 928 2841 928 2578 
Q 928 2378 1081 2264 
Q 1234 2150 1697 2047 
L 1894 2003 
Q 2506 1872 2764 1633 
Q 3022 1394 3022 966 
Q 3022 478 2636 193 
Q 2250 -91 1575 -91 
Q 1294 -91 989 -36 
Q 684 19 347 128 
L 347 722 
Q 666 556 975 473 
Q 1284 391 1588 391 
Q 1994 391 2212 530 
Q 2431 669 2431 922 
Q 2431 1156 2273 1281 
Q 2116 1406 1581 1522 
L 1381 1569 
Q 847 1681 609 1914 
Q 372 2147 372 2553 
Q 372 3047 722 3315 
Q 1072 3584 1716 3584 
Q 2034 3584 2315 3537 
Q 2597 3491 2834 3397 
z
" transform="scale(0.015625)"/>
      </defs>
      <use xlink:href="#DejaVuSans-4e"/>
      <use xlink:href="#DejaVuSans-75" x="74.804688"/>
      <use xlink:href="#DejaVuSans-6d" x="138.183594"/>
      <use xlink:href="#DejaVuSans-62" x="235.595703"/>
      <use xlink:href="#DejaVuSans-65" x="299.072266"/>
      <use xlink:href="#DejaVuSans-72" x="360.595703"/>
      <use xlink:href="#DejaVuSans-20" x="401.708984"/>
      <use xlink:href="#DejaVuSans-6f" x="433.496094"/>
      <use xlink:href="#DejaVuSans-66" x="494.677734"/>
      <use xlink:href="#DejaVuSans-20" x="529.882812"/>
      <use xlink:href="#DejaVuSans-4f" x="561.669922"/>
      <use xlink:href="#DejaVuSans-72" x="640.380859"/>
      <use xlink:href="#DejaVuSans-64" x="679.744141"/>
      <use xlink:href="#DejaVuSans-65" x="743.220703"/>
      <use xlink:href="#DejaVuSans-72" x="804.744141"/>
      <use xlink:href="#DejaVuSans-73" x="845.857422"/>
     </g>
    </g>
   </g>
   <g id="matplotlib.axis_2">
    <g id="ytick_1">
     <g id="line2d_7">
      <defs>
       <path id="m4598eb9ddf" d="M 0 0 
L -3.5 0 
" style="stroke: #000000; stroke-width: 0.8"/>
      </defs>
      <g>
       <use xlink:href="#m4598eb9ddf" x="57.6" y="305.137549" style="stroke: #000000; stroke-width: 0.8"/>
      </g>
     </g>
     <g id="text_8">
      <!-- 150 -->
      <g transform="translate(31.5125 308.936768)scale(0.1 -0.1)">
       <defs>
        <path id="DejaVuSans-35" d="M 691 4666 
L 3169 4666 
L 3169 4134 
L 1269 4134 
L 1269 2991 
Q 1406 3038 1543 3061 
Q 1681 3084 1819 3084 
Q 2600 3084 3056 2656 
Q 3513 2228 3513 1497 
Q 3513 744 3044 326 
Q 2575 -91 1722 -91 
Q 1428 -91 1123 -41 
Q 819 9 494 109 
L 494 744 
Q 775 591 1075 516 
Q 1375 441 1709 441 
Q 2250 441 2565 725 
Q 2881 1009 2881 1497 
Q 2881 1984 2565 2268 
Q 2250 2553 1709 2553 
Q 1456 2553 1204 2497 
Q 953 2441 691 2322 
L 691 4666 
z
" transform="scale(0.015625)"/>
       </defs>
       <use xlink:href="#DejaVuSans-31"/>
       <use xlink:href="#DejaVuSans-35" x="63.623047"/>
       <use xlink:href="#DejaVuSans-30" x="127.246094"/>
      </g>
     </g>
    </g>
    <g id="ytick_2">
     <g id="line2d_8">
      <g>
       <use xlink:href="#m4598eb9ddf" x="57.6" y="271.053208" style="stroke: #000000; stroke-width: 0.8"/>
      </g>
     </g>
     <g id="text_9">
      <!-- 200 -->
      <g transform="translate(31.5125 274.852426)scale(0.1 -0.1)">
       <use xlink:href="#DejaVuSans-32"/>
       <use xlink:href="#DejaVuSans-30" x="63.623047"/>
       <use xlink:href="#DejaVuSans-30" x="127.246094"/>
      </g>
     </g>
    </g>
    <g id="ytick_3">
     <g id="line2d_9">
      <g>
       <use xlink:href="#m4598eb9ddf" x="57.6" y="236.968866" style="stroke: #000000; stroke-width: 0.8"/>
      </g>
     </g>
     <g id="text_10">
      <!-- 250 -->
      <g transform="translate(31.5125 240.768085)scale(0.1 -0.1)">
       <use xlink:href="#DejaVuSans-32"/>
       <use xlink:href="#DejaVuSans-35" x="63.623047"/>
       <use xlink:href="#DejaVuSans-30" x="127.246094"/>
      </g>
     </g>
    </g>
    <g id="ytick_4">
     <g id="line2d_10">
      <g>
       <use xlink:href="#m4598eb9ddf" x="57.6" y="202.884525" style="stroke: #000000; stroke-width: 0.8"/>
      </g>
     </g>
     <g id="text_11">
      <!-- 300 -->
      <g transform="translate(31.5125 206.683743)scale(0.1 -0.1)">
       <defs>
        <path id="DejaVuSans-33" d="M 2597 2516 
Q 3050 2419 3304 2112 
Q 3559 1806 3559 1356 
Q 3559 666 3084 287 
Q 2609 -91 1734 -91 
Q 1441 -91 1130 -33 
Q 819 25 488 141 
L 488 750 
Q 750 597 1062 519 
Q 1375 441 1716 441 
Q 2309 441 2620 675 
Q 2931 909 2931 1356 
Q 2931 1769 2642 2001 
Q 2353 2234 1838 2234 
L 1294 2234 
L 1294 2753 
L 1863 2753 
Q 2328 2753 2575 2939 
Q 2822 3125 2822 3475 
Q 2822 3834 2567 4026 
Q 2313 4219 1838 4219 
Q 1578 4219 1281 4162 
Q 984 4106 628 3988 
L 628 4550 
Q 988 4650 1302 4700 
Q 1616 4750 1894 4750 
Q 2613 4750 3031 4423 
Q 3450 4097 3450 3541 
Q 3450 3153 3228 2886 
Q 3006 2619 2597 2516 
z
" transform="scale(0.015625)"/>
       </defs>
       <use xlink:href="#DejaVuSans-33"/>
       <use xlink:href="#DejaVuSans-30" x="63.623047"/>
       <use xlink:href="#DejaVuSans-30" x="127.246094"/>
      </g>
     </g>
    </g>
    <g id="ytick_5">
     <g id="line2d_11">
      <g>
       <use xlink:href="#m4598eb9ddf" x="57.6" y="168.800183" style="stroke: #000000; stroke-width: 0.8"/>
      </g>
     </g>
     <g id="text_12">
      <!-- 350 -->
      <g transform="translate(31.5125 172.599402)scale(0.1 -0.1)">
       <use xlink:href="#DejaVuSans-33"/>
       <use xlink:href="#DejaVuSans-35" x="63.623047"/>
       <use xlink:href="#DejaVuSans-30" x="127.246094"/>
      </g>
     </g>
    </g>
    <g id="ytick_6">
     <g id="line2d_12">
      <g>
       <use xlink:href="#m4598eb9ddf" x="57.6" y="134.715842" style="stroke: #000000; stroke-width: 0.8"/>
      </g>
     </g>
     <g id="text_13">
      <!-- 400 -->
      <g transform="translate(31.5125 138.515061)scale(0.1 -0.1)">
       <use xlink:href="#DejaVuSans-34"/>
       <use xlink:href="#DejaVuSans-30" x="63.623047"/>
       <use xlink:href="#DejaVuSans-30" x="127.246094"/>
      </g>
     </g>
    </g>
    <g id="ytick_7">
     <g id="line2d_13">
      <g>
       <use xlink:href="#m4598eb9ddf" x="57.6" y="100.6315" style="stroke: #000000; stroke-width: 0.8"/>
      </g>
     </g>
     <g id="text_14">
      <!-- 450 -->
      <g transform="translate(31.5125 104.430719)scale(0.1 -0.1)">
       <use xlink:href="#DejaVuSans-34"/>
       <use xlink:href="#DejaVuSans-35" x="63.623047"/>
       <use xlink:href="#DejaVuSans-30" x="127.246094"/>
      </g>
     </g>
    </g>
    <g id="ytick_8">
     <g id="line2d_14">
      <g>
       <use xlink:href="#m4598eb9ddf" x="57.6" y="66.547159" style="stroke: #000000; stroke-width: 0.8"/>
      </g>
     </g>
     <g id="text_15">
      <!-- 500 -->
      <g transform="translate(31.5125 70.346378)scale(0.1 -0.1)">
       <use xlink:href="#DejaVuSans-35"/>
       <use xlink:href="#DejaVuSans-30" x="63.623047"/>
       <use xlink:href="#DejaVuSans-30" x="127.246094"/>
      </g>
     </g>
    </g>
    <g id="text_16">
     <!-- Waiting Time/s -->
     <g transform="translate(25.432812 211.410031)rotate(-90)scale(0.1 -0.1)">
      <defs>
       <path id="DejaVuSans-57" d="M 213 4666 
L 850 4666 
L 1831 722 
L 2809 4666 
L 3519 4666 
L 4500 722 
L 5478 4666 
L 6119 4666 
L 4947 0 
L 4153 0 
L 3169 4050 
L 2175 0 
L 1381 0 
L 213 4666 
z
" transform="scale(0.015625)"/>
       <path id="DejaVuSans-61" d="M 2194 1759 
Q 1497 1759 1228 1600 
Q 959 1441 959 1056 
Q 959 750 1161 570 
Q 1363 391 1709 391 
Q 2188 391 2477 730 
Q 2766 1069 2766 1631 
L 2766 1759 
L 2194 1759 
z
M 3341 1997 
L 3341 0 
L 2766 0 
L 2766 531 
Q 2569 213 2275 61 
Q 1981 -91 1556 -91 
Q 1019 -91 701 211 
Q 384 513 384 1019 
Q 384 1609 779 1909 
Q 1175 2209 1959 2209 
L 2766 2209 
L 2766 2266 
Q 2766 2663 2505 2880 
Q 2244 3097 1772 3097 
Q 1472 3097 1187 3025 
Q 903 2953 641 2809 
L 641 3341 
Q 956 3463 1253 3523 
Q 1550 3584 1831 3584 
Q 2591 3584 2966 3190 
Q 3341 2797 3341 1997 
z
" transform="scale(0.015625)"/>
       <path id="DejaVuSans-69" d="M 603 3500 
L 1178 3500 
L 1178 0 
L 603 0 
L 603 3500 
z
M 603 4863 
L 1178 4863 
L 1178 4134 
L 603 4134 
L 603 4863 
z
" transform="scale(0.015625)"/>
       <path id="DejaVuSans-74" d="M 1172 4494 
L 1172 3500 
L 2356 3500 
L 2356 3053 
L 1172 3053 
L 1172 1153 
Q 1172 725 1289 603 
Q 1406 481 1766 481 
L 2356 481 
L 2356 0 
L 1766 0 
Q 1100 0 847 248 
Q 594 497 594 1153 
L 594 3053 
L 172 3053 
L 172 3500 
L 594 3500 
L 594 4494 
L 1172 4494 
z
" transform="scale(0.015625)"/>
       <path id="DejaVuSans-6e" d="M 3513 2113 
L 3513 0 
L 2938 0 
L 2938 2094 
Q 2938 2591 2744 2837 
Q 2550 3084 2163 3084 
Q 1697 3084 1428 2787 
Q 1159 2491 1159 1978 
L 1159 0 
L 581 0 
L 581 3500 
L 1159 3500 
L 1159 2956 
Q 1366 3272 1645 3428 
Q 1925 3584 2291 3584 
Q 2894 3584 3203 3211 
Q 3513 2838 3513 2113 
z
" transform="scale(0.015625)"/>
       <path id="DejaVuSans-67" d="M 2906 1791 
Q 2906 2416 2648 2759 
Q 2391 3103 1925 3103 
Q 1463 3103 1205 2759 
Q 947 2416 947 1791 
Q 947 1169 1205 825 
Q 1463 481 1925 481 
Q 2391 481 2648 825 
Q 2906 1169 2906 1791 
z
M 3481 434 
Q 3481 -459 3084 -895 
Q 2688 -1331 1869 -1331 
Q 1566 -1331 1297 -1286 
Q 1028 -1241 775 -1147 
L 775 -588 
Q 1028 -725 1275 -790 
Q 1522 -856 1778 -856 
Q 2344 -856 2625 -561 
Q 2906 -266 2906 331 
L 2906 616 
Q 2728 306 2450 153 
Q 2172 0 1784 0 
Q 1141 0 747 490 
Q 353 981 353 1791 
Q 353 2603 747 3093 
Q 1141 3584 1784 3584 
Q 2172 3584 2450 3431 
Q 2728 3278 2906 2969 
L 2906 3500 
L 3481 3500 
L 3481 434 
z
" transform="scale(0.015625)"/>
       <path id="DejaVuSans-54" d="M -19 4666 
L 3928 4666 
L 3928 4134 
L 2272 4134 
L 2272 0 
L 1638 0 
L 1638 4134 
L -19 4134 
L -19 4666 
z
" transform="scale(0.015625)"/>
       <path id="DejaVuSans-2f" d="M 1625 4666 
L 2156 4666 
L 531 -594 
L 0 -594 
L 1625 4666 
z
" transform="scale(0.015625)"/>
      </defs>
      <use xlink:href="#DejaVuSans-57"/>
      <use xlink:href="#DejaVuSans-61" x="92.501953"/>
      <use xlink:href="#DejaVuSans-69" x="153.78125"/>
      <use xlink:href="#DejaVuSans-74" x="181.564453"/>
      <use xlink:href="#DejaVuSans-69" x="220.773438"/>
      <use xlink:href="#DejaVuSans-6e" x="248.556641"/>
      <use xlink:href="#DejaVuSans-67" x="311.935547"/>
      <use xlink:href="#DejaVuSans-20" x="375.412109"/>
      <use xlink:href="#DejaVuSans-54" x="407.199219"/>
      <use xlink:href="#DejaVuSans-69" x="465.158203"/>
      <use xlink:href="#DejaVuSans-6d" x="492.941406"/>
      <use xlink:href="#DejaVuSans-65" x="590.353516"/>
      <use xlink:href="#DejaVuSans-2f" x="651.876953"/>
      <use xlink:href="#DejaVuSans-73" x="685.568359"/>
     </g>
    </g>
   </g>
   <g id="line2d_15">
    <path d="M 73.832727 295.488 
L 74.157707 246.291048 
L 74.807666 263.767513 
L 75.132645 241.603641 
L 75.457625 240.446186 
L 75.782604 219.825078 
L 76.107584 221.421523 
L 76.432563 198.642614 
L 77.082523 203.859681 
L 77.407502 180.355698 
L 78.057461 171.852953 
L 78.70742 151.760512 
L 79.0324 136.591411 
L 79.357379 140.249547 
L 79.682359 136.557132 
L 80.007338 134.497 
L 80.332318 116.615011 
L 80.982277 97.274468 
L 81.307256 100.760442 
L 81.632236 101.099044 
L 81.957215 99.427933 
L 82.282195 107.098327 
L 82.607174 105.667563 
L 82.932154 110.876661 
L 83.257133 104.323074 
L 83.582113 103.064359 
L 83.907093 103.785302 
L 84.232072 98.603112 
L 84.557052 99.311613 
L 84.882031 93.846318 
L 85.207011 98.788948 
L 85.53199 98.3579 
L 85.85697 94.278899 
L 86.181949 95.205366 
L 86.506929 94.215567 
L 87.156888 97.616942 
L 87.481867 92.584443 
L 87.806847 93.065312 
L 88.131826 94.120314 
L 88.456806 89.515016 
L 88.781785 87.798023 
L 89.106765 88.126708 
L 89.431744 90.423929 
L 89.756724 88.510754 
L 90.081704 90.326521 
L 90.406683 89.148503 
L 90.731663 89.522556 
L 91.381622 94.63832 
L 91.706601 94.238464 
L 92.031581 91.731907 
L 92.35656 91.426336 
L 93.006519 86.0479 
L 93.331499 87.354684 
L 93.656478 90.08975 
L 93.981458 86.659744 
L 94.306437 88.492623 
L 94.956396 93.509663 
L 95.606355 89.817327 
L 95.931335 87.058093 
L 96.256314 85.393091 
L 96.581294 87.755684 
L 96.906274 86.555009 
L 97.231253 87.508129 
L 97.556233 86.637206 
L 97.881212 87.328622 
L 98.206192 90.222046 
L 98.531171 90.431398 
L 98.856151 93.189451 
L 99.18113 89.927183 
L 99.50611 92.412351 
L 99.831089 89.057789 
L 100.156069 88.65142 
L 100.481048 85.990759 
L 100.806028 87.651048 
L 101.131007 85.456715 
L 101.455987 85.017651 
L 101.780966 83.72714 
L 102.430925 80.020684 
L 102.755905 81.431822 
L 103.080885 81.547654 
L 103.405864 81.321694 
L 104.055823 83.171079 
L 104.380803 83.470969 
L 104.705782 78.573328 
L 105.030762 80.223469 
L 105.355741 80.777089 
L 106.0057 84.290115 
L 106.33068 86.712335 
L 106.980639 83.148134 
L 107.305618 79.636734 
L 107.630598 79.645985 
L 107.955577 80.393746 
L 108.280557 81.606719 
L 108.605536 82.35254 
L 108.930516 80.543961 
L 109.255495 81.204454 
L 109.580475 80.140652 
L 109.905455 81.161561 
L 110.230434 80.17295 
L 110.880393 75.24017 
L 111.205373 76.501508 
L 111.530352 77.111317 
L 111.855332 76.68663 
L 112.180311 76.450976 
L 112.505291 77.671174 
L 112.83027 78.455191 
L 113.15525 77.845634 
L 113.480229 79.499275 
L 113.805209 77.746 
L 114.455168 76.811064 
L 114.780147 75.792421 
L 115.105127 76.84268 
L 115.430106 77.120614 
L 115.755086 76.74575 
L 116.080066 77.012091 
L 116.405045 77.7293 
L 116.730025 76.711194 
L 117.055004 77.087738 
L 117.379984 75.637748 
L 117.704963 76.124763 
L 118.029943 75.640145 
L 118.354922 74.170423 
L 118.679902 74.65824 
L 119.004881 74.539211 
L 119.329861 74.207447 
L 119.65484 75.02311 
L 119.97982 76.678217 
L 120.304799 76.440543 
L 120.629779 78.293856 
L 121.604717 80.445769 
L 121.929697 78.238588 
L 122.254676 79.484289 
L 122.579656 80.273425 
L 122.904636 80.693043 
L 123.229615 80.57444 
L 123.554595 81.629246 
L 123.879574 83.396279 
L 124.529533 81.429548 
L 124.854513 81.585893 
L 125.179492 80.398982 
L 125.504472 77.856477 
L 125.829451 79.234727 
L 126.154431 77.344738 
L 126.47941 77.379372 
L 126.80439 79.061737 
L 127.454349 78.301998 
L 127.779328 79.006847 
L 128.104308 76.100382 
L 128.429287 77.674233 
L 128.754267 77.168964 
L 129.404226 78.285354 
L 129.729206 79.555331 
L 130.054185 78.303024 
L 130.379165 78.818976 
L 131.029124 76.755401 
L 131.354103 75.320762 
L 131.679083 75.219641 
L 132.004062 75.852623 
L 132.654021 74.808359 
L 132.979001 73.584587 
L 133.30398 74.297744 
L 133.953939 73.551738 
L 134.278919 74.885024 
L 134.928878 73.899867 
L 135.253857 73.955069 
L 135.578837 74.398271 
L 135.903817 74.316879 
L 136.228796 74.416146 
L 136.553776 75.049082 
L 136.878755 74.16146 
L 137.203735 74.912443 
L 137.528714 74.557362 
L 137.853694 73.498516 
L 138.178673 73.220709 
L 138.503653 73.150667 
L 138.828632 72.552101 
L 139.153612 73.073772 
L 139.478591 73.267901 
L 139.803571 72.956281 
L 140.12855 71.977596 
L 140.45353 72.526528 
L 140.778509 72.55044 
L 141.103489 71.633958 
L 141.428468 71.07859 
L 141.753448 71.953562 
L 142.078428 72.199536 
L 142.403407 73.172589 
L 142.728387 72.548293 
L 143.053366 72.856848 
L 143.378346 72.475213 
L 144.028305 70.224382 
L 144.353284 71.093402 
L 144.678264 70.275611 
L 145.003243 70.72292 
L 145.328223 69.911595 
L 145.653202 70.727653 
L 146.303161 69.868485 
L 146.628141 68.880331 
L 146.95312 69.050355 
L 147.2781 68.859115 
L 147.603079 67.95785 
L 147.928059 67.41992 
L 148.253038 68.243756 
L 148.578018 67.97197 
L 148.902998 68.164302 
L 149.227977 69.094916 
L 149.877936 69.767433 
L 150.202916 69.881263 
L 150.527895 69.748466 
L 150.852875 69.387958 
L 151.177854 68.395283 
L 151.502834 67.839508 
L 151.827813 67.61565 
L 152.152793 67.636267 
L 152.477772 68.320393 
L 152.802752 68.445794 
L 153.452711 66.040779 
L 153.77769 66.285159 
L 154.10267 66.19577 
L 154.427649 66.791976 
L 154.752629 66.686504 
L 155.077609 66.182169 
L 155.402588 65.995547 
L 155.727568 65.379735 
L 156.052547 65.09051 
L 156.702506 65.026926 
L 157.027486 64.538139 
L 157.352465 64.275731 
L 157.677445 64.455622 
L 158.002424 64.064976 
L 158.327404 64.526574 
L 159.302342 63.026316 
L 159.627322 62.967903 
L 159.952301 62.619619 
L 160.277281 62.598139 
L 160.60226 62.033089 
L 160.92724 62.298624 
L 161.252219 62.356905 
L 161.902179 61.147225 
L 162.227158 59.920589 
L 162.552138 60.08461 
L 162.877117 61.088792 
L 163.202097 60.959272 
L 163.527076 61.870934 
L 163.852056 61.334646 
L 164.502015 59.842401 
L 165.151974 60.132527 
L 165.476953 58.84258 
L 165.801933 58.502883 
L 166.126912 58.582592 
L 166.451892 58.378542 
L 166.776871 58.923075 
L 167.101851 58.488897 
L 167.42683 57.816883 
L 167.75181 58.596262 
L 168.07679 58.995579 
L 168.401769 58.82294 
L 168.726749 57.752646 
L 169.051728 58.434937 
L 169.376708 57.692639 
L 169.701687 57.64146 
L 170.026667 57.227175 
L 170.351646 57.153976 
L 170.676626 57.241995 
L 171.001605 56.379144 
L 171.326585 57.108633 
L 171.651564 56.281301 
L 171.976544 55.921661 
L 172.301523 55.839824 
L 172.626503 56.089452 
L 172.951482 56.752989 
L 173.276462 56.841883 
L 173.601441 56.230834 
L 173.926421 56.514778 
L 174.2514 56.525406 
L 174.57638 56.207202 
L 174.90136 56.90992 
L 175.226339 57.10455 
L 175.551319 56.905561 
L 175.876298 57.739572 
L 176.201278 57.07769 
L 176.526257 57.461886 
L 176.851237 57.500128 
L 177.176216 56.705626 
L 177.501196 56.44552 
L 177.826175 56.826491 
L 178.151155 56.597927 
L 178.476134 55.903414 
L 178.801114 56.612182 
L 179.126093 56.550724 
L 179.451073 56.221098 
L 179.776052 56.409953 
L 180.101032 56.273082 
L 180.750991 55.084192 
L 181.075971 55.027635 
L 181.40095 55.208162 
L 181.72593 55.178743 
L 182.050909 54.631122 
L 182.375889 54.57448 
L 182.700868 55.188591 
L 183.025848 55.464749 
L 183.350827 56.199727 
L 183.675807 55.975441 
L 184.325766 55.987861 
L 184.650745 55.36863 
L 184.975725 55.670645 
L 185.300704 55.686396 
L 185.625684 55.230715 
L 186.275643 55.707954 
L 186.925602 55.099125 
L 187.250581 55.240847 
L 187.900541 54.758114 
L 188.22552 54.473146 
L 189.200459 55.562703 
L 190.175397 55.468283 
L 190.500377 56.219675 
L 190.825356 56.50242 
L 191.150336 57.088018 
L 191.475315 57.307481 
L 192.125274 57.157315 
L 192.450254 56.674961 
L 193.100213 56.726832 
L 193.425192 57.148364 
L 193.750172 57.145144 
L 194.075152 56.496599 
L 194.400131 56.41884 
L 194.725111 56.665002 
L 195.05009 56.715427 
L 195.37507 56.229113 
L 195.700049 56.267517 
L 196.025029 56.174893 
L 196.350008 56.351487 
L 196.674988 56.25048 
L 197.324947 56.651603 
L 198.299885 55.620852 
L 198.624865 55.617092 
L 198.949844 55.815558 
L 199.599803 55.417853 
L 199.924783 55.224557 
L 200.249762 54.626565 
L 200.899722 54.808858 
L 201.224701 54.793454 
L 201.549681 54.302079 
L 201.87466 54.998299 
L 202.524619 55.202631 
L 202.849599 54.987508 
L 203.174578 55.100377 
L 203.824537 55.635448 
L 204.474496 55.850124 
L 205.124455 54.787026 
L 205.449435 55.031306 
L 205.774414 54.189125 
L 206.099394 54.206177 
L 206.749353 53.568 
L 207.074333 54.196417 
L 207.399312 54.324194 
L 207.724292 54.171608 
L 208.374251 54.027825 
L 208.69923 54.500129 
L 209.02421 54.190814 
L 209.349189 54.147382 
L 209.674169 54.321286 
L 209.999148 54.073995 
L 210.324128 54.272031 
L 210.974087 53.991129 
L 211.949025 54.519815 
L 212.598984 55.308898 
L 212.923964 55.030875 
L 213.248943 54.41503 
L 213.573923 54.17424 
L 213.898903 54.494043 
L 214.223882 53.974737 
L 214.548862 54.189334 
L 214.873841 54.225416 
L 215.198821 54.508427 
L 215.5238 54.382368 
L 215.84878 54.629693 
L 216.173759 55.107899 
L 216.498739 54.597198 
L 216.823718 54.937561 
L 217.148698 55.030757 
L 217.473677 54.98193 
L 217.798657 54.698485 
L 218.123636 54.728739 
L 218.773595 54.388478 
L 219.098575 54.800513 
L 219.423554 54.568875 
L 219.748534 54.522398 
L 220.073514 54.736509 
L 221.048452 54.812211 
L 221.373432 54.767488 
L 221.698411 55.334401 
L 222.34837 55.62197 
L 222.67335 55.527407 
L 222.998329 56.149714 
L 223.323309 55.585892 
L 223.973268 56.047912 
L 224.298247 56.156824 
L 224.623227 56.039366 
L 224.948206 56.394863 
L 225.273186 57.096603 
L 225.598165 57.038374 
L 226.573104 57.748134 
L 226.898084 57.690221 
L 227.223063 57.947933 
L 227.873022 57.86042 
L 228.198002 58.465116 
L 228.522981 57.847295 
L 230.147879 58.627141 
L 230.472858 58.012347 
L 230.797838 58.08675 
L 231.122817 58.394073 
L 231.447797 58.281553 
L 231.772776 58.523119 
L 232.097756 58.588386 
L 232.422735 58.996942 
L 232.747715 59.173245 
L 233.072695 59.206548 
L 233.397674 58.685836 
L 233.722654 58.921794 
L 234.047633 58.643732 
L 234.697592 58.719943 
L 235.022572 58.314146 
L 235.99751 58.56584 
L 236.647469 58.305811 
L 236.972449 57.680547 
L 237.297428 57.850823 
L 237.622408 57.836724 
L 237.947387 58.177712 
L 238.272367 58.255192 
L 238.922326 57.827665 
L 239.247305 57.718994 
L 239.572285 58.093862 
L 239.897265 58.269184 
L 240.222244 58.592354 
L 240.547224 59.127307 
L 240.872203 59.38308 
L 241.197183 59.241821 
L 241.522162 59.340531 
L 242.172121 58.254002 
L 242.497101 58.146309 
L 242.82208 58.410689 
L 243.14706 57.909172 
L 243.472039 57.9856 
L 243.797019 57.489742 
L 244.121998 57.395575 
L 245.421916 58.086167 
L 245.746896 58.293143 
L 246.071876 58.225503 
L 246.396855 57.997804 
L 247.046814 58.069198 
L 247.371794 58.395335 
L 247.696773 58.212306 
L 248.021753 58.74585 
L 248.346732 58.076133 
L 248.671712 58.325478 
L 248.996691 58.778219 
L 249.321671 58.011681 
L 249.64665 58.061735 
L 249.97163 57.966151 
L 250.296609 57.72918 
L 250.621589 57.805159 
L 250.946568 57.731105 
L 251.271548 57.923571 
L 252.246486 57.390815 
L 252.571466 57.661036 
L 252.896446 57.595848 
L 253.546405 58.116761 
L 253.871384 57.963042 
L 254.196364 58.03863 
L 254.521343 57.989069 
L 254.846323 58.171298 
L 255.171302 58.061894 
L 255.496282 57.767351 
L 255.821261 57.652588 
L 256.47122 57.70364 
L 256.7962 57.954006 
L 257.121179 57.833998 
L 257.446159 57.925924 
L 257.771138 57.872254 
L 258.096118 57.32685 
L 258.421097 57.424129 
L 258.746077 57.270172 
L 259.071057 57.495752 
L 259.396036 57.58504 
L 259.721016 57.373335 
L 260.045995 57.304481 
L 260.370975 57.031387 
L 260.695954 57.036997 
L 261.020934 56.897947 
L 261.345913 56.907848 
L 261.995872 57.368646 
L 262.320852 57.328853 
L 262.645831 57.074712 
L 262.970811 56.967138 
L 263.29579 56.449066 
L 263.62077 56.475825 
L 263.945749 56.330144 
L 264.270729 56.422388 
L 264.595708 56.180181 
L 265.245667 56.534922 
L 265.895627 56.328954 
L 266.220606 56.377425 
L 266.545586 56.306105 
L 267.195545 56.568132 
L 267.520524 56.100204 
L 267.845504 56.436429 
L 268.495463 56.426149 
L 268.820442 56.27158 
L 269.145422 55.920907 
L 269.795381 55.973282 
L 270.12036 56.054285 
L 270.44534 56.304157 
L 270.770319 56.192318 
L 271.745258 56.497628 
L 272.070238 56.288204 
L 272.395217 56.528258 
L 272.720197 56.949927 
L 273.045176 56.72451 
L 273.370156 56.851795 
L 273.695135 56.804348 
L 274.020115 56.965997 
L 274.345094 56.927365 
L 274.670074 56.730364 
L 274.995053 56.740927 
L 275.320033 56.332777 
L 275.645012 56.457352 
L 275.969992 56.185736 
L 276.619951 56.621826 
L 276.94493 56.849635 
L 277.26991 56.595587 
L 279.219787 57.286802 
L 279.544767 57.007882 
L 279.869746 56.987862 
L 280.194726 57.25727 
L 280.519705 57.325924 
L 280.844685 57.248866 
L 281.169664 56.81507 
L 281.494644 57.086708 
L 281.819623 56.497684 
L 282.794562 56.311783 
L 283.119541 56.269044 
L 283.444521 56.417055 
L 283.7695 56.387295 
L 284.09448 56.591905 
L 284.419459 56.270203 
L 284.744439 56.11862 
L 285.069419 56.305677 
L 285.394398 56.053408 
L 285.719378 56.064516 
L 286.044357 55.629753 
L 286.369337 55.526194 
L 287.019296 55.069553 
L 287.344275 54.962923 
L 288.319214 55.398952 
L 288.969173 55.301957 
L 289.619132 55.394011 
L 289.944111 54.976645 
L 291.244029 55.39503 
L 291.893989 54.705762 
L 292.218968 54.939923 
L 292.543948 54.720979 
L 293.193907 54.744399 
L 293.518886 55.198743 
L 293.843866 55.274686 
L 294.168845 55.172851 
L 294.818804 55.536834 
L 295.143784 55.244698 
L 295.468763 55.561142 
L 295.793743 55.563352 
L 296.443702 55.337381 
L 296.768681 55.372751 
L 297.74362 56.280385 
L 298.0686 56.540812 
L 298.393579 56.365648 
L 298.718559 56.562448 
L 300.993415 55.09692 
L 301.318395 55.407921 
L 301.643374 55.287692 
L 302.293333 55.748306 
L 302.943292 55.604649 
L 303.268272 55.419721 
L 303.593251 55.429736 
L 303.918231 55.246655 
L 304.24321 55.535252 
L 304.56819 55.582848 
L 304.89317 55.858838 
L 305.868108 55.156352 
L 306.193088 55.334786 
L 306.518067 55.693774 
L 307.168026 55.658069 
L 307.817985 55.365034 
L 308.467944 54.571661 
L 308.792924 54.791244 
L 309.117903 54.63047 
L 309.442883 54.893982 
L 310.092842 54.966352 
L 310.417821 55.195485 
L 311.067781 55.239555 
L 311.39276 54.958847 
L 311.71774 55.368213 
L 312.367699 55.059991 
L 313.017658 55.731752 
L 313.342637 55.566877 
L 313.667617 55.584185 
L 313.992596 55.458673 
L 314.317576 55.676614 
L 314.642555 55.469246 
L 314.967535 55.675498 
L 315.292514 55.595938 
L 315.617494 55.398705 
L 315.942473 55.419578 
L 316.267453 55.219533 
L 316.592432 55.358005 
L 317.242391 55.067179 
L 317.567371 55.361712 
L 317.892351 55.343352 
L 318.21733 55.525286 
L 318.867289 55.456123 
L 319.517248 55.208558 
L 319.842228 55.164022 
L 320.492187 55.49725 
L 320.817166 55.784202 
L 321.142146 55.701386 
L 321.792105 55.735546 
L 322.117084 55.500538 
L 322.767043 55.674611 
L 323.417002 55.421257 
L 323.741982 55.550451 
L 324.716921 55.422846 
L 326.016839 55.941039 
L 326.341818 55.389835 
L 326.666798 55.455787 
L 326.991777 55.190491 
L 327.316757 55.214033 
L 327.641736 55.381405 
L 327.966716 55.272105 
L 328.291695 55.361643 
L 328.616675 55.259784 
L 328.941654 54.957969 
L 329.266634 54.931426 
L 329.591613 54.742779 
L 329.916593 54.961308 
L 331.541491 55.003878 
L 331.86647 55.164709 
L 332.516429 55.135535 
L 332.841409 55.161923 
L 333.166388 55.330187 
L 333.491368 55.146724 
L 333.816347 55.246922 
L 334.791286 55.006339 
L 335.441245 55.15935 
L 335.766224 55.165673 
L 336.091204 55.029918 
L 336.416183 54.701165 
L 337.066143 55.042284 
L 337.391122 55.041043 
L 337.716102 54.87479 
L 338.041081 54.910566 
L 339.01602 55.481242 
L 339.340999 55.202478 
L 339.665979 55.305713 
L 339.990958 55.290245 
L 340.640917 54.760551 
L 340.965897 54.736422 
L 341.290876 54.950529 
L 341.615856 54.823602 
L 341.940835 54.529648 
L 342.265815 54.527942 
L 342.590794 54.218348 
L 343.240753 54.454355 
L 343.565733 54.387423 
L 343.890713 54.578884 
L 344.215692 54.513279 
L 344.865651 54.608089 
L 345.190631 54.552321 
L 345.51561 54.637967 
L 345.84059 54.285521 
L 346.165569 54.526237 
L 347.790467 55.005698 
L 348.115446 54.596333 
L 348.440426 54.394852 
L 348.765405 54.455366 
L 349.090385 54.401512 
L 349.415364 54.182069 
L 349.740344 54.446145 
L 351.040262 54.380602 
L 351.365242 54.760687 
L 352.34018 55.053975 
L 352.66516 55.111428 
L 352.990139 54.940089 
L 353.640098 55.1569 
L 353.965078 55.000861 
L 354.940016 54.962701 
L 355.264996 54.844257 
L 356.889894 55.09886 
L 357.214873 55.169393 
L 357.539853 55.067444 
L 357.864832 55.256619 
L 358.189812 55.144779 
L 358.839771 55.296987 
L 359.48973 55.04182 
L 360.139689 54.880539 
L 360.464668 55.120092 
L 361.439607 55.284724 
L 362.089566 55.468744 
L 363.389484 55.167982 
L 363.714464 54.913533 
L 364.364423 55.299827 
L 365.664341 55.061832 
L 365.98932 55.037966 
L 366.3143 55.161035 
L 366.639279 55.097044 
L 366.964259 55.371064 
L 367.289238 55.054909 
L 367.614218 55.173293 
L 369.889075 54.952188 
L 370.214054 54.688067 
L 370.864013 54.764003 
L 371.188993 54.924731 
L 371.513972 54.880033 
L 372.81389 55.415725 
L 373.463849 55.499509 
L 373.788829 55.225408 
L 374.113808 55.2318 
L 374.438788 55.413555 
L 374.763767 55.299748 
L 375.088747 55.012024 
L 375.413726 55.125188 
L 375.738706 54.824804 
L 376.063686 54.788541 
L 376.388665 54.870127 
L 376.713645 54.828808 
L 377.038624 54.47722 
L 378.338542 54.537195 
L 378.988501 54.297282 
L 379.63846 54.32822 
L 380.613399 54.545638 
L 380.938378 54.386644 
L 381.263358 54.41178 
L 381.588337 54.299437 
L 381.913317 54.033713 
L 382.563276 54.027587 
L 383.213235 53.789842 
L 383.538215 53.780274 
L 384.188174 54.002437 
L 385.488092 53.939621 
L 385.813071 54.077578 
L 386.138051 53.884026 
L 386.46303 54.070669 
L 386.78801 53.948983 
L 387.112989 53.997727 
L 387.762948 53.718723 
L 388.087928 53.754437 
L 388.737887 54.251261 
L 389.062867 54.303055 
L 389.387846 54.04482 
L 391.337723 54.761902 
L 391.662703 54.677079 
L 391.987682 54.747903 
L 392.312662 54.513486 
L 392.637641 54.484183 
L 392.962621 54.115644 
L 393.61258 54.342408 
L 397.512334 54.455296 
L 398.162293 54.207845 
L 398.487273 53.72243 
L 398.487273 53.72243 
" clip-path="url(#p924ecba129)" style="fill: none; stroke-dasharray: 2,3.3; stroke-dashoffset: 0; stroke: #0000ff; stroke-width: 2"/>
   </g>
   <g id="line2d_16">
    <path d="M 73.832727 295.488 
L 74.157707 246.291048 
L 74.807666 266.654553 
L 75.132645 243.913273 
L 75.457625 242.370879 
L 75.782604 221.474815 
L 76.107584 222.865043 
L 76.432563 199.925743 
L 76.757543 202.790543 
L 77.082523 203.694762 
L 77.407502 205.561801 
L 77.732482 183.734884 
L 78.057461 178.610479 
L 78.70742 157.673347 
L 79.0324 142.156432 
L 79.357379 145.5054 
L 79.682359 141.536362 
L 80.007338 139.227268 
L 80.332318 121.120029 
L 80.982277 101.387745 
L 81.307256 104.702332 
L 81.632236 104.122445 
L 81.957215 104.318717 
L 82.282195 105.2077 
L 82.932154 117.374754 
L 83.257133 110.604564 
L 83.582113 111.905753 
L 83.907093 112.350402 
L 84.232072 106.908663 
L 84.557052 103.757674 
L 84.882031 98.165348 
L 85.207011 102.988005 
L 85.53199 104.421321 
L 85.85697 100.867066 
L 86.181949 105.349083 
L 86.506929 106.178951 
L 86.831908 107.393779 
L 87.156888 105.119618 
L 87.481867 99.912638 
L 87.806847 100.226958 
L 88.131826 101.122812 
L 88.456806 96.391815 
L 88.781785 94.528508 
L 89.106765 94.716974 
L 89.431744 96.8797 
L 89.756724 94.837409 
L 90.081704 96.529124 
L 90.406683 95.472927 
L 90.731663 98.949088 
L 91.056642 97.411661 
L 91.706601 97.872423 
L 92.031581 97.422843 
L 92.68154 91.749976 
L 93.006519 92.983505 
L 93.331499 95.671132 
L 93.656478 97.417791 
L 93.981458 100.237035 
L 94.306437 99.496716 
L 94.631417 102.220273 
L 95.281376 98.212809 
L 95.606355 93.616515 
L 95.931335 90.80222 
L 96.256314 89.017859 
L 96.581294 88.708815 
L 96.906274 90.992543 
L 97.231253 89.763975 
L 97.556233 90.660851 
L 98.206192 97.190506 
L 98.531171 97.535349 
L 98.856151 97.648256 
L 99.50611 91.259116 
L 99.831089 93.697159 
L 100.156069 91.076671 
L 100.481048 90.650875 
L 100.806028 92.255686 
L 101.131007 88.920058 
L 101.455987 86.736484 
L 101.780966 86.287757 
L 102.105946 87.014382 
L 102.430925 85.730437 
L 103.080885 82.061412 
L 103.405864 82.652231 
L 104.380803 86.479874 
L 104.705782 86.832346 
L 105.030762 88.469089 
L 105.355741 87.7996 
L 105.680721 88.271101 
L 106.0057 89.908118 
L 106.33068 92.46818 
L 106.655659 94.119316 
L 106.980639 90.941665 
L 107.305618 89.05036 
L 107.630598 89.109842 
L 107.955577 89.768321 
L 108.605536 92.335586 
L 109.255495 88.713097 
L 109.580475 89.194154 
L 109.905455 88.229692 
L 110.230434 89.450263 
L 110.555414 87.267018 
L 110.880393 86.242509 
L 111.205373 87.507014 
L 111.530352 87.394615 
L 111.855332 87.906941 
L 112.180311 86.45 
L 112.505291 87.586873 
L 112.83027 87.351655 
L 113.480229 85.802866 
L 113.805209 87.379001 
L 114.130188 86.882298 
L 114.455168 85.77564 
L 114.780147 85.744547 
L 115.105127 85.955106 
L 115.430106 86.801795 
L 116.080066 85.705 
L 116.405045 85.90145 
L 116.730025 86.447821 
L 117.055004 87.219732 
L 117.379984 85.69469 
L 117.704963 86.107757 
L 118.029943 86.006803 
L 118.354922 86.142103 
L 118.679902 85.989075 
L 119.004881 84.466427 
L 119.329861 85.484643 
L 119.65484 85.578613 
L 119.97982 86.555786 
L 120.629779 89.892081 
L 120.954758 87.895851 
L 121.279738 88.577148 
L 121.604717 88.300351 
L 121.929697 88.795808 
L 122.254676 89.528128 
L 122.579656 88.429943 
L 122.904636 88.7959 
L 123.229615 88.624337 
L 123.554595 89.283339 
L 123.879574 91.000991 
L 124.204554 91.319087 
L 124.529533 89.869136 
L 124.854513 90.639399 
L 125.179492 89.521557 
L 125.504472 87.425594 
L 125.829451 86.416632 
L 126.154431 87.733534 
L 126.47941 86.07288 
L 126.80439 86.054083 
L 127.129369 87.673677 
L 127.454349 87.159768 
L 127.779328 86.979268 
L 128.104308 87.300996 
L 128.429287 87.970243 
L 128.754267 89.465014 
L 129.079247 88.987477 
L 129.729206 90.162534 
L 130.054185 91.700924 
L 130.704144 89.524618 
L 131.029124 88.740591 
L 131.679083 88.666853 
L 132.004062 89.225129 
L 132.329042 88.552877 
L 132.654021 88.894361 
L 132.979001 87.593616 
L 133.30398 87.348416 
L 133.62896 87.915418 
L 134.278919 86.7016 
L 134.603898 87.957847 
L 134.928878 88.549507 
L 135.253857 87.880114 
L 135.903817 88.066777 
L 136.228796 87.782979 
L 136.553776 87.095441 
L 137.203735 88.061013 
L 137.528714 87.803071 
L 137.853694 88.476026 
L 138.178673 87.475586 
L 138.503653 87.129283 
L 138.828632 86.461172 
L 139.153612 86.50574 
L 139.478591 86.956103 
L 139.803571 87.081231 
L 140.12855 86.825875 
L 140.45353 87.329662 
L 140.778509 87.34529 
L 141.103489 86.073038 
L 141.428468 86.462678 
L 141.753448 85.839343 
L 142.403407 87.431448 
L 143.053366 85.959023 
L 143.378346 86.203767 
L 143.703325 85.762107 
L 144.353284 83.686173 
L 144.678264 84.489756 
L 145.003243 84.872455 
L 145.328223 84.418144 
L 145.653202 85.172187 
L 145.978182 84.531828 
L 146.303161 83.559857 
L 146.628141 83.445097 
L 146.95312 83.550675 
L 147.2781 82.244988 
L 147.603079 83.011029 
L 147.928059 82.251579 
L 148.253038 81.818868 
L 148.578018 80.973124 
L 148.902998 80.948437 
L 149.227977 81.514345 
L 149.877936 81.372234 
L 150.202916 81.689015 
L 150.527895 81.752062 
L 150.852875 81.606457 
L 151.177854 82.106175 
L 151.502834 81.557717 
L 151.827813 81.276937 
L 152.152793 81.310915 
L 152.477772 81.495593 
L 152.802752 80.437597 
L 153.127731 80.715335 
L 153.452711 81.337951 
L 153.77769 81.690873 
L 154.10267 80.210773 
L 154.427649 80.924209 
L 154.752629 81.027648 
L 155.077609 80.970998 
L 155.402588 81.28196 
L 155.727568 81.342597 
L 156.052547 80.786518 
L 156.377527 80.963751 
L 156.702506 80.296686 
L 157.027486 80.803489 
L 157.352465 80.255447 
L 157.677445 80.373641 
L 158.002424 80.130495 
L 158.977363 78.742672 
L 159.302342 78.3305 
L 159.627322 78.562413 
L 159.952301 78.155503 
L 160.277281 78.075836 
L 160.60226 78.306202 
L 160.92724 77.29192 
L 161.252219 76.889388 
L 161.577199 76.306523 
L 161.902179 76.478421 
L 162.227158 75.934936 
L 162.552138 75.937585 
L 162.877117 76.089313 
L 163.202097 75.659443 
L 163.527076 76.600147 
L 163.852056 76.08482 
L 164.177035 76.935733 
L 164.502015 76.098891 
L 164.826994 76.133163 
L 165.151974 76.328785 
L 165.476953 74.981607 
L 165.801933 74.603209 
L 166.126912 74.516318 
L 166.451892 74.235189 
L 166.776871 74.724472 
L 167.75181 72.601513 
L 168.07679 73.336114 
L 168.401769 72.812032 
L 168.726749 73.163562 
L 169.051728 72.94333 
L 169.376708 73.350906 
L 169.701687 73.545991 
L 170.026667 73.112462 
L 170.351646 73.009883 
L 170.676626 73.346592 
L 171.001605 72.884099 
L 171.326585 73.64205 
L 171.651564 73.674599 
L 171.976544 73.373526 
L 172.301523 72.468964 
L 172.626503 71.966953 
L 172.951482 72.440422 
L 173.276462 72.634349 
L 173.601441 73.23986 
L 173.926421 73.241149 
L 174.2514 72.999388 
L 174.57638 73.818713 
L 174.90136 73.773812 
L 175.226339 73.522104 
L 175.551319 73.854905 
L 175.876298 74.759769 
L 176.201278 74.896065 
L 176.526257 74.265112 
L 176.851237 74.014662 
L 177.501196 74.752099 
L 177.826175 74.436584 
L 178.151155 74.513832 
L 178.476134 74.190382 
L 178.801114 74.600714 
L 179.126093 74.317275 
L 179.451073 73.574799 
L 179.776052 73.323214 
L 180.101032 73.459353 
L 180.426011 73.271075 
L 180.750991 72.618528 
L 181.075971 73.01264 
L 181.40095 73.086688 
L 181.72593 73.279144 
L 182.050909 73.621652 
L 182.375889 73.020613 
L 182.700868 73.365744 
L 183.025848 73.165646 
L 183.350827 73.848254 
L 183.675807 74.256956 
L 184.000786 74.291979 
L 184.325766 73.764338 
L 184.650745 73.490661 
L 185.300704 73.964172 
L 185.950663 75.044076 
L 186.275643 74.874829 
L 186.600622 74.367937 
L 186.925602 74.069934 
L 187.250581 74.111946 
L 187.900541 73.427391 
L 188.22552 73.208077 
L 188.5505 73.36804 
L 189.200459 73.219425 
L 189.525438 73.385356 
L 189.850418 73.730513 
L 190.175397 73.705208 
L 190.500377 73.940168 
L 190.825356 73.970673 
L 191.150336 74.277884 
L 191.475315 73.852099 
L 192.125274 74.743148 
L 192.450254 74.912574 
L 192.775233 74.837942 
L 193.100213 74.549657 
L 193.425192 74.921329 
L 194.075152 74.894947 
L 194.400131 74.200432 
L 194.725111 74.232244 
L 195.05009 74.762942 
L 195.37507 74.958874 
L 196.025029 75.015924 
L 196.350008 74.485056 
L 196.674988 74.474987 
L 196.999967 74.335179 
L 197.324947 74.464228 
L 197.649926 73.980209 
L 197.974906 74.064625 
L 198.299885 74.387583 
L 198.624865 74.105262 
L 199.599803 74.177497 
L 200.249762 73.674445 
L 200.574742 74.04992 
L 200.899722 74.205553 
L 201.224701 74.220803 
L 201.549681 74.044801 
L 201.87466 74.414664 
L 202.19964 75.058336 
L 202.524619 74.213149 
L 202.849599 73.950261 
L 203.174578 74.015604 
L 203.499558 73.856624 
L 203.824537 74.215569 
L 204.149517 74.136754 
L 204.799476 74.573613 
L 205.449435 74.23888 
L 205.774414 74.373255 
L 206.099394 73.576622 
L 206.424373 73.77317 
L 206.749353 73.742373 
L 207.074333 73.343187 
L 207.399312 73.92208 
L 208.049271 74.102027 
L 208.374251 74.034976 
L 208.69923 73.699681 
L 209.02421 73.569974 
L 209.999148 74.739422 
L 210.324128 74.524103 
L 210.649107 74.648485 
L 211.299066 74.27213 
L 211.624046 74.368933 
L 211.949025 74.084402 
L 212.598984 74.281162 
L 213.573923 75.516732 
L 213.898903 75.175401 
L 214.223882 75.32387 
L 214.548862 75.799289 
L 214.873841 75.061862 
L 215.198821 75.196894 
L 215.5238 74.728297 
L 215.84878 74.556362 
L 216.173759 75.128883 
L 216.498739 74.973667 
L 216.823718 74.446406 
L 217.148698 74.425384 
L 217.473677 74.719452 
L 217.798657 74.767674 
L 218.448616 74.51567 
L 218.773595 74.501455 
L 219.098575 74.352152 
L 219.423554 74.718806 
L 220.073514 74.624125 
L 220.723473 74.840711 
L 221.373432 74.604311 
L 221.698411 74.665758 
L 222.34837 75.625784 
L 223.323309 76.031261 
L 223.648288 75.794425 
L 223.973268 76.368927 
L 224.298247 75.765174 
L 224.623227 75.913021 
L 224.948206 76.225871 
L 225.273186 76.885146 
L 225.598165 76.784634 
L 226.248124 77.138969 
L 226.573104 77.039764 
L 226.898084 77.257027 
L 227.223063 77.329279 
L 227.873022 77.149726 
L 228.198002 77.713898 
L 228.522981 77.356715 
L 228.847961 76.740857 
L 229.17294 76.717359 
L 230.147879 77.18114 
L 230.797838 77.66409 
L 231.122817 77.666058 
L 231.447797 77.517349 
L 232.097756 77.977627 
L 232.422735 78.002977 
L 232.747715 78.278219 
L 233.072695 78.05048 
L 233.722654 78.310368 
L 234.047633 77.753092 
L 234.372613 77.978984 
L 234.697592 78.00509 
L 235.347551 77.202613 
L 235.99751 77.332536 
L 236.972449 76.899161 
L 237.297428 77.122713 
L 237.622408 77.070451 
L 237.947387 77.166336 
L 238.272367 76.949947 
L 238.597346 76.895127 
L 239.247305 77.637279 
L 239.572285 77.80207 
L 239.897265 77.739492 
L 240.222244 78.165579 
L 240.547224 78.384811 
L 240.872203 78.389387 
L 241.197183 78.843254 
L 241.522162 79.038366 
L 241.847142 78.859708 
L 242.82208 77.16069 
L 243.14706 76.801503 
L 243.797019 76.724354 
L 244.121998 76.889281 
L 244.446978 76.848729 
L 245.421916 77.192034 
L 245.746896 77.466241 
L 246.071876 77.52052 
L 246.396855 77.690187 
L 246.721835 77.593792 
L 247.046814 77.982085 
L 247.371794 77.718735 
L 247.696773 77.725809 
L 248.021753 77.0195 
L 248.346732 77.476338 
L 248.671712 76.760881 
L 248.996691 76.81064 
L 249.321671 77.024434 
L 249.64665 77.447283 
L 250.296609 77.525273 
L 250.621589 77.276568 
L 250.946568 77.316607 
L 251.271548 77.496739 
L 252.246486 76.859265 
L 252.571466 77.114728 
L 252.896446 77.140621 
L 253.221425 77.31022 
L 253.546405 77.2098 
L 253.871384 77.463594 
L 254.196364 77.275355 
L 255.171302 77.319811 
L 255.496282 77.312542 
L 256.146241 76.727571 
L 256.7962 76.718978 
L 257.121179 76.989014 
L 257.446159 76.835588 
L 257.771138 76.99861 
L 258.096118 77.030198 
L 258.421097 77.390552 
L 258.746077 77.467468 
L 259.396036 77.230465 
L 259.721016 77.367299 
L 260.045995 77.277911 
L 260.370975 77.529962 
L 261.020934 77.689409 
L 261.345913 78.062641 
L 261.670893 77.887758 
L 261.995872 77.933172 
L 262.320852 77.525866 
L 262.645831 77.474812 
L 262.970811 77.599502 
L 263.29579 77.311521 
L 263.62077 77.185403 
L 263.945749 77.470052 
L 264.270729 77.495355 
L 264.595708 77.315534 
L 264.920688 77.371836 
L 265.245667 77.569325 
L 265.570647 77.543773 
L 265.895627 77.336651 
L 266.220606 77.80391 
L 266.545586 77.816147 
L 266.870565 77.980063 
L 267.195545 77.786332 
L 267.520524 77.844192 
L 267.845504 77.341468 
L 268.495463 77.388265 
L 269.470401 76.774305 
L 269.795381 76.951807 
L 270.12036 76.997769 
L 270.770319 77.457605 
L 271.095299 77.671453 
L 271.420278 77.524895 
L 271.745258 77.610105 
L 272.395217 77.442275 
L 272.720197 77.640449 
L 273.045176 77.364649 
L 273.370156 77.653584 
L 273.695135 77.395289 
L 274.020115 77.491865 
L 274.345094 77.411173 
L 274.670074 77.57671 
L 274.995053 77.597361 
L 275.320033 77.48831 
L 275.969992 77.778478 
L 276.294971 77.384899 
L 276.94493 77.770341 
L 277.26991 77.482927 
L 277.919869 77.508744 
L 278.569828 77.730598 
L 278.894808 77.692399 
L 279.219787 77.928806 
L 279.869746 77.259552 
L 280.194726 77.207722 
L 280.844685 77.819011 
L 281.494644 77.675934 
L 281.819623 77.211625 
L 282.144603 77.118046 
L 282.469582 77.25979 
L 283.119541 76.924477 
L 283.444521 76.849895 
L 283.7695 76.965868 
L 284.419459 77.488409 
L 285.069419 77.332053 
L 285.394398 77.740135 
L 285.719378 77.776279 
L 286.044357 77.670775 
L 286.369337 77.337872 
L 286.694316 77.628175 
L 287.019296 77.345371 
L 287.344275 77.285767 
L 287.994234 76.897235 
L 288.644193 77.04926 
L 289.294152 76.887199 
L 289.944111 77.135537 
L 290.269091 77.224915 
L 290.59407 77.519787 
L 290.91905 77.117125 
L 291.569009 77.74659 
L 291.893989 77.733694 
L 292.218968 78.06551 
L 292.868927 77.312134 
L 293.518886 77.180177 
L 293.843866 77.60076 
L 294.168845 77.593682 
L 294.493825 77.790491 
L 294.818804 77.597206 
L 295.143784 77.723644 
L 295.468763 78.007177 
L 295.793743 77.632789 
L 296.768681 77.335024 
L 297.41864 77.997161 
L 298.0686 77.99063 
L 298.393579 78.349964 
L 298.718559 78.522895 
L 299.368518 78.217331 
L 299.693497 78.166892 
L 300.018477 77.932435 
L 300.343456 77.97059 
L 300.668436 77.549775 
L 300.993415 77.987635 
L 301.318395 77.781619 
L 301.968354 78.214774 
L 302.293333 78.084721 
L 302.618313 78.162985 
L 302.943292 77.724095 
L 303.268272 77.640284 
L 303.593251 77.955058 
L 303.918231 77.740207 
L 304.24321 78.076884 
L 305.218149 77.940486 
L 306.193088 77.074238 
L 306.518067 77.232015 
L 306.843047 77.560005 
L 307.493006 77.466226 
L 307.817985 77.68336 
L 308.142965 77.546115 
L 308.467944 77.107084 
L 308.792924 77.38404 
L 309.117903 77.106282 
L 309.442883 77.214868 
L 309.767862 77.023692 
L 310.092842 77.25572 
L 310.417821 77.262531 
L 310.742801 77.512859 
L 311.067781 77.497017 
L 311.39276 77.185903 
L 312.692678 76.767392 
L 313.667617 77.604701 
L 313.992596 77.864373 
L 314.317576 77.851543 
L 314.642555 78.039011 
L 315.292514 77.697555 
L 315.617494 77.814853 
L 315.942473 77.754552 
L 316.267453 77.579963 
L 316.917412 77.734756 
L 317.567371 77.384725 
L 318.54231 77.948009 
L 320.167207 77.493109 
L 320.817166 77.471932 
L 321.467125 77.745376 
L 321.792105 78.002081 
L 322.117084 78.046378 
L 322.767043 78.020319 
L 323.092023 78.021596 
L 323.417002 78.258742 
L 323.741982 78.128371 
L 324.066962 78.227946 
L 324.391941 78.202479 
L 324.716921 78.29877 
L 325.0419 77.914554 
L 325.36688 78.16555 
L 325.691859 77.938411 
L 326.016839 78.122634 
L 326.666798 78.222567 
L 327.316757 78.500927 
L 327.641736 78.465576 
L 327.966716 78.171909 
L 328.291695 78.282651 
L 328.941654 78.689611 
L 329.591613 78.494801 
L 329.916593 78.14252 
L 330.241572 78.369239 
L 330.566552 78.151676 
L 331.86647 78.319232 
L 332.516429 78.606311 
L 332.841409 78.557845 
L 333.166388 78.688391 
L 333.491368 78.533805 
L 334.466306 78.831636 
L 335.116265 78.678542 
L 335.441245 78.776369 
L 335.766224 78.541129 
L 336.091204 78.758111 
L 336.416183 78.685859 
L 336.741163 78.880165 
L 337.066143 78.715671 
L 337.391122 78.756041 
L 337.716102 78.681403 
L 338.041081 78.871884 
L 338.69104 78.98017 
L 339.340999 79.322588 
L 339.665979 79.015055 
L 340.965897 78.527327 
L 341.290876 78.73276 
L 341.615856 78.441357 
L 341.940835 78.388647 
L 342.265815 78.117913 
L 342.590794 78.074711 
L 342.915774 78.339357 
L 343.890713 78.702849 
L 344.540672 78.390407 
L 345.84059 78.134815 
L 346.490549 78.308061 
L 346.815528 77.979966 
L 347.140508 77.977124 
L 348.440426 78.66081 
L 348.765405 78.927706 
L 349.090385 78.708275 
L 349.415364 78.713384 
L 350.065324 78.424572 
L 350.390303 78.659575 
L 351.040262 78.681212 
L 351.365242 79.032875 
L 351.690221 78.913152 
L 352.34018 79.12665 
L 352.990139 78.961663 
L 353.315119 78.93931 
L 354.615037 79.269458 
L 354.940016 79.286161 
L 355.589975 79.0065 
L 356.239934 79.076377 
L 356.564914 78.99342 
L 357.214873 79.081131 
L 357.539853 79.124144 
L 357.864832 79.285826 
L 358.839771 79.331313 
L 359.48973 79.003894 
L 359.814709 78.824568 
L 360.139689 78.924714 
L 360.464668 78.865398 
L 360.789648 78.975898 
L 361.764586 79.024996 
L 363.064505 79.393 
L 363.714464 79.038191 
L 364.364423 79.236226 
L 364.689402 79.42852 
L 365.664341 79.189044 
L 365.98932 79.13837 
L 366.3143 79.234691 
L 366.639279 79.14401 
L 366.964259 78.801179 
L 367.289238 78.89177 
L 367.939197 78.762728 
L 368.264177 78.922149 
L 369.239115 78.903988 
L 370.214054 78.811769 
L 370.539034 78.521833 
L 371.838952 79.081856 
L 372.488911 79.164128 
L 372.81389 79.03637 
L 373.788829 79.493828 
L 374.113808 79.322158 
L 374.438788 79.329668 
L 375.088747 78.853366 
L 375.738706 78.468923 
L 376.388665 78.659976 
L 376.713645 78.613192 
L 377.038624 78.711904 
L 377.688583 78.656159 
L 378.013563 78.734203 
L 378.338542 78.570178 
L 379.63846 78.658 
L 380.288419 78.193642 
L 380.938378 78.22937 
L 381.263358 78.038793 
L 382.563276 77.957896 
L 382.888256 77.829665 
L 383.538215 77.936459 
L 384.513153 77.657025 
L 384.838133 77.622583 
L 385.163112 77.9267 
L 385.488092 78.056347 
L 385.813071 78.316187 
L 386.138051 78.375933 
L 386.78801 78.278165 
L 387.112989 78.390329 
L 387.437969 78.17241 
L 388.412907 78.306373 
L 388.737887 78.091529 
L 389.062867 78.322383 
L 389.387846 78.18255 
L 389.712826 78.397344 
L 390.687764 78.560052 
L 391.337723 78.936994 
L 391.662703 78.626788 
L 392.962621 78.392958 
L 393.61258 78.570429 
L 393.937559 78.540452 
L 394.262539 78.164275 
L 394.912498 78.14962 
L 395.237477 78.28514 
L 395.887437 78.128664 
L 396.537396 78.322268 
L 397.187355 78.21467 
L 398.162293 77.816421 
L 398.487273 77.308158 
L 398.487273 77.308158 
" clip-path="url(#p924ecba129)" style="fill: none; stroke-dasharray: 2,3.3; stroke-dashoffset: 0; stroke: #ffa500; stroke-width: 2"/>
   </g>
   <g id="patch_3">
    <path d="M 57.6 307.584 
L 57.6 41.472 
" style="fill: none; stroke: #000000; stroke-width: 0.8; stroke-linejoin: miter; stroke-linecap: square"/>
   </g>
   <g id="patch_4">
    <path d="M 414.72 307.584 
L 414.72 41.472 
" style="fill: none; stroke: #000000; stroke-width: 0.8; stroke-linejoin: miter; stroke-linecap: square"/>
   </g>
   <g id="patch_5">
    <path d="M 57.6 307.584 
L 414.72 307.584 
" style="fill: none; stroke: #000000; stroke-width: 0.8; stroke-linejoin: miter; stroke-linecap: square"/>
   </g>
   <g id="patch_6">
    <path d="M 57.6 41.472 
L 414.72 41.472 
" style="fill: none; stroke: #000000; stroke-width: 0.8; stroke-linejoin: miter; stroke-linecap: square"/>
   </g>
   <g id="text_17">
    <!-- Waiting Time Plot -->
    <g transform="translate(183.833438 8.2635)scale(0.12 -0.12)">
     <defs>
      <path id="DejaVuSans-50" d="M 1259 4147 
L 1259 2394 
L 2053 2394 
Q 2494 2394 2734 2622 
Q 2975 2850 2975 3272 
Q 2975 3691 2734 3919 
Q 2494 4147 2053 4147 
L 1259 4147 
z
M 628 4666 
L 2053 4666 
Q 2838 4666 3239 4311 
Q 3641 3956 3641 3272 
Q 3641 2581 3239 2228 
Q 2838 1875 2053 1875 
L 1259 1875 
L 1259 0 
L 628 0 
L 628 4666 
z
" transform="scale(0.015625)"/>
      <path id="DejaVuSans-6c" d="M 603 4863 
L 1178 4863 
L 1178 0 
L 603 0 
L 603 4863 
z
" transform="scale(0.015625)"/>
     </defs>
     <use xlink:href="#DejaVuSans-57"/>
     <use xlink:href="#DejaVuSans-61" x="92.501953"/>
     <use xlink:href="#DejaVuSans-69" x="153.78125"/>
     <use xlink:href="#DejaVuSans-74" x="181.564453"/>
     <use xlink:href="#DejaVuSans-69" x="220.773438"/>
     <use xlink:href="#DejaVuSans-6e" x="248.556641"/>
     <use xlink:href="#DejaVuSans-67" x="311.935547"/>
     <use xlink:href="#DejaVuSans-20" x="375.412109"/>
     <use xlink:href="#DejaVuSans-54" x="407.199219"/>
     <use xlink:href="#DejaVuSans-69" x="465.158203"/>
     <use xlink:href="#DejaVuSans-6d" x="492.941406"/>
     <use xlink:href="#DejaVuSans-65" x="590.353516"/>
     <use xlink:href="#DejaVuSans-20" x="651.876953"/>
     <use xlink:href="#DejaVuSans-50" x="683.664062"/>
     <use xlink:href="#DejaVuSans-6c" x="743.966797"/>
     <use xlink:href="#DejaVuSans-6f" x="771.75"/>
     <use xlink:href="#DejaVuSans-74" x="832.931641"/>
    </g>
    <!--  avg_d = 518.8132272654609  -->
    <g transform="translate(142.671562 21.700875)scale(0.12 -0.12)">
     <defs>
      <path id="DejaVuSans-76" d="M 191 3500 
L 800 3500 
L 1894 563 
L 2988 3500 
L 3597 3500 
L 2284 0 
L 1503 0 
L 191 3500 
z
" transform="scale(0.015625)"/>
      <path id="DejaVuSans-5f" d="M 3263 -1063 
L 3263 -1509 
L -63 -1509 
L -63 -1063 
L 3263 -1063 
z
" transform="scale(0.015625)"/>
      <path id="DejaVuSans-3d" d="M 678 2906 
L 4684 2906 
L 4684 2381 
L 678 2381 
L 678 2906 
z
M 678 1631 
L 4684 1631 
L 4684 1100 
L 678 1100 
L 678 1631 
z
" transform="scale(0.015625)"/>
      <path id="DejaVuSans-2e" d="M 684 794 
L 1344 794 
L 1344 0 
L 684 0 
L 684 794 
z
" transform="scale(0.015625)"/>
      <path id="DejaVuSans-37" d="M 525 4666 
L 3525 4666 
L 3525 4397 
L 1831 0 
L 1172 0 
L 2766 4134 
L 525 4134 
L 525 4666 
z
" transform="scale(0.015625)"/>
      <path id="DejaVuSans-39" d="M 703 97 
L 703 672 
Q 941 559 1184 500 
Q 1428 441 1663 441 
Q 2288 441 2617 861 
Q 2947 1281 2994 2138 
Q 2813 1869 2534 1725 
Q 2256 1581 1919 1581 
Q 1219 1581 811 2004 
Q 403 2428 403 3163 
Q 403 3881 828 4315 
Q 1253 4750 1959 4750 
Q 2769 4750 3195 4129 
Q 3622 3509 3622 2328 
Q 3622 1225 3098 567 
Q 2575 -91 1691 -91 
Q 1453 -91 1209 -44 
Q 966 3 703 97 
z
M 1959 2075 
Q 2384 2075 2632 2365 
Q 2881 2656 2881 3163 
Q 2881 3666 2632 3958 
Q 2384 4250 1959 4250 
Q 1534 4250 1286 3958 
Q 1038 3666 1038 3163 
Q 1038 2656 1286 2365 
Q 1534 2075 1959 2075 
z
" transform="scale(0.015625)"/>
     </defs>
     <use xlink:href="#DejaVuSans-20"/>
     <use xlink:href="#DejaVuSans-61" x="31.787109"/>
     <use xlink:href="#DejaVuSans-76" x="93.066406"/>
     <use xlink:href="#DejaVuSans-67" x="152.246094"/>
     <use xlink:href="#DejaVuSans-5f" x="215.722656"/>
     <use xlink:href="#DejaVuSans-64" x="265.722656"/>
     <use xlink:href="#DejaVuSans-20" x="329.199219"/>
     <use xlink:href="#DejaVuSans-3d" x="360.986328"/>
     <use xlink:href="#DejaVuSans-20" x="444.775391"/>
     <use xlink:href="#DejaVuSans-35" x="476.5625"/>
     <use xlink:href="#DejaVuSans-31" x="540.185547"/>
     <use xlink:href="#DejaVuSans-38" x="603.808594"/>
     <use xlink:href="#DejaVuSans-2e" x="667.431641"/>
     <use xlink:href="#DejaVuSans-38" x="699.21875"/>
     <use xlink:href="#DejaVuSans-31" x="762.841797"/>
     <use xlink:href="#DejaVuSans-33" x="826.464844"/>
     <use xlink:href="#DejaVuSans-32" x="890.087891"/>
     <use xlink:href="#DejaVuSans-32" x="953.710938"/>
     <use xlink:href="#DejaVuSans-37" x="1017.333984"/>
     <use xlink:href="#DejaVuSans-32" x="1080.957031"/>
     <use xlink:href="#DejaVuSans-36" x="1144.580078"/>
     <use xlink:href="#DejaVuSans-35" x="1208.203125"/>
     <use xlink:href="#DejaVuSans-34" x="1271.826172"/>
     <use xlink:href="#DejaVuSans-36" x="1335.449219"/>
     <use xlink:href="#DejaVuSans-30" x="1399.072266"/>
     <use xlink:href="#DejaVuSans-39" x="1462.695312"/>
     <use xlink:href="#DejaVuSans-20" x="1526.318359"/>
    </g>
    <!--  avg_a = 484.2141607256749diff = 34.59906653978601 -->
    <g transform="translate(63.181875 35.472)scale(0.12 -0.12)">
     <use xlink:href="#DejaVuSans-20"/>
     <use xlink:href="#DejaVuSans-61" x="31.787109"/>
     <use xlink:href="#DejaVuSans-76" x="93.066406"/>
     <use xlink:href="#DejaVuSans-67" x="152.246094"/>
     <use xlink:href="#DejaVuSans-5f" x="215.722656"/>
     <use xlink:href="#DejaVuSans-61" x="265.722656"/>
     <use xlink:href="#DejaVuSans-20" x="327.001953"/>
     <use xlink:href="#DejaVuSans-3d" x="358.789062"/>
     <use xlink:href="#DejaVuSans-20" x="442.578125"/>
     <use xlink:href="#DejaVuSans-34" x="474.365234"/>
     <use xlink:href="#DejaVuSans-38" x="537.988281"/>
     <use xlink:href="#DejaVuSans-34" x="601.611328"/>
     <use xlink:href="#DejaVuSans-2e" x="665.234375"/>
     <use xlink:href="#DejaVuSans-32" x="697.021484"/>
     <use xlink:href="#DejaVuSans-31" x="760.644531"/>
     <use xlink:href="#DejaVuSans-34" x="824.267578"/>
     <use xlink:href="#DejaVuSans-31" x="887.890625"/>
     <use xlink:href="#DejaVuSans-36" x="951.513672"/>
     <use xlink:href="#DejaVuSans-30" x="1015.136719"/>
     <use xlink:href="#DejaVuSans-37" x="1078.759766"/>
     <use xlink:href="#DejaVuSans-32" x="1142.382812"/>
     <use xlink:href="#DejaVuSans-35" x="1206.005859"/>
     <use xlink:href="#DejaVuSans-36" x="1269.628906"/>
     <use xlink:href="#DejaVuSans-37" x="1333.251953"/>
     <use xlink:href="#DejaVuSans-34" x="1396.875"/>
     <use xlink:href="#DejaVuSans-39" x="1460.498047"/>
     <use xlink:href="#DejaVuSans-64" x="1524.121094"/>
     <use xlink:href="#DejaVuSans-69" x="1587.597656"/>
     <use xlink:href="#DejaVuSans-66" x="1615.380859"/>
     <use xlink:href="#DejaVuSans-66" x="1650.585938"/>
     <use xlink:href="#DejaVuSans-20" x="1685.791016"/>
     <use xlink:href="#DejaVuSans-3d" x="1717.578125"/>
     <use xlink:href="#DejaVuSans-20" x="1801.367188"/>
     <use xlink:href="#DejaVuSans-33" x="1833.154297"/>
     <use xlink:href="#DejaVuSans-34" x="1896.777344"/>
     <use xlink:href="#DejaVuSans-2e" x="1960.400391"/>
     <use xlink:href="#DejaVuSans-35" x="1992.1875"/>
     <use xlink:href="#DejaVuSans-39" x="2055.810547"/>
     <use xlink:href="#DejaVuSans-39" x="2119.433594"/>
     <use xlink:href="#DejaVuSans-30" x="2183.056641"/>
     <use xlink:href="#DejaVuSans-36" x="2246.679688"/>
     <use xlink:href="#DejaVuSans-36" x="2310.302734"/>
     <use xlink:href="#DejaVuSans-35" x="2373.925781"/>
     <use xlink:href="#DejaVuSans-33" x="2437.548828"/>
     <use xlink:href="#DejaVuSans-39" x="2501.171875"/>
     <use xlink:href="#DejaVuSans-37" x="2564.794922"/>
     <use xlink:href="#DejaVuSans-38" x="2628.417969"/>
     <use xlink:href="#DejaVuSans-36" x="2692.041016"/>
     <use xlink:href="#DejaVuSans-30" x="2755.664062"/>
     <use xlink:href="#DejaVuSans-31" x="2819.287109"/>
    </g>
   </g>
   <g id="legend_1">
    <g id="patch_7">
     <path d="M 263.88875 302.584 
L 407.72 302.584 
Q 409.72 302.584 409.72 300.584 
L 409.72 272.22775 
Q 409.72 270.22775 407.72 270.22775 
L 263.88875 270.22775 
Q 261.88875 270.22775 261.88875 272.22775 
L 261.88875 300.584 
Q 261.88875 302.584 263.88875 302.584 
z
" style="fill: #ffffff; opacity: 0.8; stroke: #cccccc; stroke-linejoin: miter"/>
    </g>
    <g id="line2d_17">
     <path d="M 265.88875 278.326187 
L 275.88875 278.326187 
L 285.88875 278.326187 
" style="fill: none; stroke-dasharray: 2,3.3; stroke-dashoffset: 0; stroke: #0000ff; stroke-width: 2"/>
    </g>
    <g id="text_18">
     <!-- Average (Default) -->
     <g transform="translate(293.88875 281.826187)scale(0.1 -0.1)">
      <defs>
       <path id="DejaVuSans-41" d="M 2188 4044 
L 1331 1722 
L 3047 1722 
L 2188 4044 
z
M 1831 4666 
L 2547 4666 
L 4325 0 
L 3669 0 
L 3244 1197 
L 1141 1197 
L 716 0 
L 50 0 
L 1831 4666 
z
" transform="scale(0.015625)"/>
       <path id="DejaVuSans-28" d="M 1984 4856 
Q 1566 4138 1362 3434 
Q 1159 2731 1159 2009 
Q 1159 1288 1364 580 
Q 1569 -128 1984 -844 
L 1484 -844 
Q 1016 -109 783 600 
Q 550 1309 550 2009 
Q 550 2706 781 3412 
Q 1013 4119 1484 4856 
L 1984 4856 
z
" transform="scale(0.015625)"/>
       <path id="DejaVuSans-44" d="M 1259 4147 
L 1259 519 
L 2022 519 
Q 2988 519 3436 956 
Q 3884 1394 3884 2338 
Q 3884 3275 3436 3711 
Q 2988 4147 2022 4147 
L 1259 4147 
z
M 628 4666 
L 1925 4666 
Q 3281 4666 3915 4102 
Q 4550 3538 4550 2338 
Q 4550 1131 3912 565 
Q 3275 0 1925 0 
L 628 0 
L 628 4666 
z
" transform="scale(0.015625)"/>
       <path id="DejaVuSans-29" d="M 513 4856 
L 1013 4856 
Q 1481 4119 1714 3412 
Q 1947 2706 1947 2009 
Q 1947 1309 1714 600 
Q 1481 -109 1013 -844 
L 513 -844 
Q 928 -128 1133 580 
Q 1338 1288 1338 2009 
Q 1338 2731 1133 3434 
Q 928 4138 513 4856 
z
" transform="scale(0.015625)"/>
      </defs>
      <use xlink:href="#DejaVuSans-41"/>
      <use xlink:href="#DejaVuSans-76" x="62.533203"/>
      <use xlink:href="#DejaVuSans-65" x="121.712891"/>
      <use xlink:href="#DejaVuSans-72" x="183.236328"/>
      <use xlink:href="#DejaVuSans-61" x="224.349609"/>
      <use xlink:href="#DejaVuSans-67" x="285.628906"/>
      <use xlink:href="#DejaVuSans-65" x="349.105469"/>
      <use xlink:href="#DejaVuSans-20" x="410.628906"/>
      <use xlink:href="#DejaVuSans-28" x="442.416016"/>
      <use xlink:href="#DejaVuSans-44" x="481.429688"/>
      <use xlink:href="#DejaVuSans-65" x="558.431641"/>
      <use xlink:href="#DejaVuSans-66" x="619.955078"/>
      <use xlink:href="#DejaVuSans-61" x="655.160156"/>
      <use xlink:href="#DejaVuSans-75" x="716.439453"/>
      <use xlink:href="#DejaVuSans-6c" x="779.818359"/>
      <use xlink:href="#DejaVuSans-74" x="807.601562"/>
      <use xlink:href="#DejaVuSans-29" x="846.810547"/>
     </g>
    </g>
    <g id="line2d_18">
     <path d="M 265.88875 293.004312 
L 275.88875 293.004312 
L 285.88875 293.004312 
" style="fill: none; stroke-dasharray: 2,3.3; stroke-dashoffset: 0; stroke: #ffa500; stroke-width: 2"/>
    </g>
    <g id="text_19">
     <!-- Average (Anticipation) -->
     <g transform="translate(293.88875 296.504312)scale(0.1 -0.1)">
      <defs>
       <path id="DejaVuSans-63" d="M 3122 3366 
L 3122 2828 
Q 2878 2963 2633 3030 
Q 2388 3097 2138 3097 
Q 1578 3097 1268 2742 
Q 959 2388 959 1747 
Q 959 1106 1268 751 
Q 1578 397 2138 397 
Q 2388 397 2633 464 
Q 2878 531 3122 666 
L 3122 134 
Q 2881 22 2623 -34 
Q 2366 -91 2075 -91 
Q 1284 -91 818 406 
Q 353 903 353 1747 
Q 353 2603 823 3093 
Q 1294 3584 2113 3584 
Q 2378 3584 2631 3529 
Q 2884 3475 3122 3366 
z
" transform="scale(0.015625)"/>
       <path id="DejaVuSans-70" d="M 1159 525 
L 1159 -1331 
L 581 -1331 
L 581 3500 
L 1159 3500 
L 1159 2969 
Q 1341 3281 1617 3432 
Q 1894 3584 2278 3584 
Q 2916 3584 3314 3078 
Q 3713 2572 3713 1747 
Q 3713 922 3314 415 
Q 2916 -91 2278 -91 
Q 1894 -91 1617 61 
Q 1341 213 1159 525 
z
M 3116 1747 
Q 3116 2381 2855 2742 
Q 2594 3103 2138 3103 
Q 1681 3103 1420 2742 
Q 1159 2381 1159 1747 
Q 1159 1113 1420 752 
Q 1681 391 2138 391 
Q 2594 391 2855 752 
Q 3116 1113 3116 1747 
z
" transform="scale(0.015625)"/>
      </defs>
      <use xlink:href="#DejaVuSans-41"/>
      <use xlink:href="#DejaVuSans-76" x="62.533203"/>
      <use xlink:href="#DejaVuSans-65" x="121.712891"/>
      <use xlink:href="#DejaVuSans-72" x="183.236328"/>
      <use xlink:href="#DejaVuSans-61" x="224.349609"/>
      <use xlink:href="#DejaVuSans-67" x="285.628906"/>
      <use xlink:href="#DejaVuSans-65" x="349.105469"/>
      <use xlink:href="#DejaVuSans-20" x="410.628906"/>
      <use xlink:href="#DejaVuSans-28" x="442.416016"/>
      <use xlink:href="#DejaVuSans-41" x="481.429688"/>
      <use xlink:href="#DejaVuSans-6e" x="549.837891"/>
      <use xlink:href="#DejaVuSans-74" x="613.216797"/>
      <use xlink:href="#DejaVuSans-69" x="652.425781"/>
      <use xlink:href="#DejaVuSans-63" x="680.208984"/>
      <use xlink:href="#DejaVuSans-69" x="735.189453"/>
      <use xlink:href="#DejaVuSans-70" x="762.972656"/>
      <use xlink:href="#DejaVuSans-61" x="826.449219"/>
      <use xlink:href="#DejaVuSans-74" x="887.728516"/>
      <use xlink:href="#DejaVuSans-69" x="926.9375"/>
      <use xlink:href="#DejaVuSans-6f" x="954.720703"/>
      <use xlink:href="#DejaVuSans-6e" x="1015.902344"/>
      <use xlink:href="#DejaVuSans-29" x="1079.28125"/>
     </g>
    </g>
   </g>
  </g>
 </g>
 <defs>
  <clipPath id="p924ecba129">
   <rect x="57.6" y="41.472" width="357.12" height="266.112"/>
  </clipPath>
 </defs>
</svg>
