<?xml version="1.0" encoding="utf-8" standalone="no"?>
<!DOCTYPE svg PUBLIC "-//W3C//DTD SVG 1.1//EN"
  "http://www.w3.org/Graphics/SVG/1.1/DTD/svg11.dtd">
<svg xmlns:xlink="http://www.w3.org/1999/xlink" width="460.8pt" height="345.6pt" viewBox="0 0 460.8 345.6" xmlns="http://www.w3.org/2000/svg" version="1.1">
 <metadata>
  <rdf:RDF xmlns:dc="http://purl.org/dc/elements/1.1/" xmlns:cc="http://creativecommons.org/ns#" xmlns:rdf="http://www.w3.org/1999/02/22-rdf-syntax-ns#">
   <cc:Work>
    <dc:type rdf:resource="http://purl.org/dc/dcmitype/StillImage"/>
    <dc:date>2022-10-04T12:40:18.038116</dc:date>
    <dc:format>image/svg+xml</dc:format>
    <dc:creator>
     <cc:Agent>
      <dc:title>Matplotlib v3.5.3, https://matplotlib.org/</dc:title>
     </cc:Agent>
    </dc:creator>
   </cc:Work>
  </rdf:RDF>
 </metadata>
 <defs>
  <style type="text/css">*{stroke-linejoin: round; stroke-linecap: butt}</style>
 </defs>
 <g id="figure_1">
  <g id="patch_1">
   <path d="M 0 345.6 
L 460.8 345.6 
L 460.8 0 
L 0 0 
z
" style="fill: #ffffff"/>
  </g>
  <g id="axes_1">
   <g id="patch_2">
    <path d="M 57.6 307.584 
L 414.72 307.584 
L 414.72 41.472 
L 57.6 41.472 
z
" style="fill: #ffffff"/>
   </g>
   <g id="matplotlib.axis_1">
    <g id="xtick_1">
     <g id="line2d_1">
      <defs>
       <path id="md821eef6ca" d="M 0 0 
L 0 3.5 
" style="stroke: #000000; stroke-width: 0.8"/>
      </defs>
      <g>
       <use xlink:href="#md821eef6ca" x="73.832727" y="307.584" style="stroke: #000000; stroke-width: 0.8"/>
      </g>
     </g>
     <g id="text_1">
      <!-- 0 -->
      <g transform="translate(70.651477 322.182437)scale(0.1 -0.1)">
       <defs>
        <path id="DejaVuSans-30" d="M 2034 4250 
Q 1547 4250 1301 3770 
Q 1056 3291 1056 2328 
Q 1056 1369 1301 889 
Q 1547 409 2034 409 
Q 2525 409 2770 889 
Q 3016 1369 3016 2328 
Q 3016 3291 2770 3770 
Q 2525 4250 2034 4250 
z
M 2034 4750 
Q 2819 4750 3233 4129 
Q 3647 3509 3647 2328 
Q 3647 1150 3233 529 
Q 2819 -91 2034 -91 
Q 1250 -91 836 529 
Q 422 1150 422 2328 
Q 422 3509 836 4129 
Q 1250 4750 2034 4750 
z
" transform="scale(0.015625)"/>
       </defs>
       <use xlink:href="#DejaVuSans-30"/>
      </g>
     </g>
    </g>
    <g id="xtick_2">
     <g id="line2d_2">
      <g>
       <use xlink:href="#md821eef6ca" x="138.828632" y="307.584" style="stroke: #000000; stroke-width: 0.8"/>
      </g>
     </g>
     <g id="text_2">
      <!-- 200 -->
      <g transform="translate(129.284882 322.182437)scale(0.1 -0.1)">
       <defs>
        <path id="DejaVuSans-32" d="M 1228 531 
L 3431 531 
L 3431 0 
L 469 0 
L 469 531 
Q 828 903 1448 1529 
Q 2069 2156 2228 2338 
Q 2531 2678 2651 2914 
Q 2772 3150 2772 3378 
Q 2772 3750 2511 3984 
Q 2250 4219 1831 4219 
Q 1534 4219 1204 4116 
Q 875 4013 500 3803 
L 500 4441 
Q 881 4594 1212 4672 
Q 1544 4750 1819 4750 
Q 2544 4750 2975 4387 
Q 3406 4025 3406 3419 
Q 3406 3131 3298 2873 
Q 3191 2616 2906 2266 
Q 2828 2175 2409 1742 
Q 1991 1309 1228 531 
z
" transform="scale(0.015625)"/>
       </defs>
       <use xlink:href="#DejaVuSans-32"/>
       <use xlink:href="#DejaVuSans-30" x="63.623047"/>
       <use xlink:href="#DejaVuSans-30" x="127.246094"/>
      </g>
     </g>
    </g>
    <g id="xtick_3">
     <g id="line2d_3">
      <g>
       <use xlink:href="#md821eef6ca" x="203.824537" y="307.584" style="stroke: #000000; stroke-width: 0.8"/>
      </g>
     </g>
     <g id="text_3">
      <!-- 400 -->
      <g transform="translate(194.280787 322.182437)scale(0.1 -0.1)">
       <defs>
        <path id="DejaVuSans-34" d="M 2419 4116 
L 825 1625 
L 2419 1625 
L 2419 4116 
z
M 2253 4666 
L 3047 4666 
L 3047 1625 
L 3713 1625 
L 3713 1100 
L 3047 1100 
L 3047 0 
L 2419 0 
L 2419 1100 
L 313 1100 
L 313 1709 
L 2253 4666 
z
" transform="scale(0.015625)"/>
       </defs>
       <use xlink:href="#DejaVuSans-34"/>
       <use xlink:href="#DejaVuSans-30" x="63.623047"/>
       <use xlink:href="#DejaVuSans-30" x="127.246094"/>
      </g>
     </g>
    </g>
    <g id="xtick_4">
     <g id="line2d_4">
      <g>
       <use xlink:href="#md821eef6ca" x="268.820442" y="307.584" style="stroke: #000000; stroke-width: 0.8"/>
      </g>
     </g>
     <g id="text_4">
      <!-- 600 -->
      <g transform="translate(259.276692 322.182437)scale(0.1 -0.1)">
       <defs>
        <path id="DejaVuSans-36" d="M 2113 2584 
Q 1688 2584 1439 2293 
Q 1191 2003 1191 1497 
Q 1191 994 1439 701 
Q 1688 409 2113 409 
Q 2538 409 2786 701 
Q 3034 994 3034 1497 
Q 3034 2003 2786 2293 
Q 2538 2584 2113 2584 
z
M 3366 4563 
L 3366 3988 
Q 3128 4100 2886 4159 
Q 2644 4219 2406 4219 
Q 1781 4219 1451 3797 
Q 1122 3375 1075 2522 
Q 1259 2794 1537 2939 
Q 1816 3084 2150 3084 
Q 2853 3084 3261 2657 
Q 3669 2231 3669 1497 
Q 3669 778 3244 343 
Q 2819 -91 2113 -91 
Q 1303 -91 875 529 
Q 447 1150 447 2328 
Q 447 3434 972 4092 
Q 1497 4750 2381 4750 
Q 2619 4750 2861 4703 
Q 3103 4656 3366 4563 
z
" transform="scale(0.015625)"/>
       </defs>
       <use xlink:href="#DejaVuSans-36"/>
       <use xlink:href="#DejaVuSans-30" x="63.623047"/>
       <use xlink:href="#DejaVuSans-30" x="127.246094"/>
      </g>
     </g>
    </g>
    <g id="xtick_5">
     <g id="line2d_5">
      <g>
       <use xlink:href="#md821eef6ca" x="333.816347" y="307.584" style="stroke: #000000; stroke-width: 0.8"/>
      </g>
     </g>
     <g id="text_5">
      <!-- 800 -->
      <g transform="translate(324.272597 322.182437)scale(0.1 -0.1)">
       <defs>
        <path id="DejaVuSans-38" d="M 2034 2216 
Q 1584 2216 1326 1975 
Q 1069 1734 1069 1313 
Q 1069 891 1326 650 
Q 1584 409 2034 409 
Q 2484 409 2743 651 
Q 3003 894 3003 1313 
Q 3003 1734 2745 1975 
Q 2488 2216 2034 2216 
z
M 1403 2484 
Q 997 2584 770 2862 
Q 544 3141 544 3541 
Q 544 4100 942 4425 
Q 1341 4750 2034 4750 
Q 2731 4750 3128 4425 
Q 3525 4100 3525 3541 
Q 3525 3141 3298 2862 
Q 3072 2584 2669 2484 
Q 3125 2378 3379 2068 
Q 3634 1759 3634 1313 
Q 3634 634 3220 271 
Q 2806 -91 2034 -91 
Q 1263 -91 848 271 
Q 434 634 434 1313 
Q 434 1759 690 2068 
Q 947 2378 1403 2484 
z
M 1172 3481 
Q 1172 3119 1398 2916 
Q 1625 2713 2034 2713 
Q 2441 2713 2670 2916 
Q 2900 3119 2900 3481 
Q 2900 3844 2670 4047 
Q 2441 4250 2034 4250 
Q 1625 4250 1398 4047 
Q 1172 3844 1172 3481 
z
" transform="scale(0.015625)"/>
       </defs>
       <use xlink:href="#DejaVuSans-38"/>
       <use xlink:href="#DejaVuSans-30" x="63.623047"/>
       <use xlink:href="#DejaVuSans-30" x="127.246094"/>
      </g>
     </g>
    </g>
    <g id="xtick_6">
     <g id="line2d_6">
      <g>
       <use xlink:href="#md821eef6ca" x="398.812252" y="307.584" style="stroke: #000000; stroke-width: 0.8"/>
      </g>
     </g>
     <g id="text_6">
      <!-- 1000 -->
      <g transform="translate(386.087252 322.182437)scale(0.1 -0.1)">
       <defs>
        <path id="DejaVuSans-31" d="M 794 531 
L 1825 531 
L 1825 4091 
L 703 3866 
L 703 4441 
L 1819 4666 
L 2450 4666 
L 2450 531 
L 3481 531 
L 3481 0 
L 794 0 
L 794 531 
z
" transform="scale(0.015625)"/>
       </defs>
       <use xlink:href="#DejaVuSans-31"/>
       <use xlink:href="#DejaVuSans-30" x="63.623047"/>
       <use xlink:href="#DejaVuSans-30" x="127.246094"/>
       <use xlink:href="#DejaVuSans-30" x="190.869141"/>
      </g>
     </g>
    </g>
    <g id="text_7">
     <!-- Number of Orders -->
     <g transform="translate(191.261562 335.860562)scale(0.1 -0.1)">
      <defs>
       <path id="DejaVuSans-4e" d="M 628 4666 
L 1478 4666 
L 3547 763 
L 3547 4666 
L 4159 4666 
L 4159 0 
L 3309 0 
L 1241 3903 
L 1241 0 
L 628 0 
L 628 4666 
z
" transform="scale(0.015625)"/>
       <path id="DejaVuSans-75" d="M 544 1381 
L 544 3500 
L 1119 3500 
L 1119 1403 
Q 1119 906 1312 657 
Q 1506 409 1894 409 
Q 2359 409 2629 706 
Q 2900 1003 2900 1516 
L 2900 3500 
L 3475 3500 
L 3475 0 
L 2900 0 
L 2900 538 
Q 2691 219 2414 64 
Q 2138 -91 1772 -91 
Q 1169 -91 856 284 
Q 544 659 544 1381 
z
M 1991 3584 
L 1991 3584 
z
" transform="scale(0.015625)"/>
       <path id="DejaVuSans-6d" d="M 3328 2828 
Q 3544 3216 3844 3400 
Q 4144 3584 4550 3584 
Q 5097 3584 5394 3201 
Q 5691 2819 5691 2113 
L 5691 0 
L 5113 0 
L 5113 2094 
Q 5113 2597 4934 2840 
Q 4756 3084 4391 3084 
Q 3944 3084 3684 2787 
Q 3425 2491 3425 1978 
L 3425 0 
L 2847 0 
L 2847 2094 
Q 2847 2600 2669 2842 
Q 2491 3084 2119 3084 
Q 1678 3084 1418 2786 
Q 1159 2488 1159 1978 
L 1159 0 
L 581 0 
L 581 3500 
L 1159 3500 
L 1159 2956 
Q 1356 3278 1631 3431 
Q 1906 3584 2284 3584 
Q 2666 3584 2933 3390 
Q 3200 3197 3328 2828 
z
" transform="scale(0.015625)"/>
       <path id="DejaVuSans-62" d="M 3116 1747 
Q 3116 2381 2855 2742 
Q 2594 3103 2138 3103 
Q 1681 3103 1420 2742 
Q 1159 2381 1159 1747 
Q 1159 1113 1420 752 
Q 1681 391 2138 391 
Q 2594 391 2855 752 
Q 3116 1113 3116 1747 
z
M 1159 2969 
Q 1341 3281 1617 3432 
Q 1894 3584 2278 3584 
Q 2916 3584 3314 3078 
Q 3713 2572 3713 1747 
Q 3713 922 3314 415 
Q 2916 -91 2278 -91 
Q 1894 -91 1617 61 
Q 1341 213 1159 525 
L 1159 0 
L 581 0 
L 581 4863 
L 1159 4863 
L 1159 2969 
z
" transform="scale(0.015625)"/>
       <path id="DejaVuSans-65" d="M 3597 1894 
L 3597 1613 
L 953 1613 
Q 991 1019 1311 708 
Q 1631 397 2203 397 
Q 2534 397 2845 478 
Q 3156 559 3463 722 
L 3463 178 
Q 3153 47 2828 -22 
Q 2503 -91 2169 -91 
Q 1331 -91 842 396 
Q 353 884 353 1716 
Q 353 2575 817 3079 
Q 1281 3584 2069 3584 
Q 2775 3584 3186 3129 
Q 3597 2675 3597 1894 
z
M 3022 2063 
Q 3016 2534 2758 2815 
Q 2500 3097 2075 3097 
Q 1594 3097 1305 2825 
Q 1016 2553 972 2059 
L 3022 2063 
z
" transform="scale(0.015625)"/>
       <path id="DejaVuSans-72" d="M 2631 2963 
Q 2534 3019 2420 3045 
Q 2306 3072 2169 3072 
Q 1681 3072 1420 2755 
Q 1159 2438 1159 1844 
L 1159 0 
L 581 0 
L 581 3500 
L 1159 3500 
L 1159 2956 
Q 1341 3275 1631 3429 
Q 1922 3584 2338 3584 
Q 2397 3584 2469 3576 
Q 2541 3569 2628 3553 
L 2631 2963 
z
" transform="scale(0.015625)"/>
       <path id="DejaVuSans-20" transform="scale(0.015625)"/>
       <path id="DejaVuSans-6f" d="M 1959 3097 
Q 1497 3097 1228 2736 
Q 959 2375 959 1747 
Q 959 1119 1226 758 
Q 1494 397 1959 397 
Q 2419 397 2687 759 
Q 2956 1122 2956 1747 
Q 2956 2369 2687 2733 
Q 2419 3097 1959 3097 
z
M 1959 3584 
Q 2709 3584 3137 3096 
Q 3566 2609 3566 1747 
Q 3566 888 3137 398 
Q 2709 -91 1959 -91 
Q 1206 -91 779 398 
Q 353 888 353 1747 
Q 353 2609 779 3096 
Q 1206 3584 1959 3584 
z
" transform="scale(0.015625)"/>
       <path id="DejaVuSans-66" d="M 2375 4863 
L 2375 4384 
L 1825 4384 
Q 1516 4384 1395 4259 
Q 1275 4134 1275 3809 
L 1275 3500 
L 2222 3500 
L 2222 3053 
L 1275 3053 
L 1275 0 
L 697 0 
L 697 3053 
L 147 3053 
L 147 3500 
L 697 3500 
L 697 3744 
Q 697 4328 969 4595 
Q 1241 4863 1831 4863 
L 2375 4863 
z
" transform="scale(0.015625)"/>
       <path id="DejaVuSans-4f" d="M 2522 4238 
Q 1834 4238 1429 3725 
Q 1025 3213 1025 2328 
Q 1025 1447 1429 934 
Q 1834 422 2522 422 
Q 3209 422 3611 934 
Q 4013 1447 4013 2328 
Q 4013 3213 3611 3725 
Q 3209 4238 2522 4238 
z
M 2522 4750 
Q 3503 4750 4090 4092 
Q 4678 3434 4678 2328 
Q 4678 1225 4090 567 
Q 3503 -91 2522 -91 
Q 1538 -91 948 565 
Q 359 1222 359 2328 
Q 359 3434 948 4092 
Q 1538 4750 2522 4750 
z
" transform="scale(0.015625)"/>
       <path id="DejaVuSans-64" d="M 2906 2969 
L 2906 4863 
L 3481 4863 
L 3481 0 
L 2906 0 
L 2906 525 
Q 2725 213 2448 61 
Q 2172 -91 1784 -91 
Q 1150 -91 751 415 
Q 353 922 353 1747 
Q 353 2572 751 3078 
Q 1150 3584 1784 3584 
Q 2172 3584 2448 3432 
Q 2725 3281 2906 2969 
z
M 947 1747 
Q 947 1113 1208 752 
Q 1469 391 1925 391 
Q 2381 391 2643 752 
Q 2906 1113 2906 1747 
Q 2906 2381 2643 2742 
Q 2381 3103 1925 3103 
Q 1469 3103 1208 2742 
Q 947 2381 947 1747 
z
" transform="scale(0.015625)"/>
       <path id="DejaVuSans-73" d="M 2834 3397 
L 2834 2853 
Q 2591 2978 2328 3040 
Q 2066 3103 1784 3103 
Q 1356 3103 1142 2972 
Q 928 2841 928 2578 
Q 928 2378 1081 2264 
Q 1234 2150 1697 2047 
L 1894 2003 
Q 2506 1872 2764 1633 
Q 3022 1394 3022 966 
Q 3022 478 2636 193 
Q 2250 -91 1575 -91 
Q 1294 -91 989 -36 
Q 684 19 347 128 
L 347 722 
Q 666 556 975 473 
Q 1284 391 1588 391 
Q 1994 391 2212 530 
Q 2431 669 2431 922 
Q 2431 1156 2273 1281 
Q 2116 1406 1581 1522 
L 1381 1569 
Q 847 1681 609 1914 
Q 372 2147 372 2553 
Q 372 3047 722 3315 
Q 1072 3584 1716 3584 
Q 2034 3584 2315 3537 
Q 2597 3491 2834 3397 
z
" transform="scale(0.015625)"/>
      </defs>
      <use xlink:href="#DejaVuSans-4e"/>
      <use xlink:href="#DejaVuSans-75" x="74.804688"/>
      <use xlink:href="#DejaVuSans-6d" x="138.183594"/>
      <use xlink:href="#DejaVuSans-62" x="235.595703"/>
      <use xlink:href="#DejaVuSans-65" x="299.072266"/>
      <use xlink:href="#DejaVuSans-72" x="360.595703"/>
      <use xlink:href="#DejaVuSans-20" x="401.708984"/>
      <use xlink:href="#DejaVuSans-6f" x="433.496094"/>
      <use xlink:href="#DejaVuSans-66" x="494.677734"/>
      <use xlink:href="#DejaVuSans-20" x="529.882812"/>
      <use xlink:href="#DejaVuSans-4f" x="561.669922"/>
      <use xlink:href="#DejaVuSans-72" x="640.380859"/>
      <use xlink:href="#DejaVuSans-64" x="679.744141"/>
      <use xlink:href="#DejaVuSans-65" x="743.220703"/>
      <use xlink:href="#DejaVuSans-72" x="804.744141"/>
      <use xlink:href="#DejaVuSans-73" x="845.857422"/>
     </g>
    </g>
   </g>
   <g id="matplotlib.axis_2">
    <g id="ytick_1">
     <g id="line2d_7">
      <defs>
       <path id="m56e8b40abc" d="M 0 0 
L -3.5 0 
" style="stroke: #000000; stroke-width: 0.8"/>
      </defs>
      <g>
       <use xlink:href="#m56e8b40abc" x="57.6" y="273.215641" style="stroke: #000000; stroke-width: 0.8"/>
      </g>
     </g>
     <g id="text_8">
      <!-- 350 -->
      <g transform="translate(31.5125 277.01486)scale(0.1 -0.1)">
       <defs>
        <path id="DejaVuSans-33" d="M 2597 2516 
Q 3050 2419 3304 2112 
Q 3559 1806 3559 1356 
Q 3559 666 3084 287 
Q 2609 -91 1734 -91 
Q 1441 -91 1130 -33 
Q 819 25 488 141 
L 488 750 
Q 750 597 1062 519 
Q 1375 441 1716 441 
Q 2309 441 2620 675 
Q 2931 909 2931 1356 
Q 2931 1769 2642 2001 
Q 2353 2234 1838 2234 
L 1294 2234 
L 1294 2753 
L 1863 2753 
Q 2328 2753 2575 2939 
Q 2822 3125 2822 3475 
Q 2822 3834 2567 4026 
Q 2313 4219 1838 4219 
Q 1578 4219 1281 4162 
Q 984 4106 628 3988 
L 628 4550 
Q 988 4650 1302 4700 
Q 1616 4750 1894 4750 
Q 2613 4750 3031 4423 
Q 3450 4097 3450 3541 
Q 3450 3153 3228 2886 
Q 3006 2619 2597 2516 
z
" transform="scale(0.015625)"/>
        <path id="DejaVuSans-35" d="M 691 4666 
L 3169 4666 
L 3169 4134 
L 1269 4134 
L 1269 2991 
Q 1406 3038 1543 3061 
Q 1681 3084 1819 3084 
Q 2600 3084 3056 2656 
Q 3513 2228 3513 1497 
Q 3513 744 3044 326 
Q 2575 -91 1722 -91 
Q 1428 -91 1123 -41 
Q 819 9 494 109 
L 494 744 
Q 775 591 1075 516 
Q 1375 441 1709 441 
Q 2250 441 2565 725 
Q 2881 1009 2881 1497 
Q 2881 1984 2565 2268 
Q 2250 2553 1709 2553 
Q 1456 2553 1204 2497 
Q 953 2441 691 2322 
L 691 4666 
z
" transform="scale(0.015625)"/>
       </defs>
       <use xlink:href="#DejaVuSans-33"/>
       <use xlink:href="#DejaVuSans-35" x="63.623047"/>
       <use xlink:href="#DejaVuSans-30" x="127.246094"/>
      </g>
     </g>
    </g>
    <g id="ytick_2">
     <g id="line2d_8">
      <g>
       <use xlink:href="#m56e8b40abc" x="57.6" y="231.997684" style="stroke: #000000; stroke-width: 0.8"/>
      </g>
     </g>
     <g id="text_9">
      <!-- 400 -->
      <g transform="translate(31.5125 235.796903)scale(0.1 -0.1)">
       <use xlink:href="#DejaVuSans-34"/>
       <use xlink:href="#DejaVuSans-30" x="63.623047"/>
       <use xlink:href="#DejaVuSans-30" x="127.246094"/>
      </g>
     </g>
    </g>
    <g id="ytick_3">
     <g id="line2d_9">
      <g>
       <use xlink:href="#m56e8b40abc" x="57.6" y="190.779727" style="stroke: #000000; stroke-width: 0.8"/>
      </g>
     </g>
     <g id="text_10">
      <!-- 450 -->
      <g transform="translate(31.5125 194.578946)scale(0.1 -0.1)">
       <use xlink:href="#DejaVuSans-34"/>
       <use xlink:href="#DejaVuSans-35" x="63.623047"/>
       <use xlink:href="#DejaVuSans-30" x="127.246094"/>
      </g>
     </g>
    </g>
    <g id="ytick_4">
     <g id="line2d_10">
      <g>
       <use xlink:href="#m56e8b40abc" x="57.6" y="149.56177" style="stroke: #000000; stroke-width: 0.8"/>
      </g>
     </g>
     <g id="text_11">
      <!-- 500 -->
      <g transform="translate(31.5125 153.360989)scale(0.1 -0.1)">
       <use xlink:href="#DejaVuSans-35"/>
       <use xlink:href="#DejaVuSans-30" x="63.623047"/>
       <use xlink:href="#DejaVuSans-30" x="127.246094"/>
      </g>
     </g>
    </g>
    <g id="ytick_5">
     <g id="line2d_11">
      <g>
       <use xlink:href="#m56e8b40abc" x="57.6" y="108.343813" style="stroke: #000000; stroke-width: 0.8"/>
      </g>
     </g>
     <g id="text_12">
      <!-- 550 -->
      <g transform="translate(31.5125 112.143032)scale(0.1 -0.1)">
       <use xlink:href="#DejaVuSans-35"/>
       <use xlink:href="#DejaVuSans-35" x="63.623047"/>
       <use xlink:href="#DejaVuSans-30" x="127.246094"/>
      </g>
     </g>
    </g>
    <g id="ytick_6">
     <g id="line2d_12">
      <g>
       <use xlink:href="#m56e8b40abc" x="57.6" y="67.125856" style="stroke: #000000; stroke-width: 0.8"/>
      </g>
     </g>
     <g id="text_13">
      <!-- 600 -->
      <g transform="translate(31.5125 70.925075)scale(0.1 -0.1)">
       <use xlink:href="#DejaVuSans-36"/>
       <use xlink:href="#DejaVuSans-30" x="63.623047"/>
       <use xlink:href="#DejaVuSans-30" x="127.246094"/>
      </g>
     </g>
    </g>
    <g id="text_14">
     <!-- Waiting Time/s -->
     <g transform="translate(25.432812 211.410031)rotate(-90)scale(0.1 -0.1)">
      <defs>
       <path id="DejaVuSans-57" d="M 213 4666 
L 850 4666 
L 1831 722 
L 2809 4666 
L 3519 4666 
L 4500 722 
L 5478 4666 
L 6119 4666 
L 4947 0 
L 4153 0 
L 3169 4050 
L 2175 0 
L 1381 0 
L 213 4666 
z
" transform="scale(0.015625)"/>
       <path id="DejaVuSans-61" d="M 2194 1759 
Q 1497 1759 1228 1600 
Q 959 1441 959 1056 
Q 959 750 1161 570 
Q 1363 391 1709 391 
Q 2188 391 2477 730 
Q 2766 1069 2766 1631 
L 2766 1759 
L 2194 1759 
z
M 3341 1997 
L 3341 0 
L 2766 0 
L 2766 531 
Q 2569 213 2275 61 
Q 1981 -91 1556 -91 
Q 1019 -91 701 211 
Q 384 513 384 1019 
Q 384 1609 779 1909 
Q 1175 2209 1959 2209 
L 2766 2209 
L 2766 2266 
Q 2766 2663 2505 2880 
Q 2244 3097 1772 3097 
Q 1472 3097 1187 3025 
Q 903 2953 641 2809 
L 641 3341 
Q 956 3463 1253 3523 
Q 1550 3584 1831 3584 
Q 2591 3584 2966 3190 
Q 3341 2797 3341 1997 
z
" transform="scale(0.015625)"/>
       <path id="DejaVuSans-69" d="M 603 3500 
L 1178 3500 
L 1178 0 
L 603 0 
L 603 3500 
z
M 603 4863 
L 1178 4863 
L 1178 4134 
L 603 4134 
L 603 4863 
z
" transform="scale(0.015625)"/>
       <path id="DejaVuSans-74" d="M 1172 4494 
L 1172 3500 
L 2356 3500 
L 2356 3053 
L 1172 3053 
L 1172 1153 
Q 1172 725 1289 603 
Q 1406 481 1766 481 
L 2356 481 
L 2356 0 
L 1766 0 
Q 1100 0 847 248 
Q 594 497 594 1153 
L 594 3053 
L 172 3053 
L 172 3500 
L 594 3500 
L 594 4494 
L 1172 4494 
z
" transform="scale(0.015625)"/>
       <path id="DejaVuSans-6e" d="M 3513 2113 
L 3513 0 
L 2938 0 
L 2938 2094 
Q 2938 2591 2744 2837 
Q 2550 3084 2163 3084 
Q 1697 3084 1428 2787 
Q 1159 2491 1159 1978 
L 1159 0 
L 581 0 
L 581 3500 
L 1159 3500 
L 1159 2956 
Q 1366 3272 1645 3428 
Q 1925 3584 2291 3584 
Q 2894 3584 3203 3211 
Q 3513 2838 3513 2113 
z
" transform="scale(0.015625)"/>
       <path id="DejaVuSans-67" d="M 2906 1791 
Q 2906 2416 2648 2759 
Q 2391 3103 1925 3103 
Q 1463 3103 1205 2759 
Q 947 2416 947 1791 
Q 947 1169 1205 825 
Q 1463 481 1925 481 
Q 2391 481 2648 825 
Q 2906 1169 2906 1791 
z
M 3481 434 
Q 3481 -459 3084 -895 
Q 2688 -1331 1869 -1331 
Q 1566 -1331 1297 -1286 
Q 1028 -1241 775 -1147 
L 775 -588 
Q 1028 -725 1275 -790 
Q 1522 -856 1778 -856 
Q 2344 -856 2625 -561 
Q 2906 -266 2906 331 
L 2906 616 
Q 2728 306 2450 153 
Q 2172 0 1784 0 
Q 1141 0 747 490 
Q 353 981 353 1791 
Q 353 2603 747 3093 
Q 1141 3584 1784 3584 
Q 2172 3584 2450 3431 
Q 2728 3278 2906 2969 
L 2906 3500 
L 3481 3500 
L 3481 434 
z
" transform="scale(0.015625)"/>
       <path id="DejaVuSans-54" d="M -19 4666 
L 3928 4666 
L 3928 4134 
L 2272 4134 
L 2272 0 
L 1638 0 
L 1638 4134 
L -19 4134 
L -19 4666 
z
" transform="scale(0.015625)"/>
       <path id="DejaVuSans-2f" d="M 1625 4666 
L 2156 4666 
L 531 -594 
L 0 -594 
L 1625 4666 
z
" transform="scale(0.015625)"/>
      </defs>
      <use xlink:href="#DejaVuSans-57"/>
      <use xlink:href="#DejaVuSans-61" x="92.501953"/>
      <use xlink:href="#DejaVuSans-69" x="153.78125"/>
      <use xlink:href="#DejaVuSans-74" x="181.564453"/>
      <use xlink:href="#DejaVuSans-69" x="220.773438"/>
      <use xlink:href="#DejaVuSans-6e" x="248.556641"/>
      <use xlink:href="#DejaVuSans-67" x="311.935547"/>
      <use xlink:href="#DejaVuSans-20" x="375.412109"/>
      <use xlink:href="#DejaVuSans-54" x="407.199219"/>
      <use xlink:href="#DejaVuSans-69" x="465.158203"/>
      <use xlink:href="#DejaVuSans-6d" x="492.941406"/>
      <use xlink:href="#DejaVuSans-65" x="590.353516"/>
      <use xlink:href="#DejaVuSans-2f" x="651.876953"/>
      <use xlink:href="#DejaVuSans-73" x="685.568359"/>
     </g>
    </g>
   </g>
   <g id="line2d_13">
    <path d="M 73.832727 295.488 
L 74.157707 219.255011 
L 74.482686 208.058838 
L 74.807666 234.68024 
L 75.132645 204.550241 
L 75.457625 187.625815 
L 75.782604 152.327882 
L 76.107584 140.250645 
L 76.432563 164.759627 
L 76.757543 169.101287 
L 77.407502 147.363928 
L 77.732482 155.205749 
L 78.057461 140.558658 
L 78.382441 132.674353 
L 79.357379 163.517067 
L 79.682359 154.014813 
L 80.007338 148.298311 
L 80.657297 120.118561 
L 80.982277 114.81594 
L 81.307256 112.363085 
L 81.632236 104.20444 
L 81.957215 107.15257 
L 82.282195 107.802534 
L 82.607174 109.567278 
L 82.932154 107.474309 
L 83.257133 101.018718 
L 83.582113 109.21141 
L 83.907093 112.933201 
L 84.232072 115.02839 
L 84.557052 115.514674 
L 84.882031 115.571412 
L 85.207011 117.668082 
L 85.53199 122.76258 
L 85.85697 118.880899 
L 86.181949 109.094025 
L 86.831908 122.230911 
L 87.156888 121.361928 
L 87.481867 117.157241 
L 87.806847 121.150906 
L 88.131826 120.798431 
L 88.456806 118.671529 
L 89.106765 109.202739 
L 89.431744 107.179442 
L 89.756724 106.204632 
L 90.081704 108.086881 
L 90.406683 102.403988 
L 90.731663 94.487665 
L 91.381622 103.765906 
L 91.706601 102.265302 
L 92.031581 98.821538 
L 92.35656 99.737321 
L 93.006519 98.218068 
L 93.331499 97.729182 
L 93.656478 101.187834 
L 93.981458 102.174653 
L 94.306437 106.409236 
L 94.631417 108.722994 
L 94.956396 109.042603 
L 95.281376 111.298857 
L 95.606355 109.178107 
L 95.931335 112.350115 
L 96.256314 108.819825 
L 96.581294 107.343999 
L 96.906274 105.327457 
L 97.231253 105.447543 
L 97.556233 103.602634 
L 97.881212 102.736528 
L 98.206192 101.143283 
L 98.531171 102.683394 
L 98.856151 98.081696 
L 99.18113 98.572443 
L 99.50611 91.256578 
L 99.831089 93.848789 
L 100.156069 92.901126 
L 100.481048 95.890116 
L 100.806028 96.026676 
L 101.131007 95.583696 
L 101.455987 94.298479 
L 101.780966 94.008089 
L 102.105946 95.79113 
L 102.430925 93.295343 
L 102.755905 93.704476 
L 103.080885 93.429843 
L 103.405864 92.712266 
L 103.730844 93.292527 
L 104.055823 90.214406 
L 104.380803 91.948807 
L 104.705782 90.975739 
L 105.030762 86.839233 
L 105.355741 84.746278 
L 105.680721 86.563354 
L 106.0057 85.98519 
L 106.33068 86.079445 
L 106.655659 87.052374 
L 106.980639 88.520836 
L 107.305618 87.233619 
L 107.630598 88.067606 
L 107.955577 89.48504 
L 108.280557 87.531562 
L 108.605536 86.772842 
L 108.930516 88.262195 
L 109.255495 87.730606 
L 109.580475 85.357067 
L 109.905455 84.830812 
L 110.230434 81.496381 
L 110.555414 81.148208 
L 110.880393 81.612039 
L 111.205373 83.114166 
L 111.530352 82.88932 
L 112.180311 80.57883 
L 112.505291 80.075031 
L 112.83027 81.155941 
L 113.15525 78.693213 
L 113.480229 77.694098 
L 113.805209 78.926123 
L 114.130188 77.693078 
L 114.455168 78.786953 
L 114.780147 79.345844 
L 115.105127 78.079364 
L 115.430106 79.78535 
L 115.755086 78.859992 
L 116.080066 80.274377 
L 117.055004 76.771326 
L 117.379984 73.356794 
L 117.704963 74.943362 
L 118.029943 73.392944 
L 118.354922 72.930727 
L 118.679902 71.587567 
L 119.004881 71.73815 
L 119.329861 71.674021 
L 119.65484 70.408053 
L 119.97982 69.882021 
L 120.304799 67.959953 
L 120.629779 67.30752 
L 120.954758 65.474989 
L 121.279738 65.868984 
L 121.929697 67.7996 
L 122.579656 66.418546 
L 122.904636 65.922293 
L 123.229615 64.900201 
L 123.554595 66.042356 
L 123.879574 67.663539 
L 124.204554 68.410201 
L 124.529533 68.057957 
L 124.854513 67.483396 
L 125.179492 68.306966 
L 125.504472 66.42982 
L 125.829451 65.801124 
L 126.154431 65.41554 
L 126.47941 64.548603 
L 126.80439 64.999625 
L 127.129369 66.576831 
L 127.454349 66.009309 
L 127.779328 66.480747 
L 128.104308 65.049756 
L 128.429287 64.60303 
L 129.079247 65.153514 
L 129.404226 64.876834 
L 129.729206 65.523418 
L 130.054185 64.168361 
L 130.379165 64.887763 
L 130.704144 66.421313 
L 131.029124 65.956518 
L 131.354103 66.819693 
L 131.679083 66.465432 
L 132.004062 68.048902 
L 132.329042 67.968291 
L 132.654021 68.123192 
L 133.30398 69.30601 
L 133.62896 68.261141 
L 133.953939 66.649493 
L 134.278919 65.720545 
L 134.603898 66.041894 
L 134.928878 65.739996 
L 135.253857 66.543665 
L 135.578837 65.163748 
L 135.903817 65.605988 
L 136.228796 65.441495 
L 136.553776 66.396029 
L 136.878755 65.500237 
L 137.203735 65.85572 
L 137.853694 65.380175 
L 138.178673 64.235763 
L 138.503653 64.569382 
L 138.828632 63.486621 
L 139.478591 64.896293 
L 139.803571 64.433952 
L 140.12855 64.57234 
L 140.45353 63.462897 
L 140.778509 63.021653 
L 141.428468 64.033735 
L 141.753448 63.146415 
L 142.078428 61.91787 
L 142.403407 62.017644 
L 142.728387 62.948047 
L 143.053366 61.97435 
L 143.378346 62.136413 
L 144.028305 60.091089 
L 144.353284 61.279088 
L 144.678264 61.754383 
L 145.003243 62.001165 
L 145.653202 60.873206 
L 145.978182 60.730035 
L 146.303161 59.161562 
L 146.628141 58.913459 
L 146.95312 58.29757 
L 147.2781 58.072931 
L 147.603079 58.605228 
L 147.928059 57.33302 
L 148.253038 58.173489 
L 148.902998 57.638884 
L 149.227977 58.065724 
L 149.552957 56.162692 
L 149.877936 56.160686 
L 150.202916 55.453673 
L 150.527895 55.186534 
L 150.852875 54.550063 
L 151.502834 53.939261 
L 151.827813 54.287169 
L 152.152793 53.928498 
L 152.477772 53.793767 
L 152.802752 54.448222 
L 153.127731 53.846109 
L 153.452711 54.064931 
L 153.77769 53.569092 
L 154.10267 53.709091 
L 154.427649 53.568 
L 154.752629 54.519043 
L 155.077609 53.707615 
L 155.402588 54.161809 
L 155.727568 55.213066 
L 156.052547 54.578548 
L 156.377527 55.572398 
L 156.702506 55.286735 
L 157.027486 56.325977 
L 157.352465 55.745402 
L 157.677445 55.530761 
L 158.002424 55.696461 
L 158.327404 56.009163 
L 158.652383 55.625671 
L 158.977363 56.222284 
L 159.302342 55.901273 
L 159.627322 55.833841 
L 159.952301 56.210925 
L 160.277281 57.139711 
L 160.60226 55.57885 
L 160.92724 55.62594 
L 161.252219 54.52088 
L 161.577199 54.235585 
L 161.902179 54.68636 
L 162.552138 56.48783 
L 163.202097 55.16584 
L 163.527076 55.118556 
L 163.852056 54.735351 
L 165.151974 56.780858 
L 165.476953 56.342692 
L 165.801933 56.121806 
L 166.126912 56.302128 
L 166.451892 55.498422 
L 166.776871 55.998313 
L 167.101851 56.158208 
L 168.07679 56.981844 
L 168.401769 56.787013 
L 168.726749 55.498072 
L 169.051728 55.722607 
L 169.701687 56.604381 
L 170.351646 55.931859 
L 170.676626 56.136195 
L 171.001605 56.14611 
L 171.326585 56.529312 
L 171.976544 56.809563 
L 172.301523 57.075705 
L 172.626503 56.213954 
L 172.951482 56.27864 
L 173.276462 56.73013 
L 173.601441 56.522976 
L 174.2514 55.244185 
L 174.57638 55.389949 
L 175.226339 56.207832 
L 175.551319 56.221412 
L 175.876298 56.685082 
L 176.201278 56.781856 
L 176.526257 56.556999 
L 176.851237 56.068439 
L 177.176216 55.823111 
L 177.501196 55.024049 
L 177.826175 55.251956 
L 178.151155 56.139016 
L 178.476134 56.50914 
L 179.126093 56.496476 
L 179.451073 56.738483 
L 179.776052 56.826191 
L 180.101032 57.380257 
L 180.426011 57.676508 
L 180.750991 57.423643 
L 181.075971 57.802919 
L 181.40095 57.112763 
L 181.72593 57.131524 
L 182.050909 57.696933 
L 182.375889 57.1763 
L 182.700868 57.027819 
L 183.025848 58.011667 
L 183.350827 58.077204 
L 183.675807 58.426395 
L 184.000786 59.346798 
L 184.975725 60.985561 
L 185.300704 60.527859 
L 185.625684 60.380615 
L 185.950663 59.890151 
L 186.600622 59.55222 
L 186.925602 59.460429 
L 187.250581 60.120389 
L 187.575561 58.59836 
L 187.900541 57.889035 
L 188.22552 58.17979 
L 189.200459 59.955509 
L 189.525438 59.979619 
L 189.850418 59.314492 
L 190.175397 59.4836 
L 190.500377 59.15623 
L 190.825356 59.743573 
L 191.475315 60.194901 
L 191.800295 60.23159 
L 192.775233 58.52153 
L 193.425192 59.477407 
L 193.750172 59.208447 
L 194.075152 60.001846 
L 194.400131 60.475481 
L 194.725111 60.606944 
L 195.37507 60.039575 
L 196.025029 61.545278 
L 196.674988 60.592321 
L 197.324947 61.244803 
L 197.649926 60.693719 
L 197.974906 61.260304 
L 198.299885 61.241733 
L 198.624865 61.70029 
L 199.274824 60.923154 
L 199.599803 61.489634 
L 200.249762 60.792957 
L 200.574742 61.327906 
L 201.224701 60.488715 
L 202.19964 61.535327 
L 202.849599 61.328582 
L 203.174578 61.278263 
L 203.499558 61.426292 
L 203.824537 60.850141 
L 204.149517 61.14096 
L 204.474496 60.872559 
L 204.799476 61.621964 
L 205.124455 61.862285 
L 205.449435 62.373649 
L 206.099394 61.797346 
L 206.424373 62.19542 
L 206.749353 61.740946 
L 207.074333 61.7425 
L 207.399312 62.36628 
L 207.724292 62.248821 
L 208.69923 60.842842 
L 209.349189 61.603558 
L 209.674169 62.12354 
L 209.999148 62.063154 
L 210.324128 62.580116 
L 210.649107 62.416701 
L 210.974087 61.818587 
L 211.624046 61.898689 
L 212.274005 60.177775 
L 212.923964 60.365386 
L 213.248943 59.876802 
L 213.573923 60.111154 
L 213.898903 59.474608 
L 214.548862 59.918464 
L 214.873841 59.780009 
L 215.84878 59.967161 
L 216.498739 60.265548 
L 216.823718 60.629124 
L 217.148698 60.794223 
L 217.473677 60.82981 
L 217.798657 60.326274 
L 218.123636 60.752341 
L 218.773595 59.265464 
L 219.423554 59.119398 
L 219.748534 58.483845 
L 220.073514 58.384434 
L 220.398493 58.695819 
L 220.723473 59.215961 
L 221.048452 59.391388 
L 221.373432 59.888765 
L 221.698411 60.101614 
L 222.023391 59.93782 
L 222.34837 59.489797 
L 222.998329 59.177331 
L 223.323309 58.564164 
L 223.648288 58.888441 
L 224.298247 58.269552 
L 224.948206 58.320249 
L 225.273186 58.854049 
L 225.598165 59.049869 
L 226.248124 58.391712 
L 226.573104 58.231843 
L 226.898084 58.253382 
L 227.223063 57.979645 
L 228.198002 58.209482 
L 228.522981 57.988176 
L 229.17294 58.442215 
L 230.147879 59.568395 
L 230.472858 59.17649 
L 231.122817 59.727438 
L 231.447797 59.852238 
L 231.772776 59.507169 
L 232.097756 59.738949 
L 232.747715 59.077933 
L 233.397674 59.468472 
L 233.722654 59.155598 
L 234.047633 59.568794 
L 234.372613 59.776225 
L 235.347551 59.897872 
L 235.672531 60.088979 
L 235.99751 59.840932 
L 236.32249 59.431254 
L 237.297428 60.011412 
L 237.622408 60.467569 
L 237.947387 60.168244 
L 238.272367 59.614177 
L 238.597346 60.164988 
L 238.922326 60.431839 
L 239.247305 60.293902 
L 239.897265 60.331491 
L 240.547224 60.017744 
L 240.872203 60.095578 
L 241.197183 59.566881 
L 241.522162 59.642011 
L 241.847142 59.535471 
L 242.172121 59.883059 
L 243.14706 60.101426 
L 243.472039 59.94236 
L 243.797019 60.011618 
L 244.121998 59.923014 
L 244.446978 60.464669 
L 244.771957 60.655931 
L 245.096937 60.372936 
L 245.421916 60.274762 
L 245.746896 60.356235 
L 246.071876 60.06952 
L 247.046814 59.660443 
L 247.371794 59.85277 
L 247.696773 59.570115 
L 248.021753 59.479566 
L 248.346732 59.981489 
L 248.996691 59.587351 
L 249.321671 59.938611 
L 249.64665 60.085954 
L 249.97163 59.889713 
L 250.621589 60.00629 
L 251.271548 59.438416 
L 251.596527 59.736258 
L 251.921507 59.739148 
L 252.246486 60.139953 
L 252.571466 59.736687 
L 253.221425 59.845764 
L 253.546405 59.575987 
L 253.871384 59.670601 
L 254.196364 59.912325 
L 254.521343 60.332124 
L 254.846323 60.256581 
L 255.171302 60.620994 
L 255.496282 60.598325 
L 255.821261 60.002664 
L 256.146241 60.092311 
L 256.47122 59.636094 
L 256.7962 59.785774 
L 257.121179 59.723673 
L 257.771138 59.259891 
L 258.096118 59.370421 
L 258.421097 59.273447 
L 258.746077 59.341808 
L 259.396036 59.723867 
L 260.045995 59.521103 
L 260.370975 59.820378 
L 261.020934 59.472205 
L 261.345913 59.758078 
L 261.670893 59.745677 
L 262.320852 59.441484 
L 262.970811 59.483834 
L 263.29579 59.956954 
L 263.62077 59.785203 
L 263.945749 60.134728 
L 264.595708 60.50239 
L 265.570647 61.295818 
L 265.895627 60.978342 
L 266.545586 61.514303 
L 267.520524 60.671927 
L 268.170483 60.923569 
L 268.495463 61.336005 
L 268.820442 61.050676 
L 269.145422 61.344567 
L 269.795381 61.512873 
L 270.44534 62.189379 
L 270.770319 62.101225 
L 271.095299 62.370055 
L 272.070238 62.550725 
L 272.395217 62.416212 
L 273.045176 61.643913 
L 274.020115 61.905457 
L 274.345094 62.032678 
L 274.670074 62.361523 
L 274.995053 62.178938 
L 275.645012 62.499568 
L 275.969992 62.294662 
L 276.294971 62.394912 
L 276.619951 62.871468 
L 276.94493 62.458935 
L 278.569828 63.169944 
L 279.219787 62.358776 
L 279.544767 62.661786 
L 279.869746 62.317325 
L 280.194726 62.518526 
L 280.519705 62.954307 
L 280.844685 63.059318 
L 281.819623 63.094819 
L 282.144603 63.245007 
L 282.794562 62.450189 
L 283.119541 62.698103 
L 283.444521 62.737591 
L 283.7695 62.966002 
L 284.09448 62.688858 
L 284.744439 63.072988 
L 285.069419 63.238051 
L 285.394398 63.164292 
L 285.719378 63.523247 
L 286.044357 63.683591 
L 286.369337 64.079983 
L 286.694316 63.822115 
L 287.344275 64.153254 
L 287.669255 64.19427 
L 287.994234 63.874368 
L 288.319214 64.01005 
L 288.644193 64.285461 
L 288.969173 64.409873 
L 289.294152 64.230312 
L 289.944111 64.50609 
L 290.91905 65.089289 
L 291.569009 65.814247 
L 291.893989 66.172929 
L 292.543948 66.131031 
L 292.868927 65.811005 
L 293.193907 65.716116 
L 293.518886 65.784957 
L 293.843866 66.084028 
L 294.168845 66.180671 
L 294.493825 66.040024 
L 294.818804 66.196347 
L 295.143784 66.004715 
L 295.468763 66.01371 
L 296.118722 66.63584 
L 296.443702 67.043018 
L 297.41864 67.058453 
L 297.74362 66.491757 
L 298.0686 66.577637 
L 298.393579 66.266142 
L 299.043538 66.795787 
L 299.368518 66.611821 
L 300.018477 66.851279 
L 300.343456 66.857752 
L 300.668436 67.25888 
L 301.318395 66.895387 
L 301.968354 67.289323 
L 302.293333 66.899291 
L 302.618313 67.255303 
L 303.593251 67.441684 
L 303.918231 67.332351 
L 306.193088 67.952449 
L 306.518067 68.153755 
L 306.843047 68.543539 
L 307.168026 68.378815 
L 307.817985 68.775651 
L 308.142965 69.076884 
L 308.467944 69.112249 
L 308.792924 69.430737 
L 309.117903 69.170842 
L 309.442883 69.278253 
L 309.767862 68.900605 
L 310.092842 69.026372 
L 310.417821 68.762569 
L 310.742801 68.938939 
L 311.39276 68.481689 
L 311.71774 68.418058 
L 312.042719 68.788155 
L 312.367699 68.900001 
L 312.692678 68.850633 
L 313.017658 69.033344 
L 313.342637 69.022972 
L 313.992596 68.450941 
L 315.292514 68.247531 
L 315.617494 68.26493 
L 315.942473 68.525256 
L 316.267453 68.248652 
L 316.917412 68.85563 
L 317.242391 68.683006 
L 317.892351 68.739589 
L 318.21733 68.699206 
L 318.54231 68.777267 
L 318.867289 68.588559 
L 319.192269 68.928684 
L 319.517248 68.855384 
L 320.167207 69.090555 
L 320.492187 68.84164 
L 321.142146 68.838116 
L 322.442064 69.880972 
L 322.767043 69.841842 
L 323.092023 69.603109 
L 323.417002 69.677917 
L 323.741982 69.203188 
L 324.716921 69.3147 
L 325.0419 69.581768 
L 325.36688 69.210524 
L 326.341818 69.508307 
L 326.666798 69.22107 
L 326.991777 69.39449 
L 327.316757 68.92082 
L 327.641736 68.916863 
L 328.291695 69.311002 
L 328.616675 68.867704 
L 328.941654 69.073733 
L 329.266634 68.811879 
L 329.916593 68.767261 
L 330.566552 68.483264 
L 330.891532 68.443721 
L 331.216511 68.236748 
L 331.541491 68.210697 
L 331.86647 68.423816 
L 332.516429 68.617412 
L 333.816347 68.891783 
L 334.466306 68.551671 
L 334.791286 68.288245 
L 335.116265 68.204641 
L 335.441245 67.909016 
L 335.766224 68.087208 
L 336.091204 68.082549 
L 336.741163 67.785014 
L 337.066143 67.618836 
L 337.391122 67.758324 
L 338.041081 68.240628 
L 338.69104 68.248579 
L 339.340999 67.880862 
L 339.665979 68.109986 
L 340.640917 67.547227 
L 340.965897 67.720205 
L 341.290876 67.677596 
L 341.615856 67.86907 
L 341.940835 67.631057 
L 342.265815 67.610534 
L 342.915774 67.877821 
L 343.890713 68.194009 
L 344.540672 68.635906 
L 344.865651 68.263017 
L 345.51561 68.108434 
L 345.84059 67.879513 
L 346.815528 68.501589 
L 347.140508 68.585346 
L 347.465487 68.374178 
L 347.790467 68.598664 
L 348.115446 68.329664 
L 348.440426 68.471632 
L 348.765405 68.408877 
L 349.090385 68.131711 
L 350.065324 68.801028 
L 350.715283 67.947892 
L 351.365242 68.215053 
L 351.690221 67.997074 
L 352.015201 67.921389 
L 352.34018 68.217494 
L 352.66516 68.083243 
L 352.990139 68.087955 
L 353.315119 67.641952 
L 353.640098 67.690112 
L 353.965078 67.398331 
L 354.290057 67.493038 
L 354.615037 67.256573 
L 354.940016 67.470604 
L 355.264996 67.012768 
L 356.564914 66.999351 
L 356.889894 67.177477 
L 357.214873 66.990255 
L 357.864832 67.427245 
L 358.514791 67.302549 
L 359.16475 66.685361 
L 359.48973 66.855503 
L 359.814709 66.77528 
L 360.139689 67.001174 
L 360.464668 67.041028 
L 361.114627 67.610286 
L 361.439607 67.62073 
L 362.089566 68.029793 
L 362.414545 67.99377 
L 362.739525 68.191461 
L 363.064505 67.852102 
L 363.389484 68.018746 
L 363.714464 67.968206 
L 364.039443 67.589554 
L 364.364423 67.562211 
L 365.014382 66.94723 
L 365.339361 66.779089 
L 365.98932 67.044502 
L 366.964259 66.84358 
L 367.289238 66.555522 
L 368.264177 66.413585 
L 368.589156 66.568309 
L 369.239115 66.423996 
L 369.564095 66.51133 
L 369.889075 66.461855 
L 370.214054 66.631998 
L 370.539034 66.392037 
L 370.864013 66.482444 
L 371.188993 66.779664 
L 372.163931 65.980524 
L 372.81389 66.159802 
L 373.13887 65.962807 
L 373.463849 65.984393 
L 374.113808 66.442723 
L 376.388665 65.623129 
L 376.713645 65.241664 
L 377.363604 65.149147 
L 378.663522 65.510254 
L 378.988501 65.348578 
L 379.313481 65.428779 
L 379.96344 65.024935 
L 380.938378 65.323614 
L 381.263358 65.100056 
L 381.588337 65.183971 
L 381.913317 65.030641 
L 382.238296 64.639257 
L 382.563276 64.815502 
L 382.888256 64.426084 
L 383.863194 64.412135 
L 384.188174 64.092671 
L 384.513153 64.248889 
L 384.838133 64.084773 
L 385.163112 64.116107 
L 385.488092 63.792211 
L 385.813071 63.9556 
L 386.138051 63.719177 
L 386.46303 63.93423 
L 386.78801 63.745763 
L 388.087928 63.626611 
L 388.737887 63.758972 
L 389.387846 64.135384 
L 390.037805 63.995442 
L 390.362785 63.693199 
L 390.687764 63.061627 
L 391.012744 62.816226 
L 391.337723 62.368683 
L 391.662703 62.497762 
L 393.2876 62.238327 
L 393.61258 62.045731 
L 393.937559 62.053975 
L 394.262539 62.242026 
L 394.587518 61.946516 
L 394.912498 62.146384 
L 395.562457 61.944462 
L 396.212416 61.803927 
L 396.862375 61.475351 
L 398.487273 60.441078 
L 398.487273 60.441078 
" clip-path="url(#pc9eb20838f)" style="fill: none; stroke-dasharray: 2,3.3; stroke-dashoffset: 0; stroke: #0000ff; stroke-width: 2"/>
   </g>
   <g id="line2d_14">
    <path d="M 73.832727 295.488 
L 74.157707 219.255011 
L 74.482686 208.058838 
L 74.807666 234.68024 
L 75.132645 204.550241 
L 75.457625 187.625815 
L 75.782604 152.327882 
L 76.107584 140.250645 
L 76.757543 179.719557 
L 77.082523 182.306527 
L 77.732482 160.209697 
L 78.057461 145.205181 
L 78.382441 137.011108 
L 79.357379 166.509449 
L 79.682359 156.849702 
L 80.007338 162.965737 
L 80.332318 157.095214 
L 80.982277 129.375723 
L 81.307256 123.908329 
L 81.632236 121.189893 
L 81.957215 113.00555 
L 82.282195 113.438737 
L 82.607174 115.002187 
L 82.932154 112.721808 
L 83.257133 106.0913 
L 83.582113 114.120361 
L 83.907093 117.688747 
L 84.232072 119.639828 
L 84.557052 119.990481 
L 84.882031 119.91934 
L 85.207011 121.895234 
L 85.53199 114.543879 
L 85.85697 119.586526 
L 86.181949 115.885813 
L 86.831908 128.691392 
L 87.156888 127.668589 
L 87.481867 123.317235 
L 87.806847 127.1709 
L 88.131826 122.69077 
L 88.456806 122.312482 
L 88.781785 120.19862 
L 89.106765 115.639407 
L 89.431744 113.484749 
L 89.756724 112.383833 
L 90.081704 114.144921 
L 90.406683 108.345528 
L 90.731663 100.3171 
L 91.381622 109.477356 
L 91.706601 108.497781 
L 92.031581 104.944675 
L 92.35656 105.754886 
L 92.68154 104.802776 
L 93.006519 104.328681 
L 93.331499 103.512713 
L 93.656478 106.878082 
L 93.981458 107.77458 
L 94.306437 111.921665 
L 94.631417 114.150616 
L 94.956396 114.387988 
L 95.281376 116.56446 
L 95.606355 119.674492 
L 95.931335 113.761539 
L 96.581294 110.080779 
L 96.906274 106.473313 
L 97.231253 106.577703 
L 97.881212 103.07662 
L 98.206192 102.049285 
L 98.856151 94.177243 
L 99.18113 95.766541 
L 99.50611 96.280093 
L 99.831089 98.810285 
L 100.156069 97.802117 
L 100.481048 100.732058 
L 100.806028 101.473963 
L 101.131007 100.966897 
L 101.455987 99.619085 
L 101.780966 99.267538 
L 102.105946 100.990813 
L 102.430925 101.318077 
L 103.080885 96.259466 
L 103.405864 95.511133 
L 103.730844 95.049695 
L 104.055823 95.598916 
L 104.380803 97.276639 
L 104.705782 96.248073 
L 105.030762 92.56367 
L 105.355741 90.412304 
L 105.680721 92.172147 
L 106.0057 91.537895 
L 106.33068 91.577172 
L 106.655659 92.496202 
L 106.980639 93.911811 
L 107.305618 94.689604 
L 107.630598 96.05747 
L 108.280557 92.094324 
L 108.605536 91.293355 
L 108.930516 92.741236 
L 109.255495 92.168928 
L 109.580475 89.755405 
L 109.905455 89.189879 
L 110.230434 85.816872 
L 110.555414 85.384373 
L 110.880393 86.866759 
L 111.205373 86.590092 
L 111.530352 85.323784 
L 111.855332 85.212447 
L 112.180311 84.096362 
L 112.505291 83.56325 
L 112.83027 84.615331 
L 113.15525 83.559485 
L 113.480229 81.008396 
L 113.805209 82.213693 
L 114.130188 80.954348 
L 114.455168 82.022339 
L 114.780147 82.555754 
L 115.105127 81.264197 
L 115.430106 82.945495 
L 116.080066 80.858613 
L 116.405045 80.826088 
L 116.730025 82.204422 
L 117.379984 80.227448 
L 117.704963 77.722001 
L 118.029943 76.620132 
L 118.354922 78.16006 
L 118.679902 77.666872 
L 119.329861 77.956772 
L 119.65484 77.490395 
L 119.97982 76.192606 
L 120.304799 74.226715 
L 120.629779 73.531063 
L 120.954758 71.655906 
L 121.279738 72.197839 
L 121.929697 74.043504 
L 122.579656 72.579749 
L 122.904636 72.042962 
L 123.229615 70.980865 
L 123.554595 70.812565 
L 123.879574 71.909207 
L 124.204554 73.48239 
L 124.529533 74.187234 
L 124.854513 73.573879 
L 125.179492 71.922316 
L 125.504472 71.983484 
L 125.829451 71.320294 
L 126.154431 71.840788 
L 126.47941 70.895166 
L 126.80439 72.58539 
L 127.129369 71.685508 
L 127.779328 72.523141 
L 128.429287 71.144462 
L 128.754267 70.658162 
L 129.079247 70.831756 
L 129.404226 71.135036 
L 129.729206 70.825381 
L 130.379165 72.111946 
L 130.704144 73.60445 
L 131.029124 73.099072 
L 131.354103 73.92212 
L 132.004062 72.991937 
L 132.329042 74.5306 
L 132.654021 74.414819 
L 132.979001 74.533646 
L 133.62896 75.640768 
L 133.953939 75.100128 
L 134.278919 74.035449 
L 134.603898 74.31257 
L 134.928878 73.966912 
L 135.253857 74.727281 
L 135.578837 73.304518 
L 135.903817 73.704358 
L 136.228796 73.178133 
L 136.553776 72.975456 
L 136.878755 73.886459 
L 137.203735 72.95702 
L 137.528714 73.272847 
L 138.178673 72.725148 
L 138.503653 73.016321 
L 138.828632 73.642107 
L 139.153612 72.519792 
L 139.803571 73.833993 
L 140.12855 73.330309 
L 140.45353 73.223641 
L 140.778509 72.216802 
L 141.103489 71.735594 
L 141.753448 72.659867 
L 142.078428 71.386235 
L 142.403407 71.441346 
L 142.728387 72.327507 
L 143.053366 71.238631 
L 143.378346 71.427387 
L 143.703325 70.696078 
L 144.028305 69.525289 
L 144.353284 70.64756 
L 144.678264 71.080076 
L 145.003243 70.369313 
L 145.328223 70.575996 
L 145.653202 70.185902 
L 145.978182 70.000971 
L 146.303161 68.39111 
L 146.628141 68.101986 
L 146.95312 67.445439 
L 147.2781 66.169019 
L 147.603079 66.098942 
L 147.928059 66.593866 
L 148.253038 65.292456 
L 148.578018 66.108035 
L 149.227977 65.526674 
L 149.552957 65.917982 
L 149.877936 65.874464 
L 150.202916 65.126291 
L 150.527895 64.934433 
L 150.852875 64.152233 
L 151.502834 63.461413 
L 151.827813 63.658346 
L 152.152793 63.260952 
L 152.477772 63.087815 
L 152.802752 62.447827 
L 153.127731 63.619673 
L 153.452711 63.082979 
L 154.427649 62.950901 
L 154.752629 63.179512 
L 155.077609 62.333581 
L 155.402588 62.659204 
L 156.377527 65.908193 
L 156.702506 65.10974 
L 157.027486 64.788078 
L 157.352465 64.241785 
L 157.677445 63.99434 
L 158.002424 64.127487 
L 158.327404 64.407887 
L 158.652383 63.992338 
L 158.977363 64.557139 
L 159.302342 64.204557 
L 159.627322 64.105791 
L 159.952301 64.451778 
L 160.277281 65.349699 
L 160.92724 62.618804 
L 161.252219 62.303837 
L 161.577199 63.153319 
L 161.902179 63.571309 
L 162.227158 63.517833 
L 162.552138 64.453256 
L 162.877117 64.035769 
L 163.202097 63.385548 
L 163.527076 63.30859 
L 163.852056 62.895924 
L 164.502015 63.862214 
L 164.826994 64.54734 
L 165.151974 64.738797 
L 165.476953 64.272511 
L 165.801933 64.023703 
L 166.126912 64.1763 
L 166.451892 64.647597 
L 166.776871 64.777912 
L 167.101851 64.090657 
L 168.07679 64.832515 
L 168.401769 64.610799 
L 168.726749 63.111793 
L 169.051728 63.310431 
L 169.701687 64.140936 
L 170.351646 63.417833 
L 170.676626 63.597133 
L 171.001605 63.582178 
L 171.326585 63.940675 
L 171.651564 64.03634 
L 171.976544 63.556296 
L 172.626503 63.935795 
L 172.951482 63.580245 
L 173.276462 63.620727 
L 173.601441 63.814775 
L 173.926421 64.238954 
L 174.2514 64.008915 
L 174.57638 63.294366 
L 174.90136 63.413861 
L 175.551319 64.178031 
L 175.876298 64.616442 
L 176.201278 64.366081 
L 176.526257 65.023629 
L 176.851237 64.895724 
L 177.176216 64.382556 
L 177.501196 64.112013 
L 177.826175 64.311608 
L 178.151155 65.170533 
L 178.476134 64.318304 
L 179.126093 64.257584 
L 179.451073 64.475784 
L 179.776052 64.53983 
L 180.101032 65.070379 
L 180.750991 65.699684 
L 181.075971 64.983585 
L 181.40095 64.978696 
L 181.72593 64.498367 
L 182.050909 65.041719 
L 182.375889 64.499162 
L 182.700868 64.328886 
L 183.025848 65.29107 
L 183.350827 65.759683 
L 183.675807 65.80217 
L 184.000786 66.70088 
L 184.325766 65.908115 
L 185.300704 67.484893 
L 185.625684 67.317483 
L 186.275643 66.270445 
L 186.925602 65.896919 
L 187.250581 65.787263 
L 187.575561 66.427318 
L 187.900541 65.695751 
L 188.22552 65.964391 
L 189.200459 67.67451 
L 189.525438 67.676998 
L 189.850418 66.99037 
L 190.175397 67.138096 
L 190.500377 66.789463 
L 190.825356 67.355662 
L 191.475315 67.76505 
L 191.800295 67.780942 
L 192.775233 66.00917 
L 193.425192 66.924464 
L 193.750172 66.635377 
L 194.075152 67.408757 
L 194.400131 67.862481 
L 194.725111 67.97414 
L 195.37507 67.367479 
L 196.350008 69.389635 
L 197.324947 68.118299 
L 197.649926 68.407634 
L 197.974906 67.839287 
L 198.299885 68.385788 
L 198.624865 68.348758 
L 198.949844 68.787714 
L 199.274824 68.391758 
L 199.599803 68.938989 
L 200.249762 68.195157 
L 200.574742 68.734557 
L 201.224701 67.857674 
L 202.19964 68.84846 
L 202.849599 68.604966 
L 203.174578 68.53641 
L 203.499558 68.666294 
L 203.824537 68.072088 
L 204.149517 68.344942 
L 204.474496 68.058665 
L 204.799476 68.790283 
L 205.124455 69.012904 
L 205.449435 68.823716 
L 205.774414 69.316718 
L 206.099394 69.00124 
L 206.424373 69.3817 
L 206.749353 68.909699 
L 207.074333 68.89381 
L 207.399312 69.500233 
L 207.724292 69.365501 
L 208.69923 67.9082 
L 209.349189 68.63511 
L 209.674169 69.138311 
L 209.999148 69.061222 
L 210.324128 69.561562 
L 210.649107 69.381604 
L 210.974087 68.767023 
L 211.624046 68.814427 
L 212.274005 67.061121 
L 212.598984 67.111243 
L 212.923964 67.390871 
L 213.248943 67.470243 
L 213.898903 66.313894 
L 214.548862 66.726232 
L 214.873841 66.672625 
L 215.198821 67.124473 
L 215.5238 67.144663 
L 215.84878 67.429335 
L 216.173759 67.447637 
L 216.498739 67.795716 
L 216.823718 67.652646 
L 217.148698 67.672797 
L 217.473677 67.152677 
L 217.798657 67.83289 
L 218.123636 67.377841 
L 218.448616 66.53098 
L 218.773595 66.501277 
L 219.098575 66.347568 
L 219.423554 65.6945 
L 219.748534 65.578845 
L 220.073514 65.874969 
L 220.398493 65.935333 
L 220.723473 66.439493 
L 221.048452 66.603884 
L 221.373432 65.918567 
L 221.698411 66.400538 
L 222.023391 66.222961 
L 222.34837 65.761214 
L 222.998329 65.421482 
L 223.323309 64.79477 
L 223.648288 64.660071 
L 223.973268 64.970482 
L 224.298247 64.716858 
L 224.623227 65.364535 
L 225.273186 65.593648 
L 225.598165 65.555449 
L 225.923145 65.736562 
L 226.898084 64.982533 
L 227.873022 65.168626 
L 228.198002 64.430328 
L 228.522981 64.586737 
L 228.847961 64.250158 
L 229.17294 64.521919 
L 230.472858 66.278657 
L 230.797838 66.343711 
L 231.122817 65.939452 
L 231.447797 66.051469 
L 231.772776 65.693671 
L 232.097756 65.920167 
L 232.422735 65.61018 
L 232.747715 65.518673 
L 233.072695 65.128386 
L 233.722654 65.457215 
L 234.047633 65.857654 
L 234.372613 66.052381 
L 234.697592 65.966059 
L 235.347551 66.293291 
L 235.672531 66.032313 
L 235.99751 65.609433 
L 236.647469 66.108916 
L 236.972449 66.199125 
L 237.297428 65.980467 
L 237.622408 66.424803 
L 238.272367 65.679451 
L 238.597346 66.218323 
L 238.922326 66.473281 
L 239.247305 66.323498 
L 239.897265 66.337534 
L 240.547224 66.000417 
L 240.872203 66.066635 
L 241.197183 65.526365 
L 241.522162 65.589968 
L 241.847142 65.471946 
L 242.172121 65.659679 
L 242.497101 65.994821 
L 242.82208 65.972114 
L 243.14706 66.111976 
L 243.472039 65.935225 
L 243.797019 65.993047 
L 244.121998 66.524171 
L 244.446978 66.704277 
L 244.771957 66.556875 
L 245.096937 66.262704 
L 245.421916 66.153396 
L 245.746896 66.223777 
L 246.071876 65.926012 
L 247.046814 65.545708 
L 247.371794 65.727035 
L 247.696773 65.657756 
L 248.021753 65.364817 
L 248.346732 65.8558 
L 248.996691 65.439905 
L 249.64665 65.79296 
L 249.97163 65.63157 
L 250.296609 65.63487 
L 250.621589 65.766985 
L 251.596527 64.921237 
L 251.921507 65.208549 
L 252.246486 65.201484 
L 252.571466 65.591649 
L 253.221425 65.67955 
L 253.546405 65.399243 
L 253.871384 65.483364 
L 254.196364 65.714634 
L 254.521343 66.124016 
L 254.846323 66.038093 
L 255.171302 66.392163 
L 256.146241 66.358331 
L 256.47122 66.681586 
L 256.7962 66.214495 
L 257.121179 66.352266 
L 257.446159 66.278674 
L 257.771138 65.394507 
L 258.421097 65.107792 
L 258.746077 65.165918 
L 259.396036 65.527612 
L 260.045995 65.304626 
L 260.695954 65.921148 
L 262.645831 65.189104 
L 262.970811 65.208488 
L 263.62077 66.011865 
L 264.270729 66.360129 
L 264.920688 66.934243 
L 265.245667 66.650518 
L 265.570647 66.841549 
L 265.895627 66.514704 
L 266.545586 67.032025 
L 267.520524 66.161921 
L 268.170483 66.395233 
L 268.495463 66.79855 
L 268.820442 66.504132 
L 269.145422 66.788964 
L 269.795381 66.939242 
L 270.770319 67.956853 
L 271.095299 67.859358 
L 271.420278 67.909098 
L 271.745258 68.167525 
L 272.070238 68.261559 
L 273.045176 67.44413 
L 274.020115 67.677473 
L 274.345094 67.795354 
L 274.670074 68.11489 
L 274.995053 67.923025 
L 275.645012 68.225185 
L 275.969992 68.011088 
L 276.294971 68.102178 
L 276.619951 68.569602 
L 276.94493 68.147967 
L 278.569828 68.813896 
L 279.219787 67.984896 
L 279.544767 68.279031 
L 279.869746 67.925724 
L 280.194726 68.118108 
L 280.519705 68.545097 
L 280.844685 68.641346 
L 281.819623 68.650722 
L 282.144603 68.792256 
L 282.794562 67.98021 
L 283.119541 68.219551 
L 283.444521 68.250492 
L 283.7695 68.470382 
L 284.09448 68.184743 
L 284.419459 68.310078 
L 284.744439 68.103527 
L 285.069419 68.345358 
L 285.394398 68.263766 
L 285.719378 68.614912 
L 286.044357 68.767471 
L 286.369337 69.156101 
L 286.694316 69.228756 
L 287.019296 69.451201 
L 287.669255 69.618677 
L 287.994234 69.925284 
L 288.319214 69.597195 
L 288.969173 69.840237 
L 289.294152 69.652497 
L 289.619132 69.954748 
L 290.269091 70.212948 
L 290.91905 70.603717 
L 291.569009 71.381918 
L 292.218968 71.324478 
L 292.543948 70.996272 
L 292.868927 71.172788 
L 293.193907 71.069967 
L 293.518886 71.1309 
L 293.843866 71.422086 
L 294.493825 71.659375 
L 295.143784 71.264983 
L 295.468763 71.266276 
L 296.118722 71.87307 
L 296.443702 72.267345 
L 296.768681 71.855371 
L 297.74362 71.845982 
L 298.0686 71.924113 
L 298.718559 71.40433 
L 299.368518 71.918428 
L 300.018477 72.142659 
L 300.343456 71.905097 
L 300.668436 71.904331 
L 300.993415 72.297676 
L 301.318395 72.156203 
L 301.968354 72.535173 
L 302.293333 72.237415 
L 302.618313 72.585855 
L 303.593251 72.74965 
L 303.918231 72.63283 
L 306.193088 73.168288 
L 306.518067 73.362319 
L 306.843047 73.744849 
L 307.168026 73.572891 
L 307.817985 73.955319 
L 308.142965 74.249377 
L 308.467944 74.277589 
L 308.792924 74.588943 
L 309.117903 74.321932 
L 309.442883 74.422248 
L 309.767862 74.037524 
L 310.092842 74.156235 
L 310.417821 73.885396 
L 310.742801 74.054748 
L 311.39276 73.58352 
L 311.71774 73.512929 
L 312.042719 73.876085 
L 312.367699 73.981009 
L 312.692678 73.924737 
L 313.017658 74.100563 
L 313.342637 74.083325 
L 313.992596 73.497617 
L 315.292514 73.182925 
L 315.617494 73.437 
L 315.942473 73.153441 
L 316.267453 73.170644 
L 316.917412 73.764479 
L 317.242391 73.585311 
L 317.892351 73.800516 
L 318.867289 73.651186 
L 319.192269 73.45628 
L 319.517248 73.571688 
L 319.842228 73.904342 
L 320.167207 73.824679 
L 320.492187 74.022453 
L 321.142146 74.005331 
L 322.117084 74.805484 
L 322.442064 75.049007 
L 322.767043 75.003139 
L 323.417002 74.335034 
L 323.741982 74.4036 
L 324.066962 74.210129 
L 325.0419 74.313903 
L 325.36688 74.574176 
L 325.691859 74.458704 
L 326.666798 74.734396 
L 326.991777 74.440827 
L 327.316757 74.509674 
L 327.641736 74.030068 
L 328.291695 74.411163 
L 328.616675 74.38267 
L 329.266634 74.752143 
L 329.591613 74.483415 
L 330.241572 74.424495 
L 330.891532 74.126571 
L 331.216511 74.081125 
L 331.541491 73.867313 
L 331.86647 73.834212 
L 332.516429 74.174942 
L 333.816347 74.47401 
L 334.466306 74.229306 
L 335.441245 73.60743 
L 335.766224 73.778561 
L 336.416183 73.666186 
L 337.066143 73.242529 
L 337.391122 73.375092 
L 337.716102 73.668847 
L 338.041081 73.725232 
L 338.366061 73.899696 
L 338.69104 73.876244 
L 339.340999 73.494767 
L 339.665979 73.717036 
L 340.315938 73.296815 
L 340.640917 73.463008 
L 340.965897 73.221227 
L 341.290876 73.171943 
L 341.615856 73.356757 
L 341.940835 73.1121 
L 342.265815 73.084949 
L 343.565733 73.705453 
L 343.890713 73.702461 
L 344.540672 74.17637 
L 344.865651 73.796846 
L 345.51561 73.629039 
L 345.84059 73.39353 
L 346.815528 73.995937 
L 347.140508 74.073169 
L 347.465487 73.855491 
L 347.790467 74.073482 
L 348.115446 73.798004 
L 348.440426 73.933508 
L 348.765405 73.864304 
L 349.090385 73.580705 
L 349.740344 74.174989 
L 350.065324 73.829832 
L 350.715283 73.833038 
L 351.040262 73.377365 
L 351.365242 73.567964 
L 351.690221 73.474919 
L 352.015201 73.538518 
L 352.34018 73.422277 
L 352.66516 73.69964 
L 352.990139 73.697822 
L 353.640098 73.335501 
L 353.965078 72.88445 
L 354.290057 73.077053 
L 354.615037 73.118762 
L 354.940016 72.876074 
L 355.264996 73.083377 
L 356.564914 73.04208 
L 356.889894 73.213276 
L 357.214873 73.019141 
L 357.864832 73.44235 
L 358.514791 73.303937 
L 359.16475 72.673094 
L 359.48973 72.836432 
L 359.814709 72.74942 
L 360.139689 72.96854 
L 360.464668 73.001636 
L 361.114627 73.559321 
L 361.439607 73.563051 
L 361.764586 73.818644 
L 362.089566 73.57223 
L 362.414545 73.712436 
L 362.739525 73.519708 
L 363.389484 73.514023 
L 363.714464 73.200417 
L 364.364423 73.565991 
L 365.014382 73.434194 
L 365.339361 73.157254 
L 365.98932 73.4201 
L 368.264177 73.002037 
L 368.589156 72.670638 
L 368.914136 72.818309 
L 369.239115 72.751556 
L 369.564095 72.831945 
L 369.889075 72.77554 
L 370.214054 72.938767 
L 370.539034 72.691905 
L 370.864013 72.775428 
L 371.188993 73.065778 
L 372.163931 72.246118 
L 372.81389 72.411789 
L 373.13887 72.208013 
L 373.463849 72.222833 
L 374.113808 72.643394 
L 375.738706 71.918662 
L 376.388665 71.564761 
L 377.038624 71.473356 
L 377.363604 71.660164 
L 378.013563 71.686254 
L 378.663522 71.832467 
L 378.988501 72.037018 
L 379.313481 72.110112 
L 379.96344 71.692097 
L 380.288419 71.441852 
L 380.938378 71.606864 
L 381.263358 71.376671 
L 381.588337 71.453965 
L 382.238296 71.211123 
L 382.563276 70.813652 
L 382.888256 70.983226 
L 383.213235 70.587744 
L 384.188174 70.674334 
L 384.513153 70.348661 
L 384.838133 70.241271 
L 385.163112 69.952914 
L 385.813071 70.259362 
L 386.138051 70.18243 
L 386.78801 69.72811 
L 387.112989 69.93649 
L 388.737887 69.673515 
L 389.062867 69.885521 
L 389.387846 69.877455 
L 389.712826 70.082604 
L 390.037805 69.88231 
L 390.687764 69.899448 
L 391.012744 69.772506 
L 391.337723 69.894146 
L 391.987682 69.72923 
L 392.312662 69.198749 
L 392.962621 69.221524 
L 393.937559 68.730151 
L 394.587518 68.748454 
L 395.237477 69.121969 
L 396.212416 68.834579 
L 397.512334 68.277501 
L 397.837314 67.991448 
L 398.162293 67.877559 
L 398.487273 67.57704 
L 398.487273 67.57704 
" clip-path="url(#pc9eb20838f)" style="fill: none; stroke-dasharray: 2,3.3; stroke-dashoffset: 0; stroke: #ffa500; stroke-width: 2"/>
   </g>
   <g id="patch_3">
    <path d="M 57.6 307.584 
L 57.6 41.472 
" style="fill: none; stroke: #000000; stroke-width: 0.8; stroke-linejoin: miter; stroke-linecap: square"/>
   </g>
   <g id="patch_4">
    <path d="M 414.72 307.584 
L 414.72 41.472 
" style="fill: none; stroke: #000000; stroke-width: 0.8; stroke-linejoin: miter; stroke-linecap: square"/>
   </g>
   <g id="patch_5">
    <path d="M 57.6 307.584 
L 414.72 307.584 
" style="fill: none; stroke: #000000; stroke-width: 0.8; stroke-linejoin: miter; stroke-linecap: square"/>
   </g>
   <g id="patch_6">
    <path d="M 57.6 41.472 
L 414.72 41.472 
" style="fill: none; stroke: #000000; stroke-width: 0.8; stroke-linejoin: miter; stroke-linecap: square"/>
   </g>
   <g id="text_15">
    <!-- Waiting Time Plot -->
    <g transform="translate(183.833438 8.2635)scale(0.12 -0.12)">
     <defs>
      <path id="DejaVuSans-50" d="M 1259 4147 
L 1259 2394 
L 2053 2394 
Q 2494 2394 2734 2622 
Q 2975 2850 2975 3272 
Q 2975 3691 2734 3919 
Q 2494 4147 2053 4147 
L 1259 4147 
z
M 628 4666 
L 2053 4666 
Q 2838 4666 3239 4311 
Q 3641 3956 3641 3272 
Q 3641 2581 3239 2228 
Q 2838 1875 2053 1875 
L 1259 1875 
L 1259 0 
L 628 0 
L 628 4666 
z
" transform="scale(0.015625)"/>
      <path id="DejaVuSans-6c" d="M 603 4863 
L 1178 4863 
L 1178 0 
L 603 0 
L 603 4863 
z
" transform="scale(0.015625)"/>
     </defs>
     <use xlink:href="#DejaVuSans-57"/>
     <use xlink:href="#DejaVuSans-61" x="92.501953"/>
     <use xlink:href="#DejaVuSans-69" x="153.78125"/>
     <use xlink:href="#DejaVuSans-74" x="181.564453"/>
     <use xlink:href="#DejaVuSans-69" x="220.773438"/>
     <use xlink:href="#DejaVuSans-6e" x="248.556641"/>
     <use xlink:href="#DejaVuSans-67" x="311.935547"/>
     <use xlink:href="#DejaVuSans-20" x="375.412109"/>
     <use xlink:href="#DejaVuSans-54" x="407.199219"/>
     <use xlink:href="#DejaVuSans-69" x="465.158203"/>
     <use xlink:href="#DejaVuSans-6d" x="492.941406"/>
     <use xlink:href="#DejaVuSans-65" x="590.353516"/>
     <use xlink:href="#DejaVuSans-20" x="651.876953"/>
     <use xlink:href="#DejaVuSans-50" x="683.664062"/>
     <use xlink:href="#DejaVuSans-6c" x="743.966797"/>
     <use xlink:href="#DejaVuSans-6f" x="771.75"/>
     <use xlink:href="#DejaVuSans-74" x="832.931641"/>
    </g>
    <!--  avg_d = 608.1090610821713  -->
    <g transform="translate(142.671562 21.700875)scale(0.12 -0.12)">
     <defs>
      <path id="DejaVuSans-76" d="M 191 3500 
L 800 3500 
L 1894 563 
L 2988 3500 
L 3597 3500 
L 2284 0 
L 1503 0 
L 191 3500 
z
" transform="scale(0.015625)"/>
      <path id="DejaVuSans-5f" d="M 3263 -1063 
L 3263 -1509 
L -63 -1509 
L -63 -1063 
L 3263 -1063 
z
" transform="scale(0.015625)"/>
      <path id="DejaVuSans-3d" d="M 678 2906 
L 4684 2906 
L 4684 2381 
L 678 2381 
L 678 2906 
z
M 678 1631 
L 4684 1631 
L 4684 1100 
L 678 1100 
L 678 1631 
z
" transform="scale(0.015625)"/>
      <path id="DejaVuSans-2e" d="M 684 794 
L 1344 794 
L 1344 0 
L 684 0 
L 684 794 
z
" transform="scale(0.015625)"/>
      <path id="DejaVuSans-39" d="M 703 97 
L 703 672 
Q 941 559 1184 500 
Q 1428 441 1663 441 
Q 2288 441 2617 861 
Q 2947 1281 2994 2138 
Q 2813 1869 2534 1725 
Q 2256 1581 1919 1581 
Q 1219 1581 811 2004 
Q 403 2428 403 3163 
Q 403 3881 828 4315 
Q 1253 4750 1959 4750 
Q 2769 4750 3195 4129 
Q 3622 3509 3622 2328 
Q 3622 1225 3098 567 
Q 2575 -91 1691 -91 
Q 1453 -91 1209 -44 
Q 966 3 703 97 
z
M 1959 2075 
Q 2384 2075 2632 2365 
Q 2881 2656 2881 3163 
Q 2881 3666 2632 3958 
Q 2384 4250 1959 4250 
Q 1534 4250 1286 3958 
Q 1038 3666 1038 3163 
Q 1038 2656 1286 2365 
Q 1534 2075 1959 2075 
z
" transform="scale(0.015625)"/>
      <path id="DejaVuSans-37" d="M 525 4666 
L 3525 4666 
L 3525 4397 
L 1831 0 
L 1172 0 
L 2766 4134 
L 525 4134 
L 525 4666 
z
" transform="scale(0.015625)"/>
     </defs>
     <use xlink:href="#DejaVuSans-20"/>
     <use xlink:href="#DejaVuSans-61" x="31.787109"/>
     <use xlink:href="#DejaVuSans-76" x="93.066406"/>
     <use xlink:href="#DejaVuSans-67" x="152.246094"/>
     <use xlink:href="#DejaVuSans-5f" x="215.722656"/>
     <use xlink:href="#DejaVuSans-64" x="265.722656"/>
     <use xlink:href="#DejaVuSans-20" x="329.199219"/>
     <use xlink:href="#DejaVuSans-3d" x="360.986328"/>
     <use xlink:href="#DejaVuSans-20" x="444.775391"/>
     <use xlink:href="#DejaVuSans-36" x="476.5625"/>
     <use xlink:href="#DejaVuSans-30" x="540.185547"/>
     <use xlink:href="#DejaVuSans-38" x="603.808594"/>
     <use xlink:href="#DejaVuSans-2e" x="667.431641"/>
     <use xlink:href="#DejaVuSans-31" x="699.21875"/>
     <use xlink:href="#DejaVuSans-30" x="762.841797"/>
     <use xlink:href="#DejaVuSans-39" x="826.464844"/>
     <use xlink:href="#DejaVuSans-30" x="890.087891"/>
     <use xlink:href="#DejaVuSans-36" x="953.710938"/>
     <use xlink:href="#DejaVuSans-31" x="1017.333984"/>
     <use xlink:href="#DejaVuSans-30" x="1080.957031"/>
     <use xlink:href="#DejaVuSans-38" x="1144.580078"/>
     <use xlink:href="#DejaVuSans-32" x="1208.203125"/>
     <use xlink:href="#DejaVuSans-31" x="1271.826172"/>
     <use xlink:href="#DejaVuSans-37" x="1335.449219"/>
     <use xlink:href="#DejaVuSans-31" x="1399.072266"/>
     <use xlink:href="#DejaVuSans-33" x="1462.695312"/>
     <use xlink:href="#DejaVuSans-20" x="1526.318359"/>
    </g>
    <!--  avg_a = 599.452685136354diff = 8.656375945817217 -->
    <g transform="translate(66.999375 35.472)scale(0.12 -0.12)">
     <use xlink:href="#DejaVuSans-20"/>
     <use xlink:href="#DejaVuSans-61" x="31.787109"/>
     <use xlink:href="#DejaVuSans-76" x="93.066406"/>
     <use xlink:href="#DejaVuSans-67" x="152.246094"/>
     <use xlink:href="#DejaVuSans-5f" x="215.722656"/>
     <use xlink:href="#DejaVuSans-61" x="265.722656"/>
     <use xlink:href="#DejaVuSans-20" x="327.001953"/>
     <use xlink:href="#DejaVuSans-3d" x="358.789062"/>
     <use xlink:href="#DejaVuSans-20" x="442.578125"/>
     <use xlink:href="#DejaVuSans-35" x="474.365234"/>
     <use xlink:href="#DejaVuSans-39" x="537.988281"/>
     <use xlink:href="#DejaVuSans-39" x="601.611328"/>
     <use xlink:href="#DejaVuSans-2e" x="665.234375"/>
     <use xlink:href="#DejaVuSans-34" x="697.021484"/>
     <use xlink:href="#DejaVuSans-35" x="760.644531"/>
     <use xlink:href="#DejaVuSans-32" x="824.267578"/>
     <use xlink:href="#DejaVuSans-36" x="887.890625"/>
     <use xlink:href="#DejaVuSans-38" x="951.513672"/>
     <use xlink:href="#DejaVuSans-35" x="1015.136719"/>
     <use xlink:href="#DejaVuSans-31" x="1078.759766"/>
     <use xlink:href="#DejaVuSans-33" x="1142.382812"/>
     <use xlink:href="#DejaVuSans-36" x="1206.005859"/>
     <use xlink:href="#DejaVuSans-33" x="1269.628906"/>
     <use xlink:href="#DejaVuSans-35" x="1333.251953"/>
     <use xlink:href="#DejaVuSans-34" x="1396.875"/>
     <use xlink:href="#DejaVuSans-64" x="1460.498047"/>
     <use xlink:href="#DejaVuSans-69" x="1523.974609"/>
     <use xlink:href="#DejaVuSans-66" x="1551.757812"/>
     <use xlink:href="#DejaVuSans-66" x="1586.962891"/>
     <use xlink:href="#DejaVuSans-20" x="1622.167969"/>
     <use xlink:href="#DejaVuSans-3d" x="1653.955078"/>
     <use xlink:href="#DejaVuSans-20" x="1737.744141"/>
     <use xlink:href="#DejaVuSans-38" x="1769.53125"/>
     <use xlink:href="#DejaVuSans-2e" x="1833.154297"/>
     <use xlink:href="#DejaVuSans-36" x="1864.941406"/>
     <use xlink:href="#DejaVuSans-35" x="1928.564453"/>
     <use xlink:href="#DejaVuSans-36" x="1992.1875"/>
     <use xlink:href="#DejaVuSans-33" x="2055.810547"/>
     <use xlink:href="#DejaVuSans-37" x="2119.433594"/>
     <use xlink:href="#DejaVuSans-35" x="2183.056641"/>
     <use xlink:href="#DejaVuSans-39" x="2246.679688"/>
     <use xlink:href="#DejaVuSans-34" x="2310.302734"/>
     <use xlink:href="#DejaVuSans-35" x="2373.925781"/>
     <use xlink:href="#DejaVuSans-38" x="2437.548828"/>
     <use xlink:href="#DejaVuSans-31" x="2501.171875"/>
     <use xlink:href="#DejaVuSans-37" x="2564.794922"/>
     <use xlink:href="#DejaVuSans-32" x="2628.417969"/>
     <use xlink:href="#DejaVuSans-31" x="2692.041016"/>
     <use xlink:href="#DejaVuSans-37" x="2755.664062"/>
    </g>
   </g>
   <g id="legend_1">
    <g id="patch_7">
     <path d="M 263.88875 302.584 
L 407.72 302.584 
Q 409.72 302.584 409.72 300.584 
L 409.72 272.22775 
Q 409.72 270.22775 407.72 270.22775 
L 263.88875 270.22775 
Q 261.88875 270.22775 261.88875 272.22775 
L 261.88875 300.584 
Q 261.88875 302.584 263.88875 302.584 
z
" style="fill: #ffffff; opacity: 0.8; stroke: #cccccc; stroke-linejoin: miter"/>
    </g>
    <g id="line2d_15">
     <path d="M 265.88875 278.326187 
L 275.88875 278.326187 
L 285.88875 278.326187 
" style="fill: none; stroke-dasharray: 2,3.3; stroke-dashoffset: 0; stroke: #0000ff; stroke-width: 2"/>
    </g>
    <g id="text_16">
     <!-- Average (Default) -->
     <g transform="translate(293.88875 281.826187)scale(0.1 -0.1)">
      <defs>
       <path id="DejaVuSans-41" d="M 2188 4044 
L 1331 1722 
L 3047 1722 
L 2188 4044 
z
M 1831 4666 
L 2547 4666 
L 4325 0 
L 3669 0 
L 3244 1197 
L 1141 1197 
L 716 0 
L 50 0 
L 1831 4666 
z
" transform="scale(0.015625)"/>
       <path id="DejaVuSans-28" d="M 1984 4856 
Q 1566 4138 1362 3434 
Q 1159 2731 1159 2009 
Q 1159 1288 1364 580 
Q 1569 -128 1984 -844 
L 1484 -844 
Q 1016 -109 783 600 
Q 550 1309 550 2009 
Q 550 2706 781 3412 
Q 1013 4119 1484 4856 
L 1984 4856 
z
" transform="scale(0.015625)"/>
       <path id="DejaVuSans-44" d="M 1259 4147 
L 1259 519 
L 2022 519 
Q 2988 519 3436 956 
Q 3884 1394 3884 2338 
Q 3884 3275 3436 3711 
Q 2988 4147 2022 4147 
L 1259 4147 
z
M 628 4666 
L 1925 4666 
Q 3281 4666 3915 4102 
Q 4550 3538 4550 2338 
Q 4550 1131 3912 565 
Q 3275 0 1925 0 
L 628 0 
L 628 4666 
z
" transform="scale(0.015625)"/>
       <path id="DejaVuSans-29" d="M 513 4856 
L 1013 4856 
Q 1481 4119 1714 3412 
Q 1947 2706 1947 2009 
Q 1947 1309 1714 600 
Q 1481 -109 1013 -844 
L 513 -844 
Q 928 -128 1133 580 
Q 1338 1288 1338 2009 
Q 1338 2731 1133 3434 
Q 928 4138 513 4856 
z
" transform="scale(0.015625)"/>
      </defs>
      <use xlink:href="#DejaVuSans-41"/>
      <use xlink:href="#DejaVuSans-76" x="62.533203"/>
      <use xlink:href="#DejaVuSans-65" x="121.712891"/>
      <use xlink:href="#DejaVuSans-72" x="183.236328"/>
      <use xlink:href="#DejaVuSans-61" x="224.349609"/>
      <use xlink:href="#DejaVuSans-67" x="285.628906"/>
      <use xlink:href="#DejaVuSans-65" x="349.105469"/>
      <use xlink:href="#DejaVuSans-20" x="410.628906"/>
      <use xlink:href="#DejaVuSans-28" x="442.416016"/>
      <use xlink:href="#DejaVuSans-44" x="481.429688"/>
      <use xlink:href="#DejaVuSans-65" x="558.431641"/>
      <use xlink:href="#DejaVuSans-66" x="619.955078"/>
      <use xlink:href="#DejaVuSans-61" x="655.160156"/>
      <use xlink:href="#DejaVuSans-75" x="716.439453"/>
      <use xlink:href="#DejaVuSans-6c" x="779.818359"/>
      <use xlink:href="#DejaVuSans-74" x="807.601562"/>
      <use xlink:href="#DejaVuSans-29" x="846.810547"/>
     </g>
    </g>
    <g id="line2d_16">
     <path d="M 265.88875 293.004312 
L 275.88875 293.004312 
L 285.88875 293.004312 
" style="fill: none; stroke-dasharray: 2,3.3; stroke-dashoffset: 0; stroke: #ffa500; stroke-width: 2"/>
    </g>
    <g id="text_17">
     <!-- Average (Anticipation) -->
     <g transform="translate(293.88875 296.504312)scale(0.1 -0.1)">
      <defs>
       <path id="DejaVuSans-63" d="M 3122 3366 
L 3122 2828 
Q 2878 2963 2633 3030 
Q 2388 3097 2138 3097 
Q 1578 3097 1268 2742 
Q 959 2388 959 1747 
Q 959 1106 1268 751 
Q 1578 397 2138 397 
Q 2388 397 2633 464 
Q 2878 531 3122 666 
L 3122 134 
Q 2881 22 2623 -34 
Q 2366 -91 2075 -91 
Q 1284 -91 818 406 
Q 353 903 353 1747 
Q 353 2603 823 3093 
Q 1294 3584 2113 3584 
Q 2378 3584 2631 3529 
Q 2884 3475 3122 3366 
z
" transform="scale(0.015625)"/>
       <path id="DejaVuSans-70" d="M 1159 525 
L 1159 -1331 
L 581 -1331 
L 581 3500 
L 1159 3500 
L 1159 2969 
Q 1341 3281 1617 3432 
Q 1894 3584 2278 3584 
Q 2916 3584 3314 3078 
Q 3713 2572 3713 1747 
Q 3713 922 3314 415 
Q 2916 -91 2278 -91 
Q 1894 -91 1617 61 
Q 1341 213 1159 525 
z
M 3116 1747 
Q 3116 2381 2855 2742 
Q 2594 3103 2138 3103 
Q 1681 3103 1420 2742 
Q 1159 2381 1159 1747 
Q 1159 1113 1420 752 
Q 1681 391 2138 391 
Q 2594 391 2855 752 
Q 3116 1113 3116 1747 
z
" transform="scale(0.015625)"/>
      </defs>
      <use xlink:href="#DejaVuSans-41"/>
      <use xlink:href="#DejaVuSans-76" x="62.533203"/>
      <use xlink:href="#DejaVuSans-65" x="121.712891"/>
      <use xlink:href="#DejaVuSans-72" x="183.236328"/>
      <use xlink:href="#DejaVuSans-61" x="224.349609"/>
      <use xlink:href="#DejaVuSans-67" x="285.628906"/>
      <use xlink:href="#DejaVuSans-65" x="349.105469"/>
      <use xlink:href="#DejaVuSans-20" x="410.628906"/>
      <use xlink:href="#DejaVuSans-28" x="442.416016"/>
      <use xlink:href="#DejaVuSans-41" x="481.429688"/>
      <use xlink:href="#DejaVuSans-6e" x="549.837891"/>
      <use xlink:href="#DejaVuSans-74" x="613.216797"/>
      <use xlink:href="#DejaVuSans-69" x="652.425781"/>
      <use xlink:href="#DejaVuSans-63" x="680.208984"/>
      <use xlink:href="#DejaVuSans-69" x="735.189453"/>
      <use xlink:href="#DejaVuSans-70" x="762.972656"/>
      <use xlink:href="#DejaVuSans-61" x="826.449219"/>
      <use xlink:href="#DejaVuSans-74" x="887.728516"/>
      <use xlink:href="#DejaVuSans-69" x="926.9375"/>
      <use xlink:href="#DejaVuSans-6f" x="954.720703"/>
      <use xlink:href="#DejaVuSans-6e" x="1015.902344"/>
      <use xlink:href="#DejaVuSans-29" x="1079.28125"/>
     </g>
    </g>
   </g>
  </g>
 </g>
 <defs>
  <clipPath id="pc9eb20838f">
   <rect x="57.6" y="41.472" width="357.12" height="266.112"/>
  </clipPath>
 </defs>
</svg>
