<?xml version="1.0" encoding="utf-8" standalone="no"?>
<!DOCTYPE svg PUBLIC "-//W3C//DTD SVG 1.1//EN"
  "http://www.w3.org/Graphics/SVG/1.1/DTD/svg11.dtd">
<svg xmlns:xlink="http://www.w3.org/1999/xlink" width="460.8pt" height="345.6pt" viewBox="0 0 460.8 345.6" xmlns="http://www.w3.org/2000/svg" version="1.1">
 <metadata>
  <rdf:RDF xmlns:dc="http://purl.org/dc/elements/1.1/" xmlns:cc="http://creativecommons.org/ns#" xmlns:rdf="http://www.w3.org/1999/02/22-rdf-syntax-ns#">
   <cc:Work>
    <dc:type rdf:resource="http://purl.org/dc/dcmitype/StillImage"/>
    <dc:date>2022-10-04T13:05:45.542226</dc:date>
    <dc:format>image/svg+xml</dc:format>
    <dc:creator>
     <cc:Agent>
      <dc:title>Matplotlib v3.5.3, https://matplotlib.org/</dc:title>
     </cc:Agent>
    </dc:creator>
   </cc:Work>
  </rdf:RDF>
 </metadata>
 <defs>
  <style type="text/css">*{stroke-linejoin: round; stroke-linecap: butt}</style>
 </defs>
 <g id="figure_1">
  <g id="patch_1">
   <path d="M 0 345.6 
L 460.8 345.6 
L 460.8 0 
L 0 0 
z
" style="fill: #ffffff"/>
  </g>
  <g id="axes_1">
   <g id="patch_2">
    <path d="M 57.6 307.584 
L 414.72 307.584 
L 414.72 41.472 
L 57.6 41.472 
z
" style="fill: #ffffff"/>
   </g>
   <g id="matplotlib.axis_1">
    <g id="xtick_1">
     <g id="line2d_1">
      <defs>
       <path id="m555248b5a9" d="M 0 0 
L 0 3.5 
" style="stroke: #000000; stroke-width: 0.8"/>
      </defs>
      <g>
       <use xlink:href="#m555248b5a9" x="73.832727" y="307.584" style="stroke: #000000; stroke-width: 0.8"/>
      </g>
     </g>
     <g id="text_1">
      <!-- 0 -->
      <g transform="translate(70.651477 322.182437)scale(0.1 -0.1)">
       <defs>
        <path id="DejaVuSans-30" d="M 2034 4250 
Q 1547 4250 1301 3770 
Q 1056 3291 1056 2328 
Q 1056 1369 1301 889 
Q 1547 409 2034 409 
Q 2525 409 2770 889 
Q 3016 1369 3016 2328 
Q 3016 3291 2770 3770 
Q 2525 4250 2034 4250 
z
M 2034 4750 
Q 2819 4750 3233 4129 
Q 3647 3509 3647 2328 
Q 3647 1150 3233 529 
Q 2819 -91 2034 -91 
Q 1250 -91 836 529 
Q 422 1150 422 2328 
Q 422 3509 836 4129 
Q 1250 4750 2034 4750 
z
" transform="scale(0.015625)"/>
       </defs>
       <use xlink:href="#DejaVuSans-30"/>
      </g>
     </g>
    </g>
    <g id="xtick_2">
     <g id="line2d_2">
      <g>
       <use xlink:href="#m555248b5a9" x="138.828632" y="307.584" style="stroke: #000000; stroke-width: 0.8"/>
      </g>
     </g>
     <g id="text_2">
      <!-- 200 -->
      <g transform="translate(129.284882 322.182437)scale(0.1 -0.1)">
       <defs>
        <path id="DejaVuSans-32" d="M 1228 531 
L 3431 531 
L 3431 0 
L 469 0 
L 469 531 
Q 828 903 1448 1529 
Q 2069 2156 2228 2338 
Q 2531 2678 2651 2914 
Q 2772 3150 2772 3378 
Q 2772 3750 2511 3984 
Q 2250 4219 1831 4219 
Q 1534 4219 1204 4116 
Q 875 4013 500 3803 
L 500 4441 
Q 881 4594 1212 4672 
Q 1544 4750 1819 4750 
Q 2544 4750 2975 4387 
Q 3406 4025 3406 3419 
Q 3406 3131 3298 2873 
Q 3191 2616 2906 2266 
Q 2828 2175 2409 1742 
Q 1991 1309 1228 531 
z
" transform="scale(0.015625)"/>
       </defs>
       <use xlink:href="#DejaVuSans-32"/>
       <use xlink:href="#DejaVuSans-30" x="63.623047"/>
       <use xlink:href="#DejaVuSans-30" x="127.246094"/>
      </g>
     </g>
    </g>
    <g id="xtick_3">
     <g id="line2d_3">
      <g>
       <use xlink:href="#m555248b5a9" x="203.824537" y="307.584" style="stroke: #000000; stroke-width: 0.8"/>
      </g>
     </g>
     <g id="text_3">
      <!-- 400 -->
      <g transform="translate(194.280787 322.182437)scale(0.1 -0.1)">
       <defs>
        <path id="DejaVuSans-34" d="M 2419 4116 
L 825 1625 
L 2419 1625 
L 2419 4116 
z
M 2253 4666 
L 3047 4666 
L 3047 1625 
L 3713 1625 
L 3713 1100 
L 3047 1100 
L 3047 0 
L 2419 0 
L 2419 1100 
L 313 1100 
L 313 1709 
L 2253 4666 
z
" transform="scale(0.015625)"/>
       </defs>
       <use xlink:href="#DejaVuSans-34"/>
       <use xlink:href="#DejaVuSans-30" x="63.623047"/>
       <use xlink:href="#DejaVuSans-30" x="127.246094"/>
      </g>
     </g>
    </g>
    <g id="xtick_4">
     <g id="line2d_4">
      <g>
       <use xlink:href="#m555248b5a9" x="268.820442" y="307.584" style="stroke: #000000; stroke-width: 0.8"/>
      </g>
     </g>
     <g id="text_4">
      <!-- 600 -->
      <g transform="translate(259.276692 322.182437)scale(0.1 -0.1)">
       <defs>
        <path id="DejaVuSans-36" d="M 2113 2584 
Q 1688 2584 1439 2293 
Q 1191 2003 1191 1497 
Q 1191 994 1439 701 
Q 1688 409 2113 409 
Q 2538 409 2786 701 
Q 3034 994 3034 1497 
Q 3034 2003 2786 2293 
Q 2538 2584 2113 2584 
z
M 3366 4563 
L 3366 3988 
Q 3128 4100 2886 4159 
Q 2644 4219 2406 4219 
Q 1781 4219 1451 3797 
Q 1122 3375 1075 2522 
Q 1259 2794 1537 2939 
Q 1816 3084 2150 3084 
Q 2853 3084 3261 2657 
Q 3669 2231 3669 1497 
Q 3669 778 3244 343 
Q 2819 -91 2113 -91 
Q 1303 -91 875 529 
Q 447 1150 447 2328 
Q 447 3434 972 4092 
Q 1497 4750 2381 4750 
Q 2619 4750 2861 4703 
Q 3103 4656 3366 4563 
z
" transform="scale(0.015625)"/>
       </defs>
       <use xlink:href="#DejaVuSans-36"/>
       <use xlink:href="#DejaVuSans-30" x="63.623047"/>
       <use xlink:href="#DejaVuSans-30" x="127.246094"/>
      </g>
     </g>
    </g>
    <g id="xtick_5">
     <g id="line2d_5">
      <g>
       <use xlink:href="#m555248b5a9" x="333.816347" y="307.584" style="stroke: #000000; stroke-width: 0.8"/>
      </g>
     </g>
     <g id="text_5">
      <!-- 800 -->
      <g transform="translate(324.272597 322.182437)scale(0.1 -0.1)">
       <defs>
        <path id="DejaVuSans-38" d="M 2034 2216 
Q 1584 2216 1326 1975 
Q 1069 1734 1069 1313 
Q 1069 891 1326 650 
Q 1584 409 2034 409 
Q 2484 409 2743 651 
Q 3003 894 3003 1313 
Q 3003 1734 2745 1975 
Q 2488 2216 2034 2216 
z
M 1403 2484 
Q 997 2584 770 2862 
Q 544 3141 544 3541 
Q 544 4100 942 4425 
Q 1341 4750 2034 4750 
Q 2731 4750 3128 4425 
Q 3525 4100 3525 3541 
Q 3525 3141 3298 2862 
Q 3072 2584 2669 2484 
Q 3125 2378 3379 2068 
Q 3634 1759 3634 1313 
Q 3634 634 3220 271 
Q 2806 -91 2034 -91 
Q 1263 -91 848 271 
Q 434 634 434 1313 
Q 434 1759 690 2068 
Q 947 2378 1403 2484 
z
M 1172 3481 
Q 1172 3119 1398 2916 
Q 1625 2713 2034 2713 
Q 2441 2713 2670 2916 
Q 2900 3119 2900 3481 
Q 2900 3844 2670 4047 
Q 2441 4250 2034 4250 
Q 1625 4250 1398 4047 
Q 1172 3844 1172 3481 
z
" transform="scale(0.015625)"/>
       </defs>
       <use xlink:href="#DejaVuSans-38"/>
       <use xlink:href="#DejaVuSans-30" x="63.623047"/>
       <use xlink:href="#DejaVuSans-30" x="127.246094"/>
      </g>
     </g>
    </g>
    <g id="xtick_6">
     <g id="line2d_6">
      <g>
       <use xlink:href="#m555248b5a9" x="398.812252" y="307.584" style="stroke: #000000; stroke-width: 0.8"/>
      </g>
     </g>
     <g id="text_6">
      <!-- 1000 -->
      <g transform="translate(386.087252 322.182437)scale(0.1 -0.1)">
       <defs>
        <path id="DejaVuSans-31" d="M 794 531 
L 1825 531 
L 1825 4091 
L 703 3866 
L 703 4441 
L 1819 4666 
L 2450 4666 
L 2450 531 
L 3481 531 
L 3481 0 
L 794 0 
L 794 531 
z
" transform="scale(0.015625)"/>
       </defs>
       <use xlink:href="#DejaVuSans-31"/>
       <use xlink:href="#DejaVuSans-30" x="63.623047"/>
       <use xlink:href="#DejaVuSans-30" x="127.246094"/>
       <use xlink:href="#DejaVuSans-30" x="190.869141"/>
      </g>
     </g>
    </g>
    <g id="text_7">
     <!-- Number of Orders -->
     <g transform="translate(191.261562 335.860562)scale(0.1 -0.1)">
      <defs>
       <path id="DejaVuSans-4e" d="M 628 4666 
L 1478 4666 
L 3547 763 
L 3547 4666 
L 4159 4666 
L 4159 0 
L 3309 0 
L 1241 3903 
L 1241 0 
L 628 0 
L 628 4666 
z
" transform="scale(0.015625)"/>
       <path id="DejaVuSans-75" d="M 544 1381 
L 544 3500 
L 1119 3500 
L 1119 1403 
Q 1119 906 1312 657 
Q 1506 409 1894 409 
Q 2359 409 2629 706 
Q 2900 1003 2900 1516 
L 2900 3500 
L 3475 3500 
L 3475 0 
L 2900 0 
L 2900 538 
Q 2691 219 2414 64 
Q 2138 -91 1772 -91 
Q 1169 -91 856 284 
Q 544 659 544 1381 
z
M 1991 3584 
L 1991 3584 
z
" transform="scale(0.015625)"/>
       <path id="DejaVuSans-6d" d="M 3328 2828 
Q 3544 3216 3844 3400 
Q 4144 3584 4550 3584 
Q 5097 3584 5394 3201 
Q 5691 2819 5691 2113 
L 5691 0 
L 5113 0 
L 5113 2094 
Q 5113 2597 4934 2840 
Q 4756 3084 4391 3084 
Q 3944 3084 3684 2787 
Q 3425 2491 3425 1978 
L 3425 0 
L 2847 0 
L 2847 2094 
Q 2847 2600 2669 2842 
Q 2491 3084 2119 3084 
Q 1678 3084 1418 2786 
Q 1159 2488 1159 1978 
L 1159 0 
L 581 0 
L 581 3500 
L 1159 3500 
L 1159 2956 
Q 1356 3278 1631 3431 
Q 1906 3584 2284 3584 
Q 2666 3584 2933 3390 
Q 3200 3197 3328 2828 
z
" transform="scale(0.015625)"/>
       <path id="DejaVuSans-62" d="M 3116 1747 
Q 3116 2381 2855 2742 
Q 2594 3103 2138 3103 
Q 1681 3103 1420 2742 
Q 1159 2381 1159 1747 
Q 1159 1113 1420 752 
Q 1681 391 2138 391 
Q 2594 391 2855 752 
Q 3116 1113 3116 1747 
z
M 1159 2969 
Q 1341 3281 1617 3432 
Q 1894 3584 2278 3584 
Q 2916 3584 3314 3078 
Q 3713 2572 3713 1747 
Q 3713 922 3314 415 
Q 2916 -91 2278 -91 
Q 1894 -91 1617 61 
Q 1341 213 1159 525 
L 1159 0 
L 581 0 
L 581 4863 
L 1159 4863 
L 1159 2969 
z
" transform="scale(0.015625)"/>
       <path id="DejaVuSans-65" d="M 3597 1894 
L 3597 1613 
L 953 1613 
Q 991 1019 1311 708 
Q 1631 397 2203 397 
Q 2534 397 2845 478 
Q 3156 559 3463 722 
L 3463 178 
Q 3153 47 2828 -22 
Q 2503 -91 2169 -91 
Q 1331 -91 842 396 
Q 353 884 353 1716 
Q 353 2575 817 3079 
Q 1281 3584 2069 3584 
Q 2775 3584 3186 3129 
Q 3597 2675 3597 1894 
z
M 3022 2063 
Q 3016 2534 2758 2815 
Q 2500 3097 2075 3097 
Q 1594 3097 1305 2825 
Q 1016 2553 972 2059 
L 3022 2063 
z
" transform="scale(0.015625)"/>
       <path id="DejaVuSans-72" d="M 2631 2963 
Q 2534 3019 2420 3045 
Q 2306 3072 2169 3072 
Q 1681 3072 1420 2755 
Q 1159 2438 1159 1844 
L 1159 0 
L 581 0 
L 581 3500 
L 1159 3500 
L 1159 2956 
Q 1341 3275 1631 3429 
Q 1922 3584 2338 3584 
Q 2397 3584 2469 3576 
Q 2541 3569 2628 3553 
L 2631 2963 
z
" transform="scale(0.015625)"/>
       <path id="DejaVuSans-20" transform="scale(0.015625)"/>
       <path id="DejaVuSans-6f" d="M 1959 3097 
Q 1497 3097 1228 2736 
Q 959 2375 959 1747 
Q 959 1119 1226 758 
Q 1494 397 1959 397 
Q 2419 397 2687 759 
Q 2956 1122 2956 1747 
Q 2956 2369 2687 2733 
Q 2419 3097 1959 3097 
z
M 1959 3584 
Q 2709 3584 3137 3096 
Q 3566 2609 3566 1747 
Q 3566 888 3137 398 
Q 2709 -91 1959 -91 
Q 1206 -91 779 398 
Q 353 888 353 1747 
Q 353 2609 779 3096 
Q 1206 3584 1959 3584 
z
" transform="scale(0.015625)"/>
       <path id="DejaVuSans-66" d="M 2375 4863 
L 2375 4384 
L 1825 4384 
Q 1516 4384 1395 4259 
Q 1275 4134 1275 3809 
L 1275 3500 
L 2222 3500 
L 2222 3053 
L 1275 3053 
L 1275 0 
L 697 0 
L 697 3053 
L 147 3053 
L 147 3500 
L 697 3500 
L 697 3744 
Q 697 4328 969 4595 
Q 1241 4863 1831 4863 
L 2375 4863 
z
" transform="scale(0.015625)"/>
       <path id="DejaVuSans-4f" d="M 2522 4238 
Q 1834 4238 1429 3725 
Q 1025 3213 1025 2328 
Q 1025 1447 1429 934 
Q 1834 422 2522 422 
Q 3209 422 3611 934 
Q 4013 1447 4013 2328 
Q 4013 3213 3611 3725 
Q 3209 4238 2522 4238 
z
M 2522 4750 
Q 3503 4750 4090 4092 
Q 4678 3434 4678 2328 
Q 4678 1225 4090 567 
Q 3503 -91 2522 -91 
Q 1538 -91 948 565 
Q 359 1222 359 2328 
Q 359 3434 948 4092 
Q 1538 4750 2522 4750 
z
" transform="scale(0.015625)"/>
       <path id="DejaVuSans-64" d="M 2906 2969 
L 2906 4863 
L 3481 4863 
L 3481 0 
L 2906 0 
L 2906 525 
Q 2725 213 2448 61 
Q 2172 -91 1784 -91 
Q 1150 -91 751 415 
Q 353 922 353 1747 
Q 353 2572 751 3078 
Q 1150 3584 1784 3584 
Q 2172 3584 2448 3432 
Q 2725 3281 2906 2969 
z
M 947 1747 
Q 947 1113 1208 752 
Q 1469 391 1925 391 
Q 2381 391 2643 752 
Q 2906 1113 2906 1747 
Q 2906 2381 2643 2742 
Q 2381 3103 1925 3103 
Q 1469 3103 1208 2742 
Q 947 2381 947 1747 
z
" transform="scale(0.015625)"/>
       <path id="DejaVuSans-73" d="M 2834 3397 
L 2834 2853 
Q 2591 2978 2328 3040 
Q 2066 3103 1784 3103 
Q 1356 3103 1142 2972 
Q 928 2841 928 2578 
Q 928 2378 1081 2264 
Q 1234 2150 1697 2047 
L 1894 2003 
Q 2506 1872 2764 1633 
Q 3022 1394 3022 966 
Q 3022 478 2636 193 
Q 2250 -91 1575 -91 
Q 1294 -91 989 -36 
Q 684 19 347 128 
L 347 722 
Q 666 556 975 473 
Q 1284 391 1588 391 
Q 1994 391 2212 530 
Q 2431 669 2431 922 
Q 2431 1156 2273 1281 
Q 2116 1406 1581 1522 
L 1381 1569 
Q 847 1681 609 1914 
Q 372 2147 372 2553 
Q 372 3047 722 3315 
Q 1072 3584 1716 3584 
Q 2034 3584 2315 3537 
Q 2597 3491 2834 3397 
z
" transform="scale(0.015625)"/>
      </defs>
      <use xlink:href="#DejaVuSans-4e"/>
      <use xlink:href="#DejaVuSans-75" x="74.804688"/>
      <use xlink:href="#DejaVuSans-6d" x="138.183594"/>
      <use xlink:href="#DejaVuSans-62" x="235.595703"/>
      <use xlink:href="#DejaVuSans-65" x="299.072266"/>
      <use xlink:href="#DejaVuSans-72" x="360.595703"/>
      <use xlink:href="#DejaVuSans-20" x="401.708984"/>
      <use xlink:href="#DejaVuSans-6f" x="433.496094"/>
      <use xlink:href="#DejaVuSans-66" x="494.677734"/>
      <use xlink:href="#DejaVuSans-20" x="529.882812"/>
      <use xlink:href="#DejaVuSans-4f" x="561.669922"/>
      <use xlink:href="#DejaVuSans-72" x="640.380859"/>
      <use xlink:href="#DejaVuSans-64" x="679.744141"/>
      <use xlink:href="#DejaVuSans-65" x="743.220703"/>
      <use xlink:href="#DejaVuSans-72" x="804.744141"/>
      <use xlink:href="#DejaVuSans-73" x="845.857422"/>
     </g>
    </g>
   </g>
   <g id="matplotlib.axis_2">
    <g id="ytick_1">
     <g id="line2d_7">
      <defs>
       <path id="mfeccabdba2" d="M 0 0 
L -3.5 0 
" style="stroke: #000000; stroke-width: 0.8"/>
      </defs>
      <g>
       <use xlink:href="#mfeccabdba2" x="57.6" y="276.767779" style="stroke: #000000; stroke-width: 0.8"/>
      </g>
     </g>
     <g id="text_8">
      <!-- 3600 -->
      <g transform="translate(25.15 280.566997)scale(0.1 -0.1)">
       <defs>
        <path id="DejaVuSans-33" d="M 2597 2516 
Q 3050 2419 3304 2112 
Q 3559 1806 3559 1356 
Q 3559 666 3084 287 
Q 2609 -91 1734 -91 
Q 1441 -91 1130 -33 
Q 819 25 488 141 
L 488 750 
Q 750 597 1062 519 
Q 1375 441 1716 441 
Q 2309 441 2620 675 
Q 2931 909 2931 1356 
Q 2931 1769 2642 2001 
Q 2353 2234 1838 2234 
L 1294 2234 
L 1294 2753 
L 1863 2753 
Q 2328 2753 2575 2939 
Q 2822 3125 2822 3475 
Q 2822 3834 2567 4026 
Q 2313 4219 1838 4219 
Q 1578 4219 1281 4162 
Q 984 4106 628 3988 
L 628 4550 
Q 988 4650 1302 4700 
Q 1616 4750 1894 4750 
Q 2613 4750 3031 4423 
Q 3450 4097 3450 3541 
Q 3450 3153 3228 2886 
Q 3006 2619 2597 2516 
z
" transform="scale(0.015625)"/>
       </defs>
       <use xlink:href="#DejaVuSans-33"/>
       <use xlink:href="#DejaVuSans-36" x="63.623047"/>
       <use xlink:href="#DejaVuSans-30" x="127.246094"/>
       <use xlink:href="#DejaVuSans-30" x="190.869141"/>
      </g>
     </g>
    </g>
    <g id="ytick_2">
     <g id="line2d_8">
      <g>
       <use xlink:href="#mfeccabdba2" x="57.6" y="235.239819" style="stroke: #000000; stroke-width: 0.8"/>
      </g>
     </g>
     <g id="text_9">
      <!-- 3800 -->
      <g transform="translate(25.15 239.039038)scale(0.1 -0.1)">
       <use xlink:href="#DejaVuSans-33"/>
       <use xlink:href="#DejaVuSans-38" x="63.623047"/>
       <use xlink:href="#DejaVuSans-30" x="127.246094"/>
       <use xlink:href="#DejaVuSans-30" x="190.869141"/>
      </g>
     </g>
    </g>
    <g id="ytick_3">
     <g id="line2d_9">
      <g>
       <use xlink:href="#mfeccabdba2" x="57.6" y="193.711859" style="stroke: #000000; stroke-width: 0.8"/>
      </g>
     </g>
     <g id="text_10">
      <!-- 4000 -->
      <g transform="translate(25.15 197.511078)scale(0.1 -0.1)">
       <use xlink:href="#DejaVuSans-34"/>
       <use xlink:href="#DejaVuSans-30" x="63.623047"/>
       <use xlink:href="#DejaVuSans-30" x="127.246094"/>
       <use xlink:href="#DejaVuSans-30" x="190.869141"/>
      </g>
     </g>
    </g>
    <g id="ytick_4">
     <g id="line2d_10">
      <g>
       <use xlink:href="#mfeccabdba2" x="57.6" y="152.183899" style="stroke: #000000; stroke-width: 0.8"/>
      </g>
     </g>
     <g id="text_11">
      <!-- 4200 -->
      <g transform="translate(25.15 155.983118)scale(0.1 -0.1)">
       <use xlink:href="#DejaVuSans-34"/>
       <use xlink:href="#DejaVuSans-32" x="63.623047"/>
       <use xlink:href="#DejaVuSans-30" x="127.246094"/>
       <use xlink:href="#DejaVuSans-30" x="190.869141"/>
      </g>
     </g>
    </g>
    <g id="ytick_5">
     <g id="line2d_11">
      <g>
       <use xlink:href="#mfeccabdba2" x="57.6" y="110.655939" style="stroke: #000000; stroke-width: 0.8"/>
      </g>
     </g>
     <g id="text_12">
      <!-- 4400 -->
      <g transform="translate(25.15 114.455158)scale(0.1 -0.1)">
       <use xlink:href="#DejaVuSans-34"/>
       <use xlink:href="#DejaVuSans-34" x="63.623047"/>
       <use xlink:href="#DejaVuSans-30" x="127.246094"/>
       <use xlink:href="#DejaVuSans-30" x="190.869141"/>
      </g>
     </g>
    </g>
    <g id="ytick_6">
     <g id="line2d_12">
      <g>
       <use xlink:href="#mfeccabdba2" x="57.6" y="69.12798" style="stroke: #000000; stroke-width: 0.8"/>
      </g>
     </g>
     <g id="text_13">
      <!-- 4600 -->
      <g transform="translate(25.15 72.927198)scale(0.1 -0.1)">
       <use xlink:href="#DejaVuSans-34"/>
       <use xlink:href="#DejaVuSans-36" x="63.623047"/>
       <use xlink:href="#DejaVuSans-30" x="127.246094"/>
       <use xlink:href="#DejaVuSans-30" x="190.869141"/>
      </g>
     </g>
    </g>
    <g id="text_14">
     <!-- Waiting Time/s -->
     <g transform="translate(19.070312 211.410031)rotate(-90)scale(0.1 -0.1)">
      <defs>
       <path id="DejaVuSans-57" d="M 213 4666 
L 850 4666 
L 1831 722 
L 2809 4666 
L 3519 4666 
L 4500 722 
L 5478 4666 
L 6119 4666 
L 4947 0 
L 4153 0 
L 3169 4050 
L 2175 0 
L 1381 0 
L 213 4666 
z
" transform="scale(0.015625)"/>
       <path id="DejaVuSans-61" d="M 2194 1759 
Q 1497 1759 1228 1600 
Q 959 1441 959 1056 
Q 959 750 1161 570 
Q 1363 391 1709 391 
Q 2188 391 2477 730 
Q 2766 1069 2766 1631 
L 2766 1759 
L 2194 1759 
z
M 3341 1997 
L 3341 0 
L 2766 0 
L 2766 531 
Q 2569 213 2275 61 
Q 1981 -91 1556 -91 
Q 1019 -91 701 211 
Q 384 513 384 1019 
Q 384 1609 779 1909 
Q 1175 2209 1959 2209 
L 2766 2209 
L 2766 2266 
Q 2766 2663 2505 2880 
Q 2244 3097 1772 3097 
Q 1472 3097 1187 3025 
Q 903 2953 641 2809 
L 641 3341 
Q 956 3463 1253 3523 
Q 1550 3584 1831 3584 
Q 2591 3584 2966 3190 
Q 3341 2797 3341 1997 
z
" transform="scale(0.015625)"/>
       <path id="DejaVuSans-69" d="M 603 3500 
L 1178 3500 
L 1178 0 
L 603 0 
L 603 3500 
z
M 603 4863 
L 1178 4863 
L 1178 4134 
L 603 4134 
L 603 4863 
z
" transform="scale(0.015625)"/>
       <path id="DejaVuSans-74" d="M 1172 4494 
L 1172 3500 
L 2356 3500 
L 2356 3053 
L 1172 3053 
L 1172 1153 
Q 1172 725 1289 603 
Q 1406 481 1766 481 
L 2356 481 
L 2356 0 
L 1766 0 
Q 1100 0 847 248 
Q 594 497 594 1153 
L 594 3053 
L 172 3053 
L 172 3500 
L 594 3500 
L 594 4494 
L 1172 4494 
z
" transform="scale(0.015625)"/>
       <path id="DejaVuSans-6e" d="M 3513 2113 
L 3513 0 
L 2938 0 
L 2938 2094 
Q 2938 2591 2744 2837 
Q 2550 3084 2163 3084 
Q 1697 3084 1428 2787 
Q 1159 2491 1159 1978 
L 1159 0 
L 581 0 
L 581 3500 
L 1159 3500 
L 1159 2956 
Q 1366 3272 1645 3428 
Q 1925 3584 2291 3584 
Q 2894 3584 3203 3211 
Q 3513 2838 3513 2113 
z
" transform="scale(0.015625)"/>
       <path id="DejaVuSans-67" d="M 2906 1791 
Q 2906 2416 2648 2759 
Q 2391 3103 1925 3103 
Q 1463 3103 1205 2759 
Q 947 2416 947 1791 
Q 947 1169 1205 825 
Q 1463 481 1925 481 
Q 2391 481 2648 825 
Q 2906 1169 2906 1791 
z
M 3481 434 
Q 3481 -459 3084 -895 
Q 2688 -1331 1869 -1331 
Q 1566 -1331 1297 -1286 
Q 1028 -1241 775 -1147 
L 775 -588 
Q 1028 -725 1275 -790 
Q 1522 -856 1778 -856 
Q 2344 -856 2625 -561 
Q 2906 -266 2906 331 
L 2906 616 
Q 2728 306 2450 153 
Q 2172 0 1784 0 
Q 1141 0 747 490 
Q 353 981 353 1791 
Q 353 2603 747 3093 
Q 1141 3584 1784 3584 
Q 2172 3584 2450 3431 
Q 2728 3278 2906 2969 
L 2906 3500 
L 3481 3500 
L 3481 434 
z
" transform="scale(0.015625)"/>
       <path id="DejaVuSans-54" d="M -19 4666 
L 3928 4666 
L 3928 4134 
L 2272 4134 
L 2272 0 
L 1638 0 
L 1638 4134 
L -19 4134 
L -19 4666 
z
" transform="scale(0.015625)"/>
       <path id="DejaVuSans-2f" d="M 1625 4666 
L 2156 4666 
L 531 -594 
L 0 -594 
L 1625 4666 
z
" transform="scale(0.015625)"/>
      </defs>
      <use xlink:href="#DejaVuSans-57"/>
      <use xlink:href="#DejaVuSans-61" x="92.501953"/>
      <use xlink:href="#DejaVuSans-69" x="153.78125"/>
      <use xlink:href="#DejaVuSans-74" x="181.564453"/>
      <use xlink:href="#DejaVuSans-69" x="220.773438"/>
      <use xlink:href="#DejaVuSans-6e" x="248.556641"/>
      <use xlink:href="#DejaVuSans-67" x="311.935547"/>
      <use xlink:href="#DejaVuSans-20" x="375.412109"/>
      <use xlink:href="#DejaVuSans-54" x="407.199219"/>
      <use xlink:href="#DejaVuSans-69" x="465.158203"/>
      <use xlink:href="#DejaVuSans-6d" x="492.941406"/>
      <use xlink:href="#DejaVuSans-65" x="590.353516"/>
      <use xlink:href="#DejaVuSans-2f" x="651.876953"/>
      <use xlink:href="#DejaVuSans-73" x="685.568359"/>
     </g>
    </g>
   </g>
   <g id="line2d_13">
    <path d="M 73.832727 287.646163 
L 74.157707 295.488 
L 74.807666 265.16629 
L 75.132645 238.272421 
L 75.457625 232.176833 
L 75.782604 215.87987 
L 76.107584 227.482426 
L 77.082523 193.77789 
L 77.407502 174.101416 
L 79.682359 96.064827 
L 80.007338 106.900036 
L 80.332318 96.36328 
L 80.657297 101.215819 
L 81.307256 80.034274 
L 81.632236 88.18541 
L 81.957215 76.940569 
L 82.282195 80.235472 
L 82.607174 79.38615 
L 83.582113 60.853395 
L 83.907093 62.246068 
L 84.232072 66.332891 
L 85.53199 89.004196 
L 85.85697 83.658339 
L 86.181949 83.349226 
L 86.831908 75.106785 
L 87.156888 77.627867 
L 87.481867 84.533034 
L 87.806847 87.347567 
L 88.131826 85.926661 
L 88.456806 82.643496 
L 88.781785 81.497476 
L 89.106765 77.800098 
L 89.431744 76.803044 
L 89.756724 78.638611 
L 90.081704 78.462843 
L 90.406683 80.347139 
L 90.731663 78.068765 
L 91.056642 79.196842 
L 91.706601 79.908035 
L 92.031581 83.267674 
L 92.68154 87.517557 
L 93.331499 93.493523 
L 93.656478 94.004851 
L 93.981458 90.725724 
L 94.306437 85.134927 
L 94.631417 82.668423 
L 94.956396 79.014912 
L 95.281376 78.491433 
L 95.606355 79.489625 
L 95.931335 79.616216 
L 96.256314 79.523548 
L 96.906274 75.202684 
L 97.231253 74.937862 
L 97.881212 72.82681 
L 98.206192 73.66342 
L 98.531171 72.60286 
L 98.856151 70.011513 
L 99.50611 73.515262 
L 99.831089 70.349354 
L 100.156069 72.542752 
L 100.481048 70.710326 
L 100.806028 72.665836 
L 101.131007 73.816159 
L 101.455987 73.333913 
L 101.780966 74.859959 
L 102.105946 75.599447 
L 102.430925 78.486368 
L 102.755905 79.432451 
L 103.405864 74.62577 
L 103.730844 75.879129 
L 104.055823 78.055948 
L 104.380803 76.136396 
L 105.030762 78.613 
L 105.355741 77.079672 
L 105.680721 76.775039 
L 106.0057 77.389123 
L 106.655659 76.42096 
L 106.980639 73.953034 
L 107.305618 75.81009 
L 107.630598 73.738044 
L 107.955577 74.908216 
L 108.605536 71.780393 
L 108.930516 71.3097 
L 109.580475 71.022697 
L 109.905455 69.931688 
L 110.230434 71.904089 
L 110.880393 74.002774 
L 111.205373 72.938588 
L 111.530352 72.947058 
L 111.855332 74.980605 
L 112.180311 75.886937 
L 112.505291 75.593166 
L 113.15525 78.635477 
L 113.480229 77.86979 
L 113.805209 78.904968 
L 114.130188 76.945134 
L 114.455168 79.023039 
L 114.780147 79.599843 
L 115.105127 79.263458 
L 115.430106 79.75793 
L 116.080066 76.481655 
L 116.405045 74.924622 
L 116.730025 76.468437 
L 117.055004 74.178328 
L 117.379984 76.240338 
L 117.704963 75.361562 
L 118.354922 71.313708 
L 118.679902 70.76021 
L 119.004881 72.379414 
L 119.329861 72.861861 
L 119.65484 72.767466 
L 119.97982 71.712844 
L 120.304799 71.77507 
L 120.629779 71.377801 
L 120.954758 72.485571 
L 121.279738 74.046088 
L 121.604717 74.921532 
L 121.929697 76.121925 
L 122.254676 76.048348 
L 122.579656 74.39949 
L 123.554595 71.937432 
L 123.879574 71.655977 
L 124.529533 73.145252 
L 124.854513 71.729612 
L 125.179492 70.923983 
L 125.504472 71.638448 
L 125.829451 72.872183 
L 126.154431 71.750027 
L 126.47941 71.472977 
L 127.129369 69.962716 
L 127.454349 68.677252 
L 127.779328 68.100102 
L 128.104308 67.991101 
L 128.429287 68.348966 
L 128.754267 66.720069 
L 129.079247 66.606219 
L 129.404226 66.290881 
L 129.729206 67.889107 
L 130.054185 68.416991 
L 130.379165 67.919302 
L 130.704144 68.85662 
L 131.029124 68.668629 
L 131.354103 68.916431 
L 131.679083 68.868295 
L 132.004062 67.659938 
L 132.329042 67.340834 
L 132.654021 66.134868 
L 133.30398 68.62871 
L 133.62896 68.681008 
L 134.278919 69.551816 
L 134.928878 67.160575 
L 135.578837 66.815431 
L 135.903817 66.670812 
L 136.228796 67.574366 
L 136.553776 67.342456 
L 137.203735 65.820495 
L 137.528714 65.991826 
L 137.853694 64.738964 
L 138.178673 64.743198 
L 138.503653 66.065912 
L 138.828632 65.362763 
L 139.153612 63.306026 
L 139.478591 63.602891 
L 140.12855 62.039493 
L 140.778509 64.425115 
L 141.103489 64.196866 
L 141.428468 62.927186 
L 141.753448 63.051592 
L 142.078428 62.672026 
L 142.403407 62.686321 
L 142.728387 63.251667 
L 143.053366 62.431246 
L 144.353284 61.000631 
L 144.678264 59.688725 
L 145.003243 59.719574 
L 145.328223 59.951929 
L 145.653202 60.405545 
L 145.978182 59.949526 
L 146.303161 58.391263 
L 146.628141 58.813686 
L 146.95312 57.337939 
L 147.2781 58.075757 
L 147.928059 56.790749 
L 148.253038 56.710707 
L 148.578018 56.147226 
L 148.902998 55.929262 
L 149.227977 55.170749 
L 149.552957 54.983083 
L 149.877936 55.320453 
L 150.202916 55.894546 
L 150.527895 55.798066 
L 150.852875 54.660195 
L 151.177854 55.709914 
L 151.502834 55.593226 
L 152.152793 53.801215 
L 152.477772 53.568 
L 153.127731 54.053877 
L 153.77769 55.039151 
L 154.10267 54.420538 
L 154.427649 54.493114 
L 154.752629 54.172932 
L 155.077609 54.086353 
L 155.727568 55.009318 
L 156.052547 54.290561 
L 156.377527 54.242576 
L 157.027486 55.421759 
L 157.677445 54.851349 
L 158.002424 55.15233 
L 158.327404 54.975413 
L 158.652383 54.245805 
L 158.977363 54.7449 
L 159.627322 53.90328 
L 159.952301 54.586526 
L 160.277281 54.637414 
L 160.60226 54.919424 
L 160.92724 54.596795 
L 161.252219 55.603312 
L 161.902179 56.889154 
L 162.227158 56.943297 
L 162.552138 57.638831 
L 162.877117 57.245483 
L 163.202097 57.606423 
L 163.527076 57.152711 
L 163.852056 57.64116 
L 164.177035 56.721366 
L 164.502015 56.971531 
L 164.826994 56.482222 
L 165.151974 56.229716 
L 165.476953 55.77637 
L 166.451892 58.057494 
L 166.776871 58.620191 
L 167.101851 57.773432 
L 167.42683 57.543164 
L 167.75181 57.708934 
L 168.07679 58.157514 
L 168.401769 58.172696 
L 168.726749 57.564277 
L 169.051728 57.225551 
L 169.376708 57.051707 
L 169.701687 57.532559 
L 170.026667 56.680739 
L 170.351646 57.654637 
L 171.001605 58.476051 
L 171.326585 58.341464 
L 171.976544 59.089591 
L 172.301523 59.083009 
L 172.951482 59.875303 
L 173.276462 60.821314 
L 173.601441 60.787229 
L 174.2514 60.970127 
L 174.57638 61.783453 
L 175.226339 62.291566 
L 177.176216 65.941776 
L 177.501196 65.706837 
L 177.826175 65.300113 
L 178.151155 65.933606 
L 179.126093 64.945295 
L 179.451073 64.695077 
L 179.776052 64.74484 
L 180.101032 64.51014 
L 180.426011 63.801454 
L 180.750991 63.501082 
L 181.075971 62.883659 
L 181.40095 62.704489 
L 181.72593 62.097043 
L 182.050909 62.076886 
L 182.375889 62.78678 
L 183.025848 63.630478 
L 183.350827 63.231791 
L 183.675807 63.441117 
L 184.650745 62.110491 
L 184.975725 62.533672 
L 185.300704 62.689356 
L 185.625684 62.317166 
L 186.275643 62.739647 
L 186.600622 62.674882 
L 186.925602 63.483587 
L 187.250581 63.833686 
L 187.575561 64.605324 
L 187.900541 63.803721 
L 188.22552 63.810464 
L 188.5505 63.348211 
L 188.875479 64.057132 
L 189.200459 64.332161 
L 189.525438 63.792555 
L 189.850418 64.058109 
L 190.175397 63.938719 
L 190.500377 64.652731 
L 190.825356 64.233698 
L 191.475315 63.981995 
L 192.125274 63.129857 
L 192.450254 63.135064 
L 192.775233 63.25774 
L 193.425192 64.014284 
L 193.750172 63.840567 
L 194.075152 64.24376 
L 194.400131 63.988632 
L 194.725111 64.232311 
L 195.05009 64.84099 
L 195.700049 65.15963 
L 196.025029 65.649628 
L 196.350008 65.784075 
L 196.999967 65.430242 
L 197.324947 65.622837 
L 197.649926 64.984387 
L 197.974906 64.704538 
L 198.299885 63.865554 
L 198.624865 63.892369 
L 199.274824 63.174767 
L 199.924783 62.443894 
L 200.574742 62.753153 
L 201.224701 63.880711 
L 201.549681 63.619263 
L 201.87466 63.554108 
L 202.524619 64.331243 
L 203.174578 64.558555 
L 203.499558 64.071211 
L 203.824537 64.079927 
L 204.149517 63.684706 
L 204.799476 64.478969 
L 205.124455 63.689028 
L 205.449435 64.110382 
L 206.099394 63.484663 
L 206.749353 64.127713 
L 207.074333 63.808809 
L 207.399312 63.751725 
L 207.724292 63.555412 
L 208.049271 62.720384 
L 208.374251 62.737101 
L 208.69923 63.157902 
L 209.02421 62.986986 
L 209.349189 63.627156 
L 209.674169 63.713607 
L 209.999148 63.21108 
L 210.324128 63.672806 
L 210.649107 63.791059 
L 210.974087 63.649069 
L 211.299066 63.839056 
L 211.624046 63.337189 
L 212.274005 63.400803 
L 212.598984 63.801058 
L 212.923964 63.785465 
L 213.248943 63.321945 
L 213.573923 63.554061 
L 213.898903 64.07302 
L 214.223882 64.316594 
L 214.873841 65.410488 
L 215.198821 65.27493 
L 215.84878 65.330753 
L 216.173759 65.115023 
L 216.498739 65.468045 
L 216.823718 65.078077 
L 217.148698 65.339186 
L 217.473677 64.814232 
L 218.123636 64.99971 
L 218.448616 64.774958 
L 218.773595 64.844022 
L 219.098575 64.507542 
L 219.748534 64.860676 
L 220.073514 64.447601 
L 220.723473 64.284581 
L 221.048452 64.509098 
L 221.373432 63.999114 
L 221.698411 64.087258 
L 222.023391 63.926965 
L 222.34837 63.0523 
L 222.998329 63.13669 
L 223.323309 62.775239 
L 223.648288 63.011429 
L 223.973268 63.046026 
L 224.298247 63.351226 
L 224.623227 62.963184 
L 224.948206 63.287635 
L 225.273186 63.164379 
L 225.598165 63.653985 
L 225.923145 63.120124 
L 226.248124 63.099187 
L 226.898084 62.205178 
L 227.223063 62.639357 
L 227.548043 62.713234 
L 228.198002 63.215863 
L 229.17294 64.145216 
L 229.49792 64.238915 
L 229.822899 63.946341 
L 230.147879 64.223538 
L 230.472858 64.259773 
L 230.797838 63.545524 
L 231.122817 63.446872 
L 231.447797 63.876482 
L 231.772776 63.923992 
L 232.097756 63.494426 
L 232.422735 63.921342 
L 232.747715 63.833363 
L 233.072695 64.21241 
L 233.397674 64.04809 
L 233.722654 64.553296 
L 234.047633 64.192613 
L 234.372613 64.410566 
L 234.697592 64.47437 
L 235.022572 64.121231 
L 235.347551 64.100941 
L 235.672531 64.255702 
L 235.99751 64.122345 
L 236.32249 64.278348 
L 236.647469 64.310881 
L 236.972449 63.915287 
L 237.622408 63.620066 
L 237.947387 64.010223 
L 238.272367 63.918668 
L 238.597346 64.302626 
L 239.247305 64.767806 
L 239.572285 64.296942 
L 239.897265 64.267727 
L 240.222244 63.99198 
L 240.547224 63.904227 
L 240.872203 63.664271 
L 241.522162 64.047279 
L 241.847142 64.081187 
L 242.172121 64.262428 
L 242.497101 64.686744 
L 243.14706 64.432845 
L 243.472039 64.554269 
L 243.797019 63.926536 
L 245.096937 63.35724 
L 245.746896 63.987491 
L 246.071876 63.758388 
L 246.396855 63.733947 
L 247.046814 64.105712 
L 247.371794 64.159631 
L 247.696773 63.950133 
L 248.021753 64.385852 
L 248.671712 64.670952 
L 248.996691 64.482509 
L 249.64665 64.603936 
L 249.97163 64.489991 
L 250.296609 64.886324 
L 250.621589 64.963376 
L 250.946568 64.455928 
L 251.271548 64.337165 
L 251.596527 64.452089 
L 252.246486 63.786122 
L 252.896446 64.036467 
L 253.221425 64.33291 
L 254.521343 63.383008 
L 254.846323 63.503365 
L 255.171302 63.202621 
L 255.496282 63.55598 
L 255.821261 63.56007 
L 256.47122 63.448181 
L 256.7962 63.692334 
L 257.121179 63.477383 
L 257.771138 63.657364 
L 258.096118 63.316475 
L 258.421097 63.427773 
L 258.746077 63.339688 
L 259.071057 63.406047 
L 259.396036 63.174768 
L 259.721016 63.472021 
L 260.045995 63.478592 
L 261.020934 62.999703 
L 261.995872 63.692613 
L 262.320852 63.570563 
L 262.645831 63.263938 
L 262.970811 63.169013 
L 263.29579 63.2307 
L 263.945749 63.804979 
L 264.595708 63.772206 
L 264.920688 63.849536 
L 265.245667 63.418505 
L 265.570647 63.486709 
L 265.895627 63.945046 
L 266.220606 63.38228 
L 266.545586 63.457289 
L 266.870565 63.857228 
L 267.520524 64.17031 
L 267.845504 63.707014 
L 268.170483 64.220618 
L 268.495463 63.977153 
L 269.470401 63.902774 
L 270.12036 64.02858 
L 271.095299 63.407096 
L 271.420278 63.580327 
L 271.745258 63.978875 
L 272.070238 63.427067 
L 272.395217 63.365396 
L 272.720197 63.643225 
L 273.370156 64.512589 
L 273.695135 64.21989 
L 274.345094 64.238602 
L 274.995053 64.034735 
L 275.320033 64.434506 
L 275.645012 64.515454 
L 276.619951 65.824463 
L 276.94493 65.740904 
L 277.26991 65.947171 
L 277.594889 65.879265 
L 277.919869 66.173492 
L 278.244848 66.010571 
L 278.569828 65.698293 
L 279.219787 66.2326 
L 279.544767 66.275282 
L 279.869746 66.58646 
L 280.194726 66.536927 
L 280.519705 66.972096 
L 281.169664 67.228492 
L 281.494644 67.315792 
L 282.144603 67.199223 
L 282.469582 66.938693 
L 283.119541 66.990558 
L 283.444521 66.842071 
L 283.7695 67.115749 
L 284.09448 67.553055 
L 284.419459 67.555533 
L 284.744439 68.01591 
L 285.394398 67.653155 
L 285.719378 67.973816 
L 286.044357 67.81464 
L 286.369337 68.171926 
L 286.694316 68.222449 
L 287.019296 68.494678 
L 287.344275 68.298053 
L 287.669255 68.456405 
L 287.994234 68.291555 
L 288.969173 68.61058 
L 289.294152 68.419039 
L 290.269091 69.325098 
L 290.91905 68.708442 
L 291.244029 68.89351 
L 291.569009 68.593641 
L 291.893989 68.957589 
L 292.218968 68.959543 
L 292.868927 68.489169 
L 293.193907 68.612425 
L 293.518886 68.960138 
L 293.843866 69.03824 
L 294.818804 68.278642 
L 295.143784 68.061824 
L 296.768681 69.397896 
L 297.093661 69.350602 
L 297.41864 69.01664 
L 297.74362 69.030187 
L 298.393579 68.477527 
L 299.043538 68.121661 
L 299.368518 68.273975 
L 299.693497 68.016336 
L 300.018477 67.58809 
L 300.343456 67.519493 
L 300.993415 66.92781 
L 301.643374 67.376227 
L 301.968354 67.240861 
L 302.293333 67.417808 
L 304.56819 67.399501 
L 304.89317 67.059902 
L 305.218149 67.08551 
L 305.543129 67.373572 
L 305.868108 67.330572 
L 306.518067 66.846445 
L 306.843047 66.822017 
L 307.168026 67.167234 
L 307.493006 66.793296 
L 307.817985 67.018884 
L 308.142965 67.098559 
L 308.467944 67.313486 
L 309.442883 66.460954 
L 309.767862 66.169965 
L 310.092842 66.236028 
L 310.417821 66.125874 
L 311.067781 66.455832 
L 311.39276 66.241031 
L 311.71774 66.483786 
L 312.692678 66.61455 
L 313.342637 67.046574 
L 313.667617 67.226104 
L 313.992596 67.131376 
L 314.317576 67.276554 
L 314.642555 67.209534 
L 314.967535 67.533481 
L 315.292514 67.363796 
L 315.617494 67.354428 
L 315.942473 67.655067 
L 316.592432 67.855187 
L 317.242391 67.671829 
L 318.21733 67.054297 
L 318.54231 67.058294 
L 319.192269 67.709073 
L 319.517248 67.831881 
L 320.167207 67.196218 
L 320.492187 67.605905 
L 321.142146 67.34676 
L 321.467125 67.39352 
L 321.792105 67.206181 
L 322.117084 67.388735 
L 322.767043 67.304014 
L 323.417002 67.482677 
L 323.741982 67.564807 
L 324.066962 67.38053 
L 324.391941 67.663838 
L 324.716921 67.589319 
L 325.0419 67.652004 
L 325.36688 67.979889 
L 325.691859 67.954797 
L 327.316757 68.480061 
L 327.641736 68.870629 
L 327.966716 68.639258 
L 328.291695 68.96373 
L 328.616675 68.865117 
L 328.941654 68.627389 
L 329.266634 68.60658 
L 329.591613 68.318614 
L 329.916593 68.315551 
L 331.216511 68.815483 
L 331.86647 68.405941 
L 332.19145 68.459014 
L 332.516429 68.652905 
L 332.841409 68.376093 
L 334.141327 68.799055 
L 334.466306 68.926812 
L 335.116265 68.537625 
L 335.441245 68.277252 
L 336.091204 68.580786 
L 336.416183 68.675436 
L 337.066143 69.164124 
L 337.391122 68.756234 
L 337.716102 68.872546 
L 338.041081 68.560328 
L 338.366061 68.661943 
L 338.69104 68.9003 
L 339.01602 68.832914 
L 339.340999 68.578549 
L 339.665979 68.621832 
L 339.990958 68.496936 
L 340.315938 68.519687 
L 340.640917 68.282002 
L 342.265815 68.683135 
L 342.915774 68.357225 
L 343.240753 68.492027 
L 343.565733 68.403927 
L 343.890713 68.46975 
L 344.215692 68.807799 
L 344.540672 68.70103 
L 345.51561 69.169578 
L 345.84059 69.364274 
L 346.165569 69.113364 
L 346.490549 69.482781 
L 346.815528 69.537031 
L 347.140508 69.459385 
L 347.790467 68.892291 
L 348.115446 69.151415 
L 348.440426 69.191593 
L 349.090385 68.809016 
L 350.065324 69.053038 
L 350.715283 68.861579 
L 351.040262 68.942323 
L 351.365242 68.884959 
L 351.690221 69.081846 
L 352.34018 69.107843 
L 352.66516 68.951299 
L 352.990139 68.954169 
L 353.315119 68.81501 
L 353.965078 68.730486 
L 354.290057 68.441868 
L 354.615037 68.415219 
L 355.914955 67.80553 
L 356.239934 67.847421 
L 356.889894 67.443589 
L 357.539853 66.844592 
L 357.864832 67.135127 
L 358.189812 67.207912 
L 358.514791 66.891456 
L 358.839771 66.813943 
L 360.789648 67.327954 
L 361.114627 67.567581 
L 361.439607 67.375446 
L 361.764586 67.489808 
L 362.414545 67.236473 
L 362.739525 67.483964 
L 363.389484 67.606179 
L 363.714464 67.370813 
L 364.364423 67.877269 
L 364.689402 67.692527 
L 365.339361 67.710852 
L 365.98932 67.943164 
L 366.3143 68.058891 
L 366.639279 67.776046 
L 366.964259 67.732888 
L 367.289238 67.994023 
L 367.614218 67.561503 
L 367.939197 67.509917 
L 368.264177 67.238687 
L 368.589156 67.436545 
L 368.914136 67.340712 
L 369.564095 67.7872 
L 369.889075 67.579727 
L 370.214054 67.663396 
L 370.864013 67.575946 
L 371.513972 67.947245 
L 372.488911 67.756118 
L 373.13887 68.135624 
L 373.788829 68.350881 
L 374.113808 68.586192 
L 374.438788 68.591468 
L 374.763767 68.755782 
L 376.063686 68.146273 
L 376.388665 68.171966 
L 376.713645 67.889818 
L 377.038624 67.949882 
L 377.363604 67.757116 
L 377.688583 67.7424 
L 378.663522 67.319916 
L 379.96344 67.158563 
L 380.613399 67.018328 
L 380.938378 66.921626 
L 381.263358 66.981738 
L 381.588337 67.320862 
L 382.888256 66.794797 
L 383.213235 66.916335 
L 383.863194 66.811387 
L 384.513153 66.556209 
L 385.163112 66.896115 
L 386.138051 67.683059 
L 386.78801 67.650382 
L 387.112989 67.638852 
L 387.437969 67.512589 
L 388.087928 67.58131 
L 388.412907 67.773633 
L 389.062867 67.832137 
L 389.387846 68.013562 
L 389.712826 67.879587 
L 390.362785 68.098745 
L 390.687764 68.112447 
L 391.012744 67.942574 
L 391.337723 67.995228 
L 391.662703 67.647543 
L 392.637641 68.263833 
L 393.2876 67.909837 
L 393.937559 67.346517 
L 394.262539 67.359349 
L 394.912498 66.98496 
L 395.562457 66.576174 
L 396.212416 66.254045 
L 396.862375 65.8975 
L 398.487273 64.638526 
L 398.487273 64.638526 
" clip-path="url(#p7917e8c53b)" style="fill: none; stroke-dasharray: 2,3.3; stroke-dashoffset: 0; stroke: #0000ff; stroke-width: 2"/>
   </g>
   <g id="line2d_14">
    <path d="M 73.832727 287.646163 
L 74.157707 295.488 
L 74.807666 265.16629 
L 75.132645 238.272421 
L 75.457625 232.176833 
L 75.782604 240.992467 
L 76.107584 225.630671 
L 76.757543 205.37098 
L 77.082523 211.969201 
L 77.407502 199.557847 
L 77.732482 180.950335 
L 79.357379 123.817935 
L 79.682359 120.272488 
L 80.007338 119.655729 
L 80.982277 85.72599 
L 81.307256 92.887312 
L 81.632236 90.329596 
L 81.957215 94.208772 
L 82.282195 95.361987 
L 82.607174 102.092369 
L 82.932154 96.623998 
L 83.257133 99.65176 
L 83.582113 89.85072 
L 83.907093 94.32764 
L 84.232072 91.042977 
L 84.557052 92.670197 
L 84.882031 91.913446 
L 85.207011 97.019702 
L 85.53199 92.288265 
L 85.85697 95.313883 
L 86.181949 87.997717 
L 86.506929 85.144038 
L 87.156888 76.65761 
L 87.481867 79.720747 
L 87.806847 78.440884 
L 88.131826 79.479884 
L 88.781785 86.779655 
L 89.431744 76.51584 
L 89.756724 75.629483 
L 90.081704 74.213202 
L 90.406683 69.027223 
L 90.731663 72.845718 
L 91.056642 75.121344 
L 91.381622 73.122717 
L 91.706601 66.911505 
L 92.031581 67.039184 
L 92.35656 68.925512 
L 92.68154 68.397298 
L 93.006519 67.463477 
L 93.331499 65.103595 
L 93.656478 65.103301 
L 93.981458 63.42854 
L 94.306437 63.918875 
L 95.281376 72.096704 
L 95.606355 76.396733 
L 95.931335 74.136031 
L 96.256314 71.051877 
L 97.231253 74.778053 
L 97.556233 71.626143 
L 97.881212 71.257018 
L 98.206192 74.436606 
L 98.531171 74.615668 
L 98.856151 72.381553 
L 99.18113 73.509079 
L 99.50611 76.338858 
L 99.831089 76.27812 
L 100.156069 75.250342 
L 100.481048 76.718546 
L 100.806028 77.036308 
L 101.131007 77.933264 
L 101.455987 75.699874 
L 101.780966 76.96442 
L 102.105946 79.469924 
L 102.430925 77.498614 
L 103.080885 76.65835 
L 104.055823 79.309017 
L 104.380803 78.71191 
L 104.705782 80.339632 
L 105.030762 78.176108 
L 105.355741 76.789054 
L 105.680721 78.360037 
L 106.0057 78.307731 
L 106.33068 77.013499 
L 106.655659 76.746582 
L 106.980639 75.229153 
L 107.305618 76.050553 
L 107.630598 76.148745 
L 108.280557 72.572239 
L 108.930516 75.289055 
L 109.255495 74.696065 
L 109.580475 76.277253 
L 109.905455 74.008926 
L 110.230434 74.743564 
L 110.555414 72.486514 
L 110.880393 71.798591 
L 111.205373 70.351199 
L 111.855332 69.363929 
L 112.505291 69.332319 
L 112.83027 70.111671 
L 113.15525 69.117556 
L 113.480229 66.682404 
L 113.805209 66.019273 
L 114.130188 65.866487 
L 114.455168 67.354802 
L 114.780147 68.178524 
L 115.105127 67.733917 
L 115.430106 66.825569 
L 115.755086 67.951446 
L 116.080066 69.736832 
L 116.405045 68.625809 
L 116.730025 68.779393 
L 117.055004 70.2593 
L 117.379984 70.039856 
L 117.704963 68.697062 
L 118.029943 70.370302 
L 118.354922 69.747734 
L 118.679902 69.761081 
L 119.004881 69.929166 
L 119.65484 68.252596 
L 119.97982 68.872262 
L 120.304799 68.043067 
L 120.629779 69.016743 
L 120.954758 68.077782 
L 121.279738 69.668284 
L 121.604717 70.573308 
L 121.929697 71.015159 
L 122.254676 70.575222 
L 122.579656 71.05519 
L 122.904636 69.266462 
L 123.554595 66.839901 
L 123.879574 68.216754 
L 124.204554 67.870307 
L 124.854513 71.196316 
L 125.179492 69.625928 
L 125.504472 69.766341 
L 125.829451 71.462103 
L 126.154431 72.164426 
L 126.47941 71.583971 
L 126.80439 70.317105 
L 127.454349 72.976816 
L 127.779328 71.765681 
L 128.104308 71.702606 
L 128.754267 70.081197 
L 129.079247 69.341743 
L 129.404226 69.093191 
L 129.729206 68.503475 
L 130.054185 69.588955 
L 130.379165 69.376684 
L 130.704144 68.614024 
L 131.029124 69.289909 
L 131.354103 68.664566 
L 131.679083 70.201297 
L 132.329042 69.73756 
L 132.654021 70.290888 
L 132.979001 68.932048 
L 133.30398 68.400177 
L 133.62896 69.348888 
L 133.953939 69.312554 
L 134.278919 68.793733 
L 134.603898 68.679149 
L 134.928878 68.995504 
L 135.578837 69.957861 
L 135.903817 69.61828 
L 136.228796 68.628361 
L 137.203735 68.69355 
L 137.528714 69.007504 
L 137.853694 67.852765 
L 138.178673 67.181564 
L 138.503653 67.641228 
L 138.828632 66.033823 
L 139.153612 65.123087 
L 139.803571 66.744211 
L 140.12855 67.05383 
L 140.45353 66.945799 
L 140.778509 67.103417 
L 141.103489 65.905446 
L 141.753448 67.269302 
L 142.078428 67.051202 
L 142.728387 65.749332 
L 143.053366 65.215034 
L 143.378346 65.777826 
L 143.703325 66.806002 
L 144.028305 65.495564 
L 144.353284 64.737205 
L 144.678264 64.845059 
L 145.003243 66.272982 
L 145.328223 66.103333 
L 145.653202 66.854612 
L 145.978182 66.714377 
L 146.303161 66.868846 
L 146.628141 67.385451 
L 146.95312 68.544303 
L 147.603079 67.827519 
L 147.928059 67.040855 
L 148.253038 65.747325 
L 148.578018 66.777849 
L 148.902998 66.655449 
L 149.227977 66.217781 
L 149.552957 65.338325 
L 149.877936 65.604706 
L 150.202916 64.729831 
L 150.527895 64.314129 
L 150.852875 65.493115 
L 151.177854 65.749494 
L 151.502834 66.457399 
L 151.827813 65.670056 
L 152.802752 64.453176 
L 153.127731 63.57571 
L 153.452711 63.517836 
L 153.77769 63.107076 
L 154.10267 63.907522 
L 154.427649 64.375717 
L 154.752629 64.250328 
L 155.402588 65.937787 
L 156.052547 66.350473 
L 156.377527 65.024654 
L 156.702506 64.168285 
L 157.027486 65.038649 
L 157.352465 65.41927 
L 157.677445 65.399505 
L 158.327404 64.034738 
L 158.652383 64.220779 
L 158.977363 64.014244 
L 159.627322 64.677683 
L 159.952301 64.622262 
L 160.277281 64.383429 
L 160.60226 64.811764 
L 160.92724 65.81552 
L 161.252219 65.815649 
L 161.577199 65.209773 
L 161.902179 65.745455 
L 162.227158 65.411032 
L 162.877117 66.225663 
L 163.202097 66.248367 
L 163.527076 65.548716 
L 163.852056 65.980223 
L 164.502015 65.530828 
L 165.151974 64.935155 
L 165.476953 64.954297 
L 165.801933 65.164122 
L 166.451892 62.566687 
L 166.776871 62.812471 
L 167.42683 61.910548 
L 167.75181 61.73588 
L 168.401769 62.674854 
L 168.726749 62.834051 
L 169.051728 62.570246 
L 169.701687 63.28009 
L 170.026667 63.679196 
L 170.351646 64.640221 
L 170.676626 64.722061 
L 171.001605 64.266097 
L 171.326585 64.781995 
L 171.651564 64.135766 
L 171.976544 64.64551 
L 172.301523 63.884259 
L 172.626503 62.52694 
L 172.951482 63.264255 
L 173.276462 62.846134 
L 173.601441 62.661378 
L 173.926421 63.581251 
L 174.2514 64.019324 
L 174.57638 64.711859 
L 174.90136 64.621573 
L 175.226339 64.035338 
L 175.551319 63.888619 
L 175.876298 63.142875 
L 176.201278 63.62651 
L 176.526257 63.717564 
L 176.851237 62.99203 
L 177.176216 63.606378 
L 177.501196 63.926975 
L 177.826175 63.78922 
L 178.151155 63.339032 
L 178.476134 63.347803 
L 178.801114 64.121158 
L 179.126093 64.301705 
L 179.451073 63.765241 
L 179.776052 63.709049 
L 180.750991 65.70952 
L 181.075971 66.216442 
L 181.40095 66.040859 
L 181.72593 65.069369 
L 182.700868 67.452079 
L 184.000786 66.574057 
L 184.325766 67.280305 
L 184.975725 68.066653 
L 185.300704 68.745008 
L 185.625684 68.729196 
L 185.950663 68.49519 
L 186.275643 68.595245 
L 186.925602 68.355619 
L 187.900541 67.450908 
L 188.22552 67.988765 
L 188.5505 67.582138 
L 189.525438 68.863893 
L 189.850418 68.743279 
L 190.175397 69.278923 
L 190.825356 69.659135 
L 191.150336 68.885701 
L 192.125274 67.58461 
L 192.450254 67.509793 
L 192.775233 67.813063 
L 193.100213 67.605833 
L 193.425192 68.340671 
L 194.075152 68.930637 
L 194.400131 69.015721 
L 194.725111 68.806117 
L 195.05009 68.238656 
L 196.025029 69.031099 
L 196.350008 68.929651 
L 196.674988 69.260943 
L 196.999967 69.09556 
L 197.324947 69.667751 
L 197.649926 69.978128 
L 198.299885 69.280573 
L 198.624865 69.934346 
L 198.949844 69.808084 
L 199.274824 69.296158 
L 199.599803 69.364072 
L 199.924783 69.103835 
L 200.249762 69.203973 
L 200.574742 69.026313 
L 200.899722 68.420002 
L 201.224701 68.768005 
L 201.87466 69.84266 
L 202.524619 69.044556 
L 202.849599 69.298243 
L 203.824537 69.34424 
L 204.474496 70.294179 
L 204.799476 69.627655 
L 205.124455 69.656901 
L 206.099394 70.85731 
L 206.749353 70.339298 
L 207.399312 71.190158 
L 207.724292 70.704759 
L 208.049271 71.015695 
L 208.374251 70.555189 
L 208.69923 70.389842 
L 209.999148 68.882831 
L 210.324128 69.264206 
L 210.974087 69.626347 
L 211.624046 70.717032 
L 211.949025 70.471702 
L 212.274005 69.88918 
L 212.598984 70.119769 
L 212.923964 70.089393 
L 213.248943 70.639639 
L 213.573923 70.473039 
L 213.898903 70.46631 
L 214.548862 69.73761 
L 214.873841 70.064318 
L 215.198821 69.897037 
L 215.5238 69.467091 
L 215.84878 69.435125 
L 216.173759 69.741211 
L 216.498739 69.614176 
L 216.823718 69.307381 
L 217.148698 68.684341 
L 217.798657 69.191269 
L 218.123636 68.723841 
L 219.098575 68.028911 
L 219.423554 68.445222 
L 219.748534 67.991947 
L 220.398493 68.293285 
L 220.723473 68.010799 
L 221.048452 67.967842 
L 221.373432 68.506627 
L 221.698411 67.988994 
L 222.34837 68.204656 
L 222.67335 67.896325 
L 222.998329 68.467373 
L 223.323309 68.301253 
L 223.648288 68.724569 
L 223.973268 68.25789 
L 224.623227 68.423287 
L 224.948206 67.955739 
L 225.273186 68.31941 
L 225.598165 68.514896 
L 225.923145 68.923181 
L 226.248124 68.636886 
L 226.573104 68.849275 
L 226.898084 68.898734 
L 227.223063 68.540974 
L 227.873022 68.694027 
L 228.198002 68.174269 
L 228.522981 68.270893 
L 228.847961 68.208703 
L 229.17294 68.3233 
L 229.822899 67.928436 
L 230.147879 68.514663 
L 230.472858 68.528373 
L 231.122817 67.759458 
L 231.447797 68.151409 
L 231.772776 67.635855 
L 232.097756 67.350427 
L 232.422735 67.284441 
L 232.747715 67.57594 
L 233.072695 67.299309 
L 233.397674 67.353236 
L 233.722654 66.820933 
L 234.372613 66.290181 
L 234.697592 66.27094 
L 235.022572 65.5699 
L 235.347551 65.485621 
L 236.32249 64.615399 
L 236.972449 64.147473 
L 237.297428 64.349988 
L 237.622408 63.55589 
L 238.597346 63.78504 
L 238.922326 64.19461 
L 239.247305 63.519007 
L 239.572285 63.109568 
L 239.897265 63.372158 
L 240.222244 63.367438 
L 240.547224 62.938197 
L 240.872203 63.104317 
L 241.522162 63.01094 
L 241.847142 62.689505 
L 242.172121 62.83174 
L 242.497101 63.104484 
L 242.82208 62.93003 
L 243.14706 63.426846 
L 243.472039 63.206042 
L 243.797019 63.639837 
L 244.446978 64.114846 
L 245.421916 65.405516 
L 246.071876 64.60436 
L 246.396855 64.399369 
L 247.046814 65.213823 
L 247.371794 64.990394 
L 247.696773 65.427319 
L 248.021753 65.189607 
L 248.346732 65.342573 
L 248.671712 64.897791 
L 249.321671 65.08648 
L 249.64665 64.785303 
L 249.97163 64.648979 
L 250.296609 64.709655 
L 250.621589 64.963806 
L 251.596527 64.071345 
L 251.921507 64.342528 
L 252.246486 63.73029 
L 252.571466 63.831393 
L 253.221425 64.477682 
L 253.546405 64.858461 
L 253.871384 64.675893 
L 254.196364 65.232059 
L 254.846323 65.654877 
L 255.171302 65.334163 
L 255.496282 65.346941 
L 255.821261 65.804011 
L 256.146241 65.851196 
L 256.47122 66.123141 
L 256.7962 65.802204 
L 257.771138 65.335242 
L 258.096118 65.338602 
L 258.746077 65.574426 
L 259.071057 65.636871 
L 259.721016 65.418245 
L 260.370975 65.995902 
L 261.020934 65.534479 
L 261.670893 65.486004 
L 261.995872 65.163737 
L 262.320852 64.600559 
L 262.645831 64.544605 
L 263.945749 64.978913 
L 264.920688 65.785488 
L 265.895627 64.978444 
L 266.220606 65.096099 
L 266.545586 65.397588 
L 266.870565 65.400163 
L 267.195545 65.74756 
L 267.520524 65.890962 
L 267.845504 65.862465 
L 268.170483 66.029062 
L 268.820442 66.595995 
L 269.145422 66.548299 
L 269.795381 66.692617 
L 270.12036 66.517704 
L 270.770319 66.642001 
L 271.095299 67.040018 
L 271.745258 66.495539 
L 272.720197 66.452463 
L 273.370156 66.461759 
L 273.695135 66.436263 
L 274.020115 66.250578 
L 274.670074 66.421954 
L 274.995053 66.510076 
L 275.320033 66.102287 
L 275.645012 65.890417 
L 275.969992 65.910438 
L 276.619951 66.729677 
L 277.26991 67.186246 
L 278.244848 66.610171 
L 278.569828 66.762545 
L 278.894808 66.599745 
L 279.544767 67.200319 
L 280.194726 66.562331 
L 280.519705 66.621445 
L 281.169664 66.294602 
L 281.494644 66.443062 
L 281.819623 66.025574 
L 282.144603 66.131866 
L 282.469582 66.055377 
L 282.794562 66.411866 
L 283.119541 66.515199 
L 283.444521 66.924312 
L 283.7695 67.118717 
L 284.419459 67.86532 
L 284.744439 67.869024 
L 285.069419 67.66317 
L 285.394398 68.039708 
L 285.719378 67.965446 
L 286.044357 67.659202 
L 287.019296 68.081162 
L 287.344275 67.839223 
L 287.669255 68.02806 
L 287.994234 67.64431 
L 288.319214 68.045053 
L 288.644193 67.929012 
L 289.294152 68.484044 
L 289.619132 68.359831 
L 290.269091 69.180203 
L 290.59407 69.286123 
L 290.91905 68.919979 
L 291.244029 69.207614 
L 291.569009 69.276071 
L 291.893989 68.933772 
L 292.218968 69.255486 
L 292.543948 68.877973 
L 292.868927 68.784417 
L 293.843866 69.671666 
L 294.168845 69.578346 
L 294.493825 69.926921 
L 294.818804 69.645351 
L 295.143784 69.724581 
L 295.468763 69.535752 
L 295.793743 69.612916 
L 296.118722 69.151802 
L 296.443702 69.165143 
L 297.41864 68.289153 
L 298.0686 68.090615 
L 298.393579 67.902126 
L 299.043538 67.222475 
L 299.368518 67.270831 
L 300.018477 66.638757 
L 300.343456 66.509551 
L 300.993415 66.796083 
L 301.318395 66.815789 
L 301.643374 66.601062 
L 301.968354 66.707358 
L 302.618313 66.608972 
L 302.943292 66.753867 
L 303.268272 67.03167 
L 303.593251 66.70821 
L 304.56819 66.502531 
L 304.89317 66.683104 
L 305.543129 66.608117 
L 305.868108 67.034338 
L 306.193088 66.929932 
L 306.518067 67.030427 
L 306.843047 66.982313 
L 307.168026 66.796049 
L 307.493006 66.328588 
L 307.817985 66.424454 
L 308.142965 66.037604 
L 308.467944 65.888842 
L 309.117903 66.146539 
L 310.417821 67.060165 
L 311.71774 66.912087 
L 312.042719 66.798962 
L 312.367699 66.491024 
L 313.342637 66.509062 
L 313.667617 66.284004 
L 313.992596 66.448494 
L 314.317576 66.459089 
L 314.642555 66.222733 
L 315.292514 66.368222 
L 315.617494 66.570804 
L 315.942473 66.607595 
L 317.567371 67.446237 
L 317.892351 67.097364 
L 318.21733 67.39555 
L 318.54231 67.537873 
L 318.867289 67.115135 
L 319.192269 67.091408 
L 319.517248 67.296165 
L 319.842228 67.290858 
L 320.492187 66.892338 
L 321.142146 67.179399 
L 321.467125 67.243526 
L 321.792105 67.010176 
L 322.442064 67.131207 
L 322.767043 67.26684 
L 323.417002 67.781208 
L 324.066962 67.758627 
L 324.391941 67.901689 
L 324.716921 67.639626 
L 325.0419 67.536391 
L 325.36688 67.157239 
L 325.691859 67.281157 
L 326.016839 66.944971 
L 326.666798 67.418661 
L 326.991777 67.296021 
L 327.316757 67.473916 
L 327.641736 67.124554 
L 327.966716 67.244031 
L 328.616675 67.975421 
L 329.266634 67.704468 
L 329.591613 67.749291 
L 329.916593 67.484617 
L 330.241572 67.487888 
L 330.566552 67.306824 
L 330.891532 67.259104 
L 331.216511 67.461197 
L 331.541491 67.430798 
L 332.516429 67.732731 
L 333.491368 67.053486 
L 334.141327 67.098378 
L 334.791286 66.520882 
L 336.741163 67.210698 
L 337.066143 67.516274 
L 337.391122 67.259083 
L 337.716102 67.338272 
L 338.041081 67.231376 
L 338.69104 67.603058 
L 339.340999 67.265586 
L 339.665979 67.389578 
L 339.990958 66.981682 
L 340.640917 67.040323 
L 341.290876 66.586067 
L 341.940835 67.03756 
L 342.265815 66.963993 
L 343.240753 67.115833 
L 343.890713 66.705424 
L 345.190631 67.501959 
L 345.84059 67.625193 
L 346.165569 67.939631 
L 346.490549 67.97762 
L 347.140508 68.272505 
L 347.790467 68.124365 
L 348.115446 68.36699 
L 349.090385 68.209797 
L 349.415364 68.466338 
L 349.740344 68.472227 
L 350.390303 68.914372 
L 351.040262 68.504723 
L 352.015201 68.341796 
L 352.66516 68.457259 
L 353.315119 67.90635 
L 354.615037 68.062906 
L 355.264996 67.844749 
L 356.239934 68.007052 
L 356.889894 67.887868 
L 357.539853 68.044286 
L 357.864832 67.904443 
L 358.189812 68.079108 
L 358.514791 67.933741 
L 359.48973 68.015955 
L 360.139689 68.144593 
L 360.789648 68.39111 
L 361.114627 68.334099 
L 361.439607 68.130238 
L 361.764586 68.405673 
L 362.739525 68.382155 
L 363.064505 68.304838 
L 363.389484 68.609067 
L 364.039443 68.441473 
L 364.364423 68.427427 
L 364.689402 68.241078 
L 365.014382 68.244901 
L 365.339361 68.107711 
L 365.98932 68.180302 
L 366.3143 68.280152 
L 366.639279 68.227527 
L 366.964259 68.582171 
L 367.289238 68.320139 
L 367.939197 68.362443 
L 368.914136 68.418678 
L 369.239115 68.61182 
L 369.564095 68.664354 
L 369.889075 68.527541 
L 370.864013 69.010042 
L 371.513972 69.218156 
L 372.163931 68.777105 
L 372.488911 68.767364 
L 373.463849 69.315278 
L 373.788829 69.504395 
L 374.113808 69.248365 
L 374.763767 69.349523 
L 375.413726 69.703978 
L 375.738706 69.530813 
L 376.388665 69.448396 
L 376.713645 69.175137 
L 378.338542 68.974308 
L 378.663522 69.153697 
L 378.988501 69.001994 
L 379.313481 69.050989 
L 379.63846 68.982101 
L 379.96344 68.759268 
L 380.288419 68.795691 
L 380.613399 69.124399 
L 380.938378 69.197013 
L 381.588337 68.867943 
L 382.238296 68.841634 
L 382.888256 68.627685 
L 383.213235 68.665064 
L 383.538215 68.985698 
L 383.863194 68.724315 
L 384.513153 68.80239 
L 386.46303 67.842826 
L 386.78801 67.979555 
L 387.437969 67.928618 
L 387.762948 68.147159 
L 388.412907 68.16084 
L 389.062867 68.036607 
L 389.387846 68.267859 
L 390.037805 67.791031 
L 390.687764 68.264 
L 391.012744 68.177753 
L 391.662703 68.547489 
L 391.987682 68.515083 
L 392.637641 68.144398 
L 392.962621 67.993813 
L 393.61258 67.429751 
L 393.937559 67.442511 
L 394.587518 67.067575 
L 395.562457 66.404392 
L 396.212416 66.082609 
L 396.862375 65.726408 
L 398.487273 64.46829 
L 398.487273 64.46829 
" clip-path="url(#p7917e8c53b)" style="fill: none; stroke-dasharray: 2,3.3; stroke-dashoffset: 0; stroke: #ffa500; stroke-width: 2"/>
   </g>
   <g id="patch_3">
    <path d="M 57.6 307.584 
L 57.6 41.472 
" style="fill: none; stroke: #000000; stroke-width: 0.8; stroke-linejoin: miter; stroke-linecap: square"/>
   </g>
   <g id="patch_4">
    <path d="M 414.72 307.584 
L 414.72 41.472 
" style="fill: none; stroke: #000000; stroke-width: 0.8; stroke-linejoin: miter; stroke-linecap: square"/>
   </g>
   <g id="patch_5">
    <path d="M 57.6 307.584 
L 414.72 307.584 
" style="fill: none; stroke: #000000; stroke-width: 0.8; stroke-linejoin: miter; stroke-linecap: square"/>
   </g>
   <g id="patch_6">
    <path d="M 57.6 41.472 
L 414.72 41.472 
" style="fill: none; stroke: #000000; stroke-width: 0.8; stroke-linejoin: miter; stroke-linecap: square"/>
   </g>
   <g id="text_15">
    <!-- Waiting Time Plot -->
    <g transform="translate(183.833438 8.2635)scale(0.12 -0.12)">
     <defs>
      <path id="DejaVuSans-50" d="M 1259 4147 
L 1259 2394 
L 2053 2394 
Q 2494 2394 2734 2622 
Q 2975 2850 2975 3272 
Q 2975 3691 2734 3919 
Q 2494 4147 2053 4147 
L 1259 4147 
z
M 628 4666 
L 2053 4666 
Q 2838 4666 3239 4311 
Q 3641 3956 3641 3272 
Q 3641 2581 3239 2228 
Q 2838 1875 2053 1875 
L 1259 1875 
L 1259 0 
L 628 0 
L 628 4666 
z
" transform="scale(0.015625)"/>
      <path id="DejaVuSans-6c" d="M 603 4863 
L 1178 4863 
L 1178 0 
L 603 0 
L 603 4863 
z
" transform="scale(0.015625)"/>
     </defs>
     <use xlink:href="#DejaVuSans-57"/>
     <use xlink:href="#DejaVuSans-61" x="92.501953"/>
     <use xlink:href="#DejaVuSans-69" x="153.78125"/>
     <use xlink:href="#DejaVuSans-74" x="181.564453"/>
     <use xlink:href="#DejaVuSans-69" x="220.773438"/>
     <use xlink:href="#DejaVuSans-6e" x="248.556641"/>
     <use xlink:href="#DejaVuSans-67" x="311.935547"/>
     <use xlink:href="#DejaVuSans-20" x="375.412109"/>
     <use xlink:href="#DejaVuSans-54" x="407.199219"/>
     <use xlink:href="#DejaVuSans-69" x="465.158203"/>
     <use xlink:href="#DejaVuSans-6d" x="492.941406"/>
     <use xlink:href="#DejaVuSans-65" x="590.353516"/>
     <use xlink:href="#DejaVuSans-20" x="651.876953"/>
     <use xlink:href="#DejaVuSans-50" x="683.664062"/>
     <use xlink:href="#DejaVuSans-6c" x="743.966797"/>
     <use xlink:href="#DejaVuSans-6f" x="771.75"/>
     <use xlink:href="#DejaVuSans-74" x="832.931641"/>
    </g>
    <!--  avg_d = 4621.621352427481  -->
    <g transform="translate(142.671562 21.700875)scale(0.12 -0.12)">
     <defs>
      <path id="DejaVuSans-76" d="M 191 3500 
L 800 3500 
L 1894 563 
L 2988 3500 
L 3597 3500 
L 2284 0 
L 1503 0 
L 191 3500 
z
" transform="scale(0.015625)"/>
      <path id="DejaVuSans-5f" d="M 3263 -1063 
L 3263 -1509 
L -63 -1509 
L -63 -1063 
L 3263 -1063 
z
" transform="scale(0.015625)"/>
      <path id="DejaVuSans-3d" d="M 678 2906 
L 4684 2906 
L 4684 2381 
L 678 2381 
L 678 2906 
z
M 678 1631 
L 4684 1631 
L 4684 1100 
L 678 1100 
L 678 1631 
z
" transform="scale(0.015625)"/>
      <path id="DejaVuSans-2e" d="M 684 794 
L 1344 794 
L 1344 0 
L 684 0 
L 684 794 
z
" transform="scale(0.015625)"/>
      <path id="DejaVuSans-35" d="M 691 4666 
L 3169 4666 
L 3169 4134 
L 1269 4134 
L 1269 2991 
Q 1406 3038 1543 3061 
Q 1681 3084 1819 3084 
Q 2600 3084 3056 2656 
Q 3513 2228 3513 1497 
Q 3513 744 3044 326 
Q 2575 -91 1722 -91 
Q 1428 -91 1123 -41 
Q 819 9 494 109 
L 494 744 
Q 775 591 1075 516 
Q 1375 441 1709 441 
Q 2250 441 2565 725 
Q 2881 1009 2881 1497 
Q 2881 1984 2565 2268 
Q 2250 2553 1709 2553 
Q 1456 2553 1204 2497 
Q 953 2441 691 2322 
L 691 4666 
z
" transform="scale(0.015625)"/>
      <path id="DejaVuSans-37" d="M 525 4666 
L 3525 4666 
L 3525 4397 
L 1831 0 
L 1172 0 
L 2766 4134 
L 525 4134 
L 525 4666 
z
" transform="scale(0.015625)"/>
     </defs>
     <use xlink:href="#DejaVuSans-20"/>
     <use xlink:href="#DejaVuSans-61" x="31.787109"/>
     <use xlink:href="#DejaVuSans-76" x="93.066406"/>
     <use xlink:href="#DejaVuSans-67" x="152.246094"/>
     <use xlink:href="#DejaVuSans-5f" x="215.722656"/>
     <use xlink:href="#DejaVuSans-64" x="265.722656"/>
     <use xlink:href="#DejaVuSans-20" x="329.199219"/>
     <use xlink:href="#DejaVuSans-3d" x="360.986328"/>
     <use xlink:href="#DejaVuSans-20" x="444.775391"/>
     <use xlink:href="#DejaVuSans-34" x="476.5625"/>
     <use xlink:href="#DejaVuSans-36" x="540.185547"/>
     <use xlink:href="#DejaVuSans-32" x="603.808594"/>
     <use xlink:href="#DejaVuSans-31" x="667.431641"/>
     <use xlink:href="#DejaVuSans-2e" x="731.054688"/>
     <use xlink:href="#DejaVuSans-36" x="762.841797"/>
     <use xlink:href="#DejaVuSans-32" x="826.464844"/>
     <use xlink:href="#DejaVuSans-31" x="890.087891"/>
     <use xlink:href="#DejaVuSans-33" x="953.710938"/>
     <use xlink:href="#DejaVuSans-35" x="1017.333984"/>
     <use xlink:href="#DejaVuSans-32" x="1080.957031"/>
     <use xlink:href="#DejaVuSans-34" x="1144.580078"/>
     <use xlink:href="#DejaVuSans-32" x="1208.203125"/>
     <use xlink:href="#DejaVuSans-37" x="1271.826172"/>
     <use xlink:href="#DejaVuSans-34" x="1335.449219"/>
     <use xlink:href="#DejaVuSans-38" x="1399.072266"/>
     <use xlink:href="#DejaVuSans-31" x="1462.695312"/>
     <use xlink:href="#DejaVuSans-20" x="1526.318359"/>
    </g>
    <!--  avg_a = 4622.441214959599diff = -0.8198625321183499 -->
    <g transform="translate(57.199688 35.472)scale(0.12 -0.12)">
     <defs>
      <path id="DejaVuSans-39" d="M 703 97 
L 703 672 
Q 941 559 1184 500 
Q 1428 441 1663 441 
Q 2288 441 2617 861 
Q 2947 1281 2994 2138 
Q 2813 1869 2534 1725 
Q 2256 1581 1919 1581 
Q 1219 1581 811 2004 
Q 403 2428 403 3163 
Q 403 3881 828 4315 
Q 1253 4750 1959 4750 
Q 2769 4750 3195 4129 
Q 3622 3509 3622 2328 
Q 3622 1225 3098 567 
Q 2575 -91 1691 -91 
Q 1453 -91 1209 -44 
Q 966 3 703 97 
z
M 1959 2075 
Q 2384 2075 2632 2365 
Q 2881 2656 2881 3163 
Q 2881 3666 2632 3958 
Q 2384 4250 1959 4250 
Q 1534 4250 1286 3958 
Q 1038 3666 1038 3163 
Q 1038 2656 1286 2365 
Q 1534 2075 1959 2075 
z
" transform="scale(0.015625)"/>
      <path id="DejaVuSans-2d" d="M 313 2009 
L 1997 2009 
L 1997 1497 
L 313 1497 
L 313 2009 
z
" transform="scale(0.015625)"/>
     </defs>
     <use xlink:href="#DejaVuSans-20"/>
     <use xlink:href="#DejaVuSans-61" x="31.787109"/>
     <use xlink:href="#DejaVuSans-76" x="93.066406"/>
     <use xlink:href="#DejaVuSans-67" x="152.246094"/>
     <use xlink:href="#DejaVuSans-5f" x="215.722656"/>
     <use xlink:href="#DejaVuSans-61" x="265.722656"/>
     <use xlink:href="#DejaVuSans-20" x="327.001953"/>
     <use xlink:href="#DejaVuSans-3d" x="358.789062"/>
     <use xlink:href="#DejaVuSans-20" x="442.578125"/>
     <use xlink:href="#DejaVuSans-34" x="474.365234"/>
     <use xlink:href="#DejaVuSans-36" x="537.988281"/>
     <use xlink:href="#DejaVuSans-32" x="601.611328"/>
     <use xlink:href="#DejaVuSans-32" x="665.234375"/>
     <use xlink:href="#DejaVuSans-2e" x="728.857422"/>
     <use xlink:href="#DejaVuSans-34" x="760.644531"/>
     <use xlink:href="#DejaVuSans-34" x="824.267578"/>
     <use xlink:href="#DejaVuSans-31" x="887.890625"/>
     <use xlink:href="#DejaVuSans-32" x="951.513672"/>
     <use xlink:href="#DejaVuSans-31" x="1015.136719"/>
     <use xlink:href="#DejaVuSans-34" x="1078.759766"/>
     <use xlink:href="#DejaVuSans-39" x="1142.382812"/>
     <use xlink:href="#DejaVuSans-35" x="1206.005859"/>
     <use xlink:href="#DejaVuSans-39" x="1269.628906"/>
     <use xlink:href="#DejaVuSans-35" x="1333.251953"/>
     <use xlink:href="#DejaVuSans-39" x="1396.875"/>
     <use xlink:href="#DejaVuSans-39" x="1460.498047"/>
     <use xlink:href="#DejaVuSans-64" x="1524.121094"/>
     <use xlink:href="#DejaVuSans-69" x="1587.597656"/>
     <use xlink:href="#DejaVuSans-66" x="1615.380859"/>
     <use xlink:href="#DejaVuSans-66" x="1650.585938"/>
     <use xlink:href="#DejaVuSans-20" x="1685.791016"/>
     <use xlink:href="#DejaVuSans-3d" x="1717.578125"/>
     <use xlink:href="#DejaVuSans-20" x="1801.367188"/>
     <use xlink:href="#DejaVuSans-2d" x="1833.154297"/>
     <use xlink:href="#DejaVuSans-30" x="1869.238281"/>
     <use xlink:href="#DejaVuSans-2e" x="1932.861328"/>
     <use xlink:href="#DejaVuSans-38" x="1964.648438"/>
     <use xlink:href="#DejaVuSans-31" x="2028.271484"/>
     <use xlink:href="#DejaVuSans-39" x="2091.894531"/>
     <use xlink:href="#DejaVuSans-38" x="2155.517578"/>
     <use xlink:href="#DejaVuSans-36" x="2219.140625"/>
     <use xlink:href="#DejaVuSans-32" x="2282.763672"/>
     <use xlink:href="#DejaVuSans-35" x="2346.386719"/>
     <use xlink:href="#DejaVuSans-33" x="2410.009766"/>
     <use xlink:href="#DejaVuSans-32" x="2473.632812"/>
     <use xlink:href="#DejaVuSans-31" x="2537.255859"/>
     <use xlink:href="#DejaVuSans-31" x="2600.878906"/>
     <use xlink:href="#DejaVuSans-38" x="2664.501953"/>
     <use xlink:href="#DejaVuSans-33" x="2728.125"/>
     <use xlink:href="#DejaVuSans-34" x="2791.748047"/>
     <use xlink:href="#DejaVuSans-39" x="2855.371094"/>
     <use xlink:href="#DejaVuSans-39" x="2918.994141"/>
    </g>
   </g>
   <g id="legend_1">
    <g id="patch_7">
     <path d="M 263.88875 302.584 
L 407.72 302.584 
Q 409.72 302.584 409.72 300.584 
L 409.72 272.22775 
Q 409.72 270.22775 407.72 270.22775 
L 263.88875 270.22775 
Q 261.88875 270.22775 261.88875 272.22775 
L 261.88875 300.584 
Q 261.88875 302.584 263.88875 302.584 
z
" style="fill: #ffffff; opacity: 0.8; stroke: #cccccc; stroke-linejoin: miter"/>
    </g>
    <g id="line2d_15">
     <path d="M 265.88875 278.326187 
L 275.88875 278.326187 
L 285.88875 278.326187 
" style="fill: none; stroke-dasharray: 2,3.3; stroke-dashoffset: 0; stroke: #0000ff; stroke-width: 2"/>
    </g>
    <g id="text_16">
     <!-- Average (Default) -->
     <g transform="translate(293.88875 281.826187)scale(0.1 -0.1)">
      <defs>
       <path id="DejaVuSans-41" d="M 2188 4044 
L 1331 1722 
L 3047 1722 
L 2188 4044 
z
M 1831 4666 
L 2547 4666 
L 4325 0 
L 3669 0 
L 3244 1197 
L 1141 1197 
L 716 0 
L 50 0 
L 1831 4666 
z
" transform="scale(0.015625)"/>
       <path id="DejaVuSans-28" d="M 1984 4856 
Q 1566 4138 1362 3434 
Q 1159 2731 1159 2009 
Q 1159 1288 1364 580 
Q 1569 -128 1984 -844 
L 1484 -844 
Q 1016 -109 783 600 
Q 550 1309 550 2009 
Q 550 2706 781 3412 
Q 1013 4119 1484 4856 
L 1984 4856 
z
" transform="scale(0.015625)"/>
       <path id="DejaVuSans-44" d="M 1259 4147 
L 1259 519 
L 2022 519 
Q 2988 519 3436 956 
Q 3884 1394 3884 2338 
Q 3884 3275 3436 3711 
Q 2988 4147 2022 4147 
L 1259 4147 
z
M 628 4666 
L 1925 4666 
Q 3281 4666 3915 4102 
Q 4550 3538 4550 2338 
Q 4550 1131 3912 565 
Q 3275 0 1925 0 
L 628 0 
L 628 4666 
z
" transform="scale(0.015625)"/>
       <path id="DejaVuSans-29" d="M 513 4856 
L 1013 4856 
Q 1481 4119 1714 3412 
Q 1947 2706 1947 2009 
Q 1947 1309 1714 600 
Q 1481 -109 1013 -844 
L 513 -844 
Q 928 -128 1133 580 
Q 1338 1288 1338 2009 
Q 1338 2731 1133 3434 
Q 928 4138 513 4856 
z
" transform="scale(0.015625)"/>
      </defs>
      <use xlink:href="#DejaVuSans-41"/>
      <use xlink:href="#DejaVuSans-76" x="62.533203"/>
      <use xlink:href="#DejaVuSans-65" x="121.712891"/>
      <use xlink:href="#DejaVuSans-72" x="183.236328"/>
      <use xlink:href="#DejaVuSans-61" x="224.349609"/>
      <use xlink:href="#DejaVuSans-67" x="285.628906"/>
      <use xlink:href="#DejaVuSans-65" x="349.105469"/>
      <use xlink:href="#DejaVuSans-20" x="410.628906"/>
      <use xlink:href="#DejaVuSans-28" x="442.416016"/>
      <use xlink:href="#DejaVuSans-44" x="481.429688"/>
      <use xlink:href="#DejaVuSans-65" x="558.431641"/>
      <use xlink:href="#DejaVuSans-66" x="619.955078"/>
      <use xlink:href="#DejaVuSans-61" x="655.160156"/>
      <use xlink:href="#DejaVuSans-75" x="716.439453"/>
      <use xlink:href="#DejaVuSans-6c" x="779.818359"/>
      <use xlink:href="#DejaVuSans-74" x="807.601562"/>
      <use xlink:href="#DejaVuSans-29" x="846.810547"/>
     </g>
    </g>
    <g id="line2d_16">
     <path d="M 265.88875 293.004312 
L 275.88875 293.004312 
L 285.88875 293.004312 
" style="fill: none; stroke-dasharray: 2,3.3; stroke-dashoffset: 0; stroke: #ffa500; stroke-width: 2"/>
    </g>
    <g id="text_17">
     <!-- Average (Anticipation) -->
     <g transform="translate(293.88875 296.504312)scale(0.1 -0.1)">
      <defs>
       <path id="DejaVuSans-63" d="M 3122 3366 
L 3122 2828 
Q 2878 2963 2633 3030 
Q 2388 3097 2138 3097 
Q 1578 3097 1268 2742 
Q 959 2388 959 1747 
Q 959 1106 1268 751 
Q 1578 397 2138 397 
Q 2388 397 2633 464 
Q 2878 531 3122 666 
L 3122 134 
Q 2881 22 2623 -34 
Q 2366 -91 2075 -91 
Q 1284 -91 818 406 
Q 353 903 353 1747 
Q 353 2603 823 3093 
Q 1294 3584 2113 3584 
Q 2378 3584 2631 3529 
Q 2884 3475 3122 3366 
z
" transform="scale(0.015625)"/>
       <path id="DejaVuSans-70" d="M 1159 525 
L 1159 -1331 
L 581 -1331 
L 581 3500 
L 1159 3500 
L 1159 2969 
Q 1341 3281 1617 3432 
Q 1894 3584 2278 3584 
Q 2916 3584 3314 3078 
Q 3713 2572 3713 1747 
Q 3713 922 3314 415 
Q 2916 -91 2278 -91 
Q 1894 -91 1617 61 
Q 1341 213 1159 525 
z
M 3116 1747 
Q 3116 2381 2855 2742 
Q 2594 3103 2138 3103 
Q 1681 3103 1420 2742 
Q 1159 2381 1159 1747 
Q 1159 1113 1420 752 
Q 1681 391 2138 391 
Q 2594 391 2855 752 
Q 3116 1113 3116 1747 
z
" transform="scale(0.015625)"/>
      </defs>
      <use xlink:href="#DejaVuSans-41"/>
      <use xlink:href="#DejaVuSans-76" x="62.533203"/>
      <use xlink:href="#DejaVuSans-65" x="121.712891"/>
      <use xlink:href="#DejaVuSans-72" x="183.236328"/>
      <use xlink:href="#DejaVuSans-61" x="224.349609"/>
      <use xlink:href="#DejaVuSans-67" x="285.628906"/>
      <use xlink:href="#DejaVuSans-65" x="349.105469"/>
      <use xlink:href="#DejaVuSans-20" x="410.628906"/>
      <use xlink:href="#DejaVuSans-28" x="442.416016"/>
      <use xlink:href="#DejaVuSans-41" x="481.429688"/>
      <use xlink:href="#DejaVuSans-6e" x="549.837891"/>
      <use xlink:href="#DejaVuSans-74" x="613.216797"/>
      <use xlink:href="#DejaVuSans-69" x="652.425781"/>
      <use xlink:href="#DejaVuSans-63" x="680.208984"/>
      <use xlink:href="#DejaVuSans-69" x="735.189453"/>
      <use xlink:href="#DejaVuSans-70" x="762.972656"/>
      <use xlink:href="#DejaVuSans-61" x="826.449219"/>
      <use xlink:href="#DejaVuSans-74" x="887.728516"/>
      <use xlink:href="#DejaVuSans-69" x="926.9375"/>
      <use xlink:href="#DejaVuSans-6f" x="954.720703"/>
      <use xlink:href="#DejaVuSans-6e" x="1015.902344"/>
      <use xlink:href="#DejaVuSans-29" x="1079.28125"/>
     </g>
    </g>
   </g>
  </g>
 </g>
 <defs>
  <clipPath id="p7917e8c53b">
   <rect x="57.6" y="41.472" width="357.12" height="266.112"/>
  </clipPath>
 </defs>
</svg>
