<?xml version="1.0" encoding="utf-8" standalone="no"?>
<!DOCTYPE svg PUBLIC "-//W3C//DTD SVG 1.1//EN"
  "http://www.w3.org/Graphics/SVG/1.1/DTD/svg11.dtd">
<svg xmlns:xlink="http://www.w3.org/1999/xlink" width="460.8pt" height="345.6pt" viewBox="0 0 460.8 345.6" xmlns="http://www.w3.org/2000/svg" version="1.1">
 <metadata>
  <rdf:RDF xmlns:dc="http://purl.org/dc/elements/1.1/" xmlns:cc="http://creativecommons.org/ns#" xmlns:rdf="http://www.w3.org/1999/02/22-rdf-syntax-ns#">
   <cc:Work>
    <dc:type rdf:resource="http://purl.org/dc/dcmitype/StillImage"/>
    <dc:date>2022-10-03T14:28:37.738076</dc:date>
    <dc:format>image/svg+xml</dc:format>
    <dc:creator>
     <cc:Agent>
      <dc:title>Matplotlib v3.5.3, https://matplotlib.org/</dc:title>
     </cc:Agent>
    </dc:creator>
   </cc:Work>
  </rdf:RDF>
 </metadata>
 <defs>
  <style type="text/css">*{stroke-linejoin: round; stroke-linecap: butt}</style>
 </defs>
 <g id="figure_1">
  <g id="patch_1">
   <path d="M 0 345.6 
L 460.8 345.6 
L 460.8 0 
L 0 0 
z
" style="fill: #ffffff"/>
  </g>
  <g id="axes_1">
   <g id="patch_2">
    <path d="M 57.6 307.584 
L 414.72 307.584 
L 414.72 41.472 
L 57.6 41.472 
z
" style="fill: #ffffff"/>
   </g>
   <g id="matplotlib.axis_1">
    <g id="xtick_1">
     <g id="line2d_1">
      <defs>
       <path id="m534ed362c8" d="M 0 0 
L 0 3.5 
" style="stroke: #000000; stroke-width: 0.8"/>
      </defs>
      <g>
       <use xlink:href="#m534ed362c8" x="73.832727" y="307.584" style="stroke: #000000; stroke-width: 0.8"/>
      </g>
     </g>
     <g id="text_1">
      <!-- 0 -->
      <g transform="translate(70.651477 322.182437)scale(0.1 -0.1)">
       <defs>
        <path id="DejaVuSans-30" d="M 2034 4250 
Q 1547 4250 1301 3770 
Q 1056 3291 1056 2328 
Q 1056 1369 1301 889 
Q 1547 409 2034 409 
Q 2525 409 2770 889 
Q 3016 1369 3016 2328 
Q 3016 3291 2770 3770 
Q 2525 4250 2034 4250 
z
M 2034 4750 
Q 2819 4750 3233 4129 
Q 3647 3509 3647 2328 
Q 3647 1150 3233 529 
Q 2819 -91 2034 -91 
Q 1250 -91 836 529 
Q 422 1150 422 2328 
Q 422 3509 836 4129 
Q 1250 4750 2034 4750 
z
" transform="scale(0.015625)"/>
       </defs>
       <use xlink:href="#DejaVuSans-30"/>
      </g>
     </g>
    </g>
    <g id="xtick_2">
     <g id="line2d_2">
      <g>
       <use xlink:href="#m534ed362c8" x="114.434847" y="307.584" style="stroke: #000000; stroke-width: 0.8"/>
      </g>
     </g>
     <g id="text_2">
      <!-- 250 -->
      <g transform="translate(104.891097 322.182437)scale(0.1 -0.1)">
       <defs>
        <path id="DejaVuSans-32" d="M 1228 531 
L 3431 531 
L 3431 0 
L 469 0 
L 469 531 
Q 828 903 1448 1529 
Q 2069 2156 2228 2338 
Q 2531 2678 2651 2914 
Q 2772 3150 2772 3378 
Q 2772 3750 2511 3984 
Q 2250 4219 1831 4219 
Q 1534 4219 1204 4116 
Q 875 4013 500 3803 
L 500 4441 
Q 881 4594 1212 4672 
Q 1544 4750 1819 4750 
Q 2544 4750 2975 4387 
Q 3406 4025 3406 3419 
Q 3406 3131 3298 2873 
Q 3191 2616 2906 2266 
Q 2828 2175 2409 1742 
Q 1991 1309 1228 531 
z
" transform="scale(0.015625)"/>
        <path id="DejaVuSans-35" d="M 691 4666 
L 3169 4666 
L 3169 4134 
L 1269 4134 
L 1269 2991 
Q 1406 3038 1543 3061 
Q 1681 3084 1819 3084 
Q 2600 3084 3056 2656 
Q 3513 2228 3513 1497 
Q 3513 744 3044 326 
Q 2575 -91 1722 -91 
Q 1428 -91 1123 -41 
Q 819 9 494 109 
L 494 744 
Q 775 591 1075 516 
Q 1375 441 1709 441 
Q 2250 441 2565 725 
Q 2881 1009 2881 1497 
Q 2881 1984 2565 2268 
Q 2250 2553 1709 2553 
Q 1456 2553 1204 2497 
Q 953 2441 691 2322 
L 691 4666 
z
" transform="scale(0.015625)"/>
       </defs>
       <use xlink:href="#DejaVuSans-32"/>
       <use xlink:href="#DejaVuSans-35" x="63.623047"/>
       <use xlink:href="#DejaVuSans-30" x="127.246094"/>
      </g>
     </g>
    </g>
    <g id="xtick_3">
     <g id="line2d_3">
      <g>
       <use xlink:href="#m534ed362c8" x="155.036966" y="307.584" style="stroke: #000000; stroke-width: 0.8"/>
      </g>
     </g>
     <g id="text_3">
      <!-- 500 -->
      <g transform="translate(145.493216 322.182437)scale(0.1 -0.1)">
       <use xlink:href="#DejaVuSans-35"/>
       <use xlink:href="#DejaVuSans-30" x="63.623047"/>
       <use xlink:href="#DejaVuSans-30" x="127.246094"/>
      </g>
     </g>
    </g>
    <g id="xtick_4">
     <g id="line2d_4">
      <g>
       <use xlink:href="#m534ed362c8" x="195.639085" y="307.584" style="stroke: #000000; stroke-width: 0.8"/>
      </g>
     </g>
     <g id="text_4">
      <!-- 750 -->
      <g transform="translate(186.095335 322.182437)scale(0.1 -0.1)">
       <defs>
        <path id="DejaVuSans-37" d="M 525 4666 
L 3525 4666 
L 3525 4397 
L 1831 0 
L 1172 0 
L 2766 4134 
L 525 4134 
L 525 4666 
z
" transform="scale(0.015625)"/>
       </defs>
       <use xlink:href="#DejaVuSans-37"/>
       <use xlink:href="#DejaVuSans-35" x="63.623047"/>
       <use xlink:href="#DejaVuSans-30" x="127.246094"/>
      </g>
     </g>
    </g>
    <g id="xtick_5">
     <g id="line2d_5">
      <g>
       <use xlink:href="#m534ed362c8" x="236.241204" y="307.584" style="stroke: #000000; stroke-width: 0.8"/>
      </g>
     </g>
     <g id="text_5">
      <!-- 1000 -->
      <g transform="translate(223.516204 322.182437)scale(0.1 -0.1)">
       <defs>
        <path id="DejaVuSans-31" d="M 794 531 
L 1825 531 
L 1825 4091 
L 703 3866 
L 703 4441 
L 1819 4666 
L 2450 4666 
L 2450 531 
L 3481 531 
L 3481 0 
L 794 0 
L 794 531 
z
" transform="scale(0.015625)"/>
       </defs>
       <use xlink:href="#DejaVuSans-31"/>
       <use xlink:href="#DejaVuSans-30" x="63.623047"/>
       <use xlink:href="#DejaVuSans-30" x="127.246094"/>
       <use xlink:href="#DejaVuSans-30" x="190.869141"/>
      </g>
     </g>
    </g>
    <g id="xtick_6">
     <g id="line2d_6">
      <g>
       <use xlink:href="#m534ed362c8" x="276.843323" y="307.584" style="stroke: #000000; stroke-width: 0.8"/>
      </g>
     </g>
     <g id="text_6">
      <!-- 1250 -->
      <g transform="translate(264.118323 322.182437)scale(0.1 -0.1)">
       <use xlink:href="#DejaVuSans-31"/>
       <use xlink:href="#DejaVuSans-32" x="63.623047"/>
       <use xlink:href="#DejaVuSans-35" x="127.246094"/>
       <use xlink:href="#DejaVuSans-30" x="190.869141"/>
      </g>
     </g>
    </g>
    <g id="xtick_7">
     <g id="line2d_7">
      <g>
       <use xlink:href="#m534ed362c8" x="317.445443" y="307.584" style="stroke: #000000; stroke-width: 0.8"/>
      </g>
     </g>
     <g id="text_7">
      <!-- 1500 -->
      <g transform="translate(304.720443 322.182437)scale(0.1 -0.1)">
       <use xlink:href="#DejaVuSans-31"/>
       <use xlink:href="#DejaVuSans-35" x="63.623047"/>
       <use xlink:href="#DejaVuSans-30" x="127.246094"/>
       <use xlink:href="#DejaVuSans-30" x="190.869141"/>
      </g>
     </g>
    </g>
    <g id="xtick_8">
     <g id="line2d_8">
      <g>
       <use xlink:href="#m534ed362c8" x="358.047562" y="307.584" style="stroke: #000000; stroke-width: 0.8"/>
      </g>
     </g>
     <g id="text_8">
      <!-- 1750 -->
      <g transform="translate(345.322562 322.182437)scale(0.1 -0.1)">
       <use xlink:href="#DejaVuSans-31"/>
       <use xlink:href="#DejaVuSans-37" x="63.623047"/>
       <use xlink:href="#DejaVuSans-35" x="127.246094"/>
       <use xlink:href="#DejaVuSans-30" x="190.869141"/>
      </g>
     </g>
    </g>
    <g id="xtick_9">
     <g id="line2d_9">
      <g>
       <use xlink:href="#m534ed362c8" x="398.649681" y="307.584" style="stroke: #000000; stroke-width: 0.8"/>
      </g>
     </g>
     <g id="text_9">
      <!-- 2000 -->
      <g transform="translate(385.924681 322.182437)scale(0.1 -0.1)">
       <use xlink:href="#DejaVuSans-32"/>
       <use xlink:href="#DejaVuSans-30" x="63.623047"/>
       <use xlink:href="#DejaVuSans-30" x="127.246094"/>
       <use xlink:href="#DejaVuSans-30" x="190.869141"/>
      </g>
     </g>
    </g>
    <g id="text_10">
     <!-- Number of Orders -->
     <g transform="translate(191.261562 335.860562)scale(0.1 -0.1)">
      <defs>
       <path id="DejaVuSans-4e" d="M 628 4666 
L 1478 4666 
L 3547 763 
L 3547 4666 
L 4159 4666 
L 4159 0 
L 3309 0 
L 1241 3903 
L 1241 0 
L 628 0 
L 628 4666 
z
" transform="scale(0.015625)"/>
       <path id="DejaVuSans-75" d="M 544 1381 
L 544 3500 
L 1119 3500 
L 1119 1403 
Q 1119 906 1312 657 
Q 1506 409 1894 409 
Q 2359 409 2629 706 
Q 2900 1003 2900 1516 
L 2900 3500 
L 3475 3500 
L 3475 0 
L 2900 0 
L 2900 538 
Q 2691 219 2414 64 
Q 2138 -91 1772 -91 
Q 1169 -91 856 284 
Q 544 659 544 1381 
z
M 1991 3584 
L 1991 3584 
z
" transform="scale(0.015625)"/>
       <path id="DejaVuSans-6d" d="M 3328 2828 
Q 3544 3216 3844 3400 
Q 4144 3584 4550 3584 
Q 5097 3584 5394 3201 
Q 5691 2819 5691 2113 
L 5691 0 
L 5113 0 
L 5113 2094 
Q 5113 2597 4934 2840 
Q 4756 3084 4391 3084 
Q 3944 3084 3684 2787 
Q 3425 2491 3425 1978 
L 3425 0 
L 2847 0 
L 2847 2094 
Q 2847 2600 2669 2842 
Q 2491 3084 2119 3084 
Q 1678 3084 1418 2786 
Q 1159 2488 1159 1978 
L 1159 0 
L 581 0 
L 581 3500 
L 1159 3500 
L 1159 2956 
Q 1356 3278 1631 3431 
Q 1906 3584 2284 3584 
Q 2666 3584 2933 3390 
Q 3200 3197 3328 2828 
z
" transform="scale(0.015625)"/>
       <path id="DejaVuSans-62" d="M 3116 1747 
Q 3116 2381 2855 2742 
Q 2594 3103 2138 3103 
Q 1681 3103 1420 2742 
Q 1159 2381 1159 1747 
Q 1159 1113 1420 752 
Q 1681 391 2138 391 
Q 2594 391 2855 752 
Q 3116 1113 3116 1747 
z
M 1159 2969 
Q 1341 3281 1617 3432 
Q 1894 3584 2278 3584 
Q 2916 3584 3314 3078 
Q 3713 2572 3713 1747 
Q 3713 922 3314 415 
Q 2916 -91 2278 -91 
Q 1894 -91 1617 61 
Q 1341 213 1159 525 
L 1159 0 
L 581 0 
L 581 4863 
L 1159 4863 
L 1159 2969 
z
" transform="scale(0.015625)"/>
       <path id="DejaVuSans-65" d="M 3597 1894 
L 3597 1613 
L 953 1613 
Q 991 1019 1311 708 
Q 1631 397 2203 397 
Q 2534 397 2845 478 
Q 3156 559 3463 722 
L 3463 178 
Q 3153 47 2828 -22 
Q 2503 -91 2169 -91 
Q 1331 -91 842 396 
Q 353 884 353 1716 
Q 353 2575 817 3079 
Q 1281 3584 2069 3584 
Q 2775 3584 3186 3129 
Q 3597 2675 3597 1894 
z
M 3022 2063 
Q 3016 2534 2758 2815 
Q 2500 3097 2075 3097 
Q 1594 3097 1305 2825 
Q 1016 2553 972 2059 
L 3022 2063 
z
" transform="scale(0.015625)"/>
       <path id="DejaVuSans-72" d="M 2631 2963 
Q 2534 3019 2420 3045 
Q 2306 3072 2169 3072 
Q 1681 3072 1420 2755 
Q 1159 2438 1159 1844 
L 1159 0 
L 581 0 
L 581 3500 
L 1159 3500 
L 1159 2956 
Q 1341 3275 1631 3429 
Q 1922 3584 2338 3584 
Q 2397 3584 2469 3576 
Q 2541 3569 2628 3553 
L 2631 2963 
z
" transform="scale(0.015625)"/>
       <path id="DejaVuSans-20" transform="scale(0.015625)"/>
       <path id="DejaVuSans-6f" d="M 1959 3097 
Q 1497 3097 1228 2736 
Q 959 2375 959 1747 
Q 959 1119 1226 758 
Q 1494 397 1959 397 
Q 2419 397 2687 759 
Q 2956 1122 2956 1747 
Q 2956 2369 2687 2733 
Q 2419 3097 1959 3097 
z
M 1959 3584 
Q 2709 3584 3137 3096 
Q 3566 2609 3566 1747 
Q 3566 888 3137 398 
Q 2709 -91 1959 -91 
Q 1206 -91 779 398 
Q 353 888 353 1747 
Q 353 2609 779 3096 
Q 1206 3584 1959 3584 
z
" transform="scale(0.015625)"/>
       <path id="DejaVuSans-66" d="M 2375 4863 
L 2375 4384 
L 1825 4384 
Q 1516 4384 1395 4259 
Q 1275 4134 1275 3809 
L 1275 3500 
L 2222 3500 
L 2222 3053 
L 1275 3053 
L 1275 0 
L 697 0 
L 697 3053 
L 147 3053 
L 147 3500 
L 697 3500 
L 697 3744 
Q 697 4328 969 4595 
Q 1241 4863 1831 4863 
L 2375 4863 
z
" transform="scale(0.015625)"/>
       <path id="DejaVuSans-4f" d="M 2522 4238 
Q 1834 4238 1429 3725 
Q 1025 3213 1025 2328 
Q 1025 1447 1429 934 
Q 1834 422 2522 422 
Q 3209 422 3611 934 
Q 4013 1447 4013 2328 
Q 4013 3213 3611 3725 
Q 3209 4238 2522 4238 
z
M 2522 4750 
Q 3503 4750 4090 4092 
Q 4678 3434 4678 2328 
Q 4678 1225 4090 567 
Q 3503 -91 2522 -91 
Q 1538 -91 948 565 
Q 359 1222 359 2328 
Q 359 3434 948 4092 
Q 1538 4750 2522 4750 
z
" transform="scale(0.015625)"/>
       <path id="DejaVuSans-64" d="M 2906 2969 
L 2906 4863 
L 3481 4863 
L 3481 0 
L 2906 0 
L 2906 525 
Q 2725 213 2448 61 
Q 2172 -91 1784 -91 
Q 1150 -91 751 415 
Q 353 922 353 1747 
Q 353 2572 751 3078 
Q 1150 3584 1784 3584 
Q 2172 3584 2448 3432 
Q 2725 3281 2906 2969 
z
M 947 1747 
Q 947 1113 1208 752 
Q 1469 391 1925 391 
Q 2381 391 2643 752 
Q 2906 1113 2906 1747 
Q 2906 2381 2643 2742 
Q 2381 3103 1925 3103 
Q 1469 3103 1208 2742 
Q 947 2381 947 1747 
z
" transform="scale(0.015625)"/>
       <path id="DejaVuSans-73" d="M 2834 3397 
L 2834 2853 
Q 2591 2978 2328 3040 
Q 2066 3103 1784 3103 
Q 1356 3103 1142 2972 
Q 928 2841 928 2578 
Q 928 2378 1081 2264 
Q 1234 2150 1697 2047 
L 1894 2003 
Q 2506 1872 2764 1633 
Q 3022 1394 3022 966 
Q 3022 478 2636 193 
Q 2250 -91 1575 -91 
Q 1294 -91 989 -36 
Q 684 19 347 128 
L 347 722 
Q 666 556 975 473 
Q 1284 391 1588 391 
Q 1994 391 2212 530 
Q 2431 669 2431 922 
Q 2431 1156 2273 1281 
Q 2116 1406 1581 1522 
L 1381 1569 
Q 847 1681 609 1914 
Q 372 2147 372 2553 
Q 372 3047 722 3315 
Q 1072 3584 1716 3584 
Q 2034 3584 2315 3537 
Q 2597 3491 2834 3397 
z
" transform="scale(0.015625)"/>
      </defs>
      <use xlink:href="#DejaVuSans-4e"/>
      <use xlink:href="#DejaVuSans-75" x="74.804688"/>
      <use xlink:href="#DejaVuSans-6d" x="138.183594"/>
      <use xlink:href="#DejaVuSans-62" x="235.595703"/>
      <use xlink:href="#DejaVuSans-65" x="299.072266"/>
      <use xlink:href="#DejaVuSans-72" x="360.595703"/>
      <use xlink:href="#DejaVuSans-20" x="401.708984"/>
      <use xlink:href="#DejaVuSans-6f" x="433.496094"/>
      <use xlink:href="#DejaVuSans-66" x="494.677734"/>
      <use xlink:href="#DejaVuSans-20" x="529.882812"/>
      <use xlink:href="#DejaVuSans-4f" x="561.669922"/>
      <use xlink:href="#DejaVuSans-72" x="640.380859"/>
      <use xlink:href="#DejaVuSans-64" x="679.744141"/>
      <use xlink:href="#DejaVuSans-65" x="743.220703"/>
      <use xlink:href="#DejaVuSans-72" x="804.744141"/>
      <use xlink:href="#DejaVuSans-73" x="845.857422"/>
     </g>
    </g>
   </g>
   <g id="matplotlib.axis_2">
    <g id="ytick_1">
     <g id="line2d_10">
      <defs>
       <path id="mb125f2eea2" d="M 0 0 
L -3.5 0 
" style="stroke: #000000; stroke-width: 0.8"/>
      </defs>
      <g>
       <use xlink:href="#mb125f2eea2" x="57.6" y="305.209442" style="stroke: #000000; stroke-width: 0.8"/>
      </g>
     </g>
     <g id="text_11">
      <!-- 750 -->
      <g transform="translate(31.5125 309.00866)scale(0.1 -0.1)">
       <use xlink:href="#DejaVuSans-37"/>
       <use xlink:href="#DejaVuSans-35" x="63.623047"/>
       <use xlink:href="#DejaVuSans-30" x="127.246094"/>
      </g>
     </g>
    </g>
    <g id="ytick_2">
     <g id="line2d_11">
      <g>
       <use xlink:href="#mb125f2eea2" x="57.6" y="259.308285" style="stroke: #000000; stroke-width: 0.8"/>
      </g>
     </g>
     <g id="text_12">
      <!-- 800 -->
      <g transform="translate(31.5125 263.107504)scale(0.1 -0.1)">
       <defs>
        <path id="DejaVuSans-38" d="M 2034 2216 
Q 1584 2216 1326 1975 
Q 1069 1734 1069 1313 
Q 1069 891 1326 650 
Q 1584 409 2034 409 
Q 2484 409 2743 651 
Q 3003 894 3003 1313 
Q 3003 1734 2745 1975 
Q 2488 2216 2034 2216 
z
M 1403 2484 
Q 997 2584 770 2862 
Q 544 3141 544 3541 
Q 544 4100 942 4425 
Q 1341 4750 2034 4750 
Q 2731 4750 3128 4425 
Q 3525 4100 3525 3541 
Q 3525 3141 3298 2862 
Q 3072 2584 2669 2484 
Q 3125 2378 3379 2068 
Q 3634 1759 3634 1313 
Q 3634 634 3220 271 
Q 2806 -91 2034 -91 
Q 1263 -91 848 271 
Q 434 634 434 1313 
Q 434 1759 690 2068 
Q 947 2378 1403 2484 
z
M 1172 3481 
Q 1172 3119 1398 2916 
Q 1625 2713 2034 2713 
Q 2441 2713 2670 2916 
Q 2900 3119 2900 3481 
Q 2900 3844 2670 4047 
Q 2441 4250 2034 4250 
Q 1625 4250 1398 4047 
Q 1172 3844 1172 3481 
z
" transform="scale(0.015625)"/>
       </defs>
       <use xlink:href="#DejaVuSans-38"/>
       <use xlink:href="#DejaVuSans-30" x="63.623047"/>
       <use xlink:href="#DejaVuSans-30" x="127.246094"/>
      </g>
     </g>
    </g>
    <g id="ytick_3">
     <g id="line2d_12">
      <g>
       <use xlink:href="#mb125f2eea2" x="57.6" y="213.407128" style="stroke: #000000; stroke-width: 0.8"/>
      </g>
     </g>
     <g id="text_13">
      <!-- 850 -->
      <g transform="translate(31.5125 217.206347)scale(0.1 -0.1)">
       <use xlink:href="#DejaVuSans-38"/>
       <use xlink:href="#DejaVuSans-35" x="63.623047"/>
       <use xlink:href="#DejaVuSans-30" x="127.246094"/>
      </g>
     </g>
    </g>
    <g id="ytick_4">
     <g id="line2d_13">
      <g>
       <use xlink:href="#mb125f2eea2" x="57.6" y="167.505972" style="stroke: #000000; stroke-width: 0.8"/>
      </g>
     </g>
     <g id="text_14">
      <!-- 900 -->
      <g transform="translate(31.5125 171.30519)scale(0.1 -0.1)">
       <defs>
        <path id="DejaVuSans-39" d="M 703 97 
L 703 672 
Q 941 559 1184 500 
Q 1428 441 1663 441 
Q 2288 441 2617 861 
Q 2947 1281 2994 2138 
Q 2813 1869 2534 1725 
Q 2256 1581 1919 1581 
Q 1219 1581 811 2004 
Q 403 2428 403 3163 
Q 403 3881 828 4315 
Q 1253 4750 1959 4750 
Q 2769 4750 3195 4129 
Q 3622 3509 3622 2328 
Q 3622 1225 3098 567 
Q 2575 -91 1691 -91 
Q 1453 -91 1209 -44 
Q 966 3 703 97 
z
M 1959 2075 
Q 2384 2075 2632 2365 
Q 2881 2656 2881 3163 
Q 2881 3666 2632 3958 
Q 2384 4250 1959 4250 
Q 1534 4250 1286 3958 
Q 1038 3666 1038 3163 
Q 1038 2656 1286 2365 
Q 1534 2075 1959 2075 
z
" transform="scale(0.015625)"/>
       </defs>
       <use xlink:href="#DejaVuSans-39"/>
       <use xlink:href="#DejaVuSans-30" x="63.623047"/>
       <use xlink:href="#DejaVuSans-30" x="127.246094"/>
      </g>
     </g>
    </g>
    <g id="ytick_5">
     <g id="line2d_14">
      <g>
       <use xlink:href="#mb125f2eea2" x="57.6" y="121.604815" style="stroke: #000000; stroke-width: 0.8"/>
      </g>
     </g>
     <g id="text_15">
      <!-- 950 -->
      <g transform="translate(31.5125 125.404034)scale(0.1 -0.1)">
       <use xlink:href="#DejaVuSans-39"/>
       <use xlink:href="#DejaVuSans-35" x="63.623047"/>
       <use xlink:href="#DejaVuSans-30" x="127.246094"/>
      </g>
     </g>
    </g>
    <g id="ytick_6">
     <g id="line2d_15">
      <g>
       <use xlink:href="#mb125f2eea2" x="57.6" y="75.703658" style="stroke: #000000; stroke-width: 0.8"/>
      </g>
     </g>
     <g id="text_16">
      <!-- 1000 -->
      <g transform="translate(25.15 79.502877)scale(0.1 -0.1)">
       <use xlink:href="#DejaVuSans-31"/>
       <use xlink:href="#DejaVuSans-30" x="63.623047"/>
       <use xlink:href="#DejaVuSans-30" x="127.246094"/>
       <use xlink:href="#DejaVuSans-30" x="190.869141"/>
      </g>
     </g>
    </g>
    <g id="text_17">
     <!-- Waiting Time/s -->
     <g transform="translate(19.070312 211.410031)rotate(-90)scale(0.1 -0.1)">
      <defs>
       <path id="DejaVuSans-57" d="M 213 4666 
L 850 4666 
L 1831 722 
L 2809 4666 
L 3519 4666 
L 4500 722 
L 5478 4666 
L 6119 4666 
L 4947 0 
L 4153 0 
L 3169 4050 
L 2175 0 
L 1381 0 
L 213 4666 
z
" transform="scale(0.015625)"/>
       <path id="DejaVuSans-61" d="M 2194 1759 
Q 1497 1759 1228 1600 
Q 959 1441 959 1056 
Q 959 750 1161 570 
Q 1363 391 1709 391 
Q 2188 391 2477 730 
Q 2766 1069 2766 1631 
L 2766 1759 
L 2194 1759 
z
M 3341 1997 
L 3341 0 
L 2766 0 
L 2766 531 
Q 2569 213 2275 61 
Q 1981 -91 1556 -91 
Q 1019 -91 701 211 
Q 384 513 384 1019 
Q 384 1609 779 1909 
Q 1175 2209 1959 2209 
L 2766 2209 
L 2766 2266 
Q 2766 2663 2505 2880 
Q 2244 3097 1772 3097 
Q 1472 3097 1187 3025 
Q 903 2953 641 2809 
L 641 3341 
Q 956 3463 1253 3523 
Q 1550 3584 1831 3584 
Q 2591 3584 2966 3190 
Q 3341 2797 3341 1997 
z
" transform="scale(0.015625)"/>
       <path id="DejaVuSans-69" d="M 603 3500 
L 1178 3500 
L 1178 0 
L 603 0 
L 603 3500 
z
M 603 4863 
L 1178 4863 
L 1178 4134 
L 603 4134 
L 603 4863 
z
" transform="scale(0.015625)"/>
       <path id="DejaVuSans-74" d="M 1172 4494 
L 1172 3500 
L 2356 3500 
L 2356 3053 
L 1172 3053 
L 1172 1153 
Q 1172 725 1289 603 
Q 1406 481 1766 481 
L 2356 481 
L 2356 0 
L 1766 0 
Q 1100 0 847 248 
Q 594 497 594 1153 
L 594 3053 
L 172 3053 
L 172 3500 
L 594 3500 
L 594 4494 
L 1172 4494 
z
" transform="scale(0.015625)"/>
       <path id="DejaVuSans-6e" d="M 3513 2113 
L 3513 0 
L 2938 0 
L 2938 2094 
Q 2938 2591 2744 2837 
Q 2550 3084 2163 3084 
Q 1697 3084 1428 2787 
Q 1159 2491 1159 1978 
L 1159 0 
L 581 0 
L 581 3500 
L 1159 3500 
L 1159 2956 
Q 1366 3272 1645 3428 
Q 1925 3584 2291 3584 
Q 2894 3584 3203 3211 
Q 3513 2838 3513 2113 
z
" transform="scale(0.015625)"/>
       <path id="DejaVuSans-67" d="M 2906 1791 
Q 2906 2416 2648 2759 
Q 2391 3103 1925 3103 
Q 1463 3103 1205 2759 
Q 947 2416 947 1791 
Q 947 1169 1205 825 
Q 1463 481 1925 481 
Q 2391 481 2648 825 
Q 2906 1169 2906 1791 
z
M 3481 434 
Q 3481 -459 3084 -895 
Q 2688 -1331 1869 -1331 
Q 1566 -1331 1297 -1286 
Q 1028 -1241 775 -1147 
L 775 -588 
Q 1028 -725 1275 -790 
Q 1522 -856 1778 -856 
Q 2344 -856 2625 -561 
Q 2906 -266 2906 331 
L 2906 616 
Q 2728 306 2450 153 
Q 2172 0 1784 0 
Q 1141 0 747 490 
Q 353 981 353 1791 
Q 353 2603 747 3093 
Q 1141 3584 1784 3584 
Q 2172 3584 2450 3431 
Q 2728 3278 2906 2969 
L 2906 3500 
L 3481 3500 
L 3481 434 
z
" transform="scale(0.015625)"/>
       <path id="DejaVuSans-54" d="M -19 4666 
L 3928 4666 
L 3928 4134 
L 2272 4134 
L 2272 0 
L 1638 0 
L 1638 4134 
L -19 4134 
L -19 4666 
z
" transform="scale(0.015625)"/>
       <path id="DejaVuSans-2f" d="M 1625 4666 
L 2156 4666 
L 531 -594 
L 0 -594 
L 1625 4666 
z
" transform="scale(0.015625)"/>
      </defs>
      <use xlink:href="#DejaVuSans-57"/>
      <use xlink:href="#DejaVuSans-61" x="92.501953"/>
      <use xlink:href="#DejaVuSans-69" x="153.78125"/>
      <use xlink:href="#DejaVuSans-74" x="181.564453"/>
      <use xlink:href="#DejaVuSans-69" x="220.773438"/>
      <use xlink:href="#DejaVuSans-6e" x="248.556641"/>
      <use xlink:href="#DejaVuSans-67" x="311.935547"/>
      <use xlink:href="#DejaVuSans-20" x="375.412109"/>
      <use xlink:href="#DejaVuSans-54" x="407.199219"/>
      <use xlink:href="#DejaVuSans-69" x="465.158203"/>
      <use xlink:href="#DejaVuSans-6d" x="492.941406"/>
      <use xlink:href="#DejaVuSans-65" x="590.353516"/>
      <use xlink:href="#DejaVuSans-2f" x="651.876953"/>
      <use xlink:href="#DejaVuSans-73" x="685.568359"/>
     </g>
    </g>
   </g>
   <g id="line2d_16">
    <path d="M 73.832727 295.488 
L 74.157544 147.563261 
L 74.319953 154.347416 
L 74.482361 129.679447 
L 74.64477 159.234478 
L 74.807178 160.269836 
L 75.456812 83.649417 
L 75.619221 91.014519 
L 75.944037 77.959017 
L 76.268854 109.215113 
L 76.431263 106.396679 
L 76.593671 97.74293 
L 76.918488 77.438814 
L 77.080897 74.314393 
L 77.243305 73.471524 
L 77.405714 64.319358 
L 77.730531 67.837117 
L 77.892939 66.098089 
L 78.055348 60.952972 
L 78.380165 72.529713 
L 78.542573 70.733189 
L 78.704982 73.800001 
L 78.86739 72.316226 
L 79.029799 73.768289 
L 79.192207 80.944636 
L 79.354615 64.735046 
L 79.517024 67.194238 
L 79.679432 71.558393 
L 80.004249 64.786715 
L 80.166658 72.538728 
L 80.329066 65.548067 
L 80.491475 63.343426 
L 80.653883 66.918232 
L 80.9787 59.211415 
L 81.141109 59.587566 
L 81.465926 70.057151 
L 81.953151 53.802455 
L 82.440377 65.401458 
L 82.602785 65.063805 
L 82.765194 65.451825 
L 82.927602 65.246415 
L 83.09001 66.329234 
L 83.252419 70.188215 
L 83.414827 67.941626 
L 83.577236 70.897578 
L 83.739644 64.654411 
L 83.902053 69.10446 
L 84.064461 61.006778 
L 84.22687 64.529423 
L 84.389278 63.163048 
L 84.551687 63.669043 
L 84.714095 57.768509 
L 84.876504 59.351058 
L 85.038912 59.5589 
L 85.201321 59.378274 
L 85.363729 63.586271 
L 85.526138 62.918768 
L 85.688546 59.825108 
L 85.850955 59.530688 
L 86.013363 60.093557 
L 86.33818 62.504289 
L 86.825405 54.996146 
L 86.987814 55.335769 
L 87.150222 53.568 
L 87.312631 54.042815 
L 87.637448 60.992773 
L 87.799856 60.032696 
L 88.124673 59.540657 
L 88.287082 58.801649 
L 88.44949 59.545957 
L 88.611899 59.413741 
L 88.774307 58.825464 
L 88.936716 58.695111 
L 89.099124 61.613106 
L 89.261533 61.534307 
L 89.423941 61.642097 
L 89.748758 65.036849 
L 89.911166 64.89421 
L 90.235983 63.460603 
L 90.398392 65.395425 
L 90.5608 65.186341 
L 90.885617 68.512411 
L 91.372843 64.104472 
L 91.535251 63.83975 
L 91.69766 65.633461 
L 92.022477 61.793571 
L 92.184885 61.897118 
L 92.347294 61.616302 
L 92.509702 63.440343 
L 92.672111 62.839056 
L 92.834519 61.779775 
L 92.996928 63.740727 
L 93.159336 61.853707 
L 93.321745 63.193723 
L 93.484153 61.523534 
L 93.80897 63.77095 
L 93.971378 63.465588 
L 94.133787 64.426945 
L 94.458604 59.850095 
L 94.621012 60.209601 
L 94.783421 58.770938 
L 94.945829 59.501567 
L 95.108238 57.89435 
L 95.433055 60.001217 
L 95.595463 59.452961 
L 95.757872 60.310825 
L 95.92028 59.431833 
L 96.082689 60.192645 
L 96.407506 62.74312 
L 96.569914 62.78989 
L 96.732323 61.577997 
L 96.894731 63.051244 
L 97.057139 62.359333 
L 97.219548 63.121347 
L 97.381956 65.38774 
L 97.869182 63.337589 
L 98.03159 63.581691 
L 98.193999 65.457074 
L 98.356407 64.911078 
L 98.681224 67.418826 
L 98.843633 65.761404 
L 99.006041 66.116096 
L 99.16845 65.656338 
L 99.330858 66.514279 
L 99.493267 64.999819 
L 99.655675 64.808904 
L 100.305309 68.729193 
L 100.467717 68.788726 
L 100.792534 66.508377 
L 101.117351 67.94799 
L 101.27976 67.935159 
L 101.442168 67.10979 
L 101.766985 69.93974 
L 101.929394 70.481555 
L 102.254211 67.975995 
L 102.416619 68.440356 
L 102.579028 68.06323 
L 102.741436 68.888829 
L 102.903845 68.928768 
L 103.066253 68.362577 
L 103.228662 68.948976 
L 103.39107 68.44849 
L 103.553479 68.383661 
L 103.878296 69.863322 
L 104.040704 71.517524 
L 104.203112 70.970834 
L 104.365521 71.074126 
L 104.690338 70.265671 
L 104.852746 69.094683 
L 105.015155 68.803072 
L 105.177563 68.837468 
L 105.339972 68.059378 
L 105.50238 68.388618 
L 105.664789 69.202875 
L 105.827197 70.668033 
L 105.989606 70.717943 
L 106.152014 70.352112 
L 106.476831 72.761938 
L 106.801648 70.802723 
L 107.126465 73.255582 
L 107.288874 72.895651 
L 107.451282 74.260355 
L 107.61369 73.829434 
L 107.938507 71.181591 
L 108.100916 70.888105 
L 108.425733 71.538998 
L 108.588141 72.46281 
L 108.912958 75.107851 
L 109.075367 73.921362 
L 109.237775 74.479565 
L 109.400184 75.447363 
L 109.562592 75.571779 
L 109.725001 75.294816 
L 110.212226 73.133226 
L 110.374635 73.543004 
L 110.537043 71.576821 
L 111.024268 73.05149 
L 111.186677 73.310286 
L 111.349085 74.273286 
L 111.511494 74.206453 
L 111.836311 72.206517 
L 111.998719 72.162833 
L 112.161128 71.011408 
L 112.323536 70.679989 
L 112.485945 71.046186 
L 112.648353 71.11882 
L 112.810762 69.862241 
L 113.135579 71.162278 
L 113.297987 71.092654 
L 113.460396 70.790147 
L 113.622804 71.136228 
L 114.11003 73.569487 
L 114.272438 72.569762 
L 114.434847 70.7765 
L 114.597255 70.259051 
L 114.922072 72.998342 
L 115.08448 72.784237 
L 115.409297 71.381533 
L 115.571706 71.395769 
L 115.734114 71.065287 
L 115.896523 70.389431 
L 116.058931 70.366593 
L 116.22134 69.294915 
L 116.383748 69.61164 
L 116.546157 69.040485 
L 116.708565 69.632543 
L 116.870974 69.277906 
L 117.195791 70.310482 
L 117.358199 70.530416 
L 117.683016 68.465583 
L 117.845425 68.149983 
L 118.007833 69.347936 
L 118.170241 69.660098 
L 118.33265 68.960937 
L 118.819875 70.714106 
L 118.982284 70.287529 
L 119.631918 70.896731 
L 119.794326 70.598639 
L 119.956735 69.98984 
L 120.119143 68.937397 
L 120.281552 69.188748 
L 120.606369 67.965733 
L 120.768777 68.104841 
L 120.931186 67.787825 
L 121.093594 68.092841 
L 121.256003 67.705774 
L 121.418411 68.326068 
L 121.58082 68.473241 
L 121.905636 69.492772 
L 122.068045 69.081746 
L 122.230453 69.62546 
L 122.392862 69.38695 
L 122.55527 70.438578 
L 122.880087 69.137824 
L 123.042496 69.012089 
L 123.204904 68.570294 
L 123.529721 69.636583 
L 123.69213 69.425723 
L 123.854538 68.357998 
L 124.016947 68.27737 
L 124.179355 68.396869 
L 124.504172 69.437306 
L 124.666581 68.853234 
L 124.828989 68.683969 
L 124.991398 69.066672 
L 125.153806 68.974628 
L 125.478623 69.317882 
L 125.641031 68.661617 
L 125.80344 69.29577 
L 125.965848 68.960754 
L 126.128257 69.399336 
L 126.290665 68.939632 
L 126.453074 69.007976 
L 126.777891 70.711024 
L 126.940299 70.517623 
L 127.102708 70.909995 
L 127.265116 70.888362 
L 127.589933 70.324744 
L 127.91475 70.724404 
L 128.077159 70.507051 
L 128.239567 69.635966 
L 128.401976 69.853474 
L 128.564384 70.550096 
L 128.726792 70.443096 
L 128.889201 70.787135 
L 129.051609 70.131535 
L 129.214018 70.01653 
L 129.538835 68.741104 
L 129.701243 68.98604 
L 129.863652 68.204183 
L 130.02606 68.883911 
L 130.188469 68.683647 
L 130.350877 68.832908 
L 130.513286 68.363848 
L 130.838103 66.934043 
L 131.000511 66.691743 
L 131.16292 65.856969 
L 131.325328 66.37956 
L 131.650145 68.033832 
L 131.974962 67.75351 
L 132.299779 69.126426 
L 132.624596 67.98661 
L 132.787004 68.316634 
L 132.949413 68.387271 
L 133.111821 68.60649 
L 133.27423 67.876028 
L 133.436638 68.291042 
L 133.599047 68.116009 
L 133.923864 68.58662 
L 134.248681 67.41256 
L 134.735906 68.36495 
L 135.060723 67.596416 
L 135.223132 68.189189 
L 135.38554 68.33354 
L 135.547949 68.09033 
L 135.872765 68.26779 
L 136.197582 67.165211 
L 136.359991 67.736848 
L 136.522399 67.401385 
L 136.684808 67.663713 
L 137.009625 67.657046 
L 137.172033 66.817722 
L 137.334442 67.070323 
L 137.49685 67.558783 
L 137.821667 66.725172 
L 137.984076 66.908523 
L 138.146484 66.904311 
L 138.308893 66.492008 
L 138.63371 67.979295 
L 139.120935 66.463877 
L 139.283343 66.70331 
L 139.445752 66.458794 
L 139.770569 67.439913 
L 139.932977 67.01122 
L 140.095386 67.567852 
L 140.257794 67.571558 
L 140.582611 67.93651 
L 141.232245 69.744172 
L 141.557062 69.443001 
L 142.044288 71.036946 
L 142.206696 70.471447 
L 142.531513 71.248979 
L 142.85633 70.278699 
L 143.018738 69.940639 
L 143.181147 70.473083 
L 143.505964 70.276379 
L 143.668372 69.828455 
L 144.155598 72.229885 
L 144.318006 72.330463 
L 144.480415 72.261908 
L 144.642823 71.887524 
L 144.805232 71.951199 
L 144.96764 71.784353 
L 145.130049 71.923579 
L 145.454866 71.467151 
L 145.779683 70.528613 
L 146.1045 71.059936 
L 146.266908 70.225577 
L 146.429316 70.696108 
L 146.591725 69.972937 
L 146.754133 69.784441 
L 147.241359 71.327463 
L 147.403767 70.843607 
L 147.566176 70.809775 
L 147.728584 70.463148 
L 147.890993 70.995216 
L 148.053401 71.077925 
L 148.21581 71.568064 
L 148.378218 71.544166 
L 148.540627 70.849161 
L 148.865444 71.266091 
L 149.027852 71.449066 
L 149.190261 70.953073 
L 149.352669 71.60067 
L 149.515078 71.50646 
L 149.677486 71.647688 
L 149.839894 71.174554 
L 150.002303 71.34506 
L 150.164711 71.726853 
L 150.32712 71.735221 
L 150.976754 71.222966 
L 151.626388 71.993 
L 151.951205 71.275844 
L 152.113613 71.320456 
L 152.43843 71.988907 
L 152.600839 71.564186 
L 152.763247 72.131373 
L 152.925656 71.613411 
L 153.250473 71.916844 
L 153.412881 72.273628 
L 153.575289 71.893927 
L 153.737698 72.129396 
L 153.900106 71.791983 
L 154.224923 72.087435 
L 154.387332 72.074255 
L 154.54974 72.36388 
L 154.712149 71.760013 
L 154.874557 71.777293 
L 155.361783 70.561326 
L 155.524191 70.784966 
L 155.849008 71.564604 
L 156.011417 71.437898 
L 156.173825 71.982593 
L 156.336234 71.913808 
L 156.498642 72.100483 
L 156.661051 71.646675 
L 157.148276 71.281053 
L 157.310684 71.375923 
L 157.473093 70.956697 
L 157.79791 71.470828 
L 158.122727 70.728587 
L 158.609952 70.726695 
L 159.097178 71.483709 
L 159.259586 70.79319 
L 159.421995 70.996242 
L 159.584403 71.402338 
L 159.746812 71.481866 
L 159.90922 71.877649 
L 160.071629 71.962465 
L 160.234037 71.441852 
L 160.396445 71.650443 
L 160.721262 71.266925 
L 160.883671 71.369072 
L 161.046079 71.706034 
L 161.208488 71.695082 
L 161.370896 72.124136 
L 161.533305 71.864865 
L 161.858122 72.844502 
L 162.02053 72.944249 
L 162.182939 72.903647 
L 162.670164 73.712972 
L 163.15739 72.875721 
L 163.319798 72.993981 
L 163.482207 72.523584 
L 163.644615 72.653934 
L 163.807024 72.334722 
L 164.13184 73.244858 
L 164.456657 73.316245 
L 164.619066 73.443907 
L 164.781474 72.679134 
L 164.943883 73.161479 
L 165.2687 73.089919 
L 165.431108 72.835952 
L 165.593517 72.348741 
L 165.755925 72.861916 
L 165.918334 72.835315 
L 166.080742 72.924222 
L 166.243151 72.457288 
L 166.567968 72.843107 
L 166.730376 73.063349 
L 166.892785 72.848521 
L 167.867235 73.764785 
L 168.192052 74.538247 
L 168.354461 74.035823 
L 168.516869 73.923303 
L 168.841686 74.184845 
L 169.004095 74.171918 
L 169.166503 73.953381 
L 169.328912 74.123498 
L 169.49132 73.422313 
L 169.978546 73.972438 
L 170.140954 74.280241 
L 170.303363 74.272081 
L 170.465771 74.103072 
L 170.790588 73.373696 
L 170.952996 73.543036 
L 171.440222 74.32615 
L 171.60263 74.296855 
L 171.927447 73.904058 
L 172.089856 74.044625 
L 172.252264 73.91734 
L 172.414673 73.574444 
L 172.577081 73.869161 
L 172.73949 73.732767 
L 172.901898 73.974485 
L 173.064307 74.569779 
L 173.551532 73.681591 
L 173.713941 74.147049 
L 174.201166 74.439162 
L 174.363575 74.767056 
L 174.525983 74.703428 
L 174.688391 74.942613 
L 174.8508 74.34068 
L 175.013208 74.45863 
L 175.338025 74.046723 
L 175.500434 74.12099 
L 175.662842 74.399174 
L 175.825251 73.941168 
L 176.150068 74.22301 
L 176.474885 74.686699 
L 176.799702 74.692806 
L 176.96211 74.559867 
L 177.124519 74.881023 
L 177.286927 74.383232 
L 177.449336 74.265558 
L 177.611744 73.63009 
L 178.098969 74.119424 
L 178.261378 73.941453 
L 178.423786 74.098342 
L 178.586195 73.560383 
L 178.748603 73.927849 
L 178.911012 73.987175 
L 179.235829 74.360111 
L 179.398237 74.409579 
L 179.560646 74.242069 
L 179.723054 74.66319 
L 179.885463 74.694149 
L 180.372688 75.861049 
L 180.697505 74.953616 
L 181.184731 75.835536 
L 181.347139 75.952303 
L 181.671956 75.264023 
L 181.834364 74.864709 
L 181.996773 75.154476 
L 182.159181 75.20642 
L 182.32159 74.840773 
L 182.483998 75.041984 
L 182.808815 74.498181 
L 182.971224 74.925067 
L 183.133632 74.309122 
L 183.296041 74.343326 
L 183.458449 74.49281 
L 183.620858 74.032023 
L 183.783266 73.927988 
L 183.945675 74.065486 
L 184.270492 74.51117 
L 184.4329 74.167603 
L 184.595309 74.093731 
L 184.757717 73.804032 
L 184.920126 73.920261 
L 185.082534 74.20326 
L 185.569759 73.978888 
L 185.894576 73.579628 
L 186.056985 73.657339 
L 186.54421 73.252944 
L 186.869027 73.690522 
L 187.031436 73.658173 
L 187.193844 73.476772 
L 187.356253 73.733783 
L 187.68107 73.416248 
L 187.843478 73.50583 
L 188.168295 72.718335 
L 188.330704 72.91733 
L 188.493112 72.849478 
L 188.65552 72.561369 
L 189.142746 73.190233 
L 189.305154 73.474415 
L 189.629971 73.316632 
L 189.79238 73.780015 
L 189.954788 73.744721 
L 190.279605 73.21786 
L 190.604422 73.740315 
L 190.766831 73.351726 
L 190.929239 73.567081 
L 191.091648 73.579452 
L 191.254056 73.869276 
L 191.416465 73.771584 
L 191.578873 73.972255 
L 191.741282 73.853161 
L 191.90369 73.897475 
L 192.066099 73.469896 
L 192.228507 73.508505 
L 192.390915 73.848574 
L 192.553324 73.571453 
L 192.715732 73.622457 
L 192.878141 73.91813 
L 193.040549 73.869886 
L 193.202958 73.603118 
L 193.527775 73.619385 
L 193.690183 73.463372 
L 193.852592 73.113077 
L 194.177409 73.589984 
L 194.339817 73.066562 
L 194.502226 73.143249 
L 194.664634 73.581365 
L 195.314268 73.09002 
L 195.476677 73.22293 
L 196.288719 72.722714 
L 196.451127 72.918471 
L 196.613536 72.629366 
L 196.775944 72.998993 
L 197.26317 72.353845 
L 197.425578 72.411584 
L 197.750395 72.015685 
L 198.075212 72.237679 
L 198.400029 72.413866 
L 198.724846 71.620052 
L 199.049663 71.844415 
L 199.212071 71.958496 
L 199.37448 72.259288 
L 199.699297 72.299875 
L 199.861705 72.505463 
L 200.024114 72.290599 
L 200.186522 71.77001 
L 200.348931 71.737146 
L 200.511339 71.478945 
L 200.673748 71.749351 
L 200.998565 71.383099 
L 201.323382 71.430966 
L 201.648199 71.242801 
L 202.297833 72.131626 
L 202.460241 72.474949 
L 202.947466 72.100002 
L 203.109875 71.677361 
L 203.434692 72.248421 
L 203.5971 72.565539 
L 203.759509 72.596799 
L 203.921917 72.28364 
L 204.084326 72.319573 
L 204.246734 72.583521 
L 204.571551 72.320234 
L 204.896368 72.393901 
L 205.221185 73.00081 
L 205.708411 72.390095 
L 205.870819 72.558434 
L 206.195636 73.072893 
L 206.520453 72.779748 
L 206.682861 72.961091 
L 206.84527 72.61146 
L 207.007678 72.625874 
L 207.170087 72.844293 
L 207.332495 72.539322 
L 207.494904 72.856965 
L 207.657312 72.80221 
L 207.819721 72.520567 
L 207.982129 72.851394 
L 208.144538 72.495599 
L 208.306946 72.574332 
L 208.469355 72.245829 
L 208.631763 72.283502 
L 208.794172 72.598559 
L 208.95658 72.623827 
L 209.118989 72.836506 
L 209.281397 72.638753 
L 209.443806 72.697493 
L 209.606214 73.022405 
L 209.768622 72.918803 
L 209.931031 72.556757 
L 210.580665 73.356512 
L 210.743073 73.379197 
L 210.905482 73.24909 
L 211.06789 73.302265 
L 211.230299 73.015832 
L 211.555116 73.239999 
L 211.717524 73.073427 
L 211.879933 73.083311 
L 212.042341 73.236154 
L 212.20475 73.138527 
L 212.529567 72.755465 
L 212.691975 72.944644 
L 212.854384 72.656371 
L 213.179201 72.965681 
L 213.341609 72.94319 
L 213.666426 73.404412 
L 213.828834 73.427907 
L 213.991243 73.635667 
L 214.153651 73.593861 
L 214.803285 74.18108 
L 214.965694 73.836966 
L 215.128102 74.105782 
L 215.615328 73.544206 
L 215.940145 73.58498 
L 216.102553 73.344741 
L 216.42737 73.46173 
L 216.914595 72.80793 
L 217.077004 72.779217 
L 217.239412 72.920302 
L 217.401821 72.80414 
L 217.726638 72.998634 
L 217.889046 72.503839 
L 218.051455 72.851398 
L 218.213863 72.674897 
L 218.53868 72.775023 
L 219.025906 72.036909 
L 219.188314 72.226189 
L 219.513131 71.993467 
L 219.837948 72.024219 
L 220.162765 72.195294 
L 220.325173 72.291951 
L 220.64999 72.092922 
L 221.137216 72.496867 
L 221.299624 72.434253 
L 221.78685 72.950694 
L 221.949258 73.128331 
L 222.111667 72.708899 
L 222.274075 72.60082 
L 222.598892 72.129398 
L 222.761301 72.091413 
L 223.248526 72.477805 
L 223.573343 72.199965 
L 223.735752 72.123051 
L 224.222977 72.578748 
L 224.547794 72.612028 
L 224.872611 72.703738 
L 225.359836 73.422756 
L 225.684653 73.946443 
L 226.334287 74.709903 
L 226.821513 74.635381 
L 226.983921 74.709776 
L 227.14633 74.611449 
L 227.633555 75.243794 
L 227.795963 75.403895 
L 227.958372 75.037105 
L 228.445597 74.827943 
L 228.608006 75.076954 
L 228.770414 74.71706 
L 229.095231 75.111122 
L 229.582457 74.407166 
L 230.232091 74.47553 
L 231.044133 73.739548 
L 231.206541 74.046112 
L 231.531358 74.094167 
L 232.343401 74.534899 
L 232.668218 74.464264 
L 232.830626 74.263944 
L 233.155443 74.29227 
L 233.317852 74.485268 
L 233.967486 73.848477 
L 234.292303 74.36296 
L 234.454711 74.032972 
L 234.617119 74.286486 
L 234.941936 73.843636 
L 235.753979 74.203346 
L 236.078796 73.978364 
L 236.241204 73.714183 
L 236.890838 74.07181 
L 237.053247 74.171965 
L 237.215655 74.094592 
L 237.540472 74.406334 
L 237.865289 74.70395 
L 238.027697 74.607844 
L 238.190106 74.6475 
L 238.352514 74.806002 
L 238.514923 74.791305 
L 238.83974 75.128974 
L 239.002148 75.146151 
L 239.164557 74.863384 
L 239.326965 74.910869 
L 239.489374 74.611112 
L 239.651782 74.561038 
L 239.976599 74.903682 
L 240.139008 74.557936 
L 240.301416 74.556215 
L 240.626233 74.179471 
L 240.788642 74.237513 
L 240.95105 74.003267 
L 241.438276 74.120621 
L 241.600684 74.385899 
L 241.763092 74.377665 
L 241.925501 74.516364 
L 242.087909 74.506406 
L 242.250318 74.793504 
L 242.412726 74.796926 
L 242.899952 74.469081 
L 243.224769 74.767431 
L 243.387177 74.785851 
L 243.549586 74.96983 
L 243.711994 74.890309 
L 244.036811 75.141663 
L 244.19922 74.849779 
L 244.361628 74.948842 
L 244.524037 75.19697 
L 244.686445 75.060325 
L 244.848854 75.14181 
L 245.17367 75.429583 
L 245.498487 75.282024 
L 245.660896 75.322667 
L 245.985713 74.696953 
L 246.148121 74.695611 
L 246.31053 74.557688 
L 246.635347 74.785756 
L 246.797755 74.846225 
L 246.960164 75.052923 
L 247.284981 74.719764 
L 247.447389 74.879044 
L 248.42184 74.774489 
L 248.746657 75.236935 
L 249.071474 75.401716 
L 249.233882 75.194594 
L 249.396291 75.253569 
L 249.558699 75.086481 
L 249.721108 75.203474 
L 250.370742 75.149403 
L 250.857967 75.614033 
L 251.020376 75.57753 
L 251.507601 75.75023 
L 251.67001 75.612136 
L 252.157235 75.787881 
L 252.319643 75.575272 
L 252.482052 75.619126 
L 252.806869 75.913096 
L 252.969277 76.055482 
L 253.131686 75.89937 
L 253.294094 76.11822 
L 253.78132 75.636334 
L 253.943728 75.71933 
L 254.106137 75.98901 
L 254.430954 75.905645 
L 254.593362 75.725619 
L 254.755771 75.769771 
L 255.080588 76.185898 
L 255.405405 76.223557 
L 255.567813 75.954506 
L 255.730221 76.129083 
L 256.055038 76.048978 
L 256.379855 76.295313 
L 256.542264 76.15207 
L 256.867081 76.289114 
L 257.029489 76.451544 
L 257.191898 76.352531 
L 257.516715 76.455438 
L 257.841532 76.211912 
L 258.166349 76.552437 
L 258.491166 76.66423 
L 258.815983 76.725033 
L 259.303208 77.07675 
L 259.465616 76.953426 
L 259.952842 77.1184 
L 260.11525 77.207452 
L 260.277659 76.87829 
L 260.440067 76.896016 
L 260.927293 77.208963 
L 261.089701 77.047014 
L 261.414518 77.080278 
L 261.739335 77.352574 
L 262.388969 76.870702 
L 262.876194 76.82893 
L 263.201011 76.344999 
L 263.525828 76.236299 
L 263.688237 76.108422 
L 264.175462 76.271301 
L 264.500279 76.341636 
L 264.825096 76.551 
L 264.987505 76.683845 
L 265.312322 76.443434 
L 265.637139 76.251953 
L 265.799547 76.459973 
L 266.124364 76.058294 
L 266.773998 76.768314 
L 267.098815 76.747966 
L 267.261223 76.615987 
L 267.423632 76.779005 
L 267.58604 76.774554 
L 267.748449 76.567687 
L 267.910857 76.698723 
L 268.7229 76.192166 
L 269.047717 76.271506 
L 269.372534 76.229254 
L 269.859759 76.55309 
L 270.022167 76.474991 
L 270.184576 76.155659 
L 270.509393 76.258002 
L 270.996618 75.767384 
L 271.321435 75.557032 
L 271.483844 75.716167 
L 271.646252 75.510914 
L 272.295886 75.512678 
L 272.458295 75.692273 
L 272.620703 75.511947 
L 272.783112 75.543482 
L 272.94552 75.39372 
L 273.270337 75.434334 
L 273.432745 75.202573 
L 273.757562 75.425302 
L 273.919971 75.61599 
L 274.082379 75.531891 
L 274.244788 75.71839 
L 274.407196 75.395519 
L 274.569605 75.369241 
L 274.732013 75.063629 
L 275.219239 74.995445 
L 275.544056 75.289255 
L 275.706464 75.380343 
L 275.868873 75.188926 
L 276.356098 75.18807 
L 276.680915 75.563639 
L 277.330549 75.30058 
L 277.492957 75.558321 
L 277.655366 75.601398 
L 277.817774 75.450129 
L 277.980183 75.460124 
L 278.142591 75.306557 
L 278.629817 75.85537 
L 279.117042 76.04836 
L 279.604268 75.935445 
L 279.929085 75.727642 
L 280.253901 75.995364 
L 280.578718 75.814751 
L 280.903535 76.111795 
L 281.065944 76.075036 
L 281.228352 75.752519 
L 281.877986 76.043738 
L 282.040395 75.877031 
L 282.202803 76.051275 
L 282.365212 76.041126 
L 282.52762 75.849465 
L 282.690029 75.899706 
L 283.014846 76.236753 
L 283.177254 76.071334 
L 283.339663 76.170699 
L 283.66448 75.918513 
L 283.826888 76.081313 
L 284.151705 75.922141 
L 284.314113 76.107069 
L 284.801339 75.857816 
L 284.963747 76.090051 
L 285.450973 76.080699 
L 285.613381 76.044345 
L 285.938198 76.21018 
L 286.425424 75.858883 
L 286.587832 76.025394 
L 286.750241 75.990697 
L 287.075058 76.315581 
L 287.237466 76.255296 
L 287.399874 76.326141 
L 287.562283 76.576744 
L 288.049508 76.365944 
L 288.211917 76.179377 
L 288.374325 76.193031 
L 288.536734 76.41058 
L 289.023959 76.297442 
L 289.511185 76.694565 
L 289.99841 76.591396 
L 290.323227 76.61246 
L 290.485636 76.357119 
L 290.648044 76.57638 
L 291.297678 76.217326 
L 291.784903 76.63837 
L 292.10972 76.518991 
L 292.272129 76.189725 
L 292.434537 76.153209 
L 292.596946 76.388052 
L 292.921763 76.026147 
L 293.571397 75.797991 
L 293.896214 76.161196 
L 294.221031 76.279464 
L 294.383439 75.875714 
L 294.708256 75.644518 
L 295.033073 76.016944 
L 295.35789 75.744046 
L 295.682707 75.628341 
L 296.169932 75.848567 
L 296.332341 75.576321 
L 296.494749 75.643449 
L 296.819566 75.372013 
L 296.981975 75.565103 
L 297.306792 75.492517 
L 297.631609 75.344066 
L 298.118834 75.219072 
L 298.281242 75.149775 
L 298.606059 75.429877 
L 298.768468 75.356883 
L 299.093285 75.756158 
L 299.418102 75.635177 
L 299.58051 75.809839 
L 299.742919 75.805663 
L 299.905327 75.53309 
L 300.392553 75.796157 
L 300.71737 75.573905 
L 300.879778 75.68875 
L 301.042187 75.565779 
L 301.204595 75.707458 
L 301.367004 75.480633 
L 301.529412 75.660391 
L 302.016637 75.414985 
L 302.82868 75.428054 
L 303.153497 75.728202 
L 304.127948 75.779724 
L 304.615173 75.393817 
L 305.589624 76.058403 
L 306.401666 75.724177 
L 306.564075 75.888983 
L 306.726483 75.713518 
L 307.213709 75.733873 
L 308.18816 75.869927 
L 308.512976 76.093015 
L 308.675385 76.326063 
L 309.325019 76.015739 
L 309.649836 76.092192 
L 309.812244 75.880883 
L 310.137061 75.979956 
L 310.29947 75.595363 
L 310.461878 75.816104 
L 310.624287 75.49838 
L 310.786695 75.567867 
L 311.111512 75.411045 
L 311.273921 75.162848 
L 311.598738 75.183204 
L 311.761146 75.052097 
L 312.085963 75.133464 
L 312.41078 74.90066 
L 312.573188 75.003898 
L 313.222822 74.352354 
L 313.385231 74.399073 
L 313.547639 74.243511 
L 313.710048 74.461294 
L 313.872456 74.387912 
L 314.359682 74.504922 
L 314.684499 74.444472 
L 315.009316 74.458014 
L 315.334133 74.279341 
L 315.821358 74.500666 
L 316.146175 74.249349 
L 316.470992 74.669724 
L 317.283034 74.878588 
L 317.445443 74.681748 
L 317.607851 74.88044 
L 317.932668 74.800517 
L 318.419894 75.068219 
L 319.069527 75.444651 
L 319.556753 75.474775 
L 320.693612 76.013488 
L 320.856021 75.813749 
L 321.343246 76.113929 
L 321.505655 75.970539 
L 321.99288 76.452421 
L 322.155289 76.539233 
L 322.317697 76.752602 
L 322.480106 76.537951 
L 322.642514 76.531016 
L 323.129739 76.192244 
L 323.292148 76.182687 
L 323.454556 76.39273 
L 323.616965 76.392964 
L 323.941782 76.69109 
L 324.429007 76.292829 
L 324.753824 76.276459 
L 325.078641 75.981725 
L 325.565867 75.961286 
L 325.728275 75.783833 
L 326.540317 76.47528 
L 326.702726 76.456606 
L 326.865134 76.624848 
L 327.027543 76.380927 
L 327.514768 76.324976 
L 327.677177 76.405396 
L 327.839585 76.260045 
L 328.164402 76.284084 
L 328.326811 76.012558 
L 328.814036 75.968841 
L 329.788487 76.259062 
L 329.950895 76.264589 
L 330.438121 75.869638 
L 330.762938 75.875755 
L 330.925346 76.049993 
L 332.549431 76.080275 
L 332.874248 76.109483 
L 333.199065 76.046281 
L 334.011107 76.560269 
L 335.310375 76.713313 
L 335.635192 76.596489 
L 335.797601 76.68736 
L 335.960009 76.472472 
L 336.93446 76.552527 
L 337.259277 76.673145 
L 337.584094 76.835978 
L 337.908911 76.57812 
L 338.233728 76.869938 
L 338.720953 76.669161 
L 338.883362 76.697064 
L 339.04577 76.522222 
L 339.208179 76.637103 
L 339.695404 76.324773 
L 339.857813 76.414689 
L 340.182629 76.202122 
L 340.507446 76.070096 
L 340.669855 76.095444 
L 340.832263 76.262835 
L 340.994672 76.163352 
L 341.319489 76.309567 
L 341.481897 76.285856 
L 341.969123 75.810109 
L 342.29394 75.804913 
L 342.781165 75.960826 
L 343.268391 75.773334 
L 343.755616 75.618131 
L 344.242841 75.526465 
L 344.40525 75.672502 
L 344.567658 75.561411 
L 345.542109 76.112512 
L 345.866926 76.160401 
L 346.354152 76.096665 
L 346.841377 76.009318 
L 347.003786 75.972398 
L 347.328602 76.157637 
L 347.653419 76.031379 
L 347.978236 76.175897 
L 348.303053 75.890136 
L 348.62787 75.850419 
L 348.952687 76.008924 
L 349.115096 75.967069 
L 349.439913 75.615959 
L 349.602321 75.539224 
L 349.76473 75.332551 
L 350.576772 75.263688 
L 350.901589 74.889932 
L 351.713631 75.101305 
L 352.038448 75.356491 
L 352.363265 75.432025 
L 352.850491 75.386032 
L 353.012899 75.495534 
L 353.175308 75.376898 
L 353.337716 75.458539 
L 353.500125 75.286831 
L 353.824942 75.424391 
L 353.98735 75.37337 
L 354.149759 75.464366 
L 354.474575 75.261775 
L 354.636984 75.367522 
L 354.799392 75.216706 
L 354.961801 75.262703 
L 355.124209 75.180996 
L 355.286618 75.348584 
L 355.611435 75.277174 
L 356.261069 75.426272 
L 356.585886 75.645389 
L 356.748294 75.503054 
L 357.073111 75.69675 
L 357.397928 75.5453 
L 358.534787 75.791578 
L 358.859604 75.728823 
L 359.34683 75.774538 
L 359.509238 75.697146 
L 360.158872 75.877909 
L 360.483689 75.885524 
L 360.646098 76.059307 
L 361.133323 75.891571 
L 361.45814 76.089927 
L 361.945365 76.061623 
L 362.107774 75.957788 
L 362.594999 76.147664 
L 363.082225 76.392808 
L 363.56945 76.487627 
L 363.731859 76.571651 
L 363.894267 76.436976 
L 364.056676 76.479589 
L 364.219084 76.258597 
L 365.031126 76.400078 
L 365.355943 76.557072 
L 365.68076 76.432798 
L 365.843169 76.352461 
L 366.005577 76.521347 
L 366.492803 76.519722 
L 367.142437 76.622863 
L 367.304845 76.805171 
L 367.467254 76.649652 
L 367.629662 76.68385 
L 368.116888 76.394326 
L 370.065789 77.168295 
L 370.390606 76.912914 
L 370.715423 77.221415 
L 371.04024 77.085635 
L 371.365057 77.259427 
L 372.177099 77.035028 
L 373.15155 77.177732 
L 373.313959 77.044892 
L 373.476367 77.201825 
L 373.801184 77.116352 
L 374.126001 77.411416 
L 374.28841 77.443054 
L 374.450818 77.588562 
L 374.613227 77.516906 
L 374.775635 77.634659 
L 374.938044 77.487971 
L 375.262861 77.463117 
L 376.074903 77.208838 
L 376.39972 77.412223 
L 376.886945 77.415109 
L 377.211762 77.31914 
L 377.698988 77.552609 
L 378.835847 77.974934 
L 378.998255 77.932163 
L 379.160664 78.04845 
L 379.485481 77.844656 
L 379.647889 77.85036 
L 380.135115 78.069214 
L 380.297523 77.987024 
L 380.459932 78.089828 
L 380.62234 77.996307 
L 380.947157 78.187496 
L 381.109566 78.143746 
L 381.434383 78.431499 
L 382.084017 78.276327 
L 382.246425 78.094672 
L 382.73365 78.362059 
L 382.896059 78.265008 
L 383.708101 78.575031 
L 384.032918 78.537637 
L 384.357735 78.317065 
L 385.169778 78.20744 
L 385.332186 78.323183 
L 385.494595 78.299707 
L 385.657003 78.129558 
L 385.819412 78.148286 
L 386.144228 78.290951 
L 386.306637 78.266463 
L 386.631454 78.380825 
L 386.793862 78.325971 
L 386.956271 78.471886 
L 387.281088 78.383597 
L 387.443496 78.506973 
L 387.605905 78.467884 
L 387.930722 78.604754 
L 388.417947 78.531374 
L 388.580356 78.64857 
L 389.22999 78.494675 
L 389.554806 78.448933 
L 389.717215 78.382754 
L 389.879623 78.492448 
L 390.366849 78.398789 
L 390.691666 78.436116 
L 390.854074 78.345814 
L 391.3413 78.491977 
L 391.503708 78.499956 
L 391.828525 78.289392 
L 391.990934 78.391349 
L 392.153342 78.306675 
L 392.478159 78.426933 
L 392.802976 78.451764 
L 393.45261 78.623352 
L 393.615018 78.786135 
L 393.777427 78.753924 
L 394.914286 79.428833 
L 395.076695 79.264917 
L 395.401512 79.377287 
L 395.726329 79.281549 
L 395.888737 79.302107 
L 396.538371 78.85794 
L 396.863188 78.848727 
L 397.025596 78.812101 
L 397.512822 78.432074 
L 398.324864 78.095734 
L 398.487273 77.88157 
L 398.487273 77.88157 
" clip-path="url(#p46dd540b43)" style="fill: none; stroke-dasharray: 2,3.3; stroke-dashoffset: 0; stroke: #0000ff; stroke-width: 2"/>
   </g>
   <g id="line2d_17">
    <path d="M 73.832727 295.488 
L 74.157544 147.563261 
L 74.319953 154.347416 
L 74.482361 129.679447 
L 74.64477 159.234478 
L 74.807178 160.269836 
L 75.456812 83.649417 
L 75.619221 91.014519 
L 75.944037 77.959017 
L 76.268854 109.215113 
L 76.431263 106.396679 
L 76.593671 97.74293 
L 76.75608 82.403946 
L 77.243305 73.471524 
L 77.405714 83.060114 
L 77.568122 85.397701 
L 77.730531 80.624994 
L 77.892939 85.3121 
L 78.055348 77.077271 
L 78.217756 78.275741 
L 78.380165 73.06554 
L 78.542573 79.134745 
L 78.704982 77.183108 
L 78.86739 79.952522 
L 79.029799 78.32727 
L 79.192207 79.55983 
L 79.354615 86.365665 
L 79.517024 70.455758 
L 79.679432 72.693872 
L 79.841841 76.798453 
L 80.166658 69.934064 
L 80.329066 77.371459 
L 80.491475 70.432177 
L 80.653883 69.81203 
L 80.816292 66.363355 
L 80.9787 69.712171 
L 81.141109 66.388462 
L 81.303517 66.603907 
L 81.465926 66.186582 
L 81.628334 69.430072 
L 81.790743 75.973424 
L 81.953151 68.461215 
L 82.11556 67.492681 
L 82.440377 73.88982 
L 82.765194 63.942285 
L 82.927602 61.2572 
L 83.252419 68.842886 
L 83.414827 68.476014 
L 83.577236 68.776291 
L 83.739644 68.533826 
L 83.902053 69.478526 
L 84.064461 67.365764 
L 84.22687 70.790578 
L 84.389278 65.427129 
L 84.714095 72.227245 
L 84.876504 66.288194 
L 85.038912 64.417591 
L 85.201321 65.861912 
L 85.363729 65.973552 
L 85.526138 65.710003 
L 85.688546 67.901658 
L 85.850955 67.059022 
L 86.175772 74.385524 
L 86.33818 73.622358 
L 86.500588 70.58901 
L 86.662997 70.178443 
L 86.825405 70.575113 
L 87.150222 72.588052 
L 87.312631 70.401282 
L 87.475039 70.71497 
L 87.637448 66.772682 
L 87.799856 66.957423 
L 87.962265 65.212456 
L 88.124673 69.025397 
L 88.287082 66.599005 
L 88.44949 66.425091 
L 88.611899 68.977187 
L 88.936716 67.650758 
L 89.261533 64.271395 
L 89.423941 64.026019 
L 89.58635 63.020275 
L 89.748758 63.661824 
L 89.911166 62.842601 
L 90.073575 64.512201 
L 90.235983 62.939557 
L 90.398392 62.752287 
L 90.723209 66.715692 
L 90.885617 66.416346 
L 91.210434 63.180748 
L 91.372843 65.013417 
L 91.69766 61.115512 
L 91.860068 61.226961 
L 92.022477 58.50204 
L 92.184885 59.608133 
L 92.347294 57.997066 
L 92.509702 57.752293 
L 92.672111 59.593769 
L 92.834519 58.561991 
L 93.159336 61.332761 
L 93.321745 60.768275 
L 93.484153 62.106204 
L 93.646561 61.809411 
L 93.80897 60.177324 
L 94.133787 62.410435 
L 94.458604 60.232362 
L 94.621012 60.588905 
L 94.783421 59.147324 
L 95.108238 61.267129 
L 95.270646 60.70111 
L 95.595463 63.675071 
L 95.757872 63.604287 
L 95.92028 60.661232 
L 96.082689 60.904734 
L 96.245097 61.633882 
L 96.407506 63.504144 
L 96.569914 63.545517 
L 96.732323 62.328302 
L 97.219548 66.699247 
L 97.381956 66.440614 
L 97.706773 65.150679 
L 97.869182 65.746857 
L 98.03159 63.659234 
L 98.193999 63.636617 
L 98.356407 63.875539 
L 98.518816 63.343449 
L 98.843633 65.855245 
L 99.006041 66.299044 
L 99.16845 67.281668 
L 99.330858 66.817443 
L 99.655675 68.377385 
L 99.818084 66.870167 
L 99.980492 68.798123 
L 100.142901 68.587419 
L 100.305309 69.175707 
L 100.630126 71.453863 
L 100.792534 71.496368 
L 101.27976 69.190702 
L 102.416619 75.551198 
L 102.903845 70.97395 
L 103.066253 71.411486 
L 103.228662 71.026324 
L 103.39107 71.053928 
L 103.553479 70.485419 
L 103.715887 71.050833 
L 103.878296 70.54712 
L 104.040704 70.472109 
L 104.203112 69.93098 
L 104.365521 70.039774 
L 104.527929 69.728995 
L 104.690338 70.116125 
L 104.852746 69.629799 
L 105.015155 68.468173 
L 105.177563 68.181295 
L 105.339972 68.218702 
L 105.50238 67.447739 
L 105.664789 68.909358 
L 105.827197 69.23098 
L 105.989606 70.03282 
L 106.314423 68.626856 
L 106.476831 70.065853 
L 106.63924 70.117745 
L 106.801648 69.76203 
L 106.964057 70.749056 
L 107.126465 70.958212 
L 107.451282 69.054017 
L 107.776099 71.466488 
L 107.938507 71.121859 
L 108.100916 72.46918 
L 108.263324 71.649054 
L 108.425733 71.956285 
L 108.588141 72.878156 
L 108.912958 75.519369 
L 109.075367 74.330992 
L 109.237775 74.887325 
L 109.400184 74.813751 
L 109.562592 73.67721 
L 109.725001 74.7428 
L 109.887409 74.108944 
L 110.049818 74.051289 
L 110.537043 72.340044 
L 110.699452 70.387761 
L 111.349085 72.057044 
L 111.511494 71.063238 
L 111.836311 72.4264 
L 111.998719 71.755605 
L 112.161128 71.714008 
L 112.323536 71.379636 
L 112.485945 71.742905 
L 112.648353 71.812637 
L 112.810762 71.188001 
L 112.97317 72.081419 
L 113.297987 69.642666 
L 113.460396 69.95186 
L 113.622804 69.887723 
L 113.785213 69.592543 
L 113.947621 67.862027 
L 114.11003 68.215697 
L 114.597255 70.535928 
L 114.759663 69.773927 
L 114.922072 70.492243 
L 115.571706 68.237012 
L 115.734114 67.569466 
L 115.896523 67.557387 
L 116.058931 67.794609 
L 116.383748 69.584152 
L 116.546157 69.013101 
L 116.708565 69.605262 
L 116.870974 69.250728 
L 117.033382 69.272465 
L 117.195791 70.106399 
L 117.358199 70.170637 
L 117.520608 70.540895 
L 117.683016 70.564834 
L 118.007833 72.586256 
L 118.33265 70.536506 
L 118.495058 71.712791 
L 118.657467 72.013035 
L 118.819875 71.312956 
L 118.982284 71.64442 
L 119.144692 71.216044 
L 119.307101 71.453264 
L 119.469509 70.848414 
L 119.794326 71.05385 
L 119.956735 70.756252 
L 120.119143 70.149031 
L 120.281552 70.39616 
L 120.606369 69.164789 
L 120.768777 69.380862 
L 120.931186 68.986708 
L 121.256003 69.675387 
L 121.418411 70.297527 
L 121.58082 70.41666 
L 121.743228 69.999735 
L 122.068045 71.677501 
L 122.230453 71.431331 
L 122.392862 72.47965 
L 122.717679 71.179728 
L 122.880087 71.046839 
L 123.204904 71.684348 
L 123.367313 71.465417 
L 123.529721 70.384093 
L 123.69213 70.296363 
L 123.854538 70.951497 
L 124.179355 70.178733 
L 124.341764 70.08165 
L 124.504172 70.259075 
L 124.666581 70.902278 
L 124.828989 70.884458 
L 124.991398 70.538053 
L 125.153806 70.979961 
L 125.316214 70.506612 
L 125.478623 70.57133 
L 125.641031 71.246392 
L 125.80344 70.172394 
L 125.965848 70.543652 
L 126.128257 70.347776 
L 126.290665 70.746727 
L 126.615482 70.173604 
L 126.777891 69.540038 
L 126.940299 69.789322 
L 127.102708 69.49472 
L 127.265116 69.656344 
L 127.427525 70.514347 
L 127.752342 70.012052 
L 127.91475 69.429281 
L 128.239567 69.999204 
L 128.401976 70.697461 
L 128.564384 70.589708 
L 128.726792 71.221626 
L 128.889201 70.56282 
L 129.051609 70.446212 
L 129.376426 69.164563 
L 129.538835 69.40898 
L 129.701243 68.623631 
L 129.863652 69.304111 
L 130.02606 69.102058 
L 130.188469 69.530861 
L 130.350877 69.524491 
L 130.513286 68.950589 
L 130.675694 69.09824 
L 130.838103 68.631091 
L 131.16292 67.207854 
L 131.325328 66.966147 
L 131.487737 67.484155 
L 131.812554 69.127634 
L 131.974962 68.934138 
L 132.137371 69.383311 
L 132.299779 69.290199 
L 132.462187 70.142845 
L 132.787004 69.000576 
L 132.949413 69.326918 
L 133.111821 69.331416 
L 133.27423 69.547466 
L 133.436638 69.17985 
L 133.599047 68.451792 
L 133.761455 68.863007 
L 134.086272 67.860539 
L 134.248681 67.995592 
L 134.411089 67.823689 
L 134.573498 68.112367 
L 134.735906 68.708498 
L 135.060723 69.017929 
L 135.223132 68.771629 
L 135.710357 69.118706 
L 136.197582 68.006358 
L 136.847216 69.605895 
L 137.172033 69.589311 
L 137.334442 68.747199 
L 137.49685 68.994248 
L 137.659259 69.567038 
L 137.984076 68.725389 
L 138.146484 68.90324 
L 138.308893 68.641129 
L 138.471301 69.234127 
L 138.63371 69.224132 
L 138.796118 68.809129 
L 138.958527 69.687333 
L 139.120935 69.896953 
L 139.283343 70.481494 
L 139.60816 69.589983 
L 139.770569 69.588747 
L 139.932977 68.811046 
L 140.095386 69.041813 
L 140.420203 68.365715 
L 140.582611 68.891427 
L 140.74502 68.636668 
L 141.069837 69.420765 
L 141.232245 68.841142 
L 141.394654 69.107638 
L 141.557062 69.77707 
L 141.719471 69.0227 
L 142.044288 68.690858 
L 142.531513 70.332049 
L 142.693922 69.7722 
L 142.85633 70.136932 
L 143.018738 69.950093 
L 143.181147 70.360182 
L 143.505964 69.403063 
L 143.668372 69.933048 
L 143.993189 69.740201 
L 144.155598 69.296609 
L 144.642823 71.685205 
L 144.805232 71.786337 
L 144.96764 71.71949 
L 145.130049 71.348892 
L 145.292457 71.413355 
L 145.454866 71.248858 
L 145.617274 71.38835 
L 145.942091 70.937405 
L 146.1045 71.276925 
L 146.266908 70.44208 
L 146.429316 70.912128 
L 146.591725 70.895576 
L 146.754133 70.173569 
L 146.916542 69.985047 
L 147.07895 70.071089 
L 147.403767 71.144798 
L 147.566176 71.290856 
L 147.890993 72.332839 
L 148.053401 71.851014 
L 148.21581 71.815282 
L 148.378218 71.469484 
L 148.540627 71.956647 
L 148.703035 71.932011 
L 148.865444 71.239171 
L 149.190261 71.652631 
L 149.352669 71.83399 
L 149.515078 71.339298 
L 149.677486 71.577524 
L 149.839894 72.11495 
L 150.002303 72.020247 
L 150.164711 72.141974 
L 150.32712 71.6708 
L 150.489528 71.839175 
L 150.651937 72.400454 
L 150.976754 72.134383 
L 151.139162 72.534976 
L 151.301571 72.176613 
L 151.626388 72.659987 
L 152.276022 73.411782 
L 152.43843 73.068778 
L 152.600839 73.258242 
L 152.763247 72.884532 
L 153.250473 73.795185 
L 153.412881 73.59241 
L 153.575289 74.14971 
L 153.737698 73.632908 
L 153.900106 73.886068 
L 154.062515 73.899228 
L 154.387332 74.189189 
L 154.54974 73.810217 
L 154.874557 74.32056 
L 155.036966 74.000486 
L 155.361783 74.08501 
L 155.524191 73.483719 
L 156.011417 74.122475 
L 156.498642 72.79333 
L 156.661051 72.665211 
L 156.823459 73.203254 
L 156.985867 73.132626 
L 157.148276 73.573535 
L 157.310684 73.120392 
L 157.473093 73.228033 
L 157.79791 72.967044 
L 157.960318 73.057934 
L 158.122727 72.638698 
L 158.285135 73.030208 
L 158.447544 73.014283 
L 158.609952 73.221325 
L 158.772361 72.601607 
L 158.934769 72.694953 
L 159.259586 72.507989 
L 159.421995 72.582623 
L 159.746812 71.403905 
L 160.071629 71.644545 
L 160.234037 71.729639 
L 160.396445 71.210437 
L 160.558854 71.518801 
L 160.721262 71.336974 
L 161.046079 71.428515 
L 161.208488 71.169573 
L 161.533305 72.116416 
L 161.858122 71.79628 
L 162.02053 72.260763 
L 162.182939 72.361399 
L 162.345347 72.195581 
L 162.507756 72.59713 
L 162.670164 72.557384 
L 162.832573 72.851203 
L 162.994981 72.60275 
L 163.15739 73.076011 
L 163.482207 73.323282 
L 163.807024 72.662833 
L 163.969432 73.201327 
L 164.13184 73.18947 
L 164.456657 74.093292 
L 164.781474 74.28148 
L 164.943883 73.516579 
L 165.106291 73.996579 
L 165.431108 73.92219 
L 165.755925 73.248871 
L 165.918334 73.337207 
L 166.080742 73.71064 
L 166.405559 73.098679 
L 166.892785 73.754483 
L 167.055193 73.972374 
L 167.217602 73.756713 
L 167.542418 73.816944 
L 168.029644 74.425645 
L 168.192052 74.312069 
L 168.354461 74.411035 
L 168.679278 75.178321 
L 168.841686 74.677376 
L 169.004095 74.875664 
L 169.166503 74.394158 
L 169.49132 74.623652 
L 169.653729 74.264183 
L 170.140954 74.773358 
L 170.303363 74.764369 
L 170.465771 74.594533 
L 170.790588 73.863514 
L 170.952996 74.032037 
L 171.115405 73.973242 
L 171.440222 74.502045 
L 171.765039 74.889824 
L 171.927447 74.859695 
L 172.089856 74.645207 
L 172.414673 75.390757 
L 172.577081 75.52819 
L 172.901898 76.195983 
L 173.064307 76.066223 
L 173.226715 76.521083 
L 173.389124 76.57947 
L 173.551532 76.81613 
L 173.713941 77.402945 
L 173.876349 77.059401 
L 174.038758 77.019149 
L 174.363575 77.356044 
L 174.525983 77.638977 
L 175.013208 76.748844 
L 175.175617 77.202692 
L 175.662842 77.476022 
L 175.825251 77.794396 
L 175.987659 77.726871 
L 176.150068 77.957854 
L 176.312476 77.481244 
L 176.474885 77.680132 
L 176.799702 77.263917 
L 176.96211 77.332074 
L 177.286927 77.711537 
L 177.611744 77.946482 
L 177.774153 77.918302 
L 177.936561 77.369823 
L 178.098969 77.683613 
L 178.423786 77.743406 
L 178.586195 78.060981 
L 178.748603 77.5652 
L 179.07342 77.887317 
L 179.235829 77.705193 
L 179.398237 77.854854 
L 179.560646 78.212915 
L 179.723054 77.445896 
L 179.885463 77.274256 
L 180.047871 76.787171 
L 180.21028 77.202486 
L 180.372688 77.229438 
L 180.535097 76.502936 
L 180.697505 76.778782 
L 180.859914 76.482819 
L 181.509548 77.659831 
L 181.996773 76.715617 
L 182.159181 77.00218 
L 182.646407 75.741069 
L 182.808815 75.940341 
L 182.971224 75.56422 
L 183.133632 75.615093 
L 183.296041 75.446534 
L 183.458449 75.594387 
L 183.620858 75.48789 
L 183.783266 75.62329 
L 184.108083 76.065047 
L 184.595309 75.383817 
L 184.757717 75.270985 
L 184.920126 74.97999 
L 185.082534 75.094335 
L 185.244942 75.375214 
L 185.407351 75.311872 
L 185.732168 74.90817 
L 185.894576 74.984071 
L 186.219393 74.543335 
L 186.381802 74.488314 
L 186.706619 74.922971 
L 187.031436 74.750209 
L 187.193844 74.94829 
L 187.68107 74.502064 
L 188.168295 75.096076 
L 188.330704 74.864481 
L 188.493112 74.951508 
L 188.65552 74.476049 
L 188.817929 74.40619 
L 189.142746 74.043025 
L 189.629971 74.647262 
L 189.79238 74.928213 
L 190.279605 74.496004 
L 190.442014 74.955168 
L 190.604422 74.663713 
L 190.766831 74.832148 
L 190.929239 74.442586 
L 191.091648 74.656134 
L 191.254056 74.406803 
L 191.416465 74.417981 
L 191.578873 74.705852 
L 191.741282 74.585749 
L 192.066099 74.70297 
L 192.228507 75.041869 
L 192.390915 74.762736 
L 192.553324 74.812182 
L 193.040549 75.253172 
L 193.202958 74.984525 
L 193.527775 74.997048 
L 193.852592 74.743506 
L 194.015 74.391956 
L 194.339817 74.864779 
L 194.502226 74.75471 
L 194.664634 74.23113 
L 194.989451 74.336451 
L 195.15186 74.771214 
L 195.314268 74.773963 
L 195.476677 74.639904 
L 195.801493 74.847257 
L 196.288719 73.957508 
L 196.451127 74.197549 
L 196.613536 74.220129 
L 197.100761 73.497778 
L 197.26317 73.864806 
L 197.587987 73.516314 
L 197.750395 73.57238 
L 198.237621 72.97562 
L 198.400029 72.966489 
L 198.562438 73.135923 
L 198.724846 72.909664 
L 198.887255 72.958832 
L 199.049663 72.783801 
L 199.37448 72.957211 
L 199.536888 72.736957 
L 199.861705 73.218941 
L 200.186522 72.54228 
L 200.511339 72.682352 
L 200.673748 72.327873 
L 200.998565 72.982026 
L 201.48579 72.869204 
L 201.648199 73.071199 
L 201.810607 73.037061 
L 201.973016 72.780157 
L 202.135424 73.045841 
L 202.460241 72.854789 
L 202.785058 73.277353 
L 202.947466 73.025927 
L 203.434692 73.693671 
L 203.921917 73.31697 
L 204.084326 73.397771 
L 204.409143 73.960301 
L 204.571551 74.220455 
L 204.73396 74.249433 
L 204.896368 74.023866 
L 205.058777 74.057382 
L 205.221185 74.317229 
L 205.546002 73.540493 
L 205.708411 73.486306 
L 205.870819 73.653298 
L 206.033228 73.984092 
L 206.195636 73.863681 
L 206.358044 74.044589 
L 206.520453 73.941992 
L 206.682861 73.996074 
L 207.007678 74.506941 
L 207.332495 74.097945 
L 207.494904 74.110502 
L 207.657312 74.326328 
L 207.819721 74.02067 
L 207.982129 74.012375 
L 208.144538 74.326705 
L 208.306946 73.969559 
L 208.469355 74.046421 
L 208.631763 73.716542 
L 208.794172 73.752402 
L 208.95658 73.963981 
L 209.118989 73.987582 
L 209.281397 73.788451 
L 209.443806 73.845815 
L 210.093439 74.686629 
L 210.255848 74.581417 
L 210.418256 74.218687 
L 210.580665 74.436889 
L 210.743073 74.412228 
L 210.905482 74.641789 
L 211.06789 74.510343 
L 211.230299 74.805688 
L 211.717524 74.963313 
L 212.042341 75.182119 
L 212.20475 75.013855 
L 212.367158 75.021433 
L 212.529567 75.171473 
L 212.691975 75.071926 
L 213.016792 74.685698 
L 213.179201 74.396069 
L 213.341609 74.723248 
L 213.504017 74.222302 
L 213.991243 74.582992 
L 214.153651 74.540092 
L 214.803285 75.118676 
L 214.965694 74.773484 
L 215.128102 75.093646 
L 215.452919 74.657077 
L 215.777736 74.635045 
L 215.940145 74.393332 
L 216.589779 74.457374 
L 216.914595 73.918598 
L 217.401821 73.796151 
L 217.889046 74.280316 
L 218.051455 74.625876 
L 218.213863 74.447381 
L 218.376272 74.583269 
L 218.53868 74.275606 
L 218.701089 74.245419 
L 219.188314 73.586894 
L 219.350723 72.930788 
L 219.837948 72.814075 
L 220.325173 73.519284 
L 220.64999 73.285505 
L 220.974807 73.313171 
L 221.299624 73.480092 
L 221.462033 73.574593 
L 221.624441 73.508148 
L 221.949258 73.860976 
L 222.598892 74.242087 
L 222.923709 73.721827 
L 223.086118 73.760564 
L 223.410935 73.096776 
L 223.573343 73.105145 
L 223.89816 72.843756 
L 224.385385 73.224801 
L 224.710202 72.947446 
L 224.872611 73.12118 
L 225.035019 73.043938 
L 225.359836 73.230337 
L 225.522245 73.209922 
L 226.00947 73.574896 
L 226.171879 73.598846 
L 226.334287 73.964907 
L 226.496696 73.902862 
L 226.659104 73.967235 
L 226.821513 73.689976 
L 227.308738 74.382482 
L 227.633555 74.371416 
L 227.795963 74.445698 
L 227.958372 74.348166 
L 228.608006 75.305144 
L 228.770414 75.27582 
L 229.420048 74.447895 
L 229.744865 75.011918 
L 229.907274 74.933004 
L 230.069682 75.008892 
L 230.556908 74.371091 
L 230.719316 74.378804 
L 231.044133 74.171585 
L 231.36895 74.225838 
L 231.531358 74.246284 
L 231.693767 74.129801 
L 231.856175 74.150986 
L 232.018584 73.82634 
L 232.668218 74.076537 
L 232.993035 74.386004 
L 233.155443 74.394488 
L 233.48026 74.817582 
L 233.805077 74.415219 
L 233.967486 74.584391 
L 234.129894 74.434096 
L 234.292303 74.101712 
L 234.454711 74.347212 
L 234.617119 74.230641 
L 234.941936 74.679606 
L 235.104345 74.350627 
L 235.429162 74.679891 
L 235.59157 74.651063 
L 235.916387 75.048604 
L 236.241204 74.822159 
L 236.566021 74.361071 
L 236.72843 74.424692 
L 236.890838 74.332135 
L 237.053247 74.376517 
L 237.702881 74.975429 
L 237.865289 74.897567 
L 238.352514 75.110081 
L 238.514923 75.149164 
L 238.677331 75.372041 
L 238.83974 75.319564 
L 239.002148 75.129463 
L 239.326965 75.260595 
L 239.489374 74.97827 
L 239.814191 75.046644 
L 240.139008 75.388005 
L 240.788642 74.677444 
L 241.113459 74.82769 
L 241.438276 74.553128 
L 241.600684 74.519482 
L 241.925501 74.860833 
L 242.087909 74.794318 
L 242.575135 75.221769 
L 243.06236 74.992145 
L 243.549586 75.467448 
L 243.711994 75.485165 
L 244.036811 75.906183 
L 244.19922 75.825998 
L 244.361628 75.918386 
L 244.686445 75.404136 
L 245.011262 75.710877 
L 245.17367 75.574133 
L 245.498487 75.893765 
L 245.660896 75.403865 
L 245.985713 75.415557 
L 246.148121 75.174926 
L 246.31053 75.173135 
L 246.472938 75.034894 
L 246.635347 75.095186 
L 246.797755 75.301844 
L 247.122572 74.967907 
L 247.284981 75.127104 
L 248.097023 74.964162 
L 248.909065 75.423351 
L 249.071474 75.216018 
L 249.233882 75.275027 
L 249.396291 75.46426 
L 249.721108 75.267766 
L 249.883516 75.169319 
L 251.345193 75.948359 
L 251.507601 75.97391 
L 251.67001 75.835612 
L 252.157235 75.996869 
L 252.482052 76.277141 
L 252.64446 76.064474 
L 252.969277 76.277339 
L 253.131686 76.121026 
L 253.294094 76.339675 
L 253.618911 76.022829 
L 253.78132 76.105552 
L 253.943728 76.375126 
L 254.106137 76.355778 
L 254.593362 75.847039 
L 254.918179 76.2634 
L 255.242996 76.300954 
L 255.405405 76.031593 
L 255.730221 76.222738 
L 256.055038 76.144521 
L 256.217447 76.156496 
L 256.379855 76.334638 
L 256.542264 76.176847 
L 256.867081 76.3366 
L 257.029489 76.193702 
L 257.354306 76.330309 
L 257.841532 76.485893 
L 258.00394 76.468467 
L 258.166349 76.312755 
L 258.328757 76.355666 
L 258.653574 76.715213 
L 259.140799 76.776465 
L 259.628025 77.118446 
L 259.952842 77.009486 
L 260.11525 77.166188 
L 260.277659 77.16167 
L 260.764884 77.509864 
L 260.927293 77.124472 
L 261.089701 77.292959 
L 261.414518 77.177834 
L 261.739335 77.210815 
L 261.901744 77.019611 
L 262.064152 77.014822 
L 262.388969 77.286294 
L 262.551378 77.055624 
L 263.038603 77.107884 
L 263.201011 76.924055 
L 263.36342 76.997781 
L 263.850645 76.375775 
L 264.175462 76.267394 
L 264.337871 76.139926 
L 264.825096 76.284782 
L 265.149913 76.493887 
L 265.312322 76.626556 
L 265.637139 76.386648 
L 265.799547 76.310841 
L 266.449181 76.64925 
L 266.611589 76.361635 
L 266.773998 76.463315 
L 267.098815 76.242615 
L 267.261223 76.06972 
L 267.910857 76.775546 
L 268.560491 76.78945 
L 268.885308 76.514177 
L 269.047717 76.54627 
L 269.372534 76.358367 
L 269.69735 76.316041 
L 270.346984 76.829453 
L 270.671801 76.1931 
L 270.83421 76.227192 
L 271.321435 75.742634 
L 271.483844 75.63862 
L 271.646252 75.756174 
L 271.808661 75.650212 
L 271.971069 75.808879 
L 272.133478 75.798689 
L 272.620703 76.146855 
L 273.107929 75.772394 
L 273.432745 75.812359 
L 273.919971 75.299409 
L 274.244788 75.521441 
L 274.407196 75.711588 
L 274.894422 75.719232 
L 275.05683 75.402818 
L 275.544056 75.333924 
L 275.706464 75.457252 
L 275.868873 74.979194 
L 276.031281 75.186071 
L 276.19369 74.918225 
L 277.330549 75.598354 
L 277.492957 75.457979 
L 277.817774 75.819039 
L 278.142591 76.052632 
L 278.467408 75.747691 
L 278.629817 75.963378 
L 278.792225 75.83393 
L 279.117042 76.165083 
L 279.279451 76.27217 
L 279.766676 76.10001 
L 279.929085 76.318843 
L 280.253901 76.180309 
L 280.578718 76.100516 
L 280.741127 75.982592 
L 281.390761 76.36669 
L 281.553169 76.518003 
L 281.715578 76.481042 
L 281.877986 76.159215 
L 282.202803 76.432943 
L 282.52762 76.558693 
L 282.690029 76.624325 
L 283.177254 76.255999 
L 283.502071 76.468523 
L 283.826888 76.216071 
L 284.151705 76.123002 
L 284.314113 76.07696 
L 284.801339 76.203158 
L 284.963747 76.206785 
L 285.126156 76.084002 
L 285.450973 76.37377 
L 285.77579 76.148503 
L 286.425424 76.577756 
L 286.587832 76.315992 
L 286.750241 76.482027 
L 287.075058 76.309046 
L 287.237466 76.52835 
L 287.399874 76.550398 
L 287.724691 76.873447 
L 288.699142 76.610658 
L 288.861551 76.827564 
L 289.023959 76.756279 
L 289.348776 76.916005 
L 289.836002 76.566598 
L 290.485636 76.848641 
L 290.648044 77.067534 
L 290.810452 76.949852 
L 291.135269 76.563606 
L 291.297678 76.557641 
L 291.460086 76.703077 
L 291.622495 76.614248 
L 292.10972 77.03378 
L 292.272129 76.755983 
L 292.434537 76.755477 
L 292.596946 76.638411 
L 292.759354 76.309789 
L 292.921763 76.273265 
L 293.084171 76.507498 
L 293.571397 76.268326 
L 293.733805 76.231256 
L 293.896214 76.449753 
L 294.383439 76.471024 
L 294.545847 76.686971 
L 294.708256 76.551101 
L 294.870664 76.078017 
L 295.033073 76.235013 
L 295.682707 75.870925 
L 296.007524 75.805439 
L 296.332341 75.888659 
L 296.494749 75.95556 
L 296.819566 75.693967 
L 296.981975 75.547107 
L 297.144383 75.723737 
L 297.306792 75.700732 
L 297.956425 76.122392 
L 298.281242 75.974163 
L 298.443651 76.017567 
L 298.606059 75.945717 
L 298.930876 76.344431 
L 299.418102 76.16206 
L 299.58051 75.888839 
L 299.905327 76.111721 
L 300.230144 76.025128 
L 300.71737 75.537971 
L 301.367004 75.832537 
L 301.854229 75.696667 
L 302.016637 75.886617 
L 302.341454 75.707165 
L 302.503863 75.774715 
L 302.82868 75.685843 
L 302.991088 75.615612 
L 303.315905 75.914565 
L 304.290356 75.965263 
L 304.615173 75.802992 
L 305.102398 76.334929 
L 305.264807 76.248984 
L 305.427215 76.025543 
L 305.589624 76.142917 
L 305.914441 76.106737 
L 306.076849 76.146985 
L 306.564075 75.840772 
L 306.726483 75.796794 
L 307.0513 76.002727 
L 307.376117 75.861025 
L 307.538526 75.906217 
L 307.700934 75.488863 
L 308.675385 75.62565 
L 308.837793 75.699289 
L 309.000202 75.932287 
L 309.16261 75.836677 
L 309.325019 76.041557 
L 309.487427 75.931173 
L 309.812244 75.97439 
L 310.29947 75.698654 
L 310.461878 75.460542 
L 310.786695 75.559919 
L 311.111512 75.941484 
L 311.436329 76.057013 
L 311.598738 75.808714 
L 311.761146 75.872375 
L 311.923555 75.739963 
L 312.573188 76.103648 
L 312.898005 76.302875 
L 313.060414 76.132534 
L 313.222822 76.34948 
L 313.547639 76.1205 
L 313.710048 75.869446 
L 313.872456 76.076644 
L 314.197273 75.757099 
L 314.52209 75.672 
L 314.684499 75.717578 
L 315.009316 75.488188 
L 315.983766 75.865857 
L 316.146175 75.741196 
L 316.470992 75.82065 
L 316.795809 75.894977 
L 317.120626 76.022674 
L 317.283034 75.951458 
L 317.607851 76.06177 
L 317.932668 75.999197 
L 318.095077 76.139339 
L 318.257485 75.859197 
L 318.419894 75.816313 
L 319.231936 76.195719 
L 319.394344 75.925627 
L 320.043978 76.058076 
L 320.206387 76.172196 
L 320.368795 76.020917 
L 321.180838 76.299457 
L 321.343246 76.499598 
L 321.505655 76.513549 
L 321.668063 76.369991 
L 321.830472 76.583239 
L 321.99288 76.451487 
L 322.155289 76.513606 
L 322.480106 76.805545 
L 322.642514 76.919263 
L 322.804922 76.70011 
L 323.129739 76.683188 
L 323.454556 77.011687 
L 323.616965 77.011519 
L 323.779373 76.774475 
L 324.10419 77.071913 
L 324.591416 76.709826 
L 324.753824 76.875972 
L 324.916233 76.821701 
L 325.24105 77.008266 
L 325.403458 77.076644 
L 325.728275 76.885799 
L 326.2155 76.58858 
L 326.377909 76.70064 
L 326.702726 76.384519 
L 326.865134 76.567062 
L 328.001994 76.382727 
L 328.164402 76.118645 
L 328.651628 76.074697 
L 328.976445 76.314986 
L 329.46367 76.688343 
L 330.113304 76.564275 
L 330.438121 76.21519 
L 331.57498 76.228212 
L 332.224614 76.078817 
L 332.549431 76.169586 
L 332.71184 76.040053 
L 333.036657 76.069293 
L 333.361473 76.00618 
L 334.173516 76.519973 
L 334.660741 76.500936 
L 334.82315 76.485192 
L 335.147967 76.646487 
L 335.310375 76.532462 
L 335.635192 76.689533 
L 335.797601 76.47451 
L 336.772051 76.9093 
L 336.93446 76.859382 
L 337.096868 76.935332 
L 337.746502 76.714224 
L 337.908911 76.827785 
L 338.071319 76.789706 
L 338.396136 77.081086 
L 338.720953 76.908224 
L 339.04577 76.958646 
L 339.208179 76.783751 
L 339.532996 76.993037 
L 339.857813 76.762114 
L 340.020221 76.851709 
L 340.345038 76.638739 
L 340.507446 76.587891 
L 340.669855 76.755084 
L 341.644306 76.810919 
L 341.969123 76.820861 
L 342.29394 76.508744 
L 342.943574 76.227012 
L 343.755616 76.575202 
L 344.080433 76.30321 
L 344.242841 76.338861 
L 344.40525 76.24162 
L 344.730067 76.252287 
L 345.217292 76.138349 
L 345.704518 76.394064 
L 346.354152 76.741681 
L 347.328602 76.544454 
L 347.815828 76.836304 
L 348.140645 76.709467 
L 348.465462 76.852928 
L 348.952687 76.501268 
L 349.927138 76.244111 
L 350.414364 75.894967 
L 350.73918 75.98971 
L 351.063997 76.081023 
L 351.713631 75.802204 
L 351.87604 75.625597 
L 352.688082 75.827553 
L 353.175308 76.000938 
L 353.500125 75.829315 
L 353.662533 75.938306 
L 353.824942 75.819689 
L 353.98735 75.900884 
L 354.149759 75.729317 
L 354.474575 75.827011 
L 354.799392 76.050979 
L 354.961801 75.999773 
L 355.124209 76.090092 
L 355.449026 75.831437 
L 355.611435 75.998457 
L 356.910703 75.991796 
L 357.073111 76.058431 
L 357.23552 75.935947 
L 358.534787 76.207874 
L 358.697196 76.180383 
L 359.022013 76.289362 
L 359.184421 76.334692 
L 359.34683 76.256937 
L 359.996464 76.436534 
L 360.321281 76.361449 
L 360.483689 76.379648 
L 360.646098 76.553152 
L 361.133323 76.384579 
L 361.45814 76.582378 
L 361.945365 76.553242 
L 362.107774 76.44913 
L 362.757408 76.677586 
L 363.731859 77.028967 
L 364.056676 76.707501 
L 365.518352 77.111473 
L 365.843169 76.937257 
L 366.655211 77.051242 
L 367.142437 77.146528 
L 367.629662 77.095025 
L 368.604113 77.573004 
L 368.766521 77.417747 
L 368.92893 77.451371 
L 369.416155 77.184084 
L 369.740972 77.401493 
L 369.903381 77.496177 
L 370.065789 77.438021 
L 370.877832 77.766003 
L 371.04024 77.764124 
L 371.202649 77.959345 
L 371.365057 77.881062 
L 371.527466 78.003329 
L 372.014691 77.615169 
L 372.177099 77.623703 
L 372.501916 77.342931 
L 372.826733 77.431765 
L 373.476367 77.467573 
L 373.801184 77.38679 
L 374.450818 77.722561 
L 374.775635 77.619068 
L 375.262861 78.057499 
L 375.587677 78.016977 
L 376.074903 77.794158 
L 376.39972 77.996915 
L 376.886945 77.974628 
L 377.049354 77.900627 
L 378.998255 78.514807 
L 379.485481 78.419609 
L 379.810298 78.519463 
L 379.972706 78.524803 
L 380.459932 78.742354 
L 380.947157 78.50473 
L 381.109566 78.607043 
L 381.271974 78.513447 
L 381.434383 78.650678 
L 381.921608 78.671866 
L 382.246425 78.951902 
L 382.408834 78.907933 
L 382.73365 79.193674 
L 383.383284 79.052912 
L 383.545693 78.871612 
L 383.708101 78.947352 
L 384.032918 78.690355 
L 384.682552 78.957481 
L 385.819412 78.863249 
L 385.98182 78.97841 
L 386.144228 78.952455 
L 386.306637 79.085251 
L 386.469045 78.878323 
L 386.793862 78.962569 
L 387.281088 79.000368 
L 387.443496 79.097612 
L 387.605905 79.042529 
L 387.768313 79.187696 
L 387.930722 79.07948 
L 388.255539 79.367499 
L 389.067581 79.416887 
L 389.392398 79.305334 
L 389.717215 79.174792 
L 389.879623 79.291176 
L 390.042032 79.238817 
L 390.366849 79.309793 
L 390.529257 79.299787 
L 390.691666 79.408731 
L 391.3413 79.201267 
L 391.666117 79.368802 
L 392.315751 79.339286 
L 392.478159 79.259554 
L 392.802976 79.449764 
L 392.965385 79.398586 
L 393.127793 79.499617 
L 393.45261 79.42284 
L 394.427061 79.719828 
L 394.751878 79.792763 
L 394.914286 79.651165 
L 395.239103 79.686511 
L 396.213554 79.469003 
L 396.700779 79.215128 
L 397.188005 79.235497 
L 397.512822 79.056055 
L 398.324864 78.737251 
L 398.487273 78.495145 
L 398.487273 78.495145 
" clip-path="url(#p46dd540b43)" style="fill: none; stroke-dasharray: 2,3.3; stroke-dashoffset: 0; stroke: #ffa500; stroke-width: 2"/>
   </g>
   <g id="patch_3">
    <path d="M 57.6 307.584 
L 57.6 41.472 
" style="fill: none; stroke: #000000; stroke-width: 0.8; stroke-linejoin: miter; stroke-linecap: square"/>
   </g>
   <g id="patch_4">
    <path d="M 414.72 307.584 
L 414.72 41.472 
" style="fill: none; stroke: #000000; stroke-width: 0.8; stroke-linejoin: miter; stroke-linecap: square"/>
   </g>
   <g id="patch_5">
    <path d="M 57.6 307.584 
L 414.72 307.584 
" style="fill: none; stroke: #000000; stroke-width: 0.8; stroke-linejoin: miter; stroke-linecap: square"/>
   </g>
   <g id="patch_6">
    <path d="M 57.6 41.472 
L 414.72 41.472 
" style="fill: none; stroke: #000000; stroke-width: 0.8; stroke-linejoin: miter; stroke-linecap: square"/>
   </g>
   <g id="text_18">
    <!-- Waiting Time Plot -->
    <g transform="translate(183.833438 8.2635)scale(0.12 -0.12)">
     <defs>
      <path id="DejaVuSans-50" d="M 1259 4147 
L 1259 2394 
L 2053 2394 
Q 2494 2394 2734 2622 
Q 2975 2850 2975 3272 
Q 2975 3691 2734 3919 
Q 2494 4147 2053 4147 
L 1259 4147 
z
M 628 4666 
L 2053 4666 
Q 2838 4666 3239 4311 
Q 3641 3956 3641 3272 
Q 3641 2581 3239 2228 
Q 2838 1875 2053 1875 
L 1259 1875 
L 1259 0 
L 628 0 
L 628 4666 
z
" transform="scale(0.015625)"/>
      <path id="DejaVuSans-6c" d="M 603 4863 
L 1178 4863 
L 1178 0 
L 603 0 
L 603 4863 
z
" transform="scale(0.015625)"/>
     </defs>
     <use xlink:href="#DejaVuSans-57"/>
     <use xlink:href="#DejaVuSans-61" x="92.501953"/>
     <use xlink:href="#DejaVuSans-69" x="153.78125"/>
     <use xlink:href="#DejaVuSans-74" x="181.564453"/>
     <use xlink:href="#DejaVuSans-69" x="220.773438"/>
     <use xlink:href="#DejaVuSans-6e" x="248.556641"/>
     <use xlink:href="#DejaVuSans-67" x="311.935547"/>
     <use xlink:href="#DejaVuSans-20" x="375.412109"/>
     <use xlink:href="#DejaVuSans-54" x="407.199219"/>
     <use xlink:href="#DejaVuSans-69" x="465.158203"/>
     <use xlink:href="#DejaVuSans-6d" x="492.941406"/>
     <use xlink:href="#DejaVuSans-65" x="590.353516"/>
     <use xlink:href="#DejaVuSans-20" x="651.876953"/>
     <use xlink:href="#DejaVuSans-50" x="683.664062"/>
     <use xlink:href="#DejaVuSans-6c" x="743.966797"/>
     <use xlink:href="#DejaVuSans-6f" x="771.75"/>
     <use xlink:href="#DejaVuSans-74" x="832.931641"/>
    </g>
    <!--  avg_d = 997.6276068781548  -->
    <g transform="translate(142.671562 21.700875)scale(0.12 -0.12)">
     <defs>
      <path id="DejaVuSans-76" d="M 191 3500 
L 800 3500 
L 1894 563 
L 2988 3500 
L 3597 3500 
L 2284 0 
L 1503 0 
L 191 3500 
z
" transform="scale(0.015625)"/>
      <path id="DejaVuSans-5f" d="M 3263 -1063 
L 3263 -1509 
L -63 -1509 
L -63 -1063 
L 3263 -1063 
z
" transform="scale(0.015625)"/>
      <path id="DejaVuSans-3d" d="M 678 2906 
L 4684 2906 
L 4684 2381 
L 678 2381 
L 678 2906 
z
M 678 1631 
L 4684 1631 
L 4684 1100 
L 678 1100 
L 678 1631 
z
" transform="scale(0.015625)"/>
      <path id="DejaVuSans-2e" d="M 684 794 
L 1344 794 
L 1344 0 
L 684 0 
L 684 794 
z
" transform="scale(0.015625)"/>
      <path id="DejaVuSans-36" d="M 2113 2584 
Q 1688 2584 1439 2293 
Q 1191 2003 1191 1497 
Q 1191 994 1439 701 
Q 1688 409 2113 409 
Q 2538 409 2786 701 
Q 3034 994 3034 1497 
Q 3034 2003 2786 2293 
Q 2538 2584 2113 2584 
z
M 3366 4563 
L 3366 3988 
Q 3128 4100 2886 4159 
Q 2644 4219 2406 4219 
Q 1781 4219 1451 3797 
Q 1122 3375 1075 2522 
Q 1259 2794 1537 2939 
Q 1816 3084 2150 3084 
Q 2853 3084 3261 2657 
Q 3669 2231 3669 1497 
Q 3669 778 3244 343 
Q 2819 -91 2113 -91 
Q 1303 -91 875 529 
Q 447 1150 447 2328 
Q 447 3434 972 4092 
Q 1497 4750 2381 4750 
Q 2619 4750 2861 4703 
Q 3103 4656 3366 4563 
z
" transform="scale(0.015625)"/>
      <path id="DejaVuSans-34" d="M 2419 4116 
L 825 1625 
L 2419 1625 
L 2419 4116 
z
M 2253 4666 
L 3047 4666 
L 3047 1625 
L 3713 1625 
L 3713 1100 
L 3047 1100 
L 3047 0 
L 2419 0 
L 2419 1100 
L 313 1100 
L 313 1709 
L 2253 4666 
z
" transform="scale(0.015625)"/>
     </defs>
     <use xlink:href="#DejaVuSans-20"/>
     <use xlink:href="#DejaVuSans-61" x="31.787109"/>
     <use xlink:href="#DejaVuSans-76" x="93.066406"/>
     <use xlink:href="#DejaVuSans-67" x="152.246094"/>
     <use xlink:href="#DejaVuSans-5f" x="215.722656"/>
     <use xlink:href="#DejaVuSans-64" x="265.722656"/>
     <use xlink:href="#DejaVuSans-20" x="329.199219"/>
     <use xlink:href="#DejaVuSans-3d" x="360.986328"/>
     <use xlink:href="#DejaVuSans-20" x="444.775391"/>
     <use xlink:href="#DejaVuSans-39" x="476.5625"/>
     <use xlink:href="#DejaVuSans-39" x="540.185547"/>
     <use xlink:href="#DejaVuSans-37" x="603.808594"/>
     <use xlink:href="#DejaVuSans-2e" x="667.431641"/>
     <use xlink:href="#DejaVuSans-36" x="699.21875"/>
     <use xlink:href="#DejaVuSans-32" x="762.841797"/>
     <use xlink:href="#DejaVuSans-37" x="826.464844"/>
     <use xlink:href="#DejaVuSans-36" x="890.087891"/>
     <use xlink:href="#DejaVuSans-30" x="953.710938"/>
     <use xlink:href="#DejaVuSans-36" x="1017.333984"/>
     <use xlink:href="#DejaVuSans-38" x="1080.957031"/>
     <use xlink:href="#DejaVuSans-37" x="1144.580078"/>
     <use xlink:href="#DejaVuSans-38" x="1208.203125"/>
     <use xlink:href="#DejaVuSans-31" x="1271.826172"/>
     <use xlink:href="#DejaVuSans-35" x="1335.449219"/>
     <use xlink:href="#DejaVuSans-34" x="1399.072266"/>
     <use xlink:href="#DejaVuSans-38" x="1462.695312"/>
     <use xlink:href="#DejaVuSans-20" x="1526.318359"/>
    </g>
    <!--  avg_a = 996.959241255043diff = 0.6683656231117538 -->
    <g transform="translate(63.181875 35.472)scale(0.12 -0.12)">
     <defs>
      <path id="DejaVuSans-33" d="M 2597 2516 
Q 3050 2419 3304 2112 
Q 3559 1806 3559 1356 
Q 3559 666 3084 287 
Q 2609 -91 1734 -91 
Q 1441 -91 1130 -33 
Q 819 25 488 141 
L 488 750 
Q 750 597 1062 519 
Q 1375 441 1716 441 
Q 2309 441 2620 675 
Q 2931 909 2931 1356 
Q 2931 1769 2642 2001 
Q 2353 2234 1838 2234 
L 1294 2234 
L 1294 2753 
L 1863 2753 
Q 2328 2753 2575 2939 
Q 2822 3125 2822 3475 
Q 2822 3834 2567 4026 
Q 2313 4219 1838 4219 
Q 1578 4219 1281 4162 
Q 984 4106 628 3988 
L 628 4550 
Q 988 4650 1302 4700 
Q 1616 4750 1894 4750 
Q 2613 4750 3031 4423 
Q 3450 4097 3450 3541 
Q 3450 3153 3228 2886 
Q 3006 2619 2597 2516 
z
" transform="scale(0.015625)"/>
     </defs>
     <use xlink:href="#DejaVuSans-20"/>
     <use xlink:href="#DejaVuSans-61" x="31.787109"/>
     <use xlink:href="#DejaVuSans-76" x="93.066406"/>
     <use xlink:href="#DejaVuSans-67" x="152.246094"/>
     <use xlink:href="#DejaVuSans-5f" x="215.722656"/>
     <use xlink:href="#DejaVuSans-61" x="265.722656"/>
     <use xlink:href="#DejaVuSans-20" x="327.001953"/>
     <use xlink:href="#DejaVuSans-3d" x="358.789062"/>
     <use xlink:href="#DejaVuSans-20" x="442.578125"/>
     <use xlink:href="#DejaVuSans-39" x="474.365234"/>
     <use xlink:href="#DejaVuSans-39" x="537.988281"/>
     <use xlink:href="#DejaVuSans-36" x="601.611328"/>
     <use xlink:href="#DejaVuSans-2e" x="665.234375"/>
     <use xlink:href="#DejaVuSans-39" x="697.021484"/>
     <use xlink:href="#DejaVuSans-35" x="760.644531"/>
     <use xlink:href="#DejaVuSans-39" x="824.267578"/>
     <use xlink:href="#DejaVuSans-32" x="887.890625"/>
     <use xlink:href="#DejaVuSans-34" x="951.513672"/>
     <use xlink:href="#DejaVuSans-31" x="1015.136719"/>
     <use xlink:href="#DejaVuSans-32" x="1078.759766"/>
     <use xlink:href="#DejaVuSans-35" x="1142.382812"/>
     <use xlink:href="#DejaVuSans-35" x="1206.005859"/>
     <use xlink:href="#DejaVuSans-30" x="1269.628906"/>
     <use xlink:href="#DejaVuSans-34" x="1333.251953"/>
     <use xlink:href="#DejaVuSans-33" x="1396.875"/>
     <use xlink:href="#DejaVuSans-64" x="1460.498047"/>
     <use xlink:href="#DejaVuSans-69" x="1523.974609"/>
     <use xlink:href="#DejaVuSans-66" x="1551.757812"/>
     <use xlink:href="#DejaVuSans-66" x="1586.962891"/>
     <use xlink:href="#DejaVuSans-20" x="1622.167969"/>
     <use xlink:href="#DejaVuSans-3d" x="1653.955078"/>
     <use xlink:href="#DejaVuSans-20" x="1737.744141"/>
     <use xlink:href="#DejaVuSans-30" x="1769.53125"/>
     <use xlink:href="#DejaVuSans-2e" x="1833.154297"/>
     <use xlink:href="#DejaVuSans-36" x="1864.941406"/>
     <use xlink:href="#DejaVuSans-36" x="1928.564453"/>
     <use xlink:href="#DejaVuSans-38" x="1992.1875"/>
     <use xlink:href="#DejaVuSans-33" x="2055.810547"/>
     <use xlink:href="#DejaVuSans-36" x="2119.433594"/>
     <use xlink:href="#DejaVuSans-35" x="2183.056641"/>
     <use xlink:href="#DejaVuSans-36" x="2246.679688"/>
     <use xlink:href="#DejaVuSans-32" x="2310.302734"/>
     <use xlink:href="#DejaVuSans-33" x="2373.925781"/>
     <use xlink:href="#DejaVuSans-31" x="2437.548828"/>
     <use xlink:href="#DejaVuSans-31" x="2501.171875"/>
     <use xlink:href="#DejaVuSans-31" x="2564.794922"/>
     <use xlink:href="#DejaVuSans-37" x="2628.417969"/>
     <use xlink:href="#DejaVuSans-35" x="2692.041016"/>
     <use xlink:href="#DejaVuSans-33" x="2755.664062"/>
     <use xlink:href="#DejaVuSans-38" x="2819.287109"/>
    </g>
   </g>
   <g id="legend_1">
    <g id="patch_7">
     <path d="M 263.88875 302.584 
L 407.72 302.584 
Q 409.72 302.584 409.72 300.584 
L 409.72 272.22775 
Q 409.72 270.22775 407.72 270.22775 
L 263.88875 270.22775 
Q 261.88875 270.22775 261.88875 272.22775 
L 261.88875 300.584 
Q 261.88875 302.584 263.88875 302.584 
z
" style="fill: #ffffff; opacity: 0.8; stroke: #cccccc; stroke-linejoin: miter"/>
    </g>
    <g id="line2d_18">
     <path d="M 265.88875 278.326187 
L 275.88875 278.326187 
L 285.88875 278.326187 
" style="fill: none; stroke-dasharray: 2,3.3; stroke-dashoffset: 0; stroke: #0000ff; stroke-width: 2"/>
    </g>
    <g id="text_19">
     <!-- Average (Default) -->
     <g transform="translate(293.88875 281.826187)scale(0.1 -0.1)">
      <defs>
       <path id="DejaVuSans-41" d="M 2188 4044 
L 1331 1722 
L 3047 1722 
L 2188 4044 
z
M 1831 4666 
L 2547 4666 
L 4325 0 
L 3669 0 
L 3244 1197 
L 1141 1197 
L 716 0 
L 50 0 
L 1831 4666 
z
" transform="scale(0.015625)"/>
       <path id="DejaVuSans-28" d="M 1984 4856 
Q 1566 4138 1362 3434 
Q 1159 2731 1159 2009 
Q 1159 1288 1364 580 
Q 1569 -128 1984 -844 
L 1484 -844 
Q 1016 -109 783 600 
Q 550 1309 550 2009 
Q 550 2706 781 3412 
Q 1013 4119 1484 4856 
L 1984 4856 
z
" transform="scale(0.015625)"/>
       <path id="DejaVuSans-44" d="M 1259 4147 
L 1259 519 
L 2022 519 
Q 2988 519 3436 956 
Q 3884 1394 3884 2338 
Q 3884 3275 3436 3711 
Q 2988 4147 2022 4147 
L 1259 4147 
z
M 628 4666 
L 1925 4666 
Q 3281 4666 3915 4102 
Q 4550 3538 4550 2338 
Q 4550 1131 3912 565 
Q 3275 0 1925 0 
L 628 0 
L 628 4666 
z
" transform="scale(0.015625)"/>
       <path id="DejaVuSans-29" d="M 513 4856 
L 1013 4856 
Q 1481 4119 1714 3412 
Q 1947 2706 1947 2009 
Q 1947 1309 1714 600 
Q 1481 -109 1013 -844 
L 513 -844 
Q 928 -128 1133 580 
Q 1338 1288 1338 2009 
Q 1338 2731 1133 3434 
Q 928 4138 513 4856 
z
" transform="scale(0.015625)"/>
      </defs>
      <use xlink:href="#DejaVuSans-41"/>
      <use xlink:href="#DejaVuSans-76" x="62.533203"/>
      <use xlink:href="#DejaVuSans-65" x="121.712891"/>
      <use xlink:href="#DejaVuSans-72" x="183.236328"/>
      <use xlink:href="#DejaVuSans-61" x="224.349609"/>
      <use xlink:href="#DejaVuSans-67" x="285.628906"/>
      <use xlink:href="#DejaVuSans-65" x="349.105469"/>
      <use xlink:href="#DejaVuSans-20" x="410.628906"/>
      <use xlink:href="#DejaVuSans-28" x="442.416016"/>
      <use xlink:href="#DejaVuSans-44" x="481.429688"/>
      <use xlink:href="#DejaVuSans-65" x="558.431641"/>
      <use xlink:href="#DejaVuSans-66" x="619.955078"/>
      <use xlink:href="#DejaVuSans-61" x="655.160156"/>
      <use xlink:href="#DejaVuSans-75" x="716.439453"/>
      <use xlink:href="#DejaVuSans-6c" x="779.818359"/>
      <use xlink:href="#DejaVuSans-74" x="807.601562"/>
      <use xlink:href="#DejaVuSans-29" x="846.810547"/>
     </g>
    </g>
    <g id="line2d_19">
     <path d="M 265.88875 293.004312 
L 275.88875 293.004312 
L 285.88875 293.004312 
" style="fill: none; stroke-dasharray: 2,3.3; stroke-dashoffset: 0; stroke: #ffa500; stroke-width: 2"/>
    </g>
    <g id="text_20">
     <!-- Average (Anticipation) -->
     <g transform="translate(293.88875 296.504312)scale(0.1 -0.1)">
      <defs>
       <path id="DejaVuSans-63" d="M 3122 3366 
L 3122 2828 
Q 2878 2963 2633 3030 
Q 2388 3097 2138 3097 
Q 1578 3097 1268 2742 
Q 959 2388 959 1747 
Q 959 1106 1268 751 
Q 1578 397 2138 397 
Q 2388 397 2633 464 
Q 2878 531 3122 666 
L 3122 134 
Q 2881 22 2623 -34 
Q 2366 -91 2075 -91 
Q 1284 -91 818 406 
Q 353 903 353 1747 
Q 353 2603 823 3093 
Q 1294 3584 2113 3584 
Q 2378 3584 2631 3529 
Q 2884 3475 3122 3366 
z
" transform="scale(0.015625)"/>
       <path id="DejaVuSans-70" d="M 1159 525 
L 1159 -1331 
L 581 -1331 
L 581 3500 
L 1159 3500 
L 1159 2969 
Q 1341 3281 1617 3432 
Q 1894 3584 2278 3584 
Q 2916 3584 3314 3078 
Q 3713 2572 3713 1747 
Q 3713 922 3314 415 
Q 2916 -91 2278 -91 
Q 1894 -91 1617 61 
Q 1341 213 1159 525 
z
M 3116 1747 
Q 3116 2381 2855 2742 
Q 2594 3103 2138 3103 
Q 1681 3103 1420 2742 
Q 1159 2381 1159 1747 
Q 1159 1113 1420 752 
Q 1681 391 2138 391 
Q 2594 391 2855 752 
Q 3116 1113 3116 1747 
z
" transform="scale(0.015625)"/>
      </defs>
      <use xlink:href="#DejaVuSans-41"/>
      <use xlink:href="#DejaVuSans-76" x="62.533203"/>
      <use xlink:href="#DejaVuSans-65" x="121.712891"/>
      <use xlink:href="#DejaVuSans-72" x="183.236328"/>
      <use xlink:href="#DejaVuSans-61" x="224.349609"/>
      <use xlink:href="#DejaVuSans-67" x="285.628906"/>
      <use xlink:href="#DejaVuSans-65" x="349.105469"/>
      <use xlink:href="#DejaVuSans-20" x="410.628906"/>
      <use xlink:href="#DejaVuSans-28" x="442.416016"/>
      <use xlink:href="#DejaVuSans-41" x="481.429688"/>
      <use xlink:href="#DejaVuSans-6e" x="549.837891"/>
      <use xlink:href="#DejaVuSans-74" x="613.216797"/>
      <use xlink:href="#DejaVuSans-69" x="652.425781"/>
      <use xlink:href="#DejaVuSans-63" x="680.208984"/>
      <use xlink:href="#DejaVuSans-69" x="735.189453"/>
      <use xlink:href="#DejaVuSans-70" x="762.972656"/>
      <use xlink:href="#DejaVuSans-61" x="826.449219"/>
      <use xlink:href="#DejaVuSans-74" x="887.728516"/>
      <use xlink:href="#DejaVuSans-69" x="926.9375"/>
      <use xlink:href="#DejaVuSans-6f" x="954.720703"/>
      <use xlink:href="#DejaVuSans-6e" x="1015.902344"/>
      <use xlink:href="#DejaVuSans-29" x="1079.28125"/>
     </g>
    </g>
   </g>
  </g>
 </g>
 <defs>
  <clipPath id="p46dd540b43">
   <rect x="57.6" y="41.472" width="357.12" height="266.112"/>
  </clipPath>
 </defs>
</svg>
