<?xml version="1.0" encoding="utf-8" standalone="no"?>
<!DOCTYPE svg PUBLIC "-//W3C//DTD SVG 1.1//EN"
  "http://www.w3.org/Graphics/SVG/1.1/DTD/svg11.dtd">
<svg xmlns:xlink="http://www.w3.org/1999/xlink" width="1080pt" height="540pt" viewBox="0 0 1080 540" xmlns="http://www.w3.org/2000/svg" version="1.1">
 <metadata>
  <rdf:RDF xmlns:dc="http://purl.org/dc/elements/1.1/" xmlns:cc="http://creativecommons.org/ns#" xmlns:rdf="http://www.w3.org/1999/02/22-rdf-syntax-ns#">
   <cc:Work>
    <dc:type rdf:resource="http://purl.org/dc/dcmitype/StillImage"/>
    <dc:date>2022-09-12T15:35:12.933200</dc:date>
    <dc:format>image/svg+xml</dc:format>
    <dc:creator>
     <cc:Agent>
      <dc:title>Matplotlib v3.5.2, https://matplotlib.org/</dc:title>
     </cc:Agent>
    </dc:creator>
   </cc:Work>
  </rdf:RDF>
 </metadata>
 <defs>
  <style type="text/css">*{stroke-linejoin: round; stroke-linecap: butt}</style>
 </defs>
 <g id="figure_1">
  <g id="patch_1">
   <path d="M 0 540 
L 1080 540 
L 1080 0 
L 0 0 
z
" style="fill: #ffffff"/>
  </g>
  <g id="axes_1">
   <g id="patch_2">
    <path d="M 135 253.8 
L 972 253.8 
L 972 64.8 
L 135 64.8 
z
" style="fill: #ffffff"/>
   </g>
   <g id="matplotlib.axis_1">
    <g id="xtick_1">
     <g id="line2d_1">
      <path d="M 173.045455 253.8 
L 173.045455 64.8 
" clip-path="url(#p959076730d)" style="fill: none; stroke-dasharray: 0.8,1.32; stroke-dashoffset: 0; stroke: #b0b0b0; stroke-width: 0.8"/>
     </g>
     <g id="line2d_2">
      <defs>
       <path id="m52c9b41d08" d="M 0 0 
L 0 3.5 
" style="stroke: #000000; stroke-width: 0.8"/>
      </defs>
      <g>
       <use xlink:href="#m52c9b41d08" x="173.045455" y="253.8" style="stroke: #000000; stroke-width: 0.8"/>
      </g>
     </g>
     <g id="text_1">
      <!-- 0 -->
      <g transform="translate(169.864205 268.398438)scale(0.1 -0.1)">
       <defs>
        <path id="DejaVuSans-30" d="M 2034 4250 
Q 1547 4250 1301 3770 
Q 1056 3291 1056 2328 
Q 1056 1369 1301 889 
Q 1547 409 2034 409 
Q 2525 409 2770 889 
Q 3016 1369 3016 2328 
Q 3016 3291 2770 3770 
Q 2525 4250 2034 4250 
z
M 2034 4750 
Q 2819 4750 3233 4129 
Q 3647 3509 3647 2328 
Q 3647 1150 3233 529 
Q 2819 -91 2034 -91 
Q 1250 -91 836 529 
Q 422 1150 422 2328 
Q 422 3509 836 4129 
Q 1250 4750 2034 4750 
z
" transform="scale(0.015625)"/>
       </defs>
       <use xlink:href="#DejaVuSans-30"/>
      </g>
     </g>
    </g>
    <g id="xtick_2">
     <g id="line2d_3">
      <path d="M 266.753471 253.8 
L 266.753471 64.8 
" clip-path="url(#p959076730d)" style="fill: none; stroke-dasharray: 0.8,1.32; stroke-dashoffset: 0; stroke: #b0b0b0; stroke-width: 0.8"/>
     </g>
     <g id="line2d_4">
      <g>
       <use xlink:href="#m52c9b41d08" x="266.753471" y="253.8" style="stroke: #000000; stroke-width: 0.8"/>
      </g>
     </g>
     <g id="text_2">
      <!-- 25 -->
      <g transform="translate(260.390971 268.398438)scale(0.1 -0.1)">
       <defs>
        <path id="DejaVuSans-32" d="M 1228 531 
L 3431 531 
L 3431 0 
L 469 0 
L 469 531 
Q 828 903 1448 1529 
Q 2069 2156 2228 2338 
Q 2531 2678 2651 2914 
Q 2772 3150 2772 3378 
Q 2772 3750 2511 3984 
Q 2250 4219 1831 4219 
Q 1534 4219 1204 4116 
Q 875 4013 500 3803 
L 500 4441 
Q 881 4594 1212 4672 
Q 1544 4750 1819 4750 
Q 2544 4750 2975 4387 
Q 3406 4025 3406 3419 
Q 3406 3131 3298 2873 
Q 3191 2616 2906 2266 
Q 2828 2175 2409 1742 
Q 1991 1309 1228 531 
z
" transform="scale(0.015625)"/>
        <path id="DejaVuSans-35" d="M 691 4666 
L 3169 4666 
L 3169 4134 
L 1269 4134 
L 1269 2991 
Q 1406 3038 1543 3061 
Q 1681 3084 1819 3084 
Q 2600 3084 3056 2656 
Q 3513 2228 3513 1497 
Q 3513 744 3044 326 
Q 2575 -91 1722 -91 
Q 1428 -91 1123 -41 
Q 819 9 494 109 
L 494 744 
Q 775 591 1075 516 
Q 1375 441 1709 441 
Q 2250 441 2565 725 
Q 2881 1009 2881 1497 
Q 2881 1984 2565 2268 
Q 2250 2553 1709 2553 
Q 1456 2553 1204 2497 
Q 953 2441 691 2322 
L 691 4666 
z
" transform="scale(0.015625)"/>
       </defs>
       <use xlink:href="#DejaVuSans-32"/>
       <use xlink:href="#DejaVuSans-35" x="63.623047"/>
      </g>
     </g>
    </g>
    <g id="xtick_3">
     <g id="line2d_5">
      <path d="M 360.461487 253.8 
L 360.461487 64.8 
" clip-path="url(#p959076730d)" style="fill: none; stroke-dasharray: 0.8,1.32; stroke-dashoffset: 0; stroke: #b0b0b0; stroke-width: 0.8"/>
     </g>
     <g id="line2d_6">
      <g>
       <use xlink:href="#m52c9b41d08" x="360.461487" y="253.8" style="stroke: #000000; stroke-width: 0.8"/>
      </g>
     </g>
     <g id="text_3">
      <!-- 50 -->
      <g transform="translate(354.098987 268.398438)scale(0.1 -0.1)">
       <use xlink:href="#DejaVuSans-35"/>
       <use xlink:href="#DejaVuSans-30" x="63.623047"/>
      </g>
     </g>
    </g>
    <g id="xtick_4">
     <g id="line2d_7">
      <path d="M 454.169503 253.8 
L 454.169503 64.8 
" clip-path="url(#p959076730d)" style="fill: none; stroke-dasharray: 0.8,1.32; stroke-dashoffset: 0; stroke: #b0b0b0; stroke-width: 0.8"/>
     </g>
     <g id="line2d_8">
      <g>
       <use xlink:href="#m52c9b41d08" x="454.169503" y="253.8" style="stroke: #000000; stroke-width: 0.8"/>
      </g>
     </g>
     <g id="text_4">
      <!-- 75 -->
      <g transform="translate(447.807003 268.398438)scale(0.1 -0.1)">
       <defs>
        <path id="DejaVuSans-37" d="M 525 4666 
L 3525 4666 
L 3525 4397 
L 1831 0 
L 1172 0 
L 2766 4134 
L 525 4134 
L 525 4666 
z
" transform="scale(0.015625)"/>
       </defs>
       <use xlink:href="#DejaVuSans-37"/>
       <use xlink:href="#DejaVuSans-35" x="63.623047"/>
      </g>
     </g>
    </g>
    <g id="xtick_5">
     <g id="line2d_9">
      <path d="M 547.877519 253.8 
L 547.877519 64.8 
" clip-path="url(#p959076730d)" style="fill: none; stroke-dasharray: 0.8,1.32; stroke-dashoffset: 0; stroke: #b0b0b0; stroke-width: 0.8"/>
     </g>
     <g id="line2d_10">
      <g>
       <use xlink:href="#m52c9b41d08" x="547.877519" y="253.8" style="stroke: #000000; stroke-width: 0.8"/>
      </g>
     </g>
     <g id="text_5">
      <!-- 100 -->
      <g transform="translate(538.333769 268.398438)scale(0.1 -0.1)">
       <defs>
        <path id="DejaVuSans-31" d="M 794 531 
L 1825 531 
L 1825 4091 
L 703 3866 
L 703 4441 
L 1819 4666 
L 2450 4666 
L 2450 531 
L 3481 531 
L 3481 0 
L 794 0 
L 794 531 
z
" transform="scale(0.015625)"/>
       </defs>
       <use xlink:href="#DejaVuSans-31"/>
       <use xlink:href="#DejaVuSans-30" x="63.623047"/>
       <use xlink:href="#DejaVuSans-30" x="127.246094"/>
      </g>
     </g>
    </g>
    <g id="xtick_6">
     <g id="line2d_11">
      <path d="M 641.585535 253.8 
L 641.585535 64.8 
" clip-path="url(#p959076730d)" style="fill: none; stroke-dasharray: 0.8,1.32; stroke-dashoffset: 0; stroke: #b0b0b0; stroke-width: 0.8"/>
     </g>
     <g id="line2d_12">
      <g>
       <use xlink:href="#m52c9b41d08" x="641.585535" y="253.8" style="stroke: #000000; stroke-width: 0.8"/>
      </g>
     </g>
     <g id="text_6">
      <!-- 125 -->
      <g transform="translate(632.041785 268.398438)scale(0.1 -0.1)">
       <use xlink:href="#DejaVuSans-31"/>
       <use xlink:href="#DejaVuSans-32" x="63.623047"/>
       <use xlink:href="#DejaVuSans-35" x="127.246094"/>
      </g>
     </g>
    </g>
    <g id="xtick_7">
     <g id="line2d_13">
      <path d="M 735.293551 253.8 
L 735.293551 64.8 
" clip-path="url(#p959076730d)" style="fill: none; stroke-dasharray: 0.8,1.32; stroke-dashoffset: 0; stroke: #b0b0b0; stroke-width: 0.8"/>
     </g>
     <g id="line2d_14">
      <g>
       <use xlink:href="#m52c9b41d08" x="735.293551" y="253.8" style="stroke: #000000; stroke-width: 0.8"/>
      </g>
     </g>
     <g id="text_7">
      <!-- 150 -->
      <g transform="translate(725.749801 268.398438)scale(0.1 -0.1)">
       <use xlink:href="#DejaVuSans-31"/>
       <use xlink:href="#DejaVuSans-35" x="63.623047"/>
       <use xlink:href="#DejaVuSans-30" x="127.246094"/>
      </g>
     </g>
    </g>
    <g id="xtick_8">
     <g id="line2d_15">
      <path d="M 829.001567 253.8 
L 829.001567 64.8 
" clip-path="url(#p959076730d)" style="fill: none; stroke-dasharray: 0.8,1.32; stroke-dashoffset: 0; stroke: #b0b0b0; stroke-width: 0.8"/>
     </g>
     <g id="line2d_16">
      <g>
       <use xlink:href="#m52c9b41d08" x="829.001567" y="253.8" style="stroke: #000000; stroke-width: 0.8"/>
      </g>
     </g>
     <g id="text_8">
      <!-- 175 -->
      <g transform="translate(819.457817 268.398438)scale(0.1 -0.1)">
       <use xlink:href="#DejaVuSans-31"/>
       <use xlink:href="#DejaVuSans-37" x="63.623047"/>
       <use xlink:href="#DejaVuSans-35" x="127.246094"/>
      </g>
     </g>
    </g>
    <g id="xtick_9">
     <g id="line2d_17">
      <path d="M 922.709584 253.8 
L 922.709584 64.8 
" clip-path="url(#p959076730d)" style="fill: none; stroke-dasharray: 0.8,1.32; stroke-dashoffset: 0; stroke: #b0b0b0; stroke-width: 0.8"/>
     </g>
     <g id="line2d_18">
      <g>
       <use xlink:href="#m52c9b41d08" x="922.709584" y="253.8" style="stroke: #000000; stroke-width: 0.8"/>
      </g>
     </g>
     <g id="text_9">
      <!-- 200 -->
      <g transform="translate(913.165834 268.398438)scale(0.1 -0.1)">
       <use xlink:href="#DejaVuSans-32"/>
       <use xlink:href="#DejaVuSans-30" x="63.623047"/>
       <use xlink:href="#DejaVuSans-30" x="127.246094"/>
      </g>
     </g>
    </g>
    <g id="text_10">
     <!-- Number of Orders -->
     <g transform="translate(508.601562 282.076563)scale(0.1 -0.1)">
      <defs>
       <path id="DejaVuSans-4e" d="M 628 4666 
L 1478 4666 
L 3547 763 
L 3547 4666 
L 4159 4666 
L 4159 0 
L 3309 0 
L 1241 3903 
L 1241 0 
L 628 0 
L 628 4666 
z
" transform="scale(0.015625)"/>
       <path id="DejaVuSans-75" d="M 544 1381 
L 544 3500 
L 1119 3500 
L 1119 1403 
Q 1119 906 1312 657 
Q 1506 409 1894 409 
Q 2359 409 2629 706 
Q 2900 1003 2900 1516 
L 2900 3500 
L 3475 3500 
L 3475 0 
L 2900 0 
L 2900 538 
Q 2691 219 2414 64 
Q 2138 -91 1772 -91 
Q 1169 -91 856 284 
Q 544 659 544 1381 
z
M 1991 3584 
L 1991 3584 
z
" transform="scale(0.015625)"/>
       <path id="DejaVuSans-6d" d="M 3328 2828 
Q 3544 3216 3844 3400 
Q 4144 3584 4550 3584 
Q 5097 3584 5394 3201 
Q 5691 2819 5691 2113 
L 5691 0 
L 5113 0 
L 5113 2094 
Q 5113 2597 4934 2840 
Q 4756 3084 4391 3084 
Q 3944 3084 3684 2787 
Q 3425 2491 3425 1978 
L 3425 0 
L 2847 0 
L 2847 2094 
Q 2847 2600 2669 2842 
Q 2491 3084 2119 3084 
Q 1678 3084 1418 2786 
Q 1159 2488 1159 1978 
L 1159 0 
L 581 0 
L 581 3500 
L 1159 3500 
L 1159 2956 
Q 1356 3278 1631 3431 
Q 1906 3584 2284 3584 
Q 2666 3584 2933 3390 
Q 3200 3197 3328 2828 
z
" transform="scale(0.015625)"/>
       <path id="DejaVuSans-62" d="M 3116 1747 
Q 3116 2381 2855 2742 
Q 2594 3103 2138 3103 
Q 1681 3103 1420 2742 
Q 1159 2381 1159 1747 
Q 1159 1113 1420 752 
Q 1681 391 2138 391 
Q 2594 391 2855 752 
Q 3116 1113 3116 1747 
z
M 1159 2969 
Q 1341 3281 1617 3432 
Q 1894 3584 2278 3584 
Q 2916 3584 3314 3078 
Q 3713 2572 3713 1747 
Q 3713 922 3314 415 
Q 2916 -91 2278 -91 
Q 1894 -91 1617 61 
Q 1341 213 1159 525 
L 1159 0 
L 581 0 
L 581 4863 
L 1159 4863 
L 1159 2969 
z
" transform="scale(0.015625)"/>
       <path id="DejaVuSans-65" d="M 3597 1894 
L 3597 1613 
L 953 1613 
Q 991 1019 1311 708 
Q 1631 397 2203 397 
Q 2534 397 2845 478 
Q 3156 559 3463 722 
L 3463 178 
Q 3153 47 2828 -22 
Q 2503 -91 2169 -91 
Q 1331 -91 842 396 
Q 353 884 353 1716 
Q 353 2575 817 3079 
Q 1281 3584 2069 3584 
Q 2775 3584 3186 3129 
Q 3597 2675 3597 1894 
z
M 3022 2063 
Q 3016 2534 2758 2815 
Q 2500 3097 2075 3097 
Q 1594 3097 1305 2825 
Q 1016 2553 972 2059 
L 3022 2063 
z
" transform="scale(0.015625)"/>
       <path id="DejaVuSans-72" d="M 2631 2963 
Q 2534 3019 2420 3045 
Q 2306 3072 2169 3072 
Q 1681 3072 1420 2755 
Q 1159 2438 1159 1844 
L 1159 0 
L 581 0 
L 581 3500 
L 1159 3500 
L 1159 2956 
Q 1341 3275 1631 3429 
Q 1922 3584 2338 3584 
Q 2397 3584 2469 3576 
Q 2541 3569 2628 3553 
L 2631 2963 
z
" transform="scale(0.015625)"/>
       <path id="DejaVuSans-20" transform="scale(0.015625)"/>
       <path id="DejaVuSans-6f" d="M 1959 3097 
Q 1497 3097 1228 2736 
Q 959 2375 959 1747 
Q 959 1119 1226 758 
Q 1494 397 1959 397 
Q 2419 397 2687 759 
Q 2956 1122 2956 1747 
Q 2956 2369 2687 2733 
Q 2419 3097 1959 3097 
z
M 1959 3584 
Q 2709 3584 3137 3096 
Q 3566 2609 3566 1747 
Q 3566 888 3137 398 
Q 2709 -91 1959 -91 
Q 1206 -91 779 398 
Q 353 888 353 1747 
Q 353 2609 779 3096 
Q 1206 3584 1959 3584 
z
" transform="scale(0.015625)"/>
       <path id="DejaVuSans-66" d="M 2375 4863 
L 2375 4384 
L 1825 4384 
Q 1516 4384 1395 4259 
Q 1275 4134 1275 3809 
L 1275 3500 
L 2222 3500 
L 2222 3053 
L 1275 3053 
L 1275 0 
L 697 0 
L 697 3053 
L 147 3053 
L 147 3500 
L 697 3500 
L 697 3744 
Q 697 4328 969 4595 
Q 1241 4863 1831 4863 
L 2375 4863 
z
" transform="scale(0.015625)"/>
       <path id="DejaVuSans-4f" d="M 2522 4238 
Q 1834 4238 1429 3725 
Q 1025 3213 1025 2328 
Q 1025 1447 1429 934 
Q 1834 422 2522 422 
Q 3209 422 3611 934 
Q 4013 1447 4013 2328 
Q 4013 3213 3611 3725 
Q 3209 4238 2522 4238 
z
M 2522 4750 
Q 3503 4750 4090 4092 
Q 4678 3434 4678 2328 
Q 4678 1225 4090 567 
Q 3503 -91 2522 -91 
Q 1538 -91 948 565 
Q 359 1222 359 2328 
Q 359 3434 948 4092 
Q 1538 4750 2522 4750 
z
" transform="scale(0.015625)"/>
       <path id="DejaVuSans-64" d="M 2906 2969 
L 2906 4863 
L 3481 4863 
L 3481 0 
L 2906 0 
L 2906 525 
Q 2725 213 2448 61 
Q 2172 -91 1784 -91 
Q 1150 -91 751 415 
Q 353 922 353 1747 
Q 353 2572 751 3078 
Q 1150 3584 1784 3584 
Q 2172 3584 2448 3432 
Q 2725 3281 2906 2969 
z
M 947 1747 
Q 947 1113 1208 752 
Q 1469 391 1925 391 
Q 2381 391 2643 752 
Q 2906 1113 2906 1747 
Q 2906 2381 2643 2742 
Q 2381 3103 1925 3103 
Q 1469 3103 1208 2742 
Q 947 2381 947 1747 
z
" transform="scale(0.015625)"/>
       <path id="DejaVuSans-73" d="M 2834 3397 
L 2834 2853 
Q 2591 2978 2328 3040 
Q 2066 3103 1784 3103 
Q 1356 3103 1142 2972 
Q 928 2841 928 2578 
Q 928 2378 1081 2264 
Q 1234 2150 1697 2047 
L 1894 2003 
Q 2506 1872 2764 1633 
Q 3022 1394 3022 966 
Q 3022 478 2636 193 
Q 2250 -91 1575 -91 
Q 1294 -91 989 -36 
Q 684 19 347 128 
L 347 722 
Q 666 556 975 473 
Q 1284 391 1588 391 
Q 1994 391 2212 530 
Q 2431 669 2431 922 
Q 2431 1156 2273 1281 
Q 2116 1406 1581 1522 
L 1381 1569 
Q 847 1681 609 1914 
Q 372 2147 372 2553 
Q 372 3047 722 3315 
Q 1072 3584 1716 3584 
Q 2034 3584 2315 3537 
Q 2597 3491 2834 3397 
z
" transform="scale(0.015625)"/>
      </defs>
      <use xlink:href="#DejaVuSans-4e"/>
      <use xlink:href="#DejaVuSans-75" x="74.804688"/>
      <use xlink:href="#DejaVuSans-6d" x="138.183594"/>
      <use xlink:href="#DejaVuSans-62" x="235.595703"/>
      <use xlink:href="#DejaVuSans-65" x="299.072266"/>
      <use xlink:href="#DejaVuSans-72" x="360.595703"/>
      <use xlink:href="#DejaVuSans-20" x="401.708984"/>
      <use xlink:href="#DejaVuSans-6f" x="433.496094"/>
      <use xlink:href="#DejaVuSans-66" x="494.677734"/>
      <use xlink:href="#DejaVuSans-20" x="529.882812"/>
      <use xlink:href="#DejaVuSans-4f" x="561.669922"/>
      <use xlink:href="#DejaVuSans-72" x="640.380859"/>
      <use xlink:href="#DejaVuSans-64" x="679.744141"/>
      <use xlink:href="#DejaVuSans-65" x="743.220703"/>
      <use xlink:href="#DejaVuSans-72" x="804.744141"/>
      <use xlink:href="#DejaVuSans-73" x="845.857422"/>
     </g>
    </g>
   </g>
   <g id="matplotlib.axis_2">
    <g id="ytick_1">
     <g id="line2d_19">
      <path d="M 135 243.058971 
L 972 243.058971 
" clip-path="url(#p959076730d)" style="fill: none; stroke-dasharray: 0.8,1.32; stroke-dashoffset: 0; stroke: #b0b0b0; stroke-width: 0.8"/>
     </g>
     <g id="line2d_20">
      <defs>
       <path id="m2065003d11" d="M 0 0 
L -3.5 0 
" style="stroke: #000000; stroke-width: 0.8"/>
      </defs>
      <g>
       <use xlink:href="#m2065003d11" x="135" y="243.058971" style="stroke: #000000; stroke-width: 0.8"/>
      </g>
     </g>
     <g id="text_11">
      <!-- 20 -->
      <g transform="translate(115.275 246.85819)scale(0.1 -0.1)">
       <use xlink:href="#DejaVuSans-32"/>
       <use xlink:href="#DejaVuSans-30" x="63.623047"/>
      </g>
     </g>
    </g>
    <g id="ytick_2">
     <g id="line2d_21">
      <path d="M 135 221.557777 
L 972 221.557777 
" clip-path="url(#p959076730d)" style="fill: none; stroke-dasharray: 0.8,1.32; stroke-dashoffset: 0; stroke: #b0b0b0; stroke-width: 0.8"/>
     </g>
     <g id="line2d_22">
      <g>
       <use xlink:href="#m2065003d11" x="135" y="221.557777" style="stroke: #000000; stroke-width: 0.8"/>
      </g>
     </g>
     <g id="text_12">
      <!-- 30 -->
      <g transform="translate(115.275 225.356996)scale(0.1 -0.1)">
       <defs>
        <path id="DejaVuSans-33" d="M 2597 2516 
Q 3050 2419 3304 2112 
Q 3559 1806 3559 1356 
Q 3559 666 3084 287 
Q 2609 -91 1734 -91 
Q 1441 -91 1130 -33 
Q 819 25 488 141 
L 488 750 
Q 750 597 1062 519 
Q 1375 441 1716 441 
Q 2309 441 2620 675 
Q 2931 909 2931 1356 
Q 2931 1769 2642 2001 
Q 2353 2234 1838 2234 
L 1294 2234 
L 1294 2753 
L 1863 2753 
Q 2328 2753 2575 2939 
Q 2822 3125 2822 3475 
Q 2822 3834 2567 4026 
Q 2313 4219 1838 4219 
Q 1578 4219 1281 4162 
Q 984 4106 628 3988 
L 628 4550 
Q 988 4650 1302 4700 
Q 1616 4750 1894 4750 
Q 2613 4750 3031 4423 
Q 3450 4097 3450 3541 
Q 3450 3153 3228 2886 
Q 3006 2619 2597 2516 
z
" transform="scale(0.015625)"/>
       </defs>
       <use xlink:href="#DejaVuSans-33"/>
       <use xlink:href="#DejaVuSans-30" x="63.623047"/>
      </g>
     </g>
    </g>
    <g id="ytick_3">
     <g id="line2d_23">
      <path d="M 135 200.056582 
L 972 200.056582 
" clip-path="url(#p959076730d)" style="fill: none; stroke-dasharray: 0.8,1.32; stroke-dashoffset: 0; stroke: #b0b0b0; stroke-width: 0.8"/>
     </g>
     <g id="line2d_24">
      <g>
       <use xlink:href="#m2065003d11" x="135" y="200.056582" style="stroke: #000000; stroke-width: 0.8"/>
      </g>
     </g>
     <g id="text_13">
      <!-- 40 -->
      <g transform="translate(115.275 203.855801)scale(0.1 -0.1)">
       <defs>
        <path id="DejaVuSans-34" d="M 2419 4116 
L 825 1625 
L 2419 1625 
L 2419 4116 
z
M 2253 4666 
L 3047 4666 
L 3047 1625 
L 3713 1625 
L 3713 1100 
L 3047 1100 
L 3047 0 
L 2419 0 
L 2419 1100 
L 313 1100 
L 313 1709 
L 2253 4666 
z
" transform="scale(0.015625)"/>
       </defs>
       <use xlink:href="#DejaVuSans-34"/>
       <use xlink:href="#DejaVuSans-30" x="63.623047"/>
      </g>
     </g>
    </g>
    <g id="ytick_4">
     <g id="line2d_25">
      <path d="M 135 178.555388 
L 972 178.555388 
" clip-path="url(#p959076730d)" style="fill: none; stroke-dasharray: 0.8,1.32; stroke-dashoffset: 0; stroke: #b0b0b0; stroke-width: 0.8"/>
     </g>
     <g id="line2d_26">
      <g>
       <use xlink:href="#m2065003d11" x="135" y="178.555388" style="stroke: #000000; stroke-width: 0.8"/>
      </g>
     </g>
     <g id="text_14">
      <!-- 50 -->
      <g transform="translate(115.275 182.354607)scale(0.1 -0.1)">
       <use xlink:href="#DejaVuSans-35"/>
       <use xlink:href="#DejaVuSans-30" x="63.623047"/>
      </g>
     </g>
    </g>
    <g id="ytick_5">
     <g id="line2d_27">
      <path d="M 135 157.054193 
L 972 157.054193 
" clip-path="url(#p959076730d)" style="fill: none; stroke-dasharray: 0.8,1.32; stroke-dashoffset: 0; stroke: #b0b0b0; stroke-width: 0.8"/>
     </g>
     <g id="line2d_28">
      <g>
       <use xlink:href="#m2065003d11" x="135" y="157.054193" style="stroke: #000000; stroke-width: 0.8"/>
      </g>
     </g>
     <g id="text_15">
      <!-- 60 -->
      <g transform="translate(115.275 160.853412)scale(0.1 -0.1)">
       <defs>
        <path id="DejaVuSans-36" d="M 2113 2584 
Q 1688 2584 1439 2293 
Q 1191 2003 1191 1497 
Q 1191 994 1439 701 
Q 1688 409 2113 409 
Q 2538 409 2786 701 
Q 3034 994 3034 1497 
Q 3034 2003 2786 2293 
Q 2538 2584 2113 2584 
z
M 3366 4563 
L 3366 3988 
Q 3128 4100 2886 4159 
Q 2644 4219 2406 4219 
Q 1781 4219 1451 3797 
Q 1122 3375 1075 2522 
Q 1259 2794 1537 2939 
Q 1816 3084 2150 3084 
Q 2853 3084 3261 2657 
Q 3669 2231 3669 1497 
Q 3669 778 3244 343 
Q 2819 -91 2113 -91 
Q 1303 -91 875 529 
Q 447 1150 447 2328 
Q 447 3434 972 4092 
Q 1497 4750 2381 4750 
Q 2619 4750 2861 4703 
Q 3103 4656 3366 4563 
z
" transform="scale(0.015625)"/>
       </defs>
       <use xlink:href="#DejaVuSans-36"/>
       <use xlink:href="#DejaVuSans-30" x="63.623047"/>
      </g>
     </g>
    </g>
    <g id="ytick_6">
     <g id="line2d_29">
      <path d="M 135 135.552999 
L 972 135.552999 
" clip-path="url(#p959076730d)" style="fill: none; stroke-dasharray: 0.8,1.32; stroke-dashoffset: 0; stroke: #b0b0b0; stroke-width: 0.8"/>
     </g>
     <g id="line2d_30">
      <g>
       <use xlink:href="#m2065003d11" x="135" y="135.552999" style="stroke: #000000; stroke-width: 0.8"/>
      </g>
     </g>
     <g id="text_16">
      <!-- 70 -->
      <g transform="translate(115.275 139.352218)scale(0.1 -0.1)">
       <use xlink:href="#DejaVuSans-37"/>
       <use xlink:href="#DejaVuSans-30" x="63.623047"/>
      </g>
     </g>
    </g>
    <g id="ytick_7">
     <g id="line2d_31">
      <path d="M 135 114.051804 
L 972 114.051804 
" clip-path="url(#p959076730d)" style="fill: none; stroke-dasharray: 0.8,1.32; stroke-dashoffset: 0; stroke: #b0b0b0; stroke-width: 0.8"/>
     </g>
     <g id="line2d_32">
      <g>
       <use xlink:href="#m2065003d11" x="135" y="114.051804" style="stroke: #000000; stroke-width: 0.8"/>
      </g>
     </g>
     <g id="text_17">
      <!-- 80 -->
      <g transform="translate(115.275 117.851023)scale(0.1 -0.1)">
       <defs>
        <path id="DejaVuSans-38" d="M 2034 2216 
Q 1584 2216 1326 1975 
Q 1069 1734 1069 1313 
Q 1069 891 1326 650 
Q 1584 409 2034 409 
Q 2484 409 2743 651 
Q 3003 894 3003 1313 
Q 3003 1734 2745 1975 
Q 2488 2216 2034 2216 
z
M 1403 2484 
Q 997 2584 770 2862 
Q 544 3141 544 3541 
Q 544 4100 942 4425 
Q 1341 4750 2034 4750 
Q 2731 4750 3128 4425 
Q 3525 4100 3525 3541 
Q 3525 3141 3298 2862 
Q 3072 2584 2669 2484 
Q 3125 2378 3379 2068 
Q 3634 1759 3634 1313 
Q 3634 634 3220 271 
Q 2806 -91 2034 -91 
Q 1263 -91 848 271 
Q 434 634 434 1313 
Q 434 1759 690 2068 
Q 947 2378 1403 2484 
z
M 1172 3481 
Q 1172 3119 1398 2916 
Q 1625 2713 2034 2713 
Q 2441 2713 2670 2916 
Q 2900 3119 2900 3481 
Q 2900 3844 2670 4047 
Q 2441 4250 2034 4250 
Q 1625 4250 1398 4047 
Q 1172 3844 1172 3481 
z
" transform="scale(0.015625)"/>
       </defs>
       <use xlink:href="#DejaVuSans-38"/>
       <use xlink:href="#DejaVuSans-30" x="63.623047"/>
      </g>
     </g>
    </g>
    <g id="ytick_8">
     <g id="line2d_33">
      <path d="M 135 92.55061 
L 972 92.55061 
" clip-path="url(#p959076730d)" style="fill: none; stroke-dasharray: 0.8,1.32; stroke-dashoffset: 0; stroke: #b0b0b0; stroke-width: 0.8"/>
     </g>
     <g id="line2d_34">
      <g>
       <use xlink:href="#m2065003d11" x="135" y="92.55061" style="stroke: #000000; stroke-width: 0.8"/>
      </g>
     </g>
     <g id="text_18">
      <!-- 90 -->
      <g transform="translate(115.275 96.349829)scale(0.1 -0.1)">
       <defs>
        <path id="DejaVuSans-39" d="M 703 97 
L 703 672 
Q 941 559 1184 500 
Q 1428 441 1663 441 
Q 2288 441 2617 861 
Q 2947 1281 2994 2138 
Q 2813 1869 2534 1725 
Q 2256 1581 1919 1581 
Q 1219 1581 811 2004 
Q 403 2428 403 3163 
Q 403 3881 828 4315 
Q 1253 4750 1959 4750 
Q 2769 4750 3195 4129 
Q 3622 3509 3622 2328 
Q 3622 1225 3098 567 
Q 2575 -91 1691 -91 
Q 1453 -91 1209 -44 
Q 966 3 703 97 
z
M 1959 2075 
Q 2384 2075 2632 2365 
Q 2881 2656 2881 3163 
Q 2881 3666 2632 3958 
Q 2384 4250 1959 4250 
Q 1534 4250 1286 3958 
Q 1038 3666 1038 3163 
Q 1038 2656 1286 2365 
Q 1534 2075 1959 2075 
z
" transform="scale(0.015625)"/>
       </defs>
       <use xlink:href="#DejaVuSans-39"/>
       <use xlink:href="#DejaVuSans-30" x="63.623047"/>
      </g>
     </g>
    </g>
    <g id="ytick_9">
     <g id="line2d_35">
      <path d="M 135 71.049415 
L 972 71.049415 
" clip-path="url(#p959076730d)" style="fill: none; stroke-dasharray: 0.8,1.32; stroke-dashoffset: 0; stroke: #b0b0b0; stroke-width: 0.8"/>
     </g>
     <g id="line2d_36">
      <g>
       <use xlink:href="#m2065003d11" x="135" y="71.049415" style="stroke: #000000; stroke-width: 0.8"/>
      </g>
     </g>
     <g id="text_19">
      <!-- 100 -->
      <g transform="translate(108.9125 74.848634)scale(0.1 -0.1)">
       <use xlink:href="#DejaVuSans-31"/>
       <use xlink:href="#DejaVuSans-30" x="63.623047"/>
       <use xlink:href="#DejaVuSans-30" x="127.246094"/>
      </g>
     </g>
    </g>
    <g id="text_20">
     <!-- Waiting Time -->
     <g transform="translate(102.832812 191.892969)rotate(-90)scale(0.1 -0.1)">
      <defs>
       <path id="DejaVuSans-57" d="M 213 4666 
L 850 4666 
L 1831 722 
L 2809 4666 
L 3519 4666 
L 4500 722 
L 5478 4666 
L 6119 4666 
L 4947 0 
L 4153 0 
L 3169 4050 
L 2175 0 
L 1381 0 
L 213 4666 
z
" transform="scale(0.015625)"/>
       <path id="DejaVuSans-61" d="M 2194 1759 
Q 1497 1759 1228 1600 
Q 959 1441 959 1056 
Q 959 750 1161 570 
Q 1363 391 1709 391 
Q 2188 391 2477 730 
Q 2766 1069 2766 1631 
L 2766 1759 
L 2194 1759 
z
M 3341 1997 
L 3341 0 
L 2766 0 
L 2766 531 
Q 2569 213 2275 61 
Q 1981 -91 1556 -91 
Q 1019 -91 701 211 
Q 384 513 384 1019 
Q 384 1609 779 1909 
Q 1175 2209 1959 2209 
L 2766 2209 
L 2766 2266 
Q 2766 2663 2505 2880 
Q 2244 3097 1772 3097 
Q 1472 3097 1187 3025 
Q 903 2953 641 2809 
L 641 3341 
Q 956 3463 1253 3523 
Q 1550 3584 1831 3584 
Q 2591 3584 2966 3190 
Q 3341 2797 3341 1997 
z
" transform="scale(0.015625)"/>
       <path id="DejaVuSans-69" d="M 603 3500 
L 1178 3500 
L 1178 0 
L 603 0 
L 603 3500 
z
M 603 4863 
L 1178 4863 
L 1178 4134 
L 603 4134 
L 603 4863 
z
" transform="scale(0.015625)"/>
       <path id="DejaVuSans-74" d="M 1172 4494 
L 1172 3500 
L 2356 3500 
L 2356 3053 
L 1172 3053 
L 1172 1153 
Q 1172 725 1289 603 
Q 1406 481 1766 481 
L 2356 481 
L 2356 0 
L 1766 0 
Q 1100 0 847 248 
Q 594 497 594 1153 
L 594 3053 
L 172 3053 
L 172 3500 
L 594 3500 
L 594 4494 
L 1172 4494 
z
" transform="scale(0.015625)"/>
       <path id="DejaVuSans-6e" d="M 3513 2113 
L 3513 0 
L 2938 0 
L 2938 2094 
Q 2938 2591 2744 2837 
Q 2550 3084 2163 3084 
Q 1697 3084 1428 2787 
Q 1159 2491 1159 1978 
L 1159 0 
L 581 0 
L 581 3500 
L 1159 3500 
L 1159 2956 
Q 1366 3272 1645 3428 
Q 1925 3584 2291 3584 
Q 2894 3584 3203 3211 
Q 3513 2838 3513 2113 
z
" transform="scale(0.015625)"/>
       <path id="DejaVuSans-67" d="M 2906 1791 
Q 2906 2416 2648 2759 
Q 2391 3103 1925 3103 
Q 1463 3103 1205 2759 
Q 947 2416 947 1791 
Q 947 1169 1205 825 
Q 1463 481 1925 481 
Q 2391 481 2648 825 
Q 2906 1169 2906 1791 
z
M 3481 434 
Q 3481 -459 3084 -895 
Q 2688 -1331 1869 -1331 
Q 1566 -1331 1297 -1286 
Q 1028 -1241 775 -1147 
L 775 -588 
Q 1028 -725 1275 -790 
Q 1522 -856 1778 -856 
Q 2344 -856 2625 -561 
Q 2906 -266 2906 331 
L 2906 616 
Q 2728 306 2450 153 
Q 2172 0 1784 0 
Q 1141 0 747 490 
Q 353 981 353 1791 
Q 353 2603 747 3093 
Q 1141 3584 1784 3584 
Q 2172 3584 2450 3431 
Q 2728 3278 2906 2969 
L 2906 3500 
L 3481 3500 
L 3481 434 
z
" transform="scale(0.015625)"/>
       <path id="DejaVuSans-54" d="M -19 4666 
L 3928 4666 
L 3928 4134 
L 2272 4134 
L 2272 0 
L 1638 0 
L 1638 4134 
L -19 4134 
L -19 4666 
z
" transform="scale(0.015625)"/>
      </defs>
      <use xlink:href="#DejaVuSans-57"/>
      <use xlink:href="#DejaVuSans-61" x="92.501953"/>
      <use xlink:href="#DejaVuSans-69" x="153.78125"/>
      <use xlink:href="#DejaVuSans-74" x="181.564453"/>
      <use xlink:href="#DejaVuSans-69" x="220.773438"/>
      <use xlink:href="#DejaVuSans-6e" x="248.556641"/>
      <use xlink:href="#DejaVuSans-67" x="311.935547"/>
      <use xlink:href="#DejaVuSans-20" x="375.412109"/>
      <use xlink:href="#DejaVuSans-54" x="407.199219"/>
      <use xlink:href="#DejaVuSans-69" x="465.158203"/>
      <use xlink:href="#DejaVuSans-6d" x="492.941406"/>
      <use xlink:href="#DejaVuSans-65" x="590.353516"/>
     </g>
    </g>
   </g>
   <g id="line2d_37">
    <path d="M 173.045455 227.21406 
L 176.793775 182.336286 
L 180.542096 215.770072 
L 184.290416 215.047739 
L 188.038737 201.098742 
L 191.787058 154.880706 
L 195.535378 242.230821 
L 199.283699 184.038275 
L 203.03202 184.4703 
L 206.78034 185.789159 
L 210.528661 204.685103 
L 214.276982 190.771872 
L 218.025302 196.456109 
L 221.773623 243.058971 
L 225.521944 92.441146 
L 229.270264 182.734949 
L 233.018585 197.535557 
L 236.766906 159.756912 
L 240.515226 208.940957 
L 244.263547 178.349618 
L 248.011867 192.653882 
L 251.760188 192.433578 
L 255.508509 142.434271 
L 259.256829 189.756388 
L 263.00515 178.709125 
L 266.753471 135.05324 
L 270.501791 143.352663 
L 274.250112 198.530169 
L 277.998433 197.044786 
L 281.746753 181.992486 
L 285.495074 186.262917 
L 289.243395 215.266437 
L 292.991715 217.320832 
L 296.740036 215.047739 
L 300.488356 179.278807 
L 304.236677 188.541162 
L 307.984998 222.503357 
L 311.733318 209.194954 
L 315.481639 185.665539 
L 319.22996 149.178965 
L 322.97828 169.87431 
L 326.726601 153.89156 
L 330.474922 148.699294 
L 334.223242 147.190385 
L 337.971563 152.596114 
L 341.719884 186.785709 
L 345.468204 121.917799 
L 349.216525 188.031757 
L 352.964845 197.61875 
L 356.713166 163.09593 
L 360.461487 179.258382 
L 364.209807 180.144417 
L 367.958128 143.860494 
L 371.706449 181.621278 
L 375.454769 201.805117 
L 379.20309 160.731496 
L 382.951411 225.858016 
L 386.699731 228.008135 
L 390.448052 200.923623 
L 394.196373 169.99055 
L 397.944693 191.307996 
L 401.693014 218.80816 
L 405.441335 209.670145 
L 409.189655 192.691691 
L 412.937976 157.054193 
L 416.686296 169.514634 
L 420.434617 221.845745 
L 424.182938 189.127057 
L 427.931258 181.91727 
L 431.679579 182.855627 
L 435.4279 128.949023 
L 439.17622 180.876508 
L 442.924541 158.595443 
L 446.672862 201.805117 
L 450.421182 217.194354 
L 454.169503 157.215756 
L 457.917824 160.192388 
L 461.666144 125.592705 
L 465.414465 223.024543 
L 469.162785 114.749522 
L 472.911106 149.8896 
L 476.659427 203.949115 
L 480.407747 197.006818 
L 484.156068 188.416239 
L 487.904389 176.017516 
L 491.652709 187.618115 
L 495.40103 178.27945 
L 499.149351 170.148092 
L 502.897671 231.194001 
L 506.645992 204.779302 
L 510.394313 150.816069 
L 514.142633 227.829577 
L 517.890954 245.209091 
L 521.639275 195.980294 
L 525.387595 152.389421 
L 529.135916 128.833379 
L 532.884236 200.40171 
L 536.632557 73.390909 
L 540.380878 168.636006 
L 544.129198 176.285909 
L 547.877519 194.493013 
L 551.62584 167.563241 
L 555.37416 177.548496 
L 559.122481 185.277787 
L 562.870802 154.067414 
L 566.619122 164.198327 
L 570.367443 169.515014 
L 574.115764 194.788797 
L 577.864084 205.392567 
L 581.612405 135.169217 
L 585.360725 177.386603 
L 589.109046 221.845745 
L 592.857367 193.567841 
L 596.605687 169.097118 
L 600.354008 126.741542 
L 604.102329 129.54809 
L 607.850649 183.128803 
L 611.59897 165.109785 
L 615.347291 142.941165 
L 619.095611 133.52656 
L 622.843932 135.578371 
L 626.592253 218.16829 
L 630.340573 191.496209 
L 634.088894 221.486186 
L 637.837215 177.457619 
L 641.585535 228.643066 
L 645.333856 152.467116 
L 649.082176 144.722964 
L 652.830497 187.017292 
L 656.578818 180.201335 
L 660.327138 170.314032 
L 664.075459 169.580304 
L 667.82378 163.001863 
L 671.5721 202.677891 
L 675.320421 207.795003 
L 679.068742 162.079979 
L 682.817062 139.577761 
L 686.565383 218.364312 
L 690.313704 169.649302 
L 694.062024 225.775441 
L 697.810345 206.032109 
L 701.558665 166.964412 
L 705.306986 185.277787 
L 709.055307 214.409634 
L 712.803627 194.340203 
L 716.551948 216.692752 
L 720.300269 155.442247 
L 724.048589 129.411055 
L 727.79691 182.721344 
L 731.545231 179.91925 
L 735.293551 169.515014 
L 739.041872 175.32048 
L 742.790193 200.866623 
L 746.538513 188.719413 
L 750.286834 190.572659 
L 754.035155 184.972159 
L 757.783475 112.61189 
L 761.531796 141.503992 
L 765.280116 172.203117 
L 769.028437 197.048786 
L 772.776758 176.062356 
L 776.525078 235.313542 
L 780.273399 207.076428 
L 784.02172 223.25063 
L 787.77004 103.359187 
L 791.518361 212.451195 
L 795.266682 147.29188 
L 799.015002 171.216639 
L 802.763323 191.123353 
L 806.511644 208.984708 
L 810.259964 123.033456 
L 814.008285 206.616547 
L 817.756605 243.058971 
L 821.504926 215.347063 
L 825.253247 236.608613 
L 829.001567 225.775441 
L 832.749888 152.299115 
L 836.498209 208.249354 
L 840.246529 155.888697 
L 843.99485 152.593966 
L 847.743171 188.010041 
L 851.491491 180.299649 
L 855.239812 105.861486 
L 858.988133 173.10129 
L 862.736453 238.304837 
L 866.484774 195.597293 
L 870.233094 197.466269 
L 873.981415 188.310281 
L 877.729736 212.061801 
L 881.478056 217.881532 
L 885.226377 119.760476 
L 888.974698 144.687139 
L 892.723018 171.484979 
L 896.471339 140.298446 
L 900.21966 216.752301 
L 903.96798 236.474752 
L 907.716301 162.461117 
L 911.464622 127.811289 
L 915.212942 176.256098 
L 918.961263 180.233461 
L 922.709584 222.384234 
L 926.457904 136.561437 
L 930.206225 189.377696 
L 933.954545 186.844479 
L 933.954545 186.844479 
" clip-path="url(#p959076730d)" style="fill: none; stroke: #000000; stroke-width: 1.5; stroke-linecap: square"/>
   </g>
   <g id="line2d_38">
    <path d="M 206.78034 199.287616 
L 210.528661 197.03472 
L 214.276982 197.878279 
L 218.025302 195.946883 
L 221.773623 198.748006 
L 225.521944 187.882246 
L 229.270264 190.667671 
L 233.018585 186.198144 
L 236.766906 183.770008 
L 240.515226 186.217074 
L 244.263547 185.47312 
L 248.011867 184.269997 
L 251.760188 184.436168 
L 259.256829 173.703726 
L 263.00515 182.330524 
L 266.753471 177.562353 
L 270.501791 172.144063 
L 274.250112 176.021389 
L 277.998433 174.831772 
L 281.746753 175.196059 
L 285.495074 174.556963 
L 289.243395 176.840248 
L 292.991715 184.328904 
L 296.740036 186.85804 
L 300.488356 186.915008 
L 304.236677 192.2638 
L 307.984998 200.178869 
L 311.733318 201.245348 
L 315.481639 200.107423 
L 319.22996 196.826071 
L 322.97828 195.18721 
L 326.726601 189.049722 
L 334.223242 175.401833 
L 337.971563 172.733564 
L 341.719884 172.558019 
L 345.468204 162.499463 
L 349.216525 160.383143 
L 352.964845 161.578464 
L 356.713166 162.970161 
L 360.461487 163.908568 
L 364.209807 166.533854 
L 367.958128 166.049974 
L 371.706449 169.493063 
L 375.454769 174.413963 
L 379.20309 171.808542 
L 382.951411 182.202564 
L 386.699731 186.200202 
L 390.448052 186.530689 
L 394.196373 187.220151 
L 397.944693 188.425112 
L 401.693014 192.291487 
L 405.441335 198.872452 
L 409.189655 199.979493 
L 412.937976 195.504401 
L 416.686296 196.382714 
L 420.434617 195.981487 
L 424.182938 192.093379 
L 427.931258 190.192744 
L 431.679579 191.479252 
L 435.4279 185.243354 
L 439.17622 181.450189 
L 442.924541 176.342719 
L 446.672862 177.254062 
L 450.421182 183.268078 
L 454.169503 182.03819 
L 461.666144 169.519419 
L 465.414465 173.630146 
L 469.162785 166.819536 
L 472.911106 168.913594 
L 476.659427 171.220854 
L 480.407747 175.061992 
L 484.156068 173.723104 
L 487.904389 169.60542 
L 491.652709 172.645656 
L 495.40103 174.454362 
L 499.149351 178.909901 
L 502.897671 179.726847 
L 506.645992 188.729825 
L 510.394313 188.822472 
L 514.142633 191.210518 
L 517.890954 196.030745 
L 521.639275 196.78715 
L 525.387595 194.424341 
L 529.135916 188.545867 
L 532.884236 190.758093 
L 536.632557 181.082375 
L 540.380878 174.826576 
L 544.129198 171.977236 
L 547.877519 176.344931 
L 551.62584 170.318297 
L 555.37416 163.552238 
L 559.122481 162.481987 
L 562.870802 162.649787 
L 566.619122 166.186281 
L 570.367443 163.097612 
L 574.115764 175.2374 
L 577.864084 178.913057 
L 581.612405 174.801387 
L 585.360725 173.090746 
L 589.109046 178.518997 
L 592.857367 180.120931 
L 596.605687 178.502864 
L 600.354008 175.770277 
L 604.102329 172.305253 
L 607.850649 173.666632 
L 611.59897 170.698731 
L 615.347291 164.453591 
L 619.095611 164.289325 
L 622.843932 160.108502 
L 626.592253 159.740757 
L 630.340573 159.533593 
L 637.837215 169.844108 
L 641.585535 179.753605 
L 645.333856 176.687437 
L 649.082176 174.648755 
L 652.830497 179.056367 
L 656.578818 183.723845 
L 660.327138 187.197411 
L 664.075459 182.338612 
L 667.82378 179.489178 
L 671.5721 177.608348 
L 675.320421 180.642087 
L 679.068742 173.985778 
L 682.817062 172.696843 
L 686.565383 180.060977 
L 690.313704 178.324178 
L 694.062024 182.881589 
L 697.810345 186.453396 
L 701.558665 186.191807 
L 705.306986 188.4194 
L 709.055307 189.592574 
L 712.803627 188.247094 
L 716.551948 193.708371 
L 720.300269 195.29482 
L 724.048589 186.399494 
L 727.79691 187.706698 
L 731.545231 183.121079 
L 735.293551 179.46937 
L 739.041872 180.304977 
L 742.790193 181.86386 
L 746.538513 179.294838 
L 750.286834 178.918084 
L 754.035155 175.746024 
L 757.783475 171.462989 
L 761.531796 172.672282 
L 765.280116 171.62046 
L 769.028437 173.333413 
L 772.776758 173.988147 
L 776.525078 179.987454 
L 780.273399 180.608434 
L 784.02172 184.061556 
L 787.77004 175.340209 
L 791.518361 178.088112 
L 795.266682 181.556111 
L 799.015002 184.527376 
L 802.763323 186.4194 
L 806.511644 187.612992 
L 810.259964 182.310102 
L 814.008285 179.440402 
L 817.756605 183.038657 
L 821.504926 182.2483 
L 825.253247 195.573243 
L 829.001567 196.905667 
L 832.749888 197.406391 
L 836.498209 201.109662 
L 840.246529 197.586197 
L 843.99485 191.947122 
L 847.743171 198.444781 
L 851.491491 195.813091 
L 855.239812 182.093342 
L 858.988133 177.868765 
L 862.736453 178.038388 
L 866.484774 175.020573 
L 870.233094 179.537288 
L 873.981415 177.543381 
L 877.729736 183.160691 
L 881.478056 189.689448 
L 885.226377 182.864491 
L 888.974698 179.30324 
L 892.723018 185.86559 
L 896.471339 182.585305 
L 900.21966 180.430052 
L 903.96798 184.517797 
L 907.716301 181.017282 
L 911.464622 174.967383 
L 915.212942 171.386813 
L 918.961263 167.622006 
L 922.709584 177.884382 
L 926.457904 177.071811 
L 930.206225 178.861083 
L 933.954545 183.515686 
L 933.954545 183.515686 
" clip-path="url(#p959076730d)" style="fill: none; stroke: #ff0000; stroke-width: 1.5; stroke-linecap: square"/>
   </g>
   <g id="patch_3">
    <path d="M 135 253.8 
L 135 64.8 
" style="fill: none; stroke: #000000; stroke-width: 0.8; stroke-linejoin: miter; stroke-linecap: square"/>
   </g>
   <g id="patch_4">
    <path d="M 972 253.8 
L 972 64.8 
" style="fill: none; stroke: #000000; stroke-width: 0.8; stroke-linejoin: miter; stroke-linecap: square"/>
   </g>
   <g id="patch_5">
    <path d="M 135 253.8 
L 972 253.8 
" style="fill: none; stroke: #000000; stroke-width: 0.8; stroke-linejoin: miter; stroke-linecap: square"/>
   </g>
   <g id="patch_6">
    <path d="M 135 64.8 
L 972 64.8 
" style="fill: none; stroke: #000000; stroke-width: 0.8; stroke-linejoin: miter; stroke-linecap: square"/>
   </g>
   <g id="text_21">
    <!-- Default -->
    <g transform="translate(531.5775 58.8)scale(0.12 -0.12)">
     <defs>
      <path id="DejaVuSans-44" d="M 1259 4147 
L 1259 519 
L 2022 519 
Q 2988 519 3436 956 
Q 3884 1394 3884 2338 
Q 3884 3275 3436 3711 
Q 2988 4147 2022 4147 
L 1259 4147 
z
M 628 4666 
L 1925 4666 
Q 3281 4666 3915 4102 
Q 4550 3538 4550 2338 
Q 4550 1131 3912 565 
Q 3275 0 1925 0 
L 628 0 
L 628 4666 
z
" transform="scale(0.015625)"/>
      <path id="DejaVuSans-6c" d="M 603 4863 
L 1178 4863 
L 1178 0 
L 603 0 
L 603 4863 
z
" transform="scale(0.015625)"/>
     </defs>
     <use xlink:href="#DejaVuSans-44"/>
     <use xlink:href="#DejaVuSans-65" x="77.001953"/>
     <use xlink:href="#DejaVuSans-66" x="138.525391"/>
     <use xlink:href="#DejaVuSans-61" x="173.730469"/>
     <use xlink:href="#DejaVuSans-75" x="235.009766"/>
     <use xlink:href="#DejaVuSans-6c" x="298.388672"/>
     <use xlink:href="#DejaVuSans-74" x="326.171875"/>
    </g>
   </g>
   <g id="legend_1">
    <g id="patch_7">
     <path d="M 142 102.15625 
L 259.09375 102.15625 
Q 261.09375 102.15625 261.09375 100.15625 
L 261.09375 71.8 
Q 261.09375 69.8 259.09375 69.8 
L 142 69.8 
Q 140 69.8 140 71.8 
L 140 100.15625 
Q 140 102.15625 142 102.15625 
z
" style="fill: #ffffff; opacity: 0.8; stroke: #cccccc; stroke-linejoin: miter"/>
    </g>
    <g id="line2d_39">
     <path d="M 144 77.898438 
L 154 77.898438 
L 164 77.898438 
" style="fill: none; stroke: #000000; stroke-width: 1.5; stroke-linecap: square"/>
    </g>
    <g id="text_22">
     <!-- Original -->
     <g transform="translate(172 81.398438)scale(0.1 -0.1)">
      <use xlink:href="#DejaVuSans-4f"/>
      <use xlink:href="#DejaVuSans-72" x="78.710938"/>
      <use xlink:href="#DejaVuSans-69" x="119.824219"/>
      <use xlink:href="#DejaVuSans-67" x="147.607422"/>
      <use xlink:href="#DejaVuSans-69" x="211.083984"/>
      <use xlink:href="#DejaVuSans-6e" x="238.867188"/>
      <use xlink:href="#DejaVuSans-61" x="302.246094"/>
      <use xlink:href="#DejaVuSans-6c" x="363.525391"/>
     </g>
    </g>
    <g id="line2d_40">
     <path d="M 144 92.576563 
L 154 92.576563 
L 164 92.576563 
" style="fill: none; stroke: #ff0000; stroke-width: 1.5; stroke-linecap: square"/>
    </g>
    <g id="text_23">
     <!-- Running average -->
     <g transform="translate(172 96.076563)scale(0.1 -0.1)">
      <defs>
       <path id="DejaVuSans-52" d="M 2841 2188 
Q 3044 2119 3236 1894 
Q 3428 1669 3622 1275 
L 4263 0 
L 3584 0 
L 2988 1197 
Q 2756 1666 2539 1819 
Q 2322 1972 1947 1972 
L 1259 1972 
L 1259 0 
L 628 0 
L 628 4666 
L 2053 4666 
Q 2853 4666 3247 4331 
Q 3641 3997 3641 3322 
Q 3641 2881 3436 2590 
Q 3231 2300 2841 2188 
z
M 1259 4147 
L 1259 2491 
L 2053 2491 
Q 2509 2491 2742 2702 
Q 2975 2913 2975 3322 
Q 2975 3731 2742 3939 
Q 2509 4147 2053 4147 
L 1259 4147 
z
" transform="scale(0.015625)"/>
       <path id="DejaVuSans-76" d="M 191 3500 
L 800 3500 
L 1894 563 
L 2988 3500 
L 3597 3500 
L 2284 0 
L 1503 0 
L 191 3500 
z
" transform="scale(0.015625)"/>
      </defs>
      <use xlink:href="#DejaVuSans-52"/>
      <use xlink:href="#DejaVuSans-75" x="64.982422"/>
      <use xlink:href="#DejaVuSans-6e" x="128.361328"/>
      <use xlink:href="#DejaVuSans-6e" x="191.740234"/>
      <use xlink:href="#DejaVuSans-69" x="255.119141"/>
      <use xlink:href="#DejaVuSans-6e" x="282.902344"/>
      <use xlink:href="#DejaVuSans-67" x="346.28125"/>
      <use xlink:href="#DejaVuSans-20" x="409.757812"/>
      <use xlink:href="#DejaVuSans-61" x="441.544922"/>
      <use xlink:href="#DejaVuSans-76" x="502.824219"/>
      <use xlink:href="#DejaVuSans-65" x="562.003906"/>
      <use xlink:href="#DejaVuSans-72" x="623.527344"/>
      <use xlink:href="#DejaVuSans-61" x="664.640625"/>
      <use xlink:href="#DejaVuSans-67" x="725.919922"/>
      <use xlink:href="#DejaVuSans-65" x="789.396484"/>
     </g>
    </g>
   </g>
  </g>
  <g id="axes_2">
   <g id="patch_8">
    <path d="M 135 480.6 
L 972 480.6 
L 972 291.6 
L 135 291.6 
z
" style="fill: #ffffff"/>
   </g>
   <g id="matplotlib.axis_3">
    <g id="xtick_10">
     <g id="line2d_41">
      <path d="M 173.045455 480.6 
L 173.045455 291.6 
" clip-path="url(#pc71651f404)" style="fill: none; stroke-dasharray: 0.8,1.32; stroke-dashoffset: 0; stroke: #b0b0b0; stroke-width: 0.8"/>
     </g>
     <g id="line2d_42">
      <g>
       <use xlink:href="#m52c9b41d08" x="173.045455" y="480.6" style="stroke: #000000; stroke-width: 0.8"/>
      </g>
     </g>
     <g id="text_24">
      <!-- 0 -->
      <g transform="translate(169.864205 495.198438)scale(0.1 -0.1)">
       <use xlink:href="#DejaVuSans-30"/>
      </g>
     </g>
    </g>
    <g id="xtick_11">
     <g id="line2d_43">
      <path d="M 266.753471 480.6 
L 266.753471 291.6 
" clip-path="url(#pc71651f404)" style="fill: none; stroke-dasharray: 0.8,1.32; stroke-dashoffset: 0; stroke: #b0b0b0; stroke-width: 0.8"/>
     </g>
     <g id="line2d_44">
      <g>
       <use xlink:href="#m52c9b41d08" x="266.753471" y="480.6" style="stroke: #000000; stroke-width: 0.8"/>
      </g>
     </g>
     <g id="text_25">
      <!-- 25 -->
      <g transform="translate(260.390971 495.198438)scale(0.1 -0.1)">
       <use xlink:href="#DejaVuSans-32"/>
       <use xlink:href="#DejaVuSans-35" x="63.623047"/>
      </g>
     </g>
    </g>
    <g id="xtick_12">
     <g id="line2d_45">
      <path d="M 360.461487 480.6 
L 360.461487 291.6 
" clip-path="url(#pc71651f404)" style="fill: none; stroke-dasharray: 0.8,1.32; stroke-dashoffset: 0; stroke: #b0b0b0; stroke-width: 0.8"/>
     </g>
     <g id="line2d_46">
      <g>
       <use xlink:href="#m52c9b41d08" x="360.461487" y="480.6" style="stroke: #000000; stroke-width: 0.8"/>
      </g>
     </g>
     <g id="text_26">
      <!-- 50 -->
      <g transform="translate(354.098987 495.198438)scale(0.1 -0.1)">
       <use xlink:href="#DejaVuSans-35"/>
       <use xlink:href="#DejaVuSans-30" x="63.623047"/>
      </g>
     </g>
    </g>
    <g id="xtick_13">
     <g id="line2d_47">
      <path d="M 454.169503 480.6 
L 454.169503 291.6 
" clip-path="url(#pc71651f404)" style="fill: none; stroke-dasharray: 0.8,1.32; stroke-dashoffset: 0; stroke: #b0b0b0; stroke-width: 0.8"/>
     </g>
     <g id="line2d_48">
      <g>
       <use xlink:href="#m52c9b41d08" x="454.169503" y="480.6" style="stroke: #000000; stroke-width: 0.8"/>
      </g>
     </g>
     <g id="text_27">
      <!-- 75 -->
      <g transform="translate(447.807003 495.198438)scale(0.1 -0.1)">
       <use xlink:href="#DejaVuSans-37"/>
       <use xlink:href="#DejaVuSans-35" x="63.623047"/>
      </g>
     </g>
    </g>
    <g id="xtick_14">
     <g id="line2d_49">
      <path d="M 547.877519 480.6 
L 547.877519 291.6 
" clip-path="url(#pc71651f404)" style="fill: none; stroke-dasharray: 0.8,1.32; stroke-dashoffset: 0; stroke: #b0b0b0; stroke-width: 0.8"/>
     </g>
     <g id="line2d_50">
      <g>
       <use xlink:href="#m52c9b41d08" x="547.877519" y="480.6" style="stroke: #000000; stroke-width: 0.8"/>
      </g>
     </g>
     <g id="text_28">
      <!-- 100 -->
      <g transform="translate(538.333769 495.198438)scale(0.1 -0.1)">
       <use xlink:href="#DejaVuSans-31"/>
       <use xlink:href="#DejaVuSans-30" x="63.623047"/>
       <use xlink:href="#DejaVuSans-30" x="127.246094"/>
      </g>
     </g>
    </g>
    <g id="xtick_15">
     <g id="line2d_51">
      <path d="M 641.585535 480.6 
L 641.585535 291.6 
" clip-path="url(#pc71651f404)" style="fill: none; stroke-dasharray: 0.8,1.32; stroke-dashoffset: 0; stroke: #b0b0b0; stroke-width: 0.8"/>
     </g>
     <g id="line2d_52">
      <g>
       <use xlink:href="#m52c9b41d08" x="641.585535" y="480.6" style="stroke: #000000; stroke-width: 0.8"/>
      </g>
     </g>
     <g id="text_29">
      <!-- 125 -->
      <g transform="translate(632.041785 495.198438)scale(0.1 -0.1)">
       <use xlink:href="#DejaVuSans-31"/>
       <use xlink:href="#DejaVuSans-32" x="63.623047"/>
       <use xlink:href="#DejaVuSans-35" x="127.246094"/>
      </g>
     </g>
    </g>
    <g id="xtick_16">
     <g id="line2d_53">
      <path d="M 735.293551 480.6 
L 735.293551 291.6 
" clip-path="url(#pc71651f404)" style="fill: none; stroke-dasharray: 0.8,1.32; stroke-dashoffset: 0; stroke: #b0b0b0; stroke-width: 0.8"/>
     </g>
     <g id="line2d_54">
      <g>
       <use xlink:href="#m52c9b41d08" x="735.293551" y="480.6" style="stroke: #000000; stroke-width: 0.8"/>
      </g>
     </g>
     <g id="text_30">
      <!-- 150 -->
      <g transform="translate(725.749801 495.198438)scale(0.1 -0.1)">
       <use xlink:href="#DejaVuSans-31"/>
       <use xlink:href="#DejaVuSans-35" x="63.623047"/>
       <use xlink:href="#DejaVuSans-30" x="127.246094"/>
      </g>
     </g>
    </g>
    <g id="xtick_17">
     <g id="line2d_55">
      <path d="M 829.001567 480.6 
L 829.001567 291.6 
" clip-path="url(#pc71651f404)" style="fill: none; stroke-dasharray: 0.8,1.32; stroke-dashoffset: 0; stroke: #b0b0b0; stroke-width: 0.8"/>
     </g>
     <g id="line2d_56">
      <g>
       <use xlink:href="#m52c9b41d08" x="829.001567" y="480.6" style="stroke: #000000; stroke-width: 0.8"/>
      </g>
     </g>
     <g id="text_31">
      <!-- 175 -->
      <g transform="translate(819.457817 495.198438)scale(0.1 -0.1)">
       <use xlink:href="#DejaVuSans-31"/>
       <use xlink:href="#DejaVuSans-37" x="63.623047"/>
       <use xlink:href="#DejaVuSans-35" x="127.246094"/>
      </g>
     </g>
    </g>
    <g id="xtick_18">
     <g id="line2d_57">
      <path d="M 922.709584 480.6 
L 922.709584 291.6 
" clip-path="url(#pc71651f404)" style="fill: none; stroke-dasharray: 0.8,1.32; stroke-dashoffset: 0; stroke: #b0b0b0; stroke-width: 0.8"/>
     </g>
     <g id="line2d_58">
      <g>
       <use xlink:href="#m52c9b41d08" x="922.709584" y="480.6" style="stroke: #000000; stroke-width: 0.8"/>
      </g>
     </g>
     <g id="text_32">
      <!-- 200 -->
      <g transform="translate(913.165834 495.198438)scale(0.1 -0.1)">
       <use xlink:href="#DejaVuSans-32"/>
       <use xlink:href="#DejaVuSans-30" x="63.623047"/>
       <use xlink:href="#DejaVuSans-30" x="127.246094"/>
      </g>
     </g>
    </g>
    <g id="text_33">
     <!-- Number of Orders -->
     <g transform="translate(508.601562 508.876563)scale(0.1 -0.1)">
      <use xlink:href="#DejaVuSans-4e"/>
      <use xlink:href="#DejaVuSans-75" x="74.804688"/>
      <use xlink:href="#DejaVuSans-6d" x="138.183594"/>
      <use xlink:href="#DejaVuSans-62" x="235.595703"/>
      <use xlink:href="#DejaVuSans-65" x="299.072266"/>
      <use xlink:href="#DejaVuSans-72" x="360.595703"/>
      <use xlink:href="#DejaVuSans-20" x="401.708984"/>
      <use xlink:href="#DejaVuSans-6f" x="433.496094"/>
      <use xlink:href="#DejaVuSans-66" x="494.677734"/>
      <use xlink:href="#DejaVuSans-20" x="529.882812"/>
      <use xlink:href="#DejaVuSans-4f" x="561.669922"/>
      <use xlink:href="#DejaVuSans-72" x="640.380859"/>
      <use xlink:href="#DejaVuSans-64" x="679.744141"/>
      <use xlink:href="#DejaVuSans-65" x="743.220703"/>
      <use xlink:href="#DejaVuSans-72" x="804.744141"/>
      <use xlink:href="#DejaVuSans-73" x="845.857422"/>
     </g>
    </g>
   </g>
   <g id="matplotlib.axis_4">
    <g id="ytick_10">
     <g id="line2d_59">
      <path d="M 135 463.459747 
L 972 463.459747 
" clip-path="url(#pc71651f404)" style="fill: none; stroke-dasharray: 0.8,1.32; stroke-dashoffset: 0; stroke: #b0b0b0; stroke-width: 0.8"/>
     </g>
     <g id="line2d_60">
      <g>
       <use xlink:href="#m2065003d11" x="135" y="463.459747" style="stroke: #000000; stroke-width: 0.8"/>
      </g>
     </g>
     <g id="text_34">
      <!-- 20 -->
      <g transform="translate(115.275 467.258966)scale(0.1 -0.1)">
       <use xlink:href="#DejaVuSans-32"/>
       <use xlink:href="#DejaVuSans-30" x="63.623047"/>
      </g>
     </g>
    </g>
    <g id="ytick_11">
     <g id="line2d_61">
      <path d="M 135 442.086388 
L 972 442.086388 
" clip-path="url(#pc71651f404)" style="fill: none; stroke-dasharray: 0.8,1.32; stroke-dashoffset: 0; stroke: #b0b0b0; stroke-width: 0.8"/>
     </g>
     <g id="line2d_62">
      <g>
       <use xlink:href="#m2065003d11" x="135" y="442.086388" style="stroke: #000000; stroke-width: 0.8"/>
      </g>
     </g>
     <g id="text_35">
      <!-- 30 -->
      <g transform="translate(115.275 445.885607)scale(0.1 -0.1)">
       <use xlink:href="#DejaVuSans-33"/>
       <use xlink:href="#DejaVuSans-30" x="63.623047"/>
      </g>
     </g>
    </g>
    <g id="ytick_12">
     <g id="line2d_63">
      <path d="M 135 420.713029 
L 972 420.713029 
" clip-path="url(#pc71651f404)" style="fill: none; stroke-dasharray: 0.8,1.32; stroke-dashoffset: 0; stroke: #b0b0b0; stroke-width: 0.8"/>
     </g>
     <g id="line2d_64">
      <g>
       <use xlink:href="#m2065003d11" x="135" y="420.713029" style="stroke: #000000; stroke-width: 0.8"/>
      </g>
     </g>
     <g id="text_36">
      <!-- 40 -->
      <g transform="translate(115.275 424.512248)scale(0.1 -0.1)">
       <use xlink:href="#DejaVuSans-34"/>
       <use xlink:href="#DejaVuSans-30" x="63.623047"/>
      </g>
     </g>
    </g>
    <g id="ytick_13">
     <g id="line2d_65">
      <path d="M 135 399.33967 
L 972 399.33967 
" clip-path="url(#pc71651f404)" style="fill: none; stroke-dasharray: 0.8,1.32; stroke-dashoffset: 0; stroke: #b0b0b0; stroke-width: 0.8"/>
     </g>
     <g id="line2d_66">
      <g>
       <use xlink:href="#m2065003d11" x="135" y="399.33967" style="stroke: #000000; stroke-width: 0.8"/>
      </g>
     </g>
     <g id="text_37">
      <!-- 50 -->
      <g transform="translate(115.275 403.138889)scale(0.1 -0.1)">
       <use xlink:href="#DejaVuSans-35"/>
       <use xlink:href="#DejaVuSans-30" x="63.623047"/>
      </g>
     </g>
    </g>
    <g id="ytick_14">
     <g id="line2d_67">
      <path d="M 135 377.966311 
L 972 377.966311 
" clip-path="url(#pc71651f404)" style="fill: none; stroke-dasharray: 0.8,1.32; stroke-dashoffset: 0; stroke: #b0b0b0; stroke-width: 0.8"/>
     </g>
     <g id="line2d_68">
      <g>
       <use xlink:href="#m2065003d11" x="135" y="377.966311" style="stroke: #000000; stroke-width: 0.8"/>
      </g>
     </g>
     <g id="text_38">
      <!-- 60 -->
      <g transform="translate(115.275 381.76553)scale(0.1 -0.1)">
       <use xlink:href="#DejaVuSans-36"/>
       <use xlink:href="#DejaVuSans-30" x="63.623047"/>
      </g>
     </g>
    </g>
    <g id="ytick_15">
     <g id="line2d_69">
      <path d="M 135 356.592952 
L 972 356.592952 
" clip-path="url(#pc71651f404)" style="fill: none; stroke-dasharray: 0.8,1.32; stroke-dashoffset: 0; stroke: #b0b0b0; stroke-width: 0.8"/>
     </g>
     <g id="line2d_70">
      <g>
       <use xlink:href="#m2065003d11" x="135" y="356.592952" style="stroke: #000000; stroke-width: 0.8"/>
      </g>
     </g>
     <g id="text_39">
      <!-- 70 -->
      <g transform="translate(115.275 360.392171)scale(0.1 -0.1)">
       <use xlink:href="#DejaVuSans-37"/>
       <use xlink:href="#DejaVuSans-30" x="63.623047"/>
      </g>
     </g>
    </g>
    <g id="ytick_16">
     <g id="line2d_71">
      <path d="M 135 335.219593 
L 972 335.219593 
" clip-path="url(#pc71651f404)" style="fill: none; stroke-dasharray: 0.8,1.32; stroke-dashoffset: 0; stroke: #b0b0b0; stroke-width: 0.8"/>
     </g>
     <g id="line2d_72">
      <g>
       <use xlink:href="#m2065003d11" x="135" y="335.219593" style="stroke: #000000; stroke-width: 0.8"/>
      </g>
     </g>
     <g id="text_40">
      <!-- 80 -->
      <g transform="translate(115.275 339.018812)scale(0.1 -0.1)">
       <use xlink:href="#DejaVuSans-38"/>
       <use xlink:href="#DejaVuSans-30" x="63.623047"/>
      </g>
     </g>
    </g>
    <g id="ytick_17">
     <g id="line2d_73">
      <path d="M 135 313.846234 
L 972 313.846234 
" clip-path="url(#pc71651f404)" style="fill: none; stroke-dasharray: 0.8,1.32; stroke-dashoffset: 0; stroke: #b0b0b0; stroke-width: 0.8"/>
     </g>
     <g id="line2d_74">
      <g>
       <use xlink:href="#m2065003d11" x="135" y="313.846234" style="stroke: #000000; stroke-width: 0.8"/>
      </g>
     </g>
     <g id="text_41">
      <!-- 90 -->
      <g transform="translate(115.275 317.645453)scale(0.1 -0.1)">
       <use xlink:href="#DejaVuSans-39"/>
       <use xlink:href="#DejaVuSans-30" x="63.623047"/>
      </g>
     </g>
    </g>
    <g id="ytick_18">
     <g id="line2d_75">
      <path d="M 135 292.472876 
L 972 292.472876 
" clip-path="url(#pc71651f404)" style="fill: none; stroke-dasharray: 0.8,1.32; stroke-dashoffset: 0; stroke: #b0b0b0; stroke-width: 0.8"/>
     </g>
     <g id="line2d_76">
      <g>
       <use xlink:href="#m2065003d11" x="135" y="292.472876" style="stroke: #000000; stroke-width: 0.8"/>
      </g>
     </g>
     <g id="text_42">
      <!-- 100 -->
      <g transform="translate(108.9125 296.272094)scale(0.1 -0.1)">
       <use xlink:href="#DejaVuSans-31"/>
       <use xlink:href="#DejaVuSans-30" x="63.623047"/>
       <use xlink:href="#DejaVuSans-30" x="127.246094"/>
      </g>
     </g>
    </g>
    <g id="text_43">
     <!-- Waiting Time -->
     <g transform="translate(102.832812 418.692969)rotate(-90)scale(0.1 -0.1)">
      <use xlink:href="#DejaVuSans-57"/>
      <use xlink:href="#DejaVuSans-61" x="92.501953"/>
      <use xlink:href="#DejaVuSans-69" x="153.78125"/>
      <use xlink:href="#DejaVuSans-74" x="181.564453"/>
      <use xlink:href="#DejaVuSans-69" x="220.773438"/>
      <use xlink:href="#DejaVuSans-6e" x="248.556641"/>
      <use xlink:href="#DejaVuSans-67" x="311.935547"/>
      <use xlink:href="#DejaVuSans-20" x="375.412109"/>
      <use xlink:href="#DejaVuSans-54" x="407.199219"/>
      <use xlink:href="#DejaVuSans-69" x="465.158203"/>
      <use xlink:href="#DejaVuSans-6d" x="492.941406"/>
      <use xlink:href="#DejaVuSans-65" x="590.353516"/>
     </g>
    </g>
   </g>
   <g id="line2d_77">
    <path d="M 173.045455 447.709042 
L 176.793775 403.098089 
L 180.542096 436.333095 
L 184.290416 435.615056 
L 188.038737 421.748993 
L 191.787058 375.805746 
L 195.535378 462.636521 
L 199.283699 404.789959 
L 203.03202 405.219415 
L 206.78034 406.530433 
L 210.528661 425.314031 
L 214.276982 411.483522 
L 218.025302 417.133962 
L 221.773623 463.459747 
L 225.521944 313.737422 
L 229.270264 403.494382 
L 233.018585 418.206993 
L 236.766906 380.652961 
L 240.515226 429.544582 
L 244.263547 399.135124 
L 248.011867 413.354342 
L 251.760188 445.658872 
L 255.508509 363.433312 
L 259.256829 454.792027 
L 263.00515 399.492493 
L 266.753471 377.433912 
L 270.501791 401.531491 
L 274.250112 419.195691 
L 277.998433 406.185909 
L 281.746753 402.756334 
L 285.495074 418.534606 
L 289.243395 403.137501 
L 292.991715 424.645337 
L 296.740036 423.820628 
L 300.488356 378.721042 
L 304.236677 378.267187 
L 307.984998 387.221341 
L 311.733318 441.591496 
L 315.481639 438.841304 
L 319.22996 381.671137 
L 322.97828 372.391312 
L 326.726601 428.255879 
L 330.474922 364.270624 
L 334.223242 418.575693 
L 337.971563 340.750017 
L 341.719884 389.202164 
L 345.468204 324.719926 
L 349.216525 452.987881 
L 352.964845 430.084118 
L 356.713166 383.972127 
L 360.461487 367.514961 
L 364.209807 414.148549 
L 367.958128 376.645483 
L 371.706449 402.387333 
L 375.454769 366.646162 
L 379.20309 349.5261 
L 382.951411 433.131763 
L 386.699731 435.269099 
L 390.448052 421.574915 
L 394.196373 390.825755 
L 397.944693 379.920807 
L 401.693014 439.353119 
L 405.441335 441.802666 
L 409.189655 413.391926 
L 412.937976 431.399709 
L 416.686296 347.77696 
L 420.434617 391.9581 
L 424.182938 396.619188 
L 427.931258 402.681565 
L 431.679579 457.04774 
L 435.4279 394.346192 
L 439.17622 403.08186 
L 442.924541 347.402746 
L 446.672862 409.221871 
L 450.421182 387.334363 
L 454.169503 378.126913 
L 457.917824 425.314031 
L 461.666144 346.691878 
L 465.414465 443.544434 
L 469.162785 368.008814 
L 472.911106 315.039309 
L 476.659427 393.583533 
L 480.407747 449.777048 
L 484.156068 377.046242 
L 487.904389 450.250285 
L 495.40103 343.260367 
L 499.149351 379.449129 
L 502.897671 451.66532 
L 506.645992 425.407669 
L 510.394313 371.765275 
L 514.142633 448.320899 
L 517.890954 454.063852 
L 521.639275 384.137452 
L 525.387595 385.461806 
L 529.135916 349.913285 
L 532.884236 421.056104 
L 536.632557 300.190909 
L 540.380878 409.780487 
L 544.129198 385.550454 
L 547.877519 465.597083 
L 551.62584 388.412878 
L 555.37416 398.338765 
L 559.122481 406.022101 
L 562.870802 332.421581 
L 566.619122 371.838672 
L 570.367443 390.353046 
L 574.115764 383.042807 
L 577.864084 437.811717 
L 581.612405 412.016458 
L 585.360725 409.664888 
L 589.109046 388.939247 
L 592.857367 414.262867 
L 596.605687 440.352179 
L 600.354008 354.020245 
L 604.102329 368.94264 
L 607.850649 417.115192 
L 611.59897 430.291961 
L 615.347291 408.165376 
L 619.095611 410.383568 
L 622.843932 407.032718 
L 626.592253 418.154634 
L 630.340573 443.292206 
L 634.088894 386.210217 
L 637.837215 353.930476 
L 641.585535 437.59632 
L 645.333856 429.211513 
L 649.082176 365.708398 
L 652.830497 394.521967 
L 656.578818 356.747648 
L 660.327138 391.147314 
L 664.075459 422.941473 
L 667.82378 428.106803 
L 671.5721 390.623801 
L 675.320421 396.30979 
L 679.068742 382.962217 
L 682.817062 416.398791 
L 686.565383 438.91191 
L 690.313704 443.919933 
L 694.062024 446.278976 
L 697.810345 428.087898 
L 701.558665 432.045792 
L 705.306986 399.83574 
L 709.055307 435.241941 
L 712.803627 415.030637 
L 716.551948 405.154638 
L 720.300269 376.363949 
L 724.048589 381.576181 
L 727.79691 415.613391 
L 731.545231 344.890418 
L 735.293551 390.353046 
L 739.041872 440.352179 
L 742.790193 401.217031 
L 746.538513 366.867556 
L 750.286834 399.491065 
L 754.035155 393.923863 
L 757.783475 345.275294 
L 761.531796 394.604214 
L 765.280116 361.936512 
L 769.028437 429.517543 
L 772.776758 441.133236 
L 776.525078 443.965941 
L 780.273399 472.009091 
L 784.02172 443.769176 
L 787.77004 380.395555 
L 791.518361 433.03395 
L 795.266682 424.067046 
L 799.015002 436.272738 
L 802.763323 367.604729 
L 806.511644 449.889296 
L 810.259964 399.952851 
L 814.008285 438.767222 
L 817.756605 431.364096 
L 821.504926 435.9126 
L 825.253247 412.729787 
L 829.001567 434.745745 
L 832.749888 417.557457 
L 836.498209 391.671844 
L 840.246529 371.417283 
L 843.99485 341.436951 
L 847.743171 366.162402 
L 851.491491 445.391513 
L 855.239812 327.07797 
L 858.988133 380.688703 
L 862.736453 414.415926 
L 866.484774 384.184602 
L 870.233094 417.87692 
L 873.981415 409.036566 
L 877.729736 432.64687 
L 881.478056 394.160226 
L 885.226377 396.69933 
L 888.974698 409.990738 
L 892.723018 380.778068 
L 896.471339 417.115192 
L 900.21966 450.53878 
L 903.96798 456.914674 
L 907.716301 383.341088 
L 911.464622 348.897271 
L 915.212942 397.054051 
L 918.961263 442.646736 
L 922.709584 410.21298 
L 926.457904 401.823578 
L 930.206225 396.868337 
L 933.954545 357.164934 
L 933.954545 357.164934 
" clip-path="url(#pc71651f404)" style="fill: none; stroke: #000000; stroke-width: 1.5; stroke-linecap: square"/>
   </g>
   <g id="line2d_78">
    <path d="M 206.78034 419.948635 
L 210.528661 417.709134 
L 214.276982 418.547677 
L 218.025302 416.627764 
L 221.773623 419.412233 
L 225.521944 408.611076 
L 229.270264 411.379939 
L 233.018585 406.936987 
L 236.766906 404.523287 
L 240.515226 406.955804 
L 244.263547 406.216273 
L 248.011867 405.020304 
L 251.760188 408.437839 
L 255.508509 403.067774 
L 259.256829 402.201002 
L 263.00515 410.776509 
L 266.753471 408.170462 
L 270.501791 406.502912 
L 274.250112 410.357185 
L 277.998433 408.021317 
L 281.746753 408.383438 
L 285.495074 408.901465 
L 289.243395 404.649328 
L 292.991715 410.77053 
L 296.740036 407.67339 
L 300.488356 405.596245 
L 304.236677 405.679573 
L 307.984998 404.248558 
L 311.733318 406.488138 
L 315.481639 409.753678 
L 319.22996 407.645158 
L 322.97828 403.030829 
L 326.726601 405.542666 
L 330.474922 399.505195 
L 334.223242 398.980702 
L 337.971563 395.183599 
L 341.719884 396.277097 
L 345.468204 390.026955 
L 349.216525 391.166594 
L 352.964845 390.290875 
L 356.713166 390.520974 
L 360.461487 390.033339 
L 364.209807 388.622606 
L 367.958128 389.860092 
L 371.706449 388.241256 
L 375.454769 390.83087 
L 379.20309 386.863264 
L 382.951411 397.704448 
L 386.699731 395.932569 
L 390.448052 395.081649 
L 394.196373 395.767012 
L 397.944693 397.007597 
L 401.693014 399.528054 
L 405.441335 406.043772 
L 409.189655 407.144231 
L 412.937976 413.619586 
L 416.686296 413.444672 
L 420.434617 409.327305 
L 424.182938 405.462314 
L 427.931258 403.572979 
L 431.679579 410.195178 
L 435.4279 411.637716 
L 439.17622 408.01059 
L 442.924541 398.570599 
L 446.672862 398.153593 
L 450.421182 393.747058 
L 454.169503 396.782054 
L 457.917824 400.117647 
L 461.666144 395.124916 
L 465.414465 399.211203 
L 469.162785 390.30731 
L 472.911106 382.376622 
L 476.659427 381.426789 
L 480.407747 391.664219 
L 484.156068 388.446657 
L 487.904389 394.738249 
L 491.652709 396.611704 
L 495.40103 388.406337 
L 499.149351 391.682062 
L 502.897671 392.494151 
L 510.394313 403.906633 
L 514.142633 409.38037 
L 517.890954 409.80905 
L 521.639275 410.518171 
L 525.387595 404.039323 
L 529.135916 399.344505 
L 532.884236 407.124079 
L 536.632557 399.198257 
L 540.380878 395.009774 
L 544.129198 391.024052 
L 547.877519 400.407233 
L 551.62584 394.416431 
L 555.37416 388.843922 
L 559.122481 391.032387 
L 562.870802 385.728365 
L 566.619122 387.920904 
L 570.367443 384.850598 
L 574.115764 393.135787 
L 577.864084 395.93891 
L 581.612405 398.585511 
L 585.360725 392.992291 
L 589.109046 393.044928 
L 592.857367 394.637338 
L 596.605687 398.070346 
L 600.354008 400.230213 
L 604.102329 399.940609 
L 607.850649 402.616824 
L 611.59897 407.341739 
L 615.347291 404.377105 
L 622.843932 403.950599 
L 630.340573 409.775072 
L 634.088894 404.360876 
L 637.837215 404.351899 
L 641.585535 411.217267 
L 645.333856 412.426899 
L 649.082176 405.968543 
L 652.830497 404.604202 
L 656.578818 399.24061 
L 660.327138 397.652069 
L 664.075459 398.130753 
L 667.82378 396.612213 
L 671.5721 397.053571 
L 675.320421 401.291503 
L 679.068742 395.828092 
L 682.817062 394.54682 
L 686.565383 401.867171 
L 690.313704 406.806968 
L 694.062024 415.760101 
L 697.810345 419.454159 
L 701.558665 420.364591 
L 705.306986 417.537485 
L 709.055307 421.999299 
L 712.803627 423.871383 
L 716.551948 426.090626 
L 720.300269 422.087141 
L 724.048589 416.353568 
L 727.79691 413.522914 
L 731.545231 403.384059 
L 735.293551 399.610573 
L 739.041872 400.441212 
L 742.790193 400.579341 
L 746.538513 393.741903 
L 750.286834 392.187945 
L 754.035155 391.064868 
L 757.783475 387.956002 
L 761.531796 389.258806 
L 765.280116 383.891118 
L 769.028437 392.35383 
L 772.776758 397.431849 
L 776.525078 397.793225 
L 780.273399 404.872431 
L 784.02172 412.562593 
L 787.77004 410.653042 
L 791.518361 414.564051 
L 795.266682 422.443226 
L 799.015002 426.610079 
L 802.763323 427.1769 
L 806.511644 429.214076 
L 810.259964 425.096037 
L 814.008285 424.576166 
L 817.756605 420.511666 
L 821.504926 419.726008 
L 825.253247 422.959432 
L 829.001567 423.130611 
L 832.749888 422.479652 
L 836.498209 418.019563 
L 840.246529 418.400818 
L 843.99485 407.555584 
L 847.743171 404.176539 
L 851.491491 404.838968 
L 855.239812 394.410355 
L 858.988133 388.887966 
L 862.736453 389.056579 
L 866.484774 384.000465 
L 870.233094 384.032412 
L 873.981415 385.768884 
L 877.729736 391.891842 
L 881.478056 397.16417 
L 885.226377 400.217863 
L 888.974698 396.677785 
L 892.723018 402.047795 
L 900.21966 409.302729 
L 903.96798 416.575736 
L 907.716301 413.122153 
L 911.464622 407.108224 
L 915.212942 403.548942 
L 918.961263 408.397593 
L 922.709584 409.748958 
L 926.457904 408.932242 
L 930.206225 410.541269 
L 933.954545 404.546243 
L 933.954545 404.546243 
" clip-path="url(#pc71651f404)" style="fill: none; stroke: #ff0000; stroke-width: 1.5; stroke-linecap: square"/>
   </g>
   <g id="patch_9">
    <path d="M 135 480.6 
L 135 291.6 
" style="fill: none; stroke: #000000; stroke-width: 0.8; stroke-linejoin: miter; stroke-linecap: square"/>
   </g>
   <g id="patch_10">
    <path d="M 972 480.6 
L 972 291.6 
" style="fill: none; stroke: #000000; stroke-width: 0.8; stroke-linejoin: miter; stroke-linecap: square"/>
   </g>
   <g id="patch_11">
    <path d="M 135 480.6 
L 972 480.6 
" style="fill: none; stroke: #000000; stroke-width: 0.8; stroke-linejoin: miter; stroke-linecap: square"/>
   </g>
   <g id="patch_12">
    <path d="M 135 291.6 
L 972 291.6 
" style="fill: none; stroke: #000000; stroke-width: 0.8; stroke-linejoin: miter; stroke-linecap: square"/>
   </g>
   <g id="legend_2">
    <g id="patch_13">
     <path d="M 142 328.95625 
L 259.09375 328.95625 
Q 261.09375 328.95625 261.09375 326.95625 
L 261.09375 298.6 
Q 261.09375 296.6 259.09375 296.6 
L 142 296.6 
Q 140 296.6 140 298.6 
L 140 326.95625 
Q 140 328.95625 142 328.95625 
z
" style="fill: #ffffff; opacity: 0.8; stroke: #cccccc; stroke-linejoin: miter"/>
    </g>
    <g id="line2d_79">
     <path d="M 144 304.698438 
L 154 304.698438 
L 164 304.698438 
" style="fill: none; stroke: #000000; stroke-width: 1.5; stroke-linecap: square"/>
    </g>
    <g id="text_44">
     <!-- Original -->
     <g transform="translate(172 308.198438)scale(0.1 -0.1)">
      <use xlink:href="#DejaVuSans-4f"/>
      <use xlink:href="#DejaVuSans-72" x="78.710938"/>
      <use xlink:href="#DejaVuSans-69" x="119.824219"/>
      <use xlink:href="#DejaVuSans-67" x="147.607422"/>
      <use xlink:href="#DejaVuSans-69" x="211.083984"/>
      <use xlink:href="#DejaVuSans-6e" x="238.867188"/>
      <use xlink:href="#DejaVuSans-61" x="302.246094"/>
      <use xlink:href="#DejaVuSans-6c" x="363.525391"/>
     </g>
    </g>
    <g id="line2d_80">
     <path d="M 144 319.376562 
L 154 319.376562 
L 164 319.376562 
" style="fill: none; stroke: #ff0000; stroke-width: 1.5; stroke-linecap: square"/>
    </g>
    <g id="text_45">
     <!-- Running average -->
     <g transform="translate(172 322.876562)scale(0.1 -0.1)">
      <use xlink:href="#DejaVuSans-52"/>
      <use xlink:href="#DejaVuSans-75" x="64.982422"/>
      <use xlink:href="#DejaVuSans-6e" x="128.361328"/>
      <use xlink:href="#DejaVuSans-6e" x="191.740234"/>
      <use xlink:href="#DejaVuSans-69" x="255.119141"/>
      <use xlink:href="#DejaVuSans-6e" x="282.902344"/>
      <use xlink:href="#DejaVuSans-67" x="346.28125"/>
      <use xlink:href="#DejaVuSans-20" x="409.757812"/>
      <use xlink:href="#DejaVuSans-61" x="441.544922"/>
      <use xlink:href="#DejaVuSans-76" x="502.824219"/>
      <use xlink:href="#DejaVuSans-65" x="562.003906"/>
      <use xlink:href="#DejaVuSans-72" x="623.527344"/>
      <use xlink:href="#DejaVuSans-61" x="664.640625"/>
      <use xlink:href="#DejaVuSans-67" x="725.919922"/>
      <use xlink:href="#DejaVuSans-65" x="789.396484"/>
     </g>
    </g>
   </g>
  </g>
  <g id="text_46">
   <!-- Waiting Time -->
   <g transform="translate(500.888438 19.918125)scale(0.12 -0.12)">
    <use xlink:href="#DejaVuSans-57"/>
    <use xlink:href="#DejaVuSans-61" x="92.501953"/>
    <use xlink:href="#DejaVuSans-69" x="153.78125"/>
    <use xlink:href="#DejaVuSans-74" x="181.564453"/>
    <use xlink:href="#DejaVuSans-69" x="220.773438"/>
    <use xlink:href="#DejaVuSans-6e" x="248.556641"/>
    <use xlink:href="#DejaVuSans-67" x="311.935547"/>
    <use xlink:href="#DejaVuSans-20" x="375.412109"/>
    <use xlink:href="#DejaVuSans-54" x="407.199219"/>
    <use xlink:href="#DejaVuSans-69" x="465.158203"/>
    <use xlink:href="#DejaVuSans-6d" x="492.941406"/>
    <use xlink:href="#DejaVuSans-65" x="590.353516"/>
   </g>
  </g>
 </g>
 <defs>
  <clipPath id="p959076730d">
   <rect x="135" y="64.8" width="837" height="189"/>
  </clipPath>
  <clipPath id="pc71651f404">
   <rect x="135" y="291.6" width="837" height="189"/>
  </clipPath>
 </defs>
</svg>
