<?xml version="1.0" encoding="utf-8" standalone="no"?>
<!DOCTYPE svg PUBLIC "-//W3C//DTD SVG 1.1//EN"
  "http://www.w3.org/Graphics/SVG/1.1/DTD/svg11.dtd">
<svg xmlns:xlink="http://www.w3.org/1999/xlink" width="460.8pt" height="345.6pt" viewBox="0 0 460.8 345.6" xmlns="http://www.w3.org/2000/svg" version="1.1">
 <metadata>
  <rdf:RDF xmlns:dc="http://purl.org/dc/elements/1.1/" xmlns:cc="http://creativecommons.org/ns#" xmlns:rdf="http://www.w3.org/1999/02/22-rdf-syntax-ns#">
   <cc:Work>
    <dc:type rdf:resource="http://purl.org/dc/dcmitype/StillImage"/>
    <dc:date>2022-09-12T15:32:46.530936</dc:date>
    <dc:format>image/svg+xml</dc:format>
    <dc:creator>
     <cc:Agent>
      <dc:title>Matplotlib v3.5.2, https://matplotlib.org/</dc:title>
     </cc:Agent>
    </dc:creator>
   </cc:Work>
  </rdf:RDF>
 </metadata>
 <defs>
  <style type="text/css">*{stroke-linejoin: round; stroke-linecap: butt}</style>
 </defs>
 <g id="figure_1">
  <g id="patch_1">
   <path d="M 0 345.6 
L 460.8 345.6 
L 460.8 0 
L 0 0 
z
" style="fill: #ffffff"/>
  </g>
  <g id="axes_1">
   <g id="patch_2">
    <path d="M 57.6 307.584 
L 414.72 307.584 
L 414.72 41.472 
L 57.6 41.472 
z
" style="fill: #ffffff"/>
   </g>
   <g id="matplotlib.axis_1">
    <g id="xtick_1">
     <g id="line2d_1">
      <defs>
       <path id="mcf8e43b1c5" d="M 0 0 
L 0 3.5 
" style="stroke: #000000; stroke-width: 0.8"/>
      </defs>
      <g>
       <use xlink:href="#mcf8e43b1c5" x="73.832727" y="307.584" style="stroke: #000000; stroke-width: 0.8"/>
      </g>
     </g>
     <g id="text_1">
      <!-- 0 -->
      <g transform="translate(70.651477 322.182437)scale(0.1 -0.1)">
       <defs>
        <path id="DejaVuSans-30" d="M 2034 4250 
Q 1547 4250 1301 3770 
Q 1056 3291 1056 2328 
Q 1056 1369 1301 889 
Q 1547 409 2034 409 
Q 2525 409 2770 889 
Q 3016 1369 3016 2328 
Q 3016 3291 2770 3770 
Q 2525 4250 2034 4250 
z
M 2034 4750 
Q 2819 4750 3233 4129 
Q 3647 3509 3647 2328 
Q 3647 1150 3233 529 
Q 2819 -91 2034 -91 
Q 1250 -91 836 529 
Q 422 1150 422 2328 
Q 422 3509 836 4129 
Q 1250 4750 2034 4750 
z
" transform="scale(0.015625)"/>
       </defs>
       <use xlink:href="#DejaVuSans-30"/>
      </g>
     </g>
    </g>
    <g id="xtick_2">
     <g id="line2d_2">
      <g>
       <use xlink:href="#mcf8e43b1c5" x="150.042714" y="307.584" style="stroke: #000000; stroke-width: 0.8"/>
      </g>
     </g>
     <g id="text_2">
      <!-- 50 -->
      <g transform="translate(143.680214 322.182437)scale(0.1 -0.1)">
       <defs>
        <path id="DejaVuSans-35" d="M 691 4666 
L 3169 4666 
L 3169 4134 
L 1269 4134 
L 1269 2991 
Q 1406 3038 1543 3061 
Q 1681 3084 1819 3084 
Q 2600 3084 3056 2656 
Q 3513 2228 3513 1497 
Q 3513 744 3044 326 
Q 2575 -91 1722 -91 
Q 1428 -91 1123 -41 
Q 819 9 494 109 
L 494 744 
Q 775 591 1075 516 
Q 1375 441 1709 441 
Q 2250 441 2565 725 
Q 2881 1009 2881 1497 
Q 2881 1984 2565 2268 
Q 2250 2553 1709 2553 
Q 1456 2553 1204 2497 
Q 953 2441 691 2322 
L 691 4666 
z
" transform="scale(0.015625)"/>
       </defs>
       <use xlink:href="#DejaVuSans-35"/>
       <use xlink:href="#DejaVuSans-30" x="63.623047"/>
      </g>
     </g>
    </g>
    <g id="xtick_3">
     <g id="line2d_3">
      <g>
       <use xlink:href="#mcf8e43b1c5" x="226.252702" y="307.584" style="stroke: #000000; stroke-width: 0.8"/>
      </g>
     </g>
     <g id="text_3">
      <!-- 100 -->
      <g transform="translate(216.708952 322.182437)scale(0.1 -0.1)">
       <defs>
        <path id="DejaVuSans-31" d="M 794 531 
L 1825 531 
L 1825 4091 
L 703 3866 
L 703 4441 
L 1819 4666 
L 2450 4666 
L 2450 531 
L 3481 531 
L 3481 0 
L 794 0 
L 794 531 
z
" transform="scale(0.015625)"/>
       </defs>
       <use xlink:href="#DejaVuSans-31"/>
       <use xlink:href="#DejaVuSans-30" x="63.623047"/>
       <use xlink:href="#DejaVuSans-30" x="127.246094"/>
      </g>
     </g>
    </g>
    <g id="xtick_4">
     <g id="line2d_4">
      <g>
       <use xlink:href="#mcf8e43b1c5" x="302.462689" y="307.584" style="stroke: #000000; stroke-width: 0.8"/>
      </g>
     </g>
     <g id="text_4">
      <!-- 150 -->
      <g transform="translate(292.918939 322.182437)scale(0.1 -0.1)">
       <use xlink:href="#DejaVuSans-31"/>
       <use xlink:href="#DejaVuSans-35" x="63.623047"/>
       <use xlink:href="#DejaVuSans-30" x="127.246094"/>
      </g>
     </g>
    </g>
    <g id="xtick_5">
     <g id="line2d_5">
      <g>
       <use xlink:href="#mcf8e43b1c5" x="378.672676" y="307.584" style="stroke: #000000; stroke-width: 0.8"/>
      </g>
     </g>
     <g id="text_5">
      <!-- 200 -->
      <g transform="translate(369.128926 322.182437)scale(0.1 -0.1)">
       <defs>
        <path id="DejaVuSans-32" d="M 1228 531 
L 3431 531 
L 3431 0 
L 469 0 
L 469 531 
Q 828 903 1448 1529 
Q 2069 2156 2228 2338 
Q 2531 2678 2651 2914 
Q 2772 3150 2772 3378 
Q 2772 3750 2511 3984 
Q 2250 4219 1831 4219 
Q 1534 4219 1204 4116 
Q 875 4013 500 3803 
L 500 4441 
Q 881 4594 1212 4672 
Q 1544 4750 1819 4750 
Q 2544 4750 2975 4387 
Q 3406 4025 3406 3419 
Q 3406 3131 3298 2873 
Q 3191 2616 2906 2266 
Q 2828 2175 2409 1742 
Q 1991 1309 1228 531 
z
" transform="scale(0.015625)"/>
       </defs>
       <use xlink:href="#DejaVuSans-32"/>
       <use xlink:href="#DejaVuSans-30" x="63.623047"/>
       <use xlink:href="#DejaVuSans-30" x="127.246094"/>
      </g>
     </g>
    </g>
    <g id="text_6">
     <!-- Order Index -->
     <g transform="translate(206.594375 335.860562)scale(0.1 -0.1)">
      <defs>
       <path id="DejaVuSans-4f" d="M 2522 4238 
Q 1834 4238 1429 3725 
Q 1025 3213 1025 2328 
Q 1025 1447 1429 934 
Q 1834 422 2522 422 
Q 3209 422 3611 934 
Q 4013 1447 4013 2328 
Q 4013 3213 3611 3725 
Q 3209 4238 2522 4238 
z
M 2522 4750 
Q 3503 4750 4090 4092 
Q 4678 3434 4678 2328 
Q 4678 1225 4090 567 
Q 3503 -91 2522 -91 
Q 1538 -91 948 565 
Q 359 1222 359 2328 
Q 359 3434 948 4092 
Q 1538 4750 2522 4750 
z
" transform="scale(0.015625)"/>
       <path id="DejaVuSans-72" d="M 2631 2963 
Q 2534 3019 2420 3045 
Q 2306 3072 2169 3072 
Q 1681 3072 1420 2755 
Q 1159 2438 1159 1844 
L 1159 0 
L 581 0 
L 581 3500 
L 1159 3500 
L 1159 2956 
Q 1341 3275 1631 3429 
Q 1922 3584 2338 3584 
Q 2397 3584 2469 3576 
Q 2541 3569 2628 3553 
L 2631 2963 
z
" transform="scale(0.015625)"/>
       <path id="DejaVuSans-64" d="M 2906 2969 
L 2906 4863 
L 3481 4863 
L 3481 0 
L 2906 0 
L 2906 525 
Q 2725 213 2448 61 
Q 2172 -91 1784 -91 
Q 1150 -91 751 415 
Q 353 922 353 1747 
Q 353 2572 751 3078 
Q 1150 3584 1784 3584 
Q 2172 3584 2448 3432 
Q 2725 3281 2906 2969 
z
M 947 1747 
Q 947 1113 1208 752 
Q 1469 391 1925 391 
Q 2381 391 2643 752 
Q 2906 1113 2906 1747 
Q 2906 2381 2643 2742 
Q 2381 3103 1925 3103 
Q 1469 3103 1208 2742 
Q 947 2381 947 1747 
z
" transform="scale(0.015625)"/>
       <path id="DejaVuSans-65" d="M 3597 1894 
L 3597 1613 
L 953 1613 
Q 991 1019 1311 708 
Q 1631 397 2203 397 
Q 2534 397 2845 478 
Q 3156 559 3463 722 
L 3463 178 
Q 3153 47 2828 -22 
Q 2503 -91 2169 -91 
Q 1331 -91 842 396 
Q 353 884 353 1716 
Q 353 2575 817 3079 
Q 1281 3584 2069 3584 
Q 2775 3584 3186 3129 
Q 3597 2675 3597 1894 
z
M 3022 2063 
Q 3016 2534 2758 2815 
Q 2500 3097 2075 3097 
Q 1594 3097 1305 2825 
Q 1016 2553 972 2059 
L 3022 2063 
z
" transform="scale(0.015625)"/>
       <path id="DejaVuSans-20" transform="scale(0.015625)"/>
       <path id="DejaVuSans-49" d="M 628 4666 
L 1259 4666 
L 1259 0 
L 628 0 
L 628 4666 
z
" transform="scale(0.015625)"/>
       <path id="DejaVuSans-6e" d="M 3513 2113 
L 3513 0 
L 2938 0 
L 2938 2094 
Q 2938 2591 2744 2837 
Q 2550 3084 2163 3084 
Q 1697 3084 1428 2787 
Q 1159 2491 1159 1978 
L 1159 0 
L 581 0 
L 581 3500 
L 1159 3500 
L 1159 2956 
Q 1366 3272 1645 3428 
Q 1925 3584 2291 3584 
Q 2894 3584 3203 3211 
Q 3513 2838 3513 2113 
z
" transform="scale(0.015625)"/>
       <path id="DejaVuSans-78" d="M 3513 3500 
L 2247 1797 
L 3578 0 
L 2900 0 
L 1881 1375 
L 863 0 
L 184 0 
L 1544 1831 
L 300 3500 
L 978 3500 
L 1906 2253 
L 2834 3500 
L 3513 3500 
z
" transform="scale(0.015625)"/>
      </defs>
      <use xlink:href="#DejaVuSans-4f"/>
      <use xlink:href="#DejaVuSans-72" x="78.710938"/>
      <use xlink:href="#DejaVuSans-64" x="118.074219"/>
      <use xlink:href="#DejaVuSans-65" x="181.550781"/>
      <use xlink:href="#DejaVuSans-72" x="243.074219"/>
      <use xlink:href="#DejaVuSans-20" x="284.1875"/>
      <use xlink:href="#DejaVuSans-49" x="315.974609"/>
      <use xlink:href="#DejaVuSans-6e" x="345.466797"/>
      <use xlink:href="#DejaVuSans-64" x="408.845703"/>
      <use xlink:href="#DejaVuSans-65" x="472.322266"/>
      <use xlink:href="#DejaVuSans-78" x="532.095703"/>
     </g>
    </g>
   </g>
   <g id="matplotlib.axis_2">
    <g id="ytick_1">
     <g id="line2d_6">
      <defs>
       <path id="ma45729dfb3" d="M 0 0 
L -3.5 0 
" style="stroke: #000000; stroke-width: 0.8"/>
      </defs>
      <g>
       <use xlink:href="#ma45729dfb3" x="57.6" y="295.488" style="stroke: #000000; stroke-width: 0.8"/>
      </g>
     </g>
     <g id="text_7">
      <!-- 0 -->
      <g transform="translate(44.2375 299.287219)scale(0.1 -0.1)">
       <use xlink:href="#DejaVuSans-30"/>
      </g>
     </g>
    </g>
    <g id="ytick_2">
     <g id="line2d_7">
      <g>
       <use xlink:href="#ma45729dfb3" x="57.6" y="265.697625" style="stroke: #000000; stroke-width: 0.8"/>
      </g>
     </g>
     <g id="text_8">
      <!-- 20 -->
      <g transform="translate(37.875 269.496844)scale(0.1 -0.1)">
       <use xlink:href="#DejaVuSans-32"/>
       <use xlink:href="#DejaVuSans-30" x="63.623047"/>
      </g>
     </g>
    </g>
    <g id="ytick_3">
     <g id="line2d_8">
      <g>
       <use xlink:href="#ma45729dfb3" x="57.6" y="235.90725" style="stroke: #000000; stroke-width: 0.8"/>
      </g>
     </g>
     <g id="text_9">
      <!-- 40 -->
      <g transform="translate(37.875 239.706469)scale(0.1 -0.1)">
       <defs>
        <path id="DejaVuSans-34" d="M 2419 4116 
L 825 1625 
L 2419 1625 
L 2419 4116 
z
M 2253 4666 
L 3047 4666 
L 3047 1625 
L 3713 1625 
L 3713 1100 
L 3047 1100 
L 3047 0 
L 2419 0 
L 2419 1100 
L 313 1100 
L 313 1709 
L 2253 4666 
z
" transform="scale(0.015625)"/>
       </defs>
       <use xlink:href="#DejaVuSans-34"/>
       <use xlink:href="#DejaVuSans-30" x="63.623047"/>
      </g>
     </g>
    </g>
    <g id="ytick_4">
     <g id="line2d_9">
      <g>
       <use xlink:href="#ma45729dfb3" x="57.6" y="206.116875" style="stroke: #000000; stroke-width: 0.8"/>
      </g>
     </g>
     <g id="text_10">
      <!-- 60 -->
      <g transform="translate(37.875 209.916094)scale(0.1 -0.1)">
       <defs>
        <path id="DejaVuSans-36" d="M 2113 2584 
Q 1688 2584 1439 2293 
Q 1191 2003 1191 1497 
Q 1191 994 1439 701 
Q 1688 409 2113 409 
Q 2538 409 2786 701 
Q 3034 994 3034 1497 
Q 3034 2003 2786 2293 
Q 2538 2584 2113 2584 
z
M 3366 4563 
L 3366 3988 
Q 3128 4100 2886 4159 
Q 2644 4219 2406 4219 
Q 1781 4219 1451 3797 
Q 1122 3375 1075 2522 
Q 1259 2794 1537 2939 
Q 1816 3084 2150 3084 
Q 2853 3084 3261 2657 
Q 3669 2231 3669 1497 
Q 3669 778 3244 343 
Q 2819 -91 2113 -91 
Q 1303 -91 875 529 
Q 447 1150 447 2328 
Q 447 3434 972 4092 
Q 1497 4750 2381 4750 
Q 2619 4750 2861 4703 
Q 3103 4656 3366 4563 
z
" transform="scale(0.015625)"/>
       </defs>
       <use xlink:href="#DejaVuSans-36"/>
       <use xlink:href="#DejaVuSans-30" x="63.623047"/>
      </g>
     </g>
    </g>
    <g id="ytick_5">
     <g id="line2d_10">
      <g>
       <use xlink:href="#ma45729dfb3" x="57.6" y="176.3265" style="stroke: #000000; stroke-width: 0.8"/>
      </g>
     </g>
     <g id="text_11">
      <!-- 80 -->
      <g transform="translate(37.875 180.125719)scale(0.1 -0.1)">
       <defs>
        <path id="DejaVuSans-38" d="M 2034 2216 
Q 1584 2216 1326 1975 
Q 1069 1734 1069 1313 
Q 1069 891 1326 650 
Q 1584 409 2034 409 
Q 2484 409 2743 651 
Q 3003 894 3003 1313 
Q 3003 1734 2745 1975 
Q 2488 2216 2034 2216 
z
M 1403 2484 
Q 997 2584 770 2862 
Q 544 3141 544 3541 
Q 544 4100 942 4425 
Q 1341 4750 2034 4750 
Q 2731 4750 3128 4425 
Q 3525 4100 3525 3541 
Q 3525 3141 3298 2862 
Q 3072 2584 2669 2484 
Q 3125 2378 3379 2068 
Q 3634 1759 3634 1313 
Q 3634 634 3220 271 
Q 2806 -91 2034 -91 
Q 1263 -91 848 271 
Q 434 634 434 1313 
Q 434 1759 690 2068 
Q 947 2378 1403 2484 
z
M 1172 3481 
Q 1172 3119 1398 2916 
Q 1625 2713 2034 2713 
Q 2441 2713 2670 2916 
Q 2900 3119 2900 3481 
Q 2900 3844 2670 4047 
Q 2441 4250 2034 4250 
Q 1625 4250 1398 4047 
Q 1172 3844 1172 3481 
z
" transform="scale(0.015625)"/>
       </defs>
       <use xlink:href="#DejaVuSans-38"/>
       <use xlink:href="#DejaVuSans-30" x="63.623047"/>
      </g>
     </g>
    </g>
    <g id="ytick_6">
     <g id="line2d_11">
      <g>
       <use xlink:href="#ma45729dfb3" x="57.6" y="146.536125" style="stroke: #000000; stroke-width: 0.8"/>
      </g>
     </g>
     <g id="text_12">
      <!-- 100 -->
      <g transform="translate(31.5125 150.335344)scale(0.1 -0.1)">
       <use xlink:href="#DejaVuSans-31"/>
       <use xlink:href="#DejaVuSans-30" x="63.623047"/>
       <use xlink:href="#DejaVuSans-30" x="127.246094"/>
      </g>
     </g>
    </g>
    <g id="ytick_7">
     <g id="line2d_12">
      <g>
       <use xlink:href="#ma45729dfb3" x="57.6" y="116.74575" style="stroke: #000000; stroke-width: 0.8"/>
      </g>
     </g>
     <g id="text_13">
      <!-- 120 -->
      <g transform="translate(31.5125 120.544969)scale(0.1 -0.1)">
       <use xlink:href="#DejaVuSans-31"/>
       <use xlink:href="#DejaVuSans-32" x="63.623047"/>
       <use xlink:href="#DejaVuSans-30" x="127.246094"/>
      </g>
     </g>
    </g>
    <g id="ytick_8">
     <g id="line2d_13">
      <g>
       <use xlink:href="#ma45729dfb3" x="57.6" y="86.955375" style="stroke: #000000; stroke-width: 0.8"/>
      </g>
     </g>
     <g id="text_14">
      <!-- 140 -->
      <g transform="translate(31.5125 90.754594)scale(0.1 -0.1)">
       <use xlink:href="#DejaVuSans-31"/>
       <use xlink:href="#DejaVuSans-34" x="63.623047"/>
       <use xlink:href="#DejaVuSans-30" x="127.246094"/>
      </g>
     </g>
    </g>
    <g id="ytick_9">
     <g id="line2d_14">
      <g>
       <use xlink:href="#ma45729dfb3" x="57.6" y="57.165" style="stroke: #000000; stroke-width: 0.8"/>
      </g>
     </g>
     <g id="text_15">
      <!-- 160 -->
      <g transform="translate(31.5125 60.964218)scale(0.1 -0.1)">
       <use xlink:href="#DejaVuSans-31"/>
       <use xlink:href="#DejaVuSans-36" x="63.623047"/>
       <use xlink:href="#DejaVuSans-30" x="127.246094"/>
      </g>
     </g>
    </g>
    <g id="text_16">
     <!-- Order Delivered Time -->
     <g transform="translate(25.432812 228.08425)rotate(-90)scale(0.1 -0.1)">
      <defs>
       <path id="DejaVuSans-44" d="M 1259 4147 
L 1259 519 
L 2022 519 
Q 2988 519 3436 956 
Q 3884 1394 3884 2338 
Q 3884 3275 3436 3711 
Q 2988 4147 2022 4147 
L 1259 4147 
z
M 628 4666 
L 1925 4666 
Q 3281 4666 3915 4102 
Q 4550 3538 4550 2338 
Q 4550 1131 3912 565 
Q 3275 0 1925 0 
L 628 0 
L 628 4666 
z
" transform="scale(0.015625)"/>
       <path id="DejaVuSans-6c" d="M 603 4863 
L 1178 4863 
L 1178 0 
L 603 0 
L 603 4863 
z
" transform="scale(0.015625)"/>
       <path id="DejaVuSans-69" d="M 603 3500 
L 1178 3500 
L 1178 0 
L 603 0 
L 603 3500 
z
M 603 4863 
L 1178 4863 
L 1178 4134 
L 603 4134 
L 603 4863 
z
" transform="scale(0.015625)"/>
       <path id="DejaVuSans-76" d="M 191 3500 
L 800 3500 
L 1894 563 
L 2988 3500 
L 3597 3500 
L 2284 0 
L 1503 0 
L 191 3500 
z
" transform="scale(0.015625)"/>
       <path id="DejaVuSans-54" d="M -19 4666 
L 3928 4666 
L 3928 4134 
L 2272 4134 
L 2272 0 
L 1638 0 
L 1638 4134 
L -19 4134 
L -19 4666 
z
" transform="scale(0.015625)"/>
       <path id="DejaVuSans-6d" d="M 3328 2828 
Q 3544 3216 3844 3400 
Q 4144 3584 4550 3584 
Q 5097 3584 5394 3201 
Q 5691 2819 5691 2113 
L 5691 0 
L 5113 0 
L 5113 2094 
Q 5113 2597 4934 2840 
Q 4756 3084 4391 3084 
Q 3944 3084 3684 2787 
Q 3425 2491 3425 1978 
L 3425 0 
L 2847 0 
L 2847 2094 
Q 2847 2600 2669 2842 
Q 2491 3084 2119 3084 
Q 1678 3084 1418 2786 
Q 1159 2488 1159 1978 
L 1159 0 
L 581 0 
L 581 3500 
L 1159 3500 
L 1159 2956 
Q 1356 3278 1631 3431 
Q 1906 3584 2284 3584 
Q 2666 3584 2933 3390 
Q 3200 3197 3328 2828 
z
" transform="scale(0.015625)"/>
      </defs>
      <use xlink:href="#DejaVuSans-4f"/>
      <use xlink:href="#DejaVuSans-72" x="78.710938"/>
      <use xlink:href="#DejaVuSans-64" x="118.074219"/>
      <use xlink:href="#DejaVuSans-65" x="181.550781"/>
      <use xlink:href="#DejaVuSans-72" x="243.074219"/>
      <use xlink:href="#DejaVuSans-20" x="284.1875"/>
      <use xlink:href="#DejaVuSans-44" x="315.974609"/>
      <use xlink:href="#DejaVuSans-65" x="392.976562"/>
      <use xlink:href="#DejaVuSans-6c" x="454.5"/>
      <use xlink:href="#DejaVuSans-69" x="482.283203"/>
      <use xlink:href="#DejaVuSans-76" x="510.066406"/>
      <use xlink:href="#DejaVuSans-65" x="569.246094"/>
      <use xlink:href="#DejaVuSans-72" x="630.769531"/>
      <use xlink:href="#DejaVuSans-65" x="669.632812"/>
      <use xlink:href="#DejaVuSans-64" x="731.15625"/>
      <use xlink:href="#DejaVuSans-20" x="794.632812"/>
      <use xlink:href="#DejaVuSans-54" x="826.419922"/>
      <use xlink:href="#DejaVuSans-69" x="884.378906"/>
      <use xlink:href="#DejaVuSans-6d" x="912.162109"/>
      <use xlink:href="#DejaVuSans-65" x="1009.574219"/>
     </g>
    </g>
   </g>
   <g id="line2d_15">
    <path d="M 73.832727 295.488 
L 75.356927 293.998481 
L 81.453726 293.998481 
L 82.977926 292.508962 
L 86.026325 292.508962 
L 90.598924 288.040406 
L 92.123124 288.040406 
L 93.647324 286.550887 
L 96.695723 286.550887 
L 98.219923 285.061369 
L 104.316722 285.061369 
L 105.840922 283.57185 
L 108.889321 283.57185 
L 110.413521 280.592812 
L 111.937721 280.592812 
L 113.461921 279.103294 
L 114.98612 279.103294 
L 116.51032 276.124256 
L 119.55872 276.124256 
L 122.607119 273.145219 
L 128.703918 273.145219 
L 131.752318 270.166181 
L 133.276517 270.166181 
L 136.324917 267.187144 
L 140.897516 267.187144 
L 142.421716 265.697625 
L 143.945915 265.697625 
L 145.470115 264.208106 
L 151.566914 264.208106 
L 153.091114 262.718587 
L 157.663713 262.718587 
L 159.187913 261.229069 
L 160.712113 261.229069 
L 162.236312 259.73955 
L 163.760512 259.73955 
L 166.808912 256.760512 
L 168.333111 256.760512 
L 169.857311 255.270994 
L 174.42991 255.270994 
L 177.47831 252.291956 
L 180.526709 252.291956 
L 182.050909 250.802437 
L 186.623508 250.802437 
L 188.147708 249.312919 
L 192.720307 249.312919 
L 194.244507 247.8234 
L 197.292907 247.8234 
L 198.817106 246.333881 
L 200.341306 246.333881 
L 201.865506 244.844362 
L 203.389706 244.844362 
L 207.962305 240.375806 
L 209.486504 240.375806 
L 212.534904 237.396769 
L 214.059104 234.417731 
L 215.583303 232.928212 
L 217.107503 232.928212 
L 218.631703 231.438694 
L 221.680102 231.438694 
L 224.728502 228.459656 
L 226.252702 228.459656 
L 227.776901 225.480619 
L 229.301101 225.480619 
L 232.349501 222.501581 
L 233.8737 222.501581 
L 235.3979 221.012062 
L 236.9221 221.012062 
L 238.4463 219.522544 
L 241.494699 219.522544 
L 243.018899 218.033025 
L 244.543099 218.033025 
L 247.591498 215.053987 
L 249.115698 215.053987 
L 250.639898 213.564469 
L 256.736697 213.564469 
L 258.260896 212.07495 
L 259.785096 212.07495 
L 261.309296 210.585431 
L 262.833496 210.585431 
L 264.357695 207.606394 
L 265.881895 206.116875 
L 268.930294 206.116875 
L 270.454494 204.627356 
L 275.027093 204.627356 
L 279.599693 200.1588 
L 287.220691 200.1588 
L 288.744891 198.669281 
L 291.793291 198.669281 
L 293.31749 197.179762 
L 294.84169 197.179762 
L 296.36589 195.690244 
L 300.938489 195.690244 
L 302.462689 194.200725 
L 307.035288 194.200725 
L 308.559488 192.711206 
L 310.083688 192.711206 
L 311.607887 189.732169 
L 314.656287 186.753131 
L 316.180487 182.284575 
L 317.704686 180.795056 
L 320.753086 180.795056 
L 323.801485 177.816019 
L 326.849885 177.816019 
L 328.374085 176.3265 
L 331.422484 176.3265 
L 334.470883 173.347462 
L 340.567682 173.347462 
L 343.616082 170.368425 
L 345.140282 170.368425 
L 346.664481 168.878906 
L 348.188681 168.878906 
L 351.237081 165.899869 
L 352.76128 165.899869 
L 354.28548 164.41035 
L 355.80968 164.41035 
L 357.33388 162.920831 
L 360.382279 162.920831 
L 361.906479 161.431312 
L 364.954878 161.431312 
L 368.003278 158.452275 
L 371.051677 158.452275 
L 372.575877 156.962756 
L 377.148476 156.962756 
L 378.672676 155.473237 
L 383.245275 155.473237 
L 384.769475 153.983719 
L 386.293675 153.983719 
L 387.817875 152.4942 
L 389.342074 152.4942 
L 390.866274 151.004681 
L 395.438873 151.004681 
L 398.487273 148.025644 
L 398.487273 148.025644 
" clip-path="url(#p885f0af290)" style="fill: none; stroke: #32cd32; stroke-linecap: square"/>
   </g>
   <g id="line2d_16">
    <path d="M 73.832727 227.843274 
L 75.356927 233.680274 
L 76.881127 226.747265 
L 78.405327 216.523381 
L 79.929526 226.870946 
L 81.453726 213.698298 
L 82.977926 249.473125 
L 84.502125 237.498485 
L 86.026325 262.718587 
L 87.550525 257.832802 
L 89.074725 255.843307 
L 90.598924 243.354844 
L 92.123124 257.676321 
L 93.647324 206.711911 
L 95.171524 244.616546 
L 96.695723 237.855829 
L 98.219923 218.033025 
L 99.744123 213.85874 
L 101.268323 215.970474 
L 102.792522 235.865906 
L 104.316722 245.735461 
L 105.840922 201.611092 
L 108.889321 255.087626 
L 110.413521 231.39735 
L 111.937721 242.698999 
L 113.461921 220.123195 
L 114.98612 245.126999 
L 116.51032 228.415885 
L 118.03452 241.498589 
L 119.55872 184.298977 
L 121.082919 210.905845 
L 122.607119 202.720735 
L 127.179718 239.168924 
L 128.703918 193.927002 
L 130.228118 209.344937 
L 131.752318 215.738184 
L 133.276517 224.272041 
L 134.800717 184.094095 
L 136.324917 201.468922 
L 137.849117 241.513697 
L 139.373316 209.438906 
L 140.897516 205.099045 
L 142.421716 226.902571 
L 143.945915 201.861653 
L 145.470115 168.818135 
L 146.994315 207.833814 
L 148.518515 220.38318 
L 150.042714 195.690244 
L 151.566914 211.158109 
L 153.091114 221.012062 
L 154.615314 184.305762 
L 156.139513 222.941436 
L 157.663713 189.973696 
L 159.187913 188.22075 
L 160.712113 217.821311 
L 162.236312 179.305537 
L 163.760512 173.642582 
L 165.284712 200.376685 
L 166.808912 199.358624 
L 168.333111 200.126434 
L 171.381511 155.67401 
L 172.905711 197.522756 
L 174.42991 181.978832 
L 177.47831 204.236095 
L 179.00251 179.547065 
L 180.526709 210.076516 
L 182.050909 205.674401 
L 183.575109 209.038708 
L 185.099309 218.922083 
L 186.623508 186.329704 
L 188.147708 209.987011 
L 189.671908 188.328679 
L 191.196108 201.604547 
L 192.720307 190.181738 
L 194.244507 201.46285 
L 195.768707 216.543506 
L 197.292907 200.690086 
L 198.817106 171.68799 
L 200.341306 177.792 
L 201.865506 171.140175 
L 203.389706 199.716326 
L 204.913905 197.13326 
L 206.438105 183.158757 
L 207.962305 155.811064 
L 209.486504 178.595924 
L 211.010704 211.17297 
L 212.534904 165.54009 
L 214.059104 146.519201 
L 215.583303 197.097265 
L 217.107503 177.512748 
L 218.631703 192.243931 
L 220.155903 143.489417 
L 221.680102 154.468942 
L 223.204302 179.779887 
L 224.728502 157.598788 
L 226.252702 152.308332 
L 227.776901 173.014185 
L 229.301101 150.496466 
L 230.825301 146.879381 
L 232.349501 173.76446 
L 233.8737 177.618291 
L 235.3979 184.936597 
L 236.9221 138.624861 
L 238.4463 176.009723 
L 239.970499 175.853099 
L 241.494699 135.190008 
L 243.018899 136.915563 
L 244.543099 158.691365 
L 246.067298 142.947426 
L 247.591498 153.274105 
L 249.115698 156.931738 
L 250.639898 138.32804 
L 252.164097 159.624223 
L 253.688297 152.4942 
L 255.212497 175.110079 
L 256.736697 145.919743 
L 258.260896 165.7144 
L 259.785096 174.986685 
L 261.309296 173.347462 
L 262.833496 156.088359 
L 264.357695 159.550532 
L 265.881895 120.561613 
L 267.406095 130.545937 
L 268.930294 134.642548 
L 270.454494 154.180391 
L 271.978694 152.718472 
L 273.502894 158.733216 
L 275.027093 165.631249 
L 276.551293 132.299839 
L 278.075493 122.215954 
L 279.599693 108.509366 
L 281.123892 137.351521 
L 282.648092 123.596718 
L 284.172292 130.7133 
L 285.696492 134.517371 
L 287.220691 161.982217 
L 288.744891 154.334019 
L 290.269091 124.513509 
L 291.793291 166.788926 
L 293.31749 130.852019 
L 294.84169 143.239517 
L 296.36589 138.798333 
L 297.89009 156.962756 
L 299.414289 132.149409 
L 300.938489 135.052054 
L 302.462689 135.494157 
L 303.986889 156.024142 
L 305.511088 109.068058 
L 307.035288 136.327379 
L 308.559488 148.680704 
L 310.083688 151.409946 
L 311.607887 142.823615 
L 313.132087 120.305021 
L 314.656287 127.62195 
L 316.180487 135.51187 
L 317.704686 131.932147 
L 319.228886 107.54646 
L 320.753086 125.649027 
L 322.277286 110.715657 
L 323.801485 86.809816 
L 325.325685 89.311101 
L 326.849885 108.915351 
L 328.374085 104.201693 
L 329.898284 121.760501 
L 331.422484 92.461004 
L 332.946684 106.899352 
L 334.470883 115.599225 
L 335.995083 108.040391 
L 337.519283 136.334623 
L 339.043483 100.4268 
L 340.567682 110.981226 
L 342.091882 100.203317 
L 343.616082 129.362027 
L 345.140282 106.639532 
L 346.664481 137.475736 
L 348.188681 94.830297 
L 349.712881 129.711072 
L 351.237081 113.433435 
L 352.76128 101.190817 
L 354.28548 128.334884 
L 355.80968 109.264321 
L 357.33388 116.012277 
L 358.858079 102.427755 
L 360.382279 81.652568 
L 361.906479 112.568404 
L 363.430679 98.843951 
L 364.954878 98.982011 
L 366.479078 118.935396 
L 368.003278 106.133507 
L 369.527478 110.396413 
L 371.051677 80.977175 
L 372.575877 114.360329 
L 374.100077 83.670595 
L 375.624277 113.873379 
L 377.148476 84.217865 
L 378.672676 115.256231 
L 380.196876 91.824836 
L 381.721076 88.494572 
L 383.245275 111.137975 
L 384.769475 59.896214 
L 386.293675 89.510985 
L 387.817875 90.044899 
L 389.342074 98.274325 
L 390.866274 105.11054 
L 392.390474 81.324253 
L 393.914673 97.346561 
L 395.438873 74.442599 
L 396.963073 80.925282 
L 398.487273 53.568 
L 398.487273 53.568 
" clip-path="url(#p885f0af290)" style="fill: none; stroke-dasharray: 3.7,1.6; stroke-dashoffset: 0; stroke: #4169e1"/>
   </g>
   <g id="line2d_17">
    <path d="M 73.832727 227.843274 
L 75.356927 233.680274 
L 76.881127 226.747265 
L 78.405327 216.523381 
L 79.929526 226.870946 
L 81.453726 213.698298 
L 82.977926 249.473125 
L 84.502125 237.498485 
L 86.026325 262.718587 
L 87.550525 257.832802 
L 89.074725 255.843307 
L 90.598924 243.354844 
L 92.123124 257.676321 
L 93.647324 206.711911 
L 95.171524 244.616546 
L 96.695723 237.855829 
L 98.219923 218.033025 
L 99.744123 213.85874 
L 101.268323 215.970474 
L 102.792522 235.865906 
L 104.316722 245.735461 
L 105.840922 201.611092 
L 108.889321 255.087626 
L 110.413521 231.39735 
L 111.937721 242.698999 
L 113.461921 220.123195 
L 114.98612 245.126999 
L 116.51032 228.415885 
L 118.03452 241.498589 
L 119.55872 184.298977 
L 121.082919 210.905845 
L 122.607119 202.720735 
L 127.179718 239.168924 
L 128.703918 193.927002 
L 130.228118 209.344937 
L 131.752318 215.738184 
L 133.276517 224.272041 
L 134.800717 184.094095 
L 136.324917 201.468922 
L 137.849117 241.513697 
L 139.373316 209.438906 
L 140.897516 205.099045 
L 142.421716 226.902571 
L 143.945915 201.861653 
L 145.470115 168.818135 
L 146.994315 207.833814 
L 148.518515 220.38318 
L 150.042714 195.690244 
L 151.566914 211.158109 
L 153.091114 221.012062 
L 154.615314 184.305762 
L 156.139513 222.941436 
L 157.663713 189.973696 
L 159.187913 188.22075 
L 160.712113 217.821311 
L 162.236312 179.305537 
L 163.760512 173.642582 
L 165.284712 200.376685 
L 166.808912 199.358624 
L 168.333111 200.126434 
L 171.381511 155.67401 
L 172.905711 197.522756 
L 174.42991 181.978832 
L 177.47831 204.236095 
L 179.00251 179.547065 
L 180.526709 210.076516 
L 182.050909 205.674401 
L 183.575109 209.038708 
L 185.099309 218.922083 
L 186.623508 186.329704 
L 188.147708 209.987011 
L 189.671908 188.328679 
L 191.196108 201.604547 
L 192.720307 190.181738 
L 194.244507 201.46285 
L 195.768707 216.543506 
L 197.292907 200.690086 
L 198.817106 171.68799 
L 200.341306 177.792 
L 201.865506 171.140175 
L 203.389706 199.716326 
L 204.913905 197.13326 
L 206.438105 183.158757 
L 207.962305 155.811064 
L 209.486504 178.595924 
L 211.010704 211.17297 
L 212.534904 165.54009 
L 214.059104 146.519201 
L 215.583303 197.097265 
L 217.107503 177.512748 
L 218.631703 192.243931 
L 220.155903 143.489417 
L 221.680102 154.468942 
L 223.204302 179.779887 
L 224.728502 157.598788 
L 226.252702 152.308332 
L 227.776901 173.014185 
L 229.301101 150.496466 
L 230.825301 146.879381 
L 232.349501 173.76446 
L 233.8737 177.618291 
L 235.3979 184.936597 
L 236.9221 138.624861 
L 238.4463 176.009723 
L 239.970499 175.853099 
L 241.494699 135.190008 
L 243.018899 136.915563 
L 244.543099 158.691365 
L 246.067298 142.947426 
L 247.591498 153.274105 
L 249.115698 156.931738 
L 250.639898 138.32804 
L 252.164097 159.624223 
L 253.688297 152.4942 
L 255.212497 175.110079 
L 256.736697 145.919743 
L 258.260896 165.7144 
L 259.785096 174.986685 
L 261.309296 173.347462 
L 262.833496 156.088359 
L 264.357695 159.550532 
L 265.881895 120.561613 
L 267.406095 130.545937 
L 268.930294 134.642548 
L 270.454494 154.180391 
L 271.978694 152.718472 
L 273.502894 158.733216 
L 275.027093 165.631249 
L 276.551293 132.299839 
L 278.075493 122.215954 
L 279.599693 108.509366 
L 281.123892 137.351521 
L 282.648092 123.596718 
L 284.172292 130.7133 
L 285.696492 134.517371 
L 287.220691 161.982217 
L 288.744891 154.334019 
L 290.269091 124.513509 
L 291.793291 166.788926 
L 293.31749 130.852019 
L 294.84169 143.239517 
L 296.36589 138.798333 
L 297.89009 156.962756 
L 299.414289 132.149409 
L 300.938489 135.052054 
L 302.462689 135.494157 
L 303.986889 156.024142 
L 305.511088 109.068058 
L 307.035288 136.327379 
L 308.559488 148.680704 
L 310.083688 151.409946 
L 311.607887 142.823615 
L 313.132087 120.305021 
L 314.656287 127.62195 
L 316.180487 135.51187 
L 317.704686 131.932147 
L 319.228886 107.54646 
L 320.753086 125.649027 
L 322.277286 110.715657 
L 323.801485 86.809816 
L 325.325685 89.311101 
L 326.849885 108.915351 
L 328.374085 104.201693 
L 329.898284 121.760501 
L 331.422484 92.461004 
L 332.946684 106.899352 
L 334.470883 115.599225 
L 335.995083 108.040391 
L 337.519283 136.334623 
L 339.043483 100.4268 
L 340.567682 110.981226 
L 342.091882 100.203317 
L 343.616082 129.362027 
L 345.140282 106.639532 
L 346.664481 137.475736 
L 348.188681 94.830297 
L 349.712881 129.711072 
L 351.237081 113.433435 
L 352.76128 101.190817 
L 354.28548 128.334884 
L 355.80968 109.264321 
L 357.33388 116.012277 
L 358.858079 102.427755 
L 360.382279 81.652568 
L 361.906479 112.568404 
L 363.430679 98.843951 
L 364.954878 98.982011 
L 366.479078 118.935396 
L 368.003278 106.133507 
L 369.527478 110.396413 
L 371.051677 80.977175 
L 372.575877 114.360329 
L 374.100077 83.670595 
L 375.624277 113.873379 
L 377.148476 84.217865 
L 378.672676 115.256231 
L 380.196876 91.824836 
L 381.721076 88.494572 
L 383.245275 111.137975 
L 384.769475 59.896214 
L 386.293675 89.510985 
L 387.817875 90.044899 
L 389.342074 98.274325 
L 390.866274 105.11054 
L 392.390474 81.324253 
L 393.914673 97.346561 
L 395.438873 74.442599 
L 396.963073 80.925282 
L 398.487273 53.568 
L 398.487273 53.568 
" clip-path="url(#p885f0af290)" style="fill: none; stroke-dasharray: 1,1.65; stroke-dashoffset: 0; stroke: #ffa500"/>
   </g>
   <g id="line2d_18">
    <path d="M 73.832727 242.875024 
L 398.487273 85.195249 
L 398.487273 85.195249 
" clip-path="url(#p885f0af290)" style="fill: none; stroke-dasharray: 1.85,0.8; stroke-dashoffset: 0; stroke: #191970; stroke-width: 0.5"/>
   </g>
   <g id="line2d_19">
    <path d="M 73.832727 242.875024 
L 398.487273 85.195249 
L 398.487273 85.195249 
" clip-path="url(#p885f0af290)" style="fill: none; stroke-dasharray: 0.5,0.825; stroke-dashoffset: 0; stroke: #ff0000; stroke-width: 0.5"/>
   </g>
   <g id="patch_3">
    <path d="M 57.6 307.584 
L 57.6 41.472 
" style="fill: none; stroke: #000000; stroke-width: 0.8; stroke-linejoin: miter; stroke-linecap: square"/>
   </g>
   <g id="patch_4">
    <path d="M 414.72 307.584 
L 414.72 41.472 
" style="fill: none; stroke: #000000; stroke-width: 0.8; stroke-linejoin: miter; stroke-linecap: square"/>
   </g>
   <g id="patch_5">
    <path d="M 57.6 307.584 
L 414.72 307.584 
" style="fill: none; stroke: #000000; stroke-width: 0.8; stroke-linejoin: miter; stroke-linecap: square"/>
   </g>
   <g id="patch_6">
    <path d="M 57.6 41.472 
L 414.72 41.472 
" style="fill: none; stroke: #000000; stroke-width: 0.8; stroke-linejoin: miter; stroke-linecap: square"/>
   </g>
   <g id="text_17">
    <!-- numRider200 -->
    <g transform="translate(195.454688 22.034625)scale(0.12 -0.12)">
     <defs>
      <path id="DejaVuSans-75" d="M 544 1381 
L 544 3500 
L 1119 3500 
L 1119 1403 
Q 1119 906 1312 657 
Q 1506 409 1894 409 
Q 2359 409 2629 706 
Q 2900 1003 2900 1516 
L 2900 3500 
L 3475 3500 
L 3475 0 
L 2900 0 
L 2900 538 
Q 2691 219 2414 64 
Q 2138 -91 1772 -91 
Q 1169 -91 856 284 
Q 544 659 544 1381 
z
M 1991 3584 
L 1991 3584 
z
" transform="scale(0.015625)"/>
      <path id="DejaVuSans-52" d="M 2841 2188 
Q 3044 2119 3236 1894 
Q 3428 1669 3622 1275 
L 4263 0 
L 3584 0 
L 2988 1197 
Q 2756 1666 2539 1819 
Q 2322 1972 1947 1972 
L 1259 1972 
L 1259 0 
L 628 0 
L 628 4666 
L 2053 4666 
Q 2853 4666 3247 4331 
Q 3641 3997 3641 3322 
Q 3641 2881 3436 2590 
Q 3231 2300 2841 2188 
z
M 1259 4147 
L 1259 2491 
L 2053 2491 
Q 2509 2491 2742 2702 
Q 2975 2913 2975 3322 
Q 2975 3731 2742 3939 
Q 2509 4147 2053 4147 
L 1259 4147 
z
" transform="scale(0.015625)"/>
     </defs>
     <use xlink:href="#DejaVuSans-6e"/>
     <use xlink:href="#DejaVuSans-75" x="63.378906"/>
     <use xlink:href="#DejaVuSans-6d" x="126.757812"/>
     <use xlink:href="#DejaVuSans-52" x="224.169922"/>
     <use xlink:href="#DejaVuSans-69" x="293.652344"/>
     <use xlink:href="#DejaVuSans-64" x="321.435547"/>
     <use xlink:href="#DejaVuSans-65" x="384.912109"/>
     <use xlink:href="#DejaVuSans-72" x="446.435547"/>
     <use xlink:href="#DejaVuSans-32" x="487.548828"/>
     <use xlink:href="#DejaVuSans-30" x="551.171875"/>
     <use xlink:href="#DejaVuSans-30" x="614.794922"/>
    </g>
    <!--  grid50 -->
    <g transform="translate(214.866562 35.472)scale(0.12 -0.12)">
     <defs>
      <path id="DejaVuSans-67" d="M 2906 1791 
Q 2906 2416 2648 2759 
Q 2391 3103 1925 3103 
Q 1463 3103 1205 2759 
Q 947 2416 947 1791 
Q 947 1169 1205 825 
Q 1463 481 1925 481 
Q 2391 481 2648 825 
Q 2906 1169 2906 1791 
z
M 3481 434 
Q 3481 -459 3084 -895 
Q 2688 -1331 1869 -1331 
Q 1566 -1331 1297 -1286 
Q 1028 -1241 775 -1147 
L 775 -588 
Q 1028 -725 1275 -790 
Q 1522 -856 1778 -856 
Q 2344 -856 2625 -561 
Q 2906 -266 2906 331 
L 2906 616 
Q 2728 306 2450 153 
Q 2172 0 1784 0 
Q 1141 0 747 490 
Q 353 981 353 1791 
Q 353 2603 747 3093 
Q 1141 3584 1784 3584 
Q 2172 3584 2450 3431 
Q 2728 3278 2906 2969 
L 2906 3500 
L 3481 3500 
L 3481 434 
z
" transform="scale(0.015625)"/>
     </defs>
     <use xlink:href="#DejaVuSans-20"/>
     <use xlink:href="#DejaVuSans-67" x="31.787109"/>
     <use xlink:href="#DejaVuSans-72" x="95.263672"/>
     <use xlink:href="#DejaVuSans-69" x="136.376953"/>
     <use xlink:href="#DejaVuSans-64" x="164.160156"/>
     <use xlink:href="#DejaVuSans-35" x="227.636719"/>
     <use xlink:href="#DejaVuSans-30" x="291.259766"/>
    </g>
   </g>
   <g id="legend_1">
    <g id="patch_7">
     <path d="M 64.6 122.862625 
L 241.8625 122.862625 
Q 243.8625 122.862625 243.8625 120.862625 
L 243.8625 48.472 
Q 243.8625 46.472 241.8625 46.472 
L 64.6 46.472 
Q 62.6 46.472 62.6 48.472 
L 62.6 120.862625 
Q 62.6 122.862625 64.6 122.862625 
z
" style="fill: #ffffff; opacity: 0.8; stroke: #cccccc; stroke-linejoin: miter"/>
    </g>
    <g id="line2d_20">
     <path d="M 66.6 54.570438 
L 76.6 54.570438 
L 86.6 54.570438 
" style="fill: none; stroke: #32cd32; stroke-linecap: square"/>
    </g>
    <g id="text_18">
     <!-- Time In -->
     <g transform="translate(94.6 58.070438)scale(0.1 -0.1)">
      <use xlink:href="#DejaVuSans-54"/>
      <use xlink:href="#DejaVuSans-69" x="57.958984"/>
      <use xlink:href="#DejaVuSans-6d" x="85.742188"/>
      <use xlink:href="#DejaVuSans-65" x="183.154297"/>
      <use xlink:href="#DejaVuSans-20" x="244.677734"/>
      <use xlink:href="#DejaVuSans-49" x="276.464844"/>
      <use xlink:href="#DejaVuSans-6e" x="305.957031"/>
     </g>
    </g>
    <g id="line2d_21">
     <path d="M 66.6 69.248563 
L 76.6 69.248563 
L 86.6 69.248563 
" style="fill: none; stroke-dasharray: 3.7,1.6; stroke-dashoffset: 0; stroke: #4169e1"/>
    </g>
    <g id="text_19">
     <!-- Time Delivered - Default -->
     <g transform="translate(94.6 72.748563)scale(0.1 -0.1)">
      <defs>
       <path id="DejaVuSans-2d" d="M 313 2009 
L 1997 2009 
L 1997 1497 
L 313 1497 
L 313 2009 
z
" transform="scale(0.015625)"/>
       <path id="DejaVuSans-66" d="M 2375 4863 
L 2375 4384 
L 1825 4384 
Q 1516 4384 1395 4259 
Q 1275 4134 1275 3809 
L 1275 3500 
L 2222 3500 
L 2222 3053 
L 1275 3053 
L 1275 0 
L 697 0 
L 697 3053 
L 147 3053 
L 147 3500 
L 697 3500 
L 697 3744 
Q 697 4328 969 4595 
Q 1241 4863 1831 4863 
L 2375 4863 
z
" transform="scale(0.015625)"/>
       <path id="DejaVuSans-61" d="M 2194 1759 
Q 1497 1759 1228 1600 
Q 959 1441 959 1056 
Q 959 750 1161 570 
Q 1363 391 1709 391 
Q 2188 391 2477 730 
Q 2766 1069 2766 1631 
L 2766 1759 
L 2194 1759 
z
M 3341 1997 
L 3341 0 
L 2766 0 
L 2766 531 
Q 2569 213 2275 61 
Q 1981 -91 1556 -91 
Q 1019 -91 701 211 
Q 384 513 384 1019 
Q 384 1609 779 1909 
Q 1175 2209 1959 2209 
L 2766 2209 
L 2766 2266 
Q 2766 2663 2505 2880 
Q 2244 3097 1772 3097 
Q 1472 3097 1187 3025 
Q 903 2953 641 2809 
L 641 3341 
Q 956 3463 1253 3523 
Q 1550 3584 1831 3584 
Q 2591 3584 2966 3190 
Q 3341 2797 3341 1997 
z
" transform="scale(0.015625)"/>
       <path id="DejaVuSans-74" d="M 1172 4494 
L 1172 3500 
L 2356 3500 
L 2356 3053 
L 1172 3053 
L 1172 1153 
Q 1172 725 1289 603 
Q 1406 481 1766 481 
L 2356 481 
L 2356 0 
L 1766 0 
Q 1100 0 847 248 
Q 594 497 594 1153 
L 594 3053 
L 172 3053 
L 172 3500 
L 594 3500 
L 594 4494 
L 1172 4494 
z
" transform="scale(0.015625)"/>
      </defs>
      <use xlink:href="#DejaVuSans-54"/>
      <use xlink:href="#DejaVuSans-69" x="57.958984"/>
      <use xlink:href="#DejaVuSans-6d" x="85.742188"/>
      <use xlink:href="#DejaVuSans-65" x="183.154297"/>
      <use xlink:href="#DejaVuSans-20" x="244.677734"/>
      <use xlink:href="#DejaVuSans-44" x="276.464844"/>
      <use xlink:href="#DejaVuSans-65" x="353.466797"/>
      <use xlink:href="#DejaVuSans-6c" x="414.990234"/>
      <use xlink:href="#DejaVuSans-69" x="442.773438"/>
      <use xlink:href="#DejaVuSans-76" x="470.556641"/>
      <use xlink:href="#DejaVuSans-65" x="529.736328"/>
      <use xlink:href="#DejaVuSans-72" x="591.259766"/>
      <use xlink:href="#DejaVuSans-65" x="630.123047"/>
      <use xlink:href="#DejaVuSans-64" x="691.646484"/>
      <use xlink:href="#DejaVuSans-20" x="755.123047"/>
      <use xlink:href="#DejaVuSans-2d" x="786.910156"/>
      <use xlink:href="#DejaVuSans-20" x="822.994141"/>
      <use xlink:href="#DejaVuSans-44" x="854.78125"/>
      <use xlink:href="#DejaVuSans-65" x="931.783203"/>
      <use xlink:href="#DejaVuSans-66" x="993.306641"/>
      <use xlink:href="#DejaVuSans-61" x="1028.511719"/>
      <use xlink:href="#DejaVuSans-75" x="1089.791016"/>
      <use xlink:href="#DejaVuSans-6c" x="1153.169922"/>
      <use xlink:href="#DejaVuSans-74" x="1180.953125"/>
     </g>
    </g>
    <g id="line2d_22">
     <path d="M 66.6 83.926688 
L 76.6 83.926688 
L 86.6 83.926688 
" style="fill: none; stroke-dasharray: 1,1.65; stroke-dashoffset: 0; stroke: #ffa500"/>
    </g>
    <g id="text_20">
     <!-- Time Delivered - Anticipation -->
     <g transform="translate(94.6 87.426688)scale(0.1 -0.1)">
      <defs>
       <path id="DejaVuSans-41" d="M 2188 4044 
L 1331 1722 
L 3047 1722 
L 2188 4044 
z
M 1831 4666 
L 2547 4666 
L 4325 0 
L 3669 0 
L 3244 1197 
L 1141 1197 
L 716 0 
L 50 0 
L 1831 4666 
z
" transform="scale(0.015625)"/>
       <path id="DejaVuSans-63" d="M 3122 3366 
L 3122 2828 
Q 2878 2963 2633 3030 
Q 2388 3097 2138 3097 
Q 1578 3097 1268 2742 
Q 959 2388 959 1747 
Q 959 1106 1268 751 
Q 1578 397 2138 397 
Q 2388 397 2633 464 
Q 2878 531 3122 666 
L 3122 134 
Q 2881 22 2623 -34 
Q 2366 -91 2075 -91 
Q 1284 -91 818 406 
Q 353 903 353 1747 
Q 353 2603 823 3093 
Q 1294 3584 2113 3584 
Q 2378 3584 2631 3529 
Q 2884 3475 3122 3366 
z
" transform="scale(0.015625)"/>
       <path id="DejaVuSans-70" d="M 1159 525 
L 1159 -1331 
L 581 -1331 
L 581 3500 
L 1159 3500 
L 1159 2969 
Q 1341 3281 1617 3432 
Q 1894 3584 2278 3584 
Q 2916 3584 3314 3078 
Q 3713 2572 3713 1747 
Q 3713 922 3314 415 
Q 2916 -91 2278 -91 
Q 1894 -91 1617 61 
Q 1341 213 1159 525 
z
M 3116 1747 
Q 3116 2381 2855 2742 
Q 2594 3103 2138 3103 
Q 1681 3103 1420 2742 
Q 1159 2381 1159 1747 
Q 1159 1113 1420 752 
Q 1681 391 2138 391 
Q 2594 391 2855 752 
Q 3116 1113 3116 1747 
z
" transform="scale(0.015625)"/>
       <path id="DejaVuSans-6f" d="M 1959 3097 
Q 1497 3097 1228 2736 
Q 959 2375 959 1747 
Q 959 1119 1226 758 
Q 1494 397 1959 397 
Q 2419 397 2687 759 
Q 2956 1122 2956 1747 
Q 2956 2369 2687 2733 
Q 2419 3097 1959 3097 
z
M 1959 3584 
Q 2709 3584 3137 3096 
Q 3566 2609 3566 1747 
Q 3566 888 3137 398 
Q 2709 -91 1959 -91 
Q 1206 -91 779 398 
Q 353 888 353 1747 
Q 353 2609 779 3096 
Q 1206 3584 1959 3584 
z
" transform="scale(0.015625)"/>
      </defs>
      <use xlink:href="#DejaVuSans-54"/>
      <use xlink:href="#DejaVuSans-69" x="57.958984"/>
      <use xlink:href="#DejaVuSans-6d" x="85.742188"/>
      <use xlink:href="#DejaVuSans-65" x="183.154297"/>
      <use xlink:href="#DejaVuSans-20" x="244.677734"/>
      <use xlink:href="#DejaVuSans-44" x="276.464844"/>
      <use xlink:href="#DejaVuSans-65" x="353.466797"/>
      <use xlink:href="#DejaVuSans-6c" x="414.990234"/>
      <use xlink:href="#DejaVuSans-69" x="442.773438"/>
      <use xlink:href="#DejaVuSans-76" x="470.556641"/>
      <use xlink:href="#DejaVuSans-65" x="529.736328"/>
      <use xlink:href="#DejaVuSans-72" x="591.259766"/>
      <use xlink:href="#DejaVuSans-65" x="630.123047"/>
      <use xlink:href="#DejaVuSans-64" x="691.646484"/>
      <use xlink:href="#DejaVuSans-20" x="755.123047"/>
      <use xlink:href="#DejaVuSans-2d" x="786.910156"/>
      <use xlink:href="#DejaVuSans-20" x="822.994141"/>
      <use xlink:href="#DejaVuSans-41" x="854.78125"/>
      <use xlink:href="#DejaVuSans-6e" x="923.189453"/>
      <use xlink:href="#DejaVuSans-74" x="986.568359"/>
      <use xlink:href="#DejaVuSans-69" x="1025.777344"/>
      <use xlink:href="#DejaVuSans-63" x="1053.560547"/>
      <use xlink:href="#DejaVuSans-69" x="1108.541016"/>
      <use xlink:href="#DejaVuSans-70" x="1136.324219"/>
      <use xlink:href="#DejaVuSans-61" x="1199.800781"/>
      <use xlink:href="#DejaVuSans-74" x="1261.080078"/>
      <use xlink:href="#DejaVuSans-69" x="1300.289062"/>
      <use xlink:href="#DejaVuSans-6f" x="1328.072266"/>
      <use xlink:href="#DejaVuSans-6e" x="1389.253906"/>
     </g>
    </g>
    <g id="line2d_23">
     <path d="M 66.6 98.604813 
L 76.6 98.604813 
L 86.6 98.604813 
" style="fill: none; stroke-dasharray: 1.85,0.8; stroke-dashoffset: 0; stroke: #191970; stroke-width: 0.5"/>
    </g>
    <g id="text_21">
     <!-- best fit line for default -->
     <g transform="translate(94.6 102.104813)scale(0.1 -0.1)">
      <defs>
       <path id="DejaVuSans-62" d="M 3116 1747 
Q 3116 2381 2855 2742 
Q 2594 3103 2138 3103 
Q 1681 3103 1420 2742 
Q 1159 2381 1159 1747 
Q 1159 1113 1420 752 
Q 1681 391 2138 391 
Q 2594 391 2855 752 
Q 3116 1113 3116 1747 
z
M 1159 2969 
Q 1341 3281 1617 3432 
Q 1894 3584 2278 3584 
Q 2916 3584 3314 3078 
Q 3713 2572 3713 1747 
Q 3713 922 3314 415 
Q 2916 -91 2278 -91 
Q 1894 -91 1617 61 
Q 1341 213 1159 525 
L 1159 0 
L 581 0 
L 581 4863 
L 1159 4863 
L 1159 2969 
z
" transform="scale(0.015625)"/>
       <path id="DejaVuSans-73" d="M 2834 3397 
L 2834 2853 
Q 2591 2978 2328 3040 
Q 2066 3103 1784 3103 
Q 1356 3103 1142 2972 
Q 928 2841 928 2578 
Q 928 2378 1081 2264 
Q 1234 2150 1697 2047 
L 1894 2003 
Q 2506 1872 2764 1633 
Q 3022 1394 3022 966 
Q 3022 478 2636 193 
Q 2250 -91 1575 -91 
Q 1294 -91 989 -36 
Q 684 19 347 128 
L 347 722 
Q 666 556 975 473 
Q 1284 391 1588 391 
Q 1994 391 2212 530 
Q 2431 669 2431 922 
Q 2431 1156 2273 1281 
Q 2116 1406 1581 1522 
L 1381 1569 
Q 847 1681 609 1914 
Q 372 2147 372 2553 
Q 372 3047 722 3315 
Q 1072 3584 1716 3584 
Q 2034 3584 2315 3537 
Q 2597 3491 2834 3397 
z
" transform="scale(0.015625)"/>
      </defs>
      <use xlink:href="#DejaVuSans-62"/>
      <use xlink:href="#DejaVuSans-65" x="63.476562"/>
      <use xlink:href="#DejaVuSans-73" x="125"/>
      <use xlink:href="#DejaVuSans-74" x="177.099609"/>
      <use xlink:href="#DejaVuSans-20" x="216.308594"/>
      <use xlink:href="#DejaVuSans-66" x="248.095703"/>
      <use xlink:href="#DejaVuSans-69" x="283.300781"/>
      <use xlink:href="#DejaVuSans-74" x="311.083984"/>
      <use xlink:href="#DejaVuSans-20" x="350.292969"/>
      <use xlink:href="#DejaVuSans-6c" x="382.080078"/>
      <use xlink:href="#DejaVuSans-69" x="409.863281"/>
      <use xlink:href="#DejaVuSans-6e" x="437.646484"/>
      <use xlink:href="#DejaVuSans-65" x="501.025391"/>
      <use xlink:href="#DejaVuSans-20" x="562.548828"/>
      <use xlink:href="#DejaVuSans-66" x="594.335938"/>
      <use xlink:href="#DejaVuSans-6f" x="629.541016"/>
      <use xlink:href="#DejaVuSans-72" x="690.722656"/>
      <use xlink:href="#DejaVuSans-20" x="731.835938"/>
      <use xlink:href="#DejaVuSans-64" x="763.623047"/>
      <use xlink:href="#DejaVuSans-65" x="827.099609"/>
      <use xlink:href="#DejaVuSans-66" x="888.623047"/>
      <use xlink:href="#DejaVuSans-61" x="923.828125"/>
      <use xlink:href="#DejaVuSans-75" x="985.107422"/>
      <use xlink:href="#DejaVuSans-6c" x="1048.486328"/>
      <use xlink:href="#DejaVuSans-74" x="1076.269531"/>
     </g>
    </g>
    <g id="line2d_24">
     <path d="M 66.6 113.282938 
L 76.6 113.282938 
L 86.6 113.282938 
" style="fill: none; stroke-dasharray: 0.5,0.825; stroke-dashoffset: 0; stroke: #ff0000; stroke-width: 0.5"/>
    </g>
    <g id="text_22">
     <!-- best fit line for anticipation -->
     <g transform="translate(94.6 116.782938)scale(0.1 -0.1)">
      <use xlink:href="#DejaVuSans-62"/>
      <use xlink:href="#DejaVuSans-65" x="63.476562"/>
      <use xlink:href="#DejaVuSans-73" x="125"/>
      <use xlink:href="#DejaVuSans-74" x="177.099609"/>
      <use xlink:href="#DejaVuSans-20" x="216.308594"/>
      <use xlink:href="#DejaVuSans-66" x="248.095703"/>
      <use xlink:href="#DejaVuSans-69" x="283.300781"/>
      <use xlink:href="#DejaVuSans-74" x="311.083984"/>
      <use xlink:href="#DejaVuSans-20" x="350.292969"/>
      <use xlink:href="#DejaVuSans-6c" x="382.080078"/>
      <use xlink:href="#DejaVuSans-69" x="409.863281"/>
      <use xlink:href="#DejaVuSans-6e" x="437.646484"/>
      <use xlink:href="#DejaVuSans-65" x="501.025391"/>
      <use xlink:href="#DejaVuSans-20" x="562.548828"/>
      <use xlink:href="#DejaVuSans-66" x="594.335938"/>
      <use xlink:href="#DejaVuSans-6f" x="629.541016"/>
      <use xlink:href="#DejaVuSans-72" x="690.722656"/>
      <use xlink:href="#DejaVuSans-20" x="731.835938"/>
      <use xlink:href="#DejaVuSans-61" x="763.623047"/>
      <use xlink:href="#DejaVuSans-6e" x="824.902344"/>
      <use xlink:href="#DejaVuSans-74" x="888.28125"/>
      <use xlink:href="#DejaVuSans-69" x="927.490234"/>
      <use xlink:href="#DejaVuSans-63" x="955.273438"/>
      <use xlink:href="#DejaVuSans-69" x="1010.253906"/>
      <use xlink:href="#DejaVuSans-70" x="1038.037109"/>
      <use xlink:href="#DejaVuSans-61" x="1101.513672"/>
      <use xlink:href="#DejaVuSans-74" x="1162.792969"/>
      <use xlink:href="#DejaVuSans-69" x="1202.001953"/>
      <use xlink:href="#DejaVuSans-6f" x="1229.785156"/>
      <use xlink:href="#DejaVuSans-6e" x="1290.966797"/>
     </g>
    </g>
   </g>
  </g>
 </g>
 <defs>
  <clipPath id="p885f0af290">
   <rect x="57.6" y="41.472" width="357.12" height="266.112"/>
  </clipPath>
 </defs>
</svg>
