<?xml version="1.0" encoding="utf-8" standalone="no"?>
<!DOCTYPE svg PUBLIC "-//W3C//DTD SVG 1.1//EN"
  "http://www.w3.org/Graphics/SVG/1.1/DTD/svg11.dtd">
<svg xmlns:xlink="http://www.w3.org/1999/xlink" width="460.8pt" height="345.6pt" viewBox="0 0 460.8 345.6" xmlns="http://www.w3.org/2000/svg" version="1.1">
 <metadata>
  <rdf:RDF xmlns:dc="http://purl.org/dc/elements/1.1/" xmlns:cc="http://creativecommons.org/ns#" xmlns:rdf="http://www.w3.org/1999/02/22-rdf-syntax-ns#">
   <cc:Work>
    <dc:type rdf:resource="http://purl.org/dc/dcmitype/StillImage"/>
    <dc:date>2022-09-12T15:31:51.463435</dc:date>
    <dc:format>image/svg+xml</dc:format>
    <dc:creator>
     <cc:Agent>
      <dc:title>Matplotlib v3.5.2, https://matplotlib.org/</dc:title>
     </cc:Agent>
    </dc:creator>
   </cc:Work>
  </rdf:RDF>
 </metadata>
 <defs>
  <style type="text/css">*{stroke-linejoin: round; stroke-linecap: butt}</style>
 </defs>
 <g id="figure_1">
  <g id="patch_1">
   <path d="M 0 345.6 
L 460.8 345.6 
L 460.8 0 
L 0 0 
z
" style="fill: #ffffff"/>
  </g>
  <g id="axes_1">
   <g id="patch_2">
    <path d="M 57.6 307.584 
L 414.72 307.584 
L 414.72 41.472 
L 57.6 41.472 
z
" style="fill: #ffffff"/>
   </g>
   <g id="matplotlib.axis_1">
    <g id="xtick_1">
     <g id="line2d_1">
      <defs>
       <path id="md15dcb4088" d="M 0 0 
L 0 3.5 
" style="stroke: #000000; stroke-width: 0.8"/>
      </defs>
      <g>
       <use xlink:href="#md15dcb4088" x="73.832727" y="307.584" style="stroke: #000000; stroke-width: 0.8"/>
      </g>
     </g>
     <g id="text_1">
      <!-- 0 -->
      <g transform="translate(70.651477 322.182437)scale(0.1 -0.1)">
       <defs>
        <path id="DejaVuSans-30" d="M 2034 4250 
Q 1547 4250 1301 3770 
Q 1056 3291 1056 2328 
Q 1056 1369 1301 889 
Q 1547 409 2034 409 
Q 2525 409 2770 889 
Q 3016 1369 3016 2328 
Q 3016 3291 2770 3770 
Q 2525 4250 2034 4250 
z
M 2034 4750 
Q 2819 4750 3233 4129 
Q 3647 3509 3647 2328 
Q 3647 1150 3233 529 
Q 2819 -91 2034 -91 
Q 1250 -91 836 529 
Q 422 1150 422 2328 
Q 422 3509 836 4129 
Q 1250 4750 2034 4750 
z
" transform="scale(0.015625)"/>
       </defs>
       <use xlink:href="#DejaVuSans-30"/>
      </g>
     </g>
    </g>
    <g id="xtick_2">
     <g id="line2d_2">
      <g>
       <use xlink:href="#md15dcb4088" x="151.874685" y="307.584" style="stroke: #000000; stroke-width: 0.8"/>
      </g>
     </g>
     <g id="text_2">
      <!-- 50 -->
      <g transform="translate(145.512185 322.182437)scale(0.1 -0.1)">
       <defs>
        <path id="DejaVuSans-35" d="M 691 4666 
L 3169 4666 
L 3169 4134 
L 1269 4134 
L 1269 2991 
Q 1406 3038 1543 3061 
Q 1681 3084 1819 3084 
Q 2600 3084 3056 2656 
Q 3513 2228 3513 1497 
Q 3513 744 3044 326 
Q 2575 -91 1722 -91 
Q 1428 -91 1123 -41 
Q 819 9 494 109 
L 494 744 
Q 775 591 1075 516 
Q 1375 441 1709 441 
Q 2250 441 2565 725 
Q 2881 1009 2881 1497 
Q 2881 1984 2565 2268 
Q 2250 2553 1709 2553 
Q 1456 2553 1204 2497 
Q 953 2441 691 2322 
L 691 4666 
z
" transform="scale(0.015625)"/>
       </defs>
       <use xlink:href="#DejaVuSans-35"/>
       <use xlink:href="#DejaVuSans-30" x="63.623047"/>
      </g>
     </g>
    </g>
    <g id="xtick_3">
     <g id="line2d_3">
      <g>
       <use xlink:href="#md15dcb4088" x="229.916643" y="307.584" style="stroke: #000000; stroke-width: 0.8"/>
      </g>
     </g>
     <g id="text_3">
      <!-- 100 -->
      <g transform="translate(220.372893 322.182437)scale(0.1 -0.1)">
       <defs>
        <path id="DejaVuSans-31" d="M 794 531 
L 1825 531 
L 1825 4091 
L 703 3866 
L 703 4441 
L 1819 4666 
L 2450 4666 
L 2450 531 
L 3481 531 
L 3481 0 
L 794 0 
L 794 531 
z
" transform="scale(0.015625)"/>
       </defs>
       <use xlink:href="#DejaVuSans-31"/>
       <use xlink:href="#DejaVuSans-30" x="63.623047"/>
       <use xlink:href="#DejaVuSans-30" x="127.246094"/>
      </g>
     </g>
    </g>
    <g id="xtick_4">
     <g id="line2d_4">
      <g>
       <use xlink:href="#md15dcb4088" x="307.958601" y="307.584" style="stroke: #000000; stroke-width: 0.8"/>
      </g>
     </g>
     <g id="text_4">
      <!-- 150 -->
      <g transform="translate(298.414851 322.182437)scale(0.1 -0.1)">
       <use xlink:href="#DejaVuSans-31"/>
       <use xlink:href="#DejaVuSans-35" x="63.623047"/>
       <use xlink:href="#DejaVuSans-30" x="127.246094"/>
      </g>
     </g>
    </g>
    <g id="xtick_5">
     <g id="line2d_5">
      <g>
       <use xlink:href="#md15dcb4088" x="386.000559" y="307.584" style="stroke: #000000; stroke-width: 0.8"/>
      </g>
     </g>
     <g id="text_5">
      <!-- 200 -->
      <g transform="translate(376.456809 322.182437)scale(0.1 -0.1)">
       <defs>
        <path id="DejaVuSans-32" d="M 1228 531 
L 3431 531 
L 3431 0 
L 469 0 
L 469 531 
Q 828 903 1448 1529 
Q 2069 2156 2228 2338 
Q 2531 2678 2651 2914 
Q 2772 3150 2772 3378 
Q 2772 3750 2511 3984 
Q 2250 4219 1831 4219 
Q 1534 4219 1204 4116 
Q 875 4013 500 3803 
L 500 4441 
Q 881 4594 1212 4672 
Q 1544 4750 1819 4750 
Q 2544 4750 2975 4387 
Q 3406 4025 3406 3419 
Q 3406 3131 3298 2873 
Q 3191 2616 2906 2266 
Q 2828 2175 2409 1742 
Q 1991 1309 1228 531 
z
" transform="scale(0.015625)"/>
       </defs>
       <use xlink:href="#DejaVuSans-32"/>
       <use xlink:href="#DejaVuSans-30" x="63.623047"/>
       <use xlink:href="#DejaVuSans-30" x="127.246094"/>
      </g>
     </g>
    </g>
    <g id="text_6">
     <!-- Order Index -->
     <g transform="translate(206.594375 335.860562)scale(0.1 -0.1)">
      <defs>
       <path id="DejaVuSans-4f" d="M 2522 4238 
Q 1834 4238 1429 3725 
Q 1025 3213 1025 2328 
Q 1025 1447 1429 934 
Q 1834 422 2522 422 
Q 3209 422 3611 934 
Q 4013 1447 4013 2328 
Q 4013 3213 3611 3725 
Q 3209 4238 2522 4238 
z
M 2522 4750 
Q 3503 4750 4090 4092 
Q 4678 3434 4678 2328 
Q 4678 1225 4090 567 
Q 3503 -91 2522 -91 
Q 1538 -91 948 565 
Q 359 1222 359 2328 
Q 359 3434 948 4092 
Q 1538 4750 2522 4750 
z
" transform="scale(0.015625)"/>
       <path id="DejaVuSans-72" d="M 2631 2963 
Q 2534 3019 2420 3045 
Q 2306 3072 2169 3072 
Q 1681 3072 1420 2755 
Q 1159 2438 1159 1844 
L 1159 0 
L 581 0 
L 581 3500 
L 1159 3500 
L 1159 2956 
Q 1341 3275 1631 3429 
Q 1922 3584 2338 3584 
Q 2397 3584 2469 3576 
Q 2541 3569 2628 3553 
L 2631 2963 
z
" transform="scale(0.015625)"/>
       <path id="DejaVuSans-64" d="M 2906 2969 
L 2906 4863 
L 3481 4863 
L 3481 0 
L 2906 0 
L 2906 525 
Q 2725 213 2448 61 
Q 2172 -91 1784 -91 
Q 1150 -91 751 415 
Q 353 922 353 1747 
Q 353 2572 751 3078 
Q 1150 3584 1784 3584 
Q 2172 3584 2448 3432 
Q 2725 3281 2906 2969 
z
M 947 1747 
Q 947 1113 1208 752 
Q 1469 391 1925 391 
Q 2381 391 2643 752 
Q 2906 1113 2906 1747 
Q 2906 2381 2643 2742 
Q 2381 3103 1925 3103 
Q 1469 3103 1208 2742 
Q 947 2381 947 1747 
z
" transform="scale(0.015625)"/>
       <path id="DejaVuSans-65" d="M 3597 1894 
L 3597 1613 
L 953 1613 
Q 991 1019 1311 708 
Q 1631 397 2203 397 
Q 2534 397 2845 478 
Q 3156 559 3463 722 
L 3463 178 
Q 3153 47 2828 -22 
Q 2503 -91 2169 -91 
Q 1331 -91 842 396 
Q 353 884 353 1716 
Q 353 2575 817 3079 
Q 1281 3584 2069 3584 
Q 2775 3584 3186 3129 
Q 3597 2675 3597 1894 
z
M 3022 2063 
Q 3016 2534 2758 2815 
Q 2500 3097 2075 3097 
Q 1594 3097 1305 2825 
Q 1016 2553 972 2059 
L 3022 2063 
z
" transform="scale(0.015625)"/>
       <path id="DejaVuSans-20" transform="scale(0.015625)"/>
       <path id="DejaVuSans-49" d="M 628 4666 
L 1259 4666 
L 1259 0 
L 628 0 
L 628 4666 
z
" transform="scale(0.015625)"/>
       <path id="DejaVuSans-6e" d="M 3513 2113 
L 3513 0 
L 2938 0 
L 2938 2094 
Q 2938 2591 2744 2837 
Q 2550 3084 2163 3084 
Q 1697 3084 1428 2787 
Q 1159 2491 1159 1978 
L 1159 0 
L 581 0 
L 581 3500 
L 1159 3500 
L 1159 2956 
Q 1366 3272 1645 3428 
Q 1925 3584 2291 3584 
Q 2894 3584 3203 3211 
Q 3513 2838 3513 2113 
z
" transform="scale(0.015625)"/>
       <path id="DejaVuSans-78" d="M 3513 3500 
L 2247 1797 
L 3578 0 
L 2900 0 
L 1881 1375 
L 863 0 
L 184 0 
L 1544 1831 
L 300 3500 
L 978 3500 
L 1906 2253 
L 2834 3500 
L 3513 3500 
z
" transform="scale(0.015625)"/>
      </defs>
      <use xlink:href="#DejaVuSans-4f"/>
      <use xlink:href="#DejaVuSans-72" x="78.710938"/>
      <use xlink:href="#DejaVuSans-64" x="118.074219"/>
      <use xlink:href="#DejaVuSans-65" x="181.550781"/>
      <use xlink:href="#DejaVuSans-72" x="243.074219"/>
      <use xlink:href="#DejaVuSans-20" x="284.1875"/>
      <use xlink:href="#DejaVuSans-49" x="315.974609"/>
      <use xlink:href="#DejaVuSans-6e" x="345.466797"/>
      <use xlink:href="#DejaVuSans-64" x="408.845703"/>
      <use xlink:href="#DejaVuSans-65" x="472.322266"/>
      <use xlink:href="#DejaVuSans-78" x="532.095703"/>
     </g>
    </g>
   </g>
   <g id="matplotlib.axis_2">
    <g id="ytick_1">
     <g id="line2d_6">
      <defs>
       <path id="m0cb8721f4c" d="M 0 0 
L -3.5 0 
" style="stroke: #000000; stroke-width: 0.8"/>
      </defs>
      <g>
       <use xlink:href="#m0cb8721f4c" x="57.6" y="295.488" style="stroke: #000000; stroke-width: 0.8"/>
      </g>
     </g>
     <g id="text_7">
      <!-- 0 -->
      <g transform="translate(44.2375 299.287219)scale(0.1 -0.1)">
       <use xlink:href="#DejaVuSans-30"/>
      </g>
     </g>
    </g>
    <g id="ytick_2">
     <g id="line2d_7">
      <g>
       <use xlink:href="#m0cb8721f4c" x="57.6" y="259.447415" style="stroke: #000000; stroke-width: 0.8"/>
      </g>
     </g>
     <g id="text_8">
      <!-- 25 -->
      <g transform="translate(37.875 263.246633)scale(0.1 -0.1)">
       <use xlink:href="#DejaVuSans-32"/>
       <use xlink:href="#DejaVuSans-35" x="63.623047"/>
      </g>
     </g>
    </g>
    <g id="ytick_3">
     <g id="line2d_8">
      <g>
       <use xlink:href="#m0cb8721f4c" x="57.6" y="223.406829" style="stroke: #000000; stroke-width: 0.8"/>
      </g>
     </g>
     <g id="text_9">
      <!-- 50 -->
      <g transform="translate(37.875 227.206048)scale(0.1 -0.1)">
       <use xlink:href="#DejaVuSans-35"/>
       <use xlink:href="#DejaVuSans-30" x="63.623047"/>
      </g>
     </g>
    </g>
    <g id="ytick_4">
     <g id="line2d_9">
      <g>
       <use xlink:href="#m0cb8721f4c" x="57.6" y="187.366244" style="stroke: #000000; stroke-width: 0.8"/>
      </g>
     </g>
     <g id="text_10">
      <!-- 75 -->
      <g transform="translate(37.875 191.165463)scale(0.1 -0.1)">
       <defs>
        <path id="DejaVuSans-37" d="M 525 4666 
L 3525 4666 
L 3525 4397 
L 1831 0 
L 1172 0 
L 2766 4134 
L 525 4134 
L 525 4666 
z
" transform="scale(0.015625)"/>
       </defs>
       <use xlink:href="#DejaVuSans-37"/>
       <use xlink:href="#DejaVuSans-35" x="63.623047"/>
      </g>
     </g>
    </g>
    <g id="ytick_5">
     <g id="line2d_10">
      <g>
       <use xlink:href="#m0cb8721f4c" x="57.6" y="151.325658" style="stroke: #000000; stroke-width: 0.8"/>
      </g>
     </g>
     <g id="text_11">
      <!-- 100 -->
      <g transform="translate(31.5125 155.124877)scale(0.1 -0.1)">
       <use xlink:href="#DejaVuSans-31"/>
       <use xlink:href="#DejaVuSans-30" x="63.623047"/>
       <use xlink:href="#DejaVuSans-30" x="127.246094"/>
      </g>
     </g>
    </g>
    <g id="ytick_6">
     <g id="line2d_11">
      <g>
       <use xlink:href="#m0cb8721f4c" x="57.6" y="115.285073" style="stroke: #000000; stroke-width: 0.8"/>
      </g>
     </g>
     <g id="text_12">
      <!-- 125 -->
      <g transform="translate(31.5125 119.084292)scale(0.1 -0.1)">
       <use xlink:href="#DejaVuSans-31"/>
       <use xlink:href="#DejaVuSans-32" x="63.623047"/>
       <use xlink:href="#DejaVuSans-35" x="127.246094"/>
      </g>
     </g>
    </g>
    <g id="ytick_7">
     <g id="line2d_12">
      <g>
       <use xlink:href="#m0cb8721f4c" x="57.6" y="79.244488" style="stroke: #000000; stroke-width: 0.8"/>
      </g>
     </g>
     <g id="text_13">
      <!-- 150 -->
      <g transform="translate(31.5125 83.043706)scale(0.1 -0.1)">
       <use xlink:href="#DejaVuSans-31"/>
       <use xlink:href="#DejaVuSans-35" x="63.623047"/>
       <use xlink:href="#DejaVuSans-30" x="127.246094"/>
      </g>
     </g>
    </g>
    <g id="ytick_8">
     <g id="line2d_13">
      <g>
       <use xlink:href="#m0cb8721f4c" x="57.6" y="43.203902" style="stroke: #000000; stroke-width: 0.8"/>
      </g>
     </g>
     <g id="text_14">
      <!-- 175 -->
      <g transform="translate(31.5125 47.003121)scale(0.1 -0.1)">
       <use xlink:href="#DejaVuSans-31"/>
       <use xlink:href="#DejaVuSans-37" x="63.623047"/>
       <use xlink:href="#DejaVuSans-35" x="127.246094"/>
      </g>
     </g>
    </g>
    <g id="text_15">
     <!-- Order Delivered Time -->
     <g transform="translate(25.432812 228.08425)rotate(-90)scale(0.1 -0.1)">
      <defs>
       <path id="DejaVuSans-44" d="M 1259 4147 
L 1259 519 
L 2022 519 
Q 2988 519 3436 956 
Q 3884 1394 3884 2338 
Q 3884 3275 3436 3711 
Q 2988 4147 2022 4147 
L 1259 4147 
z
M 628 4666 
L 1925 4666 
Q 3281 4666 3915 4102 
Q 4550 3538 4550 2338 
Q 4550 1131 3912 565 
Q 3275 0 1925 0 
L 628 0 
L 628 4666 
z
" transform="scale(0.015625)"/>
       <path id="DejaVuSans-6c" d="M 603 4863 
L 1178 4863 
L 1178 0 
L 603 0 
L 603 4863 
z
" transform="scale(0.015625)"/>
       <path id="DejaVuSans-69" d="M 603 3500 
L 1178 3500 
L 1178 0 
L 603 0 
L 603 3500 
z
M 603 4863 
L 1178 4863 
L 1178 4134 
L 603 4134 
L 603 4863 
z
" transform="scale(0.015625)"/>
       <path id="DejaVuSans-76" d="M 191 3500 
L 800 3500 
L 1894 563 
L 2988 3500 
L 3597 3500 
L 2284 0 
L 1503 0 
L 191 3500 
z
" transform="scale(0.015625)"/>
       <path id="DejaVuSans-54" d="M -19 4666 
L 3928 4666 
L 3928 4134 
L 2272 4134 
L 2272 0 
L 1638 0 
L 1638 4134 
L -19 4134 
L -19 4666 
z
" transform="scale(0.015625)"/>
       <path id="DejaVuSans-6d" d="M 3328 2828 
Q 3544 3216 3844 3400 
Q 4144 3584 4550 3584 
Q 5097 3584 5394 3201 
Q 5691 2819 5691 2113 
L 5691 0 
L 5113 0 
L 5113 2094 
Q 5113 2597 4934 2840 
Q 4756 3084 4391 3084 
Q 3944 3084 3684 2787 
Q 3425 2491 3425 1978 
L 3425 0 
L 2847 0 
L 2847 2094 
Q 2847 2600 2669 2842 
Q 2491 3084 2119 3084 
Q 1678 3084 1418 2786 
Q 1159 2488 1159 1978 
L 1159 0 
L 581 0 
L 581 3500 
L 1159 3500 
L 1159 2956 
Q 1356 3278 1631 3431 
Q 1906 3584 2284 3584 
Q 2666 3584 2933 3390 
Q 3200 3197 3328 2828 
z
" transform="scale(0.015625)"/>
      </defs>
      <use xlink:href="#DejaVuSans-4f"/>
      <use xlink:href="#DejaVuSans-72" x="78.710938"/>
      <use xlink:href="#DejaVuSans-64" x="118.074219"/>
      <use xlink:href="#DejaVuSans-65" x="181.550781"/>
      <use xlink:href="#DejaVuSans-72" x="243.074219"/>
      <use xlink:href="#DejaVuSans-20" x="284.1875"/>
      <use xlink:href="#DejaVuSans-44" x="315.974609"/>
      <use xlink:href="#DejaVuSans-65" x="392.976562"/>
      <use xlink:href="#DejaVuSans-6c" x="454.5"/>
      <use xlink:href="#DejaVuSans-69" x="482.283203"/>
      <use xlink:href="#DejaVuSans-76" x="510.066406"/>
      <use xlink:href="#DejaVuSans-65" x="569.246094"/>
      <use xlink:href="#DejaVuSans-72" x="630.769531"/>
      <use xlink:href="#DejaVuSans-65" x="669.632812"/>
      <use xlink:href="#DejaVuSans-64" x="731.15625"/>
      <use xlink:href="#DejaVuSans-20" x="794.632812"/>
      <use xlink:href="#DejaVuSans-54" x="826.419922"/>
      <use xlink:href="#DejaVuSans-69" x="884.378906"/>
      <use xlink:href="#DejaVuSans-6d" x="912.162109"/>
      <use xlink:href="#DejaVuSans-65" x="1009.574219"/>
     </g>
    </g>
   </g>
   <g id="line2d_14">
    <path d="M 73.832727 295.488 
L 75.393566 295.488 
L 76.954406 294.046377 
L 83.197762 294.046377 
L 84.758601 292.604753 
L 87.88028 292.604753 
L 89.441119 291.16313 
L 94.123636 291.16313 
L 95.684476 289.721506 
L 98.806154 289.721506 
L 100.366993 288.279883 
L 105.04951 288.279883 
L 106.61035 286.83826 
L 108.171189 286.83826 
L 109.732028 285.396636 
L 112.853706 285.396636 
L 114.414545 283.955013 
L 119.097063 283.955013 
L 122.218741 278.188519 
L 123.77958 276.746896 
L 125.34042 276.746896 
L 126.901259 275.305272 
L 130.022937 275.305272 
L 131.583776 273.863649 
L 133.144615 273.863649 
L 134.705455 270.980402 
L 136.266294 270.980402 
L 137.827133 269.538779 
L 139.387972 265.213908 
L 144.07049 265.213908 
L 147.192168 262.330661 
L 151.874685 262.330661 
L 153.435524 260.889038 
L 154.996364 260.889038 
L 156.557203 259.447415 
L 158.118042 259.447415 
L 159.678881 258.005791 
L 162.800559 258.005791 
L 164.361399 256.564168 
L 167.483077 256.564168 
L 172.165594 252.239298 
L 173.726434 252.239298 
L 175.287273 249.356051 
L 178.408951 249.356051 
L 179.96979 247.914427 
L 183.091469 247.914427 
L 184.652308 246.472804 
L 186.213147 246.472804 
L 189.334825 243.589557 
L 190.895664 243.589557 
L 192.456503 240.70631 
L 197.139021 240.70631 
L 198.69986 239.264687 
L 200.260699 239.264687 
L 203.382378 236.38144 
L 206.504056 236.38144 
L 208.064895 234.939817 
L 209.625734 232.05657 
L 212.747413 232.05657 
L 214.308252 230.614946 
L 217.42993 230.614946 
L 218.990769 229.173323 
L 223.673287 229.173323 
L 225.234126 227.731699 
L 226.794965 227.731699 
L 228.355804 226.290076 
L 229.916643 223.406829 
L 233.038322 220.523582 
L 234.599161 220.523582 
L 236.16 219.081959 
L 237.720839 219.081959 
L 239.281678 217.640336 
L 243.964196 217.640336 
L 245.525035 216.198712 
L 247.085874 211.873842 
L 248.646713 208.990595 
L 250.207552 208.990595 
L 251.768392 207.548972 
L 254.89007 207.548972 
L 256.450909 206.107348 
L 261.133427 206.107348 
L 264.255105 203.224101 
L 268.937622 203.224101 
L 270.498462 201.782478 
L 272.059301 201.782478 
L 275.180979 198.899231 
L 279.863497 198.899231 
L 281.424336 197.457608 
L 284.546014 197.457608 
L 286.106853 196.015984 
L 292.35021 196.015984 
L 293.911049 194.574361 
L 295.471888 191.691114 
L 297.032727 190.249491 
L 298.593566 190.249491 
L 300.154406 188.807867 
L 303.276084 188.807867 
L 304.836923 187.366244 
L 306.397762 187.366244 
L 307.958601 185.92462 
L 311.08028 185.92462 
L 314.201958 183.041374 
L 315.762797 183.041374 
L 318.884476 180.158127 
L 323.566993 180.158127 
L 325.127832 178.716503 
L 331.371189 178.716503 
L 332.932028 177.27488 
L 334.492867 177.27488 
L 336.053706 175.833257 
L 337.614545 175.833257 
L 339.175385 174.391633 
L 343.857902 174.391633 
L 345.418741 172.95001 
L 348.54042 172.95001 
L 350.101259 171.508386 
L 351.662098 171.508386 
L 353.222937 168.625139 
L 356.344615 168.625139 
L 357.905455 167.183516 
L 362.587972 167.183516 
L 364.148811 164.300269 
L 367.27049 164.300269 
L 370.392168 161.417022 
L 371.953007 161.417022 
L 373.513846 159.975399 
L 375.074685 159.975399 
L 379.757203 155.650529 
L 382.878881 155.650529 
L 384.43972 154.208905 
L 389.122238 154.208905 
L 390.683077 152.767282 
L 398.487273 152.767282 
L 398.487273 152.767282 
" clip-path="url(#pb596f8a416)" style="fill: none; stroke: #32cd32; stroke-linecap: square"/>
   </g>
   <g id="line2d_15">
    <path d="M 73.832727 209.877652 
L 75.393566 270.980402 
L 76.954406 229.221404 
L 78.515245 234.498834 
L 80.076084 199.923989 
L 81.636923 198.574875 
L 83.197762 191.729738 
L 84.758601 235.37493 
L 86.319441 230.358329 
L 87.88028 237.791739 
L 89.441119 210.837969 
L 91.001958 208.973435 
L 92.562797 253.420939 
L 94.123636 242.338282 
L 95.684476 237.549703 
L 97.245315 255.779919 
L 98.806154 216.904298 
L 100.366993 231.936642 
L 101.927832 218.994668 
L 103.488671 241.769253 
L 105.04951 236.935704 
L 106.61035 222.424155 
L 108.171189 214.5926 
L 109.732028 253.578468 
L 111.292867 243.131379 
L 112.853706 193.250519 
L 114.414545 250.707922 
L 115.975385 234.339398 
L 117.536224 199.711777 
L 119.097063 237.528034 
L 120.657902 217.939674 
L 122.218741 174.585386 
L 123.77958 239.797877 
L 125.34042 199.047285 
L 126.901259 212.456961 
L 128.462098 217.210413 
L 130.022937 231.675495 
L 131.583776 216.430115 
L 133.144615 220.956598 
L 134.705455 210.775792 
L 136.266294 203.563228 
L 137.827133 243.355614 
L 139.387972 175.817922 
L 140.948811 152.764608 
L 142.50965 216.503912 
L 144.07049 223.201923 
L 145.631329 179.176872 
L 147.192168 182.737987 
L 148.753007 181.266654 
L 150.313846 210.056976 
L 151.874685 213.620665 
L 153.435524 221.201197 
L 154.996364 215.488824 
L 156.557203 205.976561 
L 158.118042 197.226579 
L 159.678881 200.135512 
L 161.23972 207.548972 
L 162.800559 190.226971 
L 164.361399 198.440827 
L 165.922238 198.554887 
L 167.483077 195.909343 
L 169.043916 210.933217 
L 170.604755 194.215671 
L 172.165594 194.459215 
L 173.726434 177.099835 
L 175.287273 178.870047 
L 178.408951 206.300427 
L 179.96979 151.04805 
L 181.530629 183.361366 
L 183.091469 199.45235 
L 184.652308 174.494711 
L 186.213147 204.460819 
L 187.773986 172.921189 
L 189.334825 152.527427 
L 190.895664 181.64469 
L 192.456503 134.680897 
L 194.017343 164.281304 
L 195.578182 156.491591 
L 197.139021 189.92693 
L 198.69986 162.790796 
L 200.260699 172.579514 
L 201.821538 178.794633 
L 203.382378 181.297087 
L 204.943217 175.540692 
L 206.504056 191.46695 
L 208.064895 186.383295 
L 209.625734 187.157047 
L 211.186573 169.835735 
L 212.747413 162.836808 
L 214.308252 179.978483 
L 215.869091 192.252241 
L 217.42993 170.930645 
L 218.990769 200.198106 
L 220.551608 155.470638 
L 222.112448 158.884553 
L 223.673287 177.60266 
L 226.794965 154.009065 
L 228.355804 134.293601 
L 229.916643 118.417045 
L 231.477483 165.711872 
L 233.038322 140.589173 
L 234.599161 126.81806 
L 236.16 146.511995 
L 237.720839 168.339072 
L 239.281678 129.276821 
L 240.842517 128.359624 
L 242.403357 160.285344 
L 243.964196 149.487225 
L 245.525035 175.179301 
L 247.085874 175.761355 
L 248.646713 168.625139 
L 250.207552 172.878108 
L 253.329231 167.57575 
L 254.89007 112.84128 
L 256.450909 149.614778 
L 258.011748 128.093588 
L 259.572587 138.328528 
L 261.133427 138.261034 
L 262.694266 170.808793 
L 264.255105 143.429441 
L 265.815944 111.591088 
L 267.376783 175.48346 
L 268.937622 158.309611 
L 270.498462 159.751751 
L 272.059301 131.121735 
L 273.62014 112.307874 
L 275.180979 148.298608 
L 276.741818 138.807569 
L 278.302657 159.915435 
L 279.863497 132.006986 
L 281.424336 140.727432 
L 282.985175 162.778801 
L 284.546014 148.29108 
L 286.106853 136.881711 
L 287.667692 141.19999 
L 289.228531 142.405241 
L 290.789371 124.681748 
L 292.35021 111.058572 
L 293.911049 135.885987 
L 295.471888 140.346935 
L 297.032727 126.644432 
L 298.593566 124.708832 
L 300.154406 109.374776 
L 303.276084 138.351048 
L 304.836923 109.338595 
L 306.397762 151.040161 
L 307.958601 147.218678 
L 309.519441 90.192442 
L 311.08028 131.394603 
L 312.641119 152.212019 
L 314.201958 109.898889 
L 315.762797 140.240064 
L 317.323636 88.361329 
L 318.884476 103.27687 
L 320.445315 92.286642 
L 322.006154 147.554699 
L 323.566993 129.521664 
L 325.127832 141.765228 
L 326.688671 139.028662 
L 328.24951 146.113075 
L 329.81035 110.601194 
L 331.371189 120.168577 
L 332.932028 108.958841 
L 334.492867 66.999634 
L 336.053706 64.365294 
L 337.614545 118.867073 
L 339.175385 118.223808 
L 340.736224 111.497851 
L 342.297063 93.056029 
L 343.857902 115.119936 
L 345.418741 108.317898 
L 346.97958 129.367505 
L 348.54042 119.413964 
L 350.101259 138.904958 
L 351.662098 83.007624 
L 353.222937 115.089094 
L 354.783776 124.620774 
L 356.344615 91.540428 
L 357.905455 118.976942 
L 359.466294 96.353535 
L 361.027133 135.063988 
L 362.587972 83.349732 
L 364.148811 106.606512 
L 365.70965 113.683761 
L 367.27049 105.165996 
L 368.831329 127.634046 
L 370.392168 103.752086 
L 371.953007 116.324742 
L 373.513846 91.860089 
L 375.074685 53.568 
L 376.635524 123.232984 
L 378.196364 87.351257 
L 379.757203 76.007425 
L 381.318042 107.561489 
L 382.878881 100.506264 
L 384.43972 63.875397 
L 386.000559 117.742133 
L 387.561399 88.455804 
L 389.122238 106.261516 
L 390.683077 118.16832 
L 392.243916 114.705895 
L 393.804755 95.066867 
L 395.365594 93.412035 
L 396.926434 75.065554 
L 398.487273 87.509603 
L 398.487273 87.509603 
" clip-path="url(#pb596f8a416)" style="fill: none; stroke-dasharray: 3.7,1.6; stroke-dashoffset: 0; stroke: #4169e1"/>
   </g>
   <g id="line2d_16">
    <path d="M 73.832727 209.877652 
L 75.393566 270.980402 
L 76.954406 229.221404 
L 78.515245 234.498834 
L 80.076084 199.923989 
L 81.636923 198.574875 
L 83.197762 191.729738 
L 84.758601 235.37493 
L 86.319441 230.358329 
L 87.88028 237.791739 
L 89.441119 210.837969 
L 91.001958 208.973435 
L 92.562797 253.420939 
L 94.123636 242.338282 
L 95.684476 237.549703 
L 97.245315 255.779919 
L 98.806154 216.904298 
L 100.366993 231.936642 
L 101.927832 218.994668 
L 103.488671 241.769253 
L 105.04951 236.935704 
L 106.61035 222.424155 
L 108.171189 214.5926 
L 109.732028 253.578468 
L 111.292867 243.131379 
L 112.853706 193.250519 
L 114.414545 250.707922 
L 115.975385 234.339398 
L 117.536224 199.711777 
L 119.097063 237.528034 
L 120.657902 217.939674 
L 122.218741 174.585386 
L 123.77958 239.797877 
L 125.34042 199.047285 
L 126.901259 212.456961 
L 128.462098 217.210413 
L 130.022937 231.675495 
L 131.583776 216.430115 
L 133.144615 220.956598 
L 134.705455 210.775792 
L 136.266294 203.563228 
L 137.827133 243.355614 
L 139.387972 175.817922 
L 140.948811 152.764608 
L 142.50965 216.503912 
L 144.07049 223.201923 
L 145.631329 179.176872 
L 147.192168 182.737987 
L 148.753007 181.266654 
L 150.313846 210.056976 
L 151.874685 213.620665 
L 153.435524 221.201197 
L 154.996364 215.488824 
L 156.557203 205.976561 
L 158.118042 197.226579 
L 159.678881 200.135512 
L 161.23972 207.548972 
L 162.800559 190.226971 
L 164.361399 198.440827 
L 165.922238 198.554887 
L 167.483077 195.909343 
L 169.043916 210.933217 
L 170.604755 194.215671 
L 172.165594 194.459215 
L 173.726434 161.297465 
L 175.287273 182.463806 
L 176.848112 192.625875 
L 178.408951 206.300427 
L 179.96979 143.575665 
L 181.530629 186.542285 
L 183.091469 204.331922 
L 184.652308 174.494711 
L 186.213147 204.460819 
L 189.334825 152.527427 
L 190.895664 183.796201 
L 192.456503 156.425217 
L 194.017343 164.281304 
L 195.578182 156.491591 
L 197.139021 189.92693 
L 198.69986 179.471331 
L 200.260699 172.579514 
L 201.821538 183.674205 
L 203.382378 187.214912 
L 204.943217 175.540692 
L 206.504056 191.46695 
L 208.064895 186.383295 
L 209.625734 194.508967 
L 211.186573 167.684223 
L 212.747413 162.836808 
L 214.308252 179.978483 
L 215.869091 192.252241 
L 217.42993 167.336886 
L 218.990769 200.198106 
L 220.551608 155.470638 
L 222.112448 158.884553 
L 223.673287 177.60266 
L 225.234126 165.258589 
L 226.794965 154.009065 
L 228.355804 133.382269 
L 229.916643 139.19211 
L 231.477483 165.711872 
L 233.038322 140.589173 
L 234.599161 126.81806 
L 236.16 164.551941 
L 237.720839 176.816702 
L 239.281678 152.551576 
L 240.842517 149.525026 
L 242.403357 183.698748 
L 243.964196 169.086124 
L 245.525035 175.179301 
L 247.085874 175.761355 
L 248.646713 168.625139 
L 250.207552 172.878108 
L 253.329231 167.57575 
L 254.89007 112.84128 
L 256.450909 149.614778 
L 258.011748 128.093588 
L 259.572587 138.328528 
L 261.133427 138.261034 
L 262.694266 170.808793 
L 264.255105 143.429441 
L 265.815944 118.943008 
L 267.376783 175.48346 
L 268.937622 158.309611 
L 270.498462 159.751751 
L 272.059301 131.121735 
L 273.62014 112.307874 
L 275.180979 140.946687 
L 276.741818 138.807569 
L 278.302657 159.915435 
L 279.863497 132.006986 
L 281.424336 129.66792 
L 282.985175 162.778801 
L 284.546014 148.29108 
L 286.106853 132.516827 
L 287.667692 144.083236 
L 289.228531 135.225781 
L 290.789371 120.316864 
L 292.35021 103.706651 
L 293.911049 135.885987 
L 295.471888 140.346935 
L 297.032727 126.644432 
L 298.593566 124.708832 
L 300.154406 116.726696 
L 301.715245 124.175755 
L 303.276084 138.351048 
L 304.836923 131.082915 
L 306.397762 151.040161 
L 307.958601 147.218678 
L 309.519441 115.348715 
L 311.08028 131.394603 
L 312.641119 152.212019 
L 314.201958 115.938743 
L 315.762797 141.721702 
L 317.323636 91.244576 
L 318.884476 129.378746 
L 320.445315 99.638563 
L 322.006154 147.554699 
L 323.566993 126.638417 
L 325.127832 141.138319 
L 326.688671 139.028662 
L 328.24951 146.113075 
L 329.81035 107.717947 
L 331.371189 117.242966 
L 332.932028 103.497547 
L 334.492867 105.111398 
L 337.614545 118.867073 
L 339.175385 134.026177 
L 340.736224 114.381097 
L 342.297063 100.784111 
L 343.857902 119.969139 
L 345.418741 108.317898 
L 346.97958 129.367505 
L 348.54042 119.413964 
L 350.101259 138.904958 
L 351.662098 72.981856 
L 353.222937 115.089094 
L 354.783776 124.620774 
L 356.344615 91.540428 
L 357.905455 118.976942 
L 359.466294 96.353535 
L 361.027133 135.063988 
L 362.587972 90.701653 
L 364.148811 106.606512 
L 365.70965 116.567007 
L 367.27049 105.165996 
L 368.831329 127.634046 
L 370.392168 93.140757 
L 371.953007 116.324742 
L 373.513846 91.860089 
L 375.074685 59.799631 
L 376.635524 123.232984 
L 378.196364 87.351257 
L 379.757203 93.199972 
L 381.318042 107.561489 
L 382.878881 101.987901 
L 384.43972 78.184697 
L 386.000559 117.742133 
L 387.561399 88.455804 
L 389.122238 110.6264 
L 390.683077 118.16832 
L 392.243916 114.705895 
L 393.804755 102.418788 
L 395.365594 93.412035 
L 396.926434 82.78708 
L 398.487273 93.522893 
L 398.487273 93.522893 
" clip-path="url(#pb596f8a416)" style="fill: none; stroke-dasharray: 1,1.65; stroke-dashoffset: 0; stroke: #ffa500"/>
   </g>
   <g id="line2d_17">
    <path d="M 73.832727 235.256804 
L 398.487273 86.462973 
L 398.487273 86.462973 
" clip-path="url(#pb596f8a416)" style="fill: none; stroke-dasharray: 1.85,0.8; stroke-dashoffset: 0; stroke: #191970; stroke-width: 0.5"/>
   </g>
   <g id="line2d_18">
    <path d="M 73.832727 235.15301 
L 398.487273 90.439314 
L 398.487273 90.439314 
" clip-path="url(#pb596f8a416)" style="fill: none; stroke-dasharray: 0.5,0.825; stroke-dashoffset: 0; stroke: #ff0000; stroke-width: 0.5"/>
   </g>
   <g id="patch_3">
    <path d="M 57.6 307.584 
L 57.6 41.472 
" style="fill: none; stroke: #000000; stroke-width: 0.8; stroke-linejoin: miter; stroke-linecap: square"/>
   </g>
   <g id="patch_4">
    <path d="M 414.72 307.584 
L 414.72 41.472 
" style="fill: none; stroke: #000000; stroke-width: 0.8; stroke-linejoin: miter; stroke-linecap: square"/>
   </g>
   <g id="patch_5">
    <path d="M 57.6 307.584 
L 414.72 307.584 
" style="fill: none; stroke: #000000; stroke-width: 0.8; stroke-linejoin: miter; stroke-linecap: square"/>
   </g>
   <g id="patch_6">
    <path d="M 57.6 41.472 
L 414.72 41.472 
" style="fill: none; stroke: #000000; stroke-width: 0.8; stroke-linejoin: miter; stroke-linecap: square"/>
   </g>
   <g id="text_16">
    <!-- numRider100 -->
    <g transform="translate(195.454688 22.034625)scale(0.12 -0.12)">
     <defs>
      <path id="DejaVuSans-75" d="M 544 1381 
L 544 3500 
L 1119 3500 
L 1119 1403 
Q 1119 906 1312 657 
Q 1506 409 1894 409 
Q 2359 409 2629 706 
Q 2900 1003 2900 1516 
L 2900 3500 
L 3475 3500 
L 3475 0 
L 2900 0 
L 2900 538 
Q 2691 219 2414 64 
Q 2138 -91 1772 -91 
Q 1169 -91 856 284 
Q 544 659 544 1381 
z
M 1991 3584 
L 1991 3584 
z
" transform="scale(0.015625)"/>
      <path id="DejaVuSans-52" d="M 2841 2188 
Q 3044 2119 3236 1894 
Q 3428 1669 3622 1275 
L 4263 0 
L 3584 0 
L 2988 1197 
Q 2756 1666 2539 1819 
Q 2322 1972 1947 1972 
L 1259 1972 
L 1259 0 
L 628 0 
L 628 4666 
L 2053 4666 
Q 2853 4666 3247 4331 
Q 3641 3997 3641 3322 
Q 3641 2881 3436 2590 
Q 3231 2300 2841 2188 
z
M 1259 4147 
L 1259 2491 
L 2053 2491 
Q 2509 2491 2742 2702 
Q 2975 2913 2975 3322 
Q 2975 3731 2742 3939 
Q 2509 4147 2053 4147 
L 1259 4147 
z
" transform="scale(0.015625)"/>
     </defs>
     <use xlink:href="#DejaVuSans-6e"/>
     <use xlink:href="#DejaVuSans-75" x="63.378906"/>
     <use xlink:href="#DejaVuSans-6d" x="126.757812"/>
     <use xlink:href="#DejaVuSans-52" x="224.169922"/>
     <use xlink:href="#DejaVuSans-69" x="293.652344"/>
     <use xlink:href="#DejaVuSans-64" x="321.435547"/>
     <use xlink:href="#DejaVuSans-65" x="384.912109"/>
     <use xlink:href="#DejaVuSans-72" x="446.435547"/>
     <use xlink:href="#DejaVuSans-31" x="487.548828"/>
     <use xlink:href="#DejaVuSans-30" x="551.171875"/>
     <use xlink:href="#DejaVuSans-30" x="614.794922"/>
    </g>
    <!--  grid50 -->
    <g transform="translate(214.866562 35.472)scale(0.12 -0.12)">
     <defs>
      <path id="DejaVuSans-67" d="M 2906 1791 
Q 2906 2416 2648 2759 
Q 2391 3103 1925 3103 
Q 1463 3103 1205 2759 
Q 947 2416 947 1791 
Q 947 1169 1205 825 
Q 1463 481 1925 481 
Q 2391 481 2648 825 
Q 2906 1169 2906 1791 
z
M 3481 434 
Q 3481 -459 3084 -895 
Q 2688 -1331 1869 -1331 
Q 1566 -1331 1297 -1286 
Q 1028 -1241 775 -1147 
L 775 -588 
Q 1028 -725 1275 -790 
Q 1522 -856 1778 -856 
Q 2344 -856 2625 -561 
Q 2906 -266 2906 331 
L 2906 616 
Q 2728 306 2450 153 
Q 2172 0 1784 0 
Q 1141 0 747 490 
Q 353 981 353 1791 
Q 353 2603 747 3093 
Q 1141 3584 1784 3584 
Q 2172 3584 2450 3431 
Q 2728 3278 2906 2969 
L 2906 3500 
L 3481 3500 
L 3481 434 
z
" transform="scale(0.015625)"/>
     </defs>
     <use xlink:href="#DejaVuSans-20"/>
     <use xlink:href="#DejaVuSans-67" x="31.787109"/>
     <use xlink:href="#DejaVuSans-72" x="95.263672"/>
     <use xlink:href="#DejaVuSans-69" x="136.376953"/>
     <use xlink:href="#DejaVuSans-64" x="164.160156"/>
     <use xlink:href="#DejaVuSans-35" x="227.636719"/>
     <use xlink:href="#DejaVuSans-30" x="291.259766"/>
    </g>
   </g>
   <g id="legend_1">
    <g id="patch_7">
     <path d="M 230.4575 302.584 
L 407.72 302.584 
Q 409.72 302.584 409.72 300.584 
L 409.72 228.193375 
Q 409.72 226.193375 407.72 226.193375 
L 230.4575 226.193375 
Q 228.4575 226.193375 228.4575 228.193375 
L 228.4575 300.584 
Q 228.4575 302.584 230.4575 302.584 
z
" style="fill: #ffffff; opacity: 0.8; stroke: #cccccc; stroke-linejoin: miter"/>
    </g>
    <g id="line2d_19">
     <path d="M 232.4575 234.291812 
L 242.4575 234.291812 
L 252.4575 234.291812 
" style="fill: none; stroke: #32cd32; stroke-linecap: square"/>
    </g>
    <g id="text_17">
     <!-- Time In -->
     <g transform="translate(260.4575 237.791812)scale(0.1 -0.1)">
      <use xlink:href="#DejaVuSans-54"/>
      <use xlink:href="#DejaVuSans-69" x="57.958984"/>
      <use xlink:href="#DejaVuSans-6d" x="85.742188"/>
      <use xlink:href="#DejaVuSans-65" x="183.154297"/>
      <use xlink:href="#DejaVuSans-20" x="244.677734"/>
      <use xlink:href="#DejaVuSans-49" x="276.464844"/>
      <use xlink:href="#DejaVuSans-6e" x="305.957031"/>
     </g>
    </g>
    <g id="line2d_20">
     <path d="M 232.4575 248.969937 
L 242.4575 248.969937 
L 252.4575 248.969937 
" style="fill: none; stroke-dasharray: 3.7,1.6; stroke-dashoffset: 0; stroke: #4169e1"/>
    </g>
    <g id="text_18">
     <!-- Time Delivered - Default -->
     <g transform="translate(260.4575 252.469937)scale(0.1 -0.1)">
      <defs>
       <path id="DejaVuSans-2d" d="M 313 2009 
L 1997 2009 
L 1997 1497 
L 313 1497 
L 313 2009 
z
" transform="scale(0.015625)"/>
       <path id="DejaVuSans-66" d="M 2375 4863 
L 2375 4384 
L 1825 4384 
Q 1516 4384 1395 4259 
Q 1275 4134 1275 3809 
L 1275 3500 
L 2222 3500 
L 2222 3053 
L 1275 3053 
L 1275 0 
L 697 0 
L 697 3053 
L 147 3053 
L 147 3500 
L 697 3500 
L 697 3744 
Q 697 4328 969 4595 
Q 1241 4863 1831 4863 
L 2375 4863 
z
" transform="scale(0.015625)"/>
       <path id="DejaVuSans-61" d="M 2194 1759 
Q 1497 1759 1228 1600 
Q 959 1441 959 1056 
Q 959 750 1161 570 
Q 1363 391 1709 391 
Q 2188 391 2477 730 
Q 2766 1069 2766 1631 
L 2766 1759 
L 2194 1759 
z
M 3341 1997 
L 3341 0 
L 2766 0 
L 2766 531 
Q 2569 213 2275 61 
Q 1981 -91 1556 -91 
Q 1019 -91 701 211 
Q 384 513 384 1019 
Q 384 1609 779 1909 
Q 1175 2209 1959 2209 
L 2766 2209 
L 2766 2266 
Q 2766 2663 2505 2880 
Q 2244 3097 1772 3097 
Q 1472 3097 1187 3025 
Q 903 2953 641 2809 
L 641 3341 
Q 956 3463 1253 3523 
Q 1550 3584 1831 3584 
Q 2591 3584 2966 3190 
Q 3341 2797 3341 1997 
z
" transform="scale(0.015625)"/>
       <path id="DejaVuSans-74" d="M 1172 4494 
L 1172 3500 
L 2356 3500 
L 2356 3053 
L 1172 3053 
L 1172 1153 
Q 1172 725 1289 603 
Q 1406 481 1766 481 
L 2356 481 
L 2356 0 
L 1766 0 
Q 1100 0 847 248 
Q 594 497 594 1153 
L 594 3053 
L 172 3053 
L 172 3500 
L 594 3500 
L 594 4494 
L 1172 4494 
z
" transform="scale(0.015625)"/>
      </defs>
      <use xlink:href="#DejaVuSans-54"/>
      <use xlink:href="#DejaVuSans-69" x="57.958984"/>
      <use xlink:href="#DejaVuSans-6d" x="85.742188"/>
      <use xlink:href="#DejaVuSans-65" x="183.154297"/>
      <use xlink:href="#DejaVuSans-20" x="244.677734"/>
      <use xlink:href="#DejaVuSans-44" x="276.464844"/>
      <use xlink:href="#DejaVuSans-65" x="353.466797"/>
      <use xlink:href="#DejaVuSans-6c" x="414.990234"/>
      <use xlink:href="#DejaVuSans-69" x="442.773438"/>
      <use xlink:href="#DejaVuSans-76" x="470.556641"/>
      <use xlink:href="#DejaVuSans-65" x="529.736328"/>
      <use xlink:href="#DejaVuSans-72" x="591.259766"/>
      <use xlink:href="#DejaVuSans-65" x="630.123047"/>
      <use xlink:href="#DejaVuSans-64" x="691.646484"/>
      <use xlink:href="#DejaVuSans-20" x="755.123047"/>
      <use xlink:href="#DejaVuSans-2d" x="786.910156"/>
      <use xlink:href="#DejaVuSans-20" x="822.994141"/>
      <use xlink:href="#DejaVuSans-44" x="854.78125"/>
      <use xlink:href="#DejaVuSans-65" x="931.783203"/>
      <use xlink:href="#DejaVuSans-66" x="993.306641"/>
      <use xlink:href="#DejaVuSans-61" x="1028.511719"/>
      <use xlink:href="#DejaVuSans-75" x="1089.791016"/>
      <use xlink:href="#DejaVuSans-6c" x="1153.169922"/>
      <use xlink:href="#DejaVuSans-74" x="1180.953125"/>
     </g>
    </g>
    <g id="line2d_21">
     <path d="M 232.4575 263.648062 
L 242.4575 263.648062 
L 252.4575 263.648062 
" style="fill: none; stroke-dasharray: 1,1.65; stroke-dashoffset: 0; stroke: #ffa500"/>
    </g>
    <g id="text_19">
     <!-- Time Delivered - Anticipation -->
     <g transform="translate(260.4575 267.148062)scale(0.1 -0.1)">
      <defs>
       <path id="DejaVuSans-41" d="M 2188 4044 
L 1331 1722 
L 3047 1722 
L 2188 4044 
z
M 1831 4666 
L 2547 4666 
L 4325 0 
L 3669 0 
L 3244 1197 
L 1141 1197 
L 716 0 
L 50 0 
L 1831 4666 
z
" transform="scale(0.015625)"/>
       <path id="DejaVuSans-63" d="M 3122 3366 
L 3122 2828 
Q 2878 2963 2633 3030 
Q 2388 3097 2138 3097 
Q 1578 3097 1268 2742 
Q 959 2388 959 1747 
Q 959 1106 1268 751 
Q 1578 397 2138 397 
Q 2388 397 2633 464 
Q 2878 531 3122 666 
L 3122 134 
Q 2881 22 2623 -34 
Q 2366 -91 2075 -91 
Q 1284 -91 818 406 
Q 353 903 353 1747 
Q 353 2603 823 3093 
Q 1294 3584 2113 3584 
Q 2378 3584 2631 3529 
Q 2884 3475 3122 3366 
z
" transform="scale(0.015625)"/>
       <path id="DejaVuSans-70" d="M 1159 525 
L 1159 -1331 
L 581 -1331 
L 581 3500 
L 1159 3500 
L 1159 2969 
Q 1341 3281 1617 3432 
Q 1894 3584 2278 3584 
Q 2916 3584 3314 3078 
Q 3713 2572 3713 1747 
Q 3713 922 3314 415 
Q 2916 -91 2278 -91 
Q 1894 -91 1617 61 
Q 1341 213 1159 525 
z
M 3116 1747 
Q 3116 2381 2855 2742 
Q 2594 3103 2138 3103 
Q 1681 3103 1420 2742 
Q 1159 2381 1159 1747 
Q 1159 1113 1420 752 
Q 1681 391 2138 391 
Q 2594 391 2855 752 
Q 3116 1113 3116 1747 
z
" transform="scale(0.015625)"/>
       <path id="DejaVuSans-6f" d="M 1959 3097 
Q 1497 3097 1228 2736 
Q 959 2375 959 1747 
Q 959 1119 1226 758 
Q 1494 397 1959 397 
Q 2419 397 2687 759 
Q 2956 1122 2956 1747 
Q 2956 2369 2687 2733 
Q 2419 3097 1959 3097 
z
M 1959 3584 
Q 2709 3584 3137 3096 
Q 3566 2609 3566 1747 
Q 3566 888 3137 398 
Q 2709 -91 1959 -91 
Q 1206 -91 779 398 
Q 353 888 353 1747 
Q 353 2609 779 3096 
Q 1206 3584 1959 3584 
z
" transform="scale(0.015625)"/>
      </defs>
      <use xlink:href="#DejaVuSans-54"/>
      <use xlink:href="#DejaVuSans-69" x="57.958984"/>
      <use xlink:href="#DejaVuSans-6d" x="85.742188"/>
      <use xlink:href="#DejaVuSans-65" x="183.154297"/>
      <use xlink:href="#DejaVuSans-20" x="244.677734"/>
      <use xlink:href="#DejaVuSans-44" x="276.464844"/>
      <use xlink:href="#DejaVuSans-65" x="353.466797"/>
      <use xlink:href="#DejaVuSans-6c" x="414.990234"/>
      <use xlink:href="#DejaVuSans-69" x="442.773438"/>
      <use xlink:href="#DejaVuSans-76" x="470.556641"/>
      <use xlink:href="#DejaVuSans-65" x="529.736328"/>
      <use xlink:href="#DejaVuSans-72" x="591.259766"/>
      <use xlink:href="#DejaVuSans-65" x="630.123047"/>
      <use xlink:href="#DejaVuSans-64" x="691.646484"/>
      <use xlink:href="#DejaVuSans-20" x="755.123047"/>
      <use xlink:href="#DejaVuSans-2d" x="786.910156"/>
      <use xlink:href="#DejaVuSans-20" x="822.994141"/>
      <use xlink:href="#DejaVuSans-41" x="854.78125"/>
      <use xlink:href="#DejaVuSans-6e" x="923.189453"/>
      <use xlink:href="#DejaVuSans-74" x="986.568359"/>
      <use xlink:href="#DejaVuSans-69" x="1025.777344"/>
      <use xlink:href="#DejaVuSans-63" x="1053.560547"/>
      <use xlink:href="#DejaVuSans-69" x="1108.541016"/>
      <use xlink:href="#DejaVuSans-70" x="1136.324219"/>
      <use xlink:href="#DejaVuSans-61" x="1199.800781"/>
      <use xlink:href="#DejaVuSans-74" x="1261.080078"/>
      <use xlink:href="#DejaVuSans-69" x="1300.289062"/>
      <use xlink:href="#DejaVuSans-6f" x="1328.072266"/>
      <use xlink:href="#DejaVuSans-6e" x="1389.253906"/>
     </g>
    </g>
    <g id="line2d_22">
     <path d="M 232.4575 278.326188 
L 242.4575 278.326188 
L 252.4575 278.326188 
" style="fill: none; stroke-dasharray: 1.85,0.8; stroke-dashoffset: 0; stroke: #191970; stroke-width: 0.5"/>
    </g>
    <g id="text_20">
     <!-- best fit line for default -->
     <g transform="translate(260.4575 281.826188)scale(0.1 -0.1)">
      <defs>
       <path id="DejaVuSans-62" d="M 3116 1747 
Q 3116 2381 2855 2742 
Q 2594 3103 2138 3103 
Q 1681 3103 1420 2742 
Q 1159 2381 1159 1747 
Q 1159 1113 1420 752 
Q 1681 391 2138 391 
Q 2594 391 2855 752 
Q 3116 1113 3116 1747 
z
M 1159 2969 
Q 1341 3281 1617 3432 
Q 1894 3584 2278 3584 
Q 2916 3584 3314 3078 
Q 3713 2572 3713 1747 
Q 3713 922 3314 415 
Q 2916 -91 2278 -91 
Q 1894 -91 1617 61 
Q 1341 213 1159 525 
L 1159 0 
L 581 0 
L 581 4863 
L 1159 4863 
L 1159 2969 
z
" transform="scale(0.015625)"/>
       <path id="DejaVuSans-73" d="M 2834 3397 
L 2834 2853 
Q 2591 2978 2328 3040 
Q 2066 3103 1784 3103 
Q 1356 3103 1142 2972 
Q 928 2841 928 2578 
Q 928 2378 1081 2264 
Q 1234 2150 1697 2047 
L 1894 2003 
Q 2506 1872 2764 1633 
Q 3022 1394 3022 966 
Q 3022 478 2636 193 
Q 2250 -91 1575 -91 
Q 1294 -91 989 -36 
Q 684 19 347 128 
L 347 722 
Q 666 556 975 473 
Q 1284 391 1588 391 
Q 1994 391 2212 530 
Q 2431 669 2431 922 
Q 2431 1156 2273 1281 
Q 2116 1406 1581 1522 
L 1381 1569 
Q 847 1681 609 1914 
Q 372 2147 372 2553 
Q 372 3047 722 3315 
Q 1072 3584 1716 3584 
Q 2034 3584 2315 3537 
Q 2597 3491 2834 3397 
z
" transform="scale(0.015625)"/>
      </defs>
      <use xlink:href="#DejaVuSans-62"/>
      <use xlink:href="#DejaVuSans-65" x="63.476562"/>
      <use xlink:href="#DejaVuSans-73" x="125"/>
      <use xlink:href="#DejaVuSans-74" x="177.099609"/>
      <use xlink:href="#DejaVuSans-20" x="216.308594"/>
      <use xlink:href="#DejaVuSans-66" x="248.095703"/>
      <use xlink:href="#DejaVuSans-69" x="283.300781"/>
      <use xlink:href="#DejaVuSans-74" x="311.083984"/>
      <use xlink:href="#DejaVuSans-20" x="350.292969"/>
      <use xlink:href="#DejaVuSans-6c" x="382.080078"/>
      <use xlink:href="#DejaVuSans-69" x="409.863281"/>
      <use xlink:href="#DejaVuSans-6e" x="437.646484"/>
      <use xlink:href="#DejaVuSans-65" x="501.025391"/>
      <use xlink:href="#DejaVuSans-20" x="562.548828"/>
      <use xlink:href="#DejaVuSans-66" x="594.335938"/>
      <use xlink:href="#DejaVuSans-6f" x="629.541016"/>
      <use xlink:href="#DejaVuSans-72" x="690.722656"/>
      <use xlink:href="#DejaVuSans-20" x="731.835938"/>
      <use xlink:href="#DejaVuSans-64" x="763.623047"/>
      <use xlink:href="#DejaVuSans-65" x="827.099609"/>
      <use xlink:href="#DejaVuSans-66" x="888.623047"/>
      <use xlink:href="#DejaVuSans-61" x="923.828125"/>
      <use xlink:href="#DejaVuSans-75" x="985.107422"/>
      <use xlink:href="#DejaVuSans-6c" x="1048.486328"/>
      <use xlink:href="#DejaVuSans-74" x="1076.269531"/>
     </g>
    </g>
    <g id="line2d_23">
     <path d="M 232.4575 293.004312 
L 242.4575 293.004312 
L 252.4575 293.004312 
" style="fill: none; stroke-dasharray: 0.5,0.825; stroke-dashoffset: 0; stroke: #ff0000; stroke-width: 0.5"/>
    </g>
    <g id="text_21">
     <!-- best fit line for anticipation -->
     <g transform="translate(260.4575 296.504312)scale(0.1 -0.1)">
      <use xlink:href="#DejaVuSans-62"/>
      <use xlink:href="#DejaVuSans-65" x="63.476562"/>
      <use xlink:href="#DejaVuSans-73" x="125"/>
      <use xlink:href="#DejaVuSans-74" x="177.099609"/>
      <use xlink:href="#DejaVuSans-20" x="216.308594"/>
      <use xlink:href="#DejaVuSans-66" x="248.095703"/>
      <use xlink:href="#DejaVuSans-69" x="283.300781"/>
      <use xlink:href="#DejaVuSans-74" x="311.083984"/>
      <use xlink:href="#DejaVuSans-20" x="350.292969"/>
      <use xlink:href="#DejaVuSans-6c" x="382.080078"/>
      <use xlink:href="#DejaVuSans-69" x="409.863281"/>
      <use xlink:href="#DejaVuSans-6e" x="437.646484"/>
      <use xlink:href="#DejaVuSans-65" x="501.025391"/>
      <use xlink:href="#DejaVuSans-20" x="562.548828"/>
      <use xlink:href="#DejaVuSans-66" x="594.335938"/>
      <use xlink:href="#DejaVuSans-6f" x="629.541016"/>
      <use xlink:href="#DejaVuSans-72" x="690.722656"/>
      <use xlink:href="#DejaVuSans-20" x="731.835938"/>
      <use xlink:href="#DejaVuSans-61" x="763.623047"/>
      <use xlink:href="#DejaVuSans-6e" x="824.902344"/>
      <use xlink:href="#DejaVuSans-74" x="888.28125"/>
      <use xlink:href="#DejaVuSans-69" x="927.490234"/>
      <use xlink:href="#DejaVuSans-63" x="955.273438"/>
      <use xlink:href="#DejaVuSans-69" x="1010.253906"/>
      <use xlink:href="#DejaVuSans-70" x="1038.037109"/>
      <use xlink:href="#DejaVuSans-61" x="1101.513672"/>
      <use xlink:href="#DejaVuSans-74" x="1162.792969"/>
      <use xlink:href="#DejaVuSans-69" x="1202.001953"/>
      <use xlink:href="#DejaVuSans-6f" x="1229.785156"/>
      <use xlink:href="#DejaVuSans-6e" x="1290.966797"/>
     </g>
    </g>
   </g>
  </g>
 </g>
 <defs>
  <clipPath id="pb596f8a416">
   <rect x="57.6" y="41.472" width="357.12" height="266.112"/>
  </clipPath>
 </defs>
</svg>
