<?xml version="1.0" encoding="utf-8" standalone="no"?>
<!DOCTYPE svg PUBLIC "-//W3C//DTD SVG 1.1//EN"
  "http://www.w3.org/Graphics/SVG/1.1/DTD/svg11.dtd">
<svg xmlns:xlink="http://www.w3.org/1999/xlink" width="1080pt" height="540pt" viewBox="0 0 1080 540" xmlns="http://www.w3.org/2000/svg" version="1.1">
 <metadata>
  <rdf:RDF xmlns:dc="http://purl.org/dc/elements/1.1/" xmlns:cc="http://creativecommons.org/ns#" xmlns:rdf="http://www.w3.org/1999/02/22-rdf-syntax-ns#">
   <cc:Work>
    <dc:type rdf:resource="http://purl.org/dc/dcmitype/StillImage"/>
    <dc:date>2022-09-12T15:31:37.908685</dc:date>
    <dc:format>image/svg+xml</dc:format>
    <dc:creator>
     <cc:Agent>
      <dc:title>Matplotlib v3.5.2, https://matplotlib.org/</dc:title>
     </cc:Agent>
    </dc:creator>
   </cc:Work>
  </rdf:RDF>
 </metadata>
 <defs>
  <style type="text/css">*{stroke-linejoin: round; stroke-linecap: butt}</style>
 </defs>
 <g id="figure_1">
  <g id="patch_1">
   <path d="M 0 540 
L 1080 540 
L 1080 0 
L 0 0 
z
" style="fill: #ffffff"/>
  </g>
  <g id="axes_1">
   <g id="patch_2">
    <path d="M 135 253.8 
L 972 253.8 
L 972 64.8 
L 135 64.8 
z
" style="fill: #ffffff"/>
   </g>
   <g id="matplotlib.axis_1">
    <g id="xtick_1">
     <g id="line2d_1">
      <path d="M 173.045455 253.8 
L 173.045455 64.8 
" clip-path="url(#p3ee08e7772)" style="fill: none; stroke-dasharray: 0.8,1.32; stroke-dashoffset: 0; stroke: #b0b0b0; stroke-width: 0.8"/>
     </g>
     <g id="line2d_2">
      <defs>
       <path id="m0645364729" d="M 0 0 
L 0 3.5 
" style="stroke: #000000; stroke-width: 0.8"/>
      </defs>
      <g>
       <use xlink:href="#m0645364729" x="173.045455" y="253.8" style="stroke: #000000; stroke-width: 0.8"/>
      </g>
     </g>
     <g id="text_1">
      <!-- 0 -->
      <g transform="translate(169.864205 268.398438)scale(0.1 -0.1)">
       <defs>
        <path id="DejaVuSans-30" d="M 2034 4250 
Q 1547 4250 1301 3770 
Q 1056 3291 1056 2328 
Q 1056 1369 1301 889 
Q 1547 409 2034 409 
Q 2525 409 2770 889 
Q 3016 1369 3016 2328 
Q 3016 3291 2770 3770 
Q 2525 4250 2034 4250 
z
M 2034 4750 
Q 2819 4750 3233 4129 
Q 3647 3509 3647 2328 
Q 3647 1150 3233 529 
Q 2819 -91 2034 -91 
Q 1250 -91 836 529 
Q 422 1150 422 2328 
Q 422 3509 836 4129 
Q 1250 4750 2034 4750 
z
" transform="scale(0.015625)"/>
       </defs>
       <use xlink:href="#DejaVuSans-30"/>
      </g>
     </g>
    </g>
    <g id="xtick_2">
     <g id="line2d_3">
      <path d="M 269.607522 253.8 
L 269.607522 64.8 
" clip-path="url(#p3ee08e7772)" style="fill: none; stroke-dasharray: 0.8,1.32; stroke-dashoffset: 0; stroke: #b0b0b0; stroke-width: 0.8"/>
     </g>
     <g id="line2d_4">
      <g>
       <use xlink:href="#m0645364729" x="269.607522" y="253.8" style="stroke: #000000; stroke-width: 0.8"/>
      </g>
     </g>
     <g id="text_2">
      <!-- 25 -->
      <g transform="translate(263.245022 268.398438)scale(0.1 -0.1)">
       <defs>
        <path id="DejaVuSans-32" d="M 1228 531 
L 3431 531 
L 3431 0 
L 469 0 
L 469 531 
Q 828 903 1448 1529 
Q 2069 2156 2228 2338 
Q 2531 2678 2651 2914 
Q 2772 3150 2772 3378 
Q 2772 3750 2511 3984 
Q 2250 4219 1831 4219 
Q 1534 4219 1204 4116 
Q 875 4013 500 3803 
L 500 4441 
Q 881 4594 1212 4672 
Q 1544 4750 1819 4750 
Q 2544 4750 2975 4387 
Q 3406 4025 3406 3419 
Q 3406 3131 3298 2873 
Q 3191 2616 2906 2266 
Q 2828 2175 2409 1742 
Q 1991 1309 1228 531 
z
" transform="scale(0.015625)"/>
        <path id="DejaVuSans-35" d="M 691 4666 
L 3169 4666 
L 3169 4134 
L 1269 4134 
L 1269 2991 
Q 1406 3038 1543 3061 
Q 1681 3084 1819 3084 
Q 2600 3084 3056 2656 
Q 3513 2228 3513 1497 
Q 3513 744 3044 326 
Q 2575 -91 1722 -91 
Q 1428 -91 1123 -41 
Q 819 9 494 109 
L 494 744 
Q 775 591 1075 516 
Q 1375 441 1709 441 
Q 2250 441 2565 725 
Q 2881 1009 2881 1497 
Q 2881 1984 2565 2268 
Q 2250 2553 1709 2553 
Q 1456 2553 1204 2497 
Q 953 2441 691 2322 
L 691 4666 
z
" transform="scale(0.015625)"/>
       </defs>
       <use xlink:href="#DejaVuSans-32"/>
       <use xlink:href="#DejaVuSans-35" x="63.623047"/>
      </g>
     </g>
    </g>
    <g id="xtick_3">
     <g id="line2d_5">
      <path d="M 366.169589 253.8 
L 366.169589 64.8 
" clip-path="url(#p3ee08e7772)" style="fill: none; stroke-dasharray: 0.8,1.32; stroke-dashoffset: 0; stroke: #b0b0b0; stroke-width: 0.8"/>
     </g>
     <g id="line2d_6">
      <g>
       <use xlink:href="#m0645364729" x="366.169589" y="253.8" style="stroke: #000000; stroke-width: 0.8"/>
      </g>
     </g>
     <g id="text_3">
      <!-- 50 -->
      <g transform="translate(359.807089 268.398438)scale(0.1 -0.1)">
       <use xlink:href="#DejaVuSans-35"/>
       <use xlink:href="#DejaVuSans-30" x="63.623047"/>
      </g>
     </g>
    </g>
    <g id="xtick_4">
     <g id="line2d_7">
      <path d="M 462.731657 253.8 
L 462.731657 64.8 
" clip-path="url(#p3ee08e7772)" style="fill: none; stroke-dasharray: 0.8,1.32; stroke-dashoffset: 0; stroke: #b0b0b0; stroke-width: 0.8"/>
     </g>
     <g id="line2d_8">
      <g>
       <use xlink:href="#m0645364729" x="462.731657" y="253.8" style="stroke: #000000; stroke-width: 0.8"/>
      </g>
     </g>
     <g id="text_4">
      <!-- 75 -->
      <g transform="translate(456.369157 268.398438)scale(0.1 -0.1)">
       <defs>
        <path id="DejaVuSans-37" d="M 525 4666 
L 3525 4666 
L 3525 4397 
L 1831 0 
L 1172 0 
L 2766 4134 
L 525 4134 
L 525 4666 
z
" transform="scale(0.015625)"/>
       </defs>
       <use xlink:href="#DejaVuSans-37"/>
       <use xlink:href="#DejaVuSans-35" x="63.623047"/>
      </g>
     </g>
    </g>
    <g id="xtick_5">
     <g id="line2d_9">
      <path d="M 559.293724 253.8 
L 559.293724 64.8 
" clip-path="url(#p3ee08e7772)" style="fill: none; stroke-dasharray: 0.8,1.32; stroke-dashoffset: 0; stroke: #b0b0b0; stroke-width: 0.8"/>
     </g>
     <g id="line2d_10">
      <g>
       <use xlink:href="#m0645364729" x="559.293724" y="253.8" style="stroke: #000000; stroke-width: 0.8"/>
      </g>
     </g>
     <g id="text_5">
      <!-- 100 -->
      <g transform="translate(549.749974 268.398438)scale(0.1 -0.1)">
       <defs>
        <path id="DejaVuSans-31" d="M 794 531 
L 1825 531 
L 1825 4091 
L 703 3866 
L 703 4441 
L 1819 4666 
L 2450 4666 
L 2450 531 
L 3481 531 
L 3481 0 
L 794 0 
L 794 531 
z
" transform="scale(0.015625)"/>
       </defs>
       <use xlink:href="#DejaVuSans-31"/>
       <use xlink:href="#DejaVuSans-30" x="63.623047"/>
       <use xlink:href="#DejaVuSans-30" x="127.246094"/>
      </g>
     </g>
    </g>
    <g id="xtick_6">
     <g id="line2d_11">
      <path d="M 655.855791 253.8 
L 655.855791 64.8 
" clip-path="url(#p3ee08e7772)" style="fill: none; stroke-dasharray: 0.8,1.32; stroke-dashoffset: 0; stroke: #b0b0b0; stroke-width: 0.8"/>
     </g>
     <g id="line2d_12">
      <g>
       <use xlink:href="#m0645364729" x="655.855791" y="253.8" style="stroke: #000000; stroke-width: 0.8"/>
      </g>
     </g>
     <g id="text_6">
      <!-- 125 -->
      <g transform="translate(646.312041 268.398438)scale(0.1 -0.1)">
       <use xlink:href="#DejaVuSans-31"/>
       <use xlink:href="#DejaVuSans-32" x="63.623047"/>
       <use xlink:href="#DejaVuSans-35" x="127.246094"/>
      </g>
     </g>
    </g>
    <g id="xtick_7">
     <g id="line2d_13">
      <path d="M 752.417859 253.8 
L 752.417859 64.8 
" clip-path="url(#p3ee08e7772)" style="fill: none; stroke-dasharray: 0.8,1.32; stroke-dashoffset: 0; stroke: #b0b0b0; stroke-width: 0.8"/>
     </g>
     <g id="line2d_14">
      <g>
       <use xlink:href="#m0645364729" x="752.417859" y="253.8" style="stroke: #000000; stroke-width: 0.8"/>
      </g>
     </g>
     <g id="text_7">
      <!-- 150 -->
      <g transform="translate(742.874109 268.398438)scale(0.1 -0.1)">
       <use xlink:href="#DejaVuSans-31"/>
       <use xlink:href="#DejaVuSans-35" x="63.623047"/>
       <use xlink:href="#DejaVuSans-30" x="127.246094"/>
      </g>
     </g>
    </g>
    <g id="xtick_8">
     <g id="line2d_15">
      <path d="M 848.979926 253.8 
L 848.979926 64.8 
" clip-path="url(#p3ee08e7772)" style="fill: none; stroke-dasharray: 0.8,1.32; stroke-dashoffset: 0; stroke: #b0b0b0; stroke-width: 0.8"/>
     </g>
     <g id="line2d_16">
      <g>
       <use xlink:href="#m0645364729" x="848.979926" y="253.8" style="stroke: #000000; stroke-width: 0.8"/>
      </g>
     </g>
     <g id="text_8">
      <!-- 175 -->
      <g transform="translate(839.436176 268.398438)scale(0.1 -0.1)">
       <use xlink:href="#DejaVuSans-31"/>
       <use xlink:href="#DejaVuSans-37" x="63.623047"/>
       <use xlink:href="#DejaVuSans-35" x="127.246094"/>
      </g>
     </g>
    </g>
    <g id="xtick_9">
     <g id="line2d_17">
      <path d="M 945.541994 253.8 
L 945.541994 64.8 
" clip-path="url(#p3ee08e7772)" style="fill: none; stroke-dasharray: 0.8,1.32; stroke-dashoffset: 0; stroke: #b0b0b0; stroke-width: 0.8"/>
     </g>
     <g id="line2d_18">
      <g>
       <use xlink:href="#m0645364729" x="945.541994" y="253.8" style="stroke: #000000; stroke-width: 0.8"/>
      </g>
     </g>
     <g id="text_9">
      <!-- 200 -->
      <g transform="translate(935.998244 268.398438)scale(0.1 -0.1)">
       <use xlink:href="#DejaVuSans-32"/>
       <use xlink:href="#DejaVuSans-30" x="63.623047"/>
       <use xlink:href="#DejaVuSans-30" x="127.246094"/>
      </g>
     </g>
    </g>
    <g id="text_10">
     <!-- Number of Orders -->
     <g transform="translate(508.601562 282.076563)scale(0.1 -0.1)">
      <defs>
       <path id="DejaVuSans-4e" d="M 628 4666 
L 1478 4666 
L 3547 763 
L 3547 4666 
L 4159 4666 
L 4159 0 
L 3309 0 
L 1241 3903 
L 1241 0 
L 628 0 
L 628 4666 
z
" transform="scale(0.015625)"/>
       <path id="DejaVuSans-75" d="M 544 1381 
L 544 3500 
L 1119 3500 
L 1119 1403 
Q 1119 906 1312 657 
Q 1506 409 1894 409 
Q 2359 409 2629 706 
Q 2900 1003 2900 1516 
L 2900 3500 
L 3475 3500 
L 3475 0 
L 2900 0 
L 2900 538 
Q 2691 219 2414 64 
Q 2138 -91 1772 -91 
Q 1169 -91 856 284 
Q 544 659 544 1381 
z
M 1991 3584 
L 1991 3584 
z
" transform="scale(0.015625)"/>
       <path id="DejaVuSans-6d" d="M 3328 2828 
Q 3544 3216 3844 3400 
Q 4144 3584 4550 3584 
Q 5097 3584 5394 3201 
Q 5691 2819 5691 2113 
L 5691 0 
L 5113 0 
L 5113 2094 
Q 5113 2597 4934 2840 
Q 4756 3084 4391 3084 
Q 3944 3084 3684 2787 
Q 3425 2491 3425 1978 
L 3425 0 
L 2847 0 
L 2847 2094 
Q 2847 2600 2669 2842 
Q 2491 3084 2119 3084 
Q 1678 3084 1418 2786 
Q 1159 2488 1159 1978 
L 1159 0 
L 581 0 
L 581 3500 
L 1159 3500 
L 1159 2956 
Q 1356 3278 1631 3431 
Q 1906 3584 2284 3584 
Q 2666 3584 2933 3390 
Q 3200 3197 3328 2828 
z
" transform="scale(0.015625)"/>
       <path id="DejaVuSans-62" d="M 3116 1747 
Q 3116 2381 2855 2742 
Q 2594 3103 2138 3103 
Q 1681 3103 1420 2742 
Q 1159 2381 1159 1747 
Q 1159 1113 1420 752 
Q 1681 391 2138 391 
Q 2594 391 2855 752 
Q 3116 1113 3116 1747 
z
M 1159 2969 
Q 1341 3281 1617 3432 
Q 1894 3584 2278 3584 
Q 2916 3584 3314 3078 
Q 3713 2572 3713 1747 
Q 3713 922 3314 415 
Q 2916 -91 2278 -91 
Q 1894 -91 1617 61 
Q 1341 213 1159 525 
L 1159 0 
L 581 0 
L 581 4863 
L 1159 4863 
L 1159 2969 
z
" transform="scale(0.015625)"/>
       <path id="DejaVuSans-65" d="M 3597 1894 
L 3597 1613 
L 953 1613 
Q 991 1019 1311 708 
Q 1631 397 2203 397 
Q 2534 397 2845 478 
Q 3156 559 3463 722 
L 3463 178 
Q 3153 47 2828 -22 
Q 2503 -91 2169 -91 
Q 1331 -91 842 396 
Q 353 884 353 1716 
Q 353 2575 817 3079 
Q 1281 3584 2069 3584 
Q 2775 3584 3186 3129 
Q 3597 2675 3597 1894 
z
M 3022 2063 
Q 3016 2534 2758 2815 
Q 2500 3097 2075 3097 
Q 1594 3097 1305 2825 
Q 1016 2553 972 2059 
L 3022 2063 
z
" transform="scale(0.015625)"/>
       <path id="DejaVuSans-72" d="M 2631 2963 
Q 2534 3019 2420 3045 
Q 2306 3072 2169 3072 
Q 1681 3072 1420 2755 
Q 1159 2438 1159 1844 
L 1159 0 
L 581 0 
L 581 3500 
L 1159 3500 
L 1159 2956 
Q 1341 3275 1631 3429 
Q 1922 3584 2338 3584 
Q 2397 3584 2469 3576 
Q 2541 3569 2628 3553 
L 2631 2963 
z
" transform="scale(0.015625)"/>
       <path id="DejaVuSans-20" transform="scale(0.015625)"/>
       <path id="DejaVuSans-6f" d="M 1959 3097 
Q 1497 3097 1228 2736 
Q 959 2375 959 1747 
Q 959 1119 1226 758 
Q 1494 397 1959 397 
Q 2419 397 2687 759 
Q 2956 1122 2956 1747 
Q 2956 2369 2687 2733 
Q 2419 3097 1959 3097 
z
M 1959 3584 
Q 2709 3584 3137 3096 
Q 3566 2609 3566 1747 
Q 3566 888 3137 398 
Q 2709 -91 1959 -91 
Q 1206 -91 779 398 
Q 353 888 353 1747 
Q 353 2609 779 3096 
Q 1206 3584 1959 3584 
z
" transform="scale(0.015625)"/>
       <path id="DejaVuSans-66" d="M 2375 4863 
L 2375 4384 
L 1825 4384 
Q 1516 4384 1395 4259 
Q 1275 4134 1275 3809 
L 1275 3500 
L 2222 3500 
L 2222 3053 
L 1275 3053 
L 1275 0 
L 697 0 
L 697 3053 
L 147 3053 
L 147 3500 
L 697 3500 
L 697 3744 
Q 697 4328 969 4595 
Q 1241 4863 1831 4863 
L 2375 4863 
z
" transform="scale(0.015625)"/>
       <path id="DejaVuSans-4f" d="M 2522 4238 
Q 1834 4238 1429 3725 
Q 1025 3213 1025 2328 
Q 1025 1447 1429 934 
Q 1834 422 2522 422 
Q 3209 422 3611 934 
Q 4013 1447 4013 2328 
Q 4013 3213 3611 3725 
Q 3209 4238 2522 4238 
z
M 2522 4750 
Q 3503 4750 4090 4092 
Q 4678 3434 4678 2328 
Q 4678 1225 4090 567 
Q 3503 -91 2522 -91 
Q 1538 -91 948 565 
Q 359 1222 359 2328 
Q 359 3434 948 4092 
Q 1538 4750 2522 4750 
z
" transform="scale(0.015625)"/>
       <path id="DejaVuSans-64" d="M 2906 2969 
L 2906 4863 
L 3481 4863 
L 3481 0 
L 2906 0 
L 2906 525 
Q 2725 213 2448 61 
Q 2172 -91 1784 -91 
Q 1150 -91 751 415 
Q 353 922 353 1747 
Q 353 2572 751 3078 
Q 1150 3584 1784 3584 
Q 2172 3584 2448 3432 
Q 2725 3281 2906 2969 
z
M 947 1747 
Q 947 1113 1208 752 
Q 1469 391 1925 391 
Q 2381 391 2643 752 
Q 2906 1113 2906 1747 
Q 2906 2381 2643 2742 
Q 2381 3103 1925 3103 
Q 1469 3103 1208 2742 
Q 947 2381 947 1747 
z
" transform="scale(0.015625)"/>
       <path id="DejaVuSans-73" d="M 2834 3397 
L 2834 2853 
Q 2591 2978 2328 3040 
Q 2066 3103 1784 3103 
Q 1356 3103 1142 2972 
Q 928 2841 928 2578 
Q 928 2378 1081 2264 
Q 1234 2150 1697 2047 
L 1894 2003 
Q 2506 1872 2764 1633 
Q 3022 1394 3022 966 
Q 3022 478 2636 193 
Q 2250 -91 1575 -91 
Q 1294 -91 989 -36 
Q 684 19 347 128 
L 347 722 
Q 666 556 975 473 
Q 1284 391 1588 391 
Q 1994 391 2212 530 
Q 2431 669 2431 922 
Q 2431 1156 2273 1281 
Q 2116 1406 1581 1522 
L 1381 1569 
Q 847 1681 609 1914 
Q 372 2147 372 2553 
Q 372 3047 722 3315 
Q 1072 3584 1716 3584 
Q 2034 3584 2315 3537 
Q 2597 3491 2834 3397 
z
" transform="scale(0.015625)"/>
      </defs>
      <use xlink:href="#DejaVuSans-4e"/>
      <use xlink:href="#DejaVuSans-75" x="74.804688"/>
      <use xlink:href="#DejaVuSans-6d" x="138.183594"/>
      <use xlink:href="#DejaVuSans-62" x="235.595703"/>
      <use xlink:href="#DejaVuSans-65" x="299.072266"/>
      <use xlink:href="#DejaVuSans-72" x="360.595703"/>
      <use xlink:href="#DejaVuSans-20" x="401.708984"/>
      <use xlink:href="#DejaVuSans-6f" x="433.496094"/>
      <use xlink:href="#DejaVuSans-66" x="494.677734"/>
      <use xlink:href="#DejaVuSans-20" x="529.882812"/>
      <use xlink:href="#DejaVuSans-4f" x="561.669922"/>
      <use xlink:href="#DejaVuSans-72" x="640.380859"/>
      <use xlink:href="#DejaVuSans-64" x="679.744141"/>
      <use xlink:href="#DejaVuSans-65" x="743.220703"/>
      <use xlink:href="#DejaVuSans-72" x="804.744141"/>
      <use xlink:href="#DejaVuSans-73" x="845.857422"/>
     </g>
    </g>
   </g>
   <g id="matplotlib.axis_2">
    <g id="ytick_1">
     <g id="line2d_19">
      <path d="M 135 237.425699 
L 972 237.425699 
" clip-path="url(#p3ee08e7772)" style="fill: none; stroke-dasharray: 0.8,1.32; stroke-dashoffset: 0; stroke: #b0b0b0; stroke-width: 0.8"/>
     </g>
     <g id="line2d_20">
      <defs>
       <path id="m33a5070fb5" d="M 0 0 
L -3.5 0 
" style="stroke: #000000; stroke-width: 0.8"/>
      </defs>
      <g>
       <use xlink:href="#m33a5070fb5" x="135" y="237.425699" style="stroke: #000000; stroke-width: 0.8"/>
      </g>
     </g>
     <g id="text_11">
      <!-- 20 -->
      <g transform="translate(115.275 241.224918)scale(0.1 -0.1)">
       <use xlink:href="#DejaVuSans-32"/>
       <use xlink:href="#DejaVuSans-30" x="63.623047"/>
      </g>
     </g>
    </g>
    <g id="ytick_2">
     <g id="line2d_21">
      <path d="M 135 215.719465 
L 972 215.719465 
" clip-path="url(#p3ee08e7772)" style="fill: none; stroke-dasharray: 0.8,1.32; stroke-dashoffset: 0; stroke: #b0b0b0; stroke-width: 0.8"/>
     </g>
     <g id="line2d_22">
      <g>
       <use xlink:href="#m33a5070fb5" x="135" y="215.719465" style="stroke: #000000; stroke-width: 0.8"/>
      </g>
     </g>
     <g id="text_12">
      <!-- 30 -->
      <g transform="translate(115.275 219.518684)scale(0.1 -0.1)">
       <defs>
        <path id="DejaVuSans-33" d="M 2597 2516 
Q 3050 2419 3304 2112 
Q 3559 1806 3559 1356 
Q 3559 666 3084 287 
Q 2609 -91 1734 -91 
Q 1441 -91 1130 -33 
Q 819 25 488 141 
L 488 750 
Q 750 597 1062 519 
Q 1375 441 1716 441 
Q 2309 441 2620 675 
Q 2931 909 2931 1356 
Q 2931 1769 2642 2001 
Q 2353 2234 1838 2234 
L 1294 2234 
L 1294 2753 
L 1863 2753 
Q 2328 2753 2575 2939 
Q 2822 3125 2822 3475 
Q 2822 3834 2567 4026 
Q 2313 4219 1838 4219 
Q 1578 4219 1281 4162 
Q 984 4106 628 3988 
L 628 4550 
Q 988 4650 1302 4700 
Q 1616 4750 1894 4750 
Q 2613 4750 3031 4423 
Q 3450 4097 3450 3541 
Q 3450 3153 3228 2886 
Q 3006 2619 2597 2516 
z
" transform="scale(0.015625)"/>
       </defs>
       <use xlink:href="#DejaVuSans-33"/>
       <use xlink:href="#DejaVuSans-30" x="63.623047"/>
      </g>
     </g>
    </g>
    <g id="ytick_3">
     <g id="line2d_23">
      <path d="M 135 194.013231 
L 972 194.013231 
" clip-path="url(#p3ee08e7772)" style="fill: none; stroke-dasharray: 0.8,1.32; stroke-dashoffset: 0; stroke: #b0b0b0; stroke-width: 0.8"/>
     </g>
     <g id="line2d_24">
      <g>
       <use xlink:href="#m33a5070fb5" x="135" y="194.013231" style="stroke: #000000; stroke-width: 0.8"/>
      </g>
     </g>
     <g id="text_13">
      <!-- 40 -->
      <g transform="translate(115.275 197.81245)scale(0.1 -0.1)">
       <defs>
        <path id="DejaVuSans-34" d="M 2419 4116 
L 825 1625 
L 2419 1625 
L 2419 4116 
z
M 2253 4666 
L 3047 4666 
L 3047 1625 
L 3713 1625 
L 3713 1100 
L 3047 1100 
L 3047 0 
L 2419 0 
L 2419 1100 
L 313 1100 
L 313 1709 
L 2253 4666 
z
" transform="scale(0.015625)"/>
       </defs>
       <use xlink:href="#DejaVuSans-34"/>
       <use xlink:href="#DejaVuSans-30" x="63.623047"/>
      </g>
     </g>
    </g>
    <g id="ytick_4">
     <g id="line2d_25">
      <path d="M 135 172.306998 
L 972 172.306998 
" clip-path="url(#p3ee08e7772)" style="fill: none; stroke-dasharray: 0.8,1.32; stroke-dashoffset: 0; stroke: #b0b0b0; stroke-width: 0.8"/>
     </g>
     <g id="line2d_26">
      <g>
       <use xlink:href="#m33a5070fb5" x="135" y="172.306998" style="stroke: #000000; stroke-width: 0.8"/>
      </g>
     </g>
     <g id="text_14">
      <!-- 50 -->
      <g transform="translate(115.275 176.106216)scale(0.1 -0.1)">
       <use xlink:href="#DejaVuSans-35"/>
       <use xlink:href="#DejaVuSans-30" x="63.623047"/>
      </g>
     </g>
    </g>
    <g id="ytick_5">
     <g id="line2d_27">
      <path d="M 135 150.600764 
L 972 150.600764 
" clip-path="url(#p3ee08e7772)" style="fill: none; stroke-dasharray: 0.8,1.32; stroke-dashoffset: 0; stroke: #b0b0b0; stroke-width: 0.8"/>
     </g>
     <g id="line2d_28">
      <g>
       <use xlink:href="#m33a5070fb5" x="135" y="150.600764" style="stroke: #000000; stroke-width: 0.8"/>
      </g>
     </g>
     <g id="text_15">
      <!-- 60 -->
      <g transform="translate(115.275 154.399983)scale(0.1 -0.1)">
       <defs>
        <path id="DejaVuSans-36" d="M 2113 2584 
Q 1688 2584 1439 2293 
Q 1191 2003 1191 1497 
Q 1191 994 1439 701 
Q 1688 409 2113 409 
Q 2538 409 2786 701 
Q 3034 994 3034 1497 
Q 3034 2003 2786 2293 
Q 2538 2584 2113 2584 
z
M 3366 4563 
L 3366 3988 
Q 3128 4100 2886 4159 
Q 2644 4219 2406 4219 
Q 1781 4219 1451 3797 
Q 1122 3375 1075 2522 
Q 1259 2794 1537 2939 
Q 1816 3084 2150 3084 
Q 2853 3084 3261 2657 
Q 3669 2231 3669 1497 
Q 3669 778 3244 343 
Q 2819 -91 2113 -91 
Q 1303 -91 875 529 
Q 447 1150 447 2328 
Q 447 3434 972 4092 
Q 1497 4750 2381 4750 
Q 2619 4750 2861 4703 
Q 3103 4656 3366 4563 
z
" transform="scale(0.015625)"/>
       </defs>
       <use xlink:href="#DejaVuSans-36"/>
       <use xlink:href="#DejaVuSans-30" x="63.623047"/>
      </g>
     </g>
    </g>
    <g id="ytick_6">
     <g id="line2d_29">
      <path d="M 135 128.89453 
L 972 128.89453 
" clip-path="url(#p3ee08e7772)" style="fill: none; stroke-dasharray: 0.8,1.32; stroke-dashoffset: 0; stroke: #b0b0b0; stroke-width: 0.8"/>
     </g>
     <g id="line2d_30">
      <g>
       <use xlink:href="#m33a5070fb5" x="135" y="128.89453" style="stroke: #000000; stroke-width: 0.8"/>
      </g>
     </g>
     <g id="text_16">
      <!-- 70 -->
      <g transform="translate(115.275 132.693749)scale(0.1 -0.1)">
       <use xlink:href="#DejaVuSans-37"/>
       <use xlink:href="#DejaVuSans-30" x="63.623047"/>
      </g>
     </g>
    </g>
    <g id="ytick_7">
     <g id="line2d_31">
      <path d="M 135 107.188296 
L 972 107.188296 
" clip-path="url(#p3ee08e7772)" style="fill: none; stroke-dasharray: 0.8,1.32; stroke-dashoffset: 0; stroke: #b0b0b0; stroke-width: 0.8"/>
     </g>
     <g id="line2d_32">
      <g>
       <use xlink:href="#m33a5070fb5" x="135" y="107.188296" style="stroke: #000000; stroke-width: 0.8"/>
      </g>
     </g>
     <g id="text_17">
      <!-- 80 -->
      <g transform="translate(115.275 110.987515)scale(0.1 -0.1)">
       <defs>
        <path id="DejaVuSans-38" d="M 2034 2216 
Q 1584 2216 1326 1975 
Q 1069 1734 1069 1313 
Q 1069 891 1326 650 
Q 1584 409 2034 409 
Q 2484 409 2743 651 
Q 3003 894 3003 1313 
Q 3003 1734 2745 1975 
Q 2488 2216 2034 2216 
z
M 1403 2484 
Q 997 2584 770 2862 
Q 544 3141 544 3541 
Q 544 4100 942 4425 
Q 1341 4750 2034 4750 
Q 2731 4750 3128 4425 
Q 3525 4100 3525 3541 
Q 3525 3141 3298 2862 
Q 3072 2584 2669 2484 
Q 3125 2378 3379 2068 
Q 3634 1759 3634 1313 
Q 3634 634 3220 271 
Q 2806 -91 2034 -91 
Q 1263 -91 848 271 
Q 434 634 434 1313 
Q 434 1759 690 2068 
Q 947 2378 1403 2484 
z
M 1172 3481 
Q 1172 3119 1398 2916 
Q 1625 2713 2034 2713 
Q 2441 2713 2670 2916 
Q 2900 3119 2900 3481 
Q 2900 3844 2670 4047 
Q 2441 4250 2034 4250 
Q 1625 4250 1398 4047 
Q 1172 3844 1172 3481 
z
" transform="scale(0.015625)"/>
       </defs>
       <use xlink:href="#DejaVuSans-38"/>
       <use xlink:href="#DejaVuSans-30" x="63.623047"/>
      </g>
     </g>
    </g>
    <g id="ytick_8">
     <g id="line2d_33">
      <path d="M 135 85.482062 
L 972 85.482062 
" clip-path="url(#p3ee08e7772)" style="fill: none; stroke-dasharray: 0.8,1.32; stroke-dashoffset: 0; stroke: #b0b0b0; stroke-width: 0.8"/>
     </g>
     <g id="line2d_34">
      <g>
       <use xlink:href="#m33a5070fb5" x="135" y="85.482062" style="stroke: #000000; stroke-width: 0.8"/>
      </g>
     </g>
     <g id="text_18">
      <!-- 90 -->
      <g transform="translate(115.275 89.281281)scale(0.1 -0.1)">
       <defs>
        <path id="DejaVuSans-39" d="M 703 97 
L 703 672 
Q 941 559 1184 500 
Q 1428 441 1663 441 
Q 2288 441 2617 861 
Q 2947 1281 2994 2138 
Q 2813 1869 2534 1725 
Q 2256 1581 1919 1581 
Q 1219 1581 811 2004 
Q 403 2428 403 3163 
Q 403 3881 828 4315 
Q 1253 4750 1959 4750 
Q 2769 4750 3195 4129 
Q 3622 3509 3622 2328 
Q 3622 1225 3098 567 
Q 2575 -91 1691 -91 
Q 1453 -91 1209 -44 
Q 966 3 703 97 
z
M 1959 2075 
Q 2384 2075 2632 2365 
Q 2881 2656 2881 3163 
Q 2881 3666 2632 3958 
Q 2384 4250 1959 4250 
Q 1534 4250 1286 3958 
Q 1038 3666 1038 3163 
Q 1038 2656 1286 2365 
Q 1534 2075 1959 2075 
z
" transform="scale(0.015625)"/>
       </defs>
       <use xlink:href="#DejaVuSans-39"/>
       <use xlink:href="#DejaVuSans-30" x="63.623047"/>
      </g>
     </g>
    </g>
    <g id="text_19">
     <!-- Waiting Time -->
     <g transform="translate(109.195312 191.892969)rotate(-90)scale(0.1 -0.1)">
      <defs>
       <path id="DejaVuSans-57" d="M 213 4666 
L 850 4666 
L 1831 722 
L 2809 4666 
L 3519 4666 
L 4500 722 
L 5478 4666 
L 6119 4666 
L 4947 0 
L 4153 0 
L 3169 4050 
L 2175 0 
L 1381 0 
L 213 4666 
z
" transform="scale(0.015625)"/>
       <path id="DejaVuSans-61" d="M 2194 1759 
Q 1497 1759 1228 1600 
Q 959 1441 959 1056 
Q 959 750 1161 570 
Q 1363 391 1709 391 
Q 2188 391 2477 730 
Q 2766 1069 2766 1631 
L 2766 1759 
L 2194 1759 
z
M 3341 1997 
L 3341 0 
L 2766 0 
L 2766 531 
Q 2569 213 2275 61 
Q 1981 -91 1556 -91 
Q 1019 -91 701 211 
Q 384 513 384 1019 
Q 384 1609 779 1909 
Q 1175 2209 1959 2209 
L 2766 2209 
L 2766 2266 
Q 2766 2663 2505 2880 
Q 2244 3097 1772 3097 
Q 1472 3097 1187 3025 
Q 903 2953 641 2809 
L 641 3341 
Q 956 3463 1253 3523 
Q 1550 3584 1831 3584 
Q 2591 3584 2966 3190 
Q 3341 2797 3341 1997 
z
" transform="scale(0.015625)"/>
       <path id="DejaVuSans-69" d="M 603 3500 
L 1178 3500 
L 1178 0 
L 603 0 
L 603 3500 
z
M 603 4863 
L 1178 4863 
L 1178 4134 
L 603 4134 
L 603 4863 
z
" transform="scale(0.015625)"/>
       <path id="DejaVuSans-74" d="M 1172 4494 
L 1172 3500 
L 2356 3500 
L 2356 3053 
L 1172 3053 
L 1172 1153 
Q 1172 725 1289 603 
Q 1406 481 1766 481 
L 2356 481 
L 2356 0 
L 1766 0 
Q 1100 0 847 248 
Q 594 497 594 1153 
L 594 3053 
L 172 3053 
L 172 3500 
L 594 3500 
L 594 4494 
L 1172 4494 
z
" transform="scale(0.015625)"/>
       <path id="DejaVuSans-6e" d="M 3513 2113 
L 3513 0 
L 2938 0 
L 2938 2094 
Q 2938 2591 2744 2837 
Q 2550 3084 2163 3084 
Q 1697 3084 1428 2787 
Q 1159 2491 1159 1978 
L 1159 0 
L 581 0 
L 581 3500 
L 1159 3500 
L 1159 2956 
Q 1366 3272 1645 3428 
Q 1925 3584 2291 3584 
Q 2894 3584 3203 3211 
Q 3513 2838 3513 2113 
z
" transform="scale(0.015625)"/>
       <path id="DejaVuSans-67" d="M 2906 1791 
Q 2906 2416 2648 2759 
Q 2391 3103 1925 3103 
Q 1463 3103 1205 2759 
Q 947 2416 947 1791 
Q 947 1169 1205 825 
Q 1463 481 1925 481 
Q 2391 481 2648 825 
Q 2906 1169 2906 1791 
z
M 3481 434 
Q 3481 -459 3084 -895 
Q 2688 -1331 1869 -1331 
Q 1566 -1331 1297 -1286 
Q 1028 -1241 775 -1147 
L 775 -588 
Q 1028 -725 1275 -790 
Q 1522 -856 1778 -856 
Q 2344 -856 2625 -561 
Q 2906 -266 2906 331 
L 2906 616 
Q 2728 306 2450 153 
Q 2172 0 1784 0 
Q 1141 0 747 490 
Q 353 981 353 1791 
Q 353 2603 747 3093 
Q 1141 3584 1784 3584 
Q 2172 3584 2450 3431 
Q 2728 3278 2906 2969 
L 2906 3500 
L 3481 3500 
L 3481 434 
z
" transform="scale(0.015625)"/>
       <path id="DejaVuSans-54" d="M -19 4666 
L 3928 4666 
L 3928 4134 
L 2272 4134 
L 2272 0 
L 1638 0 
L 1638 4134 
L -19 4134 
L -19 4666 
z
" transform="scale(0.015625)"/>
      </defs>
      <use xlink:href="#DejaVuSans-57"/>
      <use xlink:href="#DejaVuSans-61" x="92.501953"/>
      <use xlink:href="#DejaVuSans-69" x="153.78125"/>
      <use xlink:href="#DejaVuSans-74" x="181.564453"/>
      <use xlink:href="#DejaVuSans-69" x="220.773438"/>
      <use xlink:href="#DejaVuSans-6e" x="248.556641"/>
      <use xlink:href="#DejaVuSans-67" x="311.935547"/>
      <use xlink:href="#DejaVuSans-20" x="375.412109"/>
      <use xlink:href="#DejaVuSans-54" x="407.199219"/>
      <use xlink:href="#DejaVuSans-69" x="465.158203"/>
      <use xlink:href="#DejaVuSans-6d" x="492.941406"/>
      <use xlink:href="#DejaVuSans-65" x="590.353516"/>
     </g>
    </g>
   </g>
   <g id="line2d_35">
    <path d="M 173.045455 202.489466 
L 176.907937 193.969836 
L 180.77042 187.462612 
L 184.632903 164.886189 
L 188.495385 184.734766 
L 192.357868 171.566394 
L 196.220351 169.386286 
L 200.082833 203.530269 
L 203.945316 196.003282 
L 207.807799 238.571493 
L 211.670281 177.608439 
L 215.532764 189.671985 
L 219.395247 180.675135 
L 223.25773 225.93088 
L 227.120212 204.327042 
L 230.982695 215.074663 
L 234.845178 140.488185 
L 238.70766 209.207595 
L 242.570143 163.513263 
L 246.432626 172.68002 
L 250.295108 209.147346 
L 254.157591 218.755146 
L 258.020074 162.931627 
L 261.882557 187.462612 
L 265.745039 227.686474 
L 269.607522 146.536995 
L 273.470005 214.509405 
L 277.332487 242.139366 
L 281.19497 223.283016 
L 285.057453 150.987418 
L 288.919935 200.118474 
L 292.782418 165.084171 
L 296.644901 158.494857 
L 300.507383 153.044467 
L 304.369866 204.739843 
L 308.232349 175.702928 
L 312.094832 155.372125 
L 315.957314 134.392042 
L 319.819797 213.576849 
L 323.68228 132.980919 
L 327.544762 117.118793 
L 331.407245 161.274874 
L 335.269728 194.328383 
L 339.13221 155.83438 
L 342.994693 150.954008 
L 346.857176 127.306435 
L 350.719659 123.627248 
L 354.582141 203.674331 
L 358.444624 120.733386 
L 362.307107 129.62176 
L 366.169589 110.355193 
L 370.032072 105.154925 
L 373.894555 145.718732 
L 377.757037 164.435415 
L 381.61952 184.438867 
L 385.482003 233.717832 
L 389.344485 174.54149 
L 393.206968 189.032328 
L 397.069451 149.927777 
L 400.931934 138.067565 
L 404.794416 143.188359 
L 408.656899 157.604938 
L 412.519382 156.243002 
L 416.381864 123.847962 
L 420.244347 211.314432 
L 424.10683 243.937569 
L 427.969312 74.929046 
L 431.831795 147.019171 
L 435.694278 179.653411 
L 439.55676 143.502468 
L 443.419243 211.892538 
L 447.281726 195.823332 
L 451.144209 119.992924 
L 455.006691 200.871686 
L 458.869174 141.40734 
L 462.731657 159.175931 
L 466.594139 190.35936 
L 470.456622 139.127913 
L 474.319105 196.093491 
L 478.181587 202.054023 
L 482.04407 170.015877 
L 485.906553 87.466434 
L 489.769036 183.470999 
L 493.631518 151.856361 
L 497.494001 203.582945 
L 501.356484 118.629971 
L 505.218966 205.193172 
L 509.081449 144.019284 
L 512.943932 214.511841 
L 516.806414 230.778691 
L 520.668897 168.86258 
L 524.53138 138.541088 
L 528.393862 227.686474 
L 532.256345 77.655627 
L 536.118828 142.032593 
L 539.981311 161.34562 
L 543.843793 108.256473 
L 547.706276 185.181217 
L 551.568759 205.632833 
L 555.431241 236.589651 
L 559.293724 152.639955 
L 563.156207 200.475795 
L 567.018689 185.270489 
L 570.881172 177.67514 
L 574.743655 236.589651 
L 578.606138 169.18488 
L 582.46862 170.881214 
L 586.331103 148.053352 
L 590.193586 129.265242 
L 594.056068 163.987051 
L 597.918551 154.203883 
L 601.781034 78.004193 
L 605.643516 213.958247 
L 609.505999 153.702248 
L 613.368482 180.154431 
L 617.230964 150.504339 
L 621.093447 103.406246 
L 624.95593 138.86177 
L 628.818413 161.753992 
L 632.680895 180.839971 
L 636.543378 160.170745 
L 640.405861 155.068295 
L 644.268343 187.153507 
L 648.130826 127.308297 
L 651.993309 183.015567 
L 655.855791 111.435844 
L 659.718274 185.181217 
L 663.580757 178.767216 
L 667.44324 153.741102 
L 671.305722 101.780706 
L 675.168205 147.303992 
L 679.030688 245.209091 
L 682.89317 104.476888 
L 686.755653 180.95449 
L 690.618136 211.378218 
L 694.480618 212.943627 
L 698.343101 232.930191 
L 702.205584 174.829591 
L 706.068066 172.929728 
L 709.930549 186.80762 
L 713.793032 141.009332 
L 717.655515 169.907874 
L 721.517997 199.742202 
L 725.38048 113.863116 
L 729.242963 140.514132 
L 733.105445 152.423407 
L 736.967928 219.728723 
L 740.830411 124.716233 
L 744.692893 109.752075 
L 748.555376 201.023629 
L 752.417859 140.525178 
L 756.280341 167.23575 
L 760.142824 198.995463 
L 764.005307 88.77508 
L 767.86779 134.050664 
L 771.730272 90.375833 
L 775.592755 123.529174 
L 779.455238 223.529902 
L 783.31772 191.967976 
L 787.180203 73.390909 
L 791.042686 133.153896 
L 794.905168 172.306998 
L 798.767651 232.930191 
L 802.630134 221.782981 
L 806.492617 228.622985 
L 810.355099 169.35643 
L 814.217582 101.97734 
L 818.080065 99.497622 
L 821.942547 213.548842 
L 825.80503 200.673329 
L 829.667513 175.054452 
L 833.529995 170.106232 
L 837.392478 135.357093 
L 841.254961 126.557182 
L 845.117443 158.230642 
L 848.979926 198.307313 
L 852.842409 187.501361 
L 856.704892 189.153512 
L 860.567374 125.735347 
L 864.429857 94.587375 
L 868.29234 80.496283 
L 872.154822 172.183063 
L 876.017305 158.840992 
L 879.879788 173.452792 
L 883.74227 165.766572 
L 887.604753 198.307313 
L 891.467236 85.598957 
L 895.329719 202.644073 
L 899.192201 181.519381 
L 903.054684 185.181217 
L 906.917167 195.77844 
L 910.779649 223.529902 
L 914.642132 212.123059 
L 918.504615 189.832993 
L 922.367097 170.791516 
L 926.22958 76.695427 
L 930.092063 101.956614 
L 933.954545 159.506179 
L 933.954545 159.506179 
" clip-path="url(#p3ee08e7772)" style="fill: none; stroke: #000000; stroke-width: 1.5; stroke-linecap: square"/>
   </g>
   <g id="line2d_36">
    <path d="M 207.807799 191.260059 
L 211.670281 188.771957 
L 215.532764 188.342171 
L 219.395247 187.663424 
L 223.25773 193.767893 
L 227.120212 195.72712 
L 230.982695 200.077947 
L 234.845178 197.188137 
L 238.70766 197.75587 
L 242.570143 194.506868 
L 246.432626 187.917721 
L 250.295108 191.071612 
L 254.157591 193.979928 
L 258.020074 192.205577 
L 261.882557 188.35875 
L 265.745039 190.694693 
L 269.607522 183.840927 
L 273.470005 191.243049 
L 277.332487 194.536226 
L 281.19497 200.513201 
L 285.057453 198.343941 
L 288.919935 197.441053 
L 292.782418 192.073956 
L 296.644901 191.630279 
L 300.507383 188.188464 
L 304.369866 185.893801 
L 308.232349 188.810394 
L 312.094832 182.896666 
L 315.957314 172.121934 
L 319.819797 171.151317 
L 323.68228 169.350667 
L 327.544762 161.050699 
L 331.407245 160.66977 
L 335.269728 164.253122 
L 339.13221 164.532114 
L 342.994693 159.15353 
L 346.857176 154.313881 
L 350.719659 151.139393 
L 354.582141 158.067622 
L 358.444624 148.783276 
L 362.307107 148.44736 
L 366.169589 147.771 
L 370.032072 142.159005 
L 373.894555 137.29804 
L 377.757037 138.158143 
L 381.61952 141.506629 
L 385.482003 152.147769 
L 389.344485 157.239193 
L 393.206968 155.774993 
L 397.069451 158.694432 
L 400.931934 159.539012 
L 404.794416 162.822329 
L 408.656899 168.06733 
L 412.519382 169.119757 
L 416.381864 165.061012 
L 420.244347 167.748568 
L 424.10683 168.770542 
L 427.969312 158.809298 
L 431.831795 154.607982 
L 435.694278 157.580546 
L 439.55676 158.124036 
L 443.419243 164.994454 
L 447.281726 168.816293 
L 451.144209 165.191285 
L 455.006691 172.893658 
L 458.869174 165.902948 
L 462.731657 157.426785 
L 466.594139 168.969816 
L 470.456622 168.18069 
L 474.319105 169.824698 
L 478.181587 175.679854 
L 482.04407 171.492188 
L 485.906553 160.656498 
L 489.769036 167.004305 
L 493.631518 162.102773 
L 497.494001 168.320333 
L 501.356484 164.265737 
L 505.218966 165.749119 
L 509.081449 166.238256 
L 512.943932 168.080091 
L 516.806414 170.952557 
L 520.668897 170.837228 
L 524.53138 175.944693 
L 528.393862 180.366241 
L 532.256345 172.946167 
L 536.118828 166.791132 
L 539.981311 171.062697 
L 543.843793 161.369027 
L 547.706276 165.48522 
L 551.568759 164.59732 
L 555.431241 165.178416 
L 559.293724 163.556153 
L 563.156207 169.749624 
L 567.018689 165.508025 
L 570.881172 175.509977 
L 574.743655 184.965682 
L 578.606138 185.749608 
L 582.46862 192.012083 
L 586.331103 188.299296 
L 590.193586 180.662537 
L 594.056068 173.402277 
L 597.918551 173.55867 
L 601.781034 161.31151 
L 605.643516 164.180285 
L 609.505999 161.782996 
L 613.368482 156.139474 
L 617.230964 154.27142 
L 621.093447 147.523923 
L 624.95593 146.604765 
L 628.818413 149.85364 
L 632.680895 151.538932 
L 636.543378 152.135618 
L 640.405861 159.842029 
L 648.130826 154.522159 
L 651.993309 154.808273 
L 655.855791 150.901423 
L 659.718274 159.078921 
L 663.580757 163.069465 
L 667.44324 162.268176 
L 671.305722 154.36225 
L 675.168205 153.075574 
L 679.030688 162.089654 
L 682.89317 153.821992 
L 686.755653 159.186611 
L 690.618136 162.022877 
L 694.480618 172.173655 
L 698.343101 176.948552 
L 702.205584 176.55479 
L 706.068066 178.473652 
L 709.930549 186.976344 
L 713.793032 186.346878 
L 717.655515 178.816756 
L 721.517997 188.343287 
L 725.38048 181.63415 
L 729.242963 174.547741 
L 733.105445 168.495719 
L 736.967928 167.175572 
L 740.830411 162.164237 
L 744.692893 155.846471 
L 748.555376 157.268072 
L 752.417859 157.219657 
L 756.280341 156.952444 
L 760.142824 156.877771 
L 764.005307 154.368967 
L 767.86779 153.72262 
L 771.730272 147.517863 
L 775.592755 137.897908 
L 779.455238 147.779275 
L 783.31772 156.000865 
L 787.180203 143.237593 
L 791.042686 142.500465 
L 794.905168 143.007589 
L 798.767651 146.401062 
L 802.630134 159.701852 
L 806.492617 169.159084 
L 810.355099 177.057144 
L 814.217582 174.901961 
L 818.080065 162.498733 
L 821.942547 164.656819 
L 825.80503 177.385061 
L 829.667513 181.575117 
L 833.529995 181.35504 
L 841.254961 162.075151 
L 845.117443 155.035916 
L 848.979926 157.931005 
L 852.842409 166.483407 
L 856.704892 175.448996 
L 860.567374 166.667646 
L 864.429857 156.059051 
L 868.29234 146.603234 
L 872.154822 146.810917 
L 876.017305 149.159307 
L 879.879788 153.848868 
L 883.74227 154.602461 
L 887.604753 154.602461 
L 891.467236 144.41222 
L 895.329719 145.761277 
L 899.192201 151.33968 
L 903.054684 160.399064 
L 906.917167 171.92728 
L 910.779649 177.061964 
L 914.642132 182.39017 
L 918.504615 184.028191 
L 922.367097 184.530685 
L 926.22958 172.369496 
L 930.092063 174.005262 
L 933.954545 169.691473 
L 933.954545 169.691473 
" clip-path="url(#p3ee08e7772)" style="fill: none; stroke: #ff0000; stroke-width: 1.5; stroke-linecap: square"/>
   </g>
   <g id="patch_3">
    <path d="M 135 253.8 
L 135 64.8 
" style="fill: none; stroke: #000000; stroke-width: 0.8; stroke-linejoin: miter; stroke-linecap: square"/>
   </g>
   <g id="patch_4">
    <path d="M 972 253.8 
L 972 64.8 
" style="fill: none; stroke: #000000; stroke-width: 0.8; stroke-linejoin: miter; stroke-linecap: square"/>
   </g>
   <g id="patch_5">
    <path d="M 135 253.8 
L 972 253.8 
" style="fill: none; stroke: #000000; stroke-width: 0.8; stroke-linejoin: miter; stroke-linecap: square"/>
   </g>
   <g id="patch_6">
    <path d="M 135 64.8 
L 972 64.8 
" style="fill: none; stroke: #000000; stroke-width: 0.8; stroke-linejoin: miter; stroke-linecap: square"/>
   </g>
   <g id="text_20">
    <!-- Default -->
    <g transform="translate(531.5775 58.8)scale(0.12 -0.12)">
     <defs>
      <path id="DejaVuSans-44" d="M 1259 4147 
L 1259 519 
L 2022 519 
Q 2988 519 3436 956 
Q 3884 1394 3884 2338 
Q 3884 3275 3436 3711 
Q 2988 4147 2022 4147 
L 1259 4147 
z
M 628 4666 
L 1925 4666 
Q 3281 4666 3915 4102 
Q 4550 3538 4550 2338 
Q 4550 1131 3912 565 
Q 3275 0 1925 0 
L 628 0 
L 628 4666 
z
" transform="scale(0.015625)"/>
      <path id="DejaVuSans-6c" d="M 603 4863 
L 1178 4863 
L 1178 0 
L 603 0 
L 603 4863 
z
" transform="scale(0.015625)"/>
     </defs>
     <use xlink:href="#DejaVuSans-44"/>
     <use xlink:href="#DejaVuSans-65" x="77.001953"/>
     <use xlink:href="#DejaVuSans-66" x="138.525391"/>
     <use xlink:href="#DejaVuSans-61" x="173.730469"/>
     <use xlink:href="#DejaVuSans-75" x="235.009766"/>
     <use xlink:href="#DejaVuSans-6c" x="298.388672"/>
     <use xlink:href="#DejaVuSans-74" x="326.171875"/>
    </g>
   </g>
   <g id="legend_1">
    <g id="patch_7">
     <path d="M 142 102.15625 
L 259.09375 102.15625 
Q 261.09375 102.15625 261.09375 100.15625 
L 261.09375 71.8 
Q 261.09375 69.8 259.09375 69.8 
L 142 69.8 
Q 140 69.8 140 71.8 
L 140 100.15625 
Q 140 102.15625 142 102.15625 
z
" style="fill: #ffffff; opacity: 0.8; stroke: #cccccc; stroke-linejoin: miter"/>
    </g>
    <g id="line2d_37">
     <path d="M 144 77.898438 
L 154 77.898438 
L 164 77.898438 
" style="fill: none; stroke: #000000; stroke-width: 1.5; stroke-linecap: square"/>
    </g>
    <g id="text_21">
     <!-- Original -->
     <g transform="translate(172 81.398438)scale(0.1 -0.1)">
      <use xlink:href="#DejaVuSans-4f"/>
      <use xlink:href="#DejaVuSans-72" x="78.710938"/>
      <use xlink:href="#DejaVuSans-69" x="119.824219"/>
      <use xlink:href="#DejaVuSans-67" x="147.607422"/>
      <use xlink:href="#DejaVuSans-69" x="211.083984"/>
      <use xlink:href="#DejaVuSans-6e" x="238.867188"/>
      <use xlink:href="#DejaVuSans-61" x="302.246094"/>
      <use xlink:href="#DejaVuSans-6c" x="363.525391"/>
     </g>
    </g>
    <g id="line2d_38">
     <path d="M 144 92.576563 
L 154 92.576563 
L 164 92.576563 
" style="fill: none; stroke: #ff0000; stroke-width: 1.5; stroke-linecap: square"/>
    </g>
    <g id="text_22">
     <!-- Running average -->
     <g transform="translate(172 96.076563)scale(0.1 -0.1)">
      <defs>
       <path id="DejaVuSans-52" d="M 2841 2188 
Q 3044 2119 3236 1894 
Q 3428 1669 3622 1275 
L 4263 0 
L 3584 0 
L 2988 1197 
Q 2756 1666 2539 1819 
Q 2322 1972 1947 1972 
L 1259 1972 
L 1259 0 
L 628 0 
L 628 4666 
L 2053 4666 
Q 2853 4666 3247 4331 
Q 3641 3997 3641 3322 
Q 3641 2881 3436 2590 
Q 3231 2300 2841 2188 
z
M 1259 4147 
L 1259 2491 
L 2053 2491 
Q 2509 2491 2742 2702 
Q 2975 2913 2975 3322 
Q 2975 3731 2742 3939 
Q 2509 4147 2053 4147 
L 1259 4147 
z
" transform="scale(0.015625)"/>
       <path id="DejaVuSans-76" d="M 191 3500 
L 800 3500 
L 1894 563 
L 2988 3500 
L 3597 3500 
L 2284 0 
L 1503 0 
L 191 3500 
z
" transform="scale(0.015625)"/>
      </defs>
      <use xlink:href="#DejaVuSans-52"/>
      <use xlink:href="#DejaVuSans-75" x="64.982422"/>
      <use xlink:href="#DejaVuSans-6e" x="128.361328"/>
      <use xlink:href="#DejaVuSans-6e" x="191.740234"/>
      <use xlink:href="#DejaVuSans-69" x="255.119141"/>
      <use xlink:href="#DejaVuSans-6e" x="282.902344"/>
      <use xlink:href="#DejaVuSans-67" x="346.28125"/>
      <use xlink:href="#DejaVuSans-20" x="409.757812"/>
      <use xlink:href="#DejaVuSans-61" x="441.544922"/>
      <use xlink:href="#DejaVuSans-76" x="502.824219"/>
      <use xlink:href="#DejaVuSans-65" x="562.003906"/>
      <use xlink:href="#DejaVuSans-72" x="623.527344"/>
      <use xlink:href="#DejaVuSans-61" x="664.640625"/>
      <use xlink:href="#DejaVuSans-67" x="725.919922"/>
      <use xlink:href="#DejaVuSans-65" x="789.396484"/>
     </g>
    </g>
   </g>
  </g>
  <g id="axes_2">
   <g id="patch_8">
    <path d="M 135 480.6 
L 972 480.6 
L 972 291.6 
L 135 291.6 
z
" style="fill: #ffffff"/>
   </g>
   <g id="matplotlib.axis_3">
    <g id="xtick_10">
     <g id="line2d_39">
      <path d="M 173.045455 480.6 
L 173.045455 291.6 
" clip-path="url(#pd6bd117497)" style="fill: none; stroke-dasharray: 0.8,1.32; stroke-dashoffset: 0; stroke: #b0b0b0; stroke-width: 0.8"/>
     </g>
     <g id="line2d_40">
      <g>
       <use xlink:href="#m0645364729" x="173.045455" y="480.6" style="stroke: #000000; stroke-width: 0.8"/>
      </g>
     </g>
     <g id="text_23">
      <!-- 0 -->
      <g transform="translate(169.864205 495.198438)scale(0.1 -0.1)">
       <use xlink:href="#DejaVuSans-30"/>
      </g>
     </g>
    </g>
    <g id="xtick_11">
     <g id="line2d_41">
      <path d="M 269.607522 480.6 
L 269.607522 291.6 
" clip-path="url(#pd6bd117497)" style="fill: none; stroke-dasharray: 0.8,1.32; stroke-dashoffset: 0; stroke: #b0b0b0; stroke-width: 0.8"/>
     </g>
     <g id="line2d_42">
      <g>
       <use xlink:href="#m0645364729" x="269.607522" y="480.6" style="stroke: #000000; stroke-width: 0.8"/>
      </g>
     </g>
     <g id="text_24">
      <!-- 25 -->
      <g transform="translate(263.245022 495.198438)scale(0.1 -0.1)">
       <use xlink:href="#DejaVuSans-32"/>
       <use xlink:href="#DejaVuSans-35" x="63.623047"/>
      </g>
     </g>
    </g>
    <g id="xtick_12">
     <g id="line2d_43">
      <path d="M 366.169589 480.6 
L 366.169589 291.6 
" clip-path="url(#pd6bd117497)" style="fill: none; stroke-dasharray: 0.8,1.32; stroke-dashoffset: 0; stroke: #b0b0b0; stroke-width: 0.8"/>
     </g>
     <g id="line2d_44">
      <g>
       <use xlink:href="#m0645364729" x="366.169589" y="480.6" style="stroke: #000000; stroke-width: 0.8"/>
      </g>
     </g>
     <g id="text_25">
      <!-- 50 -->
      <g transform="translate(359.807089 495.198438)scale(0.1 -0.1)">
       <use xlink:href="#DejaVuSans-35"/>
       <use xlink:href="#DejaVuSans-30" x="63.623047"/>
      </g>
     </g>
    </g>
    <g id="xtick_13">
     <g id="line2d_45">
      <path d="M 462.731657 480.6 
L 462.731657 291.6 
" clip-path="url(#pd6bd117497)" style="fill: none; stroke-dasharray: 0.8,1.32; stroke-dashoffset: 0; stroke: #b0b0b0; stroke-width: 0.8"/>
     </g>
     <g id="line2d_46">
      <g>
       <use xlink:href="#m0645364729" x="462.731657" y="480.6" style="stroke: #000000; stroke-width: 0.8"/>
      </g>
     </g>
     <g id="text_26">
      <!-- 75 -->
      <g transform="translate(456.369157 495.198438)scale(0.1 -0.1)">
       <use xlink:href="#DejaVuSans-37"/>
       <use xlink:href="#DejaVuSans-35" x="63.623047"/>
      </g>
     </g>
    </g>
    <g id="xtick_14">
     <g id="line2d_47">
      <path d="M 559.293724 480.6 
L 559.293724 291.6 
" clip-path="url(#pd6bd117497)" style="fill: none; stroke-dasharray: 0.8,1.32; stroke-dashoffset: 0; stroke: #b0b0b0; stroke-width: 0.8"/>
     </g>
     <g id="line2d_48">
      <g>
       <use xlink:href="#m0645364729" x="559.293724" y="480.6" style="stroke: #000000; stroke-width: 0.8"/>
      </g>
     </g>
     <g id="text_27">
      <!-- 100 -->
      <g transform="translate(549.749974 495.198438)scale(0.1 -0.1)">
       <use xlink:href="#DejaVuSans-31"/>
       <use xlink:href="#DejaVuSans-30" x="63.623047"/>
       <use xlink:href="#DejaVuSans-30" x="127.246094"/>
      </g>
     </g>
    </g>
    <g id="xtick_15">
     <g id="line2d_49">
      <path d="M 655.855791 480.6 
L 655.855791 291.6 
" clip-path="url(#pd6bd117497)" style="fill: none; stroke-dasharray: 0.8,1.32; stroke-dashoffset: 0; stroke: #b0b0b0; stroke-width: 0.8"/>
     </g>
     <g id="line2d_50">
      <g>
       <use xlink:href="#m0645364729" x="655.855791" y="480.6" style="stroke: #000000; stroke-width: 0.8"/>
      </g>
     </g>
     <g id="text_28">
      <!-- 125 -->
      <g transform="translate(646.312041 495.198438)scale(0.1 -0.1)">
       <use xlink:href="#DejaVuSans-31"/>
       <use xlink:href="#DejaVuSans-32" x="63.623047"/>
       <use xlink:href="#DejaVuSans-35" x="127.246094"/>
      </g>
     </g>
    </g>
    <g id="xtick_16">
     <g id="line2d_51">
      <path d="M 752.417859 480.6 
L 752.417859 291.6 
" clip-path="url(#pd6bd117497)" style="fill: none; stroke-dasharray: 0.8,1.32; stroke-dashoffset: 0; stroke: #b0b0b0; stroke-width: 0.8"/>
     </g>
     <g id="line2d_52">
      <g>
       <use xlink:href="#m0645364729" x="752.417859" y="480.6" style="stroke: #000000; stroke-width: 0.8"/>
      </g>
     </g>
     <g id="text_29">
      <!-- 150 -->
      <g transform="translate(742.874109 495.198438)scale(0.1 -0.1)">
       <use xlink:href="#DejaVuSans-31"/>
       <use xlink:href="#DejaVuSans-35" x="63.623047"/>
       <use xlink:href="#DejaVuSans-30" x="127.246094"/>
      </g>
     </g>
    </g>
    <g id="xtick_17">
     <g id="line2d_53">
      <path d="M 848.979926 480.6 
L 848.979926 291.6 
" clip-path="url(#pd6bd117497)" style="fill: none; stroke-dasharray: 0.8,1.32; stroke-dashoffset: 0; stroke: #b0b0b0; stroke-width: 0.8"/>
     </g>
     <g id="line2d_54">
      <g>
       <use xlink:href="#m0645364729" x="848.979926" y="480.6" style="stroke: #000000; stroke-width: 0.8"/>
      </g>
     </g>
     <g id="text_30">
      <!-- 175 -->
      <g transform="translate(839.436176 495.198438)scale(0.1 -0.1)">
       <use xlink:href="#DejaVuSans-31"/>
       <use xlink:href="#DejaVuSans-37" x="63.623047"/>
       <use xlink:href="#DejaVuSans-35" x="127.246094"/>
      </g>
     </g>
    </g>
    <g id="xtick_18">
     <g id="line2d_55">
      <path d="M 945.541994 480.6 
L 945.541994 291.6 
" clip-path="url(#pd6bd117497)" style="fill: none; stroke-dasharray: 0.8,1.32; stroke-dashoffset: 0; stroke: #b0b0b0; stroke-width: 0.8"/>
     </g>
     <g id="line2d_56">
      <g>
       <use xlink:href="#m0645364729" x="945.541994" y="480.6" style="stroke: #000000; stroke-width: 0.8"/>
      </g>
     </g>
     <g id="text_31">
      <!-- 200 -->
      <g transform="translate(935.998244 495.198438)scale(0.1 -0.1)">
       <use xlink:href="#DejaVuSans-32"/>
       <use xlink:href="#DejaVuSans-30" x="63.623047"/>
       <use xlink:href="#DejaVuSans-30" x="127.246094"/>
      </g>
     </g>
    </g>
    <g id="text_32">
     <!-- Number of Orders -->
     <g transform="translate(508.601562 508.876563)scale(0.1 -0.1)">
      <use xlink:href="#DejaVuSans-4e"/>
      <use xlink:href="#DejaVuSans-75" x="74.804688"/>
      <use xlink:href="#DejaVuSans-6d" x="138.183594"/>
      <use xlink:href="#DejaVuSans-62" x="235.595703"/>
      <use xlink:href="#DejaVuSans-65" x="299.072266"/>
      <use xlink:href="#DejaVuSans-72" x="360.595703"/>
      <use xlink:href="#DejaVuSans-20" x="401.708984"/>
      <use xlink:href="#DejaVuSans-6f" x="433.496094"/>
      <use xlink:href="#DejaVuSans-66" x="494.677734"/>
      <use xlink:href="#DejaVuSans-20" x="529.882812"/>
      <use xlink:href="#DejaVuSans-4f" x="561.669922"/>
      <use xlink:href="#DejaVuSans-72" x="640.380859"/>
      <use xlink:href="#DejaVuSans-64" x="679.744141"/>
      <use xlink:href="#DejaVuSans-65" x="743.220703"/>
      <use xlink:href="#DejaVuSans-72" x="804.744141"/>
      <use xlink:href="#DejaVuSans-73" x="845.857422"/>
     </g>
    </g>
   </g>
   <g id="matplotlib.axis_4">
    <g id="ytick_9">
     <g id="line2d_57">
      <path d="M 135 464.320724 
L 972 464.320724 
" clip-path="url(#pd6bd117497)" style="fill: none; stroke-dasharray: 0.8,1.32; stroke-dashoffset: 0; stroke: #b0b0b0; stroke-width: 0.8"/>
     </g>
     <g id="line2d_58">
      <g>
       <use xlink:href="#m33a5070fb5" x="135" y="464.320724" style="stroke: #000000; stroke-width: 0.8"/>
      </g>
     </g>
     <g id="text_33">
      <!-- 20 -->
      <g transform="translate(115.275 468.119942)scale(0.1 -0.1)">
       <use xlink:href="#DejaVuSans-32"/>
       <use xlink:href="#DejaVuSans-30" x="63.623047"/>
      </g>
     </g>
    </g>
    <g id="ytick_10">
     <g id="line2d_59">
      <path d="M 135 442.879494 
L 972 442.879494 
" clip-path="url(#pd6bd117497)" style="fill: none; stroke-dasharray: 0.8,1.32; stroke-dashoffset: 0; stroke: #b0b0b0; stroke-width: 0.8"/>
     </g>
     <g id="line2d_60">
      <g>
       <use xlink:href="#m33a5070fb5" x="135" y="442.879494" style="stroke: #000000; stroke-width: 0.8"/>
      </g>
     </g>
     <g id="text_34">
      <!-- 30 -->
      <g transform="translate(115.275 446.678712)scale(0.1 -0.1)">
       <use xlink:href="#DejaVuSans-33"/>
       <use xlink:href="#DejaVuSans-30" x="63.623047"/>
      </g>
     </g>
    </g>
    <g id="ytick_11">
     <g id="line2d_61">
      <path d="M 135 421.438264 
L 972 421.438264 
" clip-path="url(#pd6bd117497)" style="fill: none; stroke-dasharray: 0.8,1.32; stroke-dashoffset: 0; stroke: #b0b0b0; stroke-width: 0.8"/>
     </g>
     <g id="line2d_62">
      <g>
       <use xlink:href="#m33a5070fb5" x="135" y="421.438264" style="stroke: #000000; stroke-width: 0.8"/>
      </g>
     </g>
     <g id="text_35">
      <!-- 40 -->
      <g transform="translate(115.275 425.237482)scale(0.1 -0.1)">
       <use xlink:href="#DejaVuSans-34"/>
       <use xlink:href="#DejaVuSans-30" x="63.623047"/>
      </g>
     </g>
    </g>
    <g id="ytick_12">
     <g id="line2d_63">
      <path d="M 135 399.997034 
L 972 399.997034 
" clip-path="url(#pd6bd117497)" style="fill: none; stroke-dasharray: 0.8,1.32; stroke-dashoffset: 0; stroke: #b0b0b0; stroke-width: 0.8"/>
     </g>
     <g id="line2d_64">
      <g>
       <use xlink:href="#m33a5070fb5" x="135" y="399.997034" style="stroke: #000000; stroke-width: 0.8"/>
      </g>
     </g>
     <g id="text_36">
      <!-- 50 -->
      <g transform="translate(115.275 403.796252)scale(0.1 -0.1)">
       <use xlink:href="#DejaVuSans-35"/>
       <use xlink:href="#DejaVuSans-30" x="63.623047"/>
      </g>
     </g>
    </g>
    <g id="ytick_13">
     <g id="line2d_65">
      <path d="M 135 378.555803 
L 972 378.555803 
" clip-path="url(#pd6bd117497)" style="fill: none; stroke-dasharray: 0.8,1.32; stroke-dashoffset: 0; stroke: #b0b0b0; stroke-width: 0.8"/>
     </g>
     <g id="line2d_66">
      <g>
       <use xlink:href="#m33a5070fb5" x="135" y="378.555803" style="stroke: #000000; stroke-width: 0.8"/>
      </g>
     </g>
     <g id="text_37">
      <!-- 60 -->
      <g transform="translate(115.275 382.355022)scale(0.1 -0.1)">
       <use xlink:href="#DejaVuSans-36"/>
       <use xlink:href="#DejaVuSans-30" x="63.623047"/>
      </g>
     </g>
    </g>
    <g id="ytick_14">
     <g id="line2d_67">
      <path d="M 135 357.114573 
L 972 357.114573 
" clip-path="url(#pd6bd117497)" style="fill: none; stroke-dasharray: 0.8,1.32; stroke-dashoffset: 0; stroke: #b0b0b0; stroke-width: 0.8"/>
     </g>
     <g id="line2d_68">
      <g>
       <use xlink:href="#m33a5070fb5" x="135" y="357.114573" style="stroke: #000000; stroke-width: 0.8"/>
      </g>
     </g>
     <g id="text_38">
      <!-- 70 -->
      <g transform="translate(115.275 360.913792)scale(0.1 -0.1)">
       <use xlink:href="#DejaVuSans-37"/>
       <use xlink:href="#DejaVuSans-30" x="63.623047"/>
      </g>
     </g>
    </g>
    <g id="ytick_15">
     <g id="line2d_69">
      <path d="M 135 335.673343 
L 972 335.673343 
" clip-path="url(#pd6bd117497)" style="fill: none; stroke-dasharray: 0.8,1.32; stroke-dashoffset: 0; stroke: #b0b0b0; stroke-width: 0.8"/>
     </g>
     <g id="line2d_70">
      <g>
       <use xlink:href="#m33a5070fb5" x="135" y="335.673343" style="stroke: #000000; stroke-width: 0.8"/>
      </g>
     </g>
     <g id="text_39">
      <!-- 80 -->
      <g transform="translate(115.275 339.472562)scale(0.1 -0.1)">
       <use xlink:href="#DejaVuSans-38"/>
       <use xlink:href="#DejaVuSans-30" x="63.623047"/>
      </g>
     </g>
    </g>
    <g id="ytick_16">
     <g id="line2d_71">
      <path d="M 135 314.232113 
L 972 314.232113 
" clip-path="url(#pd6bd117497)" style="fill: none; stroke-dasharray: 0.8,1.32; stroke-dashoffset: 0; stroke: #b0b0b0; stroke-width: 0.8"/>
     </g>
     <g id="line2d_72">
      <g>
       <use xlink:href="#m33a5070fb5" x="135" y="314.232113" style="stroke: #000000; stroke-width: 0.8"/>
      </g>
     </g>
     <g id="text_40">
      <!-- 90 -->
      <g transform="translate(115.275 318.031332)scale(0.1 -0.1)">
       <use xlink:href="#DejaVuSans-39"/>
       <use xlink:href="#DejaVuSans-30" x="63.623047"/>
      </g>
     </g>
    </g>
    <g id="ytick_17">
     <g id="line2d_73">
      <path d="M 135 292.790883 
L 972 292.790883 
" clip-path="url(#pd6bd117497)" style="fill: none; stroke-dasharray: 0.8,1.32; stroke-dashoffset: 0; stroke: #b0b0b0; stroke-width: 0.8"/>
     </g>
     <g id="line2d_74">
      <g>
       <use xlink:href="#m33a5070fb5" x="135" y="292.790883" style="stroke: #000000; stroke-width: 0.8"/>
      </g>
     </g>
     <g id="text_41">
      <!-- 100 -->
      <g transform="translate(108.9125 296.590102)scale(0.1 -0.1)">
       <use xlink:href="#DejaVuSans-31"/>
       <use xlink:href="#DejaVuSans-30" x="63.623047"/>
       <use xlink:href="#DejaVuSans-30" x="127.246094"/>
      </g>
     </g>
    </g>
    <g id="text_42">
     <!-- Waiting Time -->
     <g transform="translate(102.832812 418.692969)rotate(-90)scale(0.1 -0.1)">
      <use xlink:href="#DejaVuSans-57"/>
      <use xlink:href="#DejaVuSans-61" x="92.501953"/>
      <use xlink:href="#DejaVuSans-69" x="153.78125"/>
      <use xlink:href="#DejaVuSans-74" x="181.564453"/>
      <use xlink:href="#DejaVuSans-69" x="220.773438"/>
      <use xlink:href="#DejaVuSans-6e" x="248.556641"/>
      <use xlink:href="#DejaVuSans-67" x="311.935547"/>
      <use xlink:href="#DejaVuSans-20" x="375.412109"/>
      <use xlink:href="#DejaVuSans-54" x="407.199219"/>
      <use xlink:href="#DejaVuSans-69" x="465.158203"/>
      <use xlink:href="#DejaVuSans-6d" x="492.941406"/>
      <use xlink:href="#DejaVuSans-65" x="590.353516"/>
     </g>
    </g>
   </g>
   <g id="line2d_75">
    <path d="M 173.045455 429.811014 
L 176.907937 421.395398 
L 180.77042 414.967619 
L 184.632903 392.666823 
L 188.495385 412.273076 
L 192.357868 399.265471 
L 196.220351 397.111979 
L 200.082833 430.839111 
L 203.945316 423.404019 
L 207.807799 465.452529 
L 211.670281 405.233751 
L 215.532764 417.150018 
L 219.395247 408.263007 
L 223.25773 452.966241 
L 227.120212 431.626157 
L 230.982695 442.242564 
L 234.845178 368.566686 
L 238.70766 436.447125 
L 242.570143 391.310659 
L 246.432626 400.365502 
L 250.295108 436.387612 
L 254.157591 445.878113 
L 258.020074 390.736124 
L 261.882557 414.967619 
L 265.745039 454.700402 
L 269.607522 374.541648 
L 273.470005 441.684207 
L 277.332487 468.976843 
L 281.19497 450.350703 
L 285.057453 378.937737 
L 288.919935 427.46897 
L 292.782418 392.862387 
L 296.644901 386.35352 
L 300.507383 380.969672 
L 304.369866 432.033917 
L 308.232349 403.351505 
L 312.094832 383.268913 
L 315.957314 362.544968 
L 319.819797 440.763036 
L 323.68228 365.048881 
L 327.544762 363.697136 
L 331.407245 389.099597 
L 335.269728 421.749567 
L 339.13221 388.223641 
L 342.994693 378.904735 
L 346.857176 355.582308 
L 350.719659 371.300667 
L 354.582141 430.981414 
L 358.444624 302.937495 
L 362.307107 357.832925 
L 366.169589 330.729508 
L 370.032072 333.664797 
L 373.894555 397.318728 
L 377.757037 392.221552 
L 381.61952 347.657099 
L 385.482003 456.369878 
L 389.344485 343.373391 
L 393.206968 416.51817 
L 397.069451 377.891033 
L 400.931934 342.590265 
L 404.794416 301.691055 
L 408.656899 385.474466 
L 412.519382 384.129158 
L 416.381864 352.129618 
L 420.244347 370.924984 
L 424.10683 470.753093 
L 427.969312 307.087501 
L 431.831795 444.71886 
L 435.694278 407.253758 
L 439.55676 424.986283 
L 443.419243 380.268433 
L 447.281726 418.938019 
L 451.144209 401.763759 
L 455.006691 423.924739 
L 458.869174 433.798309 
L 462.731657 440.468394 
L 466.594139 417.829001 
L 470.456622 356.352952 
L 474.319105 419.20488 
L 478.181587 429.380888 
L 482.04407 397.733884 
L 485.906553 370.734868 
L 489.769036 415.312983 
L 493.631518 335.778169 
L 497.494001 377.449029 
L 501.356484 392.932817 
L 505.218966 379.039597 
L 509.081449 441.755599 
L 512.943932 374.083357 
L 516.806414 457.754866 
L 520.668897 445.748537 
L 524.53138 410.661263 
L 528.393862 450.412156 
L 532.256345 376.202152 
L 536.118828 370.092238 
L 539.981311 453.493169 
L 543.843793 382.844049 
L 547.706276 343.013153 
L 551.568759 368.592315 
L 555.431241 463.494883 
L 559.293724 404.155452 
L 563.156207 368.991073 
L 567.018689 368.784356 
L 570.881172 405.299639 
L 574.743655 463.494883 
L 578.606138 336.877589 
L 582.46862 409.470233 
L 586.331103 376.039492 
L 590.193586 313.462857 
L 594.056068 324.175406 
L 597.918551 386.40318 
L 601.781034 376.388378 
L 605.643516 387.697662 
L 609.505999 449.222679 
L 613.368482 403.460415 
L 617.230964 378.460556 
L 621.093447 401.638391 
L 624.95593 390.54548 
L 628.818413 389.572866 
L 632.680895 348.390386 
L 636.543378 446.839804 
L 640.405861 382.968792 
L 644.268343 414.662287 
L 648.130826 408.989821 
L 651.993309 357.132751 
L 655.855791 393.31115 
L 659.718274 412.714076 
L 663.580757 429.963734 
L 667.44324 451.358726 
L 671.305722 330.331773 
L 675.168205 375.299281 
L 679.030688 472.009091 
L 682.89317 332.995038 
L 686.755653 344.215262 
L 690.618136 438.591248 
L 694.480618 440.137545 
L 698.343101 406.437985 
L 702.205584 343.657974 
L 706.068066 400.612161 
L 709.930549 390.73527 
L 713.793032 325.063567 
L 717.655515 427.483962 
L 721.517997 427.097291 
L 725.38048 395.708788 
L 729.242963 409.330652 
L 733.105445 433.798309 
L 736.967928 446.839804 
L 740.830411 406.429403 
L 744.692893 407.748661 
L 748.555376 451.948427 
L 752.417859 427.434082 
L 756.280341 394.987699 
L 760.142824 391.114167 
L 764.005307 333.585651 
L 767.86779 376.3689 
L 771.730272 335.166862 
L 775.592755 419.417978 
L 779.455238 450.594575 
L 783.31772 419.417978 
L 787.180203 300.190909 
L 791.042686 307.879823 
L 794.905168 399.997034 
L 798.767651 459.8801 
L 802.630134 448.868982 
L 806.492617 455.625479 
L 810.355099 373.497136 
L 814.217582 389.356861 
L 818.080065 395.679818 
L 821.942547 464.320724 
L 825.80503 374.574935 
L 829.667513 379.125592 
L 833.529995 374.237784 
L 837.392478 404.236575 
L 841.254961 354.805761 
L 845.117443 332.650416 
L 848.979926 366.849065 
L 852.842409 415.005895 
L 856.704892 420.926121 
L 860.567374 412.824815 
L 864.429857 309.065121 
L 868.29234 373.630894 
L 872.154822 399.874612 
L 876.017305 375.813855 
L 879.879788 465.452529 
L 883.74227 340.094342 
L 887.604753 425.67992 
L 891.467236 381.950836 
L 895.329719 360.26281 
L 899.192201 462.539061 
L 903.054684 412.714076 
L 906.917167 358.858232 
L 910.779649 450.594575 
L 914.642132 393.369508 
L 918.504615 417.30906 
L 922.367097 398.500054 
L 926.22958 373.156007 
L 930.092063 383.947648 
L 933.954545 391.640741 
L 933.954545 391.640741 
" clip-path="url(#pd6bd117497)" style="fill: none; stroke: #000000; stroke-width: 1.5; stroke-linecap: square"/>
   </g>
   <g id="line2d_76">
    <path d="M 207.807799 418.718704 
L 211.670281 416.260978 
L 215.532764 415.83644 
L 219.395247 415.165978 
L 223.25773 421.19592 
L 227.120212 423.131228 
L 230.982695 427.428938 
L 234.845178 424.574408 
L 238.70766 425.13521 
L 242.570143 421.925874 
L 246.432626 415.417171 
L 250.295108 418.532557 
L 254.157591 421.405366 
L 258.020074 419.652678 
L 261.882557 415.852816 
L 265.745039 418.16024 
L 269.607522 411.390149 
L 273.470005 418.701901 
L 277.332487 421.954873 
L 281.19497 427.858877 
L 285.057453 425.716101 
L 288.919935 424.824237 
L 292.782418 419.522664 
L 296.644901 419.084404 
L 300.507383 415.684609 
L 304.369866 413.417961 
L 308.232349 416.298946 
L 312.094832 410.457417 
L 315.957314 399.814229 
L 319.819797 398.855462 
L 323.68228 397.466577 
L 327.544762 391.089394 
L 331.407245 390.713115 
L 335.269728 394.252719 
L 339.13221 394.978116 
L 342.994693 389.665198 
L 346.857176 384.888278 
L 350.719659 383.691454 
L 354.582141 390.535098 
L 358.444624 376.752544 
L 362.307107 376.030948 
L 366.169589 372.734186 
L 370.032072 367.190706 
L 373.894555 364.747622 
L 377.757037 365.147413 
L 381.61952 362.022649 
L 385.482003 372.101406 
L 389.344485 369.308679 
L 393.206968 367.862354 
L 397.069451 375.357708 
L 400.931934 373.833442 
L 404.794416 370.929597 
L 408.656899 376.110564 
L 412.519382 374.791607 
L 416.381864 370.782413 
L 420.244347 373.109202 
L 424.10683 374.547523 
L 427.969312 370.918934 
L 435.694278 376.675276 
L 439.55676 384.914877 
L 443.419243 392.772615 
L 447.281726 396.118971 
L 451.144209 397.882431 
L 455.006691 405.061943 
L 458.869174 411.349275 
L 462.731657 408.320806 
L 466.594139 419.394956 
L 470.456622 410.558365 
L 474.319105 411.753477 
L 478.181587 412.192937 
L 482.04407 413.939483 
L 485.906553 409.119167 
L 489.769036 410.47409 
L 493.631518 401.659433 
L 497.494001 396.024505 
L 501.356484 391.270947 
L 505.218966 387.392007 
L 509.081449 395.932271 
L 512.943932 391.420119 
L 516.806414 394.257517 
L 520.668897 399.058982 
L 524.53138 403.051622 
L 528.393862 406.561539 
L 532.256345 410.603937 
L 536.118828 409.868258 
L 539.981311 415.924293 
L 543.843793 416.304739 
L 547.706276 406.430494 
L 551.568759 405.88139 
L 555.431241 406.455392 
L 563.156207 398.129064 
L 567.018689 389.966284 
L 570.881172 392.876033 
L 574.743655 402.216297 
L 578.606138 390.554739 
L 582.46862 393.217357 
L 586.331103 396.519991 
L 590.193586 391.007045 
L 594.056068 377.075098 
L 597.918551 375.29987 
L 601.781034 376.039601 
L 605.643516 377.930932 
L 609.505999 382.323236 
L 613.368482 376.319789 
L 617.230964 380.478086 
L 621.093447 379.694901 
L 624.95593 381.1455 
L 628.818413 388.756501 
L 632.680895 391.177999 
L 636.543378 397.221662 
L 640.405861 397.879703 
L 644.268343 400.576166 
L 648.130826 396.55288 
L 651.993309 391.920113 
L 655.855791 393.405173 
L 659.718274 394.512741 
L 663.580757 398.454567 
L 667.44324 404.633153 
L 671.305722 402.827291 
L 675.168205 395.673239 
L 679.030688 404.577269 
L 682.89317 396.410544 
L 686.755653 389.933088 
L 690.618136 398.078938 
L 694.480618 402.761577 
L 698.343101 402.133968 
L 702.205584 393.503392 
L 706.068066 388.428736 
L 709.930549 394.469085 
L 713.793032 389.445514 
L 717.655515 384.993001 
L 721.517997 394.403226 
L 725.38048 399.552579 
L 729.242963 396.626519 
L 733.105445 395.992596 
L 736.967928 400.032778 
L 740.830411 406.309921 
L 744.692893 407.023571 
L 748.555376 413.144886 
L 752.417859 423.381938 
L 756.280341 420.132312 
L 760.142824 416.533999 
L 764.005307 410.321686 
L 767.86779 407.02551 
L 771.730272 397.162366 
L 775.592755 394.420183 
L 779.455238 398.8367 
L 783.31772 400.003632 
L 787.180203 384.82788 
L 791.042686 372.872454 
L 794.905168 373.373388 
L 798.767651 380.249981 
L 802.630134 391.778314 
L 806.492617 399.703972 
L 810.355099 403.536999 
L 814.217582 400.530888 
L 818.080065 395.039412 
L 821.942547 399.529686 
L 825.80503 406.968089 
L 829.667513 414.092666 
L 833.529995 411.516741 
L 837.392478 405.952389 
L 841.254961 396.546066 
L 845.117443 384.24856 
L 848.979926 383.583753 
L 856.704892 388.673287 
L 860.567374 383.523696 
L 864.429857 376.972714 
L 868.29234 376.423245 
L 872.154822 378.986927 
L 876.017305 376.144655 
L 879.879788 387.209332 
L 883.74227 387.953725 
L 887.604753 393.83681 
L 891.467236 390.531305 
L 895.329719 384.464974 
L 899.192201 389.436398 
L 903.054684 399.801294 
L 906.917167 398.324027 
L 910.779649 403.396024 
L 914.642132 405.151589 
L 918.504615 400.337242 
L 922.367097 406.177813 
L 926.22958 400.925422 
L 930.092063 401.125103 
L 933.954545 404.262896 
L 933.954545 404.262896 
" clip-path="url(#pd6bd117497)" style="fill: none; stroke: #ff0000; stroke-width: 1.5; stroke-linecap: square"/>
   </g>
   <g id="patch_9">
    <path d="M 135 480.6 
L 135 291.6 
" style="fill: none; stroke: #000000; stroke-width: 0.8; stroke-linejoin: miter; stroke-linecap: square"/>
   </g>
   <g id="patch_10">
    <path d="M 972 480.6 
L 972 291.6 
" style="fill: none; stroke: #000000; stroke-width: 0.8; stroke-linejoin: miter; stroke-linecap: square"/>
   </g>
   <g id="patch_11">
    <path d="M 135 480.6 
L 972 480.6 
" style="fill: none; stroke: #000000; stroke-width: 0.8; stroke-linejoin: miter; stroke-linecap: square"/>
   </g>
   <g id="patch_12">
    <path d="M 135 291.6 
L 972 291.6 
" style="fill: none; stroke: #000000; stroke-width: 0.8; stroke-linejoin: miter; stroke-linecap: square"/>
   </g>
   <g id="legend_2">
    <g id="patch_13">
     <path d="M 142 328.95625 
L 259.09375 328.95625 
Q 261.09375 328.95625 261.09375 326.95625 
L 261.09375 298.6 
Q 261.09375 296.6 259.09375 296.6 
L 142 296.6 
Q 140 296.6 140 298.6 
L 140 326.95625 
Q 140 328.95625 142 328.95625 
z
" style="fill: #ffffff; opacity: 0.8; stroke: #cccccc; stroke-linejoin: miter"/>
    </g>
    <g id="line2d_77">
     <path d="M 144 304.698438 
L 154 304.698438 
L 164 304.698438 
" style="fill: none; stroke: #000000; stroke-width: 1.5; stroke-linecap: square"/>
    </g>
    <g id="text_43">
     <!-- Original -->
     <g transform="translate(172 308.198438)scale(0.1 -0.1)">
      <use xlink:href="#DejaVuSans-4f"/>
      <use xlink:href="#DejaVuSans-72" x="78.710938"/>
      <use xlink:href="#DejaVuSans-69" x="119.824219"/>
      <use xlink:href="#DejaVuSans-67" x="147.607422"/>
      <use xlink:href="#DejaVuSans-69" x="211.083984"/>
      <use xlink:href="#DejaVuSans-6e" x="238.867188"/>
      <use xlink:href="#DejaVuSans-61" x="302.246094"/>
      <use xlink:href="#DejaVuSans-6c" x="363.525391"/>
     </g>
    </g>
    <g id="line2d_78">
     <path d="M 144 319.376562 
L 154 319.376562 
L 164 319.376562 
" style="fill: none; stroke: #ff0000; stroke-width: 1.5; stroke-linecap: square"/>
    </g>
    <g id="text_44">
     <!-- Running average -->
     <g transform="translate(172 322.876562)scale(0.1 -0.1)">
      <use xlink:href="#DejaVuSans-52"/>
      <use xlink:href="#DejaVuSans-75" x="64.982422"/>
      <use xlink:href="#DejaVuSans-6e" x="128.361328"/>
      <use xlink:href="#DejaVuSans-6e" x="191.740234"/>
      <use xlink:href="#DejaVuSans-69" x="255.119141"/>
      <use xlink:href="#DejaVuSans-6e" x="282.902344"/>
      <use xlink:href="#DejaVuSans-67" x="346.28125"/>
      <use xlink:href="#DejaVuSans-20" x="409.757812"/>
      <use xlink:href="#DejaVuSans-61" x="441.544922"/>
      <use xlink:href="#DejaVuSans-76" x="502.824219"/>
      <use xlink:href="#DejaVuSans-65" x="562.003906"/>
      <use xlink:href="#DejaVuSans-72" x="623.527344"/>
      <use xlink:href="#DejaVuSans-61" x="664.640625"/>
      <use xlink:href="#DejaVuSans-67" x="725.919922"/>
      <use xlink:href="#DejaVuSans-65" x="789.396484"/>
     </g>
    </g>
   </g>
  </g>
  <g id="text_45">
   <!-- Waiting Time -->
   <g transform="translate(500.888438 19.918125)scale(0.12 -0.12)">
    <use xlink:href="#DejaVuSans-57"/>
    <use xlink:href="#DejaVuSans-61" x="92.501953"/>
    <use xlink:href="#DejaVuSans-69" x="153.78125"/>
    <use xlink:href="#DejaVuSans-74" x="181.564453"/>
    <use xlink:href="#DejaVuSans-69" x="220.773438"/>
    <use xlink:href="#DejaVuSans-6e" x="248.556641"/>
    <use xlink:href="#DejaVuSans-67" x="311.935547"/>
    <use xlink:href="#DejaVuSans-20" x="375.412109"/>
    <use xlink:href="#DejaVuSans-54" x="407.199219"/>
    <use xlink:href="#DejaVuSans-69" x="465.158203"/>
    <use xlink:href="#DejaVuSans-6d" x="492.941406"/>
    <use xlink:href="#DejaVuSans-65" x="590.353516"/>
   </g>
  </g>
 </g>
 <defs>
  <clipPath id="p3ee08e7772">
   <rect x="135" y="64.8" width="837" height="189"/>
  </clipPath>
  <clipPath id="pd6bd117497">
   <rect x="135" y="291.6" width="837" height="189"/>
  </clipPath>
 </defs>
</svg>
