<?xml version="1.0" encoding="utf-8" standalone="no"?>
<!DOCTYPE svg PUBLIC "-//W3C//DTD SVG 1.1//EN"
  "http://www.w3.org/Graphics/SVG/1.1/DTD/svg11.dtd">
<svg xmlns:xlink="http://www.w3.org/1999/xlink" width="460.8pt" height="345.6pt" viewBox="0 0 460.8 345.6" xmlns="http://www.w3.org/2000/svg" version="1.1">
 <metadata>
  <rdf:RDF xmlns:dc="http://purl.org/dc/elements/1.1/" xmlns:cc="http://creativecommons.org/ns#" xmlns:rdf="http://www.w3.org/1999/02/22-rdf-syntax-ns#">
   <cc:Work>
    <dc:type rdf:resource="http://purl.org/dc/dcmitype/StillImage"/>
    <dc:date>2022-09-12T15:35:52.285436</dc:date>
    <dc:format>image/svg+xml</dc:format>
    <dc:creator>
     <cc:Agent>
      <dc:title>Matplotlib v3.5.2, https://matplotlib.org/</dc:title>
     </cc:Agent>
    </dc:creator>
   </cc:Work>
  </rdf:RDF>
 </metadata>
 <defs>
  <style type="text/css">*{stroke-linejoin: round; stroke-linecap: butt}</style>
 </defs>
 <g id="figure_1">
  <g id="patch_1">
   <path d="M 0 345.6 
L 460.8 345.6 
L 460.8 0 
L 0 0 
z
" style="fill: #ffffff"/>
  </g>
  <g id="axes_1">
   <g id="patch_2">
    <path d="M 57.6 307.584 
L 414.72 307.584 
L 414.72 41.472 
L 57.6 41.472 
z
" style="fill: #ffffff"/>
   </g>
   <g id="matplotlib.axis_1">
    <g id="xtick_1">
     <g id="line2d_1">
      <defs>
       <path id="m8521d9d639" d="M 0 0 
L 0 3.5 
" style="stroke: #000000; stroke-width: 0.8"/>
      </defs>
      <g>
       <use xlink:href="#m8521d9d639" x="73.832727" y="307.584" style="stroke: #000000; stroke-width: 0.8"/>
      </g>
     </g>
     <g id="text_1">
      <!-- 0 -->
      <g transform="translate(70.651477 322.182437)scale(0.1 -0.1)">
       <defs>
        <path id="DejaVuSans-30" d="M 2034 4250 
Q 1547 4250 1301 3770 
Q 1056 3291 1056 2328 
Q 1056 1369 1301 889 
Q 1547 409 2034 409 
Q 2525 409 2770 889 
Q 3016 1369 3016 2328 
Q 3016 3291 2770 3770 
Q 2525 4250 2034 4250 
z
M 2034 4750 
Q 2819 4750 3233 4129 
Q 3647 3509 3647 2328 
Q 3647 1150 3233 529 
Q 2819 -91 2034 -91 
Q 1250 -91 836 529 
Q 422 1150 422 2328 
Q 422 3509 836 4129 
Q 1250 4750 2034 4750 
z
" transform="scale(0.015625)"/>
       </defs>
       <use xlink:href="#DejaVuSans-30"/>
      </g>
     </g>
    </g>
    <g id="xtick_2">
     <g id="line2d_2">
      <g>
       <use xlink:href="#m8521d9d639" x="138.959015" y="307.584" style="stroke: #000000; stroke-width: 0.8"/>
      </g>
     </g>
     <g id="text_2">
      <!-- 200 -->
      <g transform="translate(129.415265 322.182437)scale(0.1 -0.1)">
       <defs>
        <path id="DejaVuSans-32" d="M 1228 531 
L 3431 531 
L 3431 0 
L 469 0 
L 469 531 
Q 828 903 1448 1529 
Q 2069 2156 2228 2338 
Q 2531 2678 2651 2914 
Q 2772 3150 2772 3378 
Q 2772 3750 2511 3984 
Q 2250 4219 1831 4219 
Q 1534 4219 1204 4116 
Q 875 4013 500 3803 
L 500 4441 
Q 881 4594 1212 4672 
Q 1544 4750 1819 4750 
Q 2544 4750 2975 4387 
Q 3406 4025 3406 3419 
Q 3406 3131 3298 2873 
Q 3191 2616 2906 2266 
Q 2828 2175 2409 1742 
Q 1991 1309 1228 531 
z
" transform="scale(0.015625)"/>
       </defs>
       <use xlink:href="#DejaVuSans-32"/>
       <use xlink:href="#DejaVuSans-30" x="63.623047"/>
       <use xlink:href="#DejaVuSans-30" x="127.246094"/>
      </g>
     </g>
    </g>
    <g id="xtick_3">
     <g id="line2d_3">
      <g>
       <use xlink:href="#m8521d9d639" x="204.085303" y="307.584" style="stroke: #000000; stroke-width: 0.8"/>
      </g>
     </g>
     <g id="text_3">
      <!-- 400 -->
      <g transform="translate(194.541553 322.182437)scale(0.1 -0.1)">
       <defs>
        <path id="DejaVuSans-34" d="M 2419 4116 
L 825 1625 
L 2419 1625 
L 2419 4116 
z
M 2253 4666 
L 3047 4666 
L 3047 1625 
L 3713 1625 
L 3713 1100 
L 3047 1100 
L 3047 0 
L 2419 0 
L 2419 1100 
L 313 1100 
L 313 1709 
L 2253 4666 
z
" transform="scale(0.015625)"/>
       </defs>
       <use xlink:href="#DejaVuSans-34"/>
       <use xlink:href="#DejaVuSans-30" x="63.623047"/>
       <use xlink:href="#DejaVuSans-30" x="127.246094"/>
      </g>
     </g>
    </g>
    <g id="xtick_4">
     <g id="line2d_4">
      <g>
       <use xlink:href="#m8521d9d639" x="269.211591" y="307.584" style="stroke: #000000; stroke-width: 0.8"/>
      </g>
     </g>
     <g id="text_4">
      <!-- 600 -->
      <g transform="translate(259.667841 322.182437)scale(0.1 -0.1)">
       <defs>
        <path id="DejaVuSans-36" d="M 2113 2584 
Q 1688 2584 1439 2293 
Q 1191 2003 1191 1497 
Q 1191 994 1439 701 
Q 1688 409 2113 409 
Q 2538 409 2786 701 
Q 3034 994 3034 1497 
Q 3034 2003 2786 2293 
Q 2538 2584 2113 2584 
z
M 3366 4563 
L 3366 3988 
Q 3128 4100 2886 4159 
Q 2644 4219 2406 4219 
Q 1781 4219 1451 3797 
Q 1122 3375 1075 2522 
Q 1259 2794 1537 2939 
Q 1816 3084 2150 3084 
Q 2853 3084 3261 2657 
Q 3669 2231 3669 1497 
Q 3669 778 3244 343 
Q 2819 -91 2113 -91 
Q 1303 -91 875 529 
Q 447 1150 447 2328 
Q 447 3434 972 4092 
Q 1497 4750 2381 4750 
Q 2619 4750 2861 4703 
Q 3103 4656 3366 4563 
z
" transform="scale(0.015625)"/>
       </defs>
       <use xlink:href="#DejaVuSans-36"/>
       <use xlink:href="#DejaVuSans-30" x="63.623047"/>
       <use xlink:href="#DejaVuSans-30" x="127.246094"/>
      </g>
     </g>
    </g>
    <g id="xtick_5">
     <g id="line2d_5">
      <g>
       <use xlink:href="#m8521d9d639" x="334.337879" y="307.584" style="stroke: #000000; stroke-width: 0.8"/>
      </g>
     </g>
     <g id="text_5">
      <!-- 800 -->
      <g transform="translate(324.794129 322.182437)scale(0.1 -0.1)">
       <defs>
        <path id="DejaVuSans-38" d="M 2034 2216 
Q 1584 2216 1326 1975 
Q 1069 1734 1069 1313 
Q 1069 891 1326 650 
Q 1584 409 2034 409 
Q 2484 409 2743 651 
Q 3003 894 3003 1313 
Q 3003 1734 2745 1975 
Q 2488 2216 2034 2216 
z
M 1403 2484 
Q 997 2584 770 2862 
Q 544 3141 544 3541 
Q 544 4100 942 4425 
Q 1341 4750 2034 4750 
Q 2731 4750 3128 4425 
Q 3525 4100 3525 3541 
Q 3525 3141 3298 2862 
Q 3072 2584 2669 2484 
Q 3125 2378 3379 2068 
Q 3634 1759 3634 1313 
Q 3634 634 3220 271 
Q 2806 -91 2034 -91 
Q 1263 -91 848 271 
Q 434 634 434 1313 
Q 434 1759 690 2068 
Q 947 2378 1403 2484 
z
M 1172 3481 
Q 1172 3119 1398 2916 
Q 1625 2713 2034 2713 
Q 2441 2713 2670 2916 
Q 2900 3119 2900 3481 
Q 2900 3844 2670 4047 
Q 2441 4250 2034 4250 
Q 1625 4250 1398 4047 
Q 1172 3844 1172 3481 
z
" transform="scale(0.015625)"/>
       </defs>
       <use xlink:href="#DejaVuSans-38"/>
       <use xlink:href="#DejaVuSans-30" x="63.623047"/>
       <use xlink:href="#DejaVuSans-30" x="127.246094"/>
      </g>
     </g>
    </g>
    <g id="xtick_6">
     <g id="line2d_6">
      <g>
       <use xlink:href="#m8521d9d639" x="399.464167" y="307.584" style="stroke: #000000; stroke-width: 0.8"/>
      </g>
     </g>
     <g id="text_6">
      <!-- 1000 -->
      <g transform="translate(386.739167 322.182437)scale(0.1 -0.1)">
       <defs>
        <path id="DejaVuSans-31" d="M 794 531 
L 1825 531 
L 1825 4091 
L 703 3866 
L 703 4441 
L 1819 4666 
L 2450 4666 
L 2450 531 
L 3481 531 
L 3481 0 
L 794 0 
L 794 531 
z
" transform="scale(0.015625)"/>
       </defs>
       <use xlink:href="#DejaVuSans-31"/>
       <use xlink:href="#DejaVuSans-30" x="63.623047"/>
       <use xlink:href="#DejaVuSans-30" x="127.246094"/>
       <use xlink:href="#DejaVuSans-30" x="190.869141"/>
      </g>
     </g>
    </g>
    <g id="text_7">
     <!-- Order Index -->
     <g transform="translate(206.594375 335.860562)scale(0.1 -0.1)">
      <defs>
       <path id="DejaVuSans-4f" d="M 2522 4238 
Q 1834 4238 1429 3725 
Q 1025 3213 1025 2328 
Q 1025 1447 1429 934 
Q 1834 422 2522 422 
Q 3209 422 3611 934 
Q 4013 1447 4013 2328 
Q 4013 3213 3611 3725 
Q 3209 4238 2522 4238 
z
M 2522 4750 
Q 3503 4750 4090 4092 
Q 4678 3434 4678 2328 
Q 4678 1225 4090 567 
Q 3503 -91 2522 -91 
Q 1538 -91 948 565 
Q 359 1222 359 2328 
Q 359 3434 948 4092 
Q 1538 4750 2522 4750 
z
" transform="scale(0.015625)"/>
       <path id="DejaVuSans-72" d="M 2631 2963 
Q 2534 3019 2420 3045 
Q 2306 3072 2169 3072 
Q 1681 3072 1420 2755 
Q 1159 2438 1159 1844 
L 1159 0 
L 581 0 
L 581 3500 
L 1159 3500 
L 1159 2956 
Q 1341 3275 1631 3429 
Q 1922 3584 2338 3584 
Q 2397 3584 2469 3576 
Q 2541 3569 2628 3553 
L 2631 2963 
z
" transform="scale(0.015625)"/>
       <path id="DejaVuSans-64" d="M 2906 2969 
L 2906 4863 
L 3481 4863 
L 3481 0 
L 2906 0 
L 2906 525 
Q 2725 213 2448 61 
Q 2172 -91 1784 -91 
Q 1150 -91 751 415 
Q 353 922 353 1747 
Q 353 2572 751 3078 
Q 1150 3584 1784 3584 
Q 2172 3584 2448 3432 
Q 2725 3281 2906 2969 
z
M 947 1747 
Q 947 1113 1208 752 
Q 1469 391 1925 391 
Q 2381 391 2643 752 
Q 2906 1113 2906 1747 
Q 2906 2381 2643 2742 
Q 2381 3103 1925 3103 
Q 1469 3103 1208 2742 
Q 947 2381 947 1747 
z
" transform="scale(0.015625)"/>
       <path id="DejaVuSans-65" d="M 3597 1894 
L 3597 1613 
L 953 1613 
Q 991 1019 1311 708 
Q 1631 397 2203 397 
Q 2534 397 2845 478 
Q 3156 559 3463 722 
L 3463 178 
Q 3153 47 2828 -22 
Q 2503 -91 2169 -91 
Q 1331 -91 842 396 
Q 353 884 353 1716 
Q 353 2575 817 3079 
Q 1281 3584 2069 3584 
Q 2775 3584 3186 3129 
Q 3597 2675 3597 1894 
z
M 3022 2063 
Q 3016 2534 2758 2815 
Q 2500 3097 2075 3097 
Q 1594 3097 1305 2825 
Q 1016 2553 972 2059 
L 3022 2063 
z
" transform="scale(0.015625)"/>
       <path id="DejaVuSans-20" transform="scale(0.015625)"/>
       <path id="DejaVuSans-49" d="M 628 4666 
L 1259 4666 
L 1259 0 
L 628 0 
L 628 4666 
z
" transform="scale(0.015625)"/>
       <path id="DejaVuSans-6e" d="M 3513 2113 
L 3513 0 
L 2938 0 
L 2938 2094 
Q 2938 2591 2744 2837 
Q 2550 3084 2163 3084 
Q 1697 3084 1428 2787 
Q 1159 2491 1159 1978 
L 1159 0 
L 581 0 
L 581 3500 
L 1159 3500 
L 1159 2956 
Q 1366 3272 1645 3428 
Q 1925 3584 2291 3584 
Q 2894 3584 3203 3211 
Q 3513 2838 3513 2113 
z
" transform="scale(0.015625)"/>
       <path id="DejaVuSans-78" d="M 3513 3500 
L 2247 1797 
L 3578 0 
L 2900 0 
L 1881 1375 
L 863 0 
L 184 0 
L 1544 1831 
L 300 3500 
L 978 3500 
L 1906 2253 
L 2834 3500 
L 3513 3500 
z
" transform="scale(0.015625)"/>
      </defs>
      <use xlink:href="#DejaVuSans-4f"/>
      <use xlink:href="#DejaVuSans-72" x="78.710938"/>
      <use xlink:href="#DejaVuSans-64" x="118.074219"/>
      <use xlink:href="#DejaVuSans-65" x="181.550781"/>
      <use xlink:href="#DejaVuSans-72" x="243.074219"/>
      <use xlink:href="#DejaVuSans-20" x="284.1875"/>
      <use xlink:href="#DejaVuSans-49" x="315.974609"/>
      <use xlink:href="#DejaVuSans-6e" x="345.466797"/>
      <use xlink:href="#DejaVuSans-64" x="408.845703"/>
      <use xlink:href="#DejaVuSans-65" x="472.322266"/>
      <use xlink:href="#DejaVuSans-78" x="532.095703"/>
     </g>
    </g>
   </g>
   <g id="matplotlib.axis_2">
    <g id="ytick_1">
     <g id="line2d_7">
      <defs>
       <path id="m40ec4ed0e2" d="M 0 0 
L -3.5 0 
" style="stroke: #000000; stroke-width: 0.8"/>
      </defs>
      <g>
       <use xlink:href="#m40ec4ed0e2" x="57.6" y="295.488" style="stroke: #000000; stroke-width: 0.8"/>
      </g>
     </g>
     <g id="text_8">
      <!-- 0 -->
      <g transform="translate(44.2375 299.287219)scale(0.1 -0.1)">
       <use xlink:href="#DejaVuSans-30"/>
      </g>
     </g>
    </g>
    <g id="ytick_2">
     <g id="line2d_8">
      <g>
       <use xlink:href="#m40ec4ed0e2" x="57.6" y="253.360118" style="stroke: #000000; stroke-width: 0.8"/>
      </g>
     </g>
     <g id="text_9">
      <!-- 100 -->
      <g transform="translate(31.5125 257.159336)scale(0.1 -0.1)">
       <use xlink:href="#DejaVuSans-31"/>
       <use xlink:href="#DejaVuSans-30" x="63.623047"/>
       <use xlink:href="#DejaVuSans-30" x="127.246094"/>
      </g>
     </g>
    </g>
    <g id="ytick_3">
     <g id="line2d_9">
      <g>
       <use xlink:href="#m40ec4ed0e2" x="57.6" y="211.232235" style="stroke: #000000; stroke-width: 0.8"/>
      </g>
     </g>
     <g id="text_10">
      <!-- 200 -->
      <g transform="translate(31.5125 215.031454)scale(0.1 -0.1)">
       <use xlink:href="#DejaVuSans-32"/>
       <use xlink:href="#DejaVuSans-30" x="63.623047"/>
       <use xlink:href="#DejaVuSans-30" x="127.246094"/>
      </g>
     </g>
    </g>
    <g id="ytick_4">
     <g id="line2d_10">
      <g>
       <use xlink:href="#m40ec4ed0e2" x="57.6" y="169.104353" style="stroke: #000000; stroke-width: 0.8"/>
      </g>
     </g>
     <g id="text_11">
      <!-- 300 -->
      <g transform="translate(31.5125 172.903571)scale(0.1 -0.1)">
       <defs>
        <path id="DejaVuSans-33" d="M 2597 2516 
Q 3050 2419 3304 2112 
Q 3559 1806 3559 1356 
Q 3559 666 3084 287 
Q 2609 -91 1734 -91 
Q 1441 -91 1130 -33 
Q 819 25 488 141 
L 488 750 
Q 750 597 1062 519 
Q 1375 441 1716 441 
Q 2309 441 2620 675 
Q 2931 909 2931 1356 
Q 2931 1769 2642 2001 
Q 2353 2234 1838 2234 
L 1294 2234 
L 1294 2753 
L 1863 2753 
Q 2328 2753 2575 2939 
Q 2822 3125 2822 3475 
Q 2822 3834 2567 4026 
Q 2313 4219 1838 4219 
Q 1578 4219 1281 4162 
Q 984 4106 628 3988 
L 628 4550 
Q 988 4650 1302 4700 
Q 1616 4750 1894 4750 
Q 2613 4750 3031 4423 
Q 3450 4097 3450 3541 
Q 3450 3153 3228 2886 
Q 3006 2619 2597 2516 
z
" transform="scale(0.015625)"/>
       </defs>
       <use xlink:href="#DejaVuSans-33"/>
       <use xlink:href="#DejaVuSans-30" x="63.623047"/>
       <use xlink:href="#DejaVuSans-30" x="127.246094"/>
      </g>
     </g>
    </g>
    <g id="ytick_5">
     <g id="line2d_11">
      <g>
       <use xlink:href="#m40ec4ed0e2" x="57.6" y="126.97647" style="stroke: #000000; stroke-width: 0.8"/>
      </g>
     </g>
     <g id="text_12">
      <!-- 400 -->
      <g transform="translate(31.5125 130.775689)scale(0.1 -0.1)">
       <use xlink:href="#DejaVuSans-34"/>
       <use xlink:href="#DejaVuSans-30" x="63.623047"/>
       <use xlink:href="#DejaVuSans-30" x="127.246094"/>
      </g>
     </g>
    </g>
    <g id="ytick_6">
     <g id="line2d_12">
      <g>
       <use xlink:href="#m40ec4ed0e2" x="57.6" y="84.848588" style="stroke: #000000; stroke-width: 0.8"/>
      </g>
     </g>
     <g id="text_13">
      <!-- 500 -->
      <g transform="translate(31.5125 88.647806)scale(0.1 -0.1)">
       <defs>
        <path id="DejaVuSans-35" d="M 691 4666 
L 3169 4666 
L 3169 4134 
L 1269 4134 
L 1269 2991 
Q 1406 3038 1543 3061 
Q 1681 3084 1819 3084 
Q 2600 3084 3056 2656 
Q 3513 2228 3513 1497 
Q 3513 744 3044 326 
Q 2575 -91 1722 -91 
Q 1428 -91 1123 -41 
Q 819 9 494 109 
L 494 744 
Q 775 591 1075 516 
Q 1375 441 1709 441 
Q 2250 441 2565 725 
Q 2881 1009 2881 1497 
Q 2881 1984 2565 2268 
Q 2250 2553 1709 2553 
Q 1456 2553 1204 2497 
Q 953 2441 691 2322 
L 691 4666 
z
" transform="scale(0.015625)"/>
       </defs>
       <use xlink:href="#DejaVuSans-35"/>
       <use xlink:href="#DejaVuSans-30" x="63.623047"/>
       <use xlink:href="#DejaVuSans-30" x="127.246094"/>
      </g>
     </g>
    </g>
    <g id="ytick_7">
     <g id="line2d_13">
      <g>
       <use xlink:href="#m40ec4ed0e2" x="57.6" y="42.720705" style="stroke: #000000; stroke-width: 0.8"/>
      </g>
     </g>
     <g id="text_14">
      <!-- 600 -->
      <g transform="translate(31.5125 46.519924)scale(0.1 -0.1)">
       <use xlink:href="#DejaVuSans-36"/>
       <use xlink:href="#DejaVuSans-30" x="63.623047"/>
       <use xlink:href="#DejaVuSans-30" x="127.246094"/>
      </g>
     </g>
    </g>
    <g id="text_15">
     <!-- Order Delivered Time -->
     <g transform="translate(25.432812 228.08425)rotate(-90)scale(0.1 -0.1)">
      <defs>
       <path id="DejaVuSans-44" d="M 1259 4147 
L 1259 519 
L 2022 519 
Q 2988 519 3436 956 
Q 3884 1394 3884 2338 
Q 3884 3275 3436 3711 
Q 2988 4147 2022 4147 
L 1259 4147 
z
M 628 4666 
L 1925 4666 
Q 3281 4666 3915 4102 
Q 4550 3538 4550 2338 
Q 4550 1131 3912 565 
Q 3275 0 1925 0 
L 628 0 
L 628 4666 
z
" transform="scale(0.015625)"/>
       <path id="DejaVuSans-6c" d="M 603 4863 
L 1178 4863 
L 1178 0 
L 603 0 
L 603 4863 
z
" transform="scale(0.015625)"/>
       <path id="DejaVuSans-69" d="M 603 3500 
L 1178 3500 
L 1178 0 
L 603 0 
L 603 3500 
z
M 603 4863 
L 1178 4863 
L 1178 4134 
L 603 4134 
L 603 4863 
z
" transform="scale(0.015625)"/>
       <path id="DejaVuSans-76" d="M 191 3500 
L 800 3500 
L 1894 563 
L 2988 3500 
L 3597 3500 
L 2284 0 
L 1503 0 
L 191 3500 
z
" transform="scale(0.015625)"/>
       <path id="DejaVuSans-54" d="M -19 4666 
L 3928 4666 
L 3928 4134 
L 2272 4134 
L 2272 0 
L 1638 0 
L 1638 4134 
L -19 4134 
L -19 4666 
z
" transform="scale(0.015625)"/>
       <path id="DejaVuSans-6d" d="M 3328 2828 
Q 3544 3216 3844 3400 
Q 4144 3584 4550 3584 
Q 5097 3584 5394 3201 
Q 5691 2819 5691 2113 
L 5691 0 
L 5113 0 
L 5113 2094 
Q 5113 2597 4934 2840 
Q 4756 3084 4391 3084 
Q 3944 3084 3684 2787 
Q 3425 2491 3425 1978 
L 3425 0 
L 2847 0 
L 2847 2094 
Q 2847 2600 2669 2842 
Q 2491 3084 2119 3084 
Q 1678 3084 1418 2786 
Q 1159 2488 1159 1978 
L 1159 0 
L 581 0 
L 581 3500 
L 1159 3500 
L 1159 2956 
Q 1356 3278 1631 3431 
Q 1906 3584 2284 3584 
Q 2666 3584 2933 3390 
Q 3200 3197 3328 2828 
z
" transform="scale(0.015625)"/>
      </defs>
      <use xlink:href="#DejaVuSans-4f"/>
      <use xlink:href="#DejaVuSans-72" x="78.710938"/>
      <use xlink:href="#DejaVuSans-64" x="118.074219"/>
      <use xlink:href="#DejaVuSans-65" x="181.550781"/>
      <use xlink:href="#DejaVuSans-72" x="243.074219"/>
      <use xlink:href="#DejaVuSans-20" x="284.1875"/>
      <use xlink:href="#DejaVuSans-44" x="315.974609"/>
      <use xlink:href="#DejaVuSans-65" x="392.976562"/>
      <use xlink:href="#DejaVuSans-6c" x="454.5"/>
      <use xlink:href="#DejaVuSans-69" x="482.283203"/>
      <use xlink:href="#DejaVuSans-76" x="510.066406"/>
      <use xlink:href="#DejaVuSans-65" x="569.246094"/>
      <use xlink:href="#DejaVuSans-72" x="630.769531"/>
      <use xlink:href="#DejaVuSans-65" x="669.632812"/>
      <use xlink:href="#DejaVuSans-64" x="731.15625"/>
      <use xlink:href="#DejaVuSans-20" x="794.632812"/>
      <use xlink:href="#DejaVuSans-54" x="826.419922"/>
      <use xlink:href="#DejaVuSans-69" x="884.378906"/>
      <use xlink:href="#DejaVuSans-6d" x="912.162109"/>
      <use xlink:href="#DejaVuSans-65" x="1009.574219"/>
     </g>
    </g>
   </g>
   <g id="line2d_14">
    <path d="M 73.832727 295.488 
L 74.48399 295.488 
L 74.809622 294.645442 
L 75.135253 294.645442 
L 75.460884 294.224164 
L 75.786516 294.224164 
L 76.112147 293.802885 
L 76.437779 293.802885 
L 76.76341 293.381606 
L 77.089042 293.381606 
L 77.414673 292.960327 
L 78.065936 292.960327 
L 78.391567 292.539048 
L 79.04283 292.539048 
L 79.368462 292.117769 
L 79.694093 292.117769 
L 80.345356 291.275212 
L 80.670988 291.275212 
L 80.996619 290.432654 
L 81.32225 290.011375 
L 81.647882 290.011375 
L 81.973513 289.590096 
L 82.950408 289.590096 
L 83.276039 289.168818 
L 83.60167 289.168818 
L 83.927302 288.747539 
L 84.578565 288.747539 
L 84.904196 288.32626 
L 86.206722 288.32626 
L 86.532353 287.483702 
L 87.183616 286.641145 
L 87.509248 286.641145 
L 88.160511 285.798587 
L 88.486142 285.798587 
L 88.811774 284.534751 
L 89.788668 284.534751 
L 90.114299 284.113472 
L 91.091194 284.113472 
L 91.742456 283.270914 
L 92.393719 283.270914 
L 92.719351 282.849635 
L 93.370614 282.849635 
L 93.696245 282.428356 
L 94.347508 282.428356 
L 94.998771 281.585799 
L 95.324402 281.585799 
L 95.975665 280.743241 
L 96.626928 280.743241 
L 97.278191 279.900683 
L 97.929454 279.900683 
L 98.255085 279.479405 
L 98.906348 279.479405 
L 99.23198 279.058126 
L 99.557611 279.058126 
L 99.883242 278.215568 
L 100.534505 278.215568 
L 100.860137 277.794289 
L 101.185768 277.794289 
L 101.5114 276.951732 
L 101.837031 276.951732 
L 102.488294 276.109174 
L 102.813925 276.109174 
L 103.139557 275.687895 
L 103.465188 275.687895 
L 103.79082 275.266616 
L 104.442083 275.266616 
L 104.767714 274.845338 
L 105.418977 274.845338 
L 106.07024 274.00278 
L 106.721503 274.00278 
L 107.047134 273.581501 
L 108.34966 273.581501 
L 108.675291 273.160222 
L 109.000923 272.317665 
L 109.652186 272.317665 
L 110.303449 271.475107 
L 111.280343 271.475107 
L 111.605974 271.053828 
L 111.931606 270.211271 
L 112.9085 270.211271 
L 113.234131 269.789992 
L 113.559763 269.789992 
L 114.211026 268.947434 
L 115.18792 268.947434 
L 115.513552 268.526155 
L 115.839183 268.526155 
L 116.164814 268.104876 
L 116.490446 267.262319 
L 117.792972 267.262319 
L 118.118603 266.84104 
L 118.769866 266.84104 
L 119.095497 266.419761 
L 119.74676 266.419761 
L 121.374917 264.313367 
L 121.700549 264.313367 
L 122.02618 263.470809 
L 122.351812 263.470809 
L 122.677443 263.049531 
L 123.979969 263.049531 
L 124.3056 262.628252 
L 124.956863 262.628252 
L 125.282495 262.206973 
L 126.259389 262.206973 
L 126.585021 261.785694 
L 127.236283 261.785694 
L 127.561915 260.943136 
L 128.213178 260.943136 
L 128.538809 260.521858 
L 129.841335 260.521858 
L 130.492598 259.6793 
L 131.143861 259.6793 
L 131.469492 259.258021 
L 132.446386 259.258021 
L 132.772018 258.836742 
L 133.748912 258.836742 
L 134.074544 258.415463 
L 135.377069 258.415463 
L 135.702701 257.994185 
L 136.353964 257.994185 
L 137.330858 256.730348 
L 137.656489 256.730348 
L 137.982121 256.309069 
L 138.307752 256.309069 
L 138.633384 255.88779 
L 139.610278 255.88779 
L 140.587172 254.623954 
L 141.564067 254.623954 
L 141.889698 253.781396 
L 142.540961 253.781396 
L 143.517855 252.51756 
L 143.843487 252.51756 
L 144.49475 251.675002 
L 144.820381 251.675002 
L 145.146013 250.832445 
L 145.471644 250.411166 
L 145.797275 250.411166 
L 146.122907 249.989887 
L 147.099801 249.989887 
L 147.425433 249.568608 
L 147.751064 249.568608 
L 148.402327 248.72605 
L 149.379221 248.72605 
L 150.030484 247.883493 
L 151.33301 247.883493 
L 151.658641 247.462214 
L 151.984273 247.462214 
L 152.309904 247.040935 
L 153.286799 247.040935 
L 153.938061 246.198378 
L 154.589324 246.198378 
L 155.240587 245.35582 
L 156.543113 245.35582 
L 156.868744 244.934541 
L 157.520007 244.934541 
L 157.845639 244.513262 
L 158.496902 244.513262 
L 159.148164 243.670705 
L 160.125059 243.670705 
L 160.45069 243.249426 
L 160.776322 243.249426 
L 161.101953 242.406868 
L 161.753216 241.56431 
L 162.73011 241.56431 
L 163.381373 240.721753 
L 164.032636 240.721753 
L 164.358268 240.300474 
L 165.00953 240.300474 
L 166.312056 238.615359 
L 167.28895 238.615359 
L 167.940213 237.772801 
L 169.242739 237.772801 
L 169.568371 237.351522 
L 169.894002 237.351522 
L 170.219633 236.930243 
L 170.545265 236.930243 
L 170.870896 236.508965 
L 171.847791 236.508965 
L 172.824685 235.245128 
L 173.150316 235.245128 
L 173.801579 234.40257 
L 174.127211 234.40257 
L 174.452842 233.560013 
L 175.104105 232.717455 
L 176.080999 232.717455 
L 176.406631 232.296176 
L 177.383525 232.296176 
L 177.709157 231.874897 
L 178.034788 231.874897 
L 178.360419 230.611061 
L 179.011682 230.611061 
L 179.337314 229.768503 
L 179.662945 229.768503 
L 179.988577 229.347225 
L 180.63984 229.347225 
L 180.965471 228.925946 
L 181.291102 228.925946 
L 181.616734 228.504667 
L 182.267997 228.504667 
L 182.593628 228.083388 
L 183.244891 228.083388 
L 183.570522 227.24083 
L 183.896154 227.24083 
L 184.547417 226.398273 
L 185.524311 226.398273 
L 185.849943 225.976994 
L 186.501205 225.976994 
L 187.803731 224.291879 
L 188.780626 224.291879 
L 189.106257 223.8706 
L 189.431888 223.8706 
L 190.083151 223.028042 
L 190.408783 223.028042 
L 191.060046 221.342927 
L 191.385677 220.921648 
L 191.711308 220.921648 
L 192.362571 220.07909 
L 192.688203 220.07909 
L 193.013834 219.657812 
L 193.665097 219.657812 
L 193.990729 219.236533 
L 194.31636 219.236533 
L 194.641991 218.393975 
L 195.293254 218.393975 
L 195.618886 217.972696 
L 196.59578 217.972696 
L 197.572674 216.70886 
L 198.8752 216.70886 
L 199.200832 216.287581 
L 199.526463 216.287581 
L 200.177726 215.445023 
L 200.503357 215.445023 
L 200.828989 215.023745 
L 201.480252 215.023745 
L 201.805883 214.181187 
L 202.131515 213.759908 
L 202.457146 213.759908 
L 202.782777 213.338629 
L 203.43404 213.338629 
L 203.759672 212.91735 
L 204.085303 212.91735 
L 204.410935 212.496072 
L 204.736566 212.496072 
L 205.062198 211.653514 
L 205.387829 211.653514 
L 205.71346 211.232235 
L 206.364723 211.232235 
L 207.015986 210.389677 
L 207.667249 210.389677 
L 207.99288 209.968399 
L 208.644143 209.968399 
L 208.969775 209.54712 
L 209.621038 209.54712 
L 209.946669 209.125841 
L 210.923563 209.125841 
L 211.574826 208.283283 
L 212.226089 208.283283 
L 212.551721 207.862004 
L 212.877352 207.862004 
L 213.202983 207.019447 
L 213.854246 207.019447 
L 214.505509 206.176889 
L 214.831141 206.176889 
L 215.156772 205.334332 
L 215.808035 205.334332 
L 216.133666 204.913053 
L 217.110561 204.913053 
L 217.436192 204.491774 
L 218.413087 204.491774 
L 218.738718 204.070495 
L 219.389981 204.070495 
L 219.715612 203.227937 
L 220.041244 202.806659 
L 220.692507 202.806659 
L 221.018138 202.38538 
L 221.343769 201.542822 
L 221.669401 201.542822 
L 221.995032 201.121543 
L 222.320664 201.121543 
L 222.646295 200.700264 
L 222.971927 200.700264 
L 224.274452 199.015149 
L 224.600084 199.015149 
L 224.925715 198.59387 
L 225.576978 198.59387 
L 225.90261 197.330034 
L 227.205135 197.330034 
L 227.530767 196.908755 
L 227.856398 196.908755 
L 228.18203 196.487476 
L 228.833293 196.487476 
L 229.158924 195.644919 
L 229.484555 195.22364 
L 229.810187 195.22364 
L 230.135818 194.802361 
L 230.46145 193.959803 
L 230.787081 193.959803 
L 231.763976 192.695967 
L 232.089607 192.695967 
L 232.415238 192.274688 
L 233.392133 192.274688 
L 233.717764 191.853409 
L 234.369027 191.853409 
L 234.694659 191.43213 
L 235.345921 191.43213 
L 235.671553 191.010852 
L 236.648447 191.010852 
L 236.974079 190.589573 
L 237.29971 190.589573 
L 237.625341 190.168294 
L 237.950973 190.168294 
L 238.276604 189.747015 
L 238.602236 189.747015 
L 238.927867 189.325736 
L 239.57913 189.325736 
L 240.230393 188.483179 
L 240.556024 188.483179 
L 241.532919 187.219342 
L 242.184182 187.219342 
L 242.509813 186.798063 
L 242.835445 186.798063 
L 243.161076 186.376784 
L 243.486707 185.534227 
L 243.812339 185.534227 
L 244.13797 185.112948 
L 244.789233 185.112948 
L 245.440496 184.27039 
L 246.091759 184.27039 
L 246.41739 183.849111 
L 247.394285 183.849111 
L 247.719916 183.427833 
L 248.371179 183.427833 
L 248.69681 183.006554 
L 249.348073 183.006554 
L 249.673705 182.163996 
L 250.324968 182.163996 
L 250.650599 181.321439 
L 251.627493 181.321439 
L 251.953125 180.90016 
L 252.930019 180.90016 
L 253.255651 180.478881 
L 253.581282 179.636323 
L 254.232545 179.636323 
L 254.558176 179.215044 
L 255.860702 179.215044 
L 256.186334 178.372487 
L 256.837596 178.372487 
L 257.488859 177.529929 
L 258.140122 177.529929 
L 258.465754 177.10865 
L 259.442648 177.10865 
L 260.093911 176.266093 
L 260.745174 176.266093 
L 261.070805 175.844814 
L 261.722068 175.844814 
L 262.047699 175.423535 
L 263.024594 175.423535 
L 263.350225 175.002256 
L 264.652751 175.002256 
L 264.978382 174.580977 
L 265.304014 174.580977 
L 265.955277 173.73842 
L 266.60654 173.73842 
L 266.932171 173.317141 
L 267.257802 173.317141 
L 267.909065 172.474583 
L 268.234697 172.474583 
L 268.560328 171.632026 
L 268.88596 171.632026 
L 269.211591 171.210747 
L 269.862854 171.210747 
L 270.188485 170.789468 
L 270.514117 170.789468 
L 270.839748 169.94691 
L 271.16538 169.94691 
L 272.142274 168.683074 
L 273.770431 168.683074 
L 274.096063 168.261795 
L 274.747326 168.261795 
L 275.072957 167.840516 
L 275.398588 167.840516 
L 275.72422 167.419237 
L 276.701114 167.419237 
L 277.026746 166.997959 
L 278.00364 166.997959 
L 278.654903 166.155401 
L 278.980534 166.155401 
L 279.306166 165.734122 
L 279.957429 165.734122 
L 280.934323 164.470286 
L 281.585586 164.470286 
L 281.911217 164.049007 
L 282.236849 164.049007 
L 282.56248 163.627728 
L 282.888112 163.627728 
L 283.213743 162.78517 
L 283.539374 162.363891 
L 284.190637 162.363891 
L 284.516269 161.942613 
L 285.167532 161.942613 
L 285.493163 161.521334 
L 286.470057 161.521334 
L 286.795689 161.100055 
L 287.12132 161.100055 
L 288.098215 159.836218 
L 289.40074 159.836218 
L 289.726372 159.41494 
L 290.377635 159.41494 
L 290.703266 158.572382 
L 292.005792 158.572382 
L 292.331423 158.151103 
L 292.657055 158.151103 
L 292.982686 157.729824 
L 293.633949 157.729824 
L 293.959581 157.308546 
L 294.285212 157.308546 
L 294.610843 156.887267 
L 294.936475 156.887267 
L 295.262106 156.465988 
L 295.913369 156.465988 
L 296.239001 156.044709 
L 296.890264 156.044709 
L 297.867158 154.780873 
L 298.192789 154.780873 
L 298.518421 154.359594 
L 299.495315 154.359594 
L 299.820946 153.938315 
L 300.146578 153.938315 
L 300.472209 153.517036 
L 301.449104 153.517036 
L 301.774735 153.095757 
L 302.100367 153.095757 
L 302.751629 152.2532 
L 303.077261 152.2532 
L 303.728524 151.410642 
L 305.03105 151.410642 
L 305.682312 150.568084 
L 306.007944 150.568084 
L 306.659207 149.725527 
L 307.31047 149.725527 
L 307.636101 149.304248 
L 308.287364 149.304248 
L 308.938627 148.46169 
L 309.264258 148.46169 
L 309.58989 148.040411 
L 309.915521 148.040411 
L 310.241153 147.619133 
L 310.566784 147.619133 
L 310.892415 147.197854 
L 311.86931 147.197854 
L 312.194941 146.776575 
L 312.520573 146.776575 
L 312.846204 146.355296 
L 313.823098 146.355296 
L 314.14873 145.934017 
L 315.776887 145.934017 
L 316.102518 145.512738 
L 316.42815 145.512738 
L 317.079413 144.670181 
L 317.405044 144.670181 
L 317.730676 144.248902 
L 318.70757 144.248902 
L 319.033201 143.827623 
L 320.335727 143.827623 
L 320.661359 142.985066 
L 320.98699 142.563787 
L 321.312622 142.563787 
L 321.638253 142.142508 
L 322.615147 142.142508 
L 322.940779 141.29995 
L 323.26641 140.878671 
L 323.592042 140.878671 
L 323.917673 139.614835 
L 324.243304 139.193556 
L 324.568936 139.193556 
L 324.894567 138.350998 
L 325.220199 138.350998 
L 325.54583 137.508441 
L 325.871462 137.508441 
L 326.197093 137.087162 
L 326.522725 136.244604 
L 327.173987 136.244604 
L 327.499619 135.823325 
L 328.150882 135.823325 
L 328.476513 135.402047 
L 328.802145 135.402047 
L 329.453407 134.559489 
L 329.779039 134.559489 
L 330.430302 133.716931 
L 331.407196 133.716931 
L 331.732828 133.295653 
L 332.38409 133.295653 
L 332.709722 132.031816 
L 333.360985 131.189258 
L 333.686616 131.189258 
L 335.314773 129.082864 
L 335.640405 129.082864 
L 336.291668 128.240307 
L 336.942931 128.240307 
L 337.268562 127.819028 
L 337.594193 127.819028 
L 338.571088 126.555191 
L 339.547982 126.555191 
L 339.873614 126.133913 
L 340.524876 126.133913 
L 341.176139 125.291355 
L 341.501771 125.291355 
L 341.827402 124.870076 
L 342.153034 124.870076 
L 342.478665 124.027518 
L 343.455559 124.027518 
L 343.781191 123.60624 
L 344.106822 123.60624 
L 344.432454 123.184961 
L 346.060611 123.184961 
L 346.386242 122.763682 
L 346.711874 122.763682 
L 347.037505 122.342403 
L 347.688768 122.342403 
L 348.0144 121.921124 
L 348.340031 121.921124 
L 348.665662 121.499845 
L 348.991294 121.499845 
L 349.316925 120.657288 
L 349.642557 120.657288 
L 349.968188 120.236009 
L 350.619451 120.236009 
L 351.270714 119.393451 
L 351.921977 119.393451 
L 352.247608 118.129615 
L 352.898871 117.287057 
L 353.224503 117.287057 
L 353.550134 116.865778 
L 354.201397 116.865778 
L 354.527028 116.4445 
L 355.178291 116.4445 
L 355.829554 115.601942 
L 356.480817 115.601942 
L 357.783343 113.916827 
L 359.085869 113.916827 
L 359.4115 113.495548 
L 360.388394 113.495548 
L 360.714026 113.074269 
L 361.039657 113.074269 
L 361.365289 112.65299 
L 362.993446 112.65299 
L 363.319077 112.231711 
L 363.644709 112.231711 
L 364.295972 111.389154 
L 365.272866 111.389154 
L 365.598497 110.967875 
L 366.24976 110.967875 
L 366.575392 110.125317 
L 366.901023 110.125317 
L 367.226655 109.704038 
L 367.877917 109.704038 
L 368.203549 109.28276 
L 369.506075 109.28276 
L 369.831706 108.861481 
L 370.482969 108.861481 
L 370.8086 108.018923 
L 371.785495 106.755087 
L 372.436758 106.755087 
L 372.762389 106.333808 
L 373.413652 106.333808 
L 373.739283 105.912529 
L 374.390546 105.912529 
L 374.716178 105.49125 
L 375.041809 105.49125 
L 375.367441 105.069971 
L 375.693072 104.227414 
L 376.018703 103.806135 
L 376.344335 102.963577 
L 376.995598 102.963577 
L 377.321229 102.542298 
L 377.972492 102.542298 
L 378.298123 102.12102 
L 378.623755 102.12102 
L 378.949386 101.699741 
L 379.275018 101.699741 
L 379.600649 101.278462 
L 379.926281 101.278462 
L 380.251912 100.857183 
L 380.903175 100.857183 
L 381.554438 100.014625 
L 382.531332 100.014625 
L 382.856964 99.593347 
L 383.508226 99.593347 
L 383.833858 99.172068 
L 384.159489 99.172068 
L 384.485121 98.32951 
L 384.810752 98.32951 
L 385.136384 97.486952 
L 385.462015 97.065674 
L 385.787647 97.065674 
L 386.438909 96.223116 
L 386.764541 96.223116 
L 387.090172 94.538001 
L 388.067067 94.538001 
L 388.392698 94.116722 
L 389.043961 94.116722 
L 389.369592 93.695443 
L 389.695224 93.695443 
L 390.020855 92.852885 
L 390.99775 92.852885 
L 391.649012 92.010328 
L 391.974644 90.746491 
L 392.300275 90.746491 
L 392.625907 89.903934 
L 392.951538 89.903934 
L 393.602801 89.061376 
L 394.254064 89.061376 
L 394.579695 87.797539 
L 395.230958 86.954982 
L 396.533484 86.954982 
L 396.859116 86.112424 
L 397.510378 86.112424 
L 397.83601 85.269867 
L 398.487273 85.269867 
L 398.487273 85.269867 
" clip-path="url(#pefcdc62736)" style="fill: none; stroke: #32cd32; stroke-linecap: square"/>
   </g>
   <g id="line2d_15">
    <path d="M 73.832727 273.834037 
L 74.158359 273.439821 
L 74.48399 283.438806 
L 74.809622 280.017343 
L 75.135253 286.219866 
L 75.460884 272.368986 
L 75.786516 280.931576 
L 76.112147 283.881348 
L 76.76341 274.348982 
L 77.089042 280.645696 
L 77.414673 269.777699 
L 77.740305 273.345152 
L 78.065936 270.484346 
L 78.391567 270.969417 
L 78.717199 257.77291 
L 79.04283 267.430051 
L 79.368462 266.413219 
L 79.694093 278.920768 
L 80.019725 250.467471 
L 80.345356 268.995659 
L 80.670988 274.215485 
L 80.996619 268.774018 
L 81.32225 268.456919 
L 81.647882 275.958542 
L 81.973513 257.405666 
L 82.299145 266.493647 
L 82.624776 267.310544 
L 82.950408 262.577297 
L 83.276039 273.29729 
L 83.60167 280.321962 
L 83.927302 273.074449 
L 84.252933 269.744715 
L 84.578565 274.324896 
L 84.904196 266.329443 
L 85.229828 262.126518 
L 85.555459 273.469655 
L 85.881091 265.555614 
L 86.206722 265.050932 
L 86.532353 265.945914 
L 86.857985 270.881357 
L 87.183616 259.243211 
L 87.509248 262.438689 
L 87.834879 270.59433 
L 88.160511 265.475448 
L 88.486142 263.04413 
L 89.137405 277.024012 
L 89.788668 268.273031 
L 90.114299 268.431067 
L 90.439931 274.815398 
L 90.765562 255.59086 
L 91.091194 272.064278 
L 91.416825 257.966729 
L 91.742456 267.995221 
L 92.068088 266.631953 
L 92.393719 268.015058 
L 92.719351 266.215426 
L 93.044982 262.485374 
L 93.370614 273.866052 
L 93.696245 262.648014 
L 94.021877 260.929827 
L 94.347508 265.17214 
L 94.673139 256.847733 
L 94.998771 258.045585 
L 95.324402 257.775611 
L 95.650034 253.149127 
L 95.975665 256.967655 
L 96.301297 253.958903 
L 96.626928 260.212531 
L 96.952559 251.697719 
L 97.278191 258.740762 
L 97.603822 257.432964 
L 97.929454 259.653791 
L 98.255085 269.536245 
L 98.580717 250.784686 
L 98.906348 269.869929 
L 99.23198 258.108211 
L 99.557611 257.572906 
L 99.883242 260.078687 
L 100.208874 250.14844 
L 100.534505 251.670614 
L 100.860137 266.708881 
L 101.5114 254.95441 
L 101.837031 255.182468 
L 102.162663 246.62636 
L 102.488294 255.534823 
L 102.813925 259.462214 
L 103.139557 251.552855 
L 103.465188 263.638701 
L 103.79082 252.091762 
L 104.116451 249.981842 
L 104.442083 250.85205 
L 104.767714 248.070788 
L 105.418977 265.547264 
L 106.07024 253.654317 
L 106.395871 250.507358 
L 106.721503 259.668221 
L 107.047134 253.713775 
L 107.372766 250.685553 
L 107.698397 242.787926 
L 108.024028 256.521774 
L 108.34966 247.301525 
L 108.675291 257.006187 
L 109.000923 248.284722 
L 109.326554 263.019591 
L 109.652186 250.954054 
L 109.977817 254.692832 
L 110.303449 256.481263 
L 110.62908 254.283992 
L 110.954711 256.530481 
L 111.605974 243.73298 
L 111.931606 251.746704 
L 112.257237 255.479557 
L 112.582869 254.846848 
L 112.9085 251.444742 
L 113.559763 238.460477 
L 113.885394 249.327217 
L 114.211026 253.012384 
L 114.536657 257.975075 
L 114.862289 235.862063 
L 115.18792 253.943366 
L 115.513552 251.221365 
L 115.839183 256.996042 
L 116.164814 260.266752 
L 116.490446 260.100579 
L 116.816077 241.523142 
L 117.141709 256.544856 
L 117.46734 242.295022 
L 117.792972 237.585894 
L 118.118603 252.223627 
L 118.444235 242.18681 
L 118.769866 241.661319 
L 119.095497 249.455807 
L 119.421129 242.34179 
L 119.74676 249.048786 
L 120.072392 237.15123 
L 120.398023 243.579882 
L 120.723655 240.543665 
L 121.049286 239.535002 
L 121.374917 247.241652 
L 121.700549 245.243974 
L 122.02618 244.934541 
L 122.351812 242.625141 
L 122.677443 252.846349 
L 123.654338 236.586907 
L 123.979969 251.376256 
L 124.3056 232.355677 
L 124.631232 240.721753 
L 124.956863 238.755961 
L 125.282495 226.02935 
L 125.608126 245.015858 
L 125.933758 229.243074 
L 126.259389 247.527469 
L 126.585021 248.109193 
L 126.910652 243.491518 
L 127.236283 246.998912 
L 127.561915 243.752022 
L 127.887546 232.153556 
L 128.213178 238.19595 
L 128.538809 237.483143 
L 128.864441 236.205636 
L 129.190072 232.62494 
L 129.515703 240.294092 
L 129.841335 239.842246 
L 130.166966 227.085149 
L 130.492598 244.808428 
L 130.818229 238.28329 
L 131.143861 245.452828 
L 131.469492 229.765032 
L 131.795124 244.802593 
L 132.120755 245.965433 
L 132.446386 233.300738 
L 132.772018 244.602449 
L 133.097649 229.233842 
L 133.423281 249.479675 
L 133.748912 234.619406 
L 134.074544 240.9367 
L 134.400175 228.018367 
L 134.725807 235.808974 
L 135.051438 238.608778 
L 135.377069 233.844646 
L 135.702701 238.50709 
L 136.028332 248.278544 
L 136.353964 250.411166 
L 136.679595 240.050348 
L 137.005227 248.948428 
L 137.330858 231.748479 
L 137.656489 223.72393 
L 137.982121 235.481739 
L 138.307752 238.186559 
L 138.633384 241.985589 
L 138.959015 235.220368 
L 139.284647 225.863029 
L 139.610278 239.554925 
L 139.93591 235.659826 
L 140.261541 222.44366 
L 140.587172 239.660853 
L 140.912804 224.466196 
L 141.238435 235.663411 
L 141.564067 218.448216 
L 141.889698 234.712003 
L 142.540961 241.199454 
L 143.192224 233.786201 
L 143.517855 237.869809 
L 143.843487 234.842135 
L 144.169118 240.156538 
L 144.49475 236.525329 
L 144.820381 238.157004 
L 145.146013 224.730219 
L 145.471644 234.366006 
L 145.797275 236.346866 
L 146.122907 227.157108 
L 146.448538 237.351522 
L 146.77417 233.069153 
L 147.099801 226.229558 
L 147.751064 231.21403 
L 148.076696 229.709706 
L 148.402327 224.469095 
L 148.727958 226.430084 
L 149.05359 222.624698 
L 149.379221 223.599706 
L 149.704853 232.434538 
L 150.030484 221.129325 
L 150.356116 230.956781 
L 150.681747 220.436748 
L 151.007378 232.800233 
L 151.33301 228.550881 
L 151.658641 231.817627 
L 151.984273 217.298378 
L 152.309904 233.092069 
L 152.635536 226.831518 
L 152.961167 227.634958 
L 153.286799 229.215364 
L 153.61243 213.059807 
L 153.938061 235.075878 
L 154.263693 224.660589 
L 154.589324 229.326772 
L 154.914956 236.479025 
L 155.240587 235.062301 
L 155.566219 223.964508 
L 155.89185 223.527364 
L 156.217482 224.688398 
L 156.543113 222.677127 
L 157.194376 232.296176 
L 157.520007 218.180079 
L 157.845639 221.711787 
L 158.17127 234.35243 
L 158.496902 227.93527 
L 158.822533 226.61521 
L 159.148164 228.150654 
L 159.473796 217.368513 
L 159.799427 223.969701 
L 160.125059 227.480824 
L 160.45069 225.776295 
L 160.776322 213.391975 
L 161.101953 216.109118 
L 161.427585 229.798672 
L 161.753216 220.62123 
L 162.078847 217.924652 
L 162.73011 219.566989 
L 163.055742 223.325175 
L 163.381373 216.214251 
L 163.707005 223.637268 
L 164.032636 221.424721 
L 164.358268 214.161813 
L 164.683899 216.098018 
L 165.00953 223.559429 
L 165.335162 217.130139 
L 165.660793 222.086915 
L 165.986425 222.239985 
L 166.312056 211.308706 
L 166.637688 223.095308 
L 166.963319 219.791928 
L 167.28895 218.82765 
L 167.614582 215.88849 
L 167.940213 219.478624 
L 168.265845 217.525909 
L 168.591476 218.346498 
L 168.917108 212.657579 
L 169.242739 211.959246 
L 169.568371 222.684662 
L 169.894002 215.714425 
L 170.219633 212.897301 
L 170.545265 218.717859 
L 170.870896 218.069705 
L 171.196528 216.467282 
L 171.522159 218.878241 
L 171.847791 208.644519 
L 172.173422 205.414549 
L 172.499054 216.72291 
L 172.824685 215.697522 
L 173.150316 216.658121 
L 173.475948 219.317362 
L 173.801579 218.167662 
L 174.127211 224.508719 
L 174.452842 216.189037 
L 174.778474 222.649104 
L 175.104105 224.87933 
L 175.429736 216.699706 
L 175.755368 223.249083 
L 176.080999 208.619508 
L 176.406631 205.772016 
L 176.732262 208.766323 
L 177.057894 220.698385 
L 177.383525 217.292108 
L 177.709157 218.381595 
L 178.034788 204.236343 
L 178.360419 219.149515 
L 178.686051 210.576034 
L 179.011682 209.577242 
L 179.337314 218.646349 
L 179.662945 206.247593 
L 179.988577 205.490493 
L 180.314208 213.459134 
L 180.63984 205.149731 
L 181.291102 212.644832 
L 181.616734 212.240951 
L 181.942365 211.031536 
L 182.267997 217.475444 
L 182.593628 206.22821 
L 182.91926 215.507166 
L 183.244891 204.98291 
L 183.570522 218.095624 
L 184.221785 205.165589 
L 184.547417 212.80669 
L 184.873048 203.037029 
L 185.19868 202.602365 
L 185.524311 211.653514 
L 185.849943 197.530197 
L 186.826837 213.10262 
L 187.152468 203.555613 
L 187.4781 211.299117 
L 187.803731 197.248518 
L 188.129363 199.597979 
L 188.454994 194.335977 
L 188.780626 207.019447 
L 189.106257 198.617289 
L 189.431888 205.848927 
L 189.75752 198.121172 
L 190.083151 203.920182 
L 190.408783 207.637176 
L 190.734414 191.387764 
L 191.060046 203.981992 
L 191.385677 202.921092 
L 191.711308 194.254219 
L 192.03694 207.520184 
L 192.362571 210.1605 
L 192.688203 203.355089 
L 193.013834 206.066229 
L 193.339466 204.089664 
L 193.665097 199.406944 
L 193.990729 199.304888 
L 194.31636 205.466913 
L 194.641991 189.235508 
L 194.967623 201.276569 
L 195.293254 196.756878 
L 195.618886 202.466209 
L 195.944517 197.067556 
L 196.270149 201.75812 
L 196.59578 192.015413 
L 196.921412 193.382515 
L 197.247043 202.194701 
L 197.572674 195.644919 
L 198.549569 203.441769 
L 198.8752 200.783042 
L 199.200832 205.631068 
L 199.526463 191.028473 
L 199.852094 185.054909 
L 200.503357 193.901405 
L 200.828989 195.57761 
L 201.15462 195.179008 
L 201.480252 196.241739 
L 201.805883 200.361348 
L 202.131515 190.048349 
L 202.457146 194.730464 
L 202.782777 202.482388 
L 203.108409 196.229444 
L 203.43404 195.156127 
L 203.759672 196.517798 
L 204.085303 190.153456 
L 204.410935 187.554656 
L 204.736566 196.570254 
L 205.062198 194.478091 
L 205.387829 186.626516 
L 205.71346 190.096251 
L 206.039092 203.125718 
L 206.364723 200.203012 
L 206.690355 187.656426 
L 207.015986 198.217903 
L 207.341618 176.158377 
L 207.99288 192.908672 
L 208.318512 196.546921 
L 208.644143 198.156412 
L 208.969775 187.081358 
L 209.621038 194.291264 
L 209.946669 185.082877 
L 210.272301 186.355195 
L 210.597932 193.491707 
L 210.923563 182.371673 
L 211.249195 178.676783 
L 211.574826 183.499781 
L 211.900458 192.874599 
L 212.226089 192.686397 
L 212.551721 187.721869 
L 212.877352 180.147917 
L 213.202983 188.110125 
L 213.528615 185.628135 
L 213.854246 177.482174 
L 214.179878 191.183556 
L 214.505509 180.783497 
L 214.831141 196.56535 
L 215.156772 192.695967 
L 215.482404 191.010852 
L 215.808035 190.589573 
L 216.133666 185.857587 
L 216.459298 169.300545 
L 217.110561 181.645458 
L 217.436192 182.494957 
L 217.761824 179.247839 
L 218.087455 185.209956 
L 218.413087 187.300659 
L 218.738718 179.503083 
L 219.064349 182.607389 
L 219.389981 177.426658 
L 219.715612 174.376184 
L 220.041244 169.321845 
L 220.366875 187.373822 
L 220.692507 184.799772 
L 221.018138 179.137622 
L 221.343769 176.205816 
L 221.669401 176.88173 
L 221.995032 178.2059 
L 222.320664 182.828079 
L 222.646295 182.668319 
L 222.971927 178.256501 
L 223.62319 191.654508 
L 223.948821 173.276339 
L 224.274452 176.18237 
L 224.600084 176.844857 
L 224.925715 181.869869 
L 225.251347 178.41724 
L 225.576978 187.361775 
L 225.90261 169.262906 
L 226.228241 178.372487 
L 226.553873 175.281855 
L 226.879504 177.485298 
L 227.205135 177.006894 
L 227.530767 172.454999 
L 227.856398 171.557279 
L 228.18203 175.225611 
L 228.507661 165.335529 
L 228.833293 176.673492 
L 229.158924 176.422415 
L 229.484555 164.434144 
L 229.810187 168.360904 
L 230.135818 184.084899 
L 230.46145 168.473267 
L 231.112713 177.449071 
L 231.438344 169.212988 
L 231.763976 176.049007 
L 232.089607 167.764078 
L 232.415238 181.958904 
L 232.74087 175.423535 
L 233.066501 172.239661 
L 233.392133 179.660541 
L 233.717764 182.137768 
L 234.043396 171.53027 
L 234.369027 180.052391 
L 234.694659 161.49325 
L 235.02029 173.049358 
L 235.345921 178.245922 
L 235.671553 174.545932 
L 235.997184 176.393439 
L 236.322816 167.584429 
L 236.648447 176.588209 
L 236.974079 180.796436 
L 237.29971 174.020234 
L 237.625341 183.427833 
L 237.950973 177.891329 
L 238.602236 154.206756 
L 238.927867 167.328415 
L 239.57913 179.032217 
L 239.904762 171.84473 
L 240.230393 174.115476 
L 240.556024 165.957076 
L 240.881656 178.763826 
L 241.207287 158.628829 
L 241.532919 172.720405 
L 241.85855 168.087464 
L 242.184182 176.421904 
L 242.509813 163.371641 
L 242.835445 165.1441 
L 243.161076 176.24276 
L 243.486707 169.74798 
L 243.812339 166.478761 
L 244.13797 160.181059 
L 244.463602 168.371903 
L 245.114865 173.569169 
L 245.440496 166.386939 
L 245.766127 168.396707 
L 246.091759 159.296859 
L 246.41739 170.737012 
L 246.743022 159.240343 
L 247.394285 174.865528 
L 247.719916 152.328286 
L 248.045548 169.478966 
L 248.371179 160.754603 
L 248.69681 172.474583 
L 249.022442 168.942255 
L 249.348073 174.539263 
L 249.999336 155.102701 
L 250.324968 148.759647 
L 250.650599 156.949734 
L 251.301862 168.557929 
L 251.627493 161.331775 
L 251.953125 159.544215 
L 252.278756 152.78938 
L 252.604388 163.948381 
L 252.930019 152.51148 
L 253.255651 157.261218 
L 253.581282 172.375133 
L 254.232545 161.665144 
L 254.558176 150.056578 
L 255.209439 155.012588 
L 255.535071 166.908365 
L 255.860702 167.419237 
L 256.186334 147.609939 
L 256.511965 157.455846 
L 256.837596 147.981357 
L 257.163228 160.067757 
L 257.488859 167.061632 
L 257.814491 169.878546 
L 258.140122 168.143791 
L 258.465754 162.774092 
L 258.791385 150.096167 
L 259.117017 158.123049 
L 259.442648 153.378253 
L 260.093911 165.015968 
L 260.419542 157.729824 
L 260.745174 169.004902 
L 261.070805 149.801863 
L 261.396437 149.472614 
L 261.722068 160.469126 
L 262.047699 161.521334 
L 262.373331 152.891958 
L 263.024594 159.497717 
L 263.350225 162.349864 
L 263.675857 150.107606 
L 264.001488 155.624407 
L 264.32712 153.80471 
L 264.652751 153.480056 
L 264.978382 156.506743 
L 265.304014 153.207339 
L 265.629645 147.813149 
L 265.955277 166.57668 
L 266.280908 148.233698 
L 266.60654 151.272658 
L 266.932171 159.64064 
L 267.257802 161.521334 
L 268.234697 146.458314 
L 268.560328 158.506876 
L 268.88596 156.455963 
L 269.211591 159.818696 
L 269.537223 156.465988 
L 269.862854 155.120075 
L 270.188485 155.950449 
L 270.514117 159.256842 
L 270.839748 154.27382 
L 271.16538 141.29995 
L 271.816643 149.173235 
L 272.142274 148.797667 
L 272.467906 159.385 
L 272.793537 138.541769 
L 273.119168 153.986107 
L 273.4448 146.26685 
L 273.770431 148.468075 
L 274.096063 141.651137 
L 274.421694 153.665797 
L 274.747326 150.199591 
L 275.072957 153.926622 
L 275.398588 143.197103 
L 275.72422 144.953476 
L 276.049851 149.343726 
L 276.375483 142.911735 
L 276.701114 148.712048 
L 277.026746 136.645942 
L 277.352377 146.725395 
L 277.678009 150.012848 
L 278.00364 149.769492 
L 278.329271 149.998688 
L 278.654903 157.273679 
L 278.980534 139.387924 
L 279.306166 155.18114 
L 279.631797 152.166985 
L 279.957429 146.598897 
L 280.28306 149.387026 
L 280.608692 136.576523 
L 280.934323 147.852575 
L 281.259954 144.758035 
L 281.585586 139.232092 
L 281.911217 136.932029 
L 282.236849 131.31209 
L 282.56248 142.119122 
L 282.888112 148.030842 
L 283.213743 140.635767 
L 283.539374 144.70143 
L 283.865006 145.059101 
L 284.190637 137.492074 
L 284.516269 134.463617 
L 284.8419 153.095757 
L 285.818795 128.193043 
L 286.144426 152.376127 
L 286.470057 140.596469 
L 286.795689 145.706249 
L 287.12132 146.106211 
L 287.446952 140.747131 
L 287.772583 150.871359 
L 288.423846 132.373864 
L 288.749478 136.581837 
L 289.075109 143.646338 
L 289.40074 138.695358 
L 289.726372 141.113355 
L 290.052003 135.558208 
L 290.377635 152.499979 
L 290.703266 131.407374 
L 291.028898 143.003061 
L 291.68016 144.116954 
L 292.005792 146.119287 
L 292.331423 144.620789 
L 292.657055 128.704069 
L 292.982686 126.452878 
L 293.308318 137.694797 
L 293.633949 129.439427 
L 293.959581 136.238587 
L 294.936475 139.046724 
L 295.262106 126.427939 
L 295.587738 129.691242 
L 295.913369 128.203229 
L 296.890264 144.232723 
L 297.215895 136.217453 
L 297.541526 140.453153 
L 297.867158 137.92972 
L 298.518421 127.483904 
L 298.844052 123.770566 
L 299.169684 122.843533 
L 299.495315 143.237094 
L 299.820946 129.299453 
L 300.146578 140.469794 
L 300.472209 141.530127 
L 300.797841 140.940814 
L 301.123472 128.690331 
L 301.449104 134.818467 
L 301.774735 129.335428 
L 302.425998 137.92972 
L 302.751629 140.021087 
L 303.077261 133.70967 
L 303.402892 131.724392 
L 303.728524 132.004665 
L 304.054155 124.910781 
L 304.379787 133.937511 
L 304.705418 124.730134 
L 305.03105 125.688186 
L 305.356681 136.902183 
L 305.682312 129.194446 
L 306.007944 128.418681 
L 306.659207 137.087162 
L 306.984838 127.563913 
L 307.31047 131.961818 
L 307.961732 131.74894 
L 308.612995 126.829117 
L 308.938627 141.2005 
L 309.264258 129.983668 
L 309.58989 129.790779 
L 309.915521 135.689434 
L 310.241153 136.496633 
L 310.566784 131.154213 
L 310.892415 114.099583 
L 311.218047 124.103715 
L 311.543678 128.205249 
L 311.86931 130.738661 
L 312.194941 138.350998 
L 312.520573 136.573394 
L 312.846204 119.204962 
L 313.171836 135.557858 
L 313.497467 120.312345 
L 313.823098 131.558041 
L 314.14873 123.179561 
L 314.474361 122.158431 
L 314.799993 125.906651 
L 315.125624 134.524503 
L 315.451256 123.05925 
L 315.776887 120.959269 
L 316.102518 121.736606 
L 316.42815 116.370504 
L 316.753781 129.885391 
L 317.079413 129.976637 
L 317.405044 119.35137 
L 317.730676 121.8879 
L 318.056307 120.488573 
L 318.381939 129.399474 
L 318.70757 114.12892 
L 319.033201 127.956095 
L 319.358833 126.443345 
L 319.684464 119.912338 
L 320.335727 113.554748 
L 320.661359 110.906465 
L 320.98699 129.869499 
L 321.312622 119.766193 
L 321.638253 126.499223 
L 321.963884 124.408089 
L 322.289516 131.485995 
L 322.615147 125.683315 
L 322.940779 122.776078 
L 323.26641 118.199979 
L 323.592042 124.244462 
L 323.917673 119.729428 
L 324.243304 131.189258 
L 324.568936 118.348785 
L 324.894567 112.9065 
L 325.220199 120.410322 
L 325.54583 113.192219 
L 325.871462 122.659012 
L 326.197093 123.034328 
L 326.522725 118.339739 
L 326.848356 107.369812 
L 327.499619 118.478221 
L 327.82525 113.640324 
L 328.150882 115.193059 
L 328.476513 121.067488 
L 328.802145 111.764256 
L 329.127776 116.166312 
L 329.453407 110.012998 
L 329.779039 123.354249 
L 330.10467 127.22325 
L 330.430302 112.875311 
L 330.755933 122.272671 
L 331.081565 117.599053 
L 331.407196 114.829794 
L 331.732828 107.122658 
L 332.058459 123.580012 
L 332.38409 122.439158 
L 332.709722 111.613313 
L 333.035353 120.218486 
L 333.686616 113.371402 
L 334.012248 112.792597 
L 334.337879 101.949686 
L 334.663511 111.166025 
L 334.989142 104.957652 
L 335.314773 110.3735 
L 335.640405 113.747921 
L 335.966036 114.238943 
L 336.291668 100.075471 
L 336.617299 114.38506 
L 336.942931 116.778761 
L 337.268562 110.473923 
L 337.594193 106.539998 
L 337.919825 106.184111 
L 338.245456 98.600457 
L 338.571088 94.148723 
L 339.222351 114.804531 
L 339.547982 110.703557 
L 339.873614 101.292748 
L 340.199245 110.345817 
L 340.524876 100.317265 
L 340.850508 113.717982 
L 341.176139 95.168886 
L 341.501771 102.75937 
L 341.827402 99.259267 
L 342.153034 107.810349 
L 342.478665 92.621742 
L 342.804297 113.151509 
L 343.129928 93.836161 
L 343.455559 106.755087 
L 343.781191 110.125317 
L 344.106822 107.425173 
L 344.432454 110.645671 
L 344.758085 111.308737 
L 345.083717 113.798822 
L 345.409348 96.646837 
L 345.734979 99.210723 
L 346.060611 106.125234 
L 346.386242 101.173505 
L 346.711874 116.023221 
L 347.037505 105.365616 
L 347.363137 112.732928 
L 347.688768 106.294342 
L 348.0144 106.675204 
L 348.340031 101.597985 
L 348.665662 98.458444 
L 348.991294 106.495778 
L 349.316925 98.460098 
L 349.642557 105.292865 
L 349.968188 99.519195 
L 350.29382 100.718072 
L 350.619451 104.009117 
L 350.945083 99.885918 
L 351.270714 93.976822 
L 351.596345 93.187656 
L 351.921977 100.103234 
L 352.247608 91.350123 
L 352.57324 99.174963 
L 352.898871 96.229135 
L 353.224503 103.695475 
L 353.550134 93.403 
L 353.875765 99.211142 
L 354.201397 96.320124 
L 354.527028 96.12136 
L 354.85266 106.728859 
L 355.178291 85.884147 
L 355.503923 84.219447 
L 356.155186 101.846191 
L 356.480817 92.403971 
L 356.806448 94.146844 
L 357.13208 104.041922 
L 357.457711 91.465292 
L 357.783343 95.68208 
L 358.108974 90.651969 
L 358.434606 89.684623 
L 358.760237 102.268842 
L 359.085869 99.494184 
L 359.4115 93.973187 
L 359.737131 98.49148 
L 360.062763 94.538001 
L 360.388394 87.179112 
L 360.714026 96.983597 
L 361.039657 96.565711 
L 361.69092 92.312585 
L 362.016551 81.549328 
L 362.342183 98.833152 
L 362.667814 97.583258 
L 362.993446 86.89738 
L 363.319077 99.495801 
L 363.644709 94.506838 
L 363.97034 85.310571 
L 364.621603 102.801315 
L 364.947234 89.332589 
L 365.598497 95.64278 
L 365.924129 80.701389 
L 366.24976 98.315483 
L 366.575392 92.423808 
L 366.901023 99.407855 
L 367.226655 93.397793 
L 367.552286 90.718437 
L 367.877917 86.339975 
L 368.203549 91.733011 
L 368.52918 81.149189 
L 368.854812 87.133356 
L 369.180443 95.505677 
L 369.506075 85.144927 
L 369.831706 82.589021 
L 370.157337 88.194059 
L 370.482969 97.001241 
L 371.134232 82.065191 
L 371.459863 80.938651 
L 371.785495 89.053577 
L 372.111126 83.144494 
L 372.436758 81.05141 
L 372.762389 84.752178 
L 373.08802 85.263849 
L 373.413652 93.105139 
L 373.739283 82.907078 
L 374.064915 85.417201 
L 374.390546 89.447609 
L 374.716178 90.40799 
L 375.041809 89.926833 
L 375.367441 89.144154 
L 375.693072 91.050309 
L 376.018703 84.036732 
L 376.344335 79.683017 
L 376.669966 81.124034 
L 376.995598 83.175868 
L 377.321229 67.995233 
L 377.646861 92.226514 
L 377.972492 75.557792 
L 378.298123 73.705599 
L 378.623755 76.697386 
L 378.949386 81.225339 
L 379.600649 91.980388 
L 379.926281 85.91404 
L 380.251912 82.386461 
L 380.577544 82.828123 
L 380.903175 84.524317 
L 381.228806 79.228225 
L 381.554438 87.432683 
L 381.880069 82.013023 
L 382.205701 83.087913 
L 382.531332 79.841467 
L 382.856964 71.352902 
L 383.182595 70.636216 
L 383.508226 76.720533 
L 383.833858 73.571068 
L 384.159489 65.40903 
L 384.485121 77.01173 
L 384.810752 82.98054 
L 385.136384 83.968954 
L 385.462015 76.092284 
L 385.787647 75.114594 
L 386.113278 73.743681 
L 386.764541 79.439585 
L 387.090172 77.5763 
L 387.415804 68.567166 
L 387.741435 63.977243 
L 388.067067 84.644149 
L 388.71833 63.207488 
L 389.043961 68.553816 
L 389.369592 70.393968 
L 389.695224 84.550236 
L 390.020855 71.222087 
L 390.346487 78.200964 
L 390.672118 79.560298 
L 390.99775 73.04817 
L 391.323381 78.517712 
L 391.649012 78.237962 
L 391.974644 83.831531 
L 392.300275 67.948897 
L 392.625907 64.104755 
L 392.951538 75.404996 
L 393.27717 76.13297 
L 393.602801 78.263938 
L 393.928433 61.945351 
L 394.254064 55.904538 
L 394.579695 74.46688 
L 394.905327 72.13034 
L 395.230958 62.209967 
L 395.55659 75.832482 
L 396.207853 55.73877 
L 396.859116 67.325174 
L 397.184747 59.519057 
L 397.510378 70.624477 
L 397.83601 71.114445 
L 398.161641 56.773638 
L 398.487273 66.560502 
L 398.487273 66.560502 
" clip-path="url(#pefcdc62736)" style="fill: none; stroke-dasharray: 3.7,1.6; stroke-dashoffset: 0; stroke: #4169e1"/>
   </g>
   <g id="line2d_16">
    <path d="M 73.832727 273.834037 
L 74.158359 273.439821 
L 74.48399 283.438806 
L 74.809622 280.017343 
L 75.135253 286.219866 
L 75.460884 272.368986 
L 75.786516 280.931576 
L 76.112147 283.881348 
L 76.76341 274.348982 
L 77.089042 280.645696 
L 77.414673 269.777699 
L 77.740305 273.345152 
L 78.065936 270.484346 
L 78.391567 270.969417 
L 78.717199 257.77291 
L 79.04283 267.430051 
L 79.368462 266.413219 
L 79.694093 278.920768 
L 80.019725 250.467471 
L 80.345356 270.941982 
L 80.670988 270.928032 
L 80.996619 270.731651 
L 81.32225 276.834271 
L 81.647882 274.000908 
L 82.299145 258.501745 
L 82.624776 267.310544 
L 82.950408 263.316242 
L 83.276039 275.254923 
L 83.60167 272.330061 
L 83.927302 273.074449 
L 84.252933 272.441293 
L 84.578565 272.367263 
L 85.229828 261.387573 
L 85.555459 279.900683 
L 85.881091 262.268161 
L 86.206722 265.050932 
L 86.532353 265.945914 
L 86.857985 270.881357 
L 87.183616 267.620563 
L 87.509248 260.481055 
L 87.834879 267.897752 
L 88.160511 262.778869 
L 88.486142 263.04413 
L 88.811774 264.154856 
L 89.137405 277.024012 
L 89.463036 275.946912 
L 89.788668 264.57853 
L 90.114299 271.71852 
L 90.439931 271.120897 
L 90.765562 263.582762 
L 91.091194 268.776825 
L 91.416825 257.966729 
L 91.742456 259.61787 
L 92.068088 268.589586 
L 92.393719 268.015058 
L 92.719351 270.688821 
L 93.044982 270.862726 
L 93.370614 265.87415 
L 94.347508 256.794788 
L 94.673139 256.847733 
L 94.998771 262.518981 
L 95.324402 266.152962 
L 95.650034 259.580155 
L 95.975665 256.967655 
L 96.301297 247.924635 
L 96.952559 260.07507 
L 97.278191 256.044184 
L 97.929454 259.653791 
L 98.255085 269.536245 
L 98.580717 252.742319 
L 98.906348 269.869929 
L 99.557611 253.878405 
L 99.883242 263.36614 
L 100.208874 243.717412 
L 100.534505 251.670614 
L 100.860137 266.708881 
L 101.185768 261.567397 
L 101.5114 251.259909 
L 102.162663 254.618262 
L 102.488294 247.542921 
L 102.813925 259.462214 
L 103.139557 253.510489 
L 103.465188 261.681068 
L 104.116451 249.981842 
L 104.442083 248.894416 
L 104.767714 242.775465 
L 105.418977 265.547264 
L 106.07024 253.654317 
L 106.395871 252.464991 
L 106.721503 255.97372 
L 107.047134 255.671408 
L 107.372766 257.116581 
L 107.698397 242.787926 
L 108.024028 256.521774 
L 108.34966 247.301525 
L 108.675291 257.006187 
L 109.000923 244.997269 
L 109.326554 260.323013 
L 109.652186 252.911688 
L 109.977817 250.219437 
L 110.303449 256.481263 
L 110.62908 245.906641 
L 110.954711 260.224982 
L 111.280343 252.364024 
L 111.605974 248.415831 
L 111.931606 251.746704 
L 112.257237 258.76701 
L 112.9085 251.444742 
L 113.234131 245.439288 
L 113.559763 244.891506 
L 114.536657 257.975075 
L 114.862289 234.30119 
L 115.18792 251.985733 
L 115.513552 244.790337 
L 115.839183 248.61869 
L 116.164814 260.266752 
L 116.490446 253.66955 
L 116.816077 241.523142 
L 117.141709 256.544856 
L 117.792972 237.585894 
L 118.118603 243.846276 
L 118.444235 242.925755 
L 118.769866 245.35582 
L 119.095497 252.74326 
L 119.421129 240.384157 
L 119.74676 251.006419 
L 120.072392 243.582259 
L 120.398023 243.579882 
L 120.723655 240.929115 
L 121.049286 242.822455 
L 121.374917 250.529105 
L 121.700549 237.252072 
L 122.02618 244.934541 
L 122.351812 234.24779 
L 122.677443 249.151848 
L 123.003075 253.440055 
L 123.328706 241.050829 
L 123.654338 244.578809 
L 123.979969 253.33389 
L 124.3056 238.786706 
L 124.631232 240.721753 
L 124.956863 238.755961 
L 125.282495 234.406701 
L 125.608126 245.015858 
L 125.933758 231.200708 
L 126.259389 250.814922 
L 126.585021 244.82174 
L 126.910652 243.491518 
L 127.236283 246.998912 
L 127.561915 243.752022 
L 127.887546 232.153556 
L 128.213178 243.491274 
L 128.538809 240.179721 
L 128.864441 234.248003 
L 129.190072 240.616841 
L 129.841335 239.842246 
L 130.166966 233.516177 
L 130.492598 246.766061 
L 130.818229 241.97779 
L 131.143861 249.147329 
L 131.469492 233.459533 
L 131.795124 244.802593 
L 132.120755 245.965433 
L 132.446386 233.300738 
L 132.772018 244.602449 
L 133.097649 237.611193 
L 133.423281 249.479675 
L 133.748912 230.924905 
L 134.074544 244.631201 
L 134.400175 228.018367 
L 134.725807 237.766607 
L 135.051438 235.321325 
L 135.377069 233.844646 
L 135.702701 238.50709 
L 136.028332 248.278544 
L 136.353964 248.453532 
L 136.679595 248.427699 
L 137.005227 248.948428 
L 137.330858 231.748479 
L 137.656489 228.40678 
L 137.982121 235.481739 
L 138.307752 230.194658 
L 138.633384 235.554561 
L 138.959015 235.220368 
L 139.284647 225.863029 
L 139.610278 236.858347 
L 139.93591 235.659826 
L 140.261541 230.435562 
L 140.587172 235.966352 
L 140.912804 222.508563 
L 141.238435 236.99323 
L 141.564067 224.879244 
L 141.889698 231.42455 
L 142.540961 238.502876 
L 142.866593 239.457916 
L 143.192224 227.355172 
L 143.517855 233.186959 
L 143.843487 243.219486 
L 144.169118 237.45996 
L 144.49475 235.934455 
L 144.820381 229.779653 
L 145.146013 229.41307 
L 145.471644 234.366006 
L 145.797275 236.346866 
L 146.122907 235.534459 
L 146.448538 237.351522 
L 146.77417 235.026786 
L 147.099801 222.942105 
L 147.425433 235.234049 
L 147.751064 232.211952 
L 148.076696 232.406284 
L 148.402327 216.091743 
L 148.727958 230.124585 
L 149.05359 222.624698 
L 149.379221 223.599706 
L 149.704853 232.434538 
L 150.030484 219.183002 
L 150.356116 228.260203 
L 150.681747 220.436748 
L 151.007378 232.800233 
L 151.33301 231.838334 
L 151.658641 229.859994 
L 151.984273 225.675729 
L 152.309904 224.714717 
L 152.635536 229.528096 
L 152.961167 227.634958 
L 153.286799 229.215364 
L 153.61243 219.490835 
L 153.938061 235.075878 
L 154.263693 216.283237 
L 154.589324 229.73382 
L 154.914956 236.479025 
L 155.240587 235.062301 
L 155.566219 223.964508 
L 155.89185 223.527364 
L 156.217482 218.257369 
L 156.543113 222.677127 
L 156.868744 219.382336 
L 157.194376 232.296176 
L 157.520007 218.180079 
L 157.845639 224.99924 
L 158.17127 236.310064 
L 158.496902 227.93527 
L 158.822533 229.902663 
L 159.148164 219.773302 
L 159.473796 217.368513 
L 160.125059 230.177402 
L 160.45069 217.784393 
L 160.776322 219.823003 
L 161.101953 216.109118 
L 161.427585 229.798672 
L 161.753216 214.190201 
L 162.078847 217.924652 
L 162.73011 219.566989 
L 163.055742 223.325175 
L 163.381373 216.214251 
L 163.707005 223.637268 
L 164.032636 213.047369 
L 164.358268 220.592841 
L 164.683899 214.140385 
L 165.00953 223.559429 
L 165.335162 217.130139 
L 165.660793 223.084837 
L 165.986425 216.205716 
L 166.312056 215.003207 
L 166.637688 223.095308 
L 166.963319 211.800026 
L 167.28895 224.861918 
L 167.614582 213.930857 
L 167.940213 219.478624 
L 168.265845 214.829331 
L 168.591476 218.346498 
L 168.917108 216.35208 
L 169.242739 213.289065 
L 169.568371 222.684662 
L 169.894002 222.145453 
L 170.219633 212.897301 
L 170.870896 221.764206 
L 171.196528 219.16386 
L 171.522159 220.835874 
L 171.847791 210.590842 
L 172.499054 213.028409 
L 172.824685 212.003021 
L 173.475948 220.315285 
L 173.801579 214.880209 
L 174.127211 221.812141 
L 174.452842 216.189037 
L 174.778474 222.649104 
L 175.104105 222.182752 
L 175.429736 216.699706 
L 175.755368 218.775688 
L 176.080999 200.242156 
L 176.406631 212.203045 
L 176.732262 202.335295 
L 177.057894 220.698385 
L 177.383525 217.292108 
L 177.709157 218.381595 
L 178.034788 204.236343 
L 178.360419 210.772164 
L 178.686051 210.576034 
L 179.011682 206.289789 
L 179.337314 221.342927 
L 179.662945 206.654641 
L 179.988577 197.498591 
L 180.314208 213.459134 
L 180.63984 198.718703 
L 180.965471 201.007698 
L 181.291102 214.602466 
L 181.616734 211.650077 
L 181.942365 211.031536 
L 182.267997 209.483542 
L 182.593628 206.22821 
L 182.91926 219.201667 
L 183.244891 204.98291 
L 183.570522 218.095624 
L 184.221785 201.878136 
L 184.547417 212.80669 
L 185.19868 194.225013 
L 185.524311 211.653514 
L 185.849943 200.81765 
L 186.175574 198.512146 
L 186.501205 211.709139 
L 186.826837 210.406042 
L 187.152468 205.513246 
L 187.4781 210.708242 
L 187.803731 188.871167 
L 188.129363 198.600056 
L 188.454994 194.721426 
L 188.780626 199.027545 
L 189.106257 198.617289 
L 189.431888 208.545505 
L 189.75752 189.74382 
L 190.083151 205.877815 
L 190.408783 210.333754 
L 190.734414 186.704913 
L 191.060046 212.359343 
L 191.711308 192.296585 
L 192.03694 199.528282 
L 192.362571 203.729472 
L 192.688203 203.355089 
L 193.013834 206.066229 
L 193.339466 196.097762 
L 193.665097 197.460622 
L 193.990729 205.339157 
L 194.31636 205.466913 
L 194.641991 192.379084 
L 194.967623 201.276569 
L 195.293254 203.187906 
L 195.618886 206.16071 
L 195.944517 205.059457 
L 196.270149 204.454698 
L 196.59578 185.584384 
L 196.921412 193.382515 
L 197.247043 205.482154 
L 197.572674 192.94834 
L 197.898306 189.948736 
L 198.223937 201.315054 
L 198.549569 203.441769 
L 198.8752 194.352014 
L 199.200832 199.200039 
L 199.852094 185.054909 
L 200.177726 189.799276 
L 200.503357 185.524053 
L 200.828989 198.274188 
L 201.15462 193.849189 
L 201.480252 200.715134 
L 201.805883 196.666847 
L 202.131515 190.048349 
L 202.457146 194.730464 
L 202.782777 206.176889 
L 203.108409 188.237542 
L 203.43404 191.461626 
L 203.759672 199.805251 
L 204.410935 188.884475 
L 204.736566 196.570254 
L 205.062198 198.172592 
L 205.387829 178.249164 
L 205.71346 186.40175 
L 206.039092 203.125718 
L 206.364723 200.203012 
L 206.690355 187.656426 
L 207.015986 194.523402 
L 207.341618 179.301953 
L 207.667249 189.181998 
L 207.99288 192.908672 
L 208.318512 199.834374 
L 208.644143 198.156412 
L 208.969775 179.089456 
L 209.295406 191.334736 
L 209.621038 194.291264 
L 209.946669 185.489925 
L 210.272301 179.924166 
L 210.597932 195.44934 
L 210.923563 188.802702 
L 211.249195 176.73046 
L 211.574826 183.499781 
L 211.900458 196.5691 
L 212.551721 189.679503 
L 212.877352 182.844495 
L 213.202983 196.487476 
L 213.528615 183.670502 
L 213.854246 185.859526 
L 214.179878 191.183556 
L 214.505509 180.783497 
L 214.831141 195.974476 
L 215.156772 192.695967 
L 215.482404 191.010852 
L 215.808035 182.212221 
L 216.133666 185.857587 
L 216.459298 177.677896 
L 216.784929 175.24337 
L 217.110561 186.940781 
L 217.436192 185.78241 
L 217.761824 177.290206 
L 218.087455 188.904457 
L 218.413087 187.300659 
L 218.738718 184.185933 
L 219.064349 185.303967 
L 219.389981 177.426658 
L 219.715612 182.753536 
L 220.041244 171.268168 
L 220.692507 184.799772 
L 221.018138 179.137622 
L 221.669401 176.474682 
L 221.995032 176.248267 
L 222.320664 183.567024 
L 222.971927 175.559923 
L 223.297558 177.66689 
L 223.62319 183.662607 
L 223.948821 168.802943 
L 224.274452 180.86522 
L 224.600084 176.844857 
L 224.925715 181.869869 
L 225.251347 176.459607 
L 225.576978 187.361775 
L 225.90261 169.262906 
L 226.228241 178.372487 
L 226.553873 173.324222 
L 226.879504 179.442931 
L 227.205135 168.629543 
L 227.530767 166.023971 
L 228.18203 175.964555 
L 228.507661 168.479104 
L 228.833293 175.675569 
L 229.158924 179.709868 
L 229.484555 164.434144 
L 229.810187 165.664326 
L 230.135818 182.127265 
L 230.46145 176.850618 
L 230.787081 182.163996 
L 231.112713 177.85612 
L 231.438344 171.909567 
L 231.763976 172.761554 
L 232.089607 167.764078 
L 232.415238 181.958904 
L 233.066501 168.54516 
L 233.392133 181.618175 
L 233.717764 182.137768 
L 234.043396 167.835769 
L 234.369027 180.459439 
L 234.694659 165.187751 
L 235.345921 180.9425 
L 235.671553 174.545932 
L 235.997184 176.393439 
L 236.322816 167.584429 
L 236.648447 176.588209 
L 236.974079 172.804534 
L 237.29971 165.642883 
L 237.625341 183.427833 
L 238.276604 173.308368 
L 238.602236 162.584108 
L 238.927867 158.951063 
L 239.253499 174.321668 
L 239.57913 179.032217 
L 239.904762 163.467379 
L 240.230393 174.115476 
L 240.556024 163.260498 
L 240.881656 175.476373 
L 241.207287 163.102224 
L 241.532919 172.720405 
L 241.85855 168.087464 
L 242.184182 176.421904 
L 242.509813 161.414007 
L 242.835445 165.1441 
L 243.161076 176.24276 
L 243.486707 161.756079 
L 243.812339 158.486859 
L 244.13797 156.486558 
L 244.463602 168.371903 
L 245.114865 173.569169 
L 245.766127 163.101384 
L 246.091759 162.99136 
L 246.41739 168.040434 
L 246.743022 161.936921 
L 247.394285 166.873626 
L 247.719916 149.040834 
L 248.045548 166.782388 
L 248.371179 166.788871 
L 248.69681 164.482681 
L 249.022442 165.247754 
L 249.348073 174.539263 
L 249.673705 163.004445 
L 249.999336 161.13697 
L 250.324968 157.136998 
L 250.650599 163.380762 
L 250.976231 160.252722 
L 251.301862 162.126901 
L 251.627493 159.374141 
L 251.953125 151.166863 
L 252.278756 160.781282 
L 252.604388 163.948381 
L 252.930019 158.942508 
L 253.255651 157.261218 
L 253.581282 163.997781 
L 253.906913 166.57668 
L 255.209439 146.635237 
L 255.860702 167.419237 
L 256.186334 155.60184 
L 256.511965 165.833197 
L 256.837596 147.981357 
L 257.163228 163.35521 
L 257.814491 169.878546 
L 258.140122 164.44929 
L 258.465754 162.774092 
L 258.791385 158.088069 
L 259.117017 158.123049 
L 259.442648 156.074831 
L 260.093911 165.015968 
L 260.419542 154.035323 
L 260.745174 166.308324 
L 261.070805 149.801863 
L 261.396437 151.430247 
L 261.722068 164.163627 
L 262.047699 161.521334 
L 262.373331 149.604505 
L 262.698962 156.73519 
L 263.024594 159.497717 
L 263.350225 160.392231 
L 263.675857 144.073338 
L 264.001488 155.033532 
L 264.32712 154.395585 
L 264.652751 156.767509 
L 264.978382 157.097617 
L 265.304014 144.829987 
L 265.629645 147.813149 
L 265.955277 166.57668 
L 266.280908 148.233698 
L 266.60654 149.315025 
L 266.932171 156.353187 
L 267.257802 153.529432 
L 267.583434 160.31392 
L 267.909065 152.967288 
L 268.234697 154.450216 
L 268.560328 158.506876 
L 268.88596 156.455963 
L 269.211591 156.124195 
L 269.537223 148.088636 
L 270.514117 160.254765 
L 270.839748 145.896469 
L 271.16538 139.342317 
L 271.491011 147.450016 
L 271.816643 149.173235 
L 272.142274 148.797667 
L 272.467906 156.688422 
L 272.793537 146.53367 
L 273.119168 157.27356 
L 273.4448 146.26685 
L 273.770431 148.468075 
L 274.096063 141.651137 
L 274.421694 153.665797 
L 274.747326 150.199591 
L 275.072957 151.230044 
L 275.398588 149.628132 
L 275.72422 138.522447 
L 276.049851 149.343726 
L 276.375483 142.911735 
L 276.701114 142.67778 
L 277.026746 145.023293 
L 277.352377 150.012848 
L 277.678009 150.012848 
L 278.00364 156.200521 
L 278.329271 149.998688 
L 278.654903 157.273679 
L 278.980534 147.765275 
L 279.306166 155.18114 
L 279.631797 148.472484 
L 279.957429 149.295475 
L 280.28306 146.690447 
L 280.608692 136.576523 
L 280.934323 149.810208 
L 281.259954 148.452536 
L 281.585586 141.189725 
L 282.236849 136.607414 
L 282.888112 148.030842 
L 283.213743 140.635767 
L 283.539374 144.70143 
L 283.865006 141.771648 
L 284.190637 137.492074 
L 284.516269 142.455518 
L 284.8419 149.808304 
L 285.167532 144.882794 
L 285.818795 132.666438 
L 286.144426 152.376127 
L 286.470057 132.219117 
L 286.795689 145.706249 
L 287.12132 142.41171 
L 287.446952 140.747131 
L 287.772583 147.583906 
L 288.098215 141.986296 
L 288.423846 134.331497 
L 288.749478 136.581837 
L 289.075109 146.342916 
L 289.40074 140.641681 
L 289.726372 137.825902 
L 290.052003 127.180856 
L 290.377635 152.499979 
L 290.703266 131.407374 
L 291.028898 145.699639 
L 291.354529 147.340287 
L 291.68016 137.685926 
L 292.005792 146.119287 
L 292.331423 142.663156 
L 292.657055 128.704069 
L 292.982686 134.830229 
L 293.308318 135.737164 
L 293.633949 129.439427 
L 294.285212 145.259352 
L 294.610843 138.12787 
L 294.936475 145.477753 
L 295.262106 132.858968 
L 295.587738 129.691242 
L 295.913369 130.149552 
L 296.239001 134.22384 
L 296.564632 141.448711 
L 296.890264 140.538222 
L 297.215895 136.217453 
L 297.541526 143.740606 
L 298.518421 125.526271 
L 298.844052 125.33144 
L 299.169684 131.220884 
L 299.495315 143.237094 
L 299.820946 129.299453 
L 300.146578 140.469794 
L 300.472209 141.530127 
L 300.797841 144.635315 
L 301.123472 124.99583 
L 301.449104 130.135617 
L 301.774735 129.335428 
L 302.100367 136.371755 
L 302.425998 137.92972 
L 302.751629 131.643736 
L 303.077261 130.015169 
L 303.402892 138.15542 
L 304.054155 126.857104 
L 304.379787 127.506483 
L 304.705418 124.730134 
L 305.03105 134.065538 
L 305.356681 133.61473 
L 305.682312 129.194446 
L 306.007944 128.418681 
L 306.659207 137.087162 
L 306.984838 127.563913 
L 307.31047 129.26524 
L 307.636101 123.871084 
L 307.961732 135.036393 
L 308.287364 131.486391 
L 308.612995 135.206468 
L 308.938627 141.2005 
L 309.264258 129.983668 
L 309.58989 129.790779 
L 309.915521 135.689434 
L 310.241153 133.20918 
L 310.566784 128.457634 
L 310.892415 114.485033 
L 311.218047 124.103715 
L 311.543678 128.205249 
L 311.86931 136.772929 
L 312.194941 138.350998 
L 312.520573 136.573394 
L 312.846204 121.90154 
L 313.171836 127.565957 
L 313.497467 120.312345 
L 313.823098 128.270588 
L 314.14873 123.179561 
L 314.474361 122.158431 
L 314.799993 129.601152 
L 315.125624 130.830003 
L 315.451256 126.753751 
L 315.776887 120.959269 
L 316.102518 128.167634 
L 316.42815 122.801533 
L 316.753781 129.885391 
L 317.079413 131.934271 
L 317.405044 119.35137 
L 317.730676 113.510548 
L 318.381939 129.399474 
L 318.70757 114.12892 
L 319.033201 121.921827 
L 319.358833 124.882472 
L 319.684464 119.173393 
L 320.335727 113.554748 
L 320.661359 117.337493 
L 320.98699 129.869499 
L 321.312622 119.766193 
L 321.963884 132.785441 
L 322.289516 128.789416 
L 322.615147 133.675217 
L 322.940779 130.76798 
L 323.26641 111.76895 
L 323.592042 124.244462 
L 323.917673 119.729428 
L 324.243304 131.189258 
L 324.894567 110.948866 
L 325.220199 116.715821 
L 325.54583 113.192219 
L 325.871462 122.659012 
L 326.197093 116.6033 
L 326.522725 118.339739 
L 326.848356 107.369812 
L 327.499619 118.478221 
L 327.82525 113.640324 
L 328.150882 112.496481 
L 328.476513 121.067488 
L 328.802145 103.386905 
L 329.127776 118.86289 
L 329.453407 110.012998 
L 329.779039 127.04875 
L 330.10467 125.265616 
L 330.430302 107.579987 
L 330.755933 115.841642 
L 331.081565 117.599053 
L 331.407196 114.829794 
L 331.732828 107.122658 
L 332.058459 123.580012 
L 332.38409 122.439158 
L 332.709722 115.307814 
L 333.035353 120.218486 
L 333.360985 114.428381 
L 333.686616 111.413769 
L 334.012248 112.053652 
L 334.337879 103.907319 
L 334.663511 104.734996 
L 334.989142 104.957652 
L 335.314773 110.3735 
L 335.640405 105.37057 
L 335.966036 114.238943 
L 336.291668 96.788018 
L 336.617299 114.38506 
L 336.942931 113.08426 
L 337.268562 110.473923 
L 337.594193 106.539998 
L 337.919825 106.184111 
L 338.245456 95.456881 
L 338.571088 102.140624 
L 338.896719 102.203797 
L 339.222351 118.499032 
L 339.873614 100.553803 
L 340.199245 116.776845 
L 340.524876 106.748294 
L 340.850508 116.41456 
L 341.176139 95.168886 
L 341.501771 102.75937 
L 341.827402 97.301634 
L 342.153034 107.810349 
L 342.478665 90.675419 
L 342.804297 113.151509 
L 343.129928 98.309556 
L 343.455559 106.755087 
L 343.781191 110.125317 
L 344.106822 107.425173 
L 344.432454 110.645671 
L 344.758085 110.569792 
L 345.083717 113.798822 
L 345.409348 97.385782 
L 345.734979 107.588075 
L 346.060611 102.430733 
L 346.386242 101.173505 
L 346.711874 116.023221 
L 347.037505 105.365616 
L 347.363137 112.732928 
L 347.688768 106.294342 
L 348.0144 106.675204 
L 348.340031 101.597985 
L 348.665662 101.745897 
L 348.991294 106.495778 
L 349.316925 106.837449 
L 349.642557 105.292865 
L 349.968188 96.822617 
L 350.29382 99.388253 
L 350.619451 98.713793 
L 350.945083 101.843551 
L 351.270714 93.976822 
L 351.596345 92.596782 
L 351.921977 106.534263 
L 352.247608 97.781152 
L 352.57324 102.462415 
L 352.898871 92.534634 
L 353.224503 103.695475 
L 353.550134 93.403 
L 353.875765 99.211142 
L 354.201397 100.014625 
L 354.527028 96.12136 
L 354.85266 106.728859 
L 355.178291 90.566997 
L 355.503923 92.596798 
L 355.829554 90.342834 
L 356.155186 105.133644 
L 356.480817 100.395873 
L 356.806448 86.154942 
L 357.13208 104.041922 
L 357.457711 91.465292 
L 357.783343 95.68208 
L 358.108974 90.651969 
L 358.434606 89.684623 
L 358.760237 102.268842 
L 359.085869 99.494184 
L 359.737131 90.114128 
L 360.062763 94.538001 
L 360.388394 87.179112 
L 360.714026 94.287019 
L 361.039657 94.608078 
L 361.365289 94.282219 
L 361.69092 94.270218 
L 362.016551 87.980357 
L 362.342183 95.138651 
L 362.667814 97.583258 
L 362.993446 94.889282 
L 363.319077 99.495801 
L 363.644709 91.219385 
L 363.97034 93.687923 
L 364.295972 97.301974 
L 364.621603 102.801315 
L 364.947234 87.771716 
L 365.272866 94.108623 
L 365.598497 92.946202 
L 365.924129 83.988842 
L 366.24976 98.315483 
L 366.575392 85.992779 
L 366.901023 96.711277 
L 367.226655 93.397793 
L 367.552286 84.287409 
L 367.877917 86.339975 
L 368.203549 91.733011 
L 368.52918 84.84369 
L 368.854812 85.175723 
L 369.180443 98.79313 
L 369.506075 76.767576 
L 370.157337 88.194059 
L 370.482969 97.001241 
L 371.134232 82.065191 
L 371.459863 78.992328 
L 371.785495 89.053577 
L 372.111126 83.735369 
L 372.436758 84.338863 
L 372.762389 86.081998 
L 373.08802 85.263849 
L 373.413652 93.105139 
L 373.739283 84.853401 
L 374.064915 91.84823 
L 374.390546 85.753108 
L 374.716178 93.695443 
L 375.041809 93.214285 
L 375.367441 92.431607 
L 375.693072 91.050309 
L 376.018703 85.983055 
L 376.344335 71.691115 
L 376.669966 84.818535 
L 376.995598 83.175868 
L 377.321229 71.138809 
L 377.646861 90.268881 
L 377.972492 81.59206 
L 378.298123 77.4001 
L 378.623755 76.697386 
L 378.949386 77.937886 
L 379.275018 87.431885 
L 379.600649 91.980388 
L 379.926281 85.91404 
L 380.903175 76.146966 
L 381.228806 79.228225 
L 381.554438 87.432683 
L 381.880069 82.013023 
L 382.205701 74.710562 
L 382.531332 88.218818 
L 382.856964 71.352902 
L 383.182595 70.636216 
L 383.508226 76.720533 
L 383.833858 68.888217 
L 384.159489 66.969903 
L 384.485121 80.706231 
L 384.810752 85.677118 
L 385.136384 83.968954 
L 385.462015 74.134651 
L 385.787647 75.114594 
L 386.113278 73.743681 
L 386.438909 79.89025 
L 386.764541 79.439585 
L 387.090172 77.5763 
L 387.415804 66.609533 
L 387.741435 63.977243 
L 388.067067 84.644149 
L 388.392698 74.717527 
L 388.71833 69.638516 
L 389.043961 74.984844 
L 389.369592 70.393968 
L 389.695224 84.550236 
L 390.020855 71.222087 
L 390.346487 80.158598 
L 390.672118 79.560298 
L 390.99775 72.641121 
L 391.323381 78.517712 
L 391.649012 78.237962 
L 391.974644 83.831531 
L 392.300275 67.948897 
L 392.625907 64.104755 
L 392.951538 75.404996 
L 393.27717 78.090604 
L 393.602801 74.976485 
L 393.928433 53.568 
L 394.254064 59.191991 
L 394.579695 74.46688 
L 394.905327 72.13034 
L 395.230958 62.209967 
L 395.55659 75.832482 
L 395.882221 73.278481 
L 396.207853 57.696403 
L 396.533484 68.067844 
L 396.859116 70.021752 
L 397.184747 65.553326 
L 397.510378 69.294657 
L 397.83601 71.114445 
L 398.161641 65.150989 
L 398.487273 66.560502 
L 398.487273 66.560502 
" clip-path="url(#pefcdc62736)" style="fill: none; stroke-dasharray: 1,1.65; stroke-dashoffset: 0; stroke: #ffa500"/>
   </g>
   <g id="line2d_17">
    <path d="M 73.832727 276.085865 
L 398.487273 70.331668 
L 398.487273 70.331668 
" clip-path="url(#pefcdc62736)" style="fill: none; stroke-dasharray: 1.85,0.8; stroke-dashoffset: 0; stroke: #191970; stroke-width: 0.5"/>
   </g>
   <g id="line2d_18">
    <path d="M 73.832727 275.842241 
L 398.487273 70.560623 
L 398.487273 70.560623 
" clip-path="url(#pefcdc62736)" style="fill: none; stroke-dasharray: 0.5,0.825; stroke-dashoffset: 0; stroke: #ff0000; stroke-width: 0.5"/>
   </g>
   <g id="patch_3">
    <path d="M 57.6 307.584 
L 57.6 41.472 
" style="fill: none; stroke: #000000; stroke-width: 0.8; stroke-linejoin: miter; stroke-linecap: square"/>
   </g>
   <g id="patch_4">
    <path d="M 414.72 307.584 
L 414.72 41.472 
" style="fill: none; stroke: #000000; stroke-width: 0.8; stroke-linejoin: miter; stroke-linecap: square"/>
   </g>
   <g id="patch_5">
    <path d="M 57.6 307.584 
L 414.72 307.584 
" style="fill: none; stroke: #000000; stroke-width: 0.8; stroke-linejoin: miter; stroke-linecap: square"/>
   </g>
   <g id="patch_6">
    <path d="M 57.6 41.472 
L 414.72 41.472 
" style="fill: none; stroke: #000000; stroke-width: 0.8; stroke-linejoin: miter; stroke-linecap: square"/>
   </g>
   <g id="text_16">
    <!-- numRider20 -->
    <g transform="translate(199.272188 22.034625)scale(0.12 -0.12)">
     <defs>
      <path id="DejaVuSans-75" d="M 544 1381 
L 544 3500 
L 1119 3500 
L 1119 1403 
Q 1119 906 1312 657 
Q 1506 409 1894 409 
Q 2359 409 2629 706 
Q 2900 1003 2900 1516 
L 2900 3500 
L 3475 3500 
L 3475 0 
L 2900 0 
L 2900 538 
Q 2691 219 2414 64 
Q 2138 -91 1772 -91 
Q 1169 -91 856 284 
Q 544 659 544 1381 
z
M 1991 3584 
L 1991 3584 
z
" transform="scale(0.015625)"/>
      <path id="DejaVuSans-52" d="M 2841 2188 
Q 3044 2119 3236 1894 
Q 3428 1669 3622 1275 
L 4263 0 
L 3584 0 
L 2988 1197 
Q 2756 1666 2539 1819 
Q 2322 1972 1947 1972 
L 1259 1972 
L 1259 0 
L 628 0 
L 628 4666 
L 2053 4666 
Q 2853 4666 3247 4331 
Q 3641 3997 3641 3322 
Q 3641 2881 3436 2590 
Q 3231 2300 2841 2188 
z
M 1259 4147 
L 1259 2491 
L 2053 2491 
Q 2509 2491 2742 2702 
Q 2975 2913 2975 3322 
Q 2975 3731 2742 3939 
Q 2509 4147 2053 4147 
L 1259 4147 
z
" transform="scale(0.015625)"/>
     </defs>
     <use xlink:href="#DejaVuSans-6e"/>
     <use xlink:href="#DejaVuSans-75" x="63.378906"/>
     <use xlink:href="#DejaVuSans-6d" x="126.757812"/>
     <use xlink:href="#DejaVuSans-52" x="224.169922"/>
     <use xlink:href="#DejaVuSans-69" x="293.652344"/>
     <use xlink:href="#DejaVuSans-64" x="321.435547"/>
     <use xlink:href="#DejaVuSans-65" x="384.912109"/>
     <use xlink:href="#DejaVuSans-72" x="446.435547"/>
     <use xlink:href="#DejaVuSans-32" x="487.548828"/>
     <use xlink:href="#DejaVuSans-30" x="551.171875"/>
    </g>
    <!--  grid50 -->
    <g transform="translate(214.866562 35.472)scale(0.12 -0.12)">
     <defs>
      <path id="DejaVuSans-67" d="M 2906 1791 
Q 2906 2416 2648 2759 
Q 2391 3103 1925 3103 
Q 1463 3103 1205 2759 
Q 947 2416 947 1791 
Q 947 1169 1205 825 
Q 1463 481 1925 481 
Q 2391 481 2648 825 
Q 2906 1169 2906 1791 
z
M 3481 434 
Q 3481 -459 3084 -895 
Q 2688 -1331 1869 -1331 
Q 1566 -1331 1297 -1286 
Q 1028 -1241 775 -1147 
L 775 -588 
Q 1028 -725 1275 -790 
Q 1522 -856 1778 -856 
Q 2344 -856 2625 -561 
Q 2906 -266 2906 331 
L 2906 616 
Q 2728 306 2450 153 
Q 2172 0 1784 0 
Q 1141 0 747 490 
Q 353 981 353 1791 
Q 353 2603 747 3093 
Q 1141 3584 1784 3584 
Q 2172 3584 2450 3431 
Q 2728 3278 2906 2969 
L 2906 3500 
L 3481 3500 
L 3481 434 
z
" transform="scale(0.015625)"/>
     </defs>
     <use xlink:href="#DejaVuSans-20"/>
     <use xlink:href="#DejaVuSans-67" x="31.787109"/>
     <use xlink:href="#DejaVuSans-72" x="95.263672"/>
     <use xlink:href="#DejaVuSans-69" x="136.376953"/>
     <use xlink:href="#DejaVuSans-64" x="164.160156"/>
     <use xlink:href="#DejaVuSans-35" x="227.636719"/>
     <use xlink:href="#DejaVuSans-30" x="291.259766"/>
    </g>
   </g>
   <g id="legend_1">
    <g id="patch_7">
     <path d="M 64.6 122.862625 
L 241.8625 122.862625 
Q 243.8625 122.862625 243.8625 120.862625 
L 243.8625 48.472 
Q 243.8625 46.472 241.8625 46.472 
L 64.6 46.472 
Q 62.6 46.472 62.6 48.472 
L 62.6 120.862625 
Q 62.6 122.862625 64.6 122.862625 
z
" style="fill: #ffffff; opacity: 0.8; stroke: #cccccc; stroke-linejoin: miter"/>
    </g>
    <g id="line2d_19">
     <path d="M 66.6 54.570438 
L 76.6 54.570438 
L 86.6 54.570438 
" style="fill: none; stroke: #32cd32; stroke-linecap: square"/>
    </g>
    <g id="text_17">
     <!-- Time In -->
     <g transform="translate(94.6 58.070438)scale(0.1 -0.1)">
      <use xlink:href="#DejaVuSans-54"/>
      <use xlink:href="#DejaVuSans-69" x="57.958984"/>
      <use xlink:href="#DejaVuSans-6d" x="85.742188"/>
      <use xlink:href="#DejaVuSans-65" x="183.154297"/>
      <use xlink:href="#DejaVuSans-20" x="244.677734"/>
      <use xlink:href="#DejaVuSans-49" x="276.464844"/>
      <use xlink:href="#DejaVuSans-6e" x="305.957031"/>
     </g>
    </g>
    <g id="line2d_20">
     <path d="M 66.6 69.248563 
L 76.6 69.248563 
L 86.6 69.248563 
" style="fill: none; stroke-dasharray: 3.7,1.6; stroke-dashoffset: 0; stroke: #4169e1"/>
    </g>
    <g id="text_18">
     <!-- Time Delivered - Default -->
     <g transform="translate(94.6 72.748563)scale(0.1 -0.1)">
      <defs>
       <path id="DejaVuSans-2d" d="M 313 2009 
L 1997 2009 
L 1997 1497 
L 313 1497 
L 313 2009 
z
" transform="scale(0.015625)"/>
       <path id="DejaVuSans-66" d="M 2375 4863 
L 2375 4384 
L 1825 4384 
Q 1516 4384 1395 4259 
Q 1275 4134 1275 3809 
L 1275 3500 
L 2222 3500 
L 2222 3053 
L 1275 3053 
L 1275 0 
L 697 0 
L 697 3053 
L 147 3053 
L 147 3500 
L 697 3500 
L 697 3744 
Q 697 4328 969 4595 
Q 1241 4863 1831 4863 
L 2375 4863 
z
" transform="scale(0.015625)"/>
       <path id="DejaVuSans-61" d="M 2194 1759 
Q 1497 1759 1228 1600 
Q 959 1441 959 1056 
Q 959 750 1161 570 
Q 1363 391 1709 391 
Q 2188 391 2477 730 
Q 2766 1069 2766 1631 
L 2766 1759 
L 2194 1759 
z
M 3341 1997 
L 3341 0 
L 2766 0 
L 2766 531 
Q 2569 213 2275 61 
Q 1981 -91 1556 -91 
Q 1019 -91 701 211 
Q 384 513 384 1019 
Q 384 1609 779 1909 
Q 1175 2209 1959 2209 
L 2766 2209 
L 2766 2266 
Q 2766 2663 2505 2880 
Q 2244 3097 1772 3097 
Q 1472 3097 1187 3025 
Q 903 2953 641 2809 
L 641 3341 
Q 956 3463 1253 3523 
Q 1550 3584 1831 3584 
Q 2591 3584 2966 3190 
Q 3341 2797 3341 1997 
z
" transform="scale(0.015625)"/>
       <path id="DejaVuSans-74" d="M 1172 4494 
L 1172 3500 
L 2356 3500 
L 2356 3053 
L 1172 3053 
L 1172 1153 
Q 1172 725 1289 603 
Q 1406 481 1766 481 
L 2356 481 
L 2356 0 
L 1766 0 
Q 1100 0 847 248 
Q 594 497 594 1153 
L 594 3053 
L 172 3053 
L 172 3500 
L 594 3500 
L 594 4494 
L 1172 4494 
z
" transform="scale(0.015625)"/>
      </defs>
      <use xlink:href="#DejaVuSans-54"/>
      <use xlink:href="#DejaVuSans-69" x="57.958984"/>
      <use xlink:href="#DejaVuSans-6d" x="85.742188"/>
      <use xlink:href="#DejaVuSans-65" x="183.154297"/>
      <use xlink:href="#DejaVuSans-20" x="244.677734"/>
      <use xlink:href="#DejaVuSans-44" x="276.464844"/>
      <use xlink:href="#DejaVuSans-65" x="353.466797"/>
      <use xlink:href="#DejaVuSans-6c" x="414.990234"/>
      <use xlink:href="#DejaVuSans-69" x="442.773438"/>
      <use xlink:href="#DejaVuSans-76" x="470.556641"/>
      <use xlink:href="#DejaVuSans-65" x="529.736328"/>
      <use xlink:href="#DejaVuSans-72" x="591.259766"/>
      <use xlink:href="#DejaVuSans-65" x="630.123047"/>
      <use xlink:href="#DejaVuSans-64" x="691.646484"/>
      <use xlink:href="#DejaVuSans-20" x="755.123047"/>
      <use xlink:href="#DejaVuSans-2d" x="786.910156"/>
      <use xlink:href="#DejaVuSans-20" x="822.994141"/>
      <use xlink:href="#DejaVuSans-44" x="854.78125"/>
      <use xlink:href="#DejaVuSans-65" x="931.783203"/>
      <use xlink:href="#DejaVuSans-66" x="993.306641"/>
      <use xlink:href="#DejaVuSans-61" x="1028.511719"/>
      <use xlink:href="#DejaVuSans-75" x="1089.791016"/>
      <use xlink:href="#DejaVuSans-6c" x="1153.169922"/>
      <use xlink:href="#DejaVuSans-74" x="1180.953125"/>
     </g>
    </g>
    <g id="line2d_21">
     <path d="M 66.6 83.926688 
L 76.6 83.926688 
L 86.6 83.926688 
" style="fill: none; stroke-dasharray: 1,1.65; stroke-dashoffset: 0; stroke: #ffa500"/>
    </g>
    <g id="text_19">
     <!-- Time Delivered - Anticipation -->
     <g transform="translate(94.6 87.426688)scale(0.1 -0.1)">
      <defs>
       <path id="DejaVuSans-41" d="M 2188 4044 
L 1331 1722 
L 3047 1722 
L 2188 4044 
z
M 1831 4666 
L 2547 4666 
L 4325 0 
L 3669 0 
L 3244 1197 
L 1141 1197 
L 716 0 
L 50 0 
L 1831 4666 
z
" transform="scale(0.015625)"/>
       <path id="DejaVuSans-63" d="M 3122 3366 
L 3122 2828 
Q 2878 2963 2633 3030 
Q 2388 3097 2138 3097 
Q 1578 3097 1268 2742 
Q 959 2388 959 1747 
Q 959 1106 1268 751 
Q 1578 397 2138 397 
Q 2388 397 2633 464 
Q 2878 531 3122 666 
L 3122 134 
Q 2881 22 2623 -34 
Q 2366 -91 2075 -91 
Q 1284 -91 818 406 
Q 353 903 353 1747 
Q 353 2603 823 3093 
Q 1294 3584 2113 3584 
Q 2378 3584 2631 3529 
Q 2884 3475 3122 3366 
z
" transform="scale(0.015625)"/>
       <path id="DejaVuSans-70" d="M 1159 525 
L 1159 -1331 
L 581 -1331 
L 581 3500 
L 1159 3500 
L 1159 2969 
Q 1341 3281 1617 3432 
Q 1894 3584 2278 3584 
Q 2916 3584 3314 3078 
Q 3713 2572 3713 1747 
Q 3713 922 3314 415 
Q 2916 -91 2278 -91 
Q 1894 -91 1617 61 
Q 1341 213 1159 525 
z
M 3116 1747 
Q 3116 2381 2855 2742 
Q 2594 3103 2138 3103 
Q 1681 3103 1420 2742 
Q 1159 2381 1159 1747 
Q 1159 1113 1420 752 
Q 1681 391 2138 391 
Q 2594 391 2855 752 
Q 3116 1113 3116 1747 
z
" transform="scale(0.015625)"/>
       <path id="DejaVuSans-6f" d="M 1959 3097 
Q 1497 3097 1228 2736 
Q 959 2375 959 1747 
Q 959 1119 1226 758 
Q 1494 397 1959 397 
Q 2419 397 2687 759 
Q 2956 1122 2956 1747 
Q 2956 2369 2687 2733 
Q 2419 3097 1959 3097 
z
M 1959 3584 
Q 2709 3584 3137 3096 
Q 3566 2609 3566 1747 
Q 3566 888 3137 398 
Q 2709 -91 1959 -91 
Q 1206 -91 779 398 
Q 353 888 353 1747 
Q 353 2609 779 3096 
Q 1206 3584 1959 3584 
z
" transform="scale(0.015625)"/>
      </defs>
      <use xlink:href="#DejaVuSans-54"/>
      <use xlink:href="#DejaVuSans-69" x="57.958984"/>
      <use xlink:href="#DejaVuSans-6d" x="85.742188"/>
      <use xlink:href="#DejaVuSans-65" x="183.154297"/>
      <use xlink:href="#DejaVuSans-20" x="244.677734"/>
      <use xlink:href="#DejaVuSans-44" x="276.464844"/>
      <use xlink:href="#DejaVuSans-65" x="353.466797"/>
      <use xlink:href="#DejaVuSans-6c" x="414.990234"/>
      <use xlink:href="#DejaVuSans-69" x="442.773438"/>
      <use xlink:href="#DejaVuSans-76" x="470.556641"/>
      <use xlink:href="#DejaVuSans-65" x="529.736328"/>
      <use xlink:href="#DejaVuSans-72" x="591.259766"/>
      <use xlink:href="#DejaVuSans-65" x="630.123047"/>
      <use xlink:href="#DejaVuSans-64" x="691.646484"/>
      <use xlink:href="#DejaVuSans-20" x="755.123047"/>
      <use xlink:href="#DejaVuSans-2d" x="786.910156"/>
      <use xlink:href="#DejaVuSans-20" x="822.994141"/>
      <use xlink:href="#DejaVuSans-41" x="854.78125"/>
      <use xlink:href="#DejaVuSans-6e" x="923.189453"/>
      <use xlink:href="#DejaVuSans-74" x="986.568359"/>
      <use xlink:href="#DejaVuSans-69" x="1025.777344"/>
      <use xlink:href="#DejaVuSans-63" x="1053.560547"/>
      <use xlink:href="#DejaVuSans-69" x="1108.541016"/>
      <use xlink:href="#DejaVuSans-70" x="1136.324219"/>
      <use xlink:href="#DejaVuSans-61" x="1199.800781"/>
      <use xlink:href="#DejaVuSans-74" x="1261.080078"/>
      <use xlink:href="#DejaVuSans-69" x="1300.289062"/>
      <use xlink:href="#DejaVuSans-6f" x="1328.072266"/>
      <use xlink:href="#DejaVuSans-6e" x="1389.253906"/>
     </g>
    </g>
    <g id="line2d_22">
     <path d="M 66.6 98.604813 
L 76.6 98.604813 
L 86.6 98.604813 
" style="fill: none; stroke-dasharray: 1.85,0.8; stroke-dashoffset: 0; stroke: #191970; stroke-width: 0.5"/>
    </g>
    <g id="text_20">
     <!-- best fit line for default -->
     <g transform="translate(94.6 102.104813)scale(0.1 -0.1)">
      <defs>
       <path id="DejaVuSans-62" d="M 3116 1747 
Q 3116 2381 2855 2742 
Q 2594 3103 2138 3103 
Q 1681 3103 1420 2742 
Q 1159 2381 1159 1747 
Q 1159 1113 1420 752 
Q 1681 391 2138 391 
Q 2594 391 2855 752 
Q 3116 1113 3116 1747 
z
M 1159 2969 
Q 1341 3281 1617 3432 
Q 1894 3584 2278 3584 
Q 2916 3584 3314 3078 
Q 3713 2572 3713 1747 
Q 3713 922 3314 415 
Q 2916 -91 2278 -91 
Q 1894 -91 1617 61 
Q 1341 213 1159 525 
L 1159 0 
L 581 0 
L 581 4863 
L 1159 4863 
L 1159 2969 
z
" transform="scale(0.015625)"/>
       <path id="DejaVuSans-73" d="M 2834 3397 
L 2834 2853 
Q 2591 2978 2328 3040 
Q 2066 3103 1784 3103 
Q 1356 3103 1142 2972 
Q 928 2841 928 2578 
Q 928 2378 1081 2264 
Q 1234 2150 1697 2047 
L 1894 2003 
Q 2506 1872 2764 1633 
Q 3022 1394 3022 966 
Q 3022 478 2636 193 
Q 2250 -91 1575 -91 
Q 1294 -91 989 -36 
Q 684 19 347 128 
L 347 722 
Q 666 556 975 473 
Q 1284 391 1588 391 
Q 1994 391 2212 530 
Q 2431 669 2431 922 
Q 2431 1156 2273 1281 
Q 2116 1406 1581 1522 
L 1381 1569 
Q 847 1681 609 1914 
Q 372 2147 372 2553 
Q 372 3047 722 3315 
Q 1072 3584 1716 3584 
Q 2034 3584 2315 3537 
Q 2597 3491 2834 3397 
z
" transform="scale(0.015625)"/>
      </defs>
      <use xlink:href="#DejaVuSans-62"/>
      <use xlink:href="#DejaVuSans-65" x="63.476562"/>
      <use xlink:href="#DejaVuSans-73" x="125"/>
      <use xlink:href="#DejaVuSans-74" x="177.099609"/>
      <use xlink:href="#DejaVuSans-20" x="216.308594"/>
      <use xlink:href="#DejaVuSans-66" x="248.095703"/>
      <use xlink:href="#DejaVuSans-69" x="283.300781"/>
      <use xlink:href="#DejaVuSans-74" x="311.083984"/>
      <use xlink:href="#DejaVuSans-20" x="350.292969"/>
      <use xlink:href="#DejaVuSans-6c" x="382.080078"/>
      <use xlink:href="#DejaVuSans-69" x="409.863281"/>
      <use xlink:href="#DejaVuSans-6e" x="437.646484"/>
      <use xlink:href="#DejaVuSans-65" x="501.025391"/>
      <use xlink:href="#DejaVuSans-20" x="562.548828"/>
      <use xlink:href="#DejaVuSans-66" x="594.335938"/>
      <use xlink:href="#DejaVuSans-6f" x="629.541016"/>
      <use xlink:href="#DejaVuSans-72" x="690.722656"/>
      <use xlink:href="#DejaVuSans-20" x="731.835938"/>
      <use xlink:href="#DejaVuSans-64" x="763.623047"/>
      <use xlink:href="#DejaVuSans-65" x="827.099609"/>
      <use xlink:href="#DejaVuSans-66" x="888.623047"/>
      <use xlink:href="#DejaVuSans-61" x="923.828125"/>
      <use xlink:href="#DejaVuSans-75" x="985.107422"/>
      <use xlink:href="#DejaVuSans-6c" x="1048.486328"/>
      <use xlink:href="#DejaVuSans-74" x="1076.269531"/>
     </g>
    </g>
    <g id="line2d_23">
     <path d="M 66.6 113.282938 
L 76.6 113.282938 
L 86.6 113.282938 
" style="fill: none; stroke-dasharray: 0.5,0.825; stroke-dashoffset: 0; stroke: #ff0000; stroke-width: 0.5"/>
    </g>
    <g id="text_21">
     <!-- best fit line for anticipation -->
     <g transform="translate(94.6 116.782938)scale(0.1 -0.1)">
      <use xlink:href="#DejaVuSans-62"/>
      <use xlink:href="#DejaVuSans-65" x="63.476562"/>
      <use xlink:href="#DejaVuSans-73" x="125"/>
      <use xlink:href="#DejaVuSans-74" x="177.099609"/>
      <use xlink:href="#DejaVuSans-20" x="216.308594"/>
      <use xlink:href="#DejaVuSans-66" x="248.095703"/>
      <use xlink:href="#DejaVuSans-69" x="283.300781"/>
      <use xlink:href="#DejaVuSans-74" x="311.083984"/>
      <use xlink:href="#DejaVuSans-20" x="350.292969"/>
      <use xlink:href="#DejaVuSans-6c" x="382.080078"/>
      <use xlink:href="#DejaVuSans-69" x="409.863281"/>
      <use xlink:href="#DejaVuSans-6e" x="437.646484"/>
      <use xlink:href="#DejaVuSans-65" x="501.025391"/>
      <use xlink:href="#DejaVuSans-20" x="562.548828"/>
      <use xlink:href="#DejaVuSans-66" x="594.335938"/>
      <use xlink:href="#DejaVuSans-6f" x="629.541016"/>
      <use xlink:href="#DejaVuSans-72" x="690.722656"/>
      <use xlink:href="#DejaVuSans-20" x="731.835938"/>
      <use xlink:href="#DejaVuSans-61" x="763.623047"/>
      <use xlink:href="#DejaVuSans-6e" x="824.902344"/>
      <use xlink:href="#DejaVuSans-74" x="888.28125"/>
      <use xlink:href="#DejaVuSans-69" x="927.490234"/>
      <use xlink:href="#DejaVuSans-63" x="955.273438"/>
      <use xlink:href="#DejaVuSans-69" x="1010.253906"/>
      <use xlink:href="#DejaVuSans-70" x="1038.037109"/>
      <use xlink:href="#DejaVuSans-61" x="1101.513672"/>
      <use xlink:href="#DejaVuSans-74" x="1162.792969"/>
      <use xlink:href="#DejaVuSans-69" x="1202.001953"/>
      <use xlink:href="#DejaVuSans-6f" x="1229.785156"/>
      <use xlink:href="#DejaVuSans-6e" x="1290.966797"/>
     </g>
    </g>
   </g>
  </g>
 </g>
 <defs>
  <clipPath id="pefcdc62736">
   <rect x="57.6" y="41.472" width="357.12" height="266.112"/>
  </clipPath>
 </defs>
</svg>
