<?xml version="1.0" encoding="utf-8" standalone="no"?>
<!DOCTYPE svg PUBLIC "-//W3C//DTD SVG 1.1//EN"
  "http://www.w3.org/Graphics/SVG/1.1/DTD/svg11.dtd">
<svg xmlns:xlink="http://www.w3.org/1999/xlink" width="1080pt" height="540pt" viewBox="0 0 1080 540" xmlns="http://www.w3.org/2000/svg" version="1.1">
 <metadata>
  <rdf:RDF xmlns:dc="http://purl.org/dc/elements/1.1/" xmlns:cc="http://creativecommons.org/ns#" xmlns:rdf="http://www.w3.org/1999/02/22-rdf-syntax-ns#">
   <cc:Work>
    <dc:type rdf:resource="http://purl.org/dc/dcmitype/StillImage"/>
    <dc:date>2022-09-12T15:33:24.033645</dc:date>
    <dc:format>image/svg+xml</dc:format>
    <dc:creator>
     <cc:Agent>
      <dc:title>Matplotlib v3.5.2, https://matplotlib.org/</dc:title>
     </cc:Agent>
    </dc:creator>
   </cc:Work>
  </rdf:RDF>
 </metadata>
 <defs>
  <style type="text/css">*{stroke-linejoin: round; stroke-linecap: butt}</style>
 </defs>
 <g id="figure_1">
  <g id="patch_1">
   <path d="M 0 540 
L 1080 540 
L 1080 0 
L 0 0 
z
" style="fill: #ffffff"/>
  </g>
  <g id="axes_1">
   <g id="patch_2">
    <path d="M 135 253.8 
L 972 253.8 
L 972 64.8 
L 135 64.8 
z
" style="fill: #ffffff"/>
   </g>
   <g id="matplotlib.axis_1">
    <g id="xtick_1">
     <g id="line2d_1">
      <path d="M 173.045455 253.8 
L 173.045455 64.8 
" clip-path="url(#peaab476aba)" style="fill: none; stroke-dasharray: 0.8,1.32; stroke-dashoffset: 0; stroke: #b0b0b0; stroke-width: 0.8"/>
     </g>
     <g id="line2d_2">
      <defs>
       <path id="mfdbea9706b" d="M 0 0 
L 0 3.5 
" style="stroke: #000000; stroke-width: 0.8"/>
      </defs>
      <g>
       <use xlink:href="#mfdbea9706b" x="173.045455" y="253.8" style="stroke: #000000; stroke-width: 0.8"/>
      </g>
     </g>
     <g id="text_1">
      <!-- 0 -->
      <g transform="translate(169.864205 268.398438)scale(0.1 -0.1)">
       <defs>
        <path id="DejaVuSans-30" d="M 2034 4250 
Q 1547 4250 1301 3770 
Q 1056 3291 1056 2328 
Q 1056 1369 1301 889 
Q 1547 409 2034 409 
Q 2525 409 2770 889 
Q 3016 1369 3016 2328 
Q 3016 3291 2770 3770 
Q 2525 4250 2034 4250 
z
M 2034 4750 
Q 2819 4750 3233 4129 
Q 3647 3509 3647 2328 
Q 3647 1150 3233 529 
Q 2819 -91 2034 -91 
Q 1250 -91 836 529 
Q 422 1150 422 2328 
Q 422 3509 836 4129 
Q 1250 4750 2034 4750 
z
" transform="scale(0.015625)"/>
       </defs>
       <use xlink:href="#DejaVuSans-30"/>
      </g>
     </g>
    </g>
    <g id="xtick_2">
     <g id="line2d_3">
      <path d="M 350.827952 253.8 
L 350.827952 64.8 
" clip-path="url(#peaab476aba)" style="fill: none; stroke-dasharray: 0.8,1.32; stroke-dashoffset: 0; stroke: #b0b0b0; stroke-width: 0.8"/>
     </g>
     <g id="line2d_4">
      <g>
       <use xlink:href="#mfdbea9706b" x="350.827952" y="253.8" style="stroke: #000000; stroke-width: 0.8"/>
      </g>
     </g>
     <g id="text_2">
      <!-- 50 -->
      <g transform="translate(344.465452 268.398438)scale(0.1 -0.1)">
       <defs>
        <path id="DejaVuSans-35" d="M 691 4666 
L 3169 4666 
L 3169 4134 
L 1269 4134 
L 1269 2991 
Q 1406 3038 1543 3061 
Q 1681 3084 1819 3084 
Q 2600 3084 3056 2656 
Q 3513 2228 3513 1497 
Q 3513 744 3044 326 
Q 2575 -91 1722 -91 
Q 1428 -91 1123 -41 
Q 819 9 494 109 
L 494 744 
Q 775 591 1075 516 
Q 1375 441 1709 441 
Q 2250 441 2565 725 
Q 2881 1009 2881 1497 
Q 2881 1984 2565 2268 
Q 2250 2553 1709 2553 
Q 1456 2553 1204 2497 
Q 953 2441 691 2322 
L 691 4666 
z
" transform="scale(0.015625)"/>
       </defs>
       <use xlink:href="#DejaVuSans-35"/>
       <use xlink:href="#DejaVuSans-30" x="63.623047"/>
      </g>
     </g>
    </g>
    <g id="xtick_3">
     <g id="line2d_5">
      <path d="M 528.61045 253.8 
L 528.61045 64.8 
" clip-path="url(#peaab476aba)" style="fill: none; stroke-dasharray: 0.8,1.32; stroke-dashoffset: 0; stroke: #b0b0b0; stroke-width: 0.8"/>
     </g>
     <g id="line2d_6">
      <g>
       <use xlink:href="#mfdbea9706b" x="528.61045" y="253.8" style="stroke: #000000; stroke-width: 0.8"/>
      </g>
     </g>
     <g id="text_3">
      <!-- 100 -->
      <g transform="translate(519.0667 268.398438)scale(0.1 -0.1)">
       <defs>
        <path id="DejaVuSans-31" d="M 794 531 
L 1825 531 
L 1825 4091 
L 703 3866 
L 703 4441 
L 1819 4666 
L 2450 4666 
L 2450 531 
L 3481 531 
L 3481 0 
L 794 0 
L 794 531 
z
" transform="scale(0.015625)"/>
       </defs>
       <use xlink:href="#DejaVuSans-31"/>
       <use xlink:href="#DejaVuSans-30" x="63.623047"/>
       <use xlink:href="#DejaVuSans-30" x="127.246094"/>
      </g>
     </g>
    </g>
    <g id="xtick_4">
     <g id="line2d_7">
      <path d="M 706.392948 253.8 
L 706.392948 64.8 
" clip-path="url(#peaab476aba)" style="fill: none; stroke-dasharray: 0.8,1.32; stroke-dashoffset: 0; stroke: #b0b0b0; stroke-width: 0.8"/>
     </g>
     <g id="line2d_8">
      <g>
       <use xlink:href="#mfdbea9706b" x="706.392948" y="253.8" style="stroke: #000000; stroke-width: 0.8"/>
      </g>
     </g>
     <g id="text_4">
      <!-- 150 -->
      <g transform="translate(696.849198 268.398438)scale(0.1 -0.1)">
       <use xlink:href="#DejaVuSans-31"/>
       <use xlink:href="#DejaVuSans-35" x="63.623047"/>
       <use xlink:href="#DejaVuSans-30" x="127.246094"/>
      </g>
     </g>
    </g>
    <g id="xtick_5">
     <g id="line2d_9">
      <path d="M 884.175446 253.8 
L 884.175446 64.8 
" clip-path="url(#peaab476aba)" style="fill: none; stroke-dasharray: 0.8,1.32; stroke-dashoffset: 0; stroke: #b0b0b0; stroke-width: 0.8"/>
     </g>
     <g id="line2d_10">
      <g>
       <use xlink:href="#mfdbea9706b" x="884.175446" y="253.8" style="stroke: #000000; stroke-width: 0.8"/>
      </g>
     </g>
     <g id="text_5">
      <!-- 200 -->
      <g transform="translate(874.631696 268.398438)scale(0.1 -0.1)">
       <defs>
        <path id="DejaVuSans-32" d="M 1228 531 
L 3431 531 
L 3431 0 
L 469 0 
L 469 531 
Q 828 903 1448 1529 
Q 2069 2156 2228 2338 
Q 2531 2678 2651 2914 
Q 2772 3150 2772 3378 
Q 2772 3750 2511 3984 
Q 2250 4219 1831 4219 
Q 1534 4219 1204 4116 
Q 875 4013 500 3803 
L 500 4441 
Q 881 4594 1212 4672 
Q 1544 4750 1819 4750 
Q 2544 4750 2975 4387 
Q 3406 4025 3406 3419 
Q 3406 3131 3298 2873 
Q 3191 2616 2906 2266 
Q 2828 2175 2409 1742 
Q 1991 1309 1228 531 
z
" transform="scale(0.015625)"/>
       </defs>
       <use xlink:href="#DejaVuSans-32"/>
       <use xlink:href="#DejaVuSans-30" x="63.623047"/>
       <use xlink:href="#DejaVuSans-30" x="127.246094"/>
      </g>
     </g>
    </g>
    <g id="text_6">
     <!-- Number of Orders -->
     <g transform="translate(508.601562 282.076563)scale(0.1 -0.1)">
      <defs>
       <path id="DejaVuSans-4e" d="M 628 4666 
L 1478 4666 
L 3547 763 
L 3547 4666 
L 4159 4666 
L 4159 0 
L 3309 0 
L 1241 3903 
L 1241 0 
L 628 0 
L 628 4666 
z
" transform="scale(0.015625)"/>
       <path id="DejaVuSans-75" d="M 544 1381 
L 544 3500 
L 1119 3500 
L 1119 1403 
Q 1119 906 1312 657 
Q 1506 409 1894 409 
Q 2359 409 2629 706 
Q 2900 1003 2900 1516 
L 2900 3500 
L 3475 3500 
L 3475 0 
L 2900 0 
L 2900 538 
Q 2691 219 2414 64 
Q 2138 -91 1772 -91 
Q 1169 -91 856 284 
Q 544 659 544 1381 
z
M 1991 3584 
L 1991 3584 
z
" transform="scale(0.015625)"/>
       <path id="DejaVuSans-6d" d="M 3328 2828 
Q 3544 3216 3844 3400 
Q 4144 3584 4550 3584 
Q 5097 3584 5394 3201 
Q 5691 2819 5691 2113 
L 5691 0 
L 5113 0 
L 5113 2094 
Q 5113 2597 4934 2840 
Q 4756 3084 4391 3084 
Q 3944 3084 3684 2787 
Q 3425 2491 3425 1978 
L 3425 0 
L 2847 0 
L 2847 2094 
Q 2847 2600 2669 2842 
Q 2491 3084 2119 3084 
Q 1678 3084 1418 2786 
Q 1159 2488 1159 1978 
L 1159 0 
L 581 0 
L 581 3500 
L 1159 3500 
L 1159 2956 
Q 1356 3278 1631 3431 
Q 1906 3584 2284 3584 
Q 2666 3584 2933 3390 
Q 3200 3197 3328 2828 
z
" transform="scale(0.015625)"/>
       <path id="DejaVuSans-62" d="M 3116 1747 
Q 3116 2381 2855 2742 
Q 2594 3103 2138 3103 
Q 1681 3103 1420 2742 
Q 1159 2381 1159 1747 
Q 1159 1113 1420 752 
Q 1681 391 2138 391 
Q 2594 391 2855 752 
Q 3116 1113 3116 1747 
z
M 1159 2969 
Q 1341 3281 1617 3432 
Q 1894 3584 2278 3584 
Q 2916 3584 3314 3078 
Q 3713 2572 3713 1747 
Q 3713 922 3314 415 
Q 2916 -91 2278 -91 
Q 1894 -91 1617 61 
Q 1341 213 1159 525 
L 1159 0 
L 581 0 
L 581 4863 
L 1159 4863 
L 1159 2969 
z
" transform="scale(0.015625)"/>
       <path id="DejaVuSans-65" d="M 3597 1894 
L 3597 1613 
L 953 1613 
Q 991 1019 1311 708 
Q 1631 397 2203 397 
Q 2534 397 2845 478 
Q 3156 559 3463 722 
L 3463 178 
Q 3153 47 2828 -22 
Q 2503 -91 2169 -91 
Q 1331 -91 842 396 
Q 353 884 353 1716 
Q 353 2575 817 3079 
Q 1281 3584 2069 3584 
Q 2775 3584 3186 3129 
Q 3597 2675 3597 1894 
z
M 3022 2063 
Q 3016 2534 2758 2815 
Q 2500 3097 2075 3097 
Q 1594 3097 1305 2825 
Q 1016 2553 972 2059 
L 3022 2063 
z
" transform="scale(0.015625)"/>
       <path id="DejaVuSans-72" d="M 2631 2963 
Q 2534 3019 2420 3045 
Q 2306 3072 2169 3072 
Q 1681 3072 1420 2755 
Q 1159 2438 1159 1844 
L 1159 0 
L 581 0 
L 581 3500 
L 1159 3500 
L 1159 2956 
Q 1341 3275 1631 3429 
Q 1922 3584 2338 3584 
Q 2397 3584 2469 3576 
Q 2541 3569 2628 3553 
L 2631 2963 
z
" transform="scale(0.015625)"/>
       <path id="DejaVuSans-20" transform="scale(0.015625)"/>
       <path id="DejaVuSans-6f" d="M 1959 3097 
Q 1497 3097 1228 2736 
Q 959 2375 959 1747 
Q 959 1119 1226 758 
Q 1494 397 1959 397 
Q 2419 397 2687 759 
Q 2956 1122 2956 1747 
Q 2956 2369 2687 2733 
Q 2419 3097 1959 3097 
z
M 1959 3584 
Q 2709 3584 3137 3096 
Q 3566 2609 3566 1747 
Q 3566 888 3137 398 
Q 2709 -91 1959 -91 
Q 1206 -91 779 398 
Q 353 888 353 1747 
Q 353 2609 779 3096 
Q 1206 3584 1959 3584 
z
" transform="scale(0.015625)"/>
       <path id="DejaVuSans-66" d="M 2375 4863 
L 2375 4384 
L 1825 4384 
Q 1516 4384 1395 4259 
Q 1275 4134 1275 3809 
L 1275 3500 
L 2222 3500 
L 2222 3053 
L 1275 3053 
L 1275 0 
L 697 0 
L 697 3053 
L 147 3053 
L 147 3500 
L 697 3500 
L 697 3744 
Q 697 4328 969 4595 
Q 1241 4863 1831 4863 
L 2375 4863 
z
" transform="scale(0.015625)"/>
       <path id="DejaVuSans-4f" d="M 2522 4238 
Q 1834 4238 1429 3725 
Q 1025 3213 1025 2328 
Q 1025 1447 1429 934 
Q 1834 422 2522 422 
Q 3209 422 3611 934 
Q 4013 1447 4013 2328 
Q 4013 3213 3611 3725 
Q 3209 4238 2522 4238 
z
M 2522 4750 
Q 3503 4750 4090 4092 
Q 4678 3434 4678 2328 
Q 4678 1225 4090 567 
Q 3503 -91 2522 -91 
Q 1538 -91 948 565 
Q 359 1222 359 2328 
Q 359 3434 948 4092 
Q 1538 4750 2522 4750 
z
" transform="scale(0.015625)"/>
       <path id="DejaVuSans-64" d="M 2906 2969 
L 2906 4863 
L 3481 4863 
L 3481 0 
L 2906 0 
L 2906 525 
Q 2725 213 2448 61 
Q 2172 -91 1784 -91 
Q 1150 -91 751 415 
Q 353 922 353 1747 
Q 353 2572 751 3078 
Q 1150 3584 1784 3584 
Q 2172 3584 2448 3432 
Q 2725 3281 2906 2969 
z
M 947 1747 
Q 947 1113 1208 752 
Q 1469 391 1925 391 
Q 2381 391 2643 752 
Q 2906 1113 2906 1747 
Q 2906 2381 2643 2742 
Q 2381 3103 1925 3103 
Q 1469 3103 1208 2742 
Q 947 2381 947 1747 
z
" transform="scale(0.015625)"/>
       <path id="DejaVuSans-73" d="M 2834 3397 
L 2834 2853 
Q 2591 2978 2328 3040 
Q 2066 3103 1784 3103 
Q 1356 3103 1142 2972 
Q 928 2841 928 2578 
Q 928 2378 1081 2264 
Q 1234 2150 1697 2047 
L 1894 2003 
Q 2506 1872 2764 1633 
Q 3022 1394 3022 966 
Q 3022 478 2636 193 
Q 2250 -91 1575 -91 
Q 1294 -91 989 -36 
Q 684 19 347 128 
L 347 722 
Q 666 556 975 473 
Q 1284 391 1588 391 
Q 1994 391 2212 530 
Q 2431 669 2431 922 
Q 2431 1156 2273 1281 
Q 2116 1406 1581 1522 
L 1381 1569 
Q 847 1681 609 1914 
Q 372 2147 372 2553 
Q 372 3047 722 3315 
Q 1072 3584 1716 3584 
Q 2034 3584 2315 3537 
Q 2597 3491 2834 3397 
z
" transform="scale(0.015625)"/>
      </defs>
      <use xlink:href="#DejaVuSans-4e"/>
      <use xlink:href="#DejaVuSans-75" x="74.804688"/>
      <use xlink:href="#DejaVuSans-6d" x="138.183594"/>
      <use xlink:href="#DejaVuSans-62" x="235.595703"/>
      <use xlink:href="#DejaVuSans-65" x="299.072266"/>
      <use xlink:href="#DejaVuSans-72" x="360.595703"/>
      <use xlink:href="#DejaVuSans-20" x="401.708984"/>
      <use xlink:href="#DejaVuSans-6f" x="433.496094"/>
      <use xlink:href="#DejaVuSans-66" x="494.677734"/>
      <use xlink:href="#DejaVuSans-20" x="529.882812"/>
      <use xlink:href="#DejaVuSans-4f" x="561.669922"/>
      <use xlink:href="#DejaVuSans-72" x="640.380859"/>
      <use xlink:href="#DejaVuSans-64" x="679.744141"/>
      <use xlink:href="#DejaVuSans-65" x="743.220703"/>
      <use xlink:href="#DejaVuSans-72" x="804.744141"/>
      <use xlink:href="#DejaVuSans-73" x="845.857422"/>
     </g>
    </g>
   </g>
   <g id="matplotlib.axis_2">
    <g id="ytick_1">
     <g id="line2d_11">
      <path d="M 135 236.90497 
L 972 236.90497 
" clip-path="url(#peaab476aba)" style="fill: none; stroke-dasharray: 0.8,1.32; stroke-dashoffset: 0; stroke: #b0b0b0; stroke-width: 0.8"/>
     </g>
     <g id="line2d_12">
      <defs>
       <path id="m7bb92ee321" d="M 0 0 
L -3.5 0 
" style="stroke: #000000; stroke-width: 0.8"/>
      </defs>
      <g>
       <use xlink:href="#m7bb92ee321" x="135" y="236.90497" style="stroke: #000000; stroke-width: 0.8"/>
      </g>
     </g>
     <g id="text_7">
      <!-- 20 -->
      <g transform="translate(115.275 240.704188)scale(0.1 -0.1)">
       <use xlink:href="#DejaVuSans-32"/>
       <use xlink:href="#DejaVuSans-30" x="63.623047"/>
      </g>
     </g>
    </g>
    <g id="ytick_2">
     <g id="line2d_13">
      <path d="M 135 198.664847 
L 972 198.664847 
" clip-path="url(#peaab476aba)" style="fill: none; stroke-dasharray: 0.8,1.32; stroke-dashoffset: 0; stroke: #b0b0b0; stroke-width: 0.8"/>
     </g>
     <g id="line2d_14">
      <g>
       <use xlink:href="#m7bb92ee321" x="135" y="198.664847" style="stroke: #000000; stroke-width: 0.8"/>
      </g>
     </g>
     <g id="text_8">
      <!-- 30 -->
      <g transform="translate(115.275 202.464066)scale(0.1 -0.1)">
       <defs>
        <path id="DejaVuSans-33" d="M 2597 2516 
Q 3050 2419 3304 2112 
Q 3559 1806 3559 1356 
Q 3559 666 3084 287 
Q 2609 -91 1734 -91 
Q 1441 -91 1130 -33 
Q 819 25 488 141 
L 488 750 
Q 750 597 1062 519 
Q 1375 441 1716 441 
Q 2309 441 2620 675 
Q 2931 909 2931 1356 
Q 2931 1769 2642 2001 
Q 2353 2234 1838 2234 
L 1294 2234 
L 1294 2753 
L 1863 2753 
Q 2328 2753 2575 2939 
Q 2822 3125 2822 3475 
Q 2822 3834 2567 4026 
Q 2313 4219 1838 4219 
Q 1578 4219 1281 4162 
Q 984 4106 628 3988 
L 628 4550 
Q 988 4650 1302 4700 
Q 1616 4750 1894 4750 
Q 2613 4750 3031 4423 
Q 3450 4097 3450 3541 
Q 3450 3153 3228 2886 
Q 3006 2619 2597 2516 
z
" transform="scale(0.015625)"/>
       </defs>
       <use xlink:href="#DejaVuSans-33"/>
       <use xlink:href="#DejaVuSans-30" x="63.623047"/>
      </g>
     </g>
    </g>
    <g id="ytick_3">
     <g id="line2d_15">
      <path d="M 135 160.424724 
L 972 160.424724 
" clip-path="url(#peaab476aba)" style="fill: none; stroke-dasharray: 0.8,1.32; stroke-dashoffset: 0; stroke: #b0b0b0; stroke-width: 0.8"/>
     </g>
     <g id="line2d_16">
      <g>
       <use xlink:href="#m7bb92ee321" x="135" y="160.424724" style="stroke: #000000; stroke-width: 0.8"/>
      </g>
     </g>
     <g id="text_9">
      <!-- 40 -->
      <g transform="translate(115.275 164.223943)scale(0.1 -0.1)">
       <defs>
        <path id="DejaVuSans-34" d="M 2419 4116 
L 825 1625 
L 2419 1625 
L 2419 4116 
z
M 2253 4666 
L 3047 4666 
L 3047 1625 
L 3713 1625 
L 3713 1100 
L 3047 1100 
L 3047 0 
L 2419 0 
L 2419 1100 
L 313 1100 
L 313 1709 
L 2253 4666 
z
" transform="scale(0.015625)"/>
       </defs>
       <use xlink:href="#DejaVuSans-34"/>
       <use xlink:href="#DejaVuSans-30" x="63.623047"/>
      </g>
     </g>
    </g>
    <g id="ytick_4">
     <g id="line2d_17">
      <path d="M 135 122.184601 
L 972 122.184601 
" clip-path="url(#peaab476aba)" style="fill: none; stroke-dasharray: 0.8,1.32; stroke-dashoffset: 0; stroke: #b0b0b0; stroke-width: 0.8"/>
     </g>
     <g id="line2d_18">
      <g>
       <use xlink:href="#m7bb92ee321" x="135" y="122.184601" style="stroke: #000000; stroke-width: 0.8"/>
      </g>
     </g>
     <g id="text_10">
      <!-- 50 -->
      <g transform="translate(115.275 125.98382)scale(0.1 -0.1)">
       <use xlink:href="#DejaVuSans-35"/>
       <use xlink:href="#DejaVuSans-30" x="63.623047"/>
      </g>
     </g>
    </g>
    <g id="ytick_5">
     <g id="line2d_19">
      <path d="M 135 83.944478 
L 972 83.944478 
" clip-path="url(#peaab476aba)" style="fill: none; stroke-dasharray: 0.8,1.32; stroke-dashoffset: 0; stroke: #b0b0b0; stroke-width: 0.8"/>
     </g>
     <g id="line2d_20">
      <g>
       <use xlink:href="#m7bb92ee321" x="135" y="83.944478" style="stroke: #000000; stroke-width: 0.8"/>
      </g>
     </g>
     <g id="text_11">
      <!-- 60 -->
      <g transform="translate(115.275 87.743697)scale(0.1 -0.1)">
       <defs>
        <path id="DejaVuSans-36" d="M 2113 2584 
Q 1688 2584 1439 2293 
Q 1191 2003 1191 1497 
Q 1191 994 1439 701 
Q 1688 409 2113 409 
Q 2538 409 2786 701 
Q 3034 994 3034 1497 
Q 3034 2003 2786 2293 
Q 2538 2584 2113 2584 
z
M 3366 4563 
L 3366 3988 
Q 3128 4100 2886 4159 
Q 2644 4219 2406 4219 
Q 1781 4219 1451 3797 
Q 1122 3375 1075 2522 
Q 1259 2794 1537 2939 
Q 1816 3084 2150 3084 
Q 2853 3084 3261 2657 
Q 3669 2231 3669 1497 
Q 3669 778 3244 343 
Q 2819 -91 2113 -91 
Q 1303 -91 875 529 
Q 447 1150 447 2328 
Q 447 3434 972 4092 
Q 1497 4750 2381 4750 
Q 2619 4750 2861 4703 
Q 3103 4656 3366 4563 
z
" transform="scale(0.015625)"/>
       </defs>
       <use xlink:href="#DejaVuSans-36"/>
       <use xlink:href="#DejaVuSans-30" x="63.623047"/>
      </g>
     </g>
    </g>
    <g id="text_12">
     <!-- Waiting Time -->
     <g transform="translate(109.195312 191.892969)rotate(-90)scale(0.1 -0.1)">
      <defs>
       <path id="DejaVuSans-57" d="M 213 4666 
L 850 4666 
L 1831 722 
L 2809 4666 
L 3519 4666 
L 4500 722 
L 5478 4666 
L 6119 4666 
L 4947 0 
L 4153 0 
L 3169 4050 
L 2175 0 
L 1381 0 
L 213 4666 
z
" transform="scale(0.015625)"/>
       <path id="DejaVuSans-61" d="M 2194 1759 
Q 1497 1759 1228 1600 
Q 959 1441 959 1056 
Q 959 750 1161 570 
Q 1363 391 1709 391 
Q 2188 391 2477 730 
Q 2766 1069 2766 1631 
L 2766 1759 
L 2194 1759 
z
M 3341 1997 
L 3341 0 
L 2766 0 
L 2766 531 
Q 2569 213 2275 61 
Q 1981 -91 1556 -91 
Q 1019 -91 701 211 
Q 384 513 384 1019 
Q 384 1609 779 1909 
Q 1175 2209 1959 2209 
L 2766 2209 
L 2766 2266 
Q 2766 2663 2505 2880 
Q 2244 3097 1772 3097 
Q 1472 3097 1187 3025 
Q 903 2953 641 2809 
L 641 3341 
Q 956 3463 1253 3523 
Q 1550 3584 1831 3584 
Q 2591 3584 2966 3190 
Q 3341 2797 3341 1997 
z
" transform="scale(0.015625)"/>
       <path id="DejaVuSans-69" d="M 603 3500 
L 1178 3500 
L 1178 0 
L 603 0 
L 603 3500 
z
M 603 4863 
L 1178 4863 
L 1178 4134 
L 603 4134 
L 603 4863 
z
" transform="scale(0.015625)"/>
       <path id="DejaVuSans-74" d="M 1172 4494 
L 1172 3500 
L 2356 3500 
L 2356 3053 
L 1172 3053 
L 1172 1153 
Q 1172 725 1289 603 
Q 1406 481 1766 481 
L 2356 481 
L 2356 0 
L 1766 0 
Q 1100 0 847 248 
Q 594 497 594 1153 
L 594 3053 
L 172 3053 
L 172 3500 
L 594 3500 
L 594 4494 
L 1172 4494 
z
" transform="scale(0.015625)"/>
       <path id="DejaVuSans-6e" d="M 3513 2113 
L 3513 0 
L 2938 0 
L 2938 2094 
Q 2938 2591 2744 2837 
Q 2550 3084 2163 3084 
Q 1697 3084 1428 2787 
Q 1159 2491 1159 1978 
L 1159 0 
L 581 0 
L 581 3500 
L 1159 3500 
L 1159 2956 
Q 1366 3272 1645 3428 
Q 1925 3584 2291 3584 
Q 2894 3584 3203 3211 
Q 3513 2838 3513 2113 
z
" transform="scale(0.015625)"/>
       <path id="DejaVuSans-67" d="M 2906 1791 
Q 2906 2416 2648 2759 
Q 2391 3103 1925 3103 
Q 1463 3103 1205 2759 
Q 947 2416 947 1791 
Q 947 1169 1205 825 
Q 1463 481 1925 481 
Q 2391 481 2648 825 
Q 2906 1169 2906 1791 
z
M 3481 434 
Q 3481 -459 3084 -895 
Q 2688 -1331 1869 -1331 
Q 1566 -1331 1297 -1286 
Q 1028 -1241 775 -1147 
L 775 -588 
Q 1028 -725 1275 -790 
Q 1522 -856 1778 -856 
Q 2344 -856 2625 -561 
Q 2906 -266 2906 331 
L 2906 616 
Q 2728 306 2450 153 
Q 2172 0 1784 0 
Q 1141 0 747 490 
Q 353 981 353 1791 
Q 353 2603 747 3093 
Q 1141 3584 1784 3584 
Q 2172 3584 2450 3431 
Q 2728 3278 2906 2969 
L 2906 3500 
L 3481 3500 
L 3481 434 
z
" transform="scale(0.015625)"/>
       <path id="DejaVuSans-54" d="M -19 4666 
L 3928 4666 
L 3928 4134 
L 2272 4134 
L 2272 0 
L 1638 0 
L 1638 4134 
L -19 4134 
L -19 4666 
z
" transform="scale(0.015625)"/>
      </defs>
      <use xlink:href="#DejaVuSans-57"/>
      <use xlink:href="#DejaVuSans-61" x="92.501953"/>
      <use xlink:href="#DejaVuSans-69" x="153.78125"/>
      <use xlink:href="#DejaVuSans-74" x="181.564453"/>
      <use xlink:href="#DejaVuSans-69" x="220.773438"/>
      <use xlink:href="#DejaVuSans-6e" x="248.556641"/>
      <use xlink:href="#DejaVuSans-67" x="311.935547"/>
      <use xlink:href="#DejaVuSans-20" x="375.412109"/>
      <use xlink:href="#DejaVuSans-54" x="407.199219"/>
      <use xlink:href="#DejaVuSans-69" x="465.158203"/>
      <use xlink:href="#DejaVuSans-6d" x="492.941406"/>
      <use xlink:href="#DejaVuSans-65" x="590.353516"/>
     </g>
    </g>
   </g>
   <g id="line2d_21">
    <path d="M 173.045455 143.103302 
L 176.601105 168.824134 
L 180.156754 232.764472 
L 183.712404 164.808109 
L 187.268054 112.077506 
L 190.823704 197.779411 
L 194.379354 178.594684 
L 197.935004 202.488859 
L 201.490654 240.258224 
L 205.046304 170.517517 
L 208.601954 178.594684 
L 212.157604 236.90497 
L 215.713254 123.447016 
L 219.268904 223.129634 
L 226.380204 155.430974 
L 229.935854 177.190998 
L 233.491504 120.393833 
L 237.047154 190.904448 
L 240.602804 236.90497 
L 244.158454 166.018472 
L 247.714104 235.432095 
L 251.269754 153.987657 
L 254.825404 125.783866 
L 258.381054 163.455495 
L 261.936703 196.169771 
L 265.492353 77.931127 
L 269.048003 121.693842 
L 272.603653 177.190998 
L 276.159303 196.29205 
L 279.714953 201.945331 
L 283.270603 144.536873 
L 286.826253 135.099145 
L 290.381903 218.169241 
L 293.937553 229.256945 
L 297.493203 151.021247 
L 301.048853 240.258224 
L 304.604503 162.982797 
L 308.160153 207.654677 
L 311.715803 103.639221 
L 318.827103 209.977825 
L 322.382753 140.415836 
L 325.938403 217.784908 
L 329.494053 194.364686 
L 333.049703 123.006556 
L 336.605353 143.103302 
L 340.161003 152.141319 
L 343.716653 85.010003 
L 347.272302 110.662257 
L 350.827952 183.873712 
L 354.383602 167.080774 
L 357.939252 141.304663 
L 361.494902 128.736534 
L 365.050552 118.946058 
L 368.606202 116.828883 
L 372.161852 207.05378 
L 375.717502 196.537361 
L 379.273152 154.995813 
L 382.828802 147.86563 
L 386.384452 191.016822 
L 389.940102 245.209091 
L 393.495752 206.312871 
L 397.051402 188.263361 
L 400.607052 179.832126 
L 404.162702 214.839158 
L 407.718352 125.95239 
L 411.274002 177.283799 
L 414.829652 186.243355 
L 418.385302 125.503475 
L 421.940952 180.60372 
L 425.496602 166.752565 
L 429.052251 141.432201 
L 432.607901 189.132136 
L 436.163551 149.981923 
L 439.719201 216.654415 
L 443.274851 174.905481 
L 446.830501 162.668994 
L 450.386151 171.376911 
L 453.941801 151.579781 
L 457.497451 202.900155 
L 461.053101 215.375223 
L 464.608751 213.271274 
L 468.164401 156.600712 
L 471.720051 178.689169 
L 475.275701 150.812561 
L 478.831351 163.613599 
L 482.387001 240.258224 
L 485.942651 139.91099 
L 489.498301 230.372777 
L 493.053951 211.429768 
L 496.609601 98.821379 
L 500.165251 164.08954 
L 503.720901 164.169104 
L 507.276551 239.801121 
L 510.832201 162.982797 
L 514.38785 80.245206 
L 517.9435 136.497882 
L 521.49915 182.468686 
L 525.0548 176.45249 
L 528.61045 132.467413 
L 532.1661 160.195558 
L 535.72175 154.418499 
L 539.2774 147.326179 
L 542.83305 102.634942 
L 546.3887 131.172348 
L 549.94435 148.06862 
L 553.5 105.182408 
L 557.05565 117.883414 
L 560.6113 231.539405 
L 564.16695 173.298997 
L 567.7226 180.120555 
L 571.27825 149.36319 
L 574.8339 194.364686 
L 578.38955 144.340302 
L 581.9452 125.783866 
L 585.50085 88.116488 
L 589.0565 217.027604 
L 592.61215 182.967379 
L 596.167799 209.819315 
L 599.723449 135.099145 
L 603.279099 120.393833 
L 606.834749 178.689169 
L 610.390399 137.04969 
L 613.946049 131.465498 
L 617.501699 182.568154 
L 621.057349 136.009516 
L 624.612999 158.531465 
L 628.168649 91.548044 
L 631.724299 140.986436 
L 635.279949 73.390909 
L 638.835599 136.009516 
L 642.391249 217.027604 
L 645.946899 170.517517 
L 649.502549 76.011912 
L 653.058199 243.932442 
L 656.613849 185.825497 
L 660.169499 207.05378 
L 663.725149 97.709075 
L 667.280799 156.747898 
L 670.836449 150.812561 
L 674.392099 190.904448 
L 677.947749 155.649261 
L 681.503398 181.776143 
L 685.059048 226.15854 
L 688.614698 136.926845 
L 692.170348 146.455234 
L 695.725998 190.012344 
L 699.281648 200.346572 
L 702.837298 152.493827 
L 706.392948 155.649261 
L 709.948598 125.503475 
L 713.504248 171.118179 
L 717.059898 225.194858 
L 720.615548 153.060349 
L 724.171198 90.926871 
L 727.726848 148.952687 
L 731.282498 112.688318 
L 734.838148 230.372777 
L 738.393798 208.110294 
L 741.949448 231.539405 
L 745.505098 225.194858 
L 749.060748 194.364686 
L 752.616398 145.723652 
L 756.172048 160.424724 
L 759.727698 193.306566 
L 763.283347 207.654677 
L 766.838997 206.312871 
L 770.394647 168.656601 
L 773.950297 192.380782 
L 777.505947 109.659743 
L 781.061597 219.747265 
L 784.617247 184.894291 
L 788.172897 115.41781 
L 791.728547 191.016822 
L 795.284197 136.926845 
L 798.839847 134.015666 
L 802.395497 166.752565 
L 805.951147 185.513729 
L 809.506797 238.923528 
L 813.062447 184.178363 
L 816.618097 125.783866 
L 820.173747 79.954283 
L 823.729397 213.960896 
L 827.285047 206.166011 
L 830.840697 143.038571 
L 834.396347 243.932442 
L 837.951997 219.949371 
L 841.507647 216.101171 
L 845.063297 231.839854 
L 848.618946 178.689169 
L 852.174596 136.009516 
L 855.730246 117.039149 
L 859.285896 127.535942 
L 862.841546 213.271274 
L 866.397196 207.353301 
L 869.952846 197.779411 
L 873.508496 191.129391 
L 877.064146 160.195558 
L 880.619796 179.544785 
L 884.175446 133.596902 
L 887.731096 167.327728 
L 891.286746 235.432095 
L 894.842396 238.923528 
L 898.398046 144.865263 
L 901.953696 164.08954 
L 905.509346 190.012344 
L 909.064996 146.521984 
L 912.620646 189.241528 
L 916.176296 192.957805 
L 919.731946 103.78323 
L 923.287596 179.449245 
L 926.843246 232.764472 
L 930.398895 106.106191 
L 933.954545 202.352461 
L 933.954545 202.352461 
" clip-path="url(#peaab476aba)" style="fill: none; stroke: #000000; stroke-width: 1.5; stroke-linecap: square"/>
   </g>
   <g id="line2d_22">
    <path d="M 205.046304 181.121622 
L 208.601954 184.67076 
L 212.157604 191.478844 
L 215.713254 180.547098 
L 219.268904 186.37925 
L 222.824554 194.095653 
L 226.380204 189.860809 
L 229.935854 189.72044 
L 233.491504 181.510938 
L 237.047154 176.57556 
L 240.602804 183.214305 
L 244.158454 181.956684 
L 247.714104 181.809397 
L 251.269754 184.863461 
L 254.825404 175.128884 
L 258.381054 172.550281 
L 261.936703 176.62416 
L 265.492353 166.698173 
L 269.048003 166.828174 
L 272.603653 165.456829 
L 276.159303 161.395537 
L 279.714953 164.988223 
L 283.270603 155.898701 
L 286.826253 154.00985 
L 290.381903 163.248387 
L 293.937553 169.828532 
L 297.493203 165.31368 
L 301.048853 181.54639 
L 304.604503 185.675285 
L 308.160153 188.721653 
L 311.715803 179.45637 
L 315.271453 174.943994 
L 318.827103 181.488089 
L 322.382753 182.019759 
L 325.938403 181.981325 
L 329.494053 178.492099 
L 333.049703 175.69063 
L 336.605353 165.975138 
L 340.161003 164.89099 
L 343.716653 152.626523 
L 347.272302 153.328827 
L 350.827952 156.03404 
L 354.383602 151.744335 
L 357.939252 151.833218 
L 361.494902 142.92838 
L 365.050552 135.386518 
L 368.606202 134.76875 
L 372.161852 141.163798 
L 375.717502 145.603402 
L 379.273152 152.601983 
L 382.828802 156.322321 
L 386.384452 157.036632 
L 389.940102 164.849463 
L 393.495752 171.350284 
L 400.607052 183.391574 
L 404.162702 193.192601 
L 407.718352 185.082462 
L 411.274002 183.157106 
L 414.829652 186.28186 
L 418.385302 184.045645 
L 421.940952 183.004335 
L 425.496602 175.158682 
L 429.052251 168.670615 
L 432.607901 168.757493 
L 436.163551 165.772472 
L 439.719201 165.953998 
L 443.274851 170.849307 
L 450.386151 167.901182 
L 453.941801 170.508813 
L 457.497451 172.738456 
L 461.053101 177.600722 
L 464.608751 184.784629 
L 468.164401 181.531487 
L 471.720051 184.402211 
L 475.275701 177.818026 
L 478.831351 176.688838 
L 482.387001 184.447761 
L 485.942651 181.301169 
L 489.498301 189.180468 
L 493.053951 190.03343 
L 496.609601 178.378045 
L 500.165251 173.459872 
L 503.720901 174.216711 
L 507.276551 180.327906 
L 510.832201 181.54493 
L 514.38785 173.208091 
L 517.9435 162.832056 
L 521.49915 167.087826 
L 525.0548 161.695797 
L 528.61045 153.799562 
L 532.1661 159.93698 
L 535.72175 158.969876 
L 539.2774 157.285583 
L 542.83305 143.568965 
L 546.3887 140.38792 
L 549.94435 147.170262 
L 553.5 144.038714 
L 557.05565 137.580187 
L 560.6113 143.088879 
L 564.16695 147.172037 
L 567.7226 149.164537 
L 571.27825 148.659006 
L 574.8339 153.362856 
L 578.38955 157.533392 
L 581.9452 156.994544 
L 585.50085 150.999331 
L 589.0565 162.183851 
L 592.61215 168.692247 
L 596.167799 166.520238 
L 599.723449 162.700253 
L 603.279099 156.727581 
L 606.834749 159.660179 
L 610.390399 153.928679 
L 613.946049 152.641199 
L 617.501699 158.319628 
L 621.057349 163.10893 
L 624.612999 157.259316 
L 628.168649 148.117383 
L 631.724299 141.234095 
L 635.279949 135.063271 
L 638.835599 136.62484 
L 642.391249 140.458683 
L 645.946899 143.805466 
L 649.502549 138.260107 
L 653.058199 144.396536 
L 660.169499 154.230366 
L 663.725149 154.846469 
L 667.280799 156.422615 
L 670.836449 164.16478 
L 674.392099 169.654273 
L 677.947749 163.516439 
L 681.503398 164.642302 
L 685.059048 179.656965 
L 688.614698 168.956405 
L 692.170348 165.019379 
L 695.725998 163.315235 
L 699.281648 173.578985 
L 702.837298 173.153578 
L 706.392948 173.637248 
L 709.948598 167.09715 
L 713.504248 168.644042 
L 717.059898 172.985914 
L 720.615548 165.676095 
L 724.171198 161.076097 
L 727.726848 161.325842 
L 731.282498 153.59344 
L 734.838148 156.59606 
L 738.393798 162.157707 
L 741.949448 169.746722 
L 745.505098 179.71586 
L 749.060748 182.04051 
L 752.616398 174.09339 
L 756.172048 174.829827 
L 759.727698 185.067797 
L 763.283347 190.937996 
L 766.838997 200.300451 
L 770.394647 194.128834 
L 773.950297 192.555882 
L 777.505947 180.367916 
L 781.061597 179.823157 
L 784.617247 178.876117 
L 788.172897 175.845533 
L 791.728547 178.904743 
L 795.284197 173.266771 
L 798.839847 165.90287 
L 802.395497 161.946839 
L 805.951147 163.632552 
L 809.506797 168.286827 
L 813.062447 175.738688 
L 816.618097 166.342349 
L 820.173747 155.848348 
L 823.729397 165.702656 
L 827.285047 167.217575 
L 830.840697 167.828748 
L 834.396347 178.820425 
L 837.951997 184.140106 
L 841.507647 187.19885 
L 845.063297 186.490483 
L 848.618946 185.941563 
L 852.174596 186.964128 
L 855.730246 190.672615 
L 859.285896 182.03012 
L 862.841546 182.740646 
L 866.397196 189.172119 
L 869.952846 184.556816 
L 873.508496 181.674818 
L 877.064146 176.084256 
L 880.619796 170.85475 
L 884.175446 166.345523 
L 887.731096 169.477344 
L 891.286746 181.316639 
L 894.842396 192.455397 
L 898.398046 185.614796 
L 901.953696 181.28842 
L 905.509346 180.511713 
L 909.064996 176.050973 
L 912.620646 178.95557 
L 916.176296 180.296872 
L 919.731946 177.315504 
L 923.287596 178.527656 
L 926.843246 178.260894 
L 930.398895 164.97916 
L 933.954545 170.72788 
L 933.954545 170.72788 
" clip-path="url(#peaab476aba)" style="fill: none; stroke: #ff0000; stroke-width: 1.5; stroke-linecap: square"/>
   </g>
   <g id="patch_3">
    <path d="M 135 253.8 
L 135 64.8 
" style="fill: none; stroke: #000000; stroke-width: 0.8; stroke-linejoin: miter; stroke-linecap: square"/>
   </g>
   <g id="patch_4">
    <path d="M 972 253.8 
L 972 64.8 
" style="fill: none; stroke: #000000; stroke-width: 0.8; stroke-linejoin: miter; stroke-linecap: square"/>
   </g>
   <g id="patch_5">
    <path d="M 135 253.8 
L 972 253.8 
" style="fill: none; stroke: #000000; stroke-width: 0.8; stroke-linejoin: miter; stroke-linecap: square"/>
   </g>
   <g id="patch_6">
    <path d="M 135 64.8 
L 972 64.8 
" style="fill: none; stroke: #000000; stroke-width: 0.8; stroke-linejoin: miter; stroke-linecap: square"/>
   </g>
   <g id="text_13">
    <!-- Default -->
    <g transform="translate(531.5775 58.8)scale(0.12 -0.12)">
     <defs>
      <path id="DejaVuSans-44" d="M 1259 4147 
L 1259 519 
L 2022 519 
Q 2988 519 3436 956 
Q 3884 1394 3884 2338 
Q 3884 3275 3436 3711 
Q 2988 4147 2022 4147 
L 1259 4147 
z
M 628 4666 
L 1925 4666 
Q 3281 4666 3915 4102 
Q 4550 3538 4550 2338 
Q 4550 1131 3912 565 
Q 3275 0 1925 0 
L 628 0 
L 628 4666 
z
" transform="scale(0.015625)"/>
      <path id="DejaVuSans-6c" d="M 603 4863 
L 1178 4863 
L 1178 0 
L 603 0 
L 603 4863 
z
" transform="scale(0.015625)"/>
     </defs>
     <use xlink:href="#DejaVuSans-44"/>
     <use xlink:href="#DejaVuSans-65" x="77.001953"/>
     <use xlink:href="#DejaVuSans-66" x="138.525391"/>
     <use xlink:href="#DejaVuSans-61" x="173.730469"/>
     <use xlink:href="#DejaVuSans-75" x="235.009766"/>
     <use xlink:href="#DejaVuSans-6c" x="298.388672"/>
     <use xlink:href="#DejaVuSans-74" x="326.171875"/>
    </g>
   </g>
   <g id="legend_1">
    <g id="patch_7">
     <path d="M 142 102.15625 
L 259.09375 102.15625 
Q 261.09375 102.15625 261.09375 100.15625 
L 261.09375 71.8 
Q 261.09375 69.8 259.09375 69.8 
L 142 69.8 
Q 140 69.8 140 71.8 
L 140 100.15625 
Q 140 102.15625 142 102.15625 
z
" style="fill: #ffffff; opacity: 0.8; stroke: #cccccc; stroke-linejoin: miter"/>
    </g>
    <g id="line2d_23">
     <path d="M 144 77.898438 
L 154 77.898438 
L 164 77.898438 
" style="fill: none; stroke: #000000; stroke-width: 1.5; stroke-linecap: square"/>
    </g>
    <g id="text_14">
     <!-- Original -->
     <g transform="translate(172 81.398438)scale(0.1 -0.1)">
      <use xlink:href="#DejaVuSans-4f"/>
      <use xlink:href="#DejaVuSans-72" x="78.710938"/>
      <use xlink:href="#DejaVuSans-69" x="119.824219"/>
      <use xlink:href="#DejaVuSans-67" x="147.607422"/>
      <use xlink:href="#DejaVuSans-69" x="211.083984"/>
      <use xlink:href="#DejaVuSans-6e" x="238.867188"/>
      <use xlink:href="#DejaVuSans-61" x="302.246094"/>
      <use xlink:href="#DejaVuSans-6c" x="363.525391"/>
     </g>
    </g>
    <g id="line2d_24">
     <path d="M 144 92.576563 
L 154 92.576563 
L 164 92.576563 
" style="fill: none; stroke: #ff0000; stroke-width: 1.5; stroke-linecap: square"/>
    </g>
    <g id="text_15">
     <!-- Running average -->
     <g transform="translate(172 96.076563)scale(0.1 -0.1)">
      <defs>
       <path id="DejaVuSans-52" d="M 2841 2188 
Q 3044 2119 3236 1894 
Q 3428 1669 3622 1275 
L 4263 0 
L 3584 0 
L 2988 1197 
Q 2756 1666 2539 1819 
Q 2322 1972 1947 1972 
L 1259 1972 
L 1259 0 
L 628 0 
L 628 4666 
L 2053 4666 
Q 2853 4666 3247 4331 
Q 3641 3997 3641 3322 
Q 3641 2881 3436 2590 
Q 3231 2300 2841 2188 
z
M 1259 4147 
L 1259 2491 
L 2053 2491 
Q 2509 2491 2742 2702 
Q 2975 2913 2975 3322 
Q 2975 3731 2742 3939 
Q 2509 4147 2053 4147 
L 1259 4147 
z
" transform="scale(0.015625)"/>
       <path id="DejaVuSans-76" d="M 191 3500 
L 800 3500 
L 1894 563 
L 2988 3500 
L 3597 3500 
L 2284 0 
L 1503 0 
L 191 3500 
z
" transform="scale(0.015625)"/>
      </defs>
      <use xlink:href="#DejaVuSans-52"/>
      <use xlink:href="#DejaVuSans-75" x="64.982422"/>
      <use xlink:href="#DejaVuSans-6e" x="128.361328"/>
      <use xlink:href="#DejaVuSans-6e" x="191.740234"/>
      <use xlink:href="#DejaVuSans-69" x="255.119141"/>
      <use xlink:href="#DejaVuSans-6e" x="282.902344"/>
      <use xlink:href="#DejaVuSans-67" x="346.28125"/>
      <use xlink:href="#DejaVuSans-20" x="409.757812"/>
      <use xlink:href="#DejaVuSans-61" x="441.544922"/>
      <use xlink:href="#DejaVuSans-76" x="502.824219"/>
      <use xlink:href="#DejaVuSans-65" x="562.003906"/>
      <use xlink:href="#DejaVuSans-72" x="623.527344"/>
      <use xlink:href="#DejaVuSans-61" x="664.640625"/>
      <use xlink:href="#DejaVuSans-67" x="725.919922"/>
      <use xlink:href="#DejaVuSans-65" x="789.396484"/>
     </g>
    </g>
   </g>
  </g>
  <g id="axes_2">
   <g id="patch_8">
    <path d="M 135 480.6 
L 972 480.6 
L 972 291.6 
L 135 291.6 
z
" style="fill: #ffffff"/>
   </g>
   <g id="matplotlib.axis_3">
    <g id="xtick_6">
     <g id="line2d_25">
      <path d="M 173.045455 480.6 
L 173.045455 291.6 
" clip-path="url(#p5661103cbb)" style="fill: none; stroke-dasharray: 0.8,1.32; stroke-dashoffset: 0; stroke: #b0b0b0; stroke-width: 0.8"/>
     </g>
     <g id="line2d_26">
      <g>
       <use xlink:href="#mfdbea9706b" x="173.045455" y="480.6" style="stroke: #000000; stroke-width: 0.8"/>
      </g>
     </g>
     <g id="text_16">
      <!-- 0 -->
      <g transform="translate(169.864205 495.198438)scale(0.1 -0.1)">
       <use xlink:href="#DejaVuSans-30"/>
      </g>
     </g>
    </g>
    <g id="xtick_7">
     <g id="line2d_27">
      <path d="M 350.827952 480.6 
L 350.827952 291.6 
" clip-path="url(#p5661103cbb)" style="fill: none; stroke-dasharray: 0.8,1.32; stroke-dashoffset: 0; stroke: #b0b0b0; stroke-width: 0.8"/>
     </g>
     <g id="line2d_28">
      <g>
       <use xlink:href="#mfdbea9706b" x="350.827952" y="480.6" style="stroke: #000000; stroke-width: 0.8"/>
      </g>
     </g>
     <g id="text_17">
      <!-- 50 -->
      <g transform="translate(344.465452 495.198438)scale(0.1 -0.1)">
       <use xlink:href="#DejaVuSans-35"/>
       <use xlink:href="#DejaVuSans-30" x="63.623047"/>
      </g>
     </g>
    </g>
    <g id="xtick_8">
     <g id="line2d_29">
      <path d="M 528.61045 480.6 
L 528.61045 291.6 
" clip-path="url(#p5661103cbb)" style="fill: none; stroke-dasharray: 0.8,1.32; stroke-dashoffset: 0; stroke: #b0b0b0; stroke-width: 0.8"/>
     </g>
     <g id="line2d_30">
      <g>
       <use xlink:href="#mfdbea9706b" x="528.61045" y="480.6" style="stroke: #000000; stroke-width: 0.8"/>
      </g>
     </g>
     <g id="text_18">
      <!-- 100 -->
      <g transform="translate(519.0667 495.198438)scale(0.1 -0.1)">
       <use xlink:href="#DejaVuSans-31"/>
       <use xlink:href="#DejaVuSans-30" x="63.623047"/>
       <use xlink:href="#DejaVuSans-30" x="127.246094"/>
      </g>
     </g>
    </g>
    <g id="xtick_9">
     <g id="line2d_31">
      <path d="M 706.392948 480.6 
L 706.392948 291.6 
" clip-path="url(#p5661103cbb)" style="fill: none; stroke-dasharray: 0.8,1.32; stroke-dashoffset: 0; stroke: #b0b0b0; stroke-width: 0.8"/>
     </g>
     <g id="line2d_32">
      <g>
       <use xlink:href="#mfdbea9706b" x="706.392948" y="480.6" style="stroke: #000000; stroke-width: 0.8"/>
      </g>
     </g>
     <g id="text_19">
      <!-- 150 -->
      <g transform="translate(696.849198 495.198438)scale(0.1 -0.1)">
       <use xlink:href="#DejaVuSans-31"/>
       <use xlink:href="#DejaVuSans-35" x="63.623047"/>
       <use xlink:href="#DejaVuSans-30" x="127.246094"/>
      </g>
     </g>
    </g>
    <g id="xtick_10">
     <g id="line2d_33">
      <path d="M 884.175446 480.6 
L 884.175446 291.6 
" clip-path="url(#p5661103cbb)" style="fill: none; stroke-dasharray: 0.8,1.32; stroke-dashoffset: 0; stroke: #b0b0b0; stroke-width: 0.8"/>
     </g>
     <g id="line2d_34">
      <g>
       <use xlink:href="#mfdbea9706b" x="884.175446" y="480.6" style="stroke: #000000; stroke-width: 0.8"/>
      </g>
     </g>
     <g id="text_20">
      <!-- 200 -->
      <g transform="translate(874.631696 495.198438)scale(0.1 -0.1)">
       <use xlink:href="#DejaVuSans-32"/>
       <use xlink:href="#DejaVuSans-30" x="63.623047"/>
       <use xlink:href="#DejaVuSans-30" x="127.246094"/>
      </g>
     </g>
    </g>
    <g id="text_21">
     <!-- Number of Orders -->
     <g transform="translate(508.601562 508.876563)scale(0.1 -0.1)">
      <use xlink:href="#DejaVuSans-4e"/>
      <use xlink:href="#DejaVuSans-75" x="74.804688"/>
      <use xlink:href="#DejaVuSans-6d" x="138.183594"/>
      <use xlink:href="#DejaVuSans-62" x="235.595703"/>
      <use xlink:href="#DejaVuSans-65" x="299.072266"/>
      <use xlink:href="#DejaVuSans-72" x="360.595703"/>
      <use xlink:href="#DejaVuSans-20" x="401.708984"/>
      <use xlink:href="#DejaVuSans-6f" x="433.496094"/>
      <use xlink:href="#DejaVuSans-66" x="494.677734"/>
      <use xlink:href="#DejaVuSans-20" x="529.882812"/>
      <use xlink:href="#DejaVuSans-4f" x="561.669922"/>
      <use xlink:href="#DejaVuSans-72" x="640.380859"/>
      <use xlink:href="#DejaVuSans-64" x="679.744141"/>
      <use xlink:href="#DejaVuSans-65" x="743.220703"/>
      <use xlink:href="#DejaVuSans-72" x="804.744141"/>
      <use xlink:href="#DejaVuSans-73" x="845.857422"/>
     </g>
    </g>
   </g>
   <g id="matplotlib.axis_4">
    <g id="ytick_6">
     <g id="line2d_35">
      <path d="M 135 463.70497 
L 972 463.70497 
" clip-path="url(#p5661103cbb)" style="fill: none; stroke-dasharray: 0.8,1.32; stroke-dashoffset: 0; stroke: #b0b0b0; stroke-width: 0.8"/>
     </g>
     <g id="line2d_36">
      <g>
       <use xlink:href="#m7bb92ee321" x="135" y="463.70497" style="stroke: #000000; stroke-width: 0.8"/>
      </g>
     </g>
     <g id="text_22">
      <!-- 20 -->
      <g transform="translate(115.275 467.504188)scale(0.1 -0.1)">
       <use xlink:href="#DejaVuSans-32"/>
       <use xlink:href="#DejaVuSans-30" x="63.623047"/>
      </g>
     </g>
    </g>
    <g id="ytick_7">
     <g id="line2d_37">
      <path d="M 135 425.464847 
L 972 425.464847 
" clip-path="url(#p5661103cbb)" style="fill: none; stroke-dasharray: 0.8,1.32; stroke-dashoffset: 0; stroke: #b0b0b0; stroke-width: 0.8"/>
     </g>
     <g id="line2d_38">
      <g>
       <use xlink:href="#m7bb92ee321" x="135" y="425.464847" style="stroke: #000000; stroke-width: 0.8"/>
      </g>
     </g>
     <g id="text_23">
      <!-- 30 -->
      <g transform="translate(115.275 429.264066)scale(0.1 -0.1)">
       <use xlink:href="#DejaVuSans-33"/>
       <use xlink:href="#DejaVuSans-30" x="63.623047"/>
      </g>
     </g>
    </g>
    <g id="ytick_8">
     <g id="line2d_39">
      <path d="M 135 387.224724 
L 972 387.224724 
" clip-path="url(#p5661103cbb)" style="fill: none; stroke-dasharray: 0.8,1.32; stroke-dashoffset: 0; stroke: #b0b0b0; stroke-width: 0.8"/>
     </g>
     <g id="line2d_40">
      <g>
       <use xlink:href="#m7bb92ee321" x="135" y="387.224724" style="stroke: #000000; stroke-width: 0.8"/>
      </g>
     </g>
     <g id="text_24">
      <!-- 40 -->
      <g transform="translate(115.275 391.023943)scale(0.1 -0.1)">
       <use xlink:href="#DejaVuSans-34"/>
       <use xlink:href="#DejaVuSans-30" x="63.623047"/>
      </g>
     </g>
    </g>
    <g id="ytick_9">
     <g id="line2d_41">
      <path d="M 135 348.984601 
L 972 348.984601 
" clip-path="url(#p5661103cbb)" style="fill: none; stroke-dasharray: 0.8,1.32; stroke-dashoffset: 0; stroke: #b0b0b0; stroke-width: 0.8"/>
     </g>
     <g id="line2d_42">
      <g>
       <use xlink:href="#m7bb92ee321" x="135" y="348.984601" style="stroke: #000000; stroke-width: 0.8"/>
      </g>
     </g>
     <g id="text_25">
      <!-- 50 -->
      <g transform="translate(115.275 352.78382)scale(0.1 -0.1)">
       <use xlink:href="#DejaVuSans-35"/>
       <use xlink:href="#DejaVuSans-30" x="63.623047"/>
      </g>
     </g>
    </g>
    <g id="ytick_10">
     <g id="line2d_43">
      <path d="M 135 310.744478 
L 972 310.744478 
" clip-path="url(#p5661103cbb)" style="fill: none; stroke-dasharray: 0.8,1.32; stroke-dashoffset: 0; stroke: #b0b0b0; stroke-width: 0.8"/>
     </g>
     <g id="line2d_44">
      <g>
       <use xlink:href="#m7bb92ee321" x="135" y="310.744478" style="stroke: #000000; stroke-width: 0.8"/>
      </g>
     </g>
     <g id="text_26">
      <!-- 60 -->
      <g transform="translate(115.275 314.543697)scale(0.1 -0.1)">
       <use xlink:href="#DejaVuSans-36"/>
       <use xlink:href="#DejaVuSans-30" x="63.623047"/>
      </g>
     </g>
    </g>
    <g id="text_27">
     <!-- Waiting Time -->
     <g transform="translate(109.195312 418.692969)rotate(-90)scale(0.1 -0.1)">
      <use xlink:href="#DejaVuSans-57"/>
      <use xlink:href="#DejaVuSans-61" x="92.501953"/>
      <use xlink:href="#DejaVuSans-69" x="153.78125"/>
      <use xlink:href="#DejaVuSans-74" x="181.564453"/>
      <use xlink:href="#DejaVuSans-69" x="220.773438"/>
      <use xlink:href="#DejaVuSans-6e" x="248.556641"/>
      <use xlink:href="#DejaVuSans-67" x="311.935547"/>
      <use xlink:href="#DejaVuSans-20" x="375.412109"/>
      <use xlink:href="#DejaVuSans-54" x="407.199219"/>
      <use xlink:href="#DejaVuSans-69" x="465.158203"/>
      <use xlink:href="#DejaVuSans-6d" x="492.941406"/>
      <use xlink:href="#DejaVuSans-65" x="590.353516"/>
     </g>
    </g>
   </g>
   <g id="line2d_45">
    <path d="M 173.045455 369.903302 
L 176.601105 395.624134 
L 180.156754 459.564472 
L 183.712404 391.608109 
L 187.268054 338.877506 
L 190.823704 424.579411 
L 194.379354 405.394684 
L 197.935004 429.288859 
L 201.490654 467.058224 
L 205.046304 397.317517 
L 208.601954 405.394684 
L 212.157604 463.70497 
L 215.713254 350.247016 
L 219.268904 449.929634 
L 226.380204 382.230974 
L 229.935854 403.990998 
L 233.491504 347.193833 
L 237.047154 417.704448 
L 240.602804 463.70497 
L 244.158454 392.818472 
L 247.714104 462.232095 
L 251.269754 380.787657 
L 254.825404 352.583866 
L 258.381054 390.255495 
L 261.936703 422.969771 
L 265.492353 304.731127 
L 269.048003 348.493842 
L 272.603653 403.990998 
L 276.159303 423.09205 
L 279.714953 428.745331 
L 283.270603 371.336873 
L 286.826253 361.899145 
L 290.381903 444.969241 
L 293.937553 456.056945 
L 297.493203 377.821247 
L 301.048853 467.058224 
L 304.604503 389.782797 
L 308.160153 434.454677 
L 311.715803 330.439221 
L 318.827103 436.777825 
L 322.382753 367.215836 
L 325.938403 444.584908 
L 329.494053 421.164686 
L 333.049703 349.806556 
L 336.605353 369.903302 
L 340.161003 378.941319 
L 343.716653 311.810003 
L 347.272302 337.462257 
L 350.827952 410.673712 
L 354.383602 393.880774 
L 357.939252 368.104663 
L 361.494902 355.536534 
L 365.050552 345.746058 
L 368.606202 343.628883 
L 372.161852 433.85378 
L 375.717502 423.337361 
L 379.273152 381.795813 
L 382.828802 374.66563 
L 386.384452 417.816822 
L 389.940102 472.009091 
L 393.495752 433.112871 
L 397.051402 415.063361 
L 400.607052 406.632126 
L 404.162702 441.639158 
L 407.718352 352.75239 
L 411.274002 404.083799 
L 414.829652 413.043355 
L 418.385302 352.303475 
L 421.940952 407.40372 
L 425.496602 393.552565 
L 429.052251 368.232201 
L 432.607901 415.932136 
L 436.163551 376.781923 
L 439.719201 443.454415 
L 443.274851 401.705481 
L 446.830501 389.468994 
L 450.386151 398.176911 
L 453.941801 378.379781 
L 457.497451 429.700155 
L 461.053101 442.175223 
L 464.608751 440.071274 
L 468.164401 383.400712 
L 471.720051 405.489169 
L 475.275701 377.612561 
L 478.831351 390.413599 
L 482.387001 467.058224 
L 485.942651 366.71099 
L 489.498301 457.172777 
L 493.053951 438.229768 
L 496.609601 325.621379 
L 500.165251 390.88954 
L 503.720901 390.969104 
L 507.276551 466.601121 
L 510.832201 389.782797 
L 514.38785 307.045206 
L 517.9435 363.297882 
L 521.49915 409.268686 
L 525.0548 403.25249 
L 528.61045 359.267413 
L 532.1661 386.995558 
L 535.72175 381.218499 
L 539.2774 374.126179 
L 542.83305 329.434942 
L 546.3887 357.972348 
L 549.94435 374.86862 
L 553.5 331.982408 
L 557.05565 344.683414 
L 560.6113 458.339405 
L 564.16695 400.098997 
L 567.7226 406.920555 
L 571.27825 376.16319 
L 574.8339 421.164686 
L 578.38955 371.140302 
L 581.9452 352.583866 
L 585.50085 314.916488 
L 589.0565 443.827604 
L 592.61215 409.767379 
L 596.167799 436.619315 
L 599.723449 361.899145 
L 603.279099 347.193833 
L 606.834749 405.489169 
L 610.390399 363.84969 
L 613.946049 358.265498 
L 617.501699 409.368154 
L 621.057349 362.809516 
L 624.612999 385.331465 
L 628.168649 318.348044 
L 631.724299 367.786436 
L 635.279949 300.190909 
L 638.835599 362.809516 
L 642.391249 443.827604 
L 645.946899 397.317517 
L 649.502549 302.811912 
L 653.058199 470.732442 
L 656.613849 412.625497 
L 660.169499 433.85378 
L 663.725149 324.509075 
L 667.280799 383.547898 
L 670.836449 377.612561 
L 674.392099 417.704448 
L 677.947749 382.449261 
L 681.503398 408.576143 
L 685.059048 452.95854 
L 688.614698 363.726845 
L 692.170348 373.255234 
L 695.725998 416.812344 
L 699.281648 427.146572 
L 702.837298 379.293827 
L 706.392948 382.449261 
L 709.948598 352.303475 
L 713.504248 397.918179 
L 717.059898 451.994858 
L 720.615548 379.860349 
L 724.171198 317.726871 
L 727.726848 375.752687 
L 731.282498 339.488318 
L 734.838148 457.172777 
L 738.393798 434.910294 
L 741.949448 458.339405 
L 745.505098 451.994858 
L 749.060748 421.164686 
L 752.616398 372.523652 
L 756.172048 387.224724 
L 759.727698 420.106566 
L 763.283347 434.454677 
L 766.838997 433.112871 
L 770.394647 395.456601 
L 773.950297 419.180782 
L 777.505947 336.459743 
L 781.061597 446.547265 
L 784.617247 411.694291 
L 788.172897 342.21781 
L 791.728547 417.816822 
L 795.284197 363.726845 
L 798.839847 360.815666 
L 802.395497 393.552565 
L 805.951147 412.313729 
L 809.506797 465.723528 
L 813.062447 410.978363 
L 816.618097 352.583866 
L 820.173747 306.754283 
L 823.729397 440.760896 
L 827.285047 432.966011 
L 830.840697 369.838571 
L 834.396347 470.732442 
L 837.951997 446.749371 
L 841.507647 442.901171 
L 845.063297 458.639854 
L 848.618946 405.489169 
L 852.174596 362.809516 
L 855.730246 343.839149 
L 859.285896 354.335942 
L 862.841546 440.071274 
L 866.397196 434.153301 
L 869.952846 424.579411 
L 873.508496 417.929391 
L 877.064146 386.995558 
L 880.619796 406.344785 
L 884.175446 360.396902 
L 887.731096 394.127728 
L 891.286746 462.232095 
L 894.842396 465.723528 
L 898.398046 371.665263 
L 901.953696 390.88954 
L 905.509346 416.812344 
L 909.064996 373.321984 
L 912.620646 416.041528 
L 916.176296 419.757805 
L 919.731946 330.58323 
L 923.287596 406.249245 
L 926.843246 459.564472 
L 930.398895 332.906191 
L 933.954545 429.152461 
L 933.954545 429.152461 
" clip-path="url(#p5661103cbb)" style="fill: none; stroke: #000000; stroke-width: 1.5; stroke-linecap: square"/>
   </g>
   <g id="line2d_46">
    <path d="M 205.046304 407.921622 
L 208.601954 411.47076 
L 212.157604 418.278844 
L 215.713254 407.347098 
L 219.268904 413.17925 
L 222.824554 420.895653 
L 226.380204 416.660809 
L 229.935854 416.52044 
L 233.491504 408.310938 
L 237.047154 403.37556 
L 240.602804 410.014305 
L 244.158454 408.756684 
L 247.714104 408.609397 
L 251.269754 411.663461 
L 254.825404 401.928884 
L 258.381054 399.350281 
L 261.936703 403.42416 
L 265.492353 393.498173 
L 269.048003 393.628174 
L 272.603653 392.256829 
L 276.159303 388.195537 
L 279.714953 391.788223 
L 283.270603 382.698701 
L 286.826253 380.80985 
L 290.381903 390.048387 
L 293.937553 396.628532 
L 297.493203 392.11368 
L 301.048853 408.34639 
L 304.604503 412.475285 
L 308.160153 415.521653 
L 311.715803 406.25637 
L 315.271453 401.743994 
L 318.827103 408.288089 
L 322.382753 408.819759 
L 325.938403 408.781325 
L 329.494053 405.292099 
L 333.049703 402.49063 
L 336.605353 392.775138 
L 340.161003 391.69099 
L 343.716653 379.426523 
L 347.272302 380.128827 
L 350.827952 382.83404 
L 354.383602 378.544335 
L 357.939252 378.633218 
L 361.494902 369.72838 
L 365.050552 362.186518 
L 368.606202 361.56875 
L 372.161852 367.963798 
L 375.717502 372.403402 
L 379.273152 379.401983 
L 382.828802 383.122321 
L 386.384452 383.836632 
L 389.940102 391.649463 
L 393.495752 398.150284 
L 400.607052 410.191574 
L 404.162702 419.992601 
L 407.718352 411.882462 
L 411.274002 409.957106 
L 414.829652 413.08186 
L 418.385302 410.845645 
L 421.940952 409.804335 
L 425.496602 401.958682 
L 429.052251 395.470615 
L 432.607901 395.557493 
L 436.163551 392.572472 
L 439.719201 392.753998 
L 443.274851 397.649307 
L 450.386151 394.701182 
L 453.941801 397.308813 
L 457.497451 399.538456 
L 461.053101 404.400722 
L 464.608751 411.584629 
L 468.164401 408.331487 
L 471.720051 411.202211 
L 475.275701 404.618026 
L 478.831351 403.488838 
L 482.387001 411.247761 
L 485.942651 408.101169 
L 489.498301 415.980468 
L 493.053951 416.83343 
L 496.609601 405.178045 
L 500.165251 400.259872 
L 503.720901 401.016711 
L 507.276551 407.127906 
L 510.832201 408.34493 
L 514.38785 400.008091 
L 517.9435 389.632056 
L 521.49915 393.887826 
L 525.0548 388.495797 
L 528.61045 380.599562 
L 532.1661 386.73698 
L 535.72175 385.769876 
L 539.2774 384.085583 
L 542.83305 370.368965 
L 546.3887 367.18792 
L 549.94435 373.970262 
L 553.5 370.838714 
L 557.05565 364.380187 
L 560.6113 369.888879 
L 564.16695 373.972037 
L 567.7226 375.964537 
L 571.27825 375.459006 
L 574.8339 380.162856 
L 578.38955 384.333392 
L 581.9452 383.794544 
L 585.50085 377.799331 
L 589.0565 388.983851 
L 592.61215 395.492247 
L 596.167799 393.320238 
L 599.723449 389.500253 
L 603.279099 383.527581 
L 606.834749 386.460179 
L 610.390399 380.728679 
L 613.946049 379.441199 
L 617.501699 385.119628 
L 621.057349 389.90893 
L 624.612999 384.059316 
L 628.168649 374.917383 
L 631.724299 368.034095 
L 635.279949 361.863271 
L 638.835599 363.42484 
L 642.391249 367.258683 
L 645.946899 370.605466 
L 649.502549 365.060107 
L 653.058199 371.196536 
L 660.169499 381.030366 
L 663.725149 381.646469 
L 667.280799 383.222615 
L 670.836449 390.96478 
L 674.392099 396.454273 
L 677.947749 390.316439 
L 681.503398 391.442302 
L 685.059048 406.456965 
L 688.614698 395.756405 
L 692.170348 391.819379 
L 695.725998 390.115235 
L 699.281648 400.378985 
L 702.837298 399.953578 
L 706.392948 400.437248 
L 709.948598 393.89715 
L 713.504248 395.444042 
L 717.059898 399.785914 
L 720.615548 392.476095 
L 724.171198 387.876097 
L 727.726848 388.125842 
L 731.282498 380.39344 
L 734.838148 383.39606 
L 738.393798 388.957707 
L 741.949448 396.546722 
L 745.505098 406.51586 
L 749.060748 408.84051 
L 752.616398 400.89339 
L 756.172048 401.629827 
L 759.727698 411.867797 
L 763.283347 417.737996 
L 766.838997 427.100451 
L 770.394647 420.928834 
L 773.950297 419.355882 
L 777.505947 407.167916 
L 781.061597 406.623157 
L 784.617247 405.676117 
L 788.172897 402.645533 
L 791.728547 405.704743 
L 795.284197 400.066771 
L 798.839847 392.70287 
L 802.395497 388.746839 
L 805.951147 390.432552 
L 809.506797 395.086827 
L 813.062447 402.538688 
L 816.618097 393.142349 
L 820.173747 382.648348 
L 823.729397 392.502656 
L 827.285047 394.017575 
L 830.840697 394.628748 
L 834.396347 405.620425 
L 837.951997 410.940106 
L 841.507647 413.99885 
L 845.063297 413.290483 
L 848.618946 412.741563 
L 852.174596 413.764128 
L 855.730246 417.472615 
L 859.285896 408.83012 
L 862.841546 409.540646 
L 866.397196 415.972119 
L 869.952846 411.356816 
L 873.508496 408.474818 
L 877.064146 402.884256 
L 880.619796 397.65475 
L 884.175446 393.145523 
L 887.731096 396.277344 
L 891.286746 408.116639 
L 894.842396 419.255397 
L 898.398046 412.414796 
L 901.953696 408.08842 
L 905.509346 407.311713 
L 909.064996 402.850973 
L 912.620646 405.75557 
L 916.176296 407.096872 
L 919.731946 404.115504 
L 923.287596 405.327656 
L 926.843246 405.060894 
L 930.398895 391.77916 
L 933.954545 397.52788 
L 933.954545 397.52788 
" clip-path="url(#p5661103cbb)" style="fill: none; stroke: #ff0000; stroke-width: 1.5; stroke-linecap: square"/>
   </g>
   <g id="patch_9">
    <path d="M 135 480.6 
L 135 291.6 
" style="fill: none; stroke: #000000; stroke-width: 0.8; stroke-linejoin: miter; stroke-linecap: square"/>
   </g>
   <g id="patch_10">
    <path d="M 972 480.6 
L 972 291.6 
" style="fill: none; stroke: #000000; stroke-width: 0.8; stroke-linejoin: miter; stroke-linecap: square"/>
   </g>
   <g id="patch_11">
    <path d="M 135 480.6 
L 972 480.6 
" style="fill: none; stroke: #000000; stroke-width: 0.8; stroke-linejoin: miter; stroke-linecap: square"/>
   </g>
   <g id="patch_12">
    <path d="M 135 291.6 
L 972 291.6 
" style="fill: none; stroke: #000000; stroke-width: 0.8; stroke-linejoin: miter; stroke-linecap: square"/>
   </g>
   <g id="legend_2">
    <g id="patch_13">
     <path d="M 142 328.95625 
L 259.09375 328.95625 
Q 261.09375 328.95625 261.09375 326.95625 
L 261.09375 298.6 
Q 261.09375 296.6 259.09375 296.6 
L 142 296.6 
Q 140 296.6 140 298.6 
L 140 326.95625 
Q 140 328.95625 142 328.95625 
z
" style="fill: #ffffff; opacity: 0.8; stroke: #cccccc; stroke-linejoin: miter"/>
    </g>
    <g id="line2d_47">
     <path d="M 144 304.698438 
L 154 304.698438 
L 164 304.698438 
" style="fill: none; stroke: #000000; stroke-width: 1.5; stroke-linecap: square"/>
    </g>
    <g id="text_28">
     <!-- Original -->
     <g transform="translate(172 308.198438)scale(0.1 -0.1)">
      <use xlink:href="#DejaVuSans-4f"/>
      <use xlink:href="#DejaVuSans-72" x="78.710938"/>
      <use xlink:href="#DejaVuSans-69" x="119.824219"/>
      <use xlink:href="#DejaVuSans-67" x="147.607422"/>
      <use xlink:href="#DejaVuSans-69" x="211.083984"/>
      <use xlink:href="#DejaVuSans-6e" x="238.867188"/>
      <use xlink:href="#DejaVuSans-61" x="302.246094"/>
      <use xlink:href="#DejaVuSans-6c" x="363.525391"/>
     </g>
    </g>
    <g id="line2d_48">
     <path d="M 144 319.376562 
L 154 319.376562 
L 164 319.376562 
" style="fill: none; stroke: #ff0000; stroke-width: 1.5; stroke-linecap: square"/>
    </g>
    <g id="text_29">
     <!-- Running average -->
     <g transform="translate(172 322.876562)scale(0.1 -0.1)">
      <use xlink:href="#DejaVuSans-52"/>
      <use xlink:href="#DejaVuSans-75" x="64.982422"/>
      <use xlink:href="#DejaVuSans-6e" x="128.361328"/>
      <use xlink:href="#DejaVuSans-6e" x="191.740234"/>
      <use xlink:href="#DejaVuSans-69" x="255.119141"/>
      <use xlink:href="#DejaVuSans-6e" x="282.902344"/>
      <use xlink:href="#DejaVuSans-67" x="346.28125"/>
      <use xlink:href="#DejaVuSans-20" x="409.757812"/>
      <use xlink:href="#DejaVuSans-61" x="441.544922"/>
      <use xlink:href="#DejaVuSans-76" x="502.824219"/>
      <use xlink:href="#DejaVuSans-65" x="562.003906"/>
      <use xlink:href="#DejaVuSans-72" x="623.527344"/>
      <use xlink:href="#DejaVuSans-61" x="664.640625"/>
      <use xlink:href="#DejaVuSans-67" x="725.919922"/>
      <use xlink:href="#DejaVuSans-65" x="789.396484"/>
     </g>
    </g>
   </g>
  </g>
  <g id="text_30">
   <!-- Waiting Time -->
   <g transform="translate(500.888438 19.918125)scale(0.12 -0.12)">
    <use xlink:href="#DejaVuSans-57"/>
    <use xlink:href="#DejaVuSans-61" x="92.501953"/>
    <use xlink:href="#DejaVuSans-69" x="153.78125"/>
    <use xlink:href="#DejaVuSans-74" x="181.564453"/>
    <use xlink:href="#DejaVuSans-69" x="220.773438"/>
    <use xlink:href="#DejaVuSans-6e" x="248.556641"/>
    <use xlink:href="#DejaVuSans-67" x="311.935547"/>
    <use xlink:href="#DejaVuSans-20" x="375.412109"/>
    <use xlink:href="#DejaVuSans-54" x="407.199219"/>
    <use xlink:href="#DejaVuSans-69" x="465.158203"/>
    <use xlink:href="#DejaVuSans-6d" x="492.941406"/>
    <use xlink:href="#DejaVuSans-65" x="590.353516"/>
   </g>
  </g>
 </g>
 <defs>
  <clipPath id="peaab476aba">
   <rect x="135" y="64.8" width="837" height="189"/>
  </clipPath>
  <clipPath id="p5661103cbb">
   <rect x="135" y="291.6" width="837" height="189"/>
  </clipPath>
 </defs>
</svg>
