<?xml version="1.0" encoding="utf-8" standalone="no"?>
<!DOCTYPE svg PUBLIC "-//W3C//DTD SVG 1.1//EN"
  "http://www.w3.org/Graphics/SVG/1.1/DTD/svg11.dtd">
<svg xmlns:xlink="http://www.w3.org/1999/xlink" width="1080pt" height="540pt" viewBox="0 0 1080 540" xmlns="http://www.w3.org/2000/svg" version="1.1">
 <metadata>
  <rdf:RDF xmlns:dc="http://purl.org/dc/elements/1.1/" xmlns:cc="http://creativecommons.org/ns#" xmlns:rdf="http://www.w3.org/1999/02/22-rdf-syntax-ns#">
   <cc:Work>
    <dc:type rdf:resource="http://purl.org/dc/dcmitype/StillImage"/>
    <dc:date>2022-09-14T10:09:37.830057</dc:date>
    <dc:format>image/svg+xml</dc:format>
    <dc:creator>
     <cc:Agent>
      <dc:title>Matplotlib v3.5.3, https://matplotlib.org/</dc:title>
     </cc:Agent>
    </dc:creator>
   </cc:Work>
  </rdf:RDF>
 </metadata>
 <defs>
  <style type="text/css">*{stroke-linejoin: round; stroke-linecap: butt}</style>
 </defs>
 <g id="figure_1">
  <g id="patch_1">
   <path d="M 0 540 
L 1080 540 
L 1080 0 
L 0 0 
z
" style="fill: #ffffff"/>
  </g>
  <g id="axes_1">
   <g id="patch_2">
    <path d="M 135 253.8 
L 972 253.8 
L 972 64.8 
L 135 64.8 
z
" style="fill: #ffffff"/>
   </g>
   <g id="matplotlib.axis_1">
    <g id="xtick_1">
     <g id="line2d_1">
      <path d="M 173.045455 253.8 
L 173.045455 64.8 
" clip-path="url(#p4aeaeb4d4c)" style="fill: none; stroke-dasharray: 0.8,1.32; stroke-dashoffset: 0; stroke: #b0b0b0; stroke-width: 0.8"/>
     </g>
     <g id="line2d_2">
      <defs>
       <path id="m4a4d1804dc" d="M 0 0 
L 0 3.5 
" style="stroke: #000000; stroke-width: 0.8"/>
      </defs>
      <g>
       <use xlink:href="#m4a4d1804dc" x="173.045455" y="253.8" style="stroke: #000000; stroke-width: 0.8"/>
      </g>
     </g>
     <g id="text_1">
      <!-- 0 -->
      <g transform="translate(169.864205 268.398438)scale(0.1 -0.1)">
       <defs>
        <path id="DejaVuSans-30" d="M 2034 4250 
Q 1547 4250 1301 3770 
Q 1056 3291 1056 2328 
Q 1056 1369 1301 889 
Q 1547 409 2034 409 
Q 2525 409 2770 889 
Q 3016 1369 3016 2328 
Q 3016 3291 2770 3770 
Q 2525 4250 2034 4250 
z
M 2034 4750 
Q 2819 4750 3233 4129 
Q 3647 3509 3647 2328 
Q 3647 1150 3233 529 
Q 2819 -91 2034 -91 
Q 1250 -91 836 529 
Q 422 1150 422 2328 
Q 422 3509 836 4129 
Q 1250 4750 2034 4750 
z
" transform="scale(0.015625)"/>
       </defs>
       <use xlink:href="#DejaVuSans-30"/>
      </g>
     </g>
    </g>
    <g id="xtick_2">
     <g id="line2d_3">
      <path d="M 278.727273 253.8 
L 278.727273 64.8 
" clip-path="url(#p4aeaeb4d4c)" style="fill: none; stroke-dasharray: 0.8,1.32; stroke-dashoffset: 0; stroke: #b0b0b0; stroke-width: 0.8"/>
     </g>
     <g id="line2d_4">
      <g>
       <use xlink:href="#m4a4d1804dc" x="278.727273" y="253.8" style="stroke: #000000; stroke-width: 0.8"/>
      </g>
     </g>
     <g id="text_2">
      <!-- 50 -->
      <g transform="translate(272.364773 268.398438)scale(0.1 -0.1)">
       <defs>
        <path id="DejaVuSans-35" d="M 691 4666 
L 3169 4666 
L 3169 4134 
L 1269 4134 
L 1269 2991 
Q 1406 3038 1543 3061 
Q 1681 3084 1819 3084 
Q 2600 3084 3056 2656 
Q 3513 2228 3513 1497 
Q 3513 744 3044 326 
Q 2575 -91 1722 -91 
Q 1428 -91 1123 -41 
Q 819 9 494 109 
L 494 744 
Q 775 591 1075 516 
Q 1375 441 1709 441 
Q 2250 441 2565 725 
Q 2881 1009 2881 1497 
Q 2881 1984 2565 2268 
Q 2250 2553 1709 2553 
Q 1456 2553 1204 2497 
Q 953 2441 691 2322 
L 691 4666 
z
" transform="scale(0.015625)"/>
       </defs>
       <use xlink:href="#DejaVuSans-35"/>
       <use xlink:href="#DejaVuSans-30" x="63.623047"/>
      </g>
     </g>
    </g>
    <g id="xtick_3">
     <g id="line2d_5">
      <path d="M 384.409091 253.8 
L 384.409091 64.8 
" clip-path="url(#p4aeaeb4d4c)" style="fill: none; stroke-dasharray: 0.8,1.32; stroke-dashoffset: 0; stroke: #b0b0b0; stroke-width: 0.8"/>
     </g>
     <g id="line2d_6">
      <g>
       <use xlink:href="#m4a4d1804dc" x="384.409091" y="253.8" style="stroke: #000000; stroke-width: 0.8"/>
      </g>
     </g>
     <g id="text_3">
      <!-- 100 -->
      <g transform="translate(374.865341 268.398438)scale(0.1 -0.1)">
       <defs>
        <path id="DejaVuSans-31" d="M 794 531 
L 1825 531 
L 1825 4091 
L 703 3866 
L 703 4441 
L 1819 4666 
L 2450 4666 
L 2450 531 
L 3481 531 
L 3481 0 
L 794 0 
L 794 531 
z
" transform="scale(0.015625)"/>
       </defs>
       <use xlink:href="#DejaVuSans-31"/>
       <use xlink:href="#DejaVuSans-30" x="63.623047"/>
       <use xlink:href="#DejaVuSans-30" x="127.246094"/>
      </g>
     </g>
    </g>
    <g id="xtick_4">
     <g id="line2d_7">
      <path d="M 490.090909 253.8 
L 490.090909 64.8 
" clip-path="url(#p4aeaeb4d4c)" style="fill: none; stroke-dasharray: 0.8,1.32; stroke-dashoffset: 0; stroke: #b0b0b0; stroke-width: 0.8"/>
     </g>
     <g id="line2d_8">
      <g>
       <use xlink:href="#m4a4d1804dc" x="490.090909" y="253.8" style="stroke: #000000; stroke-width: 0.8"/>
      </g>
     </g>
     <g id="text_4">
      <!-- 150 -->
      <g transform="translate(480.547159 268.398438)scale(0.1 -0.1)">
       <use xlink:href="#DejaVuSans-31"/>
       <use xlink:href="#DejaVuSans-35" x="63.623047"/>
       <use xlink:href="#DejaVuSans-30" x="127.246094"/>
      </g>
     </g>
    </g>
    <g id="xtick_5">
     <g id="line2d_9">
      <path d="M 595.772727 253.8 
L 595.772727 64.8 
" clip-path="url(#p4aeaeb4d4c)" style="fill: none; stroke-dasharray: 0.8,1.32; stroke-dashoffset: 0; stroke: #b0b0b0; stroke-width: 0.8"/>
     </g>
     <g id="line2d_10">
      <g>
       <use xlink:href="#m4a4d1804dc" x="595.772727" y="253.8" style="stroke: #000000; stroke-width: 0.8"/>
      </g>
     </g>
     <g id="text_5">
      <!-- 200 -->
      <g transform="translate(586.228977 268.398438)scale(0.1 -0.1)">
       <defs>
        <path id="DejaVuSans-32" d="M 1228 531 
L 3431 531 
L 3431 0 
L 469 0 
L 469 531 
Q 828 903 1448 1529 
Q 2069 2156 2228 2338 
Q 2531 2678 2651 2914 
Q 2772 3150 2772 3378 
Q 2772 3750 2511 3984 
Q 2250 4219 1831 4219 
Q 1534 4219 1204 4116 
Q 875 4013 500 3803 
L 500 4441 
Q 881 4594 1212 4672 
Q 1544 4750 1819 4750 
Q 2544 4750 2975 4387 
Q 3406 4025 3406 3419 
Q 3406 3131 3298 2873 
Q 3191 2616 2906 2266 
Q 2828 2175 2409 1742 
Q 1991 1309 1228 531 
z
" transform="scale(0.015625)"/>
       </defs>
       <use xlink:href="#DejaVuSans-32"/>
       <use xlink:href="#DejaVuSans-30" x="63.623047"/>
       <use xlink:href="#DejaVuSans-30" x="127.246094"/>
      </g>
     </g>
    </g>
    <g id="xtick_6">
     <g id="line2d_11">
      <path d="M 701.454545 253.8 
L 701.454545 64.8 
" clip-path="url(#p4aeaeb4d4c)" style="fill: none; stroke-dasharray: 0.8,1.32; stroke-dashoffset: 0; stroke: #b0b0b0; stroke-width: 0.8"/>
     </g>
     <g id="line2d_12">
      <g>
       <use xlink:href="#m4a4d1804dc" x="701.454545" y="253.8" style="stroke: #000000; stroke-width: 0.8"/>
      </g>
     </g>
     <g id="text_6">
      <!-- 250 -->
      <g transform="translate(691.910795 268.398438)scale(0.1 -0.1)">
       <use xlink:href="#DejaVuSans-32"/>
       <use xlink:href="#DejaVuSans-35" x="63.623047"/>
       <use xlink:href="#DejaVuSans-30" x="127.246094"/>
      </g>
     </g>
    </g>
    <g id="xtick_7">
     <g id="line2d_13">
      <path d="M 807.136364 253.8 
L 807.136364 64.8 
" clip-path="url(#p4aeaeb4d4c)" style="fill: none; stroke-dasharray: 0.8,1.32; stroke-dashoffset: 0; stroke: #b0b0b0; stroke-width: 0.8"/>
     </g>
     <g id="line2d_14">
      <g>
       <use xlink:href="#m4a4d1804dc" x="807.136364" y="253.8" style="stroke: #000000; stroke-width: 0.8"/>
      </g>
     </g>
     <g id="text_7">
      <!-- 300 -->
      <g transform="translate(797.592614 268.398438)scale(0.1 -0.1)">
       <defs>
        <path id="DejaVuSans-33" d="M 2597 2516 
Q 3050 2419 3304 2112 
Q 3559 1806 3559 1356 
Q 3559 666 3084 287 
Q 2609 -91 1734 -91 
Q 1441 -91 1130 -33 
Q 819 25 488 141 
L 488 750 
Q 750 597 1062 519 
Q 1375 441 1716 441 
Q 2309 441 2620 675 
Q 2931 909 2931 1356 
Q 2931 1769 2642 2001 
Q 2353 2234 1838 2234 
L 1294 2234 
L 1294 2753 
L 1863 2753 
Q 2328 2753 2575 2939 
Q 2822 3125 2822 3475 
Q 2822 3834 2567 4026 
Q 2313 4219 1838 4219 
Q 1578 4219 1281 4162 
Q 984 4106 628 3988 
L 628 4550 
Q 988 4650 1302 4700 
Q 1616 4750 1894 4750 
Q 2613 4750 3031 4423 
Q 3450 4097 3450 3541 
Q 3450 3153 3228 2886 
Q 3006 2619 2597 2516 
z
" transform="scale(0.015625)"/>
       </defs>
       <use xlink:href="#DejaVuSans-33"/>
       <use xlink:href="#DejaVuSans-30" x="63.623047"/>
       <use xlink:href="#DejaVuSans-30" x="127.246094"/>
      </g>
     </g>
    </g>
    <g id="xtick_8">
     <g id="line2d_15">
      <path d="M 912.818182 253.8 
L 912.818182 64.8 
" clip-path="url(#p4aeaeb4d4c)" style="fill: none; stroke-dasharray: 0.8,1.32; stroke-dashoffset: 0; stroke: #b0b0b0; stroke-width: 0.8"/>
     </g>
     <g id="line2d_16">
      <g>
       <use xlink:href="#m4a4d1804dc" x="912.818182" y="253.8" style="stroke: #000000; stroke-width: 0.8"/>
      </g>
     </g>
     <g id="text_8">
      <!-- 350 -->
      <g transform="translate(903.274432 268.398438)scale(0.1 -0.1)">
       <use xlink:href="#DejaVuSans-33"/>
       <use xlink:href="#DejaVuSans-35" x="63.623047"/>
       <use xlink:href="#DejaVuSans-30" x="127.246094"/>
      </g>
     </g>
    </g>
    <g id="text_9">
     <!-- Number of Orders -->
     <g transform="translate(508.601562 282.076563)scale(0.1 -0.1)">
      <defs>
       <path id="DejaVuSans-4e" d="M 628 4666 
L 1478 4666 
L 3547 763 
L 3547 4666 
L 4159 4666 
L 4159 0 
L 3309 0 
L 1241 3903 
L 1241 0 
L 628 0 
L 628 4666 
z
" transform="scale(0.015625)"/>
       <path id="DejaVuSans-75" d="M 544 1381 
L 544 3500 
L 1119 3500 
L 1119 1403 
Q 1119 906 1312 657 
Q 1506 409 1894 409 
Q 2359 409 2629 706 
Q 2900 1003 2900 1516 
L 2900 3500 
L 3475 3500 
L 3475 0 
L 2900 0 
L 2900 538 
Q 2691 219 2414 64 
Q 2138 -91 1772 -91 
Q 1169 -91 856 284 
Q 544 659 544 1381 
z
M 1991 3584 
L 1991 3584 
z
" transform="scale(0.015625)"/>
       <path id="DejaVuSans-6d" d="M 3328 2828 
Q 3544 3216 3844 3400 
Q 4144 3584 4550 3584 
Q 5097 3584 5394 3201 
Q 5691 2819 5691 2113 
L 5691 0 
L 5113 0 
L 5113 2094 
Q 5113 2597 4934 2840 
Q 4756 3084 4391 3084 
Q 3944 3084 3684 2787 
Q 3425 2491 3425 1978 
L 3425 0 
L 2847 0 
L 2847 2094 
Q 2847 2600 2669 2842 
Q 2491 3084 2119 3084 
Q 1678 3084 1418 2786 
Q 1159 2488 1159 1978 
L 1159 0 
L 581 0 
L 581 3500 
L 1159 3500 
L 1159 2956 
Q 1356 3278 1631 3431 
Q 1906 3584 2284 3584 
Q 2666 3584 2933 3390 
Q 3200 3197 3328 2828 
z
" transform="scale(0.015625)"/>
       <path id="DejaVuSans-62" d="M 3116 1747 
Q 3116 2381 2855 2742 
Q 2594 3103 2138 3103 
Q 1681 3103 1420 2742 
Q 1159 2381 1159 1747 
Q 1159 1113 1420 752 
Q 1681 391 2138 391 
Q 2594 391 2855 752 
Q 3116 1113 3116 1747 
z
M 1159 2969 
Q 1341 3281 1617 3432 
Q 1894 3584 2278 3584 
Q 2916 3584 3314 3078 
Q 3713 2572 3713 1747 
Q 3713 922 3314 415 
Q 2916 -91 2278 -91 
Q 1894 -91 1617 61 
Q 1341 213 1159 525 
L 1159 0 
L 581 0 
L 581 4863 
L 1159 4863 
L 1159 2969 
z
" transform="scale(0.015625)"/>
       <path id="DejaVuSans-65" d="M 3597 1894 
L 3597 1613 
L 953 1613 
Q 991 1019 1311 708 
Q 1631 397 2203 397 
Q 2534 397 2845 478 
Q 3156 559 3463 722 
L 3463 178 
Q 3153 47 2828 -22 
Q 2503 -91 2169 -91 
Q 1331 -91 842 396 
Q 353 884 353 1716 
Q 353 2575 817 3079 
Q 1281 3584 2069 3584 
Q 2775 3584 3186 3129 
Q 3597 2675 3597 1894 
z
M 3022 2063 
Q 3016 2534 2758 2815 
Q 2500 3097 2075 3097 
Q 1594 3097 1305 2825 
Q 1016 2553 972 2059 
L 3022 2063 
z
" transform="scale(0.015625)"/>
       <path id="DejaVuSans-72" d="M 2631 2963 
Q 2534 3019 2420 3045 
Q 2306 3072 2169 3072 
Q 1681 3072 1420 2755 
Q 1159 2438 1159 1844 
L 1159 0 
L 581 0 
L 581 3500 
L 1159 3500 
L 1159 2956 
Q 1341 3275 1631 3429 
Q 1922 3584 2338 3584 
Q 2397 3584 2469 3576 
Q 2541 3569 2628 3553 
L 2631 2963 
z
" transform="scale(0.015625)"/>
       <path id="DejaVuSans-20" transform="scale(0.015625)"/>
       <path id="DejaVuSans-6f" d="M 1959 3097 
Q 1497 3097 1228 2736 
Q 959 2375 959 1747 
Q 959 1119 1226 758 
Q 1494 397 1959 397 
Q 2419 397 2687 759 
Q 2956 1122 2956 1747 
Q 2956 2369 2687 2733 
Q 2419 3097 1959 3097 
z
M 1959 3584 
Q 2709 3584 3137 3096 
Q 3566 2609 3566 1747 
Q 3566 888 3137 398 
Q 2709 -91 1959 -91 
Q 1206 -91 779 398 
Q 353 888 353 1747 
Q 353 2609 779 3096 
Q 1206 3584 1959 3584 
z
" transform="scale(0.015625)"/>
       <path id="DejaVuSans-66" d="M 2375 4863 
L 2375 4384 
L 1825 4384 
Q 1516 4384 1395 4259 
Q 1275 4134 1275 3809 
L 1275 3500 
L 2222 3500 
L 2222 3053 
L 1275 3053 
L 1275 0 
L 697 0 
L 697 3053 
L 147 3053 
L 147 3500 
L 697 3500 
L 697 3744 
Q 697 4328 969 4595 
Q 1241 4863 1831 4863 
L 2375 4863 
z
" transform="scale(0.015625)"/>
       <path id="DejaVuSans-4f" d="M 2522 4238 
Q 1834 4238 1429 3725 
Q 1025 3213 1025 2328 
Q 1025 1447 1429 934 
Q 1834 422 2522 422 
Q 3209 422 3611 934 
Q 4013 1447 4013 2328 
Q 4013 3213 3611 3725 
Q 3209 4238 2522 4238 
z
M 2522 4750 
Q 3503 4750 4090 4092 
Q 4678 3434 4678 2328 
Q 4678 1225 4090 567 
Q 3503 -91 2522 -91 
Q 1538 -91 948 565 
Q 359 1222 359 2328 
Q 359 3434 948 4092 
Q 1538 4750 2522 4750 
z
" transform="scale(0.015625)"/>
       <path id="DejaVuSans-64" d="M 2906 2969 
L 2906 4863 
L 3481 4863 
L 3481 0 
L 2906 0 
L 2906 525 
Q 2725 213 2448 61 
Q 2172 -91 1784 -91 
Q 1150 -91 751 415 
Q 353 922 353 1747 
Q 353 2572 751 3078 
Q 1150 3584 1784 3584 
Q 2172 3584 2448 3432 
Q 2725 3281 2906 2969 
z
M 947 1747 
Q 947 1113 1208 752 
Q 1469 391 1925 391 
Q 2381 391 2643 752 
Q 2906 1113 2906 1747 
Q 2906 2381 2643 2742 
Q 2381 3103 1925 3103 
Q 1469 3103 1208 2742 
Q 947 2381 947 1747 
z
" transform="scale(0.015625)"/>
       <path id="DejaVuSans-73" d="M 2834 3397 
L 2834 2853 
Q 2591 2978 2328 3040 
Q 2066 3103 1784 3103 
Q 1356 3103 1142 2972 
Q 928 2841 928 2578 
Q 928 2378 1081 2264 
Q 1234 2150 1697 2047 
L 1894 2003 
Q 2506 1872 2764 1633 
Q 3022 1394 3022 966 
Q 3022 478 2636 193 
Q 2250 -91 1575 -91 
Q 1294 -91 989 -36 
Q 684 19 347 128 
L 347 722 
Q 666 556 975 473 
Q 1284 391 1588 391 
Q 1994 391 2212 530 
Q 2431 669 2431 922 
Q 2431 1156 2273 1281 
Q 2116 1406 1581 1522 
L 1381 1569 
Q 847 1681 609 1914 
Q 372 2147 372 2553 
Q 372 3047 722 3315 
Q 1072 3584 1716 3584 
Q 2034 3584 2315 3537 
Q 2597 3491 2834 3397 
z
" transform="scale(0.015625)"/>
      </defs>
      <use xlink:href="#DejaVuSans-4e"/>
      <use xlink:href="#DejaVuSans-75" x="74.804688"/>
      <use xlink:href="#DejaVuSans-6d" x="138.183594"/>
      <use xlink:href="#DejaVuSans-62" x="235.595703"/>
      <use xlink:href="#DejaVuSans-65" x="299.072266"/>
      <use xlink:href="#DejaVuSans-72" x="360.595703"/>
      <use xlink:href="#DejaVuSans-20" x="401.708984"/>
      <use xlink:href="#DejaVuSans-6f" x="433.496094"/>
      <use xlink:href="#DejaVuSans-66" x="494.677734"/>
      <use xlink:href="#DejaVuSans-20" x="529.882812"/>
      <use xlink:href="#DejaVuSans-4f" x="561.669922"/>
      <use xlink:href="#DejaVuSans-72" x="640.380859"/>
      <use xlink:href="#DejaVuSans-64" x="679.744141"/>
      <use xlink:href="#DejaVuSans-65" x="743.220703"/>
      <use xlink:href="#DejaVuSans-72" x="804.744141"/>
      <use xlink:href="#DejaVuSans-73" x="845.857422"/>
     </g>
    </g>
   </g>
   <g id="matplotlib.axis_2">
    <g id="ytick_1">
     <g id="line2d_17">
      <path d="M 135 237.618462 
L 972 237.618462 
" clip-path="url(#p4aeaeb4d4c)" style="fill: none; stroke-dasharray: 0.8,1.32; stroke-dashoffset: 0; stroke: #b0b0b0; stroke-width: 0.8"/>
     </g>
     <g id="line2d_18">
      <defs>
       <path id="m2525bd4895" d="M 0 0 
L -3.5 0 
" style="stroke: #000000; stroke-width: 0.8"/>
      </defs>
      <g>
       <use xlink:href="#m2525bd4895" x="135" y="237.618462" style="stroke: #000000; stroke-width: 0.8"/>
      </g>
     </g>
     <g id="text_10">
      <!-- 20 -->
      <g transform="translate(115.275 241.41768)scale(0.1 -0.1)">
       <use xlink:href="#DejaVuSans-32"/>
       <use xlink:href="#DejaVuSans-30" x="63.623047"/>
      </g>
     </g>
    </g>
    <g id="ytick_2">
     <g id="line2d_19">
      <path d="M 135 199.665316 
L 972 199.665316 
" clip-path="url(#p4aeaeb4d4c)" style="fill: none; stroke-dasharray: 0.8,1.32; stroke-dashoffset: 0; stroke: #b0b0b0; stroke-width: 0.8"/>
     </g>
     <g id="line2d_20">
      <g>
       <use xlink:href="#m2525bd4895" x="135" y="199.665316" style="stroke: #000000; stroke-width: 0.8"/>
      </g>
     </g>
     <g id="text_11">
      <!-- 40 -->
      <g transform="translate(115.275 203.464534)scale(0.1 -0.1)">
       <defs>
        <path id="DejaVuSans-34" d="M 2419 4116 
L 825 1625 
L 2419 1625 
L 2419 4116 
z
M 2253 4666 
L 3047 4666 
L 3047 1625 
L 3713 1625 
L 3713 1100 
L 3047 1100 
L 3047 0 
L 2419 0 
L 2419 1100 
L 313 1100 
L 313 1709 
L 2253 4666 
z
" transform="scale(0.015625)"/>
       </defs>
       <use xlink:href="#DejaVuSans-34"/>
       <use xlink:href="#DejaVuSans-30" x="63.623047"/>
      </g>
     </g>
    </g>
    <g id="ytick_3">
     <g id="line2d_21">
      <path d="M 135 161.71217 
L 972 161.71217 
" clip-path="url(#p4aeaeb4d4c)" style="fill: none; stroke-dasharray: 0.8,1.32; stroke-dashoffset: 0; stroke: #b0b0b0; stroke-width: 0.8"/>
     </g>
     <g id="line2d_22">
      <g>
       <use xlink:href="#m2525bd4895" x="135" y="161.71217" style="stroke: #000000; stroke-width: 0.8"/>
      </g>
     </g>
     <g id="text_12">
      <!-- 60 -->
      <g transform="translate(115.275 165.511388)scale(0.1 -0.1)">
       <defs>
        <path id="DejaVuSans-36" d="M 2113 2584 
Q 1688 2584 1439 2293 
Q 1191 2003 1191 1497 
Q 1191 994 1439 701 
Q 1688 409 2113 409 
Q 2538 409 2786 701 
Q 3034 994 3034 1497 
Q 3034 2003 2786 2293 
Q 2538 2584 2113 2584 
z
M 3366 4563 
L 3366 3988 
Q 3128 4100 2886 4159 
Q 2644 4219 2406 4219 
Q 1781 4219 1451 3797 
Q 1122 3375 1075 2522 
Q 1259 2794 1537 2939 
Q 1816 3084 2150 3084 
Q 2853 3084 3261 2657 
Q 3669 2231 3669 1497 
Q 3669 778 3244 343 
Q 2819 -91 2113 -91 
Q 1303 -91 875 529 
Q 447 1150 447 2328 
Q 447 3434 972 4092 
Q 1497 4750 2381 4750 
Q 2619 4750 2861 4703 
Q 3103 4656 3366 4563 
z
" transform="scale(0.015625)"/>
       </defs>
       <use xlink:href="#DejaVuSans-36"/>
       <use xlink:href="#DejaVuSans-30" x="63.623047"/>
      </g>
     </g>
    </g>
    <g id="ytick_4">
     <g id="line2d_23">
      <path d="M 135 123.759024 
L 972 123.759024 
" clip-path="url(#p4aeaeb4d4c)" style="fill: none; stroke-dasharray: 0.8,1.32; stroke-dashoffset: 0; stroke: #b0b0b0; stroke-width: 0.8"/>
     </g>
     <g id="line2d_24">
      <g>
       <use xlink:href="#m2525bd4895" x="135" y="123.759024" style="stroke: #000000; stroke-width: 0.8"/>
      </g>
     </g>
     <g id="text_13">
      <!-- 80 -->
      <g transform="translate(115.275 127.558242)scale(0.1 -0.1)">
       <defs>
        <path id="DejaVuSans-38" d="M 2034 2216 
Q 1584 2216 1326 1975 
Q 1069 1734 1069 1313 
Q 1069 891 1326 650 
Q 1584 409 2034 409 
Q 2484 409 2743 651 
Q 3003 894 3003 1313 
Q 3003 1734 2745 1975 
Q 2488 2216 2034 2216 
z
M 1403 2484 
Q 997 2584 770 2862 
Q 544 3141 544 3541 
Q 544 4100 942 4425 
Q 1341 4750 2034 4750 
Q 2731 4750 3128 4425 
Q 3525 4100 3525 3541 
Q 3525 3141 3298 2862 
Q 3072 2584 2669 2484 
Q 3125 2378 3379 2068 
Q 3634 1759 3634 1313 
Q 3634 634 3220 271 
Q 2806 -91 2034 -91 
Q 1263 -91 848 271 
Q 434 634 434 1313 
Q 434 1759 690 2068 
Q 947 2378 1403 2484 
z
M 1172 3481 
Q 1172 3119 1398 2916 
Q 1625 2713 2034 2713 
Q 2441 2713 2670 2916 
Q 2900 3119 2900 3481 
Q 2900 3844 2670 4047 
Q 2441 4250 2034 4250 
Q 1625 4250 1398 4047 
Q 1172 3844 1172 3481 
z
" transform="scale(0.015625)"/>
       </defs>
       <use xlink:href="#DejaVuSans-38"/>
       <use xlink:href="#DejaVuSans-30" x="63.623047"/>
      </g>
     </g>
    </g>
    <g id="ytick_5">
     <g id="line2d_25">
      <path d="M 135 85.805878 
L 972 85.805878 
" clip-path="url(#p4aeaeb4d4c)" style="fill: none; stroke-dasharray: 0.8,1.32; stroke-dashoffset: 0; stroke: #b0b0b0; stroke-width: 0.8"/>
     </g>
     <g id="line2d_26">
      <g>
       <use xlink:href="#m2525bd4895" x="135" y="85.805878" style="stroke: #000000; stroke-width: 0.8"/>
      </g>
     </g>
     <g id="text_14">
      <!-- 100 -->
      <g transform="translate(108.9125 89.605097)scale(0.1 -0.1)">
       <use xlink:href="#DejaVuSans-31"/>
       <use xlink:href="#DejaVuSans-30" x="63.623047"/>
       <use xlink:href="#DejaVuSans-30" x="127.246094"/>
      </g>
     </g>
    </g>
    <g id="text_15">
     <!-- Waiting Time -->
     <g transform="translate(102.832812 191.892969)rotate(-90)scale(0.1 -0.1)">
      <defs>
       <path id="DejaVuSans-57" d="M 213 4666 
L 850 4666 
L 1831 722 
L 2809 4666 
L 3519 4666 
L 4500 722 
L 5478 4666 
L 6119 4666 
L 4947 0 
L 4153 0 
L 3169 4050 
L 2175 0 
L 1381 0 
L 213 4666 
z
" transform="scale(0.015625)"/>
       <path id="DejaVuSans-61" d="M 2194 1759 
Q 1497 1759 1228 1600 
Q 959 1441 959 1056 
Q 959 750 1161 570 
Q 1363 391 1709 391 
Q 2188 391 2477 730 
Q 2766 1069 2766 1631 
L 2766 1759 
L 2194 1759 
z
M 3341 1997 
L 3341 0 
L 2766 0 
L 2766 531 
Q 2569 213 2275 61 
Q 1981 -91 1556 -91 
Q 1019 -91 701 211 
Q 384 513 384 1019 
Q 384 1609 779 1909 
Q 1175 2209 1959 2209 
L 2766 2209 
L 2766 2266 
Q 2766 2663 2505 2880 
Q 2244 3097 1772 3097 
Q 1472 3097 1187 3025 
Q 903 2953 641 2809 
L 641 3341 
Q 956 3463 1253 3523 
Q 1550 3584 1831 3584 
Q 2591 3584 2966 3190 
Q 3341 2797 3341 1997 
z
" transform="scale(0.015625)"/>
       <path id="DejaVuSans-69" d="M 603 3500 
L 1178 3500 
L 1178 0 
L 603 0 
L 603 3500 
z
M 603 4863 
L 1178 4863 
L 1178 4134 
L 603 4134 
L 603 4863 
z
" transform="scale(0.015625)"/>
       <path id="DejaVuSans-74" d="M 1172 4494 
L 1172 3500 
L 2356 3500 
L 2356 3053 
L 1172 3053 
L 1172 1153 
Q 1172 725 1289 603 
Q 1406 481 1766 481 
L 2356 481 
L 2356 0 
L 1766 0 
Q 1100 0 847 248 
Q 594 497 594 1153 
L 594 3053 
L 172 3053 
L 172 3500 
L 594 3500 
L 594 4494 
L 1172 4494 
z
" transform="scale(0.015625)"/>
       <path id="DejaVuSans-6e" d="M 3513 2113 
L 3513 0 
L 2938 0 
L 2938 2094 
Q 2938 2591 2744 2837 
Q 2550 3084 2163 3084 
Q 1697 3084 1428 2787 
Q 1159 2491 1159 1978 
L 1159 0 
L 581 0 
L 581 3500 
L 1159 3500 
L 1159 2956 
Q 1366 3272 1645 3428 
Q 1925 3584 2291 3584 
Q 2894 3584 3203 3211 
Q 3513 2838 3513 2113 
z
" transform="scale(0.015625)"/>
       <path id="DejaVuSans-67" d="M 2906 1791 
Q 2906 2416 2648 2759 
Q 2391 3103 1925 3103 
Q 1463 3103 1205 2759 
Q 947 2416 947 1791 
Q 947 1169 1205 825 
Q 1463 481 1925 481 
Q 2391 481 2648 825 
Q 2906 1169 2906 1791 
z
M 3481 434 
Q 3481 -459 3084 -895 
Q 2688 -1331 1869 -1331 
Q 1566 -1331 1297 -1286 
Q 1028 -1241 775 -1147 
L 775 -588 
Q 1028 -725 1275 -790 
Q 1522 -856 1778 -856 
Q 2344 -856 2625 -561 
Q 2906 -266 2906 331 
L 2906 616 
Q 2728 306 2450 153 
Q 2172 0 1784 0 
Q 1141 0 747 490 
Q 353 981 353 1791 
Q 353 2603 747 3093 
Q 1141 3584 1784 3584 
Q 2172 3584 2450 3431 
Q 2728 3278 2906 2969 
L 2906 3500 
L 3481 3500 
L 3481 434 
z
" transform="scale(0.015625)"/>
       <path id="DejaVuSans-54" d="M -19 4666 
L 3928 4666 
L 3928 4134 
L 2272 4134 
L 2272 0 
L 1638 0 
L 1638 4134 
L -19 4134 
L -19 4666 
z
" transform="scale(0.015625)"/>
      </defs>
      <use xlink:href="#DejaVuSans-57"/>
      <use xlink:href="#DejaVuSans-61" x="92.501953"/>
      <use xlink:href="#DejaVuSans-69" x="153.78125"/>
      <use xlink:href="#DejaVuSans-74" x="181.564453"/>
      <use xlink:href="#DejaVuSans-69" x="220.773438"/>
      <use xlink:href="#DejaVuSans-6e" x="248.556641"/>
      <use xlink:href="#DejaVuSans-67" x="311.935547"/>
      <use xlink:href="#DejaVuSans-20" x="375.412109"/>
      <use xlink:href="#DejaVuSans-54" x="407.199219"/>
      <use xlink:href="#DejaVuSans-69" x="465.158203"/>
      <use xlink:href="#DejaVuSans-6d" x="492.941406"/>
      <use xlink:href="#DejaVuSans-65" x="590.353516"/>
     </g>
    </g>
   </g>
   <g id="line2d_27">
    <path d="M 173.045455 195.484889 
L 175.159091 216.215125 
L 177.272727 170.609737 
L 179.386364 212.948917 
L 181.5 220.539546 
L 183.613636 196.863606 
L 185.727273 206.141957 
L 187.840909 178.554289 
L 189.954545 205.444634 
L 192.068182 242.863457 
L 194.181818 213.533763 
L 196.295455 218.641889 
L 198.409091 211.453005 
L 200.522727 172.879476 
L 202.636364 199.324958 
L 204.75 173.293002 
L 206.863636 212.115677 
L 208.977273 218.140267 
L 211.090909 168.474094 
L 213.204545 178.318307 
L 215.318182 181.671958 
L 217.431818 173.782488 
L 219.545455 207.210788 
L 221.659091 214.790809 
L 223.772727 204.462204 
L 225.886364 219.476441 
L 228 173.195493 
L 230.113636 209.439326 
L 232.227273 202.805492 
L 234.340909 219.476441 
L 236.454545 224.255928 
L 238.568182 156.953046 
L 240.681818 236.887551 
L 242.795455 181.754561 
L 244.909091 206.141957 
L 247.022727 226.580446 
L 249.136364 189.485423 
L 251.25 236.0416 
L 253.363636 192.369943 
L 255.477273 158.829982 
L 257.590909 207.075624 
L 259.704545 208.170076 
L 261.818182 174.970806 
L 263.931818 204.971918 
L 266.045455 219.936431 
L 268.159091 162.886731 
L 270.272727 189.725399 
L 272.386364 233.291595 
L 274.5 178.317925 
L 276.613636 213.185921 
L 278.727273 179.15647 
L 280.840909 220.539546 
L 282.954545 149.136196 
L 285.068182 197.484957 
L 287.181818 215.670665 
L 289.295455 218.218667 
L 291.409091 176.865096 
L 293.522727 185.594964 
L 295.636364 191.781006 
L 297.75 202.082365 
L 299.863636 176.679053 
L 301.977273 158.120566 
L 304.090909 197.731178 
L 306.204545 158.585561 
L 308.318182 176.66301 
L 310.431818 179.933316 
L 312.545455 193.323983 
L 314.659091 151.904451 
L 316.772727 206.040281 
L 318.886364 119.021027 
L 321 146.101552 
L 323.113636 182.626453 
L 325.227273 185.039522 
L 327.340909 196.685894 
L 329.454545 202.130702 
L 331.568182 188.691429 
L 333.681818 208.524913 
L 335.795455 150.210227 
L 337.909091 171.921342 
L 340.022727 177.583905 
L 342.136364 181.333673 
L 344.25 181.010774 
L 346.363636 129.955403 
L 348.477273 201.628959 
L 350.590909 150.109865 
L 352.704545 120.811973 
L 354.818182 135.229904 
L 356.931818 131.44204 
L 359.045455 143.625853 
L 361.159091 154.421089 
L 363.272727 168.007099 
L 365.386364 127.15026 
L 367.5 143.414748 
L 369.613636 170.299431 
L 371.727273 201.518368 
L 373.840909 131.852273 
L 375.954545 96.404597 
L 378.068182 101.004933 
L 380.181818 182.113209 
L 382.295455 224.895239 
L 384.409091 170.500751 
L 386.522727 73.390909 
L 388.636364 117.948728 
L 390.75 200.020332 
L 392.863636 163.523614 
L 394.977273 170.727515 
L 397.090909 144.247421 
L 399.204545 229.611212 
L 401.318182 228.130175 
L 403.431818 188.004547 
L 405.545455 184.254459 
L 407.659091 162.837088 
L 409.772727 222.437203 
L 411.886364 219.738345 
L 414 225.890295 
L 416.113636 143.385576 
L 418.227273 188.647814 
L 420.340909 230.133585 
L 422.454545 201.730905 
L 424.568182 202.471076 
L 426.681818 138.350486 
L 428.795455 143.788901 
L 430.909091 180.668618 
L 433.022727 170.046906 
L 435.136364 186.720233 
L 437.25 200.43055 
L 439.363636 199.332376 
L 441.477273 155.310335 
L 443.590909 189.907599 
L 445.704545 175.394686 
L 447.818182 156.599094 
L 449.931818 200.275615 
L 452.045455 162.837088 
L 454.159091 171.855403 
L 456.272727 230.893157 
L 458.386364 148.046129 
L 460.5 229.611212 
L 462.613636 208.031593 
L 464.727273 178.522574 
L 466.840909 207.985541 
L 468.954545 190.24032 
L 471.068182 155.486307 
L 473.181818 169.094798 
L 475.295455 123.114029 
L 477.409091 143.385576 
L 479.522727 185.148174 
L 481.636364 203.090915 
L 483.75 174.473311 
L 485.863636 204.462204 
L 487.977273 195.310784 
L 490.090909 188.894738 
L 492.204545 203.791915 
L 494.318182 197.767658 
L 496.431818 208.500893 
L 498.545455 198.503006 
L 500.659091 161.71217 
L 502.772727 242.863457 
L 504.886364 207.985541 
L 509.113636 161.81766 
L 511.227273 188.248773 
L 513.340909 166.216384 
L 515.454545 186.138747 
L 517.568182 188.004547 
L 519.681818 214.679566 
L 521.795455 226.668354 
L 523.909091 193.668233 
L 526.022727 178.554289 
L 528.136364 189.2671 
L 530.25 166.372636 
L 532.363636 192.788349 
L 534.477273 149.515689 
L 536.590909 229.237481 
L 538.704545 186.961554 
L 540.818182 163.93392 
L 542.931818 208.917132 
L 545.045455 220.74365 
L 547.159091 189.173785 
L 549.272727 224.895239 
L 551.386364 192.468716 
L 553.5 190.01911 
L 555.613636 216.987682 
L 557.727273 193.399359 
L 559.840909 193.618969 
L 561.954545 233.422547 
L 564.068182 193.972344 
L 566.181818 223.32917 
L 568.295455 172.715656 
L 570.409091 210.472467 
L 572.522727 164.189358 
L 574.636364 162.09262 
L 576.75 178.685741 
L 578.863636 204.233083 
L 580.977273 170.515645 
L 583.090909 181.561984 
L 585.204545 168.176978 
L 587.318182 165.309133 
L 589.431818 197.6219 
L 591.545455 235.720804 
L 593.659091 224.255928 
L 595.772727 193.131823 
L 597.886364 176.66301 
L 600 218.389982 
L 602.113636 194.176055 
L 604.227273 202.805492 
L 606.340909 199.665316 
L 608.454545 159.636475 
L 610.568182 214.722091 
L 612.681818 218.641889 
L 614.795455 226.146438 
L 616.909091 157.657812 
L 619.022727 163.654292 
L 621.136364 197.731178 
L 623.25 179.96724 
L 625.363636 227.294624 
L 627.477273 167.044499 
L 629.590909 237.618462 
L 631.704545 192.591213 
L 633.818182 157.236908 
L 635.931818 187.5191 
L 638.045455 192.337058 
L 640.159091 174.970806 
L 642.272727 234.376876 
L 644.386364 157.018332 
L 646.5 170.327806 
L 648.613636 166.560057 
L 650.727273 176.124173 
L 652.840909 156.682724 
L 654.954545 191.59007 
L 657.068182 162.029329 
L 659.181818 192.766113 
L 661.295455 182.727118 
L 663.409091 174.20542 
L 665.522727 224.255928 
L 667.636364 219.749195 
L 669.75 229.611212 
L 671.863636 204.33983 
L 673.977273 162.322965 
L 676.090909 220.675441 
L 678.204545 195.484889 
L 680.318182 198.133952 
L 682.431818 189.258196 
L 684.545455 213.258511 
L 686.659091 188.248773 
L 688.772727 199.061903 
L 690.886364 181.561984 
L 693 161.18666 
L 695.113636 201.999949 
L 697.227273 195.873051 
L 699.340909 215.647651 
L 701.454545 153.085462 
L 703.568182 205.315181 
L 705.681818 203.750366 
L 707.795455 231.807346 
L 709.909091 235.720804 
L 712.022727 177.340175 
L 714.136364 211.891247 
L 716.25 193.131823 
L 718.363636 225.890295 
L 720.477273 185.323503 
L 722.590909 193.432894 
L 724.704545 229.204285 
L 726.818182 160.093114 
L 728.931818 210.009002 
L 731.045455 206.986764 
L 733.159091 234.955813 
L 735.272727 220.13597 
L 737.386364 161.480548 
L 739.5 168.753619 
L 741.613636 173.293002 
L 743.727273 201.405109 
L 745.840909 199.061903 
L 747.954545 210.653942 
L 750.068182 159.546776 
L 752.181818 233.688285 
L 754.295455 158.220189 
L 756.409091 127.758636 
L 758.522727 197.548295 
L 760.636364 167.858253 
L 762.75 172.709869 
L 764.863636 200.70467 
L 766.977273 226.580446 
L 769.090909 213.965588 
L 771.204545 193.432894 
L 773.318182 167.382554 
L 775.431818 214.348104 
L 777.545455 171.419098 
L 779.659091 158.114881 
L 781.772727 177.485739 
L 783.886364 142.094196 
L 786 209.727234 
L 788.113636 159.803773 
L 790.227273 168.956437 
L 792.340909 212.270391 
L 794.454545 237.618462 
L 796.568182 227.339824 
L 798.681818 215.809782 
L 800.795455 200.895773 
L 802.909091 212.232514 
L 805.022727 217.464394 
L 807.136364 172.879476 
L 809.25 199.100676 
L 811.363636 214.388872 
L 813.477273 190.494189 
L 815.590909 213.319921 
L 817.704545 197.440304 
L 819.818182 221.788842 
L 821.931818 166.194415 
L 824.045455 160.00937 
L 826.159091 223.32917 
L 828.272727 148.552096 
L 830.386364 164.979613 
L 832.5 235.10491 
L 834.613636 199.585464 
L 836.727273 207.619058 
L 838.840909 212.270391 
L 840.954545 186.617881 
L 843.068182 224.334861 
L 845.181818 220.13597 
L 847.295455 234.376876 
L 849.409091 184.455312 
L 851.522727 221.647004 
L 853.636364 153.085462 
L 855.75 208.682116 
L 857.863636 145.32468 
L 859.977273 170.622123 
L 862.090909 210.260908 
L 864.204545 186.828119 
L 866.318182 165.309133 
L 868.431818 191.781006 
L 870.545455 154.670045 
L 872.659091 171.271652 
L 874.772727 167.654033 
L 876.886364 204.167665 
L 879 181.342586 
L 881.113636 164.143334 
L 883.227273 176.484316 
L 885.340909 204.462204 
L 887.454545 218.109131 
L 889.568182 168.864333 
L 891.681818 215.63977 
L 893.795455 224.255928 
L 895.909091 188.970798 
L 898.022727 165.309133 
L 900.136364 197.440304 
L 902.25 190.14541 
L 904.363636 221.295818 
L 906.477273 241.105829 
L 908.590909 202.920842 
L 910.704545 190.23329 
L 912.818182 210.852056 
L 914.931818 245.209091 
L 917.045455 168.017455 
L 919.159091 168.103335 
L 921.272727 239.516119 
L 923.386364 226.934374 
L 925.5 235.10491 
L 927.613636 189.24092 
L 929.727273 202.68373 
L 931.840909 207.985541 
L 933.954545 150.456545 
L 933.954545 150.456545 
" clip-path="url(#p4aeaeb4d4c)" style="fill: none; stroke: #000000; stroke-width: 1.5; stroke-linecap: square"/>
   </g>
   <g id="line2d_28">
    <path d="M 192.068182 204.566616 
L 194.181818 206.371503 
L 196.295455 206.614179 
L 198.409091 210.698506 
L 200.522727 206.691562 
L 202.636364 204.570103 
L 204.75 202.213043 
L 206.863636 202.810415 
L 208.977273 206.769013 
L 211.090909 203.071959 
L 213.204545 196.617444 
L 215.318182 193.431263 
L 217.431818 188.945323 
L 219.545455 188.521102 
L 221.659091 192.712235 
L 223.772727 193.225959 
L 225.886364 197.844303 
L 228 193.952285 
L 230.113636 193.082191 
L 232.227273 196.515331 
L 236.454545 204.889541 
L 238.568182 203.206597 
L 240.681818 206.174273 
L 242.795455 202.870648 
L 244.909091 203.038624 
L 247.022727 203.749024 
L 249.136364 205.378017 
L 251.25 208.038245 
L 253.363636 206.99469 
L 255.477273 200.930044 
L 257.590909 199.212013 
L 259.704545 204.333716 
L 261.818182 198.142042 
L 263.931818 200.463777 
L 266.045455 201.843225 
L 268.159091 195.473853 
L 270.272727 195.497851 
L 272.386364 195.22285 
L 274.5 193.817649 
L 276.613636 199.253242 
L 278.727273 196.461327 
L 280.840909 197.698274 
L 282.954545 195.114813 
L 285.068182 194.366117 
L 287.181818 193.93954 
L 289.295455 199.472734 
L 291.409091 198.186704 
L 293.522727 193.417041 
L 295.636364 194.763349 
L 297.75 193.652993 
L 299.863636 193.405251 
L 301.977273 187.163353 
L 304.090909 192.022852 
L 310.431818 180.403612 
L 312.545455 182.0495 
L 314.659091 178.680449 
L 316.772727 180.106376 
L 318.886364 171.800243 
L 321 168.742492 
L 323.113636 171.193081 
L 325.227273 169.923916 
L 327.340909 173.733949 
L 329.454545 176.280718 
L 331.568182 177.156529 
L 333.681818 178.676622 
L 335.795455 178.5072 
L 337.909091 175.095306 
L 340.022727 180.951594 
L 342.136364 184.474806 
L 344.25 184.313238 
L 346.363636 178.804826 
L 348.477273 179.299133 
L 350.590909 174.097049 
L 352.704545 167.309103 
L 354.818182 159.979603 
L 356.931818 158.102784 
L 359.045455 155.273235 
L 361.159091 152.956953 
L 363.272727 151.624296 
L 365.386364 146.238244 
L 367.5 147.584179 
L 369.613636 144.451226 
L 371.727273 149.592076 
L 373.840909 150.696106 
L 375.954545 146.813576 
L 378.068182 143.769865 
L 380.181818 147.618601 
L 382.295455 154.666016 
L 384.409091 154.915381 
L 386.522727 149.539446 
L 388.636364 146.992844 
L 390.75 149.964934 
L 392.863636 146.165459 
L 394.977273 150.052983 
L 397.090909 154.837265 
L 399.204545 167.697893 
L 401.318182 172.29959 
L 403.431818 168.610521 
L 405.545455 169.985891 
L 407.659091 178.930509 
L 409.772727 189.379357 
L 411.886364 191.351158 
L 414 197.587826 
L 416.113636 194.853632 
L 418.227273 199.293672 
L 420.340909 199.345909 
L 422.454545 196.705982 
L 424.568182 198.152635 
L 426.681818 193.562238 
L 428.795455 191.657419 
L 430.909091 187.48056 
L 433.022727 182.511416 
L 435.136364 178.59441 
L 437.25 184.298908 
L 439.363636 185.367364 
L 441.477273 177.885039 
L 443.590909 176.702708 
L 445.704545 173.995069 
L 447.818182 175.81993 
L 449.931818 181.468601 
L 452.045455 179.685448 
L 454.159091 179.866298 
L 456.272727 184.28359 
L 458.386364 179.045148 
L 460.5 182.073032 
L 462.613636 187.345158 
L 464.727273 186.206655 
L 468.954545 192.829863 
L 471.068182 188.350932 
L 473.181818 188.976703 
L 475.295455 184.102566 
L 477.409091 175.351808 
L 479.522727 179.062012 
L 481.636364 176.409983 
L 483.75 173.054154 
L 485.863636 175.648117 
L 487.977273 174.380642 
L 490.090909 174.246084 
L 492.204545 179.076644 
L 494.318182 181.94393 
L 496.431818 190.482617 
L 498.545455 195.99436 
L 500.659091 193.650759 
L 502.772727 197.628014 
L 504.886364 200.979237 
L 507 199.068092 
L 509.113636 195.718779 
L 511.227273 195.654183 
L 513.340909 191.89663 
L 515.454545 190.733738 
L 517.568182 188.684104 
L 519.681818 190.30176 
L 521.795455 196.797378 
L 523.909091 191.877856 
L 526.022727 188.934731 
L 530.25 189.781863 
L 532.363636 190.235821 
L 534.477273 188.565751 
L 536.590909 192.875624 
L 538.704545 192.771325 
L 540.818182 187.696761 
L 542.931818 185.921638 
L 545.045455 188.62918 
L 547.159091 189.69113 
L 549.272727 193.253944 
L 551.386364 195.863552 
L 553.5 195.586628 
L 555.613636 202.333827 
L 557.727273 198.750015 
L 559.840909 199.415756 
L 561.954545 206.364619 
L 564.068182 204.87014 
L 566.181818 205.128692 
L 568.295455 203.482879 
L 570.409091 202.040602 
L 574.636364 196.420017 
L 576.75 192.589823 
L 578.863636 193.673195 
L 580.977273 191.362863 
L 583.090909 186.176807 
L 585.204545 183.59727 
L 587.318182 177.795267 
L 591.545455 182.810725 
L 593.659091 188.817382 
L 595.772727 191.921302 
L 597.886364 191.719029 
L 600 193.134719 
L 602.113636 195.50076 
L 604.227273 197.625111 
L 606.340909 200.773945 
L 608.454545 200.206679 
L 610.568182 201.916698 
L 612.681818 200.208806 
L 614.795455 200.397857 
L 616.909091 196.850456 
L 619.022727 195.549584 
L 621.136364 193.483704 
L 623.25 192.062822 
L 625.363636 194.511735 
L 627.477273 191.249654 
L 629.590909 199.047853 
L 631.704545 196.834765 
L 633.818182 190.694267 
L 635.931818 186.831533 
L 638.045455 190.299457 
L 640.159091 191.431109 
L 642.272727 195.095679 
L 644.386364 192.800788 
L 646.5 187.104106 
L 648.613636 187.055662 
L 650.727273 180.906233 
L 652.840909 177.315384 
L 654.954545 180.7507 
L 657.068182 178.201723 
L 659.181818 178.244629 
L 661.295455 179.02026 
L 663.409091 173.003114 
L 665.522727 179.726874 
L 667.636364 184.669013 
L 669.75 190.974128 
L 671.863636 193.795694 
L 673.977273 194.359718 
L 676.090909 197.268255 
L 678.204545 200.613811 
L 680.318182 201.150595 
L 682.431818 201.803703 
L 684.545455 205.709012 
L 686.659091 202.108296 
L 688.772727 200.039567 
L 690.886364 195.234644 
L 693 190.919327 
L 695.113636 194.887026 
L 697.227273 192.406787 
L 699.340909 194.423063 
L 701.454545 189.918214 
L 703.568182 191.523912 
L 705.681818 190.573098 
L 707.795455 194.928955 
L 709.909091 198.594845 
L 712.022727 198.172664 
L 714.136364 203.243123 
L 716.25 202.356311 
L 718.363636 205.358035 
L 720.477273 202.32562 
L 722.590909 206.360363 
L 724.704545 208.749274 
L 726.818182 204.383549 
L 728.931818 202.203714 
L 731.045455 199.33031 
L 733.159091 205.091874 
L 735.272727 205.916346 
L 737.386364 202.751219 
L 739.5 197.037551 
L 741.613636 195.834501 
L 743.727273 196.631723 
L 745.840909 193.617484 
L 747.954545 198.673567 
L 750.068182 193.627344 
L 752.181818 196.297497 
L 754.295455 188.623934 
L 756.409091 179.386201 
L 758.522727 182.992975 
L 764.863636 182.775082 
L 766.977273 185.526936 
L 769.090909 185.858101 
L 771.204545 189.246713 
L 773.318182 182.616139 
L 775.431818 188.228931 
L 777.545455 192.594977 
L 779.659091 188.651636 
L 781.772727 189.614384 
L 783.886364 186.552817 
L 786 187.455073 
L 788.113636 180.777406 
L 790.227273 176.276491 
L 792.340909 178.160241 
L 794.454545 185.183832 
L 796.568182 186.483004 
L 800.795455 195.200161 
L 802.909091 198.674839 
L 805.022727 206.211858 
L 807.136364 202.527083 
L 809.25 206.456773 
L 811.363636 211.000016 
L 813.477273 208.822396 
L 815.590909 206.392542 
L 817.704545 203.40259 
L 819.818182 204.000496 
L 821.931818 200.53036 
L 824.045455 195.308046 
L 826.159091 195.894523 
L 828.272727 193.461785 
L 830.386364 190.049679 
L 832.5 192.121283 
L 834.613636 193.03041 
L 836.727273 192.460324 
L 838.840909 193.943333 
L 840.954545 190.426237 
L 845.181818 202.252941 
L 847.295455 203.357712 
L 849.409091 206.948034 
L 851.522727 212.614773 
L 853.636364 204.412828 
L 855.75 205.322493 
L 857.863636 199.093055 
L 859.977273 194.928229 
L 862.090909 197.292531 
L 864.204545 193.541857 
L 866.318182 188.059173 
L 868.431818 183.799586 
L 870.545455 180.82106 
L 872.659091 175.783525 
L 874.772727 177.240382 
L 876.886364 176.788937 
L 879 180.390727 
L 881.113636 179.742848 
L 883.227273 176.365189 
L 885.340909 178.128598 
L 887.454545 183.408597 
L 889.568182 181.11693 
L 891.681818 187.213903 
L 893.795455 192.51233 
L 895.909091 194.644007 
L 898.022727 190.758154 
L 900.136364 192.367925 
L 902.25 194.968133 
L 904.363636 199.449283 
L 906.477273 203.113646 
L 908.590909 201.594817 
L 910.704545 203.731712 
L 912.818182 203.252941 
L 914.931818 205.348257 
L 917.045455 203.252923 
L 919.159091 203.532343 
L 921.272727 207.739925 
L 923.386364 211.418821 
L 925.5 212.79973 
L 927.613636 207.613239 
L 929.727273 207.589528 
L 931.840909 209.364753 
L 933.954545 203.325202 
L 933.954545 203.325202 
" clip-path="url(#p4aeaeb4d4c)" style="fill: none; stroke: #ff0000; stroke-width: 1.5; stroke-linecap: square"/>
   </g>
   <g id="patch_3">
    <path d="M 135 253.8 
L 135 64.8 
" style="fill: none; stroke: #000000; stroke-width: 0.8; stroke-linejoin: miter; stroke-linecap: square"/>
   </g>
   <g id="patch_4">
    <path d="M 972 253.8 
L 972 64.8 
" style="fill: none; stroke: #000000; stroke-width: 0.8; stroke-linejoin: miter; stroke-linecap: square"/>
   </g>
   <g id="patch_5">
    <path d="M 135 253.8 
L 972 253.8 
" style="fill: none; stroke: #000000; stroke-width: 0.8; stroke-linejoin: miter; stroke-linecap: square"/>
   </g>
   <g id="patch_6">
    <path d="M 135 64.8 
L 972 64.8 
" style="fill: none; stroke: #000000; stroke-width: 0.8; stroke-linejoin: miter; stroke-linecap: square"/>
   </g>
   <g id="text_16">
    <!-- Default -->
    <g transform="translate(531.5775 58.8)scale(0.12 -0.12)">
     <defs>
      <path id="DejaVuSans-44" d="M 1259 4147 
L 1259 519 
L 2022 519 
Q 2988 519 3436 956 
Q 3884 1394 3884 2338 
Q 3884 3275 3436 3711 
Q 2988 4147 2022 4147 
L 1259 4147 
z
M 628 4666 
L 1925 4666 
Q 3281 4666 3915 4102 
Q 4550 3538 4550 2338 
Q 4550 1131 3912 565 
Q 3275 0 1925 0 
L 628 0 
L 628 4666 
z
" transform="scale(0.015625)"/>
      <path id="DejaVuSans-6c" d="M 603 4863 
L 1178 4863 
L 1178 0 
L 603 0 
L 603 4863 
z
" transform="scale(0.015625)"/>
     </defs>
     <use xlink:href="#DejaVuSans-44"/>
     <use xlink:href="#DejaVuSans-65" x="77.001953"/>
     <use xlink:href="#DejaVuSans-66" x="138.525391"/>
     <use xlink:href="#DejaVuSans-61" x="173.730469"/>
     <use xlink:href="#DejaVuSans-75" x="235.009766"/>
     <use xlink:href="#DejaVuSans-6c" x="298.388672"/>
     <use xlink:href="#DejaVuSans-74" x="326.171875"/>
    </g>
   </g>
   <g id="legend_1">
    <g id="patch_7">
     <path d="M 142 102.15625 
L 259.09375 102.15625 
Q 261.09375 102.15625 261.09375 100.15625 
L 261.09375 71.8 
Q 261.09375 69.8 259.09375 69.8 
L 142 69.8 
Q 140 69.8 140 71.8 
L 140 100.15625 
Q 140 102.15625 142 102.15625 
z
" style="fill: #ffffff; opacity: 0.8; stroke: #cccccc; stroke-linejoin: miter"/>
    </g>
    <g id="line2d_29">
     <path d="M 144 77.898438 
L 154 77.898438 
L 164 77.898438 
" style="fill: none; stroke: #000000; stroke-width: 1.5; stroke-linecap: square"/>
    </g>
    <g id="text_17">
     <!-- Original -->
     <g transform="translate(172 81.398438)scale(0.1 -0.1)">
      <use xlink:href="#DejaVuSans-4f"/>
      <use xlink:href="#DejaVuSans-72" x="78.710938"/>
      <use xlink:href="#DejaVuSans-69" x="119.824219"/>
      <use xlink:href="#DejaVuSans-67" x="147.607422"/>
      <use xlink:href="#DejaVuSans-69" x="211.083984"/>
      <use xlink:href="#DejaVuSans-6e" x="238.867188"/>
      <use xlink:href="#DejaVuSans-61" x="302.246094"/>
      <use xlink:href="#DejaVuSans-6c" x="363.525391"/>
     </g>
    </g>
    <g id="line2d_30">
     <path d="M 144 92.576563 
L 154 92.576563 
L 164 92.576563 
" style="fill: none; stroke: #ff0000; stroke-width: 1.5; stroke-linecap: square"/>
    </g>
    <g id="text_18">
     <!-- Running average -->
     <g transform="translate(172 96.076563)scale(0.1 -0.1)">
      <defs>
       <path id="DejaVuSans-52" d="M 2841 2188 
Q 3044 2119 3236 1894 
Q 3428 1669 3622 1275 
L 4263 0 
L 3584 0 
L 2988 1197 
Q 2756 1666 2539 1819 
Q 2322 1972 1947 1972 
L 1259 1972 
L 1259 0 
L 628 0 
L 628 4666 
L 2053 4666 
Q 2853 4666 3247 4331 
Q 3641 3997 3641 3322 
Q 3641 2881 3436 2590 
Q 3231 2300 2841 2188 
z
M 1259 4147 
L 1259 2491 
L 2053 2491 
Q 2509 2491 2742 2702 
Q 2975 2913 2975 3322 
Q 2975 3731 2742 3939 
Q 2509 4147 2053 4147 
L 1259 4147 
z
" transform="scale(0.015625)"/>
       <path id="DejaVuSans-76" d="M 191 3500 
L 800 3500 
L 1894 563 
L 2988 3500 
L 3597 3500 
L 2284 0 
L 1503 0 
L 191 3500 
z
" transform="scale(0.015625)"/>
      </defs>
      <use xlink:href="#DejaVuSans-52"/>
      <use xlink:href="#DejaVuSans-75" x="64.982422"/>
      <use xlink:href="#DejaVuSans-6e" x="128.361328"/>
      <use xlink:href="#DejaVuSans-6e" x="191.740234"/>
      <use xlink:href="#DejaVuSans-69" x="255.119141"/>
      <use xlink:href="#DejaVuSans-6e" x="282.902344"/>
      <use xlink:href="#DejaVuSans-67" x="346.28125"/>
      <use xlink:href="#DejaVuSans-20" x="409.757812"/>
      <use xlink:href="#DejaVuSans-61" x="441.544922"/>
      <use xlink:href="#DejaVuSans-76" x="502.824219"/>
      <use xlink:href="#DejaVuSans-65" x="562.003906"/>
      <use xlink:href="#DejaVuSans-72" x="623.527344"/>
      <use xlink:href="#DejaVuSans-61" x="664.640625"/>
      <use xlink:href="#DejaVuSans-67" x="725.919922"/>
      <use xlink:href="#DejaVuSans-65" x="789.396484"/>
     </g>
    </g>
   </g>
  </g>
  <g id="axes_2">
   <g id="patch_8">
    <path d="M 135 480.6 
L 972 480.6 
L 972 291.6 
L 135 291.6 
z
" style="fill: #ffffff"/>
   </g>
   <g id="matplotlib.axis_3">
    <g id="xtick_9">
     <g id="line2d_31">
      <path d="M 173.045455 480.6 
L 173.045455 291.6 
" clip-path="url(#p6970c29cfc)" style="fill: none; stroke-dasharray: 0.8,1.32; stroke-dashoffset: 0; stroke: #b0b0b0; stroke-width: 0.8"/>
     </g>
     <g id="line2d_32">
      <g>
       <use xlink:href="#m4a4d1804dc" x="173.045455" y="480.6" style="stroke: #000000; stroke-width: 0.8"/>
      </g>
     </g>
     <g id="text_19">
      <!-- 0 -->
      <g transform="translate(169.864205 495.198438)scale(0.1 -0.1)">
       <use xlink:href="#DejaVuSans-30"/>
      </g>
     </g>
    </g>
    <g id="xtick_10">
     <g id="line2d_33">
      <path d="M 278.727273 480.6 
L 278.727273 291.6 
" clip-path="url(#p6970c29cfc)" style="fill: none; stroke-dasharray: 0.8,1.32; stroke-dashoffset: 0; stroke: #b0b0b0; stroke-width: 0.8"/>
     </g>
     <g id="line2d_34">
      <g>
       <use xlink:href="#m4a4d1804dc" x="278.727273" y="480.6" style="stroke: #000000; stroke-width: 0.8"/>
      </g>
     </g>
     <g id="text_20">
      <!-- 50 -->
      <g transform="translate(272.364773 495.198438)scale(0.1 -0.1)">
       <use xlink:href="#DejaVuSans-35"/>
       <use xlink:href="#DejaVuSans-30" x="63.623047"/>
      </g>
     </g>
    </g>
    <g id="xtick_11">
     <g id="line2d_35">
      <path d="M 384.409091 480.6 
L 384.409091 291.6 
" clip-path="url(#p6970c29cfc)" style="fill: none; stroke-dasharray: 0.8,1.32; stroke-dashoffset: 0; stroke: #b0b0b0; stroke-width: 0.8"/>
     </g>
     <g id="line2d_36">
      <g>
       <use xlink:href="#m4a4d1804dc" x="384.409091" y="480.6" style="stroke: #000000; stroke-width: 0.8"/>
      </g>
     </g>
     <g id="text_21">
      <!-- 100 -->
      <g transform="translate(374.865341 495.198438)scale(0.1 -0.1)">
       <use xlink:href="#DejaVuSans-31"/>
       <use xlink:href="#DejaVuSans-30" x="63.623047"/>
       <use xlink:href="#DejaVuSans-30" x="127.246094"/>
      </g>
     </g>
    </g>
    <g id="xtick_12">
     <g id="line2d_37">
      <path d="M 490.090909 480.6 
L 490.090909 291.6 
" clip-path="url(#p6970c29cfc)" style="fill: none; stroke-dasharray: 0.8,1.32; stroke-dashoffset: 0; stroke: #b0b0b0; stroke-width: 0.8"/>
     </g>
     <g id="line2d_38">
      <g>
       <use xlink:href="#m4a4d1804dc" x="490.090909" y="480.6" style="stroke: #000000; stroke-width: 0.8"/>
      </g>
     </g>
     <g id="text_22">
      <!-- 150 -->
      <g transform="translate(480.547159 495.198438)scale(0.1 -0.1)">
       <use xlink:href="#DejaVuSans-31"/>
       <use xlink:href="#DejaVuSans-35" x="63.623047"/>
       <use xlink:href="#DejaVuSans-30" x="127.246094"/>
      </g>
     </g>
    </g>
    <g id="xtick_13">
     <g id="line2d_39">
      <path d="M 595.772727 480.6 
L 595.772727 291.6 
" clip-path="url(#p6970c29cfc)" style="fill: none; stroke-dasharray: 0.8,1.32; stroke-dashoffset: 0; stroke: #b0b0b0; stroke-width: 0.8"/>
     </g>
     <g id="line2d_40">
      <g>
       <use xlink:href="#m4a4d1804dc" x="595.772727" y="480.6" style="stroke: #000000; stroke-width: 0.8"/>
      </g>
     </g>
     <g id="text_23">
      <!-- 200 -->
      <g transform="translate(586.228977 495.198438)scale(0.1 -0.1)">
       <use xlink:href="#DejaVuSans-32"/>
       <use xlink:href="#DejaVuSans-30" x="63.623047"/>
       <use xlink:href="#DejaVuSans-30" x="127.246094"/>
      </g>
     </g>
    </g>
    <g id="xtick_14">
     <g id="line2d_41">
      <path d="M 701.454545 480.6 
L 701.454545 291.6 
" clip-path="url(#p6970c29cfc)" style="fill: none; stroke-dasharray: 0.8,1.32; stroke-dashoffset: 0; stroke: #b0b0b0; stroke-width: 0.8"/>
     </g>
     <g id="line2d_42">
      <g>
       <use xlink:href="#m4a4d1804dc" x="701.454545" y="480.6" style="stroke: #000000; stroke-width: 0.8"/>
      </g>
     </g>
     <g id="text_24">
      <!-- 250 -->
      <g transform="translate(691.910795 495.198438)scale(0.1 -0.1)">
       <use xlink:href="#DejaVuSans-32"/>
       <use xlink:href="#DejaVuSans-35" x="63.623047"/>
       <use xlink:href="#DejaVuSans-30" x="127.246094"/>
      </g>
     </g>
    </g>
    <g id="xtick_15">
     <g id="line2d_43">
      <path d="M 807.136364 480.6 
L 807.136364 291.6 
" clip-path="url(#p6970c29cfc)" style="fill: none; stroke-dasharray: 0.8,1.32; stroke-dashoffset: 0; stroke: #b0b0b0; stroke-width: 0.8"/>
     </g>
     <g id="line2d_44">
      <g>
       <use xlink:href="#m4a4d1804dc" x="807.136364" y="480.6" style="stroke: #000000; stroke-width: 0.8"/>
      </g>
     </g>
     <g id="text_25">
      <!-- 300 -->
      <g transform="translate(797.592614 495.198438)scale(0.1 -0.1)">
       <use xlink:href="#DejaVuSans-33"/>
       <use xlink:href="#DejaVuSans-30" x="63.623047"/>
       <use xlink:href="#DejaVuSans-30" x="127.246094"/>
      </g>
     </g>
    </g>
    <g id="xtick_16">
     <g id="line2d_45">
      <path d="M 912.818182 480.6 
L 912.818182 291.6 
" clip-path="url(#p6970c29cfc)" style="fill: none; stroke-dasharray: 0.8,1.32; stroke-dashoffset: 0; stroke: #b0b0b0; stroke-width: 0.8"/>
     </g>
     <g id="line2d_46">
      <g>
       <use xlink:href="#m4a4d1804dc" x="912.818182" y="480.6" style="stroke: #000000; stroke-width: 0.8"/>
      </g>
     </g>
     <g id="text_26">
      <!-- 350 -->
      <g transform="translate(903.274432 495.198438)scale(0.1 -0.1)">
       <use xlink:href="#DejaVuSans-33"/>
       <use xlink:href="#DejaVuSans-35" x="63.623047"/>
       <use xlink:href="#DejaVuSans-30" x="127.246094"/>
      </g>
     </g>
    </g>
    <g id="text_27">
     <!-- Number of Orders -->
     <g transform="translate(508.601562 508.876563)scale(0.1 -0.1)">
      <use xlink:href="#DejaVuSans-4e"/>
      <use xlink:href="#DejaVuSans-75" x="74.804688"/>
      <use xlink:href="#DejaVuSans-6d" x="138.183594"/>
      <use xlink:href="#DejaVuSans-62" x="235.595703"/>
      <use xlink:href="#DejaVuSans-65" x="299.072266"/>
      <use xlink:href="#DejaVuSans-72" x="360.595703"/>
      <use xlink:href="#DejaVuSans-20" x="401.708984"/>
      <use xlink:href="#DejaVuSans-6f" x="433.496094"/>
      <use xlink:href="#DejaVuSans-66" x="494.677734"/>
      <use xlink:href="#DejaVuSans-20" x="529.882812"/>
      <use xlink:href="#DejaVuSans-4f" x="561.669922"/>
      <use xlink:href="#DejaVuSans-72" x="640.380859"/>
      <use xlink:href="#DejaVuSans-64" x="679.744141"/>
      <use xlink:href="#DejaVuSans-65" x="743.220703"/>
      <use xlink:href="#DejaVuSans-72" x="804.744141"/>
      <use xlink:href="#DejaVuSans-73" x="845.857422"/>
     </g>
    </g>
   </g>
   <g id="matplotlib.axis_4">
    <g id="ytick_6">
     <g id="line2d_47">
      <path d="M 135 466.0204 
L 972 466.0204 
" clip-path="url(#p6970c29cfc)" style="fill: none; stroke-dasharray: 0.8,1.32; stroke-dashoffset: 0; stroke: #b0b0b0; stroke-width: 0.8"/>
     </g>
     <g id="line2d_48">
      <g>
       <use xlink:href="#m2525bd4895" x="135" y="466.0204" style="stroke: #000000; stroke-width: 0.8"/>
      </g>
     </g>
     <g id="text_28">
      <!-- 20 -->
      <g transform="translate(115.275 469.819619)scale(0.1 -0.1)">
       <use xlink:href="#DejaVuSans-32"/>
       <use xlink:href="#DejaVuSans-30" x="63.623047"/>
      </g>
     </g>
    </g>
    <g id="ytick_7">
     <g id="line2d_49">
      <path d="M 135 444.353114 
L 972 444.353114 
" clip-path="url(#p6970c29cfc)" style="fill: none; stroke-dasharray: 0.8,1.32; stroke-dashoffset: 0; stroke: #b0b0b0; stroke-width: 0.8"/>
     </g>
     <g id="line2d_50">
      <g>
       <use xlink:href="#m2525bd4895" x="135" y="444.353114" style="stroke: #000000; stroke-width: 0.8"/>
      </g>
     </g>
     <g id="text_29">
      <!-- 30 -->
      <g transform="translate(115.275 448.152333)scale(0.1 -0.1)">
       <use xlink:href="#DejaVuSans-33"/>
       <use xlink:href="#DejaVuSans-30" x="63.623047"/>
      </g>
     </g>
    </g>
    <g id="ytick_8">
     <g id="line2d_51">
      <path d="M 135 422.685828 
L 972 422.685828 
" clip-path="url(#p6970c29cfc)" style="fill: none; stroke-dasharray: 0.8,1.32; stroke-dashoffset: 0; stroke: #b0b0b0; stroke-width: 0.8"/>
     </g>
     <g id="line2d_52">
      <g>
       <use xlink:href="#m2525bd4895" x="135" y="422.685828" style="stroke: #000000; stroke-width: 0.8"/>
      </g>
     </g>
     <g id="text_30">
      <!-- 40 -->
      <g transform="translate(115.275 426.485047)scale(0.1 -0.1)">
       <use xlink:href="#DejaVuSans-34"/>
       <use xlink:href="#DejaVuSans-30" x="63.623047"/>
      </g>
     </g>
    </g>
    <g id="ytick_9">
     <g id="line2d_53">
      <path d="M 135 401.018542 
L 972 401.018542 
" clip-path="url(#p6970c29cfc)" style="fill: none; stroke-dasharray: 0.8,1.32; stroke-dashoffset: 0; stroke: #b0b0b0; stroke-width: 0.8"/>
     </g>
     <g id="line2d_54">
      <g>
       <use xlink:href="#m2525bd4895" x="135" y="401.018542" style="stroke: #000000; stroke-width: 0.8"/>
      </g>
     </g>
     <g id="text_31">
      <!-- 50 -->
      <g transform="translate(115.275 404.817761)scale(0.1 -0.1)">
       <use xlink:href="#DejaVuSans-35"/>
       <use xlink:href="#DejaVuSans-30" x="63.623047"/>
      </g>
     </g>
    </g>
    <g id="ytick_10">
     <g id="line2d_55">
      <path d="M 135 379.351256 
L 972 379.351256 
" clip-path="url(#p6970c29cfc)" style="fill: none; stroke-dasharray: 0.8,1.32; stroke-dashoffset: 0; stroke: #b0b0b0; stroke-width: 0.8"/>
     </g>
     <g id="line2d_56">
      <g>
       <use xlink:href="#m2525bd4895" x="135" y="379.351256" style="stroke: #000000; stroke-width: 0.8"/>
      </g>
     </g>
     <g id="text_32">
      <!-- 60 -->
      <g transform="translate(115.275 383.150475)scale(0.1 -0.1)">
       <use xlink:href="#DejaVuSans-36"/>
       <use xlink:href="#DejaVuSans-30" x="63.623047"/>
      </g>
     </g>
    </g>
    <g id="ytick_11">
     <g id="line2d_57">
      <path d="M 135 357.68397 
L 972 357.68397 
" clip-path="url(#p6970c29cfc)" style="fill: none; stroke-dasharray: 0.8,1.32; stroke-dashoffset: 0; stroke: #b0b0b0; stroke-width: 0.8"/>
     </g>
     <g id="line2d_58">
      <g>
       <use xlink:href="#m2525bd4895" x="135" y="357.68397" style="stroke: #000000; stroke-width: 0.8"/>
      </g>
     </g>
     <g id="text_33">
      <!-- 70 -->
      <g transform="translate(115.275 361.483188)scale(0.1 -0.1)">
       <defs>
        <path id="DejaVuSans-37" d="M 525 4666 
L 3525 4666 
L 3525 4397 
L 1831 0 
L 1172 0 
L 2766 4134 
L 525 4134 
L 525 4666 
z
" transform="scale(0.015625)"/>
       </defs>
       <use xlink:href="#DejaVuSans-37"/>
       <use xlink:href="#DejaVuSans-30" x="63.623047"/>
      </g>
     </g>
    </g>
    <g id="ytick_12">
     <g id="line2d_59">
      <path d="M 135 336.016684 
L 972 336.016684 
" clip-path="url(#p6970c29cfc)" style="fill: none; stroke-dasharray: 0.8,1.32; stroke-dashoffset: 0; stroke: #b0b0b0; stroke-width: 0.8"/>
     </g>
     <g id="line2d_60">
      <g>
       <use xlink:href="#m2525bd4895" x="135" y="336.016684" style="stroke: #000000; stroke-width: 0.8"/>
      </g>
     </g>
     <g id="text_34">
      <!-- 80 -->
      <g transform="translate(115.275 339.815902)scale(0.1 -0.1)">
       <use xlink:href="#DejaVuSans-38"/>
       <use xlink:href="#DejaVuSans-30" x="63.623047"/>
      </g>
     </g>
    </g>
    <g id="ytick_13">
     <g id="line2d_61">
      <path d="M 135 314.349397 
L 972 314.349397 
" clip-path="url(#p6970c29cfc)" style="fill: none; stroke-dasharray: 0.8,1.32; stroke-dashoffset: 0; stroke: #b0b0b0; stroke-width: 0.8"/>
     </g>
     <g id="line2d_62">
      <g>
       <use xlink:href="#m2525bd4895" x="135" y="314.349397" style="stroke: #000000; stroke-width: 0.8"/>
      </g>
     </g>
     <g id="text_35">
      <!-- 90 -->
      <g transform="translate(115.275 318.148616)scale(0.1 -0.1)">
       <defs>
        <path id="DejaVuSans-39" d="M 703 97 
L 703 672 
Q 941 559 1184 500 
Q 1428 441 1663 441 
Q 2288 441 2617 861 
Q 2947 1281 2994 2138 
Q 2813 1869 2534 1725 
Q 2256 1581 1919 1581 
Q 1219 1581 811 2004 
Q 403 2428 403 3163 
Q 403 3881 828 4315 
Q 1253 4750 1959 4750 
Q 2769 4750 3195 4129 
Q 3622 3509 3622 2328 
Q 3622 1225 3098 567 
Q 2575 -91 1691 -91 
Q 1453 -91 1209 -44 
Q 966 3 703 97 
z
M 1959 2075 
Q 2384 2075 2632 2365 
Q 2881 2656 2881 3163 
Q 2881 3666 2632 3958 
Q 2384 4250 1959 4250 
Q 1534 4250 1286 3958 
Q 1038 3666 1038 3163 
Q 1038 2656 1286 2365 
Q 1534 2075 1959 2075 
z
" transform="scale(0.015625)"/>
       </defs>
       <use xlink:href="#DejaVuSans-39"/>
       <use xlink:href="#DejaVuSans-30" x="63.623047"/>
      </g>
     </g>
    </g>
    <g id="ytick_14">
     <g id="line2d_63">
      <path d="M 135 292.682111 
L 972 292.682111 
" clip-path="url(#p6970c29cfc)" style="fill: none; stroke-dasharray: 0.8,1.32; stroke-dashoffset: 0; stroke: #b0b0b0; stroke-width: 0.8"/>
     </g>
     <g id="line2d_64">
      <g>
       <use xlink:href="#m2525bd4895" x="135" y="292.682111" style="stroke: #000000; stroke-width: 0.8"/>
      </g>
     </g>
     <g id="text_36">
      <!-- 100 -->
      <g transform="translate(108.9125 296.48133)scale(0.1 -0.1)">
       <use xlink:href="#DejaVuSans-31"/>
       <use xlink:href="#DejaVuSans-30" x="63.623047"/>
       <use xlink:href="#DejaVuSans-30" x="127.246094"/>
      </g>
     </g>
    </g>
    <g id="text_37">
     <!-- Waiting Time -->
     <g transform="translate(102.832812 418.692969)rotate(-90)scale(0.1 -0.1)">
      <use xlink:href="#DejaVuSans-57"/>
      <use xlink:href="#DejaVuSans-61" x="92.501953"/>
      <use xlink:href="#DejaVuSans-69" x="153.78125"/>
      <use xlink:href="#DejaVuSans-74" x="181.564453"/>
      <use xlink:href="#DejaVuSans-69" x="220.773438"/>
      <use xlink:href="#DejaVuSans-6e" x="248.556641"/>
      <use xlink:href="#DejaVuSans-67" x="311.935547"/>
      <use xlink:href="#DejaVuSans-20" x="375.412109"/>
      <use xlink:href="#DejaVuSans-54" x="407.199219"/>
      <use xlink:href="#DejaVuSans-69" x="465.158203"/>
      <use xlink:href="#DejaVuSans-6d" x="492.941406"/>
      <use xlink:href="#DejaVuSans-65" x="590.353516"/>
     </g>
    </g>
   </g>
   <g id="line2d_65">
    <path d="M 173.045455 417.912653 
L 175.159091 441.582257 
L 177.272727 389.510421 
L 179.386364 437.852928 
L 181.5 446.519843 
L 183.613636 419.48686 
L 185.727273 430.080801 
L 187.840909 398.581441 
L 189.954545 429.284604 
L 192.068182 472.009091 
L 194.181818 438.520701 
L 196.295455 444.353114 
L 198.409091 436.144909 
L 200.522727 392.101989 
L 202.636364 422.297211 
L 204.75 392.574149 
L 206.863636 436.901542 
L 208.977273 443.780367 
L 211.090909 387.071963 
L 213.204545 398.311999 
L 215.318182 402.141169 
L 217.431818 393.13304 
L 219.545455 431.301183 
L 221.659091 439.955985 
L 223.772727 428.162874 
L 225.886364 445.305999 
L 228 392.462815 
L 230.113636 433.845708 
L 232.227273 426.271255 
L 234.340909 445.305999 
L 236.454545 450.763176 
L 238.568182 373.91733 
L 240.681818 465.185853 
L 242.795455 402.235484 
L 244.909091 430.080801 
L 247.022727 453.41729 
L 249.136364 411.062514 
L 251.25 464.219953 
L 253.363636 414.356034 
L 255.477273 376.060399 
L 257.590909 431.146853 
L 259.704545 432.396489 
L 261.818182 394.489851 
L 263.931818 428.744861 
L 266.045455 445.831211 
L 268.159091 393.549123 
L 270.272727 412.541976 
L 272.386364 461.080021 
L 274.5 402.899054 
L 276.613636 438.585491 
L 278.727273 400.259594 
L 280.840909 446.519843 
L 282.954545 371.486876 
L 285.068182 420.196313 
L 287.181818 458.341506 
L 289.295455 443.869883 
L 291.409091 398.209549 
L 293.522727 423.091947 
L 295.636364 413.683592 
L 297.75 425.445594 
L 299.863636 398.7215 
L 301.977273 392.677865 
L 304.090909 420.477447 
L 306.204545 375.781321 
L 308.318182 396.421995 
L 310.431818 411.66164 
L 312.545455 430.190312 
L 314.659091 381.342585 
L 316.772727 437.130397 
L 318.886364 358.026946 
L 321 372.272698 
L 323.113636 410.564895 
L 325.227273 410.918486 
L 327.340909 421.070627 
L 329.454545 426.743011 
L 331.568182 449.809814 
L 333.681818 433.303337 
L 335.795455 369.734554 
L 337.909091 406.984595 
L 340.022727 401.492199 
L 342.136364 413.367964 
L 344.25 410.955565 
L 346.363636 393.584083 
L 348.477273 452.629281 
L 350.590909 394.16246 
L 352.704545 379.661593 
L 354.818182 399.062753 
L 356.931818 396.56805 
L 359.045455 408.990111 
L 361.159091 426.271255 
L 363.272727 447.383348 
L 365.386364 397.509163 
L 367.5 398.128246 
L 369.613636 422.594654 
L 371.727273 450.538953 
L 373.840909 365.885822 
L 375.954545 336.512646 
L 378.068182 344.887365 
L 380.181818 366.203092 
L 382.295455 428.753107 
L 384.409091 435.007563 
L 386.522727 365.863383 
L 388.636364 407.214698 
L 390.75 418.129828 
L 392.863636 332.358181 
L 394.977273 380.075568 
L 397.090909 329.37553 
L 399.204545 456.877793 
L 401.318182 405.23804 
L 403.431818 349.309907 
L 405.545455 369.0728 
L 407.659091 350.601051 
L 411.886364 445.605039 
L 414 452.629281 
L 416.113636 390.56491 
L 418.227273 368.493548 
L 420.340909 446.155788 
L 422.454545 415.64553 
L 424.568182 427.077927 
L 426.681818 352.677089 
L 428.795455 300.190909 
L 430.909091 400.995564 
L 433.022727 379.298455 
L 437.25 407.610971 
L 439.363636 389.063009 
L 441.477273 328.33659 
L 443.590909 372.988431 
L 445.704545 366.577944 
L 447.818182 353.881521 
L 449.931818 419.877412 
L 452.045455 310.932223 
L 454.159091 351.119084 
L 456.272727 428.306879 
L 458.386364 354.570561 
L 460.5 369.521217 
L 462.613636 363.573722 
L 464.727273 378.1396 
L 466.840909 432.185789 
L 468.954545 411.924449 
L 471.068182 381.419548 
L 473.181818 387.780676 
L 475.295455 365.314861 
L 477.409091 390.56491 
L 479.522727 436.144909 
L 481.636364 426.597148 
L 483.75 371.181788 
L 485.863636 428.162874 
L 487.977273 417.713862 
L 490.090909 410.388076 
L 492.204545 378.134965 
L 494.318182 392.197058 
L 496.431818 455.514241 
L 498.545455 389.219914 
L 500.659091 369.781925 
L 502.772727 449.269063 
L 504.886364 400.04699 
L 507 436.376212 
L 509.113636 379.471704 
L 511.227273 400.47359 
L 513.340909 384.494129 
L 515.454545 407.24131 
L 517.568182 409.371664 
L 519.681818 439.828969 
L 521.795455 453.517662 
L 523.909091 386.293676 
L 528.136364 410.813236 
L 530.25 375.103205 
L 532.363636 424.403097 
L 534.477273 345.450015 
L 536.590909 456.45107 
L 538.704545 417.357711 
L 540.818182 349.749232 
L 542.931818 421.931026 
L 545.045455 404.039928 
L 547.159091 410.70669 
L 549.272727 451.493135 
L 551.386364 405.291885 
L 553.5 411.671874 
L 555.613636 472.009091 
L 557.727273 385.986677 
L 559.840909 395.806756 
L 561.954545 461.229541 
L 564.068182 416.185642 
L 566.181818 449.705012 
L 568.295455 371.449644 
L 570.409091 467.164138 
L 572.522727 384.28386 
L 574.636364 411.924449 
L 576.75 389.162202 
L 578.863636 437.078193 
L 580.977273 359.858251 
L 583.090909 392.44627 
L 585.204545 386.732718 
L 587.318182 383.458238 
L 589.431818 420.352674 
L 591.545455 463.853672 
L 593.659091 441.193845 
L 595.772727 383.087144 
L 597.886364 387.245068 
L 600 444.06549 
L 602.113636 358.200747 
L 604.227273 426.271255 
L 606.340909 422.685828 
L 608.454545 357.00584 
L 610.568182 426.706825 
L 612.681818 434.783784 
L 614.795455 452.921744 
L 616.909091 384.291357 
L 619.022727 391.138084 
L 621.136364 420.477447 
L 623.25 409.371664 
L 625.363636 454.232733 
L 627.477273 385.439663 
L 629.590909 466.0204 
L 631.704545 435.073976 
L 633.818182 374.24144 
L 635.931818 408.817385 
L 638.045455 414.318487 
L 640.159091 394.489851 
L 642.272727 462.319186 
L 644.386364 394.359681 
L 646.5 359.153887 
L 648.613636 394.063459 
L 650.727273 415.782162 
L 652.840909 393.976486 
L 654.954545 422.642511 
L 657.068182 382.307449 
L 659.181818 421.613086 
L 661.295455 426.085969 
L 663.409091 403.185271 
L 665.522727 450.763176 
L 667.636364 455.186757 
L 669.75 456.877793 
L 671.863636 450.763176 
L 673.977273 389.617987 
L 676.090909 423.934978 
L 678.204545 417.912653 
L 680.318182 381.64136 
L 682.431818 419.979997 
L 684.545455 447.383348 
L 686.659091 409.650518 
L 688.772727 421.996856 
L 690.886364 402.015601 
L 693 349.206497 
L 695.113636 416.174564 
L 697.227273 450.494652 
L 699.340909 463.674348 
L 701.454545 401.640155 
L 703.568182 408.123476 
L 705.681818 427.350103 
L 707.795455 459.385319 
L 709.909091 463.853672 
L 712.022727 429.333975 
L 714.136364 436.645291 
L 716.25 415.225943 
L 718.363636 452.629281 
L 720.477273 406.310471 
L 722.590909 415.569704 
L 724.704545 456.413167 
L 726.818182 387.071963 
L 728.931818 444.06549 
L 731.045455 431.045394 
L 733.159091 462.980211 
L 735.272727 446.059044 
L 737.386364 369.517462 
L 739.5 396.56805 
L 741.613636 392.574149 
L 743.727273 424.672308 
L 745.840909 421.996856 
L 747.954545 435.232546 
L 750.068182 347.334092 
L 752.181818 461.532958 
L 754.295455 375.364142 
L 756.409091 361.048703 
L 758.522727 443.00866 
L 760.636364 386.3688 
L 762.75 359.769534 
L 764.863636 423.872554 
L 766.977273 453.41729 
L 769.090909 439.013755 
L 771.204545 415.569704 
L 773.318182 356.280915 
L 775.431818 439.450508 
L 777.545455 400.003872 
L 779.659091 397.983931 
L 781.772727 387.792049 
L 783.886364 366.520955 
L 786 434.174439 
L 788.113636 370.367557 
L 790.227273 387.622698 
L 794.454545 466.0204 
L 796.568182 463.853672 
L 798.681818 441.11944 
L 800.795455 414.521423 
L 802.909091 414.073074 
L 805.022727 443.00866 
L 807.136364 392.101989 
L 809.25 451.585863 
L 811.363636 469.041792 
L 813.477273 412.214315 
L 815.590909 438.276537 
L 817.704545 420.145329 
L 819.818182 438.376948 
L 821.931818 300.590222 
L 824.045455 409.545813 
L 826.159091 449.705012 
L 828.272727 373.894529 
L 830.386364 383.081994 
L 832.5 463.150448 
L 834.613636 452.629281 
L 836.727273 401.732714 
L 838.840909 407.533457 
L 840.954545 417.357711 
L 843.068182 450.8533 
L 845.181818 446.059044 
L 847.295455 462.319186 
L 849.409091 375.774442 
L 851.522727 447.784329 
L 853.636364 401.640155 
L 855.75 410.241105 
L 857.863636 360.640163 
L 862.090909 434.783784 
L 864.204545 408.028428 
L 866.318182 383.458238 
L 868.431818 413.683592 
L 870.545455 371.310619 
L 872.659091 390.266189 
L 874.772727 386.135624 
L 876.886364 405.086543 
L 879 401.765095 
L 881.113636 411.671874 
L 883.227273 396.217964 
L 885.340909 428.162874 
L 887.454545 443.744816 
L 889.568182 387.517534 
L 891.681818 450.494652 
L 893.795455 450.763176 
L 895.909091 440.019657 
L 898.022727 351.319439 
L 900.136364 420.145329 
L 902.25 382.271347 
L 904.363636 447.383348 
L 906.477273 470.002246 
L 908.590909 435.97229 
L 910.704545 421.485754 
L 912.818182 435.458751 
L 914.931818 445.142579 
L 917.045455 386.550576 
L 919.159091 396.217964 
L 921.272727 438.152502 
L 923.386364 453.821402 
L 925.5 463.150448 
L 927.613636 410.783343 
L 929.727273 416.955299 
L 931.840909 432.185789 
L 933.954545 336.954945 
L 933.954545 336.954945 
" clip-path="url(#p6970c29cfc)" style="fill: none; stroke: #000000; stroke-width: 1.5; stroke-linecap: square"/>
   </g>
   <g id="line2d_66">
    <path d="M 192.068182 428.28209 
L 194.181818 430.342895 
L 196.295455 430.61998 
L 198.409091 435.283429 
L 200.522727 430.708335 
L 202.636364 428.286072 
L 204.75 425.594801 
L 206.863636 426.276875 
L 208.977273 430.796768 
L 211.090909 426.575504 
L 213.204545 419.205794 
L 215.318182 415.567841 
L 217.431818 410.445834 
L 219.545455 409.961461 
L 221.659091 414.746861 
L 223.772727 415.333427 
L 225.886364 420.606612 
L 228 416.162739 
L 230.113636 415.169273 
L 232.227273 419.089203 
L 236.454545 428.650803 
L 238.568182 426.729232 
L 240.681818 430.117699 
L 242.795455 426.345649 
L 244.909091 426.537442 
L 247.022727 427.348571 
L 249.136364 429.208541 
L 251.25 432.245965 
L 253.363636 431.054443 
L 255.477273 424.129883 
L 257.590909 422.168251 
L 259.704545 428.016167 
L 261.818182 420.946567 
L 263.931818 423.597505 
L 266.045455 425.172546 
L 268.159091 419.185729 
L 270.272727 419.333675 
L 272.386364 419.019682 
L 274.5 417.873984 
L 276.613636 424.126493 
L 278.727273 421.037767 
L 280.840909 422.450102 
L 282.954545 420.149805 
L 285.068182 419.29495 
L 287.181818 420.54598 
L 289.295455 425.578056 
L 291.409091 424.144813 
L 293.522727 420.346006 
L 295.636364 421.424459 
L 297.75 420.11047 
L 299.863636 419.95666 
L 301.977273 414.572462 
L 304.090909 419.47152 
L 306.204545 415.03002 
L 308.318182 408.838069 
L 310.431818 405.617245 
L 312.545455 408.815321 
L 314.659091 404.640385 
L 316.772727 406.985066 
L 318.886364 400.243201 
L 321 397.598321 
L 323.113636 399.387024 
L 325.227273 398.431127 
L 327.340909 402.960058 
L 329.454545 405.99216 
L 331.568182 409.806977 
L 333.681818 410.11828 
L 335.795455 408.957476 
L 337.909091 405.942896 
L 342.136364 414.398948 
L 344.25 414.438015 
L 346.363636 412.704575 
L 348.477273 415.86044 
L 350.590909 412.602385 
L 352.704545 405.587563 
L 354.818182 402.163505 
L 356.931818 404.846854 
L 359.045455 405.047406 
L 361.159091 407.525311 
L 363.272727 410.92685 
L 365.386364 409.58221 
L 367.5 410.036626 
L 369.613636 407.033163 
L 371.727273 412.670813 
L 373.840909 411.293235 
L 375.954545 405.038225 
L 378.068182 399.870156 
L 380.181818 395.591455 
L 382.295455 395.83964 
L 384.409091 394.602061 
L 386.522727 391.437483 
L 388.636364 392.346128 
L 390.75 391.899646 
L 392.863636 380.081569 
L 394.977273 381.500543 
L 397.090909 380.786832 
L 399.204545 391.985874 
L 401.318182 395.889369 
L 403.431818 387.945049 
L 405.545455 381.351573 
L 407.659091 379.82534 
L 409.772727 378.943561 
L 411.886364 381.691082 
L 414 393.718192 
L 416.113636 394.767127 
L 418.227273 398.678928 
L 420.340909 397.606728 
L 422.454545 398.647477 
L 424.568182 406.424279 
L 426.681818 404.784708 
L 428.795455 399.743694 
L 430.909091 400.003558 
L 433.022727 393.3729 
L 435.136364 387.447302 
L 437.25 389.151908 
L 439.363636 391.208854 
L 441.477273 379.426934 
L 443.590909 375.161225 
L 445.704545 369.111226 
L 447.818182 369.231669 
L 449.931818 381.20032 
L 452.045455 372.193986 
L 454.159091 369.376048 
L 456.272727 372.869406 
L 458.386364 367.565365 
L 460.5 365.611186 
L 462.613636 369.134899 
L 464.727273 369.650016 
L 466.840909 376.210801 
L 468.954545 382.015094 
L 471.068182 378.169307 
L 473.181818 385.854153 
L 475.295455 387.27373 
L 477.409091 383.499533 
L 479.522727 391.656968 
L 481.636364 397.364561 
L 483.75 398.125368 
L 485.863636 403.127695 
L 487.977273 401.680502 
L 490.090909 401.526865 
L 492.204545 401.198407 
L 494.318182 401.640045 
L 496.431818 410.659983 
L 498.545455 410.525483 
L 500.659091 403.889185 
L 502.772727 406.156377 
L 504.886364 409.042897 
L 507 409.864231 
L 509.113636 406.040015 
L 511.227273 405.048566 
L 513.340909 405.684483 
L 515.454545 407.188908 
L 517.568182 402.57465 
L 519.681818 407.635556 
L 521.795455 416.009129 
L 523.909091 409.711591 
L 526.022727 409.565036 
L 528.136364 407.008738 
L 530.25 406.571888 
L 532.363636 408.964839 
L 534.477273 405.060427 
L 536.590909 409.981403 
L 538.704545 410.780008 
L 540.818182 401.772035 
L 542.931818 398.613371 
L 545.045455 400.387996 
L 547.159091 401.600521 
L 549.272727 405.668511 
L 551.386364 408.687379 
L 553.5 407.414257 
L 555.613636 420.070164 
L 557.727273 413.023725 
L 559.840909 410.86863 
L 561.954545 422.01666 
L 564.068182 421.442122 
L 566.181818 426.00863 
L 568.295455 422.082926 
L 570.409091 423.650026 
L 572.522727 421.549224 
L 574.636364 421.574481 
L 576.75 413.289792 
L 578.863636 418.398944 
L 580.977273 414.804093 
L 583.090909 407.925766 
L 585.204545 404.980474 
L 587.318182 398.355796 
L 589.431818 403.246099 
L 591.545455 402.915053 
L 593.659091 408.606051 
L 595.772727 405.722321 
L 597.886364 405.530607 
L 600 406.229337 
L 602.113636 406.063587 
L 604.227273 409.446085 
L 606.340909 413.041396 
L 608.454545 410.396156 
L 610.568182 411.031571 
L 612.681818 408.124583 
L 614.795455 409.297372 
L 616.909091 409.417794 
L 619.022727 409.807095 
L 621.136364 407.448291 
L 623.25 412.565383 
L 625.363636 415.36153 
L 627.477273 411.636914 
L 629.590909 422.53837 
L 631.704545 423.375085 
L 633.818182 417.320851 
L 635.931818 412.910415 
L 638.045455 415.913128 
L 640.159091 416.248305 
L 642.272727 420.432479 
L 644.386364 418.93128 
L 646.5 409.423396 
L 648.613636 410.285775 
L 650.727273 405.261951 
L 652.840909 401.152202 
L 654.954545 405.992309 
L 657.068182 403.341316 
L 659.181818 404.070776 
L 661.295455 407.230388 
L 663.409091 401.316996 
L 665.522727 406.957346 
L 667.636364 416.560633 
L 669.75 422.842066 
L 671.863636 426.340167 
L 673.977273 425.904317 
L 676.090909 426.033564 
L 678.204545 429.594084 
L 680.318182 425.596912 
L 682.431818 424.986315 
L 684.545455 429.406122 
L 686.659091 425.294857 
L 688.772727 421.975867 
L 690.886364 416.489647 
L 693 406.33398 
L 697.227273 411.645605 
L 699.340909 416.221774 
L 701.454545 418.221654 
L 703.568182 417.036002 
L 705.681818 415.032677 
L 707.795455 420.006157 
L 709.909091 424.191839 
L 712.022727 426.923676 
L 714.136364 435.667555 
L 716.25 435.572693 
L 718.363636 435.786156 
L 720.477273 430.049768 
L 722.590909 431.442723 
L 724.704545 436.271692 
L 726.818182 432.243878 
L 728.931818 430.711896 
L 731.045455 427.431068 
L 733.159091 430.795691 
L 735.272727 431.737067 
L 737.386364 427.166218 
L 739.5 421.560095 
L 741.613636 420.186463 
L 743.727273 421.096724 
L 745.840909 417.655093 
L 747.954545 422.471151 
L 750.068182 412.798011 
L 752.181818 415.846768 
L 756.409091 398.584127 
L 758.522727 405.933247 
L 760.636364 404.913322 
L 762.75 401.63286 
L 764.863636 401.552885 
L 766.977273 404.694928 
L 769.090909 405.073049 
L 771.204545 411.89661 
L 773.318182 401.371406 
L 775.431818 407.780042 
L 777.545455 411.675559 
L 779.659091 407.173086 
L 781.772727 407.315411 
L 783.886364 407.990553 
L 786 409.020742 
L 788.113636 400.715769 
L 790.227273 395.576663 
L 792.340909 396.770579 
L 794.454545 407.744527 
L 796.568182 410.184844 
L 798.681818 414.2964 
L 800.795455 415.95015 
L 802.909091 418.578252 
L 805.022727 426.227023 
L 807.136364 422.019778 
L 811.363636 438.283518 
L 813.477273 436.754063 
L 815.590909 433.979677 
L 817.704545 429.608842 
L 819.818182 429.334593 
L 821.931818 417.941473 
L 824.045455 417.488747 
L 826.159091 418.158382 
L 828.272727 416.337636 
L 830.386364 409.487249 
L 832.5 408.898115 
L 834.613636 412.939611 
L 836.727273 409.285229 
L 838.840909 408.024042 
L 840.954545 405.922118 
L 843.068182 420.948426 
L 845.181818 424.599749 
L 847.295455 425.861167 
L 849.409091 426.049158 
L 851.522727 432.519391 
L 853.636364 426.368362 
L 857.863636 418.020289 
L 859.977273 417.137092 
L 862.090909 418.8797 
L 864.204545 414.597213 
L 866.318182 408.337132 
L 868.431818 403.473573 
L 870.545455 403.02719 
L 872.659091 397.275376 
L 874.772727 395.724923 
L 876.886364 395.209467 
L 879 399.32196 
L 881.113636 400.618999 
L 883.227273 396.762417 
L 885.340909 398.775861 
L 887.454545 404.804519 
L 889.568182 402.187913 
L 891.681818 410.106317 
L 893.795455 416.156015 
L 895.909091 421.544419 
L 898.022727 416.167708 
L 900.136364 418.005731 
L 902.25 415.065679 
L 904.363636 420.182217 
L 906.477273 424.366154 
L 908.590909 423.588902 
L 910.704545 426.985724 
L 912.818182 425.482134 
L 914.931818 424.920074 
L 917.045455 419.573166 
L 919.159091 424.063018 
L 921.272727 425.863736 
L 923.386364 433.018741 
L 925.5 434.595451 
L 927.613636 428.673561 
L 929.727273 426.771862 
L 931.840909 427.841865 
L 933.954545 417.991485 
L 933.954545 417.991485 
" clip-path="url(#p6970c29cfc)" style="fill: none; stroke: #ff0000; stroke-width: 1.5; stroke-linecap: square"/>
   </g>
   <g id="patch_9">
    <path d="M 135 480.6 
L 135 291.6 
" style="fill: none; stroke: #000000; stroke-width: 0.8; stroke-linejoin: miter; stroke-linecap: square"/>
   </g>
   <g id="patch_10">
    <path d="M 972 480.6 
L 972 291.6 
" style="fill: none; stroke: #000000; stroke-width: 0.8; stroke-linejoin: miter; stroke-linecap: square"/>
   </g>
   <g id="patch_11">
    <path d="M 135 480.6 
L 972 480.6 
" style="fill: none; stroke: #000000; stroke-width: 0.8; stroke-linejoin: miter; stroke-linecap: square"/>
   </g>
   <g id="patch_12">
    <path d="M 135 291.6 
L 972 291.6 
" style="fill: none; stroke: #000000; stroke-width: 0.8; stroke-linejoin: miter; stroke-linecap: square"/>
   </g>
   <g id="legend_2">
    <g id="patch_13">
     <path d="M 142 328.95625 
L 259.09375 328.95625 
Q 261.09375 328.95625 261.09375 326.95625 
L 261.09375 298.6 
Q 261.09375 296.6 259.09375 296.6 
L 142 296.6 
Q 140 296.6 140 298.6 
L 140 326.95625 
Q 140 328.95625 142 328.95625 
z
" style="fill: #ffffff; opacity: 0.8; stroke: #cccccc; stroke-linejoin: miter"/>
    </g>
    <g id="line2d_67">
     <path d="M 144 304.698438 
L 154 304.698438 
L 164 304.698438 
" style="fill: none; stroke: #000000; stroke-width: 1.5; stroke-linecap: square"/>
    </g>
    <g id="text_38">
     <!-- Original -->
     <g transform="translate(172 308.198438)scale(0.1 -0.1)">
      <use xlink:href="#DejaVuSans-4f"/>
      <use xlink:href="#DejaVuSans-72" x="78.710938"/>
      <use xlink:href="#DejaVuSans-69" x="119.824219"/>
      <use xlink:href="#DejaVuSans-67" x="147.607422"/>
      <use xlink:href="#DejaVuSans-69" x="211.083984"/>
      <use xlink:href="#DejaVuSans-6e" x="238.867188"/>
      <use xlink:href="#DejaVuSans-61" x="302.246094"/>
      <use xlink:href="#DejaVuSans-6c" x="363.525391"/>
     </g>
    </g>
    <g id="line2d_68">
     <path d="M 144 319.376562 
L 154 319.376562 
L 164 319.376562 
" style="fill: none; stroke: #ff0000; stroke-width: 1.5; stroke-linecap: square"/>
    </g>
    <g id="text_39">
     <!-- Running average -->
     <g transform="translate(172 322.876562)scale(0.1 -0.1)">
      <use xlink:href="#DejaVuSans-52"/>
      <use xlink:href="#DejaVuSans-75" x="64.982422"/>
      <use xlink:href="#DejaVuSans-6e" x="128.361328"/>
      <use xlink:href="#DejaVuSans-6e" x="191.740234"/>
      <use xlink:href="#DejaVuSans-69" x="255.119141"/>
      <use xlink:href="#DejaVuSans-6e" x="282.902344"/>
      <use xlink:href="#DejaVuSans-67" x="346.28125"/>
      <use xlink:href="#DejaVuSans-20" x="409.757812"/>
      <use xlink:href="#DejaVuSans-61" x="441.544922"/>
      <use xlink:href="#DejaVuSans-76" x="502.824219"/>
      <use xlink:href="#DejaVuSans-65" x="562.003906"/>
      <use xlink:href="#DejaVuSans-72" x="623.527344"/>
      <use xlink:href="#DejaVuSans-61" x="664.640625"/>
      <use xlink:href="#DejaVuSans-67" x="725.919922"/>
      <use xlink:href="#DejaVuSans-65" x="789.396484"/>
     </g>
    </g>
   </g>
  </g>
  <g id="text_40">
   <!-- Waiting Time -->
   <g transform="translate(500.888438 19.918125)scale(0.12 -0.12)">
    <use xlink:href="#DejaVuSans-57"/>
    <use xlink:href="#DejaVuSans-61" x="92.501953"/>
    <use xlink:href="#DejaVuSans-69" x="153.78125"/>
    <use xlink:href="#DejaVuSans-74" x="181.564453"/>
    <use xlink:href="#DejaVuSans-69" x="220.773438"/>
    <use xlink:href="#DejaVuSans-6e" x="248.556641"/>
    <use xlink:href="#DejaVuSans-67" x="311.935547"/>
    <use xlink:href="#DejaVuSans-20" x="375.412109"/>
    <use xlink:href="#DejaVuSans-54" x="407.199219"/>
    <use xlink:href="#DejaVuSans-69" x="465.158203"/>
    <use xlink:href="#DejaVuSans-6d" x="492.941406"/>
    <use xlink:href="#DejaVuSans-65" x="590.353516"/>
   </g>
  </g>
 </g>
 <defs>
  <clipPath id="p4aeaeb4d4c">
   <rect x="135" y="64.8" width="837" height="189"/>
  </clipPath>
  <clipPath id="p6970c29cfc">
   <rect x="135" y="291.6" width="837" height="189"/>
  </clipPath>
 </defs>
</svg>
