<?xml version="1.0" encoding="utf-8" standalone="no"?>
<!DOCTYPE svg PUBLIC "-//W3C//DTD SVG 1.1//EN"
  "http://www.w3.org/Graphics/SVG/1.1/DTD/svg11.dtd">
<svg xmlns:xlink="http://www.w3.org/1999/xlink" width="460.8pt" height="345.6pt" viewBox="0 0 460.8 345.6" xmlns="http://www.w3.org/2000/svg" version="1.1">
 <metadata>
  <rdf:RDF xmlns:dc="http://purl.org/dc/elements/1.1/" xmlns:cc="http://creativecommons.org/ns#" xmlns:rdf="http://www.w3.org/1999/02/22-rdf-syntax-ns#">
   <cc:Work>
    <dc:type rdf:resource="http://purl.org/dc/dcmitype/StillImage"/>
    <dc:date>2022-09-12T15:41:32.020589</dc:date>
    <dc:format>image/svg+xml</dc:format>
    <dc:creator>
     <cc:Agent>
      <dc:title>Matplotlib v3.5.2, https://matplotlib.org/</dc:title>
     </cc:Agent>
    </dc:creator>
   </cc:Work>
  </rdf:RDF>
 </metadata>
 <defs>
  <style type="text/css">*{stroke-linejoin: round; stroke-linecap: butt}</style>
 </defs>
 <g id="figure_1">
  <g id="patch_1">
   <path d="M 0 345.6 
L 460.8 345.6 
L 460.8 0 
L 0 0 
z
" style="fill: #ffffff"/>
  </g>
  <g id="axes_1">
   <g id="patch_2">
    <path d="M 57.6 307.584 
L 414.72 307.584 
L 414.72 41.472 
L 57.6 41.472 
z
" style="fill: #ffffff"/>
   </g>
   <g id="matplotlib.axis_1">
    <g id="xtick_1">
     <g id="line2d_1">
      <defs>
       <path id="m3cddf27196" d="M 0 0 
L 0 3.5 
" style="stroke: #000000; stroke-width: 0.8"/>
      </defs>
      <g>
       <use xlink:href="#m3cddf27196" x="73.832727" y="307.584" style="stroke: #000000; stroke-width: 0.8"/>
      </g>
     </g>
     <g id="text_1">
      <!-- 0 -->
      <g transform="translate(70.651477 322.182437)scale(0.1 -0.1)">
       <defs>
        <path id="DejaVuSans-30" d="M 2034 4250 
Q 1547 4250 1301 3770 
Q 1056 3291 1056 2328 
Q 1056 1369 1301 889 
Q 1547 409 2034 409 
Q 2525 409 2770 889 
Q 3016 1369 3016 2328 
Q 3016 3291 2770 3770 
Q 2525 4250 2034 4250 
z
M 2034 4750 
Q 2819 4750 3233 4129 
Q 3647 3509 3647 2328 
Q 3647 1150 3233 529 
Q 2819 -91 2034 -91 
Q 1250 -91 836 529 
Q 422 1150 422 2328 
Q 422 3509 836 4129 
Q 1250 4750 2034 4750 
z
" transform="scale(0.015625)"/>
       </defs>
       <use xlink:href="#DejaVuSans-30"/>
      </g>
     </g>
    </g>
    <g id="xtick_2">
     <g id="line2d_2">
      <g>
       <use xlink:href="#m3cddf27196" x="140.496905" y="307.584" style="stroke: #000000; stroke-width: 0.8"/>
      </g>
     </g>
     <g id="text_2">
      <!-- 200 -->
      <g transform="translate(130.953155 322.182437)scale(0.1 -0.1)">
       <defs>
        <path id="DejaVuSans-32" d="M 1228 531 
L 3431 531 
L 3431 0 
L 469 0 
L 469 531 
Q 828 903 1448 1529 
Q 2069 2156 2228 2338 
Q 2531 2678 2651 2914 
Q 2772 3150 2772 3378 
Q 2772 3750 2511 3984 
Q 2250 4219 1831 4219 
Q 1534 4219 1204 4116 
Q 875 4013 500 3803 
L 500 4441 
Q 881 4594 1212 4672 
Q 1544 4750 1819 4750 
Q 2544 4750 2975 4387 
Q 3406 4025 3406 3419 
Q 3406 3131 3298 2873 
Q 3191 2616 2906 2266 
Q 2828 2175 2409 1742 
Q 1991 1309 1228 531 
z
" transform="scale(0.015625)"/>
       </defs>
       <use xlink:href="#DejaVuSans-32"/>
       <use xlink:href="#DejaVuSans-30" x="63.623047"/>
       <use xlink:href="#DejaVuSans-30" x="127.246094"/>
      </g>
     </g>
    </g>
    <g id="xtick_3">
     <g id="line2d_3">
      <g>
       <use xlink:href="#m3cddf27196" x="207.161083" y="307.584" style="stroke: #000000; stroke-width: 0.8"/>
      </g>
     </g>
     <g id="text_3">
      <!-- 400 -->
      <g transform="translate(197.617333 322.182437)scale(0.1 -0.1)">
       <defs>
        <path id="DejaVuSans-34" d="M 2419 4116 
L 825 1625 
L 2419 1625 
L 2419 4116 
z
M 2253 4666 
L 3047 4666 
L 3047 1625 
L 3713 1625 
L 3713 1100 
L 3047 1100 
L 3047 0 
L 2419 0 
L 2419 1100 
L 313 1100 
L 313 1709 
L 2253 4666 
z
" transform="scale(0.015625)"/>
       </defs>
       <use xlink:href="#DejaVuSans-34"/>
       <use xlink:href="#DejaVuSans-30" x="63.623047"/>
       <use xlink:href="#DejaVuSans-30" x="127.246094"/>
      </g>
     </g>
    </g>
    <g id="xtick_4">
     <g id="line2d_4">
      <g>
       <use xlink:href="#m3cddf27196" x="273.82526" y="307.584" style="stroke: #000000; stroke-width: 0.8"/>
      </g>
     </g>
     <g id="text_4">
      <!-- 600 -->
      <g transform="translate(264.28151 322.182437)scale(0.1 -0.1)">
       <defs>
        <path id="DejaVuSans-36" d="M 2113 2584 
Q 1688 2584 1439 2293 
Q 1191 2003 1191 1497 
Q 1191 994 1439 701 
Q 1688 409 2113 409 
Q 2538 409 2786 701 
Q 3034 994 3034 1497 
Q 3034 2003 2786 2293 
Q 2538 2584 2113 2584 
z
M 3366 4563 
L 3366 3988 
Q 3128 4100 2886 4159 
Q 2644 4219 2406 4219 
Q 1781 4219 1451 3797 
Q 1122 3375 1075 2522 
Q 1259 2794 1537 2939 
Q 1816 3084 2150 3084 
Q 2853 3084 3261 2657 
Q 3669 2231 3669 1497 
Q 3669 778 3244 343 
Q 2819 -91 2113 -91 
Q 1303 -91 875 529 
Q 447 1150 447 2328 
Q 447 3434 972 4092 
Q 1497 4750 2381 4750 
Q 2619 4750 2861 4703 
Q 3103 4656 3366 4563 
z
" transform="scale(0.015625)"/>
       </defs>
       <use xlink:href="#DejaVuSans-36"/>
       <use xlink:href="#DejaVuSans-30" x="63.623047"/>
       <use xlink:href="#DejaVuSans-30" x="127.246094"/>
      </g>
     </g>
    </g>
    <g id="xtick_5">
     <g id="line2d_5">
      <g>
       <use xlink:href="#m3cddf27196" x="340.489438" y="307.584" style="stroke: #000000; stroke-width: 0.8"/>
      </g>
     </g>
     <g id="text_5">
      <!-- 800 -->
      <g transform="translate(330.945688 322.182437)scale(0.1 -0.1)">
       <defs>
        <path id="DejaVuSans-38" d="M 2034 2216 
Q 1584 2216 1326 1975 
Q 1069 1734 1069 1313 
Q 1069 891 1326 650 
Q 1584 409 2034 409 
Q 2484 409 2743 651 
Q 3003 894 3003 1313 
Q 3003 1734 2745 1975 
Q 2488 2216 2034 2216 
z
M 1403 2484 
Q 997 2584 770 2862 
Q 544 3141 544 3541 
Q 544 4100 942 4425 
Q 1341 4750 2034 4750 
Q 2731 4750 3128 4425 
Q 3525 4100 3525 3541 
Q 3525 3141 3298 2862 
Q 3072 2584 2669 2484 
Q 3125 2378 3379 2068 
Q 3634 1759 3634 1313 
Q 3634 634 3220 271 
Q 2806 -91 2034 -91 
Q 1263 -91 848 271 
Q 434 634 434 1313 
Q 434 1759 690 2068 
Q 947 2378 1403 2484 
z
M 1172 3481 
Q 1172 3119 1398 2916 
Q 1625 2713 2034 2713 
Q 2441 2713 2670 2916 
Q 2900 3119 2900 3481 
Q 2900 3844 2670 4047 
Q 2441 4250 2034 4250 
Q 1625 4250 1398 4047 
Q 1172 3844 1172 3481 
z
" transform="scale(0.015625)"/>
       </defs>
       <use xlink:href="#DejaVuSans-38"/>
       <use xlink:href="#DejaVuSans-30" x="63.623047"/>
       <use xlink:href="#DejaVuSans-30" x="127.246094"/>
      </g>
     </g>
    </g>
    <g id="xtick_6">
     <g id="line2d_6">
      <g>
       <use xlink:href="#m3cddf27196" x="407.153616" y="307.584" style="stroke: #000000; stroke-width: 0.8"/>
      </g>
     </g>
     <g id="text_6">
      <!-- 1000 -->
      <g transform="translate(394.428616 322.182437)scale(0.1 -0.1)">
       <defs>
        <path id="DejaVuSans-31" d="M 794 531 
L 1825 531 
L 1825 4091 
L 703 3866 
L 703 4441 
L 1819 4666 
L 2450 4666 
L 2450 531 
L 3481 531 
L 3481 0 
L 794 0 
L 794 531 
z
" transform="scale(0.015625)"/>
       </defs>
       <use xlink:href="#DejaVuSans-31"/>
       <use xlink:href="#DejaVuSans-30" x="63.623047"/>
       <use xlink:href="#DejaVuSans-30" x="127.246094"/>
       <use xlink:href="#DejaVuSans-30" x="190.869141"/>
      </g>
     </g>
    </g>
    <g id="text_7">
     <!-- Order Index -->
     <g transform="translate(206.594375 335.860562)scale(0.1 -0.1)">
      <defs>
       <path id="DejaVuSans-4f" d="M 2522 4238 
Q 1834 4238 1429 3725 
Q 1025 3213 1025 2328 
Q 1025 1447 1429 934 
Q 1834 422 2522 422 
Q 3209 422 3611 934 
Q 4013 1447 4013 2328 
Q 4013 3213 3611 3725 
Q 3209 4238 2522 4238 
z
M 2522 4750 
Q 3503 4750 4090 4092 
Q 4678 3434 4678 2328 
Q 4678 1225 4090 567 
Q 3503 -91 2522 -91 
Q 1538 -91 948 565 
Q 359 1222 359 2328 
Q 359 3434 948 4092 
Q 1538 4750 2522 4750 
z
" transform="scale(0.015625)"/>
       <path id="DejaVuSans-72" d="M 2631 2963 
Q 2534 3019 2420 3045 
Q 2306 3072 2169 3072 
Q 1681 3072 1420 2755 
Q 1159 2438 1159 1844 
L 1159 0 
L 581 0 
L 581 3500 
L 1159 3500 
L 1159 2956 
Q 1341 3275 1631 3429 
Q 1922 3584 2338 3584 
Q 2397 3584 2469 3576 
Q 2541 3569 2628 3553 
L 2631 2963 
z
" transform="scale(0.015625)"/>
       <path id="DejaVuSans-64" d="M 2906 2969 
L 2906 4863 
L 3481 4863 
L 3481 0 
L 2906 0 
L 2906 525 
Q 2725 213 2448 61 
Q 2172 -91 1784 -91 
Q 1150 -91 751 415 
Q 353 922 353 1747 
Q 353 2572 751 3078 
Q 1150 3584 1784 3584 
Q 2172 3584 2448 3432 
Q 2725 3281 2906 2969 
z
M 947 1747 
Q 947 1113 1208 752 
Q 1469 391 1925 391 
Q 2381 391 2643 752 
Q 2906 1113 2906 1747 
Q 2906 2381 2643 2742 
Q 2381 3103 1925 3103 
Q 1469 3103 1208 2742 
Q 947 2381 947 1747 
z
" transform="scale(0.015625)"/>
       <path id="DejaVuSans-65" d="M 3597 1894 
L 3597 1613 
L 953 1613 
Q 991 1019 1311 708 
Q 1631 397 2203 397 
Q 2534 397 2845 478 
Q 3156 559 3463 722 
L 3463 178 
Q 3153 47 2828 -22 
Q 2503 -91 2169 -91 
Q 1331 -91 842 396 
Q 353 884 353 1716 
Q 353 2575 817 3079 
Q 1281 3584 2069 3584 
Q 2775 3584 3186 3129 
Q 3597 2675 3597 1894 
z
M 3022 2063 
Q 3016 2534 2758 2815 
Q 2500 3097 2075 3097 
Q 1594 3097 1305 2825 
Q 1016 2553 972 2059 
L 3022 2063 
z
" transform="scale(0.015625)"/>
       <path id="DejaVuSans-20" transform="scale(0.015625)"/>
       <path id="DejaVuSans-49" d="M 628 4666 
L 1259 4666 
L 1259 0 
L 628 0 
L 628 4666 
z
" transform="scale(0.015625)"/>
       <path id="DejaVuSans-6e" d="M 3513 2113 
L 3513 0 
L 2938 0 
L 2938 2094 
Q 2938 2591 2744 2837 
Q 2550 3084 2163 3084 
Q 1697 3084 1428 2787 
Q 1159 2491 1159 1978 
L 1159 0 
L 581 0 
L 581 3500 
L 1159 3500 
L 1159 2956 
Q 1366 3272 1645 3428 
Q 1925 3584 2291 3584 
Q 2894 3584 3203 3211 
Q 3513 2838 3513 2113 
z
" transform="scale(0.015625)"/>
       <path id="DejaVuSans-78" d="M 3513 3500 
L 2247 1797 
L 3578 0 
L 2900 0 
L 1881 1375 
L 863 0 
L 184 0 
L 1544 1831 
L 300 3500 
L 978 3500 
L 1906 2253 
L 2834 3500 
L 3513 3500 
z
" transform="scale(0.015625)"/>
      </defs>
      <use xlink:href="#DejaVuSans-4f"/>
      <use xlink:href="#DejaVuSans-72" x="78.710938"/>
      <use xlink:href="#DejaVuSans-64" x="118.074219"/>
      <use xlink:href="#DejaVuSans-65" x="181.550781"/>
      <use xlink:href="#DejaVuSans-72" x="243.074219"/>
      <use xlink:href="#DejaVuSans-20" x="284.1875"/>
      <use xlink:href="#DejaVuSans-49" x="315.974609"/>
      <use xlink:href="#DejaVuSans-6e" x="345.466797"/>
      <use xlink:href="#DejaVuSans-64" x="408.845703"/>
      <use xlink:href="#DejaVuSans-65" x="472.322266"/>
      <use xlink:href="#DejaVuSans-78" x="532.095703"/>
     </g>
    </g>
   </g>
   <g id="matplotlib.axis_2">
    <g id="ytick_1">
     <g id="line2d_7">
      <defs>
       <path id="mab0d567af2" d="M 0 0 
L -3.5 0 
" style="stroke: #000000; stroke-width: 0.8"/>
      </defs>
      <g>
       <use xlink:href="#mab0d567af2" x="57.6" y="295.488" style="stroke: #000000; stroke-width: 0.8"/>
      </g>
     </g>
     <g id="text_8">
      <!-- 0 -->
      <g transform="translate(44.2375 299.287219)scale(0.1 -0.1)">
       <use xlink:href="#DejaVuSans-30"/>
      </g>
     </g>
    </g>
    <g id="ytick_2">
     <g id="line2d_8">
      <g>
       <use xlink:href="#mab0d567af2" x="57.6" y="252.001671" style="stroke: #000000; stroke-width: 0.8"/>
      </g>
     </g>
     <g id="text_9">
      <!-- 100 -->
      <g transform="translate(31.5125 255.80089)scale(0.1 -0.1)">
       <use xlink:href="#DejaVuSans-31"/>
       <use xlink:href="#DejaVuSans-30" x="63.623047"/>
       <use xlink:href="#DejaVuSans-30" x="127.246094"/>
      </g>
     </g>
    </g>
    <g id="ytick_3">
     <g id="line2d_9">
      <g>
       <use xlink:href="#mab0d567af2" x="57.6" y="208.515342" style="stroke: #000000; stroke-width: 0.8"/>
      </g>
     </g>
     <g id="text_10">
      <!-- 200 -->
      <g transform="translate(31.5125 212.314561)scale(0.1 -0.1)">
       <use xlink:href="#DejaVuSans-32"/>
       <use xlink:href="#DejaVuSans-30" x="63.623047"/>
       <use xlink:href="#DejaVuSans-30" x="127.246094"/>
      </g>
     </g>
    </g>
    <g id="ytick_4">
     <g id="line2d_10">
      <g>
       <use xlink:href="#mab0d567af2" x="57.6" y="165.029013" style="stroke: #000000; stroke-width: 0.8"/>
      </g>
     </g>
     <g id="text_11">
      <!-- 300 -->
      <g transform="translate(31.5125 168.828232)scale(0.1 -0.1)">
       <defs>
        <path id="DejaVuSans-33" d="M 2597 2516 
Q 3050 2419 3304 2112 
Q 3559 1806 3559 1356 
Q 3559 666 3084 287 
Q 2609 -91 1734 -91 
Q 1441 -91 1130 -33 
Q 819 25 488 141 
L 488 750 
Q 750 597 1062 519 
Q 1375 441 1716 441 
Q 2309 441 2620 675 
Q 2931 909 2931 1356 
Q 2931 1769 2642 2001 
Q 2353 2234 1838 2234 
L 1294 2234 
L 1294 2753 
L 1863 2753 
Q 2328 2753 2575 2939 
Q 2822 3125 2822 3475 
Q 2822 3834 2567 4026 
Q 2313 4219 1838 4219 
Q 1578 4219 1281 4162 
Q 984 4106 628 3988 
L 628 4550 
Q 988 4650 1302 4700 
Q 1616 4750 1894 4750 
Q 2613 4750 3031 4423 
Q 3450 4097 3450 3541 
Q 3450 3153 3228 2886 
Q 3006 2619 2597 2516 
z
" transform="scale(0.015625)"/>
       </defs>
       <use xlink:href="#DejaVuSans-33"/>
       <use xlink:href="#DejaVuSans-30" x="63.623047"/>
       <use xlink:href="#DejaVuSans-30" x="127.246094"/>
      </g>
     </g>
    </g>
    <g id="ytick_5">
     <g id="line2d_11">
      <g>
       <use xlink:href="#mab0d567af2" x="57.6" y="121.542684" style="stroke: #000000; stroke-width: 0.8"/>
      </g>
     </g>
     <g id="text_12">
      <!-- 400 -->
      <g transform="translate(31.5125 125.341903)scale(0.1 -0.1)">
       <use xlink:href="#DejaVuSans-34"/>
       <use xlink:href="#DejaVuSans-30" x="63.623047"/>
       <use xlink:href="#DejaVuSans-30" x="127.246094"/>
      </g>
     </g>
    </g>
    <g id="ytick_6">
     <g id="line2d_12">
      <g>
       <use xlink:href="#mab0d567af2" x="57.6" y="78.056355" style="stroke: #000000; stroke-width: 0.8"/>
      </g>
     </g>
     <g id="text_13">
      <!-- 500 -->
      <g transform="translate(31.5125 81.855574)scale(0.1 -0.1)">
       <defs>
        <path id="DejaVuSans-35" d="M 691 4666 
L 3169 4666 
L 3169 4134 
L 1269 4134 
L 1269 2991 
Q 1406 3038 1543 3061 
Q 1681 3084 1819 3084 
Q 2600 3084 3056 2656 
Q 3513 2228 3513 1497 
Q 3513 744 3044 326 
Q 2575 -91 1722 -91 
Q 1428 -91 1123 -41 
Q 819 9 494 109 
L 494 744 
Q 775 591 1075 516 
Q 1375 441 1709 441 
Q 2250 441 2565 725 
Q 2881 1009 2881 1497 
Q 2881 1984 2565 2268 
Q 2250 2553 1709 2553 
Q 1456 2553 1204 2497 
Q 953 2441 691 2322 
L 691 4666 
z
" transform="scale(0.015625)"/>
       </defs>
       <use xlink:href="#DejaVuSans-35"/>
       <use xlink:href="#DejaVuSans-30" x="63.623047"/>
       <use xlink:href="#DejaVuSans-30" x="127.246094"/>
      </g>
     </g>
    </g>
    <g id="text_14">
     <!-- Order Delivered Time -->
     <g transform="translate(25.432812 228.08425)rotate(-90)scale(0.1 -0.1)">
      <defs>
       <path id="DejaVuSans-44" d="M 1259 4147 
L 1259 519 
L 2022 519 
Q 2988 519 3436 956 
Q 3884 1394 3884 2338 
Q 3884 3275 3436 3711 
Q 2988 4147 2022 4147 
L 1259 4147 
z
M 628 4666 
L 1925 4666 
Q 3281 4666 3915 4102 
Q 4550 3538 4550 2338 
Q 4550 1131 3912 565 
Q 3275 0 1925 0 
L 628 0 
L 628 4666 
z
" transform="scale(0.015625)"/>
       <path id="DejaVuSans-6c" d="M 603 4863 
L 1178 4863 
L 1178 0 
L 603 0 
L 603 4863 
z
" transform="scale(0.015625)"/>
       <path id="DejaVuSans-69" d="M 603 3500 
L 1178 3500 
L 1178 0 
L 603 0 
L 603 3500 
z
M 603 4863 
L 1178 4863 
L 1178 4134 
L 603 4134 
L 603 4863 
z
" transform="scale(0.015625)"/>
       <path id="DejaVuSans-76" d="M 191 3500 
L 800 3500 
L 1894 563 
L 2988 3500 
L 3597 3500 
L 2284 0 
L 1503 0 
L 191 3500 
z
" transform="scale(0.015625)"/>
       <path id="DejaVuSans-54" d="M -19 4666 
L 3928 4666 
L 3928 4134 
L 2272 4134 
L 2272 0 
L 1638 0 
L 1638 4134 
L -19 4134 
L -19 4666 
z
" transform="scale(0.015625)"/>
       <path id="DejaVuSans-6d" d="M 3328 2828 
Q 3544 3216 3844 3400 
Q 4144 3584 4550 3584 
Q 5097 3584 5394 3201 
Q 5691 2819 5691 2113 
L 5691 0 
L 5113 0 
L 5113 2094 
Q 5113 2597 4934 2840 
Q 4756 3084 4391 3084 
Q 3944 3084 3684 2787 
Q 3425 2491 3425 1978 
L 3425 0 
L 2847 0 
L 2847 2094 
Q 2847 2600 2669 2842 
Q 2491 3084 2119 3084 
Q 1678 3084 1418 2786 
Q 1159 2488 1159 1978 
L 1159 0 
L 581 0 
L 581 3500 
L 1159 3500 
L 1159 2956 
Q 1356 3278 1631 3431 
Q 1906 3584 2284 3584 
Q 2666 3584 2933 3390 
Q 3200 3197 3328 2828 
z
" transform="scale(0.015625)"/>
      </defs>
      <use xlink:href="#DejaVuSans-4f"/>
      <use xlink:href="#DejaVuSans-72" x="78.710938"/>
      <use xlink:href="#DejaVuSans-64" x="118.074219"/>
      <use xlink:href="#DejaVuSans-65" x="181.550781"/>
      <use xlink:href="#DejaVuSans-72" x="243.074219"/>
      <use xlink:href="#DejaVuSans-20" x="284.1875"/>
      <use xlink:href="#DejaVuSans-44" x="315.974609"/>
      <use xlink:href="#DejaVuSans-65" x="392.976562"/>
      <use xlink:href="#DejaVuSans-6c" x="454.5"/>
      <use xlink:href="#DejaVuSans-69" x="482.283203"/>
      <use xlink:href="#DejaVuSans-76" x="510.066406"/>
      <use xlink:href="#DejaVuSans-65" x="569.246094"/>
      <use xlink:href="#DejaVuSans-72" x="630.769531"/>
      <use xlink:href="#DejaVuSans-65" x="669.632812"/>
      <use xlink:href="#DejaVuSans-64" x="731.15625"/>
      <use xlink:href="#DejaVuSans-20" x="794.632812"/>
      <use xlink:href="#DejaVuSans-54" x="826.419922"/>
      <use xlink:href="#DejaVuSans-69" x="884.378906"/>
      <use xlink:href="#DejaVuSans-6d" x="912.162109"/>
      <use xlink:href="#DejaVuSans-65" x="1009.574219"/>
     </g>
    </g>
   </g>
   <g id="line2d_13">
    <path d="M 73.832727 295.488 
L 74.166048 295.053137 
L 74.83269 295.053137 
L 75.166011 294.618273 
L 75.499332 294.618273 
L 75.832653 294.18341 
L 76.165973 294.18341 
L 77.165936 292.87882 
L 77.832578 292.87882 
L 78.165899 292.443957 
L 78.49922 291.57423 
L 79.165861 291.57423 
L 79.499182 290.704504 
L 80.165824 290.704504 
L 80.499145 289.834777 
L 80.832466 289.834777 
L 81.165787 289.399914 
L 81.499108 289.399914 
L 81.832429 288.965051 
L 82.165749 288.095324 
L 82.832391 288.095324 
L 83.165712 287.225597 
L 83.499033 286.790734 
L 84.832317 286.790734 
L 85.832279 285.486144 
L 86.1656 285.486144 
L 86.498921 285.051281 
L 87.165563 285.051281 
L 87.498884 284.616418 
L 88.165525 284.616418 
L 88.832167 283.746691 
L 89.165488 283.746691 
L 89.498809 282.876965 
L 89.83213 282.876965 
L 90.165451 282.442101 
L 90.498772 282.442101 
L 90.832093 282.007238 
L 91.165413 281.137511 
L 91.498734 281.137511 
L 91.832055 280.702648 
L 92.832018 280.702648 
L 93.165339 280.267785 
L 93.831981 280.267785 
L 94.165301 279.832922 
L 95.165264 279.832922 
L 95.831906 278.963195 
L 96.498548 278.963195 
L 96.831869 278.093468 
L 97.165189 278.093468 
L 97.49851 277.658605 
L 98.498473 277.658605 
L 98.831794 277.223742 
L 99.498436 277.223742 
L 99.831757 276.788879 
L 100.165077 276.788879 
L 100.498398 276.354015 
L 100.831719 276.354015 
L 101.16504 275.919152 
L 101.831682 275.919152 
L 102.165003 275.484289 
L 102.831645 275.484289 
L 103.498286 274.614562 
L 104.498249 274.614562 
L 104.83157 273.744835 
L 106.164853 273.744835 
L 106.831495 272.875109 
L 107.498137 272.875109 
L 108.164779 272.005382 
L 108.831421 272.005382 
L 109.164741 271.570519 
L 109.831383 271.570519 
L 110.164704 271.135656 
L 110.498025 271.135656 
L 111.497988 269.831066 
L 112.164629 269.831066 
L 112.49795 269.396203 
L 112.831271 268.091613 
L 113.831234 268.091613 
L 114.497876 267.221886 
L 115.164517 267.221886 
L 115.497838 266.787023 
L 115.831159 265.917296 
L 116.497801 265.917296 
L 116.831122 265.482433 
L 117.164443 265.482433 
L 117.497764 265.04757 
L 117.831085 265.04757 
L 118.164405 264.612706 
L 118.497726 264.612706 
L 119.164368 263.74298 
L 119.83101 263.74298 
L 120.497652 262.873253 
L 121.830935 262.873253 
L 122.164256 262.43839 
L 122.497577 262.43839 
L 123.49754 261.1338 
L 124.164181 261.1338 
L 124.497502 260.264073 
L 124.830823 260.264073 
L 125.164144 259.82921 
L 125.497465 259.82921 
L 125.830786 259.394347 
L 126.164107 259.394347 
L 126.830749 258.52462 
L 127.164069 258.52462 
L 127.49739 258.089757 
L 128.497353 258.089757 
L 129.163995 257.22003 
L 130.163957 257.22003 
L 130.497278 256.785167 
L 130.830599 256.785167 
L 131.830562 255.480577 
L 132.497204 255.480577 
L 132.830525 254.610851 
L 133.497166 254.610851 
L 133.830487 254.175987 
L 134.83045 254.175987 
L 135.163771 253.741124 
L 135.830413 253.741124 
L 136.163733 252.436534 
L 137.163696 252.436534 
L 138.49698 250.697081 
L 138.830301 250.697081 
L 139.163621 249.827355 
L 139.496942 249.827355 
L 139.830263 248.957628 
L 140.163584 248.957628 
L 140.496905 248.522765 
L 140.830226 248.522765 
L 141.163547 247.653038 
L 141.496868 247.653038 
L 142.163509 246.783311 
L 142.830151 246.783311 
L 143.163472 246.348448 
L 143.496793 246.348448 
L 144.163435 245.478722 
L 144.496756 244.608995 
L 144.830077 244.174132 
L 145.830039 244.174132 
L 146.16336 243.739268 
L 146.830002 243.739268 
L 147.496644 242.869542 
L 147.829965 242.869542 
L 148.496606 241.999815 
L 149.496569 241.999815 
L 150.163211 241.130089 
L 150.829853 241.130089 
L 151.163173 240.260362 
L 152.163136 240.260362 
L 152.496457 239.825499 
L 152.829778 239.825499 
L 153.163099 238.955772 
L 153.49642 238.520909 
L 154.163061 238.520909 
L 154.496382 238.086046 
L 154.829703 238.086046 
L 155.163024 237.651182 
L 155.829666 237.651182 
L 156.162987 237.216319 
L 156.829629 237.216319 
L 157.162949 236.781456 
L 157.49627 235.911729 
L 157.829591 235.911729 
L 158.162912 235.476866 
L 160.162837 235.476866 
L 160.496158 235.042003 
L 160.829479 235.042003 
L 161.1628 234.607139 
L 162.496084 234.607139 
L 163.162725 233.737413 
L 163.496046 233.737413 
L 163.829367 233.30255 
L 164.496009 233.30255 
L 164.82933 232.867686 
L 165.162651 232.867686 
L 165.495972 232.432823 
L 165.829293 231.563096 
L 166.495934 231.563096 
L 166.829255 231.128233 
L 167.829218 231.128233 
L 168.829181 229.823643 
L 169.162501 229.823643 
L 169.829143 228.953917 
L 170.829106 228.953917 
L 171.162427 228.519053 
L 171.495748 228.519053 
L 171.829069 228.08419 
L 172.162389 228.08419 
L 172.49571 227.649327 
L 172.829031 226.7796 
L 173.495673 226.7796 
L 173.828994 225.909874 
L 174.495636 225.909874 
L 174.828957 225.040147 
L 175.495598 224.17042 
L 176.828882 224.17042 
L 177.162203 223.735557 
L 177.495524 223.735557 
L 177.828845 223.300694 
L 178.828807 223.300694 
L 179.162128 222.865831 
L 180.162091 222.865831 
L 180.495412 222.430967 
L 180.828732 221.561241 
L 181.495374 220.691514 
L 181.828695 220.691514 
L 182.162016 220.256651 
L 183.161979 220.256651 
L 183.4953 219.821788 
L 183.82862 219.821788 
L 184.495262 218.952061 
L 184.828583 218.952061 
L 185.161904 218.517198 
L 185.828546 218.517198 
L 186.161867 218.082334 
L 186.495188 218.082334 
L 186.828508 217.647471 
L 187.161829 217.647471 
L 187.49515 217.212608 
L 188.161792 217.212608 
L 188.495113 216.342881 
L 190.161717 216.342881 
L 190.828359 215.473155 
L 191.16168 215.473155 
L 191.495001 214.603428 
L 191.828322 214.168565 
L 192.828284 214.168565 
L 193.161605 213.733701 
L 194.161568 213.733701 
L 194.494889 213.298838 
L 194.82821 212.429112 
L 195.161531 211.994248 
L 195.828172 211.994248 
L 196.161493 211.559385 
L 196.828135 211.559385 
L 197.161456 209.385069 
L 197.828098 209.385069 
L 198.161419 208.950205 
L 198.49474 208.950205 
L 198.82806 208.515342 
L 199.161381 207.645615 
L 200.161344 207.645615 
L 200.494665 207.210752 
L 201.494628 207.210752 
L 201.827948 205.906162 
L 202.49459 205.906162 
L 202.827911 205.036436 
L 203.494553 204.166709 
L 203.827874 204.166709 
L 204.161195 203.731846 
L 204.827836 203.731846 
L 205.161157 203.296982 
L 205.494478 203.296982 
L 205.827799 202.862119 
L 206.827762 202.862119 
L 207.161083 202.427256 
L 207.827724 202.427256 
L 208.161045 201.992393 
L 208.827687 201.992393 
L 209.161008 201.557529 
L 209.494329 201.557529 
L 209.82765 200.252939 
L 210.160971 200.252939 
L 210.494292 199.818076 
L 210.827612 199.818076 
L 211.160933 199.383213 
L 212.494217 199.383213 
L 213.160859 198.513486 
L 214.160821 198.513486 
L 214.494142 198.078623 
L 215.160784 198.078623 
L 215.494105 197.64376 
L 215.827426 197.64376 
L 216.494068 196.774033 
L 217.49403 196.774033 
L 218.160672 195.904307 
L 218.493993 195.904307 
L 218.827314 195.469443 
L 219.493956 195.469443 
L 219.827276 194.599717 
L 220.493918 194.599717 
L 220.827239 194.164853 
L 221.16056 194.164853 
L 221.493881 193.72999 
L 222.160523 193.72999 
L 222.493844 193.295127 
L 222.827164 193.295127 
L 223.160485 192.4254 
L 223.493806 192.4254 
L 224.493769 191.12081 
L 224.82709 191.12081 
L 225.160411 190.685947 
L 225.827052 190.685947 
L 226.493694 189.81622 
L 226.827015 188.946494 
L 227.493657 188.946494 
L 227.826978 188.511631 
L 228.49362 188.511631 
L 228.82694 187.641904 
L 229.160261 187.641904 
L 229.493582 187.207041 
L 230.160224 187.207041 
L 230.493545 186.337314 
L 232.160149 186.337314 
L 232.49347 185.902451 
L 232.826791 185.902451 
L 233.493433 185.032724 
L 234.493396 185.032724 
L 234.826716 184.162998 
L 235.160037 184.162998 
L 235.493358 183.728134 
L 236.16 183.728134 
L 236.493321 183.293271 
L 236.826642 183.293271 
L 237.159963 182.423545 
L 237.493284 182.423545 
L 237.826604 181.988681 
L 238.493246 181.988681 
L 239.159888 181.118955 
L 239.82653 181.118955 
L 240.159851 180.684091 
L 241.159813 180.684091 
L 241.493134 180.249228 
L 241.826455 180.249228 
L 242.159776 179.814365 
L 242.826418 179.814365 
L 243.159739 178.944638 
L 243.49306 178.944638 
L 244.159701 178.074912 
L 244.826343 178.074912 
L 245.492985 177.205185 
L 246.492948 177.205185 
L 246.826268 176.770322 
L 247.159589 176.770322 
L 247.49291 176.335458 
L 247.826231 176.335458 
L 248.159552 175.900595 
L 249.159515 175.900595 
L 249.492836 175.465732 
L 250.159477 175.465732 
L 250.492798 175.030869 
L 250.826119 175.030869 
L 251.492761 174.161142 
L 252.492724 174.161142 
L 253.492686 172.856552 
L 254.159328 172.856552 
L 254.492649 172.421689 
L 255.825932 172.421689 
L 256.825895 171.117099 
L 257.159216 171.117099 
L 257.825858 170.247372 
L 258.4925 170.247372 
L 258.82582 169.377646 
L 259.825783 169.377646 
L 260.159104 168.942783 
L 260.492425 168.942783 
L 260.825746 168.507919 
L 261.492388 168.507919 
L 262.159029 167.638193 
L 262.49235 167.638193 
L 263.158992 166.768466 
L 263.492313 166.768466 
L 264.492276 165.463876 
L 265.158917 165.463876 
L 265.825559 164.59415 
L 266.15888 164.59415 
L 266.492201 164.159286 
L 266.825522 164.159286 
L 267.158843 163.724423 
L 267.825484 163.724423 
L 268.158805 163.28956 
L 268.492126 163.28956 
L 268.825447 162.419833 
L 269.158768 162.419833 
L 269.492089 161.550107 
L 269.82541 161.550107 
L 270.158731 161.115243 
L 271.492014 161.115243 
L 272.158656 160.245517 
L 272.491977 159.37579 
L 272.825298 157.636337 
L 273.158619 157.201474 
L 274.491902 157.201474 
L 274.825223 156.76661 
L 275.158544 156.76661 
L 275.491865 156.331747 
L 276.491828 156.331747 
L 276.825148 155.462021 
L 277.158469 155.462021 
L 277.49179 155.027157 
L 278.158432 155.027157 
L 278.491753 154.592294 
L 278.825074 154.592294 
L 279.158395 154.157431 
L 279.491716 154.157431 
L 279.825036 153.722567 
L 281.15832 153.722567 
L 281.491641 153.287704 
L 281.824962 153.287704 
L 282.158283 152.852841 
L 283.491566 152.852841 
L 283.824887 152.417978 
L 284.491529 152.417978 
L 284.82485 151.983114 
L 285.491492 151.983114 
L 285.824812 151.548251 
L 286.491454 151.548251 
L 286.824775 151.113388 
L 287.158096 151.113388 
L 287.824738 150.243661 
L 288.158059 150.243661 
L 288.49138 149.808798 
L 288.8247 149.808798 
L 289.158021 148.504208 
L 289.491342 148.504208 
L 289.824663 148.069345 
L 290.157984 148.069345 
L 290.491305 147.634481 
L 290.824626 147.634481 
L 291.157947 147.199618 
L 291.491268 147.199618 
L 292.157909 146.329891 
L 292.49123 146.329891 
L 292.824551 145.895028 
L 293.824514 145.895028 
L 294.157835 145.460165 
L 294.824476 145.460165 
L 295.157797 145.025302 
L 295.491118 145.025302 
L 295.824439 144.590438 
L 296.491081 144.590438 
L 297.157723 143.720712 
L 297.491043 142.416122 
L 298.491006 142.416122 
L 298.824327 141.981259 
L 299.157648 141.981259 
L 299.490969 141.546395 
L 300.157611 141.546395 
L 300.490931 141.111532 
L 301.157573 141.111532 
L 301.490894 140.676669 
L 302.157536 140.676669 
L 302.490857 140.241805 
L 303.490819 140.241805 
L 303.82414 139.806942 
L 304.157461 139.806942 
L 304.824103 138.937216 
L 305.157424 138.937216 
L 305.824066 138.067489 
L 306.490707 138.067489 
L 306.824028 137.632626 
L 307.157349 137.632626 
L 307.49067 136.762899 
L 308.490633 136.762899 
L 309.823916 135.023446 
L 310.157237 135.023446 
L 310.490558 134.588583 
L 311.1572 134.588583 
L 311.490521 134.153719 
L 312.157163 134.153719 
L 312.490483 133.718856 
L 313.157125 133.718856 
L 313.823767 132.849129 
L 314.157088 132.849129 
L 314.490409 132.414266 
L 314.82373 132.414266 
L 315.490371 131.54454 
L 316.490334 131.54454 
L 316.823655 131.109676 
L 317.490297 131.109676 
L 317.823618 130.23995 
L 318.156939 130.23995 
L 318.490259 129.805086 
L 319.490222 129.805086 
L 320.156864 128.93536 
L 320.490185 128.93536 
L 320.823506 128.500497 
L 321.490147 128.500497 
L 322.156789 127.63077 
L 323.156752 127.63077 
L 323.490073 126.761043 
L 324.156715 126.761043 
L 324.823356 125.891317 
L 325.156677 125.891317 
L 325.489998 125.456454 
L 327.489923 125.456454 
L 327.823244 125.02159 
L 328.156565 123.717 
L 328.489886 123.717 
L 328.823207 123.282137 
L 329.156528 122.41241 
L 329.489849 122.41241 
L 330.489811 121.107821 
L 331.156453 121.107821 
L 331.489774 120.672957 
L 332.489737 120.672957 
L 333.156379 119.803231 
L 334.489662 119.803231 
L 335.156304 118.933504 
L 335.489625 118.933504 
L 335.822946 118.498641 
L 336.156267 118.498641 
L 336.489587 118.063778 
L 337.48955 118.063778 
L 337.822871 117.628914 
L 338.156192 117.628914 
L 338.489513 116.759188 
L 338.822834 116.324324 
L 339.489475 116.324324 
L 339.822796 115.889461 
L 341.15608 115.889461 
L 341.489401 115.454598 
L 342.489363 115.454598 
L 343.156005 114.584871 
L 344.155968 114.584871 
L 344.489289 114.150008 
L 344.82261 114.150008 
L 345.489251 113.280281 
L 346.155893 113.280281 
L 346.489214 112.845418 
L 346.822535 112.845418 
L 347.822498 111.540828 
L 348.489139 111.540828 
L 349.155781 110.671102 
L 349.822423 110.671102 
L 350.155744 110.236238 
L 350.489065 110.236238 
L 350.822386 109.366512 
L 351.155707 109.366512 
L 351.489027 108.931649 
L 352.155669 108.931649 
L 352.48899 108.496785 
L 352.822311 108.496785 
L 353.155632 107.627059 
L 353.822274 107.627059 
L 354.155595 107.192195 
L 354.488915 107.192195 
L 354.822236 106.757332 
L 355.155557 106.757332 
L 355.488878 106.322469 
L 356.15552 106.322469 
L 356.488841 105.452742 
L 356.822162 105.017879 
L 357.488803 105.017879 
L 357.822124 104.583016 
L 358.155445 104.583016 
L 358.822087 103.713289 
L 359.488729 103.713289 
L 359.82205 103.278426 
L 360.488691 103.278426 
L 360.822012 102.843562 
L 361.155333 102.843562 
L 361.488654 102.408699 
L 362.488617 102.408699 
L 362.821938 101.538973 
L 363.155259 101.538973 
L 363.488579 101.104109 
L 364.155221 101.104109 
L 364.488542 100.669246 
L 365.155184 100.669246 
L 365.488505 100.234383 
L 365.821826 100.234383 
L 366.155147 99.799519 
L 366.488467 99.799519 
L 366.821788 99.364656 
L 369.155035 99.364656 
L 370.154997 98.060066 
L 370.488318 98.060066 
L 370.821639 97.625203 
L 371.821602 97.625203 
L 372.154923 96.755476 
L 373.154885 96.755476 
L 373.488206 96.320613 
L 373.821527 96.320613 
L 374.154848 95.88575 
L 374.82149 95.88575 
L 375.488131 95.016023 
L 375.821452 94.146297 
L 376.154773 94.146297 
L 376.488094 93.711433 
L 377.488057 93.711433 
L 377.821378 93.27657 
L 378.488019 93.27657 
L 379.154661 92.406843 
L 379.821303 92.406843 
L 380.154624 91.97198 
L 380.487945 91.97198 
L 380.821266 91.537117 
L 381.154587 91.537117 
L 381.487907 91.102254 
L 381.821228 91.102254 
L 382.154549 90.66739 
L 382.48787 90.66739 
L 382.821191 90.232527 
L 383.154512 88.927937 
L 383.821154 88.927937 
L 384.154475 88.493074 
L 384.487795 88.493074 
L 385.154437 87.623347 
L 386.1544 87.623347 
L 386.487721 87.188484 
L 387.154363 87.188484 
L 387.487683 86.753621 
L 387.821004 86.753621 
L 388.820967 85.449031 
L 389.154288 85.449031 
L 389.487609 84.579304 
L 389.82093 84.579304 
L 390.154251 84.144441 
L 391.154213 84.144441 
L 391.487534 83.709578 
L 392.820818 83.709578 
L 393.487459 82.839851 
L 393.82078 82.839851 
L 394.154101 82.404988 
L 394.487422 82.404988 
L 394.820743 81.970125 
L 395.154064 80.665535 
L 395.487385 80.665535 
L 395.820706 80.230671 
L 396.820668 80.230671 
L 397.820631 78.926081 
L 398.153952 78.926081 
L 398.487273 78.491218 
L 398.487273 78.491218 
" clip-path="url(#p6876812327)" style="fill: none; stroke: #32cd32; stroke-linecap: square"/>
   </g>
   <g id="line2d_14">
    <path d="M 73.832727 279.791599 
L 74.166048 277.41775 
L 74.499369 264.263413 
L 74.83269 269.08251 
L 75.166011 285.450154 
L 75.499332 270.831744 
L 75.832653 280.635029 
L 76.165973 278.123164 
L 76.499294 278.420287 
L 76.832615 279.711673 
L 77.165936 283.280923 
L 77.499257 269.558661 
L 77.832578 285.125892 
L 78.49922 279.743098 
L 78.832541 269.341939 
L 79.165861 272.743805 
L 79.499182 270.955704 
L 79.832503 281.045711 
L 80.165824 273.663615 
L 80.499145 273.197166 
L 80.832466 266.346585 
L 81.165787 270.631103 
L 81.499108 260.326881 
L 81.832429 272.835657 
L 82.165749 278.066395 
L 82.49907 267.979853 
L 82.832391 271.655966 
L 83.165712 262.867951 
L 83.499033 260.820107 
L 84.165675 273.309972 
L 84.498996 272.525264 
L 84.832317 270.115799 
L 85.165637 264.819113 
L 85.498958 272.817383 
L 85.832279 270.56459 
L 86.1656 265.149867 
L 86.498921 265.36698 
L 86.832242 274.245425 
L 87.165563 270.163569 
L 87.498884 274.587488 
L 87.832205 263.935345 
L 88.165525 276.300481 
L 88.498846 267.349501 
L 88.832167 263.220064 
L 89.498809 271.813909 
L 89.83213 259.794914 
L 90.165451 262.078471 
L 90.498772 267.254562 
L 90.832093 267.085684 
L 91.165413 260.671784 
L 91.498734 270.265929 
L 91.832055 264.25376 
L 92.165376 268.730877 
L 92.498697 259.184795 
L 92.832018 260.67091 
L 93.165339 265.749971 
L 93.49866 268.091613 
L 93.831981 267.473148 
L 94.165301 265.001921 
L 94.498622 259.766232 
L 94.831943 250.860747 
L 95.165264 257.167228 
L 95.498585 271.135656 
L 95.831906 269.365298 
L 96.165227 261.682322 
L 96.498548 263.699602 
L 96.831869 261.914987 
L 97.165189 262.264038 
L 97.49851 260.762548 
L 97.831831 249.13312 
L 98.165152 263.356585 
L 98.498473 252.558288 
L 98.831794 263.568504 
L 99.165115 256.304256 
L 99.831757 269.831066 
L 100.165077 266.869538 
L 100.498398 260.606222 
L 100.831719 249.808456 
L 101.16504 264.856097 
L 101.498361 261.042752 
L 101.831682 261.520493 
L 102.165003 264.421233 
L 102.498324 266.044188 
L 102.831645 257.646534 
L 103.164965 253.908341 
L 103.498286 267.476623 
L 104.164928 256.676969 
L 104.498249 248.139964 
L 105.164891 262.418664 
L 105.498212 259.479365 
L 105.831533 247.048729 
L 106.164853 246.709426 
L 106.498174 247.906743 
L 106.831495 255.471884 
L 107.498137 245.146164 
L 107.831458 257.712312 
L 108.164779 249.803214 
L 108.4981 258.606641 
L 108.831421 260.524229 
L 109.164741 247.844343 
L 109.498062 252.863635 
L 109.831383 253.632926 
L 110.164704 261.026732 
L 110.498025 254.166932 
L 110.831346 244.131636 
L 111.164667 254.166109 
L 111.497988 243.389669 
L 111.831309 253.971206 
L 112.164629 256.282685 
L 112.49795 259.956102 
L 112.831271 255.718176 
L 113.164592 246.144804 
L 113.497913 255.045714 
L 113.831234 244.586709 
L 114.164555 251.596504 
L 114.497876 255.480577 
L 114.831197 243.196027 
L 115.497838 254.76344 
L 115.831159 246.168496 
L 116.16448 243.094223 
L 116.497801 256.258503 
L 117.497764 248.598681 
L 117.831085 246.970015 
L 118.164405 241.906064 
L 118.831047 251.98497 
L 119.164368 243.711242 
L 119.497689 241.558913 
L 119.83101 241.34901 
L 120.164331 243.054225 
L 120.497652 249.59941 
L 120.830973 231.016018 
L 121.164293 240.402022 
L 121.497614 240.671085 
L 121.830935 247.906786 
L 122.164256 237.938169 
L 122.497577 245.652298 
L 122.830898 240.485674 
L 123.164219 243.705867 
L 123.49754 240.412714 
L 123.830861 245.386007 
L 124.164181 238.781588 
L 124.497502 248.206218 
L 124.830823 233.822676 
L 125.164144 239.90993 
L 125.497465 242.219379 
L 125.830786 240.328022 
L 126.164107 241.92182 
L 126.497428 241.820168 
L 126.830749 238.181499 
L 127.164069 240.252312 
L 127.49739 239.69735 
L 127.830711 249.224997 
L 128.164032 245.043858 
L 128.497353 246.276467 
L 128.830674 237.707411 
L 129.163995 237.622224 
L 129.497316 226.934279 
L 129.830637 245.24826 
L 130.163957 240.657482 
L 130.830599 244.347438 
L 131.16392 237.519878 
L 131.497241 240.948973 
L 131.830562 234.600552 
L 132.163883 239.420331 
L 132.497204 237.016691 
L 132.830525 221.319955 
L 133.163845 233.730825 
L 133.497166 231.301953 
L 133.830487 243.030378 
L 134.163808 231.698829 
L 134.83045 238.479587 
L 135.163771 243.208933 
L 135.497092 224.53848 
L 135.830413 234.310717 
L 136.163733 238.901625 
L 136.497054 231.458059 
L 136.830375 242.838637 
L 137.163696 226.519462 
L 137.497017 233.998001 
L 137.830338 225.125411 
L 138.163659 222.826728 
L 138.49698 232.79267 
L 138.830301 233.994243 
L 139.163621 231.245277 
L 139.496942 237.996222 
L 139.830263 231.961784 
L 140.496905 234.827866 
L 141.163547 224.946396 
L 141.830189 237.298835 
L 142.163509 225.909874 
L 142.49683 229.670749 
L 142.830151 231.035519 
L 143.163472 237.180329 
L 143.830114 223.090512 
L 144.163435 229.231933 
L 144.496756 228.313709 
L 144.830077 228.856617 
L 145.163397 232.116276 
L 145.496718 229.207665 
L 145.830039 214.763984 
L 146.16336 230.884614 
L 146.496681 222.998218 
L 146.830002 224.605284 
L 147.496644 217.804887 
L 147.829965 225.397015 
L 148.163285 228.899769 
L 148.496606 227.306527 
L 148.829927 219.936967 
L 149.163248 225.704529 
L 149.496569 221.554448 
L 150.163211 219.796229 
L 150.496532 223.460719 
L 150.829853 222.922338 
L 151.163173 228.934191 
L 151.496494 209.788326 
L 152.163136 224.400502 
L 152.496457 220.076699 
L 152.829778 227.801916 
L 153.163099 218.408903 
L 153.49642 228.060105 
L 153.829741 227.078043 
L 154.163061 220.184396 
L 154.496382 221.790759 
L 154.829703 219.854044 
L 155.163024 216.510098 
L 155.829666 230.258506 
L 156.162987 211.148696 
L 156.496308 214.134269 
L 156.829629 218.24078 
L 157.162949 212.492864 
L 157.49627 217.90806 
L 157.829591 217.019996 
L 158.162912 221.114307 
L 158.496233 216.046459 
L 158.829554 224.091997 
L 159.162875 222.682229 
L 159.496196 222.078124 
L 159.829517 220.159351 
L 160.162837 207.499682 
L 160.496158 220.679444 
L 160.829479 220.165602 
L 161.1628 223.544084 
L 161.496121 211.836357 
L 161.829442 212.082639 
L 162.162763 223.125986 
L 162.496084 215.383502 
L 162.829405 212.207087 
L 163.162725 218.041012 
L 163.496046 221.299683 
L 163.829367 213.575214 
L 164.162688 215.200472 
L 164.496009 222.654125 
L 164.82933 209.457701 
L 165.162651 219.821788 
L 165.495972 213.11277 
L 165.829293 213.09921 
L 166.162613 204.366982 
L 166.495934 214.343924 
L 166.829255 204.226938 
L 167.162576 202.792652 
L 167.495897 212.936677 
L 167.829218 214.669823 
L 168.162539 218.36862 
L 168.49586 207.978137 
L 168.829181 212.827799 
L 169.162501 200.533617 
L 169.495822 214.300017 
L 169.829143 218.060645 
L 170.162464 213.799177 
L 170.495785 206.055607 
L 170.829106 211.958072 
L 171.162427 205.900287 
L 171.495748 212.369995 
L 171.829069 194.765051 
L 172.162389 211.750278 
L 172.49571 204.878544 
L 172.829031 205.774985 
L 173.162352 212.417041 
L 173.828994 210.162081 
L 174.162315 198.14974 
L 174.495636 209.731392 
L 174.828957 200.555712 
L 175.162277 215.622376 
L 175.495598 210.56841 
L 175.828919 200.6377 
L 176.495561 211.994248 
L 176.828882 197.135011 
L 177.162203 207.805076 
L 177.495524 198.762921 
L 177.828845 207.812808 
L 178.162165 211.124522 
L 178.495486 203.848329 
L 178.828807 212.83989 
L 179.162128 202.427256 
L 179.495449 202.292018 
L 179.82877 202.834093 
L 180.162091 202.12478 
L 180.828732 189.20873 
L 181.162053 208.182748 
L 181.495374 209.798243 
L 181.828695 199.453727 
L 182.162016 205.528717 
L 182.828658 197.982283 
L 183.161979 209.029936 
L 183.4953 202.780898 
L 183.82862 200.999047 
L 184.161941 206.399267 
L 184.495262 196.128988 
L 184.828583 200.245177 
L 185.161904 199.204535 
L 185.495225 203.296982 
L 185.828546 198.746968 
L 186.161867 197.103859 
L 186.495188 208.053405 
L 186.828508 202.81647 
L 187.161829 199.635569 
L 187.49515 190.251084 
L 187.828471 205.906162 
L 188.161792 201.76701 
L 188.495113 203.670036 
L 188.828434 183.346792 
L 189.161755 199.230319 
L 189.495076 201.455169 
L 189.828396 204.729988 
L 190.161717 192.572791 
L 190.495038 202.732939 
L 191.495001 196.211021 
L 191.828322 190.859667 
L 192.161643 187.392934 
L 192.494964 188.271004 
L 192.828284 202.783696 
L 193.161605 196.75593 
L 193.494926 197.208896 
L 193.828247 181.59808 
L 194.161568 199.921115 
L 194.494889 203.640045 
L 195.494852 195.328631 
L 195.828172 201.965319 
L 196.161493 198.27155 
L 196.494814 198.024476 
L 196.828135 189.741854 
L 197.161456 192.626653 
L 197.494777 192.850814 
L 197.828098 195.663851 
L 198.161419 195.676362 
L 198.49474 196.200961 
L 198.82806 200.762413 
L 199.161381 178.042115 
L 199.494702 194.585237 
L 199.828023 189.245245 
L 200.161344 185.803376 
L 200.827986 190.771394 
L 201.161307 190.35122 
L 201.494628 188.605175 
L 201.827948 183.825071 
L 202.161269 184.138169 
L 202.49459 184.162998 
L 202.827911 191.133612 
L 203.161232 185.400288 
L 203.494553 173.996631 
L 203.827874 179.624461 
L 204.161195 177.290449 
L 204.827836 192.250692 
L 205.161157 193.268053 
L 205.494478 187.118501 
L 205.827799 184.039379 
L 206.16112 193.997359 
L 206.494441 184.039379 
L 206.827762 191.47725 
L 207.161083 190.102507 
L 207.827724 176.706188 
L 208.161045 187.380518 
L 208.494366 190.992252 
L 208.827687 189.900476 
L 209.494329 185.537022 
L 209.82765 183.728134 
L 210.160971 188.493543 
L 210.494292 185.552606 
L 210.827612 180.069276 
L 211.160933 179.428689 
L 211.827575 173.247977 
L 212.160896 186.337314 
L 212.494217 184.162998 
L 212.827538 176.746181 
L 213.160859 176.801415 
L 213.49418 190.760558 
L 213.8275 176.801415 
L 214.160821 181.040959 
L 214.494142 188.41983 
L 214.827463 185.134994 
L 215.160784 187.666138 
L 215.494105 166.780117 
L 215.827426 170.55311 
L 216.160747 181.030415 
L 216.494068 184.162998 
L 216.827388 180.211485 
L 217.160709 173.841115 
L 217.49403 179.249816 
L 217.827351 174.689477 
L 218.160672 181.95041 
L 218.493993 176.539998 
L 218.827314 169.166188 
L 219.160635 181.867432 
L 219.493956 178.206163 
L 219.827276 169.989382 
L 220.493918 184.490793 
L 220.827239 178.234373 
L 221.16056 174.852191 
L 221.493881 182.836719 
L 221.827202 167.561036 
L 222.160523 177.799509 
L 222.493844 183.266198 
L 222.827164 172.721315 
L 223.160485 181.597524 
L 223.493806 175.750465 
L 223.827127 175.841478 
L 224.160448 178.281831 
L 224.493769 169.039719 
L 225.160411 167.382683 
L 225.827052 163.784652 
L 226.160373 169.832908 
L 226.493694 170.749896 
L 226.827015 180.630557 
L 227.160336 166.12342 
L 227.493657 175.799904 
L 227.826978 167.474406 
L 228.160299 174.976721 
L 228.49362 167.474406 
L 228.82694 174.847267 
L 229.160261 167.68738 
L 229.493582 167.029107 
L 229.826903 168.005757 
L 230.160224 163.07347 
L 230.493545 169.878904 
L 230.826866 164.256223 
L 231.160187 174.952445 
L 231.493508 170.158833 
L 231.826828 161.3135 
L 232.160149 172.938572 
L 232.49347 170.237024 
L 232.826791 175.900595 
L 233.160112 170.961609 
L 233.493433 161.461137 
L 233.826754 172.329206 
L 234.160075 170.201723 
L 234.493396 164.291674 
L 234.826716 166.502114 
L 235.160037 166.733733 
L 235.493358 158.220028 
L 235.826679 170.329393 
L 236.16 175.412198 
L 236.493321 165.794869 
L 236.826642 165.547815 
L 237.159963 163.379855 
L 237.493284 162.412821 
L 237.826604 163.716373 
L 238.159925 166.323255 
L 238.493246 163.212152 
L 238.826567 174.161142 
L 239.159888 171.551962 
L 239.493209 171.430153 
L 240.159851 154.096077 
L 240.493172 161.884435 
L 240.826492 155.891708 
L 241.159813 158.024257 
L 241.493134 156.594652 
L 241.826455 170.809127 
L 242.159776 165.88596 
L 242.493097 168.814224 
L 242.826418 155.67006 
L 243.159739 162.610726 
L 243.49306 159.368544 
L 243.82638 164.907764 
L 244.159701 163.772891 
L 244.826343 152.15784 
L 245.159664 159.057971 
L 245.492985 156.658316 
L 245.826306 161.759587 
L 246.159627 162.072382 
L 246.492948 158.003901 
L 246.826268 161.495918 
L 247.159589 162.816425 
L 247.49291 151.882636 
L 247.826231 163.540822 
L 248.159552 150.703824 
L 248.492873 162.840217 
L 248.826194 161.684129 
L 249.159515 150.066582 
L 249.492836 152.417978 
L 249.826156 162.191889 
L 250.159477 156.978114 
L 250.492798 158.318747 
L 250.826119 163.549715 
L 251.15944 154.847205 
L 251.826082 162.954572 
L 252.159403 147.972946 
L 252.492724 153.281117 
L 252.826044 164.667662 
L 253.159365 151.92567 
L 253.492686 162.827623 
L 253.826007 138.631753 
L 254.159328 149.446567 
L 254.492649 154.88888 
L 254.82597 152.845595 
L 255.159291 148.695513 
L 255.492612 155.001097 
L 255.825932 151.680638 
L 256.159253 158.825976 
L 256.492574 152.328324 
L 256.825895 164.159286 
L 257.159216 160.704614 
L 257.492537 158.658652 
L 257.825858 158.054499 
L 258.159179 139.731947 
L 258.4925 147.961004 
L 258.82582 152.336757 
L 259.159141 146.324171 
L 259.492462 156.061915 
L 259.825783 157.896492 
L 260.159104 136.851499 
L 260.492425 154.580224 
L 260.825746 156.315046 
L 261.159067 152.068561 
L 261.492388 145.737137 
L 261.825708 142.475514 
L 262.159029 157.177389 
L 262.49235 145.575344 
L 262.825671 153.274925 
L 263.158992 152.638516 
L 263.492313 156.555579 
L 263.825634 148.256049 
L 264.158955 146.7348 
L 264.492276 155.775074 
L 265.158917 141.448825 
L 265.492238 151.630271 
L 265.825559 140.19414 
L 266.15888 147.481587 
L 266.492201 150.464388 
L 267.158843 141.064588 
L 267.492164 147.275535 
L 267.825484 147.199618 
L 268.158805 149.687549 
L 268.492126 153.849459 
L 268.825447 133.817131 
L 269.158768 148.698616 
L 269.492089 138.843464 
L 269.82541 141.539383 
L 270.158731 140.669876 
L 270.492052 141.802581 
L 270.825372 132.997489 
L 271.492014 141.445319 
L 271.825335 136.741169 
L 272.158656 137.376103 
L 272.491977 144.101386 
L 272.825298 137.109709 
L 273.158619 145.460165 
L 273.49194 130.556991 
L 273.82526 140.305417 
L 274.158581 135.108232 
L 274.491902 139.780882 
L 275.158544 130.655495 
L 275.491865 144.500615 
L 275.825186 138.721916 
L 276.158507 135.353272 
L 276.491828 142.729736 
L 276.825148 142.188178 
L 277.158469 137.599224 
L 277.49179 134.684036 
L 277.825111 137.122746 
L 278.158432 136.754849 
L 278.491753 138.532048 
L 278.825074 134.907993 
L 279.158395 138.669545 
L 279.491716 131.311171 
L 279.825036 138.622773 
L 280.158357 134.521283 
L 280.491678 134.762224 
L 280.824999 135.258681 
L 281.15832 131.388285 
L 281.491641 131.206613 
L 281.824962 123.684204 
L 282.158283 129.770791 
L 282.491604 128.826982 
L 282.824924 126.761043 
L 283.158245 133.651557 
L 283.824887 141.091806 
L 284.158208 141.885787 
L 284.491529 127.563593 
L 284.82485 135.373586 
L 285.158171 129.317421 
L 285.491492 137.620555 
L 285.824812 136.854962 
L 286.158133 131.411927 
L 286.491454 133.316249 
L 286.824775 131.429087 
L 287.158096 143.21528 
L 287.491417 133.539209 
L 287.824738 141.503335 
L 288.158059 125.790839 
L 288.49138 132.198966 
L 288.8247 117.951563 
L 289.491342 131.074943 
L 289.824663 123.796727 
L 290.157984 124.315709 
L 290.491305 127.771786 
L 290.824626 122.651598 
L 291.157947 133.597607 
L 291.491268 135.458309 
L 292.157909 131.788459 
L 292.49123 125.331807 
L 292.824551 128.065633 
L 293.157872 134.668313 
L 293.491193 117.395343 
L 294.157835 131.54454 
L 294.491155 129.330771 
L 294.824476 136.719839 
L 295.491118 114.843231 
L 295.824439 128.659958 
L 296.15776 126.358437 
L 296.491081 137.452499 
L 296.824402 136.762899 
L 297.157723 129.603201 
L 297.491043 129.01738 
L 297.824364 118.363273 
L 298.157685 125.976764 
L 298.491006 119.709479 
L 298.824327 121.240208 
L 299.157648 113.263234 
L 299.490969 132.414266 
L 299.82429 130.31968 
L 300.157611 130.065242 
L 300.490931 129.019615 
L 300.824252 127.390314 
L 301.157573 121.441607 
L 301.490894 123.395796 
L 301.824215 126.748264 
L 302.157536 128.899246 
L 302.490857 121.350072 
L 302.824178 127.804076 
L 303.157499 124.75392 
L 303.490819 130.407036 
L 304.157461 117.335711 
L 304.490782 130.507319 
L 304.824103 115.096003 
L 305.490745 116.70957 
L 305.824066 126.236357 
L 306.157387 117.540861 
L 306.490707 125.824806 
L 306.824028 124.486036 
L 307.157349 122.315111 
L 307.49067 116.419778 
L 307.823991 119.794175 
L 308.157312 113.870365 
L 308.490633 111.145539 
L 308.823954 127.960118 
L 309.157275 116.165837 
L 309.490595 115.788385 
L 309.823916 122.079817 
L 310.157237 111.613461 
L 310.490558 105.887605 
L 310.823879 116.037909 
L 311.1572 117.619859 
L 311.490521 120.61881 
L 311.823842 103.383485 
L 312.157163 114.376354 
L 312.490483 107.277459 
L 312.823804 118.564117 
L 313.157125 116.186048 
L 313.490446 123.595191 
L 313.823767 111.870655 
L 314.157088 104.683265 
L 314.490409 101.222645 
L 314.82373 110.062054 
L 315.157051 111.581657 
L 315.490371 104.787592 
L 315.823692 118.556883 
L 316.157013 117.414589 
L 316.490334 117.889302 
L 316.823655 121.941557 
L 317.156976 107.323147 
L 317.490297 111.282469 
L 317.823618 117.997267 
L 318.156939 107.192195 
L 318.490259 110.492424 
L 318.82358 110.228993 
L 319.156901 109.305493 
L 319.490222 107.895103 
L 319.823543 111.097915 
L 320.156864 111.030949 
L 320.490185 114.718894 
L 320.823506 111.825561 
L 321.156827 113.280281 
L 321.490147 100.991169 
L 321.823468 108.901694 
L 322.156789 109.398768 
L 322.49011 114.881526 
L 322.823431 103.94862 
L 323.156752 112.664303 
L 323.490073 105.993417 
L 323.823394 107.922938 
L 324.156715 113.657418 
L 324.490035 112.35957 
L 324.823356 116.723197 
L 325.156677 117.150991 
L 325.489998 106.633713 
L 325.823319 103.491264 
L 326.15664 103.182086 
L 326.489961 98.260339 
L 326.823282 105.452742 
L 327.156603 108.061922 
L 327.489923 99.167544 
L 327.823244 113.540437 
L 328.823207 100.143085 
L 329.156528 101.097716 
L 329.82317 110.383264 
L 330.156491 91.102254 
L 330.489811 104.066931 
L 330.823132 106.590007 
L 331.156453 102.455381 
L 331.489774 103.252365 
L 331.823095 108.771046 
L 332.156416 104.494476 
L 332.489737 111.504838 
L 332.823058 109.825609 
L 333.156379 101.571229 
L 333.489699 108.576516 
L 333.82302 99.466953 
L 334.156341 97.595033 
L 334.489662 92.920504 
L 334.822983 100.661483 
L 335.156304 104.903651 
L 335.489625 98.922781 
L 335.822946 103.770707 
L 336.156267 89.998955 
L 336.489587 103.545964 
L 336.822908 106.582624 
L 337.156229 106.161866 
L 337.48955 106.232645 
L 337.822871 103.266355 
L 338.156192 108.931649 
L 338.489513 100.31983 
L 338.822834 105.452742 
L 339.156155 102.925583 
L 339.489475 106.757332 
L 339.822796 106.616195 
L 340.156117 102.829083 
L 340.489438 92.163285 
L 340.822759 100.029601 
L 341.15608 94.58116 
L 341.489401 105.765796 
L 341.822722 96.380738 
L 342.156043 105.425669 
L 342.489363 96.903924 
L 342.822684 92.817566 
L 343.156005 91.411711 
L 343.489326 97.975343 
L 343.822647 93.251012 
L 344.155968 100.555018 
L 344.489289 92.841707 
L 344.82261 87.708611 
L 345.155931 95.101745 
L 345.489251 97.952022 
L 345.822572 92.753654 
L 346.155893 104.415522 
L 346.489214 85.810008 
L 346.822535 78.338754 
L 347.155856 98.280605 
L 347.489177 88.922216 
L 347.822498 91.50909 
L 348.155819 89.069598 
L 348.489139 90.967016 
L 348.82246 96.588151 
L 349.155781 99.076818 
L 349.489102 90.723619 
L 349.822423 87.233144 
L 350.155744 76.917099 
L 350.489065 91.034954 
L 350.822386 85.340653 
L 351.155707 86.607372 
L 351.489027 77.408787 
L 352.155669 99.364656 
L 352.48899 91.06752 
L 352.822311 91.962531 
L 353.155632 95.655288 
L 353.488953 92.363465 
L 353.822274 84.642365 
L 354.155595 86.31217 
L 354.488915 89.928915 
L 354.822236 73.395883 
L 355.488878 86.573669 
L 355.822199 88.418058 
L 356.15552 86.573669 
L 356.488841 92.465085 
L 356.822162 83.980655 
L 357.155483 91.415868 
L 357.488803 74.976101 
L 357.822124 89.254756 
L 358.155445 86.310707 
L 358.488766 90.219748 
L 358.822087 73.134891 
L 359.155408 90.314547 
L 359.488729 87.273931 
L 359.82205 92.132816 
L 360.155371 76.312276 
L 360.488691 79.16097 
L 360.822012 73.125639 
L 361.155333 88.115629 
L 361.488654 89.614062 
L 361.821975 69.263023 
L 362.155296 88.860318 
L 362.488617 90.232527 
L 363.155259 71.253221 
L 363.488579 91.102254 
L 363.8219 86.273108 
L 364.155221 83.400859 
L 364.488542 85.838245 
L 365.155184 76.48742 
L 365.488505 89.773579 
L 365.821826 82.701574 
L 366.155147 79.88024 
L 366.488467 88.993663 
L 366.821788 72.923259 
L 367.155109 92.406843 
L 367.48843 82.225341 
L 367.821751 87.883502 
L 368.155072 89.797664 
L 368.488393 82.915768 
L 368.821714 80.381526 
L 369.155035 78.96691 
L 369.488355 89.871177 
L 369.821676 65.96003 
L 370.154997 85.735317 
L 370.488318 81.385131 
L 370.821639 86.667501 
L 371.15496 86.240334 
L 371.488281 82.179605 
L 371.821602 86.797327 
L 372.154923 75.105784 
L 372.488243 83.439745 
L 372.821564 82.994959 
L 373.488206 72.053323 
L 373.821527 78.575157 
L 374.154848 78.78212 
L 374.488169 81.100398 
L 374.82149 81.523191 
L 375.154811 75.954718 
L 375.488131 75.18171 
L 375.821452 63.016079 
L 376.154773 81.953424 
L 376.488094 70.056857 
L 376.821415 65.598058 
L 377.154736 78.556694 
L 377.488057 74.142585 
L 377.821378 78.758756 
L 378.154699 74.884163 
L 378.488019 79.322674 
L 378.82134 77.953995 
L 379.154661 74.594186 
L 379.487982 74.054334 
L 379.821303 75.769232 
L 380.154624 71.635703 
L 380.487945 78.984323 
L 380.821266 79.77772 
L 381.154587 78.957223 
L 381.487907 67.087202 
L 381.821228 62.602568 
L 382.154549 75.779679 
L 382.48787 70.91859 
L 382.821191 67.904226 
L 383.154512 75.984308 
L 383.487833 64.810481 
L 383.821154 80.837066 
L 384.154475 69.887497 
L 384.487795 71.461178 
L 384.821116 69.166477 
L 385.154437 65.391056 
L 385.487758 69.10416 
L 385.821079 71.060799 
L 386.1544 70.404175 
L 386.487721 70.075922 
L 386.821042 72.357483 
L 387.154363 66.15126 
L 387.487683 73.218711 
L 387.821004 60.354993 
L 388.154325 68.414347 
L 388.487646 69.425484 
L 388.820967 64.902162 
L 389.154288 70.185438 
L 389.487609 66.542738 
L 389.82093 68.449911 
L 390.154251 67.810529 
L 390.487571 70.190544 
L 390.820892 56.206958 
L 391.154213 55.058833 
L 391.487534 60.570525 
L 391.820855 53.6678 
L 392.487497 70.310836 
L 392.820818 60.451453 
L 393.154139 71.889846 
L 393.487459 65.558978 
L 393.82078 69.304942 
L 394.154101 53.568 
L 394.487422 73.707722 
L 394.820743 64.786371 
L 395.154064 70.01711 
L 395.487385 70.556611 
L 395.820706 58.687617 
L 396.154027 64.742786 
L 396.487347 64.913156 
L 396.820668 66.628661 
L 397.153989 62.532528 
L 397.48731 64.394478 
L 397.820631 71.098542 
L 398.153952 61.930237 
L 398.487273 64.262472 
L 398.487273 64.262472 
" clip-path="url(#p6876812327)" style="fill: none; stroke-dasharray: 3.7,1.6; stroke-dashoffset: 0; stroke: #4169e1"/>
   </g>
   <g id="line2d_15">
    <path d="M 73.832727 279.791599 
L 74.166048 277.41775 
L 74.499369 264.263413 
L 74.83269 269.08251 
L 75.166011 285.450154 
L 75.499332 270.831744 
L 75.832653 280.635029 
L 76.165973 278.123164 
L 76.499294 278.420287 
L 76.832615 279.711673 
L 77.165936 283.280923 
L 77.499257 269.558661 
L 77.832578 285.125892 
L 78.49922 279.743098 
L 78.832541 269.341939 
L 79.165861 272.743805 
L 79.499182 270.955704 
L 79.832503 281.045711 
L 80.165824 273.663615 
L 80.499145 273.197166 
L 80.832466 266.346585 
L 81.165787 270.631103 
L 81.499108 260.326881 
L 81.832429 272.835657 
L 82.165749 278.066395 
L 82.49907 267.979853 
L 82.832391 271.655966 
L 83.165712 262.867951 
L 83.499033 260.820107 
L 84.165675 273.309972 
L 84.498996 272.525264 
L 84.832317 270.115799 
L 85.165637 264.819113 
L 85.498958 272.817383 
L 85.832279 270.56459 
L 86.1656 265.149867 
L 86.498921 265.36698 
L 86.832242 274.245425 
L 87.165563 270.163569 
L 87.498884 274.587488 
L 87.832205 263.935345 
L 88.165525 276.300481 
L 88.498846 267.349501 
L 88.832167 263.220064 
L 89.498809 271.813909 
L 89.83213 259.794914 
L 90.165451 262.078471 
L 90.498772 267.254562 
L 90.832093 267.085684 
L 91.165413 260.671784 
L 91.498734 270.265929 
L 91.832055 264.25376 
L 92.165376 268.730877 
L 92.498697 259.184795 
L 92.832018 260.67091 
L 93.165339 265.749971 
L 93.49866 268.091613 
L 93.831981 267.473148 
L 94.165301 265.001921 
L 94.498622 259.766232 
L 94.831943 250.860747 
L 95.165264 257.167228 
L 95.498585 271.135656 
L 95.831906 269.365298 
L 96.165227 261.682322 
L 96.498548 263.699602 
L 96.831869 261.914987 
L 97.165189 262.264038 
L 97.49851 260.762548 
L 97.831831 249.13312 
L 98.165152 263.356585 
L 98.498473 252.558288 
L 98.831794 263.568504 
L 99.165115 256.304256 
L 99.831757 269.831066 
L 100.165077 266.869538 
L 100.498398 260.606222 
L 100.831719 249.808456 
L 101.16504 264.856097 
L 101.498361 261.042752 
L 101.831682 261.520493 
L 102.165003 264.421233 
L 102.498324 266.044188 
L 102.831645 257.646534 
L 103.164965 253.908341 
L 103.498286 267.476623 
L 104.164928 256.676969 
L 104.498249 248.139964 
L 105.164891 262.418664 
L 105.498212 259.479365 
L 105.831533 247.048729 
L 106.164853 246.709426 
L 106.498174 247.906743 
L 106.831495 255.471884 
L 107.498137 245.146164 
L 107.831458 257.712312 
L 108.164779 249.803214 
L 108.4981 258.606641 
L 108.831421 260.524229 
L 109.164741 247.844343 
L 109.498062 252.863635 
L 109.831383 253.632926 
L 110.164704 261.026732 
L 110.498025 254.166932 
L 110.831346 244.131636 
L 111.164667 254.166109 
L 111.497988 243.389669 
L 111.831309 253.971206 
L 112.164629 256.282685 
L 112.49795 259.956102 
L 112.831271 255.718176 
L 113.164592 246.144804 
L 113.497913 255.045714 
L 113.831234 244.586709 
L 114.164555 251.596504 
L 114.497876 255.480577 
L 114.831197 243.196027 
L 115.497838 254.76344 
L 115.831159 246.168496 
L 116.16448 243.094223 
L 116.497801 256.258503 
L 117.497764 248.598681 
L 117.831085 246.970015 
L 118.164405 241.906064 
L 118.831047 251.98497 
L 119.164368 243.711242 
L 119.497689 241.558913 
L 119.83101 241.34901 
L 120.164331 243.054225 
L 120.497652 249.59941 
L 120.830973 231.016018 
L 121.164293 240.402022 
L 121.497614 240.671085 
L 121.830935 247.906786 
L 122.164256 237.938169 
L 122.497577 245.652298 
L 122.830898 240.485674 
L 123.164219 243.705867 
L 123.49754 240.412714 
L 123.830861 245.386007 
L 124.164181 238.781588 
L 124.497502 248.206218 
L 124.830823 233.822676 
L 125.164144 239.90993 
L 125.497465 242.219379 
L 125.830786 240.328022 
L 126.164107 241.92182 
L 126.497428 241.820168 
L 126.830749 238.181499 
L 127.164069 240.252312 
L 127.49739 239.69735 
L 127.830711 249.224997 
L 128.164032 245.043858 
L 128.497353 246.276467 
L 128.830674 237.707411 
L 129.163995 237.622224 
L 129.497316 226.934279 
L 129.830637 245.24826 
L 130.163957 240.657482 
L 130.830599 244.347438 
L 131.16392 237.519878 
L 131.497241 240.948973 
L 131.830562 234.600552 
L 132.163883 239.420331 
L 132.497204 237.016691 
L 132.830525 221.319955 
L 133.163845 233.730825 
L 133.497166 231.301953 
L 133.830487 243.030378 
L 134.163808 231.698829 
L 134.83045 238.479587 
L 135.163771 243.208933 
L 135.497092 224.53848 
L 135.830413 234.310717 
L 136.163733 238.901625 
L 136.497054 231.458059 
L 136.830375 242.838637 
L 137.163696 226.519462 
L 137.497017 233.998001 
L 137.830338 225.125411 
L 138.163659 222.826728 
L 138.49698 232.79267 
L 138.830301 233.994243 
L 139.163621 231.245277 
L 139.496942 237.996222 
L 139.830263 231.961784 
L 140.496905 234.827866 
L 141.163547 224.946396 
L 141.830189 237.298835 
L 142.163509 225.909874 
L 142.49683 229.670749 
L 142.830151 231.035519 
L 143.163472 237.180329 
L 143.830114 223.090512 
L 144.163435 229.231933 
L 144.496756 228.313709 
L 144.830077 228.856617 
L 145.163397 232.116276 
L 145.496718 229.207665 
L 145.830039 214.763984 
L 146.16336 230.884614 
L 146.496681 222.998218 
L 146.830002 224.605284 
L 147.496644 217.804887 
L 147.829965 225.397015 
L 148.163285 228.899769 
L 148.496606 227.306527 
L 148.829927 219.936967 
L 149.163248 225.704529 
L 149.496569 221.554448 
L 150.163211 219.796229 
L 150.496532 223.460719 
L 150.829853 222.922338 
L 151.163173 228.934191 
L 151.496494 209.788326 
L 152.163136 224.400502 
L 152.496457 220.076699 
L 152.829778 227.801916 
L 153.163099 218.408903 
L 153.49642 228.060105 
L 153.829741 227.078043 
L 154.163061 220.184396 
L 154.496382 221.790759 
L 154.829703 219.854044 
L 155.163024 216.510098 
L 155.829666 230.258506 
L 156.162987 211.148696 
L 156.496308 214.134269 
L 156.829629 218.24078 
L 157.162949 212.492864 
L 157.49627 217.90806 
L 157.829591 217.019996 
L 158.162912 221.114307 
L 158.496233 216.046459 
L 158.829554 224.091997 
L 159.162875 222.682229 
L 159.496196 222.078124 
L 159.829517 220.159351 
L 160.162837 207.499682 
L 160.496158 220.679444 
L 160.829479 220.165602 
L 161.1628 223.544084 
L 161.496121 211.836357 
L 161.829442 212.082639 
L 162.162763 223.125986 
L 162.496084 215.383502 
L 162.829405 212.207087 
L 163.162725 218.041012 
L 163.496046 221.299683 
L 163.829367 213.575214 
L 164.162688 215.200472 
L 164.496009 222.654125 
L 164.82933 209.457701 
L 165.162651 219.821788 
L 165.495972 213.11277 
L 165.829293 213.09921 
L 166.162613 204.366982 
L 166.495934 214.343924 
L 166.829255 204.226938 
L 167.162576 202.792652 
L 167.495897 212.936677 
L 167.829218 214.669823 
L 168.162539 218.36862 
L 168.49586 207.978137 
L 168.829181 212.827799 
L 169.162501 200.533617 
L 169.495822 214.300017 
L 169.829143 218.060645 
L 170.162464 213.799177 
L 170.495785 206.055607 
L 170.829106 211.958072 
L 171.162427 205.900287 
L 171.495748 212.369995 
L 171.829069 194.765051 
L 172.162389 211.750278 
L 172.49571 204.878544 
L 172.829031 205.774985 
L 173.162352 212.417041 
L 173.828994 210.162081 
L 174.162315 198.14974 
L 174.495636 209.731392 
L 174.828957 200.555712 
L 175.162277 215.622376 
L 175.495598 210.56841 
L 175.828919 200.6377 
L 176.495561 211.994248 
L 176.828882 197.135011 
L 177.162203 207.805076 
L 177.495524 198.762921 
L 177.828845 207.812808 
L 178.162165 211.124522 
L 178.495486 203.848329 
L 178.828807 212.83989 
L 179.162128 202.427256 
L 179.495449 202.292018 
L 179.82877 202.834093 
L 180.162091 202.12478 
L 180.828732 189.20873 
L 181.162053 208.182748 
L 181.495374 209.798243 
L 181.828695 199.453727 
L 182.162016 205.528717 
L 182.828658 197.982283 
L 183.161979 209.029936 
L 183.4953 202.780898 
L 183.82862 200.999047 
L 184.161941 206.399267 
L 184.495262 196.128988 
L 184.828583 200.245177 
L 185.161904 199.204535 
L 185.495225 203.296982 
L 185.828546 198.746968 
L 186.161867 197.103859 
L 186.495188 208.053405 
L 186.828508 202.81647 
L 187.161829 199.635569 
L 187.49515 190.251084 
L 187.828471 205.906162 
L 188.161792 201.76701 
L 188.495113 203.670036 
L 188.828434 183.346792 
L 189.161755 199.230319 
L 189.495076 201.455169 
L 189.828396 204.729988 
L 190.161717 192.572791 
L 190.495038 202.732939 
L 191.495001 196.211021 
L 191.828322 190.859667 
L 192.161643 187.392934 
L 192.494964 188.271004 
L 192.828284 202.783696 
L 193.161605 196.75593 
L 193.494926 197.208896 
L 193.828247 181.59808 
L 194.161568 199.921115 
L 194.494889 203.640045 
L 195.494852 195.328631 
L 195.828172 201.965319 
L 196.161493 198.27155 
L 196.494814 198.024476 
L 196.828135 189.741854 
L 197.161456 192.626653 
L 197.494777 192.850814 
L 197.828098 195.663851 
L 198.161419 195.676362 
L 198.49474 196.200961 
L 198.82806 200.762413 
L 199.161381 178.042115 
L 199.494702 194.585237 
L 199.828023 189.245245 
L 200.161344 185.803376 
L 200.827986 190.771394 
L 201.161307 190.35122 
L 201.494628 188.605175 
L 201.827948 183.825071 
L 202.161269 184.138169 
L 202.49459 184.162998 
L 202.827911 191.133612 
L 203.161232 185.400288 
L 203.494553 173.996631 
L 203.827874 179.624461 
L 204.161195 177.290449 
L 204.827836 192.250692 
L 205.161157 193.268053 
L 205.494478 187.118501 
L 205.827799 184.039379 
L 206.16112 193.997359 
L 206.494441 184.039379 
L 206.827762 191.47725 
L 207.161083 190.102507 
L 207.827724 176.706188 
L 208.161045 187.380518 
L 208.494366 190.992252 
L 208.827687 189.900476 
L 209.494329 185.537022 
L 209.82765 183.728134 
L 210.160971 188.493543 
L 210.494292 185.552606 
L 210.827612 180.069276 
L 211.160933 179.428689 
L 211.827575 173.247977 
L 212.160896 186.337314 
L 212.494217 184.162998 
L 212.827538 176.746181 
L 213.160859 176.801415 
L 213.49418 190.760558 
L 213.8275 176.801415 
L 214.160821 181.040959 
L 214.494142 188.41983 
L 214.827463 185.134994 
L 215.160784 187.666138 
L 215.494105 166.780117 
L 215.827426 170.55311 
L 216.160747 181.030415 
L 216.494068 184.162998 
L 216.827388 180.211485 
L 217.160709 173.841115 
L 217.49403 179.249816 
L 217.827351 174.689477 
L 218.160672 181.95041 
L 218.493993 176.539998 
L 218.827314 169.166188 
L 219.160635 181.867432 
L 219.493956 178.206163 
L 219.827276 169.989382 
L 220.493918 184.490793 
L 220.827239 178.234373 
L 221.16056 174.852191 
L 221.493881 182.836719 
L 221.827202 167.561036 
L 222.160523 177.799509 
L 222.493844 183.266198 
L 222.827164 172.721315 
L 223.160485 181.597524 
L 223.493806 175.750465 
L 223.827127 175.841478 
L 224.160448 178.281831 
L 224.493769 169.039719 
L 225.160411 167.382683 
L 225.827052 163.784652 
L 226.160373 169.832908 
L 226.493694 170.749896 
L 226.827015 180.630557 
L 227.160336 166.12342 
L 227.493657 175.799904 
L 227.826978 167.474406 
L 228.160299 174.976721 
L 228.49362 167.474406 
L 228.82694 174.847267 
L 229.160261 167.68738 
L 229.493582 167.029107 
L 229.826903 168.005757 
L 230.160224 163.07347 
L 230.493545 169.878904 
L 230.826866 164.256223 
L 231.160187 174.952445 
L 231.493508 170.158833 
L 231.826828 161.3135 
L 232.160149 172.938572 
L 232.49347 170.237024 
L 232.826791 175.900595 
L 233.160112 170.961609 
L 233.493433 161.461137 
L 233.826754 172.329206 
L 234.160075 170.201723 
L 234.493396 164.291674 
L 234.826716 166.502114 
L 235.160037 166.733733 
L 235.493358 158.220028 
L 235.826679 170.329393 
L 236.16 175.412198 
L 236.493321 165.794869 
L 236.826642 165.547815 
L 237.159963 163.379855 
L 237.493284 162.412821 
L 237.826604 163.716373 
L 238.159925 166.323255 
L 238.493246 163.212152 
L 238.826567 174.161142 
L 239.159888 171.551962 
L 239.493209 171.430153 
L 240.159851 154.096077 
L 240.493172 161.884435 
L 240.826492 155.891708 
L 241.159813 158.024257 
L 241.493134 156.594652 
L 241.826455 170.809127 
L 242.159776 165.88596 
L 242.493097 168.814224 
L 242.826418 155.67006 
L 243.159739 162.610726 
L 243.49306 159.368544 
L 243.82638 164.907764 
L 244.159701 163.772891 
L 244.826343 152.15784 
L 245.159664 159.057971 
L 245.492985 156.658316 
L 245.826306 161.759587 
L 246.159627 162.072382 
L 246.492948 158.003901 
L 246.826268 161.495918 
L 247.159589 162.816425 
L 247.49291 151.882636 
L 247.826231 163.540822 
L 248.159552 150.703824 
L 248.492873 162.840217 
L 248.826194 161.684129 
L 249.159515 150.066582 
L 249.492836 152.417978 
L 249.826156 162.191889 
L 250.159477 156.978114 
L 250.492798 158.318747 
L 250.826119 163.549715 
L 251.15944 154.847205 
L 251.826082 162.954572 
L 252.159403 147.972946 
L 252.492724 153.281117 
L 252.826044 164.667662 
L 253.159365 151.92567 
L 253.492686 162.827623 
L 253.826007 138.631753 
L 254.159328 149.446567 
L 254.492649 154.88888 
L 254.82597 152.845595 
L 255.159291 148.695513 
L 255.492612 155.001097 
L 255.825932 151.680638 
L 256.159253 158.825976 
L 256.492574 152.328324 
L 256.825895 164.159286 
L 257.159216 160.704614 
L 257.492537 158.658652 
L 257.825858 158.054499 
L 258.159179 139.731947 
L 258.4925 147.961004 
L 258.82582 152.336757 
L 259.159141 146.324171 
L 259.492462 156.061915 
L 259.825783 157.896492 
L 260.159104 136.851499 
L 260.492425 154.580224 
L 260.825746 156.315046 
L 261.159067 152.068561 
L 261.492388 145.737137 
L 261.825708 142.475514 
L 262.159029 157.177389 
L 262.49235 145.575344 
L 262.825671 153.274925 
L 263.158992 152.638516 
L 263.492313 156.555579 
L 263.825634 148.256049 
L 264.158955 146.7348 
L 264.492276 155.775074 
L 265.158917 141.448825 
L 265.492238 151.630271 
L 265.825559 140.19414 
L 266.15888 147.481587 
L 266.492201 150.464388 
L 267.158843 141.064588 
L 267.492164 147.275535 
L 267.825484 147.199618 
L 268.158805 149.687549 
L 268.492126 153.849459 
L 268.825447 133.817131 
L 269.158768 148.698616 
L 269.492089 138.843464 
L 269.82541 141.539383 
L 270.158731 140.669876 
L 270.492052 141.802581 
L 270.825372 132.997489 
L 271.492014 141.445319 
L 271.825335 136.741169 
L 272.158656 137.376103 
L 272.491977 144.101386 
L 272.825298 137.109709 
L 273.158619 145.460165 
L 273.49194 130.556991 
L 273.82526 140.305417 
L 274.158581 135.108232 
L 274.491902 139.780882 
L 275.158544 130.655495 
L 275.491865 144.500615 
L 275.825186 138.721916 
L 276.158507 135.353272 
L 276.491828 142.729736 
L 276.825148 142.188178 
L 277.158469 137.599224 
L 277.49179 134.684036 
L 277.825111 137.122746 
L 278.158432 136.754849 
L 278.491753 138.532048 
L 278.825074 134.907993 
L 279.158395 138.669545 
L 279.491716 131.311171 
L 279.825036 138.622773 
L 280.158357 134.521283 
L 280.491678 134.762224 
L 280.824999 135.258681 
L 281.15832 131.388285 
L 281.491641 131.206613 
L 281.824962 123.684204 
L 282.158283 129.770791 
L 282.491604 128.826982 
L 282.824924 126.761043 
L 283.158245 133.651557 
L 283.824887 141.091806 
L 284.158208 141.885787 
L 284.491529 127.563593 
L 284.82485 135.373586 
L 285.158171 129.317421 
L 285.491492 137.620555 
L 285.824812 136.854962 
L 286.158133 131.411927 
L 286.491454 133.316249 
L 286.824775 131.429087 
L 287.158096 143.21528 
L 287.491417 133.539209 
L 287.824738 141.503335 
L 288.158059 125.790839 
L 288.49138 132.198966 
L 288.8247 117.951563 
L 289.491342 131.074943 
L 289.824663 123.796727 
L 290.157984 124.315709 
L 290.491305 127.771786 
L 290.824626 122.651598 
L 291.157947 133.597607 
L 291.491268 135.458309 
L 292.157909 131.788459 
L 292.49123 125.331807 
L 292.824551 128.065633 
L 293.157872 134.668313 
L 293.491193 117.395343 
L 294.157835 131.54454 
L 294.491155 129.330771 
L 294.824476 136.719839 
L 295.491118 114.843231 
L 295.824439 128.659958 
L 296.15776 126.358437 
L 296.491081 137.452499 
L 296.824402 136.762899 
L 297.157723 129.603201 
L 297.491043 129.01738 
L 297.824364 118.363273 
L 298.157685 125.976764 
L 298.491006 119.709479 
L 298.824327 121.240208 
L 299.157648 113.263234 
L 299.490969 132.414266 
L 299.82429 130.31968 
L 300.157611 130.065242 
L 300.490931 129.019615 
L 300.824252 127.390314 
L 301.157573 121.441607 
L 301.490894 123.395796 
L 301.824215 126.748264 
L 302.157536 128.899246 
L 302.490857 121.350072 
L 302.824178 127.804076 
L 303.157499 124.75392 
L 303.490819 130.407036 
L 304.157461 117.335711 
L 304.490782 130.507319 
L 304.824103 115.096003 
L 305.490745 116.70957 
L 305.824066 126.236357 
L 306.157387 117.540861 
L 306.490707 125.824806 
L 306.824028 124.486036 
L 307.157349 122.315111 
L 307.49067 116.419778 
L 307.823991 119.794175 
L 308.157312 113.870365 
L 308.490633 111.145539 
L 308.823954 127.960118 
L 309.157275 116.165837 
L 309.490595 115.788385 
L 309.823916 122.079817 
L 310.157237 111.613461 
L 310.490558 105.887605 
L 310.823879 116.037909 
L 311.1572 117.619859 
L 311.490521 120.61881 
L 311.823842 103.383485 
L 312.157163 114.376354 
L 312.490483 107.277459 
L 312.823804 118.564117 
L 313.157125 116.186048 
L 313.490446 123.595191 
L 313.823767 111.870655 
L 314.157088 104.683265 
L 314.490409 101.222645 
L 314.82373 110.062054 
L 315.157051 111.581657 
L 315.490371 104.787592 
L 315.823692 118.556883 
L 316.157013 117.414589 
L 316.490334 117.889302 
L 316.823655 121.941557 
L 317.156976 107.323147 
L 317.490297 111.282469 
L 317.823618 117.997267 
L 318.156939 107.192195 
L 318.490259 110.492424 
L 318.82358 110.228993 
L 319.156901 109.305493 
L 319.490222 107.895103 
L 319.823543 111.097915 
L 320.156864 111.030949 
L 320.490185 114.718894 
L 320.823506 111.825561 
L 321.156827 113.280281 
L 321.490147 100.991169 
L 321.823468 108.901694 
L 322.156789 109.398768 
L 322.49011 114.881526 
L 322.823431 103.94862 
L 323.156752 112.664303 
L 323.490073 105.993417 
L 323.823394 107.922938 
L 324.156715 113.657418 
L 324.490035 112.35957 
L 324.823356 116.723197 
L 325.156677 117.150991 
L 325.489998 106.633713 
L 325.823319 103.491264 
L 326.15664 103.182086 
L 326.489961 98.260339 
L 326.823282 105.452742 
L 327.156603 108.061922 
L 327.489923 99.167544 
L 327.823244 113.540437 
L 328.823207 100.143085 
L 329.156528 101.097716 
L 329.82317 110.383264 
L 330.156491 91.102254 
L 330.489811 104.066931 
L 330.823132 106.590007 
L 331.156453 102.455381 
L 331.489774 103.252365 
L 331.823095 108.771046 
L 332.156416 104.494476 
L 332.489737 111.504838 
L 332.823058 109.825609 
L 333.156379 101.571229 
L 333.489699 108.576516 
L 333.82302 99.466953 
L 334.156341 97.595033 
L 334.489662 92.920504 
L 334.822983 100.661483 
L 335.156304 104.903651 
L 335.489625 98.922781 
L 335.822946 103.770707 
L 336.156267 89.998955 
L 336.489587 103.545964 
L 336.822908 106.582624 
L 337.156229 106.161866 
L 337.48955 106.232645 
L 337.822871 103.266355 
L 338.156192 108.931649 
L 338.489513 100.31983 
L 338.822834 105.452742 
L 339.156155 102.925583 
L 339.489475 106.757332 
L 339.822796 106.616195 
L 340.156117 102.829083 
L 340.489438 92.163285 
L 340.822759 100.029601 
L 341.15608 94.58116 
L 341.489401 105.765796 
L 341.822722 96.380738 
L 342.156043 105.425669 
L 342.489363 96.903924 
L 342.822684 92.817566 
L 343.156005 91.411711 
L 343.489326 97.975343 
L 343.822647 93.251012 
L 344.155968 100.555018 
L 344.489289 92.841707 
L 344.82261 87.708611 
L 345.155931 95.101745 
L 345.489251 97.952022 
L 345.822572 92.753654 
L 346.155893 104.415522 
L 346.489214 85.810008 
L 346.822535 78.338754 
L 347.155856 98.280605 
L 347.489177 88.922216 
L 347.822498 91.50909 
L 348.155819 89.069598 
L 348.489139 90.967016 
L 348.82246 96.588151 
L 349.155781 99.076818 
L 349.489102 90.723619 
L 349.822423 87.233144 
L 350.155744 76.917099 
L 350.489065 91.034954 
L 350.822386 85.340653 
L 351.155707 86.607372 
L 351.489027 77.408787 
L 352.155669 99.364656 
L 352.48899 91.06752 
L 352.822311 91.962531 
L 353.155632 95.655288 
L 353.488953 92.363465 
L 353.822274 84.642365 
L 354.155595 86.31217 
L 354.488915 89.928915 
L 354.822236 73.395883 
L 355.488878 86.573669 
L 355.822199 88.418058 
L 356.15552 86.573669 
L 356.488841 92.465085 
L 356.822162 83.980655 
L 357.155483 91.415868 
L 357.488803 74.976101 
L 357.822124 89.254756 
L 358.155445 86.310707 
L 358.488766 90.219748 
L 358.822087 73.134891 
L 359.155408 90.314547 
L 359.488729 87.273931 
L 359.82205 92.132816 
L 360.155371 76.312276 
L 360.488691 79.16097 
L 360.822012 73.125639 
L 361.155333 88.115629 
L 361.488654 89.614062 
L 361.821975 69.263023 
L 362.155296 88.860318 
L 362.488617 90.232527 
L 363.155259 71.253221 
L 363.488579 91.102254 
L 363.8219 86.273108 
L 364.155221 83.400859 
L 364.488542 85.838245 
L 365.155184 76.48742 
L 365.488505 89.773579 
L 365.821826 82.701574 
L 366.155147 79.88024 
L 366.488467 88.993663 
L 366.821788 72.923259 
L 367.155109 92.406843 
L 367.48843 82.225341 
L 367.821751 87.883502 
L 368.155072 89.797664 
L 368.488393 82.915768 
L 368.821714 80.381526 
L 369.155035 78.96691 
L 369.488355 89.871177 
L 369.821676 65.96003 
L 370.154997 85.735317 
L 370.488318 81.385131 
L 370.821639 86.667501 
L 371.15496 86.240334 
L 371.488281 82.179605 
L 371.821602 86.797327 
L 372.154923 75.105784 
L 372.488243 83.439745 
L 372.821564 82.994959 
L 373.488206 72.053323 
L 373.821527 78.575157 
L 374.154848 78.78212 
L 374.488169 81.100398 
L 374.82149 81.523191 
L 375.154811 75.954718 
L 375.488131 75.18171 
L 375.821452 63.016079 
L 376.154773 81.953424 
L 376.488094 70.056857 
L 376.821415 65.598058 
L 377.154736 78.556694 
L 377.488057 74.142585 
L 377.821378 78.758756 
L 378.154699 74.884163 
L 378.488019 79.322674 
L 378.82134 77.953995 
L 379.154661 74.594186 
L 379.487982 74.054334 
L 379.821303 75.769232 
L 380.154624 71.635703 
L 380.487945 78.984323 
L 380.821266 79.77772 
L 381.154587 78.957223 
L 381.487907 67.087202 
L 381.821228 62.602568 
L 382.154549 75.779679 
L 382.48787 70.91859 
L 382.821191 67.904226 
L 383.154512 75.984308 
L 383.487833 64.810481 
L 383.821154 80.837066 
L 384.154475 69.887497 
L 384.487795 71.461178 
L 384.821116 69.166477 
L 385.154437 65.391056 
L 385.487758 69.10416 
L 385.821079 71.060799 
L 386.1544 70.404175 
L 386.487721 70.075922 
L 386.821042 72.357483 
L 387.154363 66.15126 
L 387.487683 73.218711 
L 387.821004 60.354993 
L 388.154325 68.414347 
L 388.487646 69.425484 
L 388.820967 64.902162 
L 389.154288 70.185438 
L 389.487609 66.542738 
L 389.82093 68.449911 
L 390.154251 67.810529 
L 390.487571 70.190544 
L 390.820892 56.206958 
L 391.154213 55.058833 
L 391.487534 60.570525 
L 391.820855 53.6678 
L 392.487497 70.310836 
L 392.820818 60.451453 
L 393.154139 71.889846 
L 393.487459 65.558978 
L 393.82078 69.304942 
L 394.154101 53.568 
L 394.487422 73.707722 
L 394.820743 64.786371 
L 395.154064 70.01711 
L 395.487385 70.556611 
L 395.820706 58.687617 
L 396.154027 64.742786 
L 396.487347 64.913156 
L 396.820668 66.628661 
L 397.153989 62.532528 
L 397.48731 64.394478 
L 397.820631 71.098542 
L 398.153952 61.930237 
L 398.487273 64.262472 
L 398.487273 64.262472 
" clip-path="url(#p6876812327)" style="fill: none; stroke-dasharray: 1,1.65; stroke-dashoffset: 0; stroke: #ffa500"/>
   </g>
   <g id="line2d_16">
    <path d="M 73.832727 275.298237 
L 398.487273 59.108418 
L 398.487273 59.108418 
" clip-path="url(#p6876812327)" style="fill: none; stroke-dasharray: 1.85,0.8; stroke-dashoffset: 0; stroke: #191970; stroke-width: 0.5"/>
   </g>
   <g id="line2d_17">
    <path d="M 73.832727 275.298237 
L 398.487273 59.108418 
L 398.487273 59.108418 
" clip-path="url(#p6876812327)" style="fill: none; stroke-dasharray: 0.5,0.825; stroke-dashoffset: 0; stroke: #ff0000; stroke-width: 0.5"/>
   </g>
   <g id="patch_3">
    <path d="M 57.6 307.584 
L 57.6 41.472 
" style="fill: none; stroke: #000000; stroke-width: 0.8; stroke-linejoin: miter; stroke-linecap: square"/>
   </g>
   <g id="patch_4">
    <path d="M 414.72 307.584 
L 414.72 41.472 
" style="fill: none; stroke: #000000; stroke-width: 0.8; stroke-linejoin: miter; stroke-linecap: square"/>
   </g>
   <g id="patch_5">
    <path d="M 57.6 307.584 
L 414.72 307.584 
" style="fill: none; stroke: #000000; stroke-width: 0.8; stroke-linejoin: miter; stroke-linecap: square"/>
   </g>
   <g id="patch_6">
    <path d="M 57.6 41.472 
L 414.72 41.472 
" style="fill: none; stroke: #000000; stroke-width: 0.8; stroke-linejoin: miter; stroke-linecap: square"/>
   </g>
   <g id="text_15">
    <!-- numRider500 -->
    <g transform="translate(195.454688 22.034625)scale(0.12 -0.12)">
     <defs>
      <path id="DejaVuSans-75" d="M 544 1381 
L 544 3500 
L 1119 3500 
L 1119 1403 
Q 1119 906 1312 657 
Q 1506 409 1894 409 
Q 2359 409 2629 706 
Q 2900 1003 2900 1516 
L 2900 3500 
L 3475 3500 
L 3475 0 
L 2900 0 
L 2900 538 
Q 2691 219 2414 64 
Q 2138 -91 1772 -91 
Q 1169 -91 856 284 
Q 544 659 544 1381 
z
M 1991 3584 
L 1991 3584 
z
" transform="scale(0.015625)"/>
      <path id="DejaVuSans-52" d="M 2841 2188 
Q 3044 2119 3236 1894 
Q 3428 1669 3622 1275 
L 4263 0 
L 3584 0 
L 2988 1197 
Q 2756 1666 2539 1819 
Q 2322 1972 1947 1972 
L 1259 1972 
L 1259 0 
L 628 0 
L 628 4666 
L 2053 4666 
Q 2853 4666 3247 4331 
Q 3641 3997 3641 3322 
Q 3641 2881 3436 2590 
Q 3231 2300 2841 2188 
z
M 1259 4147 
L 1259 2491 
L 2053 2491 
Q 2509 2491 2742 2702 
Q 2975 2913 2975 3322 
Q 2975 3731 2742 3939 
Q 2509 4147 2053 4147 
L 1259 4147 
z
" transform="scale(0.015625)"/>
     </defs>
     <use xlink:href="#DejaVuSans-6e"/>
     <use xlink:href="#DejaVuSans-75" x="63.378906"/>
     <use xlink:href="#DejaVuSans-6d" x="126.757812"/>
     <use xlink:href="#DejaVuSans-52" x="224.169922"/>
     <use xlink:href="#DejaVuSans-69" x="293.652344"/>
     <use xlink:href="#DejaVuSans-64" x="321.435547"/>
     <use xlink:href="#DejaVuSans-65" x="384.912109"/>
     <use xlink:href="#DejaVuSans-72" x="446.435547"/>
     <use xlink:href="#DejaVuSans-35" x="487.548828"/>
     <use xlink:href="#DejaVuSans-30" x="551.171875"/>
     <use xlink:href="#DejaVuSans-30" x="614.794922"/>
    </g>
    <!--  grid50 -->
    <g transform="translate(214.866562 35.472)scale(0.12 -0.12)">
     <defs>
      <path id="DejaVuSans-67" d="M 2906 1791 
Q 2906 2416 2648 2759 
Q 2391 3103 1925 3103 
Q 1463 3103 1205 2759 
Q 947 2416 947 1791 
Q 947 1169 1205 825 
Q 1463 481 1925 481 
Q 2391 481 2648 825 
Q 2906 1169 2906 1791 
z
M 3481 434 
Q 3481 -459 3084 -895 
Q 2688 -1331 1869 -1331 
Q 1566 -1331 1297 -1286 
Q 1028 -1241 775 -1147 
L 775 -588 
Q 1028 -725 1275 -790 
Q 1522 -856 1778 -856 
Q 2344 -856 2625 -561 
Q 2906 -266 2906 331 
L 2906 616 
Q 2728 306 2450 153 
Q 2172 0 1784 0 
Q 1141 0 747 490 
Q 353 981 353 1791 
Q 353 2603 747 3093 
Q 1141 3584 1784 3584 
Q 2172 3584 2450 3431 
Q 2728 3278 2906 2969 
L 2906 3500 
L 3481 3500 
L 3481 434 
z
" transform="scale(0.015625)"/>
     </defs>
     <use xlink:href="#DejaVuSans-20"/>
     <use xlink:href="#DejaVuSans-67" x="31.787109"/>
     <use xlink:href="#DejaVuSans-72" x="95.263672"/>
     <use xlink:href="#DejaVuSans-69" x="136.376953"/>
     <use xlink:href="#DejaVuSans-64" x="164.160156"/>
     <use xlink:href="#DejaVuSans-35" x="227.636719"/>
     <use xlink:href="#DejaVuSans-30" x="291.259766"/>
    </g>
   </g>
   <g id="legend_1">
    <g id="patch_7">
     <path d="M 64.6 122.862625 
L 241.8625 122.862625 
Q 243.8625 122.862625 243.8625 120.862625 
L 243.8625 48.472 
Q 243.8625 46.472 241.8625 46.472 
L 64.6 46.472 
Q 62.6 46.472 62.6 48.472 
L 62.6 120.862625 
Q 62.6 122.862625 64.6 122.862625 
z
" style="fill: #ffffff; opacity: 0.8; stroke: #cccccc; stroke-linejoin: miter"/>
    </g>
    <g id="line2d_18">
     <path d="M 66.6 54.570438 
L 76.6 54.570438 
L 86.6 54.570438 
" style="fill: none; stroke: #32cd32; stroke-linecap: square"/>
    </g>
    <g id="text_16">
     <!-- Time In -->
     <g transform="translate(94.6 58.070438)scale(0.1 -0.1)">
      <use xlink:href="#DejaVuSans-54"/>
      <use xlink:href="#DejaVuSans-69" x="57.958984"/>
      <use xlink:href="#DejaVuSans-6d" x="85.742188"/>
      <use xlink:href="#DejaVuSans-65" x="183.154297"/>
      <use xlink:href="#DejaVuSans-20" x="244.677734"/>
      <use xlink:href="#DejaVuSans-49" x="276.464844"/>
      <use xlink:href="#DejaVuSans-6e" x="305.957031"/>
     </g>
    </g>
    <g id="line2d_19">
     <path d="M 66.6 69.248563 
L 76.6 69.248563 
L 86.6 69.248563 
" style="fill: none; stroke-dasharray: 3.7,1.6; stroke-dashoffset: 0; stroke: #4169e1"/>
    </g>
    <g id="text_17">
     <!-- Time Delivered - Default -->
     <g transform="translate(94.6 72.748563)scale(0.1 -0.1)">
      <defs>
       <path id="DejaVuSans-2d" d="M 313 2009 
L 1997 2009 
L 1997 1497 
L 313 1497 
L 313 2009 
z
" transform="scale(0.015625)"/>
       <path id="DejaVuSans-66" d="M 2375 4863 
L 2375 4384 
L 1825 4384 
Q 1516 4384 1395 4259 
Q 1275 4134 1275 3809 
L 1275 3500 
L 2222 3500 
L 2222 3053 
L 1275 3053 
L 1275 0 
L 697 0 
L 697 3053 
L 147 3053 
L 147 3500 
L 697 3500 
L 697 3744 
Q 697 4328 969 4595 
Q 1241 4863 1831 4863 
L 2375 4863 
z
" transform="scale(0.015625)"/>
       <path id="DejaVuSans-61" d="M 2194 1759 
Q 1497 1759 1228 1600 
Q 959 1441 959 1056 
Q 959 750 1161 570 
Q 1363 391 1709 391 
Q 2188 391 2477 730 
Q 2766 1069 2766 1631 
L 2766 1759 
L 2194 1759 
z
M 3341 1997 
L 3341 0 
L 2766 0 
L 2766 531 
Q 2569 213 2275 61 
Q 1981 -91 1556 -91 
Q 1019 -91 701 211 
Q 384 513 384 1019 
Q 384 1609 779 1909 
Q 1175 2209 1959 2209 
L 2766 2209 
L 2766 2266 
Q 2766 2663 2505 2880 
Q 2244 3097 1772 3097 
Q 1472 3097 1187 3025 
Q 903 2953 641 2809 
L 641 3341 
Q 956 3463 1253 3523 
Q 1550 3584 1831 3584 
Q 2591 3584 2966 3190 
Q 3341 2797 3341 1997 
z
" transform="scale(0.015625)"/>
       <path id="DejaVuSans-74" d="M 1172 4494 
L 1172 3500 
L 2356 3500 
L 2356 3053 
L 1172 3053 
L 1172 1153 
Q 1172 725 1289 603 
Q 1406 481 1766 481 
L 2356 481 
L 2356 0 
L 1766 0 
Q 1100 0 847 248 
Q 594 497 594 1153 
L 594 3053 
L 172 3053 
L 172 3500 
L 594 3500 
L 594 4494 
L 1172 4494 
z
" transform="scale(0.015625)"/>
      </defs>
      <use xlink:href="#DejaVuSans-54"/>
      <use xlink:href="#DejaVuSans-69" x="57.958984"/>
      <use xlink:href="#DejaVuSans-6d" x="85.742188"/>
      <use xlink:href="#DejaVuSans-65" x="183.154297"/>
      <use xlink:href="#DejaVuSans-20" x="244.677734"/>
      <use xlink:href="#DejaVuSans-44" x="276.464844"/>
      <use xlink:href="#DejaVuSans-65" x="353.466797"/>
      <use xlink:href="#DejaVuSans-6c" x="414.990234"/>
      <use xlink:href="#DejaVuSans-69" x="442.773438"/>
      <use xlink:href="#DejaVuSans-76" x="470.556641"/>
      <use xlink:href="#DejaVuSans-65" x="529.736328"/>
      <use xlink:href="#DejaVuSans-72" x="591.259766"/>
      <use xlink:href="#DejaVuSans-65" x="630.123047"/>
      <use xlink:href="#DejaVuSans-64" x="691.646484"/>
      <use xlink:href="#DejaVuSans-20" x="755.123047"/>
      <use xlink:href="#DejaVuSans-2d" x="786.910156"/>
      <use xlink:href="#DejaVuSans-20" x="822.994141"/>
      <use xlink:href="#DejaVuSans-44" x="854.78125"/>
      <use xlink:href="#DejaVuSans-65" x="931.783203"/>
      <use xlink:href="#DejaVuSans-66" x="993.306641"/>
      <use xlink:href="#DejaVuSans-61" x="1028.511719"/>
      <use xlink:href="#DejaVuSans-75" x="1089.791016"/>
      <use xlink:href="#DejaVuSans-6c" x="1153.169922"/>
      <use xlink:href="#DejaVuSans-74" x="1180.953125"/>
     </g>
    </g>
    <g id="line2d_20">
     <path d="M 66.6 83.926688 
L 76.6 83.926688 
L 86.6 83.926688 
" style="fill: none; stroke-dasharray: 1,1.65; stroke-dashoffset: 0; stroke: #ffa500"/>
    </g>
    <g id="text_18">
     <!-- Time Delivered - Anticipation -->
     <g transform="translate(94.6 87.426688)scale(0.1 -0.1)">
      <defs>
       <path id="DejaVuSans-41" d="M 2188 4044 
L 1331 1722 
L 3047 1722 
L 2188 4044 
z
M 1831 4666 
L 2547 4666 
L 4325 0 
L 3669 0 
L 3244 1197 
L 1141 1197 
L 716 0 
L 50 0 
L 1831 4666 
z
" transform="scale(0.015625)"/>
       <path id="DejaVuSans-63" d="M 3122 3366 
L 3122 2828 
Q 2878 2963 2633 3030 
Q 2388 3097 2138 3097 
Q 1578 3097 1268 2742 
Q 959 2388 959 1747 
Q 959 1106 1268 751 
Q 1578 397 2138 397 
Q 2388 397 2633 464 
Q 2878 531 3122 666 
L 3122 134 
Q 2881 22 2623 -34 
Q 2366 -91 2075 -91 
Q 1284 -91 818 406 
Q 353 903 353 1747 
Q 353 2603 823 3093 
Q 1294 3584 2113 3584 
Q 2378 3584 2631 3529 
Q 2884 3475 3122 3366 
z
" transform="scale(0.015625)"/>
       <path id="DejaVuSans-70" d="M 1159 525 
L 1159 -1331 
L 581 -1331 
L 581 3500 
L 1159 3500 
L 1159 2969 
Q 1341 3281 1617 3432 
Q 1894 3584 2278 3584 
Q 2916 3584 3314 3078 
Q 3713 2572 3713 1747 
Q 3713 922 3314 415 
Q 2916 -91 2278 -91 
Q 1894 -91 1617 61 
Q 1341 213 1159 525 
z
M 3116 1747 
Q 3116 2381 2855 2742 
Q 2594 3103 2138 3103 
Q 1681 3103 1420 2742 
Q 1159 2381 1159 1747 
Q 1159 1113 1420 752 
Q 1681 391 2138 391 
Q 2594 391 2855 752 
Q 3116 1113 3116 1747 
z
" transform="scale(0.015625)"/>
       <path id="DejaVuSans-6f" d="M 1959 3097 
Q 1497 3097 1228 2736 
Q 959 2375 959 1747 
Q 959 1119 1226 758 
Q 1494 397 1959 397 
Q 2419 397 2687 759 
Q 2956 1122 2956 1747 
Q 2956 2369 2687 2733 
Q 2419 3097 1959 3097 
z
M 1959 3584 
Q 2709 3584 3137 3096 
Q 3566 2609 3566 1747 
Q 3566 888 3137 398 
Q 2709 -91 1959 -91 
Q 1206 -91 779 398 
Q 353 888 353 1747 
Q 353 2609 779 3096 
Q 1206 3584 1959 3584 
z
" transform="scale(0.015625)"/>
      </defs>
      <use xlink:href="#DejaVuSans-54"/>
      <use xlink:href="#DejaVuSans-69" x="57.958984"/>
      <use xlink:href="#DejaVuSans-6d" x="85.742188"/>
      <use xlink:href="#DejaVuSans-65" x="183.154297"/>
      <use xlink:href="#DejaVuSans-20" x="244.677734"/>
      <use xlink:href="#DejaVuSans-44" x="276.464844"/>
      <use xlink:href="#DejaVuSans-65" x="353.466797"/>
      <use xlink:href="#DejaVuSans-6c" x="414.990234"/>
      <use xlink:href="#DejaVuSans-69" x="442.773438"/>
      <use xlink:href="#DejaVuSans-76" x="470.556641"/>
      <use xlink:href="#DejaVuSans-65" x="529.736328"/>
      <use xlink:href="#DejaVuSans-72" x="591.259766"/>
      <use xlink:href="#DejaVuSans-65" x="630.123047"/>
      <use xlink:href="#DejaVuSans-64" x="691.646484"/>
      <use xlink:href="#DejaVuSans-20" x="755.123047"/>
      <use xlink:href="#DejaVuSans-2d" x="786.910156"/>
      <use xlink:href="#DejaVuSans-20" x="822.994141"/>
      <use xlink:href="#DejaVuSans-41" x="854.78125"/>
      <use xlink:href="#DejaVuSans-6e" x="923.189453"/>
      <use xlink:href="#DejaVuSans-74" x="986.568359"/>
      <use xlink:href="#DejaVuSans-69" x="1025.777344"/>
      <use xlink:href="#DejaVuSans-63" x="1053.560547"/>
      <use xlink:href="#DejaVuSans-69" x="1108.541016"/>
      <use xlink:href="#DejaVuSans-70" x="1136.324219"/>
      <use xlink:href="#DejaVuSans-61" x="1199.800781"/>
      <use xlink:href="#DejaVuSans-74" x="1261.080078"/>
      <use xlink:href="#DejaVuSans-69" x="1300.289062"/>
      <use xlink:href="#DejaVuSans-6f" x="1328.072266"/>
      <use xlink:href="#DejaVuSans-6e" x="1389.253906"/>
     </g>
    </g>
    <g id="line2d_21">
     <path d="M 66.6 98.604813 
L 76.6 98.604813 
L 86.6 98.604813 
" style="fill: none; stroke-dasharray: 1.85,0.8; stroke-dashoffset: 0; stroke: #191970; stroke-width: 0.5"/>
    </g>
    <g id="text_19">
     <!-- best fit line for default -->
     <g transform="translate(94.6 102.104813)scale(0.1 -0.1)">
      <defs>
       <path id="DejaVuSans-62" d="M 3116 1747 
Q 3116 2381 2855 2742 
Q 2594 3103 2138 3103 
Q 1681 3103 1420 2742 
Q 1159 2381 1159 1747 
Q 1159 1113 1420 752 
Q 1681 391 2138 391 
Q 2594 391 2855 752 
Q 3116 1113 3116 1747 
z
M 1159 2969 
Q 1341 3281 1617 3432 
Q 1894 3584 2278 3584 
Q 2916 3584 3314 3078 
Q 3713 2572 3713 1747 
Q 3713 922 3314 415 
Q 2916 -91 2278 -91 
Q 1894 -91 1617 61 
Q 1341 213 1159 525 
L 1159 0 
L 581 0 
L 581 4863 
L 1159 4863 
L 1159 2969 
z
" transform="scale(0.015625)"/>
       <path id="DejaVuSans-73" d="M 2834 3397 
L 2834 2853 
Q 2591 2978 2328 3040 
Q 2066 3103 1784 3103 
Q 1356 3103 1142 2972 
Q 928 2841 928 2578 
Q 928 2378 1081 2264 
Q 1234 2150 1697 2047 
L 1894 2003 
Q 2506 1872 2764 1633 
Q 3022 1394 3022 966 
Q 3022 478 2636 193 
Q 2250 -91 1575 -91 
Q 1294 -91 989 -36 
Q 684 19 347 128 
L 347 722 
Q 666 556 975 473 
Q 1284 391 1588 391 
Q 1994 391 2212 530 
Q 2431 669 2431 922 
Q 2431 1156 2273 1281 
Q 2116 1406 1581 1522 
L 1381 1569 
Q 847 1681 609 1914 
Q 372 2147 372 2553 
Q 372 3047 722 3315 
Q 1072 3584 1716 3584 
Q 2034 3584 2315 3537 
Q 2597 3491 2834 3397 
z
" transform="scale(0.015625)"/>
      </defs>
      <use xlink:href="#DejaVuSans-62"/>
      <use xlink:href="#DejaVuSans-65" x="63.476562"/>
      <use xlink:href="#DejaVuSans-73" x="125"/>
      <use xlink:href="#DejaVuSans-74" x="177.099609"/>
      <use xlink:href="#DejaVuSans-20" x="216.308594"/>
      <use xlink:href="#DejaVuSans-66" x="248.095703"/>
      <use xlink:href="#DejaVuSans-69" x="283.300781"/>
      <use xlink:href="#DejaVuSans-74" x="311.083984"/>
      <use xlink:href="#DejaVuSans-20" x="350.292969"/>
      <use xlink:href="#DejaVuSans-6c" x="382.080078"/>
      <use xlink:href="#DejaVuSans-69" x="409.863281"/>
      <use xlink:href="#DejaVuSans-6e" x="437.646484"/>
      <use xlink:href="#DejaVuSans-65" x="501.025391"/>
      <use xlink:href="#DejaVuSans-20" x="562.548828"/>
      <use xlink:href="#DejaVuSans-66" x="594.335938"/>
      <use xlink:href="#DejaVuSans-6f" x="629.541016"/>
      <use xlink:href="#DejaVuSans-72" x="690.722656"/>
      <use xlink:href="#DejaVuSans-20" x="731.835938"/>
      <use xlink:href="#DejaVuSans-64" x="763.623047"/>
      <use xlink:href="#DejaVuSans-65" x="827.099609"/>
      <use xlink:href="#DejaVuSans-66" x="888.623047"/>
      <use xlink:href="#DejaVuSans-61" x="923.828125"/>
      <use xlink:href="#DejaVuSans-75" x="985.107422"/>
      <use xlink:href="#DejaVuSans-6c" x="1048.486328"/>
      <use xlink:href="#DejaVuSans-74" x="1076.269531"/>
     </g>
    </g>
    <g id="line2d_22">
     <path d="M 66.6 113.282938 
L 76.6 113.282938 
L 86.6 113.282938 
" style="fill: none; stroke-dasharray: 0.5,0.825; stroke-dashoffset: 0; stroke: #ff0000; stroke-width: 0.5"/>
    </g>
    <g id="text_20">
     <!-- best fit line for anticipation -->
     <g transform="translate(94.6 116.782938)scale(0.1 -0.1)">
      <use xlink:href="#DejaVuSans-62"/>
      <use xlink:href="#DejaVuSans-65" x="63.476562"/>
      <use xlink:href="#DejaVuSans-73" x="125"/>
      <use xlink:href="#DejaVuSans-74" x="177.099609"/>
      <use xlink:href="#DejaVuSans-20" x="216.308594"/>
      <use xlink:href="#DejaVuSans-66" x="248.095703"/>
      <use xlink:href="#DejaVuSans-69" x="283.300781"/>
      <use xlink:href="#DejaVuSans-74" x="311.083984"/>
      <use xlink:href="#DejaVuSans-20" x="350.292969"/>
      <use xlink:href="#DejaVuSans-6c" x="382.080078"/>
      <use xlink:href="#DejaVuSans-69" x="409.863281"/>
      <use xlink:href="#DejaVuSans-6e" x="437.646484"/>
      <use xlink:href="#DejaVuSans-65" x="501.025391"/>
      <use xlink:href="#DejaVuSans-20" x="562.548828"/>
      <use xlink:href="#DejaVuSans-66" x="594.335938"/>
      <use xlink:href="#DejaVuSans-6f" x="629.541016"/>
      <use xlink:href="#DejaVuSans-72" x="690.722656"/>
      <use xlink:href="#DejaVuSans-20" x="731.835938"/>
      <use xlink:href="#DejaVuSans-61" x="763.623047"/>
      <use xlink:href="#DejaVuSans-6e" x="824.902344"/>
      <use xlink:href="#DejaVuSans-74" x="888.28125"/>
      <use xlink:href="#DejaVuSans-69" x="927.490234"/>
      <use xlink:href="#DejaVuSans-63" x="955.273438"/>
      <use xlink:href="#DejaVuSans-69" x="1010.253906"/>
      <use xlink:href="#DejaVuSans-70" x="1038.037109"/>
      <use xlink:href="#DejaVuSans-61" x="1101.513672"/>
      <use xlink:href="#DejaVuSans-74" x="1162.792969"/>
      <use xlink:href="#DejaVuSans-69" x="1202.001953"/>
      <use xlink:href="#DejaVuSans-6f" x="1229.785156"/>
      <use xlink:href="#DejaVuSans-6e" x="1290.966797"/>
     </g>
    </g>
   </g>
  </g>
 </g>
 <defs>
  <clipPath id="p6876812327">
   <rect x="57.6" y="41.472" width="357.12" height="266.112"/>
  </clipPath>
 </defs>
</svg>
