<?xml version="1.0" encoding="utf-8" standalone="no"?>
<!DOCTYPE svg PUBLIC "-//W3C//DTD SVG 1.1//EN"
  "http://www.w3.org/Graphics/SVG/1.1/DTD/svg11.dtd">
<svg xmlns:xlink="http://www.w3.org/1999/xlink" width="460.8pt" height="345.6pt" viewBox="0 0 460.8 345.6" xmlns="http://www.w3.org/2000/svg" version="1.1">
 <metadata>
  <rdf:RDF xmlns:dc="http://purl.org/dc/elements/1.1/" xmlns:cc="http://creativecommons.org/ns#" xmlns:rdf="http://www.w3.org/1999/02/22-rdf-syntax-ns#">
   <cc:Work>
    <dc:type rdf:resource="http://purl.org/dc/dcmitype/StillImage"/>
    <dc:date>2022-09-12T15:42:18.269533</dc:date>
    <dc:format>image/svg+xml</dc:format>
    <dc:creator>
     <cc:Agent>
      <dc:title>Matplotlib v3.5.2, https://matplotlib.org/</dc:title>
     </cc:Agent>
    </dc:creator>
   </cc:Work>
  </rdf:RDF>
 </metadata>
 <defs>
  <style type="text/css">*{stroke-linejoin: round; stroke-linecap: butt}</style>
 </defs>
 <g id="figure_1">
  <g id="patch_1">
   <path d="M 0 345.6 
L 460.8 345.6 
L 460.8 0 
L 0 0 
z
" style="fill: #ffffff"/>
  </g>
  <g id="axes_1">
   <g id="patch_2">
    <path d="M 57.6 307.584 
L 414.72 307.584 
L 414.72 41.472 
L 57.6 41.472 
z
" style="fill: #ffffff"/>
   </g>
   <g id="matplotlib.axis_1">
    <g id="xtick_1">
     <g id="line2d_1">
      <defs>
       <path id="mdc6f0841e1" d="M 0 0 
L 0 3.5 
" style="stroke: #000000; stroke-width: 0.8"/>
      </defs>
      <g>
       <use xlink:href="#mdc6f0841e1" x="73.832727" y="307.584" style="stroke: #000000; stroke-width: 0.8"/>
      </g>
     </g>
     <g id="text_1">
      <!-- 0 -->
      <g transform="translate(70.651477 322.182437)scale(0.1 -0.1)">
       <defs>
        <path id="DejaVuSans-30" d="M 2034 4250 
Q 1547 4250 1301 3770 
Q 1056 3291 1056 2328 
Q 1056 1369 1301 889 
Q 1547 409 2034 409 
Q 2525 409 2770 889 
Q 3016 1369 3016 2328 
Q 3016 3291 2770 3770 
Q 2525 4250 2034 4250 
z
M 2034 4750 
Q 2819 4750 3233 4129 
Q 3647 3509 3647 2328 
Q 3647 1150 3233 529 
Q 2819 -91 2034 -91 
Q 1250 -91 836 529 
Q 422 1150 422 2328 
Q 422 3509 836 4129 
Q 1250 4750 2034 4750 
z
" transform="scale(0.015625)"/>
       </defs>
       <use xlink:href="#DejaVuSans-30"/>
      </g>
     </g>
    </g>
    <g id="xtick_2">
     <g id="line2d_2">
      <g>
       <use xlink:href="#mdc6f0841e1" x="137.867154" y="307.584" style="stroke: #000000; stroke-width: 0.8"/>
      </g>
     </g>
     <g id="text_2">
      <!-- 200 -->
      <g transform="translate(128.323404 322.182437)scale(0.1 -0.1)">
       <defs>
        <path id="DejaVuSans-32" d="M 1228 531 
L 3431 531 
L 3431 0 
L 469 0 
L 469 531 
Q 828 903 1448 1529 
Q 2069 2156 2228 2338 
Q 2531 2678 2651 2914 
Q 2772 3150 2772 3378 
Q 2772 3750 2511 3984 
Q 2250 4219 1831 4219 
Q 1534 4219 1204 4116 
Q 875 4013 500 3803 
L 500 4441 
Q 881 4594 1212 4672 
Q 1544 4750 1819 4750 
Q 2544 4750 2975 4387 
Q 3406 4025 3406 3419 
Q 3406 3131 3298 2873 
Q 3191 2616 2906 2266 
Q 2828 2175 2409 1742 
Q 1991 1309 1228 531 
z
" transform="scale(0.015625)"/>
       </defs>
       <use xlink:href="#DejaVuSans-32"/>
       <use xlink:href="#DejaVuSans-30" x="63.623047"/>
       <use xlink:href="#DejaVuSans-30" x="127.246094"/>
      </g>
     </g>
    </g>
    <g id="xtick_3">
     <g id="line2d_3">
      <g>
       <use xlink:href="#mdc6f0841e1" x="201.901581" y="307.584" style="stroke: #000000; stroke-width: 0.8"/>
      </g>
     </g>
     <g id="text_3">
      <!-- 400 -->
      <g transform="translate(192.357831 322.182437)scale(0.1 -0.1)">
       <defs>
        <path id="DejaVuSans-34" d="M 2419 4116 
L 825 1625 
L 2419 1625 
L 2419 4116 
z
M 2253 4666 
L 3047 4666 
L 3047 1625 
L 3713 1625 
L 3713 1100 
L 3047 1100 
L 3047 0 
L 2419 0 
L 2419 1100 
L 313 1100 
L 313 1709 
L 2253 4666 
z
" transform="scale(0.015625)"/>
       </defs>
       <use xlink:href="#DejaVuSans-34"/>
       <use xlink:href="#DejaVuSans-30" x="63.623047"/>
       <use xlink:href="#DejaVuSans-30" x="127.246094"/>
      </g>
     </g>
    </g>
    <g id="xtick_4">
     <g id="line2d_4">
      <g>
       <use xlink:href="#mdc6f0841e1" x="265.936009" y="307.584" style="stroke: #000000; stroke-width: 0.8"/>
      </g>
     </g>
     <g id="text_4">
      <!-- 600 -->
      <g transform="translate(256.392259 322.182437)scale(0.1 -0.1)">
       <defs>
        <path id="DejaVuSans-36" d="M 2113 2584 
Q 1688 2584 1439 2293 
Q 1191 2003 1191 1497 
Q 1191 994 1439 701 
Q 1688 409 2113 409 
Q 2538 409 2786 701 
Q 3034 994 3034 1497 
Q 3034 2003 2786 2293 
Q 2538 2584 2113 2584 
z
M 3366 4563 
L 3366 3988 
Q 3128 4100 2886 4159 
Q 2644 4219 2406 4219 
Q 1781 4219 1451 3797 
Q 1122 3375 1075 2522 
Q 1259 2794 1537 2939 
Q 1816 3084 2150 3084 
Q 2853 3084 3261 2657 
Q 3669 2231 3669 1497 
Q 3669 778 3244 343 
Q 2819 -91 2113 -91 
Q 1303 -91 875 529 
Q 447 1150 447 2328 
Q 447 3434 972 4092 
Q 1497 4750 2381 4750 
Q 2619 4750 2861 4703 
Q 3103 4656 3366 4563 
z
" transform="scale(0.015625)"/>
       </defs>
       <use xlink:href="#DejaVuSans-36"/>
       <use xlink:href="#DejaVuSans-30" x="63.623047"/>
       <use xlink:href="#DejaVuSans-30" x="127.246094"/>
      </g>
     </g>
    </g>
    <g id="xtick_5">
     <g id="line2d_5">
      <g>
       <use xlink:href="#mdc6f0841e1" x="329.970436" y="307.584" style="stroke: #000000; stroke-width: 0.8"/>
      </g>
     </g>
     <g id="text_5">
      <!-- 800 -->
      <g transform="translate(320.426686 322.182437)scale(0.1 -0.1)">
       <defs>
        <path id="DejaVuSans-38" d="M 2034 2216 
Q 1584 2216 1326 1975 
Q 1069 1734 1069 1313 
Q 1069 891 1326 650 
Q 1584 409 2034 409 
Q 2484 409 2743 651 
Q 3003 894 3003 1313 
Q 3003 1734 2745 1975 
Q 2488 2216 2034 2216 
z
M 1403 2484 
Q 997 2584 770 2862 
Q 544 3141 544 3541 
Q 544 4100 942 4425 
Q 1341 4750 2034 4750 
Q 2731 4750 3128 4425 
Q 3525 4100 3525 3541 
Q 3525 3141 3298 2862 
Q 3072 2584 2669 2484 
Q 3125 2378 3379 2068 
Q 3634 1759 3634 1313 
Q 3634 634 3220 271 
Q 2806 -91 2034 -91 
Q 1263 -91 848 271 
Q 434 634 434 1313 
Q 434 1759 690 2068 
Q 947 2378 1403 2484 
z
M 1172 3481 
Q 1172 3119 1398 2916 
Q 1625 2713 2034 2713 
Q 2441 2713 2670 2916 
Q 2900 3119 2900 3481 
Q 2900 3844 2670 4047 
Q 2441 4250 2034 4250 
Q 1625 4250 1398 4047 
Q 1172 3844 1172 3481 
z
" transform="scale(0.015625)"/>
       </defs>
       <use xlink:href="#DejaVuSans-38"/>
       <use xlink:href="#DejaVuSans-30" x="63.623047"/>
       <use xlink:href="#DejaVuSans-30" x="127.246094"/>
      </g>
     </g>
    </g>
    <g id="xtick_6">
     <g id="line2d_6">
      <g>
       <use xlink:href="#mdc6f0841e1" x="394.004863" y="307.584" style="stroke: #000000; stroke-width: 0.8"/>
      </g>
     </g>
     <g id="text_6">
      <!-- 1000 -->
      <g transform="translate(381.279863 322.182437)scale(0.1 -0.1)">
       <defs>
        <path id="DejaVuSans-31" d="M 794 531 
L 1825 531 
L 1825 4091 
L 703 3866 
L 703 4441 
L 1819 4666 
L 2450 4666 
L 2450 531 
L 3481 531 
L 3481 0 
L 794 0 
L 794 531 
z
" transform="scale(0.015625)"/>
       </defs>
       <use xlink:href="#DejaVuSans-31"/>
       <use xlink:href="#DejaVuSans-30" x="63.623047"/>
       <use xlink:href="#DejaVuSans-30" x="127.246094"/>
       <use xlink:href="#DejaVuSans-30" x="190.869141"/>
      </g>
     </g>
    </g>
    <g id="text_7">
     <!-- Order Index -->
     <g transform="translate(206.594375 335.860562)scale(0.1 -0.1)">
      <defs>
       <path id="DejaVuSans-4f" d="M 2522 4238 
Q 1834 4238 1429 3725 
Q 1025 3213 1025 2328 
Q 1025 1447 1429 934 
Q 1834 422 2522 422 
Q 3209 422 3611 934 
Q 4013 1447 4013 2328 
Q 4013 3213 3611 3725 
Q 3209 4238 2522 4238 
z
M 2522 4750 
Q 3503 4750 4090 4092 
Q 4678 3434 4678 2328 
Q 4678 1225 4090 567 
Q 3503 -91 2522 -91 
Q 1538 -91 948 565 
Q 359 1222 359 2328 
Q 359 3434 948 4092 
Q 1538 4750 2522 4750 
z
" transform="scale(0.015625)"/>
       <path id="DejaVuSans-72" d="M 2631 2963 
Q 2534 3019 2420 3045 
Q 2306 3072 2169 3072 
Q 1681 3072 1420 2755 
Q 1159 2438 1159 1844 
L 1159 0 
L 581 0 
L 581 3500 
L 1159 3500 
L 1159 2956 
Q 1341 3275 1631 3429 
Q 1922 3584 2338 3584 
Q 2397 3584 2469 3576 
Q 2541 3569 2628 3553 
L 2631 2963 
z
" transform="scale(0.015625)"/>
       <path id="DejaVuSans-64" d="M 2906 2969 
L 2906 4863 
L 3481 4863 
L 3481 0 
L 2906 0 
L 2906 525 
Q 2725 213 2448 61 
Q 2172 -91 1784 -91 
Q 1150 -91 751 415 
Q 353 922 353 1747 
Q 353 2572 751 3078 
Q 1150 3584 1784 3584 
Q 2172 3584 2448 3432 
Q 2725 3281 2906 2969 
z
M 947 1747 
Q 947 1113 1208 752 
Q 1469 391 1925 391 
Q 2381 391 2643 752 
Q 2906 1113 2906 1747 
Q 2906 2381 2643 2742 
Q 2381 3103 1925 3103 
Q 1469 3103 1208 2742 
Q 947 2381 947 1747 
z
" transform="scale(0.015625)"/>
       <path id="DejaVuSans-65" d="M 3597 1894 
L 3597 1613 
L 953 1613 
Q 991 1019 1311 708 
Q 1631 397 2203 397 
Q 2534 397 2845 478 
Q 3156 559 3463 722 
L 3463 178 
Q 3153 47 2828 -22 
Q 2503 -91 2169 -91 
Q 1331 -91 842 396 
Q 353 884 353 1716 
Q 353 2575 817 3079 
Q 1281 3584 2069 3584 
Q 2775 3584 3186 3129 
Q 3597 2675 3597 1894 
z
M 3022 2063 
Q 3016 2534 2758 2815 
Q 2500 3097 2075 3097 
Q 1594 3097 1305 2825 
Q 1016 2553 972 2059 
L 3022 2063 
z
" transform="scale(0.015625)"/>
       <path id="DejaVuSans-20" transform="scale(0.015625)"/>
       <path id="DejaVuSans-49" d="M 628 4666 
L 1259 4666 
L 1259 0 
L 628 0 
L 628 4666 
z
" transform="scale(0.015625)"/>
       <path id="DejaVuSans-6e" d="M 3513 2113 
L 3513 0 
L 2938 0 
L 2938 2094 
Q 2938 2591 2744 2837 
Q 2550 3084 2163 3084 
Q 1697 3084 1428 2787 
Q 1159 2491 1159 1978 
L 1159 0 
L 581 0 
L 581 3500 
L 1159 3500 
L 1159 2956 
Q 1366 3272 1645 3428 
Q 1925 3584 2291 3584 
Q 2894 3584 3203 3211 
Q 3513 2838 3513 2113 
z
" transform="scale(0.015625)"/>
       <path id="DejaVuSans-78" d="M 3513 3500 
L 2247 1797 
L 3578 0 
L 2900 0 
L 1881 1375 
L 863 0 
L 184 0 
L 1544 1831 
L 300 3500 
L 978 3500 
L 1906 2253 
L 2834 3500 
L 3513 3500 
z
" transform="scale(0.015625)"/>
      </defs>
      <use xlink:href="#DejaVuSans-4f"/>
      <use xlink:href="#DejaVuSans-72" x="78.710938"/>
      <use xlink:href="#DejaVuSans-64" x="118.074219"/>
      <use xlink:href="#DejaVuSans-65" x="181.550781"/>
      <use xlink:href="#DejaVuSans-72" x="243.074219"/>
      <use xlink:href="#DejaVuSans-20" x="284.1875"/>
      <use xlink:href="#DejaVuSans-49" x="315.974609"/>
      <use xlink:href="#DejaVuSans-6e" x="345.466797"/>
      <use xlink:href="#DejaVuSans-64" x="408.845703"/>
      <use xlink:href="#DejaVuSans-65" x="472.322266"/>
      <use xlink:href="#DejaVuSans-78" x="532.095703"/>
     </g>
    </g>
   </g>
   <g id="matplotlib.axis_2">
    <g id="ytick_1">
     <g id="line2d_7">
      <defs>
       <path id="mdda0289c69" d="M 0 0 
L -3.5 0 
" style="stroke: #000000; stroke-width: 0.8"/>
      </defs>
      <g>
       <use xlink:href="#mdda0289c69" x="57.6" y="295.488" style="stroke: #000000; stroke-width: 0.8"/>
      </g>
     </g>
     <g id="text_8">
      <!-- 0 -->
      <g transform="translate(44.2375 299.287219)scale(0.1 -0.1)">
       <use xlink:href="#DejaVuSans-30"/>
      </g>
     </g>
    </g>
    <g id="ytick_2">
     <g id="line2d_8">
      <g>
       <use xlink:href="#mdda0289c69" x="57.6" y="251.980846" style="stroke: #000000; stroke-width: 0.8"/>
      </g>
     </g>
     <g id="text_9">
      <!-- 100 -->
      <g transform="translate(31.5125 255.780065)scale(0.1 -0.1)">
       <use xlink:href="#DejaVuSans-31"/>
       <use xlink:href="#DejaVuSans-30" x="63.623047"/>
       <use xlink:href="#DejaVuSans-30" x="127.246094"/>
      </g>
     </g>
    </g>
    <g id="ytick_3">
     <g id="line2d_9">
      <g>
       <use xlink:href="#mdda0289c69" x="57.6" y="208.473692" style="stroke: #000000; stroke-width: 0.8"/>
      </g>
     </g>
     <g id="text_10">
      <!-- 200 -->
      <g transform="translate(31.5125 212.272911)scale(0.1 -0.1)">
       <use xlink:href="#DejaVuSans-32"/>
       <use xlink:href="#DejaVuSans-30" x="63.623047"/>
       <use xlink:href="#DejaVuSans-30" x="127.246094"/>
      </g>
     </g>
    </g>
    <g id="ytick_4">
     <g id="line2d_10">
      <g>
       <use xlink:href="#mdda0289c69" x="57.6" y="164.966539" style="stroke: #000000; stroke-width: 0.8"/>
      </g>
     </g>
     <g id="text_11">
      <!-- 300 -->
      <g transform="translate(31.5125 168.765757)scale(0.1 -0.1)">
       <defs>
        <path id="DejaVuSans-33" d="M 2597 2516 
Q 3050 2419 3304 2112 
Q 3559 1806 3559 1356 
Q 3559 666 3084 287 
Q 2609 -91 1734 -91 
Q 1441 -91 1130 -33 
Q 819 25 488 141 
L 488 750 
Q 750 597 1062 519 
Q 1375 441 1716 441 
Q 2309 441 2620 675 
Q 2931 909 2931 1356 
Q 2931 1769 2642 2001 
Q 2353 2234 1838 2234 
L 1294 2234 
L 1294 2753 
L 1863 2753 
Q 2328 2753 2575 2939 
Q 2822 3125 2822 3475 
Q 2822 3834 2567 4026 
Q 2313 4219 1838 4219 
Q 1578 4219 1281 4162 
Q 984 4106 628 3988 
L 628 4550 
Q 988 4650 1302 4700 
Q 1616 4750 1894 4750 
Q 2613 4750 3031 4423 
Q 3450 4097 3450 3541 
Q 3450 3153 3228 2886 
Q 3006 2619 2597 2516 
z
" transform="scale(0.015625)"/>
       </defs>
       <use xlink:href="#DejaVuSans-33"/>
       <use xlink:href="#DejaVuSans-30" x="63.623047"/>
       <use xlink:href="#DejaVuSans-30" x="127.246094"/>
      </g>
     </g>
    </g>
    <g id="ytick_5">
     <g id="line2d_11">
      <g>
       <use xlink:href="#mdda0289c69" x="57.6" y="121.459385" style="stroke: #000000; stroke-width: 0.8"/>
      </g>
     </g>
     <g id="text_12">
      <!-- 400 -->
      <g transform="translate(31.5125 125.258604)scale(0.1 -0.1)">
       <use xlink:href="#DejaVuSans-34"/>
       <use xlink:href="#DejaVuSans-30" x="63.623047"/>
       <use xlink:href="#DejaVuSans-30" x="127.246094"/>
      </g>
     </g>
    </g>
    <g id="ytick_6">
     <g id="line2d_12">
      <g>
       <use xlink:href="#mdda0289c69" x="57.6" y="77.952231" style="stroke: #000000; stroke-width: 0.8"/>
      </g>
     </g>
     <g id="text_13">
      <!-- 500 -->
      <g transform="translate(31.5125 81.75145)scale(0.1 -0.1)">
       <defs>
        <path id="DejaVuSans-35" d="M 691 4666 
L 3169 4666 
L 3169 4134 
L 1269 4134 
L 1269 2991 
Q 1406 3038 1543 3061 
Q 1681 3084 1819 3084 
Q 2600 3084 3056 2656 
Q 3513 2228 3513 1497 
Q 3513 744 3044 326 
Q 2575 -91 1722 -91 
Q 1428 -91 1123 -41 
Q 819 9 494 109 
L 494 744 
Q 775 591 1075 516 
Q 1375 441 1709 441 
Q 2250 441 2565 725 
Q 2881 1009 2881 1497 
Q 2881 1984 2565 2268 
Q 2250 2553 1709 2553 
Q 1456 2553 1204 2497 
Q 953 2441 691 2322 
L 691 4666 
z
" transform="scale(0.015625)"/>
       </defs>
       <use xlink:href="#DejaVuSans-35"/>
       <use xlink:href="#DejaVuSans-30" x="63.623047"/>
       <use xlink:href="#DejaVuSans-30" x="127.246094"/>
      </g>
     </g>
    </g>
    <g id="text_14">
     <!-- Order Delivered Time -->
     <g transform="translate(25.432812 228.08425)rotate(-90)scale(0.1 -0.1)">
      <defs>
       <path id="DejaVuSans-44" d="M 1259 4147 
L 1259 519 
L 2022 519 
Q 2988 519 3436 956 
Q 3884 1394 3884 2338 
Q 3884 3275 3436 3711 
Q 2988 4147 2022 4147 
L 1259 4147 
z
M 628 4666 
L 1925 4666 
Q 3281 4666 3915 4102 
Q 4550 3538 4550 2338 
Q 4550 1131 3912 565 
Q 3275 0 1925 0 
L 628 0 
L 628 4666 
z
" transform="scale(0.015625)"/>
       <path id="DejaVuSans-6c" d="M 603 4863 
L 1178 4863 
L 1178 0 
L 603 0 
L 603 4863 
z
" transform="scale(0.015625)"/>
       <path id="DejaVuSans-69" d="M 603 3500 
L 1178 3500 
L 1178 0 
L 603 0 
L 603 3500 
z
M 603 4863 
L 1178 4863 
L 1178 4134 
L 603 4134 
L 603 4863 
z
" transform="scale(0.015625)"/>
       <path id="DejaVuSans-76" d="M 191 3500 
L 800 3500 
L 1894 563 
L 2988 3500 
L 3597 3500 
L 2284 0 
L 1503 0 
L 191 3500 
z
" transform="scale(0.015625)"/>
       <path id="DejaVuSans-54" d="M -19 4666 
L 3928 4666 
L 3928 4134 
L 2272 4134 
L 2272 0 
L 1638 0 
L 1638 4134 
L -19 4134 
L -19 4666 
z
" transform="scale(0.015625)"/>
       <path id="DejaVuSans-6d" d="M 3328 2828 
Q 3544 3216 3844 3400 
Q 4144 3584 4550 3584 
Q 5097 3584 5394 3201 
Q 5691 2819 5691 2113 
L 5691 0 
L 5113 0 
L 5113 2094 
Q 5113 2597 4934 2840 
Q 4756 3084 4391 3084 
Q 3944 3084 3684 2787 
Q 3425 2491 3425 1978 
L 3425 0 
L 2847 0 
L 2847 2094 
Q 2847 2600 2669 2842 
Q 2491 3084 2119 3084 
Q 1678 3084 1418 2786 
Q 1159 2488 1159 1978 
L 1159 0 
L 581 0 
L 581 3500 
L 1159 3500 
L 1159 2956 
Q 1356 3278 1631 3431 
Q 1906 3584 2284 3584 
Q 2666 3584 2933 3390 
Q 3200 3197 3328 2828 
z
" transform="scale(0.015625)"/>
      </defs>
      <use xlink:href="#DejaVuSans-4f"/>
      <use xlink:href="#DejaVuSans-72" x="78.710938"/>
      <use xlink:href="#DejaVuSans-64" x="118.074219"/>
      <use xlink:href="#DejaVuSans-65" x="181.550781"/>
      <use xlink:href="#DejaVuSans-72" x="243.074219"/>
      <use xlink:href="#DejaVuSans-20" x="284.1875"/>
      <use xlink:href="#DejaVuSans-44" x="315.974609"/>
      <use xlink:href="#DejaVuSans-65" x="392.976562"/>
      <use xlink:href="#DejaVuSans-6c" x="454.5"/>
      <use xlink:href="#DejaVuSans-69" x="482.283203"/>
      <use xlink:href="#DejaVuSans-76" x="510.066406"/>
      <use xlink:href="#DejaVuSans-65" x="569.246094"/>
      <use xlink:href="#DejaVuSans-72" x="630.769531"/>
      <use xlink:href="#DejaVuSans-65" x="669.632812"/>
      <use xlink:href="#DejaVuSans-64" x="731.15625"/>
      <use xlink:href="#DejaVuSans-20" x="794.632812"/>
      <use xlink:href="#DejaVuSans-54" x="826.419922"/>
      <use xlink:href="#DejaVuSans-69" x="884.378906"/>
      <use xlink:href="#DejaVuSans-6d" x="912.162109"/>
      <use xlink:href="#DejaVuSans-65" x="1009.574219"/>
     </g>
    </g>
   </g>
   <g id="line2d_13">
    <path d="M 73.832727 295.488 
L 74.152899 295.052928 
L 75.113416 295.052928 
L 75.75376 294.182785 
L 76.394104 294.182785 
L 76.714276 293.747714 
L 77.674793 293.747714 
L 77.994965 292.877571 
L 78.315137 292.877571 
L 78.635309 292.442499 
L 79.275654 292.442499 
L 79.595826 292.007428 
L 79.915998 292.007428 
L 80.23617 291.137285 
L 81.196686 289.83207 
L 81.516859 289.83207 
L 82.157203 288.961927 
L 83.117719 288.961927 
L 83.437891 288.526855 
L 84.71858 288.526855 
L 85.038752 287.656712 
L 85.358924 287.656712 
L 85.679096 287.221641 
L 85.999268 287.221641 
L 86.639613 285.046283 
L 87.279957 285.046283 
L 87.600129 284.17614 
L 88.880818 284.17614 
L 89.521162 283.305997 
L 90.80185 283.305997 
L 91.122023 282.870925 
L 91.442195 282.000782 
L 92.402711 282.000782 
L 92.722883 281.130639 
L 93.6834 281.130639 
L 94.003572 280.260496 
L 94.323744 279.825425 
L 94.643916 279.825425 
L 94.964088 278.955282 
L 95.28426 278.52021 
L 95.604432 278.52021 
L 96.244777 277.650067 
L 97.525465 277.650067 
L 97.845637 277.214995 
L 98.16581 276.344852 
L 98.485982 276.344852 
L 98.806154 275.909781 
L 99.76667 275.909781 
L 100.086842 275.474709 
L 100.727187 275.474709 
L 101.367531 274.604566 
L 101.687703 274.604566 
L 102.007875 274.169495 
L 102.328047 274.169495 
L 102.648219 273.734423 
L 102.968392 273.734423 
L 103.288564 273.299352 
L 103.928908 273.299352 
L 104.24908 272.86428 
L 104.569252 272.86428 
L 104.889424 272.429208 
L 105.209597 272.429208 
L 105.529769 271.994137 
L 105.849941 271.994137 
L 106.170113 271.559065 
L 106.490285 271.559065 
L 106.810457 271.123994 
L 107.130629 271.123994 
L 107.450802 270.688922 
L 108.091146 270.688922 
L 108.411318 269.818779 
L 109.051662 269.818779 
L 109.371834 269.383708 
L 109.692006 269.383708 
L 110.012179 268.948636 
L 110.332351 268.078493 
L 110.652523 267.643422 
L 110.972695 267.643422 
L 111.292867 267.20835 
L 111.613039 266.338207 
L 112.893728 266.338207 
L 113.2139 265.903135 
L 114.174416 265.903135 
L 114.494588 265.032992 
L 114.814761 265.032992 
L 115.134933 264.597921 
L 115.775277 264.597921 
L 116.095449 264.162849 
L 116.415621 264.162849 
L 117.055966 263.292706 
L 117.376138 263.292706 
L 117.69631 262.422563 
L 118.016482 261.987492 
L 118.336654 261.987492 
L 118.656826 261.55242 
L 118.976998 261.55242 
L 119.937515 260.247205 
L 120.257687 260.247205 
L 120.577859 259.812134 
L 121.218203 259.812134 
L 121.538375 259.377062 
L 121.858548 259.377062 
L 122.819064 258.071848 
L 124.099753 258.071848 
L 124.419925 257.201705 
L 124.740097 257.201705 
L 125.060269 256.766633 
L 125.700613 256.766633 
L 126.020785 256.331562 
L 126.981302 256.331562 
L 127.301474 255.89649 
L 127.621646 255.89649 
L 127.941818 255.461419 
L 129.222507 255.461419 
L 129.542679 255.026347 
L 130.823367 255.026347 
L 131.14354 254.591275 
L 131.463712 254.591275 
L 131.783884 254.156204 
L 132.104056 254.156204 
L 132.424228 253.721132 
L 133.064572 253.721132 
L 133.384744 252.850989 
L 133.704917 252.850989 
L 134.025089 252.415918 
L 134.345261 252.415918 
L 134.665433 251.980846 
L 134.985605 251.980846 
L 135.625949 251.110703 
L 135.946122 251.110703 
L 136.266294 250.675632 
L 136.906638 250.675632 
L 137.22681 250.24056 
L 137.546982 250.24056 
L 137.867154 249.805489 
L 138.187327 249.805489 
L 138.507499 249.370417 
L 139.468015 249.370417 
L 139.788187 248.935345 
L 140.108359 248.935345 
L 140.748704 248.065202 
L 141.389048 248.065202 
L 141.70922 247.630131 
L 142.029392 247.630131 
L 142.349564 247.195059 
L 142.989909 247.195059 
L 143.630253 246.324916 
L 143.950425 246.324916 
L 144.270597 245.889845 
L 144.590769 244.149559 
L 144.910941 244.149559 
L 145.231114 243.279415 
L 145.551286 242.844344 
L 146.19163 242.844344 
L 146.511802 242.409272 
L 146.831974 242.409272 
L 147.152146 241.974201 
L 147.792491 241.974201 
L 148.112663 241.539129 
L 148.432835 241.539129 
L 148.753007 240.668986 
L 149.073179 240.233915 
L 149.393351 240.233915 
L 149.713523 239.798843 
L 150.033696 239.798843 
L 150.353868 238.493629 
L 150.67404 238.493629 
L 150.994212 238.058557 
L 151.634556 238.058557 
L 152.2749 237.188414 
L 152.595073 237.188414 
L 152.915245 236.753342 
L 153.875761 236.753342 
L 154.195933 236.318271 
L 156.116966 236.318271 
L 157.077483 235.013056 
L 157.717827 235.013056 
L 158.037999 234.577985 
L 158.998515 234.577985 
L 159.318687 233.707842 
L 160.599376 233.707842 
L 160.919548 233.27277 
L 161.559892 233.27277 
L 161.880065 232.837699 
L 162.520409 232.837699 
L 162.840581 232.402627 
L 163.160753 232.402627 
L 163.480925 231.967555 
L 164.441442 231.967555 
L 164.761614 230.662341 
L 165.081786 230.227269 
L 166.042302 230.227269 
L 167.002819 228.922055 
L 167.643163 228.922055 
L 167.963335 228.486983 
L 168.283507 228.486983 
L 168.603679 228.051912 
L 168.923852 228.051912 
L 170.20454 226.311625 
L 170.844884 226.311625 
L 171.485229 225.441482 
L 172.125573 225.441482 
L 172.445745 225.006411 
L 172.765917 225.006411 
L 173.086089 224.571339 
L 173.406261 224.571339 
L 173.726434 224.136268 
L 174.68695 224.136268 
L 175.327294 223.266125 
L 177.248327 223.266125 
L 177.568499 222.831053 
L 177.888671 222.831053 
L 178.208843 222.395982 
L 178.849188 222.395982 
L 179.16936 221.96091 
L 179.489532 221.96091 
L 180.770221 220.220624 
L 181.410565 220.220624 
L 181.730737 219.785552 
L 182.050909 219.785552 
L 182.371081 219.350481 
L 182.691253 219.350481 
L 183.011425 218.915409 
L 183.65177 218.915409 
L 183.971942 218.045266 
L 184.292114 218.045266 
L 184.612286 217.610195 
L 184.932458 217.610195 
L 185.25263 217.175123 
L 185.572803 217.175123 
L 185.892975 216.740052 
L 186.213147 216.740052 
L 186.533319 216.30498 
L 186.853491 216.30498 
L 187.173663 215.869909 
L 187.493835 215.869909 
L 187.814008 215.434837 
L 188.13418 215.434837 
L 188.454352 214.999765 
L 188.774524 214.999765 
L 189.094696 214.564694 
L 190.375385 214.564694 
L 190.695557 213.694551 
L 191.335901 213.694551 
L 191.656073 213.259479 
L 192.936762 213.259479 
L 193.577106 212.389336 
L 194.21745 212.389336 
L 194.857795 211.519193 
L 195.177967 211.519193 
L 195.498139 211.084122 
L 196.458655 211.084122 
L 196.778827 210.64905 
L 197.419172 210.64905 
L 197.739344 210.213979 
L 198.059516 210.213979 
L 198.379688 209.778907 
L 199.340204 209.778907 
L 199.660377 209.343836 
L 199.980549 209.343836 
L 200.620893 208.473692 
L 200.941065 208.473692 
L 201.261237 207.603549 
L 201.581409 207.168478 
L 201.901581 207.168478 
L 202.221754 206.298335 
L 203.502442 206.298335 
L 204.142786 205.428192 
L 204.783131 205.428192 
L 205.103303 204.99312 
L 205.423475 204.99312 
L 205.743647 204.558049 
L 206.063819 204.558049 
L 206.383991 204.122977 
L 206.704164 204.122977 
L 207.024336 203.252834 
L 207.344508 203.252834 
L 207.66468 202.817762 
L 207.984852 202.817762 
L 208.305024 202.382691 
L 208.625196 202.382691 
L 208.945368 201.947619 
L 210.546229 201.947619 
L 210.866401 201.512548 
L 211.186573 201.512548 
L 211.506746 201.077476 
L 212.14709 201.077476 
L 212.467262 200.642405 
L 213.747951 200.642405 
L 214.068123 200.207333 
L 214.388295 200.207333 
L 214.708467 199.772262 
L 215.348811 199.772262 
L 216.309328 198.467047 
L 216.949672 198.467047 
L 217.269844 198.031976 
L 217.590016 198.031976 
L 217.910188 197.596904 
L 218.23036 197.596904 
L 218.550533 197.161832 
L 219.831221 197.161832 
L 220.151393 196.726761 
L 220.471565 196.726761 
L 220.791737 196.291689 
L 221.752254 196.291689 
L 222.072426 195.421546 
L 222.71277 195.421546 
L 223.032942 194.551403 
L 223.353115 194.116332 
L 223.673287 194.116332 
L 224.313631 193.246189 
L 224.953975 193.246189 
L 225.274147 192.811117 
L 225.914492 192.811117 
L 226.875008 191.505902 
L 227.19518 191.505902 
L 227.515352 191.070831 
L 228.155697 191.070831 
L 228.475869 190.635759 
L 229.436385 190.635759 
L 229.756557 190.200688 
L 230.396902 190.200688 
L 230.717074 189.765616 
L 231.997762 189.765616 
L 232.638107 188.895473 
L 233.278451 188.895473 
L 233.598623 188.460402 
L 234.238967 188.460402 
L 234.559139 188.02533 
L 234.879311 188.02533 
L 235.199484 187.590259 
L 235.839828 187.590259 
L 236.16 187.155187 
L 236.480172 187.155187 
L 236.800344 186.720116 
L 237.440689 186.720116 
L 238.081033 185.849972 
L 238.401205 185.849972 
L 238.721377 184.979829 
L 239.041549 184.979829 
L 239.361721 184.109686 
L 240.002066 183.239543 
L 240.322238 183.239543 
L 240.64241 182.804472 
L 241.602926 182.804472 
L 241.923098 181.934329 
L 242.243271 181.499257 
L 242.563443 180.629114 
L 242.883615 180.629114 
L 243.203787 180.194042 
L 243.523959 180.194042 
L 243.844131 179.758971 
L 244.804648 179.758971 
L 245.444992 178.888828 
L 246.405508 178.888828 
L 246.72568 178.453756 
L 247.366025 178.453756 
L 247.686197 178.018685 
L 248.646713 178.018685 
L 248.966885 177.583613 
L 249.927402 177.583613 
L 250.247574 177.148542 
L 250.887918 177.148542 
L 251.528263 176.278399 
L 251.848435 175.408256 
L 252.488779 175.408256 
L 252.808951 174.973184 
L 253.449295 174.973184 
L 254.08964 174.103041 
L 254.409812 174.103041 
L 255.050156 172.362755 
L 255.370328 171.927683 
L 255.6905 171.927683 
L 256.330845 171.05754 
L 257.291361 171.05754 
L 257.611533 170.187397 
L 258.572049 170.187397 
L 258.892222 169.752326 
L 259.212394 169.752326 
L 259.532566 169.317254 
L 261.133427 169.317254 
L 261.453599 168.882182 
L 261.773771 168.882182 
L 262.093943 168.447111 
L 263.054459 168.447111 
L 263.374632 168.012039 
L 264.65532 168.012039 
L 264.975492 167.576968 
L 265.295664 167.576968 
L 265.615836 167.141896 
L 265.936009 166.271753 
L 266.896525 166.271753 
L 268.817558 163.661324 
L 269.457902 163.661324 
L 269.778074 163.226252 
L 270.418419 163.226252 
L 270.738591 162.791181 
L 271.699107 162.791181 
L 272.019279 162.356109 
L 272.659623 162.356109 
L 272.979796 161.921038 
L 273.299968 161.921038 
L 273.62014 161.485966 
L 274.260484 161.485966 
L 274.580656 161.050895 
L 275.221001 161.050895 
L 275.541173 160.615823 
L 276.501689 160.615823 
L 276.821861 159.74568 
L 277.142033 159.74568 
L 277.462205 159.310609 
L 278.10255 159.310609 
L 278.422722 158.440466 
L 278.742894 158.005394 
L 279.383238 158.005394 
L 280.023583 157.135251 
L 280.663927 157.135251 
L 280.984099 156.700179 
L 281.624443 156.700179 
L 281.944615 155.830036 
L 282.905132 155.830036 
L 283.225304 155.394965 
L 284.826165 155.394965 
L 285.146337 154.959893 
L 285.466509 154.959893 
L 286.106853 154.08975 
L 287.06737 154.08975 
L 287.387542 153.219607 
L 287.707714 153.219607 
L 288.027886 152.784536 
L 288.348058 152.784536 
L 288.66823 152.349464 
L 289.308575 152.349464 
L 289.628747 151.914393 
L 290.269091 151.914393 
L 290.589263 150.609178 
L 291.229607 150.609178 
L 291.549779 150.174106 
L 291.869952 150.174106 
L 292.190124 149.739035 
L 293.15064 149.739035 
L 293.790984 148.868892 
L 294.751501 148.868892 
L 295.071673 148.43382 
L 295.391845 148.43382 
L 295.712017 147.998749 
L 296.032189 147.998749 
L 296.352361 147.563677 
L 297.63305 147.563677 
L 297.953222 147.128606 
L 298.593566 147.128606 
L 298.913739 146.693534 
L 299.233911 146.693534 
L 299.554083 146.258463 
L 299.874255 144.953248 
L 300.194427 144.518176 
L 301.475116 144.518176 
L 301.795288 144.083105 
L 302.435632 144.083105 
L 302.755804 143.212962 
L 303.075976 142.77789 
L 303.396148 142.77789 
L 304.036493 141.907747 
L 304.997009 141.907747 
L 305.317181 141.472676 
L 306.59787 141.472676 
L 306.918042 140.167461 
L 307.238214 140.167461 
L 307.558386 139.732389 
L 308.198731 139.732389 
L 308.518903 139.297318 
L 308.839075 139.297318 
L 309.159247 138.427175 
L 310.119763 138.427175 
L 310.439935 137.992103 
L 310.760108 137.992103 
L 311.08028 137.557032 
L 311.400452 137.557032 
L 311.720624 137.12196 
L 312.040796 137.12196 
L 312.360968 136.686889 
L 313.001313 136.686889 
L 313.641657 135.816746 
L 313.961829 135.816746 
L 314.602173 134.946603 
L 315.242517 134.946603 
L 315.882862 134.076459 
L 318.124067 134.076459 
L 318.444239 133.641388 
L 318.764411 133.641388 
L 319.404755 132.771245 
L 319.724927 131.901102 
L 320.0451 131.901102 
L 320.685444 131.030959 
L 321.005616 131.030959 
L 321.64596 130.160816 
L 322.286304 130.160816 
L 322.606477 129.725744 
L 323.566993 129.725744 
L 323.887165 129.290673 
L 324.527509 129.290673 
L 324.847682 128.420529 
L 325.167854 128.420529 
L 325.808198 127.550386 
L 326.12837 126.680243 
L 326.768714 126.680243 
L 327.088886 126.245172 
L 328.049403 126.245172 
L 328.369575 125.8101 
L 328.689747 125.8101 
L 329.330091 124.939957 
L 329.650264 124.939957 
L 329.970436 124.504886 
L 330.290608 124.504886 
L 330.61078 124.069814 
L 331.251124 124.069814 
L 331.571296 123.634743 
L 332.531813 123.634743 
L 332.851985 123.199671 
L 333.172157 123.199671 
L 333.812501 122.329528 
L 334.132673 122.329528 
L 334.452846 121.894456 
L 335.09319 121.894456 
L 335.413362 121.459385 
L 335.733534 121.459385 
L 336.373878 120.589242 
L 337.334395 120.589242 
L 337.654567 120.15417 
L 338.294911 120.15417 
L 338.935256 119.284027 
L 339.5756 119.284027 
L 340.215944 118.413884 
L 341.17646 118.413884 
L 341.816805 117.543741 
L 344.05801 117.543741 
L 344.378182 117.108669 
L 345.018526 117.108669 
L 345.338698 116.673598 
L 345.979042 116.673598 
L 346.299215 116.238526 
L 346.619387 116.238526 
L 346.939559 115.803455 
L 347.259731 115.803455 
L 347.900075 114.933312 
L 348.220247 114.933312 
L 348.54042 114.49824 
L 349.821108 114.49824 
L 350.14128 113.628097 
L 350.461452 113.628097 
L 351.101797 112.757954 
L 352.382485 112.757954 
L 352.702657 111.452739 
L 353.983346 111.452739 
L 354.943862 110.147525 
L 355.584207 110.147525 
L 355.904379 109.712453 
L 356.224551 109.712453 
L 357.505239 107.972167 
L 359.1061 107.972167 
L 359.426272 107.537096 
L 359.746444 107.537096 
L 360.386789 106.666953 
L 361.347305 106.666953 
L 361.667477 106.231881 
L 362.948166 106.231881 
L 363.58851 105.361738 
L 363.908682 105.361738 
L 364.549026 104.491595 
L 364.869198 103.621452 
L 365.509543 103.621452 
L 366.149887 102.751309 
L 366.470059 101.881166 
L 366.790231 101.446094 
L 368.391092 101.446094 
L 368.711264 101.011023 
L 369.031436 101.011023 
L 369.351608 100.575951 
L 369.671781 100.575951 
L 369.991953 100.14088 
L 370.312125 100.14088 
L 371.592813 98.400593 
L 371.912985 98.400593 
L 372.233158 97.965522 
L 372.55333 97.965522 
L 373.193674 97.095379 
L 373.834018 97.095379 
L 374.15419 96.660307 
L 374.474363 96.660307 
L 375.114707 95.790164 
L 375.434879 95.790164 
L 375.755051 95.355093 
L 376.395395 95.355093 
L 376.715568 94.920021 
L 377.03574 94.920021 
L 377.355912 94.48495 
L 378.316428 94.48495 
L 378.6366 94.049878 
L 378.956772 92.309592 
L 379.597117 92.309592 
L 379.917289 91.87452 
L 380.237461 91.004377 
L 380.877805 91.004377 
L 381.197977 89.699163 
L 382.158494 88.393948 
L 382.798838 88.393948 
L 383.11901 87.958876 
L 383.759354 87.958876 
L 384.079527 87.523805 
L 384.719871 87.523805 
L 385.360215 86.653662 
L 386.000559 86.653662 
L 386.640904 85.783519 
L 386.961076 85.783519 
L 387.60142 84.913376 
L 388.561937 84.913376 
L 388.882109 84.478304 
L 389.202281 84.478304 
L 389.522453 84.043233 
L 390.482969 84.043233 
L 390.803141 83.608161 
L 391.123314 83.608161 
L 391.443486 82.738018 
L 391.763658 82.302946 
L 392.08383 82.302946 
L 392.404002 81.867875 
L 392.724174 81.867875 
L 393.044346 81.432803 
L 393.364519 81.432803 
L 393.684691 80.56266 
L 394.004863 80.56266 
L 394.645207 79.692517 
L 394.965379 79.692517 
L 395.285551 79.257446 
L 395.925896 79.257446 
L 396.246068 78.822374 
L 397.526756 78.822374 
L 397.846928 78.387303 
L 398.487273 78.387303 
L 398.487273 78.387303 
" clip-path="url(#pc5b4806e49)" style="fill: none; stroke: #32cd32; stroke-linecap: square"/>
   </g>
   <g id="line2d_14">
    <path d="M 73.832727 271.591726 
L 74.152899 270.667712 
L 74.473072 274.00563 
L 74.793244 282.297579 
L 75.113416 277.781381 
L 75.433588 278.540006 
L 75.75376 273.707258 
L 76.073932 275.374126 
L 76.394104 268.001299 
L 76.714276 267.189443 
L 77.034449 281.928767 
L 77.354621 284.14522 
L 77.674793 270.410756 
L 77.994965 273.03376 
L 78.315137 279.110464 
L 78.635309 268.378132 
L 78.955481 273.851523 
L 79.275654 265.860619 
L 79.595826 265.63904 
L 79.915998 283.535656 
L 80.23617 266.436882 
L 80.556342 274.312386 
L 80.876514 276.130425 
L 81.196686 267.710032 
L 81.516859 262.74225 
L 81.837031 266.286765 
L 82.157203 265.11476 
L 82.797547 267.465346 
L 83.117719 266.888513 
L 83.758063 270.688922 
L 84.078236 270.245797 
L 84.398408 275.726091 
L 84.71858 270.772902 
L 85.038752 271.738736 
L 85.358924 265.133253 
L 85.679096 267.636172 
L 85.999268 267.145342 
L 86.319441 277.214995 
L 86.959785 256.335827 
L 87.279957 271.994137 
L 87.600129 271.796778 
L 87.920301 271.994137 
L 88.240473 260.37822 
L 88.560646 263.823277 
L 88.880818 264.854229 
L 89.20099 256.541084 
L 89.521162 270.31212 
L 89.841334 264.073153 
L 90.161506 264.833268 
L 90.481678 271.123994 
L 90.80185 269.082723 
L 91.122023 271.480605 
L 91.442195 271.757456 
L 91.762367 264.179595 
L 92.082539 264.129432 
L 92.402711 260.881966 
L 92.722883 267.949251 
L 93.363228 255.650221 
L 93.6834 259.154931 
L 94.003572 256.104629 
L 94.323744 262.422563 
L 94.643916 263.058984 
L 94.964088 268.92155 
L 95.924605 252.077769 
L 96.244777 263.28063 
L 96.885121 264.849303 
L 97.205293 260.422649 
L 97.525465 268.477557 
L 98.16581 263.484042 
L 98.485982 254.591275 
L 98.806154 258.638233 
L 99.126326 256.346072 
L 99.446498 257.548482 
L 99.76667 254.187312 
L 100.086842 264.084389 
L 100.407015 259.171619 
L 100.727187 258.506919 
L 101.047359 259.932613 
L 101.367531 247.445825 
L 102.007875 264.135763 
L 102.328047 256.731883 
L 102.648219 260.581538 
L 102.968392 262.502332 
L 103.288564 256.75718 
L 103.608736 261.699516 
L 103.928908 261.10064 
L 104.24908 255.426668 
L 104.569252 262.620954 
L 104.889424 253.278562 
L 105.529769 259.614775 
L 105.849941 259.812134 
L 106.170113 251.378398 
L 106.490285 256.720962 
L 106.810457 257.582603 
L 107.450802 250.542956 
L 107.770974 248.910504 
L 108.091146 256.961134 
L 108.411318 248.751941 
L 108.73149 256.413621 
L 109.051662 250.379068 
L 109.371834 253.286061 
L 109.692006 257.564761 
L 110.012179 241.753231 
L 110.332351 239.075595 
L 110.652523 248.904308 
L 111.292867 255.876755 
L 111.933211 245.090249 
L 112.253384 256.674788 
L 112.573556 252.5711 
L 112.893728 254.947886 
L 113.2139 241.036849 
L 113.534072 246.820141 
L 113.854244 244.050436 
L 114.174416 254.57154 
L 114.494588 250.809718 
L 114.814761 244.91485 
L 115.134933 245.820122 
L 115.455105 240.668986 
L 115.775277 243.453185 
L 116.095449 256.663927 
L 116.415621 240.579974 
L 116.735793 244.354196 
L 117.055966 252.850989 
L 117.376138 244.399576 
L 117.69631 242.360241 
L 118.016482 250.222463 
L 118.336654 236.150907 
L 118.656826 237.359014 
L 118.976998 246.057117 
L 119.297171 239.338931 
L 119.617343 239.752773 
L 119.937515 239.469634 
L 120.257687 249.348718 
L 120.577859 234.945847 
L 120.898031 237.910113 
L 121.218203 238.512835 
L 121.538375 240.055151 
L 121.858548 249.713644 
L 122.17872 237.95347 
L 122.498892 241.93644 
L 122.819064 233.92672 
L 123.139236 241.231734 
L 123.459408 238.898731 
L 123.77958 233.691931 
L 124.099753 244.516979 
L 124.419925 239.557872 
L 124.740097 243.473916 
L 125.060269 241.528259 
L 125.380441 238.293904 
L 125.700613 239.468695 
L 126.020785 239.960943 
L 126.340958 236.459354 
L 126.66113 234.355854 
L 126.981302 247.58705 
L 127.301474 231.14928 
L 127.621646 244.506169 
L 128.26199 236.476793 
L 128.582162 242.467542 
L 128.902335 237.980524 
L 129.222507 244.628357 
L 129.542679 243.243285 
L 129.862851 236.809877 
L 130.183023 236.310504 
L 130.503195 234.742104 
L 130.823367 246.759988 
L 131.14354 230.548507 
L 131.463712 244.667185 
L 131.783884 241.570286 
L 132.104056 245.836285 
L 132.424228 241.34177 
L 132.7444 234.668323 
L 133.064572 236.449585 
L 133.384744 239.857113 
L 133.704917 238.150664 
L 134.025089 228.961145 
L 134.345261 235.883199 
L 134.665433 233.484375 
L 134.985605 239.271245 
L 135.305777 230.794792 
L 135.625949 228.819664 
L 135.946122 233.27277 
L 136.266294 233.194737 
L 136.586466 239.84257 
L 136.906638 230.494965 
L 137.22681 240.795938 
L 137.546982 235.968258 
L 137.867154 234.910647 
L 138.187327 227.323497 
L 138.507499 228.83396 
L 138.827671 226.169124 
L 139.147843 233.30248 
L 139.468015 232.696819 
L 139.788187 229.495634 
L 140.108359 233.440043 
L 140.428531 224.83437 
L 141.068876 238.03147 
L 141.389048 228.65484 
L 141.70922 229.324943 
L 142.029392 230.86369 
L 142.349564 225.774536 
L 142.669736 237.35558 
L 142.989909 225.895761 
L 143.310081 228.714785 
L 143.630253 229.877686 
L 143.950425 229.754437 
L 144.270597 231.37692 
L 144.590769 224.939079 
L 145.231114 223.245089 
L 145.551286 227.23371 
L 145.871458 224.563285 
L 146.511802 230.311565 
L 146.831974 222.823804 
L 147.152146 219.731263 
L 147.472318 223.446145 
L 147.792491 225.507909 
L 148.112663 216.791919 
L 148.432835 228.968849 
L 148.753007 217.992439 
L 149.073179 226.01064 
L 149.393351 222.61565 
L 149.713523 225.429406 
L 150.033696 220.062061 
L 150.353868 216.740052 
L 150.67404 220.655695 
L 150.994212 218.101522 
L 151.314384 212.448756 
L 151.634556 223.934286 
L 151.954728 226.17514 
L 152.2749 216.141115 
L 152.595073 221.735419 
L 152.915245 214.974925 
L 153.235417 224.571339 
L 153.555589 224.845732 
L 153.875761 215.706044 
L 154.516105 225.781036 
L 155.15645 215.842743 
L 155.476622 222.616814 
L 155.796794 218.915409 
L 156.116966 226.204506 
L 156.437138 210.770862 
L 156.75731 221.411555 
L 157.077483 227.514134 
L 157.397655 216.351684 
L 157.717827 223.248028 
L 158.037999 217.710379 
L 158.358171 227.079062 
L 158.678343 225.405475 
L 158.998515 212.874212 
L 159.318687 215.402654 
L 159.63886 219.007516 
L 159.959032 214.899182 
L 160.279204 214.92232 
L 160.599376 210.438579 
L 160.919548 211.297062 
L 161.23972 208.972547 
L 161.559892 212.343266 
L 161.880065 221.506103 
L 162.200237 214.924714 
L 162.520409 216.295526 
L 162.840581 218.63552 
L 163.160753 208.886467 
L 163.480925 220.130757 
L 163.801097 213.120429 
L 164.121269 214.696008 
L 164.441442 210.591579 
L 164.761614 200.962837 
L 165.081786 215.991709 
L 165.72213 206.895942 
L 166.042302 215.857833 
L 166.362474 214.212872 
L 166.682647 210.82907 
L 167.002819 204.857687 
L 167.643163 221.423132 
L 167.963335 204.059421 
L 168.283507 211.916504 
L 168.603679 209.642729 
L 168.923852 205.148414 
L 169.244024 215.639336 
L 169.884368 197.743799 
L 170.20454 207.720649 
L 170.524712 201.465992 
L 170.844884 211.657745 
L 171.165056 201.254434 
L 171.485229 206.245935 
L 171.805401 204.663911 
L 172.125573 211.40491 
L 172.445745 213.406575 
L 172.765917 205.391986 
L 173.086089 213.181019 
L 173.406261 206.953075 
L 173.726434 206.025521 
L 174.046606 208.391194 
L 174.68695 204.630763 
L 175.007122 199.068619 
L 175.327294 206.809359 
L 175.647466 195.523901 
L 175.967639 205.245597 
L 176.287811 211.501097 
L 176.928155 196.722032 
L 177.248327 211.934529 
L 177.568499 202.47819 
L 177.888671 201.52535 
L 178.208843 204.114923 
L 178.529016 204.195714 
L 178.849188 207.592108 
L 179.16936 206.185089 
L 179.489532 195.139787 
L 180.129876 207.168478 
L 180.450048 204.78824 
L 180.770221 200.383921 
L 181.090393 207.270797 
L 181.410565 203.216641 
L 181.730737 207.106639 
L 182.050909 209.248318 
L 182.371081 199.888801 
L 182.691253 198.922528 
L 183.011425 201.477798 
L 183.331598 202.449118 
L 183.65177 206.16006 
L 183.971942 202.763547 
L 184.292114 193.298056 
L 184.932458 201.143903 
L 185.25263 206.169714 
L 185.572803 196.108285 
L 185.892975 196.394035 
L 186.213147 198.868701 
L 186.533319 193.211876 
L 186.853491 203.152095 
L 187.173663 193.334622 
L 187.493835 194.392306 
L 188.13418 202.802244 
L 188.454352 197.321934 
L 188.774524 202.199001 
L 189.094696 189.569847 
L 189.414868 200.642405 
L 189.73504 194.502371 
L 190.055212 203.753663 
L 190.375385 190.441066 
L 190.695557 187.326163 
L 191.015729 194.619096 
L 191.335901 186.929466 
L 191.656073 198.421376 
L 191.976245 199.718089 
L 192.296417 198.021106 
L 192.61659 201.077476 
L 192.936762 193.565752 
L 193.256934 193.839782 
L 193.577106 190.444289 
L 193.897278 189.188043 
L 194.21745 193.988121 
L 194.537622 192.901455 
L 194.857795 193.606208 
L 195.177967 200.032541 
L 195.498139 191.933475 
L 195.818311 201.077476 
L 196.138483 200.642405 
L 196.778827 198.619709 
L 197.098999 195.196055 
L 197.419172 196.688471 
L 197.739344 185.327062 
L 198.059516 190.434281 
L 198.379688 191.156593 
L 198.69986 192.874759 
L 199.020032 190.02065 
L 199.340204 191.417609 
L 199.660377 196.90015 
L 199.980549 199.772262 
L 200.300721 193.413461 
L 200.620893 197.820168 
L 200.941065 189.263213 
L 201.261237 189.258255 
L 201.581409 198.467047 
L 201.901581 198.105524 
L 202.221754 194.116332 
L 202.541926 185.849972 
L 203.18227 192.531228 
L 203.502442 179.384158 
L 203.822614 184.140795 
L 204.142786 193.398851 
L 204.462959 195.856618 
L 204.783131 191.303921 
L 205.103303 190.292795 
L 205.423475 192.811117 
L 205.743647 193.071397 
L 206.063819 192.721251 
L 206.383991 191.17315 
L 206.704164 186.833829 
L 207.024336 187.334857 
L 207.344508 185.406537 
L 207.66468 191.427442 
L 207.984852 180.478769 
L 208.305024 179.706144 
L 208.625196 187.499167 
L 208.945368 183.642431 
L 209.265541 183.586321 
L 209.585713 185.181178 
L 209.905885 189.238018 
L 210.866401 178.888828 
L 211.186573 177.233637 
L 211.506746 183.206126 
L 211.826918 181.036146 
L 212.14709 180.622318 
L 212.467262 189.252084 
L 212.787434 185.747564 
L 213.107606 177.965857 
L 213.427778 191.469895 
L 213.747951 182.964573 
L 214.068123 177.707557 
L 214.388295 177.844417 
L 214.708467 180.719452 
L 215.028639 179.215553 
L 215.348811 185.402825 
L 215.668983 179.408371 
L 215.989155 185.360728 
L 216.309328 183.942281 
L 216.6295 190.147128 
L 216.949672 185.896767 
L 217.269844 185.171165 
L 217.590016 179.386212 
L 217.910188 177.223522 
L 218.23036 176.348946 
L 218.550533 183.226758 
L 218.870705 184.406483 
L 219.190877 179.315536 
L 219.511049 185.561997 
L 219.831221 177.966285 
L 220.151393 176.156568 
L 220.471565 181.242017 
L 220.791737 183.961038 
L 221.11191 182.382207 
L 221.432082 179.608769 
L 221.752254 174.371214 
L 222.072426 185.582067 
L 222.392598 178.71071 
L 222.71277 175.778229 
L 223.032942 185.806892 
L 223.353115 177.65004 
L 223.673287 182.965385 
L 223.993459 178.35641 
L 224.313631 179.121918 
L 224.633803 178.545863 
L 224.953975 181.047477 
L 225.274147 177.572743 
L 225.59432 176.363886 
L 225.914492 170.13457 
L 226.234664 170.747286 
L 226.554836 175.686406 
L 226.875008 164.698775 
L 227.19518 169.402081 
L 227.515352 177.889443 
L 227.835524 169.348362 
L 228.155697 164.282378 
L 228.475869 171.462642 
L 228.796041 175.310909 
L 229.116213 166.898221 
L 229.436385 181.934329 
L 230.076729 168.397469 
L 230.396902 170.159357 
L 230.717074 168.653287 
L 231.037246 178.375296 
L 231.357418 167.474577 
L 231.67759 177.858006 
L 231.997762 170.987817 
L 232.317934 177.547482 
L 233.278451 171.457862 
L 233.598623 177.070081 
L 233.918795 171.740277 
L 234.238967 163.045007 
L 234.559139 172.743611 
L 234.879311 176.635009 
L 235.199484 167.66144 
L 235.519656 176.757197 
L 236.480172 161.94635 
L 236.800344 165.830091 
L 237.120516 172.683543 
L 237.440689 168.004273 
L 237.760861 167.66273 
L 238.081033 177.755227 
L 238.401205 163.727935 
L 238.721377 166.318458 
L 239.041549 161.43584 
L 239.361721 170.568295 
L 240.64241 158.424555 
L 240.962582 166.866362 
L 241.282754 162.451609 
L 241.602926 172.77074 
L 241.923098 163.799099 
L 242.243271 171.465525 
L 242.563443 165.700414 
L 242.883615 156.629623 
L 243.203787 162.791181 
L 243.523959 161.634485 
L 243.844131 167.85136 
L 244.164303 166.097194 
L 244.484476 158.382994 
L 244.804648 162.638214 
L 245.12482 158.572916 
L 245.444992 168.077797 
L 245.765164 155.439646 
L 246.085336 156.107141 
L 246.405508 165.40161 
L 246.72568 165.048598 
L 247.045853 156.156715 
L 247.366025 158.30779 
L 247.686197 157.321029 
L 248.006369 163.364805 
L 248.326541 162.314768 
L 248.646713 158.433216 
L 248.966885 164.042222 
L 249.287058 165.554272 
L 249.60723 167.98112 
L 249.927402 154.813575 
L 250.247574 161.475613 
L 250.567746 164.899996 
L 250.887918 154.066868 
L 251.20809 157.070153 
L 251.528263 153.014789 
L 251.848435 159.153687 
L 252.168607 153.117217 
L 252.488779 155.649998 
L 253.129123 153.854368 
L 253.449295 162.112374 
L 253.769467 153.787129 
L 254.08964 155.543484 
L 254.409812 155.387198 
L 254.729984 158.070901 
L 255.050156 148.363264 
L 255.370328 149.427907 
L 255.6905 158.426883 
L 256.010672 153.654679 
L 256.330845 158.959833 
L 256.651017 152.857273 
L 256.971189 154.989603 
L 257.291361 155.384612 
L 257.611533 146.604522 
L 257.931705 153.420956 
L 258.251877 154.079867 
L 258.572049 155.258697 
L 258.892222 144.513118 
L 259.212394 151.880975 
L 259.532566 151.231043 
L 259.852738 153.644326 
L 260.17291 157.534192 
L 260.493082 153.419453 
L 260.813254 153.83251 
L 261.133427 150.908072 
L 261.453599 150.042739 
L 261.773771 143.446757 
L 262.093943 148.384788 
L 262.414115 157.793587 
L 262.734287 150.914502 
L 263.054459 147.45859 
L 263.374632 158.348621 
L 264.014976 152.516737 
L 264.335148 150.393775 
L 264.65532 155.763494 
L 264.975492 150.174106 
L 265.295664 157.111154 
L 265.615836 151.034367 
L 265.936009 152.663229 
L 266.256181 142.126626 
L 266.576353 148.982605 
L 266.896525 152.260426 
L 267.216697 143.879363 
L 267.536869 154.070015 
L 267.857041 154.313015 
L 268.177214 146.519176 
L 268.497386 144.510927 
L 268.817558 146.978404 
L 269.13773 142.032565 
L 269.457902 148.926338 
L 269.778074 139.985277 
L 270.098246 152.393191 
L 270.418419 137.102633 
L 270.738591 142.438318 
L 271.058763 135.250657 
L 271.378935 154.471262 
L 272.019279 146.611036 
L 272.339451 143.455329 
L 272.659623 150.737655 
L 272.979796 149.165688 
L 273.299968 152.081559 
L 273.62014 152.741455 
L 274.260484 137.6388 
L 274.580656 137.730835 
L 274.900828 148.480615 
L 275.221001 152.306383 
L 275.541173 142.702838 
L 275.861345 140.106413 
L 276.181517 138.493786 
L 276.501689 138.116047 
L 276.821861 148.355359 
L 277.142033 143.355853 
L 277.462205 146.678016 
L 277.782378 140.594766 
L 278.10255 129.660166 
L 278.422722 136.3488 
L 278.742894 147.787617 
L 279.063066 139.17364 
L 279.383238 139.17364 
L 280.023583 146.598017 
L 280.343755 140.832161 
L 280.663927 145.90316 
L 280.984099 143.706303 
L 281.304271 148.228407 
L 281.624443 137.89152 
L 281.944615 142.880209 
L 282.264788 142.969226 
L 282.58496 148.868892 
L 282.905132 139.575468 
L 283.225304 137.259735 
L 283.545476 139.091875 
L 283.865648 132.131355 
L 284.18582 139.366786 
L 284.505992 130.85672 
L 284.826165 147.563677 
L 285.146337 144.329364 
L 285.466509 132.596977 
L 285.786681 130.144905 
L 286.106853 138.334416 
L 286.427025 140.936865 
L 286.747197 139.780881 
L 287.387542 140.464258 
L 287.707714 139.259028 
L 288.027886 138.561261 
L 288.348058 132.764229 
L 288.66823 135.555334 
L 288.988402 135.902233 
L 289.308575 133.948249 
L 289.628747 143.169881 
L 289.948919 137.544956 
L 290.589263 136.947401 
L 290.909435 130.850921 
L 291.549779 126.842779 
L 291.869952 128.868403 
L 292.190124 137.902237 
L 292.510296 125.974024 
L 292.830468 131.82605 
L 293.15064 129.202577 
L 293.470812 127.979061 
L 293.790984 132.565802 
L 294.111157 128.792593 
L 294.431329 128.285227 
L 294.751501 130.8566 
L 295.071673 139.962048 
L 295.391845 124.78449 
L 295.712017 136.091138 
L 296.032189 135.668097 
L 296.352361 123.537125 
L 296.672534 133.796571 
L 296.992706 130.769547 
L 297.312878 129.750872 
L 297.63305 127.376081 
L 297.953222 130.261 
L 298.273394 126.653078 
L 298.593566 127.933058 
L 298.913739 128.477064 
L 299.233911 134.076459 
L 299.554083 121.371546 
L 299.874255 120.525686 
L 300.194427 130.005252 
L 300.514599 126.116961 
L 300.834771 133.619688 
L 301.154944 131.717412 
L 301.475116 128.061411 
L 301.795288 132.634759 
L 302.11546 119.937977 
L 302.435632 130.760997 
L 302.755804 130.769276 
L 303.075976 115.250882 
L 303.396148 131.387569 
L 303.716321 131.444331 
L 304.036493 128.797847 
L 304.356665 118.044196 
L 304.676837 132.214305 
L 304.997009 130.307912 
L 305.317181 131.358911 
L 305.637353 121.778948 
L 305.957526 131.203976 
L 306.277698 120.425377 
L 306.59787 128.478799 
L 306.918042 130.327982 
L 307.238214 113.248642 
L 307.558386 131.41247 
L 307.878558 116.582256 
L 308.198731 119.041413 
L 308.518903 113.66769 
L 308.839075 125.569529 
L 309.159247 121.856695 
L 309.479419 122.651354 
L 309.799591 121.015615 
L 310.119763 111.531575 
L 310.439935 121.006201 
L 310.760108 119.206582 
L 311.08028 114.927434 
L 311.400452 129.185106 
L 311.720624 123.78594 
L 312.040796 128.420529 
L 312.360968 118.025517 
L 312.68114 121.792047 
L 313.001313 111.472986 
L 313.321485 119.274967 
L 313.641657 119.350454 
L 313.961829 107.689907 
L 314.282001 125.542195 
L 314.602173 109.391433 
L 314.922345 121.391734 
L 315.242517 118.376123 
L 315.56269 112.166554 
L 315.882862 121.894456 
L 316.203034 115.18333 
L 316.523206 113.345451 
L 316.843378 119.102825 
L 317.16355 112.66865 
L 317.483722 112.783569 
L 317.803895 119.528064 
L 318.124067 119.295484 
L 318.444239 112.265411 
L 318.764411 112.335684 
L 319.084583 120.024929 
L 319.404755 120.391883 
L 319.724927 117.097228 
L 320.0451 120.689165 
L 320.365272 116.847159 
L 320.685444 120.997227 
L 321.005616 111.701654 
L 321.325788 113.089105 
L 321.64596 117.166939 
L 321.966132 111.421702 
L 322.286304 109.787433 
L 322.606477 112.498326 
L 322.926649 106.845379 
L 323.246821 114.390144 
L 323.566993 111.064372 
L 323.887165 118.327723 
L 324.207337 115.317374 
L 324.527509 107.687001 
L 324.847682 108.915025 
L 325.167854 120.921607 
L 325.488026 101.861839 
L 326.12837 114.650902 
L 326.448542 118.778353 
L 326.768714 115.781755 
L 327.409059 108.004439 
L 327.729231 109.478731 
L 328.049403 102.573747 
L 328.369575 107.448802 
L 328.689747 106.636983 
L 329.009919 109.507574 
L 329.330091 111.2385 
L 329.650264 107.407348 
L 329.970436 113.874356 
L 330.290608 110.281611 
L 330.61078 102.649291 
L 330.930952 99.281098 
L 331.571296 112.566389 
L 331.891469 103.705924 
L 332.211641 102.857171 
L 332.531813 107.930825 
L 332.851985 100.135156 
L 333.172157 111.222167 
L 333.812501 104.996502 
L 334.132673 113.051821 
L 334.452846 100.51848 
L 334.773018 102.432777 
L 335.09319 108.713069 
L 335.413362 112.757954 
L 335.733534 106.934619 
L 336.053706 103.517531 
L 336.373878 111.277352 
L 336.694051 101.127562 
L 337.014223 96.093081 
L 337.334395 107.639414 
L 337.654567 101.25339 
L 337.974739 104.07632 
L 338.294911 98.326191 
L 338.615083 101.317884 
L 338.935256 94.464244 
L 339.255428 109.250295 
L 339.5756 106.666953 
L 339.895772 105.988145 
L 340.536116 97.722908 
L 341.17646 107.023563 
L 341.496633 103.005178 
L 341.816805 102.843416 
L 342.136977 104.00235 
L 342.457149 97.614922 
L 342.777321 104.83414 
L 343.097493 100.973262 
L 343.417665 110.044818 
L 343.737838 96.899613 
L 344.05801 107.275041 
L 344.378182 105.777074 
L 344.698354 106.83997 
L 345.018526 91.793751 
L 345.338698 95.278513 
L 345.65887 95.06365 
L 345.979042 106.136363 
L 346.299215 105.340038 
L 346.619387 104.848206 
L 346.939559 92.721781 
L 347.259731 96.29795 
L 347.900075 89.948717 
L 348.220247 106.613393 
L 348.54042 88.350489 
L 348.860592 91.821693 
L 349.500936 103.844716 
L 349.821108 99.949844 
L 350.14128 91.379138 
L 350.461452 95.037121 
L 350.781625 90.111351 
L 351.101797 97.054037 
L 351.421969 95.772052 
L 351.742141 104.856064 
L 352.062313 99.764078 
L 352.382485 100.509408 
L 352.702657 95.111005 
L 353.022829 93.31751 
L 353.343002 87.90875 
L 353.663174 102.708228 
L 353.983346 84.870859 
L 354.303518 103.876311 
L 354.62369 97.515964 
L 354.943862 94.392191 
L 355.264034 98.757204 
L 355.584207 95.778088 
L 355.904379 99.294982 
L 356.224551 92.844848 
L 356.544723 96.283505 
L 357.505239 83.271765 
L 357.825412 94.862267 
L 358.145584 96.353712 
L 358.465756 93.506784 
L 358.785928 85.996459 
L 359.1061 97.75439 
L 359.426272 87.778838 
L 359.746444 85.990024 
L 360.066616 89.289219 
L 360.386789 96.013428 
L 360.706961 95.455016 
L 361.027133 85.157733 
L 361.347305 94.901924 
L 361.667477 90.652556 
L 361.987649 93.064729 
L 362.307821 90.486807 
L 362.627994 94.466853 
L 362.948166 86.999037 
L 363.268338 82.893312 
L 363.58851 89.254208 
L 363.908682 78.912428 
L 364.549026 89.296783 
L 364.869198 92.389361 
L 365.189371 89.686377 
L 365.509543 92.1348 
L 365.829715 93.583887 
L 366.470059 82.708049 
L 366.790231 79.155055 
L 367.110403 88.393948 
L 367.430576 81.093231 
L 367.750748 78.565729 
L 368.07092 79.667676 
L 368.391092 86.47246 
L 368.711264 83.469818 
L 369.031436 78.762064 
L 369.351608 80.450847 
L 369.671781 79.168142 
L 369.991953 89.329849 
L 370.312125 89.264091 
L 370.632297 77.342892 
L 370.952469 85.865578 
L 371.272641 86.505014 
L 371.592813 87.523805 
L 371.912985 77.756466 
L 372.233158 80.424317 
L 372.55333 79.226409 
L 372.873502 79.617465 
L 373.193674 85.330351 
L 373.513846 75.687569 
L 373.834018 86.677908 
L 374.15419 77.045882 
L 374.474363 76.514341 
L 374.794535 83.546322 
L 375.114707 75.833129 
L 375.434879 73.986946 
L 376.075223 84.204146 
L 376.395395 78.243272 
L 376.715568 81.853389 
L 377.03574 83.01241 
L 377.355912 78.230381 
L 377.676084 76.179761 
L 377.996256 82.998298 
L 378.316428 75.925392 
L 378.6366 83.806552 
L 378.956772 73.500932 
L 379.276945 81.772357 
L 379.597117 69.539553 
L 379.917289 69.2273 
L 380.237461 66.019782 
L 380.557633 75.551383 
L 380.877805 69.375618 
L 381.197977 65.851996 
L 381.51815 63.65429 
L 381.838322 73.218386 
L 382.158494 74.433369 
L 382.478666 72.090858 
L 382.798838 79.692517 
L 383.11901 78.681169 
L 383.439182 71.275956 
L 383.759354 75.981373 
L 384.079527 71.057513 
L 384.399699 70.729675 
L 384.719871 76.19221 
L 385.040043 71.384816 
L 385.360215 69.980064 
L 385.680387 64.362623 
L 386.000559 66.096953 
L 386.320732 73.463241 
L 386.640904 72.503319 
L 386.961076 74.393198 
L 387.281248 71.33712 
L 387.921592 58.983892 
L 388.241764 70.604506 
L 388.561937 61.247472 
L 388.882109 72.296301 
L 389.202281 67.945586 
L 389.522453 68.267412 
L 389.842625 70.133751 
L 390.162797 76.901875 
L 390.803141 74.005668 
L 391.123314 65.497415 
L 391.443486 71.505927 
L 391.763658 61.847788 
L 392.08383 68.030645 
L 392.404002 54.851826 
L 392.724174 67.743604 
L 393.044346 57.021109 
L 393.364519 61.27989 
L 393.684691 58.265619 
L 394.325035 66.116262 
L 394.645207 59.001541 
L 394.965379 68.794029 
L 395.605724 58.802287 
L 395.925896 55.171506 
L 396.246068 59.559772 
L 396.56624 60.47708 
L 396.886412 53.568 
L 397.206584 57.93235 
L 397.526756 56.198654 
L 397.846928 67.510514 
L 398.167101 58.515095 
L 398.487273 61.940072 
L 398.487273 61.940072 
" clip-path="url(#pc5b4806e49)" style="fill: none; stroke-dasharray: 3.7,1.6; stroke-dashoffset: 0; stroke: #4169e1"/>
   </g>
   <g id="line2d_15">
    <path d="M 73.832727 271.591726 
L 74.152899 270.667712 
L 74.473072 274.00563 
L 74.793244 282.297579 
L 75.113416 277.781381 
L 75.433588 278.540006 
L 75.75376 273.707258 
L 76.073932 275.374126 
L 76.394104 268.001299 
L 76.714276 267.189443 
L 77.034449 281.928767 
L 77.354621 284.14522 
L 77.674793 270.410756 
L 77.994965 273.03376 
L 78.315137 279.110464 
L 78.635309 268.378132 
L 78.955481 273.851523 
L 79.275654 265.860619 
L 79.595826 265.63904 
L 79.915998 283.535656 
L 80.23617 266.436882 
L 80.556342 274.312386 
L 80.876514 276.130425 
L 81.196686 267.710032 
L 81.516859 262.74225 
L 81.837031 266.286765 
L 82.157203 265.11476 
L 82.797547 267.465346 
L 83.117719 266.888513 
L 83.758063 270.688922 
L 84.078236 270.245797 
L 84.398408 275.726091 
L 84.71858 270.772902 
L 85.038752 271.738736 
L 85.358924 265.133253 
L 85.679096 267.636172 
L 85.999268 267.145342 
L 86.319441 277.214995 
L 86.959785 256.335827 
L 87.279957 271.994137 
L 87.600129 271.796778 
L 87.920301 271.994137 
L 88.240473 260.37822 
L 88.560646 263.823277 
L 88.880818 264.854229 
L 89.20099 256.541084 
L 89.521162 270.31212 
L 89.841334 264.073153 
L 90.161506 264.833268 
L 90.481678 271.123994 
L 90.80185 269.082723 
L 91.122023 271.480605 
L 91.442195 271.757456 
L 91.762367 264.179595 
L 92.082539 264.129432 
L 92.402711 260.881966 
L 92.722883 267.949251 
L 93.363228 255.650221 
L 93.6834 259.154931 
L 94.003572 256.104629 
L 94.323744 262.422563 
L 94.643916 263.058984 
L 94.964088 268.92155 
L 95.924605 252.077769 
L 96.244777 263.28063 
L 96.885121 264.849303 
L 97.205293 260.422649 
L 97.525465 268.477557 
L 98.16581 263.484042 
L 98.485982 254.591275 
L 98.806154 258.638233 
L 99.126326 256.346072 
L 99.446498 257.548482 
L 99.76667 254.187312 
L 100.086842 264.084389 
L 100.407015 259.171619 
L 100.727187 258.506919 
L 101.047359 259.932613 
L 101.367531 247.445825 
L 102.007875 264.135763 
L 102.328047 256.731883 
L 102.648219 260.581538 
L 102.968392 262.502332 
L 103.288564 256.75718 
L 103.608736 261.699516 
L 103.928908 261.10064 
L 104.24908 255.426668 
L 104.569252 262.620954 
L 104.889424 253.278562 
L 105.529769 259.614775 
L 105.849941 259.812134 
L 106.170113 251.378398 
L 106.490285 256.720962 
L 106.810457 257.582603 
L 107.450802 250.542956 
L 107.770974 248.910504 
L 108.091146 256.961134 
L 108.411318 248.751941 
L 108.73149 256.413621 
L 109.051662 250.379068 
L 109.371834 253.286061 
L 109.692006 257.564761 
L 110.012179 241.753231 
L 110.332351 239.075595 
L 110.652523 248.904308 
L 111.292867 255.876755 
L 111.933211 245.090249 
L 112.253384 256.674788 
L 112.573556 252.5711 
L 112.893728 254.947886 
L 113.2139 241.036849 
L 113.534072 246.820141 
L 113.854244 244.050436 
L 114.174416 254.57154 
L 114.494588 250.809718 
L 114.814761 244.91485 
L 115.134933 245.820122 
L 115.455105 240.668986 
L 115.775277 243.453185 
L 116.095449 256.663927 
L 116.415621 240.579974 
L 116.735793 244.354196 
L 117.055966 252.850989 
L 117.376138 244.399576 
L 117.69631 242.360241 
L 118.016482 250.222463 
L 118.336654 236.150907 
L 118.656826 237.359014 
L 118.976998 246.057117 
L 119.297171 239.338931 
L 119.617343 239.752773 
L 119.937515 239.469634 
L 120.257687 249.348718 
L 120.577859 234.945847 
L 120.898031 237.910113 
L 121.218203 238.512835 
L 121.538375 240.055151 
L 121.858548 249.713644 
L 122.17872 237.95347 
L 122.498892 241.93644 
L 122.819064 233.92672 
L 123.139236 241.231734 
L 123.459408 238.898731 
L 123.77958 233.691931 
L 124.099753 244.516979 
L 124.419925 239.557872 
L 124.740097 243.473916 
L 125.060269 241.528259 
L 125.380441 238.293904 
L 125.700613 239.468695 
L 126.020785 239.960943 
L 126.340958 236.459354 
L 126.66113 234.355854 
L 126.981302 247.58705 
L 127.301474 231.14928 
L 127.621646 244.506169 
L 128.26199 236.476793 
L 128.582162 242.467542 
L 128.902335 237.980524 
L 129.222507 244.628357 
L 129.542679 243.243285 
L 129.862851 236.809877 
L 130.183023 236.310504 
L 130.503195 234.742104 
L 130.823367 246.759988 
L 131.14354 230.548507 
L 131.463712 244.667185 
L 131.783884 241.570286 
L 132.104056 245.836285 
L 132.424228 241.34177 
L 132.7444 234.668323 
L 133.064572 236.449585 
L 133.384744 239.857113 
L 133.704917 238.150664 
L 134.025089 228.961145 
L 134.345261 235.883199 
L 134.665433 233.484375 
L 134.985605 239.271245 
L 135.305777 230.794792 
L 135.625949 228.819664 
L 135.946122 233.27277 
L 136.266294 233.194737 
L 136.586466 239.84257 
L 136.906638 230.494965 
L 137.22681 240.795938 
L 137.546982 235.968258 
L 137.867154 234.910647 
L 138.187327 227.323497 
L 138.507499 228.83396 
L 138.827671 226.169124 
L 139.147843 233.30248 
L 139.468015 232.696819 
L 139.788187 229.495634 
L 140.108359 233.440043 
L 140.428531 224.83437 
L 141.068876 238.03147 
L 141.389048 228.65484 
L 141.70922 229.324943 
L 142.029392 230.86369 
L 142.349564 225.774536 
L 142.669736 237.35558 
L 142.989909 225.895761 
L 143.310081 228.714785 
L 143.630253 229.877686 
L 143.950425 229.754437 
L 144.270597 231.37692 
L 144.590769 224.939079 
L 145.231114 223.245089 
L 145.551286 227.23371 
L 145.871458 224.563285 
L 146.511802 230.311565 
L 146.831974 222.823804 
L 147.152146 219.731263 
L 147.472318 223.446145 
L 147.792491 225.507909 
L 148.112663 216.791919 
L 148.432835 228.968849 
L 148.753007 217.992439 
L 149.073179 226.01064 
L 149.393351 222.61565 
L 149.713523 225.429406 
L 150.033696 220.062061 
L 150.353868 216.740052 
L 150.67404 220.655695 
L 150.994212 218.101522 
L 151.314384 212.448756 
L 151.634556 223.934286 
L 151.954728 226.17514 
L 152.2749 216.141115 
L 152.595073 221.735419 
L 152.915245 214.974925 
L 153.235417 224.571339 
L 153.555589 224.845732 
L 153.875761 215.706044 
L 154.516105 225.781036 
L 155.15645 215.842743 
L 155.476622 222.616814 
L 155.796794 218.915409 
L 156.116966 226.204506 
L 156.437138 210.770862 
L 156.75731 221.411555 
L 157.077483 227.514134 
L 157.397655 216.351684 
L 157.717827 223.248028 
L 158.037999 217.710379 
L 158.358171 227.079062 
L 158.678343 225.405475 
L 158.998515 212.874212 
L 159.318687 215.402654 
L 159.63886 219.007516 
L 159.959032 214.899182 
L 160.279204 214.92232 
L 160.599376 210.438579 
L 160.919548 211.297062 
L 161.23972 208.972547 
L 161.559892 212.343266 
L 161.880065 221.506103 
L 162.200237 214.924714 
L 162.520409 216.295526 
L 162.840581 218.63552 
L 163.160753 208.886467 
L 163.480925 220.130757 
L 163.801097 213.120429 
L 164.121269 214.696008 
L 164.441442 210.591579 
L 164.761614 200.962837 
L 165.081786 215.991709 
L 165.72213 206.895942 
L 166.042302 215.857833 
L 166.362474 214.212872 
L 166.682647 210.82907 
L 167.002819 204.857687 
L 167.643163 221.423132 
L 167.963335 204.059421 
L 168.283507 211.916504 
L 168.603679 209.642729 
L 168.923852 205.148414 
L 169.244024 215.639336 
L 169.884368 197.743799 
L 170.20454 207.720649 
L 170.524712 201.465992 
L 170.844884 211.657745 
L 171.165056 201.254434 
L 171.485229 206.245935 
L 171.805401 204.663911 
L 172.125573 211.40491 
L 172.445745 213.406575 
L 172.765917 205.391986 
L 173.086089 213.181019 
L 173.406261 206.953075 
L 173.726434 206.025521 
L 174.046606 208.391194 
L 174.68695 204.630763 
L 175.007122 199.068619 
L 175.327294 206.809359 
L 175.647466 195.523901 
L 175.967639 205.245597 
L 176.287811 211.501097 
L 176.928155 196.722032 
L 177.248327 211.934529 
L 177.568499 202.47819 
L 177.888671 201.52535 
L 178.208843 204.114923 
L 178.529016 204.195714 
L 178.849188 207.592108 
L 179.16936 206.185089 
L 179.489532 195.139787 
L 180.129876 207.168478 
L 180.450048 204.78824 
L 180.770221 200.383921 
L 181.090393 207.270797 
L 181.410565 203.216641 
L 181.730737 207.106639 
L 182.050909 209.248318 
L 182.371081 199.888801 
L 182.691253 198.922528 
L 183.011425 201.477798 
L 183.331598 202.449118 
L 183.65177 206.16006 
L 183.971942 202.763547 
L 184.292114 193.298056 
L 184.932458 201.143903 
L 185.25263 206.169714 
L 185.572803 196.108285 
L 185.892975 196.394035 
L 186.213147 198.868701 
L 186.533319 193.211876 
L 186.853491 203.152095 
L 187.173663 193.334622 
L 187.493835 194.392306 
L 188.13418 202.802244 
L 188.454352 197.321934 
L 188.774524 202.199001 
L 189.094696 189.569847 
L 189.414868 200.642405 
L 189.73504 194.502371 
L 190.055212 203.753663 
L 190.375385 190.441066 
L 190.695557 187.326163 
L 191.015729 194.619096 
L 191.335901 186.929466 
L 191.656073 198.421376 
L 191.976245 199.718089 
L 192.296417 198.021106 
L 192.61659 201.077476 
L 192.936762 193.565752 
L 193.256934 193.839782 
L 193.577106 190.444289 
L 193.897278 189.188043 
L 194.21745 193.988121 
L 194.537622 192.901455 
L 194.857795 193.606208 
L 195.177967 200.032541 
L 195.498139 191.933475 
L 195.818311 201.077476 
L 196.138483 200.642405 
L 196.778827 198.619709 
L 197.098999 195.196055 
L 197.419172 196.688471 
L 197.739344 185.327062 
L 198.059516 190.434281 
L 198.379688 191.156593 
L 198.69986 192.874759 
L 199.020032 190.02065 
L 199.340204 191.417609 
L 199.660377 196.90015 
L 199.980549 199.772262 
L 200.300721 193.413461 
L 200.620893 197.820168 
L 200.941065 189.263213 
L 201.261237 189.258255 
L 201.581409 198.467047 
L 201.901581 198.105524 
L 202.221754 194.116332 
L 202.541926 185.849972 
L 203.18227 192.531228 
L 203.502442 179.384158 
L 203.822614 184.140795 
L 204.142786 193.398851 
L 204.462959 195.856618 
L 204.783131 191.303921 
L 205.103303 190.292795 
L 205.423475 192.811117 
L 205.743647 193.071397 
L 206.063819 192.721251 
L 206.383991 191.17315 
L 206.704164 186.833829 
L 207.024336 187.334857 
L 207.344508 185.406537 
L 207.66468 191.427442 
L 207.984852 180.478769 
L 208.305024 179.706144 
L 208.625196 187.499167 
L 208.945368 183.642431 
L 209.265541 183.586321 
L 209.585713 185.181178 
L 209.905885 189.238018 
L 210.866401 178.888828 
L 211.186573 177.233637 
L 211.506746 183.206126 
L 211.826918 181.036146 
L 212.14709 180.622318 
L 212.467262 189.252084 
L 212.787434 185.747564 
L 213.107606 177.965857 
L 213.427778 191.469895 
L 213.747951 182.964573 
L 214.068123 177.707557 
L 214.388295 177.844417 
L 214.708467 180.719452 
L 215.028639 179.215553 
L 215.348811 185.402825 
L 215.668983 179.408371 
L 215.989155 185.360728 
L 216.309328 183.942281 
L 216.6295 190.147128 
L 216.949672 185.896767 
L 217.269844 185.171165 
L 217.590016 179.386212 
L 217.910188 177.223522 
L 218.23036 176.348946 
L 218.550533 183.226758 
L 218.870705 184.406483 
L 219.190877 179.315536 
L 219.511049 185.561997 
L 219.831221 177.966285 
L 220.151393 176.156568 
L 220.471565 181.242017 
L 220.791737 183.961038 
L 221.11191 182.382207 
L 221.432082 179.608769 
L 221.752254 174.371214 
L 222.072426 185.582067 
L 222.392598 178.71071 
L 222.71277 175.778229 
L 223.032942 185.806892 
L 223.353115 177.65004 
L 223.673287 182.965385 
L 223.993459 178.35641 
L 224.313631 179.121918 
L 224.633803 178.545863 
L 224.953975 181.047477 
L 225.274147 177.572743 
L 225.59432 176.363886 
L 225.914492 170.13457 
L 226.234664 170.747286 
L 226.554836 175.686406 
L 226.875008 164.698775 
L 227.19518 169.402081 
L 227.515352 177.889443 
L 227.835524 169.348362 
L 228.155697 164.282378 
L 228.475869 171.462642 
L 228.796041 175.310909 
L 229.116213 166.898221 
L 229.436385 181.934329 
L 230.076729 168.397469 
L 230.396902 170.159357 
L 230.717074 168.653287 
L 231.037246 178.375296 
L 231.357418 167.474577 
L 231.67759 177.858006 
L 231.997762 170.987817 
L 232.317934 177.547482 
L 233.278451 171.457862 
L 233.598623 177.070081 
L 233.918795 171.740277 
L 234.238967 163.045007 
L 234.559139 172.743611 
L 234.879311 176.635009 
L 235.199484 167.66144 
L 235.519656 176.757197 
L 236.480172 161.94635 
L 236.800344 165.830091 
L 237.120516 172.683543 
L 237.440689 168.004273 
L 237.760861 167.66273 
L 238.081033 177.755227 
L 238.401205 163.727935 
L 238.721377 166.318458 
L 239.041549 161.43584 
L 239.361721 170.568295 
L 240.64241 158.424555 
L 240.962582 166.866362 
L 241.282754 162.451609 
L 241.602926 172.77074 
L 241.923098 163.799099 
L 242.243271 171.465525 
L 242.563443 165.700414 
L 242.883615 156.629623 
L 243.203787 162.791181 
L 243.523959 161.634485 
L 243.844131 167.85136 
L 244.164303 166.097194 
L 244.484476 158.382994 
L 244.804648 162.638214 
L 245.12482 158.572916 
L 245.444992 168.077797 
L 245.765164 155.439646 
L 246.085336 156.107141 
L 246.405508 165.40161 
L 246.72568 165.048598 
L 247.045853 156.156715 
L 247.366025 158.30779 
L 247.686197 157.321029 
L 248.006369 163.364805 
L 248.326541 162.314768 
L 248.646713 158.433216 
L 248.966885 164.042222 
L 249.287058 165.554272 
L 249.60723 167.98112 
L 249.927402 154.813575 
L 250.247574 161.475613 
L 250.567746 164.899996 
L 250.887918 154.066868 
L 251.20809 157.070153 
L 251.528263 153.014789 
L 251.848435 159.153687 
L 252.168607 153.117217 
L 252.488779 155.649998 
L 253.129123 153.854368 
L 253.449295 162.112374 
L 253.769467 153.787129 
L 254.08964 155.543484 
L 254.409812 155.387198 
L 254.729984 158.070901 
L 255.050156 148.363264 
L 255.370328 149.427907 
L 255.6905 158.426883 
L 256.010672 153.654679 
L 256.330845 158.959833 
L 256.651017 152.857273 
L 256.971189 154.989603 
L 257.291361 155.384612 
L 257.611533 146.604522 
L 257.931705 153.420956 
L 258.251877 154.079867 
L 258.572049 155.258697 
L 258.892222 144.513118 
L 259.212394 151.880975 
L 259.532566 151.231043 
L 259.852738 153.644326 
L 260.17291 157.534192 
L 260.493082 153.419453 
L 260.813254 153.83251 
L 261.133427 150.908072 
L 261.453599 150.042739 
L 261.773771 143.446757 
L 262.093943 148.384788 
L 262.414115 157.793587 
L 262.734287 150.914502 
L 263.054459 147.45859 
L 263.374632 158.348621 
L 264.014976 152.516737 
L 264.335148 150.393775 
L 264.65532 155.763494 
L 264.975492 150.174106 
L 265.295664 157.111154 
L 265.615836 151.034367 
L 265.936009 152.663229 
L 266.256181 142.126626 
L 266.576353 148.982605 
L 266.896525 152.260426 
L 267.216697 143.879363 
L 267.536869 154.070015 
L 267.857041 154.313015 
L 268.177214 146.519176 
L 268.497386 144.510927 
L 268.817558 146.978404 
L 269.13773 142.032565 
L 269.457902 148.926338 
L 269.778074 139.985277 
L 270.098246 152.393191 
L 270.418419 137.102633 
L 270.738591 142.438318 
L 271.058763 135.250657 
L 271.378935 154.471262 
L 272.019279 146.611036 
L 272.339451 143.455329 
L 272.659623 150.737655 
L 272.979796 149.165688 
L 273.299968 152.081559 
L 273.62014 152.741455 
L 274.260484 137.6388 
L 274.580656 137.730835 
L 274.900828 148.480615 
L 275.221001 152.306383 
L 275.541173 142.702838 
L 275.861345 140.106413 
L 276.181517 138.493786 
L 276.501689 138.116047 
L 276.821861 148.355359 
L 277.142033 143.355853 
L 277.462205 146.678016 
L 277.782378 140.594766 
L 278.10255 129.660166 
L 278.422722 136.3488 
L 278.742894 147.787617 
L 279.063066 139.17364 
L 279.383238 139.17364 
L 280.023583 146.598017 
L 280.343755 140.832161 
L 280.663927 145.90316 
L 280.984099 143.706303 
L 281.304271 148.228407 
L 281.624443 137.89152 
L 281.944615 142.880209 
L 282.264788 142.969226 
L 282.58496 148.868892 
L 282.905132 139.575468 
L 283.225304 137.259735 
L 283.545476 139.091875 
L 283.865648 132.131355 
L 284.18582 139.366786 
L 284.505992 130.85672 
L 284.826165 147.563677 
L 285.146337 144.329364 
L 285.466509 132.596977 
L 285.786681 130.144905 
L 286.106853 138.334416 
L 286.427025 140.936865 
L 286.747197 139.780881 
L 287.387542 140.464258 
L 287.707714 139.259028 
L 288.027886 138.561261 
L 288.348058 132.764229 
L 288.66823 135.555334 
L 288.988402 135.902233 
L 289.308575 133.948249 
L 289.628747 143.169881 
L 289.948919 137.544956 
L 290.589263 136.947401 
L 290.909435 130.850921 
L 291.549779 126.842779 
L 291.869952 128.868403 
L 292.190124 137.902237 
L 292.510296 125.974024 
L 292.830468 131.82605 
L 293.15064 129.202577 
L 293.470812 127.979061 
L 293.790984 132.565802 
L 294.111157 128.792593 
L 294.431329 128.285227 
L 294.751501 130.8566 
L 295.071673 139.962048 
L 295.391845 124.78449 
L 295.712017 136.091138 
L 296.032189 135.668097 
L 296.352361 123.537125 
L 296.672534 133.796571 
L 296.992706 130.769547 
L 297.312878 129.750872 
L 297.63305 127.376081 
L 297.953222 130.261 
L 298.273394 126.653078 
L 298.593566 127.933058 
L 298.913739 128.477064 
L 299.233911 134.076459 
L 299.554083 121.371546 
L 299.874255 120.525686 
L 300.194427 130.005252 
L 300.514599 126.116961 
L 300.834771 133.619688 
L 301.154944 131.717412 
L 301.475116 128.061411 
L 301.795288 132.634759 
L 302.11546 119.937977 
L 302.435632 130.760997 
L 302.755804 130.769276 
L 303.075976 115.250882 
L 303.396148 131.387569 
L 303.716321 131.444331 
L 304.036493 128.797847 
L 304.356665 118.044196 
L 304.676837 132.214305 
L 304.997009 130.307912 
L 305.317181 131.358911 
L 305.637353 121.778948 
L 305.957526 131.203976 
L 306.277698 120.425377 
L 306.59787 128.478799 
L 306.918042 130.327982 
L 307.238214 113.248642 
L 307.558386 131.41247 
L 307.878558 116.582256 
L 308.198731 119.041413 
L 308.518903 113.66769 
L 308.839075 125.569529 
L 309.159247 121.856695 
L 309.479419 122.651354 
L 309.799591 121.015615 
L 310.119763 111.531575 
L 310.439935 121.006201 
L 310.760108 119.206582 
L 311.08028 114.927434 
L 311.400452 129.185106 
L 311.720624 123.78594 
L 312.040796 128.420529 
L 312.360968 118.025517 
L 312.68114 121.792047 
L 313.001313 111.472986 
L 313.321485 119.274967 
L 313.641657 119.350454 
L 313.961829 107.689907 
L 314.282001 125.542195 
L 314.602173 109.391433 
L 314.922345 121.391734 
L 315.242517 118.376123 
L 315.56269 112.166554 
L 315.882862 121.894456 
L 316.203034 115.18333 
L 316.523206 113.345451 
L 316.843378 119.102825 
L 317.16355 112.66865 
L 317.483722 112.783569 
L 317.803895 119.528064 
L 318.124067 119.295484 
L 318.444239 112.265411 
L 318.764411 112.335684 
L 319.084583 120.024929 
L 319.404755 120.391883 
L 319.724927 117.097228 
L 320.0451 120.689165 
L 320.365272 116.847159 
L 320.685444 120.997227 
L 321.005616 111.701654 
L 321.325788 113.089105 
L 321.64596 117.166939 
L 321.966132 111.421702 
L 322.286304 109.787433 
L 322.606477 112.498326 
L 322.926649 106.845379 
L 323.246821 114.390144 
L 323.566993 111.064372 
L 323.887165 118.327723 
L 324.207337 115.317374 
L 324.527509 107.687001 
L 324.847682 108.915025 
L 325.167854 120.921607 
L 325.488026 101.861839 
L 326.12837 114.650902 
L 326.448542 118.778353 
L 326.768714 115.781755 
L 327.409059 108.004439 
L 327.729231 109.478731 
L 328.049403 102.573747 
L 328.369575 107.448802 
L 328.689747 106.636983 
L 329.009919 109.507574 
L 329.330091 111.2385 
L 329.650264 107.407348 
L 329.970436 113.874356 
L 330.290608 110.281611 
L 330.61078 102.649291 
L 330.930952 99.281098 
L 331.571296 112.566389 
L 331.891469 103.705924 
L 332.211641 102.857171 
L 332.531813 107.930825 
L 332.851985 100.135156 
L 333.172157 111.222167 
L 333.812501 104.996502 
L 334.132673 113.051821 
L 334.452846 100.51848 
L 334.773018 102.432777 
L 335.09319 108.713069 
L 335.413362 112.757954 
L 335.733534 106.934619 
L 336.053706 103.517531 
L 336.373878 111.277352 
L 336.694051 101.127562 
L 337.014223 96.093081 
L 337.334395 107.639414 
L 337.654567 101.25339 
L 337.974739 104.07632 
L 338.294911 98.326191 
L 338.615083 101.317884 
L 338.935256 94.464244 
L 339.255428 109.250295 
L 339.5756 106.666953 
L 339.895772 105.988145 
L 340.536116 97.722908 
L 341.17646 107.023563 
L 341.496633 103.005178 
L 341.816805 102.843416 
L 342.136977 104.00235 
L 342.457149 97.614922 
L 342.777321 104.83414 
L 343.097493 100.973262 
L 343.417665 110.044818 
L 343.737838 96.899613 
L 344.05801 107.275041 
L 344.378182 105.777074 
L 344.698354 106.83997 
L 345.018526 91.793751 
L 345.338698 95.278513 
L 345.65887 95.06365 
L 345.979042 106.136363 
L 346.299215 105.340038 
L 346.619387 104.848206 
L 346.939559 92.721781 
L 347.259731 96.29795 
L 347.900075 89.948717 
L 348.220247 106.613393 
L 348.54042 88.350489 
L 348.860592 91.821693 
L 349.500936 103.844716 
L 349.821108 99.949844 
L 350.14128 91.379138 
L 350.461452 95.037121 
L 350.781625 90.111351 
L 351.101797 97.054037 
L 351.421969 95.772052 
L 351.742141 104.856064 
L 352.062313 99.764078 
L 352.382485 100.509408 
L 352.702657 95.111005 
L 353.022829 93.31751 
L 353.343002 87.90875 
L 353.663174 102.708228 
L 353.983346 84.870859 
L 354.303518 103.876311 
L 354.62369 97.515964 
L 354.943862 94.392191 
L 355.264034 98.757204 
L 355.584207 95.778088 
L 355.904379 99.294982 
L 356.224551 92.844848 
L 356.544723 96.283505 
L 357.505239 83.271765 
L 357.825412 94.862267 
L 358.145584 96.353712 
L 358.465756 93.506784 
L 358.785928 85.996459 
L 359.1061 97.75439 
L 359.426272 87.778838 
L 359.746444 85.990024 
L 360.066616 89.289219 
L 360.386789 96.013428 
L 360.706961 95.455016 
L 361.027133 85.157733 
L 361.347305 94.901924 
L 361.667477 90.652556 
L 361.987649 93.064729 
L 362.307821 90.486807 
L 362.627994 94.466853 
L 362.948166 86.999037 
L 363.268338 82.893312 
L 363.58851 89.254208 
L 363.908682 78.912428 
L 364.549026 89.296783 
L 364.869198 92.389361 
L 365.189371 89.686377 
L 365.509543 92.1348 
L 365.829715 93.583887 
L 366.470059 82.708049 
L 366.790231 79.155055 
L 367.110403 88.393948 
L 367.430576 81.093231 
L 367.750748 78.565729 
L 368.07092 79.667676 
L 368.391092 86.47246 
L 368.711264 83.469818 
L 369.031436 78.762064 
L 369.351608 80.450847 
L 369.671781 79.168142 
L 369.991953 89.329849 
L 370.312125 89.264091 
L 370.632297 77.342892 
L 370.952469 85.865578 
L 371.272641 86.505014 
L 371.592813 87.523805 
L 371.912985 77.756466 
L 372.233158 80.424317 
L 372.55333 79.226409 
L 372.873502 79.617465 
L 373.193674 85.330351 
L 373.513846 75.687569 
L 373.834018 86.677908 
L 374.15419 77.045882 
L 374.474363 76.514341 
L 374.794535 83.546322 
L 375.114707 75.833129 
L 375.434879 73.986946 
L 376.075223 84.204146 
L 376.395395 78.243272 
L 376.715568 81.853389 
L 377.03574 83.01241 
L 377.355912 78.230381 
L 377.676084 76.179761 
L 377.996256 82.998298 
L 378.316428 75.925392 
L 378.6366 83.806552 
L 378.956772 73.500932 
L 379.276945 81.772357 
L 379.597117 69.539553 
L 379.917289 69.2273 
L 380.237461 66.019782 
L 380.557633 75.551383 
L 380.877805 69.375618 
L 381.197977 65.851996 
L 381.51815 63.65429 
L 381.838322 73.218386 
L 382.158494 74.433369 
L 382.478666 72.090858 
L 382.798838 79.692517 
L 383.11901 78.681169 
L 383.439182 71.275956 
L 383.759354 75.981373 
L 384.079527 71.057513 
L 384.399699 70.729675 
L 384.719871 76.19221 
L 385.040043 71.384816 
L 385.360215 69.980064 
L 385.680387 64.362623 
L 386.000559 66.096953 
L 386.320732 73.463241 
L 386.640904 72.503319 
L 386.961076 74.393198 
L 387.281248 71.33712 
L 387.921592 58.983892 
L 388.241764 70.604506 
L 388.561937 61.247472 
L 388.882109 72.296301 
L 389.202281 67.945586 
L 389.522453 68.267412 
L 389.842625 70.133751 
L 390.162797 76.901875 
L 390.803141 74.005668 
L 391.123314 65.497415 
L 391.443486 71.505927 
L 391.763658 61.847788 
L 392.08383 68.030645 
L 392.404002 54.851826 
L 392.724174 67.743604 
L 393.044346 57.021109 
L 393.364519 61.27989 
L 393.684691 58.265619 
L 394.325035 66.116262 
L 394.645207 59.001541 
L 394.965379 68.794029 
L 395.605724 58.802287 
L 395.925896 55.171506 
L 396.246068 59.559772 
L 396.56624 60.47708 
L 396.886412 53.568 
L 397.206584 57.93235 
L 397.526756 56.198654 
L 397.846928 67.510514 
L 398.167101 58.515095 
L 398.487273 61.940072 
L 398.487273 61.940072 
" clip-path="url(#pc5b4806e49)" style="fill: none; stroke-dasharray: 1,1.65; stroke-dashoffset: 0; stroke: #ffa500"/>
   </g>
   <g id="line2d_16">
    <path d="M 73.832727 273.95512 
L 398.487273 63.770606 
L 398.487273 63.770606 
" clip-path="url(#pc5b4806e49)" style="fill: none; stroke-dasharray: 1.85,0.8; stroke-dashoffset: 0; stroke: #191970; stroke-width: 0.5"/>
   </g>
   <g id="line2d_17">
    <path d="M 73.832727 273.95512 
L 398.487273 63.770606 
L 398.487273 63.770606 
" clip-path="url(#pc5b4806e49)" style="fill: none; stroke-dasharray: 0.5,0.825; stroke-dashoffset: 0; stroke: #ff0000; stroke-width: 0.5"/>
   </g>
   <g id="patch_3">
    <path d="M 57.6 307.584 
L 57.6 41.472 
" style="fill: none; stroke: #000000; stroke-width: 0.8; stroke-linejoin: miter; stroke-linecap: square"/>
   </g>
   <g id="patch_4">
    <path d="M 414.72 307.584 
L 414.72 41.472 
" style="fill: none; stroke: #000000; stroke-width: 0.8; stroke-linejoin: miter; stroke-linecap: square"/>
   </g>
   <g id="patch_5">
    <path d="M 57.6 307.584 
L 414.72 307.584 
" style="fill: none; stroke: #000000; stroke-width: 0.8; stroke-linejoin: miter; stroke-linecap: square"/>
   </g>
   <g id="patch_6">
    <path d="M 57.6 41.472 
L 414.72 41.472 
" style="fill: none; stroke: #000000; stroke-width: 0.8; stroke-linejoin: miter; stroke-linecap: square"/>
   </g>
   <g id="text_15">
    <!-- numRider300 -->
    <g transform="translate(195.454688 22.034625)scale(0.12 -0.12)">
     <defs>
      <path id="DejaVuSans-75" d="M 544 1381 
L 544 3500 
L 1119 3500 
L 1119 1403 
Q 1119 906 1312 657 
Q 1506 409 1894 409 
Q 2359 409 2629 706 
Q 2900 1003 2900 1516 
L 2900 3500 
L 3475 3500 
L 3475 0 
L 2900 0 
L 2900 538 
Q 2691 219 2414 64 
Q 2138 -91 1772 -91 
Q 1169 -91 856 284 
Q 544 659 544 1381 
z
M 1991 3584 
L 1991 3584 
z
" transform="scale(0.015625)"/>
      <path id="DejaVuSans-52" d="M 2841 2188 
Q 3044 2119 3236 1894 
Q 3428 1669 3622 1275 
L 4263 0 
L 3584 0 
L 2988 1197 
Q 2756 1666 2539 1819 
Q 2322 1972 1947 1972 
L 1259 1972 
L 1259 0 
L 628 0 
L 628 4666 
L 2053 4666 
Q 2853 4666 3247 4331 
Q 3641 3997 3641 3322 
Q 3641 2881 3436 2590 
Q 3231 2300 2841 2188 
z
M 1259 4147 
L 1259 2491 
L 2053 2491 
Q 2509 2491 2742 2702 
Q 2975 2913 2975 3322 
Q 2975 3731 2742 3939 
Q 2509 4147 2053 4147 
L 1259 4147 
z
" transform="scale(0.015625)"/>
     </defs>
     <use xlink:href="#DejaVuSans-6e"/>
     <use xlink:href="#DejaVuSans-75" x="63.378906"/>
     <use xlink:href="#DejaVuSans-6d" x="126.757812"/>
     <use xlink:href="#DejaVuSans-52" x="224.169922"/>
     <use xlink:href="#DejaVuSans-69" x="293.652344"/>
     <use xlink:href="#DejaVuSans-64" x="321.435547"/>
     <use xlink:href="#DejaVuSans-65" x="384.912109"/>
     <use xlink:href="#DejaVuSans-72" x="446.435547"/>
     <use xlink:href="#DejaVuSans-33" x="487.548828"/>
     <use xlink:href="#DejaVuSans-30" x="551.171875"/>
     <use xlink:href="#DejaVuSans-30" x="614.794922"/>
    </g>
    <!--  grid50 -->
    <g transform="translate(214.866562 35.472)scale(0.12 -0.12)">
     <defs>
      <path id="DejaVuSans-67" d="M 2906 1791 
Q 2906 2416 2648 2759 
Q 2391 3103 1925 3103 
Q 1463 3103 1205 2759 
Q 947 2416 947 1791 
Q 947 1169 1205 825 
Q 1463 481 1925 481 
Q 2391 481 2648 825 
Q 2906 1169 2906 1791 
z
M 3481 434 
Q 3481 -459 3084 -895 
Q 2688 -1331 1869 -1331 
Q 1566 -1331 1297 -1286 
Q 1028 -1241 775 -1147 
L 775 -588 
Q 1028 -725 1275 -790 
Q 1522 -856 1778 -856 
Q 2344 -856 2625 -561 
Q 2906 -266 2906 331 
L 2906 616 
Q 2728 306 2450 153 
Q 2172 0 1784 0 
Q 1141 0 747 490 
Q 353 981 353 1791 
Q 353 2603 747 3093 
Q 1141 3584 1784 3584 
Q 2172 3584 2450 3431 
Q 2728 3278 2906 2969 
L 2906 3500 
L 3481 3500 
L 3481 434 
z
" transform="scale(0.015625)"/>
     </defs>
     <use xlink:href="#DejaVuSans-20"/>
     <use xlink:href="#DejaVuSans-67" x="31.787109"/>
     <use xlink:href="#DejaVuSans-72" x="95.263672"/>
     <use xlink:href="#DejaVuSans-69" x="136.376953"/>
     <use xlink:href="#DejaVuSans-64" x="164.160156"/>
     <use xlink:href="#DejaVuSans-35" x="227.636719"/>
     <use xlink:href="#DejaVuSans-30" x="291.259766"/>
    </g>
   </g>
   <g id="legend_1">
    <g id="patch_7">
     <path d="M 64.6 122.862625 
L 241.8625 122.862625 
Q 243.8625 122.862625 243.8625 120.862625 
L 243.8625 48.472 
Q 243.8625 46.472 241.8625 46.472 
L 64.6 46.472 
Q 62.6 46.472 62.6 48.472 
L 62.6 120.862625 
Q 62.6 122.862625 64.6 122.862625 
z
" style="fill: #ffffff; opacity: 0.8; stroke: #cccccc; stroke-linejoin: miter"/>
    </g>
    <g id="line2d_18">
     <path d="M 66.6 54.570438 
L 76.6 54.570438 
L 86.6 54.570438 
" style="fill: none; stroke: #32cd32; stroke-linecap: square"/>
    </g>
    <g id="text_16">
     <!-- Time In -->
     <g transform="translate(94.6 58.070438)scale(0.1 -0.1)">
      <use xlink:href="#DejaVuSans-54"/>
      <use xlink:href="#DejaVuSans-69" x="57.958984"/>
      <use xlink:href="#DejaVuSans-6d" x="85.742188"/>
      <use xlink:href="#DejaVuSans-65" x="183.154297"/>
      <use xlink:href="#DejaVuSans-20" x="244.677734"/>
      <use xlink:href="#DejaVuSans-49" x="276.464844"/>
      <use xlink:href="#DejaVuSans-6e" x="305.957031"/>
     </g>
    </g>
    <g id="line2d_19">
     <path d="M 66.6 69.248563 
L 76.6 69.248563 
L 86.6 69.248563 
" style="fill: none; stroke-dasharray: 3.7,1.6; stroke-dashoffset: 0; stroke: #4169e1"/>
    </g>
    <g id="text_17">
     <!-- Time Delivered - Default -->
     <g transform="translate(94.6 72.748563)scale(0.1 -0.1)">
      <defs>
       <path id="DejaVuSans-2d" d="M 313 2009 
L 1997 2009 
L 1997 1497 
L 313 1497 
L 313 2009 
z
" transform="scale(0.015625)"/>
       <path id="DejaVuSans-66" d="M 2375 4863 
L 2375 4384 
L 1825 4384 
Q 1516 4384 1395 4259 
Q 1275 4134 1275 3809 
L 1275 3500 
L 2222 3500 
L 2222 3053 
L 1275 3053 
L 1275 0 
L 697 0 
L 697 3053 
L 147 3053 
L 147 3500 
L 697 3500 
L 697 3744 
Q 697 4328 969 4595 
Q 1241 4863 1831 4863 
L 2375 4863 
z
" transform="scale(0.015625)"/>
       <path id="DejaVuSans-61" d="M 2194 1759 
Q 1497 1759 1228 1600 
Q 959 1441 959 1056 
Q 959 750 1161 570 
Q 1363 391 1709 391 
Q 2188 391 2477 730 
Q 2766 1069 2766 1631 
L 2766 1759 
L 2194 1759 
z
M 3341 1997 
L 3341 0 
L 2766 0 
L 2766 531 
Q 2569 213 2275 61 
Q 1981 -91 1556 -91 
Q 1019 -91 701 211 
Q 384 513 384 1019 
Q 384 1609 779 1909 
Q 1175 2209 1959 2209 
L 2766 2209 
L 2766 2266 
Q 2766 2663 2505 2880 
Q 2244 3097 1772 3097 
Q 1472 3097 1187 3025 
Q 903 2953 641 2809 
L 641 3341 
Q 956 3463 1253 3523 
Q 1550 3584 1831 3584 
Q 2591 3584 2966 3190 
Q 3341 2797 3341 1997 
z
" transform="scale(0.015625)"/>
       <path id="DejaVuSans-74" d="M 1172 4494 
L 1172 3500 
L 2356 3500 
L 2356 3053 
L 1172 3053 
L 1172 1153 
Q 1172 725 1289 603 
Q 1406 481 1766 481 
L 2356 481 
L 2356 0 
L 1766 0 
Q 1100 0 847 248 
Q 594 497 594 1153 
L 594 3053 
L 172 3053 
L 172 3500 
L 594 3500 
L 594 4494 
L 1172 4494 
z
" transform="scale(0.015625)"/>
      </defs>
      <use xlink:href="#DejaVuSans-54"/>
      <use xlink:href="#DejaVuSans-69" x="57.958984"/>
      <use xlink:href="#DejaVuSans-6d" x="85.742188"/>
      <use xlink:href="#DejaVuSans-65" x="183.154297"/>
      <use xlink:href="#DejaVuSans-20" x="244.677734"/>
      <use xlink:href="#DejaVuSans-44" x="276.464844"/>
      <use xlink:href="#DejaVuSans-65" x="353.466797"/>
      <use xlink:href="#DejaVuSans-6c" x="414.990234"/>
      <use xlink:href="#DejaVuSans-69" x="442.773438"/>
      <use xlink:href="#DejaVuSans-76" x="470.556641"/>
      <use xlink:href="#DejaVuSans-65" x="529.736328"/>
      <use xlink:href="#DejaVuSans-72" x="591.259766"/>
      <use xlink:href="#DejaVuSans-65" x="630.123047"/>
      <use xlink:href="#DejaVuSans-64" x="691.646484"/>
      <use xlink:href="#DejaVuSans-20" x="755.123047"/>
      <use xlink:href="#DejaVuSans-2d" x="786.910156"/>
      <use xlink:href="#DejaVuSans-20" x="822.994141"/>
      <use xlink:href="#DejaVuSans-44" x="854.78125"/>
      <use xlink:href="#DejaVuSans-65" x="931.783203"/>
      <use xlink:href="#DejaVuSans-66" x="993.306641"/>
      <use xlink:href="#DejaVuSans-61" x="1028.511719"/>
      <use xlink:href="#DejaVuSans-75" x="1089.791016"/>
      <use xlink:href="#DejaVuSans-6c" x="1153.169922"/>
      <use xlink:href="#DejaVuSans-74" x="1180.953125"/>
     </g>
    </g>
    <g id="line2d_20">
     <path d="M 66.6 83.926688 
L 76.6 83.926688 
L 86.6 83.926688 
" style="fill: none; stroke-dasharray: 1,1.65; stroke-dashoffset: 0; stroke: #ffa500"/>
    </g>
    <g id="text_18">
     <!-- Time Delivered - Anticipation -->
     <g transform="translate(94.6 87.426688)scale(0.1 -0.1)">
      <defs>
       <path id="DejaVuSans-41" d="M 2188 4044 
L 1331 1722 
L 3047 1722 
L 2188 4044 
z
M 1831 4666 
L 2547 4666 
L 4325 0 
L 3669 0 
L 3244 1197 
L 1141 1197 
L 716 0 
L 50 0 
L 1831 4666 
z
" transform="scale(0.015625)"/>
       <path id="DejaVuSans-63" d="M 3122 3366 
L 3122 2828 
Q 2878 2963 2633 3030 
Q 2388 3097 2138 3097 
Q 1578 3097 1268 2742 
Q 959 2388 959 1747 
Q 959 1106 1268 751 
Q 1578 397 2138 397 
Q 2388 397 2633 464 
Q 2878 531 3122 666 
L 3122 134 
Q 2881 22 2623 -34 
Q 2366 -91 2075 -91 
Q 1284 -91 818 406 
Q 353 903 353 1747 
Q 353 2603 823 3093 
Q 1294 3584 2113 3584 
Q 2378 3584 2631 3529 
Q 2884 3475 3122 3366 
z
" transform="scale(0.015625)"/>
       <path id="DejaVuSans-70" d="M 1159 525 
L 1159 -1331 
L 581 -1331 
L 581 3500 
L 1159 3500 
L 1159 2969 
Q 1341 3281 1617 3432 
Q 1894 3584 2278 3584 
Q 2916 3584 3314 3078 
Q 3713 2572 3713 1747 
Q 3713 922 3314 415 
Q 2916 -91 2278 -91 
Q 1894 -91 1617 61 
Q 1341 213 1159 525 
z
M 3116 1747 
Q 3116 2381 2855 2742 
Q 2594 3103 2138 3103 
Q 1681 3103 1420 2742 
Q 1159 2381 1159 1747 
Q 1159 1113 1420 752 
Q 1681 391 2138 391 
Q 2594 391 2855 752 
Q 3116 1113 3116 1747 
z
" transform="scale(0.015625)"/>
       <path id="DejaVuSans-6f" d="M 1959 3097 
Q 1497 3097 1228 2736 
Q 959 2375 959 1747 
Q 959 1119 1226 758 
Q 1494 397 1959 397 
Q 2419 397 2687 759 
Q 2956 1122 2956 1747 
Q 2956 2369 2687 2733 
Q 2419 3097 1959 3097 
z
M 1959 3584 
Q 2709 3584 3137 3096 
Q 3566 2609 3566 1747 
Q 3566 888 3137 398 
Q 2709 -91 1959 -91 
Q 1206 -91 779 398 
Q 353 888 353 1747 
Q 353 2609 779 3096 
Q 1206 3584 1959 3584 
z
" transform="scale(0.015625)"/>
      </defs>
      <use xlink:href="#DejaVuSans-54"/>
      <use xlink:href="#DejaVuSans-69" x="57.958984"/>
      <use xlink:href="#DejaVuSans-6d" x="85.742188"/>
      <use xlink:href="#DejaVuSans-65" x="183.154297"/>
      <use xlink:href="#DejaVuSans-20" x="244.677734"/>
      <use xlink:href="#DejaVuSans-44" x="276.464844"/>
      <use xlink:href="#DejaVuSans-65" x="353.466797"/>
      <use xlink:href="#DejaVuSans-6c" x="414.990234"/>
      <use xlink:href="#DejaVuSans-69" x="442.773438"/>
      <use xlink:href="#DejaVuSans-76" x="470.556641"/>
      <use xlink:href="#DejaVuSans-65" x="529.736328"/>
      <use xlink:href="#DejaVuSans-72" x="591.259766"/>
      <use xlink:href="#DejaVuSans-65" x="630.123047"/>
      <use xlink:href="#DejaVuSans-64" x="691.646484"/>
      <use xlink:href="#DejaVuSans-20" x="755.123047"/>
      <use xlink:href="#DejaVuSans-2d" x="786.910156"/>
      <use xlink:href="#DejaVuSans-20" x="822.994141"/>
      <use xlink:href="#DejaVuSans-41" x="854.78125"/>
      <use xlink:href="#DejaVuSans-6e" x="923.189453"/>
      <use xlink:href="#DejaVuSans-74" x="986.568359"/>
      <use xlink:href="#DejaVuSans-69" x="1025.777344"/>
      <use xlink:href="#DejaVuSans-63" x="1053.560547"/>
      <use xlink:href="#DejaVuSans-69" x="1108.541016"/>
      <use xlink:href="#DejaVuSans-70" x="1136.324219"/>
      <use xlink:href="#DejaVuSans-61" x="1199.800781"/>
      <use xlink:href="#DejaVuSans-74" x="1261.080078"/>
      <use xlink:href="#DejaVuSans-69" x="1300.289062"/>
      <use xlink:href="#DejaVuSans-6f" x="1328.072266"/>
      <use xlink:href="#DejaVuSans-6e" x="1389.253906"/>
     </g>
    </g>
    <g id="line2d_21">
     <path d="M 66.6 98.604813 
L 76.6 98.604813 
L 86.6 98.604813 
" style="fill: none; stroke-dasharray: 1.85,0.8; stroke-dashoffset: 0; stroke: #191970; stroke-width: 0.5"/>
    </g>
    <g id="text_19">
     <!-- best fit line for default -->
     <g transform="translate(94.6 102.104813)scale(0.1 -0.1)">
      <defs>
       <path id="DejaVuSans-62" d="M 3116 1747 
Q 3116 2381 2855 2742 
Q 2594 3103 2138 3103 
Q 1681 3103 1420 2742 
Q 1159 2381 1159 1747 
Q 1159 1113 1420 752 
Q 1681 391 2138 391 
Q 2594 391 2855 752 
Q 3116 1113 3116 1747 
z
M 1159 2969 
Q 1341 3281 1617 3432 
Q 1894 3584 2278 3584 
Q 2916 3584 3314 3078 
Q 3713 2572 3713 1747 
Q 3713 922 3314 415 
Q 2916 -91 2278 -91 
Q 1894 -91 1617 61 
Q 1341 213 1159 525 
L 1159 0 
L 581 0 
L 581 4863 
L 1159 4863 
L 1159 2969 
z
" transform="scale(0.015625)"/>
       <path id="DejaVuSans-73" d="M 2834 3397 
L 2834 2853 
Q 2591 2978 2328 3040 
Q 2066 3103 1784 3103 
Q 1356 3103 1142 2972 
Q 928 2841 928 2578 
Q 928 2378 1081 2264 
Q 1234 2150 1697 2047 
L 1894 2003 
Q 2506 1872 2764 1633 
Q 3022 1394 3022 966 
Q 3022 478 2636 193 
Q 2250 -91 1575 -91 
Q 1294 -91 989 -36 
Q 684 19 347 128 
L 347 722 
Q 666 556 975 473 
Q 1284 391 1588 391 
Q 1994 391 2212 530 
Q 2431 669 2431 922 
Q 2431 1156 2273 1281 
Q 2116 1406 1581 1522 
L 1381 1569 
Q 847 1681 609 1914 
Q 372 2147 372 2553 
Q 372 3047 722 3315 
Q 1072 3584 1716 3584 
Q 2034 3584 2315 3537 
Q 2597 3491 2834 3397 
z
" transform="scale(0.015625)"/>
      </defs>
      <use xlink:href="#DejaVuSans-62"/>
      <use xlink:href="#DejaVuSans-65" x="63.476562"/>
      <use xlink:href="#DejaVuSans-73" x="125"/>
      <use xlink:href="#DejaVuSans-74" x="177.099609"/>
      <use xlink:href="#DejaVuSans-20" x="216.308594"/>
      <use xlink:href="#DejaVuSans-66" x="248.095703"/>
      <use xlink:href="#DejaVuSans-69" x="283.300781"/>
      <use xlink:href="#DejaVuSans-74" x="311.083984"/>
      <use xlink:href="#DejaVuSans-20" x="350.292969"/>
      <use xlink:href="#DejaVuSans-6c" x="382.080078"/>
      <use xlink:href="#DejaVuSans-69" x="409.863281"/>
      <use xlink:href="#DejaVuSans-6e" x="437.646484"/>
      <use xlink:href="#DejaVuSans-65" x="501.025391"/>
      <use xlink:href="#DejaVuSans-20" x="562.548828"/>
      <use xlink:href="#DejaVuSans-66" x="594.335938"/>
      <use xlink:href="#DejaVuSans-6f" x="629.541016"/>
      <use xlink:href="#DejaVuSans-72" x="690.722656"/>
      <use xlink:href="#DejaVuSans-20" x="731.835938"/>
      <use xlink:href="#DejaVuSans-64" x="763.623047"/>
      <use xlink:href="#DejaVuSans-65" x="827.099609"/>
      <use xlink:href="#DejaVuSans-66" x="888.623047"/>
      <use xlink:href="#DejaVuSans-61" x="923.828125"/>
      <use xlink:href="#DejaVuSans-75" x="985.107422"/>
      <use xlink:href="#DejaVuSans-6c" x="1048.486328"/>
      <use xlink:href="#DejaVuSans-74" x="1076.269531"/>
     </g>
    </g>
    <g id="line2d_22">
     <path d="M 66.6 113.282938 
L 76.6 113.282938 
L 86.6 113.282938 
" style="fill: none; stroke-dasharray: 0.5,0.825; stroke-dashoffset: 0; stroke: #ff0000; stroke-width: 0.5"/>
    </g>
    <g id="text_20">
     <!-- best fit line for anticipation -->
     <g transform="translate(94.6 116.782938)scale(0.1 -0.1)">
      <use xlink:href="#DejaVuSans-62"/>
      <use xlink:href="#DejaVuSans-65" x="63.476562"/>
      <use xlink:href="#DejaVuSans-73" x="125"/>
      <use xlink:href="#DejaVuSans-74" x="177.099609"/>
      <use xlink:href="#DejaVuSans-20" x="216.308594"/>
      <use xlink:href="#DejaVuSans-66" x="248.095703"/>
      <use xlink:href="#DejaVuSans-69" x="283.300781"/>
      <use xlink:href="#DejaVuSans-74" x="311.083984"/>
      <use xlink:href="#DejaVuSans-20" x="350.292969"/>
      <use xlink:href="#DejaVuSans-6c" x="382.080078"/>
      <use xlink:href="#DejaVuSans-69" x="409.863281"/>
      <use xlink:href="#DejaVuSans-6e" x="437.646484"/>
      <use xlink:href="#DejaVuSans-65" x="501.025391"/>
      <use xlink:href="#DejaVuSans-20" x="562.548828"/>
      <use xlink:href="#DejaVuSans-66" x="594.335938"/>
      <use xlink:href="#DejaVuSans-6f" x="629.541016"/>
      <use xlink:href="#DejaVuSans-72" x="690.722656"/>
      <use xlink:href="#DejaVuSans-20" x="731.835938"/>
      <use xlink:href="#DejaVuSans-61" x="763.623047"/>
      <use xlink:href="#DejaVuSans-6e" x="824.902344"/>
      <use xlink:href="#DejaVuSans-74" x="888.28125"/>
      <use xlink:href="#DejaVuSans-69" x="927.490234"/>
      <use xlink:href="#DejaVuSans-63" x="955.273438"/>
      <use xlink:href="#DejaVuSans-69" x="1010.253906"/>
      <use xlink:href="#DejaVuSans-70" x="1038.037109"/>
      <use xlink:href="#DejaVuSans-61" x="1101.513672"/>
      <use xlink:href="#DejaVuSans-74" x="1162.792969"/>
      <use xlink:href="#DejaVuSans-69" x="1202.001953"/>
      <use xlink:href="#DejaVuSans-6f" x="1229.785156"/>
      <use xlink:href="#DejaVuSans-6e" x="1290.966797"/>
     </g>
    </g>
   </g>
  </g>
 </g>
 <defs>
  <clipPath id="pc5b4806e49">
   <rect x="57.6" y="41.472" width="357.12" height="266.112"/>
  </clipPath>
 </defs>
</svg>
