<?xml version="1.0" encoding="utf-8" standalone="no"?>
<!DOCTYPE svg PUBLIC "-//W3C//DTD SVG 1.1//EN"
  "http://www.w3.org/Graphics/SVG/1.1/DTD/svg11.dtd">
<svg xmlns:xlink="http://www.w3.org/1999/xlink" width="460.8pt" height="345.6pt" viewBox="0 0 460.8 345.6" xmlns="http://www.w3.org/2000/svg" version="1.1">
 <metadata>
  <rdf:RDF xmlns:dc="http://purl.org/dc/elements/1.1/" xmlns:cc="http://creativecommons.org/ns#" xmlns:rdf="http://www.w3.org/1999/02/22-rdf-syntax-ns#">
   <cc:Work>
    <dc:type rdf:resource="http://purl.org/dc/dcmitype/StillImage"/>
    <dc:date>2022-09-12T15:40:05.545834</dc:date>
    <dc:format>image/svg+xml</dc:format>
    <dc:creator>
     <cc:Agent>
      <dc:title>Matplotlib v3.5.2, https://matplotlib.org/</dc:title>
     </cc:Agent>
    </dc:creator>
   </cc:Work>
  </rdf:RDF>
 </metadata>
 <defs>
  <style type="text/css">*{stroke-linejoin: round; stroke-linecap: butt}</style>
 </defs>
 <g id="figure_1">
  <g id="patch_1">
   <path d="M 0 345.6 
L 460.8 345.6 
L 460.8 0 
L 0 0 
z
" style="fill: #ffffff"/>
  </g>
  <g id="axes_1">
   <g id="patch_2">
    <path d="M 57.6 307.584 
L 414.72 307.584 
L 414.72 41.472 
L 57.6 41.472 
z
" style="fill: #ffffff"/>
   </g>
   <g id="matplotlib.axis_1">
    <g id="xtick_1">
     <g id="line2d_1">
      <defs>
       <path id="m7833651d5d" d="M 0 0 
L 0 3.5 
" style="stroke: #000000; stroke-width: 0.8"/>
      </defs>
      <g>
       <use xlink:href="#m7833651d5d" x="73.832727" y="307.584" style="stroke: #000000; stroke-width: 0.8"/>
      </g>
     </g>
     <g id="text_1">
      <!-- 0 -->
      <g transform="translate(70.651477 322.182437)scale(0.1 -0.1)">
       <defs>
        <path id="DejaVuSans-30" d="M 2034 4250 
Q 1547 4250 1301 3770 
Q 1056 3291 1056 2328 
Q 1056 1369 1301 889 
Q 1547 409 2034 409 
Q 2525 409 2770 889 
Q 3016 1369 3016 2328 
Q 3016 3291 2770 3770 
Q 2525 4250 2034 4250 
z
M 2034 4750 
Q 2819 4750 3233 4129 
Q 3647 3509 3647 2328 
Q 3647 1150 3233 529 
Q 2819 -91 2034 -91 
Q 1250 -91 836 529 
Q 422 1150 422 2328 
Q 422 3509 836 4129 
Q 1250 4750 2034 4750 
z
" transform="scale(0.015625)"/>
       </defs>
       <use xlink:href="#DejaVuSans-30"/>
      </g>
     </g>
    </g>
    <g id="xtick_2">
     <g id="line2d_2">
      <g>
       <use xlink:href="#m7833651d5d" x="136.326384" y="307.584" style="stroke: #000000; stroke-width: 0.8"/>
      </g>
     </g>
     <g id="text_2">
      <!-- 200 -->
      <g transform="translate(126.782634 322.182437)scale(0.1 -0.1)">
       <defs>
        <path id="DejaVuSans-32" d="M 1228 531 
L 3431 531 
L 3431 0 
L 469 0 
L 469 531 
Q 828 903 1448 1529 
Q 2069 2156 2228 2338 
Q 2531 2678 2651 2914 
Q 2772 3150 2772 3378 
Q 2772 3750 2511 3984 
Q 2250 4219 1831 4219 
Q 1534 4219 1204 4116 
Q 875 4013 500 3803 
L 500 4441 
Q 881 4594 1212 4672 
Q 1544 4750 1819 4750 
Q 2544 4750 2975 4387 
Q 3406 4025 3406 3419 
Q 3406 3131 3298 2873 
Q 3191 2616 2906 2266 
Q 2828 2175 2409 1742 
Q 1991 1309 1228 531 
z
" transform="scale(0.015625)"/>
       </defs>
       <use xlink:href="#DejaVuSans-32"/>
       <use xlink:href="#DejaVuSans-30" x="63.623047"/>
       <use xlink:href="#DejaVuSans-30" x="127.246094"/>
      </g>
     </g>
    </g>
    <g id="xtick_3">
     <g id="line2d_3">
      <g>
       <use xlink:href="#m7833651d5d" x="198.82004" y="307.584" style="stroke: #000000; stroke-width: 0.8"/>
      </g>
     </g>
     <g id="text_3">
      <!-- 400 -->
      <g transform="translate(189.27629 322.182437)scale(0.1 -0.1)">
       <defs>
        <path id="DejaVuSans-34" d="M 2419 4116 
L 825 1625 
L 2419 1625 
L 2419 4116 
z
M 2253 4666 
L 3047 4666 
L 3047 1625 
L 3713 1625 
L 3713 1100 
L 3047 1100 
L 3047 0 
L 2419 0 
L 2419 1100 
L 313 1100 
L 313 1709 
L 2253 4666 
z
" transform="scale(0.015625)"/>
       </defs>
       <use xlink:href="#DejaVuSans-34"/>
       <use xlink:href="#DejaVuSans-30" x="63.623047"/>
       <use xlink:href="#DejaVuSans-30" x="127.246094"/>
      </g>
     </g>
    </g>
    <g id="xtick_4">
     <g id="line2d_4">
      <g>
       <use xlink:href="#m7833651d5d" x="261.313697" y="307.584" style="stroke: #000000; stroke-width: 0.8"/>
      </g>
     </g>
     <g id="text_4">
      <!-- 600 -->
      <g transform="translate(251.769947 322.182437)scale(0.1 -0.1)">
       <defs>
        <path id="DejaVuSans-36" d="M 2113 2584 
Q 1688 2584 1439 2293 
Q 1191 2003 1191 1497 
Q 1191 994 1439 701 
Q 1688 409 2113 409 
Q 2538 409 2786 701 
Q 3034 994 3034 1497 
Q 3034 2003 2786 2293 
Q 2538 2584 2113 2584 
z
M 3366 4563 
L 3366 3988 
Q 3128 4100 2886 4159 
Q 2644 4219 2406 4219 
Q 1781 4219 1451 3797 
Q 1122 3375 1075 2522 
Q 1259 2794 1537 2939 
Q 1816 3084 2150 3084 
Q 2853 3084 3261 2657 
Q 3669 2231 3669 1497 
Q 3669 778 3244 343 
Q 2819 -91 2113 -91 
Q 1303 -91 875 529 
Q 447 1150 447 2328 
Q 447 3434 972 4092 
Q 1497 4750 2381 4750 
Q 2619 4750 2861 4703 
Q 3103 4656 3366 4563 
z
" transform="scale(0.015625)"/>
       </defs>
       <use xlink:href="#DejaVuSans-36"/>
       <use xlink:href="#DejaVuSans-30" x="63.623047"/>
       <use xlink:href="#DejaVuSans-30" x="127.246094"/>
      </g>
     </g>
    </g>
    <g id="xtick_5">
     <g id="line2d_5">
      <g>
       <use xlink:href="#m7833651d5d" x="323.807353" y="307.584" style="stroke: #000000; stroke-width: 0.8"/>
      </g>
     </g>
     <g id="text_5">
      <!-- 800 -->
      <g transform="translate(314.263603 322.182437)scale(0.1 -0.1)">
       <defs>
        <path id="DejaVuSans-38" d="M 2034 2216 
Q 1584 2216 1326 1975 
Q 1069 1734 1069 1313 
Q 1069 891 1326 650 
Q 1584 409 2034 409 
Q 2484 409 2743 651 
Q 3003 894 3003 1313 
Q 3003 1734 2745 1975 
Q 2488 2216 2034 2216 
z
M 1403 2484 
Q 997 2584 770 2862 
Q 544 3141 544 3541 
Q 544 4100 942 4425 
Q 1341 4750 2034 4750 
Q 2731 4750 3128 4425 
Q 3525 4100 3525 3541 
Q 3525 3141 3298 2862 
Q 3072 2584 2669 2484 
Q 3125 2378 3379 2068 
Q 3634 1759 3634 1313 
Q 3634 634 3220 271 
Q 2806 -91 2034 -91 
Q 1263 -91 848 271 
Q 434 634 434 1313 
Q 434 1759 690 2068 
Q 947 2378 1403 2484 
z
M 1172 3481 
Q 1172 3119 1398 2916 
Q 1625 2713 2034 2713 
Q 2441 2713 2670 2916 
Q 2900 3119 2900 3481 
Q 2900 3844 2670 4047 
Q 2441 4250 2034 4250 
Q 1625 4250 1398 4047 
Q 1172 3844 1172 3481 
z
" transform="scale(0.015625)"/>
       </defs>
       <use xlink:href="#DejaVuSans-38"/>
       <use xlink:href="#DejaVuSans-30" x="63.623047"/>
       <use xlink:href="#DejaVuSans-30" x="127.246094"/>
      </g>
     </g>
    </g>
    <g id="xtick_6">
     <g id="line2d_6">
      <g>
       <use xlink:href="#m7833651d5d" x="386.30101" y="307.584" style="stroke: #000000; stroke-width: 0.8"/>
      </g>
     </g>
     <g id="text_6">
      <!-- 1000 -->
      <g transform="translate(373.57601 322.182437)scale(0.1 -0.1)">
       <defs>
        <path id="DejaVuSans-31" d="M 794 531 
L 1825 531 
L 1825 4091 
L 703 3866 
L 703 4441 
L 1819 4666 
L 2450 4666 
L 2450 531 
L 3481 531 
L 3481 0 
L 794 0 
L 794 531 
z
" transform="scale(0.015625)"/>
       </defs>
       <use xlink:href="#DejaVuSans-31"/>
       <use xlink:href="#DejaVuSans-30" x="63.623047"/>
       <use xlink:href="#DejaVuSans-30" x="127.246094"/>
       <use xlink:href="#DejaVuSans-30" x="190.869141"/>
      </g>
     </g>
    </g>
    <g id="text_7">
     <!-- Order Index -->
     <g transform="translate(206.594375 335.860562)scale(0.1 -0.1)">
      <defs>
       <path id="DejaVuSans-4f" d="M 2522 4238 
Q 1834 4238 1429 3725 
Q 1025 3213 1025 2328 
Q 1025 1447 1429 934 
Q 1834 422 2522 422 
Q 3209 422 3611 934 
Q 4013 1447 4013 2328 
Q 4013 3213 3611 3725 
Q 3209 4238 2522 4238 
z
M 2522 4750 
Q 3503 4750 4090 4092 
Q 4678 3434 4678 2328 
Q 4678 1225 4090 567 
Q 3503 -91 2522 -91 
Q 1538 -91 948 565 
Q 359 1222 359 2328 
Q 359 3434 948 4092 
Q 1538 4750 2522 4750 
z
" transform="scale(0.015625)"/>
       <path id="DejaVuSans-72" d="M 2631 2963 
Q 2534 3019 2420 3045 
Q 2306 3072 2169 3072 
Q 1681 3072 1420 2755 
Q 1159 2438 1159 1844 
L 1159 0 
L 581 0 
L 581 3500 
L 1159 3500 
L 1159 2956 
Q 1341 3275 1631 3429 
Q 1922 3584 2338 3584 
Q 2397 3584 2469 3576 
Q 2541 3569 2628 3553 
L 2631 2963 
z
" transform="scale(0.015625)"/>
       <path id="DejaVuSans-64" d="M 2906 2969 
L 2906 4863 
L 3481 4863 
L 3481 0 
L 2906 0 
L 2906 525 
Q 2725 213 2448 61 
Q 2172 -91 1784 -91 
Q 1150 -91 751 415 
Q 353 922 353 1747 
Q 353 2572 751 3078 
Q 1150 3584 1784 3584 
Q 2172 3584 2448 3432 
Q 2725 3281 2906 2969 
z
M 947 1747 
Q 947 1113 1208 752 
Q 1469 391 1925 391 
Q 2381 391 2643 752 
Q 2906 1113 2906 1747 
Q 2906 2381 2643 2742 
Q 2381 3103 1925 3103 
Q 1469 3103 1208 2742 
Q 947 2381 947 1747 
z
" transform="scale(0.015625)"/>
       <path id="DejaVuSans-65" d="M 3597 1894 
L 3597 1613 
L 953 1613 
Q 991 1019 1311 708 
Q 1631 397 2203 397 
Q 2534 397 2845 478 
Q 3156 559 3463 722 
L 3463 178 
Q 3153 47 2828 -22 
Q 2503 -91 2169 -91 
Q 1331 -91 842 396 
Q 353 884 353 1716 
Q 353 2575 817 3079 
Q 1281 3584 2069 3584 
Q 2775 3584 3186 3129 
Q 3597 2675 3597 1894 
z
M 3022 2063 
Q 3016 2534 2758 2815 
Q 2500 3097 2075 3097 
Q 1594 3097 1305 2825 
Q 1016 2553 972 2059 
L 3022 2063 
z
" transform="scale(0.015625)"/>
       <path id="DejaVuSans-20" transform="scale(0.015625)"/>
       <path id="DejaVuSans-49" d="M 628 4666 
L 1259 4666 
L 1259 0 
L 628 0 
L 628 4666 
z
" transform="scale(0.015625)"/>
       <path id="DejaVuSans-6e" d="M 3513 2113 
L 3513 0 
L 2938 0 
L 2938 2094 
Q 2938 2591 2744 2837 
Q 2550 3084 2163 3084 
Q 1697 3084 1428 2787 
Q 1159 2491 1159 1978 
L 1159 0 
L 581 0 
L 581 3500 
L 1159 3500 
L 1159 2956 
Q 1366 3272 1645 3428 
Q 1925 3584 2291 3584 
Q 2894 3584 3203 3211 
Q 3513 2838 3513 2113 
z
" transform="scale(0.015625)"/>
       <path id="DejaVuSans-78" d="M 3513 3500 
L 2247 1797 
L 3578 0 
L 2900 0 
L 1881 1375 
L 863 0 
L 184 0 
L 1544 1831 
L 300 3500 
L 978 3500 
L 1906 2253 
L 2834 3500 
L 3513 3500 
z
" transform="scale(0.015625)"/>
      </defs>
      <use xlink:href="#DejaVuSans-4f"/>
      <use xlink:href="#DejaVuSans-72" x="78.710938"/>
      <use xlink:href="#DejaVuSans-64" x="118.074219"/>
      <use xlink:href="#DejaVuSans-65" x="181.550781"/>
      <use xlink:href="#DejaVuSans-72" x="243.074219"/>
      <use xlink:href="#DejaVuSans-20" x="284.1875"/>
      <use xlink:href="#DejaVuSans-49" x="315.974609"/>
      <use xlink:href="#DejaVuSans-6e" x="345.466797"/>
      <use xlink:href="#DejaVuSans-64" x="408.845703"/>
      <use xlink:href="#DejaVuSans-65" x="472.322266"/>
      <use xlink:href="#DejaVuSans-78" x="532.095703"/>
     </g>
    </g>
   </g>
   <g id="matplotlib.axis_2">
    <g id="ytick_1">
     <g id="line2d_7">
      <defs>
       <path id="ma19f7b877a" d="M 0 0 
L -3.5 0 
" style="stroke: #000000; stroke-width: 0.8"/>
      </defs>
      <g>
       <use xlink:href="#ma19f7b877a" x="57.6" y="295.488" style="stroke: #000000; stroke-width: 0.8"/>
      </g>
     </g>
     <g id="text_8">
      <!-- 0 -->
      <g transform="translate(44.2375 299.287219)scale(0.1 -0.1)">
       <use xlink:href="#DejaVuSans-30"/>
      </g>
     </g>
    </g>
    <g id="ytick_2">
     <g id="line2d_8">
      <g>
       <use xlink:href="#ma19f7b877a" x="57.6" y="252.202838" style="stroke: #000000; stroke-width: 0.8"/>
      </g>
     </g>
     <g id="text_9">
      <!-- 100 -->
      <g transform="translate(31.5125 256.002057)scale(0.1 -0.1)">
       <use xlink:href="#DejaVuSans-31"/>
       <use xlink:href="#DejaVuSans-30" x="63.623047"/>
       <use xlink:href="#DejaVuSans-30" x="127.246094"/>
      </g>
     </g>
    </g>
    <g id="ytick_3">
     <g id="line2d_9">
      <g>
       <use xlink:href="#ma19f7b877a" x="57.6" y="208.917676" style="stroke: #000000; stroke-width: 0.8"/>
      </g>
     </g>
     <g id="text_10">
      <!-- 200 -->
      <g transform="translate(31.5125 212.716894)scale(0.1 -0.1)">
       <use xlink:href="#DejaVuSans-32"/>
       <use xlink:href="#DejaVuSans-30" x="63.623047"/>
       <use xlink:href="#DejaVuSans-30" x="127.246094"/>
      </g>
     </g>
    </g>
    <g id="ytick_4">
     <g id="line2d_10">
      <g>
       <use xlink:href="#ma19f7b877a" x="57.6" y="165.632513" style="stroke: #000000; stroke-width: 0.8"/>
      </g>
     </g>
     <g id="text_11">
      <!-- 300 -->
      <g transform="translate(31.5125 169.431732)scale(0.1 -0.1)">
       <defs>
        <path id="DejaVuSans-33" d="M 2597 2516 
Q 3050 2419 3304 2112 
Q 3559 1806 3559 1356 
Q 3559 666 3084 287 
Q 2609 -91 1734 -91 
Q 1441 -91 1130 -33 
Q 819 25 488 141 
L 488 750 
Q 750 597 1062 519 
Q 1375 441 1716 441 
Q 2309 441 2620 675 
Q 2931 909 2931 1356 
Q 2931 1769 2642 2001 
Q 2353 2234 1838 2234 
L 1294 2234 
L 1294 2753 
L 1863 2753 
Q 2328 2753 2575 2939 
Q 2822 3125 2822 3475 
Q 2822 3834 2567 4026 
Q 2313 4219 1838 4219 
Q 1578 4219 1281 4162 
Q 984 4106 628 3988 
L 628 4550 
Q 988 4650 1302 4700 
Q 1616 4750 1894 4750 
Q 2613 4750 3031 4423 
Q 3450 4097 3450 3541 
Q 3450 3153 3228 2886 
Q 3006 2619 2597 2516 
z
" transform="scale(0.015625)"/>
       </defs>
       <use xlink:href="#DejaVuSans-33"/>
       <use xlink:href="#DejaVuSans-30" x="63.623047"/>
       <use xlink:href="#DejaVuSans-30" x="127.246094"/>
      </g>
     </g>
    </g>
    <g id="ytick_5">
     <g id="line2d_11">
      <g>
       <use xlink:href="#ma19f7b877a" x="57.6" y="122.347351" style="stroke: #000000; stroke-width: 0.8"/>
      </g>
     </g>
     <g id="text_12">
      <!-- 400 -->
      <g transform="translate(31.5125 126.14657)scale(0.1 -0.1)">
       <use xlink:href="#DejaVuSans-34"/>
       <use xlink:href="#DejaVuSans-30" x="63.623047"/>
       <use xlink:href="#DejaVuSans-30" x="127.246094"/>
      </g>
     </g>
    </g>
    <g id="ytick_6">
     <g id="line2d_12">
      <g>
       <use xlink:href="#ma19f7b877a" x="57.6" y="79.062189" style="stroke: #000000; stroke-width: 0.8"/>
      </g>
     </g>
     <g id="text_13">
      <!-- 500 -->
      <g transform="translate(31.5125 82.861408)scale(0.1 -0.1)">
       <defs>
        <path id="DejaVuSans-35" d="M 691 4666 
L 3169 4666 
L 3169 4134 
L 1269 4134 
L 1269 2991 
Q 1406 3038 1543 3061 
Q 1681 3084 1819 3084 
Q 2600 3084 3056 2656 
Q 3513 2228 3513 1497 
Q 3513 744 3044 326 
Q 2575 -91 1722 -91 
Q 1428 -91 1123 -41 
Q 819 9 494 109 
L 494 744 
Q 775 591 1075 516 
Q 1375 441 1709 441 
Q 2250 441 2565 725 
Q 2881 1009 2881 1497 
Q 2881 1984 2565 2268 
Q 2250 2553 1709 2553 
Q 1456 2553 1204 2497 
Q 953 2441 691 2322 
L 691 4666 
z
" transform="scale(0.015625)"/>
       </defs>
       <use xlink:href="#DejaVuSans-35"/>
       <use xlink:href="#DejaVuSans-30" x="63.623047"/>
       <use xlink:href="#DejaVuSans-30" x="127.246094"/>
      </g>
     </g>
    </g>
    <g id="text_14">
     <!-- Order Delivered Time -->
     <g transform="translate(25.432812 228.08425)rotate(-90)scale(0.1 -0.1)">
      <defs>
       <path id="DejaVuSans-44" d="M 1259 4147 
L 1259 519 
L 2022 519 
Q 2988 519 3436 956 
Q 3884 1394 3884 2338 
Q 3884 3275 3436 3711 
Q 2988 4147 2022 4147 
L 1259 4147 
z
M 628 4666 
L 1925 4666 
Q 3281 4666 3915 4102 
Q 4550 3538 4550 2338 
Q 4550 1131 3912 565 
Q 3275 0 1925 0 
L 628 0 
L 628 4666 
z
" transform="scale(0.015625)"/>
       <path id="DejaVuSans-6c" d="M 603 4863 
L 1178 4863 
L 1178 0 
L 603 0 
L 603 4863 
z
" transform="scale(0.015625)"/>
       <path id="DejaVuSans-69" d="M 603 3500 
L 1178 3500 
L 1178 0 
L 603 0 
L 603 3500 
z
M 603 4863 
L 1178 4863 
L 1178 4134 
L 603 4134 
L 603 4863 
z
" transform="scale(0.015625)"/>
       <path id="DejaVuSans-76" d="M 191 3500 
L 800 3500 
L 1894 563 
L 2988 3500 
L 3597 3500 
L 2284 0 
L 1503 0 
L 191 3500 
z
" transform="scale(0.015625)"/>
       <path id="DejaVuSans-54" d="M -19 4666 
L 3928 4666 
L 3928 4134 
L 2272 4134 
L 2272 0 
L 1638 0 
L 1638 4134 
L -19 4134 
L -19 4666 
z
" transform="scale(0.015625)"/>
       <path id="DejaVuSans-6d" d="M 3328 2828 
Q 3544 3216 3844 3400 
Q 4144 3584 4550 3584 
Q 5097 3584 5394 3201 
Q 5691 2819 5691 2113 
L 5691 0 
L 5113 0 
L 5113 2094 
Q 5113 2597 4934 2840 
Q 4756 3084 4391 3084 
Q 3944 3084 3684 2787 
Q 3425 2491 3425 1978 
L 3425 0 
L 2847 0 
L 2847 2094 
Q 2847 2600 2669 2842 
Q 2491 3084 2119 3084 
Q 1678 3084 1418 2786 
Q 1159 2488 1159 1978 
L 1159 0 
L 581 0 
L 581 3500 
L 1159 3500 
L 1159 2956 
Q 1356 3278 1631 3431 
Q 1906 3584 2284 3584 
Q 2666 3584 2933 3390 
Q 3200 3197 3328 2828 
z
" transform="scale(0.015625)"/>
      </defs>
      <use xlink:href="#DejaVuSans-4f"/>
      <use xlink:href="#DejaVuSans-72" x="78.710938"/>
      <use xlink:href="#DejaVuSans-64" x="118.074219"/>
      <use xlink:href="#DejaVuSans-65" x="181.550781"/>
      <use xlink:href="#DejaVuSans-72" x="243.074219"/>
      <use xlink:href="#DejaVuSans-20" x="284.1875"/>
      <use xlink:href="#DejaVuSans-44" x="315.974609"/>
      <use xlink:href="#DejaVuSans-65" x="392.976562"/>
      <use xlink:href="#DejaVuSans-6c" x="454.5"/>
      <use xlink:href="#DejaVuSans-69" x="482.283203"/>
      <use xlink:href="#DejaVuSans-76" x="510.066406"/>
      <use xlink:href="#DejaVuSans-65" x="569.246094"/>
      <use xlink:href="#DejaVuSans-72" x="630.769531"/>
      <use xlink:href="#DejaVuSans-65" x="669.632812"/>
      <use xlink:href="#DejaVuSans-64" x="731.15625"/>
      <use xlink:href="#DejaVuSans-20" x="794.632812"/>
      <use xlink:href="#DejaVuSans-54" x="826.419922"/>
      <use xlink:href="#DejaVuSans-69" x="884.378906"/>
      <use xlink:href="#DejaVuSans-6d" x="912.162109"/>
      <use xlink:href="#DejaVuSans-65" x="1009.574219"/>
     </g>
    </g>
   </g>
   <g id="line2d_13">
    <path d="M 73.832727 295.488 
L 74.145196 295.055148 
L 74.770132 295.055148 
L 75.395069 294.189445 
L 76.332474 294.189445 
L 76.644942 293.756594 
L 77.269878 293.756594 
L 77.582347 292.89089 
L 78.519752 292.89089 
L 79.144688 290.726632 
L 80.082093 290.726632 
L 80.394561 290.293781 
L 81.019498 290.293781 
L 81.331966 289.860929 
L 81.644434 289.860929 
L 81.956903 289.428077 
L 82.269371 289.428077 
L 82.581839 288.995226 
L 82.894307 288.995226 
L 83.206776 288.562374 
L 83.831712 288.562374 
L 85.081585 286.830968 
L 85.394054 286.830968 
L 85.706522 285.965264 
L 86.956395 285.965264 
L 87.268863 285.532413 
L 88.206268 285.532413 
L 88.518737 285.099561 
L 89.143673 285.099561 
L 89.456141 284.666709 
L 90.081078 284.666709 
L 90.393546 283.801006 
L 90.706015 283.801006 
L 91.018483 283.368155 
L 91.330951 283.368155 
L 91.643419 282.935303 
L 91.955888 282.935303 
L 92.268356 281.203896 
L 92.893293 281.203896 
L 93.518229 280.338193 
L 93.830697 280.338193 
L 94.143166 279.905342 
L 94.455634 279.039638 
L 95.705507 279.039638 
L 96.017975 278.606787 
L 96.642912 278.606787 
L 97.267848 277.741083 
L 98.205253 277.741083 
L 98.83019 276.87538 
L 99.455126 276.87538 
L 99.767595 276.442529 
L 100.080063 276.442529 
L 100.392531 275.576825 
L 100.705 275.143974 
L 101.329936 275.143974 
L 101.642404 274.711122 
L 102.267341 274.711122 
L 102.892278 273.845419 
L 103.204746 273.845419 
L 103.517214 273.412567 
L 103.829682 273.412567 
L 104.142151 272.979716 
L 104.767087 272.979716 
L 105.079556 272.114012 
L 105.392024 272.114012 
L 105.704492 271.681161 
L 106.329429 271.681161 
L 106.641897 271.248309 
L 106.954365 271.248309 
L 107.579302 270.382606 
L 108.204238 270.382606 
L 108.516707 269.949754 
L 108.829175 269.949754 
L 109.141643 269.516903 
L 110.079048 269.516903 
L 110.391516 269.084051 
L 110.703985 269.084051 
L 111.016453 268.651199 
L 111.641389 268.651199 
L 111.953858 268.218348 
L 112.266326 268.218348 
L 112.578794 267.785496 
L 114.141136 267.785496 
L 114.453604 266.919793 
L 114.766072 266.919793 
L 115.391009 266.05409 
L 115.703477 266.05409 
L 116.328414 265.188386 
L 116.95335 265.188386 
L 117.265819 264.755535 
L 117.578287 264.755535 
L 117.890755 264.322683 
L 118.82816 264.322683 
L 119.140628 263.889832 
L 120.078033 263.889832 
L 120.70297 263.024128 
L 121.327906 263.024128 
L 122.265311 261.725573 
L 123.202716 261.725573 
L 123.515184 261.292722 
L 123.827652 261.292722 
L 124.452589 260.427019 
L 124.765057 260.427019 
L 125.077526 259.994167 
L 126.01493 259.994167 
L 126.327399 259.128464 
L 126.639867 258.695612 
L 127.577272 258.695612 
L 128.202208 257.829909 
L 129.139613 257.829909 
L 129.452082 257.397057 
L 129.76455 257.397057 
L 130.077018 256.964206 
L 130.701955 256.964206 
L 131.014423 256.531354 
L 132.264296 256.531354 
L 132.576764 256.098502 
L 132.889233 256.098502 
L 133.201701 255.665651 
L 133.514169 255.665651 
L 133.826638 255.232799 
L 134.139106 254.367096 
L 135.076511 254.367096 
L 135.388979 253.934244 
L 136.013915 253.934244 
L 136.326384 253.501393 
L 136.638852 253.501393 
L 136.95132 253.068541 
L 137.263789 253.068541 
L 137.576257 252.635689 
L 137.888725 252.635689 
L 138.201193 251.337135 
L 138.513662 251.337135 
L 138.82613 250.904283 
L 139.451067 250.904283 
L 139.763535 250.471431 
L 140.076003 250.471431 
L 140.388471 250.03858 
L 140.70094 250.03858 
L 141.013408 249.605728 
L 141.638345 249.605728 
L 141.950813 249.172876 
L 142.575749 249.172876 
L 142.888218 248.307173 
L 143.513154 248.307173 
L 143.825623 247.874322 
L 144.450559 247.874322 
L 144.763027 247.44147 
L 145.075496 247.44147 
L 145.387964 247.008618 
L 145.700432 247.008618 
L 146.012901 246.575767 
L 146.325369 246.575767 
L 146.637837 246.142915 
L 146.950305 246.142915 
L 147.262774 245.710063 
L 147.88771 245.710063 
L 148.200178 244.84436 
L 148.512647 244.84436 
L 148.825115 244.411509 
L 149.137583 243.545805 
L 149.450052 243.545805 
L 149.76252 243.112954 
L 151.012393 243.112954 
L 151.324861 240.948696 
L 151.949798 240.948696 
L 152.887203 239.650141 
L 153.824608 239.650141 
L 154.137076 239.217289 
L 155.074481 239.217289 
L 155.699417 238.351586 
L 156.324354 236.620179 
L 157.261759 236.620179 
L 157.886695 235.754476 
L 158.511632 235.754476 
L 159.136568 234.888773 
L 160.386442 234.888773 
L 160.69891 234.455921 
L 161.011378 234.455921 
L 161.323846 234.02307 
L 161.636315 234.02307 
L 162.261251 233.157366 
L 163.198656 233.157366 
L 163.511124 232.724515 
L 163.823593 232.724515 
L 164.448529 231.858812 
L 164.760997 231.858812 
L 165.073466 231.42596 
L 165.385934 231.42596 
L 165.698402 230.993108 
L 166.323339 230.993108 
L 166.635807 230.127405 
L 167.573212 228.82885 
L 167.88568 228.82885 
L 168.510617 227.963147 
L 168.823085 227.963147 
L 169.448022 227.097444 
L 170.072958 227.097444 
L 170.385427 226.664592 
L 170.697895 226.664592 
L 171.947768 224.933186 
L 172.572705 224.933186 
L 172.885173 224.500334 
L 173.510109 224.500334 
L 174.135046 223.634631 
L 174.447514 223.634631 
L 174.759983 223.201779 
L 175.072451 223.201779 
L 175.384919 222.336076 
L 176.94726 222.336076 
L 177.572197 221.470373 
L 177.884665 221.470373 
L 178.197134 221.037521 
L 180.071943 221.037521 
L 180.384412 220.604669 
L 180.69688 220.604669 
L 181.009348 219.738966 
L 181.634285 218.873263 
L 181.946753 218.00756 
L 182.884158 218.00756 
L 183.196626 217.574708 
L 184.134031 217.574708 
L 184.446499 217.141856 
L 185.383904 217.141856 
L 185.696372 216.709005 
L 186.008841 216.709005 
L 186.321309 216.276153 
L 186.633777 216.276153 
L 186.946246 215.843302 
L 187.571182 215.843302 
L 187.88365 215.41045 
L 189.133523 215.41045 
L 189.445992 214.977598 
L 189.75846 214.977598 
L 190.070928 214.544747 
L 190.695865 214.544747 
L 191.008333 213.679043 
L 191.63327 213.679043 
L 191.945738 213.246192 
L 193.195611 213.246192 
L 193.820548 212.380489 
L 194.757953 212.380489 
L 195.070421 211.081934 
L 195.382889 211.081934 
L 196.007826 210.21623 
L 196.632762 210.21623 
L 196.945231 209.783379 
L 197.257699 209.783379 
L 197.882635 208.917676 
L 198.507572 208.917676 
L 199.132509 208.051972 
L 200.069913 208.051972 
L 200.382382 206.753417 
L 200.69485 206.753417 
L 201.007318 205.887714 
L 201.319787 205.887714 
L 201.944723 205.022011 
L 202.257191 205.022011 
L 202.882128 204.156308 
L 203.194596 204.156308 
L 203.507064 203.723456 
L 204.756938 203.723456 
L 205.069406 203.290604 
L 205.694342 203.290604 
L 206.006811 202.424901 
L 206.631747 202.424901 
L 206.944216 201.559198 
L 207.256684 201.559198 
L 207.569152 201.126346 
L 207.88162 201.126346 
L 208.506557 200.260643 
L 208.819025 200.260643 
L 209.443962 199.39494 
L 209.75643 199.39494 
L 210.068898 198.962088 
L 210.693835 198.962088 
L 211.006303 198.529237 
L 211.943708 198.529237 
L 212.256176 198.096385 
L 213.193581 198.096385 
L 213.50605 197.663533 
L 213.818518 197.663533 
L 214.130986 197.230682 
L 214.443454 197.230682 
L 214.755923 196.79783 
L 215.068391 196.79783 
L 215.693328 195.932127 
L 216.318264 195.932127 
L 216.630732 195.066424 
L 216.943201 195.066424 
L 217.255669 194.20072 
L 217.568137 194.20072 
L 217.880605 193.767869 
L 218.81801 193.767869 
L 219.130479 193.335017 
L 219.755415 193.335017 
L 220.067883 192.902166 
L 220.380352 192.902166 
L 220.69282 192.469314 
L 221.317757 192.469314 
L 221.630225 192.036462 
L 221.942693 192.036462 
L 222.56763 191.170759 
L 222.880098 191.170759 
L 223.192566 190.737907 
L 223.505035 190.737907 
L 223.817503 190.305056 
L 224.442439 190.305056 
L 224.754908 189.439353 
L 225.067376 189.439353 
L 225.379844 189.006501 
L 225.692313 189.006501 
L 226.317249 188.140798 
L 226.629717 188.140798 
L 226.942186 187.707946 
L 227.254654 187.707946 
L 227.567122 187.275094 
L 227.879591 187.275094 
L 228.192059 186.409391 
L 228.504527 186.409391 
L 229.7544 184.677985 
L 230.066868 184.677985 
L 230.379337 184.245133 
L 231.004273 184.245133 
L 231.316742 183.812281 
L 231.62921 183.812281 
L 231.941678 183.37943 
L 232.566615 183.37943 
L 232.879083 182.946578 
L 233.191551 182.946578 
L 233.50402 182.513727 
L 234.128956 182.513727 
L 234.441424 182.080875 
L 235.066361 182.080875 
L 235.378829 181.648023 
L 236.316234 181.648023 
L 236.628702 181.215172 
L 236.941171 181.215172 
L 237.566107 180.349468 
L 237.878576 180.349468 
L 238.191044 179.916617 
L 238.503512 179.050914 
L 238.81598 179.050914 
L 239.128449 178.618062 
L 240.065854 178.618062 
L 240.378322 178.18521 
L 240.69079 178.18521 
L 241.003258 177.752359 
L 241.940663 177.752359 
L 242.253132 177.319507 
L 242.5656 177.319507 
L 242.878068 176.453804 
L 243.190536 176.453804 
L 243.503005 176.020952 
L 244.127941 176.020952 
L 244.440409 175.588101 
L 244.752878 175.588101 
L 245.065346 175.155249 
L 245.377814 175.155249 
L 245.690283 174.722397 
L 246.315219 174.722397 
L 246.627687 174.289546 
L 247.252624 174.289546 
L 247.565092 173.856694 
L 247.877561 173.856694 
L 248.190029 173.423843 
L 248.814965 173.423843 
L 249.439902 172.558139 
L 249.75237 172.558139 
L 250.064839 172.125288 
L 250.689775 172.125288 
L 251.002243 171.692436 
L 251.62718 171.692436 
L 251.939648 171.259584 
L 252.564585 171.259584 
L 252.877053 170.826733 
L 253.50199 170.826733 
L 253.814458 170.393881 
L 254.439395 170.393881 
L 255.064331 169.528178 
L 255.689268 169.528178 
L 256.001736 169.095326 
L 256.939141 169.095326 
L 257.251609 168.662475 
L 257.876546 168.662475 
L 258.501482 167.796771 
L 259.126419 167.796771 
L 259.438887 167.36392 
L 259.751355 167.36392 
L 260.063824 166.931068 
L 260.68876 166.931068 
L 261.001228 166.498217 
L 261.626165 166.498217 
L 261.938633 166.065365 
L 262.876038 166.065365 
L 263.188506 165.632513 
L 263.813443 165.632513 
L 264.43838 164.76681 
L 265.375784 164.76681 
L 266.000721 163.901107 
L 266.313189 163.901107 
L 266.938126 163.035404 
L 267.563062 163.035404 
L 267.875531 162.602552 
L 268.500467 162.602552 
L 268.812936 162.1697 
L 269.125404 161.303997 
L 270.062809 161.303997 
L 270.375277 160.871145 
L 271.62515 160.871145 
L 271.937618 160.438294 
L 272.562555 160.438294 
L 272.875023 160.005442 
L 273.812428 160.005442 
L 274.124896 159.572591 
L 274.437365 159.572591 
L 274.749833 159.139739 
L 275.374769 159.139739 
L 275.687238 158.706887 
L 276.937111 158.706887 
L 277.249579 158.274036 
L 277.874516 158.274036 
L 278.186984 157.841184 
L 278.811921 157.841184 
L 279.124389 157.408333 
L 279.436857 157.408333 
L 279.749325 156.975481 
L 280.374262 156.975481 
L 280.999199 156.109778 
L 281.936603 156.109778 
L 282.56154 155.244074 
L 283.811413 155.244074 
L 285.061286 153.512668 
L 285.373754 153.512668 
L 285.686223 152.646965 
L 285.998691 152.214113 
L 286.311159 152.214113 
L 286.623628 151.34841 
L 286.936096 151.34841 
L 287.248564 150.915558 
L 287.873501 150.915558 
L 288.185969 150.482707 
L 288.498437 150.482707 
L 289.435842 149.184152 
L 289.74831 148.318448 
L 290.060779 148.318448 
L 290.373247 147.885597 
L 290.685715 147.885597 
L 290.998184 147.452745 
L 292.248057 147.452745 
L 292.560525 147.019894 
L 293.49793 147.019894 
L 293.810398 146.587042 
L 295.060271 146.587042 
L 295.37274 146.15419 
L 295.997676 146.15419 
L 296.310144 145.721339 
L 296.935081 145.721339 
L 297.560017 144.855635 
L 298.184954 144.855635 
L 298.497422 144.422784 
L 298.809891 144.422784 
L 299.122359 143.989932 
L 300.059764 143.989932 
L 300.6847 143.124229 
L 300.997169 143.124229 
L 301.309637 142.691377 
L 302.871978 142.691377 
L 303.184447 142.258526 
L 303.496915 142.258526 
L 303.809383 141.825674 
L 304.121851 141.825674 
L 304.43432 141.392822 
L 305.371725 141.392822 
L 305.684193 140.959971 
L 305.996661 140.959971 
L 306.309129 140.527119 
L 306.621598 140.527119 
L 306.934066 140.094268 
L 307.246534 140.094268 
L 307.559003 139.661416 
L 308.183939 139.661416 
L 308.808876 138.795713 
L 309.121344 138.795713 
L 309.433812 138.362861 
L 310.683685 138.362861 
L 310.996154 137.93001 
L 311.308622 137.93001 
L 311.62109 137.497158 
L 311.933558 137.497158 
L 312.558495 135.765751 
L 312.870963 135.765751 
L 313.183432 135.3329 
L 313.4959 135.3329 
L 313.808368 134.900048 
L 314.120836 134.900048 
L 314.433305 134.467197 
L 315.683178 134.467197 
L 315.995646 134.034345 
L 316.933051 134.034345 
L 317.245519 133.601493 
L 317.557988 133.601493 
L 317.870456 133.168642 
L 318.495392 133.168642 
L 318.807861 132.73579 
L 319.120329 132.73579 
L 319.432797 131.437235 
L 320.057734 131.437235 
L 320.370202 130.571532 
L 320.68267 130.13868 
L 320.995139 130.13868 
L 321.307607 129.705829 
L 321.932544 127.974422 
L 322.869948 127.974422 
L 323.182417 127.541571 
L 323.494885 127.541571 
L 323.807353 127.108719 
L 324.744758 127.108719 
L 325.057226 126.675867 
L 325.369695 126.675867 
L 325.682163 126.243016 
L 326.619568 126.243016 
L 327.244504 125.377312 
L 327.869441 125.377312 
L 328.181909 124.944461 
L 328.806846 124.944461 
L 329.431782 124.078758 
L 330.056719 124.078758 
L 330.369187 123.645906 
L 330.994124 123.645906 
L 331.306592 123.213054 
L 331.931529 123.213054 
L 332.243997 122.780203 
L 332.556465 122.780203 
L 332.868933 122.347351 
L 334.118807 122.347351 
L 334.743743 121.481648 
L 335.056211 121.481648 
L 335.36868 121.048796 
L 335.993616 121.048796 
L 336.306085 120.615945 
L 336.931021 120.615945 
L 337.555958 119.750241 
L 337.868426 119.750241 
L 338.180894 119.31739 
L 339.430767 119.31739 
L 339.743236 118.884538 
L 340.055704 118.018835 
L 340.68064 118.018835 
L 340.993109 117.585983 
L 341.930514 117.585983 
L 342.55545 116.72028 
L 342.867918 116.72028 
L 343.492855 115.854577 
L 343.805323 115.854577 
L 344.117792 115.421725 
L 344.43026 115.421725 
L 344.742728 114.556022 
L 345.680133 114.556022 
L 345.992601 114.12317 
L 346.30507 114.12317 
L 346.617538 113.690319 
L 347.242474 113.690319 
L 347.554943 113.257467 
L 347.867411 113.257467 
L 348.179879 112.824615 
L 348.492348 112.824615 
L 348.804816 112.391764 
L 349.429752 112.391764 
L 349.742221 111.958912 
L 350.679626 111.958912 
L 351.304562 111.093209 
L 351.929499 111.093209 
L 352.866903 109.794654 
L 353.49184 109.794654 
L 353.804308 109.361802 
L 354.741713 109.361802 
L 355.36665 108.496099 
L 355.679118 108.496099 
L 355.991586 108.063248 
L 356.616523 108.063248 
L 356.928991 107.630396 
L 358.178864 107.630396 
L 358.491333 107.197544 
L 359.116269 107.197544 
L 359.428737 106.764693 
L 359.741206 106.764693 
L 360.053674 106.331841 
L 360.678611 106.331841 
L 360.991079 105.898989 
L 361.616015 105.898989 
L 362.240952 105.033286 
L 362.865889 105.033286 
L 363.178357 104.600435 
L 363.490825 104.600435 
L 363.803293 104.167583 
L 364.42823 104.167583 
L 364.740698 103.734731 
L 365.053167 103.734731 
L 365.365635 103.30188 
L 365.990571 103.30188 
L 366.615508 102.436176 
L 366.927976 102.436176 
L 367.240444 102.003325 
L 367.552913 102.003325 
L 368.177849 100.271918 
L 369.115254 100.271918 
L 369.427722 99.839067 
L 370.052659 99.839067 
L 370.365127 99.406215 
L 370.677596 99.406215 
L 370.990064 98.973364 
L 371.302532 98.973364 
L 371.927469 98.10766 
L 372.239937 98.10766 
L 372.552405 97.674809 
L 372.864874 97.674809 
L 374.114747 95.943402 
L 375.052152 95.943402 
L 375.36462 94.644847 
L 375.677088 94.644847 
L 375.989556 94.211996 
L 377.551898 94.211996 
L 377.864366 93.779144 
L 378.176834 92.913441 
L 378.489303 92.480589 
L 378.801771 92.480589 
L 379.114239 92.047738 
L 379.426707 92.047738 
L 379.739176 91.614886 
L 380.051644 91.614886 
L 380.364112 90.749183 
L 380.676581 90.749183 
L 381.301517 89.883479 
L 381.926454 89.883479 
L 382.863859 88.584925 
L 383.488795 88.584925 
L 383.801263 88.152073 
L 384.113732 88.152073 
L 384.4262 87.719221 
L 384.738668 87.719221 
L 385.363605 86.853518 
L 385.676073 86.853518 
L 385.988541 86.420666 
L 386.613478 86.420666 
L 387.238415 85.554963 
L 387.550883 85.554963 
L 388.175819 84.68926 
L 388.488288 84.68926 
L 389.113224 83.823557 
L 389.425693 83.823557 
L 389.738161 83.390705 
L 390.050629 83.390705 
L 390.363097 82.957853 
L 390.988034 82.957853 
L 391.300502 82.525002 
L 391.612971 82.525002 
L 391.925439 82.09215 
L 392.862844 82.09215 
L 393.175312 81.659299 
L 393.800248 81.659299 
L 394.112717 81.226447 
L 395.675058 81.226447 
L 395.987526 80.793595 
L 396.924931 80.793595 
L 397.549868 79.927892 
L 398.174804 79.927892 
L 398.487273 79.495041 
L 398.487273 79.495041 
" clip-path="url(#p79d2f63799)" style="fill: none; stroke: #32cd32; stroke-linecap: square"/>
   </g>
   <g id="line2d_14">
    <path d="M 73.832727 281.435797 
L 74.145196 286.830968 
L 74.457664 280.338193 
L 74.770132 280.395346 
L 75.0826 271.421226 
L 75.707537 281.92171 
L 76.020005 278.565656 
L 76.332474 281.103671 
L 76.644942 276.975054 
L 76.95741 267.708696 
L 77.269878 271.039099 
L 77.582347 269.013855 
L 77.894815 274.743229 
L 78.207283 266.220544 
L 78.519752 281.617113 
L 78.83222 268.168477 
L 79.144688 279.167459 
L 79.457156 268.495668 
L 79.769625 270.984072 
L 80.082093 275.964239 
L 80.394561 270.714849 
L 80.707029 278.157312 
L 81.019498 272.765412 
L 81.331966 276.112239 
L 81.644434 276.933353 
L 81.956903 268.657759 
L 82.269371 275.036502 
L 82.581839 263.334405 
L 82.894307 271.001298 
L 83.206776 265.587101 
L 83.519244 273.743533 
L 83.831712 272.390743 
L 84.144181 275.143974 
L 84.456649 274.104602 
L 84.769117 260.949465 
L 85.081585 272.286688 
L 85.394054 263.912629 
L 85.706522 269.147368 
L 86.01899 277.741083 
L 86.331459 257.778029 
L 86.643927 258.758832 
L 86.956395 268.764332 
L 87.268863 274.689533 
L 87.581332 273.97324 
L 87.8938 268.331481 
L 88.206268 275.341352 
L 88.518737 271.845428 
L 88.831205 275.576825 
L 89.143673 264.270312 
L 89.456141 262.246407 
L 89.76861 272.908068 
L 90.081078 268.850026 
L 90.393546 268.543655 
L 90.706015 270.261918 
L 91.018483 270.382606 
L 91.330951 269.504183 
L 91.643419 265.621238 
L 91.955888 266.676951 
L 92.268356 270.382606 
L 92.580824 259.785585 
L 93.205761 264.407735 
L 93.518229 262.150412 
L 93.830697 261.352568 
L 94.143166 264.74472 
L 94.455634 253.57038 
L 94.768102 264.009696 
L 95.08057 263.539805 
L 95.393039 265.953865 
L 95.705507 252.76313 
L 96.017975 262.286657 
L 96.330444 256.501324 
L 96.95538 267.223559 
L 97.267848 264.486951 
L 97.580317 262.922242 
L 97.892785 253.915182 
L 98.205253 264.109537 
L 98.517722 261.643496 
L 99.142658 258.832684 
L 99.455126 265.485449 
L 99.767595 257.569895 
L 100.080063 258.513949 
L 100.392531 246.99165 
L 100.705 255.861917 
L 101.017468 253.49521 
L 101.329936 254.963229 
L 101.642404 263.955254 
L 101.954873 255.960161 
L 102.267341 261.975673 
L 102.579809 263.794801 
L 102.892278 264.688229 
L 103.204746 256.600833 
L 103.517214 264.588816 
L 103.829682 243.359874 
L 104.142151 256.298824 
L 104.454619 259.547802 
L 104.767087 252.710287 
L 105.079556 260.78181 
L 105.392024 256.367927 
L 105.704492 259.520456 
L 106.01696 249.034462 
L 106.329429 258.638153 
L 106.641897 253.899671 
L 106.954365 259.689136 
L 107.266833 249.372061 
L 107.579302 259.970193 
L 107.89177 253.784809 
L 108.204238 258.346626 
L 108.516707 250.010683 
L 108.829175 246.731871 
L 109.141643 238.494653 
L 109.454111 252.853524 
L 109.76658 244.166496 
L 110.079048 252.5459 
L 110.391516 253.999417 
L 110.703985 252.711255 
L 111.016453 253.888806 
L 111.328921 259.128464 
L 111.641389 254.367096 
L 111.953858 253.133714 
L 112.266326 256.828416 
L 112.578794 253.311332 
L 112.891263 255.171275 
L 113.203731 251.760154 
L 113.516199 251.299566 
L 113.828667 244.697187 
L 114.141136 240.748296 
L 114.766072 251.296004 
L 115.078541 243.700307 
L 115.391009 252.190118 
L 115.703477 248.714085 
L 116.015945 246.870277 
L 116.328414 251.136184 
L 116.640882 236.350237 
L 116.95335 247.874322 
L 117.265819 242.746373 
L 117.578287 244.404747 
L 117.890755 238.179208 
L 118.203223 248.906444 
L 118.515692 254.340148 
L 118.82816 249.470155 
L 119.140628 251.509639 
L 119.453097 246.068246 
L 119.765565 255.06608 
L 120.078033 249.127439 
L 120.390501 248.694587 
L 120.70297 255.232799 
L 121.015438 251.691926 
L 121.327906 254.367096 
L 121.640374 240.413976 
L 121.952843 247.498623 
L 122.265311 241.428972 
L 122.577779 232.737004 
L 122.890248 247.333998 
L 123.202716 244.515896 
L 123.515184 248.602455 
L 123.827652 249.376332 
L 124.452589 244.896037 
L 124.765057 235.672214 
L 125.077526 243.611893 
L 125.389994 239.034821 
L 125.702462 248.604236 
L 126.01493 251.664959 
L 126.327399 242.822264 
L 126.639867 248.713076 
L 126.952335 241.733554 
L 127.264804 250.366404 
L 127.577272 250.642169 
L 128.202208 247.417496 
L 128.514677 228.824689 
L 128.827145 232.213125 
L 129.139613 233.92595 
L 129.452082 240.292795 
L 129.76455 232.412854 
L 130.077018 242.419926 
L 130.389486 240.889852 
L 130.701955 247.320224 
L 131.014423 237.788038 
L 131.63936 246.047885 
L 131.951828 237.168976 
L 132.264296 238.776116 
L 132.576764 238.318339 
L 132.889233 244.322101 
L 133.201701 228.650049 
L 133.514169 241.76365 
L 133.826638 236.520109 
L 134.139106 233.935424 
L 134.451574 244.150791 
L 134.764042 243.273046 
L 135.076511 237.027091 
L 135.388979 233.563191 
L 135.701447 233.104996 
L 136.013915 240.597485 
L 136.326384 237.7149 
L 136.638852 226.07005 
L 137.263789 244.411509 
L 137.576257 224.357961 
L 137.888725 232.724515 
L 138.201193 227.076342 
L 138.513662 233.988497 
L 138.82613 232.596959 
L 139.138598 233.157366 
L 139.451067 237.485883 
L 139.763535 232.092958 
L 140.076003 234.013664 
L 140.388471 238.333582 
L 140.70094 229.857835 
L 141.013408 237.469259 
L 141.325876 218.958437 
L 141.638345 234.199993 
L 141.950813 232.866677 
L 142.263281 229.579635 
L 142.575749 241.119433 
L 142.888218 239.650141 
L 143.200686 226.738978 
L 143.513154 232.000974 
L 143.825623 229.409463 
L 144.138091 229.354813 
L 144.763027 226.796367 
L 145.075496 228.079092 
L 145.387964 235.676416 
L 145.700432 232.7125 
L 146.012901 218.041535 
L 146.325369 237.875873 
L 146.637837 222.36857 
L 146.950305 231.245682 
L 147.262774 236.066082 
L 147.88771 221.117654 
L 148.200178 230.184558 
L 148.512647 235.230248 
L 148.825115 233.236728 
L 149.137583 220.344734 
L 149.450052 227.163532 
L 149.76252 218.867985 
L 150.074988 213.569052 
L 150.387456 228.050154 
L 150.699925 234.289202 
L 151.012393 220.864143 
L 151.324861 231.334584 
L 151.63733 229.243698 
L 151.949798 212.891394 
L 152.262266 231.119413 
L 152.574734 222.327755 
L 152.887203 227.945143 
L 153.199671 218.282126 
L 153.512139 228.317938 
L 154.137076 218.20623 
L 154.449544 223.5935 
L 154.762012 221.069628 
L 155.074481 216.066756 
L 156.011886 226.643003 
L 156.324354 219.702958 
L 156.636822 224.915181 
L 156.94929 223.188266 
L 157.261759 210.529214 
L 157.574227 224.464387 
L 157.886695 217.875153 
L 158.199164 218.783473 
L 158.511632 222.711468 
L 158.8241 219.217984 
L 159.136568 212.18861 
L 159.449037 220.83657 
L 159.761505 218.070877 
L 160.073973 213.277141 
L 160.386442 218.668868 
L 160.69891 209.230121 
L 161.011378 217.2725 
L 161.323846 207.789224 
L 161.636315 209.516178 
L 161.948783 218.827825 
L 162.261251 218.040085 
L 162.573719 220.543146 
L 162.886188 216.375826 
L 163.198656 217.141856 
L 163.511124 221.946728 
L 163.823593 215.691115 
L 164.136061 222.895232 
L 164.448529 203.984744 
L 165.073466 222.336076 
L 165.385934 208.824358 
L 165.698402 210.669387 
L 166.010871 203.968379 
L 166.323339 216.830184 
L 166.948275 211.839939 
L 167.260744 206.475068 
L 167.573212 216.860888 
L 167.88568 215.714719 
L 168.198149 213.945344 
L 168.510617 199.020432 
L 168.823085 216.258149 
L 169.135553 207.612141 
L 169.448022 204.542433 
L 169.76049 212.897965 
L 170.072958 212.369106 
L 170.385427 216.25218 
L 170.697895 208.843007 
L 171.010363 208.410155 
L 171.322831 210.38265 
L 171.6353 210.660481 
L 171.947768 209.433352 
L 172.260236 211.069214 
L 172.572705 211.069214 
L 172.885173 212.380489 
L 173.197641 207.718794 
L 173.510109 206.232722 
L 173.822578 200.737948 
L 174.135046 208.041672 
L 174.759983 201.708338 
L 175.072451 212.837462 
L 175.697387 202.792987 
L 176.009856 204.068464 
L 176.322324 203.654089 
L 176.634792 212.939645 
L 176.94726 210.035988 
L 177.259729 200.106834 
L 177.572197 203.541793 
L 177.884665 198.258092 
L 178.197134 203.108941 
L 178.509602 205.887714 
L 178.82207 202.28656 
L 179.134538 203.182907 
L 179.447007 208.484824 
L 179.759475 205.413732 
L 180.071943 200.260643 
L 180.384412 206.702669 
L 180.69688 210.005504 
L 181.009348 203.79257 
L 181.321816 204.287152 
L 181.634285 202.857753 
L 181.946753 207.524091 
L 182.259221 203.856858 
L 182.57169 189.443597 
L 182.884158 188.459595 
L 183.196626 199.646128 
L 183.509094 206.146666 
L 183.821563 208.02121 
L 184.134031 194.920852 
L 184.446499 208.200504 
L 184.758968 194.355222 
L 185.071436 194.081548 
L 185.696372 202.376954 
L 186.008841 197.821246 
L 186.321309 203.392401 
L 186.633777 198.257815 
L 186.946246 190.662563 
L 187.571182 202.729171 
L 187.88365 202.07369 
L 188.196119 206.753417 
L 188.508587 206.753417 
L 188.821055 203.290604 
L 189.133523 195.724574 
L 189.445992 199.446617 
L 189.75846 198.269159 
L 190.070928 202.697893 
L 190.383397 198.798662 
L 190.695865 188.154917 
L 191.008333 201.83219 
L 191.320801 198.561762 
L 191.63327 197.693092 
L 191.945738 196.346959 
L 192.258206 191.947614 
L 192.570675 199.046713 
L 192.883143 197.26024 
L 193.195611 188.833151 
L 193.508079 193.738052 
L 193.820548 192.441417 
L 194.133016 192.009435 
L 194.445484 188.37995 
L 194.757953 189.405215 
L 195.070421 201.528436 
L 195.382889 191.603611 
L 195.695357 194.574729 
L 196.007826 201.516337 
L 196.320294 195.453837 
L 196.632762 192.436067 
L 196.945231 194.088053 
L 197.257699 182.522875 
L 197.570167 197.922485 
L 197.882635 186.159814 
L 198.195104 200.217782 
L 198.507572 200.260643 
L 198.82004 184.808331 
L 199.132509 186.785065 
L 199.444977 190.330056 
L 199.757445 190.230387 
L 200.069913 187.092626 
L 200.382382 181.886104 
L 200.69485 188.233909 
L 201.007318 191.496139 
L 201.319787 190.141629 
L 201.632255 177.211563 
L 201.944723 194.538542 
L 202.257191 186.770322 
L 202.56966 173.879894 
L 203.194596 184.670773 
L 203.507064 186.761398 
L 203.819533 192.018458 
L 204.132001 182.205056 
L 204.444469 176.444788 
L 204.756938 182.205056 
L 205.069406 172.18992 
L 205.381874 188.83995 
L 205.694342 186.046019 
L 206.006811 191.250121 
L 206.319279 177.476195 
L 206.631747 180.17609 
L 206.944216 173.161394 
L 207.256684 179.891903 
L 207.569152 189.158384 
L 207.88162 184.209125 
L 208.194089 182.545834 
L 208.506557 185.441802 
L 208.819025 182.340258 
L 209.131494 180.597112 
L 209.443962 182.6134 
L 209.75643 170.38972 
L 210.068898 182.008982 
L 210.381367 170.594242 
L 210.693835 182.044866 
L 211.006303 172.596653 
L 211.318772 182.742744 
L 211.63124 177.389695 
L 211.943708 187.622225 
L 212.256176 189.667839 
L 212.568645 184.624088 
L 212.881113 183.800267 
L 213.193581 177.854183 
L 213.50605 183.966672 
L 214.130986 170.306577 
L 214.443454 188.953214 
L 214.755923 171.432527 
L 215.068391 187.153848 
L 215.693328 174.289546 
L 216.005796 177.381502 
L 216.318264 182.832159 
L 216.630732 180.915722 
L 216.943201 177.717786 
L 217.255669 181.273144 
L 217.568137 174.345514 
L 217.880605 180.840292 
L 218.193074 180.431109 
L 218.505542 172.069789 
L 218.81801 177.742526 
L 219.130479 174.622327 
L 219.442947 179.471045 
L 219.755415 158.346839 
L 220.067883 176.886656 
L 220.380352 179.153476 
L 221.005288 162.70874 
L 221.317757 176.612527 
L 221.942693 165.195057 
L 222.255161 174.849422 
L 222.56763 167.791223 
L 222.880098 172.095471 
L 223.192566 178.961506 
L 223.817503 173.104124 
L 224.129971 179.462177 
L 224.442439 167.244748 
L 224.754908 167.190541 
L 225.067376 175.143235 
L 225.379844 162.004597 
L 225.692313 172.902861 
L 226.004781 170.752064 
L 226.317249 175.760605 
L 226.629717 173.023516 
L 226.942186 178.063964 
L 227.254654 169.568326 
L 227.567122 170.321988 
L 227.879591 171.858855 
L 228.192059 162.941326 
L 228.504527 164.000856 
L 228.816995 168.056155 
L 229.129464 178.083028 
L 229.441932 167.231514 
L 229.7544 164.327197 
L 230.379337 173.832721 
L 230.691805 168.141493 
L 231.004273 169.619815 
L 231.316742 167.448971 
L 231.62921 174.79557 
L 231.941678 170.811293 
L 232.254146 161.243994 
L 232.566615 164.759083 
L 232.879083 163.482692 
L 233.191551 166.056351 
L 233.816488 159.051181 
L 234.128956 168.624381 
L 234.441424 169.894826 
L 234.753893 161.389512 
L 235.066361 167.455557 
L 235.378829 167.708188 
L 235.691298 159.239489 
L 236.003766 171.692436 
L 236.316234 171.77457 
L 236.628702 162.403224 
L 237.253639 171.551952 
L 237.566107 167.13703 
L 237.878576 169.174688 
L 238.191044 169.934081 
L 238.503512 149.328884 
L 238.81598 153.493003 
L 239.128449 146.699699 
L 239.440917 168.828788 
L 239.753385 163.81048 
L 240.065854 168.134593 
L 240.378322 160.74206 
L 240.69079 157.148364 
L 241.003258 160.300657 
L 241.315727 166.324317 
L 241.628195 167.690199 
L 241.940663 146.460701 
L 242.253132 155.801107 
L 242.5656 156.276221 
L 242.878068 155.782248 
L 243.190536 151.879433 
L 243.503005 164.926902 
L 243.815473 146.953399 
L 244.127941 157.833171 
L 244.440409 155.676926 
L 245.065346 139.444732 
L 245.377814 149.75523 
L 245.690283 147.642534 
L 246.002751 156.802012 
L 246.315219 150.169437 
L 246.627687 155.762251 
L 246.940156 157.581106 
L 247.252624 161.405794 
L 247.565092 162.1697 
L 247.877561 163.874158 
L 248.502497 153.959956 
L 248.814965 155.244074 
L 249.127434 151.572679 
L 249.439902 153.807178 
L 249.75237 151.418597 
L 250.064839 160.208898 
L 250.377307 151.944543 
L 251.002243 155.835649 
L 251.314712 146.506685 
L 251.62718 156.488691 
L 251.939648 160.776115 
L 252.564585 139.657685 
L 252.877053 150.348095 
L 253.189521 156.494682 
L 253.50199 149.867386 
L 253.814458 151.711894 
L 254.126926 155.57504 
L 254.439395 144.969105 
L 255.376799 154.868376 
L 255.689268 144.297377 
L 256.001736 157.318925 
L 256.314204 142.861481 
L 256.626672 158.31754 
L 256.939141 145.944793 
L 257.251609 151.763242 
L 257.564077 154.798503 
L 257.876546 152.66666 
L 258.189014 156.109778 
L 258.501482 153.64607 
L 258.81395 152.593026 
L 259.438887 156.880451 
L 259.751355 134.552485 
L 260.063824 151.235742 
L 260.376292 155.208128 
L 260.68876 153.458771 
L 261.001228 141.14781 
L 261.313697 141.312465 
L 261.938633 146.754042 
L 262.56357 154.890584 
L 262.876038 151.591201 
L 263.188506 157.770942 
L 263.500975 156.93262 
L 263.813443 143.98375 
L 264.125911 156.499769 
L 264.43838 142.188487 
L 264.750848 143.937561 
L 265.063316 148.28088 
L 265.375784 150.292646 
L 265.688253 153.850489 
L 266.000721 150.269561 
L 266.313189 144.358018 
L 266.625658 154.071824 
L 266.938126 153.771027 
L 267.250594 152.436238 
L 267.563062 148.273011 
L 267.875531 148.128388 
L 268.187999 151.17451 
L 268.500467 141.109111 
L 268.812936 151.34841 
L 269.125404 136.018283 
L 269.75034 145.887758 
L 270.062809 150.209947 
L 270.375277 135.600392 
L 270.687745 144.053249 
L 271.000213 147.785372 
L 271.62515 144.116957 
L 271.937618 139.478947 
L 272.250087 141.56566 
L 272.562555 148.058101 
L 272.875023 143.901802 
L 273.187491 151.951999 
L 273.49996 138.694215 
L 273.812428 145.953239 
L 274.124896 134.85373 
L 274.437365 149.51043 
L 274.749833 141.000119 
L 275.062301 145.600651 
L 275.374769 143.08496 
L 275.687238 138.437458 
L 275.999706 136.523615 
L 276.312174 130.601853 
L 276.624643 145.438913 
L 276.937111 140.567267 
L 277.249579 144.20945 
L 277.562047 134.938939 
L 277.874516 145.957838 
L 278.186984 138.559128 
L 278.499452 142.084981 
L 278.811921 140.329806 
L 279.124389 144.071573 
L 279.436857 144.422784 
L 279.749325 137.318038 
L 280.061794 138.355134 
L 280.374262 144.707746 
L 280.68673 141.523667 
L 280.999199 145.510612 
L 281.311667 133.689475 
L 281.624135 143.374328 
L 281.936603 136.645891 
L 282.249072 145.69439 
L 282.56154 132.788521 
L 282.874008 139.497989 
L 283.186477 138.104558 
L 283.498945 122.92489 
L 283.811413 146.227363 
L 284.123881 137.462585 
L 284.43635 139.661416 
L 284.748818 144.331408 
L 285.061286 134.769351 
L 285.373754 137.847932 
L 285.686223 127.948675 
L 285.998691 127.702021 
L 286.311159 138.517252 
L 286.623628 135.176779 
L 286.936096 130.11324 
L 287.248564 130.343457 
L 287.561032 130.290328 
L 287.873501 131.604235 
L 288.185969 131.429774 
L 288.498437 127.881105 
L 288.810906 126.927464 
L 289.123374 131.089708 
L 289.435842 133.012521 
L 289.74831 140.040981 
L 290.060779 128.661006 
L 290.373247 135.31746 
L 290.685715 127.842423 
L 290.998184 131.23284 
L 291.310652 137.064306 
L 291.62312 125.269473 
L 291.935588 132.036506 
L 292.248057 135.316276 
L 292.872993 129.836473 
L 293.49793 136.957733 
L 293.810398 132.136387 
L 294.122866 129.553642 
L 294.435335 120.267962 
L 294.747803 129.247037 
L 295.060271 128.965687 
L 295.37274 123.622526 
L 295.685208 137.876723 
L 295.997676 127.4415 
L 296.310144 133.42125 
L 296.622613 118.214075 
L 296.935081 131.972649 
L 297.560017 129.018879 
L 297.872486 129.262677 
L 298.184954 119.871432 
L 298.497422 121.121093 
L 298.809891 119.237033 
L 299.122359 126.135318 
L 299.434827 127.96459 
L 299.747295 118.599826 
L 300.059764 127.108719 
L 300.372232 124.813764 
L 300.6847 132.302938 
L 300.997169 134.182876 
L 301.309637 115.813176 
L 301.934573 134.829806 
L 302.247042 127.016434 
L 302.55951 128.395259 
L 302.871978 122.510633 
L 303.184447 133.317173 
L 303.496915 133.317173 
L 303.809383 124.721412 
L 304.121851 123.97106 
L 304.43432 121.089436 
L 304.746788 124.183145 
L 305.059256 133.932163 
L 305.371725 131.410287 
L 305.684193 120.916797 
L 305.996661 125.213886 
L 306.309129 121.041584 
L 306.621598 122.062261 
L 306.934066 128.335626 
L 307.246534 110.481381 
L 307.559003 120.299038 
L 308.183939 127.65934 
L 308.496407 127.042516 
L 308.808876 128.196547 
L 309.121344 122.799898 
L 309.433812 120.508247 
L 309.746281 121.258599 
L 310.058749 113.439551 
L 310.683685 122.946622 
L 310.996154 121.341487 
L 311.308622 125.285258 
L 311.62109 123.532206 
L 311.933558 114.284877 
L 312.246027 109.79005 
L 312.558495 119.908965 
L 312.870963 116.631042 
L 313.4959 121.036782 
L 314.120836 117.178132 
L 314.433305 114.143475 
L 314.745773 115.236518 
L 315.058241 103.905381 
L 315.683178 119.569964 
L 315.995646 120.132344 
L 316.620583 113.126897 
L 316.933051 122.940295 
L 317.245519 109.876005 
L 317.557988 125.54805 
L 317.870456 123.52466 
L 318.182924 115.438386 
L 318.495392 115.029021 
L 318.807861 118.871818 
L 319.120329 111.958912 
L 319.432797 111.195033 
L 319.745266 105.080391 
L 320.057734 106.191442 
L 320.370202 114.198736 
L 320.68267 111.341951 
L 320.995139 116.652974 
L 321.307607 102.234258 
L 321.932544 114.488716 
L 322.245012 116.127569 
L 322.55748 118.848714 
L 322.869948 97.931974 
L 323.182417 111.917781 
L 323.494885 109.273959 
L 323.807353 110.650952 
L 324.119822 118.680173 
L 324.43229 108.357758 
L 324.744758 105.11768 
L 325.057226 107.788109 
L 325.369695 105.491622 
L 325.682163 110.568072 
L 325.994631 102.846845 
L 326.307099 105.57146 
L 326.619568 109.608204 
L 326.932036 109.794654 
L 327.244504 113.81814 
L 327.556973 106.641645 
L 327.869441 106.014934 
L 328.181909 101.614927 
L 328.806846 114.753401 
L 329.431782 102.984056 
L 330.056719 115.854577 
L 330.369187 109.207032 
L 330.681655 91.135184 
L 330.994124 111.345818 
L 331.306592 101.083609 
L 331.61906 111.436653 
L 331.931529 107.356268 
L 332.243997 113.166091 
L 332.556465 105.862981 
L 332.868933 105.565811 
L 333.181402 108.808263 
L 333.49387 98.086558 
L 333.806338 105.529455 
L 334.118807 96.764888 
L 334.431275 108.217638 
L 334.743743 112.25128 
L 335.056211 106.462685 
L 335.36868 104.340357 
L 335.993616 106.229955 
L 336.306085 100.366931 
L 336.618553 99.845627 
L 337.243489 104.979348 
L 337.555958 103.803845 
L 337.868426 110.196744 
L 338.493362 94.977686 
L 338.805831 101.899934 
L 339.118299 104.124405 
L 339.430767 94.206963 
L 339.743236 108.30825 
L 340.055704 90.853147 
L 340.368172 98.504491 
L 340.68064 97.941138 
L 340.993109 99.764398 
L 341.305577 88.14799 
L 341.930514 100.614981 
L 342.242982 99.489766 
L 342.55545 97.832522 
L 342.867918 105.388077 
L 343.180387 90.56805 
L 343.492855 104.078175 
L 343.805323 95.269175 
L 344.117792 96.526411 
L 344.43026 104.266996 
L 344.742728 105.430314 
L 345.055196 104.072553 
L 345.367665 99.89622 
L 345.680133 93.320853 
L 345.992601 103.734731 
L 346.30507 96.268556 
L 346.617538 104.046337 
L 346.930006 100.806567 
L 347.242474 93.098271 
L 347.554943 90.493847 
L 347.867411 96.549028 
L 348.179879 98.164813 
L 348.804816 95.793967 
L 349.117284 99.885623 
L 349.429752 90.262318 
L 349.742221 89.040574 
L 350.054689 93.707223 
L 350.367157 96.542673 
L 350.679626 95.595602 
L 350.992094 98.598484 
L 351.304562 97.153374 
L 351.61703 89.187027 
L 351.929499 85.155807 
L 352.241967 100.176888 
L 352.554435 94.811267 
L 352.866903 95.35578 
L 353.179372 91.48733 
L 353.49184 92.611233 
L 353.804308 99.572528 
L 354.116777 98.088026 
L 354.429245 93.768844 
L 354.741713 93.10345 
L 355.054181 88.955089 
L 355.36665 99.099668 
L 355.679118 92.87231 
L 355.991586 96.35825 
L 356.304055 91.182034 
L 356.616523 88.208042 
L 356.928991 88.742637 
L 357.241459 85.399432 
L 357.553928 90.102027 
L 357.866396 90.290391 
L 358.491333 99.144101 
L 358.803801 86.612142 
L 359.116269 99.406215 
L 359.428737 88.617032 
L 359.741206 95.815438 
L 360.053674 89.414619 
L 360.366142 92.859544 
L 360.678611 84.106831 
L 360.991079 91.239187 
L 361.303547 85.227434 
L 361.616015 88.370621 
L 361.928484 87.198526 
L 362.240952 84.461185 
L 362.55342 85.171071 
L 362.865889 95.419174 
L 363.178357 91.374069 
L 363.490825 89.940632 
L 364.115762 83.028041 
L 364.42823 86.149245 
L 364.740698 86.533799 
L 365.053167 83.907598 
L 365.365635 83.052866 
L 365.678103 85.422557 
L 365.990571 92.028103 
L 366.30304 85.088864 
L 366.615508 87.114927 
L 366.927976 85.518955 
L 367.240444 85.977982 
L 367.552913 93.949882 
L 367.865381 80.178275 
L 368.177849 80.614476 
L 368.490318 72.551755 
L 368.802786 87.28637 
L 369.115254 84.013566 
L 369.427722 86.839106 
L 369.740191 88.506864 
L 370.052659 81.21872 
L 370.365127 78.780984 
L 370.677596 90.97767 
L 370.990064 82.219175 
L 371.302532 84.245025 
L 371.615 81.659299 
L 371.927469 82.525002 
L 372.239937 85.987815 
L 372.552405 88.121311 
L 372.864874 84.338049 
L 373.177342 65.465312 
L 373.48981 75.510528 
L 373.802278 66.230604 
L 374.114747 81.647284 
L 374.427215 76.957777 
L 374.739683 82.957853 
L 375.052152 84.51536 
L 375.36462 66.059672 
L 375.677088 81.761095 
L 375.989556 74.134299 
L 376.302025 71.293657 
L 376.614493 71.425362 
L 376.926961 73.428561 
L 377.23943 76.48174 
L 377.551898 87.28637 
L 377.864366 83.90569 
L 378.176834 78.334331 
L 378.489303 68.847765 
L 378.801771 76.222237 
L 379.114239 74.864317 
L 379.426707 78.158391 
L 379.739176 60.967595 
L 380.051644 76.955084 
L 380.364112 73.565762 
L 380.676581 79.359251 
L 380.989049 80.702219 
L 381.301517 70.405156 
L 381.613985 67.634668 
L 381.926454 75.599376 
L 382.238922 71.048533 
L 382.55139 73.954977 
L 382.863859 78.393864 
L 383.176327 68.40418 
L 383.488795 77.985759 
L 383.801263 80.290502 
L 384.113732 75.224497 
L 384.4262 58.371226 
L 384.738668 75.751259 
L 385.051137 68.063047 
L 385.363605 69.89146 
L 385.676073 73.925942 
L 385.988541 61.340455 
L 386.30101 76.776685 
L 386.613478 75.088464 
L 386.925946 64.790822 
L 387.238415 67.287352 
L 387.550883 53.568 
L 387.863351 66.310164 
L 388.175819 71.689299 
L 388.488288 61.989097 
L 388.800756 70.919649 
L 389.113224 71.209336 
L 389.425693 62.405245 
L 389.738161 69.338502 
L 390.050629 67.1708 
L 390.363097 68.060621 
L 390.675566 70.641656 
L 390.988034 67.960894 
L 391.300502 60.533963 
L 391.612971 70.522926 
L 392.237907 55.589642 
L 392.862844 71.679738 
L 393.175312 66.401947 
L 393.48778 58.718163 
L 393.800248 64.13093 
L 394.112717 59.091012 
L 394.425185 73.002266 
L 394.737653 70.383568 
L 395.050122 63.672641 
L 395.36259 69.667274 
L 395.675058 62.54446 
L 395.987526 66.031202 
L 396.299995 60.442807 
L 396.612463 66.031202 
L 396.924931 67.866019 
L 397.2374 61.671074 
L 397.549868 65.595842 
L 397.862336 65.777191 
L 398.174804 54.802376 
L 398.487273 62.962348 
L 398.487273 62.962348 
" clip-path="url(#p79d2f63799)" style="fill: none; stroke-dasharray: 3.7,1.6; stroke-dashoffset: 0; stroke: #4169e1"/>
   </g>
   <g id="line2d_15">
    <path d="M 73.832727 281.435797 
L 74.145196 286.830968 
L 74.457664 280.338193 
L 74.770132 280.395346 
L 75.0826 271.421226 
L 75.707537 281.92171 
L 76.020005 278.565656 
L 76.332474 281.103671 
L 76.644942 276.975054 
L 76.95741 267.708696 
L 77.269878 271.039099 
L 77.582347 269.013855 
L 77.894815 274.743229 
L 78.207283 266.220544 
L 78.519752 281.617113 
L 78.83222 268.168477 
L 79.144688 279.167459 
L 79.457156 268.495668 
L 79.769625 270.984072 
L 80.082093 275.964239 
L 80.394561 270.714849 
L 80.707029 278.157312 
L 81.019498 272.765412 
L 81.331966 276.112239 
L 81.644434 276.933353 
L 81.956903 268.657759 
L 82.269371 275.036502 
L 82.581839 263.334405 
L 82.894307 271.001298 
L 83.206776 265.587101 
L 83.519244 273.743533 
L 83.831712 272.390743 
L 84.144181 275.143974 
L 84.456649 274.104602 
L 84.769117 260.949465 
L 85.081585 272.286688 
L 85.394054 263.912629 
L 85.706522 269.147368 
L 86.01899 277.741083 
L 86.331459 257.778029 
L 86.643927 258.758832 
L 86.956395 268.764332 
L 87.268863 274.689533 
L 87.581332 273.97324 
L 87.8938 268.331481 
L 88.206268 275.341352 
L 88.518737 271.845428 
L 88.831205 275.576825 
L 89.143673 264.270312 
L 89.456141 262.246407 
L 89.76861 272.908068 
L 90.081078 268.850026 
L 90.393546 268.543655 
L 90.706015 270.261918 
L 91.018483 270.382606 
L 91.330951 269.504183 
L 91.643419 265.621238 
L 91.955888 266.676951 
L 92.268356 270.382606 
L 92.580824 259.785585 
L 93.205761 264.407735 
L 93.518229 262.150412 
L 93.830697 261.352568 
L 94.143166 264.74472 
L 94.455634 253.57038 
L 94.768102 264.009696 
L 95.08057 263.539805 
L 95.393039 265.953865 
L 95.705507 252.76313 
L 96.017975 262.286657 
L 96.330444 256.501324 
L 96.95538 267.223559 
L 97.267848 264.486951 
L 97.580317 262.922242 
L 97.892785 253.915182 
L 98.205253 264.109537 
L 98.517722 261.643496 
L 99.142658 258.832684 
L 99.455126 265.485449 
L 99.767595 257.569895 
L 100.080063 258.513949 
L 100.392531 246.99165 
L 100.705 255.861917 
L 101.017468 253.49521 
L 101.329936 254.963229 
L 101.642404 263.955254 
L 101.954873 255.960161 
L 102.267341 261.975673 
L 102.579809 263.794801 
L 102.892278 264.688229 
L 103.204746 256.600833 
L 103.517214 264.588816 
L 103.829682 243.359874 
L 104.142151 256.298824 
L 104.454619 259.547802 
L 104.767087 252.710287 
L 105.079556 260.78181 
L 105.392024 256.367927 
L 105.704492 259.607707 
L 106.01696 250.013865 
L 106.329429 258.638153 
L 106.641897 253.899671 
L 106.954365 259.689136 
L 107.266833 249.372061 
L 107.579302 259.970193 
L 107.89177 253.784809 
L 108.204238 258.346626 
L 108.516707 250.010683 
L 108.829175 246.731871 
L 109.141643 239.102253 
L 109.454111 254.259551 
L 109.76658 244.166496 
L 110.079048 252.5459 
L 110.391516 253.999417 
L 110.703985 252.711255 
L 111.016453 253.888806 
L 111.328921 259.128464 
L 111.641389 254.367096 
L 111.953858 253.133714 
L 112.266326 256.828416 
L 112.578794 253.311332 
L 112.891263 255.171275 
L 113.203731 251.760154 
L 113.516199 251.299566 
L 114.141136 241.253954 
L 114.766072 251.296004 
L 115.078541 243.700307 
L 115.391009 252.190118 
L 115.703477 248.714085 
L 116.015945 246.870277 
L 116.328414 251.136184 
L 116.640882 236.350237 
L 116.95335 247.874322 
L 117.265819 242.746373 
L 117.578287 244.404747 
L 117.890755 238.179208 
L 118.203223 248.906444 
L 118.515692 254.340148 
L 118.82816 249.470155 
L 119.140628 251.509639 
L 119.453097 246.068246 
L 119.765565 255.06608 
L 120.078033 249.127439 
L 120.390501 248.694587 
L 120.70297 255.232799 
L 121.015438 251.691926 
L 121.327906 254.367096 
L 121.640374 240.413976 
L 121.952843 247.498623 
L 122.265311 241.428972 
L 122.577779 232.737004 
L 122.890248 247.333998 
L 123.202716 244.515896 
L 123.515184 248.602455 
L 123.827652 249.376332 
L 124.452589 244.896037 
L 124.765057 235.672214 
L 125.077526 243.611893 
L 125.389994 239.034821 
L 125.702462 248.604236 
L 126.01493 251.664959 
L 126.327399 242.822264 
L 126.639867 248.713076 
L 126.952335 241.733554 
L 127.264804 250.366404 
L 127.577272 250.642169 
L 128.202208 247.417496 
L 128.514677 228.824689 
L 128.827145 232.213125 
L 129.139613 233.92595 
L 129.452082 240.292795 
L 129.76455 232.412854 
L 130.077018 242.419926 
L 130.389486 240.889852 
L 130.701955 247.320224 
L 131.014423 237.788038 
L 131.63936 246.047885 
L 131.951828 237.168976 
L 132.264296 238.776116 
L 132.576764 238.318339 
L 132.889233 244.322101 
L 133.201701 228.650049 
L 133.514169 241.76365 
L 133.826638 236.520109 
L 134.139106 233.935424 
L 134.451574 244.150791 
L 134.764042 243.273046 
L 135.076511 237.027091 
L 135.388979 233.563191 
L 135.701447 233.104996 
L 136.013915 240.597485 
L 136.326384 237.7149 
L 136.638852 226.07005 
L 137.263789 244.411509 
L 137.576257 224.357961 
L 137.888725 232.724515 
L 138.201193 227.076342 
L 138.513662 233.988497 
L 138.82613 232.596959 
L 139.138598 233.157366 
L 139.451067 237.485883 
L 139.763535 232.092958 
L 140.076003 234.013664 
L 140.388471 238.333582 
L 140.70094 229.857835 
L 141.013408 237.469259 
L 141.325876 217.284183 
L 141.638345 234.199993 
L 141.950813 232.866677 
L 142.263281 227.667951 
L 142.575749 241.119433 
L 142.888218 239.650141 
L 143.200686 226.738978 
L 143.513154 232.000974 
L 143.825623 229.409463 
L 144.138091 229.354813 
L 144.763027 226.796367 
L 145.075496 228.079092 
L 145.387964 235.676416 
L 145.700432 232.7125 
L 146.012901 218.041535 
L 146.325369 237.875873 
L 146.637837 222.36857 
L 146.950305 231.245682 
L 147.262774 236.066082 
L 147.88771 223.32509 
L 148.512647 235.230248 
L 148.825115 233.236728 
L 149.137583 220.344734 
L 149.450052 227.163532 
L 149.76252 218.867985 
L 150.074988 213.569052 
L 150.387456 228.050154 
L 150.699925 234.289202 
L 151.012393 220.864143 
L 151.324861 231.334584 
L 151.63733 229.243698 
L 151.949798 212.891394 
L 152.262266 231.119413 
L 152.574734 222.327755 
L 152.887203 227.945143 
L 153.199671 218.282126 
L 153.512139 228.317938 
L 154.137076 218.20623 
L 154.449544 223.5935 
L 154.762012 221.069628 
L 155.074481 216.066756 
L 156.011886 226.643003 
L 156.324354 219.702958 
L 156.636822 224.915181 
L 156.94929 223.188266 
L 157.261759 210.529214 
L 157.574227 224.464387 
L 157.886695 217.875153 
L 158.199164 218.783473 
L 158.511632 222.711468 
L 158.8241 219.217984 
L 159.136568 212.18861 
L 159.449037 220.83657 
L 159.761505 218.070877 
L 160.073973 213.277141 
L 160.386442 218.668868 
L 160.69891 209.230121 
L 161.011378 217.2725 
L 161.323846 207.789224 
L 161.636315 209.516178 
L 161.948783 218.827825 
L 162.261251 218.040085 
L 162.573719 220.543146 
L 162.886188 216.375826 
L 163.198656 217.141856 
L 163.511124 221.946728 
L 163.823593 215.691115 
L 164.136061 222.895232 
L 164.448529 203.984744 
L 165.073466 222.336076 
L 165.385934 208.824358 
L 165.698402 210.669387 
L 166.010871 203.968379 
L 166.323339 216.830184 
L 166.948275 211.839939 
L 167.260744 206.475068 
L 167.573212 216.860888 
L 167.88568 215.714719 
L 168.198149 213.945344 
L 168.510617 199.020432 
L 168.823085 216.258149 
L 169.135553 207.612141 
L 169.448022 204.542433 
L 169.76049 212.897965 
L 170.072958 212.369106 
L 170.385427 216.25218 
L 170.697895 208.843007 
L 171.010363 208.410155 
L 171.322831 210.38265 
L 171.6353 210.660481 
L 171.947768 209.433352 
L 172.260236 211.069214 
L 172.572705 211.069214 
L 172.885173 212.380489 
L 173.197641 207.718794 
L 173.510109 206.232722 
L 173.822578 200.737948 
L 174.135046 208.041672 
L 174.759983 201.708338 
L 175.072451 212.837462 
L 175.697387 202.792987 
L 176.009856 204.068464 
L 176.322324 203.654089 
L 176.634792 212.939645 
L 176.94726 210.035988 
L 177.259729 200.106834 
L 177.572197 203.541793 
L 177.884665 198.258092 
L 178.197134 203.108941 
L 178.509602 205.887714 
L 178.82207 202.28656 
L 179.134538 203.182907 
L 179.447007 208.484824 
L 179.759475 205.413732 
L 180.071943 200.260643 
L 180.384412 206.702669 
L 180.69688 210.005504 
L 181.009348 203.79257 
L 181.321816 204.287152 
L 181.634285 202.857753 
L 181.946753 207.524091 
L 182.259221 203.856858 
L 182.57169 189.443597 
L 182.884158 188.459595 
L 183.196626 199.646128 
L 183.509094 206.146666 
L 183.821563 208.02121 
L 184.134031 194.920852 
L 184.446499 208.200504 
L 184.758968 194.355222 
L 185.071436 194.081548 
L 185.696372 202.376954 
L 186.008841 197.821246 
L 186.321309 203.392401 
L 186.633777 198.257815 
L 186.946246 190.662563 
L 187.571182 202.729171 
L 187.88365 202.07369 
L 188.196119 206.753417 
L 188.508587 206.753417 
L 188.821055 203.290604 
L 189.133523 195.724574 
L 189.445992 199.446617 
L 189.75846 198.269159 
L 190.070928 202.697893 
L 190.383397 198.798662 
L 190.695865 188.154917 
L 191.008333 201.83219 
L 191.320801 198.561762 
L 191.63327 197.693092 
L 191.945738 196.346959 
L 192.258206 191.947614 
L 192.570675 199.046713 
L 192.883143 197.26024 
L 193.195611 188.833151 
L 193.508079 193.738052 
L 193.820548 192.441417 
L 194.133016 192.009435 
L 194.445484 188.37995 
L 194.757953 189.405215 
L 195.070421 201.528436 
L 195.382889 191.603611 
L 195.695357 194.574729 
L 196.007826 201.516337 
L 196.320294 195.453837 
L 196.632762 192.436067 
L 196.945231 194.088053 
L 197.257699 182.706732 
L 197.570167 197.922485 
L 197.882635 186.159814 
L 198.195104 200.217782 
L 198.507572 200.260643 
L 198.82004 184.808331 
L 199.132509 186.785065 
L 199.444977 190.330056 
L 199.757445 190.230387 
L 200.069913 187.092626 
L 200.382382 181.886104 
L 200.69485 188.233909 
L 201.007318 191.496139 
L 201.319787 190.141629 
L 201.632255 177.211563 
L 201.944723 194.538542 
L 202.257191 186.770322 
L 202.56966 173.879894 
L 203.194596 184.670773 
L 203.507064 186.761398 
L 203.819533 192.018458 
L 204.132001 182.205056 
L 204.444469 176.444788 
L 204.756938 182.205056 
L 205.069406 172.18992 
L 205.381874 188.83995 
L 205.694342 186.046019 
L 206.006811 191.250121 
L 206.319279 177.476195 
L 206.631747 180.17609 
L 206.944216 173.161394 
L 207.256684 179.891903 
L 207.569152 189.158384 
L 207.88162 184.209125 
L 208.194089 182.545834 
L 208.506557 185.441802 
L 208.819025 182.340258 
L 209.131494 180.597112 
L 209.443962 182.6134 
L 209.75643 170.38972 
L 210.068898 182.008982 
L 210.381367 170.594242 
L 210.693835 182.044866 
L 211.006303 172.596653 
L 211.318772 182.742744 
L 211.63124 177.389695 
L 211.943708 187.622225 
L 212.256176 189.667839 
L 212.568645 184.624088 
L 212.881113 183.800267 
L 213.193581 177.854183 
L 213.50605 183.966672 
L 214.130986 170.306577 
L 214.443454 188.953214 
L 214.755923 171.432527 
L 215.068391 187.153848 
L 215.693328 172.08211 
L 216.318264 182.832159 
L 216.630732 180.915722 
L 216.943201 177.717786 
L 217.255669 181.273144 
L 217.568137 172.084406 
L 217.880605 180.840292 
L 218.193074 180.431109 
L 218.505542 174.405491 
L 218.81801 177.742526 
L 219.130479 174.622327 
L 219.442947 179.471045 
L 219.755415 160.77753 
L 220.067883 176.886656 
L 220.380352 179.153476 
L 221.005288 165.738701 
L 221.317757 176.612527 
L 221.942693 165.195057 
L 222.255161 174.849422 
L 222.56763 167.791223 
L 222.880098 172.095471 
L 223.192566 178.961506 
L 223.817503 173.104124 
L 224.129971 179.462177 
L 224.442439 167.244748 
L 224.754908 167.190541 
L 225.067376 175.143235 
L 225.379844 162.004597 
L 225.692313 172.902861 
L 226.004781 170.752064 
L 226.317249 175.760605 
L 226.629717 173.023516 
L 226.942186 178.063964 
L 227.254654 169.568326 
L 227.567122 170.321988 
L 227.879591 171.858855 
L 228.192059 162.941326 
L 228.504527 164.000856 
L 228.816995 168.056155 
L 229.129464 178.083028 
L 229.441932 167.231514 
L 229.7544 164.327197 
L 230.379337 173.832721 
L 230.691805 168.141493 
L 231.004273 169.619815 
L 231.316742 167.448971 
L 231.62921 174.79557 
L 231.941678 170.811293 
L 232.254146 161.243994 
L 232.566615 164.759083 
L 232.879083 163.482692 
L 233.191551 163.72065 
L 233.50402 162.162939 
L 233.816488 159.051181 
L 234.128956 168.624381 
L 234.441424 169.894826 
L 234.753893 161.389512 
L 235.066361 167.455557 
L 235.378829 167.708188 
L 235.691298 159.239489 
L 236.003766 171.692436 
L 236.316234 171.77457 
L 236.628702 159.972534 
L 237.253639 171.551952 
L 237.566107 167.13703 
L 237.878576 169.174688 
L 238.191044 169.934081 
L 238.503512 149.328884 
L 238.81598 153.493003 
L 239.128449 149.72966 
L 239.440917 168.828788 
L 239.753385 163.81048 
L 240.065854 168.134593 
L 240.378322 160.74206 
L 240.69079 157.148364 
L 241.003258 160.300657 
L 241.315727 166.324317 
L 241.628195 167.690199 
L 241.940663 149.695057 
L 242.253132 155.801107 
L 242.5656 156.276221 
L 242.878068 155.782248 
L 243.190536 151.879433 
L 243.503005 164.926902 
L 243.815473 146.953399 
L 244.127941 157.833171 
L 244.440409 155.676926 
L 244.752878 146.41291 
L 245.065346 142.945114 
L 245.377814 149.75523 
L 245.690283 151.690386 
L 246.002751 156.802012 
L 246.315219 154.136995 
L 246.940156 157.581106 
L 247.252624 161.405794 
L 247.565092 162.1697 
L 247.877561 163.874158 
L 248.502497 153.959956 
L 248.814965 155.244074 
L 249.127434 151.572679 
L 249.439902 153.807178 
L 249.75237 151.418597 
L 250.064839 160.208898 
L 250.377307 151.944543 
L 251.002243 155.835649 
L 251.314712 146.506685 
L 251.62718 156.488691 
L 251.939648 160.776115 
L 252.564585 139.657685 
L 252.877053 150.348095 
L 253.189521 156.494682 
L 253.50199 149.867386 
L 253.814458 151.711894 
L 254.126926 155.57504 
L 254.439395 144.969105 
L 255.376799 154.868376 
L 255.689268 144.297377 
L 256.001736 157.318925 
L 256.314204 142.861481 
L 256.626672 158.31754 
L 256.939141 145.944793 
L 257.251609 151.763242 
L 257.564077 154.798503 
L 257.876546 152.66666 
L 258.189014 156.109778 
L 258.501482 153.64607 
L 258.81395 152.593026 
L 259.438887 156.880451 
L 259.751355 134.552485 
L 260.063824 151.235742 
L 260.376292 155.208128 
L 260.68876 153.458771 
L 261.001228 141.14781 
L 261.313697 141.312465 
L 261.938633 146.754042 
L 262.56357 154.890584 
L 262.876038 151.591201 
L 263.188506 157.770942 
L 263.500975 156.93262 
L 263.813443 143.98375 
L 264.125911 156.499769 
L 264.43838 142.188487 
L 264.750848 143.937561 
L 265.063316 148.28088 
L 265.375784 150.292646 
L 265.688253 153.850489 
L 266.000721 150.269561 
L 266.313189 144.358018 
L 266.625658 154.071824 
L 266.938126 153.771027 
L 267.250594 152.436238 
L 267.563062 148.273011 
L 267.875531 148.128388 
L 268.187999 151.17451 
L 268.500467 141.109111 
L 268.812936 151.34841 
L 269.125404 136.018283 
L 269.75034 145.887758 
L 270.062809 150.209947 
L 270.375277 135.600392 
L 270.687745 144.053249 
L 271.000213 147.785372 
L 271.62515 144.116957 
L 271.937618 139.478947 
L 272.250087 141.56566 
L 272.562555 148.058101 
L 272.875023 143.901802 
L 273.187491 151.951999 
L 273.49996 138.694215 
L 273.812428 145.953239 
L 274.124896 134.85373 
L 274.437365 149.51043 
L 274.749833 141.000119 
L 275.062301 145.600651 
L 275.374769 143.08496 
L 275.687238 138.437458 
L 275.999706 136.523615 
L 276.312174 130.601853 
L 276.624643 145.438913 
L 276.937111 140.567267 
L 277.249579 144.20945 
L 277.562047 134.938939 
L 277.874516 145.957838 
L 278.186984 138.559128 
L 278.499452 142.084981 
L 278.811921 140.329806 
L 279.124389 144.071573 
L 279.436857 144.422784 
L 279.749325 137.318038 
L 280.061794 138.355134 
L 280.374262 144.707746 
L 280.68673 141.523667 
L 280.999199 145.510612 
L 281.311667 133.689475 
L 281.624135 143.374328 
L 281.936603 136.645891 
L 282.249072 145.69439 
L 282.56154 132.788521 
L 282.874008 139.497989 
L 283.186477 138.104558 
L 283.498945 119.894928 
L 283.811413 146.227363 
L 284.123881 137.462585 
L 284.43635 139.661416 
L 284.748818 144.331408 
L 285.061286 134.769351 
L 285.373754 137.847932 
L 285.686223 127.948675 
L 285.998691 127.702021 
L 286.311159 138.517252 
L 286.623628 135.176779 
L 286.936096 130.11324 
L 287.248564 130.343457 
L 287.561032 130.290328 
L 287.873501 131.604235 
L 288.185969 131.429774 
L 288.498437 127.881105 
L 288.810906 126.927464 
L 289.123374 131.089708 
L 289.435842 133.012521 
L 289.74831 140.040981 
L 290.060779 128.661006 
L 290.373247 135.31746 
L 290.685715 127.842423 
L 290.998184 131.23284 
L 291.310652 137.064306 
L 291.62312 125.269473 
L 291.935588 132.036506 
L 292.248057 135.316276 
L 292.872993 129.836473 
L 293.49793 136.957733 
L 293.810398 132.136387 
L 294.122866 129.553642 
L 294.435335 120.267962 
L 294.747803 129.247037 
L 295.060271 128.965687 
L 295.37274 123.622526 
L 295.685208 137.876723 
L 295.997676 127.4415 
L 296.310144 133.42125 
L 296.622613 118.214075 
L 296.935081 131.972649 
L 297.560017 129.018879 
L 297.872486 129.262677 
L 298.184954 119.871432 
L 298.497422 121.121093 
L 298.809891 119.237033 
L 299.122359 126.135318 
L 299.434827 127.96459 
L 299.747295 118.599826 
L 300.059764 127.108719 
L 300.372232 124.813764 
L 300.6847 132.302938 
L 300.997169 134.182876 
L 301.309637 115.813176 
L 301.934573 134.829806 
L 302.247042 127.016434 
L 302.55951 128.395259 
L 302.871978 122.510633 
L 303.184447 133.317173 
L 303.496915 133.317173 
L 303.809383 124.721412 
L 304.121851 123.97106 
L 304.43432 121.089436 
L 304.746788 124.183145 
L 305.059256 133.932163 
L 305.371725 131.410287 
L 305.684193 120.916797 
L 305.996661 125.213886 
L 306.309129 121.041584 
L 306.621598 122.062261 
L 306.934066 128.335626 
L 307.246534 110.481381 
L 307.559003 120.299038 
L 308.183939 127.65934 
L 308.496407 127.042516 
L 308.808876 128.196547 
L 309.121344 122.799898 
L 309.433812 120.508247 
L 309.746281 121.258599 
L 310.058749 113.439551 
L 310.683685 122.946622 
L 310.996154 121.341487 
L 311.308622 125.285258 
L 311.62109 123.532206 
L 311.933558 114.284877 
L 312.246027 109.79005 
L 312.558495 119.908965 
L 312.870963 116.631042 
L 313.4959 121.036782 
L 314.120836 117.178132 
L 314.433305 114.143475 
L 314.745773 115.236518 
L 315.058241 103.905381 
L 315.683178 119.569964 
L 315.995646 120.132344 
L 316.620583 113.126897 
L 316.933051 122.940295 
L 317.245519 109.876005 
L 317.557988 125.54805 
L 317.870456 123.52466 
L 318.182924 115.438386 
L 318.495392 115.029021 
L 318.807861 118.871818 
L 319.120329 111.958912 
L 319.432797 111.195033 
L 319.745266 105.080391 
L 320.057734 106.191442 
L 320.370202 114.198736 
L 320.68267 111.341951 
L 320.995139 116.652974 
L 321.307607 102.234258 
L 321.932544 114.488716 
L 322.245012 116.127569 
L 322.55748 118.848714 
L 322.869948 97.931974 
L 323.182417 111.917781 
L 323.494885 109.273959 
L 323.807353 110.650952 
L 324.119822 118.680173 
L 324.43229 108.357758 
L 324.744758 105.11768 
L 325.057226 107.788109 
L 325.369695 105.491622 
L 325.682163 110.568072 
L 325.994631 102.846845 
L 326.307099 105.57146 
L 326.619568 109.608204 
L 326.932036 109.794654 
L 327.244504 113.81814 
L 327.556973 106.641645 
L 327.869441 106.014934 
L 328.181909 101.614927 
L 328.806846 114.753401 
L 329.431782 102.984056 
L 330.056719 115.854577 
L 330.369187 109.207032 
L 330.681655 91.135184 
L 330.994124 111.345818 
L 331.306592 101.083609 
L 331.61906 111.436653 
L 331.931529 107.356268 
L 332.243997 113.166091 
L 332.556465 105.862981 
L 332.868933 105.565811 
L 333.181402 108.808263 
L 333.49387 98.086558 
L 333.806338 105.529455 
L 334.118807 96.764888 
L 334.431275 108.217638 
L 334.743743 112.25128 
L 335.056211 106.462685 
L 335.36868 104.340357 
L 335.993616 106.229955 
L 336.306085 100.366931 
L 336.618553 99.845627 
L 337.243489 104.979348 
L 337.555958 103.803845 
L 337.868426 110.196744 
L 338.493362 94.977686 
L 338.805831 101.899934 
L 339.118299 104.124405 
L 339.430767 94.206963 
L 339.743236 108.30825 
L 340.055704 90.853147 
L 340.368172 98.504491 
L 340.68064 97.941138 
L 340.993109 99.764398 
L 341.305577 88.14799 
L 341.930514 100.614981 
L 342.242982 99.489766 
L 342.55545 97.832522 
L 342.867918 105.388077 
L 343.180387 90.56805 
L 343.492855 104.078175 
L 343.805323 95.269175 
L 344.117792 96.526411 
L 344.43026 104.266996 
L 344.742728 105.430314 
L 345.055196 104.072553 
L 345.367665 99.89622 
L 345.680133 93.320853 
L 345.992601 103.734731 
L 346.30507 96.268556 
L 346.617538 104.046337 
L 346.930006 100.806567 
L 347.242474 93.098271 
L 347.554943 90.493847 
L 347.867411 96.549028 
L 348.179879 98.164813 
L 348.804816 95.793967 
L 349.117284 99.885623 
L 349.429752 90.262318 
L 349.742221 89.040574 
L 350.054689 93.707223 
L 350.367157 96.542673 
L 350.679626 95.595602 
L 350.992094 98.598484 
L 351.304562 97.153374 
L 351.61703 89.187027 
L 351.929499 85.155807 
L 352.241967 100.176888 
L 352.554435 94.811267 
L 352.866903 95.35578 
L 353.179372 91.48733 
L 353.49184 92.611233 
L 353.804308 99.572528 
L 354.116777 98.088026 
L 354.429245 93.768844 
L 354.741713 93.10345 
L 355.054181 88.955089 
L 355.36665 99.099668 
L 355.679118 92.87231 
L 355.991586 96.35825 
L 356.304055 91.182034 
L 356.616523 88.208042 
L 356.928991 88.742637 
L 357.241459 85.399432 
L 357.553928 90.102027 
L 357.866396 90.290391 
L 358.491333 99.144101 
L 358.803801 86.612142 
L 359.116269 99.406215 
L 359.428737 88.617032 
L 359.741206 95.815438 
L 360.053674 89.414619 
L 360.366142 92.859544 
L 360.678611 84.106831 
L 360.991079 91.239187 
L 361.303547 85.227434 
L 361.616015 88.370621 
L 361.928484 87.198526 
L 362.240952 84.461185 
L 362.55342 85.171071 
L 362.865889 95.419174 
L 363.178357 91.374069 
L 363.490825 89.940632 
L 364.115762 83.028041 
L 364.42823 86.149245 
L 364.740698 86.533799 
L 365.053167 83.907598 
L 365.365635 83.052866 
L 365.678103 85.422557 
L 365.990571 92.028103 
L 366.30304 85.088864 
L 366.615508 87.114927 
L 366.927976 85.518955 
L 367.240444 85.977982 
L 367.552913 93.949882 
L 367.865381 80.178275 
L 368.177849 80.614476 
L 368.490318 72.551755 
L 368.802786 87.28637 
L 369.115254 84.013566 
L 369.427722 86.839106 
L 369.740191 88.506864 
L 370.052659 81.21872 
L 370.365127 78.780984 
L 370.677596 90.97767 
L 370.990064 82.219175 
L 371.302532 84.245025 
L 371.615 81.659299 
L 371.927469 82.525002 
L 372.239937 85.987815 
L 372.552405 88.121311 
L 372.864874 84.338049 
L 373.177342 65.465312 
L 373.48981 75.510528 
L 373.802278 66.230604 
L 374.114747 81.647284 
L 374.427215 76.957777 
L 374.739683 82.957853 
L 375.052152 84.51536 
L 375.36462 66.059672 
L 375.677088 81.761095 
L 375.989556 74.134299 
L 376.302025 71.293657 
L 376.614493 71.425362 
L 376.926961 73.428561 
L 377.23943 76.48174 
L 377.551898 87.28637 
L 377.864366 83.90569 
L 378.176834 78.334331 
L 378.489303 68.847765 
L 378.801771 76.222237 
L 379.114239 74.864317 
L 379.426707 78.158391 
L 379.739176 60.967595 
L 380.051644 76.955084 
L 380.364112 73.565762 
L 380.676581 79.359251 
L 380.989049 80.702219 
L 381.301517 70.405156 
L 381.613985 67.634668 
L 381.926454 75.599376 
L 382.238922 71.048533 
L 382.55139 73.954977 
L 382.863859 78.393864 
L 383.176327 68.40418 
L 383.488795 77.985759 
L 383.801263 80.290502 
L 384.113732 75.224497 
L 384.4262 58.371226 
L 384.738668 75.751259 
L 385.051137 68.063047 
L 385.363605 69.89146 
L 385.676073 73.925942 
L 385.988541 61.340455 
L 386.30101 76.776685 
L 386.613478 75.088464 
L 386.925946 64.790822 
L 387.238415 67.287352 
L 387.550883 53.568 
L 387.863351 66.310164 
L 388.175819 71.689299 
L 388.488288 61.989097 
L 388.800756 70.919649 
L 389.113224 71.209336 
L 389.425693 62.405245 
L 389.738161 69.338502 
L 390.050629 67.1708 
L 390.363097 68.060621 
L 390.675566 70.641656 
L 390.988034 67.960894 
L 391.300502 60.533963 
L 391.612971 70.522926 
L 392.237907 55.589642 
L 392.862844 71.679738 
L 393.175312 66.401947 
L 393.48778 58.718163 
L 393.800248 64.13093 
L 394.112717 59.091012 
L 394.425185 73.002266 
L 394.737653 70.383568 
L 395.050122 63.672641 
L 395.36259 69.667274 
L 395.675058 62.54446 
L 395.987526 66.031202 
L 396.299995 60.442807 
L 396.612463 66.031202 
L 396.924931 67.866019 
L 397.2374 61.671074 
L 397.549868 65.595842 
L 397.862336 65.777191 
L 398.174804 54.802376 
L 398.487273 62.962348 
L 398.487273 62.962348 
" clip-path="url(#p79d2f63799)" style="fill: none; stroke-dasharray: 1,1.65; stroke-dashoffset: 0; stroke: #ffa500"/>
   </g>
   <g id="line2d_16">
    <path d="M 73.832727 274.913168 
L 398.487273 61.177822 
L 398.487273 61.177822 
" clip-path="url(#p79d2f63799)" style="fill: none; stroke-dasharray: 1.85,0.8; stroke-dashoffset: 0; stroke: #191970; stroke-width: 0.5"/>
   </g>
   <g id="line2d_17">
    <path d="M 73.832727 274.941144 
L 398.487273 61.184039 
L 398.487273 61.184039 
" clip-path="url(#p79d2f63799)" style="fill: none; stroke-dasharray: 0.5,0.825; stroke-dashoffset: 0; stroke: #ff0000; stroke-width: 0.5"/>
   </g>
   <g id="patch_3">
    <path d="M 57.6 307.584 
L 57.6 41.472 
" style="fill: none; stroke: #000000; stroke-width: 0.8; stroke-linejoin: miter; stroke-linecap: square"/>
   </g>
   <g id="patch_4">
    <path d="M 414.72 307.584 
L 414.72 41.472 
" style="fill: none; stroke: #000000; stroke-width: 0.8; stroke-linejoin: miter; stroke-linecap: square"/>
   </g>
   <g id="patch_5">
    <path d="M 57.6 307.584 
L 414.72 307.584 
" style="fill: none; stroke: #000000; stroke-width: 0.8; stroke-linejoin: miter; stroke-linecap: square"/>
   </g>
   <g id="patch_6">
    <path d="M 57.6 41.472 
L 414.72 41.472 
" style="fill: none; stroke: #000000; stroke-width: 0.8; stroke-linejoin: miter; stroke-linecap: square"/>
   </g>
   <g id="text_15">
    <!-- numRider200 -->
    <g transform="translate(195.454688 22.034625)scale(0.12 -0.12)">
     <defs>
      <path id="DejaVuSans-75" d="M 544 1381 
L 544 3500 
L 1119 3500 
L 1119 1403 
Q 1119 906 1312 657 
Q 1506 409 1894 409 
Q 2359 409 2629 706 
Q 2900 1003 2900 1516 
L 2900 3500 
L 3475 3500 
L 3475 0 
L 2900 0 
L 2900 538 
Q 2691 219 2414 64 
Q 2138 -91 1772 -91 
Q 1169 -91 856 284 
Q 544 659 544 1381 
z
M 1991 3584 
L 1991 3584 
z
" transform="scale(0.015625)"/>
      <path id="DejaVuSans-52" d="M 2841 2188 
Q 3044 2119 3236 1894 
Q 3428 1669 3622 1275 
L 4263 0 
L 3584 0 
L 2988 1197 
Q 2756 1666 2539 1819 
Q 2322 1972 1947 1972 
L 1259 1972 
L 1259 0 
L 628 0 
L 628 4666 
L 2053 4666 
Q 2853 4666 3247 4331 
Q 3641 3997 3641 3322 
Q 3641 2881 3436 2590 
Q 3231 2300 2841 2188 
z
M 1259 4147 
L 1259 2491 
L 2053 2491 
Q 2509 2491 2742 2702 
Q 2975 2913 2975 3322 
Q 2975 3731 2742 3939 
Q 2509 4147 2053 4147 
L 1259 4147 
z
" transform="scale(0.015625)"/>
     </defs>
     <use xlink:href="#DejaVuSans-6e"/>
     <use xlink:href="#DejaVuSans-75" x="63.378906"/>
     <use xlink:href="#DejaVuSans-6d" x="126.757812"/>
     <use xlink:href="#DejaVuSans-52" x="224.169922"/>
     <use xlink:href="#DejaVuSans-69" x="293.652344"/>
     <use xlink:href="#DejaVuSans-64" x="321.435547"/>
     <use xlink:href="#DejaVuSans-65" x="384.912109"/>
     <use xlink:href="#DejaVuSans-72" x="446.435547"/>
     <use xlink:href="#DejaVuSans-32" x="487.548828"/>
     <use xlink:href="#DejaVuSans-30" x="551.171875"/>
     <use xlink:href="#DejaVuSans-30" x="614.794922"/>
    </g>
    <!--  grid50 -->
    <g transform="translate(214.866562 35.472)scale(0.12 -0.12)">
     <defs>
      <path id="DejaVuSans-67" d="M 2906 1791 
Q 2906 2416 2648 2759 
Q 2391 3103 1925 3103 
Q 1463 3103 1205 2759 
Q 947 2416 947 1791 
Q 947 1169 1205 825 
Q 1463 481 1925 481 
Q 2391 481 2648 825 
Q 2906 1169 2906 1791 
z
M 3481 434 
Q 3481 -459 3084 -895 
Q 2688 -1331 1869 -1331 
Q 1566 -1331 1297 -1286 
Q 1028 -1241 775 -1147 
L 775 -588 
Q 1028 -725 1275 -790 
Q 1522 -856 1778 -856 
Q 2344 -856 2625 -561 
Q 2906 -266 2906 331 
L 2906 616 
Q 2728 306 2450 153 
Q 2172 0 1784 0 
Q 1141 0 747 490 
Q 353 981 353 1791 
Q 353 2603 747 3093 
Q 1141 3584 1784 3584 
Q 2172 3584 2450 3431 
Q 2728 3278 2906 2969 
L 2906 3500 
L 3481 3500 
L 3481 434 
z
" transform="scale(0.015625)"/>
     </defs>
     <use xlink:href="#DejaVuSans-20"/>
     <use xlink:href="#DejaVuSans-67" x="31.787109"/>
     <use xlink:href="#DejaVuSans-72" x="95.263672"/>
     <use xlink:href="#DejaVuSans-69" x="136.376953"/>
     <use xlink:href="#DejaVuSans-64" x="164.160156"/>
     <use xlink:href="#DejaVuSans-35" x="227.636719"/>
     <use xlink:href="#DejaVuSans-30" x="291.259766"/>
    </g>
   </g>
   <g id="legend_1">
    <g id="patch_7">
     <path d="M 64.6 122.862625 
L 241.8625 122.862625 
Q 243.8625 122.862625 243.8625 120.862625 
L 243.8625 48.472 
Q 243.8625 46.472 241.8625 46.472 
L 64.6 46.472 
Q 62.6 46.472 62.6 48.472 
L 62.6 120.862625 
Q 62.6 122.862625 64.6 122.862625 
z
" style="fill: #ffffff; opacity: 0.8; stroke: #cccccc; stroke-linejoin: miter"/>
    </g>
    <g id="line2d_18">
     <path d="M 66.6 54.570438 
L 76.6 54.570438 
L 86.6 54.570438 
" style="fill: none; stroke: #32cd32; stroke-linecap: square"/>
    </g>
    <g id="text_16">
     <!-- Time In -->
     <g transform="translate(94.6 58.070438)scale(0.1 -0.1)">
      <use xlink:href="#DejaVuSans-54"/>
      <use xlink:href="#DejaVuSans-69" x="57.958984"/>
      <use xlink:href="#DejaVuSans-6d" x="85.742188"/>
      <use xlink:href="#DejaVuSans-65" x="183.154297"/>
      <use xlink:href="#DejaVuSans-20" x="244.677734"/>
      <use xlink:href="#DejaVuSans-49" x="276.464844"/>
      <use xlink:href="#DejaVuSans-6e" x="305.957031"/>
     </g>
    </g>
    <g id="line2d_19">
     <path d="M 66.6 69.248563 
L 76.6 69.248563 
L 86.6 69.248563 
" style="fill: none; stroke-dasharray: 3.7,1.6; stroke-dashoffset: 0; stroke: #4169e1"/>
    </g>
    <g id="text_17">
     <!-- Time Delivered - Default -->
     <g transform="translate(94.6 72.748563)scale(0.1 -0.1)">
      <defs>
       <path id="DejaVuSans-2d" d="M 313 2009 
L 1997 2009 
L 1997 1497 
L 313 1497 
L 313 2009 
z
" transform="scale(0.015625)"/>
       <path id="DejaVuSans-66" d="M 2375 4863 
L 2375 4384 
L 1825 4384 
Q 1516 4384 1395 4259 
Q 1275 4134 1275 3809 
L 1275 3500 
L 2222 3500 
L 2222 3053 
L 1275 3053 
L 1275 0 
L 697 0 
L 697 3053 
L 147 3053 
L 147 3500 
L 697 3500 
L 697 3744 
Q 697 4328 969 4595 
Q 1241 4863 1831 4863 
L 2375 4863 
z
" transform="scale(0.015625)"/>
       <path id="DejaVuSans-61" d="M 2194 1759 
Q 1497 1759 1228 1600 
Q 959 1441 959 1056 
Q 959 750 1161 570 
Q 1363 391 1709 391 
Q 2188 391 2477 730 
Q 2766 1069 2766 1631 
L 2766 1759 
L 2194 1759 
z
M 3341 1997 
L 3341 0 
L 2766 0 
L 2766 531 
Q 2569 213 2275 61 
Q 1981 -91 1556 -91 
Q 1019 -91 701 211 
Q 384 513 384 1019 
Q 384 1609 779 1909 
Q 1175 2209 1959 2209 
L 2766 2209 
L 2766 2266 
Q 2766 2663 2505 2880 
Q 2244 3097 1772 3097 
Q 1472 3097 1187 3025 
Q 903 2953 641 2809 
L 641 3341 
Q 956 3463 1253 3523 
Q 1550 3584 1831 3584 
Q 2591 3584 2966 3190 
Q 3341 2797 3341 1997 
z
" transform="scale(0.015625)"/>
       <path id="DejaVuSans-74" d="M 1172 4494 
L 1172 3500 
L 2356 3500 
L 2356 3053 
L 1172 3053 
L 1172 1153 
Q 1172 725 1289 603 
Q 1406 481 1766 481 
L 2356 481 
L 2356 0 
L 1766 0 
Q 1100 0 847 248 
Q 594 497 594 1153 
L 594 3053 
L 172 3053 
L 172 3500 
L 594 3500 
L 594 4494 
L 1172 4494 
z
" transform="scale(0.015625)"/>
      </defs>
      <use xlink:href="#DejaVuSans-54"/>
      <use xlink:href="#DejaVuSans-69" x="57.958984"/>
      <use xlink:href="#DejaVuSans-6d" x="85.742188"/>
      <use xlink:href="#DejaVuSans-65" x="183.154297"/>
      <use xlink:href="#DejaVuSans-20" x="244.677734"/>
      <use xlink:href="#DejaVuSans-44" x="276.464844"/>
      <use xlink:href="#DejaVuSans-65" x="353.466797"/>
      <use xlink:href="#DejaVuSans-6c" x="414.990234"/>
      <use xlink:href="#DejaVuSans-69" x="442.773438"/>
      <use xlink:href="#DejaVuSans-76" x="470.556641"/>
      <use xlink:href="#DejaVuSans-65" x="529.736328"/>
      <use xlink:href="#DejaVuSans-72" x="591.259766"/>
      <use xlink:href="#DejaVuSans-65" x="630.123047"/>
      <use xlink:href="#DejaVuSans-64" x="691.646484"/>
      <use xlink:href="#DejaVuSans-20" x="755.123047"/>
      <use xlink:href="#DejaVuSans-2d" x="786.910156"/>
      <use xlink:href="#DejaVuSans-20" x="822.994141"/>
      <use xlink:href="#DejaVuSans-44" x="854.78125"/>
      <use xlink:href="#DejaVuSans-65" x="931.783203"/>
      <use xlink:href="#DejaVuSans-66" x="993.306641"/>
      <use xlink:href="#DejaVuSans-61" x="1028.511719"/>
      <use xlink:href="#DejaVuSans-75" x="1089.791016"/>
      <use xlink:href="#DejaVuSans-6c" x="1153.169922"/>
      <use xlink:href="#DejaVuSans-74" x="1180.953125"/>
     </g>
    </g>
    <g id="line2d_20">
     <path d="M 66.6 83.926688 
L 76.6 83.926688 
L 86.6 83.926688 
" style="fill: none; stroke-dasharray: 1,1.65; stroke-dashoffset: 0; stroke: #ffa500"/>
    </g>
    <g id="text_18">
     <!-- Time Delivered - Anticipation -->
     <g transform="translate(94.6 87.426688)scale(0.1 -0.1)">
      <defs>
       <path id="DejaVuSans-41" d="M 2188 4044 
L 1331 1722 
L 3047 1722 
L 2188 4044 
z
M 1831 4666 
L 2547 4666 
L 4325 0 
L 3669 0 
L 3244 1197 
L 1141 1197 
L 716 0 
L 50 0 
L 1831 4666 
z
" transform="scale(0.015625)"/>
       <path id="DejaVuSans-63" d="M 3122 3366 
L 3122 2828 
Q 2878 2963 2633 3030 
Q 2388 3097 2138 3097 
Q 1578 3097 1268 2742 
Q 959 2388 959 1747 
Q 959 1106 1268 751 
Q 1578 397 2138 397 
Q 2388 397 2633 464 
Q 2878 531 3122 666 
L 3122 134 
Q 2881 22 2623 -34 
Q 2366 -91 2075 -91 
Q 1284 -91 818 406 
Q 353 903 353 1747 
Q 353 2603 823 3093 
Q 1294 3584 2113 3584 
Q 2378 3584 2631 3529 
Q 2884 3475 3122 3366 
z
" transform="scale(0.015625)"/>
       <path id="DejaVuSans-70" d="M 1159 525 
L 1159 -1331 
L 581 -1331 
L 581 3500 
L 1159 3500 
L 1159 2969 
Q 1341 3281 1617 3432 
Q 1894 3584 2278 3584 
Q 2916 3584 3314 3078 
Q 3713 2572 3713 1747 
Q 3713 922 3314 415 
Q 2916 -91 2278 -91 
Q 1894 -91 1617 61 
Q 1341 213 1159 525 
z
M 3116 1747 
Q 3116 2381 2855 2742 
Q 2594 3103 2138 3103 
Q 1681 3103 1420 2742 
Q 1159 2381 1159 1747 
Q 1159 1113 1420 752 
Q 1681 391 2138 391 
Q 2594 391 2855 752 
Q 3116 1113 3116 1747 
z
" transform="scale(0.015625)"/>
       <path id="DejaVuSans-6f" d="M 1959 3097 
Q 1497 3097 1228 2736 
Q 959 2375 959 1747 
Q 959 1119 1226 758 
Q 1494 397 1959 397 
Q 2419 397 2687 759 
Q 2956 1122 2956 1747 
Q 2956 2369 2687 2733 
Q 2419 3097 1959 3097 
z
M 1959 3584 
Q 2709 3584 3137 3096 
Q 3566 2609 3566 1747 
Q 3566 888 3137 398 
Q 2709 -91 1959 -91 
Q 1206 -91 779 398 
Q 353 888 353 1747 
Q 353 2609 779 3096 
Q 1206 3584 1959 3584 
z
" transform="scale(0.015625)"/>
      </defs>
      <use xlink:href="#DejaVuSans-54"/>
      <use xlink:href="#DejaVuSans-69" x="57.958984"/>
      <use xlink:href="#DejaVuSans-6d" x="85.742188"/>
      <use xlink:href="#DejaVuSans-65" x="183.154297"/>
      <use xlink:href="#DejaVuSans-20" x="244.677734"/>
      <use xlink:href="#DejaVuSans-44" x="276.464844"/>
      <use xlink:href="#DejaVuSans-65" x="353.466797"/>
      <use xlink:href="#DejaVuSans-6c" x="414.990234"/>
      <use xlink:href="#DejaVuSans-69" x="442.773438"/>
      <use xlink:href="#DejaVuSans-76" x="470.556641"/>
      <use xlink:href="#DejaVuSans-65" x="529.736328"/>
      <use xlink:href="#DejaVuSans-72" x="591.259766"/>
      <use xlink:href="#DejaVuSans-65" x="630.123047"/>
      <use xlink:href="#DejaVuSans-64" x="691.646484"/>
      <use xlink:href="#DejaVuSans-20" x="755.123047"/>
      <use xlink:href="#DejaVuSans-2d" x="786.910156"/>
      <use xlink:href="#DejaVuSans-20" x="822.994141"/>
      <use xlink:href="#DejaVuSans-41" x="854.78125"/>
      <use xlink:href="#DejaVuSans-6e" x="923.189453"/>
      <use xlink:href="#DejaVuSans-74" x="986.568359"/>
      <use xlink:href="#DejaVuSans-69" x="1025.777344"/>
      <use xlink:href="#DejaVuSans-63" x="1053.560547"/>
      <use xlink:href="#DejaVuSans-69" x="1108.541016"/>
      <use xlink:href="#DejaVuSans-70" x="1136.324219"/>
      <use xlink:href="#DejaVuSans-61" x="1199.800781"/>
      <use xlink:href="#DejaVuSans-74" x="1261.080078"/>
      <use xlink:href="#DejaVuSans-69" x="1300.289062"/>
      <use xlink:href="#DejaVuSans-6f" x="1328.072266"/>
      <use xlink:href="#DejaVuSans-6e" x="1389.253906"/>
     </g>
    </g>
    <g id="line2d_21">
     <path d="M 66.6 98.604813 
L 76.6 98.604813 
L 86.6 98.604813 
" style="fill: none; stroke-dasharray: 1.85,0.8; stroke-dashoffset: 0; stroke: #191970; stroke-width: 0.5"/>
    </g>
    <g id="text_19">
     <!-- best fit line for default -->
     <g transform="translate(94.6 102.104813)scale(0.1 -0.1)">
      <defs>
       <path id="DejaVuSans-62" d="M 3116 1747 
Q 3116 2381 2855 2742 
Q 2594 3103 2138 3103 
Q 1681 3103 1420 2742 
Q 1159 2381 1159 1747 
Q 1159 1113 1420 752 
Q 1681 391 2138 391 
Q 2594 391 2855 752 
Q 3116 1113 3116 1747 
z
M 1159 2969 
Q 1341 3281 1617 3432 
Q 1894 3584 2278 3584 
Q 2916 3584 3314 3078 
Q 3713 2572 3713 1747 
Q 3713 922 3314 415 
Q 2916 -91 2278 -91 
Q 1894 -91 1617 61 
Q 1341 213 1159 525 
L 1159 0 
L 581 0 
L 581 4863 
L 1159 4863 
L 1159 2969 
z
" transform="scale(0.015625)"/>
       <path id="DejaVuSans-73" d="M 2834 3397 
L 2834 2853 
Q 2591 2978 2328 3040 
Q 2066 3103 1784 3103 
Q 1356 3103 1142 2972 
Q 928 2841 928 2578 
Q 928 2378 1081 2264 
Q 1234 2150 1697 2047 
L 1894 2003 
Q 2506 1872 2764 1633 
Q 3022 1394 3022 966 
Q 3022 478 2636 193 
Q 2250 -91 1575 -91 
Q 1294 -91 989 -36 
Q 684 19 347 128 
L 347 722 
Q 666 556 975 473 
Q 1284 391 1588 391 
Q 1994 391 2212 530 
Q 2431 669 2431 922 
Q 2431 1156 2273 1281 
Q 2116 1406 1581 1522 
L 1381 1569 
Q 847 1681 609 1914 
Q 372 2147 372 2553 
Q 372 3047 722 3315 
Q 1072 3584 1716 3584 
Q 2034 3584 2315 3537 
Q 2597 3491 2834 3397 
z
" transform="scale(0.015625)"/>
      </defs>
      <use xlink:href="#DejaVuSans-62"/>
      <use xlink:href="#DejaVuSans-65" x="63.476562"/>
      <use xlink:href="#DejaVuSans-73" x="125"/>
      <use xlink:href="#DejaVuSans-74" x="177.099609"/>
      <use xlink:href="#DejaVuSans-20" x="216.308594"/>
      <use xlink:href="#DejaVuSans-66" x="248.095703"/>
      <use xlink:href="#DejaVuSans-69" x="283.300781"/>
      <use xlink:href="#DejaVuSans-74" x="311.083984"/>
      <use xlink:href="#DejaVuSans-20" x="350.292969"/>
      <use xlink:href="#DejaVuSans-6c" x="382.080078"/>
      <use xlink:href="#DejaVuSans-69" x="409.863281"/>
      <use xlink:href="#DejaVuSans-6e" x="437.646484"/>
      <use xlink:href="#DejaVuSans-65" x="501.025391"/>
      <use xlink:href="#DejaVuSans-20" x="562.548828"/>
      <use xlink:href="#DejaVuSans-66" x="594.335938"/>
      <use xlink:href="#DejaVuSans-6f" x="629.541016"/>
      <use xlink:href="#DejaVuSans-72" x="690.722656"/>
      <use xlink:href="#DejaVuSans-20" x="731.835938"/>
      <use xlink:href="#DejaVuSans-64" x="763.623047"/>
      <use xlink:href="#DejaVuSans-65" x="827.099609"/>
      <use xlink:href="#DejaVuSans-66" x="888.623047"/>
      <use xlink:href="#DejaVuSans-61" x="923.828125"/>
      <use xlink:href="#DejaVuSans-75" x="985.107422"/>
      <use xlink:href="#DejaVuSans-6c" x="1048.486328"/>
      <use xlink:href="#DejaVuSans-74" x="1076.269531"/>
     </g>
    </g>
    <g id="line2d_22">
     <path d="M 66.6 113.282938 
L 76.6 113.282938 
L 86.6 113.282938 
" style="fill: none; stroke-dasharray: 0.5,0.825; stroke-dashoffset: 0; stroke: #ff0000; stroke-width: 0.5"/>
    </g>
    <g id="text_20">
     <!-- best fit line for anticipation -->
     <g transform="translate(94.6 116.782938)scale(0.1 -0.1)">
      <use xlink:href="#DejaVuSans-62"/>
      <use xlink:href="#DejaVuSans-65" x="63.476562"/>
      <use xlink:href="#DejaVuSans-73" x="125"/>
      <use xlink:href="#DejaVuSans-74" x="177.099609"/>
      <use xlink:href="#DejaVuSans-20" x="216.308594"/>
      <use xlink:href="#DejaVuSans-66" x="248.095703"/>
      <use xlink:href="#DejaVuSans-69" x="283.300781"/>
      <use xlink:href="#DejaVuSans-74" x="311.083984"/>
      <use xlink:href="#DejaVuSans-20" x="350.292969"/>
      <use xlink:href="#DejaVuSans-6c" x="382.080078"/>
      <use xlink:href="#DejaVuSans-69" x="409.863281"/>
      <use xlink:href="#DejaVuSans-6e" x="437.646484"/>
      <use xlink:href="#DejaVuSans-65" x="501.025391"/>
      <use xlink:href="#DejaVuSans-20" x="562.548828"/>
      <use xlink:href="#DejaVuSans-66" x="594.335938"/>
      <use xlink:href="#DejaVuSans-6f" x="629.541016"/>
      <use xlink:href="#DejaVuSans-72" x="690.722656"/>
      <use xlink:href="#DejaVuSans-20" x="731.835938"/>
      <use xlink:href="#DejaVuSans-61" x="763.623047"/>
      <use xlink:href="#DejaVuSans-6e" x="824.902344"/>
      <use xlink:href="#DejaVuSans-74" x="888.28125"/>
      <use xlink:href="#DejaVuSans-69" x="927.490234"/>
      <use xlink:href="#DejaVuSans-63" x="955.273438"/>
      <use xlink:href="#DejaVuSans-69" x="1010.253906"/>
      <use xlink:href="#DejaVuSans-70" x="1038.037109"/>
      <use xlink:href="#DejaVuSans-61" x="1101.513672"/>
      <use xlink:href="#DejaVuSans-74" x="1162.792969"/>
      <use xlink:href="#DejaVuSans-69" x="1202.001953"/>
      <use xlink:href="#DejaVuSans-6f" x="1229.785156"/>
      <use xlink:href="#DejaVuSans-6e" x="1290.966797"/>
     </g>
    </g>
   </g>
  </g>
 </g>
 <defs>
  <clipPath id="p79d2f63799">
   <rect x="57.6" y="41.472" width="357.12" height="266.112"/>
  </clipPath>
 </defs>
</svg>
