<?xml version="1.0" encoding="utf-8" standalone="no"?>
<!DOCTYPE svg PUBLIC "-//W3C//DTD SVG 1.1//EN"
  "http://www.w3.org/Graphics/SVG/1.1/DTD/svg11.dtd">
<svg xmlns:xlink="http://www.w3.org/1999/xlink" width="460.8pt" height="345.6pt" viewBox="0 0 460.8 345.6" xmlns="http://www.w3.org/2000/svg" version="1.1">
 <metadata>
  <rdf:RDF xmlns:dc="http://purl.org/dc/elements/1.1/" xmlns:cc="http://creativecommons.org/ns#" xmlns:rdf="http://www.w3.org/1999/02/22-rdf-syntax-ns#">
   <cc:Work>
    <dc:type rdf:resource="http://purl.org/dc/dcmitype/StillImage"/>
    <dc:date>2022-09-12T15:39:21.976850</dc:date>
    <dc:format>image/svg+xml</dc:format>
    <dc:creator>
     <cc:Agent>
      <dc:title>Matplotlib v3.5.2, https://matplotlib.org/</dc:title>
     </cc:Agent>
    </dc:creator>
   </cc:Work>
  </rdf:RDF>
 </metadata>
 <defs>
  <style type="text/css">*{stroke-linejoin: round; stroke-linecap: butt}</style>
 </defs>
 <g id="figure_1">
  <g id="patch_1">
   <path d="M 0 345.6 
L 460.8 345.6 
L 460.8 0 
L 0 0 
z
" style="fill: #ffffff"/>
  </g>
  <g id="axes_1">
   <g id="patch_2">
    <path d="M 57.6 307.584 
L 414.72 307.584 
L 414.72 41.472 
L 57.6 41.472 
z
" style="fill: #ffffff"/>
   </g>
   <g id="matplotlib.axis_1">
    <g id="xtick_1">
     <g id="line2d_1">
      <defs>
       <path id="maaa2198276" d="M 0 0 
L 0 3.5 
" style="stroke: #000000; stroke-width: 0.8"/>
      </defs>
      <g>
       <use xlink:href="#maaa2198276" x="73.832727" y="307.584" style="stroke: #000000; stroke-width: 0.8"/>
      </g>
     </g>
     <g id="text_1">
      <!-- 0 -->
      <g transform="translate(70.651477 322.182437)scale(0.1 -0.1)">
       <defs>
        <path id="DejaVuSans-30" d="M 2034 4250 
Q 1547 4250 1301 3770 
Q 1056 3291 1056 2328 
Q 1056 1369 1301 889 
Q 1547 409 2034 409 
Q 2525 409 2770 889 
Q 3016 1369 3016 2328 
Q 3016 3291 2770 3770 
Q 2525 4250 2034 4250 
z
M 2034 4750 
Q 2819 4750 3233 4129 
Q 3647 3509 3647 2328 
Q 3647 1150 3233 529 
Q 2819 -91 2034 -91 
Q 1250 -91 836 529 
Q 422 1150 422 2328 
Q 422 3509 836 4129 
Q 1250 4750 2034 4750 
z
" transform="scale(0.015625)"/>
       </defs>
       <use xlink:href="#DejaVuSans-30"/>
      </g>
     </g>
    </g>
    <g id="xtick_2">
     <g id="line2d_2">
      <g>
       <use xlink:href="#maaa2198276" x="142.181053" y="307.584" style="stroke: #000000; stroke-width: 0.8"/>
      </g>
     </g>
     <g id="text_2">
      <!-- 200 -->
      <g transform="translate(132.637303 322.182437)scale(0.1 -0.1)">
       <defs>
        <path id="DejaVuSans-32" d="M 1228 531 
L 3431 531 
L 3431 0 
L 469 0 
L 469 531 
Q 828 903 1448 1529 
Q 2069 2156 2228 2338 
Q 2531 2678 2651 2914 
Q 2772 3150 2772 3378 
Q 2772 3750 2511 3984 
Q 2250 4219 1831 4219 
Q 1534 4219 1204 4116 
Q 875 4013 500 3803 
L 500 4441 
Q 881 4594 1212 4672 
Q 1544 4750 1819 4750 
Q 2544 4750 2975 4387 
Q 3406 4025 3406 3419 
Q 3406 3131 3298 2873 
Q 3191 2616 2906 2266 
Q 2828 2175 2409 1742 
Q 1991 1309 1228 531 
z
" transform="scale(0.015625)"/>
       </defs>
       <use xlink:href="#DejaVuSans-32"/>
       <use xlink:href="#DejaVuSans-30" x="63.623047"/>
       <use xlink:href="#DejaVuSans-30" x="127.246094"/>
      </g>
     </g>
    </g>
    <g id="xtick_3">
     <g id="line2d_3">
      <g>
       <use xlink:href="#maaa2198276" x="210.529378" y="307.584" style="stroke: #000000; stroke-width: 0.8"/>
      </g>
     </g>
     <g id="text_3">
      <!-- 400 -->
      <g transform="translate(200.985628 322.182437)scale(0.1 -0.1)">
       <defs>
        <path id="DejaVuSans-34" d="M 2419 4116 
L 825 1625 
L 2419 1625 
L 2419 4116 
z
M 2253 4666 
L 3047 4666 
L 3047 1625 
L 3713 1625 
L 3713 1100 
L 3047 1100 
L 3047 0 
L 2419 0 
L 2419 1100 
L 313 1100 
L 313 1709 
L 2253 4666 
z
" transform="scale(0.015625)"/>
       </defs>
       <use xlink:href="#DejaVuSans-34"/>
       <use xlink:href="#DejaVuSans-30" x="63.623047"/>
       <use xlink:href="#DejaVuSans-30" x="127.246094"/>
      </g>
     </g>
    </g>
    <g id="xtick_4">
     <g id="line2d_4">
      <g>
       <use xlink:href="#maaa2198276" x="278.877703" y="307.584" style="stroke: #000000; stroke-width: 0.8"/>
      </g>
     </g>
     <g id="text_4">
      <!-- 600 -->
      <g transform="translate(269.333953 322.182437)scale(0.1 -0.1)">
       <defs>
        <path id="DejaVuSans-36" d="M 2113 2584 
Q 1688 2584 1439 2293 
Q 1191 2003 1191 1497 
Q 1191 994 1439 701 
Q 1688 409 2113 409 
Q 2538 409 2786 701 
Q 3034 994 3034 1497 
Q 3034 2003 2786 2293 
Q 2538 2584 2113 2584 
z
M 3366 4563 
L 3366 3988 
Q 3128 4100 2886 4159 
Q 2644 4219 2406 4219 
Q 1781 4219 1451 3797 
Q 1122 3375 1075 2522 
Q 1259 2794 1537 2939 
Q 1816 3084 2150 3084 
Q 2853 3084 3261 2657 
Q 3669 2231 3669 1497 
Q 3669 778 3244 343 
Q 2819 -91 2113 -91 
Q 1303 -91 875 529 
Q 447 1150 447 2328 
Q 447 3434 972 4092 
Q 1497 4750 2381 4750 
Q 2619 4750 2861 4703 
Q 3103 4656 3366 4563 
z
" transform="scale(0.015625)"/>
       </defs>
       <use xlink:href="#DejaVuSans-36"/>
       <use xlink:href="#DejaVuSans-30" x="63.623047"/>
       <use xlink:href="#DejaVuSans-30" x="127.246094"/>
      </g>
     </g>
    </g>
    <g id="xtick_5">
     <g id="line2d_5">
      <g>
       <use xlink:href="#maaa2198276" x="347.226029" y="307.584" style="stroke: #000000; stroke-width: 0.8"/>
      </g>
     </g>
     <g id="text_5">
      <!-- 800 -->
      <g transform="translate(337.682279 322.182437)scale(0.1 -0.1)">
       <defs>
        <path id="DejaVuSans-38" d="M 2034 2216 
Q 1584 2216 1326 1975 
Q 1069 1734 1069 1313 
Q 1069 891 1326 650 
Q 1584 409 2034 409 
Q 2484 409 2743 651 
Q 3003 894 3003 1313 
Q 3003 1734 2745 1975 
Q 2488 2216 2034 2216 
z
M 1403 2484 
Q 997 2584 770 2862 
Q 544 3141 544 3541 
Q 544 4100 942 4425 
Q 1341 4750 2034 4750 
Q 2731 4750 3128 4425 
Q 3525 4100 3525 3541 
Q 3525 3141 3298 2862 
Q 3072 2584 2669 2484 
Q 3125 2378 3379 2068 
Q 3634 1759 3634 1313 
Q 3634 634 3220 271 
Q 2806 -91 2034 -91 
Q 1263 -91 848 271 
Q 434 634 434 1313 
Q 434 1759 690 2068 
Q 947 2378 1403 2484 
z
M 1172 3481 
Q 1172 3119 1398 2916 
Q 1625 2713 2034 2713 
Q 2441 2713 2670 2916 
Q 2900 3119 2900 3481 
Q 2900 3844 2670 4047 
Q 2441 4250 2034 4250 
Q 1625 4250 1398 4047 
Q 1172 3844 1172 3481 
z
" transform="scale(0.015625)"/>
       </defs>
       <use xlink:href="#DejaVuSans-38"/>
       <use xlink:href="#DejaVuSans-30" x="63.623047"/>
       <use xlink:href="#DejaVuSans-30" x="127.246094"/>
      </g>
     </g>
    </g>
    <g id="text_6">
     <!-- Order Index -->
     <g transform="translate(206.594375 335.860562)scale(0.1 -0.1)">
      <defs>
       <path id="DejaVuSans-4f" d="M 2522 4238 
Q 1834 4238 1429 3725 
Q 1025 3213 1025 2328 
Q 1025 1447 1429 934 
Q 1834 422 2522 422 
Q 3209 422 3611 934 
Q 4013 1447 4013 2328 
Q 4013 3213 3611 3725 
Q 3209 4238 2522 4238 
z
M 2522 4750 
Q 3503 4750 4090 4092 
Q 4678 3434 4678 2328 
Q 4678 1225 4090 567 
Q 3503 -91 2522 -91 
Q 1538 -91 948 565 
Q 359 1222 359 2328 
Q 359 3434 948 4092 
Q 1538 4750 2522 4750 
z
" transform="scale(0.015625)"/>
       <path id="DejaVuSans-72" d="M 2631 2963 
Q 2534 3019 2420 3045 
Q 2306 3072 2169 3072 
Q 1681 3072 1420 2755 
Q 1159 2438 1159 1844 
L 1159 0 
L 581 0 
L 581 3500 
L 1159 3500 
L 1159 2956 
Q 1341 3275 1631 3429 
Q 1922 3584 2338 3584 
Q 2397 3584 2469 3576 
Q 2541 3569 2628 3553 
L 2631 2963 
z
" transform="scale(0.015625)"/>
       <path id="DejaVuSans-64" d="M 2906 2969 
L 2906 4863 
L 3481 4863 
L 3481 0 
L 2906 0 
L 2906 525 
Q 2725 213 2448 61 
Q 2172 -91 1784 -91 
Q 1150 -91 751 415 
Q 353 922 353 1747 
Q 353 2572 751 3078 
Q 1150 3584 1784 3584 
Q 2172 3584 2448 3432 
Q 2725 3281 2906 2969 
z
M 947 1747 
Q 947 1113 1208 752 
Q 1469 391 1925 391 
Q 2381 391 2643 752 
Q 2906 1113 2906 1747 
Q 2906 2381 2643 2742 
Q 2381 3103 1925 3103 
Q 1469 3103 1208 2742 
Q 947 2381 947 1747 
z
" transform="scale(0.015625)"/>
       <path id="DejaVuSans-65" d="M 3597 1894 
L 3597 1613 
L 953 1613 
Q 991 1019 1311 708 
Q 1631 397 2203 397 
Q 2534 397 2845 478 
Q 3156 559 3463 722 
L 3463 178 
Q 3153 47 2828 -22 
Q 2503 -91 2169 -91 
Q 1331 -91 842 396 
Q 353 884 353 1716 
Q 353 2575 817 3079 
Q 1281 3584 2069 3584 
Q 2775 3584 3186 3129 
Q 3597 2675 3597 1894 
z
M 3022 2063 
Q 3016 2534 2758 2815 
Q 2500 3097 2075 3097 
Q 1594 3097 1305 2825 
Q 1016 2553 972 2059 
L 3022 2063 
z
" transform="scale(0.015625)"/>
       <path id="DejaVuSans-20" transform="scale(0.015625)"/>
       <path id="DejaVuSans-49" d="M 628 4666 
L 1259 4666 
L 1259 0 
L 628 0 
L 628 4666 
z
" transform="scale(0.015625)"/>
       <path id="DejaVuSans-6e" d="M 3513 2113 
L 3513 0 
L 2938 0 
L 2938 2094 
Q 2938 2591 2744 2837 
Q 2550 3084 2163 3084 
Q 1697 3084 1428 2787 
Q 1159 2491 1159 1978 
L 1159 0 
L 581 0 
L 581 3500 
L 1159 3500 
L 1159 2956 
Q 1366 3272 1645 3428 
Q 1925 3584 2291 3584 
Q 2894 3584 3203 3211 
Q 3513 2838 3513 2113 
z
" transform="scale(0.015625)"/>
       <path id="DejaVuSans-78" d="M 3513 3500 
L 2247 1797 
L 3578 0 
L 2900 0 
L 1881 1375 
L 863 0 
L 184 0 
L 1544 1831 
L 300 3500 
L 978 3500 
L 1906 2253 
L 2834 3500 
L 3513 3500 
z
" transform="scale(0.015625)"/>
      </defs>
      <use xlink:href="#DejaVuSans-4f"/>
      <use xlink:href="#DejaVuSans-72" x="78.710938"/>
      <use xlink:href="#DejaVuSans-64" x="118.074219"/>
      <use xlink:href="#DejaVuSans-65" x="181.550781"/>
      <use xlink:href="#DejaVuSans-72" x="243.074219"/>
      <use xlink:href="#DejaVuSans-20" x="284.1875"/>
      <use xlink:href="#DejaVuSans-49" x="315.974609"/>
      <use xlink:href="#DejaVuSans-6e" x="345.466797"/>
      <use xlink:href="#DejaVuSans-64" x="408.845703"/>
      <use xlink:href="#DejaVuSans-65" x="472.322266"/>
      <use xlink:href="#DejaVuSans-78" x="532.095703"/>
     </g>
    </g>
   </g>
   <g id="matplotlib.axis_2">
    <g id="ytick_1">
     <g id="line2d_6">
      <defs>
       <path id="m3e0d329a44" d="M 0 0 
L -3.5 0 
" style="stroke: #000000; stroke-width: 0.8"/>
      </defs>
      <g>
       <use xlink:href="#m3e0d329a44" x="57.6" y="295.932607" style="stroke: #000000; stroke-width: 0.8"/>
      </g>
     </g>
     <g id="text_7">
      <!-- 0 -->
      <g transform="translate(44.2375 299.731826)scale(0.1 -0.1)">
       <use xlink:href="#DejaVuSans-30"/>
      </g>
     </g>
    </g>
    <g id="ytick_2">
     <g id="line2d_7">
      <g>
       <use xlink:href="#m3e0d329a44" x="57.6" y="251.471907" style="stroke: #000000; stroke-width: 0.8"/>
      </g>
     </g>
     <g id="text_8">
      <!-- 100 -->
      <g transform="translate(31.5125 255.271126)scale(0.1 -0.1)">
       <defs>
        <path id="DejaVuSans-31" d="M 794 531 
L 1825 531 
L 1825 4091 
L 703 3866 
L 703 4441 
L 1819 4666 
L 2450 4666 
L 2450 531 
L 3481 531 
L 3481 0 
L 794 0 
L 794 531 
z
" transform="scale(0.015625)"/>
       </defs>
       <use xlink:href="#DejaVuSans-31"/>
       <use xlink:href="#DejaVuSans-30" x="63.623047"/>
       <use xlink:href="#DejaVuSans-30" x="127.246094"/>
      </g>
     </g>
    </g>
    <g id="ytick_3">
     <g id="line2d_8">
      <g>
       <use xlink:href="#m3e0d329a44" x="57.6" y="207.011207" style="stroke: #000000; stroke-width: 0.8"/>
      </g>
     </g>
     <g id="text_9">
      <!-- 200 -->
      <g transform="translate(31.5125 210.810426)scale(0.1 -0.1)">
       <use xlink:href="#DejaVuSans-32"/>
       <use xlink:href="#DejaVuSans-30" x="63.623047"/>
       <use xlink:href="#DejaVuSans-30" x="127.246094"/>
      </g>
     </g>
    </g>
    <g id="ytick_4">
     <g id="line2d_9">
      <g>
       <use xlink:href="#m3e0d329a44" x="57.6" y="162.550508" style="stroke: #000000; stroke-width: 0.8"/>
      </g>
     </g>
     <g id="text_10">
      <!-- 300 -->
      <g transform="translate(31.5125 166.349726)scale(0.1 -0.1)">
       <defs>
        <path id="DejaVuSans-33" d="M 2597 2516 
Q 3050 2419 3304 2112 
Q 3559 1806 3559 1356 
Q 3559 666 3084 287 
Q 2609 -91 1734 -91 
Q 1441 -91 1130 -33 
Q 819 25 488 141 
L 488 750 
Q 750 597 1062 519 
Q 1375 441 1716 441 
Q 2309 441 2620 675 
Q 2931 909 2931 1356 
Q 2931 1769 2642 2001 
Q 2353 2234 1838 2234 
L 1294 2234 
L 1294 2753 
L 1863 2753 
Q 2328 2753 2575 2939 
Q 2822 3125 2822 3475 
Q 2822 3834 2567 4026 
Q 2313 4219 1838 4219 
Q 1578 4219 1281 4162 
Q 984 4106 628 3988 
L 628 4550 
Q 988 4650 1302 4700 
Q 1616 4750 1894 4750 
Q 2613 4750 3031 4423 
Q 3450 4097 3450 3541 
Q 3450 3153 3228 2886 
Q 3006 2619 2597 2516 
z
" transform="scale(0.015625)"/>
       </defs>
       <use xlink:href="#DejaVuSans-33"/>
       <use xlink:href="#DejaVuSans-30" x="63.623047"/>
       <use xlink:href="#DejaVuSans-30" x="127.246094"/>
      </g>
     </g>
    </g>
    <g id="ytick_5">
     <g id="line2d_10">
      <g>
       <use xlink:href="#m3e0d329a44" x="57.6" y="118.089808" style="stroke: #000000; stroke-width: 0.8"/>
      </g>
     </g>
     <g id="text_11">
      <!-- 400 -->
      <g transform="translate(31.5125 121.889027)scale(0.1 -0.1)">
       <use xlink:href="#DejaVuSans-34"/>
       <use xlink:href="#DejaVuSans-30" x="63.623047"/>
       <use xlink:href="#DejaVuSans-30" x="127.246094"/>
      </g>
     </g>
    </g>
    <g id="ytick_6">
     <g id="line2d_11">
      <g>
       <use xlink:href="#m3e0d329a44" x="57.6" y="73.629108" style="stroke: #000000; stroke-width: 0.8"/>
      </g>
     </g>
     <g id="text_12">
      <!-- 500 -->
      <g transform="translate(31.5125 77.428327)scale(0.1 -0.1)">
       <defs>
        <path id="DejaVuSans-35" d="M 691 4666 
L 3169 4666 
L 3169 4134 
L 1269 4134 
L 1269 2991 
Q 1406 3038 1543 3061 
Q 1681 3084 1819 3084 
Q 2600 3084 3056 2656 
Q 3513 2228 3513 1497 
Q 3513 744 3044 326 
Q 2575 -91 1722 -91 
Q 1428 -91 1123 -41 
Q 819 9 494 109 
L 494 744 
Q 775 591 1075 516 
Q 1375 441 1709 441 
Q 2250 441 2565 725 
Q 2881 1009 2881 1497 
Q 2881 1984 2565 2268 
Q 2250 2553 1709 2553 
Q 1456 2553 1204 2497 
Q 953 2441 691 2322 
L 691 4666 
z
" transform="scale(0.015625)"/>
       </defs>
       <use xlink:href="#DejaVuSans-35"/>
       <use xlink:href="#DejaVuSans-30" x="63.623047"/>
       <use xlink:href="#DejaVuSans-30" x="127.246094"/>
      </g>
     </g>
    </g>
    <g id="text_13">
     <!-- Order Delivered Time -->
     <g transform="translate(25.432812 228.08425)rotate(-90)scale(0.1 -0.1)">
      <defs>
       <path id="DejaVuSans-44" d="M 1259 4147 
L 1259 519 
L 2022 519 
Q 2988 519 3436 956 
Q 3884 1394 3884 2338 
Q 3884 3275 3436 3711 
Q 2988 4147 2022 4147 
L 1259 4147 
z
M 628 4666 
L 1925 4666 
Q 3281 4666 3915 4102 
Q 4550 3538 4550 2338 
Q 4550 1131 3912 565 
Q 3275 0 1925 0 
L 628 0 
L 628 4666 
z
" transform="scale(0.015625)"/>
       <path id="DejaVuSans-6c" d="M 603 4863 
L 1178 4863 
L 1178 0 
L 603 0 
L 603 4863 
z
" transform="scale(0.015625)"/>
       <path id="DejaVuSans-69" d="M 603 3500 
L 1178 3500 
L 1178 0 
L 603 0 
L 603 3500 
z
M 603 4863 
L 1178 4863 
L 1178 4134 
L 603 4134 
L 603 4863 
z
" transform="scale(0.015625)"/>
       <path id="DejaVuSans-76" d="M 191 3500 
L 800 3500 
L 1894 563 
L 2988 3500 
L 3597 3500 
L 2284 0 
L 1503 0 
L 191 3500 
z
" transform="scale(0.015625)"/>
       <path id="DejaVuSans-54" d="M -19 4666 
L 3928 4666 
L 3928 4134 
L 2272 4134 
L 2272 0 
L 1638 0 
L 1638 4134 
L -19 4134 
L -19 4666 
z
" transform="scale(0.015625)"/>
       <path id="DejaVuSans-6d" d="M 3328 2828 
Q 3544 3216 3844 3400 
Q 4144 3584 4550 3584 
Q 5097 3584 5394 3201 
Q 5691 2819 5691 2113 
L 5691 0 
L 5113 0 
L 5113 2094 
Q 5113 2597 4934 2840 
Q 4756 3084 4391 3084 
Q 3944 3084 3684 2787 
Q 3425 2491 3425 1978 
L 3425 0 
L 2847 0 
L 2847 2094 
Q 2847 2600 2669 2842 
Q 2491 3084 2119 3084 
Q 1678 3084 1418 2786 
Q 1159 2488 1159 1978 
L 1159 0 
L 581 0 
L 581 3500 
L 1159 3500 
L 1159 2956 
Q 1356 3278 1631 3431 
Q 1906 3584 2284 3584 
Q 2666 3584 2933 3390 
Q 3200 3197 3328 2828 
z
" transform="scale(0.015625)"/>
      </defs>
      <use xlink:href="#DejaVuSans-4f"/>
      <use xlink:href="#DejaVuSans-72" x="78.710938"/>
      <use xlink:href="#DejaVuSans-64" x="118.074219"/>
      <use xlink:href="#DejaVuSans-65" x="181.550781"/>
      <use xlink:href="#DejaVuSans-72" x="243.074219"/>
      <use xlink:href="#DejaVuSans-20" x="284.1875"/>
      <use xlink:href="#DejaVuSans-44" x="315.974609"/>
      <use xlink:href="#DejaVuSans-65" x="392.976562"/>
      <use xlink:href="#DejaVuSans-6c" x="454.5"/>
      <use xlink:href="#DejaVuSans-69" x="482.283203"/>
      <use xlink:href="#DejaVuSans-76" x="510.066406"/>
      <use xlink:href="#DejaVuSans-65" x="569.246094"/>
      <use xlink:href="#DejaVuSans-72" x="630.769531"/>
      <use xlink:href="#DejaVuSans-65" x="669.632812"/>
      <use xlink:href="#DejaVuSans-64" x="731.15625"/>
      <use xlink:href="#DejaVuSans-20" x="794.632812"/>
      <use xlink:href="#DejaVuSans-54" x="826.419922"/>
      <use xlink:href="#DejaVuSans-69" x="884.378906"/>
      <use xlink:href="#DejaVuSans-6d" x="912.162109"/>
      <use xlink:href="#DejaVuSans-65" x="1009.574219"/>
     </g>
    </g>
   </g>
   <g id="line2d_12">
    <path d="M 73.832727 295.488 
L 74.174469 295.488 
L 74.516211 295.043393 
L 74.857952 295.043393 
L 75.541435 294.154179 
L 75.883177 294.154179 
L 76.224919 293.709572 
L 76.56666 293.709572 
L 76.908402 293.264965 
L 77.591885 293.264965 
L 77.933627 292.820358 
L 78.275368 292.820358 
L 78.958852 291.931144 
L 79.300593 291.931144 
L 79.984077 291.04193 
L 80.325818 291.04193 
L 80.66756 290.152716 
L 81.692785 290.152716 
L 82.034526 289.708109 
L 82.71801 289.708109 
L 83.059751 289.263502 
L 83.401493 289.263502 
L 83.743234 288.818895 
L 84.426718 288.818895 
L 84.768459 288.374288 
L 85.110201 288.374288 
L 85.451943 287.929681 
L 85.793684 287.929681 
L 86.135426 287.040467 
L 86.818909 287.040467 
L 87.160651 286.59586 
L 87.502392 286.59586 
L 88.185876 285.706646 
L 88.527617 285.706646 
L 88.869359 285.262039 
L 89.2111 285.262039 
L 89.552842 284.372825 
L 90.578067 284.372825 
L 90.919809 283.928218 
L 91.603292 283.928218 
L 91.945033 283.483611 
L 92.628517 283.483611 
L 92.970258 283.039004 
L 93.312 283.039004 
L 93.653742 282.14979 
L 95.020708 282.14979 
L 95.36245 281.705183 
L 96.045933 281.705183 
L 96.387675 281.260576 
L 97.071158 281.260576 
L 97.4129 280.815969 
L 98.096383 280.815969 
L 98.779866 279.926755 
L 99.121608 279.926755 
L 99.805091 279.037541 
L 100.146833 279.037541 
L 100.488574 278.592934 
L 101.172057 278.592934 
L 101.513799 277.70372 
L 102.197282 277.70372 
L 102.880766 276.814506 
L 103.222507 276.814506 
L 103.564249 276.369899 
L 104.247732 276.369899 
L 104.589474 275.925292 
L 105.614699 275.925292 
L 105.95644 275.480685 
L 106.298182 275.480685 
L 106.639923 275.036078 
L 106.981665 275.036078 
L 107.665148 274.146864 
L 108.00689 274.146864 
L 108.348632 273.702257 
L 109.373856 273.702257 
L 109.715598 273.25765 
L 110.05734 271.923829 
L 110.740823 271.923829 
L 111.082565 271.479222 
L 111.424306 271.479222 
L 111.766048 271.034615 
L 112.107789 271.034615 
L 112.449531 270.590008 
L 112.791273 270.590008 
L 113.474756 269.700794 
L 113.816498 269.700794 
L 114.158239 269.256187 
L 114.841722 269.256187 
L 115.525206 268.366973 
L 116.208689 268.366973 
L 116.550431 267.477759 
L 117.233914 267.477759 
L 117.575656 267.033152 
L 118.259139 267.033152 
L 118.60088 266.588545 
L 119.626105 266.588545 
L 119.967847 265.699331 
L 120.309589 265.699331 
L 120.65133 265.254724 
L 120.993072 265.254724 
L 121.676555 264.36551 
L 122.018297 264.36551 
L 122.360038 263.920903 
L 123.043522 263.920903 
L 123.385263 263.476296 
L 124.068746 263.476296 
L 124.410488 263.031689 
L 126.119196 263.031689 
L 126.802679 262.142475 
L 127.144421 262.142475 
L 127.827904 261.253261 
L 128.169646 260.364047 
L 128.511388 259.91944 
L 129.536612 259.91944 
L 129.878354 259.474833 
L 130.220096 258.585619 
L 130.903579 258.585619 
L 131.245321 258.141012 
L 131.928804 258.141012 
L 132.270545 257.696405 
L 132.612287 256.807191 
L 133.29577 255.917977 
L 133.637512 255.917977 
L 133.979254 254.584156 
L 134.320995 254.584156 
L 134.662737 254.139549 
L 135.687962 254.139549 
L 136.029703 253.694942 
L 136.713187 253.694942 
L 137.738411 252.361121 
L 138.421895 252.361121 
L 138.763636 251.916514 
L 139.44712 251.916514 
L 139.788861 251.471907 
L 141.155828 251.471907 
L 141.497569 251.0273 
L 141.839311 251.0273 
L 142.181053 250.582693 
L 142.864536 250.582693 
L 143.889761 249.248872 
L 144.231502 249.248872 
L 144.573244 248.804265 
L 145.940211 248.804265 
L 146.281952 248.359658 
L 146.623694 248.359658 
L 147.307177 247.470444 
L 147.648919 247.470444 
L 147.99066 247.025837 
L 148.332402 247.025837 
L 148.674144 246.58123 
L 149.357627 246.58123 
L 150.04111 245.692016 
L 150.382852 245.692016 
L 151.066335 244.802802 
L 151.408077 244.802802 
L 151.749818 243.468981 
L 152.09156 243.468981 
L 152.775043 242.579767 
L 153.800268 242.579767 
L 154.14201 242.13516 
L 154.483751 242.13516 
L 154.825493 241.690553 
L 156.192459 241.690553 
L 156.534201 241.245946 
L 157.217684 241.245946 
L 157.559426 240.801339 
L 158.584651 240.801339 
L 158.926392 240.356732 
L 159.268134 240.356732 
L 159.609876 239.912125 
L 159.951617 239.912125 
L 160.6351 239.022911 
L 161.318584 239.022911 
L 162.343809 237.68909 
L 163.369033 237.68909 
L 163.710775 236.799876 
L 164.052517 236.355269 
L 166.102967 236.355269 
L 166.444708 235.910662 
L 168.153416 235.910662 
L 168.8369 234.132234 
L 170.203866 234.132234 
L 170.545608 233.24302 
L 170.887349 232.798413 
L 171.229091 232.798413 
L 171.570833 231.909199 
L 172.596057 231.909199 
L 172.937799 231.464592 
L 173.621282 231.464592 
L 173.963024 231.019985 
L 174.304766 230.130771 
L 174.646507 229.686164 
L 174.988249 229.686164 
L 175.32999 229.241557 
L 177.038699 229.241557 
L 177.38044 228.79695 
L 178.405665 228.79695 
L 178.747407 228.352343 
L 179.772632 228.352343 
L 180.797856 227.018522 
L 181.139598 227.018522 
L 181.823081 226.129308 
L 183.190048 226.129308 
L 183.531789 224.795487 
L 183.873531 224.795487 
L 184.215273 224.35088 
L 184.557014 224.35088 
L 185.240498 223.461666 
L 186.265722 223.461666 
L 186.607464 222.127845 
L 187.290947 221.238631 
L 187.974431 221.238631 
L 188.316172 220.794024 
L 188.657914 220.794024 
L 189.341397 219.90481 
L 189.683139 219.90481 
L 190.02488 219.460203 
L 190.366622 219.460203 
L 190.708364 219.015596 
L 191.050105 219.015596 
L 192.07533 217.681775 
L 192.758813 217.681775 
L 193.100555 217.237168 
L 193.784038 217.237168 
L 194.12578 216.792561 
L 194.467522 216.792561 
L 195.151005 215.903347 
L 196.17623 215.903347 
L 196.859713 215.014133 
L 197.543196 215.014133 
L 198.568421 213.680312 
L 198.910163 212.791098 
L 199.935388 212.791098 
L 200.618871 211.901884 
L 200.960612 211.901884 
L 201.302354 211.457277 
L 201.644096 211.457277 
L 203.011062 209.678849 
L 203.352804 209.678849 
L 203.694545 209.234242 
L 204.71977 209.234242 
L 205.403254 208.345028 
L 205.744995 208.345028 
L 206.086737 207.900421 
L 206.77022 207.900421 
L 207.111962 207.455814 
L 207.453703 207.455814 
L 207.795445 206.5666 
L 208.137187 206.121993 
L 208.478928 206.121993 
L 209.162411 205.232779 
L 209.504153 205.232779 
L 209.845895 204.788172 
L 210.187636 204.788172 
L 210.529378 204.343565 
L 211.554603 204.343565 
L 211.896344 203.898958 
L 212.238086 203.898958 
L 212.579828 203.454351 
L 213.263311 203.454351 
L 213.605053 203.009744 
L 213.946794 202.12053 
L 214.288536 202.12053 
L 214.630278 201.231316 
L 214.972019 201.231316 
L 215.313761 200.786709 
L 215.655502 200.786709 
L 216.338986 199.897495 
L 216.680727 199.897495 
L 217.705952 198.563674 
L 218.047694 198.563674 
L 218.389435 198.119067 
L 219.072919 198.119067 
L 220.098144 196.785246 
L 220.439885 195.896032 
L 220.781627 195.896032 
L 221.123368 195.451425 
L 221.806852 195.451425 
L 222.148593 195.006818 
L 222.490335 195.006818 
L 223.173818 194.117604 
L 223.51556 194.117604 
L 223.857301 193.672997 
L 224.199043 193.672997 
L 224.540785 193.22839 
L 224.882526 193.22839 
L 225.224268 192.339176 
L 225.56601 192.339176 
L 225.907751 191.894569 
L 226.249493 191.894569 
L 226.591234 191.449962 
L 226.932976 191.449962 
L 227.616459 190.560748 
L 227.958201 190.560748 
L 228.299943 190.116141 
L 228.641684 190.116141 
L 228.983426 189.671535 
L 229.666909 187.893107 
L 230.008651 187.893107 
L 230.350392 187.4485 
L 230.692134 187.4485 
L 231.033876 187.003893 
L 232.0591 187.003893 
L 232.400842 186.559286 
L 232.742584 186.559286 
L 233.767809 185.225465 
L 235.134775 185.225465 
L 235.476517 184.780858 
L 235.818258 183.447037 
L 236.501742 182.557823 
L 236.843483 182.557823 
L 237.185225 182.113216 
L 237.868708 182.113216 
L 238.552191 181.224002 
L 238.893933 180.334788 
L 239.577416 180.334788 
L 239.919158 179.445574 
L 240.2609 179.445574 
L 240.602641 179.000967 
L 241.969608 179.000967 
L 242.311349 178.55636 
L 242.994833 178.55636 
L 243.678316 177.667146 
L 245.045282 177.667146 
L 245.387024 176.777932 
L 245.728766 176.777932 
L 246.75399 175.444111 
L 247.095732 174.554897 
L 247.779215 174.554897 
L 248.462699 173.665683 
L 248.80444 173.665683 
L 249.146182 173.221076 
L 250.171407 173.221076 
L 250.513148 172.776469 
L 251.538373 172.776469 
L 251.880115 172.331862 
L 252.221856 172.331862 
L 252.563598 171.887255 
L 253.588823 171.887255 
L 253.930565 171.442648 
L 254.955789 171.442648 
L 255.297531 170.998041 
L 255.981014 170.998041 
L 256.322756 170.553434 
L 256.664498 170.553434 
L 257.006239 170.108827 
L 258.373206 170.108827 
L 259.398431 168.775006 
L 259.740172 168.775006 
L 260.081914 168.330399 
L 260.423656 168.330399 
L 260.765397 167.885792 
L 261.107139 166.996578 
L 261.790622 166.107364 
L 262.132364 166.107364 
L 262.474105 165.662757 
L 263.157589 165.662757 
L 263.841072 164.773543 
L 264.866297 164.773543 
L 265.54978 163.884329 
L 266.575005 163.884329 
L 266.916746 162.995115 
L 267.258488 162.550508 
L 267.60023 162.550508 
L 267.941971 162.105901 
L 268.625455 162.105901 
L 268.967196 161.216687 
L 269.308938 160.77208 
L 270.334163 160.77208 
L 270.675904 160.327473 
L 272.726354 160.327473 
L 273.409837 159.438259 
L 274.776804 159.438259 
L 275.118545 158.993652 
L 275.802029 158.993652 
L 277.168995 157.215224 
L 277.510737 157.215224 
L 277.852478 156.770617 
L 278.535962 156.770617 
L 279.219445 155.881403 
L 279.561187 155.881403 
L 279.902928 155.436796 
L 280.586411 155.436796 
L 280.928153 154.992189 
L 281.611636 154.992189 
L 281.953378 154.547582 
L 282.29512 154.547582 
L 282.636861 153.658368 
L 282.978603 153.658368 
L 283.320344 153.213761 
L 284.345569 153.213761 
L 284.687311 152.769154 
L 285.029053 152.769154 
L 285.370794 152.324547 
L 285.712536 152.324547 
L 286.054278 151.87994 
L 286.737761 151.87994 
L 287.079502 151.435333 
L 287.421244 151.435333 
L 287.762986 150.990726 
L 289.129952 150.990726 
L 289.813435 150.101512 
L 290.83866 150.101512 
L 291.180402 149.656905 
L 291.522144 149.656905 
L 292.88911 147.878477 
L 293.572593 147.878477 
L 293.914335 147.43387 
L 294.93956 147.43387 
L 295.281301 146.989263 
L 295.964785 146.989263 
L 296.306526 146.544656 
L 296.99001 146.544656 
L 297.331751 146.100049 
L 298.015234 146.100049 
L 298.698718 145.210835 
L 299.382201 145.210835 
L 299.723943 144.321621 
L 300.407426 143.432407 
L 300.749167 143.432407 
L 301.090909 142.543193 
L 301.432651 142.543193 
L 301.774392 142.098586 
L 302.457876 142.098586 
L 302.799617 141.653979 
L 303.141359 141.653979 
L 303.4831 141.209372 
L 303.824842 141.209372 
L 304.508325 140.320158 
L 305.191809 140.320158 
L 305.53355 139.875551 
L 306.217033 139.875551 
L 306.558775 139.430944 
L 306.900517 139.430944 
L 307.242258 138.986337 
L 308.267483 138.986337 
L 308.609225 138.54173 
L 309.63445 138.54173 
L 309.976191 137.652516 
L 311.6849 135.429481 
L 312.026641 135.429481 
L 312.368383 134.984874 
L 312.710124 134.984874 
L 313.051866 134.540267 
L 313.735349 134.540267 
L 314.077091 134.09566 
L 315.102316 134.09566 
L 315.785799 132.317232 
L 316.469282 132.317232 
L 317.836249 130.538804 
L 318.17799 130.538804 
L 319.886699 128.315769 
L 320.22844 128.315769 
L 320.570182 127.871162 
L 320.911923 127.871162 
L 321.253665 127.426555 
L 321.937148 127.426555 
L 322.27889 126.981948 
L 322.962373 126.981948 
L 323.304115 126.537341 
L 323.645856 126.537341 
L 324.32934 125.648127 
L 325.012823 125.648127 
L 325.354565 125.20352 
L 326.721531 125.20352 
L 327.063273 124.758913 
L 327.746756 124.758913 
L 328.088498 123.869699 
L 328.430239 123.869699 
L 328.771981 123.425092 
L 329.797206 123.425092 
L 330.138947 122.980485 
L 330.822431 122.980485 
L 331.505914 122.091271 
L 332.189397 122.091271 
L 332.531139 121.646664 
L 333.214622 121.646664 
L 333.556364 121.202057 
L 333.898105 120.312843 
L 334.239847 119.868236 
L 334.581589 119.868236 
L 335.265072 118.979022 
L 335.606813 118.979022 
L 335.948555 118.534415 
L 336.290297 118.534415 
L 336.632038 117.200594 
L 337.315522 116.31138 
L 337.657263 116.31138 
L 338.682488 114.977559 
L 339.02423 114.977559 
L 339.365971 114.532952 
L 339.707713 114.532952 
L 340.049455 114.088345 
L 340.391196 114.088345 
L 340.732938 113.199131 
L 341.074679 113.199131 
L 341.758163 112.309917 
L 343.125129 112.309917 
L 343.466871 111.420703 
L 344.150354 110.531489 
L 344.492096 110.531489 
L 345.175579 109.642275 
L 345.859062 109.642275 
L 346.200804 109.197668 
L 346.884287 109.197668 
L 347.226029 108.753061 
L 347.56777 108.753061 
L 347.909512 108.308454 
L 348.592995 108.308454 
L 348.934737 107.863847 
L 349.61822 107.863847 
L 350.643445 106.530026 
L 351.66867 106.530026 
L 352.010411 106.085419 
L 352.352153 106.085419 
L 352.693895 105.640812 
L 353.035636 105.640812 
L 353.377378 105.196205 
L 353.71912 105.196205 
L 354.402603 104.306991 
L 355.086086 104.306991 
L 355.427828 103.862384 
L 356.111311 103.862384 
L 356.453053 103.417777 
L 356.794794 103.417777 
L 357.478278 102.528563 
L 357.820019 102.528563 
L 358.845244 101.194742 
L 359.870469 101.194742 
L 360.212211 100.750135 
L 360.553952 100.750135 
L 361.237435 99.860921 
L 361.579177 99.860921 
L 361.920919 99.416314 
L 362.26266 99.416314 
L 362.604402 98.971707 
L 363.971368 98.971707 
L 364.31311 98.5271 
L 364.996593 98.5271 
L 365.680077 97.637886 
L 366.36356 97.637886 
L 366.705301 97.193279 
L 367.730526 97.193279 
L 368.072268 96.748672 
L 368.41401 96.748672 
L 369.439234 95.414851 
L 369.780976 95.414851 
L 370.464459 94.525637 
L 370.806201 94.525637 
L 371.147943 94.08103 
L 371.489684 94.08103 
L 372.173167 92.302602 
L 372.514909 92.302602 
L 372.856651 91.857995 
L 373.540134 91.857995 
L 373.881876 91.413388 
L 374.223617 90.079567 
L 375.248842 88.745746 
L 375.590584 88.745746 
L 375.932325 88.301139 
L 376.274067 87.411925 
L 376.95755 87.411925 
L 377.299292 86.967318 
L 377.641033 86.967318 
L 377.982775 86.522711 
L 378.324517 86.522711 
L 378.666258 85.633497 
L 379.008 85.18889 
L 380.033225 85.18889 
L 380.716708 84.299676 
L 381.400191 84.299676 
L 382.425416 82.965855 
L 383.450641 82.965855 
L 383.792383 82.521248 
L 384.475866 82.521248 
L 384.817608 82.076641 
L 385.159349 82.076641 
L 385.501091 81.187427 
L 385.842833 81.187427 
L 386.184574 80.74282 
L 387.209799 80.74282 
L 387.893282 79.853606 
L 388.235024 79.853606 
L 388.576766 78.964392 
L 390.968957 78.964392 
L 391.310699 78.519785 
L 391.994182 78.519785 
L 392.677665 77.630571 
L 393.019407 77.630571 
L 394.044632 76.29675 
L 394.386373 76.29675 
L 394.728115 75.407536 
L 395.069856 74.962929 
L 396.778565 74.962929 
L 397.462048 74.073715 
L 398.487273 74.073715 
L 398.487273 74.073715 
" clip-path="url(#pa7f681f7a5)" style="fill: none; stroke: #32cd32; stroke-linecap: square"/>
   </g>
   <g id="line2d_13">
    <path d="M 73.832727 283.749595 
L 74.174469 279.397842 
L 74.516211 282.326979 
L 74.857952 281.260576 
L 75.199694 279.377495 
L 75.541435 279.096246 
L 75.883177 277.346475 
L 76.224919 285.207305 
L 76.56666 276.104581 
L 76.908402 278.160035 
L 77.250144 278.101655 
L 77.591885 283.011324 
L 77.933627 284.5482 
L 78.275368 271.425429 
L 78.61711 279.037541 
L 78.958852 271.717935 
L 79.300593 276.369899 
L 79.642335 277.052705 
L 79.984077 274.941286 
L 80.325818 273.879723 
L 80.66756 275.431436 
L 81.009301 272.794534 
L 81.351043 275.177667 
L 81.692785 275.93838 
L 82.034526 276.00915 
L 82.376268 270.114775 
L 82.71801 281.633033 
L 83.059751 279.747523 
L 83.743234 269.410422 
L 84.084976 272.802463 
L 84.426718 272.634785 
L 84.768459 275.29297 
L 85.110201 268.359565 
L 85.451943 273.25765 
L 85.793684 272.766371 
L 86.135426 268.940552 
L 86.477167 272.065418 
L 86.818909 266.311654 
L 87.160651 274.42727 
L 87.502392 268.776068 
L 87.844134 266.106939 
L 88.185876 264.685616 
L 88.527617 272.953019 
L 88.869359 262.823482 
L 89.2111 267.118972 
L 89.552842 269.045572 
L 89.894584 265.223007 
L 90.236325 273.235475 
L 90.578067 268.105974 
L 90.919809 274.413086 
L 91.26155 261.229691 
L 91.603292 262.436672 
L 91.945033 275.820335 
L 92.286775 261.101564 
L 92.628517 268.056764 
L 92.970258 258.284637 
L 93.312 265.094333 
L 93.653742 263.942594 
L 93.995483 258.944174 
L 94.337225 259.80153 
L 94.678967 273.25765 
L 95.020708 264.34307 
L 95.36245 267.642607 
L 95.704191 263.578676 
L 96.045933 264.294751 
L 96.387675 262.604486 
L 96.729416 269.865234 
L 97.071158 260.225966 
L 97.4129 259.90483 
L 97.754641 267.046393 
L 98.096383 256.255261 
L 98.438124 262.471017 
L 98.779866 256.129211 
L 99.121608 259.764276 
L 99.463349 261.986155 
L 99.805091 266.996229 
L 100.146833 257.642612 
L 100.488574 263.739959 
L 100.830316 259.192222 
L 101.172057 258.076623 
L 101.513799 261.447104 
L 101.855541 256.904784 
L 102.197282 256.828047 
L 102.539024 264.397349 
L 102.880766 260.750424 
L 103.222507 253.818604 
L 103.564249 260.080923 
L 103.90599 259.667167 
L 104.247732 264.347017 
L 104.589474 250.920996 
L 104.931215 255.466201 
L 105.272957 254.71951 
L 105.614699 251.333506 
L 105.95644 257.207605 
L 106.298182 256.668029 
L 106.981665 261.074876 
L 107.323407 251.81188 
L 107.665148 265.608342 
L 108.00689 252.565187 
L 108.348632 252.068288 
L 108.690373 259.741055 
L 109.032115 257.091437 
L 109.373856 263.260537 
L 109.715598 248.337983 
L 110.05734 251.407518 
L 110.399081 261.06031 
L 110.740823 251.450411 
L 111.082565 252.838707 
L 111.424306 252.731854 
L 111.766048 254.574057 
L 112.107789 260.147598 
L 112.449531 252.50011 
L 112.791273 247.804283 
L 113.133014 252.495313 
L 113.474756 248.556334 
L 113.816498 254.036219 
L 114.499981 249.178509 
L 114.841722 244.057049 
L 115.183464 254.189103 
L 115.866947 249.492817 
L 116.208689 251.549525 
L 116.550431 249.872768 
L 116.892172 253.536635 
L 117.233914 254.761345 
L 117.575656 248.976552 
L 117.917397 250.745727 
L 118.259139 245.424987 
L 118.60088 247.128217 
L 118.942622 247.186719 
L 119.284364 243.087316 
L 119.626105 245.220488 
L 119.967847 257.041883 
L 120.309589 248.26743 
L 120.65133 244.514868 
L 120.993072 255.113128 
L 121.334813 244.640764 
L 121.676555 254.552559 
L 122.360038 240.711462 
L 122.70178 251.680888 
L 123.043522 251.471907 
L 123.385263 244.542161 
L 123.727005 248.609043 
L 124.068746 244.943597 
L 124.410488 246.368457 
L 124.75223 231.100984 
L 125.093971 239.62484 
L 125.435713 234.501806 
L 126.119196 246.021289 
L 126.460938 246.752169 
L 126.802679 242.105553 
L 127.144421 250.064493 
L 127.486163 249.529278 
L 127.827904 243.442337 
L 128.169646 244.925922 
L 128.511388 250.106489 
L 128.853129 238.12716 
L 129.194871 249.864309 
L 129.536612 243.428646 
L 129.878354 247.181845 
L 130.220096 235.84903 
L 130.561837 242.913909 
L 131.245321 246.11813 
L 131.587062 246.50105 
L 131.928804 243.036083 
L 132.270545 243.667745 
L 132.612287 233.591775 
L 132.954029 237.212766 
L 133.29577 247.645819 
L 133.637512 241.690553 
L 133.979254 233.439696 
L 134.320995 245.692016 
L 134.662737 232.327676 
L 135.687962 245.203384 
L 136.029703 238.531632 
L 136.371445 236.532735 
L 136.713187 244.758777 
L 137.054928 242.914907 
L 137.39667 231.033068 
L 137.738411 233.654738 
L 138.080153 231.374566 
L 138.421895 233.483526 
L 138.763636 228.143037 
L 139.105378 242.103563 
L 139.44712 241.662873 
L 139.788861 227.89277 
L 140.130603 241.596696 
L 140.472344 241.990861 
L 140.814086 231.840392 
L 141.497569 241.375681 
L 141.839311 233.110429 
L 142.181053 233.922289 
L 142.522794 236.047687 
L 142.864536 228.358696 
L 143.206278 231.115626 
L 143.548019 227.105208 
L 143.889761 237.510468 
L 144.231502 238.385353 
L 144.573244 225.446104 
L 144.914986 233.207016 
L 145.256727 232.424797 
L 145.598469 224.9731 
L 145.940211 229.614914 
L 146.281952 236.621254 
L 146.623694 237.311682 
L 147.307177 225.031887 
L 147.648919 232.935438 
L 147.99066 228.995305 
L 148.674144 229.763782 
L 149.357627 223.974344 
L 149.699368 225.506575 
L 150.04111 228.315357 
L 150.382852 229.900338 
L 150.724593 230.563038 
L 151.066335 223.188023 
L 151.408077 237.504928 
L 151.749818 232.353806 
L 152.09156 223.967745 
L 152.433301 224.383859 
L 152.775043 222.948252 
L 153.116785 224.240258 
L 153.458526 224.139068 
L 153.800268 231.811588 
L 154.14201 223.322504 
L 154.483751 223.168833 
L 154.825493 221.698067 
L 155.167234 221.757547 
L 155.508976 227.907736 
L 155.850718 223.461666 
L 156.192459 220.505183 
L 156.534201 227.79021 
L 156.875943 219.79742 
L 157.901167 227.004642 
L 158.242909 227.955556 
L 158.584651 234.132234 
L 158.926392 221.544076 
L 159.268134 226.728427 
L 159.609876 225.289649 
L 159.951617 224.35088 
L 160.293359 218.951207 
L 160.6351 229.541865 
L 160.976842 224.083638 
L 161.318584 216.048182 
L 161.660325 223.735199 
L 162.002067 214.383349 
L 162.343809 221.028686 
L 162.68555 218.303914 
L 163.027292 227.804789 
L 163.369033 225.815994 
L 163.710775 217.4147 
L 164.052517 226.981726 
L 164.394258 222.899533 
L 164.736 224.715307 
L 165.419483 221.053458 
L 165.761225 220.860967 
L 166.102967 223.889198 
L 166.444708 216.713419 
L 167.128191 222.296574 
L 167.469933 221.288186 
L 167.811675 214.766202 
L 168.153416 221.47683 
L 168.495158 215.612976 
L 168.8369 217.003257 
L 169.178641 209.841004 
L 169.520383 222.492272 
L 169.862124 220.735005 
L 170.203866 225.684701 
L 170.887349 208.789635 
L 171.229091 216.510988 
L 171.570833 219.669185 
L 171.912574 207.09272 
L 172.254316 209.080602 
L 172.596057 215.29838 
L 172.937799 215.792882 
L 173.279541 215.044495 
L 173.621282 210.948281 
L 173.963024 221.144774 
L 174.304766 212.126368 
L 174.646507 206.656972 
L 174.988249 204.766497 
L 175.32999 213.644308 
L 175.671732 209.308551 
L 176.013474 207.377557 
L 176.355215 210.903172 
L 176.696957 205.794796 
L 177.038699 216.525143 
L 177.38044 218.818792 
L 177.722182 207.129359 
L 178.063923 217.217001 
L 178.747407 205.353266 
L 179.089148 205.343774 
L 179.43089 212.128391 
L 179.772632 205.913786 
L 180.114373 214.872828 
L 180.456115 216.152191 
L 181.139598 210.527728 
L 181.48134 212.294364 
L 181.823081 210.007729 
L 182.164823 202.961749 
L 182.506565 218.466032 
L 182.848306 204.978022 
L 183.190048 203.522422 
L 183.531789 208.254505 
L 183.873531 207.586289 
L 184.215273 213.302904 
L 184.557014 204.942408 
L 184.898756 202.12053 
L 185.240498 202.454417 
L 185.582239 210.860764 
L 185.923981 205.544795 
L 186.265722 210.944669 
L 186.607464 200.546168 
L 186.949206 205.468016 
L 187.290947 206.407627 
L 187.632689 202.361036 
L 187.974431 204.343565 
L 188.316172 205.665694 
L 188.657914 210.025845 
L 188.999656 206.347666 
L 189.341397 198.323133 
L 189.683139 193.652799 
L 190.02488 200.051731 
L 190.366622 195.750408 
L 191.050105 206.974285 
L 191.391847 198.328622 
L 191.733589 194.750463 
L 192.417072 208.420188 
L 192.758813 195.093505 
L 193.100555 199.750308 
L 193.442297 198.432654 
L 193.784038 204.788172 
L 194.12578 202.10819 
L 194.467522 194.391655 
L 194.809263 193.759684 
L 195.151005 206.83996 
L 195.492746 201.636795 
L 195.834488 193.47733 
L 196.17623 194.039347 
L 196.517971 201.675923 
L 196.859713 203.943644 
L 197.201455 201.543849 
L 197.543196 193.300484 
L 197.884938 192.705526 
L 198.226679 195.006818 
L 198.568421 202.632336 
L 198.910163 198.511548 
L 199.251904 190.927098 
L 199.593646 192.548731 
L 199.935388 189.840633 
L 200.277129 194.969832 
L 200.618871 190.554014 
L 200.960612 192.657395 
L 201.302354 200.146339 
L 201.644096 199.718873 
L 201.985837 196.566119 
L 202.327579 189.776124 
L 203.011062 199.865898 
L 203.352804 187.9652 
L 203.694545 187.253606 
L 204.036287 198.186266 
L 204.378029 192.534346 
L 204.71977 192.157154 
L 205.061512 196.549621 
L 205.403254 198.203432 
L 205.744995 189.346594 
L 206.086737 197.564993 
L 206.428478 196.653807 
L 206.77022 197.458701 
L 207.111962 184.097653 
L 207.453703 194.058585 
L 207.795445 192.728423 
L 208.137187 188.337714 
L 208.478928 195.680273 
L 208.82067 193.636075 
L 209.162411 185.739248 
L 209.504153 190.953229 
L 209.845895 191.390943 
L 210.187636 190.203065 
L 210.529378 191.064902 
L 210.87112 187.333165 
L 211.212861 186.131791 
L 211.554603 186.550397 
L 211.896344 189.992176 
L 212.238086 178.936018 
L 212.579828 181.609878 
L 212.921569 185.311284 
L 213.263311 191.005355 
L 213.605053 191.310485 
L 214.288536 184.515539 
L 214.630278 177.400151 
L 214.972019 186.646209 
L 215.313761 190.533068 
L 215.655502 188.745398 
L 215.997244 182.674028 
L 216.338986 182.184582 
L 216.680727 184.45937 
L 217.022469 184.670467 
L 217.364211 183.70647 
L 217.705952 187.676657 
L 218.047694 180.994895 
L 218.389435 187.783639 
L 218.731177 176.825163 
L 219.072919 186.723725 
L 219.41466 177.044413 
L 219.756402 178.890344 
L 220.098144 176.770524 
L 220.439885 179.516564 
L 220.781627 181.113611 
L 221.123368 184.587906 
L 221.46511 184.983597 
L 221.806852 187.179267 
L 222.148593 178.906175 
L 222.832077 174.816822 
L 223.173818 178.907878 
L 223.51556 174.52427 
L 223.857301 181.310145 
L 224.199043 178.451706 
L 224.540785 176.940966 
L 224.882526 179.19973 
L 225.224268 176.515053 
L 225.56601 180.485107 
L 225.907751 172.928243 
L 226.249493 181.752973 
L 226.591234 174.401403 
L 226.932976 170.305502 
L 227.274718 173.088484 
L 227.616459 171.920234 
L 227.958201 181.04477 
L 228.299943 172.878849 
L 228.641684 174.015498 
L 228.983426 168.823718 
L 229.325167 177.142358 
L 229.666909 166.048633 
L 230.008651 170.397114 
L 230.350392 165.269045 
L 231.033876 173.389804 
L 231.375617 169.581179 
L 231.717359 178.928817 
L 232.0591 175.933403 
L 232.400842 164.695285 
L 232.742584 164.101936 
L 233.084325 171.668127 
L 233.767809 162.519662 
L 234.10955 169.488121 
L 234.793033 164.766373 
L 235.134775 168.56506 
L 235.476517 168.680214 
L 235.818258 163.432314 
L 236.16 164.100571 
L 236.501742 165.509263 
L 236.843483 165.576135 
L 237.185225 170.655547 
L 237.526967 169.078307 
L 237.868708 163.146889 
L 238.21045 167.599768 
L 238.552191 161.82329 
L 238.893933 162.470764 
L 239.235675 162.444309 
L 239.577416 164.244629 
L 239.919158 161.768516 
L 240.2609 164.910568 
L 240.602641 159.195248 
L 240.944383 171.33769 
L 241.286124 152.748955 
L 241.627866 158.441895 
L 241.969608 157.532391 
L 242.311349 159.751845 
L 242.653091 156.974683 
L 242.994833 164.31587 
L 243.336574 159.34803 
L 243.678316 152.666424 
L 244.020057 162.836141 
L 244.361799 163.760363 
L 244.703541 158.035631 
L 245.045282 157.861427 
L 245.387024 164.127251 
L 245.728766 163.696613 
L 246.070507 163.884329 
L 246.412249 156.834295 
L 246.75399 154.856605 
L 247.095732 159.438259 
L 247.437474 151.238243 
L 247.779215 147.160237 
L 248.120957 158.537936 
L 248.80444 151.873403 
L 249.146182 158.941525 
L 249.487923 149.39567 
L 249.829665 159.152235 
L 250.171407 152.317601 
L 250.513148 151.062819 
L 250.85489 163.884329 
L 251.196632 148.4906 
L 251.538373 156.654889 
L 251.880115 154.51207 
L 252.221856 153.849255 
L 252.563598 150.042781 
L 252.90534 152.816882 
L 253.247081 147.702665 
L 253.588823 158.258949 
L 253.930565 156.232921 
L 254.272306 158.001491 
L 254.614048 155.970773 
L 254.955789 159.704243 
L 255.297531 152.193526 
L 255.639273 152.250673 
L 255.981014 159.950065 
L 256.664498 152.733642 
L 257.006239 153.597926 
L 257.347981 152.686113 
L 258.031464 147.274114 
L 258.373206 155.881403 
L 258.714947 155.041743 
L 259.056689 155.985964 
L 259.398431 154.328455 
L 259.740172 150.67509 
L 260.081914 152.658688 
L 260.423656 153.646027 
L 260.765397 153.979009 
L 261.107139 154.479581 
L 261.44888 153.096234 
L 261.790622 148.39445 
L 262.132364 149.202637 
L 262.474105 155.409115 
L 262.815847 156.40117 
L 263.157589 146.262045 
L 263.49933 151.379972 
L 263.841072 150.188435 
L 264.182813 155.121923 
L 264.524555 145.895947 
L 264.866297 154.331822 
L 265.208038 140.917558 
L 265.54978 145.071672 
L 265.891522 152.746979 
L 266.233263 149.199957 
L 266.575005 141.916608 
L 266.916746 152.939984 
L 267.258488 140.447711 
L 267.60023 150.990726 
L 267.941971 143.465386 
L 268.283713 145.685803 
L 268.625455 141.704268 
L 268.967196 151.9551 
L 269.308938 141.371368 
L 269.650679 141.701707 
L 269.992421 138.390032 
L 270.334163 140.464333 
L 270.675904 147.292564 
L 271.017646 135.952065 
L 271.701129 151.670025 
L 272.042871 140.320158 
L 272.384612 149.016534 
L 272.726354 149.463954 
L 273.068096 140.693514 
L 273.409837 148.323084 
L 273.751579 146.473548 
L 274.093321 146.085245 
L 274.435062 147.878477 
L 274.776804 141.037319 
L 275.118545 145.155474 
L 275.460287 146.147869 
L 275.802029 145.552495 
L 276.14377 141.800002 
L 276.485512 141.065405 
L 276.827254 146.202162 
L 277.168995 140.554819 
L 277.510737 141.913412 
L 277.852478 138.251084 
L 278.19422 141.36637 
L 278.535962 142.233837 
L 278.877703 142.627051 
L 279.219445 148.583528 
L 279.561187 139.614552 
L 280.24467 143.413913 
L 280.586411 131.866776 
L 281.269895 143.412239 
L 281.611636 140.751699 
L 281.953378 144.053823 
L 282.29512 139.143335 
L 282.636861 142.411753 
L 282.978603 130.805324 
L 283.320344 141.135778 
L 283.662086 140.07108 
L 284.003828 131.428018 
L 284.687311 144.766228 
L 285.029053 144.111706 
L 285.370794 140.846282 
L 285.712536 135.894318 
L 286.054278 132.857479 
L 286.396019 124.375885 
L 286.737761 134.642647 
L 287.079502 138.54173 
L 287.421244 137.821244 
L 287.762986 139.291467 
L 288.104727 136.147621 
L 288.446469 138.822136 
L 288.788211 139.291467 
L 289.129952 138.128962 
L 289.471694 132.139052 
L 289.813435 132.317232 
L 290.155177 133.814454 
L 290.496919 135.979435 
L 290.83866 126.840229 
L 291.180402 127.884244 
L 291.522144 135.416415 
L 291.863885 132.482885 
L 292.205627 136.689708 
L 292.547368 127.398794 
L 292.88911 133.194105 
L 293.230852 134.179518 
L 293.572593 132.317232 
L 293.914335 126.874798 
L 294.256077 135.793907 
L 294.597818 129.720956 
L 294.93956 127.96348 
L 295.281301 128.846196 
L 295.623043 128.777489 
L 295.964785 124.989273 
L 296.306526 137.652516 
L 296.648268 124.213011 
L 296.99001 130.003673 
L 297.331751 128.677335 
L 297.673493 126.506715 
L 298.015234 128.677335 
L 298.356976 134.791923 
L 298.698718 123.076051 
L 299.040459 121.501039 
L 299.382201 125.895806 
L 299.723943 127.18771 
L 300.065684 129.009761 
L 300.407426 124.791892 
L 300.749167 126.605224 
L 301.090909 123.77947 
L 301.774392 131.330407 
L 302.116134 124.278794 
L 302.457876 123.334863 
L 302.799617 126.969607 
L 303.141359 124.846274 
L 303.4831 126.968882 
L 303.824842 130.767651 
L 304.166584 116.916331 
L 304.850067 127.803161 
L 305.191809 127.332 
L 305.53355 127.40948 
L 305.875292 122.713344 
L 306.217033 120.490375 
L 306.558775 126.71453 
L 306.900517 119.261591 
L 307.242258 117.800966 
L 307.584 126.945025 
L 307.925742 126.623484 
L 308.267483 127.938361 
L 308.609225 121.714547 
L 308.950967 122.525298 
L 309.292708 112.671984 
L 309.63445 123.674477 
L 309.976191 123.814338 
L 310.317933 115.435248 
L 310.659675 122.41909 
L 311.001416 123.040032 
L 311.343158 116.613888 
L 311.6849 121.843914 
L 312.026641 122.520019 
L 312.710124 120.551041 
L 313.393608 123.772088 
L 313.735349 114.908752 
L 314.077091 115.892452 
L 314.418833 115.463404 
L 314.760574 117.278211 
L 315.102316 114.602128 
L 315.444057 117.253674 
L 315.785799 112.632452 
L 316.127541 114.667144 
L 316.811024 122.499081 
L 317.152766 115.243908 
L 317.494507 115.579164 
L 317.836249 108.746524 
L 318.17799 119.335579 
L 318.519732 117.460063 
L 318.861474 112.63919 
L 319.203215 115.203231 
L 319.544957 109.610558 
L 319.886699 117.84794 
L 320.22844 106.700989 
L 320.570182 120.207885 
L 320.911923 115.354165 
L 321.253665 105.978028 
L 321.595407 119.499911 
L 321.937148 100.204292 
L 322.620632 114.532952 
L 322.962373 111.310237 
L 323.304115 104.745061 
L 323.645856 109.632614 
L 323.987598 116.279783 
L 324.32934 103.059856 
L 324.671081 108.234608 
L 325.354565 111.80629 
L 325.696306 100.589689 
L 326.038048 113.162208 
L 326.379789 108.824051 
L 326.721531 113.725255 
L 327.063273 104.870691 
L 327.405014 115.277866 
L 327.746756 113.990734 
L 328.088498 106.219611 
L 328.430239 107.258879 
L 328.771981 113.171451 
L 329.113722 107.40866 
L 329.455464 108.40258 
L 329.797206 105.359815 
L 330.138947 106.765263 
L 330.480689 110.902502 
L 331.164172 101.576963 
L 331.505914 102.5209 
L 331.847656 106.41956 
L 332.189397 108.477183 
L 332.531139 106.624152 
L 332.87288 107.41924 
L 333.214622 99.782663 
L 333.556364 105.980765 
L 333.898105 106.284183 
L 334.239847 107.699646 
L 334.581589 97.887599 
L 334.92333 105.157076 
L 335.265072 104.148017 
L 335.606813 99.860921 
L 335.948555 97.630941 
L 336.290297 101.805002 
L 336.632038 96.727175 
L 336.97378 95.90817 
L 337.315522 94.285624 
L 337.657263 102.070891 
L 337.999005 102.014822 
L 338.340746 103.549069 
L 338.682488 94.382954 
L 339.02423 94.78626 
L 339.365971 101.179938 
L 339.707713 100.410876 
L 340.049455 98.071913 
L 340.391196 101.725492 
L 340.732938 93.978242 
L 341.074679 99.920468 
L 342.099904 92.37691 
L 342.441646 96.475004 
L 342.783388 93.628192 
L 343.125129 100.831652 
L 343.466871 95.320059 
L 343.808612 95.720204 
L 344.150354 93.108775 
L 344.492096 92.225905 
L 344.833837 92.275957 
L 345.175579 87.253939 
L 345.517321 98.755258 
L 345.859062 102.083956 
L 346.200804 99.546049 
L 346.542545 90.664969 
L 346.884287 97.101443 
L 347.226029 85.973469 
L 347.56777 98.49942 
L 347.909512 87.460637 
L 348.251254 88.26414 
L 348.592995 90.524174 
L 349.276478 86.41532 
L 349.61822 93.795007 
L 349.959962 89.742183 
L 350.301703 91.869703 
L 350.643445 91.228215 
L 350.985187 96.717075 
L 351.326928 94.675957 
L 351.66867 95.414851 
L 352.010411 84.900049 
L 352.352153 86.492085 
L 353.035636 93.562829 
L 353.377378 86.597042 
L 353.71912 84.566157 
L 354.060861 92.710286 
L 354.402603 88.290559 
L 354.744344 90.238151 
L 355.086086 88.122881 
L 355.427828 82.494327 
L 355.769569 93.167191 
L 356.111311 88.190673 
L 356.453053 85.078268 
L 356.794794 93.362646 
L 357.136536 83.902797 
L 357.478278 91.641546 
L 357.820019 93.871115 
L 358.161761 87.650124 
L 358.503502 88.988669 
L 358.845244 86.136809 
L 359.186986 86.876329 
L 359.528727 78.021193 
L 359.870469 94.08103 
L 360.212211 83.100047 
L 360.553952 86.509646 
L 360.895694 82.521248 
L 361.237435 86.246833 
L 361.579177 87.411925 
L 361.920919 79.580535 
L 362.26266 79.225015 
L 362.604402 81.054836 
L 362.946144 80.207984 
L 363.287885 82.460807 
L 363.629627 73.688812 
L 363.971368 78.802354 
L 364.31311 75.576635 
L 364.654852 90.452024 
L 364.996593 79.66043 
L 365.338335 72.904702 
L 366.021818 88.701721 
L 366.705301 74.811232 
L 367.047043 81.352988 
L 367.388785 84.102174 
L 367.730526 80.385575 
L 368.072268 75.16036 
L 368.41401 82.746921 
L 368.755751 80.512387 
L 369.097493 73.358348 
L 369.439234 83.410462 
L 369.780976 77.177417 
L 370.122718 85.786062 
L 370.806201 84.619744 
L 371.489684 73.621939 
L 371.831426 72.71124 
L 372.173167 73.703439 
L 372.514909 80.224619 
L 372.856651 77.173623 
L 373.198392 77.01489 
L 373.540134 68.084517 
L 373.881876 76.111577 
L 374.223617 69.058537 
L 374.565359 70.830446 
L 374.9071 81.527077 
L 375.248842 72.697646 
L 375.590584 69.779419 
L 375.932325 74.034586 
L 376.274067 70.174632 
L 376.615809 72.56882 
L 376.95755 70.951367 
L 377.299292 67.770075 
L 377.641033 66.856662 
L 377.982775 79.224837 
L 378.324517 71.937603 
L 378.666258 68.284565 
L 379.008 71.910227 
L 379.349742 64.881144 
L 379.691483 68.10231 
L 380.033225 68.026683 
L 380.374967 68.622704 
L 380.716708 66.199761 
L 381.05845 72.276794 
L 381.400191 64.463897 
L 381.741933 62.043195 
L 382.083675 64.025286 
L 382.425416 74.02969 
L 382.767158 69.732206 
L 383.1089 68.532023 
L 383.450641 64.702818 
L 383.792383 69.080091 
L 384.134124 68.724551 
L 384.475866 63.498787 
L 384.817608 72.815054 
L 385.501091 62.975653 
L 385.842833 67.834413 
L 386.184574 58.461741 
L 386.526316 68.293824 
L 386.868057 63.69426 
L 387.209799 62.061095 
L 387.551541 66.827929 
L 387.893282 63.837174 
L 388.235024 59.337295 
L 388.576766 64.517841 
L 388.918507 64.379285 
L 389.260249 58.483816 
L 389.60199 70.516859 
L 389.943732 64.28002 
L 390.285474 62.42341 
L 390.627215 65.05761 
L 390.968957 57.819932 
L 391.310699 64.89148 
L 391.65244 58.527299 
L 391.994182 60.290898 
L 392.335923 63.353898 
L 392.677665 54.559143 
L 393.019407 67.849217 
L 393.361148 54.797628 
L 393.70289 61.874104 
L 394.044632 58.196835 
L 394.728115 67.33246 
L 395.069856 53.568 
L 395.75334 59.940417 
L 396.095081 55.940468 
L 396.436823 57.312841 
L 396.778565 60.748593 
L 397.120306 59.675217 
L 397.462048 55.13958 
L 397.803789 60.374756 
L 398.145531 60.735505 
L 398.487273 53.882416 
L 398.487273 53.882416 
" clip-path="url(#pa7f681f7a5)" style="fill: none; stroke-dasharray: 3.7,1.6; stroke-dashoffset: 0; stroke: #4169e1"/>
   </g>
   <g id="line2d_14">
    <path d="M 73.832727 283.749595 
L 74.174469 279.397842 
L 74.516211 282.326979 
L 74.857952 281.260576 
L 75.199694 279.377495 
L 75.541435 279.096246 
L 75.883177 277.346475 
L 76.224919 285.207305 
L 76.56666 276.104581 
L 76.908402 278.160035 
L 77.250144 278.101655 
L 77.591885 283.011324 
L 77.933627 284.5482 
L 78.275368 271.425429 
L 78.61711 279.037541 
L 78.958852 271.717935 
L 79.300593 276.369899 
L 79.642335 277.052705 
L 79.984077 274.941286 
L 80.325818 273.879723 
L 80.66756 275.431436 
L 81.009301 272.794534 
L 81.351043 275.177667 
L 81.692785 275.93838 
L 82.034526 276.00915 
L 82.376268 270.114775 
L 82.71801 281.633033 
L 83.059751 279.747523 
L 83.743234 269.410422 
L 84.084976 272.802463 
L 84.426718 272.634785 
L 84.768459 275.29297 
L 85.110201 268.359565 
L 85.451943 273.25765 
L 85.793684 272.766371 
L 86.135426 268.940552 
L 86.477167 272.065418 
L 86.818909 266.311654 
L 87.160651 274.42727 
L 87.502392 268.776068 
L 87.844134 266.106939 
L 88.185876 264.685616 
L 88.527617 273.055966 
L 88.869359 262.823482 
L 89.2111 267.118972 
L 89.552842 269.060151 
L 89.894584 265.223007 
L 90.236325 273.235475 
L 90.578067 268.105974 
L 90.919809 274.536111 
L 91.26155 261.729658 
L 91.603292 262.679894 
L 91.945033 275.820335 
L 92.286775 261.101564 
L 92.628517 268.056764 
L 92.970258 261.457327 
L 93.312 266.378599 
L 93.653742 264.342175 
L 93.995483 259.044093 
L 94.337225 260.766929 
L 94.678967 273.25765 
L 95.020708 264.34307 
L 95.36245 268.099555 
L 95.704191 263.844898 
L 96.387675 266.916364 
L 96.729416 269.865234 
L 97.071158 262.016086 
L 97.4129 262.403865 
L 97.754641 267.889858 
L 98.096383 261.222635 
L 98.438124 268.33005 
L 98.779866 256.322162 
L 99.121608 265.686266 
L 99.463349 261.986155 
L 99.805091 263.324039 
L 100.146833 257.539665 
L 100.488574 263.739959 
L 100.830316 255.520032 
L 101.172057 256.113021 
L 101.513799 264.857937 
L 101.855541 256.904784 
L 102.197282 255.037927 
L 102.539024 264.397349 
L 102.880766 263.017809 
L 103.222507 255.608724 
L 103.564249 267.108312 
L 103.90599 264.041871 
L 104.247732 264.347017 
L 104.589474 254.908167 
L 104.931215 255.466201 
L 105.272957 254.71951 
L 105.614699 251.333506 
L 105.95644 257.207605 
L 106.298182 252.356151 
L 106.639923 258.914499 
L 106.981665 261.074876 
L 107.323407 251.81188 
L 107.665148 266.588545 
L 108.00689 252.565187 
L 108.348632 254.73593 
L 108.690373 259.741055 
L 109.032115 257.091437 
L 109.373856 263.260537 
L 109.715598 248.337983 
L 110.05734 251.304571 
L 110.399081 261.06031 
L 110.740823 251.450411 
L 111.082565 249.427874 
L 111.424306 250.941734 
L 111.766048 254.574057 
L 112.107789 260.147598 
L 112.449531 250.469392 
L 112.791273 247.804283 
L 113.133014 252.495313 
L 113.474756 248.556334 
L 113.816498 255.016423 
L 114.158239 255.134111 
L 114.499981 256.29939 
L 114.841722 244.057049 
L 115.183464 254.189103 
L 115.525206 252.895099 
L 115.866947 254.460191 
L 116.208689 251.549525 
L 116.550431 249.872768 
L 116.892172 253.639582 
L 117.233914 254.761345 
L 117.575656 248.976552 
L 117.917397 250.745727 
L 118.259139 245.424987 
L 118.942622 252.750368 
L 119.626105 245.220488 
L 119.967847 257.041883 
L 120.309589 248.26743 
L 120.65133 250.808173 
L 120.993072 255.113128 
L 121.334813 244.640764 
L 121.676555 254.552559 
L 122.360038 240.711462 
L 122.70178 251.680888 
L 123.043522 251.471907 
L 123.385263 244.542161 
L 123.727005 248.609043 
L 124.068746 244.943597 
L 124.410488 251.293284 
L 124.75223 239.097171 
L 125.093971 244.097554 
L 125.777455 239.697234 
L 126.119196 246.021289 
L 126.460938 245.771966 
L 126.802679 242.105553 
L 127.144421 250.064493 
L 127.486163 247.739158 
L 127.827904 243.442337 
L 128.511388 246.282492 
L 128.853129 233.159787 
L 129.194871 244.005276 
L 129.536612 240.106451 
L 129.878354 247.181845 
L 130.220096 235.84903 
L 130.561837 242.913909 
L 131.245321 246.11813 
L 131.587062 246.50105 
L 131.928804 243.036083 
L 132.270545 243.667745 
L 132.612287 233.591775 
L 132.954029 237.212766 
L 133.29577 247.645819 
L 133.637512 241.690553 
L 133.979254 233.439696 
L 134.320995 245.692016 
L 134.662737 232.327676 
L 135.687962 245.203384 
L 136.029703 238.531632 
L 136.371445 236.532735 
L 136.713187 244.758777 
L 137.054928 242.914907 
L 137.39667 231.033068 
L 137.738411 233.654738 
L 138.080153 231.374566 
L 138.421895 233.483526 
L 138.763636 228.143037 
L 139.105378 242.103563 
L 139.44712 241.662873 
L 139.788861 227.89277 
L 140.130603 239.806575 
L 140.472344 241.887914 
L 140.814086 230.050272 
L 141.497569 241.375681 
L 141.839311 233.110429 
L 142.181053 233.922289 
L 142.522794 236.047687 
L 142.864536 228.358696 
L 143.206278 231.115626 
L 143.548019 227.105208 
L 143.889761 237.510468 
L 144.231502 238.385353 
L 144.573244 225.446104 
L 144.914986 233.309963 
L 145.256727 232.424797 
L 145.598469 224.9731 
L 145.940211 229.614914 
L 146.281952 236.621254 
L 146.623694 237.311682 
L 147.307177 225.031887 
L 147.648919 232.935438 
L 147.99066 228.995305 
L 148.674144 229.763782 
L 149.357627 223.974344 
L 149.699368 225.506575 
L 150.04111 228.315357 
L 150.382852 229.900338 
L 150.724593 230.563038 
L 151.066335 223.188023 
L 151.408077 237.504928 
L 151.749818 232.353806 
L 152.09156 223.967745 
L 152.433301 224.383859 
L 152.775043 222.948252 
L 153.116785 224.240258 
L 153.458526 224.139068 
L 153.800268 231.811588 
L 154.14201 223.322504 
L 154.483751 223.168833 
L 154.825493 221.698067 
L 155.167234 221.757547 
L 155.508976 227.907736 
L 155.850718 222.481463 
L 156.192459 220.505183 
L 156.534201 227.687263 
L 156.875943 219.79742 
L 157.901167 227.004642 
L 158.242909 227.852609 
L 158.584651 234.029287 
L 158.926392 221.544076 
L 159.268134 226.728427 
L 159.609876 225.289649 
L 159.951617 224.35088 
L 160.293359 218.951207 
L 160.6351 229.541865 
L 160.976842 224.083638 
L 161.318584 216.048182 
L 161.660325 223.735199 
L 162.002067 214.383349 
L 162.343809 221.028686 
L 162.68555 218.303914 
L 163.027292 227.907736 
L 163.369033 225.815994 
L 163.710775 217.4147 
L 164.052517 224.314084 
L 164.394258 215.872144 
L 164.736 222.447922 
L 165.077742 223.017059 
L 165.419483 221.053458 
L 165.761225 220.860967 
L 166.102967 223.889198 
L 166.444708 212.814336 
L 166.78645 215.474413 
L 167.469933 217.644708 
L 167.811675 214.663255 
L 168.153416 221.47683 
L 168.495158 215.612976 
L 168.8369 225.240094 
L 169.178641 211.631124 
L 169.520383 222.492272 
L 169.862124 220.735005 
L 170.203866 225.684701 
L 170.887349 208.789635 
L 171.229091 216.510988 
L 171.570833 219.669185 
L 171.912574 207.09272 
L 172.254316 209.080602 
L 172.596057 215.29838 
L 172.937799 215.792882 
L 173.279541 215.044495 
L 173.621282 210.948281 
L 173.963024 221.144774 
L 174.304766 212.126368 
L 174.646507 206.656972 
L 174.988249 204.766497 
L 175.32999 213.747255 
L 175.671732 209.308551 
L 176.013474 207.377557 
L 176.355215 211.883375 
L 176.696957 205.794796 
L 177.038699 216.525143 
L 177.38044 218.818792 
L 177.722182 207.129359 
L 178.063923 217.217001 
L 178.405665 210.977159 
L 178.747407 209.392174 
L 179.089148 210.28556 
L 179.43089 213.815564 
L 179.772632 205.810839 
L 180.114373 214.872828 
L 180.456115 216.152191 
L 181.139598 210.527728 
L 181.48134 212.294364 
L 181.823081 210.007729 
L 182.164823 202.961749 
L 182.506565 218.466032 
L 182.848306 204.978022 
L 183.190048 203.522422 
L 183.531789 208.254505 
L 183.873531 207.586289 
L 184.215273 213.302904 
L 184.557014 204.942408 
L 184.898756 202.12053 
L 185.240498 202.454417 
L 185.582239 210.860764 
L 185.923981 205.544795 
L 186.265722 210.944669 
L 186.607464 200.546168 
L 186.949206 205.468016 
L 187.290947 206.407627 
L 187.632689 202.361036 
L 187.974431 204.343565 
L 188.316172 205.665694 
L 188.657914 210.025845 
L 188.999656 206.347666 
L 189.341397 198.323133 
L 189.683139 193.652799 
L 190.02488 200.051731 
L 190.366622 195.750408 
L 191.050105 206.974285 
L 191.391847 198.328622 
L 191.733589 194.750463 
L 192.417072 208.420188 
L 192.758813 195.093505 
L 193.100555 199.750308 
L 193.442297 198.432654 
L 193.784038 204.788172 
L 194.12578 202.10819 
L 194.467522 194.391655 
L 194.809263 193.759684 
L 195.151005 206.83996 
L 195.492746 201.636795 
L 195.834488 193.47733 
L 196.17623 194.039347 
L 196.517971 201.675923 
L 196.859713 203.943644 
L 197.201455 201.543849 
L 197.543196 193.300484 
L 197.884938 192.705526 
L 198.226679 195.006818 
L 198.568421 202.632336 
L 198.910163 198.511548 
L 199.251904 190.927098 
L 199.593646 192.548731 
L 199.935388 189.840633 
L 200.277129 194.969832 
L 200.618871 190.554014 
L 200.960612 192.657395 
L 201.302354 200.146339 
L 201.644096 199.718873 
L 201.985837 196.566119 
L 202.327579 189.776124 
L 203.011062 199.865898 
L 203.352804 187.9652 
L 203.694545 187.253606 
L 204.036287 198.186266 
L 204.378029 192.534346 
L 204.71977 192.157154 
L 205.061512 196.549621 
L 205.403254 198.203432 
L 205.744995 189.346594 
L 206.086737 197.564993 
L 206.428478 196.653807 
L 206.77022 197.458701 
L 207.111962 184.097653 
L 207.453703 194.058585 
L 207.795445 192.728423 
L 208.137187 188.337714 
L 208.478928 195.680273 
L 208.82067 193.636075 
L 209.162411 185.739248 
L 209.504153 190.953229 
L 209.845895 191.390943 
L 210.187636 190.203065 
L 210.529378 191.064902 
L 210.87112 187.333165 
L 211.212861 186.131791 
L 211.554603 186.550397 
L 211.896344 189.992176 
L 212.238086 178.936018 
L 212.579828 181.609878 
L 212.921569 185.311284 
L 213.263311 191.005355 
L 213.605053 191.310485 
L 214.288536 184.515539 
L 214.630278 177.400151 
L 214.972019 186.646209 
L 215.313761 190.533068 
L 215.655502 188.745398 
L 215.997244 182.674028 
L 216.338986 182.184582 
L 216.680727 184.45937 
L 217.022469 184.670467 
L 217.364211 183.70647 
L 217.705952 187.676657 
L 218.047694 180.994895 
L 218.389435 187.783639 
L 218.731177 176.825163 
L 219.072919 186.723725 
L 219.41466 177.044413 
L 219.756402 178.890344 
L 220.098144 176.770524 
L 220.439885 179.516564 
L 220.781627 181.113611 
L 221.123368 184.587906 
L 221.46511 184.983597 
L 221.806852 187.179267 
L 222.148593 178.906175 
L 222.832077 174.816822 
L 223.173818 178.907878 
L 223.51556 174.52427 
L 223.857301 181.310145 
L 224.199043 178.451706 
L 224.540785 176.940966 
L 224.882526 179.19973 
L 225.224268 176.515053 
L 225.56601 180.485107 
L 225.907751 172.928243 
L 226.249493 181.752973 
L 226.591234 174.401403 
L 226.932976 170.305502 
L 227.274718 173.088484 
L 227.616459 171.920234 
L 227.958201 181.04477 
L 228.299943 172.878849 
L 228.641684 174.015498 
L 228.983426 168.823718 
L 229.325167 177.142358 
L 229.666909 166.048633 
L 230.008651 170.397114 
L 230.350392 165.269045 
L 231.033876 173.389804 
L 231.375617 169.581179 
L 231.717359 178.928817 
L 232.0591 175.933403 
L 232.400842 164.695285 
L 232.742584 164.101936 
L 233.084325 171.668127 
L 233.767809 162.519662 
L 234.10955 169.488121 
L 234.793033 164.766373 
L 235.134775 168.56506 
L 235.476517 168.680214 
L 235.818258 163.432314 
L 236.16 164.100571 
L 236.501742 165.509263 
L 236.843483 165.576135 
L 237.185225 170.655547 
L 237.526967 169.078307 
L 237.868708 163.146889 
L 238.21045 167.599768 
L 238.552191 161.82329 
L 238.893933 162.470764 
L 239.235675 162.444309 
L 239.577416 164.244629 
L 239.919158 161.768516 
L 240.2609 164.910568 
L 240.602641 159.195248 
L 240.944383 171.33769 
L 241.286124 152.748955 
L 241.627866 158.441895 
L 241.969608 157.532391 
L 242.311349 159.751845 
L 242.653091 156.974683 
L 242.994833 164.31587 
L 243.336574 159.34803 
L 243.678316 152.666424 
L 244.020057 162.836141 
L 244.361799 163.760363 
L 244.703541 158.035631 
L 245.045282 157.861427 
L 245.387024 164.127251 
L 245.728766 163.696613 
L 246.070507 163.884329 
L 246.412249 156.834295 
L 246.75399 154.856605 
L 247.095732 159.438259 
L 247.437474 151.238243 
L 247.779215 147.160237 
L 248.120957 158.537936 
L 248.80444 151.873403 
L 249.146182 158.941525 
L 249.487923 149.39567 
L 249.829665 159.152235 
L 250.171407 152.317601 
L 250.513148 151.062819 
L 250.85489 163.884329 
L 251.196632 148.4906 
L 251.538373 156.654889 
L 251.880115 154.51207 
L 252.221856 153.849255 
L 252.563598 150.042781 
L 252.90534 152.816882 
L 253.247081 147.702665 
L 253.588823 158.258949 
L 253.930565 156.232921 
L 254.272306 158.001491 
L 254.614048 155.970773 
L 254.955789 159.704243 
L 255.297531 152.193526 
L 255.639273 152.250673 
L 255.981014 159.950065 
L 256.664498 152.733642 
L 257.006239 153.597926 
L 257.347981 152.686113 
L 258.031464 147.274114 
L 258.373206 155.881403 
L 258.714947 155.041743 
L 259.056689 155.985964 
L 259.398431 154.328455 
L 259.740172 150.67509 
L 260.081914 152.658688 
L 260.423656 153.646027 
L 260.765397 153.979009 
L 261.107139 154.479581 
L 261.44888 153.096234 
L 261.790622 148.39445 
L 262.132364 149.202637 
L 262.474105 155.409115 
L 262.815847 156.40117 
L 263.157589 146.262045 
L 263.49933 151.379972 
L 263.841072 150.188435 
L 264.182813 155.121923 
L 264.524555 145.895947 
L 264.866297 154.331822 
L 265.208038 140.917558 
L 265.54978 145.071672 
L 265.891522 152.746979 
L 266.233263 149.199957 
L 266.575005 141.916608 
L 266.916746 152.939984 
L 267.258488 140.447711 
L 267.60023 150.990726 
L 267.941971 143.465386 
L 268.283713 145.685803 
L 268.625455 141.704268 
L 268.967196 151.9551 
L 269.308938 141.371368 
L 269.650679 141.701707 
L 269.992421 138.390032 
L 270.334163 140.464333 
L 270.675904 147.292564 
L 271.017646 135.952065 
L 271.701129 151.670025 
L 272.042871 140.320158 
L 272.384612 149.016534 
L 272.726354 149.463954 
L 273.068096 140.693514 
L 273.409837 148.323084 
L 273.751579 146.576495 
L 274.093321 146.085245 
L 274.435062 147.878477 
L 274.776804 142.827439 
L 275.118545 143.365354 
L 275.460287 146.147869 
L 275.802029 145.449548 
L 276.14377 141.800002 
L 276.485512 141.065405 
L 276.827254 146.202162 
L 277.168995 140.554819 
L 277.510737 141.913412 
L 277.852478 140.041204 
L 278.535962 142.336784 
L 278.877703 142.627051 
L 279.219445 148.583528 
L 279.561187 139.614552 
L 280.24467 143.413913 
L 280.586411 131.866776 
L 281.269895 143.412239 
L 281.611636 140.751699 
L 281.953378 144.053823 
L 282.29512 139.143335 
L 282.636861 142.411753 
L 282.978603 130.805324 
L 283.320344 141.135778 
L 283.662086 140.07108 
L 284.003828 131.428018 
L 284.687311 144.766228 
L 285.029053 144.111706 
L 285.370794 140.846282 
L 285.712536 135.894318 
L 286.054278 132.857479 
L 286.396019 124.375885 
L 286.737761 134.642647 
L 287.079502 138.54173 
L 287.421244 137.821244 
L 287.762986 139.291467 
L 288.104727 136.147621 
L 288.446469 138.822136 
L 288.788211 139.291467 
L 289.129952 138.128962 
L 289.471694 132.139052 
L 289.813435 132.317232 
L 290.496919 135.979435 
L 290.83866 127.820432 
L 291.180402 127.884244 
L 291.522144 135.416415 
L 291.863885 132.482885 
L 292.205627 136.689708 
L 292.547368 127.398794 
L 292.88911 133.194105 
L 293.230852 134.179518 
L 293.572593 132.317232 
L 293.914335 126.874798 
L 294.256077 135.793907 
L 294.597818 129.720956 
L 294.93956 127.96348 
L 295.281301 128.846196 
L 295.623043 128.777489 
L 295.964785 124.989273 
L 296.306526 137.652516 
L 296.648268 124.213011 
L 296.99001 130.003673 
L 297.331751 128.677335 
L 297.673493 126.506715 
L 298.015234 128.677335 
L 298.356976 134.791923 
L 298.698718 123.076051 
L 299.040459 121.501039 
L 299.382201 125.895806 
L 299.723943 127.18771 
L 300.065684 129.009761 
L 300.407426 124.791892 
L 300.749167 126.605224 
L 301.090909 123.77947 
L 301.774392 131.330407 
L 302.116134 124.278794 
L 302.457876 123.334863 
L 302.799617 126.969607 
L 303.141359 124.846274 
L 303.4831 126.968882 
L 303.824842 130.767651 
L 304.166584 116.916331 
L 304.850067 127.803161 
L 305.191809 127.332 
L 305.53355 127.40948 
L 305.875292 122.713344 
L 306.217033 120.490375 
L 306.558775 126.71453 
L 306.900517 119.261591 
L 307.242258 117.800966 
L 307.584 126.945025 
L 307.925742 126.623484 
L 308.267483 127.938361 
L 308.609225 121.714547 
L 308.950967 122.525298 
L 309.292708 112.671984 
L 309.63445 123.674477 
L 309.976191 123.814338 
L 310.317933 115.435248 
L 310.659675 122.41909 
L 311.001416 123.040032 
L 311.343158 116.613888 
L 311.6849 121.843914 
L 312.026641 122.520019 
L 312.710124 120.551041 
L 313.393608 123.772088 
L 313.735349 114.908752 
L 314.077091 115.892452 
L 314.418833 115.463404 
L 314.760574 117.278211 
L 315.102316 114.602128 
L 315.444057 117.253674 
L 315.785799 112.632452 
L 316.127541 114.667144 
L 316.811024 122.499081 
L 317.152766 115.243908 
L 317.494507 115.579164 
L 317.836249 108.746524 
L 318.17799 119.335579 
L 318.519732 117.460063 
L 318.861474 112.63919 
L 319.203215 115.203231 
L 319.544957 109.610558 
L 319.886699 117.84794 
L 320.22844 106.700989 
L 320.570182 120.207885 
L 320.911923 115.354165 
L 321.253665 105.978028 
L 321.595407 119.499911 
L 321.937148 100.204292 
L 322.620632 114.532952 
L 322.962373 111.310237 
L 323.304115 104.745061 
L 323.645856 109.632614 
L 323.987598 116.279783 
L 324.32934 103.059856 
L 324.671081 108.234608 
L 325.354565 111.80629 
L 325.696306 100.589689 
L 326.038048 113.162208 
L 326.379789 108.824051 
L 326.721531 113.725255 
L 327.063273 104.870691 
L 327.405014 115.277866 
L 327.746756 113.990734 
L 328.088498 106.219611 
L 328.430239 107.258879 
L 328.771981 113.171451 
L 329.113722 107.40866 
L 329.455464 108.40258 
L 329.797206 105.359815 
L 330.138947 106.765263 
L 330.480689 110.902502 
L 331.164172 101.576963 
L 331.505914 102.5209 
L 331.847656 106.41956 
L 332.189397 108.477183 
L 332.531139 106.624152 
L 332.87288 107.41924 
L 333.214622 99.782663 
L 333.556364 105.980765 
L 333.898105 106.284183 
L 334.239847 107.699646 
L 334.581589 97.887599 
L 334.92333 105.157076 
L 335.265072 104.148017 
L 335.606813 99.860921 
L 335.948555 97.630941 
L 336.290297 101.805002 
L 336.632038 96.727175 
L 336.97378 95.90817 
L 337.315522 94.285624 
L 337.657263 102.070891 
L 337.999005 102.014822 
L 338.340746 103.549069 
L 338.682488 94.382954 
L 339.02423 94.78626 
L 339.365971 101.179938 
L 339.707713 100.410876 
L 340.049455 98.071913 
L 340.391196 101.725492 
L 340.732938 93.978242 
L 341.074679 99.920468 
L 342.099904 92.37691 
L 342.441646 96.475004 
L 342.783388 93.628192 
L 343.125129 100.831652 
L 343.466871 95.320059 
L 343.808612 95.720204 
L 344.150354 93.108775 
L 344.492096 92.225905 
L 344.833837 92.275957 
L 345.175579 87.253939 
L 345.517321 98.755258 
L 345.859062 102.083956 
L 346.200804 99.546049 
L 346.542545 90.664969 
L 346.884287 97.101443 
L 347.226029 85.973469 
L 347.56777 98.49942 
L 347.909512 87.460637 
L 348.251254 88.26414 
L 348.592995 90.524174 
L 349.276478 86.41532 
L 349.61822 93.795007 
L 349.959962 89.742183 
L 350.301703 91.869703 
L 350.643445 91.228215 
L 350.985187 96.717075 
L 351.326928 94.675957 
L 351.66867 95.414851 
L 352.010411 84.900049 
L 352.352153 86.492085 
L 353.035636 93.562829 
L 353.377378 86.597042 
L 353.71912 84.566157 
L 354.060861 92.710286 
L 354.402603 88.290559 
L 354.744344 90.238151 
L 355.086086 88.122881 
L 355.427828 82.494327 
L 355.769569 93.167191 
L 356.111311 88.190673 
L 356.453053 85.078268 
L 356.794794 93.362646 
L 357.136536 83.902797 
L 357.478278 91.641546 
L 357.820019 93.871115 
L 358.161761 87.650124 
L 358.503502 88.988669 
L 358.845244 86.136809 
L 359.186986 86.876329 
L 359.528727 78.021193 
L 359.870469 94.08103 
L 360.212211 83.100047 
L 360.553952 86.509646 
L 360.895694 82.521248 
L 361.237435 86.246833 
L 361.579177 87.411925 
L 361.920919 79.580535 
L 362.26266 79.225015 
L 362.604402 81.054836 
L 362.946144 79.227781 
L 363.287885 82.460807 
L 363.629627 73.688812 
L 363.971368 77.822151 
L 364.31311 75.576635 
L 364.654852 90.452024 
L 364.996593 79.763377 
L 365.338335 72.904702 
L 366.021818 88.701721 
L 366.705301 74.811232 
L 367.047043 81.352988 
L 367.388785 84.102174 
L 368.072268 76.95048 
L 368.41401 82.746921 
L 368.755751 80.512387 
L 369.097493 73.358348 
L 369.439234 83.410462 
L 369.780976 77.177417 
L 370.122718 85.786062 
L 370.806201 84.619744 
L 371.489684 73.621939 
L 371.831426 72.71124 
L 372.173167 73.703439 
L 372.514909 80.224619 
L 372.856651 77.173623 
L 373.198392 77.01489 
L 373.540134 68.084517 
L 373.881876 76.111577 
L 374.223617 69.058537 
L 374.565359 70.830446 
L 374.9071 81.527077 
L 375.248842 72.697646 
L 375.590584 69.779419 
L 375.932325 74.034586 
L 376.274067 70.174632 
L 376.615809 72.56882 
L 376.95755 70.951367 
L 377.299292 67.770075 
L 377.641033 66.856662 
L 377.982775 79.224837 
L 378.324517 71.937603 
L 378.666258 68.284565 
L 379.008 71.910227 
L 379.349742 64.881144 
L 379.691483 68.10231 
L 380.033225 68.026683 
L 380.374967 68.622704 
L 380.716708 66.199761 
L 381.05845 72.276794 
L 381.400191 64.463897 
L 381.741933 62.043195 
L 382.083675 64.025286 
L 382.425416 74.02969 
L 382.767158 69.732206 
L 383.1089 68.532023 
L 383.450641 64.702818 
L 383.792383 69.080091 
L 384.134124 68.724551 
L 384.475866 63.498787 
L 384.817608 72.815054 
L 385.501091 62.975653 
L 385.842833 67.834413 
L 386.184574 58.461741 
L 386.526316 68.293824 
L 386.868057 63.69426 
L 387.209799 62.061095 
L 387.551541 66.827929 
L 387.893282 63.837174 
L 388.235024 59.337295 
L 388.576766 64.517841 
L 388.918507 64.379285 
L 389.260249 58.483816 
L 389.60199 70.516859 
L 389.943732 64.28002 
L 390.285474 62.42341 
L 390.627215 65.05761 
L 390.968957 57.819932 
L 391.310699 64.89148 
L 391.65244 58.527299 
L 391.994182 60.290898 
L 392.335923 63.353898 
L 392.677665 54.559143 
L 393.019407 67.849217 
L 393.361148 54.797628 
L 393.70289 61.874104 
L 394.044632 58.196835 
L 394.728115 67.33246 
L 395.069856 53.568 
L 395.75334 59.940417 
L 396.095081 55.940468 
L 396.436823 57.312841 
L 396.778565 60.748593 
L 397.120306 59.675217 
L 397.462048 55.13958 
L 397.803789 60.374756 
L 398.145531 60.735505 
L 398.487273 53.882416 
L 398.487273 53.882416 
" clip-path="url(#pa7f681f7a5)" style="fill: none; stroke-dasharray: 1,1.65; stroke-dashoffset: 0; stroke: #ffa500"/>
   </g>
   <g id="line2d_15">
    <path d="M 73.832727 280.542515 
L 398.487273 58.410754 
L 398.487273 58.410754 
" clip-path="url(#pa7f681f7a5)" style="fill: none; stroke-dasharray: 1.85,0.8; stroke-dashoffset: 0; stroke: #191970; stroke-width: 0.5"/>
   </g>
   <g id="line2d_16">
    <path d="M 73.832727 280.787401 
L 398.487273 58.310694 
L 398.487273 58.310694 
" clip-path="url(#pa7f681f7a5)" style="fill: none; stroke-dasharray: 0.5,0.825; stroke-dashoffset: 0; stroke: #ff0000; stroke-width: 0.5"/>
   </g>
   <g id="patch_3">
    <path d="M 57.6 307.584 
L 57.6 41.472 
" style="fill: none; stroke: #000000; stroke-width: 0.8; stroke-linejoin: miter; stroke-linecap: square"/>
   </g>
   <g id="patch_4">
    <path d="M 414.72 307.584 
L 414.72 41.472 
" style="fill: none; stroke: #000000; stroke-width: 0.8; stroke-linejoin: miter; stroke-linecap: square"/>
   </g>
   <g id="patch_5">
    <path d="M 57.6 307.584 
L 414.72 307.584 
" style="fill: none; stroke: #000000; stroke-width: 0.8; stroke-linejoin: miter; stroke-linecap: square"/>
   </g>
   <g id="patch_6">
    <path d="M 57.6 41.472 
L 414.72 41.472 
" style="fill: none; stroke: #000000; stroke-width: 0.8; stroke-linejoin: miter; stroke-linecap: square"/>
   </g>
   <g id="text_14">
    <!-- numRider100 -->
    <g transform="translate(195.454688 22.034625)scale(0.12 -0.12)">
     <defs>
      <path id="DejaVuSans-75" d="M 544 1381 
L 544 3500 
L 1119 3500 
L 1119 1403 
Q 1119 906 1312 657 
Q 1506 409 1894 409 
Q 2359 409 2629 706 
Q 2900 1003 2900 1516 
L 2900 3500 
L 3475 3500 
L 3475 0 
L 2900 0 
L 2900 538 
Q 2691 219 2414 64 
Q 2138 -91 1772 -91 
Q 1169 -91 856 284 
Q 544 659 544 1381 
z
M 1991 3584 
L 1991 3584 
z
" transform="scale(0.015625)"/>
      <path id="DejaVuSans-52" d="M 2841 2188 
Q 3044 2119 3236 1894 
Q 3428 1669 3622 1275 
L 4263 0 
L 3584 0 
L 2988 1197 
Q 2756 1666 2539 1819 
Q 2322 1972 1947 1972 
L 1259 1972 
L 1259 0 
L 628 0 
L 628 4666 
L 2053 4666 
Q 2853 4666 3247 4331 
Q 3641 3997 3641 3322 
Q 3641 2881 3436 2590 
Q 3231 2300 2841 2188 
z
M 1259 4147 
L 1259 2491 
L 2053 2491 
Q 2509 2491 2742 2702 
Q 2975 2913 2975 3322 
Q 2975 3731 2742 3939 
Q 2509 4147 2053 4147 
L 1259 4147 
z
" transform="scale(0.015625)"/>
     </defs>
     <use xlink:href="#DejaVuSans-6e"/>
     <use xlink:href="#DejaVuSans-75" x="63.378906"/>
     <use xlink:href="#DejaVuSans-6d" x="126.757812"/>
     <use xlink:href="#DejaVuSans-52" x="224.169922"/>
     <use xlink:href="#DejaVuSans-69" x="293.652344"/>
     <use xlink:href="#DejaVuSans-64" x="321.435547"/>
     <use xlink:href="#DejaVuSans-65" x="384.912109"/>
     <use xlink:href="#DejaVuSans-72" x="446.435547"/>
     <use xlink:href="#DejaVuSans-31" x="487.548828"/>
     <use xlink:href="#DejaVuSans-30" x="551.171875"/>
     <use xlink:href="#DejaVuSans-30" x="614.794922"/>
    </g>
    <!--  grid50 -->
    <g transform="translate(214.866562 35.472)scale(0.12 -0.12)">
     <defs>
      <path id="DejaVuSans-67" d="M 2906 1791 
Q 2906 2416 2648 2759 
Q 2391 3103 1925 3103 
Q 1463 3103 1205 2759 
Q 947 2416 947 1791 
Q 947 1169 1205 825 
Q 1463 481 1925 481 
Q 2391 481 2648 825 
Q 2906 1169 2906 1791 
z
M 3481 434 
Q 3481 -459 3084 -895 
Q 2688 -1331 1869 -1331 
Q 1566 -1331 1297 -1286 
Q 1028 -1241 775 -1147 
L 775 -588 
Q 1028 -725 1275 -790 
Q 1522 -856 1778 -856 
Q 2344 -856 2625 -561 
Q 2906 -266 2906 331 
L 2906 616 
Q 2728 306 2450 153 
Q 2172 0 1784 0 
Q 1141 0 747 490 
Q 353 981 353 1791 
Q 353 2603 747 3093 
Q 1141 3584 1784 3584 
Q 2172 3584 2450 3431 
Q 2728 3278 2906 2969 
L 2906 3500 
L 3481 3500 
L 3481 434 
z
" transform="scale(0.015625)"/>
     </defs>
     <use xlink:href="#DejaVuSans-20"/>
     <use xlink:href="#DejaVuSans-67" x="31.787109"/>
     <use xlink:href="#DejaVuSans-72" x="95.263672"/>
     <use xlink:href="#DejaVuSans-69" x="136.376953"/>
     <use xlink:href="#DejaVuSans-64" x="164.160156"/>
     <use xlink:href="#DejaVuSans-35" x="227.636719"/>
     <use xlink:href="#DejaVuSans-30" x="291.259766"/>
    </g>
   </g>
   <g id="legend_1">
    <g id="patch_7">
     <path d="M 64.6 122.862625 
L 241.8625 122.862625 
Q 243.8625 122.862625 243.8625 120.862625 
L 243.8625 48.472 
Q 243.8625 46.472 241.8625 46.472 
L 64.6 46.472 
Q 62.6 46.472 62.6 48.472 
L 62.6 120.862625 
Q 62.6 122.862625 64.6 122.862625 
z
" style="fill: #ffffff; opacity: 0.8; stroke: #cccccc; stroke-linejoin: miter"/>
    </g>
    <g id="line2d_17">
     <path d="M 66.6 54.570438 
L 76.6 54.570438 
L 86.6 54.570438 
" style="fill: none; stroke: #32cd32; stroke-linecap: square"/>
    </g>
    <g id="text_15">
     <!-- Time In -->
     <g transform="translate(94.6 58.070438)scale(0.1 -0.1)">
      <use xlink:href="#DejaVuSans-54"/>
      <use xlink:href="#DejaVuSans-69" x="57.958984"/>
      <use xlink:href="#DejaVuSans-6d" x="85.742188"/>
      <use xlink:href="#DejaVuSans-65" x="183.154297"/>
      <use xlink:href="#DejaVuSans-20" x="244.677734"/>
      <use xlink:href="#DejaVuSans-49" x="276.464844"/>
      <use xlink:href="#DejaVuSans-6e" x="305.957031"/>
     </g>
    </g>
    <g id="line2d_18">
     <path d="M 66.6 69.248563 
L 76.6 69.248563 
L 86.6 69.248563 
" style="fill: none; stroke-dasharray: 3.7,1.6; stroke-dashoffset: 0; stroke: #4169e1"/>
    </g>
    <g id="text_16">
     <!-- Time Delivered - Default -->
     <g transform="translate(94.6 72.748563)scale(0.1 -0.1)">
      <defs>
       <path id="DejaVuSans-2d" d="M 313 2009 
L 1997 2009 
L 1997 1497 
L 313 1497 
L 313 2009 
z
" transform="scale(0.015625)"/>
       <path id="DejaVuSans-66" d="M 2375 4863 
L 2375 4384 
L 1825 4384 
Q 1516 4384 1395 4259 
Q 1275 4134 1275 3809 
L 1275 3500 
L 2222 3500 
L 2222 3053 
L 1275 3053 
L 1275 0 
L 697 0 
L 697 3053 
L 147 3053 
L 147 3500 
L 697 3500 
L 697 3744 
Q 697 4328 969 4595 
Q 1241 4863 1831 4863 
L 2375 4863 
z
" transform="scale(0.015625)"/>
       <path id="DejaVuSans-61" d="M 2194 1759 
Q 1497 1759 1228 1600 
Q 959 1441 959 1056 
Q 959 750 1161 570 
Q 1363 391 1709 391 
Q 2188 391 2477 730 
Q 2766 1069 2766 1631 
L 2766 1759 
L 2194 1759 
z
M 3341 1997 
L 3341 0 
L 2766 0 
L 2766 531 
Q 2569 213 2275 61 
Q 1981 -91 1556 -91 
Q 1019 -91 701 211 
Q 384 513 384 1019 
Q 384 1609 779 1909 
Q 1175 2209 1959 2209 
L 2766 2209 
L 2766 2266 
Q 2766 2663 2505 2880 
Q 2244 3097 1772 3097 
Q 1472 3097 1187 3025 
Q 903 2953 641 2809 
L 641 3341 
Q 956 3463 1253 3523 
Q 1550 3584 1831 3584 
Q 2591 3584 2966 3190 
Q 3341 2797 3341 1997 
z
" transform="scale(0.015625)"/>
       <path id="DejaVuSans-74" d="M 1172 4494 
L 1172 3500 
L 2356 3500 
L 2356 3053 
L 1172 3053 
L 1172 1153 
Q 1172 725 1289 603 
Q 1406 481 1766 481 
L 2356 481 
L 2356 0 
L 1766 0 
Q 1100 0 847 248 
Q 594 497 594 1153 
L 594 3053 
L 172 3053 
L 172 3500 
L 594 3500 
L 594 4494 
L 1172 4494 
z
" transform="scale(0.015625)"/>
      </defs>
      <use xlink:href="#DejaVuSans-54"/>
      <use xlink:href="#DejaVuSans-69" x="57.958984"/>
      <use xlink:href="#DejaVuSans-6d" x="85.742188"/>
      <use xlink:href="#DejaVuSans-65" x="183.154297"/>
      <use xlink:href="#DejaVuSans-20" x="244.677734"/>
      <use xlink:href="#DejaVuSans-44" x="276.464844"/>
      <use xlink:href="#DejaVuSans-65" x="353.466797"/>
      <use xlink:href="#DejaVuSans-6c" x="414.990234"/>
      <use xlink:href="#DejaVuSans-69" x="442.773438"/>
      <use xlink:href="#DejaVuSans-76" x="470.556641"/>
      <use xlink:href="#DejaVuSans-65" x="529.736328"/>
      <use xlink:href="#DejaVuSans-72" x="591.259766"/>
      <use xlink:href="#DejaVuSans-65" x="630.123047"/>
      <use xlink:href="#DejaVuSans-64" x="691.646484"/>
      <use xlink:href="#DejaVuSans-20" x="755.123047"/>
      <use xlink:href="#DejaVuSans-2d" x="786.910156"/>
      <use xlink:href="#DejaVuSans-20" x="822.994141"/>
      <use xlink:href="#DejaVuSans-44" x="854.78125"/>
      <use xlink:href="#DejaVuSans-65" x="931.783203"/>
      <use xlink:href="#DejaVuSans-66" x="993.306641"/>
      <use xlink:href="#DejaVuSans-61" x="1028.511719"/>
      <use xlink:href="#DejaVuSans-75" x="1089.791016"/>
      <use xlink:href="#DejaVuSans-6c" x="1153.169922"/>
      <use xlink:href="#DejaVuSans-74" x="1180.953125"/>
     </g>
    </g>
    <g id="line2d_19">
     <path d="M 66.6 83.926688 
L 76.6 83.926688 
L 86.6 83.926688 
" style="fill: none; stroke-dasharray: 1,1.65; stroke-dashoffset: 0; stroke: #ffa500"/>
    </g>
    <g id="text_17">
     <!-- Time Delivered - Anticipation -->
     <g transform="translate(94.6 87.426688)scale(0.1 -0.1)">
      <defs>
       <path id="DejaVuSans-41" d="M 2188 4044 
L 1331 1722 
L 3047 1722 
L 2188 4044 
z
M 1831 4666 
L 2547 4666 
L 4325 0 
L 3669 0 
L 3244 1197 
L 1141 1197 
L 716 0 
L 50 0 
L 1831 4666 
z
" transform="scale(0.015625)"/>
       <path id="DejaVuSans-63" d="M 3122 3366 
L 3122 2828 
Q 2878 2963 2633 3030 
Q 2388 3097 2138 3097 
Q 1578 3097 1268 2742 
Q 959 2388 959 1747 
Q 959 1106 1268 751 
Q 1578 397 2138 397 
Q 2388 397 2633 464 
Q 2878 531 3122 666 
L 3122 134 
Q 2881 22 2623 -34 
Q 2366 -91 2075 -91 
Q 1284 -91 818 406 
Q 353 903 353 1747 
Q 353 2603 823 3093 
Q 1294 3584 2113 3584 
Q 2378 3584 2631 3529 
Q 2884 3475 3122 3366 
z
" transform="scale(0.015625)"/>
       <path id="DejaVuSans-70" d="M 1159 525 
L 1159 -1331 
L 581 -1331 
L 581 3500 
L 1159 3500 
L 1159 2969 
Q 1341 3281 1617 3432 
Q 1894 3584 2278 3584 
Q 2916 3584 3314 3078 
Q 3713 2572 3713 1747 
Q 3713 922 3314 415 
Q 2916 -91 2278 -91 
Q 1894 -91 1617 61 
Q 1341 213 1159 525 
z
M 3116 1747 
Q 3116 2381 2855 2742 
Q 2594 3103 2138 3103 
Q 1681 3103 1420 2742 
Q 1159 2381 1159 1747 
Q 1159 1113 1420 752 
Q 1681 391 2138 391 
Q 2594 391 2855 752 
Q 3116 1113 3116 1747 
z
" transform="scale(0.015625)"/>
       <path id="DejaVuSans-6f" d="M 1959 3097 
Q 1497 3097 1228 2736 
Q 959 2375 959 1747 
Q 959 1119 1226 758 
Q 1494 397 1959 397 
Q 2419 397 2687 759 
Q 2956 1122 2956 1747 
Q 2956 2369 2687 2733 
Q 2419 3097 1959 3097 
z
M 1959 3584 
Q 2709 3584 3137 3096 
Q 3566 2609 3566 1747 
Q 3566 888 3137 398 
Q 2709 -91 1959 -91 
Q 1206 -91 779 398 
Q 353 888 353 1747 
Q 353 2609 779 3096 
Q 1206 3584 1959 3584 
z
" transform="scale(0.015625)"/>
      </defs>
      <use xlink:href="#DejaVuSans-54"/>
      <use xlink:href="#DejaVuSans-69" x="57.958984"/>
      <use xlink:href="#DejaVuSans-6d" x="85.742188"/>
      <use xlink:href="#DejaVuSans-65" x="183.154297"/>
      <use xlink:href="#DejaVuSans-20" x="244.677734"/>
      <use xlink:href="#DejaVuSans-44" x="276.464844"/>
      <use xlink:href="#DejaVuSans-65" x="353.466797"/>
      <use xlink:href="#DejaVuSans-6c" x="414.990234"/>
      <use xlink:href="#DejaVuSans-69" x="442.773438"/>
      <use xlink:href="#DejaVuSans-76" x="470.556641"/>
      <use xlink:href="#DejaVuSans-65" x="529.736328"/>
      <use xlink:href="#DejaVuSans-72" x="591.259766"/>
      <use xlink:href="#DejaVuSans-65" x="630.123047"/>
      <use xlink:href="#DejaVuSans-64" x="691.646484"/>
      <use xlink:href="#DejaVuSans-20" x="755.123047"/>
      <use xlink:href="#DejaVuSans-2d" x="786.910156"/>
      <use xlink:href="#DejaVuSans-20" x="822.994141"/>
      <use xlink:href="#DejaVuSans-41" x="854.78125"/>
      <use xlink:href="#DejaVuSans-6e" x="923.189453"/>
      <use xlink:href="#DejaVuSans-74" x="986.568359"/>
      <use xlink:href="#DejaVuSans-69" x="1025.777344"/>
      <use xlink:href="#DejaVuSans-63" x="1053.560547"/>
      <use xlink:href="#DejaVuSans-69" x="1108.541016"/>
      <use xlink:href="#DejaVuSans-70" x="1136.324219"/>
      <use xlink:href="#DejaVuSans-61" x="1199.800781"/>
      <use xlink:href="#DejaVuSans-74" x="1261.080078"/>
      <use xlink:href="#DejaVuSans-69" x="1300.289062"/>
      <use xlink:href="#DejaVuSans-6f" x="1328.072266"/>
      <use xlink:href="#DejaVuSans-6e" x="1389.253906"/>
     </g>
    </g>
    <g id="line2d_20">
     <path d="M 66.6 98.604813 
L 76.6 98.604813 
L 86.6 98.604813 
" style="fill: none; stroke-dasharray: 1.85,0.8; stroke-dashoffset: 0; stroke: #191970; stroke-width: 0.5"/>
    </g>
    <g id="text_18">
     <!-- best fit line for default -->
     <g transform="translate(94.6 102.104813)scale(0.1 -0.1)">
      <defs>
       <path id="DejaVuSans-62" d="M 3116 1747 
Q 3116 2381 2855 2742 
Q 2594 3103 2138 3103 
Q 1681 3103 1420 2742 
Q 1159 2381 1159 1747 
Q 1159 1113 1420 752 
Q 1681 391 2138 391 
Q 2594 391 2855 752 
Q 3116 1113 3116 1747 
z
M 1159 2969 
Q 1341 3281 1617 3432 
Q 1894 3584 2278 3584 
Q 2916 3584 3314 3078 
Q 3713 2572 3713 1747 
Q 3713 922 3314 415 
Q 2916 -91 2278 -91 
Q 1894 -91 1617 61 
Q 1341 213 1159 525 
L 1159 0 
L 581 0 
L 581 4863 
L 1159 4863 
L 1159 2969 
z
" transform="scale(0.015625)"/>
       <path id="DejaVuSans-73" d="M 2834 3397 
L 2834 2853 
Q 2591 2978 2328 3040 
Q 2066 3103 1784 3103 
Q 1356 3103 1142 2972 
Q 928 2841 928 2578 
Q 928 2378 1081 2264 
Q 1234 2150 1697 2047 
L 1894 2003 
Q 2506 1872 2764 1633 
Q 3022 1394 3022 966 
Q 3022 478 2636 193 
Q 2250 -91 1575 -91 
Q 1294 -91 989 -36 
Q 684 19 347 128 
L 347 722 
Q 666 556 975 473 
Q 1284 391 1588 391 
Q 1994 391 2212 530 
Q 2431 669 2431 922 
Q 2431 1156 2273 1281 
Q 2116 1406 1581 1522 
L 1381 1569 
Q 847 1681 609 1914 
Q 372 2147 372 2553 
Q 372 3047 722 3315 
Q 1072 3584 1716 3584 
Q 2034 3584 2315 3537 
Q 2597 3491 2834 3397 
z
" transform="scale(0.015625)"/>
      </defs>
      <use xlink:href="#DejaVuSans-62"/>
      <use xlink:href="#DejaVuSans-65" x="63.476562"/>
      <use xlink:href="#DejaVuSans-73" x="125"/>
      <use xlink:href="#DejaVuSans-74" x="177.099609"/>
      <use xlink:href="#DejaVuSans-20" x="216.308594"/>
      <use xlink:href="#DejaVuSans-66" x="248.095703"/>
      <use xlink:href="#DejaVuSans-69" x="283.300781"/>
      <use xlink:href="#DejaVuSans-74" x="311.083984"/>
      <use xlink:href="#DejaVuSans-20" x="350.292969"/>
      <use xlink:href="#DejaVuSans-6c" x="382.080078"/>
      <use xlink:href="#DejaVuSans-69" x="409.863281"/>
      <use xlink:href="#DejaVuSans-6e" x="437.646484"/>
      <use xlink:href="#DejaVuSans-65" x="501.025391"/>
      <use xlink:href="#DejaVuSans-20" x="562.548828"/>
      <use xlink:href="#DejaVuSans-66" x="594.335938"/>
      <use xlink:href="#DejaVuSans-6f" x="629.541016"/>
      <use xlink:href="#DejaVuSans-72" x="690.722656"/>
      <use xlink:href="#DejaVuSans-20" x="731.835938"/>
      <use xlink:href="#DejaVuSans-64" x="763.623047"/>
      <use xlink:href="#DejaVuSans-65" x="827.099609"/>
      <use xlink:href="#DejaVuSans-66" x="888.623047"/>
      <use xlink:href="#DejaVuSans-61" x="923.828125"/>
      <use xlink:href="#DejaVuSans-75" x="985.107422"/>
      <use xlink:href="#DejaVuSans-6c" x="1048.486328"/>
      <use xlink:href="#DejaVuSans-74" x="1076.269531"/>
     </g>
    </g>
    <g id="line2d_21">
     <path d="M 66.6 113.282938 
L 76.6 113.282938 
L 86.6 113.282938 
" style="fill: none; stroke-dasharray: 0.5,0.825; stroke-dashoffset: 0; stroke: #ff0000; stroke-width: 0.5"/>
    </g>
    <g id="text_19">
     <!-- best fit line for anticipation -->
     <g transform="translate(94.6 116.782938)scale(0.1 -0.1)">
      <use xlink:href="#DejaVuSans-62"/>
      <use xlink:href="#DejaVuSans-65" x="63.476562"/>
      <use xlink:href="#DejaVuSans-73" x="125"/>
      <use xlink:href="#DejaVuSans-74" x="177.099609"/>
      <use xlink:href="#DejaVuSans-20" x="216.308594"/>
      <use xlink:href="#DejaVuSans-66" x="248.095703"/>
      <use xlink:href="#DejaVuSans-69" x="283.300781"/>
      <use xlink:href="#DejaVuSans-74" x="311.083984"/>
      <use xlink:href="#DejaVuSans-20" x="350.292969"/>
      <use xlink:href="#DejaVuSans-6c" x="382.080078"/>
      <use xlink:href="#DejaVuSans-69" x="409.863281"/>
      <use xlink:href="#DejaVuSans-6e" x="437.646484"/>
      <use xlink:href="#DejaVuSans-65" x="501.025391"/>
      <use xlink:href="#DejaVuSans-20" x="562.548828"/>
      <use xlink:href="#DejaVuSans-66" x="594.335938"/>
      <use xlink:href="#DejaVuSans-6f" x="629.541016"/>
      <use xlink:href="#DejaVuSans-72" x="690.722656"/>
      <use xlink:href="#DejaVuSans-20" x="731.835938"/>
      <use xlink:href="#DejaVuSans-61" x="763.623047"/>
      <use xlink:href="#DejaVuSans-6e" x="824.902344"/>
      <use xlink:href="#DejaVuSans-74" x="888.28125"/>
      <use xlink:href="#DejaVuSans-69" x="927.490234"/>
      <use xlink:href="#DejaVuSans-63" x="955.273438"/>
      <use xlink:href="#DejaVuSans-69" x="1010.253906"/>
      <use xlink:href="#DejaVuSans-70" x="1038.037109"/>
      <use xlink:href="#DejaVuSans-61" x="1101.513672"/>
      <use xlink:href="#DejaVuSans-74" x="1162.792969"/>
      <use xlink:href="#DejaVuSans-69" x="1202.001953"/>
      <use xlink:href="#DejaVuSans-6f" x="1229.785156"/>
      <use xlink:href="#DejaVuSans-6e" x="1290.966797"/>
     </g>
    </g>
   </g>
  </g>
 </g>
 <defs>
  <clipPath id="pa7f681f7a5">
   <rect x="57.6" y="41.472" width="357.12" height="266.112"/>
  </clipPath>
 </defs>
</svg>
