<?xml version="1.0" encoding="utf-8" standalone="no"?>
<!DOCTYPE svg PUBLIC "-//W3C//DTD SVG 1.1//EN"
  "http://www.w3.org/Graphics/SVG/1.1/DTD/svg11.dtd">
<svg xmlns:xlink="http://www.w3.org/1999/xlink" width="460.8pt" height="345.6pt" viewBox="0 0 460.8 345.6" xmlns="http://www.w3.org/2000/svg" version="1.1">
 <metadata>
  <rdf:RDF xmlns:dc="http://purl.org/dc/elements/1.1/" xmlns:cc="http://creativecommons.org/ns#" xmlns:rdf="http://www.w3.org/1999/02/22-rdf-syntax-ns#">
   <cc:Work>
    <dc:type rdf:resource="http://purl.org/dc/dcmitype/StillImage"/>
    <dc:date>2022-09-14T10:09:34.344960</dc:date>
    <dc:format>image/svg+xml</dc:format>
    <dc:creator>
     <cc:Agent>
      <dc:title>Matplotlib v3.5.3, https://matplotlib.org/</dc:title>
     </cc:Agent>
    </dc:creator>
   </cc:Work>
  </rdf:RDF>
 </metadata>
 <defs>
  <style type="text/css">*{stroke-linejoin: round; stroke-linecap: butt}</style>
 </defs>
 <g id="figure_1">
  <g id="patch_1">
   <path d="M 0 345.6 
L 460.8 345.6 
L 460.8 0 
L 0 0 
z
" style="fill: #ffffff"/>
  </g>
  <g id="axes_1">
   <g id="patch_2">
    <path d="M 57.6 307.584 
L 414.72 307.584 
L 414.72 41.472 
L 57.6 41.472 
z
" style="fill: #ffffff"/>
   </g>
   <g id="matplotlib.axis_1">
    <g id="xtick_1">
     <g id="line2d_1">
      <defs>
       <path id="m34abbfa0ef" d="M 0 0 
L 0 3.5 
" style="stroke: #000000; stroke-width: 0.8"/>
      </defs>
      <g>
       <use xlink:href="#m34abbfa0ef" x="73.832727" y="307.584" style="stroke: #000000; stroke-width: 0.8"/>
      </g>
     </g>
     <g id="text_1">
      <!-- 0 -->
      <g transform="translate(70.651477 322.182437)scale(0.1 -0.1)">
       <defs>
        <path id="DejaVuSans-30" d="M 2034 4250 
Q 1547 4250 1301 3770 
Q 1056 3291 1056 2328 
Q 1056 1369 1301 889 
Q 1547 409 2034 409 
Q 2525 409 2770 889 
Q 3016 1369 3016 2328 
Q 3016 3291 2770 3770 
Q 2525 4250 2034 4250 
z
M 2034 4750 
Q 2819 4750 3233 4129 
Q 3647 3509 3647 2328 
Q 3647 1150 3233 529 
Q 2819 -91 2034 -91 
Q 1250 -91 836 529 
Q 422 1150 422 2328 
Q 422 3509 836 4129 
Q 1250 4750 2034 4750 
z
" transform="scale(0.015625)"/>
       </defs>
       <use xlink:href="#DejaVuSans-30"/>
      </g>
     </g>
    </g>
    <g id="xtick_2">
     <g id="line2d_2">
      <g>
       <use xlink:href="#m34abbfa0ef" x="118.923636" y="307.584" style="stroke: #000000; stroke-width: 0.8"/>
      </g>
     </g>
     <g id="text_2">
      <!-- 50 -->
      <g transform="translate(112.561136 322.182437)scale(0.1 -0.1)">
       <defs>
        <path id="DejaVuSans-35" d="M 691 4666 
L 3169 4666 
L 3169 4134 
L 1269 4134 
L 1269 2991 
Q 1406 3038 1543 3061 
Q 1681 3084 1819 3084 
Q 2600 3084 3056 2656 
Q 3513 2228 3513 1497 
Q 3513 744 3044 326 
Q 2575 -91 1722 -91 
Q 1428 -91 1123 -41 
Q 819 9 494 109 
L 494 744 
Q 775 591 1075 516 
Q 1375 441 1709 441 
Q 2250 441 2565 725 
Q 2881 1009 2881 1497 
Q 2881 1984 2565 2268 
Q 2250 2553 1709 2553 
Q 1456 2553 1204 2497 
Q 953 2441 691 2322 
L 691 4666 
z
" transform="scale(0.015625)"/>
       </defs>
       <use xlink:href="#DejaVuSans-35"/>
       <use xlink:href="#DejaVuSans-30" x="63.623047"/>
      </g>
     </g>
    </g>
    <g id="xtick_3">
     <g id="line2d_3">
      <g>
       <use xlink:href="#m34abbfa0ef" x="164.014545" y="307.584" style="stroke: #000000; stroke-width: 0.8"/>
      </g>
     </g>
     <g id="text_3">
      <!-- 100 -->
      <g transform="translate(154.470795 322.182437)scale(0.1 -0.1)">
       <defs>
        <path id="DejaVuSans-31" d="M 794 531 
L 1825 531 
L 1825 4091 
L 703 3866 
L 703 4441 
L 1819 4666 
L 2450 4666 
L 2450 531 
L 3481 531 
L 3481 0 
L 794 0 
L 794 531 
z
" transform="scale(0.015625)"/>
       </defs>
       <use xlink:href="#DejaVuSans-31"/>
       <use xlink:href="#DejaVuSans-30" x="63.623047"/>
       <use xlink:href="#DejaVuSans-30" x="127.246094"/>
      </g>
     </g>
    </g>
    <g id="xtick_4">
     <g id="line2d_4">
      <g>
       <use xlink:href="#m34abbfa0ef" x="209.105455" y="307.584" style="stroke: #000000; stroke-width: 0.8"/>
      </g>
     </g>
     <g id="text_4">
      <!-- 150 -->
      <g transform="translate(199.561705 322.182437)scale(0.1 -0.1)">
       <use xlink:href="#DejaVuSans-31"/>
       <use xlink:href="#DejaVuSans-35" x="63.623047"/>
       <use xlink:href="#DejaVuSans-30" x="127.246094"/>
      </g>
     </g>
    </g>
    <g id="xtick_5">
     <g id="line2d_5">
      <g>
       <use xlink:href="#m34abbfa0ef" x="254.196364" y="307.584" style="stroke: #000000; stroke-width: 0.8"/>
      </g>
     </g>
     <g id="text_5">
      <!-- 200 -->
      <g transform="translate(244.652614 322.182437)scale(0.1 -0.1)">
       <defs>
        <path id="DejaVuSans-32" d="M 1228 531 
L 3431 531 
L 3431 0 
L 469 0 
L 469 531 
Q 828 903 1448 1529 
Q 2069 2156 2228 2338 
Q 2531 2678 2651 2914 
Q 2772 3150 2772 3378 
Q 2772 3750 2511 3984 
Q 2250 4219 1831 4219 
Q 1534 4219 1204 4116 
Q 875 4013 500 3803 
L 500 4441 
Q 881 4594 1212 4672 
Q 1544 4750 1819 4750 
Q 2544 4750 2975 4387 
Q 3406 4025 3406 3419 
Q 3406 3131 3298 2873 
Q 3191 2616 2906 2266 
Q 2828 2175 2409 1742 
Q 1991 1309 1228 531 
z
" transform="scale(0.015625)"/>
       </defs>
       <use xlink:href="#DejaVuSans-32"/>
       <use xlink:href="#DejaVuSans-30" x="63.623047"/>
       <use xlink:href="#DejaVuSans-30" x="127.246094"/>
      </g>
     </g>
    </g>
    <g id="xtick_6">
     <g id="line2d_6">
      <g>
       <use xlink:href="#m34abbfa0ef" x="299.287273" y="307.584" style="stroke: #000000; stroke-width: 0.8"/>
      </g>
     </g>
     <g id="text_6">
      <!-- 250 -->
      <g transform="translate(289.743523 322.182437)scale(0.1 -0.1)">
       <use xlink:href="#DejaVuSans-32"/>
       <use xlink:href="#DejaVuSans-35" x="63.623047"/>
       <use xlink:href="#DejaVuSans-30" x="127.246094"/>
      </g>
     </g>
    </g>
    <g id="xtick_7">
     <g id="line2d_7">
      <g>
       <use xlink:href="#m34abbfa0ef" x="344.378182" y="307.584" style="stroke: #000000; stroke-width: 0.8"/>
      </g>
     </g>
     <g id="text_7">
      <!-- 300 -->
      <g transform="translate(334.834432 322.182437)scale(0.1 -0.1)">
       <defs>
        <path id="DejaVuSans-33" d="M 2597 2516 
Q 3050 2419 3304 2112 
Q 3559 1806 3559 1356 
Q 3559 666 3084 287 
Q 2609 -91 1734 -91 
Q 1441 -91 1130 -33 
Q 819 25 488 141 
L 488 750 
Q 750 597 1062 519 
Q 1375 441 1716 441 
Q 2309 441 2620 675 
Q 2931 909 2931 1356 
Q 2931 1769 2642 2001 
Q 2353 2234 1838 2234 
L 1294 2234 
L 1294 2753 
L 1863 2753 
Q 2328 2753 2575 2939 
Q 2822 3125 2822 3475 
Q 2822 3834 2567 4026 
Q 2313 4219 1838 4219 
Q 1578 4219 1281 4162 
Q 984 4106 628 3988 
L 628 4550 
Q 988 4650 1302 4700 
Q 1616 4750 1894 4750 
Q 2613 4750 3031 4423 
Q 3450 4097 3450 3541 
Q 3450 3153 3228 2886 
Q 3006 2619 2597 2516 
z
" transform="scale(0.015625)"/>
       </defs>
       <use xlink:href="#DejaVuSans-33"/>
       <use xlink:href="#DejaVuSans-30" x="63.623047"/>
       <use xlink:href="#DejaVuSans-30" x="127.246094"/>
      </g>
     </g>
    </g>
    <g id="xtick_8">
     <g id="line2d_8">
      <g>
       <use xlink:href="#m34abbfa0ef" x="389.469091" y="307.584" style="stroke: #000000; stroke-width: 0.8"/>
      </g>
     </g>
     <g id="text_8">
      <!-- 350 -->
      <g transform="translate(379.925341 322.182437)scale(0.1 -0.1)">
       <use xlink:href="#DejaVuSans-33"/>
       <use xlink:href="#DejaVuSans-35" x="63.623047"/>
       <use xlink:href="#DejaVuSans-30" x="127.246094"/>
      </g>
     </g>
    </g>
    <g id="text_9">
     <!-- Order Index -->
     <g transform="translate(206.594375 335.860562)scale(0.1 -0.1)">
      <defs>
       <path id="DejaVuSans-4f" d="M 2522 4238 
Q 1834 4238 1429 3725 
Q 1025 3213 1025 2328 
Q 1025 1447 1429 934 
Q 1834 422 2522 422 
Q 3209 422 3611 934 
Q 4013 1447 4013 2328 
Q 4013 3213 3611 3725 
Q 3209 4238 2522 4238 
z
M 2522 4750 
Q 3503 4750 4090 4092 
Q 4678 3434 4678 2328 
Q 4678 1225 4090 567 
Q 3503 -91 2522 -91 
Q 1538 -91 948 565 
Q 359 1222 359 2328 
Q 359 3434 948 4092 
Q 1538 4750 2522 4750 
z
" transform="scale(0.015625)"/>
       <path id="DejaVuSans-72" d="M 2631 2963 
Q 2534 3019 2420 3045 
Q 2306 3072 2169 3072 
Q 1681 3072 1420 2755 
Q 1159 2438 1159 1844 
L 1159 0 
L 581 0 
L 581 3500 
L 1159 3500 
L 1159 2956 
Q 1341 3275 1631 3429 
Q 1922 3584 2338 3584 
Q 2397 3584 2469 3576 
Q 2541 3569 2628 3553 
L 2631 2963 
z
" transform="scale(0.015625)"/>
       <path id="DejaVuSans-64" d="M 2906 2969 
L 2906 4863 
L 3481 4863 
L 3481 0 
L 2906 0 
L 2906 525 
Q 2725 213 2448 61 
Q 2172 -91 1784 -91 
Q 1150 -91 751 415 
Q 353 922 353 1747 
Q 353 2572 751 3078 
Q 1150 3584 1784 3584 
Q 2172 3584 2448 3432 
Q 2725 3281 2906 2969 
z
M 947 1747 
Q 947 1113 1208 752 
Q 1469 391 1925 391 
Q 2381 391 2643 752 
Q 2906 1113 2906 1747 
Q 2906 2381 2643 2742 
Q 2381 3103 1925 3103 
Q 1469 3103 1208 2742 
Q 947 2381 947 1747 
z
" transform="scale(0.015625)"/>
       <path id="DejaVuSans-65" d="M 3597 1894 
L 3597 1613 
L 953 1613 
Q 991 1019 1311 708 
Q 1631 397 2203 397 
Q 2534 397 2845 478 
Q 3156 559 3463 722 
L 3463 178 
Q 3153 47 2828 -22 
Q 2503 -91 2169 -91 
Q 1331 -91 842 396 
Q 353 884 353 1716 
Q 353 2575 817 3079 
Q 1281 3584 2069 3584 
Q 2775 3584 3186 3129 
Q 3597 2675 3597 1894 
z
M 3022 2063 
Q 3016 2534 2758 2815 
Q 2500 3097 2075 3097 
Q 1594 3097 1305 2825 
Q 1016 2553 972 2059 
L 3022 2063 
z
" transform="scale(0.015625)"/>
       <path id="DejaVuSans-20" transform="scale(0.015625)"/>
       <path id="DejaVuSans-49" d="M 628 4666 
L 1259 4666 
L 1259 0 
L 628 0 
L 628 4666 
z
" transform="scale(0.015625)"/>
       <path id="DejaVuSans-6e" d="M 3513 2113 
L 3513 0 
L 2938 0 
L 2938 2094 
Q 2938 2591 2744 2837 
Q 2550 3084 2163 3084 
Q 1697 3084 1428 2787 
Q 1159 2491 1159 1978 
L 1159 0 
L 581 0 
L 581 3500 
L 1159 3500 
L 1159 2956 
Q 1366 3272 1645 3428 
Q 1925 3584 2291 3584 
Q 2894 3584 3203 3211 
Q 3513 2838 3513 2113 
z
" transform="scale(0.015625)"/>
       <path id="DejaVuSans-78" d="M 3513 3500 
L 2247 1797 
L 3578 0 
L 2900 0 
L 1881 1375 
L 863 0 
L 184 0 
L 1544 1831 
L 300 3500 
L 978 3500 
L 1906 2253 
L 2834 3500 
L 3513 3500 
z
" transform="scale(0.015625)"/>
      </defs>
      <use xlink:href="#DejaVuSans-4f"/>
      <use xlink:href="#DejaVuSans-72" x="78.710938"/>
      <use xlink:href="#DejaVuSans-64" x="118.074219"/>
      <use xlink:href="#DejaVuSans-65" x="181.550781"/>
      <use xlink:href="#DejaVuSans-72" x="243.074219"/>
      <use xlink:href="#DejaVuSans-20" x="284.1875"/>
      <use xlink:href="#DejaVuSans-49" x="315.974609"/>
      <use xlink:href="#DejaVuSans-6e" x="345.466797"/>
      <use xlink:href="#DejaVuSans-64" x="408.845703"/>
      <use xlink:href="#DejaVuSans-65" x="472.322266"/>
      <use xlink:href="#DejaVuSans-78" x="532.095703"/>
     </g>
    </g>
   </g>
   <g id="matplotlib.axis_2">
    <g id="ytick_1">
     <g id="line2d_9">
      <defs>
       <path id="m83c404af94" d="M 0 0 
L -3.5 0 
" style="stroke: #000000; stroke-width: 0.8"/>
      </defs>
      <g>
       <use xlink:href="#m83c404af94" x="57.6" y="295.488" style="stroke: #000000; stroke-width: 0.8"/>
      </g>
     </g>
     <g id="text_10">
      <!-- 0 -->
      <g transform="translate(44.2375 299.287219)scale(0.1 -0.1)">
       <use xlink:href="#DejaVuSans-30"/>
      </g>
     </g>
    </g>
    <g id="ytick_2">
     <g id="line2d_10">
      <g>
       <use xlink:href="#m83c404af94" x="57.6" y="262.321051" style="stroke: #000000; stroke-width: 0.8"/>
      </g>
     </g>
     <g id="text_11">
      <!-- 25 -->
      <g transform="translate(37.875 266.12027)scale(0.1 -0.1)">
       <use xlink:href="#DejaVuSans-32"/>
       <use xlink:href="#DejaVuSans-35" x="63.623047"/>
      </g>
     </g>
    </g>
    <g id="ytick_3">
     <g id="line2d_11">
      <g>
       <use xlink:href="#m83c404af94" x="57.6" y="229.154102" style="stroke: #000000; stroke-width: 0.8"/>
      </g>
     </g>
     <g id="text_12">
      <!-- 50 -->
      <g transform="translate(37.875 232.953321)scale(0.1 -0.1)">
       <use xlink:href="#DejaVuSans-35"/>
       <use xlink:href="#DejaVuSans-30" x="63.623047"/>
      </g>
     </g>
    </g>
    <g id="ytick_4">
     <g id="line2d_12">
      <g>
       <use xlink:href="#m83c404af94" x="57.6" y="195.987153" style="stroke: #000000; stroke-width: 0.8"/>
      </g>
     </g>
     <g id="text_13">
      <!-- 75 -->
      <g transform="translate(37.875 199.786372)scale(0.1 -0.1)">
       <defs>
        <path id="DejaVuSans-37" d="M 525 4666 
L 3525 4666 
L 3525 4397 
L 1831 0 
L 1172 0 
L 2766 4134 
L 525 4134 
L 525 4666 
z
" transform="scale(0.015625)"/>
       </defs>
       <use xlink:href="#DejaVuSans-37"/>
       <use xlink:href="#DejaVuSans-35" x="63.623047"/>
      </g>
     </g>
    </g>
    <g id="ytick_5">
     <g id="line2d_13">
      <g>
       <use xlink:href="#m83c404af94" x="57.6" y="162.820205" style="stroke: #000000; stroke-width: 0.8"/>
      </g>
     </g>
     <g id="text_14">
      <!-- 100 -->
      <g transform="translate(31.5125 166.619423)scale(0.1 -0.1)">
       <use xlink:href="#DejaVuSans-31"/>
       <use xlink:href="#DejaVuSans-30" x="63.623047"/>
       <use xlink:href="#DejaVuSans-30" x="127.246094"/>
      </g>
     </g>
    </g>
    <g id="ytick_6">
     <g id="line2d_14">
      <g>
       <use xlink:href="#m83c404af94" x="57.6" y="129.653256" style="stroke: #000000; stroke-width: 0.8"/>
      </g>
     </g>
     <g id="text_15">
      <!-- 125 -->
      <g transform="translate(31.5125 133.452474)scale(0.1 -0.1)">
       <use xlink:href="#DejaVuSans-31"/>
       <use xlink:href="#DejaVuSans-32" x="63.623047"/>
       <use xlink:href="#DejaVuSans-35" x="127.246094"/>
      </g>
     </g>
    </g>
    <g id="ytick_7">
     <g id="line2d_15">
      <g>
       <use xlink:href="#m83c404af94" x="57.6" y="96.486307" style="stroke: #000000; stroke-width: 0.8"/>
      </g>
     </g>
     <g id="text_16">
      <!-- 150 -->
      <g transform="translate(31.5125 100.285526)scale(0.1 -0.1)">
       <use xlink:href="#DejaVuSans-31"/>
       <use xlink:href="#DejaVuSans-35" x="63.623047"/>
       <use xlink:href="#DejaVuSans-30" x="127.246094"/>
      </g>
     </g>
    </g>
    <g id="ytick_8">
     <g id="line2d_16">
      <g>
       <use xlink:href="#m83c404af94" x="57.6" y="63.319358" style="stroke: #000000; stroke-width: 0.8"/>
      </g>
     </g>
     <g id="text_17">
      <!-- 175 -->
      <g transform="translate(31.5125 67.118577)scale(0.1 -0.1)">
       <use xlink:href="#DejaVuSans-31"/>
       <use xlink:href="#DejaVuSans-37" x="63.623047"/>
       <use xlink:href="#DejaVuSans-35" x="127.246094"/>
      </g>
     </g>
    </g>
    <g id="text_18">
     <!-- Order Delivered Time -->
     <g transform="translate(25.432812 228.08425)rotate(-90)scale(0.1 -0.1)">
      <defs>
       <path id="DejaVuSans-44" d="M 1259 4147 
L 1259 519 
L 2022 519 
Q 2988 519 3436 956 
Q 3884 1394 3884 2338 
Q 3884 3275 3436 3711 
Q 2988 4147 2022 4147 
L 1259 4147 
z
M 628 4666 
L 1925 4666 
Q 3281 4666 3915 4102 
Q 4550 3538 4550 2338 
Q 4550 1131 3912 565 
Q 3275 0 1925 0 
L 628 0 
L 628 4666 
z
" transform="scale(0.015625)"/>
       <path id="DejaVuSans-6c" d="M 603 4863 
L 1178 4863 
L 1178 0 
L 603 0 
L 603 4863 
z
" transform="scale(0.015625)"/>
       <path id="DejaVuSans-69" d="M 603 3500 
L 1178 3500 
L 1178 0 
L 603 0 
L 603 3500 
z
M 603 4863 
L 1178 4863 
L 1178 4134 
L 603 4134 
L 603 4863 
z
" transform="scale(0.015625)"/>
       <path id="DejaVuSans-76" d="M 191 3500 
L 800 3500 
L 1894 563 
L 2988 3500 
L 3597 3500 
L 2284 0 
L 1503 0 
L 191 3500 
z
" transform="scale(0.015625)"/>
       <path id="DejaVuSans-54" d="M -19 4666 
L 3928 4666 
L 3928 4134 
L 2272 4134 
L 2272 0 
L 1638 0 
L 1638 4134 
L -19 4134 
L -19 4666 
z
" transform="scale(0.015625)"/>
       <path id="DejaVuSans-6d" d="M 3328 2828 
Q 3544 3216 3844 3400 
Q 4144 3584 4550 3584 
Q 5097 3584 5394 3201 
Q 5691 2819 5691 2113 
L 5691 0 
L 5113 0 
L 5113 2094 
Q 5113 2597 4934 2840 
Q 4756 3084 4391 3084 
Q 3944 3084 3684 2787 
Q 3425 2491 3425 1978 
L 3425 0 
L 2847 0 
L 2847 2094 
Q 2847 2600 2669 2842 
Q 2491 3084 2119 3084 
Q 1678 3084 1418 2786 
Q 1159 2488 1159 1978 
L 1159 0 
L 581 0 
L 581 3500 
L 1159 3500 
L 1159 2956 
Q 1356 3278 1631 3431 
Q 1906 3584 2284 3584 
Q 2666 3584 2933 3390 
Q 3200 3197 3328 2828 
z
" transform="scale(0.015625)"/>
      </defs>
      <use xlink:href="#DejaVuSans-4f"/>
      <use xlink:href="#DejaVuSans-72" x="78.710938"/>
      <use xlink:href="#DejaVuSans-64" x="118.074219"/>
      <use xlink:href="#DejaVuSans-65" x="181.550781"/>
      <use xlink:href="#DejaVuSans-72" x="243.074219"/>
      <use xlink:href="#DejaVuSans-20" x="284.1875"/>
      <use xlink:href="#DejaVuSans-44" x="315.974609"/>
      <use xlink:href="#DejaVuSans-65" x="392.976562"/>
      <use xlink:href="#DejaVuSans-6c" x="454.5"/>
      <use xlink:href="#DejaVuSans-69" x="482.283203"/>
      <use xlink:href="#DejaVuSans-76" x="510.066406"/>
      <use xlink:href="#DejaVuSans-65" x="569.246094"/>
      <use xlink:href="#DejaVuSans-72" x="630.769531"/>
      <use xlink:href="#DejaVuSans-65" x="669.632812"/>
      <use xlink:href="#DejaVuSans-64" x="731.15625"/>
      <use xlink:href="#DejaVuSans-20" x="794.632812"/>
      <use xlink:href="#DejaVuSans-54" x="826.419922"/>
      <use xlink:href="#DejaVuSans-69" x="884.378906"/>
      <use xlink:href="#DejaVuSans-6d" x="912.162109"/>
      <use xlink:href="#DejaVuSans-65" x="1009.574219"/>
     </g>
    </g>
   </g>
   <g id="line2d_17">
    <path d="M 73.832727 295.488 
L 78.341818 295.488 
L 79.243636 294.161322 
L 81.047273 294.161322 
L 81.949091 292.834644 
L 85.556364 292.834644 
L 87.36 290.181288 
L 88.261818 290.181288 
L 89.163636 288.85461 
L 94.574545 288.85461 
L 95.476364 287.527932 
L 97.28 287.527932 
L 98.181818 286.201254 
L 100.887273 286.201254 
L 101.789091 284.874576 
L 103.592727 284.874576 
L 105.396364 282.22122 
L 108.101818 282.22122 
L 109.003636 280.894542 
L 110.807273 280.894542 
L 111.709091 279.567865 
L 113.512727 279.567865 
L 114.414545 278.241187 
L 117.12 278.241187 
L 118.021818 276.914509 
L 122.530909 276.914509 
L 123.432727 275.587831 
L 126.138182 275.587831 
L 127.04 274.261153 
L 131.549091 274.261153 
L 132.450909 272.934475 
L 136.058182 272.934475 
L 136.96 271.607797 
L 138.763636 271.607797 
L 139.665455 270.281119 
L 142.370909 270.281119 
L 143.272727 268.954441 
L 146.88 268.954441 
L 147.781818 267.627763 
L 148.683636 267.627763 
L 149.585455 266.301085 
L 151.389091 266.301085 
L 152.290909 264.974407 
L 153.192727 264.974407 
L 154.094545 263.647729 
L 155.898182 263.647729 
L 156.8 262.321051 
L 157.701818 262.321051 
L 158.603636 260.994373 
L 161.309091 260.994373 
L 162.210909 259.667695 
L 165.818182 259.667695 
L 166.72 258.341017 
L 168.523636 258.341017 
L 169.425455 257.014339 
L 170.327273 257.014339 
L 171.229091 255.687661 
L 173.934545 255.687661 
L 174.836364 254.360983 
L 177.541818 254.360983 
L 178.443636 253.034305 
L 182.050909 253.034305 
L 182.952727 251.707627 
L 187.461818 251.707627 
L 189.265455 249.054272 
L 194.676364 249.054272 
L 195.578182 247.727594 
L 198.283636 247.727594 
L 199.185455 246.400916 
L 200.087273 246.400916 
L 200.989091 245.074238 
L 202.792727 245.074238 
L 203.694545 243.74756 
L 210.909091 243.74756 
L 211.810909 242.420882 
L 213.614545 242.420882 
L 215.418182 239.767526 
L 217.221818 239.767526 
L 218.123636 238.440848 
L 225.338182 238.440848 
L 226.24 237.11417 
L 227.141818 237.11417 
L 228.043636 235.787492 
L 231.650909 235.787492 
L 232.552727 234.460814 
L 233.454545 234.460814 
L 234.356364 233.134136 
L 236.16 233.134136 
L 237.061818 231.807458 
L 241.570909 231.807458 
L 242.472727 230.48078 
L 244.276364 230.48078 
L 245.178182 229.154102 
L 248.785455 229.154102 
L 249.687273 227.827424 
L 253.294545 227.827424 
L 254.196364 226.500746 
L 257.803636 226.500746 
L 259.607273 223.84739 
L 261.410909 223.84739 
L 262.312727 222.520712 
L 265.018182 222.520712 
L 265.92 221.194035 
L 268.625455 221.194035 
L 269.527273 219.867357 
L 271.330909 219.867357 
L 272.232727 218.540679 
L 274.036364 218.540679 
L 274.938182 217.214001 
L 276.741818 217.214001 
L 277.643636 215.887323 
L 279.447273 215.887323 
L 280.349091 214.560645 
L 282.152727 214.560645 
L 283.054545 213.233967 
L 284.858182 213.233967 
L 285.76 211.907289 
L 287.563636 211.907289 
L 288.465455 210.580611 
L 290.269091 210.580611 
L 291.170909 209.253933 
L 292.072727 209.253933 
L 292.974545 207.927255 
L 295.68 207.927255 
L 296.581818 206.600577 
L 299.287273 206.600577 
L 300.189091 205.273899 
L 301.090909 205.273899 
L 302.894545 202.620543 
L 305.6 202.620543 
L 306.501818 201.293865 
L 308.305455 201.293865 
L 309.207273 199.967187 
L 316.421818 199.967187 
L 317.323636 198.640509 
L 319.127273 198.640509 
L 320.029091 197.313831 
L 321.832727 197.313831 
L 322.734545 195.987153 
L 327.243636 195.987153 
L 328.145455 194.660475 
L 330.850909 194.660475 
L 331.752727 193.333797 
L 332.654545 193.333797 
L 333.556364 192.00712 
L 336.261818 192.00712 
L 337.163636 190.680442 
L 338.967273 190.680442 
L 339.869091 189.353764 
L 341.672727 189.353764 
L 342.574545 188.027086 
L 343.476364 185.37373 
L 344.378182 184.047052 
L 345.28 184.047052 
L 346.181818 182.720374 
L 348.887273 182.720374 
L 349.789091 181.393696 
L 350.690909 181.393696 
L 351.592727 180.067018 
L 353.396364 180.067018 
L 354.298182 178.74034 
L 356.101818 178.74034 
L 357.003636 177.413662 
L 361.512727 177.413662 
L 362.414545 176.086984 
L 366.021818 176.086984 
L 367.825455 173.433628 
L 369.629091 173.433628 
L 370.530909 172.10695 
L 375.04 172.10695 
L 375.941818 170.780272 
L 378.647273 170.780272 
L 379.549091 169.453594 
L 384.96 169.453594 
L 385.861818 168.126916 
L 389.469091 168.126916 
L 390.370909 166.800238 
L 392.174545 166.800238 
L 393.978182 164.146882 
L 398.487273 164.146882 
L 398.487273 164.146882 
" clip-path="url(#p3ac5bac83f)" style="fill: none; stroke: #32cd32; stroke-linecap: square"/>
   </g>
   <g id="line2d_18">
    <path d="M 73.832727 239.498289 
L 74.734545 253.991078 
L 75.636364 222.107733 
L 76.538182 251.707627 
L 77.44 257.014339 
L 78.341818 240.462168 
L 79.243636 245.622112 
L 80.145455 226.335199 
L 81.047273 245.134604 
L 81.949091 269.967933 
L 82.850909 249.463146 
L 83.752727 253.034305 
L 84.654545 248.008459 
L 85.556364 221.041182 
L 86.458182 238.202899 
L 87.36 218.676928 
L 88.261818 245.818386 
L 89.163636 248.703581 
L 90.065455 213.981286 
L 90.967273 220.863509 
L 91.869091 223.208092 
L 92.770909 217.692456 
L 93.672727 241.062634 
L 94.574545 246.361929 
L 95.476364 237.814384 
L 96.378182 248.31104 
L 97.28 215.955402 
L 98.181818 239.967279 
L 99.083636 235.329476 
L 99.985455 246.984362 
L 100.887273 250.325767 
L 101.789091 201.946731 
L 102.690909 257.830028 
L 103.592727 219.285806 
L 104.494545 235.008688 
L 105.396364 247.970835 
L 106.298182 222.037201 
L 107.2 254.585256 
L 108.101818 224.053808 
L 109.003636 199.278889 
L 109.905455 233.008071 
L 110.807273 233.773217 
L 111.709091 209.23648 
L 112.610909 230.210664 
L 113.512727 240.672558 
L 114.414545 199.461661 
L 115.316364 218.224938 
L 116.218182 248.682656 
L 117.12 210.249818 
L 118.021818 233.299829 
L 118.923636 209.509379 
L 119.825455 238.440848 
L 120.727273 188.521798 
L 121.629091 222.323072 
L 122.530909 235.036947 
L 123.432727 235.491612 
L 124.334545 206.58077 
L 125.236364 212.683939 
L 126.138182 217.008685 
L 127.04 222.883826 
L 127.941818 205.124027 
L 128.843636 192.149537 
L 129.745455 219.841853 
L 130.647273 192.474621 
L 131.549091 205.112811 
L 132.450909 206.072448 
L 133.352727 215.434045 
L 134.254545 186.477088 
L 135.156364 224.324181 
L 136.058182 163.48784 
L 136.96 181.093525 
L 137.861818 206.628579 
L 138.763636 208.315588 
L 139.665455 215.131047 
L 140.567273 218.937586 
L 141.469091 209.542008 
L 142.370909 223.407865 
L 143.272727 181.3126 
L 144.174545 196.491134 
L 145.076364 200.449909 
L 145.978182 203.071423 
L 146.88 202.84568 
L 147.781818 165.8255 
L 148.683636 215.933454 
L 149.585455 178.589079 
L 150.487273 158.106525 
L 151.389091 168.186297 
L 152.290909 164.211471 
L 153.192727 172.72934 
L 154.094545 178.949758 
L 154.996364 188.447923 
L 155.898182 159.884352 
L 156.8 169.928398 
L 158.603636 209.222749 
L 159.505455 160.518237 
L 160.407273 135.736286 
L 161.309091 138.952444 
L 162.210909 194.329661 
L 163.112727 224.239159 
L 164.014545 186.211234 
L 164.916364 118.320427 
L 165.818182 149.471402 
L 166.72 205.522096 
L 167.621818 180.006745 
L 168.523636 185.04309 
L 169.425455 165.203819 
L 170.327273 224.882804 
L 171.229091 222.520712 
L 172.130909 194.468342 
L 173.032727 191.846604 
L 173.934545 176.87343 
L 174.836364 217.214001 
L 175.738182 215.327193 
L 176.64 219.628104 
L 177.541818 161.947936 
L 179.345455 221.267968 
L 180.247273 201.411269 
L 181.149091 201.928732 
L 182.050909 157.101158 
L 182.952727 159.57655 
L 183.854545 185.35966 
L 184.756364 177.933878 
L 185.658182 189.590426 
L 186.56 199.175495 
L 187.461818 198.407746 
L 188.363636 166.304662 
L 189.265455 189.165402 
L 190.167273 179.019227 
L 191.069091 165.878973 
L 191.970909 196.413822 
L 192.872727 170.24004 
L 193.774545 176.544866 
L 194.676364 217.818961 
L 195.578182 158.572802 
L 196.48 215.596058 
L 197.381818 200.509453 
L 198.283636 179.879298 
L 199.185455 199.15058 
L 200.087273 186.744655 
L 200.989091 161.120975 
L 201.890909 170.634856 
L 202.792727 138.489077 
L 203.694545 151.334512 
L 204.596364 180.531311 
L 205.498182 193.075325 
L 206.4 173.068369 
L 207.301818 194.034011 
L 208.203636 187.636129 
L 209.105455 183.150585 
L 210.007273 193.565403 
L 210.909091 189.353764 
L 211.810909 195.530835 
L 212.712727 188.541177 
L 213.614545 162.820205 
L 214.516364 218.227492 
L 215.418182 192.51719 
L 217.221818 160.240598 
L 218.123636 177.39227 
L 219.025455 161.989128 
L 219.927273 175.917122 
L 220.829091 177.221529 
L 221.730909 195.870396 
L 222.632727 204.25192 
L 223.534545 181.181088 
L 224.436364 170.614724 
L 225.338182 178.104196 
L 226.24 160.771688 
L 227.141818 179.239271 
L 228.043636 147.66009 
L 228.945455 203.394676 
L 229.847273 173.839002 
L 230.749091 157.740071 
L 231.650909 189.188444 
L 232.552727 196.129846 
L 233.454545 174.058925 
L 234.356364 197.705599 
L 235.258182 175.035777 
L 236.16 173.323225 
L 237.061818 190.850641 
L 237.963636 174.359724 
L 238.865455 174.513257 
L 239.767273 202.340478 
L 240.669091 174.760306 
L 241.570909 195.284062 
L 242.472727 158.572789 
L 243.374545 184.969088 
L 244.276364 152.611939 
L 245.178182 149.819403 
L 246.08 161.419879 
L 246.981818 179.280372 
L 247.883636 155.708054 
L 248.785455 163.430699 
L 249.687273 152.746382 
L 250.589091 150.741433 
L 251.490909 173.331727 
L 252.392727 199.967187 
L 253.294545 191.951937 
L 254.196364 168.865975 
L 255.098182 157.352404 
L 256 186.524297 
L 256.901818 169.596011 
L 257.803636 175.628968 
L 258.705455 172.10695 
L 259.607273 142.795567 
L 260.509091 181.306668 
L 261.410909 184.047052 
L 262.312727 187.966906 
L 263.214545 140.085579 
L 264.116364 144.277799 
L 265.018182 168.101413 
L 265.92 154.355724 
L 266.821818 187.442941 
L 267.723636 145.321261 
L 268.625455 194.660475 
L 269.527273 161.854638 
L 270.429091 137.137963 
L 271.330909 158.308654 
L 272.232727 160.350276 
L 273.134545 148.209294 
L 274.036364 189.740883 
L 274.938182 134.331798 
L 275.84 143.636631 
L 276.741818 141.002547 
L 277.643636 146.362273 
L 278.545455 132.770491 
L 279.447273 157.174691 
L 280.349091 135.181698 
L 281.250909 156.6702 
L 283.054545 142.36749 
L 283.956364 177.358479 
L 284.858182 174.207761 
L 285.76 179.775753 
L 286.661818 162.108187 
L 287.563636 132.733627 
L 288.465455 172.201956 
L 289.367273 154.590899 
L 290.269091 156.442896 
L 291.170909 148.911056 
L 292.072727 165.690002 
L 292.974545 146.878677 
L 293.876364 154.438283 
L 294.778182 142.203852 
L 295.68 127.959186 
L 296.581818 155.165633 
L 297.483636 150.882235 
L 298.385455 164.706926 
L 299.287273 120.968851 
L 300.189091 156.156679 
L 301.090909 155.062695 
L 301.992727 173.351032 
L 302.894545 174.760306 
L 303.796364 133.945616 
L 304.698182 158.10074 
L 305.6 144.985772 
L 306.501818 166.560985 
L 307.403636 138.200191 
L 308.305455 143.869577 
L 309.207273 167.551163 
L 310.109091 119.234606 
L 311.010909 154.13148 
L 311.912727 152.018593 
L 312.814545 171.572134 
L 313.716364 161.211381 
L 314.618182 120.20458 
L 315.52 125.289283 
L 316.421818 128.462827 
L 317.323636 146.789704 
L 318.225455 145.151537 
L 319.127273 153.255689 
L 320.029091 116.199298 
L 320.930909 168.032632 
L 321.832727 115.271863 
L 322.734545 92.6491 
L 323.636364 141.439997 
L 324.538182 120.683286 
L 325.44 124.075117 
L 327.243636 161.736768 
L 328.145455 151.590872 
L 329.047273 137.236187 
L 329.949091 119.02404 
L 330.850909 151.858294 
L 331.752727 120.519365 
L 332.654545 111.218207 
L 333.556364 123.433958 
L 334.458182 98.691251 
L 335.36 145.974425 
L 336.261818 111.072256 
L 337.163636 116.14433 
L 338.065455 146.425702 
L 338.967273 164.146882 
L 340.770909 147.573461 
L 341.672727 137.146875 
L 342.574545 143.745866 
L 343.476364 144.750188 
L 344.378182 112.25359 
L 345.28 130.585186 
L 346.181818 139.946693 
L 347.083636 123.241596 
L 347.985455 139.199375 
L 348.887273 128.09772 
L 349.789091 143.793435 
L 350.690909 104.926617 
L 351.592727 99.27589 
L 352.494545 143.543621 
L 353.396364 91.265955 
L 354.298182 101.423977 
L 355.2 150.449523 
L 356.101818 125.617396 
L 357.003636 129.907113 
L 357.905455 133.158923 
L 358.807273 115.224905 
L 359.709091 141.593357 
L 360.610909 138.657856 
L 361.512727 148.613866 
L 362.414545 112.386346 
L 363.316364 138.387562 
L 364.218182 90.455258 
L 365.12 129.323634 
L 366.021818 85.029591 
L 366.923636 101.388698 
L 367.825455 127.774032 
L 369.629091 96.347637 
L 370.530909 113.527804 
L 371.432727 87.583028 
L 372.334545 99.189436 
L 373.236364 96.66031 
L 374.138182 122.187486 
L 375.04 106.230163 
L 375.941818 92.879255 
L 376.843636 101.507003 
L 377.745455 121.066724 
L 378.647273 130.607475 
L 379.549091 94.853092 
L 380.450909 127.554434 
L 381.352727 133.578107 
L 382.254545 108.909794 
L 383.156364 92.367603 
L 384.058182 114.83094 
L 384.96 109.730981 
L 385.861818 130.181976 
L 386.763636 144.031423 
L 387.665455 117.33578 
L 388.567273 108.465741 
L 389.469091 122.8806 
L 390.370909 145.573391 
L 391.272727 91.607671 
L 392.174545 91.667712 
L 393.076364 140.266679 
L 393.978182 130.143933 
L 394.88 135.856065 
L 395.781818 103.791928 
L 396.683636 113.189978 
L 397.585455 116.896546 
L 398.487273 76.677245 
L 398.487273 76.677245 
" clip-path="url(#p3ac5bac83f)" style="fill: none; stroke-dasharray: 3.7,1.6; stroke-dashoffset: 0; stroke: #4169e1"/>
   </g>
   <g id="line2d_19">
    <path d="M 73.832727 239.498289 
L 74.734545 253.991078 
L 75.636364 222.107733 
L 76.538182 251.707627 
L 77.44 257.014339 
L 78.341818 240.462168 
L 79.243636 245.622112 
L 80.145455 226.335199 
L 81.047273 245.134604 
L 81.949091 269.967933 
L 82.850909 249.463146 
L 83.752727 253.034305 
L 84.654545 248.008459 
L 85.556364 221.041182 
L 86.458182 238.202899 
L 87.36 218.676928 
L 88.261818 245.818386 
L 89.163636 248.703581 
L 90.065455 213.981286 
L 90.967273 220.863509 
L 91.869091 223.208092 
L 92.770909 217.692456 
L 93.672727 241.062634 
L 94.574545 246.361929 
L 95.476364 237.814384 
L 96.378182 248.31104 
L 97.28 215.955402 
L 98.181818 239.967279 
L 99.083636 235.329476 
L 99.985455 246.984362 
L 100.887273 250.325767 
L 101.789091 201.946731 
L 102.690909 257.830028 
L 103.592727 219.285806 
L 104.494545 235.008688 
L 105.396364 247.970835 
L 106.298182 222.037201 
L 107.2 254.585256 
L 108.101818 224.053808 
L 109.003636 199.278889 
L 109.905455 233.008071 
L 110.807273 233.773217 
L 111.709091 209.23648 
L 112.610909 230.210664 
L 113.512727 240.672558 
L 114.414545 207.333798 
L 115.316364 218.963034 
L 116.218182 248.682656 
L 117.12 213.058718 
L 118.021818 233.582681 
L 118.923636 210.11591 
L 119.825455 238.440848 
L 120.727273 192.498508 
L 121.629091 222.323072 
L 122.530909 245.679198 
L 123.432727 235.491612 
L 124.334545 207.533999 
L 125.236364 222.769377 
L 126.138182 217.008685 
L 127.04 222.883826 
L 127.941818 206.520787 
L 128.843636 202.820297 
L 129.745455 219.841853 
L 130.647273 192.474621 
L 131.549091 205.112811 
L 132.450909 213.117297 
L 133.352727 224.462318 
L 134.254545 194.553079 
L 135.156364 228.7117 
L 136.058182 180.277021 
L 136.96 187.672951 
L 137.861818 211.119087 
L 138.763636 211.335589 
L 139.665455 216.225021 
L 140.567273 219.698195 
L 141.469091 233.821892 
L 142.370909 223.715053 
L 143.272727 183.465502 
L 144.174545 206.27353 
L 145.076364 202.910561 
L 145.978182 210.182037 
L 146.88 208.704937 
L 147.781818 196.74178 
L 148.683636 232.894883 
L 149.585455 195.76924 
L 150.487273 186.890425 
L 151.389091 198.769667 
L 152.290909 195.915493 
L 153.192727 203.521464 
L 154.094545 212.775951 
L 154.996364 225.702789 
L 155.898182 195.165055 
L 156.8 194.217439 
L 158.603636 224.981595 
L 159.505455 173.148873 
L 160.407273 155.163812 
L 161.309091 160.291614 
L 162.210909 172.016458 
L 163.112727 210.315544 
L 164.014545 214.145119 
L 164.916364 171.808456 
L 165.818182 197.127675 
L 166.72 202.484281 
L 167.621818 149.966696 
L 168.523636 179.183833 
L 169.425455 146.813755 
L 170.327273 224.882804 
L 172.130909 157.692804 
L 173.032727 169.793533 
L 173.934545 158.483366 
L 175.738182 215.327193 
L 176.64 219.628104 
L 177.541818 181.626375 
L 178.443636 166.785504 
L 179.345455 214.337736 
L 180.247273 195.656445 
L 181.149091 202.656449 
L 182.050909 157.101158 
L 182.952727 123.637434 
L 183.854545 185.35966 
L 184.756364 172.074621 
L 186.56 189.410244 
L 187.461818 178.053412 
L 188.363636 139.544227 
L 189.265455 165.557666 
L 190.167273 161.632554 
L 191.069091 153.858593 
L 191.970909 194.267573 
L 192.872727 127.560936 
L 193.774545 152.167165 
L 194.676364 199.428897 
L 195.578182 152.953811 
L 196.48 162.108029 
L 197.381818 158.466405 
L 198.283636 167.385025 
L 199.185455 199.15058 
L 200.087273 186.744655 
L 200.989091 166.739966 
L 201.890909 170.634856 
L 202.792727 156.879141 
L 203.694545 171.012951 
L 204.596364 198.921375 
L 205.498182 193.075325 
L 206.4 159.144755 
L 207.301818 194.034011 
L 208.203636 187.636129 
L 209.105455 183.150585 
L 210.007273 163.402153 
L 210.909091 172.012308 
L 211.810909 209.45445 
L 212.712727 168.862739 
L 213.614545 156.960947 
L 214.516364 204.303878 
L 215.418182 172.838751 
L 216.32 195.082967 
L 217.221818 160.240598 
L 218.123636 171.773279 
L 219.025455 161.989128 
L 219.927273 175.917122 
L 220.829091 177.221529 
L 221.730909 195.870396 
L 222.632727 204.25192 
L 223.534545 163.090982 
L 225.338182 178.104196 
L 226.24 154.912431 
L 227.141818 185.098528 
L 228.043636 135.429241 
L 228.945455 203.394676 
L 229.847273 179.457993 
L 230.749091 138.061632 
L 231.650909 182.258212 
L 232.552727 169.976897 
L 233.454545 174.058925 
L 234.356364 197.705599 
L 235.258182 169.416787 
L 236.16 173.323225 
L 237.061818 208.940747 
L 237.963636 156.269619 
L 238.865455 162.282408 
L 239.767273 202.340478 
L 240.669091 174.760306 
L 241.570909 195.284062 
L 242.472727 146.041982 
L 243.374545 204.647527 
L 244.276364 153.900313 
L 245.178182 169.497841 
L 246.08 155.560622 
L 246.981818 184.899363 
L 247.883636 137.617948 
L 248.785455 157.571442 
L 249.687273 152.746382 
L 250.589091 150.741433 
L 251.490909 173.331727 
L 252.392727 199.967187 
L 253.294545 186.09268 
L 254.196364 149.187536 
L 255.098182 151.733414 
L 256 186.524297 
L 256.901818 133.94971 
L 257.803636 175.628968 
L 258.705455 172.10695 
L 259.607273 130.564718 
L 260.509091 173.24231 
L 261.410909 178.187795 
L 262.312727 187.966906 
L 263.214545 145.944836 
L 264.116364 150.137056 
L 265.018182 168.101413 
L 265.92 159.974715 
L 266.821818 187.442941 
L 267.723636 145.321261 
L 268.625455 194.660475 
L 269.527273 174.385445 
L 270.429091 137.137963 
L 271.330909 158.308654 
L 272.232727 160.350276 
L 273.134545 148.209294 
L 274.036364 189.740883 
L 274.938182 146.802913 
L 275.84 125.246567 
L 276.741818 146.621538 
L 277.643636 158.593121 
L 278.545455 145.241606 
L 279.447273 162.793682 
L 280.349091 136.770031 
L 281.250909 160.836692 
L 282.152727 163.575417 
L 283.054545 148.226747 
L 283.956364 177.358479 
L 284.858182 180.067018 
L 285.76 179.775753 
L 286.661818 176.031801 
L 287.563636 138.592884 
L 288.465455 158.278341 
L 289.367273 154.590899 
L 290.269091 132.382154 
L 291.170909 154.530047 
L 292.072727 171.308993 
L 292.974545 146.878677 
L 293.876364 154.438283 
L 294.778182 142.203852 
L 295.68 109.869081 
L 296.581818 149.546642 
L 297.483636 170.560674 
L 298.385455 178.630541 
L 299.287273 140.64729 
L 300.189091 143.290319 
L 301.090909 155.062695 
L 301.992727 173.351032 
L 302.894545 174.760306 
L 303.796364 153.624055 
L 304.698182 158.10074 
L 305.6 144.985772 
L 306.501818 166.560985 
L 307.403636 138.200191 
L 308.305455 143.869577 
L 309.207273 167.551163 
L 310.109091 125.093863 
L 311.010909 159.990737 
L 311.912727 152.018593 
L 312.814545 171.572134 
L 313.716364 161.211381 
L 314.618182 114.345323 
L 315.52 130.908274 
L 316.421818 128.462827 
L 317.323636 146.789704 
L 318.225455 145.151537 
L 319.127273 153.255689 
L 320.029091 98.109192 
L 320.930909 168.032632 
L 321.832727 115.271863 
L 322.734545 105.179907 
L 323.636364 155.363612 
L 324.538182 120.683286 
L 325.44 104.396678 
L 326.341818 143.646662 
L 327.243636 161.736768 
L 328.145455 151.590872 
L 329.047273 137.236187 
L 329.949091 100.933935 
L 330.850909 151.858294 
L 331.752727 126.378622 
L 332.654545 125.141822 
L 333.556364 117.574701 
L 334.458182 104.550508 
L 335.36 145.974425 
L 336.261818 106.905765 
L 337.163636 116.14433 
L 338.967273 164.146882 
L 339.869091 161.493527 
L 340.770909 147.573461 
L 341.672727 131.287618 
L 342.574545 129.686418 
L 343.476364 144.750188 
L 344.378182 112.25359 
L 345.28 148.675292 
L 346.181818 158.036799 
L 347.083636 123.241596 
L 347.985455 139.199375 
L 348.887273 128.09772 
L 349.789091 137.934178 
L 350.690909 53.568 
L 351.592727 118.954329 
L 352.494545 143.543621 
L 353.396364 97.125212 
L 354.298182 101.423977 
L 355.2 150.449523 
L 356.101818 144.00746 
L 357.003636 111.517049 
L 357.905455 115.068817 
L 358.807273 121.084163 
L 359.709091 141.593357 
L 360.610909 138.657856 
L 361.512727 148.613866 
L 362.414545 94.29624 
L 363.316364 138.387562 
L 364.218182 110.133697 
L 365.12 115.400019 
L 366.021818 85.029591 
L 367.825455 127.774032 
L 369.629091 96.347637 
L 370.530909 113.527804 
L 371.432727 87.583028 
L 372.334545 99.189436 
L 373.236364 96.66031 
L 374.138182 108.263871 
L 375.04 106.230163 
L 375.941818 110.969361 
L 376.843636 101.507003 
L 377.745455 121.066724 
L 378.647273 130.607475 
L 379.549091 94.853092 
L 380.450909 133.413691 
L 381.352727 133.578107 
L 382.254545 126.9999 
L 383.156364 72.689164 
L 384.058182 114.83094 
L 384.96 91.640875 
L 385.861818 130.181976 
L 386.763636 144.031423 
L 387.665455 123.195037 
L 388.567273 114.324998 
L 389.469091 122.8806 
L 390.370909 127.483285 
L 391.272727 91.607671 
L 392.174545 97.526969 
L 393.076364 121.876615 
L 393.978182 130.143933 
L 394.88 135.856065 
L 395.781818 103.791928 
L 396.683636 107.570988 
L 397.585455 116.896546 
L 398.487273 58.587139 
L 398.487273 58.587139 
" clip-path="url(#p3ac5bac83f)" style="fill: none; stroke-dasharray: 1,1.65; stroke-dashoffset: 0; stroke: #ffa500"/>
   </g>
   <g id="line2d_20">
    <path d="M 73.832727 233.91741 
L 398.487273 108.440893 
L 398.487273 108.440893 
" clip-path="url(#p3ac5bac83f)" style="fill: none; stroke-dasharray: 1.85,0.8; stroke-dashoffset: 0; stroke: #191970; stroke-width: 0.5"/>
   </g>
   <g id="line2d_21">
    <path d="M 73.832727 235.43603 
L 398.487273 106.38719 
L 398.487273 106.38719 
" clip-path="url(#p3ac5bac83f)" style="fill: none; stroke-dasharray: 0.5,0.825; stroke-dashoffset: 0; stroke: #ff0000; stroke-width: 0.5"/>
   </g>
   <g id="patch_3">
    <path d="M 57.6 307.584 
L 57.6 41.472 
" style="fill: none; stroke: #000000; stroke-width: 0.8; stroke-linejoin: miter; stroke-linecap: square"/>
   </g>
   <g id="patch_4">
    <path d="M 414.72 307.584 
L 414.72 41.472 
" style="fill: none; stroke: #000000; stroke-width: 0.8; stroke-linejoin: miter; stroke-linecap: square"/>
   </g>
   <g id="patch_5">
    <path d="M 57.6 307.584 
L 414.72 307.584 
" style="fill: none; stroke: #000000; stroke-width: 0.8; stroke-linejoin: miter; stroke-linecap: square"/>
   </g>
   <g id="patch_6">
    <path d="M 57.6 41.472 
L 414.72 41.472 
" style="fill: none; stroke: #000000; stroke-width: 0.8; stroke-linejoin: miter; stroke-linecap: square"/>
   </g>
   <g id="text_19">
    <!-- numRider100 -->
    <g transform="translate(195.454688 22.034625)scale(0.12 -0.12)">
     <defs>
      <path id="DejaVuSans-75" d="M 544 1381 
L 544 3500 
L 1119 3500 
L 1119 1403 
Q 1119 906 1312 657 
Q 1506 409 1894 409 
Q 2359 409 2629 706 
Q 2900 1003 2900 1516 
L 2900 3500 
L 3475 3500 
L 3475 0 
L 2900 0 
L 2900 538 
Q 2691 219 2414 64 
Q 2138 -91 1772 -91 
Q 1169 -91 856 284 
Q 544 659 544 1381 
z
M 1991 3584 
L 1991 3584 
z
" transform="scale(0.015625)"/>
      <path id="DejaVuSans-52" d="M 2841 2188 
Q 3044 2119 3236 1894 
Q 3428 1669 3622 1275 
L 4263 0 
L 3584 0 
L 2988 1197 
Q 2756 1666 2539 1819 
Q 2322 1972 1947 1972 
L 1259 1972 
L 1259 0 
L 628 0 
L 628 4666 
L 2053 4666 
Q 2853 4666 3247 4331 
Q 3641 3997 3641 3322 
Q 3641 2881 3436 2590 
Q 3231 2300 2841 2188 
z
M 1259 4147 
L 1259 2491 
L 2053 2491 
Q 2509 2491 2742 2702 
Q 2975 2913 2975 3322 
Q 2975 3731 2742 3939 
Q 2509 4147 2053 4147 
L 1259 4147 
z
" transform="scale(0.015625)"/>
     </defs>
     <use xlink:href="#DejaVuSans-6e"/>
     <use xlink:href="#DejaVuSans-75" x="63.378906"/>
     <use xlink:href="#DejaVuSans-6d" x="126.757812"/>
     <use xlink:href="#DejaVuSans-52" x="224.169922"/>
     <use xlink:href="#DejaVuSans-69" x="293.652344"/>
     <use xlink:href="#DejaVuSans-64" x="321.435547"/>
     <use xlink:href="#DejaVuSans-65" x="384.912109"/>
     <use xlink:href="#DejaVuSans-72" x="446.435547"/>
     <use xlink:href="#DejaVuSans-31" x="487.548828"/>
     <use xlink:href="#DejaVuSans-30" x="551.171875"/>
     <use xlink:href="#DejaVuSans-30" x="614.794922"/>
    </g>
    <!--  grid50 -->
    <g transform="translate(214.866562 35.472)scale(0.12 -0.12)">
     <defs>
      <path id="DejaVuSans-67" d="M 2906 1791 
Q 2906 2416 2648 2759 
Q 2391 3103 1925 3103 
Q 1463 3103 1205 2759 
Q 947 2416 947 1791 
Q 947 1169 1205 825 
Q 1463 481 1925 481 
Q 2391 481 2648 825 
Q 2906 1169 2906 1791 
z
M 3481 434 
Q 3481 -459 3084 -895 
Q 2688 -1331 1869 -1331 
Q 1566 -1331 1297 -1286 
Q 1028 -1241 775 -1147 
L 775 -588 
Q 1028 -725 1275 -790 
Q 1522 -856 1778 -856 
Q 2344 -856 2625 -561 
Q 2906 -266 2906 331 
L 2906 616 
Q 2728 306 2450 153 
Q 2172 0 1784 0 
Q 1141 0 747 490 
Q 353 981 353 1791 
Q 353 2603 747 3093 
Q 1141 3584 1784 3584 
Q 2172 3584 2450 3431 
Q 2728 3278 2906 2969 
L 2906 3500 
L 3481 3500 
L 3481 434 
z
" transform="scale(0.015625)"/>
     </defs>
     <use xlink:href="#DejaVuSans-20"/>
     <use xlink:href="#DejaVuSans-67" x="31.787109"/>
     <use xlink:href="#DejaVuSans-72" x="95.263672"/>
     <use xlink:href="#DejaVuSans-69" x="136.376953"/>
     <use xlink:href="#DejaVuSans-64" x="164.160156"/>
     <use xlink:href="#DejaVuSans-35" x="227.636719"/>
     <use xlink:href="#DejaVuSans-30" x="291.259766"/>
    </g>
   </g>
   <g id="legend_1">
    <g id="patch_7">
     <path d="M 64.6 122.862625 
L 241.8625 122.862625 
Q 243.8625 122.862625 243.8625 120.862625 
L 243.8625 48.472 
Q 243.8625 46.472 241.8625 46.472 
L 64.6 46.472 
Q 62.6 46.472 62.6 48.472 
L 62.6 120.862625 
Q 62.6 122.862625 64.6 122.862625 
z
" style="fill: #ffffff; opacity: 0.8; stroke: #cccccc; stroke-linejoin: miter"/>
    </g>
    <g id="line2d_22">
     <path d="M 66.6 54.570438 
L 76.6 54.570438 
L 86.6 54.570438 
" style="fill: none; stroke: #32cd32; stroke-linecap: square"/>
    </g>
    <g id="text_20">
     <!-- Time In -->
     <g transform="translate(94.6 58.070438)scale(0.1 -0.1)">
      <use xlink:href="#DejaVuSans-54"/>
      <use xlink:href="#DejaVuSans-69" x="57.958984"/>
      <use xlink:href="#DejaVuSans-6d" x="85.742188"/>
      <use xlink:href="#DejaVuSans-65" x="183.154297"/>
      <use xlink:href="#DejaVuSans-20" x="244.677734"/>
      <use xlink:href="#DejaVuSans-49" x="276.464844"/>
      <use xlink:href="#DejaVuSans-6e" x="305.957031"/>
     </g>
    </g>
    <g id="line2d_23">
     <path d="M 66.6 69.248563 
L 76.6 69.248563 
L 86.6 69.248563 
" style="fill: none; stroke-dasharray: 3.7,1.6; stroke-dashoffset: 0; stroke: #4169e1"/>
    </g>
    <g id="text_21">
     <!-- Time Delivered - Default -->
     <g transform="translate(94.6 72.748563)scale(0.1 -0.1)">
      <defs>
       <path id="DejaVuSans-2d" d="M 313 2009 
L 1997 2009 
L 1997 1497 
L 313 1497 
L 313 2009 
z
" transform="scale(0.015625)"/>
       <path id="DejaVuSans-66" d="M 2375 4863 
L 2375 4384 
L 1825 4384 
Q 1516 4384 1395 4259 
Q 1275 4134 1275 3809 
L 1275 3500 
L 2222 3500 
L 2222 3053 
L 1275 3053 
L 1275 0 
L 697 0 
L 697 3053 
L 147 3053 
L 147 3500 
L 697 3500 
L 697 3744 
Q 697 4328 969 4595 
Q 1241 4863 1831 4863 
L 2375 4863 
z
" transform="scale(0.015625)"/>
       <path id="DejaVuSans-61" d="M 2194 1759 
Q 1497 1759 1228 1600 
Q 959 1441 959 1056 
Q 959 750 1161 570 
Q 1363 391 1709 391 
Q 2188 391 2477 730 
Q 2766 1069 2766 1631 
L 2766 1759 
L 2194 1759 
z
M 3341 1997 
L 3341 0 
L 2766 0 
L 2766 531 
Q 2569 213 2275 61 
Q 1981 -91 1556 -91 
Q 1019 -91 701 211 
Q 384 513 384 1019 
Q 384 1609 779 1909 
Q 1175 2209 1959 2209 
L 2766 2209 
L 2766 2266 
Q 2766 2663 2505 2880 
Q 2244 3097 1772 3097 
Q 1472 3097 1187 3025 
Q 903 2953 641 2809 
L 641 3341 
Q 956 3463 1253 3523 
Q 1550 3584 1831 3584 
Q 2591 3584 2966 3190 
Q 3341 2797 3341 1997 
z
" transform="scale(0.015625)"/>
       <path id="DejaVuSans-74" d="M 1172 4494 
L 1172 3500 
L 2356 3500 
L 2356 3053 
L 1172 3053 
L 1172 1153 
Q 1172 725 1289 603 
Q 1406 481 1766 481 
L 2356 481 
L 2356 0 
L 1766 0 
Q 1100 0 847 248 
Q 594 497 594 1153 
L 594 3053 
L 172 3053 
L 172 3500 
L 594 3500 
L 594 4494 
L 1172 4494 
z
" transform="scale(0.015625)"/>
      </defs>
      <use xlink:href="#DejaVuSans-54"/>
      <use xlink:href="#DejaVuSans-69" x="57.958984"/>
      <use xlink:href="#DejaVuSans-6d" x="85.742188"/>
      <use xlink:href="#DejaVuSans-65" x="183.154297"/>
      <use xlink:href="#DejaVuSans-20" x="244.677734"/>
      <use xlink:href="#DejaVuSans-44" x="276.464844"/>
      <use xlink:href="#DejaVuSans-65" x="353.466797"/>
      <use xlink:href="#DejaVuSans-6c" x="414.990234"/>
      <use xlink:href="#DejaVuSans-69" x="442.773438"/>
      <use xlink:href="#DejaVuSans-76" x="470.556641"/>
      <use xlink:href="#DejaVuSans-65" x="529.736328"/>
      <use xlink:href="#DejaVuSans-72" x="591.259766"/>
      <use xlink:href="#DejaVuSans-65" x="630.123047"/>
      <use xlink:href="#DejaVuSans-64" x="691.646484"/>
      <use xlink:href="#DejaVuSans-20" x="755.123047"/>
      <use xlink:href="#DejaVuSans-2d" x="786.910156"/>
      <use xlink:href="#DejaVuSans-20" x="822.994141"/>
      <use xlink:href="#DejaVuSans-44" x="854.78125"/>
      <use xlink:href="#DejaVuSans-65" x="931.783203"/>
      <use xlink:href="#DejaVuSans-66" x="993.306641"/>
      <use xlink:href="#DejaVuSans-61" x="1028.511719"/>
      <use xlink:href="#DejaVuSans-75" x="1089.791016"/>
      <use xlink:href="#DejaVuSans-6c" x="1153.169922"/>
      <use xlink:href="#DejaVuSans-74" x="1180.953125"/>
     </g>
    </g>
    <g id="line2d_24">
     <path d="M 66.6 83.926688 
L 76.6 83.926688 
L 86.6 83.926688 
" style="fill: none; stroke-dasharray: 1,1.65; stroke-dashoffset: 0; stroke: #ffa500"/>
    </g>
    <g id="text_22">
     <!-- Time Delivered - Anticipation -->
     <g transform="translate(94.6 87.426688)scale(0.1 -0.1)">
      <defs>
       <path id="DejaVuSans-41" d="M 2188 4044 
L 1331 1722 
L 3047 1722 
L 2188 4044 
z
M 1831 4666 
L 2547 4666 
L 4325 0 
L 3669 0 
L 3244 1197 
L 1141 1197 
L 716 0 
L 50 0 
L 1831 4666 
z
" transform="scale(0.015625)"/>
       <path id="DejaVuSans-63" d="M 3122 3366 
L 3122 2828 
Q 2878 2963 2633 3030 
Q 2388 3097 2138 3097 
Q 1578 3097 1268 2742 
Q 959 2388 959 1747 
Q 959 1106 1268 751 
Q 1578 397 2138 397 
Q 2388 397 2633 464 
Q 2878 531 3122 666 
L 3122 134 
Q 2881 22 2623 -34 
Q 2366 -91 2075 -91 
Q 1284 -91 818 406 
Q 353 903 353 1747 
Q 353 2603 823 3093 
Q 1294 3584 2113 3584 
Q 2378 3584 2631 3529 
Q 2884 3475 3122 3366 
z
" transform="scale(0.015625)"/>
       <path id="DejaVuSans-70" d="M 1159 525 
L 1159 -1331 
L 581 -1331 
L 581 3500 
L 1159 3500 
L 1159 2969 
Q 1341 3281 1617 3432 
Q 1894 3584 2278 3584 
Q 2916 3584 3314 3078 
Q 3713 2572 3713 1747 
Q 3713 922 3314 415 
Q 2916 -91 2278 -91 
Q 1894 -91 1617 61 
Q 1341 213 1159 525 
z
M 3116 1747 
Q 3116 2381 2855 2742 
Q 2594 3103 2138 3103 
Q 1681 3103 1420 2742 
Q 1159 2381 1159 1747 
Q 1159 1113 1420 752 
Q 1681 391 2138 391 
Q 2594 391 2855 752 
Q 3116 1113 3116 1747 
z
" transform="scale(0.015625)"/>
       <path id="DejaVuSans-6f" d="M 1959 3097 
Q 1497 3097 1228 2736 
Q 959 2375 959 1747 
Q 959 1119 1226 758 
Q 1494 397 1959 397 
Q 2419 397 2687 759 
Q 2956 1122 2956 1747 
Q 2956 2369 2687 2733 
Q 2419 3097 1959 3097 
z
M 1959 3584 
Q 2709 3584 3137 3096 
Q 3566 2609 3566 1747 
Q 3566 888 3137 398 
Q 2709 -91 1959 -91 
Q 1206 -91 779 398 
Q 353 888 353 1747 
Q 353 2609 779 3096 
Q 1206 3584 1959 3584 
z
" transform="scale(0.015625)"/>
      </defs>
      <use xlink:href="#DejaVuSans-54"/>
      <use xlink:href="#DejaVuSans-69" x="57.958984"/>
      <use xlink:href="#DejaVuSans-6d" x="85.742188"/>
      <use xlink:href="#DejaVuSans-65" x="183.154297"/>
      <use xlink:href="#DejaVuSans-20" x="244.677734"/>
      <use xlink:href="#DejaVuSans-44" x="276.464844"/>
      <use xlink:href="#DejaVuSans-65" x="353.466797"/>
      <use xlink:href="#DejaVuSans-6c" x="414.990234"/>
      <use xlink:href="#DejaVuSans-69" x="442.773438"/>
      <use xlink:href="#DejaVuSans-76" x="470.556641"/>
      <use xlink:href="#DejaVuSans-65" x="529.736328"/>
      <use xlink:href="#DejaVuSans-72" x="591.259766"/>
      <use xlink:href="#DejaVuSans-65" x="630.123047"/>
      <use xlink:href="#DejaVuSans-64" x="691.646484"/>
      <use xlink:href="#DejaVuSans-20" x="755.123047"/>
      <use xlink:href="#DejaVuSans-2d" x="786.910156"/>
      <use xlink:href="#DejaVuSans-20" x="822.994141"/>
      <use xlink:href="#DejaVuSans-41" x="854.78125"/>
      <use xlink:href="#DejaVuSans-6e" x="923.189453"/>
      <use xlink:href="#DejaVuSans-74" x="986.568359"/>
      <use xlink:href="#DejaVuSans-69" x="1025.777344"/>
      <use xlink:href="#DejaVuSans-63" x="1053.560547"/>
      <use xlink:href="#DejaVuSans-69" x="1108.541016"/>
      <use xlink:href="#DejaVuSans-70" x="1136.324219"/>
      <use xlink:href="#DejaVuSans-61" x="1199.800781"/>
      <use xlink:href="#DejaVuSans-74" x="1261.080078"/>
      <use xlink:href="#DejaVuSans-69" x="1300.289062"/>
      <use xlink:href="#DejaVuSans-6f" x="1328.072266"/>
      <use xlink:href="#DejaVuSans-6e" x="1389.253906"/>
     </g>
    </g>
    <g id="line2d_25">
     <path d="M 66.6 98.604813 
L 76.6 98.604813 
L 86.6 98.604813 
" style="fill: none; stroke-dasharray: 1.85,0.8; stroke-dashoffset: 0; stroke: #191970; stroke-width: 0.5"/>
    </g>
    <g id="text_23">
     <!-- best fit line for default -->
     <g transform="translate(94.6 102.104813)scale(0.1 -0.1)">
      <defs>
       <path id="DejaVuSans-62" d="M 3116 1747 
Q 3116 2381 2855 2742 
Q 2594 3103 2138 3103 
Q 1681 3103 1420 2742 
Q 1159 2381 1159 1747 
Q 1159 1113 1420 752 
Q 1681 391 2138 391 
Q 2594 391 2855 752 
Q 3116 1113 3116 1747 
z
M 1159 2969 
Q 1341 3281 1617 3432 
Q 1894 3584 2278 3584 
Q 2916 3584 3314 3078 
Q 3713 2572 3713 1747 
Q 3713 922 3314 415 
Q 2916 -91 2278 -91 
Q 1894 -91 1617 61 
Q 1341 213 1159 525 
L 1159 0 
L 581 0 
L 581 4863 
L 1159 4863 
L 1159 2969 
z
" transform="scale(0.015625)"/>
       <path id="DejaVuSans-73" d="M 2834 3397 
L 2834 2853 
Q 2591 2978 2328 3040 
Q 2066 3103 1784 3103 
Q 1356 3103 1142 2972 
Q 928 2841 928 2578 
Q 928 2378 1081 2264 
Q 1234 2150 1697 2047 
L 1894 2003 
Q 2506 1872 2764 1633 
Q 3022 1394 3022 966 
Q 3022 478 2636 193 
Q 2250 -91 1575 -91 
Q 1294 -91 989 -36 
Q 684 19 347 128 
L 347 722 
Q 666 556 975 473 
Q 1284 391 1588 391 
Q 1994 391 2212 530 
Q 2431 669 2431 922 
Q 2431 1156 2273 1281 
Q 2116 1406 1581 1522 
L 1381 1569 
Q 847 1681 609 1914 
Q 372 2147 372 2553 
Q 372 3047 722 3315 
Q 1072 3584 1716 3584 
Q 2034 3584 2315 3537 
Q 2597 3491 2834 3397 
z
" transform="scale(0.015625)"/>
      </defs>
      <use xlink:href="#DejaVuSans-62"/>
      <use xlink:href="#DejaVuSans-65" x="63.476562"/>
      <use xlink:href="#DejaVuSans-73" x="125"/>
      <use xlink:href="#DejaVuSans-74" x="177.099609"/>
      <use xlink:href="#DejaVuSans-20" x="216.308594"/>
      <use xlink:href="#DejaVuSans-66" x="248.095703"/>
      <use xlink:href="#DejaVuSans-69" x="283.300781"/>
      <use xlink:href="#DejaVuSans-74" x="311.083984"/>
      <use xlink:href="#DejaVuSans-20" x="350.292969"/>
      <use xlink:href="#DejaVuSans-6c" x="382.080078"/>
      <use xlink:href="#DejaVuSans-69" x="409.863281"/>
      <use xlink:href="#DejaVuSans-6e" x="437.646484"/>
      <use xlink:href="#DejaVuSans-65" x="501.025391"/>
      <use xlink:href="#DejaVuSans-20" x="562.548828"/>
      <use xlink:href="#DejaVuSans-66" x="594.335938"/>
      <use xlink:href="#DejaVuSans-6f" x="629.541016"/>
      <use xlink:href="#DejaVuSans-72" x="690.722656"/>
      <use xlink:href="#DejaVuSans-20" x="731.835938"/>
      <use xlink:href="#DejaVuSans-64" x="763.623047"/>
      <use xlink:href="#DejaVuSans-65" x="827.099609"/>
      <use xlink:href="#DejaVuSans-66" x="888.623047"/>
      <use xlink:href="#DejaVuSans-61" x="923.828125"/>
      <use xlink:href="#DejaVuSans-75" x="985.107422"/>
      <use xlink:href="#DejaVuSans-6c" x="1048.486328"/>
      <use xlink:href="#DejaVuSans-74" x="1076.269531"/>
     </g>
    </g>
    <g id="line2d_26">
     <path d="M 66.6 113.282938 
L 76.6 113.282938 
L 86.6 113.282938 
" style="fill: none; stroke-dasharray: 0.5,0.825; stroke-dashoffset: 0; stroke: #ff0000; stroke-width: 0.5"/>
    </g>
    <g id="text_24">
     <!-- best fit line for anticipation -->
     <g transform="translate(94.6 116.782938)scale(0.1 -0.1)">
      <use xlink:href="#DejaVuSans-62"/>
      <use xlink:href="#DejaVuSans-65" x="63.476562"/>
      <use xlink:href="#DejaVuSans-73" x="125"/>
      <use xlink:href="#DejaVuSans-74" x="177.099609"/>
      <use xlink:href="#DejaVuSans-20" x="216.308594"/>
      <use xlink:href="#DejaVuSans-66" x="248.095703"/>
      <use xlink:href="#DejaVuSans-69" x="283.300781"/>
      <use xlink:href="#DejaVuSans-74" x="311.083984"/>
      <use xlink:href="#DejaVuSans-20" x="350.292969"/>
      <use xlink:href="#DejaVuSans-6c" x="382.080078"/>
      <use xlink:href="#DejaVuSans-69" x="409.863281"/>
      <use xlink:href="#DejaVuSans-6e" x="437.646484"/>
      <use xlink:href="#DejaVuSans-65" x="501.025391"/>
      <use xlink:href="#DejaVuSans-20" x="562.548828"/>
      <use xlink:href="#DejaVuSans-66" x="594.335938"/>
      <use xlink:href="#DejaVuSans-6f" x="629.541016"/>
      <use xlink:href="#DejaVuSans-72" x="690.722656"/>
      <use xlink:href="#DejaVuSans-20" x="731.835938"/>
      <use xlink:href="#DejaVuSans-61" x="763.623047"/>
      <use xlink:href="#DejaVuSans-6e" x="824.902344"/>
      <use xlink:href="#DejaVuSans-74" x="888.28125"/>
      <use xlink:href="#DejaVuSans-69" x="927.490234"/>
      <use xlink:href="#DejaVuSans-63" x="955.273438"/>
      <use xlink:href="#DejaVuSans-69" x="1010.253906"/>
      <use xlink:href="#DejaVuSans-70" x="1038.037109"/>
      <use xlink:href="#DejaVuSans-61" x="1101.513672"/>
      <use xlink:href="#DejaVuSans-74" x="1162.792969"/>
      <use xlink:href="#DejaVuSans-69" x="1202.001953"/>
      <use xlink:href="#DejaVuSans-6f" x="1229.785156"/>
      <use xlink:href="#DejaVuSans-6e" x="1290.966797"/>
     </g>
    </g>
   </g>
  </g>
 </g>
 <defs>
  <clipPath id="p3ac5bac83f">
   <rect x="57.6" y="41.472" width="357.12" height="266.112"/>
  </clipPath>
 </defs>
</svg>
