<?xml version="1.0" encoding="utf-8" standalone="no"?>
<!DOCTYPE svg PUBLIC "-//W3C//DTD SVG 1.1//EN"
  "http://www.w3.org/Graphics/SVG/1.1/DTD/svg11.dtd">
<svg xmlns:xlink="http://www.w3.org/1999/xlink" width="1080pt" height="540pt" viewBox="0 0 1080 540" xmlns="http://www.w3.org/2000/svg" version="1.1">
 <metadata>
  <rdf:RDF xmlns:dc="http://purl.org/dc/elements/1.1/" xmlns:cc="http://creativecommons.org/ns#" xmlns:rdf="http://www.w3.org/1999/02/22-rdf-syntax-ns#">
   <cc:Work>
    <dc:type rdf:resource="http://purl.org/dc/dcmitype/StillImage"/>
    <dc:date>2022-09-12T14:24:39.920562</dc:date>
    <dc:format>image/svg+xml</dc:format>
    <dc:creator>
     <cc:Agent>
      <dc:title>Matplotlib v3.5.2, https://matplotlib.org/</dc:title>
     </cc:Agent>
    </dc:creator>
   </cc:Work>
  </rdf:RDF>
 </metadata>
 <defs>
  <style type="text/css">*{stroke-linejoin: round; stroke-linecap: butt}</style>
 </defs>
 <g id="figure_1">
  <g id="patch_1">
   <path d="M 0 540 
L 1080 540 
L 1080 0 
L 0 0 
z
" style="fill: #ffffff"/>
  </g>
  <g id="axes_1">
   <g id="patch_2">
    <path d="M 135 253.8 
L 972 253.8 
L 972 64.8 
L 135 64.8 
z
" style="fill: #ffffff"/>
   </g>
   <g id="matplotlib.axis_1">
    <g id="xtick_1">
     <g id="line2d_1">
      <path d="M 173.045455 253.8 
L 173.045455 64.8 
" clip-path="url(#pf451254d9d)" style="fill: none; stroke-dasharray: 0.8,1.32; stroke-dashoffset: 0; stroke: #b0b0b0; stroke-width: 0.8"/>
     </g>
     <g id="line2d_2">
      <defs>
       <path id="mfaf3817f2c" d="M 0 0 
L 0 3.5 
" style="stroke: #000000; stroke-width: 0.8"/>
      </defs>
      <g>
       <use xlink:href="#mfaf3817f2c" x="173.045455" y="253.8" style="stroke: #000000; stroke-width: 0.8"/>
      </g>
     </g>
     <g id="text_1">
      <!-- 0 -->
      <g transform="translate(169.864205 268.398438)scale(0.1 -0.1)">
       <defs>
        <path id="DejaVuSans-30" d="M 2034 4250 
Q 1547 4250 1301 3770 
Q 1056 3291 1056 2328 
Q 1056 1369 1301 889 
Q 1547 409 2034 409 
Q 2525 409 2770 889 
Q 3016 1369 3016 2328 
Q 3016 3291 2770 3770 
Q 2525 4250 2034 4250 
z
M 2034 4750 
Q 2819 4750 3233 4129 
Q 3647 3509 3647 2328 
Q 3647 1150 3233 529 
Q 2819 -91 2034 -91 
Q 1250 -91 836 529 
Q 422 1150 422 2328 
Q 422 3509 836 4129 
Q 1250 4750 2034 4750 
z
" transform="scale(0.015625)"/>
       </defs>
       <use xlink:href="#DejaVuSans-30"/>
      </g>
     </g>
    </g>
    <g id="xtick_2">
     <g id="line2d_3">
      <path d="M 281.129132 253.8 
L 281.129132 64.8 
" clip-path="url(#pf451254d9d)" style="fill: none; stroke-dasharray: 0.8,1.32; stroke-dashoffset: 0; stroke: #b0b0b0; stroke-width: 0.8"/>
     </g>
     <g id="line2d_4">
      <g>
       <use xlink:href="#mfaf3817f2c" x="281.129132" y="253.8" style="stroke: #000000; stroke-width: 0.8"/>
      </g>
     </g>
     <g id="text_2">
      <!-- 25 -->
      <g transform="translate(274.766632 268.398438)scale(0.1 -0.1)">
       <defs>
        <path id="DejaVuSans-32" d="M 1228 531 
L 3431 531 
L 3431 0 
L 469 0 
L 469 531 
Q 828 903 1448 1529 
Q 2069 2156 2228 2338 
Q 2531 2678 2651 2914 
Q 2772 3150 2772 3378 
Q 2772 3750 2511 3984 
Q 2250 4219 1831 4219 
Q 1534 4219 1204 4116 
Q 875 4013 500 3803 
L 500 4441 
Q 881 4594 1212 4672 
Q 1544 4750 1819 4750 
Q 2544 4750 2975 4387 
Q 3406 4025 3406 3419 
Q 3406 3131 3298 2873 
Q 3191 2616 2906 2266 
Q 2828 2175 2409 1742 
Q 1991 1309 1228 531 
z
" transform="scale(0.015625)"/>
        <path id="DejaVuSans-35" d="M 691 4666 
L 3169 4666 
L 3169 4134 
L 1269 4134 
L 1269 2991 
Q 1406 3038 1543 3061 
Q 1681 3084 1819 3084 
Q 2600 3084 3056 2656 
Q 3513 2228 3513 1497 
Q 3513 744 3044 326 
Q 2575 -91 1722 -91 
Q 1428 -91 1123 -41 
Q 819 9 494 109 
L 494 744 
Q 775 591 1075 516 
Q 1375 441 1709 441 
Q 2250 441 2565 725 
Q 2881 1009 2881 1497 
Q 2881 1984 2565 2268 
Q 2250 2553 1709 2553 
Q 1456 2553 1204 2497 
Q 953 2441 691 2322 
L 691 4666 
z
" transform="scale(0.015625)"/>
       </defs>
       <use xlink:href="#DejaVuSans-32"/>
       <use xlink:href="#DejaVuSans-35" x="63.623047"/>
      </g>
     </g>
    </g>
    <g id="xtick_3">
     <g id="line2d_5">
      <path d="M 389.21281 253.8 
L 389.21281 64.8 
" clip-path="url(#pf451254d9d)" style="fill: none; stroke-dasharray: 0.8,1.32; stroke-dashoffset: 0; stroke: #b0b0b0; stroke-width: 0.8"/>
     </g>
     <g id="line2d_6">
      <g>
       <use xlink:href="#mfaf3817f2c" x="389.21281" y="253.8" style="stroke: #000000; stroke-width: 0.8"/>
      </g>
     </g>
     <g id="text_3">
      <!-- 50 -->
      <g transform="translate(382.85031 268.398438)scale(0.1 -0.1)">
       <use xlink:href="#DejaVuSans-35"/>
       <use xlink:href="#DejaVuSans-30" x="63.623047"/>
      </g>
     </g>
    </g>
    <g id="xtick_4">
     <g id="line2d_7">
      <path d="M 497.296488 253.8 
L 497.296488 64.8 
" clip-path="url(#pf451254d9d)" style="fill: none; stroke-dasharray: 0.8,1.32; stroke-dashoffset: 0; stroke: #b0b0b0; stroke-width: 0.8"/>
     </g>
     <g id="line2d_8">
      <g>
       <use xlink:href="#mfaf3817f2c" x="497.296488" y="253.8" style="stroke: #000000; stroke-width: 0.8"/>
      </g>
     </g>
     <g id="text_4">
      <!-- 75 -->
      <g transform="translate(490.933988 268.398438)scale(0.1 -0.1)">
       <defs>
        <path id="DejaVuSans-37" d="M 525 4666 
L 3525 4666 
L 3525 4397 
L 1831 0 
L 1172 0 
L 2766 4134 
L 525 4134 
L 525 4666 
z
" transform="scale(0.015625)"/>
       </defs>
       <use xlink:href="#DejaVuSans-37"/>
       <use xlink:href="#DejaVuSans-35" x="63.623047"/>
      </g>
     </g>
    </g>
    <g id="xtick_5">
     <g id="line2d_9">
      <path d="M 605.380165 253.8 
L 605.380165 64.8 
" clip-path="url(#pf451254d9d)" style="fill: none; stroke-dasharray: 0.8,1.32; stroke-dashoffset: 0; stroke: #b0b0b0; stroke-width: 0.8"/>
     </g>
     <g id="line2d_10">
      <g>
       <use xlink:href="#mfaf3817f2c" x="605.380165" y="253.8" style="stroke: #000000; stroke-width: 0.8"/>
      </g>
     </g>
     <g id="text_5">
      <!-- 100 -->
      <g transform="translate(595.836415 268.398438)scale(0.1 -0.1)">
       <defs>
        <path id="DejaVuSans-31" d="M 794 531 
L 1825 531 
L 1825 4091 
L 703 3866 
L 703 4441 
L 1819 4666 
L 2450 4666 
L 2450 531 
L 3481 531 
L 3481 0 
L 794 0 
L 794 531 
z
" transform="scale(0.015625)"/>
       </defs>
       <use xlink:href="#DejaVuSans-31"/>
       <use xlink:href="#DejaVuSans-30" x="63.623047"/>
       <use xlink:href="#DejaVuSans-30" x="127.246094"/>
      </g>
     </g>
    </g>
    <g id="xtick_6">
     <g id="line2d_11">
      <path d="M 713.463843 253.8 
L 713.463843 64.8 
" clip-path="url(#pf451254d9d)" style="fill: none; stroke-dasharray: 0.8,1.32; stroke-dashoffset: 0; stroke: #b0b0b0; stroke-width: 0.8"/>
     </g>
     <g id="line2d_12">
      <g>
       <use xlink:href="#mfaf3817f2c" x="713.463843" y="253.8" style="stroke: #000000; stroke-width: 0.8"/>
      </g>
     </g>
     <g id="text_6">
      <!-- 125 -->
      <g transform="translate(703.920093 268.398438)scale(0.1 -0.1)">
       <use xlink:href="#DejaVuSans-31"/>
       <use xlink:href="#DejaVuSans-32" x="63.623047"/>
       <use xlink:href="#DejaVuSans-35" x="127.246094"/>
      </g>
     </g>
    </g>
    <g id="xtick_7">
     <g id="line2d_13">
      <path d="M 821.547521 253.8 
L 821.547521 64.8 
" clip-path="url(#pf451254d9d)" style="fill: none; stroke-dasharray: 0.8,1.32; stroke-dashoffset: 0; stroke: #b0b0b0; stroke-width: 0.8"/>
     </g>
     <g id="line2d_14">
      <g>
       <use xlink:href="#mfaf3817f2c" x="821.547521" y="253.8" style="stroke: #000000; stroke-width: 0.8"/>
      </g>
     </g>
     <g id="text_7">
      <!-- 150 -->
      <g transform="translate(812.003771 268.398438)scale(0.1 -0.1)">
       <use xlink:href="#DejaVuSans-31"/>
       <use xlink:href="#DejaVuSans-35" x="63.623047"/>
       <use xlink:href="#DejaVuSans-30" x="127.246094"/>
      </g>
     </g>
    </g>
    <g id="xtick_8">
     <g id="line2d_15">
      <path d="M 929.631198 253.8 
L 929.631198 64.8 
" clip-path="url(#pf451254d9d)" style="fill: none; stroke-dasharray: 0.8,1.32; stroke-dashoffset: 0; stroke: #b0b0b0; stroke-width: 0.8"/>
     </g>
     <g id="line2d_16">
      <g>
       <use xlink:href="#mfaf3817f2c" x="929.631198" y="253.8" style="stroke: #000000; stroke-width: 0.8"/>
      </g>
     </g>
     <g id="text_8">
      <!-- 175 -->
      <g transform="translate(920.087448 268.398438)scale(0.1 -0.1)">
       <use xlink:href="#DejaVuSans-31"/>
       <use xlink:href="#DejaVuSans-37" x="63.623047"/>
       <use xlink:href="#DejaVuSans-35" x="127.246094"/>
      </g>
     </g>
    </g>
    <g id="text_9">
     <!-- Number of Orders -->
     <g transform="translate(508.601562 282.076563)scale(0.1 -0.1)">
      <defs>
       <path id="DejaVuSans-4e" d="M 628 4666 
L 1478 4666 
L 3547 763 
L 3547 4666 
L 4159 4666 
L 4159 0 
L 3309 0 
L 1241 3903 
L 1241 0 
L 628 0 
L 628 4666 
z
" transform="scale(0.015625)"/>
       <path id="DejaVuSans-75" d="M 544 1381 
L 544 3500 
L 1119 3500 
L 1119 1403 
Q 1119 906 1312 657 
Q 1506 409 1894 409 
Q 2359 409 2629 706 
Q 2900 1003 2900 1516 
L 2900 3500 
L 3475 3500 
L 3475 0 
L 2900 0 
L 2900 538 
Q 2691 219 2414 64 
Q 2138 -91 1772 -91 
Q 1169 -91 856 284 
Q 544 659 544 1381 
z
M 1991 3584 
L 1991 3584 
z
" transform="scale(0.015625)"/>
       <path id="DejaVuSans-6d" d="M 3328 2828 
Q 3544 3216 3844 3400 
Q 4144 3584 4550 3584 
Q 5097 3584 5394 3201 
Q 5691 2819 5691 2113 
L 5691 0 
L 5113 0 
L 5113 2094 
Q 5113 2597 4934 2840 
Q 4756 3084 4391 3084 
Q 3944 3084 3684 2787 
Q 3425 2491 3425 1978 
L 3425 0 
L 2847 0 
L 2847 2094 
Q 2847 2600 2669 2842 
Q 2491 3084 2119 3084 
Q 1678 3084 1418 2786 
Q 1159 2488 1159 1978 
L 1159 0 
L 581 0 
L 581 3500 
L 1159 3500 
L 1159 2956 
Q 1356 3278 1631 3431 
Q 1906 3584 2284 3584 
Q 2666 3584 2933 3390 
Q 3200 3197 3328 2828 
z
" transform="scale(0.015625)"/>
       <path id="DejaVuSans-62" d="M 3116 1747 
Q 3116 2381 2855 2742 
Q 2594 3103 2138 3103 
Q 1681 3103 1420 2742 
Q 1159 2381 1159 1747 
Q 1159 1113 1420 752 
Q 1681 391 2138 391 
Q 2594 391 2855 752 
Q 3116 1113 3116 1747 
z
M 1159 2969 
Q 1341 3281 1617 3432 
Q 1894 3584 2278 3584 
Q 2916 3584 3314 3078 
Q 3713 2572 3713 1747 
Q 3713 922 3314 415 
Q 2916 -91 2278 -91 
Q 1894 -91 1617 61 
Q 1341 213 1159 525 
L 1159 0 
L 581 0 
L 581 4863 
L 1159 4863 
L 1159 2969 
z
" transform="scale(0.015625)"/>
       <path id="DejaVuSans-65" d="M 3597 1894 
L 3597 1613 
L 953 1613 
Q 991 1019 1311 708 
Q 1631 397 2203 397 
Q 2534 397 2845 478 
Q 3156 559 3463 722 
L 3463 178 
Q 3153 47 2828 -22 
Q 2503 -91 2169 -91 
Q 1331 -91 842 396 
Q 353 884 353 1716 
Q 353 2575 817 3079 
Q 1281 3584 2069 3584 
Q 2775 3584 3186 3129 
Q 3597 2675 3597 1894 
z
M 3022 2063 
Q 3016 2534 2758 2815 
Q 2500 3097 2075 3097 
Q 1594 3097 1305 2825 
Q 1016 2553 972 2059 
L 3022 2063 
z
" transform="scale(0.015625)"/>
       <path id="DejaVuSans-72" d="M 2631 2963 
Q 2534 3019 2420 3045 
Q 2306 3072 2169 3072 
Q 1681 3072 1420 2755 
Q 1159 2438 1159 1844 
L 1159 0 
L 581 0 
L 581 3500 
L 1159 3500 
L 1159 2956 
Q 1341 3275 1631 3429 
Q 1922 3584 2338 3584 
Q 2397 3584 2469 3576 
Q 2541 3569 2628 3553 
L 2631 2963 
z
" transform="scale(0.015625)"/>
       <path id="DejaVuSans-20" transform="scale(0.015625)"/>
       <path id="DejaVuSans-6f" d="M 1959 3097 
Q 1497 3097 1228 2736 
Q 959 2375 959 1747 
Q 959 1119 1226 758 
Q 1494 397 1959 397 
Q 2419 397 2687 759 
Q 2956 1122 2956 1747 
Q 2956 2369 2687 2733 
Q 2419 3097 1959 3097 
z
M 1959 3584 
Q 2709 3584 3137 3096 
Q 3566 2609 3566 1747 
Q 3566 888 3137 398 
Q 2709 -91 1959 -91 
Q 1206 -91 779 398 
Q 353 888 353 1747 
Q 353 2609 779 3096 
Q 1206 3584 1959 3584 
z
" transform="scale(0.015625)"/>
       <path id="DejaVuSans-66" d="M 2375 4863 
L 2375 4384 
L 1825 4384 
Q 1516 4384 1395 4259 
Q 1275 4134 1275 3809 
L 1275 3500 
L 2222 3500 
L 2222 3053 
L 1275 3053 
L 1275 0 
L 697 0 
L 697 3053 
L 147 3053 
L 147 3500 
L 697 3500 
L 697 3744 
Q 697 4328 969 4595 
Q 1241 4863 1831 4863 
L 2375 4863 
z
" transform="scale(0.015625)"/>
       <path id="DejaVuSans-4f" d="M 2522 4238 
Q 1834 4238 1429 3725 
Q 1025 3213 1025 2328 
Q 1025 1447 1429 934 
Q 1834 422 2522 422 
Q 3209 422 3611 934 
Q 4013 1447 4013 2328 
Q 4013 3213 3611 3725 
Q 3209 4238 2522 4238 
z
M 2522 4750 
Q 3503 4750 4090 4092 
Q 4678 3434 4678 2328 
Q 4678 1225 4090 567 
Q 3503 -91 2522 -91 
Q 1538 -91 948 565 
Q 359 1222 359 2328 
Q 359 3434 948 4092 
Q 1538 4750 2522 4750 
z
" transform="scale(0.015625)"/>
       <path id="DejaVuSans-64" d="M 2906 2969 
L 2906 4863 
L 3481 4863 
L 3481 0 
L 2906 0 
L 2906 525 
Q 2725 213 2448 61 
Q 2172 -91 1784 -91 
Q 1150 -91 751 415 
Q 353 922 353 1747 
Q 353 2572 751 3078 
Q 1150 3584 1784 3584 
Q 2172 3584 2448 3432 
Q 2725 3281 2906 2969 
z
M 947 1747 
Q 947 1113 1208 752 
Q 1469 391 1925 391 
Q 2381 391 2643 752 
Q 2906 1113 2906 1747 
Q 2906 2381 2643 2742 
Q 2381 3103 1925 3103 
Q 1469 3103 1208 2742 
Q 947 2381 947 1747 
z
" transform="scale(0.015625)"/>
       <path id="DejaVuSans-73" d="M 2834 3397 
L 2834 2853 
Q 2591 2978 2328 3040 
Q 2066 3103 1784 3103 
Q 1356 3103 1142 2972 
Q 928 2841 928 2578 
Q 928 2378 1081 2264 
Q 1234 2150 1697 2047 
L 1894 2003 
Q 2506 1872 2764 1633 
Q 3022 1394 3022 966 
Q 3022 478 2636 193 
Q 2250 -91 1575 -91 
Q 1294 -91 989 -36 
Q 684 19 347 128 
L 347 722 
Q 666 556 975 473 
Q 1284 391 1588 391 
Q 1994 391 2212 530 
Q 2431 669 2431 922 
Q 2431 1156 2273 1281 
Q 2116 1406 1581 1522 
L 1381 1569 
Q 847 1681 609 1914 
Q 372 2147 372 2553 
Q 372 3047 722 3315 
Q 1072 3584 1716 3584 
Q 2034 3584 2315 3537 
Q 2597 3491 2834 3397 
z
" transform="scale(0.015625)"/>
      </defs>
      <use xlink:href="#DejaVuSans-4e"/>
      <use xlink:href="#DejaVuSans-75" x="74.804688"/>
      <use xlink:href="#DejaVuSans-6d" x="138.183594"/>
      <use xlink:href="#DejaVuSans-62" x="235.595703"/>
      <use xlink:href="#DejaVuSans-65" x="299.072266"/>
      <use xlink:href="#DejaVuSans-72" x="360.595703"/>
      <use xlink:href="#DejaVuSans-20" x="401.708984"/>
      <use xlink:href="#DejaVuSans-6f" x="433.496094"/>
      <use xlink:href="#DejaVuSans-66" x="494.677734"/>
      <use xlink:href="#DejaVuSans-20" x="529.882812"/>
      <use xlink:href="#DejaVuSans-4f" x="561.669922"/>
      <use xlink:href="#DejaVuSans-72" x="640.380859"/>
      <use xlink:href="#DejaVuSans-64" x="679.744141"/>
      <use xlink:href="#DejaVuSans-65" x="743.220703"/>
      <use xlink:href="#DejaVuSans-72" x="804.744141"/>
      <use xlink:href="#DejaVuSans-73" x="845.857422"/>
     </g>
    </g>
   </g>
   <g id="matplotlib.axis_2">
    <g id="ytick_1">
     <g id="line2d_17">
      <path d="M 135 248.309946 
L 972 248.309946 
" clip-path="url(#pf451254d9d)" style="fill: none; stroke-dasharray: 0.8,1.32; stroke-dashoffset: 0; stroke: #b0b0b0; stroke-width: 0.8"/>
     </g>
     <g id="line2d_18">
      <defs>
       <path id="m7cc120c0b3" d="M 0 0 
L -3.5 0 
" style="stroke: #000000; stroke-width: 0.8"/>
      </defs>
      <g>
       <use xlink:href="#m7cc120c0b3" x="135" y="248.309946" style="stroke: #000000; stroke-width: 0.8"/>
      </g>
     </g>
     <g id="text_10">
      <!-- 20 -->
      <g transform="translate(115.275 252.109165)scale(0.1 -0.1)">
       <use xlink:href="#DejaVuSans-32"/>
       <use xlink:href="#DejaVuSans-30" x="63.623047"/>
      </g>
     </g>
    </g>
    <g id="ytick_2">
     <g id="line2d_19">
      <path d="M 135 224.899409 
L 972 224.899409 
" clip-path="url(#pf451254d9d)" style="fill: none; stroke-dasharray: 0.8,1.32; stroke-dashoffset: 0; stroke: #b0b0b0; stroke-width: 0.8"/>
     </g>
     <g id="line2d_20">
      <g>
       <use xlink:href="#m7cc120c0b3" x="135" y="224.899409" style="stroke: #000000; stroke-width: 0.8"/>
      </g>
     </g>
     <g id="text_11">
      <!-- 30 -->
      <g transform="translate(115.275 228.698628)scale(0.1 -0.1)">
       <defs>
        <path id="DejaVuSans-33" d="M 2597 2516 
Q 3050 2419 3304 2112 
Q 3559 1806 3559 1356 
Q 3559 666 3084 287 
Q 2609 -91 1734 -91 
Q 1441 -91 1130 -33 
Q 819 25 488 141 
L 488 750 
Q 750 597 1062 519 
Q 1375 441 1716 441 
Q 2309 441 2620 675 
Q 2931 909 2931 1356 
Q 2931 1769 2642 2001 
Q 2353 2234 1838 2234 
L 1294 2234 
L 1294 2753 
L 1863 2753 
Q 2328 2753 2575 2939 
Q 2822 3125 2822 3475 
Q 2822 3834 2567 4026 
Q 2313 4219 1838 4219 
Q 1578 4219 1281 4162 
Q 984 4106 628 3988 
L 628 4550 
Q 988 4650 1302 4700 
Q 1616 4750 1894 4750 
Q 2613 4750 3031 4423 
Q 3450 4097 3450 3541 
Q 3450 3153 3228 2886 
Q 3006 2619 2597 2516 
z
" transform="scale(0.015625)"/>
       </defs>
       <use xlink:href="#DejaVuSans-33"/>
       <use xlink:href="#DejaVuSans-30" x="63.623047"/>
      </g>
     </g>
    </g>
    <g id="ytick_3">
     <g id="line2d_21">
      <path d="M 135 201.488872 
L 972 201.488872 
" clip-path="url(#pf451254d9d)" style="fill: none; stroke-dasharray: 0.8,1.32; stroke-dashoffset: 0; stroke: #b0b0b0; stroke-width: 0.8"/>
     </g>
     <g id="line2d_22">
      <g>
       <use xlink:href="#m7cc120c0b3" x="135" y="201.488872" style="stroke: #000000; stroke-width: 0.8"/>
      </g>
     </g>
     <g id="text_12">
      <!-- 40 -->
      <g transform="translate(115.275 205.28809)scale(0.1 -0.1)">
       <defs>
        <path id="DejaVuSans-34" d="M 2419 4116 
L 825 1625 
L 2419 1625 
L 2419 4116 
z
M 2253 4666 
L 3047 4666 
L 3047 1625 
L 3713 1625 
L 3713 1100 
L 3047 1100 
L 3047 0 
L 2419 0 
L 2419 1100 
L 313 1100 
L 313 1709 
L 2253 4666 
z
" transform="scale(0.015625)"/>
       </defs>
       <use xlink:href="#DejaVuSans-34"/>
       <use xlink:href="#DejaVuSans-30" x="63.623047"/>
      </g>
     </g>
    </g>
    <g id="ytick_4">
     <g id="line2d_23">
      <path d="M 135 178.078334 
L 972 178.078334 
" clip-path="url(#pf451254d9d)" style="fill: none; stroke-dasharray: 0.8,1.32; stroke-dashoffset: 0; stroke: #b0b0b0; stroke-width: 0.8"/>
     </g>
     <g id="line2d_24">
      <g>
       <use xlink:href="#m7cc120c0b3" x="135" y="178.078334" style="stroke: #000000; stroke-width: 0.8"/>
      </g>
     </g>
     <g id="text_13">
      <!-- 50 -->
      <g transform="translate(115.275 181.877553)scale(0.1 -0.1)">
       <use xlink:href="#DejaVuSans-35"/>
       <use xlink:href="#DejaVuSans-30" x="63.623047"/>
      </g>
     </g>
    </g>
    <g id="ytick_5">
     <g id="line2d_25">
      <path d="M 135 154.667797 
L 972 154.667797 
" clip-path="url(#pf451254d9d)" style="fill: none; stroke-dasharray: 0.8,1.32; stroke-dashoffset: 0; stroke: #b0b0b0; stroke-width: 0.8"/>
     </g>
     <g id="line2d_26">
      <g>
       <use xlink:href="#m7cc120c0b3" x="135" y="154.667797" style="stroke: #000000; stroke-width: 0.8"/>
      </g>
     </g>
     <g id="text_14">
      <!-- 60 -->
      <g transform="translate(115.275 158.467016)scale(0.1 -0.1)">
       <defs>
        <path id="DejaVuSans-36" d="M 2113 2584 
Q 1688 2584 1439 2293 
Q 1191 2003 1191 1497 
Q 1191 994 1439 701 
Q 1688 409 2113 409 
Q 2538 409 2786 701 
Q 3034 994 3034 1497 
Q 3034 2003 2786 2293 
Q 2538 2584 2113 2584 
z
M 3366 4563 
L 3366 3988 
Q 3128 4100 2886 4159 
Q 2644 4219 2406 4219 
Q 1781 4219 1451 3797 
Q 1122 3375 1075 2522 
Q 1259 2794 1537 2939 
Q 1816 3084 2150 3084 
Q 2853 3084 3261 2657 
Q 3669 2231 3669 1497 
Q 3669 778 3244 343 
Q 2819 -91 2113 -91 
Q 1303 -91 875 529 
Q 447 1150 447 2328 
Q 447 3434 972 4092 
Q 1497 4750 2381 4750 
Q 2619 4750 2861 4703 
Q 3103 4656 3366 4563 
z
" transform="scale(0.015625)"/>
       </defs>
       <use xlink:href="#DejaVuSans-36"/>
       <use xlink:href="#DejaVuSans-30" x="63.623047"/>
      </g>
     </g>
    </g>
    <g id="ytick_6">
     <g id="line2d_27">
      <path d="M 135 131.25726 
L 972 131.25726 
" clip-path="url(#pf451254d9d)" style="fill: none; stroke-dasharray: 0.8,1.32; stroke-dashoffset: 0; stroke: #b0b0b0; stroke-width: 0.8"/>
     </g>
     <g id="line2d_28">
      <g>
       <use xlink:href="#m7cc120c0b3" x="135" y="131.25726" style="stroke: #000000; stroke-width: 0.8"/>
      </g>
     </g>
     <g id="text_15">
      <!-- 70 -->
      <g transform="translate(115.275 135.056478)scale(0.1 -0.1)">
       <use xlink:href="#DejaVuSans-37"/>
       <use xlink:href="#DejaVuSans-30" x="63.623047"/>
      </g>
     </g>
    </g>
    <g id="ytick_7">
     <g id="line2d_29">
      <path d="M 135 107.846722 
L 972 107.846722 
" clip-path="url(#pf451254d9d)" style="fill: none; stroke-dasharray: 0.8,1.32; stroke-dashoffset: 0; stroke: #b0b0b0; stroke-width: 0.8"/>
     </g>
     <g id="line2d_30">
      <g>
       <use xlink:href="#m7cc120c0b3" x="135" y="107.846722" style="stroke: #000000; stroke-width: 0.8"/>
      </g>
     </g>
     <g id="text_16">
      <!-- 80 -->
      <g transform="translate(115.275 111.645941)scale(0.1 -0.1)">
       <defs>
        <path id="DejaVuSans-38" d="M 2034 2216 
Q 1584 2216 1326 1975 
Q 1069 1734 1069 1313 
Q 1069 891 1326 650 
Q 1584 409 2034 409 
Q 2484 409 2743 651 
Q 3003 894 3003 1313 
Q 3003 1734 2745 1975 
Q 2488 2216 2034 2216 
z
M 1403 2484 
Q 997 2584 770 2862 
Q 544 3141 544 3541 
Q 544 4100 942 4425 
Q 1341 4750 2034 4750 
Q 2731 4750 3128 4425 
Q 3525 4100 3525 3541 
Q 3525 3141 3298 2862 
Q 3072 2584 2669 2484 
Q 3125 2378 3379 2068 
Q 3634 1759 3634 1313 
Q 3634 634 3220 271 
Q 2806 -91 2034 -91 
Q 1263 -91 848 271 
Q 434 634 434 1313 
Q 434 1759 690 2068 
Q 947 2378 1403 2484 
z
M 1172 3481 
Q 1172 3119 1398 2916 
Q 1625 2713 2034 2713 
Q 2441 2713 2670 2916 
Q 2900 3119 2900 3481 
Q 2900 3844 2670 4047 
Q 2441 4250 2034 4250 
Q 1625 4250 1398 4047 
Q 1172 3844 1172 3481 
z
" transform="scale(0.015625)"/>
       </defs>
       <use xlink:href="#DejaVuSans-38"/>
       <use xlink:href="#DejaVuSans-30" x="63.623047"/>
      </g>
     </g>
    </g>
    <g id="ytick_8">
     <g id="line2d_31">
      <path d="M 135 84.436185 
L 972 84.436185 
" clip-path="url(#pf451254d9d)" style="fill: none; stroke-dasharray: 0.8,1.32; stroke-dashoffset: 0; stroke: #b0b0b0; stroke-width: 0.8"/>
     </g>
     <g id="line2d_32">
      <g>
       <use xlink:href="#m7cc120c0b3" x="135" y="84.436185" style="stroke: #000000; stroke-width: 0.8"/>
      </g>
     </g>
     <g id="text_17">
      <!-- 90 -->
      <g transform="translate(115.275 88.235404)scale(0.1 -0.1)">
       <defs>
        <path id="DejaVuSans-39" d="M 703 97 
L 703 672 
Q 941 559 1184 500 
Q 1428 441 1663 441 
Q 2288 441 2617 861 
Q 2947 1281 2994 2138 
Q 2813 1869 2534 1725 
Q 2256 1581 1919 1581 
Q 1219 1581 811 2004 
Q 403 2428 403 3163 
Q 403 3881 828 4315 
Q 1253 4750 1959 4750 
Q 2769 4750 3195 4129 
Q 3622 3509 3622 2328 
Q 3622 1225 3098 567 
Q 2575 -91 1691 -91 
Q 1453 -91 1209 -44 
Q 966 3 703 97 
z
M 1959 2075 
Q 2384 2075 2632 2365 
Q 2881 2656 2881 3163 
Q 2881 3666 2632 3958 
Q 2384 4250 1959 4250 
Q 1534 4250 1286 3958 
Q 1038 3666 1038 3163 
Q 1038 2656 1286 2365 
Q 1534 2075 1959 2075 
z
" transform="scale(0.015625)"/>
       </defs>
       <use xlink:href="#DejaVuSans-39"/>
       <use xlink:href="#DejaVuSans-30" x="63.623047"/>
      </g>
     </g>
    </g>
    <g id="text_18">
     <!-- Waiting Time -->
     <g transform="translate(109.195312 191.892969)rotate(-90)scale(0.1 -0.1)">
      <defs>
       <path id="DejaVuSans-57" d="M 213 4666 
L 850 4666 
L 1831 722 
L 2809 4666 
L 3519 4666 
L 4500 722 
L 5478 4666 
L 6119 4666 
L 4947 0 
L 4153 0 
L 3169 4050 
L 2175 0 
L 1381 0 
L 213 4666 
z
" transform="scale(0.015625)"/>
       <path id="DejaVuSans-61" d="M 2194 1759 
Q 1497 1759 1228 1600 
Q 959 1441 959 1056 
Q 959 750 1161 570 
Q 1363 391 1709 391 
Q 2188 391 2477 730 
Q 2766 1069 2766 1631 
L 2766 1759 
L 2194 1759 
z
M 3341 1997 
L 3341 0 
L 2766 0 
L 2766 531 
Q 2569 213 2275 61 
Q 1981 -91 1556 -91 
Q 1019 -91 701 211 
Q 384 513 384 1019 
Q 384 1609 779 1909 
Q 1175 2209 1959 2209 
L 2766 2209 
L 2766 2266 
Q 2766 2663 2505 2880 
Q 2244 3097 1772 3097 
Q 1472 3097 1187 3025 
Q 903 2953 641 2809 
L 641 3341 
Q 956 3463 1253 3523 
Q 1550 3584 1831 3584 
Q 2591 3584 2966 3190 
Q 3341 2797 3341 1997 
z
" transform="scale(0.015625)"/>
       <path id="DejaVuSans-69" d="M 603 3500 
L 1178 3500 
L 1178 0 
L 603 0 
L 603 3500 
z
M 603 4863 
L 1178 4863 
L 1178 4134 
L 603 4134 
L 603 4863 
z
" transform="scale(0.015625)"/>
       <path id="DejaVuSans-74" d="M 1172 4494 
L 1172 3500 
L 2356 3500 
L 2356 3053 
L 1172 3053 
L 1172 1153 
Q 1172 725 1289 603 
Q 1406 481 1766 481 
L 2356 481 
L 2356 0 
L 1766 0 
Q 1100 0 847 248 
Q 594 497 594 1153 
L 594 3053 
L 172 3053 
L 172 3500 
L 594 3500 
L 594 4494 
L 1172 4494 
z
" transform="scale(0.015625)"/>
       <path id="DejaVuSans-6e" d="M 3513 2113 
L 3513 0 
L 2938 0 
L 2938 2094 
Q 2938 2591 2744 2837 
Q 2550 3084 2163 3084 
Q 1697 3084 1428 2787 
Q 1159 2491 1159 1978 
L 1159 0 
L 581 0 
L 581 3500 
L 1159 3500 
L 1159 2956 
Q 1366 3272 1645 3428 
Q 1925 3584 2291 3584 
Q 2894 3584 3203 3211 
Q 3513 2838 3513 2113 
z
" transform="scale(0.015625)"/>
       <path id="DejaVuSans-67" d="M 2906 1791 
Q 2906 2416 2648 2759 
Q 2391 3103 1925 3103 
Q 1463 3103 1205 2759 
Q 947 2416 947 1791 
Q 947 1169 1205 825 
Q 1463 481 1925 481 
Q 2391 481 2648 825 
Q 2906 1169 2906 1791 
z
M 3481 434 
Q 3481 -459 3084 -895 
Q 2688 -1331 1869 -1331 
Q 1566 -1331 1297 -1286 
Q 1028 -1241 775 -1147 
L 775 -588 
Q 1028 -725 1275 -790 
Q 1522 -856 1778 -856 
Q 2344 -856 2625 -561 
Q 2906 -266 2906 331 
L 2906 616 
Q 2728 306 2450 153 
Q 2172 0 1784 0 
Q 1141 0 747 490 
Q 353 981 353 1791 
Q 353 2603 747 3093 
Q 1141 3584 1784 3584 
Q 2172 3584 2450 3431 
Q 2728 3278 2906 2969 
L 2906 3500 
L 3481 3500 
L 3481 434 
z
" transform="scale(0.015625)"/>
       <path id="DejaVuSans-54" d="M -19 4666 
L 3928 4666 
L 3928 4134 
L 2272 4134 
L 2272 0 
L 1638 0 
L 1638 4134 
L -19 4134 
L -19 4666 
z
" transform="scale(0.015625)"/>
      </defs>
      <use xlink:href="#DejaVuSans-57"/>
      <use xlink:href="#DejaVuSans-61" x="92.501953"/>
      <use xlink:href="#DejaVuSans-69" x="153.78125"/>
      <use xlink:href="#DejaVuSans-74" x="181.564453"/>
      <use xlink:href="#DejaVuSans-69" x="220.773438"/>
      <use xlink:href="#DejaVuSans-6e" x="248.556641"/>
      <use xlink:href="#DejaVuSans-67" x="311.935547"/>
      <use xlink:href="#DejaVuSans-20" x="375.412109"/>
      <use xlink:href="#DejaVuSans-54" x="407.199219"/>
      <use xlink:href="#DejaVuSans-69" x="465.158203"/>
      <use xlink:href="#DejaVuSans-6d" x="492.941406"/>
      <use xlink:href="#DejaVuSans-65" x="590.353516"/>
     </g>
    </g>
   </g>
   <g id="line2d_33">
    <path d="M 173.045455 213.901804 
L 181.692149 174.574771 
L 186.015496 219.602362 
L 190.338843 184.627469 
L 194.66219 182.724979 
L 198.985537 217.811268 
L 203.308884 135.322509 
L 207.632231 225.212949 
L 211.955579 208.88583 
L 216.278926 193.428798 
L 220.602273 161.498469 
L 224.92562 234.157431 
L 229.248967 166.54881 
L 233.572314 186.8409 
L 237.895661 206.120111 
L 242.219008 162.221916 
L 246.542355 162.789747 
L 250.865702 165.574433 
L 255.18905 156.663592 
L 259.512397 150.359898 
L 263.835744 165.590787 
L 268.159091 151.087014 
L 272.482438 230.035099 
L 276.805785 198.432398 
L 281.129132 225.71868 
L 285.452479 210.075362 
L 289.775826 157.61622 
L 294.099174 166.89697 
L 298.422521 182.593964 
L 302.745868 203.553652 
L 307.069215 195.264868 
L 311.392562 139.660676 
L 315.715909 196.121281 
L 320.039256 151.82204 
L 324.362603 164.254554 
L 328.68595 192.871575 
L 333.009298 212.39528 
L 337.332645 190.981011 
L 341.655992 160.876661 
L 345.979339 149.835517 
L 350.302686 162.413674 
L 354.626033 240.828914 
L 358.94938 234.600885 
L 363.272727 137.58583 
L 367.596074 147.308066 
L 371.919421 126.863458 
L 376.242769 101.561487 
L 380.566116 181.937791 
L 384.889463 173.269776 
L 389.21281 169.26481 
L 393.536157 157.08869 
L 397.859504 149.092739 
L 402.182851 215.844301 
L 406.506198 245.209091 
L 410.829545 208.035386 
L 415.152893 177.361083 
L 419.47624 197.110966 
L 423.799587 141.452717 
L 428.122934 203.41151 
L 432.446281 207.79118 
L 436.769628 180.522737 
L 441.092975 150.284954 
L 445.416322 158.455566 
L 449.739669 105.382008 
L 454.063017 163.917882 
L 458.386364 175.263703 
L 462.709711 200.92969 
L 467.033058 170.805039 
L 471.356405 139.277066 
L 475.679752 170.563677 
L 480.003099 222.999905 
L 484.326446 161.24605 
L 488.649793 106.427639 
L 492.97314 167.205629 
L 497.296488 180.522737 
L 501.619835 238.945731 
L 505.943182 154.332284 
L 510.266529 124.625111 
L 514.589876 169.649328 
L 518.913223 195.732079 
L 523.23657 218.201533 
L 527.559917 147.982389 
L 531.883264 208.671898 
L 536.206612 209.914477 
L 540.529959 173.208849 
L 544.853306 201.068988 
L 549.176653 202.195453 
L 553.5 166.400058 
L 557.823347 80.146188 
L 562.146694 194.969299 
L 566.470041 155.664965 
L 570.793388 176.514486 
L 575.116736 73.390909 
L 579.440083 184.702125 
L 583.76343 201.301886 
L 588.086777 103.173915 
L 592.410124 239.876709 
L 596.733471 218.399559 
L 601.056818 162.019888 
L 605.380165 142.723458 
L 609.703512 189.714448 
L 614.02686 144.36894 
L 618.350207 154.16274 
L 622.673554 157.937442 
L 626.996901 169.679657 
L 631.320248 154.933021 
L 635.643595 155.503486 
L 639.966942 237.929758 
L 644.290289 135.687615 
L 648.613636 186.878358 
L 652.936983 199.599698 
L 657.260331 155.189322 
L 661.583678 227.492257 
L 665.907025 177.944669 
L 670.230372 114.689084 
L 674.553719 198.209623 
L 678.877066 205.667096 
L 683.200413 180.110143 
L 687.52376 161.537608 
L 691.847107 177.41234 
L 696.170455 225.212949 
L 700.493802 100.087951 
L 704.817149 187.29167 
L 709.140496 174.896098 
L 713.463843 234.801294 
L 717.78719 176.883082 
L 722.110537 154.019499 
L 726.433884 150.657084 
L 730.757231 189.783603 
L 735.080579 220.240204 
L 739.403926 73.99493 
L 743.727273 135.344487 
L 748.05062 222.999905 
L 752.373967 207.667662 
L 756.697314 165.025331 
L 761.020661 185.211313 
L 765.344008 143.24579 
L 769.667355 186.792918 
L 773.990702 170.932045 
L 778.31405 172.139903 
L 782.637397 196.763426 
L 786.960744 189.162072 
L 791.284091 135.96308 
L 795.607438 171.890788 
L 799.930785 162.58687 
L 804.254132 136.811781 
L 808.577479 230.402967 
L 812.900826 153.838685 
L 817.224174 210.307954 
L 821.547521 230.681896 
L 825.870868 106.631137 
L 830.194215 160.19734 
L 834.517562 171.200334 
L 838.840909 231.057979 
L 843.164256 162.76782 
L 847.487603 144.032634 
L 851.81095 105.497433 
L 856.134298 189.588785 
L 860.457645 171.890788 
L 864.780992 193.387658 
L 869.104339 221.120513 
L 873.427686 147.982389 
L 877.751033 128.891304 
L 882.07438 161.549295 
L 886.397727 110.141005 
L 890.721074 142.501162 
L 895.044421 241.141036 
L 899.367769 136.803709 
L 903.691116 198.209623 
L 908.014463 165.77177 
L 912.33781 198.24078 
L 916.661157 120.157185 
L 920.984504 167.343576 
L 925.307851 185.500983 
L 929.631198 210.353966 
L 933.954545 238.431766 
L 933.954545 238.431766 
" clip-path="url(#pf451254d9d)" style="fill: none; stroke: #000000; stroke-width: 1.5; stroke-linecap: square"/>
   </g>
   <g id="line2d_34">
    <path d="M 211.955579 195.712965 
L 216.278926 193.665665 
L 220.602273 190.36894 
L 224.92562 196.327206 
L 229.248967 191.021851 
L 233.572314 191.243194 
L 237.895661 193.582707 
L 242.219008 188.023772 
L 246.542355 190.770496 
L 250.865702 184.806644 
L 255.18905 179.584421 
L 259.512397 175.277531 
L 263.835744 175.686762 
L 268.159091 167.379721 
L 272.482438 173.72835 
L 276.805785 174.887499 
L 281.129132 176.847356 
L 285.452479 181.632701 
L 289.775826 181.115348 
L 294.099174 181.247602 
L 298.422521 183.840639 
L 302.745868 189.160015 
L 307.069215 192.127423 
L 311.392562 190.984789 
L 315.715909 187.593407 
L 320.039256 182.932371 
L 324.362603 176.785959 
L 328.68595 175.06558 
L 333.009298 180.543486 
L 337.332645 182.95189 
L 341.655992 180.78016 
L 345.979339 175.408346 
L 350.302686 172.123227 
L 354.626033 182.240051 
L 358.94938 186.088011 
L 363.272727 184.66439 
L 367.596074 182.969741 
L 371.919421 176.36893 
L 376.242769 165.28555 
L 380.566116 164.381228 
L 384.889463 165.62054 
L 389.21281 167.563469 
L 393.536157 167.030971 
L 397.859504 157.857353 
L 402.182851 155.981695 
L 406.506198 166.744021 
L 410.829545 172.816753 
L 415.152893 177.866515 
L 419.47624 187.421463 
L 423.799587 183.372956 
L 428.122934 186.387129 
L 432.446281 190.239766 
L 436.769628 192.583171 
L 441.092975 192.702393 
L 445.416322 186.963519 
L 449.739669 172.980811 
L 454.063017 168.56906 
L 458.386364 168.359322 
L 462.709711 168.741195 
L 467.033058 171.676427 
L 471.356405 165.262982 
L 475.679752 161.540232 
L 480.003099 165.787949 
L 484.326446 166.884059 
L 488.649793 161.681266 
L 492.97314 167.863628 
L 497.296488 169.524114 
L 501.619835 175.892316 
L 510.266529 166.614583 
L 514.589876 169.651809 
L 518.913223 172.168649 
L 523.23657 171.688812 
L 527.559917 170.362446 
L 531.883264 180.586872 
L 536.206612 184.857757 
L 540.529959 184.126368 
L 544.853306 180.338694 
L 549.176653 185.125011 
L 553.5 189.302505 
L 557.823347 180.352191 
L 562.146694 180.275913 
L 566.470041 174.022256 
L 570.793388 176.875466 
L 575.116736 163.347367 
L 579.440083 160.826132 
L 583.76343 163.635436 
L 588.086777 153.845928 
L 592.410124 157.614054 
L 596.733471 162.814004 
L 601.056818 171.001374 
L 605.380165 165.77679 
L 609.703512 169.181738 
L 614.02686 165.967184 
L 618.350207 174.044367 
L 622.673554 171.367898 
L 626.996901 168.205676 
L 631.320248 173.381586 
L 635.643595 164.944264 
L 639.966942 166.897284 
L 644.290289 164.264056 
L 648.613636 168.679547 
L 657.260331 170.75011 
L 661.583678 178.083061 
L 665.907025 180.083784 
L 670.230372 174.584727 
L 674.553719 178.912387 
L 678.877066 183.928748 
L 683.200413 178.146787 
L 687.52376 180.731786 
L 691.847107 179.785184 
L 696.170455 182.346509 
L 700.493802 176.836372 
L 704.817149 172.816313 
L 709.140496 172.511456 
L 713.463843 184.522677 
L 717.78719 182.390023 
L 722.110537 177.225264 
L 726.433884 174.279958 
L 730.757231 177.104557 
L 735.080579 181.387343 
L 739.403926 166.265542 
L 748.05062 173.362019 
L 752.373967 176.639175 
L 756.697314 169.661579 
L 761.020661 170.494402 
L 765.344008 169.417031 
L 769.667355 173.030614 
L 773.990702 171.145458 
L 778.31405 166.335428 
L 782.637397 178.612278 
L 786.960744 183.994037 
L 791.284091 175.290354 
L 795.607438 171.712667 
L 799.930785 171.46882 
L 804.254132 166.628867 
L 808.577479 175.344585 
L 812.900826 172.049162 
L 817.224174 175.986753 
L 821.547521 181.840952 
L 825.870868 172.827723 
L 830.194215 169.93125 
L 834.517562 173.454975 
L 838.840909 179.371694 
L 843.164256 179.389789 
L 847.487603 180.111874 
L 851.81095 167.621321 
L 856.134298 171.196331 
L 864.780992 163.625191 
L 869.104339 175.074128 
L 873.427686 173.852633 
L 877.751033 169.62173 
L 882.07438 162.670862 
L 886.397727 157.40818 
L 890.721074 157.255033 
L 895.044421 170.819393 
L 899.367769 165.540886 
L 903.691116 168.172769 
L 908.014463 165.411181 
L 912.33781 163.123207 
L 916.661157 160.340687 
L 920.984504 164.185914 
L 925.307851 166.581083 
L 929.631198 176.602379 
L 933.954545 186.195439 
L 933.954545 186.195439 
" clip-path="url(#pf451254d9d)" style="fill: none; stroke: #ff0000; stroke-width: 1.5; stroke-linecap: square"/>
   </g>
   <g id="patch_3">
    <path d="M 135 253.8 
L 135 64.8 
" style="fill: none; stroke: #000000; stroke-width: 0.8; stroke-linejoin: miter; stroke-linecap: square"/>
   </g>
   <g id="patch_4">
    <path d="M 972 253.8 
L 972 64.8 
" style="fill: none; stroke: #000000; stroke-width: 0.8; stroke-linejoin: miter; stroke-linecap: square"/>
   </g>
   <g id="patch_5">
    <path d="M 135 253.8 
L 972 253.8 
" style="fill: none; stroke: #000000; stroke-width: 0.8; stroke-linejoin: miter; stroke-linecap: square"/>
   </g>
   <g id="patch_6">
    <path d="M 135 64.8 
L 972 64.8 
" style="fill: none; stroke: #000000; stroke-width: 0.8; stroke-linejoin: miter; stroke-linecap: square"/>
   </g>
   <g id="text_19">
    <!-- Default -->
    <g transform="translate(531.5775 58.8)scale(0.12 -0.12)">
     <defs>
      <path id="DejaVuSans-44" d="M 1259 4147 
L 1259 519 
L 2022 519 
Q 2988 519 3436 956 
Q 3884 1394 3884 2338 
Q 3884 3275 3436 3711 
Q 2988 4147 2022 4147 
L 1259 4147 
z
M 628 4666 
L 1925 4666 
Q 3281 4666 3915 4102 
Q 4550 3538 4550 2338 
Q 4550 1131 3912 565 
Q 3275 0 1925 0 
L 628 0 
L 628 4666 
z
" transform="scale(0.015625)"/>
      <path id="DejaVuSans-6c" d="M 603 4863 
L 1178 4863 
L 1178 0 
L 603 0 
L 603 4863 
z
" transform="scale(0.015625)"/>
     </defs>
     <use xlink:href="#DejaVuSans-44"/>
     <use xlink:href="#DejaVuSans-65" x="77.001953"/>
     <use xlink:href="#DejaVuSans-66" x="138.525391"/>
     <use xlink:href="#DejaVuSans-61" x="173.730469"/>
     <use xlink:href="#DejaVuSans-75" x="235.009766"/>
     <use xlink:href="#DejaVuSans-6c" x="298.388672"/>
     <use xlink:href="#DejaVuSans-74" x="326.171875"/>
    </g>
   </g>
   <g id="legend_1">
    <g id="patch_7">
     <path d="M 142 102.15625 
L 259.09375 102.15625 
Q 261.09375 102.15625 261.09375 100.15625 
L 261.09375 71.8 
Q 261.09375 69.8 259.09375 69.8 
L 142 69.8 
Q 140 69.8 140 71.8 
L 140 100.15625 
Q 140 102.15625 142 102.15625 
z
" style="fill: #ffffff; opacity: 0.8; stroke: #cccccc; stroke-linejoin: miter"/>
    </g>
    <g id="line2d_35">
     <path d="M 144 77.898438 
L 154 77.898438 
L 164 77.898438 
" style="fill: none; stroke: #000000; stroke-width: 1.5; stroke-linecap: square"/>
    </g>
    <g id="text_20">
     <!-- Original -->
     <g transform="translate(172 81.398438)scale(0.1 -0.1)">
      <use xlink:href="#DejaVuSans-4f"/>
      <use xlink:href="#DejaVuSans-72" x="78.710938"/>
      <use xlink:href="#DejaVuSans-69" x="119.824219"/>
      <use xlink:href="#DejaVuSans-67" x="147.607422"/>
      <use xlink:href="#DejaVuSans-69" x="211.083984"/>
      <use xlink:href="#DejaVuSans-6e" x="238.867188"/>
      <use xlink:href="#DejaVuSans-61" x="302.246094"/>
      <use xlink:href="#DejaVuSans-6c" x="363.525391"/>
     </g>
    </g>
    <g id="line2d_36">
     <path d="M 144 92.576563 
L 154 92.576563 
L 164 92.576563 
" style="fill: none; stroke: #ff0000; stroke-width: 1.5; stroke-linecap: square"/>
    </g>
    <g id="text_21">
     <!-- Running average -->
     <g transform="translate(172 96.076563)scale(0.1 -0.1)">
      <defs>
       <path id="DejaVuSans-52" d="M 2841 2188 
Q 3044 2119 3236 1894 
Q 3428 1669 3622 1275 
L 4263 0 
L 3584 0 
L 2988 1197 
Q 2756 1666 2539 1819 
Q 2322 1972 1947 1972 
L 1259 1972 
L 1259 0 
L 628 0 
L 628 4666 
L 2053 4666 
Q 2853 4666 3247 4331 
Q 3641 3997 3641 3322 
Q 3641 2881 3436 2590 
Q 3231 2300 2841 2188 
z
M 1259 4147 
L 1259 2491 
L 2053 2491 
Q 2509 2491 2742 2702 
Q 2975 2913 2975 3322 
Q 2975 3731 2742 3939 
Q 2509 4147 2053 4147 
L 1259 4147 
z
" transform="scale(0.015625)"/>
       <path id="DejaVuSans-76" d="M 191 3500 
L 800 3500 
L 1894 563 
L 2988 3500 
L 3597 3500 
L 2284 0 
L 1503 0 
L 191 3500 
z
" transform="scale(0.015625)"/>
      </defs>
      <use xlink:href="#DejaVuSans-52"/>
      <use xlink:href="#DejaVuSans-75" x="64.982422"/>
      <use xlink:href="#DejaVuSans-6e" x="128.361328"/>
      <use xlink:href="#DejaVuSans-6e" x="191.740234"/>
      <use xlink:href="#DejaVuSans-69" x="255.119141"/>
      <use xlink:href="#DejaVuSans-6e" x="282.902344"/>
      <use xlink:href="#DejaVuSans-67" x="346.28125"/>
      <use xlink:href="#DejaVuSans-20" x="409.757812"/>
      <use xlink:href="#DejaVuSans-61" x="441.544922"/>
      <use xlink:href="#DejaVuSans-76" x="502.824219"/>
      <use xlink:href="#DejaVuSans-65" x="562.003906"/>
      <use xlink:href="#DejaVuSans-72" x="623.527344"/>
      <use xlink:href="#DejaVuSans-61" x="664.640625"/>
      <use xlink:href="#DejaVuSans-67" x="725.919922"/>
      <use xlink:href="#DejaVuSans-65" x="789.396484"/>
     </g>
    </g>
   </g>
  </g>
  <g id="axes_2">
   <g id="patch_8">
    <path d="M 135 480.6 
L 972 480.6 
L 972 291.6 
L 135 291.6 
z
" style="fill: #ffffff"/>
   </g>
   <g id="matplotlib.axis_3">
    <g id="xtick_9">
     <g id="line2d_37">
      <path d="M 173.045455 480.6 
L 173.045455 291.6 
" clip-path="url(#pcef42e1c3c)" style="fill: none; stroke-dasharray: 0.8,1.32; stroke-dashoffset: 0; stroke: #b0b0b0; stroke-width: 0.8"/>
     </g>
     <g id="line2d_38">
      <g>
       <use xlink:href="#mfaf3817f2c" x="173.045455" y="480.6" style="stroke: #000000; stroke-width: 0.8"/>
      </g>
     </g>
     <g id="text_22">
      <!-- 0 -->
      <g transform="translate(169.864205 495.198438)scale(0.1 -0.1)">
       <use xlink:href="#DejaVuSans-30"/>
      </g>
     </g>
    </g>
    <g id="xtick_10">
     <g id="line2d_39">
      <path d="M 281.129132 480.6 
L 281.129132 291.6 
" clip-path="url(#pcef42e1c3c)" style="fill: none; stroke-dasharray: 0.8,1.32; stroke-dashoffset: 0; stroke: #b0b0b0; stroke-width: 0.8"/>
     </g>
     <g id="line2d_40">
      <g>
       <use xlink:href="#mfaf3817f2c" x="281.129132" y="480.6" style="stroke: #000000; stroke-width: 0.8"/>
      </g>
     </g>
     <g id="text_23">
      <!-- 25 -->
      <g transform="translate(274.766632 495.198438)scale(0.1 -0.1)">
       <use xlink:href="#DejaVuSans-32"/>
       <use xlink:href="#DejaVuSans-35" x="63.623047"/>
      </g>
     </g>
    </g>
    <g id="xtick_11">
     <g id="line2d_41">
      <path d="M 389.21281 480.6 
L 389.21281 291.6 
" clip-path="url(#pcef42e1c3c)" style="fill: none; stroke-dasharray: 0.8,1.32; stroke-dashoffset: 0; stroke: #b0b0b0; stroke-width: 0.8"/>
     </g>
     <g id="line2d_42">
      <g>
       <use xlink:href="#mfaf3817f2c" x="389.21281" y="480.6" style="stroke: #000000; stroke-width: 0.8"/>
      </g>
     </g>
     <g id="text_24">
      <!-- 50 -->
      <g transform="translate(382.85031 495.198438)scale(0.1 -0.1)">
       <use xlink:href="#DejaVuSans-35"/>
       <use xlink:href="#DejaVuSans-30" x="63.623047"/>
      </g>
     </g>
    </g>
    <g id="xtick_12">
     <g id="line2d_43">
      <path d="M 497.296488 480.6 
L 497.296488 291.6 
" clip-path="url(#pcef42e1c3c)" style="fill: none; stroke-dasharray: 0.8,1.32; stroke-dashoffset: 0; stroke: #b0b0b0; stroke-width: 0.8"/>
     </g>
     <g id="line2d_44">
      <g>
       <use xlink:href="#mfaf3817f2c" x="497.296488" y="480.6" style="stroke: #000000; stroke-width: 0.8"/>
      </g>
     </g>
     <g id="text_25">
      <!-- 75 -->
      <g transform="translate(490.933988 495.198438)scale(0.1 -0.1)">
       <use xlink:href="#DejaVuSans-37"/>
       <use xlink:href="#DejaVuSans-35" x="63.623047"/>
      </g>
     </g>
    </g>
    <g id="xtick_13">
     <g id="line2d_45">
      <path d="M 605.380165 480.6 
L 605.380165 291.6 
" clip-path="url(#pcef42e1c3c)" style="fill: none; stroke-dasharray: 0.8,1.32; stroke-dashoffset: 0; stroke: #b0b0b0; stroke-width: 0.8"/>
     </g>
     <g id="line2d_46">
      <g>
       <use xlink:href="#mfaf3817f2c" x="605.380165" y="480.6" style="stroke: #000000; stroke-width: 0.8"/>
      </g>
     </g>
     <g id="text_26">
      <!-- 100 -->
      <g transform="translate(595.836415 495.198438)scale(0.1 -0.1)">
       <use xlink:href="#DejaVuSans-31"/>
       <use xlink:href="#DejaVuSans-30" x="63.623047"/>
       <use xlink:href="#DejaVuSans-30" x="127.246094"/>
      </g>
     </g>
    </g>
    <g id="xtick_14">
     <g id="line2d_47">
      <path d="M 713.463843 480.6 
L 713.463843 291.6 
" clip-path="url(#pcef42e1c3c)" style="fill: none; stroke-dasharray: 0.8,1.32; stroke-dashoffset: 0; stroke: #b0b0b0; stroke-width: 0.8"/>
     </g>
     <g id="line2d_48">
      <g>
       <use xlink:href="#mfaf3817f2c" x="713.463843" y="480.6" style="stroke: #000000; stroke-width: 0.8"/>
      </g>
     </g>
     <g id="text_27">
      <!-- 125 -->
      <g transform="translate(703.920093 495.198438)scale(0.1 -0.1)">
       <use xlink:href="#DejaVuSans-31"/>
       <use xlink:href="#DejaVuSans-32" x="63.623047"/>
       <use xlink:href="#DejaVuSans-35" x="127.246094"/>
      </g>
     </g>
    </g>
    <g id="xtick_15">
     <g id="line2d_49">
      <path d="M 821.547521 480.6 
L 821.547521 291.6 
" clip-path="url(#pcef42e1c3c)" style="fill: none; stroke-dasharray: 0.8,1.32; stroke-dashoffset: 0; stroke: #b0b0b0; stroke-width: 0.8"/>
     </g>
     <g id="line2d_50">
      <g>
       <use xlink:href="#mfaf3817f2c" x="821.547521" y="480.6" style="stroke: #000000; stroke-width: 0.8"/>
      </g>
     </g>
     <g id="text_28">
      <!-- 150 -->
      <g transform="translate(812.003771 495.198438)scale(0.1 -0.1)">
       <use xlink:href="#DejaVuSans-31"/>
       <use xlink:href="#DejaVuSans-35" x="63.623047"/>
       <use xlink:href="#DejaVuSans-30" x="127.246094"/>
      </g>
     </g>
    </g>
    <g id="xtick_16">
     <g id="line2d_51">
      <path d="M 929.631198 480.6 
L 929.631198 291.6 
" clip-path="url(#pcef42e1c3c)" style="fill: none; stroke-dasharray: 0.8,1.32; stroke-dashoffset: 0; stroke: #b0b0b0; stroke-width: 0.8"/>
     </g>
     <g id="line2d_52">
      <g>
       <use xlink:href="#mfaf3817f2c" x="929.631198" y="480.6" style="stroke: #000000; stroke-width: 0.8"/>
      </g>
     </g>
     <g id="text_29">
      <!-- 175 -->
      <g transform="translate(920.087448 495.198438)scale(0.1 -0.1)">
       <use xlink:href="#DejaVuSans-31"/>
       <use xlink:href="#DejaVuSans-37" x="63.623047"/>
       <use xlink:href="#DejaVuSans-35" x="127.246094"/>
      </g>
     </g>
    </g>
    <g id="text_30">
     <!-- Number of Orders -->
     <g transform="translate(508.601562 508.876563)scale(0.1 -0.1)">
      <use xlink:href="#DejaVuSans-4e"/>
      <use xlink:href="#DejaVuSans-75" x="74.804688"/>
      <use xlink:href="#DejaVuSans-6d" x="138.183594"/>
      <use xlink:href="#DejaVuSans-62" x="235.595703"/>
      <use xlink:href="#DejaVuSans-65" x="299.072266"/>
      <use xlink:href="#DejaVuSans-72" x="360.595703"/>
      <use xlink:href="#DejaVuSans-20" x="401.708984"/>
      <use xlink:href="#DejaVuSans-6f" x="433.496094"/>
      <use xlink:href="#DejaVuSans-66" x="494.677734"/>
      <use xlink:href="#DejaVuSans-20" x="529.882812"/>
      <use xlink:href="#DejaVuSans-4f" x="561.669922"/>
      <use xlink:href="#DejaVuSans-72" x="640.380859"/>
      <use xlink:href="#DejaVuSans-64" x="679.744141"/>
      <use xlink:href="#DejaVuSans-65" x="743.220703"/>
      <use xlink:href="#DejaVuSans-72" x="804.744141"/>
      <use xlink:href="#DejaVuSans-73" x="845.857422"/>
     </g>
    </g>
   </g>
   <g id="matplotlib.axis_4">
    <g id="ytick_9">
     <g id="line2d_53">
      <path d="M 135 465.945533 
L 972 465.945533 
" clip-path="url(#pcef42e1c3c)" style="fill: none; stroke-dasharray: 0.8,1.32; stroke-dashoffset: 0; stroke: #b0b0b0; stroke-width: 0.8"/>
     </g>
     <g id="line2d_54">
      <g>
       <use xlink:href="#m7cc120c0b3" x="135" y="465.945533" style="stroke: #000000; stroke-width: 0.8"/>
      </g>
     </g>
     <g id="text_31">
      <!-- 20 -->
      <g transform="translate(115.275 469.744752)scale(0.1 -0.1)">
       <use xlink:href="#DejaVuSans-32"/>
       <use xlink:href="#DejaVuSans-30" x="63.623047"/>
      </g>
     </g>
    </g>
    <g id="ytick_10">
     <g id="line2d_55">
      <path d="M 135 425.521813 
L 972 425.521813 
" clip-path="url(#pcef42e1c3c)" style="fill: none; stroke-dasharray: 0.8,1.32; stroke-dashoffset: 0; stroke: #b0b0b0; stroke-width: 0.8"/>
     </g>
     <g id="line2d_56">
      <g>
       <use xlink:href="#m7cc120c0b3" x="135" y="425.521813" style="stroke: #000000; stroke-width: 0.8"/>
      </g>
     </g>
     <g id="text_32">
      <!-- 40 -->
      <g transform="translate(115.275 429.321032)scale(0.1 -0.1)">
       <use xlink:href="#DejaVuSans-34"/>
       <use xlink:href="#DejaVuSans-30" x="63.623047"/>
      </g>
     </g>
    </g>
    <g id="ytick_11">
     <g id="line2d_57">
      <path d="M 135 385.098093 
L 972 385.098093 
" clip-path="url(#pcef42e1c3c)" style="fill: none; stroke-dasharray: 0.8,1.32; stroke-dashoffset: 0; stroke: #b0b0b0; stroke-width: 0.8"/>
     </g>
     <g id="line2d_58">
      <g>
       <use xlink:href="#m7cc120c0b3" x="135" y="385.098093" style="stroke: #000000; stroke-width: 0.8"/>
      </g>
     </g>
     <g id="text_33">
      <!-- 60 -->
      <g transform="translate(115.275 388.897312)scale(0.1 -0.1)">
       <use xlink:href="#DejaVuSans-36"/>
       <use xlink:href="#DejaVuSans-30" x="63.623047"/>
      </g>
     </g>
    </g>
    <g id="ytick_12">
     <g id="line2d_59">
      <path d="M 135 344.674373 
L 972 344.674373 
" clip-path="url(#pcef42e1c3c)" style="fill: none; stroke-dasharray: 0.8,1.32; stroke-dashoffset: 0; stroke: #b0b0b0; stroke-width: 0.8"/>
     </g>
     <g id="line2d_60">
      <g>
       <use xlink:href="#m7cc120c0b3" x="135" y="344.674373" style="stroke: #000000; stroke-width: 0.8"/>
      </g>
     </g>
     <g id="text_34">
      <!-- 80 -->
      <g transform="translate(115.275 348.473592)scale(0.1 -0.1)">
       <use xlink:href="#DejaVuSans-38"/>
       <use xlink:href="#DejaVuSans-30" x="63.623047"/>
      </g>
     </g>
    </g>
    <g id="ytick_13">
     <g id="line2d_61">
      <path d="M 135 304.250653 
L 972 304.250653 
" clip-path="url(#pcef42e1c3c)" style="fill: none; stroke-dasharray: 0.8,1.32; stroke-dashoffset: 0; stroke: #b0b0b0; stroke-width: 0.8"/>
     </g>
     <g id="line2d_62">
      <g>
       <use xlink:href="#m7cc120c0b3" x="135" y="304.250653" style="stroke: #000000; stroke-width: 0.8"/>
      </g>
     </g>
     <g id="text_35">
      <!-- 100 -->
      <g transform="translate(108.9125 308.049872)scale(0.1 -0.1)">
       <use xlink:href="#DejaVuSans-31"/>
       <use xlink:href="#DejaVuSans-30" x="63.623047"/>
       <use xlink:href="#DejaVuSans-30" x="127.246094"/>
      </g>
     </g>
    </g>
    <g id="text_36">
     <!-- Waiting Time -->
     <g transform="translate(102.832812 418.692969)rotate(-90)scale(0.1 -0.1)">
      <use xlink:href="#DejaVuSans-57"/>
      <use xlink:href="#DejaVuSans-61" x="92.501953"/>
      <use xlink:href="#DejaVuSans-69" x="153.78125"/>
      <use xlink:href="#DejaVuSans-74" x="181.564453"/>
      <use xlink:href="#DejaVuSans-69" x="220.773438"/>
      <use xlink:href="#DejaVuSans-6e" x="248.556641"/>
      <use xlink:href="#DejaVuSans-67" x="311.935547"/>
      <use xlink:href="#DejaVuSans-20" x="375.412109"/>
      <use xlink:href="#DejaVuSans-54" x="407.199219"/>
      <use xlink:href="#DejaVuSans-69" x="465.158203"/>
      <use xlink:href="#DejaVuSans-6d" x="492.941406"/>
      <use xlink:href="#DejaVuSans-65" x="590.353516"/>
     </g>
    </g>
   </g>
   <g id="line2d_63">
    <path d="M 173.045455 436.238716 
L 181.692149 402.285096 
L 186.015496 441.160383 
L 190.338843 410.964252 
L 194.66219 409.321708 
L 198.985537 439.614014 
L 203.308884 368.396031 
L 207.632231 446.004373 
L 211.955579 431.908094 
L 216.278926 418.56302 
L 220.602273 390.995462 
L 224.92562 453.726734 
L 229.248967 395.355754 
L 233.572314 412.875254 
L 237.895661 429.520267 
L 242.219008 391.620062 
L 246.542355 392.110307 
L 250.865702 394.51451 
L 255.18905 386.821194 
L 259.512397 381.3788 
L 263.835744 394.528631 
L 268.159091 382.006567 
L 272.482438 450.167653 
L 276.805785 422.882958 
L 281.129132 446.441003 
L 285.452479 432.935096 
L 289.775826 387.64366 
L 294.099174 395.656344 
L 298.422521 409.208594 
L 302.745868 427.304474 
L 307.069215 420.14822 
L 311.392562 372.141456 
L 315.715909 420.887618 
L 320.039256 382.641163 
L 324.362603 393.374972 
L 328.68595 418.081933 
L 333.009298 434.938034 
L 337.332645 416.449684 
L 341.655992 390.458615 
L 345.979339 380.926067 
L 350.302686 391.785619 
L 354.626033 459.486665 
L 358.94938 454.109596 
L 363.272727 370.350105 
L 367.596074 378.743952 
L 371.919421 361.092775 
L 376.242769 339.247914 
L 380.566116 408.642076 
L 384.889463 401.158407 
L 389.21281 397.700656 
L 393.536157 387.18821 
L 397.859504 380.284778 
L 402.182851 369.691705 
L 406.506198 415.097483 
L 410.829545 405.991772 
L 415.152893 429.872781 
L 419.47624 421.742078 
L 423.799587 353.217928 
L 428.122934 427.181753 
L 432.446281 426.607102 
L 436.769628 407.420367 
L 441.092975 381.314096 
L 445.416322 388.368323 
L 449.739669 390.299803 
L 454.063017 345.33092 
L 458.386364 382.826676 
L 462.709711 425.039035 
L 467.033058 365.608725 
L 471.356405 367.454351 
L 475.679752 398.822054 
L 480.003099 396.340325 
L 484.326446 390.777532 
L 488.649793 326.92061 
L 492.97314 418.911628 
L 497.296488 407.420367 
L 501.619835 457.860789 
L 505.943182 399.14009 
L 510.266529 359.160262 
L 514.589876 398.032636 
L 518.913223 420.551594 
L 523.23657 406.111747 
L 527.559917 408.864127 
L 531.883264 431.723393 
L 536.206612 407.614115 
L 540.529959 384.159735 
L 544.853306 376.988423 
L 549.176653 426.131851 
L 553.5 429.066536 
L 557.823347 320.758676 
L 562.146694 405.561368 
L 566.470041 352.537301 
L 570.793388 451.713161 
L 575.116736 331.872468 
L 579.440083 411.028708 
L 583.76343 425.360376 
L 588.086777 408.864127 
L 592.410124 458.664564 
L 596.733471 469.659912 
L 601.056818 391.445638 
L 605.380165 399.967836 
L 609.703512 415.356177 
L 614.02686 391.41273 
L 618.350207 409.844122 
L 622.673554 387.920993 
L 626.996901 398.058821 
L 631.320248 385.327078 
L 635.643595 385.819598 
L 639.966942 409.230251 
L 644.290289 352.182676 
L 648.613636 412.907594 
L 652.936983 409.559097 
L 657.260331 371.216692 
L 661.583678 447.97225 
L 665.907025 357.023674 
L 670.230372 367.527906 
L 674.553719 422.690621 
L 678.877066 395.289941 
L 683.200413 342.364696 
L 687.52376 424.450966 
L 691.847107 429.917035 
L 696.170455 446.004373 
L 700.493802 337.975714 
L 704.817149 413.264433 
L 709.140496 402.562518 
L 713.463843 454.282623 
L 717.78719 356.524632 
L 722.110537 336.367498 
L 726.433884 429.388761 
L 730.757231 415.415883 
L 735.080579 430.860664 
L 739.403926 383.671985 
L 743.727273 300.190909 
L 748.05062 414.555718 
L 752.373967 430.85637 
L 756.697314 398.396344 
L 761.020661 363.714943 
L 765.344008 443.460818 
L 769.667355 427.165495 
L 773.990702 399.14009 
L 778.31405 400.182914 
L 782.637397 353.217928 
L 786.960744 414.879274 
L 791.284091 389.002297 
L 795.607438 399.967836 
L 799.930785 391.93515 
L 804.254132 399.219805 
L 808.577479 402.731877 
L 812.900826 384.382266 
L 817.224174 447.467576 
L 821.547521 382.501978 
L 825.870868 343.624877 
L 830.194215 360.334124 
L 834.517562 428.90971 
L 838.840909 403.297392 
L 843.164256 396.447286 
L 847.487603 355.862835 
L 851.81095 346.170721 
L 856.134298 415.247684 
L 860.457645 399.967836 
L 864.780992 418.527501 
L 869.104339 472.009091 
L 873.427686 408.864127 
L 877.751033 427.542999 
L 882.07438 455.738795 
L 886.397727 367.125893 
L 890.721074 408.015548 
L 895.044421 459.75614 
L 899.367769 340.13686 
L 903.691116 408.358953 
L 908.014463 459.384336 
L 912.33781 418.361612 
L 916.661157 372.248878 
L 920.984504 399.566573 
L 925.307851 400.868004 
L 929.631198 433.175633 
L 933.954545 457.417049 
L 933.954545 457.417049 
" clip-path="url(#pcef42e1c3c)" style="fill: none; stroke: #000000; stroke-width: 1.5; stroke-linecap: square"/>
   </g>
   <g id="line2d_64">
    <path d="M 211.955579 420.535092 
L 216.278926 418.767523 
L 220.602273 415.921243 
L 224.92562 421.065407 
L 229.248967 416.484944 
L 233.572314 416.676044 
L 237.895661 418.6959 
L 242.219008 413.896505 
L 246.542355 416.267933 
L 250.865702 411.118946 
L 255.18905 406.610256 
L 259.512397 402.891834 
L 263.835744 403.245151 
L 268.159091 396.073134 
L 272.482438 401.554324 
L 276.805785 402.555095 
L 281.129132 404.247168 
L 285.452479 408.378672 
L 289.775826 407.932007 
L 294.099174 408.04619 
L 298.422521 410.28493 
L 302.745868 414.877498 
L 307.069215 417.439457 
L 311.392562 416.452946 
L 315.715909 413.524942 
L 320.039256 409.500763 
L 324.362603 404.19416 
L 328.68595 402.708843 
L 333.009298 407.438281 
L 337.332645 409.517615 
L 341.655992 407.642617 
L 345.979339 403.004776 
L 350.302686 400.168516 
L 354.626033 408.903037 
L 358.94938 412.225235 
L 363.272727 410.996129 
L 367.596074 409.533027 
L 371.919421 403.834111 
L 376.242769 394.265099 
L 380.566116 393.484338 
L 384.889463 394.554318 
L 389.21281 396.231777 
L 393.536157 395.772036 
L 397.859504 387.851847 
L 402.182851 379.410058 
L 406.506198 383.884796 
L 410.829545 386.609578 
L 415.152893 393.487578 
L 419.47624 401.736995 
L 423.799587 396.19458 
L 428.122934 398.796914 
L 432.446281 401.687559 
L 436.769628 403.710775 
L 441.092975 403.813707 
L 445.416322 405.681368 
L 449.739669 403.2016 
L 454.063017 397.135515 
L 458.386364 392.430905 
L 462.709711 392.7606 
L 467.033058 393.99968 
L 471.356405 388.02694 
L 475.679752 385.248435 
L 480.003099 384.140431 
L 484.326446 385.086775 
L 488.649793 378.942003 
L 492.97314 381.803186 
L 497.296488 388.01213 
L 501.619835 395.515542 
L 505.943182 392.925647 
L 510.266529 392.280801 
L 514.589876 395.338629 
L 518.913223 397.511583 
L 523.23657 398.488725 
L 527.559917 400.297385 
L 531.883264 410.777663 
L 536.206612 409.647912 
L 540.529959 407.321849 
L 544.853306 399.234612 
L 549.176653 401.933788 
L 553.5 408.924416 
L 557.823347 401.19702 
L 562.146694 399.697997 
L 566.470041 394.340552 
L 570.793388 398.625456 
L 575.116736 388.640363 
L 579.440083 388.981823 
L 583.76343 393.101887 
L 592.410124 399.542728 
L 596.733471 403.602066 
L 601.056818 410.670762 
L 605.380165 410.111409 
L 609.703512 416.393297 
L 614.02686 410.363254 
L 618.350207 418.160419 
L 622.673554 415.849647 
L 626.996901 413.119492 
L 631.320248 410.765787 
L 635.643595 403.481291 
L 639.966942 397.438325 
L 644.290289 393.512028 
L 648.613636 394.806004 
L 652.936983 394.226296 
L 657.260331 392.206692 
L 661.583678 396.019505 
L 670.230372 389.876681 
L 674.553719 393.613036 
L 678.877066 394.56007 
L 683.200413 387.873515 
L 687.52376 395.100344 
L 691.847107 396.801288 
L 696.170455 400.445815 
L 700.493802 397.121718 
L 704.817149 393.650936 
L 709.140496 398.20482 
L 713.463843 406.880292 
L 717.78719 400.263693 
L 722.110537 394.371449 
L 726.433884 403.073855 
L 730.757231 402.170347 
L 735.080579 402.26471 
L 739.403926 396.031471 
L 743.727273 392.252991 
L 748.05062 392.382119 
L 752.373967 395.211504 
L 756.697314 389.622876 
L 761.020661 390.341907 
L 765.344008 401.051239 
L 769.667355 400.828913 
L 773.990702 399.201334 
L 782.637397 393.088153 
L 786.960744 404.556989 
L 791.284091 402.001647 
L 795.607438 398.912794 
L 799.930785 398.266675 
L 804.254132 401.817161 
L 808.577479 397.744267 
L 812.900826 393.465944 
L 817.224174 398.298692 
L 821.547521 396.530599 
L 825.870868 395.571294 
L 830.194215 390.116779 
L 834.517562 394.10752 
L 838.840909 394.440475 
L 843.164256 394.891689 
L 847.487603 390.555992 
L 851.81095 384.899877 
L 856.134298 387.986418 
L 860.457645 383.236444 
L 864.780992 386.838997 
L 869.104339 399.677418 
L 873.427686 404.530418 
L 877.751033 404.393747 
L 882.07438 409.637888 
L 886.397727 406.705748 
L 890.721074 411.92102 
L 895.044421 423.279561 
L 899.367769 415.768479 
L 903.691116 416.607591 
L 908.014463 420.693274 
L 912.33781 415.328526 
L 916.661157 411.667001 
L 920.984504 408.869359 
L 925.307851 403.38228 
L 929.631198 409.987254 
L 933.954545 414.927404 
L 933.954545 414.927404 
" clip-path="url(#pcef42e1c3c)" style="fill: none; stroke: #ff0000; stroke-width: 1.5; stroke-linecap: square"/>
   </g>
   <g id="patch_9">
    <path d="M 135 480.6 
L 135 291.6 
" style="fill: none; stroke: #000000; stroke-width: 0.8; stroke-linejoin: miter; stroke-linecap: square"/>
   </g>
   <g id="patch_10">
    <path d="M 972 480.6 
L 972 291.6 
" style="fill: none; stroke: #000000; stroke-width: 0.8; stroke-linejoin: miter; stroke-linecap: square"/>
   </g>
   <g id="patch_11">
    <path d="M 135 480.6 
L 972 480.6 
" style="fill: none; stroke: #000000; stroke-width: 0.8; stroke-linejoin: miter; stroke-linecap: square"/>
   </g>
   <g id="patch_12">
    <path d="M 135 291.6 
L 972 291.6 
" style="fill: none; stroke: #000000; stroke-width: 0.8; stroke-linejoin: miter; stroke-linecap: square"/>
   </g>
   <g id="legend_2">
    <g id="patch_13">
     <path d="M 142 328.95625 
L 259.09375 328.95625 
Q 261.09375 328.95625 261.09375 326.95625 
L 261.09375 298.6 
Q 261.09375 296.6 259.09375 296.6 
L 142 296.6 
Q 140 296.6 140 298.6 
L 140 326.95625 
Q 140 328.95625 142 328.95625 
z
" style="fill: #ffffff; opacity: 0.8; stroke: #cccccc; stroke-linejoin: miter"/>
    </g>
    <g id="line2d_65">
     <path d="M 144 304.698438 
L 154 304.698438 
L 164 304.698438 
" style="fill: none; stroke: #000000; stroke-width: 1.5; stroke-linecap: square"/>
    </g>
    <g id="text_37">
     <!-- Original -->
     <g transform="translate(172 308.198438)scale(0.1 -0.1)">
      <use xlink:href="#DejaVuSans-4f"/>
      <use xlink:href="#DejaVuSans-72" x="78.710938"/>
      <use xlink:href="#DejaVuSans-69" x="119.824219"/>
      <use xlink:href="#DejaVuSans-67" x="147.607422"/>
      <use xlink:href="#DejaVuSans-69" x="211.083984"/>
      <use xlink:href="#DejaVuSans-6e" x="238.867188"/>
      <use xlink:href="#DejaVuSans-61" x="302.246094"/>
      <use xlink:href="#DejaVuSans-6c" x="363.525391"/>
     </g>
    </g>
    <g id="line2d_66">
     <path d="M 144 319.376562 
L 154 319.376562 
L 164 319.376562 
" style="fill: none; stroke: #ff0000; stroke-width: 1.5; stroke-linecap: square"/>
    </g>
    <g id="text_38">
     <!-- Running average -->
     <g transform="translate(172 322.876562)scale(0.1 -0.1)">
      <use xlink:href="#DejaVuSans-52"/>
      <use xlink:href="#DejaVuSans-75" x="64.982422"/>
      <use xlink:href="#DejaVuSans-6e" x="128.361328"/>
      <use xlink:href="#DejaVuSans-6e" x="191.740234"/>
      <use xlink:href="#DejaVuSans-69" x="255.119141"/>
      <use xlink:href="#DejaVuSans-6e" x="282.902344"/>
      <use xlink:href="#DejaVuSans-67" x="346.28125"/>
      <use xlink:href="#DejaVuSans-20" x="409.757812"/>
      <use xlink:href="#DejaVuSans-61" x="441.544922"/>
      <use xlink:href="#DejaVuSans-76" x="502.824219"/>
      <use xlink:href="#DejaVuSans-65" x="562.003906"/>
      <use xlink:href="#DejaVuSans-72" x="623.527344"/>
      <use xlink:href="#DejaVuSans-61" x="664.640625"/>
      <use xlink:href="#DejaVuSans-67" x="725.919922"/>
      <use xlink:href="#DejaVuSans-65" x="789.396484"/>
     </g>
    </g>
   </g>
  </g>
  <g id="text_39">
   <!-- Waiting Time -->
   <g transform="translate(500.888438 19.918125)scale(0.12 -0.12)">
    <use xlink:href="#DejaVuSans-57"/>
    <use xlink:href="#DejaVuSans-61" x="92.501953"/>
    <use xlink:href="#DejaVuSans-69" x="153.78125"/>
    <use xlink:href="#DejaVuSans-74" x="181.564453"/>
    <use xlink:href="#DejaVuSans-69" x="220.773438"/>
    <use xlink:href="#DejaVuSans-6e" x="248.556641"/>
    <use xlink:href="#DejaVuSans-67" x="311.935547"/>
    <use xlink:href="#DejaVuSans-20" x="375.412109"/>
    <use xlink:href="#DejaVuSans-54" x="407.199219"/>
    <use xlink:href="#DejaVuSans-69" x="465.158203"/>
    <use xlink:href="#DejaVuSans-6d" x="492.941406"/>
    <use xlink:href="#DejaVuSans-65" x="590.353516"/>
   </g>
  </g>
 </g>
 <defs>
  <clipPath id="pf451254d9d">
   <rect x="135" y="64.8" width="837" height="189"/>
  </clipPath>
  <clipPath id="pcef42e1c3c">
   <rect x="135" y="291.6" width="837" height="189"/>
  </clipPath>
 </defs>
</svg>
