<?xml version="1.0" encoding="utf-8" standalone="no"?>
<!DOCTYPE svg PUBLIC "-//W3C//DTD SVG 1.1//EN"
  "http://www.w3.org/Graphics/SVG/1.1/DTD/svg11.dtd">
<svg xmlns:xlink="http://www.w3.org/1999/xlink" width="460.8pt" height="345.6pt" viewBox="0 0 460.8 345.6" xmlns="http://www.w3.org/2000/svg" version="1.1">
 <metadata>
  <rdf:RDF xmlns:dc="http://purl.org/dc/elements/1.1/" xmlns:cc="http://creativecommons.org/ns#" xmlns:rdf="http://www.w3.org/1999/02/22-rdf-syntax-ns#">
   <cc:Work>
    <dc:type rdf:resource="http://purl.org/dc/dcmitype/StillImage"/>
    <dc:date>2022-10-17T10:53:02.586243</dc:date>
    <dc:format>image/svg+xml</dc:format>
    <dc:creator>
     <cc:Agent>
      <dc:title>Matplotlib v3.5.3, https://matplotlib.org/</dc:title>
     </cc:Agent>
    </dc:creator>
   </cc:Work>
  </rdf:RDF>
 </metadata>
 <defs>
  <style type="text/css">*{stroke-linejoin: round; stroke-linecap: butt}</style>
 </defs>
 <g id="figure_1">
  <g id="patch_1">
   <path d="M 0 345.6 
L 460.8 345.6 
L 460.8 0 
L 0 0 
z
" style="fill: #ffffff"/>
  </g>
  <g id="axes_1">
   <g id="patch_2">
    <path d="M 57.6 307.584 
L 414.72 307.584 
L 414.72 41.472 
L 57.6 41.472 
z
" style="fill: #ffffff"/>
   </g>
   <g id="matplotlib.axis_1">
    <g id="xtick_1">
     <g id="line2d_1">
      <defs>
       <path id="m49ff9032ba" d="M 0 0 
L 0 3.5 
" style="stroke: #000000; stroke-width: 0.8"/>
      </defs>
      <g>
       <use xlink:href="#m49ff9032ba" x="73.832727" y="307.584" style="stroke: #000000; stroke-width: 0.8"/>
      </g>
     </g>
     <g id="text_1">
      <!-- 0 -->
      <g transform="translate(70.651477 322.182437)scale(0.1 -0.1)">
       <defs>
        <path id="DejaVuSans-30" d="M 2034 4250 
Q 1547 4250 1301 3770 
Q 1056 3291 1056 2328 
Q 1056 1369 1301 889 
Q 1547 409 2034 409 
Q 2525 409 2770 889 
Q 3016 1369 3016 2328 
Q 3016 3291 2770 3770 
Q 2525 4250 2034 4250 
z
M 2034 4750 
Q 2819 4750 3233 4129 
Q 3647 3509 3647 2328 
Q 3647 1150 3233 529 
Q 2819 -91 2034 -91 
Q 1250 -91 836 529 
Q 422 1150 422 2328 
Q 422 3509 836 4129 
Q 1250 4750 2034 4750 
z
" transform="scale(0.015625)"/>
       </defs>
       <use xlink:href="#DejaVuSans-30"/>
      </g>
     </g>
    </g>
    <g id="xtick_2">
     <g id="line2d_2">
      <g>
       <use xlink:href="#m49ff9032ba" x="114.434847" y="307.584" style="stroke: #000000; stroke-width: 0.8"/>
      </g>
     </g>
     <g id="text_2">
      <!-- 250 -->
      <g transform="translate(104.891097 322.182437)scale(0.1 -0.1)">
       <defs>
        <path id="DejaVuSans-32" d="M 1228 531 
L 3431 531 
L 3431 0 
L 469 0 
L 469 531 
Q 828 903 1448 1529 
Q 2069 2156 2228 2338 
Q 2531 2678 2651 2914 
Q 2772 3150 2772 3378 
Q 2772 3750 2511 3984 
Q 2250 4219 1831 4219 
Q 1534 4219 1204 4116 
Q 875 4013 500 3803 
L 500 4441 
Q 881 4594 1212 4672 
Q 1544 4750 1819 4750 
Q 2544 4750 2975 4387 
Q 3406 4025 3406 3419 
Q 3406 3131 3298 2873 
Q 3191 2616 2906 2266 
Q 2828 2175 2409 1742 
Q 1991 1309 1228 531 
z
" transform="scale(0.015625)"/>
        <path id="DejaVuSans-35" d="M 691 4666 
L 3169 4666 
L 3169 4134 
L 1269 4134 
L 1269 2991 
Q 1406 3038 1543 3061 
Q 1681 3084 1819 3084 
Q 2600 3084 3056 2656 
Q 3513 2228 3513 1497 
Q 3513 744 3044 326 
Q 2575 -91 1722 -91 
Q 1428 -91 1123 -41 
Q 819 9 494 109 
L 494 744 
Q 775 591 1075 516 
Q 1375 441 1709 441 
Q 2250 441 2565 725 
Q 2881 1009 2881 1497 
Q 2881 1984 2565 2268 
Q 2250 2553 1709 2553 
Q 1456 2553 1204 2497 
Q 953 2441 691 2322 
L 691 4666 
z
" transform="scale(0.015625)"/>
       </defs>
       <use xlink:href="#DejaVuSans-32"/>
       <use xlink:href="#DejaVuSans-35" x="63.623047"/>
       <use xlink:href="#DejaVuSans-30" x="127.246094"/>
      </g>
     </g>
    </g>
    <g id="xtick_3">
     <g id="line2d_3">
      <g>
       <use xlink:href="#m49ff9032ba" x="155.036966" y="307.584" style="stroke: #000000; stroke-width: 0.8"/>
      </g>
     </g>
     <g id="text_3">
      <!-- 500 -->
      <g transform="translate(145.493216 322.182437)scale(0.1 -0.1)">
       <use xlink:href="#DejaVuSans-35"/>
       <use xlink:href="#DejaVuSans-30" x="63.623047"/>
       <use xlink:href="#DejaVuSans-30" x="127.246094"/>
      </g>
     </g>
    </g>
    <g id="xtick_4">
     <g id="line2d_4">
      <g>
       <use xlink:href="#m49ff9032ba" x="195.639085" y="307.584" style="stroke: #000000; stroke-width: 0.8"/>
      </g>
     </g>
     <g id="text_4">
      <!-- 750 -->
      <g transform="translate(186.095335 322.182437)scale(0.1 -0.1)">
       <defs>
        <path id="DejaVuSans-37" d="M 525 4666 
L 3525 4666 
L 3525 4397 
L 1831 0 
L 1172 0 
L 2766 4134 
L 525 4134 
L 525 4666 
z
" transform="scale(0.015625)"/>
       </defs>
       <use xlink:href="#DejaVuSans-37"/>
       <use xlink:href="#DejaVuSans-35" x="63.623047"/>
       <use xlink:href="#DejaVuSans-30" x="127.246094"/>
      </g>
     </g>
    </g>
    <g id="xtick_5">
     <g id="line2d_5">
      <g>
       <use xlink:href="#m49ff9032ba" x="236.241204" y="307.584" style="stroke: #000000; stroke-width: 0.8"/>
      </g>
     </g>
     <g id="text_5">
      <!-- 1000 -->
      <g transform="translate(223.516204 322.182437)scale(0.1 -0.1)">
       <defs>
        <path id="DejaVuSans-31" d="M 794 531 
L 1825 531 
L 1825 4091 
L 703 3866 
L 703 4441 
L 1819 4666 
L 2450 4666 
L 2450 531 
L 3481 531 
L 3481 0 
L 794 0 
L 794 531 
z
" transform="scale(0.015625)"/>
       </defs>
       <use xlink:href="#DejaVuSans-31"/>
       <use xlink:href="#DejaVuSans-30" x="63.623047"/>
       <use xlink:href="#DejaVuSans-30" x="127.246094"/>
       <use xlink:href="#DejaVuSans-30" x="190.869141"/>
      </g>
     </g>
    </g>
    <g id="xtick_6">
     <g id="line2d_6">
      <g>
       <use xlink:href="#m49ff9032ba" x="276.843323" y="307.584" style="stroke: #000000; stroke-width: 0.8"/>
      </g>
     </g>
     <g id="text_6">
      <!-- 1250 -->
      <g transform="translate(264.118323 322.182437)scale(0.1 -0.1)">
       <use xlink:href="#DejaVuSans-31"/>
       <use xlink:href="#DejaVuSans-32" x="63.623047"/>
       <use xlink:href="#DejaVuSans-35" x="127.246094"/>
       <use xlink:href="#DejaVuSans-30" x="190.869141"/>
      </g>
     </g>
    </g>
    <g id="xtick_7">
     <g id="line2d_7">
      <g>
       <use xlink:href="#m49ff9032ba" x="317.445443" y="307.584" style="stroke: #000000; stroke-width: 0.8"/>
      </g>
     </g>
     <g id="text_7">
      <!-- 1500 -->
      <g transform="translate(304.720443 322.182437)scale(0.1 -0.1)">
       <use xlink:href="#DejaVuSans-31"/>
       <use xlink:href="#DejaVuSans-35" x="63.623047"/>
       <use xlink:href="#DejaVuSans-30" x="127.246094"/>
       <use xlink:href="#DejaVuSans-30" x="190.869141"/>
      </g>
     </g>
    </g>
    <g id="xtick_8">
     <g id="line2d_8">
      <g>
       <use xlink:href="#m49ff9032ba" x="358.047562" y="307.584" style="stroke: #000000; stroke-width: 0.8"/>
      </g>
     </g>
     <g id="text_8">
      <!-- 1750 -->
      <g transform="translate(345.322562 322.182437)scale(0.1 -0.1)">
       <use xlink:href="#DejaVuSans-31"/>
       <use xlink:href="#DejaVuSans-37" x="63.623047"/>
       <use xlink:href="#DejaVuSans-35" x="127.246094"/>
       <use xlink:href="#DejaVuSans-30" x="190.869141"/>
      </g>
     </g>
    </g>
    <g id="xtick_9">
     <g id="line2d_9">
      <g>
       <use xlink:href="#m49ff9032ba" x="398.649681" y="307.584" style="stroke: #000000; stroke-width: 0.8"/>
      </g>
     </g>
     <g id="text_9">
      <!-- 2000 -->
      <g transform="translate(385.924681 322.182437)scale(0.1 -0.1)">
       <use xlink:href="#DejaVuSans-32"/>
       <use xlink:href="#DejaVuSans-30" x="63.623047"/>
       <use xlink:href="#DejaVuSans-30" x="127.246094"/>
       <use xlink:href="#DejaVuSans-30" x="190.869141"/>
      </g>
     </g>
    </g>
    <g id="text_10">
     <!-- Number of Orders -->
     <g transform="translate(191.261562 335.860562)scale(0.1 -0.1)">
      <defs>
       <path id="DejaVuSans-4e" d="M 628 4666 
L 1478 4666 
L 3547 763 
L 3547 4666 
L 4159 4666 
L 4159 0 
L 3309 0 
L 1241 3903 
L 1241 0 
L 628 0 
L 628 4666 
z
" transform="scale(0.015625)"/>
       <path id="DejaVuSans-75" d="M 544 1381 
L 544 3500 
L 1119 3500 
L 1119 1403 
Q 1119 906 1312 657 
Q 1506 409 1894 409 
Q 2359 409 2629 706 
Q 2900 1003 2900 1516 
L 2900 3500 
L 3475 3500 
L 3475 0 
L 2900 0 
L 2900 538 
Q 2691 219 2414 64 
Q 2138 -91 1772 -91 
Q 1169 -91 856 284 
Q 544 659 544 1381 
z
M 1991 3584 
L 1991 3584 
z
" transform="scale(0.015625)"/>
       <path id="DejaVuSans-6d" d="M 3328 2828 
Q 3544 3216 3844 3400 
Q 4144 3584 4550 3584 
Q 5097 3584 5394 3201 
Q 5691 2819 5691 2113 
L 5691 0 
L 5113 0 
L 5113 2094 
Q 5113 2597 4934 2840 
Q 4756 3084 4391 3084 
Q 3944 3084 3684 2787 
Q 3425 2491 3425 1978 
L 3425 0 
L 2847 0 
L 2847 2094 
Q 2847 2600 2669 2842 
Q 2491 3084 2119 3084 
Q 1678 3084 1418 2786 
Q 1159 2488 1159 1978 
L 1159 0 
L 581 0 
L 581 3500 
L 1159 3500 
L 1159 2956 
Q 1356 3278 1631 3431 
Q 1906 3584 2284 3584 
Q 2666 3584 2933 3390 
Q 3200 3197 3328 2828 
z
" transform="scale(0.015625)"/>
       <path id="DejaVuSans-62" d="M 3116 1747 
Q 3116 2381 2855 2742 
Q 2594 3103 2138 3103 
Q 1681 3103 1420 2742 
Q 1159 2381 1159 1747 
Q 1159 1113 1420 752 
Q 1681 391 2138 391 
Q 2594 391 2855 752 
Q 3116 1113 3116 1747 
z
M 1159 2969 
Q 1341 3281 1617 3432 
Q 1894 3584 2278 3584 
Q 2916 3584 3314 3078 
Q 3713 2572 3713 1747 
Q 3713 922 3314 415 
Q 2916 -91 2278 -91 
Q 1894 -91 1617 61 
Q 1341 213 1159 525 
L 1159 0 
L 581 0 
L 581 4863 
L 1159 4863 
L 1159 2969 
z
" transform="scale(0.015625)"/>
       <path id="DejaVuSans-65" d="M 3597 1894 
L 3597 1613 
L 953 1613 
Q 991 1019 1311 708 
Q 1631 397 2203 397 
Q 2534 397 2845 478 
Q 3156 559 3463 722 
L 3463 178 
Q 3153 47 2828 -22 
Q 2503 -91 2169 -91 
Q 1331 -91 842 396 
Q 353 884 353 1716 
Q 353 2575 817 3079 
Q 1281 3584 2069 3584 
Q 2775 3584 3186 3129 
Q 3597 2675 3597 1894 
z
M 3022 2063 
Q 3016 2534 2758 2815 
Q 2500 3097 2075 3097 
Q 1594 3097 1305 2825 
Q 1016 2553 972 2059 
L 3022 2063 
z
" transform="scale(0.015625)"/>
       <path id="DejaVuSans-72" d="M 2631 2963 
Q 2534 3019 2420 3045 
Q 2306 3072 2169 3072 
Q 1681 3072 1420 2755 
Q 1159 2438 1159 1844 
L 1159 0 
L 581 0 
L 581 3500 
L 1159 3500 
L 1159 2956 
Q 1341 3275 1631 3429 
Q 1922 3584 2338 3584 
Q 2397 3584 2469 3576 
Q 2541 3569 2628 3553 
L 2631 2963 
z
" transform="scale(0.015625)"/>
       <path id="DejaVuSans-20" transform="scale(0.015625)"/>
       <path id="DejaVuSans-6f" d="M 1959 3097 
Q 1497 3097 1228 2736 
Q 959 2375 959 1747 
Q 959 1119 1226 758 
Q 1494 397 1959 397 
Q 2419 397 2687 759 
Q 2956 1122 2956 1747 
Q 2956 2369 2687 2733 
Q 2419 3097 1959 3097 
z
M 1959 3584 
Q 2709 3584 3137 3096 
Q 3566 2609 3566 1747 
Q 3566 888 3137 398 
Q 2709 -91 1959 -91 
Q 1206 -91 779 398 
Q 353 888 353 1747 
Q 353 2609 779 3096 
Q 1206 3584 1959 3584 
z
" transform="scale(0.015625)"/>
       <path id="DejaVuSans-66" d="M 2375 4863 
L 2375 4384 
L 1825 4384 
Q 1516 4384 1395 4259 
Q 1275 4134 1275 3809 
L 1275 3500 
L 2222 3500 
L 2222 3053 
L 1275 3053 
L 1275 0 
L 697 0 
L 697 3053 
L 147 3053 
L 147 3500 
L 697 3500 
L 697 3744 
Q 697 4328 969 4595 
Q 1241 4863 1831 4863 
L 2375 4863 
z
" transform="scale(0.015625)"/>
       <path id="DejaVuSans-4f" d="M 2522 4238 
Q 1834 4238 1429 3725 
Q 1025 3213 1025 2328 
Q 1025 1447 1429 934 
Q 1834 422 2522 422 
Q 3209 422 3611 934 
Q 4013 1447 4013 2328 
Q 4013 3213 3611 3725 
Q 3209 4238 2522 4238 
z
M 2522 4750 
Q 3503 4750 4090 4092 
Q 4678 3434 4678 2328 
Q 4678 1225 4090 567 
Q 3503 -91 2522 -91 
Q 1538 -91 948 565 
Q 359 1222 359 2328 
Q 359 3434 948 4092 
Q 1538 4750 2522 4750 
z
" transform="scale(0.015625)"/>
       <path id="DejaVuSans-64" d="M 2906 2969 
L 2906 4863 
L 3481 4863 
L 3481 0 
L 2906 0 
L 2906 525 
Q 2725 213 2448 61 
Q 2172 -91 1784 -91 
Q 1150 -91 751 415 
Q 353 922 353 1747 
Q 353 2572 751 3078 
Q 1150 3584 1784 3584 
Q 2172 3584 2448 3432 
Q 2725 3281 2906 2969 
z
M 947 1747 
Q 947 1113 1208 752 
Q 1469 391 1925 391 
Q 2381 391 2643 752 
Q 2906 1113 2906 1747 
Q 2906 2381 2643 2742 
Q 2381 3103 1925 3103 
Q 1469 3103 1208 2742 
Q 947 2381 947 1747 
z
" transform="scale(0.015625)"/>
       <path id="DejaVuSans-73" d="M 2834 3397 
L 2834 2853 
Q 2591 2978 2328 3040 
Q 2066 3103 1784 3103 
Q 1356 3103 1142 2972 
Q 928 2841 928 2578 
Q 928 2378 1081 2264 
Q 1234 2150 1697 2047 
L 1894 2003 
Q 2506 1872 2764 1633 
Q 3022 1394 3022 966 
Q 3022 478 2636 193 
Q 2250 -91 1575 -91 
Q 1294 -91 989 -36 
Q 684 19 347 128 
L 347 722 
Q 666 556 975 473 
Q 1284 391 1588 391 
Q 1994 391 2212 530 
Q 2431 669 2431 922 
Q 2431 1156 2273 1281 
Q 2116 1406 1581 1522 
L 1381 1569 
Q 847 1681 609 1914 
Q 372 2147 372 2553 
Q 372 3047 722 3315 
Q 1072 3584 1716 3584 
Q 2034 3584 2315 3537 
Q 2597 3491 2834 3397 
z
" transform="scale(0.015625)"/>
      </defs>
      <use xlink:href="#DejaVuSans-4e"/>
      <use xlink:href="#DejaVuSans-75" x="74.804688"/>
      <use xlink:href="#DejaVuSans-6d" x="138.183594"/>
      <use xlink:href="#DejaVuSans-62" x="235.595703"/>
      <use xlink:href="#DejaVuSans-65" x="299.072266"/>
      <use xlink:href="#DejaVuSans-72" x="360.595703"/>
      <use xlink:href="#DejaVuSans-20" x="401.708984"/>
      <use xlink:href="#DejaVuSans-6f" x="433.496094"/>
      <use xlink:href="#DejaVuSans-66" x="494.677734"/>
      <use xlink:href="#DejaVuSans-20" x="529.882812"/>
      <use xlink:href="#DejaVuSans-4f" x="561.669922"/>
      <use xlink:href="#DejaVuSans-72" x="640.380859"/>
      <use xlink:href="#DejaVuSans-64" x="679.744141"/>
      <use xlink:href="#DejaVuSans-65" x="743.220703"/>
      <use xlink:href="#DejaVuSans-72" x="804.744141"/>
      <use xlink:href="#DejaVuSans-73" x="845.857422"/>
     </g>
    </g>
   </g>
   <g id="matplotlib.axis_2">
    <g id="ytick_1">
     <g id="line2d_10">
      <defs>
       <path id="m96f756f2da" d="M 0 0 
L -3.5 0 
" style="stroke: #000000; stroke-width: 0.8"/>
      </defs>
      <g>
       <use xlink:href="#m96f756f2da" x="57.6" y="266.851958" style="stroke: #000000; stroke-width: 0.8"/>
      </g>
     </g>
     <g id="text_11">
      <!-- 200 -->
      <g transform="translate(31.5125 270.651176)scale(0.1 -0.1)">
       <use xlink:href="#DejaVuSans-32"/>
       <use xlink:href="#DejaVuSans-30" x="63.623047"/>
       <use xlink:href="#DejaVuSans-30" x="127.246094"/>
      </g>
     </g>
    </g>
    <g id="ytick_2">
     <g id="line2d_11">
      <g>
       <use xlink:href="#m96f756f2da" x="57.6" y="208.255072" style="stroke: #000000; stroke-width: 0.8"/>
      </g>
     </g>
     <g id="text_12">
      <!-- 400 -->
      <g transform="translate(31.5125 212.054291)scale(0.1 -0.1)">
       <defs>
        <path id="DejaVuSans-34" d="M 2419 4116 
L 825 1625 
L 2419 1625 
L 2419 4116 
z
M 2253 4666 
L 3047 4666 
L 3047 1625 
L 3713 1625 
L 3713 1100 
L 3047 1100 
L 3047 0 
L 2419 0 
L 2419 1100 
L 313 1100 
L 313 1709 
L 2253 4666 
z
" transform="scale(0.015625)"/>
       </defs>
       <use xlink:href="#DejaVuSans-34"/>
       <use xlink:href="#DejaVuSans-30" x="63.623047"/>
       <use xlink:href="#DejaVuSans-30" x="127.246094"/>
      </g>
     </g>
    </g>
    <g id="ytick_3">
     <g id="line2d_12">
      <g>
       <use xlink:href="#m96f756f2da" x="57.6" y="149.658187" style="stroke: #000000; stroke-width: 0.8"/>
      </g>
     </g>
     <g id="text_13">
      <!-- 600 -->
      <g transform="translate(31.5125 153.457406)scale(0.1 -0.1)">
       <defs>
        <path id="DejaVuSans-36" d="M 2113 2584 
Q 1688 2584 1439 2293 
Q 1191 2003 1191 1497 
Q 1191 994 1439 701 
Q 1688 409 2113 409 
Q 2538 409 2786 701 
Q 3034 994 3034 1497 
Q 3034 2003 2786 2293 
Q 2538 2584 2113 2584 
z
M 3366 4563 
L 3366 3988 
Q 3128 4100 2886 4159 
Q 2644 4219 2406 4219 
Q 1781 4219 1451 3797 
Q 1122 3375 1075 2522 
Q 1259 2794 1537 2939 
Q 1816 3084 2150 3084 
Q 2853 3084 3261 2657 
Q 3669 2231 3669 1497 
Q 3669 778 3244 343 
Q 2819 -91 2113 -91 
Q 1303 -91 875 529 
Q 447 1150 447 2328 
Q 447 3434 972 4092 
Q 1497 4750 2381 4750 
Q 2619 4750 2861 4703 
Q 3103 4656 3366 4563 
z
" transform="scale(0.015625)"/>
       </defs>
       <use xlink:href="#DejaVuSans-36"/>
       <use xlink:href="#DejaVuSans-30" x="63.623047"/>
       <use xlink:href="#DejaVuSans-30" x="127.246094"/>
      </g>
     </g>
    </g>
    <g id="ytick_4">
     <g id="line2d_13">
      <g>
       <use xlink:href="#m96f756f2da" x="57.6" y="91.061302" style="stroke: #000000; stroke-width: 0.8"/>
      </g>
     </g>
     <g id="text_14">
      <!-- 800 -->
      <g transform="translate(31.5125 94.86052)scale(0.1 -0.1)">
       <defs>
        <path id="DejaVuSans-38" d="M 2034 2216 
Q 1584 2216 1326 1975 
Q 1069 1734 1069 1313 
Q 1069 891 1326 650 
Q 1584 409 2034 409 
Q 2484 409 2743 651 
Q 3003 894 3003 1313 
Q 3003 1734 2745 1975 
Q 2488 2216 2034 2216 
z
M 1403 2484 
Q 997 2584 770 2862 
Q 544 3141 544 3541 
Q 544 4100 942 4425 
Q 1341 4750 2034 4750 
Q 2731 4750 3128 4425 
Q 3525 4100 3525 3541 
Q 3525 3141 3298 2862 
Q 3072 2584 2669 2484 
Q 3125 2378 3379 2068 
Q 3634 1759 3634 1313 
Q 3634 634 3220 271 
Q 2806 -91 2034 -91 
Q 1263 -91 848 271 
Q 434 634 434 1313 
Q 434 1759 690 2068 
Q 947 2378 1403 2484 
z
M 1172 3481 
Q 1172 3119 1398 2916 
Q 1625 2713 2034 2713 
Q 2441 2713 2670 2916 
Q 2900 3119 2900 3481 
Q 2900 3844 2670 4047 
Q 2441 4250 2034 4250 
Q 1625 4250 1398 4047 
Q 1172 3844 1172 3481 
z
" transform="scale(0.015625)"/>
       </defs>
       <use xlink:href="#DejaVuSans-38"/>
       <use xlink:href="#DejaVuSans-30" x="63.623047"/>
       <use xlink:href="#DejaVuSans-30" x="127.246094"/>
      </g>
     </g>
    </g>
    <g id="text_15">
     <!-- Waiting Time/s -->
     <g transform="translate(25.432812 211.410031)rotate(-90)scale(0.1 -0.1)">
      <defs>
       <path id="DejaVuSans-57" d="M 213 4666 
L 850 4666 
L 1831 722 
L 2809 4666 
L 3519 4666 
L 4500 722 
L 5478 4666 
L 6119 4666 
L 4947 0 
L 4153 0 
L 3169 4050 
L 2175 0 
L 1381 0 
L 213 4666 
z
" transform="scale(0.015625)"/>
       <path id="DejaVuSans-61" d="M 2194 1759 
Q 1497 1759 1228 1600 
Q 959 1441 959 1056 
Q 959 750 1161 570 
Q 1363 391 1709 391 
Q 2188 391 2477 730 
Q 2766 1069 2766 1631 
L 2766 1759 
L 2194 1759 
z
M 3341 1997 
L 3341 0 
L 2766 0 
L 2766 531 
Q 2569 213 2275 61 
Q 1981 -91 1556 -91 
Q 1019 -91 701 211 
Q 384 513 384 1019 
Q 384 1609 779 1909 
Q 1175 2209 1959 2209 
L 2766 2209 
L 2766 2266 
Q 2766 2663 2505 2880 
Q 2244 3097 1772 3097 
Q 1472 3097 1187 3025 
Q 903 2953 641 2809 
L 641 3341 
Q 956 3463 1253 3523 
Q 1550 3584 1831 3584 
Q 2591 3584 2966 3190 
Q 3341 2797 3341 1997 
z
" transform="scale(0.015625)"/>
       <path id="DejaVuSans-69" d="M 603 3500 
L 1178 3500 
L 1178 0 
L 603 0 
L 603 3500 
z
M 603 4863 
L 1178 4863 
L 1178 4134 
L 603 4134 
L 603 4863 
z
" transform="scale(0.015625)"/>
       <path id="DejaVuSans-74" d="M 1172 4494 
L 1172 3500 
L 2356 3500 
L 2356 3053 
L 1172 3053 
L 1172 1153 
Q 1172 725 1289 603 
Q 1406 481 1766 481 
L 2356 481 
L 2356 0 
L 1766 0 
Q 1100 0 847 248 
Q 594 497 594 1153 
L 594 3053 
L 172 3053 
L 172 3500 
L 594 3500 
L 594 4494 
L 1172 4494 
z
" transform="scale(0.015625)"/>
       <path id="DejaVuSans-6e" d="M 3513 2113 
L 3513 0 
L 2938 0 
L 2938 2094 
Q 2938 2591 2744 2837 
Q 2550 3084 2163 3084 
Q 1697 3084 1428 2787 
Q 1159 2491 1159 1978 
L 1159 0 
L 581 0 
L 581 3500 
L 1159 3500 
L 1159 2956 
Q 1366 3272 1645 3428 
Q 1925 3584 2291 3584 
Q 2894 3584 3203 3211 
Q 3513 2838 3513 2113 
z
" transform="scale(0.015625)"/>
       <path id="DejaVuSans-67" d="M 2906 1791 
Q 2906 2416 2648 2759 
Q 2391 3103 1925 3103 
Q 1463 3103 1205 2759 
Q 947 2416 947 1791 
Q 947 1169 1205 825 
Q 1463 481 1925 481 
Q 2391 481 2648 825 
Q 2906 1169 2906 1791 
z
M 3481 434 
Q 3481 -459 3084 -895 
Q 2688 -1331 1869 -1331 
Q 1566 -1331 1297 -1286 
Q 1028 -1241 775 -1147 
L 775 -588 
Q 1028 -725 1275 -790 
Q 1522 -856 1778 -856 
Q 2344 -856 2625 -561 
Q 2906 -266 2906 331 
L 2906 616 
Q 2728 306 2450 153 
Q 2172 0 1784 0 
Q 1141 0 747 490 
Q 353 981 353 1791 
Q 353 2603 747 3093 
Q 1141 3584 1784 3584 
Q 2172 3584 2450 3431 
Q 2728 3278 2906 2969 
L 2906 3500 
L 3481 3500 
L 3481 434 
z
" transform="scale(0.015625)"/>
       <path id="DejaVuSans-54" d="M -19 4666 
L 3928 4666 
L 3928 4134 
L 2272 4134 
L 2272 0 
L 1638 0 
L 1638 4134 
L -19 4134 
L -19 4666 
z
" transform="scale(0.015625)"/>
       <path id="DejaVuSans-2f" d="M 1625 4666 
L 2156 4666 
L 531 -594 
L 0 -594 
L 1625 4666 
z
" transform="scale(0.015625)"/>
      </defs>
      <use xlink:href="#DejaVuSans-57"/>
      <use xlink:href="#DejaVuSans-61" x="92.501953"/>
      <use xlink:href="#DejaVuSans-69" x="153.78125"/>
      <use xlink:href="#DejaVuSans-74" x="181.564453"/>
      <use xlink:href="#DejaVuSans-69" x="220.773438"/>
      <use xlink:href="#DejaVuSans-6e" x="248.556641"/>
      <use xlink:href="#DejaVuSans-67" x="311.935547"/>
      <use xlink:href="#DejaVuSans-20" x="375.412109"/>
      <use xlink:href="#DejaVuSans-54" x="407.199219"/>
      <use xlink:href="#DejaVuSans-69" x="465.158203"/>
      <use xlink:href="#DejaVuSans-6d" x="492.941406"/>
      <use xlink:href="#DejaVuSans-65" x="590.353516"/>
      <use xlink:href="#DejaVuSans-2f" x="651.876953"/>
      <use xlink:href="#DejaVuSans-73" x="685.568359"/>
     </g>
    </g>
   </g>
   <g id="line2d_14">
    <path d="M 73.832727 295.488 
L 73.995136 231.912049 
L 74.319953 196.602967 
L 74.482361 208.418113 
L 74.807178 185.024593 
L 74.969587 196.553832 
L 75.294404 184.624491 
L 75.456812 184.84682 
L 75.619221 181.442501 
L 76.106446 179.06488 
L 76.431263 169.465028 
L 76.593671 162.147266 
L 76.918488 162.95252 
L 77.080897 160.568754 
L 77.243305 164.035122 
L 77.568122 156.302499 
L 77.730531 155.924587 
L 77.892939 154.33066 
L 78.055348 151.187125 
L 78.217756 155.008645 
L 78.380165 154.154235 
L 78.542573 156.042862 
L 78.704982 154.22419 
L 78.86739 153.93021 
L 79.192207 159.530358 
L 79.517024 156.832359 
L 79.679432 157.758283 
L 79.841841 154.536543 
L 80.004249 156.848858 
L 80.166658 157.285973 
L 80.329066 156.557472 
L 80.491475 154.959168 
L 80.653883 156.512569 
L 80.816292 156.537619 
L 80.9787 154.960807 
L 81.141109 156.568754 
L 81.465926 150.841636 
L 81.628334 150.706163 
L 81.790743 152.070881 
L 82.277968 147.569197 
L 82.440377 149.008465 
L 82.765194 150.138471 
L 82.927602 151.932968 
L 83.09001 152.241272 
L 83.414827 149.948976 
L 83.577236 150.645651 
L 83.739644 150.722581 
L 84.22687 146.474018 
L 84.389278 147.843245 
L 84.551687 146.227097 
L 84.714095 146.409472 
L 84.876504 146.878811 
L 85.038912 144.963177 
L 85.201321 145.239659 
L 85.363729 144.670542 
L 85.526138 146.042362 
L 85.688546 145.643688 
L 85.850955 146.254685 
L 86.013363 146.124311 
L 86.175772 144.007964 
L 86.33818 144.32812 
L 86.500588 143.27599 
L 86.662997 144.948688 
L 86.825405 144.470353 
L 86.987814 146.049003 
L 87.150222 144.234014 
L 87.312631 144.832792 
L 87.475039 144.694634 
L 87.799856 143.175978 
L 87.962265 143.096056 
L 88.124673 142.730691 
L 88.287082 141.800103 
L 88.44949 142.976625 
L 88.936716 142.675673 
L 89.099124 142.936771 
L 89.261533 143.639949 
L 89.423941 142.757943 
L 89.58635 143.021545 
L 89.911166 145.300313 
L 90.073575 145.156891 
L 90.235983 144.569208 
L 90.398392 144.621713 
L 90.5608 145.849885 
L 90.723209 145.411918 
L 90.885617 145.535607 
L 91.048026 144.687046 
L 91.210434 145.876784 
L 91.372843 145.956228 
L 91.535251 145.867787 
L 91.69766 144.299197 
L 92.022477 144.058638 
L 92.184885 144.909242 
L 92.347294 144.810986 
L 92.509702 144.019076 
L 92.834519 145.689008 
L 93.159336 144.872663 
L 93.321745 144.673538 
L 93.484153 144.787044 
L 93.646561 144.035535 
L 94.133787 146.012678 
L 94.296195 145.541911 
L 94.458604 145.788418 
L 94.783421 143.784395 
L 94.945829 143.985146 
L 95.270646 142.84344 
L 95.433055 142.764164 
L 95.595463 143.076492 
L 95.757872 142.755154 
L 95.92028 142.019304 
L 96.082689 142.29435 
L 96.569914 141.887899 
L 96.894731 143.19782 
L 97.057139 142.041708 
L 97.219548 142.455917 
L 97.544365 141.79212 
L 97.706773 142.003908 
L 97.869182 141.68305 
L 98.193999 140.762632 
L 98.356407 140.399233 
L 98.518816 140.586336 
L 98.681224 141.347146 
L 99.16845 140.619109 
L 99.330858 141.148666 
L 99.493267 140.684236 
L 99.655675 140.809737 
L 99.818084 139.766581 
L 99.980492 140.10785 
L 100.142901 139.978446 
L 100.305309 139.6471 
L 100.467717 139.586322 
L 100.630126 140.331821 
L 100.792534 139.984397 
L 100.954943 139.331089 
L 101.27976 139.518129 
L 101.442168 139.262889 
L 101.766985 138.217609 
L 101.929394 138.378846 
L 102.091802 138.910696 
L 102.254211 138.719915 
L 102.579028 139.384327 
L 102.903845 138.496678 
L 103.066253 138.59123 
L 103.228662 138.278648 
L 103.39107 138.438697 
L 103.715887 139.888199 
L 103.878296 139.40187 
L 104.040704 139.464453 
L 104.203112 139.32996 
L 104.365521 138.81927 
L 104.527929 138.847154 
L 104.690338 139.184103 
L 104.852746 139.228461 
L 105.177563 138.450801 
L 105.339972 138.465217 
L 105.50238 139.074273 
L 105.989606 137.187359 
L 106.152014 137.398775 
L 106.314423 137.348422 
L 106.63924 136.397293 
L 106.801648 136.395727 
L 107.451282 137.51436 
L 107.61369 137.374822 
L 107.776099 136.998602 
L 107.938507 137.246695 
L 108.100916 136.631515 
L 108.263324 137.386821 
L 108.425733 137.260208 
L 108.588141 137.863453 
L 108.75055 137.949448 
L 108.912958 137.730794 
L 109.075367 138.085636 
L 109.237775 137.855476 
L 109.400184 138.149177 
L 109.562592 138.684967 
L 109.725001 138.622558 
L 109.887409 138.974608 
L 110.212226 139.113798 
L 110.374635 139.856714 
L 110.699452 139.275405 
L 111.024268 139.91933 
L 111.349085 139.226067 
L 111.511494 139.210891 
L 111.998719 139.558502 
L 112.323536 140.434305 
L 112.485945 140.493925 
L 112.648353 140.042885 
L 112.810762 140.260524 
L 113.135579 141.091465 
L 113.622804 141.072041 
L 113.785213 141.185334 
L 113.947621 141.492733 
L 114.272438 141.434502 
L 114.434847 141.668304 
L 114.597255 141.264816 
L 114.922072 141.333298 
L 115.08448 141.27908 
L 115.246889 141.604007 
L 115.896523 141.661301 
L 116.058931 141.935255 
L 116.22134 141.852283 
L 116.383748 142.220931 
L 116.708565 141.567281 
L 116.870974 141.780621 
L 117.195791 141.676403 
L 117.358199 141.750095 
L 117.683016 141.372882 
L 117.845425 141.490504 
L 118.007833 141.416058 
L 118.33265 140.556688 
L 118.819875 141.195729 
L 119.307101 141.14568 
L 119.469509 141.365401 
L 119.631918 141.003215 
L 119.794326 140.919545 
L 120.119143 140.454458 
L 120.44396 141.006092 
L 120.606369 140.918992 
L 120.931186 141.031909 
L 121.093594 140.902188 
L 121.256003 141.325 
L 121.418411 141.336938 
L 121.58082 141.699616 
L 121.743228 141.505509 
L 122.230453 142.065307 
L 122.392862 142.12548 
L 122.880087 142.861408 
L 123.042496 142.84153 
L 123.204904 142.69133 
L 123.367313 142.324398 
L 123.529721 142.270788 
L 123.854538 142.679701 
L 124.179355 143.352102 
L 124.504172 143.809751 
L 124.828989 143.303537 
L 124.991398 143.220814 
L 125.316214 143.857108 
L 125.478623 143.890059 
L 125.641031 144.165746 
L 125.80344 144.087451 
L 125.965848 144.178994 
L 126.128257 144.079688 
L 126.453074 144.637486 
L 126.777891 144.011713 
L 127.102708 144.42662 
L 127.265116 144.328532 
L 127.427525 144.08412 
L 128.239567 144.994034 
L 128.401976 145.004176 
L 128.564384 145.176905 
L 128.726792 144.907829 
L 128.889201 145.291745 
L 129.051609 144.848016 
L 129.376426 145.173336 
L 129.538835 145.151162 
L 130.02606 145.788624 
L 130.350877 145.508553 
L 130.838103 145.953705 
L 131.16292 145.615204 
L 131.325328 146.001817 
L 131.487737 145.806508 
L 131.650145 145.887003 
L 131.974962 145.719927 
L 132.299779 145.329653 
L 132.787004 146.235492 
L 132.949413 146.02689 
L 133.436638 146.418442 
L 133.599047 146.397191 
L 134.248681 145.499429 
L 134.411089 145.679942 
L 134.735906 145.37402 
L 134.898315 145.423232 
L 135.060723 145.782129 
L 135.223132 145.4538 
L 135.38554 145.6374 
L 135.547949 145.489674 
L 135.710357 145.625066 
L 135.872765 145.431745 
L 136.522399 145.429804 
L 136.847216 145.069277 
L 137.009625 144.959782 
L 137.659259 145.283101 
L 137.984076 145.113387 
L 138.146484 145.261381 
L 138.308893 145.175578 
L 138.471301 145.415781 
L 138.63371 145.339964 
L 139.120935 145.662352 
L 139.445752 145.47236 
L 139.60816 145.613653 
L 139.932977 145.348051 
L 140.095386 145.026154 
L 140.420203 145.151451 
L 140.582611 145.013975 
L 140.74502 145.324647 
L 140.907428 145.350163 
L 141.232245 145.581122 
L 141.394654 145.538212 
L 141.719471 145.216446 
L 141.881879 145.491739 
L 142.044288 145.37344 
L 142.206696 145.513505 
L 142.693922 145.279815 
L 142.85633 145.056251 
L 143.343555 145.476393 
L 143.668372 145.073696 
L 143.830781 145.167407 
L 144.480415 144.941761 
L 144.805232 145.462974 
L 145.130049 145.014484 
L 145.454866 145.213353 
L 145.617274 145.287739 
L 145.779683 144.990642 
L 145.942091 145.138721 
L 146.1045 144.91074 
L 146.266908 144.47689 
L 146.429316 144.482115 
L 147.07895 144.097521 
L 147.241359 144.097996 
L 147.403767 144.23829 
L 147.566176 143.934457 
L 148.378218 143.999976 
L 148.540627 143.685632 
L 149.352669 143.769528 
L 149.515078 143.309796 
L 149.677486 143.346344 
L 149.839894 143.148011 
L 150.002303 143.168123 
L 150.164711 142.965331 
L 150.32712 143.045648 
L 150.489528 142.716644 
L 150.651937 142.654352 
L 150.976754 142.015651 
L 151.139162 141.954585 
L 151.463979 142.094624 
L 151.951205 142.605672 
L 152.276022 142.210189 
L 152.43843 142.224759 
L 152.763247 141.847675 
L 153.250473 141.241318 
L 153.737698 141.29118 
L 154.062515 140.869325 
L 154.224923 140.7647 
L 154.54974 141.118175 
L 154.712149 141.078509 
L 155.199374 141.379531 
L 155.524191 141.712038 
L 155.6866 141.580941 
L 155.849008 141.870688 
L 156.011417 141.806494 
L 156.336234 141.356523 
L 156.498642 141.298912 
L 156.823459 141.567501 
L 157.148276 141.631403 
L 157.310684 141.377393 
L 157.473093 141.394877 
L 157.960318 140.768143 
L 158.122727 140.716115 
L 158.285135 140.487794 
L 158.447544 140.457274 
L 158.609952 140.667437 
L 159.097178 140.415343 
L 159.584403 140.463537 
L 160.396445 140.958412 
L 160.558854 140.711885 
L 161.208488 140.650095 
L 161.695713 140.88089 
L 162.02053 140.49595 
L 162.345347 140.968096 
L 162.507756 141.021294 
L 162.670164 140.893798 
L 162.832573 140.962651 
L 163.15739 140.525375 
L 163.319798 140.533078 
L 163.644615 140.402231 
L 163.807024 140.584919 
L 163.969432 140.488978 
L 164.13184 140.724122 
L 164.619066 140.804479 
L 164.781474 140.979268 
L 164.943883 140.845659 
L 165.106291 140.968116 
L 165.431108 140.811024 
L 165.593517 140.899392 
L 166.405559 140.591229 
L 166.567968 140.73223 
L 166.730376 140.522391 
L 166.892785 140.743638 
L 167.217602 140.357701 
L 167.867235 140.531087 
L 168.029644 140.446788 
L 168.192052 140.501446 
L 168.516869 140.444684 
L 168.679278 140.597418 
L 168.841686 140.376037 
L 169.166503 140.406613 
L 169.328912 140.469377 
L 169.49132 140.298004 
L 169.653729 140.390549 
L 170.140954 140.184133 
L 170.303363 140.150072 
L 170.790588 140.498303 
L 170.952996 140.570651 
L 171.115405 140.502374 
L 171.60263 140.678237 
L 171.765039 140.457921 
L 171.927447 140.685864 
L 172.252264 140.646232 
L 172.73949 140.934464 
L 172.901898 140.997112 
L 173.713941 140.448334 
L 174.038758 140.575022 
L 174.201166 140.414559 
L 174.8508 140.784323 
L 175.338025 140.803922 
L 175.500434 140.625882 
L 175.662842 140.704151 
L 175.825251 140.506181 
L 176.312476 140.963551 
L 176.637293 140.748901 
L 176.96211 140.799749 
L 177.124519 140.622752 
L 177.449336 140.84355 
L 177.611744 140.666805 
L 177.774153 140.802959 
L 178.098969 140.619214 
L 178.261378 140.763365 
L 178.586195 140.479076 
L 178.911012 140.600246 
L 179.235829 140.478742 
L 179.723054 140.187034 
L 179.885463 140.143997 
L 180.21028 140.299014 
L 180.535097 140.254017 
L 180.697505 140.305077 
L 181.022322 140.034335 
L 181.509548 139.918154 
L 182.808815 140.318838 
L 183.296041 139.93732 
L 183.458449 140.007713 
L 183.783266 139.715943 
L 184.920126 139.675164 
L 185.082534 139.778314 
L 185.407351 139.625849 
L 185.569759 139.753193 
L 185.732168 139.657158 
L 185.894576 139.711571 
L 186.381802 139.268256 
L 186.706619 139.093827 
L 187.031436 139.119413 
L 187.356253 138.965086 
L 188.005887 139.099529 
L 188.330704 138.837651 
L 188.493112 138.923545 
L 188.65552 138.756 
L 189.142746 138.788764 
L 189.467563 138.690109 
L 189.629971 138.789929 
L 189.79238 138.669409 
L 190.279605 138.730613 
L 190.766831 138.476376 
L 190.929239 138.588395 
L 191.091648 138.545599 
L 191.416465 138.084447 
L 191.741282 138.339126 
L 192.553324 138.091506 
L 192.715732 137.926214 
L 193.202958 138.044613 
L 193.527775 138.03965 
L 193.852592 137.88858 
L 194.177409 138.104719 
L 194.339817 137.986919 
L 194.827043 138.184644 
L 194.989451 138.175822 
L 195.476677 137.553042 
L 195.639085 137.594323 
L 195.963902 137.4702 
L 196.12631 137.165419 
L 197.26317 137.681876 
L 197.425578 137.49141 
L 197.750395 137.374826 
L 198.400029 137.149437 
L 198.724846 137.249971 
L 198.887255 137.008981 
L 199.212071 137.247467 
L 199.536888 137.061487 
L 199.861705 136.984162 
L 200.186522 137.109452 
L 201.160973 136.836296 
L 201.648199 137.055524 
L 201.810607 136.958994 
L 202.297833 137.07485 
L 202.460241 137.004734 
L 202.62265 137.136436 
L 202.785058 136.986495 
L 202.947466 137.033376 
L 203.434692 136.705912 
L 204.084326 136.533115 
L 204.246734 136.570895 
L 204.571551 136.449169 
L 204.73396 136.365626 
L 204.896368 136.485175 
L 205.058777 136.424008 
L 205.383594 136.700582 
L 205.870819 136.661501 
L 206.033228 136.55945 
L 206.195636 136.637043 
L 206.358044 136.539033 
L 206.682861 136.627324 
L 207.170087 136.705139 
L 207.494904 136.370482 
L 207.657312 136.29934 
L 208.144538 136.49553 
L 208.631763 136.27723 
L 209.118989 136.335648 
L 209.443806 136.368431 
L 209.768622 136.295487 
L 210.418256 136.38164 
L 210.580665 136.349088 
L 210.743073 136.492496 
L 210.905482 136.468426 
L 211.06789 136.575734 
L 211.392707 136.520101 
L 211.717524 136.505086 
L 212.854384 136.406385 
L 213.179201 136.311609 
L 213.991243 136.702159 
L 214.31606 136.552766 
L 214.965694 136.284456 
L 215.128102 136.239698 
L 215.777736 136.511852 
L 216.102553 136.436469 
L 216.264962 136.347728 
L 216.42737 136.49105 
L 216.914595 136.460508 
L 217.077004 136.534153 
L 217.239412 136.435795 
L 218.213863 136.847337 
L 218.53868 136.905378 
L 219.350723 136.656241 
L 219.67554 136.702853 
L 219.837948 136.584696 
L 220.974807 136.807592 
L 221.137216 136.690469 
L 221.78685 137.012674 
L 222.274075 136.790856 
L 222.436484 136.770251 
L 222.761301 136.552838 
L 222.923709 136.658886 
L 223.248526 136.688536 
L 223.573343 136.787996 
L 224.060568 136.652478 
L 224.872611 137.034572 
L 225.359836 136.824067 
L 225.684653 137.014991 
L 226.171879 136.560945 
L 226.659104 136.596371 
L 227.471146 136.521749 
L 227.633555 136.575098 
L 227.958372 136.45979 
L 228.12078 136.392487 
L 228.445597 136.487329 
L 230.232091 136.530883 
L 230.556908 136.345301 
L 231.044133 136.553454 
L 231.36895 136.379763 
L 231.693767 136.480414 
L 232.018584 136.357341 
L 232.180992 136.439409 
L 232.505809 136.366291 
L 232.993035 136.523801 
L 233.155443 136.35474 
L 233.317852 136.479861 
L 233.967486 136.4382 
L 234.292303 136.654357 
L 234.617119 136.408634 
L 234.779528 136.457989 
L 234.941936 136.37504 
L 235.104345 136.45202 
L 235.266753 136.171889 
L 236.403613 136.312373 
L 236.72843 136.477759 
L 237.215655 136.185763 
L 237.540472 136.294875 
L 238.677331 136.572692 
L 239.326965 136.429818 
L 239.651782 136.339236 
L 239.976599 136.472957 
L 240.139008 136.52991 
L 240.463825 136.22737 
L 240.626233 136.188425 
L 241.275867 136.399309 
L 241.600684 136.430758 
L 241.763092 136.449477 
L 241.925501 136.603266 
L 242.575135 136.397624 
L 243.06236 136.391547 
L 243.387177 136.340481 
L 244.361628 136.196984 
L 244.524037 136.104968 
L 244.686445 136.175253 
L 245.011262 136.034801 
L 245.498487 136.263281 
L 245.823304 136.102306 
L 246.148121 136.152688 
L 246.797755 136.078747 
L 246.960164 135.956766 
L 247.122572 136.032166 
L 247.284981 135.91994 
L 247.609798 135.868612 
L 247.772206 135.734064 
L 248.584248 135.75622 
L 248.746657 135.477297 
L 249.558699 135.522847 
L 249.721108 135.404784 
L 250.045925 135.38672 
L 250.208333 135.25575 
L 250.53315 135.405592 
L 250.695559 135.23416 
L 251.507601 135.403973 
L 253.78132 135.070956 
L 254.106137 134.962872 
L 254.430954 135.067827 
L 254.755771 134.854013 
L 255.405405 134.756573 
L 257.029489 134.40138 
L 257.191898 134.485179 
L 257.354306 134.372817 
L 257.516715 134.467752 
L 257.841532 134.339831 
L 258.815983 134.262903 
L 259.303208 134.080773 
L 259.465616 134.060054 
L 259.790433 133.792594 
L 260.602476 133.763401 
L 260.927293 133.826551 
L 261.414518 133.689259 
L 261.901744 133.57152 
L 263.850645 133.28644 
L 264.337871 133.519123 
L 264.825096 133.756348 
L 265.637139 133.573123 
L 265.961956 133.493555 
L 266.286772 133.552557 
L 266.611589 133.757458 
L 267.423632 133.877804 
L 267.748449 133.572267 
L 268.073266 133.575201 
L 268.885308 133.5086 
L 270.022167 133.884957 
L 270.346984 133.724955 
L 270.83421 133.811816 
L 271.159027 133.973823 
L 271.971069 133.801817 
L 272.295886 133.823239 
L 272.783112 133.806558 
L 272.94552 133.909493 
L 273.107929 133.808927 
L 273.270337 133.842618 
L 273.595154 133.704636 
L 274.569605 133.833026 
L 276.356098 133.485947 
L 276.518507 133.54239 
L 277.16814 133.147191 
L 277.492957 133.228885 
L 277.655366 133.334871 
L 278.305 133.190132 
L 279.441859 133.223686 
L 279.604268 133.066687 
L 279.766676 133.130744 
L 280.091493 132.868769 
L 280.578718 132.825959 
L 280.903535 132.838279 
L 282.690029 132.755171 
L 282.852437 132.82773 
L 283.177254 132.806349 
L 287.237466 131.991702 
L 287.562283 131.981474 
L 287.8871 132.013107 
L 288.049508 131.926056 
L 288.374325 132.010234 
L 288.699142 131.821745 
L 289.348776 131.981129 
L 290.648044 131.549389 
L 290.972861 131.595509 
L 291.784903 131.39361 
L 292.759354 131.47432 
L 294.058622 131.006713 
L 296.332341 130.827819 
L 296.657158 130.869928 
L 299.255693 130.970567 
L 299.58051 130.798818 
L 299.905327 130.853919 
L 300.392553 130.633788 
L 300.879778 130.642551 
L 301.529412 130.492545 
L 302.179046 130.555061 
L 302.503863 130.510435 
L 302.991088 130.598318 
L 303.803131 130.396171 
L 304.127948 130.323189 
L 304.452765 130.39438 
L 307.0513 130.203832 
L 307.213709 130.308131 
L 307.863343 130.282236 
L 308.18816 130.216797 
L 308.512976 130.177893 
L 308.675385 130.270513 
L 309.325019 130.081355 
L 309.974653 130.016131 
L 311.273921 129.867162 
L 311.436329 129.824896 
L 311.598738 129.904056 
L 312.248371 129.658763 
L 312.41078 129.705606 
L 312.573188 129.582957 
L 312.898005 129.568821 
L 313.547639 129.485839 
L 313.872456 129.482638 
L 314.846907 129.391855 
L 315.334133 129.416473 
L 315.821358 129.254542 
L 316.470992 129.168257 
L 316.795809 129.168408 
L 317.607851 129.131423 
L 317.77026 129.085181 
L 318.095077 129.235629 
L 319.231936 129.162533 
L 319.88157 129.161991 
L 320.368795 129.198346 
L 320.693612 129.058577 
L 321.018429 129.07692 
L 321.343246 129.057772 
L 321.505655 128.923994 
L 322.317697 128.891824 
L 322.804922 128.874567 
L 323.454556 129.065002 
L 324.429007 129.251453 
L 324.916233 129.107076 
L 325.890684 129.109892 
L 326.377909 129.180277 
L 327.514768 129.342947 
L 327.839585 129.308513 
L 328.326811 129.330852 
L 328.814036 129.274448 
L 329.138853 129.246852 
L 329.950895 129.278868 
L 330.275712 129.261619 
L 332.062206 129.219102 
L 332.71184 129.483358 
L 333.036657 129.440839 
L 333.68629 129.38283 
L 334.011107 129.414385 
L 334.660741 129.219156 
L 335.147967 129.264416 
L 335.635192 129.071405 
L 336.609643 128.914818 
L 336.772051 128.952168 
L 337.096868 128.867209 
L 337.259277 128.932184 
L 338.233728 128.680502 
L 339.04577 128.849956 
L 340.994672 128.462698 
L 341.319489 128.474773 
L 341.644306 128.304493 
L 341.969123 128.169814 
L 342.456348 128.141657 
L 342.781165 128.21617 
L 343.430799 128.114902 
L 343.918024 127.957422 
L 344.242841 127.847517 
L 344.892475 127.805718 
L 345.379701 127.805326 
L 345.704518 127.669443 
L 347.328602 127.576719 
L 347.491011 127.508399 
L 347.815828 127.558763 
L 348.465462 127.616595 
L 348.790279 127.634816 
L 349.115096 127.599177 
L 349.602321 127.755618 
L 350.414364 127.602224 
L 350.901589 127.684586 
L 351.87604 127.664772 
L 352.200857 127.69487 
L 353.337716 127.523907 
L 353.98735 127.537703 
L 354.961801 127.606962 
L 355.286618 127.648327 
L 356.748294 127.816276 
L 357.073111 127.778621 
L 357.885153 127.759916 
L 358.20997 127.609663 
L 359.184421 127.708855 
L 359.509238 127.675648 
L 359.996464 127.777155 
L 360.808506 127.638521 
L 361.133323 127.597498 
L 361.295732 127.657753 
L 362.107774 127.45216 
L 362.594999 127.505386 
L 362.919816 127.488221 
L 363.244633 127.422547 
L 363.894267 127.400109 
L 364.543901 127.224442 
L 365.355943 126.989293 
L 366.330394 126.964115 
L 367.629662 126.811926 
L 369.091338 126.798236 
L 369.253747 126.662479 
L 369.578564 126.752239 
L 369.903381 126.672559 
L 370.390606 126.812786 
L 370.553015 126.760098 
L 370.715423 126.837654 
L 371.689874 126.6526 
L 372.177099 126.758106 
L 373.963593 126.828679 
L 374.450818 126.734395 
L 374.775635 126.757121 
L 375.425269 126.784262 
L 376.562128 126.800324 
L 376.886945 126.720381 
L 377.536579 126.881197 
L 378.186213 126.782673 
L 379.160664 126.779944 
L 380.784749 126.967662 
L 381.109566 126.875546 
L 381.7592 126.949198 
L 382.246425 126.90361 
L 382.896059 127.017456 
L 383.383284 127.056382 
L 383.708101 126.993459 
L 385.98182 127.137165 
L 386.469045 127.191604 
L 386.793862 127.138347 
L 387.281088 127.220069 
L 387.605905 127.210368 
L 388.742764 127.249095 
L 389.067581 127.223947 
L 390.366849 127.191074 
L 391.178891 127.197855 
L 391.666117 127.230444 
L 392.478159 127.219581 
L 392.965385 127.250313 
L 393.615018 127.286775 
L 394.264652 127.302171 
L 394.589469 127.292518 
L 395.076695 127.306258 
L 395.56392 127.231114 
L 397.188005 127.376671 
L 398.487273 127.096061 
L 398.487273 127.096061 
" clip-path="url(#p07a1c5d830)" style="fill: none; stroke-dasharray: 2,3.3; stroke-dashoffset: 0; stroke: #0000ff; stroke-width: 2"/>
   </g>
   <g id="line2d_15">
    <path d="M 73.832727 295.488 
L 73.995136 231.912049 
L 74.319953 196.602967 
L 74.482361 208.418113 
L 74.807178 185.024593 
L 74.969587 196.553832 
L 75.294404 184.624491 
L 75.456812 184.84682 
L 75.619221 181.442501 
L 76.106446 179.06488 
L 76.431263 169.465028 
L 76.593671 162.147266 
L 76.75608 163.727217 
L 77.243305 152.97096 
L 77.405714 152.145878 
L 77.568122 148.700434 
L 77.730531 149.871335 
L 78.055348 147.994506 
L 78.217756 147.559827 
L 78.380165 144.11491 
L 78.542573 148.699577 
L 78.704982 144.498033 
L 78.86739 145.884325 
L 79.029799 145.714438 
L 79.192207 148.626273 
L 79.354615 145.31956 
L 79.517024 145.812865 
L 79.679432 143.969231 
L 79.841841 145.073597 
L 80.004249 143.626286 
L 80.166658 145.866189 
L 80.329066 145.271792 
L 80.491475 145.748515 
L 80.816292 142.413363 
L 80.9787 138.199534 
L 81.141109 139.954806 
L 81.465926 134.721461 
L 81.790743 131.171736 
L 82.11556 135.472035 
L 82.927602 127.728733 
L 83.09001 127.682541 
L 83.252419 125.747207 
L 83.414827 126.461513 
L 83.739644 124.346069 
L 84.064461 121.586497 
L 84.551687 124.734792 
L 84.714095 122.882041 
L 84.876504 123.876046 
L 85.038912 123.487733 
L 85.201321 120.800901 
L 85.363729 120.482249 
L 85.688546 123.673383 
L 85.850955 122.284238 
L 86.013363 124.157089 
L 86.33818 122.143641 
L 86.662997 119.834216 
L 86.987814 120.462543 
L 87.150222 120.18381 
L 87.312631 117.341931 
L 87.475039 117.423467 
L 87.962265 112.301778 
L 88.287082 110.987748 
L 88.44949 111.208796 
L 88.611899 111.68684 
L 88.774307 111.046453 
L 88.936716 111.628657 
L 89.261533 113.724375 
L 89.423941 113.59025 
L 89.58635 113.621566 
L 89.748758 115.058295 
L 90.073575 116.264266 
L 90.235983 115.415987 
L 90.5608 115.126681 
L 90.723209 116.425263 
L 90.885617 115.441015 
L 91.372843 115.072592 
L 91.69766 112.700452 
L 91.860068 113.186949 
L 92.022477 112.216438 
L 92.184885 113.223076 
L 92.347294 113.301244 
L 92.509702 111.523643 
L 92.834519 112.841945 
L 92.996928 113.241795 
L 93.159336 113.067627 
L 93.321745 112.416213 
L 93.484153 113.00497 
L 93.646561 112.291393 
L 93.80897 113.183939 
L 93.971378 112.676192 
L 94.133787 111.525835 
L 94.296195 111.468719 
L 94.458604 110.591742 
L 94.621012 110.686563 
L 94.783421 110.255735 
L 94.945829 110.519318 
L 95.108238 110.358575 
L 95.433055 108.150468 
L 95.757872 108.326975 
L 95.92028 107.430438 
L 96.082689 108.470651 
L 96.245097 107.875783 
L 96.407506 108.575596 
L 96.569914 108.435648 
L 97.057139 106.563563 
L 97.219548 106.556338 
L 97.381956 105.948391 
L 97.544365 105.972532 
L 97.706773 107.068492 
L 97.869182 107.016221 
L 98.193999 105.927173 
L 98.356407 106.633804 
L 98.681224 106.595995 
L 99.006041 105.256663 
L 99.16845 105.494902 
L 99.330858 104.729716 
L 99.655675 104.311418 
L 99.818084 104.492688 
L 99.980492 105.458918 
L 100.305309 103.883518 
L 100.467717 104.06064 
L 100.630126 102.461269 
L 100.792534 102.59467 
L 100.954943 101.945469 
L 101.117351 102.209352 
L 101.27976 101.967945 
L 101.442168 101.186789 
L 101.604577 99.584284 
L 101.766985 99.455217 
L 101.929394 98.636629 
L 102.091802 98.754485 
L 102.579028 96.790909 
L 102.741436 97.068177 
L 102.903845 97.795188 
L 103.228662 97.240703 
L 103.39107 97.124947 
L 103.553479 96.683515 
L 103.715887 96.812307 
L 103.878296 96.764843 
L 104.040704 96.03297 
L 104.203112 96.116365 
L 104.365521 96.327914 
L 104.690338 96.012233 
L 104.852746 96.349619 
L 105.664789 93.84303 
L 105.989606 94.765693 
L 106.152014 93.498852 
L 106.476831 94.220567 
L 106.63924 93.92087 
L 106.801648 94.082033 
L 106.964057 94.005983 
L 107.126465 93.533413 
L 107.288874 94.221488 
L 107.451282 94.364064 
L 107.61369 95.160485 
L 107.776099 94.883241 
L 107.938507 95.353156 
L 108.588141 92.803031 
L 108.75055 92.521982 
L 108.912958 92.628897 
L 109.075367 92.957446 
L 109.562592 91.886648 
L 109.725001 91.860121 
L 109.887409 91.707473 
L 110.212226 92.066788 
L 110.374635 91.946489 
L 110.699452 92.507328 
L 110.86186 92.440953 
L 111.186677 92.704614 
L 111.349085 91.696021 
L 111.673902 92.484821 
L 111.836311 92.586349 
L 112.323536 93.118672 
L 112.485945 92.556339 
L 112.648353 92.462724 
L 112.810762 92.205779 
L 112.97317 92.39469 
L 113.297987 93.230486 
L 113.460396 93.064121 
L 113.622804 93.068781 
L 113.785213 93.331542 
L 113.947621 93.902861 
L 114.11003 93.632718 
L 114.272438 93.605279 
L 114.759663 93.291965 
L 115.08448 93.194924 
L 115.246889 93.420126 
L 115.409297 93.232568 
L 115.571706 92.863379 
L 115.896523 93.526795 
L 116.22134 93.810477 
L 116.383748 93.658648 
L 116.708565 93.212077 
L 116.870974 93.155247 
L 117.033382 93.759809 
L 117.358199 93.253376 
L 117.520608 93.561483 
L 117.845425 92.678528 
L 118.007833 92.878863 
L 118.170241 92.891802 
L 118.33265 92.359577 
L 118.657467 92.185877 
L 118.819875 92.33543 
L 118.982284 91.896337 
L 119.307101 91.852586 
L 119.469509 91.42324 
L 119.794326 91.638115 
L 120.119143 91.005449 
L 120.281552 91.275704 
L 120.44396 91.176577 
L 120.606369 91.276664 
L 120.768777 91.693458 
L 120.931186 91.730326 
L 121.418411 90.636495 
L 121.58082 91.102027 
L 121.743228 91.061869 
L 122.068045 91.666554 
L 122.230453 92.1931 
L 122.55527 92.376595 
L 122.880087 92.413054 
L 123.204904 92.63732 
L 123.69213 91.902926 
L 124.179355 92.267318 
L 124.341764 91.645776 
L 124.504172 91.766233 
L 125.153806 93.624506 
L 125.641031 92.962014 
L 125.80344 92.918371 
L 126.128257 93.223162 
L 126.453074 92.946528 
L 126.615482 93.073425 
L 126.777891 92.935096 
L 126.940299 92.05903 
L 127.102708 92.282603 
L 127.265116 92.057606 
L 127.427525 92.479926 
L 127.752342 92.505979 
L 128.077159 92.578286 
L 128.239567 92.129298 
L 128.401976 92.403818 
L 128.564384 91.860243 
L 129.051609 91.889 
L 129.701243 92.785832 
L 129.863652 92.100161 
L 130.350877 92.814389 
L 130.675694 91.837204 
L 130.838103 91.489792 
L 131.000511 91.505185 
L 131.325328 91.074809 
L 131.487737 91.557346 
L 131.650145 91.408278 
L 131.812554 90.970099 
L 132.137371 91.552047 
L 132.299779 91.25149 
L 132.462187 91.384087 
L 132.624596 91.694888 
L 132.787004 91.571462 
L 132.949413 91.736227 
L 133.111821 91.607877 
L 133.27423 91.246283 
L 133.599047 91.958009 
L 133.761455 92.17528 
L 133.923864 92.117322 
L 134.411089 91.315325 
L 134.573498 91.468576 
L 134.735906 91.276867 
L 134.898315 91.487545 
L 135.060723 91.240531 
L 135.223132 90.53223 
L 135.38554 90.593089 
L 135.710357 90.176685 
L 135.872765 90.29723 
L 136.035174 89.818362 
L 136.197582 90.290044 
L 136.359991 90.361209 
L 136.522399 90.179936 
L 136.684808 89.591131 
L 136.847216 89.55036 
L 137.172033 89.816431 
L 137.334442 89.603897 
L 137.49685 88.979938 
L 137.659259 88.985732 
L 137.984076 88.514016 
L 138.146484 88.779101 
L 138.308893 88.811821 
L 138.471301 88.703887 
L 138.63371 88.420087 
L 138.958527 88.518922 
L 139.120935 88.102191 
L 139.283343 88.050247 
L 139.60816 87.590643 
L 139.770569 87.996117 
L 140.095386 88.211927 
L 140.257794 87.933262 
L 140.582611 87.768474 
L 140.74502 87.522107 
L 140.907428 87.514536 
L 141.069837 87.83353 
L 141.232245 87.775159 
L 141.394654 88.017623 
L 141.881879 87.382084 
L 142.369105 87.152567 
L 142.693922 86.583418 
L 143.343555 87.183817 
L 143.505964 86.950434 
L 143.830781 87.505829 
L 143.993189 87.819526 
L 144.155598 87.649097 
L 144.318006 87.226657 
L 144.480415 87.463598 
L 144.805232 86.988029 
L 144.96764 86.888127 
L 145.130049 87.114389 
L 145.617274 86.243028 
L 145.942091 85.298242 
L 146.1045 85.236639 
L 146.266908 85.0254 
L 146.429316 85.162232 
L 146.591725 84.757845 
L 146.754133 84.655851 
L 147.07895 84.163824 
L 147.241359 84.128028 
L 147.403767 84.321347 
L 147.728584 84.296631 
L 148.053401 84.400396 
L 148.540627 83.522752 
L 148.703035 83.560577 
L 148.865444 83.194019 
L 149.190261 83.269799 
L 149.352669 83.058029 
L 149.677486 83.309762 
L 149.839894 82.982647 
L 150.002303 83.046273 
L 150.32712 82.864176 
L 150.489528 82.803376 
L 150.976754 82.161971 
L 151.139162 81.963265 
L 151.301571 81.990661 
L 151.463979 82.197375 
L 151.626388 81.784679 
L 151.788796 81.786205 
L 151.951205 81.395071 
L 152.113613 81.315151 
L 152.600839 81.487585 
L 152.763247 81.385674 
L 152.925656 81.478902 
L 153.088064 81.820099 
L 153.412881 81.65105 
L 153.737698 81.093424 
L 153.900106 81.548871 
L 154.062515 81.615804 
L 154.224923 81.294536 
L 154.54974 81.627663 
L 154.874557 81.848993 
L 155.199374 82.139816 
L 155.6866 82.076266 
L 155.849008 81.815041 
L 156.011417 81.970169 
L 156.661051 81.16159 
L 156.823459 81.109282 
L 157.310684 80.610212 
L 157.473093 79.941077 
L 157.960318 79.825255 
L 158.447544 80.228846 
L 158.609952 79.99707 
L 158.772361 79.45978 
L 158.934769 79.679217 
L 159.259586 79.361966 
L 159.421995 79.628839 
L 159.584403 79.49193 
L 159.90922 79.777 
L 160.234037 79.648574 
L 160.396445 79.855288 
L 160.721262 79.333796 
L 160.883671 79.225589 
L 161.046079 79.358933 
L 161.208488 79.338294 
L 161.370896 79.13632 
L 161.695713 79.525424 
L 162.02053 79.10637 
L 162.182939 79.433856 
L 162.345347 79.382305 
L 162.832573 78.773534 
L 162.994981 79.125756 
L 163.482207 78.659876 
L 163.807024 79.05494 
L 164.13184 78.912479 
L 164.294249 79.125562 
L 164.456657 78.826824 
L 164.619066 78.907382 
L 164.943883 78.522902 
L 165.106291 78.376241 
L 165.2687 78.591015 
L 165.431108 78.36729 
L 165.593517 78.460418 
L 165.755925 78.313686 
L 165.918334 78.325416 
L 166.080742 78.098916 
L 166.405559 78.25355 
L 166.567968 78.134207 
L 167.055193 77.508631 
L 167.217602 77.434396 
L 167.542418 77.796143 
L 167.867235 77.731784 
L 168.192052 77.72691 
L 168.354461 77.866858 
L 168.679278 77.15882 
L 169.004095 77.176023 
L 169.166503 77.00726 
L 169.328912 77.069944 
L 169.49132 76.872891 
L 169.653729 77.073965 
L 169.816137 76.622865 
L 169.978546 76.66917 
L 170.140954 76.518867 
L 170.303363 76.679916 
L 170.62818 76.336517 
L 170.790588 76.345798 
L 170.952996 76.048952 
L 171.115405 76.033342 
L 171.277813 75.841701 
L 171.440222 75.979389 
L 171.765039 75.861449 
L 171.927447 75.992641 
L 172.414673 75.818281 
L 172.577081 75.933318 
L 172.73949 75.826367 
L 172.901898 75.881261 
L 173.064307 75.796418 
L 173.226715 75.583292 
L 173.551532 75.857136 
L 173.713941 75.797334 
L 173.876349 75.899102 
L 174.038758 75.65735 
L 174.201166 75.746342 
L 174.363575 75.60586 
L 174.525983 75.956982 
L 174.688391 75.932822 
L 175.013208 76.322922 
L 175.175617 76.075152 
L 175.338025 76.180439 
L 175.662842 75.928995 
L 175.987659 75.829644 
L 176.150068 75.780685 
L 176.637293 75.128732 
L 176.799702 75.026351 
L 177.124519 74.696585 
L 177.774153 74.414335 
L 178.098969 74.773659 
L 178.261378 74.825792 
L 178.586195 74.353633 
L 178.911012 74.131196 
L 179.235829 74.228286 
L 179.560646 74.078982 
L 179.723054 74.322663 
L 179.885463 74.339541 
L 180.047871 74.073652 
L 180.21028 74.185415 
L 180.372688 74.065832 
L 180.697505 74.232969 
L 181.184731 73.708811 
L 181.347139 73.771819 
L 181.509548 73.638936 
L 181.996773 73.826865 
L 182.32159 73.372533 
L 183.133632 72.752406 
L 183.458449 72.9138 
L 183.783266 72.925961 
L 183.945675 72.917298 
L 184.108083 72.681811 
L 184.270492 72.851006 
L 185.407351 72.77248 
L 185.569759 72.627976 
L 186.056985 72.808295 
L 186.219393 72.767898 
L 186.381802 72.405171 
L 186.54421 72.491523 
L 186.706619 72.191146 
L 186.869027 72.150165 
L 187.031436 72.363166 
L 187.193844 72.072705 
L 187.356253 72.082671 
L 187.68107 71.722425 
L 188.005887 71.862604 
L 188.168295 71.606605 
L 188.493112 71.820241 
L 188.65552 71.729987 
L 188.817929 71.851792 
L 189.142746 71.640554 
L 189.467563 71.65817 
L 189.629971 71.382195 
L 189.79238 71.430432 
L 189.954788 71.678011 
L 190.117197 71.707933 
L 190.442014 71.379845 
L 190.929239 71.343644 
L 191.091648 71.208805 
L 191.254056 71.279672 
L 191.578873 70.881094 
L 191.90369 70.738384 
L 192.066099 70.428867 
L 192.228507 70.482624 
L 192.390915 70.158959 
L 192.715732 70.277268 
L 192.878141 70.433296 
L 193.202958 70.133859 
L 193.527775 69.998104 
L 194.664634 68.810516 
L 194.989451 68.666268 
L 195.314268 68.980613 
L 195.476677 69.019141 
L 195.801493 68.828138 
L 196.451127 69.134789 
L 196.775944 69.115528 
L 196.938353 68.823588 
L 197.100761 68.939036 
L 197.587987 68.70895 
L 197.750395 68.543505 
L 198.075212 68.561532 
L 198.400029 68.255545 
L 198.887255 67.990639 
L 199.049663 68.067212 
L 199.212071 67.820912 
L 199.37448 67.997006 
L 200.511339 67.911455 
L 200.673748 68.024709 
L 200.836156 67.887069 
L 200.998565 68.04045 
L 201.160973 67.908729 
L 201.648199 68.458295 
L 202.460241 68.203665 
L 202.62265 68.323239 
L 203.272283 68.169826 
L 203.759509 67.703719 
L 204.084326 67.980255 
L 204.409143 67.973911 
L 204.73396 68.209179 
L 205.058777 67.937689 
L 205.546002 68.058151 
L 206.195636 68.177375 
L 206.358044 68.099869 
L 206.520453 68.226124 
L 206.84527 67.671781 
L 207.170087 67.867218 
L 207.819721 68.012307 
L 207.982129 68.154355 
L 208.144538 67.979114 
L 208.631763 68.27447 
L 208.95658 68.413709 
L 209.443806 68.423179 
L 209.606214 68.518019 
L 210.255848 68.219818 
L 210.418256 68.352769 
L 210.743073 68.358153 
L 211.555116 68.73041 
L 211.879933 68.712173 
L 212.042341 68.777127 
L 212.691975 68.494637 
L 212.854384 68.470076 
L 213.016792 68.690153 
L 213.341609 68.444144 
L 213.504017 68.463749 
L 213.666426 68.304401 
L 213.828834 68.335513 
L 214.153651 68.104895 
L 214.640877 68.188987 
L 214.965694 68.070325 
L 215.290511 68.225576 
L 215.615328 68.129195 
L 215.777736 68.234586 
L 215.940145 68.159925 
L 216.102553 68.321985 
L 216.752187 68.183393 
L 216.914595 68.268641 
L 217.077004 68.075045 
L 217.239412 68.234205 
L 217.401821 68.09804 
L 217.889046 68.323988 
L 218.376272 67.856043 
L 218.53868 67.910082 
L 218.863497 67.767732 
L 219.025906 67.865873 
L 219.350723 67.716445 
L 219.837948 67.998807 
L 220.162765 68.033406 
L 220.325173 67.867846 
L 220.974807 67.978163 
L 221.137216 67.726396 
L 221.462033 67.965753 
L 221.624441 67.849096 
L 221.949258 67.938044 
L 222.111667 67.832119 
L 222.436484 67.949531 
L 222.761301 67.641596 
L 223.410935 67.254311 
L 223.573343 67.398809 
L 223.89816 67.210754 
L 224.060568 67.27124 
L 224.385385 67.09518 
L 224.872611 67.147867 
L 225.684653 66.897032 
L 226.00947 66.609695 
L 226.334287 66.728607 
L 226.983921 66.883891 
L 227.308738 67.002073 
L 227.471146 66.816442 
L 227.633555 66.836772 
L 227.958372 66.410403 
L 228.932823 66.218362 
L 229.25764 66.349264 
L 229.744865 66.426053 
L 230.069682 66.452121 
L 230.232091 66.576473 
L 230.556908 66.623404 
L 230.881724 66.763439 
L 231.044133 66.572567 
L 231.36895 66.676279 
L 231.856175 67.062147 
L 232.180992 66.886721 
L 232.505809 67.090541 
L 232.993035 67.137428 
L 233.317852 67.307485 
L 233.642669 66.932393 
L 233.805077 66.989775 
L 233.967486 66.867771 
L 234.292303 66.993727 
L 234.941936 66.682843 
L 235.429162 66.776223 
L 235.753979 66.291584 
L 236.078796 65.980725 
L 236.403613 65.935184 
L 236.72843 66.078989 
L 237.215655 66.269845 
L 237.378064 66.140107 
L 237.540472 66.282913 
L 237.865289 66.266459 
L 238.190106 66.330289 
L 239.164557 66.328815 
L 239.326965 66.445477 
L 239.976599 66.270998 
L 240.139008 66.509751 
L 240.301416 66.469312 
L 240.626233 66.166635 
L 241.763092 66.225631 
L 241.925501 66.311785 
L 242.575135 66.122728 
L 243.06236 66.231546 
L 243.224769 66.197746 
L 243.549586 66.250962 
L 243.711994 66.214736 
L 244.036811 66.345034 
L 244.848854 66.142321 
L 245.336079 66.475412 
L 245.498487 66.249938 
L 246.472938 66.203144 
L 247.284981 65.946945 
L 247.609798 66.134902 
L 247.772206 66.010212 
L 248.259432 66.162876 
L 248.42184 66.016435 
L 248.746657 66.091419 
L 248.909065 66.155907 
L 249.071474 66.036759 
L 249.233882 66.080632 
L 249.883516 65.745126 
L 250.045925 65.875753 
L 250.208333 65.826651 
L 250.695559 65.367704 
L 250.857967 65.387233 
L 251.020376 65.527003 
L 251.832418 65.029781 
L 252.157235 64.674628 
L 252.319643 64.630706 
L 252.482052 64.776936 
L 252.64446 64.668098 
L 253.131686 64.69324 
L 253.618911 64.353887 
L 253.943728 64.490124 
L 254.106137 64.227581 
L 254.430954 64.260601 
L 254.593362 64.086359 
L 255.080588 64.07349 
L 255.567813 63.817724 
L 255.730221 63.645374 
L 256.055038 63.711121 
L 256.379855 63.623181 
L 256.542264 63.662791 
L 256.704672 63.474721 
L 257.029489 63.56814 
L 257.191898 63.35471 
L 257.516715 63.479372 
L 257.841532 63.539371 
L 258.166349 63.21021 
L 258.328757 63.099245 
L 258.653574 63.114587 
L 258.815983 62.900941 
L 259.140799 62.965217 
L 259.303208 62.78023 
L 259.952842 62.891721 
L 260.440067 62.606968 
L 260.764884 62.728441 
L 260.927293 62.766521 
L 261.25211 62.600421 
L 261.414518 62.644079 
L 261.576927 62.427077 
L 261.901744 62.385893 
L 263.201011 62.527892 
L 263.36342 62.361704 
L 263.850645 62.383049 
L 264.337871 62.34364 
L 264.500279 62.248929 
L 264.987505 62.448731 
L 265.312322 62.250712 
L 265.47473 62.235303 
L 265.799547 62.036806 
L 265.961956 62.098714 
L 266.286772 61.902718 
L 266.773998 62.119885 
L 267.423632 62.190992 
L 267.910857 62.00659 
L 268.398083 62.252238 
L 268.7229 62.293431 
L 269.047717 62.239223 
L 269.372534 62.447517 
L 269.534942 62.425842 
L 269.859759 62.644624 
L 270.184576 62.490794 
L 270.509393 62.661151 
L 271.159027 62.547252 
L 271.321435 62.324757 
L 271.646252 62.365032 
L 272.133478 62.599034 
L 272.620703 62.495795 
L 272.783112 62.325535 
L 273.107929 62.452606 
L 273.432745 62.306637 
L 273.757562 62.301454 
L 274.244788 62.284303 
L 274.569605 62.134427 
L 274.894422 62.269774 
L 275.219239 62.15632 
L 275.381647 62.177692 
L 275.868873 61.895608 
L 276.680915 62.368325 
L 276.843323 62.467785 
L 277.005732 62.277987 
L 277.492957 62.207931 
L 278.305 61.948477 
L 279.279451 61.690041 
L 279.441859 61.745744 
L 279.929085 61.482038 
L 280.41631 61.10517 
L 281.065944 61.321262 
L 281.228352 61.324887 
L 281.390761 61.440589 
L 281.553169 61.341239 
L 281.877986 61.358805 
L 282.040395 61.193306 
L 282.852437 61.402223 
L 283.339663 61.240392 
L 284.63893 61.35091 
L 284.963747 61.048777 
L 285.77579 60.872788 
L 286.100607 60.656725 
L 286.587832 60.690757 
L 286.912649 60.787411 
L 287.075058 60.696079 
L 287.237466 60.768589 
L 287.562283 60.510526 
L 287.724691 60.433165 
L 288.211917 60.530068 
L 288.374325 60.499807 
L 288.699142 60.731677 
L 289.673593 60.888581 
L 289.99841 60.787077 
L 291.460086 60.169653 
L 291.784903 60.167177 
L 292.272129 60.164924 
L 293.571397 59.862839 
L 293.896214 59.953301 
L 294.708256 59.948193 
L 295.35789 59.869014 
L 295.520298 59.903493 
L 295.845115 59.800278 
L 296.494749 59.835144 
L 296.819566 59.997042 
L 297.144383 59.911902 
L 297.306792 59.941793 
L 297.631609 59.814545 
L 298.443651 59.97086 
L 298.930876 59.995355 
L 299.093285 60.049405 
L 299.255693 59.937851 
L 299.418102 60.035277 
L 299.742919 59.972594 
L 302.016637 59.971445 
L 303.315905 60.093017 
L 303.640722 60.005298 
L 303.965539 60.084815 
L 304.615173 59.947459 
L 304.93999 59.867172 
L 305.264807 59.987456 
L 305.427215 59.901523 
L 305.752032 59.949443 
L 306.401666 59.697757 
L 306.726483 59.792466 
L 307.538526 59.658844 
L 308.025751 59.739762 
L 308.18816 59.683928 
L 308.512976 59.776761 
L 308.675385 59.85525 
L 308.837793 59.734233 
L 309.16261 59.739399 
L 310.461878 59.385967 
L 310.786695 59.395074 
L 310.949104 59.499407 
L 311.273921 59.422803 
L 312.248371 59.306847 
L 312.573188 59.161798 
L 313.060414 59.140062 
L 313.385231 58.983794 
L 314.52209 58.66393 
L 314.846907 58.664479 
L 315.334133 58.394828 
L 318.257485 57.75751 
L 318.582302 57.652434 
L 319.069527 57.64442 
L 320.043978 57.426691 
L 320.206387 57.524693 
L 320.693612 57.321798 
L 321.180838 57.568231 
L 321.343246 57.520076 
L 321.505655 57.609951 
L 321.668063 57.444451 
L 322.317697 57.346162 
L 323.129739 57.050371 
L 323.292148 57.13207 
L 324.266599 56.928153 
L 325.565867 57.133648 
L 326.053092 56.91356 
L 327.35236 56.911892 
L 327.839585 56.820524 
L 328.164402 56.73772 
L 328.489219 56.821493 
L 329.138853 56.727546 
L 329.46367 56.642014 
L 331.57498 56.638526 
L 332.062206 56.400432 
L 333.199065 56.609157 
L 333.523882 56.584415 
L 334.011107 56.746248 
L 334.335924 56.730195 
L 334.660741 56.687431 
L 334.82315 56.708428 
L 335.310375 56.523446 
L 336.772051 56.318486 
L 337.259277 56.309483 
L 337.584094 56.173884 
L 337.746502 56.250415 
L 337.908911 56.06898 
L 338.071319 56.129599 
L 338.558545 56.018626 
L 339.208179 56.164245 
L 340.832263 55.783663 
L 340.994672 55.871259 
L 341.319489 55.768709 
L 341.481897 55.783402 
L 341.969123 55.559931 
L 342.131531 55.574373 
L 342.29394 55.429584 
L 342.618757 55.402657 
L 343.430799 55.055293 
L 343.918024 55.172306 
L 344.40525 55.107673 
L 344.567658 55.15246 
L 344.892475 55.010318 
L 345.054884 55.021492 
L 345.217292 54.917801 
L 345.704518 54.904286 
L 346.191743 54.81083 
L 346.841377 54.660588 
L 347.166194 54.70724 
L 347.653419 54.517647 
L 347.978236 54.603513 
L 348.465462 54.666185 
L 348.790279 54.740791 
L 348.952687 54.628771 
L 349.439913 54.680768 
L 350.251955 54.492062 
L 350.576772 54.292598 
L 351.388814 54.484182 
L 351.713631 54.526811 
L 352.038448 54.55728 
L 352.363265 54.376212 
L 352.850491 54.411477 
L 353.175308 54.307566 
L 353.337716 54.399302 
L 353.500125 54.320837 
L 353.824942 54.439602 
L 354.312167 54.540065 
L 354.799392 54.678634 
L 354.961801 54.55571 
L 355.449026 54.655131 
L 355.611435 54.622741 
L 355.773843 54.457648 
L 356.423477 54.510773 
L 356.585886 54.573528 
L 356.748294 54.417772 
L 358.20997 54.501541 
L 358.534787 54.582287 
L 358.859604 54.624675 
L 359.022013 54.503766 
L 359.34683 54.534078 
L 360.646098 54.746325 
L 360.970915 54.644779 
L 361.945365 54.630508 
L 362.270182 54.62138 
L 363.244633 54.446997 
L 363.56945 54.443999 
L 364.056676 54.422394 
L 364.381493 54.382723 
L 364.70631 54.45893 
L 365.031126 54.393843 
L 365.518352 54.39643 
L 365.843169 54.329537 
L 366.005577 54.361413 
L 366.330394 54.25511 
L 366.81762 54.237626 
L 367.142437 54.38476 
L 367.467254 54.352927 
L 367.792071 54.264826 
L 368.116888 54.223474 
L 368.766521 54.153184 
L 369.253747 54.136102 
L 369.578564 54.116058 
L 369.740972 54.060049 
L 370.390606 54.219921 
L 370.715423 54.19259 
L 371.202649 54.387076 
L 371.689874 54.278445 
L 372.664325 54.354228 
L 373.313959 54.535864 
L 373.476367 54.625869 
L 373.801184 54.467476 
L 374.28841 54.453482 
L 375.100452 54.571293 
L 375.262861 54.469475 
L 376.074903 54.593594 
L 376.562128 54.601007 
L 376.886945 54.553938 
L 377.211762 54.51056 
L 378.348622 54.653366 
L 378.673439 54.773622 
L 379.972706 54.679182 
L 380.297523 54.704878 
L 382.896059 54.712189 
L 383.383284 54.505764 
L 383.87051 54.490373 
L 384.195327 54.31871 
L 384.520144 54.395223 
L 384.682552 54.376049 
L 385.169778 54.535097 
L 387.605905 54.76466 
L 387.768313 54.848336 
L 388.255539 54.791244 
L 388.580356 54.791664 
L 388.905173 54.644217 
L 389.22999 54.66965 
L 389.554806 54.468333 
L 389.879623 54.432758 
L 390.20444 54.373362 
L 391.016483 54.461729 
L 391.3413 54.459363 
L 391.990934 54.337371 
L 392.315751 54.386416 
L 392.640568 54.350826 
L 392.965385 54.287232 
L 395.076695 54.304843 
L 395.401512 54.279828 
L 395.726329 54.342771 
L 396.051146 54.299952 
L 396.700779 54.268689 
L 397.025596 54.193334 
L 397.512822 54.120931 
L 398.487273 53.568 
L 398.487273 53.568 
" clip-path="url(#p07a1c5d830)" style="fill: none; stroke-dasharray: 2,3.3; stroke-dashoffset: 0; stroke: #ffa500; stroke-width: 2"/>
   </g>
   <g id="patch_3">
    <path d="M 57.6 307.584 
L 57.6 41.472 
" style="fill: none; stroke: #000000; stroke-width: 0.8; stroke-linejoin: miter; stroke-linecap: square"/>
   </g>
   <g id="patch_4">
    <path d="M 414.72 307.584 
L 414.72 41.472 
" style="fill: none; stroke: #000000; stroke-width: 0.8; stroke-linejoin: miter; stroke-linecap: square"/>
   </g>
   <g id="patch_5">
    <path d="M 57.6 307.584 
L 414.72 307.584 
" style="fill: none; stroke: #000000; stroke-width: 0.8; stroke-linejoin: miter; stroke-linecap: square"/>
   </g>
   <g id="patch_6">
    <path d="M 57.6 41.472 
L 414.72 41.472 
" style="fill: none; stroke: #000000; stroke-width: 0.8; stroke-linejoin: miter; stroke-linecap: square"/>
   </g>
   <g id="text_16">
    <!-- Waiting Time Plot -->
    <g transform="translate(183.833438 8.2635)scale(0.12 -0.12)">
     <defs>
      <path id="DejaVuSans-50" d="M 1259 4147 
L 1259 2394 
L 2053 2394 
Q 2494 2394 2734 2622 
Q 2975 2850 2975 3272 
Q 2975 3691 2734 3919 
Q 2494 4147 2053 4147 
L 1259 4147 
z
M 628 4666 
L 2053 4666 
Q 2838 4666 3239 4311 
Q 3641 3956 3641 3272 
Q 3641 2581 3239 2228 
Q 2838 1875 2053 1875 
L 1259 1875 
L 1259 0 
L 628 0 
L 628 4666 
z
" transform="scale(0.015625)"/>
      <path id="DejaVuSans-6c" d="M 603 4863 
L 1178 4863 
L 1178 0 
L 603 0 
L 603 4863 
z
" transform="scale(0.015625)"/>
     </defs>
     <use xlink:href="#DejaVuSans-57"/>
     <use xlink:href="#DejaVuSans-61" x="92.501953"/>
     <use xlink:href="#DejaVuSans-69" x="153.78125"/>
     <use xlink:href="#DejaVuSans-74" x="181.564453"/>
     <use xlink:href="#DejaVuSans-69" x="220.773438"/>
     <use xlink:href="#DejaVuSans-6e" x="248.556641"/>
     <use xlink:href="#DejaVuSans-67" x="311.935547"/>
     <use xlink:href="#DejaVuSans-20" x="375.412109"/>
     <use xlink:href="#DejaVuSans-54" x="407.199219"/>
     <use xlink:href="#DejaVuSans-69" x="465.158203"/>
     <use xlink:href="#DejaVuSans-6d" x="492.941406"/>
     <use xlink:href="#DejaVuSans-65" x="590.353516"/>
     <use xlink:href="#DejaVuSans-20" x="651.876953"/>
     <use xlink:href="#DejaVuSans-50" x="683.664062"/>
     <use xlink:href="#DejaVuSans-6c" x="743.966797"/>
     <use xlink:href="#DejaVuSans-6f" x="771.75"/>
     <use xlink:href="#DejaVuSans-74" x="832.931641"/>
    </g>
    <!--  avg_d = 677.0079347301834  -->
    <g transform="translate(142.671562 21.700875)scale(0.12 -0.12)">
     <defs>
      <path id="DejaVuSans-76" d="M 191 3500 
L 800 3500 
L 1894 563 
L 2988 3500 
L 3597 3500 
L 2284 0 
L 1503 0 
L 191 3500 
z
" transform="scale(0.015625)"/>
      <path id="DejaVuSans-5f" d="M 3263 -1063 
L 3263 -1509 
L -63 -1509 
L -63 -1063 
L 3263 -1063 
z
" transform="scale(0.015625)"/>
      <path id="DejaVuSans-3d" d="M 678 2906 
L 4684 2906 
L 4684 2381 
L 678 2381 
L 678 2906 
z
M 678 1631 
L 4684 1631 
L 4684 1100 
L 678 1100 
L 678 1631 
z
" transform="scale(0.015625)"/>
      <path id="DejaVuSans-2e" d="M 684 794 
L 1344 794 
L 1344 0 
L 684 0 
L 684 794 
z
" transform="scale(0.015625)"/>
      <path id="DejaVuSans-39" d="M 703 97 
L 703 672 
Q 941 559 1184 500 
Q 1428 441 1663 441 
Q 2288 441 2617 861 
Q 2947 1281 2994 2138 
Q 2813 1869 2534 1725 
Q 2256 1581 1919 1581 
Q 1219 1581 811 2004 
Q 403 2428 403 3163 
Q 403 3881 828 4315 
Q 1253 4750 1959 4750 
Q 2769 4750 3195 4129 
Q 3622 3509 3622 2328 
Q 3622 1225 3098 567 
Q 2575 -91 1691 -91 
Q 1453 -91 1209 -44 
Q 966 3 703 97 
z
M 1959 2075 
Q 2384 2075 2632 2365 
Q 2881 2656 2881 3163 
Q 2881 3666 2632 3958 
Q 2384 4250 1959 4250 
Q 1534 4250 1286 3958 
Q 1038 3666 1038 3163 
Q 1038 2656 1286 2365 
Q 1534 2075 1959 2075 
z
" transform="scale(0.015625)"/>
      <path id="DejaVuSans-33" d="M 2597 2516 
Q 3050 2419 3304 2112 
Q 3559 1806 3559 1356 
Q 3559 666 3084 287 
Q 2609 -91 1734 -91 
Q 1441 -91 1130 -33 
Q 819 25 488 141 
L 488 750 
Q 750 597 1062 519 
Q 1375 441 1716 441 
Q 2309 441 2620 675 
Q 2931 909 2931 1356 
Q 2931 1769 2642 2001 
Q 2353 2234 1838 2234 
L 1294 2234 
L 1294 2753 
L 1863 2753 
Q 2328 2753 2575 2939 
Q 2822 3125 2822 3475 
Q 2822 3834 2567 4026 
Q 2313 4219 1838 4219 
Q 1578 4219 1281 4162 
Q 984 4106 628 3988 
L 628 4550 
Q 988 4650 1302 4700 
Q 1616 4750 1894 4750 
Q 2613 4750 3031 4423 
Q 3450 4097 3450 3541 
Q 3450 3153 3228 2886 
Q 3006 2619 2597 2516 
z
" transform="scale(0.015625)"/>
     </defs>
     <use xlink:href="#DejaVuSans-20"/>
     <use xlink:href="#DejaVuSans-61" x="31.787109"/>
     <use xlink:href="#DejaVuSans-76" x="93.066406"/>
     <use xlink:href="#DejaVuSans-67" x="152.246094"/>
     <use xlink:href="#DejaVuSans-5f" x="215.722656"/>
     <use xlink:href="#DejaVuSans-64" x="265.722656"/>
     <use xlink:href="#DejaVuSans-20" x="329.199219"/>
     <use xlink:href="#DejaVuSans-3d" x="360.986328"/>
     <use xlink:href="#DejaVuSans-20" x="444.775391"/>
     <use xlink:href="#DejaVuSans-36" x="476.5625"/>
     <use xlink:href="#DejaVuSans-37" x="540.185547"/>
     <use xlink:href="#DejaVuSans-37" x="603.808594"/>
     <use xlink:href="#DejaVuSans-2e" x="667.431641"/>
     <use xlink:href="#DejaVuSans-30" x="699.21875"/>
     <use xlink:href="#DejaVuSans-30" x="762.841797"/>
     <use xlink:href="#DejaVuSans-37" x="826.464844"/>
     <use xlink:href="#DejaVuSans-39" x="890.087891"/>
     <use xlink:href="#DejaVuSans-33" x="953.710938"/>
     <use xlink:href="#DejaVuSans-34" x="1017.333984"/>
     <use xlink:href="#DejaVuSans-37" x="1080.957031"/>
     <use xlink:href="#DejaVuSans-33" x="1144.580078"/>
     <use xlink:href="#DejaVuSans-30" x="1208.203125"/>
     <use xlink:href="#DejaVuSans-31" x="1271.826172"/>
     <use xlink:href="#DejaVuSans-38" x="1335.449219"/>
     <use xlink:href="#DejaVuSans-33" x="1399.072266"/>
     <use xlink:href="#DejaVuSans-34" x="1462.695312"/>
     <use xlink:href="#DejaVuSans-20" x="1526.318359"/>
    </g>
    <!--  avg_a = 927.97028803692diff = -250.96235330673665 -->
    <g transform="translate(64.834688 35.472)scale(0.12 -0.12)">
     <defs>
      <path id="DejaVuSans-2d" d="M 313 2009 
L 1997 2009 
L 1997 1497 
L 313 1497 
L 313 2009 
z
" transform="scale(0.015625)"/>
     </defs>
     <use xlink:href="#DejaVuSans-20"/>
     <use xlink:href="#DejaVuSans-61" x="31.787109"/>
     <use xlink:href="#DejaVuSans-76" x="93.066406"/>
     <use xlink:href="#DejaVuSans-67" x="152.246094"/>
     <use xlink:href="#DejaVuSans-5f" x="215.722656"/>
     <use xlink:href="#DejaVuSans-61" x="265.722656"/>
     <use xlink:href="#DejaVuSans-20" x="327.001953"/>
     <use xlink:href="#DejaVuSans-3d" x="358.789062"/>
     <use xlink:href="#DejaVuSans-20" x="442.578125"/>
     <use xlink:href="#DejaVuSans-39" x="474.365234"/>
     <use xlink:href="#DejaVuSans-32" x="537.988281"/>
     <use xlink:href="#DejaVuSans-37" x="601.611328"/>
     <use xlink:href="#DejaVuSans-2e" x="665.234375"/>
     <use xlink:href="#DejaVuSans-39" x="697.021484"/>
     <use xlink:href="#DejaVuSans-37" x="760.644531"/>
     <use xlink:href="#DejaVuSans-30" x="824.267578"/>
     <use xlink:href="#DejaVuSans-32" x="887.890625"/>
     <use xlink:href="#DejaVuSans-38" x="951.513672"/>
     <use xlink:href="#DejaVuSans-38" x="1015.136719"/>
     <use xlink:href="#DejaVuSans-30" x="1078.759766"/>
     <use xlink:href="#DejaVuSans-33" x="1142.382812"/>
     <use xlink:href="#DejaVuSans-36" x="1206.005859"/>
     <use xlink:href="#DejaVuSans-39" x="1269.628906"/>
     <use xlink:href="#DejaVuSans-32" x="1333.251953"/>
     <use xlink:href="#DejaVuSans-64" x="1396.875"/>
     <use xlink:href="#DejaVuSans-69" x="1460.351562"/>
     <use xlink:href="#DejaVuSans-66" x="1488.134766"/>
     <use xlink:href="#DejaVuSans-66" x="1523.339844"/>
     <use xlink:href="#DejaVuSans-20" x="1558.544922"/>
     <use xlink:href="#DejaVuSans-3d" x="1590.332031"/>
     <use xlink:href="#DejaVuSans-20" x="1674.121094"/>
     <use xlink:href="#DejaVuSans-2d" x="1705.908203"/>
     <use xlink:href="#DejaVuSans-32" x="1741.992188"/>
     <use xlink:href="#DejaVuSans-35" x="1805.615234"/>
     <use xlink:href="#DejaVuSans-30" x="1869.238281"/>
     <use xlink:href="#DejaVuSans-2e" x="1932.861328"/>
     <use xlink:href="#DejaVuSans-39" x="1964.648438"/>
     <use xlink:href="#DejaVuSans-36" x="2028.271484"/>
     <use xlink:href="#DejaVuSans-32" x="2091.894531"/>
     <use xlink:href="#DejaVuSans-33" x="2155.517578"/>
     <use xlink:href="#DejaVuSans-35" x="2219.140625"/>
     <use xlink:href="#DejaVuSans-33" x="2282.763672"/>
     <use xlink:href="#DejaVuSans-33" x="2346.386719"/>
     <use xlink:href="#DejaVuSans-30" x="2410.009766"/>
     <use xlink:href="#DejaVuSans-36" x="2473.632812"/>
     <use xlink:href="#DejaVuSans-37" x="2537.255859"/>
     <use xlink:href="#DejaVuSans-33" x="2600.878906"/>
     <use xlink:href="#DejaVuSans-36" x="2664.501953"/>
     <use xlink:href="#DejaVuSans-36" x="2728.125"/>
     <use xlink:href="#DejaVuSans-35" x="2791.748047"/>
    </g>
   </g>
   <g id="legend_1">
    <g id="patch_7">
     <path d="M 263.88875 302.584 
L 407.72 302.584 
Q 409.72 302.584 409.72 300.584 
L 409.72 272.22775 
Q 409.72 270.22775 407.72 270.22775 
L 263.88875 270.22775 
Q 261.88875 270.22775 261.88875 272.22775 
L 261.88875 300.584 
Q 261.88875 302.584 263.88875 302.584 
z
" style="fill: #ffffff; opacity: 0.8; stroke: #cccccc; stroke-linejoin: miter"/>
    </g>
    <g id="line2d_16">
     <path d="M 265.88875 278.326187 
L 275.88875 278.326187 
L 285.88875 278.326187 
" style="fill: none; stroke-dasharray: 2,3.3; stroke-dashoffset: 0; stroke: #0000ff; stroke-width: 2"/>
    </g>
    <g id="text_17">
     <!-- Average (Default) -->
     <g transform="translate(293.88875 281.826187)scale(0.1 -0.1)">
      <defs>
       <path id="DejaVuSans-41" d="M 2188 4044 
L 1331 1722 
L 3047 1722 
L 2188 4044 
z
M 1831 4666 
L 2547 4666 
L 4325 0 
L 3669 0 
L 3244 1197 
L 1141 1197 
L 716 0 
L 50 0 
L 1831 4666 
z
" transform="scale(0.015625)"/>
       <path id="DejaVuSans-28" d="M 1984 4856 
Q 1566 4138 1362 3434 
Q 1159 2731 1159 2009 
Q 1159 1288 1364 580 
Q 1569 -128 1984 -844 
L 1484 -844 
Q 1016 -109 783 600 
Q 550 1309 550 2009 
Q 550 2706 781 3412 
Q 1013 4119 1484 4856 
L 1984 4856 
z
" transform="scale(0.015625)"/>
       <path id="DejaVuSans-44" d="M 1259 4147 
L 1259 519 
L 2022 519 
Q 2988 519 3436 956 
Q 3884 1394 3884 2338 
Q 3884 3275 3436 3711 
Q 2988 4147 2022 4147 
L 1259 4147 
z
M 628 4666 
L 1925 4666 
Q 3281 4666 3915 4102 
Q 4550 3538 4550 2338 
Q 4550 1131 3912 565 
Q 3275 0 1925 0 
L 628 0 
L 628 4666 
z
" transform="scale(0.015625)"/>
       <path id="DejaVuSans-29" d="M 513 4856 
L 1013 4856 
Q 1481 4119 1714 3412 
Q 1947 2706 1947 2009 
Q 1947 1309 1714 600 
Q 1481 -109 1013 -844 
L 513 -844 
Q 928 -128 1133 580 
Q 1338 1288 1338 2009 
Q 1338 2731 1133 3434 
Q 928 4138 513 4856 
z
" transform="scale(0.015625)"/>
      </defs>
      <use xlink:href="#DejaVuSans-41"/>
      <use xlink:href="#DejaVuSans-76" x="62.533203"/>
      <use xlink:href="#DejaVuSans-65" x="121.712891"/>
      <use xlink:href="#DejaVuSans-72" x="183.236328"/>
      <use xlink:href="#DejaVuSans-61" x="224.349609"/>
      <use xlink:href="#DejaVuSans-67" x="285.628906"/>
      <use xlink:href="#DejaVuSans-65" x="349.105469"/>
      <use xlink:href="#DejaVuSans-20" x="410.628906"/>
      <use xlink:href="#DejaVuSans-28" x="442.416016"/>
      <use xlink:href="#DejaVuSans-44" x="481.429688"/>
      <use xlink:href="#DejaVuSans-65" x="558.431641"/>
      <use xlink:href="#DejaVuSans-66" x="619.955078"/>
      <use xlink:href="#DejaVuSans-61" x="655.160156"/>
      <use xlink:href="#DejaVuSans-75" x="716.439453"/>
      <use xlink:href="#DejaVuSans-6c" x="779.818359"/>
      <use xlink:href="#DejaVuSans-74" x="807.601562"/>
      <use xlink:href="#DejaVuSans-29" x="846.810547"/>
     </g>
    </g>
    <g id="line2d_17">
     <path d="M 265.88875 293.004312 
L 275.88875 293.004312 
L 285.88875 293.004312 
" style="fill: none; stroke-dasharray: 2,3.3; stroke-dashoffset: 0; stroke: #ffa500; stroke-width: 2"/>
    </g>
    <g id="text_18">
     <!-- Average (Anticipation) -->
     <g transform="translate(293.88875 296.504312)scale(0.1 -0.1)">
      <defs>
       <path id="DejaVuSans-63" d="M 3122 3366 
L 3122 2828 
Q 2878 2963 2633 3030 
Q 2388 3097 2138 3097 
Q 1578 3097 1268 2742 
Q 959 2388 959 1747 
Q 959 1106 1268 751 
Q 1578 397 2138 397 
Q 2388 397 2633 464 
Q 2878 531 3122 666 
L 3122 134 
Q 2881 22 2623 -34 
Q 2366 -91 2075 -91 
Q 1284 -91 818 406 
Q 353 903 353 1747 
Q 353 2603 823 3093 
Q 1294 3584 2113 3584 
Q 2378 3584 2631 3529 
Q 2884 3475 3122 3366 
z
" transform="scale(0.015625)"/>
       <path id="DejaVuSans-70" d="M 1159 525 
L 1159 -1331 
L 581 -1331 
L 581 3500 
L 1159 3500 
L 1159 2969 
Q 1341 3281 1617 3432 
Q 1894 3584 2278 3584 
Q 2916 3584 3314 3078 
Q 3713 2572 3713 1747 
Q 3713 922 3314 415 
Q 2916 -91 2278 -91 
Q 1894 -91 1617 61 
Q 1341 213 1159 525 
z
M 3116 1747 
Q 3116 2381 2855 2742 
Q 2594 3103 2138 3103 
Q 1681 3103 1420 2742 
Q 1159 2381 1159 1747 
Q 1159 1113 1420 752 
Q 1681 391 2138 391 
Q 2594 391 2855 752 
Q 3116 1113 3116 1747 
z
" transform="scale(0.015625)"/>
      </defs>
      <use xlink:href="#DejaVuSans-41"/>
      <use xlink:href="#DejaVuSans-76" x="62.533203"/>
      <use xlink:href="#DejaVuSans-65" x="121.712891"/>
      <use xlink:href="#DejaVuSans-72" x="183.236328"/>
      <use xlink:href="#DejaVuSans-61" x="224.349609"/>
      <use xlink:href="#DejaVuSans-67" x="285.628906"/>
      <use xlink:href="#DejaVuSans-65" x="349.105469"/>
      <use xlink:href="#DejaVuSans-20" x="410.628906"/>
      <use xlink:href="#DejaVuSans-28" x="442.416016"/>
      <use xlink:href="#DejaVuSans-41" x="481.429688"/>
      <use xlink:href="#DejaVuSans-6e" x="549.837891"/>
      <use xlink:href="#DejaVuSans-74" x="613.216797"/>
      <use xlink:href="#DejaVuSans-69" x="652.425781"/>
      <use xlink:href="#DejaVuSans-63" x="680.208984"/>
      <use xlink:href="#DejaVuSans-69" x="735.189453"/>
      <use xlink:href="#DejaVuSans-70" x="762.972656"/>
      <use xlink:href="#DejaVuSans-61" x="826.449219"/>
      <use xlink:href="#DejaVuSans-74" x="887.728516"/>
      <use xlink:href="#DejaVuSans-69" x="926.9375"/>
      <use xlink:href="#DejaVuSans-6f" x="954.720703"/>
      <use xlink:href="#DejaVuSans-6e" x="1015.902344"/>
      <use xlink:href="#DejaVuSans-29" x="1079.28125"/>
     </g>
    </g>
   </g>
  </g>
 </g>
 <defs>
  <clipPath id="p07a1c5d830">
   <rect x="57.6" y="41.472" width="357.12" height="266.112"/>
  </clipPath>
 </defs>
</svg>
