<?xml version="1.0" encoding="utf-8" standalone="no"?>
<!DOCTYPE svg PUBLIC "-//W3C//DTD SVG 1.1//EN"
  "http://www.w3.org/Graphics/SVG/1.1/DTD/svg11.dtd">
<svg xmlns:xlink="http://www.w3.org/1999/xlink" width="460.8pt" height="345.6pt" viewBox="0 0 460.8 345.6" xmlns="http://www.w3.org/2000/svg" version="1.1">
 <metadata>
  <rdf:RDF xmlns:dc="http://purl.org/dc/elements/1.1/" xmlns:cc="http://creativecommons.org/ns#" xmlns:rdf="http://www.w3.org/1999/02/22-rdf-syntax-ns#">
   <cc:Work>
    <dc:type rdf:resource="http://purl.org/dc/dcmitype/StillImage"/>
    <dc:date>2022-10-10T11:40:06.382568</dc:date>
    <dc:format>image/svg+xml</dc:format>
    <dc:creator>
     <cc:Agent>
      <dc:title>Matplotlib v3.5.3, https://matplotlib.org/</dc:title>
     </cc:Agent>
    </dc:creator>
   </cc:Work>
  </rdf:RDF>
 </metadata>
 <defs>
  <style type="text/css">*{stroke-linejoin: round; stroke-linecap: butt}</style>
 </defs>
 <g id="figure_1">
  <g id="patch_1">
   <path d="M 0 345.6 
L 460.8 345.6 
L 460.8 0 
L 0 0 
z
" style="fill: #ffffff"/>
  </g>
  <g id="axes_1">
   <g id="patch_2">
    <path d="M 57.6 307.584 
L 414.72 307.584 
L 414.72 41.472 
L 57.6 41.472 
z
" style="fill: #ffffff"/>
   </g>
   <g id="matplotlib.axis_1">
    <g id="xtick_1">
     <g id="line2d_1">
      <defs>
       <path id="m04c924aba2" d="M 0 0 
L 0 3.5 
" style="stroke: #000000; stroke-width: 0.8"/>
      </defs>
      <g>
       <use xlink:href="#m04c924aba2" x="73.832727" y="307.584" style="stroke: #000000; stroke-width: 0.8"/>
      </g>
     </g>
     <g id="text_1">
      <!-- 0 -->
      <g transform="translate(70.651477 322.182437)scale(0.1 -0.1)">
       <defs>
        <path id="DejaVuSans-30" d="M 2034 4250 
Q 1547 4250 1301 3770 
Q 1056 3291 1056 2328 
Q 1056 1369 1301 889 
Q 1547 409 2034 409 
Q 2525 409 2770 889 
Q 3016 1369 3016 2328 
Q 3016 3291 2770 3770 
Q 2525 4250 2034 4250 
z
M 2034 4750 
Q 2819 4750 3233 4129 
Q 3647 3509 3647 2328 
Q 3647 1150 3233 529 
Q 2819 -91 2034 -91 
Q 1250 -91 836 529 
Q 422 1150 422 2328 
Q 422 3509 836 4129 
Q 1250 4750 2034 4750 
z
" transform="scale(0.015625)"/>
       </defs>
       <use xlink:href="#DejaVuSans-30"/>
      </g>
     </g>
    </g>
    <g id="xtick_2">
     <g id="line2d_2">
      <g>
       <use xlink:href="#m04c924aba2" x="138.776625" y="307.584" style="stroke: #000000; stroke-width: 0.8"/>
      </g>
     </g>
     <g id="text_2">
      <!-- 1000 -->
      <g transform="translate(126.051625 322.182437)scale(0.1 -0.1)">
       <defs>
        <path id="DejaVuSans-31" d="M 794 531 
L 1825 531 
L 1825 4091 
L 703 3866 
L 703 4441 
L 1819 4666 
L 2450 4666 
L 2450 531 
L 3481 531 
L 3481 0 
L 794 0 
L 794 531 
z
" transform="scale(0.015625)"/>
       </defs>
       <use xlink:href="#DejaVuSans-31"/>
       <use xlink:href="#DejaVuSans-30" x="63.623047"/>
       <use xlink:href="#DejaVuSans-30" x="127.246094"/>
       <use xlink:href="#DejaVuSans-30" x="190.869141"/>
      </g>
     </g>
    </g>
    <g id="xtick_3">
     <g id="line2d_3">
      <g>
       <use xlink:href="#m04c924aba2" x="203.720523" y="307.584" style="stroke: #000000; stroke-width: 0.8"/>
      </g>
     </g>
     <g id="text_3">
      <!-- 2000 -->
      <g transform="translate(190.995523 322.182437)scale(0.1 -0.1)">
       <defs>
        <path id="DejaVuSans-32" d="M 1228 531 
L 3431 531 
L 3431 0 
L 469 0 
L 469 531 
Q 828 903 1448 1529 
Q 2069 2156 2228 2338 
Q 2531 2678 2651 2914 
Q 2772 3150 2772 3378 
Q 2772 3750 2511 3984 
Q 2250 4219 1831 4219 
Q 1534 4219 1204 4116 
Q 875 4013 500 3803 
L 500 4441 
Q 881 4594 1212 4672 
Q 1544 4750 1819 4750 
Q 2544 4750 2975 4387 
Q 3406 4025 3406 3419 
Q 3406 3131 3298 2873 
Q 3191 2616 2906 2266 
Q 2828 2175 2409 1742 
Q 1991 1309 1228 531 
z
" transform="scale(0.015625)"/>
       </defs>
       <use xlink:href="#DejaVuSans-32"/>
       <use xlink:href="#DejaVuSans-30" x="63.623047"/>
       <use xlink:href="#DejaVuSans-30" x="127.246094"/>
       <use xlink:href="#DejaVuSans-30" x="190.869141"/>
      </g>
     </g>
    </g>
    <g id="xtick_4">
     <g id="line2d_4">
      <g>
       <use xlink:href="#m04c924aba2" x="268.664421" y="307.584" style="stroke: #000000; stroke-width: 0.8"/>
      </g>
     </g>
     <g id="text_4">
      <!-- 3000 -->
      <g transform="translate(255.939421 322.182437)scale(0.1 -0.1)">
       <defs>
        <path id="DejaVuSans-33" d="M 2597 2516 
Q 3050 2419 3304 2112 
Q 3559 1806 3559 1356 
Q 3559 666 3084 287 
Q 2609 -91 1734 -91 
Q 1441 -91 1130 -33 
Q 819 25 488 141 
L 488 750 
Q 750 597 1062 519 
Q 1375 441 1716 441 
Q 2309 441 2620 675 
Q 2931 909 2931 1356 
Q 2931 1769 2642 2001 
Q 2353 2234 1838 2234 
L 1294 2234 
L 1294 2753 
L 1863 2753 
Q 2328 2753 2575 2939 
Q 2822 3125 2822 3475 
Q 2822 3834 2567 4026 
Q 2313 4219 1838 4219 
Q 1578 4219 1281 4162 
Q 984 4106 628 3988 
L 628 4550 
Q 988 4650 1302 4700 
Q 1616 4750 1894 4750 
Q 2613 4750 3031 4423 
Q 3450 4097 3450 3541 
Q 3450 3153 3228 2886 
Q 3006 2619 2597 2516 
z
" transform="scale(0.015625)"/>
       </defs>
       <use xlink:href="#DejaVuSans-33"/>
       <use xlink:href="#DejaVuSans-30" x="63.623047"/>
       <use xlink:href="#DejaVuSans-30" x="127.246094"/>
       <use xlink:href="#DejaVuSans-30" x="190.869141"/>
      </g>
     </g>
    </g>
    <g id="xtick_5">
     <g id="line2d_5">
      <g>
       <use xlink:href="#m04c924aba2" x="333.608319" y="307.584" style="stroke: #000000; stroke-width: 0.8"/>
      </g>
     </g>
     <g id="text_5">
      <!-- 4000 -->
      <g transform="translate(320.883319 322.182437)scale(0.1 -0.1)">
       <defs>
        <path id="DejaVuSans-34" d="M 2419 4116 
L 825 1625 
L 2419 1625 
L 2419 4116 
z
M 2253 4666 
L 3047 4666 
L 3047 1625 
L 3713 1625 
L 3713 1100 
L 3047 1100 
L 3047 0 
L 2419 0 
L 2419 1100 
L 313 1100 
L 313 1709 
L 2253 4666 
z
" transform="scale(0.015625)"/>
       </defs>
       <use xlink:href="#DejaVuSans-34"/>
       <use xlink:href="#DejaVuSans-30" x="63.623047"/>
       <use xlink:href="#DejaVuSans-30" x="127.246094"/>
       <use xlink:href="#DejaVuSans-30" x="190.869141"/>
      </g>
     </g>
    </g>
    <g id="xtick_6">
     <g id="line2d_6">
      <g>
       <use xlink:href="#m04c924aba2" x="398.552217" y="307.584" style="stroke: #000000; stroke-width: 0.8"/>
      </g>
     </g>
     <g id="text_6">
      <!-- 5000 -->
      <g transform="translate(385.827217 322.182437)scale(0.1 -0.1)">
       <defs>
        <path id="DejaVuSans-35" d="M 691 4666 
L 3169 4666 
L 3169 4134 
L 1269 4134 
L 1269 2991 
Q 1406 3038 1543 3061 
Q 1681 3084 1819 3084 
Q 2600 3084 3056 2656 
Q 3513 2228 3513 1497 
Q 3513 744 3044 326 
Q 2575 -91 1722 -91 
Q 1428 -91 1123 -41 
Q 819 9 494 109 
L 494 744 
Q 775 591 1075 516 
Q 1375 441 1709 441 
Q 2250 441 2565 725 
Q 2881 1009 2881 1497 
Q 2881 1984 2565 2268 
Q 2250 2553 1709 2553 
Q 1456 2553 1204 2497 
Q 953 2441 691 2322 
L 691 4666 
z
" transform="scale(0.015625)"/>
       </defs>
       <use xlink:href="#DejaVuSans-35"/>
       <use xlink:href="#DejaVuSans-30" x="63.623047"/>
       <use xlink:href="#DejaVuSans-30" x="127.246094"/>
       <use xlink:href="#DejaVuSans-30" x="190.869141"/>
      </g>
     </g>
    </g>
    <g id="text_7">
     <!-- Number of Orders -->
     <g transform="translate(191.261562 335.860562)scale(0.1 -0.1)">
      <defs>
       <path id="DejaVuSans-4e" d="M 628 4666 
L 1478 4666 
L 3547 763 
L 3547 4666 
L 4159 4666 
L 4159 0 
L 3309 0 
L 1241 3903 
L 1241 0 
L 628 0 
L 628 4666 
z
" transform="scale(0.015625)"/>
       <path id="DejaVuSans-75" d="M 544 1381 
L 544 3500 
L 1119 3500 
L 1119 1403 
Q 1119 906 1312 657 
Q 1506 409 1894 409 
Q 2359 409 2629 706 
Q 2900 1003 2900 1516 
L 2900 3500 
L 3475 3500 
L 3475 0 
L 2900 0 
L 2900 538 
Q 2691 219 2414 64 
Q 2138 -91 1772 -91 
Q 1169 -91 856 284 
Q 544 659 544 1381 
z
M 1991 3584 
L 1991 3584 
z
" transform="scale(0.015625)"/>
       <path id="DejaVuSans-6d" d="M 3328 2828 
Q 3544 3216 3844 3400 
Q 4144 3584 4550 3584 
Q 5097 3584 5394 3201 
Q 5691 2819 5691 2113 
L 5691 0 
L 5113 0 
L 5113 2094 
Q 5113 2597 4934 2840 
Q 4756 3084 4391 3084 
Q 3944 3084 3684 2787 
Q 3425 2491 3425 1978 
L 3425 0 
L 2847 0 
L 2847 2094 
Q 2847 2600 2669 2842 
Q 2491 3084 2119 3084 
Q 1678 3084 1418 2786 
Q 1159 2488 1159 1978 
L 1159 0 
L 581 0 
L 581 3500 
L 1159 3500 
L 1159 2956 
Q 1356 3278 1631 3431 
Q 1906 3584 2284 3584 
Q 2666 3584 2933 3390 
Q 3200 3197 3328 2828 
z
" transform="scale(0.015625)"/>
       <path id="DejaVuSans-62" d="M 3116 1747 
Q 3116 2381 2855 2742 
Q 2594 3103 2138 3103 
Q 1681 3103 1420 2742 
Q 1159 2381 1159 1747 
Q 1159 1113 1420 752 
Q 1681 391 2138 391 
Q 2594 391 2855 752 
Q 3116 1113 3116 1747 
z
M 1159 2969 
Q 1341 3281 1617 3432 
Q 1894 3584 2278 3584 
Q 2916 3584 3314 3078 
Q 3713 2572 3713 1747 
Q 3713 922 3314 415 
Q 2916 -91 2278 -91 
Q 1894 -91 1617 61 
Q 1341 213 1159 525 
L 1159 0 
L 581 0 
L 581 4863 
L 1159 4863 
L 1159 2969 
z
" transform="scale(0.015625)"/>
       <path id="DejaVuSans-65" d="M 3597 1894 
L 3597 1613 
L 953 1613 
Q 991 1019 1311 708 
Q 1631 397 2203 397 
Q 2534 397 2845 478 
Q 3156 559 3463 722 
L 3463 178 
Q 3153 47 2828 -22 
Q 2503 -91 2169 -91 
Q 1331 -91 842 396 
Q 353 884 353 1716 
Q 353 2575 817 3079 
Q 1281 3584 2069 3584 
Q 2775 3584 3186 3129 
Q 3597 2675 3597 1894 
z
M 3022 2063 
Q 3016 2534 2758 2815 
Q 2500 3097 2075 3097 
Q 1594 3097 1305 2825 
Q 1016 2553 972 2059 
L 3022 2063 
z
" transform="scale(0.015625)"/>
       <path id="DejaVuSans-72" d="M 2631 2963 
Q 2534 3019 2420 3045 
Q 2306 3072 2169 3072 
Q 1681 3072 1420 2755 
Q 1159 2438 1159 1844 
L 1159 0 
L 581 0 
L 581 3500 
L 1159 3500 
L 1159 2956 
Q 1341 3275 1631 3429 
Q 1922 3584 2338 3584 
Q 2397 3584 2469 3576 
Q 2541 3569 2628 3553 
L 2631 2963 
z
" transform="scale(0.015625)"/>
       <path id="DejaVuSans-20" transform="scale(0.015625)"/>
       <path id="DejaVuSans-6f" d="M 1959 3097 
Q 1497 3097 1228 2736 
Q 959 2375 959 1747 
Q 959 1119 1226 758 
Q 1494 397 1959 397 
Q 2419 397 2687 759 
Q 2956 1122 2956 1747 
Q 2956 2369 2687 2733 
Q 2419 3097 1959 3097 
z
M 1959 3584 
Q 2709 3584 3137 3096 
Q 3566 2609 3566 1747 
Q 3566 888 3137 398 
Q 2709 -91 1959 -91 
Q 1206 -91 779 398 
Q 353 888 353 1747 
Q 353 2609 779 3096 
Q 1206 3584 1959 3584 
z
" transform="scale(0.015625)"/>
       <path id="DejaVuSans-66" d="M 2375 4863 
L 2375 4384 
L 1825 4384 
Q 1516 4384 1395 4259 
Q 1275 4134 1275 3809 
L 1275 3500 
L 2222 3500 
L 2222 3053 
L 1275 3053 
L 1275 0 
L 697 0 
L 697 3053 
L 147 3053 
L 147 3500 
L 697 3500 
L 697 3744 
Q 697 4328 969 4595 
Q 1241 4863 1831 4863 
L 2375 4863 
z
" transform="scale(0.015625)"/>
       <path id="DejaVuSans-4f" d="M 2522 4238 
Q 1834 4238 1429 3725 
Q 1025 3213 1025 2328 
Q 1025 1447 1429 934 
Q 1834 422 2522 422 
Q 3209 422 3611 934 
Q 4013 1447 4013 2328 
Q 4013 3213 3611 3725 
Q 3209 4238 2522 4238 
z
M 2522 4750 
Q 3503 4750 4090 4092 
Q 4678 3434 4678 2328 
Q 4678 1225 4090 567 
Q 3503 -91 2522 -91 
Q 1538 -91 948 565 
Q 359 1222 359 2328 
Q 359 3434 948 4092 
Q 1538 4750 2522 4750 
z
" transform="scale(0.015625)"/>
       <path id="DejaVuSans-64" d="M 2906 2969 
L 2906 4863 
L 3481 4863 
L 3481 0 
L 2906 0 
L 2906 525 
Q 2725 213 2448 61 
Q 2172 -91 1784 -91 
Q 1150 -91 751 415 
Q 353 922 353 1747 
Q 353 2572 751 3078 
Q 1150 3584 1784 3584 
Q 2172 3584 2448 3432 
Q 2725 3281 2906 2969 
z
M 947 1747 
Q 947 1113 1208 752 
Q 1469 391 1925 391 
Q 2381 391 2643 752 
Q 2906 1113 2906 1747 
Q 2906 2381 2643 2742 
Q 2381 3103 1925 3103 
Q 1469 3103 1208 2742 
Q 947 2381 947 1747 
z
" transform="scale(0.015625)"/>
       <path id="DejaVuSans-73" d="M 2834 3397 
L 2834 2853 
Q 2591 2978 2328 3040 
Q 2066 3103 1784 3103 
Q 1356 3103 1142 2972 
Q 928 2841 928 2578 
Q 928 2378 1081 2264 
Q 1234 2150 1697 2047 
L 1894 2003 
Q 2506 1872 2764 1633 
Q 3022 1394 3022 966 
Q 3022 478 2636 193 
Q 2250 -91 1575 -91 
Q 1294 -91 989 -36 
Q 684 19 347 128 
L 347 722 
Q 666 556 975 473 
Q 1284 391 1588 391 
Q 1994 391 2212 530 
Q 2431 669 2431 922 
Q 2431 1156 2273 1281 
Q 2116 1406 1581 1522 
L 1381 1569 
Q 847 1681 609 1914 
Q 372 2147 372 2553 
Q 372 3047 722 3315 
Q 1072 3584 1716 3584 
Q 2034 3584 2315 3537 
Q 2597 3491 2834 3397 
z
" transform="scale(0.015625)"/>
      </defs>
      <use xlink:href="#DejaVuSans-4e"/>
      <use xlink:href="#DejaVuSans-75" x="74.804688"/>
      <use xlink:href="#DejaVuSans-6d" x="138.183594"/>
      <use xlink:href="#DejaVuSans-62" x="235.595703"/>
      <use xlink:href="#DejaVuSans-65" x="299.072266"/>
      <use xlink:href="#DejaVuSans-72" x="360.595703"/>
      <use xlink:href="#DejaVuSans-20" x="401.708984"/>
      <use xlink:href="#DejaVuSans-6f" x="433.496094"/>
      <use xlink:href="#DejaVuSans-66" x="494.677734"/>
      <use xlink:href="#DejaVuSans-20" x="529.882812"/>
      <use xlink:href="#DejaVuSans-4f" x="561.669922"/>
      <use xlink:href="#DejaVuSans-72" x="640.380859"/>
      <use xlink:href="#DejaVuSans-64" x="679.744141"/>
      <use xlink:href="#DejaVuSans-65" x="743.220703"/>
      <use xlink:href="#DejaVuSans-72" x="804.744141"/>
      <use xlink:href="#DejaVuSans-73" x="845.857422"/>
     </g>
    </g>
   </g>
   <g id="matplotlib.axis_2">
    <g id="ytick_1">
     <g id="line2d_7">
      <defs>
       <path id="mb6ff10b307" d="M 0 0 
L -3.5 0 
" style="stroke: #000000; stroke-width: 0.8"/>
      </defs>
      <g>
       <use xlink:href="#mb6ff10b307" x="57.6" y="284.404558" style="stroke: #000000; stroke-width: 0.8"/>
      </g>
     </g>
     <g id="text_8">
      <!-- 500 -->
      <g transform="translate(31.5125 288.203776)scale(0.1 -0.1)">
       <use xlink:href="#DejaVuSans-35"/>
       <use xlink:href="#DejaVuSans-30" x="63.623047"/>
       <use xlink:href="#DejaVuSans-30" x="127.246094"/>
      </g>
     </g>
    </g>
    <g id="ytick_2">
     <g id="line2d_8">
      <g>
       <use xlink:href="#mb6ff10b307" x="57.6" y="238.977191" style="stroke: #000000; stroke-width: 0.8"/>
      </g>
     </g>
     <g id="text_9">
      <!-- 1000 -->
      <g transform="translate(25.15 242.77641)scale(0.1 -0.1)">
       <use xlink:href="#DejaVuSans-31"/>
       <use xlink:href="#DejaVuSans-30" x="63.623047"/>
       <use xlink:href="#DejaVuSans-30" x="127.246094"/>
       <use xlink:href="#DejaVuSans-30" x="190.869141"/>
      </g>
     </g>
    </g>
    <g id="ytick_3">
     <g id="line2d_9">
      <g>
       <use xlink:href="#mb6ff10b307" x="57.6" y="193.549825" style="stroke: #000000; stroke-width: 0.8"/>
      </g>
     </g>
     <g id="text_10">
      <!-- 1500 -->
      <g transform="translate(25.15 197.349044)scale(0.1 -0.1)">
       <use xlink:href="#DejaVuSans-31"/>
       <use xlink:href="#DejaVuSans-35" x="63.623047"/>
       <use xlink:href="#DejaVuSans-30" x="127.246094"/>
       <use xlink:href="#DejaVuSans-30" x="190.869141"/>
      </g>
     </g>
    </g>
    <g id="ytick_4">
     <g id="line2d_10">
      <g>
       <use xlink:href="#mb6ff10b307" x="57.6" y="148.122459" style="stroke: #000000; stroke-width: 0.8"/>
      </g>
     </g>
     <g id="text_11">
      <!-- 2000 -->
      <g transform="translate(25.15 151.921678)scale(0.1 -0.1)">
       <use xlink:href="#DejaVuSans-32"/>
       <use xlink:href="#DejaVuSans-30" x="63.623047"/>
       <use xlink:href="#DejaVuSans-30" x="127.246094"/>
       <use xlink:href="#DejaVuSans-30" x="190.869141"/>
      </g>
     </g>
    </g>
    <g id="ytick_5">
     <g id="line2d_11">
      <g>
       <use xlink:href="#mb6ff10b307" x="57.6" y="102.695093" style="stroke: #000000; stroke-width: 0.8"/>
      </g>
     </g>
     <g id="text_12">
      <!-- 2500 -->
      <g transform="translate(25.15 106.494311)scale(0.1 -0.1)">
       <use xlink:href="#DejaVuSans-32"/>
       <use xlink:href="#DejaVuSans-35" x="63.623047"/>
       <use xlink:href="#DejaVuSans-30" x="127.246094"/>
       <use xlink:href="#DejaVuSans-30" x="190.869141"/>
      </g>
     </g>
    </g>
    <g id="ytick_6">
     <g id="line2d_12">
      <g>
       <use xlink:href="#mb6ff10b307" x="57.6" y="57.267726" style="stroke: #000000; stroke-width: 0.8"/>
      </g>
     </g>
     <g id="text_13">
      <!-- 3000 -->
      <g transform="translate(25.15 61.066945)scale(0.1 -0.1)">
       <use xlink:href="#DejaVuSans-33"/>
       <use xlink:href="#DejaVuSans-30" x="63.623047"/>
       <use xlink:href="#DejaVuSans-30" x="127.246094"/>
       <use xlink:href="#DejaVuSans-30" x="190.869141"/>
      </g>
     </g>
    </g>
    <g id="text_14">
     <!-- Waiting Time/s -->
     <g transform="translate(19.070312 211.410031)rotate(-90)scale(0.1 -0.1)">
      <defs>
       <path id="DejaVuSans-57" d="M 213 4666 
L 850 4666 
L 1831 722 
L 2809 4666 
L 3519 4666 
L 4500 722 
L 5478 4666 
L 6119 4666 
L 4947 0 
L 4153 0 
L 3169 4050 
L 2175 0 
L 1381 0 
L 213 4666 
z
" transform="scale(0.015625)"/>
       <path id="DejaVuSans-61" d="M 2194 1759 
Q 1497 1759 1228 1600 
Q 959 1441 959 1056 
Q 959 750 1161 570 
Q 1363 391 1709 391 
Q 2188 391 2477 730 
Q 2766 1069 2766 1631 
L 2766 1759 
L 2194 1759 
z
M 3341 1997 
L 3341 0 
L 2766 0 
L 2766 531 
Q 2569 213 2275 61 
Q 1981 -91 1556 -91 
Q 1019 -91 701 211 
Q 384 513 384 1019 
Q 384 1609 779 1909 
Q 1175 2209 1959 2209 
L 2766 2209 
L 2766 2266 
Q 2766 2663 2505 2880 
Q 2244 3097 1772 3097 
Q 1472 3097 1187 3025 
Q 903 2953 641 2809 
L 641 3341 
Q 956 3463 1253 3523 
Q 1550 3584 1831 3584 
Q 2591 3584 2966 3190 
Q 3341 2797 3341 1997 
z
" transform="scale(0.015625)"/>
       <path id="DejaVuSans-69" d="M 603 3500 
L 1178 3500 
L 1178 0 
L 603 0 
L 603 3500 
z
M 603 4863 
L 1178 4863 
L 1178 4134 
L 603 4134 
L 603 4863 
z
" transform="scale(0.015625)"/>
       <path id="DejaVuSans-74" d="M 1172 4494 
L 1172 3500 
L 2356 3500 
L 2356 3053 
L 1172 3053 
L 1172 1153 
Q 1172 725 1289 603 
Q 1406 481 1766 481 
L 2356 481 
L 2356 0 
L 1766 0 
Q 1100 0 847 248 
Q 594 497 594 1153 
L 594 3053 
L 172 3053 
L 172 3500 
L 594 3500 
L 594 4494 
L 1172 4494 
z
" transform="scale(0.015625)"/>
       <path id="DejaVuSans-6e" d="M 3513 2113 
L 3513 0 
L 2938 0 
L 2938 2094 
Q 2938 2591 2744 2837 
Q 2550 3084 2163 3084 
Q 1697 3084 1428 2787 
Q 1159 2491 1159 1978 
L 1159 0 
L 581 0 
L 581 3500 
L 1159 3500 
L 1159 2956 
Q 1366 3272 1645 3428 
Q 1925 3584 2291 3584 
Q 2894 3584 3203 3211 
Q 3513 2838 3513 2113 
z
" transform="scale(0.015625)"/>
       <path id="DejaVuSans-67" d="M 2906 1791 
Q 2906 2416 2648 2759 
Q 2391 3103 1925 3103 
Q 1463 3103 1205 2759 
Q 947 2416 947 1791 
Q 947 1169 1205 825 
Q 1463 481 1925 481 
Q 2391 481 2648 825 
Q 2906 1169 2906 1791 
z
M 3481 434 
Q 3481 -459 3084 -895 
Q 2688 -1331 1869 -1331 
Q 1566 -1331 1297 -1286 
Q 1028 -1241 775 -1147 
L 775 -588 
Q 1028 -725 1275 -790 
Q 1522 -856 1778 -856 
Q 2344 -856 2625 -561 
Q 2906 -266 2906 331 
L 2906 616 
Q 2728 306 2450 153 
Q 2172 0 1784 0 
Q 1141 0 747 490 
Q 353 981 353 1791 
Q 353 2603 747 3093 
Q 1141 3584 1784 3584 
Q 2172 3584 2450 3431 
Q 2728 3278 2906 2969 
L 2906 3500 
L 3481 3500 
L 3481 434 
z
" transform="scale(0.015625)"/>
       <path id="DejaVuSans-54" d="M -19 4666 
L 3928 4666 
L 3928 4134 
L 2272 4134 
L 2272 0 
L 1638 0 
L 1638 4134 
L -19 4134 
L -19 4666 
z
" transform="scale(0.015625)"/>
       <path id="DejaVuSans-2f" d="M 1625 4666 
L 2156 4666 
L 531 -594 
L 0 -594 
L 1625 4666 
z
" transform="scale(0.015625)"/>
      </defs>
      <use xlink:href="#DejaVuSans-57"/>
      <use xlink:href="#DejaVuSans-61" x="92.501953"/>
      <use xlink:href="#DejaVuSans-69" x="153.78125"/>
      <use xlink:href="#DejaVuSans-74" x="181.564453"/>
      <use xlink:href="#DejaVuSans-69" x="220.773438"/>
      <use xlink:href="#DejaVuSans-6e" x="248.556641"/>
      <use xlink:href="#DejaVuSans-67" x="311.935547"/>
      <use xlink:href="#DejaVuSans-20" x="375.412109"/>
      <use xlink:href="#DejaVuSans-54" x="407.199219"/>
      <use xlink:href="#DejaVuSans-69" x="465.158203"/>
      <use xlink:href="#DejaVuSans-6d" x="492.941406"/>
      <use xlink:href="#DejaVuSans-65" x="590.353516"/>
      <use xlink:href="#DejaVuSans-2f" x="651.876953"/>
      <use xlink:href="#DejaVuSans-73" x="685.568359"/>
     </g>
    </g>
   </g>
   <g id="line2d_13">
    <path d="M 73.832727 295.488 
L 73.897671 293.578459 
L 73.962615 285.923323 
L 74.027559 286.804333 
L 74.092503 288.438563 
L 74.157447 287.856795 
L 74.352278 280.012473 
L 74.54711 281.284664 
L 74.676998 277.115139 
L 74.741942 277.116813 
L 74.806886 277.103943 
L 75.001717 273.955602 
L 75.066661 273.824209 
L 75.131605 272.599316 
L 75.196549 273.182184 
L 75.326437 272.956315 
L 75.456325 271.524825 
L 75.7161 273.153579 
L 75.781044 272.788682 
L 75.845988 273.19539 
L 76.04082 271.210739 
L 76.105764 270.661382 
L 76.170708 271.268552 
L 76.365539 269.120939 
L 76.495427 270.208972 
L 76.625315 269.601041 
L 76.690259 270.019446 
L 76.88509 268.135747 
L 76.950034 267.94015 
L 77.014978 268.07727 
L 77.20981 267.604497 
L 77.274754 266.458778 
L 77.339698 266.602086 
L 77.469586 266.54245 
L 77.534529 267.073129 
L 77.794305 264.325703 
L 77.859249 264.371184 
L 77.924193 264.165429 
L 77.989137 264.207105 
L 78.248912 261.566668 
L 78.313856 261.969125 
L 78.508688 260.820402 
L 78.70352 258.904247 
L 78.768464 258.974108 
L 78.833407 258.832548 
L 78.898351 259.109226 
L 78.963295 258.520211 
L 79.028239 259.024828 
L 79.158127 258.457193 
L 79.223071 258.394855 
L 79.482846 259.655098 
L 79.54779 259.843494 
L 79.612734 259.455186 
L 79.677678 260.175488 
L 79.742622 260.068232 
L 80.067341 258.172398 
L 80.132285 258.397726 
L 80.197229 258.403607 
L 80.262173 258.576269 
L 80.521949 257.897452 
L 80.586893 258.301077 
L 80.781724 257.398217 
L 81.0415 257.447242 
L 81.106444 257.10917 
L 81.171388 257.205636 
L 81.301276 257.901242 
L 81.366219 257.707035 
L 81.431163 257.340539 
L 81.496107 257.42409 
L 81.690939 257.630127 
L 81.885771 257.289757 
L 82.080602 258.109294 
L 82.21049 258.237288 
L 82.275434 258.501462 
L 82.53521 257.583538 
L 82.600153 257.768402 
L 82.730041 257.450186 
L 82.794985 257.494082 
L 82.859929 257.513184 
L 82.924873 257.683227 
L 83.054761 256.783308 
L 83.119705 256.931925 
L 83.184649 256.97519 
L 83.249592 256.698453 
L 83.314536 256.861032 
L 83.37948 257.03605 
L 83.444424 256.796306 
L 83.509368 256.833226 
L 83.574312 256.946021 
L 83.769144 256.416489 
L 83.899031 256.297679 
L 84.028919 256.520755 
L 84.093863 256.430212 
L 84.288695 255.75522 
L 84.483527 255.967517 
L 84.743302 255.190785 
L 84.808246 255.116847 
L 84.87319 255.285679 
L 84.938134 255.16473 
L 85.003078 254.719263 
L 85.068022 254.854824 
L 85.327797 254.390416 
L 85.392741 254.670735 
L 85.457685 254.563766 
L 85.587573 254.151801 
L 85.652517 254.186048 
L 85.977236 253.529731 
L 86.04218 253.588034 
L 86.107124 253.829995 
L 86.301956 253.283883 
L 86.431843 252.956854 
L 86.496787 253.156024 
L 87.406002 250.335755 
L 87.470946 250.463438 
L 87.665778 250.582323 
L 87.795665 250.354164 
L 87.925553 250.53033 
L 88.055441 250.364969 
L 88.315216 249.015281 
L 88.38016 249.094766 
L 88.70488 248.589686 
L 88.769824 248.502066 
L 88.899712 248.61947 
L 89.094543 247.91553 
L 89.159487 247.58811 
L 89.224431 247.703149 
L 89.354319 247.73717 
L 89.614094 247.006377 
L 89.679038 247.075166 
L 89.743982 246.877858 
L 89.808926 246.970089 
L 89.938814 247.12348 
L 90.588253 245.180674 
L 90.653197 245.286405 
L 90.783085 244.637426 
L 90.848029 244.697549 
L 91.04286 244.308809 
L 91.237692 243.971413 
L 91.302636 243.918542 
L 91.497467 243.383275 
L 91.562411 243.298883 
L 91.757243 242.366552 
L 91.822187 242.322564 
L 92.21185 241.423462 
L 92.406682 241.367538 
L 92.601514 241.235596 
L 92.731402 240.854244 
L 92.796345 240.897322 
L 93.056121 240.34277 
L 93.186009 240.153723 
L 93.250953 240.263713 
L 93.380841 240.127204 
L 93.445784 240.287432 
L 93.70556 239.805844 
L 93.770504 239.849964 
L 94.03028 239.475779 
L 94.354999 239.097584 
L 94.484887 238.999268 
L 94.744662 238.234871 
L 95.069382 237.515368 
L 95.134326 237.519397 
L 95.588933 236.549565 
L 95.783765 236.409114 
L 95.848709 236.101696 
L 95.913653 236.139708 
L 96.563092 235.206532 
L 96.692979 235.142377 
L 97.147587 234.400786 
L 97.472306 234.141446 
L 97.602194 234.100717 
L 97.991857 233.420652 
L 98.121745 233.479321 
L 98.251633 233.4861 
L 98.316577 233.190549 
L 98.381521 233.314798 
L 98.70624 233.13738 
L 98.836128 233.039134 
L 99.095904 233.191069 
L 99.290735 232.919759 
L 99.355679 232.955159 
L 99.485567 232.672177 
L 99.615455 232.831886 
L 99.680399 232.636125 
L 99.745343 232.69726 
L 99.940174 232.624821 
L 100.070062 232.402564 
L 100.19995 232.490136 
L 100.264894 232.454796 
L 100.524669 231.884465 
L 100.654557 231.708015 
L 100.719501 231.692548 
L 100.784445 231.530187 
L 100.849389 231.579049 
L 100.914333 231.578403 
L 101.109164 231.183563 
L 101.36894 230.753108 
L 101.758603 230.64636 
L 101.953435 230.811066 
L 102.083323 231.008431 
L 102.148267 230.929994 
L 102.278155 230.645623 
L 102.408042 230.662364 
L 102.602874 230.28255 
L 103.057481 230.45983 
L 103.252313 230.229727 
L 103.771864 230.349904 
L 103.836808 230.220201 
L 103.901752 230.291268 
L 104.421303 230.21144 
L 104.746023 230.402022 
L 104.87591 230.176731 
L 105.135686 230.394994 
L 105.20063 230.42924 
L 105.330518 230.198127 
L 105.460406 230.294146 
L 105.525349 230.197564 
L 105.590293 230.2424 
L 106.174788 230.503749 
L 106.239732 230.578615 
L 106.434564 230.373097 
L 106.69434 230.454665 
L 106.824227 230.224777 
L 106.889171 230.262648 
L 107.733442 230.416487 
L 107.798386 230.263521 
L 107.86333 230.34406 
L 108.123105 230.246035 
L 108.382881 230.042124 
L 108.7076 229.869697 
L 108.967376 229.481683 
L 109.292096 229.599133 
L 109.421983 229.624387 
L 109.616815 229.637138 
L 109.811647 229.566075 
L 109.941534 229.480085 
L 110.136366 229.252862 
L 110.331198 229.282943 
L 110.396142 229.168983 
L 110.52603 229.376422 
L 110.590973 229.320114 
L 111.565132 229.310641 
L 111.759964 229.379219 
L 111.954795 229.163494 
L 112.084683 229.227352 
L 112.409403 228.884297 
L 112.669178 229.019955 
L 112.86401 228.841905 
L 113.058842 228.907081 
L 113.188729 228.855746 
L 113.383561 228.718272 
L 113.903112 228.452585 
L 114.097944 228.511883 
L 114.422663 228.459488 
L 115.461766 228.45584 
L 115.591654 228.281788 
L 115.721541 228.224604 
L 116.241093 228.100465 
L 116.37098 228.097045 
L 116.630756 228.119208 
L 116.890532 228.218491 
L 117.085363 228.219098 
L 117.215251 228.290936 
L 117.604914 227.936619 
L 117.734802 227.841171 
L 118.124466 227.519246 
L 118.254353 227.456056 
L 118.384241 227.459811 
L 118.579073 227.456851 
L 119.163568 227.028275 
L 119.3584 227.029249 
L 119.813007 226.788565 
L 120.007839 226.662499 
L 120.20267 226.566545 
L 120.657278 226.146719 
L 120.787165 226.205006 
L 120.981997 226.057363 
L 121.111885 226.047977 
L 121.241773 225.985864 
L 121.436604 225.775414 
L 121.761324 225.542904 
L 122.150987 225.498328 
L 122.605595 225.22861 
L 122.995258 225.085217 
L 123.644697 224.512968 
L 124.813687 224.021729 
L 125.008519 223.996741 
L 125.20335 223.809338 
L 125.787846 223.378422 
L 126.177509 223.238614 
L 126.502228 223.072221 
L 126.762004 223.052817 
L 127.02178 222.916827 
L 127.281555 222.713866 
L 127.736163 222.210646 
L 128.19077 222.033804 
L 128.970097 221.724811 
L 129.099984 221.619991 
L 129.229872 221.657379 
L 129.35976 221.568989 
L 129.489648 221.535144 
L 129.879311 221.424253 
L 130.268975 221.089578 
L 130.658638 221.056741 
L 130.85347 220.904739 
L 131.178189 220.73416 
L 131.308077 220.715405 
L 131.632796 220.402573 
L 132.152348 220.203241 
L 132.282235 220.123053 
L 132.477067 220.094227 
L 132.671899 220.02334 
L 132.931674 219.917266 
L 133.19145 219.68585 
L 133.451226 219.610317 
L 134.68516 219.083937 
L 134.879991 218.875309 
L 135.919094 218.337005 
L 136.178869 218.137304 
L 136.243813 218.123089 
L 136.503589 217.82687 
L 136.633477 217.787955 
L 136.828308 217.639438 
L 137.02314 217.595233 
L 137.542691 217.217431 
L 138.127186 216.899875 
L 138.451906 216.615695 
L 140.205391 215.378371 
L 140.465166 215.073732 
L 141.179549 214.544257 
L 141.504269 214.219014 
L 141.958876 213.734801 
L 144.166969 211.89872 
L 144.621576 211.708916 
L 145.85551 210.608919 
L 146.18023 210.4725 
L 146.375061 210.309979 
L 146.634837 210.223285 
L 146.894612 210.098679 
L 147.0245 210.013982 
L 147.544051 209.620801 
L 147.803827 209.560325 
L 147.998659 209.362254 
L 148.128546 209.288124 
L 148.453266 209.027933 
L 148.713042 208.849915 
L 149.232593 208.415324 
L 150.726302 207.307551 
L 151.18091 206.831834 
L 151.375741 206.686501 
L 151.830349 206.365167 
L 152.155068 206.204229 
L 152.869451 205.581082 
L 153.129227 205.372171 
L 153.713722 204.94125 
L 154.038441 204.594219 
L 154.233273 204.47965 
L 155.142487 203.678403 
L 155.532151 203.340953 
L 156.051702 202.954999 
L 156.766085 202.338456 
L 157.285636 201.898151 
L 158.454626 201.005653 
L 158.714402 200.770666 
L 159.104065 200.4703 
L 159.428785 200.157625 
L 159.818448 199.737148 
L 160.597775 199.037355 
L 160.922494 198.743754 
L 161.636877 198.150499 
L 162.091484 197.856659 
L 162.481148 197.52411 
L 163.000699 197.096794 
L 163.390362 196.888615 
L 163.974858 196.398424 
L 164.104745 196.289718 
L 164.68924 195.752494 
L 166.377782 194.384457 
L 166.832389 193.970766 
L 168.84565 192.40073 
L 169.300257 192.008106 
L 169.624977 191.659239 
L 169.819808 191.488097 
L 170.534191 190.719458 
L 170.923855 190.371626 
L 171.443406 189.917307 
L 171.768125 189.581762 
L 173.196891 188.346131 
L 173.911274 187.676229 
L 174.430825 187.299272 
L 175.01532 186.710971 
L 175.275096 186.525364 
L 176.444086 185.543976 
L 176.703861 185.30581 
L 190.082304 175.178123 
L 190.471968 174.852083 
L 191.51107 174.152972 
L 191.900734 173.818979 
L 192.095565 173.664842 
L 193.524331 172.632794 
L 193.978938 172.356135 
L 195.082985 171.574012 
L 195.537592 171.281722 
L 196.641638 170.582592 
L 196.966358 170.414689 
L 197.356021 170.2197 
L 198.00546 169.771301 
L 198.784787 169.212655 
L 199.823889 168.388972 
L 202.096926 166.72907 
L 202.551533 166.416069 
L 207.941876 162.904655 
L 208.396484 162.586495 
L 208.980979 162.18048 
L 209.435586 161.902808 
L 211.903454 160.52564 
L 212.293118 160.27261 
L 214.696042 158.867042 
L 215.410425 158.533717 
L 215.735144 158.358263 
L 216.384583 157.911987 
L 216.709303 157.733099 
L 221.255375 155.550378 
L 221.839871 155.200367 
L 222.229534 155.001177 
L 222.943917 154.646699 
L 223.203692 154.502321 
L 223.593356 154.293173 
L 224.567514 153.775453 
L 237.751125 146.188535 
L 238.270677 145.901751 
L 242.686862 143.261996 
L 243.401245 142.905778 
L 244.894954 142.025645 
L 245.739225 141.476043 
L 252.753166 137.267667 
L 254.052044 136.485309 
L 255.805529 135.492667 
L 257.104407 134.729867 
L 257.364183 134.582656 
L 257.948678 134.252601 
L 258.857892 133.763884 
L 260.026882 133.014319 
L 269.768467 127.637639 
L 273.275438 125.771602 
L 273.600157 125.603336 
L 276.457689 123.955392 
L 276.912296 123.700912 
L 277.301959 123.476808 
L 278.925557 122.501402 
L 280.679042 121.561303 
L 281.198593 121.273545 
L 286.653881 118.125182 
L 287.30332 117.718556 
L 288.47231 117.015594 
L 291.654561 115.019691 
L 292.304 114.584201 
L 294.64198 113.114429 
L 295.486251 112.561166 
L 295.875914 112.313849 
L 298.928277 110.352001 
L 299.96738 109.720075 
L 302.630079 108.227736 
L 303.149631 107.940219 
L 303.47435 107.739727 
L 303.993901 107.466824 
L 304.578396 107.07401 
L 319.580437 98.510156 
L 320.684483 97.90573 
L 321.398866 97.543622 
L 325.035724 95.491402 
L 326.009883 94.927759 
L 330.426068 92.548777 
L 338.608999 87.581042 
L 339.193494 87.182162 
L 340.037765 86.623886 
L 340.492372 86.32789 
L 342.895296 84.840555 
L 343.544735 84.405057 
L 344.45395 83.895363 
L 345.363164 83.336204 
L 356.598459 76.72872 
L 359.585878 75.170221 
L 360.689924 74.615098 
L 361.664083 74.087865 
L 362.962961 73.40165 
L 367.054426 71.239828 
L 369.392406 70.013252 
L 370.496453 69.48852 
L 371.730387 68.849453 
L 372.769489 68.319181 
L 374.78275 67.260029 
L 379.978262 64.531054 
L 380.497813 64.254192 
L 393.031985 57.022535 
L 394.655583 56.024459 
L 395.305022 55.606009 
L 398.487273 53.568 
L 398.487273 53.568 
" clip-path="url(#p8d2da6284c)" style="fill: none; stroke-dasharray: 2,3.3; stroke-dashoffset: 0; stroke: #0000ff; stroke-width: 2"/>
   </g>
   <g id="line2d_14">
    <path d="M 73.832727 295.488 
L 73.897671 293.578459 
L 73.962615 285.923323 
L 74.027559 289.941724 
L 74.092503 289.842851 
L 74.157447 290.69829 
L 74.222391 289.876814 
L 74.352278 282.897701 
L 74.417222 283.819525 
L 74.482166 283.780414 
L 74.54711 283.218937 
L 74.676998 278.773088 
L 74.741942 278.994633 
L 74.806886 278.52207 
L 75.066661 272.668848 
L 75.326437 271.184393 
L 75.391381 271.630253 
L 75.456325 271.430318 
L 75.521269 271.576267 
L 75.586213 272.182356 
L 75.781044 270.010235 
L 75.910932 271.552755 
L 75.975876 270.519528 
L 76.105764 272.056604 
L 76.170708 271.949543 
L 76.495427 269.025416 
L 76.690259 270.376558 
L 76.755203 270.216113 
L 76.820147 270.858583 
L 76.88509 269.553134 
L 76.950034 269.753519 
L 77.20981 268.506719 
L 77.274754 268.713609 
L 77.469586 267.692459 
L 77.599473 268.733645 
L 77.664417 267.990645 
L 77.729361 268.069694 
L 77.794305 268.407526 
L 77.859249 268.141845 
L 77.924193 268.254837 
L 77.989137 268.749861 
L 78.248912 266.387722 
L 78.3788 266.621712 
L 78.443744 266.964786 
L 78.638576 265.069465 
L 78.70352 265.130759 
L 78.898351 264.073462 
L 79.158127 261.926439 
L 79.223071 261.947148 
L 79.417902 262.58006 
L 79.54779 262.000191 
L 79.742622 262.717721 
L 79.807566 262.718221 
L 79.87251 262.850512 
L 79.937454 262.721765 
L 80.002398 263.32802 
L 80.067341 263.19296 
L 80.197229 263.438545 
L 80.392061 262.558281 
L 80.521949 263.164924 
L 80.586893 262.619354 
L 80.651837 262.703072 
L 80.71678 262.763382 
L 80.846668 263.18929 
L 80.911612 263.056519 
L 81.0415 262.233128 
L 81.106444 262.15007 
L 81.301276 261.126856 
L 81.625995 262.02574 
L 81.690939 262.187813 
L 81.755883 262.127618 
L 81.950715 261.767765 
L 82.080602 261.723721 
L 82.21049 262.073021 
L 82.275434 261.999936 
L 82.405322 261.233862 
L 82.470266 261.436665 
L 82.53521 261.48195 
L 82.665097 260.404003 
L 82.730041 260.556795 
L 82.794985 260.877693 
L 82.924873 260.434155 
L 82.989817 260.584669 
L 83.054761 260.476391 
L 83.119705 260.412325 
L 83.314536 259.619472 
L 83.444424 259.22363 
L 83.7042 259.558459 
L 83.834088 259.094622 
L 83.899031 259.191455 
L 83.963975 258.804693 
L 84.028919 258.908688 
L 84.093863 259.016282 
L 84.483527 258.079731 
L 84.613414 258.052539 
L 84.87319 257.431835 
L 85.457685 256.213978 
L 85.587573 255.987163 
L 85.912292 254.991465 
L 86.237012 254.587476 
L 86.301956 254.787738 
L 86.431843 254.317441 
L 86.561731 254.59672 
L 86.691619 254.520928 
L 86.756563 254.674729 
L 87.146226 253.517942 
L 87.21117 253.600236 
L 87.470946 253.13803 
L 87.665778 253.016084 
L 87.795665 253.213377 
L 87.860609 253.067565 
L 87.925553 253.195124 
L 87.990497 252.966691 
L 88.055441 253.091335 
L 88.120385 253.257568 
L 88.185329 253.147114 
L 88.445104 252.243709 
L 88.574992 252.374689 
L 89.159487 251.723104 
L 89.289375 251.428799 
L 89.419263 251.48346 
L 89.679038 251.756141 
L 89.938814 251.388711 
L 90.133646 251.743118 
L 90.263533 251.679108 
L 90.328477 251.681994 
L 90.523309 251.127745 
L 90.588253 251.301632 
L 90.653197 251.06509 
L 90.718141 251.15554 
L 90.912972 251.056838 
L 91.04286 251.109027 
L 91.237692 250.840343 
L 91.302636 251.029433 
L 91.36758 250.896215 
L 91.497467 250.996565 
L 91.692299 250.563472 
L 91.887131 250.345848 
L 91.952075 250.500871 
L 92.017019 250.581031 
L 92.341738 250.030604 
L 92.406682 250.015703 
L 92.471626 250.133128 
L 92.53657 250.068503 
L 92.601514 250.129771 
L 92.731402 249.84375 
L 92.926233 249.981717 
L 93.056121 249.730381 
L 93.121065 249.775129 
L 93.380841 249.736245 
L 93.575672 249.565331 
L 93.640616 249.719982 
L 93.70556 249.593812 
L 93.835448 249.739826 
L 93.900392 249.638313 
L 93.965336 249.771938 
L 94.03028 249.697035 
L 94.095223 249.668396 
L 94.354999 250.004836 
L 94.549831 249.980802 
L 94.679718 250.078558 
L 94.744662 249.990183 
L 94.809606 250.088364 
L 95.069382 250.050497 
L 95.134326 250.151578 
L 95.329157 249.883834 
L 95.394101 249.932925 
L 95.459045 249.78727 
L 95.523989 249.887448 
L 95.718821 250.039169 
L 95.783765 249.957885 
L 95.848709 250.121592 
L 95.913653 249.946882 
L 95.978596 250.002806 
L 96.238372 250.164146 
L 96.303316 250.105513 
L 96.433204 250.196689 
L 96.563092 250.174716 
L 97.212531 250.756463 
L 97.342418 250.871071 
L 97.472306 250.781782 
L 97.667138 250.81989 
L 97.732082 250.725558 
L 97.797026 250.805181 
L 98.251633 250.710037 
L 98.316577 250.767886 
L 98.446465 250.605051 
L 98.771184 250.854692 
L 98.836128 250.870949 
L 99.03096 251.121896 
L 99.225791 251.167698 
L 99.615455 250.994222 
L 99.87523 251.153591 
L 100.135006 250.802196 
L 100.654557 250.78685 
L 100.784445 250.820641 
L 100.849389 250.908338 
L 100.979277 250.801242 
L 101.109164 250.980836 
L 101.433884 250.386342 
L 101.498828 250.361027 
L 101.628716 250.460879 
L 101.823547 250.497362 
L 102.018379 250.394851 
L 102.083323 250.353564 
L 102.343098 250.626362 
L 102.86265 251.242865 
L 103.057481 250.919612 
L 103.122425 250.957768 
L 103.187369 250.834782 
L 103.252313 250.87318 
L 103.577032 250.884529 
L 103.70692 250.83238 
L 103.771864 250.923732 
L 103.966696 250.720023 
L 104.03164 250.755778 
L 104.096584 250.646895 
L 104.161528 250.702782 
L 104.291415 250.785098 
L 104.551191 250.353897 
L 104.616135 250.425804 
L 104.746023 250.456436 
L 104.87591 250.533129 
L 105.070742 250.46775 
L 105.330518 250.41635 
L 105.525349 250.189793 
L 105.720181 250.258276 
L 105.979957 250.36877 
L 106.629396 250.135855 
L 106.824227 250.203121 
L 107.019059 250.169952 
L 107.084003 250.266772 
L 107.148947 250.173472 
L 107.668498 250.259414 
L 107.86333 250.088112 
L 108.058161 249.889393 
L 108.188049 249.905917 
L 108.577713 249.42597 
L 108.837488 249.424965 
L 109.03232 249.482759 
L 109.097264 249.398607 
L 109.227152 249.481296 
L 109.681759 249.480191 
L 109.876591 249.520854 
L 110.071422 249.404775 
L 110.20131 249.500873 
L 110.396142 249.400992 
L 110.655917 249.425707 
L 110.915693 249.205972 
L 111.045581 249.25643 
L 111.759964 249.420478 
L 111.824908 249.48204 
L 111.954795 249.382182 
L 112.084683 249.416124 
L 112.214571 249.4086 
L 112.474347 249.254 
L 112.734122 249.484456 
L 112.928954 249.413131 
L 113.188729 249.398469 
L 113.708281 249.515442 
L 113.968056 249.347496 
L 114.617495 249.481656 
L 114.747383 249.435691 
L 115.007159 249.573735 
L 115.137046 249.649291 
L 115.266934 249.824573 
L 115.331878 249.694011 
L 115.396822 249.739454 
L 115.591654 249.838934 
L 116.241093 249.755513 
L 117.280195 250.084505 
L 117.410083 250.106258 
L 120.52739 249.29923 
L 120.722222 249.148744 
L 121.69638 249.237343 
L 121.826268 249.282856 
L 122.086043 249.248342 
L 122.215931 249.173236 
L 122.670538 249.243855 
L 123.255034 249.237603 
L 123.514809 249.088532 
L 123.774585 249.072039 
L 124.03436 249.037616 
L 124.294136 249.160256 
L 126.956836 249.399221 
L 127.086724 249.435817 
L 127.346499 249.434445 
L 127.801106 249.570615 
L 127.995938 249.584618 
L 128.19077 249.521283 
L 128.320658 249.56516 
L 129.03504 249.709929 
L 129.229872 249.737912 
L 129.749423 249.576962 
L 130.009199 249.600557 
L 130.204031 249.507505 
L 130.52875 249.598407 
L 130.788526 249.4938 
L 131.113245 249.586259 
L 131.178189 249.484272 
L 131.243133 249.535592 
L 131.567852 249.583073 
L 131.892572 249.7166 
L 132.736843 249.822304 
L 132.801787 249.741079 
L 132.86673 249.794789 
L 133.581113 249.672586 
L 133.711001 249.604771 
L 133.970777 249.563469 
L 134.555272 249.592151 
L 134.750103 249.572459 
L 135.269655 249.569722 
L 135.399542 249.588443 
L 135.984038 249.426309 
L 136.763364 249.399133 
L 137.153028 249.50321 
L 138.062242 249.251647 
L 138.257074 249.164127 
L 138.386962 249.297747 
L 138.451906 249.224002 
L 139.101345 248.955478 
L 139.426064 248.96389 
L 139.620896 248.932696 
L 139.945615 248.935213 
L 140.205391 248.898927 
L 140.335279 248.906339 
L 140.53011 248.914157 
L 141.374381 248.669467 
L 141.764044 248.732021 
L 141.958876 248.717415 
L 142.283596 248.813306 
L 142.608315 248.835082 
L 142.933035 248.931184 
L 143.582474 248.757822 
L 143.647417 248.821743 
L 143.712361 248.740068 
L 143.842249 248.749468 
L 144.166969 248.826954 
L 144.3618 248.81686 
L 147.673939 249.022192 
L 148.128546 248.939227 
L 148.453266 248.997257 
L 148.713042 248.97779 
L 148.907873 248.97283 
L 149.427424 249.058355 
L 149.817088 249.033505 
L 150.011919 248.975895 
L 150.206751 248.938863 
L 150.726302 248.865635 
L 151.115966 248.754611 
L 151.440685 248.753122 
L 151.635517 248.707372 
L 152.02518 248.690583 
L 152.414844 248.740763 
L 152.804507 248.642079 
L 153.259114 248.639437 
L 153.453946 248.552572 
L 153.843609 248.485982 
L 155.597095 248.397777 
L 155.791926 248.374995 
L 156.051702 248.390449 
L 156.246534 248.458664 
L 156.506309 248.420296 
L 156.766085 248.411681 
L 156.895973 248.382616 
L 157.155748 248.465303 
L 157.285636 248.441006 
L 157.480468 248.432185 
L 157.740243 248.338617 
L 158.064963 248.244234 
L 158.324738 248.109945 
L 158.909233 248.274429 
L 159.298897 248.231769 
L 159.948336 248.320822 
L 160.143168 248.295055 
L 160.402943 248.301227 
L 161.247214 248.221128 
L 161.636877 248.249862 
L 162.286316 248.228253 
L 162.481148 248.186529 
L 164.169689 248.153888 
L 164.68924 248.061512 
L 164.949016 248.086065 
L 167.871491 248.030479 
L 168.196211 247.921104 
L 168.84565 247.857146 
L 169.560033 247.776801 
L 169.754864 247.770213 
L 170.144528 247.711182 
L 171.50835 247.570387 
L 171.898013 247.503309 
L 172.612396 247.487312 
L 173.002059 247.429138 
L 173.391723 247.480203 
L 173.716442 247.493012 
L 174.690601 247.420384 
L 174.820488 247.381569 
L 175.080264 247.423736 
L 175.275096 247.454599 
L 175.599815 247.48597 
L 176.054423 247.449322 
L 176.379142 247.522842 
L 178.327459 247.776817 
L 178.717122 247.796552 
L 179.041842 247.769456 
L 180.145888 247.821203 
L 180.405664 247.751104 
L 182.6787 247.965028 
L 182.873532 247.926235 
L 183.328139 247.956237 
L 184.17241 247.874497 
L 184.432185 247.858057 
L 184.691961 247.872644 
L 186.445446 247.745132 
L 186.640278 247.706565 
L 186.900053 247.704361 
L 187.67938 247.590271 
L 188.263875 247.631536 
L 188.458707 247.596525 
L 196.187031 247.959605 
L 196.381863 247.891111 
L 196.83647 247.906263 
L 197.615797 247.961972 
L 198.460067 247.938598 
L 199.17445 247.905779 
L 199.564114 247.935809 
L 200.473328 247.798959 
L 200.798048 247.766321 
L 201.057823 247.792042 
L 201.83715 247.731771 
L 202.161869 247.739677 
L 202.486589 247.651103 
L 203.071084 247.580485 
L 205.733784 247.765872 
L 205.928616 247.747261 
L 208.851091 247.827884 
L 209.890193 247.717338 
L 210.214913 247.734623 
L 213.072444 247.693602 
L 213.33222 247.595943 
L 213.721883 247.530729 
L 214.50121 247.528113 
L 215.215593 247.412992 
L 215.735144 247.342346 
L 216.254695 247.215109 
L 216.644359 247.220126 
L 217.098966 247.235278 
L 217.293798 247.23388 
L 217.813349 247.18325 
L 220.800768 247.207671 
L 221.125488 247.235339 
L 222.684141 247.220601 
L 224.437626 247.209761 
L 224.82729 247.174666 
L 225.99628 247.202727 
L 226.515831 247.143484 
L 226.970438 247.126282 
L 227.684821 247.067642 
L 231.061904 246.946132 
L 231.971119 247.002909 
L 232.620558 246.957015 
L 233.010221 247.002111 
L 233.854492 246.953694 
L 234.438987 247.03756 
L 236.712023 246.871206 
L 237.49135 246.901269 
L 240.868433 246.819154 
L 241.193152 246.827202 
L 241.647759 246.781011 
L 242.81675 246.799277 
L 243.141469 246.796301 
L 244.505291 246.738434 
L 246.32372 246.681552 
L 247.557654 246.624952 
L 248.336981 246.635384 
L 255.285978 246.440471 
L 267.560375 246.484873 
L 268.014982 246.476113 
L 270.223074 246.565845 
L 273.14555 246.469954 
L 273.665101 246.420847 
L 274.574316 246.352914 
L 275.418586 246.431335 
L 278.990501 246.386169 
L 279.445108 246.36381 
L 280.549154 246.394443 
L 284.835451 246.236881 
L 285.549834 246.21074 
L 286.134329 246.21682 
L 286.848712 246.127504 
L 287.563095 246.00891 
L 288.082646 246.047062 
L 288.861973 245.941979 
L 289.31658 245.927401 
L 289.836132 245.893433 
L 290.485571 245.881633 
L 292.953439 245.843574 
L 293.278158 245.837451 
L 294.382204 245.772525 
L 295.291419 245.767377 
L 295.746026 245.750532 
L 298.148951 245.75293 
L 298.343782 245.73358 
L 300.746706 245.812603 
L 301.006482 245.824096 
L 305.942218 245.75322 
L 306.526713 245.743063 
L 307.046265 245.773075 
L 308.020423 245.726589 
L 310.163572 245.779255 
L 317.3074 245.720139 
L 331.270338 245.792265 
L 332.244497 245.731669 
L 333.218655 245.669663 
L 336.530794 245.579757 
L 336.920458 245.546321 
L 342.051025 245.452729 
L 343.220016 245.472924 
L 344.324062 245.458856 
L 345.62294 245.447183 
L 346.012603 245.442735 
L 346.532154 245.472643 
L 347.11665 245.429088 
L 347.701145 245.413931 
L 348.545415 245.460865 
L 350.104069 245.438165 
L 351.338003 245.441596 
L 353.351264 245.45428 
L 353.675983 245.441219 
L 355.234637 245.495588 
L 355.884076 245.532243 
L 359.001383 245.571662 
L 397.058507 244.689474 
L 398.487273 244.552487 
L 398.487273 244.552487 
" clip-path="url(#p8d2da6284c)" style="fill: none; stroke-dasharray: 2,3.3; stroke-dashoffset: 0; stroke: #ffa500; stroke-width: 2"/>
   </g>
   <g id="patch_3">
    <path d="M 57.6 307.584 
L 57.6 41.472 
" style="fill: none; stroke: #000000; stroke-width: 0.8; stroke-linejoin: miter; stroke-linecap: square"/>
   </g>
   <g id="patch_4">
    <path d="M 414.72 307.584 
L 414.72 41.472 
" style="fill: none; stroke: #000000; stroke-width: 0.8; stroke-linejoin: miter; stroke-linecap: square"/>
   </g>
   <g id="patch_5">
    <path d="M 57.6 307.584 
L 414.72 307.584 
" style="fill: none; stroke: #000000; stroke-width: 0.8; stroke-linejoin: miter; stroke-linecap: square"/>
   </g>
   <g id="patch_6">
    <path d="M 57.6 41.472 
L 414.72 41.472 
" style="fill: none; stroke: #000000; stroke-width: 0.8; stroke-linejoin: miter; stroke-linecap: square"/>
   </g>
   <g id="text_15">
    <!-- Waiting Time Plot -->
    <g transform="translate(183.833438 8.2635)scale(0.12 -0.12)">
     <defs>
      <path id="DejaVuSans-50" d="M 1259 4147 
L 1259 2394 
L 2053 2394 
Q 2494 2394 2734 2622 
Q 2975 2850 2975 3272 
Q 2975 3691 2734 3919 
Q 2494 4147 2053 4147 
L 1259 4147 
z
M 628 4666 
L 2053 4666 
Q 2838 4666 3239 4311 
Q 3641 3956 3641 3272 
Q 3641 2581 3239 2228 
Q 2838 1875 2053 1875 
L 1259 1875 
L 1259 0 
L 628 0 
L 628 4666 
z
" transform="scale(0.015625)"/>
      <path id="DejaVuSans-6c" d="M 603 4863 
L 1178 4863 
L 1178 0 
L 603 0 
L 603 4863 
z
" transform="scale(0.015625)"/>
     </defs>
     <use xlink:href="#DejaVuSans-57"/>
     <use xlink:href="#DejaVuSans-61" x="92.501953"/>
     <use xlink:href="#DejaVuSans-69" x="153.78125"/>
     <use xlink:href="#DejaVuSans-74" x="181.564453"/>
     <use xlink:href="#DejaVuSans-69" x="220.773438"/>
     <use xlink:href="#DejaVuSans-6e" x="248.556641"/>
     <use xlink:href="#DejaVuSans-67" x="311.935547"/>
     <use xlink:href="#DejaVuSans-20" x="375.412109"/>
     <use xlink:href="#DejaVuSans-54" x="407.199219"/>
     <use xlink:href="#DejaVuSans-69" x="465.158203"/>
     <use xlink:href="#DejaVuSans-6d" x="492.941406"/>
     <use xlink:href="#DejaVuSans-65" x="590.353516"/>
     <use xlink:href="#DejaVuSans-20" x="651.876953"/>
     <use xlink:href="#DejaVuSans-50" x="683.664062"/>
     <use xlink:href="#DejaVuSans-6c" x="743.966797"/>
     <use xlink:href="#DejaVuSans-6f" x="771.75"/>
     <use xlink:href="#DejaVuSans-74" x="832.931641"/>
    </g>
    <!--  avg_d = 3040.72133977216  -->
    <g transform="translate(146.489062 21.700875)scale(0.12 -0.12)">
     <defs>
      <path id="DejaVuSans-76" d="M 191 3500 
L 800 3500 
L 1894 563 
L 2988 3500 
L 3597 3500 
L 2284 0 
L 1503 0 
L 191 3500 
z
" transform="scale(0.015625)"/>
      <path id="DejaVuSans-5f" d="M 3263 -1063 
L 3263 -1509 
L -63 -1509 
L -63 -1063 
L 3263 -1063 
z
" transform="scale(0.015625)"/>
      <path id="DejaVuSans-3d" d="M 678 2906 
L 4684 2906 
L 4684 2381 
L 678 2381 
L 678 2906 
z
M 678 1631 
L 4684 1631 
L 4684 1100 
L 678 1100 
L 678 1631 
z
" transform="scale(0.015625)"/>
      <path id="DejaVuSans-2e" d="M 684 794 
L 1344 794 
L 1344 0 
L 684 0 
L 684 794 
z
" transform="scale(0.015625)"/>
      <path id="DejaVuSans-37" d="M 525 4666 
L 3525 4666 
L 3525 4397 
L 1831 0 
L 1172 0 
L 2766 4134 
L 525 4134 
L 525 4666 
z
" transform="scale(0.015625)"/>
      <path id="DejaVuSans-39" d="M 703 97 
L 703 672 
Q 941 559 1184 500 
Q 1428 441 1663 441 
Q 2288 441 2617 861 
Q 2947 1281 2994 2138 
Q 2813 1869 2534 1725 
Q 2256 1581 1919 1581 
Q 1219 1581 811 2004 
Q 403 2428 403 3163 
Q 403 3881 828 4315 
Q 1253 4750 1959 4750 
Q 2769 4750 3195 4129 
Q 3622 3509 3622 2328 
Q 3622 1225 3098 567 
Q 2575 -91 1691 -91 
Q 1453 -91 1209 -44 
Q 966 3 703 97 
z
M 1959 2075 
Q 2384 2075 2632 2365 
Q 2881 2656 2881 3163 
Q 2881 3666 2632 3958 
Q 2384 4250 1959 4250 
Q 1534 4250 1286 3958 
Q 1038 3666 1038 3163 
Q 1038 2656 1286 2365 
Q 1534 2075 1959 2075 
z
" transform="scale(0.015625)"/>
      <path id="DejaVuSans-36" d="M 2113 2584 
Q 1688 2584 1439 2293 
Q 1191 2003 1191 1497 
Q 1191 994 1439 701 
Q 1688 409 2113 409 
Q 2538 409 2786 701 
Q 3034 994 3034 1497 
Q 3034 2003 2786 2293 
Q 2538 2584 2113 2584 
z
M 3366 4563 
L 3366 3988 
Q 3128 4100 2886 4159 
Q 2644 4219 2406 4219 
Q 1781 4219 1451 3797 
Q 1122 3375 1075 2522 
Q 1259 2794 1537 2939 
Q 1816 3084 2150 3084 
Q 2853 3084 3261 2657 
Q 3669 2231 3669 1497 
Q 3669 778 3244 343 
Q 2819 -91 2113 -91 
Q 1303 -91 875 529 
Q 447 1150 447 2328 
Q 447 3434 972 4092 
Q 1497 4750 2381 4750 
Q 2619 4750 2861 4703 
Q 3103 4656 3366 4563 
z
" transform="scale(0.015625)"/>
     </defs>
     <use xlink:href="#DejaVuSans-20"/>
     <use xlink:href="#DejaVuSans-61" x="31.787109"/>
     <use xlink:href="#DejaVuSans-76" x="93.066406"/>
     <use xlink:href="#DejaVuSans-67" x="152.246094"/>
     <use xlink:href="#DejaVuSans-5f" x="215.722656"/>
     <use xlink:href="#DejaVuSans-64" x="265.722656"/>
     <use xlink:href="#DejaVuSans-20" x="329.199219"/>
     <use xlink:href="#DejaVuSans-3d" x="360.986328"/>
     <use xlink:href="#DejaVuSans-20" x="444.775391"/>
     <use xlink:href="#DejaVuSans-33" x="476.5625"/>
     <use xlink:href="#DejaVuSans-30" x="540.185547"/>
     <use xlink:href="#DejaVuSans-34" x="603.808594"/>
     <use xlink:href="#DejaVuSans-30" x="667.431641"/>
     <use xlink:href="#DejaVuSans-2e" x="731.054688"/>
     <use xlink:href="#DejaVuSans-37" x="762.841797"/>
     <use xlink:href="#DejaVuSans-32" x="826.464844"/>
     <use xlink:href="#DejaVuSans-31" x="890.087891"/>
     <use xlink:href="#DejaVuSans-33" x="953.710938"/>
     <use xlink:href="#DejaVuSans-33" x="1017.333984"/>
     <use xlink:href="#DejaVuSans-39" x="1080.957031"/>
     <use xlink:href="#DejaVuSans-37" x="1144.580078"/>
     <use xlink:href="#DejaVuSans-37" x="1208.203125"/>
     <use xlink:href="#DejaVuSans-32" x="1271.826172"/>
     <use xlink:href="#DejaVuSans-31" x="1335.449219"/>
     <use xlink:href="#DejaVuSans-36" x="1399.072266"/>
     <use xlink:href="#DejaVuSans-20" x="1462.695312"/>
    </g>
    <!--  avg_a = 938.635052300483diff = 2102.0862874716768 -->
    <g transform="translate(63.181875 35.472)scale(0.12 -0.12)">
     <defs>
      <path id="DejaVuSans-38" d="M 2034 2216 
Q 1584 2216 1326 1975 
Q 1069 1734 1069 1313 
Q 1069 891 1326 650 
Q 1584 409 2034 409 
Q 2484 409 2743 651 
Q 3003 894 3003 1313 
Q 3003 1734 2745 1975 
Q 2488 2216 2034 2216 
z
M 1403 2484 
Q 997 2584 770 2862 
Q 544 3141 544 3541 
Q 544 4100 942 4425 
Q 1341 4750 2034 4750 
Q 2731 4750 3128 4425 
Q 3525 4100 3525 3541 
Q 3525 3141 3298 2862 
Q 3072 2584 2669 2484 
Q 3125 2378 3379 2068 
Q 3634 1759 3634 1313 
Q 3634 634 3220 271 
Q 2806 -91 2034 -91 
Q 1263 -91 848 271 
Q 434 634 434 1313 
Q 434 1759 690 2068 
Q 947 2378 1403 2484 
z
M 1172 3481 
Q 1172 3119 1398 2916 
Q 1625 2713 2034 2713 
Q 2441 2713 2670 2916 
Q 2900 3119 2900 3481 
Q 2900 3844 2670 4047 
Q 2441 4250 2034 4250 
Q 1625 4250 1398 4047 
Q 1172 3844 1172 3481 
z
" transform="scale(0.015625)"/>
     </defs>
     <use xlink:href="#DejaVuSans-20"/>
     <use xlink:href="#DejaVuSans-61" x="31.787109"/>
     <use xlink:href="#DejaVuSans-76" x="93.066406"/>
     <use xlink:href="#DejaVuSans-67" x="152.246094"/>
     <use xlink:href="#DejaVuSans-5f" x="215.722656"/>
     <use xlink:href="#DejaVuSans-61" x="265.722656"/>
     <use xlink:href="#DejaVuSans-20" x="327.001953"/>
     <use xlink:href="#DejaVuSans-3d" x="358.789062"/>
     <use xlink:href="#DejaVuSans-20" x="442.578125"/>
     <use xlink:href="#DejaVuSans-39" x="474.365234"/>
     <use xlink:href="#DejaVuSans-33" x="537.988281"/>
     <use xlink:href="#DejaVuSans-38" x="601.611328"/>
     <use xlink:href="#DejaVuSans-2e" x="665.234375"/>
     <use xlink:href="#DejaVuSans-36" x="697.021484"/>
     <use xlink:href="#DejaVuSans-33" x="760.644531"/>
     <use xlink:href="#DejaVuSans-35" x="824.267578"/>
     <use xlink:href="#DejaVuSans-30" x="887.890625"/>
     <use xlink:href="#DejaVuSans-35" x="951.513672"/>
     <use xlink:href="#DejaVuSans-32" x="1015.136719"/>
     <use xlink:href="#DejaVuSans-33" x="1078.759766"/>
     <use xlink:href="#DejaVuSans-30" x="1142.382812"/>
     <use xlink:href="#DejaVuSans-30" x="1206.005859"/>
     <use xlink:href="#DejaVuSans-34" x="1269.628906"/>
     <use xlink:href="#DejaVuSans-38" x="1333.251953"/>
     <use xlink:href="#DejaVuSans-33" x="1396.875"/>
     <use xlink:href="#DejaVuSans-64" x="1460.498047"/>
     <use xlink:href="#DejaVuSans-69" x="1523.974609"/>
     <use xlink:href="#DejaVuSans-66" x="1551.757812"/>
     <use xlink:href="#DejaVuSans-66" x="1586.962891"/>
     <use xlink:href="#DejaVuSans-20" x="1622.167969"/>
     <use xlink:href="#DejaVuSans-3d" x="1653.955078"/>
     <use xlink:href="#DejaVuSans-20" x="1737.744141"/>
     <use xlink:href="#DejaVuSans-32" x="1769.53125"/>
     <use xlink:href="#DejaVuSans-31" x="1833.154297"/>
     <use xlink:href="#DejaVuSans-30" x="1896.777344"/>
     <use xlink:href="#DejaVuSans-32" x="1960.400391"/>
     <use xlink:href="#DejaVuSans-2e" x="2024.023438"/>
     <use xlink:href="#DejaVuSans-30" x="2055.810547"/>
     <use xlink:href="#DejaVuSans-38" x="2119.433594"/>
     <use xlink:href="#DejaVuSans-36" x="2183.056641"/>
     <use xlink:href="#DejaVuSans-32" x="2246.679688"/>
     <use xlink:href="#DejaVuSans-38" x="2310.302734"/>
     <use xlink:href="#DejaVuSans-37" x="2373.925781"/>
     <use xlink:href="#DejaVuSans-34" x="2437.548828"/>
     <use xlink:href="#DejaVuSans-37" x="2501.171875"/>
     <use xlink:href="#DejaVuSans-31" x="2564.794922"/>
     <use xlink:href="#DejaVuSans-36" x="2628.417969"/>
     <use xlink:href="#DejaVuSans-37" x="2692.041016"/>
     <use xlink:href="#DejaVuSans-36" x="2755.664062"/>
     <use xlink:href="#DejaVuSans-38" x="2819.287109"/>
    </g>
   </g>
   <g id="legend_1">
    <g id="patch_7">
     <path d="M 64.6 78.82825 
L 208.43125 78.82825 
Q 210.43125 78.82825 210.43125 76.82825 
L 210.43125 48.472 
Q 210.43125 46.472 208.43125 46.472 
L 64.6 46.472 
Q 62.6 46.472 62.6 48.472 
L 62.6 76.82825 
Q 62.6 78.82825 64.6 78.82825 
z
" style="fill: #ffffff; opacity: 0.8; stroke: #cccccc; stroke-linejoin: miter"/>
    </g>
    <g id="line2d_15">
     <path d="M 66.6 54.570437 
L 76.6 54.570437 
L 86.6 54.570437 
" style="fill: none; stroke-dasharray: 2,3.3; stroke-dashoffset: 0; stroke: #0000ff; stroke-width: 2"/>
    </g>
    <g id="text_16">
     <!-- Average (Default) -->
     <g transform="translate(94.6 58.070437)scale(0.1 -0.1)">
      <defs>
       <path id="DejaVuSans-41" d="M 2188 4044 
L 1331 1722 
L 3047 1722 
L 2188 4044 
z
M 1831 4666 
L 2547 4666 
L 4325 0 
L 3669 0 
L 3244 1197 
L 1141 1197 
L 716 0 
L 50 0 
L 1831 4666 
z
" transform="scale(0.015625)"/>
       <path id="DejaVuSans-28" d="M 1984 4856 
Q 1566 4138 1362 3434 
Q 1159 2731 1159 2009 
Q 1159 1288 1364 580 
Q 1569 -128 1984 -844 
L 1484 -844 
Q 1016 -109 783 600 
Q 550 1309 550 2009 
Q 550 2706 781 3412 
Q 1013 4119 1484 4856 
L 1984 4856 
z
" transform="scale(0.015625)"/>
       <path id="DejaVuSans-44" d="M 1259 4147 
L 1259 519 
L 2022 519 
Q 2988 519 3436 956 
Q 3884 1394 3884 2338 
Q 3884 3275 3436 3711 
Q 2988 4147 2022 4147 
L 1259 4147 
z
M 628 4666 
L 1925 4666 
Q 3281 4666 3915 4102 
Q 4550 3538 4550 2338 
Q 4550 1131 3912 565 
Q 3275 0 1925 0 
L 628 0 
L 628 4666 
z
" transform="scale(0.015625)"/>
       <path id="DejaVuSans-29" d="M 513 4856 
L 1013 4856 
Q 1481 4119 1714 3412 
Q 1947 2706 1947 2009 
Q 1947 1309 1714 600 
Q 1481 -109 1013 -844 
L 513 -844 
Q 928 -128 1133 580 
Q 1338 1288 1338 2009 
Q 1338 2731 1133 3434 
Q 928 4138 513 4856 
z
" transform="scale(0.015625)"/>
      </defs>
      <use xlink:href="#DejaVuSans-41"/>
      <use xlink:href="#DejaVuSans-76" x="62.533203"/>
      <use xlink:href="#DejaVuSans-65" x="121.712891"/>
      <use xlink:href="#DejaVuSans-72" x="183.236328"/>
      <use xlink:href="#DejaVuSans-61" x="224.349609"/>
      <use xlink:href="#DejaVuSans-67" x="285.628906"/>
      <use xlink:href="#DejaVuSans-65" x="349.105469"/>
      <use xlink:href="#DejaVuSans-20" x="410.628906"/>
      <use xlink:href="#DejaVuSans-28" x="442.416016"/>
      <use xlink:href="#DejaVuSans-44" x="481.429688"/>
      <use xlink:href="#DejaVuSans-65" x="558.431641"/>
      <use xlink:href="#DejaVuSans-66" x="619.955078"/>
      <use xlink:href="#DejaVuSans-61" x="655.160156"/>
      <use xlink:href="#DejaVuSans-75" x="716.439453"/>
      <use xlink:href="#DejaVuSans-6c" x="779.818359"/>
      <use xlink:href="#DejaVuSans-74" x="807.601562"/>
      <use xlink:href="#DejaVuSans-29" x="846.810547"/>
     </g>
    </g>
    <g id="line2d_16">
     <path d="M 66.6 69.248562 
L 76.6 69.248562 
L 86.6 69.248562 
" style="fill: none; stroke-dasharray: 2,3.3; stroke-dashoffset: 0; stroke: #ffa500; stroke-width: 2"/>
    </g>
    <g id="text_17">
     <!-- Average (Anticipation) -->
     <g transform="translate(94.6 72.748562)scale(0.1 -0.1)">
      <defs>
       <path id="DejaVuSans-63" d="M 3122 3366 
L 3122 2828 
Q 2878 2963 2633 3030 
Q 2388 3097 2138 3097 
Q 1578 3097 1268 2742 
Q 959 2388 959 1747 
Q 959 1106 1268 751 
Q 1578 397 2138 397 
Q 2388 397 2633 464 
Q 2878 531 3122 666 
L 3122 134 
Q 2881 22 2623 -34 
Q 2366 -91 2075 -91 
Q 1284 -91 818 406 
Q 353 903 353 1747 
Q 353 2603 823 3093 
Q 1294 3584 2113 3584 
Q 2378 3584 2631 3529 
Q 2884 3475 3122 3366 
z
" transform="scale(0.015625)"/>
       <path id="DejaVuSans-70" d="M 1159 525 
L 1159 -1331 
L 581 -1331 
L 581 3500 
L 1159 3500 
L 1159 2969 
Q 1341 3281 1617 3432 
Q 1894 3584 2278 3584 
Q 2916 3584 3314 3078 
Q 3713 2572 3713 1747 
Q 3713 922 3314 415 
Q 2916 -91 2278 -91 
Q 1894 -91 1617 61 
Q 1341 213 1159 525 
z
M 3116 1747 
Q 3116 2381 2855 2742 
Q 2594 3103 2138 3103 
Q 1681 3103 1420 2742 
Q 1159 2381 1159 1747 
Q 1159 1113 1420 752 
Q 1681 391 2138 391 
Q 2594 391 2855 752 
Q 3116 1113 3116 1747 
z
" transform="scale(0.015625)"/>
      </defs>
      <use xlink:href="#DejaVuSans-41"/>
      <use xlink:href="#DejaVuSans-76" x="62.533203"/>
      <use xlink:href="#DejaVuSans-65" x="121.712891"/>
      <use xlink:href="#DejaVuSans-72" x="183.236328"/>
      <use xlink:href="#DejaVuSans-61" x="224.349609"/>
      <use xlink:href="#DejaVuSans-67" x="285.628906"/>
      <use xlink:href="#DejaVuSans-65" x="349.105469"/>
      <use xlink:href="#DejaVuSans-20" x="410.628906"/>
      <use xlink:href="#DejaVuSans-28" x="442.416016"/>
      <use xlink:href="#DejaVuSans-41" x="481.429688"/>
      <use xlink:href="#DejaVuSans-6e" x="549.837891"/>
      <use xlink:href="#DejaVuSans-74" x="613.216797"/>
      <use xlink:href="#DejaVuSans-69" x="652.425781"/>
      <use xlink:href="#DejaVuSans-63" x="680.208984"/>
      <use xlink:href="#DejaVuSans-69" x="735.189453"/>
      <use xlink:href="#DejaVuSans-70" x="762.972656"/>
      <use xlink:href="#DejaVuSans-61" x="826.449219"/>
      <use xlink:href="#DejaVuSans-74" x="887.728516"/>
      <use xlink:href="#DejaVuSans-69" x="926.9375"/>
      <use xlink:href="#DejaVuSans-6f" x="954.720703"/>
      <use xlink:href="#DejaVuSans-6e" x="1015.902344"/>
      <use xlink:href="#DejaVuSans-29" x="1079.28125"/>
     </g>
    </g>
   </g>
  </g>
 </g>
 <defs>
  <clipPath id="p8d2da6284c">
   <rect x="57.6" y="41.472" width="357.12" height="266.112"/>
  </clipPath>
 </defs>
</svg>
