<?xml version="1.0" encoding="utf-8" standalone="no"?>
<!DOCTYPE svg PUBLIC "-//W3C//DTD SVG 1.1//EN"
  "http://www.w3.org/Graphics/SVG/1.1/DTD/svg11.dtd">
<svg xmlns:xlink="http://www.w3.org/1999/xlink" width="460.8pt" height="345.6pt" viewBox="0 0 460.8 345.6" xmlns="http://www.w3.org/2000/svg" version="1.1">
 <metadata>
  <rdf:RDF xmlns:dc="http://purl.org/dc/elements/1.1/" xmlns:cc="http://creativecommons.org/ns#" xmlns:rdf="http://www.w3.org/1999/02/22-rdf-syntax-ns#">
   <cc:Work>
    <dc:type rdf:resource="http://purl.org/dc/dcmitype/StillImage"/>
    <dc:date>2022-10-10T11:44:09.339776</dc:date>
    <dc:format>image/svg+xml</dc:format>
    <dc:creator>
     <cc:Agent>
      <dc:title>Matplotlib v3.5.3, https://matplotlib.org/</dc:title>
     </cc:Agent>
    </dc:creator>
   </cc:Work>
  </rdf:RDF>
 </metadata>
 <defs>
  <style type="text/css">*{stroke-linejoin: round; stroke-linecap: butt}</style>
 </defs>
 <g id="figure_1">
  <g id="patch_1">
   <path d="M 0 345.6 
L 460.8 345.6 
L 460.8 0 
L 0 0 
z
" style="fill: #ffffff"/>
  </g>
  <g id="axes_1">
   <g id="patch_2">
    <path d="M 57.6 307.584 
L 414.72 307.584 
L 414.72 41.472 
L 57.6 41.472 
z
" style="fill: #ffffff"/>
   </g>
   <g id="matplotlib.axis_1">
    <g id="xtick_1">
     <g id="line2d_1">
      <defs>
       <path id="m6e798bced8" d="M 0 0 
L 0 3.5 
" style="stroke: #000000; stroke-width: 0.8"/>
      </defs>
      <g>
       <use xlink:href="#m6e798bced8" x="73.832727" y="307.584" style="stroke: #000000; stroke-width: 0.8"/>
      </g>
     </g>
     <g id="text_1">
      <!-- 0 -->
      <g transform="translate(70.651477 322.182437)scale(0.1 -0.1)">
       <defs>
        <path id="DejaVuSans-30" d="M 2034 4250 
Q 1547 4250 1301 3770 
Q 1056 3291 1056 2328 
Q 1056 1369 1301 889 
Q 1547 409 2034 409 
Q 2525 409 2770 889 
Q 3016 1369 3016 2328 
Q 3016 3291 2770 3770 
Q 2525 4250 2034 4250 
z
M 2034 4750 
Q 2819 4750 3233 4129 
Q 3647 3509 3647 2328 
Q 3647 1150 3233 529 
Q 2819 -91 2034 -91 
Q 1250 -91 836 529 
Q 422 1150 422 2328 
Q 422 3509 836 4129 
Q 1250 4750 2034 4750 
z
" transform="scale(0.015625)"/>
       </defs>
       <use xlink:href="#DejaVuSans-30"/>
      </g>
     </g>
    </g>
    <g id="xtick_2">
     <g id="line2d_2">
      <g>
       <use xlink:href="#m6e798bced8" x="138.776625" y="307.584" style="stroke: #000000; stroke-width: 0.8"/>
      </g>
     </g>
     <g id="text_2">
      <!-- 1000 -->
      <g transform="translate(126.051625 322.182437)scale(0.1 -0.1)">
       <defs>
        <path id="DejaVuSans-31" d="M 794 531 
L 1825 531 
L 1825 4091 
L 703 3866 
L 703 4441 
L 1819 4666 
L 2450 4666 
L 2450 531 
L 3481 531 
L 3481 0 
L 794 0 
L 794 531 
z
" transform="scale(0.015625)"/>
       </defs>
       <use xlink:href="#DejaVuSans-31"/>
       <use xlink:href="#DejaVuSans-30" x="63.623047"/>
       <use xlink:href="#DejaVuSans-30" x="127.246094"/>
       <use xlink:href="#DejaVuSans-30" x="190.869141"/>
      </g>
     </g>
    </g>
    <g id="xtick_3">
     <g id="line2d_3">
      <g>
       <use xlink:href="#m6e798bced8" x="203.720523" y="307.584" style="stroke: #000000; stroke-width: 0.8"/>
      </g>
     </g>
     <g id="text_3">
      <!-- 2000 -->
      <g transform="translate(190.995523 322.182437)scale(0.1 -0.1)">
       <defs>
        <path id="DejaVuSans-32" d="M 1228 531 
L 3431 531 
L 3431 0 
L 469 0 
L 469 531 
Q 828 903 1448 1529 
Q 2069 2156 2228 2338 
Q 2531 2678 2651 2914 
Q 2772 3150 2772 3378 
Q 2772 3750 2511 3984 
Q 2250 4219 1831 4219 
Q 1534 4219 1204 4116 
Q 875 4013 500 3803 
L 500 4441 
Q 881 4594 1212 4672 
Q 1544 4750 1819 4750 
Q 2544 4750 2975 4387 
Q 3406 4025 3406 3419 
Q 3406 3131 3298 2873 
Q 3191 2616 2906 2266 
Q 2828 2175 2409 1742 
Q 1991 1309 1228 531 
z
" transform="scale(0.015625)"/>
       </defs>
       <use xlink:href="#DejaVuSans-32"/>
       <use xlink:href="#DejaVuSans-30" x="63.623047"/>
       <use xlink:href="#DejaVuSans-30" x="127.246094"/>
       <use xlink:href="#DejaVuSans-30" x="190.869141"/>
      </g>
     </g>
    </g>
    <g id="xtick_4">
     <g id="line2d_4">
      <g>
       <use xlink:href="#m6e798bced8" x="268.664421" y="307.584" style="stroke: #000000; stroke-width: 0.8"/>
      </g>
     </g>
     <g id="text_4">
      <!-- 3000 -->
      <g transform="translate(255.939421 322.182437)scale(0.1 -0.1)">
       <defs>
        <path id="DejaVuSans-33" d="M 2597 2516 
Q 3050 2419 3304 2112 
Q 3559 1806 3559 1356 
Q 3559 666 3084 287 
Q 2609 -91 1734 -91 
Q 1441 -91 1130 -33 
Q 819 25 488 141 
L 488 750 
Q 750 597 1062 519 
Q 1375 441 1716 441 
Q 2309 441 2620 675 
Q 2931 909 2931 1356 
Q 2931 1769 2642 2001 
Q 2353 2234 1838 2234 
L 1294 2234 
L 1294 2753 
L 1863 2753 
Q 2328 2753 2575 2939 
Q 2822 3125 2822 3475 
Q 2822 3834 2567 4026 
Q 2313 4219 1838 4219 
Q 1578 4219 1281 4162 
Q 984 4106 628 3988 
L 628 4550 
Q 988 4650 1302 4700 
Q 1616 4750 1894 4750 
Q 2613 4750 3031 4423 
Q 3450 4097 3450 3541 
Q 3450 3153 3228 2886 
Q 3006 2619 2597 2516 
z
" transform="scale(0.015625)"/>
       </defs>
       <use xlink:href="#DejaVuSans-33"/>
       <use xlink:href="#DejaVuSans-30" x="63.623047"/>
       <use xlink:href="#DejaVuSans-30" x="127.246094"/>
       <use xlink:href="#DejaVuSans-30" x="190.869141"/>
      </g>
     </g>
    </g>
    <g id="xtick_5">
     <g id="line2d_5">
      <g>
       <use xlink:href="#m6e798bced8" x="333.608319" y="307.584" style="stroke: #000000; stroke-width: 0.8"/>
      </g>
     </g>
     <g id="text_5">
      <!-- 4000 -->
      <g transform="translate(320.883319 322.182437)scale(0.1 -0.1)">
       <defs>
        <path id="DejaVuSans-34" d="M 2419 4116 
L 825 1625 
L 2419 1625 
L 2419 4116 
z
M 2253 4666 
L 3047 4666 
L 3047 1625 
L 3713 1625 
L 3713 1100 
L 3047 1100 
L 3047 0 
L 2419 0 
L 2419 1100 
L 313 1100 
L 313 1709 
L 2253 4666 
z
" transform="scale(0.015625)"/>
       </defs>
       <use xlink:href="#DejaVuSans-34"/>
       <use xlink:href="#DejaVuSans-30" x="63.623047"/>
       <use xlink:href="#DejaVuSans-30" x="127.246094"/>
       <use xlink:href="#DejaVuSans-30" x="190.869141"/>
      </g>
     </g>
    </g>
    <g id="xtick_6">
     <g id="line2d_6">
      <g>
       <use xlink:href="#m6e798bced8" x="398.552217" y="307.584" style="stroke: #000000; stroke-width: 0.8"/>
      </g>
     </g>
     <g id="text_6">
      <!-- 5000 -->
      <g transform="translate(385.827217 322.182437)scale(0.1 -0.1)">
       <defs>
        <path id="DejaVuSans-35" d="M 691 4666 
L 3169 4666 
L 3169 4134 
L 1269 4134 
L 1269 2991 
Q 1406 3038 1543 3061 
Q 1681 3084 1819 3084 
Q 2600 3084 3056 2656 
Q 3513 2228 3513 1497 
Q 3513 744 3044 326 
Q 2575 -91 1722 -91 
Q 1428 -91 1123 -41 
Q 819 9 494 109 
L 494 744 
Q 775 591 1075 516 
Q 1375 441 1709 441 
Q 2250 441 2565 725 
Q 2881 1009 2881 1497 
Q 2881 1984 2565 2268 
Q 2250 2553 1709 2553 
Q 1456 2553 1204 2497 
Q 953 2441 691 2322 
L 691 4666 
z
" transform="scale(0.015625)"/>
       </defs>
       <use xlink:href="#DejaVuSans-35"/>
       <use xlink:href="#DejaVuSans-30" x="63.623047"/>
       <use xlink:href="#DejaVuSans-30" x="127.246094"/>
       <use xlink:href="#DejaVuSans-30" x="190.869141"/>
      </g>
     </g>
    </g>
    <g id="text_7">
     <!-- Number of Orders -->
     <g transform="translate(191.261562 335.860562)scale(0.1 -0.1)">
      <defs>
       <path id="DejaVuSans-4e" d="M 628 4666 
L 1478 4666 
L 3547 763 
L 3547 4666 
L 4159 4666 
L 4159 0 
L 3309 0 
L 1241 3903 
L 1241 0 
L 628 0 
L 628 4666 
z
" transform="scale(0.015625)"/>
       <path id="DejaVuSans-75" d="M 544 1381 
L 544 3500 
L 1119 3500 
L 1119 1403 
Q 1119 906 1312 657 
Q 1506 409 1894 409 
Q 2359 409 2629 706 
Q 2900 1003 2900 1516 
L 2900 3500 
L 3475 3500 
L 3475 0 
L 2900 0 
L 2900 538 
Q 2691 219 2414 64 
Q 2138 -91 1772 -91 
Q 1169 -91 856 284 
Q 544 659 544 1381 
z
M 1991 3584 
L 1991 3584 
z
" transform="scale(0.015625)"/>
       <path id="DejaVuSans-6d" d="M 3328 2828 
Q 3544 3216 3844 3400 
Q 4144 3584 4550 3584 
Q 5097 3584 5394 3201 
Q 5691 2819 5691 2113 
L 5691 0 
L 5113 0 
L 5113 2094 
Q 5113 2597 4934 2840 
Q 4756 3084 4391 3084 
Q 3944 3084 3684 2787 
Q 3425 2491 3425 1978 
L 3425 0 
L 2847 0 
L 2847 2094 
Q 2847 2600 2669 2842 
Q 2491 3084 2119 3084 
Q 1678 3084 1418 2786 
Q 1159 2488 1159 1978 
L 1159 0 
L 581 0 
L 581 3500 
L 1159 3500 
L 1159 2956 
Q 1356 3278 1631 3431 
Q 1906 3584 2284 3584 
Q 2666 3584 2933 3390 
Q 3200 3197 3328 2828 
z
" transform="scale(0.015625)"/>
       <path id="DejaVuSans-62" d="M 3116 1747 
Q 3116 2381 2855 2742 
Q 2594 3103 2138 3103 
Q 1681 3103 1420 2742 
Q 1159 2381 1159 1747 
Q 1159 1113 1420 752 
Q 1681 391 2138 391 
Q 2594 391 2855 752 
Q 3116 1113 3116 1747 
z
M 1159 2969 
Q 1341 3281 1617 3432 
Q 1894 3584 2278 3584 
Q 2916 3584 3314 3078 
Q 3713 2572 3713 1747 
Q 3713 922 3314 415 
Q 2916 -91 2278 -91 
Q 1894 -91 1617 61 
Q 1341 213 1159 525 
L 1159 0 
L 581 0 
L 581 4863 
L 1159 4863 
L 1159 2969 
z
" transform="scale(0.015625)"/>
       <path id="DejaVuSans-65" d="M 3597 1894 
L 3597 1613 
L 953 1613 
Q 991 1019 1311 708 
Q 1631 397 2203 397 
Q 2534 397 2845 478 
Q 3156 559 3463 722 
L 3463 178 
Q 3153 47 2828 -22 
Q 2503 -91 2169 -91 
Q 1331 -91 842 396 
Q 353 884 353 1716 
Q 353 2575 817 3079 
Q 1281 3584 2069 3584 
Q 2775 3584 3186 3129 
Q 3597 2675 3597 1894 
z
M 3022 2063 
Q 3016 2534 2758 2815 
Q 2500 3097 2075 3097 
Q 1594 3097 1305 2825 
Q 1016 2553 972 2059 
L 3022 2063 
z
" transform="scale(0.015625)"/>
       <path id="DejaVuSans-72" d="M 2631 2963 
Q 2534 3019 2420 3045 
Q 2306 3072 2169 3072 
Q 1681 3072 1420 2755 
Q 1159 2438 1159 1844 
L 1159 0 
L 581 0 
L 581 3500 
L 1159 3500 
L 1159 2956 
Q 1341 3275 1631 3429 
Q 1922 3584 2338 3584 
Q 2397 3584 2469 3576 
Q 2541 3569 2628 3553 
L 2631 2963 
z
" transform="scale(0.015625)"/>
       <path id="DejaVuSans-20" transform="scale(0.015625)"/>
       <path id="DejaVuSans-6f" d="M 1959 3097 
Q 1497 3097 1228 2736 
Q 959 2375 959 1747 
Q 959 1119 1226 758 
Q 1494 397 1959 397 
Q 2419 397 2687 759 
Q 2956 1122 2956 1747 
Q 2956 2369 2687 2733 
Q 2419 3097 1959 3097 
z
M 1959 3584 
Q 2709 3584 3137 3096 
Q 3566 2609 3566 1747 
Q 3566 888 3137 398 
Q 2709 -91 1959 -91 
Q 1206 -91 779 398 
Q 353 888 353 1747 
Q 353 2609 779 3096 
Q 1206 3584 1959 3584 
z
" transform="scale(0.015625)"/>
       <path id="DejaVuSans-66" d="M 2375 4863 
L 2375 4384 
L 1825 4384 
Q 1516 4384 1395 4259 
Q 1275 4134 1275 3809 
L 1275 3500 
L 2222 3500 
L 2222 3053 
L 1275 3053 
L 1275 0 
L 697 0 
L 697 3053 
L 147 3053 
L 147 3500 
L 697 3500 
L 697 3744 
Q 697 4328 969 4595 
Q 1241 4863 1831 4863 
L 2375 4863 
z
" transform="scale(0.015625)"/>
       <path id="DejaVuSans-4f" d="M 2522 4238 
Q 1834 4238 1429 3725 
Q 1025 3213 1025 2328 
Q 1025 1447 1429 934 
Q 1834 422 2522 422 
Q 3209 422 3611 934 
Q 4013 1447 4013 2328 
Q 4013 3213 3611 3725 
Q 3209 4238 2522 4238 
z
M 2522 4750 
Q 3503 4750 4090 4092 
Q 4678 3434 4678 2328 
Q 4678 1225 4090 567 
Q 3503 -91 2522 -91 
Q 1538 -91 948 565 
Q 359 1222 359 2328 
Q 359 3434 948 4092 
Q 1538 4750 2522 4750 
z
" transform="scale(0.015625)"/>
       <path id="DejaVuSans-64" d="M 2906 2969 
L 2906 4863 
L 3481 4863 
L 3481 0 
L 2906 0 
L 2906 525 
Q 2725 213 2448 61 
Q 2172 -91 1784 -91 
Q 1150 -91 751 415 
Q 353 922 353 1747 
Q 353 2572 751 3078 
Q 1150 3584 1784 3584 
Q 2172 3584 2448 3432 
Q 2725 3281 2906 2969 
z
M 947 1747 
Q 947 1113 1208 752 
Q 1469 391 1925 391 
Q 2381 391 2643 752 
Q 2906 1113 2906 1747 
Q 2906 2381 2643 2742 
Q 2381 3103 1925 3103 
Q 1469 3103 1208 2742 
Q 947 2381 947 1747 
z
" transform="scale(0.015625)"/>
       <path id="DejaVuSans-73" d="M 2834 3397 
L 2834 2853 
Q 2591 2978 2328 3040 
Q 2066 3103 1784 3103 
Q 1356 3103 1142 2972 
Q 928 2841 928 2578 
Q 928 2378 1081 2264 
Q 1234 2150 1697 2047 
L 1894 2003 
Q 2506 1872 2764 1633 
Q 3022 1394 3022 966 
Q 3022 478 2636 193 
Q 2250 -91 1575 -91 
Q 1294 -91 989 -36 
Q 684 19 347 128 
L 347 722 
Q 666 556 975 473 
Q 1284 391 1588 391 
Q 1994 391 2212 530 
Q 2431 669 2431 922 
Q 2431 1156 2273 1281 
Q 2116 1406 1581 1522 
L 1381 1569 
Q 847 1681 609 1914 
Q 372 2147 372 2553 
Q 372 3047 722 3315 
Q 1072 3584 1716 3584 
Q 2034 3584 2315 3537 
Q 2597 3491 2834 3397 
z
" transform="scale(0.015625)"/>
      </defs>
      <use xlink:href="#DejaVuSans-4e"/>
      <use xlink:href="#DejaVuSans-75" x="74.804688"/>
      <use xlink:href="#DejaVuSans-6d" x="138.183594"/>
      <use xlink:href="#DejaVuSans-62" x="235.595703"/>
      <use xlink:href="#DejaVuSans-65" x="299.072266"/>
      <use xlink:href="#DejaVuSans-72" x="360.595703"/>
      <use xlink:href="#DejaVuSans-20" x="401.708984"/>
      <use xlink:href="#DejaVuSans-6f" x="433.496094"/>
      <use xlink:href="#DejaVuSans-66" x="494.677734"/>
      <use xlink:href="#DejaVuSans-20" x="529.882812"/>
      <use xlink:href="#DejaVuSans-4f" x="561.669922"/>
      <use xlink:href="#DejaVuSans-72" x="640.380859"/>
      <use xlink:href="#DejaVuSans-64" x="679.744141"/>
      <use xlink:href="#DejaVuSans-65" x="743.220703"/>
      <use xlink:href="#DejaVuSans-72" x="804.744141"/>
      <use xlink:href="#DejaVuSans-73" x="845.857422"/>
     </g>
    </g>
   </g>
   <g id="matplotlib.axis_2">
    <g id="ytick_1">
     <g id="line2d_7">
      <defs>
       <path id="m3645e3a044" d="M 0 0 
L -3.5 0 
" style="stroke: #000000; stroke-width: 0.8"/>
      </defs>
      <g>
       <use xlink:href="#m3645e3a044" x="57.6" y="255.434073" style="stroke: #000000; stroke-width: 0.8"/>
      </g>
     </g>
     <g id="text_8">
      <!-- 200 -->
      <g transform="translate(31.5125 259.233292)scale(0.1 -0.1)">
       <use xlink:href="#DejaVuSans-32"/>
       <use xlink:href="#DejaVuSans-30" x="63.623047"/>
       <use xlink:href="#DejaVuSans-30" x="127.246094"/>
      </g>
     </g>
    </g>
    <g id="ytick_2">
     <g id="line2d_8">
      <g>
       <use xlink:href="#m3645e3a044" x="57.6" y="196.6688" style="stroke: #000000; stroke-width: 0.8"/>
      </g>
     </g>
     <g id="text_9">
      <!-- 400 -->
      <g transform="translate(31.5125 200.468019)scale(0.1 -0.1)">
       <use xlink:href="#DejaVuSans-34"/>
       <use xlink:href="#DejaVuSans-30" x="63.623047"/>
       <use xlink:href="#DejaVuSans-30" x="127.246094"/>
      </g>
     </g>
    </g>
    <g id="ytick_3">
     <g id="line2d_9">
      <g>
       <use xlink:href="#m3645e3a044" x="57.6" y="137.903527" style="stroke: #000000; stroke-width: 0.8"/>
      </g>
     </g>
     <g id="text_10">
      <!-- 600 -->
      <g transform="translate(31.5125 141.702746)scale(0.1 -0.1)">
       <defs>
        <path id="DejaVuSans-36" d="M 2113 2584 
Q 1688 2584 1439 2293 
Q 1191 2003 1191 1497 
Q 1191 994 1439 701 
Q 1688 409 2113 409 
Q 2538 409 2786 701 
Q 3034 994 3034 1497 
Q 3034 2003 2786 2293 
Q 2538 2584 2113 2584 
z
M 3366 4563 
L 3366 3988 
Q 3128 4100 2886 4159 
Q 2644 4219 2406 4219 
Q 1781 4219 1451 3797 
Q 1122 3375 1075 2522 
Q 1259 2794 1537 2939 
Q 1816 3084 2150 3084 
Q 2853 3084 3261 2657 
Q 3669 2231 3669 1497 
Q 3669 778 3244 343 
Q 2819 -91 2113 -91 
Q 1303 -91 875 529 
Q 447 1150 447 2328 
Q 447 3434 972 4092 
Q 1497 4750 2381 4750 
Q 2619 4750 2861 4703 
Q 3103 4656 3366 4563 
z
" transform="scale(0.015625)"/>
       </defs>
       <use xlink:href="#DejaVuSans-36"/>
       <use xlink:href="#DejaVuSans-30" x="63.623047"/>
       <use xlink:href="#DejaVuSans-30" x="127.246094"/>
      </g>
     </g>
    </g>
    <g id="ytick_4">
     <g id="line2d_10">
      <g>
       <use xlink:href="#m3645e3a044" x="57.6" y="79.138254" style="stroke: #000000; stroke-width: 0.8"/>
      </g>
     </g>
     <g id="text_11">
      <!-- 800 -->
      <g transform="translate(31.5125 82.937473)scale(0.1 -0.1)">
       <defs>
        <path id="DejaVuSans-38" d="M 2034 2216 
Q 1584 2216 1326 1975 
Q 1069 1734 1069 1313 
Q 1069 891 1326 650 
Q 1584 409 2034 409 
Q 2484 409 2743 651 
Q 3003 894 3003 1313 
Q 3003 1734 2745 1975 
Q 2488 2216 2034 2216 
z
M 1403 2484 
Q 997 2584 770 2862 
Q 544 3141 544 3541 
Q 544 4100 942 4425 
Q 1341 4750 2034 4750 
Q 2731 4750 3128 4425 
Q 3525 4100 3525 3541 
Q 3525 3141 3298 2862 
Q 3072 2584 2669 2484 
Q 3125 2378 3379 2068 
Q 3634 1759 3634 1313 
Q 3634 634 3220 271 
Q 2806 -91 2034 -91 
Q 1263 -91 848 271 
Q 434 634 434 1313 
Q 434 1759 690 2068 
Q 947 2378 1403 2484 
z
M 1172 3481 
Q 1172 3119 1398 2916 
Q 1625 2713 2034 2713 
Q 2441 2713 2670 2916 
Q 2900 3119 2900 3481 
Q 2900 3844 2670 4047 
Q 2441 4250 2034 4250 
Q 1625 4250 1398 4047 
Q 1172 3844 1172 3481 
z
" transform="scale(0.015625)"/>
       </defs>
       <use xlink:href="#DejaVuSans-38"/>
       <use xlink:href="#DejaVuSans-30" x="63.623047"/>
       <use xlink:href="#DejaVuSans-30" x="127.246094"/>
      </g>
     </g>
    </g>
    <g id="text_12">
     <!-- Waiting Time/s -->
     <g transform="translate(25.432812 211.410031)rotate(-90)scale(0.1 -0.1)">
      <defs>
       <path id="DejaVuSans-57" d="M 213 4666 
L 850 4666 
L 1831 722 
L 2809 4666 
L 3519 4666 
L 4500 722 
L 5478 4666 
L 6119 4666 
L 4947 0 
L 4153 0 
L 3169 4050 
L 2175 0 
L 1381 0 
L 213 4666 
z
" transform="scale(0.015625)"/>
       <path id="DejaVuSans-61" d="M 2194 1759 
Q 1497 1759 1228 1600 
Q 959 1441 959 1056 
Q 959 750 1161 570 
Q 1363 391 1709 391 
Q 2188 391 2477 730 
Q 2766 1069 2766 1631 
L 2766 1759 
L 2194 1759 
z
M 3341 1997 
L 3341 0 
L 2766 0 
L 2766 531 
Q 2569 213 2275 61 
Q 1981 -91 1556 -91 
Q 1019 -91 701 211 
Q 384 513 384 1019 
Q 384 1609 779 1909 
Q 1175 2209 1959 2209 
L 2766 2209 
L 2766 2266 
Q 2766 2663 2505 2880 
Q 2244 3097 1772 3097 
Q 1472 3097 1187 3025 
Q 903 2953 641 2809 
L 641 3341 
Q 956 3463 1253 3523 
Q 1550 3584 1831 3584 
Q 2591 3584 2966 3190 
Q 3341 2797 3341 1997 
z
" transform="scale(0.015625)"/>
       <path id="DejaVuSans-69" d="M 603 3500 
L 1178 3500 
L 1178 0 
L 603 0 
L 603 3500 
z
M 603 4863 
L 1178 4863 
L 1178 4134 
L 603 4134 
L 603 4863 
z
" transform="scale(0.015625)"/>
       <path id="DejaVuSans-74" d="M 1172 4494 
L 1172 3500 
L 2356 3500 
L 2356 3053 
L 1172 3053 
L 1172 1153 
Q 1172 725 1289 603 
Q 1406 481 1766 481 
L 2356 481 
L 2356 0 
L 1766 0 
Q 1100 0 847 248 
Q 594 497 594 1153 
L 594 3053 
L 172 3053 
L 172 3500 
L 594 3500 
L 594 4494 
L 1172 4494 
z
" transform="scale(0.015625)"/>
       <path id="DejaVuSans-6e" d="M 3513 2113 
L 3513 0 
L 2938 0 
L 2938 2094 
Q 2938 2591 2744 2837 
Q 2550 3084 2163 3084 
Q 1697 3084 1428 2787 
Q 1159 2491 1159 1978 
L 1159 0 
L 581 0 
L 581 3500 
L 1159 3500 
L 1159 2956 
Q 1366 3272 1645 3428 
Q 1925 3584 2291 3584 
Q 2894 3584 3203 3211 
Q 3513 2838 3513 2113 
z
" transform="scale(0.015625)"/>
       <path id="DejaVuSans-67" d="M 2906 1791 
Q 2906 2416 2648 2759 
Q 2391 3103 1925 3103 
Q 1463 3103 1205 2759 
Q 947 2416 947 1791 
Q 947 1169 1205 825 
Q 1463 481 1925 481 
Q 2391 481 2648 825 
Q 2906 1169 2906 1791 
z
M 3481 434 
Q 3481 -459 3084 -895 
Q 2688 -1331 1869 -1331 
Q 1566 -1331 1297 -1286 
Q 1028 -1241 775 -1147 
L 775 -588 
Q 1028 -725 1275 -790 
Q 1522 -856 1778 -856 
Q 2344 -856 2625 -561 
Q 2906 -266 2906 331 
L 2906 616 
Q 2728 306 2450 153 
Q 2172 0 1784 0 
Q 1141 0 747 490 
Q 353 981 353 1791 
Q 353 2603 747 3093 
Q 1141 3584 1784 3584 
Q 2172 3584 2450 3431 
Q 2728 3278 2906 2969 
L 2906 3500 
L 3481 3500 
L 3481 434 
z
" transform="scale(0.015625)"/>
       <path id="DejaVuSans-54" d="M -19 4666 
L 3928 4666 
L 3928 4134 
L 2272 4134 
L 2272 0 
L 1638 0 
L 1638 4134 
L -19 4134 
L -19 4666 
z
" transform="scale(0.015625)"/>
       <path id="DejaVuSans-2f" d="M 1625 4666 
L 2156 4666 
L 531 -594 
L 0 -594 
L 1625 4666 
z
" transform="scale(0.015625)"/>
      </defs>
      <use xlink:href="#DejaVuSans-57"/>
      <use xlink:href="#DejaVuSans-61" x="92.501953"/>
      <use xlink:href="#DejaVuSans-69" x="153.78125"/>
      <use xlink:href="#DejaVuSans-74" x="181.564453"/>
      <use xlink:href="#DejaVuSans-69" x="220.773438"/>
      <use xlink:href="#DejaVuSans-6e" x="248.556641"/>
      <use xlink:href="#DejaVuSans-67" x="311.935547"/>
      <use xlink:href="#DejaVuSans-20" x="375.412109"/>
      <use xlink:href="#DejaVuSans-54" x="407.199219"/>
      <use xlink:href="#DejaVuSans-69" x="465.158203"/>
      <use xlink:href="#DejaVuSans-6d" x="492.941406"/>
      <use xlink:href="#DejaVuSans-65" x="590.353516"/>
      <use xlink:href="#DejaVuSans-2f" x="651.876953"/>
      <use xlink:href="#DejaVuSans-73" x="685.568359"/>
     </g>
    </g>
   </g>
   <g id="line2d_11">
    <path d="M 73.832727 295.488 
L 74.092503 190.264836 
L 74.157447 192.00819 
L 74.287335 197.048746 
L 74.417222 182.210625 
L 74.54711 164.571216 
L 74.612054 170.661605 
L 74.806886 145.387417 
L 74.87183 149.183397 
L 74.936774 151.300598 
L 75.196549 133.203144 
L 75.261493 135.241677 
L 75.456325 129.210793 
L 75.521269 133.961062 
L 75.586213 132.726373 
L 75.651156 130.591754 
L 75.7161 131.172281 
L 75.845988 130.454254 
L 76.04082 119.150148 
L 76.105764 121.877046 
L 76.170708 121.527152 
L 76.820147 107.92273 
L 76.88509 108.495263 
L 77.014978 104.629178 
L 77.079922 106.429456 
L 77.144866 106.258577 
L 77.339698 102.69295 
L 77.404642 104.833474 
L 77.469586 103.657478 
L 77.534529 103.855877 
L 77.664417 100.805467 
L 77.729361 101.90974 
L 78.443744 88.7625 
L 78.573632 91.42481 
L 78.833407 86.731249 
L 79.028239 82.455429 
L 79.093183 84.577603 
L 79.158127 83.7413 
L 79.352959 82.743755 
L 79.417902 83.981717 
L 79.54779 81.513191 
L 79.612734 81.580566 
L 79.677678 80.579801 
L 79.742622 82.332729 
L 79.807566 81.609479 
L 79.87251 80.402583 
L 79.937454 80.71154 
L 80.002398 81.783272 
L 80.067341 81.770125 
L 80.132285 81.812274 
L 80.197229 82.738601 
L 80.262173 82.085681 
L 80.586893 79.705614 
L 80.651837 79.851553 
L 80.846668 81.382853 
L 80.911612 80.859691 
L 81.301276 84.289751 
L 81.431163 83.81717 
L 81.496107 83.889265 
L 81.625995 84.837893 
L 81.690939 84.334637 
L 81.950715 86.761434 
L 82.015658 86.088831 
L 82.21049 87.299223 
L 82.275434 87.152119 
L 82.470266 86.358608 
L 82.600153 87.510068 
L 82.665097 87.365213 
L 82.730041 87.367181 
L 82.924873 88.179539 
L 82.989817 88.413908 
L 83.119705 87.613666 
L 83.184649 88.047391 
L 83.249592 87.218879 
L 83.37948 88.577535 
L 83.444424 88.298396 
L 83.509368 87.817488 
L 83.639256 88.800663 
L 83.769144 88.686395 
L 83.899031 87.651355 
L 83.963975 88.03143 
L 84.028919 88.542682 
L 84.223751 87.447334 
L 84.353639 88.222499 
L 84.483527 87.706663 
L 84.54847 87.722062 
L 84.743302 88.707065 
L 85.003078 89.659379 
L 85.068022 89.006693 
L 85.132966 89.40533 
L 85.197909 89.475558 
L 85.262853 89.243081 
L 85.327797 89.739512 
L 85.392741 89.548268 
L 85.457685 89.694199 
L 85.717461 87.210766 
L 85.782404 87.316259 
L 85.847348 86.484882 
L 85.912292 86.840086 
L 85.977236 87.463931 
L 86.04218 86.858193 
L 86.107124 87.132368 
L 86.431843 89.656125 
L 86.496787 89.448528 
L 86.561731 89.583095 
L 86.821507 91.429051 
L 87.016339 91.795318 
L 87.276114 90.227094 
L 87.406002 91.016158 
L 87.470946 90.63312 
L 87.53589 90.675261 
L 87.665778 91.524989 
L 87.730721 90.568735 
L 87.795665 90.595049 
L 87.860609 91.297474 
L 87.925553 91.285591 
L 87.990497 91.285568 
L 88.055441 91.04658 
L 88.120385 91.173281 
L 88.185329 91.245145 
L 88.250273 91.077715 
L 88.315216 91.675823 
L 88.38016 90.595583 
L 88.445104 90.787075 
L 88.510048 90.766563 
L 88.574992 91.203951 
L 88.639936 91.102075 
L 88.70488 91.147677 
L 88.769824 91.339623 
L 88.834768 91.206528 
L 88.964655 91.602727 
L 89.029599 92.433159 
L 89.094543 92.282502 
L 89.159487 92.222439 
L 89.224431 92.80216 
L 89.289375 92.722521 
L 89.354319 92.42235 
L 89.419263 92.558579 
L 89.549151 92.335171 
L 89.614094 92.434791 
L 89.87387 93.605523 
L 89.938814 93.436326 
L 90.003758 92.779308 
L 90.068702 92.838417 
L 90.133646 92.756602 
L 90.328477 93.815123 
L 90.393421 93.453613 
L 90.653197 94.785517 
L 90.783085 94.454241 
L 90.848029 94.53841 
L 91.04286 95.132432 
L 91.107804 95.319112 
L 91.237692 94.612854 
L 91.36758 95.282221 
L 91.432524 94.884214 
L 91.822187 96.952992 
L 91.952075 97.005208 
L 92.017019 97.420077 
L 92.081963 97.364449 
L 92.21185 97.301282 
L 92.406682 98.462013 
L 92.471626 97.857051 
L 92.53657 98.23487 
L 92.601514 98.307089 
L 92.796345 99.000909 
L 92.991177 99.574851 
L 93.056121 99.186404 
L 93.186009 99.752575 
L 93.250953 99.521934 
L 93.315897 99.563814 
L 93.445784 99.781983 
L 93.575672 99.602183 
L 93.640616 99.919669 
L 93.70556 99.818234 
L 94.03028 100.558503 
L 94.225111 101.602551 
L 94.419943 102.330488 
L 94.484887 102.091839 
L 94.549831 101.950631 
L 94.809606 102.305785 
L 94.87455 102.281379 
L 95.069382 101.213963 
L 95.264214 101.596513 
L 95.329157 101.360169 
L 95.459045 101.793139 
L 95.523989 101.262175 
L 95.588933 101.452491 
L 95.783765 101.038265 
L 95.848709 101.219783 
L 95.978596 101.643015 
L 96.108484 101.234982 
L 96.173428 101.217172 
L 96.563092 99.631671 
L 96.628035 100.065244 
L 96.822867 99.766345 
L 96.887811 99.844173 
L 96.952755 99.375283 
L 97.017699 99.469528 
L 97.082643 99.463646 
L 97.147587 99.60447 
L 97.212531 99.515249 
L 97.277474 99.359529 
L 97.342418 99.491822 
L 97.472306 99.247545 
L 97.667138 98.914246 
L 97.797026 99.047748 
L 97.926913 98.561974 
L 98.186689 99.289837 
L 98.251633 99.171445 
L 98.381521 98.406826 
L 98.446465 98.52759 
L 98.511408 98.486134 
L 98.641296 98.218817 
L 98.70624 98.613017 
L 98.771184 98.479391 
L 98.836128 98.451449 
L 98.966016 97.907251 
L 99.03096 97.962549 
L 99.095904 97.75189 
L 99.160847 97.852832 
L 99.225791 97.909696 
L 99.355679 97.700846 
L 99.420623 97.901031 
L 99.485567 97.479153 
L 99.550511 97.85419 
L 99.680399 97.455831 
L 99.745343 97.602749 
L 100.005118 97.09711 
L 100.135006 96.985112 
L 100.394782 96.057183 
L 100.524669 96.095843 
L 100.654557 95.395981 
L 100.719501 95.584071 
L 100.784445 95.720804 
L 100.849389 95.484658 
L 100.914333 95.571934 
L 100.979277 95.637791 
L 101.04422 95.36444 
L 101.174108 95.70309 
L 101.36894 95.388562 
L 101.433884 95.629404 
L 101.563772 95.348599 
L 101.628716 95.378088 
L 101.693659 95.322065 
L 101.758603 94.880366 
L 101.823547 94.917948 
L 101.953435 94.683114 
L 102.018379 94.762424 
L 102.148267 94.774749 
L 102.213211 94.70161 
L 102.278155 94.768754 
L 102.343098 94.904169 
L 102.408042 94.807526 
L 102.472986 94.837476 
L 102.53793 94.492815 
L 102.602874 94.590047 
L 102.667818 94.876265 
L 102.732762 94.810659 
L 102.797706 94.834222 
L 103.252313 92.493085 
L 103.382201 92.930181 
L 103.70692 92.916386 
L 103.771864 93.148001 
L 103.836808 92.982286 
L 104.03164 92.672245 
L 104.096584 92.810787 
L 104.161528 92.630936 
L 104.226471 92.744211 
L 104.486247 93.186147 
L 104.551191 93.010276 
L 104.746023 92.592469 
L 104.87591 92.644761 
L 105.070742 93.046677 
L 105.265574 93.607106 
L 105.330518 93.453684 
L 105.525349 92.65817 
L 105.720181 93.10602 
L 105.785125 93.208715 
L 105.850069 92.998818 
L 105.915013 93.208956 
L 105.979957 93.039824 
L 106.109845 93.579888 
L 106.174788 93.089896 
L 106.239732 93.422479 
L 106.304676 93.316947 
L 106.36962 93.489134 
L 106.499508 93.329613 
L 106.69434 93.576299 
L 106.759283 93.454254 
L 106.824227 93.524581 
L 106.889171 93.676985 
L 106.954115 93.484905 
L 107.148947 94.036803 
L 107.343779 93.653589 
L 107.473666 94.016423 
L 107.53861 93.927423 
L 107.733442 94.268423 
L 107.86333 94.529303 
L 107.928274 94.561993 
L 107.993218 94.441595 
L 108.058161 94.537147 
L 108.123105 94.552796 
L 108.252993 94.91462 
L 108.317937 94.73733 
L 108.382881 94.848056 
L 108.577713 94.889842 
L 108.772544 95.082505 
L 108.837488 95.14686 
L 108.902432 94.844776 
L 108.967376 94.895157 
L 109.097264 94.855857 
L 109.227152 94.921381 
L 109.357039 95.037399 
L 109.421983 94.952718 
L 109.681759 95.59553 
L 109.746703 95.430649 
L 109.876591 95.605442 
L 110.006478 95.45556 
L 110.136366 95.608018 
L 110.331198 95.335828 
L 110.396142 95.511596 
L 110.850749 94.319295 
L 110.915693 94.517644 
L 110.980637 94.468649 
L 111.175469 93.919106 
L 111.305356 93.764252 
L 111.500188 93.773829 
L 111.565132 93.671433 
L 111.630076 93.775629 
L 111.759964 93.760617 
L 111.824908 93.54538 
L 111.889851 93.633364 
L 111.954795 93.902662 
L 112.214571 93.19808 
L 112.279515 93.268558 
L 112.344459 93.117366 
L 112.409403 93.169182 
L 112.604234 93.5724 
L 112.669178 93.49778 
L 112.993898 92.911251 
L 113.058842 93.132742 
L 113.123785 93.023763 
L 113.253673 93.128867 
L 113.318617 92.906518 
L 113.383561 92.962931 
L 113.513449 93.082909 
L 113.643337 92.845265 
L 113.708281 93.057293 
L 113.773224 93.033501 
L 113.838168 92.89386 
L 114.033 93.321657 
L 114.097944 93.278072 
L 114.162888 93.028244 
L 114.227832 93.099035 
L 114.35772 92.906447 
L 114.422663 93.107418 
L 114.487607 93.048768 
L 114.617495 92.719741 
L 114.682439 92.873683 
L 114.747383 92.781928 
L 114.812327 92.736029 
L 114.877271 93.014801 
L 114.942215 92.878142 
L 115.007159 92.926496 
L 115.137046 92.736316 
L 115.20199 92.784479 
L 115.331878 92.618799 
L 115.396822 92.377672 
L 115.461766 92.408809 
L 115.591654 92.454812 
L 116.046261 92.315101 
L 116.176149 92.317306 
L 116.306036 92.596647 
L 116.37098 92.570894 
L 116.565812 92.211241 
L 116.630756 92.155957 
L 116.6957 92.306066 
L 116.760644 91.858687 
L 116.825588 92.008197 
L 116.890532 92.008757 
L 116.955475 92.128821 
L 117.215251 91.685055 
L 117.345139 91.978321 
L 117.475027 91.893867 
L 117.604914 91.782678 
L 117.669858 91.931892 
L 117.734802 91.819457 
L 117.799746 91.815574 
L 117.929634 91.992562 
L 117.994578 91.822901 
L 118.059522 91.948049 
L 118.18941 91.963709 
L 118.449185 92.284562 
L 118.514129 92.140052 
L 118.579073 92.244875 
L 118.644017 92.125457 
L 118.708961 92.162592 
L 118.968736 92.268139 
L 119.163568 91.734916 
L 119.228512 91.943753 
L 119.293456 91.980975 
L 119.618175 91.557389 
L 119.748063 91.770576 
L 120.007839 92.196362 
L 120.072783 92.132942 
L 120.137726 92.274704 
L 120.20267 92.14326 
L 120.267614 92.25493 
L 120.462446 92.394879 
L 120.592334 92.225671 
L 120.722222 92.361097 
L 120.787165 92.567928 
L 120.917053 92.238541 
L 121.306717 92.954481 
L 121.501548 92.827522 
L 121.69638 92.599742 
L 121.761324 92.78574 
L 121.826268 92.730506 
L 122.150987 92.513437 
L 122.215931 92.712195 
L 122.280875 92.555697 
L 122.410763 92.528583 
L 122.475707 92.615599 
L 122.540651 92.32446 
L 122.605595 92.340023 
L 122.800426 92.139782 
L 123.125146 91.959862 
L 123.255034 92.045171 
L 123.384921 91.835891 
L 123.514809 92.110421 
L 123.969416 91.964555 
L 124.03436 92.129393 
L 124.099304 92.035422 
L 124.229192 92.141318 
L 124.618855 91.726781 
L 124.878631 91.987066 
L 124.943575 91.916291 
L 125.008519 91.88551 
L 125.268294 92.215916 
L 125.333238 92.131982 
L 125.52807 92.338553 
L 125.722902 92.116407 
L 125.852789 92.223575 
L 125.917733 92.227176 
L 126.047621 92.407379 
L 126.112565 92.326393 
L 126.437285 93.027151 
L 126.502228 92.87961 
L 126.567172 92.91182 
L 126.762004 93.200395 
L 127.086724 93.119492 
L 127.281555 93.2994 
L 127.346499 93.191162 
L 127.476387 93.396381 
L 127.541331 93.258403 
L 127.736163 93.54287 
L 127.995938 93.49408 
L 128.19077 93.726433 
L 128.255714 93.757379 
L 128.450545 94.15453 
L 128.515489 94.204709 
L 128.710321 93.97284 
L 128.905153 93.949351 
L 129.099984 93.838196 
L 129.164928 93.863153 
L 129.294816 94.051648 
L 129.35976 94.006896 
L 129.489648 94.084398 
L 129.684479 94.002152 
L 129.944255 94.371636 
L 130.333918 94.205937 
L 130.398862 94.249659 
L 130.52875 93.987669 
L 130.593694 94.082982 
L 130.723582 93.850997 
L 130.983357 93.925832 
L 131.113245 93.802139 
L 131.308077 93.93862 
L 131.567852 93.513873 
L 131.69774 93.520678 
L 131.957516 93.241436 
L 132.02246 93.263867 
L 132.087404 93.404183 
L 132.282235 93.044791 
L 132.347179 93.154652 
L 132.412123 93.056881 
L 132.671899 93.184541 
L 132.736843 93.272329 
L 132.801787 93.147328 
L 132.86673 93.242954 
L 132.931674 93.329323 
L 132.996618 93.232935 
L 133.126506 93.09806 
L 133.321338 92.854584 
L 133.516169 92.807821 
L 133.646057 92.966866 
L 134.100664 92.536677 
L 134.230552 92.539297 
L 134.36044 92.58582 
L 134.425384 92.500781 
L 134.555272 92.190608 
L 134.68516 92.258511 
L 134.879991 92.20697 
L 135.139767 92.442904 
L 135.334599 92.225341 
L 135.789206 92.678139 
L 135.85415 92.60869 
L 135.919094 92.705066 
L 135.984038 92.612478 
L 136.048981 92.444945 
L 136.113925 92.48919 
L 136.243813 92.510927 
L 136.373701 92.466737 
L 136.438645 92.423411 
L 136.568533 92.139873 
L 136.633477 92.195701 
L 136.828308 92.074282 
L 136.958196 92.101683 
L 137.282915 92.508363 
L 137.477747 92.500582 
L 137.867411 92.494923 
L 137.932354 92.424451 
L 138.19213 92.78325 
L 138.51685 92.991213 
L 138.581793 92.93315 
L 138.711681 93.072401 
L 139.166289 92.473754 
L 139.426064 92.427531 
L 139.750784 92.671263 
L 139.815728 92.687049 
L 140.010559 92.929558 
L 140.140447 92.857099 
L 140.270335 92.988385 
L 140.659998 92.710179 
L 140.85483 92.797088 
L 140.984718 92.576884 
L 141.439325 92.890694 
L 141.958876 92.461062 
L 142.478427 92.612869 
L 142.543371 92.510607 
L 142.608315 92.571618 
L 142.803147 92.64253 
L 142.868091 92.702939 
L 142.933035 92.572343 
L 142.997979 92.660894 
L 143.257754 92.953739 
L 143.51753 92.772852 
L 143.582474 92.934354 
L 143.647417 92.894037 
L 143.777305 92.815636 
L 143.842249 92.737914 
L 143.907193 92.828214 
L 144.037081 92.714097 
L 144.166969 92.672601 
L 144.816408 93.128173 
L 145.011239 93.367478 
L 145.206071 93.158089 
L 145.400903 92.832198 
L 145.595734 92.988639 
L 145.660678 93.061744 
L 145.725622 92.934469 
L 145.790566 92.994739 
L 145.85551 92.947818 
L 146.310117 93.445412 
L 146.440005 93.294467 
L 146.699781 93.42377 
L 146.894612 93.45192 
L 146.959556 93.562711 
L 147.0245 93.484578 
L 147.34922 93.638786 
L 147.414164 93.499508 
L 147.479107 93.53922 
L 147.998659 93.779908 
L 148.063603 93.76659 
L 148.323378 94.013939 
L 148.51821 94.096987 
L 148.713042 94.086485 
L 148.972817 94.147801 
L 149.232593 93.965597 
L 150.141807 94.207428 
L 150.531471 94.027903 
L 150.726302 94.135655 
L 151.18091 93.8164 
L 151.505629 93.837931 
L 151.635517 93.947724 
L 151.765405 93.896427 
L 152.284956 93.28735 
L 153.064283 92.952196 
L 153.583834 92.891747 
L 153.908553 92.822629 
L 154.233273 92.907492 
L 154.428105 93.093642 
L 154.752824 92.980994 
L 154.817768 92.882877 
L 154.882712 92.94202 
L 155.0126 92.888887 
L 155.207431 92.948201 
L 156.18159 92.723592 
L 156.701141 92.800911 
L 156.831029 92.792962 
L 156.960917 92.787565 
L 157.02586 92.818352 
L 157.220692 92.689318 
L 157.35058 92.774207 
L 157.740243 92.628813 
L 158.714402 92.590622 
L 158.974177 92.456123 
L 159.104065 92.598256 
L 159.298897 92.409866 
L 159.493729 92.436429 
L 159.68856 92.364095 
L 159.818448 92.291049 
L 160.273055 92.205299 
L 160.532831 92.225963 
L 160.792607 92.063602 
L 160.85755 92.124457 
L 160.922494 91.981407 
L 160.987438 92.082249 
L 161.18227 92.110467 
L 161.636877 92.199167 
L 162.221372 91.913059 
L 162.416204 92.078663 
L 162.546092 91.779241 
L 162.611036 91.807978 
L 162.740923 91.897959 
L 162.870811 91.824471 
L 164.039801 91.952637 
L 164.234633 91.811172 
L 164.429465 91.801253 
L 164.68924 91.928193 
L 164.884072 91.778253 
L 165.078904 91.719556 
L 165.988118 91.514163 
L 166.18295 91.568008 
L 167.092165 91.675913 
L 167.286996 91.530378 
L 169.300257 92.001061 
L 169.430145 91.775655 
L 170.534191 92.04376 
L 170.988798 91.962197 
L 171.248574 92.101621 
L 171.443406 92.222164 
L 171.638237 92.336452 
L 172.027901 92.394781 
L 172.287676 92.417998 
L 172.417564 92.49176 
L 172.807228 92.62189 
L 173.391723 92.786722 
L 173.586554 92.953599 
L 174.041162 92.981873 
L 174.560713 92.984315 
L 174.820488 92.787426 
L 176.703861 92.567339 
L 176.768805 92.644001 
L 176.833749 92.554435 
L 176.963637 92.566813 
L 177.093525 92.562309 
L 177.418244 92.581437 
L 177.67802 92.691639 
L 177.872852 92.634987 
L 178.197571 92.827399 
L 178.327459 92.805917 
L 178.457347 92.831076 
L 178.587235 92.687671 
L 178.84701 92.766074 
L 179.041842 92.654515 
L 179.496449 92.610157 
L 179.756225 92.786659 
L 179.951056 92.785004 
L 180.080944 92.763963 
L 180.210832 92.791057 
L 180.600495 92.74993 
L 181.314878 93.079992 
L 181.444766 93.193642 
L 181.574654 93.039654 
L 181.704542 93.132561 
L 181.769486 93.0439 
L 181.834429 93.134725 
L 182.6787 93.164246 
L 183.00342 93.21891 
L 183.133307 93.271842 
L 183.328139 93.267003 
L 183.652859 93.262119 
L 183.977578 93.467229 
L 184.302298 93.361115 
L 184.497129 93.460156 
L 184.691961 93.386995 
L 184.821849 93.398548 
L 185.01668 93.414944 
L 185.3414 93.521988 
L 185.601176 93.446697 
L 185.925895 93.474141 
L 186.120727 93.537273 
L 186.315558 93.614885 
L 186.51039 93.602835 
L 186.705222 93.47561 
L 187.094885 93.446695 
L 187.289717 93.500936 
L 187.67938 93.415241 
L 187.809268 93.360392 
L 188.0041 93.311223 
L 188.328819 93.368334 
L 188.458707 93.346405 
L 188.523651 93.419853 
L 188.653539 93.280172 
L 188.913314 93.404803 
L 189.497809 93.435999 
L 189.692641 93.441601 
L 189.822529 93.396042 
L 190.017361 93.572232 
L 190.212192 93.632301 
L 190.277136 93.717264 
L 190.471968 93.607992 
L 190.601856 93.482387 
L 190.6668 93.533659 
L 190.731743 93.543048 
L 190.926575 93.334197 
L 191.056463 93.395577 
L 191.251295 93.344433 
L 192.874892 93.423115 
L 193.069724 93.406046 
L 193.459387 93.492722 
L 193.849051 93.368825 
L 194.303658 93.502608 
L 194.563433 93.500934 
L 194.693321 93.499518 
L 194.953097 93.373271 
L 195.537592 93.307456 
L 195.732424 93.444158 
L 196.251975 93.511751 
L 196.51175 93.491872 
L 197.226133 93.486757 
L 197.420965 93.542348 
L 197.615797 93.440187 
L 198.914675 93.27295 
L 199.109506 93.150473 
L 199.304338 93.143661 
L 199.369282 93.074565 
L 199.434226 93.137787 
L 200.862992 93.22021 
L 201.057823 93.01399 
L 201.252655 93.094158 
L 202.291757 93.046603 
L 202.486589 93.167909 
L 203.00614 93.206456 
L 203.200972 93.170884 
L 203.395804 93.333182 
L 203.720523 93.314628 
L 203.980299 93.350952 
L 204.17513 93.229263 
L 204.954457 93.441379 
L 205.149289 93.541796 
L 205.538952 93.641757 
L 205.798728 93.66354 
L 205.993559 93.687188 
L 206.253335 93.810112 
L 206.448167 93.713873 
L 208.721203 94.081633 
L 209.370642 94.211978 
L 210.474688 94.225404 
L 210.66952 94.234882 
L 211.189071 94.448178 
L 212.033342 94.599019 
L 212.487949 94.437602 
L 212.747725 94.495641 
L 213.462108 94.555745 
L 213.656939 94.404889 
L 213.851771 94.427201 
L 214.50121 94.600911 
L 214.696042 94.640486 
L 215.605256 94.489765 
L 215.865032 94.527486 
L 216.384583 94.502305 
L 216.514471 94.396251 
L 216.774246 94.39205 
L 218.3329 94.476311 
L 218.462788 94.475685 
L 219.047283 94.485209 
L 219.242115 94.53272 
L 219.436946 94.546084 
L 219.50189 94.558401 
L 219.566834 94.442644 
L 219.631778 94.493246 
L 219.891554 94.61576 
L 220.086385 94.688039 
L 220.540993 94.853117 
L 220.735824 94.907079 
L 221.060544 94.936027 
L 221.774927 95.124844 
L 221.904814 95.064622 
L 223.073805 95.025992 
L 223.33358 95.08516 
L 223.853131 95.088778 
L 224.632458 95.160362 
L 224.957178 95.114504 
L 225.152009 95.139428 
L 225.281897 95.068096 
L 225.476729 95.063926 
L 225.736504 94.985808 
L 226.126168 95.094198 
L 226.385943 95.136404 
L 226.710663 95.117713 
L 227.619877 95.161057 
L 227.944597 95.187569 
L 228.33426 95.257679 
L 228.65898 95.22728 
L 229.243475 95.319932 
L 229.373363 95.321521 
L 229.892914 95.439497 
L 230.152689 95.369044 
L 232.685501 95.449266 
L 232.880333 95.371953 
L 233.529772 95.411219 
L 234.309099 95.559546 
L 234.633818 95.430628 
L 234.82865 95.481621 
L 235.15337 95.427631 
L 235.478089 95.580261 
L 235.737865 95.50975 
L 236.127528 95.595271 
L 236.32236 95.557063 
L 236.841911 95.456837 
L 237.036743 95.311915 
L 238.465508 95.427085 
L 238.595396 95.442337 
L 238.725284 95.41607 
L 239.050003 95.332636 
L 239.309779 95.301148 
L 245.739225 94.428904 
L 245.934057 94.326258 
L 246.583496 94.409813 
L 246.713383 94.360318 
L 248.077205 94.488101 
L 248.596756 94.503174 
L 248.921476 94.586724 
L 249.960578 94.479735 
L 250.220354 94.516458 
L 250.610017 94.518427 
L 250.869793 94.586358 
L 251.129568 94.507702 
L 251.389344 94.436125 
L 251.64912 94.475043 
L 253.467549 94.322974 
L 253.792268 94.325083 
L 254.181932 94.312252 
L 254.376763 94.270973 
L 254.831371 94.371372 
L 255.221034 94.24184 
L 255.740585 94.366148 
L 256.065305 94.467203 
L 256.32508 94.509737 
L 256.584856 94.542227 
L 256.974519 94.737725 
L 257.169351 94.788193 
L 257.49407 94.771024 
L 257.81879 94.832392 
L 258.078566 94.950681 
L 258.208453 94.934917 
L 258.857892 95.086574 
L 259.117668 95.122959 
L 259.767107 95.265179 
L 261.065985 95.365881 
L 261.32576 95.481276 
L 261.520592 95.447723 
L 262.81947 95.630365 
L 263.274077 95.591224 
L 263.403965 95.564291 
L 263.598797 95.548057 
L 264.443068 95.329449 
L 265.092507 95.343896 
L 265.417226 95.299017 
L 266.910936 95.108094 
L 267.560375 94.990647 
L 267.755206 95.02807 
L 268.209814 94.971299 
L 269.508692 94.835551 
L 269.703523 94.83307 
L 270.028243 94.831124 
L 270.158131 94.79482 
L 271.067345 94.920415 
L 271.197233 94.913642 
L 271.327121 94.94976 
L 271.521952 94.932056 
L 272.690943 95.065321 
L 273.015662 95.080366 
L 273.210494 95.055959 
L 273.794989 95.126001 
L 274.899035 95.074765 
L 275.093867 94.997581 
L 276.003081 95.060325 
L 276.132969 95.102139 
L 276.457689 95.054974 
L 276.782408 94.965617 
L 277.172072 94.909528 
L 278.665781 95.09635 
L 279.380164 95.044236 
L 279.574996 94.909139 
L 280.873874 94.789877 
L 281.003761 94.805858 
L 281.263537 94.788464 
L 281.718144 94.739457 
L 281.97792 94.716556 
L 282.172752 94.748685 
L 282.367583 94.697116 
L 283.211854 94.776817 
L 283.406686 94.67426 
L 283.666461 94.595195 
L 284.575676 94.620859 
L 284.900395 94.599739 
L 285.160171 94.608813 
L 285.549834 94.656134 
L 285.80961 94.701614 
L 286.134329 94.586275 
L 288.861973 94.685731 
L 289.056805 94.648671 
L 289.901075 94.746102 
L 290.485571 94.681467 
L 291.005122 94.801921 
L 291.719505 94.7625 
L 292.368944 94.825143 
L 292.758607 94.787127 
L 294.64198 94.934885 
L 295.096587 94.947328 
L 295.551195 94.90395 
L 295.875914 94.908164 
L 296.070746 94.871387 
L 296.265577 94.83858 
L 296.850073 95.050743 
L 297.044904 95.020867 
L 303.019743 94.955977 
L 303.539294 94.766268 
L 304.123789 94.770105 
L 304.448509 94.810284 
L 304.96806 94.777873 
L 307.565816 94.97626 
L 307.825591 94.889962 
L 308.150311 94.948234 
L 308.604918 94.959757 
L 308.929638 94.954321 
L 309.708964 95.018736 
L 309.903796 95.022057 
L 310.228516 94.986045 
L 310.423347 94.989821 
L 313.280879 94.866636 
L 314.060205 94.848773 
L 314.319981 94.850827 
L 315.229196 94.875543 
L 316.917737 95.018021 
L 321.593698 95.420329 
L 321.918417 95.430909 
L 324.256397 95.621863 
L 324.451229 95.6599 
L 324.840893 95.6466 
L 325.100668 95.645976 
L 325.425388 95.621451 
L 325.685163 95.634173 
L 325.944939 95.629684 
L 326.334602 95.660564 
L 326.659322 95.741351 
L 326.854153 95.738877 
L 327.63348 95.765154 
L 327.893256 95.807419 
L 328.217975 95.779063 
L 328.737526 95.625855 
L 329.12719 95.69615 
L 329.451909 95.764101 
L 329.776629 95.771784 
L 330.101348 95.810549 
L 330.880675 95.745444 
L 331.270338 95.854406 
L 331.660002 95.89564 
L 332.179553 95.906753 
L 332.764048 96.032678 
L 333.088768 95.980337 
L 335.686523 96.010156 
L 336.335962 95.980722 
L 336.530794 95.946469 
L 337.115289 95.862332 
L 337.699784 95.955067 
L 338.673943 95.889058 
L 338.868774 95.833888 
L 339.063606 95.840254 
L 339.45327 95.823334 
L 340.427428 95.772469 
L 340.687204 95.799093 
L 341.336643 95.854833 
L 341.661362 95.860406 
L 342.180913 96.019589 
L 343.28496 96.045039 
L 343.674623 96.118814 
L 344.259118 96.120086 
L 344.843613 96.120374 
L 345.29822 96.157194 
L 345.687884 96.145728 
L 346.077547 96.157203 
L 346.597098 96.217298 
L 346.856874 96.228506 
L 348.805191 96.207616 
L 349.000023 96.211579 
L 349.259798 96.192747 
L 350.62362 96.226907 
L 351.208115 96.187064 
L 362.378466 96.973428 
L 366.275099 97.03765 
L 366.599819 97.053073 
L 367.054426 96.984446 
L 372.964321 96.882724 
L 373.808592 96.8683 
L 374.458031 96.930813 
L 374.912638 96.89749 
L 375.302301 96.965133 
L 375.627021 96.843631 
L 377.835113 96.849303 
L 378.029945 96.810464 
L 378.28972 96.865783 
L 378.549496 96.824837 
L 380.367925 97.007813 
L 380.887476 97.056129 
L 382.056467 97.030862 
L 382.576018 97.036917 
L 382.965681 96.968907 
L 383.290401 96.99676 
L 383.680064 96.993245 
L 387.641642 96.902127 
L 388.031305 96.94667 
L 389.005464 96.988059 
L 389.460071 97.085443 
L 389.78479 97.057704 
L 390.629061 97.041756 
L 395.11019 97.320131 
L 396.474012 97.519206 
L 396.993563 97.482482 
L 397.643002 97.459383 
L 398.487273 97.361241 
L 398.487273 97.361241 
" clip-path="url(#p677b7b83c1)" style="fill: none; stroke-dasharray: 2,3.3; stroke-dashoffset: 0; stroke: #0000ff; stroke-width: 2"/>
   </g>
   <g id="line2d_12">
    <path d="M 73.832727 295.488 
L 74.222391 188.04369 
L 74.287335 191.275189 
L 74.612054 157.802082 
L 74.806886 134.939055 
L 74.87183 139.349644 
L 74.936774 137.094775 
L 75.131605 145.994924 
L 75.261493 139.861163 
L 75.326437 139.991453 
L 75.391381 137.518094 
L 75.586213 144.920998 
L 75.781044 137.548597 
L 75.845988 136.796248 
L 75.975876 125.789411 
L 76.04082 128.404527 
L 76.300595 121.598714 
L 76.365539 121.678639 
L 76.430483 123.180982 
L 76.495427 122.443353 
L 76.690259 116.247263 
L 76.755203 114.943204 
L 76.820147 116.249974 
L 77.014978 110.127285 
L 77.079922 111.817385 
L 77.144866 111.542892 
L 77.20981 108.877355 
L 77.274754 111.313409 
L 77.339698 111.296492 
L 77.404642 110.593584 
L 77.599473 104.3189 
L 77.664417 105.717822 
L 77.729361 105.393528 
L 77.794305 104.090601 
L 77.859249 105.947367 
L 77.989137 103.684031 
L 78.119025 102.596608 
L 78.3788 92.983844 
L 78.443744 94.214511 
L 78.508688 92.277572 
L 78.573632 93.959196 
L 78.638576 93.297249 
L 78.70352 92.894585 
L 78.963295 89.009494 
L 79.028239 87.726895 
L 79.093183 88.461968 
L 79.158127 90.522888 
L 79.223071 89.752189 
L 79.417902 89.279989 
L 79.54779 92.583273 
L 79.742622 90.086228 
L 79.807566 88.997324 
L 79.87251 89.322916 
L 80.002398 88.262293 
L 80.067341 88.731338 
L 80.262173 90.799998 
L 80.327117 90.498891 
L 80.586893 87.174629 
L 80.71678 88.529911 
L 80.781724 88.170354 
L 80.846668 88.345819 
L 80.911612 87.964503 
L 81.106444 89.999468 
L 81.171388 90.416084 
L 81.236332 88.995514 
L 81.301276 89.074147 
L 81.366219 88.863409 
L 81.496107 89.52461 
L 81.561051 89.204562 
L 81.690939 90.095127 
L 81.885771 89.565329 
L 81.950715 90.08023 
L 82.015658 88.230572 
L 82.080602 88.248459 
L 82.145546 88.101815 
L 82.275434 88.507031 
L 82.340378 88.295784 
L 82.470266 89.00596 
L 82.665097 90.332529 
L 82.730041 90.091695 
L 82.859929 90.633385 
L 83.054761 88.201336 
L 83.119705 87.991302 
L 83.184649 88.11261 
L 83.7042 91.667377 
L 83.834088 90.835456 
L 83.963975 91.391602 
L 84.158807 89.494687 
L 84.288695 90.736932 
L 84.353639 89.021118 
L 84.418583 89.424859 
L 84.483527 89.987733 
L 84.54847 89.466853 
L 84.678358 90.712446 
L 85.003078 87.950688 
L 85.068022 87.929123 
L 85.132966 88.714116 
L 85.197909 88.320206 
L 85.262853 88.109152 
L 85.457685 88.430876 
L 85.522629 87.121894 
L 85.587573 87.246705 
L 85.782404 86.046125 
L 85.912292 86.384559 
L 85.977236 85.843813 
L 86.3669 88.828941 
L 86.431843 88.321091 
L 86.496787 88.53833 
L 86.561731 88.445558 
L 86.951395 91.127472 
L 87.016339 91.327804 
L 87.081282 91.196539 
L 87.276114 88.990648 
L 87.341058 89.041252 
L 87.406002 88.470134 
L 87.470946 88.600855 
L 87.600834 89.500589 
L 87.665778 88.684567 
L 87.730721 88.757957 
L 87.795665 88.729128 
L 87.860609 89.032029 
L 87.925553 89.894232 
L 87.990497 89.843486 
L 88.120385 89.681607 
L 88.185329 90.074439 
L 88.250273 90.03728 
L 88.38016 89.013374 
L 88.510048 89.19034 
L 88.574992 89.52639 
L 88.639936 89.316431 
L 88.834768 88.525021 
L 88.964655 89.318366 
L 89.029599 88.788917 
L 89.094543 89.00504 
L 89.159487 88.777726 
L 89.224431 88.988401 
L 89.289375 88.95714 
L 89.354319 88.531044 
L 89.419263 88.739932 
L 89.484207 88.560779 
L 89.679038 87.713907 
L 89.743982 87.676142 
L 89.808926 88.325185 
L 89.87387 88.167385 
L 89.938814 87.604865 
L 90.003758 87.686365 
L 90.068702 87.671735 
L 90.133646 87.106354 
L 90.19859 87.238842 
L 90.263533 87.796341 
L 90.393421 86.443808 
L 90.458365 86.771191 
L 90.523309 86.808973 
L 90.588253 86.328296 
L 90.653197 86.399858 
L 90.783085 86.476131 
L 90.848029 86.139139 
L 90.912972 86.324788 
L 91.107804 87.45943 
L 91.302636 86.504934 
L 91.627355 88.073653 
L 91.822187 87.441701 
L 91.887131 87.464537 
L 92.081963 87.96568 
L 92.146906 87.901077 
L 92.276794 88.589631 
L 92.341738 87.867147 
L 92.406682 88.114035 
L 92.53657 87.846697 
L 92.601514 87.533133 
L 92.666458 87.576909 
L 92.731402 88.082275 
L 92.796345 87.544768 
L 92.861289 87.832026 
L 92.926233 87.897928 
L 92.991177 88.269214 
L 93.056121 87.652689 
L 93.121065 87.736862 
L 93.250953 87.943089 
L 93.445784 87.197701 
L 93.510728 87.231323 
L 93.575672 86.972088 
L 93.640616 87.124206 
L 93.70556 86.968724 
L 93.965336 88.278529 
L 94.03028 88.225076 
L 94.160167 88.310973 
L 94.225111 88.328413 
L 94.290055 87.859169 
L 94.484887 88.502762 
L 94.549831 88.661672 
L 94.939494 86.480299 
L 95.004438 86.798946 
L 95.069382 86.72929 
L 95.134326 86.383963 
L 95.19927 86.70625 
L 95.329157 86.280791 
L 95.394101 86.333147 
L 95.459045 85.93009 
L 95.523989 86.309039 
L 95.783765 84.432818 
L 96.04354 84.365756 
L 96.303316 82.895239 
L 96.36826 83.203962 
L 96.628035 82.557188 
L 96.887811 82.712374 
L 97.017699 82.431828 
L 97.082643 82.642179 
L 97.602194 80.405515 
L 97.667138 80.460219 
L 97.732082 80.553427 
L 97.797026 80.410013 
L 97.926913 81.076204 
L 97.991857 81.058235 
L 98.056801 81.108451 
L 98.186689 81.34336 
L 98.446465 80.617272 
L 98.576352 80.703086 
L 98.641296 80.599533 
L 98.771184 79.648136 
L 98.836128 79.712457 
L 98.901072 80.05167 
L 98.966016 79.981177 
L 99.095904 80.207106 
L 99.160847 80.014395 
L 99.290735 80.407547 
L 99.355679 80.392995 
L 99.420623 80.572184 
L 99.485567 80.285167 
L 99.550511 80.38389 
L 99.810286 81.499566 
L 99.940174 80.565992 
L 100.005118 80.559826 
L 100.135006 80.431009 
L 100.264894 80.526861 
L 100.394782 80.204631 
L 100.459725 80.415272 
L 100.719501 78.533618 
L 100.784445 78.699601 
L 100.914333 77.690673 
L 100.979277 77.807966 
L 101.109164 77.754929 
L 101.239052 77.427365 
L 101.498828 77.828564 
L 101.758603 76.975418 
L 101.823547 77.021297 
L 102.018379 76.060714 
L 102.148267 76.430224 
L 102.278155 75.981225 
L 102.472986 76.078797 
L 102.53793 76.202258 
L 102.797706 75.322943 
L 102.86265 75.615447 
L 102.927594 75.708354 
L 102.992537 75.351029 
L 103.057481 75.373221 
L 103.122425 75.843587 
L 103.187369 75.75664 
L 103.252313 75.680812 
L 103.512089 76.73218 
L 103.577032 76.679865 
L 103.641976 76.500602 
L 103.70692 76.599857 
L 103.771864 76.518014 
L 103.836808 76.614316 
L 103.901752 76.538741 
L 103.966696 75.87268 
L 104.03164 76.033313 
L 104.161528 76.377713 
L 104.356359 75.994772 
L 104.421303 76.040997 
L 104.87591 75.974404 
L 105.070742 76.575398 
L 105.135686 76.15046 
L 105.20063 76.462904 
L 105.265574 76.344513 
L 105.330518 76.352131 
L 105.655237 76.736781 
L 105.720181 76.662211 
L 105.850069 77.183564 
L 106.239732 76.173486 
L 106.304676 76.405769 
L 106.36962 76.317166 
L 106.564452 76.361304 
L 106.629396 76.251805 
L 106.69434 76.299902 
L 106.824227 76.751951 
L 106.889171 76.585514 
L 107.278835 77.364006 
L 107.408722 76.741872 
L 107.473666 76.936488 
L 107.668498 77.289101 
L 107.733442 77.070702 
L 107.798386 77.103553 
L 108.058161 76.890138 
L 108.447825 77.455455 
L 108.577713 77.119349 
L 108.772544 77.219423 
L 109.097264 77.241928 
L 109.357039 77.573891 
L 109.421983 77.526467 
L 109.616815 77.841843 
L 109.681759 77.708012 
L 109.811647 78.12644 
L 109.876591 77.882814 
L 109.941534 77.989608 
L 110.136366 77.764731 
L 110.266254 78.009407 
L 110.396142 77.627276 
L 110.461086 77.752479 
L 110.590973 77.175645 
L 110.655917 77.442249 
L 110.720861 77.351307 
L 110.785805 77.42344 
L 110.915693 77.234362 
L 111.045581 76.923225 
L 111.240412 77.265916 
L 111.3703 77.27306 
L 111.565132 77.938884 
L 111.759964 77.512963 
L 111.954795 76.735604 
L 112.084683 77.089401 
L 112.149627 76.978427 
L 112.279515 76.104645 
L 112.344459 76.208479 
L 112.53929 75.877067 
L 112.604234 76.126226 
L 112.799066 74.734524 
L 112.928954 75.027067 
L 113.253673 74.080242 
L 113.318617 74.209356 
L 113.383561 74.096151 
L 113.448505 74.063391 
L 113.513449 73.796988 
L 113.578393 73.960381 
L 113.643337 73.934913 
L 113.838168 74.25312 
L 113.903112 74.200935 
L 114.487607 72.655955 
L 114.617495 72.688473 
L 114.747383 72.871015 
L 114.812327 72.654523 
L 114.877271 72.749342 
L 115.007159 72.731132 
L 115.331878 72.113329 
L 115.656598 72.138982 
L 115.851429 71.317328 
L 115.981317 71.55767 
L 116.176149 71.845153 
L 116.565812 71.194794 
L 116.760644 71.568281 
L 116.955475 71.443035 
L 117.020419 71.512886 
L 117.085363 71.449688 
L 117.215251 71.267118 
L 117.345139 71.504527 
L 117.410083 71.468157 
L 117.539971 71.838499 
L 117.669858 70.90741 
L 117.734802 71.016759 
L 117.994578 70.10037 
L 118.059522 70.03759 
L 118.254353 70.227642 
L 118.449185 70.326868 
L 118.579073 70.450603 
L 118.708961 70.054266 
L 118.773905 70.110766 
L 118.838848 69.955414 
L 118.903792 70.071713 
L 118.968736 70.164964 
L 119.03368 69.79719 
L 119.098624 69.904419 
L 119.163568 69.965332 
L 119.228512 69.8442 
L 119.423344 70.502725 
L 119.488287 70.43466 
L 119.553231 70.458661 
L 119.618175 70.176226 
L 119.683119 70.296838 
L 119.748063 70.315861 
L 120.007839 70.811935 
L 120.137726 70.286755 
L 120.20267 70.309863 
L 120.332558 70.417489 
L 120.462446 70.778177 
L 120.52739 70.656211 
L 120.592334 70.680885 
L 120.657278 70.445814 
L 120.722222 70.544621 
L 120.787165 70.629946 
L 120.852109 70.086553 
L 120.917053 70.275182 
L 121.111885 70.419213 
L 121.176829 70.587274 
L 121.241773 70.54297 
L 121.371661 70.630159 
L 121.501548 70.395516 
L 121.956156 70.307157 
L 122.021099 70.410431 
L 122.086043 69.979499 
L 122.150987 69.993202 
L 122.345819 70.208891 
L 122.475707 70.11193 
L 122.605595 70.431511 
L 122.800426 70.078287 
L 123.060202 70.139565 
L 123.125146 70.335616 
L 123.19009 70.257594 
L 123.319977 70.122142 
L 123.579753 70.60455 
L 123.644697 70.681383 
L 123.709641 70.616754 
L 123.839529 70.602758 
L 123.904473 70.808467 
L 123.969416 70.772827 
L 124.164248 70.670585 
L 124.229192 70.794054 
L 124.294136 70.749367 
L 124.488968 70.228109 
L 124.748743 70.589667 
L 124.813687 70.571256 
L 124.943575 70.883041 
L 125.138407 70.675924 
L 125.398182 70.878072 
L 125.657958 70.460837 
L 125.917733 70.036137 
L 125.982677 70.189198 
L 126.112565 69.996785 
L 126.177509 70.069135 
L 126.242453 69.865499 
L 126.307397 69.995783 
L 126.632116 70.07403 
L 126.69706 70.239576 
L 126.762004 70.136796 
L 126.891892 70.140102 
L 126.956836 70.202755 
L 127.281555 69.81802 
L 127.541331 70.235719 
L 127.736163 70.288622 
L 127.801106 70.081169 
L 127.86605 70.127343 
L 127.995938 70.473726 
L 128.060882 70.319779 
L 128.125826 70.183657 
L 128.19077 70.255963 
L 128.905153 70.593531 
L 128.970097 70.789926 
L 129.03504 70.747145 
L 129.099984 70.541998 
L 129.164928 70.597952 
L 129.229872 70.612635 
L 129.35976 70.300916 
L 129.424704 70.420188 
L 129.489648 70.254553 
L 129.554592 70.312975 
L 129.749423 70.219787 
L 129.814367 70.325291 
L 129.879311 70.170493 
L 129.944255 70.225717 
L 130.204031 70.504841 
L 130.463806 70.310544 
L 130.52875 70.174891 
L 130.593694 70.245691 
L 130.658638 70.26873 
L 130.85347 70.113165 
L 131.113245 70.244346 
L 131.308077 70.052146 
L 131.502909 69.915698 
L 131.827628 69.930798 
L 132.087404 69.869704 
L 132.542011 70.12181 
L 132.606955 70.105902 
L 132.671899 69.83389 
L 132.736843 69.863518 
L 132.801787 69.974455 
L 132.86673 69.906584 
L 132.996618 69.980353 
L 133.061562 69.872102 
L 133.19145 70.015103 
L 133.386282 69.850338 
L 133.581113 70.036289 
L 133.775945 69.607666 
L 133.840889 69.524598 
L 134.035721 69.642457 
L 134.165608 69.715904 
L 134.295496 69.911344 
L 134.425384 69.581787 
L 134.490328 69.664759 
L 134.555272 69.583981 
L 134.68516 69.631676 
L 134.750103 69.592792 
L 134.815047 69.74811 
L 134.879991 69.711639 
L 134.944935 69.755808 
L 135.139767 69.521348 
L 135.269655 69.535567 
L 135.399542 69.521016 
L 135.659318 69.71763 
L 135.724262 69.861583 
L 135.789206 69.817712 
L 135.919094 69.825707 
L 136.308757 69.735556 
L 136.438645 69.624186 
L 136.69842 69.833065 
L 136.893252 69.793658 
L 137.088084 69.666263 
L 137.217972 69.692838 
L 137.477747 69.92738 
L 137.542691 69.901185 
L 137.607635 69.718962 
L 137.672579 69.773132 
L 137.802467 69.797358 
L 137.867411 69.799509 
L 137.997298 69.947872 
L 138.646737 69.979515 
L 138.711681 69.87496 
L 138.776625 70.03646 
L 138.841569 69.831451 
L 138.906513 70.025933 
L 138.971457 69.983135 
L 139.166289 69.847376 
L 139.296176 69.897607 
L 139.36112 69.663944 
L 139.426064 69.764778 
L 139.555952 69.944836 
L 139.750784 69.325141 
L 140.075503 69.131284 
L 140.659998 68.14625 
L 140.724942 68.077476 
L 140.85483 67.700256 
L 140.984718 67.89767 
L 141.179549 67.73326 
L 141.374381 67.683059 
L 141.569213 67.756423 
L 141.699101 67.661894 
L 141.764044 67.827502 
L 141.893932 67.543775 
L 142.02382 67.538803 
L 142.088764 67.660478 
L 142.153708 67.555863 
L 142.34854 67.401476 
L 142.478427 67.429227 
L 142.868091 67.164392 
L 142.933035 67.3063 
L 142.997979 67.231495 
L 143.127866 67.296567 
L 143.257754 67.351279 
L 143.322698 67.187464 
L 143.387642 67.299707 
L 143.647417 67.24887 
L 143.712361 67.378016 
L 143.842249 67.243327 
L 144.037081 67.324382 
L 144.166969 67.521226 
L 144.621576 66.902664 
L 144.881352 67.181039 
L 145.141127 67.144173 
L 145.465847 67.375056 
L 145.790566 67.715219 
L 145.985398 67.728618 
L 146.050342 67.612461 
L 146.115286 67.696769 
L 146.440005 68.15506 
L 146.569893 67.988796 
L 146.634837 68.102312 
L 146.699781 67.988392 
L 146.959556 68.339881 
L 147.154388 68.196885 
L 147.219332 67.995022 
L 147.284276 68.125568 
L 147.414164 68.284048 
L 147.479107 68.111713 
L 147.544051 68.162267 
L 147.673939 67.970132 
L 147.803827 67.862843 
L 147.868771 67.966121 
L 148.063603 67.477567 
L 148.19349 67.435669 
L 148.453266 67.493644 
L 148.713042 67.651719 
L 149.232593 67.687901 
L 149.752144 67.713167 
L 149.817088 67.544207 
L 149.882032 67.569866 
L 150.141807 67.457728 
L 150.206751 67.543007 
L 150.336639 67.452701 
L 150.531471 67.681845 
L 150.596415 67.51319 
L 150.661358 67.566663 
L 150.791246 67.536875 
L 150.986078 67.761261 
L 151.115966 67.885723 
L 151.440685 67.713188 
L 151.570573 67.818798 
L 151.765405 67.855543 
L 151.895293 67.533954 
L 152.3499 67.267199 
L 152.544731 66.918472 
L 152.869451 67.075788 
L 153.064283 67.138859 
L 153.324058 67.45306 
L 153.389002 67.386922 
L 153.908553 67.259267 
L 154.233273 67.335866 
L 154.557992 67.53159 
L 154.68788 67.460439 
L 154.817768 67.375948 
L 155.272375 67.004167 
L 155.402263 67.114369 
L 155.467207 66.987777 
L 155.532151 67.028611 
L 155.662039 66.963057 
L 155.986758 66.628941 
L 156.051702 66.644242 
L 156.311478 66.234754 
L 156.441365 66.193894 
L 156.506309 66.143453 
L 156.701141 66.312505 
L 156.960917 66.37898 
L 157.220692 66.10293 
L 157.480468 65.885081 
L 157.675299 65.669551 
L 157.935075 65.615868 
L 158.129907 65.486527 
L 158.324738 65.469676 
L 158.51957 65.420906 
L 158.649458 65.3287 
L 158.779346 65.434648 
L 158.909233 65.254872 
L 158.974177 65.378504 
L 159.039121 65.277461 
L 159.169009 65.151918 
L 159.298897 65.191384 
L 159.558672 65.210552 
L 159.68856 65.044821 
L 159.818448 65.151557 
L 160.143168 65.036709 
L 160.208111 64.87018 
L 160.273055 64.955163 
L 160.662719 65.087389 
L 160.727663 64.931251 
L 160.792607 64.958726 
L 160.922494 64.996154 
L 160.987438 64.903165 
L 161.052382 64.979319 
L 161.18227 64.986851 
L 161.377102 65.1352 
L 161.506989 65.146815 
L 161.701821 64.887268 
L 161.766765 64.945296 
L 161.961597 64.984038 
L 162.091484 64.894748 
L 162.35126 65.139221 
L 162.67598 64.798842 
L 162.870811 64.764353 
L 163.000699 64.804623 
L 163.325419 64.829888 
L 163.585194 65.046168 
L 163.909914 64.874501 
L 164.624296 65.011849 
L 164.754184 64.95376 
L 164.884072 64.967339 
L 165.01396 64.80567 
L 165.143848 64.821807 
L 165.403623 64.677036 
L 165.533511 64.709951 
L 166.053062 64.346803 
L 166.312838 64.375772 
L 166.50767 64.624371 
L 166.572613 64.49119 
L 166.637557 64.531457 
L 166.767445 64.700279 
L 166.832389 64.616507 
L 166.897333 64.680677 
L 167.222052 64.663201 
L 167.416884 64.611967 
L 167.481828 64.732306 
L 167.546772 64.663228 
L 167.611716 64.651134 
L 167.741604 64.845569 
L 167.936435 64.706571 
L 168.196211 64.804495 
L 168.391043 64.757172 
L 168.52093 64.770271 
L 168.585874 64.854111 
L 168.650818 64.787454 
L 168.84565 64.774434 
L 169.170369 64.957606 
L 169.300257 65.040722 
L 169.365201 65.077575 
L 169.430145 64.962215 
L 169.495089 65.051138 
L 169.754864 65.09319 
L 169.949696 64.868601 
L 170.01464 64.79603 
L 170.079584 64.868417 
L 170.144528 64.839041 
L 170.274416 64.650307 
L 170.404303 64.745152 
L 170.729023 64.916229 
L 170.793967 64.891323 
L 171.053742 65.158075 
L 171.118686 65.088255 
L 171.18363 65.154869 
L 171.378462 65.284617 
L 171.573294 65.073898 
L 172.222733 65.185087 
L 172.417564 65.278387 
L 172.937115 65.322069 
L 173.067003 65.401918 
L 173.911274 65.355753 
L 174.171049 65.129506 
L 174.430825 65.034636 
L 174.560713 64.980507 
L 174.625657 65.050928 
L 174.690601 64.989322 
L 175.01532 64.954314 
L 175.080264 65.004281 
L 175.275096 64.746123 
L 175.534871 64.870352 
L 175.729703 64.704532 
L 175.859591 64.696029 
L 175.989479 64.721204 
L 176.249254 64.776222 
L 176.573974 64.63457 
L 176.703861 64.502826 
L 176.833749 64.605257 
L 177.028581 64.447497 
L 177.223413 64.629209 
L 177.288357 64.501944 
L 177.3533 64.5814 
L 177.548132 64.542874 
L 177.67802 64.510965 
L 177.872852 64.547933 
L 178.262515 64.223863 
L 178.327459 64.289695 
L 178.392403 64.221025 
L 178.457347 64.059383 
L 178.522291 64.120678 
L 178.911954 63.909545 
L 179.106786 63.955865 
L 179.301617 63.789092 
L 179.496449 63.69608 
L 179.626337 63.698479 
L 179.756225 63.557438 
L 179.886112 63.728808 
L 179.951056 63.668229 
L 180.080944 63.687657 
L 180.210832 63.65279 
L 180.34072 63.708232 
L 180.535551 63.474659 
L 180.600495 63.57292 
L 181.055103 63.59029 
L 181.18499 63.560669 
L 181.574654 63.55496 
L 181.704542 63.650198 
L 181.899373 63.433504 
L 182.029261 63.430053 
L 182.289037 63.108248 
L 182.548812 62.886413 
L 182.613756 62.640322 
L 182.6787 62.662469 
L 182.873532 62.604574 
L 183.133307 62.687349 
L 183.458027 62.526309 
L 183.652859 62.587123 
L 184.302298 62.433276 
L 184.367241 62.372109 
L 184.497129 62.442648 
L 184.691961 62.20197 
L 184.951737 62.26592 
L 185.146568 62.342318 
L 185.3414 62.241121 
L 185.666119 61.952751 
L 185.925895 61.888895 
L 186.120727 61.663195 
L 186.250614 61.722545 
L 186.380502 61.659305 
L 186.575334 61.54888 
L 186.705222 61.536066 
L 186.770166 61.486329 
L 186.83511 61.581795 
L 186.900053 61.520498 
L 187.159829 61.452895 
L 187.419605 61.540055 
L 187.484549 61.646244 
L 187.549492 61.571487 
L 188.069044 60.996587 
L 188.133988 61.059141 
L 188.198931 61.164094 
L 188.393763 60.850721 
L 188.523651 60.854602 
L 188.718483 60.577643 
L 188.84837 60.629937 
L 189.043202 60.455277 
L 189.108146 60.50207 
L 189.302978 60.294264 
L 189.757585 60.343258 
L 189.952417 60.22643 
L 190.082304 60.175067 
L 190.277136 60.18185 
L 190.407024 60.187817 
L 190.6668 60.083578 
L 190.796687 60.142117 
L 190.926575 60.168784 
L 190.991519 60.01257 
L 191.056463 60.059041 
L 191.316239 60.036096 
L 191.51107 60.064186 
L 191.705902 59.901271 
L 192.030621 59.707753 
L 192.225453 59.870273 
L 192.939836 59.617578 
L 193.134668 59.618136 
L 193.654219 59.308445 
L 195.407704 59.122324 
L 195.602536 58.983587 
L 196.187031 58.936657 
L 196.381863 58.934269 
L 196.576694 58.853245 
L 196.771526 58.809826 
L 196.901414 58.875725 
L 197.031302 58.999578 
L 197.161189 59.008089 
L 197.810628 58.936585 
L 197.940516 58.858725 
L 198.070404 58.947193 
L 198.135348 58.951973 
L 198.265236 58.770704 
L 198.330179 58.829068 
L 198.654899 58.685168 
L 199.109506 58.789545 
L 199.369282 58.782369 
L 199.49917 58.72032 
L 199.888833 58.673658 
L 200.213553 58.670683 
L 200.34344 58.692616 
L 200.603216 58.752812 
L 201.382543 58.554229 
L 201.51243 58.545197 
L 201.642318 58.429814 
L 201.967038 58.531491 
L 202.811308 58.797849 
L 203.071084 58.643938 
L 203.265916 58.765744 
L 203.460747 58.773369 
L 204.045243 58.847646 
L 204.110186 58.879928 
L 204.240074 58.685177 
L 204.305018 58.741849 
L 204.564794 58.684379 
L 204.694681 58.679744 
L 204.889513 58.763305 
L 204.954457 58.625531 
L 205.019401 58.663734 
L 205.603896 58.634357 
L 205.66884 58.719963 
L 205.733784 58.600515 
L 205.798728 58.668259 
L 205.993559 58.722917 
L 206.448167 58.822504 
L 206.513111 58.751426 
L 206.578055 58.820814 
L 207.292437 58.897228 
L 207.422325 58.802916 
L 207.552213 58.869074 
L 207.682101 58.719595 
L 207.876932 58.811921 
L 208.071764 58.779422 
L 208.33154 58.83386 
L 208.721203 58.801129 
L 208.916035 58.714878 
L 209.825249 58.834995 
L 210.020081 58.603063 
L 210.409744 58.632948 
L 210.539632 58.560309 
L 210.66952 58.519175 
L 211.059183 58.420786 
L 211.254015 58.460809 
L 211.903454 58.321871 
L 211.968398 58.354421 
L 212.098286 58.159406 
L 212.16323 58.215314 
L 212.293118 58.089902 
L 212.423005 58.143031 
L 212.552893 58.130781 
L 212.812669 58.090246 
L 213.267276 58.152828 
L 213.462108 58.30618 
L 213.656939 58.198829 
L 214.046603 58.237516 
L 214.306378 57.947404 
L 215.085705 57.708099 
L 215.280537 57.490743 
L 215.475369 57.576551 
L 215.540312 57.407595 
L 215.605256 57.460142 
L 215.735144 57.510101 
L 215.929976 57.300998 
L 216.319639 57.18935 
L 216.579415 57.141063 
L 216.709303 57.067494 
L 216.904134 57.089783 
L 217.098966 57.011818 
L 217.423685 57.150018 
L 218.008181 57.015258 
L 218.138068 56.832494 
L 218.203012 56.875814 
L 218.722563 56.922895 
L 219.112227 57.065293 
L 219.242115 56.976197 
L 219.372002 57.0021 
L 219.566834 56.896799 
L 220.865712 56.937727 
L 221.060544 57.03202 
L 221.515151 56.980048 
L 222.099646 57.016017 
L 222.489309 56.762109 
L 223.33358 56.485712 
L 223.723244 56.344091 
L 224.307739 56.520846 
L 224.50257 56.431305 
L 224.762346 56.53941 
L 224.957178 56.615633 
L 225.087065 56.656212 
L 225.346841 56.555058 
L 225.67156 56.448132 
L 225.801448 56.489937 
L 225.931336 56.441101 
L 226.191112 56.520463 
L 226.970438 56.318369 
L 227.16527 56.259038 
L 227.360102 56.32671 
L 227.554934 56.339975 
L 227.879653 56.450247 
L 228.464148 56.321214 
L 228.65898 56.375763 
L 229.048643 56.359514 
L 229.243475 56.470071 
L 229.568194 56.531102 
L 230.477409 56.293119 
L 230.99696 56.342546 
L 231.256736 56.426517 
L 232.555614 56.161898 
L 233.464828 56.053027 
L 233.65966 55.998117 
L 234.049323 55.985306 
L 234.244155 55.902927 
L 234.503931 56.005958 
L 234.82865 55.893562 
L 235.478089 55.852687 
L 235.607977 55.78526 
L 235.932696 55.738286 
L 236.062584 55.618487 
L 236.192472 55.562607 
L 236.387304 55.469542 
L 236.582135 55.428048 
L 236.841911 55.149299 
L 237.036743 55.210718 
L 237.361462 55.051193 
L 237.621238 55.002821 
L 237.751125 54.883471 
L 238.010901 54.913911 
L 238.335621 54.825075 
L 238.66034 54.988556 
L 239.050003 54.756188 
L 239.634499 54.667436 
L 239.764386 54.655293 
L 239.82933 54.709214 
L 239.959218 54.639345 
L 240.15405 54.652781 
L 240.803489 54.680214 
L 240.99832 54.768027 
L 241.777647 54.514941 
L 242.037423 54.532174 
L 242.49203 54.397774 
L 242.686862 54.41443 
L 242.881693 54.480057 
L 243.271357 54.443981 
L 243.401245 54.411884 
L 243.66102 54.501559 
L 243.920796 54.443372 
L 244.050684 54.389086 
L 244.700123 54.379513 
L 244.959898 54.416578 
L 245.219674 54.391689 
L 245.479449 54.259963 
L 245.804169 54.175497 
L 246.193832 54.419549 
L 246.388664 54.360968 
L 246.843271 54.421267 
L 247.167991 54.519327 
L 247.362822 54.571506 
L 247.557654 54.500331 
L 247.752486 54.458834 
L 248.142149 54.644105 
L 248.272037 54.627939 
L 248.856532 54.664221 
L 249.246195 54.627641 
L 249.505971 54.64627 
L 249.960578 54.527969 
L 250.15541 54.590782 
L 250.350242 54.630835 
L 251.3244 54.584423 
L 251.64912 54.683547 
L 251.779007 54.699394 
L 251.908895 54.704937 
L 252.103727 54.685279 
L 252.49339 54.722018 
L 253.077885 54.68658 
L 253.337661 54.672228 
L 253.467549 54.653856 
L 253.66238 54.522372 
L 254.181932 54.445451 
L 254.571595 54.583969 
L 254.831371 54.514321 
L 255.026202 54.478694 
L 255.285978 54.463665 
L 256.065305 54.474804 
L 256.32508 54.387306 
L 256.714744 54.51292 
L 257.104407 54.564559 
L 257.429127 54.602969 
L 257.623958 54.677765 
L 258.598117 54.797218 
L 259.052724 54.91251 
L 259.247556 54.968666 
L 260.15677 54.95115 
L 260.351602 54.952589 
L 260.611378 54.93338 
L 261.65048 54.935584 
L 261.845312 54.938771 
L 262.040143 54.866532 
L 262.754526 54.785718 
L 262.949358 54.768857 
L 264.962619 54.66622 
L 265.936777 54.746936 
L 266.131609 54.67987 
L 266.261497 54.637313 
L 266.456328 54.604888 
L 267.300599 54.682225 
L 267.495431 54.549208 
L 267.625319 54.5712 
L 267.82015 54.462599 
L 268.209814 54.564956 
L 268.859253 54.245417 
L 268.98914 54.259763 
L 269.898355 54.168586 
L 270.093187 54.13607 
L 271.97656 54.417282 
L 272.236335 54.439844 
L 272.496111 54.508548 
L 272.950718 54.49961 
L 273.275438 54.570197 
L 273.600157 54.634814 
L 273.924877 54.586992 
L 275.158811 54.699213 
L 275.353642 54.672073 
L 275.613418 54.74817 
L 275.743306 54.755713 
L 276.522633 54.894902 
L 276.717464 54.965674 
L 276.912296 54.901044 
L 277.107128 54.888839 
L 277.301959 54.895056 
L 277.626679 54.779416 
L 277.886454 54.914793 
L 278.665781 55.08123 
L 279.445108 54.889318 
L 279.574996 54.935632 
L 279.704884 54.852657 
L 280.938818 54.681638 
L 281.263537 54.637208 
L 281.588257 54.744404 
L 281.848032 54.732314 
L 281.97792 54.708113 
L 282.562415 54.620621 
L 282.692303 54.597542 
L 283.017022 54.478005 
L 283.601517 54.525604 
L 283.861293 54.578241 
L 283.991181 54.498826 
L 285.225115 54.587761 
L 285.355003 54.54715 
L 285.614778 54.533074 
L 286.199273 54.403702 
L 286.523993 54.504207 
L 287.043544 54.47782 
L 287.238376 54.528507 
L 287.498151 54.530703 
L 289.186693 54.514501 
L 289.771188 54.358768 
L 290.485571 54.353214 
L 290.81029 54.467133 
L 291.005122 54.419966 
L 293.537934 54.54467 
L 294.057485 54.598397 
L 294.252317 54.578913 
L 294.771868 54.552582 
L 294.901756 54.496512 
L 295.421307 54.448382 
L 295.681082 54.383942 
L 296.200634 54.587686 
L 297.174792 54.460923 
L 297.564455 54.462655 
L 297.694343 54.443932 
L 299.123109 54.545293 
L 299.317941 54.496618 
L 299.512772 54.478791 
L 299.837492 54.601933 
L 300.097267 54.544014 
L 300.357043 54.585732 
L 300.551875 54.526379 
L 300.746706 54.559333 
L 301.785809 54.674397 
L 301.915697 54.633887 
L 302.045584 54.626011 
L 302.435248 54.570264 
L 303.734126 54.492788 
L 303.928957 54.480595 
L 304.773228 54.541606 
L 306.072106 54.778895 
L 306.331882 54.844011 
L 306.656601 54.852712 
L 306.786489 54.803601 
L 307.241096 54.852175 
L 307.370984 54.842765 
L 307.565816 54.872734 
L 307.955479 55.040359 
L 308.669862 55.085405 
L 309.319301 55.114891 
L 311.46245 55.083325 
L 311.852113 55.117308 
L 312.696384 54.983217 
L 312.891215 54.962731 
L 313.410767 55.012236 
L 313.865374 55.090696 
L 314.060205 55.110377 
L 314.384925 55.195351 
L 314.579757 55.158967 
L 315.553915 55.263644 
L 315.748747 55.16759 
L 316.13841 55.174723 
L 316.982681 55.216037 
L 317.3074 55.265717 
L 318.021783 55.345379 
L 319.190773 55.24265 
L 319.385605 55.208982 
L 319.645381 55.171922 
L 320.035044 55.176159 
L 320.29482 55.112136 
L 321.398866 55.129894 
L 321.658642 55.149364 
L 321.983361 55.001753 
L 322.308081 54.999191 
L 323.80179 54.882856 
L 324.451229 54.929761 
L 324.775949 54.818772 
L 326.789209 54.783393 
L 327.113929 54.816101 
L 327.698424 54.841968 
L 327.893256 54.807017 
L 329.776629 54.978207 
L 330.166292 55.012198 
L 331.205395 55.04632 
L 331.530114 55.099205 
L 332.179553 55.09058 
L 332.439329 55.175755 
L 332.63416 55.16134 
L 332.764048 55.197296 
L 333.023824 55.133112 
L 333.348543 55.117235 
L 333.933038 55.196595 
L 334.842253 55.220939 
L 335.491692 55.062286 
L 335.751467 55.127496 
L 337.95956 54.972283 
L 338.089448 55.007945 
L 338.284279 54.92959 
L 338.544055 54.977513 
L 338.998662 54.852529 
L 339.972821 54.918007 
L 340.232596 54.746761 
L 341.011923 54.561652 
L 341.336643 54.644311 
L 341.661362 54.629907 
L 341.921138 54.651754 
L 342.830352 54.755862 
L 343.025184 54.741612 
L 345.687884 54.851453 
L 346.012603 54.934076 
L 346.402267 54.895698 
L 346.921818 54.795916 
L 347.11665 54.708108 
L 348.28564 54.650017 
L 348.480471 54.626625 
L 348.675303 54.640896 
L 349.064966 54.616197 
L 349.259798 54.569922 
L 349.45463 54.571138 
L 349.714405 54.458158 
L 350.169013 54.578593 
L 350.428788 54.4548 
L 350.688564 54.446884 
L 351.078227 54.305101 
L 351.338003 54.323585 
L 351.532835 54.258659 
L 351.662722 54.245482 
L 351.922498 54.188423 
L 355.039805 54.062333 
L 355.364525 54.090179 
L 355.559356 53.995848 
L 355.94902 54.037701 
L 356.338683 54.037894 
L 356.728346 54.062035 
L 357.182954 54.112227 
L 358.806551 54.00422 
L 359.001383 53.992283 
L 359.261158 53.970594 
L 359.78071 54.08377 
L 360.105429 53.990515 
L 360.62498 53.947415 
L 360.9497 53.94173 
L 361.988802 53.949176 
L 362.703185 53.914167 
L 362.898017 53.891788 
L 363.352624 53.969431 
L 363.547456 53.914869 
L 364.067007 53.833146 
L 364.391726 53.914997 
L 364.716446 53.896588 
L 365.235997 53.928748 
L 365.365885 53.886678 
L 365.560717 53.905886 
L 365.690604 53.889171 
L 366.664763 53.978221 
L 367.184314 54.051569 
L 367.44409 54.080641 
L 367.703865 54.09491 
L 368.158472 54.120035 
L 368.28836 54.037995 
L 369.067687 54.137801 
L 369.911958 54.025136 
L 370.366565 54.027678 
L 370.496453 53.992158 
L 370.756228 53.966715 
L 370.95106 53.965272 
L 371.210836 53.924605 
L 372.509714 53.735487 
L 372.769489 53.789126 
L 373.159153 53.684028 
L 373.418928 53.71472 
L 373.808592 53.641584 
L 376.666123 53.758078 
L 376.796011 53.738818 
L 376.990843 53.72136 
L 377.315562 53.663533 
L 377.900057 53.751486 
L 378.094889 53.717449 
L 378.354664 53.757267 
L 378.679384 53.718848 
L 379.004103 53.739841 
L 379.523655 53.859751 
L 379.848374 53.902765 
L 380.173094 53.91518 
L 380.562757 54.020299 
L 380.95242 54.050985 
L 381.731747 53.992209 
L 382.251298 53.952523 
L 382.835793 53.894566 
L 383.095569 53.867972 
L 384.134671 53.860875 
L 384.524335 53.916611 
L 384.719166 53.839302 
L 384.849054 53.826934 
L 385.10883 53.725509 
L 385.433549 53.660931 
L 386.602539 53.633315 
L 386.927259 53.705069 
L 387.187034 53.735514 
L 388.161193 53.796077 
L 388.550856 53.810662 
L 389.135351 53.894845 
L 390.694005 53.859794 
L 390.888837 53.86204 
L 391.083668 53.809147 
L 391.2785 53.83609 
L 391.733107 53.762728 
L 392.057827 53.791078 
L 392.707266 53.849717 
L 393.161873 53.998195 
L 393.421649 53.936801 
L 393.811312 53.903855 
L 395.045246 54.051686 
L 395.499853 54.158471 
L 396.993563 54.104389 
L 397.383226 54.14383 
L 398.487273 53.87807 
L 398.487273 53.87807 
" clip-path="url(#p677b7b83c1)" style="fill: none; stroke-dasharray: 2,3.3; stroke-dashoffset: 0; stroke: #ffa500; stroke-width: 2"/>
   </g>
   <g id="patch_3">
    <path d="M 57.6 307.584 
L 57.6 41.472 
" style="fill: none; stroke: #000000; stroke-width: 0.8; stroke-linejoin: miter; stroke-linecap: square"/>
   </g>
   <g id="patch_4">
    <path d="M 414.72 307.584 
L 414.72 41.472 
" style="fill: none; stroke: #000000; stroke-width: 0.8; stroke-linejoin: miter; stroke-linecap: square"/>
   </g>
   <g id="patch_5">
    <path d="M 57.6 307.584 
L 414.72 307.584 
" style="fill: none; stroke: #000000; stroke-width: 0.8; stroke-linejoin: miter; stroke-linecap: square"/>
   </g>
   <g id="patch_6">
    <path d="M 57.6 41.472 
L 414.72 41.472 
" style="fill: none; stroke: #000000; stroke-width: 0.8; stroke-linejoin: miter; stroke-linecap: square"/>
   </g>
   <g id="text_13">
    <!-- Waiting Time Plot -->
    <g transform="translate(183.833438 8.2635)scale(0.12 -0.12)">
     <defs>
      <path id="DejaVuSans-50" d="M 1259 4147 
L 1259 2394 
L 2053 2394 
Q 2494 2394 2734 2622 
Q 2975 2850 2975 3272 
Q 2975 3691 2734 3919 
Q 2494 4147 2053 4147 
L 1259 4147 
z
M 628 4666 
L 2053 4666 
Q 2838 4666 3239 4311 
Q 3641 3956 3641 3272 
Q 3641 2581 3239 2228 
Q 2838 1875 2053 1875 
L 1259 1875 
L 1259 0 
L 628 0 
L 628 4666 
z
" transform="scale(0.015625)"/>
      <path id="DejaVuSans-6c" d="M 603 4863 
L 1178 4863 
L 1178 0 
L 603 0 
L 603 4863 
z
" transform="scale(0.015625)"/>
     </defs>
     <use xlink:href="#DejaVuSans-57"/>
     <use xlink:href="#DejaVuSans-61" x="92.501953"/>
     <use xlink:href="#DejaVuSans-69" x="153.78125"/>
     <use xlink:href="#DejaVuSans-74" x="181.564453"/>
     <use xlink:href="#DejaVuSans-69" x="220.773438"/>
     <use xlink:href="#DejaVuSans-6e" x="248.556641"/>
     <use xlink:href="#DejaVuSans-67" x="311.935547"/>
     <use xlink:href="#DejaVuSans-20" x="375.412109"/>
     <use xlink:href="#DejaVuSans-54" x="407.199219"/>
     <use xlink:href="#DejaVuSans-69" x="465.158203"/>
     <use xlink:href="#DejaVuSans-6d" x="492.941406"/>
     <use xlink:href="#DejaVuSans-65" x="590.353516"/>
     <use xlink:href="#DejaVuSans-20" x="651.876953"/>
     <use xlink:href="#DejaVuSans-50" x="683.664062"/>
     <use xlink:href="#DejaVuSans-6c" x="743.966797"/>
     <use xlink:href="#DejaVuSans-6f" x="771.75"/>
     <use xlink:href="#DejaVuSans-74" x="832.931641"/>
    </g>
    <!--  avg_d = 737.9804237121363  -->
    <g transform="translate(142.671562 21.700875)scale(0.12 -0.12)">
     <defs>
      <path id="DejaVuSans-76" d="M 191 3500 
L 800 3500 
L 1894 563 
L 2988 3500 
L 3597 3500 
L 2284 0 
L 1503 0 
L 191 3500 
z
" transform="scale(0.015625)"/>
      <path id="DejaVuSans-5f" d="M 3263 -1063 
L 3263 -1509 
L -63 -1509 
L -63 -1063 
L 3263 -1063 
z
" transform="scale(0.015625)"/>
      <path id="DejaVuSans-3d" d="M 678 2906 
L 4684 2906 
L 4684 2381 
L 678 2381 
L 678 2906 
z
M 678 1631 
L 4684 1631 
L 4684 1100 
L 678 1100 
L 678 1631 
z
" transform="scale(0.015625)"/>
      <path id="DejaVuSans-37" d="M 525 4666 
L 3525 4666 
L 3525 4397 
L 1831 0 
L 1172 0 
L 2766 4134 
L 525 4134 
L 525 4666 
z
" transform="scale(0.015625)"/>
      <path id="DejaVuSans-2e" d="M 684 794 
L 1344 794 
L 1344 0 
L 684 0 
L 684 794 
z
" transform="scale(0.015625)"/>
      <path id="DejaVuSans-39" d="M 703 97 
L 703 672 
Q 941 559 1184 500 
Q 1428 441 1663 441 
Q 2288 441 2617 861 
Q 2947 1281 2994 2138 
Q 2813 1869 2534 1725 
Q 2256 1581 1919 1581 
Q 1219 1581 811 2004 
Q 403 2428 403 3163 
Q 403 3881 828 4315 
Q 1253 4750 1959 4750 
Q 2769 4750 3195 4129 
Q 3622 3509 3622 2328 
Q 3622 1225 3098 567 
Q 2575 -91 1691 -91 
Q 1453 -91 1209 -44 
Q 966 3 703 97 
z
M 1959 2075 
Q 2384 2075 2632 2365 
Q 2881 2656 2881 3163 
Q 2881 3666 2632 3958 
Q 2384 4250 1959 4250 
Q 1534 4250 1286 3958 
Q 1038 3666 1038 3163 
Q 1038 2656 1286 2365 
Q 1534 2075 1959 2075 
z
" transform="scale(0.015625)"/>
     </defs>
     <use xlink:href="#DejaVuSans-20"/>
     <use xlink:href="#DejaVuSans-61" x="31.787109"/>
     <use xlink:href="#DejaVuSans-76" x="93.066406"/>
     <use xlink:href="#DejaVuSans-67" x="152.246094"/>
     <use xlink:href="#DejaVuSans-5f" x="215.722656"/>
     <use xlink:href="#DejaVuSans-64" x="265.722656"/>
     <use xlink:href="#DejaVuSans-20" x="329.199219"/>
     <use xlink:href="#DejaVuSans-3d" x="360.986328"/>
     <use xlink:href="#DejaVuSans-20" x="444.775391"/>
     <use xlink:href="#DejaVuSans-37" x="476.5625"/>
     <use xlink:href="#DejaVuSans-33" x="540.185547"/>
     <use xlink:href="#DejaVuSans-37" x="603.808594"/>
     <use xlink:href="#DejaVuSans-2e" x="667.431641"/>
     <use xlink:href="#DejaVuSans-39" x="699.21875"/>
     <use xlink:href="#DejaVuSans-38" x="762.841797"/>
     <use xlink:href="#DejaVuSans-30" x="826.464844"/>
     <use xlink:href="#DejaVuSans-34" x="890.087891"/>
     <use xlink:href="#DejaVuSans-32" x="953.710938"/>
     <use xlink:href="#DejaVuSans-33" x="1017.333984"/>
     <use xlink:href="#DejaVuSans-37" x="1080.957031"/>
     <use xlink:href="#DejaVuSans-31" x="1144.580078"/>
     <use xlink:href="#DejaVuSans-32" x="1208.203125"/>
     <use xlink:href="#DejaVuSans-31" x="1271.826172"/>
     <use xlink:href="#DejaVuSans-33" x="1335.449219"/>
     <use xlink:href="#DejaVuSans-36" x="1399.072266"/>
     <use xlink:href="#DejaVuSans-33" x="1462.695312"/>
     <use xlink:href="#DejaVuSans-20" x="1526.318359"/>
    </g>
    <!--  avg_a = 885.9697685865095diff = -147.98934487437327 -->
    <g transform="translate(57.199688 35.472)scale(0.12 -0.12)">
     <defs>
      <path id="DejaVuSans-2d" d="M 313 2009 
L 1997 2009 
L 1997 1497 
L 313 1497 
L 313 2009 
z
" transform="scale(0.015625)"/>
     </defs>
     <use xlink:href="#DejaVuSans-20"/>
     <use xlink:href="#DejaVuSans-61" x="31.787109"/>
     <use xlink:href="#DejaVuSans-76" x="93.066406"/>
     <use xlink:href="#DejaVuSans-67" x="152.246094"/>
     <use xlink:href="#DejaVuSans-5f" x="215.722656"/>
     <use xlink:href="#DejaVuSans-61" x="265.722656"/>
     <use xlink:href="#DejaVuSans-20" x="327.001953"/>
     <use xlink:href="#DejaVuSans-3d" x="358.789062"/>
     <use xlink:href="#DejaVuSans-20" x="442.578125"/>
     <use xlink:href="#DejaVuSans-38" x="474.365234"/>
     <use xlink:href="#DejaVuSans-38" x="537.988281"/>
     <use xlink:href="#DejaVuSans-35" x="601.611328"/>
     <use xlink:href="#DejaVuSans-2e" x="665.234375"/>
     <use xlink:href="#DejaVuSans-39" x="697.021484"/>
     <use xlink:href="#DejaVuSans-36" x="760.644531"/>
     <use xlink:href="#DejaVuSans-39" x="824.267578"/>
     <use xlink:href="#DejaVuSans-37" x="887.890625"/>
     <use xlink:href="#DejaVuSans-36" x="951.513672"/>
     <use xlink:href="#DejaVuSans-38" x="1015.136719"/>
     <use xlink:href="#DejaVuSans-35" x="1078.759766"/>
     <use xlink:href="#DejaVuSans-38" x="1142.382812"/>
     <use xlink:href="#DejaVuSans-36" x="1206.005859"/>
     <use xlink:href="#DejaVuSans-35" x="1269.628906"/>
     <use xlink:href="#DejaVuSans-30" x="1333.251953"/>
     <use xlink:href="#DejaVuSans-39" x="1396.875"/>
     <use xlink:href="#DejaVuSans-35" x="1460.498047"/>
     <use xlink:href="#DejaVuSans-64" x="1524.121094"/>
     <use xlink:href="#DejaVuSans-69" x="1587.597656"/>
     <use xlink:href="#DejaVuSans-66" x="1615.380859"/>
     <use xlink:href="#DejaVuSans-66" x="1650.585938"/>
     <use xlink:href="#DejaVuSans-20" x="1685.791016"/>
     <use xlink:href="#DejaVuSans-3d" x="1717.578125"/>
     <use xlink:href="#DejaVuSans-20" x="1801.367188"/>
     <use xlink:href="#DejaVuSans-2d" x="1833.154297"/>
     <use xlink:href="#DejaVuSans-31" x="1869.238281"/>
     <use xlink:href="#DejaVuSans-34" x="1932.861328"/>
     <use xlink:href="#DejaVuSans-37" x="1996.484375"/>
     <use xlink:href="#DejaVuSans-2e" x="2060.107422"/>
     <use xlink:href="#DejaVuSans-39" x="2091.894531"/>
     <use xlink:href="#DejaVuSans-38" x="2155.517578"/>
     <use xlink:href="#DejaVuSans-39" x="2219.140625"/>
     <use xlink:href="#DejaVuSans-33" x="2282.763672"/>
     <use xlink:href="#DejaVuSans-34" x="2346.386719"/>
     <use xlink:href="#DejaVuSans-34" x="2410.009766"/>
     <use xlink:href="#DejaVuSans-38" x="2473.632812"/>
     <use xlink:href="#DejaVuSans-37" x="2537.255859"/>
     <use xlink:href="#DejaVuSans-34" x="2600.878906"/>
     <use xlink:href="#DejaVuSans-33" x="2664.501953"/>
     <use xlink:href="#DejaVuSans-37" x="2728.125"/>
     <use xlink:href="#DejaVuSans-33" x="2791.748047"/>
     <use xlink:href="#DejaVuSans-32" x="2855.371094"/>
     <use xlink:href="#DejaVuSans-37" x="2918.994141"/>
    </g>
   </g>
   <g id="legend_1">
    <g id="patch_7">
     <path d="M 263.88875 302.584 
L 407.72 302.584 
Q 409.72 302.584 409.72 300.584 
L 409.72 272.22775 
Q 409.72 270.22775 407.72 270.22775 
L 263.88875 270.22775 
Q 261.88875 270.22775 261.88875 272.22775 
L 261.88875 300.584 
Q 261.88875 302.584 263.88875 302.584 
z
" style="fill: #ffffff; opacity: 0.8; stroke: #cccccc; stroke-linejoin: miter"/>
    </g>
    <g id="line2d_13">
     <path d="M 265.88875 278.326187 
L 275.88875 278.326187 
L 285.88875 278.326187 
" style="fill: none; stroke-dasharray: 2,3.3; stroke-dashoffset: 0; stroke: #0000ff; stroke-width: 2"/>
    </g>
    <g id="text_14">
     <!-- Average (Default) -->
     <g transform="translate(293.88875 281.826187)scale(0.1 -0.1)">
      <defs>
       <path id="DejaVuSans-41" d="M 2188 4044 
L 1331 1722 
L 3047 1722 
L 2188 4044 
z
M 1831 4666 
L 2547 4666 
L 4325 0 
L 3669 0 
L 3244 1197 
L 1141 1197 
L 716 0 
L 50 0 
L 1831 4666 
z
" transform="scale(0.015625)"/>
       <path id="DejaVuSans-28" d="M 1984 4856 
Q 1566 4138 1362 3434 
Q 1159 2731 1159 2009 
Q 1159 1288 1364 580 
Q 1569 -128 1984 -844 
L 1484 -844 
Q 1016 -109 783 600 
Q 550 1309 550 2009 
Q 550 2706 781 3412 
Q 1013 4119 1484 4856 
L 1984 4856 
z
" transform="scale(0.015625)"/>
       <path id="DejaVuSans-44" d="M 1259 4147 
L 1259 519 
L 2022 519 
Q 2988 519 3436 956 
Q 3884 1394 3884 2338 
Q 3884 3275 3436 3711 
Q 2988 4147 2022 4147 
L 1259 4147 
z
M 628 4666 
L 1925 4666 
Q 3281 4666 3915 4102 
Q 4550 3538 4550 2338 
Q 4550 1131 3912 565 
Q 3275 0 1925 0 
L 628 0 
L 628 4666 
z
" transform="scale(0.015625)"/>
       <path id="DejaVuSans-29" d="M 513 4856 
L 1013 4856 
Q 1481 4119 1714 3412 
Q 1947 2706 1947 2009 
Q 1947 1309 1714 600 
Q 1481 -109 1013 -844 
L 513 -844 
Q 928 -128 1133 580 
Q 1338 1288 1338 2009 
Q 1338 2731 1133 3434 
Q 928 4138 513 4856 
z
" transform="scale(0.015625)"/>
      </defs>
      <use xlink:href="#DejaVuSans-41"/>
      <use xlink:href="#DejaVuSans-76" x="62.533203"/>
      <use xlink:href="#DejaVuSans-65" x="121.712891"/>
      <use xlink:href="#DejaVuSans-72" x="183.236328"/>
      <use xlink:href="#DejaVuSans-61" x="224.349609"/>
      <use xlink:href="#DejaVuSans-67" x="285.628906"/>
      <use xlink:href="#DejaVuSans-65" x="349.105469"/>
      <use xlink:href="#DejaVuSans-20" x="410.628906"/>
      <use xlink:href="#DejaVuSans-28" x="442.416016"/>
      <use xlink:href="#DejaVuSans-44" x="481.429688"/>
      <use xlink:href="#DejaVuSans-65" x="558.431641"/>
      <use xlink:href="#DejaVuSans-66" x="619.955078"/>
      <use xlink:href="#DejaVuSans-61" x="655.160156"/>
      <use xlink:href="#DejaVuSans-75" x="716.439453"/>
      <use xlink:href="#DejaVuSans-6c" x="779.818359"/>
      <use xlink:href="#DejaVuSans-74" x="807.601562"/>
      <use xlink:href="#DejaVuSans-29" x="846.810547"/>
     </g>
    </g>
    <g id="line2d_14">
     <path d="M 265.88875 293.004312 
L 275.88875 293.004312 
L 285.88875 293.004312 
" style="fill: none; stroke-dasharray: 2,3.3; stroke-dashoffset: 0; stroke: #ffa500; stroke-width: 2"/>
    </g>
    <g id="text_15">
     <!-- Average (Anticipation) -->
     <g transform="translate(293.88875 296.504312)scale(0.1 -0.1)">
      <defs>
       <path id="DejaVuSans-63" d="M 3122 3366 
L 3122 2828 
Q 2878 2963 2633 3030 
Q 2388 3097 2138 3097 
Q 1578 3097 1268 2742 
Q 959 2388 959 1747 
Q 959 1106 1268 751 
Q 1578 397 2138 397 
Q 2388 397 2633 464 
Q 2878 531 3122 666 
L 3122 134 
Q 2881 22 2623 -34 
Q 2366 -91 2075 -91 
Q 1284 -91 818 406 
Q 353 903 353 1747 
Q 353 2603 823 3093 
Q 1294 3584 2113 3584 
Q 2378 3584 2631 3529 
Q 2884 3475 3122 3366 
z
" transform="scale(0.015625)"/>
       <path id="DejaVuSans-70" d="M 1159 525 
L 1159 -1331 
L 581 -1331 
L 581 3500 
L 1159 3500 
L 1159 2969 
Q 1341 3281 1617 3432 
Q 1894 3584 2278 3584 
Q 2916 3584 3314 3078 
Q 3713 2572 3713 1747 
Q 3713 922 3314 415 
Q 2916 -91 2278 -91 
Q 1894 -91 1617 61 
Q 1341 213 1159 525 
z
M 3116 1747 
Q 3116 2381 2855 2742 
Q 2594 3103 2138 3103 
Q 1681 3103 1420 2742 
Q 1159 2381 1159 1747 
Q 1159 1113 1420 752 
Q 1681 391 2138 391 
Q 2594 391 2855 752 
Q 3116 1113 3116 1747 
z
" transform="scale(0.015625)"/>
      </defs>
      <use xlink:href="#DejaVuSans-41"/>
      <use xlink:href="#DejaVuSans-76" x="62.533203"/>
      <use xlink:href="#DejaVuSans-65" x="121.712891"/>
      <use xlink:href="#DejaVuSans-72" x="183.236328"/>
      <use xlink:href="#DejaVuSans-61" x="224.349609"/>
      <use xlink:href="#DejaVuSans-67" x="285.628906"/>
      <use xlink:href="#DejaVuSans-65" x="349.105469"/>
      <use xlink:href="#DejaVuSans-20" x="410.628906"/>
      <use xlink:href="#DejaVuSans-28" x="442.416016"/>
      <use xlink:href="#DejaVuSans-41" x="481.429688"/>
      <use xlink:href="#DejaVuSans-6e" x="549.837891"/>
      <use xlink:href="#DejaVuSans-74" x="613.216797"/>
      <use xlink:href="#DejaVuSans-69" x="652.425781"/>
      <use xlink:href="#DejaVuSans-63" x="680.208984"/>
      <use xlink:href="#DejaVuSans-69" x="735.189453"/>
      <use xlink:href="#DejaVuSans-70" x="762.972656"/>
      <use xlink:href="#DejaVuSans-61" x="826.449219"/>
      <use xlink:href="#DejaVuSans-74" x="887.728516"/>
      <use xlink:href="#DejaVuSans-69" x="926.9375"/>
      <use xlink:href="#DejaVuSans-6f" x="954.720703"/>
      <use xlink:href="#DejaVuSans-6e" x="1015.902344"/>
      <use xlink:href="#DejaVuSans-29" x="1079.28125"/>
     </g>
    </g>
   </g>
  </g>
 </g>
 <defs>
  <clipPath id="p677b7b83c1">
   <rect x="57.6" y="41.472" width="357.12" height="266.112"/>
  </clipPath>
 </defs>
</svg>
