<?xml version="1.0" encoding="utf-8" standalone="no"?>
<!DOCTYPE svg PUBLIC "-//W3C//DTD SVG 1.1//EN"
  "http://www.w3.org/Graphics/SVG/1.1/DTD/svg11.dtd">
<svg xmlns:xlink="http://www.w3.org/1999/xlink" width="460.8pt" height="345.6pt" viewBox="0 0 460.8 345.6" xmlns="http://www.w3.org/2000/svg" version="1.1">
 <metadata>
  <rdf:RDF xmlns:dc="http://purl.org/dc/elements/1.1/" xmlns:cc="http://creativecommons.org/ns#" xmlns:rdf="http://www.w3.org/1999/02/22-rdf-syntax-ns#">
   <cc:Work>
    <dc:type rdf:resource="http://purl.org/dc/dcmitype/StillImage"/>
    <dc:date>2022-10-10T11:44:22.859966</dc:date>
    <dc:format>image/svg+xml</dc:format>
    <dc:creator>
     <cc:Agent>
      <dc:title>Matplotlib v3.5.3, https://matplotlib.org/</dc:title>
     </cc:Agent>
    </dc:creator>
   </cc:Work>
  </rdf:RDF>
 </metadata>
 <defs>
  <style type="text/css">*{stroke-linejoin: round; stroke-linecap: butt}</style>
 </defs>
 <g id="figure_1">
  <g id="patch_1">
   <path d="M 0 345.6 
L 460.8 345.6 
L 460.8 0 
L 0 0 
z
" style="fill: #ffffff"/>
  </g>
  <g id="axes_1">
   <g id="patch_2">
    <path d="M 57.6 307.584 
L 414.72 307.584 
L 414.72 41.472 
L 57.6 41.472 
z
" style="fill: #ffffff"/>
   </g>
   <g id="matplotlib.axis_1">
    <g id="xtick_1">
     <g id="line2d_1">
      <defs>
       <path id="mc21eb2e74c" d="M 0 0 
L 0 3.5 
" style="stroke: #000000; stroke-width: 0.8"/>
      </defs>
      <g>
       <use xlink:href="#mc21eb2e74c" x="73.832727" y="307.584" style="stroke: #000000; stroke-width: 0.8"/>
      </g>
     </g>
     <g id="text_1">
      <!-- 0 -->
      <g transform="translate(70.651477 322.182437)scale(0.1 -0.1)">
       <defs>
        <path id="DejaVuSans-30" d="M 2034 4250 
Q 1547 4250 1301 3770 
Q 1056 3291 1056 2328 
Q 1056 1369 1301 889 
Q 1547 409 2034 409 
Q 2525 409 2770 889 
Q 3016 1369 3016 2328 
Q 3016 3291 2770 3770 
Q 2525 4250 2034 4250 
z
M 2034 4750 
Q 2819 4750 3233 4129 
Q 3647 3509 3647 2328 
Q 3647 1150 3233 529 
Q 2819 -91 2034 -91 
Q 1250 -91 836 529 
Q 422 1150 422 2328 
Q 422 3509 836 4129 
Q 1250 4750 2034 4750 
z
" transform="scale(0.015625)"/>
       </defs>
       <use xlink:href="#DejaVuSans-30"/>
      </g>
     </g>
    </g>
    <g id="xtick_2">
     <g id="line2d_2">
      <g>
       <use xlink:href="#mc21eb2e74c" x="138.776625" y="307.584" style="stroke: #000000; stroke-width: 0.8"/>
      </g>
     </g>
     <g id="text_2">
      <!-- 1000 -->
      <g transform="translate(126.051625 322.182437)scale(0.1 -0.1)">
       <defs>
        <path id="DejaVuSans-31" d="M 794 531 
L 1825 531 
L 1825 4091 
L 703 3866 
L 703 4441 
L 1819 4666 
L 2450 4666 
L 2450 531 
L 3481 531 
L 3481 0 
L 794 0 
L 794 531 
z
" transform="scale(0.015625)"/>
       </defs>
       <use xlink:href="#DejaVuSans-31"/>
       <use xlink:href="#DejaVuSans-30" x="63.623047"/>
       <use xlink:href="#DejaVuSans-30" x="127.246094"/>
       <use xlink:href="#DejaVuSans-30" x="190.869141"/>
      </g>
     </g>
    </g>
    <g id="xtick_3">
     <g id="line2d_3">
      <g>
       <use xlink:href="#mc21eb2e74c" x="203.720523" y="307.584" style="stroke: #000000; stroke-width: 0.8"/>
      </g>
     </g>
     <g id="text_3">
      <!-- 2000 -->
      <g transform="translate(190.995523 322.182437)scale(0.1 -0.1)">
       <defs>
        <path id="DejaVuSans-32" d="M 1228 531 
L 3431 531 
L 3431 0 
L 469 0 
L 469 531 
Q 828 903 1448 1529 
Q 2069 2156 2228 2338 
Q 2531 2678 2651 2914 
Q 2772 3150 2772 3378 
Q 2772 3750 2511 3984 
Q 2250 4219 1831 4219 
Q 1534 4219 1204 4116 
Q 875 4013 500 3803 
L 500 4441 
Q 881 4594 1212 4672 
Q 1544 4750 1819 4750 
Q 2544 4750 2975 4387 
Q 3406 4025 3406 3419 
Q 3406 3131 3298 2873 
Q 3191 2616 2906 2266 
Q 2828 2175 2409 1742 
Q 1991 1309 1228 531 
z
" transform="scale(0.015625)"/>
       </defs>
       <use xlink:href="#DejaVuSans-32"/>
       <use xlink:href="#DejaVuSans-30" x="63.623047"/>
       <use xlink:href="#DejaVuSans-30" x="127.246094"/>
       <use xlink:href="#DejaVuSans-30" x="190.869141"/>
      </g>
     </g>
    </g>
    <g id="xtick_4">
     <g id="line2d_4">
      <g>
       <use xlink:href="#mc21eb2e74c" x="268.664421" y="307.584" style="stroke: #000000; stroke-width: 0.8"/>
      </g>
     </g>
     <g id="text_4">
      <!-- 3000 -->
      <g transform="translate(255.939421 322.182437)scale(0.1 -0.1)">
       <defs>
        <path id="DejaVuSans-33" d="M 2597 2516 
Q 3050 2419 3304 2112 
Q 3559 1806 3559 1356 
Q 3559 666 3084 287 
Q 2609 -91 1734 -91 
Q 1441 -91 1130 -33 
Q 819 25 488 141 
L 488 750 
Q 750 597 1062 519 
Q 1375 441 1716 441 
Q 2309 441 2620 675 
Q 2931 909 2931 1356 
Q 2931 1769 2642 2001 
Q 2353 2234 1838 2234 
L 1294 2234 
L 1294 2753 
L 1863 2753 
Q 2328 2753 2575 2939 
Q 2822 3125 2822 3475 
Q 2822 3834 2567 4026 
Q 2313 4219 1838 4219 
Q 1578 4219 1281 4162 
Q 984 4106 628 3988 
L 628 4550 
Q 988 4650 1302 4700 
Q 1616 4750 1894 4750 
Q 2613 4750 3031 4423 
Q 3450 4097 3450 3541 
Q 3450 3153 3228 2886 
Q 3006 2619 2597 2516 
z
" transform="scale(0.015625)"/>
       </defs>
       <use xlink:href="#DejaVuSans-33"/>
       <use xlink:href="#DejaVuSans-30" x="63.623047"/>
       <use xlink:href="#DejaVuSans-30" x="127.246094"/>
       <use xlink:href="#DejaVuSans-30" x="190.869141"/>
      </g>
     </g>
    </g>
    <g id="xtick_5">
     <g id="line2d_5">
      <g>
       <use xlink:href="#mc21eb2e74c" x="333.608319" y="307.584" style="stroke: #000000; stroke-width: 0.8"/>
      </g>
     </g>
     <g id="text_5">
      <!-- 4000 -->
      <g transform="translate(320.883319 322.182437)scale(0.1 -0.1)">
       <defs>
        <path id="DejaVuSans-34" d="M 2419 4116 
L 825 1625 
L 2419 1625 
L 2419 4116 
z
M 2253 4666 
L 3047 4666 
L 3047 1625 
L 3713 1625 
L 3713 1100 
L 3047 1100 
L 3047 0 
L 2419 0 
L 2419 1100 
L 313 1100 
L 313 1709 
L 2253 4666 
z
" transform="scale(0.015625)"/>
       </defs>
       <use xlink:href="#DejaVuSans-34"/>
       <use xlink:href="#DejaVuSans-30" x="63.623047"/>
       <use xlink:href="#DejaVuSans-30" x="127.246094"/>
       <use xlink:href="#DejaVuSans-30" x="190.869141"/>
      </g>
     </g>
    </g>
    <g id="xtick_6">
     <g id="line2d_6">
      <g>
       <use xlink:href="#mc21eb2e74c" x="398.552217" y="307.584" style="stroke: #000000; stroke-width: 0.8"/>
      </g>
     </g>
     <g id="text_6">
      <!-- 5000 -->
      <g transform="translate(385.827217 322.182437)scale(0.1 -0.1)">
       <defs>
        <path id="DejaVuSans-35" d="M 691 4666 
L 3169 4666 
L 3169 4134 
L 1269 4134 
L 1269 2991 
Q 1406 3038 1543 3061 
Q 1681 3084 1819 3084 
Q 2600 3084 3056 2656 
Q 3513 2228 3513 1497 
Q 3513 744 3044 326 
Q 2575 -91 1722 -91 
Q 1428 -91 1123 -41 
Q 819 9 494 109 
L 494 744 
Q 775 591 1075 516 
Q 1375 441 1709 441 
Q 2250 441 2565 725 
Q 2881 1009 2881 1497 
Q 2881 1984 2565 2268 
Q 2250 2553 1709 2553 
Q 1456 2553 1204 2497 
Q 953 2441 691 2322 
L 691 4666 
z
" transform="scale(0.015625)"/>
       </defs>
       <use xlink:href="#DejaVuSans-35"/>
       <use xlink:href="#DejaVuSans-30" x="63.623047"/>
       <use xlink:href="#DejaVuSans-30" x="127.246094"/>
       <use xlink:href="#DejaVuSans-30" x="190.869141"/>
      </g>
     </g>
    </g>
    <g id="text_7">
     <!-- Number of Orders -->
     <g transform="translate(191.261562 335.860562)scale(0.1 -0.1)">
      <defs>
       <path id="DejaVuSans-4e" d="M 628 4666 
L 1478 4666 
L 3547 763 
L 3547 4666 
L 4159 4666 
L 4159 0 
L 3309 0 
L 1241 3903 
L 1241 0 
L 628 0 
L 628 4666 
z
" transform="scale(0.015625)"/>
       <path id="DejaVuSans-75" d="M 544 1381 
L 544 3500 
L 1119 3500 
L 1119 1403 
Q 1119 906 1312 657 
Q 1506 409 1894 409 
Q 2359 409 2629 706 
Q 2900 1003 2900 1516 
L 2900 3500 
L 3475 3500 
L 3475 0 
L 2900 0 
L 2900 538 
Q 2691 219 2414 64 
Q 2138 -91 1772 -91 
Q 1169 -91 856 284 
Q 544 659 544 1381 
z
M 1991 3584 
L 1991 3584 
z
" transform="scale(0.015625)"/>
       <path id="DejaVuSans-6d" d="M 3328 2828 
Q 3544 3216 3844 3400 
Q 4144 3584 4550 3584 
Q 5097 3584 5394 3201 
Q 5691 2819 5691 2113 
L 5691 0 
L 5113 0 
L 5113 2094 
Q 5113 2597 4934 2840 
Q 4756 3084 4391 3084 
Q 3944 3084 3684 2787 
Q 3425 2491 3425 1978 
L 3425 0 
L 2847 0 
L 2847 2094 
Q 2847 2600 2669 2842 
Q 2491 3084 2119 3084 
Q 1678 3084 1418 2786 
Q 1159 2488 1159 1978 
L 1159 0 
L 581 0 
L 581 3500 
L 1159 3500 
L 1159 2956 
Q 1356 3278 1631 3431 
Q 1906 3584 2284 3584 
Q 2666 3584 2933 3390 
Q 3200 3197 3328 2828 
z
" transform="scale(0.015625)"/>
       <path id="DejaVuSans-62" d="M 3116 1747 
Q 3116 2381 2855 2742 
Q 2594 3103 2138 3103 
Q 1681 3103 1420 2742 
Q 1159 2381 1159 1747 
Q 1159 1113 1420 752 
Q 1681 391 2138 391 
Q 2594 391 2855 752 
Q 3116 1113 3116 1747 
z
M 1159 2969 
Q 1341 3281 1617 3432 
Q 1894 3584 2278 3584 
Q 2916 3584 3314 3078 
Q 3713 2572 3713 1747 
Q 3713 922 3314 415 
Q 2916 -91 2278 -91 
Q 1894 -91 1617 61 
Q 1341 213 1159 525 
L 1159 0 
L 581 0 
L 581 4863 
L 1159 4863 
L 1159 2969 
z
" transform="scale(0.015625)"/>
       <path id="DejaVuSans-65" d="M 3597 1894 
L 3597 1613 
L 953 1613 
Q 991 1019 1311 708 
Q 1631 397 2203 397 
Q 2534 397 2845 478 
Q 3156 559 3463 722 
L 3463 178 
Q 3153 47 2828 -22 
Q 2503 -91 2169 -91 
Q 1331 -91 842 396 
Q 353 884 353 1716 
Q 353 2575 817 3079 
Q 1281 3584 2069 3584 
Q 2775 3584 3186 3129 
Q 3597 2675 3597 1894 
z
M 3022 2063 
Q 3016 2534 2758 2815 
Q 2500 3097 2075 3097 
Q 1594 3097 1305 2825 
Q 1016 2553 972 2059 
L 3022 2063 
z
" transform="scale(0.015625)"/>
       <path id="DejaVuSans-72" d="M 2631 2963 
Q 2534 3019 2420 3045 
Q 2306 3072 2169 3072 
Q 1681 3072 1420 2755 
Q 1159 2438 1159 1844 
L 1159 0 
L 581 0 
L 581 3500 
L 1159 3500 
L 1159 2956 
Q 1341 3275 1631 3429 
Q 1922 3584 2338 3584 
Q 2397 3584 2469 3576 
Q 2541 3569 2628 3553 
L 2631 2963 
z
" transform="scale(0.015625)"/>
       <path id="DejaVuSans-20" transform="scale(0.015625)"/>
       <path id="DejaVuSans-6f" d="M 1959 3097 
Q 1497 3097 1228 2736 
Q 959 2375 959 1747 
Q 959 1119 1226 758 
Q 1494 397 1959 397 
Q 2419 397 2687 759 
Q 2956 1122 2956 1747 
Q 2956 2369 2687 2733 
Q 2419 3097 1959 3097 
z
M 1959 3584 
Q 2709 3584 3137 3096 
Q 3566 2609 3566 1747 
Q 3566 888 3137 398 
Q 2709 -91 1959 -91 
Q 1206 -91 779 398 
Q 353 888 353 1747 
Q 353 2609 779 3096 
Q 1206 3584 1959 3584 
z
" transform="scale(0.015625)"/>
       <path id="DejaVuSans-66" d="M 2375 4863 
L 2375 4384 
L 1825 4384 
Q 1516 4384 1395 4259 
Q 1275 4134 1275 3809 
L 1275 3500 
L 2222 3500 
L 2222 3053 
L 1275 3053 
L 1275 0 
L 697 0 
L 697 3053 
L 147 3053 
L 147 3500 
L 697 3500 
L 697 3744 
Q 697 4328 969 4595 
Q 1241 4863 1831 4863 
L 2375 4863 
z
" transform="scale(0.015625)"/>
       <path id="DejaVuSans-4f" d="M 2522 4238 
Q 1834 4238 1429 3725 
Q 1025 3213 1025 2328 
Q 1025 1447 1429 934 
Q 1834 422 2522 422 
Q 3209 422 3611 934 
Q 4013 1447 4013 2328 
Q 4013 3213 3611 3725 
Q 3209 4238 2522 4238 
z
M 2522 4750 
Q 3503 4750 4090 4092 
Q 4678 3434 4678 2328 
Q 4678 1225 4090 567 
Q 3503 -91 2522 -91 
Q 1538 -91 948 565 
Q 359 1222 359 2328 
Q 359 3434 948 4092 
Q 1538 4750 2522 4750 
z
" transform="scale(0.015625)"/>
       <path id="DejaVuSans-64" d="M 2906 2969 
L 2906 4863 
L 3481 4863 
L 3481 0 
L 2906 0 
L 2906 525 
Q 2725 213 2448 61 
Q 2172 -91 1784 -91 
Q 1150 -91 751 415 
Q 353 922 353 1747 
Q 353 2572 751 3078 
Q 1150 3584 1784 3584 
Q 2172 3584 2448 3432 
Q 2725 3281 2906 2969 
z
M 947 1747 
Q 947 1113 1208 752 
Q 1469 391 1925 391 
Q 2381 391 2643 752 
Q 2906 1113 2906 1747 
Q 2906 2381 2643 2742 
Q 2381 3103 1925 3103 
Q 1469 3103 1208 2742 
Q 947 2381 947 1747 
z
" transform="scale(0.015625)"/>
       <path id="DejaVuSans-73" d="M 2834 3397 
L 2834 2853 
Q 2591 2978 2328 3040 
Q 2066 3103 1784 3103 
Q 1356 3103 1142 2972 
Q 928 2841 928 2578 
Q 928 2378 1081 2264 
Q 1234 2150 1697 2047 
L 1894 2003 
Q 2506 1872 2764 1633 
Q 3022 1394 3022 966 
Q 3022 478 2636 193 
Q 2250 -91 1575 -91 
Q 1294 -91 989 -36 
Q 684 19 347 128 
L 347 722 
Q 666 556 975 473 
Q 1284 391 1588 391 
Q 1994 391 2212 530 
Q 2431 669 2431 922 
Q 2431 1156 2273 1281 
Q 2116 1406 1581 1522 
L 1381 1569 
Q 847 1681 609 1914 
Q 372 2147 372 2553 
Q 372 3047 722 3315 
Q 1072 3584 1716 3584 
Q 2034 3584 2315 3537 
Q 2597 3491 2834 3397 
z
" transform="scale(0.015625)"/>
      </defs>
      <use xlink:href="#DejaVuSans-4e"/>
      <use xlink:href="#DejaVuSans-75" x="74.804688"/>
      <use xlink:href="#DejaVuSans-6d" x="138.183594"/>
      <use xlink:href="#DejaVuSans-62" x="235.595703"/>
      <use xlink:href="#DejaVuSans-65" x="299.072266"/>
      <use xlink:href="#DejaVuSans-72" x="360.595703"/>
      <use xlink:href="#DejaVuSans-20" x="401.708984"/>
      <use xlink:href="#DejaVuSans-6f" x="433.496094"/>
      <use xlink:href="#DejaVuSans-66" x="494.677734"/>
      <use xlink:href="#DejaVuSans-20" x="529.882812"/>
      <use xlink:href="#DejaVuSans-4f" x="561.669922"/>
      <use xlink:href="#DejaVuSans-72" x="640.380859"/>
      <use xlink:href="#DejaVuSans-64" x="679.744141"/>
      <use xlink:href="#DejaVuSans-65" x="743.220703"/>
      <use xlink:href="#DejaVuSans-72" x="804.744141"/>
      <use xlink:href="#DejaVuSans-73" x="845.857422"/>
     </g>
    </g>
   </g>
   <g id="matplotlib.axis_2">
    <g id="ytick_1">
     <g id="line2d_7">
      <defs>
       <path id="m49d9078c2a" d="M 0 0 
L -3.5 0 
" style="stroke: #000000; stroke-width: 0.8"/>
      </defs>
      <g>
       <use xlink:href="#m49d9078c2a" x="57.6" y="307.574785" style="stroke: #000000; stroke-width: 0.8"/>
      </g>
     </g>
     <g id="text_8">
      <!-- 100 -->
      <g transform="translate(31.5125 311.374003)scale(0.1 -0.1)">
       <use xlink:href="#DejaVuSans-31"/>
       <use xlink:href="#DejaVuSans-30" x="63.623047"/>
       <use xlink:href="#DejaVuSans-30" x="127.246094"/>
      </g>
     </g>
    </g>
    <g id="ytick_2">
     <g id="line2d_8">
      <g>
       <use xlink:href="#m49d9078c2a" x="57.6" y="275.528506" style="stroke: #000000; stroke-width: 0.8"/>
      </g>
     </g>
     <g id="text_9">
      <!-- 200 -->
      <g transform="translate(31.5125 279.327725)scale(0.1 -0.1)">
       <use xlink:href="#DejaVuSans-32"/>
       <use xlink:href="#DejaVuSans-30" x="63.623047"/>
       <use xlink:href="#DejaVuSans-30" x="127.246094"/>
      </g>
     </g>
    </g>
    <g id="ytick_3">
     <g id="line2d_9">
      <g>
       <use xlink:href="#m49d9078c2a" x="57.6" y="243.482227" style="stroke: #000000; stroke-width: 0.8"/>
      </g>
     </g>
     <g id="text_10">
      <!-- 300 -->
      <g transform="translate(31.5125 247.281446)scale(0.1 -0.1)">
       <use xlink:href="#DejaVuSans-33"/>
       <use xlink:href="#DejaVuSans-30" x="63.623047"/>
       <use xlink:href="#DejaVuSans-30" x="127.246094"/>
      </g>
     </g>
    </g>
    <g id="ytick_4">
     <g id="line2d_10">
      <g>
       <use xlink:href="#m49d9078c2a" x="57.6" y="211.435948" style="stroke: #000000; stroke-width: 0.8"/>
      </g>
     </g>
     <g id="text_11">
      <!-- 400 -->
      <g transform="translate(31.5125 215.235167)scale(0.1 -0.1)">
       <use xlink:href="#DejaVuSans-34"/>
       <use xlink:href="#DejaVuSans-30" x="63.623047"/>
       <use xlink:href="#DejaVuSans-30" x="127.246094"/>
      </g>
     </g>
    </g>
    <g id="ytick_5">
     <g id="line2d_11">
      <g>
       <use xlink:href="#m49d9078c2a" x="57.6" y="179.389669" style="stroke: #000000; stroke-width: 0.8"/>
      </g>
     </g>
     <g id="text_12">
      <!-- 500 -->
      <g transform="translate(31.5125 183.188888)scale(0.1 -0.1)">
       <use xlink:href="#DejaVuSans-35"/>
       <use xlink:href="#DejaVuSans-30" x="63.623047"/>
       <use xlink:href="#DejaVuSans-30" x="127.246094"/>
      </g>
     </g>
    </g>
    <g id="ytick_6">
     <g id="line2d_12">
      <g>
       <use xlink:href="#m49d9078c2a" x="57.6" y="147.34339" style="stroke: #000000; stroke-width: 0.8"/>
      </g>
     </g>
     <g id="text_13">
      <!-- 600 -->
      <g transform="translate(31.5125 151.142609)scale(0.1 -0.1)">
       <defs>
        <path id="DejaVuSans-36" d="M 2113 2584 
Q 1688 2584 1439 2293 
Q 1191 2003 1191 1497 
Q 1191 994 1439 701 
Q 1688 409 2113 409 
Q 2538 409 2786 701 
Q 3034 994 3034 1497 
Q 3034 2003 2786 2293 
Q 2538 2584 2113 2584 
z
M 3366 4563 
L 3366 3988 
Q 3128 4100 2886 4159 
Q 2644 4219 2406 4219 
Q 1781 4219 1451 3797 
Q 1122 3375 1075 2522 
Q 1259 2794 1537 2939 
Q 1816 3084 2150 3084 
Q 2853 3084 3261 2657 
Q 3669 2231 3669 1497 
Q 3669 778 3244 343 
Q 2819 -91 2113 -91 
Q 1303 -91 875 529 
Q 447 1150 447 2328 
Q 447 3434 972 4092 
Q 1497 4750 2381 4750 
Q 2619 4750 2861 4703 
Q 3103 4656 3366 4563 
z
" transform="scale(0.015625)"/>
       </defs>
       <use xlink:href="#DejaVuSans-36"/>
       <use xlink:href="#DejaVuSans-30" x="63.623047"/>
       <use xlink:href="#DejaVuSans-30" x="127.246094"/>
      </g>
     </g>
    </g>
    <g id="ytick_7">
     <g id="line2d_13">
      <g>
       <use xlink:href="#m49d9078c2a" x="57.6" y="115.297112" style="stroke: #000000; stroke-width: 0.8"/>
      </g>
     </g>
     <g id="text_14">
      <!-- 700 -->
      <g transform="translate(31.5125 119.09633)scale(0.1 -0.1)">
       <defs>
        <path id="DejaVuSans-37" d="M 525 4666 
L 3525 4666 
L 3525 4397 
L 1831 0 
L 1172 0 
L 2766 4134 
L 525 4134 
L 525 4666 
z
" transform="scale(0.015625)"/>
       </defs>
       <use xlink:href="#DejaVuSans-37"/>
       <use xlink:href="#DejaVuSans-30" x="63.623047"/>
       <use xlink:href="#DejaVuSans-30" x="127.246094"/>
      </g>
     </g>
    </g>
    <g id="ytick_8">
     <g id="line2d_14">
      <g>
       <use xlink:href="#m49d9078c2a" x="57.6" y="83.250833" style="stroke: #000000; stroke-width: 0.8"/>
      </g>
     </g>
     <g id="text_15">
      <!-- 800 -->
      <g transform="translate(31.5125 87.050051)scale(0.1 -0.1)">
       <defs>
        <path id="DejaVuSans-38" d="M 2034 2216 
Q 1584 2216 1326 1975 
Q 1069 1734 1069 1313 
Q 1069 891 1326 650 
Q 1584 409 2034 409 
Q 2484 409 2743 651 
Q 3003 894 3003 1313 
Q 3003 1734 2745 1975 
Q 2488 2216 2034 2216 
z
M 1403 2484 
Q 997 2584 770 2862 
Q 544 3141 544 3541 
Q 544 4100 942 4425 
Q 1341 4750 2034 4750 
Q 2731 4750 3128 4425 
Q 3525 4100 3525 3541 
Q 3525 3141 3298 2862 
Q 3072 2584 2669 2484 
Q 3125 2378 3379 2068 
Q 3634 1759 3634 1313 
Q 3634 634 3220 271 
Q 2806 -91 2034 -91 
Q 1263 -91 848 271 
Q 434 634 434 1313 
Q 434 1759 690 2068 
Q 947 2378 1403 2484 
z
M 1172 3481 
Q 1172 3119 1398 2916 
Q 1625 2713 2034 2713 
Q 2441 2713 2670 2916 
Q 2900 3119 2900 3481 
Q 2900 3844 2670 4047 
Q 2441 4250 2034 4250 
Q 1625 4250 1398 4047 
Q 1172 3844 1172 3481 
z
" transform="scale(0.015625)"/>
       </defs>
       <use xlink:href="#DejaVuSans-38"/>
       <use xlink:href="#DejaVuSans-30" x="63.623047"/>
       <use xlink:href="#DejaVuSans-30" x="127.246094"/>
      </g>
     </g>
    </g>
    <g id="ytick_9">
     <g id="line2d_15">
      <g>
       <use xlink:href="#m49d9078c2a" x="57.6" y="51.204554" style="stroke: #000000; stroke-width: 0.8"/>
      </g>
     </g>
     <g id="text_16">
      <!-- 900 -->
      <g transform="translate(31.5125 55.003773)scale(0.1 -0.1)">
       <defs>
        <path id="DejaVuSans-39" d="M 703 97 
L 703 672 
Q 941 559 1184 500 
Q 1428 441 1663 441 
Q 2288 441 2617 861 
Q 2947 1281 2994 2138 
Q 2813 1869 2534 1725 
Q 2256 1581 1919 1581 
Q 1219 1581 811 2004 
Q 403 2428 403 3163 
Q 403 3881 828 4315 
Q 1253 4750 1959 4750 
Q 2769 4750 3195 4129 
Q 3622 3509 3622 2328 
Q 3622 1225 3098 567 
Q 2575 -91 1691 -91 
Q 1453 -91 1209 -44 
Q 966 3 703 97 
z
M 1959 2075 
Q 2384 2075 2632 2365 
Q 2881 2656 2881 3163 
Q 2881 3666 2632 3958 
Q 2384 4250 1959 4250 
Q 1534 4250 1286 3958 
Q 1038 3666 1038 3163 
Q 1038 2656 1286 2365 
Q 1534 2075 1959 2075 
z
" transform="scale(0.015625)"/>
       </defs>
       <use xlink:href="#DejaVuSans-39"/>
       <use xlink:href="#DejaVuSans-30" x="63.623047"/>
       <use xlink:href="#DejaVuSans-30" x="127.246094"/>
      </g>
     </g>
    </g>
    <g id="text_17">
     <!-- Waiting Time/s -->
     <g transform="translate(25.432812 211.410031)rotate(-90)scale(0.1 -0.1)">
      <defs>
       <path id="DejaVuSans-57" d="M 213 4666 
L 850 4666 
L 1831 722 
L 2809 4666 
L 3519 4666 
L 4500 722 
L 5478 4666 
L 6119 4666 
L 4947 0 
L 4153 0 
L 3169 4050 
L 2175 0 
L 1381 0 
L 213 4666 
z
" transform="scale(0.015625)"/>
       <path id="DejaVuSans-61" d="M 2194 1759 
Q 1497 1759 1228 1600 
Q 959 1441 959 1056 
Q 959 750 1161 570 
Q 1363 391 1709 391 
Q 2188 391 2477 730 
Q 2766 1069 2766 1631 
L 2766 1759 
L 2194 1759 
z
M 3341 1997 
L 3341 0 
L 2766 0 
L 2766 531 
Q 2569 213 2275 61 
Q 1981 -91 1556 -91 
Q 1019 -91 701 211 
Q 384 513 384 1019 
Q 384 1609 779 1909 
Q 1175 2209 1959 2209 
L 2766 2209 
L 2766 2266 
Q 2766 2663 2505 2880 
Q 2244 3097 1772 3097 
Q 1472 3097 1187 3025 
Q 903 2953 641 2809 
L 641 3341 
Q 956 3463 1253 3523 
Q 1550 3584 1831 3584 
Q 2591 3584 2966 3190 
Q 3341 2797 3341 1997 
z
" transform="scale(0.015625)"/>
       <path id="DejaVuSans-69" d="M 603 3500 
L 1178 3500 
L 1178 0 
L 603 0 
L 603 3500 
z
M 603 4863 
L 1178 4863 
L 1178 4134 
L 603 4134 
L 603 4863 
z
" transform="scale(0.015625)"/>
       <path id="DejaVuSans-74" d="M 1172 4494 
L 1172 3500 
L 2356 3500 
L 2356 3053 
L 1172 3053 
L 1172 1153 
Q 1172 725 1289 603 
Q 1406 481 1766 481 
L 2356 481 
L 2356 0 
L 1766 0 
Q 1100 0 847 248 
Q 594 497 594 1153 
L 594 3053 
L 172 3053 
L 172 3500 
L 594 3500 
L 594 4494 
L 1172 4494 
z
" transform="scale(0.015625)"/>
       <path id="DejaVuSans-6e" d="M 3513 2113 
L 3513 0 
L 2938 0 
L 2938 2094 
Q 2938 2591 2744 2837 
Q 2550 3084 2163 3084 
Q 1697 3084 1428 2787 
Q 1159 2491 1159 1978 
L 1159 0 
L 581 0 
L 581 3500 
L 1159 3500 
L 1159 2956 
Q 1366 3272 1645 3428 
Q 1925 3584 2291 3584 
Q 2894 3584 3203 3211 
Q 3513 2838 3513 2113 
z
" transform="scale(0.015625)"/>
       <path id="DejaVuSans-67" d="M 2906 1791 
Q 2906 2416 2648 2759 
Q 2391 3103 1925 3103 
Q 1463 3103 1205 2759 
Q 947 2416 947 1791 
Q 947 1169 1205 825 
Q 1463 481 1925 481 
Q 2391 481 2648 825 
Q 2906 1169 2906 1791 
z
M 3481 434 
Q 3481 -459 3084 -895 
Q 2688 -1331 1869 -1331 
Q 1566 -1331 1297 -1286 
Q 1028 -1241 775 -1147 
L 775 -588 
Q 1028 -725 1275 -790 
Q 1522 -856 1778 -856 
Q 2344 -856 2625 -561 
Q 2906 -266 2906 331 
L 2906 616 
Q 2728 306 2450 153 
Q 2172 0 1784 0 
Q 1141 0 747 490 
Q 353 981 353 1791 
Q 353 2603 747 3093 
Q 1141 3584 1784 3584 
Q 2172 3584 2450 3431 
Q 2728 3278 2906 2969 
L 2906 3500 
L 3481 3500 
L 3481 434 
z
" transform="scale(0.015625)"/>
       <path id="DejaVuSans-54" d="M -19 4666 
L 3928 4666 
L 3928 4134 
L 2272 4134 
L 2272 0 
L 1638 0 
L 1638 4134 
L -19 4134 
L -19 4666 
z
" transform="scale(0.015625)"/>
       <path id="DejaVuSans-2f" d="M 1625 4666 
L 2156 4666 
L 531 -594 
L 0 -594 
L 1625 4666 
z
" transform="scale(0.015625)"/>
      </defs>
      <use xlink:href="#DejaVuSans-57"/>
      <use xlink:href="#DejaVuSans-61" x="92.501953"/>
      <use xlink:href="#DejaVuSans-69" x="153.78125"/>
      <use xlink:href="#DejaVuSans-74" x="181.564453"/>
      <use xlink:href="#DejaVuSans-69" x="220.773438"/>
      <use xlink:href="#DejaVuSans-6e" x="248.556641"/>
      <use xlink:href="#DejaVuSans-67" x="311.935547"/>
      <use xlink:href="#DejaVuSans-20" x="375.412109"/>
      <use xlink:href="#DejaVuSans-54" x="407.199219"/>
      <use xlink:href="#DejaVuSans-69" x="465.158203"/>
      <use xlink:href="#DejaVuSans-6d" x="492.941406"/>
      <use xlink:href="#DejaVuSans-65" x="590.353516"/>
      <use xlink:href="#DejaVuSans-2f" x="651.876953"/>
      <use xlink:href="#DejaVuSans-73" x="685.568359"/>
     </g>
    </g>
   </g>
   <g id="line2d_16">
    <path d="M 73.832727 286.720378 
L 73.897671 295.488 
L 73.962615 287.61321 
L 74.157447 235.045206 
L 74.222391 232.002955 
L 74.417222 205.035313 
L 74.676998 184.675717 
L 74.741942 184.234932 
L 74.806886 184.860462 
L 74.87183 182.774597 
L 75.066661 175.02029 
L 75.196549 178.87771 
L 75.456325 162.161781 
L 75.521269 162.805105 
L 75.586213 157.069864 
L 75.651156 158.554277 
L 75.7161 158.463088 
L 75.845988 160.661768 
L 76.04082 149.985864 
L 76.105764 153.01564 
L 76.235651 149.082634 
L 76.300595 151.84865 
L 76.495427 147.545063 
L 76.560371 147.495542 
L 76.755203 139.957405 
L 76.820147 140.756563 
L 77.079922 137.486276 
L 77.144866 138.461846 
L 77.20981 138.049538 
L 77.274754 137.707023 
L 77.664417 131.019254 
L 77.729361 131.176269 
L 77.794305 131.825481 
L 78.248912 124.883816 
L 78.313856 124.077316 
L 78.3788 125.425177 
L 78.443744 125.291355 
L 78.638576 124.848335 
L 78.70352 125.343111 
L 78.833407 128.093172 
L 79.028239 126.636966 
L 79.093183 126.639196 
L 79.482846 123.351693 
L 79.612734 125.543256 
L 79.677678 125.302843 
L 79.87251 128.486894 
L 79.937454 128.852641 
L 80.132285 127.882012 
L 80.262173 129.120202 
L 80.327117 127.891422 
L 80.392061 129.073391 
L 80.457005 128.278287 
L 80.586893 127.147822 
L 80.651837 127.62141 
L 80.71678 125.962567 
L 80.781724 126.994101 
L 80.846668 126.564743 
L 80.911612 125.308492 
L 80.976556 125.543046 
L 81.0415 125.460313 
L 81.236332 124.299469 
L 81.301276 124.379877 
L 81.366219 124.457019 
L 81.431163 124.971319 
L 81.496107 124.928704 
L 81.561051 124.960408 
L 81.755883 126.63849 
L 81.820827 127.870083 
L 81.885771 127.158536 
L 81.950715 126.448399 
L 82.015658 127.289112 
L 82.080602 126.75558 
L 82.145546 126.041035 
L 82.340378 127.070674 
L 82.470266 126.584686 
L 82.665097 128.123733 
L 82.794985 126.715134 
L 82.989817 128.625272 
L 83.054761 128.401017 
L 83.119705 128.802342 
L 83.184649 127.31754 
L 83.249592 127.613737 
L 83.314536 127.089729 
L 83.37948 127.528955 
L 83.7042 125.014816 
L 83.769144 125.251219 
L 83.963975 123.949302 
L 84.093863 124.398811 
L 84.223751 123.491565 
L 84.288695 123.72842 
L 84.418583 122.397079 
L 84.483527 122.53619 
L 84.613414 123.767609 
L 84.678358 123.730077 
L 85.003078 122.931202 
L 85.068022 123.377562 
L 85.132966 123.146132 
L 85.262853 122.376747 
L 85.327797 122.832967 
L 85.392741 122.500932 
L 85.522629 122.153007 
L 85.587573 122.227517 
L 85.782404 122.809948 
L 85.847348 122.553285 
L 85.977236 123.019392 
L 86.04218 122.445138 
L 86.107124 122.825319 
L 86.172068 122.853353 
L 86.3669 121.176778 
L 86.431843 121.632261 
L 86.691619 121.112067 
L 86.886451 121.995814 
L 86.951395 121.702772 
L 87.016339 121.457087 
L 87.081282 121.489632 
L 87.146226 121.642913 
L 87.21117 121.382113 
L 87.276114 121.551472 
L 87.53589 122.342377 
L 87.600834 121.985241 
L 87.665778 122.411956 
L 87.730721 122.324133 
L 87.925553 121.696055 
L 87.990497 121.763608 
L 88.055441 121.600578 
L 88.250273 123.055328 
L 88.38016 122.462153 
L 88.510048 123.272714 
L 88.574992 123.186995 
L 88.70488 122.333697 
L 88.769824 122.375204 
L 88.899712 122.434964 
L 88.964655 122.198186 
L 89.029599 122.295381 
L 89.159487 122.845334 
L 89.289375 121.998755 
L 89.354319 122.227206 
L 89.419263 122.623064 
L 89.484207 121.922286 
L 89.549151 122.000435 
L 89.679038 123.081962 
L 89.87387 121.573663 
L 90.068702 122.631219 
L 90.328477 121.016978 
L 90.458365 121.067251 
L 90.588253 121.380706 
L 90.653197 121.090223 
L 90.848029 122.114938 
L 91.04286 121.415123 
L 91.107804 121.440053 
L 91.172748 121.522573 
L 91.237692 121.130724 
L 91.302636 121.307495 
L 91.562411 121.945494 
L 91.692299 121.613758 
L 91.757243 121.697958 
L 91.822187 122.15902 
L 91.887131 121.764411 
L 92.081963 122.569243 
L 92.146906 121.947148 
L 92.21185 122.432915 
L 92.276794 122.384233 
L 92.341738 122.535128 
L 92.406682 122.499691 
L 92.601514 121.343704 
L 92.796345 121.654685 
L 92.926233 121.107924 
L 92.991177 121.242592 
L 93.056121 120.584027 
L 93.121065 121.168858 
L 93.250953 120.376211 
L 93.315897 120.568366 
L 93.380841 120.154265 
L 93.445784 120.391067 
L 93.575672 120.812456 
L 93.70556 120.568662 
L 93.835448 120.789971 
L 93.900392 121.019227 
L 94.095223 120.408463 
L 94.160167 120.618566 
L 94.354999 120.970539 
L 94.679718 119.904741 
L 94.744662 120.210286 
L 94.809606 119.720622 
L 94.87455 119.832956 
L 94.939494 119.833012 
L 95.134326 120.314737 
L 95.264214 120.371988 
L 95.329157 120.44857 
L 95.523989 120.061757 
L 95.653877 120.249572 
L 95.848709 119.679531 
L 95.978596 119.883515 
L 96.238372 119.666615 
L 96.303316 119.764896 
L 96.36826 119.458183 
L 96.433204 119.740779 
L 96.498148 119.712898 
L 96.692979 119.431819 
L 96.757923 119.229824 
L 96.822867 119.316425 
L 96.887811 119.43261 
L 96.952755 119.272735 
L 97.017699 119.370633 
L 97.082643 119.251444 
L 97.147587 119.357334 
L 97.212531 119.287895 
L 97.342418 119.487117 
L 97.472306 119.094291 
L 97.53725 119.100514 
L 97.602194 118.480607 
L 97.667138 118.678904 
L 97.991857 119.138272 
L 98.056801 118.76854 
L 98.121745 118.83936 
L 98.251633 119.190385 
L 98.576352 118.661468 
L 98.771184 119.130495 
L 98.836128 118.962354 
L 98.901072 119.233209 
L 98.966016 118.877387 
L 99.03096 118.906608 
L 99.290735 119.387747 
L 99.485567 118.950915 
L 99.550511 119.314924 
L 99.615455 119.098447 
L 99.680399 119.168024 
L 99.745343 119.61612 
L 99.810286 119.369148 
L 99.940174 119.086709 
L 100.070062 119.220929 
L 100.135006 119.262706 
L 100.264894 119.139296 
L 100.394782 119.179818 
L 100.719501 120.383882 
L 100.784445 120.357328 
L 100.914333 120.888849 
L 101.04422 120.567306 
L 101.109164 120.754762 
L 101.174108 120.578754 
L 101.239052 120.703175 
L 101.433884 120.933753 
L 101.693659 120.083101 
L 101.758603 120.312716 
L 101.823547 120.378626 
L 101.888491 120.243583 
L 101.953435 120.5082 
L 102.018379 120.314163 
L 102.213211 119.640201 
L 102.472986 119.990642 
L 102.53793 119.618073 
L 102.602874 119.774236 
L 102.667818 119.884283 
L 102.797706 119.538326 
L 102.86265 119.560498 
L 102.927594 119.782969 
L 103.122425 119.296485 
L 103.382201 119.510165 
L 103.447145 119.455646 
L 103.577032 119.631252 
L 103.771864 119.004704 
L 103.966696 119.013517 
L 104.096584 119.381598 
L 104.226471 119.371145 
L 104.291415 119.54706 
L 104.551191 118.772773 
L 104.616135 119.060837 
L 104.681079 118.878188 
L 104.746023 118.933083 
L 104.87591 118.751714 
L 105.005798 119.13677 
L 105.070742 118.780156 
L 105.135686 118.848478 
L 105.20063 118.98002 
L 105.395462 118.3896 
L 105.460406 118.371301 
L 105.590293 117.767228 
L 105.655237 118.017075 
L 105.720181 117.915088 
L 105.850069 117.981639 
L 105.915013 117.666871 
L 105.979957 117.838454 
L 106.239732 117.406337 
L 106.304676 117.483195 
L 106.36962 117.657898 
L 106.434564 117.542467 
L 106.564452 117.629241 
L 106.759283 117.21546 
L 106.824227 117.233358 
L 106.889171 116.956915 
L 106.954115 117.340277 
L 107.019059 117.150808 
L 107.148947 116.627937 
L 107.53861 116.229422 
L 107.603554 116.402133 
L 107.668498 116.285878 
L 107.86333 115.536334 
L 107.928274 115.55622 
L 107.993218 115.448431 
L 108.058161 115.564426 
L 108.188049 115.083827 
L 108.317937 115.378488 
L 108.382881 115.536813 
L 108.772544 114.651653 
L 108.837488 114.644781 
L 108.902432 114.397712 
L 108.967376 114.507247 
L 109.097264 114.662761 
L 109.486927 113.597839 
L 109.746703 113.922434 
L 109.811647 113.867747 
L 109.941534 113.720939 
L 110.006478 113.910925 
L 110.071422 113.521206 
L 110.266254 113.906227 
L 110.331198 114.017952 
L 110.396142 113.87749 
L 110.461086 113.966902 
L 110.590973 114.21277 
L 110.655917 114.125873 
L 110.785805 113.920154 
L 111.110525 112.932412 
L 111.175469 112.969323 
L 111.240412 113.109923 
L 111.305356 113.015544 
L 111.500188 112.714096 
L 111.565132 112.86282 
L 111.630076 112.814147 
L 111.69502 112.769429 
L 111.759964 112.564774 
L 111.824908 112.747373 
L 111.889851 112.688104 
L 111.954795 112.564739 
L 112.019739 112.727456 
L 112.084683 112.639755 
L 112.734122 112.39411 
L 112.799066 112.611053 
L 112.993898 112.201592 
L 113.058842 112.196994 
L 113.188729 111.972463 
L 113.318617 112.001306 
L 113.383561 111.583327 
L 113.448505 111.751733 
L 113.578393 111.972996 
L 113.708281 112.177707 
L 113.903112 111.756603 
L 113.968056 111.802215 
L 114.422663 110.960976 
L 114.617495 111.382053 
L 114.812327 110.654309 
L 114.877271 110.894665 
L 114.942215 110.764419 
L 115.072102 110.295562 
L 115.137046 110.316724 
L 115.266934 110.449209 
L 115.331878 110.25266 
L 115.396822 110.364217 
L 115.461766 110.582335 
L 115.52671 110.487821 
L 115.591654 110.406824 
L 115.721541 109.561646 
L 115.786485 109.807249 
L 115.851429 109.841234 
L 115.916373 109.632028 
L 116.046261 109.957646 
L 116.241093 109.590516 
L 116.37098 109.835621 
L 116.435924 109.848892 
L 116.565812 109.598069 
L 116.630756 109.65883 
L 116.760644 109.361642 
L 117.020419 109.936505 
L 117.085363 109.827726 
L 117.150307 109.885555 
L 117.280195 109.912504 
L 117.345139 109.704213 
L 117.410083 109.861456 
L 117.604914 109.996414 
L 117.669858 109.890758 
L 117.734802 110.01649 
L 117.799746 109.946437 
L 117.994578 109.806838 
L 118.059522 110.012811 
L 118.124466 109.924385 
L 118.579073 109.736235 
L 118.773905 109.354391 
L 119.3584 108.524876 
L 119.553231 108.525741 
L 119.683119 108.742808 
L 119.813007 108.508495 
L 119.877951 108.103096 
L 119.942895 108.319541 
L 120.072783 108.370916 
L 120.137726 108.28803 
L 120.20267 108.367246 
L 120.267614 108.385088 
L 120.397502 108.073911 
L 120.462446 108.147615 
L 120.981997 107.689763 
L 121.111885 107.768033 
L 121.176829 107.680947 
L 121.241773 107.791949 
L 121.371661 107.65696 
L 121.436604 107.679658 
L 121.566492 107.961466 
L 121.69638 107.713981 
L 121.826268 107.979906 
L 121.891212 108.138686 
L 121.956156 108.060111 
L 122.150987 108.158975 
L 122.215931 107.980579 
L 122.280875 108.162846 
L 122.345819 108.114141 
L 122.410763 108.14812 
L 122.670538 107.637311 
L 122.735482 107.560607 
L 122.800426 107.691333 
L 122.86537 107.639634 
L 122.995258 107.609251 
L 123.384921 108.192819 
L 123.579753 108.196956 
L 123.774585 108.161659 
L 123.839529 108.223827 
L 123.904473 107.973361 
L 123.969416 108.045014 
L 124.099304 108.395387 
L 124.229192 107.895147 
L 124.294136 107.949822 
L 124.488968 108.025966 
L 124.748743 107.551335 
L 124.878631 107.52284 
L 124.943575 107.680603 
L 125.008519 107.606536 
L 125.138407 107.594107 
L 125.20335 107.648783 
L 125.333238 107.238229 
L 125.398182 107.395177 
L 125.52807 107.457521 
L 125.722902 107.63633 
L 126.047621 107.564071 
L 126.307397 107.375757 
L 126.372341 107.548347 
L 126.437285 107.701971 
L 126.632116 107.344955 
L 126.69706 107.407252 
L 126.762004 107.282688 
L 126.826948 107.332619 
L 127.281555 107.190559 
L 127.86605 108.082504 
L 127.930994 107.92939 
L 127.995938 108.034525 
L 128.125826 107.996798 
L 128.450545 107.445685 
L 128.645377 107.64642 
L 128.710321 107.568735 
L 128.775265 107.747092 
L 128.840209 107.71836 
L 129.229872 107.712821 
L 129.35976 107.839683 
L 129.684479 107.459807 
L 129.879311 107.611603 
L 130.204031 107.879364 
L 130.268975 107.750398 
L 130.398862 107.667108 
L 130.52875 107.701756 
L 130.658638 107.735007 
L 130.788526 107.445338 
L 131.048301 107.522015 
L 131.113245 107.308694 
L 131.178189 107.393055 
L 131.243133 107.537551 
L 131.308077 107.427716 
L 131.373021 107.343632 
L 131.437965 107.440742 
L 131.632796 107.727918 
L 131.69774 107.679145 
L 131.762684 107.775447 
L 131.957516 107.587898 
L 132.02246 107.559312 
L 132.152348 107.633196 
L 132.282235 107.603344 
L 132.606955 107.952901 
L 132.801787 107.581968 
L 133.061562 107.33092 
L 133.126506 107.411094 
L 133.19145 107.261533 
L 133.256394 107.337764 
L 133.516169 107.239241 
L 133.646057 106.939824 
L 133.711001 106.997577 
L 133.905833 107.114124 
L 134.035721 106.868847 
L 134.165608 107.02683 
L 134.295496 107.043477 
L 134.490328 106.971858 
L 134.555272 106.927642 
L 134.750103 107.105623 
L 134.815047 107.123822 
L 135.009879 107.45001 
L 135.334599 107.594009 
L 135.594374 107.697688 
L 135.724262 107.435803 
L 135.85415 107.57748 
L 136.048981 107.406206 
L 136.243813 107.548307 
L 136.503589 107.380495 
L 136.633477 107.487046 
L 136.763364 107.736672 
L 136.828308 107.663712 
L 136.958196 107.785498 
L 137.477747 107.566402 
L 137.607635 107.774265 
L 138.062242 107.641864 
L 138.127186 107.490991 
L 138.19213 107.53724 
L 138.257074 107.54963 
L 138.322018 107.355984 
L 138.386962 107.412964 
L 138.51685 107.383093 
L 138.711681 107.664389 
L 139.491008 108.165312 
L 139.750784 107.631875 
L 139.815728 107.599092 
L 139.945615 107.713977 
L 140.335279 107.246622 
L 140.53011 107.440451 
L 140.919774 106.800409 
L 140.984718 106.690164 
L 141.049662 106.73089 
L 141.114605 106.725118 
L 141.309437 106.437607 
L 141.439325 106.493271 
L 141.634157 106.575211 
L 141.958876 106.357753 
L 142.088764 106.517296 
L 142.153708 106.435966 
L 142.218652 106.415628 
L 142.283596 106.103474 
L 142.34854 106.224789 
L 142.608315 105.853968 
L 142.673259 105.913188 
L 142.738203 105.987954 
L 142.803147 105.910547 
L 144.491688 105.37032 
L 144.751464 105.165101 
L 145.076183 104.964091 
L 145.206071 105.19229 
L 145.400903 105.003777 
L 145.660678 105.110378 
L 145.85551 104.846437 
L 145.985398 104.630743 
L 146.050342 104.684167 
L 146.115286 104.591084 
L 146.18023 104.669851 
L 146.310117 104.598937 
L 146.440005 104.390412 
L 146.699781 104.785659 
L 146.959556 104.235621 
L 147.154388 104.120972 
L 147.34922 103.994749 
L 147.803827 104.155177 
L 147.933715 104.079812 
L 148.323378 104.244557 
L 148.388322 104.170821 
L 148.51821 104.325131 
L 148.713042 103.955419 
L 148.842929 104.09073 
L 148.907873 104.023484 
L 148.972817 104.103601 
L 149.167649 104.140206 
L 149.36248 103.991479 
L 149.557312 104.113438 
L 149.817088 103.888504 
L 149.946976 103.909046 
L 150.596415 103.862012 
L 150.661358 104.002795 
L 150.986078 103.403063 
L 151.115966 103.28408 
L 151.18091 103.252207 
L 151.375741 102.930458 
L 151.505629 102.93025 
L 151.700461 103.020101 
L 151.960236 102.960265 
L 152.155068 102.767883 
L 152.414844 102.38331 
L 152.609675 102.558835 
L 152.739563 102.570592 
L 152.999339 102.133492 
L 153.389002 102.221578 
L 153.843609 101.783749 
L 153.973497 101.921274 
L 154.038441 102.017398 
L 154.103385 101.854352 
L 154.168329 101.903588 
L 154.233273 101.979066 
L 154.298217 101.913419 
L 154.557992 101.782576 
L 154.817768 102.054635 
L 154.947656 101.879508 
L 155.0126 101.925347 
L 155.142487 101.73769 
L 155.597095 101.818256 
L 155.662039 101.729649 
L 155.726982 101.82598 
L 156.246534 102.002893 
L 156.441365 101.852461 
L 156.571253 101.941629 
L 156.766085 101.769081 
L 157.285636 102.199915 
L 157.675299 102.072331 
L 157.740243 101.92877 
L 157.805187 102.031741 
L 158.064963 102.062049 
L 158.259795 102.025995 
L 158.324738 102.116414 
L 158.389682 102.048387 
L 158.584514 102.055306 
L 158.714402 102.093037 
L 158.84429 102.082807 
L 158.974177 101.757454 
L 159.104065 101.773749 
L 159.363841 101.513495 
L 159.558672 101.681014 
L 159.623616 101.726452 
L 159.753504 101.573037 
L 160.273055 101.633613 
L 160.467887 101.77984 
L 160.662719 101.938759 
L 160.727663 101.839876 
L 160.987438 101.561177 
L 161.117326 101.531494 
L 161.377102 101.486624 
L 161.961597 101.041819 
L 162.091484 101.062114 
L 162.35126 100.937439 
L 162.481148 101.020667 
L 162.67598 100.922337 
L 162.935755 101.03524 
L 163.195531 100.862072 
L 163.390362 101.101308 
L 163.780026 100.916339 
L 165.01396 100.677393 
L 165.403623 100.960043 
L 165.598455 100.861277 
L 165.663399 100.87282 
L 165.728343 100.77136 
L 165.793287 100.854221 
L 165.923174 100.89186 
L 166.18295 101.074158 
L 166.377782 101.208172 
L 166.572613 101.235445 
L 166.637557 101.178193 
L 166.702501 101.267034 
L 166.962277 101.298322 
L 167.157109 101.391938 
L 167.481828 101.541692 
L 167.67666 101.468034 
L 167.806547 101.57593 
L 168.066323 101.476035 
L 168.391043 101.703821 
L 168.715762 101.95083 
L 168.84565 101.9501 
L 169.300257 102.052852 
L 169.430145 102.031528 
L 169.624977 102.1154 
L 169.754864 102.128639 
L 169.949696 102.195998 
L 170.33936 102.079771 
L 170.469247 102.005449 
L 170.599135 101.984159 
L 170.664079 102.053072 
L 170.729023 101.927179 
L 170.793967 101.974117 
L 171.573294 101.823404 
L 171.703181 101.935624 
L 171.833069 101.879098 
L 171.962957 101.968216 
L 172.092845 102.044161 
L 172.417564 101.724792 
L 172.612396 101.915027 
L 172.937115 101.540998 
L 173.067003 101.631605 
L 173.196891 101.713214 
L 173.586554 101.623222 
L 173.651498 101.718197 
L 173.716442 101.663454 
L 174.300937 101.582227 
L 174.430825 101.466488 
L 174.560713 101.528202 
L 174.885432 101.368219 
L 175.210152 101.49472 
L 175.34004 101.50054 
L 175.469927 101.674413 
L 175.534871 101.624994 
L 175.794647 101.609982 
L 175.989479 101.652294 
L 176.054423 101.552408 
L 176.119366 101.619104 
L 176.379142 101.64513 
L 176.50903 101.692269 
L 176.703861 101.578285 
L 176.963637 101.684144 
L 177.158469 101.615428 
L 177.288357 101.622384 
L 177.872852 101.696303 
L 178.002739 101.809835 
L 178.327459 101.701801 
L 178.522291 101.706732 
L 178.782066 101.574315 
L 179.041842 101.683085 
L 179.366561 101.595999 
L 179.561393 101.49334 
L 179.886112 101.276966 
L 180.016 101.261398 
L 180.080944 101.225195 
L 180.145888 101.337736 
L 180.210832 101.272058 
L 180.600495 101.008537 
L 180.795327 101.221185 
L 180.925215 101.323253 
L 180.990159 101.430771 
L 181.18499 101.278015 
L 181.379822 101.218882 
L 181.834429 100.841972 
L 182.029261 100.908036 
L 182.159149 100.855191 
L 182.224093 100.9574 
L 182.289037 100.860255 
L 182.418925 100.918436 
L 182.548812 100.765306 
L 182.743644 100.836082 
L 182.873532 100.763689 
L 183.328139 100.859825 
L 183.458027 100.845822 
L 183.652859 100.941673 
L 183.84769 100.805578 
L 183.977578 100.877794 
L 184.17241 101.047936 
L 184.237354 101.081399 
L 184.562073 100.763267 
L 184.756905 100.643439 
L 185.211512 100.799519 
L 185.860951 101.075775 
L 185.990839 101.033358 
L 186.185671 101.201501 
L 186.575334 100.862115 
L 186.83511 101.010683 
L 187.029941 100.971791 
L 187.224773 100.79524 
L 188.0041 100.674538 
L 188.263875 100.703483 
L 188.523651 100.828139 
L 188.783427 100.670335 
L 189.17309 100.551233 
L 189.367922 100.599652 
L 189.757585 100.533929 
L 189.952417 100.634852 
L 190.147248 100.589454 
L 190.212192 100.520782 
L 190.277136 100.599342 
L 190.471968 100.649417 
L 190.601856 100.434084 
L 190.796687 100.522868 
L 191.056463 100.546015 
L 191.446126 100.275895 
L 191.640958 100.360455 
L 191.900734 100.139482 
L 192.095565 99.925637 
L 192.745004 99.76513 
L 193.00478 99.807672 
L 193.069724 99.738044 
L 193.264555 99.854796 
L 193.784107 99.805508 
L 194.043882 99.587834 
L 194.17377 99.576319 
L 194.368602 99.389104 
L 194.888153 99.28494 
L 195.018041 99.22752 
L 195.277816 99.308822 
L 196.381863 99.525424 
L 196.641638 99.484859 
L 196.771526 99.508364 
L 196.901414 99.544453 
L 197.031302 99.481915 
L 197.356021 99.62889 
L 197.615797 99.795862 
L 198.200292 99.885749 
L 198.395123 99.951684 
L 198.525011 99.920738 
L 198.654899 99.941533 
L 199.49917 100.1551 
L 199.629057 100.155099 
L 199.758945 100.221426 
L 199.888833 100.240217 
L 200.148609 100.270927 
L 202.291757 100.69345 
L 202.421645 100.629744 
L 202.551533 100.644955 
L 202.681421 100.553399 
L 202.876252 100.685983 
L 203.071084 100.691393 
L 203.265916 100.796898 
L 205.214233 100.179571 
L 205.474008 100.237934 
L 206.83783 99.946576 
L 206.902774 99.756329 
L 206.967718 99.781119 
L 207.227493 99.778999 
L 207.422325 99.838051 
L 208.656259 99.361393 
L 209.045923 99.37207 
L 209.825249 99.662421 
L 210.149969 99.442676 
L 211.124127 99.567976 
L 211.383903 99.751929 
L 211.708622 99.889401 
L 212.033342 100.024827 
L 212.228174 99.805952 
L 212.423005 99.809191 
L 212.552893 99.865188 
L 213.202332 100.153872 
L 213.916715 100.073842 
L 214.241434 100.236194 
L 214.371322 100.157951 
L 214.566154 100.208052 
L 214.760986 100.209249 
L 215.150649 100.262476 
L 215.410425 100.276486 
L 215.800088 100.513673 
L 217.228854 100.660486 
L 217.943237 100.957928 
L 218.138068 101.01714 
L 218.592676 101.194172 
L 218.787507 101.068699 
L 219.631778 101.115999 
L 220.346161 101.043486 
L 220.735824 101.030723 
L 220.9956 101.166314 
L 221.190432 101.128164 
L 221.385263 101.155009 
L 221.580095 101.196758 
L 221.709983 101.166729 
L 221.904814 101.250778 
L 222.034702 101.192998 
L 223.008861 101.124957 
L 223.138748 101.167569 
L 223.33358 101.179391 
L 223.593356 101.195088 
L 223.788187 101.260877 
L 223.983019 101.262489 
L 224.242795 101.278061 
L 225.152009 101.398852 
L 225.476729 101.243694 
L 225.736504 101.22845 
L 225.866392 101.199783 
L 225.99628 101.24759 
L 226.515831 101.362142 
L 226.775607 101.393613 
L 227.230214 101.361437 
L 227.944597 101.286215 
L 228.594036 101.347788 
L 228.788868 101.255566 
L 229.113587 101.192078 
L 229.373363 101.219826 
L 230.347521 101.122271 
L 230.542353 101.110409 
L 230.99696 101.027523 
L 231.126848 101.076711 
L 231.32168 101.118486 
L 231.646399 100.785285 
L 231.906175 100.722516 
L 232.101006 100.678452 
L 232.360782 100.636196 
L 232.620558 100.519839 
L 233.269997 100.407508 
L 233.399884 100.367988 
L 233.65966 100.32058 
L 233.854492 100.128283 
L 234.244155 100.069495 
L 234.568875 100.207276 
L 234.763706 100.144378 
L 235.023482 100.148334 
L 235.218313 100.121653 
L 235.478089 100.113419 
L 235.672921 100.073617 
L 235.802809 100.014783 
L 236.32236 100.120436 
L 236.517191 100.097311 
L 236.776967 100.153091 
L 237.036743 100.044405 
L 237.231574 100.007561 
L 237.686182 100.140903 
L 238.140789 99.955468 
L 238.66034 99.9241 
L 238.790228 99.954219 
L 239.050003 99.860001 
L 240.478769 99.784984 
L 240.673601 99.676403 
L 240.803489 99.68019 
L 241.258096 99.420394 
L 241.452928 99.460775 
L 241.712703 99.505526 
L 241.907535 99.40935 
L 243.141469 99.264652 
L 243.336301 99.280267 
L 243.596076 99.311743 
L 244.245515 99.11194 
L 244.765066 99.188463 
L 245.024842 99.177615 
L 245.349562 99.180207 
L 245.479449 99.157318 
L 245.674281 99.074641 
L 246.518552 98.913776 
L 246.64844 98.923488 
L 247.038103 98.965049 
L 247.232935 98.880175 
L 247.427766 98.907558 
L 248.142149 98.833219 
L 248.401925 98.740665 
L 249.505971 98.558944 
L 249.830691 98.59727 
L 250.025522 98.610057 
L 250.220354 98.608693 
L 250.610017 98.57428 
L 250.804849 98.557244 
L 251.129568 98.61085 
L 253.597437 98.36258 
L 253.857212 98.472221 
L 254.181932 98.409376 
L 254.311819 98.339124 
L 254.571595 98.376984 
L 254.831371 98.268553 
L 255.15609 98.15085 
L 256.000361 98.018195 
L 256.390024 98.077801 
L 256.779688 98.021698 
L 257.169351 97.957282 
L 257.429127 97.959663 
L 257.559014 97.975433 
L 257.753846 97.959049 
L 258.468229 97.972558 
L 258.533173 98.02382 
L 258.728005 97.858979 
L 259.052724 97.76231 
L 259.182612 97.790124 
L 259.832051 97.812932 
L 259.961939 97.785789 
L 260.091826 97.805436 
L 260.48149 97.812797 
L 260.676321 97.807867 
L 261.975199 97.860972 
L 262.234975 97.940045 
L 262.81947 98.094923 
L 263.274077 98.13256 
L 264.118348 98.111418 
L 264.443068 98.256511 
L 264.962619 98.199668 
L 265.287338 98.292432 
L 265.48217 98.225869 
L 265.612058 98.185417 
L 266.131609 98.22124 
L 266.456328 98.171745 
L 266.65116 98.167862 
L 266.910936 98.065871 
L 267.105767 98.120635 
L 267.365543 98.069111 
L 268.079926 97.983846 
L 269.119028 97.785431 
L 269.703523 97.824964 
L 269.898355 97.800528 
L 271.392065 97.728926 
L 271.65184 97.651517 
L 273.600157 97.575004 
L 277.366903 97.317225 
L 277.561735 97.210121 
L 277.756567 97.200056 
L 280.679042 96.901682 
L 280.938818 96.841582 
L 281.133649 96.776507 
L 281.393425 96.792515 
L 281.6532 96.816658 
L 282.107808 96.659638 
L 284.250956 96.704291 
L 284.380844 96.629713 
L 284.770508 96.424077 
L 285.160171 96.413201 
L 285.48489 96.302427 
L 285.744666 96.352316 
L 286.004442 96.203537 
L 286.523993 96.027017 
L 286.783768 96.023496 
L 286.9786 96.062802 
L 287.757927 95.939259 
L 288.14759 95.872186 
L 288.407366 95.920803 
L 288.602198 95.85989 
L 289.251637 95.832464 
L 289.381524 95.834676 
L 289.576356 95.734189 
L 289.836132 95.729417 
L 290.095907 95.70987 
L 290.485571 95.684666 
L 296.460409 96.573957 
L 296.720185 96.479735 
L 297.044904 96.569889 
L 297.434568 96.539274 
L 298.733446 96.576653 
L 298.928277 96.505985 
L 299.577716 96.522127 
L 299.902436 96.464925 
L 300.097267 96.501303 
L 300.486931 96.475389 
L 302.889855 96.641691 
L 303.084687 96.639077 
L 304.64334 96.756925 
L 304.903116 96.74888 
L 305.422667 96.871101 
L 305.747387 96.916251 
L 306.396826 96.959041 
L 307.63076 97.051798 
L 307.825591 97.074479 
L 309.189413 97.127659 
L 309.384245 97.169782 
L 309.64402 97.086456 
L 309.838852 97.124161 
L 310.098628 97.178329 
L 310.553235 97.113903 
L 312.111889 97.253046 
L 312.566496 97.093009 
L 312.956159 97.158358 
L 314.190093 97.284318 
L 314.384925 97.147034 
L 314.644701 97.145559 
L 315.164252 97.198235 
L 315.359083 97.224015 
L 316.073466 97.272346 
L 316.528074 97.33817 
L 317.242456 97.265838 
L 317.891895 97.323588 
L 318.736166 97.355035 
L 319.320661 97.312296 
L 319.515493 97.325904 
L 319.710325 97.257374 
L 319.840212 97.267357 
L 320.035044 97.199928 
L 320.359764 97.306898 
L 320.879315 97.289707 
L 321.13909 97.250864 
L 321.398866 97.252086 
L 321.593698 97.345695 
L 321.788529 97.240933 
L 322.243137 97.35704 
L 323.606958 97.313063 
L 323.866734 97.30021 
L 324.12651 97.245789 
L 324.386285 97.28541 
L 325.555275 97.180139 
L 326.074827 97.269939 
L 326.46449 97.12901 
L 326.724266 97.087968 
L 327.763368 96.912782 
L 328.607639 96.797133 
L 328.997302 96.799722 
L 330.036404 96.664513 
L 330.361124 96.655715 
L 330.685843 96.653583 
L 331.010563 96.681861 
L 332.374385 96.660046 
L 335.231916 96.862747 
L 335.751467 96.752778 
L 336.076187 96.832889 
L 337.115289 96.737051 
L 337.504953 96.844482 
L 337.764728 96.825179 
L 338.219336 96.742731 
L 339.063606 96.937643 
L 339.323382 96.882905 
L 342.180913 97.021948 
L 342.375745 97.037954 
L 342.700464 97.119069 
L 343.025184 97.15803 
L 343.479791 97.204289 
L 343.934399 97.309125 
L 344.45395 97.378829 
L 344.713725 97.362578 
L 345.233276 97.318018 
L 345.493052 97.338932 
L 347.636201 97.45656 
L 348.220696 97.495752 
L 348.610359 97.489933 
L 348.870135 97.503713 
L 349.259798 97.498631 
L 349.45463 97.506428 
L 353.026544 97.634073 
L 353.28632 97.670783 
L 354.325422 97.571 
L 354.844973 97.672812 
L 355.299581 97.688084 
L 355.6243 97.711437 
L 356.013964 97.793108 
L 358.611719 97.95248 
L 359.066327 97.964963 
L 363.872175 98.096985 
L 364.196895 98.080017 
L 364.846334 98.102196 
L 365.62566 98.045923 
L 365.95038 97.99647 
L 368.223416 97.865786 
L 368.678024 97.805487 
L 370.431509 97.637472 
L 370.691284 97.596778 
L 370.95106 97.520704 
L 371.405667 97.381735 
L 372.184994 97.459018 
L 372.44477 97.458101 
L 372.639601 97.438526 
L 372.834433 97.431049 
L 373.029265 97.37628 
L 373.224096 97.334724 
L 374.912638 97.387348 
L 375.172413 97.416963 
L 375.432189 97.351051 
L 376.27646 97.435969 
L 376.601179 97.507703 
L 377.12073 97.664206 
L 377.380506 97.645935 
L 377.575338 97.665762 
L 377.770169 97.644138 
L 378.419608 97.799524 
L 380.562757 98.058119 
L 381.017364 98.077695 
L 381.666803 98.150679 
L 381.991523 98.162741 
L 382.316242 98.241048 
L 382.835793 98.255711 
L 384.199615 98.348061 
L 384.459391 98.353318 
L 384.978942 98.346437 
L 387.44681 98.555981 
L 392.707266 98.612674 
L 393.031985 98.608443 
L 393.421649 98.66388 
L 395.045246 98.545078 
L 395.629741 98.579669 
L 396.214236 98.504793 
L 396.668844 98.586172 
L 397.188395 98.519958 
L 397.643002 98.543585 
L 397.967722 98.423953 
L 398.292441 98.3339 
L 398.487273 98.222153 
L 398.487273 98.222153 
" clip-path="url(#p348be98c7d)" style="fill: none; stroke-dasharray: 2,3.3; stroke-dashoffset: 0; stroke: #0000ff; stroke-width: 2"/>
   </g>
   <g id="line2d_17">
    <path d="M 73.832727 286.720378 
L 73.897671 295.488 
L 73.962615 287.61321 
L 74.157447 235.045206 
L 74.222391 232.002955 
L 74.417222 201.943083 
L 75.066661 175.219546 
L 75.131605 178.81653 
L 75.196549 177.858905 
L 75.456325 163.446264 
L 75.586213 157.159894 
L 75.651156 158.641202 
L 75.7161 158.632565 
L 76.04082 147.997049 
L 76.105764 148.638809 
L 76.170708 146.321302 
L 76.365539 152.936541 
L 76.560371 148.038084 
L 76.690259 143.736984 
L 76.755203 144.118062 
L 76.820147 143.998933 
L 77.079922 139.295781 
L 77.274754 134.675823 
L 77.534529 130.557208 
L 77.664417 128.989381 
L 77.794305 129.250975 
L 77.859249 129.733664 
L 78.054081 126.542042 
L 78.119025 127.933585 
L 78.183968 125.325579 
L 78.248912 127.313343 
L 78.313856 126.35 
L 78.3788 124.673767 
L 78.443744 125.302236 
L 78.508688 124.910379 
L 78.573632 125.454091 
L 78.638576 125.286014 
L 78.768464 123.982314 
L 78.833407 122.818467 
L 78.963295 125.40711 
L 79.028239 125.197943 
L 79.223071 122.590937 
L 79.352959 119.226088 
L 79.417902 119.491606 
L 79.54779 121.766088 
L 79.612734 119.902247 
L 79.677678 120.876217 
L 79.87251 122.923204 
L 80.197229 118.744342 
L 80.262173 116.786239 
L 80.327117 116.969806 
L 80.392061 116.966774 
L 80.521949 118.855007 
L 80.71678 115.763693 
L 80.846668 116.995083 
L 80.911612 115.536244 
L 80.976556 115.877999 
L 81.431163 112.174795 
L 81.496107 113.028221 
L 81.561051 112.900634 
L 81.625995 113.048274 
L 81.690939 112.597079 
L 81.820827 113.557769 
L 81.885771 113.028922 
L 81.950715 113.100881 
L 82.015658 113.792595 
L 82.080602 113.701829 
L 82.145546 112.847315 
L 82.21049 113.185855 
L 82.405322 111.600795 
L 82.470266 112.006895 
L 82.665097 113.405037 
L 82.730041 113.29412 
L 82.794985 112.131319 
L 82.924873 114.129026 
L 83.054761 113.200649 
L 83.119705 113.21835 
L 83.184649 113.715045 
L 83.249592 113.374591 
L 83.314536 113.539147 
L 83.509368 114.305794 
L 83.963975 110.356727 
L 84.028919 110.537478 
L 84.093863 109.557229 
L 84.158807 109.790097 
L 84.288695 110.88287 
L 84.483527 111.990867 
L 84.54847 111.746369 
L 84.613414 111.811864 
L 84.678358 112.338207 
L 84.743302 112.019055 
L 85.068022 109.250802 
L 85.197909 110.2547 
L 85.262853 109.907272 
L 85.327797 109.938383 
L 85.392741 108.903895 
L 85.457685 109.094357 
L 85.587573 108.318772 
L 85.652517 108.746518 
L 85.717461 109.140252 
L 85.977236 107.735419 
L 86.04218 107.773339 
L 86.107124 107.581868 
L 86.237012 108.513052 
L 86.431843 107.238157 
L 86.496787 107.191196 
L 86.561731 106.960715 
L 86.626675 107.118657 
L 86.691619 107.019005 
L 86.886451 108.686932 
L 86.951395 107.174619 
L 87.016339 107.363739 
L 87.21117 108.176146 
L 87.406002 106.705876 
L 87.470946 106.644435 
L 87.53589 106.724014 
L 87.665778 106.042817 
L 87.730721 106.454719 
L 87.795665 106.212639 
L 87.860609 106.381915 
L 87.925553 105.837798 
L 87.990497 105.876213 
L 88.185329 107.060856 
L 88.250273 107.080365 
L 88.315216 107.620815 
L 88.639936 105.603596 
L 88.834768 105.768193 
L 88.899712 105.246439 
L 88.964655 105.436731 
L 89.289375 103.475008 
L 89.354319 103.863552 
L 89.484207 104.185311 
L 89.614094 105.377786 
L 89.679038 105.231719 
L 89.808926 105.061653 
L 89.87387 105.604492 
L 89.938814 105.246363 
L 90.068702 104.491558 
L 90.393421 106.466134 
L 90.523309 105.631324 
L 90.653197 105.20131 
L 90.848029 104.474755 
L 90.912972 104.553704 
L 91.04286 105.255545 
L 91.107804 104.459826 
L 91.172748 104.598209 
L 91.302636 104.682647 
L 91.36758 104.276645 
L 91.497467 102.097028 
L 91.562411 102.380737 
L 91.692299 101.844992 
L 91.822187 102.499684 
L 91.887131 102.349213 
L 91.952075 102.370251 
L 92.017019 102.606077 
L 92.081963 102.456239 
L 92.146906 101.985505 
L 92.21185 102.276925 
L 92.341738 102.167535 
L 92.406682 102.403592 
L 92.471626 102.323357 
L 92.53657 102.394353 
L 92.666458 101.060557 
L 92.861289 101.626001 
L 92.926233 101.646107 
L 92.991177 100.789237 
L 93.056121 101.180384 
L 93.186009 101.175768 
L 93.315897 101.87724 
L 93.445784 101.221055 
L 93.575672 101.760641 
L 93.640616 101.757516 
L 93.770504 102.072632 
L 93.900392 101.717369 
L 93.965336 101.815555 
L 94.095223 100.549226 
L 94.160167 100.618784 
L 94.225111 100.632409 
L 94.290055 100.465226 
L 94.354999 100.553044 
L 94.419943 100.561474 
L 94.549831 99.466853 
L 94.614775 99.770504 
L 94.679718 99.670867 
L 94.939494 100.368387 
L 95.069382 100.816332 
L 95.459045 99.537758 
L 95.523989 99.71937 
L 95.588933 99.561055 
L 95.718821 99.711553 
L 95.913653 98.735215 
L 96.04354 98.93924 
L 96.238372 97.760202 
L 96.303316 97.723254 
L 96.36826 97.945941 
L 96.498148 97.664613 
L 96.563092 97.766648 
L 96.692979 97.480094 
L 96.822867 97.754767 
L 97.017699 97.27043 
L 97.212531 96.404691 
L 97.277474 96.69369 
L 97.342418 96.469767 
L 97.407362 96.598057 
L 97.53725 96.92958 
L 97.732082 96.933026 
L 97.991857 97.60034 
L 98.056801 97.325601 
L 98.121745 97.459292 
L 98.251633 97.782206 
L 98.316577 98.28 
L 98.381521 98.058783 
L 98.446465 97.983925 
L 98.511408 98.11283 
L 98.641296 97.955422 
L 98.70624 98.305634 
L 98.771184 97.89042 
L 98.836128 97.919129 
L 98.901072 98.436175 
L 98.966016 98.228647 
L 99.225791 98.819519 
L 99.355679 98.471272 
L 99.550511 99.256136 
L 99.745343 99.86004 
L 99.87523 100.052572 
L 100.070062 99.522019 
L 100.329838 100.404554 
L 100.459725 100.271483 
L 100.524669 100.211626 
L 100.589613 99.679323 
L 100.654557 99.754614 
L 100.719501 100.114778 
L 100.849389 98.95367 
L 100.914333 99.178221 
L 100.979277 99.359931 
L 101.04422 99.157331 
L 101.239052 99.458818 
L 101.36894 99.158921 
L 101.433884 99.438359 
L 101.498828 99.33686 
L 101.563772 99.00718 
L 101.628716 99.083339 
L 101.758603 99.252551 
L 101.823547 99.10637 
L 101.888491 99.207829 
L 101.953435 99.368379 
L 102.148267 98.980257 
L 102.213211 99.224124 
L 102.278155 98.730067 
L 102.343098 98.850401 
L 102.408042 99.039206 
L 102.472986 98.739766 
L 102.53793 98.954324 
L 102.797706 99.436644 
L 103.187369 98.138766 
L 103.252313 98.427814 
L 103.382201 98.07193 
L 103.70692 98.315104 
L 103.771864 98.248392 
L 103.966696 97.577586 
L 104.226471 98.404291 
L 104.421303 97.831671 
L 104.486247 98.142858 
L 104.551191 97.952413 
L 104.681079 98.017847 
L 104.746023 97.865155 
L 104.810967 98.073484 
L 104.87591 97.949752 
L 104.940854 97.931153 
L 105.20063 97.333899 
L 105.330518 97.481598 
L 105.720181 95.824697 
L 105.850069 96.079303 
L 105.915013 96.029609 
L 105.979957 95.910025 
L 106.044901 95.995969 
L 106.109845 95.429121 
L 106.174788 95.526969 
L 106.36962 95.154751 
L 106.434564 94.38422 
L 106.499508 94.564703 
L 106.564452 94.580956 
L 106.759283 93.522434 
L 106.824227 93.586881 
L 106.889171 93.516933 
L 107.148947 92.846055 
L 107.53861 92.469117 
L 107.603554 92.654798 
L 107.733442 92.313355 
L 107.798386 92.353411 
L 107.993218 92.696524 
L 108.058161 92.341673 
L 108.123105 92.450296 
L 108.188049 92.465266 
L 108.252993 92.364759 
L 108.317937 92.507231 
L 108.512769 91.534025 
L 108.577713 91.313711 
L 108.7076 91.584697 
L 108.967376 90.377092 
L 109.03232 90.464385 
L 109.162208 90.079308 
L 109.357039 89.083633 
L 109.421983 89.068448 
L 109.486927 88.914178 
L 109.616815 89.456154 
L 109.811647 88.562286 
L 109.876591 88.449173 
L 109.941534 88.659235 
L 110.20131 87.751461 
L 110.396142 87.994918 
L 110.52603 87.680679 
L 110.590973 87.748602 
L 110.655917 87.45481 
L 110.720861 87.546842 
L 110.785805 87.754037 
L 111.110525 86.949073 
L 111.240412 86.986549 
L 111.305356 87.14719 
L 111.3703 87.118887 
L 111.435244 87.165336 
L 111.500188 86.7534 
L 111.565132 86.925731 
L 111.759964 87.144061 
L 111.954795 86.421666 
L 112.084683 86.556431 
L 112.53929 85.390463 
L 112.604234 85.67157 
L 112.669178 85.594041 
L 112.799066 85.617527 
L 112.86401 85.288971 
L 112.928954 85.52313 
L 113.058842 85.971917 
L 113.318617 85.245715 
L 113.383561 85.307377 
L 114.033 84.270367 
L 114.097944 84.310142 
L 114.292776 83.774587 
L 114.487607 84.219858 
L 114.682439 84.311416 
L 114.812327 84.096417 
L 114.942215 84.302409 
L 115.137046 83.610585 
L 115.20199 83.552204 
L 115.331878 82.984084 
L 115.461766 83.194461 
L 115.786485 84.176505 
L 115.851429 83.70151 
L 115.916373 83.829266 
L 116.046261 83.967305 
L 116.111205 83.867346 
L 116.176149 83.719494 
L 116.241093 83.846084 
L 116.306036 83.825471 
L 116.435924 83.294666 
L 116.500868 83.460535 
L 116.565812 83.430489 
L 116.6957 83.174578 
L 116.760644 83.207834 
L 116.955475 82.61783 
L 117.020419 82.688818 
L 117.215251 83.065739 
L 117.280195 82.920884 
L 117.669858 82.451781 
L 117.734802 82.649685 
L 117.994578 82.048085 
L 118.254353 81.905415 
L 118.319297 81.640052 
L 118.384241 81.672271 
L 118.514129 81.737158 
L 118.579073 81.977901 
L 118.644017 81.915835 
L 118.708961 81.67209 
L 118.773905 81.720813 
L 118.838848 81.642544 
L 118.903792 81.739484 
L 119.163568 81.138651 
L 119.228512 81.177909 
L 119.423344 80.749448 
L 119.488287 80.77854 
L 119.553231 80.675354 
L 119.618175 80.728528 
L 119.813007 80.683437 
L 119.942895 80.810319 
L 120.007839 80.728822 
L 120.20267 81.301729 
L 120.332558 80.728042 
L 120.397502 80.875003 
L 120.462446 80.932122 
L 120.787165 80.004139 
L 120.852109 79.889856 
L 121.046941 80.137893 
L 121.111885 80.149779 
L 121.176829 80.347756 
L 121.241773 80.264725 
L 121.306717 80.173377 
L 121.371661 80.398168 
L 121.566492 79.998866 
L 121.69638 80.375087 
L 121.761324 80.245177 
L 121.826268 79.998341 
L 121.891212 80.034183 
L 122.021099 80.189503 
L 122.280875 80.66212 
L 122.540651 80.170028 
L 122.605595 80.296412 
L 122.735482 79.778102 
L 122.86537 79.948264 
L 122.995258 80.056027 
L 123.060202 80.002839 
L 123.19009 80.139757 
L 123.255034 80.14377 
L 123.319977 79.803647 
L 123.384921 79.903882 
L 123.514809 79.543747 
L 123.644697 79.693775 
L 123.709641 79.731193 
L 123.839529 79.452771 
L 123.904473 79.71567 
L 123.969416 79.657778 
L 124.099304 79.553319 
L 124.35908 79.681206 
L 124.878631 79.005246 
L 125.138407 79.216095 
L 125.268294 78.984703 
L 125.333238 79.029433 
L 125.398182 78.706222 
L 125.463126 78.733745 
L 125.52807 78.662416 
L 125.657958 78.789196 
L 126.177509 78.172356 
L 126.307397 78.214238 
L 126.372341 78.346385 
L 126.567172 77.666274 
L 126.632116 77.719235 
L 126.69706 77.659411 
L 126.762004 77.815779 
L 126.826948 77.311152 
L 126.891892 77.344006 
L 127.151667 77.0971 
L 127.216611 77.299212 
L 127.281555 77.134269 
L 127.346499 77.24051 
L 127.801106 77.43403 
L 127.86605 77.235671 
L 127.995938 77.49333 
L 128.125826 77.236459 
L 128.255714 77.40991 
L 128.385601 77.117892 
L 128.450545 77.321819 
L 128.710321 76.806832 
L 128.775265 76.795126 
L 128.905153 76.43138 
L 128.970097 76.627524 
L 129.099984 76.389521 
L 129.229872 76.467497 
L 129.294816 76.3679 
L 129.424704 76.640031 
L 129.489648 76.606443 
L 129.749423 76.332934 
L 129.814367 76.44978 
L 130.009199 76.611862 
L 130.204031 76.305218 
L 130.463806 76.536582 
L 130.52875 76.519197 
L 130.723582 76.112264 
L 131.048301 76.494987 
L 131.113245 76.636343 
L 131.373021 75.969026 
L 131.502909 75.935072 
L 131.69774 76.318774 
L 131.762684 76.252552 
L 131.957516 75.442822 
L 132.087404 75.50843 
L 132.282235 74.890422 
L 132.347179 74.97364 
L 132.86673 74.384841 
L 133.126506 74.420131 
L 133.321338 74.419048 
L 133.386282 74.319443 
L 133.451226 74.462776 
L 133.646057 74.063608 
L 133.711001 74.1601 
L 133.775945 73.944544 
L 133.840889 73.985697 
L 133.905833 73.952804 
L 134.035721 73.654925 
L 134.230552 73.971398 
L 134.295496 73.916223 
L 134.36044 73.977645 
L 134.425384 73.619743 
L 134.490328 73.645534 
L 134.620216 73.481491 
L 134.68516 73.549993 
L 134.944935 73.6198 
L 135.009879 73.512767 
L 135.269655 73.813429 
L 135.334599 73.571104 
L 135.399542 73.690707 
L 135.52943 73.773633 
L 135.789206 74.233977 
L 136.243813 73.095935 
L 136.308757 73.171994 
L 136.373701 73.081515 
L 136.633477 72.829407 
L 136.763364 72.907935 
L 137.412803 71.924675 
L 137.477747 72.045691 
L 137.607635 71.811006 
L 137.867411 71.876384 
L 137.997298 71.711149 
L 138.127186 72.074301 
L 138.257074 71.778121 
L 138.322018 71.84518 
L 138.386962 71.988156 
L 138.451906 71.920622 
L 138.646737 71.867069 
L 139.036401 71.58182 
L 139.296176 71.958729 
L 139.426064 71.809683 
L 139.555952 71.718676 
L 139.750784 71.309517 
L 139.880671 71.280192 
L 139.945615 71.191209 
L 140.010559 71.372989 
L 140.140447 71.077422 
L 140.205391 71.122231 
L 140.270335 71.114749 
L 140.400223 70.724144 
L 140.465166 70.755252 
L 140.659998 71.043795 
L 140.789886 70.849287 
L 140.984718 70.903358 
L 141.049662 70.758677 
L 141.114605 70.865403 
L 141.179549 70.780705 
L 141.244493 70.840023 
L 141.309437 70.968273 
L 141.958876 69.832636 
L 142.02382 69.803583 
L 142.218652 69.368626 
L 142.478427 69.654159 
L 142.543371 69.463491 
L 142.608315 69.111427 
L 142.673259 69.172883 
L 142.803147 69.350137 
L 142.997979 69.018892 
L 143.062922 69.058515 
L 143.257754 68.782598 
L 143.322698 68.738258 
L 143.387642 68.838553 
L 143.452586 68.79067 
L 143.582474 68.703973 
L 143.712361 68.893892 
L 143.777305 68.814651 
L 144.102025 68.901668 
L 144.491688 68.519802 
L 144.816408 68.175662 
L 144.946295 68.41619 
L 145.141127 68.01852 
L 145.595734 68.121421 
L 145.790566 67.983873 
L 145.85551 68.095113 
L 145.985398 67.920325 
L 146.115286 68.046499 
L 146.18023 67.932948 
L 146.245173 68.012112 
L 146.310117 67.958715 
L 146.375061 68.061442 
L 146.440005 67.953596 
L 146.504949 68.020741 
L 146.569893 68.034604 
L 146.634837 68.182215 
L 146.699781 68.122169 
L 146.764725 68.045904 
L 146.959556 68.360295 
L 147.089444 68.137427 
L 147.284276 68.230707 
L 147.608995 68.093641 
L 147.933715 67.438942 
L 148.063603 67.354941 
L 148.19349 67.429874 
L 148.323378 67.359384 
L 148.972817 66.951087 
L 149.037761 67.097246 
L 149.102705 67.012105 
L 149.36248 67.084038 
L 149.557312 66.868087 
L 149.752144 66.863423 
L 149.946976 66.662705 
L 150.141807 66.635333 
L 150.466527 66.384367 
L 150.531471 66.51782 
L 150.726302 66.090899 
L 150.85619 66.103101 
L 150.921134 66.114081 
L 151.115966 65.801343 
L 151.310797 65.704795 
L 151.375741 65.800433 
L 151.570573 65.531134 
L 151.700461 65.581088 
L 152.090124 64.942604 
L 152.220012 65.135433 
L 152.3499 65.211536 
L 152.609675 65.187555 
L 152.674619 65.008749 
L 152.739563 65.070204 
L 152.869451 65.238794 
L 153.19417 64.930781 
L 153.259114 64.937828 
L 153.324058 64.689372 
L 153.389002 64.798424 
L 153.453946 64.883932 
L 153.51889 64.786343 
L 153.648778 64.403383 
L 153.778666 64.52591 
L 154.233273 64.142421 
L 154.298217 64.234478 
L 154.428105 64.448108 
L 154.493048 64.365107 
L 154.882712 64.342258 
L 155.142487 64.176637 
L 155.272375 64.219475 
L 155.467207 64.28333 
L 155.532151 64.157401 
L 155.597095 64.260531 
L 155.726982 64.422907 
L 155.791926 64.259446 
L 155.85687 64.333836 
L 155.921814 64.354441 
L 156.116646 64.133134 
L 156.311478 64.189082 
L 156.441365 64.152782 
L 156.571253 64.295134 
L 156.636197 64.196308 
L 156.831029 64.417985 
L 157.285636 64.052347 
L 157.415524 64.054312 
L 157.740243 64.48999 
L 157.870131 64.324349 
L 157.935075 64.339144 
L 158.064963 64.258346 
L 158.194851 64.380956 
L 158.324738 64.54693 
L 158.389682 64.440796 
L 158.714402 64.345469 
L 158.84429 64.419402 
L 159.169009 63.970296 
L 159.298897 64.025297 
L 159.428785 63.830575 
L 159.623616 64.030988 
L 159.68856 64.002833 
L 159.883392 64.170412 
L 160.143168 64.092312 
L 160.273055 64.208382 
L 160.467887 64.06935 
L 160.597775 64.046828 
L 161.701821 63.705811 
L 161.961597 63.052276 
L 162.156428 63.237812 
L 162.416204 63.208778 
L 162.481148 63.253761 
L 162.67598 63.025846 
L 163.000699 62.882892 
L 163.130587 62.90541 
L 163.195531 62.849416 
L 163.390362 62.995006 
L 163.780026 63.037344 
L 163.909914 63.061616 
L 164.104745 62.892491 
L 164.299577 62.953073 
L 164.494409 62.68999 
L 165.01396 62.891935 
L 165.208792 62.712846 
L 165.338679 62.772927 
L 165.468567 62.776782 
L 165.728343 63.008958 
L 165.793287 62.929448 
L 166.053062 63.124995 
L 166.247894 63.122715 
L 166.377782 62.993885 
L 166.572613 63.110454 
L 167.092165 63.348328 
L 167.157109 63.286966 
L 167.416884 63.559751 
L 167.871491 63.468485 
L 168.001379 63.539347 
L 168.131267 63.342223 
L 168.391043 63.441676 
L 168.715762 63.759153 
L 168.910594 63.7715 
L 169.040482 63.816967 
L 169.105425 63.802393 
L 169.170369 63.910247 
L 169.235313 63.790406 
L 169.300257 63.868523 
L 169.430145 63.815805 
L 169.560033 63.68163 
L 169.624977 63.819754 
L 169.689921 63.714073 
L 170.01464 63.544523 
L 170.209472 63.682576 
L 170.274416 63.699428 
L 170.469247 63.507191 
L 170.534191 63.464016 
L 170.729023 63.681897 
L 170.858911 63.633803 
L 171.053742 63.805123 
L 171.313518 63.506851 
L 171.833069 63.939072 
L 171.962957 63.865884 
L 172.35262 63.754512 
L 172.547452 63.470777 
L 172.937115 63.316189 
L 173.002059 63.095559 
L 173.067003 63.115756 
L 173.456667 63.242292 
L 173.651498 63.091232 
L 173.84633 63.203365 
L 174.041162 63.06246 
L 174.625657 63.010486 
L 174.820488 63.153106 
L 175.080264 63.203352 
L 175.210152 63.297499 
L 175.275096 63.178753 
L 175.34004 63.223193 
L 175.404984 63.208838 
L 175.534871 63.020475 
L 175.599815 63.004276 
L 175.794647 63.282702 
L 175.924535 63.059091 
L 175.989479 63.110804 
L 176.119366 63.058252 
L 176.314198 63.048247 
L 176.638918 62.948846 
L 176.833749 63.064908 
L 176.963637 63.057139 
L 177.158469 63.014044 
L 177.223413 63.137968 
L 177.288357 63.072527 
L 177.418244 63.133577 
L 177.872852 63.160374 
L 178.132627 62.97372 
L 178.457347 62.773014 
L 178.911954 62.606989 
L 178.976898 62.700241 
L 179.236674 62.471078 
L 179.626337 62.557972 
L 180.016 62.378871 
L 180.275776 62.474247 
L 180.470608 62.338339 
L 180.535551 62.447894 
L 180.665439 62.229324 
L 180.990159 62.437042 
L 181.120047 62.406758 
L 181.314878 62.116639 
L 181.704542 62.292165 
L 181.899373 62.301082 
L 182.029261 62.072998 
L 182.094205 62.199019 
L 182.159149 62.134719 
L 182.418925 62.169556 
L 182.613756 62.283169 
L 182.938476 62.168784 
L 183.133307 62.073895 
L 183.263195 62.10506 
L 183.393083 62.243989 
L 183.587915 62.129825 
L 183.717802 62.171072 
L 183.782746 62.254388 
L 183.84769 62.198164 
L 183.977578 62.184186 
L 184.562073 62.495944 
L 184.691961 62.469429 
L 184.821849 62.620068 
L 184.951737 62.480278 
L 185.146568 62.492629 
L 185.211512 62.316272 
L 185.276456 62.389679 
L 185.406344 62.51908 
L 185.666119 62.171689 
L 185.860951 62.037247 
L 186.055783 61.844798 
L 186.120727 61.883455 
L 186.315558 61.717715 
L 186.445446 61.613929 
L 186.770166 61.275631 
L 186.964997 61.140101 
L 187.159829 61.105124 
L 187.354661 61.123604 
L 187.419605 61.231455 
L 187.484549 61.113592 
L 187.549492 61.21861 
L 187.67938 61.233468 
L 187.939156 61.35089 
L 188.393763 61.051118 
L 188.523651 61.044591 
L 188.913314 60.57801 
L 189.497809 60.447085 
L 189.692641 60.512687 
L 190.082304 60.58331 
L 190.277136 60.271162 
L 190.536912 60.368381 
L 190.731743 60.503277 
L 190.991519 60.283303 
L 191.251295 60.3888 
L 191.381182 60.385075 
L 191.51107 60.261531 
L 191.705902 60.289878 
L 191.83579 60.333358 
L 192.160509 60.190412 
L 192.745004 60.111306 
L 192.939836 59.99826 
L 193.069724 60.171392 
L 193.459387 60.08217 
L 193.589275 60.06965 
L 193.654219 59.989082 
L 193.719163 60.071432 
L 194.17377 59.951251 
L 194.49849 60.077844 
L 195.018041 59.947047 
L 195.927255 60.013411 
L 195.992199 60.082355 
L 196.057143 59.918713 
L 196.122087 59.974084 
L 196.381863 60.019618 
L 196.641638 60.201959 
L 196.706582 60.255957 
L 196.771526 60.171518 
L 196.83647 60.080866 
L 196.901414 60.148313 
L 197.031302 60.128136 
L 197.096245 60.076476 
L 197.161189 60.170033 
L 197.226133 60.115092 
L 197.356021 59.914966 
L 197.420965 60.009904 
L 197.875572 60.082195 
L 198.070404 60.181425 
L 198.200292 60.129339 
L 198.265236 60.237103 
L 198.330179 60.194851 
L 198.460067 60.140165 
L 198.654899 60.147191 
L 198.979618 60.219826 
L 199.888833 60.478727 
L 200.148609 60.434509 
L 200.408384 60.552182 
L 200.798048 60.642169 
L 201.122767 60.709278 
L 201.317599 60.84588 
L 201.772206 60.784929 
L 201.967038 60.840678 
L 202.486589 60.634837 
L 202.876252 60.807069 
L 203.00614 60.77541 
L 203.136028 60.818388 
L 204.045243 60.627013 
L 204.240074 60.721952 
L 204.49985 60.71375 
L 204.824569 60.673486 
L 205.084345 60.514335 
L 205.279177 60.60814 
L 206.253335 60.474185 
L 206.318279 60.513082 
L 206.448167 60.371858 
L 206.578055 60.477278 
L 206.642998 60.362683 
L 206.707942 60.412241 
L 206.967718 60.425357 
L 207.292437 60.501026 
L 207.552213 60.434933 
L 207.617157 60.474072 
L 207.747045 60.328088 
L 207.876932 60.380018 
L 208.136708 60.112711 
L 208.461428 60.009274 
L 208.591315 59.987867 
L 208.786147 60.119589 
L 209.50053 59.993358 
L 210.474688 60.39999 
L 210.604576 60.296097 
L 210.99424 60.500378 
L 211.059183 60.41951 
L 211.124127 60.50182 
L 211.254015 60.597095 
L 211.383903 60.452653 
L 211.708622 60.49901 
L 211.903454 60.346729 
L 212.293118 60.412425 
L 212.487949 60.43771 
L 212.682781 60.537566 
L 212.877613 60.597223 
L 212.942557 60.442364 
L 213.0075 60.496149 
L 213.397164 60.321961 
L 213.527052 60.235859 
L 213.656939 60.246477 
L 214.046603 60.17866 
L 214.371322 60.254454 
L 214.50121 60.24689 
L 214.760986 60.245718 
L 214.955817 60.322384 
L 215.605256 60.362123 
L 216.774246 59.825439 
L 217.748405 59.782762 
L 218.138068 59.827478 
L 218.397844 59.910567 
L 219.242115 59.588004 
L 219.82661 59.720872 
L 219.891554 59.542079 
L 219.956497 59.567693 
L 220.216273 59.640616 
L 220.411105 59.78113 
L 220.67088 59.687275 
L 221.060544 59.570438 
L 221.255375 59.458684 
L 221.580095 59.53444 
L 221.774927 59.449673 
L 222.878973 59.479144 
L 223.268636 59.311594 
L 224.957178 59.551189 
L 225.281897 59.620619 
L 225.541673 59.374421 
L 225.67156 59.38959 
L 225.866392 59.244327 
L 226.061224 59.331473 
L 227.295158 59.267467 
L 227.425046 59.227274 
L 227.684821 59.3684 
L 228.009541 59.148631 
L 228.464148 58.942068 
L 228.65898 58.955068 
L 228.788868 58.916824 
L 228.918755 58.881492 
L 230.99696 58.888144 
L 231.32168 58.661624 
L 231.646399 58.552449 
L 232.555614 58.257504 
L 232.945277 58.359319 
L 233.269997 58.443914 
L 233.529772 58.470892 
L 234.309099 58.64028 
L 234.503931 58.648217 
L 234.633818 58.496574 
L 234.698762 58.544049 
L 234.958538 58.601644 
L 235.15337 58.65554 
L 235.348201 58.672142 
L 235.737865 58.500026 
L 237.361462 58.688611 
L 237.556294 58.751051 
L 238.075845 58.565671 
L 238.530452 58.747155 
L 238.66034 58.721367 
L 238.855172 58.8036 
L 239.050003 58.748235 
L 240.15405 58.426224 
L 240.348881 58.462005 
L 240.803489 58.428735 
L 240.933376 58.411694 
L 241.258096 58.336416 
L 241.517872 58.209209 
L 241.907535 58.260109 
L 242.362142 58.350571 
L 242.49203 58.216984 
L 242.621918 58.038206 
L 242.686862 58.081641 
L 242.751806 58.095982 
L 242.946637 57.977697 
L 243.206413 58.041773 
L 243.531132 57.981083 
L 243.725964 57.999437 
L 243.855852 57.947324 
L 244.310459 58.004938 
L 244.505291 57.986293 
L 244.83001 58.010967 
L 245.739225 57.901353 
L 245.869113 57.80509 
L 245.999001 57.827468 
L 248.207093 57.8138 
L 248.401925 57.833186 
L 248.596756 57.727657 
L 249.181252 57.677714 
L 249.441027 57.570724 
L 249.635859 57.555819 
L 249.895634 57.525123 
L 250.480129 57.440045 
L 250.934737 57.334537 
L 251.194512 57.054826 
L 252.81811 56.931146 
L 252.947998 56.967961 
L 253.597437 56.848591 
L 253.727324 56.858142 
L 253.857212 56.852354 
L 254.246876 56.953054 
L 254.636539 56.986988 
L 254.766427 57.010302 
L 254.961258 56.959744 
L 255.091146 56.918126 
L 255.285978 56.899573 
L 255.610697 56.972271 
L 255.870473 56.939995 
L 256.195192 57.009779 
L 256.454968 56.852122 
L 257.169351 56.74689 
L 257.364183 56.817108 
L 258.598117 57.011983 
L 258.663061 57.061404 
L 258.792948 56.99293 
L 260.546434 57.021093 
L 260.871153 57.113346 
L 261.455648 57.205789 
L 263.793629 57.818174 
L 263.923516 57.758655 
L 263.98846 57.783606 
L 264.183292 57.614511 
L 264.443068 57.621919 
L 265.092507 57.706352 
L 265.352282 57.786654 
L 266.521272 57.841689 
L 266.716104 57.865429 
L 267.040823 58.003277 
L 267.300599 58.023681 
L 267.560375 57.815962 
L 267.82015 57.81667 
L 268.14487 57.772568 
L 268.404645 57.949812 
L 268.534533 57.945872 
L 268.924196 57.902968 
L 269.119028 57.874112 
L 270.547794 57.901959 
L 270.677682 57.787119 
L 271.132289 57.876846 
L 271.327121 57.821803 
L 271.716784 57.739148 
L 271.911616 57.722005 
L 272.236335 57.658058 
L 272.82083 57.743879 
L 272.950718 57.679817 
L 273.210494 57.698238 
L 273.535213 57.609911 
L 274.963979 57.393363 
L 275.093867 57.410467 
L 275.223755 57.357165 
L 275.353642 57.373613 
L 275.613418 57.1967 
L 276.262857 57.209015 
L 276.457689 57.162239 
L 276.587576 57.107978 
L 276.912296 56.981134 
L 277.042184 56.993233 
L 277.431847 57.002038 
L 277.756567 57.057767 
L 277.951398 57.005424 
L 278.081286 57.029065 
L 278.276118 57.08032 
L 278.406006 57.083674 
L 278.600837 56.969544 
L 278.925557 56.903447 
L 279.445108 56.709147 
L 279.574996 56.687586 
L 279.899715 56.7588 
L 280.029603 56.659166 
L 280.224435 56.669979 
L 280.549154 56.493861 
L 280.873874 56.611487 
L 281.068705 56.632156 
L 282.692303 56.639938 
L 282.757247 56.687763 
L 282.952078 56.577676 
L 283.14691 56.593624 
L 284.965339 56.581454 
L 285.095227 56.591019 
L 285.614778 56.452812 
L 285.80961 56.451311 
L 286.134329 56.49479 
L 286.394105 56.548398 
L 286.523993 56.573915 
L 286.653881 56.541085 
L 287.043544 56.416327 
L 287.238376 56.505677 
L 287.433207 56.353439 
L 287.952759 56.134382 
L 288.277478 56.059254 
L 288.407366 56.03064 
L 288.537254 56.067004 
L 288.732085 56.0452 
L 288.991861 56.158077 
L 289.381524 55.977377 
L 289.576356 55.983737 
L 290.225795 55.904506 
L 290.355683 55.842157 
L 290.680402 55.860525 
L 291.524673 55.999216 
L 291.914336 56.162629 
L 292.304 56.198491 
L 295.096587 56.636888 
L 295.291419 56.505073 
L 295.551195 56.526031 
L 295.81097 56.564106 
L 296.655241 56.632682 
L 296.850073 56.689194 
L 297.434568 56.81624 
L 297.629399 56.629663 
L 297.824231 56.709356 
L 298.019063 56.654427 
L 298.213894 56.65032 
L 298.47367 56.622742 
L 298.668502 56.478209 
L 299.123109 56.327742 
L 299.188053 56.385826 
L 299.382885 56.239125 
L 299.772548 56.138419 
L 299.96738 56.161263 
L 300.162211 56.158792 
L 301.071426 56.136844 
L 301.266258 56.165166 
L 301.461089 56.1436 
L 301.785809 56.092439 
L 301.915697 56.062674 
L 302.110528 55.97728 
L 302.435248 56.139743 
L 302.630079 56.127804 
L 303.214575 56.103482 
L 303.47435 56.097096 
L 303.669182 56.038804 
L 303.993901 56.005525 
L 304.318621 55.862282 
L 304.513453 55.836262 
L 304.838172 55.913086 
L 304.96806 55.817528 
L 305.227835 55.863499 
L 305.552555 55.599989 
L 305.747387 55.571943 
L 305.942218 55.632805 
L 306.072106 55.548875 
L 306.201994 55.568474 
L 306.461769 55.440942 
L 307.565816 55.205073 
L 308.280199 55.172395 
L 308.47503 55.160117 
L 308.734806 55.221231 
L 309.708964 55.424242 
L 309.903796 55.352787 
L 310.098628 55.307471 
L 310.683123 55.179832 
L 312.63144 55.278415 
L 313.086047 55.408419 
L 313.280879 55.397452 
L 313.47571 55.394627 
L 313.605598 55.408589 
L 313.80043 55.431782 
L 314.125149 55.498895 
L 314.384925 55.551346 
L 314.579757 55.508966 
L 315.034364 55.651647 
L 315.748747 55.510893 
L 316.073466 55.597842 
L 317.047625 55.498836 
L 318.930998 55.282216 
L 319.190773 55.14984 
L 319.840212 55.311972 
L 320.164932 55.076358 
L 320.489651 55.076383 
L 320.749427 55.072754 
L 321.268978 55.224523 
L 321.528754 55.049688 
L 321.658642 55.030399 
L 321.853473 55.004242 
L 322.373024 55.175479 
L 322.567856 55.136937 
L 323.347183 55.074051 
L 323.671902 55.124136 
L 323.866734 55.081735 
L 324.386285 55.09378 
L 325.750107 54.934318 
L 326.009883 54.957421 
L 326.204714 55.012862 
L 327.373705 54.726608 
L 327.63348 54.699974 
L 327.828312 54.628124 
L 328.088087 54.612703 
L 329.062246 54.653247 
L 329.386965 54.509153 
L 329.711685 54.432208 
L 330.036404 54.421248 
L 330.29618 54.411564 
L 331.660002 54.125963 
L 332.374385 54.056045 
L 333.283599 54.018997 
L 333.608319 54.03643 
L 333.80315 53.977856 
L 334.062926 53.980303 
L 334.452589 53.919924 
L 334.907197 53.980176 
L 335.166972 53.946588 
L 335.946299 54.116774 
L 336.141131 54.029876 
L 337.050345 53.949873 
L 337.245177 53.97754 
L 337.764728 53.935848 
L 338.738887 53.946239 
L 339.648101 53.91171 
L 339.842933 53.903115 
L 340.167652 53.870892 
L 341.271699 53.629791 
L 341.661362 53.568 
L 342.051025 53.677063 
L 342.375745 53.688718 
L 342.505633 53.675291 
L 342.830352 53.638474 
L 343.025184 53.597998 
L 343.804511 53.749277 
L 343.934399 53.708031 
L 344.259118 53.747339 
L 344.518894 53.739244 
L 344.778669 53.645049 
L 345.103389 53.668655 
L 345.62294 53.807938 
L 345.882715 53.868525 
L 346.272379 53.908835 
L 346.467211 53.909759 
L 346.79193 53.827424 
L 347.11665 53.83064 
L 347.441369 53.878799 
L 347.895976 53.984654 
L 348.090808 53.982901 
L 351.208115 53.945668 
L 351.467891 54.019189 
L 352.11733 53.984394 
L 352.701825 53.967388 
L 353.221376 53.958152 
L 353.675983 53.925462 
L 353.935759 53.94466 
L 354.195534 53.980567 
L 354.45531 53.931673 
L 355.559356 54.151366 
L 355.819132 54.108552 
L 358.741607 54.21219 
L 359.196215 54.247388 
L 360.105429 54.318803 
L 360.9497 54.489437 
L 361.144531 54.423664 
L 361.404307 54.431294 
L 362.183634 54.505299 
L 362.833073 54.571788 
L 363.222736 54.586739 
L 363.937119 54.679161 
L 364.391726 54.54659 
L 364.716446 54.55811 
L 365.041165 54.458245 
L 366.469931 54.450821 
L 367.11937 54.454522 
L 367.379146 54.462054 
L 368.872855 54.342577 
L 369.197575 54.284604 
L 369.45735 54.321593 
L 369.78207 54.271969 
L 369.976902 54.307455 
L 370.496453 54.183589 
L 370.626341 54.219501 
L 370.756228 54.177053 
L 370.886116 54.133596 
L 371.340723 54.018177 
L 371.470611 54.015566 
L 372.574657 53.792402 
L 373.28904 53.892622 
L 373.418928 53.873108 
L 373.808592 53.847025 
L 374.003423 53.826798 
L 374.133311 53.837637 
L 374.393087 53.895271 
L 374.587918 53.896263 
L 374.847694 53.936656 
L 375.107469 53.9117 
L 375.756908 53.971009 
L 376.016684 53.986265 
L 377.185674 54.383518 
L 377.575338 54.377024 
L 378.28972 54.460525 
L 378.484552 54.401927 
L 382.511074 55.007522 
L 382.900737 54.956948 
L 383.680064 54.880012 
L 384.199615 54.832829 
L 384.459391 54.855875 
L 384.978942 54.831549 
L 385.303661 54.853512 
L 386.342764 54.717337 
L 386.797371 54.781309 
L 387.251978 54.714841 
L 387.77153 54.793594 
L 388.226137 54.715866 
L 388.550856 54.770303 
L 389.78479 54.828141 
L 393.031985 55.031058 
L 395.43491 55.001207 
L 395.694685 54.981605 
L 395.954461 54.963644 
L 396.149292 55.002721 
L 396.6039 55.069924 
L 396.863675 55.046922 
L 397.123451 54.998919 
L 398.357385 54.893847 
L 398.487273 54.814989 
L 398.487273 54.814989 
" clip-path="url(#p348be98c7d)" style="fill: none; stroke-dasharray: 2,3.3; stroke-dashoffset: 0; stroke: #ffa500; stroke-width: 2"/>
   </g>
   <g id="patch_3">
    <path d="M 57.6 307.584 
L 57.6 41.472 
" style="fill: none; stroke: #000000; stroke-width: 0.8; stroke-linejoin: miter; stroke-linecap: square"/>
   </g>
   <g id="patch_4">
    <path d="M 414.72 307.584 
L 414.72 41.472 
" style="fill: none; stroke: #000000; stroke-width: 0.8; stroke-linejoin: miter; stroke-linecap: square"/>
   </g>
   <g id="patch_5">
    <path d="M 57.6 307.584 
L 414.72 307.584 
" style="fill: none; stroke: #000000; stroke-width: 0.8; stroke-linejoin: miter; stroke-linecap: square"/>
   </g>
   <g id="patch_6">
    <path d="M 57.6 41.472 
L 414.72 41.472 
" style="fill: none; stroke: #000000; stroke-width: 0.8; stroke-linejoin: miter; stroke-linecap: square"/>
   </g>
   <g id="text_18">
    <!-- Waiting Time Plot -->
    <g transform="translate(183.833438 8.2635)scale(0.12 -0.12)">
     <defs>
      <path id="DejaVuSans-50" d="M 1259 4147 
L 1259 2394 
L 2053 2394 
Q 2494 2394 2734 2622 
Q 2975 2850 2975 3272 
Q 2975 3691 2734 3919 
Q 2494 4147 2053 4147 
L 1259 4147 
z
M 628 4666 
L 2053 4666 
Q 2838 4666 3239 4311 
Q 3641 3956 3641 3272 
Q 3641 2581 3239 2228 
Q 2838 1875 2053 1875 
L 1259 1875 
L 1259 0 
L 628 0 
L 628 4666 
z
" transform="scale(0.015625)"/>
      <path id="DejaVuSans-6c" d="M 603 4863 
L 1178 4863 
L 1178 0 
L 603 0 
L 603 4863 
z
" transform="scale(0.015625)"/>
     </defs>
     <use xlink:href="#DejaVuSans-57"/>
     <use xlink:href="#DejaVuSans-61" x="92.501953"/>
     <use xlink:href="#DejaVuSans-69" x="153.78125"/>
     <use xlink:href="#DejaVuSans-74" x="181.564453"/>
     <use xlink:href="#DejaVuSans-69" x="220.773438"/>
     <use xlink:href="#DejaVuSans-6e" x="248.556641"/>
     <use xlink:href="#DejaVuSans-67" x="311.935547"/>
     <use xlink:href="#DejaVuSans-20" x="375.412109"/>
     <use xlink:href="#DejaVuSans-54" x="407.199219"/>
     <use xlink:href="#DejaVuSans-69" x="465.158203"/>
     <use xlink:href="#DejaVuSans-6d" x="492.941406"/>
     <use xlink:href="#DejaVuSans-65" x="590.353516"/>
     <use xlink:href="#DejaVuSans-20" x="651.876953"/>
     <use xlink:href="#DejaVuSans-50" x="683.664062"/>
     <use xlink:href="#DejaVuSans-6c" x="743.966797"/>
     <use xlink:href="#DejaVuSans-6f" x="771.75"/>
     <use xlink:href="#DejaVuSans-74" x="832.931641"/>
    </g>
    <!--  avg_d = 753.2821879352242  -->
    <g transform="translate(142.671562 21.700875)scale(0.12 -0.12)">
     <defs>
      <path id="DejaVuSans-76" d="M 191 3500 
L 800 3500 
L 1894 563 
L 2988 3500 
L 3597 3500 
L 2284 0 
L 1503 0 
L 191 3500 
z
" transform="scale(0.015625)"/>
      <path id="DejaVuSans-5f" d="M 3263 -1063 
L 3263 -1509 
L -63 -1509 
L -63 -1063 
L 3263 -1063 
z
" transform="scale(0.015625)"/>
      <path id="DejaVuSans-3d" d="M 678 2906 
L 4684 2906 
L 4684 2381 
L 678 2381 
L 678 2906 
z
M 678 1631 
L 4684 1631 
L 4684 1100 
L 678 1100 
L 678 1631 
z
" transform="scale(0.015625)"/>
      <path id="DejaVuSans-2e" d="M 684 794 
L 1344 794 
L 1344 0 
L 684 0 
L 684 794 
z
" transform="scale(0.015625)"/>
     </defs>
     <use xlink:href="#DejaVuSans-20"/>
     <use xlink:href="#DejaVuSans-61" x="31.787109"/>
     <use xlink:href="#DejaVuSans-76" x="93.066406"/>
     <use xlink:href="#DejaVuSans-67" x="152.246094"/>
     <use xlink:href="#DejaVuSans-5f" x="215.722656"/>
     <use xlink:href="#DejaVuSans-64" x="265.722656"/>
     <use xlink:href="#DejaVuSans-20" x="329.199219"/>
     <use xlink:href="#DejaVuSans-3d" x="360.986328"/>
     <use xlink:href="#DejaVuSans-20" x="444.775391"/>
     <use xlink:href="#DejaVuSans-37" x="476.5625"/>
     <use xlink:href="#DejaVuSans-35" x="540.185547"/>
     <use xlink:href="#DejaVuSans-33" x="603.808594"/>
     <use xlink:href="#DejaVuSans-2e" x="667.431641"/>
     <use xlink:href="#DejaVuSans-32" x="699.21875"/>
     <use xlink:href="#DejaVuSans-38" x="762.841797"/>
     <use xlink:href="#DejaVuSans-32" x="826.464844"/>
     <use xlink:href="#DejaVuSans-31" x="890.087891"/>
     <use xlink:href="#DejaVuSans-38" x="953.710938"/>
     <use xlink:href="#DejaVuSans-37" x="1017.333984"/>
     <use xlink:href="#DejaVuSans-39" x="1080.957031"/>
     <use xlink:href="#DejaVuSans-33" x="1144.580078"/>
     <use xlink:href="#DejaVuSans-35" x="1208.203125"/>
     <use xlink:href="#DejaVuSans-32" x="1271.826172"/>
     <use xlink:href="#DejaVuSans-32" x="1335.449219"/>
     <use xlink:href="#DejaVuSans-34" x="1399.072266"/>
     <use xlink:href="#DejaVuSans-32" x="1462.695312"/>
     <use xlink:href="#DejaVuSans-20" x="1526.318359"/>
    </g>
    <!--  avg_a = 888.7336828537758diff = -135.4514949185516 -->
    <g transform="translate(61.017188 35.472)scale(0.12 -0.12)">
     <defs>
      <path id="DejaVuSans-2d" d="M 313 2009 
L 1997 2009 
L 1997 1497 
L 313 1497 
L 313 2009 
z
" transform="scale(0.015625)"/>
     </defs>
     <use xlink:href="#DejaVuSans-20"/>
     <use xlink:href="#DejaVuSans-61" x="31.787109"/>
     <use xlink:href="#DejaVuSans-76" x="93.066406"/>
     <use xlink:href="#DejaVuSans-67" x="152.246094"/>
     <use xlink:href="#DejaVuSans-5f" x="215.722656"/>
     <use xlink:href="#DejaVuSans-61" x="265.722656"/>
     <use xlink:href="#DejaVuSans-20" x="327.001953"/>
     <use xlink:href="#DejaVuSans-3d" x="358.789062"/>
     <use xlink:href="#DejaVuSans-20" x="442.578125"/>
     <use xlink:href="#DejaVuSans-38" x="474.365234"/>
     <use xlink:href="#DejaVuSans-38" x="537.988281"/>
     <use xlink:href="#DejaVuSans-38" x="601.611328"/>
     <use xlink:href="#DejaVuSans-2e" x="665.234375"/>
     <use xlink:href="#DejaVuSans-37" x="697.021484"/>
     <use xlink:href="#DejaVuSans-33" x="760.644531"/>
     <use xlink:href="#DejaVuSans-33" x="824.267578"/>
     <use xlink:href="#DejaVuSans-36" x="887.890625"/>
     <use xlink:href="#DejaVuSans-38" x="951.513672"/>
     <use xlink:href="#DejaVuSans-32" x="1015.136719"/>
     <use xlink:href="#DejaVuSans-38" x="1078.759766"/>
     <use xlink:href="#DejaVuSans-35" x="1142.382812"/>
     <use xlink:href="#DejaVuSans-33" x="1206.005859"/>
     <use xlink:href="#DejaVuSans-37" x="1269.628906"/>
     <use xlink:href="#DejaVuSans-37" x="1333.251953"/>
     <use xlink:href="#DejaVuSans-35" x="1396.875"/>
     <use xlink:href="#DejaVuSans-38" x="1460.498047"/>
     <use xlink:href="#DejaVuSans-64" x="1524.121094"/>
     <use xlink:href="#DejaVuSans-69" x="1587.597656"/>
     <use xlink:href="#DejaVuSans-66" x="1615.380859"/>
     <use xlink:href="#DejaVuSans-66" x="1650.585938"/>
     <use xlink:href="#DejaVuSans-20" x="1685.791016"/>
     <use xlink:href="#DejaVuSans-3d" x="1717.578125"/>
     <use xlink:href="#DejaVuSans-20" x="1801.367188"/>
     <use xlink:href="#DejaVuSans-2d" x="1833.154297"/>
     <use xlink:href="#DejaVuSans-31" x="1869.238281"/>
     <use xlink:href="#DejaVuSans-33" x="1932.861328"/>
     <use xlink:href="#DejaVuSans-35" x="1996.484375"/>
     <use xlink:href="#DejaVuSans-2e" x="2060.107422"/>
     <use xlink:href="#DejaVuSans-34" x="2091.894531"/>
     <use xlink:href="#DejaVuSans-35" x="2155.517578"/>
     <use xlink:href="#DejaVuSans-31" x="2219.140625"/>
     <use xlink:href="#DejaVuSans-34" x="2282.763672"/>
     <use xlink:href="#DejaVuSans-39" x="2346.386719"/>
     <use xlink:href="#DejaVuSans-34" x="2410.009766"/>
     <use xlink:href="#DejaVuSans-39" x="2473.632812"/>
     <use xlink:href="#DejaVuSans-31" x="2537.255859"/>
     <use xlink:href="#DejaVuSans-38" x="2600.878906"/>
     <use xlink:href="#DejaVuSans-35" x="2664.501953"/>
     <use xlink:href="#DejaVuSans-35" x="2728.125"/>
     <use xlink:href="#DejaVuSans-31" x="2791.748047"/>
     <use xlink:href="#DejaVuSans-36" x="2855.371094"/>
    </g>
   </g>
   <g id="legend_1">
    <g id="patch_7">
     <path d="M 263.88875 302.584 
L 407.72 302.584 
Q 409.72 302.584 409.72 300.584 
L 409.72 272.22775 
Q 409.72 270.22775 407.72 270.22775 
L 263.88875 270.22775 
Q 261.88875 270.22775 261.88875 272.22775 
L 261.88875 300.584 
Q 261.88875 302.584 263.88875 302.584 
z
" style="fill: #ffffff; opacity: 0.8; stroke: #cccccc; stroke-linejoin: miter"/>
    </g>
    <g id="line2d_18">
     <path d="M 265.88875 278.326187 
L 275.88875 278.326187 
L 285.88875 278.326187 
" style="fill: none; stroke-dasharray: 2,3.3; stroke-dashoffset: 0; stroke: #0000ff; stroke-width: 2"/>
    </g>
    <g id="text_19">
     <!-- Average (Default) -->
     <g transform="translate(293.88875 281.826187)scale(0.1 -0.1)">
      <defs>
       <path id="DejaVuSans-41" d="M 2188 4044 
L 1331 1722 
L 3047 1722 
L 2188 4044 
z
M 1831 4666 
L 2547 4666 
L 4325 0 
L 3669 0 
L 3244 1197 
L 1141 1197 
L 716 0 
L 50 0 
L 1831 4666 
z
" transform="scale(0.015625)"/>
       <path id="DejaVuSans-28" d="M 1984 4856 
Q 1566 4138 1362 3434 
Q 1159 2731 1159 2009 
Q 1159 1288 1364 580 
Q 1569 -128 1984 -844 
L 1484 -844 
Q 1016 -109 783 600 
Q 550 1309 550 2009 
Q 550 2706 781 3412 
Q 1013 4119 1484 4856 
L 1984 4856 
z
" transform="scale(0.015625)"/>
       <path id="DejaVuSans-44" d="M 1259 4147 
L 1259 519 
L 2022 519 
Q 2988 519 3436 956 
Q 3884 1394 3884 2338 
Q 3884 3275 3436 3711 
Q 2988 4147 2022 4147 
L 1259 4147 
z
M 628 4666 
L 1925 4666 
Q 3281 4666 3915 4102 
Q 4550 3538 4550 2338 
Q 4550 1131 3912 565 
Q 3275 0 1925 0 
L 628 0 
L 628 4666 
z
" transform="scale(0.015625)"/>
       <path id="DejaVuSans-29" d="M 513 4856 
L 1013 4856 
Q 1481 4119 1714 3412 
Q 1947 2706 1947 2009 
Q 1947 1309 1714 600 
Q 1481 -109 1013 -844 
L 513 -844 
Q 928 -128 1133 580 
Q 1338 1288 1338 2009 
Q 1338 2731 1133 3434 
Q 928 4138 513 4856 
z
" transform="scale(0.015625)"/>
      </defs>
      <use xlink:href="#DejaVuSans-41"/>
      <use xlink:href="#DejaVuSans-76" x="62.533203"/>
      <use xlink:href="#DejaVuSans-65" x="121.712891"/>
      <use xlink:href="#DejaVuSans-72" x="183.236328"/>
      <use xlink:href="#DejaVuSans-61" x="224.349609"/>
      <use xlink:href="#DejaVuSans-67" x="285.628906"/>
      <use xlink:href="#DejaVuSans-65" x="349.105469"/>
      <use xlink:href="#DejaVuSans-20" x="410.628906"/>
      <use xlink:href="#DejaVuSans-28" x="442.416016"/>
      <use xlink:href="#DejaVuSans-44" x="481.429688"/>
      <use xlink:href="#DejaVuSans-65" x="558.431641"/>
      <use xlink:href="#DejaVuSans-66" x="619.955078"/>
      <use xlink:href="#DejaVuSans-61" x="655.160156"/>
      <use xlink:href="#DejaVuSans-75" x="716.439453"/>
      <use xlink:href="#DejaVuSans-6c" x="779.818359"/>
      <use xlink:href="#DejaVuSans-74" x="807.601562"/>
      <use xlink:href="#DejaVuSans-29" x="846.810547"/>
     </g>
    </g>
    <g id="line2d_19">
     <path d="M 265.88875 293.004312 
L 275.88875 293.004312 
L 285.88875 293.004312 
" style="fill: none; stroke-dasharray: 2,3.3; stroke-dashoffset: 0; stroke: #ffa500; stroke-width: 2"/>
    </g>
    <g id="text_20">
     <!-- Average (Anticipation) -->
     <g transform="translate(293.88875 296.504312)scale(0.1 -0.1)">
      <defs>
       <path id="DejaVuSans-63" d="M 3122 3366 
L 3122 2828 
Q 2878 2963 2633 3030 
Q 2388 3097 2138 3097 
Q 1578 3097 1268 2742 
Q 959 2388 959 1747 
Q 959 1106 1268 751 
Q 1578 397 2138 397 
Q 2388 397 2633 464 
Q 2878 531 3122 666 
L 3122 134 
Q 2881 22 2623 -34 
Q 2366 -91 2075 -91 
Q 1284 -91 818 406 
Q 353 903 353 1747 
Q 353 2603 823 3093 
Q 1294 3584 2113 3584 
Q 2378 3584 2631 3529 
Q 2884 3475 3122 3366 
z
" transform="scale(0.015625)"/>
       <path id="DejaVuSans-70" d="M 1159 525 
L 1159 -1331 
L 581 -1331 
L 581 3500 
L 1159 3500 
L 1159 2969 
Q 1341 3281 1617 3432 
Q 1894 3584 2278 3584 
Q 2916 3584 3314 3078 
Q 3713 2572 3713 1747 
Q 3713 922 3314 415 
Q 2916 -91 2278 -91 
Q 1894 -91 1617 61 
Q 1341 213 1159 525 
z
M 3116 1747 
Q 3116 2381 2855 2742 
Q 2594 3103 2138 3103 
Q 1681 3103 1420 2742 
Q 1159 2381 1159 1747 
Q 1159 1113 1420 752 
Q 1681 391 2138 391 
Q 2594 391 2855 752 
Q 3116 1113 3116 1747 
z
" transform="scale(0.015625)"/>
      </defs>
      <use xlink:href="#DejaVuSans-41"/>
      <use xlink:href="#DejaVuSans-76" x="62.533203"/>
      <use xlink:href="#DejaVuSans-65" x="121.712891"/>
      <use xlink:href="#DejaVuSans-72" x="183.236328"/>
      <use xlink:href="#DejaVuSans-61" x="224.349609"/>
      <use xlink:href="#DejaVuSans-67" x="285.628906"/>
      <use xlink:href="#DejaVuSans-65" x="349.105469"/>
      <use xlink:href="#DejaVuSans-20" x="410.628906"/>
      <use xlink:href="#DejaVuSans-28" x="442.416016"/>
      <use xlink:href="#DejaVuSans-41" x="481.429688"/>
      <use xlink:href="#DejaVuSans-6e" x="549.837891"/>
      <use xlink:href="#DejaVuSans-74" x="613.216797"/>
      <use xlink:href="#DejaVuSans-69" x="652.425781"/>
      <use xlink:href="#DejaVuSans-63" x="680.208984"/>
      <use xlink:href="#DejaVuSans-69" x="735.189453"/>
      <use xlink:href="#DejaVuSans-70" x="762.972656"/>
      <use xlink:href="#DejaVuSans-61" x="826.449219"/>
      <use xlink:href="#DejaVuSans-74" x="887.728516"/>
      <use xlink:href="#DejaVuSans-69" x="926.9375"/>
      <use xlink:href="#DejaVuSans-6f" x="954.720703"/>
      <use xlink:href="#DejaVuSans-6e" x="1015.902344"/>
      <use xlink:href="#DejaVuSans-29" x="1079.28125"/>
     </g>
    </g>
   </g>
  </g>
 </g>
 <defs>
  <clipPath id="p348be98c7d">
   <rect x="57.6" y="41.472" width="357.12" height="266.112"/>
  </clipPath>
 </defs>
</svg>
