<?xml version="1.0" encoding="utf-8" standalone="no"?>
<!DOCTYPE svg PUBLIC "-//W3C//DTD SVG 1.1//EN"
  "http://www.w3.org/Graphics/SVG/1.1/DTD/svg11.dtd">
<svg xmlns:xlink="http://www.w3.org/1999/xlink" width="460.8pt" height="345.6pt" viewBox="0 0 460.8 345.6" xmlns="http://www.w3.org/2000/svg" version="1.1">
 <metadata>
  <rdf:RDF xmlns:dc="http://purl.org/dc/elements/1.1/" xmlns:cc="http://creativecommons.org/ns#" xmlns:rdf="http://www.w3.org/1999/02/22-rdf-syntax-ns#">
   <cc:Work>
    <dc:type rdf:resource="http://purl.org/dc/dcmitype/StillImage"/>
    <dc:date>2022-10-17T10:54:21.250548</dc:date>
    <dc:format>image/svg+xml</dc:format>
    <dc:creator>
     <cc:Agent>
      <dc:title>Matplotlib v3.5.3, https://matplotlib.org/</dc:title>
     </cc:Agent>
    </dc:creator>
   </cc:Work>
  </rdf:RDF>
 </metadata>
 <defs>
  <style type="text/css">*{stroke-linejoin: round; stroke-linecap: butt}</style>
 </defs>
 <g id="figure_1">
  <g id="patch_1">
   <path d="M 0 345.6 
L 460.8 345.6 
L 460.8 0 
L 0 0 
z
" style="fill: #ffffff"/>
  </g>
  <g id="axes_1">
   <g id="patch_2">
    <path d="M 57.6 307.584 
L 414.72 307.584 
L 414.72 41.472 
L 57.6 41.472 
z
" style="fill: #ffffff"/>
   </g>
   <g id="matplotlib.axis_1">
    <g id="xtick_1">
     <g id="line2d_1">
      <defs>
       <path id="mc17ce074f4" d="M 0 0 
L 0 3.5 
" style="stroke: #000000; stroke-width: 0.8"/>
      </defs>
      <g>
       <use xlink:href="#mc17ce074f4" x="73.832727" y="307.584" style="stroke: #000000; stroke-width: 0.8"/>
      </g>
     </g>
     <g id="text_1">
      <!-- 0 -->
      <g transform="translate(70.651477 322.182437)scale(0.1 -0.1)">
       <defs>
        <path id="DejaVuSans-30" d="M 2034 4250 
Q 1547 4250 1301 3770 
Q 1056 3291 1056 2328 
Q 1056 1369 1301 889 
Q 1547 409 2034 409 
Q 2525 409 2770 889 
Q 3016 1369 3016 2328 
Q 3016 3291 2770 3770 
Q 2525 4250 2034 4250 
z
M 2034 4750 
Q 2819 4750 3233 4129 
Q 3647 3509 3647 2328 
Q 3647 1150 3233 529 
Q 2819 -91 2034 -91 
Q 1250 -91 836 529 
Q 422 1150 422 2328 
Q 422 3509 836 4129 
Q 1250 4750 2034 4750 
z
" transform="scale(0.015625)"/>
       </defs>
       <use xlink:href="#DejaVuSans-30"/>
      </g>
     </g>
    </g>
    <g id="xtick_2">
     <g id="line2d_2">
      <g>
       <use xlink:href="#mc17ce074f4" x="114.434847" y="307.584" style="stroke: #000000; stroke-width: 0.8"/>
      </g>
     </g>
     <g id="text_2">
      <!-- 250 -->
      <g transform="translate(104.891097 322.182437)scale(0.1 -0.1)">
       <defs>
        <path id="DejaVuSans-32" d="M 1228 531 
L 3431 531 
L 3431 0 
L 469 0 
L 469 531 
Q 828 903 1448 1529 
Q 2069 2156 2228 2338 
Q 2531 2678 2651 2914 
Q 2772 3150 2772 3378 
Q 2772 3750 2511 3984 
Q 2250 4219 1831 4219 
Q 1534 4219 1204 4116 
Q 875 4013 500 3803 
L 500 4441 
Q 881 4594 1212 4672 
Q 1544 4750 1819 4750 
Q 2544 4750 2975 4387 
Q 3406 4025 3406 3419 
Q 3406 3131 3298 2873 
Q 3191 2616 2906 2266 
Q 2828 2175 2409 1742 
Q 1991 1309 1228 531 
z
" transform="scale(0.015625)"/>
        <path id="DejaVuSans-35" d="M 691 4666 
L 3169 4666 
L 3169 4134 
L 1269 4134 
L 1269 2991 
Q 1406 3038 1543 3061 
Q 1681 3084 1819 3084 
Q 2600 3084 3056 2656 
Q 3513 2228 3513 1497 
Q 3513 744 3044 326 
Q 2575 -91 1722 -91 
Q 1428 -91 1123 -41 
Q 819 9 494 109 
L 494 744 
Q 775 591 1075 516 
Q 1375 441 1709 441 
Q 2250 441 2565 725 
Q 2881 1009 2881 1497 
Q 2881 1984 2565 2268 
Q 2250 2553 1709 2553 
Q 1456 2553 1204 2497 
Q 953 2441 691 2322 
L 691 4666 
z
" transform="scale(0.015625)"/>
       </defs>
       <use xlink:href="#DejaVuSans-32"/>
       <use xlink:href="#DejaVuSans-35" x="63.623047"/>
       <use xlink:href="#DejaVuSans-30" x="127.246094"/>
      </g>
     </g>
    </g>
    <g id="xtick_3">
     <g id="line2d_3">
      <g>
       <use xlink:href="#mc17ce074f4" x="155.036966" y="307.584" style="stroke: #000000; stroke-width: 0.8"/>
      </g>
     </g>
     <g id="text_3">
      <!-- 500 -->
      <g transform="translate(145.493216 322.182437)scale(0.1 -0.1)">
       <use xlink:href="#DejaVuSans-35"/>
       <use xlink:href="#DejaVuSans-30" x="63.623047"/>
       <use xlink:href="#DejaVuSans-30" x="127.246094"/>
      </g>
     </g>
    </g>
    <g id="xtick_4">
     <g id="line2d_4">
      <g>
       <use xlink:href="#mc17ce074f4" x="195.639085" y="307.584" style="stroke: #000000; stroke-width: 0.8"/>
      </g>
     </g>
     <g id="text_4">
      <!-- 750 -->
      <g transform="translate(186.095335 322.182437)scale(0.1 -0.1)">
       <defs>
        <path id="DejaVuSans-37" d="M 525 4666 
L 3525 4666 
L 3525 4397 
L 1831 0 
L 1172 0 
L 2766 4134 
L 525 4134 
L 525 4666 
z
" transform="scale(0.015625)"/>
       </defs>
       <use xlink:href="#DejaVuSans-37"/>
       <use xlink:href="#DejaVuSans-35" x="63.623047"/>
       <use xlink:href="#DejaVuSans-30" x="127.246094"/>
      </g>
     </g>
    </g>
    <g id="xtick_5">
     <g id="line2d_5">
      <g>
       <use xlink:href="#mc17ce074f4" x="236.241204" y="307.584" style="stroke: #000000; stroke-width: 0.8"/>
      </g>
     </g>
     <g id="text_5">
      <!-- 1000 -->
      <g transform="translate(223.516204 322.182437)scale(0.1 -0.1)">
       <defs>
        <path id="DejaVuSans-31" d="M 794 531 
L 1825 531 
L 1825 4091 
L 703 3866 
L 703 4441 
L 1819 4666 
L 2450 4666 
L 2450 531 
L 3481 531 
L 3481 0 
L 794 0 
L 794 531 
z
" transform="scale(0.015625)"/>
       </defs>
       <use xlink:href="#DejaVuSans-31"/>
       <use xlink:href="#DejaVuSans-30" x="63.623047"/>
       <use xlink:href="#DejaVuSans-30" x="127.246094"/>
       <use xlink:href="#DejaVuSans-30" x="190.869141"/>
      </g>
     </g>
    </g>
    <g id="xtick_6">
     <g id="line2d_6">
      <g>
       <use xlink:href="#mc17ce074f4" x="276.843323" y="307.584" style="stroke: #000000; stroke-width: 0.8"/>
      </g>
     </g>
     <g id="text_6">
      <!-- 1250 -->
      <g transform="translate(264.118323 322.182437)scale(0.1 -0.1)">
       <use xlink:href="#DejaVuSans-31"/>
       <use xlink:href="#DejaVuSans-32" x="63.623047"/>
       <use xlink:href="#DejaVuSans-35" x="127.246094"/>
       <use xlink:href="#DejaVuSans-30" x="190.869141"/>
      </g>
     </g>
    </g>
    <g id="xtick_7">
     <g id="line2d_7">
      <g>
       <use xlink:href="#mc17ce074f4" x="317.445443" y="307.584" style="stroke: #000000; stroke-width: 0.8"/>
      </g>
     </g>
     <g id="text_7">
      <!-- 1500 -->
      <g transform="translate(304.720443 322.182437)scale(0.1 -0.1)">
       <use xlink:href="#DejaVuSans-31"/>
       <use xlink:href="#DejaVuSans-35" x="63.623047"/>
       <use xlink:href="#DejaVuSans-30" x="127.246094"/>
       <use xlink:href="#DejaVuSans-30" x="190.869141"/>
      </g>
     </g>
    </g>
    <g id="xtick_8">
     <g id="line2d_8">
      <g>
       <use xlink:href="#mc17ce074f4" x="358.047562" y="307.584" style="stroke: #000000; stroke-width: 0.8"/>
      </g>
     </g>
     <g id="text_8">
      <!-- 1750 -->
      <g transform="translate(345.322562 322.182437)scale(0.1 -0.1)">
       <use xlink:href="#DejaVuSans-31"/>
       <use xlink:href="#DejaVuSans-37" x="63.623047"/>
       <use xlink:href="#DejaVuSans-35" x="127.246094"/>
       <use xlink:href="#DejaVuSans-30" x="190.869141"/>
      </g>
     </g>
    </g>
    <g id="xtick_9">
     <g id="line2d_9">
      <g>
       <use xlink:href="#mc17ce074f4" x="398.649681" y="307.584" style="stroke: #000000; stroke-width: 0.8"/>
      </g>
     </g>
     <g id="text_9">
      <!-- 2000 -->
      <g transform="translate(385.924681 322.182437)scale(0.1 -0.1)">
       <use xlink:href="#DejaVuSans-32"/>
       <use xlink:href="#DejaVuSans-30" x="63.623047"/>
       <use xlink:href="#DejaVuSans-30" x="127.246094"/>
       <use xlink:href="#DejaVuSans-30" x="190.869141"/>
      </g>
     </g>
    </g>
    <g id="text_10">
     <!-- Number of Orders -->
     <g transform="translate(191.261562 335.860562)scale(0.1 -0.1)">
      <defs>
       <path id="DejaVuSans-4e" d="M 628 4666 
L 1478 4666 
L 3547 763 
L 3547 4666 
L 4159 4666 
L 4159 0 
L 3309 0 
L 1241 3903 
L 1241 0 
L 628 0 
L 628 4666 
z
" transform="scale(0.015625)"/>
       <path id="DejaVuSans-75" d="M 544 1381 
L 544 3500 
L 1119 3500 
L 1119 1403 
Q 1119 906 1312 657 
Q 1506 409 1894 409 
Q 2359 409 2629 706 
Q 2900 1003 2900 1516 
L 2900 3500 
L 3475 3500 
L 3475 0 
L 2900 0 
L 2900 538 
Q 2691 219 2414 64 
Q 2138 -91 1772 -91 
Q 1169 -91 856 284 
Q 544 659 544 1381 
z
M 1991 3584 
L 1991 3584 
z
" transform="scale(0.015625)"/>
       <path id="DejaVuSans-6d" d="M 3328 2828 
Q 3544 3216 3844 3400 
Q 4144 3584 4550 3584 
Q 5097 3584 5394 3201 
Q 5691 2819 5691 2113 
L 5691 0 
L 5113 0 
L 5113 2094 
Q 5113 2597 4934 2840 
Q 4756 3084 4391 3084 
Q 3944 3084 3684 2787 
Q 3425 2491 3425 1978 
L 3425 0 
L 2847 0 
L 2847 2094 
Q 2847 2600 2669 2842 
Q 2491 3084 2119 3084 
Q 1678 3084 1418 2786 
Q 1159 2488 1159 1978 
L 1159 0 
L 581 0 
L 581 3500 
L 1159 3500 
L 1159 2956 
Q 1356 3278 1631 3431 
Q 1906 3584 2284 3584 
Q 2666 3584 2933 3390 
Q 3200 3197 3328 2828 
z
" transform="scale(0.015625)"/>
       <path id="DejaVuSans-62" d="M 3116 1747 
Q 3116 2381 2855 2742 
Q 2594 3103 2138 3103 
Q 1681 3103 1420 2742 
Q 1159 2381 1159 1747 
Q 1159 1113 1420 752 
Q 1681 391 2138 391 
Q 2594 391 2855 752 
Q 3116 1113 3116 1747 
z
M 1159 2969 
Q 1341 3281 1617 3432 
Q 1894 3584 2278 3584 
Q 2916 3584 3314 3078 
Q 3713 2572 3713 1747 
Q 3713 922 3314 415 
Q 2916 -91 2278 -91 
Q 1894 -91 1617 61 
Q 1341 213 1159 525 
L 1159 0 
L 581 0 
L 581 4863 
L 1159 4863 
L 1159 2969 
z
" transform="scale(0.015625)"/>
       <path id="DejaVuSans-65" d="M 3597 1894 
L 3597 1613 
L 953 1613 
Q 991 1019 1311 708 
Q 1631 397 2203 397 
Q 2534 397 2845 478 
Q 3156 559 3463 722 
L 3463 178 
Q 3153 47 2828 -22 
Q 2503 -91 2169 -91 
Q 1331 -91 842 396 
Q 353 884 353 1716 
Q 353 2575 817 3079 
Q 1281 3584 2069 3584 
Q 2775 3584 3186 3129 
Q 3597 2675 3597 1894 
z
M 3022 2063 
Q 3016 2534 2758 2815 
Q 2500 3097 2075 3097 
Q 1594 3097 1305 2825 
Q 1016 2553 972 2059 
L 3022 2063 
z
" transform="scale(0.015625)"/>
       <path id="DejaVuSans-72" d="M 2631 2963 
Q 2534 3019 2420 3045 
Q 2306 3072 2169 3072 
Q 1681 3072 1420 2755 
Q 1159 2438 1159 1844 
L 1159 0 
L 581 0 
L 581 3500 
L 1159 3500 
L 1159 2956 
Q 1341 3275 1631 3429 
Q 1922 3584 2338 3584 
Q 2397 3584 2469 3576 
Q 2541 3569 2628 3553 
L 2631 2963 
z
" transform="scale(0.015625)"/>
       <path id="DejaVuSans-20" transform="scale(0.015625)"/>
       <path id="DejaVuSans-6f" d="M 1959 3097 
Q 1497 3097 1228 2736 
Q 959 2375 959 1747 
Q 959 1119 1226 758 
Q 1494 397 1959 397 
Q 2419 397 2687 759 
Q 2956 1122 2956 1747 
Q 2956 2369 2687 2733 
Q 2419 3097 1959 3097 
z
M 1959 3584 
Q 2709 3584 3137 3096 
Q 3566 2609 3566 1747 
Q 3566 888 3137 398 
Q 2709 -91 1959 -91 
Q 1206 -91 779 398 
Q 353 888 353 1747 
Q 353 2609 779 3096 
Q 1206 3584 1959 3584 
z
" transform="scale(0.015625)"/>
       <path id="DejaVuSans-66" d="M 2375 4863 
L 2375 4384 
L 1825 4384 
Q 1516 4384 1395 4259 
Q 1275 4134 1275 3809 
L 1275 3500 
L 2222 3500 
L 2222 3053 
L 1275 3053 
L 1275 0 
L 697 0 
L 697 3053 
L 147 3053 
L 147 3500 
L 697 3500 
L 697 3744 
Q 697 4328 969 4595 
Q 1241 4863 1831 4863 
L 2375 4863 
z
" transform="scale(0.015625)"/>
       <path id="DejaVuSans-4f" d="M 2522 4238 
Q 1834 4238 1429 3725 
Q 1025 3213 1025 2328 
Q 1025 1447 1429 934 
Q 1834 422 2522 422 
Q 3209 422 3611 934 
Q 4013 1447 4013 2328 
Q 4013 3213 3611 3725 
Q 3209 4238 2522 4238 
z
M 2522 4750 
Q 3503 4750 4090 4092 
Q 4678 3434 4678 2328 
Q 4678 1225 4090 567 
Q 3503 -91 2522 -91 
Q 1538 -91 948 565 
Q 359 1222 359 2328 
Q 359 3434 948 4092 
Q 1538 4750 2522 4750 
z
" transform="scale(0.015625)"/>
       <path id="DejaVuSans-64" d="M 2906 2969 
L 2906 4863 
L 3481 4863 
L 3481 0 
L 2906 0 
L 2906 525 
Q 2725 213 2448 61 
Q 2172 -91 1784 -91 
Q 1150 -91 751 415 
Q 353 922 353 1747 
Q 353 2572 751 3078 
Q 1150 3584 1784 3584 
Q 2172 3584 2448 3432 
Q 2725 3281 2906 2969 
z
M 947 1747 
Q 947 1113 1208 752 
Q 1469 391 1925 391 
Q 2381 391 2643 752 
Q 2906 1113 2906 1747 
Q 2906 2381 2643 2742 
Q 2381 3103 1925 3103 
Q 1469 3103 1208 2742 
Q 947 2381 947 1747 
z
" transform="scale(0.015625)"/>
       <path id="DejaVuSans-73" d="M 2834 3397 
L 2834 2853 
Q 2591 2978 2328 3040 
Q 2066 3103 1784 3103 
Q 1356 3103 1142 2972 
Q 928 2841 928 2578 
Q 928 2378 1081 2264 
Q 1234 2150 1697 2047 
L 1894 2003 
Q 2506 1872 2764 1633 
Q 3022 1394 3022 966 
Q 3022 478 2636 193 
Q 2250 -91 1575 -91 
Q 1294 -91 989 -36 
Q 684 19 347 128 
L 347 722 
Q 666 556 975 473 
Q 1284 391 1588 391 
Q 1994 391 2212 530 
Q 2431 669 2431 922 
Q 2431 1156 2273 1281 
Q 2116 1406 1581 1522 
L 1381 1569 
Q 847 1681 609 1914 
Q 372 2147 372 2553 
Q 372 3047 722 3315 
Q 1072 3584 1716 3584 
Q 2034 3584 2315 3537 
Q 2597 3491 2834 3397 
z
" transform="scale(0.015625)"/>
      </defs>
      <use xlink:href="#DejaVuSans-4e"/>
      <use xlink:href="#DejaVuSans-75" x="74.804688"/>
      <use xlink:href="#DejaVuSans-6d" x="138.183594"/>
      <use xlink:href="#DejaVuSans-62" x="235.595703"/>
      <use xlink:href="#DejaVuSans-65" x="299.072266"/>
      <use xlink:href="#DejaVuSans-72" x="360.595703"/>
      <use xlink:href="#DejaVuSans-20" x="401.708984"/>
      <use xlink:href="#DejaVuSans-6f" x="433.496094"/>
      <use xlink:href="#DejaVuSans-66" x="494.677734"/>
      <use xlink:href="#DejaVuSans-20" x="529.882812"/>
      <use xlink:href="#DejaVuSans-4f" x="561.669922"/>
      <use xlink:href="#DejaVuSans-72" x="640.380859"/>
      <use xlink:href="#DejaVuSans-64" x="679.744141"/>
      <use xlink:href="#DejaVuSans-65" x="743.220703"/>
      <use xlink:href="#DejaVuSans-72" x="804.744141"/>
      <use xlink:href="#DejaVuSans-73" x="845.857422"/>
     </g>
    </g>
   </g>
   <g id="matplotlib.axis_2">
    <g id="ytick_1">
     <g id="line2d_10">
      <defs>
       <path id="m3f1e77fe97" d="M 0 0 
L -3.5 0 
" style="stroke: #000000; stroke-width: 0.8"/>
      </defs>
      <g>
       <use xlink:href="#m3f1e77fe97" x="57.6" y="260.622606" style="stroke: #000000; stroke-width: 0.8"/>
      </g>
     </g>
     <g id="text_11">
      <!-- 1000 -->
      <g transform="translate(25.15 264.421825)scale(0.1 -0.1)">
       <use xlink:href="#DejaVuSans-31"/>
       <use xlink:href="#DejaVuSans-30" x="63.623047"/>
       <use xlink:href="#DejaVuSans-30" x="127.246094"/>
       <use xlink:href="#DejaVuSans-30" x="190.869141"/>
      </g>
     </g>
    </g>
    <g id="ytick_2">
     <g id="line2d_11">
      <g>
       <use xlink:href="#m3f1e77fe97" x="57.6" y="213.091394" style="stroke: #000000; stroke-width: 0.8"/>
      </g>
     </g>
     <g id="text_12">
      <!-- 2000 -->
      <g transform="translate(25.15 216.890613)scale(0.1 -0.1)">
       <use xlink:href="#DejaVuSans-32"/>
       <use xlink:href="#DejaVuSans-30" x="63.623047"/>
       <use xlink:href="#DejaVuSans-30" x="127.246094"/>
       <use xlink:href="#DejaVuSans-30" x="190.869141"/>
      </g>
     </g>
    </g>
    <g id="ytick_3">
     <g id="line2d_12">
      <g>
       <use xlink:href="#m3f1e77fe97" x="57.6" y="165.560182" style="stroke: #000000; stroke-width: 0.8"/>
      </g>
     </g>
     <g id="text_13">
      <!-- 3000 -->
      <g transform="translate(25.15 169.3594)scale(0.1 -0.1)">
       <defs>
        <path id="DejaVuSans-33" d="M 2597 2516 
Q 3050 2419 3304 2112 
Q 3559 1806 3559 1356 
Q 3559 666 3084 287 
Q 2609 -91 1734 -91 
Q 1441 -91 1130 -33 
Q 819 25 488 141 
L 488 750 
Q 750 597 1062 519 
Q 1375 441 1716 441 
Q 2309 441 2620 675 
Q 2931 909 2931 1356 
Q 2931 1769 2642 2001 
Q 2353 2234 1838 2234 
L 1294 2234 
L 1294 2753 
L 1863 2753 
Q 2328 2753 2575 2939 
Q 2822 3125 2822 3475 
Q 2822 3834 2567 4026 
Q 2313 4219 1838 4219 
Q 1578 4219 1281 4162 
Q 984 4106 628 3988 
L 628 4550 
Q 988 4650 1302 4700 
Q 1616 4750 1894 4750 
Q 2613 4750 3031 4423 
Q 3450 4097 3450 3541 
Q 3450 3153 3228 2886 
Q 3006 2619 2597 2516 
z
" transform="scale(0.015625)"/>
       </defs>
       <use xlink:href="#DejaVuSans-33"/>
       <use xlink:href="#DejaVuSans-30" x="63.623047"/>
       <use xlink:href="#DejaVuSans-30" x="127.246094"/>
       <use xlink:href="#DejaVuSans-30" x="190.869141"/>
      </g>
     </g>
    </g>
    <g id="ytick_4">
     <g id="line2d_13">
      <g>
       <use xlink:href="#m3f1e77fe97" x="57.6" y="118.028969" style="stroke: #000000; stroke-width: 0.8"/>
      </g>
     </g>
     <g id="text_14">
      <!-- 4000 -->
      <g transform="translate(25.15 121.828188)scale(0.1 -0.1)">
       <defs>
        <path id="DejaVuSans-34" d="M 2419 4116 
L 825 1625 
L 2419 1625 
L 2419 4116 
z
M 2253 4666 
L 3047 4666 
L 3047 1625 
L 3713 1625 
L 3713 1100 
L 3047 1100 
L 3047 0 
L 2419 0 
L 2419 1100 
L 313 1100 
L 313 1709 
L 2253 4666 
z
" transform="scale(0.015625)"/>
       </defs>
       <use xlink:href="#DejaVuSans-34"/>
       <use xlink:href="#DejaVuSans-30" x="63.623047"/>
       <use xlink:href="#DejaVuSans-30" x="127.246094"/>
       <use xlink:href="#DejaVuSans-30" x="190.869141"/>
      </g>
     </g>
    </g>
    <g id="ytick_5">
     <g id="line2d_14">
      <g>
       <use xlink:href="#m3f1e77fe97" x="57.6" y="70.497757" style="stroke: #000000; stroke-width: 0.8"/>
      </g>
     </g>
     <g id="text_15">
      <!-- 5000 -->
      <g transform="translate(25.15 74.296976)scale(0.1 -0.1)">
       <use xlink:href="#DejaVuSans-35"/>
       <use xlink:href="#DejaVuSans-30" x="63.623047"/>
       <use xlink:href="#DejaVuSans-30" x="127.246094"/>
       <use xlink:href="#DejaVuSans-30" x="190.869141"/>
      </g>
     </g>
    </g>
    <g id="text_16">
     <!-- Waiting Time/s -->
     <g transform="translate(19.070312 211.410031)rotate(-90)scale(0.1 -0.1)">
      <defs>
       <path id="DejaVuSans-57" d="M 213 4666 
L 850 4666 
L 1831 722 
L 2809 4666 
L 3519 4666 
L 4500 722 
L 5478 4666 
L 6119 4666 
L 4947 0 
L 4153 0 
L 3169 4050 
L 2175 0 
L 1381 0 
L 213 4666 
z
" transform="scale(0.015625)"/>
       <path id="DejaVuSans-61" d="M 2194 1759 
Q 1497 1759 1228 1600 
Q 959 1441 959 1056 
Q 959 750 1161 570 
Q 1363 391 1709 391 
Q 2188 391 2477 730 
Q 2766 1069 2766 1631 
L 2766 1759 
L 2194 1759 
z
M 3341 1997 
L 3341 0 
L 2766 0 
L 2766 531 
Q 2569 213 2275 61 
Q 1981 -91 1556 -91 
Q 1019 -91 701 211 
Q 384 513 384 1019 
Q 384 1609 779 1909 
Q 1175 2209 1959 2209 
L 2766 2209 
L 2766 2266 
Q 2766 2663 2505 2880 
Q 2244 3097 1772 3097 
Q 1472 3097 1187 3025 
Q 903 2953 641 2809 
L 641 3341 
Q 956 3463 1253 3523 
Q 1550 3584 1831 3584 
Q 2591 3584 2966 3190 
Q 3341 2797 3341 1997 
z
" transform="scale(0.015625)"/>
       <path id="DejaVuSans-69" d="M 603 3500 
L 1178 3500 
L 1178 0 
L 603 0 
L 603 3500 
z
M 603 4863 
L 1178 4863 
L 1178 4134 
L 603 4134 
L 603 4863 
z
" transform="scale(0.015625)"/>
       <path id="DejaVuSans-74" d="M 1172 4494 
L 1172 3500 
L 2356 3500 
L 2356 3053 
L 1172 3053 
L 1172 1153 
Q 1172 725 1289 603 
Q 1406 481 1766 481 
L 2356 481 
L 2356 0 
L 1766 0 
Q 1100 0 847 248 
Q 594 497 594 1153 
L 594 3053 
L 172 3053 
L 172 3500 
L 594 3500 
L 594 4494 
L 1172 4494 
z
" transform="scale(0.015625)"/>
       <path id="DejaVuSans-6e" d="M 3513 2113 
L 3513 0 
L 2938 0 
L 2938 2094 
Q 2938 2591 2744 2837 
Q 2550 3084 2163 3084 
Q 1697 3084 1428 2787 
Q 1159 2491 1159 1978 
L 1159 0 
L 581 0 
L 581 3500 
L 1159 3500 
L 1159 2956 
Q 1366 3272 1645 3428 
Q 1925 3584 2291 3584 
Q 2894 3584 3203 3211 
Q 3513 2838 3513 2113 
z
" transform="scale(0.015625)"/>
       <path id="DejaVuSans-67" d="M 2906 1791 
Q 2906 2416 2648 2759 
Q 2391 3103 1925 3103 
Q 1463 3103 1205 2759 
Q 947 2416 947 1791 
Q 947 1169 1205 825 
Q 1463 481 1925 481 
Q 2391 481 2648 825 
Q 2906 1169 2906 1791 
z
M 3481 434 
Q 3481 -459 3084 -895 
Q 2688 -1331 1869 -1331 
Q 1566 -1331 1297 -1286 
Q 1028 -1241 775 -1147 
L 775 -588 
Q 1028 -725 1275 -790 
Q 1522 -856 1778 -856 
Q 2344 -856 2625 -561 
Q 2906 -266 2906 331 
L 2906 616 
Q 2728 306 2450 153 
Q 2172 0 1784 0 
Q 1141 0 747 490 
Q 353 981 353 1791 
Q 353 2603 747 3093 
Q 1141 3584 1784 3584 
Q 2172 3584 2450 3431 
Q 2728 3278 2906 2969 
L 2906 3500 
L 3481 3500 
L 3481 434 
z
" transform="scale(0.015625)"/>
       <path id="DejaVuSans-54" d="M -19 4666 
L 3928 4666 
L 3928 4134 
L 2272 4134 
L 2272 0 
L 1638 0 
L 1638 4134 
L -19 4134 
L -19 4666 
z
" transform="scale(0.015625)"/>
       <path id="DejaVuSans-2f" d="M 1625 4666 
L 2156 4666 
L 531 -594 
L 0 -594 
L 1625 4666 
z
" transform="scale(0.015625)"/>
      </defs>
      <use xlink:href="#DejaVuSans-57"/>
      <use xlink:href="#DejaVuSans-61" x="92.501953"/>
      <use xlink:href="#DejaVuSans-69" x="153.78125"/>
      <use xlink:href="#DejaVuSans-74" x="181.564453"/>
      <use xlink:href="#DejaVuSans-69" x="220.773438"/>
      <use xlink:href="#DejaVuSans-6e" x="248.556641"/>
      <use xlink:href="#DejaVuSans-67" x="311.935547"/>
      <use xlink:href="#DejaVuSans-20" x="375.412109"/>
      <use xlink:href="#DejaVuSans-54" x="407.199219"/>
      <use xlink:href="#DejaVuSans-69" x="465.158203"/>
      <use xlink:href="#DejaVuSans-6d" x="492.941406"/>
      <use xlink:href="#DejaVuSans-65" x="590.353516"/>
      <use xlink:href="#DejaVuSans-2f" x="651.876953"/>
      <use xlink:href="#DejaVuSans-73" x="685.568359"/>
     </g>
    </g>
   </g>
   <g id="line2d_15">
    <path d="M 73.832727 295.488 
L 73.995136 295.151772 
L 74.64477 285.293877 
L 74.807178 284.329272 
L 74.969587 284.810533 
L 75.131995 283.435858 
L 75.294404 284.189486 
L 75.619221 283.853042 
L 75.781629 283.464031 
L 75.944037 281.929586 
L 76.106446 282.28982 
L 76.431263 280.032573 
L 76.593671 280.074312 
L 76.918488 279.480008 
L 77.080897 279.60161 
L 77.568122 276.586166 
L 77.730531 276.594757 
L 77.892939 276.179005 
L 78.055348 276.255792 
L 78.217756 276.130271 
L 78.380165 276.415162 
L 78.704982 275.127077 
L 78.86739 274.316845 
L 79.029799 275.005681 
L 79.354615 275.11065 
L 79.517024 274.527405 
L 80.004249 274.782978 
L 80.329066 274.060118 
L 80.653883 274.727842 
L 80.816292 274.97344 
L 80.9787 274.577839 
L 81.141109 274.703876 
L 81.303517 274.660123 
L 81.465926 274.294239 
L 81.628334 274.474836 
L 82.277968 273.743161 
L 82.765194 274.343685 
L 82.927602 273.793611 
L 83.252419 274.285936 
L 83.414827 274.334108 
L 83.577236 274.153889 
L 83.739644 274.410684 
L 83.902053 274.331472 
L 84.22687 274.64774 
L 84.389278 274.152114 
L 84.551687 274.026593 
L 84.714095 273.697766 
L 84.876504 273.948048 
L 85.038912 273.655604 
L 85.201321 273.930899 
L 85.363729 273.814814 
L 85.688546 273.325656 
L 86.013363 273.180824 
L 86.33818 273.213605 
L 86.500588 273.01084 
L 86.825405 273.263109 
L 87.312631 272.966953 
L 87.637448 273.130391 
L 87.799856 273.074389 
L 87.962265 272.899839 
L 88.124673 273.053202 
L 88.287082 272.691967 
L 88.611899 272.94247 
L 88.774307 272.924681 
L 88.936716 272.723873 
L 89.099124 272.720138 
L 89.423941 272.413943 
L 89.748758 272.421793 
L 90.235983 272.671911 
L 91.048026 272.670886 
L 91.210434 272.373007 
L 91.372843 272.520109 
L 91.535251 272.207741 
L 91.69766 272.283866 
L 92.347294 271.536574 
L 92.509702 271.404363 
L 92.834519 271.473129 
L 93.321745 271.268248 
L 93.80897 271.458203 
L 94.133787 271.289442 
L 94.296195 271.256247 
L 94.621012 270.974738 
L 94.783421 270.895668 
L 94.945829 271.031775 
L 95.433055 270.900165 
L 95.757872 270.755861 
L 97.219548 270.512928 
L 97.544365 270.557145 
L 97.869182 270.281629 
L 98.03159 270.298593 
L 98.518816 269.780304 
L 98.843633 269.353967 
L 99.006041 269.513517 
L 99.16845 269.341485 
L 99.493267 269.358164 
L 99.818084 269.229384 
L 100.305309 268.4723 
L 100.630126 268.351658 
L 101.117351 268.475375 
L 101.27976 268.433134 
L 101.442168 268.096282 
L 102.416619 267.582487 
L 102.903845 267.328932 
L 104.040704 266.790793 
L 104.365521 266.800146 
L 105.177563 266.606858 
L 105.339972 266.51823 
L 105.50238 266.293632 
L 105.827197 266.324482 
L 106.314423 265.958383 
L 106.63924 265.863117 
L 106.801648 265.907257 
L 107.126465 265.592521 
L 107.451282 265.722703 
L 107.776099 265.387646 
L 107.938507 265.478739 
L 108.425733 265.215785 
L 108.75055 265.1924 
L 109.075367 265.012275 
L 110.049818 264.445367 
L 110.374635 264.407664 
L 110.699452 263.944382 
L 111.998719 263.287877 
L 112.648353 262.967458 
L 112.97317 262.682054 
L 113.297987 262.573397 
L 113.460396 262.562056 
L 113.785213 262.388247 
L 114.272438 262.19075 
L 114.597255 262.038537 
L 115.08448 261.789966 
L 115.246889 261.661739 
L 115.409297 261.685232 
L 116.058931 261.325113 
L 116.546157 261.04209 
L 117.520608 260.598638 
L 117.845425 260.512323 
L 119.794326 259.531539 
L 120.119143 259.426568 
L 120.44396 259.27981 
L 121.093594 258.999874 
L 121.58082 258.71049 
L 122.068045 258.412506 
L 122.392862 258.212645 
L 122.717679 257.851738 
L 123.042496 257.768686 
L 123.367313 257.59947 
L 124.016947 257.315908 
L 124.991398 256.905075 
L 125.316214 256.761807 
L 126.290665 256.319258 
L 127.91475 255.330779 
L 128.564384 254.921925 
L 128.889201 254.678124 
L 129.214018 254.493012 
L 129.701243 254.173383 
L 130.838103 253.467176 
L 131.487737 253.159062 
L 132.299779 252.604442 
L 133.599047 251.811969 
L 134.086272 251.32031 
L 135.38554 250.456656 
L 135.710357 250.230214 
L 136.035174 250.084666 
L 136.684808 249.676754 
L 137.009625 249.496842 
L 137.49685 249.248749 
L 137.984076 248.893268 
L 138.63371 248.445718 
L 138.958527 248.201613 
L 141.881879 246.424757 
L 143.505964 245.358724 
L 144.96764 244.310388 
L 145.292457 244.048094 
L 146.754133 242.990645 
L 147.566176 242.360444 
L 148.053401 242.056879 
L 149.027852 241.280525 
L 149.352669 241.050815 
L 150.164711 240.437792 
L 150.651937 239.994178 
L 151.951205 239.092584 
L 153.737698 237.706 
L 155.199374 236.533384 
L 155.849008 235.983456 
L 156.823459 235.373373 
L 157.473093 234.835796 
L 158.122727 234.197744 
L 158.609952 233.890056 
L 159.584403 233.094749 
L 161.533305 231.686288 
L 162.02053 231.312374 
L 162.670164 230.796028 
L 163.15739 230.391571 
L 164.294249 229.408846 
L 165.2687 228.719674 
L 171.115405 224.240933 
L 171.765039 223.787872 
L 172.414673 223.195667 
L 173.389124 222.385168 
L 174.525983 221.546883 
L 176.474885 220.070196 
L 177.286927 219.396865 
L 180.047871 217.254908 
L 181.184731 216.396583 
L 181.671956 216.006707 
L 183.133632 214.858795 
L 184.270492 213.905489 
L 185.244942 213.192514 
L 186.54421 212.136792 
L 187.356253 211.53252 
L 189.142746 210.043655 
L 189.954788 209.467816 
L 190.929239 208.746112 
L 191.416465 208.349432 
L 192.066099 207.824369 
L 194.827043 205.65618 
L 195.639085 204.960283 
L 196.775944 204.148655 
L 197.587987 203.606551 
L 198.562438 202.902767 
L 199.536888 202.193096 
L 200.186522 201.793594 
L 202.947466 199.970911 
L 203.5971 199.574189 
L 204.73396 198.75232 
L 207.007678 197.101279 
L 208.631763 195.944768 
L 209.931031 195.055966 
L 210.580665 194.593082 
L 214.965694 191.367079 
L 215.940145 190.645249 
L 218.701089 188.607072 
L 219.350723 188.082728 
L 221.624441 186.386324 
L 225.684653 183.22355 
L 227.633555 181.779296 
L 229.095231 180.681771 
L 229.907274 180.04729 
L 231.206541 178.935754 
L 231.856175 178.450576 
L 232.668218 177.850864 
L 238.83974 173.147172 
L 239.489374 172.631248 
L 240.139008 172.120552 
L 243.224769 169.77422 
L 249.558699 164.762827 
L 251.345193 163.405 
L 253.131686 162.041943 
L 254.755771 160.823756 
L 256.542264 159.464138 
L 258.166349 158.204194 
L 259.628025 157.098967 
L 260.602476 156.425505 
L 261.739335 155.54235 
L 266.611589 151.709667 
L 267.748449 150.843954 
L 276.843323 143.947467 
L 277.655366 143.27926 
L 283.66448 138.699976 
L 284.963747 137.738341 
L 286.100607 136.913958 
L 315.171724 115.64809 
L 315.983766 115.06588 
L 319.719161 112.290152 
L 322.804922 109.946601 
L 326.053092 107.51983 
L 328.001994 105.983215 
L 330.600529 104.015862 
L 332.387023 102.684342 
L 334.011107 101.477419 
L 335.960009 99.956868 
L 339.04577 97.647171 
L 340.507446 96.586854 
L 342.943574 94.714758 
L 344.242841 93.724246 
L 346.029335 92.403853 
L 370.065789 74.897375 
L 371.852283 73.593225 
L 384.844961 63.938742 
L 386.956271 62.31384 
L 388.905173 60.855568 
L 390.042032 60.051612 
L 398.487273 53.568 
L 398.487273 53.568 
" clip-path="url(#p1a8a7bc68b)" style="fill: none; stroke-dasharray: 2,3.3; stroke-dashoffset: 0; stroke: #0000ff; stroke-width: 2"/>
   </g>
   <g id="line2d_16">
    <path d="M 73.832727 295.488 
L 73.995136 295.151772 
L 74.64477 285.293877 
L 74.807178 284.329272 
L 75.131995 285.451429 
L 75.294404 285.375445 
L 75.781629 282.105395 
L 75.944037 282.553036 
L 76.268854 280.12181 
L 76.431263 279.992381 
L 76.593671 280.136559 
L 77.080897 279.520313 
L 77.243305 278.471501 
L 77.405714 278.489327 
L 77.568122 278.686677 
L 77.892939 276.864152 
L 78.055348 276.429223 
L 78.217756 275.666822 
L 78.380165 275.64465 
L 78.542573 274.85797 
L 78.704982 274.899084 
L 78.86739 274.810088 
L 79.029799 275.162574 
L 79.192207 274.543494 
L 79.354615 274.668479 
L 79.841841 273.870841 
L 80.166658 274.904266 
L 80.329066 274.717549 
L 80.653883 275.466806 
L 81.141109 274.41648 
L 81.465926 273.956888 
L 81.628334 274.429409 
L 81.790743 274.29835 
L 81.953151 274.523945 
L 82.11556 274.460482 
L 82.440377 274.069213 
L 82.765194 274.134366 
L 83.252419 273.389611 
L 84.22687 273.898119 
L 84.389278 274.240306 
L 84.551687 273.958279 
L 84.714095 273.948367 
L 84.876504 274.057851 
L 85.363729 273.95075 
L 85.526138 273.97661 
L 85.688546 274.275995 
L 86.013363 274.490425 
L 86.175772 274.617506 
L 86.500588 274.455432 
L 86.662997 274.445837 
L 86.825405 274.637577 
L 87.150222 273.583923 
L 87.475039 273.249747 
L 87.637448 272.712961 
L 87.799856 272.816294 
L 88.124673 272.548696 
L 88.287082 272.682867 
L 88.774307 272.554451 
L 88.936716 272.053999 
L 89.261533 272.209686 
L 89.58635 272.073959 
L 89.911166 271.995916 
L 90.398392 272.184052 
L 90.5608 272.063373 
L 90.723209 272.13439 
L 91.048026 271.569018 
L 91.372843 271.494504 
L 91.69766 271.644969 
L 91.860068 271.770344 
L 92.022477 271.661205 
L 92.184885 271.727837 
L 92.347294 271.505823 
L 92.834519 271.63433 
L 93.159336 271.516423 
L 93.321745 271.699713 
L 93.484153 271.59074 
L 93.971378 271.792867 
L 94.296195 271.722471 
L 94.458604 271.640123 
L 94.621012 271.79893 
L 94.783421 271.776163 
L 95.270646 271.510522 
L 95.595463 271.633393 
L 95.92028 271.551564 
L 96.082689 271.639663 
L 96.407506 271.638373 
L 96.569914 271.751843 
L 96.894731 271.500562 
L 97.057139 271.508421 
L 97.219548 271.372826 
L 98.03159 271.492833 
L 98.193999 271.329606 
L 98.356407 271.495929 
L 98.843633 271.443162 
L 99.006041 271.294966 
L 99.16845 271.405826 
L 99.493267 271.286339 
L 99.655675 271.164712 
L 99.980492 271.247298 
L 100.142901 271.441052 
L 100.792534 271.452875 
L 101.117351 271.578042 
L 101.766985 271.537617 
L 102.091802 271.662228 
L 102.903845 271.884148 
L 103.066253 272.053389 
L 103.553479 272.021305 
L 103.878296 272.132467 
L 104.040704 272.229833 
L 104.203112 272.048924 
L 104.527929 272.134508 
L 104.690338 272.016152 
L 105.015155 272.070116 
L 105.177563 272.025767 
L 105.50238 272.075954 
L 106.152014 272.06976 
L 106.314423 272.108687 
L 106.63924 271.829324 
L 106.964057 271.837292 
L 108.100916 272.042824 
L 108.263324 271.951715 
L 108.425733 272.105779 
L 108.588141 271.957908 
L 109.075367 272.119314 
L 109.562592 271.931564 
L 111.024268 271.959266 
L 111.511494 271.740669 
L 112.648353 271.419741 
L 112.97317 271.482527 
L 115.246889 271.593248 
L 115.734114 271.50453 
L 116.22134 271.431114 
L 116.546157 271.577362 
L 116.708565 271.549852 
L 117.195791 271.788861 
L 117.845425 271.699427 
L 118.495058 271.536793 
L 118.982284 271.425281 
L 119.307101 271.430148 
L 121.743228 271.686873 
L 122.068045 271.614526 
L 122.230453 271.632869 
L 122.392862 271.530477 
L 122.717679 271.532844 
L 123.854538 271.544965 
L 124.016947 271.542872 
L 124.341764 271.390882 
L 125.153806 271.549204 
L 129.863652 271.231498 
L 130.188469 271.268303 
L 130.350877 271.148299 
L 130.838103 271.226325 
L 132.137371 271.112724 
L 132.462187 271.01189 
L 133.436638 271.126606 
L 133.761455 271.172622 
L 134.248681 271.209248 
L 134.411089 271.25006 
L 134.735906 271.143245 
L 135.223132 271.168038 
L 137.172033 270.9212 
L 138.146484 270.967923 
L 141.719471 270.640075 
L 142.206696 270.667155 
L 143.668372 270.686534 
L 144.318006 270.615814 
L 146.266908 270.714421 
L 146.591725 270.838069 
L 146.916542 270.757122 
L 147.566176 270.775583 
L 150.489528 270.551135 
L 151.139162 270.608547 
L 151.463979 270.493497 
L 158.447544 270.38056 
L 158.934769 270.39708 
L 159.584403 270.350834 
L 160.558854 270.332705 
L 161.046079 270.342835 
L 162.832573 270.211559 
L 172.73949 269.97423 
L 174.525983 269.804034 
L 175.662842 269.880849 
L 176.312476 269.825486 
L 177.286927 269.80389 
L 179.235829 269.519362 
L 179.560646 269.47623 
L 187.031436 269.250782 
L 188.65552 269.121154 
L 192.066099 269.063675 
L 192.715732 269.0432 
L 193.690183 268.995417 
L 196.613536 268.936112 
L 197.912804 268.989016 
L 199.212071 269.004125 
L 200.836156 269.014796 
L 206.195636 268.950244 
L 207.007678 268.952082 
L 209.931031 269.010132 
L 217.077004 268.688415 
L 217.726638 268.642286 
L 220.64999 268.548578 
L 221.137216 268.537644 
L 222.436484 268.502746 
L 223.410935 268.501479 
L 225.522245 268.443363 
L 226.334287 268.507986 
L 227.308738 268.530835 
L 228.283189 268.572975 
L 229.095231 268.550167 
L 230.556908 268.525239 
L 231.531358 268.441964 
L 233.642669 268.44401 
L 234.779528 268.444915 
L 241.275867 268.628252 
L 243.06236 268.545213 
L 251.994827 268.526997 
L 256.867081 268.586068 
L 257.679123 268.598109 
L 263.850645 268.501346 
L 265.637139 268.514371 
L 268.560491 268.531161 
L 270.83421 268.615 
L 271.971069 268.606182 
L 273.757562 268.660044 
L 274.569605 268.677817 
L 276.680915 268.670753 
L 279.441859 268.703961 
L 280.741127 268.702256 
L 282.040395 268.655239 
L 282.690029 268.640849 
L 294.058622 268.827689 
L 342.943574 267.898212 
L 344.567658 267.940487 
L 346.678969 267.897207 
L 348.790279 267.944357 
L 365.355943 267.975079 
L 366.167986 267.982461 
L 367.629662 267.990391 
L 373.15155 267.981077 
L 374.28841 267.944126 
L 381.921608 267.847158 
L 382.73365 267.821521 
L 383.87051 267.818838 
L 385.494595 267.819568 
L 392.153342 267.811001 
L 393.615018 267.809211 
L 395.888737 267.714349 
L 397.837639 267.651988 
L 398.487273 267.584889 
L 398.487273 267.584889 
" clip-path="url(#p1a8a7bc68b)" style="fill: none; stroke-dasharray: 2,3.3; stroke-dashoffset: 0; stroke: #ffa500; stroke-width: 2"/>
   </g>
   <g id="patch_3">
    <path d="M 57.6 307.584 
L 57.6 41.472 
" style="fill: none; stroke: #000000; stroke-width: 0.8; stroke-linejoin: miter; stroke-linecap: square"/>
   </g>
   <g id="patch_4">
    <path d="M 414.72 307.584 
L 414.72 41.472 
" style="fill: none; stroke: #000000; stroke-width: 0.8; stroke-linejoin: miter; stroke-linecap: square"/>
   </g>
   <g id="patch_5">
    <path d="M 57.6 307.584 
L 414.72 307.584 
" style="fill: none; stroke: #000000; stroke-width: 0.8; stroke-linejoin: miter; stroke-linecap: square"/>
   </g>
   <g id="patch_6">
    <path d="M 57.6 41.472 
L 414.72 41.472 
" style="fill: none; stroke: #000000; stroke-width: 0.8; stroke-linejoin: miter; stroke-linecap: square"/>
   </g>
   <g id="text_17">
    <!-- Waiting Time Plot -->
    <g transform="translate(183.833438 8.2635)scale(0.12 -0.12)">
     <defs>
      <path id="DejaVuSans-50" d="M 1259 4147 
L 1259 2394 
L 2053 2394 
Q 2494 2394 2734 2622 
Q 2975 2850 2975 3272 
Q 2975 3691 2734 3919 
Q 2494 4147 2053 4147 
L 1259 4147 
z
M 628 4666 
L 2053 4666 
Q 2838 4666 3239 4311 
Q 3641 3956 3641 3272 
Q 3641 2581 3239 2228 
Q 2838 1875 2053 1875 
L 1259 1875 
L 1259 0 
L 628 0 
L 628 4666 
z
" transform="scale(0.015625)"/>
      <path id="DejaVuSans-6c" d="M 603 4863 
L 1178 4863 
L 1178 0 
L 603 0 
L 603 4863 
z
" transform="scale(0.015625)"/>
     </defs>
     <use xlink:href="#DejaVuSans-57"/>
     <use xlink:href="#DejaVuSans-61" x="92.501953"/>
     <use xlink:href="#DejaVuSans-69" x="153.78125"/>
     <use xlink:href="#DejaVuSans-74" x="181.564453"/>
     <use xlink:href="#DejaVuSans-69" x="220.773438"/>
     <use xlink:href="#DejaVuSans-6e" x="248.556641"/>
     <use xlink:href="#DejaVuSans-67" x="311.935547"/>
     <use xlink:href="#DejaVuSans-20" x="375.412109"/>
     <use xlink:href="#DejaVuSans-54" x="407.199219"/>
     <use xlink:href="#DejaVuSans-69" x="465.158203"/>
     <use xlink:href="#DejaVuSans-6d" x="492.941406"/>
     <use xlink:href="#DejaVuSans-65" x="590.353516"/>
     <use xlink:href="#DejaVuSans-20" x="651.876953"/>
     <use xlink:href="#DejaVuSans-50" x="683.664062"/>
     <use xlink:href="#DejaVuSans-6c" x="743.966797"/>
     <use xlink:href="#DejaVuSans-6f" x="771.75"/>
     <use xlink:href="#DejaVuSans-74" x="832.931641"/>
    </g>
    <!--  avg_d = 5356.181896587903  -->
    <g transform="translate(142.671562 21.700875)scale(0.12 -0.12)">
     <defs>
      <path id="DejaVuSans-76" d="M 191 3500 
L 800 3500 
L 1894 563 
L 2988 3500 
L 3597 3500 
L 2284 0 
L 1503 0 
L 191 3500 
z
" transform="scale(0.015625)"/>
      <path id="DejaVuSans-5f" d="M 3263 -1063 
L 3263 -1509 
L -63 -1509 
L -63 -1063 
L 3263 -1063 
z
" transform="scale(0.015625)"/>
      <path id="DejaVuSans-3d" d="M 678 2906 
L 4684 2906 
L 4684 2381 
L 678 2381 
L 678 2906 
z
M 678 1631 
L 4684 1631 
L 4684 1100 
L 678 1100 
L 678 1631 
z
" transform="scale(0.015625)"/>
      <path id="DejaVuSans-36" d="M 2113 2584 
Q 1688 2584 1439 2293 
Q 1191 2003 1191 1497 
Q 1191 994 1439 701 
Q 1688 409 2113 409 
Q 2538 409 2786 701 
Q 3034 994 3034 1497 
Q 3034 2003 2786 2293 
Q 2538 2584 2113 2584 
z
M 3366 4563 
L 3366 3988 
Q 3128 4100 2886 4159 
Q 2644 4219 2406 4219 
Q 1781 4219 1451 3797 
Q 1122 3375 1075 2522 
Q 1259 2794 1537 2939 
Q 1816 3084 2150 3084 
Q 2853 3084 3261 2657 
Q 3669 2231 3669 1497 
Q 3669 778 3244 343 
Q 2819 -91 2113 -91 
Q 1303 -91 875 529 
Q 447 1150 447 2328 
Q 447 3434 972 4092 
Q 1497 4750 2381 4750 
Q 2619 4750 2861 4703 
Q 3103 4656 3366 4563 
z
" transform="scale(0.015625)"/>
      <path id="DejaVuSans-2e" d="M 684 794 
L 1344 794 
L 1344 0 
L 684 0 
L 684 794 
z
" transform="scale(0.015625)"/>
      <path id="DejaVuSans-38" d="M 2034 2216 
Q 1584 2216 1326 1975 
Q 1069 1734 1069 1313 
Q 1069 891 1326 650 
Q 1584 409 2034 409 
Q 2484 409 2743 651 
Q 3003 894 3003 1313 
Q 3003 1734 2745 1975 
Q 2488 2216 2034 2216 
z
M 1403 2484 
Q 997 2584 770 2862 
Q 544 3141 544 3541 
Q 544 4100 942 4425 
Q 1341 4750 2034 4750 
Q 2731 4750 3128 4425 
Q 3525 4100 3525 3541 
Q 3525 3141 3298 2862 
Q 3072 2584 2669 2484 
Q 3125 2378 3379 2068 
Q 3634 1759 3634 1313 
Q 3634 634 3220 271 
Q 2806 -91 2034 -91 
Q 1263 -91 848 271 
Q 434 634 434 1313 
Q 434 1759 690 2068 
Q 947 2378 1403 2484 
z
M 1172 3481 
Q 1172 3119 1398 2916 
Q 1625 2713 2034 2713 
Q 2441 2713 2670 2916 
Q 2900 3119 2900 3481 
Q 2900 3844 2670 4047 
Q 2441 4250 2034 4250 
Q 1625 4250 1398 4047 
Q 1172 3844 1172 3481 
z
" transform="scale(0.015625)"/>
      <path id="DejaVuSans-39" d="M 703 97 
L 703 672 
Q 941 559 1184 500 
Q 1428 441 1663 441 
Q 2288 441 2617 861 
Q 2947 1281 2994 2138 
Q 2813 1869 2534 1725 
Q 2256 1581 1919 1581 
Q 1219 1581 811 2004 
Q 403 2428 403 3163 
Q 403 3881 828 4315 
Q 1253 4750 1959 4750 
Q 2769 4750 3195 4129 
Q 3622 3509 3622 2328 
Q 3622 1225 3098 567 
Q 2575 -91 1691 -91 
Q 1453 -91 1209 -44 
Q 966 3 703 97 
z
M 1959 2075 
Q 2384 2075 2632 2365 
Q 2881 2656 2881 3163 
Q 2881 3666 2632 3958 
Q 2384 4250 1959 4250 
Q 1534 4250 1286 3958 
Q 1038 3666 1038 3163 
Q 1038 2656 1286 2365 
Q 1534 2075 1959 2075 
z
" transform="scale(0.015625)"/>
     </defs>
     <use xlink:href="#DejaVuSans-20"/>
     <use xlink:href="#DejaVuSans-61" x="31.787109"/>
     <use xlink:href="#DejaVuSans-76" x="93.066406"/>
     <use xlink:href="#DejaVuSans-67" x="152.246094"/>
     <use xlink:href="#DejaVuSans-5f" x="215.722656"/>
     <use xlink:href="#DejaVuSans-64" x="265.722656"/>
     <use xlink:href="#DejaVuSans-20" x="329.199219"/>
     <use xlink:href="#DejaVuSans-3d" x="360.986328"/>
     <use xlink:href="#DejaVuSans-20" x="444.775391"/>
     <use xlink:href="#DejaVuSans-35" x="476.5625"/>
     <use xlink:href="#DejaVuSans-33" x="540.185547"/>
     <use xlink:href="#DejaVuSans-35" x="603.808594"/>
     <use xlink:href="#DejaVuSans-36" x="667.431641"/>
     <use xlink:href="#DejaVuSans-2e" x="731.054688"/>
     <use xlink:href="#DejaVuSans-31" x="762.841797"/>
     <use xlink:href="#DejaVuSans-38" x="826.464844"/>
     <use xlink:href="#DejaVuSans-31" x="890.087891"/>
     <use xlink:href="#DejaVuSans-38" x="953.710938"/>
     <use xlink:href="#DejaVuSans-39" x="1017.333984"/>
     <use xlink:href="#DejaVuSans-36" x="1080.957031"/>
     <use xlink:href="#DejaVuSans-35" x="1144.580078"/>
     <use xlink:href="#DejaVuSans-38" x="1208.203125"/>
     <use xlink:href="#DejaVuSans-37" x="1271.826172"/>
     <use xlink:href="#DejaVuSans-39" x="1335.449219"/>
     <use xlink:href="#DejaVuSans-30" x="1399.072266"/>
     <use xlink:href="#DejaVuSans-33" x="1462.695312"/>
     <use xlink:href="#DejaVuSans-20" x="1526.318359"/>
    </g>
    <!--  avg_a = 853.5218798781806diff = 4502.660016709722 -->
    <g transform="translate(63.181875 35.472)scale(0.12 -0.12)">
     <use xlink:href="#DejaVuSans-20"/>
     <use xlink:href="#DejaVuSans-61" x="31.787109"/>
     <use xlink:href="#DejaVuSans-76" x="93.066406"/>
     <use xlink:href="#DejaVuSans-67" x="152.246094"/>
     <use xlink:href="#DejaVuSans-5f" x="215.722656"/>
     <use xlink:href="#DejaVuSans-61" x="265.722656"/>
     <use xlink:href="#DejaVuSans-20" x="327.001953"/>
     <use xlink:href="#DejaVuSans-3d" x="358.789062"/>
     <use xlink:href="#DejaVuSans-20" x="442.578125"/>
     <use xlink:href="#DejaVuSans-38" x="474.365234"/>
     <use xlink:href="#DejaVuSans-35" x="537.988281"/>
     <use xlink:href="#DejaVuSans-33" x="601.611328"/>
     <use xlink:href="#DejaVuSans-2e" x="665.234375"/>
     <use xlink:href="#DejaVuSans-35" x="697.021484"/>
     <use xlink:href="#DejaVuSans-32" x="760.644531"/>
     <use xlink:href="#DejaVuSans-31" x="824.267578"/>
     <use xlink:href="#DejaVuSans-38" x="887.890625"/>
     <use xlink:href="#DejaVuSans-37" x="951.513672"/>
     <use xlink:href="#DejaVuSans-39" x="1015.136719"/>
     <use xlink:href="#DejaVuSans-38" x="1078.759766"/>
     <use xlink:href="#DejaVuSans-37" x="1142.382812"/>
     <use xlink:href="#DejaVuSans-38" x="1206.005859"/>
     <use xlink:href="#DejaVuSans-31" x="1269.628906"/>
     <use xlink:href="#DejaVuSans-38" x="1333.251953"/>
     <use xlink:href="#DejaVuSans-30" x="1396.875"/>
     <use xlink:href="#DejaVuSans-36" x="1460.498047"/>
     <use xlink:href="#DejaVuSans-64" x="1524.121094"/>
     <use xlink:href="#DejaVuSans-69" x="1587.597656"/>
     <use xlink:href="#DejaVuSans-66" x="1615.380859"/>
     <use xlink:href="#DejaVuSans-66" x="1650.585938"/>
     <use xlink:href="#DejaVuSans-20" x="1685.791016"/>
     <use xlink:href="#DejaVuSans-3d" x="1717.578125"/>
     <use xlink:href="#DejaVuSans-20" x="1801.367188"/>
     <use xlink:href="#DejaVuSans-34" x="1833.154297"/>
     <use xlink:href="#DejaVuSans-35" x="1896.777344"/>
     <use xlink:href="#DejaVuSans-30" x="1960.400391"/>
     <use xlink:href="#DejaVuSans-32" x="2024.023438"/>
     <use xlink:href="#DejaVuSans-2e" x="2087.646484"/>
     <use xlink:href="#DejaVuSans-36" x="2119.433594"/>
     <use xlink:href="#DejaVuSans-36" x="2183.056641"/>
     <use xlink:href="#DejaVuSans-30" x="2246.679688"/>
     <use xlink:href="#DejaVuSans-30" x="2310.302734"/>
     <use xlink:href="#DejaVuSans-31" x="2373.925781"/>
     <use xlink:href="#DejaVuSans-36" x="2437.548828"/>
     <use xlink:href="#DejaVuSans-37" x="2501.171875"/>
     <use xlink:href="#DejaVuSans-30" x="2564.794922"/>
     <use xlink:href="#DejaVuSans-39" x="2628.417969"/>
     <use xlink:href="#DejaVuSans-37" x="2692.041016"/>
     <use xlink:href="#DejaVuSans-32" x="2755.664062"/>
     <use xlink:href="#DejaVuSans-32" x="2819.287109"/>
    </g>
   </g>
   <g id="legend_1">
    <g id="patch_7">
     <path d="M 64.6 78.82825 
L 208.43125 78.82825 
Q 210.43125 78.82825 210.43125 76.82825 
L 210.43125 48.472 
Q 210.43125 46.472 208.43125 46.472 
L 64.6 46.472 
Q 62.6 46.472 62.6 48.472 
L 62.6 76.82825 
Q 62.6 78.82825 64.6 78.82825 
z
" style="fill: #ffffff; opacity: 0.8; stroke: #cccccc; stroke-linejoin: miter"/>
    </g>
    <g id="line2d_17">
     <path d="M 66.6 54.570437 
L 76.6 54.570437 
L 86.6 54.570437 
" style="fill: none; stroke-dasharray: 2,3.3; stroke-dashoffset: 0; stroke: #0000ff; stroke-width: 2"/>
    </g>
    <g id="text_18">
     <!-- Average (Default) -->
     <g transform="translate(94.6 58.070437)scale(0.1 -0.1)">
      <defs>
       <path id="DejaVuSans-41" d="M 2188 4044 
L 1331 1722 
L 3047 1722 
L 2188 4044 
z
M 1831 4666 
L 2547 4666 
L 4325 0 
L 3669 0 
L 3244 1197 
L 1141 1197 
L 716 0 
L 50 0 
L 1831 4666 
z
" transform="scale(0.015625)"/>
       <path id="DejaVuSans-28" d="M 1984 4856 
Q 1566 4138 1362 3434 
Q 1159 2731 1159 2009 
Q 1159 1288 1364 580 
Q 1569 -128 1984 -844 
L 1484 -844 
Q 1016 -109 783 600 
Q 550 1309 550 2009 
Q 550 2706 781 3412 
Q 1013 4119 1484 4856 
L 1984 4856 
z
" transform="scale(0.015625)"/>
       <path id="DejaVuSans-44" d="M 1259 4147 
L 1259 519 
L 2022 519 
Q 2988 519 3436 956 
Q 3884 1394 3884 2338 
Q 3884 3275 3436 3711 
Q 2988 4147 2022 4147 
L 1259 4147 
z
M 628 4666 
L 1925 4666 
Q 3281 4666 3915 4102 
Q 4550 3538 4550 2338 
Q 4550 1131 3912 565 
Q 3275 0 1925 0 
L 628 0 
L 628 4666 
z
" transform="scale(0.015625)"/>
       <path id="DejaVuSans-29" d="M 513 4856 
L 1013 4856 
Q 1481 4119 1714 3412 
Q 1947 2706 1947 2009 
Q 1947 1309 1714 600 
Q 1481 -109 1013 -844 
L 513 -844 
Q 928 -128 1133 580 
Q 1338 1288 1338 2009 
Q 1338 2731 1133 3434 
Q 928 4138 513 4856 
z
" transform="scale(0.015625)"/>
      </defs>
      <use xlink:href="#DejaVuSans-41"/>
      <use xlink:href="#DejaVuSans-76" x="62.533203"/>
      <use xlink:href="#DejaVuSans-65" x="121.712891"/>
      <use xlink:href="#DejaVuSans-72" x="183.236328"/>
      <use xlink:href="#DejaVuSans-61" x="224.349609"/>
      <use xlink:href="#DejaVuSans-67" x="285.628906"/>
      <use xlink:href="#DejaVuSans-65" x="349.105469"/>
      <use xlink:href="#DejaVuSans-20" x="410.628906"/>
      <use xlink:href="#DejaVuSans-28" x="442.416016"/>
      <use xlink:href="#DejaVuSans-44" x="481.429688"/>
      <use xlink:href="#DejaVuSans-65" x="558.431641"/>
      <use xlink:href="#DejaVuSans-66" x="619.955078"/>
      <use xlink:href="#DejaVuSans-61" x="655.160156"/>
      <use xlink:href="#DejaVuSans-75" x="716.439453"/>
      <use xlink:href="#DejaVuSans-6c" x="779.818359"/>
      <use xlink:href="#DejaVuSans-74" x="807.601562"/>
      <use xlink:href="#DejaVuSans-29" x="846.810547"/>
     </g>
    </g>
    <g id="line2d_18">
     <path d="M 66.6 69.248562 
L 76.6 69.248562 
L 86.6 69.248562 
" style="fill: none; stroke-dasharray: 2,3.3; stroke-dashoffset: 0; stroke: #ffa500; stroke-width: 2"/>
    </g>
    <g id="text_19">
     <!-- Average (Anticipation) -->
     <g transform="translate(94.6 72.748562)scale(0.1 -0.1)">
      <defs>
       <path id="DejaVuSans-63" d="M 3122 3366 
L 3122 2828 
Q 2878 2963 2633 3030 
Q 2388 3097 2138 3097 
Q 1578 3097 1268 2742 
Q 959 2388 959 1747 
Q 959 1106 1268 751 
Q 1578 397 2138 397 
Q 2388 397 2633 464 
Q 2878 531 3122 666 
L 3122 134 
Q 2881 22 2623 -34 
Q 2366 -91 2075 -91 
Q 1284 -91 818 406 
Q 353 903 353 1747 
Q 353 2603 823 3093 
Q 1294 3584 2113 3584 
Q 2378 3584 2631 3529 
Q 2884 3475 3122 3366 
z
" transform="scale(0.015625)"/>
       <path id="DejaVuSans-70" d="M 1159 525 
L 1159 -1331 
L 581 -1331 
L 581 3500 
L 1159 3500 
L 1159 2969 
Q 1341 3281 1617 3432 
Q 1894 3584 2278 3584 
Q 2916 3584 3314 3078 
Q 3713 2572 3713 1747 
Q 3713 922 3314 415 
Q 2916 -91 2278 -91 
Q 1894 -91 1617 61 
Q 1341 213 1159 525 
z
M 3116 1747 
Q 3116 2381 2855 2742 
Q 2594 3103 2138 3103 
Q 1681 3103 1420 2742 
Q 1159 2381 1159 1747 
Q 1159 1113 1420 752 
Q 1681 391 2138 391 
Q 2594 391 2855 752 
Q 3116 1113 3116 1747 
z
" transform="scale(0.015625)"/>
      </defs>
      <use xlink:href="#DejaVuSans-41"/>
      <use xlink:href="#DejaVuSans-76" x="62.533203"/>
      <use xlink:href="#DejaVuSans-65" x="121.712891"/>
      <use xlink:href="#DejaVuSans-72" x="183.236328"/>
      <use xlink:href="#DejaVuSans-61" x="224.349609"/>
      <use xlink:href="#DejaVuSans-67" x="285.628906"/>
      <use xlink:href="#DejaVuSans-65" x="349.105469"/>
      <use xlink:href="#DejaVuSans-20" x="410.628906"/>
      <use xlink:href="#DejaVuSans-28" x="442.416016"/>
      <use xlink:href="#DejaVuSans-41" x="481.429688"/>
      <use xlink:href="#DejaVuSans-6e" x="549.837891"/>
      <use xlink:href="#DejaVuSans-74" x="613.216797"/>
      <use xlink:href="#DejaVuSans-69" x="652.425781"/>
      <use xlink:href="#DejaVuSans-63" x="680.208984"/>
      <use xlink:href="#DejaVuSans-69" x="735.189453"/>
      <use xlink:href="#DejaVuSans-70" x="762.972656"/>
      <use xlink:href="#DejaVuSans-61" x="826.449219"/>
      <use xlink:href="#DejaVuSans-74" x="887.728516"/>
      <use xlink:href="#DejaVuSans-69" x="926.9375"/>
      <use xlink:href="#DejaVuSans-6f" x="954.720703"/>
      <use xlink:href="#DejaVuSans-6e" x="1015.902344"/>
      <use xlink:href="#DejaVuSans-29" x="1079.28125"/>
     </g>
    </g>
   </g>
  </g>
 </g>
 <defs>
  <clipPath id="p1a8a7bc68b">
   <rect x="57.6" y="41.472" width="357.12" height="266.112"/>
  </clipPath>
 </defs>
</svg>
