<?xml version="1.0" encoding="utf-8" standalone="no"?>
<!DOCTYPE svg PUBLIC "-//W3C//DTD SVG 1.1//EN"
  "http://www.w3.org/Graphics/SVG/1.1/DTD/svg11.dtd">
<svg xmlns:xlink="http://www.w3.org/1999/xlink" width="460.8pt" height="345.6pt" viewBox="0 0 460.8 345.6" xmlns="http://www.w3.org/2000/svg" version="1.1">
 <metadata>
  <rdf:RDF xmlns:dc="http://purl.org/dc/elements/1.1/" xmlns:cc="http://creativecommons.org/ns#" xmlns:rdf="http://www.w3.org/1999/02/22-rdf-syntax-ns#">
   <cc:Work>
    <dc:type rdf:resource="http://purl.org/dc/dcmitype/StillImage"/>
    <dc:date>2022-10-06T17:21:56.231826</dc:date>
    <dc:format>image/svg+xml</dc:format>
    <dc:creator>
     <cc:Agent>
      <dc:title>Matplotlib v3.5.3, https://matplotlib.org/</dc:title>
     </cc:Agent>
    </dc:creator>
   </cc:Work>
  </rdf:RDF>
 </metadata>
 <defs>
  <style type="text/css">*{stroke-linejoin: round; stroke-linecap: butt}</style>
 </defs>
 <g id="figure_1">
  <g id="patch_1">
   <path d="M 0 345.6 
L 460.8 345.6 
L 460.8 0 
L 0 0 
z
" style="fill: #ffffff"/>
  </g>
  <g id="axes_1">
   <g id="patch_2">
    <path d="M 57.6 307.584 
L 414.72 307.584 
L 414.72 41.472 
L 57.6 41.472 
z
" style="fill: #ffffff"/>
   </g>
   <g id="matplotlib.axis_1">
    <g id="xtick_1">
     <g id="line2d_1">
      <defs>
       <path id="m568ea3678c" d="M 0 0 
L 0 3.5 
" style="stroke: #000000; stroke-width: 0.8"/>
      </defs>
      <g>
       <use xlink:href="#m568ea3678c" x="73.832727" y="307.584" style="stroke: #000000; stroke-width: 0.8"/>
      </g>
     </g>
     <g id="text_1">
      <!-- 0 -->
      <g transform="translate(70.651477 322.182437)scale(0.1 -0.1)">
       <defs>
        <path id="DejaVuSans-30" d="M 2034 4250 
Q 1547 4250 1301 3770 
Q 1056 3291 1056 2328 
Q 1056 1369 1301 889 
Q 1547 409 2034 409 
Q 2525 409 2770 889 
Q 3016 1369 3016 2328 
Q 3016 3291 2770 3770 
Q 2525 4250 2034 4250 
z
M 2034 4750 
Q 2819 4750 3233 4129 
Q 3647 3509 3647 2328 
Q 3647 1150 3233 529 
Q 2819 -91 2034 -91 
Q 1250 -91 836 529 
Q 422 1150 422 2328 
Q 422 3509 836 4129 
Q 1250 4750 2034 4750 
z
" transform="scale(0.015625)"/>
       </defs>
       <use xlink:href="#DejaVuSans-30"/>
      </g>
     </g>
    </g>
    <g id="xtick_2">
     <g id="line2d_2">
      <g>
       <use xlink:href="#m568ea3678c" x="138.828632" y="307.584" style="stroke: #000000; stroke-width: 0.8"/>
      </g>
     </g>
     <g id="text_2">
      <!-- 200 -->
      <g transform="translate(129.284882 322.182437)scale(0.1 -0.1)">
       <defs>
        <path id="DejaVuSans-32" d="M 1228 531 
L 3431 531 
L 3431 0 
L 469 0 
L 469 531 
Q 828 903 1448 1529 
Q 2069 2156 2228 2338 
Q 2531 2678 2651 2914 
Q 2772 3150 2772 3378 
Q 2772 3750 2511 3984 
Q 2250 4219 1831 4219 
Q 1534 4219 1204 4116 
Q 875 4013 500 3803 
L 500 4441 
Q 881 4594 1212 4672 
Q 1544 4750 1819 4750 
Q 2544 4750 2975 4387 
Q 3406 4025 3406 3419 
Q 3406 3131 3298 2873 
Q 3191 2616 2906 2266 
Q 2828 2175 2409 1742 
Q 1991 1309 1228 531 
z
" transform="scale(0.015625)"/>
       </defs>
       <use xlink:href="#DejaVuSans-32"/>
       <use xlink:href="#DejaVuSans-30" x="63.623047"/>
       <use xlink:href="#DejaVuSans-30" x="127.246094"/>
      </g>
     </g>
    </g>
    <g id="xtick_3">
     <g id="line2d_3">
      <g>
       <use xlink:href="#m568ea3678c" x="203.824537" y="307.584" style="stroke: #000000; stroke-width: 0.8"/>
      </g>
     </g>
     <g id="text_3">
      <!-- 400 -->
      <g transform="translate(194.280787 322.182437)scale(0.1 -0.1)">
       <defs>
        <path id="DejaVuSans-34" d="M 2419 4116 
L 825 1625 
L 2419 1625 
L 2419 4116 
z
M 2253 4666 
L 3047 4666 
L 3047 1625 
L 3713 1625 
L 3713 1100 
L 3047 1100 
L 3047 0 
L 2419 0 
L 2419 1100 
L 313 1100 
L 313 1709 
L 2253 4666 
z
" transform="scale(0.015625)"/>
       </defs>
       <use xlink:href="#DejaVuSans-34"/>
       <use xlink:href="#DejaVuSans-30" x="63.623047"/>
       <use xlink:href="#DejaVuSans-30" x="127.246094"/>
      </g>
     </g>
    </g>
    <g id="xtick_4">
     <g id="line2d_4">
      <g>
       <use xlink:href="#m568ea3678c" x="268.820442" y="307.584" style="stroke: #000000; stroke-width: 0.8"/>
      </g>
     </g>
     <g id="text_4">
      <!-- 600 -->
      <g transform="translate(259.276692 322.182437)scale(0.1 -0.1)">
       <defs>
        <path id="DejaVuSans-36" d="M 2113 2584 
Q 1688 2584 1439 2293 
Q 1191 2003 1191 1497 
Q 1191 994 1439 701 
Q 1688 409 2113 409 
Q 2538 409 2786 701 
Q 3034 994 3034 1497 
Q 3034 2003 2786 2293 
Q 2538 2584 2113 2584 
z
M 3366 4563 
L 3366 3988 
Q 3128 4100 2886 4159 
Q 2644 4219 2406 4219 
Q 1781 4219 1451 3797 
Q 1122 3375 1075 2522 
Q 1259 2794 1537 2939 
Q 1816 3084 2150 3084 
Q 2853 3084 3261 2657 
Q 3669 2231 3669 1497 
Q 3669 778 3244 343 
Q 2819 -91 2113 -91 
Q 1303 -91 875 529 
Q 447 1150 447 2328 
Q 447 3434 972 4092 
Q 1497 4750 2381 4750 
Q 2619 4750 2861 4703 
Q 3103 4656 3366 4563 
z
" transform="scale(0.015625)"/>
       </defs>
       <use xlink:href="#DejaVuSans-36"/>
       <use xlink:href="#DejaVuSans-30" x="63.623047"/>
       <use xlink:href="#DejaVuSans-30" x="127.246094"/>
      </g>
     </g>
    </g>
    <g id="xtick_5">
     <g id="line2d_5">
      <g>
       <use xlink:href="#m568ea3678c" x="333.816347" y="307.584" style="stroke: #000000; stroke-width: 0.8"/>
      </g>
     </g>
     <g id="text_5">
      <!-- 800 -->
      <g transform="translate(324.272597 322.182437)scale(0.1 -0.1)">
       <defs>
        <path id="DejaVuSans-38" d="M 2034 2216 
Q 1584 2216 1326 1975 
Q 1069 1734 1069 1313 
Q 1069 891 1326 650 
Q 1584 409 2034 409 
Q 2484 409 2743 651 
Q 3003 894 3003 1313 
Q 3003 1734 2745 1975 
Q 2488 2216 2034 2216 
z
M 1403 2484 
Q 997 2584 770 2862 
Q 544 3141 544 3541 
Q 544 4100 942 4425 
Q 1341 4750 2034 4750 
Q 2731 4750 3128 4425 
Q 3525 4100 3525 3541 
Q 3525 3141 3298 2862 
Q 3072 2584 2669 2484 
Q 3125 2378 3379 2068 
Q 3634 1759 3634 1313 
Q 3634 634 3220 271 
Q 2806 -91 2034 -91 
Q 1263 -91 848 271 
Q 434 634 434 1313 
Q 434 1759 690 2068 
Q 947 2378 1403 2484 
z
M 1172 3481 
Q 1172 3119 1398 2916 
Q 1625 2713 2034 2713 
Q 2441 2713 2670 2916 
Q 2900 3119 2900 3481 
Q 2900 3844 2670 4047 
Q 2441 4250 2034 4250 
Q 1625 4250 1398 4047 
Q 1172 3844 1172 3481 
z
" transform="scale(0.015625)"/>
       </defs>
       <use xlink:href="#DejaVuSans-38"/>
       <use xlink:href="#DejaVuSans-30" x="63.623047"/>
       <use xlink:href="#DejaVuSans-30" x="127.246094"/>
      </g>
     </g>
    </g>
    <g id="xtick_6">
     <g id="line2d_6">
      <g>
       <use xlink:href="#m568ea3678c" x="398.812252" y="307.584" style="stroke: #000000; stroke-width: 0.8"/>
      </g>
     </g>
     <g id="text_6">
      <!-- 1000 -->
      <g transform="translate(386.087252 322.182437)scale(0.1 -0.1)">
       <defs>
        <path id="DejaVuSans-31" d="M 794 531 
L 1825 531 
L 1825 4091 
L 703 3866 
L 703 4441 
L 1819 4666 
L 2450 4666 
L 2450 531 
L 3481 531 
L 3481 0 
L 794 0 
L 794 531 
z
" transform="scale(0.015625)"/>
       </defs>
       <use xlink:href="#DejaVuSans-31"/>
       <use xlink:href="#DejaVuSans-30" x="63.623047"/>
       <use xlink:href="#DejaVuSans-30" x="127.246094"/>
       <use xlink:href="#DejaVuSans-30" x="190.869141"/>
      </g>
     </g>
    </g>
    <g id="text_7">
     <!-- Number of Orders -->
     <g transform="translate(191.261562 335.860562)scale(0.1 -0.1)">
      <defs>
       <path id="DejaVuSans-4e" d="M 628 4666 
L 1478 4666 
L 3547 763 
L 3547 4666 
L 4159 4666 
L 4159 0 
L 3309 0 
L 1241 3903 
L 1241 0 
L 628 0 
L 628 4666 
z
" transform="scale(0.015625)"/>
       <path id="DejaVuSans-75" d="M 544 1381 
L 544 3500 
L 1119 3500 
L 1119 1403 
Q 1119 906 1312 657 
Q 1506 409 1894 409 
Q 2359 409 2629 706 
Q 2900 1003 2900 1516 
L 2900 3500 
L 3475 3500 
L 3475 0 
L 2900 0 
L 2900 538 
Q 2691 219 2414 64 
Q 2138 -91 1772 -91 
Q 1169 -91 856 284 
Q 544 659 544 1381 
z
M 1991 3584 
L 1991 3584 
z
" transform="scale(0.015625)"/>
       <path id="DejaVuSans-6d" d="M 3328 2828 
Q 3544 3216 3844 3400 
Q 4144 3584 4550 3584 
Q 5097 3584 5394 3201 
Q 5691 2819 5691 2113 
L 5691 0 
L 5113 0 
L 5113 2094 
Q 5113 2597 4934 2840 
Q 4756 3084 4391 3084 
Q 3944 3084 3684 2787 
Q 3425 2491 3425 1978 
L 3425 0 
L 2847 0 
L 2847 2094 
Q 2847 2600 2669 2842 
Q 2491 3084 2119 3084 
Q 1678 3084 1418 2786 
Q 1159 2488 1159 1978 
L 1159 0 
L 581 0 
L 581 3500 
L 1159 3500 
L 1159 2956 
Q 1356 3278 1631 3431 
Q 1906 3584 2284 3584 
Q 2666 3584 2933 3390 
Q 3200 3197 3328 2828 
z
" transform="scale(0.015625)"/>
       <path id="DejaVuSans-62" d="M 3116 1747 
Q 3116 2381 2855 2742 
Q 2594 3103 2138 3103 
Q 1681 3103 1420 2742 
Q 1159 2381 1159 1747 
Q 1159 1113 1420 752 
Q 1681 391 2138 391 
Q 2594 391 2855 752 
Q 3116 1113 3116 1747 
z
M 1159 2969 
Q 1341 3281 1617 3432 
Q 1894 3584 2278 3584 
Q 2916 3584 3314 3078 
Q 3713 2572 3713 1747 
Q 3713 922 3314 415 
Q 2916 -91 2278 -91 
Q 1894 -91 1617 61 
Q 1341 213 1159 525 
L 1159 0 
L 581 0 
L 581 4863 
L 1159 4863 
L 1159 2969 
z
" transform="scale(0.015625)"/>
       <path id="DejaVuSans-65" d="M 3597 1894 
L 3597 1613 
L 953 1613 
Q 991 1019 1311 708 
Q 1631 397 2203 397 
Q 2534 397 2845 478 
Q 3156 559 3463 722 
L 3463 178 
Q 3153 47 2828 -22 
Q 2503 -91 2169 -91 
Q 1331 -91 842 396 
Q 353 884 353 1716 
Q 353 2575 817 3079 
Q 1281 3584 2069 3584 
Q 2775 3584 3186 3129 
Q 3597 2675 3597 1894 
z
M 3022 2063 
Q 3016 2534 2758 2815 
Q 2500 3097 2075 3097 
Q 1594 3097 1305 2825 
Q 1016 2553 972 2059 
L 3022 2063 
z
" transform="scale(0.015625)"/>
       <path id="DejaVuSans-72" d="M 2631 2963 
Q 2534 3019 2420 3045 
Q 2306 3072 2169 3072 
Q 1681 3072 1420 2755 
Q 1159 2438 1159 1844 
L 1159 0 
L 581 0 
L 581 3500 
L 1159 3500 
L 1159 2956 
Q 1341 3275 1631 3429 
Q 1922 3584 2338 3584 
Q 2397 3584 2469 3576 
Q 2541 3569 2628 3553 
L 2631 2963 
z
" transform="scale(0.015625)"/>
       <path id="DejaVuSans-20" transform="scale(0.015625)"/>
       <path id="DejaVuSans-6f" d="M 1959 3097 
Q 1497 3097 1228 2736 
Q 959 2375 959 1747 
Q 959 1119 1226 758 
Q 1494 397 1959 397 
Q 2419 397 2687 759 
Q 2956 1122 2956 1747 
Q 2956 2369 2687 2733 
Q 2419 3097 1959 3097 
z
M 1959 3584 
Q 2709 3584 3137 3096 
Q 3566 2609 3566 1747 
Q 3566 888 3137 398 
Q 2709 -91 1959 -91 
Q 1206 -91 779 398 
Q 353 888 353 1747 
Q 353 2609 779 3096 
Q 1206 3584 1959 3584 
z
" transform="scale(0.015625)"/>
       <path id="DejaVuSans-66" d="M 2375 4863 
L 2375 4384 
L 1825 4384 
Q 1516 4384 1395 4259 
Q 1275 4134 1275 3809 
L 1275 3500 
L 2222 3500 
L 2222 3053 
L 1275 3053 
L 1275 0 
L 697 0 
L 697 3053 
L 147 3053 
L 147 3500 
L 697 3500 
L 697 3744 
Q 697 4328 969 4595 
Q 1241 4863 1831 4863 
L 2375 4863 
z
" transform="scale(0.015625)"/>
       <path id="DejaVuSans-4f" d="M 2522 4238 
Q 1834 4238 1429 3725 
Q 1025 3213 1025 2328 
Q 1025 1447 1429 934 
Q 1834 422 2522 422 
Q 3209 422 3611 934 
Q 4013 1447 4013 2328 
Q 4013 3213 3611 3725 
Q 3209 4238 2522 4238 
z
M 2522 4750 
Q 3503 4750 4090 4092 
Q 4678 3434 4678 2328 
Q 4678 1225 4090 567 
Q 3503 -91 2522 -91 
Q 1538 -91 948 565 
Q 359 1222 359 2328 
Q 359 3434 948 4092 
Q 1538 4750 2522 4750 
z
" transform="scale(0.015625)"/>
       <path id="DejaVuSans-64" d="M 2906 2969 
L 2906 4863 
L 3481 4863 
L 3481 0 
L 2906 0 
L 2906 525 
Q 2725 213 2448 61 
Q 2172 -91 1784 -91 
Q 1150 -91 751 415 
Q 353 922 353 1747 
Q 353 2572 751 3078 
Q 1150 3584 1784 3584 
Q 2172 3584 2448 3432 
Q 2725 3281 2906 2969 
z
M 947 1747 
Q 947 1113 1208 752 
Q 1469 391 1925 391 
Q 2381 391 2643 752 
Q 2906 1113 2906 1747 
Q 2906 2381 2643 2742 
Q 2381 3103 1925 3103 
Q 1469 3103 1208 2742 
Q 947 2381 947 1747 
z
" transform="scale(0.015625)"/>
       <path id="DejaVuSans-73" d="M 2834 3397 
L 2834 2853 
Q 2591 2978 2328 3040 
Q 2066 3103 1784 3103 
Q 1356 3103 1142 2972 
Q 928 2841 928 2578 
Q 928 2378 1081 2264 
Q 1234 2150 1697 2047 
L 1894 2003 
Q 2506 1872 2764 1633 
Q 3022 1394 3022 966 
Q 3022 478 2636 193 
Q 2250 -91 1575 -91 
Q 1294 -91 989 -36 
Q 684 19 347 128 
L 347 722 
Q 666 556 975 473 
Q 1284 391 1588 391 
Q 1994 391 2212 530 
Q 2431 669 2431 922 
Q 2431 1156 2273 1281 
Q 2116 1406 1581 1522 
L 1381 1569 
Q 847 1681 609 1914 
Q 372 2147 372 2553 
Q 372 3047 722 3315 
Q 1072 3584 1716 3584 
Q 2034 3584 2315 3537 
Q 2597 3491 2834 3397 
z
" transform="scale(0.015625)"/>
      </defs>
      <use xlink:href="#DejaVuSans-4e"/>
      <use xlink:href="#DejaVuSans-75" x="74.804688"/>
      <use xlink:href="#DejaVuSans-6d" x="138.183594"/>
      <use xlink:href="#DejaVuSans-62" x="235.595703"/>
      <use xlink:href="#DejaVuSans-65" x="299.072266"/>
      <use xlink:href="#DejaVuSans-72" x="360.595703"/>
      <use xlink:href="#DejaVuSans-20" x="401.708984"/>
      <use xlink:href="#DejaVuSans-6f" x="433.496094"/>
      <use xlink:href="#DejaVuSans-66" x="494.677734"/>
      <use xlink:href="#DejaVuSans-20" x="529.882812"/>
      <use xlink:href="#DejaVuSans-4f" x="561.669922"/>
      <use xlink:href="#DejaVuSans-72" x="640.380859"/>
      <use xlink:href="#DejaVuSans-64" x="679.744141"/>
      <use xlink:href="#DejaVuSans-65" x="743.220703"/>
      <use xlink:href="#DejaVuSans-72" x="804.744141"/>
      <use xlink:href="#DejaVuSans-73" x="845.857422"/>
     </g>
    </g>
   </g>
   <g id="matplotlib.axis_2">
    <g id="ytick_1">
     <g id="line2d_7">
      <defs>
       <path id="m1bb770fca8" d="M 0 0 
L -3.5 0 
" style="stroke: #000000; stroke-width: 0.8"/>
      </defs>
      <g>
       <use xlink:href="#m1bb770fca8" x="57.6" y="298.928709" style="stroke: #000000; stroke-width: 0.8"/>
      </g>
     </g>
     <g id="text_8">
      <!-- 500 -->
      <g transform="translate(31.5125 302.727928)scale(0.1 -0.1)">
       <defs>
        <path id="DejaVuSans-35" d="M 691 4666 
L 3169 4666 
L 3169 4134 
L 1269 4134 
L 1269 2991 
Q 1406 3038 1543 3061 
Q 1681 3084 1819 3084 
Q 2600 3084 3056 2656 
Q 3513 2228 3513 1497 
Q 3513 744 3044 326 
Q 2575 -91 1722 -91 
Q 1428 -91 1123 -41 
Q 819 9 494 109 
L 494 744 
Q 775 591 1075 516 
Q 1375 441 1709 441 
Q 2250 441 2565 725 
Q 2881 1009 2881 1497 
Q 2881 1984 2565 2268 
Q 2250 2553 1709 2553 
Q 1456 2553 1204 2497 
Q 953 2441 691 2322 
L 691 4666 
z
" transform="scale(0.015625)"/>
       </defs>
       <use xlink:href="#DejaVuSans-35"/>
       <use xlink:href="#DejaVuSans-30" x="63.623047"/>
       <use xlink:href="#DejaVuSans-30" x="127.246094"/>
      </g>
     </g>
    </g>
    <g id="ytick_2">
     <g id="line2d_8">
      <g>
       <use xlink:href="#m1bb770fca8" x="57.6" y="253.231184" style="stroke: #000000; stroke-width: 0.8"/>
      </g>
     </g>
     <g id="text_9">
      <!-- 1000 -->
      <g transform="translate(25.15 257.030403)scale(0.1 -0.1)">
       <use xlink:href="#DejaVuSans-31"/>
       <use xlink:href="#DejaVuSans-30" x="63.623047"/>
       <use xlink:href="#DejaVuSans-30" x="127.246094"/>
       <use xlink:href="#DejaVuSans-30" x="190.869141"/>
      </g>
     </g>
    </g>
    <g id="ytick_3">
     <g id="line2d_9">
      <g>
       <use xlink:href="#m1bb770fca8" x="57.6" y="207.53366" style="stroke: #000000; stroke-width: 0.8"/>
      </g>
     </g>
     <g id="text_10">
      <!-- 1500 -->
      <g transform="translate(25.15 211.332878)scale(0.1 -0.1)">
       <use xlink:href="#DejaVuSans-31"/>
       <use xlink:href="#DejaVuSans-35" x="63.623047"/>
       <use xlink:href="#DejaVuSans-30" x="127.246094"/>
       <use xlink:href="#DejaVuSans-30" x="190.869141"/>
      </g>
     </g>
    </g>
    <g id="ytick_4">
     <g id="line2d_10">
      <g>
       <use xlink:href="#m1bb770fca8" x="57.6" y="161.836135" style="stroke: #000000; stroke-width: 0.8"/>
      </g>
     </g>
     <g id="text_11">
      <!-- 2000 -->
      <g transform="translate(25.15 165.635354)scale(0.1 -0.1)">
       <use xlink:href="#DejaVuSans-32"/>
       <use xlink:href="#DejaVuSans-30" x="63.623047"/>
       <use xlink:href="#DejaVuSans-30" x="127.246094"/>
       <use xlink:href="#DejaVuSans-30" x="190.869141"/>
      </g>
     </g>
    </g>
    <g id="ytick_5">
     <g id="line2d_11">
      <g>
       <use xlink:href="#m1bb770fca8" x="57.6" y="116.13861" style="stroke: #000000; stroke-width: 0.8"/>
      </g>
     </g>
     <g id="text_12">
      <!-- 2500 -->
      <g transform="translate(25.15 119.937829)scale(0.1 -0.1)">
       <use xlink:href="#DejaVuSans-32"/>
       <use xlink:href="#DejaVuSans-35" x="63.623047"/>
       <use xlink:href="#DejaVuSans-30" x="127.246094"/>
       <use xlink:href="#DejaVuSans-30" x="190.869141"/>
      </g>
     </g>
    </g>
    <g id="ytick_6">
     <g id="line2d_12">
      <g>
       <use xlink:href="#m1bb770fca8" x="57.6" y="70.441085" style="stroke: #000000; stroke-width: 0.8"/>
      </g>
     </g>
     <g id="text_13">
      <!-- 3000 -->
      <g transform="translate(25.15 74.240304)scale(0.1 -0.1)">
       <defs>
        <path id="DejaVuSans-33" d="M 2597 2516 
Q 3050 2419 3304 2112 
Q 3559 1806 3559 1356 
Q 3559 666 3084 287 
Q 2609 -91 1734 -91 
Q 1441 -91 1130 -33 
Q 819 25 488 141 
L 488 750 
Q 750 597 1062 519 
Q 1375 441 1716 441 
Q 2309 441 2620 675 
Q 2931 909 2931 1356 
Q 2931 1769 2642 2001 
Q 2353 2234 1838 2234 
L 1294 2234 
L 1294 2753 
L 1863 2753 
Q 2328 2753 2575 2939 
Q 2822 3125 2822 3475 
Q 2822 3834 2567 4026 
Q 2313 4219 1838 4219 
Q 1578 4219 1281 4162 
Q 984 4106 628 3988 
L 628 4550 
Q 988 4650 1302 4700 
Q 1616 4750 1894 4750 
Q 2613 4750 3031 4423 
Q 3450 4097 3450 3541 
Q 3450 3153 3228 2886 
Q 3006 2619 2597 2516 
z
" transform="scale(0.015625)"/>
       </defs>
       <use xlink:href="#DejaVuSans-33"/>
       <use xlink:href="#DejaVuSans-30" x="63.623047"/>
       <use xlink:href="#DejaVuSans-30" x="127.246094"/>
       <use xlink:href="#DejaVuSans-30" x="190.869141"/>
      </g>
     </g>
    </g>
    <g id="text_14">
     <!-- Waiting Time/s -->
     <g transform="translate(19.070312 211.410031)rotate(-90)scale(0.1 -0.1)">
      <defs>
       <path id="DejaVuSans-57" d="M 213 4666 
L 850 4666 
L 1831 722 
L 2809 4666 
L 3519 4666 
L 4500 722 
L 5478 4666 
L 6119 4666 
L 4947 0 
L 4153 0 
L 3169 4050 
L 2175 0 
L 1381 0 
L 213 4666 
z
" transform="scale(0.015625)"/>
       <path id="DejaVuSans-61" d="M 2194 1759 
Q 1497 1759 1228 1600 
Q 959 1441 959 1056 
Q 959 750 1161 570 
Q 1363 391 1709 391 
Q 2188 391 2477 730 
Q 2766 1069 2766 1631 
L 2766 1759 
L 2194 1759 
z
M 3341 1997 
L 3341 0 
L 2766 0 
L 2766 531 
Q 2569 213 2275 61 
Q 1981 -91 1556 -91 
Q 1019 -91 701 211 
Q 384 513 384 1019 
Q 384 1609 779 1909 
Q 1175 2209 1959 2209 
L 2766 2209 
L 2766 2266 
Q 2766 2663 2505 2880 
Q 2244 3097 1772 3097 
Q 1472 3097 1187 3025 
Q 903 2953 641 2809 
L 641 3341 
Q 956 3463 1253 3523 
Q 1550 3584 1831 3584 
Q 2591 3584 2966 3190 
Q 3341 2797 3341 1997 
z
" transform="scale(0.015625)"/>
       <path id="DejaVuSans-69" d="M 603 3500 
L 1178 3500 
L 1178 0 
L 603 0 
L 603 3500 
z
M 603 4863 
L 1178 4863 
L 1178 4134 
L 603 4134 
L 603 4863 
z
" transform="scale(0.015625)"/>
       <path id="DejaVuSans-74" d="M 1172 4494 
L 1172 3500 
L 2356 3500 
L 2356 3053 
L 1172 3053 
L 1172 1153 
Q 1172 725 1289 603 
Q 1406 481 1766 481 
L 2356 481 
L 2356 0 
L 1766 0 
Q 1100 0 847 248 
Q 594 497 594 1153 
L 594 3053 
L 172 3053 
L 172 3500 
L 594 3500 
L 594 4494 
L 1172 4494 
z
" transform="scale(0.015625)"/>
       <path id="DejaVuSans-6e" d="M 3513 2113 
L 3513 0 
L 2938 0 
L 2938 2094 
Q 2938 2591 2744 2837 
Q 2550 3084 2163 3084 
Q 1697 3084 1428 2787 
Q 1159 2491 1159 1978 
L 1159 0 
L 581 0 
L 581 3500 
L 1159 3500 
L 1159 2956 
Q 1366 3272 1645 3428 
Q 1925 3584 2291 3584 
Q 2894 3584 3203 3211 
Q 3513 2838 3513 2113 
z
" transform="scale(0.015625)"/>
       <path id="DejaVuSans-67" d="M 2906 1791 
Q 2906 2416 2648 2759 
Q 2391 3103 1925 3103 
Q 1463 3103 1205 2759 
Q 947 2416 947 1791 
Q 947 1169 1205 825 
Q 1463 481 1925 481 
Q 2391 481 2648 825 
Q 2906 1169 2906 1791 
z
M 3481 434 
Q 3481 -459 3084 -895 
Q 2688 -1331 1869 -1331 
Q 1566 -1331 1297 -1286 
Q 1028 -1241 775 -1147 
L 775 -588 
Q 1028 -725 1275 -790 
Q 1522 -856 1778 -856 
Q 2344 -856 2625 -561 
Q 2906 -266 2906 331 
L 2906 616 
Q 2728 306 2450 153 
Q 2172 0 1784 0 
Q 1141 0 747 490 
Q 353 981 353 1791 
Q 353 2603 747 3093 
Q 1141 3584 1784 3584 
Q 2172 3584 2450 3431 
Q 2728 3278 2906 2969 
L 2906 3500 
L 3481 3500 
L 3481 434 
z
" transform="scale(0.015625)"/>
       <path id="DejaVuSans-54" d="M -19 4666 
L 3928 4666 
L 3928 4134 
L 2272 4134 
L 2272 0 
L 1638 0 
L 1638 4134 
L -19 4134 
L -19 4666 
z
" transform="scale(0.015625)"/>
       <path id="DejaVuSans-2f" d="M 1625 4666 
L 2156 4666 
L 531 -594 
L 0 -594 
L 1625 4666 
z
" transform="scale(0.015625)"/>
      </defs>
      <use xlink:href="#DejaVuSans-57"/>
      <use xlink:href="#DejaVuSans-61" x="92.501953"/>
      <use xlink:href="#DejaVuSans-69" x="153.78125"/>
      <use xlink:href="#DejaVuSans-74" x="181.564453"/>
      <use xlink:href="#DejaVuSans-69" x="220.773438"/>
      <use xlink:href="#DejaVuSans-6e" x="248.556641"/>
      <use xlink:href="#DejaVuSans-67" x="311.935547"/>
      <use xlink:href="#DejaVuSans-20" x="375.412109"/>
      <use xlink:href="#DejaVuSans-54" x="407.199219"/>
      <use xlink:href="#DejaVuSans-69" x="465.158203"/>
      <use xlink:href="#DejaVuSans-6d" x="492.941406"/>
      <use xlink:href="#DejaVuSans-65" x="590.353516"/>
      <use xlink:href="#DejaVuSans-2f" x="651.876953"/>
      <use xlink:href="#DejaVuSans-73" x="685.568359"/>
     </g>
    </g>
   </g>
   <g id="line2d_13">
    <path d="M 73.832727 289.882644 
L 74.157707 285.815246 
L 74.482686 295.488 
L 75.132645 288.904588 
L 75.457625 289.130734 
L 75.782604 291.927344 
L 76.107584 291.922011 
L 76.757543 290.300057 
L 77.082523 287.007296 
L 77.407502 286.881953 
L 77.732482 286.506809 
L 78.057461 283.724949 
L 78.382441 285.120005 
L 78.70742 285.725684 
L 79.682359 279.314585 
L 80.007338 280.989844 
L 80.657297 278.870472 
L 80.982277 280.179316 
L 81.307256 279.934317 
L 81.957215 277.474918 
L 82.282195 276.765143 
L 82.607174 275.208267 
L 82.932154 274.232391 
L 83.257133 273.665956 
L 83.582113 271.558072 
L 83.907093 271.457609 
L 84.232072 270.454225 
L 84.557052 270.799327 
L 84.882031 270.456466 
L 85.207011 269.008162 
L 85.53199 268.978379 
L 86.831908 265.979128 
L 87.481867 268.037885 
L 87.806847 268.241509 
L 88.131826 267.862704 
L 88.456806 267.685836 
L 88.781785 267.851579 
L 89.106765 267.441428 
L 89.756724 265.696783 
L 90.731663 266.168404 
L 91.056642 265.815985 
L 91.381622 265.803309 
L 91.706601 266.157861 
L 92.031581 265.800285 
L 92.35656 266.257986 
L 92.68154 266.48608 
L 93.006519 266.874508 
L 93.656478 265.368613 
L 93.981458 265.036166 
L 94.306437 265.488029 
L 94.631417 265.701143 
L 94.956396 264.743859 
L 95.281376 265.18449 
L 95.606355 264.402504 
L 95.931335 264.508195 
L 96.256314 264.157584 
L 96.581294 263.185658 
L 96.906274 262.983362 
L 97.231253 262.592323 
L 97.556233 263.104299 
L 97.881212 262.780203 
L 98.206192 262.154198 
L 98.531171 261.886599 
L 98.856151 261.991448 
L 99.50611 261.389608 
L 99.831089 261.366804 
L 100.156069 261.195711 
L 100.481048 260.253078 
L 101.131007 260.277741 
L 101.455987 259.874974 
L 101.780966 259.840184 
L 102.430925 258.355649 
L 102.755905 258.460521 
L 103.080885 258.234982 
L 103.405864 258.153484 
L 103.730844 256.967311 
L 104.055823 256.476905 
L 104.705782 256.492987 
L 105.355741 255.763515 
L 105.680721 255.558647 
L 106.0057 255.086997 
L 106.33068 254.815914 
L 106.655659 254.717107 
L 106.980639 254.441359 
L 107.305618 254.628717 
L 107.630598 254.326799 
L 107.955577 254.588834 
L 108.280557 253.808236 
L 108.605536 253.617024 
L 109.580475 253.490804 
L 110.555414 252.305711 
L 111.205373 252.281801 
L 112.180311 251.53239 
L 112.505291 251.782992 
L 112.83027 251.468516 
L 113.15525 251.587126 
L 113.480229 251.302407 
L 113.805209 251.577329 
L 114.130188 251.505086 
L 114.780147 250.893478 
L 115.105127 250.293221 
L 115.430106 250.463241 
L 115.755086 250.089586 
L 116.080066 249.543463 
L 117.055004 248.941089 
L 117.379984 249.236265 
L 117.704963 249.050495 
L 118.679902 248.098964 
L 119.004881 247.975883 
L 119.65484 247.241504 
L 120.304799 246.771854 
L 120.629779 246.775474 
L 120.954758 246.422217 
L 121.279738 246.31854 
L 121.604717 246.404691 
L 121.929697 246.291845 
L 122.579656 245.705771 
L 122.904636 245.751742 
L 123.229615 245.587795 
L 124.204554 245.653607 
L 124.529533 245.339445 
L 124.854513 245.22121 
L 125.179492 244.89653 
L 125.829451 245.179472 
L 126.154431 244.867594 
L 126.47941 244.965687 
L 127.129369 244.391763 
L 127.454349 244.354473 
L 128.104308 244.090435 
L 128.754267 243.324758 
L 129.404226 243.376274 
L 129.729206 242.869495 
L 130.379165 242.510232 
L 130.704144 242.520568 
L 131.354103 241.900978 
L 132.004062 241.530194 
L 132.654021 241.266115 
L 132.979001 240.903362 
L 133.953939 240.617155 
L 134.603898 239.859571 
L 134.928878 239.88294 
L 136.553776 238.483009 
L 137.203735 238.355852 
L 138.828632 237.549976 
L 139.153612 236.940512 
L 139.478591 236.694712 
L 139.803571 236.678558 
L 140.778509 236.176848 
L 141.103489 236.182583 
L 141.753448 235.883877 
L 142.078428 235.668561 
L 142.403407 235.734225 
L 143.053366 235.256856 
L 143.378346 235.043706 
L 143.703325 234.654969 
L 144.678264 234.071403 
L 145.328223 233.671882 
L 145.653202 233.581532 
L 146.628141 233.060209 
L 146.95312 232.946966 
L 147.603079 232.333241 
L 148.578018 231.965256 
L 149.552957 231.077504 
L 150.527895 229.849674 
L 150.852875 229.757642 
L 151.177854 229.418207 
L 151.502834 229.263563 
L 151.827813 228.887591 
L 153.77769 227.788203 
L 154.10267 227.240918 
L 154.427649 227.06458 
L 154.752629 226.710698 
L 158.652383 225.052247 
L 159.302342 224.463407 
L 159.627322 224.294355 
L 159.952301 223.968746 
L 160.277281 223.867649 
L 160.92724 223.27744 
L 161.577199 223.181529 
L 161.902179 222.913926 
L 162.227158 222.877909 
L 162.877117 222.520732 
L 163.527076 221.93202 
L 164.826994 220.853782 
L 165.476953 220.678436 
L 165.801933 220.36198 
L 166.126912 220.295379 
L 169.051728 218.470664 
L 169.701687 218.000988 
L 170.676626 217.102654 
L 171.001605 216.901167 
L 171.326585 216.502333 
L 171.976544 216.406432 
L 173.276462 215.16345 
L 174.2514 214.492023 
L 175.551319 213.917837 
L 175.876298 213.58188 
L 176.201278 213.52832 
L 177.501196 212.436844 
L 178.151155 212.114587 
L 180.426011 210.114291 
L 181.40095 209.464737 
L 182.375889 208.905196 
L 182.700868 208.740855 
L 183.025848 208.336868 
L 183.350827 208.18365 
L 184.975725 206.896406 
L 185.625684 206.489982 
L 186.600622 205.754163 
L 187.250581 205.336965 
L 187.900541 204.81208 
L 188.5505 204.526423 
L 189.850418 203.408482 
L 190.825356 202.615407 
L 192.125274 201.526564 
L 192.450254 201.424106 
L 193.100213 200.744426 
L 197.324947 197.441907 
L 198.624865 196.389551 
L 199.274824 196.023115 
L 199.924783 195.48744 
L 202.524619 193.431079 
L 204.474496 191.665959 
L 205.774414 190.68246 
L 206.099394 190.589733 
L 208.049271 188.842985 
L 208.374251 188.68076 
L 209.674169 187.576337 
L 211.299066 186.51077 
L 212.274005 185.587422 
L 213.248943 184.553135 
L 215.198821 183.08549 
L 215.84878 182.474265 
L 217.798657 180.806241 
L 218.448616 180.223604 
L 219.098575 179.779157 
L 220.398493 179.058741 
L 221.373432 178.492329 
L 221.698411 178.294718 
L 222.34837 177.737992 
L 224.623227 175.910198 
L 225.923145 174.7435 
L 227.223063 173.765911 
L 227.873022 173.273723 
L 228.522981 172.702037 
L 229.49792 171.86713 
L 230.797838 171.145745 
L 232.747715 169.756669 
L 233.397674 169.340785 
L 234.372613 168.455832 
L 235.347551 167.606958 
L 240.872203 163.559186 
L 243.797019 161.191198 
L 244.446978 160.608417 
L 245.096937 160.143317 
L 246.071876 159.311408 
L 247.046814 158.451188 
L 249.64665 156.522688 
L 250.621589 155.890572 
L 251.271548 155.363534 
L 253.221425 154.046107 
L 253.871384 153.439478 
L 254.846323 152.800018 
L 255.821261 152.012024 
L 260.695954 148.709423 
L 261.345913 148.353735 
L 263.945749 146.268407 
L 264.595708 145.876269 
L 265.245667 145.329527 
L 268.170483 143.124637 
L 269.795381 141.500739 
L 270.770319 140.865163 
L 272.070238 139.860753 
L 272.720197 139.292571 
L 274.020115 138.145681 
L 276.619951 136.415561 
L 278.894808 134.73516 
L 279.869746 134.197723 
L 282.469582 132.229151 
L 284.419459 130.803683 
L 285.069419 130.30678 
L 285.719378 129.886054 
L 287.344275 128.536417 
L 290.269091 126.594405 
L 295.468763 122.659554 
L 296.118722 122.336905 
L 307.168026 114.519313 
L 307.817985 114.10156 
L 312.042719 111.313206 
L 313.992596 110.15487 
L 318.867289 106.906898 
L 320.167207 106.320847 
L 320.817166 105.864373 
L 324.716921 103.365776 
L 326.666798 102.305508 
L 327.966716 101.355168 
L 328.941654 100.747089 
L 330.241572 100.008568 
L 331.541491 99.200615 
L 335.441245 96.529108 
L 336.416183 95.972059 
L 338.366061 94.556648 
L 340.640917 93.126393 
L 347.465487 88.633637 
L 348.765405 87.551255 
L 353.640098 84.195295 
L 354.290057 83.810497 
L 355.264996 83.036839 
L 356.239934 82.314691 
L 357.864832 81.132353 
L 370.214054 72.578811 
L 371.838952 71.410747 
L 373.788829 70.232827 
L 375.088747 69.323309 
L 376.063686 68.690643 
L 378.013563 67.370408 
L 379.313481 66.546326 
L 384.838133 62.823843 
L 386.138051 61.99803 
L 387.112989 61.409646 
L 388.737887 60.456618 
L 393.2876 57.325006 
L 394.587518 56.374426 
L 395.237477 55.889198 
L 396.212416 55.220214 
L 397.837314 54.057761 
L 398.487273 53.568 
L 398.487273 53.568 
" clip-path="url(#pef8e7f42cf)" style="fill: none; stroke-dasharray: 2,3.3; stroke-dashoffset: 0; stroke: #0000ff; stroke-width: 2"/>
   </g>
   <g id="line2d_14">
    <path d="M 73.832727 289.882644 
L 74.157707 285.815246 
L 74.482686 285.227577 
L 74.807666 282.422358 
L 75.132645 283.990179 
L 75.457625 288.711249 
L 75.782604 291.567786 
L 76.107584 291.607398 
L 76.757543 290.048366 
L 77.082523 291.73326 
L 77.407502 288.595462 
L 77.732482 288.357594 
L 78.057461 287.903844 
L 78.382441 285.214305 
L 78.70742 286.226878 
L 79.0324 283.938355 
L 79.357379 283.829243 
L 79.682359 281.575214 
L 80.007338 281.698267 
L 80.332318 280.947137 
L 80.982277 280.971311 
L 81.307256 280.656835 
L 81.632236 279.312222 
L 81.957215 278.607891 
L 82.282195 279.780857 
L 82.607174 278.573283 
L 82.932154 279.142077 
L 83.257133 279.04583 
L 83.582113 279.850394 
L 83.907093 279.755486 
L 84.232072 279.872338 
L 84.557052 279.423072 
L 84.882031 279.632658 
L 85.207011 279.010621 
L 85.53199 277.100106 
L 85.85697 278.1671 
L 86.506929 276.64574 
L 86.831908 277.669031 
L 87.156888 277.04049 
L 87.481867 277.20891 
L 87.806847 277.848465 
L 88.131826 277.860909 
L 88.456806 278.834183 
L 88.781785 278.995721 
L 89.106765 279.607971 
L 89.431744 279.645558 
L 90.081704 277.342776 
L 90.731663 276.422883 
L 91.056642 277.324254 
L 91.381622 277.249578 
L 91.706601 276.412242 
L 92.031581 276.436618 
L 92.35656 276.215861 
L 92.68154 276.395245 
L 93.006519 275.725946 
L 93.331499 276.002141 
L 93.656478 275.750405 
L 94.306437 274.70421 
L 94.631417 274.779756 
L 94.956396 275.163382 
L 95.281376 275.021181 
L 95.931335 276.031204 
L 96.256314 275.979283 
L 96.581294 276.515787 
L 96.906274 275.981956 
L 97.231253 274.613575 
L 97.556233 274.670972 
L 98.206192 275.063444 
L 98.531171 275.08025 
L 98.856151 275.217137 
L 99.50611 274.56117 
L 99.831089 273.917695 
L 100.156069 273.566717 
L 100.481048 273.588012 
L 101.455987 274.280801 
L 101.780966 274.201554 
L 102.105946 274.51 
L 102.755905 274.504914 
L 103.080885 274.032233 
L 103.405864 273.981634 
L 103.730844 273.580065 
L 104.055823 273.582697 
L 104.380803 273.983356 
L 104.705782 274.121853 
L 105.355741 274.02594 
L 105.680721 273.537723 
L 106.0057 273.674369 
L 106.33068 273.359101 
L 106.655659 273.284756 
L 106.980639 272.997234 
L 107.305618 272.967487 
L 107.955577 273.413602 
L 108.280557 273.347453 
L 108.605536 273.637912 
L 108.930516 273.6004 
L 109.255495 273.771821 
L 109.905455 273.65744 
L 110.230434 273.842391 
L 110.555414 273.473194 
L 110.880393 273.578255 
L 111.205373 273.565606 
L 111.855332 273.231875 
L 112.505291 272.907894 
L 112.83027 272.573351 
L 113.15525 272.787873 
L 113.480229 273.201372 
L 113.805209 273.351396 
L 114.130188 273.667417 
L 115.105127 273.582882 
L 115.430106 272.955981 
L 116.080066 272.976591 
L 116.405045 272.760738 
L 116.730025 272.851111 
L 117.055004 272.713193 
L 117.379984 272.423049 
L 117.704963 272.562672 
L 118.029943 272.233711 
L 119.004881 272.26435 
L 119.329861 272.241316 
L 119.65484 271.98811 
L 119.97982 271.982893 
L 120.304799 272.317462 
L 120.629779 272.040791 
L 120.954758 272.089406 
L 122.254676 272.771196 
L 122.579656 272.741253 
L 123.229615 273.147835 
L 123.554595 273.198369 
L 124.204554 273.049808 
L 124.854513 272.549194 
L 125.179492 272.619689 
L 125.504472 272.516655 
L 125.829451 272.604621 
L 126.154431 272.842697 
L 126.47941 272.623191 
L 126.80439 272.897173 
L 127.129369 272.81868 
L 127.779328 273.007612 
L 128.429287 273.493702 
L 128.754267 273.334537 
L 129.079247 273.399001 
L 129.404226 273.318739 
L 129.729206 273.403973 
L 130.704144 273.2804 
L 131.029124 273.242134 
L 131.354103 273.334581 
L 131.679083 273.193375 
L 132.004062 272.749372 
L 132.329042 273.065142 
L 132.654021 273.102834 
L 132.979001 273.328792 
L 133.62896 272.998273 
L 133.953939 272.930277 
L 134.278919 273.135447 
L 134.603898 272.906314 
L 134.928878 272.840515 
L 135.253857 272.620504 
L 136.228796 272.551637 
L 136.553776 272.772862 
L 137.203735 272.812523 
L 137.528714 272.528203 
L 137.853694 272.071798 
L 138.503653 272.36864 
L 138.828632 272.429564 
L 139.803571 272.096922 
L 140.12855 272.291434 
L 140.45353 272.12215 
L 142.403407 271.904276 
L 143.053366 271.940485 
L 143.378346 271.748119 
L 144.353284 272.051003 
L 144.678264 271.690872 
L 146.628141 271.968092 
L 147.2781 271.702396 
L 148.253038 272.009844 
L 148.578018 272.046064 
L 148.902998 271.907118 
L 150.527895 272.699678 
L 150.852875 272.76109 
L 151.502834 272.584046 
L 151.827813 272.760959 
L 152.152793 272.751882 
L 152.802752 272.905371 
L 154.10267 272.529819 
L 154.427649 272.180082 
L 154.752629 272.179281 
L 155.077609 272.425326 
L 156.377527 272.825565 
L 157.027486 272.70921 
L 157.352465 272.790728 
L 157.677445 272.488204 
L 158.002424 272.546932 
L 158.327404 272.479927 
L 158.652383 272.650599 
L 159.302342 272.603006 
L 159.952301 272.698525 
L 160.277281 272.64942 
L 160.92724 272.883908 
L 161.252219 273.053052 
L 161.577199 273.086615 
L 162.227158 272.925662 
L 162.552138 273.074664 
L 163.202097 273.002101 
L 163.527076 272.792044 
L 164.177035 272.928974 
L 165.801933 273.151308 
L 167.42683 273.081701 
L 167.75181 272.877902 
L 169.051728 272.999135 
L 169.701687 273.197618 
L 170.026667 273.053339 
L 170.676626 273.070632 
L 171.001605 273.183444 
L 171.326585 273.154809 
L 171.651564 273.305747 
L 171.976544 273.320411 
L 172.626503 273.013112 
L 172.951482 273.029853 
L 173.276462 272.897321 
L 173.601441 272.975198 
L 174.90136 272.827268 
L 175.226339 272.823644 
L 175.876298 272.626605 
L 176.201278 272.645958 
L 177.176216 272.408534 
L 180.101032 272.79965 
L 180.750991 272.567275 
L 181.72593 272.614585 
L 182.375889 272.553643 
L 183.350827 272.315701 
L 184.650745 272.543719 
L 185.625684 272.396682 
L 186.275643 272.523598 
L 188.22552 272.670073 
L 188.5505 272.571045 
L 189.200459 272.635368 
L 189.525438 272.567249 
L 190.175397 272.713779 
L 191.800295 272.494481 
L 196.350008 272.686761 
L 196.674988 272.764005 
L 196.999967 272.708603 
L 197.324947 272.786726 
L 198.624865 272.525711 
L 198.949844 272.365177 
L 201.224701 272.685098 
L 202.19964 272.523776 
L 202.524619 272.379125 
L 203.499558 272.387089 
L 204.474496 272.105952 
L 205.449435 272.126064 
L 206.749353 272.02183 
L 207.074333 272.178148 
L 208.374251 272.207687 
L 209.02421 271.936012 
L 209.674169 271.962792 
L 211.949025 271.799172 
L 212.923964 271.666031 
L 213.573923 271.888248 
L 216.173759 271.517273 
L 216.498739 271.341722 
L 218.123636 271.241497 
L 219.098575 271.263826 
L 219.423554 271.152904 
L 219.748534 271.199971 
L 220.073514 271.106323 
L 221.048452 271.19704 
L 221.698411 271.176009 
L 224.298247 271.421826 
L 226.898084 271.201976 
L 227.873022 271.346433 
L 228.198002 271.164872 
L 228.847961 271.250093 
L 229.49792 271.134018 
L 230.472858 271.189195 
L 230.797838 271.007208 
L 234.697592 271.254232 
L 235.022572 271.109267 
L 237.622408 271.105027 
L 240.547224 271.140244 
L 241.522162 270.806268 
L 243.797019 270.843513 
L 244.121998 270.74948 
L 244.771957 270.778955 
L 245.746896 270.728002 
L 246.396855 270.77565 
L 248.021753 270.711042 
L 248.346732 270.555755 
L 248.996691 270.560289 
L 249.64665 270.624062 
L 250.621589 270.541174 
L 251.271548 270.642456 
L 251.921507 270.750923 
L 253.871384 270.840692 
L 254.521343 270.921204 
L 255.171302 270.859502 
L 255.496282 270.701306 
L 257.446159 270.868405 
L 257.771138 270.782433 
L 258.096118 270.891194 
L 258.421097 270.790444 
L 259.071057 270.901086 
L 260.695954 270.828898 
L 261.345913 270.863485 
L 261.670893 270.872708 
L 261.995872 270.767562 
L 262.645831 270.795228 
L 263.29579 270.736648 
L 263.945749 270.803147 
L 264.920688 271.028322 
L 265.570647 270.949953 
L 266.220606 270.945152 
L 267.195545 270.819855 
L 267.520524 270.713698 
L 268.820442 270.692923 
L 270.44534 270.712435 
L 271.095299 270.71586 
L 271.745258 270.445512 
L 272.720197 270.603769 
L 274.020115 270.478068 
L 274.670074 270.527369 
L 275.320033 270.367249 
L 280.519705 270.361728 
L 281.169664 270.279117 
L 282.469582 270.439856 
L 287.994234 270.563868 
L 288.644193 270.508078 
L 288.969173 270.580307 
L 290.269091 270.435258 
L 290.59407 270.482846 
L 291.569009 270.310078 
L 292.868927 270.473741 
L 293.843866 270.584326 
L 294.493825 270.487401 
L 294.818804 270.43329 
L 295.468763 270.57023 
L 296.768681 270.529359 
L 297.41864 270.574859 
L 299.043538 270.678566 
L 300.668436 270.623313 
L 301.968354 270.570601 
L 302.943292 270.646191 
L 303.918231 270.666853 
L 304.89317 270.83083 
L 305.868108 270.8101 
L 307.493006 270.831759 
L 308.142965 270.754742 
L 316.267453 270.474696 
L 316.917412 270.484017 
L 317.892351 270.525232 
L 319.517248 270.552182 
L 320.167207 270.580585 
L 320.817166 270.620773 
L 325.0419 270.54748 
L 326.016839 270.584639 
L 327.316757 270.536976 
L 327.966716 270.484206 
L 329.591613 270.338109 
L 329.916593 270.193539 
L 332.841409 270.100766 
L 333.491368 270.165854 
L 333.816347 270.019563 
L 334.466306 269.9954 
L 335.441245 269.996199 
L 338.69104 270.019425 
L 339.340999 270.018603 
L 340.315938 269.949084 
L 341.940835 269.906721 
L 342.590794 269.822726 
L 343.890713 269.868266 
L 345.84059 269.920529 
L 346.490549 269.871448 
L 347.790467 269.720678 
L 348.440426 269.7375 
L 351.040262 269.680618 
L 352.34018 269.568582 
L 353.315119 269.528903 
L 354.940016 269.352306 
L 355.914955 269.270308 
L 356.564914 269.271524 
L 357.864832 269.146648 
L 358.514791 269.165461 
L 360.464668 269.276671 
L 362.089566 269.153926 
L 362.414545 269.049397 
L 363.064505 269.076836 
L 364.689402 269.016991 
L 365.664341 268.957952 
L 368.264177 269.119295 
L 370.539034 268.986125 
L 373.463849 269.065123 
L 376.063686 269.090197 
L 377.688583 269.160389 
L 378.988501 269.131063 
L 380.938378 269.047699 
L 381.588337 269.025928 
L 382.888256 269.009784 
L 383.863194 269.025713 
L 384.513153 269.055222 
L 385.813071 269.019254 
L 387.112989 269.069999 
L 388.087928 269.104093 
L 390.037805 269.146368 
L 391.337723 269.018186 
L 392.637641 268.929788 
L 393.61258 268.87141 
L 398.487273 268.498776 
L 398.487273 268.498776 
" clip-path="url(#pef8e7f42cf)" style="fill: none; stroke-dasharray: 2,3.3; stroke-dashoffset: 0; stroke: #ffa500; stroke-width: 2"/>
   </g>
   <g id="patch_3">
    <path d="M 57.6 307.584 
L 57.6 41.472 
" style="fill: none; stroke: #000000; stroke-width: 0.8; stroke-linejoin: miter; stroke-linecap: square"/>
   </g>
   <g id="patch_4">
    <path d="M 414.72 307.584 
L 414.72 41.472 
" style="fill: none; stroke: #000000; stroke-width: 0.8; stroke-linejoin: miter; stroke-linecap: square"/>
   </g>
   <g id="patch_5">
    <path d="M 57.6 307.584 
L 414.72 307.584 
" style="fill: none; stroke: #000000; stroke-width: 0.8; stroke-linejoin: miter; stroke-linecap: square"/>
   </g>
   <g id="patch_6">
    <path d="M 57.6 41.472 
L 414.72 41.472 
" style="fill: none; stroke: #000000; stroke-width: 0.8; stroke-linejoin: miter; stroke-linecap: square"/>
   </g>
   <g id="text_15">
    <!-- Waiting Time Plot -->
    <g transform="translate(183.833438 8.2635)scale(0.12 -0.12)">
     <defs>
      <path id="DejaVuSans-50" d="M 1259 4147 
L 1259 2394 
L 2053 2394 
Q 2494 2394 2734 2622 
Q 2975 2850 2975 3272 
Q 2975 3691 2734 3919 
Q 2494 4147 2053 4147 
L 1259 4147 
z
M 628 4666 
L 2053 4666 
Q 2838 4666 3239 4311 
Q 3641 3956 3641 3272 
Q 3641 2581 3239 2228 
Q 2838 1875 2053 1875 
L 1259 1875 
L 1259 0 
L 628 0 
L 628 4666 
z
" transform="scale(0.015625)"/>
      <path id="DejaVuSans-6c" d="M 603 4863 
L 1178 4863 
L 1178 0 
L 603 0 
L 603 4863 
z
" transform="scale(0.015625)"/>
     </defs>
     <use xlink:href="#DejaVuSans-57"/>
     <use xlink:href="#DejaVuSans-61" x="92.501953"/>
     <use xlink:href="#DejaVuSans-69" x="153.78125"/>
     <use xlink:href="#DejaVuSans-74" x="181.564453"/>
     <use xlink:href="#DejaVuSans-69" x="220.773438"/>
     <use xlink:href="#DejaVuSans-6e" x="248.556641"/>
     <use xlink:href="#DejaVuSans-67" x="311.935547"/>
     <use xlink:href="#DejaVuSans-20" x="375.412109"/>
     <use xlink:href="#DejaVuSans-54" x="407.199219"/>
     <use xlink:href="#DejaVuSans-69" x="465.158203"/>
     <use xlink:href="#DejaVuSans-6d" x="492.941406"/>
     <use xlink:href="#DejaVuSans-65" x="590.353516"/>
     <use xlink:href="#DejaVuSans-20" x="651.876953"/>
     <use xlink:href="#DejaVuSans-50" x="683.664062"/>
     <use xlink:href="#DejaVuSans-6c" x="743.966797"/>
     <use xlink:href="#DejaVuSans-6f" x="771.75"/>
     <use xlink:href="#DejaVuSans-74" x="832.931641"/>
    </g>
    <!--  avg_d = 3184.61705756226  -->
    <g transform="translate(146.489062 21.700875)scale(0.12 -0.12)">
     <defs>
      <path id="DejaVuSans-76" d="M 191 3500 
L 800 3500 
L 1894 563 
L 2988 3500 
L 3597 3500 
L 2284 0 
L 1503 0 
L 191 3500 
z
" transform="scale(0.015625)"/>
      <path id="DejaVuSans-5f" d="M 3263 -1063 
L 3263 -1509 
L -63 -1509 
L -63 -1063 
L 3263 -1063 
z
" transform="scale(0.015625)"/>
      <path id="DejaVuSans-3d" d="M 678 2906 
L 4684 2906 
L 4684 2381 
L 678 2381 
L 678 2906 
z
M 678 1631 
L 4684 1631 
L 4684 1100 
L 678 1100 
L 678 1631 
z
" transform="scale(0.015625)"/>
      <path id="DejaVuSans-2e" d="M 684 794 
L 1344 794 
L 1344 0 
L 684 0 
L 684 794 
z
" transform="scale(0.015625)"/>
      <path id="DejaVuSans-37" d="M 525 4666 
L 3525 4666 
L 3525 4397 
L 1831 0 
L 1172 0 
L 2766 4134 
L 525 4134 
L 525 4666 
z
" transform="scale(0.015625)"/>
     </defs>
     <use xlink:href="#DejaVuSans-20"/>
     <use xlink:href="#DejaVuSans-61" x="31.787109"/>
     <use xlink:href="#DejaVuSans-76" x="93.066406"/>
     <use xlink:href="#DejaVuSans-67" x="152.246094"/>
     <use xlink:href="#DejaVuSans-5f" x="215.722656"/>
     <use xlink:href="#DejaVuSans-64" x="265.722656"/>
     <use xlink:href="#DejaVuSans-20" x="329.199219"/>
     <use xlink:href="#DejaVuSans-3d" x="360.986328"/>
     <use xlink:href="#DejaVuSans-20" x="444.775391"/>
     <use xlink:href="#DejaVuSans-33" x="476.5625"/>
     <use xlink:href="#DejaVuSans-31" x="540.185547"/>
     <use xlink:href="#DejaVuSans-38" x="603.808594"/>
     <use xlink:href="#DejaVuSans-34" x="667.431641"/>
     <use xlink:href="#DejaVuSans-2e" x="731.054688"/>
     <use xlink:href="#DejaVuSans-36" x="762.841797"/>
     <use xlink:href="#DejaVuSans-31" x="826.464844"/>
     <use xlink:href="#DejaVuSans-37" x="890.087891"/>
     <use xlink:href="#DejaVuSans-30" x="953.710938"/>
     <use xlink:href="#DejaVuSans-35" x="1017.333984"/>
     <use xlink:href="#DejaVuSans-37" x="1080.957031"/>
     <use xlink:href="#DejaVuSans-35" x="1144.580078"/>
     <use xlink:href="#DejaVuSans-36" x="1208.203125"/>
     <use xlink:href="#DejaVuSans-32" x="1271.826172"/>
     <use xlink:href="#DejaVuSans-32" x="1335.449219"/>
     <use xlink:href="#DejaVuSans-36" x="1399.072266"/>
     <use xlink:href="#DejaVuSans-20" x="1462.695312"/>
    </g>
    <!--  avg_a = 832.9494664037337diff = 2351.667591158526 -->
    <g transform="translate(63.181875 35.472)scale(0.12 -0.12)">
     <defs>
      <path id="DejaVuSans-39" d="M 703 97 
L 703 672 
Q 941 559 1184 500 
Q 1428 441 1663 441 
Q 2288 441 2617 861 
Q 2947 1281 2994 2138 
Q 2813 1869 2534 1725 
Q 2256 1581 1919 1581 
Q 1219 1581 811 2004 
Q 403 2428 403 3163 
Q 403 3881 828 4315 
Q 1253 4750 1959 4750 
Q 2769 4750 3195 4129 
Q 3622 3509 3622 2328 
Q 3622 1225 3098 567 
Q 2575 -91 1691 -91 
Q 1453 -91 1209 -44 
Q 966 3 703 97 
z
M 1959 2075 
Q 2384 2075 2632 2365 
Q 2881 2656 2881 3163 
Q 2881 3666 2632 3958 
Q 2384 4250 1959 4250 
Q 1534 4250 1286 3958 
Q 1038 3666 1038 3163 
Q 1038 2656 1286 2365 
Q 1534 2075 1959 2075 
z
" transform="scale(0.015625)"/>
     </defs>
     <use xlink:href="#DejaVuSans-20"/>
     <use xlink:href="#DejaVuSans-61" x="31.787109"/>
     <use xlink:href="#DejaVuSans-76" x="93.066406"/>
     <use xlink:href="#DejaVuSans-67" x="152.246094"/>
     <use xlink:href="#DejaVuSans-5f" x="215.722656"/>
     <use xlink:href="#DejaVuSans-61" x="265.722656"/>
     <use xlink:href="#DejaVuSans-20" x="327.001953"/>
     <use xlink:href="#DejaVuSans-3d" x="358.789062"/>
     <use xlink:href="#DejaVuSans-20" x="442.578125"/>
     <use xlink:href="#DejaVuSans-38" x="474.365234"/>
     <use xlink:href="#DejaVuSans-33" x="537.988281"/>
     <use xlink:href="#DejaVuSans-32" x="601.611328"/>
     <use xlink:href="#DejaVuSans-2e" x="665.234375"/>
     <use xlink:href="#DejaVuSans-39" x="697.021484"/>
     <use xlink:href="#DejaVuSans-34" x="760.644531"/>
     <use xlink:href="#DejaVuSans-39" x="824.267578"/>
     <use xlink:href="#DejaVuSans-34" x="887.890625"/>
     <use xlink:href="#DejaVuSans-36" x="951.513672"/>
     <use xlink:href="#DejaVuSans-36" x="1015.136719"/>
     <use xlink:href="#DejaVuSans-34" x="1078.759766"/>
     <use xlink:href="#DejaVuSans-30" x="1142.382812"/>
     <use xlink:href="#DejaVuSans-33" x="1206.005859"/>
     <use xlink:href="#DejaVuSans-37" x="1269.628906"/>
     <use xlink:href="#DejaVuSans-33" x="1333.251953"/>
     <use xlink:href="#DejaVuSans-33" x="1396.875"/>
     <use xlink:href="#DejaVuSans-37" x="1460.498047"/>
     <use xlink:href="#DejaVuSans-64" x="1524.121094"/>
     <use xlink:href="#DejaVuSans-69" x="1587.597656"/>
     <use xlink:href="#DejaVuSans-66" x="1615.380859"/>
     <use xlink:href="#DejaVuSans-66" x="1650.585938"/>
     <use xlink:href="#DejaVuSans-20" x="1685.791016"/>
     <use xlink:href="#DejaVuSans-3d" x="1717.578125"/>
     <use xlink:href="#DejaVuSans-20" x="1801.367188"/>
     <use xlink:href="#DejaVuSans-32" x="1833.154297"/>
     <use xlink:href="#DejaVuSans-33" x="1896.777344"/>
     <use xlink:href="#DejaVuSans-35" x="1960.400391"/>
     <use xlink:href="#DejaVuSans-31" x="2024.023438"/>
     <use xlink:href="#DejaVuSans-2e" x="2087.646484"/>
     <use xlink:href="#DejaVuSans-36" x="2119.433594"/>
     <use xlink:href="#DejaVuSans-36" x="2183.056641"/>
     <use xlink:href="#DejaVuSans-37" x="2246.679688"/>
     <use xlink:href="#DejaVuSans-35" x="2310.302734"/>
     <use xlink:href="#DejaVuSans-39" x="2373.925781"/>
     <use xlink:href="#DejaVuSans-31" x="2437.548828"/>
     <use xlink:href="#DejaVuSans-31" x="2501.171875"/>
     <use xlink:href="#DejaVuSans-35" x="2564.794922"/>
     <use xlink:href="#DejaVuSans-38" x="2628.417969"/>
     <use xlink:href="#DejaVuSans-35" x="2692.041016"/>
     <use xlink:href="#DejaVuSans-32" x="2755.664062"/>
     <use xlink:href="#DejaVuSans-36" x="2819.287109"/>
    </g>
   </g>
   <g id="legend_1">
    <g id="patch_7">
     <path d="M 64.6 78.82825 
L 208.43125 78.82825 
Q 210.43125 78.82825 210.43125 76.82825 
L 210.43125 48.472 
Q 210.43125 46.472 208.43125 46.472 
L 64.6 46.472 
Q 62.6 46.472 62.6 48.472 
L 62.6 76.82825 
Q 62.6 78.82825 64.6 78.82825 
z
" style="fill: #ffffff; opacity: 0.8; stroke: #cccccc; stroke-linejoin: miter"/>
    </g>
    <g id="line2d_15">
     <path d="M 66.6 54.570437 
L 76.6 54.570437 
L 86.6 54.570437 
" style="fill: none; stroke-dasharray: 2,3.3; stroke-dashoffset: 0; stroke: #0000ff; stroke-width: 2"/>
    </g>
    <g id="text_16">
     <!-- Average (Default) -->
     <g transform="translate(94.6 58.070437)scale(0.1 -0.1)">
      <defs>
       <path id="DejaVuSans-41" d="M 2188 4044 
L 1331 1722 
L 3047 1722 
L 2188 4044 
z
M 1831 4666 
L 2547 4666 
L 4325 0 
L 3669 0 
L 3244 1197 
L 1141 1197 
L 716 0 
L 50 0 
L 1831 4666 
z
" transform="scale(0.015625)"/>
       <path id="DejaVuSans-28" d="M 1984 4856 
Q 1566 4138 1362 3434 
Q 1159 2731 1159 2009 
Q 1159 1288 1364 580 
Q 1569 -128 1984 -844 
L 1484 -844 
Q 1016 -109 783 600 
Q 550 1309 550 2009 
Q 550 2706 781 3412 
Q 1013 4119 1484 4856 
L 1984 4856 
z
" transform="scale(0.015625)"/>
       <path id="DejaVuSans-44" d="M 1259 4147 
L 1259 519 
L 2022 519 
Q 2988 519 3436 956 
Q 3884 1394 3884 2338 
Q 3884 3275 3436 3711 
Q 2988 4147 2022 4147 
L 1259 4147 
z
M 628 4666 
L 1925 4666 
Q 3281 4666 3915 4102 
Q 4550 3538 4550 2338 
Q 4550 1131 3912 565 
Q 3275 0 1925 0 
L 628 0 
L 628 4666 
z
" transform="scale(0.015625)"/>
       <path id="DejaVuSans-29" d="M 513 4856 
L 1013 4856 
Q 1481 4119 1714 3412 
Q 1947 2706 1947 2009 
Q 1947 1309 1714 600 
Q 1481 -109 1013 -844 
L 513 -844 
Q 928 -128 1133 580 
Q 1338 1288 1338 2009 
Q 1338 2731 1133 3434 
Q 928 4138 513 4856 
z
" transform="scale(0.015625)"/>
      </defs>
      <use xlink:href="#DejaVuSans-41"/>
      <use xlink:href="#DejaVuSans-76" x="62.533203"/>
      <use xlink:href="#DejaVuSans-65" x="121.712891"/>
      <use xlink:href="#DejaVuSans-72" x="183.236328"/>
      <use xlink:href="#DejaVuSans-61" x="224.349609"/>
      <use xlink:href="#DejaVuSans-67" x="285.628906"/>
      <use xlink:href="#DejaVuSans-65" x="349.105469"/>
      <use xlink:href="#DejaVuSans-20" x="410.628906"/>
      <use xlink:href="#DejaVuSans-28" x="442.416016"/>
      <use xlink:href="#DejaVuSans-44" x="481.429688"/>
      <use xlink:href="#DejaVuSans-65" x="558.431641"/>
      <use xlink:href="#DejaVuSans-66" x="619.955078"/>
      <use xlink:href="#DejaVuSans-61" x="655.160156"/>
      <use xlink:href="#DejaVuSans-75" x="716.439453"/>
      <use xlink:href="#DejaVuSans-6c" x="779.818359"/>
      <use xlink:href="#DejaVuSans-74" x="807.601562"/>
      <use xlink:href="#DejaVuSans-29" x="846.810547"/>
     </g>
    </g>
    <g id="line2d_16">
     <path d="M 66.6 69.248562 
L 76.6 69.248562 
L 86.6 69.248562 
" style="fill: none; stroke-dasharray: 2,3.3; stroke-dashoffset: 0; stroke: #ffa500; stroke-width: 2"/>
    </g>
    <g id="text_17">
     <!-- Average (Anticipation) -->
     <g transform="translate(94.6 72.748562)scale(0.1 -0.1)">
      <defs>
       <path id="DejaVuSans-63" d="M 3122 3366 
L 3122 2828 
Q 2878 2963 2633 3030 
Q 2388 3097 2138 3097 
Q 1578 3097 1268 2742 
Q 959 2388 959 1747 
Q 959 1106 1268 751 
Q 1578 397 2138 397 
Q 2388 397 2633 464 
Q 2878 531 3122 666 
L 3122 134 
Q 2881 22 2623 -34 
Q 2366 -91 2075 -91 
Q 1284 -91 818 406 
Q 353 903 353 1747 
Q 353 2603 823 3093 
Q 1294 3584 2113 3584 
Q 2378 3584 2631 3529 
Q 2884 3475 3122 3366 
z
" transform="scale(0.015625)"/>
       <path id="DejaVuSans-70" d="M 1159 525 
L 1159 -1331 
L 581 -1331 
L 581 3500 
L 1159 3500 
L 1159 2969 
Q 1341 3281 1617 3432 
Q 1894 3584 2278 3584 
Q 2916 3584 3314 3078 
Q 3713 2572 3713 1747 
Q 3713 922 3314 415 
Q 2916 -91 2278 -91 
Q 1894 -91 1617 61 
Q 1341 213 1159 525 
z
M 3116 1747 
Q 3116 2381 2855 2742 
Q 2594 3103 2138 3103 
Q 1681 3103 1420 2742 
Q 1159 2381 1159 1747 
Q 1159 1113 1420 752 
Q 1681 391 2138 391 
Q 2594 391 2855 752 
Q 3116 1113 3116 1747 
z
" transform="scale(0.015625)"/>
      </defs>
      <use xlink:href="#DejaVuSans-41"/>
      <use xlink:href="#DejaVuSans-76" x="62.533203"/>
      <use xlink:href="#DejaVuSans-65" x="121.712891"/>
      <use xlink:href="#DejaVuSans-72" x="183.236328"/>
      <use xlink:href="#DejaVuSans-61" x="224.349609"/>
      <use xlink:href="#DejaVuSans-67" x="285.628906"/>
      <use xlink:href="#DejaVuSans-65" x="349.105469"/>
      <use xlink:href="#DejaVuSans-20" x="410.628906"/>
      <use xlink:href="#DejaVuSans-28" x="442.416016"/>
      <use xlink:href="#DejaVuSans-41" x="481.429688"/>
      <use xlink:href="#DejaVuSans-6e" x="549.837891"/>
      <use xlink:href="#DejaVuSans-74" x="613.216797"/>
      <use xlink:href="#DejaVuSans-69" x="652.425781"/>
      <use xlink:href="#DejaVuSans-63" x="680.208984"/>
      <use xlink:href="#DejaVuSans-69" x="735.189453"/>
      <use xlink:href="#DejaVuSans-70" x="762.972656"/>
      <use xlink:href="#DejaVuSans-61" x="826.449219"/>
      <use xlink:href="#DejaVuSans-74" x="887.728516"/>
      <use xlink:href="#DejaVuSans-69" x="926.9375"/>
      <use xlink:href="#DejaVuSans-6f" x="954.720703"/>
      <use xlink:href="#DejaVuSans-6e" x="1015.902344"/>
      <use xlink:href="#DejaVuSans-29" x="1079.28125"/>
     </g>
    </g>
   </g>
  </g>
 </g>
 <defs>
  <clipPath id="pef8e7f42cf">
   <rect x="57.6" y="41.472" width="357.12" height="266.112"/>
  </clipPath>
 </defs>
</svg>
