<?xml version="1.0" encoding="utf-8" standalone="no"?>
<!DOCTYPE svg PUBLIC "-//W3C//DTD SVG 1.1//EN"
  "http://www.w3.org/Graphics/SVG/1.1/DTD/svg11.dtd">
<svg xmlns:xlink="http://www.w3.org/1999/xlink" width="460.8pt" height="345.6pt" viewBox="0 0 460.8 345.6" xmlns="http://www.w3.org/2000/svg" version="1.1">
 <metadata>
  <rdf:RDF xmlns:dc="http://purl.org/dc/elements/1.1/" xmlns:cc="http://creativecommons.org/ns#" xmlns:rdf="http://www.w3.org/1999/02/22-rdf-syntax-ns#">
   <cc:Work>
    <dc:type rdf:resource="http://purl.org/dc/dcmitype/StillImage"/>
    <dc:date>2022-10-10T12:18:43.159829</dc:date>
    <dc:format>image/svg+xml</dc:format>
    <dc:creator>
     <cc:Agent>
      <dc:title>Matplotlib v3.5.3, https://matplotlib.org/</dc:title>
     </cc:Agent>
    </dc:creator>
   </cc:Work>
  </rdf:RDF>
 </metadata>
 <defs>
  <style type="text/css">*{stroke-linejoin: round; stroke-linecap: butt}</style>
 </defs>
 <g id="figure_1">
  <g id="patch_1">
   <path d="M 0 345.6 
L 460.8 345.6 
L 460.8 0 
L 0 0 
z
" style="fill: #ffffff"/>
  </g>
  <g id="axes_1">
   <g id="patch_2">
    <path d="M 57.6 307.584 
L 414.72 307.584 
L 414.72 41.472 
L 57.6 41.472 
z
" style="fill: #ffffff"/>
   </g>
   <g id="matplotlib.axis_1">
    <g id="xtick_1">
     <g id="line2d_1">
      <defs>
       <path id="m4d880b7fbe" d="M 0 0 
L 0 3.5 
" style="stroke: #000000; stroke-width: 0.8"/>
      </defs>
      <g>
       <use xlink:href="#m4d880b7fbe" x="73.832727" y="307.584" style="stroke: #000000; stroke-width: 0.8"/>
      </g>
     </g>
     <g id="text_1">
      <!-- 0 -->
      <g transform="translate(70.651477 322.182437)scale(0.1 -0.1)">
       <defs>
        <path id="DejaVuSans-30" d="M 2034 4250 
Q 1547 4250 1301 3770 
Q 1056 3291 1056 2328 
Q 1056 1369 1301 889 
Q 1547 409 2034 409 
Q 2525 409 2770 889 
Q 3016 1369 3016 2328 
Q 3016 3291 2770 3770 
Q 2525 4250 2034 4250 
z
M 2034 4750 
Q 2819 4750 3233 4129 
Q 3647 3509 3647 2328 
Q 3647 1150 3233 529 
Q 2819 -91 2034 -91 
Q 1250 -91 836 529 
Q 422 1150 422 2328 
Q 422 3509 836 4129 
Q 1250 4750 2034 4750 
z
" transform="scale(0.015625)"/>
       </defs>
       <use xlink:href="#DejaVuSans-30"/>
      </g>
     </g>
    </g>
    <g id="xtick_2">
     <g id="line2d_2">
      <g>
       <use xlink:href="#m4d880b7fbe" x="118.474736" y="307.584" style="stroke: #000000; stroke-width: 0.8"/>
      </g>
     </g>
     <g id="text_2">
      <!-- 25000 -->
      <g transform="translate(102.568486 322.182437)scale(0.1 -0.1)">
       <defs>
        <path id="DejaVuSans-32" d="M 1228 531 
L 3431 531 
L 3431 0 
L 469 0 
L 469 531 
Q 828 903 1448 1529 
Q 2069 2156 2228 2338 
Q 2531 2678 2651 2914 
Q 2772 3150 2772 3378 
Q 2772 3750 2511 3984 
Q 2250 4219 1831 4219 
Q 1534 4219 1204 4116 
Q 875 4013 500 3803 
L 500 4441 
Q 881 4594 1212 4672 
Q 1544 4750 1819 4750 
Q 2544 4750 2975 4387 
Q 3406 4025 3406 3419 
Q 3406 3131 3298 2873 
Q 3191 2616 2906 2266 
Q 2828 2175 2409 1742 
Q 1991 1309 1228 531 
z
" transform="scale(0.015625)"/>
        <path id="DejaVuSans-35" d="M 691 4666 
L 3169 4666 
L 3169 4134 
L 1269 4134 
L 1269 2991 
Q 1406 3038 1543 3061 
Q 1681 3084 1819 3084 
Q 2600 3084 3056 2656 
Q 3513 2228 3513 1497 
Q 3513 744 3044 326 
Q 2575 -91 1722 -91 
Q 1428 -91 1123 -41 
Q 819 9 494 109 
L 494 744 
Q 775 591 1075 516 
Q 1375 441 1709 441 
Q 2250 441 2565 725 
Q 2881 1009 2881 1497 
Q 2881 1984 2565 2268 
Q 2250 2553 1709 2553 
Q 1456 2553 1204 2497 
Q 953 2441 691 2322 
L 691 4666 
z
" transform="scale(0.015625)"/>
       </defs>
       <use xlink:href="#DejaVuSans-32"/>
       <use xlink:href="#DejaVuSans-35" x="63.623047"/>
       <use xlink:href="#DejaVuSans-30" x="127.246094"/>
       <use xlink:href="#DejaVuSans-30" x="190.869141"/>
       <use xlink:href="#DejaVuSans-30" x="254.492188"/>
      </g>
     </g>
    </g>
    <g id="xtick_3">
     <g id="line2d_3">
      <g>
       <use xlink:href="#m4d880b7fbe" x="163.116745" y="307.584" style="stroke: #000000; stroke-width: 0.8"/>
      </g>
     </g>
     <g id="text_3">
      <!-- 50000 -->
      <g transform="translate(147.210495 322.182437)scale(0.1 -0.1)">
       <use xlink:href="#DejaVuSans-35"/>
       <use xlink:href="#DejaVuSans-30" x="63.623047"/>
       <use xlink:href="#DejaVuSans-30" x="127.246094"/>
       <use xlink:href="#DejaVuSans-30" x="190.869141"/>
       <use xlink:href="#DejaVuSans-30" x="254.492188"/>
      </g>
     </g>
    </g>
    <g id="xtick_4">
     <g id="line2d_4">
      <g>
       <use xlink:href="#m4d880b7fbe" x="207.758754" y="307.584" style="stroke: #000000; stroke-width: 0.8"/>
      </g>
     </g>
     <g id="text_4">
      <!-- 75000 -->
      <g transform="translate(191.852504 322.182437)scale(0.1 -0.1)">
       <defs>
        <path id="DejaVuSans-37" d="M 525 4666 
L 3525 4666 
L 3525 4397 
L 1831 0 
L 1172 0 
L 2766 4134 
L 525 4134 
L 525 4666 
z
" transform="scale(0.015625)"/>
       </defs>
       <use xlink:href="#DejaVuSans-37"/>
       <use xlink:href="#DejaVuSans-35" x="63.623047"/>
       <use xlink:href="#DejaVuSans-30" x="127.246094"/>
       <use xlink:href="#DejaVuSans-30" x="190.869141"/>
       <use xlink:href="#DejaVuSans-30" x="254.492188"/>
      </g>
     </g>
    </g>
    <g id="xtick_5">
     <g id="line2d_5">
      <g>
       <use xlink:href="#m4d880b7fbe" x="252.400763" y="307.584" style="stroke: #000000; stroke-width: 0.8"/>
      </g>
     </g>
     <g id="text_5">
      <!-- 100000 -->
      <g transform="translate(233.313263 322.182437)scale(0.1 -0.1)">
       <defs>
        <path id="DejaVuSans-31" d="M 794 531 
L 1825 531 
L 1825 4091 
L 703 3866 
L 703 4441 
L 1819 4666 
L 2450 4666 
L 2450 531 
L 3481 531 
L 3481 0 
L 794 0 
L 794 531 
z
" transform="scale(0.015625)"/>
       </defs>
       <use xlink:href="#DejaVuSans-31"/>
       <use xlink:href="#DejaVuSans-30" x="63.623047"/>
       <use xlink:href="#DejaVuSans-30" x="127.246094"/>
       <use xlink:href="#DejaVuSans-30" x="190.869141"/>
       <use xlink:href="#DejaVuSans-30" x="254.492188"/>
       <use xlink:href="#DejaVuSans-30" x="318.115234"/>
      </g>
     </g>
    </g>
    <g id="xtick_6">
     <g id="line2d_6">
      <g>
       <use xlink:href="#m4d880b7fbe" x="297.042772" y="307.584" style="stroke: #000000; stroke-width: 0.8"/>
      </g>
     </g>
     <g id="text_6">
      <!-- 125000 -->
      <g transform="translate(277.955272 322.182437)scale(0.1 -0.1)">
       <use xlink:href="#DejaVuSans-31"/>
       <use xlink:href="#DejaVuSans-32" x="63.623047"/>
       <use xlink:href="#DejaVuSans-35" x="127.246094"/>
       <use xlink:href="#DejaVuSans-30" x="190.869141"/>
       <use xlink:href="#DejaVuSans-30" x="254.492188"/>
       <use xlink:href="#DejaVuSans-30" x="318.115234"/>
      </g>
     </g>
    </g>
    <g id="xtick_7">
     <g id="line2d_7">
      <g>
       <use xlink:href="#m4d880b7fbe" x="341.684781" y="307.584" style="stroke: #000000; stroke-width: 0.8"/>
      </g>
     </g>
     <g id="text_7">
      <!-- 150000 -->
      <g transform="translate(322.597281 322.182437)scale(0.1 -0.1)">
       <use xlink:href="#DejaVuSans-31"/>
       <use xlink:href="#DejaVuSans-35" x="63.623047"/>
       <use xlink:href="#DejaVuSans-30" x="127.246094"/>
       <use xlink:href="#DejaVuSans-30" x="190.869141"/>
       <use xlink:href="#DejaVuSans-30" x="254.492188"/>
       <use xlink:href="#DejaVuSans-30" x="318.115234"/>
      </g>
     </g>
    </g>
    <g id="xtick_8">
     <g id="line2d_8">
      <g>
       <use xlink:href="#m4d880b7fbe" x="386.32679" y="307.584" style="stroke: #000000; stroke-width: 0.8"/>
      </g>
     </g>
     <g id="text_8">
      <!-- 175000 -->
      <g transform="translate(367.23929 322.182437)scale(0.1 -0.1)">
       <use xlink:href="#DejaVuSans-31"/>
       <use xlink:href="#DejaVuSans-37" x="63.623047"/>
       <use xlink:href="#DejaVuSans-35" x="127.246094"/>
       <use xlink:href="#DejaVuSans-30" x="190.869141"/>
       <use xlink:href="#DejaVuSans-30" x="254.492188"/>
       <use xlink:href="#DejaVuSans-30" x="318.115234"/>
      </g>
     </g>
    </g>
   </g>
   <g id="matplotlib.axis_2">
    <g id="ytick_1">
     <g id="line2d_9">
      <defs>
       <path id="m382be01e4c" d="M 0 0 
L -3.5 0 
" style="stroke: #000000; stroke-width: 0.8"/>
      </defs>
      <g>
       <use xlink:href="#m382be01e4c" x="57.6" y="295.488" style="stroke: #000000; stroke-width: 0.8"/>
      </g>
     </g>
     <g id="text_9">
      <!-- 0.0 -->
      <g transform="translate(34.696875 299.287219)scale(0.1 -0.1)">
       <defs>
        <path id="DejaVuSans-2e" d="M 684 794 
L 1344 794 
L 1344 0 
L 684 0 
L 684 794 
z
" transform="scale(0.015625)"/>
       </defs>
       <use xlink:href="#DejaVuSans-30"/>
       <use xlink:href="#DejaVuSans-2e" x="63.623047"/>
       <use xlink:href="#DejaVuSans-30" x="95.410156"/>
      </g>
     </g>
    </g>
    <g id="ytick_2">
     <g id="line2d_10">
      <g>
       <use xlink:href="#m382be01e4c" x="57.6" y="247.104" style="stroke: #000000; stroke-width: 0.8"/>
      </g>
     </g>
     <g id="text_10">
      <!-- 0.2 -->
      <g transform="translate(34.696875 250.903219)scale(0.1 -0.1)">
       <use xlink:href="#DejaVuSans-30"/>
       <use xlink:href="#DejaVuSans-2e" x="63.623047"/>
       <use xlink:href="#DejaVuSans-32" x="95.410156"/>
      </g>
     </g>
    </g>
    <g id="ytick_3">
     <g id="line2d_11">
      <g>
       <use xlink:href="#m382be01e4c" x="57.6" y="198.72" style="stroke: #000000; stroke-width: 0.8"/>
      </g>
     </g>
     <g id="text_11">
      <!-- 0.4 -->
      <g transform="translate(34.696875 202.519219)scale(0.1 -0.1)">
       <defs>
        <path id="DejaVuSans-34" d="M 2419 4116 
L 825 1625 
L 2419 1625 
L 2419 4116 
z
M 2253 4666 
L 3047 4666 
L 3047 1625 
L 3713 1625 
L 3713 1100 
L 3047 1100 
L 3047 0 
L 2419 0 
L 2419 1100 
L 313 1100 
L 313 1709 
L 2253 4666 
z
" transform="scale(0.015625)"/>
       </defs>
       <use xlink:href="#DejaVuSans-30"/>
       <use xlink:href="#DejaVuSans-2e" x="63.623047"/>
       <use xlink:href="#DejaVuSans-34" x="95.410156"/>
      </g>
     </g>
    </g>
    <g id="ytick_4">
     <g id="line2d_12">
      <g>
       <use xlink:href="#m382be01e4c" x="57.6" y="150.336" style="stroke: #000000; stroke-width: 0.8"/>
      </g>
     </g>
     <g id="text_12">
      <!-- 0.6 -->
      <g transform="translate(34.696875 154.135219)scale(0.1 -0.1)">
       <defs>
        <path id="DejaVuSans-36" d="M 2113 2584 
Q 1688 2584 1439 2293 
Q 1191 2003 1191 1497 
Q 1191 994 1439 701 
Q 1688 409 2113 409 
Q 2538 409 2786 701 
Q 3034 994 3034 1497 
Q 3034 2003 2786 2293 
Q 2538 2584 2113 2584 
z
M 3366 4563 
L 3366 3988 
Q 3128 4100 2886 4159 
Q 2644 4219 2406 4219 
Q 1781 4219 1451 3797 
Q 1122 3375 1075 2522 
Q 1259 2794 1537 2939 
Q 1816 3084 2150 3084 
Q 2853 3084 3261 2657 
Q 3669 2231 3669 1497 
Q 3669 778 3244 343 
Q 2819 -91 2113 -91 
Q 1303 -91 875 529 
Q 447 1150 447 2328 
Q 447 3434 972 4092 
Q 1497 4750 2381 4750 
Q 2619 4750 2861 4703 
Q 3103 4656 3366 4563 
z
" transform="scale(0.015625)"/>
       </defs>
       <use xlink:href="#DejaVuSans-30"/>
       <use xlink:href="#DejaVuSans-2e" x="63.623047"/>
       <use xlink:href="#DejaVuSans-36" x="95.410156"/>
      </g>
     </g>
    </g>
    <g id="ytick_5">
     <g id="line2d_13">
      <g>
       <use xlink:href="#m382be01e4c" x="57.6" y="101.952" style="stroke: #000000; stroke-width: 0.8"/>
      </g>
     </g>
     <g id="text_13">
      <!-- 0.8 -->
      <g transform="translate(34.696875 105.751219)scale(0.1 -0.1)">
       <defs>
        <path id="DejaVuSans-38" d="M 2034 2216 
Q 1584 2216 1326 1975 
Q 1069 1734 1069 1313 
Q 1069 891 1326 650 
Q 1584 409 2034 409 
Q 2484 409 2743 651 
Q 3003 894 3003 1313 
Q 3003 1734 2745 1975 
Q 2488 2216 2034 2216 
z
M 1403 2484 
Q 997 2584 770 2862 
Q 544 3141 544 3541 
Q 544 4100 942 4425 
Q 1341 4750 2034 4750 
Q 2731 4750 3128 4425 
Q 3525 4100 3525 3541 
Q 3525 3141 3298 2862 
Q 3072 2584 2669 2484 
Q 3125 2378 3379 2068 
Q 3634 1759 3634 1313 
Q 3634 634 3220 271 
Q 2806 -91 2034 -91 
Q 1263 -91 848 271 
Q 434 634 434 1313 
Q 434 1759 690 2068 
Q 947 2378 1403 2484 
z
M 1172 3481 
Q 1172 3119 1398 2916 
Q 1625 2713 2034 2713 
Q 2441 2713 2670 2916 
Q 2900 3119 2900 3481 
Q 2900 3844 2670 4047 
Q 2441 4250 2034 4250 
Q 1625 4250 1398 4047 
Q 1172 3844 1172 3481 
z
" transform="scale(0.015625)"/>
       </defs>
       <use xlink:href="#DejaVuSans-30"/>
       <use xlink:href="#DejaVuSans-2e" x="63.623047"/>
       <use xlink:href="#DejaVuSans-38" x="95.410156"/>
      </g>
     </g>
    </g>
    <g id="ytick_6">
     <g id="line2d_14">
      <g>
       <use xlink:href="#m382be01e4c" x="57.6" y="53.568" style="stroke: #000000; stroke-width: 0.8"/>
      </g>
     </g>
     <g id="text_14">
      <!-- 1.0 -->
      <g transform="translate(34.696875 57.367219)scale(0.1 -0.1)">
       <use xlink:href="#DejaVuSans-31"/>
       <use xlink:href="#DejaVuSans-2e" x="63.623047"/>
       <use xlink:href="#DejaVuSans-30" x="95.410156"/>
      </g>
     </g>
    </g>
   </g>
   <g id="line2d_15">
    <path d="M 73.832727 295.488 
L 73.886298 295.488 
L 74.020224 271.296 
L 74.064866 271.296 
L 74.198792 247.104 
L 74.234505 247.104 
L 74.368431 222.912 
L 74.395217 222.912 
L 74.520214 205.9776 
L 74.529143 205.9776 
L 74.663069 181.7856 
L 74.716639 191.4624 
L 74.770209 181.7856 
L 74.859493 167.2704 
L 74.886279 174.528 
L 74.904135 174.528 
L 75.038062 150.336 
L 75.055918 150.336 
L 75.180916 133.4016 
L 75.207701 133.4016 
L 75.288057 118.8864 
L 75.314842 126.144 
L 75.421983 133.4016 
L 75.54698 118.8864 
L 75.564837 118.8864 
L 75.671978 101.952 
L 75.743405 118.8864 
L 75.779119 109.2096 
L 75.823761 101.952 
L 75.88626 109.2096 
L 75.913045 109.2096 
L 75.975544 101.952 
L 75.993401 118.8864 
L 76.011257 118.8864 
L 76.020186 118.8864 
L 76.145183 94.6944 
L 76.225539 94.6944 
L 76.350537 77.76 
L 76.359465 77.76 
L 76.377322 85.0176 
L 76.475534 70.5024 
L 76.511248 70.5024 
L 76.627317 60.8256 
L 76.707673 60.8256 
L 76.823742 53.568 
L 396.933731 53.568 
L 397.076585 85.0176 
L 397.112299 85.0176 
L 397.255153 126.144 
L 397.281938 126.144 
L 397.406936 143.0784 
L 397.514077 143.0784 
L 397.656931 174.528 
L 397.692645 174.528 
L 397.853356 215.6544 
L 397.871213 215.6544 
L 397.996211 230.1696 
L 398.022996 230.1696 
L 398.147993 254.3616 
L 398.246206 254.3616 
L 398.362275 264.0384 
L 398.415846 264.0384 
L 398.487273 278.5536 
L 398.487273 278.5536 
" clip-path="url(#pb0415d13f3)" style="fill: none; stroke-dasharray: 5.55,2.4; stroke-dashoffset: 0; stroke: #1f77b4; stroke-width: 1.5"/>
   </g>
   <g id="line2d_16">
    <path d="M 73.832727 295.488 
L 73.886298 295.488 
L 74.020224 271.296 
L 74.064866 271.296 
L 74.198792 247.104 
L 74.234505 247.104 
L 74.368431 222.912 
L 74.395217 222.912 
L 74.520214 205.9776 
L 74.529143 205.9776 
L 74.645212 198.72 
L 74.716639 198.72 
L 74.850565 174.528 
L 74.957706 174.528 
L 75.073775 167.2704 
L 75.341627 167.2704 
L 75.421983 174.528 
L 75.448768 167.2704 
L 75.457696 167.2704 
L 75.49341 174.528 
L 75.564837 167.2704 
L 75.573766 167.2704 
L 75.689835 174.528 
L 75.779119 174.528 
L 75.904116 157.5936 
L 76.288038 157.5936 
L 76.404107 150.336 
L 76.707673 150.336 
L 76.823742 143.0784 
L 76.939811 143.0784 
L 77.038024 150.336 
L 77.046952 143.0784 
L 77.332661 143.0784 
L 77.457658 157.5936 
L 77.493372 157.5936 
L 77.609441 150.336 
L 77.61837 150.336 
L 77.734439 143.0784 
L 77.779081 143.0784 
L 77.886222 167.2704 
L 77.904078 157.5936 
L 77.939792 157.5936 
L 77.957649 150.336 
L 77.993363 167.2704 
L 78.038005 167.2704 
L 78.06479 167.2704 
L 78.180859 157.5936 
L 78.189787 157.5936 
L 78.305857 167.2704 
L 78.502281 167.2704 
L 78.618351 157.5936 
L 78.645136 157.5936 
L 78.761205 167.2704 
L 78.796919 167.2704 
L 78.912988 157.5936 
L 78.948701 157.5936 
L 79.064771 150.336 
L 79.216554 150.336 
L 79.332623 143.0784 
L 79.484406 143.0784 
L 79.582618 133.4016 
L 79.591546 143.0784 
L 79.698687 143.0784 
L 79.814756 133.4016 
L 79.886184 133.4016 
L 79.912969 143.0784 
L 79.993324 133.4016 
L 80.029038 133.4016 
L 80.145107 126.144 
L 80.350461 126.144 
L 80.430816 143.0784 
L 80.46653 133.4016 
L 80.502243 133.4016 
L 80.511172 126.144 
L 80.609384 133.4016 
L 80.716525 133.4016 
L 80.796881 150.336 
L 80.832594 143.0784 
L 80.841523 143.0784 
L 80.957592 133.4016 
L 80.993305 133.4016 
L 81.109375 143.0784 
L 81.18973 143.0784 
L 81.3058 133.4016 
L 81.350442 133.4016 
L 81.421869 150.336 
L 81.466511 143.0784 
L 81.58258 133.4016 
L 81.591508 133.4016 
L 81.707578 126.144 
L 81.734363 126.144 
L 81.743291 133.4016 
L 81.841504 126.144 
L 81.904002 126.144 
L 82.020072 118.8864 
L 82.145069 118.8864 
L 82.225425 126.144 
L 82.25221 118.8864 
L 82.270067 118.8864 
L 82.278995 109.2096 
L 82.377208 118.8864 
L 82.386136 118.8864 
L 82.439707 109.2096 
L 82.493277 118.8864 
L 82.716487 118.8864 
L 82.832556 126.144 
L 83.109337 126.144 
L 83.225406 133.4016 
L 83.252191 133.4016 
L 83.36826 126.144 
L 83.439688 126.144 
L 83.546828 109.2096 
L 83.555757 118.8864 
L 83.59147 118.8864 
L 83.618256 143.0784 
L 83.70754 126.144 
L 83.787895 126.144 
L 83.903964 118.8864 
L 84.002177 118.8864 
L 84.020034 109.2096 
L 84.109318 118.8864 
L 84.136103 118.8864 
L 84.252172 126.144 
L 84.261101 126.144 
L 84.332528 118.8864 
L 84.368241 126.144 
L 84.43074 126.144 
L 84.466454 143.0784 
L 84.546809 133.4016 
L 84.609308 133.4016 
L 84.716449 118.8864 
L 84.725377 126.144 
L 84.752163 126.144 
L 84.82359 143.0784 
L 84.868232 133.4016 
L 84.87716 133.4016 
L 84.993229 126.144 
L 85.153941 126.144 
L 85.261082 118.8864 
L 85.386079 133.4016 
L 85.421793 133.4016 
L 85.528934 143.0784 
L 85.653931 126.144 
L 85.778929 126.144 
L 85.877141 118.8864 
L 85.88607 126.144 
L 85.984282 126.144 
L 86.100351 133.4016 
L 86.16285 133.4016 
L 86.207492 143.0784 
L 86.269991 133.4016 
L 86.296776 133.4016 
L 86.412845 126.144 
L 86.439631 126.144 
L 86.5557 133.4016 
L 86.734268 133.4016 
L 86.850337 126.144 
L 87.019977 126.144 
L 87.100332 118.8864 
L 87.127118 126.144 
L 87.332471 126.144 
L 87.44854 133.4016 
L 87.528896 133.4016 
L 87.591394 126.144 
L 87.636036 133.4016 
L 87.778891 133.4016 
L 87.89496 126.144 
L 87.939602 126.144 
L 88.0646 143.0784 
L 88.100313 143.0784 
L 88.127099 150.336 
L 88.207454 143.0784 
L 88.323523 133.4016 
L 88.439593 143.0784 
L 88.466378 143.0784 
L 88.475306 133.4016 
L 88.573519 143.0784 
L 88.716373 143.0784 
L 88.832442 150.336 
L 89.153865 150.336 
L 89.269934 143.0784 
L 89.448502 143.0784 
L 89.466359 150.336 
L 89.555643 143.0784 
L 89.832423 143.0784 
L 89.948492 150.336 
L 90.028848 150.336 
L 90.046705 157.5936 
L 90.109204 143.0784 
L 90.135989 150.336 
L 90.180631 150.336 
L 90.2967 157.5936 
L 90.323485 157.5936 
L 90.439555 150.336 
L 90.457411 150.336 
L 90.582409 133.4016 
L 90.627051 133.4016 
L 90.74312 143.0784 
L 90.787762 143.0784 
L 90.903831 150.336 
L 91.037757 150.336 
L 91.0824 157.5936 
L 91.144898 150.336 
L 91.18954 150.336 
L 91.314538 133.4016 
L 91.368108 143.0784 
L 91.421679 133.4016 
L 91.484178 133.4016 
L 91.600247 143.0784 
L 91.618104 143.0784 
L 91.743101 157.5936 
L 91.921669 157.5936 
L 92.037738 150.336 
L 92.073452 150.336 
L 92.109166 157.5936 
L 92.180593 150.336 
L 92.243092 150.336 
L 92.359161 143.0784 
L 92.394875 143.0784 
L 92.439517 133.4016 
L 92.502015 143.0784 
L 92.689512 143.0784 
L 92.707369 133.4016 
L 92.796653 143.0784 
L 92.912722 143.0784 
L 93.028791 133.4016 
L 93.189502 133.4016 
L 93.225216 143.0784 
L 93.296643 133.4016 
L 93.385927 133.4016 
L 93.501996 143.0784 
L 93.510925 143.0784 
L 93.59128 150.336 
L 93.618066 143.0784 
L 93.671636 143.0784 
L 93.689493 150.336 
L 93.778777 143.0784 
L 94.314481 143.0784 
L 94.403765 150.336 
L 94.421622 143.0784 
L 94.475192 143.0784 
L 94.510906 150.336 
L 94.573405 133.4016 
L 94.671617 133.4016 
L 94.680545 126.144 
L 94.778758 133.4016 
L 94.787686 133.4016 
L 94.796615 143.0784 
L 94.894827 133.4016 
L 95.144822 133.4016 
L 95.260892 126.144 
L 95.43946 126.144 
L 95.555529 118.8864 
L 95.600171 118.8864 
L 95.71624 109.2096 
L 95.796596 109.2096 
L 95.912665 118.8864 
L 96.046591 118.8864 
L 96.171589 133.4016 
L 96.234087 133.4016 
L 96.350157 150.336 
L 96.475154 133.4016 
L 96.573367 150.336 
L 96.591223 143.0784 
L 96.60908 143.0784 
L 96.725149 150.336 
L 96.743006 150.336 
L 96.868004 133.4016 
L 96.876932 133.4016 
L 96.912646 143.0784 
L 96.984073 133.4016 
L 97.082286 133.4016 
L 97.198355 126.144 
L 97.242997 126.144 
L 97.359066 118.8864 
L 97.546562 118.8864 
L 97.662632 126.144 
L 97.67156 126.144 
L 97.689417 118.8864 
L 97.778701 126.144 
L 97.876913 126.144 
L 97.912627 118.8864 
L 97.975126 133.4016 
L 98.019768 133.4016 
L 98.091195 126.144 
L 98.109052 143.0784 
L 98.11798 143.0784 
L 98.234049 143.0784 
L 98.359047 157.5936 
L 98.519758 157.5936 
L 98.537615 167.2704 
L 98.626899 157.5936 
L 98.751897 143.0784 
L 98.859037 143.0784 
L 98.975107 133.4016 
L 99.162603 133.4016 
L 99.296529 109.2096 
L 99.600095 109.2096 
L 99.725092 126.144 
L 99.948302 126.144 
L 100.037586 133.4016 
L 100.055443 126.144 
L 100.109014 126.144 
L 100.225083 118.8864 
L 100.234011 118.8864 
L 100.350081 126.144 
L 100.376866 126.144 
L 100.492935 133.4016 
L 100.617933 133.4016 
L 100.734002 126.144 
L 100.983997 126.144 
L 101.100066 118.8864 
L 101.18935 118.8864 
L 101.30542 109.2096 
L 101.403632 109.2096 
L 101.519701 118.8864 
L 101.698269 118.8864 
L 101.814338 109.2096 
L 101.957193 109.2096 
L 102.08219 126.144 
L 102.091119 126.144 
L 102.216117 150.336 
L 102.332186 143.0784 
L 102.457183 143.0784 
L 102.573253 133.4016 
L 102.858961 133.4016 
L 102.912532 143.0784 
L 102.957174 133.4016 
L 103.019673 126.144 
L 103.064315 133.4016 
L 103.14467 133.4016 
L 103.207169 143.0784 
L 103.251811 133.4016 
L 103.31431 133.4016 
L 103.430379 126.144 
L 103.48395 126.144 
L 103.600019 133.4016 
L 103.716088 126.144 
L 103.742873 126.144 
L 103.858942 133.4016 
L 104.171437 133.4016 
L 104.296434 150.336 
L 104.385718 150.336 
L 104.501787 143.0784 
L 104.591071 143.0784 
L 104.707141 133.4016 
L 104.742854 133.4016 
L 104.858923 143.0784 
L 104.992849 143.0784 
L 105.037491 133.4016 
L 105.09999 143.0784 
L 105.108919 143.0784 
L 105.224988 133.4016 
L 105.376771 133.4016 
L 105.49284 126.144 
L 105.528554 126.144 
L 105.644623 133.4016 
L 105.733907 133.4016 
L 105.760692 143.0784 
L 105.841048 133.4016 
L 105.858904 133.4016 
L 105.974974 150.336 
L 106.091043 143.0784 
L 106.189255 143.0784 
L 106.305325 150.336 
L 106.38568 150.336 
L 106.501749 143.0784 
L 106.537463 143.0784 
L 106.546391 150.336 
L 106.644604 143.0784 
L 106.707103 143.0784 
L 106.823172 133.4016 
L 106.930313 133.4016 
L 107.046382 126.144 
L 107.05531 126.144 
L 107.17138 118.8864 
L 107.332091 118.8864 
L 107.44816 109.2096 
L 107.519587 109.2096 
L 107.555301 101.952 
L 107.626728 109.2096 
L 107.742797 118.8864 
L 107.787439 118.8864 
L 107.921365 143.0784 
L 108.037434 133.4016 
L 108.108862 133.4016 
L 108.233859 118.8864 
L 108.296358 118.8864 
L 108.341 109.2096 
L 108.403499 118.8864 
L 108.573139 118.8864 
L 108.698136 133.4016 
L 108.707065 133.4016 
L 108.832062 150.336 
L 108.948131 143.0784 
L 108.992773 143.0784 
L 109.090986 150.336 
L 109.099914 143.0784 
L 109.162413 143.0784 
L 109.23384 157.5936 
L 109.278482 150.336 
L 109.394552 143.0784 
L 109.40348 143.0784 
L 109.465979 157.5936 
L 109.519549 150.336 
L 109.590976 150.336 
L 109.707046 143.0784 
L 109.742759 143.0784 
L 109.814186 150.336 
L 109.8499 143.0784 
L 109.867757 143.0784 
L 109.992754 126.144 
L 110.090967 126.144 
L 110.215965 143.0784 
L 110.260607 143.0784 
L 110.314177 150.336 
L 110.367747 143.0784 
L 110.590957 143.0784 
L 110.707027 133.4016 
L 110.787382 133.4016 
L 110.894523 126.144 
L 110.930237 133.4016 
L 111.001664 126.144 
L 111.046306 126.144 
L 111.162375 133.4016 
L 111.198089 133.4016 
L 111.314158 126.144 
L 111.340943 126.144 
L 111.457012 118.8864 
L 111.555225 118.8864 
L 111.680222 133.4016 
L 111.733793 133.4016 
L 111.778435 126.144 
L 111.840934 133.4016 
L 112.117714 133.4016 
L 112.224855 126.144 
L 112.367709 157.5936 
L 112.430208 157.5936 
L 112.47485 167.2704 
L 112.537349 157.5936 
L 112.626633 157.5936 
L 112.760559 133.4016 
L 112.796273 133.4016 
L 112.912342 126.144 
L 113.099838 126.144 
L 113.215908 118.8864 
L 113.385547 118.8864 
L 113.501616 126.144 
L 113.581972 126.144 
L 113.70697 143.0784 
L 113.903394 143.0784 
L 114.028392 126.144 
L 114.055177 126.144 
L 114.180175 109.2096 
L 114.340886 109.2096 
L 114.465884 126.144 
L 114.501597 126.144 
L 114.617667 118.8864 
L 114.751593 118.8864 
L 114.885519 143.0784 
L 115.206941 143.0784 
L 115.331939 126.144 
L 115.965855 126.144 
L 116.081924 118.8864 
L 116.296206 118.8864 
L 116.412275 109.2096 
L 116.447989 109.2096 
L 116.510488 126.144 
L 116.564058 118.8864 
L 116.572987 118.8864 
L 116.689056 109.2096 
L 116.706913 109.2096 
L 116.787268 118.8864 
L 116.814053 109.2096 
L 117.108691 109.2096 
L 117.117619 118.8864 
L 117.215832 109.2096 
L 117.331901 101.952 
L 117.349758 101.952 
L 117.474755 118.8864 
L 117.608681 118.8864 
L 117.733679 133.4016 
L 117.805106 133.4016 
L 117.930104 150.336 
L 117.983674 150.336 
L 118.046173 167.2704 
L 118.099743 157.5936 
L 118.1176 150.336 
L 118.153314 167.2704 
L 118.189027 167.2704 
L 118.296168 174.528 
L 118.421166 157.5936 
L 118.483665 157.5936 
L 118.599734 150.336 
L 118.742588 150.336 
L 118.858657 143.0784 
L 118.921156 143.0784 
L 119.037225 150.336 
L 119.055082 150.336 
L 119.171152 157.5936 
L 119.197937 157.5936 
L 119.314006 150.336 
L 119.34972 150.336 
L 119.465789 143.0784 
L 119.519359 143.0784 
L 119.57293 150.336 
L 119.6265 143.0784 
L 119.751498 143.0784 
L 119.79614 150.336 
L 119.858638 143.0784 
L 120.001493 143.0784 
L 120.12649 157.5936 
L 120.153276 157.5936 
L 120.269345 167.2704 
L 120.376486 167.2704 
L 120.412199 174.528 
L 120.483627 167.2704 
L 120.501483 167.2704 
L 120.617553 174.528 
L 120.724693 174.528 
L 120.849691 157.5936 
L 120.885405 157.5936 
L 120.992545 167.2704 
L 121.108615 157.5936 
L 121.224684 157.5936 
L 121.260398 167.2704 
L 121.313968 150.336 
L 121.322896 150.336 
L 121.35861 150.336 
L 121.474679 143.0784 
L 121.599677 143.0784 
L 121.715746 133.4016 
L 122.108596 133.4016 
L 122.233593 157.5936 
L 122.349663 157.5936 
L 122.465732 150.336 
L 122.510374 150.336 
L 122.626443 143.0784 
L 122.724655 143.0784 
L 122.840725 150.336 
L 122.983579 150.336 
L 123.099648 157.5936 
L 123.162147 157.5936 
L 123.206789 150.336 
L 123.26036 157.5936 
L 123.376429 167.2704 
L 123.385357 157.5936 
L 123.48357 167.2704 
L 123.563925 167.2704 
L 123.671066 174.528 
L 123.796064 157.5936 
L 123.822849 157.5936 
L 123.894276 167.2704 
L 123.92999 157.5936 
L 123.938918 157.5936 
L 123.992488 143.0784 
L 124.054987 150.336 
L 124.421052 150.336 
L 124.42998 157.5936 
L 124.528193 150.336 
L 124.65319 150.336 
L 124.662119 157.5936 
L 124.760331 150.336 
L 124.82283 150.336 
L 124.938899 143.0784 
L 124.992469 143.0784 
L 125.108539 133.4016 
L 125.349606 133.4016 
L 125.465675 126.144 
L 125.599601 126.144 
L 125.71567 133.4016 
L 125.840668 118.8864 
L 126.019236 118.8864 
L 126.054949 126.144 
L 126.117448 109.2096 
L 126.188875 109.2096 
L 126.269231 118.8864 
L 126.296016 109.2096 
L 126.3853 109.2096 
L 126.501369 101.952 
L 126.510298 101.952 
L 126.626367 109.2096 
L 126.787078 109.2096 
L 126.894219 126.144 
L 126.903147 118.8864 
L 126.929933 118.8864 
L 127.081715 157.5936 
L 127.179928 157.5936 
L 127.295997 150.336 
L 127.331711 150.336 
L 127.456708 126.144 
L 127.572778 133.4016 
L 127.662062 133.4016 
L 127.769202 143.0784 
L 127.8942 126.144 
L 127.903128 126.144 
L 128.019198 133.4016 
L 128.242408 133.4016 
L 128.367405 150.336 
L 128.412047 150.336 
L 128.537045 133.4016 
L 128.554902 143.0784 
L 128.635257 133.4016 
L 128.751327 126.144 
L 128.795969 126.144 
L 128.912038 143.0784 
L 129.037035 126.144 
L 129.17989 126.144 
L 129.304888 143.0784 
L 129.322744 143.0784 
L 129.358458 133.4016 
L 129.367386 150.336 
L 129.429885 143.0784 
L 129.492384 143.0784 
L 129.608453 133.4016 
L 129.858448 133.4016 
L 129.912019 126.144 
L 129.965589 133.4016 
L 130.197728 133.4016 
L 130.349511 181.7856 
L 130.367367 181.7856 
L 130.492365 198.72 
L 130.545935 198.72 
L 130.670933 181.7856 
L 130.787002 191.4624 
L 130.804859 191.4624 
L 130.929857 174.528 
L 130.992355 174.528 
L 131.108425 167.2704 
L 131.13521 167.2704 
L 131.153067 174.528 
L 131.242351 167.2704 
L 131.41199 167.2704 
L 131.536988 150.336 
L 131.670914 150.336 
L 131.786983 143.0784 
L 131.795912 143.0784 
L 131.831625 150.336 
L 131.894124 133.4016 
L 131.992336 133.4016 
L 132.02805 143.0784 
L 132.099477 133.4016 
L 132.572683 133.4016 
L 132.69768 150.336 
L 132.822678 150.336 
L 132.86732 157.5936 
L 132.929819 150.336 
L 133.179814 150.336 
L 133.304812 133.4016 
L 133.519093 133.4016 
L 133.545878 150.336 
L 133.626234 133.4016 
L 133.644091 133.4016 
L 133.70659 150.336 
L 133.76016 143.0784 
L 133.956585 143.0784 
L 134.081582 126.144 
L 134.117296 126.144 
L 134.233365 133.4016 
L 134.447647 133.4016 
L 134.465504 126.144 
L 134.474432 150.336 
L 134.536931 143.0784 
L 134.617287 157.5936 
L 134.653 150.336 
L 134.706571 150.336 
L 134.733356 143.0784 
L 134.813711 150.336 
L 134.831568 150.336 
L 134.849425 143.0784 
L 134.938709 150.336 
L 135.001208 150.336 
L 135.117277 143.0784 
L 135.242275 143.0784 
L 135.340487 126.144 
L 135.358344 133.4016 
L 135.456556 133.4016 
L 135.581554 118.8864 
L 135.635124 118.8864 
L 135.751194 109.2096 
L 135.867263 118.8864 
L 135.93869 118.8864 
L 136.063688 133.4016 
L 136.081544 133.4016 
L 136.126186 143.0784 
L 136.170828 126.144 
L 136.179757 126.144 
L 136.188685 126.144 
L 136.251184 133.4016 
L 136.295826 126.144 
L 136.394039 126.144 
L 136.510108 118.8864 
L 136.519036 118.8864 
L 136.644034 133.4016 
L 137.05474 133.4016 
L 137.179738 118.8864 
L 137.197595 118.8864 
L 137.340449 157.5936 
L 137.465447 143.0784 
L 137.50116 143.0784 
L 137.61723 133.4016 
L 137.742227 133.4016 
L 137.858296 118.8864 
L 137.992222 143.0784 
L 138.019008 143.0784 
L 138.108292 133.4016 
L 138.126148 143.0784 
L 138.215432 143.0784 
L 138.242218 150.336 
L 138.322573 143.0784 
L 138.34043 143.0784 
L 138.402929 150.336 
L 138.447571 143.0784 
L 138.670781 143.0784 
L 138.795779 157.5936 
L 138.893991 157.5936 
L 139.001132 150.336 
L 139.126129 167.2704 
L 139.135058 167.2704 
L 139.251127 174.528 
L 139.295769 174.528 
L 139.313626 191.4624 
L 139.40291 174.528 
L 139.474337 174.528 
L 139.599335 157.5936 
L 139.62612 157.5936 
L 139.652905 167.2704 
L 139.733261 157.5936 
L 139.804688 157.5936 
L 139.920757 143.0784 
L 140.045755 157.5936 
L 140.117182 157.5936 
L 140.233251 150.336 
L 140.6886 150.336 
L 140.804669 143.0784 
L 140.813597 143.0784 
L 140.938595 118.8864 
L 141.018951 118.8864 
L 141.081449 126.144 
L 141.126091 118.8864 
L 141.670724 118.8864 
L 141.786793 109.2096 
L 142.001075 109.2096 
L 142.117144 118.8864 
L 142.617135 118.8864 
L 142.626063 126.144 
L 142.688562 109.2096 
L 142.715347 109.2096 
L 142.876058 109.2096 
L 142.992127 118.8864 
L 143.001056 118.8864 
L 143.036769 126.144 
L 143.108197 118.8864 
L 143.197481 118.8864 
L 143.31355 109.2096 
L 143.518903 109.2096 
L 143.643901 94.6944 
L 143.965323 94.6944 
L 144.090321 109.2096 
L 144.20639 109.2096 
L 144.322459 101.952 
L 144.37603 101.952 
L 144.492099 109.2096 
L 144.581383 109.2096 
L 144.697452 118.8864 
L 144.759951 118.8864 
L 144.87602 109.2096 
L 145.04566 109.2096 
L 145.161729 118.8864 
L 145.393868 118.8864 
L 145.49208 126.144 
L 145.501008 118.8864 
L 145.536722 118.8864 
L 145.652791 109.2096 
L 145.688505 109.2096 
L 145.813502 126.144 
L 145.858144 126.144 
L 145.902786 133.4016 
L 145.965285 126.144 
L 146.018856 126.144 
L 146.134925 133.4016 
L 146.197424 133.4016 
L 146.206352 126.144 
L 146.295636 133.4016 
L 146.411705 143.0784 
L 146.438491 143.0784 
L 146.545631 150.336 
L 146.643844 126.144 
L 146.670629 133.4016 
L 146.742056 133.4016 
L 146.858125 126.144 
L 146.884911 126.144 
L 147.00098 133.4016 
L 147.072407 133.4016 
L 147.197405 150.336 
L 147.313474 157.5936 
L 147.375973 157.5936 
L 147.50097 174.528 
L 147.625968 191.4624 
L 147.679538 191.4624 
L 147.706324 181.7856 
L 147.750966 198.72 
L 147.777751 198.72 
L 147.786679 198.72 
L 147.911677 181.7856 
L 147.94739 181.7856 
L 148.072388 167.2704 
L 148.090245 167.2704 
L 148.197386 157.5936 
L 148.295598 174.528 
L 148.313455 167.2704 
L 148.527737 167.2704 
L 148.545593 157.5936 
L 148.608092 174.528 
L 148.625949 174.528 
L 148.706305 174.528 
L 148.742018 181.7856 
L 148.813445 174.528 
L 149.090226 174.528 
L 149.206295 167.2704 
L 149.545574 167.2704 
L 149.661644 157.5936 
L 149.724142 157.5936 
L 149.831283 143.0784 
L 149.840212 150.336 
L 149.884854 150.336 
L 150.009851 133.4016 
L 150.188419 133.4016 
L 150.206276 143.0784 
L 150.29556 133.4016 
L 150.509842 133.4016 
L 150.51877 126.144 
L 150.616983 133.4016 
L 151.224114 133.4016 
L 151.340183 126.144 
L 151.349112 126.144 
L 151.465181 133.4016 
L 151.500894 133.4016 
L 151.625892 118.8864 
L 152.134811 118.8864 
L 152.170524 109.2096 
L 152.241952 118.8864 
L 152.599088 118.8864 
L 152.715157 109.2096 
L 152.768727 109.2096 
L 152.840155 118.8864 
L 152.875868 109.2096 
L 152.947295 109.2096 
L 153.072293 126.144 
L 153.340145 126.144 
L 153.456214 118.8864 
L 153.661568 118.8864 
L 153.786565 101.952 
L 153.920491 101.952 
L 154.03656 109.2096 
L 154.081202 109.2096 
L 154.197272 101.952 
L 154.331198 101.952 
L 154.384768 118.8864 
L 154.447267 109.2096 
L 154.465124 109.2096 
L 154.581193 118.8864 
L 154.661549 118.8864 
L 154.777618 109.2096 
L 154.849045 109.2096 
L 154.965114 101.952 
L 155.134754 101.952 
L 155.215109 109.2096 
L 155.241895 101.952 
L 155.32225 101.952 
L 155.331179 109.2096 
L 155.429391 101.952 
L 155.536532 101.952 
L 155.652601 94.6944 
L 155.679386 94.6944 
L 155.750814 118.8864 
L 155.804384 109.2096 
L 156.018666 109.2096 
L 156.099021 126.144 
L 156.134735 118.8864 
L 156.143663 118.8864 
L 156.232947 126.144 
L 156.250804 118.8864 
L 156.456157 118.8864 
L 156.572227 126.144 
L 156.688296 126.144 
L 156.849007 167.2704 
L 156.857935 167.2704 
L 156.982933 198.72 
L 157.00079 198.72 
L 157.116859 205.9776 
L 157.331141 205.9776 
L 157.340069 215.6544 
L 157.39364 198.72 
L 157.429353 198.72 
L 157.518637 198.72 
L 157.634706 205.9776 
L 157.67042 205.9776 
L 157.795418 191.4624 
L 157.831131 191.4624 
L 157.89363 181.7856 
L 157.938272 191.4624 
L 158.000771 191.4624 
L 158.045413 198.72 
L 158.107912 191.4624 
L 158.250766 191.4624 
L 158.375764 174.528 
L 158.384692 174.528 
L 158.500761 181.7856 
L 158.536475 181.7856 
L 158.625759 198.72 
L 158.652544 191.4624 
L 158.795399 191.4624 
L 158.920396 174.528 
L 159.036465 167.2704 
L 159.152535 167.2704 
L 159.268604 157.5936 
L 159.4561 157.5936 
L 159.57217 150.336 
L 159.786451 150.336 
L 159.893592 167.2704 
L 159.90252 157.5936 
L 159.929306 157.5936 
L 159.938234 167.2704 
L 160.036446 157.5936 
L 160.107874 157.5936 
L 160.232871 174.528 
L 160.313227 174.528 
L 160.438225 157.5936 
L 160.482867 157.5936 
L 160.598936 167.2704 
L 160.625721 167.2704 
L 160.74179 157.5936 
L 160.804289 157.5936 
L 160.848931 167.2704 
L 160.91143 157.5936 
L 160.965 157.5936 
L 161.089998 143.0784 
L 161.179282 143.0784 
L 161.304279 157.5936 
L 161.670344 157.5936 
L 161.679272 167.2704 
L 161.777485 157.5936 
L 161.884626 157.5936 
L 161.97391 167.2704 
L 161.991766 157.5936 
L 162.08105 157.5936 
L 162.19712 150.336 
L 162.277475 150.336 
L 162.393545 143.0784 
L 162.545327 143.0784 
L 162.554256 150.336 
L 162.652468 143.0784 
L 162.947105 143.0784 
L 163.081031 167.2704 
L 163.286385 167.2704 
L 163.411382 222.912 
L 163.447096 222.912 
L 163.563165 230.1696 
L 163.670306 230.1696 
L 163.786375 215.6544 
L 163.875659 222.912 
L 163.893516 215.6544 
L 163.973872 215.6544 
L 164.089941 205.9776 
L 164.170296 205.9776 
L 164.241724 222.912 
L 164.286366 215.6544 
L 164.304222 215.6544 
L 164.42922 198.72 
L 164.554218 181.7856 
L 164.572075 181.7856 
L 164.697072 167.2704 
L 164.902425 167.2704 
L 165.027423 150.336 
L 165.188134 150.336 
L 165.32206 174.528 
L 165.402416 174.528 
L 165.4917 181.7856 
L 165.509557 174.528 
L 165.580984 174.528 
L 165.697053 167.2704 
L 165.804194 167.2704 
L 165.920263 157.5936 
L 165.99169 157.5936 
L 166.10776 150.336 
L 166.16133 150.336 
L 166.277399 157.5936 
L 166.572037 157.5936 
L 166.688106 150.336 
L 166.768461 150.336 
L 166.839889 157.5936 
L 166.875602 150.336 
L 166.964886 150.336 
L 167.080955 143.0784 
L 167.143454 143.0784 
L 167.259523 133.4016 
L 167.286309 133.4016 
L 167.313094 143.0784 
L 167.39345 133.4016 
L 167.536304 133.4016 
L 167.661302 150.336 
L 167.697015 150.336 
L 167.786299 157.5936 
L 167.804156 150.336 
L 167.83987 150.336 
L 167.964867 133.4016 
L 168.188077 133.4016 
L 168.304146 126.144 
L 168.322003 126.144 
L 168.455929 150.336 
L 168.473786 150.336 
L 168.482715 157.5936 
L 168.580927 150.336 
L 168.625569 150.336 
L 168.73271 143.0784 
L 168.848779 150.336 
L 168.902349 150.336 
L 169.027347 167.2704 
L 169.134488 167.2704 
L 169.259485 150.336 
L 169.268414 150.336 
L 169.393412 133.4016 
L 169.723762 133.4016 
L 169.839832 126.144 
L 169.929116 133.4016 
L 169.946972 126.144 
L 169.973758 126.144 
L 170.045185 143.0784 
L 170.089827 133.4016 
L 170.143397 133.4016 
L 170.214824 118.8864 
L 170.250538 133.4016 
L 170.366607 133.4016 
L 170.482677 143.0784 
L 170.563032 143.0784 
L 170.696958 167.2704 
L 170.7416 167.2704 
L 170.884455 198.72 
L 170.973739 198.72 
L 171.098736 230.1696 
L 171.18802 230.1696 
L 171.304089 239.8464 
L 171.41123 239.8464 
L 171.536228 215.6544 
L 171.554085 215.6544 
L 171.679082 198.72 
L 171.714796 198.72 
L 171.830865 181.7856 
L 171.839794 191.4624 
L 171.938006 181.7856 
L 171.955863 181.7856 
L 172.071932 174.528 
L 172.286214 174.528 
L 172.411211 191.4624 
L 172.482639 191.4624 
L 172.598708 198.72 
L 172.616565 198.72 
L 172.741562 215.6544 
L 172.839775 215.6544 
L 172.92013 222.912 
L 172.946915 215.6544 
L 173.116555 215.6544 
L 173.241553 191.4624 
L 173.268338 191.4624 
L 173.357622 181.7856 
L 173.375479 191.4624 
L 173.500476 191.4624 
L 173.616546 181.7856 
L 173.670116 181.7856 
L 173.70583 174.528 
L 173.777257 181.7856 
L 173.786185 181.7856 
L 173.902254 174.528 
L 173.937968 174.528 
L 174.03618 167.2704 
L 174.045109 174.528 
L 174.080822 174.528 
L 174.134393 191.4624 
L 174.196892 181.7856 
L 174.25939 181.7856 
L 174.37546 191.4624 
L 174.384388 191.4624 
L 174.509386 205.9776 
L 174.545099 205.9776 
L 174.661169 198.72 
L 174.732596 198.72 
L 174.848665 191.4624 
L 174.929021 191.4624 
L 175.054018 167.2704 
L 175.089732 167.2704 
L 175.205801 157.5936 
L 175.580794 157.5936 
L 175.696863 150.336 
L 176.116498 150.336 
L 176.232567 143.0784 
L 176.312923 143.0784 
L 176.428992 133.4016 
L 176.884341 133.4016 
L 176.937911 143.0784 
L 176.991481 133.4016 
L 177.036123 133.4016 
L 177.152193 126.144 
L 177.205763 126.144 
L 177.321832 133.4016 
L 177.491472 133.4016 
L 177.607541 143.0784 
L 177.705754 143.0784 
L 177.714682 150.336 
L 177.812894 143.0784 
L 178.143245 143.0784 
L 178.259314 133.4016 
L 178.73252 133.4016 
L 178.848589 126.144 
L 178.884303 126.144 
L 179.0093 143.0784 
L 179.143226 143.0784 
L 179.23251 133.4016 
L 179.250367 143.0784 
L 179.259295 143.0784 
L 179.277152 150.336 
L 179.366436 143.0784 
L 179.482506 143.0784 
L 179.598575 133.4016 
L 179.67893 133.4016 
L 179.777143 143.0784 
L 179.786071 133.4016 
L 179.839642 133.4016 
L 179.973568 167.2704 
L 180.000353 167.2704 
L 180.116422 157.5936 
L 180.152136 157.5936 
L 180.178921 150.336 
L 180.259276 157.5936 
L 180.312847 157.5936 
L 180.437845 143.0784 
L 180.455701 143.0784 
L 180.571771 150.336 
L 180.812837 150.336 
L 180.973549 191.4624 
L 180.991405 191.4624 
L 181.107475 198.72 
L 181.161045 198.72 
L 181.286043 215.6544 
L 181.303899 215.6544 
L 181.419969 205.9776 
L 181.473539 205.9776 
L 181.607465 181.7856 
L 181.794962 181.7856 
L 181.919959 198.72 
L 181.982458 198.72 
L 182.107456 181.7856 
L 182.152098 181.7856 
L 182.268167 174.528 
L 182.294952 174.528 
L 182.411021 181.7856 
L 182.64316 181.7856 
L 182.768157 167.2704 
L 182.812799 167.2704 
L 182.848513 174.528 
L 182.91994 167.2704 
L 182.964582 167.2704 
L 183.036009 157.5936 
L 183.071723 167.2704 
L 183.125293 167.2704 
L 183.250291 150.336 
L 183.268148 150.336 
L 183.384217 157.5936 
L 183.48243 157.5936 
L 183.562785 150.336 
L 183.58957 157.5936 
L 183.70564 157.5936 
L 183.830637 143.0784 
L 183.866351 143.0784 
L 183.902064 150.336 
L 183.973492 143.0784 
L 184.000277 143.0784 
L 184.134203 167.2704 
L 184.169916 167.2704 
L 184.285986 174.528 
L 184.294914 174.528 
L 184.321699 181.7856 
L 184.393126 167.2704 
L 184.491339 167.2704 
L 184.59848 181.7856 
L 184.607408 174.528 
L 184.65205 174.528 
L 184.777048 157.5936 
L 184.803833 157.5936 
L 184.919902 150.336 
L 185.035971 150.336 
L 185.152041 143.0784 
L 185.223468 143.0784 
L 185.339537 150.336 
L 185.482392 150.336 
L 185.598461 143.0784 
L 185.634174 143.0784 
L 185.643103 150.336 
L 185.696673 133.4016 
L 185.732387 133.4016 
L 185.946668 133.4016 
L 186.062738 126.144 
L 186.152022 126.144 
L 186.232377 118.8864 
L 186.259162 126.144 
L 186.562728 126.144 
L 186.678797 118.8864 
L 186.919864 118.8864 
L 187.035933 126.144 
L 187.062719 126.144 
L 187.178788 118.8864 
L 187.339499 118.8864 
L 187.455568 126.144 
L 187.660922 126.144 
L 187.687707 133.4016 
L 187.768062 126.144 
L 187.848418 126.144 
L 187.901988 133.4016 
L 187.955559 126.144 
L 188.250196 126.144 
L 188.357337 118.8864 
L 188.473406 133.4016 
L 188.589475 126.144 
L 188.759115 126.144 
L 188.848399 118.8864 
L 188.866256 126.144 
L 189.053752 126.144 
L 189.169821 150.336 
L 189.214463 150.336 
L 189.339461 167.2704 
L 189.366246 167.2704 
L 189.500172 191.4624 
L 189.535886 191.4624 
L 189.651955 198.72 
L 189.660884 198.72 
L 189.785881 181.7856 
L 189.884094 181.7856 
L 189.893022 174.528 
L 189.982306 181.7856 
L 190.098375 191.4624 
L 190.107304 191.4624 
L 190.223373 181.7856 
L 190.250158 181.7856 
L 190.375156 167.2704 
L 190.384084 167.2704 
L 190.500153 157.5936 
L 190.625151 157.5936 
L 190.74122 167.2704 
L 190.901931 167.2704 
L 191.026929 150.336 
L 191.241211 150.336 
L 191.366208 167.2704 
L 191.473349 167.2704 
L 191.58049 150.336 
L 191.589418 157.5936 
L 191.866199 157.5936 
L 191.982268 150.336 
L 192.017982 150.336 
L 192.142979 133.4016 
L 192.30369 133.4016 
L 192.41976 126.144 
L 192.580471 126.144 
L 192.678683 118.8864 
L 192.687612 126.144 
L 192.741182 126.144 
L 192.857251 118.8864 
L 193.000106 118.8864 
L 193.125103 133.4016 
L 193.160817 133.4016 
L 193.276886 143.0784 
L 193.303671 143.0784 
L 193.419741 150.336 
L 193.544738 150.336 
L 193.678664 174.528 
L 193.732235 174.528 
L 193.866161 205.9776 
L 193.991158 191.4624 
L 194.080442 191.4624 
L 194.187583 174.528 
L 194.196512 181.7856 
L 194.20544 181.7856 
L 194.223297 174.528 
L 194.312581 181.7856 
L 194.321509 181.7856 
L 194.419722 167.2704 
L 194.437578 174.528 
L 194.509006 174.528 
L 194.562576 181.7856 
L 194.616147 174.528 
L 194.696502 174.528 
L 194.812571 167.2704 
L 194.946497 167.2704 
L 195.062567 157.5936 
L 195.09828 157.5936 
L 195.214349 150.336 
L 195.473273 150.336 
L 195.580414 167.2704 
L 195.589342 157.5936 
L 195.625056 157.5936 
L 195.741125 167.2704 
L 195.839338 167.2704 
L 195.866123 157.5936 
L 195.946478 167.2704 
L 196.017906 167.2704 
L 196.133975 157.5936 
L 196.187545 157.5936 
L 196.303614 150.336 
L 196.60718 150.336 
L 196.723249 143.0784 
L 196.77682 143.0784 
L 196.901817 157.5936 
L 197.035743 157.5936 
L 197.160741 143.0784 
L 197.205383 143.0784 
L 197.348237 174.528 
L 197.437521 174.528 
L 197.553591 167.2704 
L 197.562519 167.2704 
L 197.687517 150.336 
L 197.758944 150.336 
L 197.875013 157.5936 
L 197.928584 157.5936 
L 198.044653 150.336 
L 198.133937 150.336 
L 198.258934 133.4016 
L 198.669641 133.4016 
L 198.78571 126.144 
L 198.857137 126.144 
L 198.901779 133.4016 
L 198.964278 126.144 
L 199.098204 126.144 
L 199.23213 150.336 
L 199.321414 150.336 
L 199.437483 143.0784 
L 199.464269 143.0784 
L 199.535696 150.336 
L 199.57141 143.0784 
L 199.687479 133.4016 
L 200.321395 133.4016 
L 200.383894 126.144 
L 200.428536 133.4016 
L 200.46425 133.4016 
L 200.580319 143.0784 
L 200.776744 143.0784 
L 200.874956 150.336 
L 200.883885 143.0784 
L 200.973169 143.0784 
L 201.071381 133.4016 
L 201.080309 143.0784 
L 201.142808 143.0784 
L 201.249949 157.5936 
L 201.258877 150.336 
L 201.312448 150.336 
L 201.428517 143.0784 
L 201.52673 143.0784 
L 201.651727 126.144 
L 201.714226 126.144 
L 201.830295 143.0784 
L 201.946364 150.336 
L 201.97315 150.336 
L 202.089219 157.5936 
L 202.223145 157.5936 
L 202.348142 174.528 
L 202.464212 174.528 
L 202.553496 191.4624 
L 202.580281 181.7856 
L 202.615995 181.7856 
L 202.732064 191.4624 
L 202.821348 191.4624 
L 202.946345 167.2704 
L 203.107057 167.2704 
L 203.133842 157.5936 
L 203.187412 174.528 
L 203.205269 174.528 
L 203.232054 174.528 
L 203.348123 167.2704 
L 203.392765 167.2704 
L 203.508835 157.5936 
L 203.553477 157.5936 
L 203.651689 150.336 
L 203.660618 157.5936 
L 203.919541 157.5936 
L 203.964183 150.336 
L 204.026682 157.5936 
L 204.25882 157.5936 
L 204.37489 167.2704 
L 204.455245 167.2704 
L 204.580243 150.336 
L 204.865952 150.336 
L 204.982021 143.0784 
L 205.080233 143.0784 
L 205.196303 150.336 
L 205.553439 150.336 
L 205.696293 181.7856 
L 205.71415 181.7856 
L 205.830219 191.4624 
L 205.848076 191.4624 
L 205.973074 205.9776 
L 206.053429 205.9776 
L 206.169498 215.6544 
L 206.267711 215.6544 
L 206.285568 222.912 
L 206.365923 205.9776 
L 206.401637 205.9776 
L 206.455207 215.6544 
L 206.508778 205.9776 
L 206.544491 205.9776 
L 206.660561 198.72 
L 206.803415 198.72 
L 206.839129 205.9776 
L 206.892699 191.4624 
L 206.901627 191.4624 
L 207.151623 191.4624 
L 207.27662 174.528 
L 207.633756 174.528 
L 207.740897 181.7856 
L 207.856966 174.528 
L 208.071248 174.528 
L 208.187317 167.2704 
L 208.535525 167.2704 
L 208.651594 157.5936 
L 208.776592 157.5936 
L 208.892661 174.528 
L 208.901589 174.528 
L 209.017659 167.2704 
L 209.365866 167.2704 
L 209.374795 157.5936 
L 209.473007 167.2704 
L 209.642647 167.2704 
L 209.758716 157.5936 
L 209.946212 157.5936 
L 209.999783 174.528 
L 210.053353 157.5936 
L 210.544415 157.5936 
L 210.669413 143.0784 
L 210.803339 143.0784 
L 210.919408 133.4016 
L 211.071191 133.4016 
L 211.18726 143.0784 
L 211.383685 143.0784 
L 211.526539 174.528 
L 211.615824 174.528 
L 211.758678 205.9776 
L 211.901532 205.9776 
L 212.02653 230.1696 
L 212.169384 230.1696 
L 212.294382 215.6544 
L 212.312239 215.6544 
L 212.437236 198.72 
L 212.47295 198.72 
L 212.589019 191.4624 
L 212.597948 191.4624 
L 212.660447 181.7856 
L 212.705089 191.4624 
L 212.767587 191.4624 
L 212.883657 181.7856 
L 212.928299 181.7856 
L 212.990797 174.528 
L 213.035439 181.7856 
L 213.044368 181.7856 
L 213.106867 174.528 
L 213.151509 181.7856 
L 213.31222 181.7856 
L 213.437217 167.2704 
L 213.481859 167.2704 
L 213.571144 174.528 
L 213.589 167.2704 
L 213.642571 167.2704 
L 213.767568 181.7856 
L 213.776497 181.7856 
L 213.785425 191.4624 
L 213.883638 181.7856 
L 214.008635 167.2704 
L 214.044349 167.2704 
L 214.160418 157.5936 
L 214.437198 157.5936 
L 214.562196 143.0784 
L 214.937189 143.0784 
L 215.062187 167.2704 
L 215.106829 167.2704 
L 215.231826 150.336 
L 215.446108 150.336 
L 215.481821 143.0784 
L 215.553249 150.336 
L 215.606819 150.336 
L 215.740745 174.528 
L 215.794316 174.528 
L 215.928242 150.336 
L 216.008597 150.336 
L 216.124666 157.5936 
L 216.205022 157.5936 
L 216.33002 174.528 
L 216.338948 174.528 
L 216.455017 181.7856 
L 216.490731 181.7856 
L 216.55323 191.4624 
L 216.597872 181.7856 
L 216.713941 181.7856 
L 216.749655 191.4624 
L 216.821082 181.7856 
L 216.874652 181.7856 
L 217.008578 157.5936 
L 217.088934 157.5936 
L 217.213931 174.528 
L 217.303215 174.528 
L 217.347857 157.5936 
L 217.410356 174.528 
L 217.990702 174.528 
L 218.1157 157.5936 
L 218.365695 157.5936 
L 218.481764 150.336 
L 218.553192 150.336 
L 218.687118 174.528 
L 218.713903 174.528 
L 218.829972 167.2704 
L 218.847829 167.2704 
L 218.865686 174.528 
L 218.937113 157.5936 
L 218.946041 157.5936 
L 219.017469 157.5936 
L 219.133538 150.336 
L 219.374605 150.336 
L 219.499602 174.528 
L 219.615672 167.2704 
L 219.722812 167.2704 
L 219.838882 157.5936 
L 219.892452 157.5936 
L 220.01745 174.528 
L 220.142447 174.528 
L 220.258516 167.2704 
L 220.428156 167.2704 
L 220.526368 174.528 
L 220.535297 167.2704 
L 220.588867 167.2704 
L 220.704937 174.528 
L 220.749579 174.528 
L 220.865648 167.2704 
L 221.088858 167.2704 
L 221.097786 174.528 
L 221.195999 167.2704 
L 221.267426 167.2704 
L 221.383495 174.528 
L 221.508493 157.5936 
L 221.829915 157.5936 
L 221.954913 174.528 
L 222.044197 174.528 
L 222.160266 181.7856 
L 222.276335 174.528 
L 222.285264 174.528 
L 222.410261 157.5936 
L 222.86561 157.5936 
L 222.981679 167.2704 
L 223.133462 167.2704 
L 223.249531 157.5936 
L 223.267388 157.5936 
L 223.383457 167.2704 
L 223.526311 167.2704 
L 223.651309 181.7856 
L 223.740593 181.7856 
L 223.856662 191.4624 
L 223.883448 191.4624 
L 223.999517 181.7856 
L 224.026302 191.4624 
L 224.079872 174.528 
L 224.097729 174.528 
L 224.124514 174.528 
L 224.240584 167.2704 
L 224.267369 167.2704 
L 224.392366 150.336 
L 224.535221 150.336 
L 224.669147 174.528 
L 224.731646 174.528 
L 224.740574 167.2704 
L 224.767359 181.7856 
L 224.838787 174.528 
L 224.945927 174.528 
L 224.981641 167.2704 
L 225.053068 174.528 
L 225.276278 174.528 
L 225.338777 167.2704 
L 225.383419 174.528 
L 225.517345 174.528 
L 225.642343 157.5936 
L 225.722698 157.5936 
L 225.749484 150.336 
L 225.829839 157.5936 
L 226.061978 157.5936 
L 226.186975 143.0784 
L 226.695894 143.0784 
L 226.820892 126.144 
L 227.008388 126.144 
L 227.142314 150.336 
L 227.204813 150.336 
L 227.249455 157.5936 
L 227.311954 150.336 
L 227.347667 150.336 
L 227.401238 157.5936 
L 227.454808 150.336 
L 227.481593 150.336 
L 227.597663 143.0784 
L 227.66909 143.0784 
L 227.731589 133.4016 
L 227.758374 150.336 
L 227.767302 150.336 
L 227.874443 150.336 
L 227.8923 143.0784 
L 227.963727 167.2704 
L 228.026226 167.2704 
L 228.142295 157.5936 
L 228.178009 157.5936 
L 228.294078 150.336 
L 228.374434 150.336 
L 228.490503 157.5936 
L 228.50836 157.5936 
L 228.624429 167.2704 
L 228.669071 167.2704 
L 228.794069 150.336 
L 228.811925 150.336 
L 228.927995 143.0784 
L 228.999422 143.0784 
L 229.035135 150.336 
L 229.106563 143.0784 
L 229.544054 143.0784 
L 229.561911 150.336 
L 229.615481 133.4016 
L 229.642267 133.4016 
L 229.802978 133.4016 
L 229.919047 143.0784 
L 230.24047 143.0784 
L 230.383324 174.528 
L 230.419038 174.528 
L 230.561892 205.9776 
L 230.57082 205.9776 
L 230.704747 239.8464 
L 230.945813 239.8464 
L 231.061883 247.104 
L 231.231522 247.104 
L 231.249379 254.3616 
L 231.338663 247.104 
L 231.365448 247.104 
L 231.490446 230.1696 
L 231.561873 230.1696 
L 231.570801 239.8464 
L 231.6333 222.912 
L 231.660086 222.912 
L 231.677942 222.912 
L 231.794012 215.6544 
L 231.80294 215.6544 
L 231.919009 205.9776 
L 231.927938 205.9776 
L 232.052935 191.4624 
L 232.070792 191.4624 
L 232.097577 181.7856 
L 232.177933 191.4624 
L 232.258288 191.4624 
L 232.374358 181.7856 
L 232.660067 181.7856 
L 232.776136 174.528 
L 233.052916 174.528 
L 233.106487 167.2704 
L 233.160057 174.528 
L 233.204699 174.528 
L 233.320768 167.2704 
L 233.418981 167.2704 
L 233.53505 157.5936 
L 233.660048 157.5936 
L 233.713618 167.2704 
L 233.767188 157.5936 
L 233.829687 157.5936 
L 233.954685 143.0784 
L 234.061826 143.0784 
L 234.177895 150.336 
L 234.20468 150.336 
L 234.320749 143.0784 
L 234.392176 143.0784 
L 234.410033 150.336 
L 234.499317 143.0784 
L 234.543959 143.0784 
L 234.561816 150.336 
L 234.6511 143.0784 
L 234.713599 143.0784 
L 234.829668 133.4016 
L 234.927881 133.4016 
L 235.04395 143.0784 
L 235.276088 143.0784 
L 235.311802 150.336 
L 235.383229 143.0784 
L 235.418943 143.0784 
L 235.535012 150.336 
L 235.749294 150.336 
L 235.865363 157.5936 
L 235.892148 157.5936 
L 235.910005 150.336 
L 235.93679 167.2704 
L 235.99036 167.2704 
L 236.035002 167.2704 
L 236.151072 157.5936 
L 236.320711 157.5936 
L 236.43678 167.2704 
L 236.481422 167.2704 
L 236.534993 157.5936 
L 236.588563 167.2704 
L 236.597492 167.2704 
L 236.722489 150.336 
L 236.963556 150.336 
L 237.061769 143.0784 
L 237.070697 150.336 
L 237.133196 150.336 
L 237.151053 157.5936 
L 237.240337 150.336 
L 237.356406 150.336 
L 237.472475 157.5936 
L 237.49926 157.5936 
L 237.615329 150.336 
L 237.740327 150.336 
L 237.856396 143.0784 
L 238.008179 143.0784 
L 238.124248 133.4016 
L 238.490313 133.4016 
L 238.606382 157.5936 
L 238.695666 157.5936 
L 238.820664 174.528 
L 238.847449 174.528 
L 238.963518 167.2704 
L 239.017089 167.2704 
L 239.043874 157.5936 
L 239.097444 174.528 
L 239.106373 174.528 
L 239.124229 181.7856 
L 239.168871 167.2704 
L 239.204585 167.2704 
L 239.222442 167.2704 
L 239.338511 157.5936 
L 239.374225 157.5936 
L 239.409938 167.2704 
L 239.481365 157.5936 
L 239.490294 157.5936 
L 239.517079 167.2704 
L 239.597435 157.5936 
L 239.686719 157.5936 
L 239.802788 150.336 
L 239.909929 150.336 
L 240.025998 143.0784 
L 240.213494 143.0784 
L 240.329564 133.4016 
L 240.802769 133.4016 
L 240.90991 126.144 
L 240.918838 133.4016 
L 241.017051 126.144 
L 241.159905 126.144 
L 241.275974 118.8864 
L 241.320616 118.8864 
L 241.436685 126.144 
L 241.552755 126.144 
L 241.677752 143.0784 
L 241.865249 143.0784 
L 241.900962 133.4016 
L 241.97239 143.0784 
L 241.981318 143.0784 
L 242.043817 150.336 
L 242.088459 143.0784 
L 242.320597 143.0784 
L 242.445595 157.5936 
L 242.481308 157.5936 
L 242.561664 174.528 
L 242.597378 167.2704 
L 242.767017 167.2704 
L 242.883087 157.5936 
L 242.927729 157.5936 
L 243.052726 143.0784 
L 243.150939 150.336 
L 243.159867 143.0784 
L 243.267008 143.0784 
L 243.383077 133.4016 
L 243.418791 133.4016 
L 243.490218 126.144 
L 243.525931 133.4016 
L 243.561645 133.4016 
L 243.677714 126.144 
L 243.802712 126.144 
L 243.918781 118.8864 
L 244.052707 118.8864 
L 244.168776 126.144 
L 244.338416 126.144 
L 244.454485 118.8864 
L 244.588411 118.8864 
L 244.704481 109.2096 
L 244.82055 109.2096 
L 244.936619 101.952 
L 245.034831 101.952 
L 245.159829 118.8864 
L 245.338397 118.8864 
L 245.365182 133.4016 
L 245.445538 126.144 
L 245.463395 126.144 
L 245.579464 118.8864 
L 245.650891 118.8864 
L 245.76696 109.2096 
L 246.499089 109.2096 
L 246.615158 101.952 
L 246.784798 101.952 
L 246.900867 94.6944 
L 247.079435 94.6944 
L 247.195505 101.952 
L 247.302645 101.952 
L 247.418715 94.6944 
L 247.579426 94.6944 
L 247.606211 101.952 
L 247.686567 94.6944 
L 247.820493 94.6944 
L 247.972276 133.4016 
L 248.043703 133.4016 
L 248.1687 150.336 
L 248.231199 150.336 
L 248.347268 157.5936 
L 248.490123 157.5936 
L 248.597264 174.528 
L 248.606192 167.2704 
L 248.659762 167.2704 
L 248.677619 157.5936 
L 248.766903 167.2704 
L 248.882973 167.2704 
L 249.00797 181.7856 
L 249.025827 181.7856 
L 249.168681 222.912 
L 249.222252 222.912 
L 249.338321 230.1696 
L 249.499032 230.1696 
L 249.62403 247.104 
L 249.909739 247.104 
L 250.025808 254.3616 
L 250.106164 254.3616 
L 250.222233 264.0384 
L 250.275803 264.0384 
L 250.391872 271.296 
L 250.57044 271.296 
L 250.68651 264.0384 
L 250.713295 264.0384 
L 250.838293 247.104 
L 251.016861 247.104 
L 251.141858 230.1696 
L 251.177572 230.1696 
L 251.293641 222.912 
L 251.365068 222.912 
L 251.481137 215.6544 
L 251.606135 215.6544 
L 251.731133 198.72 
L 252.320407 198.72 
L 252.436476 191.4624 
L 252.534689 191.4624 
L 252.650758 181.7856 
L 252.802541 181.7856 
L 252.91861 174.528 
L 253.007894 174.528 
L 253.123963 181.7856 
L 253.14182 181.7856 
L 253.257889 174.528 
L 253.436457 174.528 
L 253.561455 191.4624 
L 253.838236 191.4624 
L 253.865021 198.72 
L 253.918591 181.7856 
L 253.936448 181.7856 
L 254.115016 181.7856 
L 254.177515 191.4624 
L 254.222157 181.7856 
L 254.231085 181.7856 
L 254.293584 191.4624 
L 254.338226 181.7856 
L 254.356083 181.7856 
L 254.48108 167.2704 
L 254.543579 167.2704 
L 254.659648 157.5936 
L 254.677505 157.5936 
L 254.793575 167.2704 
L 254.972143 167.2704 
L 255.088212 157.5936 
L 255.132854 157.5936 
L 255.231066 150.336 
L 255.239995 157.5936 
L 255.275708 157.5936 
L 255.391777 167.2704 
L 255.445348 167.2704 
L 255.48999 157.5936 
L 255.516775 174.528 
L 255.54356 174.528 
L 255.579274 174.528 
L 255.588202 181.7856 
L 255.686415 174.528 
L 255.739985 174.528 
L 255.864983 157.5936 
L 256.016766 157.5936 
L 256.132835 150.336 
L 256.293546 150.336 
L 256.302474 157.5936 
L 256.400687 150.336 
L 256.623897 150.336 
L 256.739966 143.0784 
L 256.838179 143.0784 
L 256.954248 133.4016 
L 257.141744 133.4016 
L 257.266742 157.5936 
L 257.356026 157.5936 
L 257.472095 167.2704 
L 257.614949 167.2704 
L 257.686377 150.336 
L 257.731019 157.5936 
L 257.856016 157.5936 
L 257.981014 143.0784 
L 258.222081 143.0784 
L 258.239938 150.336 
L 258.329222 143.0784 
L 258.543503 143.0784 
L 258.650644 174.528 
L 258.668501 167.2704 
L 258.802427 167.2704 
L 258.927425 143.0784 
L 259.016709 143.0784 
L 259.132778 133.4016 
L 259.141706 133.4016 
L 259.159563 126.144 
L 259.248847 133.4016 
L 259.329203 133.4016 
L 259.427415 143.0784 
L 259.436343 133.4016 
L 259.588126 133.4016 
L 259.605983 126.144 
L 259.67741 143.0784 
L 259.686339 143.0784 
L 259.972048 143.0784 
L 260.088117 133.4016 
L 260.605964 133.4016 
L 260.668463 143.0784 
L 260.713105 133.4016 
L 260.829174 126.144 
L 261.016671 126.144 
L 261.097026 150.336 
L 261.141668 143.0784 
L 261.275594 143.0784 
L 261.338093 157.5936 
L 261.391663 150.336 
L 261.436305 150.336 
L 261.489876 157.5936 
L 261.543446 150.336 
L 261.552375 150.336 
L 261.668444 143.0784 
L 261.829155 143.0784 
L 261.954153 126.144 
L 262.355931 126.144 
L 262.52557 174.528 
L 262.659496 174.528 
L 262.775566 181.7856 
L 262.802351 181.7856 
L 262.936277 215.6544 
L 263.221986 215.6544 
L 263.338055 239.8464 
L 263.346983 230.1696 
L 263.355912 230.1696 
L 263.400554 239.8464 
L 263.463053 230.1696 
L 263.543408 230.1696 
L 263.570193 247.104 
L 263.659477 239.8464 
L 263.668406 239.8464 
L 263.793404 215.6544 
L 263.954115 215.6544 
L 264.070184 205.9776 
L 264.123754 205.9776 
L 264.239824 198.72 
L 264.275537 198.72 
L 264.284466 205.9776 
L 264.382678 198.72 
L 264.605888 198.72 
L 264.730886 181.7856 
L 264.855883 181.7856 
L 264.971953 174.528 
L 265.025523 174.528 
L 265.141592 167.2704 
L 265.230876 167.2704 
L 265.346945 157.5936 
L 265.480871 157.5936 
L 265.596941 150.336 
L 265.76658 150.336 
L 265.891578 167.2704 
L 266.007647 167.2704 
L 266.123716 174.528 
L 266.15943 174.528 
L 266.275499 167.2704 
L 266.311213 167.2704 
L 266.427282 174.528 
L 266.498709 174.528 
L 266.507638 181.7856 
L 266.570136 167.2704 
L 266.596922 167.2704 
L 266.704062 167.2704 
L 266.820132 157.5936 
L 267.070127 157.5936 
L 267.186196 150.336 
L 267.382621 150.336 
L 267.49869 157.5936 
L 267.543332 157.5936 
L 267.659401 167.2704 
L 267.775471 157.5936 
L 267.83797 157.5936 
L 267.864755 167.2704 
L 267.94511 157.5936 
L 267.962967 157.5936 
L 267.971896 167.2704 
L 268.070108 157.5936 
L 268.079036 157.5936 
L 268.204034 143.0784 
L 268.534385 143.0784 
L 268.650454 133.4016 
L 269.00759 133.4016 
L 269.070089 143.0784 
L 269.114731 133.4016 
L 269.123659 133.4016 
L 269.248657 150.336 
L 269.284371 150.336 
L 269.293299 157.5936 
L 269.373655 143.0784 
L 269.382583 143.0784 
L 269.45401 143.0784 
L 269.570079 133.4016 
L 269.641507 133.4016 
L 269.67722 150.336 
L 269.757576 143.0784 
L 269.775433 143.0784 
L 269.784361 133.4016 
L 269.882574 143.0784 
L 269.945072 143.0784 
L 270.061142 133.4016 
L 270.177211 143.0784 
L 270.212924 143.0784 
L 270.311137 150.336 
L 270.320065 143.0784 
L 270.34685 143.0784 
L 270.46292 133.4016 
L 270.561132 133.4016 
L 270.677201 143.0784 
L 270.820056 143.0784 
L 270.953982 167.2704 
L 271.096836 167.2704 
L 271.230762 191.4624 
L 271.302189 191.4624 
L 271.40933 174.528 
L 271.418259 181.7856 
L 271.462901 181.7856 
L 271.587898 167.2704 
L 271.641469 167.2704 
L 271.775395 191.4624 
L 271.80218 191.4624 
L 271.918249 181.7856 
L 271.998605 181.7856 
L 272.132531 157.5936 
L 272.2486 157.5936 
L 272.364669 150.336 
L 272.453953 150.336 
L 272.578951 133.4016 
L 272.855731 133.4016 
L 272.971801 143.0784 
L 273.248581 143.0784 
L 273.373579 157.5936 
L 273.53429 157.5936 
L 273.58786 174.528 
L 273.641431 167.2704 
L 273.7575 157.5936 
L 273.802142 157.5936 
L 273.846784 150.336 
L 273.909283 157.5936 
L 273.989638 157.5936 
L 274.105708 150.336 
L 274.284276 150.336 
L 274.382488 143.0784 
L 274.391416 150.336 
L 274.632483 150.336 
L 274.721767 157.5936 
L 274.739624 150.336 
L 274.87355 150.336 
L 274.998548 133.4016 
L 275.596751 133.4016 
L 275.71282 143.0784 
L 275.864603 143.0784 
L 275.980672 133.4016 
L 276.221739 133.4016 
L 276.337808 143.0784 
L 276.364593 143.0784 
L 276.43602 133.4016 
L 276.471734 143.0784 
L 276.507448 143.0784 
L 276.614588 133.4016 
L 276.739586 150.336 
L 276.855655 150.336 
L 276.900297 157.5936 
L 276.962796 150.336 
L 277.025295 150.336 
L 277.141364 157.5936 
L 277.284219 157.5936 
L 277.400288 167.2704 
L 277.605641 167.2704 
L 277.72171 157.5936 
L 277.757424 157.5936 
L 277.873493 167.2704 
L 278.052061 167.2704 
L 278.177059 181.7856 
L 278.230629 181.7856 
L 278.355627 167.2704 
L 278.409197 167.2704 
L 278.525266 174.528 
L 278.641336 174.528 
L 278.757405 167.2704 
L 278.855617 167.2704 
L 278.971687 174.528 
L 279.141326 174.528 
L 279.266324 157.5936 
L 279.560961 157.5936 
L 279.67703 167.2704 
L 279.685959 167.2704 
L 279.802028 174.528 
L 279.810956 174.528 
L 279.927026 181.7856 
L 279.980596 181.7856 
L 280.096665 191.4624 
L 280.257376 191.4624 
L 280.373446 181.7856 
L 280.409159 181.7856 
L 280.480586 174.528 
L 280.5163 181.7856 
L 280.587727 181.7856 
L 280.703796 174.528 
L 281.194859 174.528 
L 281.212715 167.2704 
L 281.301999 174.528 
L 281.310928 174.528 
L 281.40914 167.2704 
L 281.418069 174.528 
L 281.480567 174.528 
L 281.596637 167.2704 
L 281.712706 167.2704 
L 281.828775 157.5936 
L 281.846632 157.5936 
L 281.97163 143.0784 
L 282.123412 143.0784 
L 282.239482 133.4016 
L 282.30198 133.4016 
L 282.41805 143.0784 
L 282.721615 143.0784 
L 282.837684 150.336 
L 283.034109 150.336 
L 283.203749 198.72 
L 283.239463 198.72 
L 283.36446 215.6544 
L 283.391245 215.6544 
L 283.525171 239.8464 
L 283.543028 239.8464 
L 283.659097 247.104 
L 283.891236 247.104 
L 284.007305 254.3616 
L 284.016234 254.3616 
L 284.132303 264.0384 
L 284.15016 264.0384 
L 284.266229 271.296 
L 284.37337 271.296 
L 284.507296 247.104 
L 284.516224 247.104 
L 284.641222 230.1696 
L 284.766219 230.1696 
L 284.891217 215.6544 
L 284.926931 215.6544 
L 285.043 205.9776 
L 285.141212 205.9776 
L 285.275138 181.7856 
L 286.096551 181.7856 
L 286.21262 174.528 
L 286.614398 174.528 
L 286.730468 167.2704 
L 286.837608 167.2704 
L 286.926893 174.528 
L 286.944749 167.2704 
L 287.462597 167.2704 
L 287.49831 174.528 
L 287.569737 167.2704 
L 287.739377 167.2704 
L 287.855446 174.528 
L 287.94473 174.528 
L 288.069728 157.5936 
L 288.292938 157.5936 
L 288.409007 150.336 
L 288.569718 150.336 
L 288.685788 143.0784 
L 288.801857 143.0784 
L 288.917926 133.4016 
L 289.042924 133.4016 
L 289.158993 126.144 
L 289.239349 126.144 
L 289.337561 133.4016 
L 289.346489 126.144 
L 289.471487 126.144 
L 289.560771 133.4016 
L 289.578628 126.144 
L 289.605413 126.144 
L 289.721482 133.4016 
L 289.730411 133.4016 
L 289.84648 143.0784 
L 289.855408 143.0784 
L 289.980406 157.5936 
L 290.042905 157.5936 
L 290.096475 167.2704 
L 290.150046 157.5936 
L 290.194688 157.5936 
L 290.221473 167.2704 
L 290.301828 157.5936 
L 290.34647 157.5936 
L 290.435754 167.2704 
L 290.453611 157.5936 
L 290.56968 157.5936 
L 290.68575 150.336 
L 290.712535 150.336 
L 290.828604 143.0784 
L 290.891103 143.0784 
L 291.007172 157.5936 
L 291.13217 143.0784 
L 291.141098 143.0784 
L 291.257167 150.336 
L 291.292881 150.336 
L 291.40895 143.0784 
L 291.417879 143.0784 
L 291.480377 133.4016 
L 291.525019 143.0784 
L 291.614303 143.0784 
L 291.730373 133.4016 
L 291.775015 133.4016 
L 291.873227 126.144 
L 291.882155 133.4016 
L 292.060724 133.4016 
L 292.176793 143.0784 
L 292.230363 143.0784 
L 292.346432 150.336 
L 292.408931 150.336 
L 292.489287 143.0784 
L 292.507144 150.336 
L 292.614284 157.5936 
L 292.739282 143.0784 
L 292.819638 143.0784 
L 292.944635 126.144 
L 293.069633 143.0784 
L 293.132132 143.0784 
L 293.257129 157.5936 
L 293.3107 157.5936 
L 293.435697 181.7856 
L 293.453554 181.7856 
L 293.551767 222.912 
L 293.58748 215.6544 
L 293.703549 205.9776 
L 293.730335 205.9776 
L 293.846404 222.912 
L 293.971402 205.9776 
L 294.007115 205.9776 
L 294.123184 198.72 
L 294.141041 198.72 
L 294.266039 181.7856 
L 294.301752 181.7856 
L 294.42675 167.2704 
L 294.516034 167.2704 
L 294.551748 174.528 
L 294.623175 167.2704 
L 294.730316 167.2704 
L 294.739244 157.5936 
L 294.774958 174.528 
L 294.837456 167.2704 
L 294.944597 167.2704 
L 295.069595 181.7856 
L 295.141022 181.7856 
L 295.257091 174.528 
L 295.435659 174.528 
L 295.560657 191.4624 
L 295.649941 191.4624 
L 295.801724 230.1696 
L 295.837437 230.1696 
L 295.962435 215.6544 
L 295.971364 215.6544 
L 296.096361 198.72 
L 296.21243 191.4624 
L 296.319571 191.4624 
L 296.43564 174.528 
L 296.55171 181.7856 
L 296.640994 181.7856 
L 296.694564 191.4624 
L 296.748134 181.7856 
L 296.757063 181.7856 
L 296.873132 174.528 
L 296.908846 174.528 
L 297.015987 167.2704 
L 297.132056 174.528 
L 297.203483 174.528 
L 297.319552 167.2704 
L 297.44455 167.2704 
L 297.560619 174.528 
L 297.801686 174.528 
L 297.926684 157.5936 
L 297.998111 157.5936 
L 298.11418 150.336 
L 298.373104 150.336 
L 298.489173 143.0784 
L 298.569528 143.0784 
L 298.685598 150.336 
L 299.221302 150.336 
L 299.390941 198.72 
L 299.426655 198.72 
L 299.515939 222.912 
L 299.551653 215.6544 
L 299.614151 215.6544 
L 299.739149 198.72 
L 299.792719 198.72 
L 299.837361 205.9776 
L 299.89986 198.72 
L 300.007001 198.72 
L 300.12307 191.4624 
L 300.23914 191.4624 
L 300.283782 198.72 
L 300.34628 191.4624 
L 300.551634 191.4624 
L 300.676631 174.528 
L 301.033767 174.528 
L 301.158765 157.5936 
L 301.239121 157.5936 
L 301.35519 167.2704 
L 301.40876 167.2704 
L 301.524829 174.528 
L 301.587328 174.528 
L 301.703397 167.2704 
L 301.712326 167.2704 
L 301.828395 157.5936 
L 301.873037 157.5936 
L 301.998035 174.528 
L 302.114104 174.528 
L 302.239102 191.4624 
L 302.310529 191.4624 
L 302.390884 205.9776 
L 302.426598 198.72 
L 302.47124 198.72 
L 302.52481 222.912 
L 302.587309 215.6544 
L 302.614094 205.9776 
L 302.69445 215.6544 
L 302.712307 215.6544 
L 302.783734 222.912 
L 302.819448 215.6544 
L 302.881946 215.6544 
L 303.006944 191.4624 
L 303.123013 198.72 
L 303.274796 198.72 
L 303.328367 215.6544 
L 303.390865 205.9776 
L 303.399794 205.9776 
L 303.489078 215.6544 
L 303.506935 205.9776 
L 303.605147 205.9776 
L 303.667646 198.72 
L 303.712288 205.9776 
L 303.774787 205.9776 
L 303.890856 198.72 
L 303.989068 198.72 
L 304.105138 191.4624 
L 304.185493 191.4624 
L 304.301562 181.7856 
L 304.37299 181.7856 
L 304.489059 191.4624 
L 304.605128 191.4624 
L 304.658698 181.7856 
L 304.712269 191.4624 
L 305.069405 191.4624 
L 305.167617 198.72 
L 305.176546 191.4624 
L 305.221188 191.4624 
L 305.346185 174.528 
L 305.372971 174.528 
L 305.497968 157.5936 
L 305.551539 157.5936 
L 305.596181 167.2704 
L 305.658679 157.5936 
L 305.953317 157.5936 
L 306.069386 167.2704 
L 306.167598 167.2704 
L 306.292596 150.336 
L 306.32831 150.336 
L 306.489021 191.4624 
L 306.569376 191.4624 
L 306.694374 167.2704 
L 306.819372 167.2704 
L 306.944369 150.336 
L 307.060439 157.5936 
L 307.105081 157.5936 
L 307.230078 143.0784 
L 307.408646 143.0784 
L 307.533644 157.5936 
L 307.605071 157.5936 
L 307.730069 174.528 
L 307.819353 174.528 
L 307.935422 167.2704 
L 308.06042 181.7856 
L 308.069348 181.7856 
L 308.185417 174.528 
L 308.203274 174.528 
L 308.319343 167.2704 
L 308.346128 167.2704 
L 308.471126 150.336 
L 308.658622 150.336 
L 308.774692 157.5936 
L 309.033615 157.5936 
L 309.158613 174.528 
L 309.203255 174.528 
L 309.319324 167.2704 
L 309.328253 167.2704 
L 309.355038 174.528 
L 309.435393 167.2704 
L 309.471107 167.2704 
L 309.596105 150.336 
L 309.667532 150.336 
L 309.783601 143.0784 
L 309.855028 143.0784 
L 309.881813 150.336 
L 309.962169 143.0784 
L 310.033596 143.0784 
L 310.149666 150.336 
L 310.167522 150.336 
L 310.283592 157.5936 
L 310.497873 157.5936 
L 310.613942 150.336 
L 310.721083 150.336 
L 310.837152 143.0784 
L 310.980007 143.0784 
L 311.087148 133.4016 
L 311.140718 143.0784 
L 311.194289 133.4016 
L 311.346071 133.4016 
L 311.462141 126.144 
L 311.479997 126.144 
L 311.596067 118.8864 
L 311.738921 118.8864 
L 311.792491 133.4016 
L 311.85499 126.144 
L 312.149628 126.144 
L 312.274625 143.0784 
L 312.292482 143.0784 
L 312.408551 133.4016 
L 312.506764 133.4016 
L 312.631761 150.336 
L 312.69426 150.336 
L 312.774616 157.5936 
L 312.801401 150.336 
L 312.872828 150.336 
L 312.997826 167.2704 
L 313.006754 167.2704 
L 313.024611 157.5936 
L 313.104967 167.2704 
L 313.158537 174.528 
L 313.203179 167.2704 
L 313.328177 150.336 
L 313.774597 150.336 
L 313.899594 133.4016 
L 313.944236 133.4016 
L 314.069234 118.8864 
L 314.346014 118.8864 
L 314.462084 109.2096 
L 314.765649 109.2096 
L 314.890647 126.144 
L 314.988859 126.144 
L 315.104929 133.4016 
L 315.229926 133.4016 
L 315.345995 143.0784 
L 315.372781 143.0784 
L 315.48885 150.336 
L 315.54242 150.336 
L 315.667418 133.4016 
L 315.71206 143.0784 
L 315.774559 133.4016 
L 315.979912 133.4016 
L 316.051339 143.0784 
L 316.087053 133.4016 
L 316.10491 133.4016 
L 316.167408 126.144 
L 316.21205 133.4016 
L 316.497759 133.4016 
L 316.622757 150.336 
L 316.649542 150.336 
L 316.792396 181.7856 
L 316.801325 181.7856 
L 316.926322 198.72 
L 317.006678 198.72 
L 317.131676 215.6544 
L 317.22096 215.6544 
L 317.319172 230.1696 
L 317.337029 222.912 
L 317.354886 222.912 
L 317.470955 205.9776 
L 317.533454 215.6544 
L 317.578096 205.9776 
L 317.587024 205.9776 
L 317.595953 198.72 
L 317.640595 215.6544 
L 317.694165 205.9776 
L 318.069158 205.9776 
L 318.185227 198.72 
L 318.274511 198.72 
L 318.399509 181.7856 
L 318.479864 181.7856 
L 318.533435 174.528 
L 318.587005 181.7856 
L 318.801287 181.7856 
L 318.828072 191.4624 
L 318.908428 181.7856 
L 319.015569 181.7856 
L 319.042354 191.4624 
L 319.113781 174.528 
L 319.256635 174.528 
L 319.372705 167.2704 
L 319.658413 167.2704 
L 319.720912 174.528 
L 319.765554 167.2704 
L 320.336972 167.2704 
L 320.46197 150.336 
L 320.470898 150.336 
L 320.560182 157.5936 
L 320.578039 150.336 
L 320.720893 150.336 
L 320.836962 157.5936 
L 320.979817 157.5936 
L 320.997674 174.528 
L 321.095886 167.2704 
L 321.1316 167.2704 
L 321.247669 157.5936 
L 321.256597 157.5936 
L 321.372667 174.528 
L 321.497664 157.5936 
L 321.524449 157.5936 
L 321.533378 167.2704 
L 321.63159 157.5936 
L 321.756588 157.5936 
L 321.828015 150.336 
L 321.863729 157.5936 
L 321.944084 157.5936 
L 322.060154 150.336 
L 322.069082 150.336 
L 322.113724 157.5936 
L 322.167294 150.336 
L 322.283364 143.0784 
L 322.408361 143.0784 
L 322.52443 133.4016 
L 322.631571 133.4016 
L 322.74764 143.0784 
L 322.783354 143.0784 
L 322.899423 150.336 
L 322.988707 150.336 
L 323.122633 126.144 
L 323.265488 126.144 
L 323.3637 118.8864 
L 323.372629 126.144 
L 323.488698 126.144 
L 323.604767 133.4016 
L 323.622624 133.4016 
L 323.676194 143.0784 
L 323.729765 133.4016 
L 323.836905 133.4016 
L 323.917261 126.144 
L 323.944046 133.4016 
L 323.97976 133.4016 
L 324.095829 126.144 
L 324.167256 126.144 
L 324.211898 118.8864 
L 324.274397 126.144 
L 324.470822 126.144 
L 324.59582 143.0784 
L 324.863672 143.0784 
L 324.917242 133.4016 
L 324.970812 143.0784 
L 325.238665 143.0784 
L 325.354734 157.5936 
L 325.479731 143.0784 
L 325.524373 143.0784 
L 325.640443 133.4016 
L 325.658299 143.0784 
L 325.747583 133.4016 
L 325.845796 133.4016 
L 325.961865 126.144 
L 325.997579 126.144 
L 326.113648 133.4016 
L 326.247574 133.4016 
L 326.363643 143.0784 
L 326.408285 143.0784 
L 326.533283 126.144 
L 326.60471 126.144 
L 326.676137 118.8864 
L 326.711851 126.144 
L 326.801135 126.144 
L 326.82792 118.8864 
L 326.854705 133.4016 
L 326.890419 133.4016 
L 327.006488 143.0784 
L 327.05113 143.0784 
L 327.068987 133.4016 
L 327.158271 143.0784 
L 327.265412 143.0784 
L 327.390409 126.144 
L 327.461837 126.144 
L 327.577906 133.4016 
L 327.702903 133.4016 
L 327.783259 126.144 
L 327.810044 133.4016 
L 328.06004 133.4016 
L 328.185037 157.5936 
L 328.220751 157.5936 
L 328.345748 143.0784 
L 328.408247 143.0784 
L 328.524316 150.336 
L 328.586815 150.336 
L 328.702884 143.0784 
L 328.801097 143.0784 
L 328.926094 126.144 
L 329.131448 126.144 
L 329.247517 133.4016 
L 329.443942 133.4016 
L 329.497512 150.336 
L 329.551083 143.0784 
L 329.560011 133.4016 
L 329.658223 143.0784 
L 329.702865 150.336 
L 329.765364 143.0784 
L 329.818935 143.0784 
L 329.935004 133.4016 
L 330.140357 133.4016 
L 330.149286 143.0784 
L 330.220713 126.144 
L 330.247498 133.4016 
L 330.256426 133.4016 
L 330.372496 126.144 
L 330.408209 126.144 
L 330.533207 109.2096 
L 330.649276 118.8864 
L 330.720703 118.8864 
L 330.836772 133.4016 
L 330.863558 133.4016 
L 330.872486 143.0784 
L 330.970698 133.4016 
L 331.024269 126.144 
L 331.077839 133.4016 
L 331.113553 133.4016 
L 331.229622 126.144 
L 331.309978 126.144 
L 331.443904 150.336 
L 331.452832 150.336 
L 331.586758 174.528 
L 331.684971 174.528 
L 331.818897 198.72 
L 331.872467 198.72 
L 331.988536 205.9776 
L 332.059963 205.9776 
L 332.184961 222.912 
L 332.345672 222.912 
L 332.479598 247.104 
L 332.52424 247.104 
L 332.649238 264.0384 
L 332.845663 264.0384 
L 332.961732 271.296 
L 333.229584 271.296 
L 333.36351 247.104 
L 333.408152 247.104 
L 333.470651 254.3616 
L 333.515293 247.104 
L 333.58672 247.104 
L 333.711718 230.1696 
L 333.827787 230.1696 
L 333.952785 215.6544 
L 334.042069 215.6544 
L 334.158138 205.9776 
L 334.47956 205.9776 
L 334.59563 198.72 
L 334.792054 198.72 
L 334.908124 191.4624 
L 334.952766 191.4624 
L 335.068835 181.7856 
L 335.077763 181.7856 
L 335.193833 191.4624 
L 335.247403 191.4624 
L 335.363472 181.7856 
L 335.550969 181.7856 
L 335.649181 174.528 
L 335.658109 181.7856 
L 335.667038 181.7856 
L 335.720608 198.72 
L 335.783107 191.4624 
L 336.006317 191.4624 
L 336.122386 181.7856 
L 336.363453 181.7856 
L 336.399167 174.528 
L 336.470594 181.7856 
L 336.792016 181.7856 
L 336.908086 174.528 
L 336.917014 174.528 
L 337.033083 167.2704 
L 337.327721 167.2704 
L 337.336649 157.5936 
L 337.434861 167.2704 
L 337.533074 167.2704 
L 337.658071 181.7856 
L 337.667 181.7856 
L 337.791997 167.2704 
L 337.845568 167.2704 
L 337.961637 157.5936 
L 338.193776 157.5936 
L 338.309845 150.336 
L 338.318773 150.336 
L 338.416986 157.5936 
L 338.425914 150.336 
L 338.738408 150.336 
L 338.747336 157.5936 
L 338.845549 150.336 
L 338.854477 150.336 
L 338.979475 167.2704 
L 339.193757 167.2704 
L 339.309826 157.5936 
L 339.541964 157.5936 
L 339.666962 174.528 
L 339.827673 174.528 
L 339.943742 167.2704 
L 340.184809 167.2704 
L 340.300878 157.5936 
L 340.336592 157.5936 
L 340.452661 167.2704 
L 340.577659 167.2704 
L 340.702656 150.336 
L 340.800869 150.336 
L 340.916938 143.0784 
L 341.166933 143.0784 
L 341.291931 126.144 
L 341.408 126.144 
L 341.532998 143.0784 
L 341.613353 143.0784 
L 341.729423 150.336 
L 341.738351 150.336 
L 341.85442 157.5936 
L 341.872277 157.5936 
L 341.988346 167.2704 
L 342.336554 167.2704 
L 342.47048 205.9776 
L 342.604406 205.9776 
L 342.720475 215.6544 
L 342.756189 215.6544 
L 342.890115 239.8464 
L 343.006184 239.8464 
L 343.149039 271.296 
L 343.229394 271.296 
L 343.345463 278.5536 
L 343.693671 278.5536 
L 343.693671 278.5536 
" clip-path="url(#pb0415d13f3)" style="fill: none; stroke-dasharray: 1.5,2.475; stroke-dashoffset: 0; stroke: #ff7f0e; stroke-width: 1.5"/>
   </g>
   <g id="patch_3">
    <path d="M 57.6 307.584 
L 57.6 41.472 
" style="fill: none; stroke: #000000; stroke-width: 0.8; stroke-linejoin: miter; stroke-linecap: square"/>
   </g>
   <g id="patch_4">
    <path d="M 414.72 307.584 
L 414.72 41.472 
" style="fill: none; stroke: #000000; stroke-width: 0.8; stroke-linejoin: miter; stroke-linecap: square"/>
   </g>
   <g id="patch_5">
    <path d="M 57.6 307.584 
L 414.72 307.584 
" style="fill: none; stroke: #000000; stroke-width: 0.8; stroke-linejoin: miter; stroke-linecap: square"/>
   </g>
   <g id="patch_6">
    <path d="M 57.6 41.472 
L 414.72 41.472 
" style="fill: none; stroke: #000000; stroke-width: 0.8; stroke-linejoin: miter; stroke-linecap: square"/>
   </g>
   <g id="text_15">
    <!-- Percentage of Riders Occupied -->
    <g transform="translate(143.879063 -18.2775)scale(0.12 -0.12)">
     <defs>
      <path id="DejaVuSans-50" d="M 1259 4147 
L 1259 2394 
L 2053 2394 
Q 2494 2394 2734 2622 
Q 2975 2850 2975 3272 
Q 2975 3691 2734 3919 
Q 2494 4147 2053 4147 
L 1259 4147 
z
M 628 4666 
L 2053 4666 
Q 2838 4666 3239 4311 
Q 3641 3956 3641 3272 
Q 3641 2581 3239 2228 
Q 2838 1875 2053 1875 
L 1259 1875 
L 1259 0 
L 628 0 
L 628 4666 
z
" transform="scale(0.015625)"/>
      <path id="DejaVuSans-65" d="M 3597 1894 
L 3597 1613 
L 953 1613 
Q 991 1019 1311 708 
Q 1631 397 2203 397 
Q 2534 397 2845 478 
Q 3156 559 3463 722 
L 3463 178 
Q 3153 47 2828 -22 
Q 2503 -91 2169 -91 
Q 1331 -91 842 396 
Q 353 884 353 1716 
Q 353 2575 817 3079 
Q 1281 3584 2069 3584 
Q 2775 3584 3186 3129 
Q 3597 2675 3597 1894 
z
M 3022 2063 
Q 3016 2534 2758 2815 
Q 2500 3097 2075 3097 
Q 1594 3097 1305 2825 
Q 1016 2553 972 2059 
L 3022 2063 
z
" transform="scale(0.015625)"/>
      <path id="DejaVuSans-72" d="M 2631 2963 
Q 2534 3019 2420 3045 
Q 2306 3072 2169 3072 
Q 1681 3072 1420 2755 
Q 1159 2438 1159 1844 
L 1159 0 
L 581 0 
L 581 3500 
L 1159 3500 
L 1159 2956 
Q 1341 3275 1631 3429 
Q 1922 3584 2338 3584 
Q 2397 3584 2469 3576 
Q 2541 3569 2628 3553 
L 2631 2963 
z
" transform="scale(0.015625)"/>
      <path id="DejaVuSans-63" d="M 3122 3366 
L 3122 2828 
Q 2878 2963 2633 3030 
Q 2388 3097 2138 3097 
Q 1578 3097 1268 2742 
Q 959 2388 959 1747 
Q 959 1106 1268 751 
Q 1578 397 2138 397 
Q 2388 397 2633 464 
Q 2878 531 3122 666 
L 3122 134 
Q 2881 22 2623 -34 
Q 2366 -91 2075 -91 
Q 1284 -91 818 406 
Q 353 903 353 1747 
Q 353 2603 823 3093 
Q 1294 3584 2113 3584 
Q 2378 3584 2631 3529 
Q 2884 3475 3122 3366 
z
" transform="scale(0.015625)"/>
      <path id="DejaVuSans-6e" d="M 3513 2113 
L 3513 0 
L 2938 0 
L 2938 2094 
Q 2938 2591 2744 2837 
Q 2550 3084 2163 3084 
Q 1697 3084 1428 2787 
Q 1159 2491 1159 1978 
L 1159 0 
L 581 0 
L 581 3500 
L 1159 3500 
L 1159 2956 
Q 1366 3272 1645 3428 
Q 1925 3584 2291 3584 
Q 2894 3584 3203 3211 
Q 3513 2838 3513 2113 
z
" transform="scale(0.015625)"/>
      <path id="DejaVuSans-74" d="M 1172 4494 
L 1172 3500 
L 2356 3500 
L 2356 3053 
L 1172 3053 
L 1172 1153 
Q 1172 725 1289 603 
Q 1406 481 1766 481 
L 2356 481 
L 2356 0 
L 1766 0 
Q 1100 0 847 248 
Q 594 497 594 1153 
L 594 3053 
L 172 3053 
L 172 3500 
L 594 3500 
L 594 4494 
L 1172 4494 
z
" transform="scale(0.015625)"/>
      <path id="DejaVuSans-61" d="M 2194 1759 
Q 1497 1759 1228 1600 
Q 959 1441 959 1056 
Q 959 750 1161 570 
Q 1363 391 1709 391 
Q 2188 391 2477 730 
Q 2766 1069 2766 1631 
L 2766 1759 
L 2194 1759 
z
M 3341 1997 
L 3341 0 
L 2766 0 
L 2766 531 
Q 2569 213 2275 61 
Q 1981 -91 1556 -91 
Q 1019 -91 701 211 
Q 384 513 384 1019 
Q 384 1609 779 1909 
Q 1175 2209 1959 2209 
L 2766 2209 
L 2766 2266 
Q 2766 2663 2505 2880 
Q 2244 3097 1772 3097 
Q 1472 3097 1187 3025 
Q 903 2953 641 2809 
L 641 3341 
Q 956 3463 1253 3523 
Q 1550 3584 1831 3584 
Q 2591 3584 2966 3190 
Q 3341 2797 3341 1997 
z
" transform="scale(0.015625)"/>
      <path id="DejaVuSans-67" d="M 2906 1791 
Q 2906 2416 2648 2759 
Q 2391 3103 1925 3103 
Q 1463 3103 1205 2759 
Q 947 2416 947 1791 
Q 947 1169 1205 825 
Q 1463 481 1925 481 
Q 2391 481 2648 825 
Q 2906 1169 2906 1791 
z
M 3481 434 
Q 3481 -459 3084 -895 
Q 2688 -1331 1869 -1331 
Q 1566 -1331 1297 -1286 
Q 1028 -1241 775 -1147 
L 775 -588 
Q 1028 -725 1275 -790 
Q 1522 -856 1778 -856 
Q 2344 -856 2625 -561 
Q 2906 -266 2906 331 
L 2906 616 
Q 2728 306 2450 153 
Q 2172 0 1784 0 
Q 1141 0 747 490 
Q 353 981 353 1791 
Q 353 2603 747 3093 
Q 1141 3584 1784 3584 
Q 2172 3584 2450 3431 
Q 2728 3278 2906 2969 
L 2906 3500 
L 3481 3500 
L 3481 434 
z
" transform="scale(0.015625)"/>
      <path id="DejaVuSans-20" transform="scale(0.015625)"/>
      <path id="DejaVuSans-6f" d="M 1959 3097 
Q 1497 3097 1228 2736 
Q 959 2375 959 1747 
Q 959 1119 1226 758 
Q 1494 397 1959 397 
Q 2419 397 2687 759 
Q 2956 1122 2956 1747 
Q 2956 2369 2687 2733 
Q 2419 3097 1959 3097 
z
M 1959 3584 
Q 2709 3584 3137 3096 
Q 3566 2609 3566 1747 
Q 3566 888 3137 398 
Q 2709 -91 1959 -91 
Q 1206 -91 779 398 
Q 353 888 353 1747 
Q 353 2609 779 3096 
Q 1206 3584 1959 3584 
z
" transform="scale(0.015625)"/>
      <path id="DejaVuSans-66" d="M 2375 4863 
L 2375 4384 
L 1825 4384 
Q 1516 4384 1395 4259 
Q 1275 4134 1275 3809 
L 1275 3500 
L 2222 3500 
L 2222 3053 
L 1275 3053 
L 1275 0 
L 697 0 
L 697 3053 
L 147 3053 
L 147 3500 
L 697 3500 
L 697 3744 
Q 697 4328 969 4595 
Q 1241 4863 1831 4863 
L 2375 4863 
z
" transform="scale(0.015625)"/>
      <path id="DejaVuSans-52" d="M 2841 2188 
Q 3044 2119 3236 1894 
Q 3428 1669 3622 1275 
L 4263 0 
L 3584 0 
L 2988 1197 
Q 2756 1666 2539 1819 
Q 2322 1972 1947 1972 
L 1259 1972 
L 1259 0 
L 628 0 
L 628 4666 
L 2053 4666 
Q 2853 4666 3247 4331 
Q 3641 3997 3641 3322 
Q 3641 2881 3436 2590 
Q 3231 2300 2841 2188 
z
M 1259 4147 
L 1259 2491 
L 2053 2491 
Q 2509 2491 2742 2702 
Q 2975 2913 2975 3322 
Q 2975 3731 2742 3939 
Q 2509 4147 2053 4147 
L 1259 4147 
z
" transform="scale(0.015625)"/>
      <path id="DejaVuSans-69" d="M 603 3500 
L 1178 3500 
L 1178 0 
L 603 0 
L 603 3500 
z
M 603 4863 
L 1178 4863 
L 1178 4134 
L 603 4134 
L 603 4863 
z
" transform="scale(0.015625)"/>
      <path id="DejaVuSans-64" d="M 2906 2969 
L 2906 4863 
L 3481 4863 
L 3481 0 
L 2906 0 
L 2906 525 
Q 2725 213 2448 61 
Q 2172 -91 1784 -91 
Q 1150 -91 751 415 
Q 353 922 353 1747 
Q 353 2572 751 3078 
Q 1150 3584 1784 3584 
Q 2172 3584 2448 3432 
Q 2725 3281 2906 2969 
z
M 947 1747 
Q 947 1113 1208 752 
Q 1469 391 1925 391 
Q 2381 391 2643 752 
Q 2906 1113 2906 1747 
Q 2906 2381 2643 2742 
Q 2381 3103 1925 3103 
Q 1469 3103 1208 2742 
Q 947 2381 947 1747 
z
" transform="scale(0.015625)"/>
      <path id="DejaVuSans-73" d="M 2834 3397 
L 2834 2853 
Q 2591 2978 2328 3040 
Q 2066 3103 1784 3103 
Q 1356 3103 1142 2972 
Q 928 2841 928 2578 
Q 928 2378 1081 2264 
Q 1234 2150 1697 2047 
L 1894 2003 
Q 2506 1872 2764 1633 
Q 3022 1394 3022 966 
Q 3022 478 2636 193 
Q 2250 -91 1575 -91 
Q 1294 -91 989 -36 
Q 684 19 347 128 
L 347 722 
Q 666 556 975 473 
Q 1284 391 1588 391 
Q 1994 391 2212 530 
Q 2431 669 2431 922 
Q 2431 1156 2273 1281 
Q 2116 1406 1581 1522 
L 1381 1569 
Q 847 1681 609 1914 
Q 372 2147 372 2553 
Q 372 3047 722 3315 
Q 1072 3584 1716 3584 
Q 2034 3584 2315 3537 
Q 2597 3491 2834 3397 
z
" transform="scale(0.015625)"/>
      <path id="DejaVuSans-4f" d="M 2522 4238 
Q 1834 4238 1429 3725 
Q 1025 3213 1025 2328 
Q 1025 1447 1429 934 
Q 1834 422 2522 422 
Q 3209 422 3611 934 
Q 4013 1447 4013 2328 
Q 4013 3213 3611 3725 
Q 3209 4238 2522 4238 
z
M 2522 4750 
Q 3503 4750 4090 4092 
Q 4678 3434 4678 2328 
Q 4678 1225 4090 567 
Q 3503 -91 2522 -91 
Q 1538 -91 948 565 
Q 359 1222 359 2328 
Q 359 3434 948 4092 
Q 1538 4750 2522 4750 
z
" transform="scale(0.015625)"/>
      <path id="DejaVuSans-75" d="M 544 1381 
L 544 3500 
L 1119 3500 
L 1119 1403 
Q 1119 906 1312 657 
Q 1506 409 1894 409 
Q 2359 409 2629 706 
Q 2900 1003 2900 1516 
L 2900 3500 
L 3475 3500 
L 3475 0 
L 2900 0 
L 2900 538 
Q 2691 219 2414 64 
Q 2138 -91 1772 -91 
Q 1169 -91 856 284 
Q 544 659 544 1381 
z
M 1991 3584 
L 1991 3584 
z
" transform="scale(0.015625)"/>
      <path id="DejaVuSans-70" d="M 1159 525 
L 1159 -1331 
L 581 -1331 
L 581 3500 
L 1159 3500 
L 1159 2969 
Q 1341 3281 1617 3432 
Q 1894 3584 2278 3584 
Q 2916 3584 3314 3078 
Q 3713 2572 3713 1747 
Q 3713 922 3314 415 
Q 2916 -91 2278 -91 
Q 1894 -91 1617 61 
Q 1341 213 1159 525 
z
M 3116 1747 
Q 3116 2381 2855 2742 
Q 2594 3103 2138 3103 
Q 1681 3103 1420 2742 
Q 1159 2381 1159 1747 
Q 1159 1113 1420 752 
Q 1681 391 2138 391 
Q 2594 391 2855 752 
Q 3116 1113 3116 1747 
z
" transform="scale(0.015625)"/>
     </defs>
     <use xlink:href="#DejaVuSans-50"/>
     <use xlink:href="#DejaVuSans-65" x="56.677734"/>
     <use xlink:href="#DejaVuSans-72" x="118.201172"/>
     <use xlink:href="#DejaVuSans-63" x="157.064453"/>
     <use xlink:href="#DejaVuSans-65" x="212.044922"/>
     <use xlink:href="#DejaVuSans-6e" x="273.568359"/>
     <use xlink:href="#DejaVuSans-74" x="336.947266"/>
     <use xlink:href="#DejaVuSans-61" x="376.15625"/>
     <use xlink:href="#DejaVuSans-67" x="437.435547"/>
     <use xlink:href="#DejaVuSans-65" x="500.912109"/>
     <use xlink:href="#DejaVuSans-20" x="562.435547"/>
     <use xlink:href="#DejaVuSans-6f" x="594.222656"/>
     <use xlink:href="#DejaVuSans-66" x="655.404297"/>
     <use xlink:href="#DejaVuSans-20" x="690.609375"/>
     <use xlink:href="#DejaVuSans-52" x="722.396484"/>
     <use xlink:href="#DejaVuSans-69" x="791.878906"/>
     <use xlink:href="#DejaVuSans-64" x="819.662109"/>
     <use xlink:href="#DejaVuSans-65" x="883.138672"/>
     <use xlink:href="#DejaVuSans-72" x="944.662109"/>
     <use xlink:href="#DejaVuSans-73" x="985.775391"/>
     <use xlink:href="#DejaVuSans-20" x="1037.875"/>
     <use xlink:href="#DejaVuSans-4f" x="1069.662109"/>
     <use xlink:href="#DejaVuSans-63" x="1148.373047"/>
     <use xlink:href="#DejaVuSans-63" x="1203.353516"/>
     <use xlink:href="#DejaVuSans-75" x="1258.333984"/>
     <use xlink:href="#DejaVuSans-70" x="1321.712891"/>
     <use xlink:href="#DejaVuSans-69" x="1385.189453"/>
     <use xlink:href="#DejaVuSans-65" x="1412.972656"/>
     <use xlink:href="#DejaVuSans-64" x="1474.496094"/>
    </g>
    <!-- lambda :30 -->
    <g transform="translate(202.11375 -4.840125)scale(0.12 -0.12)">
     <defs>
      <path id="DejaVuSans-6c" d="M 603 4863 
L 1178 4863 
L 1178 0 
L 603 0 
L 603 4863 
z
" transform="scale(0.015625)"/>
      <path id="DejaVuSans-6d" d="M 3328 2828 
Q 3544 3216 3844 3400 
Q 4144 3584 4550 3584 
Q 5097 3584 5394 3201 
Q 5691 2819 5691 2113 
L 5691 0 
L 5113 0 
L 5113 2094 
Q 5113 2597 4934 2840 
Q 4756 3084 4391 3084 
Q 3944 3084 3684 2787 
Q 3425 2491 3425 1978 
L 3425 0 
L 2847 0 
L 2847 2094 
Q 2847 2600 2669 2842 
Q 2491 3084 2119 3084 
Q 1678 3084 1418 2786 
Q 1159 2488 1159 1978 
L 1159 0 
L 581 0 
L 581 3500 
L 1159 3500 
L 1159 2956 
Q 1356 3278 1631 3431 
Q 1906 3584 2284 3584 
Q 2666 3584 2933 3390 
Q 3200 3197 3328 2828 
z
" transform="scale(0.015625)"/>
      <path id="DejaVuSans-62" d="M 3116 1747 
Q 3116 2381 2855 2742 
Q 2594 3103 2138 3103 
Q 1681 3103 1420 2742 
Q 1159 2381 1159 1747 
Q 1159 1113 1420 752 
Q 1681 391 2138 391 
Q 2594 391 2855 752 
Q 3116 1113 3116 1747 
z
M 1159 2969 
Q 1341 3281 1617 3432 
Q 1894 3584 2278 3584 
Q 2916 3584 3314 3078 
Q 3713 2572 3713 1747 
Q 3713 922 3314 415 
Q 2916 -91 2278 -91 
Q 1894 -91 1617 61 
Q 1341 213 1159 525 
L 1159 0 
L 581 0 
L 581 4863 
L 1159 4863 
L 1159 2969 
z
" transform="scale(0.015625)"/>
      <path id="DejaVuSans-3a" d="M 750 794 
L 1409 794 
L 1409 0 
L 750 0 
L 750 794 
z
M 750 3309 
L 1409 3309 
L 1409 2516 
L 750 2516 
L 750 3309 
z
" transform="scale(0.015625)"/>
      <path id="DejaVuSans-33" d="M 2597 2516 
Q 3050 2419 3304 2112 
Q 3559 1806 3559 1356 
Q 3559 666 3084 287 
Q 2609 -91 1734 -91 
Q 1441 -91 1130 -33 
Q 819 25 488 141 
L 488 750 
Q 750 597 1062 519 
Q 1375 441 1716 441 
Q 2309 441 2620 675 
Q 2931 909 2931 1356 
Q 2931 1769 2642 2001 
Q 2353 2234 1838 2234 
L 1294 2234 
L 1294 2753 
L 1863 2753 
Q 2328 2753 2575 2939 
Q 2822 3125 2822 3475 
Q 2822 3834 2567 4026 
Q 2313 4219 1838 4219 
Q 1578 4219 1281 4162 
Q 984 4106 628 3988 
L 628 4550 
Q 988 4650 1302 4700 
Q 1616 4750 1894 4750 
Q 2613 4750 3031 4423 
Q 3450 4097 3450 3541 
Q 3450 3153 3228 2886 
Q 3006 2619 2597 2516 
z
" transform="scale(0.015625)"/>
     </defs>
     <use xlink:href="#DejaVuSans-6c"/>
     <use xlink:href="#DejaVuSans-61" x="27.783203"/>
     <use xlink:href="#DejaVuSans-6d" x="89.0625"/>
     <use xlink:href="#DejaVuSans-62" x="186.474609"/>
     <use xlink:href="#DejaVuSans-64" x="249.951172"/>
     <use xlink:href="#DejaVuSans-61" x="313.427734"/>
     <use xlink:href="#DejaVuSans-20" x="374.707031"/>
     <use xlink:href="#DejaVuSans-3a" x="406.494141"/>
     <use xlink:href="#DejaVuSans-33" x="440.185547"/>
     <use xlink:href="#DejaVuSans-30" x="503.808594"/>
    </g>
    <!-- #Orders per period:5000 -->
    <g transform="translate(160.767188 8.59725)scale(0.12 -0.12)">
     <defs>
      <path id="DejaVuSans-23" d="M 3272 2816 
L 2363 2816 
L 2100 1772 
L 3016 1772 
L 3272 2816 
z
M 2803 4594 
L 2478 3297 
L 3391 3297 
L 3719 4594 
L 4219 4594 
L 3897 3297 
L 4872 3297 
L 4872 2816 
L 3775 2816 
L 3519 1772 
L 4513 1772 
L 4513 1294 
L 3397 1294 
L 3072 0 
L 2572 0 
L 2894 1294 
L 1978 1294 
L 1656 0 
L 1153 0 
L 1478 1294 
L 494 1294 
L 494 1772 
L 1594 1772 
L 1856 2816 
L 850 2816 
L 850 3297 
L 1978 3297 
L 2297 4594 
L 2803 4594 
z
" transform="scale(0.015625)"/>
     </defs>
     <use xlink:href="#DejaVuSans-23"/>
     <use xlink:href="#DejaVuSans-4f" x="83.789062"/>
     <use xlink:href="#DejaVuSans-72" x="162.5"/>
     <use xlink:href="#DejaVuSans-64" x="201.863281"/>
     <use xlink:href="#DejaVuSans-65" x="265.339844"/>
     <use xlink:href="#DejaVuSans-72" x="326.863281"/>
     <use xlink:href="#DejaVuSans-73" x="367.976562"/>
     <use xlink:href="#DejaVuSans-20" x="420.076172"/>
     <use xlink:href="#DejaVuSans-70" x="451.863281"/>
     <use xlink:href="#DejaVuSans-65" x="515.339844"/>
     <use xlink:href="#DejaVuSans-72" x="576.863281"/>
     <use xlink:href="#DejaVuSans-20" x="617.976562"/>
     <use xlink:href="#DejaVuSans-70" x="649.763672"/>
     <use xlink:href="#DejaVuSans-65" x="713.240234"/>
     <use xlink:href="#DejaVuSans-72" x="774.763672"/>
     <use xlink:href="#DejaVuSans-69" x="815.876953"/>
     <use xlink:href="#DejaVuSans-6f" x="843.660156"/>
     <use xlink:href="#DejaVuSans-64" x="904.841797"/>
     <use xlink:href="#DejaVuSans-3a" x="968.318359"/>
     <use xlink:href="#DejaVuSans-35" x="1002.009766"/>
     <use xlink:href="#DejaVuSans-30" x="1065.632812"/>
     <use xlink:href="#DejaVuSans-30" x="1129.255859"/>
     <use xlink:href="#DejaVuSans-30" x="1192.878906"/>
    </g>
    <!--  NUmber of Riders:30 -->
    <g transform="translate(171.37875 22.034625)scale(0.12 -0.12)">
     <defs>
      <path id="DejaVuSans-4e" d="M 628 4666 
L 1478 4666 
L 3547 763 
L 3547 4666 
L 4159 4666 
L 4159 0 
L 3309 0 
L 1241 3903 
L 1241 0 
L 628 0 
L 628 4666 
z
" transform="scale(0.015625)"/>
      <path id="DejaVuSans-55" d="M 556 4666 
L 1191 4666 
L 1191 1831 
Q 1191 1081 1462 751 
Q 1734 422 2344 422 
Q 2950 422 3222 751 
Q 3494 1081 3494 1831 
L 3494 4666 
L 4128 4666 
L 4128 1753 
Q 4128 841 3676 375 
Q 3225 -91 2344 -91 
Q 1459 -91 1007 375 
Q 556 841 556 1753 
L 556 4666 
z
" transform="scale(0.015625)"/>
     </defs>
     <use xlink:href="#DejaVuSans-20"/>
     <use xlink:href="#DejaVuSans-4e" x="31.787109"/>
     <use xlink:href="#DejaVuSans-55" x="106.591797"/>
     <use xlink:href="#DejaVuSans-6d" x="179.785156"/>
     <use xlink:href="#DejaVuSans-62" x="277.197266"/>
     <use xlink:href="#DejaVuSans-65" x="340.673828"/>
     <use xlink:href="#DejaVuSans-72" x="402.197266"/>
     <use xlink:href="#DejaVuSans-20" x="443.310547"/>
     <use xlink:href="#DejaVuSans-6f" x="475.097656"/>
     <use xlink:href="#DejaVuSans-66" x="536.279297"/>
     <use xlink:href="#DejaVuSans-20" x="571.484375"/>
     <use xlink:href="#DejaVuSans-52" x="603.271484"/>
     <use xlink:href="#DejaVuSans-69" x="672.753906"/>
     <use xlink:href="#DejaVuSans-64" x="700.537109"/>
     <use xlink:href="#DejaVuSans-65" x="764.013672"/>
     <use xlink:href="#DejaVuSans-72" x="825.537109"/>
     <use xlink:href="#DejaVuSans-73" x="866.650391"/>
     <use xlink:href="#DejaVuSans-3a" x="918.75"/>
     <use xlink:href="#DejaVuSans-33" x="952.441406"/>
     <use xlink:href="#DejaVuSans-30" x="1016.064453"/>
    </g>
    <!-- Difference in mean=0.415 -->
    <g transform="translate(156.636562 35.472)scale(0.12 -0.12)">
     <defs>
      <path id="DejaVuSans-44" d="M 1259 4147 
L 1259 519 
L 2022 519 
Q 2988 519 3436 956 
Q 3884 1394 3884 2338 
Q 3884 3275 3436 3711 
Q 2988 4147 2022 4147 
L 1259 4147 
z
M 628 4666 
L 1925 4666 
Q 3281 4666 3915 4102 
Q 4550 3538 4550 2338 
Q 4550 1131 3912 565 
Q 3275 0 1925 0 
L 628 0 
L 628 4666 
z
" transform="scale(0.015625)"/>
      <path id="DejaVuSans-3d" d="M 678 2906 
L 4684 2906 
L 4684 2381 
L 678 2381 
L 678 2906 
z
M 678 1631 
L 4684 1631 
L 4684 1100 
L 678 1100 
L 678 1631 
z
" transform="scale(0.015625)"/>
     </defs>
     <use xlink:href="#DejaVuSans-44"/>
     <use xlink:href="#DejaVuSans-69" x="77.001953"/>
     <use xlink:href="#DejaVuSans-66" x="104.785156"/>
     <use xlink:href="#DejaVuSans-66" x="139.990234"/>
     <use xlink:href="#DejaVuSans-65" x="175.195312"/>
     <use xlink:href="#DejaVuSans-72" x="236.71875"/>
     <use xlink:href="#DejaVuSans-65" x="275.582031"/>
     <use xlink:href="#DejaVuSans-6e" x="337.105469"/>
     <use xlink:href="#DejaVuSans-63" x="400.484375"/>
     <use xlink:href="#DejaVuSans-65" x="455.464844"/>
     <use xlink:href="#DejaVuSans-20" x="516.988281"/>
     <use xlink:href="#DejaVuSans-69" x="548.775391"/>
     <use xlink:href="#DejaVuSans-6e" x="576.558594"/>
     <use xlink:href="#DejaVuSans-20" x="639.9375"/>
     <use xlink:href="#DejaVuSans-6d" x="671.724609"/>
     <use xlink:href="#DejaVuSans-65" x="769.136719"/>
     <use xlink:href="#DejaVuSans-61" x="830.660156"/>
     <use xlink:href="#DejaVuSans-6e" x="891.939453"/>
     <use xlink:href="#DejaVuSans-3d" x="955.318359"/>
     <use xlink:href="#DejaVuSans-30" x="1039.107422"/>
     <use xlink:href="#DejaVuSans-2e" x="1102.730469"/>
     <use xlink:href="#DejaVuSans-34" x="1134.517578"/>
     <use xlink:href="#DejaVuSans-31" x="1198.140625"/>
     <use xlink:href="#DejaVuSans-35" x="1261.763672"/>
    </g>
   </g>
   <g id="legend_1">
    <g id="patch_7">
     <path d="M 190.267812 302.584 
L 282.052188 302.584 
Q 284.052188 302.584 284.052188 300.584 
L 284.052188 272.22775 
Q 284.052188 270.22775 282.052188 270.22775 
L 190.267812 270.22775 
Q 188.267812 270.22775 188.267812 272.22775 
L 188.267812 300.584 
Q 188.267812 302.584 190.267812 302.584 
z
" style="fill: #ffffff; opacity: 0.8; stroke: #cccccc; stroke-linejoin: miter"/>
    </g>
    <g id="line2d_17">
     <path d="M 192.267812 278.326187 
L 202.267812 278.326187 
L 212.267812 278.326187 
" style="fill: none; stroke-dasharray: 5.55,2.4; stroke-dashoffset: 0; stroke: #1f77b4; stroke-width: 1.5"/>
    </g>
    <g id="text_16">
     <!-- Default -->
     <g transform="translate(220.267812 281.826187)scale(0.1 -0.1)">
      <use xlink:href="#DejaVuSans-44"/>
      <use xlink:href="#DejaVuSans-65" x="77.001953"/>
      <use xlink:href="#DejaVuSans-66" x="138.525391"/>
      <use xlink:href="#DejaVuSans-61" x="173.730469"/>
      <use xlink:href="#DejaVuSans-75" x="235.009766"/>
      <use xlink:href="#DejaVuSans-6c" x="298.388672"/>
      <use xlink:href="#DejaVuSans-74" x="326.171875"/>
     </g>
    </g>
    <g id="line2d_18">
     <path d="M 192.267812 293.004312 
L 202.267812 293.004312 
L 212.267812 293.004312 
" style="fill: none; stroke-dasharray: 1.5,2.475; stroke-dashoffset: 0; stroke: #ff7f0e; stroke-width: 1.5"/>
    </g>
    <g id="text_17">
     <!-- Anticipation -->
     <g transform="translate(220.267812 296.504312)scale(0.1 -0.1)">
      <defs>
       <path id="DejaVuSans-41" d="M 2188 4044 
L 1331 1722 
L 3047 1722 
L 2188 4044 
z
M 1831 4666 
L 2547 4666 
L 4325 0 
L 3669 0 
L 3244 1197 
L 1141 1197 
L 716 0 
L 50 0 
L 1831 4666 
z
" transform="scale(0.015625)"/>
      </defs>
      <use xlink:href="#DejaVuSans-41"/>
      <use xlink:href="#DejaVuSans-6e" x="68.408203"/>
      <use xlink:href="#DejaVuSans-74" x="131.787109"/>
      <use xlink:href="#DejaVuSans-69" x="170.996094"/>
      <use xlink:href="#DejaVuSans-63" x="198.779297"/>
      <use xlink:href="#DejaVuSans-69" x="253.759766"/>
      <use xlink:href="#DejaVuSans-70" x="281.542969"/>
      <use xlink:href="#DejaVuSans-61" x="345.019531"/>
      <use xlink:href="#DejaVuSans-74" x="406.298828"/>
      <use xlink:href="#DejaVuSans-69" x="445.507812"/>
      <use xlink:href="#DejaVuSans-6f" x="473.291016"/>
      <use xlink:href="#DejaVuSans-6e" x="534.472656"/>
     </g>
    </g>
   </g>
  </g>
 </g>
 <defs>
  <clipPath id="pb0415d13f3">
   <rect x="57.6" y="41.472" width="357.12" height="266.112"/>
  </clipPath>
 </defs>
</svg>
