<?xml version="1.0" encoding="utf-8" standalone="no"?>
<!DOCTYPE svg PUBLIC "-//W3C//DTD SVG 1.1//EN"
  "http://www.w3.org/Graphics/SVG/1.1/DTD/svg11.dtd">
<svg xmlns:xlink="http://www.w3.org/1999/xlink" width="460.8pt" height="345.6pt" viewBox="0 0 460.8 345.6" xmlns="http://www.w3.org/2000/svg" version="1.1">
 <metadata>
  <rdf:RDF xmlns:dc="http://purl.org/dc/elements/1.1/" xmlns:cc="http://creativecommons.org/ns#" xmlns:rdf="http://www.w3.org/1999/02/22-rdf-syntax-ns#">
   <cc:Work>
    <dc:type rdf:resource="http://purl.org/dc/dcmitype/StillImage"/>
    <dc:date>2022-10-10T12:18:35.120451</dc:date>
    <dc:format>image/svg+xml</dc:format>
    <dc:creator>
     <cc:Agent>
      <dc:title>Matplotlib v3.5.3, https://matplotlib.org/</dc:title>
     </cc:Agent>
    </dc:creator>
   </cc:Work>
  </rdf:RDF>
 </metadata>
 <defs>
  <style type="text/css">*{stroke-linejoin: round; stroke-linecap: butt}</style>
 </defs>
 <g id="figure_1">
  <g id="patch_1">
   <path d="M 0 345.6 
L 460.8 345.6 
L 460.8 0 
L 0 0 
z
" style="fill: #ffffff"/>
  </g>
  <g id="axes_1">
   <g id="patch_2">
    <path d="M 57.6 307.584 
L 414.72 307.584 
L 414.72 41.472 
L 57.6 41.472 
z
" style="fill: #ffffff"/>
   </g>
   <g id="matplotlib.axis_1">
    <g id="xtick_1">
     <g id="line2d_1">
      <defs>
       <path id="m9009d2c2f0" d="M 0 0 
L 0 3.5 
" style="stroke: #000000; stroke-width: 0.8"/>
      </defs>
      <g>
       <use xlink:href="#m9009d2c2f0" x="73.832727" y="307.584" style="stroke: #000000; stroke-width: 0.8"/>
      </g>
     </g>
     <g id="text_1">
      <!-- 0 -->
      <g transform="translate(70.651477 322.182437)scale(0.1 -0.1)">
       <defs>
        <path id="DejaVuSans-30" d="M 2034 4250 
Q 1547 4250 1301 3770 
Q 1056 3291 1056 2328 
Q 1056 1369 1301 889 
Q 1547 409 2034 409 
Q 2525 409 2770 889 
Q 3016 1369 3016 2328 
Q 3016 3291 2770 3770 
Q 2525 4250 2034 4250 
z
M 2034 4750 
Q 2819 4750 3233 4129 
Q 3647 3509 3647 2328 
Q 3647 1150 3233 529 
Q 2819 -91 2034 -91 
Q 1250 -91 836 529 
Q 422 1150 422 2328 
Q 422 3509 836 4129 
Q 1250 4750 2034 4750 
z
" transform="scale(0.015625)"/>
       </defs>
       <use xlink:href="#DejaVuSans-30"/>
      </g>
     </g>
    </g>
    <g id="xtick_2">
     <g id="line2d_2">
      <g>
       <use xlink:href="#m9009d2c2f0" x="120.039005" y="307.584" style="stroke: #000000; stroke-width: 0.8"/>
      </g>
     </g>
     <g id="text_2">
      <!-- 25000 -->
      <g transform="translate(104.132755 322.182437)scale(0.1 -0.1)">
       <defs>
        <path id="DejaVuSans-32" d="M 1228 531 
L 3431 531 
L 3431 0 
L 469 0 
L 469 531 
Q 828 903 1448 1529 
Q 2069 2156 2228 2338 
Q 2531 2678 2651 2914 
Q 2772 3150 2772 3378 
Q 2772 3750 2511 3984 
Q 2250 4219 1831 4219 
Q 1534 4219 1204 4116 
Q 875 4013 500 3803 
L 500 4441 
Q 881 4594 1212 4672 
Q 1544 4750 1819 4750 
Q 2544 4750 2975 4387 
Q 3406 4025 3406 3419 
Q 3406 3131 3298 2873 
Q 3191 2616 2906 2266 
Q 2828 2175 2409 1742 
Q 1991 1309 1228 531 
z
" transform="scale(0.015625)"/>
        <path id="DejaVuSans-35" d="M 691 4666 
L 3169 4666 
L 3169 4134 
L 1269 4134 
L 1269 2991 
Q 1406 3038 1543 3061 
Q 1681 3084 1819 3084 
Q 2600 3084 3056 2656 
Q 3513 2228 3513 1497 
Q 3513 744 3044 326 
Q 2575 -91 1722 -91 
Q 1428 -91 1123 -41 
Q 819 9 494 109 
L 494 744 
Q 775 591 1075 516 
Q 1375 441 1709 441 
Q 2250 441 2565 725 
Q 2881 1009 2881 1497 
Q 2881 1984 2565 2268 
Q 2250 2553 1709 2553 
Q 1456 2553 1204 2497 
Q 953 2441 691 2322 
L 691 4666 
z
" transform="scale(0.015625)"/>
       </defs>
       <use xlink:href="#DejaVuSans-32"/>
       <use xlink:href="#DejaVuSans-35" x="63.623047"/>
       <use xlink:href="#DejaVuSans-30" x="127.246094"/>
       <use xlink:href="#DejaVuSans-30" x="190.869141"/>
       <use xlink:href="#DejaVuSans-30" x="254.492188"/>
      </g>
     </g>
    </g>
    <g id="xtick_3">
     <g id="line2d_3">
      <g>
       <use xlink:href="#m9009d2c2f0" x="166.245282" y="307.584" style="stroke: #000000; stroke-width: 0.8"/>
      </g>
     </g>
     <g id="text_3">
      <!-- 50000 -->
      <g transform="translate(150.339032 322.182437)scale(0.1 -0.1)">
       <use xlink:href="#DejaVuSans-35"/>
       <use xlink:href="#DejaVuSans-30" x="63.623047"/>
       <use xlink:href="#DejaVuSans-30" x="127.246094"/>
       <use xlink:href="#DejaVuSans-30" x="190.869141"/>
       <use xlink:href="#DejaVuSans-30" x="254.492188"/>
      </g>
     </g>
    </g>
    <g id="xtick_4">
     <g id="line2d_4">
      <g>
       <use xlink:href="#m9009d2c2f0" x="212.451559" y="307.584" style="stroke: #000000; stroke-width: 0.8"/>
      </g>
     </g>
     <g id="text_4">
      <!-- 75000 -->
      <g transform="translate(196.545309 322.182437)scale(0.1 -0.1)">
       <defs>
        <path id="DejaVuSans-37" d="M 525 4666 
L 3525 4666 
L 3525 4397 
L 1831 0 
L 1172 0 
L 2766 4134 
L 525 4134 
L 525 4666 
z
" transform="scale(0.015625)"/>
       </defs>
       <use xlink:href="#DejaVuSans-37"/>
       <use xlink:href="#DejaVuSans-35" x="63.623047"/>
       <use xlink:href="#DejaVuSans-30" x="127.246094"/>
       <use xlink:href="#DejaVuSans-30" x="190.869141"/>
       <use xlink:href="#DejaVuSans-30" x="254.492188"/>
      </g>
     </g>
    </g>
    <g id="xtick_5">
     <g id="line2d_5">
      <g>
       <use xlink:href="#m9009d2c2f0" x="258.657836" y="307.584" style="stroke: #000000; stroke-width: 0.8"/>
      </g>
     </g>
     <g id="text_5">
      <!-- 100000 -->
      <g transform="translate(239.570336 322.182437)scale(0.1 -0.1)">
       <defs>
        <path id="DejaVuSans-31" d="M 794 531 
L 1825 531 
L 1825 4091 
L 703 3866 
L 703 4441 
L 1819 4666 
L 2450 4666 
L 2450 531 
L 3481 531 
L 3481 0 
L 794 0 
L 794 531 
z
" transform="scale(0.015625)"/>
       </defs>
       <use xlink:href="#DejaVuSans-31"/>
       <use xlink:href="#DejaVuSans-30" x="63.623047"/>
       <use xlink:href="#DejaVuSans-30" x="127.246094"/>
       <use xlink:href="#DejaVuSans-30" x="190.869141"/>
       <use xlink:href="#DejaVuSans-30" x="254.492188"/>
       <use xlink:href="#DejaVuSans-30" x="318.115234"/>
      </g>
     </g>
    </g>
    <g id="xtick_6">
     <g id="line2d_6">
      <g>
       <use xlink:href="#m9009d2c2f0" x="304.864114" y="307.584" style="stroke: #000000; stroke-width: 0.8"/>
      </g>
     </g>
     <g id="text_6">
      <!-- 125000 -->
      <g transform="translate(285.776614 322.182437)scale(0.1 -0.1)">
       <use xlink:href="#DejaVuSans-31"/>
       <use xlink:href="#DejaVuSans-32" x="63.623047"/>
       <use xlink:href="#DejaVuSans-35" x="127.246094"/>
       <use xlink:href="#DejaVuSans-30" x="190.869141"/>
       <use xlink:href="#DejaVuSans-30" x="254.492188"/>
       <use xlink:href="#DejaVuSans-30" x="318.115234"/>
      </g>
     </g>
    </g>
    <g id="xtick_7">
     <g id="line2d_7">
      <g>
       <use xlink:href="#m9009d2c2f0" x="351.070391" y="307.584" style="stroke: #000000; stroke-width: 0.8"/>
      </g>
     </g>
     <g id="text_7">
      <!-- 150000 -->
      <g transform="translate(331.982891 322.182437)scale(0.1 -0.1)">
       <use xlink:href="#DejaVuSans-31"/>
       <use xlink:href="#DejaVuSans-35" x="63.623047"/>
       <use xlink:href="#DejaVuSans-30" x="127.246094"/>
       <use xlink:href="#DejaVuSans-30" x="190.869141"/>
       <use xlink:href="#DejaVuSans-30" x="254.492188"/>
       <use xlink:href="#DejaVuSans-30" x="318.115234"/>
      </g>
     </g>
    </g>
    <g id="xtick_8">
     <g id="line2d_8">
      <g>
       <use xlink:href="#m9009d2c2f0" x="397.276668" y="307.584" style="stroke: #000000; stroke-width: 0.8"/>
      </g>
     </g>
     <g id="text_8">
      <!-- 175000 -->
      <g transform="translate(378.189168 322.182437)scale(0.1 -0.1)">
       <use xlink:href="#DejaVuSans-31"/>
       <use xlink:href="#DejaVuSans-37" x="63.623047"/>
       <use xlink:href="#DejaVuSans-35" x="127.246094"/>
       <use xlink:href="#DejaVuSans-30" x="190.869141"/>
       <use xlink:href="#DejaVuSans-30" x="254.492188"/>
       <use xlink:href="#DejaVuSans-30" x="318.115234"/>
      </g>
     </g>
    </g>
   </g>
   <g id="matplotlib.axis_2">
    <g id="ytick_1">
     <g id="line2d_9">
      <defs>
       <path id="me3ef7f46ab" d="M 0 0 
L -3.5 0 
" style="stroke: #000000; stroke-width: 0.8"/>
      </defs>
      <g>
       <use xlink:href="#me3ef7f46ab" x="57.6" y="295.488" style="stroke: #000000; stroke-width: 0.8"/>
      </g>
     </g>
     <g id="text_9">
      <!-- 0.0 -->
      <g transform="translate(34.696875 299.287219)scale(0.1 -0.1)">
       <defs>
        <path id="DejaVuSans-2e" d="M 684 794 
L 1344 794 
L 1344 0 
L 684 0 
L 684 794 
z
" transform="scale(0.015625)"/>
       </defs>
       <use xlink:href="#DejaVuSans-30"/>
       <use xlink:href="#DejaVuSans-2e" x="63.623047"/>
       <use xlink:href="#DejaVuSans-30" x="95.410156"/>
      </g>
     </g>
    </g>
    <g id="ytick_2">
     <g id="line2d_10">
      <g>
       <use xlink:href="#me3ef7f46ab" x="57.6" y="247.104" style="stroke: #000000; stroke-width: 0.8"/>
      </g>
     </g>
     <g id="text_10">
      <!-- 0.2 -->
      <g transform="translate(34.696875 250.903219)scale(0.1 -0.1)">
       <use xlink:href="#DejaVuSans-30"/>
       <use xlink:href="#DejaVuSans-2e" x="63.623047"/>
       <use xlink:href="#DejaVuSans-32" x="95.410156"/>
      </g>
     </g>
    </g>
    <g id="ytick_3">
     <g id="line2d_11">
      <g>
       <use xlink:href="#me3ef7f46ab" x="57.6" y="198.72" style="stroke: #000000; stroke-width: 0.8"/>
      </g>
     </g>
     <g id="text_11">
      <!-- 0.4 -->
      <g transform="translate(34.696875 202.519219)scale(0.1 -0.1)">
       <defs>
        <path id="DejaVuSans-34" d="M 2419 4116 
L 825 1625 
L 2419 1625 
L 2419 4116 
z
M 2253 4666 
L 3047 4666 
L 3047 1625 
L 3713 1625 
L 3713 1100 
L 3047 1100 
L 3047 0 
L 2419 0 
L 2419 1100 
L 313 1100 
L 313 1709 
L 2253 4666 
z
" transform="scale(0.015625)"/>
       </defs>
       <use xlink:href="#DejaVuSans-30"/>
       <use xlink:href="#DejaVuSans-2e" x="63.623047"/>
       <use xlink:href="#DejaVuSans-34" x="95.410156"/>
      </g>
     </g>
    </g>
    <g id="ytick_4">
     <g id="line2d_12">
      <g>
       <use xlink:href="#me3ef7f46ab" x="57.6" y="150.336" style="stroke: #000000; stroke-width: 0.8"/>
      </g>
     </g>
     <g id="text_12">
      <!-- 0.6 -->
      <g transform="translate(34.696875 154.135219)scale(0.1 -0.1)">
       <defs>
        <path id="DejaVuSans-36" d="M 2113 2584 
Q 1688 2584 1439 2293 
Q 1191 2003 1191 1497 
Q 1191 994 1439 701 
Q 1688 409 2113 409 
Q 2538 409 2786 701 
Q 3034 994 3034 1497 
Q 3034 2003 2786 2293 
Q 2538 2584 2113 2584 
z
M 3366 4563 
L 3366 3988 
Q 3128 4100 2886 4159 
Q 2644 4219 2406 4219 
Q 1781 4219 1451 3797 
Q 1122 3375 1075 2522 
Q 1259 2794 1537 2939 
Q 1816 3084 2150 3084 
Q 2853 3084 3261 2657 
Q 3669 2231 3669 1497 
Q 3669 778 3244 343 
Q 2819 -91 2113 -91 
Q 1303 -91 875 529 
Q 447 1150 447 2328 
Q 447 3434 972 4092 
Q 1497 4750 2381 4750 
Q 2619 4750 2861 4703 
Q 3103 4656 3366 4563 
z
" transform="scale(0.015625)"/>
       </defs>
       <use xlink:href="#DejaVuSans-30"/>
       <use xlink:href="#DejaVuSans-2e" x="63.623047"/>
       <use xlink:href="#DejaVuSans-36" x="95.410156"/>
      </g>
     </g>
    </g>
    <g id="ytick_5">
     <g id="line2d_13">
      <g>
       <use xlink:href="#me3ef7f46ab" x="57.6" y="101.952" style="stroke: #000000; stroke-width: 0.8"/>
      </g>
     </g>
     <g id="text_13">
      <!-- 0.8 -->
      <g transform="translate(34.696875 105.751219)scale(0.1 -0.1)">
       <defs>
        <path id="DejaVuSans-38" d="M 2034 2216 
Q 1584 2216 1326 1975 
Q 1069 1734 1069 1313 
Q 1069 891 1326 650 
Q 1584 409 2034 409 
Q 2484 409 2743 651 
Q 3003 894 3003 1313 
Q 3003 1734 2745 1975 
Q 2488 2216 2034 2216 
z
M 1403 2484 
Q 997 2584 770 2862 
Q 544 3141 544 3541 
Q 544 4100 942 4425 
Q 1341 4750 2034 4750 
Q 2731 4750 3128 4425 
Q 3525 4100 3525 3541 
Q 3525 3141 3298 2862 
Q 3072 2584 2669 2484 
Q 3125 2378 3379 2068 
Q 3634 1759 3634 1313 
Q 3634 634 3220 271 
Q 2806 -91 2034 -91 
Q 1263 -91 848 271 
Q 434 634 434 1313 
Q 434 1759 690 2068 
Q 947 2378 1403 2484 
z
M 1172 3481 
Q 1172 3119 1398 2916 
Q 1625 2713 2034 2713 
Q 2441 2713 2670 2916 
Q 2900 3119 2900 3481 
Q 2900 3844 2670 4047 
Q 2441 4250 2034 4250 
Q 1625 4250 1398 4047 
Q 1172 3844 1172 3481 
z
" transform="scale(0.015625)"/>
       </defs>
       <use xlink:href="#DejaVuSans-30"/>
       <use xlink:href="#DejaVuSans-2e" x="63.623047"/>
       <use xlink:href="#DejaVuSans-38" x="95.410156"/>
      </g>
     </g>
    </g>
    <g id="ytick_6">
     <g id="line2d_14">
      <g>
       <use xlink:href="#me3ef7f46ab" x="57.6" y="53.568" style="stroke: #000000; stroke-width: 0.8"/>
      </g>
     </g>
     <g id="text_14">
      <!-- 1.0 -->
      <g transform="translate(34.696875 57.367219)scale(0.1 -0.1)">
       <use xlink:href="#DejaVuSans-31"/>
       <use xlink:href="#DejaVuSans-2e" x="63.623047"/>
       <use xlink:href="#DejaVuSans-30" x="95.410156"/>
      </g>
     </g>
    </g>
   </g>
   <g id="line2d_15">
    <path d="M 73.832727 295.488 
L 73.878934 295.488 
L 74.017552 271.296 
L 74.054517 271.296 
L 74.202377 239.8464 
L 74.230101 239.8464 
L 74.359479 215.6544 
L 74.405685 215.6544 
L 74.535063 191.4624 
L 74.553545 191.4624 
L 74.562786 198.72 
L 74.627475 181.7856 
L 74.66444 191.4624 
L 74.784577 167.2704 
L 74.8123 181.7856 
L 74.895472 167.2704 
L 74.932437 167.2704 
L 75.052573 150.336 
L 75.071056 150.336 
L 75.191192 126.144 
L 75.200433 133.4016 
L 75.246639 133.4016 
L 75.348293 126.144 
L 75.357534 133.4016 
L 75.366776 133.4016 
L 75.486912 118.8864 
L 75.597807 143.0784 
L 75.61629 133.4016 
L 75.625531 133.4016 
L 75.736426 143.0784 
L 75.865803 118.8864 
L 75.875045 118.8864 
L 75.930492 126.144 
L 75.98594 118.8864 
L 75.995181 118.8864 
L 76.041387 101.952 
L 76.115317 109.2096 
L 76.124559 109.2096 
L 76.235454 118.8864 
L 76.300142 109.2096 
L 76.346349 118.8864 
L 76.401796 118.8864 
L 76.521933 101.952 
L 76.540415 101.952 
L 76.623586 126.144 
L 76.669793 118.8864 
L 76.679034 118.8864 
L 76.762205 109.2096 
L 76.789929 118.8864 
L 76.79917 118.8864 
L 76.8731 101.952 
L 76.919307 109.2096 
L 77.048684 94.6944 
L 77.057925 94.6944 
L 77.178062 85.0176 
L 77.187303 85.0176 
L 77.307439 70.5024 
L 77.409093 77.76 
L 77.418334 70.5024 
L 77.436817 70.5024 
L 77.575436 94.6944 
L 77.612401 94.6944 
L 77.67709 77.76 
L 77.704813 109.2096 
L 77.723296 109.2096 
L 77.861915 85.0176 
L 77.880397 85.0176 
L 77.963568 70.5024 
L 78.000533 77.76 
L 78.111429 85.0176 
L 78.240806 70.5024 
L 78.26853 70.5024 
L 78.388666 60.8256 
L 78.508803 53.568 
L 78.9339 53.568 
L 78.970865 60.8256 
L 79.044795 53.568 
L 80.061333 53.568 
L 80.089057 77.76 
L 80.18147 60.8256 
L 80.209194 60.8256 
L 80.218435 70.5024 
L 80.320089 60.8256 
L 80.347812 60.8256 
L 80.467949 53.568 
L 396.167718 53.568 
L 396.297095 70.5024 
L 396.315578 70.5024 
L 396.454197 94.6944 
L 396.472679 94.6944 
L 396.62978 133.4016 
L 396.740675 133.4016 
L 396.888536 174.528 
L 396.916259 174.528 
L 397.073361 215.6544 
L 397.082602 215.6544 
L 397.202738 222.912 
L 397.211979 222.912 
L 397.341357 239.8464 
L 397.424528 239.8464 
L 397.544665 247.104 
L 397.58163 247.104 
L 397.711007 264.0384 
L 397.886591 264.0384 
L 398.006727 271.296 
L 398.052934 271.296 
L 398.17307 278.5536 
L 398.487273 278.5536 
L 398.487273 278.5536 
" clip-path="url(#p3d436a8fbd)" style="fill: none; stroke-dasharray: 5.55,2.4; stroke-dashoffset: 0; stroke: #1f77b4; stroke-width: 1.5"/>
   </g>
   <g id="line2d_16">
    <path d="M 73.832727 295.488 
L 73.878934 295.488 
L 74.017552 271.296 
L 74.054517 271.296 
L 74.202377 239.8464 
L 74.230101 239.8464 
L 74.359479 215.6544 
L 74.405685 215.6544 
L 74.525821 198.72 
L 74.562786 198.72 
L 74.692164 181.7856 
L 74.710647 181.7856 
L 74.784577 167.2704 
L 74.830783 174.528 
L 74.876989 174.528 
L 74.997125 167.2704 
L 75.302087 167.2704 
L 75.348293 157.5936 
L 75.412982 167.2704 
L 75.551601 167.2704 
L 75.671737 174.528 
L 75.819597 174.528 
L 75.948975 157.5936 
L 75.995181 157.5936 
L 76.115317 167.2704 
L 76.152282 167.2704 
L 76.244695 150.336 
L 76.272419 157.5936 
L 76.401796 157.5936 
L 76.42952 150.336 
L 76.494209 157.5936 
L 76.614345 167.2704 
L 76.632828 167.2704 
L 76.734481 181.7856 
L 76.752964 174.528 
L 76.780688 174.528 
L 76.79917 181.7856 
L 76.863859 167.2704 
L 76.891583 174.528 
L 76.910065 174.528 
L 76.919307 181.7856 
L 77.02096 174.528 
L 77.122614 174.528 
L 77.251992 157.5936 
L 77.381369 157.5936 
L 77.446058 167.2704 
L 77.492264 157.5936 
L 77.538471 157.5936 
L 77.667848 143.0784 
L 77.797226 157.5936 
L 77.815708 157.5936 
L 77.935845 143.0784 
L 77.991292 150.336 
L 78.04674 143.0784 
L 78.111429 143.0784 
L 78.185359 133.4016 
L 78.222324 143.0784 
L 78.536526 143.0784 
L 78.619698 133.4016 
L 78.647421 143.0784 
L 78.665904 143.0784 
L 78.795281 157.5936 
L 78.869211 157.5936 
L 78.989348 150.336 
L 79.109484 157.5936 
L 79.15569 157.5936 
L 79.174173 150.336 
L 79.266585 157.5936 
L 79.405204 157.5936 
L 79.469893 150.336 
L 79.516099 157.5936 
L 79.580788 157.5936 
L 79.673201 174.528 
L 79.700924 167.2704 
L 80.089057 167.2704 
L 80.209194 157.5936 
L 80.218435 157.5936 
L 80.273882 150.336 
L 80.32933 157.5936 
L 80.458707 157.5936 
L 80.578844 150.336 
L 80.652774 150.336 
L 80.782151 167.2704 
L 80.911529 167.2704 
L 81.040907 181.7856 
L 81.124078 181.7856 
L 81.133319 174.528 
L 81.170284 191.4624 
L 81.21649 191.4624 
L 81.410557 191.4624 
L 81.475246 181.7856 
L 81.521452 191.4624 
L 81.595382 191.4624 
L 81.715518 174.528 
L 81.798689 174.528 
L 81.918826 167.2704 
L 81.94655 167.2704 
L 82.02048 157.5936 
L 82.057445 167.2704 
L 82.075927 167.2704 
L 82.140616 157.5936 
L 82.177581 167.2704 
L 82.297717 174.528 
L 82.343924 174.528 
L 82.46406 181.7856 
L 82.593437 167.2704 
L 82.648885 167.2704 
L 82.769021 174.528 
L 82.778263 174.528 
L 82.898399 167.2704 
L 82.90764 167.2704 
L 83.027776 174.528 
L 83.120189 174.528 
L 83.249567 191.4624 
L 83.332738 181.7856 
L 83.360462 191.4624 
L 83.378944 191.4624 
L 83.49908 198.72 
L 83.508322 198.72 
L 83.628458 205.9776 
L 83.739353 205.9776 
L 83.868731 191.4624 
L 84.127486 191.4624 
L 84.256863 205.9776 
L 84.284587 205.9776 
L 84.413965 191.4624 
L 84.441689 191.4624 
L 84.561825 174.528 
L 84.59879 174.528 
L 84.728167 157.5936 
L 84.74665 157.5936 
L 84.866786 167.2704 
L 84.96844 167.2704 
L 85.097818 181.7856 
L 85.254919 181.7856 
L 85.301125 174.528 
L 85.365814 181.7856 
L 85.522915 181.7856 
L 85.643052 174.528 
L 85.874083 174.528 
L 85.892566 167.2704 
L 85.984978 174.528 
L 86.105115 174.528 
L 86.123597 191.4624 
L 86.21601 181.7856 
L 86.271457 181.7856 
L 86.345387 191.4624 
L 86.382352 181.7856 
L 86.530212 181.7856 
L 86.650349 174.528 
L 86.770485 181.7856 
L 86.95531 181.7856 
L 87.038481 174.528 
L 87.066205 181.7856 
L 87.158618 181.7856 
L 87.278754 191.4624 
L 87.426614 191.4624 
L 87.435855 205.9776 
L 87.537509 191.4624 
L 87.574474 191.4624 
L 87.703852 205.9776 
L 87.713093 205.9776 
L 87.833229 198.72 
L 87.981089 198.72 
L 88.101226 191.4624 
L 88.258327 191.4624 
L 88.378463 181.7856 
L 88.544806 181.7856 
L 88.664942 174.528 
L 88.748114 174.528 
L 88.877491 157.5936 
L 88.886732 157.5936 
L 88.923697 167.2704 
L 88.997627 157.5936 
L 89.348795 157.5936 
L 89.468932 150.336 
L 89.589068 157.5936 
L 89.68148 157.5936 
L 89.783134 174.528 
L 89.801617 167.2704 
L 90.134302 167.2704 
L 90.171267 157.5936 
L 90.189749 174.528 
L 90.235956 174.528 
L 90.356092 174.528 
L 90.448505 167.2704 
L 90.466987 174.528 
L 90.48547 174.528 
L 90.531676 181.7856 
L 90.596365 174.528 
L 90.698018 174.528 
L 90.818155 167.2704 
L 90.873602 167.2704 
L 90.993739 150.336 
L 91.039945 150.336 
L 91.160081 143.0784 
L 91.169323 143.0784 
L 91.2987 157.5936 
L 91.344906 157.5936 
L 91.400354 167.2704 
L 91.455801 157.5936 
L 91.474284 157.5936 
L 91.603662 181.7856 
L 91.723798 174.528 
L 92.019518 174.528 
L 92.139654 167.2704 
L 92.259791 167.2704 
L 92.398409 191.4624 
L 92.435375 191.4624 
L 92.555511 181.7856 
L 92.638682 181.7856 
L 92.758818 174.528 
L 93.017574 174.528 
L 93.13771 167.2704 
L 93.165434 167.2704 
L 93.28557 157.5936 
L 93.313294 157.5936 
L 93.43343 150.336 
L 93.516601 150.336 
L 93.636738 143.0784 
L 93.710668 143.0784 
L 93.830804 150.336 
L 93.941699 150.336 
L 93.987905 143.0784 
L 94.052594 150.336 
L 94.172731 157.5936 
L 94.209696 157.5936 
L 94.348314 191.4624 
L 94.357556 191.4624 
L 94.477692 198.72 
L 94.523898 198.72 
L 94.644035 191.4624 
L 94.764171 191.4624 
L 94.884307 198.72 
L 95.022926 174.528 
L 95.27244 174.528 
L 95.318646 167.2704 
L 95.383335 174.528 
L 95.438783 174.528 
L 95.56816 191.4624 
L 95.605125 191.4624 
L 95.632849 198.72 
L 95.71602 191.4624 
L 96.067188 191.4624 
L 96.141118 174.528 
L 96.187324 181.7856 
L 96.196565 181.7856 
L 96.316702 191.4624 
L 96.335184 191.4624 
L 96.455321 181.7856 
L 96.473803 181.7856 
L 96.593939 198.72 
L 96.630904 198.72 
L 96.760282 215.6544 
L 96.945107 215.6544 
L 97.000555 205.9776 
L 97.056002 215.6544 
L 97.065243 215.6544 
L 97.157656 222.912 
L 97.176139 215.6544 
L 97.213104 215.6544 
L 97.342481 191.4624 
L 97.591995 191.4624 
L 97.712131 198.72 
L 97.887715 198.72 
L 98.007852 191.4624 
L 98.017093 191.4624 
L 98.137229 181.7856 
L 98.174194 181.7856 
L 98.303572 167.2704 
L 98.673222 167.2704 
L 98.793358 157.5936 
L 98.95046 157.5936 
L 98.978183 174.528 
L 99.070596 167.2704 
L 99.089078 167.2704 
L 99.199974 181.7856 
L 99.329351 167.2704 
L 99.477211 167.2704 
L 99.597347 150.336 
L 99.643554 150.336 
L 99.754449 143.0784 
L 99.874585 150.336 
L 99.966998 150.336 
L 100.087134 157.5936 
L 100.198029 157.5936 
L 100.271959 174.528 
L 100.318165 167.2704 
L 100.401337 167.2704 
L 100.530714 181.7856 
L 100.678574 181.7856 
L 100.798711 174.528 
L 100.835676 174.528 
L 100.93733 181.7856 
L 100.946571 174.528 
L 101.075948 174.528 
L 101.140637 181.7856 
L 101.186843 174.528 
L 101.325462 174.528 
L 101.399392 167.2704 
L 101.436357 174.528 
L 101.510287 174.528 
L 101.630424 181.7856 
L 101.667389 181.7856 
L 101.796766 167.2704 
L 101.916903 167.2704 
L 102.000074 181.7856 
L 102.037039 174.528 
L 102.175658 174.528 
L 102.277312 167.2704 
L 102.286553 174.528 
L 102.369724 174.528 
L 102.517584 205.9776 
L 102.665444 205.9776 
L 102.785581 215.6544 
L 102.794822 215.6544 
L 102.914958 222.912 
L 103.035095 215.6544 
L 103.155231 215.6544 
L 103.275367 205.9776 
L 103.506399 205.9776 
L 103.635776 191.4624 
L 103.755912 191.4624 
L 103.857566 205.9776 
L 103.876049 198.72 
L 104.014668 198.72 
L 104.116321 191.4624 
L 104.125563 198.72 
L 104.273423 198.72 
L 104.310388 191.4624 
L 104.347353 205.9776 
L 104.375077 205.9776 
L 104.522937 205.9776 
L 104.652314 191.4624 
L 104.772451 191.4624 
L 104.892587 181.7856 
L 104.957276 181.7856 
L 105.086653 167.2704 
L 105.179066 167.2704 
L 105.299202 157.5936 
L 105.419338 157.5936 
L 105.539475 150.336 
L 105.807471 150.336 
L 105.927607 143.0784 
L 105.955331 143.0784 
L 106.084709 157.5936 
L 106.149398 150.336 
L 106.195604 157.5936 
L 106.297258 157.5936 
L 106.417394 150.336 
L 106.546772 150.336 
L 106.666908 157.5936 
L 106.731597 157.5936 
L 106.851733 174.528 
L 106.925663 174.528 
L 107.055041 191.4624 
L 107.101247 191.4624 
L 107.212142 205.9776 
L 107.221383 198.72 
L 107.452415 198.72 
L 107.581792 181.7856 
L 107.591033 181.7856 
L 107.71117 174.528 
L 107.93296 174.528 
L 107.988407 167.2704 
L 108.00689 181.7856 
L 108.043855 174.528 
L 108.182474 174.528 
L 108.30261 181.7856 
L 108.395023 181.7856 
L 108.515159 174.528 
L 108.552124 174.528 
L 108.681502 157.5936 
L 108.755432 157.5936 
L 108.838603 174.528 
L 108.875568 167.2704 
L 109.078876 167.2704 
L 109.162047 181.7856 
L 109.189771 174.528 
L 109.235977 174.528 
L 109.365355 157.5936 
L 109.467008 157.5936 
L 109.587145 150.336 
L 109.661075 150.336 
L 109.781211 157.5936 
L 109.910589 157.5936 
L 110.058449 198.72 
L 110.178585 198.72 
L 110.298721 205.9776 
L 110.307963 205.9776 
L 110.446581 181.7856 
L 110.520511 181.7856 
L 110.548235 174.528 
L 110.631407 181.7856 
L 110.770025 181.7856 
L 110.862438 191.4624 
L 110.88092 181.7856 
L 110.927127 181.7856 
L 110.945609 174.528 
L 111.038022 181.7856 
L 111.084228 181.7856 
L 111.204364 174.528 
L 111.250571 174.528 
L 111.379948 157.5936 
L 111.407672 157.5936 
L 111.426154 167.2704 
L 111.518567 157.5936 
L 111.601738 157.5936 
L 111.629462 167.2704 
L 111.712633 157.5936 
L 111.823528 157.5936 
L 111.943665 150.336 
L 112.100766 150.336 
L 112.239385 174.528 
L 112.322556 174.528 
L 112.433451 181.7856 
L 112.57207 157.5936 
L 112.590553 157.5936 
L 112.710689 167.2704 
L 112.830825 167.2704 
L 112.950962 157.5936 
L 112.987927 157.5936 
L 113.117304 143.0784 
L 113.283647 143.0784 
L 113.403783 150.336 
L 113.486954 150.336 
L 113.59785 157.5936 
L 113.727227 143.0784 
L 113.74571 143.0784 
L 113.801157 150.336 
L 113.856605 143.0784 
L 114.013706 143.0784 
L 114.124601 150.336 
L 114.244737 143.0784 
L 114.253979 143.0784 
L 114.364874 133.4016 
L 114.48501 150.336 
L 114.512734 150.336 
L 114.549699 143.0784 
L 114.614388 150.336 
L 114.651353 157.5936 
L 114.725283 150.336 
L 114.808454 150.336 
L 114.92859 143.0784 
L 115.085692 143.0784 
L 115.187345 150.336 
L 115.196587 143.0784 
L 115.22431 143.0784 
L 115.298241 150.336 
L 115.335206 143.0784 
L 115.390653 143.0784 
L 115.464583 150.336 
L 115.501548 143.0784 
L 115.510789 143.0784 
L 115.621684 133.4016 
L 115.741821 143.0784 
L 115.760303 143.0784 
L 115.80651 133.4016 
L 115.871198 143.0784 
L 115.898922 143.0784 
L 116.019058 157.5936 
L 116.157677 157.5936 
L 116.277814 174.528 
L 116.434915 174.528 
L 116.573534 198.72 
L 116.675188 198.72 
L 116.795324 205.9776 
L 116.804565 205.9776 
L 116.924701 222.912 
L 116.961666 222.912 
L 117.091044 239.8464 
L 117.155733 239.8464 
L 117.275869 230.1696 
L 117.405247 215.6544 
L 117.432971 215.6544 
L 117.553107 198.72 
L 117.608554 198.72 
L 117.664002 191.4624 
L 117.719449 198.72 
L 117.821103 198.72 
L 117.876551 205.9776 
L 117.931998 198.72 
L 117.959722 198.72 
L 118.042893 181.7856 
L 118.079858 191.4624 
L 118.320131 191.4624 
L 118.440267 198.72 
L 118.652816 198.72 
L 118.772953 191.4624 
L 118.846883 191.4624 
L 118.967019 205.9776 
L 119.068673 205.9776 
L 119.188809 222.912 
L 119.373634 222.912 
L 119.49377 215.6544 
L 119.660113 215.6544 
L 119.761767 222.912 
L 119.771008 215.6544 
L 119.817214 215.6544 
L 119.937351 205.9776 
L 119.974316 205.9776 
L 120.103693 191.4624 
L 120.131417 191.4624 
L 120.251553 181.7856 
L 120.29776 181.7856 
L 120.417896 174.528 
L 120.565756 174.528 
L 120.630445 181.7856 
L 120.676651 174.528 
L 120.981613 174.528 
L 121.120231 198.72 
L 121.166438 198.72 
L 121.314298 230.1696 
L 121.526847 230.1696 
L 121.656224 215.6544 
L 121.794843 215.6544 
L 121.804084 205.9776 
L 121.905738 215.6544 
L 121.961186 215.6544 
L 122.044357 205.9776 
L 122.072081 215.6544 
L 122.293871 215.6544 
L 122.414007 205.9776 
L 122.423248 205.9776 
L 122.552626 191.4624 
L 122.755934 191.4624 
L 122.87607 181.7856 
L 123.09786 181.7856 
L 123.217996 174.528 
L 123.273444 174.528 
L 123.402822 191.4624 
L 123.522958 191.4624 
L 123.643094 174.528 
L 123.698542 174.528 
L 123.818678 181.7856 
L 123.994262 181.7856 
L 124.114398 191.4624 
L 124.216052 191.4624 
L 124.336188 174.528 
L 124.502531 174.528 
L 124.622667 167.2704 
L 124.678115 167.2704 
L 124.798251 174.528 
L 124.825975 174.528 
L 124.946111 167.2704 
L 125.130936 167.2704 
L 125.251073 174.528 
L 125.30652 174.528 
L 125.435898 191.4624 
L 125.509828 191.4624 
L 125.639205 205.9776 
L 125.907202 205.9776 
L 125.962649 198.72 
L 126.018097 205.9776 
L 126.082786 205.9776 
L 126.212163 191.4624 
L 126.378506 191.4624 
L 126.498642 181.7856 
L 126.55409 181.7856 
L 126.664985 198.72 
L 126.674226 191.4624 
L 126.720432 191.4624 
L 126.803604 198.72 
L 126.831327 191.4624 
L 126.886775 191.4624 
L 127.006911 198.72 
L 127.025394 198.72 
L 127.090082 215.6544 
L 127.14553 205.9776 
L 127.256425 205.9776 
L 127.376561 198.72 
L 127.385803 198.72 
L 127.51518 215.6544 
L 127.561386 215.6544 
L 127.681523 205.9776 
L 127.73697 205.9776 
L 127.857107 222.912 
L 127.88483 222.912 
L 128.023449 198.72 
L 128.097379 198.72 
L 128.217516 205.9776 
L 128.263722 205.9776 
L 128.383858 198.72 
L 128.439306 198.72 
L 128.559442 205.9776 
L 128.707302 205.9776 
L 128.83668 191.4624 
L 128.873645 191.4624 
L 128.993781 181.7856 
L 129.178606 181.7856 
L 129.298743 174.528 
L 129.335708 174.528 
L 129.455844 167.2704 
L 129.631428 167.2704 
L 129.751564 157.5936 
L 129.760805 157.5936 
L 129.880942 174.528 
L 130.010319 174.528 
L 130.01956 191.4624 
L 130.121214 174.528 
L 130.158179 174.528 
L 130.278316 181.7856 
L 130.324522 181.7856 
L 130.398452 198.72 
L 130.444658 191.4624 
L 130.500106 191.4624 
L 130.620242 198.72 
L 130.758861 174.528 
L 130.805067 174.528 
L 130.925203 181.7856 
L 130.962169 181.7856 
L 131.082305 174.528 
L 131.202441 181.7856 
L 131.886294 181.7856 
L 132.00643 205.9776 
L 132.117325 205.9776 
L 132.237462 198.72 
L 132.265186 198.72 
L 132.385322 191.4624 
L 132.440769 191.4624 
L 132.560906 174.528 
L 132.773455 174.528 
L 132.893591 181.7856 
L 132.921315 174.528 
L 133.004486 181.7856 
L 133.161587 181.7856 
L 133.281724 198.72 
L 133.337171 198.72 
L 133.420342 205.9776 
L 133.448066 198.72 
L 133.605168 198.72 
L 133.642133 205.9776 
L 133.716063 198.72 
L 133.891646 198.72 
L 133.965577 205.9776 
L 134.002542 198.72 
L 134.325985 198.72 
L 134.446122 191.4624 
L 134.621706 191.4624 
L 134.741842 181.7856 
L 135.01908 181.7856 
L 135.028321 174.528 
L 135.074527 191.4624 
L 135.111492 191.4624 
L 135.194664 191.4624 
L 135.259352 174.528 
L 135.3148 181.7856 
L 135.397971 181.7856 
L 135.518107 174.528 
L 135.527349 174.528 
L 135.53659 181.7856 
L 135.638244 174.528 
L 135.647485 174.528 
L 135.767621 181.7856 
L 135.915481 181.7856 
L 136.044859 167.2704 
L 136.137272 167.2704 
L 136.266649 181.7856 
L 136.469957 181.7856 
L 136.590093 191.4624 
L 136.664023 191.4624 
L 136.710229 198.72 
L 136.774918 191.4624 
L 136.895055 181.7856 
L 137.070638 181.7856 
L 137.190775 174.528 
L 137.366359 174.528 
L 137.486495 167.2704 
L 137.800698 167.2704 
L 137.809939 157.5936 
L 137.911593 167.2704 
L 138.004005 167.2704 
L 138.050211 174.528 
L 138.1149 167.2704 
L 138.26276 167.2704 
L 138.382897 157.5936 
L 138.521515 157.5936 
L 138.650893 181.7856 
L 138.706341 181.7856 
L 138.826477 198.72 
L 138.835718 198.72 
L 138.965096 215.6544 
L 139.075991 215.6544 
L 139.196127 205.9776 
L 139.242333 205.9776 
L 139.371711 191.4624 
L 139.528812 191.4624 
L 139.538054 181.7856 
L 139.639707 191.4624 
L 139.648949 191.4624 
L 139.759844 215.6544 
L 139.778326 205.9776 
L 139.870739 205.9776 
L 139.990875 215.6544 
L 140.1757 215.6544 
L 140.295837 198.72 
L 140.39749 198.72 
L 140.517627 191.4624 
L 140.54535 191.4624 
L 140.554592 198.72 
L 140.656245 191.4624 
L 140.720934 191.4624 
L 140.767141 181.7856 
L 140.831829 191.4624 
L 141.062861 191.4624 
L 141.182997 174.528 
L 141.219962 174.528 
L 141.340098 191.4624 
L 141.460235 181.7856 
L 141.4972 181.7856 
L 141.617336 174.528 
L 141.959263 174.528 
L 142.079399 181.7856 
L 142.125605 181.7856 
L 142.245741 191.4624 
L 142.264224 191.4624 
L 142.38436 198.72 
L 142.421325 198.72 
L 142.513738 205.9776 
L 142.53222 198.72 
L 142.633874 198.72 
L 142.75401 191.4624 
L 142.883388 191.4624 
L 142.901871 198.72 
L 142.994283 191.4624 
L 143.068213 191.4624 
L 143.132902 181.7856 
L 143.179108 191.4624 
L 143.234556 191.4624 
L 143.354692 181.7856 
L 143.447105 181.7856 
L 143.567241 205.9776 
L 143.825996 205.9776 
L 143.946132 215.6544 
L 143.964615 215.6544 
L 144.093993 230.1696 
L 144.361989 230.1696 
L 144.482125 239.8464 
L 144.537573 239.8464 
L 144.676192 264.0384 
L 144.833293 264.0384 
L 144.88874 254.3616 
L 144.925706 271.296 
L 144.934947 271.296 
L 144.962671 271.296 
L 145.092048 254.3616 
L 145.221426 254.3616 
L 145.341562 247.104 
L 145.387768 247.104 
L 145.507905 239.8464 
L 145.554111 239.8464 
L 145.674247 230.1696 
L 145.785142 230.1696 
L 145.905279 222.912 
L 146.025415 222.912 
L 146.154792 205.9776 
L 146.367341 205.9776 
L 146.487478 198.72 
L 146.533684 198.72 
L 146.65382 191.4624 
L 146.931058 191.4624 
L 146.995747 181.7856 
L 147.041953 191.4624 
L 147.254502 191.4624 
L 147.374638 198.72 
L 147.53174 198.72 
L 147.651876 205.9776 
L 147.790495 205.9776 
L 147.82746 198.72 
L 147.90139 205.9776 
L 148.076974 205.9776 
L 148.187869 215.6544 
L 148.215592 205.9776 
L 148.298764 215.6544 
L 148.317246 215.6544 
L 148.437383 198.72 
L 148.483589 198.72 
L 148.603725 191.4624 
L 148.797792 191.4624 
L 148.917928 181.7856 
L 148.982617 181.7856 
L 149.102753 174.528 
L 149.130477 174.528 
L 149.232131 167.2704 
L 149.241372 174.528 
L 149.509368 174.528 
L 149.629505 167.2704 
L 149.869777 167.2704 
L 149.999155 181.7856 
L 150.008396 181.7856 
L 150.128532 198.72 
L 150.25791 198.72 
L 150.378046 191.4624 
L 150.415011 191.4624 
L 150.535148 198.72 
L 150.581354 198.72 
L 150.70149 191.4624 
L 151.098864 191.4624 
L 151.219 181.7856 
L 151.320654 181.7856 
L 151.440791 191.4624 
L 151.496238 191.4624 
L 151.579409 181.7856 
L 151.607133 191.4624 
L 151.754993 191.4624 
L 151.87513 174.528 
L 152.235539 174.528 
L 152.355675 191.4624 
L 152.475811 174.528 
L 152.586706 174.528 
L 152.706843 167.2704 
L 152.956356 167.2704 
L 153.011804 157.5936 
L 153.067252 167.2704 
L 153.298283 167.2704 
L 153.418419 174.528 
L 153.446143 174.528 
L 153.584762 198.72 
L 153.751104 198.72 
L 153.880482 181.7856 
L 153.889723 181.7856 
L 154.00986 174.528 
L 154.129996 181.7856 
L 154.287097 181.7856 
L 154.407234 191.4624 
L 154.425716 191.4624 
L 154.545852 198.72 
L 154.74916 198.72 
L 154.869296 191.4624 
L 154.952468 191.4624 
L 155.072604 181.7856 
L 155.183499 181.7856 
L 155.211223 174.528 
L 155.294394 181.7856 
L 155.331359 181.7856 
L 155.451495 174.528 
L 155.636321 174.528 
L 155.765698 191.4624 
L 155.821146 191.4624 
L 155.941282 198.72 
L 156.015212 198.72 
L 156.116866 205.9776 
L 156.126107 198.72 
L 156.227761 198.72 
L 156.347897 205.9776 
L 156.477275 205.9776 
L 156.606652 191.4624 
L 156.680582 191.4624 
L 156.800719 174.528 
L 156.967061 174.528 
L 157.096439 191.4624 
L 157.10568 191.4624 
L 157.17961 205.9776 
L 157.225817 198.72 
L 157.299747 198.72 
L 157.429124 181.7856 
L 157.512295 181.7856 
L 157.521537 191.4624 
L 157.62319 181.7856 
L 157.697121 181.7856 
L 157.752568 174.528 
L 157.808016 181.7856 
L 157.909669 181.7856 
L 158.039047 167.2704 
L 158.233113 167.2704 
L 158.251596 157.5936 
L 158.344008 167.2704 
L 158.362491 167.2704 
L 158.482627 174.528 
L 158.547316 174.528 
L 158.676694 191.4624 
L 158.824554 191.4624 
L 158.94469 198.72 
L 159.129515 198.72 
L 159.249651 222.912 
L 159.379029 222.912 
L 159.517648 198.72 
L 159.720955 198.72 
L 159.859574 222.912 
L 159.887298 222.912 
L 160.007434 215.6544 
L 160.025917 215.6544 
L 160.146053 222.912 
L 160.229225 222.912 
L 160.349361 230.1696 
L 160.515703 230.1696 
L 160.63584 239.8464 
L 160.876112 239.8464 
L 161.00549 254.3616 
L 161.384381 254.3616 
L 161.504518 264.0384 
L 161.911133 264.0384 
L 162.040511 278.5536 
L 162.179129 278.5536 
L 162.299266 271.296 
L 162.437885 271.296 
L 162.558021 264.0384 
L 163.28808 264.0384 
L 163.408216 254.3616 
L 163.574559 254.3616 
L 163.694695 247.104 
L 163.787108 247.104 
L 163.907244 239.8464 
L 164.572615 239.8464 
L 164.692751 247.104 
L 165.136331 247.104 
L 165.256468 254.3616 
L 165.358121 254.3616 
L 165.478258 264.0384 
L 166.08818 264.0384 
L 166.097422 271.296 
L 166.199076 264.0384 
L 166.273006 264.0384 
L 166.393142 254.3616 
L 166.448589 254.3616 
L 166.568726 264.0384 
L 166.688862 264.0384 
L 166.808998 254.3616 
L 166.929135 254.3616 
L 167.058512 239.8464 
L 167.317267 239.8464 
L 167.437404 230.1696 
L 167.603746 230.1696 
L 167.723883 222.912 
L 167.760848 222.912 
L 167.880984 215.6544 
L 168.213669 215.6544 
L 168.278358 222.912 
L 168.324564 215.6544 
L 168.971452 215.6544 
L 169.091589 205.9776 
L 169.32262 205.9776 
L 169.442756 215.6544 
L 169.609099 215.6544 
L 169.729235 205.9776 
L 170.071162 205.9776 
L 170.191298 198.72 
L 170.246745 198.72 
L 170.376123 215.6544 
L 170.459294 215.6544 
L 170.579431 222.912 
L 170.79198 222.912 
L 170.912116 215.6544 
L 170.958322 215.6544 
L 171.078458 205.9776 
L 171.364937 205.9776 
L 171.485074 215.6544 
L 171.522039 215.6544 
L 171.642175 205.9776 
L 171.716105 205.9776 
L 171.780794 215.6544 
L 171.827 205.9776 
L 171.97486 205.9776 
L 172.094997 222.912 
L 172.399958 222.912 
L 172.529336 205.9776 
L 172.594024 205.9776 
L 172.714161 215.6544 
L 172.945192 215.6544 
L 173.065328 205.9776 
L 173.093052 205.9776 
L 173.213188 198.72 
L 173.481185 198.72 
L 173.601321 191.4624 
L 173.684492 191.4624 
L 173.841594 230.1696 
L 173.878559 230.1696 
L 173.998695 222.912 
L 174.017178 222.912 
L 174.044901 215.6544 
L 174.118831 230.1696 
L 174.18352 230.1696 
L 174.303657 222.912 
L 174.359104 222.912 
L 174.488482 205.9776 
L 174.627101 205.9776 
L 174.747237 198.72 
L 175.190817 198.72 
L 175.310953 191.4624 
L 175.468055 191.4624 
L 175.588191 181.7856 
L 175.717569 181.7856 
L 175.837705 191.4624 
L 175.957841 198.72 
L 176.077978 198.72 
L 176.207355 215.6544 
L 176.235079 215.6544 
L 176.355215 205.9776 
L 176.364457 205.9776 
L 176.484593 198.72 
L 176.54004 198.72 
L 176.660177 205.9776 
L 176.734107 205.9776 
L 176.743348 198.72 
L 176.845002 205.9776 
L 177.076033 205.9776 
L 177.205411 230.1696 
L 177.371753 230.1696 
L 177.49189 222.912 
L 177.676715 222.912 
L 177.796851 215.6544 
L 178.0094 215.6544 
L 178.129536 198.72 
L 178.813389 198.72 
L 178.942767 181.7856 
L 178.998214 181.7856 
L 179.118351 191.4624 
L 179.377106 191.4624 
L 179.497242 198.72 
L 179.580413 198.72 
L 179.70055 191.4624 
L 179.755997 191.4624 
L 179.876134 181.7856 
L 179.968546 181.7856 
L 180.033235 198.72 
L 180.088683 191.4624 
L 180.190336 191.4624 
L 180.319714 205.9776 
L 180.606193 205.9776 
L 180.726329 215.6544 
L 180.8095 222.912 
L 180.837224 215.6544 
L 180.864948 215.6544 
L 180.985084 205.9776 
L 181.068256 205.9776 
L 181.132944 215.6544 
L 181.179151 205.9776 
L 181.317769 205.9776 
L 181.419423 215.6544 
L 181.428665 205.9776 
L 181.437906 205.9776 
L 181.558042 215.6544 
L 181.576525 215.6544 
L 181.678178 222.912 
L 181.68742 215.6544 
L 181.918451 215.6544 
L 182.038587 222.912 
L 182.131 222.912 
L 182.251136 230.1696 
L 182.463685 230.1696 
L 182.583821 239.8464 
L 182.8703 239.8464 
L 182.990437 247.104 
L 182.999678 247.104 
L 183.119814 254.3616 
L 183.646566 254.3616 
L 183.775943 239.8464 
L 183.877597 239.8464 
L 183.997734 230.1696 
L 184.173317 230.1696 
L 184.302695 215.6544 
L 184.469038 215.6544 
L 184.589174 205.9776 
L 185.069719 205.9776 
L 185.189856 198.72 
L 185.467093 198.72 
L 185.596471 181.7856 
L 185.688883 181.7856 
L 185.80902 174.528 
L 186.585285 174.528 
L 186.677698 181.7856 
L 186.69618 174.528 
L 186.788593 174.528 
L 186.890247 167.2704 
L 186.899488 174.528 
L 186.908729 174.528 
L 187.038107 191.4624 
L 187.195208 191.4624 
L 187.315344 198.72 
L 187.537134 198.72 
L 187.666512 215.6544 
L 187.731201 215.6544 
L 187.851337 222.912 
L 188.294917 222.912 
L 188.415054 215.6544 
L 188.803186 215.6544 
L 188.923323 205.9776 
L 189.108148 205.9776 
L 189.228284 215.6544 
L 189.283732 215.6544 
L 189.403868 198.72 
L 189.496281 198.72 
L 189.616417 191.4624 
L 189.85669 191.4624 
L 189.976826 198.72 
L 190.059997 198.72 
L 190.096962 205.9776 
L 190.170892 198.72 
L 190.355717 198.72 
L 190.392682 191.4624 
L 190.466612 198.72 
L 190.771574 198.72 
L 190.854745 205.9776 
L 190.882469 198.72 
L 191.030329 198.72 
L 191.150465 191.4624 
L 191.279843 191.4624 
L 191.399979 198.72 
L 191.436944 198.72 
L 191.557081 191.4624 
L 191.640252 191.4624 
L 191.769629 205.9776 
L 191.972937 205.9776 
L 192.102315 191.4624 
L 192.231692 191.4624 
L 192.351829 181.7856 
L 192.573619 181.7856 
L 192.693755 174.528 
L 192.832374 174.528 
L 192.95251 181.7856 
L 193.146576 181.7856 
L 193.266713 174.528 
L 193.599398 174.528 
L 193.728776 191.4624 
L 193.904359 191.4624 
L 194.024496 181.7856 
L 194.135391 181.7856 
L 194.264768 167.2704 
L 194.458835 167.2704 
L 194.588212 181.7856 
L 194.625177 181.7856 
L 194.754555 205.9776 
L 194.763796 205.9776 
L 194.800761 198.72 
L 194.874691 205.9776 
L 195.096481 205.9776 
L 195.142688 222.912 
L 195.216618 215.6544 
L 195.419925 215.6544 
L 195.540062 198.72 
L 195.650957 198.72 
L 195.771093 205.9776 
L 195.928194 205.9776 
L 196.048331 198.72 
L 196.307086 198.72 
L 196.390257 205.9776 
L 196.417981 198.72 
L 196.528876 198.72 
L 196.649012 191.4624 
L 196.676736 191.4624 
L 196.796872 198.72 
L 196.833837 198.72 
L 196.935491 191.4624 
L 196.944732 198.72 
L 197.027904 198.72 
L 197.14804 205.9776 
L 197.360589 205.9776 
L 197.480725 198.72 
L 197.619344 198.72 
L 197.656309 205.9776 
L 197.730239 198.72 
L 197.767204 198.72 
L 197.887341 191.4624 
L 197.896582 191.4624 
L 197.933547 198.72 
L 198.007477 191.4624 
L 198.062924 191.4624 
L 198.183061 181.7856 
L 198.349403 181.7856 
L 198.46954 174.528 
L 198.478781 174.528 
L 198.608158 157.5936 
L 199.005532 157.5936 
L 199.125669 167.2704 
L 199.181116 174.528 
L 199.236564 167.2704 
L 199.264288 167.2704 
L 199.384424 157.5936 
L 199.680144 157.5936 
L 199.809522 181.7856 
L 199.837245 181.7856 
L 199.957382 191.4624 
L 200.114483 191.4624 
L 200.234619 198.72 
L 200.280826 198.72 
L 200.410203 181.7856 
L 200.437927 181.7856 
L 200.567305 167.2704 
L 200.6782 167.2704 
L 200.798336 174.528 
L 200.918472 174.528 
L 201.057091 198.72 
L 201.232675 198.72 
L 201.352811 205.9776 
L 201.399018 205.9776 
L 201.528395 230.1696 
L 201.556119 230.1696 
L 201.611566 222.912 
L 201.667014 230.1696 
L 201.731703 230.1696 
L 201.851839 222.912 
L 202.064388 222.912 
L 202.193766 205.9776 
L 202.221489 205.9776 
L 202.341626 215.6544 
L 202.544933 215.6544 
L 202.66507 222.912 
L 202.831412 222.912 
L 202.951549 239.8464 
L 202.970031 239.8464 
L 203.090167 247.104 
L 203.663125 247.104 
L 203.783262 254.3616 
L 203.912639 254.3616 
L 204.042017 239.8464 
L 204.06974 239.8464 
L 204.189877 247.104 
L 204.236083 247.104 
L 204.356219 239.8464 
L 204.457873 239.8464 
L 204.578009 230.1696 
L 204.633457 230.1696 
L 204.753593 222.912 
L 205.141726 222.912 
L 205.261862 215.6544 
L 205.289586 215.6544 
L 205.409722 205.9776 
L 205.668478 205.9776 
L 205.705443 215.6544 
L 205.779373 205.9776 
L 206.296883 205.9776 
L 206.417019 215.6544 
L 206.444743 215.6544 
L 206.583362 239.8464 
L 206.962253 239.8464 
L 207.036183 230.1696 
L 207.073148 239.8464 
L 207.119355 239.8464 
L 207.239491 222.912 
L 207.405834 222.912 
L 207.52597 215.6544 
L 207.886379 215.6544 
L 207.923344 222.912 
L 207.997274 215.6544 
L 208.228305 215.6544 
L 208.348442 205.9776 
L 208.653403 205.9776 
L 208.773539 215.6544 
L 208.847469 215.6544 
L 208.939882 205.9776 
L 208.958365 215.6544 
L 209.023053 215.6544 
L 209.14319 198.72 
L 209.235602 198.72 
L 209.355739 191.4624 
L 209.383462 191.4624 
L 209.503599 181.7856 
L 210.067315 181.7856 
L 210.187452 174.528 
L 210.381518 174.528 
L 210.492413 181.7856 
L 210.612549 174.528 
L 210.889787 174.528 
L 210.963717 181.7856 
L 211.000682 174.528 
L 211.074612 174.528 
L 211.213231 198.72 
L 211.314885 198.72 
L 211.435021 205.9776 
L 211.481227 205.9776 
L 211.601364 215.6544 
L 211.7215 205.9776 
L 211.897084 205.9776 
L 212.01722 215.6544 
L 212.16508 215.6544 
L 212.211286 205.9776 
L 212.275975 215.6544 
L 212.322182 215.6544 
L 212.451559 191.4624 
L 212.497765 191.4624 
L 212.617902 181.7856 
L 212.710314 181.7856 
L 212.830451 174.528 
L 212.969069 174.528 
L 213.089206 181.7856 
L 213.26479 181.7856 
L 213.384926 174.528 
L 213.431132 174.528 
L 213.551269 181.7856 
L 213.588234 181.7856 
L 213.70837 174.528 
L 213.828506 174.528 
L 213.948643 181.7856 
L 213.994849 181.7856 
L 214.114985 174.528 
L 214.355258 174.528 
L 214.475394 181.7856 
L 214.558565 181.7856 
L 214.577048 191.4624 
L 214.66946 181.7856 
L 214.687943 181.7856 
L 214.798838 174.528 
L 214.817321 191.4624 
L 214.909733 181.7856 
L 214.928216 181.7856 
L 215.039111 191.4624 
L 215.159247 174.528 
L 215.279383 174.528 
L 215.39952 181.7856 
L 215.630551 181.7856 
L 215.741446 198.72 
L 215.750687 191.4624 
L 215.787652 205.9776 
L 215.870824 198.72 
L 215.907789 198.72 
L 216.046407 174.528 
L 216.111096 174.528 
L 216.231233 181.7856 
L 216.351369 174.528 
L 216.43454 174.528 
L 216.453023 167.2704 
L 216.545435 174.528 
L 216.684054 174.528 
L 216.80419 167.2704 
L 216.896603 167.2704 
L 216.952051 157.5936 
L 217.007498 167.2704 
L 217.127634 167.2704 
L 217.136876 157.5936 
L 217.238529 167.2704 
L 217.377148 167.2704 
L 217.525008 198.72 
L 217.691351 198.72 
L 217.820729 181.7856 
L 217.82997 181.7856 
L 217.9039 198.72 
L 217.950106 191.4624 
L 217.968589 191.4624 
L 218.088725 198.72 
L 218.097966 198.72 
L 218.144172 191.4624 
L 218.208861 198.72 
L 218.218103 198.72 
L 218.301274 191.4624 
L 218.328998 198.72 
L 218.458375 198.72 
L 218.587753 181.7856 
L 218.837267 181.7856 
L 218.966644 167.2704 
L 219.327053 167.2704 
L 219.336294 157.5936 
L 219.419466 181.7856 
L 219.493396 181.7856 
L 219.613532 174.528 
L 220.121801 174.528 
L 220.241937 167.2704 
L 220.417521 167.2704 
L 220.537658 150.336 
L 220.759448 150.336 
L 220.879584 167.2704 
L 220.99972 157.5936 
L 221.07365 157.5936 
L 221.203028 181.7856 
L 221.323164 174.528 
L 221.471024 174.528 
L 221.591161 167.2704 
L 221.785227 167.2704 
L 221.812951 157.5936 
L 221.896122 167.2704 
L 221.933087 167.2704 
L 221.95157 157.5936 
L 221.970052 174.528 
L 222.043982 167.2704 
L 222.136395 167.2704 
L 222.256531 157.5936 
L 222.681629 157.5936 
L 222.801765 167.2704 
L 222.820248 167.2704 
L 222.940384 157.5936 
L 223.032797 157.5936 
L 223.152933 150.336 
L 223.393206 150.336 
L 223.420929 143.0784 
L 223.467136 174.528 
L 223.568789 174.528 
L 223.688926 191.4624 
L 223.882992 191.4624 
L 224.01237 205.9776 
L 224.040093 205.9776 
L 224.16023 222.912 
L 224.409744 222.912 
L 224.548363 247.104 
L 224.862565 247.104 
L 224.982702 254.3616 
L 225.028908 254.3616 
L 225.149044 264.0384 
L 225.352352 264.0384 
L 225.472488 271.296 
L 225.648072 271.296 
L 225.768208 278.5536 
L 225.879103 278.5536 
L 226.008481 264.0384 
L 226.100893 264.0384 
L 226.22103 254.3616 
L 226.285719 254.3616 
L 226.415096 239.8464 
L 226.636886 239.8464 
L 226.757023 230.1696 
L 226.904883 230.1696 
L 227.03426 215.6544 
L 227.043501 215.6544 
L 227.163638 205.9776 
L 227.339222 205.9776 
L 227.459358 198.72 
L 227.662666 198.72 
L 227.782802 191.4624 
L 227.856732 191.4624 
L 227.976868 181.7856 
L 228.115487 181.7856 
L 228.235623 174.528 
L 228.87327 174.528 
L 228.993406 167.2704 
L 229.085819 167.2704 
L 229.150508 157.5936 
L 229.196714 167.2704 
L 229.261403 167.2704 
L 229.39078 181.7856 
L 229.455469 181.7856 
L 229.575605 191.4624 
L 229.594088 191.4624 
L 229.695742 181.7856 
L 229.704983 191.4624 
L 229.806637 191.4624 
L 229.862084 174.528 
L 229.926773 181.7856 
L 229.936014 181.7856 
L 230.056151 191.4624 
L 230.065392 191.4624 
L 230.185528 181.7856 
L 230.240976 181.7856 
L 230.361112 191.4624 
L 230.398077 191.4624 
L 230.518214 181.7856 
L 230.592144 181.7856 
L 230.71228 191.4624 
L 230.832416 191.4624 
L 230.93407 174.528 
L 230.952553 181.7856 
L 231.008 181.7856 
L 231.128136 174.528 
L 231.266755 174.528 
L 231.396133 191.4624 
L 231.479304 191.4624 
L 231.59944 181.7856 
L 231.691853 181.7856 
L 231.811989 191.4624 
L 231.839713 191.4624 
L 231.959849 174.528 
L 232.043021 174.528 
L 232.172398 191.4624 
L 232.560531 191.4624 
L 232.680667 174.528 
L 232.754597 174.528 
L 232.874734 181.7856 
L 233.031835 181.7856 
L 233.161213 205.9776 
L 233.318314 205.9776 
L 233.43845 215.6544 
L 233.456933 215.6544 
L 233.549345 222.912 
L 233.567828 215.6544 
L 233.771135 215.6544 
L 233.891272 198.72 
L 233.928237 198.72 
L 233.974443 215.6544 
L 234.048373 205.9776 
L 234.113062 205.9776 
L 234.233198 198.72 
L 234.270163 198.72 
L 234.3903 191.4624 
L 234.491953 191.4624 
L 234.61209 181.7856 
L 234.658296 181.7856 
L 234.778432 174.528 
L 234.815397 174.528 
L 234.935534 181.7856 
L 235.009464 181.7856 
L 235.138841 167.2704 
L 235.240495 174.528 
L 235.249736 167.2704 
L 235.453044 167.2704 
L 235.57318 157.5936 
L 235.905865 157.5936 
L 235.979796 150.336 
L 236.007519 157.5936 
L 236.035243 174.528 
L 236.127656 167.2704 
L 236.201586 167.2704 
L 236.220068 157.5936 
L 236.275516 174.528 
L 236.303239 174.528 
L 236.321722 174.528 
L 236.340204 167.2704 
L 236.432617 174.528 
L 236.4511 174.528 
L 236.580477 157.5936 
L 236.691372 157.5936 
L 236.811509 167.2704 
L 236.866956 174.528 
L 236.922404 167.2704 
L 237.11647 167.2704 
L 237.199641 157.5936 
L 237.227365 167.2704 
L 237.255089 167.2704 
L 237.375225 174.528 
L 237.597015 174.528 
L 237.726393 157.5936 
L 237.85577 157.5936 
L 237.975907 167.2704 
L 238.031354 167.2704 
L 238.179214 198.72 
L 238.290109 198.72 
L 238.410246 205.9776 
L 238.456452 205.9776 
L 238.58583 181.7856 
L 238.687483 198.72 
L 238.705966 191.4624 
L 238.752172 191.4624 
L 238.872308 181.7856 
L 238.992445 181.7856 
L 239.084857 191.4624 
L 239.10334 181.7856 
L 239.32513 181.7856 
L 239.445266 198.72 
L 239.565403 198.72 
L 239.69478 181.7856 
L 239.824158 181.7856 
L 239.944294 174.528 
L 239.953535 174.528 
L 240.082913 191.4624 
L 240.221532 191.4624 
L 240.350909 205.9776 
L 240.378633 205.9776 
L 240.498769 215.6544 
L 240.572699 215.6544 
L 240.655871 205.9776 
L 240.683595 215.6544 
L 240.692836 222.912 
L 240.757525 205.9776 
L 240.776007 205.9776 
L 240.785248 205.9776 
L 240.831455 198.72 
L 240.896143 205.9776 
L 241.247311 205.9776 
L 241.367447 215.6544 
L 241.422895 205.9776 
L 241.478343 215.6544 
L 241.487584 215.6544 
L 241.60772 222.912 
L 241.737098 205.9776 
L 241.811028 205.9776 
L 241.912682 215.6544 
L 241.921923 205.9776 
L 242.097507 205.9776 
L 242.12523 198.72 
L 242.180678 215.6544 
L 242.189919 215.6544 
L 242.263849 215.6544 
L 242.393227 191.4624 
L 242.596534 191.4624 
L 242.661223 198.72 
L 242.707429 191.4624 
L 242.883013 191.4624 
L 243.00315 198.72 
L 243.086321 198.72 
L 243.141768 191.4624 
L 243.197216 198.72 
L 243.502177 198.72 
L 243.640796 222.912 
L 243.733209 222.912 
L 243.853345 239.8464 
L 243.871828 239.8464 
L 243.991964 247.104 
L 244.047412 247.104 
L 244.167548 254.3616 
L 244.657334 254.3616 
L 244.731264 271.296 
L 244.777471 264.0384 
L 244.897607 247.104 
L 244.953055 247.104 
L 245.073191 239.8464 
L 245.590701 239.8464 
L 245.710838 222.912 
L 245.830974 222.912 
L 245.960351 205.9776 
L 246.450138 205.9776 
L 246.570274 198.72 
L 246.838271 198.72 
L 246.958407 191.4624 
L 246.967648 191.4624 
L 247.087785 181.7856 
L 247.143232 181.7856 
L 247.263368 174.528 
L 247.623777 174.528 
L 247.669984 181.7856 
L 247.734672 174.528 
L 247.956463 174.528 
L 248.076599 167.2704 
L 248.196735 167.2704 
L 248.326113 181.7856 
L 248.344595 181.7856 
L 248.464732 174.528 
L 248.788176 174.528 
L 248.926794 198.72 
L 248.973001 198.72 
L 249.093137 191.4624 
L 249.453546 191.4624 
L 249.573682 181.7856 
L 249.684577 181.7856 
L 249.804714 174.528 
L 250.026504 174.528 
L 250.081951 167.2704 
L 250.109675 181.7856 
L 250.128158 181.7856 
L 250.544014 181.7856 
L 250.599462 191.4624 
L 250.654909 181.7856 
L 250.710357 181.7856 
L 250.775046 174.528 
L 250.821252 181.7856 
L 250.959871 181.7856 
L 251.080007 191.4624 
L 251.421933 191.4624 
L 251.551311 205.9776 
L 251.800825 205.9776 
L 251.967167 264.0384 
L 252.151993 264.0384 
L 252.272129 254.3616 
L 252.318335 254.3616 
L 252.438471 247.104 
L 252.484678 247.104 
L 252.614055 230.1696 
L 252.65102 230.1696 
L 252.761915 222.912 
L 252.882052 230.1696 
L 252.955982 230.1696 
L 253.076118 222.912 
L 253.085359 222.912 
L 253.205496 215.6544 
L 253.288667 215.6544 
L 253.408803 205.9776 
L 253.501216 205.9776 
L 253.621352 198.72 
L 253.649076 198.72 
L 253.769212 191.4624 
L 253.861625 191.4624 
L 253.89859 198.72 
L 253.97252 191.4624 
L 254.508513 191.4624 
L 254.545478 198.72 
L 254.619408 191.4624 
L 254.776509 191.4624 
L 254.896645 181.7856 
L 255.294019 181.7856 
L 255.321743 191.4624 
L 255.404914 181.7856 
L 255.58974 181.7856 
L 255.691393 174.528 
L 255.700635 181.7856 
L 255.793047 181.7856 
L 255.913184 198.72 
L 255.950149 198.72 
L 256.079526 181.7856 
L 256.10725 181.7856 
L 256.227386 174.528 
L 256.273593 174.528 
L 256.393729 181.7856 
L 256.430694 181.7856 
L 256.504624 198.72 
L 256.55083 191.4624 
L 256.661725 191.4624 
L 256.781862 174.528 
L 256.837309 174.528 
L 256.911239 167.2704 
L 256.948204 174.528 
L 257.086823 174.528 
L 257.197718 167.2704 
L 257.317854 174.528 
L 257.391784 174.528 
L 257.521162 191.4624 
L 258.149567 191.4624 
L 258.297427 222.912 
L 258.556183 222.912 
L 258.639354 215.6544 
L 258.667078 222.912 
L 258.713284 222.912 
L 258.83342 215.6544 
L 258.842662 215.6544 
L 258.898109 222.912 
L 258.953557 215.6544 
L 259.073693 205.9776 
L 259.249277 205.9776 
L 259.341689 198.72 
L 259.360172 205.9776 
L 259.443343 205.9776 
L 259.563479 198.72 
L 259.618927 198.72 
L 259.748305 181.7856 
L 259.877682 181.7856 
L 259.997818 191.4624 
L 260.071748 191.4624 
L 260.191885 181.7856 
L 260.22885 181.7856 
L 260.348986 174.528 
L 260.570776 174.528 
L 260.700154 191.4624 
L 260.82029 181.7856 
L 260.848014 181.7856 
L 260.96815 174.528 
L 261.032839 174.528 
L 261.152975 167.2704 
L 261.180699 167.2704 
L 261.208423 157.5936 
L 261.291594 167.2704 
L 261.605797 167.2704 
L 261.744416 191.4624 
L 261.772139 191.4624 
L 261.892276 174.528 
L 261.929241 174.528 
L 262.049377 167.2704 
L 262.114066 167.2704 
L 262.123307 174.528 
L 262.21572 167.2704 
L 262.335856 157.5936 
L 262.409786 157.5936 
L 262.539164 181.7856 
L 262.650059 181.7856 
L 262.770195 191.4624 
L 262.899573 191.4624 
L 263.019709 198.72 
L 263.112122 198.72 
L 263.223017 215.6544 
L 263.232258 205.9776 
L 263.296947 205.9776 
L 263.380118 215.6544 
L 263.407842 205.9776 
L 263.417083 205.9776 
L 263.426324 215.6544 
L 263.500254 198.72 
L 263.518737 198.72 
L 263.611149 198.72 
L 263.731286 191.4624 
L 263.805216 191.4624 
L 263.832939 198.72 
L 263.90687 191.4624 
L 264.017765 174.528 
L 264.027006 181.7856 
L 264.248796 181.7856 
L 264.378174 167.2704 
L 264.590722 167.2704 
L 264.710859 174.528 
L 264.830995 174.528 
L 264.969614 198.72 
L 265.219128 198.72 
L 265.339264 205.9776 
L 265.468642 191.4624 
L 265.690432 191.4624 
L 265.810568 174.528 
L 265.912222 174.528 
L 266.032358 167.2704 
L 266.097047 167.2704 
L 266.226425 181.7856 
L 266.300355 181.7856 
L 266.420491 174.528 
L 266.55911 174.528 
L 266.63304 167.2704 
L 266.670005 174.528 
L 266.679246 174.528 
L 266.799382 181.7856 
L 266.910278 174.528 
L 267.039655 191.4624 
L 267.058138 191.4624 
L 267.178274 198.72 
L 267.344617 198.72 
L 267.473994 215.6544 
L 267.769714 215.6544 
L 267.889851 222.912 
L 267.908333 222.912 
L 268.046952 247.104 
L 268.083917 247.104 
L 268.204053 254.3616 
L 268.305707 254.3616 
L 268.435085 239.8464 
L 268.54598 239.8464 
L 268.666116 230.1696 
L 268.795494 230.1696 
L 268.91563 222.912 
L 268.998801 222.912 
L 269.091214 215.6544 
L 269.109696 222.912 
L 269.192868 222.912 
L 269.313004 215.6544 
L 269.442382 215.6544 
L 269.562518 205.9776 
L 269.756584 205.9776 
L 269.876721 198.72 
L 269.913686 198.72 
L 270.033822 191.4624 
L 270.070787 191.4624 
L 270.190923 181.7856 
L 270.338783 181.7856 
L 270.45892 191.4624 
L 270.505126 191.4624 
L 270.625262 181.7856 
L 270.939465 181.7856 
L 271.059601 198.72 
L 271.152014 198.72 
L 271.244426 205.9776 
L 271.262909 198.72 
L 271.373804 198.72 
L 271.503181 181.7856 
L 271.771178 181.7856 
L 271.891314 191.4624 
L 272.057657 191.4624 
L 272.187034 205.9776 
L 272.214758 205.9776 
L 272.334894 222.912 
L 272.436548 222.912 
L 272.556685 239.8464 
L 272.565926 239.8464 
L 272.686062 247.104 
L 272.796957 247.104 
L 272.917094 239.8464 
L 272.926335 239.8464 
L 273.046471 230.1696 
L 273.129642 230.1696 
L 273.249779 222.912 
L 273.369915 230.1696 
L 273.767289 230.1696 
L 273.887425 222.912 
L 273.896667 222.912 
L 274.026044 205.9776 
L 274.127698 205.9776 
L 274.247834 198.72 
L 275.088789 198.72 
L 275.09803 191.4624 
L 275.199684 198.72 
L 275.347544 198.72 
L 275.46768 191.4624 
L 275.523128 191.4624 
L 275.643264 181.7856 
L 275.83733 181.7856 
L 275.957467 174.528 
L 276.040638 174.528 
L 276.068362 167.2704 
L 276.077603 181.7856 
L 276.142292 181.7856 
L 276.299393 181.7856 
L 276.419529 198.72 
L 276.447253 198.72 
L 276.567389 205.9776 
L 276.946281 205.9776 
L 277.066417 215.6544 
L 277.112624 215.6544 
L 277.23276 205.9776 
L 277.315931 205.9776 
L 277.436067 198.72 
L 277.509998 198.72 
L 277.630134 191.4624 
L 277.639375 191.4624 
L 277.741029 198.72 
L 277.75027 191.4624 
L 277.833441 191.4624 
L 277.953578 181.7856 
L 278.055232 181.7856 
L 278.175368 198.72 
L 278.230815 198.72 
L 278.341711 205.9776 
L 278.471088 191.4624 
L 278.545018 191.4624 
L 278.665154 198.72 
L 278.683637 198.72 
L 278.803773 205.9776 
L 279.090252 205.9776 
L 279.210389 222.912 
L 279.256595 222.912 
L 279.376731 230.1696 
L 279.51535 230.1696 
L 279.635486 222.912 
L 279.690934 222.912 
L 279.755623 230.1696 
L 279.801829 222.912 
L 279.838794 222.912 
L 279.968171 205.9776 
L 280.03286 205.9776 
L 280.125273 222.912 
L 280.152997 215.6544 
L 280.513406 215.6544 
L 280.633542 222.912 
L 280.883056 222.912 
L 281.003192 215.6544 
L 281.372842 215.6544 
L 281.492979 198.72 
L 281.622356 215.6544 
L 281.890353 215.6544 
L 282.010489 205.9776 
L 282.102902 205.9776 
L 282.232279 191.4624 
L 282.352415 191.4624 
L 282.444828 181.7856 
L 282.46331 191.4624 
L 282.500275 191.4624 
L 282.620412 198.72 
L 282.731307 198.72 
L 282.851443 191.4624 
L 282.860684 191.4624 
L 282.980821 181.7856 
L 283.04551 181.7856 
L 283.165646 174.528 
L 283.322747 174.528 
L 283.442884 181.7856 
L 283.673915 181.7856 
L 283.794051 174.528 
L 284.22839 174.528 
L 284.367009 198.72 
L 284.487145 191.4624 
L 284.838313 191.4624 
L 284.884519 181.7856 
L 284.912243 198.72 
L 284.939967 198.72 
L 284.995414 198.72 
L 285.115551 205.9776 
L 285.18024 205.9776 
L 285.300376 215.6544 
L 285.457477 215.6544 
L 285.577614 205.9776 
L 285.633061 205.9776 
L 285.670026 198.72 
L 285.688509 215.6544 
L 285.725474 215.6544 
L 285.817886 215.6544 
L 285.938023 222.912 
L 286.14133 222.912 
L 286.21526 215.6544 
L 286.252225 222.912 
L 286.834424 222.912 
L 286.954561 230.1696 
L 287.065456 230.1696 
L 287.185592 239.8464 
L 287.472071 239.8464 
L 287.592207 247.104 
L 287.656896 247.104 
L 287.795515 271.296 
L 288.017305 271.296 
L 288.109718 247.104 
L 288.146683 254.3616 
L 288.211371 254.3616 
L 288.331508 247.104 
L 289.126256 247.104 
L 289.255633 230.1696 
L 289.440458 230.1696 
L 289.569836 215.6544 
L 289.957969 215.6544 
L 290.078105 222.912 
L 290.179759 222.912 
L 290.299895 215.6544 
L 290.798923 215.6544 
L 290.919059 205.9776 
L 291.131608 205.9776 
L 291.251744 198.72 
L 291.270227 198.72 
L 291.390363 205.9776 
L 291.547465 205.9776 
L 291.667601 198.72 
L 291.889391 198.72 
L 292.009527 191.4624 
L 292.138905 205.9776 
L 292.157387 205.9776 
L 292.277524 198.72 
L 292.591726 198.72 
L 292.711863 205.9776 
L 292.813517 205.9776 
L 292.905929 198.72 
L 292.924412 205.9776 
L 293.109237 205.9776 
L 293.229373 198.72 
L 293.247856 198.72 
L 293.331027 215.6544 
L 293.367992 205.9776 
L 293.543576 205.9776 
L 293.672953 191.4624 
L 293.756125 191.4624 
L 293.876261 181.7856 
L 293.894743 181.7856 
L 294.01488 198.72 
L 294.181222 198.72 
L 294.301359 191.4624 
L 294.467701 191.4624 
L 294.587838 205.9776 
L 294.717215 191.4624 
L 294.735698 191.4624 
L 294.855834 198.72 
L 294.966729 191.4624 
L 295.086865 198.72 
L 295.179278 198.72 
L 295.234726 205.9776 
L 295.290173 198.72 
L 295.336379 198.72 
L 295.456516 205.9776 
L 295.493481 205.9776 
L 295.641341 174.528 
L 295.807683 174.528 
L 295.92782 167.2704 
L 295.964785 167.2704 
L 296.094162 181.7856 
L 296.121886 181.7856 
L 296.242022 174.528 
L 296.74105 174.528 
L 296.861186 181.7856 
L 297.027529 181.7856 
L 297.073735 191.4624 
L 297.138424 181.7856 
L 297.360214 181.7856 
L 297.397179 191.4624 
L 297.443386 174.528 
L 297.461868 174.528 
L 298.007102 174.528 
L 298.13648 191.4624 
L 298.228892 191.4624 
L 298.349029 181.7856 
L 298.413717 181.7856 
L 298.552336 215.6544 
L 298.589301 215.6544 
L 298.709438 205.9776 
L 298.80185 205.9776 
L 298.921986 198.72 
L 299.162259 198.72 
L 299.282395 205.9776 
L 299.411773 205.9776 
L 299.541151 191.4624 
L 299.587357 191.4624 
L 299.707493 174.528 
L 299.818388 174.528 
L 299.938525 181.7856 
L 300.188038 181.7856 
L 300.261968 191.4624 
L 300.298933 181.7856 
L 300.317416 181.7856 
L 300.437552 174.528 
L 300.548447 174.528 
L 300.668584 181.7856 
L 300.797961 181.7856 
L 300.918098 198.72 
L 301.250783 198.72 
L 301.38016 215.6544 
L 301.435608 215.6544 
L 301.537262 205.9776 
L 301.546503 215.6544 
L 301.601951 215.6544 
L 301.703604 205.9776 
L 301.712846 215.6544 
L 301.759052 215.6544 
L 301.879188 198.72 
L 301.916153 198.72 
L 301.953118 205.9776 
L 302.027048 198.72 
L 302.073255 198.72 
L 302.193391 205.9776 
L 302.221115 205.9776 
L 302.350492 191.4624 
L 302.470629 191.4624 
L 302.535317 198.72 
L 302.581524 191.4624 
L 302.70166 191.4624 
L 302.821796 174.528 
L 302.914209 174.528 
L 302.969656 167.2704 
L 303.025104 174.528 
L 303.052828 174.528 
L 303.172964 181.7856 
L 303.2931 181.7856 
L 303.376272 174.528 
L 303.403995 181.7856 
L 303.459443 181.7856 
L 303.579579 174.528 
L 303.653509 174.528 
L 303.745922 181.7856 
L 303.764404 174.528 
L 303.884541 174.528 
L 304.032401 205.9776 
L 304.134055 205.9776 
L 304.263432 230.1696 
L 304.291156 230.1696 
L 304.411292 222.912 
L 304.660806 222.912 
L 304.790184 239.8464 
L 304.817907 239.8464 
L 304.938044 247.104 
L 305.178316 247.104 
L 305.307694 230.1696 
L 305.42783 230.1696 
L 305.557208 215.6544 
L 305.584932 215.6544 
L 305.705068 198.72 
L 305.880652 198.72 
L 306.000788 205.9776 
L 306.037753 205.9776 
L 306.148648 222.912 
L 306.157889 215.6544 
L 306.250302 215.6544 
L 306.30575 205.9776 
L 306.361197 215.6544 
L 306.425886 215.6544 
L 306.546022 205.9776 
L 306.684641 205.9776 
L 306.804777 215.6544 
L 306.989602 215.6544 
L 307.109739 205.9776 
L 307.11898 205.9776 
L 307.239116 198.72 
L 307.728903 198.72 
L 307.85828 181.7856 
L 307.941452 181.7856 
L 308.061588 174.528 
L 308.181724 174.528 
L 308.301861 167.2704 
L 308.338826 174.528 
L 308.412756 167.2704 
L 308.421997 167.2704 
L 308.51441 174.528 
L 308.532892 167.2704 
L 308.606822 167.2704 
L 308.726958 174.528 
L 308.7362 174.528 
L 308.856336 167.2704 
L 309.078126 167.2704 
L 309.198263 174.528 
L 309.32764 174.528 
L 309.457018 191.4624 
L 309.69729 191.4624 
L 309.817427 181.7856 
L 309.983769 181.7856 
L 310.103906 191.4624 
L 310.261007 191.4624 
L 310.381143 181.7856 
L 310.565968 181.7856 
L 310.695346 167.2704 
L 310.713828 167.2704 
L 310.778517 174.528 
L 310.824723 167.2704 
L 310.963342 167.2704 
L 311.083479 174.528 
L 311.175891 174.528 
L 311.305269 191.4624 
L 311.332993 191.4624 
L 311.453129 198.72 
L 311.591748 198.72 
L 311.674919 191.4624 
L 311.702643 198.72 
L 311.721125 198.72 
L 311.795055 205.9776 
L 311.83202 198.72 
L 311.90595 198.72 
L 312.016845 191.4624 
L 312.136982 198.72 
L 312.229394 198.72 
L 312.275601 205.9776 
L 312.340289 198.72 
L 312.432702 198.72 
L 312.552838 191.4624 
L 312.654492 191.4624 
L 312.774628 174.528 
L 312.876282 174.528 
L 312.996418 167.2704 
L 313.329104 167.2704 
L 313.44924 157.5936 
L 313.772684 157.5936 
L 313.902062 181.7856 
L 314.11461 181.7856 
L 314.234747 191.4624 
L 314.290194 191.4624 
L 314.410331 181.7856 
L 314.539708 167.2704 
L 314.807705 167.2704 
L 314.927841 157.5936 
L 314.946323 157.5936 
L 315.06646 167.2704 
L 315.158872 167.2704 
L 315.168114 174.528 
L 315.269767 167.2704 
L 315.36218 167.2704 
L 315.482316 150.336 
L 315.51004 150.336 
L 315.630176 143.0784 
L 315.925896 143.0784 
L 315.972103 157.5936 
L 316.046033 150.336 
L 316.138445 150.336 
L 316.267823 167.2704 
L 316.341753 167.2704 
L 316.461889 174.528 
L 316.498854 174.528 
L 316.628232 191.4624 
L 316.683679 191.4624 
L 316.83154 222.912 
L 317.062571 222.912 
L 317.182707 215.6544 
L 317.191948 215.6544 
L 317.284361 205.9776 
L 317.302844 215.6544 
L 317.367532 215.6544 
L 317.450704 222.912 
L 317.478427 215.6544 
L 317.561599 215.6544 
L 317.626287 205.9776 
L 317.672494 215.6544 
L 317.681735 215.6544 
L 317.801871 198.72 
L 318.005179 198.72 
L 318.134557 181.7856 
L 318.393312 181.7856 
L 318.448759 174.528 
L 318.485724 181.7856 
L 318.578137 191.4624 
L 318.596619 181.7856 
L 318.809168 181.7856 
L 318.818409 191.4624 
L 318.920063 181.7856 
L 318.957028 181.7856 
L 318.993993 174.528 
L 319.067923 181.7856 
L 319.18806 181.7856 
L 319.308196 174.528 
L 319.363644 174.528 
L 319.456056 181.7856 
L 319.474539 174.528 
L 319.751776 174.528 
L 319.871913 167.2704 
L 320.14915 167.2704 
L 320.22308 157.5936 
L 320.260045 167.2704 
L 320.343217 167.2704 
L 320.389423 157.5936 
L 320.454112 167.2704 
L 320.537283 167.2704 
L 320.657419 150.336 
L 320.694384 150.336 
L 320.814521 143.0784 
L 320.943898 143.0784 
L 320.999346 133.4016 
L 321.054793 143.0784 
L 321.091758 143.0784 
L 321.230377 167.2704 
L 321.276583 167.2704 
L 321.285825 157.5936 
L 321.387478 167.2704 
L 321.424443 167.2704 
L 321.54458 174.528 
L 321.553821 174.528 
L 321.636992 181.7856 
L 321.664716 174.528 
L 321.673957 174.528 
L 321.757129 167.2704 
L 321.76637 181.7856 
L 321.775611 181.7856 
L 321.923471 181.7856 
L 322.043608 174.528 
L 322.311604 174.528 
L 322.440982 191.4624 
L 322.542635 191.4624 
L 322.662772 198.72 
L 322.718219 198.72 
L 322.856838 222.912 
L 322.903044 222.912 
L 323.032422 239.8464 
L 323.115593 239.8464 
L 323.244971 254.3616 
L 323.494485 254.3616 
L 323.614621 247.104 
L 323.734757 247.104 
L 323.854894 239.8464 
L 324.04896 239.8464 
L 324.169096 222.912 
L 324.289233 222.912 
L 324.409369 215.6544 
L 324.483299 215.6544 
L 324.603435 205.9776 
L 324.631159 205.9776 
L 324.751295 215.6544 
L 324.871432 205.9776 
L 325.065498 205.9776 
L 325.185634 198.72 
L 325.204117 198.72 
L 325.241082 191.4624 
L 325.315012 198.72 
L 325.407425 198.72 
L 325.416666 205.9776 
L 325.51832 198.72 
L 325.693903 198.72 
L 325.81404 205.9776 
L 325.88797 205.9776 
L 326.008106 198.72 
L 326.146725 198.72 
L 326.276103 181.7856 
L 326.359274 181.7856 
L 326.47941 174.528 
L 326.618029 174.528 
L 326.673477 181.7856 
L 326.728924 174.528 
L 326.738165 174.528 
L 326.858302 167.2704 
L 326.941473 167.2704 
L 327.061609 157.5936 
L 327.089333 157.5936 
L 327.209469 167.2704 
L 327.246434 167.2704 
L 327.366571 174.528 
L 327.385053 174.528 
L 327.422018 167.2704 
L 327.43126 181.7856 
L 327.486707 181.7856 
L 327.634567 181.7856 
L 327.754703 174.528 
L 327.782427 174.528 
L 327.911805 191.4624 
L 327.976494 191.4624 
L 328.09663 198.72 
L 328.124354 198.72 
L 328.235249 215.6544 
L 328.24449 205.9776 
L 328.31842 205.9776 
L 328.438556 198.72 
L 328.512486 198.72 
L 328.641864 215.6544 
L 328.660346 215.6544 
L 328.780483 222.912 
L 328.90986 222.912 
L 329.039238 205.9776 
L 329.214822 205.9776 
L 329.344199 191.4624 
L 329.436612 191.4624 
L 329.445853 198.72 
L 329.547507 191.4624 
L 329.612196 191.4624 
L 329.732332 181.7856 
L 329.815503 181.7856 
L 329.944881 167.2704 
L 330.194395 167.2704 
L 330.314531 150.336 
L 330.416185 150.336 
L 330.554804 174.528 
L 330.60101 174.528 
L 330.684181 167.2704 
L 330.711905 174.528 
L 330.859765 174.528 
L 330.989143 191.4624 
L 331.026108 191.4624 
L 331.146244 198.72 
L 331.229416 198.72 
L 331.331069 191.4624 
L 331.340311 198.72 
L 331.451206 198.72 
L 331.580583 181.7856 
L 331.682237 181.7856 
L 331.802373 174.528 
L 331.913268 174.528 
L 332.042646 191.4624 
L 332.329125 191.4624 
L 332.384572 174.528 
L 332.449261 181.7856 
L 332.504709 181.7856 
L 332.624845 174.528 
L 332.671051 174.528 
L 332.800429 191.4624 
L 332.865118 191.4624 
L 332.985254 198.72 
L 333.077667 198.72 
L 333.197803 205.9776 
L 333.25325 205.9776 
L 333.373387 230.1696 
L 333.493523 230.1696 
L 333.613659 239.8464 
L 334.011033 239.8464 
L 334.149652 264.0384 
L 334.362201 264.0384 
L 334.482337 271.296 
L 334.528544 271.296 
L 334.64868 278.5536 
L 335.009089 278.5536 
L 335.138467 264.0384 
L 335.184673 264.0384 
L 335.304809 247.104 
L 335.341774 247.104 
L 335.461911 239.8464 
L 335.683701 239.8464 
L 335.803837 222.912 
L 336.552379 222.912 
L 336.672515 230.1696 
L 336.737204 230.1696 
L 336.85734 239.8464 
L 337.143819 239.8464 
L 337.180784 247.104 
L 337.254714 239.8464 
L 337.347127 239.8464 
L 337.467263 222.912 
L 337.559676 222.912 
L 337.679812 215.6544 
L 337.809189 215.6544 
L 337.929326 205.9776 
L 337.975532 205.9776 
L 338.095668 198.72 
L 338.262011 198.72 
L 338.382147 205.9776 
L 338.428354 205.9776 
L 338.557731 191.4624 
L 339.047518 191.4624 
L 339.167654 181.7856 
L 339.546545 181.7856 
L 339.666682 174.528 
L 339.768336 174.528 
L 339.888472 167.2704 
L 339.971643 167.2704 
L 339.990126 174.528 
L 340.082538 167.2704 
L 340.193433 167.2704 
L 340.322811 181.7856 
L 340.452188 181.7856 
L 340.572325 174.528 
L 340.673979 174.528 
L 340.794115 167.2704 
L 341.080594 167.2704 
L 341.209971 181.7856 
L 341.246936 181.7856 
L 341.367073 174.528 
L 341.588863 174.528 
L 341.616587 167.2704 
L 341.662793 181.7856 
L 341.690517 181.7856 
L 341.736723 181.7856 
L 341.856859 191.4624 
L 341.949272 191.4624 
L 342.069408 198.72 
L 342.087891 198.72 
L 342.208027 205.9776 
L 342.235751 205.9776 
L 342.37437 181.7856 
L 342.402093 181.7856 
L 342.52223 191.4624 
L 342.586918 191.4624 
L 342.679331 205.9776 
L 342.707055 198.72 
L 342.74402 198.72 
L 342.771744 191.4624 
L 342.836432 205.9776 
L 342.845674 205.9776 
L 343.012016 205.9776 
L 343.132153 198.72 
L 343.233806 198.72 
L 343.363184 181.7856 
L 343.40939 181.7856 
L 343.529527 174.528 
L 343.566492 174.528 
L 343.640422 167.2704 
L 343.677387 174.528 
L 344.130208 174.528 
L 344.278068 205.9776 
L 344.36124 205.9776 
L 344.481376 198.72 
L 344.58303 198.72 
L 344.675442 191.4624 
L 344.693925 198.72 
L 344.703166 198.72 
L 344.832544 181.7856 
L 344.95268 181.7856 
L 345.008127 191.4624 
L 345.063575 181.7856 
L 345.119022 181.7856 
L 345.239159 174.528 
L 345.331571 174.528 
L 345.460949 191.4624 
L 345.479431 191.4624 
L 345.599568 174.528 
L 345.645774 174.528 
L 345.775152 157.5936 
L 345.895288 167.2704 
L 346.311144 167.2704 
L 346.403557 157.5936 
L 346.422039 167.2704 
L 346.782448 167.2704 
L 346.930309 198.72 
L 346.967274 198.72 
L 347.068927 205.9776 
L 347.078169 198.72 
L 347.290717 198.72 
L 347.392371 191.4624 
L 347.401613 198.72 
L 347.466301 198.72 
L 347.586438 191.4624 
L 347.651126 191.4624 
L 347.780504 205.9776 
L 347.854434 205.9776 
L 347.97457 215.6544 
L 348.103948 215.6544 
L 348.224084 198.72 
L 348.316497 198.72 
L 348.436633 205.9776 
L 348.510563 205.9776 
L 348.556769 215.6544 
L 348.612217 205.9776 
L 348.741595 191.4624 
L 348.843248 191.4624 
L 348.963385 174.528 
L 349.194416 174.528 
L 349.314552 167.2704 
L 349.351517 167.2704 
L 349.471654 174.528 
L 349.536343 174.528 
L 349.573308 167.2704 
L 349.647238 174.528 
L 349.933717 174.528 
L 350.053853 167.2704 
L 350.192472 191.4624 
L 350.247919 191.4624 
L 350.368056 181.7856 
L 350.682258 181.7856 
L 350.811636 205.9776 
L 351.024185 205.9776 
L 351.144321 215.6544 
L 351.153562 215.6544 
L 351.236734 205.9776 
L 351.264457 215.6544 
L 351.329146 215.6544 
L 351.449282 222.912 
L 351.50473 222.912 
L 351.624866 230.1696 
L 351.634108 230.1696 
L 351.754244 247.104 
L 352.012999 247.104 
L 352.133135 254.3616 
L 352.142377 254.3616 
L 352.262513 264.0384 
L 352.835471 264.0384 
L 352.964848 278.5536 
L 353.066502 278.5536 
L 353.094226 288.2304 
L 353.094226 288.2304 
" clip-path="url(#p3d436a8fbd)" style="fill: none; stroke-dasharray: 1.5,2.475; stroke-dashoffset: 0; stroke: #ff7f0e; stroke-width: 1.5"/>
   </g>
   <g id="patch_3">
    <path d="M 57.6 307.584 
L 57.6 41.472 
" style="fill: none; stroke: #000000; stroke-width: 0.8; stroke-linejoin: miter; stroke-linecap: square"/>
   </g>
   <g id="patch_4">
    <path d="M 414.72 307.584 
L 414.72 41.472 
" style="fill: none; stroke: #000000; stroke-width: 0.8; stroke-linejoin: miter; stroke-linecap: square"/>
   </g>
   <g id="patch_5">
    <path d="M 57.6 307.584 
L 414.72 307.584 
" style="fill: none; stroke: #000000; stroke-width: 0.8; stroke-linejoin: miter; stroke-linecap: square"/>
   </g>
   <g id="patch_6">
    <path d="M 57.6 41.472 
L 414.72 41.472 
" style="fill: none; stroke: #000000; stroke-width: 0.8; stroke-linejoin: miter; stroke-linecap: square"/>
   </g>
   <g id="text_15">
    <!-- Percentage of Riders Occupied -->
    <g transform="translate(143.879063 -18.2775)scale(0.12 -0.12)">
     <defs>
      <path id="DejaVuSans-50" d="M 1259 4147 
L 1259 2394 
L 2053 2394 
Q 2494 2394 2734 2622 
Q 2975 2850 2975 3272 
Q 2975 3691 2734 3919 
Q 2494 4147 2053 4147 
L 1259 4147 
z
M 628 4666 
L 2053 4666 
Q 2838 4666 3239 4311 
Q 3641 3956 3641 3272 
Q 3641 2581 3239 2228 
Q 2838 1875 2053 1875 
L 1259 1875 
L 1259 0 
L 628 0 
L 628 4666 
z
" transform="scale(0.015625)"/>
      <path id="DejaVuSans-65" d="M 3597 1894 
L 3597 1613 
L 953 1613 
Q 991 1019 1311 708 
Q 1631 397 2203 397 
Q 2534 397 2845 478 
Q 3156 559 3463 722 
L 3463 178 
Q 3153 47 2828 -22 
Q 2503 -91 2169 -91 
Q 1331 -91 842 396 
Q 353 884 353 1716 
Q 353 2575 817 3079 
Q 1281 3584 2069 3584 
Q 2775 3584 3186 3129 
Q 3597 2675 3597 1894 
z
M 3022 2063 
Q 3016 2534 2758 2815 
Q 2500 3097 2075 3097 
Q 1594 3097 1305 2825 
Q 1016 2553 972 2059 
L 3022 2063 
z
" transform="scale(0.015625)"/>
      <path id="DejaVuSans-72" d="M 2631 2963 
Q 2534 3019 2420 3045 
Q 2306 3072 2169 3072 
Q 1681 3072 1420 2755 
Q 1159 2438 1159 1844 
L 1159 0 
L 581 0 
L 581 3500 
L 1159 3500 
L 1159 2956 
Q 1341 3275 1631 3429 
Q 1922 3584 2338 3584 
Q 2397 3584 2469 3576 
Q 2541 3569 2628 3553 
L 2631 2963 
z
" transform="scale(0.015625)"/>
      <path id="DejaVuSans-63" d="M 3122 3366 
L 3122 2828 
Q 2878 2963 2633 3030 
Q 2388 3097 2138 3097 
Q 1578 3097 1268 2742 
Q 959 2388 959 1747 
Q 959 1106 1268 751 
Q 1578 397 2138 397 
Q 2388 397 2633 464 
Q 2878 531 3122 666 
L 3122 134 
Q 2881 22 2623 -34 
Q 2366 -91 2075 -91 
Q 1284 -91 818 406 
Q 353 903 353 1747 
Q 353 2603 823 3093 
Q 1294 3584 2113 3584 
Q 2378 3584 2631 3529 
Q 2884 3475 3122 3366 
z
" transform="scale(0.015625)"/>
      <path id="DejaVuSans-6e" d="M 3513 2113 
L 3513 0 
L 2938 0 
L 2938 2094 
Q 2938 2591 2744 2837 
Q 2550 3084 2163 3084 
Q 1697 3084 1428 2787 
Q 1159 2491 1159 1978 
L 1159 0 
L 581 0 
L 581 3500 
L 1159 3500 
L 1159 2956 
Q 1366 3272 1645 3428 
Q 1925 3584 2291 3584 
Q 2894 3584 3203 3211 
Q 3513 2838 3513 2113 
z
" transform="scale(0.015625)"/>
      <path id="DejaVuSans-74" d="M 1172 4494 
L 1172 3500 
L 2356 3500 
L 2356 3053 
L 1172 3053 
L 1172 1153 
Q 1172 725 1289 603 
Q 1406 481 1766 481 
L 2356 481 
L 2356 0 
L 1766 0 
Q 1100 0 847 248 
Q 594 497 594 1153 
L 594 3053 
L 172 3053 
L 172 3500 
L 594 3500 
L 594 4494 
L 1172 4494 
z
" transform="scale(0.015625)"/>
      <path id="DejaVuSans-61" d="M 2194 1759 
Q 1497 1759 1228 1600 
Q 959 1441 959 1056 
Q 959 750 1161 570 
Q 1363 391 1709 391 
Q 2188 391 2477 730 
Q 2766 1069 2766 1631 
L 2766 1759 
L 2194 1759 
z
M 3341 1997 
L 3341 0 
L 2766 0 
L 2766 531 
Q 2569 213 2275 61 
Q 1981 -91 1556 -91 
Q 1019 -91 701 211 
Q 384 513 384 1019 
Q 384 1609 779 1909 
Q 1175 2209 1959 2209 
L 2766 2209 
L 2766 2266 
Q 2766 2663 2505 2880 
Q 2244 3097 1772 3097 
Q 1472 3097 1187 3025 
Q 903 2953 641 2809 
L 641 3341 
Q 956 3463 1253 3523 
Q 1550 3584 1831 3584 
Q 2591 3584 2966 3190 
Q 3341 2797 3341 1997 
z
" transform="scale(0.015625)"/>
      <path id="DejaVuSans-67" d="M 2906 1791 
Q 2906 2416 2648 2759 
Q 2391 3103 1925 3103 
Q 1463 3103 1205 2759 
Q 947 2416 947 1791 
Q 947 1169 1205 825 
Q 1463 481 1925 481 
Q 2391 481 2648 825 
Q 2906 1169 2906 1791 
z
M 3481 434 
Q 3481 -459 3084 -895 
Q 2688 -1331 1869 -1331 
Q 1566 -1331 1297 -1286 
Q 1028 -1241 775 -1147 
L 775 -588 
Q 1028 -725 1275 -790 
Q 1522 -856 1778 -856 
Q 2344 -856 2625 -561 
Q 2906 -266 2906 331 
L 2906 616 
Q 2728 306 2450 153 
Q 2172 0 1784 0 
Q 1141 0 747 490 
Q 353 981 353 1791 
Q 353 2603 747 3093 
Q 1141 3584 1784 3584 
Q 2172 3584 2450 3431 
Q 2728 3278 2906 2969 
L 2906 3500 
L 3481 3500 
L 3481 434 
z
" transform="scale(0.015625)"/>
      <path id="DejaVuSans-20" transform="scale(0.015625)"/>
      <path id="DejaVuSans-6f" d="M 1959 3097 
Q 1497 3097 1228 2736 
Q 959 2375 959 1747 
Q 959 1119 1226 758 
Q 1494 397 1959 397 
Q 2419 397 2687 759 
Q 2956 1122 2956 1747 
Q 2956 2369 2687 2733 
Q 2419 3097 1959 3097 
z
M 1959 3584 
Q 2709 3584 3137 3096 
Q 3566 2609 3566 1747 
Q 3566 888 3137 398 
Q 2709 -91 1959 -91 
Q 1206 -91 779 398 
Q 353 888 353 1747 
Q 353 2609 779 3096 
Q 1206 3584 1959 3584 
z
" transform="scale(0.015625)"/>
      <path id="DejaVuSans-66" d="M 2375 4863 
L 2375 4384 
L 1825 4384 
Q 1516 4384 1395 4259 
Q 1275 4134 1275 3809 
L 1275 3500 
L 2222 3500 
L 2222 3053 
L 1275 3053 
L 1275 0 
L 697 0 
L 697 3053 
L 147 3053 
L 147 3500 
L 697 3500 
L 697 3744 
Q 697 4328 969 4595 
Q 1241 4863 1831 4863 
L 2375 4863 
z
" transform="scale(0.015625)"/>
      <path id="DejaVuSans-52" d="M 2841 2188 
Q 3044 2119 3236 1894 
Q 3428 1669 3622 1275 
L 4263 0 
L 3584 0 
L 2988 1197 
Q 2756 1666 2539 1819 
Q 2322 1972 1947 1972 
L 1259 1972 
L 1259 0 
L 628 0 
L 628 4666 
L 2053 4666 
Q 2853 4666 3247 4331 
Q 3641 3997 3641 3322 
Q 3641 2881 3436 2590 
Q 3231 2300 2841 2188 
z
M 1259 4147 
L 1259 2491 
L 2053 2491 
Q 2509 2491 2742 2702 
Q 2975 2913 2975 3322 
Q 2975 3731 2742 3939 
Q 2509 4147 2053 4147 
L 1259 4147 
z
" transform="scale(0.015625)"/>
      <path id="DejaVuSans-69" d="M 603 3500 
L 1178 3500 
L 1178 0 
L 603 0 
L 603 3500 
z
M 603 4863 
L 1178 4863 
L 1178 4134 
L 603 4134 
L 603 4863 
z
" transform="scale(0.015625)"/>
      <path id="DejaVuSans-64" d="M 2906 2969 
L 2906 4863 
L 3481 4863 
L 3481 0 
L 2906 0 
L 2906 525 
Q 2725 213 2448 61 
Q 2172 -91 1784 -91 
Q 1150 -91 751 415 
Q 353 922 353 1747 
Q 353 2572 751 3078 
Q 1150 3584 1784 3584 
Q 2172 3584 2448 3432 
Q 2725 3281 2906 2969 
z
M 947 1747 
Q 947 1113 1208 752 
Q 1469 391 1925 391 
Q 2381 391 2643 752 
Q 2906 1113 2906 1747 
Q 2906 2381 2643 2742 
Q 2381 3103 1925 3103 
Q 1469 3103 1208 2742 
Q 947 2381 947 1747 
z
" transform="scale(0.015625)"/>
      <path id="DejaVuSans-73" d="M 2834 3397 
L 2834 2853 
Q 2591 2978 2328 3040 
Q 2066 3103 1784 3103 
Q 1356 3103 1142 2972 
Q 928 2841 928 2578 
Q 928 2378 1081 2264 
Q 1234 2150 1697 2047 
L 1894 2003 
Q 2506 1872 2764 1633 
Q 3022 1394 3022 966 
Q 3022 478 2636 193 
Q 2250 -91 1575 -91 
Q 1294 -91 989 -36 
Q 684 19 347 128 
L 347 722 
Q 666 556 975 473 
Q 1284 391 1588 391 
Q 1994 391 2212 530 
Q 2431 669 2431 922 
Q 2431 1156 2273 1281 
Q 2116 1406 1581 1522 
L 1381 1569 
Q 847 1681 609 1914 
Q 372 2147 372 2553 
Q 372 3047 722 3315 
Q 1072 3584 1716 3584 
Q 2034 3584 2315 3537 
Q 2597 3491 2834 3397 
z
" transform="scale(0.015625)"/>
      <path id="DejaVuSans-4f" d="M 2522 4238 
Q 1834 4238 1429 3725 
Q 1025 3213 1025 2328 
Q 1025 1447 1429 934 
Q 1834 422 2522 422 
Q 3209 422 3611 934 
Q 4013 1447 4013 2328 
Q 4013 3213 3611 3725 
Q 3209 4238 2522 4238 
z
M 2522 4750 
Q 3503 4750 4090 4092 
Q 4678 3434 4678 2328 
Q 4678 1225 4090 567 
Q 3503 -91 2522 -91 
Q 1538 -91 948 565 
Q 359 1222 359 2328 
Q 359 3434 948 4092 
Q 1538 4750 2522 4750 
z
" transform="scale(0.015625)"/>
      <path id="DejaVuSans-75" d="M 544 1381 
L 544 3500 
L 1119 3500 
L 1119 1403 
Q 1119 906 1312 657 
Q 1506 409 1894 409 
Q 2359 409 2629 706 
Q 2900 1003 2900 1516 
L 2900 3500 
L 3475 3500 
L 3475 0 
L 2900 0 
L 2900 538 
Q 2691 219 2414 64 
Q 2138 -91 1772 -91 
Q 1169 -91 856 284 
Q 544 659 544 1381 
z
M 1991 3584 
L 1991 3584 
z
" transform="scale(0.015625)"/>
      <path id="DejaVuSans-70" d="M 1159 525 
L 1159 -1331 
L 581 -1331 
L 581 3500 
L 1159 3500 
L 1159 2969 
Q 1341 3281 1617 3432 
Q 1894 3584 2278 3584 
Q 2916 3584 3314 3078 
Q 3713 2572 3713 1747 
Q 3713 922 3314 415 
Q 2916 -91 2278 -91 
Q 1894 -91 1617 61 
Q 1341 213 1159 525 
z
M 3116 1747 
Q 3116 2381 2855 2742 
Q 2594 3103 2138 3103 
Q 1681 3103 1420 2742 
Q 1159 2381 1159 1747 
Q 1159 1113 1420 752 
Q 1681 391 2138 391 
Q 2594 391 2855 752 
Q 3116 1113 3116 1747 
z
" transform="scale(0.015625)"/>
     </defs>
     <use xlink:href="#DejaVuSans-50"/>
     <use xlink:href="#DejaVuSans-65" x="56.677734"/>
     <use xlink:href="#DejaVuSans-72" x="118.201172"/>
     <use xlink:href="#DejaVuSans-63" x="157.064453"/>
     <use xlink:href="#DejaVuSans-65" x="212.044922"/>
     <use xlink:href="#DejaVuSans-6e" x="273.568359"/>
     <use xlink:href="#DejaVuSans-74" x="336.947266"/>
     <use xlink:href="#DejaVuSans-61" x="376.15625"/>
     <use xlink:href="#DejaVuSans-67" x="437.435547"/>
     <use xlink:href="#DejaVuSans-65" x="500.912109"/>
     <use xlink:href="#DejaVuSans-20" x="562.435547"/>
     <use xlink:href="#DejaVuSans-6f" x="594.222656"/>
     <use xlink:href="#DejaVuSans-66" x="655.404297"/>
     <use xlink:href="#DejaVuSans-20" x="690.609375"/>
     <use xlink:href="#DejaVuSans-52" x="722.396484"/>
     <use xlink:href="#DejaVuSans-69" x="791.878906"/>
     <use xlink:href="#DejaVuSans-64" x="819.662109"/>
     <use xlink:href="#DejaVuSans-65" x="883.138672"/>
     <use xlink:href="#DejaVuSans-72" x="944.662109"/>
     <use xlink:href="#DejaVuSans-73" x="985.775391"/>
     <use xlink:href="#DejaVuSans-20" x="1037.875"/>
     <use xlink:href="#DejaVuSans-4f" x="1069.662109"/>
     <use xlink:href="#DejaVuSans-63" x="1148.373047"/>
     <use xlink:href="#DejaVuSans-63" x="1203.353516"/>
     <use xlink:href="#DejaVuSans-75" x="1258.333984"/>
     <use xlink:href="#DejaVuSans-70" x="1321.712891"/>
     <use xlink:href="#DejaVuSans-69" x="1385.189453"/>
     <use xlink:href="#DejaVuSans-65" x="1412.972656"/>
     <use xlink:href="#DejaVuSans-64" x="1474.496094"/>
    </g>
    <!-- lambda :30 -->
    <g transform="translate(202.11375 -4.840125)scale(0.12 -0.12)">
     <defs>
      <path id="DejaVuSans-6c" d="M 603 4863 
L 1178 4863 
L 1178 0 
L 603 0 
L 603 4863 
z
" transform="scale(0.015625)"/>
      <path id="DejaVuSans-6d" d="M 3328 2828 
Q 3544 3216 3844 3400 
Q 4144 3584 4550 3584 
Q 5097 3584 5394 3201 
Q 5691 2819 5691 2113 
L 5691 0 
L 5113 0 
L 5113 2094 
Q 5113 2597 4934 2840 
Q 4756 3084 4391 3084 
Q 3944 3084 3684 2787 
Q 3425 2491 3425 1978 
L 3425 0 
L 2847 0 
L 2847 2094 
Q 2847 2600 2669 2842 
Q 2491 3084 2119 3084 
Q 1678 3084 1418 2786 
Q 1159 2488 1159 1978 
L 1159 0 
L 581 0 
L 581 3500 
L 1159 3500 
L 1159 2956 
Q 1356 3278 1631 3431 
Q 1906 3584 2284 3584 
Q 2666 3584 2933 3390 
Q 3200 3197 3328 2828 
z
" transform="scale(0.015625)"/>
      <path id="DejaVuSans-62" d="M 3116 1747 
Q 3116 2381 2855 2742 
Q 2594 3103 2138 3103 
Q 1681 3103 1420 2742 
Q 1159 2381 1159 1747 
Q 1159 1113 1420 752 
Q 1681 391 2138 391 
Q 2594 391 2855 752 
Q 3116 1113 3116 1747 
z
M 1159 2969 
Q 1341 3281 1617 3432 
Q 1894 3584 2278 3584 
Q 2916 3584 3314 3078 
Q 3713 2572 3713 1747 
Q 3713 922 3314 415 
Q 2916 -91 2278 -91 
Q 1894 -91 1617 61 
Q 1341 213 1159 525 
L 1159 0 
L 581 0 
L 581 4863 
L 1159 4863 
L 1159 2969 
z
" transform="scale(0.015625)"/>
      <path id="DejaVuSans-3a" d="M 750 794 
L 1409 794 
L 1409 0 
L 750 0 
L 750 794 
z
M 750 3309 
L 1409 3309 
L 1409 2516 
L 750 2516 
L 750 3309 
z
" transform="scale(0.015625)"/>
      <path id="DejaVuSans-33" d="M 2597 2516 
Q 3050 2419 3304 2112 
Q 3559 1806 3559 1356 
Q 3559 666 3084 287 
Q 2609 -91 1734 -91 
Q 1441 -91 1130 -33 
Q 819 25 488 141 
L 488 750 
Q 750 597 1062 519 
Q 1375 441 1716 441 
Q 2309 441 2620 675 
Q 2931 909 2931 1356 
Q 2931 1769 2642 2001 
Q 2353 2234 1838 2234 
L 1294 2234 
L 1294 2753 
L 1863 2753 
Q 2328 2753 2575 2939 
Q 2822 3125 2822 3475 
Q 2822 3834 2567 4026 
Q 2313 4219 1838 4219 
Q 1578 4219 1281 4162 
Q 984 4106 628 3988 
L 628 4550 
Q 988 4650 1302 4700 
Q 1616 4750 1894 4750 
Q 2613 4750 3031 4423 
Q 3450 4097 3450 3541 
Q 3450 3153 3228 2886 
Q 3006 2619 2597 2516 
z
" transform="scale(0.015625)"/>
     </defs>
     <use xlink:href="#DejaVuSans-6c"/>
     <use xlink:href="#DejaVuSans-61" x="27.783203"/>
     <use xlink:href="#DejaVuSans-6d" x="89.0625"/>
     <use xlink:href="#DejaVuSans-62" x="186.474609"/>
     <use xlink:href="#DejaVuSans-64" x="249.951172"/>
     <use xlink:href="#DejaVuSans-61" x="313.427734"/>
     <use xlink:href="#DejaVuSans-20" x="374.707031"/>
     <use xlink:href="#DejaVuSans-3a" x="406.494141"/>
     <use xlink:href="#DejaVuSans-33" x="440.185547"/>
     <use xlink:href="#DejaVuSans-30" x="503.808594"/>
    </g>
    <!-- #Orders per period:5000 -->
    <g transform="translate(160.767188 8.59725)scale(0.12 -0.12)">
     <defs>
      <path id="DejaVuSans-23" d="M 3272 2816 
L 2363 2816 
L 2100 1772 
L 3016 1772 
L 3272 2816 
z
M 2803 4594 
L 2478 3297 
L 3391 3297 
L 3719 4594 
L 4219 4594 
L 3897 3297 
L 4872 3297 
L 4872 2816 
L 3775 2816 
L 3519 1772 
L 4513 1772 
L 4513 1294 
L 3397 1294 
L 3072 0 
L 2572 0 
L 2894 1294 
L 1978 1294 
L 1656 0 
L 1153 0 
L 1478 1294 
L 494 1294 
L 494 1772 
L 1594 1772 
L 1856 2816 
L 850 2816 
L 850 3297 
L 1978 3297 
L 2297 4594 
L 2803 4594 
z
" transform="scale(0.015625)"/>
     </defs>
     <use xlink:href="#DejaVuSans-23"/>
     <use xlink:href="#DejaVuSans-4f" x="83.789062"/>
     <use xlink:href="#DejaVuSans-72" x="162.5"/>
     <use xlink:href="#DejaVuSans-64" x="201.863281"/>
     <use xlink:href="#DejaVuSans-65" x="265.339844"/>
     <use xlink:href="#DejaVuSans-72" x="326.863281"/>
     <use xlink:href="#DejaVuSans-73" x="367.976562"/>
     <use xlink:href="#DejaVuSans-20" x="420.076172"/>
     <use xlink:href="#DejaVuSans-70" x="451.863281"/>
     <use xlink:href="#DejaVuSans-65" x="515.339844"/>
     <use xlink:href="#DejaVuSans-72" x="576.863281"/>
     <use xlink:href="#DejaVuSans-20" x="617.976562"/>
     <use xlink:href="#DejaVuSans-70" x="649.763672"/>
     <use xlink:href="#DejaVuSans-65" x="713.240234"/>
     <use xlink:href="#DejaVuSans-72" x="774.763672"/>
     <use xlink:href="#DejaVuSans-69" x="815.876953"/>
     <use xlink:href="#DejaVuSans-6f" x="843.660156"/>
     <use xlink:href="#DejaVuSans-64" x="904.841797"/>
     <use xlink:href="#DejaVuSans-3a" x="968.318359"/>
     <use xlink:href="#DejaVuSans-35" x="1002.009766"/>
     <use xlink:href="#DejaVuSans-30" x="1065.632812"/>
     <use xlink:href="#DejaVuSans-30" x="1129.255859"/>
     <use xlink:href="#DejaVuSans-30" x="1192.878906"/>
    </g>
    <!--  NUmber of Riders:30 -->
    <g transform="translate(171.37875 22.034625)scale(0.12 -0.12)">
     <defs>
      <path id="DejaVuSans-4e" d="M 628 4666 
L 1478 4666 
L 3547 763 
L 3547 4666 
L 4159 4666 
L 4159 0 
L 3309 0 
L 1241 3903 
L 1241 0 
L 628 0 
L 628 4666 
z
" transform="scale(0.015625)"/>
      <path id="DejaVuSans-55" d="M 556 4666 
L 1191 4666 
L 1191 1831 
Q 1191 1081 1462 751 
Q 1734 422 2344 422 
Q 2950 422 3222 751 
Q 3494 1081 3494 1831 
L 3494 4666 
L 4128 4666 
L 4128 1753 
Q 4128 841 3676 375 
Q 3225 -91 2344 -91 
Q 1459 -91 1007 375 
Q 556 841 556 1753 
L 556 4666 
z
" transform="scale(0.015625)"/>
     </defs>
     <use xlink:href="#DejaVuSans-20"/>
     <use xlink:href="#DejaVuSans-4e" x="31.787109"/>
     <use xlink:href="#DejaVuSans-55" x="106.591797"/>
     <use xlink:href="#DejaVuSans-6d" x="179.785156"/>
     <use xlink:href="#DejaVuSans-62" x="277.197266"/>
     <use xlink:href="#DejaVuSans-65" x="340.673828"/>
     <use xlink:href="#DejaVuSans-72" x="402.197266"/>
     <use xlink:href="#DejaVuSans-20" x="443.310547"/>
     <use xlink:href="#DejaVuSans-6f" x="475.097656"/>
     <use xlink:href="#DejaVuSans-66" x="536.279297"/>
     <use xlink:href="#DejaVuSans-20" x="571.484375"/>
     <use xlink:href="#DejaVuSans-52" x="603.271484"/>
     <use xlink:href="#DejaVuSans-69" x="672.753906"/>
     <use xlink:href="#DejaVuSans-64" x="700.537109"/>
     <use xlink:href="#DejaVuSans-65" x="764.013672"/>
     <use xlink:href="#DejaVuSans-72" x="825.537109"/>
     <use xlink:href="#DejaVuSans-73" x="866.650391"/>
     <use xlink:href="#DejaVuSans-3a" x="918.75"/>
     <use xlink:href="#DejaVuSans-33" x="952.441406"/>
     <use xlink:href="#DejaVuSans-30" x="1016.064453"/>
    </g>
    <!-- Difference in mean=0.576 -->
    <g transform="translate(156.636562 35.472)scale(0.12 -0.12)">
     <defs>
      <path id="DejaVuSans-44" d="M 1259 4147 
L 1259 519 
L 2022 519 
Q 2988 519 3436 956 
Q 3884 1394 3884 2338 
Q 3884 3275 3436 3711 
Q 2988 4147 2022 4147 
L 1259 4147 
z
M 628 4666 
L 1925 4666 
Q 3281 4666 3915 4102 
Q 4550 3538 4550 2338 
Q 4550 1131 3912 565 
Q 3275 0 1925 0 
L 628 0 
L 628 4666 
z
" transform="scale(0.015625)"/>
      <path id="DejaVuSans-3d" d="M 678 2906 
L 4684 2906 
L 4684 2381 
L 678 2381 
L 678 2906 
z
M 678 1631 
L 4684 1631 
L 4684 1100 
L 678 1100 
L 678 1631 
z
" transform="scale(0.015625)"/>
     </defs>
     <use xlink:href="#DejaVuSans-44"/>
     <use xlink:href="#DejaVuSans-69" x="77.001953"/>
     <use xlink:href="#DejaVuSans-66" x="104.785156"/>
     <use xlink:href="#DejaVuSans-66" x="139.990234"/>
     <use xlink:href="#DejaVuSans-65" x="175.195312"/>
     <use xlink:href="#DejaVuSans-72" x="236.71875"/>
     <use xlink:href="#DejaVuSans-65" x="275.582031"/>
     <use xlink:href="#DejaVuSans-6e" x="337.105469"/>
     <use xlink:href="#DejaVuSans-63" x="400.484375"/>
     <use xlink:href="#DejaVuSans-65" x="455.464844"/>
     <use xlink:href="#DejaVuSans-20" x="516.988281"/>
     <use xlink:href="#DejaVuSans-69" x="548.775391"/>
     <use xlink:href="#DejaVuSans-6e" x="576.558594"/>
     <use xlink:href="#DejaVuSans-20" x="639.9375"/>
     <use xlink:href="#DejaVuSans-6d" x="671.724609"/>
     <use xlink:href="#DejaVuSans-65" x="769.136719"/>
     <use xlink:href="#DejaVuSans-61" x="830.660156"/>
     <use xlink:href="#DejaVuSans-6e" x="891.939453"/>
     <use xlink:href="#DejaVuSans-3d" x="955.318359"/>
     <use xlink:href="#DejaVuSans-30" x="1039.107422"/>
     <use xlink:href="#DejaVuSans-2e" x="1102.730469"/>
     <use xlink:href="#DejaVuSans-35" x="1134.517578"/>
     <use xlink:href="#DejaVuSans-37" x="1198.140625"/>
     <use xlink:href="#DejaVuSans-36" x="1261.763672"/>
    </g>
   </g>
   <g id="legend_1">
    <g id="patch_7">
     <path d="M 64.6 302.584 
L 156.384375 302.584 
Q 158.384375 302.584 158.384375 300.584 
L 158.384375 272.22775 
Q 158.384375 270.22775 156.384375 270.22775 
L 64.6 270.22775 
Q 62.6 270.22775 62.6 272.22775 
L 62.6 300.584 
Q 62.6 302.584 64.6 302.584 
z
" style="fill: #ffffff; opacity: 0.8; stroke: #cccccc; stroke-linejoin: miter"/>
    </g>
    <g id="line2d_17">
     <path d="M 66.6 278.326187 
L 76.6 278.326187 
L 86.6 278.326187 
" style="fill: none; stroke-dasharray: 5.55,2.4; stroke-dashoffset: 0; stroke: #1f77b4; stroke-width: 1.5"/>
    </g>
    <g id="text_16">
     <!-- Default -->
     <g transform="translate(94.6 281.826187)scale(0.1 -0.1)">
      <use xlink:href="#DejaVuSans-44"/>
      <use xlink:href="#DejaVuSans-65" x="77.001953"/>
      <use xlink:href="#DejaVuSans-66" x="138.525391"/>
      <use xlink:href="#DejaVuSans-61" x="173.730469"/>
      <use xlink:href="#DejaVuSans-75" x="235.009766"/>
      <use xlink:href="#DejaVuSans-6c" x="298.388672"/>
      <use xlink:href="#DejaVuSans-74" x="326.171875"/>
     </g>
    </g>
    <g id="line2d_18">
     <path d="M 66.6 293.004312 
L 76.6 293.004312 
L 86.6 293.004312 
" style="fill: none; stroke-dasharray: 1.5,2.475; stroke-dashoffset: 0; stroke: #ff7f0e; stroke-width: 1.5"/>
    </g>
    <g id="text_17">
     <!-- Anticipation -->
     <g transform="translate(94.6 296.504312)scale(0.1 -0.1)">
      <defs>
       <path id="DejaVuSans-41" d="M 2188 4044 
L 1331 1722 
L 3047 1722 
L 2188 4044 
z
M 1831 4666 
L 2547 4666 
L 4325 0 
L 3669 0 
L 3244 1197 
L 1141 1197 
L 716 0 
L 50 0 
L 1831 4666 
z
" transform="scale(0.015625)"/>
      </defs>
      <use xlink:href="#DejaVuSans-41"/>
      <use xlink:href="#DejaVuSans-6e" x="68.408203"/>
      <use xlink:href="#DejaVuSans-74" x="131.787109"/>
      <use xlink:href="#DejaVuSans-69" x="170.996094"/>
      <use xlink:href="#DejaVuSans-63" x="198.779297"/>
      <use xlink:href="#DejaVuSans-69" x="253.759766"/>
      <use xlink:href="#DejaVuSans-70" x="281.542969"/>
      <use xlink:href="#DejaVuSans-61" x="345.019531"/>
      <use xlink:href="#DejaVuSans-74" x="406.298828"/>
      <use xlink:href="#DejaVuSans-69" x="445.507812"/>
      <use xlink:href="#DejaVuSans-6f" x="473.291016"/>
      <use xlink:href="#DejaVuSans-6e" x="534.472656"/>
     </g>
    </g>
   </g>
  </g>
 </g>
 <defs>
  <clipPath id="p3d436a8fbd">
   <rect x="57.6" y="41.472" width="357.12" height="266.112"/>
  </clipPath>
 </defs>
</svg>
