<?xml version="1.0" encoding="utf-8" standalone="no"?>
<!DOCTYPE svg PUBLIC "-//W3C//DTD SVG 1.1//EN"
  "http://www.w3.org/Graphics/SVG/1.1/DTD/svg11.dtd">
<svg xmlns:xlink="http://www.w3.org/1999/xlink" width="460.8pt" height="345.6pt" viewBox="0 0 460.8 345.6" xmlns="http://www.w3.org/2000/svg" version="1.1">
 <metadata>
  <rdf:RDF xmlns:dc="http://purl.org/dc/elements/1.1/" xmlns:cc="http://creativecommons.org/ns#" xmlns:rdf="http://www.w3.org/1999/02/22-rdf-syntax-ns#">
   <cc:Work>
    <dc:type rdf:resource="http://purl.org/dc/dcmitype/StillImage"/>
    <dc:date>2022-11-07T15:53:44.868481</dc:date>
    <dc:format>image/svg+xml</dc:format>
    <dc:creator>
     <cc:Agent>
      <dc:title>Matplotlib v3.5.3, https://matplotlib.org/</dc:title>
     </cc:Agent>
    </dc:creator>
   </cc:Work>
  </rdf:RDF>
 </metadata>
 <defs>
  <style type="text/css">*{stroke-linejoin: round; stroke-linecap: butt}</style>
 </defs>
 <g id="figure_1">
  <g id="patch_1">
   <path d="M 0 345.6 
L 460.8 345.6 
L 460.8 0 
L 0 0 
z
" style="fill: #ffffff"/>
  </g>
  <g id="axes_1">
   <g id="patch_2">
    <path d="M 57.6 307.584 
L 414.72 307.584 
L 414.72 41.472 
L 57.6 41.472 
z
" style="fill: #ffffff"/>
   </g>
   <g id="matplotlib.axis_1">
    <g id="xtick_1">
     <g id="line2d_1">
      <defs>
       <path id="m1e7416d7eb" d="M 0 0 
L 0 3.5 
" style="stroke: #000000; stroke-width: 0.8"/>
      </defs>
      <g>
       <use xlink:href="#m1e7416d7eb" x="73.832727" y="307.584" style="stroke: #000000; stroke-width: 0.8"/>
      </g>
     </g>
     <g id="text_1">
      <!-- 0 -->
      <g transform="translate(70.651477 322.182437)scale(0.1 -0.1)">
       <defs>
        <path id="DejaVuSans-30" d="M 2034 4250 
Q 1547 4250 1301 3770 
Q 1056 3291 1056 2328 
Q 1056 1369 1301 889 
Q 1547 409 2034 409 
Q 2525 409 2770 889 
Q 3016 1369 3016 2328 
Q 3016 3291 2770 3770 
Q 2525 4250 2034 4250 
z
M 2034 4750 
Q 2819 4750 3233 4129 
Q 3647 3509 3647 2328 
Q 3647 1150 3233 529 
Q 2819 -91 2034 -91 
Q 1250 -91 836 529 
Q 422 1150 422 2328 
Q 422 3509 836 4129 
Q 1250 4750 2034 4750 
z
" transform="scale(0.015625)"/>
       </defs>
       <use xlink:href="#DejaVuSans-30"/>
      </g>
     </g>
    </g>
    <g id="xtick_2">
     <g id="line2d_2">
      <g>
       <use xlink:href="#m1e7416d7eb" x="114.434847" y="307.584" style="stroke: #000000; stroke-width: 0.8"/>
      </g>
     </g>
     <g id="text_2">
      <!-- 250 -->
      <g transform="translate(104.891097 322.182437)scale(0.1 -0.1)">
       <defs>
        <path id="DejaVuSans-32" d="M 1228 531 
L 3431 531 
L 3431 0 
L 469 0 
L 469 531 
Q 828 903 1448 1529 
Q 2069 2156 2228 2338 
Q 2531 2678 2651 2914 
Q 2772 3150 2772 3378 
Q 2772 3750 2511 3984 
Q 2250 4219 1831 4219 
Q 1534 4219 1204 4116 
Q 875 4013 500 3803 
L 500 4441 
Q 881 4594 1212 4672 
Q 1544 4750 1819 4750 
Q 2544 4750 2975 4387 
Q 3406 4025 3406 3419 
Q 3406 3131 3298 2873 
Q 3191 2616 2906 2266 
Q 2828 2175 2409 1742 
Q 1991 1309 1228 531 
z
" transform="scale(0.015625)"/>
        <path id="DejaVuSans-35" d="M 691 4666 
L 3169 4666 
L 3169 4134 
L 1269 4134 
L 1269 2991 
Q 1406 3038 1543 3061 
Q 1681 3084 1819 3084 
Q 2600 3084 3056 2656 
Q 3513 2228 3513 1497 
Q 3513 744 3044 326 
Q 2575 -91 1722 -91 
Q 1428 -91 1123 -41 
Q 819 9 494 109 
L 494 744 
Q 775 591 1075 516 
Q 1375 441 1709 441 
Q 2250 441 2565 725 
Q 2881 1009 2881 1497 
Q 2881 1984 2565 2268 
Q 2250 2553 1709 2553 
Q 1456 2553 1204 2497 
Q 953 2441 691 2322 
L 691 4666 
z
" transform="scale(0.015625)"/>
       </defs>
       <use xlink:href="#DejaVuSans-32"/>
       <use xlink:href="#DejaVuSans-35" x="63.623047"/>
       <use xlink:href="#DejaVuSans-30" x="127.246094"/>
      </g>
     </g>
    </g>
    <g id="xtick_3">
     <g id="line2d_3">
      <g>
       <use xlink:href="#m1e7416d7eb" x="155.036966" y="307.584" style="stroke: #000000; stroke-width: 0.8"/>
      </g>
     </g>
     <g id="text_3">
      <!-- 500 -->
      <g transform="translate(145.493216 322.182437)scale(0.1 -0.1)">
       <use xlink:href="#DejaVuSans-35"/>
       <use xlink:href="#DejaVuSans-30" x="63.623047"/>
       <use xlink:href="#DejaVuSans-30" x="127.246094"/>
      </g>
     </g>
    </g>
    <g id="xtick_4">
     <g id="line2d_4">
      <g>
       <use xlink:href="#m1e7416d7eb" x="195.639085" y="307.584" style="stroke: #000000; stroke-width: 0.8"/>
      </g>
     </g>
     <g id="text_4">
      <!-- 750 -->
      <g transform="translate(186.095335 322.182437)scale(0.1 -0.1)">
       <defs>
        <path id="DejaVuSans-37" d="M 525 4666 
L 3525 4666 
L 3525 4397 
L 1831 0 
L 1172 0 
L 2766 4134 
L 525 4134 
L 525 4666 
z
" transform="scale(0.015625)"/>
       </defs>
       <use xlink:href="#DejaVuSans-37"/>
       <use xlink:href="#DejaVuSans-35" x="63.623047"/>
       <use xlink:href="#DejaVuSans-30" x="127.246094"/>
      </g>
     </g>
    </g>
    <g id="xtick_5">
     <g id="line2d_5">
      <g>
       <use xlink:href="#m1e7416d7eb" x="236.241204" y="307.584" style="stroke: #000000; stroke-width: 0.8"/>
      </g>
     </g>
     <g id="text_5">
      <!-- 1000 -->
      <g transform="translate(223.516204 322.182437)scale(0.1 -0.1)">
       <defs>
        <path id="DejaVuSans-31" d="M 794 531 
L 1825 531 
L 1825 4091 
L 703 3866 
L 703 4441 
L 1819 4666 
L 2450 4666 
L 2450 531 
L 3481 531 
L 3481 0 
L 794 0 
L 794 531 
z
" transform="scale(0.015625)"/>
       </defs>
       <use xlink:href="#DejaVuSans-31"/>
       <use xlink:href="#DejaVuSans-30" x="63.623047"/>
       <use xlink:href="#DejaVuSans-30" x="127.246094"/>
       <use xlink:href="#DejaVuSans-30" x="190.869141"/>
      </g>
     </g>
    </g>
    <g id="xtick_6">
     <g id="line2d_6">
      <g>
       <use xlink:href="#m1e7416d7eb" x="276.843323" y="307.584" style="stroke: #000000; stroke-width: 0.8"/>
      </g>
     </g>
     <g id="text_6">
      <!-- 1250 -->
      <g transform="translate(264.118323 322.182437)scale(0.1 -0.1)">
       <use xlink:href="#DejaVuSans-31"/>
       <use xlink:href="#DejaVuSans-32" x="63.623047"/>
       <use xlink:href="#DejaVuSans-35" x="127.246094"/>
       <use xlink:href="#DejaVuSans-30" x="190.869141"/>
      </g>
     </g>
    </g>
    <g id="xtick_7">
     <g id="line2d_7">
      <g>
       <use xlink:href="#m1e7416d7eb" x="317.445443" y="307.584" style="stroke: #000000; stroke-width: 0.8"/>
      </g>
     </g>
     <g id="text_7">
      <!-- 1500 -->
      <g transform="translate(304.720443 322.182437)scale(0.1 -0.1)">
       <use xlink:href="#DejaVuSans-31"/>
       <use xlink:href="#DejaVuSans-35" x="63.623047"/>
       <use xlink:href="#DejaVuSans-30" x="127.246094"/>
       <use xlink:href="#DejaVuSans-30" x="190.869141"/>
      </g>
     </g>
    </g>
    <g id="xtick_8">
     <g id="line2d_8">
      <g>
       <use xlink:href="#m1e7416d7eb" x="358.047562" y="307.584" style="stroke: #000000; stroke-width: 0.8"/>
      </g>
     </g>
     <g id="text_8">
      <!-- 1750 -->
      <g transform="translate(345.322562 322.182437)scale(0.1 -0.1)">
       <use xlink:href="#DejaVuSans-31"/>
       <use xlink:href="#DejaVuSans-37" x="63.623047"/>
       <use xlink:href="#DejaVuSans-35" x="127.246094"/>
       <use xlink:href="#DejaVuSans-30" x="190.869141"/>
      </g>
     </g>
    </g>
    <g id="xtick_9">
     <g id="line2d_9">
      <g>
       <use xlink:href="#m1e7416d7eb" x="398.649681" y="307.584" style="stroke: #000000; stroke-width: 0.8"/>
      </g>
     </g>
     <g id="text_9">
      <!-- 2000 -->
      <g transform="translate(385.924681 322.182437)scale(0.1 -0.1)">
       <use xlink:href="#DejaVuSans-32"/>
       <use xlink:href="#DejaVuSans-30" x="63.623047"/>
       <use xlink:href="#DejaVuSans-30" x="127.246094"/>
       <use xlink:href="#DejaVuSans-30" x="190.869141"/>
      </g>
     </g>
    </g>
    <g id="text_10">
     <!-- Number of Orders -->
     <g transform="translate(191.261562 335.860562)scale(0.1 -0.1)">
      <defs>
       <path id="DejaVuSans-4e" d="M 628 4666 
L 1478 4666 
L 3547 763 
L 3547 4666 
L 4159 4666 
L 4159 0 
L 3309 0 
L 1241 3903 
L 1241 0 
L 628 0 
L 628 4666 
z
" transform="scale(0.015625)"/>
       <path id="DejaVuSans-75" d="M 544 1381 
L 544 3500 
L 1119 3500 
L 1119 1403 
Q 1119 906 1312 657 
Q 1506 409 1894 409 
Q 2359 409 2629 706 
Q 2900 1003 2900 1516 
L 2900 3500 
L 3475 3500 
L 3475 0 
L 2900 0 
L 2900 538 
Q 2691 219 2414 64 
Q 2138 -91 1772 -91 
Q 1169 -91 856 284 
Q 544 659 544 1381 
z
M 1991 3584 
L 1991 3584 
z
" transform="scale(0.015625)"/>
       <path id="DejaVuSans-6d" d="M 3328 2828 
Q 3544 3216 3844 3400 
Q 4144 3584 4550 3584 
Q 5097 3584 5394 3201 
Q 5691 2819 5691 2113 
L 5691 0 
L 5113 0 
L 5113 2094 
Q 5113 2597 4934 2840 
Q 4756 3084 4391 3084 
Q 3944 3084 3684 2787 
Q 3425 2491 3425 1978 
L 3425 0 
L 2847 0 
L 2847 2094 
Q 2847 2600 2669 2842 
Q 2491 3084 2119 3084 
Q 1678 3084 1418 2786 
Q 1159 2488 1159 1978 
L 1159 0 
L 581 0 
L 581 3500 
L 1159 3500 
L 1159 2956 
Q 1356 3278 1631 3431 
Q 1906 3584 2284 3584 
Q 2666 3584 2933 3390 
Q 3200 3197 3328 2828 
z
" transform="scale(0.015625)"/>
       <path id="DejaVuSans-62" d="M 3116 1747 
Q 3116 2381 2855 2742 
Q 2594 3103 2138 3103 
Q 1681 3103 1420 2742 
Q 1159 2381 1159 1747 
Q 1159 1113 1420 752 
Q 1681 391 2138 391 
Q 2594 391 2855 752 
Q 3116 1113 3116 1747 
z
M 1159 2969 
Q 1341 3281 1617 3432 
Q 1894 3584 2278 3584 
Q 2916 3584 3314 3078 
Q 3713 2572 3713 1747 
Q 3713 922 3314 415 
Q 2916 -91 2278 -91 
Q 1894 -91 1617 61 
Q 1341 213 1159 525 
L 1159 0 
L 581 0 
L 581 4863 
L 1159 4863 
L 1159 2969 
z
" transform="scale(0.015625)"/>
       <path id="DejaVuSans-65" d="M 3597 1894 
L 3597 1613 
L 953 1613 
Q 991 1019 1311 708 
Q 1631 397 2203 397 
Q 2534 397 2845 478 
Q 3156 559 3463 722 
L 3463 178 
Q 3153 47 2828 -22 
Q 2503 -91 2169 -91 
Q 1331 -91 842 396 
Q 353 884 353 1716 
Q 353 2575 817 3079 
Q 1281 3584 2069 3584 
Q 2775 3584 3186 3129 
Q 3597 2675 3597 1894 
z
M 3022 2063 
Q 3016 2534 2758 2815 
Q 2500 3097 2075 3097 
Q 1594 3097 1305 2825 
Q 1016 2553 972 2059 
L 3022 2063 
z
" transform="scale(0.015625)"/>
       <path id="DejaVuSans-72" d="M 2631 2963 
Q 2534 3019 2420 3045 
Q 2306 3072 2169 3072 
Q 1681 3072 1420 2755 
Q 1159 2438 1159 1844 
L 1159 0 
L 581 0 
L 581 3500 
L 1159 3500 
L 1159 2956 
Q 1341 3275 1631 3429 
Q 1922 3584 2338 3584 
Q 2397 3584 2469 3576 
Q 2541 3569 2628 3553 
L 2631 2963 
z
" transform="scale(0.015625)"/>
       <path id="DejaVuSans-20" transform="scale(0.015625)"/>
       <path id="DejaVuSans-6f" d="M 1959 3097 
Q 1497 3097 1228 2736 
Q 959 2375 959 1747 
Q 959 1119 1226 758 
Q 1494 397 1959 397 
Q 2419 397 2687 759 
Q 2956 1122 2956 1747 
Q 2956 2369 2687 2733 
Q 2419 3097 1959 3097 
z
M 1959 3584 
Q 2709 3584 3137 3096 
Q 3566 2609 3566 1747 
Q 3566 888 3137 398 
Q 2709 -91 1959 -91 
Q 1206 -91 779 398 
Q 353 888 353 1747 
Q 353 2609 779 3096 
Q 1206 3584 1959 3584 
z
" transform="scale(0.015625)"/>
       <path id="DejaVuSans-66" d="M 2375 4863 
L 2375 4384 
L 1825 4384 
Q 1516 4384 1395 4259 
Q 1275 4134 1275 3809 
L 1275 3500 
L 2222 3500 
L 2222 3053 
L 1275 3053 
L 1275 0 
L 697 0 
L 697 3053 
L 147 3053 
L 147 3500 
L 697 3500 
L 697 3744 
Q 697 4328 969 4595 
Q 1241 4863 1831 4863 
L 2375 4863 
z
" transform="scale(0.015625)"/>
       <path id="DejaVuSans-4f" d="M 2522 4238 
Q 1834 4238 1429 3725 
Q 1025 3213 1025 2328 
Q 1025 1447 1429 934 
Q 1834 422 2522 422 
Q 3209 422 3611 934 
Q 4013 1447 4013 2328 
Q 4013 3213 3611 3725 
Q 3209 4238 2522 4238 
z
M 2522 4750 
Q 3503 4750 4090 4092 
Q 4678 3434 4678 2328 
Q 4678 1225 4090 567 
Q 3503 -91 2522 -91 
Q 1538 -91 948 565 
Q 359 1222 359 2328 
Q 359 3434 948 4092 
Q 1538 4750 2522 4750 
z
" transform="scale(0.015625)"/>
       <path id="DejaVuSans-64" d="M 2906 2969 
L 2906 4863 
L 3481 4863 
L 3481 0 
L 2906 0 
L 2906 525 
Q 2725 213 2448 61 
Q 2172 -91 1784 -91 
Q 1150 -91 751 415 
Q 353 922 353 1747 
Q 353 2572 751 3078 
Q 1150 3584 1784 3584 
Q 2172 3584 2448 3432 
Q 2725 3281 2906 2969 
z
M 947 1747 
Q 947 1113 1208 752 
Q 1469 391 1925 391 
Q 2381 391 2643 752 
Q 2906 1113 2906 1747 
Q 2906 2381 2643 2742 
Q 2381 3103 1925 3103 
Q 1469 3103 1208 2742 
Q 947 2381 947 1747 
z
" transform="scale(0.015625)"/>
       <path id="DejaVuSans-73" d="M 2834 3397 
L 2834 2853 
Q 2591 2978 2328 3040 
Q 2066 3103 1784 3103 
Q 1356 3103 1142 2972 
Q 928 2841 928 2578 
Q 928 2378 1081 2264 
Q 1234 2150 1697 2047 
L 1894 2003 
Q 2506 1872 2764 1633 
Q 3022 1394 3022 966 
Q 3022 478 2636 193 
Q 2250 -91 1575 -91 
Q 1294 -91 989 -36 
Q 684 19 347 128 
L 347 722 
Q 666 556 975 473 
Q 1284 391 1588 391 
Q 1994 391 2212 530 
Q 2431 669 2431 922 
Q 2431 1156 2273 1281 
Q 2116 1406 1581 1522 
L 1381 1569 
Q 847 1681 609 1914 
Q 372 2147 372 2553 
Q 372 3047 722 3315 
Q 1072 3584 1716 3584 
Q 2034 3584 2315 3537 
Q 2597 3491 2834 3397 
z
" transform="scale(0.015625)"/>
      </defs>
      <use xlink:href="#DejaVuSans-4e"/>
      <use xlink:href="#DejaVuSans-75" x="74.804688"/>
      <use xlink:href="#DejaVuSans-6d" x="138.183594"/>
      <use xlink:href="#DejaVuSans-62" x="235.595703"/>
      <use xlink:href="#DejaVuSans-65" x="299.072266"/>
      <use xlink:href="#DejaVuSans-72" x="360.595703"/>
      <use xlink:href="#DejaVuSans-20" x="401.708984"/>
      <use xlink:href="#DejaVuSans-6f" x="433.496094"/>
      <use xlink:href="#DejaVuSans-66" x="494.677734"/>
      <use xlink:href="#DejaVuSans-20" x="529.882812"/>
      <use xlink:href="#DejaVuSans-4f" x="561.669922"/>
      <use xlink:href="#DejaVuSans-72" x="640.380859"/>
      <use xlink:href="#DejaVuSans-64" x="679.744141"/>
      <use xlink:href="#DejaVuSans-65" x="743.220703"/>
      <use xlink:href="#DejaVuSans-72" x="804.744141"/>
      <use xlink:href="#DejaVuSans-73" x="845.857422"/>
     </g>
    </g>
   </g>
   <g id="matplotlib.axis_2">
    <g id="ytick_1">
     <g id="line2d_10">
      <defs>
       <path id="m72f594de4e" d="M 0 0 
L -3.5 0 
" style="stroke: #000000; stroke-width: 0.8"/>
      </defs>
      <g>
       <use xlink:href="#m72f594de4e" x="57.6" y="307.584" style="stroke: #000000; stroke-width: 0.8"/>
      </g>
     </g>
     <g id="text_11">
      <!-- 0 -->
      <g transform="translate(44.2375 311.383219)scale(0.1 -0.1)">
       <use xlink:href="#DejaVuSans-30"/>
      </g>
     </g>
    </g>
    <g id="ytick_2">
     <g id="line2d_11">
      <g>
       <use xlink:href="#m72f594de4e" x="57.6" y="254.3616" style="stroke: #000000; stroke-width: 0.8"/>
      </g>
     </g>
     <g id="text_12">
      <!-- 20 -->
      <g transform="translate(37.875 258.160819)scale(0.1 -0.1)">
       <use xlink:href="#DejaVuSans-32"/>
       <use xlink:href="#DejaVuSans-30" x="63.623047"/>
      </g>
     </g>
    </g>
    <g id="ytick_3">
     <g id="line2d_12">
      <g>
       <use xlink:href="#m72f594de4e" x="57.6" y="201.1392" style="stroke: #000000; stroke-width: 0.8"/>
      </g>
     </g>
     <g id="text_13">
      <!-- 40 -->
      <g transform="translate(37.875 204.938419)scale(0.1 -0.1)">
       <defs>
        <path id="DejaVuSans-34" d="M 2419 4116 
L 825 1625 
L 2419 1625 
L 2419 4116 
z
M 2253 4666 
L 3047 4666 
L 3047 1625 
L 3713 1625 
L 3713 1100 
L 3047 1100 
L 3047 0 
L 2419 0 
L 2419 1100 
L 313 1100 
L 313 1709 
L 2253 4666 
z
" transform="scale(0.015625)"/>
       </defs>
       <use xlink:href="#DejaVuSans-34"/>
       <use xlink:href="#DejaVuSans-30" x="63.623047"/>
      </g>
     </g>
    </g>
    <g id="ytick_4">
     <g id="line2d_13">
      <g>
       <use xlink:href="#m72f594de4e" x="57.6" y="147.9168" style="stroke: #000000; stroke-width: 0.8"/>
      </g>
     </g>
     <g id="text_14">
      <!-- 60 -->
      <g transform="translate(37.875 151.716019)scale(0.1 -0.1)">
       <defs>
        <path id="DejaVuSans-36" d="M 2113 2584 
Q 1688 2584 1439 2293 
Q 1191 2003 1191 1497 
Q 1191 994 1439 701 
Q 1688 409 2113 409 
Q 2538 409 2786 701 
Q 3034 994 3034 1497 
Q 3034 2003 2786 2293 
Q 2538 2584 2113 2584 
z
M 3366 4563 
L 3366 3988 
Q 3128 4100 2886 4159 
Q 2644 4219 2406 4219 
Q 1781 4219 1451 3797 
Q 1122 3375 1075 2522 
Q 1259 2794 1537 2939 
Q 1816 3084 2150 3084 
Q 2853 3084 3261 2657 
Q 3669 2231 3669 1497 
Q 3669 778 3244 343 
Q 2819 -91 2113 -91 
Q 1303 -91 875 529 
Q 447 1150 447 2328 
Q 447 3434 972 4092 
Q 1497 4750 2381 4750 
Q 2619 4750 2861 4703 
Q 3103 4656 3366 4563 
z
" transform="scale(0.015625)"/>
       </defs>
       <use xlink:href="#DejaVuSans-36"/>
       <use xlink:href="#DejaVuSans-30" x="63.623047"/>
      </g>
     </g>
    </g>
    <g id="ytick_5">
     <g id="line2d_14">
      <g>
       <use xlink:href="#m72f594de4e" x="57.6" y="94.6944" style="stroke: #000000; stroke-width: 0.8"/>
      </g>
     </g>
     <g id="text_15">
      <!-- 80 -->
      <g transform="translate(37.875 98.493619)scale(0.1 -0.1)">
       <defs>
        <path id="DejaVuSans-38" d="M 2034 2216 
Q 1584 2216 1326 1975 
Q 1069 1734 1069 1313 
Q 1069 891 1326 650 
Q 1584 409 2034 409 
Q 2484 409 2743 651 
Q 3003 894 3003 1313 
Q 3003 1734 2745 1975 
Q 2488 2216 2034 2216 
z
M 1403 2484 
Q 997 2584 770 2862 
Q 544 3141 544 3541 
Q 544 4100 942 4425 
Q 1341 4750 2034 4750 
Q 2731 4750 3128 4425 
Q 3525 4100 3525 3541 
Q 3525 3141 3298 2862 
Q 3072 2584 2669 2484 
Q 3125 2378 3379 2068 
Q 3634 1759 3634 1313 
Q 3634 634 3220 271 
Q 2806 -91 2034 -91 
Q 1263 -91 848 271 
Q 434 634 434 1313 
Q 434 1759 690 2068 
Q 947 2378 1403 2484 
z
M 1172 3481 
Q 1172 3119 1398 2916 
Q 1625 2713 2034 2713 
Q 2441 2713 2670 2916 
Q 2900 3119 2900 3481 
Q 2900 3844 2670 4047 
Q 2441 4250 2034 4250 
Q 1625 4250 1398 4047 
Q 1172 3844 1172 3481 
z
" transform="scale(0.015625)"/>
       </defs>
       <use xlink:href="#DejaVuSans-38"/>
       <use xlink:href="#DejaVuSans-30" x="63.623047"/>
      </g>
     </g>
    </g>
    <g id="ytick_6">
     <g id="line2d_15">
      <g>
       <use xlink:href="#m72f594de4e" x="57.6" y="41.472" style="stroke: #000000; stroke-width: 0.8"/>
      </g>
     </g>
     <g id="text_16">
      <!-- 100 -->
      <g transform="translate(31.5125 45.271219)scale(0.1 -0.1)">
       <use xlink:href="#DejaVuSans-31"/>
       <use xlink:href="#DejaVuSans-30" x="63.623047"/>
       <use xlink:href="#DejaVuSans-30" x="127.246094"/>
      </g>
     </g>
    </g>
    <g id="text_17">
     <!-- Waiting Time/s -->
     <g transform="translate(25.432812 211.410031)rotate(-90)scale(0.1 -0.1)">
      <defs>
       <path id="DejaVuSans-57" d="M 213 4666 
L 850 4666 
L 1831 722 
L 2809 4666 
L 3519 4666 
L 4500 722 
L 5478 4666 
L 6119 4666 
L 4947 0 
L 4153 0 
L 3169 4050 
L 2175 0 
L 1381 0 
L 213 4666 
z
" transform="scale(0.015625)"/>
       <path id="DejaVuSans-61" d="M 2194 1759 
Q 1497 1759 1228 1600 
Q 959 1441 959 1056 
Q 959 750 1161 570 
Q 1363 391 1709 391 
Q 2188 391 2477 730 
Q 2766 1069 2766 1631 
L 2766 1759 
L 2194 1759 
z
M 3341 1997 
L 3341 0 
L 2766 0 
L 2766 531 
Q 2569 213 2275 61 
Q 1981 -91 1556 -91 
Q 1019 -91 701 211 
Q 384 513 384 1019 
Q 384 1609 779 1909 
Q 1175 2209 1959 2209 
L 2766 2209 
L 2766 2266 
Q 2766 2663 2505 2880 
Q 2244 3097 1772 3097 
Q 1472 3097 1187 3025 
Q 903 2953 641 2809 
L 641 3341 
Q 956 3463 1253 3523 
Q 1550 3584 1831 3584 
Q 2591 3584 2966 3190 
Q 3341 2797 3341 1997 
z
" transform="scale(0.015625)"/>
       <path id="DejaVuSans-69" d="M 603 3500 
L 1178 3500 
L 1178 0 
L 603 0 
L 603 3500 
z
M 603 4863 
L 1178 4863 
L 1178 4134 
L 603 4134 
L 603 4863 
z
" transform="scale(0.015625)"/>
       <path id="DejaVuSans-74" d="M 1172 4494 
L 1172 3500 
L 2356 3500 
L 2356 3053 
L 1172 3053 
L 1172 1153 
Q 1172 725 1289 603 
Q 1406 481 1766 481 
L 2356 481 
L 2356 0 
L 1766 0 
Q 1100 0 847 248 
Q 594 497 594 1153 
L 594 3053 
L 172 3053 
L 172 3500 
L 594 3500 
L 594 4494 
L 1172 4494 
z
" transform="scale(0.015625)"/>
       <path id="DejaVuSans-6e" d="M 3513 2113 
L 3513 0 
L 2938 0 
L 2938 2094 
Q 2938 2591 2744 2837 
Q 2550 3084 2163 3084 
Q 1697 3084 1428 2787 
Q 1159 2491 1159 1978 
L 1159 0 
L 581 0 
L 581 3500 
L 1159 3500 
L 1159 2956 
Q 1366 3272 1645 3428 
Q 1925 3584 2291 3584 
Q 2894 3584 3203 3211 
Q 3513 2838 3513 2113 
z
" transform="scale(0.015625)"/>
       <path id="DejaVuSans-67" d="M 2906 1791 
Q 2906 2416 2648 2759 
Q 2391 3103 1925 3103 
Q 1463 3103 1205 2759 
Q 947 2416 947 1791 
Q 947 1169 1205 825 
Q 1463 481 1925 481 
Q 2391 481 2648 825 
Q 2906 1169 2906 1791 
z
M 3481 434 
Q 3481 -459 3084 -895 
Q 2688 -1331 1869 -1331 
Q 1566 -1331 1297 -1286 
Q 1028 -1241 775 -1147 
L 775 -588 
Q 1028 -725 1275 -790 
Q 1522 -856 1778 -856 
Q 2344 -856 2625 -561 
Q 2906 -266 2906 331 
L 2906 616 
Q 2728 306 2450 153 
Q 2172 0 1784 0 
Q 1141 0 747 490 
Q 353 981 353 1791 
Q 353 2603 747 3093 
Q 1141 3584 1784 3584 
Q 2172 3584 2450 3431 
Q 2728 3278 2906 2969 
L 2906 3500 
L 3481 3500 
L 3481 434 
z
" transform="scale(0.015625)"/>
       <path id="DejaVuSans-54" d="M -19 4666 
L 3928 4666 
L 3928 4134 
L 2272 4134 
L 2272 0 
L 1638 0 
L 1638 4134 
L -19 4134 
L -19 4666 
z
" transform="scale(0.015625)"/>
       <path id="DejaVuSans-2f" d="M 1625 4666 
L 2156 4666 
L 531 -594 
L 0 -594 
L 1625 4666 
z
" transform="scale(0.015625)"/>
      </defs>
      <use xlink:href="#DejaVuSans-57"/>
      <use xlink:href="#DejaVuSans-61" x="92.501953"/>
      <use xlink:href="#DejaVuSans-69" x="153.78125"/>
      <use xlink:href="#DejaVuSans-74" x="181.564453"/>
      <use xlink:href="#DejaVuSans-69" x="220.773438"/>
      <use xlink:href="#DejaVuSans-6e" x="248.556641"/>
      <use xlink:href="#DejaVuSans-67" x="311.935547"/>
      <use xlink:href="#DejaVuSans-20" x="375.412109"/>
      <use xlink:href="#DejaVuSans-54" x="407.199219"/>
      <use xlink:href="#DejaVuSans-69" x="465.158203"/>
      <use xlink:href="#DejaVuSans-6d" x="492.941406"/>
      <use xlink:href="#DejaVuSans-65" x="590.353516"/>
      <use xlink:href="#DejaVuSans-2f" x="651.876953"/>
      <use xlink:href="#DejaVuSans-73" x="685.568359"/>
     </g>
    </g>
   </g>
   <g id="line2d_16">
    <path d="M 73.832727 299.278772 
L 74.157544 291.588862 
L 74.319953 292.388099 
L 74.482361 288.978454 
L 74.64477 288.154455 
L 74.807178 286.561334 
L 74.969587 286.205365 
L 75.131995 284.632362 
L 75.294404 285.787854 
L 75.456812 285.571886 
L 75.619221 285.778327 
L 75.944037 283.648449 
L 76.106446 283.952245 
L 76.268854 284.543175 
L 76.431263 283.979624 
L 76.593671 284.582573 
L 76.75608 283.731887 
L 76.918488 283.961747 
L 77.568122 282.448713 
L 77.730531 281.362666 
L 77.892939 281.635158 
L 78.217756 281.352229 
L 78.380165 281.609317 
L 78.704982 282.644536 
L 78.86739 282.309023 
L 79.029799 281.461812 
L 79.192207 281.668946 
L 79.354615 281.506131 
L 79.841841 279.917017 
L 80.004249 279.510173 
L 80.329066 280.117091 
L 80.491475 280.181547 
L 80.653883 280.068629 
L 80.816292 280.391758 
L 81.141109 279.832807 
L 81.303517 280.004861 
L 81.628334 279.648111 
L 81.953151 279.725306 
L 82.277968 278.934562 
L 82.440377 279.111187 
L 82.602785 279.027485 
L 82.927602 278.649034 
L 83.252419 279.017622 
L 83.577236 279.229012 
L 83.739644 279.498858 
L 83.902053 279.540167 
L 84.064461 279.709441 
L 84.22687 279.616718 
L 84.389278 279.701765 
L 84.551687 279.413107 
L 84.714095 279.453713 
L 84.876504 279.215261 
L 85.038912 279.441189 
L 85.363729 279.206363 
L 85.688546 279.288979 
L 85.850955 279.144351 
L 86.013363 279.353043 
L 86.175772 279.203669 
L 86.33818 279.211366 
L 86.500588 279.379237 
L 86.662997 279.210869 
L 86.987814 279.457087 
L 87.150222 279.29943 
L 87.637448 279.537184 
L 87.962265 279.291918 
L 88.124673 279.471889 
L 88.936716 278.932819 
L 89.099124 278.689851 
L 89.261533 278.788114 
L 89.58635 278.615334 
L 89.748758 278.816025 
L 90.723209 278.695939 
L 91.048026 278.759137 
L 91.535251 278.60946 
L 91.69766 278.458614 
L 92.022477 278.702932 
L 92.347294 278.532192 
L 92.509702 278.640428 
L 93.80897 278.258846 
L 94.133787 278.439264 
L 94.296195 278.314716 
L 94.783421 278.411906 
L 95.595463 278.10866 
L 95.757872 278.246462 
L 96.245097 278.056863 
L 96.569914 278.119547 
L 97.381956 278.153238 
L 98.03159 278.023192 
L 98.681224 278.322332 
L 98.843633 278.413012 
L 99.330858 278.411451 
L 99.818084 278.634635 
L 100.142901 278.412498 
L 100.467717 278.538059 
L 100.630126 278.463849 
L 100.792534 278.55473 
L 101.27976 278.386714 
L 102.091802 278.410869 
L 102.416619 278.30208 
L 102.903845 278.437647 
L 103.066253 278.472231 
L 103.39107 278.305572 
L 103.715887 278.361862 
L 104.040704 278.354351 
L 104.365521 278.458369 
L 104.852746 278.369611 
L 105.015155 278.445483 
L 105.339972 278.309421 
L 105.664789 278.414579 
L 105.989606 278.396575 
L 106.314423 278.449659 
L 107.451282 278.393987 
L 107.61369 278.248382 
L 107.938507 278.303692 
L 112.648353 277.034149 
L 112.810762 277.060418 
L 113.135579 276.84645 
L 117.683016 276.664419 
L 118.007833 276.630652 
L 118.657467 276.642635 
L 118.982284 276.550981 
L 119.631918 276.37673 
L 120.119143 276.441918 
L 120.44396 276.332431 
L 121.743228 276.316274 
L 121.905636 276.241141 
L 122.392862 276.37422 
L 123.367313 276.301834 
L 124.341764 276.302038 
L 124.828989 276.284887 
L 124.991398 276.337215 
L 125.316214 276.275251 
L 126.615482 276.319692 
L 126.777891 276.223904 
L 127.427525 276.321479 
L 128.239567 276.29943 
L 128.401976 276.364897 
L 128.564384 276.228324 
L 129.214018 276.216739 
L 129.701243 276.107932 
L 131.16292 276.233907 
L 132.462187 276.010931 
L 133.111821 276.019604 
L 133.599047 275.986968 
L 144.805232 275.687597 
L 145.454866 275.720511 
L 146.266908 275.724946 
L 148.378218 275.669572 
L 149.027852 275.680455 
L 153.575289 275.562649 
L 154.062515 275.507302 
L 159.097178 275.535195 
L 160.071629 275.36877 
L 161.370896 275.343415 
L 164.294249 275.232532 
L 164.781474 275.155439 
L 165.2687 275.159348 
L 165.918334 275.163414 
L 166.243151 275.074312 
L 173.064307 275.023606 
L 174.201166 275.075775 
L 174.688391 275.115831 
L 177.124519 275.077099 
L 177.936561 275.184151 
L 182.971224 275.018761 
L 184.108083 275.051837 
L 188.168295 274.944502 
L 189.142746 274.952727 
L 189.954788 274.945109 
L 190.604422 274.949855 
L 192.066099 274.952884 
L 193.040549 274.925782 
L 193.852592 274.959893 
L 196.938353 275.092372 
L 197.587987 275.118849 
L 198.237621 275.133877 
L 199.212071 275.073654 
L 202.460241 275.119733 
L 211.555116 274.921278 
L 213.016792 274.860006 
L 213.504017 274.807134 
L 215.452919 274.73158 
L 216.264962 274.742298 
L 217.239412 274.737388 
L 220.325173 274.641448 
L 221.949258 274.583184 
L 230.069682 274.150588 
L 232.180992 274.13445 
L 237.215655 274.013418 
L 239.002148 274.030009 
L 239.651782 274.036675 
L 241.600684 273.983744 
L 251.994827 274.161836 
L 253.294094 274.186119 
L 254.593362 274.233158 
L 261.25211 274.158258 
L 266.936406 274.155174 
L 268.885308 274.090185 
L 271.483844 274.006846 
L 272.783112 274.029004 
L 274.407196 273.983046 
L 276.680915 274.027085 
L 278.467408 274.042716 
L 280.41631 273.96929 
L 291.622495 274.053342 
L 293.733805 274.041065 
L 296.657158 274.050436 
L 297.956425 274.041093 
L 300.067736 274.057093 
L 302.82868 274.040428 
L 307.700934 273.955246 
L 308.837793 273.935471 
L 314.684499 273.811178 
L 316.308583 273.806876 
L 328.001994 273.5647 
L 329.46367 273.535815 
L 330.762938 273.531729 
L 333.523882 273.515512 
L 342.456348 273.558693 
L 347.653419 273.469921 
L 370.228198 273.385073 
L 375.912494 273.3267 
L 378.023805 273.3138 
L 378.835847 273.306017 
L 380.947157 273.32481 
L 386.144228 273.301191 
L 388.09313 273.321326 
L 398.487273 273.053288 
L 398.487273 273.053288 
" clip-path="url(#p3c982371af)" style="fill: none; stroke-dasharray: 2,3.3; stroke-dashoffset: 0; stroke: #0000ff; stroke-width: 2"/>
   </g>
   <g id="line2d_17">
    <path d="M 73.832727 299.278772 
L 74.157544 291.588862 
L 74.319953 292.388099 
L 74.64477 286.98248 
L 74.807178 286.484925 
L 74.969587 286.419163 
L 75.131995 286.118543 
L 75.294404 284.711523 
L 75.456812 285.19819 
L 75.619221 283.810066 
L 75.781629 284.277623 
L 75.944037 283.486197 
L 76.268854 284.485005 
L 76.593671 283.063469 
L 76.75608 283.340607 
L 76.918488 282.961178 
L 77.080897 282.945913 
L 77.243305 282.377697 
L 77.568122 283.002273 
L 77.730531 282.455083 
L 77.892939 281.410563 
L 78.055348 281.398292 
L 78.217756 281.145455 
L 78.380165 281.326543 
L 78.542573 280.42736 
L 78.704982 280.687908 
L 79.192207 279.364039 
L 79.354615 279.650476 
L 79.517024 279.36015 
L 79.679432 278.76335 
L 80.004249 279.050469 
L 80.329066 278.317652 
L 80.491475 278.689938 
L 80.653883 278.672316 
L 80.816292 278.929568 
L 80.9787 278.732993 
L 81.141109 278.892085 
L 81.303517 278.520944 
L 81.465926 278.598931 
L 81.953151 277.827124 
L 82.440377 277.323372 
L 82.927602 277.747232 
L 83.252419 278.3965 
L 83.414827 278.191371 
L 83.739644 278.487429 
L 84.064461 278.073724 
L 84.22687 278.137386 
L 84.389278 277.87043 
L 84.551687 277.840287 
L 84.876504 277.579745 
L 85.038912 277.665107 
L 85.688546 276.784643 
L 86.013363 277.174901 
L 86.33818 277.216218 
L 86.662997 276.970012 
L 86.825405 276.950668 
L 86.987814 276.794723 
L 87.475039 277.18805 
L 87.799856 276.896907 
L 87.962265 277.069658 
L 88.124673 276.7861 
L 88.287082 276.822793 
L 88.44949 276.675058 
L 88.611899 276.804363 
L 88.936716 276.507116 
L 89.261533 276.212855 
L 89.423941 276.424951 
L 89.58635 276.3299 
L 89.911166 276.489069 
L 90.235983 276.401143 
L 90.723209 275.959037 
L 90.885617 276.111536 
L 91.210434 275.854789 
L 91.535251 275.99985 
L 91.860068 275.389469 
L 92.672111 275.234862 
L 92.834519 274.92016 
L 92.996928 274.950109 
L 93.159336 274.761979 
L 93.646561 274.876603 
L 93.971378 275.024618 
L 94.133787 274.99922 
L 94.296195 274.796321 
L 94.458604 274.804591 
L 94.783421 275.132865 
L 95.757872 274.780903 
L 95.92028 274.598345 
L 96.894731 274.485834 
L 97.057139 274.320935 
L 97.381956 274.52239 
L 97.706773 274.445418 
L 97.869182 274.502373 
L 98.518816 274.042295 
L 99.006041 274.282913 
L 99.16845 274.114803 
L 99.493267 274.030365 
L 100.142901 273.971993 
L 100.305309 274.052896 
L 100.630126 273.921377 
L 101.117351 274.228735 
L 101.766985 274.200075 
L 101.929394 274.120144 
L 102.254211 274.269156 
L 102.741436 274.108701 
L 103.066253 274.322902 
L 103.39107 274.169137 
L 104.527929 274.211237 
L 104.690338 274.298581 
L 104.852746 274.236807 
L 105.015155 274.044643 
L 105.50238 274.252915 
L 105.664789 274.289357 
L 105.827197 274.193146 
L 105.989606 274.258447 
L 106.152014 274.173262 
L 106.314423 274.214076 
L 106.476831 274.131618 
L 106.964057 274.193688 
L 107.451282 273.869003 
L 107.61369 273.911341 
L 107.776099 273.822856 
L 108.263324 274.056351 
L 108.425733 273.938313 
L 108.588141 273.981665 
L 108.912958 273.779611 
L 109.400184 273.646236 
L 110.212226 273.333155 
L 110.537043 273.124611 
L 111.349085 273.143148 
L 111.511494 273.142937 
L 111.836311 272.773792 
L 112.323536 272.577284 
L 112.648353 272.502736 
L 112.810762 272.518389 
L 112.97317 272.237026 
L 113.135579 272.319904 
L 113.297987 272.139261 
L 113.622804 272.228085 
L 114.11003 272.04973 
L 116.546157 271.865447 
L 116.870974 271.833476 
L 117.683016 271.602378 
L 118.170241 271.676341 
L 118.495058 271.508369 
L 119.144692 271.191425 
L 119.469509 271.189824 
L 120.44396 271.20979 
L 120.606369 271.265235 
L 120.931186 271.129873 
L 121.743228 271.285869 
L 122.392862 271.076884 
L 123.042496 271.049317 
L 123.529721 271.033579 
L 123.854538 270.992531 
L 124.504172 270.931002 
L 125.316214 270.909235 
L 125.965848 270.866352 
L 127.102708 270.786155 
L 127.589933 270.806762 
L 127.91475 270.788619 
L 128.239567 270.852832 
L 128.726792 270.826681 
L 130.02606 270.828896 
L 130.350877 270.700424 
L 131.16292 270.875488 
L 134.248681 270.614876 
L 134.411089 270.629294 
L 134.735906 270.508138 
L 135.060723 270.503644 
L 135.38554 270.488423 
L 136.359991 270.432525 
L 137.009625 270.56989 
L 137.172033 270.428374 
L 137.821667 270.439795 
L 138.63371 270.423991 
L 139.283343 270.457616 
L 140.74502 270.266234 
L 141.069837 270.242914 
L 141.881879 270.269733 
L 142.693922 270.049146 
L 143.018738 270.078605 
L 143.993189 269.912923 
L 144.642823 269.955429 
L 144.96764 269.940328 
L 145.617274 269.796177 
L 146.591725 269.862855 
L 147.403767 269.877375 
L 147.890993 269.789227 
L 148.378218 269.829434 
L 148.703035 269.745203 
L 149.515078 269.799882 
L 150.002303 269.716213 
L 150.651937 269.777189 
L 151.626388 269.799031 
L 152.43843 269.779177 
L 153.250473 269.776791 
L 155.849008 269.749822 
L 156.173825 269.763674 
L 156.985867 269.777858 
L 157.473093 269.729075 
L 158.447544 269.688974 
L 161.695713 269.484139 
L 162.182939 269.459134 
L 162.994981 269.35261 
L 163.644615 269.372965 
L 165.755925 269.194287 
L 166.405559 269.177413 
L 167.542418 269.082757 
L 169.166503 269.030001 
L 170.303363 268.832648 
L 171.440222 268.843587 
L 171.927447 268.842281 
L 172.901898 268.84856 
L 173.389124 268.81857 
L 173.876349 268.819835 
L 178.261378 268.62909 
L 179.885463 268.517607 
L 180.697505 268.560876 
L 181.834364 268.52323 
L 182.808815 268.487521 
L 183.945675 268.454773 
L 184.270492 268.39337 
L 185.569759 268.473694 
L 187.031436 268.465804 
L 187.68107 268.490508 
L 188.493112 268.456488 
L 189.954788 268.554576 
L 190.929239 268.499217 
L 194.664634 268.441878 
L 195.639085 268.448753 
L 197.587987 268.552878 
L 199.049663 268.436871 
L 200.998565 268.499248 
L 206.84527 268.482234 
L 207.332495 268.4213 
L 207.819721 268.371634 
L 208.95658 268.34599 
L 209.931031 268.330731 
L 211.230299 268.326589 
L 214.803285 268.323869 
L 215.290511 268.303466 
L 217.726638 268.130443 
L 226.00947 267.934675 
L 226.983921 267.901937 
L 228.608006 267.872034 
L 232.505809 267.732094 
L 232.993035 267.703114 
L 235.429162 267.670033 
L 240.301416 267.606708 
L 243.224769 267.656184 
L 244.036811 267.597687 
L 245.17367 267.619704 
L 256.379855 267.444061 
L 257.029489 267.429405 
L 258.491166 267.430143 
L 262.064152 267.281951 
L 264.337871 267.300885 
L 271.646252 267.065292 
L 272.458295 267.033457 
L 276.518507 266.980491 
L 277.005732 266.990457 
L 278.954634 266.96083 
L 281.553169 266.92543 
L 289.348776 266.900243 
L 290.323227 266.88674 
L 295.35789 266.870832 
L 304.93999 266.645134 
L 307.538526 266.622147 
L 308.675385 266.563769 
L 310.29947 266.572671 
L 311.761146 266.533957 
L 312.735597 266.528213 
L 316.146175 266.46633 
L 322.642514 266.40482 
L 325.728275 266.379133 
L 327.677177 266.383788 
L 328.489219 266.389422 
L 333.848699 266.293225 
L 334.985558 266.31381 
L 335.960009 266.355358 
L 336.93446 266.352633 
L 337.584094 266.344308 
L 339.695404 266.380663 
L 342.943574 266.310391 
L 344.080433 266.300938 
L 345.542109 266.24949 
L 347.978236 266.260602 
L 349.115096 266.271417 
L 350.901589 266.225376 
L 354.474575 266.236489 
L 356.585886 266.178973 
L 371.689874 266.008734 
L 372.826733 265.997685 
L 375.912494 265.966115 
L 377.211762 265.986467 
L 378.348622 265.989418 
L 379.323072 265.970134 
L 381.434383 265.983183 
L 383.058467 265.974914 
L 384.195327 265.938736 
L 385.819412 265.951948 
L 387.118679 265.938905 
L 388.905173 265.872683 
L 397.837639 265.68331 
L 398.487273 265.631228 
L 398.487273 265.631228 
" clip-path="url(#p3c982371af)" style="fill: none; stroke-dasharray: 2,3.3; stroke-dashoffset: 0; stroke: #ffa500; stroke-width: 2"/>
   </g>
   <g id="patch_3">
    <path d="M 57.6 307.584 
L 57.6 41.472 
" style="fill: none; stroke: #000000; stroke-width: 0.8; stroke-linejoin: miter; stroke-linecap: square"/>
   </g>
   <g id="patch_4">
    <path d="M 414.72 307.584 
L 414.72 41.472 
" style="fill: none; stroke: #000000; stroke-width: 0.8; stroke-linejoin: miter; stroke-linecap: square"/>
   </g>
   <g id="patch_5">
    <path d="M 57.6 307.584 
L 414.72 307.584 
" style="fill: none; stroke: #000000; stroke-width: 0.8; stroke-linejoin: miter; stroke-linecap: square"/>
   </g>
   <g id="patch_6">
    <path d="M 57.6 41.472 
L 414.72 41.472 
" style="fill: none; stroke: #000000; stroke-width: 0.8; stroke-linejoin: miter; stroke-linecap: square"/>
   </g>
   <g id="text_18">
    <!-- Waiting Time Plot -->
    <g transform="translate(183.833438 8.2635)scale(0.12 -0.12)">
     <defs>
      <path id="DejaVuSans-50" d="M 1259 4147 
L 1259 2394 
L 2053 2394 
Q 2494 2394 2734 2622 
Q 2975 2850 2975 3272 
Q 2975 3691 2734 3919 
Q 2494 4147 2053 4147 
L 1259 4147 
z
M 628 4666 
L 2053 4666 
Q 2838 4666 3239 4311 
Q 3641 3956 3641 3272 
Q 3641 2581 3239 2228 
Q 2838 1875 2053 1875 
L 1259 1875 
L 1259 0 
L 628 0 
L 628 4666 
z
" transform="scale(0.015625)"/>
      <path id="DejaVuSans-6c" d="M 603 4863 
L 1178 4863 
L 1178 0 
L 603 0 
L 603 4863 
z
" transform="scale(0.015625)"/>
     </defs>
     <use xlink:href="#DejaVuSans-57"/>
     <use xlink:href="#DejaVuSans-61" x="92.501953"/>
     <use xlink:href="#DejaVuSans-69" x="153.78125"/>
     <use xlink:href="#DejaVuSans-74" x="181.564453"/>
     <use xlink:href="#DejaVuSans-69" x="220.773438"/>
     <use xlink:href="#DejaVuSans-6e" x="248.556641"/>
     <use xlink:href="#DejaVuSans-67" x="311.935547"/>
     <use xlink:href="#DejaVuSans-20" x="375.412109"/>
     <use xlink:href="#DejaVuSans-54" x="407.199219"/>
     <use xlink:href="#DejaVuSans-69" x="465.158203"/>
     <use xlink:href="#DejaVuSans-6d" x="492.941406"/>
     <use xlink:href="#DejaVuSans-65" x="590.353516"/>
     <use xlink:href="#DejaVuSans-20" x="651.876953"/>
     <use xlink:href="#DejaVuSans-50" x="683.664062"/>
     <use xlink:href="#DejaVuSans-6c" x="743.966797"/>
     <use xlink:href="#DejaVuSans-6f" x="771.75"/>
     <use xlink:href="#DejaVuSans-74" x="832.931641"/>
    </g>
    <!--  avg_d = 12.976007070302643  -->
    <g transform="translate(138.854062 21.700875)scale(0.12 -0.12)">
     <defs>
      <path id="DejaVuSans-76" d="M 191 3500 
L 800 3500 
L 1894 563 
L 2988 3500 
L 3597 3500 
L 2284 0 
L 1503 0 
L 191 3500 
z
" transform="scale(0.015625)"/>
      <path id="DejaVuSans-5f" d="M 3263 -1063 
L 3263 -1509 
L -63 -1509 
L -63 -1063 
L 3263 -1063 
z
" transform="scale(0.015625)"/>
      <path id="DejaVuSans-3d" d="M 678 2906 
L 4684 2906 
L 4684 2381 
L 678 2381 
L 678 2906 
z
M 678 1631 
L 4684 1631 
L 4684 1100 
L 678 1100 
L 678 1631 
z
" transform="scale(0.015625)"/>
      <path id="DejaVuSans-2e" d="M 684 794 
L 1344 794 
L 1344 0 
L 684 0 
L 684 794 
z
" transform="scale(0.015625)"/>
      <path id="DejaVuSans-39" d="M 703 97 
L 703 672 
Q 941 559 1184 500 
Q 1428 441 1663 441 
Q 2288 441 2617 861 
Q 2947 1281 2994 2138 
Q 2813 1869 2534 1725 
Q 2256 1581 1919 1581 
Q 1219 1581 811 2004 
Q 403 2428 403 3163 
Q 403 3881 828 4315 
Q 1253 4750 1959 4750 
Q 2769 4750 3195 4129 
Q 3622 3509 3622 2328 
Q 3622 1225 3098 567 
Q 2575 -91 1691 -91 
Q 1453 -91 1209 -44 
Q 966 3 703 97 
z
M 1959 2075 
Q 2384 2075 2632 2365 
Q 2881 2656 2881 3163 
Q 2881 3666 2632 3958 
Q 2384 4250 1959 4250 
Q 1534 4250 1286 3958 
Q 1038 3666 1038 3163 
Q 1038 2656 1286 2365 
Q 1534 2075 1959 2075 
z
" transform="scale(0.015625)"/>
      <path id="DejaVuSans-33" d="M 2597 2516 
Q 3050 2419 3304 2112 
Q 3559 1806 3559 1356 
Q 3559 666 3084 287 
Q 2609 -91 1734 -91 
Q 1441 -91 1130 -33 
Q 819 25 488 141 
L 488 750 
Q 750 597 1062 519 
Q 1375 441 1716 441 
Q 2309 441 2620 675 
Q 2931 909 2931 1356 
Q 2931 1769 2642 2001 
Q 2353 2234 1838 2234 
L 1294 2234 
L 1294 2753 
L 1863 2753 
Q 2328 2753 2575 2939 
Q 2822 3125 2822 3475 
Q 2822 3834 2567 4026 
Q 2313 4219 1838 4219 
Q 1578 4219 1281 4162 
Q 984 4106 628 3988 
L 628 4550 
Q 988 4650 1302 4700 
Q 1616 4750 1894 4750 
Q 2613 4750 3031 4423 
Q 3450 4097 3450 3541 
Q 3450 3153 3228 2886 
Q 3006 2619 2597 2516 
z
" transform="scale(0.015625)"/>
     </defs>
     <use xlink:href="#DejaVuSans-20"/>
     <use xlink:href="#DejaVuSans-61" x="31.787109"/>
     <use xlink:href="#DejaVuSans-76" x="93.066406"/>
     <use xlink:href="#DejaVuSans-67" x="152.246094"/>
     <use xlink:href="#DejaVuSans-5f" x="215.722656"/>
     <use xlink:href="#DejaVuSans-64" x="265.722656"/>
     <use xlink:href="#DejaVuSans-20" x="329.199219"/>
     <use xlink:href="#DejaVuSans-3d" x="360.986328"/>
     <use xlink:href="#DejaVuSans-20" x="444.775391"/>
     <use xlink:href="#DejaVuSans-31" x="476.5625"/>
     <use xlink:href="#DejaVuSans-32" x="540.185547"/>
     <use xlink:href="#DejaVuSans-2e" x="603.808594"/>
     <use xlink:href="#DejaVuSans-39" x="635.595703"/>
     <use xlink:href="#DejaVuSans-37" x="699.21875"/>
     <use xlink:href="#DejaVuSans-36" x="762.841797"/>
     <use xlink:href="#DejaVuSans-30" x="826.464844"/>
     <use xlink:href="#DejaVuSans-30" x="890.087891"/>
     <use xlink:href="#DejaVuSans-37" x="953.710938"/>
     <use xlink:href="#DejaVuSans-30" x="1017.333984"/>
     <use xlink:href="#DejaVuSans-37" x="1080.957031"/>
     <use xlink:href="#DejaVuSans-30" x="1144.580078"/>
     <use xlink:href="#DejaVuSans-33" x="1208.203125"/>
     <use xlink:href="#DejaVuSans-30" x="1271.826172"/>
     <use xlink:href="#DejaVuSans-32" x="1335.449219"/>
     <use xlink:href="#DejaVuSans-36" x="1399.072266"/>
     <use xlink:href="#DejaVuSans-34" x="1462.695312"/>
     <use xlink:href="#DejaVuSans-33" x="1526.318359"/>
     <use xlink:href="#DejaVuSans-20" x="1589.941406"/>
    </g>
    <!--  avg_a = 15.765080830192211diff = -2.7890737598895683 -->
    <g transform="translate(53.382188 35.472)scale(0.12 -0.12)">
     <defs>
      <path id="DejaVuSans-2d" d="M 313 2009 
L 1997 2009 
L 1997 1497 
L 313 1497 
L 313 2009 
z
" transform="scale(0.015625)"/>
     </defs>
     <use xlink:href="#DejaVuSans-20"/>
     <use xlink:href="#DejaVuSans-61" x="31.787109"/>
     <use xlink:href="#DejaVuSans-76" x="93.066406"/>
     <use xlink:href="#DejaVuSans-67" x="152.246094"/>
     <use xlink:href="#DejaVuSans-5f" x="215.722656"/>
     <use xlink:href="#DejaVuSans-61" x="265.722656"/>
     <use xlink:href="#DejaVuSans-20" x="327.001953"/>
     <use xlink:href="#DejaVuSans-3d" x="358.789062"/>
     <use xlink:href="#DejaVuSans-20" x="442.578125"/>
     <use xlink:href="#DejaVuSans-31" x="474.365234"/>
     <use xlink:href="#DejaVuSans-35" x="537.988281"/>
     <use xlink:href="#DejaVuSans-2e" x="601.611328"/>
     <use xlink:href="#DejaVuSans-37" x="633.398438"/>
     <use xlink:href="#DejaVuSans-36" x="697.021484"/>
     <use xlink:href="#DejaVuSans-35" x="760.644531"/>
     <use xlink:href="#DejaVuSans-30" x="824.267578"/>
     <use xlink:href="#DejaVuSans-38" x="887.890625"/>
     <use xlink:href="#DejaVuSans-30" x="951.513672"/>
     <use xlink:href="#DejaVuSans-38" x="1015.136719"/>
     <use xlink:href="#DejaVuSans-33" x="1078.759766"/>
     <use xlink:href="#DejaVuSans-30" x="1142.382812"/>
     <use xlink:href="#DejaVuSans-31" x="1206.005859"/>
     <use xlink:href="#DejaVuSans-39" x="1269.628906"/>
     <use xlink:href="#DejaVuSans-32" x="1333.251953"/>
     <use xlink:href="#DejaVuSans-32" x="1396.875"/>
     <use xlink:href="#DejaVuSans-31" x="1460.498047"/>
     <use xlink:href="#DejaVuSans-31" x="1524.121094"/>
     <use xlink:href="#DejaVuSans-64" x="1587.744141"/>
     <use xlink:href="#DejaVuSans-69" x="1651.220703"/>
     <use xlink:href="#DejaVuSans-66" x="1679.003906"/>
     <use xlink:href="#DejaVuSans-66" x="1714.208984"/>
     <use xlink:href="#DejaVuSans-20" x="1749.414062"/>
     <use xlink:href="#DejaVuSans-3d" x="1781.201172"/>
     <use xlink:href="#DejaVuSans-20" x="1864.990234"/>
     <use xlink:href="#DejaVuSans-2d" x="1896.777344"/>
     <use xlink:href="#DejaVuSans-32" x="1932.861328"/>
     <use xlink:href="#DejaVuSans-2e" x="1996.484375"/>
     <use xlink:href="#DejaVuSans-37" x="2028.271484"/>
     <use xlink:href="#DejaVuSans-38" x="2091.894531"/>
     <use xlink:href="#DejaVuSans-39" x="2155.517578"/>
     <use xlink:href="#DejaVuSans-30" x="2219.140625"/>
     <use xlink:href="#DejaVuSans-37" x="2282.763672"/>
     <use xlink:href="#DejaVuSans-33" x="2346.386719"/>
     <use xlink:href="#DejaVuSans-37" x="2410.009766"/>
     <use xlink:href="#DejaVuSans-35" x="2473.632812"/>
     <use xlink:href="#DejaVuSans-39" x="2537.255859"/>
     <use xlink:href="#DejaVuSans-38" x="2600.878906"/>
     <use xlink:href="#DejaVuSans-38" x="2664.501953"/>
     <use xlink:href="#DejaVuSans-39" x="2728.125"/>
     <use xlink:href="#DejaVuSans-35" x="2791.748047"/>
     <use xlink:href="#DejaVuSans-36" x="2855.371094"/>
     <use xlink:href="#DejaVuSans-38" x="2918.994141"/>
     <use xlink:href="#DejaVuSans-33" x="2982.617188"/>
    </g>
   </g>
   <g id="legend_1">
    <g id="patch_7">
     <path d="M 263.88875 78.82825 
L 407.72 78.82825 
Q 409.72 78.82825 409.72 76.82825 
L 409.72 48.472 
Q 409.72 46.472 407.72 46.472 
L 263.88875 46.472 
Q 261.88875 46.472 261.88875 48.472 
L 261.88875 76.82825 
Q 261.88875 78.82825 263.88875 78.82825 
z
" style="fill: #ffffff; opacity: 0.8; stroke: #cccccc; stroke-linejoin: miter"/>
    </g>
    <g id="line2d_18">
     <path d="M 265.88875 54.570437 
L 275.88875 54.570437 
L 285.88875 54.570437 
" style="fill: none; stroke-dasharray: 2,3.3; stroke-dashoffset: 0; stroke: #0000ff; stroke-width: 2"/>
    </g>
    <g id="text_19">
     <!-- Average (Default) -->
     <g transform="translate(293.88875 58.070437)scale(0.1 -0.1)">
      <defs>
       <path id="DejaVuSans-41" d="M 2188 4044 
L 1331 1722 
L 3047 1722 
L 2188 4044 
z
M 1831 4666 
L 2547 4666 
L 4325 0 
L 3669 0 
L 3244 1197 
L 1141 1197 
L 716 0 
L 50 0 
L 1831 4666 
z
" transform="scale(0.015625)"/>
       <path id="DejaVuSans-28" d="M 1984 4856 
Q 1566 4138 1362 3434 
Q 1159 2731 1159 2009 
Q 1159 1288 1364 580 
Q 1569 -128 1984 -844 
L 1484 -844 
Q 1016 -109 783 600 
Q 550 1309 550 2009 
Q 550 2706 781 3412 
Q 1013 4119 1484 4856 
L 1984 4856 
z
" transform="scale(0.015625)"/>
       <path id="DejaVuSans-44" d="M 1259 4147 
L 1259 519 
L 2022 519 
Q 2988 519 3436 956 
Q 3884 1394 3884 2338 
Q 3884 3275 3436 3711 
Q 2988 4147 2022 4147 
L 1259 4147 
z
M 628 4666 
L 1925 4666 
Q 3281 4666 3915 4102 
Q 4550 3538 4550 2338 
Q 4550 1131 3912 565 
Q 3275 0 1925 0 
L 628 0 
L 628 4666 
z
" transform="scale(0.015625)"/>
       <path id="DejaVuSans-29" d="M 513 4856 
L 1013 4856 
Q 1481 4119 1714 3412 
Q 1947 2706 1947 2009 
Q 1947 1309 1714 600 
Q 1481 -109 1013 -844 
L 513 -844 
Q 928 -128 1133 580 
Q 1338 1288 1338 2009 
Q 1338 2731 1133 3434 
Q 928 4138 513 4856 
z
" transform="scale(0.015625)"/>
      </defs>
      <use xlink:href="#DejaVuSans-41"/>
      <use xlink:href="#DejaVuSans-76" x="62.533203"/>
      <use xlink:href="#DejaVuSans-65" x="121.712891"/>
      <use xlink:href="#DejaVuSans-72" x="183.236328"/>
      <use xlink:href="#DejaVuSans-61" x="224.349609"/>
      <use xlink:href="#DejaVuSans-67" x="285.628906"/>
      <use xlink:href="#DejaVuSans-65" x="349.105469"/>
      <use xlink:href="#DejaVuSans-20" x="410.628906"/>
      <use xlink:href="#DejaVuSans-28" x="442.416016"/>
      <use xlink:href="#DejaVuSans-44" x="481.429688"/>
      <use xlink:href="#DejaVuSans-65" x="558.431641"/>
      <use xlink:href="#DejaVuSans-66" x="619.955078"/>
      <use xlink:href="#DejaVuSans-61" x="655.160156"/>
      <use xlink:href="#DejaVuSans-75" x="716.439453"/>
      <use xlink:href="#DejaVuSans-6c" x="779.818359"/>
      <use xlink:href="#DejaVuSans-74" x="807.601562"/>
      <use xlink:href="#DejaVuSans-29" x="846.810547"/>
     </g>
    </g>
    <g id="line2d_19">
     <path d="M 265.88875 69.248562 
L 275.88875 69.248562 
L 285.88875 69.248562 
" style="fill: none; stroke-dasharray: 2,3.3; stroke-dashoffset: 0; stroke: #ffa500; stroke-width: 2"/>
    </g>
    <g id="text_20">
     <!-- Average (Anticipation) -->
     <g transform="translate(293.88875 72.748562)scale(0.1 -0.1)">
      <defs>
       <path id="DejaVuSans-63" d="M 3122 3366 
L 3122 2828 
Q 2878 2963 2633 3030 
Q 2388 3097 2138 3097 
Q 1578 3097 1268 2742 
Q 959 2388 959 1747 
Q 959 1106 1268 751 
Q 1578 397 2138 397 
Q 2388 397 2633 464 
Q 2878 531 3122 666 
L 3122 134 
Q 2881 22 2623 -34 
Q 2366 -91 2075 -91 
Q 1284 -91 818 406 
Q 353 903 353 1747 
Q 353 2603 823 3093 
Q 1294 3584 2113 3584 
Q 2378 3584 2631 3529 
Q 2884 3475 3122 3366 
z
" transform="scale(0.015625)"/>
       <path id="DejaVuSans-70" d="M 1159 525 
L 1159 -1331 
L 581 -1331 
L 581 3500 
L 1159 3500 
L 1159 2969 
Q 1341 3281 1617 3432 
Q 1894 3584 2278 3584 
Q 2916 3584 3314 3078 
Q 3713 2572 3713 1747 
Q 3713 922 3314 415 
Q 2916 -91 2278 -91 
Q 1894 -91 1617 61 
Q 1341 213 1159 525 
z
M 3116 1747 
Q 3116 2381 2855 2742 
Q 2594 3103 2138 3103 
Q 1681 3103 1420 2742 
Q 1159 2381 1159 1747 
Q 1159 1113 1420 752 
Q 1681 391 2138 391 
Q 2594 391 2855 752 
Q 3116 1113 3116 1747 
z
" transform="scale(0.015625)"/>
      </defs>
      <use xlink:href="#DejaVuSans-41"/>
      <use xlink:href="#DejaVuSans-76" x="62.533203"/>
      <use xlink:href="#DejaVuSans-65" x="121.712891"/>
      <use xlink:href="#DejaVuSans-72" x="183.236328"/>
      <use xlink:href="#DejaVuSans-61" x="224.349609"/>
      <use xlink:href="#DejaVuSans-67" x="285.628906"/>
      <use xlink:href="#DejaVuSans-65" x="349.105469"/>
      <use xlink:href="#DejaVuSans-20" x="410.628906"/>
      <use xlink:href="#DejaVuSans-28" x="442.416016"/>
      <use xlink:href="#DejaVuSans-41" x="481.429688"/>
      <use xlink:href="#DejaVuSans-6e" x="549.837891"/>
      <use xlink:href="#DejaVuSans-74" x="613.216797"/>
      <use xlink:href="#DejaVuSans-69" x="652.425781"/>
      <use xlink:href="#DejaVuSans-63" x="680.208984"/>
      <use xlink:href="#DejaVuSans-69" x="735.189453"/>
      <use xlink:href="#DejaVuSans-70" x="762.972656"/>
      <use xlink:href="#DejaVuSans-61" x="826.449219"/>
      <use xlink:href="#DejaVuSans-74" x="887.728516"/>
      <use xlink:href="#DejaVuSans-69" x="926.9375"/>
      <use xlink:href="#DejaVuSans-6f" x="954.720703"/>
      <use xlink:href="#DejaVuSans-6e" x="1015.902344"/>
      <use xlink:href="#DejaVuSans-29" x="1079.28125"/>
     </g>
    </g>
   </g>
  </g>
 </g>
 <defs>
  <clipPath id="p3c982371af">
   <rect x="57.6" y="41.472" width="357.12" height="266.112"/>
  </clipPath>
 </defs>
</svg>
