<?xml version="1.0" encoding="utf-8" standalone="no"?>
<!DOCTYPE svg PUBLIC "-//W3C//DTD SVG 1.1//EN"
  "http://www.w3.org/Graphics/SVG/1.1/DTD/svg11.dtd">
<svg xmlns:xlink="http://www.w3.org/1999/xlink" width="460.8pt" height="345.6pt" viewBox="0 0 460.8 345.6" xmlns="http://www.w3.org/2000/svg" version="1.1">
 <metadata>
  <rdf:RDF xmlns:dc="http://purl.org/dc/elements/1.1/" xmlns:cc="http://creativecommons.org/ns#" xmlns:rdf="http://www.w3.org/1999/02/22-rdf-syntax-ns#">
   <cc:Work>
    <dc:type rdf:resource="http://purl.org/dc/dcmitype/StillImage"/>
    <dc:date>2022-11-07T15:53:34.031008</dc:date>
    <dc:format>image/svg+xml</dc:format>
    <dc:creator>
     <cc:Agent>
      <dc:title>Matplotlib v3.5.3, https://matplotlib.org/</dc:title>
     </cc:Agent>
    </dc:creator>
   </cc:Work>
  </rdf:RDF>
 </metadata>
 <defs>
  <style type="text/css">*{stroke-linejoin: round; stroke-linecap: butt}</style>
 </defs>
 <g id="figure_1">
  <g id="patch_1">
   <path d="M 0 345.6 
L 460.8 345.6 
L 460.8 0 
L 0 0 
z
" style="fill: #ffffff"/>
  </g>
  <g id="axes_1">
   <g id="patch_2">
    <path d="M 57.6 307.584 
L 414.72 307.584 
L 414.72 41.472 
L 57.6 41.472 
z
" style="fill: #ffffff"/>
   </g>
   <g id="matplotlib.axis_1">
    <g id="xtick_1">
     <g id="line2d_1">
      <defs>
       <path id="m17685d73c4" d="M 0 0 
L 0 3.5 
" style="stroke: #000000; stroke-width: 0.8"/>
      </defs>
      <g>
       <use xlink:href="#m17685d73c4" x="73.832727" y="307.584" style="stroke: #000000; stroke-width: 0.8"/>
      </g>
     </g>
     <g id="text_1">
      <!-- 0 -->
      <g transform="translate(70.651477 322.182437)scale(0.1 -0.1)">
       <defs>
        <path id="DejaVuSans-30" d="M 2034 4250 
Q 1547 4250 1301 3770 
Q 1056 3291 1056 2328 
Q 1056 1369 1301 889 
Q 1547 409 2034 409 
Q 2525 409 2770 889 
Q 3016 1369 3016 2328 
Q 3016 3291 2770 3770 
Q 2525 4250 2034 4250 
z
M 2034 4750 
Q 2819 4750 3233 4129 
Q 3647 3509 3647 2328 
Q 3647 1150 3233 529 
Q 2819 -91 2034 -91 
Q 1250 -91 836 529 
Q 422 1150 422 2328 
Q 422 3509 836 4129 
Q 1250 4750 2034 4750 
z
" transform="scale(0.015625)"/>
       </defs>
       <use xlink:href="#DejaVuSans-30"/>
      </g>
     </g>
    </g>
    <g id="xtick_2">
     <g id="line2d_2">
      <g>
       <use xlink:href="#m17685d73c4" x="114.434847" y="307.584" style="stroke: #000000; stroke-width: 0.8"/>
      </g>
     </g>
     <g id="text_2">
      <!-- 250 -->
      <g transform="translate(104.891097 322.182437)scale(0.1 -0.1)">
       <defs>
        <path id="DejaVuSans-32" d="M 1228 531 
L 3431 531 
L 3431 0 
L 469 0 
L 469 531 
Q 828 903 1448 1529 
Q 2069 2156 2228 2338 
Q 2531 2678 2651 2914 
Q 2772 3150 2772 3378 
Q 2772 3750 2511 3984 
Q 2250 4219 1831 4219 
Q 1534 4219 1204 4116 
Q 875 4013 500 3803 
L 500 4441 
Q 881 4594 1212 4672 
Q 1544 4750 1819 4750 
Q 2544 4750 2975 4387 
Q 3406 4025 3406 3419 
Q 3406 3131 3298 2873 
Q 3191 2616 2906 2266 
Q 2828 2175 2409 1742 
Q 1991 1309 1228 531 
z
" transform="scale(0.015625)"/>
        <path id="DejaVuSans-35" d="M 691 4666 
L 3169 4666 
L 3169 4134 
L 1269 4134 
L 1269 2991 
Q 1406 3038 1543 3061 
Q 1681 3084 1819 3084 
Q 2600 3084 3056 2656 
Q 3513 2228 3513 1497 
Q 3513 744 3044 326 
Q 2575 -91 1722 -91 
Q 1428 -91 1123 -41 
Q 819 9 494 109 
L 494 744 
Q 775 591 1075 516 
Q 1375 441 1709 441 
Q 2250 441 2565 725 
Q 2881 1009 2881 1497 
Q 2881 1984 2565 2268 
Q 2250 2553 1709 2553 
Q 1456 2553 1204 2497 
Q 953 2441 691 2322 
L 691 4666 
z
" transform="scale(0.015625)"/>
       </defs>
       <use xlink:href="#DejaVuSans-32"/>
       <use xlink:href="#DejaVuSans-35" x="63.623047"/>
       <use xlink:href="#DejaVuSans-30" x="127.246094"/>
      </g>
     </g>
    </g>
    <g id="xtick_3">
     <g id="line2d_3">
      <g>
       <use xlink:href="#m17685d73c4" x="155.036966" y="307.584" style="stroke: #000000; stroke-width: 0.8"/>
      </g>
     </g>
     <g id="text_3">
      <!-- 500 -->
      <g transform="translate(145.493216 322.182437)scale(0.1 -0.1)">
       <use xlink:href="#DejaVuSans-35"/>
       <use xlink:href="#DejaVuSans-30" x="63.623047"/>
       <use xlink:href="#DejaVuSans-30" x="127.246094"/>
      </g>
     </g>
    </g>
    <g id="xtick_4">
     <g id="line2d_4">
      <g>
       <use xlink:href="#m17685d73c4" x="195.639085" y="307.584" style="stroke: #000000; stroke-width: 0.8"/>
      </g>
     </g>
     <g id="text_4">
      <!-- 750 -->
      <g transform="translate(186.095335 322.182437)scale(0.1 -0.1)">
       <defs>
        <path id="DejaVuSans-37" d="M 525 4666 
L 3525 4666 
L 3525 4397 
L 1831 0 
L 1172 0 
L 2766 4134 
L 525 4134 
L 525 4666 
z
" transform="scale(0.015625)"/>
       </defs>
       <use xlink:href="#DejaVuSans-37"/>
       <use xlink:href="#DejaVuSans-35" x="63.623047"/>
       <use xlink:href="#DejaVuSans-30" x="127.246094"/>
      </g>
     </g>
    </g>
    <g id="xtick_5">
     <g id="line2d_5">
      <g>
       <use xlink:href="#m17685d73c4" x="236.241204" y="307.584" style="stroke: #000000; stroke-width: 0.8"/>
      </g>
     </g>
     <g id="text_5">
      <!-- 1000 -->
      <g transform="translate(223.516204 322.182437)scale(0.1 -0.1)">
       <defs>
        <path id="DejaVuSans-31" d="M 794 531 
L 1825 531 
L 1825 4091 
L 703 3866 
L 703 4441 
L 1819 4666 
L 2450 4666 
L 2450 531 
L 3481 531 
L 3481 0 
L 794 0 
L 794 531 
z
" transform="scale(0.015625)"/>
       </defs>
       <use xlink:href="#DejaVuSans-31"/>
       <use xlink:href="#DejaVuSans-30" x="63.623047"/>
       <use xlink:href="#DejaVuSans-30" x="127.246094"/>
       <use xlink:href="#DejaVuSans-30" x="190.869141"/>
      </g>
     </g>
    </g>
    <g id="xtick_6">
     <g id="line2d_6">
      <g>
       <use xlink:href="#m17685d73c4" x="276.843323" y="307.584" style="stroke: #000000; stroke-width: 0.8"/>
      </g>
     </g>
     <g id="text_6">
      <!-- 1250 -->
      <g transform="translate(264.118323 322.182437)scale(0.1 -0.1)">
       <use xlink:href="#DejaVuSans-31"/>
       <use xlink:href="#DejaVuSans-32" x="63.623047"/>
       <use xlink:href="#DejaVuSans-35" x="127.246094"/>
       <use xlink:href="#DejaVuSans-30" x="190.869141"/>
      </g>
     </g>
    </g>
    <g id="xtick_7">
     <g id="line2d_7">
      <g>
       <use xlink:href="#m17685d73c4" x="317.445443" y="307.584" style="stroke: #000000; stroke-width: 0.8"/>
      </g>
     </g>
     <g id="text_7">
      <!-- 1500 -->
      <g transform="translate(304.720443 322.182437)scale(0.1 -0.1)">
       <use xlink:href="#DejaVuSans-31"/>
       <use xlink:href="#DejaVuSans-35" x="63.623047"/>
       <use xlink:href="#DejaVuSans-30" x="127.246094"/>
       <use xlink:href="#DejaVuSans-30" x="190.869141"/>
      </g>
     </g>
    </g>
    <g id="xtick_8">
     <g id="line2d_8">
      <g>
       <use xlink:href="#m17685d73c4" x="358.047562" y="307.584" style="stroke: #000000; stroke-width: 0.8"/>
      </g>
     </g>
     <g id="text_8">
      <!-- 1750 -->
      <g transform="translate(345.322562 322.182437)scale(0.1 -0.1)">
       <use xlink:href="#DejaVuSans-31"/>
       <use xlink:href="#DejaVuSans-37" x="63.623047"/>
       <use xlink:href="#DejaVuSans-35" x="127.246094"/>
       <use xlink:href="#DejaVuSans-30" x="190.869141"/>
      </g>
     </g>
    </g>
    <g id="xtick_9">
     <g id="line2d_9">
      <g>
       <use xlink:href="#m17685d73c4" x="398.649681" y="307.584" style="stroke: #000000; stroke-width: 0.8"/>
      </g>
     </g>
     <g id="text_9">
      <!-- 2000 -->
      <g transform="translate(385.924681 322.182437)scale(0.1 -0.1)">
       <use xlink:href="#DejaVuSans-32"/>
       <use xlink:href="#DejaVuSans-30" x="63.623047"/>
       <use xlink:href="#DejaVuSans-30" x="127.246094"/>
       <use xlink:href="#DejaVuSans-30" x="190.869141"/>
      </g>
     </g>
    </g>
    <g id="text_10">
     <!-- Number of Orders -->
     <g transform="translate(191.261562 335.860562)scale(0.1 -0.1)">
      <defs>
       <path id="DejaVuSans-4e" d="M 628 4666 
L 1478 4666 
L 3547 763 
L 3547 4666 
L 4159 4666 
L 4159 0 
L 3309 0 
L 1241 3903 
L 1241 0 
L 628 0 
L 628 4666 
z
" transform="scale(0.015625)"/>
       <path id="DejaVuSans-75" d="M 544 1381 
L 544 3500 
L 1119 3500 
L 1119 1403 
Q 1119 906 1312 657 
Q 1506 409 1894 409 
Q 2359 409 2629 706 
Q 2900 1003 2900 1516 
L 2900 3500 
L 3475 3500 
L 3475 0 
L 2900 0 
L 2900 538 
Q 2691 219 2414 64 
Q 2138 -91 1772 -91 
Q 1169 -91 856 284 
Q 544 659 544 1381 
z
M 1991 3584 
L 1991 3584 
z
" transform="scale(0.015625)"/>
       <path id="DejaVuSans-6d" d="M 3328 2828 
Q 3544 3216 3844 3400 
Q 4144 3584 4550 3584 
Q 5097 3584 5394 3201 
Q 5691 2819 5691 2113 
L 5691 0 
L 5113 0 
L 5113 2094 
Q 5113 2597 4934 2840 
Q 4756 3084 4391 3084 
Q 3944 3084 3684 2787 
Q 3425 2491 3425 1978 
L 3425 0 
L 2847 0 
L 2847 2094 
Q 2847 2600 2669 2842 
Q 2491 3084 2119 3084 
Q 1678 3084 1418 2786 
Q 1159 2488 1159 1978 
L 1159 0 
L 581 0 
L 581 3500 
L 1159 3500 
L 1159 2956 
Q 1356 3278 1631 3431 
Q 1906 3584 2284 3584 
Q 2666 3584 2933 3390 
Q 3200 3197 3328 2828 
z
" transform="scale(0.015625)"/>
       <path id="DejaVuSans-62" d="M 3116 1747 
Q 3116 2381 2855 2742 
Q 2594 3103 2138 3103 
Q 1681 3103 1420 2742 
Q 1159 2381 1159 1747 
Q 1159 1113 1420 752 
Q 1681 391 2138 391 
Q 2594 391 2855 752 
Q 3116 1113 3116 1747 
z
M 1159 2969 
Q 1341 3281 1617 3432 
Q 1894 3584 2278 3584 
Q 2916 3584 3314 3078 
Q 3713 2572 3713 1747 
Q 3713 922 3314 415 
Q 2916 -91 2278 -91 
Q 1894 -91 1617 61 
Q 1341 213 1159 525 
L 1159 0 
L 581 0 
L 581 4863 
L 1159 4863 
L 1159 2969 
z
" transform="scale(0.015625)"/>
       <path id="DejaVuSans-65" d="M 3597 1894 
L 3597 1613 
L 953 1613 
Q 991 1019 1311 708 
Q 1631 397 2203 397 
Q 2534 397 2845 478 
Q 3156 559 3463 722 
L 3463 178 
Q 3153 47 2828 -22 
Q 2503 -91 2169 -91 
Q 1331 -91 842 396 
Q 353 884 353 1716 
Q 353 2575 817 3079 
Q 1281 3584 2069 3584 
Q 2775 3584 3186 3129 
Q 3597 2675 3597 1894 
z
M 3022 2063 
Q 3016 2534 2758 2815 
Q 2500 3097 2075 3097 
Q 1594 3097 1305 2825 
Q 1016 2553 972 2059 
L 3022 2063 
z
" transform="scale(0.015625)"/>
       <path id="DejaVuSans-72" d="M 2631 2963 
Q 2534 3019 2420 3045 
Q 2306 3072 2169 3072 
Q 1681 3072 1420 2755 
Q 1159 2438 1159 1844 
L 1159 0 
L 581 0 
L 581 3500 
L 1159 3500 
L 1159 2956 
Q 1341 3275 1631 3429 
Q 1922 3584 2338 3584 
Q 2397 3584 2469 3576 
Q 2541 3569 2628 3553 
L 2631 2963 
z
" transform="scale(0.015625)"/>
       <path id="DejaVuSans-20" transform="scale(0.015625)"/>
       <path id="DejaVuSans-6f" d="M 1959 3097 
Q 1497 3097 1228 2736 
Q 959 2375 959 1747 
Q 959 1119 1226 758 
Q 1494 397 1959 397 
Q 2419 397 2687 759 
Q 2956 1122 2956 1747 
Q 2956 2369 2687 2733 
Q 2419 3097 1959 3097 
z
M 1959 3584 
Q 2709 3584 3137 3096 
Q 3566 2609 3566 1747 
Q 3566 888 3137 398 
Q 2709 -91 1959 -91 
Q 1206 -91 779 398 
Q 353 888 353 1747 
Q 353 2609 779 3096 
Q 1206 3584 1959 3584 
z
" transform="scale(0.015625)"/>
       <path id="DejaVuSans-66" d="M 2375 4863 
L 2375 4384 
L 1825 4384 
Q 1516 4384 1395 4259 
Q 1275 4134 1275 3809 
L 1275 3500 
L 2222 3500 
L 2222 3053 
L 1275 3053 
L 1275 0 
L 697 0 
L 697 3053 
L 147 3053 
L 147 3500 
L 697 3500 
L 697 3744 
Q 697 4328 969 4595 
Q 1241 4863 1831 4863 
L 2375 4863 
z
" transform="scale(0.015625)"/>
       <path id="DejaVuSans-4f" d="M 2522 4238 
Q 1834 4238 1429 3725 
Q 1025 3213 1025 2328 
Q 1025 1447 1429 934 
Q 1834 422 2522 422 
Q 3209 422 3611 934 
Q 4013 1447 4013 2328 
Q 4013 3213 3611 3725 
Q 3209 4238 2522 4238 
z
M 2522 4750 
Q 3503 4750 4090 4092 
Q 4678 3434 4678 2328 
Q 4678 1225 4090 567 
Q 3503 -91 2522 -91 
Q 1538 -91 948 565 
Q 359 1222 359 2328 
Q 359 3434 948 4092 
Q 1538 4750 2522 4750 
z
" transform="scale(0.015625)"/>
       <path id="DejaVuSans-64" d="M 2906 2969 
L 2906 4863 
L 3481 4863 
L 3481 0 
L 2906 0 
L 2906 525 
Q 2725 213 2448 61 
Q 2172 -91 1784 -91 
Q 1150 -91 751 415 
Q 353 922 353 1747 
Q 353 2572 751 3078 
Q 1150 3584 1784 3584 
Q 2172 3584 2448 3432 
Q 2725 3281 2906 2969 
z
M 947 1747 
Q 947 1113 1208 752 
Q 1469 391 1925 391 
Q 2381 391 2643 752 
Q 2906 1113 2906 1747 
Q 2906 2381 2643 2742 
Q 2381 3103 1925 3103 
Q 1469 3103 1208 2742 
Q 947 2381 947 1747 
z
" transform="scale(0.015625)"/>
       <path id="DejaVuSans-73" d="M 2834 3397 
L 2834 2853 
Q 2591 2978 2328 3040 
Q 2066 3103 1784 3103 
Q 1356 3103 1142 2972 
Q 928 2841 928 2578 
Q 928 2378 1081 2264 
Q 1234 2150 1697 2047 
L 1894 2003 
Q 2506 1872 2764 1633 
Q 3022 1394 3022 966 
Q 3022 478 2636 193 
Q 2250 -91 1575 -91 
Q 1294 -91 989 -36 
Q 684 19 347 128 
L 347 722 
Q 666 556 975 473 
Q 1284 391 1588 391 
Q 1994 391 2212 530 
Q 2431 669 2431 922 
Q 2431 1156 2273 1281 
Q 2116 1406 1581 1522 
L 1381 1569 
Q 847 1681 609 1914 
Q 372 2147 372 2553 
Q 372 3047 722 3315 
Q 1072 3584 1716 3584 
Q 2034 3584 2315 3537 
Q 2597 3491 2834 3397 
z
" transform="scale(0.015625)"/>
      </defs>
      <use xlink:href="#DejaVuSans-4e"/>
      <use xlink:href="#DejaVuSans-75" x="74.804688"/>
      <use xlink:href="#DejaVuSans-6d" x="138.183594"/>
      <use xlink:href="#DejaVuSans-62" x="235.595703"/>
      <use xlink:href="#DejaVuSans-65" x="299.072266"/>
      <use xlink:href="#DejaVuSans-72" x="360.595703"/>
      <use xlink:href="#DejaVuSans-20" x="401.708984"/>
      <use xlink:href="#DejaVuSans-6f" x="433.496094"/>
      <use xlink:href="#DejaVuSans-66" x="494.677734"/>
      <use xlink:href="#DejaVuSans-20" x="529.882812"/>
      <use xlink:href="#DejaVuSans-4f" x="561.669922"/>
      <use xlink:href="#DejaVuSans-72" x="640.380859"/>
      <use xlink:href="#DejaVuSans-64" x="679.744141"/>
      <use xlink:href="#DejaVuSans-65" x="743.220703"/>
      <use xlink:href="#DejaVuSans-72" x="804.744141"/>
      <use xlink:href="#DejaVuSans-73" x="845.857422"/>
     </g>
    </g>
   </g>
   <g id="matplotlib.axis_2">
    <g id="ytick_1">
     <g id="line2d_10">
      <defs>
       <path id="mb7fa819988" d="M 0 0 
L -3.5 0 
" style="stroke: #000000; stroke-width: 0.8"/>
      </defs>
      <g>
       <use xlink:href="#mb7fa819988" x="57.6" y="307.584" style="stroke: #000000; stroke-width: 0.8"/>
      </g>
     </g>
     <g id="text_11">
      <!-- 0 -->
      <g transform="translate(44.2375 311.383219)scale(0.1 -0.1)">
       <use xlink:href="#DejaVuSans-30"/>
      </g>
     </g>
    </g>
    <g id="ytick_2">
     <g id="line2d_11">
      <g>
       <use xlink:href="#mb7fa819988" x="57.6" y="254.3616" style="stroke: #000000; stroke-width: 0.8"/>
      </g>
     </g>
     <g id="text_12">
      <!-- 20 -->
      <g transform="translate(37.875 258.160819)scale(0.1 -0.1)">
       <use xlink:href="#DejaVuSans-32"/>
       <use xlink:href="#DejaVuSans-30" x="63.623047"/>
      </g>
     </g>
    </g>
    <g id="ytick_3">
     <g id="line2d_12">
      <g>
       <use xlink:href="#mb7fa819988" x="57.6" y="201.1392" style="stroke: #000000; stroke-width: 0.8"/>
      </g>
     </g>
     <g id="text_13">
      <!-- 40 -->
      <g transform="translate(37.875 204.938419)scale(0.1 -0.1)">
       <defs>
        <path id="DejaVuSans-34" d="M 2419 4116 
L 825 1625 
L 2419 1625 
L 2419 4116 
z
M 2253 4666 
L 3047 4666 
L 3047 1625 
L 3713 1625 
L 3713 1100 
L 3047 1100 
L 3047 0 
L 2419 0 
L 2419 1100 
L 313 1100 
L 313 1709 
L 2253 4666 
z
" transform="scale(0.015625)"/>
       </defs>
       <use xlink:href="#DejaVuSans-34"/>
       <use xlink:href="#DejaVuSans-30" x="63.623047"/>
      </g>
     </g>
    </g>
    <g id="ytick_4">
     <g id="line2d_13">
      <g>
       <use xlink:href="#mb7fa819988" x="57.6" y="147.9168" style="stroke: #000000; stroke-width: 0.8"/>
      </g>
     </g>
     <g id="text_14">
      <!-- 60 -->
      <g transform="translate(37.875 151.716019)scale(0.1 -0.1)">
       <defs>
        <path id="DejaVuSans-36" d="M 2113 2584 
Q 1688 2584 1439 2293 
Q 1191 2003 1191 1497 
Q 1191 994 1439 701 
Q 1688 409 2113 409 
Q 2538 409 2786 701 
Q 3034 994 3034 1497 
Q 3034 2003 2786 2293 
Q 2538 2584 2113 2584 
z
M 3366 4563 
L 3366 3988 
Q 3128 4100 2886 4159 
Q 2644 4219 2406 4219 
Q 1781 4219 1451 3797 
Q 1122 3375 1075 2522 
Q 1259 2794 1537 2939 
Q 1816 3084 2150 3084 
Q 2853 3084 3261 2657 
Q 3669 2231 3669 1497 
Q 3669 778 3244 343 
Q 2819 -91 2113 -91 
Q 1303 -91 875 529 
Q 447 1150 447 2328 
Q 447 3434 972 4092 
Q 1497 4750 2381 4750 
Q 2619 4750 2861 4703 
Q 3103 4656 3366 4563 
z
" transform="scale(0.015625)"/>
       </defs>
       <use xlink:href="#DejaVuSans-36"/>
       <use xlink:href="#DejaVuSans-30" x="63.623047"/>
      </g>
     </g>
    </g>
    <g id="ytick_5">
     <g id="line2d_14">
      <g>
       <use xlink:href="#mb7fa819988" x="57.6" y="94.6944" style="stroke: #000000; stroke-width: 0.8"/>
      </g>
     </g>
     <g id="text_15">
      <!-- 80 -->
      <g transform="translate(37.875 98.493619)scale(0.1 -0.1)">
       <defs>
        <path id="DejaVuSans-38" d="M 2034 2216 
Q 1584 2216 1326 1975 
Q 1069 1734 1069 1313 
Q 1069 891 1326 650 
Q 1584 409 2034 409 
Q 2484 409 2743 651 
Q 3003 894 3003 1313 
Q 3003 1734 2745 1975 
Q 2488 2216 2034 2216 
z
M 1403 2484 
Q 997 2584 770 2862 
Q 544 3141 544 3541 
Q 544 4100 942 4425 
Q 1341 4750 2034 4750 
Q 2731 4750 3128 4425 
Q 3525 4100 3525 3541 
Q 3525 3141 3298 2862 
Q 3072 2584 2669 2484 
Q 3125 2378 3379 2068 
Q 3634 1759 3634 1313 
Q 3634 634 3220 271 
Q 2806 -91 2034 -91 
Q 1263 -91 848 271 
Q 434 634 434 1313 
Q 434 1759 690 2068 
Q 947 2378 1403 2484 
z
M 1172 3481 
Q 1172 3119 1398 2916 
Q 1625 2713 2034 2713 
Q 2441 2713 2670 2916 
Q 2900 3119 2900 3481 
Q 2900 3844 2670 4047 
Q 2441 4250 2034 4250 
Q 1625 4250 1398 4047 
Q 1172 3844 1172 3481 
z
" transform="scale(0.015625)"/>
       </defs>
       <use xlink:href="#DejaVuSans-38"/>
       <use xlink:href="#DejaVuSans-30" x="63.623047"/>
      </g>
     </g>
    </g>
    <g id="ytick_6">
     <g id="line2d_15">
      <g>
       <use xlink:href="#mb7fa819988" x="57.6" y="41.472" style="stroke: #000000; stroke-width: 0.8"/>
      </g>
     </g>
     <g id="text_16">
      <!-- 100 -->
      <g transform="translate(31.5125 45.271219)scale(0.1 -0.1)">
       <use xlink:href="#DejaVuSans-31"/>
       <use xlink:href="#DejaVuSans-30" x="63.623047"/>
       <use xlink:href="#DejaVuSans-30" x="127.246094"/>
      </g>
     </g>
    </g>
    <g id="text_17">
     <!-- Waiting Time/s -->
     <g transform="translate(25.432812 211.410031)rotate(-90)scale(0.1 -0.1)">
      <defs>
       <path id="DejaVuSans-57" d="M 213 4666 
L 850 4666 
L 1831 722 
L 2809 4666 
L 3519 4666 
L 4500 722 
L 5478 4666 
L 6119 4666 
L 4947 0 
L 4153 0 
L 3169 4050 
L 2175 0 
L 1381 0 
L 213 4666 
z
" transform="scale(0.015625)"/>
       <path id="DejaVuSans-61" d="M 2194 1759 
Q 1497 1759 1228 1600 
Q 959 1441 959 1056 
Q 959 750 1161 570 
Q 1363 391 1709 391 
Q 2188 391 2477 730 
Q 2766 1069 2766 1631 
L 2766 1759 
L 2194 1759 
z
M 3341 1997 
L 3341 0 
L 2766 0 
L 2766 531 
Q 2569 213 2275 61 
Q 1981 -91 1556 -91 
Q 1019 -91 701 211 
Q 384 513 384 1019 
Q 384 1609 779 1909 
Q 1175 2209 1959 2209 
L 2766 2209 
L 2766 2266 
Q 2766 2663 2505 2880 
Q 2244 3097 1772 3097 
Q 1472 3097 1187 3025 
Q 903 2953 641 2809 
L 641 3341 
Q 956 3463 1253 3523 
Q 1550 3584 1831 3584 
Q 2591 3584 2966 3190 
Q 3341 2797 3341 1997 
z
" transform="scale(0.015625)"/>
       <path id="DejaVuSans-69" d="M 603 3500 
L 1178 3500 
L 1178 0 
L 603 0 
L 603 3500 
z
M 603 4863 
L 1178 4863 
L 1178 4134 
L 603 4134 
L 603 4863 
z
" transform="scale(0.015625)"/>
       <path id="DejaVuSans-74" d="M 1172 4494 
L 1172 3500 
L 2356 3500 
L 2356 3053 
L 1172 3053 
L 1172 1153 
Q 1172 725 1289 603 
Q 1406 481 1766 481 
L 2356 481 
L 2356 0 
L 1766 0 
Q 1100 0 847 248 
Q 594 497 594 1153 
L 594 3053 
L 172 3053 
L 172 3500 
L 594 3500 
L 594 4494 
L 1172 4494 
z
" transform="scale(0.015625)"/>
       <path id="DejaVuSans-6e" d="M 3513 2113 
L 3513 0 
L 2938 0 
L 2938 2094 
Q 2938 2591 2744 2837 
Q 2550 3084 2163 3084 
Q 1697 3084 1428 2787 
Q 1159 2491 1159 1978 
L 1159 0 
L 581 0 
L 581 3500 
L 1159 3500 
L 1159 2956 
Q 1366 3272 1645 3428 
Q 1925 3584 2291 3584 
Q 2894 3584 3203 3211 
Q 3513 2838 3513 2113 
z
" transform="scale(0.015625)"/>
       <path id="DejaVuSans-67" d="M 2906 1791 
Q 2906 2416 2648 2759 
Q 2391 3103 1925 3103 
Q 1463 3103 1205 2759 
Q 947 2416 947 1791 
Q 947 1169 1205 825 
Q 1463 481 1925 481 
Q 2391 481 2648 825 
Q 2906 1169 2906 1791 
z
M 3481 434 
Q 3481 -459 3084 -895 
Q 2688 -1331 1869 -1331 
Q 1566 -1331 1297 -1286 
Q 1028 -1241 775 -1147 
L 775 -588 
Q 1028 -725 1275 -790 
Q 1522 -856 1778 -856 
Q 2344 -856 2625 -561 
Q 2906 -266 2906 331 
L 2906 616 
Q 2728 306 2450 153 
Q 2172 0 1784 0 
Q 1141 0 747 490 
Q 353 981 353 1791 
Q 353 2603 747 3093 
Q 1141 3584 1784 3584 
Q 2172 3584 2450 3431 
Q 2728 3278 2906 2969 
L 2906 3500 
L 3481 3500 
L 3481 434 
z
" transform="scale(0.015625)"/>
       <path id="DejaVuSans-54" d="M -19 4666 
L 3928 4666 
L 3928 4134 
L 2272 4134 
L 2272 0 
L 1638 0 
L 1638 4134 
L -19 4134 
L -19 4666 
z
" transform="scale(0.015625)"/>
       <path id="DejaVuSans-2f" d="M 1625 4666 
L 2156 4666 
L 531 -594 
L 0 -594 
L 1625 4666 
z
" transform="scale(0.015625)"/>
      </defs>
      <use xlink:href="#DejaVuSans-57"/>
      <use xlink:href="#DejaVuSans-61" x="92.501953"/>
      <use xlink:href="#DejaVuSans-69" x="153.78125"/>
      <use xlink:href="#DejaVuSans-74" x="181.564453"/>
      <use xlink:href="#DejaVuSans-69" x="220.773438"/>
      <use xlink:href="#DejaVuSans-6e" x="248.556641"/>
      <use xlink:href="#DejaVuSans-67" x="311.935547"/>
      <use xlink:href="#DejaVuSans-20" x="375.412109"/>
      <use xlink:href="#DejaVuSans-54" x="407.199219"/>
      <use xlink:href="#DejaVuSans-69" x="465.158203"/>
      <use xlink:href="#DejaVuSans-6d" x="492.941406"/>
      <use xlink:href="#DejaVuSans-65" x="590.353516"/>
      <use xlink:href="#DejaVuSans-2f" x="651.876953"/>
      <use xlink:href="#DejaVuSans-73" x="685.568359"/>
     </g>
    </g>
   </g>
   <g id="line2d_16">
    <path d="M 73.832727 296.375206 
L 73.995136 297.688587 
L 74.319953 293.210281 
L 74.482361 293.909131 
L 75.131995 289.738549 
L 75.456812 286.438915 
L 75.619221 286.654618 
L 75.781629 286.013668 
L 75.944037 285.93006 
L 76.106446 285.370087 
L 76.268854 285.664582 
L 76.431263 285.526057 
L 76.75608 284.174253 
L 77.080897 283.319782 
L 77.405714 284.000358 
L 77.568122 282.547821 
L 77.730531 283.002341 
L 77.892939 282.693302 
L 78.055348 282.136332 
L 78.217756 282.303914 
L 78.380165 281.855891 
L 78.704982 282.377485 
L 78.86739 281.741544 
L 79.029799 281.669256 
L 79.679432 279.759059 
L 79.841841 279.976601 
L 80.004249 279.888541 
L 80.166658 280.235575 
L 80.329066 280.26645 
L 80.653883 279.58459 
L 80.816292 278.900408 
L 81.141109 278.591492 
L 81.303517 278.991738 
L 81.465926 278.522101 
L 81.628334 278.629624 
L 81.790743 278.550113 
L 81.953151 278.641101 
L 82.11556 278.401073 
L 82.277968 278.822437 
L 82.602785 278.729234 
L 82.765194 278.306283 
L 82.927602 278.407841 
L 83.09001 278.221147 
L 83.252419 277.692541 
L 83.414827 277.571867 
L 83.577236 277.259282 
L 83.902053 277.66006 
L 84.22687 276.961502 
L 84.389278 277.18296 
L 84.714095 277.158069 
L 84.876504 277.193111 
L 85.850955 276.297842 
L 86.013363 276.473951 
L 86.175772 276.287367 
L 86.500588 276.35557 
L 86.987814 276.888568 
L 87.150222 276.932933 
L 87.312631 277.102968 
L 87.799856 276.86261 
L 88.611899 277.277169 
L 89.099124 276.707146 
L 89.423941 276.955703 
L 89.58635 276.789118 
L 89.748758 276.93405 
L 89.911166 276.674234 
L 90.398392 276.765091 
L 90.5608 276.599392 
L 90.885617 276.661725 
L 91.210434 276.733311 
L 91.535251 276.528086 
L 92.022477 276.162625 
L 92.184885 276.048555 
L 93.321745 276.197853 
L 93.484153 276.12843 
L 94.458604 276.455707 
L 94.945829 276.50464 
L 95.108238 276.709529 
L 95.595463 276.565819 
L 95.92028 276.653901 
L 96.569914 276.439696 
L 96.732323 276.45491 
L 96.894731 276.281403 
L 97.381956 276.23777 
L 97.706773 276.078546 
L 98.193999 276.242681 
L 98.843633 276.163849 
L 99.16845 275.804013 
L 99.980492 275.889261 
L 100.305309 275.72358 
L 100.467717 275.792258 
L 100.630126 275.682362 
L 100.954943 275.814059 
L 101.442168 275.509808 
L 101.766985 275.530114 
L 102.254211 275.285704 
L 102.579028 275.129254 
L 102.903845 274.845448 
L 103.228662 275.013328 
L 103.878296 274.465607 
L 104.203112 274.537387 
L 105.50238 274.546382 
L 105.664789 274.601512 
L 106.801648 274.027205 
L 106.964057 274.062287 
L 107.451282 273.820058 
L 108.100916 273.905195 
L 108.912958 273.600672 
L 109.237775 273.707608 
L 109.562592 273.383346 
L 110.374635 273.301129 
L 111.349085 273.088288 
L 111.673902 273.01337 
L 111.836311 273.059384 
L 112.485945 272.816214 
L 112.97317 272.738423 
L 113.460396 272.726869 
L 113.785213 272.878108 
L 116.22134 272.751608 
L 116.546157 272.610698 
L 117.195791 272.658361 
L 117.520608 272.629212 
L 119.307101 272.574204 
L 119.631918 272.595532 
L 119.956735 272.631588 
L 120.44396 272.694417 
L 124.016947 272.518321 
L 124.666581 272.599947 
L 125.316214 272.430765 
L 125.80344 272.475425 
L 126.128257 272.457271 
L 126.615482 272.577815 
L 127.589933 272.53354 
L 128.077159 272.556969 
L 128.564384 272.426937 
L 129.051609 272.455966 
L 129.538835 272.468085 
L 129.863652 272.439166 
L 130.838103 272.597098 
L 131.974962 272.631145 
L 134.086272 272.492533 
L 135.060723 272.508138 
L 140.257794 272.34721 
L 140.582611 272.314123 
L 140.907428 272.213687 
L 141.232245 272.237465 
L 141.557062 272.215935 
L 141.881879 272.148207 
L 142.206696 272.198131 
L 142.531513 272.212351 
L 143.343555 272.272106 
L 144.805232 272.106904 
L 145.454866 272.176599 
L 146.429316 272.120938 
L 146.916542 272.085141 
L 147.728584 272.074875 
L 148.703035 272.044514 
L 151.463979 272.115304 
L 151.951205 271.945197 
L 154.874557 272.10569 
L 156.011417 272.234907 
L 156.336234 272.208095 
L 158.934769 272.157166 
L 159.421995 272.124053 
L 160.071629 272.198744 
L 160.558854 272.185569 
L 163.969432 272.191017 
L 170.140954 272.671081 
L 171.277813 272.693098 
L 174.525983 272.671159 
L 175.175617 272.714967 
L 176.799702 272.727341 
L 177.286927 272.654867 
L 178.098969 272.663347 
L 178.423786 272.597093 
L 179.723054 272.589312 
L 180.21028 272.570134 
L 181.022322 272.624238 
L 182.808815 272.548489 
L 183.296041 272.590514 
L 186.056985 272.554227 
L 186.54421 272.548323 
L 191.254056 272.563124 
L 191.741282 272.530734 
L 192.878141 272.582551 
L 193.690183 272.618184 
L 195.639085 272.617073 
L 196.938353 272.746229 
L 198.400029 272.800404 
L 199.37448 272.815253 
L 213.504017 272.91876 
L 213.991243 272.936858 
L 214.478468 272.945512 
L 215.452919 273.009107 
L 221.78685 273.04562 
L 222.761301 273.066182 
L 224.222977 273.112694 
L 225.359836 273.130948 
L 226.659104 273.078345 
L 229.744865 273.176035 
L 231.206541 273.251396 
L 232.505809 273.283215 
L 233.317852 273.253949 
L 239.164557 273.399378 
L 240.788642 273.334909 
L 242.250318 273.350009 
L 243.06236 273.385731 
L 247.284981 273.410281 
L 253.294094 273.44611 
L 254.430954 273.426063 
L 260.11525 273.520061 
L 261.901744 273.561041 
L 262.713786 273.58019 
L 264.987505 273.593744 
L 267.098815 273.584771 
L 268.885308 273.635574 
L 270.996618 273.610937 
L 276.19369 273.612378 
L 276.843323 273.590295 
L 278.305 273.546527 
L 280.091493 273.544472 
L 281.553169 273.557387 
L 282.852437 273.55769 
L 283.66448 273.562384 
L 286.912649 273.61879 
L 288.699142 273.613109 
L 290.323227 273.66197 
L 291.460086 273.656501 
L 294.221031 273.695904 
L 305.427215 273.662634 
L 310.624287 273.654079 
L 314.034865 273.657895 
L 314.846907 273.634331 
L 317.283034 273.678966 
L 320.693612 273.65159 
L 321.99288 273.625561 
L 329.788487 273.464652 
L 332.224614 273.433052 
L 335.310375 273.449653 
L 336.122418 273.422031 
L 337.584094 273.477888 
L 338.883362 273.477767 
L 355.773843 273.658593 
L 357.560337 273.673786 
L 362.919816 273.664925 
L 364.381493 273.646785 
L 368.279296 273.65631 
L 369.740972 273.647725 
L 373.638776 273.63578 
L 374.938044 273.626234 
L 376.562128 273.62625 
L 379.323072 273.646532 
L 380.784749 273.629253 
L 388.255539 273.725834 
L 392.640568 273.662259 
L 393.777427 273.666642 
L 398.487273 273.529529 
L 398.487273 273.529529 
" clip-path="url(#p60f2f6a8ca)" style="fill: none; stroke-dasharray: 2,3.3; stroke-dashoffset: 0; stroke: #0000ff; stroke-width: 2"/>
   </g>
   <g id="line2d_17">
    <path d="M 73.832727 296.375206 
L 74.157544 299.022509 
L 74.482361 294.906296 
L 75.294404 288.498788 
L 75.456812 286.892172 
L 75.619221 287.12508 
L 75.781629 286.562987 
L 75.944037 286.991442 
L 76.268854 286.820363 
L 76.431263 286.273898 
L 76.593671 285.263664 
L 76.75608 285.901162 
L 77.080897 284.897184 
L 77.243305 285.512089 
L 77.405714 285.076878 
L 77.568122 283.579486 
L 77.730531 283.883241 
L 78.380165 281.804064 
L 78.704982 281.920529 
L 79.029799 280.941956 
L 79.192207 281.108216 
L 79.679432 279.916026 
L 80.166658 280.635732 
L 80.329066 280.401191 
L 80.653883 279.021702 
L 80.9787 279.672801 
L 81.141109 279.519374 
L 81.303517 279.159242 
L 81.465926 279.248629 
L 82.11556 278.06297 
L 82.277968 278.501271 
L 82.602785 278.265866 
L 82.765194 278.300945 
L 82.927602 277.708989 
L 83.09001 277.779854 
L 83.414827 277.264852 
L 83.577236 277.345182 
L 83.739644 277.558046 
L 83.902053 277.386437 
L 84.22687 276.643181 
L 84.551687 276.44891 
L 84.714095 276.533376 
L 85.038912 276.306158 
L 85.363729 276.081899 
L 85.526138 275.739257 
L 85.688546 275.841809 
L 86.013363 275.807094 
L 86.500588 276.290086 
L 86.662997 275.929267 
L 86.987814 276.222864 
L 87.150222 276.018714 
L 87.637448 276.238122 
L 87.962265 276.152003 
L 88.124673 276.241154 
L 88.44949 275.987812 
L 88.611899 275.725184 
L 88.774307 275.976195 
L 88.936716 275.788606 
L 89.099124 275.867054 
L 89.261533 275.56126 
L 89.423941 275.586714 
L 89.58635 275.264564 
L 91.210434 274.87592 
L 91.535251 274.947246 
L 91.69766 274.480311 
L 92.022477 274.590552 
L 92.509702 274.245972 
L 92.672111 274.247344 
L 92.834519 274.388527 
L 93.159336 274.252142 
L 93.321745 274.303441 
L 93.484153 274.145823 
L 93.80897 274.302364 
L 93.971378 274.390532 
L 94.296195 274.306927 
L 94.458604 273.990525 
L 94.621012 274.109066 
L 94.783421 274.078527 
L 94.945829 274.229314 
L 95.270646 274.157819 
L 95.433055 273.823168 
L 95.595463 273.971086 
L 96.082689 273.84502 
L 96.569914 273.371343 
L 96.894731 273.366572 
L 97.706773 273.414301 
L 98.03159 273.236861 
L 98.193999 273.171444 
L 98.518816 273.307795 
L 99.493267 273.154365 
L 99.655675 272.994021 
L 100.630126 273.216584 
L 101.117351 272.980352 
L 101.604577 273.180257 
L 101.929394 273.064245 
L 102.254211 273.133353 
L 102.416619 273.070308 
L 102.579028 273.136236 
L 103.066253 273.048733 
L 103.553479 273.107757 
L 103.715887 272.952617 
L 104.040704 273.025127 
L 104.365521 272.920969 
L 105.177563 273.049475 
L 105.339972 273.170133 
L 105.827197 272.828584 
L 105.989606 272.769599 
L 106.152014 272.579369 
L 106.314423 272.578166 
L 106.801648 272.261422 
L 107.288874 272.318122 
L 107.451282 272.112857 
L 108.100916 272.233126 
L 108.425733 272.052591 
L 110.374635 271.292129 
L 110.86186 271.309518 
L 111.024268 271.281098 
L 111.349085 271.478236 
L 111.836311 271.281377 
L 112.323536 271.193207 
L 112.485945 271.261728 
L 113.785213 270.827688 
L 114.759663 270.911502 
L 115.08448 270.905094 
L 115.734114 270.987352 
L 116.058931 270.910472 
L 116.870974 270.95525 
L 117.195791 271.035669 
L 117.520608 270.829333 
L 118.819875 271.029444 
L 119.307101 270.965256 
L 119.631918 271.103335 
L 120.119143 270.94921 
L 120.281552 270.977172 
L 120.44396 270.836369 
L 120.931186 270.877083 
L 121.256003 270.794248 
L 121.743228 270.746515 
L 122.230453 270.848685 
L 122.880087 270.731088 
L 123.042496 270.767022 
L 123.367313 270.633251 
L 123.854538 270.638524 
L 124.179355 270.509279 
L 124.341764 270.535762 
L 124.504172 270.409119 
L 124.991398 270.473947 
L 125.641031 270.259212 
L 126.128257 270.419285 
L 126.940299 270.293478 
L 128.726792 270.123064 
L 130.350877 270.263238 
L 132.137371 270.250067 
L 132.462187 270.196232 
L 132.787004 270.264307 
L 133.436638 270.185713 
L 135.060723 270.420705 
L 135.38554 270.274105 
L 136.359991 270.137148 
L 136.847216 270.208287 
L 145.454866 269.952152 
L 145.942091 269.989281 
L 146.266908 269.915943 
L 147.07895 269.924818 
L 147.403767 269.885044 
L 148.540627 269.809257 
L 153.088064 269.735326 
L 153.737698 269.59496 
L 154.54974 269.606275 
L 155.036966 269.624908 
L 155.524191 269.650175 
L 156.336234 269.485464 
L 158.447544 269.689526 
L 163.969432 269.669769 
L 166.730376 269.617463 
L 167.055193 269.596483 
L 167.867235 269.679416 
L 168.192052 269.685052 
L 168.679278 269.6849 
L 169.653729 269.673131 
L 170.303363 269.69159 
L 171.115405 269.717664 
L 171.927447 269.716856 
L 173.389124 269.685913 
L 173.876349 269.599076 
L 174.8508 269.626497 
L 176.799702 269.59621 
L 179.07342 269.388409 
L 179.560646 269.405238 
L 182.32159 269.353649 
L 183.296041 269.305869 
L 187.193844 269.151571 
L 189.305154 269.198532 
L 189.79238 269.210418 
L 191.578873 269.238497 
L 192.878141 269.217574 
L 195.801493 269.189574 
L 200.348931 269.26813 
L 201.48579 269.145782 
L 203.272283 269.161519 
L 204.246734 269.134251 
L 206.520453 269.194448 
L 207.657312 269.247344 
L 209.606214 269.113085 
L 211.879933 269.200592 
L 213.504017 269.20452 
L 219.025906 269.173986 
L 219.837948 269.107214 
L 221.299624 269.048716 
L 221.78685 269.029142 
L 228.770414 269.00886 
L 229.582457 269.069328 
L 237.215655 268.997509 
L 238.190106 269.031826 
L 239.651782 269.011532 
L 240.626233 268.967428 
L 241.600684 268.931262 
L 242.899952 268.953165 
L 245.498487 268.901389 
L 246.797755 268.952064 
L 261.739335 268.806636 
L 262.713786 268.852104 
L 264.500279 268.884895 
L 266.286772 268.889277 
L 267.423632 268.938549 
L 271.971069 268.779779 
L 275.868873 268.744249 
L 277.492957 268.752535 
L 278.305 268.680776 
L 280.41631 268.70579 
L 281.553169 268.744993 
L 284.476522 268.822246 
L 285.450973 268.803715 
L 289.348776 268.833839 
L 290.160819 268.810183 
L 293.896214 268.899829 
L 294.870664 268.87209 
L 296.332341 268.81453 
L 306.564075 268.729286 
L 309.000202 268.749541 
L 312.248371 268.775335 
L 313.872456 268.774186 
L 317.445443 268.830364 
L 327.514768 268.509291 
L 329.46367 268.556122 
L 332.224614 268.417272 
L 334.011107 268.434436 
L 335.310375 268.445667 
L 345.866926 268.494756 
L 346.678969 268.464794 
L 348.790279 268.391064 
L 349.927138 268.366844 
L 360.808506 268.315415 
L 361.782957 268.310169 
L 374.938044 268.187756 
L 377.698988 268.199797 
L 380.135115 268.216234 
L 382.408834 268.234748 
L 384.844961 268.268343 
L 386.306637 268.237881 
L 389.392398 268.279152 
L 392.640568 268.155079 
L 394.264652 268.146815 
L 396.538371 268.110577 
L 398.487273 267.998865 
L 398.487273 267.998865 
" clip-path="url(#p60f2f6a8ca)" style="fill: none; stroke-dasharray: 2,3.3; stroke-dashoffset: 0; stroke: #ffa500; stroke-width: 2"/>
   </g>
   <g id="patch_3">
    <path d="M 57.6 307.584 
L 57.6 41.472 
" style="fill: none; stroke: #000000; stroke-width: 0.8; stroke-linejoin: miter; stroke-linecap: square"/>
   </g>
   <g id="patch_4">
    <path d="M 414.72 307.584 
L 414.72 41.472 
" style="fill: none; stroke: #000000; stroke-width: 0.8; stroke-linejoin: miter; stroke-linecap: square"/>
   </g>
   <g id="patch_5">
    <path d="M 57.6 307.584 
L 414.72 307.584 
" style="fill: none; stroke: #000000; stroke-width: 0.8; stroke-linejoin: miter; stroke-linecap: square"/>
   </g>
   <g id="patch_6">
    <path d="M 57.6 41.472 
L 414.72 41.472 
" style="fill: none; stroke: #000000; stroke-width: 0.8; stroke-linejoin: miter; stroke-linecap: square"/>
   </g>
   <g id="text_18">
    <!-- Waiting Time Plot -->
    <g transform="translate(183.833438 8.2635)scale(0.12 -0.12)">
     <defs>
      <path id="DejaVuSans-50" d="M 1259 4147 
L 1259 2394 
L 2053 2394 
Q 2494 2394 2734 2622 
Q 2975 2850 2975 3272 
Q 2975 3691 2734 3919 
Q 2494 4147 2053 4147 
L 1259 4147 
z
M 628 4666 
L 2053 4666 
Q 2838 4666 3239 4311 
Q 3641 3956 3641 3272 
Q 3641 2581 3239 2228 
Q 2838 1875 2053 1875 
L 1259 1875 
L 1259 0 
L 628 0 
L 628 4666 
z
" transform="scale(0.015625)"/>
      <path id="DejaVuSans-6c" d="M 603 4863 
L 1178 4863 
L 1178 0 
L 603 0 
L 603 4863 
z
" transform="scale(0.015625)"/>
     </defs>
     <use xlink:href="#DejaVuSans-57"/>
     <use xlink:href="#DejaVuSans-61" x="92.501953"/>
     <use xlink:href="#DejaVuSans-69" x="153.78125"/>
     <use xlink:href="#DejaVuSans-74" x="181.564453"/>
     <use xlink:href="#DejaVuSans-69" x="220.773438"/>
     <use xlink:href="#DejaVuSans-6e" x="248.556641"/>
     <use xlink:href="#DejaVuSans-67" x="311.935547"/>
     <use xlink:href="#DejaVuSans-20" x="375.412109"/>
     <use xlink:href="#DejaVuSans-54" x="407.199219"/>
     <use xlink:href="#DejaVuSans-69" x="465.158203"/>
     <use xlink:href="#DejaVuSans-6d" x="492.941406"/>
     <use xlink:href="#DejaVuSans-65" x="590.353516"/>
     <use xlink:href="#DejaVuSans-20" x="651.876953"/>
     <use xlink:href="#DejaVuSans-50" x="683.664062"/>
     <use xlink:href="#DejaVuSans-6c" x="743.966797"/>
     <use xlink:href="#DejaVuSans-6f" x="771.75"/>
     <use xlink:href="#DejaVuSans-74" x="832.931641"/>
    </g>
    <!--  avg_d = 12.797044451530928  -->
    <g transform="translate(138.854062 21.700875)scale(0.12 -0.12)">
     <defs>
      <path id="DejaVuSans-76" d="M 191 3500 
L 800 3500 
L 1894 563 
L 2988 3500 
L 3597 3500 
L 2284 0 
L 1503 0 
L 191 3500 
z
" transform="scale(0.015625)"/>
      <path id="DejaVuSans-5f" d="M 3263 -1063 
L 3263 -1509 
L -63 -1509 
L -63 -1063 
L 3263 -1063 
z
" transform="scale(0.015625)"/>
      <path id="DejaVuSans-3d" d="M 678 2906 
L 4684 2906 
L 4684 2381 
L 678 2381 
L 678 2906 
z
M 678 1631 
L 4684 1631 
L 4684 1100 
L 678 1100 
L 678 1631 
z
" transform="scale(0.015625)"/>
      <path id="DejaVuSans-2e" d="M 684 794 
L 1344 794 
L 1344 0 
L 684 0 
L 684 794 
z
" transform="scale(0.015625)"/>
      <path id="DejaVuSans-39" d="M 703 97 
L 703 672 
Q 941 559 1184 500 
Q 1428 441 1663 441 
Q 2288 441 2617 861 
Q 2947 1281 2994 2138 
Q 2813 1869 2534 1725 
Q 2256 1581 1919 1581 
Q 1219 1581 811 2004 
Q 403 2428 403 3163 
Q 403 3881 828 4315 
Q 1253 4750 1959 4750 
Q 2769 4750 3195 4129 
Q 3622 3509 3622 2328 
Q 3622 1225 3098 567 
Q 2575 -91 1691 -91 
Q 1453 -91 1209 -44 
Q 966 3 703 97 
z
M 1959 2075 
Q 2384 2075 2632 2365 
Q 2881 2656 2881 3163 
Q 2881 3666 2632 3958 
Q 2384 4250 1959 4250 
Q 1534 4250 1286 3958 
Q 1038 3666 1038 3163 
Q 1038 2656 1286 2365 
Q 1534 2075 1959 2075 
z
" transform="scale(0.015625)"/>
      <path id="DejaVuSans-33" d="M 2597 2516 
Q 3050 2419 3304 2112 
Q 3559 1806 3559 1356 
Q 3559 666 3084 287 
Q 2609 -91 1734 -91 
Q 1441 -91 1130 -33 
Q 819 25 488 141 
L 488 750 
Q 750 597 1062 519 
Q 1375 441 1716 441 
Q 2309 441 2620 675 
Q 2931 909 2931 1356 
Q 2931 1769 2642 2001 
Q 2353 2234 1838 2234 
L 1294 2234 
L 1294 2753 
L 1863 2753 
Q 2328 2753 2575 2939 
Q 2822 3125 2822 3475 
Q 2822 3834 2567 4026 
Q 2313 4219 1838 4219 
Q 1578 4219 1281 4162 
Q 984 4106 628 3988 
L 628 4550 
Q 988 4650 1302 4700 
Q 1616 4750 1894 4750 
Q 2613 4750 3031 4423 
Q 3450 4097 3450 3541 
Q 3450 3153 3228 2886 
Q 3006 2619 2597 2516 
z
" transform="scale(0.015625)"/>
     </defs>
     <use xlink:href="#DejaVuSans-20"/>
     <use xlink:href="#DejaVuSans-61" x="31.787109"/>
     <use xlink:href="#DejaVuSans-76" x="93.066406"/>
     <use xlink:href="#DejaVuSans-67" x="152.246094"/>
     <use xlink:href="#DejaVuSans-5f" x="215.722656"/>
     <use xlink:href="#DejaVuSans-64" x="265.722656"/>
     <use xlink:href="#DejaVuSans-20" x="329.199219"/>
     <use xlink:href="#DejaVuSans-3d" x="360.986328"/>
     <use xlink:href="#DejaVuSans-20" x="444.775391"/>
     <use xlink:href="#DejaVuSans-31" x="476.5625"/>
     <use xlink:href="#DejaVuSans-32" x="540.185547"/>
     <use xlink:href="#DejaVuSans-2e" x="603.808594"/>
     <use xlink:href="#DejaVuSans-37" x="635.595703"/>
     <use xlink:href="#DejaVuSans-39" x="699.21875"/>
     <use xlink:href="#DejaVuSans-37" x="762.841797"/>
     <use xlink:href="#DejaVuSans-30" x="826.464844"/>
     <use xlink:href="#DejaVuSans-34" x="890.087891"/>
     <use xlink:href="#DejaVuSans-34" x="953.710938"/>
     <use xlink:href="#DejaVuSans-34" x="1017.333984"/>
     <use xlink:href="#DejaVuSans-35" x="1080.957031"/>
     <use xlink:href="#DejaVuSans-31" x="1144.580078"/>
     <use xlink:href="#DejaVuSans-35" x="1208.203125"/>
     <use xlink:href="#DejaVuSans-33" x="1271.826172"/>
     <use xlink:href="#DejaVuSans-30" x="1335.449219"/>
     <use xlink:href="#DejaVuSans-39" x="1399.072266"/>
     <use xlink:href="#DejaVuSans-32" x="1462.695312"/>
     <use xlink:href="#DejaVuSans-38" x="1526.318359"/>
     <use xlink:href="#DejaVuSans-20" x="1589.941406"/>
    </g>
    <!--  avg_a = 14.875366456216975diff = -2.078322004686047 -->
    <g transform="translate(57.199688 35.472)scale(0.12 -0.12)">
     <defs>
      <path id="DejaVuSans-2d" d="M 313 2009 
L 1997 2009 
L 1997 1497 
L 313 1497 
L 313 2009 
z
" transform="scale(0.015625)"/>
     </defs>
     <use xlink:href="#DejaVuSans-20"/>
     <use xlink:href="#DejaVuSans-61" x="31.787109"/>
     <use xlink:href="#DejaVuSans-76" x="93.066406"/>
     <use xlink:href="#DejaVuSans-67" x="152.246094"/>
     <use xlink:href="#DejaVuSans-5f" x="215.722656"/>
     <use xlink:href="#DejaVuSans-61" x="265.722656"/>
     <use xlink:href="#DejaVuSans-20" x="327.001953"/>
     <use xlink:href="#DejaVuSans-3d" x="358.789062"/>
     <use xlink:href="#DejaVuSans-20" x="442.578125"/>
     <use xlink:href="#DejaVuSans-31" x="474.365234"/>
     <use xlink:href="#DejaVuSans-34" x="537.988281"/>
     <use xlink:href="#DejaVuSans-2e" x="601.611328"/>
     <use xlink:href="#DejaVuSans-38" x="633.398438"/>
     <use xlink:href="#DejaVuSans-37" x="697.021484"/>
     <use xlink:href="#DejaVuSans-35" x="760.644531"/>
     <use xlink:href="#DejaVuSans-33" x="824.267578"/>
     <use xlink:href="#DejaVuSans-36" x="887.890625"/>
     <use xlink:href="#DejaVuSans-36" x="951.513672"/>
     <use xlink:href="#DejaVuSans-34" x="1015.136719"/>
     <use xlink:href="#DejaVuSans-35" x="1078.759766"/>
     <use xlink:href="#DejaVuSans-36" x="1142.382812"/>
     <use xlink:href="#DejaVuSans-32" x="1206.005859"/>
     <use xlink:href="#DejaVuSans-31" x="1269.628906"/>
     <use xlink:href="#DejaVuSans-36" x="1333.251953"/>
     <use xlink:href="#DejaVuSans-39" x="1396.875"/>
     <use xlink:href="#DejaVuSans-37" x="1460.498047"/>
     <use xlink:href="#DejaVuSans-35" x="1524.121094"/>
     <use xlink:href="#DejaVuSans-64" x="1587.744141"/>
     <use xlink:href="#DejaVuSans-69" x="1651.220703"/>
     <use xlink:href="#DejaVuSans-66" x="1679.003906"/>
     <use xlink:href="#DejaVuSans-66" x="1714.208984"/>
     <use xlink:href="#DejaVuSans-20" x="1749.414062"/>
     <use xlink:href="#DejaVuSans-3d" x="1781.201172"/>
     <use xlink:href="#DejaVuSans-20" x="1864.990234"/>
     <use xlink:href="#DejaVuSans-2d" x="1896.777344"/>
     <use xlink:href="#DejaVuSans-32" x="1932.861328"/>
     <use xlink:href="#DejaVuSans-2e" x="1996.484375"/>
     <use xlink:href="#DejaVuSans-30" x="2028.271484"/>
     <use xlink:href="#DejaVuSans-37" x="2091.894531"/>
     <use xlink:href="#DejaVuSans-38" x="2155.517578"/>
     <use xlink:href="#DejaVuSans-33" x="2219.140625"/>
     <use xlink:href="#DejaVuSans-32" x="2282.763672"/>
     <use xlink:href="#DejaVuSans-32" x="2346.386719"/>
     <use xlink:href="#DejaVuSans-30" x="2410.009766"/>
     <use xlink:href="#DejaVuSans-30" x="2473.632812"/>
     <use xlink:href="#DejaVuSans-34" x="2537.255859"/>
     <use xlink:href="#DejaVuSans-36" x="2600.878906"/>
     <use xlink:href="#DejaVuSans-38" x="2664.501953"/>
     <use xlink:href="#DejaVuSans-36" x="2728.125"/>
     <use xlink:href="#DejaVuSans-30" x="2791.748047"/>
     <use xlink:href="#DejaVuSans-34" x="2855.371094"/>
     <use xlink:href="#DejaVuSans-37" x="2918.994141"/>
    </g>
   </g>
   <g id="legend_1">
    <g id="patch_7">
     <path d="M 263.88875 78.82825 
L 407.72 78.82825 
Q 409.72 78.82825 409.72 76.82825 
L 409.72 48.472 
Q 409.72 46.472 407.72 46.472 
L 263.88875 46.472 
Q 261.88875 46.472 261.88875 48.472 
L 261.88875 76.82825 
Q 261.88875 78.82825 263.88875 78.82825 
z
" style="fill: #ffffff; opacity: 0.8; stroke: #cccccc; stroke-linejoin: miter"/>
    </g>
    <g id="line2d_18">
     <path d="M 265.88875 54.570437 
L 275.88875 54.570437 
L 285.88875 54.570437 
" style="fill: none; stroke-dasharray: 2,3.3; stroke-dashoffset: 0; stroke: #0000ff; stroke-width: 2"/>
    </g>
    <g id="text_19">
     <!-- Average (Default) -->
     <g transform="translate(293.88875 58.070437)scale(0.1 -0.1)">
      <defs>
       <path id="DejaVuSans-41" d="M 2188 4044 
L 1331 1722 
L 3047 1722 
L 2188 4044 
z
M 1831 4666 
L 2547 4666 
L 4325 0 
L 3669 0 
L 3244 1197 
L 1141 1197 
L 716 0 
L 50 0 
L 1831 4666 
z
" transform="scale(0.015625)"/>
       <path id="DejaVuSans-28" d="M 1984 4856 
Q 1566 4138 1362 3434 
Q 1159 2731 1159 2009 
Q 1159 1288 1364 580 
Q 1569 -128 1984 -844 
L 1484 -844 
Q 1016 -109 783 600 
Q 550 1309 550 2009 
Q 550 2706 781 3412 
Q 1013 4119 1484 4856 
L 1984 4856 
z
" transform="scale(0.015625)"/>
       <path id="DejaVuSans-44" d="M 1259 4147 
L 1259 519 
L 2022 519 
Q 2988 519 3436 956 
Q 3884 1394 3884 2338 
Q 3884 3275 3436 3711 
Q 2988 4147 2022 4147 
L 1259 4147 
z
M 628 4666 
L 1925 4666 
Q 3281 4666 3915 4102 
Q 4550 3538 4550 2338 
Q 4550 1131 3912 565 
Q 3275 0 1925 0 
L 628 0 
L 628 4666 
z
" transform="scale(0.015625)"/>
       <path id="DejaVuSans-29" d="M 513 4856 
L 1013 4856 
Q 1481 4119 1714 3412 
Q 1947 2706 1947 2009 
Q 1947 1309 1714 600 
Q 1481 -109 1013 -844 
L 513 -844 
Q 928 -128 1133 580 
Q 1338 1288 1338 2009 
Q 1338 2731 1133 3434 
Q 928 4138 513 4856 
z
" transform="scale(0.015625)"/>
      </defs>
      <use xlink:href="#DejaVuSans-41"/>
      <use xlink:href="#DejaVuSans-76" x="62.533203"/>
      <use xlink:href="#DejaVuSans-65" x="121.712891"/>
      <use xlink:href="#DejaVuSans-72" x="183.236328"/>
      <use xlink:href="#DejaVuSans-61" x="224.349609"/>
      <use xlink:href="#DejaVuSans-67" x="285.628906"/>
      <use xlink:href="#DejaVuSans-65" x="349.105469"/>
      <use xlink:href="#DejaVuSans-20" x="410.628906"/>
      <use xlink:href="#DejaVuSans-28" x="442.416016"/>
      <use xlink:href="#DejaVuSans-44" x="481.429688"/>
      <use xlink:href="#DejaVuSans-65" x="558.431641"/>
      <use xlink:href="#DejaVuSans-66" x="619.955078"/>
      <use xlink:href="#DejaVuSans-61" x="655.160156"/>
      <use xlink:href="#DejaVuSans-75" x="716.439453"/>
      <use xlink:href="#DejaVuSans-6c" x="779.818359"/>
      <use xlink:href="#DejaVuSans-74" x="807.601562"/>
      <use xlink:href="#DejaVuSans-29" x="846.810547"/>
     </g>
    </g>
    <g id="line2d_19">
     <path d="M 265.88875 69.248562 
L 275.88875 69.248562 
L 285.88875 69.248562 
" style="fill: none; stroke-dasharray: 2,3.3; stroke-dashoffset: 0; stroke: #ffa500; stroke-width: 2"/>
    </g>
    <g id="text_20">
     <!-- Average (Anticipation) -->
     <g transform="translate(293.88875 72.748562)scale(0.1 -0.1)">
      <defs>
       <path id="DejaVuSans-63" d="M 3122 3366 
L 3122 2828 
Q 2878 2963 2633 3030 
Q 2388 3097 2138 3097 
Q 1578 3097 1268 2742 
Q 959 2388 959 1747 
Q 959 1106 1268 751 
Q 1578 397 2138 397 
Q 2388 397 2633 464 
Q 2878 531 3122 666 
L 3122 134 
Q 2881 22 2623 -34 
Q 2366 -91 2075 -91 
Q 1284 -91 818 406 
Q 353 903 353 1747 
Q 353 2603 823 3093 
Q 1294 3584 2113 3584 
Q 2378 3584 2631 3529 
Q 2884 3475 3122 3366 
z
" transform="scale(0.015625)"/>
       <path id="DejaVuSans-70" d="M 1159 525 
L 1159 -1331 
L 581 -1331 
L 581 3500 
L 1159 3500 
L 1159 2969 
Q 1341 3281 1617 3432 
Q 1894 3584 2278 3584 
Q 2916 3584 3314 3078 
Q 3713 2572 3713 1747 
Q 3713 922 3314 415 
Q 2916 -91 2278 -91 
Q 1894 -91 1617 61 
Q 1341 213 1159 525 
z
M 3116 1747 
Q 3116 2381 2855 2742 
Q 2594 3103 2138 3103 
Q 1681 3103 1420 2742 
Q 1159 2381 1159 1747 
Q 1159 1113 1420 752 
Q 1681 391 2138 391 
Q 2594 391 2855 752 
Q 3116 1113 3116 1747 
z
" transform="scale(0.015625)"/>
      </defs>
      <use xlink:href="#DejaVuSans-41"/>
      <use xlink:href="#DejaVuSans-76" x="62.533203"/>
      <use xlink:href="#DejaVuSans-65" x="121.712891"/>
      <use xlink:href="#DejaVuSans-72" x="183.236328"/>
      <use xlink:href="#DejaVuSans-61" x="224.349609"/>
      <use xlink:href="#DejaVuSans-67" x="285.628906"/>
      <use xlink:href="#DejaVuSans-65" x="349.105469"/>
      <use xlink:href="#DejaVuSans-20" x="410.628906"/>
      <use xlink:href="#DejaVuSans-28" x="442.416016"/>
      <use xlink:href="#DejaVuSans-41" x="481.429688"/>
      <use xlink:href="#DejaVuSans-6e" x="549.837891"/>
      <use xlink:href="#DejaVuSans-74" x="613.216797"/>
      <use xlink:href="#DejaVuSans-69" x="652.425781"/>
      <use xlink:href="#DejaVuSans-63" x="680.208984"/>
      <use xlink:href="#DejaVuSans-69" x="735.189453"/>
      <use xlink:href="#DejaVuSans-70" x="762.972656"/>
      <use xlink:href="#DejaVuSans-61" x="826.449219"/>
      <use xlink:href="#DejaVuSans-74" x="887.728516"/>
      <use xlink:href="#DejaVuSans-69" x="926.9375"/>
      <use xlink:href="#DejaVuSans-6f" x="954.720703"/>
      <use xlink:href="#DejaVuSans-6e" x="1015.902344"/>
      <use xlink:href="#DejaVuSans-29" x="1079.28125"/>
     </g>
    </g>
   </g>
  </g>
 </g>
 <defs>
  <clipPath id="p60f2f6a8ca">
   <rect x="57.6" y="41.472" width="357.12" height="266.112"/>
  </clipPath>
 </defs>
</svg>
