<?xml version="1.0" encoding="utf-8" standalone="no"?>
<!DOCTYPE svg PUBLIC "-//W3C//DTD SVG 1.1//EN"
  "http://www.w3.org/Graphics/SVG/1.1/DTD/svg11.dtd">
<svg xmlns:xlink="http://www.w3.org/1999/xlink" width="460.8pt" height="345.6pt" viewBox="0 0 460.8 345.6" xmlns="http://www.w3.org/2000/svg" version="1.1">
 <metadata>
  <rdf:RDF xmlns:dc="http://purl.org/dc/elements/1.1/" xmlns:cc="http://creativecommons.org/ns#" xmlns:rdf="http://www.w3.org/1999/02/22-rdf-syntax-ns#">
   <cc:Work>
    <dc:type rdf:resource="http://purl.org/dc/dcmitype/StillImage"/>
    <dc:date>2022-11-07T15:53:24.134039</dc:date>
    <dc:format>image/svg+xml</dc:format>
    <dc:creator>
     <cc:Agent>
      <dc:title>Matplotlib v3.5.3, https://matplotlib.org/</dc:title>
     </cc:Agent>
    </dc:creator>
   </cc:Work>
  </rdf:RDF>
 </metadata>
 <defs>
  <style type="text/css">*{stroke-linejoin: round; stroke-linecap: butt}</style>
 </defs>
 <g id="figure_1">
  <g id="patch_1">
   <path d="M 0 345.6 
L 460.8 345.6 
L 460.8 0 
L 0 0 
z
" style="fill: #ffffff"/>
  </g>
  <g id="axes_1">
   <g id="patch_2">
    <path d="M 57.6 307.584 
L 414.72 307.584 
L 414.72 41.472 
L 57.6 41.472 
z
" style="fill: #ffffff"/>
   </g>
   <g id="matplotlib.axis_1">
    <g id="xtick_1">
     <g id="line2d_1">
      <defs>
       <path id="m427c79701d" d="M 0 0 
L 0 3.5 
" style="stroke: #000000; stroke-width: 0.8"/>
      </defs>
      <g>
       <use xlink:href="#m427c79701d" x="73.832727" y="307.584" style="stroke: #000000; stroke-width: 0.8"/>
      </g>
     </g>
     <g id="text_1">
      <!-- 0 -->
      <g transform="translate(70.651477 322.182437)scale(0.1 -0.1)">
       <defs>
        <path id="DejaVuSans-30" d="M 2034 4250 
Q 1547 4250 1301 3770 
Q 1056 3291 1056 2328 
Q 1056 1369 1301 889 
Q 1547 409 2034 409 
Q 2525 409 2770 889 
Q 3016 1369 3016 2328 
Q 3016 3291 2770 3770 
Q 2525 4250 2034 4250 
z
M 2034 4750 
Q 2819 4750 3233 4129 
Q 3647 3509 3647 2328 
Q 3647 1150 3233 529 
Q 2819 -91 2034 -91 
Q 1250 -91 836 529 
Q 422 1150 422 2328 
Q 422 3509 836 4129 
Q 1250 4750 2034 4750 
z
" transform="scale(0.015625)"/>
       </defs>
       <use xlink:href="#DejaVuSans-30"/>
      </g>
     </g>
    </g>
    <g id="xtick_2">
     <g id="line2d_2">
      <g>
       <use xlink:href="#m427c79701d" x="114.434847" y="307.584" style="stroke: #000000; stroke-width: 0.8"/>
      </g>
     </g>
     <g id="text_2">
      <!-- 250 -->
      <g transform="translate(104.891097 322.182437)scale(0.1 -0.1)">
       <defs>
        <path id="DejaVuSans-32" d="M 1228 531 
L 3431 531 
L 3431 0 
L 469 0 
L 469 531 
Q 828 903 1448 1529 
Q 2069 2156 2228 2338 
Q 2531 2678 2651 2914 
Q 2772 3150 2772 3378 
Q 2772 3750 2511 3984 
Q 2250 4219 1831 4219 
Q 1534 4219 1204 4116 
Q 875 4013 500 3803 
L 500 4441 
Q 881 4594 1212 4672 
Q 1544 4750 1819 4750 
Q 2544 4750 2975 4387 
Q 3406 4025 3406 3419 
Q 3406 3131 3298 2873 
Q 3191 2616 2906 2266 
Q 2828 2175 2409 1742 
Q 1991 1309 1228 531 
z
" transform="scale(0.015625)"/>
        <path id="DejaVuSans-35" d="M 691 4666 
L 3169 4666 
L 3169 4134 
L 1269 4134 
L 1269 2991 
Q 1406 3038 1543 3061 
Q 1681 3084 1819 3084 
Q 2600 3084 3056 2656 
Q 3513 2228 3513 1497 
Q 3513 744 3044 326 
Q 2575 -91 1722 -91 
Q 1428 -91 1123 -41 
Q 819 9 494 109 
L 494 744 
Q 775 591 1075 516 
Q 1375 441 1709 441 
Q 2250 441 2565 725 
Q 2881 1009 2881 1497 
Q 2881 1984 2565 2268 
Q 2250 2553 1709 2553 
Q 1456 2553 1204 2497 
Q 953 2441 691 2322 
L 691 4666 
z
" transform="scale(0.015625)"/>
       </defs>
       <use xlink:href="#DejaVuSans-32"/>
       <use xlink:href="#DejaVuSans-35" x="63.623047"/>
       <use xlink:href="#DejaVuSans-30" x="127.246094"/>
      </g>
     </g>
    </g>
    <g id="xtick_3">
     <g id="line2d_3">
      <g>
       <use xlink:href="#m427c79701d" x="155.036966" y="307.584" style="stroke: #000000; stroke-width: 0.8"/>
      </g>
     </g>
     <g id="text_3">
      <!-- 500 -->
      <g transform="translate(145.493216 322.182437)scale(0.1 -0.1)">
       <use xlink:href="#DejaVuSans-35"/>
       <use xlink:href="#DejaVuSans-30" x="63.623047"/>
       <use xlink:href="#DejaVuSans-30" x="127.246094"/>
      </g>
     </g>
    </g>
    <g id="xtick_4">
     <g id="line2d_4">
      <g>
       <use xlink:href="#m427c79701d" x="195.639085" y="307.584" style="stroke: #000000; stroke-width: 0.8"/>
      </g>
     </g>
     <g id="text_4">
      <!-- 750 -->
      <g transform="translate(186.095335 322.182437)scale(0.1 -0.1)">
       <defs>
        <path id="DejaVuSans-37" d="M 525 4666 
L 3525 4666 
L 3525 4397 
L 1831 0 
L 1172 0 
L 2766 4134 
L 525 4134 
L 525 4666 
z
" transform="scale(0.015625)"/>
       </defs>
       <use xlink:href="#DejaVuSans-37"/>
       <use xlink:href="#DejaVuSans-35" x="63.623047"/>
       <use xlink:href="#DejaVuSans-30" x="127.246094"/>
      </g>
     </g>
    </g>
    <g id="xtick_5">
     <g id="line2d_5">
      <g>
       <use xlink:href="#m427c79701d" x="236.241204" y="307.584" style="stroke: #000000; stroke-width: 0.8"/>
      </g>
     </g>
     <g id="text_5">
      <!-- 1000 -->
      <g transform="translate(223.516204 322.182437)scale(0.1 -0.1)">
       <defs>
        <path id="DejaVuSans-31" d="M 794 531 
L 1825 531 
L 1825 4091 
L 703 3866 
L 703 4441 
L 1819 4666 
L 2450 4666 
L 2450 531 
L 3481 531 
L 3481 0 
L 794 0 
L 794 531 
z
" transform="scale(0.015625)"/>
       </defs>
       <use xlink:href="#DejaVuSans-31"/>
       <use xlink:href="#DejaVuSans-30" x="63.623047"/>
       <use xlink:href="#DejaVuSans-30" x="127.246094"/>
       <use xlink:href="#DejaVuSans-30" x="190.869141"/>
      </g>
     </g>
    </g>
    <g id="xtick_6">
     <g id="line2d_6">
      <g>
       <use xlink:href="#m427c79701d" x="276.843323" y="307.584" style="stroke: #000000; stroke-width: 0.8"/>
      </g>
     </g>
     <g id="text_6">
      <!-- 1250 -->
      <g transform="translate(264.118323 322.182437)scale(0.1 -0.1)">
       <use xlink:href="#DejaVuSans-31"/>
       <use xlink:href="#DejaVuSans-32" x="63.623047"/>
       <use xlink:href="#DejaVuSans-35" x="127.246094"/>
       <use xlink:href="#DejaVuSans-30" x="190.869141"/>
      </g>
     </g>
    </g>
    <g id="xtick_7">
     <g id="line2d_7">
      <g>
       <use xlink:href="#m427c79701d" x="317.445443" y="307.584" style="stroke: #000000; stroke-width: 0.8"/>
      </g>
     </g>
     <g id="text_7">
      <!-- 1500 -->
      <g transform="translate(304.720443 322.182437)scale(0.1 -0.1)">
       <use xlink:href="#DejaVuSans-31"/>
       <use xlink:href="#DejaVuSans-35" x="63.623047"/>
       <use xlink:href="#DejaVuSans-30" x="127.246094"/>
       <use xlink:href="#DejaVuSans-30" x="190.869141"/>
      </g>
     </g>
    </g>
    <g id="xtick_8">
     <g id="line2d_8">
      <g>
       <use xlink:href="#m427c79701d" x="358.047562" y="307.584" style="stroke: #000000; stroke-width: 0.8"/>
      </g>
     </g>
     <g id="text_8">
      <!-- 1750 -->
      <g transform="translate(345.322562 322.182437)scale(0.1 -0.1)">
       <use xlink:href="#DejaVuSans-31"/>
       <use xlink:href="#DejaVuSans-37" x="63.623047"/>
       <use xlink:href="#DejaVuSans-35" x="127.246094"/>
       <use xlink:href="#DejaVuSans-30" x="190.869141"/>
      </g>
     </g>
    </g>
    <g id="xtick_9">
     <g id="line2d_9">
      <g>
       <use xlink:href="#m427c79701d" x="398.649681" y="307.584" style="stroke: #000000; stroke-width: 0.8"/>
      </g>
     </g>
     <g id="text_9">
      <!-- 2000 -->
      <g transform="translate(385.924681 322.182437)scale(0.1 -0.1)">
       <use xlink:href="#DejaVuSans-32"/>
       <use xlink:href="#DejaVuSans-30" x="63.623047"/>
       <use xlink:href="#DejaVuSans-30" x="127.246094"/>
       <use xlink:href="#DejaVuSans-30" x="190.869141"/>
      </g>
     </g>
    </g>
    <g id="text_10">
     <!-- Number of Orders -->
     <g transform="translate(191.261562 335.860562)scale(0.1 -0.1)">
      <defs>
       <path id="DejaVuSans-4e" d="M 628 4666 
L 1478 4666 
L 3547 763 
L 3547 4666 
L 4159 4666 
L 4159 0 
L 3309 0 
L 1241 3903 
L 1241 0 
L 628 0 
L 628 4666 
z
" transform="scale(0.015625)"/>
       <path id="DejaVuSans-75" d="M 544 1381 
L 544 3500 
L 1119 3500 
L 1119 1403 
Q 1119 906 1312 657 
Q 1506 409 1894 409 
Q 2359 409 2629 706 
Q 2900 1003 2900 1516 
L 2900 3500 
L 3475 3500 
L 3475 0 
L 2900 0 
L 2900 538 
Q 2691 219 2414 64 
Q 2138 -91 1772 -91 
Q 1169 -91 856 284 
Q 544 659 544 1381 
z
M 1991 3584 
L 1991 3584 
z
" transform="scale(0.015625)"/>
       <path id="DejaVuSans-6d" d="M 3328 2828 
Q 3544 3216 3844 3400 
Q 4144 3584 4550 3584 
Q 5097 3584 5394 3201 
Q 5691 2819 5691 2113 
L 5691 0 
L 5113 0 
L 5113 2094 
Q 5113 2597 4934 2840 
Q 4756 3084 4391 3084 
Q 3944 3084 3684 2787 
Q 3425 2491 3425 1978 
L 3425 0 
L 2847 0 
L 2847 2094 
Q 2847 2600 2669 2842 
Q 2491 3084 2119 3084 
Q 1678 3084 1418 2786 
Q 1159 2488 1159 1978 
L 1159 0 
L 581 0 
L 581 3500 
L 1159 3500 
L 1159 2956 
Q 1356 3278 1631 3431 
Q 1906 3584 2284 3584 
Q 2666 3584 2933 3390 
Q 3200 3197 3328 2828 
z
" transform="scale(0.015625)"/>
       <path id="DejaVuSans-62" d="M 3116 1747 
Q 3116 2381 2855 2742 
Q 2594 3103 2138 3103 
Q 1681 3103 1420 2742 
Q 1159 2381 1159 1747 
Q 1159 1113 1420 752 
Q 1681 391 2138 391 
Q 2594 391 2855 752 
Q 3116 1113 3116 1747 
z
M 1159 2969 
Q 1341 3281 1617 3432 
Q 1894 3584 2278 3584 
Q 2916 3584 3314 3078 
Q 3713 2572 3713 1747 
Q 3713 922 3314 415 
Q 2916 -91 2278 -91 
Q 1894 -91 1617 61 
Q 1341 213 1159 525 
L 1159 0 
L 581 0 
L 581 4863 
L 1159 4863 
L 1159 2969 
z
" transform="scale(0.015625)"/>
       <path id="DejaVuSans-65" d="M 3597 1894 
L 3597 1613 
L 953 1613 
Q 991 1019 1311 708 
Q 1631 397 2203 397 
Q 2534 397 2845 478 
Q 3156 559 3463 722 
L 3463 178 
Q 3153 47 2828 -22 
Q 2503 -91 2169 -91 
Q 1331 -91 842 396 
Q 353 884 353 1716 
Q 353 2575 817 3079 
Q 1281 3584 2069 3584 
Q 2775 3584 3186 3129 
Q 3597 2675 3597 1894 
z
M 3022 2063 
Q 3016 2534 2758 2815 
Q 2500 3097 2075 3097 
Q 1594 3097 1305 2825 
Q 1016 2553 972 2059 
L 3022 2063 
z
" transform="scale(0.015625)"/>
       <path id="DejaVuSans-72" d="M 2631 2963 
Q 2534 3019 2420 3045 
Q 2306 3072 2169 3072 
Q 1681 3072 1420 2755 
Q 1159 2438 1159 1844 
L 1159 0 
L 581 0 
L 581 3500 
L 1159 3500 
L 1159 2956 
Q 1341 3275 1631 3429 
Q 1922 3584 2338 3584 
Q 2397 3584 2469 3576 
Q 2541 3569 2628 3553 
L 2631 2963 
z
" transform="scale(0.015625)"/>
       <path id="DejaVuSans-20" transform="scale(0.015625)"/>
       <path id="DejaVuSans-6f" d="M 1959 3097 
Q 1497 3097 1228 2736 
Q 959 2375 959 1747 
Q 959 1119 1226 758 
Q 1494 397 1959 397 
Q 2419 397 2687 759 
Q 2956 1122 2956 1747 
Q 2956 2369 2687 2733 
Q 2419 3097 1959 3097 
z
M 1959 3584 
Q 2709 3584 3137 3096 
Q 3566 2609 3566 1747 
Q 3566 888 3137 398 
Q 2709 -91 1959 -91 
Q 1206 -91 779 398 
Q 353 888 353 1747 
Q 353 2609 779 3096 
Q 1206 3584 1959 3584 
z
" transform="scale(0.015625)"/>
       <path id="DejaVuSans-66" d="M 2375 4863 
L 2375 4384 
L 1825 4384 
Q 1516 4384 1395 4259 
Q 1275 4134 1275 3809 
L 1275 3500 
L 2222 3500 
L 2222 3053 
L 1275 3053 
L 1275 0 
L 697 0 
L 697 3053 
L 147 3053 
L 147 3500 
L 697 3500 
L 697 3744 
Q 697 4328 969 4595 
Q 1241 4863 1831 4863 
L 2375 4863 
z
" transform="scale(0.015625)"/>
       <path id="DejaVuSans-4f" d="M 2522 4238 
Q 1834 4238 1429 3725 
Q 1025 3213 1025 2328 
Q 1025 1447 1429 934 
Q 1834 422 2522 422 
Q 3209 422 3611 934 
Q 4013 1447 4013 2328 
Q 4013 3213 3611 3725 
Q 3209 4238 2522 4238 
z
M 2522 4750 
Q 3503 4750 4090 4092 
Q 4678 3434 4678 2328 
Q 4678 1225 4090 567 
Q 3503 -91 2522 -91 
Q 1538 -91 948 565 
Q 359 1222 359 2328 
Q 359 3434 948 4092 
Q 1538 4750 2522 4750 
z
" transform="scale(0.015625)"/>
       <path id="DejaVuSans-64" d="M 2906 2969 
L 2906 4863 
L 3481 4863 
L 3481 0 
L 2906 0 
L 2906 525 
Q 2725 213 2448 61 
Q 2172 -91 1784 -91 
Q 1150 -91 751 415 
Q 353 922 353 1747 
Q 353 2572 751 3078 
Q 1150 3584 1784 3584 
Q 2172 3584 2448 3432 
Q 2725 3281 2906 2969 
z
M 947 1747 
Q 947 1113 1208 752 
Q 1469 391 1925 391 
Q 2381 391 2643 752 
Q 2906 1113 2906 1747 
Q 2906 2381 2643 2742 
Q 2381 3103 1925 3103 
Q 1469 3103 1208 2742 
Q 947 2381 947 1747 
z
" transform="scale(0.015625)"/>
       <path id="DejaVuSans-73" d="M 2834 3397 
L 2834 2853 
Q 2591 2978 2328 3040 
Q 2066 3103 1784 3103 
Q 1356 3103 1142 2972 
Q 928 2841 928 2578 
Q 928 2378 1081 2264 
Q 1234 2150 1697 2047 
L 1894 2003 
Q 2506 1872 2764 1633 
Q 3022 1394 3022 966 
Q 3022 478 2636 193 
Q 2250 -91 1575 -91 
Q 1294 -91 989 -36 
Q 684 19 347 128 
L 347 722 
Q 666 556 975 473 
Q 1284 391 1588 391 
Q 1994 391 2212 530 
Q 2431 669 2431 922 
Q 2431 1156 2273 1281 
Q 2116 1406 1581 1522 
L 1381 1569 
Q 847 1681 609 1914 
Q 372 2147 372 2553 
Q 372 3047 722 3315 
Q 1072 3584 1716 3584 
Q 2034 3584 2315 3537 
Q 2597 3491 2834 3397 
z
" transform="scale(0.015625)"/>
      </defs>
      <use xlink:href="#DejaVuSans-4e"/>
      <use xlink:href="#DejaVuSans-75" x="74.804688"/>
      <use xlink:href="#DejaVuSans-6d" x="138.183594"/>
      <use xlink:href="#DejaVuSans-62" x="235.595703"/>
      <use xlink:href="#DejaVuSans-65" x="299.072266"/>
      <use xlink:href="#DejaVuSans-72" x="360.595703"/>
      <use xlink:href="#DejaVuSans-20" x="401.708984"/>
      <use xlink:href="#DejaVuSans-6f" x="433.496094"/>
      <use xlink:href="#DejaVuSans-66" x="494.677734"/>
      <use xlink:href="#DejaVuSans-20" x="529.882812"/>
      <use xlink:href="#DejaVuSans-4f" x="561.669922"/>
      <use xlink:href="#DejaVuSans-72" x="640.380859"/>
      <use xlink:href="#DejaVuSans-64" x="679.744141"/>
      <use xlink:href="#DejaVuSans-65" x="743.220703"/>
      <use xlink:href="#DejaVuSans-72" x="804.744141"/>
      <use xlink:href="#DejaVuSans-73" x="845.857422"/>
     </g>
    </g>
   </g>
   <g id="matplotlib.axis_2">
    <g id="ytick_1">
     <g id="line2d_10">
      <defs>
       <path id="m7ff2586637" d="M 0 0 
L -3.5 0 
" style="stroke: #000000; stroke-width: 0.8"/>
      </defs>
      <g>
       <use xlink:href="#m7ff2586637" x="57.6" y="307.584" style="stroke: #000000; stroke-width: 0.8"/>
      </g>
     </g>
     <g id="text_11">
      <!-- 0 -->
      <g transform="translate(44.2375 311.383219)scale(0.1 -0.1)">
       <use xlink:href="#DejaVuSans-30"/>
      </g>
     </g>
    </g>
    <g id="ytick_2">
     <g id="line2d_11">
      <g>
       <use xlink:href="#m7ff2586637" x="57.6" y="254.3616" style="stroke: #000000; stroke-width: 0.8"/>
      </g>
     </g>
     <g id="text_12">
      <!-- 20 -->
      <g transform="translate(37.875 258.160819)scale(0.1 -0.1)">
       <use xlink:href="#DejaVuSans-32"/>
       <use xlink:href="#DejaVuSans-30" x="63.623047"/>
      </g>
     </g>
    </g>
    <g id="ytick_3">
     <g id="line2d_12">
      <g>
       <use xlink:href="#m7ff2586637" x="57.6" y="201.1392" style="stroke: #000000; stroke-width: 0.8"/>
      </g>
     </g>
     <g id="text_13">
      <!-- 40 -->
      <g transform="translate(37.875 204.938419)scale(0.1 -0.1)">
       <defs>
        <path id="DejaVuSans-34" d="M 2419 4116 
L 825 1625 
L 2419 1625 
L 2419 4116 
z
M 2253 4666 
L 3047 4666 
L 3047 1625 
L 3713 1625 
L 3713 1100 
L 3047 1100 
L 3047 0 
L 2419 0 
L 2419 1100 
L 313 1100 
L 313 1709 
L 2253 4666 
z
" transform="scale(0.015625)"/>
       </defs>
       <use xlink:href="#DejaVuSans-34"/>
       <use xlink:href="#DejaVuSans-30" x="63.623047"/>
      </g>
     </g>
    </g>
    <g id="ytick_4">
     <g id="line2d_13">
      <g>
       <use xlink:href="#m7ff2586637" x="57.6" y="147.9168" style="stroke: #000000; stroke-width: 0.8"/>
      </g>
     </g>
     <g id="text_14">
      <!-- 60 -->
      <g transform="translate(37.875 151.716019)scale(0.1 -0.1)">
       <defs>
        <path id="DejaVuSans-36" d="M 2113 2584 
Q 1688 2584 1439 2293 
Q 1191 2003 1191 1497 
Q 1191 994 1439 701 
Q 1688 409 2113 409 
Q 2538 409 2786 701 
Q 3034 994 3034 1497 
Q 3034 2003 2786 2293 
Q 2538 2584 2113 2584 
z
M 3366 4563 
L 3366 3988 
Q 3128 4100 2886 4159 
Q 2644 4219 2406 4219 
Q 1781 4219 1451 3797 
Q 1122 3375 1075 2522 
Q 1259 2794 1537 2939 
Q 1816 3084 2150 3084 
Q 2853 3084 3261 2657 
Q 3669 2231 3669 1497 
Q 3669 778 3244 343 
Q 2819 -91 2113 -91 
Q 1303 -91 875 529 
Q 447 1150 447 2328 
Q 447 3434 972 4092 
Q 1497 4750 2381 4750 
Q 2619 4750 2861 4703 
Q 3103 4656 3366 4563 
z
" transform="scale(0.015625)"/>
       </defs>
       <use xlink:href="#DejaVuSans-36"/>
       <use xlink:href="#DejaVuSans-30" x="63.623047"/>
      </g>
     </g>
    </g>
    <g id="ytick_5">
     <g id="line2d_14">
      <g>
       <use xlink:href="#m7ff2586637" x="57.6" y="94.6944" style="stroke: #000000; stroke-width: 0.8"/>
      </g>
     </g>
     <g id="text_15">
      <!-- 80 -->
      <g transform="translate(37.875 98.493619)scale(0.1 -0.1)">
       <defs>
        <path id="DejaVuSans-38" d="M 2034 2216 
Q 1584 2216 1326 1975 
Q 1069 1734 1069 1313 
Q 1069 891 1326 650 
Q 1584 409 2034 409 
Q 2484 409 2743 651 
Q 3003 894 3003 1313 
Q 3003 1734 2745 1975 
Q 2488 2216 2034 2216 
z
M 1403 2484 
Q 997 2584 770 2862 
Q 544 3141 544 3541 
Q 544 4100 942 4425 
Q 1341 4750 2034 4750 
Q 2731 4750 3128 4425 
Q 3525 4100 3525 3541 
Q 3525 3141 3298 2862 
Q 3072 2584 2669 2484 
Q 3125 2378 3379 2068 
Q 3634 1759 3634 1313 
Q 3634 634 3220 271 
Q 2806 -91 2034 -91 
Q 1263 -91 848 271 
Q 434 634 434 1313 
Q 434 1759 690 2068 
Q 947 2378 1403 2484 
z
M 1172 3481 
Q 1172 3119 1398 2916 
Q 1625 2713 2034 2713 
Q 2441 2713 2670 2916 
Q 2900 3119 2900 3481 
Q 2900 3844 2670 4047 
Q 2441 4250 2034 4250 
Q 1625 4250 1398 4047 
Q 1172 3844 1172 3481 
z
" transform="scale(0.015625)"/>
       </defs>
       <use xlink:href="#DejaVuSans-38"/>
       <use xlink:href="#DejaVuSans-30" x="63.623047"/>
      </g>
     </g>
    </g>
    <g id="ytick_6">
     <g id="line2d_15">
      <g>
       <use xlink:href="#m7ff2586637" x="57.6" y="41.472" style="stroke: #000000; stroke-width: 0.8"/>
      </g>
     </g>
     <g id="text_16">
      <!-- 100 -->
      <g transform="translate(31.5125 45.271219)scale(0.1 -0.1)">
       <use xlink:href="#DejaVuSans-31"/>
       <use xlink:href="#DejaVuSans-30" x="63.623047"/>
       <use xlink:href="#DejaVuSans-30" x="127.246094"/>
      </g>
     </g>
    </g>
    <g id="text_17">
     <!-- Waiting Time/s -->
     <g transform="translate(25.432812 211.410031)rotate(-90)scale(0.1 -0.1)">
      <defs>
       <path id="DejaVuSans-57" d="M 213 4666 
L 850 4666 
L 1831 722 
L 2809 4666 
L 3519 4666 
L 4500 722 
L 5478 4666 
L 6119 4666 
L 4947 0 
L 4153 0 
L 3169 4050 
L 2175 0 
L 1381 0 
L 213 4666 
z
" transform="scale(0.015625)"/>
       <path id="DejaVuSans-61" d="M 2194 1759 
Q 1497 1759 1228 1600 
Q 959 1441 959 1056 
Q 959 750 1161 570 
Q 1363 391 1709 391 
Q 2188 391 2477 730 
Q 2766 1069 2766 1631 
L 2766 1759 
L 2194 1759 
z
M 3341 1997 
L 3341 0 
L 2766 0 
L 2766 531 
Q 2569 213 2275 61 
Q 1981 -91 1556 -91 
Q 1019 -91 701 211 
Q 384 513 384 1019 
Q 384 1609 779 1909 
Q 1175 2209 1959 2209 
L 2766 2209 
L 2766 2266 
Q 2766 2663 2505 2880 
Q 2244 3097 1772 3097 
Q 1472 3097 1187 3025 
Q 903 2953 641 2809 
L 641 3341 
Q 956 3463 1253 3523 
Q 1550 3584 1831 3584 
Q 2591 3584 2966 3190 
Q 3341 2797 3341 1997 
z
" transform="scale(0.015625)"/>
       <path id="DejaVuSans-69" d="M 603 3500 
L 1178 3500 
L 1178 0 
L 603 0 
L 603 3500 
z
M 603 4863 
L 1178 4863 
L 1178 4134 
L 603 4134 
L 603 4863 
z
" transform="scale(0.015625)"/>
       <path id="DejaVuSans-74" d="M 1172 4494 
L 1172 3500 
L 2356 3500 
L 2356 3053 
L 1172 3053 
L 1172 1153 
Q 1172 725 1289 603 
Q 1406 481 1766 481 
L 2356 481 
L 2356 0 
L 1766 0 
Q 1100 0 847 248 
Q 594 497 594 1153 
L 594 3053 
L 172 3053 
L 172 3500 
L 594 3500 
L 594 4494 
L 1172 4494 
z
" transform="scale(0.015625)"/>
       <path id="DejaVuSans-6e" d="M 3513 2113 
L 3513 0 
L 2938 0 
L 2938 2094 
Q 2938 2591 2744 2837 
Q 2550 3084 2163 3084 
Q 1697 3084 1428 2787 
Q 1159 2491 1159 1978 
L 1159 0 
L 581 0 
L 581 3500 
L 1159 3500 
L 1159 2956 
Q 1366 3272 1645 3428 
Q 1925 3584 2291 3584 
Q 2894 3584 3203 3211 
Q 3513 2838 3513 2113 
z
" transform="scale(0.015625)"/>
       <path id="DejaVuSans-67" d="M 2906 1791 
Q 2906 2416 2648 2759 
Q 2391 3103 1925 3103 
Q 1463 3103 1205 2759 
Q 947 2416 947 1791 
Q 947 1169 1205 825 
Q 1463 481 1925 481 
Q 2391 481 2648 825 
Q 2906 1169 2906 1791 
z
M 3481 434 
Q 3481 -459 3084 -895 
Q 2688 -1331 1869 -1331 
Q 1566 -1331 1297 -1286 
Q 1028 -1241 775 -1147 
L 775 -588 
Q 1028 -725 1275 -790 
Q 1522 -856 1778 -856 
Q 2344 -856 2625 -561 
Q 2906 -266 2906 331 
L 2906 616 
Q 2728 306 2450 153 
Q 2172 0 1784 0 
Q 1141 0 747 490 
Q 353 981 353 1791 
Q 353 2603 747 3093 
Q 1141 3584 1784 3584 
Q 2172 3584 2450 3431 
Q 2728 3278 2906 2969 
L 2906 3500 
L 3481 3500 
L 3481 434 
z
" transform="scale(0.015625)"/>
       <path id="DejaVuSans-54" d="M -19 4666 
L 3928 4666 
L 3928 4134 
L 2272 4134 
L 2272 0 
L 1638 0 
L 1638 4134 
L -19 4134 
L -19 4666 
z
" transform="scale(0.015625)"/>
       <path id="DejaVuSans-2f" d="M 1625 4666 
L 2156 4666 
L 531 -594 
L 0 -594 
L 1625 4666 
z
" transform="scale(0.015625)"/>
      </defs>
      <use xlink:href="#DejaVuSans-57"/>
      <use xlink:href="#DejaVuSans-61" x="92.501953"/>
      <use xlink:href="#DejaVuSans-69" x="153.78125"/>
      <use xlink:href="#DejaVuSans-74" x="181.564453"/>
      <use xlink:href="#DejaVuSans-69" x="220.773438"/>
      <use xlink:href="#DejaVuSans-6e" x="248.556641"/>
      <use xlink:href="#DejaVuSans-67" x="311.935547"/>
      <use xlink:href="#DejaVuSans-20" x="375.412109"/>
      <use xlink:href="#DejaVuSans-54" x="407.199219"/>
      <use xlink:href="#DejaVuSans-69" x="465.158203"/>
      <use xlink:href="#DejaVuSans-6d" x="492.941406"/>
      <use xlink:href="#DejaVuSans-65" x="590.353516"/>
      <use xlink:href="#DejaVuSans-2f" x="651.876953"/>
      <use xlink:href="#DejaVuSans-73" x="685.568359"/>
     </g>
    </g>
   </g>
   <g id="line2d_16">
    <path d="M 73.832727 291.724753 
L 73.995136 288.825818 
L 74.157544 289.040602 
L 74.319953 287.818085 
L 74.482361 285.220794 
L 74.64477 285.204217 
L 74.807178 283.635475 
L 74.969587 283.190628 
L 75.131995 282.149641 
L 75.294404 281.89934 
L 75.456812 281.210584 
L 75.619221 281.040974 
L 75.781629 281.356016 
L 76.106446 279.369097 
L 76.268854 279.545059 
L 76.431263 279.142697 
L 76.593671 279.62283 
L 76.75608 279.342906 
L 76.918488 279.345482 
L 77.243305 277.398628 
L 77.405714 277.425207 
L 77.568122 276.527702 
L 77.730531 276.427722 
L 78.217756 274.828462 
L 78.542573 274.496125 
L 78.704982 273.427908 
L 78.86739 273.322375 
L 79.029799 272.606507 
L 79.192207 272.496612 
L 79.517024 270.282653 
L 79.679432 270.257362 
L 80.166658 268.971253 
L 80.329066 268.139606 
L 80.491475 268.021964 
L 81.141109 266.772772 
L 82.765194 261.683229 
L 82.927602 261.525316 
L 83.252419 260.866879 
L 83.414827 260.755892 
L 83.739644 259.998059 
L 85.038912 255.972889 
L 85.201321 255.787104 
L 85.688546 254.305709 
L 86.33818 252.62494 
L 86.662997 252.06206 
L 87.475039 250.417037 
L 87.962265 249.739086 
L 89.261533 246.859852 
L 89.423941 246.605624 
L 90.5608 243.364538 
L 91.210434 241.562627 
L 92.184885 238.933884 
L 96.569914 227.129815 
L 97.057139 225.717506 
L 98.356407 222.366524 
L 98.843633 221.032687 
L 100.630126 216.926028 
L 101.766985 214.025036 
L 102.741436 211.705511 
L 103.878296 208.922261 
L 104.203112 208.243597 
L 104.527929 207.273493 
L 105.664789 204.505873 
L 108.100916 199.151595 
L 108.75055 197.680456 
L 119.469509 172.682751 
L 119.956735 171.477634 
L 120.606369 170.008049 
L 122.880087 164.765255 
L 124.666581 160.705267 
L 126.453074 156.858818 
L 128.726792 151.601303 
L 132.462187 143.448478 
L 133.27423 141.57359 
L 135.710357 136.191963 
L 137.659259 131.769599 
L 147.728584 109.918114 
L 176.96211 40.944766 
L 177.936561 38.734077 
L 181.184731 31.345596 
L 187.518661 16.67508 
L 192.228507 5.960196 
L 194.015 1.847194 
L 195.267486 -1 
L 195.267486 -1 
" clip-path="url(#p0aea1beb89)" style="fill: none; stroke-dasharray: 2,3.3; stroke-dashoffset: 0; stroke: #0000ff; stroke-width: 2"/>
   </g>
   <g id="line2d_17">
    <path d="M 73.832727 291.724753 
L 73.995136 288.825818 
L 74.157544 289.040602 
L 74.319953 287.818085 
L 74.482361 285.220794 
L 74.64477 285.204217 
L 74.807178 284.614169 
L 74.969587 283.315276 
L 75.131995 284.870874 
L 75.456812 283.391477 
L 75.781629 282.394858 
L 75.944037 282.531398 
L 76.106446 283.529188 
L 76.268854 283.588567 
L 76.431263 282.525451 
L 76.593671 282.200124 
L 76.75608 281.420783 
L 76.918488 281.788858 
L 77.080897 281.465823 
L 77.243305 280.890708 
L 77.405714 281.131634 
L 77.568122 280.064281 
L 77.730531 279.90005 
L 77.892939 279.568959 
L 78.055348 278.969351 
L 78.217756 278.923318 
L 78.380165 279.315841 
L 79.192207 277.200802 
L 79.354615 277.673345 
L 79.841841 275.906294 
L 80.004249 275.755871 
L 80.166658 275.852683 
L 80.329066 275.406186 
L 80.491475 275.712797 
L 80.653883 275.698823 
L 80.9787 274.865855 
L 81.141109 275.318209 
L 81.303517 275.178983 
L 81.628334 274.637515 
L 81.953151 274.34345 
L 82.11556 274.753087 
L 82.440377 274.077716 
L 82.602785 274.210338 
L 83.09001 274.051017 
L 83.252419 273.479354 
L 83.414827 273.475854 
L 83.739644 272.705528 
L 84.22687 272.03213 
L 84.551687 272.116001 
L 84.876504 271.740849 
L 85.201321 271.571864 
L 85.526138 271.431949 
L 85.688546 270.995607 
L 85.850955 270.987376 
L 86.013363 270.588186 
L 86.500588 270.74486 
L 86.662997 270.578071 
L 86.825405 270.587193 
L 86.987814 270.28941 
L 87.150222 270.456399 
L 87.637448 270.310557 
L 87.962265 270.106474 
L 88.287082 270.306928 
L 88.44949 270.229959 
L 88.611899 270.312599 
L 88.774307 270.228962 
L 89.099124 270.363971 
L 89.58635 269.999522 
L 89.748758 270.157111 
L 89.911166 269.96528 
L 90.073575 270.021154 
L 90.235983 269.781018 
L 90.5608 269.648701 
L 91.048026 269.475115 
L 91.372843 269.486489 
L 91.69766 269.113127 
L 91.860068 269.027969 
L 92.184885 269.114389 
L 92.996928 268.554247 
L 93.159336 268.56096 
L 93.971378 267.593251 
L 94.458604 267.383366 
L 95.433055 266.634793 
L 96.245097 266.391112 
L 96.569914 265.857173 
L 96.894731 265.655239 
L 97.544365 265.332503 
L 97.869182 265.02581 
L 98.681224 264.455071 
L 99.006041 263.930397 
L 99.16845 263.95649 
L 99.655675 263.398697 
L 100.305309 263.03281 
L 100.792534 262.642824 
L 101.604577 262.246132 
L 101.929394 262.004875 
L 102.903845 261.510566 
L 103.066253 261.479932 
L 103.553479 261.032996 
L 103.878296 261.063169 
L 104.365521 260.750966 
L 105.50238 260.170946 
L 105.989606 259.784542 
L 107.938507 258.848593 
L 108.263324 258.703725 
L 108.75055 258.577465 
L 109.237775 258.393515 
L 109.887409 258.177846 
L 111.998719 257.183073 
L 112.323536 256.891837 
L 112.485945 256.839627 
L 112.810762 256.583316 
L 113.297987 256.289657 
L 113.785213 256.221696 
L 115.08448 255.652461 
L 115.734114 255.187759 
L 116.22134 255.070107 
L 116.708565 254.608716 
L 117.195791 254.502014 
L 118.982284 253.568812 
L 119.144692 253.534703 
L 119.631918 253.170148 
L 119.956735 252.957984 
L 120.44396 252.479448 
L 121.743228 251.736569 
L 122.880087 250.905433 
L 123.204904 250.824015 
L 124.666581 249.99993 
L 125.965848 249.281081 
L 129.376426 246.941563 
L 130.838103 246.217779 
L 131.650145 245.641649 
L 135.38554 243.573638 
L 135.872765 243.243065 
L 136.359991 242.9629 
L 138.958527 241.391581 
L 141.069837 240.3241 
L 141.881879 239.888647 
L 142.85633 239.431719 
L 143.505964 239.124527 
L 143.993189 238.879236 
L 144.96764 238.228988 
L 151.139162 234.242145 
L 151.626388 233.923013 
L 153.412881 232.624225 
L 153.900106 232.233409 
L 155.524191 231.164197 
L 156.823459 230.286977 
L 161.695713 227.051922 
L 162.345347 226.555201 
L 163.644615 225.632897 
L 164.781474 224.781185 
L 168.029644 222.594214 
L 169.166503 221.713922 
L 173.551532 218.532917 
L 174.363575 218.063774 
L 174.8508 217.708839 
L 176.96211 216.196184 
L 178.423786 215.226001 
L 179.560646 214.480231 
L 180.21028 214.037073 
L 181.834364 212.992463 
L 186.219393 210.062306 
L 188.330704 208.623717 
L 191.416465 206.586415 
L 192.553324 205.825326 
L 194.989451 204.197963 
L 198.400029 201.824247 
L 199.049663 201.374816 
L 202.947466 198.610906 
L 203.5971 198.098664 
L 204.73396 197.29312 
L 207.494904 195.287848 
L 208.306946 194.684474 
L 210.580665 193.117171 
L 211.230299 192.65364 
L 213.179201 191.297975 
L 215.290511 189.839669 
L 216.42737 188.994109 
L 217.239412 188.375821 
L 218.863497 187.196461 
L 221.137216 185.522392 
L 222.923709 184.259448 
L 225.522245 182.37352 
L 227.471146 181.03086 
L 229.420048 179.590285 
L 232.830626 177.221178 
L 233.967486 176.31564 
L 238.677331 172.68756 
L 239.976599 171.604002 
L 246.148121 166.482363 
L 247.934615 165.004537 
L 250.857967 162.522988 
L 257.191898 156.99101 
L 258.166349 156.139429 
L 260.440067 154.13082 
L 263.201011 151.730648 
L 265.637139 149.620967 
L 267.58604 147.880541 
L 276.843323 139.578654 
L 279.117042 137.501141 
L 294.545847 123.847583 
L 301.042187 117.885132 
L 303.478314 115.572769 
L 311.273921 108.303306 
L 315.009316 104.899441 
L 322.480106 97.938516 
L 327.677177 92.989823 
L 329.301262 91.414533 
L 340.507446 80.993013 
L 347.491011 74.47408 
L 350.251955 71.949668 
L 352.850491 69.593015 
L 354.312167 68.25532 
L 387.605905 39.384533 
L 389.717215 37.591026 
L 398.487273 30.260931 
L 398.487273 30.260931 
" clip-path="url(#p0aea1beb89)" style="fill: none; stroke-dasharray: 2,3.3; stroke-dashoffset: 0; stroke: #ffa500; stroke-width: 2"/>
   </g>
   <g id="patch_3">
    <path d="M 57.6 307.584 
L 57.6 41.472 
" style="fill: none; stroke: #000000; stroke-width: 0.8; stroke-linejoin: miter; stroke-linecap: square"/>
   </g>
   <g id="patch_4">
    <path d="M 414.72 307.584 
L 414.72 41.472 
" style="fill: none; stroke: #000000; stroke-width: 0.8; stroke-linejoin: miter; stroke-linecap: square"/>
   </g>
   <g id="patch_5">
    <path d="M 57.6 307.584 
L 414.72 307.584 
" style="fill: none; stroke: #000000; stroke-width: 0.8; stroke-linejoin: miter; stroke-linecap: square"/>
   </g>
   <g id="patch_6">
    <path d="M 57.6 41.472 
L 414.72 41.472 
" style="fill: none; stroke: #000000; stroke-width: 0.8; stroke-linejoin: miter; stroke-linecap: square"/>
   </g>
   <g id="text_18">
    <!-- Waiting Time Plot -->
    <g transform="translate(183.833438 8.2635)scale(0.12 -0.12)">
     <defs>
      <path id="DejaVuSans-50" d="M 1259 4147 
L 1259 2394 
L 2053 2394 
Q 2494 2394 2734 2622 
Q 2975 2850 2975 3272 
Q 2975 3691 2734 3919 
Q 2494 4147 2053 4147 
L 1259 4147 
z
M 628 4666 
L 2053 4666 
Q 2838 4666 3239 4311 
Q 3641 3956 3641 3272 
Q 3641 2581 3239 2228 
Q 2838 1875 2053 1875 
L 1259 1875 
L 1259 0 
L 628 0 
L 628 4666 
z
" transform="scale(0.015625)"/>
      <path id="DejaVuSans-6c" d="M 603 4863 
L 1178 4863 
L 1178 0 
L 603 0 
L 603 4863 
z
" transform="scale(0.015625)"/>
     </defs>
     <use xlink:href="#DejaVuSans-57"/>
     <use xlink:href="#DejaVuSans-61" x="92.501953"/>
     <use xlink:href="#DejaVuSans-69" x="153.78125"/>
     <use xlink:href="#DejaVuSans-74" x="181.564453"/>
     <use xlink:href="#DejaVuSans-69" x="220.773438"/>
     <use xlink:href="#DejaVuSans-6e" x="248.556641"/>
     <use xlink:href="#DejaVuSans-67" x="311.935547"/>
     <use xlink:href="#DejaVuSans-20" x="375.412109"/>
     <use xlink:href="#DejaVuSans-54" x="407.199219"/>
     <use xlink:href="#DejaVuSans-69" x="465.158203"/>
     <use xlink:href="#DejaVuSans-6d" x="492.941406"/>
     <use xlink:href="#DejaVuSans-65" x="590.353516"/>
     <use xlink:href="#DejaVuSans-20" x="651.876953"/>
     <use xlink:href="#DejaVuSans-50" x="683.664062"/>
     <use xlink:href="#DejaVuSans-6c" x="743.966797"/>
     <use xlink:href="#DejaVuSans-6f" x="771.75"/>
     <use xlink:href="#DejaVuSans-74" x="832.931641"/>
    </g>
    <!--  avg_d = 299.8379212954565  -->
    <g transform="translate(142.671562 21.700875)scale(0.12 -0.12)">
     <defs>
      <path id="DejaVuSans-76" d="M 191 3500 
L 800 3500 
L 1894 563 
L 2988 3500 
L 3597 3500 
L 2284 0 
L 1503 0 
L 191 3500 
z
" transform="scale(0.015625)"/>
      <path id="DejaVuSans-5f" d="M 3263 -1063 
L 3263 -1509 
L -63 -1509 
L -63 -1063 
L 3263 -1063 
z
" transform="scale(0.015625)"/>
      <path id="DejaVuSans-3d" d="M 678 2906 
L 4684 2906 
L 4684 2381 
L 678 2381 
L 678 2906 
z
M 678 1631 
L 4684 1631 
L 4684 1100 
L 678 1100 
L 678 1631 
z
" transform="scale(0.015625)"/>
      <path id="DejaVuSans-39" d="M 703 97 
L 703 672 
Q 941 559 1184 500 
Q 1428 441 1663 441 
Q 2288 441 2617 861 
Q 2947 1281 2994 2138 
Q 2813 1869 2534 1725 
Q 2256 1581 1919 1581 
Q 1219 1581 811 2004 
Q 403 2428 403 3163 
Q 403 3881 828 4315 
Q 1253 4750 1959 4750 
Q 2769 4750 3195 4129 
Q 3622 3509 3622 2328 
Q 3622 1225 3098 567 
Q 2575 -91 1691 -91 
Q 1453 -91 1209 -44 
Q 966 3 703 97 
z
M 1959 2075 
Q 2384 2075 2632 2365 
Q 2881 2656 2881 3163 
Q 2881 3666 2632 3958 
Q 2384 4250 1959 4250 
Q 1534 4250 1286 3958 
Q 1038 3666 1038 3163 
Q 1038 2656 1286 2365 
Q 1534 2075 1959 2075 
z
" transform="scale(0.015625)"/>
      <path id="DejaVuSans-2e" d="M 684 794 
L 1344 794 
L 1344 0 
L 684 0 
L 684 794 
z
" transform="scale(0.015625)"/>
      <path id="DejaVuSans-33" d="M 2597 2516 
Q 3050 2419 3304 2112 
Q 3559 1806 3559 1356 
Q 3559 666 3084 287 
Q 2609 -91 1734 -91 
Q 1441 -91 1130 -33 
Q 819 25 488 141 
L 488 750 
Q 750 597 1062 519 
Q 1375 441 1716 441 
Q 2309 441 2620 675 
Q 2931 909 2931 1356 
Q 2931 1769 2642 2001 
Q 2353 2234 1838 2234 
L 1294 2234 
L 1294 2753 
L 1863 2753 
Q 2328 2753 2575 2939 
Q 2822 3125 2822 3475 
Q 2822 3834 2567 4026 
Q 2313 4219 1838 4219 
Q 1578 4219 1281 4162 
Q 984 4106 628 3988 
L 628 4550 
Q 988 4650 1302 4700 
Q 1616 4750 1894 4750 
Q 2613 4750 3031 4423 
Q 3450 4097 3450 3541 
Q 3450 3153 3228 2886 
Q 3006 2619 2597 2516 
z
" transform="scale(0.015625)"/>
     </defs>
     <use xlink:href="#DejaVuSans-20"/>
     <use xlink:href="#DejaVuSans-61" x="31.787109"/>
     <use xlink:href="#DejaVuSans-76" x="93.066406"/>
     <use xlink:href="#DejaVuSans-67" x="152.246094"/>
     <use xlink:href="#DejaVuSans-5f" x="215.722656"/>
     <use xlink:href="#DejaVuSans-64" x="265.722656"/>
     <use xlink:href="#DejaVuSans-20" x="329.199219"/>
     <use xlink:href="#DejaVuSans-3d" x="360.986328"/>
     <use xlink:href="#DejaVuSans-20" x="444.775391"/>
     <use xlink:href="#DejaVuSans-32" x="476.5625"/>
     <use xlink:href="#DejaVuSans-39" x="540.185547"/>
     <use xlink:href="#DejaVuSans-39" x="603.808594"/>
     <use xlink:href="#DejaVuSans-2e" x="667.431641"/>
     <use xlink:href="#DejaVuSans-38" x="699.21875"/>
     <use xlink:href="#DejaVuSans-33" x="762.841797"/>
     <use xlink:href="#DejaVuSans-37" x="826.464844"/>
     <use xlink:href="#DejaVuSans-39" x="890.087891"/>
     <use xlink:href="#DejaVuSans-32" x="953.710938"/>
     <use xlink:href="#DejaVuSans-31" x="1017.333984"/>
     <use xlink:href="#DejaVuSans-32" x="1080.957031"/>
     <use xlink:href="#DejaVuSans-39" x="1144.580078"/>
     <use xlink:href="#DejaVuSans-35" x="1208.203125"/>
     <use xlink:href="#DejaVuSans-34" x="1271.826172"/>
     <use xlink:href="#DejaVuSans-35" x="1335.449219"/>
     <use xlink:href="#DejaVuSans-36" x="1399.072266"/>
     <use xlink:href="#DejaVuSans-35" x="1462.695312"/>
     <use xlink:href="#DejaVuSans-20" x="1526.318359"/>
    </g>
    <!--  avg_a = 104.21291388122951diff = 195.625007414227 -->
    <g transform="translate(63.181875 35.472)scale(0.12 -0.12)">
     <use xlink:href="#DejaVuSans-20"/>
     <use xlink:href="#DejaVuSans-61" x="31.787109"/>
     <use xlink:href="#DejaVuSans-76" x="93.066406"/>
     <use xlink:href="#DejaVuSans-67" x="152.246094"/>
     <use xlink:href="#DejaVuSans-5f" x="215.722656"/>
     <use xlink:href="#DejaVuSans-61" x="265.722656"/>
     <use xlink:href="#DejaVuSans-20" x="327.001953"/>
     <use xlink:href="#DejaVuSans-3d" x="358.789062"/>
     <use xlink:href="#DejaVuSans-20" x="442.578125"/>
     <use xlink:href="#DejaVuSans-31" x="474.365234"/>
     <use xlink:href="#DejaVuSans-30" x="537.988281"/>
     <use xlink:href="#DejaVuSans-34" x="601.611328"/>
     <use xlink:href="#DejaVuSans-2e" x="665.234375"/>
     <use xlink:href="#DejaVuSans-32" x="697.021484"/>
     <use xlink:href="#DejaVuSans-31" x="760.644531"/>
     <use xlink:href="#DejaVuSans-32" x="824.267578"/>
     <use xlink:href="#DejaVuSans-39" x="887.890625"/>
     <use xlink:href="#DejaVuSans-31" x="951.513672"/>
     <use xlink:href="#DejaVuSans-33" x="1015.136719"/>
     <use xlink:href="#DejaVuSans-38" x="1078.759766"/>
     <use xlink:href="#DejaVuSans-38" x="1142.382812"/>
     <use xlink:href="#DejaVuSans-31" x="1206.005859"/>
     <use xlink:href="#DejaVuSans-32" x="1269.628906"/>
     <use xlink:href="#DejaVuSans-32" x="1333.251953"/>
     <use xlink:href="#DejaVuSans-39" x="1396.875"/>
     <use xlink:href="#DejaVuSans-35" x="1460.498047"/>
     <use xlink:href="#DejaVuSans-31" x="1524.121094"/>
     <use xlink:href="#DejaVuSans-64" x="1587.744141"/>
     <use xlink:href="#DejaVuSans-69" x="1651.220703"/>
     <use xlink:href="#DejaVuSans-66" x="1679.003906"/>
     <use xlink:href="#DejaVuSans-66" x="1714.208984"/>
     <use xlink:href="#DejaVuSans-20" x="1749.414062"/>
     <use xlink:href="#DejaVuSans-3d" x="1781.201172"/>
     <use xlink:href="#DejaVuSans-20" x="1864.990234"/>
     <use xlink:href="#DejaVuSans-31" x="1896.777344"/>
     <use xlink:href="#DejaVuSans-39" x="1960.400391"/>
     <use xlink:href="#DejaVuSans-35" x="2024.023438"/>
     <use xlink:href="#DejaVuSans-2e" x="2087.646484"/>
     <use xlink:href="#DejaVuSans-36" x="2119.433594"/>
     <use xlink:href="#DejaVuSans-32" x="2183.056641"/>
     <use xlink:href="#DejaVuSans-35" x="2246.679688"/>
     <use xlink:href="#DejaVuSans-30" x="2310.302734"/>
     <use xlink:href="#DejaVuSans-30" x="2373.925781"/>
     <use xlink:href="#DejaVuSans-37" x="2437.548828"/>
     <use xlink:href="#DejaVuSans-34" x="2501.171875"/>
     <use xlink:href="#DejaVuSans-31" x="2564.794922"/>
     <use xlink:href="#DejaVuSans-34" x="2628.417969"/>
     <use xlink:href="#DejaVuSans-32" x="2692.041016"/>
     <use xlink:href="#DejaVuSans-32" x="2755.664062"/>
     <use xlink:href="#DejaVuSans-37" x="2819.287109"/>
    </g>
   </g>
   <g id="legend_1">
    <g id="patch_7">
     <path d="M 263.88875 302.584 
L 407.72 302.584 
Q 409.72 302.584 409.72 300.584 
L 409.72 272.22775 
Q 409.72 270.22775 407.72 270.22775 
L 263.88875 270.22775 
Q 261.88875 270.22775 261.88875 272.22775 
L 261.88875 300.584 
Q 261.88875 302.584 263.88875 302.584 
z
" style="fill: #ffffff; opacity: 0.8; stroke: #cccccc; stroke-linejoin: miter"/>
    </g>
    <g id="line2d_18">
     <path d="M 265.88875 278.326187 
L 275.88875 278.326187 
L 285.88875 278.326187 
" style="fill: none; stroke-dasharray: 2,3.3; stroke-dashoffset: 0; stroke: #0000ff; stroke-width: 2"/>
    </g>
    <g id="text_19">
     <!-- Average (Default) -->
     <g transform="translate(293.88875 281.826187)scale(0.1 -0.1)">
      <defs>
       <path id="DejaVuSans-41" d="M 2188 4044 
L 1331 1722 
L 3047 1722 
L 2188 4044 
z
M 1831 4666 
L 2547 4666 
L 4325 0 
L 3669 0 
L 3244 1197 
L 1141 1197 
L 716 0 
L 50 0 
L 1831 4666 
z
" transform="scale(0.015625)"/>
       <path id="DejaVuSans-28" d="M 1984 4856 
Q 1566 4138 1362 3434 
Q 1159 2731 1159 2009 
Q 1159 1288 1364 580 
Q 1569 -128 1984 -844 
L 1484 -844 
Q 1016 -109 783 600 
Q 550 1309 550 2009 
Q 550 2706 781 3412 
Q 1013 4119 1484 4856 
L 1984 4856 
z
" transform="scale(0.015625)"/>
       <path id="DejaVuSans-44" d="M 1259 4147 
L 1259 519 
L 2022 519 
Q 2988 519 3436 956 
Q 3884 1394 3884 2338 
Q 3884 3275 3436 3711 
Q 2988 4147 2022 4147 
L 1259 4147 
z
M 628 4666 
L 1925 4666 
Q 3281 4666 3915 4102 
Q 4550 3538 4550 2338 
Q 4550 1131 3912 565 
Q 3275 0 1925 0 
L 628 0 
L 628 4666 
z
" transform="scale(0.015625)"/>
       <path id="DejaVuSans-29" d="M 513 4856 
L 1013 4856 
Q 1481 4119 1714 3412 
Q 1947 2706 1947 2009 
Q 1947 1309 1714 600 
Q 1481 -109 1013 -844 
L 513 -844 
Q 928 -128 1133 580 
Q 1338 1288 1338 2009 
Q 1338 2731 1133 3434 
Q 928 4138 513 4856 
z
" transform="scale(0.015625)"/>
      </defs>
      <use xlink:href="#DejaVuSans-41"/>
      <use xlink:href="#DejaVuSans-76" x="62.533203"/>
      <use xlink:href="#DejaVuSans-65" x="121.712891"/>
      <use xlink:href="#DejaVuSans-72" x="183.236328"/>
      <use xlink:href="#DejaVuSans-61" x="224.349609"/>
      <use xlink:href="#DejaVuSans-67" x="285.628906"/>
      <use xlink:href="#DejaVuSans-65" x="349.105469"/>
      <use xlink:href="#DejaVuSans-20" x="410.628906"/>
      <use xlink:href="#DejaVuSans-28" x="442.416016"/>
      <use xlink:href="#DejaVuSans-44" x="481.429688"/>
      <use xlink:href="#DejaVuSans-65" x="558.431641"/>
      <use xlink:href="#DejaVuSans-66" x="619.955078"/>
      <use xlink:href="#DejaVuSans-61" x="655.160156"/>
      <use xlink:href="#DejaVuSans-75" x="716.439453"/>
      <use xlink:href="#DejaVuSans-6c" x="779.818359"/>
      <use xlink:href="#DejaVuSans-74" x="807.601562"/>
      <use xlink:href="#DejaVuSans-29" x="846.810547"/>
     </g>
    </g>
    <g id="line2d_19">
     <path d="M 265.88875 293.004312 
L 275.88875 293.004312 
L 285.88875 293.004312 
" style="fill: none; stroke-dasharray: 2,3.3; stroke-dashoffset: 0; stroke: #ffa500; stroke-width: 2"/>
    </g>
    <g id="text_20">
     <!-- Average (Anticipation) -->
     <g transform="translate(293.88875 296.504312)scale(0.1 -0.1)">
      <defs>
       <path id="DejaVuSans-63" d="M 3122 3366 
L 3122 2828 
Q 2878 2963 2633 3030 
Q 2388 3097 2138 3097 
Q 1578 3097 1268 2742 
Q 959 2388 959 1747 
Q 959 1106 1268 751 
Q 1578 397 2138 397 
Q 2388 397 2633 464 
Q 2878 531 3122 666 
L 3122 134 
Q 2881 22 2623 -34 
Q 2366 -91 2075 -91 
Q 1284 -91 818 406 
Q 353 903 353 1747 
Q 353 2603 823 3093 
Q 1294 3584 2113 3584 
Q 2378 3584 2631 3529 
Q 2884 3475 3122 3366 
z
" transform="scale(0.015625)"/>
       <path id="DejaVuSans-70" d="M 1159 525 
L 1159 -1331 
L 581 -1331 
L 581 3500 
L 1159 3500 
L 1159 2969 
Q 1341 3281 1617 3432 
Q 1894 3584 2278 3584 
Q 2916 3584 3314 3078 
Q 3713 2572 3713 1747 
Q 3713 922 3314 415 
Q 2916 -91 2278 -91 
Q 1894 -91 1617 61 
Q 1341 213 1159 525 
z
M 3116 1747 
Q 3116 2381 2855 2742 
Q 2594 3103 2138 3103 
Q 1681 3103 1420 2742 
Q 1159 2381 1159 1747 
Q 1159 1113 1420 752 
Q 1681 391 2138 391 
Q 2594 391 2855 752 
Q 3116 1113 3116 1747 
z
" transform="scale(0.015625)"/>
      </defs>
      <use xlink:href="#DejaVuSans-41"/>
      <use xlink:href="#DejaVuSans-76" x="62.533203"/>
      <use xlink:href="#DejaVuSans-65" x="121.712891"/>
      <use xlink:href="#DejaVuSans-72" x="183.236328"/>
      <use xlink:href="#DejaVuSans-61" x="224.349609"/>
      <use xlink:href="#DejaVuSans-67" x="285.628906"/>
      <use xlink:href="#DejaVuSans-65" x="349.105469"/>
      <use xlink:href="#DejaVuSans-20" x="410.628906"/>
      <use xlink:href="#DejaVuSans-28" x="442.416016"/>
      <use xlink:href="#DejaVuSans-41" x="481.429688"/>
      <use xlink:href="#DejaVuSans-6e" x="549.837891"/>
      <use xlink:href="#DejaVuSans-74" x="613.216797"/>
      <use xlink:href="#DejaVuSans-69" x="652.425781"/>
      <use xlink:href="#DejaVuSans-63" x="680.208984"/>
      <use xlink:href="#DejaVuSans-69" x="735.189453"/>
      <use xlink:href="#DejaVuSans-70" x="762.972656"/>
      <use xlink:href="#DejaVuSans-61" x="826.449219"/>
      <use xlink:href="#DejaVuSans-74" x="887.728516"/>
      <use xlink:href="#DejaVuSans-69" x="926.9375"/>
      <use xlink:href="#DejaVuSans-6f" x="954.720703"/>
      <use xlink:href="#DejaVuSans-6e" x="1015.902344"/>
      <use xlink:href="#DejaVuSans-29" x="1079.28125"/>
     </g>
    </g>
   </g>
  </g>
 </g>
 <defs>
  <clipPath id="p0aea1beb89">
   <rect x="57.6" y="41.472" width="357.12" height="266.112"/>
  </clipPath>
 </defs>
</svg>
