<?xml version="1.0" encoding="utf-8" standalone="no"?>
<!DOCTYPE svg PUBLIC "-//W3C//DTD SVG 1.1//EN"
  "http://www.w3.org/Graphics/SVG/1.1/DTD/svg11.dtd">
<svg xmlns:xlink="http://www.w3.org/1999/xlink" width="460.8pt" height="345.6pt" viewBox="0 0 460.8 345.6" xmlns="http://www.w3.org/2000/svg" version="1.1">
 <metadata>
  <rdf:RDF xmlns:dc="http://purl.org/dc/elements/1.1/" xmlns:cc="http://creativecommons.org/ns#" xmlns:rdf="http://www.w3.org/1999/02/22-rdf-syntax-ns#">
   <cc:Work>
    <dc:type rdf:resource="http://purl.org/dc/dcmitype/StillImage"/>
    <dc:date>2022-11-07T15:53:29.068901</dc:date>
    <dc:format>image/svg+xml</dc:format>
    <dc:creator>
     <cc:Agent>
      <dc:title>Matplotlib v3.5.3, https://matplotlib.org/</dc:title>
     </cc:Agent>
    </dc:creator>
   </cc:Work>
  </rdf:RDF>
 </metadata>
 <defs>
  <style type="text/css">*{stroke-linejoin: round; stroke-linecap: butt}</style>
 </defs>
 <g id="figure_1">
  <g id="patch_1">
   <path d="M 0 345.6 
L 460.8 345.6 
L 460.8 0 
L 0 0 
z
" style="fill: #ffffff"/>
  </g>
  <g id="axes_1">
   <g id="patch_2">
    <path d="M 57.6 307.584 
L 414.72 307.584 
L 414.72 41.472 
L 57.6 41.472 
z
" style="fill: #ffffff"/>
   </g>
   <g id="matplotlib.axis_1">
    <g id="xtick_1">
     <g id="line2d_1">
      <defs>
       <path id="m7cb290cee3" d="M 0 0 
L 0 3.5 
" style="stroke: #000000; stroke-width: 0.8"/>
      </defs>
      <g>
       <use xlink:href="#m7cb290cee3" x="73.832727" y="307.584" style="stroke: #000000; stroke-width: 0.8"/>
      </g>
     </g>
     <g id="text_1">
      <!-- 0 -->
      <g transform="translate(70.651477 322.182437)scale(0.1 -0.1)">
       <defs>
        <path id="DejaVuSans-30" d="M 2034 4250 
Q 1547 4250 1301 3770 
Q 1056 3291 1056 2328 
Q 1056 1369 1301 889 
Q 1547 409 2034 409 
Q 2525 409 2770 889 
Q 3016 1369 3016 2328 
Q 3016 3291 2770 3770 
Q 2525 4250 2034 4250 
z
M 2034 4750 
Q 2819 4750 3233 4129 
Q 3647 3509 3647 2328 
Q 3647 1150 3233 529 
Q 2819 -91 2034 -91 
Q 1250 -91 836 529 
Q 422 1150 422 2328 
Q 422 3509 836 4129 
Q 1250 4750 2034 4750 
z
" transform="scale(0.015625)"/>
       </defs>
       <use xlink:href="#DejaVuSans-30"/>
      </g>
     </g>
    </g>
    <g id="xtick_2">
     <g id="line2d_2">
      <g>
       <use xlink:href="#m7cb290cee3" x="114.434847" y="307.584" style="stroke: #000000; stroke-width: 0.8"/>
      </g>
     </g>
     <g id="text_2">
      <!-- 250 -->
      <g transform="translate(104.891097 322.182437)scale(0.1 -0.1)">
       <defs>
        <path id="DejaVuSans-32" d="M 1228 531 
L 3431 531 
L 3431 0 
L 469 0 
L 469 531 
Q 828 903 1448 1529 
Q 2069 2156 2228 2338 
Q 2531 2678 2651 2914 
Q 2772 3150 2772 3378 
Q 2772 3750 2511 3984 
Q 2250 4219 1831 4219 
Q 1534 4219 1204 4116 
Q 875 4013 500 3803 
L 500 4441 
Q 881 4594 1212 4672 
Q 1544 4750 1819 4750 
Q 2544 4750 2975 4387 
Q 3406 4025 3406 3419 
Q 3406 3131 3298 2873 
Q 3191 2616 2906 2266 
Q 2828 2175 2409 1742 
Q 1991 1309 1228 531 
z
" transform="scale(0.015625)"/>
        <path id="DejaVuSans-35" d="M 691 4666 
L 3169 4666 
L 3169 4134 
L 1269 4134 
L 1269 2991 
Q 1406 3038 1543 3061 
Q 1681 3084 1819 3084 
Q 2600 3084 3056 2656 
Q 3513 2228 3513 1497 
Q 3513 744 3044 326 
Q 2575 -91 1722 -91 
Q 1428 -91 1123 -41 
Q 819 9 494 109 
L 494 744 
Q 775 591 1075 516 
Q 1375 441 1709 441 
Q 2250 441 2565 725 
Q 2881 1009 2881 1497 
Q 2881 1984 2565 2268 
Q 2250 2553 1709 2553 
Q 1456 2553 1204 2497 
Q 953 2441 691 2322 
L 691 4666 
z
" transform="scale(0.015625)"/>
       </defs>
       <use xlink:href="#DejaVuSans-32"/>
       <use xlink:href="#DejaVuSans-35" x="63.623047"/>
       <use xlink:href="#DejaVuSans-30" x="127.246094"/>
      </g>
     </g>
    </g>
    <g id="xtick_3">
     <g id="line2d_3">
      <g>
       <use xlink:href="#m7cb290cee3" x="155.036966" y="307.584" style="stroke: #000000; stroke-width: 0.8"/>
      </g>
     </g>
     <g id="text_3">
      <!-- 500 -->
      <g transform="translate(145.493216 322.182437)scale(0.1 -0.1)">
       <use xlink:href="#DejaVuSans-35"/>
       <use xlink:href="#DejaVuSans-30" x="63.623047"/>
       <use xlink:href="#DejaVuSans-30" x="127.246094"/>
      </g>
     </g>
    </g>
    <g id="xtick_4">
     <g id="line2d_4">
      <g>
       <use xlink:href="#m7cb290cee3" x="195.639085" y="307.584" style="stroke: #000000; stroke-width: 0.8"/>
      </g>
     </g>
     <g id="text_4">
      <!-- 750 -->
      <g transform="translate(186.095335 322.182437)scale(0.1 -0.1)">
       <defs>
        <path id="DejaVuSans-37" d="M 525 4666 
L 3525 4666 
L 3525 4397 
L 1831 0 
L 1172 0 
L 2766 4134 
L 525 4134 
L 525 4666 
z
" transform="scale(0.015625)"/>
       </defs>
       <use xlink:href="#DejaVuSans-37"/>
       <use xlink:href="#DejaVuSans-35" x="63.623047"/>
       <use xlink:href="#DejaVuSans-30" x="127.246094"/>
      </g>
     </g>
    </g>
    <g id="xtick_5">
     <g id="line2d_5">
      <g>
       <use xlink:href="#m7cb290cee3" x="236.241204" y="307.584" style="stroke: #000000; stroke-width: 0.8"/>
      </g>
     </g>
     <g id="text_5">
      <!-- 1000 -->
      <g transform="translate(223.516204 322.182437)scale(0.1 -0.1)">
       <defs>
        <path id="DejaVuSans-31" d="M 794 531 
L 1825 531 
L 1825 4091 
L 703 3866 
L 703 4441 
L 1819 4666 
L 2450 4666 
L 2450 531 
L 3481 531 
L 3481 0 
L 794 0 
L 794 531 
z
" transform="scale(0.015625)"/>
       </defs>
       <use xlink:href="#DejaVuSans-31"/>
       <use xlink:href="#DejaVuSans-30" x="63.623047"/>
       <use xlink:href="#DejaVuSans-30" x="127.246094"/>
       <use xlink:href="#DejaVuSans-30" x="190.869141"/>
      </g>
     </g>
    </g>
    <g id="xtick_6">
     <g id="line2d_6">
      <g>
       <use xlink:href="#m7cb290cee3" x="276.843323" y="307.584" style="stroke: #000000; stroke-width: 0.8"/>
      </g>
     </g>
     <g id="text_6">
      <!-- 1250 -->
      <g transform="translate(264.118323 322.182437)scale(0.1 -0.1)">
       <use xlink:href="#DejaVuSans-31"/>
       <use xlink:href="#DejaVuSans-32" x="63.623047"/>
       <use xlink:href="#DejaVuSans-35" x="127.246094"/>
       <use xlink:href="#DejaVuSans-30" x="190.869141"/>
      </g>
     </g>
    </g>
    <g id="xtick_7">
     <g id="line2d_7">
      <g>
       <use xlink:href="#m7cb290cee3" x="317.445443" y="307.584" style="stroke: #000000; stroke-width: 0.8"/>
      </g>
     </g>
     <g id="text_7">
      <!-- 1500 -->
      <g transform="translate(304.720443 322.182437)scale(0.1 -0.1)">
       <use xlink:href="#DejaVuSans-31"/>
       <use xlink:href="#DejaVuSans-35" x="63.623047"/>
       <use xlink:href="#DejaVuSans-30" x="127.246094"/>
       <use xlink:href="#DejaVuSans-30" x="190.869141"/>
      </g>
     </g>
    </g>
    <g id="xtick_8">
     <g id="line2d_8">
      <g>
       <use xlink:href="#m7cb290cee3" x="358.047562" y="307.584" style="stroke: #000000; stroke-width: 0.8"/>
      </g>
     </g>
     <g id="text_8">
      <!-- 1750 -->
      <g transform="translate(345.322562 322.182437)scale(0.1 -0.1)">
       <use xlink:href="#DejaVuSans-31"/>
       <use xlink:href="#DejaVuSans-37" x="63.623047"/>
       <use xlink:href="#DejaVuSans-35" x="127.246094"/>
       <use xlink:href="#DejaVuSans-30" x="190.869141"/>
      </g>
     </g>
    </g>
    <g id="xtick_9">
     <g id="line2d_9">
      <g>
       <use xlink:href="#m7cb290cee3" x="398.649681" y="307.584" style="stroke: #000000; stroke-width: 0.8"/>
      </g>
     </g>
     <g id="text_9">
      <!-- 2000 -->
      <g transform="translate(385.924681 322.182437)scale(0.1 -0.1)">
       <use xlink:href="#DejaVuSans-32"/>
       <use xlink:href="#DejaVuSans-30" x="63.623047"/>
       <use xlink:href="#DejaVuSans-30" x="127.246094"/>
       <use xlink:href="#DejaVuSans-30" x="190.869141"/>
      </g>
     </g>
    </g>
    <g id="text_10">
     <!-- Number of Orders -->
     <g transform="translate(191.261562 335.860562)scale(0.1 -0.1)">
      <defs>
       <path id="DejaVuSans-4e" d="M 628 4666 
L 1478 4666 
L 3547 763 
L 3547 4666 
L 4159 4666 
L 4159 0 
L 3309 0 
L 1241 3903 
L 1241 0 
L 628 0 
L 628 4666 
z
" transform="scale(0.015625)"/>
       <path id="DejaVuSans-75" d="M 544 1381 
L 544 3500 
L 1119 3500 
L 1119 1403 
Q 1119 906 1312 657 
Q 1506 409 1894 409 
Q 2359 409 2629 706 
Q 2900 1003 2900 1516 
L 2900 3500 
L 3475 3500 
L 3475 0 
L 2900 0 
L 2900 538 
Q 2691 219 2414 64 
Q 2138 -91 1772 -91 
Q 1169 -91 856 284 
Q 544 659 544 1381 
z
M 1991 3584 
L 1991 3584 
z
" transform="scale(0.015625)"/>
       <path id="DejaVuSans-6d" d="M 3328 2828 
Q 3544 3216 3844 3400 
Q 4144 3584 4550 3584 
Q 5097 3584 5394 3201 
Q 5691 2819 5691 2113 
L 5691 0 
L 5113 0 
L 5113 2094 
Q 5113 2597 4934 2840 
Q 4756 3084 4391 3084 
Q 3944 3084 3684 2787 
Q 3425 2491 3425 1978 
L 3425 0 
L 2847 0 
L 2847 2094 
Q 2847 2600 2669 2842 
Q 2491 3084 2119 3084 
Q 1678 3084 1418 2786 
Q 1159 2488 1159 1978 
L 1159 0 
L 581 0 
L 581 3500 
L 1159 3500 
L 1159 2956 
Q 1356 3278 1631 3431 
Q 1906 3584 2284 3584 
Q 2666 3584 2933 3390 
Q 3200 3197 3328 2828 
z
" transform="scale(0.015625)"/>
       <path id="DejaVuSans-62" d="M 3116 1747 
Q 3116 2381 2855 2742 
Q 2594 3103 2138 3103 
Q 1681 3103 1420 2742 
Q 1159 2381 1159 1747 
Q 1159 1113 1420 752 
Q 1681 391 2138 391 
Q 2594 391 2855 752 
Q 3116 1113 3116 1747 
z
M 1159 2969 
Q 1341 3281 1617 3432 
Q 1894 3584 2278 3584 
Q 2916 3584 3314 3078 
Q 3713 2572 3713 1747 
Q 3713 922 3314 415 
Q 2916 -91 2278 -91 
Q 1894 -91 1617 61 
Q 1341 213 1159 525 
L 1159 0 
L 581 0 
L 581 4863 
L 1159 4863 
L 1159 2969 
z
" transform="scale(0.015625)"/>
       <path id="DejaVuSans-65" d="M 3597 1894 
L 3597 1613 
L 953 1613 
Q 991 1019 1311 708 
Q 1631 397 2203 397 
Q 2534 397 2845 478 
Q 3156 559 3463 722 
L 3463 178 
Q 3153 47 2828 -22 
Q 2503 -91 2169 -91 
Q 1331 -91 842 396 
Q 353 884 353 1716 
Q 353 2575 817 3079 
Q 1281 3584 2069 3584 
Q 2775 3584 3186 3129 
Q 3597 2675 3597 1894 
z
M 3022 2063 
Q 3016 2534 2758 2815 
Q 2500 3097 2075 3097 
Q 1594 3097 1305 2825 
Q 1016 2553 972 2059 
L 3022 2063 
z
" transform="scale(0.015625)"/>
       <path id="DejaVuSans-72" d="M 2631 2963 
Q 2534 3019 2420 3045 
Q 2306 3072 2169 3072 
Q 1681 3072 1420 2755 
Q 1159 2438 1159 1844 
L 1159 0 
L 581 0 
L 581 3500 
L 1159 3500 
L 1159 2956 
Q 1341 3275 1631 3429 
Q 1922 3584 2338 3584 
Q 2397 3584 2469 3576 
Q 2541 3569 2628 3553 
L 2631 2963 
z
" transform="scale(0.015625)"/>
       <path id="DejaVuSans-20" transform="scale(0.015625)"/>
       <path id="DejaVuSans-6f" d="M 1959 3097 
Q 1497 3097 1228 2736 
Q 959 2375 959 1747 
Q 959 1119 1226 758 
Q 1494 397 1959 397 
Q 2419 397 2687 759 
Q 2956 1122 2956 1747 
Q 2956 2369 2687 2733 
Q 2419 3097 1959 3097 
z
M 1959 3584 
Q 2709 3584 3137 3096 
Q 3566 2609 3566 1747 
Q 3566 888 3137 398 
Q 2709 -91 1959 -91 
Q 1206 -91 779 398 
Q 353 888 353 1747 
Q 353 2609 779 3096 
Q 1206 3584 1959 3584 
z
" transform="scale(0.015625)"/>
       <path id="DejaVuSans-66" d="M 2375 4863 
L 2375 4384 
L 1825 4384 
Q 1516 4384 1395 4259 
Q 1275 4134 1275 3809 
L 1275 3500 
L 2222 3500 
L 2222 3053 
L 1275 3053 
L 1275 0 
L 697 0 
L 697 3053 
L 147 3053 
L 147 3500 
L 697 3500 
L 697 3744 
Q 697 4328 969 4595 
Q 1241 4863 1831 4863 
L 2375 4863 
z
" transform="scale(0.015625)"/>
       <path id="DejaVuSans-4f" d="M 2522 4238 
Q 1834 4238 1429 3725 
Q 1025 3213 1025 2328 
Q 1025 1447 1429 934 
Q 1834 422 2522 422 
Q 3209 422 3611 934 
Q 4013 1447 4013 2328 
Q 4013 3213 3611 3725 
Q 3209 4238 2522 4238 
z
M 2522 4750 
Q 3503 4750 4090 4092 
Q 4678 3434 4678 2328 
Q 4678 1225 4090 567 
Q 3503 -91 2522 -91 
Q 1538 -91 948 565 
Q 359 1222 359 2328 
Q 359 3434 948 4092 
Q 1538 4750 2522 4750 
z
" transform="scale(0.015625)"/>
       <path id="DejaVuSans-64" d="M 2906 2969 
L 2906 4863 
L 3481 4863 
L 3481 0 
L 2906 0 
L 2906 525 
Q 2725 213 2448 61 
Q 2172 -91 1784 -91 
Q 1150 -91 751 415 
Q 353 922 353 1747 
Q 353 2572 751 3078 
Q 1150 3584 1784 3584 
Q 2172 3584 2448 3432 
Q 2725 3281 2906 2969 
z
M 947 1747 
Q 947 1113 1208 752 
Q 1469 391 1925 391 
Q 2381 391 2643 752 
Q 2906 1113 2906 1747 
Q 2906 2381 2643 2742 
Q 2381 3103 1925 3103 
Q 1469 3103 1208 2742 
Q 947 2381 947 1747 
z
" transform="scale(0.015625)"/>
       <path id="DejaVuSans-73" d="M 2834 3397 
L 2834 2853 
Q 2591 2978 2328 3040 
Q 2066 3103 1784 3103 
Q 1356 3103 1142 2972 
Q 928 2841 928 2578 
Q 928 2378 1081 2264 
Q 1234 2150 1697 2047 
L 1894 2003 
Q 2506 1872 2764 1633 
Q 3022 1394 3022 966 
Q 3022 478 2636 193 
Q 2250 -91 1575 -91 
Q 1294 -91 989 -36 
Q 684 19 347 128 
L 347 722 
Q 666 556 975 473 
Q 1284 391 1588 391 
Q 1994 391 2212 530 
Q 2431 669 2431 922 
Q 2431 1156 2273 1281 
Q 2116 1406 1581 1522 
L 1381 1569 
Q 847 1681 609 1914 
Q 372 2147 372 2553 
Q 372 3047 722 3315 
Q 1072 3584 1716 3584 
Q 2034 3584 2315 3537 
Q 2597 3491 2834 3397 
z
" transform="scale(0.015625)"/>
      </defs>
      <use xlink:href="#DejaVuSans-4e"/>
      <use xlink:href="#DejaVuSans-75" x="74.804688"/>
      <use xlink:href="#DejaVuSans-6d" x="138.183594"/>
      <use xlink:href="#DejaVuSans-62" x="235.595703"/>
      <use xlink:href="#DejaVuSans-65" x="299.072266"/>
      <use xlink:href="#DejaVuSans-72" x="360.595703"/>
      <use xlink:href="#DejaVuSans-20" x="401.708984"/>
      <use xlink:href="#DejaVuSans-6f" x="433.496094"/>
      <use xlink:href="#DejaVuSans-66" x="494.677734"/>
      <use xlink:href="#DejaVuSans-20" x="529.882812"/>
      <use xlink:href="#DejaVuSans-4f" x="561.669922"/>
      <use xlink:href="#DejaVuSans-72" x="640.380859"/>
      <use xlink:href="#DejaVuSans-64" x="679.744141"/>
      <use xlink:href="#DejaVuSans-65" x="743.220703"/>
      <use xlink:href="#DejaVuSans-72" x="804.744141"/>
      <use xlink:href="#DejaVuSans-73" x="845.857422"/>
     </g>
    </g>
   </g>
   <g id="matplotlib.axis_2">
    <g id="ytick_1">
     <g id="line2d_10">
      <defs>
       <path id="m9d115957d5" d="M 0 0 
L -3.5 0 
" style="stroke: #000000; stroke-width: 0.8"/>
      </defs>
      <g>
       <use xlink:href="#m9d115957d5" x="57.6" y="307.584" style="stroke: #000000; stroke-width: 0.8"/>
      </g>
     </g>
     <g id="text_11">
      <!-- 0 -->
      <g transform="translate(44.2375 311.383219)scale(0.1 -0.1)">
       <use xlink:href="#DejaVuSans-30"/>
      </g>
     </g>
    </g>
    <g id="ytick_2">
     <g id="line2d_11">
      <g>
       <use xlink:href="#m9d115957d5" x="57.6" y="254.3616" style="stroke: #000000; stroke-width: 0.8"/>
      </g>
     </g>
     <g id="text_12">
      <!-- 20 -->
      <g transform="translate(37.875 258.160819)scale(0.1 -0.1)">
       <use xlink:href="#DejaVuSans-32"/>
       <use xlink:href="#DejaVuSans-30" x="63.623047"/>
      </g>
     </g>
    </g>
    <g id="ytick_3">
     <g id="line2d_12">
      <g>
       <use xlink:href="#m9d115957d5" x="57.6" y="201.1392" style="stroke: #000000; stroke-width: 0.8"/>
      </g>
     </g>
     <g id="text_13">
      <!-- 40 -->
      <g transform="translate(37.875 204.938419)scale(0.1 -0.1)">
       <defs>
        <path id="DejaVuSans-34" d="M 2419 4116 
L 825 1625 
L 2419 1625 
L 2419 4116 
z
M 2253 4666 
L 3047 4666 
L 3047 1625 
L 3713 1625 
L 3713 1100 
L 3047 1100 
L 3047 0 
L 2419 0 
L 2419 1100 
L 313 1100 
L 313 1709 
L 2253 4666 
z
" transform="scale(0.015625)"/>
       </defs>
       <use xlink:href="#DejaVuSans-34"/>
       <use xlink:href="#DejaVuSans-30" x="63.623047"/>
      </g>
     </g>
    </g>
    <g id="ytick_4">
     <g id="line2d_13">
      <g>
       <use xlink:href="#m9d115957d5" x="57.6" y="147.9168" style="stroke: #000000; stroke-width: 0.8"/>
      </g>
     </g>
     <g id="text_14">
      <!-- 60 -->
      <g transform="translate(37.875 151.716019)scale(0.1 -0.1)">
       <defs>
        <path id="DejaVuSans-36" d="M 2113 2584 
Q 1688 2584 1439 2293 
Q 1191 2003 1191 1497 
Q 1191 994 1439 701 
Q 1688 409 2113 409 
Q 2538 409 2786 701 
Q 3034 994 3034 1497 
Q 3034 2003 2786 2293 
Q 2538 2584 2113 2584 
z
M 3366 4563 
L 3366 3988 
Q 3128 4100 2886 4159 
Q 2644 4219 2406 4219 
Q 1781 4219 1451 3797 
Q 1122 3375 1075 2522 
Q 1259 2794 1537 2939 
Q 1816 3084 2150 3084 
Q 2853 3084 3261 2657 
Q 3669 2231 3669 1497 
Q 3669 778 3244 343 
Q 2819 -91 2113 -91 
Q 1303 -91 875 529 
Q 447 1150 447 2328 
Q 447 3434 972 4092 
Q 1497 4750 2381 4750 
Q 2619 4750 2861 4703 
Q 3103 4656 3366 4563 
z
" transform="scale(0.015625)"/>
       </defs>
       <use xlink:href="#DejaVuSans-36"/>
       <use xlink:href="#DejaVuSans-30" x="63.623047"/>
      </g>
     </g>
    </g>
    <g id="ytick_5">
     <g id="line2d_14">
      <g>
       <use xlink:href="#m9d115957d5" x="57.6" y="94.6944" style="stroke: #000000; stroke-width: 0.8"/>
      </g>
     </g>
     <g id="text_15">
      <!-- 80 -->
      <g transform="translate(37.875 98.493619)scale(0.1 -0.1)">
       <defs>
        <path id="DejaVuSans-38" d="M 2034 2216 
Q 1584 2216 1326 1975 
Q 1069 1734 1069 1313 
Q 1069 891 1326 650 
Q 1584 409 2034 409 
Q 2484 409 2743 651 
Q 3003 894 3003 1313 
Q 3003 1734 2745 1975 
Q 2488 2216 2034 2216 
z
M 1403 2484 
Q 997 2584 770 2862 
Q 544 3141 544 3541 
Q 544 4100 942 4425 
Q 1341 4750 2034 4750 
Q 2731 4750 3128 4425 
Q 3525 4100 3525 3541 
Q 3525 3141 3298 2862 
Q 3072 2584 2669 2484 
Q 3125 2378 3379 2068 
Q 3634 1759 3634 1313 
Q 3634 634 3220 271 
Q 2806 -91 2034 -91 
Q 1263 -91 848 271 
Q 434 634 434 1313 
Q 434 1759 690 2068 
Q 947 2378 1403 2484 
z
M 1172 3481 
Q 1172 3119 1398 2916 
Q 1625 2713 2034 2713 
Q 2441 2713 2670 2916 
Q 2900 3119 2900 3481 
Q 2900 3844 2670 4047 
Q 2441 4250 2034 4250 
Q 1625 4250 1398 4047 
Q 1172 3844 1172 3481 
z
" transform="scale(0.015625)"/>
       </defs>
       <use xlink:href="#DejaVuSans-38"/>
       <use xlink:href="#DejaVuSans-30" x="63.623047"/>
      </g>
     </g>
    </g>
    <g id="ytick_6">
     <g id="line2d_15">
      <g>
       <use xlink:href="#m9d115957d5" x="57.6" y="41.472" style="stroke: #000000; stroke-width: 0.8"/>
      </g>
     </g>
     <g id="text_16">
      <!-- 100 -->
      <g transform="translate(31.5125 45.271219)scale(0.1 -0.1)">
       <use xlink:href="#DejaVuSans-31"/>
       <use xlink:href="#DejaVuSans-30" x="63.623047"/>
       <use xlink:href="#DejaVuSans-30" x="127.246094"/>
      </g>
     </g>
    </g>
    <g id="text_17">
     <!-- Waiting Time/s -->
     <g transform="translate(25.432812 211.410031)rotate(-90)scale(0.1 -0.1)">
      <defs>
       <path id="DejaVuSans-57" d="M 213 4666 
L 850 4666 
L 1831 722 
L 2809 4666 
L 3519 4666 
L 4500 722 
L 5478 4666 
L 6119 4666 
L 4947 0 
L 4153 0 
L 3169 4050 
L 2175 0 
L 1381 0 
L 213 4666 
z
" transform="scale(0.015625)"/>
       <path id="DejaVuSans-61" d="M 2194 1759 
Q 1497 1759 1228 1600 
Q 959 1441 959 1056 
Q 959 750 1161 570 
Q 1363 391 1709 391 
Q 2188 391 2477 730 
Q 2766 1069 2766 1631 
L 2766 1759 
L 2194 1759 
z
M 3341 1997 
L 3341 0 
L 2766 0 
L 2766 531 
Q 2569 213 2275 61 
Q 1981 -91 1556 -91 
Q 1019 -91 701 211 
Q 384 513 384 1019 
Q 384 1609 779 1909 
Q 1175 2209 1959 2209 
L 2766 2209 
L 2766 2266 
Q 2766 2663 2505 2880 
Q 2244 3097 1772 3097 
Q 1472 3097 1187 3025 
Q 903 2953 641 2809 
L 641 3341 
Q 956 3463 1253 3523 
Q 1550 3584 1831 3584 
Q 2591 3584 2966 3190 
Q 3341 2797 3341 1997 
z
" transform="scale(0.015625)"/>
       <path id="DejaVuSans-69" d="M 603 3500 
L 1178 3500 
L 1178 0 
L 603 0 
L 603 3500 
z
M 603 4863 
L 1178 4863 
L 1178 4134 
L 603 4134 
L 603 4863 
z
" transform="scale(0.015625)"/>
       <path id="DejaVuSans-74" d="M 1172 4494 
L 1172 3500 
L 2356 3500 
L 2356 3053 
L 1172 3053 
L 1172 1153 
Q 1172 725 1289 603 
Q 1406 481 1766 481 
L 2356 481 
L 2356 0 
L 1766 0 
Q 1100 0 847 248 
Q 594 497 594 1153 
L 594 3053 
L 172 3053 
L 172 3500 
L 594 3500 
L 594 4494 
L 1172 4494 
z
" transform="scale(0.015625)"/>
       <path id="DejaVuSans-6e" d="M 3513 2113 
L 3513 0 
L 2938 0 
L 2938 2094 
Q 2938 2591 2744 2837 
Q 2550 3084 2163 3084 
Q 1697 3084 1428 2787 
Q 1159 2491 1159 1978 
L 1159 0 
L 581 0 
L 581 3500 
L 1159 3500 
L 1159 2956 
Q 1366 3272 1645 3428 
Q 1925 3584 2291 3584 
Q 2894 3584 3203 3211 
Q 3513 2838 3513 2113 
z
" transform="scale(0.015625)"/>
       <path id="DejaVuSans-67" d="M 2906 1791 
Q 2906 2416 2648 2759 
Q 2391 3103 1925 3103 
Q 1463 3103 1205 2759 
Q 947 2416 947 1791 
Q 947 1169 1205 825 
Q 1463 481 1925 481 
Q 2391 481 2648 825 
Q 2906 1169 2906 1791 
z
M 3481 434 
Q 3481 -459 3084 -895 
Q 2688 -1331 1869 -1331 
Q 1566 -1331 1297 -1286 
Q 1028 -1241 775 -1147 
L 775 -588 
Q 1028 -725 1275 -790 
Q 1522 -856 1778 -856 
Q 2344 -856 2625 -561 
Q 2906 -266 2906 331 
L 2906 616 
Q 2728 306 2450 153 
Q 2172 0 1784 0 
Q 1141 0 747 490 
Q 353 981 353 1791 
Q 353 2603 747 3093 
Q 1141 3584 1784 3584 
Q 2172 3584 2450 3431 
Q 2728 3278 2906 2969 
L 2906 3500 
L 3481 3500 
L 3481 434 
z
" transform="scale(0.015625)"/>
       <path id="DejaVuSans-54" d="M -19 4666 
L 3928 4666 
L 3928 4134 
L 2272 4134 
L 2272 0 
L 1638 0 
L 1638 4134 
L -19 4134 
L -19 4666 
z
" transform="scale(0.015625)"/>
       <path id="DejaVuSans-2f" d="M 1625 4666 
L 2156 4666 
L 531 -594 
L 0 -594 
L 1625 4666 
z
" transform="scale(0.015625)"/>
      </defs>
      <use xlink:href="#DejaVuSans-57"/>
      <use xlink:href="#DejaVuSans-61" x="92.501953"/>
      <use xlink:href="#DejaVuSans-69" x="153.78125"/>
      <use xlink:href="#DejaVuSans-74" x="181.564453"/>
      <use xlink:href="#DejaVuSans-69" x="220.773438"/>
      <use xlink:href="#DejaVuSans-6e" x="248.556641"/>
      <use xlink:href="#DejaVuSans-67" x="311.935547"/>
      <use xlink:href="#DejaVuSans-20" x="375.412109"/>
      <use xlink:href="#DejaVuSans-54" x="407.199219"/>
      <use xlink:href="#DejaVuSans-69" x="465.158203"/>
      <use xlink:href="#DejaVuSans-6d" x="492.941406"/>
      <use xlink:href="#DejaVuSans-65" x="590.353516"/>
      <use xlink:href="#DejaVuSans-2f" x="651.876953"/>
      <use xlink:href="#DejaVuSans-73" x="685.568359"/>
     </g>
    </g>
   </g>
   <g id="line2d_16">
    <path d="M 73.832727 285.949371 
L 73.995136 283.215003 
L 74.157544 285.438284 
L 74.482361 281.493695 
L 74.64477 282.978434 
L 74.807178 282.419379 
L 74.969587 282.552418 
L 75.131995 281.82715 
L 75.456812 282.967339 
L 75.619221 281.485623 
L 75.944037 282.74991 
L 76.106446 282.359763 
L 76.918488 278.752629 
L 77.080897 278.956161 
L 77.243305 278.046544 
L 77.568122 278.11827 
L 77.730531 277.770241 
L 77.892939 277.804021 
L 78.055348 277.190232 
L 78.380165 277.159907 
L 78.542573 276.966868 
L 78.704982 277.223333 
L 78.86739 276.32321 
L 79.029799 276.534073 
L 79.192207 276.126337 
L 79.354615 276.022022 
L 79.517024 276.337179 
L 80.004249 275.461723 
L 80.166658 275.657157 
L 80.329066 275.383259 
L 80.491475 275.855191 
L 80.653883 275.871799 
L 80.816292 275.536969 
L 81.141109 275.525971 
L 81.303517 275.210218 
L 81.465926 275.234875 
L 81.790743 274.636395 
L 81.953151 274.571944 
L 82.11556 274.737536 
L 82.277968 274.362919 
L 82.602785 274.853469 
L 83.09001 274.624061 
L 83.252419 274.831782 
L 83.577236 274.817359 
L 84.064461 273.937643 
L 84.389278 274.177653 
L 84.551687 273.822493 
L 84.714095 273.838164 
L 84.876504 273.660669 
L 85.038912 273.649254 
L 85.201321 273.396408 
L 85.363729 273.466693 
L 85.526138 273.301309 
L 85.688546 273.509418 
L 85.850955 273.497363 
L 86.013363 273.272056 
L 86.175772 273.353338 
L 86.500588 273.144056 
L 86.987814 273.356042 
L 87.150222 273.443241 
L 87.312631 273.366388 
L 87.475039 272.845512 
L 87.637448 272.830491 
L 88.124673 273.111208 
L 88.287082 273.187513 
L 88.44949 272.987498 
L 88.936716 273.004768 
L 89.423941 273.431656 
L 89.58635 273.185379 
L 89.748758 272.706914 
L 89.911166 272.856796 
L 90.073575 272.773496 
L 90.235983 272.499036 
L 90.398392 272.564432 
L 90.5608 272.424369 
L 90.885617 272.664592 
L 91.69766 272.38348 
L 92.347294 272.751248 
L 92.509702 272.653486 
L 92.672111 272.262553 
L 92.996928 272.434916 
L 93.484153 272.17711 
L 93.646561 272.135591 
L 93.80897 272.295881 
L 93.971378 272.00276 
L 95.595463 271.74207 
L 95.757872 271.559581 
L 96.082689 271.689441 
L 96.732323 272.089078 
L 96.894731 272.076145 
L 97.057139 272.219187 
L 98.03159 271.981931 
L 98.518816 272.200946 
L 98.843633 272.15399 
L 99.330858 272.488395 
L 99.493267 272.276698 
L 99.818084 272.381671 
L 100.142901 272.201195 
L 100.305309 272.231001 
L 100.792534 271.812396 
L 101.604577 271.733794 
L 101.929394 271.696184 
L 102.254211 271.704229 
L 102.741436 272.011236 
L 103.39107 271.923409 
L 103.878296 271.858921 
L 104.527929 271.911994 
L 105.177563 271.975013 
L 105.339972 271.919426 
L 105.50238 271.992393 
L 105.664789 271.847928 
L 107.126465 271.919959 
L 107.61369 271.734753 
L 108.425733 271.863446 
L 108.75055 271.768512 
L 109.075367 271.647086 
L 109.562592 271.613417 
L 109.725001 271.635872 
L 110.212226 271.413904 
L 110.86186 271.42617 
L 111.511494 271.428558 
L 111.673902 271.327225 
L 111.998719 271.377558 
L 112.323536 271.299225 
L 114.597255 271.015718 
L 114.759663 271.070404 
L 115.08448 270.900305 
L 115.571706 270.913138 
L 116.383748 270.567099 
L 116.708565 270.540901 
L 116.870974 270.394345 
L 117.195791 270.342398 
L 117.845425 270.204499 
L 119.956735 269.642874 
L 120.281552 269.431421 
L 120.44396 269.47215 
L 120.768777 269.367468 
L 122.230453 269.157156 
L 122.717679 268.936485 
L 123.204904 268.927141 
L 123.854538 268.59263 
L 124.504172 268.647404 
L 124.828989 268.517801 
L 125.153806 268.509251 
L 125.641031 268.312194 
L 126.290665 268.282358 
L 128.077159 267.935618 
L 128.401976 267.968622 
L 128.726792 267.823404 
L 129.051609 267.756419 
L 129.376426 267.687035 
L 129.701243 267.460324 
L 130.02606 267.426121 
L 131.000511 267.35777 
L 131.487737 267.332968 
L 131.974962 267.280815 
L 133.111821 266.920756 
L 133.599047 266.801358 
L 133.923864 266.783396 
L 134.248681 266.683212 
L 136.035174 266.510071 
L 137.49685 266.528582 
L 138.471301 266.312451 
L 139.120935 266.370855 
L 139.60816 266.442369 
L 140.420203 266.364287 
L 140.74502 266.319296 
L 141.232245 266.289343 
L 141.881879 266.206687 
L 142.531513 266.089859 
L 145.292457 265.725832 
L 145.617274 265.708778 
L 146.754133 265.569634 
L 147.403767 265.424113 
L 148.378218 265.288761 
L 148.865444 265.199021 
L 149.190261 265.197015 
L 149.677486 265.084201 
L 150.32712 264.944803 
L 150.814345 264.871385 
L 151.788796 264.652369 
L 152.113613 264.557246 
L 153.575289 264.190445 
L 154.062515 264.090553 
L 159.421995 263.318704 
L 160.721262 263.057153 
L 162.02053 262.734049 
L 162.345347 262.7158 
L 162.670164 262.603282 
L 163.319798 262.545289 
L 164.781474 262.233014 
L 167.217602 261.88232 
L 169.166503 261.428288 
L 169.653729 261.288395 
L 170.952996 261.08336 
L 172.252264 260.707521 
L 173.064307 260.60729 
L 173.551532 260.41251 
L 175.013208 260.102535 
L 175.987659 259.910444 
L 177.286927 259.514571 
L 178.098969 259.350003 
L 179.07342 259.142826 
L 181.509548 258.592548 
L 209.443806 252.097765 
L 210.905482 251.608242 
L 212.367158 251.252997 
L 213.504017 250.92387 
L 214.965694 250.493127 
L 215.777736 250.148885 
L 219.513131 248.995221 
L 220.487582 248.675368 
L 222.111667 248.186095 
L 225.035019 247.343806 
L 229.582457 245.815505 
L 231.206541 245.283735 
L 232.668218 244.825942 
L 234.292303 244.191698 
L 237.053247 243.214613 
L 239.164557 242.542049 
L 239.814191 242.313771 
L 247.447389 239.576285 
L 248.42184 239.240105 
L 250.208333 238.603029 
L 253.131686 237.524861 
L 253.943728 237.242828 
L 258.00394 235.849121 
L 264.662688 233.381523 
L 265.961956 232.931927 
L 267.910857 232.275354 
L 268.885308 231.91462 
L 273.107929 230.408947 
L 274.244788 230.011365 
L 275.381647 229.589193 
L 279.279451 228.163146 
L 285.126156 226.028514 
L 286.263015 225.637532 
L 287.075058 225.32095 
L 289.673593 224.375182 
L 290.485636 224.073266 
L 291.622495 223.629187 
L 293.571397 222.931315 
L 294.545847 222.553493 
L 295.845115 222.050094 
L 300.71737 220.097976 
L 302.179046 219.520191 
L 304.777582 218.478713 
L 305.752032 218.127997 
L 314.359682 214.685778 
L 319.394344 212.612331 
L 320.368795 212.208144 
L 321.99288 211.492251 
L 324.10419 210.645572 
L 325.565867 209.975501 
L 327.35236 209.274624 
L 349.927138 199.8548 
L 354.636984 197.992906 
L 355.936252 197.458693 
L 368.116888 192.620189 
L 391.178891 183.551527 
L 392.802976 182.919354 
L 395.076695 182.012106 
L 396.375963 181.516828 
L 398.487273 180.644 
L 398.487273 180.644 
" clip-path="url(#pdd1fddc036)" style="fill: none; stroke-dasharray: 2,3.3; stroke-dashoffset: 0; stroke: #0000ff; stroke-width: 2"/>
   </g>
   <g id="line2d_17">
    <path d="M 73.832727 285.949371 
L 73.995136 283.215003 
L 74.157544 285.438284 
L 74.482361 281.493695 
L 74.64477 282.978434 
L 74.807178 282.419379 
L 74.969587 282.552418 
L 75.131995 281.82715 
L 75.456812 282.959209 
L 75.619221 281.478171 
L 75.781629 282.21126 
L 75.944037 281.414281 
L 76.268854 282.377459 
L 76.431263 282.10514 
L 76.593671 280.858906 
L 76.75608 280.656374 
L 77.080897 279.346467 
L 77.243305 279.089312 
L 77.405714 279.076964 
L 77.568122 278.238115 
L 77.892939 278.578106 
L 78.055348 277.935648 
L 78.217756 277.820835 
L 78.380165 278.044595 
L 78.542573 278.057194 
L 78.704982 277.867993 
L 78.86739 277.929401 
L 79.029799 277.035158 
L 79.192207 276.977151 
L 79.354615 276.695443 
L 79.517024 276.876494 
L 79.679432 276.537099 
L 79.841841 276.53179 
L 80.004249 276.188393 
L 80.491475 276.627915 
L 80.653883 276.220421 
L 80.816292 276.339153 
L 80.9787 276.311564 
L 81.141109 276.071784 
L 81.465926 276.200596 
L 81.628334 275.880174 
L 81.790743 275.850868 
L 82.277968 276.36433 
L 82.440377 275.981832 
L 82.927602 275.788952 
L 83.09001 275.804475 
L 83.252419 275.690769 
L 83.414827 275.736703 
L 83.577236 275.955038 
L 83.739644 275.567628 
L 83.902053 275.575489 
L 84.064461 275.763693 
L 84.22687 275.780438 
L 84.389278 275.528514 
L 84.714095 275.840693 
L 85.038912 275.752975 
L 85.526138 275.77541 
L 85.688546 275.979444 
L 86.175772 275.394576 
L 86.662997 275.779317 
L 86.987814 275.369843 
L 88.124673 275.514142 
L 88.611899 275.067816 
L 88.774307 275.054231 
L 89.099124 275.327775 
L 89.58635 275.383937 
L 89.748758 275.073597 
L 89.911166 275.02713 
L 90.235983 275.306218 
L 90.398392 275.191574 
L 90.885617 275.180471 
L 91.210434 275.162495 
L 91.535251 274.897099 
L 92.022477 274.964936 
L 92.184885 275.021803 
L 92.347294 274.849702 
L 92.834519 274.89497 
L 92.996928 275.083493 
L 94.133787 275.116727 
L 94.458604 274.936646 
L 94.621012 275.108028 
L 95.433055 274.991037 
L 95.595463 274.959884 
L 95.757872 274.753392 
L 96.245097 274.867206 
L 96.732323 275.041662 
L 97.381956 274.781202 
L 98.193999 275.115502 
L 98.356407 275.100342 
L 98.518816 274.943997 
L 98.843633 274.888302 
L 99.330858 274.863031 
L 99.818084 275.077453 
L 100.142901 275.080286 
L 100.305309 274.922787 
L 100.954943 275.16936 
L 101.27976 274.873362 
L 102.254211 274.88543 
L 102.741436 275.093008 
L 103.066253 274.888967 
L 104.690338 274.773792 
L 105.177563 274.611463 
L 105.827197 274.81869 
L 106.63924 274.597209 
L 106.801648 274.624037 
L 107.126465 274.477788 
L 107.61369 274.564976 
L 107.938507 274.650004 
L 109.075367 274.346948 
L 109.725001 274.308549 
L 110.212226 274.005683 
L 110.699452 273.904826 
L 111.024268 273.919258 
L 111.836311 273.876138 
L 111.998719 273.731432 
L 112.323536 273.705303 
L 112.97317 273.674994 
L 113.622804 273.624496 
L 113.947621 273.590382 
L 114.272438 273.568079 
L 114.597255 273.617578 
L 116.546157 273.740494 
L 116.870974 273.614137 
L 117.520608 273.668335 
L 117.845425 273.556074 
L 118.33265 273.556741 
L 118.819875 273.474712 
L 119.956735 273.387744 
L 120.606369 273.29417 
L 121.256003 273.347951 
L 121.905636 273.340454 
L 122.55527 273.410064 
L 122.880087 273.541459 
L 123.529721 273.604526 
L 123.69213 273.535425 
L 123.854538 273.594588 
L 124.341764 273.476266 
L 124.504172 273.475893 
L 124.828989 273.356049 
L 125.641031 273.278646 
L 125.965848 273.243427 
L 126.453074 273.215712 
L 129.051609 273.083137 
L 129.376426 273.046759 
L 130.02606 273.173828 
L 131.812554 273.202196 
L 132.787004 273.109042 
L 136.035174 273.024126 
L 137.172033 273.057122 
L 137.49685 273.054645 
L 138.146484 273.137321 
L 140.907428 272.936146 
L 141.394654 272.963495 
L 142.369105 272.987017 
L 142.693922 272.960346 
L 145.130049 273.003959 
L 145.617274 272.892873 
L 148.378218 272.874947 
L 148.865444 272.949807 
L 150.489528 272.766031 
L 150.976754 272.810162 
L 151.463979 272.701179 
L 152.925656 272.577299 
L 154.062515 272.433939 
L 154.712149 272.592348 
L 155.524191 272.54027 
L 156.011417 272.535389 
L 156.661051 272.658422 
L 157.960318 272.640348 
L 161.695713 272.680382 
L 162.182939 272.663475 
L 164.294249 272.726049 
L 166.080742 272.751955 
L 166.730376 272.846238 
L 167.055193 272.797776 
L 167.704827 272.811494 
L 169.816137 272.717495 
L 171.440222 272.63063 
L 172.414673 272.566031 
L 173.389124 272.627355 
L 174.525983 272.497663 
L 175.175617 272.512497 
L 176.312476 272.416134 
L 180.697505 272.507872 
L 183.133632 272.577629 
L 183.783266 272.539262 
L 186.381802 272.590941 
L 192.878141 272.468039 
L 193.852592 272.505873 
L 194.827043 272.457171 
L 196.938353 272.476665 
L 199.212071 272.446043 
L 199.699297 272.437242 
L 200.511339 272.441495 
L 201.160973 272.448483 
L 212.367158 272.463569 
L 213.016792 272.402147 
L 214.803285 272.430279 
L 217.726638 272.432198 
L 219.188314 272.345216 
L 219.837948 272.324501 
L 222.598892 272.290584 
L 223.573343 272.312994 
L 224.385385 272.243629 
L 225.359836 272.24189 
L 226.334287 272.155721 
L 228.283189 272.204131 
L 229.095231 272.186718 
L 230.556908 272.203061 
L 231.531358 272.167954 
L 235.266753 272.186407 
L 239.164557 272.149913 
L 241.113459 272.123901 
L 252.969277 271.937579 
L 254.430954 271.935808 
L 255.405405 271.914514 
L 256.704672 271.898627 
L 258.491166 271.817051 
L 259.140799 271.790882 
L 262.226561 271.795922 
L 264.175462 271.800447 
L 265.799547 271.737671 
L 267.58604 271.727164 
L 272.295886 271.630904 
L 294.870664 271.478476 
L 295.845115 271.460775 
L 297.4692 271.41591 
L 300.392553 271.346963 
L 301.69182 271.350647 
L 305.102398 271.272277 
L 307.376117 271.323492 
L 308.512976 271.312244 
L 311.761146 271.312323 
L 315.009316 271.329596 
L 316.6334 271.338521 
L 318.095077 271.310644 
L 319.394344 271.315828 
L 326.053092 271.373218 
L 327.189951 271.299249 
L 330.113304 271.324454 
L 334.335924 271.199339 
L 337.746502 271.198941 
L 339.208179 271.186682 
L 341.644306 271.202352 
L 342.943574 271.182317 
L 344.242841 271.145152 
L 360.970915 271.095434 
L 364.70631 271.154554 
L 366.005577 271.183711 
L 368.441704 271.226954 
L 370.228198 271.207089 
L 381.109566 271.241331 
L 381.921608 271.197929 
L 398.487273 271.006149 
L 398.487273 271.006149 
" clip-path="url(#pdd1fddc036)" style="fill: none; stroke-dasharray: 2,3.3; stroke-dashoffset: 0; stroke: #ffa500; stroke-width: 2"/>
   </g>
   <g id="patch_3">
    <path d="M 57.6 307.584 
L 57.6 41.472 
" style="fill: none; stroke: #000000; stroke-width: 0.8; stroke-linejoin: miter; stroke-linecap: square"/>
   </g>
   <g id="patch_4">
    <path d="M 414.72 307.584 
L 414.72 41.472 
" style="fill: none; stroke: #000000; stroke-width: 0.8; stroke-linejoin: miter; stroke-linecap: square"/>
   </g>
   <g id="patch_5">
    <path d="M 57.6 307.584 
L 414.72 307.584 
" style="fill: none; stroke: #000000; stroke-width: 0.8; stroke-linejoin: miter; stroke-linecap: square"/>
   </g>
   <g id="patch_6">
    <path d="M 57.6 41.472 
L 414.72 41.472 
" style="fill: none; stroke: #000000; stroke-width: 0.8; stroke-linejoin: miter; stroke-linecap: square"/>
   </g>
   <g id="text_18">
    <!-- Waiting Time Plot -->
    <g transform="translate(183.833438 8.2635)scale(0.12 -0.12)">
     <defs>
      <path id="DejaVuSans-50" d="M 1259 4147 
L 1259 2394 
L 2053 2394 
Q 2494 2394 2734 2622 
Q 2975 2850 2975 3272 
Q 2975 3691 2734 3919 
Q 2494 4147 2053 4147 
L 1259 4147 
z
M 628 4666 
L 2053 4666 
Q 2838 4666 3239 4311 
Q 3641 3956 3641 3272 
Q 3641 2581 3239 2228 
Q 2838 1875 2053 1875 
L 1259 1875 
L 1259 0 
L 628 0 
L 628 4666 
z
" transform="scale(0.015625)"/>
      <path id="DejaVuSans-6c" d="M 603 4863 
L 1178 4863 
L 1178 0 
L 603 0 
L 603 4863 
z
" transform="scale(0.015625)"/>
     </defs>
     <use xlink:href="#DejaVuSans-57"/>
     <use xlink:href="#DejaVuSans-61" x="92.501953"/>
     <use xlink:href="#DejaVuSans-69" x="153.78125"/>
     <use xlink:href="#DejaVuSans-74" x="181.564453"/>
     <use xlink:href="#DejaVuSans-69" x="220.773438"/>
     <use xlink:href="#DejaVuSans-6e" x="248.556641"/>
     <use xlink:href="#DejaVuSans-67" x="311.935547"/>
     <use xlink:href="#DejaVuSans-20" x="375.412109"/>
     <use xlink:href="#DejaVuSans-54" x="407.199219"/>
     <use xlink:href="#DejaVuSans-69" x="465.158203"/>
     <use xlink:href="#DejaVuSans-6d" x="492.941406"/>
     <use xlink:href="#DejaVuSans-65" x="590.353516"/>
     <use xlink:href="#DejaVuSans-20" x="651.876953"/>
     <use xlink:href="#DejaVuSans-50" x="683.664062"/>
     <use xlink:href="#DejaVuSans-6c" x="743.966797"/>
     <use xlink:href="#DejaVuSans-6f" x="771.75"/>
     <use xlink:href="#DejaVuSans-74" x="832.931641"/>
    </g>
    <!--  avg_d = 47.70171956373779  -->
    <g transform="translate(142.671562 21.700875)scale(0.12 -0.12)">
     <defs>
      <path id="DejaVuSans-76" d="M 191 3500 
L 800 3500 
L 1894 563 
L 2988 3500 
L 3597 3500 
L 2284 0 
L 1503 0 
L 191 3500 
z
" transform="scale(0.015625)"/>
      <path id="DejaVuSans-5f" d="M 3263 -1063 
L 3263 -1509 
L -63 -1509 
L -63 -1063 
L 3263 -1063 
z
" transform="scale(0.015625)"/>
      <path id="DejaVuSans-3d" d="M 678 2906 
L 4684 2906 
L 4684 2381 
L 678 2381 
L 678 2906 
z
M 678 1631 
L 4684 1631 
L 4684 1100 
L 678 1100 
L 678 1631 
z
" transform="scale(0.015625)"/>
      <path id="DejaVuSans-2e" d="M 684 794 
L 1344 794 
L 1344 0 
L 684 0 
L 684 794 
z
" transform="scale(0.015625)"/>
      <path id="DejaVuSans-39" d="M 703 97 
L 703 672 
Q 941 559 1184 500 
Q 1428 441 1663 441 
Q 2288 441 2617 861 
Q 2947 1281 2994 2138 
Q 2813 1869 2534 1725 
Q 2256 1581 1919 1581 
Q 1219 1581 811 2004 
Q 403 2428 403 3163 
Q 403 3881 828 4315 
Q 1253 4750 1959 4750 
Q 2769 4750 3195 4129 
Q 3622 3509 3622 2328 
Q 3622 1225 3098 567 
Q 2575 -91 1691 -91 
Q 1453 -91 1209 -44 
Q 966 3 703 97 
z
M 1959 2075 
Q 2384 2075 2632 2365 
Q 2881 2656 2881 3163 
Q 2881 3666 2632 3958 
Q 2384 4250 1959 4250 
Q 1534 4250 1286 3958 
Q 1038 3666 1038 3163 
Q 1038 2656 1286 2365 
Q 1534 2075 1959 2075 
z
" transform="scale(0.015625)"/>
      <path id="DejaVuSans-33" d="M 2597 2516 
Q 3050 2419 3304 2112 
Q 3559 1806 3559 1356 
Q 3559 666 3084 287 
Q 2609 -91 1734 -91 
Q 1441 -91 1130 -33 
Q 819 25 488 141 
L 488 750 
Q 750 597 1062 519 
Q 1375 441 1716 441 
Q 2309 441 2620 675 
Q 2931 909 2931 1356 
Q 2931 1769 2642 2001 
Q 2353 2234 1838 2234 
L 1294 2234 
L 1294 2753 
L 1863 2753 
Q 2328 2753 2575 2939 
Q 2822 3125 2822 3475 
Q 2822 3834 2567 4026 
Q 2313 4219 1838 4219 
Q 1578 4219 1281 4162 
Q 984 4106 628 3988 
L 628 4550 
Q 988 4650 1302 4700 
Q 1616 4750 1894 4750 
Q 2613 4750 3031 4423 
Q 3450 4097 3450 3541 
Q 3450 3153 3228 2886 
Q 3006 2619 2597 2516 
z
" transform="scale(0.015625)"/>
     </defs>
     <use xlink:href="#DejaVuSans-20"/>
     <use xlink:href="#DejaVuSans-61" x="31.787109"/>
     <use xlink:href="#DejaVuSans-76" x="93.066406"/>
     <use xlink:href="#DejaVuSans-67" x="152.246094"/>
     <use xlink:href="#DejaVuSans-5f" x="215.722656"/>
     <use xlink:href="#DejaVuSans-64" x="265.722656"/>
     <use xlink:href="#DejaVuSans-20" x="329.199219"/>
     <use xlink:href="#DejaVuSans-3d" x="360.986328"/>
     <use xlink:href="#DejaVuSans-20" x="444.775391"/>
     <use xlink:href="#DejaVuSans-34" x="476.5625"/>
     <use xlink:href="#DejaVuSans-37" x="540.185547"/>
     <use xlink:href="#DejaVuSans-2e" x="603.808594"/>
     <use xlink:href="#DejaVuSans-37" x="635.595703"/>
     <use xlink:href="#DejaVuSans-30" x="699.21875"/>
     <use xlink:href="#DejaVuSans-31" x="762.841797"/>
     <use xlink:href="#DejaVuSans-37" x="826.464844"/>
     <use xlink:href="#DejaVuSans-31" x="890.087891"/>
     <use xlink:href="#DejaVuSans-39" x="953.710938"/>
     <use xlink:href="#DejaVuSans-35" x="1017.333984"/>
     <use xlink:href="#DejaVuSans-36" x="1080.957031"/>
     <use xlink:href="#DejaVuSans-33" x="1144.580078"/>
     <use xlink:href="#DejaVuSans-37" x="1208.203125"/>
     <use xlink:href="#DejaVuSans-33" x="1271.826172"/>
     <use xlink:href="#DejaVuSans-37" x="1335.449219"/>
     <use xlink:href="#DejaVuSans-37" x="1399.072266"/>
     <use xlink:href="#DejaVuSans-39" x="1462.695312"/>
     <use xlink:href="#DejaVuSans-20" x="1526.318359"/>
    </g>
    <!--  avg_a = 13.745284344082433diff = 33.956435219655354 -->
    <g transform="translate(55.546875 35.472)scale(0.12 -0.12)">
     <use xlink:href="#DejaVuSans-20"/>
     <use xlink:href="#DejaVuSans-61" x="31.787109"/>
     <use xlink:href="#DejaVuSans-76" x="93.066406"/>
     <use xlink:href="#DejaVuSans-67" x="152.246094"/>
     <use xlink:href="#DejaVuSans-5f" x="215.722656"/>
     <use xlink:href="#DejaVuSans-61" x="265.722656"/>
     <use xlink:href="#DejaVuSans-20" x="327.001953"/>
     <use xlink:href="#DejaVuSans-3d" x="358.789062"/>
     <use xlink:href="#DejaVuSans-20" x="442.578125"/>
     <use xlink:href="#DejaVuSans-31" x="474.365234"/>
     <use xlink:href="#DejaVuSans-33" x="537.988281"/>
     <use xlink:href="#DejaVuSans-2e" x="601.611328"/>
     <use xlink:href="#DejaVuSans-37" x="633.398438"/>
     <use xlink:href="#DejaVuSans-34" x="697.021484"/>
     <use xlink:href="#DejaVuSans-35" x="760.644531"/>
     <use xlink:href="#DejaVuSans-32" x="824.267578"/>
     <use xlink:href="#DejaVuSans-38" x="887.890625"/>
     <use xlink:href="#DejaVuSans-34" x="951.513672"/>
     <use xlink:href="#DejaVuSans-33" x="1015.136719"/>
     <use xlink:href="#DejaVuSans-34" x="1078.759766"/>
     <use xlink:href="#DejaVuSans-34" x="1142.382812"/>
     <use xlink:href="#DejaVuSans-30" x="1206.005859"/>
     <use xlink:href="#DejaVuSans-38" x="1269.628906"/>
     <use xlink:href="#DejaVuSans-32" x="1333.251953"/>
     <use xlink:href="#DejaVuSans-34" x="1396.875"/>
     <use xlink:href="#DejaVuSans-33" x="1460.498047"/>
     <use xlink:href="#DejaVuSans-33" x="1524.121094"/>
     <use xlink:href="#DejaVuSans-64" x="1587.744141"/>
     <use xlink:href="#DejaVuSans-69" x="1651.220703"/>
     <use xlink:href="#DejaVuSans-66" x="1679.003906"/>
     <use xlink:href="#DejaVuSans-66" x="1714.208984"/>
     <use xlink:href="#DejaVuSans-20" x="1749.414062"/>
     <use xlink:href="#DejaVuSans-3d" x="1781.201172"/>
     <use xlink:href="#DejaVuSans-20" x="1864.990234"/>
     <use xlink:href="#DejaVuSans-33" x="1896.777344"/>
     <use xlink:href="#DejaVuSans-33" x="1960.400391"/>
     <use xlink:href="#DejaVuSans-2e" x="2024.023438"/>
     <use xlink:href="#DejaVuSans-39" x="2055.810547"/>
     <use xlink:href="#DejaVuSans-35" x="2119.433594"/>
     <use xlink:href="#DejaVuSans-36" x="2183.056641"/>
     <use xlink:href="#DejaVuSans-34" x="2246.679688"/>
     <use xlink:href="#DejaVuSans-33" x="2310.302734"/>
     <use xlink:href="#DejaVuSans-35" x="2373.925781"/>
     <use xlink:href="#DejaVuSans-32" x="2437.548828"/>
     <use xlink:href="#DejaVuSans-31" x="2501.171875"/>
     <use xlink:href="#DejaVuSans-39" x="2564.794922"/>
     <use xlink:href="#DejaVuSans-36" x="2628.417969"/>
     <use xlink:href="#DejaVuSans-35" x="2692.041016"/>
     <use xlink:href="#DejaVuSans-35" x="2755.664062"/>
     <use xlink:href="#DejaVuSans-33" x="2819.287109"/>
     <use xlink:href="#DejaVuSans-35" x="2882.910156"/>
     <use xlink:href="#DejaVuSans-34" x="2946.533203"/>
    </g>
   </g>
   <g id="legend_1">
    <g id="patch_7">
     <path d="M 263.88875 78.82825 
L 407.72 78.82825 
Q 409.72 78.82825 409.72 76.82825 
L 409.72 48.472 
Q 409.72 46.472 407.72 46.472 
L 263.88875 46.472 
Q 261.88875 46.472 261.88875 48.472 
L 261.88875 76.82825 
Q 261.88875 78.82825 263.88875 78.82825 
z
" style="fill: #ffffff; opacity: 0.8; stroke: #cccccc; stroke-linejoin: miter"/>
    </g>
    <g id="line2d_18">
     <path d="M 265.88875 54.570437 
L 275.88875 54.570437 
L 285.88875 54.570437 
" style="fill: none; stroke-dasharray: 2,3.3; stroke-dashoffset: 0; stroke: #0000ff; stroke-width: 2"/>
    </g>
    <g id="text_19">
     <!-- Average (Default) -->
     <g transform="translate(293.88875 58.070437)scale(0.1 -0.1)">
      <defs>
       <path id="DejaVuSans-41" d="M 2188 4044 
L 1331 1722 
L 3047 1722 
L 2188 4044 
z
M 1831 4666 
L 2547 4666 
L 4325 0 
L 3669 0 
L 3244 1197 
L 1141 1197 
L 716 0 
L 50 0 
L 1831 4666 
z
" transform="scale(0.015625)"/>
       <path id="DejaVuSans-28" d="M 1984 4856 
Q 1566 4138 1362 3434 
Q 1159 2731 1159 2009 
Q 1159 1288 1364 580 
Q 1569 -128 1984 -844 
L 1484 -844 
Q 1016 -109 783 600 
Q 550 1309 550 2009 
Q 550 2706 781 3412 
Q 1013 4119 1484 4856 
L 1984 4856 
z
" transform="scale(0.015625)"/>
       <path id="DejaVuSans-44" d="M 1259 4147 
L 1259 519 
L 2022 519 
Q 2988 519 3436 956 
Q 3884 1394 3884 2338 
Q 3884 3275 3436 3711 
Q 2988 4147 2022 4147 
L 1259 4147 
z
M 628 4666 
L 1925 4666 
Q 3281 4666 3915 4102 
Q 4550 3538 4550 2338 
Q 4550 1131 3912 565 
Q 3275 0 1925 0 
L 628 0 
L 628 4666 
z
" transform="scale(0.015625)"/>
       <path id="DejaVuSans-29" d="M 513 4856 
L 1013 4856 
Q 1481 4119 1714 3412 
Q 1947 2706 1947 2009 
Q 1947 1309 1714 600 
Q 1481 -109 1013 -844 
L 513 -844 
Q 928 -128 1133 580 
Q 1338 1288 1338 2009 
Q 1338 2731 1133 3434 
Q 928 4138 513 4856 
z
" transform="scale(0.015625)"/>
      </defs>
      <use xlink:href="#DejaVuSans-41"/>
      <use xlink:href="#DejaVuSans-76" x="62.533203"/>
      <use xlink:href="#DejaVuSans-65" x="121.712891"/>
      <use xlink:href="#DejaVuSans-72" x="183.236328"/>
      <use xlink:href="#DejaVuSans-61" x="224.349609"/>
      <use xlink:href="#DejaVuSans-67" x="285.628906"/>
      <use xlink:href="#DejaVuSans-65" x="349.105469"/>
      <use xlink:href="#DejaVuSans-20" x="410.628906"/>
      <use xlink:href="#DejaVuSans-28" x="442.416016"/>
      <use xlink:href="#DejaVuSans-44" x="481.429688"/>
      <use xlink:href="#DejaVuSans-65" x="558.431641"/>
      <use xlink:href="#DejaVuSans-66" x="619.955078"/>
      <use xlink:href="#DejaVuSans-61" x="655.160156"/>
      <use xlink:href="#DejaVuSans-75" x="716.439453"/>
      <use xlink:href="#DejaVuSans-6c" x="779.818359"/>
      <use xlink:href="#DejaVuSans-74" x="807.601562"/>
      <use xlink:href="#DejaVuSans-29" x="846.810547"/>
     </g>
    </g>
    <g id="line2d_19">
     <path d="M 265.88875 69.248562 
L 275.88875 69.248562 
L 285.88875 69.248562 
" style="fill: none; stroke-dasharray: 2,3.3; stroke-dashoffset: 0; stroke: #ffa500; stroke-width: 2"/>
    </g>
    <g id="text_20">
     <!-- Average (Anticipation) -->
     <g transform="translate(293.88875 72.748562)scale(0.1 -0.1)">
      <defs>
       <path id="DejaVuSans-63" d="M 3122 3366 
L 3122 2828 
Q 2878 2963 2633 3030 
Q 2388 3097 2138 3097 
Q 1578 3097 1268 2742 
Q 959 2388 959 1747 
Q 959 1106 1268 751 
Q 1578 397 2138 397 
Q 2388 397 2633 464 
Q 2878 531 3122 666 
L 3122 134 
Q 2881 22 2623 -34 
Q 2366 -91 2075 -91 
Q 1284 -91 818 406 
Q 353 903 353 1747 
Q 353 2603 823 3093 
Q 1294 3584 2113 3584 
Q 2378 3584 2631 3529 
Q 2884 3475 3122 3366 
z
" transform="scale(0.015625)"/>
       <path id="DejaVuSans-70" d="M 1159 525 
L 1159 -1331 
L 581 -1331 
L 581 3500 
L 1159 3500 
L 1159 2969 
Q 1341 3281 1617 3432 
Q 1894 3584 2278 3584 
Q 2916 3584 3314 3078 
Q 3713 2572 3713 1747 
Q 3713 922 3314 415 
Q 2916 -91 2278 -91 
Q 1894 -91 1617 61 
Q 1341 213 1159 525 
z
M 3116 1747 
Q 3116 2381 2855 2742 
Q 2594 3103 2138 3103 
Q 1681 3103 1420 2742 
Q 1159 2381 1159 1747 
Q 1159 1113 1420 752 
Q 1681 391 2138 391 
Q 2594 391 2855 752 
Q 3116 1113 3116 1747 
z
" transform="scale(0.015625)"/>
      </defs>
      <use xlink:href="#DejaVuSans-41"/>
      <use xlink:href="#DejaVuSans-76" x="62.533203"/>
      <use xlink:href="#DejaVuSans-65" x="121.712891"/>
      <use xlink:href="#DejaVuSans-72" x="183.236328"/>
      <use xlink:href="#DejaVuSans-61" x="224.349609"/>
      <use xlink:href="#DejaVuSans-67" x="285.628906"/>
      <use xlink:href="#DejaVuSans-65" x="349.105469"/>
      <use xlink:href="#DejaVuSans-20" x="410.628906"/>
      <use xlink:href="#DejaVuSans-28" x="442.416016"/>
      <use xlink:href="#DejaVuSans-41" x="481.429688"/>
      <use xlink:href="#DejaVuSans-6e" x="549.837891"/>
      <use xlink:href="#DejaVuSans-74" x="613.216797"/>
      <use xlink:href="#DejaVuSans-69" x="652.425781"/>
      <use xlink:href="#DejaVuSans-63" x="680.208984"/>
      <use xlink:href="#DejaVuSans-69" x="735.189453"/>
      <use xlink:href="#DejaVuSans-70" x="762.972656"/>
      <use xlink:href="#DejaVuSans-61" x="826.449219"/>
      <use xlink:href="#DejaVuSans-74" x="887.728516"/>
      <use xlink:href="#DejaVuSans-69" x="926.9375"/>
      <use xlink:href="#DejaVuSans-6f" x="954.720703"/>
      <use xlink:href="#DejaVuSans-6e" x="1015.902344"/>
      <use xlink:href="#DejaVuSans-29" x="1079.28125"/>
     </g>
    </g>
   </g>
  </g>
 </g>
 <defs>
  <clipPath id="pdd1fddc036">
   <rect x="57.6" y="41.472" width="357.12" height="266.112"/>
  </clipPath>
 </defs>
</svg>
