<?xml version="1.0" encoding="utf-8" standalone="no"?>
<!DOCTYPE svg PUBLIC "-//W3C//DTD SVG 1.1//EN"
  "http://www.w3.org/Graphics/SVG/1.1/DTD/svg11.dtd">
<svg xmlns:xlink="http://www.w3.org/1999/xlink" width="460.8pt" height="345.6pt" viewBox="0 0 460.8 345.6" xmlns="http://www.w3.org/2000/svg" version="1.1">
 <metadata>
  <rdf:RDF xmlns:dc="http://purl.org/dc/elements/1.1/" xmlns:cc="http://creativecommons.org/ns#" xmlns:rdf="http://www.w3.org/1999/02/22-rdf-syntax-ns#">
   <cc:Work>
    <dc:type rdf:resource="http://purl.org/dc/dcmitype/StillImage"/>
    <dc:date>2022-11-07T15:53:38.031638</dc:date>
    <dc:format>image/svg+xml</dc:format>
    <dc:creator>
     <cc:Agent>
      <dc:title>Matplotlib v3.5.3, https://matplotlib.org/</dc:title>
     </cc:Agent>
    </dc:creator>
   </cc:Work>
  </rdf:RDF>
 </metadata>
 <defs>
  <style type="text/css">*{stroke-linejoin: round; stroke-linecap: butt}</style>
 </defs>
 <g id="figure_1">
  <g id="patch_1">
   <path d="M 0 345.6 
L 460.8 345.6 
L 460.8 0 
L 0 0 
z
" style="fill: #ffffff"/>
  </g>
  <g id="axes_1">
   <g id="patch_2">
    <path d="M 57.6 307.584 
L 414.72 307.584 
L 414.72 41.472 
L 57.6 41.472 
z
" style="fill: #ffffff"/>
   </g>
   <g id="matplotlib.axis_1">
    <g id="xtick_1">
     <g id="line2d_1">
      <defs>
       <path id="m3552260420" d="M 0 0 
L 0 3.5 
" style="stroke: #000000; stroke-width: 0.8"/>
      </defs>
      <g>
       <use xlink:href="#m3552260420" x="73.832727" y="307.584" style="stroke: #000000; stroke-width: 0.8"/>
      </g>
     </g>
     <g id="text_1">
      <!-- 0 -->
      <g transform="translate(70.651477 322.182437)scale(0.1 -0.1)">
       <defs>
        <path id="DejaVuSans-30" d="M 2034 4250 
Q 1547 4250 1301 3770 
Q 1056 3291 1056 2328 
Q 1056 1369 1301 889 
Q 1547 409 2034 409 
Q 2525 409 2770 889 
Q 3016 1369 3016 2328 
Q 3016 3291 2770 3770 
Q 2525 4250 2034 4250 
z
M 2034 4750 
Q 2819 4750 3233 4129 
Q 3647 3509 3647 2328 
Q 3647 1150 3233 529 
Q 2819 -91 2034 -91 
Q 1250 -91 836 529 
Q 422 1150 422 2328 
Q 422 3509 836 4129 
Q 1250 4750 2034 4750 
z
" transform="scale(0.015625)"/>
       </defs>
       <use xlink:href="#DejaVuSans-30"/>
      </g>
     </g>
    </g>
    <g id="xtick_2">
     <g id="line2d_2">
      <g>
       <use xlink:href="#m3552260420" x="114.434847" y="307.584" style="stroke: #000000; stroke-width: 0.8"/>
      </g>
     </g>
     <g id="text_2">
      <!-- 250 -->
      <g transform="translate(104.891097 322.182437)scale(0.1 -0.1)">
       <defs>
        <path id="DejaVuSans-32" d="M 1228 531 
L 3431 531 
L 3431 0 
L 469 0 
L 469 531 
Q 828 903 1448 1529 
Q 2069 2156 2228 2338 
Q 2531 2678 2651 2914 
Q 2772 3150 2772 3378 
Q 2772 3750 2511 3984 
Q 2250 4219 1831 4219 
Q 1534 4219 1204 4116 
Q 875 4013 500 3803 
L 500 4441 
Q 881 4594 1212 4672 
Q 1544 4750 1819 4750 
Q 2544 4750 2975 4387 
Q 3406 4025 3406 3419 
Q 3406 3131 3298 2873 
Q 3191 2616 2906 2266 
Q 2828 2175 2409 1742 
Q 1991 1309 1228 531 
z
" transform="scale(0.015625)"/>
        <path id="DejaVuSans-35" d="M 691 4666 
L 3169 4666 
L 3169 4134 
L 1269 4134 
L 1269 2991 
Q 1406 3038 1543 3061 
Q 1681 3084 1819 3084 
Q 2600 3084 3056 2656 
Q 3513 2228 3513 1497 
Q 3513 744 3044 326 
Q 2575 -91 1722 -91 
Q 1428 -91 1123 -41 
Q 819 9 494 109 
L 494 744 
Q 775 591 1075 516 
Q 1375 441 1709 441 
Q 2250 441 2565 725 
Q 2881 1009 2881 1497 
Q 2881 1984 2565 2268 
Q 2250 2553 1709 2553 
Q 1456 2553 1204 2497 
Q 953 2441 691 2322 
L 691 4666 
z
" transform="scale(0.015625)"/>
       </defs>
       <use xlink:href="#DejaVuSans-32"/>
       <use xlink:href="#DejaVuSans-35" x="63.623047"/>
       <use xlink:href="#DejaVuSans-30" x="127.246094"/>
      </g>
     </g>
    </g>
    <g id="xtick_3">
     <g id="line2d_3">
      <g>
       <use xlink:href="#m3552260420" x="155.036966" y="307.584" style="stroke: #000000; stroke-width: 0.8"/>
      </g>
     </g>
     <g id="text_3">
      <!-- 500 -->
      <g transform="translate(145.493216 322.182437)scale(0.1 -0.1)">
       <use xlink:href="#DejaVuSans-35"/>
       <use xlink:href="#DejaVuSans-30" x="63.623047"/>
       <use xlink:href="#DejaVuSans-30" x="127.246094"/>
      </g>
     </g>
    </g>
    <g id="xtick_4">
     <g id="line2d_4">
      <g>
       <use xlink:href="#m3552260420" x="195.639085" y="307.584" style="stroke: #000000; stroke-width: 0.8"/>
      </g>
     </g>
     <g id="text_4">
      <!-- 750 -->
      <g transform="translate(186.095335 322.182437)scale(0.1 -0.1)">
       <defs>
        <path id="DejaVuSans-37" d="M 525 4666 
L 3525 4666 
L 3525 4397 
L 1831 0 
L 1172 0 
L 2766 4134 
L 525 4134 
L 525 4666 
z
" transform="scale(0.015625)"/>
       </defs>
       <use xlink:href="#DejaVuSans-37"/>
       <use xlink:href="#DejaVuSans-35" x="63.623047"/>
       <use xlink:href="#DejaVuSans-30" x="127.246094"/>
      </g>
     </g>
    </g>
    <g id="xtick_5">
     <g id="line2d_5">
      <g>
       <use xlink:href="#m3552260420" x="236.241204" y="307.584" style="stroke: #000000; stroke-width: 0.8"/>
      </g>
     </g>
     <g id="text_5">
      <!-- 1000 -->
      <g transform="translate(223.516204 322.182437)scale(0.1 -0.1)">
       <defs>
        <path id="DejaVuSans-31" d="M 794 531 
L 1825 531 
L 1825 4091 
L 703 3866 
L 703 4441 
L 1819 4666 
L 2450 4666 
L 2450 531 
L 3481 531 
L 3481 0 
L 794 0 
L 794 531 
z
" transform="scale(0.015625)"/>
       </defs>
       <use xlink:href="#DejaVuSans-31"/>
       <use xlink:href="#DejaVuSans-30" x="63.623047"/>
       <use xlink:href="#DejaVuSans-30" x="127.246094"/>
       <use xlink:href="#DejaVuSans-30" x="190.869141"/>
      </g>
     </g>
    </g>
    <g id="xtick_6">
     <g id="line2d_6">
      <g>
       <use xlink:href="#m3552260420" x="276.843323" y="307.584" style="stroke: #000000; stroke-width: 0.8"/>
      </g>
     </g>
     <g id="text_6">
      <!-- 1250 -->
      <g transform="translate(264.118323 322.182437)scale(0.1 -0.1)">
       <use xlink:href="#DejaVuSans-31"/>
       <use xlink:href="#DejaVuSans-32" x="63.623047"/>
       <use xlink:href="#DejaVuSans-35" x="127.246094"/>
       <use xlink:href="#DejaVuSans-30" x="190.869141"/>
      </g>
     </g>
    </g>
    <g id="xtick_7">
     <g id="line2d_7">
      <g>
       <use xlink:href="#m3552260420" x="317.445443" y="307.584" style="stroke: #000000; stroke-width: 0.8"/>
      </g>
     </g>
     <g id="text_7">
      <!-- 1500 -->
      <g transform="translate(304.720443 322.182437)scale(0.1 -0.1)">
       <use xlink:href="#DejaVuSans-31"/>
       <use xlink:href="#DejaVuSans-35" x="63.623047"/>
       <use xlink:href="#DejaVuSans-30" x="127.246094"/>
       <use xlink:href="#DejaVuSans-30" x="190.869141"/>
      </g>
     </g>
    </g>
    <g id="xtick_8">
     <g id="line2d_8">
      <g>
       <use xlink:href="#m3552260420" x="358.047562" y="307.584" style="stroke: #000000; stroke-width: 0.8"/>
      </g>
     </g>
     <g id="text_8">
      <!-- 1750 -->
      <g transform="translate(345.322562 322.182437)scale(0.1 -0.1)">
       <use xlink:href="#DejaVuSans-31"/>
       <use xlink:href="#DejaVuSans-37" x="63.623047"/>
       <use xlink:href="#DejaVuSans-35" x="127.246094"/>
       <use xlink:href="#DejaVuSans-30" x="190.869141"/>
      </g>
     </g>
    </g>
    <g id="xtick_9">
     <g id="line2d_9">
      <g>
       <use xlink:href="#m3552260420" x="398.649681" y="307.584" style="stroke: #000000; stroke-width: 0.8"/>
      </g>
     </g>
     <g id="text_9">
      <!-- 2000 -->
      <g transform="translate(385.924681 322.182437)scale(0.1 -0.1)">
       <use xlink:href="#DejaVuSans-32"/>
       <use xlink:href="#DejaVuSans-30" x="63.623047"/>
       <use xlink:href="#DejaVuSans-30" x="127.246094"/>
       <use xlink:href="#DejaVuSans-30" x="190.869141"/>
      </g>
     </g>
    </g>
    <g id="text_10">
     <!-- Number of Orders -->
     <g transform="translate(191.261562 335.860562)scale(0.1 -0.1)">
      <defs>
       <path id="DejaVuSans-4e" d="M 628 4666 
L 1478 4666 
L 3547 763 
L 3547 4666 
L 4159 4666 
L 4159 0 
L 3309 0 
L 1241 3903 
L 1241 0 
L 628 0 
L 628 4666 
z
" transform="scale(0.015625)"/>
       <path id="DejaVuSans-75" d="M 544 1381 
L 544 3500 
L 1119 3500 
L 1119 1403 
Q 1119 906 1312 657 
Q 1506 409 1894 409 
Q 2359 409 2629 706 
Q 2900 1003 2900 1516 
L 2900 3500 
L 3475 3500 
L 3475 0 
L 2900 0 
L 2900 538 
Q 2691 219 2414 64 
Q 2138 -91 1772 -91 
Q 1169 -91 856 284 
Q 544 659 544 1381 
z
M 1991 3584 
L 1991 3584 
z
" transform="scale(0.015625)"/>
       <path id="DejaVuSans-6d" d="M 3328 2828 
Q 3544 3216 3844 3400 
Q 4144 3584 4550 3584 
Q 5097 3584 5394 3201 
Q 5691 2819 5691 2113 
L 5691 0 
L 5113 0 
L 5113 2094 
Q 5113 2597 4934 2840 
Q 4756 3084 4391 3084 
Q 3944 3084 3684 2787 
Q 3425 2491 3425 1978 
L 3425 0 
L 2847 0 
L 2847 2094 
Q 2847 2600 2669 2842 
Q 2491 3084 2119 3084 
Q 1678 3084 1418 2786 
Q 1159 2488 1159 1978 
L 1159 0 
L 581 0 
L 581 3500 
L 1159 3500 
L 1159 2956 
Q 1356 3278 1631 3431 
Q 1906 3584 2284 3584 
Q 2666 3584 2933 3390 
Q 3200 3197 3328 2828 
z
" transform="scale(0.015625)"/>
       <path id="DejaVuSans-62" d="M 3116 1747 
Q 3116 2381 2855 2742 
Q 2594 3103 2138 3103 
Q 1681 3103 1420 2742 
Q 1159 2381 1159 1747 
Q 1159 1113 1420 752 
Q 1681 391 2138 391 
Q 2594 391 2855 752 
Q 3116 1113 3116 1747 
z
M 1159 2969 
Q 1341 3281 1617 3432 
Q 1894 3584 2278 3584 
Q 2916 3584 3314 3078 
Q 3713 2572 3713 1747 
Q 3713 922 3314 415 
Q 2916 -91 2278 -91 
Q 1894 -91 1617 61 
Q 1341 213 1159 525 
L 1159 0 
L 581 0 
L 581 4863 
L 1159 4863 
L 1159 2969 
z
" transform="scale(0.015625)"/>
       <path id="DejaVuSans-65" d="M 3597 1894 
L 3597 1613 
L 953 1613 
Q 991 1019 1311 708 
Q 1631 397 2203 397 
Q 2534 397 2845 478 
Q 3156 559 3463 722 
L 3463 178 
Q 3153 47 2828 -22 
Q 2503 -91 2169 -91 
Q 1331 -91 842 396 
Q 353 884 353 1716 
Q 353 2575 817 3079 
Q 1281 3584 2069 3584 
Q 2775 3584 3186 3129 
Q 3597 2675 3597 1894 
z
M 3022 2063 
Q 3016 2534 2758 2815 
Q 2500 3097 2075 3097 
Q 1594 3097 1305 2825 
Q 1016 2553 972 2059 
L 3022 2063 
z
" transform="scale(0.015625)"/>
       <path id="DejaVuSans-72" d="M 2631 2963 
Q 2534 3019 2420 3045 
Q 2306 3072 2169 3072 
Q 1681 3072 1420 2755 
Q 1159 2438 1159 1844 
L 1159 0 
L 581 0 
L 581 3500 
L 1159 3500 
L 1159 2956 
Q 1341 3275 1631 3429 
Q 1922 3584 2338 3584 
Q 2397 3584 2469 3576 
Q 2541 3569 2628 3553 
L 2631 2963 
z
" transform="scale(0.015625)"/>
       <path id="DejaVuSans-20" transform="scale(0.015625)"/>
       <path id="DejaVuSans-6f" d="M 1959 3097 
Q 1497 3097 1228 2736 
Q 959 2375 959 1747 
Q 959 1119 1226 758 
Q 1494 397 1959 397 
Q 2419 397 2687 759 
Q 2956 1122 2956 1747 
Q 2956 2369 2687 2733 
Q 2419 3097 1959 3097 
z
M 1959 3584 
Q 2709 3584 3137 3096 
Q 3566 2609 3566 1747 
Q 3566 888 3137 398 
Q 2709 -91 1959 -91 
Q 1206 -91 779 398 
Q 353 888 353 1747 
Q 353 2609 779 3096 
Q 1206 3584 1959 3584 
z
" transform="scale(0.015625)"/>
       <path id="DejaVuSans-66" d="M 2375 4863 
L 2375 4384 
L 1825 4384 
Q 1516 4384 1395 4259 
Q 1275 4134 1275 3809 
L 1275 3500 
L 2222 3500 
L 2222 3053 
L 1275 3053 
L 1275 0 
L 697 0 
L 697 3053 
L 147 3053 
L 147 3500 
L 697 3500 
L 697 3744 
Q 697 4328 969 4595 
Q 1241 4863 1831 4863 
L 2375 4863 
z
" transform="scale(0.015625)"/>
       <path id="DejaVuSans-4f" d="M 2522 4238 
Q 1834 4238 1429 3725 
Q 1025 3213 1025 2328 
Q 1025 1447 1429 934 
Q 1834 422 2522 422 
Q 3209 422 3611 934 
Q 4013 1447 4013 2328 
Q 4013 3213 3611 3725 
Q 3209 4238 2522 4238 
z
M 2522 4750 
Q 3503 4750 4090 4092 
Q 4678 3434 4678 2328 
Q 4678 1225 4090 567 
Q 3503 -91 2522 -91 
Q 1538 -91 948 565 
Q 359 1222 359 2328 
Q 359 3434 948 4092 
Q 1538 4750 2522 4750 
z
" transform="scale(0.015625)"/>
       <path id="DejaVuSans-64" d="M 2906 2969 
L 2906 4863 
L 3481 4863 
L 3481 0 
L 2906 0 
L 2906 525 
Q 2725 213 2448 61 
Q 2172 -91 1784 -91 
Q 1150 -91 751 415 
Q 353 922 353 1747 
Q 353 2572 751 3078 
Q 1150 3584 1784 3584 
Q 2172 3584 2448 3432 
Q 2725 3281 2906 2969 
z
M 947 1747 
Q 947 1113 1208 752 
Q 1469 391 1925 391 
Q 2381 391 2643 752 
Q 2906 1113 2906 1747 
Q 2906 2381 2643 2742 
Q 2381 3103 1925 3103 
Q 1469 3103 1208 2742 
Q 947 2381 947 1747 
z
" transform="scale(0.015625)"/>
       <path id="DejaVuSans-73" d="M 2834 3397 
L 2834 2853 
Q 2591 2978 2328 3040 
Q 2066 3103 1784 3103 
Q 1356 3103 1142 2972 
Q 928 2841 928 2578 
Q 928 2378 1081 2264 
Q 1234 2150 1697 2047 
L 1894 2003 
Q 2506 1872 2764 1633 
Q 3022 1394 3022 966 
Q 3022 478 2636 193 
Q 2250 -91 1575 -91 
Q 1294 -91 989 -36 
Q 684 19 347 128 
L 347 722 
Q 666 556 975 473 
Q 1284 391 1588 391 
Q 1994 391 2212 530 
Q 2431 669 2431 922 
Q 2431 1156 2273 1281 
Q 2116 1406 1581 1522 
L 1381 1569 
Q 847 1681 609 1914 
Q 372 2147 372 2553 
Q 372 3047 722 3315 
Q 1072 3584 1716 3584 
Q 2034 3584 2315 3537 
Q 2597 3491 2834 3397 
z
" transform="scale(0.015625)"/>
      </defs>
      <use xlink:href="#DejaVuSans-4e"/>
      <use xlink:href="#DejaVuSans-75" x="74.804688"/>
      <use xlink:href="#DejaVuSans-6d" x="138.183594"/>
      <use xlink:href="#DejaVuSans-62" x="235.595703"/>
      <use xlink:href="#DejaVuSans-65" x="299.072266"/>
      <use xlink:href="#DejaVuSans-72" x="360.595703"/>
      <use xlink:href="#DejaVuSans-20" x="401.708984"/>
      <use xlink:href="#DejaVuSans-6f" x="433.496094"/>
      <use xlink:href="#DejaVuSans-66" x="494.677734"/>
      <use xlink:href="#DejaVuSans-20" x="529.882812"/>
      <use xlink:href="#DejaVuSans-4f" x="561.669922"/>
      <use xlink:href="#DejaVuSans-72" x="640.380859"/>
      <use xlink:href="#DejaVuSans-64" x="679.744141"/>
      <use xlink:href="#DejaVuSans-65" x="743.220703"/>
      <use xlink:href="#DejaVuSans-72" x="804.744141"/>
      <use xlink:href="#DejaVuSans-73" x="845.857422"/>
     </g>
    </g>
   </g>
   <g id="matplotlib.axis_2">
    <g id="ytick_1">
     <g id="line2d_10">
      <defs>
       <path id="m4e17102306" d="M 0 0 
L -3.5 0 
" style="stroke: #000000; stroke-width: 0.8"/>
      </defs>
      <g>
       <use xlink:href="#m4e17102306" x="57.6" y="307.584" style="stroke: #000000; stroke-width: 0.8"/>
      </g>
     </g>
     <g id="text_11">
      <!-- 0 -->
      <g transform="translate(44.2375 311.383219)scale(0.1 -0.1)">
       <use xlink:href="#DejaVuSans-30"/>
      </g>
     </g>
    </g>
    <g id="ytick_2">
     <g id="line2d_11">
      <g>
       <use xlink:href="#m4e17102306" x="57.6" y="254.3616" style="stroke: #000000; stroke-width: 0.8"/>
      </g>
     </g>
     <g id="text_12">
      <!-- 20 -->
      <g transform="translate(37.875 258.160819)scale(0.1 -0.1)">
       <use xlink:href="#DejaVuSans-32"/>
       <use xlink:href="#DejaVuSans-30" x="63.623047"/>
      </g>
     </g>
    </g>
    <g id="ytick_3">
     <g id="line2d_12">
      <g>
       <use xlink:href="#m4e17102306" x="57.6" y="201.1392" style="stroke: #000000; stroke-width: 0.8"/>
      </g>
     </g>
     <g id="text_13">
      <!-- 40 -->
      <g transform="translate(37.875 204.938419)scale(0.1 -0.1)">
       <defs>
        <path id="DejaVuSans-34" d="M 2419 4116 
L 825 1625 
L 2419 1625 
L 2419 4116 
z
M 2253 4666 
L 3047 4666 
L 3047 1625 
L 3713 1625 
L 3713 1100 
L 3047 1100 
L 3047 0 
L 2419 0 
L 2419 1100 
L 313 1100 
L 313 1709 
L 2253 4666 
z
" transform="scale(0.015625)"/>
       </defs>
       <use xlink:href="#DejaVuSans-34"/>
       <use xlink:href="#DejaVuSans-30" x="63.623047"/>
      </g>
     </g>
    </g>
    <g id="ytick_4">
     <g id="line2d_13">
      <g>
       <use xlink:href="#m4e17102306" x="57.6" y="147.9168" style="stroke: #000000; stroke-width: 0.8"/>
      </g>
     </g>
     <g id="text_14">
      <!-- 60 -->
      <g transform="translate(37.875 151.716019)scale(0.1 -0.1)">
       <defs>
        <path id="DejaVuSans-36" d="M 2113 2584 
Q 1688 2584 1439 2293 
Q 1191 2003 1191 1497 
Q 1191 994 1439 701 
Q 1688 409 2113 409 
Q 2538 409 2786 701 
Q 3034 994 3034 1497 
Q 3034 2003 2786 2293 
Q 2538 2584 2113 2584 
z
M 3366 4563 
L 3366 3988 
Q 3128 4100 2886 4159 
Q 2644 4219 2406 4219 
Q 1781 4219 1451 3797 
Q 1122 3375 1075 2522 
Q 1259 2794 1537 2939 
Q 1816 3084 2150 3084 
Q 2853 3084 3261 2657 
Q 3669 2231 3669 1497 
Q 3669 778 3244 343 
Q 2819 -91 2113 -91 
Q 1303 -91 875 529 
Q 447 1150 447 2328 
Q 447 3434 972 4092 
Q 1497 4750 2381 4750 
Q 2619 4750 2861 4703 
Q 3103 4656 3366 4563 
z
" transform="scale(0.015625)"/>
       </defs>
       <use xlink:href="#DejaVuSans-36"/>
       <use xlink:href="#DejaVuSans-30" x="63.623047"/>
      </g>
     </g>
    </g>
    <g id="ytick_5">
     <g id="line2d_14">
      <g>
       <use xlink:href="#m4e17102306" x="57.6" y="94.6944" style="stroke: #000000; stroke-width: 0.8"/>
      </g>
     </g>
     <g id="text_15">
      <!-- 80 -->
      <g transform="translate(37.875 98.493619)scale(0.1 -0.1)">
       <defs>
        <path id="DejaVuSans-38" d="M 2034 2216 
Q 1584 2216 1326 1975 
Q 1069 1734 1069 1313 
Q 1069 891 1326 650 
Q 1584 409 2034 409 
Q 2484 409 2743 651 
Q 3003 894 3003 1313 
Q 3003 1734 2745 1975 
Q 2488 2216 2034 2216 
z
M 1403 2484 
Q 997 2584 770 2862 
Q 544 3141 544 3541 
Q 544 4100 942 4425 
Q 1341 4750 2034 4750 
Q 2731 4750 3128 4425 
Q 3525 4100 3525 3541 
Q 3525 3141 3298 2862 
Q 3072 2584 2669 2484 
Q 3125 2378 3379 2068 
Q 3634 1759 3634 1313 
Q 3634 634 3220 271 
Q 2806 -91 2034 -91 
Q 1263 -91 848 271 
Q 434 634 434 1313 
Q 434 1759 690 2068 
Q 947 2378 1403 2484 
z
M 1172 3481 
Q 1172 3119 1398 2916 
Q 1625 2713 2034 2713 
Q 2441 2713 2670 2916 
Q 2900 3119 2900 3481 
Q 2900 3844 2670 4047 
Q 2441 4250 2034 4250 
Q 1625 4250 1398 4047 
Q 1172 3844 1172 3481 
z
" transform="scale(0.015625)"/>
       </defs>
       <use xlink:href="#DejaVuSans-38"/>
       <use xlink:href="#DejaVuSans-30" x="63.623047"/>
      </g>
     </g>
    </g>
    <g id="ytick_6">
     <g id="line2d_15">
      <g>
       <use xlink:href="#m4e17102306" x="57.6" y="41.472" style="stroke: #000000; stroke-width: 0.8"/>
      </g>
     </g>
     <g id="text_16">
      <!-- 100 -->
      <g transform="translate(31.5125 45.271219)scale(0.1 -0.1)">
       <use xlink:href="#DejaVuSans-31"/>
       <use xlink:href="#DejaVuSans-30" x="63.623047"/>
       <use xlink:href="#DejaVuSans-30" x="127.246094"/>
      </g>
     </g>
    </g>
    <g id="text_17">
     <!-- Waiting Time/s -->
     <g transform="translate(25.432812 211.410031)rotate(-90)scale(0.1 -0.1)">
      <defs>
       <path id="DejaVuSans-57" d="M 213 4666 
L 850 4666 
L 1831 722 
L 2809 4666 
L 3519 4666 
L 4500 722 
L 5478 4666 
L 6119 4666 
L 4947 0 
L 4153 0 
L 3169 4050 
L 2175 0 
L 1381 0 
L 213 4666 
z
" transform="scale(0.015625)"/>
       <path id="DejaVuSans-61" d="M 2194 1759 
Q 1497 1759 1228 1600 
Q 959 1441 959 1056 
Q 959 750 1161 570 
Q 1363 391 1709 391 
Q 2188 391 2477 730 
Q 2766 1069 2766 1631 
L 2766 1759 
L 2194 1759 
z
M 3341 1997 
L 3341 0 
L 2766 0 
L 2766 531 
Q 2569 213 2275 61 
Q 1981 -91 1556 -91 
Q 1019 -91 701 211 
Q 384 513 384 1019 
Q 384 1609 779 1909 
Q 1175 2209 1959 2209 
L 2766 2209 
L 2766 2266 
Q 2766 2663 2505 2880 
Q 2244 3097 1772 3097 
Q 1472 3097 1187 3025 
Q 903 2953 641 2809 
L 641 3341 
Q 956 3463 1253 3523 
Q 1550 3584 1831 3584 
Q 2591 3584 2966 3190 
Q 3341 2797 3341 1997 
z
" transform="scale(0.015625)"/>
       <path id="DejaVuSans-69" d="M 603 3500 
L 1178 3500 
L 1178 0 
L 603 0 
L 603 3500 
z
M 603 4863 
L 1178 4863 
L 1178 4134 
L 603 4134 
L 603 4863 
z
" transform="scale(0.015625)"/>
       <path id="DejaVuSans-74" d="M 1172 4494 
L 1172 3500 
L 2356 3500 
L 2356 3053 
L 1172 3053 
L 1172 1153 
Q 1172 725 1289 603 
Q 1406 481 1766 481 
L 2356 481 
L 2356 0 
L 1766 0 
Q 1100 0 847 248 
Q 594 497 594 1153 
L 594 3053 
L 172 3053 
L 172 3500 
L 594 3500 
L 594 4494 
L 1172 4494 
z
" transform="scale(0.015625)"/>
       <path id="DejaVuSans-6e" d="M 3513 2113 
L 3513 0 
L 2938 0 
L 2938 2094 
Q 2938 2591 2744 2837 
Q 2550 3084 2163 3084 
Q 1697 3084 1428 2787 
Q 1159 2491 1159 1978 
L 1159 0 
L 581 0 
L 581 3500 
L 1159 3500 
L 1159 2956 
Q 1366 3272 1645 3428 
Q 1925 3584 2291 3584 
Q 2894 3584 3203 3211 
Q 3513 2838 3513 2113 
z
" transform="scale(0.015625)"/>
       <path id="DejaVuSans-67" d="M 2906 1791 
Q 2906 2416 2648 2759 
Q 2391 3103 1925 3103 
Q 1463 3103 1205 2759 
Q 947 2416 947 1791 
Q 947 1169 1205 825 
Q 1463 481 1925 481 
Q 2391 481 2648 825 
Q 2906 1169 2906 1791 
z
M 3481 434 
Q 3481 -459 3084 -895 
Q 2688 -1331 1869 -1331 
Q 1566 -1331 1297 -1286 
Q 1028 -1241 775 -1147 
L 775 -588 
Q 1028 -725 1275 -790 
Q 1522 -856 1778 -856 
Q 2344 -856 2625 -561 
Q 2906 -266 2906 331 
L 2906 616 
Q 2728 306 2450 153 
Q 2172 0 1784 0 
Q 1141 0 747 490 
Q 353 981 353 1791 
Q 353 2603 747 3093 
Q 1141 3584 1784 3584 
Q 2172 3584 2450 3431 
Q 2728 3278 2906 2969 
L 2906 3500 
L 3481 3500 
L 3481 434 
z
" transform="scale(0.015625)"/>
       <path id="DejaVuSans-54" d="M -19 4666 
L 3928 4666 
L 3928 4134 
L 2272 4134 
L 2272 0 
L 1638 0 
L 1638 4134 
L -19 4134 
L -19 4666 
z
" transform="scale(0.015625)"/>
       <path id="DejaVuSans-2f" d="M 1625 4666 
L 2156 4666 
L 531 -594 
L 0 -594 
L 1625 4666 
z
" transform="scale(0.015625)"/>
      </defs>
      <use xlink:href="#DejaVuSans-57"/>
      <use xlink:href="#DejaVuSans-61" x="92.501953"/>
      <use xlink:href="#DejaVuSans-69" x="153.78125"/>
      <use xlink:href="#DejaVuSans-74" x="181.564453"/>
      <use xlink:href="#DejaVuSans-69" x="220.773438"/>
      <use xlink:href="#DejaVuSans-6e" x="248.556641"/>
      <use xlink:href="#DejaVuSans-67" x="311.935547"/>
      <use xlink:href="#DejaVuSans-20" x="375.412109"/>
      <use xlink:href="#DejaVuSans-54" x="407.199219"/>
      <use xlink:href="#DejaVuSans-69" x="465.158203"/>
      <use xlink:href="#DejaVuSans-6d" x="492.941406"/>
      <use xlink:href="#DejaVuSans-65" x="590.353516"/>
      <use xlink:href="#DejaVuSans-2f" x="651.876953"/>
      <use xlink:href="#DejaVuSans-73" x="685.568359"/>
     </g>
    </g>
   </g>
   <g id="line2d_16">
    <path d="M 73.832727 291.147362 
L 74.157544 287.503795 
L 74.319953 288.85061 
L 74.482361 288.039341 
L 74.807178 283.337035 
L 75.131995 280.952088 
L 75.294404 280.632603 
L 75.456812 280.725067 
L 75.781629 282.853573 
L 75.944037 282.67544 
L 76.268854 280.880025 
L 76.593671 281.180943 
L 77.080897 279.759525 
L 77.243305 280.747245 
L 77.568122 280.121742 
L 77.730531 280.628865 
L 77.892939 280.76892 
L 78.055348 280.103582 
L 78.217756 280.241077 
L 78.380165 279.564046 
L 78.704982 280.033462 
L 79.029799 279.177552 
L 79.354615 278.866858 
L 79.517024 279.300811 
L 79.679432 279.220437 
L 80.004249 278.551291 
L 80.166658 278.423986 
L 80.329066 277.956784 
L 80.491475 277.860599 
L 80.653883 278.040786 
L 80.816292 277.939083 
L 80.9787 278.272849 
L 81.465926 277.83177 
L 81.953151 277.288725 
L 82.11556 277.371347 
L 82.440377 277.292963 
L 82.602785 277.50402 
L 82.927602 277.320847 
L 83.09001 277.252071 
L 83.252419 277.497765 
L 83.577236 276.951752 
L 83.739644 277.000166 
L 83.902053 276.894682 
L 84.064461 276.58197 
L 84.389278 276.412764 
L 84.714095 276.692264 
L 84.876504 276.592571 
L 85.038912 276.685953 
L 85.363729 277.037643 
L 85.526138 276.976836 
L 85.688546 277.08733 
L 86.500588 276.716031 
L 86.662997 276.532714 
L 87.150222 276.698597 
L 87.637448 277.147544 
L 87.799856 277.180108 
L 87.962265 276.973718 
L 88.287082 276.871487 
L 88.44949 277.057722 
L 89.099124 277.156455 
L 89.423941 277.502914 
L 89.58635 277.380234 
L 89.748758 277.528475 
L 89.911166 277.255938 
L 90.5608 277.233477 
L 90.885617 277.474347 
L 91.210434 277.343216 
L 91.69766 277.184655 
L 91.860068 277.071949 
L 92.509702 277.243769 
L 93.159336 276.864367 
L 93.484153 277.139792 
L 93.971378 277.15249 
L 94.133787 277.027367 
L 94.458604 277.076592 
L 94.945829 277.18712 
L 95.270646 277.116643 
L 95.757872 277.385733 
L 96.082689 277.243046 
L 96.245097 277.196542 
L 96.569914 277.365932 
L 97.219548 277.421469 
L 97.381956 277.485724 
L 97.706773 277.433649 
L 98.356407 277.490045 
L 99.16845 277.706931 
L 99.818084 277.550675 
L 101.117351 277.699254 
L 101.27976 277.494846 
L 101.604577 277.606585 
L 102.579028 277.489828 
L 103.066253 277.528185 
L 103.553479 277.774602 
L 103.715887 277.721301 
L 104.527929 277.973869 
L 105.989606 277.998956 
L 107.126465 278.178828 
L 107.451282 278.225662 
L 108.263324 278.276823 
L 108.912958 278.106918 
L 109.400184 278.126081 
L 110.212226 278.205939 
L 110.699452 278.247557 
L 111.186677 278.31983 
L 111.349085 278.408424 
L 111.836311 278.23223 
L 112.161128 278.227145 
L 113.297987 278.268306 
L 113.785213 278.106171 
L 114.11003 278.0059 
L 114.434847 277.972358 
L 115.08448 278.04226 
L 115.896523 277.934935 
L 116.22134 277.810003 
L 116.546157 277.805412 
L 117.358199 277.646469 
L 117.845425 277.61925 
L 118.170241 277.476487 
L 118.982284 277.3345 
L 119.307101 277.355825 
L 119.794326 277.150571 
L 120.281552 277.093655 
L 121.256003 276.866854 
L 121.905636 276.883949 
L 122.55527 276.884074 
L 123.204904 276.980395 
L 123.529721 276.850039 
L 123.854538 276.763264 
L 124.179355 276.700233 
L 124.504172 276.743932 
L 125.153806 276.619304 
L 126.290665 276.638708 
L 126.615482 276.472426 
L 126.940299 276.501469 
L 127.265116 276.539697 
L 127.589933 276.525956 
L 127.91475 276.471072 
L 128.239567 276.519843 
L 128.726792 276.366862 
L 129.701243 276.354799 
L 130.513286 276.239454 
L 130.838103 276.257035 
L 132.462187 275.627001 
L 135.38554 275.456996 
L 135.872765 275.49854 
L 136.522399 275.451664 
L 137.659259 275.454456 
L 139.445752 275.560892 
L 139.770569 275.561971 
L 141.557062 275.504542 
L 142.044288 275.56377 
L 145.942091 275.846565 
L 147.403767 275.923649 
L 148.21581 275.881214 
L 149.190261 275.941181 
L 150.651937 275.870015 
L 151.139162 275.824356 
L 155.361783 275.840284 
L 156.011417 275.801155 
L 173.713941 276.121258 
L 174.525983 276.180777 
L 175.013208 276.122823 
L 176.474885 276.23685 
L 176.96211 276.251264 
L 177.936561 276.255048 
L 178.748603 276.297955 
L 179.560646 276.29305 
L 180.21028 276.328393 
L 181.347139 276.21616 
L 183.783266 276.118406 
L 185.569759 276.085039 
L 186.219393 276.097387 
L 187.193844 276.012188 
L 188.168295 275.963135 
L 189.629971 275.890783 
L 197.912804 275.826104 
L 198.724846 275.807664 
L 200.511339 275.848844 
L 201.160973 275.808826 
L 203.921917 275.794951 
L 206.682861 275.76303 
L 207.657312 275.747531 
L 214.153651 275.563126 
L 215.290511 275.569582 
L 215.940145 275.598403 
L 217.401821 275.606753 
L 219.025906 275.511741 
L 225.522245 275.584016 
L 228.12078 275.649493 
L 228.608006 275.628305 
L 229.907274 275.71054 
L 233.155443 275.705106 
L 241.113459 275.627779 
L 242.087909 275.612525 
L 243.549586 275.558319 
L 244.848854 275.546087 
L 282.52762 275.266993 
L 284.151705 275.272667 
L 286.750241 275.287026 
L 289.673593 275.271692 
L 316.6334 275.264726 
L 317.283034 275.260031 
L 324.266599 275.122763 
L 325.403458 275.083395 
L 329.950895 274.989391 
L 332.387023 274.928336 
L 334.498333 274.845905 
L 335.635192 274.802445 
L 337.908911 274.782522 
L 338.720953 274.734165 
L 339.857813 274.701784 
L 345.054884 274.7006 
L 353.824942 274.729673 
L 358.20997 274.739729 
L 366.81762 274.739759 
L 369.253747 274.730875 
L 372.989142 274.779424 
L 377.536579 274.797264 
L 382.896059 274.918548 
L 386.956271 274.950079 
L 388.905173 274.937987 
L 398.487273 274.806833 
L 398.487273 274.806833 
" clip-path="url(#p3a9b1ecd7c)" style="fill: none; stroke-dasharray: 2,3.3; stroke-dashoffset: 0; stroke: #0000ff; stroke-width: 2"/>
   </g>
   <g id="line2d_17">
    <path d="M 73.832727 291.147362 
L 74.157544 287.503795 
L 74.319953 288.85061 
L 74.482361 288.039341 
L 74.807178 283.337035 
L 74.969587 282.067387 
L 75.131995 282.497531 
L 75.456812 281.114974 
L 75.619221 281.248491 
L 75.781629 282.141733 
L 75.944037 282.31552 
L 76.268854 280.565095 
L 76.431263 281.473367 
L 76.593671 281.053593 
L 76.918488 281.309933 
L 77.405714 279.747956 
L 77.568122 279.945251 
L 77.730531 279.593872 
L 77.892939 280.101792 
L 78.055348 279.461162 
L 78.217756 280.132129 
L 78.380165 280.179286 
L 79.029799 279.106823 
L 79.192207 278.981269 
L 79.517024 278.071791 
L 79.679432 278.050937 
L 80.004249 278.616353 
L 80.166658 278.362366 
L 80.329066 278.598321 
L 80.653883 278.120805 
L 80.9787 277.993038 
L 81.141109 278.333244 
L 81.628334 277.492544 
L 81.953151 277.60973 
L 82.277968 277.04382 
L 82.440377 276.953994 
L 82.602785 276.65601 
L 82.765194 276.832192 
L 82.927602 276.516562 
L 83.252419 276.76334 
L 83.414827 276.981942 
L 83.739644 276.790654 
L 83.902053 276.822888 
L 84.064461 276.659332 
L 84.22687 276.9176 
L 84.389278 276.752763 
L 85.038912 277.053053 
L 85.201321 276.968326 
L 85.363729 277.027644 
L 85.526138 276.965386 
L 85.850955 277.205549 
L 86.013363 276.732052 
L 86.33818 276.758339 
L 86.500588 276.524666 
L 86.825405 276.92887 
L 87.150222 276.598692 
L 87.475039 275.840926 
L 87.962265 275.909574 
L 88.287082 276.087 
L 88.611899 275.172458 
L 88.774307 275.292015 
L 88.936716 275.120606 
L 89.099124 275.250249 
L 89.261533 275.122618 
L 89.423941 275.265091 
L 89.748758 275.262278 
L 90.073575 275.43562 
L 90.235983 275.614416 
L 90.5608 275.559707 
L 90.723209 275.667273 
L 91.372843 275.201417 
L 92.022477 274.995123 
L 92.672111 274.222865 
L 93.159336 274.199672 
L 93.80897 274.499519 
L 94.296195 274.582037 
L 94.458604 274.528469 
L 94.783421 274.582875 
L 95.108238 274.566449 
L 95.270646 274.730863 
L 95.433055 274.62036 
L 95.595463 274.724092 
L 95.757872 274.489075 
L 95.92028 274.490987 
L 96.082689 274.651449 
L 96.245097 274.490776 
L 96.569914 274.544892 
L 97.544365 274.542299 
L 98.193999 274.86351 
L 98.356407 274.82589 
L 98.681224 274.977828 
L 98.843633 275.046829 
L 99.006041 274.940899 
L 99.493267 275.247217 
L 99.655675 275.336891 
L 100.142901 275.276613 
L 100.305309 275.401579 
L 100.630126 275.002642 
L 101.27976 275.100459 
L 101.604577 274.971406 
L 101.929394 274.886801 
L 102.091802 274.771525 
L 102.254211 274.805045 
L 102.416619 274.673267 
L 102.579028 274.729413 
L 102.741436 274.648753 
L 103.228662 274.797621 
L 103.878296 274.829637 
L 104.365521 274.924655 
L 104.852746 275.110722 
L 105.339972 275.029422 
L 105.664789 275.017003 
L 106.314423 275.176718 
L 106.476831 275.00471 
L 108.263324 275.022249 
L 108.75055 275.097783 
L 109.562592 274.750488 
L 110.86186 274.776362 
L 111.024268 274.699712 
L 111.349085 274.785639 
L 112.161128 274.851098 
L 112.485945 274.89478 
L 113.135579 274.833307 
L 113.297987 274.762746 
L 113.622804 274.797003 
L 114.11003 274.659213 
L 114.759663 274.52138 
L 115.246889 274.299062 
L 115.734114 274.379624 
L 116.22134 274.234443 
L 116.546157 274.099848 
L 116.870974 274.077895 
L 117.358199 273.979468 
L 118.007833 273.68072 
L 118.33265 273.606733 
L 118.495058 273.484766 
L 118.819875 273.46938 
L 119.307101 273.509904 
L 119.794326 273.371515 
L 120.281552 273.328628 
L 120.606369 273.230297 
L 120.931186 273.140149 
L 121.256003 273.167571 
L 121.58082 273.169221 
L 122.392862 273.200511 
L 122.717679 273.097175 
L 123.204904 273.056405 
L 123.529721 272.763585 
L 123.854538 272.753535 
L 124.341764 272.62374 
L 124.991398 272.439407 
L 125.641031 272.434677 
L 125.965848 272.35029 
L 126.290665 272.298238 
L 129.214018 272.050639 
L 129.701243 271.810052 
L 130.350877 271.791444 
L 130.838103 271.700051 
L 131.16292 271.662925 
L 131.487737 271.567075 
L 131.974962 271.49693 
L 132.462187 271.536948 
L 132.949413 271.454466 
L 133.599047 271.510176 
L 134.898315 271.462862 
L 135.38554 271.487025 
L 135.547949 271.38082 
L 135.872765 271.405049 
L 136.197582 271.374616 
L 140.095386 271.336972 
L 140.420203 271.456552 
L 141.069837 271.448312 
L 141.881879 271.54301 
L 142.531513 271.664767 
L 142.85633 271.686191 
L 145.130049 271.442956 
L 150.32712 271.261088 
L 151.626388 271.17167 
L 153.900106 270.953923 
L 154.387332 270.944823 
L 154.874557 271.005302 
L 155.524191 270.990595 
L 156.011417 270.991034 
L 157.79791 270.806605 
L 158.609952 270.862686 
L 159.421995 270.838242 
L 159.90922 270.901824 
L 160.721262 270.810143 
L 163.482207 270.773634 
L 163.969432 270.715357 
L 164.294249 270.660345 
L 165.593517 270.630567 
L 165.918334 270.597228 
L 166.892785 270.66089 
L 169.166503 270.626941 
L 169.816137 270.638755 
L 171.60263 270.601291 
L 181.834364 270.632567 
L 182.971224 270.610286 
L 183.945675 270.565447 
L 184.4329 270.538778 
L 184.757717 270.592899 
L 185.244942 270.53442 
L 186.381802 270.567389 
L 190.117197 270.3736 
L 190.604422 270.388706 
L 197.100761 270.296916 
L 198.400029 270.369036 
L 199.536888 270.375548 
L 200.186522 270.309363 
L 201.48579 270.309671 
L 201.973016 270.291562 
L 204.896368 270.364532 
L 205.546002 270.356836 
L 212.20475 270.214715 
L 213.666426 270.292361 
L 214.31606 270.227149 
L 216.264962 270.261385 
L 216.914595 270.251163 
L 220.000357 270.258497 
L 220.64999 270.252421 
L 223.89816 270.225938 
L 225.035019 270.26508 
L 226.496696 270.274541 
L 229.25764 270.318309 
L 229.744865 270.292596 
L 231.531358 270.343307 
L 232.343401 270.292125 
L 233.155443 270.319203 
L 237.378064 270.110919 
L 239.489374 270.110912 
L 243.224769 270.095105 
L 244.686445 270.07418 
L 270.022167 269.82264 
L 271.483844 269.822458 
L 272.94552 269.776704 
L 275.05683 269.767188 
L 275.706464 269.742378 
L 277.817774 269.766045 
L 279.766676 269.841988 
L 280.741127 269.808715 
L 283.014846 269.836264 
L 286.425424 269.896392 
L 288.861551 269.905191 
L 290.160819 269.836281 
L 292.10972 269.864002 
L 293.571397 269.873447 
L 295.682707 269.924411 
L 296.819566 269.89656 
L 298.118834 269.873019 
L 299.255693 269.892783 
L 305.589624 269.898615 
L 307.376117 269.898508 
L 308.512976 269.90299 
L 311.598738 269.820894 
L 312.898005 269.794795 
L 324.591416 269.485049 
L 327.189951 269.444051 
L 328.001994 269.398107 
L 329.46367 269.410942 
L 361.620548 269.055401 
L 362.919816 268.999095 
L 365.031126 268.981805 
L 368.116888 269.007784 
L 370.390606 269.006405 
L 372.826733 269.015481 
L 376.074903 269.023694 
L 377.211762 269.019035 
L 387.281088 269.068894 
L 388.580356 269.082828 
L 398.162456 268.974992 
L 398.487273 268.944331 
L 398.487273 268.944331 
" clip-path="url(#p3a9b1ecd7c)" style="fill: none; stroke-dasharray: 2,3.3; stroke-dashoffset: 0; stroke: #ffa500; stroke-width: 2"/>
   </g>
   <g id="patch_3">
    <path d="M 57.6 307.584 
L 57.6 41.472 
" style="fill: none; stroke: #000000; stroke-width: 0.8; stroke-linejoin: miter; stroke-linecap: square"/>
   </g>
   <g id="patch_4">
    <path d="M 414.72 307.584 
L 414.72 41.472 
" style="fill: none; stroke: #000000; stroke-width: 0.8; stroke-linejoin: miter; stroke-linecap: square"/>
   </g>
   <g id="patch_5">
    <path d="M 57.6 307.584 
L 414.72 307.584 
" style="fill: none; stroke: #000000; stroke-width: 0.8; stroke-linejoin: miter; stroke-linecap: square"/>
   </g>
   <g id="patch_6">
    <path d="M 57.6 41.472 
L 414.72 41.472 
" style="fill: none; stroke: #000000; stroke-width: 0.8; stroke-linejoin: miter; stroke-linecap: square"/>
   </g>
   <g id="text_18">
    <!-- Waiting Time Plot -->
    <g transform="translate(183.833438 8.2635)scale(0.12 -0.12)">
     <defs>
      <path id="DejaVuSans-50" d="M 1259 4147 
L 1259 2394 
L 2053 2394 
Q 2494 2394 2734 2622 
Q 2975 2850 2975 3272 
Q 2975 3691 2734 3919 
Q 2494 4147 2053 4147 
L 1259 4147 
z
M 628 4666 
L 2053 4666 
Q 2838 4666 3239 4311 
Q 3641 3956 3641 3272 
Q 3641 2581 3239 2228 
Q 2838 1875 2053 1875 
L 1259 1875 
L 1259 0 
L 628 0 
L 628 4666 
z
" transform="scale(0.015625)"/>
      <path id="DejaVuSans-6c" d="M 603 4863 
L 1178 4863 
L 1178 0 
L 603 0 
L 603 4863 
z
" transform="scale(0.015625)"/>
     </defs>
     <use xlink:href="#DejaVuSans-57"/>
     <use xlink:href="#DejaVuSans-61" x="92.501953"/>
     <use xlink:href="#DejaVuSans-69" x="153.78125"/>
     <use xlink:href="#DejaVuSans-74" x="181.564453"/>
     <use xlink:href="#DejaVuSans-69" x="220.773438"/>
     <use xlink:href="#DejaVuSans-6e" x="248.556641"/>
     <use xlink:href="#DejaVuSans-67" x="311.935547"/>
     <use xlink:href="#DejaVuSans-20" x="375.412109"/>
     <use xlink:href="#DejaVuSans-54" x="407.199219"/>
     <use xlink:href="#DejaVuSans-69" x="465.158203"/>
     <use xlink:href="#DejaVuSans-6d" x="492.941406"/>
     <use xlink:href="#DejaVuSans-65" x="590.353516"/>
     <use xlink:href="#DejaVuSans-20" x="651.876953"/>
     <use xlink:href="#DejaVuSans-50" x="683.664062"/>
     <use xlink:href="#DejaVuSans-6c" x="743.966797"/>
     <use xlink:href="#DejaVuSans-6f" x="771.75"/>
     <use xlink:href="#DejaVuSans-74" x="832.931641"/>
    </g>
    <!--  avg_d = 12.317057137306389  -->
    <g transform="translate(138.854062 21.700875)scale(0.12 -0.12)">
     <defs>
      <path id="DejaVuSans-76" d="M 191 3500 
L 800 3500 
L 1894 563 
L 2988 3500 
L 3597 3500 
L 2284 0 
L 1503 0 
L 191 3500 
z
" transform="scale(0.015625)"/>
      <path id="DejaVuSans-5f" d="M 3263 -1063 
L 3263 -1509 
L -63 -1509 
L -63 -1063 
L 3263 -1063 
z
" transform="scale(0.015625)"/>
      <path id="DejaVuSans-3d" d="M 678 2906 
L 4684 2906 
L 4684 2381 
L 678 2381 
L 678 2906 
z
M 678 1631 
L 4684 1631 
L 4684 1100 
L 678 1100 
L 678 1631 
z
" transform="scale(0.015625)"/>
      <path id="DejaVuSans-2e" d="M 684 794 
L 1344 794 
L 1344 0 
L 684 0 
L 684 794 
z
" transform="scale(0.015625)"/>
      <path id="DejaVuSans-33" d="M 2597 2516 
Q 3050 2419 3304 2112 
Q 3559 1806 3559 1356 
Q 3559 666 3084 287 
Q 2609 -91 1734 -91 
Q 1441 -91 1130 -33 
Q 819 25 488 141 
L 488 750 
Q 750 597 1062 519 
Q 1375 441 1716 441 
Q 2309 441 2620 675 
Q 2931 909 2931 1356 
Q 2931 1769 2642 2001 
Q 2353 2234 1838 2234 
L 1294 2234 
L 1294 2753 
L 1863 2753 
Q 2328 2753 2575 2939 
Q 2822 3125 2822 3475 
Q 2822 3834 2567 4026 
Q 2313 4219 1838 4219 
Q 1578 4219 1281 4162 
Q 984 4106 628 3988 
L 628 4550 
Q 988 4650 1302 4700 
Q 1616 4750 1894 4750 
Q 2613 4750 3031 4423 
Q 3450 4097 3450 3541 
Q 3450 3153 3228 2886 
Q 3006 2619 2597 2516 
z
" transform="scale(0.015625)"/>
      <path id="DejaVuSans-39" d="M 703 97 
L 703 672 
Q 941 559 1184 500 
Q 1428 441 1663 441 
Q 2288 441 2617 861 
Q 2947 1281 2994 2138 
Q 2813 1869 2534 1725 
Q 2256 1581 1919 1581 
Q 1219 1581 811 2004 
Q 403 2428 403 3163 
Q 403 3881 828 4315 
Q 1253 4750 1959 4750 
Q 2769 4750 3195 4129 
Q 3622 3509 3622 2328 
Q 3622 1225 3098 567 
Q 2575 -91 1691 -91 
Q 1453 -91 1209 -44 
Q 966 3 703 97 
z
M 1959 2075 
Q 2384 2075 2632 2365 
Q 2881 2656 2881 3163 
Q 2881 3666 2632 3958 
Q 2384 4250 1959 4250 
Q 1534 4250 1286 3958 
Q 1038 3666 1038 3163 
Q 1038 2656 1286 2365 
Q 1534 2075 1959 2075 
z
" transform="scale(0.015625)"/>
     </defs>
     <use xlink:href="#DejaVuSans-20"/>
     <use xlink:href="#DejaVuSans-61" x="31.787109"/>
     <use xlink:href="#DejaVuSans-76" x="93.066406"/>
     <use xlink:href="#DejaVuSans-67" x="152.246094"/>
     <use xlink:href="#DejaVuSans-5f" x="215.722656"/>
     <use xlink:href="#DejaVuSans-64" x="265.722656"/>
     <use xlink:href="#DejaVuSans-20" x="329.199219"/>
     <use xlink:href="#DejaVuSans-3d" x="360.986328"/>
     <use xlink:href="#DejaVuSans-20" x="444.775391"/>
     <use xlink:href="#DejaVuSans-31" x="476.5625"/>
     <use xlink:href="#DejaVuSans-32" x="540.185547"/>
     <use xlink:href="#DejaVuSans-2e" x="603.808594"/>
     <use xlink:href="#DejaVuSans-33" x="635.595703"/>
     <use xlink:href="#DejaVuSans-31" x="699.21875"/>
     <use xlink:href="#DejaVuSans-37" x="762.841797"/>
     <use xlink:href="#DejaVuSans-30" x="826.464844"/>
     <use xlink:href="#DejaVuSans-35" x="890.087891"/>
     <use xlink:href="#DejaVuSans-37" x="953.710938"/>
     <use xlink:href="#DejaVuSans-31" x="1017.333984"/>
     <use xlink:href="#DejaVuSans-33" x="1080.957031"/>
     <use xlink:href="#DejaVuSans-37" x="1144.580078"/>
     <use xlink:href="#DejaVuSans-33" x="1208.203125"/>
     <use xlink:href="#DejaVuSans-30" x="1271.826172"/>
     <use xlink:href="#DejaVuSans-36" x="1335.449219"/>
     <use xlink:href="#DejaVuSans-33" x="1399.072266"/>
     <use xlink:href="#DejaVuSans-38" x="1462.695312"/>
     <use xlink:href="#DejaVuSans-39" x="1526.318359"/>
     <use xlink:href="#DejaVuSans-20" x="1589.941406"/>
    </g>
    <!--  avg_a = 14.520077499410176diff = -2.2030203621037874 -->
    <g transform="translate(53.382188 35.472)scale(0.12 -0.12)">
     <defs>
      <path id="DejaVuSans-2d" d="M 313 2009 
L 1997 2009 
L 1997 1497 
L 313 1497 
L 313 2009 
z
" transform="scale(0.015625)"/>
     </defs>
     <use xlink:href="#DejaVuSans-20"/>
     <use xlink:href="#DejaVuSans-61" x="31.787109"/>
     <use xlink:href="#DejaVuSans-76" x="93.066406"/>
     <use xlink:href="#DejaVuSans-67" x="152.246094"/>
     <use xlink:href="#DejaVuSans-5f" x="215.722656"/>
     <use xlink:href="#DejaVuSans-61" x="265.722656"/>
     <use xlink:href="#DejaVuSans-20" x="327.001953"/>
     <use xlink:href="#DejaVuSans-3d" x="358.789062"/>
     <use xlink:href="#DejaVuSans-20" x="442.578125"/>
     <use xlink:href="#DejaVuSans-31" x="474.365234"/>
     <use xlink:href="#DejaVuSans-34" x="537.988281"/>
     <use xlink:href="#DejaVuSans-2e" x="601.611328"/>
     <use xlink:href="#DejaVuSans-35" x="633.398438"/>
     <use xlink:href="#DejaVuSans-32" x="697.021484"/>
     <use xlink:href="#DejaVuSans-30" x="760.644531"/>
     <use xlink:href="#DejaVuSans-30" x="824.267578"/>
     <use xlink:href="#DejaVuSans-37" x="887.890625"/>
     <use xlink:href="#DejaVuSans-37" x="951.513672"/>
     <use xlink:href="#DejaVuSans-34" x="1015.136719"/>
     <use xlink:href="#DejaVuSans-39" x="1078.759766"/>
     <use xlink:href="#DejaVuSans-39" x="1142.382812"/>
     <use xlink:href="#DejaVuSans-34" x="1206.005859"/>
     <use xlink:href="#DejaVuSans-31" x="1269.628906"/>
     <use xlink:href="#DejaVuSans-30" x="1333.251953"/>
     <use xlink:href="#DejaVuSans-31" x="1396.875"/>
     <use xlink:href="#DejaVuSans-37" x="1460.498047"/>
     <use xlink:href="#DejaVuSans-36" x="1524.121094"/>
     <use xlink:href="#DejaVuSans-64" x="1587.744141"/>
     <use xlink:href="#DejaVuSans-69" x="1651.220703"/>
     <use xlink:href="#DejaVuSans-66" x="1679.003906"/>
     <use xlink:href="#DejaVuSans-66" x="1714.208984"/>
     <use xlink:href="#DejaVuSans-20" x="1749.414062"/>
     <use xlink:href="#DejaVuSans-3d" x="1781.201172"/>
     <use xlink:href="#DejaVuSans-20" x="1864.990234"/>
     <use xlink:href="#DejaVuSans-2d" x="1896.777344"/>
     <use xlink:href="#DejaVuSans-32" x="1932.861328"/>
     <use xlink:href="#DejaVuSans-2e" x="1996.484375"/>
     <use xlink:href="#DejaVuSans-32" x="2028.271484"/>
     <use xlink:href="#DejaVuSans-30" x="2091.894531"/>
     <use xlink:href="#DejaVuSans-33" x="2155.517578"/>
     <use xlink:href="#DejaVuSans-30" x="2219.140625"/>
     <use xlink:href="#DejaVuSans-32" x="2282.763672"/>
     <use xlink:href="#DejaVuSans-30" x="2346.386719"/>
     <use xlink:href="#DejaVuSans-33" x="2410.009766"/>
     <use xlink:href="#DejaVuSans-36" x="2473.632812"/>
     <use xlink:href="#DejaVuSans-32" x="2537.255859"/>
     <use xlink:href="#DejaVuSans-31" x="2600.878906"/>
     <use xlink:href="#DejaVuSans-30" x="2664.501953"/>
     <use xlink:href="#DejaVuSans-33" x="2728.125"/>
     <use xlink:href="#DejaVuSans-37" x="2791.748047"/>
     <use xlink:href="#DejaVuSans-38" x="2855.371094"/>
     <use xlink:href="#DejaVuSans-37" x="2918.994141"/>
     <use xlink:href="#DejaVuSans-34" x="2982.617188"/>
    </g>
   </g>
   <g id="legend_1">
    <g id="patch_7">
     <path d="M 263.88875 78.82825 
L 407.72 78.82825 
Q 409.72 78.82825 409.72 76.82825 
L 409.72 48.472 
Q 409.72 46.472 407.72 46.472 
L 263.88875 46.472 
Q 261.88875 46.472 261.88875 48.472 
L 261.88875 76.82825 
Q 261.88875 78.82825 263.88875 78.82825 
z
" style="fill: #ffffff; opacity: 0.8; stroke: #cccccc; stroke-linejoin: miter"/>
    </g>
    <g id="line2d_18">
     <path d="M 265.88875 54.570437 
L 275.88875 54.570437 
L 285.88875 54.570437 
" style="fill: none; stroke-dasharray: 2,3.3; stroke-dashoffset: 0; stroke: #0000ff; stroke-width: 2"/>
    </g>
    <g id="text_19">
     <!-- Average (Default) -->
     <g transform="translate(293.88875 58.070437)scale(0.1 -0.1)">
      <defs>
       <path id="DejaVuSans-41" d="M 2188 4044 
L 1331 1722 
L 3047 1722 
L 2188 4044 
z
M 1831 4666 
L 2547 4666 
L 4325 0 
L 3669 0 
L 3244 1197 
L 1141 1197 
L 716 0 
L 50 0 
L 1831 4666 
z
" transform="scale(0.015625)"/>
       <path id="DejaVuSans-28" d="M 1984 4856 
Q 1566 4138 1362 3434 
Q 1159 2731 1159 2009 
Q 1159 1288 1364 580 
Q 1569 -128 1984 -844 
L 1484 -844 
Q 1016 -109 783 600 
Q 550 1309 550 2009 
Q 550 2706 781 3412 
Q 1013 4119 1484 4856 
L 1984 4856 
z
" transform="scale(0.015625)"/>
       <path id="DejaVuSans-44" d="M 1259 4147 
L 1259 519 
L 2022 519 
Q 2988 519 3436 956 
Q 3884 1394 3884 2338 
Q 3884 3275 3436 3711 
Q 2988 4147 2022 4147 
L 1259 4147 
z
M 628 4666 
L 1925 4666 
Q 3281 4666 3915 4102 
Q 4550 3538 4550 2338 
Q 4550 1131 3912 565 
Q 3275 0 1925 0 
L 628 0 
L 628 4666 
z
" transform="scale(0.015625)"/>
       <path id="DejaVuSans-29" d="M 513 4856 
L 1013 4856 
Q 1481 4119 1714 3412 
Q 1947 2706 1947 2009 
Q 1947 1309 1714 600 
Q 1481 -109 1013 -844 
L 513 -844 
Q 928 -128 1133 580 
Q 1338 1288 1338 2009 
Q 1338 2731 1133 3434 
Q 928 4138 513 4856 
z
" transform="scale(0.015625)"/>
      </defs>
      <use xlink:href="#DejaVuSans-41"/>
      <use xlink:href="#DejaVuSans-76" x="62.533203"/>
      <use xlink:href="#DejaVuSans-65" x="121.712891"/>
      <use xlink:href="#DejaVuSans-72" x="183.236328"/>
      <use xlink:href="#DejaVuSans-61" x="224.349609"/>
      <use xlink:href="#DejaVuSans-67" x="285.628906"/>
      <use xlink:href="#DejaVuSans-65" x="349.105469"/>
      <use xlink:href="#DejaVuSans-20" x="410.628906"/>
      <use xlink:href="#DejaVuSans-28" x="442.416016"/>
      <use xlink:href="#DejaVuSans-44" x="481.429688"/>
      <use xlink:href="#DejaVuSans-65" x="558.431641"/>
      <use xlink:href="#DejaVuSans-66" x="619.955078"/>
      <use xlink:href="#DejaVuSans-61" x="655.160156"/>
      <use xlink:href="#DejaVuSans-75" x="716.439453"/>
      <use xlink:href="#DejaVuSans-6c" x="779.818359"/>
      <use xlink:href="#DejaVuSans-74" x="807.601562"/>
      <use xlink:href="#DejaVuSans-29" x="846.810547"/>
     </g>
    </g>
    <g id="line2d_19">
     <path d="M 265.88875 69.248562 
L 275.88875 69.248562 
L 285.88875 69.248562 
" style="fill: none; stroke-dasharray: 2,3.3; stroke-dashoffset: 0; stroke: #ffa500; stroke-width: 2"/>
    </g>
    <g id="text_20">
     <!-- Average (Anticipation) -->
     <g transform="translate(293.88875 72.748562)scale(0.1 -0.1)">
      <defs>
       <path id="DejaVuSans-63" d="M 3122 3366 
L 3122 2828 
Q 2878 2963 2633 3030 
Q 2388 3097 2138 3097 
Q 1578 3097 1268 2742 
Q 959 2388 959 1747 
Q 959 1106 1268 751 
Q 1578 397 2138 397 
Q 2388 397 2633 464 
Q 2878 531 3122 666 
L 3122 134 
Q 2881 22 2623 -34 
Q 2366 -91 2075 -91 
Q 1284 -91 818 406 
Q 353 903 353 1747 
Q 353 2603 823 3093 
Q 1294 3584 2113 3584 
Q 2378 3584 2631 3529 
Q 2884 3475 3122 3366 
z
" transform="scale(0.015625)"/>
       <path id="DejaVuSans-70" d="M 1159 525 
L 1159 -1331 
L 581 -1331 
L 581 3500 
L 1159 3500 
L 1159 2969 
Q 1341 3281 1617 3432 
Q 1894 3584 2278 3584 
Q 2916 3584 3314 3078 
Q 3713 2572 3713 1747 
Q 3713 922 3314 415 
Q 2916 -91 2278 -91 
Q 1894 -91 1617 61 
Q 1341 213 1159 525 
z
M 3116 1747 
Q 3116 2381 2855 2742 
Q 2594 3103 2138 3103 
Q 1681 3103 1420 2742 
Q 1159 2381 1159 1747 
Q 1159 1113 1420 752 
Q 1681 391 2138 391 
Q 2594 391 2855 752 
Q 3116 1113 3116 1747 
z
" transform="scale(0.015625)"/>
      </defs>
      <use xlink:href="#DejaVuSans-41"/>
      <use xlink:href="#DejaVuSans-76" x="62.533203"/>
      <use xlink:href="#DejaVuSans-65" x="121.712891"/>
      <use xlink:href="#DejaVuSans-72" x="183.236328"/>
      <use xlink:href="#DejaVuSans-61" x="224.349609"/>
      <use xlink:href="#DejaVuSans-67" x="285.628906"/>
      <use xlink:href="#DejaVuSans-65" x="349.105469"/>
      <use xlink:href="#DejaVuSans-20" x="410.628906"/>
      <use xlink:href="#DejaVuSans-28" x="442.416016"/>
      <use xlink:href="#DejaVuSans-41" x="481.429688"/>
      <use xlink:href="#DejaVuSans-6e" x="549.837891"/>
      <use xlink:href="#DejaVuSans-74" x="613.216797"/>
      <use xlink:href="#DejaVuSans-69" x="652.425781"/>
      <use xlink:href="#DejaVuSans-63" x="680.208984"/>
      <use xlink:href="#DejaVuSans-69" x="735.189453"/>
      <use xlink:href="#DejaVuSans-70" x="762.972656"/>
      <use xlink:href="#DejaVuSans-61" x="826.449219"/>
      <use xlink:href="#DejaVuSans-74" x="887.728516"/>
      <use xlink:href="#DejaVuSans-69" x="926.9375"/>
      <use xlink:href="#DejaVuSans-6f" x="954.720703"/>
      <use xlink:href="#DejaVuSans-6e" x="1015.902344"/>
      <use xlink:href="#DejaVuSans-29" x="1079.28125"/>
     </g>
    </g>
   </g>
  </g>
 </g>
 <defs>
  <clipPath id="p3a9b1ecd7c">
   <rect x="57.6" y="41.472" width="357.12" height="266.112"/>
  </clipPath>
 </defs>
</svg>
