<?xml version="1.0" encoding="utf-8" standalone="no"?>
<!DOCTYPE svg PUBLIC "-//W3C//DTD SVG 1.1//EN"
  "http://www.w3.org/Graphics/SVG/1.1/DTD/svg11.dtd">
<svg xmlns:xlink="http://www.w3.org/1999/xlink" width="460.8pt" height="345.6pt" viewBox="0 0 460.8 345.6" xmlns="http://www.w3.org/2000/svg" version="1.1">
 <metadata>
  <rdf:RDF xmlns:dc="http://purl.org/dc/elements/1.1/" xmlns:cc="http://creativecommons.org/ns#" xmlns:rdf="http://www.w3.org/1999/02/22-rdf-syntax-ns#">
   <cc:Work>
    <dc:type rdf:resource="http://purl.org/dc/dcmitype/StillImage"/>
    <dc:date>2022-10-10T15:39:41.320977</dc:date>
    <dc:format>image/svg+xml</dc:format>
    <dc:creator>
     <cc:Agent>
      <dc:title>Matplotlib v3.5.3, https://matplotlib.org/</dc:title>
     </cc:Agent>
    </dc:creator>
   </cc:Work>
  </rdf:RDF>
 </metadata>
 <defs>
  <style type="text/css">*{stroke-linejoin: round; stroke-linecap: butt}</style>
 </defs>
 <g id="figure_1">
  <g id="patch_1">
   <path d="M 0 345.6 
L 460.8 345.6 
L 460.8 0 
L 0 0 
z
" style="fill: #ffffff"/>
  </g>
  <g id="axes_1">
   <g id="patch_2">
    <path d="M 57.6 307.584 
L 414.72 307.584 
L 414.72 41.472 
L 57.6 41.472 
z
" style="fill: #ffffff"/>
   </g>
   <g id="matplotlib.axis_1">
    <g id="xtick_1">
     <g id="line2d_1">
      <defs>
       <path id="mecc2f4fe37" d="M 0 0 
L 0 3.5 
" style="stroke: #000000; stroke-width: 0.8"/>
      </defs>
      <g>
       <use xlink:href="#mecc2f4fe37" x="73.832727" y="307.584" style="stroke: #000000; stroke-width: 0.8"/>
      </g>
     </g>
     <g id="text_1">
      <!-- 0 -->
      <g transform="translate(70.651477 322.182437)scale(0.1 -0.1)">
       <defs>
        <path id="DejaVuSans-30" d="M 2034 4250 
Q 1547 4250 1301 3770 
Q 1056 3291 1056 2328 
Q 1056 1369 1301 889 
Q 1547 409 2034 409 
Q 2525 409 2770 889 
Q 3016 1369 3016 2328 
Q 3016 3291 2770 3770 
Q 2525 4250 2034 4250 
z
M 2034 4750 
Q 2819 4750 3233 4129 
Q 3647 3509 3647 2328 
Q 3647 1150 3233 529 
Q 2819 -91 2034 -91 
Q 1250 -91 836 529 
Q 422 1150 422 2328 
Q 422 3509 836 4129 
Q 1250 4750 2034 4750 
z
" transform="scale(0.015625)"/>
       </defs>
       <use xlink:href="#DejaVuSans-30"/>
      </g>
     </g>
    </g>
    <g id="xtick_2">
     <g id="line2d_2">
      <g>
       <use xlink:href="#mecc2f4fe37" x="138.776625" y="307.584" style="stroke: #000000; stroke-width: 0.8"/>
      </g>
     </g>
     <g id="text_2">
      <!-- 1000 -->
      <g transform="translate(126.051625 322.182437)scale(0.1 -0.1)">
       <defs>
        <path id="DejaVuSans-31" d="M 794 531 
L 1825 531 
L 1825 4091 
L 703 3866 
L 703 4441 
L 1819 4666 
L 2450 4666 
L 2450 531 
L 3481 531 
L 3481 0 
L 794 0 
L 794 531 
z
" transform="scale(0.015625)"/>
       </defs>
       <use xlink:href="#DejaVuSans-31"/>
       <use xlink:href="#DejaVuSans-30" x="63.623047"/>
       <use xlink:href="#DejaVuSans-30" x="127.246094"/>
       <use xlink:href="#DejaVuSans-30" x="190.869141"/>
      </g>
     </g>
    </g>
    <g id="xtick_3">
     <g id="line2d_3">
      <g>
       <use xlink:href="#mecc2f4fe37" x="203.720523" y="307.584" style="stroke: #000000; stroke-width: 0.8"/>
      </g>
     </g>
     <g id="text_3">
      <!-- 2000 -->
      <g transform="translate(190.995523 322.182437)scale(0.1 -0.1)">
       <defs>
        <path id="DejaVuSans-32" d="M 1228 531 
L 3431 531 
L 3431 0 
L 469 0 
L 469 531 
Q 828 903 1448 1529 
Q 2069 2156 2228 2338 
Q 2531 2678 2651 2914 
Q 2772 3150 2772 3378 
Q 2772 3750 2511 3984 
Q 2250 4219 1831 4219 
Q 1534 4219 1204 4116 
Q 875 4013 500 3803 
L 500 4441 
Q 881 4594 1212 4672 
Q 1544 4750 1819 4750 
Q 2544 4750 2975 4387 
Q 3406 4025 3406 3419 
Q 3406 3131 3298 2873 
Q 3191 2616 2906 2266 
Q 2828 2175 2409 1742 
Q 1991 1309 1228 531 
z
" transform="scale(0.015625)"/>
       </defs>
       <use xlink:href="#DejaVuSans-32"/>
       <use xlink:href="#DejaVuSans-30" x="63.623047"/>
       <use xlink:href="#DejaVuSans-30" x="127.246094"/>
       <use xlink:href="#DejaVuSans-30" x="190.869141"/>
      </g>
     </g>
    </g>
    <g id="xtick_4">
     <g id="line2d_4">
      <g>
       <use xlink:href="#mecc2f4fe37" x="268.664421" y="307.584" style="stroke: #000000; stroke-width: 0.8"/>
      </g>
     </g>
     <g id="text_4">
      <!-- 3000 -->
      <g transform="translate(255.939421 322.182437)scale(0.1 -0.1)">
       <defs>
        <path id="DejaVuSans-33" d="M 2597 2516 
Q 3050 2419 3304 2112 
Q 3559 1806 3559 1356 
Q 3559 666 3084 287 
Q 2609 -91 1734 -91 
Q 1441 -91 1130 -33 
Q 819 25 488 141 
L 488 750 
Q 750 597 1062 519 
Q 1375 441 1716 441 
Q 2309 441 2620 675 
Q 2931 909 2931 1356 
Q 2931 1769 2642 2001 
Q 2353 2234 1838 2234 
L 1294 2234 
L 1294 2753 
L 1863 2753 
Q 2328 2753 2575 2939 
Q 2822 3125 2822 3475 
Q 2822 3834 2567 4026 
Q 2313 4219 1838 4219 
Q 1578 4219 1281 4162 
Q 984 4106 628 3988 
L 628 4550 
Q 988 4650 1302 4700 
Q 1616 4750 1894 4750 
Q 2613 4750 3031 4423 
Q 3450 4097 3450 3541 
Q 3450 3153 3228 2886 
Q 3006 2619 2597 2516 
z
" transform="scale(0.015625)"/>
       </defs>
       <use xlink:href="#DejaVuSans-33"/>
       <use xlink:href="#DejaVuSans-30" x="63.623047"/>
       <use xlink:href="#DejaVuSans-30" x="127.246094"/>
       <use xlink:href="#DejaVuSans-30" x="190.869141"/>
      </g>
     </g>
    </g>
    <g id="xtick_5">
     <g id="line2d_5">
      <g>
       <use xlink:href="#mecc2f4fe37" x="333.608319" y="307.584" style="stroke: #000000; stroke-width: 0.8"/>
      </g>
     </g>
     <g id="text_5">
      <!-- 4000 -->
      <g transform="translate(320.883319 322.182437)scale(0.1 -0.1)">
       <defs>
        <path id="DejaVuSans-34" d="M 2419 4116 
L 825 1625 
L 2419 1625 
L 2419 4116 
z
M 2253 4666 
L 3047 4666 
L 3047 1625 
L 3713 1625 
L 3713 1100 
L 3047 1100 
L 3047 0 
L 2419 0 
L 2419 1100 
L 313 1100 
L 313 1709 
L 2253 4666 
z
" transform="scale(0.015625)"/>
       </defs>
       <use xlink:href="#DejaVuSans-34"/>
       <use xlink:href="#DejaVuSans-30" x="63.623047"/>
       <use xlink:href="#DejaVuSans-30" x="127.246094"/>
       <use xlink:href="#DejaVuSans-30" x="190.869141"/>
      </g>
     </g>
    </g>
    <g id="xtick_6">
     <g id="line2d_6">
      <g>
       <use xlink:href="#mecc2f4fe37" x="398.552217" y="307.584" style="stroke: #000000; stroke-width: 0.8"/>
      </g>
     </g>
     <g id="text_6">
      <!-- 5000 -->
      <g transform="translate(385.827217 322.182437)scale(0.1 -0.1)">
       <defs>
        <path id="DejaVuSans-35" d="M 691 4666 
L 3169 4666 
L 3169 4134 
L 1269 4134 
L 1269 2991 
Q 1406 3038 1543 3061 
Q 1681 3084 1819 3084 
Q 2600 3084 3056 2656 
Q 3513 2228 3513 1497 
Q 3513 744 3044 326 
Q 2575 -91 1722 -91 
Q 1428 -91 1123 -41 
Q 819 9 494 109 
L 494 744 
Q 775 591 1075 516 
Q 1375 441 1709 441 
Q 2250 441 2565 725 
Q 2881 1009 2881 1497 
Q 2881 1984 2565 2268 
Q 2250 2553 1709 2553 
Q 1456 2553 1204 2497 
Q 953 2441 691 2322 
L 691 4666 
z
" transform="scale(0.015625)"/>
       </defs>
       <use xlink:href="#DejaVuSans-35"/>
       <use xlink:href="#DejaVuSans-30" x="63.623047"/>
       <use xlink:href="#DejaVuSans-30" x="127.246094"/>
       <use xlink:href="#DejaVuSans-30" x="190.869141"/>
      </g>
     </g>
    </g>
    <g id="text_7">
     <!-- Number of Orders -->
     <g transform="translate(191.261562 335.860562)scale(0.1 -0.1)">
      <defs>
       <path id="DejaVuSans-4e" d="M 628 4666 
L 1478 4666 
L 3547 763 
L 3547 4666 
L 4159 4666 
L 4159 0 
L 3309 0 
L 1241 3903 
L 1241 0 
L 628 0 
L 628 4666 
z
" transform="scale(0.015625)"/>
       <path id="DejaVuSans-75" d="M 544 1381 
L 544 3500 
L 1119 3500 
L 1119 1403 
Q 1119 906 1312 657 
Q 1506 409 1894 409 
Q 2359 409 2629 706 
Q 2900 1003 2900 1516 
L 2900 3500 
L 3475 3500 
L 3475 0 
L 2900 0 
L 2900 538 
Q 2691 219 2414 64 
Q 2138 -91 1772 -91 
Q 1169 -91 856 284 
Q 544 659 544 1381 
z
M 1991 3584 
L 1991 3584 
z
" transform="scale(0.015625)"/>
       <path id="DejaVuSans-6d" d="M 3328 2828 
Q 3544 3216 3844 3400 
Q 4144 3584 4550 3584 
Q 5097 3584 5394 3201 
Q 5691 2819 5691 2113 
L 5691 0 
L 5113 0 
L 5113 2094 
Q 5113 2597 4934 2840 
Q 4756 3084 4391 3084 
Q 3944 3084 3684 2787 
Q 3425 2491 3425 1978 
L 3425 0 
L 2847 0 
L 2847 2094 
Q 2847 2600 2669 2842 
Q 2491 3084 2119 3084 
Q 1678 3084 1418 2786 
Q 1159 2488 1159 1978 
L 1159 0 
L 581 0 
L 581 3500 
L 1159 3500 
L 1159 2956 
Q 1356 3278 1631 3431 
Q 1906 3584 2284 3584 
Q 2666 3584 2933 3390 
Q 3200 3197 3328 2828 
z
" transform="scale(0.015625)"/>
       <path id="DejaVuSans-62" d="M 3116 1747 
Q 3116 2381 2855 2742 
Q 2594 3103 2138 3103 
Q 1681 3103 1420 2742 
Q 1159 2381 1159 1747 
Q 1159 1113 1420 752 
Q 1681 391 2138 391 
Q 2594 391 2855 752 
Q 3116 1113 3116 1747 
z
M 1159 2969 
Q 1341 3281 1617 3432 
Q 1894 3584 2278 3584 
Q 2916 3584 3314 3078 
Q 3713 2572 3713 1747 
Q 3713 922 3314 415 
Q 2916 -91 2278 -91 
Q 1894 -91 1617 61 
Q 1341 213 1159 525 
L 1159 0 
L 581 0 
L 581 4863 
L 1159 4863 
L 1159 2969 
z
" transform="scale(0.015625)"/>
       <path id="DejaVuSans-65" d="M 3597 1894 
L 3597 1613 
L 953 1613 
Q 991 1019 1311 708 
Q 1631 397 2203 397 
Q 2534 397 2845 478 
Q 3156 559 3463 722 
L 3463 178 
Q 3153 47 2828 -22 
Q 2503 -91 2169 -91 
Q 1331 -91 842 396 
Q 353 884 353 1716 
Q 353 2575 817 3079 
Q 1281 3584 2069 3584 
Q 2775 3584 3186 3129 
Q 3597 2675 3597 1894 
z
M 3022 2063 
Q 3016 2534 2758 2815 
Q 2500 3097 2075 3097 
Q 1594 3097 1305 2825 
Q 1016 2553 972 2059 
L 3022 2063 
z
" transform="scale(0.015625)"/>
       <path id="DejaVuSans-72" d="M 2631 2963 
Q 2534 3019 2420 3045 
Q 2306 3072 2169 3072 
Q 1681 3072 1420 2755 
Q 1159 2438 1159 1844 
L 1159 0 
L 581 0 
L 581 3500 
L 1159 3500 
L 1159 2956 
Q 1341 3275 1631 3429 
Q 1922 3584 2338 3584 
Q 2397 3584 2469 3576 
Q 2541 3569 2628 3553 
L 2631 2963 
z
" transform="scale(0.015625)"/>
       <path id="DejaVuSans-20" transform="scale(0.015625)"/>
       <path id="DejaVuSans-6f" d="M 1959 3097 
Q 1497 3097 1228 2736 
Q 959 2375 959 1747 
Q 959 1119 1226 758 
Q 1494 397 1959 397 
Q 2419 397 2687 759 
Q 2956 1122 2956 1747 
Q 2956 2369 2687 2733 
Q 2419 3097 1959 3097 
z
M 1959 3584 
Q 2709 3584 3137 3096 
Q 3566 2609 3566 1747 
Q 3566 888 3137 398 
Q 2709 -91 1959 -91 
Q 1206 -91 779 398 
Q 353 888 353 1747 
Q 353 2609 779 3096 
Q 1206 3584 1959 3584 
z
" transform="scale(0.015625)"/>
       <path id="DejaVuSans-66" d="M 2375 4863 
L 2375 4384 
L 1825 4384 
Q 1516 4384 1395 4259 
Q 1275 4134 1275 3809 
L 1275 3500 
L 2222 3500 
L 2222 3053 
L 1275 3053 
L 1275 0 
L 697 0 
L 697 3053 
L 147 3053 
L 147 3500 
L 697 3500 
L 697 3744 
Q 697 4328 969 4595 
Q 1241 4863 1831 4863 
L 2375 4863 
z
" transform="scale(0.015625)"/>
       <path id="DejaVuSans-4f" d="M 2522 4238 
Q 1834 4238 1429 3725 
Q 1025 3213 1025 2328 
Q 1025 1447 1429 934 
Q 1834 422 2522 422 
Q 3209 422 3611 934 
Q 4013 1447 4013 2328 
Q 4013 3213 3611 3725 
Q 3209 4238 2522 4238 
z
M 2522 4750 
Q 3503 4750 4090 4092 
Q 4678 3434 4678 2328 
Q 4678 1225 4090 567 
Q 3503 -91 2522 -91 
Q 1538 -91 948 565 
Q 359 1222 359 2328 
Q 359 3434 948 4092 
Q 1538 4750 2522 4750 
z
" transform="scale(0.015625)"/>
       <path id="DejaVuSans-64" d="M 2906 2969 
L 2906 4863 
L 3481 4863 
L 3481 0 
L 2906 0 
L 2906 525 
Q 2725 213 2448 61 
Q 2172 -91 1784 -91 
Q 1150 -91 751 415 
Q 353 922 353 1747 
Q 353 2572 751 3078 
Q 1150 3584 1784 3584 
Q 2172 3584 2448 3432 
Q 2725 3281 2906 2969 
z
M 947 1747 
Q 947 1113 1208 752 
Q 1469 391 1925 391 
Q 2381 391 2643 752 
Q 2906 1113 2906 1747 
Q 2906 2381 2643 2742 
Q 2381 3103 1925 3103 
Q 1469 3103 1208 2742 
Q 947 2381 947 1747 
z
" transform="scale(0.015625)"/>
       <path id="DejaVuSans-73" d="M 2834 3397 
L 2834 2853 
Q 2591 2978 2328 3040 
Q 2066 3103 1784 3103 
Q 1356 3103 1142 2972 
Q 928 2841 928 2578 
Q 928 2378 1081 2264 
Q 1234 2150 1697 2047 
L 1894 2003 
Q 2506 1872 2764 1633 
Q 3022 1394 3022 966 
Q 3022 478 2636 193 
Q 2250 -91 1575 -91 
Q 1294 -91 989 -36 
Q 684 19 347 128 
L 347 722 
Q 666 556 975 473 
Q 1284 391 1588 391 
Q 1994 391 2212 530 
Q 2431 669 2431 922 
Q 2431 1156 2273 1281 
Q 2116 1406 1581 1522 
L 1381 1569 
Q 847 1681 609 1914 
Q 372 2147 372 2553 
Q 372 3047 722 3315 
Q 1072 3584 1716 3584 
Q 2034 3584 2315 3537 
Q 2597 3491 2834 3397 
z
" transform="scale(0.015625)"/>
      </defs>
      <use xlink:href="#DejaVuSans-4e"/>
      <use xlink:href="#DejaVuSans-75" x="74.804688"/>
      <use xlink:href="#DejaVuSans-6d" x="138.183594"/>
      <use xlink:href="#DejaVuSans-62" x="235.595703"/>
      <use xlink:href="#DejaVuSans-65" x="299.072266"/>
      <use xlink:href="#DejaVuSans-72" x="360.595703"/>
      <use xlink:href="#DejaVuSans-20" x="401.708984"/>
      <use xlink:href="#DejaVuSans-6f" x="433.496094"/>
      <use xlink:href="#DejaVuSans-66" x="494.677734"/>
      <use xlink:href="#DejaVuSans-20" x="529.882812"/>
      <use xlink:href="#DejaVuSans-4f" x="561.669922"/>
      <use xlink:href="#DejaVuSans-72" x="640.380859"/>
      <use xlink:href="#DejaVuSans-64" x="679.744141"/>
      <use xlink:href="#DejaVuSans-65" x="743.220703"/>
      <use xlink:href="#DejaVuSans-72" x="804.744141"/>
      <use xlink:href="#DejaVuSans-73" x="845.857422"/>
     </g>
    </g>
   </g>
   <g id="matplotlib.axis_2">
    <g id="ytick_1">
     <g id="line2d_7">
      <defs>
       <path id="m1cda9af41a" d="M 0 0 
L -3.5 0 
" style="stroke: #000000; stroke-width: 0.8"/>
      </defs>
      <g>
       <use xlink:href="#m1cda9af41a" x="57.6" y="269.834316" style="stroke: #000000; stroke-width: 0.8"/>
      </g>
     </g>
     <g id="text_8">
      <!-- 1000 -->
      <g transform="translate(25.15 273.633535)scale(0.1 -0.1)">
       <use xlink:href="#DejaVuSans-31"/>
       <use xlink:href="#DejaVuSans-30" x="63.623047"/>
       <use xlink:href="#DejaVuSans-30" x="127.246094"/>
       <use xlink:href="#DejaVuSans-30" x="190.869141"/>
      </g>
     </g>
    </g>
    <g id="ytick_2">
     <g id="line2d_8">
      <g>
       <use xlink:href="#m1cda9af41a" x="57.6" y="230.508797" style="stroke: #000000; stroke-width: 0.8"/>
      </g>
     </g>
     <g id="text_9">
      <!-- 2000 -->
      <g transform="translate(25.15 234.308016)scale(0.1 -0.1)">
       <use xlink:href="#DejaVuSans-32"/>
       <use xlink:href="#DejaVuSans-30" x="63.623047"/>
       <use xlink:href="#DejaVuSans-30" x="127.246094"/>
       <use xlink:href="#DejaVuSans-30" x="190.869141"/>
      </g>
     </g>
    </g>
    <g id="ytick_3">
     <g id="line2d_9">
      <g>
       <use xlink:href="#m1cda9af41a" x="57.6" y="191.183277" style="stroke: #000000; stroke-width: 0.8"/>
      </g>
     </g>
     <g id="text_10">
      <!-- 3000 -->
      <g transform="translate(25.15 194.982496)scale(0.1 -0.1)">
       <use xlink:href="#DejaVuSans-33"/>
       <use xlink:href="#DejaVuSans-30" x="63.623047"/>
       <use xlink:href="#DejaVuSans-30" x="127.246094"/>
       <use xlink:href="#DejaVuSans-30" x="190.869141"/>
      </g>
     </g>
    </g>
    <g id="ytick_4">
     <g id="line2d_10">
      <g>
       <use xlink:href="#m1cda9af41a" x="57.6" y="151.857758" style="stroke: #000000; stroke-width: 0.8"/>
      </g>
     </g>
     <g id="text_11">
      <!-- 4000 -->
      <g transform="translate(25.15 155.656977)scale(0.1 -0.1)">
       <use xlink:href="#DejaVuSans-34"/>
       <use xlink:href="#DejaVuSans-30" x="63.623047"/>
       <use xlink:href="#DejaVuSans-30" x="127.246094"/>
       <use xlink:href="#DejaVuSans-30" x="190.869141"/>
      </g>
     </g>
    </g>
    <g id="ytick_5">
     <g id="line2d_11">
      <g>
       <use xlink:href="#m1cda9af41a" x="57.6" y="112.532239" style="stroke: #000000; stroke-width: 0.8"/>
      </g>
     </g>
     <g id="text_12">
      <!-- 5000 -->
      <g transform="translate(25.15 116.331458)scale(0.1 -0.1)">
       <use xlink:href="#DejaVuSans-35"/>
       <use xlink:href="#DejaVuSans-30" x="63.623047"/>
       <use xlink:href="#DejaVuSans-30" x="127.246094"/>
       <use xlink:href="#DejaVuSans-30" x="190.869141"/>
      </g>
     </g>
    </g>
    <g id="ytick_6">
     <g id="line2d_12">
      <g>
       <use xlink:href="#m1cda9af41a" x="57.6" y="73.20672" style="stroke: #000000; stroke-width: 0.8"/>
      </g>
     </g>
     <g id="text_13">
      <!-- 6000 -->
      <g transform="translate(25.15 77.005938)scale(0.1 -0.1)">
       <defs>
        <path id="DejaVuSans-36" d="M 2113 2584 
Q 1688 2584 1439 2293 
Q 1191 2003 1191 1497 
Q 1191 994 1439 701 
Q 1688 409 2113 409 
Q 2538 409 2786 701 
Q 3034 994 3034 1497 
Q 3034 2003 2786 2293 
Q 2538 2584 2113 2584 
z
M 3366 4563 
L 3366 3988 
Q 3128 4100 2886 4159 
Q 2644 4219 2406 4219 
Q 1781 4219 1451 3797 
Q 1122 3375 1075 2522 
Q 1259 2794 1537 2939 
Q 1816 3084 2150 3084 
Q 2853 3084 3261 2657 
Q 3669 2231 3669 1497 
Q 3669 778 3244 343 
Q 2819 -91 2113 -91 
Q 1303 -91 875 529 
Q 447 1150 447 2328 
Q 447 3434 972 4092 
Q 1497 4750 2381 4750 
Q 2619 4750 2861 4703 
Q 3103 4656 3366 4563 
z
" transform="scale(0.015625)"/>
       </defs>
       <use xlink:href="#DejaVuSans-36"/>
       <use xlink:href="#DejaVuSans-30" x="63.623047"/>
       <use xlink:href="#DejaVuSans-30" x="127.246094"/>
       <use xlink:href="#DejaVuSans-30" x="190.869141"/>
      </g>
     </g>
    </g>
    <g id="text_14">
     <!-- Waiting Time/s -->
     <g transform="translate(19.070312 211.410031)rotate(-90)scale(0.1 -0.1)">
      <defs>
       <path id="DejaVuSans-57" d="M 213 4666 
L 850 4666 
L 1831 722 
L 2809 4666 
L 3519 4666 
L 4500 722 
L 5478 4666 
L 6119 4666 
L 4947 0 
L 4153 0 
L 3169 4050 
L 2175 0 
L 1381 0 
L 213 4666 
z
" transform="scale(0.015625)"/>
       <path id="DejaVuSans-61" d="M 2194 1759 
Q 1497 1759 1228 1600 
Q 959 1441 959 1056 
Q 959 750 1161 570 
Q 1363 391 1709 391 
Q 2188 391 2477 730 
Q 2766 1069 2766 1631 
L 2766 1759 
L 2194 1759 
z
M 3341 1997 
L 3341 0 
L 2766 0 
L 2766 531 
Q 2569 213 2275 61 
Q 1981 -91 1556 -91 
Q 1019 -91 701 211 
Q 384 513 384 1019 
Q 384 1609 779 1909 
Q 1175 2209 1959 2209 
L 2766 2209 
L 2766 2266 
Q 2766 2663 2505 2880 
Q 2244 3097 1772 3097 
Q 1472 3097 1187 3025 
Q 903 2953 641 2809 
L 641 3341 
Q 956 3463 1253 3523 
Q 1550 3584 1831 3584 
Q 2591 3584 2966 3190 
Q 3341 2797 3341 1997 
z
" transform="scale(0.015625)"/>
       <path id="DejaVuSans-69" d="M 603 3500 
L 1178 3500 
L 1178 0 
L 603 0 
L 603 3500 
z
M 603 4863 
L 1178 4863 
L 1178 4134 
L 603 4134 
L 603 4863 
z
" transform="scale(0.015625)"/>
       <path id="DejaVuSans-74" d="M 1172 4494 
L 1172 3500 
L 2356 3500 
L 2356 3053 
L 1172 3053 
L 1172 1153 
Q 1172 725 1289 603 
Q 1406 481 1766 481 
L 2356 481 
L 2356 0 
L 1766 0 
Q 1100 0 847 248 
Q 594 497 594 1153 
L 594 3053 
L 172 3053 
L 172 3500 
L 594 3500 
L 594 4494 
L 1172 4494 
z
" transform="scale(0.015625)"/>
       <path id="DejaVuSans-6e" d="M 3513 2113 
L 3513 0 
L 2938 0 
L 2938 2094 
Q 2938 2591 2744 2837 
Q 2550 3084 2163 3084 
Q 1697 3084 1428 2787 
Q 1159 2491 1159 1978 
L 1159 0 
L 581 0 
L 581 3500 
L 1159 3500 
L 1159 2956 
Q 1366 3272 1645 3428 
Q 1925 3584 2291 3584 
Q 2894 3584 3203 3211 
Q 3513 2838 3513 2113 
z
" transform="scale(0.015625)"/>
       <path id="DejaVuSans-67" d="M 2906 1791 
Q 2906 2416 2648 2759 
Q 2391 3103 1925 3103 
Q 1463 3103 1205 2759 
Q 947 2416 947 1791 
Q 947 1169 1205 825 
Q 1463 481 1925 481 
Q 2391 481 2648 825 
Q 2906 1169 2906 1791 
z
M 3481 434 
Q 3481 -459 3084 -895 
Q 2688 -1331 1869 -1331 
Q 1566 -1331 1297 -1286 
Q 1028 -1241 775 -1147 
L 775 -588 
Q 1028 -725 1275 -790 
Q 1522 -856 1778 -856 
Q 2344 -856 2625 -561 
Q 2906 -266 2906 331 
L 2906 616 
Q 2728 306 2450 153 
Q 2172 0 1784 0 
Q 1141 0 747 490 
Q 353 981 353 1791 
Q 353 2603 747 3093 
Q 1141 3584 1784 3584 
Q 2172 3584 2450 3431 
Q 2728 3278 2906 2969 
L 2906 3500 
L 3481 3500 
L 3481 434 
z
" transform="scale(0.015625)"/>
       <path id="DejaVuSans-54" d="M -19 4666 
L 3928 4666 
L 3928 4134 
L 2272 4134 
L 2272 0 
L 1638 0 
L 1638 4134 
L -19 4134 
L -19 4666 
z
" transform="scale(0.015625)"/>
       <path id="DejaVuSans-2f" d="M 1625 4666 
L 2156 4666 
L 531 -594 
L 0 -594 
L 1625 4666 
z
" transform="scale(0.015625)"/>
      </defs>
      <use xlink:href="#DejaVuSans-57"/>
      <use xlink:href="#DejaVuSans-61" x="92.501953"/>
      <use xlink:href="#DejaVuSans-69" x="153.78125"/>
      <use xlink:href="#DejaVuSans-74" x="181.564453"/>
      <use xlink:href="#DejaVuSans-69" x="220.773438"/>
      <use xlink:href="#DejaVuSans-6e" x="248.556641"/>
      <use xlink:href="#DejaVuSans-67" x="311.935547"/>
      <use xlink:href="#DejaVuSans-20" x="375.412109"/>
      <use xlink:href="#DejaVuSans-54" x="407.199219"/>
      <use xlink:href="#DejaVuSans-69" x="465.158203"/>
      <use xlink:href="#DejaVuSans-6d" x="492.941406"/>
      <use xlink:href="#DejaVuSans-65" x="590.353516"/>
      <use xlink:href="#DejaVuSans-2f" x="651.876953"/>
      <use xlink:href="#DejaVuSans-73" x="685.568359"/>
     </g>
    </g>
   </g>
   <g id="line2d_13">
    <path d="M 73.832727 293.717519 
L 73.897671 295.488 
L 74.092503 289.299516 
L 74.157447 287.102623 
L 74.222391 288.705512 
L 74.676998 282.117491 
L 74.741942 282.228671 
L 74.806886 283.359461 
L 74.87183 282.658741 
L 74.936774 282.606384 
L 75.066661 283.406225 
L 75.326437 281.445929 
L 75.391381 281.571071 
L 75.456325 281.456481 
L 75.7161 280.587536 
L 75.781044 280.689704 
L 75.910932 280.351609 
L 76.105764 281.520257 
L 76.170708 281.458716 
L 76.300595 282.01265 
L 76.560371 281.275398 
L 76.625315 281.418488 
L 76.950034 280.869545 
L 77.20981 281.775217 
L 77.404642 281.33996 
L 77.469586 281.399495 
L 77.599473 281.11438 
L 77.664417 281.259467 
L 77.729361 281.181139 
L 77.859249 281.165438 
L 77.924193 281.156308 
L 78.054081 280.422739 
L 78.119025 280.494123 
L 78.183968 280.577615 
L 78.443744 280.034686 
L 78.70352 280.412933 
L 78.833407 280.309091 
L 79.028239 279.92779 
L 79.158127 280.058841 
L 79.352959 279.851536 
L 79.482846 279.878881 
L 79.677678 280.160311 
L 80.002398 279.321052 
L 80.132285 279.37158 
L 80.197229 279.47893 
L 80.521949 278.909773 
L 80.976556 278.377368 
L 81.236332 278.222704 
L 81.496107 277.523538 
L 81.561051 277.394117 
L 81.625995 277.451486 
L 81.820827 277.389387 
L 82.730041 275.769161 
L 82.859929 275.574343 
L 83.509368 274.619964 
L 83.7042 274.425942 
L 83.899031 274.293555 
L 84.093863 274.082823 
L 84.483527 273.296099 
L 84.613414 273.290996 
L 84.808246 273.122604 
L 84.938134 273.13551 
L 85.197909 272.779918 
L 85.327797 272.589881 
L 85.522629 272.180313 
L 85.652517 272.163989 
L 86.3669 271.294519 
L 86.431843 271.316876 
L 86.951395 270.511796 
L 87.081282 270.496334 
L 87.341058 270.129475 
L 87.470946 270.089983 
L 87.665778 269.920837 
L 88.315216 269.032992 
L 88.834768 268.712796 
L 89.419263 268.363716 
L 89.549151 268.237869 
L 89.614094 268.26145 
L 89.808926 268.04653 
L 90.133646 267.701525 
L 90.328477 267.332581 
L 90.523309 267.322828 
L 90.718141 267.387169 
L 90.783085 267.460221 
L 91.04286 267.226824 
L 91.237692 267.194788 
L 91.497467 267.000872 
L 91.757243 266.830391 
L 92.276794 266.46752 
L 93.315897 266.569388 
L 94.354999 265.967797 
L 94.679718 266.025128 
L 95.459045 265.582003 
L 95.783765 265.5252 
L 95.978596 265.4355 
L 96.173428 265.474328 
L 96.433204 265.186355 
L 97.472306 264.397718 
L 97.667138 264.34128 
L 98.836128 263.767479 
L 99.03096 263.672703 
L 99.290735 263.48277 
L 102.018379 261.878022 
L 102.667818 261.480156 
L 102.86265 261.364986 
L 103.122425 261.276602 
L 103.317257 261.176056 
L 103.577032 260.981737 
L 103.70692 260.903505 
L 104.421303 260.302394 
L 105.720181 259.730368 
L 106.239732 259.392028 
L 106.564452 259.22483 
L 106.759283 259.015722 
L 106.954115 258.892907 
L 107.213891 258.708003 
L 107.473666 258.655349 
L 107.86333 258.466451 
L 108.058161 258.362671 
L 108.7076 257.916942 
L 108.967376 257.701902 
L 111.045581 256.589061 
L 111.175469 256.509707 
L 112.344459 255.78778 
L 112.604234 255.553777 
L 114.552551 254.432416 
L 114.682439 254.343365 
L 115.007159 254.104227 
L 115.331878 253.956705 
L 115.656598 253.795072 
L 115.981317 253.580096 
L 116.241093 253.410872 
L 116.565812 253.193888 
L 117.669858 252.523678 
L 118.059522 252.215361 
L 118.968736 251.609597 
L 119.877951 251.048735 
L 120.20267 250.829608 
L 121.69638 249.953851 
L 122.021099 249.825206 
L 122.410763 249.575476 
L 123.384921 249.070776 
L 123.709641 248.856681 
L 125.333238 247.812871 
L 126.891892 246.969848 
L 127.606275 246.530237 
L 127.801106 246.452618 
L 128.060882 246.297688 
L 128.515489 246.002728 
L 128.775265 245.806771 
L 129.099984 245.639499 
L 130.723582 244.734097 
L 130.983357 244.627525 
L 131.373021 244.404818 
L 131.957516 244.079782 
L 132.86673 243.595432 
L 137.02314 241.349252 
L 137.412803 241.145261 
L 138.062242 240.675328 
L 138.646737 240.38032 
L 139.36112 239.980138 
L 139.945615 239.675715 
L 140.400223 239.399114 
L 144.491688 236.777927 
L 144.816408 236.575638 
L 147.0245 235.285843 
L 147.998659 234.697157 
L 148.323378 234.494558 
L 148.972817 234.140223 
L 149.427424 233.916605 
L 149.946976 233.651984 
L 150.466527 233.399134 
L 150.921134 233.154005 
L 151.700461 232.728779 
L 152.090124 232.524439 
L 153.259114 231.887272 
L 154.168329 231.450894 
L 154.557992 231.268701 
L 155.142487 231.028794 
L 155.402263 230.880616 
L 157.285636 229.963298 
L 157.805187 229.698534 
L 158.649458 229.219612 
L 159.558672 228.763231 
L 162.286316 227.358056 
L 163.195531 226.90717 
L 174.560713 221.179083 
L 175.145208 220.909657 
L 176.703861 220.100336 
L 177.288357 219.849096 
L 179.366561 218.751849 
L 182.224093 217.248924 
L 183.587915 216.540232 
L 184.367241 216.118972 
L 185.01668 215.753754 
L 185.796007 215.331921 
L 187.029941 214.74292 
L 187.614436 214.413273 
L 192.095565 212.056231 
L 194.368602 210.906924 
L 197.096245 209.616055 
L 198.525011 208.921771 
L 199.564114 208.345335 
L 204.954457 205.502886 
L 207.876932 203.810179 
L 208.980979 203.111486 
L 210.409744 202.227525 
L 212.423005 200.987096 
L 225.087065 192.439049 
L 226.970438 191.067252 
L 227.879653 190.419825 
L 232.295838 187.190511 
L 233.33494 186.44489 
L 236.387304 184.169615 
L 242.881693 179.208227 
L 243.855852 178.46174 
L 245.479449 177.205616 
L 246.453608 176.415563 
L 247.882374 175.314638 
L 253.402605 170.886211 
L 254.506651 170.009358 
L 256.000361 168.748054 
L 260.15677 165.246633 
L 261.455648 164.127195 
L 271.457008 155.72471 
L 272.431167 154.909851 
L 283.406686 145.946185 
L 284.575676 144.985131 
L 287.173432 142.896016 
L 289.186693 141.293071 
L 292.044224 138.985516 
L 295.031643 136.563855 
L 296.330521 135.519437 
L 303.019743 130.137882 
L 305.097948 128.527512 
L 306.396826 127.512339 
L 308.864694 125.602834 
L 310.098628 124.631882 
L 312.436608 122.809549 
L 315.748747 120.193353 
L 327.113929 111.247625 
L 377.640282 70.159452 
L 379.198935 68.837975 
L 393.421649 57.473551 
L 395.240078 56.089695 
L 398.487273 53.568 
L 398.487273 53.568 
" clip-path="url(#p4e4da58564)" style="fill: none; stroke-dasharray: 2,3.3; stroke-dashoffset: 0; stroke: #0000ff; stroke-width: 2"/>
   </g>
   <g id="line2d_14">
    <path d="M 73.832727 293.717519 
L 73.897671 295.488 
L 74.092503 289.299516 
L 74.157447 287.102623 
L 74.222391 288.705512 
L 74.676998 282.117491 
L 74.741942 282.231034 
L 74.806886 281.557045 
L 74.87183 282.212493 
L 74.936774 281.994449 
L 75.001717 281.979811 
L 75.131605 281.244069 
L 75.261493 281.797306 
L 75.326437 281.773397 
L 75.456325 280.959362 
L 75.651156 281.408364 
L 75.7161 281.45169 
L 75.781044 282.038955 
L 75.845988 281.837932 
L 75.975876 281.798144 
L 76.04082 281.738901 
L 76.170708 282.307632 
L 76.300595 281.7321 
L 76.365539 281.758418 
L 76.430483 281.93851 
L 76.495427 281.566181 
L 76.560371 281.780818 
L 76.625315 281.87239 
L 76.88509 281.468469 
L 77.014978 281.811354 
L 77.079922 281.495537 
L 77.20981 281.922462 
L 77.274754 281.835139 
L 77.339698 281.546261 
L 77.404642 281.904705 
L 77.469586 281.855332 
L 77.534529 281.759939 
L 77.599473 281.876744 
L 77.794305 281.706143 
L 77.924193 281.83429 
L 78.119025 281.223308 
L 78.183968 281.118548 
L 78.3788 281.359007 
L 78.443744 281.325718 
L 78.508688 281.434671 
L 78.573632 281.168982 
L 78.638576 281.190064 
L 78.70352 281.368733 
L 78.768464 281.335808 
L 79.223071 280.791388 
L 79.417902 281.086712 
L 79.482846 281.054902 
L 79.54779 281.158031 
L 79.677678 280.813561 
L 79.742622 280.879747 
L 79.807566 280.987475 
L 80.067341 280.099211 
L 80.132285 280.017544 
L 80.262173 280.201059 
L 80.911612 279.308253 
L 80.976556 279.281111 
L 81.0415 279.384064 
L 81.171388 279.139428 
L 81.236332 279.265629 
L 81.301276 279.170924 
L 81.431163 279.05783 
L 81.625995 278.948879 
L 81.755883 279.26857 
L 81.820827 279.209668 
L 81.950715 279.110316 
L 82.080602 278.770997 
L 82.145546 278.924542 
L 82.21049 278.816651 
L 82.340378 278.7509 
L 82.665097 278.182962 
L 82.794985 278.169886 
L 82.989817 278.237825 
L 83.054761 278.19056 
L 83.119705 278.316484 
L 83.184649 278.25991 
L 83.314536 278.158745 
L 83.574312 278.244398 
L 83.769144 278.229422 
L 83.834088 278.303077 
L 83.899031 278.226853 
L 84.028919 278.224457 
L 84.223751 278.018655 
L 84.613414 277.592443 
L 84.938134 277.741662 
L 85.327797 277.774503 
L 85.392741 277.680496 
L 85.522629 277.782732 
L 85.717461 277.780222 
L 86.172068 277.823843 
L 86.301956 277.773184 
L 86.951395 278.223246 
L 87.21117 278.11129 
L 87.341058 277.9779 
L 87.470946 277.970764 
L 87.600834 277.981384 
L 87.665778 278.049835 
L 87.795665 277.96756 
L 88.445104 278.058709 
L 88.639936 278.01011 
L 88.769824 277.948578 
L 89.224431 278.040786 
L 89.484207 277.966783 
L 89.549151 278.00231 
L 89.614094 277.871577 
L 89.679038 277.947687 
L 90.003758 277.802549 
L 90.19859 277.833951 
L 90.523309 277.842595 
L 90.783085 278.064262 
L 91.172748 277.926854 
L 91.497467 278.02968 
L 91.692299 278.110316 
L 92.276794 278.279591 
L 92.406682 278.309201 
L 92.731402 278.311787 
L 92.861289 278.421367 
L 92.926233 278.354857 
L 93.250953 278.287113 
L 93.445784 278.354148 
L 93.510728 278.39957 
L 93.640616 278.292722 
L 93.835448 278.25781 
L 93.965336 278.2034 
L 95.19927 278.542431 
L 95.459045 278.395282 
L 95.783765 278.472309 
L 96.108484 278.483798 
L 96.433204 278.308803 
L 96.692979 278.390953 
L 97.017699 278.510695 
L 97.277474 278.298413 
L 97.667138 278.357993 
L 97.797026 278.33693 
L 98.121745 278.394447 
L 98.771184 278.519492 
L 98.966016 278.529463 
L 99.355679 278.448248 
L 99.550511 278.303656 
L 100.459725 278.272126 
L 101.498828 278.018491 
L 101.758603 278.050774 
L 102.213211 277.985038 
L 102.343098 277.975595 
L 102.53793 277.975853 
L 103.70692 277.89571 
L 104.291415 277.83775 
L 105.590293 278.019699 
L 105.785125 278.060139 
L 106.109845 278.024557 
L 106.36962 277.966446 
L 106.564452 277.871755 
L 107.408722 277.90779 
L 107.603554 277.906708 
L 110.071422 277.783605 
L 110.396142 277.754378 
L 111.824908 277.436085 
L 112.214571 277.417589 
L 113.058842 277.333712 
L 113.253673 277.31362 
L 113.513449 277.196539 
L 114.942215 277.09514 
L 115.137046 277.065221 
L 115.331878 277.043916 
L 115.786485 276.955339 
L 116.111205 276.952496 
L 116.306036 276.954503 
L 116.630756 276.950688 
L 117.86469 276.629205 
L 118.254353 276.662732 
L 119.03368 276.564964 
L 119.488287 276.555172 
L 120.137726 276.548713 
L 120.462446 276.537655 
L 120.917053 276.494611 
L 121.306717 276.42313 
L 121.761324 276.358077 
L 122.280875 276.447524 
L 122.605595 276.41987 
L 123.125146 276.355517 
L 126.567172 276.304119 
L 126.956836 276.295673 
L 127.411443 276.315417 
L 127.736163 276.29758 
L 128.450545 276.237398 
L 128.775265 276.202626 
L 130.398862 276.353873 
L 131.048301 276.392146 
L 132.087404 276.462611 
L 132.477067 276.419737 
L 132.931674 276.44795 
L 133.126506 276.436851 
L 134.035721 276.323683 
L 134.944935 276.375909 
L 135.139767 276.373053 
L 135.594374 276.417786 
L 135.919094 276.406447 
L 136.373701 276.393495 
L 144.946295 276.186717 
L 152.609675 276.418571 
L 152.869451 276.40562 
L 153.389002 276.413569 
L 158.389682 276.345746 
L 160.078224 276.342476 
L 160.987438 276.297413 
L 161.831709 276.314843 
L 163.585194 276.397755 
L 165.728343 276.413289 
L 166.637557 276.409242 
L 170.079584 276.258436 
L 170.664079 276.307585 
L 171.443406 276.266939 
L 175.729703 276.148824 
L 176.119366 276.115556 
L 176.768805 276.10203 
L 178.522291 275.995929 
L 179.106786 275.99999 
L 179.821169 275.889408 
L 180.665439 275.889804 
L 185.666119 275.727086 
L 199.694001 275.569447 
L 200.083665 275.529862 
L 200.798048 275.559149 
L 202.811308 275.491299 
L 203.200972 275.491538 
L 205.993559 275.459225 
L 207.617157 275.438632 
L 208.526371 275.424468 
L 209.17581 275.340072 
L 213.202332 275.253758 
L 214.566154 275.253709 
L 220.930656 275.234967 
L 222.099646 275.275933 
L 222.749085 275.225288 
L 225.99628 275.172927 
L 230.217633 275.086329 
L 233.65966 275.131653 
L 234.244155 275.1055 
L 236.32236 275.022129 
L 241.452928 274.887871 
L 242.686862 274.845524 
L 253.597437 274.559569 
L 254.246876 274.547759 
L 255.285978 274.497496 
L 256.844631 274.442472 
L 269.248916 274.301856 
L 272.431167 274.260978 
L 274.509372 274.276289 
L 279.63994 274.265678 
L 282.562415 274.309032 
L 344.843613 273.691567 
L 346.142491 273.666465 
L 349.064966 273.647357 
L 351.857554 273.606402 
L 353.091488 273.590328 
L 354.974861 273.579023 
L 378.159833 273.43056 
L 381.147252 273.463862 
L 386.018044 273.438733 
L 387.511754 273.426072 
L 389.849734 273.430157 
L 391.2785 273.407653 
L 392.642322 273.403652 
L 398.487273 273.286187 
L 398.487273 273.286187 
" clip-path="url(#p4e4da58564)" style="fill: none; stroke-dasharray: 2,3.3; stroke-dashoffset: 0; stroke: #ffa500; stroke-width: 2"/>
   </g>
   <g id="patch_3">
    <path d="M 57.6 307.584 
L 57.6 41.472 
" style="fill: none; stroke: #000000; stroke-width: 0.8; stroke-linejoin: miter; stroke-linecap: square"/>
   </g>
   <g id="patch_4">
    <path d="M 414.72 307.584 
L 414.72 41.472 
" style="fill: none; stroke: #000000; stroke-width: 0.8; stroke-linejoin: miter; stroke-linecap: square"/>
   </g>
   <g id="patch_5">
    <path d="M 57.6 307.584 
L 414.72 307.584 
" style="fill: none; stroke: #000000; stroke-width: 0.8; stroke-linejoin: miter; stroke-linecap: square"/>
   </g>
   <g id="patch_6">
    <path d="M 57.6 41.472 
L 414.72 41.472 
" style="fill: none; stroke: #000000; stroke-width: 0.8; stroke-linejoin: miter; stroke-linecap: square"/>
   </g>
   <g id="text_15">
    <!-- Waiting Time Plot -->
    <g transform="translate(183.833438 8.2635)scale(0.12 -0.12)">
     <defs>
      <path id="DejaVuSans-50" d="M 1259 4147 
L 1259 2394 
L 2053 2394 
Q 2494 2394 2734 2622 
Q 2975 2850 2975 3272 
Q 2975 3691 2734 3919 
Q 2494 4147 2053 4147 
L 1259 4147 
z
M 628 4666 
L 2053 4666 
Q 2838 4666 3239 4311 
Q 3641 3956 3641 3272 
Q 3641 2581 3239 2228 
Q 2838 1875 2053 1875 
L 1259 1875 
L 1259 0 
L 628 0 
L 628 4666 
z
" transform="scale(0.015625)"/>
      <path id="DejaVuSans-6c" d="M 603 4863 
L 1178 4863 
L 1178 0 
L 603 0 
L 603 4863 
z
" transform="scale(0.015625)"/>
     </defs>
     <use xlink:href="#DejaVuSans-57"/>
     <use xlink:href="#DejaVuSans-61" x="92.501953"/>
     <use xlink:href="#DejaVuSans-69" x="153.78125"/>
     <use xlink:href="#DejaVuSans-74" x="181.564453"/>
     <use xlink:href="#DejaVuSans-69" x="220.773438"/>
     <use xlink:href="#DejaVuSans-6e" x="248.556641"/>
     <use xlink:href="#DejaVuSans-67" x="311.935547"/>
     <use xlink:href="#DejaVuSans-20" x="375.412109"/>
     <use xlink:href="#DejaVuSans-54" x="407.199219"/>
     <use xlink:href="#DejaVuSans-69" x="465.158203"/>
     <use xlink:href="#DejaVuSans-6d" x="492.941406"/>
     <use xlink:href="#DejaVuSans-65" x="590.353516"/>
     <use xlink:href="#DejaVuSans-20" x="651.876953"/>
     <use xlink:href="#DejaVuSans-50" x="683.664062"/>
     <use xlink:href="#DejaVuSans-6c" x="743.966797"/>
     <use xlink:href="#DejaVuSans-6f" x="771.75"/>
     <use xlink:href="#DejaVuSans-74" x="832.931641"/>
    </g>
    <!--  avg_d = 6499.388690216561  -->
    <g transform="translate(142.671562 21.700875)scale(0.12 -0.12)">
     <defs>
      <path id="DejaVuSans-76" d="M 191 3500 
L 800 3500 
L 1894 563 
L 2988 3500 
L 3597 3500 
L 2284 0 
L 1503 0 
L 191 3500 
z
" transform="scale(0.015625)"/>
      <path id="DejaVuSans-5f" d="M 3263 -1063 
L 3263 -1509 
L -63 -1509 
L -63 -1063 
L 3263 -1063 
z
" transform="scale(0.015625)"/>
      <path id="DejaVuSans-3d" d="M 678 2906 
L 4684 2906 
L 4684 2381 
L 678 2381 
L 678 2906 
z
M 678 1631 
L 4684 1631 
L 4684 1100 
L 678 1100 
L 678 1631 
z
" transform="scale(0.015625)"/>
      <path id="DejaVuSans-39" d="M 703 97 
L 703 672 
Q 941 559 1184 500 
Q 1428 441 1663 441 
Q 2288 441 2617 861 
Q 2947 1281 2994 2138 
Q 2813 1869 2534 1725 
Q 2256 1581 1919 1581 
Q 1219 1581 811 2004 
Q 403 2428 403 3163 
Q 403 3881 828 4315 
Q 1253 4750 1959 4750 
Q 2769 4750 3195 4129 
Q 3622 3509 3622 2328 
Q 3622 1225 3098 567 
Q 2575 -91 1691 -91 
Q 1453 -91 1209 -44 
Q 966 3 703 97 
z
M 1959 2075 
Q 2384 2075 2632 2365 
Q 2881 2656 2881 3163 
Q 2881 3666 2632 3958 
Q 2384 4250 1959 4250 
Q 1534 4250 1286 3958 
Q 1038 3666 1038 3163 
Q 1038 2656 1286 2365 
Q 1534 2075 1959 2075 
z
" transform="scale(0.015625)"/>
      <path id="DejaVuSans-2e" d="M 684 794 
L 1344 794 
L 1344 0 
L 684 0 
L 684 794 
z
" transform="scale(0.015625)"/>
      <path id="DejaVuSans-38" d="M 2034 2216 
Q 1584 2216 1326 1975 
Q 1069 1734 1069 1313 
Q 1069 891 1326 650 
Q 1584 409 2034 409 
Q 2484 409 2743 651 
Q 3003 894 3003 1313 
Q 3003 1734 2745 1975 
Q 2488 2216 2034 2216 
z
M 1403 2484 
Q 997 2584 770 2862 
Q 544 3141 544 3541 
Q 544 4100 942 4425 
Q 1341 4750 2034 4750 
Q 2731 4750 3128 4425 
Q 3525 4100 3525 3541 
Q 3525 3141 3298 2862 
Q 3072 2584 2669 2484 
Q 3125 2378 3379 2068 
Q 3634 1759 3634 1313 
Q 3634 634 3220 271 
Q 2806 -91 2034 -91 
Q 1263 -91 848 271 
Q 434 634 434 1313 
Q 434 1759 690 2068 
Q 947 2378 1403 2484 
z
M 1172 3481 
Q 1172 3119 1398 2916 
Q 1625 2713 2034 2713 
Q 2441 2713 2670 2916 
Q 2900 3119 2900 3481 
Q 2900 3844 2670 4047 
Q 2441 4250 2034 4250 
Q 1625 4250 1398 4047 
Q 1172 3844 1172 3481 
z
" transform="scale(0.015625)"/>
     </defs>
     <use xlink:href="#DejaVuSans-20"/>
     <use xlink:href="#DejaVuSans-61" x="31.787109"/>
     <use xlink:href="#DejaVuSans-76" x="93.066406"/>
     <use xlink:href="#DejaVuSans-67" x="152.246094"/>
     <use xlink:href="#DejaVuSans-5f" x="215.722656"/>
     <use xlink:href="#DejaVuSans-64" x="265.722656"/>
     <use xlink:href="#DejaVuSans-20" x="329.199219"/>
     <use xlink:href="#DejaVuSans-3d" x="360.986328"/>
     <use xlink:href="#DejaVuSans-20" x="444.775391"/>
     <use xlink:href="#DejaVuSans-36" x="476.5625"/>
     <use xlink:href="#DejaVuSans-34" x="540.185547"/>
     <use xlink:href="#DejaVuSans-39" x="603.808594"/>
     <use xlink:href="#DejaVuSans-39" x="667.431641"/>
     <use xlink:href="#DejaVuSans-2e" x="731.054688"/>
     <use xlink:href="#DejaVuSans-33" x="762.841797"/>
     <use xlink:href="#DejaVuSans-38" x="826.464844"/>
     <use xlink:href="#DejaVuSans-38" x="890.087891"/>
     <use xlink:href="#DejaVuSans-36" x="953.710938"/>
     <use xlink:href="#DejaVuSans-39" x="1017.333984"/>
     <use xlink:href="#DejaVuSans-30" x="1080.957031"/>
     <use xlink:href="#DejaVuSans-32" x="1144.580078"/>
     <use xlink:href="#DejaVuSans-31" x="1208.203125"/>
     <use xlink:href="#DejaVuSans-36" x="1271.826172"/>
     <use xlink:href="#DejaVuSans-35" x="1335.449219"/>
     <use xlink:href="#DejaVuSans-36" x="1399.072266"/>
     <use xlink:href="#DejaVuSans-31" x="1462.695312"/>
     <use xlink:href="#DejaVuSans-20" x="1526.318359"/>
    </g>
    <!--  avg_a = 912.223121851103diff = 5587.165568365458 -->
    <g transform="translate(66.999375 35.472)scale(0.12 -0.12)">
     <defs>
      <path id="DejaVuSans-37" d="M 525 4666 
L 3525 4666 
L 3525 4397 
L 1831 0 
L 1172 0 
L 2766 4134 
L 525 4134 
L 525 4666 
z
" transform="scale(0.015625)"/>
     </defs>
     <use xlink:href="#DejaVuSans-20"/>
     <use xlink:href="#DejaVuSans-61" x="31.787109"/>
     <use xlink:href="#DejaVuSans-76" x="93.066406"/>
     <use xlink:href="#DejaVuSans-67" x="152.246094"/>
     <use xlink:href="#DejaVuSans-5f" x="215.722656"/>
     <use xlink:href="#DejaVuSans-61" x="265.722656"/>
     <use xlink:href="#DejaVuSans-20" x="327.001953"/>
     <use xlink:href="#DejaVuSans-3d" x="358.789062"/>
     <use xlink:href="#DejaVuSans-20" x="442.578125"/>
     <use xlink:href="#DejaVuSans-39" x="474.365234"/>
     <use xlink:href="#DejaVuSans-31" x="537.988281"/>
     <use xlink:href="#DejaVuSans-32" x="601.611328"/>
     <use xlink:href="#DejaVuSans-2e" x="665.234375"/>
     <use xlink:href="#DejaVuSans-32" x="697.021484"/>
     <use xlink:href="#DejaVuSans-32" x="760.644531"/>
     <use xlink:href="#DejaVuSans-33" x="824.267578"/>
     <use xlink:href="#DejaVuSans-31" x="887.890625"/>
     <use xlink:href="#DejaVuSans-32" x="951.513672"/>
     <use xlink:href="#DejaVuSans-31" x="1015.136719"/>
     <use xlink:href="#DejaVuSans-38" x="1078.759766"/>
     <use xlink:href="#DejaVuSans-35" x="1142.382812"/>
     <use xlink:href="#DejaVuSans-31" x="1206.005859"/>
     <use xlink:href="#DejaVuSans-31" x="1269.628906"/>
     <use xlink:href="#DejaVuSans-30" x="1333.251953"/>
     <use xlink:href="#DejaVuSans-33" x="1396.875"/>
     <use xlink:href="#DejaVuSans-64" x="1460.498047"/>
     <use xlink:href="#DejaVuSans-69" x="1523.974609"/>
     <use xlink:href="#DejaVuSans-66" x="1551.757812"/>
     <use xlink:href="#DejaVuSans-66" x="1586.962891"/>
     <use xlink:href="#DejaVuSans-20" x="1622.167969"/>
     <use xlink:href="#DejaVuSans-3d" x="1653.955078"/>
     <use xlink:href="#DejaVuSans-20" x="1737.744141"/>
     <use xlink:href="#DejaVuSans-35" x="1769.53125"/>
     <use xlink:href="#DejaVuSans-35" x="1833.154297"/>
     <use xlink:href="#DejaVuSans-38" x="1896.777344"/>
     <use xlink:href="#DejaVuSans-37" x="1960.400391"/>
     <use xlink:href="#DejaVuSans-2e" x="2024.023438"/>
     <use xlink:href="#DejaVuSans-31" x="2055.810547"/>
     <use xlink:href="#DejaVuSans-36" x="2119.433594"/>
     <use xlink:href="#DejaVuSans-35" x="2183.056641"/>
     <use xlink:href="#DejaVuSans-35" x="2246.679688"/>
     <use xlink:href="#DejaVuSans-36" x="2310.302734"/>
     <use xlink:href="#DejaVuSans-38" x="2373.925781"/>
     <use xlink:href="#DejaVuSans-33" x="2437.548828"/>
     <use xlink:href="#DejaVuSans-36" x="2501.171875"/>
     <use xlink:href="#DejaVuSans-35" x="2564.794922"/>
     <use xlink:href="#DejaVuSans-34" x="2628.417969"/>
     <use xlink:href="#DejaVuSans-35" x="2692.041016"/>
     <use xlink:href="#DejaVuSans-38" x="2755.664062"/>
    </g>
   </g>
   <g id="legend_1">
    <g id="patch_7">
     <path d="M 64.6 78.82825 
L 208.43125 78.82825 
Q 210.43125 78.82825 210.43125 76.82825 
L 210.43125 48.472 
Q 210.43125 46.472 208.43125 46.472 
L 64.6 46.472 
Q 62.6 46.472 62.6 48.472 
L 62.6 76.82825 
Q 62.6 78.82825 64.6 78.82825 
z
" style="fill: #ffffff; opacity: 0.8; stroke: #cccccc; stroke-linejoin: miter"/>
    </g>
    <g id="line2d_15">
     <path d="M 66.6 54.570437 
L 76.6 54.570437 
L 86.6 54.570437 
" style="fill: none; stroke-dasharray: 2,3.3; stroke-dashoffset: 0; stroke: #0000ff; stroke-width: 2"/>
    </g>
    <g id="text_16">
     <!-- Average (Default) -->
     <g transform="translate(94.6 58.070437)scale(0.1 -0.1)">
      <defs>
       <path id="DejaVuSans-41" d="M 2188 4044 
L 1331 1722 
L 3047 1722 
L 2188 4044 
z
M 1831 4666 
L 2547 4666 
L 4325 0 
L 3669 0 
L 3244 1197 
L 1141 1197 
L 716 0 
L 50 0 
L 1831 4666 
z
" transform="scale(0.015625)"/>
       <path id="DejaVuSans-28" d="M 1984 4856 
Q 1566 4138 1362 3434 
Q 1159 2731 1159 2009 
Q 1159 1288 1364 580 
Q 1569 -128 1984 -844 
L 1484 -844 
Q 1016 -109 783 600 
Q 550 1309 550 2009 
Q 550 2706 781 3412 
Q 1013 4119 1484 4856 
L 1984 4856 
z
" transform="scale(0.015625)"/>
       <path id="DejaVuSans-44" d="M 1259 4147 
L 1259 519 
L 2022 519 
Q 2988 519 3436 956 
Q 3884 1394 3884 2338 
Q 3884 3275 3436 3711 
Q 2988 4147 2022 4147 
L 1259 4147 
z
M 628 4666 
L 1925 4666 
Q 3281 4666 3915 4102 
Q 4550 3538 4550 2338 
Q 4550 1131 3912 565 
Q 3275 0 1925 0 
L 628 0 
L 628 4666 
z
" transform="scale(0.015625)"/>
       <path id="DejaVuSans-29" d="M 513 4856 
L 1013 4856 
Q 1481 4119 1714 3412 
Q 1947 2706 1947 2009 
Q 1947 1309 1714 600 
Q 1481 -109 1013 -844 
L 513 -844 
Q 928 -128 1133 580 
Q 1338 1288 1338 2009 
Q 1338 2731 1133 3434 
Q 928 4138 513 4856 
z
" transform="scale(0.015625)"/>
      </defs>
      <use xlink:href="#DejaVuSans-41"/>
      <use xlink:href="#DejaVuSans-76" x="62.533203"/>
      <use xlink:href="#DejaVuSans-65" x="121.712891"/>
      <use xlink:href="#DejaVuSans-72" x="183.236328"/>
      <use xlink:href="#DejaVuSans-61" x="224.349609"/>
      <use xlink:href="#DejaVuSans-67" x="285.628906"/>
      <use xlink:href="#DejaVuSans-65" x="349.105469"/>
      <use xlink:href="#DejaVuSans-20" x="410.628906"/>
      <use xlink:href="#DejaVuSans-28" x="442.416016"/>
      <use xlink:href="#DejaVuSans-44" x="481.429688"/>
      <use xlink:href="#DejaVuSans-65" x="558.431641"/>
      <use xlink:href="#DejaVuSans-66" x="619.955078"/>
      <use xlink:href="#DejaVuSans-61" x="655.160156"/>
      <use xlink:href="#DejaVuSans-75" x="716.439453"/>
      <use xlink:href="#DejaVuSans-6c" x="779.818359"/>
      <use xlink:href="#DejaVuSans-74" x="807.601562"/>
      <use xlink:href="#DejaVuSans-29" x="846.810547"/>
     </g>
    </g>
    <g id="line2d_16">
     <path d="M 66.6 69.248562 
L 76.6 69.248562 
L 86.6 69.248562 
" style="fill: none; stroke-dasharray: 2,3.3; stroke-dashoffset: 0; stroke: #ffa500; stroke-width: 2"/>
    </g>
    <g id="text_17">
     <!-- Average (Anticipation) -->
     <g transform="translate(94.6 72.748562)scale(0.1 -0.1)">
      <defs>
       <path id="DejaVuSans-63" d="M 3122 3366 
L 3122 2828 
Q 2878 2963 2633 3030 
Q 2388 3097 2138 3097 
Q 1578 3097 1268 2742 
Q 959 2388 959 1747 
Q 959 1106 1268 751 
Q 1578 397 2138 397 
Q 2388 397 2633 464 
Q 2878 531 3122 666 
L 3122 134 
Q 2881 22 2623 -34 
Q 2366 -91 2075 -91 
Q 1284 -91 818 406 
Q 353 903 353 1747 
Q 353 2603 823 3093 
Q 1294 3584 2113 3584 
Q 2378 3584 2631 3529 
Q 2884 3475 3122 3366 
z
" transform="scale(0.015625)"/>
       <path id="DejaVuSans-70" d="M 1159 525 
L 1159 -1331 
L 581 -1331 
L 581 3500 
L 1159 3500 
L 1159 2969 
Q 1341 3281 1617 3432 
Q 1894 3584 2278 3584 
Q 2916 3584 3314 3078 
Q 3713 2572 3713 1747 
Q 3713 922 3314 415 
Q 2916 -91 2278 -91 
Q 1894 -91 1617 61 
Q 1341 213 1159 525 
z
M 3116 1747 
Q 3116 2381 2855 2742 
Q 2594 3103 2138 3103 
Q 1681 3103 1420 2742 
Q 1159 2381 1159 1747 
Q 1159 1113 1420 752 
Q 1681 391 2138 391 
Q 2594 391 2855 752 
Q 3116 1113 3116 1747 
z
" transform="scale(0.015625)"/>
      </defs>
      <use xlink:href="#DejaVuSans-41"/>
      <use xlink:href="#DejaVuSans-76" x="62.533203"/>
      <use xlink:href="#DejaVuSans-65" x="121.712891"/>
      <use xlink:href="#DejaVuSans-72" x="183.236328"/>
      <use xlink:href="#DejaVuSans-61" x="224.349609"/>
      <use xlink:href="#DejaVuSans-67" x="285.628906"/>
      <use xlink:href="#DejaVuSans-65" x="349.105469"/>
      <use xlink:href="#DejaVuSans-20" x="410.628906"/>
      <use xlink:href="#DejaVuSans-28" x="442.416016"/>
      <use xlink:href="#DejaVuSans-41" x="481.429688"/>
      <use xlink:href="#DejaVuSans-6e" x="549.837891"/>
      <use xlink:href="#DejaVuSans-74" x="613.216797"/>
      <use xlink:href="#DejaVuSans-69" x="652.425781"/>
      <use xlink:href="#DejaVuSans-63" x="680.208984"/>
      <use xlink:href="#DejaVuSans-69" x="735.189453"/>
      <use xlink:href="#DejaVuSans-70" x="762.972656"/>
      <use xlink:href="#DejaVuSans-61" x="826.449219"/>
      <use xlink:href="#DejaVuSans-74" x="887.728516"/>
      <use xlink:href="#DejaVuSans-69" x="926.9375"/>
      <use xlink:href="#DejaVuSans-6f" x="954.720703"/>
      <use xlink:href="#DejaVuSans-6e" x="1015.902344"/>
      <use xlink:href="#DejaVuSans-29" x="1079.28125"/>
     </g>
    </g>
   </g>
  </g>
 </g>
 <defs>
  <clipPath id="p4e4da58564">
   <rect x="57.6" y="41.472" width="357.12" height="266.112"/>
  </clipPath>
 </defs>
</svg>
