<?xml version="1.0" encoding="utf-8" standalone="no"?>
<!DOCTYPE svg PUBLIC "-//W3C//DTD SVG 1.1//EN"
  "http://www.w3.org/Graphics/SVG/1.1/DTD/svg11.dtd">
<svg xmlns:xlink="http://www.w3.org/1999/xlink" width="460.8pt" height="345.6pt" viewBox="0 0 460.8 345.6" xmlns="http://www.w3.org/2000/svg" version="1.1">
 <metadata>
  <rdf:RDF xmlns:dc="http://purl.org/dc/elements/1.1/" xmlns:cc="http://creativecommons.org/ns#" xmlns:rdf="http://www.w3.org/1999/02/22-rdf-syntax-ns#">
   <cc:Work>
    <dc:type rdf:resource="http://purl.org/dc/dcmitype/StillImage"/>
    <dc:date>2022-10-06T17:20:58.112168</dc:date>
    <dc:format>image/svg+xml</dc:format>
    <dc:creator>
     <cc:Agent>
      <dc:title>Matplotlib v3.5.3, https://matplotlib.org/</dc:title>
     </cc:Agent>
    </dc:creator>
   </cc:Work>
  </rdf:RDF>
 </metadata>
 <defs>
  <style type="text/css">*{stroke-linejoin: round; stroke-linecap: butt}</style>
 </defs>
 <g id="figure_1">
  <g id="patch_1">
   <path d="M 0 345.6 
L 460.8 345.6 
L 460.8 0 
L 0 0 
z
" style="fill: #ffffff"/>
  </g>
  <g id="axes_1">
   <g id="patch_2">
    <path d="M 57.6 307.584 
L 414.72 307.584 
L 414.72 41.472 
L 57.6 41.472 
z
" style="fill: #ffffff"/>
   </g>
   <g id="matplotlib.axis_1">
    <g id="xtick_1">
     <g id="line2d_1">
      <defs>
       <path id="mdc16eddf2a" d="M 0 0 
L 0 3.5 
" style="stroke: #000000; stroke-width: 0.8"/>
      </defs>
      <g>
       <use xlink:href="#mdc16eddf2a" x="73.832727" y="307.584" style="stroke: #000000; stroke-width: 0.8"/>
      </g>
     </g>
     <g id="text_1">
      <!-- 0 -->
      <g transform="translate(70.651477 322.182437)scale(0.1 -0.1)">
       <defs>
        <path id="DejaVuSans-30" d="M 2034 4250 
Q 1547 4250 1301 3770 
Q 1056 3291 1056 2328 
Q 1056 1369 1301 889 
Q 1547 409 2034 409 
Q 2525 409 2770 889 
Q 3016 1369 3016 2328 
Q 3016 3291 2770 3770 
Q 2525 4250 2034 4250 
z
M 2034 4750 
Q 2819 4750 3233 4129 
Q 3647 3509 3647 2328 
Q 3647 1150 3233 529 
Q 2819 -91 2034 -91 
Q 1250 -91 836 529 
Q 422 1150 422 2328 
Q 422 3509 836 4129 
Q 1250 4750 2034 4750 
z
" transform="scale(0.015625)"/>
       </defs>
       <use xlink:href="#DejaVuSans-30"/>
      </g>
     </g>
    </g>
    <g id="xtick_2">
     <g id="line2d_2">
      <g>
       <use xlink:href="#mdc16eddf2a" x="138.828632" y="307.584" style="stroke: #000000; stroke-width: 0.8"/>
      </g>
     </g>
     <g id="text_2">
      <!-- 200 -->
      <g transform="translate(129.284882 322.182437)scale(0.1 -0.1)">
       <defs>
        <path id="DejaVuSans-32" d="M 1228 531 
L 3431 531 
L 3431 0 
L 469 0 
L 469 531 
Q 828 903 1448 1529 
Q 2069 2156 2228 2338 
Q 2531 2678 2651 2914 
Q 2772 3150 2772 3378 
Q 2772 3750 2511 3984 
Q 2250 4219 1831 4219 
Q 1534 4219 1204 4116 
Q 875 4013 500 3803 
L 500 4441 
Q 881 4594 1212 4672 
Q 1544 4750 1819 4750 
Q 2544 4750 2975 4387 
Q 3406 4025 3406 3419 
Q 3406 3131 3298 2873 
Q 3191 2616 2906 2266 
Q 2828 2175 2409 1742 
Q 1991 1309 1228 531 
z
" transform="scale(0.015625)"/>
       </defs>
       <use xlink:href="#DejaVuSans-32"/>
       <use xlink:href="#DejaVuSans-30" x="63.623047"/>
       <use xlink:href="#DejaVuSans-30" x="127.246094"/>
      </g>
     </g>
    </g>
    <g id="xtick_3">
     <g id="line2d_3">
      <g>
       <use xlink:href="#mdc16eddf2a" x="203.824537" y="307.584" style="stroke: #000000; stroke-width: 0.8"/>
      </g>
     </g>
     <g id="text_3">
      <!-- 400 -->
      <g transform="translate(194.280787 322.182437)scale(0.1 -0.1)">
       <defs>
        <path id="DejaVuSans-34" d="M 2419 4116 
L 825 1625 
L 2419 1625 
L 2419 4116 
z
M 2253 4666 
L 3047 4666 
L 3047 1625 
L 3713 1625 
L 3713 1100 
L 3047 1100 
L 3047 0 
L 2419 0 
L 2419 1100 
L 313 1100 
L 313 1709 
L 2253 4666 
z
" transform="scale(0.015625)"/>
       </defs>
       <use xlink:href="#DejaVuSans-34"/>
       <use xlink:href="#DejaVuSans-30" x="63.623047"/>
       <use xlink:href="#DejaVuSans-30" x="127.246094"/>
      </g>
     </g>
    </g>
    <g id="xtick_4">
     <g id="line2d_4">
      <g>
       <use xlink:href="#mdc16eddf2a" x="268.820442" y="307.584" style="stroke: #000000; stroke-width: 0.8"/>
      </g>
     </g>
     <g id="text_4">
      <!-- 600 -->
      <g transform="translate(259.276692 322.182437)scale(0.1 -0.1)">
       <defs>
        <path id="DejaVuSans-36" d="M 2113 2584 
Q 1688 2584 1439 2293 
Q 1191 2003 1191 1497 
Q 1191 994 1439 701 
Q 1688 409 2113 409 
Q 2538 409 2786 701 
Q 3034 994 3034 1497 
Q 3034 2003 2786 2293 
Q 2538 2584 2113 2584 
z
M 3366 4563 
L 3366 3988 
Q 3128 4100 2886 4159 
Q 2644 4219 2406 4219 
Q 1781 4219 1451 3797 
Q 1122 3375 1075 2522 
Q 1259 2794 1537 2939 
Q 1816 3084 2150 3084 
Q 2853 3084 3261 2657 
Q 3669 2231 3669 1497 
Q 3669 778 3244 343 
Q 2819 -91 2113 -91 
Q 1303 -91 875 529 
Q 447 1150 447 2328 
Q 447 3434 972 4092 
Q 1497 4750 2381 4750 
Q 2619 4750 2861 4703 
Q 3103 4656 3366 4563 
z
" transform="scale(0.015625)"/>
       </defs>
       <use xlink:href="#DejaVuSans-36"/>
       <use xlink:href="#DejaVuSans-30" x="63.623047"/>
       <use xlink:href="#DejaVuSans-30" x="127.246094"/>
      </g>
     </g>
    </g>
    <g id="xtick_5">
     <g id="line2d_5">
      <g>
       <use xlink:href="#mdc16eddf2a" x="333.816347" y="307.584" style="stroke: #000000; stroke-width: 0.8"/>
      </g>
     </g>
     <g id="text_5">
      <!-- 800 -->
      <g transform="translate(324.272597 322.182437)scale(0.1 -0.1)">
       <defs>
        <path id="DejaVuSans-38" d="M 2034 2216 
Q 1584 2216 1326 1975 
Q 1069 1734 1069 1313 
Q 1069 891 1326 650 
Q 1584 409 2034 409 
Q 2484 409 2743 651 
Q 3003 894 3003 1313 
Q 3003 1734 2745 1975 
Q 2488 2216 2034 2216 
z
M 1403 2484 
Q 997 2584 770 2862 
Q 544 3141 544 3541 
Q 544 4100 942 4425 
Q 1341 4750 2034 4750 
Q 2731 4750 3128 4425 
Q 3525 4100 3525 3541 
Q 3525 3141 3298 2862 
Q 3072 2584 2669 2484 
Q 3125 2378 3379 2068 
Q 3634 1759 3634 1313 
Q 3634 634 3220 271 
Q 2806 -91 2034 -91 
Q 1263 -91 848 271 
Q 434 634 434 1313 
Q 434 1759 690 2068 
Q 947 2378 1403 2484 
z
M 1172 3481 
Q 1172 3119 1398 2916 
Q 1625 2713 2034 2713 
Q 2441 2713 2670 2916 
Q 2900 3119 2900 3481 
Q 2900 3844 2670 4047 
Q 2441 4250 2034 4250 
Q 1625 4250 1398 4047 
Q 1172 3844 1172 3481 
z
" transform="scale(0.015625)"/>
       </defs>
       <use xlink:href="#DejaVuSans-38"/>
       <use xlink:href="#DejaVuSans-30" x="63.623047"/>
       <use xlink:href="#DejaVuSans-30" x="127.246094"/>
      </g>
     </g>
    </g>
    <g id="xtick_6">
     <g id="line2d_6">
      <g>
       <use xlink:href="#mdc16eddf2a" x="398.812252" y="307.584" style="stroke: #000000; stroke-width: 0.8"/>
      </g>
     </g>
     <g id="text_6">
      <!-- 1000 -->
      <g transform="translate(386.087252 322.182437)scale(0.1 -0.1)">
       <defs>
        <path id="DejaVuSans-31" d="M 794 531 
L 1825 531 
L 1825 4091 
L 703 3866 
L 703 4441 
L 1819 4666 
L 2450 4666 
L 2450 531 
L 3481 531 
L 3481 0 
L 794 0 
L 794 531 
z
" transform="scale(0.015625)"/>
       </defs>
       <use xlink:href="#DejaVuSans-31"/>
       <use xlink:href="#DejaVuSans-30" x="63.623047"/>
       <use xlink:href="#DejaVuSans-30" x="127.246094"/>
       <use xlink:href="#DejaVuSans-30" x="190.869141"/>
      </g>
     </g>
    </g>
    <g id="text_7">
     <!-- Number of Orders -->
     <g transform="translate(191.261562 335.860562)scale(0.1 -0.1)">
      <defs>
       <path id="DejaVuSans-4e" d="M 628 4666 
L 1478 4666 
L 3547 763 
L 3547 4666 
L 4159 4666 
L 4159 0 
L 3309 0 
L 1241 3903 
L 1241 0 
L 628 0 
L 628 4666 
z
" transform="scale(0.015625)"/>
       <path id="DejaVuSans-75" d="M 544 1381 
L 544 3500 
L 1119 3500 
L 1119 1403 
Q 1119 906 1312 657 
Q 1506 409 1894 409 
Q 2359 409 2629 706 
Q 2900 1003 2900 1516 
L 2900 3500 
L 3475 3500 
L 3475 0 
L 2900 0 
L 2900 538 
Q 2691 219 2414 64 
Q 2138 -91 1772 -91 
Q 1169 -91 856 284 
Q 544 659 544 1381 
z
M 1991 3584 
L 1991 3584 
z
" transform="scale(0.015625)"/>
       <path id="DejaVuSans-6d" d="M 3328 2828 
Q 3544 3216 3844 3400 
Q 4144 3584 4550 3584 
Q 5097 3584 5394 3201 
Q 5691 2819 5691 2113 
L 5691 0 
L 5113 0 
L 5113 2094 
Q 5113 2597 4934 2840 
Q 4756 3084 4391 3084 
Q 3944 3084 3684 2787 
Q 3425 2491 3425 1978 
L 3425 0 
L 2847 0 
L 2847 2094 
Q 2847 2600 2669 2842 
Q 2491 3084 2119 3084 
Q 1678 3084 1418 2786 
Q 1159 2488 1159 1978 
L 1159 0 
L 581 0 
L 581 3500 
L 1159 3500 
L 1159 2956 
Q 1356 3278 1631 3431 
Q 1906 3584 2284 3584 
Q 2666 3584 2933 3390 
Q 3200 3197 3328 2828 
z
" transform="scale(0.015625)"/>
       <path id="DejaVuSans-62" d="M 3116 1747 
Q 3116 2381 2855 2742 
Q 2594 3103 2138 3103 
Q 1681 3103 1420 2742 
Q 1159 2381 1159 1747 
Q 1159 1113 1420 752 
Q 1681 391 2138 391 
Q 2594 391 2855 752 
Q 3116 1113 3116 1747 
z
M 1159 2969 
Q 1341 3281 1617 3432 
Q 1894 3584 2278 3584 
Q 2916 3584 3314 3078 
Q 3713 2572 3713 1747 
Q 3713 922 3314 415 
Q 2916 -91 2278 -91 
Q 1894 -91 1617 61 
Q 1341 213 1159 525 
L 1159 0 
L 581 0 
L 581 4863 
L 1159 4863 
L 1159 2969 
z
" transform="scale(0.015625)"/>
       <path id="DejaVuSans-65" d="M 3597 1894 
L 3597 1613 
L 953 1613 
Q 991 1019 1311 708 
Q 1631 397 2203 397 
Q 2534 397 2845 478 
Q 3156 559 3463 722 
L 3463 178 
Q 3153 47 2828 -22 
Q 2503 -91 2169 -91 
Q 1331 -91 842 396 
Q 353 884 353 1716 
Q 353 2575 817 3079 
Q 1281 3584 2069 3584 
Q 2775 3584 3186 3129 
Q 3597 2675 3597 1894 
z
M 3022 2063 
Q 3016 2534 2758 2815 
Q 2500 3097 2075 3097 
Q 1594 3097 1305 2825 
Q 1016 2553 972 2059 
L 3022 2063 
z
" transform="scale(0.015625)"/>
       <path id="DejaVuSans-72" d="M 2631 2963 
Q 2534 3019 2420 3045 
Q 2306 3072 2169 3072 
Q 1681 3072 1420 2755 
Q 1159 2438 1159 1844 
L 1159 0 
L 581 0 
L 581 3500 
L 1159 3500 
L 1159 2956 
Q 1341 3275 1631 3429 
Q 1922 3584 2338 3584 
Q 2397 3584 2469 3576 
Q 2541 3569 2628 3553 
L 2631 2963 
z
" transform="scale(0.015625)"/>
       <path id="DejaVuSans-20" transform="scale(0.015625)"/>
       <path id="DejaVuSans-6f" d="M 1959 3097 
Q 1497 3097 1228 2736 
Q 959 2375 959 1747 
Q 959 1119 1226 758 
Q 1494 397 1959 397 
Q 2419 397 2687 759 
Q 2956 1122 2956 1747 
Q 2956 2369 2687 2733 
Q 2419 3097 1959 3097 
z
M 1959 3584 
Q 2709 3584 3137 3096 
Q 3566 2609 3566 1747 
Q 3566 888 3137 398 
Q 2709 -91 1959 -91 
Q 1206 -91 779 398 
Q 353 888 353 1747 
Q 353 2609 779 3096 
Q 1206 3584 1959 3584 
z
" transform="scale(0.015625)"/>
       <path id="DejaVuSans-66" d="M 2375 4863 
L 2375 4384 
L 1825 4384 
Q 1516 4384 1395 4259 
Q 1275 4134 1275 3809 
L 1275 3500 
L 2222 3500 
L 2222 3053 
L 1275 3053 
L 1275 0 
L 697 0 
L 697 3053 
L 147 3053 
L 147 3500 
L 697 3500 
L 697 3744 
Q 697 4328 969 4595 
Q 1241 4863 1831 4863 
L 2375 4863 
z
" transform="scale(0.015625)"/>
       <path id="DejaVuSans-4f" d="M 2522 4238 
Q 1834 4238 1429 3725 
Q 1025 3213 1025 2328 
Q 1025 1447 1429 934 
Q 1834 422 2522 422 
Q 3209 422 3611 934 
Q 4013 1447 4013 2328 
Q 4013 3213 3611 3725 
Q 3209 4238 2522 4238 
z
M 2522 4750 
Q 3503 4750 4090 4092 
Q 4678 3434 4678 2328 
Q 4678 1225 4090 567 
Q 3503 -91 2522 -91 
Q 1538 -91 948 565 
Q 359 1222 359 2328 
Q 359 3434 948 4092 
Q 1538 4750 2522 4750 
z
" transform="scale(0.015625)"/>
       <path id="DejaVuSans-64" d="M 2906 2969 
L 2906 4863 
L 3481 4863 
L 3481 0 
L 2906 0 
L 2906 525 
Q 2725 213 2448 61 
Q 2172 -91 1784 -91 
Q 1150 -91 751 415 
Q 353 922 353 1747 
Q 353 2572 751 3078 
Q 1150 3584 1784 3584 
Q 2172 3584 2448 3432 
Q 2725 3281 2906 2969 
z
M 947 1747 
Q 947 1113 1208 752 
Q 1469 391 1925 391 
Q 2381 391 2643 752 
Q 2906 1113 2906 1747 
Q 2906 2381 2643 2742 
Q 2381 3103 1925 3103 
Q 1469 3103 1208 2742 
Q 947 2381 947 1747 
z
" transform="scale(0.015625)"/>
       <path id="DejaVuSans-73" d="M 2834 3397 
L 2834 2853 
Q 2591 2978 2328 3040 
Q 2066 3103 1784 3103 
Q 1356 3103 1142 2972 
Q 928 2841 928 2578 
Q 928 2378 1081 2264 
Q 1234 2150 1697 2047 
L 1894 2003 
Q 2506 1872 2764 1633 
Q 3022 1394 3022 966 
Q 3022 478 2636 193 
Q 2250 -91 1575 -91 
Q 1294 -91 989 -36 
Q 684 19 347 128 
L 347 722 
Q 666 556 975 473 
Q 1284 391 1588 391 
Q 1994 391 2212 530 
Q 2431 669 2431 922 
Q 2431 1156 2273 1281 
Q 2116 1406 1581 1522 
L 1381 1569 
Q 847 1681 609 1914 
Q 372 2147 372 2553 
Q 372 3047 722 3315 
Q 1072 3584 1716 3584 
Q 2034 3584 2315 3537 
Q 2597 3491 2834 3397 
z
" transform="scale(0.015625)"/>
      </defs>
      <use xlink:href="#DejaVuSans-4e"/>
      <use xlink:href="#DejaVuSans-75" x="74.804688"/>
      <use xlink:href="#DejaVuSans-6d" x="138.183594"/>
      <use xlink:href="#DejaVuSans-62" x="235.595703"/>
      <use xlink:href="#DejaVuSans-65" x="299.072266"/>
      <use xlink:href="#DejaVuSans-72" x="360.595703"/>
      <use xlink:href="#DejaVuSans-20" x="401.708984"/>
      <use xlink:href="#DejaVuSans-6f" x="433.496094"/>
      <use xlink:href="#DejaVuSans-66" x="494.677734"/>
      <use xlink:href="#DejaVuSans-20" x="529.882812"/>
      <use xlink:href="#DejaVuSans-4f" x="561.669922"/>
      <use xlink:href="#DejaVuSans-72" x="640.380859"/>
      <use xlink:href="#DejaVuSans-64" x="679.744141"/>
      <use xlink:href="#DejaVuSans-65" x="743.220703"/>
      <use xlink:href="#DejaVuSans-72" x="804.744141"/>
      <use xlink:href="#DejaVuSans-73" x="845.857422"/>
     </g>
    </g>
   </g>
   <g id="matplotlib.axis_2">
    <g id="ytick_1">
     <g id="line2d_7">
      <defs>
       <path id="m809c7ef255" d="M 0 0 
L -3.5 0 
" style="stroke: #000000; stroke-width: 0.8"/>
      </defs>
      <g>
       <use xlink:href="#m809c7ef255" x="57.6" y="305.266912" style="stroke: #000000; stroke-width: 0.8"/>
      </g>
     </g>
     <g id="text_8">
      <!-- 200 -->
      <g transform="translate(31.5125 309.06613)scale(0.1 -0.1)">
       <use xlink:href="#DejaVuSans-32"/>
       <use xlink:href="#DejaVuSans-30" x="63.623047"/>
       <use xlink:href="#DejaVuSans-30" x="127.246094"/>
      </g>
     </g>
    </g>
    <g id="ytick_2">
     <g id="line2d_8">
      <g>
       <use xlink:href="#m809c7ef255" x="57.6" y="267.116663" style="stroke: #000000; stroke-width: 0.8"/>
      </g>
     </g>
     <g id="text_9">
      <!-- 300 -->
      <g transform="translate(31.5125 270.915882)scale(0.1 -0.1)">
       <defs>
        <path id="DejaVuSans-33" d="M 2597 2516 
Q 3050 2419 3304 2112 
Q 3559 1806 3559 1356 
Q 3559 666 3084 287 
Q 2609 -91 1734 -91 
Q 1441 -91 1130 -33 
Q 819 25 488 141 
L 488 750 
Q 750 597 1062 519 
Q 1375 441 1716 441 
Q 2309 441 2620 675 
Q 2931 909 2931 1356 
Q 2931 1769 2642 2001 
Q 2353 2234 1838 2234 
L 1294 2234 
L 1294 2753 
L 1863 2753 
Q 2328 2753 2575 2939 
Q 2822 3125 2822 3475 
Q 2822 3834 2567 4026 
Q 2313 4219 1838 4219 
Q 1578 4219 1281 4162 
Q 984 4106 628 3988 
L 628 4550 
Q 988 4650 1302 4700 
Q 1616 4750 1894 4750 
Q 2613 4750 3031 4423 
Q 3450 4097 3450 3541 
Q 3450 3153 3228 2886 
Q 3006 2619 2597 2516 
z
" transform="scale(0.015625)"/>
       </defs>
       <use xlink:href="#DejaVuSans-33"/>
       <use xlink:href="#DejaVuSans-30" x="63.623047"/>
       <use xlink:href="#DejaVuSans-30" x="127.246094"/>
      </g>
     </g>
    </g>
    <g id="ytick_3">
     <g id="line2d_9">
      <g>
       <use xlink:href="#m809c7ef255" x="57.6" y="228.966414" style="stroke: #000000; stroke-width: 0.8"/>
      </g>
     </g>
     <g id="text_10">
      <!-- 400 -->
      <g transform="translate(31.5125 232.765633)scale(0.1 -0.1)">
       <use xlink:href="#DejaVuSans-34"/>
       <use xlink:href="#DejaVuSans-30" x="63.623047"/>
       <use xlink:href="#DejaVuSans-30" x="127.246094"/>
      </g>
     </g>
    </g>
    <g id="ytick_4">
     <g id="line2d_10">
      <g>
       <use xlink:href="#m809c7ef255" x="57.6" y="190.816166" style="stroke: #000000; stroke-width: 0.8"/>
      </g>
     </g>
     <g id="text_11">
      <!-- 500 -->
      <g transform="translate(31.5125 194.615384)scale(0.1 -0.1)">
       <defs>
        <path id="DejaVuSans-35" d="M 691 4666 
L 3169 4666 
L 3169 4134 
L 1269 4134 
L 1269 2991 
Q 1406 3038 1543 3061 
Q 1681 3084 1819 3084 
Q 2600 3084 3056 2656 
Q 3513 2228 3513 1497 
Q 3513 744 3044 326 
Q 2575 -91 1722 -91 
Q 1428 -91 1123 -41 
Q 819 9 494 109 
L 494 744 
Q 775 591 1075 516 
Q 1375 441 1709 441 
Q 2250 441 2565 725 
Q 2881 1009 2881 1497 
Q 2881 1984 2565 2268 
Q 2250 2553 1709 2553 
Q 1456 2553 1204 2497 
Q 953 2441 691 2322 
L 691 4666 
z
" transform="scale(0.015625)"/>
       </defs>
       <use xlink:href="#DejaVuSans-35"/>
       <use xlink:href="#DejaVuSans-30" x="63.623047"/>
       <use xlink:href="#DejaVuSans-30" x="127.246094"/>
      </g>
     </g>
    </g>
    <g id="ytick_5">
     <g id="line2d_11">
      <g>
       <use xlink:href="#m809c7ef255" x="57.6" y="152.665917" style="stroke: #000000; stroke-width: 0.8"/>
      </g>
     </g>
     <g id="text_12">
      <!-- 600 -->
      <g transform="translate(31.5125 156.465136)scale(0.1 -0.1)">
       <use xlink:href="#DejaVuSans-36"/>
       <use xlink:href="#DejaVuSans-30" x="63.623047"/>
       <use xlink:href="#DejaVuSans-30" x="127.246094"/>
      </g>
     </g>
    </g>
    <g id="ytick_6">
     <g id="line2d_12">
      <g>
       <use xlink:href="#m809c7ef255" x="57.6" y="114.515668" style="stroke: #000000; stroke-width: 0.8"/>
      </g>
     </g>
     <g id="text_13">
      <!-- 700 -->
      <g transform="translate(31.5125 118.314887)scale(0.1 -0.1)">
       <defs>
        <path id="DejaVuSans-37" d="M 525 4666 
L 3525 4666 
L 3525 4397 
L 1831 0 
L 1172 0 
L 2766 4134 
L 525 4134 
L 525 4666 
z
" transform="scale(0.015625)"/>
       </defs>
       <use xlink:href="#DejaVuSans-37"/>
       <use xlink:href="#DejaVuSans-30" x="63.623047"/>
       <use xlink:href="#DejaVuSans-30" x="127.246094"/>
      </g>
     </g>
    </g>
    <g id="ytick_7">
     <g id="line2d_13">
      <g>
       <use xlink:href="#m809c7ef255" x="57.6" y="76.36542" style="stroke: #000000; stroke-width: 0.8"/>
      </g>
     </g>
     <g id="text_14">
      <!-- 800 -->
      <g transform="translate(31.5125 80.164639)scale(0.1 -0.1)">
       <use xlink:href="#DejaVuSans-38"/>
       <use xlink:href="#DejaVuSans-30" x="63.623047"/>
       <use xlink:href="#DejaVuSans-30" x="127.246094"/>
      </g>
     </g>
    </g>
    <g id="text_15">
     <!-- Waiting Time/s -->
     <g transform="translate(25.432812 211.410031)rotate(-90)scale(0.1 -0.1)">
      <defs>
       <path id="DejaVuSans-57" d="M 213 4666 
L 850 4666 
L 1831 722 
L 2809 4666 
L 3519 4666 
L 4500 722 
L 5478 4666 
L 6119 4666 
L 4947 0 
L 4153 0 
L 3169 4050 
L 2175 0 
L 1381 0 
L 213 4666 
z
" transform="scale(0.015625)"/>
       <path id="DejaVuSans-61" d="M 2194 1759 
Q 1497 1759 1228 1600 
Q 959 1441 959 1056 
Q 959 750 1161 570 
Q 1363 391 1709 391 
Q 2188 391 2477 730 
Q 2766 1069 2766 1631 
L 2766 1759 
L 2194 1759 
z
M 3341 1997 
L 3341 0 
L 2766 0 
L 2766 531 
Q 2569 213 2275 61 
Q 1981 -91 1556 -91 
Q 1019 -91 701 211 
Q 384 513 384 1019 
Q 384 1609 779 1909 
Q 1175 2209 1959 2209 
L 2766 2209 
L 2766 2266 
Q 2766 2663 2505 2880 
Q 2244 3097 1772 3097 
Q 1472 3097 1187 3025 
Q 903 2953 641 2809 
L 641 3341 
Q 956 3463 1253 3523 
Q 1550 3584 1831 3584 
Q 2591 3584 2966 3190 
Q 3341 2797 3341 1997 
z
" transform="scale(0.015625)"/>
       <path id="DejaVuSans-69" d="M 603 3500 
L 1178 3500 
L 1178 0 
L 603 0 
L 603 3500 
z
M 603 4863 
L 1178 4863 
L 1178 4134 
L 603 4134 
L 603 4863 
z
" transform="scale(0.015625)"/>
       <path id="DejaVuSans-74" d="M 1172 4494 
L 1172 3500 
L 2356 3500 
L 2356 3053 
L 1172 3053 
L 1172 1153 
Q 1172 725 1289 603 
Q 1406 481 1766 481 
L 2356 481 
L 2356 0 
L 1766 0 
Q 1100 0 847 248 
Q 594 497 594 1153 
L 594 3053 
L 172 3053 
L 172 3500 
L 594 3500 
L 594 4494 
L 1172 4494 
z
" transform="scale(0.015625)"/>
       <path id="DejaVuSans-6e" d="M 3513 2113 
L 3513 0 
L 2938 0 
L 2938 2094 
Q 2938 2591 2744 2837 
Q 2550 3084 2163 3084 
Q 1697 3084 1428 2787 
Q 1159 2491 1159 1978 
L 1159 0 
L 581 0 
L 581 3500 
L 1159 3500 
L 1159 2956 
Q 1366 3272 1645 3428 
Q 1925 3584 2291 3584 
Q 2894 3584 3203 3211 
Q 3513 2838 3513 2113 
z
" transform="scale(0.015625)"/>
       <path id="DejaVuSans-67" d="M 2906 1791 
Q 2906 2416 2648 2759 
Q 2391 3103 1925 3103 
Q 1463 3103 1205 2759 
Q 947 2416 947 1791 
Q 947 1169 1205 825 
Q 1463 481 1925 481 
Q 2391 481 2648 825 
Q 2906 1169 2906 1791 
z
M 3481 434 
Q 3481 -459 3084 -895 
Q 2688 -1331 1869 -1331 
Q 1566 -1331 1297 -1286 
Q 1028 -1241 775 -1147 
L 775 -588 
Q 1028 -725 1275 -790 
Q 1522 -856 1778 -856 
Q 2344 -856 2625 -561 
Q 2906 -266 2906 331 
L 2906 616 
Q 2728 306 2450 153 
Q 2172 0 1784 0 
Q 1141 0 747 490 
Q 353 981 353 1791 
Q 353 2603 747 3093 
Q 1141 3584 1784 3584 
Q 2172 3584 2450 3431 
Q 2728 3278 2906 2969 
L 2906 3500 
L 3481 3500 
L 3481 434 
z
" transform="scale(0.015625)"/>
       <path id="DejaVuSans-54" d="M -19 4666 
L 3928 4666 
L 3928 4134 
L 2272 4134 
L 2272 0 
L 1638 0 
L 1638 4134 
L -19 4134 
L -19 4666 
z
" transform="scale(0.015625)"/>
       <path id="DejaVuSans-2f" d="M 1625 4666 
L 2156 4666 
L 531 -594 
L 0 -594 
L 1625 4666 
z
" transform="scale(0.015625)"/>
      </defs>
      <use xlink:href="#DejaVuSans-57"/>
      <use xlink:href="#DejaVuSans-61" x="92.501953"/>
      <use xlink:href="#DejaVuSans-69" x="153.78125"/>
      <use xlink:href="#DejaVuSans-74" x="181.564453"/>
      <use xlink:href="#DejaVuSans-69" x="220.773438"/>
      <use xlink:href="#DejaVuSans-6e" x="248.556641"/>
      <use xlink:href="#DejaVuSans-67" x="311.935547"/>
      <use xlink:href="#DejaVuSans-20" x="375.412109"/>
      <use xlink:href="#DejaVuSans-54" x="407.199219"/>
      <use xlink:href="#DejaVuSans-69" x="465.158203"/>
      <use xlink:href="#DejaVuSans-6d" x="492.941406"/>
      <use xlink:href="#DejaVuSans-65" x="590.353516"/>
      <use xlink:href="#DejaVuSans-2f" x="651.876953"/>
      <use xlink:href="#DejaVuSans-73" x="685.568359"/>
     </g>
    </g>
   </g>
   <g id="line2d_14">
    <path d="M 73.832727 295.488 
L 74.482686 235.899412 
L 74.807666 246.522011 
L 75.132645 244.850766 
L 75.457625 231.88233 
L 75.782604 232.314236 
L 76.107584 225.609746 
L 76.757543 185.774032 
L 77.082523 181.268587 
L 77.407502 178.64934 
L 77.732482 177.458985 
L 78.057461 170.738819 
L 78.382441 176.446089 
L 78.70742 174.447654 
L 79.0324 164.224088 
L 79.357379 163.215848 
L 79.682359 160.677425 
L 80.007338 159.930702 
L 80.332318 160.822586 
L 80.657297 157.617361 
L 80.982277 158.901567 
L 81.307256 163.448578 
L 81.632236 158.048375 
L 81.957215 162.571226 
L 82.282195 160.409726 
L 82.607174 161.155394 
L 82.932154 161.089692 
L 83.907093 153.179764 
L 84.232072 157.181064 
L 84.557052 155.342277 
L 84.882031 155.081731 
L 85.207011 158.341256 
L 85.53199 158.607775 
L 85.85697 157.27148 
L 86.506929 152.869414 
L 87.156888 150.966251 
L 87.481867 147.602689 
L 88.131826 152.291487 
L 88.456806 147.726485 
L 89.106765 145.910312 
L 89.431744 148.759644 
L 89.756724 148.296447 
L 90.081704 148.7504 
L 90.406683 147.530888 
L 90.731663 145.377961 
L 91.056642 147.736906 
L 91.381622 147.284725 
L 92.031581 144.570139 
L 92.35656 144.452847 
L 92.68154 144.650494 
L 93.006519 143.980567 
L 93.331499 140.583353 
L 93.656478 142.328328 
L 93.981458 140.420523 
L 94.306437 139.509444 
L 94.631417 139.322237 
L 94.956396 139.515012 
L 95.281376 140.12277 
L 95.606355 134.868365 
L 95.931335 135.504779 
L 96.256314 133.442132 
L 96.906274 132.27949 
L 97.231253 131.128213 
L 97.881212 133.024762 
L 98.206192 130.917223 
L 98.531171 130.229951 
L 98.856151 132.152136 
L 99.18113 131.413325 
L 99.50611 132.507248 
L 99.831089 132.393848 
L 100.156069 132.403917 
L 100.481048 130.915491 
L 100.806028 130.650609 
L 101.131007 131.201462 
L 101.455987 129.58321 
L 101.780966 130.282961 
L 102.755905 126.314643 
L 103.080885 127.182945 
L 103.405864 127.478471 
L 103.730844 126.819761 
L 104.055823 124.423362 
L 104.380803 124.999666 
L 104.705782 124.195555 
L 105.030762 124.493597 
L 105.355741 125.902505 
L 105.680721 122.814391 
L 106.33068 122.336738 
L 106.980639 123.18758 
L 107.305618 122.901214 
L 107.630598 123.243596 
L 107.955577 124.99742 
L 108.280557 122.572342 
L 108.605536 122.094995 
L 108.930516 122.622883 
L 109.255495 124.028934 
L 109.580475 123.654034 
L 109.905455 124.117973 
L 110.230434 123.868634 
L 110.880393 126.06216 
L 111.205373 125.697295 
L 111.530352 126.109343 
L 111.855332 126.118419 
L 112.180311 125.259665 
L 112.505291 125.458123 
L 113.15525 123.319683 
L 113.480229 123.503541 
L 113.805209 122.015033 
L 114.130188 121.429788 
L 114.455168 120.253014 
L 114.780147 120.501404 
L 115.105127 120.178907 
L 115.430106 120.396971 
L 116.080066 121.25404 
L 116.405045 120.628655 
L 116.730025 120.999961 
L 117.055004 121.201677 
L 117.379984 118.557034 
L 117.704963 119.090385 
L 118.029943 118.585159 
L 118.354922 119.814606 
L 118.679902 117.940112 
L 119.004881 117.324955 
L 119.329861 117.370712 
L 119.65484 117.908966 
L 119.97982 118.675807 
L 120.304799 118.407257 
L 120.629779 118.580468 
L 120.954758 117.626066 
L 121.279738 117.326982 
L 121.604717 118.399924 
L 121.929697 118.354034 
L 122.254676 117.983136 
L 122.579656 118.483467 
L 122.904636 117.95719 
L 123.229615 118.051504 
L 123.554595 118.799183 
L 123.879574 118.784917 
L 124.204554 117.609789 
L 124.529533 116.00501 
L 124.854513 115.54659 
L 125.179492 114.555597 
L 125.829451 116.507915 
L 126.154431 115.9646 
L 126.47941 115.077898 
L 127.129369 114.940028 
L 127.779328 116.103359 
L 128.104308 115.687116 
L 128.429287 114.956262 
L 128.754267 115.133317 
L 129.079247 115.151085 
L 129.404226 114.49076 
L 129.729206 114.625888 
L 130.054185 113.479502 
L 130.379165 113.086361 
L 130.704144 113.953278 
L 131.029124 113.763496 
L 131.679083 114.231097 
L 132.004062 113.600208 
L 132.329042 114.436201 
L 132.979001 115.476019 
L 133.30398 115.239656 
L 133.62896 115.171355 
L 133.953939 115.309916 
L 134.278919 115.215471 
L 134.603898 115.438416 
L 134.928878 116.274712 
L 135.253857 115.487184 
L 135.903817 116.894768 
L 136.228796 116.747736 
L 136.553776 116.74541 
L 136.878755 117.162586 
L 137.203735 116.389978 
L 137.528714 116.982948 
L 138.178673 116.239567 
L 138.503653 117.048513 
L 138.828632 116.838907 
L 139.153612 116.913078 
L 139.803571 115.932825 
L 140.12855 115.963994 
L 140.45353 116.309156 
L 140.778509 115.871812 
L 141.103489 116.006826 
L 141.428468 115.966884 
L 141.753448 116.47954 
L 142.078428 117.551578 
L 142.403407 117.168014 
L 142.728387 117.052299 
L 143.053366 117.144215 
L 143.703325 118.513635 
L 144.028305 118.925659 
L 144.353284 118.328757 
L 144.678264 118.215082 
L 145.003243 119.117385 
L 145.328223 118.859591 
L 145.653202 118.776547 
L 145.978182 119.497779 
L 146.303161 119.092196 
L 146.628141 118.210305 
L 146.95312 118.242548 
L 147.2781 118.037595 
L 147.603079 118.076706 
L 148.578018 120.522638 
L 148.902998 120.853518 
L 149.227977 120.719047 
L 149.552957 121.223318 
L 150.202916 120.372698 
L 150.527895 120.280485 
L 150.852875 119.480537 
L 151.177854 119.964341 
L 151.827813 120.029862 
L 152.152793 120.423449 
L 152.477772 120.572328 
L 153.127731 119.683778 
L 153.452711 119.765356 
L 153.77769 119.38538 
L 154.10267 119.201119 
L 154.427649 119.453661 
L 154.752629 119.338861 
L 155.077609 119.525133 
L 155.727568 117.231667 
L 156.052547 118.105762 
L 156.377527 118.081172 
L 156.702506 118.355516 
L 157.027486 118.95984 
L 157.352465 118.829597 
L 157.677445 117.685268 
L 158.002424 118.202833 
L 158.327404 118.013203 
L 158.652383 118.634456 
L 158.977363 118.916068 
L 159.302342 118.953086 
L 159.627322 118.526802 
L 159.952301 118.355938 
L 160.277281 118.314031 
L 160.60226 118.127036 
L 160.92724 118.186714 
L 161.252219 118.067375 
L 161.577199 118.597804 
L 161.902179 118.431358 
L 162.227158 118.856239 
L 162.552138 119.052352 
L 162.877117 119.596344 
L 163.202097 119.386138 
L 163.852056 120.45594 
L 164.177035 120.068739 
L 164.502015 120.254284 
L 164.826994 120.76205 
L 165.151974 120.516859 
L 165.476953 119.760332 
L 166.126912 119.005247 
L 166.451892 119.582113 
L 166.776871 119.417953 
L 167.101851 119.963615 
L 167.75181 119.985118 
L 168.07679 119.550775 
L 168.726749 120.725 
L 169.051728 120.268421 
L 169.376708 120.028305 
L 169.701687 119.555837 
L 170.026667 119.826432 
L 170.351646 119.884916 
L 171.001605 119.322754 
L 171.326585 119.039077 
L 171.651564 119.414041 
L 171.976544 119.296212 
L 172.301523 119.394095 
L 172.626503 119.810482 
L 172.951482 119.942612 
L 173.601441 119.78145 
L 174.2514 120.397888 
L 174.90136 119.52021 
L 175.226339 119.666408 
L 175.551319 119.94606 
L 175.876298 120.496456 
L 176.201278 120.429473 
L 176.526257 120.891466 
L 176.851237 120.541231 
L 177.176216 120.769696 
L 177.501196 121.337351 
L 177.826175 121.586943 
L 179.126093 121.463769 
L 179.451073 121.924697 
L 179.776052 121.42692 
L 180.101032 120.095094 
L 180.426011 120.32578 
L 180.750991 120.165687 
L 181.075971 119.844697 
L 181.40095 119.936429 
L 181.72593 120.157338 
L 182.050909 120.675161 
L 182.375889 120.482063 
L 183.025848 120.83849 
L 183.350827 120.462085 
L 184.000786 121.432388 
L 184.325766 121.793443 
L 184.650745 121.74233 
L 184.975725 122.113787 
L 185.300704 121.747034 
L 185.625684 121.798638 
L 186.275643 121.164138 
L 186.600622 121.447517 
L 186.925602 121.401787 
L 187.575561 122.31409 
L 187.900541 120.995607 
L 188.22552 120.637446 
L 188.5505 121.065074 
L 189.525438 120.198957 
L 190.175397 120.583015 
L 190.825356 119.886037 
L 191.150336 119.941195 
L 191.800295 119.499592 
L 192.125274 119.912298 
L 192.450254 119.68811 
L 192.775233 120.006638 
L 193.100213 120.143521 
L 193.425192 119.880066 
L 194.075152 119.791602 
L 194.400131 120.11519 
L 195.05009 120.027838 
L 195.37507 119.558222 
L 196.025029 119.630869 
L 196.350008 119.894541 
L 196.999967 119.511004 
L 197.324947 119.827358 
L 197.649926 119.971757 
L 198.299885 119.602163 
L 198.624865 119.803153 
L 198.949844 119.769093 
L 199.274824 119.584706 
L 199.599803 119.578065 
L 199.924783 119.741699 
L 200.249762 119.551808 
L 200.574742 119.918831 
L 201.224701 119.814798 
L 201.87466 119.244976 
L 202.524619 119.902483 
L 202.849599 119.997761 
L 203.174578 119.765566 
L 203.499558 119.978122 
L 203.824537 120.436706 
L 204.149517 120.106504 
L 204.474496 120.073879 
L 205.774414 119.000047 
L 206.099394 118.968188 
L 206.424373 118.634743 
L 206.749353 118.808323 
L 207.074333 118.456212 
L 207.724292 119.22817 
L 208.69923 118.945732 
L 209.02421 119.13659 
L 209.349189 118.823258 
L 209.674169 118.856838 
L 209.999148 118.66325 
L 210.324128 118.620215 
L 210.649107 118.445201 
L 210.974087 118.650186 
L 211.299066 117.838193 
L 212.274005 118.969346 
L 212.598984 118.970425 
L 212.923964 118.561315 
L 213.248943 118.612483 
L 213.573923 118.331673 
L 214.223882 117.293145 
L 214.548862 117.05258 
L 214.873841 116.964069 
L 215.198821 116.337771 
L 215.5238 116.216618 
L 215.84878 116.622834 
L 216.173759 116.452097 
L 216.498739 116.606651 
L 216.823718 116.136853 
L 217.798657 115.904702 
L 218.123636 116.076629 
L 218.448616 116.014198 
L 219.098575 115.266413 
L 219.423554 115.271482 
L 219.748534 115.698364 
L 220.073514 115.87705 
L 220.398493 115.581296 
L 221.048452 115.464439 
L 221.698411 116.091348 
L 222.34837 116.342626 
L 222.67335 115.920397 
L 222.998329 114.916659 
L 223.648288 114.525649 
L 223.973268 113.859441 
L 224.298247 113.929339 
L 224.623227 114.172657 
L 224.948206 113.867212 
L 225.598165 114.335487 
L 225.923145 114.132335 
L 226.248124 114.240782 
L 226.573104 113.994046 
L 226.898084 113.392981 
L 227.223063 113.385963 
L 227.548043 113.557351 
L 227.873022 113.393001 
L 228.522981 112.354241 
L 228.847961 112.399078 
L 229.17294 112.687753 
L 229.49792 112.374971 
L 229.822899 112.580674 
L 230.147879 112.60419 
L 230.797838 111.790091 
L 231.122817 111.882519 
L 231.447797 112.103951 
L 232.422735 111.980038 
L 232.747715 112.093072 
L 233.072695 112.368591 
L 233.397674 111.764921 
L 233.722654 111.548302 
L 234.047633 111.064754 
L 235.022572 111.469601 
L 235.347551 111.385525 
L 235.672531 111.529703 
L 235.99751 111.370678 
L 236.32249 111.539148 
L 236.647469 111.9708 
L 237.297428 111.913268 
L 237.622408 111.712772 
L 237.947387 111.917308 
L 238.272367 111.654906 
L 238.597346 111.612915 
L 238.922326 111.154333 
L 239.247305 110.977437 
L 239.572285 111.081782 
L 239.897265 111.304541 
L 240.222244 111.282647 
L 240.547224 110.659537 
L 241.197183 110.901248 
L 241.847142 110.6952 
L 242.172121 110.664582 
L 242.497101 110.934758 
L 243.14706 111.076699 
L 243.797019 111.439858 
L 244.446978 110.859389 
L 244.771957 111.077412 
L 245.096937 111.084766 
L 245.421916 110.875327 
L 246.396855 110.755085 
L 246.721835 111.007783 
L 247.046814 110.918241 
L 247.371794 111.011415 
L 247.696773 111.363484 
L 248.346732 111.172953 
L 248.996691 111.674431 
L 249.321671 111.756099 
L 249.97163 111.649063 
L 250.296609 111.924912 
L 250.621589 111.733986 
L 251.271548 112.172421 
L 251.596527 112.112536 
L 251.921507 112.307066 
L 252.246486 112.256711 
L 252.571466 112.474416 
L 252.896446 112.555897 
L 253.221425 112.294124 
L 253.871384 112.128467 
L 254.196364 111.772025 
L 254.521343 111.68832 
L 255.171302 111.905849 
L 255.496282 111.609704 
L 255.821261 111.566121 
L 256.146241 111.236247 
L 256.47122 111.555711 
L 257.771138 111.838814 
L 258.096118 111.596786 
L 258.421097 111.812058 
L 258.746077 111.693663 
L 259.396036 112.224645 
L 261.995872 111.994052 
L 262.645831 112.18718 
L 263.29579 112.378338 
L 263.945749 111.89276 
L 264.270729 112.073838 
L 264.595708 112.071627 
L 264.920688 111.923215 
L 265.570647 111.146651 
L 266.545586 110.97413 
L 267.195545 111.56288 
L 267.520524 111.712688 
L 268.170483 111.782673 
L 268.820442 111.78949 
L 269.145422 112.071017 
L 269.470401 112.062862 
L 270.44534 111.500784 
L 270.770319 111.804409 
L 271.095299 111.561813 
L 271.420278 111.590917 
L 271.745258 111.418766 
L 272.070238 111.381837 
L 272.720197 111.753111 
L 274.020115 111.883027 
L 274.345094 111.681148 
L 274.670074 111.778348 
L 274.995053 111.757422 
L 275.320033 111.469802 
L 275.969992 111.835065 
L 276.294971 111.575319 
L 276.94493 111.687983 
L 277.26991 111.926151 
L 277.594889 111.947493 
L 278.244848 112.240859 
L 278.569828 112.123581 
L 279.219787 112.253807 
L 279.544767 112.138814 
L 279.869746 112.310133 
L 280.194726 112.244808 
L 281.494644 111.564394 
L 282.144603 111.899719 
L 283.444521 111.956916 
L 283.7695 112.236307 
L 284.09448 112.227033 
L 284.419459 112.579554 
L 284.744439 112.556703 
L 285.069419 112.680093 
L 287.669255 112.620091 
L 288.319214 112.846033 
L 288.644193 112.79762 
L 288.969173 112.988755 
L 290.269091 112.503507 
L 290.59407 112.73609 
L 291.244029 112.775899 
L 291.569009 112.398233 
L 292.218968 112.172968 
L 292.543948 112.128774 
L 292.868927 112.231418 
L 293.193907 112.052916 
L 293.518886 112.100538 
L 294.168845 112.437681 
L 294.818804 112.419437 
L 295.143784 112.11977 
L 296.443702 111.89385 
L 297.41864 112.153263 
L 298.0686 111.889634 
L 299.368518 112.353714 
L 299.693497 112.322927 
L 300.993415 113.107432 
L 301.318395 113.027892 
L 302.293333 113.399981 
L 302.618313 113.230252 
L 302.943292 113.36389 
L 303.268272 113.357924 
L 303.593251 113.583673 
L 303.918231 113.468228 
L 304.56819 113.649286 
L 305.218149 113.310245 
L 305.543129 113.530538 
L 307.168026 113.724093 
L 307.493006 113.632041 
L 307.817985 113.689662 
L 308.142965 113.47314 
L 308.467944 113.458759 
L 310.092842 114.078393 
L 310.417821 113.826461 
L 311.067781 113.590315 
L 312.042719 113.889292 
L 312.367699 113.941202 
L 312.692678 113.849979 
L 313.342637 114.007082 
L 313.992596 113.786174 
L 314.317576 113.538618 
L 314.642555 113.604455 
L 314.967535 113.517118 
L 315.617494 113.733858 
L 315.942473 113.924583 
L 316.592432 113.775566 
L 316.917412 113.841451 
L 317.242391 113.784546 
L 317.567371 113.925668 
L 317.892351 113.9086 
L 318.54231 114.248996 
L 318.867289 114.297239 
L 320.167207 115.143484 
L 320.817166 115.131341 
L 321.142146 115.003187 
L 321.467125 115.110554 
L 321.792105 115.338071 
L 322.117084 115.080599 
L 323.092023 115.434733 
L 323.417002 115.190748 
L 324.066962 115.169135 
L 325.36688 114.336773 
L 325.691859 114.42597 
L 326.016839 114.381979 
L 326.341818 114.523223 
L 326.666798 114.534521 
L 326.991777 114.287134 
L 327.966716 114.632427 
L 328.291695 114.391218 
L 328.616675 114.496446 
L 328.941654 114.232698 
L 329.266634 114.32898 
L 329.591613 114.293265 
L 329.916593 114.466595 
L 330.241572 114.274607 
L 330.566552 114.413851 
L 331.216511 114.361292 
L 331.541491 114.212103 
L 332.516429 114.47869 
L 332.841409 114.228557 
L 333.491368 114.226987 
L 333.816347 114.206483 
L 334.141327 114.425452 
L 335.441245 113.961797 
L 336.091204 113.91656 
L 336.741163 114.042829 
L 338.366061 114.308623 
L 339.340999 114.301094 
L 339.665979 114.48783 
L 340.315938 114.272879 
L 341.290876 114.662433 
L 341.615856 114.564291 
L 343.565733 114.834623 
L 343.890713 114.799493 
L 344.215692 114.986051 
L 344.865651 114.776989 
L 345.51561 115.001781 
L 345.84059 114.965822 
L 346.165569 114.776183 
L 346.815528 115.128837 
L 347.465487 115.096079 
L 347.790467 115.039441 
L 348.115446 115.178552 
L 348.440426 115.171116 
L 348.765405 115.312769 
L 350.390303 115.332605 
L 351.040262 115.249593 
L 352.015201 115.410445 
L 353.315119 115.109248 
L 353.640098 115.285558 
L 354.615037 115.330894 
L 354.940016 115.495577 
L 356.239934 115.355281 
L 357.214873 115.515443 
L 357.539853 115.388445 
L 357.864832 115.490336 
L 358.514791 115.365982 
L 358.839771 115.129846 
L 359.16475 115.245157 
L 360.139689 115.024077 
L 361.114627 115.152333 
L 361.439607 115.331842 
L 362.089566 115.025927 
L 362.414545 115.118508 
L 362.739525 115.034114 
L 363.064505 115.130855 
L 363.389484 115.091733 
L 363.714464 115.224028 
L 364.039443 115.055838 
L 364.689402 114.997583 
L 365.014382 115.161768 
L 365.664341 114.965948 
L 366.3143 114.93757 
L 366.639279 115.036216 
L 366.964259 114.944291 
L 369.239115 115.038615 
L 369.889075 114.823794 
L 371.513972 115.192421 
L 371.838952 115.020135 
L 372.163931 115.090201 
L 372.81389 115.015179 
L 373.463849 115.364925 
L 374.113808 115.320631 
L 375.088747 115.539672 
L 375.413726 115.692943 
L 375.738706 115.686876 
L 376.713645 115.211677 
L 377.363604 114.950388 
L 378.338542 114.560116 
L 379.63846 114.18827 
L 379.96344 114.354593 
L 381.263358 114.128185 
L 381.588337 114.095527 
L 381.913317 114.183787 
L 382.238296 113.942437 
L 383.213235 113.800902 
L 383.538215 113.933618 
L 384.838133 113.920479 
L 385.163112 113.982278 
L 385.488092 113.809304 
L 386.78801 113.922534 
L 387.437969 113.656486 
L 387.762948 113.740696 
L 388.737887 113.507831 
L 389.062867 113.618536 
L 390.687764 113.364067 
L 391.337723 113.506044 
L 391.662703 113.461695 
L 392.312662 113.521041 
L 392.962621 113.289704 
L 394.262539 113.545808 
L 394.587518 113.464727 
L 394.912498 113.224702 
L 395.887437 113.267169 
L 396.212416 113.287522 
L 396.862375 113.096604 
L 397.837314 113.03487 
L 398.487273 112.653627 
L 398.487273 112.653627 
" clip-path="url(#p3bbeea015f)" style="fill: none; stroke-dasharray: 2,3.3; stroke-dashoffset: 0; stroke: #0000ff; stroke-width: 2"/>
   </g>
   <g id="line2d_15">
    <path d="M 73.832727 295.488 
L 74.482686 235.899412 
L 74.807666 246.522011 
L 75.132645 244.850766 
L 75.457625 231.88233 
L 75.782604 232.314236 
L 76.107584 225.609746 
L 76.757543 185.774032 
L 77.082523 181.268587 
L 77.407502 178.64934 
L 78.057461 190.114609 
L 78.70742 183.296102 
L 79.357379 165.162853 
L 79.682359 164.140754 
L 80.007338 161.720766 
L 80.982277 148.293559 
L 81.632236 156.040881 
L 81.957215 156.16431 
L 82.607174 149.940702 
L 82.932154 148.687531 
L 83.257133 145.91879 
L 83.582113 144.674386 
L 83.907093 147.032672 
L 84.232072 151.011187 
L 84.557052 151.258875 
L 84.882031 149.641829 
L 85.207011 149.077375 
L 85.53199 147.232772 
L 85.85697 150.602179 
L 86.181949 151.053468 
L 86.831908 142.762831 
L 87.156888 146.570881 
L 87.481867 145.17813 
L 87.806847 146.790921 
L 88.131826 145.596367 
L 88.456806 143.503581 
L 88.781785 143.683622 
L 89.431744 134.944294 
L 89.756724 133.515361 
L 90.406683 133.116476 
L 90.731663 134.326226 
L 91.056642 131.392403 
L 91.706601 133.665349 
L 92.35656 127.328988 
L 92.68154 124.475373 
L 93.006519 124.030977 
L 93.656478 122.412539 
L 93.981458 123.295571 
L 94.306437 121.663849 
L 94.631417 122.56494 
L 94.956396 119.775481 
L 95.281376 119.519821 
L 95.606355 119.972624 
L 95.931335 121.325719 
L 96.256314 119.899682 
L 96.581294 119.524045 
L 96.906274 118.844404 
L 97.231253 118.504561 
L 97.556233 120.6891 
L 97.881212 120.808757 
L 98.206192 119.380331 
L 98.531171 116.62131 
L 98.856151 118.764827 
L 99.18113 115.130176 
L 99.50611 114.222214 
L 100.156069 114.795404 
L 100.481048 114.579298 
L 100.806028 112.414255 
L 101.131007 112.742399 
L 101.455987 111.499715 
L 101.780966 107.918633 
L 102.105946 107.743762 
L 102.430925 107.72916 
L 102.755905 106.108543 
L 103.080885 106.11588 
L 103.405864 106.848784 
L 103.730844 105.167342 
L 104.055823 105.708145 
L 104.380803 103.249889 
L 104.705782 103.642393 
L 105.030762 103.303923 
L 105.680721 103.105901 
L 106.0057 101.79799 
L 106.33068 102.275373 
L 106.655659 102.22545 
L 106.980639 102.86201 
L 107.305618 102.125856 
L 107.630598 99.579541 
L 107.955577 101.364411 
L 108.280557 101.35764 
L 108.605536 102.328817 
L 108.930516 102.105521 
L 109.255495 98.318439 
L 109.905455 100.282241 
L 110.230434 101.848668 
L 110.555414 101.880394 
L 110.880393 101.600025 
L 111.205373 100.955501 
L 111.530352 101.066603 
L 111.855332 100.550756 
L 112.180311 101.643695 
L 112.505291 100.74953 
L 112.83027 100.187476 
L 113.15525 100.128267 
L 113.480229 101.284661 
L 113.805209 101.819377 
L 114.130188 101.557836 
L 114.455168 101.956572 
L 114.780147 100.669513 
L 115.105127 100.55028 
L 115.430106 101.320784 
L 115.755086 101.699843 
L 116.080066 102.475432 
L 116.730025 99.880875 
L 117.055004 99.366101 
L 117.379984 100.099061 
L 118.029943 99.489206 
L 118.354922 98.873909 
L 118.679902 97.406565 
L 119.004881 98.053034 
L 119.329861 98.252219 
L 119.65484 95.164443 
L 119.97982 94.80061 
L 120.304799 94.757829 
L 120.629779 94.844279 
L 120.954758 94.462818 
L 121.604717 94.231882 
L 121.929697 94.898334 
L 122.254676 94.756243 
L 122.579656 94.944382 
L 122.904636 95.79484 
L 123.229615 95.102088 
L 123.554595 95.056127 
L 123.879574 95.278815 
L 124.529533 93.746427 
L 124.854513 94.789044 
L 125.504472 94.006681 
L 125.829451 95.040108 
L 126.154431 94.500687 
L 126.47941 94.393533 
L 126.80439 92.015702 
L 127.129369 91.660985 
L 127.454349 92.439729 
L 127.779328 90.585611 
L 128.104308 90.418864 
L 128.429287 90.440656 
L 128.754267 90.68157 
L 129.079247 90.782122 
L 129.404226 91.302382 
L 129.729206 90.329966 
L 130.054185 91.333328 
L 130.379165 91.564331 
L 130.704144 91.094488 
L 131.029124 91.717706 
L 131.354103 91.994257 
L 131.679083 91.096984 
L 132.004062 91.193479 
L 132.329042 89.988284 
L 132.654021 88.013566 
L 132.979001 88.170253 
L 133.30398 87.623445 
L 133.953939 85.716111 
L 134.278919 86.451318 
L 134.603898 86.421416 
L 134.928878 86.917216 
L 135.253857 86.813948 
L 135.578837 86.205904 
L 135.903817 87.25071 
L 136.228796 87.400441 
L 136.553776 85.791734 
L 136.878755 85.975711 
L 137.203735 85.193544 
L 137.528714 84.953743 
L 137.853694 84.510766 
L 138.178673 84.496713 
L 138.503653 83.915953 
L 139.153612 83.117235 
L 139.478591 83.70496 
L 139.803571 83.890774 
L 140.12855 84.526368 
L 140.45353 84.72127 
L 140.778509 84.527373 
L 141.103489 84.716274 
L 142.078428 87.764699 
L 142.403407 87.162672 
L 142.728387 87.078522 
L 143.053366 86.539385 
L 143.378346 87.19166 
L 144.028305 86.131982 
L 144.353284 84.785809 
L 144.678264 84.799893 
L 145.003243 84.984881 
L 145.653202 84.17353 
L 146.303161 84.370177 
L 146.628141 84.887551 
L 146.95312 84.284718 
L 147.2781 84.477524 
L 147.603079 85.011089 
L 147.928059 85.869435 
L 148.578018 87.138877 
L 148.902998 88.028419 
L 149.227977 88.505055 
L 149.552957 88.45402 
L 149.877936 87.933029 
L 150.202916 88.537197 
L 150.527895 88.087239 
L 150.852875 87.362138 
L 151.177854 87.945743 
L 151.827813 85.868873 
L 152.152793 86.163571 
L 152.802752 85.6033 
L 153.452711 86.006688 
L 153.77769 85.330249 
L 154.10267 85.595519 
L 154.427649 84.781783 
L 155.077609 85.310876 
L 155.402588 86.155934 
L 155.727568 85.372385 
L 156.052547 85.105615 
L 156.377527 86.061219 
L 156.702506 86.531704 
L 157.027486 86.527134 
L 157.352465 86.656855 
L 157.677445 86.541169 
L 158.002424 86.845524 
L 158.327404 86.98554 
L 158.652383 86.507345 
L 159.627322 86.476923 
L 159.952301 85.503305 
L 160.277281 85.741912 
L 160.60226 85.30264 
L 160.92724 85.344716 
L 161.252219 84.876567 
L 161.577199 85.494763 
L 162.227158 86.121194 
L 162.877117 87.537132 
L 163.202097 87.870663 
L 163.527076 87.596479 
L 163.852056 88.215858 
L 164.502015 87.403239 
L 164.826994 86.548655 
L 165.476953 85.828351 
L 165.801933 84.904464 
L 166.126912 85.553106 
L 166.451892 85.427898 
L 166.776871 85.036987 
L 167.101851 85.817197 
L 167.42683 85.705489 
L 167.75181 85.433876 
L 168.07679 85.013103 
L 168.401769 84.878365 
L 168.726749 84.295502 
L 169.051728 84.70935 
L 169.376708 84.670766 
L 169.701687 84.446963 
L 170.026667 84.482518 
L 170.676626 85.490966 
L 171.001605 84.983374 
L 171.326585 85.658391 
L 171.651564 85.759706 
L 171.976544 86.341039 
L 172.626503 86.671595 
L 172.951482 86.508902 
L 173.276462 86.871037 
L 174.2514 85.729059 
L 174.57638 85.806244 
L 174.90136 86.037564 
L 175.226339 85.66129 
L 175.551319 86.271518 
L 175.876298 85.576832 
L 176.201278 86.207997 
L 176.851237 86.546453 
L 177.501196 86.752358 
L 177.826175 87.092664 
L 178.476134 85.816206 
L 179.126093 85.891674 
L 179.451073 86.268278 
L 179.776052 86.082749 
L 180.426011 85.28742 
L 180.750991 85.470108 
L 181.075971 86.123482 
L 181.72593 85.075363 
L 182.050909 84.175054 
L 182.375889 84.212666 
L 182.700868 84.613354 
L 183.025848 82.92453 
L 183.350827 82.480059 
L 183.675807 82.862852 
L 184.325766 82.393711 
L 184.975725 83.036742 
L 185.300704 82.601118 
L 185.950663 82.314182 
L 186.275643 81.900623 
L 186.925602 81.71926 
L 187.250581 82.124574 
L 187.575561 81.836051 
L 187.900541 82.186659 
L 188.22552 82.10064 
L 188.5505 81.709337 
L 188.875479 82.137522 
L 189.200459 82.348344 
L 189.525438 82.080025 
L 189.850418 82.385122 
L 190.175397 81.935216 
L 190.500377 82.313032 
L 190.825356 82.149631 
L 191.150336 82.695516 
L 191.475315 82.520851 
L 191.800295 82.55497 
L 192.125274 82.125234 
L 192.450254 82.292642 
L 193.100213 81.915868 
L 193.750172 82.157323 
L 194.075152 82.11425 
L 194.400131 81.852765 
L 195.05009 82.572321 
L 195.700049 83.221985 
L 196.350008 82.961463 
L 196.674988 82.257029 
L 197.649926 82.07028 
L 197.974906 81.758914 
L 198.624865 81.947262 
L 199.274824 82.843081 
L 199.599803 82.622011 
L 199.924783 82.241911 
L 200.249762 82.336526 
L 200.574742 81.94176 
L 201.224701 82.46935 
L 202.19964 81.627469 
L 202.524619 81.656621 
L 202.849599 81.447403 
L 203.174578 80.279876 
L 203.499558 79.563666 
L 203.824537 79.988167 
L 204.149517 80.214112 
L 204.474496 80.078483 
L 204.799476 80.145018 
L 205.124455 79.581542 
L 205.449435 79.651537 
L 205.774414 79.309643 
L 206.424373 79.009051 
L 206.749353 79.279279 
L 207.074333 78.920578 
L 207.724292 79.534535 
L 208.049271 79.510429 
L 209.349189 80.132297 
L 209.674169 79.927098 
L 209.999148 80.240237 
L 210.324128 79.604472 
L 211.299066 78.676565 
L 211.949025 79.191144 
L 212.274005 79.161548 
L 212.598984 79.255637 
L 213.573923 78.908204 
L 213.898903 79.344649 
L 214.223882 79.448735 
L 214.873841 79.985191 
L 215.198821 79.947138 
L 216.173759 80.999738 
L 216.498739 80.906078 
L 217.148698 79.638621 
L 217.798657 79.425399 
L 218.123636 78.905865 
L 218.448616 78.716109 
L 218.773595 79.061191 
L 219.098575 78.990327 
L 219.423554 78.057869 
L 219.748534 78.200155 
L 220.073514 78.598279 
L 220.398493 78.053288 
L 220.723473 77.79927 
L 221.048452 77.870913 
L 221.698411 77.645797 
L 222.023391 77.167164 
L 222.67335 76.950401 
L 222.998329 76.573234 
L 223.323309 76.517744 
L 223.648288 76.191574 
L 223.973268 76.437346 
L 224.298247 76.324099 
L 224.623227 75.881785 
L 224.948206 75.771085 
L 225.273186 75.515142 
L 225.598165 75.628009 
L 225.923145 75.44814 
L 226.248124 75.51445 
L 227.223063 75.368858 
L 227.548043 75.002687 
L 227.873022 74.889362 
L 228.198002 75.089232 
L 228.522981 74.31871 
L 228.847961 74.132036 
L 229.17294 73.792782 
L 229.49792 73.862936 
L 229.822899 73.521298 
L 230.147879 72.974966 
L 230.797838 73.584551 
L 231.447797 73.107435 
L 231.772776 73.358561 
L 232.097756 73.466607 
L 232.422735 72.872224 
L 233.072695 72.721141 
L 233.397674 72.792711 
L 233.722654 72.58231 
L 234.372613 72.494335 
L 234.697592 72.28298 
L 235.022572 72.797961 
L 235.347551 72.794619 
L 235.99751 71.795596 
L 236.32249 71.916491 
L 236.647469 71.905346 
L 237.297428 71.411589 
L 237.622408 71.427401 
L 238.272367 71.260174 
L 238.597346 71.289131 
L 238.922326 71.45787 
L 239.247305 71.333181 
L 239.572285 71.634466 
L 239.897265 71.664483 
L 240.222244 71.924236 
L 240.872203 72.080369 
L 241.197183 71.891901 
L 241.522162 71.979484 
L 241.847142 71.557104 
L 242.172121 71.43964 
L 242.497101 70.627511 
L 243.14706 70.757073 
L 243.472039 70.719504 
L 243.797019 70.495237 
L 244.121998 70.677478 
L 244.446978 70.394841 
L 244.771957 70.559263 
L 245.096937 70.132559 
L 245.421916 70.185878 
L 245.746896 69.783019 
L 246.396855 70.004176 
L 246.721835 69.974799 
L 247.371794 69.623987 
L 248.021753 70.041012 
L 248.346732 69.771165 
L 248.671712 70.107452 
L 248.996691 70.033979 
L 249.321671 70.102008 
L 249.64665 70.013613 
L 249.97163 69.800685 
L 250.296609 69.336857 
L 250.621589 69.51787 
L 250.946568 69.452587 
L 251.271548 69.676723 
L 251.596527 69.111445 
L 252.246486 69.040129 
L 252.896446 68.255596 
L 253.871384 68.139168 
L 255.496282 68.462825 
L 255.821261 68.691642 
L 256.146241 68.284744 
L 256.47122 68.084868 
L 257.121179 68.63647 
L 257.771138 67.669069 
L 258.421097 67.941078 
L 259.071057 68.075423 
L 259.396036 67.80028 
L 260.045995 67.995174 
L 260.370975 67.95185 
L 260.695954 67.740395 
L 261.345913 67.809834 
L 261.670893 67.282101 
L 261.995872 67.088983 
L 262.645831 67.271496 
L 263.29579 66.61222 
L 263.62077 66.802353 
L 263.945749 66.370693 
L 264.270729 66.832122 
L 264.595708 67.025037 
L 265.245667 66.929098 
L 265.570647 66.732446 
L 265.895627 66.692638 
L 266.220606 66.791935 
L 266.545586 66.763555 
L 266.870565 66.616736 
L 267.195545 66.596289 
L 267.520524 66.446476 
L 267.845504 66.542562 
L 268.170483 66.016454 
L 268.495463 66.081736 
L 269.145422 65.56892 
L 269.470401 65.667701 
L 270.12036 65.523191 
L 270.770319 65.738838 
L 271.420278 64.889398 
L 271.745258 64.936718 
L 272.070238 64.725874 
L 272.395217 65.09145 
L 272.720197 65.056871 
L 273.045176 64.745334 
L 273.370156 64.984397 
L 274.995053 65.283999 
L 275.320033 64.992217 
L 276.294971 64.917369 
L 276.619951 65.154242 
L 277.594889 65.11677 
L 277.919869 64.595302 
L 278.894808 64.477709 
L 279.219787 64.049506 
L 279.544767 63.827597 
L 280.194726 63.943244 
L 280.519705 64.321282 
L 281.819623 64.693377 
L 282.144603 64.407488 
L 282.794562 64.299087 
L 283.444521 64.610059 
L 283.7695 64.568193 
L 284.09448 64.691096 
L 284.419459 64.66595 
L 284.744439 64.969441 
L 285.069419 65.096543 
L 285.394398 64.964898 
L 285.719378 64.442538 
L 286.044357 64.751008 
L 286.694316 64.910765 
L 287.019296 64.934944 
L 287.344275 64.679365 
L 287.994234 64.461381 
L 288.319214 64.263465 
L 288.644193 64.562056 
L 288.969173 64.641462 
L 289.294152 64.931645 
L 289.619132 64.854479 
L 289.944111 65.017586 
L 290.269091 64.949633 
L 290.59407 64.998747 
L 290.91905 64.75014 
L 291.244029 64.714426 
L 291.569009 64.799836 
L 291.893989 65.134286 
L 292.218968 65.120214 
L 292.543948 65.326473 
L 293.193907 64.938873 
L 293.518886 64.99593 
L 294.818804 65.735279 
L 295.468763 65.084155 
L 296.118722 65.19002 
L 296.443702 65.332301 
L 296.768681 65.153036 
L 297.093661 64.777751 
L 297.41864 64.78706 
L 298.0686 64.454757 
L 299.043538 65.041691 
L 299.693497 65.360027 
L 300.668436 64.261445 
L 301.318395 64.372981 
L 301.643374 64.174762 
L 301.968354 64.204455 
L 302.293333 64.044821 
L 303.918231 64.163021 
L 304.24321 64.437476 
L 305.543129 64.788047 
L 306.518067 64.468141 
L 306.843047 64.180367 
L 307.168026 64.348756 
L 308.467944 64.202059 
L 308.792924 64.112793 
L 309.117903 64.244831 
L 309.442883 63.752438 
L 309.767862 63.693464 
L 310.092842 63.930402 
L 310.742801 63.492483 
L 311.067781 63.490001 
L 311.39276 63.039087 
L 312.367699 63.474518 
L 314.642555 63.609254 
L 314.967535 63.378073 
L 315.292514 63.298125 
L 315.942473 63.884056 
L 316.267453 64.058944 
L 316.592432 63.810404 
L 317.242391 63.753961 
L 317.567371 63.305323 
L 317.892351 63.295384 
L 318.54231 62.946428 
L 318.867289 63.085377 
L 319.192269 63.355021 
L 320.167207 63.374354 
L 320.492187 62.946293 
L 320.817166 62.717517 
L 321.142146 62.978381 
L 321.792105 63.150681 
L 322.767043 63.274025 
L 323.092023 63.453951 
L 323.417002 63.170578 
L 323.741982 63.210153 
L 324.066962 63.126215 
L 324.391941 63.349807 
L 325.36688 63.460389 
L 325.691859 63.337972 
L 326.016839 62.964904 
L 326.341818 62.955131 
L 326.666798 62.820512 
L 327.316757 62.891187 
L 327.641736 63.147563 
L 327.966716 62.740541 
L 328.291695 62.980732 
L 328.616675 62.622082 
L 328.941654 62.689586 
L 329.266634 62.131507 
L 329.591613 62.274474 
L 329.916593 62.10044 
L 330.241572 61.667604 
L 330.566552 61.466769 
L 331.216511 61.570032 
L 331.541491 61.170417 
L 332.19145 61.191143 
L 332.516429 61.444976 
L 332.841409 61.411712 
L 333.166388 61.585924 
L 333.816347 61.207673 
L 334.141327 61.425308 
L 334.466306 61.482139 
L 334.791286 61.324732 
L 335.116265 61.311787 
L 335.441245 61.070799 
L 335.766224 61.185493 
L 336.091204 61.09617 
L 336.416183 61.190988 
L 336.741163 61.156573 
L 337.066143 60.812368 
L 337.716102 60.915167 
L 338.041081 60.687774 
L 338.366061 60.694661 
L 338.69104 60.892804 
L 339.01602 60.882572 
L 339.340999 60.699043 
L 339.665979 60.922939 
L 339.990958 60.966996 
L 340.315938 61.188519 
L 340.640917 60.92566 
L 341.290876 60.967787 
L 341.615856 60.708647 
L 341.940835 60.631218 
L 342.590794 60.913177 
L 342.915774 61.136521 
L 343.565733 60.891432 
L 344.215692 61.045472 
L 344.865651 60.949178 
L 345.190631 61.066017 
L 345.51561 60.849177 
L 346.490549 61.503146 
L 346.815528 61.346872 
L 347.465487 61.50905 
L 347.790467 61.029943 
L 348.440426 60.542033 
L 348.765405 60.646826 
L 349.090385 60.62333 
L 349.415364 60.39542 
L 350.390303 60.21609 
L 350.715283 60.400857 
L 351.040262 60.334415 
L 351.365242 59.869464 
L 351.690221 59.677108 
L 352.66516 59.951412 
L 353.315119 59.867477 
L 353.640098 59.661242 
L 354.290057 59.612539 
L 354.615037 59.41823 
L 355.589975 59.434248 
L 355.914955 59.24018 
L 356.239934 59.519917 
L 357.214873 59.897408 
L 357.539853 59.658999 
L 357.864832 59.651056 
L 358.189812 59.764256 
L 359.16475 59.361247 
L 359.814709 59.402966 
L 360.789648 59.118343 
L 361.114627 59.272326 
L 361.764586 59.212522 
L 362.089566 58.926645 
L 362.414545 58.981168 
L 362.739525 58.763496 
L 363.389484 58.72521 
L 363.714464 58.490513 
L 364.039443 58.466226 
L 364.364423 58.285345 
L 365.014382 58.302006 
L 365.339361 58.425824 
L 365.664341 58.305872 
L 365.98932 58.548795 
L 366.639279 58.296613 
L 366.964259 57.824941 
L 367.289238 57.878567 
L 367.614218 57.6551 
L 368.264177 57.542811 
L 368.589156 57.146036 
L 369.564095 57.126365 
L 369.889075 57.333141 
L 370.539034 57.39916 
L 370.864013 57.556104 
L 371.513972 57.394601 
L 372.488911 57.184666 
L 373.13887 57.194365 
L 373.463849 56.958379 
L 373.788829 56.973661 
L 374.113808 56.706619 
L 375.088747 56.819634 
L 375.413726 56.395765 
L 375.738706 56.491926 
L 376.063686 56.45828 
L 376.388665 56.24184 
L 376.713645 56.232757 
L 377.363604 56.032405 
L 377.688583 56.000601 
L 378.338542 55.623783 
L 378.663522 55.865812 
L 379.313481 55.83933 
L 379.63846 55.52228 
L 379.96344 55.543699 
L 380.288419 55.694452 
L 380.613399 55.558295 
L 381.588337 55.654889 
L 381.913317 55.74294 
L 382.238296 55.996472 
L 382.563276 55.80359 
L 382.888256 55.998597 
L 383.863194 56.020924 
L 384.188174 55.68598 
L 384.838133 55.468572 
L 385.488092 55.53774 
L 386.138051 55.31938 
L 386.78801 54.880301 
L 387.437969 54.944394 
L 387.762948 55.038515 
L 388.087928 54.816634 
L 388.412907 54.92127 
L 388.737887 54.79574 
L 389.062867 54.830701 
L 389.387846 55.018222 
L 390.037805 55.098917 
L 390.362785 54.795181 
L 390.687764 54.890136 
L 391.337723 54.721863 
L 391.987682 54.566898 
L 392.637641 55.00451 
L 392.962621 54.86242 
L 393.937559 54.96352 
L 394.262539 54.612105 
L 394.912498 54.728014 
L 396.537396 54.516931 
L 396.862375 54.341371 
L 397.512334 54.143566 
L 398.162293 53.87493 
L 398.487273 53.568 
L 398.487273 53.568 
" clip-path="url(#p3bbeea015f)" style="fill: none; stroke-dasharray: 2,3.3; stroke-dashoffset: 0; stroke: #ffa500; stroke-width: 2"/>
   </g>
   <g id="patch_3">
    <path d="M 57.6 307.584 
L 57.6 41.472 
" style="fill: none; stroke: #000000; stroke-width: 0.8; stroke-linejoin: miter; stroke-linecap: square"/>
   </g>
   <g id="patch_4">
    <path d="M 414.72 307.584 
L 414.72 41.472 
" style="fill: none; stroke: #000000; stroke-width: 0.8; stroke-linejoin: miter; stroke-linecap: square"/>
   </g>
   <g id="patch_5">
    <path d="M 57.6 307.584 
L 414.72 307.584 
" style="fill: none; stroke: #000000; stroke-width: 0.8; stroke-linejoin: miter; stroke-linecap: square"/>
   </g>
   <g id="patch_6">
    <path d="M 57.6 41.472 
L 414.72 41.472 
" style="fill: none; stroke: #000000; stroke-width: 0.8; stroke-linejoin: miter; stroke-linecap: square"/>
   </g>
   <g id="text_16">
    <!-- Waiting Time Plot -->
    <g transform="translate(183.833438 8.2635)scale(0.12 -0.12)">
     <defs>
      <path id="DejaVuSans-50" d="M 1259 4147 
L 1259 2394 
L 2053 2394 
Q 2494 2394 2734 2622 
Q 2975 2850 2975 3272 
Q 2975 3691 2734 3919 
Q 2494 4147 2053 4147 
L 1259 4147 
z
M 628 4666 
L 2053 4666 
Q 2838 4666 3239 4311 
Q 3641 3956 3641 3272 
Q 3641 2581 3239 2228 
Q 2838 1875 2053 1875 
L 1259 1875 
L 1259 0 
L 628 0 
L 628 4666 
z
" transform="scale(0.015625)"/>
      <path id="DejaVuSans-6c" d="M 603 4863 
L 1178 4863 
L 1178 0 
L 603 0 
L 603 4863 
z
" transform="scale(0.015625)"/>
     </defs>
     <use xlink:href="#DejaVuSans-57"/>
     <use xlink:href="#DejaVuSans-61" x="92.501953"/>
     <use xlink:href="#DejaVuSans-69" x="153.78125"/>
     <use xlink:href="#DejaVuSans-74" x="181.564453"/>
     <use xlink:href="#DejaVuSans-69" x="220.773438"/>
     <use xlink:href="#DejaVuSans-6e" x="248.556641"/>
     <use xlink:href="#DejaVuSans-67" x="311.935547"/>
     <use xlink:href="#DejaVuSans-20" x="375.412109"/>
     <use xlink:href="#DejaVuSans-54" x="407.199219"/>
     <use xlink:href="#DejaVuSans-69" x="465.158203"/>
     <use xlink:href="#DejaVuSans-6d" x="492.941406"/>
     <use xlink:href="#DejaVuSans-65" x="590.353516"/>
     <use xlink:href="#DejaVuSans-20" x="651.876953"/>
     <use xlink:href="#DejaVuSans-50" x="683.664062"/>
     <use xlink:href="#DejaVuSans-6c" x="743.966797"/>
     <use xlink:href="#DejaVuSans-6f" x="771.75"/>
     <use xlink:href="#DejaVuSans-74" x="832.931641"/>
    </g>
    <!--  avg_d = 704.8808107360771  -->
    <g transform="translate(142.671562 21.700875)scale(0.12 -0.12)">
     <defs>
      <path id="DejaVuSans-76" d="M 191 3500 
L 800 3500 
L 1894 563 
L 2988 3500 
L 3597 3500 
L 2284 0 
L 1503 0 
L 191 3500 
z
" transform="scale(0.015625)"/>
      <path id="DejaVuSans-5f" d="M 3263 -1063 
L 3263 -1509 
L -63 -1509 
L -63 -1063 
L 3263 -1063 
z
" transform="scale(0.015625)"/>
      <path id="DejaVuSans-3d" d="M 678 2906 
L 4684 2906 
L 4684 2381 
L 678 2381 
L 678 2906 
z
M 678 1631 
L 4684 1631 
L 4684 1100 
L 678 1100 
L 678 1631 
z
" transform="scale(0.015625)"/>
      <path id="DejaVuSans-2e" d="M 684 794 
L 1344 794 
L 1344 0 
L 684 0 
L 684 794 
z
" transform="scale(0.015625)"/>
     </defs>
     <use xlink:href="#DejaVuSans-20"/>
     <use xlink:href="#DejaVuSans-61" x="31.787109"/>
     <use xlink:href="#DejaVuSans-76" x="93.066406"/>
     <use xlink:href="#DejaVuSans-67" x="152.246094"/>
     <use xlink:href="#DejaVuSans-5f" x="215.722656"/>
     <use xlink:href="#DejaVuSans-64" x="265.722656"/>
     <use xlink:href="#DejaVuSans-20" x="329.199219"/>
     <use xlink:href="#DejaVuSans-3d" x="360.986328"/>
     <use xlink:href="#DejaVuSans-20" x="444.775391"/>
     <use xlink:href="#DejaVuSans-37" x="476.5625"/>
     <use xlink:href="#DejaVuSans-30" x="540.185547"/>
     <use xlink:href="#DejaVuSans-34" x="603.808594"/>
     <use xlink:href="#DejaVuSans-2e" x="667.431641"/>
     <use xlink:href="#DejaVuSans-38" x="699.21875"/>
     <use xlink:href="#DejaVuSans-38" x="762.841797"/>
     <use xlink:href="#DejaVuSans-30" x="826.464844"/>
     <use xlink:href="#DejaVuSans-38" x="890.087891"/>
     <use xlink:href="#DejaVuSans-31" x="953.710938"/>
     <use xlink:href="#DejaVuSans-30" x="1017.333984"/>
     <use xlink:href="#DejaVuSans-37" x="1080.957031"/>
     <use xlink:href="#DejaVuSans-33" x="1144.580078"/>
     <use xlink:href="#DejaVuSans-36" x="1208.203125"/>
     <use xlink:href="#DejaVuSans-30" x="1271.826172"/>
     <use xlink:href="#DejaVuSans-37" x="1335.449219"/>
     <use xlink:href="#DejaVuSans-37" x="1399.072266"/>
     <use xlink:href="#DejaVuSans-31" x="1462.695312"/>
     <use xlink:href="#DejaVuSans-20" x="1526.318359"/>
    </g>
    <!--  avg_a = 859.7569364555442diff = -154.87612571946704 -->
    <g transform="translate(57.199688 35.472)scale(0.12 -0.12)">
     <defs>
      <path id="DejaVuSans-39" d="M 703 97 
L 703 672 
Q 941 559 1184 500 
Q 1428 441 1663 441 
Q 2288 441 2617 861 
Q 2947 1281 2994 2138 
Q 2813 1869 2534 1725 
Q 2256 1581 1919 1581 
Q 1219 1581 811 2004 
Q 403 2428 403 3163 
Q 403 3881 828 4315 
Q 1253 4750 1959 4750 
Q 2769 4750 3195 4129 
Q 3622 3509 3622 2328 
Q 3622 1225 3098 567 
Q 2575 -91 1691 -91 
Q 1453 -91 1209 -44 
Q 966 3 703 97 
z
M 1959 2075 
Q 2384 2075 2632 2365 
Q 2881 2656 2881 3163 
Q 2881 3666 2632 3958 
Q 2384 4250 1959 4250 
Q 1534 4250 1286 3958 
Q 1038 3666 1038 3163 
Q 1038 2656 1286 2365 
Q 1534 2075 1959 2075 
z
" transform="scale(0.015625)"/>
      <path id="DejaVuSans-2d" d="M 313 2009 
L 1997 2009 
L 1997 1497 
L 313 1497 
L 313 2009 
z
" transform="scale(0.015625)"/>
     </defs>
     <use xlink:href="#DejaVuSans-20"/>
     <use xlink:href="#DejaVuSans-61" x="31.787109"/>
     <use xlink:href="#DejaVuSans-76" x="93.066406"/>
     <use xlink:href="#DejaVuSans-67" x="152.246094"/>
     <use xlink:href="#DejaVuSans-5f" x="215.722656"/>
     <use xlink:href="#DejaVuSans-61" x="265.722656"/>
     <use xlink:href="#DejaVuSans-20" x="327.001953"/>
     <use xlink:href="#DejaVuSans-3d" x="358.789062"/>
     <use xlink:href="#DejaVuSans-20" x="442.578125"/>
     <use xlink:href="#DejaVuSans-38" x="474.365234"/>
     <use xlink:href="#DejaVuSans-35" x="537.988281"/>
     <use xlink:href="#DejaVuSans-39" x="601.611328"/>
     <use xlink:href="#DejaVuSans-2e" x="665.234375"/>
     <use xlink:href="#DejaVuSans-37" x="697.021484"/>
     <use xlink:href="#DejaVuSans-35" x="760.644531"/>
     <use xlink:href="#DejaVuSans-36" x="824.267578"/>
     <use xlink:href="#DejaVuSans-39" x="887.890625"/>
     <use xlink:href="#DejaVuSans-33" x="951.513672"/>
     <use xlink:href="#DejaVuSans-36" x="1015.136719"/>
     <use xlink:href="#DejaVuSans-34" x="1078.759766"/>
     <use xlink:href="#DejaVuSans-35" x="1142.382812"/>
     <use xlink:href="#DejaVuSans-35" x="1206.005859"/>
     <use xlink:href="#DejaVuSans-35" x="1269.628906"/>
     <use xlink:href="#DejaVuSans-34" x="1333.251953"/>
     <use xlink:href="#DejaVuSans-34" x="1396.875"/>
     <use xlink:href="#DejaVuSans-32" x="1460.498047"/>
     <use xlink:href="#DejaVuSans-64" x="1524.121094"/>
     <use xlink:href="#DejaVuSans-69" x="1587.597656"/>
     <use xlink:href="#DejaVuSans-66" x="1615.380859"/>
     <use xlink:href="#DejaVuSans-66" x="1650.585938"/>
     <use xlink:href="#DejaVuSans-20" x="1685.791016"/>
     <use xlink:href="#DejaVuSans-3d" x="1717.578125"/>
     <use xlink:href="#DejaVuSans-20" x="1801.367188"/>
     <use xlink:href="#DejaVuSans-2d" x="1833.154297"/>
     <use xlink:href="#DejaVuSans-31" x="1869.238281"/>
     <use xlink:href="#DejaVuSans-35" x="1932.861328"/>
     <use xlink:href="#DejaVuSans-34" x="1996.484375"/>
     <use xlink:href="#DejaVuSans-2e" x="2060.107422"/>
     <use xlink:href="#DejaVuSans-38" x="2091.894531"/>
     <use xlink:href="#DejaVuSans-37" x="2155.517578"/>
     <use xlink:href="#DejaVuSans-36" x="2219.140625"/>
     <use xlink:href="#DejaVuSans-31" x="2282.763672"/>
     <use xlink:href="#DejaVuSans-32" x="2346.386719"/>
     <use xlink:href="#DejaVuSans-35" x="2410.009766"/>
     <use xlink:href="#DejaVuSans-37" x="2473.632812"/>
     <use xlink:href="#DejaVuSans-31" x="2537.255859"/>
     <use xlink:href="#DejaVuSans-39" x="2600.878906"/>
     <use xlink:href="#DejaVuSans-34" x="2664.501953"/>
     <use xlink:href="#DejaVuSans-36" x="2728.125"/>
     <use xlink:href="#DejaVuSans-37" x="2791.748047"/>
     <use xlink:href="#DejaVuSans-30" x="2855.371094"/>
     <use xlink:href="#DejaVuSans-34" x="2918.994141"/>
    </g>
   </g>
   <g id="legend_1">
    <g id="patch_7">
     <path d="M 64.6 78.82825 
L 208.43125 78.82825 
Q 210.43125 78.82825 210.43125 76.82825 
L 210.43125 48.472 
Q 210.43125 46.472 208.43125 46.472 
L 64.6 46.472 
Q 62.6 46.472 62.6 48.472 
L 62.6 76.82825 
Q 62.6 78.82825 64.6 78.82825 
z
" style="fill: #ffffff; opacity: 0.8; stroke: #cccccc; stroke-linejoin: miter"/>
    </g>
    <g id="line2d_16">
     <path d="M 66.6 54.570437 
L 76.6 54.570437 
L 86.6 54.570437 
" style="fill: none; stroke-dasharray: 2,3.3; stroke-dashoffset: 0; stroke: #0000ff; stroke-width: 2"/>
    </g>
    <g id="text_17">
     <!-- Average (Default) -->
     <g transform="translate(94.6 58.070437)scale(0.1 -0.1)">
      <defs>
       <path id="DejaVuSans-41" d="M 2188 4044 
L 1331 1722 
L 3047 1722 
L 2188 4044 
z
M 1831 4666 
L 2547 4666 
L 4325 0 
L 3669 0 
L 3244 1197 
L 1141 1197 
L 716 0 
L 50 0 
L 1831 4666 
z
" transform="scale(0.015625)"/>
       <path id="DejaVuSans-28" d="M 1984 4856 
Q 1566 4138 1362 3434 
Q 1159 2731 1159 2009 
Q 1159 1288 1364 580 
Q 1569 -128 1984 -844 
L 1484 -844 
Q 1016 -109 783 600 
Q 550 1309 550 2009 
Q 550 2706 781 3412 
Q 1013 4119 1484 4856 
L 1984 4856 
z
" transform="scale(0.015625)"/>
       <path id="DejaVuSans-44" d="M 1259 4147 
L 1259 519 
L 2022 519 
Q 2988 519 3436 956 
Q 3884 1394 3884 2338 
Q 3884 3275 3436 3711 
Q 2988 4147 2022 4147 
L 1259 4147 
z
M 628 4666 
L 1925 4666 
Q 3281 4666 3915 4102 
Q 4550 3538 4550 2338 
Q 4550 1131 3912 565 
Q 3275 0 1925 0 
L 628 0 
L 628 4666 
z
" transform="scale(0.015625)"/>
       <path id="DejaVuSans-29" d="M 513 4856 
L 1013 4856 
Q 1481 4119 1714 3412 
Q 1947 2706 1947 2009 
Q 1947 1309 1714 600 
Q 1481 -109 1013 -844 
L 513 -844 
Q 928 -128 1133 580 
Q 1338 1288 1338 2009 
Q 1338 2731 1133 3434 
Q 928 4138 513 4856 
z
" transform="scale(0.015625)"/>
      </defs>
      <use xlink:href="#DejaVuSans-41"/>
      <use xlink:href="#DejaVuSans-76" x="62.533203"/>
      <use xlink:href="#DejaVuSans-65" x="121.712891"/>
      <use xlink:href="#DejaVuSans-72" x="183.236328"/>
      <use xlink:href="#DejaVuSans-61" x="224.349609"/>
      <use xlink:href="#DejaVuSans-67" x="285.628906"/>
      <use xlink:href="#DejaVuSans-65" x="349.105469"/>
      <use xlink:href="#DejaVuSans-20" x="410.628906"/>
      <use xlink:href="#DejaVuSans-28" x="442.416016"/>
      <use xlink:href="#DejaVuSans-44" x="481.429688"/>
      <use xlink:href="#DejaVuSans-65" x="558.431641"/>
      <use xlink:href="#DejaVuSans-66" x="619.955078"/>
      <use xlink:href="#DejaVuSans-61" x="655.160156"/>
      <use xlink:href="#DejaVuSans-75" x="716.439453"/>
      <use xlink:href="#DejaVuSans-6c" x="779.818359"/>
      <use xlink:href="#DejaVuSans-74" x="807.601562"/>
      <use xlink:href="#DejaVuSans-29" x="846.810547"/>
     </g>
    </g>
    <g id="line2d_17">
     <path d="M 66.6 69.248562 
L 76.6 69.248562 
L 86.6 69.248562 
" style="fill: none; stroke-dasharray: 2,3.3; stroke-dashoffset: 0; stroke: #ffa500; stroke-width: 2"/>
    </g>
    <g id="text_18">
     <!-- Average (Anticipation) -->
     <g transform="translate(94.6 72.748562)scale(0.1 -0.1)">
      <defs>
       <path id="DejaVuSans-63" d="M 3122 3366 
L 3122 2828 
Q 2878 2963 2633 3030 
Q 2388 3097 2138 3097 
Q 1578 3097 1268 2742 
Q 959 2388 959 1747 
Q 959 1106 1268 751 
Q 1578 397 2138 397 
Q 2388 397 2633 464 
Q 2878 531 3122 666 
L 3122 134 
Q 2881 22 2623 -34 
Q 2366 -91 2075 -91 
Q 1284 -91 818 406 
Q 353 903 353 1747 
Q 353 2603 823 3093 
Q 1294 3584 2113 3584 
Q 2378 3584 2631 3529 
Q 2884 3475 3122 3366 
z
" transform="scale(0.015625)"/>
       <path id="DejaVuSans-70" d="M 1159 525 
L 1159 -1331 
L 581 -1331 
L 581 3500 
L 1159 3500 
L 1159 2969 
Q 1341 3281 1617 3432 
Q 1894 3584 2278 3584 
Q 2916 3584 3314 3078 
Q 3713 2572 3713 1747 
Q 3713 922 3314 415 
Q 2916 -91 2278 -91 
Q 1894 -91 1617 61 
Q 1341 213 1159 525 
z
M 3116 1747 
Q 3116 2381 2855 2742 
Q 2594 3103 2138 3103 
Q 1681 3103 1420 2742 
Q 1159 2381 1159 1747 
Q 1159 1113 1420 752 
Q 1681 391 2138 391 
Q 2594 391 2855 752 
Q 3116 1113 3116 1747 
z
" transform="scale(0.015625)"/>
      </defs>
      <use xlink:href="#DejaVuSans-41"/>
      <use xlink:href="#DejaVuSans-76" x="62.533203"/>
      <use xlink:href="#DejaVuSans-65" x="121.712891"/>
      <use xlink:href="#DejaVuSans-72" x="183.236328"/>
      <use xlink:href="#DejaVuSans-61" x="224.349609"/>
      <use xlink:href="#DejaVuSans-67" x="285.628906"/>
      <use xlink:href="#DejaVuSans-65" x="349.105469"/>
      <use xlink:href="#DejaVuSans-20" x="410.628906"/>
      <use xlink:href="#DejaVuSans-28" x="442.416016"/>
      <use xlink:href="#DejaVuSans-41" x="481.429688"/>
      <use xlink:href="#DejaVuSans-6e" x="549.837891"/>
      <use xlink:href="#DejaVuSans-74" x="613.216797"/>
      <use xlink:href="#DejaVuSans-69" x="652.425781"/>
      <use xlink:href="#DejaVuSans-63" x="680.208984"/>
      <use xlink:href="#DejaVuSans-69" x="735.189453"/>
      <use xlink:href="#DejaVuSans-70" x="762.972656"/>
      <use xlink:href="#DejaVuSans-61" x="826.449219"/>
      <use xlink:href="#DejaVuSans-74" x="887.728516"/>
      <use xlink:href="#DejaVuSans-69" x="926.9375"/>
      <use xlink:href="#DejaVuSans-6f" x="954.720703"/>
      <use xlink:href="#DejaVuSans-6e" x="1015.902344"/>
      <use xlink:href="#DejaVuSans-29" x="1079.28125"/>
     </g>
    </g>
   </g>
  </g>
 </g>
 <defs>
  <clipPath id="p3bbeea015f">
   <rect x="57.6" y="41.472" width="357.12" height="266.112"/>
  </clipPath>
 </defs>
</svg>
