<?xml version="1.0" encoding="utf-8" standalone="no"?>
<!DOCTYPE svg PUBLIC "-//W3C//DTD SVG 1.1//EN"
  "http://www.w3.org/Graphics/SVG/1.1/DTD/svg11.dtd">
<svg xmlns:xlink="http://www.w3.org/1999/xlink" width="460.8pt" height="345.6pt" viewBox="0 0 460.8 345.6" xmlns="http://www.w3.org/2000/svg" version="1.1">
 <metadata>
  <rdf:RDF xmlns:dc="http://purl.org/dc/elements/1.1/" xmlns:cc="http://creativecommons.org/ns#" xmlns:rdf="http://www.w3.org/1999/02/22-rdf-syntax-ns#">
   <cc:Work>
    <dc:type rdf:resource="http://purl.org/dc/dcmitype/StillImage"/>
    <dc:date>2022-10-04T09:19:52.621703</dc:date>
    <dc:format>image/svg+xml</dc:format>
    <dc:creator>
     <cc:Agent>
      <dc:title>Matplotlib v3.5.3, https://matplotlib.org/</dc:title>
     </cc:Agent>
    </dc:creator>
   </cc:Work>
  </rdf:RDF>
 </metadata>
 <defs>
  <style type="text/css">*{stroke-linejoin: round; stroke-linecap: butt}</style>
 </defs>
 <g id="figure_1">
  <g id="patch_1">
   <path d="M 0 345.6 
L 460.8 345.6 
L 460.8 0 
L 0 0 
z
" style="fill: #ffffff"/>
  </g>
  <g id="axes_1">
   <g id="patch_2">
    <path d="M 57.6 307.584 
L 414.72 307.584 
L 414.72 41.472 
L 57.6 41.472 
z
" style="fill: #ffffff"/>
   </g>
   <g id="matplotlib.axis_1">
    <g id="xtick_1">
     <g id="line2d_1">
      <defs>
       <path id="mb2acfc7ead" d="M 0 0 
L 0 3.5 
" style="stroke: #000000; stroke-width: 0.8"/>
      </defs>
      <g>
       <use xlink:href="#mb2acfc7ead" x="73.832727" y="307.584" style="stroke: #000000; stroke-width: 0.8"/>
      </g>
     </g>
     <g id="text_1">
      <!-- 0 -->
      <g transform="translate(70.651477 322.182437)scale(0.1 -0.1)">
       <defs>
        <path id="DejaVuSans-30" d="M 2034 4250 
Q 1547 4250 1301 3770 
Q 1056 3291 1056 2328 
Q 1056 1369 1301 889 
Q 1547 409 2034 409 
Q 2525 409 2770 889 
Q 3016 1369 3016 2328 
Q 3016 3291 2770 3770 
Q 2525 4250 2034 4250 
z
M 2034 4750 
Q 2819 4750 3233 4129 
Q 3647 3509 3647 2328 
Q 3647 1150 3233 529 
Q 2819 -91 2034 -91 
Q 1250 -91 836 529 
Q 422 1150 422 2328 
Q 422 3509 836 4129 
Q 1250 4750 2034 4750 
z
" transform="scale(0.015625)"/>
       </defs>
       <use xlink:href="#DejaVuSans-30"/>
      </g>
     </g>
    </g>
    <g id="xtick_2">
     <g id="line2d_2">
      <g>
       <use xlink:href="#mb2acfc7ead" x="114.434847" y="307.584" style="stroke: #000000; stroke-width: 0.8"/>
      </g>
     </g>
     <g id="text_2">
      <!-- 250 -->
      <g transform="translate(104.891097 322.182437)scale(0.1 -0.1)">
       <defs>
        <path id="DejaVuSans-32" d="M 1228 531 
L 3431 531 
L 3431 0 
L 469 0 
L 469 531 
Q 828 903 1448 1529 
Q 2069 2156 2228 2338 
Q 2531 2678 2651 2914 
Q 2772 3150 2772 3378 
Q 2772 3750 2511 3984 
Q 2250 4219 1831 4219 
Q 1534 4219 1204 4116 
Q 875 4013 500 3803 
L 500 4441 
Q 881 4594 1212 4672 
Q 1544 4750 1819 4750 
Q 2544 4750 2975 4387 
Q 3406 4025 3406 3419 
Q 3406 3131 3298 2873 
Q 3191 2616 2906 2266 
Q 2828 2175 2409 1742 
Q 1991 1309 1228 531 
z
" transform="scale(0.015625)"/>
        <path id="DejaVuSans-35" d="M 691 4666 
L 3169 4666 
L 3169 4134 
L 1269 4134 
L 1269 2991 
Q 1406 3038 1543 3061 
Q 1681 3084 1819 3084 
Q 2600 3084 3056 2656 
Q 3513 2228 3513 1497 
Q 3513 744 3044 326 
Q 2575 -91 1722 -91 
Q 1428 -91 1123 -41 
Q 819 9 494 109 
L 494 744 
Q 775 591 1075 516 
Q 1375 441 1709 441 
Q 2250 441 2565 725 
Q 2881 1009 2881 1497 
Q 2881 1984 2565 2268 
Q 2250 2553 1709 2553 
Q 1456 2553 1204 2497 
Q 953 2441 691 2322 
L 691 4666 
z
" transform="scale(0.015625)"/>
       </defs>
       <use xlink:href="#DejaVuSans-32"/>
       <use xlink:href="#DejaVuSans-35" x="63.623047"/>
       <use xlink:href="#DejaVuSans-30" x="127.246094"/>
      </g>
     </g>
    </g>
    <g id="xtick_3">
     <g id="line2d_3">
      <g>
       <use xlink:href="#mb2acfc7ead" x="155.036966" y="307.584" style="stroke: #000000; stroke-width: 0.8"/>
      </g>
     </g>
     <g id="text_3">
      <!-- 500 -->
      <g transform="translate(145.493216 322.182437)scale(0.1 -0.1)">
       <use xlink:href="#DejaVuSans-35"/>
       <use xlink:href="#DejaVuSans-30" x="63.623047"/>
       <use xlink:href="#DejaVuSans-30" x="127.246094"/>
      </g>
     </g>
    </g>
    <g id="xtick_4">
     <g id="line2d_4">
      <g>
       <use xlink:href="#mb2acfc7ead" x="195.639085" y="307.584" style="stroke: #000000; stroke-width: 0.8"/>
      </g>
     </g>
     <g id="text_4">
      <!-- 750 -->
      <g transform="translate(186.095335 322.182437)scale(0.1 -0.1)">
       <defs>
        <path id="DejaVuSans-37" d="M 525 4666 
L 3525 4666 
L 3525 4397 
L 1831 0 
L 1172 0 
L 2766 4134 
L 525 4134 
L 525 4666 
z
" transform="scale(0.015625)"/>
       </defs>
       <use xlink:href="#DejaVuSans-37"/>
       <use xlink:href="#DejaVuSans-35" x="63.623047"/>
       <use xlink:href="#DejaVuSans-30" x="127.246094"/>
      </g>
     </g>
    </g>
    <g id="xtick_5">
     <g id="line2d_5">
      <g>
       <use xlink:href="#mb2acfc7ead" x="236.241204" y="307.584" style="stroke: #000000; stroke-width: 0.8"/>
      </g>
     </g>
     <g id="text_5">
      <!-- 1000 -->
      <g transform="translate(223.516204 322.182437)scale(0.1 -0.1)">
       <defs>
        <path id="DejaVuSans-31" d="M 794 531 
L 1825 531 
L 1825 4091 
L 703 3866 
L 703 4441 
L 1819 4666 
L 2450 4666 
L 2450 531 
L 3481 531 
L 3481 0 
L 794 0 
L 794 531 
z
" transform="scale(0.015625)"/>
       </defs>
       <use xlink:href="#DejaVuSans-31"/>
       <use xlink:href="#DejaVuSans-30" x="63.623047"/>
       <use xlink:href="#DejaVuSans-30" x="127.246094"/>
       <use xlink:href="#DejaVuSans-30" x="190.869141"/>
      </g>
     </g>
    </g>
    <g id="xtick_6">
     <g id="line2d_6">
      <g>
       <use xlink:href="#mb2acfc7ead" x="276.843323" y="307.584" style="stroke: #000000; stroke-width: 0.8"/>
      </g>
     </g>
     <g id="text_6">
      <!-- 1250 -->
      <g transform="translate(264.118323 322.182437)scale(0.1 -0.1)">
       <use xlink:href="#DejaVuSans-31"/>
       <use xlink:href="#DejaVuSans-32" x="63.623047"/>
       <use xlink:href="#DejaVuSans-35" x="127.246094"/>
       <use xlink:href="#DejaVuSans-30" x="190.869141"/>
      </g>
     </g>
    </g>
    <g id="xtick_7">
     <g id="line2d_7">
      <g>
       <use xlink:href="#mb2acfc7ead" x="317.445443" y="307.584" style="stroke: #000000; stroke-width: 0.8"/>
      </g>
     </g>
     <g id="text_7">
      <!-- 1500 -->
      <g transform="translate(304.720443 322.182437)scale(0.1 -0.1)">
       <use xlink:href="#DejaVuSans-31"/>
       <use xlink:href="#DejaVuSans-35" x="63.623047"/>
       <use xlink:href="#DejaVuSans-30" x="127.246094"/>
       <use xlink:href="#DejaVuSans-30" x="190.869141"/>
      </g>
     </g>
    </g>
    <g id="xtick_8">
     <g id="line2d_8">
      <g>
       <use xlink:href="#mb2acfc7ead" x="358.047562" y="307.584" style="stroke: #000000; stroke-width: 0.8"/>
      </g>
     </g>
     <g id="text_8">
      <!-- 1750 -->
      <g transform="translate(345.322562 322.182437)scale(0.1 -0.1)">
       <use xlink:href="#DejaVuSans-31"/>
       <use xlink:href="#DejaVuSans-37" x="63.623047"/>
       <use xlink:href="#DejaVuSans-35" x="127.246094"/>
       <use xlink:href="#DejaVuSans-30" x="190.869141"/>
      </g>
     </g>
    </g>
    <g id="xtick_9">
     <g id="line2d_9">
      <g>
       <use xlink:href="#mb2acfc7ead" x="398.649681" y="307.584" style="stroke: #000000; stroke-width: 0.8"/>
      </g>
     </g>
     <g id="text_9">
      <!-- 2000 -->
      <g transform="translate(385.924681 322.182437)scale(0.1 -0.1)">
       <use xlink:href="#DejaVuSans-32"/>
       <use xlink:href="#DejaVuSans-30" x="63.623047"/>
       <use xlink:href="#DejaVuSans-30" x="127.246094"/>
       <use xlink:href="#DejaVuSans-30" x="190.869141"/>
      </g>
     </g>
    </g>
    <g id="text_10">
     <!-- Number of Orders -->
     <g transform="translate(191.261562 335.860562)scale(0.1 -0.1)">
      <defs>
       <path id="DejaVuSans-4e" d="M 628 4666 
L 1478 4666 
L 3547 763 
L 3547 4666 
L 4159 4666 
L 4159 0 
L 3309 0 
L 1241 3903 
L 1241 0 
L 628 0 
L 628 4666 
z
" transform="scale(0.015625)"/>
       <path id="DejaVuSans-75" d="M 544 1381 
L 544 3500 
L 1119 3500 
L 1119 1403 
Q 1119 906 1312 657 
Q 1506 409 1894 409 
Q 2359 409 2629 706 
Q 2900 1003 2900 1516 
L 2900 3500 
L 3475 3500 
L 3475 0 
L 2900 0 
L 2900 538 
Q 2691 219 2414 64 
Q 2138 -91 1772 -91 
Q 1169 -91 856 284 
Q 544 659 544 1381 
z
M 1991 3584 
L 1991 3584 
z
" transform="scale(0.015625)"/>
       <path id="DejaVuSans-6d" d="M 3328 2828 
Q 3544 3216 3844 3400 
Q 4144 3584 4550 3584 
Q 5097 3584 5394 3201 
Q 5691 2819 5691 2113 
L 5691 0 
L 5113 0 
L 5113 2094 
Q 5113 2597 4934 2840 
Q 4756 3084 4391 3084 
Q 3944 3084 3684 2787 
Q 3425 2491 3425 1978 
L 3425 0 
L 2847 0 
L 2847 2094 
Q 2847 2600 2669 2842 
Q 2491 3084 2119 3084 
Q 1678 3084 1418 2786 
Q 1159 2488 1159 1978 
L 1159 0 
L 581 0 
L 581 3500 
L 1159 3500 
L 1159 2956 
Q 1356 3278 1631 3431 
Q 1906 3584 2284 3584 
Q 2666 3584 2933 3390 
Q 3200 3197 3328 2828 
z
" transform="scale(0.015625)"/>
       <path id="DejaVuSans-62" d="M 3116 1747 
Q 3116 2381 2855 2742 
Q 2594 3103 2138 3103 
Q 1681 3103 1420 2742 
Q 1159 2381 1159 1747 
Q 1159 1113 1420 752 
Q 1681 391 2138 391 
Q 2594 391 2855 752 
Q 3116 1113 3116 1747 
z
M 1159 2969 
Q 1341 3281 1617 3432 
Q 1894 3584 2278 3584 
Q 2916 3584 3314 3078 
Q 3713 2572 3713 1747 
Q 3713 922 3314 415 
Q 2916 -91 2278 -91 
Q 1894 -91 1617 61 
Q 1341 213 1159 525 
L 1159 0 
L 581 0 
L 581 4863 
L 1159 4863 
L 1159 2969 
z
" transform="scale(0.015625)"/>
       <path id="DejaVuSans-65" d="M 3597 1894 
L 3597 1613 
L 953 1613 
Q 991 1019 1311 708 
Q 1631 397 2203 397 
Q 2534 397 2845 478 
Q 3156 559 3463 722 
L 3463 178 
Q 3153 47 2828 -22 
Q 2503 -91 2169 -91 
Q 1331 -91 842 396 
Q 353 884 353 1716 
Q 353 2575 817 3079 
Q 1281 3584 2069 3584 
Q 2775 3584 3186 3129 
Q 3597 2675 3597 1894 
z
M 3022 2063 
Q 3016 2534 2758 2815 
Q 2500 3097 2075 3097 
Q 1594 3097 1305 2825 
Q 1016 2553 972 2059 
L 3022 2063 
z
" transform="scale(0.015625)"/>
       <path id="DejaVuSans-72" d="M 2631 2963 
Q 2534 3019 2420 3045 
Q 2306 3072 2169 3072 
Q 1681 3072 1420 2755 
Q 1159 2438 1159 1844 
L 1159 0 
L 581 0 
L 581 3500 
L 1159 3500 
L 1159 2956 
Q 1341 3275 1631 3429 
Q 1922 3584 2338 3584 
Q 2397 3584 2469 3576 
Q 2541 3569 2628 3553 
L 2631 2963 
z
" transform="scale(0.015625)"/>
       <path id="DejaVuSans-20" transform="scale(0.015625)"/>
       <path id="DejaVuSans-6f" d="M 1959 3097 
Q 1497 3097 1228 2736 
Q 959 2375 959 1747 
Q 959 1119 1226 758 
Q 1494 397 1959 397 
Q 2419 397 2687 759 
Q 2956 1122 2956 1747 
Q 2956 2369 2687 2733 
Q 2419 3097 1959 3097 
z
M 1959 3584 
Q 2709 3584 3137 3096 
Q 3566 2609 3566 1747 
Q 3566 888 3137 398 
Q 2709 -91 1959 -91 
Q 1206 -91 779 398 
Q 353 888 353 1747 
Q 353 2609 779 3096 
Q 1206 3584 1959 3584 
z
" transform="scale(0.015625)"/>
       <path id="DejaVuSans-66" d="M 2375 4863 
L 2375 4384 
L 1825 4384 
Q 1516 4384 1395 4259 
Q 1275 4134 1275 3809 
L 1275 3500 
L 2222 3500 
L 2222 3053 
L 1275 3053 
L 1275 0 
L 697 0 
L 697 3053 
L 147 3053 
L 147 3500 
L 697 3500 
L 697 3744 
Q 697 4328 969 4595 
Q 1241 4863 1831 4863 
L 2375 4863 
z
" transform="scale(0.015625)"/>
       <path id="DejaVuSans-4f" d="M 2522 4238 
Q 1834 4238 1429 3725 
Q 1025 3213 1025 2328 
Q 1025 1447 1429 934 
Q 1834 422 2522 422 
Q 3209 422 3611 934 
Q 4013 1447 4013 2328 
Q 4013 3213 3611 3725 
Q 3209 4238 2522 4238 
z
M 2522 4750 
Q 3503 4750 4090 4092 
Q 4678 3434 4678 2328 
Q 4678 1225 4090 567 
Q 3503 -91 2522 -91 
Q 1538 -91 948 565 
Q 359 1222 359 2328 
Q 359 3434 948 4092 
Q 1538 4750 2522 4750 
z
" transform="scale(0.015625)"/>
       <path id="DejaVuSans-64" d="M 2906 2969 
L 2906 4863 
L 3481 4863 
L 3481 0 
L 2906 0 
L 2906 525 
Q 2725 213 2448 61 
Q 2172 -91 1784 -91 
Q 1150 -91 751 415 
Q 353 922 353 1747 
Q 353 2572 751 3078 
Q 1150 3584 1784 3584 
Q 2172 3584 2448 3432 
Q 2725 3281 2906 2969 
z
M 947 1747 
Q 947 1113 1208 752 
Q 1469 391 1925 391 
Q 2381 391 2643 752 
Q 2906 1113 2906 1747 
Q 2906 2381 2643 2742 
Q 2381 3103 1925 3103 
Q 1469 3103 1208 2742 
Q 947 2381 947 1747 
z
" transform="scale(0.015625)"/>
       <path id="DejaVuSans-73" d="M 2834 3397 
L 2834 2853 
Q 2591 2978 2328 3040 
Q 2066 3103 1784 3103 
Q 1356 3103 1142 2972 
Q 928 2841 928 2578 
Q 928 2378 1081 2264 
Q 1234 2150 1697 2047 
L 1894 2003 
Q 2506 1872 2764 1633 
Q 3022 1394 3022 966 
Q 3022 478 2636 193 
Q 2250 -91 1575 -91 
Q 1294 -91 989 -36 
Q 684 19 347 128 
L 347 722 
Q 666 556 975 473 
Q 1284 391 1588 391 
Q 1994 391 2212 530 
Q 2431 669 2431 922 
Q 2431 1156 2273 1281 
Q 2116 1406 1581 1522 
L 1381 1569 
Q 847 1681 609 1914 
Q 372 2147 372 2553 
Q 372 3047 722 3315 
Q 1072 3584 1716 3584 
Q 2034 3584 2315 3537 
Q 2597 3491 2834 3397 
z
" transform="scale(0.015625)"/>
      </defs>
      <use xlink:href="#DejaVuSans-4e"/>
      <use xlink:href="#DejaVuSans-75" x="74.804688"/>
      <use xlink:href="#DejaVuSans-6d" x="138.183594"/>
      <use xlink:href="#DejaVuSans-62" x="235.595703"/>
      <use xlink:href="#DejaVuSans-65" x="299.072266"/>
      <use xlink:href="#DejaVuSans-72" x="360.595703"/>
      <use xlink:href="#DejaVuSans-20" x="401.708984"/>
      <use xlink:href="#DejaVuSans-6f" x="433.496094"/>
      <use xlink:href="#DejaVuSans-66" x="494.677734"/>
      <use xlink:href="#DejaVuSans-20" x="529.882812"/>
      <use xlink:href="#DejaVuSans-4f" x="561.669922"/>
      <use xlink:href="#DejaVuSans-72" x="640.380859"/>
      <use xlink:href="#DejaVuSans-64" x="679.744141"/>
      <use xlink:href="#DejaVuSans-65" x="743.220703"/>
      <use xlink:href="#DejaVuSans-72" x="804.744141"/>
      <use xlink:href="#DejaVuSans-73" x="845.857422"/>
     </g>
    </g>
   </g>
   <g id="matplotlib.axis_2">
    <g id="ytick_1">
     <g id="line2d_10">
      <defs>
       <path id="m20f7b53785" d="M 0 0 
L -3.5 0 
" style="stroke: #000000; stroke-width: 0.8"/>
      </defs>
      <g>
       <use xlink:href="#m20f7b53785" x="57.6" y="302.624873" style="stroke: #000000; stroke-width: 0.8"/>
      </g>
     </g>
     <g id="text_11">
      <!-- 750 -->
      <g transform="translate(31.5125 306.424092)scale(0.1 -0.1)">
       <use xlink:href="#DejaVuSans-37"/>
       <use xlink:href="#DejaVuSans-35" x="63.623047"/>
       <use xlink:href="#DejaVuSans-30" x="127.246094"/>
      </g>
     </g>
    </g>
    <g id="ytick_2">
     <g id="line2d_11">
      <g>
       <use xlink:href="#m20f7b53785" x="57.6" y="250.784133" style="stroke: #000000; stroke-width: 0.8"/>
      </g>
     </g>
     <g id="text_12">
      <!-- 800 -->
      <g transform="translate(31.5125 254.583352)scale(0.1 -0.1)">
       <defs>
        <path id="DejaVuSans-38" d="M 2034 2216 
Q 1584 2216 1326 1975 
Q 1069 1734 1069 1313 
Q 1069 891 1326 650 
Q 1584 409 2034 409 
Q 2484 409 2743 651 
Q 3003 894 3003 1313 
Q 3003 1734 2745 1975 
Q 2488 2216 2034 2216 
z
M 1403 2484 
Q 997 2584 770 2862 
Q 544 3141 544 3541 
Q 544 4100 942 4425 
Q 1341 4750 2034 4750 
Q 2731 4750 3128 4425 
Q 3525 4100 3525 3541 
Q 3525 3141 3298 2862 
Q 3072 2584 2669 2484 
Q 3125 2378 3379 2068 
Q 3634 1759 3634 1313 
Q 3634 634 3220 271 
Q 2806 -91 2034 -91 
Q 1263 -91 848 271 
Q 434 634 434 1313 
Q 434 1759 690 2068 
Q 947 2378 1403 2484 
z
M 1172 3481 
Q 1172 3119 1398 2916 
Q 1625 2713 2034 2713 
Q 2441 2713 2670 2916 
Q 2900 3119 2900 3481 
Q 2900 3844 2670 4047 
Q 2441 4250 2034 4250 
Q 1625 4250 1398 4047 
Q 1172 3844 1172 3481 
z
" transform="scale(0.015625)"/>
       </defs>
       <use xlink:href="#DejaVuSans-38"/>
       <use xlink:href="#DejaVuSans-30" x="63.623047"/>
       <use xlink:href="#DejaVuSans-30" x="127.246094"/>
      </g>
     </g>
    </g>
    <g id="ytick_3">
     <g id="line2d_12">
      <g>
       <use xlink:href="#m20f7b53785" x="57.6" y="198.943393" style="stroke: #000000; stroke-width: 0.8"/>
      </g>
     </g>
     <g id="text_13">
      <!-- 850 -->
      <g transform="translate(31.5125 202.742611)scale(0.1 -0.1)">
       <use xlink:href="#DejaVuSans-38"/>
       <use xlink:href="#DejaVuSans-35" x="63.623047"/>
       <use xlink:href="#DejaVuSans-30" x="127.246094"/>
      </g>
     </g>
    </g>
    <g id="ytick_4">
     <g id="line2d_13">
      <g>
       <use xlink:href="#m20f7b53785" x="57.6" y="147.102652" style="stroke: #000000; stroke-width: 0.8"/>
      </g>
     </g>
     <g id="text_14">
      <!-- 900 -->
      <g transform="translate(31.5125 150.901871)scale(0.1 -0.1)">
       <defs>
        <path id="DejaVuSans-39" d="M 703 97 
L 703 672 
Q 941 559 1184 500 
Q 1428 441 1663 441 
Q 2288 441 2617 861 
Q 2947 1281 2994 2138 
Q 2813 1869 2534 1725 
Q 2256 1581 1919 1581 
Q 1219 1581 811 2004 
Q 403 2428 403 3163 
Q 403 3881 828 4315 
Q 1253 4750 1959 4750 
Q 2769 4750 3195 4129 
Q 3622 3509 3622 2328 
Q 3622 1225 3098 567 
Q 2575 -91 1691 -91 
Q 1453 -91 1209 -44 
Q 966 3 703 97 
z
M 1959 2075 
Q 2384 2075 2632 2365 
Q 2881 2656 2881 3163 
Q 2881 3666 2632 3958 
Q 2384 4250 1959 4250 
Q 1534 4250 1286 3958 
Q 1038 3666 1038 3163 
Q 1038 2656 1286 2365 
Q 1534 2075 1959 2075 
z
" transform="scale(0.015625)"/>
       </defs>
       <use xlink:href="#DejaVuSans-39"/>
       <use xlink:href="#DejaVuSans-30" x="63.623047"/>
       <use xlink:href="#DejaVuSans-30" x="127.246094"/>
      </g>
     </g>
    </g>
    <g id="ytick_5">
     <g id="line2d_14">
      <g>
       <use xlink:href="#m20f7b53785" x="57.6" y="95.261912" style="stroke: #000000; stroke-width: 0.8"/>
      </g>
     </g>
     <g id="text_15">
      <!-- 950 -->
      <g transform="translate(31.5125 99.061131)scale(0.1 -0.1)">
       <use xlink:href="#DejaVuSans-39"/>
       <use xlink:href="#DejaVuSans-35" x="63.623047"/>
       <use xlink:href="#DejaVuSans-30" x="127.246094"/>
      </g>
     </g>
    </g>
    <g id="ytick_6">
     <g id="line2d_15">
      <g>
       <use xlink:href="#m20f7b53785" x="57.6" y="43.421172" style="stroke: #000000; stroke-width: 0.8"/>
      </g>
     </g>
     <g id="text_16">
      <!-- 1000 -->
      <g transform="translate(25.15 47.220391)scale(0.1 -0.1)">
       <use xlink:href="#DejaVuSans-31"/>
       <use xlink:href="#DejaVuSans-30" x="63.623047"/>
       <use xlink:href="#DejaVuSans-30" x="127.246094"/>
       <use xlink:href="#DejaVuSans-30" x="190.869141"/>
      </g>
     </g>
    </g>
    <g id="text_17">
     <!-- Waiting Time/s -->
     <g transform="translate(19.070312 211.410031)rotate(-90)scale(0.1 -0.1)">
      <defs>
       <path id="DejaVuSans-57" d="M 213 4666 
L 850 4666 
L 1831 722 
L 2809 4666 
L 3519 4666 
L 4500 722 
L 5478 4666 
L 6119 4666 
L 4947 0 
L 4153 0 
L 3169 4050 
L 2175 0 
L 1381 0 
L 213 4666 
z
" transform="scale(0.015625)"/>
       <path id="DejaVuSans-61" d="M 2194 1759 
Q 1497 1759 1228 1600 
Q 959 1441 959 1056 
Q 959 750 1161 570 
Q 1363 391 1709 391 
Q 2188 391 2477 730 
Q 2766 1069 2766 1631 
L 2766 1759 
L 2194 1759 
z
M 3341 1997 
L 3341 0 
L 2766 0 
L 2766 531 
Q 2569 213 2275 61 
Q 1981 -91 1556 -91 
Q 1019 -91 701 211 
Q 384 513 384 1019 
Q 384 1609 779 1909 
Q 1175 2209 1959 2209 
L 2766 2209 
L 2766 2266 
Q 2766 2663 2505 2880 
Q 2244 3097 1772 3097 
Q 1472 3097 1187 3025 
Q 903 2953 641 2809 
L 641 3341 
Q 956 3463 1253 3523 
Q 1550 3584 1831 3584 
Q 2591 3584 2966 3190 
Q 3341 2797 3341 1997 
z
" transform="scale(0.015625)"/>
       <path id="DejaVuSans-69" d="M 603 3500 
L 1178 3500 
L 1178 0 
L 603 0 
L 603 3500 
z
M 603 4863 
L 1178 4863 
L 1178 4134 
L 603 4134 
L 603 4863 
z
" transform="scale(0.015625)"/>
       <path id="DejaVuSans-74" d="M 1172 4494 
L 1172 3500 
L 2356 3500 
L 2356 3053 
L 1172 3053 
L 1172 1153 
Q 1172 725 1289 603 
Q 1406 481 1766 481 
L 2356 481 
L 2356 0 
L 1766 0 
Q 1100 0 847 248 
Q 594 497 594 1153 
L 594 3053 
L 172 3053 
L 172 3500 
L 594 3500 
L 594 4494 
L 1172 4494 
z
" transform="scale(0.015625)"/>
       <path id="DejaVuSans-6e" d="M 3513 2113 
L 3513 0 
L 2938 0 
L 2938 2094 
Q 2938 2591 2744 2837 
Q 2550 3084 2163 3084 
Q 1697 3084 1428 2787 
Q 1159 2491 1159 1978 
L 1159 0 
L 581 0 
L 581 3500 
L 1159 3500 
L 1159 2956 
Q 1366 3272 1645 3428 
Q 1925 3584 2291 3584 
Q 2894 3584 3203 3211 
Q 3513 2838 3513 2113 
z
" transform="scale(0.015625)"/>
       <path id="DejaVuSans-67" d="M 2906 1791 
Q 2906 2416 2648 2759 
Q 2391 3103 1925 3103 
Q 1463 3103 1205 2759 
Q 947 2416 947 1791 
Q 947 1169 1205 825 
Q 1463 481 1925 481 
Q 2391 481 2648 825 
Q 2906 1169 2906 1791 
z
M 3481 434 
Q 3481 -459 3084 -895 
Q 2688 -1331 1869 -1331 
Q 1566 -1331 1297 -1286 
Q 1028 -1241 775 -1147 
L 775 -588 
Q 1028 -725 1275 -790 
Q 1522 -856 1778 -856 
Q 2344 -856 2625 -561 
Q 2906 -266 2906 331 
L 2906 616 
Q 2728 306 2450 153 
Q 2172 0 1784 0 
Q 1141 0 747 490 
Q 353 981 353 1791 
Q 353 2603 747 3093 
Q 1141 3584 1784 3584 
Q 2172 3584 2450 3431 
Q 2728 3278 2906 2969 
L 2906 3500 
L 3481 3500 
L 3481 434 
z
" transform="scale(0.015625)"/>
       <path id="DejaVuSans-54" d="M -19 4666 
L 3928 4666 
L 3928 4134 
L 2272 4134 
L 2272 0 
L 1638 0 
L 1638 4134 
L -19 4134 
L -19 4666 
z
" transform="scale(0.015625)"/>
       <path id="DejaVuSans-2f" d="M 1625 4666 
L 2156 4666 
L 531 -594 
L 0 -594 
L 1625 4666 
z
" transform="scale(0.015625)"/>
      </defs>
      <use xlink:href="#DejaVuSans-57"/>
      <use xlink:href="#DejaVuSans-61" x="92.501953"/>
      <use xlink:href="#DejaVuSans-69" x="153.78125"/>
      <use xlink:href="#DejaVuSans-74" x="181.564453"/>
      <use xlink:href="#DejaVuSans-69" x="220.773438"/>
      <use xlink:href="#DejaVuSans-6e" x="248.556641"/>
      <use xlink:href="#DejaVuSans-67" x="311.935547"/>
      <use xlink:href="#DejaVuSans-20" x="375.412109"/>
      <use xlink:href="#DejaVuSans-54" x="407.199219"/>
      <use xlink:href="#DejaVuSans-69" x="465.158203"/>
      <use xlink:href="#DejaVuSans-6d" x="492.941406"/>
      <use xlink:href="#DejaVuSans-65" x="590.353516"/>
      <use xlink:href="#DejaVuSans-2f" x="651.876953"/>
      <use xlink:href="#DejaVuSans-73" x="685.568359"/>
     </g>
    </g>
   </g>
   <g id="line2d_16">
    <path d="M 73.832727 286.994711 
L 73.995136 282.729146 
L 74.157544 284.914525 
L 74.319953 295.488 
L 74.482361 280.101249 
L 74.64477 289.023921 
L 74.969587 235.277654 
L 75.131995 248.942 
L 75.294404 251.154358 
L 75.456812 234.670775 
L 75.944037 158.362971 
L 76.268854 136.564056 
L 76.431263 133.086717 
L 76.593671 112.311155 
L 76.75608 119.380847 
L 76.918488 117.317097 
L 77.080897 113.042996 
L 77.243305 96.63915 
L 77.405714 93.195376 
L 77.568122 80.156207 
L 77.730531 80.773705 
L 77.892939 79.254955 
L 78.055348 73.782891 
L 78.380165 90.039545 
L 78.542573 78.022162 
L 78.704982 78.00879 
L 78.86739 68.296016 
L 79.029799 68.275972 
L 79.192207 71.365057 
L 79.354615 78.958406 
L 80.004249 58.892646 
L 80.166658 61.43452 
L 80.329066 57.622119 
L 80.491475 57.978437 
L 80.653883 54.213388 
L 80.816292 61.293422 
L 80.9787 62.77459 
L 81.141109 60.625166 
L 81.303517 62.683665 
L 81.465926 69.32662 
L 81.628334 70.166897 
L 81.953151 75.86055 
L 82.277968 69.582501 
L 82.440377 70.89749 
L 82.602785 74.042578 
L 82.927602 69.083002 
L 83.09001 73.308214 
L 83.252419 65.363291 
L 83.414827 64.605658 
L 83.577236 58.701775 
L 83.739644 57.847453 
L 84.064461 53.568 
L 84.714095 61.752296 
L 85.038912 59.430984 
L 85.201321 56.890472 
L 85.363729 60.719431 
L 85.688546 62.781481 
L 85.850955 62.51045 
L 86.013363 65.373088 
L 86.33818 58.405764 
L 86.500588 61.852524 
L 86.662997 61.65329 
L 86.825405 65.26538 
L 86.987814 65.924977 
L 87.150222 69.546716 
L 87.312631 70.281495 
L 87.799856 64.099079 
L 87.962265 64.844721 
L 88.287082 69.960077 
L 88.44949 70.59879 
L 88.611899 69.735423 
L 89.099124 77.378934 
L 89.261533 74.900748 
L 89.423941 74.869685 
L 89.58635 74.356408 
L 89.748758 74.334819 
L 89.911166 73.377601 
L 90.235983 74.452073 
L 90.398392 76.134206 
L 90.5608 75.822153 
L 90.723209 74.192422 
L 90.885617 75.086571 
L 91.048026 74.777752 
L 91.210434 71.504724 
L 91.372843 70.774349 
L 91.535251 72.788494 
L 91.69766 71.712961 
L 91.860068 74.075917 
L 92.022477 74.243007 
L 92.184885 72.991838 
L 92.347294 73.746731 
L 92.509702 72.852878 
L 92.672111 73.731805 
L 92.834519 72.984793 
L 92.996928 74.079313 
L 93.321745 70.595171 
L 93.971378 77.329572 
L 94.133787 76.95166 
L 94.296195 75.703533 
L 94.458604 77.264442 
L 94.783421 75.418405 
L 94.945829 73.275706 
L 95.270646 76.952585 
L 95.757872 69.647832 
L 96.082689 71.359124 
L 96.569914 67.751585 
L 97.057139 73.034034 
L 97.219548 73.078817 
L 97.544365 73.542901 
L 97.706773 73.878515 
L 98.03159 71.17717 
L 98.193999 71.424154 
L 98.356407 72.841115 
L 98.518816 70.653285 
L 98.681224 70.751553 
L 98.843633 69.635484 
L 99.006041 70.840976 
L 99.16845 70.850863 
L 99.330858 70.281209 
L 99.655675 73.391216 
L 99.818084 71.80242 
L 99.980492 72.628832 
L 100.142901 72.564721 
L 100.305309 73.547407 
L 100.467717 73.134885 
L 100.630126 72.047151 
L 100.792534 72.045622 
L 100.954943 72.173243 
L 101.117351 70.918822 
L 101.442168 72.875727 
L 101.604577 70.947337 
L 101.929394 73.658307 
L 102.091802 73.16633 
L 102.254211 73.532884 
L 102.416619 73.13782 
L 102.903845 76.688004 
L 103.066253 75.927559 
L 103.228662 76.170219 
L 103.39107 75.647754 
L 103.715887 77.782074 
L 104.040704 75.006044 
L 104.690338 78.430472 
L 105.015155 77.376538 
L 105.177563 77.866503 
L 105.664789 74.941763 
L 105.827197 74.994217 
L 105.989606 72.989232 
L 106.152014 72.742944 
L 106.314423 72.930352 
L 106.63924 72.207153 
L 106.801648 73.012593 
L 106.964057 72.705469 
L 107.126465 72.979267 
L 107.288874 71.857452 
L 107.451282 71.843433 
L 107.776099 73.392373 
L 107.938507 72.862802 
L 108.263324 74.863551 
L 108.425733 74.87318 
L 108.588141 73.887862 
L 108.75055 74.866865 
L 108.912958 74.632595 
L 109.075367 74.960214 
L 109.237775 76.197542 
L 109.400184 75.100959 
L 109.562592 76.261446 
L 109.887409 75.568369 
L 110.049818 73.727731 
L 110.212226 75.046638 
L 110.374635 74.763515 
L 110.537043 75.086516 
L 110.699452 74.726267 
L 111.024268 72.484485 
L 111.186677 73.034782 
L 111.349085 71.413173 
L 111.511494 70.975934 
L 111.673902 70.082704 
L 111.836311 70.534292 
L 111.998719 71.591277 
L 112.485945 69.791707 
L 112.648353 69.269348 
L 112.810762 69.917142 
L 112.97317 69.643869 
L 113.135579 69.8638 
L 113.460396 69.113691 
L 113.785213 70.447453 
L 113.947621 71.348785 
L 114.11003 70.74529 
L 114.272438 68.475084 
L 114.434847 68.739118 
L 114.597255 68.579968 
L 114.759663 69.229413 
L 114.922072 68.769313 
L 115.08448 69.001343 
L 115.246889 68.214056 
L 115.409297 68.858633 
L 115.571706 67.409998 
L 115.896523 69.097868 
L 116.058931 69.077653 
L 116.22134 70.055169 
L 116.383748 69.660278 
L 116.546157 69.71121 
L 116.708565 70.153 
L 117.033382 71.297026 
L 117.195791 71.610143 
L 117.683016 74.206571 
L 117.845425 74.428981 
L 118.007833 73.368749 
L 118.170241 73.274034 
L 118.33265 73.753679 
L 118.495058 72.796298 
L 118.657467 72.512719 
L 118.819875 72.732335 
L 118.982284 73.383574 
L 119.144692 73.552595 
L 119.469509 75.00564 
L 119.631918 75.742368 
L 120.281552 73.885978 
L 120.44396 74.777235 
L 120.606369 74.802287 
L 120.768777 74.150112 
L 121.256003 76.310009 
L 121.418411 76.487729 
L 121.58082 77.160978 
L 121.905636 76.825982 
L 122.068045 77.236696 
L 122.230453 77.306649 
L 123.042496 79.417996 
L 123.367313 78.794307 
L 123.529721 79.452297 
L 123.854538 79.080011 
L 124.179355 79.855608 
L 124.341764 80.524787 
L 124.504172 80.503978 
L 124.666581 80.021605 
L 124.991398 80.883273 
L 125.153806 79.765914 
L 125.80344 82.56919 
L 126.128257 82.827058 
L 126.453074 81.089721 
L 126.615482 81.189472 
L 126.777891 81.466163 
L 126.940299 80.804739 
L 127.102708 79.578906 
L 127.427525 81.433247 
L 127.752342 81.281556 
L 127.91475 81.219398 
L 128.239567 78.87786 
L 128.401976 78.853122 
L 128.889201 77.400494 
L 129.214018 77.041817 
L 129.376426 77.100282 
L 129.863652 76.327154 
L 130.02606 75.664791 
L 130.188469 76.346284 
L 130.350877 76.275718 
L 130.838103 74.861744 
L 131.000511 75.224539 
L 131.16292 75.012386 
L 131.650145 73.669886 
L 131.812554 73.777744 
L 131.974962 74.077636 
L 132.299779 73.157087 
L 132.462187 73.578353 
L 132.949413 71.590155 
L 133.111821 71.709426 
L 133.599047 71.446279 
L 133.761455 70.871135 
L 133.923864 71.263327 
L 134.248681 71.321699 
L 134.411089 71.702137 
L 134.573498 71.227433 
L 134.735906 71.356285 
L 134.898315 72.062385 
L 135.060723 72.19412 
L 135.223132 71.978513 
L 135.38554 72.312086 
L 135.710357 71.040998 
L 135.872765 70.957002 
L 136.035174 71.742755 
L 136.197582 71.869162 
L 136.359991 72.535666 
L 136.522399 72.688445 
L 136.847216 71.704148 
L 137.009625 71.745747 
L 137.334442 70.936418 
L 137.49685 71.228403 
L 137.659259 70.958551 
L 137.821667 71.609138 
L 137.984076 71.380365 
L 138.146484 71.91412 
L 138.308893 70.629043 
L 138.796118 71.704839 
L 138.958527 72.310043 
L 139.120935 72.058154 
L 139.283343 72.734572 
L 139.445752 72.424898 
L 139.770569 72.997693 
L 139.932977 73.020685 
L 140.095386 72.674614 
L 140.420203 73.112235 
L 140.74502 71.632118 
L 140.907428 71.874484 
L 141.232245 71.711219 
L 141.394654 72.2559 
L 141.557062 72.352167 
L 141.719471 72.633898 
L 142.044288 71.713348 
L 142.206696 71.573346 
L 142.369105 71.938087 
L 142.531513 71.905221 
L 142.693922 71.667366 
L 142.85633 71.902728 
L 143.018738 72.708441 
L 143.181147 72.087686 
L 143.343555 72.295472 
L 143.505964 71.956615 
L 143.668372 72.499754 
L 143.830781 72.304108 
L 144.155598 70.406781 
L 144.480415 70.090726 
L 144.642823 70.261959 
L 144.805232 70.088277 
L 145.130049 70.687343 
L 145.292457 70.427897 
L 145.454866 70.812735 
L 145.617274 70.754022 
L 145.779683 70.962737 
L 145.942091 70.986127 
L 146.1045 71.163727 
L 146.266908 71.544598 
L 146.429316 70.913188 
L 146.591725 70.968316 
L 146.754133 70.331286 
L 146.916542 70.155805 
L 147.07895 70.18846 
L 147.403767 68.950723 
L 147.566176 69.001395 
L 147.728584 68.252873 
L 147.890993 68.11801 
L 148.21581 69.261866 
L 148.378218 69.355799 
L 148.703035 68.518954 
L 148.865444 68.632305 
L 149.027852 68.382246 
L 149.190261 68.522109 
L 149.515078 67.773198 
L 149.677486 67.822158 
L 149.839894 68.208161 
L 150.002303 68.27121 
L 150.32712 67.260358 
L 150.651937 67.046363 
L 150.814345 66.950712 
L 150.976754 67.081246 
L 151.139162 67.051256 
L 151.301571 67.484779 
L 151.463979 67.541804 
L 151.788796 66.281589 
L 151.951205 66.290433 
L 152.276022 65.837407 
L 152.43843 65.985515 
L 152.763247 67.043339 
L 152.925656 67.300259 
L 153.088064 67.980263 
L 153.250473 67.621382 
L 153.575289 66.499954 
L 153.737698 66.679455 
L 153.900106 67.242955 
L 154.062515 67.192246 
L 154.224923 66.415005 
L 154.387332 66.442814 
L 154.54974 66.933187 
L 155.036966 65.474119 
L 155.199374 65.646666 
L 155.524191 64.776681 
L 155.6866 64.407275 
L 155.849008 64.451711 
L 156.011417 65.032721 
L 156.173825 64.606309 
L 156.336234 64.786129 
L 156.498642 64.423458 
L 156.661051 64.882016 
L 156.985867 64.163015 
L 157.310684 63.492648 
L 157.473093 63.594 
L 157.635501 63.089891 
L 157.79791 63.632901 
L 157.960318 63.780123 
L 158.122727 63.54434 
L 158.285135 63.801123 
L 158.447544 64.426473 
L 158.609952 63.642827 
L 158.934769 64.632041 
L 159.097178 64.268288 
L 159.259586 63.419385 
L 159.584403 63.897384 
L 159.746812 63.151792 
L 159.90922 63.04868 
L 160.071629 62.627588 
L 160.234037 62.848372 
L 160.396445 62.179101 
L 160.558854 62.799523 
L 160.883671 62.573614 
L 161.046079 62.980193 
L 161.208488 63.062428 
L 161.370896 62.760876 
L 161.533305 62.808892 
L 161.695713 61.956939 
L 161.858122 62.112918 
L 162.02053 62.046702 
L 162.182939 61.665202 
L 162.345347 61.821533 
L 162.507756 60.668807 
L 162.994981 61.252281 
L 163.482207 60.408843 
L 163.644615 60.975333 
L 163.807024 60.927356 
L 163.969432 60.610687 
L 164.13184 60.568889 
L 164.294249 60.77386 
L 164.781474 60.340879 
L 164.943883 60.645198 
L 165.106291 60.0549 
L 165.431108 59.723232 
L 165.593517 59.75966 
L 165.755925 60.259323 
L 165.918334 59.926361 
L 166.080742 59.932552 
L 166.405559 59.527143 
L 166.892785 59.353367 
L 167.217602 59.715533 
L 167.38001 59.555327 
L 167.704827 60.150368 
L 167.867235 60.191095 
L 168.354461 60.92527 
L 168.516869 60.490502 
L 168.679278 60.38779 
L 169.166503 58.745026 
L 169.816137 59.97078 
L 169.978546 59.868297 
L 170.140954 60.38236 
L 170.465771 59.361916 
L 170.62818 59.500355 
L 170.790588 59.318244 
L 170.952996 59.796258 
L 171.277813 59.233173 
L 171.440222 59.745473 
L 171.927447 58.722757 
L 172.089856 58.813673 
L 172.414673 59.138212 
L 172.73949 58.870735 
L 172.901898 58.949256 
L 173.226715 58.261314 
L 173.713941 59.170781 
L 174.038758 59.699824 
L 174.363575 59.482463 
L 174.688391 60.265163 
L 175.013208 60.586657 
L 175.175617 60.2602 
L 175.338025 60.319715 
L 175.500434 60.742294 
L 175.662842 60.829566 
L 175.825251 61.116314 
L 175.987659 60.941086 
L 176.150068 61.00718 
L 176.312476 61.457751 
L 176.637293 60.573993 
L 176.96211 61.08102 
L 177.124519 60.96505 
L 177.286927 61.034913 
L 177.774153 62.059402 
L 177.936561 61.81243 
L 178.261378 61.963599 
L 178.423786 62.166233 
L 178.586195 61.811819 
L 178.748603 61.132304 
L 178.911012 61.328913 
L 179.235829 61.004845 
L 179.398237 61.427694 
L 179.560646 61.002096 
L 179.723054 61.281722 
L 179.885463 61.169057 
L 180.047871 60.809372 
L 180.21028 61.081271 
L 180.372688 61.042413 
L 180.697505 60.373861 
L 180.859914 59.892787 
L 181.022322 60.234101 
L 181.184731 60.277929 
L 181.347139 60.095934 
L 181.509548 60.328154 
L 181.671956 59.938586 
L 181.834364 59.933247 
L 181.996773 59.701167 
L 182.159181 59.051745 
L 182.32159 59.494073 
L 182.483998 59.36057 
L 182.808815 59.532446 
L 183.133632 59.99392 
L 183.296041 59.593172 
L 183.458449 59.636597 
L 184.108083 60.673299 
L 184.595309 60.092514 
L 184.757717 59.662222 
L 185.082534 60.003686 
L 185.244942 59.800483 
L 185.569759 59.96207 
L 185.732168 59.869074 
L 186.219393 60.465957 
L 186.706619 59.618234 
L 186.869027 59.929737 
L 187.356253 59.901207 
L 187.518661 59.7935 
L 187.843478 59.252051 
L 188.005887 59.517772 
L 188.330704 59.676821 
L 188.493112 59.447761 
L 188.980337 60.587146 
L 189.305154 60.304217 
L 189.467563 60.361919 
L 189.629971 60.599519 
L 190.117197 59.52942 
L 190.279605 59.449633 
L 190.442014 59.135898 
L 190.766831 59.331961 
L 190.929239 59.078876 
L 191.254056 59.389993 
L 191.578873 59.153696 
L 191.741282 59.24416 
L 191.90369 59.513229 
L 192.553324 58.902922 
L 192.878141 58.937507 
L 193.202958 59.465507 
L 193.365366 59.416631 
L 193.690183 60.263747 
L 193.852592 59.84081 
L 194.177409 59.607001 
L 194.339817 59.768266 
L 194.502226 59.735836 
L 194.827043 59.247351 
L 194.989451 59.670174 
L 195.15186 59.52491 
L 195.639085 59.674469 
L 195.963902 60.304257 
L 196.12631 60.364749 
L 196.288719 60.000777 
L 196.613536 60.299092 
L 196.775944 60.614936 
L 196.938353 60.469887 
L 197.26317 59.78334 
L 197.912804 59.554132 
L 198.075212 59.44762 
L 198.237621 59.522378 
L 198.562438 59.085184 
L 198.887255 59.156972 
L 199.049663 59.56751 
L 199.212071 59.65954 
L 199.37448 59.562344 
L 199.536888 59.671785 
L 200.024114 58.921046 
L 200.186522 58.995568 
L 200.348931 59.355989 
L 200.511339 59.303664 
L 200.673748 59.057535 
L 200.836156 59.188545 
L 201.323382 58.184804 
L 201.648199 58.434695 
L 201.810607 58.299085 
L 202.135424 57.813269 
L 202.460241 58.151861 
L 202.62265 57.968735 
L 202.947466 58.126924 
L 203.109875 58.541141 
L 203.434692 57.926341 
L 204.084326 57.24697 
L 204.246734 57.136096 
L 204.409143 57.220153 
L 204.73396 56.760593 
L 204.896368 56.991108 
L 205.221185 56.407421 
L 205.383594 56.812544 
L 205.708411 56.740014 
L 205.870819 56.380509 
L 206.520453 56.732755 
L 206.682861 56.424254 
L 207.007678 56.964167 
L 207.332495 56.722842 
L 207.494904 57.063646 
L 207.819721 57.033013 
L 207.982129 56.567104 
L 208.306946 56.802317 
L 208.469355 57.113672 
L 208.631763 57.165128 
L 208.794172 57.520478 
L 208.95658 57.354107 
L 209.118989 57.524572 
L 209.281397 57.263457 
L 209.443806 57.440984 
L 209.606214 57.369947 
L 209.768622 57.524119 
L 209.931031 57.384361 
L 210.093439 57.620523 
L 210.418256 57.491028 
L 210.580665 57.443076 
L 211.230299 58.032895 
L 211.392707 57.739847 
L 211.555116 57.791991 
L 211.879933 57.591821 
L 212.20475 57.710882 
L 212.367158 57.386844 
L 212.691975 57.65073 
L 212.854384 57.547272 
L 213.179201 57.942375 
L 213.504017 57.614879 
L 213.666426 57.685833 
L 213.991243 58.372173 
L 214.640877 57.94052 
L 214.803285 58.183612 
L 214.965694 58.11029 
L 215.452919 58.508162 
L 215.777736 58.124035 
L 215.940145 57.804837 
L 216.102553 57.861786 
L 216.42737 57.478827 
L 216.752187 57.842207 
L 216.914595 58.040623 
L 217.077004 57.898721 
L 217.239412 57.984571 
L 217.564229 58.384077 
L 218.051455 57.775737 
L 218.376272 58.188332 
L 218.701089 57.62368 
L 218.863497 57.560308 
L 219.188314 57.877247 
L 219.350723 57.814806 
L 219.513131 57.52551 
L 219.67554 57.794298 
L 219.837948 57.539224 
L 220.000357 57.547736 
L 220.162765 57.120452 
L 220.812399 57.456688 
L 221.299624 58.457883 
L 221.462033 58.145218 
L 221.624441 58.259949 
L 221.78685 58.567964 
L 221.949258 58.278345 
L 222.111667 58.562179 
L 222.436484 58.640905 
L 222.598892 58.448454 
L 223.086118 59.105325 
L 223.248526 58.628764 
L 223.573343 58.774183 
L 223.735752 58.375365 
L 223.89816 58.348238 
L 224.060568 58.116621 
L 224.385385 58.586642 
L 224.547794 58.524453 
L 225.035019 58.702107 
L 225.197428 58.637638 
L 225.359836 58.327876 
L 225.847062 58.814478 
L 226.00947 59.019992 
L 226.334287 59.083183 
L 226.496696 59.094992 
L 226.659104 59.287807 
L 226.821513 58.822528 
L 226.983921 58.80198 
L 227.471146 59.459395 
L 227.795963 59.367388 
L 228.283189 58.540312 
L 228.445597 58.61045 
L 228.608006 58.313109 
L 228.932823 58.233262 
L 229.095231 57.922992 
L 229.25764 57.957274 
L 229.582457 58.445066 
L 229.907274 58.210786 
L 230.069682 57.842538 
L 230.232091 58.125621 
L 230.394499 58.077676 
L 230.719316 58.192654 
L 230.881724 58.542046 
L 231.36895 58.80629 
L 231.693767 58.509074 
L 232.018584 58.729966 
L 232.343401 59.330658 
L 232.505809 59.418407 
L 232.668218 59.364753 
L 232.830626 59.028901 
L 232.993035 59.361849 
L 233.155443 59.392459 
L 233.317852 59.255348 
L 233.48026 59.444127 
L 233.642669 59.43116 
L 233.805077 59.022707 
L 233.967486 58.936833 
L 234.129894 59.110381 
L 234.292303 58.86458 
L 234.454711 59.207547 
L 235.104345 58.711122 
L 235.59157 58.899541 
L 236.078796 58.461353 
L 236.241204 58.514539 
L 236.403613 58.40558 
L 236.890838 58.946483 
L 237.053247 58.842231 
L 237.378064 59.089094 
L 237.702881 58.627405 
L 238.027697 59.208335 
L 238.514923 58.707176 
L 238.677331 58.628286 
L 238.83974 58.765679 
L 239.002148 58.435726 
L 239.326965 58.497467 
L 239.489374 58.331616 
L 239.651782 58.554314 
L 239.814191 58.551569 
L 239.976599 58.435123 
L 240.139008 58.501742 
L 240.301416 58.41079 
L 240.626233 57.833316 
L 240.95105 57.5267 
L 241.275867 57.154146 
L 241.925501 57.615242 
L 242.087909 57.763284 
L 242.737543 57.220647 
L 243.06236 57.41081 
L 243.224769 57.305197 
L 243.549586 57.585313 
L 243.874403 57.497534 
L 244.036811 57.592572 
L 244.361628 58.026012 
L 244.848854 58.562384 
L 245.011262 58.245638 
L 245.17367 58.543335 
L 245.336079 58.557697 
L 245.823304 59.160469 
L 245.985713 58.931684 
L 246.148121 59.050304 
L 246.472938 58.89695 
L 246.635347 58.693408 
L 246.797755 58.798146 
L 246.960164 58.693874 
L 247.122572 58.334229 
L 247.284981 58.538685 
L 247.447389 58.335203 
L 248.097023 58.674549 
L 248.259432 58.627318 
L 248.746657 57.876765 
L 248.909065 58.056844 
L 249.233882 58.052352 
L 249.396291 57.754564 
L 249.558699 57.934437 
L 249.721108 57.800386 
L 250.045925 58.241571 
L 250.208333 58.076261 
L 250.370742 57.744426 
L 250.695559 57.692514 
L 250.857967 57.506607 
L 251.020376 57.841239 
L 251.182784 57.694169 
L 251.345193 57.717267 
L 251.507601 57.401895 
L 251.67001 57.442587 
L 251.832418 57.340014 
L 252.319643 57.582755 
L 252.64446 57.144103 
L 252.806869 57.271007 
L 253.131686 57.030527 
L 253.294094 56.778656 
L 253.456503 56.845825 
L 254.106137 57.569231 
L 254.430954 57.370864 
L 254.755771 57.13644 
L 254.918179 56.794203 
L 255.242996 57.176876 
L 255.405405 57.180313 
L 255.567813 57.002866 
L 255.730221 57.172572 
L 255.89263 57.14407 
L 256.055038 57.379623 
L 256.217447 57.328932 
L 256.542264 57.598193 
L 257.191898 58.361511 
L 257.516715 57.848785 
L 257.679123 58.048263 
L 258.491166 58.000944 
L 258.653574 57.482983 
L 258.815983 57.616093 
L 259.140799 57.206302 
L 259.303208 57.244543 
L 259.465616 57.426221 
L 259.628025 57.311494 
L 259.952842 57.758105 
L 260.440067 57.431091 
L 260.602476 57.492495 
L 260.764884 57.412411 
L 260.927293 57.572473 
L 261.089701 57.479913 
L 261.414518 57.023501 
L 261.576927 57.236823 
L 262.064152 57.24633 
L 262.226561 57.112398 
L 263.038603 57.575446 
L 263.36342 57.474711 
L 263.688237 57.82563 
L 264.013054 57.996576 
L 264.175462 57.757106 
L 264.337871 57.820952 
L 264.500279 57.736669 
L 264.825096 57.292042 
L 264.987505 57.216 
L 265.149913 56.861532 
L 265.312322 56.96909 
L 265.637139 56.691997 
L 265.799547 56.819422 
L 266.124364 57.207534 
L 266.449181 56.962202 
L 267.423632 57.174149 
L 267.58604 57.393581 
L 268.235674 57.398277 
L 268.560491 57.418793 
L 268.885308 57.968368 
L 269.372534 57.824628 
L 269.69735 58.079706 
L 270.184576 57.846106 
L 270.509393 57.979237 
L 270.83421 58.280736 
L 270.996618 58.294639 
L 271.159027 58.581596 
L 271.321435 58.527811 
L 271.483844 58.314129 
L 271.646252 58.527374 
L 272.295886 58.458091 
L 272.458295 58.585888 
L 273.107929 58.18861 
L 273.270337 58.265219 
L 273.432745 58.502439 
L 273.595154 58.329733 
L 273.757562 58.47255 
L 273.919971 58.222323 
L 274.082379 58.411685 
L 274.732013 57.948387 
L 275.05683 58.125955 
L 275.544056 57.765852 
L 275.868873 57.428168 
L 276.356098 57.563716 
L 276.518507 57.332074 
L 276.843323 57.667826 
L 277.16814 57.479296 
L 277.655366 58.093973 
L 277.817774 58.013147 
L 277.980183 58.252752 
L 278.467408 58.000157 
L 278.792225 58.451071 
L 279.117042 58.27287 
L 279.279451 58.176951 
L 279.604268 58.287878 
L 280.253901 58.932094 
L 280.578718 58.744781 
L 280.741127 59.010968 
L 280.903535 58.985266 
L 281.065944 59.088429 
L 281.390761 59.40143 
L 281.553169 59.498072 
L 281.877986 59.366919 
L 282.040395 59.440166 
L 282.365212 59.426848 
L 282.52762 59.600728 
L 282.690029 59.413445 
L 283.66448 59.801495 
L 283.826888 59.732551 
L 284.151705 59.959207 
L 284.314113 60.104202 
L 284.63893 59.912468 
L 284.801339 59.894078 
L 285.126156 60.089743 
L 285.77579 59.774106 
L 285.938198 60.008776 
L 286.263015 59.928189 
L 286.425424 60.099857 
L 286.587832 59.883427 
L 286.912649 59.966739 
L 287.075058 59.998587 
L 287.237466 60.159794 
L 287.399874 60.017212 
L 287.724691 60.285649 
L 288.049508 60.027838 
L 288.374325 60.224369 
L 288.536734 60.241286 
L 289.023959 60.622028 
L 289.186368 60.334001 
L 289.348776 60.550484 
L 289.511185 60.571304 
L 289.836002 60.430613 
L 289.99841 60.637707 
L 290.323227 60.667342 
L 290.485636 60.788244 
L 290.648044 60.737949 
L 290.810452 60.527754 
L 290.972861 60.632581 
L 291.135269 60.580632 
L 291.460086 60.746682 
L 291.947312 60.18952 
L 292.272129 60.428701 
L 292.596946 60.295469 
L 293.24658 60.368919 
L 293.571397 60.750786 
L 293.733805 60.578872 
L 294.058622 60.648477 
L 294.221031 60.543339 
L 294.545847 60.764073 
L 294.870664 60.498368 
L 295.35789 60.628851 
L 295.520298 60.693328 
L 295.682707 60.930122 
L 295.845115 60.716283 
L 296.007524 60.821518 
L 296.169932 60.749748 
L 296.657158 61.166302 
L 296.819566 61.058573 
L 296.981975 61.181751 
L 297.144383 60.998402 
L 297.4692 61.258127 
L 297.631609 61.485241 
L 297.794017 61.409855 
L 298.281242 61.619703 
L 298.606059 61.305276 
L 299.418102 61.898455 
L 299.58051 61.674558 
L 299.742919 61.914982 
L 300.067736 61.752561 
L 300.879778 61.88905 
L 301.367004 61.328817 
L 301.69182 61.359308 
L 301.854229 61.584213 
L 302.341454 61.691922 
L 302.666271 62.101873 
L 302.991088 61.953421 
L 303.315905 62.059319 
L 303.640722 61.651727 
L 303.803131 61.545374 
L 303.965539 61.289258 
L 304.452765 61.774747 
L 305.102398 61.699349 
L 305.589624 61.183195 
L 305.914441 61.195259 
L 306.888892 60.808587 
L 307.376117 60.999094 
L 307.538526 60.939202 
L 307.700934 60.691044 
L 307.863343 60.874587 
L 308.18816 60.983148 
L 308.512976 61.117711 
L 309.000202 61.029383 
L 309.325019 60.657689 
L 309.487427 60.495434 
L 309.812244 60.656718 
L 310.461878 60.550045 
L 310.786695 60.474613 
L 311.923555 59.477026 
L 312.41078 59.605373 
L 312.735597 59.453651 
L 312.898005 59.418912 
L 313.060414 59.563166 
L 313.222822 59.4485 
L 313.710048 59.534932 
L 313.872456 59.367675 
L 314.684499 59.908274 
L 315.009316 59.481512 
L 315.171724 59.69364 
L 315.496541 59.429526 
L 315.658949 59.455476 
L 315.821358 59.218481 
L 316.146175 59.636327 
L 316.308583 59.459823 
L 316.470992 59.567653 
L 316.6334 59.503843 
L 316.795809 59.27147 
L 317.283034 59.308619 
L 317.445443 59.333086 
L 317.607851 59.556041 
L 317.77026 59.55048 
L 317.932668 59.414894 
L 318.419894 59.974292 
L 318.582302 59.866132 
L 319.231936 60.564201 
L 319.556753 60.129248 
L 319.88157 60.151039 
L 320.043978 60.341901 
L 320.368795 60.282247 
L 320.693612 59.886932 
L 320.856021 59.718025 
L 321.018429 59.955386 
L 321.180838 59.73591 
L 321.343246 59.755535 
L 321.668063 59.485099 
L 322.155289 59.765195 
L 322.317697 59.726128 
L 322.642514 59.89603 
L 322.967331 60.038759 
L 323.292148 59.874874 
L 323.454556 59.992718 
L 323.616965 59.721762 
L 323.779373 59.711493 
L 324.10419 60.050219 
L 324.429007 59.825976 
L 324.591416 60.033658 
L 325.24105 60.028966 
L 325.403458 59.870386 
L 325.728275 60.017052 
L 326.053092 59.879154 
L 326.2155 59.843455 
L 326.865134 60.244203 
L 327.027543 59.970308 
L 327.189951 59.954527 
L 327.35236 60.080006 
L 328.001994 59.86806 
L 328.164402 59.953471 
L 328.326811 59.908304 
L 328.651628 60.192749 
L 329.301262 60.171982 
L 329.46367 59.926577 
L 329.788487 59.999197 
L 329.950895 59.764139 
L 330.113304 59.735109 
L 330.275712 59.8955 
L 330.925346 59.824582 
L 331.57498 60.33416 
L 332.062206 60.230761 
L 332.224614 60.018811 
L 332.549431 60.077993 
L 332.874248 59.774571 
L 333.036657 59.804707 
L 333.199065 59.515659 
L 333.848699 60.088147 
L 334.173516 60.28709 
L 334.335924 60.192518 
L 334.498333 60.384065 
L 334.660741 60.26385 
L 334.985558 60.3258 
L 335.310375 60.144677 
L 335.635192 59.830759 
L 335.797601 59.885804 
L 335.960009 60.07676 
L 336.93446 60.098595 
L 337.908911 60.317978 
L 338.071319 60.259512 
L 338.396136 60.423393 
L 339.04577 60.879356 
L 339.532996 60.733864 
L 339.857813 60.960203 
L 340.832263 61.418412 
L 340.994672 61.229631 
L 341.15708 61.334502 
L 341.319489 61.147965 
L 341.969123 61.232749 
L 342.29394 61.008399 
L 342.618757 60.996417 
L 342.943574 61.023421 
L 343.755616 61.131975 
L 343.918024 61.003549 
L 344.242841 61.099675 
L 344.40525 60.825644 
L 344.892475 61.251096 
L 345.054884 61.224676 
L 345.379701 60.953835 
L 345.542109 60.928765 
L 345.704518 60.744313 
L 345.866926 60.919854 
L 346.191743 60.821267 
L 346.678969 60.880442 
L 347.003786 60.814781 
L 347.328602 60.815667 
L 347.653419 61.054408 
L 348.140645 61.28381 
L 348.465462 61.028699 
L 349.115096 61.470639 
L 349.277504 61.288734 
L 349.927138 61.192902 
L 350.089547 61.403036 
L 350.251955 61.295457 
L 350.576772 61.581205 
L 351.226406 61.691019 
L 351.551223 61.474643 
L 351.713631 61.576765 
L 352.038448 61.484862 
L 352.200857 61.582974 
L 352.363265 61.347713 
L 353.500125 61.223899 
L 353.98735 61.297639 
L 354.474575 61.437165 
L 354.961801 61.694649 
L 355.124209 61.78292 
L 355.286618 61.707177 
L 355.449026 61.814816 
L 356.748294 61.110547 
L 357.560337 61.675719 
L 357.885153 61.41135 
L 358.047562 61.547767 
L 358.372379 61.417045 
L 358.859604 61.598025 
L 359.184421 61.485395 
L 359.834055 61.822777 
L 359.996464 61.831556 
L 360.158872 61.686808 
L 360.808506 62.005967 
L 360.970915 62.201229 
L 361.133323 62.131402 
L 361.295732 61.93696 
L 361.45814 62.097341 
L 361.945365 61.703847 
L 362.107774 61.44369 
L 362.594999 61.273431 
L 362.757408 61.473005 
L 363.244633 61.096554 
L 363.407042 61.086412 
L 363.731859 60.710965 
L 365.518352 60.072194 
L 366.005577 60.234497 
L 366.167986 60.061984 
L 366.330394 60.1045 
L 366.492803 59.978044 
L 366.655211 60.069808 
L 366.980028 59.94873 
L 367.142437 60.158058 
L 367.304845 60.015754 
L 367.629662 60.108086 
L 367.792071 60.065327 
L 367.954479 60.185862 
L 368.116888 60.003573 
L 368.441704 60.159353 
L 369.091338 60.090893 
L 369.253747 60.249163 
L 369.416155 60.174175 
L 369.740972 60.29094 
L 369.903381 60.102372 
L 370.390606 60.448714 
L 370.553015 60.397001 
L 371.04024 60.605548 
L 371.527466 60.419119 
L 371.689874 60.337338 
L 372.501916 60.591377 
L 372.664325 60.531087 
L 372.826733 60.733177 
L 373.313959 60.774328 
L 373.638776 60.95823 
L 373.801184 60.775014 
L 373.963593 60.900431 
L 374.775635 60.529465 
L 374.938044 60.588195 
L 375.425269 60.470041 
L 375.587677 60.558368 
L 376.074903 60.385369 
L 376.886945 60.567411 
L 377.211762 60.41152 
L 378.023805 60.421071 
L 378.186213 60.240701 
L 379.323072 60.61845 
L 379.647889 60.492012 
L 380.297523 60.725281 
L 380.459932 60.894819 
L 380.62234 60.875983 
L 380.784749 60.722106 
L 381.596791 61.363426 
L 381.921608 61.13244 
L 382.084017 61.196841 
L 382.246425 61.087815 
L 382.571242 61.226193 
L 383.058467 61.007437 
L 383.220876 61.138856 
L 383.383284 60.993077 
L 384.195327 61.207829 
L 384.682552 60.944515 
L 384.844961 60.891986 
L 385.007369 60.960277 
L 385.169778 60.830197 
L 385.332186 61.017748 
L 385.657003 60.942406 
L 386.469045 61.303533 
L 386.793862 61.204273 
L 387.118679 61.26021 
L 387.443496 61.126073 
L 387.605905 61.23321 
L 387.768313 61.075441 
L 388.09313 61.33075 
L 388.417947 61.206223 
L 388.742764 61.494457 
L 389.22999 61.118724 
L 389.392398 61.241075 
L 390.042032 61.136897 
L 390.366849 61.26612 
L 390.529257 61.3432 
L 390.691666 61.20561 
L 390.854074 61.293193 
L 391.016483 61.154394 
L 391.503708 61.38358 
L 391.990934 61.197712 
L 392.315751 60.943967 
L 392.640568 60.879041 
L 392.965385 60.901679 
L 393.777427 61.357935 
L 394.751878 61.531576 
L 395.239103 61.927554 
L 395.401512 61.751807 
L 395.726329 61.838879 
L 395.888737 61.759633 
L 396.375963 62.116396 
L 396.700779 61.989952 
L 396.863188 61.892553 
L 397.350413 61.903777 
L 397.67523 61.866771 
L 398.000047 61.953832 
L 398.162456 61.992526 
L 398.487273 61.890071 
L 398.487273 61.890071 
" clip-path="url(#p0c1b4b23c3)" style="fill: none; stroke-dasharray: 2,3.3; stroke-dashoffset: 0; stroke: #0000ff; stroke-width: 2"/>
   </g>
   <g id="line2d_17">
    <path d="M 73.832727 286.994711 
L 73.995136 282.729146 
L 74.157544 284.914525 
L 74.319953 295.488 
L 74.482361 280.101249 
L 74.64477 289.023921 
L 74.969587 235.277654 
L 75.131995 248.942 
L 75.294404 251.154358 
L 75.456812 234.670775 
L 75.944037 158.362971 
L 76.268854 136.564056 
L 76.431263 133.086717 
L 76.593671 112.311155 
L 76.75608 119.380847 
L 76.918488 117.317097 
L 77.080897 113.042996 
L 77.243305 96.63915 
L 77.405714 93.195376 
L 77.568122 80.156207 
L 77.730531 80.773705 
L 77.892939 79.254955 
L 78.055348 73.782891 
L 78.380165 90.039545 
L 78.542573 78.022162 
L 78.704982 78.00879 
L 78.86739 68.296016 
L 79.029799 68.275972 
L 79.192207 71.365057 
L 79.354615 78.958406 
L 80.004249 58.892646 
L 80.166658 61.43452 
L 80.329066 57.622119 
L 80.491475 57.978437 
L 80.653883 54.213388 
L 80.816292 61.293422 
L 80.9787 62.77459 
L 81.141109 65.552211 
L 81.303517 63.389422 
L 81.465926 65.347447 
L 81.790743 75.962397 
L 81.953151 77.430059 
L 82.277968 71.092783 
L 82.440377 72.436635 
L 82.602785 75.553738 
L 82.927602 70.541139 
L 83.09001 74.74121 
L 83.252419 66.772 
L 83.414827 65.990888 
L 83.577236 60.064296 
L 83.739644 59.430293 
L 84.064461 55.101376 
L 84.714095 63.195474 
L 85.038912 60.832928 
L 85.201321 58.27267 
L 85.363729 62.082432 
L 85.688546 64.107645 
L 85.850955 63.818931 
L 86.013363 66.664352 
L 86.33818 59.663919 
L 86.500588 63.094753 
L 86.662997 62.87999 
L 86.825405 66.476936 
L 86.987814 67.121759 
L 87.150222 70.729079 
L 87.312631 68.616678 
L 87.475039 69.353754 
L 87.637448 67.303828 
L 87.799856 68.983314 
L 87.962265 67.388084 
L 88.287082 72.446922 
L 88.44949 73.058307 
L 88.611899 72.168205 
L 89.099124 79.734891 
L 89.261533 77.232164 
L 89.423941 77.177066 
L 89.748758 76.270609 
L 89.911166 76.230095 
L 90.235983 77.248635 
L 90.398392 78.903617 
L 90.5608 78.564936 
L 90.723209 75.567457 
L 90.885617 76.622348 
L 91.048026 75.015601 
L 91.210434 74.710298 
L 91.372843 73.950515 
L 91.535251 75.935785 
L 91.69766 74.831898 
L 91.860068 77.167007 
L 92.022477 77.306742 
L 92.184885 76.028697 
L 92.347294 76.757183 
L 92.509702 75.837378 
L 92.672111 76.690797 
L 92.834519 75.918708 
L 92.996928 74.373882 
L 93.159336 75.447705 
L 93.321745 73.895525 
L 93.971378 80.524315 
L 94.133787 80.121047 
L 94.296195 78.847965 
L 94.458604 80.384308 
L 94.783421 78.490272 
L 94.945829 76.324124 
L 95.270646 79.955163 
L 95.433055 80.853811 
L 95.92028 73.516949 
L 96.245097 75.160259 
L 96.569914 72.303091 
L 97.057139 77.490717 
L 97.219548 77.504764 
L 97.544365 77.908631 
L 97.706773 78.214747 
L 98.03159 75.455586 
L 98.193999 75.674236 
L 98.356407 77.063236 
L 98.518816 74.847811 
L 98.681224 74.918841 
L 98.843633 73.775886 
L 99.006041 74.954837 
L 99.16845 74.938521 
L 99.330858 74.342996 
L 99.655675 77.40223 
L 99.818084 75.788522 
L 99.980492 76.590328 
L 100.142901 76.501913 
L 100.305309 77.460592 
L 100.467717 77.024354 
L 100.630126 75.913189 
L 100.792534 75.888511 
L 100.954943 75.993257 
L 101.117351 74.716233 
L 101.442168 76.628723 
L 101.604577 74.678513 
L 101.929394 77.346596 
L 102.091802 76.833544 
L 102.254211 77.179261 
L 102.416619 76.763596 
L 102.903845 80.25335 
L 103.066253 79.473207 
L 103.228662 79.696386 
L 103.39107 79.221998 
L 103.715887 81.317678 
L 104.040704 78.601609 
L 104.690338 81.950738 
L 105.015155 80.860324 
L 105.177563 81.332331 
L 105.339972 80.278997 
L 105.50238 80.392677 
L 105.664789 79.932324 
L 105.989606 76.665512 
L 106.152014 76.765256 
L 106.314423 77.601392 
L 106.476831 77.76382 
L 106.801648 76.99678 
L 106.964057 77.774927 
L 107.126465 77.446176 
L 107.288874 77.695749 
L 107.451282 76.556652 
L 107.776099 78.060703 
L 107.938507 77.509007 
L 108.263324 79.466131 
L 108.425733 79.454252 
L 108.588141 78.503865 
L 108.75055 79.461497 
L 108.912958 79.206054 
L 109.075367 79.512694 
L 109.237775 80.729234 
L 109.562592 78.116757 
L 109.725001 79.258432 
L 110.049818 78.54169 
L 110.212226 78.480521 
L 110.374635 79.772562 
L 110.537043 79.469867 
L 110.699452 79.770809 
L 110.86186 79.391678 
L 111.186677 76.746565 
L 111.349085 77.276119 
L 111.511494 76.813718 
L 111.673902 75.895539 
L 111.836311 76.322392 
L 111.998719 77.354851 
L 112.161128 76.571132 
L 112.323536 77.49187 
L 112.648353 76.400534 
L 112.97317 75.555119 
L 113.135579 75.750724 
L 113.297987 75.231402 
L 113.460396 73.686565 
L 113.622804 73.415136 
L 114.11003 75.716925 
L 114.434847 74.807283 
L 114.597255 75.045142 
L 114.759663 74.861696 
L 115.246889 76.362676 
L 115.409297 75.549809 
L 115.571706 74.075239 
L 115.896523 75.711838 
L 116.058931 75.666283 
L 116.22134 76.618651 
L 116.383748 76.198804 
L 116.546157 76.224968 
L 116.708565 76.642178 
L 117.033382 77.737596 
L 117.195791 78.026681 
L 117.683016 80.552077 
L 117.845425 80.751159 
L 118.007833 80.720529 
L 118.170241 79.641204 
L 118.33265 80.097696 
L 118.657467 78.810931 
L 118.819875 79.007891 
L 118.982284 79.636637 
L 119.144692 79.783326 
L 119.469509 81.192181 
L 119.631918 81.907048 
L 120.281552 79.96474 
L 120.44396 80.83489 
L 120.606369 80.838981 
L 120.768777 80.16599 
L 121.256003 82.264291 
L 121.418411 82.421758 
L 121.58082 83.074892 
L 121.905636 82.700071 
L 122.068045 83.091074 
L 122.230453 83.141447 
L 122.392862 83.549408 
L 122.55527 84.257966 
L 122.717679 84.143957 
L 123.042496 85.156827 
L 123.367313 84.495629 
L 123.529721 85.164666 
L 123.69213 84.91714 
L 123.854538 85.859689 
L 124.016947 85.695438 
L 124.341764 86.426143 
L 124.504172 86.38648 
L 124.666581 85.885372 
L 124.991398 86.709928 
L 125.153806 85.574188 
L 125.80344 88.305087 
L 126.128257 88.527439 
L 126.453074 86.946495 
L 126.615482 87.02828 
L 126.777891 87.287115 
L 126.940299 86.607944 
L 127.102708 85.364473 
L 127.427525 87.183856 
L 127.752342 86.997627 
L 127.91475 86.918354 
L 128.239567 84.542894 
L 128.401976 84.501345 
L 128.889201 82.99888 
L 129.214018 82.607465 
L 129.376426 82.649703 
L 129.863652 81.828459 
L 130.02606 81.150242 
L 130.188469 81.815972 
L 130.350877 81.729734 
L 130.838103 80.316487 
L 131.000511 80.66383 
L 131.16292 80.436311 
L 131.650145 79.048232 
L 131.812554 79.141067 
L 131.974962 79.426019 
L 132.137371 79.063528 
L 132.299779 78.346387 
L 132.462187 78.841231 
L 132.949413 77.140587 
L 133.111821 77.244694 
L 133.599047 76.936544 
L 133.761455 76.346562 
L 133.923864 76.723995 
L 134.248681 76.753087 
L 134.411089 77.119003 
L 134.573498 76.629853 
L 134.735906 76.744337 
L 134.898315 77.436146 
L 135.060723 77.553665 
L 135.223132 77.323916 
L 135.38554 77.643422 
L 135.710357 76.344421 
L 135.872765 76.246579 
L 136.035174 77.018556 
L 136.197582 77.13126 
L 136.359991 77.784132 
L 136.522399 77.923348 
L 136.847216 76.912137 
L 137.009625 76.940383 
L 137.172033 76.691489 
L 137.334442 76.120434 
L 137.49685 76.399228 
L 137.659259 76.116252 
L 137.821667 76.753782 
L 137.984076 76.512017 
L 138.146484 77.032847 
L 138.308893 75.734909 
L 138.796118 76.772506 
L 138.958527 77.365104 
L 139.120935 77.100671 
L 139.283343 77.764608 
L 139.445752 77.442514 
L 139.770569 77.990652 
L 139.932977 78.001407 
L 140.095386 77.643158 
L 140.420203 78.056601 
L 140.74502 76.55254 
L 140.907428 76.817174 
L 141.232245 76.630146 
L 141.394654 77.163031 
L 141.557062 77.247558 
L 141.719471 77.517606 
L 142.044288 76.573855 
L 142.206696 76.422335 
L 142.369105 76.775613 
L 142.531513 76.731338 
L 142.693922 76.482128 
L 142.85633 76.706187 
L 143.018738 77.500651 
L 143.181147 76.868699 
L 143.343555 77.065341 
L 143.505964 76.715391 
L 143.668372 77.247488 
L 143.830781 77.040853 
L 144.155598 75.121697 
L 144.480415 74.784014 
L 144.642823 74.944507 
L 144.805232 74.760134 
L 145.130049 75.337965 
L 145.292457 75.067973 
L 145.454866 75.442313 
L 145.617274 75.37315 
L 145.779683 75.571461 
L 145.942091 75.584495 
L 146.1045 75.751784 
L 146.266908 76.122391 
L 146.429316 75.480763 
L 146.591725 75.525718 
L 146.754133 74.878561 
L 146.916542 74.692997 
L 147.07895 74.715614 
L 147.403767 73.272796 
L 147.566176 72.942716 
L 147.728584 72.984521 
L 147.890993 72.839305 
L 148.21581 73.962588 
L 148.378218 74.046303 
L 148.703035 73.189152 
L 148.865444 73.649472 
L 149.027852 73.751522 
L 149.190261 73.490991 
L 149.352669 73.619591 
L 149.677486 72.850496 
L 149.839894 73.225778 
L 150.002303 73.278151 
L 150.32712 72.246083 
L 150.651937 72.011051 
L 150.814345 71.904948 
L 150.976754 72.025073 
L 151.139162 71.98472 
L 151.301571 72.407921 
L 151.463979 71.657339 
L 151.626388 71.705552 
L 151.788796 71.192065 
L 152.276022 70.834041 
L 152.43843 70.971846 
L 152.763247 72.009192 
L 152.925656 72.255936 
L 153.088064 72.925806 
L 153.250473 72.556832 
L 153.575289 71.415341 
L 153.737698 71.584872 
L 153.900106 72.138442 
L 154.062515 72.077844 
L 154.224923 71.290752 
L 154.387332 71.308751 
L 154.54974 71.789353 
L 155.036966 70.301206 
L 155.199374 70.464137 
L 155.524191 69.575036 
L 155.6866 69.201116 
L 155.849008 69.236077 
L 156.011417 69.807651 
L 156.173825 69.371839 
L 156.336234 69.542296 
L 156.498642 69.170299 
L 156.661051 69.619568 
L 156.985867 68.882098 
L 157.310684 68.193404 
L 157.473093 68.285646 
L 157.635501 67.772462 
L 157.79791 68.306432 
L 157.960318 68.44465 
L 158.122727 68.199897 
L 158.285135 68.447744 
L 158.447544 69.064192 
L 158.609952 68.672796 
L 158.772361 67.882541 
L 159.097178 68.853754 
L 159.259586 68.48268 
L 159.421995 67.627403 
L 159.746812 68.088621 
L 159.90922 67.976212 
L 160.071629 67.545858 
L 160.234037 67.757415 
L 160.396445 67.078951 
L 160.558854 67.690214 
L 160.883671 67.44609 
L 161.046079 67.843612 
L 161.208488 67.916825 
L 161.533305 66.954494 
L 161.695713 66.994685 
L 161.858122 66.781707 
L 162.02053 65.787391 
L 162.182939 65.935769 
L 162.345347 65.862794 
L 162.670164 66.200285 
L 162.994981 66.667884 
L 163.482207 65.795066 
L 163.644615 66.351834 
L 163.807024 66.29417 
L 163.969432 65.967849 
L 164.13184 65.916433 
L 164.294249 66.11182 
L 164.781474 65.650294 
L 164.943883 65.945166 
L 165.106291 65.345453 
L 165.431108 64.995058 
L 165.593517 65.022172 
L 165.755925 65.512554 
L 165.918334 65.170343 
L 166.080742 65.167318 
L 166.405559 64.743573 
L 166.892785 64.542534 
L 167.217602 64.886682 
L 167.38001 64.717514 
L 168.354461 66.103069 
L 168.516869 65.659436 
L 168.679278 65.547888 
L 169.166503 63.878796 
L 169.816137 65.069863 
L 169.978546 64.958781 
L 170.140954 65.464274 
L 170.465771 64.426776 
L 170.62818 64.556732 
L 170.790588 64.366165 
L 170.952996 64.835753 
L 171.277813 64.255897 
L 171.440222 64.759854 
L 171.60263 64.254998 
L 171.765039 64.724372 
L 171.927447 64.552863 
L 172.089856 64.657491 
L 172.252264 64.181291 
L 172.414673 64.239115 
L 172.73949 63.954913 
L 172.901898 64.025113 
L 173.226715 63.320611 
L 173.713941 64.205438 
L 174.038758 64.718188 
L 174.363575 64.484639 
L 174.688391 65.251255 
L 175.013208 65.556767 
L 175.175617 65.222358 
L 175.338025 65.273946 
L 175.500434 65.688624 
L 175.662842 65.768019 
L 175.825251 66.046917 
L 175.987659 65.863862 
L 176.150068 65.922155 
L 176.312476 66.364949 
L 176.637293 65.465711 
L 176.96211 65.957354 
L 177.124519 65.833729 
L 177.286927 65.895961 
L 177.774153 66.8977 
L 177.936561 66.643192 
L 178.098969 66.684909 
L 178.261378 66.103314 
L 178.586195 66.394283 
L 178.748603 66.041572 
L 178.911012 66.230605 
L 179.398237 65.493362 
L 179.723054 66.18079 
L 179.885463 66.060634 
L 180.047871 65.693482 
L 180.21028 65.957935 
L 180.372688 65.911654 
L 180.697505 65.228324 
L 180.859914 64.739895 
L 181.022322 65.073877 
L 181.184731 65.110393 
L 181.347139 64.92111 
L 181.509548 65.146063 
L 181.671956 64.74925 
L 181.834364 64.736687 
L 181.996773 64.497406 
L 182.159181 63.840805 
L 182.32159 64.275974 
L 182.483998 64.135334 
L 182.808815 64.292999 
L 183.133632 64.740347 
L 183.296041 64.340128 
L 183.458449 64.376531 
L 184.108083 65.38535 
L 184.595309 64.783868 
L 184.757717 64.346718 
L 185.082534 64.674525 
L 185.244942 64.464522 
L 185.569759 64.612571 
L 185.732168 64.512835 
L 186.056985 65.071486 
L 186.219393 65.534334 
L 186.381802 65.55177 
L 186.869027 64.725335 
L 187.356253 64.676252 
L 187.843478 64.342061 
L 188.005887 64.016738 
L 188.168295 64.275324 
L 188.65552 64.393352 
L 189.142746 65.510267 
L 189.305154 65.424462 
L 189.467563 65.474982 
L 189.629971 65.092579 
L 189.79238 65.323231 
L 190.442014 64.256283 
L 190.766831 64.438142 
L 190.929239 64.177984 
L 191.091648 64.431205 
L 191.254056 64.475015 
L 191.578873 64.22471 
L 191.741282 64.308199 
L 191.90369 64.570312 
L 192.553324 63.93237 
L 192.878141 63.953251 
L 194.015 65.664538 
L 194.339817 65.08043 
L 194.502226 65.234121 
L 194.827043 64.730896 
L 194.989451 65.146378 
L 195.15186 64.993793 
L 195.476677 65.131483 
L 195.639085 65.527776 
L 195.801493 65.517285 
L 196.12631 65.812968 
L 196.288719 65.441779 
L 196.613536 65.72934 
L 196.775944 66.03802 
L 196.938353 65.894579 
L 197.26317 65.193774 
L 197.912804 64.936277 
L 198.075212 64.822739 
L 198.237621 64.891261 
L 198.400029 64.580909 
L 198.562438 64.614519 
L 198.724846 64.473852 
L 199.049663 64.486091 
L 199.212071 64.889204 
L 199.37448 64.974239 
L 199.536888 64.648328 
L 199.699297 64.751075 
L 199.861705 64.458979 
L 200.024114 64.396789 
L 200.186522 64.033153 
L 200.348931 64.101025 
L 200.511339 64.454448 
L 200.673748 64.39567 
L 200.836156 64.143352 
L 200.998565 64.267708 
L 201.323382 63.783702 
L 201.48579 63.900773 
L 201.648199 63.794948 
L 201.810607 63.913541 
L 202.135424 63.413529 
L 202.460241 63.737997 
L 202.62265 63.547836 
L 202.947466 63.692007 
L 203.109875 64.099241 
L 203.434692 63.53431 
L 204.084326 62.54816 
L 204.246734 62.594309 
L 204.409143 62.476931 
L 204.571551 62.554257 
L 204.73396 62.405748 
L 204.896368 62.629277 
L 205.221185 62.031669 
L 205.383594 62.429856 
L 205.708411 62.350049 
L 205.870819 61.983652 
L 206.520453 62.308498 
L 206.682861 61.993189 
L 207.007678 62.519536 
L 207.332495 62.264711 
L 207.494904 62.598789 
L 207.819721 62.554754 
L 207.982129 62.082168 
L 208.306946 62.304076 
L 208.469355 62.608802 
L 208.631763 62.653645 
L 208.794172 63.002399 
L 208.95658 62.829447 
L 209.118989 62.993346 
L 209.281397 62.725682 
L 209.443806 62.896675 
L 209.606214 62.819121 
L 209.931031 63.288706 
L 210.255848 63.019584 
L 210.580665 62.945155 
L 211.230299 63.525379 
L 211.392707 63.225854 
L 211.555116 63.271537 
L 211.879933 63.058488 
L 212.20475 63.164733 
L 212.367158 62.834308 
L 212.691975 63.085466 
L 212.854384 62.975667 
L 213.179201 63.358131 
L 213.504017 63.018054 
L 213.666426 63.08274 
L 213.991243 63.756588 
L 214.153651 63.791673 
L 214.640877 63.346291 
L 214.803285 63.583162 
L 214.965694 63.503634 
L 215.452919 63.882972 
L 215.777736 63.48656 
L 215.940145 63.161241 
L 216.102553 63.217058 
L 216.42737 62.821913 
L 216.752187 63.173164 
L 216.914595 63.365536 
L 217.077004 63.217603 
L 217.239412 63.297436 
L 217.401821 63.599277 
L 217.564229 63.506696 
L 217.726638 63.592376 
L 218.051455 63.08663 
L 218.376272 63.487303 
L 218.701089 62.910783 
L 218.863497 62.841497 
L 219.188314 63.158331 
L 219.350723 63.090002 
L 219.513131 62.794832 
L 219.67554 63.057759 
L 219.837948 62.796837 
L 220.000357 62.799514 
L 220.162765 62.665935 
L 220.325173 62.233456 
L 220.974807 62.546772 
L 221.462033 63.530087 
L 221.624441 63.638906 
L 221.78685 63.941024 
L 221.949258 63.64552 
L 222.111667 63.923482 
L 222.436484 63.990502 
L 222.598892 63.792216 
L 223.086118 64.431663 
L 223.248526 63.949318 
L 223.573343 64.083209 
L 223.735752 63.678645 
L 223.89816 63.645784 
L 224.060568 63.883698 
L 224.222977 63.64636 
L 224.385385 63.897053 
L 224.710202 63.88128 
L 224.872611 63.864671 
L 225.035019 63.989726 
L 225.197428 63.91959 
L 225.359836 63.604173 
L 225.847062 64.073881 
L 226.00947 64.273788 
L 226.334287 64.325801 
L 226.496696 64.332038 
L 226.659104 64.519294 
L 226.821513 64.086373 
L 226.983921 64.060249 
L 227.471146 64.701007 
L 227.795963 64.597953 
L 228.12078 63.927141 
L 228.283189 63.861112 
L 228.445597 63.925666 
L 228.608006 63.633727 
L 228.932823 63.542749 
L 229.095231 63.226931 
L 229.25764 63.255676 
L 229.582457 63.73243 
L 229.907274 63.286246 
L 230.069682 63.178097 
L 230.232091 63.455645 
L 230.394499 63.402177 
L 230.719316 63.506142 
L 230.881724 63.850045 
L 231.36895 64.09789 
L 231.693767 63.789797 
L 232.180992 64.395703 
L 232.343401 64.641007 
L 232.505809 64.390269 
L 232.668218 64.47276 
L 232.830626 64.414003 
L 232.993035 64.741462 
L 233.155443 64.766594 
L 233.317852 64.624016 
L 233.48026 64.807338 
L 233.805077 64.773909 
L 233.967486 64.360457 
L 234.129894 64.528515 
L 234.292303 64.277236 
L 234.454711 64.614736 
L 234.779528 64.464189 
L 235.104345 64.162589 
L 235.59157 64.334604 
L 236.078796 63.880111 
L 236.241204 63.927883 
L 236.403613 63.813522 
L 236.890838 64.338282 
L 237.053247 64.22867 
L 237.378064 64.464846 
L 237.702881 63.992512 
L 238.027697 64.56284 
L 238.677331 63.99577 
L 238.83974 64.127885 
L 239.002148 63.792665 
L 239.326965 63.843902 
L 239.489374 63.672815 
L 239.651782 63.890286 
L 239.814191 63.882325 
L 239.976599 63.760674 
L 240.139008 63.822096 
L 240.301416 63.725959 
L 240.626233 63.138144 
L 240.95105 62.821227 
L 241.275867 62.438413 
L 241.763092 62.640471 
L 242.087909 63.022073 
L 242.737543 62.459229 
L 243.06236 62.639346 
L 243.224769 62.528725 
L 243.549586 62.798854 
L 243.874403 62.701126 
L 244.036811 62.791202 
L 244.361628 63.21475 
L 244.848854 63.736354 
L 245.011262 63.804051 
L 245.17367 63.482641 
L 245.498487 63.98056 
L 245.660896 64.091724 
L 245.823304 64.369528 
L 245.985713 64.135835 
L 246.148121 64.254246 
L 246.472938 64.09111 
L 246.635347 63.882691 
L 246.797755 63.982561 
L 246.960164 63.87343 
L 247.122572 63.508935 
L 247.284981 63.708551 
L 247.447389 63.500237 
L 248.097023 63.820346 
L 248.42184 63.523476 
L 248.746657 63.024614 
L 248.909065 63.199923 
L 249.233882 63.185915 
L 249.396291 62.883383 
L 249.558699 63.05852 
L 249.721108 62.919742 
L 250.045925 63.351499 
L 250.208333 63.181488 
L 250.370742 62.84496 
L 250.695559 62.78369 
L 250.857967 63.133538 
L 251.182784 62.79892 
L 251.345193 62.817352 
L 251.507601 62.497322 
L 251.67001 62.533365 
L 251.832418 62.426152 
L 251.994827 62.493713 
L 252.157235 62.396589 
L 252.482052 62.557926 
L 252.64446 62.264873 
L 252.806869 62.387134 
L 253.131686 62.137394 
L 253.294094 61.880905 
L 253.456503 61.943465 
L 254.106137 62.648518 
L 254.430954 62.441024 
L 254.755771 62.197506 
L 254.918179 61.850734 
L 255.242996 62.224361 
L 255.405405 62.223288 
L 255.567813 62.041338 
L 255.730221 62.206549 
L 255.89263 62.17356 
L 256.055038 62.404635 
L 256.217447 62.349473 
L 256.542264 62.609817 
L 257.191898 63.355394 
L 257.516715 62.833845 
L 257.679123 63.028924 
L 257.841532 62.584033 
L 258.815983 62.645539 
L 259.140799 62.23951 
L 259.303208 62.273348 
L 259.465616 62.450631 
L 259.628025 62.353183 
L 259.790433 62.410473 
L 260.11525 62.847812 
L 260.602476 62.590419 
L 260.764884 62.50591 
L 260.927293 62.661554 
L 261.089701 62.564584 
L 261.414518 62.099375 
L 261.576927 62.30831 
L 262.064152 62.304701 
L 262.226561 62.166412 
L 263.038603 62.607788 
L 263.36342 62.498435 
L 263.688237 62.840767 
L 263.850645 62.763693 
L 264.175462 62.926073 
L 264.337871 62.682609 
L 264.500279 62.742209 
L 264.825096 62.289076 
L 264.987505 62.208793 
L 265.149913 61.85009 
L 265.312322 61.95342 
L 265.637139 61.667893 
L 265.799547 61.791112 
L 266.124364 62.170833 
L 266.286772 62.312396 
L 266.611589 62.058676 
L 267.098815 62.079381 
L 267.261223 61.991983 
L 267.748449 62.329361 
L 267.910857 62.395951 
L 268.073266 62.246319 
L 268.398083 62.391307 
L 268.560491 62.358278 
L 268.885308 62.899634 
L 269.372534 62.743618 
L 269.534942 62.94593 
L 270.022167 62.9041 
L 270.509393 62.78176 
L 271.159027 63.18296 
L 271.321435 63.465664 
L 271.483844 63.407914 
L 271.646252 63.61698 
L 272.295886 63.531051 
L 272.458295 63.654703 
L 273.107929 63.240915 
L 273.270337 63.313412 
L 273.432745 63.546529 
L 273.595154 63.369725 
L 273.757562 63.508451 
L 273.919971 63.25414 
L 274.082379 63.439424 
L 274.732013 62.959882 
L 275.05683 63.129366 
L 275.706464 62.573662 
L 276.031281 62.228532 
L 276.518507 62.352442 
L 276.843323 62.680168 
L 277.16814 62.483637 
L 277.655366 63.086361 
L 277.817774 63.001563 
L 277.980183 63.237203 
L 278.467408 62.972749 
L 278.792225 63.415789 
L 279.117042 63.229739 
L 279.279451 63.129905 
L 279.604268 63.23302 
L 280.253901 63.861684 
L 280.578718 63.666633 
L 280.741127 63.92896 
L 280.903535 63.899403 
L 281.065944 63.998718 
L 281.390761 64.304041 
L 281.553169 64.396852 
L 281.877986 64.258057 
L 282.040395 64.327492 
L 282.365212 64.306568 
L 282.52762 64.476653 
L 282.690029 64.285581 
L 283.66448 64.651022 
L 283.826888 64.578331 
L 283.989296 64.643651 
L 284.314113 64.978659 
L 284.63893 64.77942 
L 284.801339 64.757287 
L 285.126156 64.945481 
L 285.77579 64.614972 
L 285.938198 64.845939 
L 286.263015 64.782274 
L 286.425424 64.950236 
L 286.587832 64.730107 
L 286.912649 64.806036 
L 287.399874 64.920173 
L 287.724691 65.181171 
L 288.049508 64.915942 
L 288.374325 65.105078 
L 288.536734 65.118306 
L 289.023959 65.488014 
L 289.186368 65.19632 
L 289.348776 65.409142 
L 289.511185 65.426306 
L 289.836002 65.27832 
L 289.99841 65.481775 
L 290.323227 65.504147 
L 290.485636 65.621425 
L 290.648044 65.567513 
L 290.810452 65.353705 
L 290.972861 65.454926 
L 291.297678 65.276071 
L 291.622495 65.434999 
L 291.947312 65.105171 
L 292.10972 65.048335 
L 292.596946 65.276548 
L 293.24658 65.335261 
L 293.571397 65.709792 
L 293.733805 65.534218 
L 294.058622 65.59652 
L 294.221031 65.487739 
L 294.545847 65.701202 
L 294.870664 65.428247 
L 295.35789 65.547894 
L 295.520298 65.608771 
L 295.682707 65.841969 
L 295.845115 65.624539 
L 296.007524 65.726189 
L 296.169932 65.650839 
L 296.657158 66.056684 
L 296.819566 65.945395 
L 297.144383 66.199448 
L 297.306792 66.012588 
L 297.631609 66.418279 
L 297.794017 66.339317 
L 298.281242 66.538473 
L 298.606059 66.216943 
L 299.418102 66.792453 
L 299.58051 66.565038 
L 299.742919 66.801949 
L 300.067736 66.632517 
L 300.879778 66.751565 
L 301.529412 66.21165 
L 301.69182 66.256753 
L 301.854229 66.478172 
L 302.341454 66.578766 
L 302.666271 66.981785 
L 302.991088 66.826421 
L 303.315905 66.925426 
L 303.640722 66.510962 
L 303.803131 66.401179 
L 303.965539 66.141639 
L 304.452765 66.616884 
L 305.102398 66.527894 
L 305.589624 66.001596 
L 305.914441 66.00692 
L 306.888892 65.696615 
L 307.538526 65.738088 
L 307.700934 65.486599 
L 307.863343 65.666816 
L 308.350568 65.773852 
L 308.675385 65.901701 
L 309.16261 65.692954 
L 309.487427 65.281637 
L 309.649836 65.421997 
L 310.29947 65.355102 
L 310.624287 65.375776 
L 310.949104 65.138582 
L 311.273921 64.809475 
L 311.598738 64.386387 
L 311.923555 64.2832 
L 312.41078 64.401739 
L 312.735597 64.2435 
L 312.898005 64.205509 
L 313.060414 64.346516 
L 313.222822 64.228607 
L 313.385231 64.253724 
L 313.547639 64.126597 
L 313.710048 64.231317 
L 313.872456 64.178347 
L 314.684499 64.702737 
L 315.009316 64.272132 
L 315.171724 64.481038 
L 315.496541 64.210493 
L 315.658949 64.233235 
L 315.821358 64.019863 
L 316.146175 64.431277 
L 316.308583 64.251564 
L 316.470992 64.356189 
L 316.6334 64.289178 
L 316.795809 64.053609 
L 317.445443 64.019979 
L 317.607851 64.041293 
L 317.77026 64.260967 
L 317.932668 64.252282 
L 318.419894 64.80205 
L 318.582302 64.690689 
L 319.231936 65.375995 
L 319.556753 64.934685 
L 319.88157 64.950137 
L 320.043978 65.137835 
L 320.368795 65.071866 
L 320.693612 64.670253 
L 320.856021 64.498204 
L 321.018429 64.732426 
L 321.180838 64.770151 
L 321.668063 64.270948 
L 322.317697 64.760596 
L 322.642514 64.736284 
L 322.967331 64.872706 
L 323.292148 64.702531 
L 323.454556 64.817236 
L 323.616965 64.543146 
L 323.779373 64.529746 
L 324.10419 64.862222 
L 324.429007 64.631746 
L 324.591416 64.836318 
L 325.403458 64.749449 
L 325.565867 64.587928 
L 325.890684 64.728424 
L 326.377909 64.766781 
L 326.702726 65.066807 
L 326.865134 65.085378 
L 327.027543 64.808379 
L 327.189951 64.789499 
L 327.35236 64.911883 
L 328.001994 64.687595 
L 328.164402 64.76993 
L 328.326811 64.721691 
L 328.651628 65.000005 
L 328.976445 64.970518 
L 329.301262 64.75342 
L 329.788487 64.850738 
L 329.950895 64.612605 
L 330.113304 64.594672 
L 330.275712 64.751988 
L 330.925346 64.668806 
L 331.57498 65.166182 
L 332.062206 65.053672 
L 332.224614 64.838692 
L 332.549431 64.891827 
L 333.036657 64.316789 
L 333.361473 64.455411 
L 334.011107 65.079231 
L 334.173516 65.097433 
L 334.335924 64.999863 
L 334.498333 65.188417 
L 334.660741 65.065213 
L 334.985558 65.121194 
L 335.310375 64.934118 
L 335.635192 64.614261 
L 335.797601 64.666343 
L 335.960009 64.854339 
L 336.93446 64.85849 
L 338.558545 65.373077 
L 338.883362 65.730469 
L 339.532996 65.521949 
L 339.857813 65.742445 
L 340.832263 66.183211 
L 340.994672 65.991535 
L 341.15708 66.093515 
L 341.319489 65.90409 
L 341.969123 65.977358 
L 342.29394 65.747271 
L 342.618757 65.729566 
L 342.943574 65.75086 
L 343.755616 65.8452 
L 343.918024 65.713942 
L 344.242841 65.804414 
L 344.40525 65.52756 
L 344.892475 65.944565 
L 345.054884 65.915337 
L 345.379701 65.638888 
L 345.542109 65.682553 
L 345.866926 65.493276 
L 346.029335 65.66588 
L 346.51656 65.567541 
L 346.678969 65.649011 
L 347.003786 65.577683 
L 347.328602 65.572915 
L 347.653419 65.806016 
L 347.978236 65.983461 
L 348.140645 65.830817 
L 348.303053 65.874404 
L 348.465462 65.785036 
L 349.115096 66.215758 
L 349.277504 66.031057 
L 349.927138 65.924074 
L 350.089547 65.825715 
L 350.576772 66.313195 
L 351.226406 66.411934 
L 351.551223 66.19004 
L 351.713631 66.289408 
L 352.038448 66.192006 
L 352.200857 66.287373 
L 352.363265 66.04937 
L 353.500125 65.919861 
L 353.98735 65.985438 
L 354.474575 66.11683 
L 354.961801 66.366208 
L 355.124209 66.451784 
L 355.286618 66.373348 
L 355.449026 66.478298 
L 356.748294 65.752625 
L 357.560337 66.304518 
L 357.885153 66.034859 
L 358.047562 66.168635 
L 358.372379 66.032642 
L 358.697196 66.116098 
L 358.859604 66.023481 
L 359.509238 66.283661 
L 359.996464 66.443587 
L 360.158872 66.296224 
L 360.808506 66.610875 
L 360.970915 66.803534 
L 361.133323 66.731107 
L 361.295732 66.534069 
L 361.45814 66.691855 
L 361.945365 66.290596 
L 362.107774 66.027856 
L 362.594999 65.849866 
L 362.757408 66.04687 
L 363.407042 65.53714 
L 363.56945 65.524516 
L 363.894267 65.254908 
L 364.056676 65.112942 
L 364.381493 65.168633 
L 364.868718 64.836378 
L 365.193535 64.879964 
L 365.518352 64.648926 
L 366.167986 64.859507 
L 366.492803 64.640099 
L 366.655211 64.511199 
L 366.81762 64.600401 
L 367.142437 64.474375 
L 367.467254 64.78024 
L 368.441704 64.812676 
L 368.766521 64.849693 
L 370.228198 64.987439 
L 370.390606 65.12347 
L 370.553015 65.069199 
L 371.04024 65.270091 
L 371.527466 65.076032 
L 371.689874 64.991714 
L 373.638776 65.600772 
L 373.801184 65.415043 
L 373.963593 65.537951 
L 374.775635 65.154478 
L 374.938044 65.210714 
L 375.425269 65.085097 
L 375.587677 65.170942 
L 376.074903 64.990511 
L 376.886945 65.160219 
L 377.211762 64.999414 
L 378.023805 64.996724 
L 378.186213 64.813914 
L 379.323072 65.174653 
L 379.485481 65.106012 
L 379.647889 65.174084 
L 379.972706 65.067541 
L 380.459932 65.455501 
L 380.62234 65.434252 
L 380.784749 65.277965 
L 381.596791 65.907271 
L 381.921608 65.671497 
L 382.084017 65.733508 
L 382.246425 65.622094 
L 382.571242 65.755704 
L 383.058467 65.529815 
L 383.220876 65.658861 
L 383.383284 65.510712 
L 383.87051 65.493846 
L 384.032918 65.453578 
L 384.520144 65.753062 
L 385.007369 65.556808 
L 385.169778 65.622632 
L 385.332186 65.49019 
L 385.494595 65.675217 
L 385.657003 65.619487 
L 385.98182 65.736012 
L 386.306637 65.832065 
L 386.469045 65.986862 
L 386.793862 65.882744 
L 387.118679 65.933833 
L 387.443496 65.794857 
L 387.605905 65.899579 
L 387.768313 65.739397 
L 388.09313 65.989888 
L 388.417947 65.860552 
L 388.742764 66.143988 
L 389.22999 65.761077 
L 389.392398 65.88104 
L 390.042032 65.767334 
L 390.366849 65.891808 
L 390.529257 65.966516 
L 390.691666 65.826558 
L 390.854074 65.911775 
L 391.016483 65.770613 
L 391.503708 65.992722 
L 392.802976 65.482633 
L 393.127793 65.62674 
L 393.615018 65.856573 
L 393.939835 66.051285 
L 394.751878 66.165652 
L 395.239103 66.55461 
L 395.56392 66.33479 
L 396.375963 66.766929 
L 396.700779 66.635809 
L 396.863188 66.536076 
L 397.350413 66.54031 
L 397.67523 66.498656 
L 398.000047 66.581078 
L 398.162456 66.617456 
L 398.487273 66.510377 
L 398.487273 66.510377 
" clip-path="url(#p0c1b4b23c3)" style="fill: none; stroke-dasharray: 2,3.3; stroke-dashoffset: 0; stroke: #ffa500; stroke-width: 2"/>
   </g>
   <g id="patch_3">
    <path d="M 57.6 307.584 
L 57.6 41.472 
" style="fill: none; stroke: #000000; stroke-width: 0.8; stroke-linejoin: miter; stroke-linecap: square"/>
   </g>
   <g id="patch_4">
    <path d="M 414.72 307.584 
L 414.72 41.472 
" style="fill: none; stroke: #000000; stroke-width: 0.8; stroke-linejoin: miter; stroke-linecap: square"/>
   </g>
   <g id="patch_5">
    <path d="M 57.6 307.584 
L 414.72 307.584 
" style="fill: none; stroke: #000000; stroke-width: 0.8; stroke-linejoin: miter; stroke-linecap: square"/>
   </g>
   <g id="patch_6">
    <path d="M 57.6 41.472 
L 414.72 41.472 
" style="fill: none; stroke: #000000; stroke-width: 0.8; stroke-linejoin: miter; stroke-linecap: square"/>
   </g>
   <g id="text_18">
    <!-- Waiting Time Plot -->
    <g transform="translate(183.833438 8.2635)scale(0.12 -0.12)">
     <defs>
      <path id="DejaVuSans-50" d="M 1259 4147 
L 1259 2394 
L 2053 2394 
Q 2494 2394 2734 2622 
Q 2975 2850 2975 3272 
Q 2975 3691 2734 3919 
Q 2494 4147 2053 4147 
L 1259 4147 
z
M 628 4666 
L 2053 4666 
Q 2838 4666 3239 4311 
Q 3641 3956 3641 3272 
Q 3641 2581 3239 2228 
Q 2838 1875 2053 1875 
L 1259 1875 
L 1259 0 
L 628 0 
L 628 4666 
z
" transform="scale(0.015625)"/>
      <path id="DejaVuSans-6c" d="M 603 4863 
L 1178 4863 
L 1178 0 
L 603 0 
L 603 4863 
z
" transform="scale(0.015625)"/>
     </defs>
     <use xlink:href="#DejaVuSans-57"/>
     <use xlink:href="#DejaVuSans-61" x="92.501953"/>
     <use xlink:href="#DejaVuSans-69" x="153.78125"/>
     <use xlink:href="#DejaVuSans-74" x="181.564453"/>
     <use xlink:href="#DejaVuSans-69" x="220.773438"/>
     <use xlink:href="#DejaVuSans-6e" x="248.556641"/>
     <use xlink:href="#DejaVuSans-67" x="311.935547"/>
     <use xlink:href="#DejaVuSans-20" x="375.412109"/>
     <use xlink:href="#DejaVuSans-54" x="407.199219"/>
     <use xlink:href="#DejaVuSans-69" x="465.158203"/>
     <use xlink:href="#DejaVuSans-6d" x="492.941406"/>
     <use xlink:href="#DejaVuSans-65" x="590.353516"/>
     <use xlink:href="#DejaVuSans-20" x="651.876953"/>
     <use xlink:href="#DejaVuSans-50" x="683.664062"/>
     <use xlink:href="#DejaVuSans-6c" x="743.966797"/>
     <use xlink:href="#DejaVuSans-6f" x="771.75"/>
     <use xlink:href="#DejaVuSans-74" x="832.931641"/>
    </g>
    <!--  avg_d = 982.1868870734908  -->
    <g transform="translate(142.671562 21.700875)scale(0.12 -0.12)">
     <defs>
      <path id="DejaVuSans-76" d="M 191 3500 
L 800 3500 
L 1894 563 
L 2988 3500 
L 3597 3500 
L 2284 0 
L 1503 0 
L 191 3500 
z
" transform="scale(0.015625)"/>
      <path id="DejaVuSans-5f" d="M 3263 -1063 
L 3263 -1509 
L -63 -1509 
L -63 -1063 
L 3263 -1063 
z
" transform="scale(0.015625)"/>
      <path id="DejaVuSans-3d" d="M 678 2906 
L 4684 2906 
L 4684 2381 
L 678 2381 
L 678 2906 
z
M 678 1631 
L 4684 1631 
L 4684 1100 
L 678 1100 
L 678 1631 
z
" transform="scale(0.015625)"/>
      <path id="DejaVuSans-2e" d="M 684 794 
L 1344 794 
L 1344 0 
L 684 0 
L 684 794 
z
" transform="scale(0.015625)"/>
      <path id="DejaVuSans-36" d="M 2113 2584 
Q 1688 2584 1439 2293 
Q 1191 2003 1191 1497 
Q 1191 994 1439 701 
Q 1688 409 2113 409 
Q 2538 409 2786 701 
Q 3034 994 3034 1497 
Q 3034 2003 2786 2293 
Q 2538 2584 2113 2584 
z
M 3366 4563 
L 3366 3988 
Q 3128 4100 2886 4159 
Q 2644 4219 2406 4219 
Q 1781 4219 1451 3797 
Q 1122 3375 1075 2522 
Q 1259 2794 1537 2939 
Q 1816 3084 2150 3084 
Q 2853 3084 3261 2657 
Q 3669 2231 3669 1497 
Q 3669 778 3244 343 
Q 2819 -91 2113 -91 
Q 1303 -91 875 529 
Q 447 1150 447 2328 
Q 447 3434 972 4092 
Q 1497 4750 2381 4750 
Q 2619 4750 2861 4703 
Q 3103 4656 3366 4563 
z
" transform="scale(0.015625)"/>
      <path id="DejaVuSans-33" d="M 2597 2516 
Q 3050 2419 3304 2112 
Q 3559 1806 3559 1356 
Q 3559 666 3084 287 
Q 2609 -91 1734 -91 
Q 1441 -91 1130 -33 
Q 819 25 488 141 
L 488 750 
Q 750 597 1062 519 
Q 1375 441 1716 441 
Q 2309 441 2620 675 
Q 2931 909 2931 1356 
Q 2931 1769 2642 2001 
Q 2353 2234 1838 2234 
L 1294 2234 
L 1294 2753 
L 1863 2753 
Q 2328 2753 2575 2939 
Q 2822 3125 2822 3475 
Q 2822 3834 2567 4026 
Q 2313 4219 1838 4219 
Q 1578 4219 1281 4162 
Q 984 4106 628 3988 
L 628 4550 
Q 988 4650 1302 4700 
Q 1616 4750 1894 4750 
Q 2613 4750 3031 4423 
Q 3450 4097 3450 3541 
Q 3450 3153 3228 2886 
Q 3006 2619 2597 2516 
z
" transform="scale(0.015625)"/>
      <path id="DejaVuSans-34" d="M 2419 4116 
L 825 1625 
L 2419 1625 
L 2419 4116 
z
M 2253 4666 
L 3047 4666 
L 3047 1625 
L 3713 1625 
L 3713 1100 
L 3047 1100 
L 3047 0 
L 2419 0 
L 2419 1100 
L 313 1100 
L 313 1709 
L 2253 4666 
z
" transform="scale(0.015625)"/>
     </defs>
     <use xlink:href="#DejaVuSans-20"/>
     <use xlink:href="#DejaVuSans-61" x="31.787109"/>
     <use xlink:href="#DejaVuSans-76" x="93.066406"/>
     <use xlink:href="#DejaVuSans-67" x="152.246094"/>
     <use xlink:href="#DejaVuSans-5f" x="215.722656"/>
     <use xlink:href="#DejaVuSans-64" x="265.722656"/>
     <use xlink:href="#DejaVuSans-20" x="329.199219"/>
     <use xlink:href="#DejaVuSans-3d" x="360.986328"/>
     <use xlink:href="#DejaVuSans-20" x="444.775391"/>
     <use xlink:href="#DejaVuSans-39" x="476.5625"/>
     <use xlink:href="#DejaVuSans-38" x="540.185547"/>
     <use xlink:href="#DejaVuSans-32" x="603.808594"/>
     <use xlink:href="#DejaVuSans-2e" x="667.431641"/>
     <use xlink:href="#DejaVuSans-31" x="699.21875"/>
     <use xlink:href="#DejaVuSans-38" x="762.841797"/>
     <use xlink:href="#DejaVuSans-36" x="826.464844"/>
     <use xlink:href="#DejaVuSans-38" x="890.087891"/>
     <use xlink:href="#DejaVuSans-38" x="953.710938"/>
     <use xlink:href="#DejaVuSans-37" x="1017.333984"/>
     <use xlink:href="#DejaVuSans-30" x="1080.957031"/>
     <use xlink:href="#DejaVuSans-37" x="1144.580078"/>
     <use xlink:href="#DejaVuSans-33" x="1208.203125"/>
     <use xlink:href="#DejaVuSans-34" x="1271.826172"/>
     <use xlink:href="#DejaVuSans-39" x="1335.449219"/>
     <use xlink:href="#DejaVuSans-30" x="1399.072266"/>
     <use xlink:href="#DejaVuSans-38" x="1462.695312"/>
     <use xlink:href="#DejaVuSans-20" x="1526.318359"/>
    </g>
    <!--  avg_a = 977.7306377141247diff = 4.4562493593660975 -->
    <g transform="translate(59.364375 35.472)scale(0.12 -0.12)">
     <use xlink:href="#DejaVuSans-20"/>
     <use xlink:href="#DejaVuSans-61" x="31.787109"/>
     <use xlink:href="#DejaVuSans-76" x="93.066406"/>
     <use xlink:href="#DejaVuSans-67" x="152.246094"/>
     <use xlink:href="#DejaVuSans-5f" x="215.722656"/>
     <use xlink:href="#DejaVuSans-61" x="265.722656"/>
     <use xlink:href="#DejaVuSans-20" x="327.001953"/>
     <use xlink:href="#DejaVuSans-3d" x="358.789062"/>
     <use xlink:href="#DejaVuSans-20" x="442.578125"/>
     <use xlink:href="#DejaVuSans-39" x="474.365234"/>
     <use xlink:href="#DejaVuSans-37" x="537.988281"/>
     <use xlink:href="#DejaVuSans-37" x="601.611328"/>
     <use xlink:href="#DejaVuSans-2e" x="665.234375"/>
     <use xlink:href="#DejaVuSans-37" x="697.021484"/>
     <use xlink:href="#DejaVuSans-33" x="760.644531"/>
     <use xlink:href="#DejaVuSans-30" x="824.267578"/>
     <use xlink:href="#DejaVuSans-36" x="887.890625"/>
     <use xlink:href="#DejaVuSans-33" x="951.513672"/>
     <use xlink:href="#DejaVuSans-37" x="1015.136719"/>
     <use xlink:href="#DejaVuSans-37" x="1078.759766"/>
     <use xlink:href="#DejaVuSans-31" x="1142.382812"/>
     <use xlink:href="#DejaVuSans-34" x="1206.005859"/>
     <use xlink:href="#DejaVuSans-31" x="1269.628906"/>
     <use xlink:href="#DejaVuSans-32" x="1333.251953"/>
     <use xlink:href="#DejaVuSans-34" x="1396.875"/>
     <use xlink:href="#DejaVuSans-37" x="1460.498047"/>
     <use xlink:href="#DejaVuSans-64" x="1524.121094"/>
     <use xlink:href="#DejaVuSans-69" x="1587.597656"/>
     <use xlink:href="#DejaVuSans-66" x="1615.380859"/>
     <use xlink:href="#DejaVuSans-66" x="1650.585938"/>
     <use xlink:href="#DejaVuSans-20" x="1685.791016"/>
     <use xlink:href="#DejaVuSans-3d" x="1717.578125"/>
     <use xlink:href="#DejaVuSans-20" x="1801.367188"/>
     <use xlink:href="#DejaVuSans-34" x="1833.154297"/>
     <use xlink:href="#DejaVuSans-2e" x="1896.777344"/>
     <use xlink:href="#DejaVuSans-34" x="1928.564453"/>
     <use xlink:href="#DejaVuSans-35" x="1992.1875"/>
     <use xlink:href="#DejaVuSans-36" x="2055.810547"/>
     <use xlink:href="#DejaVuSans-32" x="2119.433594"/>
     <use xlink:href="#DejaVuSans-34" x="2183.056641"/>
     <use xlink:href="#DejaVuSans-39" x="2246.679688"/>
     <use xlink:href="#DejaVuSans-33" x="2310.302734"/>
     <use xlink:href="#DejaVuSans-35" x="2373.925781"/>
     <use xlink:href="#DejaVuSans-39" x="2437.548828"/>
     <use xlink:href="#DejaVuSans-33" x="2501.171875"/>
     <use xlink:href="#DejaVuSans-36" x="2564.794922"/>
     <use xlink:href="#DejaVuSans-36" x="2628.417969"/>
     <use xlink:href="#DejaVuSans-30" x="2692.041016"/>
     <use xlink:href="#DejaVuSans-39" x="2755.664062"/>
     <use xlink:href="#DejaVuSans-37" x="2819.287109"/>
     <use xlink:href="#DejaVuSans-35" x="2882.910156"/>
    </g>
   </g>
   <g id="legend_1">
    <g id="patch_7">
     <path d="M 263.88875 302.584 
L 407.72 302.584 
Q 409.72 302.584 409.72 300.584 
L 409.72 272.22775 
Q 409.72 270.22775 407.72 270.22775 
L 263.88875 270.22775 
Q 261.88875 270.22775 261.88875 272.22775 
L 261.88875 300.584 
Q 261.88875 302.584 263.88875 302.584 
z
" style="fill: #ffffff; opacity: 0.8; stroke: #cccccc; stroke-linejoin: miter"/>
    </g>
    <g id="line2d_18">
     <path d="M 265.88875 278.326187 
L 275.88875 278.326187 
L 285.88875 278.326187 
" style="fill: none; stroke-dasharray: 2,3.3; stroke-dashoffset: 0; stroke: #0000ff; stroke-width: 2"/>
    </g>
    <g id="text_19">
     <!-- Average (Default) -->
     <g transform="translate(293.88875 281.826187)scale(0.1 -0.1)">
      <defs>
       <path id="DejaVuSans-41" d="M 2188 4044 
L 1331 1722 
L 3047 1722 
L 2188 4044 
z
M 1831 4666 
L 2547 4666 
L 4325 0 
L 3669 0 
L 3244 1197 
L 1141 1197 
L 716 0 
L 50 0 
L 1831 4666 
z
" transform="scale(0.015625)"/>
       <path id="DejaVuSans-28" d="M 1984 4856 
Q 1566 4138 1362 3434 
Q 1159 2731 1159 2009 
Q 1159 1288 1364 580 
Q 1569 -128 1984 -844 
L 1484 -844 
Q 1016 -109 783 600 
Q 550 1309 550 2009 
Q 550 2706 781 3412 
Q 1013 4119 1484 4856 
L 1984 4856 
z
" transform="scale(0.015625)"/>
       <path id="DejaVuSans-44" d="M 1259 4147 
L 1259 519 
L 2022 519 
Q 2988 519 3436 956 
Q 3884 1394 3884 2338 
Q 3884 3275 3436 3711 
Q 2988 4147 2022 4147 
L 1259 4147 
z
M 628 4666 
L 1925 4666 
Q 3281 4666 3915 4102 
Q 4550 3538 4550 2338 
Q 4550 1131 3912 565 
Q 3275 0 1925 0 
L 628 0 
L 628 4666 
z
" transform="scale(0.015625)"/>
       <path id="DejaVuSans-29" d="M 513 4856 
L 1013 4856 
Q 1481 4119 1714 3412 
Q 1947 2706 1947 2009 
Q 1947 1309 1714 600 
Q 1481 -109 1013 -844 
L 513 -844 
Q 928 -128 1133 580 
Q 1338 1288 1338 2009 
Q 1338 2731 1133 3434 
Q 928 4138 513 4856 
z
" transform="scale(0.015625)"/>
      </defs>
      <use xlink:href="#DejaVuSans-41"/>
      <use xlink:href="#DejaVuSans-76" x="62.533203"/>
      <use xlink:href="#DejaVuSans-65" x="121.712891"/>
      <use xlink:href="#DejaVuSans-72" x="183.236328"/>
      <use xlink:href="#DejaVuSans-61" x="224.349609"/>
      <use xlink:href="#DejaVuSans-67" x="285.628906"/>
      <use xlink:href="#DejaVuSans-65" x="349.105469"/>
      <use xlink:href="#DejaVuSans-20" x="410.628906"/>
      <use xlink:href="#DejaVuSans-28" x="442.416016"/>
      <use xlink:href="#DejaVuSans-44" x="481.429688"/>
      <use xlink:href="#DejaVuSans-65" x="558.431641"/>
      <use xlink:href="#DejaVuSans-66" x="619.955078"/>
      <use xlink:href="#DejaVuSans-61" x="655.160156"/>
      <use xlink:href="#DejaVuSans-75" x="716.439453"/>
      <use xlink:href="#DejaVuSans-6c" x="779.818359"/>
      <use xlink:href="#DejaVuSans-74" x="807.601562"/>
      <use xlink:href="#DejaVuSans-29" x="846.810547"/>
     </g>
    </g>
    <g id="line2d_19">
     <path d="M 265.88875 293.004312 
L 275.88875 293.004312 
L 285.88875 293.004312 
" style="fill: none; stroke-dasharray: 2,3.3; stroke-dashoffset: 0; stroke: #ffa500; stroke-width: 2"/>
    </g>
    <g id="text_20">
     <!-- Average (Anticipation) -->
     <g transform="translate(293.88875 296.504312)scale(0.1 -0.1)">
      <defs>
       <path id="DejaVuSans-63" d="M 3122 3366 
L 3122 2828 
Q 2878 2963 2633 3030 
Q 2388 3097 2138 3097 
Q 1578 3097 1268 2742 
Q 959 2388 959 1747 
Q 959 1106 1268 751 
Q 1578 397 2138 397 
Q 2388 397 2633 464 
Q 2878 531 3122 666 
L 3122 134 
Q 2881 22 2623 -34 
Q 2366 -91 2075 -91 
Q 1284 -91 818 406 
Q 353 903 353 1747 
Q 353 2603 823 3093 
Q 1294 3584 2113 3584 
Q 2378 3584 2631 3529 
Q 2884 3475 3122 3366 
z
" transform="scale(0.015625)"/>
       <path id="DejaVuSans-70" d="M 1159 525 
L 1159 -1331 
L 581 -1331 
L 581 3500 
L 1159 3500 
L 1159 2969 
Q 1341 3281 1617 3432 
Q 1894 3584 2278 3584 
Q 2916 3584 3314 3078 
Q 3713 2572 3713 1747 
Q 3713 922 3314 415 
Q 2916 -91 2278 -91 
Q 1894 -91 1617 61 
Q 1341 213 1159 525 
z
M 3116 1747 
Q 3116 2381 2855 2742 
Q 2594 3103 2138 3103 
Q 1681 3103 1420 2742 
Q 1159 2381 1159 1747 
Q 1159 1113 1420 752 
Q 1681 391 2138 391 
Q 2594 391 2855 752 
Q 3116 1113 3116 1747 
z
" transform="scale(0.015625)"/>
      </defs>
      <use xlink:href="#DejaVuSans-41"/>
      <use xlink:href="#DejaVuSans-76" x="62.533203"/>
      <use xlink:href="#DejaVuSans-65" x="121.712891"/>
      <use xlink:href="#DejaVuSans-72" x="183.236328"/>
      <use xlink:href="#DejaVuSans-61" x="224.349609"/>
      <use xlink:href="#DejaVuSans-67" x="285.628906"/>
      <use xlink:href="#DejaVuSans-65" x="349.105469"/>
      <use xlink:href="#DejaVuSans-20" x="410.628906"/>
      <use xlink:href="#DejaVuSans-28" x="442.416016"/>
      <use xlink:href="#DejaVuSans-41" x="481.429688"/>
      <use xlink:href="#DejaVuSans-6e" x="549.837891"/>
      <use xlink:href="#DejaVuSans-74" x="613.216797"/>
      <use xlink:href="#DejaVuSans-69" x="652.425781"/>
      <use xlink:href="#DejaVuSans-63" x="680.208984"/>
      <use xlink:href="#DejaVuSans-69" x="735.189453"/>
      <use xlink:href="#DejaVuSans-70" x="762.972656"/>
      <use xlink:href="#DejaVuSans-61" x="826.449219"/>
      <use xlink:href="#DejaVuSans-74" x="887.728516"/>
      <use xlink:href="#DejaVuSans-69" x="926.9375"/>
      <use xlink:href="#DejaVuSans-6f" x="954.720703"/>
      <use xlink:href="#DejaVuSans-6e" x="1015.902344"/>
      <use xlink:href="#DejaVuSans-29" x="1079.28125"/>
     </g>
    </g>
   </g>
  </g>
 </g>
 <defs>
  <clipPath id="p0c1b4b23c3">
   <rect x="57.6" y="41.472" width="357.12" height="266.112"/>
  </clipPath>
 </defs>
</svg>
