<?xml version="1.0" encoding="utf-8" standalone="no"?>
<!DOCTYPE svg PUBLIC "-//W3C//DTD SVG 1.1//EN"
  "http://www.w3.org/Graphics/SVG/1.1/DTD/svg11.dtd">
<svg xmlns:xlink="http://www.w3.org/1999/xlink" width="460.8pt" height="345.6pt" viewBox="0 0 460.8 345.6" xmlns="http://www.w3.org/2000/svg" version="1.1">
 <metadata>
  <rdf:RDF xmlns:dc="http://purl.org/dc/elements/1.1/" xmlns:cc="http://creativecommons.org/ns#" xmlns:rdf="http://www.w3.org/1999/02/22-rdf-syntax-ns#">
   <cc:Work>
    <dc:type rdf:resource="http://purl.org/dc/dcmitype/StillImage"/>
    <dc:date>2022-10-04T09:10:56.308717</dc:date>
    <dc:format>image/svg+xml</dc:format>
    <dc:creator>
     <cc:Agent>
      <dc:title>Matplotlib v3.5.3, https://matplotlib.org/</dc:title>
     </cc:Agent>
    </dc:creator>
   </cc:Work>
  </rdf:RDF>
 </metadata>
 <defs>
  <style type="text/css">*{stroke-linejoin: round; stroke-linecap: butt}</style>
 </defs>
 <g id="figure_1">
  <g id="patch_1">
   <path d="M 0 345.6 
L 460.8 345.6 
L 460.8 0 
L 0 0 
z
" style="fill: #ffffff"/>
  </g>
  <g id="axes_1">
   <g id="patch_2">
    <path d="M 57.6 307.584 
L 414.72 307.584 
L 414.72 41.472 
L 57.6 41.472 
z
" style="fill: #ffffff"/>
   </g>
   <g id="matplotlib.axis_1">
    <g id="xtick_1">
     <g id="line2d_1">
      <defs>
       <path id="mc59c1dbd52" d="M 0 0 
L 0 3.5 
" style="stroke: #000000; stroke-width: 0.8"/>
      </defs>
      <g>
       <use xlink:href="#mc59c1dbd52" x="73.832727" y="307.584" style="stroke: #000000; stroke-width: 0.8"/>
      </g>
     </g>
     <g id="text_1">
      <!-- 0 -->
      <g transform="translate(70.651477 322.182437)scale(0.1 -0.1)">
       <defs>
        <path id="DejaVuSans-30" d="M 2034 4250 
Q 1547 4250 1301 3770 
Q 1056 3291 1056 2328 
Q 1056 1369 1301 889 
Q 1547 409 2034 409 
Q 2525 409 2770 889 
Q 3016 1369 3016 2328 
Q 3016 3291 2770 3770 
Q 2525 4250 2034 4250 
z
M 2034 4750 
Q 2819 4750 3233 4129 
Q 3647 3509 3647 2328 
Q 3647 1150 3233 529 
Q 2819 -91 2034 -91 
Q 1250 -91 836 529 
Q 422 1150 422 2328 
Q 422 3509 836 4129 
Q 1250 4750 2034 4750 
z
" transform="scale(0.015625)"/>
       </defs>
       <use xlink:href="#DejaVuSans-30"/>
      </g>
     </g>
    </g>
    <g id="xtick_2">
     <g id="line2d_2">
      <g>
       <use xlink:href="#mc59c1dbd52" x="139.419504" y="307.584" style="stroke: #000000; stroke-width: 0.8"/>
      </g>
     </g>
     <g id="text_2">
      <!-- 20 -->
      <g transform="translate(133.057004 322.182437)scale(0.1 -0.1)">
       <defs>
        <path id="DejaVuSans-32" d="M 1228 531 
L 3431 531 
L 3431 0 
L 469 0 
L 469 531 
Q 828 903 1448 1529 
Q 2069 2156 2228 2338 
Q 2531 2678 2651 2914 
Q 2772 3150 2772 3378 
Q 2772 3750 2511 3984 
Q 2250 4219 1831 4219 
Q 1534 4219 1204 4116 
Q 875 4013 500 3803 
L 500 4441 
Q 881 4594 1212 4672 
Q 1544 4750 1819 4750 
Q 2544 4750 2975 4387 
Q 3406 4025 3406 3419 
Q 3406 3131 3298 2873 
Q 3191 2616 2906 2266 
Q 2828 2175 2409 1742 
Q 1991 1309 1228 531 
z
" transform="scale(0.015625)"/>
       </defs>
       <use xlink:href="#DejaVuSans-32"/>
       <use xlink:href="#DejaVuSans-30" x="63.623047"/>
      </g>
     </g>
    </g>
    <g id="xtick_3">
     <g id="line2d_3">
      <g>
       <use xlink:href="#mc59c1dbd52" x="205.006281" y="307.584" style="stroke: #000000; stroke-width: 0.8"/>
      </g>
     </g>
     <g id="text_3">
      <!-- 40 -->
      <g transform="translate(198.643781 322.182437)scale(0.1 -0.1)">
       <defs>
        <path id="DejaVuSans-34" d="M 2419 4116 
L 825 1625 
L 2419 1625 
L 2419 4116 
z
M 2253 4666 
L 3047 4666 
L 3047 1625 
L 3713 1625 
L 3713 1100 
L 3047 1100 
L 3047 0 
L 2419 0 
L 2419 1100 
L 313 1100 
L 313 1709 
L 2253 4666 
z
" transform="scale(0.015625)"/>
       </defs>
       <use xlink:href="#DejaVuSans-34"/>
       <use xlink:href="#DejaVuSans-30" x="63.623047"/>
      </g>
     </g>
    </g>
    <g id="xtick_4">
     <g id="line2d_4">
      <g>
       <use xlink:href="#mc59c1dbd52" x="270.593058" y="307.584" style="stroke: #000000; stroke-width: 0.8"/>
      </g>
     </g>
     <g id="text_4">
      <!-- 60 -->
      <g transform="translate(264.230558 322.182437)scale(0.1 -0.1)">
       <defs>
        <path id="DejaVuSans-36" d="M 2113 2584 
Q 1688 2584 1439 2293 
Q 1191 2003 1191 1497 
Q 1191 994 1439 701 
Q 1688 409 2113 409 
Q 2538 409 2786 701 
Q 3034 994 3034 1497 
Q 3034 2003 2786 2293 
Q 2538 2584 2113 2584 
z
M 3366 4563 
L 3366 3988 
Q 3128 4100 2886 4159 
Q 2644 4219 2406 4219 
Q 1781 4219 1451 3797 
Q 1122 3375 1075 2522 
Q 1259 2794 1537 2939 
Q 1816 3084 2150 3084 
Q 2853 3084 3261 2657 
Q 3669 2231 3669 1497 
Q 3669 778 3244 343 
Q 2819 -91 2113 -91 
Q 1303 -91 875 529 
Q 447 1150 447 2328 
Q 447 3434 972 4092 
Q 1497 4750 2381 4750 
Q 2619 4750 2861 4703 
Q 3103 4656 3366 4563 
z
" transform="scale(0.015625)"/>
       </defs>
       <use xlink:href="#DejaVuSans-36"/>
       <use xlink:href="#DejaVuSans-30" x="63.623047"/>
      </g>
     </g>
    </g>
    <g id="xtick_5">
     <g id="line2d_5">
      <g>
       <use xlink:href="#mc59c1dbd52" x="336.179835" y="307.584" style="stroke: #000000; stroke-width: 0.8"/>
      </g>
     </g>
     <g id="text_5">
      <!-- 80 -->
      <g transform="translate(329.817335 322.182437)scale(0.1 -0.1)">
       <defs>
        <path id="DejaVuSans-38" d="M 2034 2216 
Q 1584 2216 1326 1975 
Q 1069 1734 1069 1313 
Q 1069 891 1326 650 
Q 1584 409 2034 409 
Q 2484 409 2743 651 
Q 3003 894 3003 1313 
Q 3003 1734 2745 1975 
Q 2488 2216 2034 2216 
z
M 1403 2484 
Q 997 2584 770 2862 
Q 544 3141 544 3541 
Q 544 4100 942 4425 
Q 1341 4750 2034 4750 
Q 2731 4750 3128 4425 
Q 3525 4100 3525 3541 
Q 3525 3141 3298 2862 
Q 3072 2584 2669 2484 
Q 3125 2378 3379 2068 
Q 3634 1759 3634 1313 
Q 3634 634 3220 271 
Q 2806 -91 2034 -91 
Q 1263 -91 848 271 
Q 434 634 434 1313 
Q 434 1759 690 2068 
Q 947 2378 1403 2484 
z
M 1172 3481 
Q 1172 3119 1398 2916 
Q 1625 2713 2034 2713 
Q 2441 2713 2670 2916 
Q 2900 3119 2900 3481 
Q 2900 3844 2670 4047 
Q 2441 4250 2034 4250 
Q 1625 4250 1398 4047 
Q 1172 3844 1172 3481 
z
" transform="scale(0.015625)"/>
       </defs>
       <use xlink:href="#DejaVuSans-38"/>
       <use xlink:href="#DejaVuSans-30" x="63.623047"/>
      </g>
     </g>
    </g>
    <g id="xtick_6">
     <g id="line2d_6">
      <g>
       <use xlink:href="#mc59c1dbd52" x="401.766612" y="307.584" style="stroke: #000000; stroke-width: 0.8"/>
      </g>
     </g>
     <g id="text_6">
      <!-- 100 -->
      <g transform="translate(392.222862 322.182437)scale(0.1 -0.1)">
       <defs>
        <path id="DejaVuSans-31" d="M 794 531 
L 1825 531 
L 1825 4091 
L 703 3866 
L 703 4441 
L 1819 4666 
L 2450 4666 
L 2450 531 
L 3481 531 
L 3481 0 
L 794 0 
L 794 531 
z
" transform="scale(0.015625)"/>
       </defs>
       <use xlink:href="#DejaVuSans-31"/>
       <use xlink:href="#DejaVuSans-30" x="63.623047"/>
       <use xlink:href="#DejaVuSans-30" x="127.246094"/>
      </g>
     </g>
    </g>
    <g id="text_7">
     <!-- Order Index -->
     <g transform="translate(206.594375 335.860562)scale(0.1 -0.1)">
      <defs>
       <path id="DejaVuSans-4f" d="M 2522 4238 
Q 1834 4238 1429 3725 
Q 1025 3213 1025 2328 
Q 1025 1447 1429 934 
Q 1834 422 2522 422 
Q 3209 422 3611 934 
Q 4013 1447 4013 2328 
Q 4013 3213 3611 3725 
Q 3209 4238 2522 4238 
z
M 2522 4750 
Q 3503 4750 4090 4092 
Q 4678 3434 4678 2328 
Q 4678 1225 4090 567 
Q 3503 -91 2522 -91 
Q 1538 -91 948 565 
Q 359 1222 359 2328 
Q 359 3434 948 4092 
Q 1538 4750 2522 4750 
z
" transform="scale(0.015625)"/>
       <path id="DejaVuSans-72" d="M 2631 2963 
Q 2534 3019 2420 3045 
Q 2306 3072 2169 3072 
Q 1681 3072 1420 2755 
Q 1159 2438 1159 1844 
L 1159 0 
L 581 0 
L 581 3500 
L 1159 3500 
L 1159 2956 
Q 1341 3275 1631 3429 
Q 1922 3584 2338 3584 
Q 2397 3584 2469 3576 
Q 2541 3569 2628 3553 
L 2631 2963 
z
" transform="scale(0.015625)"/>
       <path id="DejaVuSans-64" d="M 2906 2969 
L 2906 4863 
L 3481 4863 
L 3481 0 
L 2906 0 
L 2906 525 
Q 2725 213 2448 61 
Q 2172 -91 1784 -91 
Q 1150 -91 751 415 
Q 353 922 353 1747 
Q 353 2572 751 3078 
Q 1150 3584 1784 3584 
Q 2172 3584 2448 3432 
Q 2725 3281 2906 2969 
z
M 947 1747 
Q 947 1113 1208 752 
Q 1469 391 1925 391 
Q 2381 391 2643 752 
Q 2906 1113 2906 1747 
Q 2906 2381 2643 2742 
Q 2381 3103 1925 3103 
Q 1469 3103 1208 2742 
Q 947 2381 947 1747 
z
" transform="scale(0.015625)"/>
       <path id="DejaVuSans-65" d="M 3597 1894 
L 3597 1613 
L 953 1613 
Q 991 1019 1311 708 
Q 1631 397 2203 397 
Q 2534 397 2845 478 
Q 3156 559 3463 722 
L 3463 178 
Q 3153 47 2828 -22 
Q 2503 -91 2169 -91 
Q 1331 -91 842 396 
Q 353 884 353 1716 
Q 353 2575 817 3079 
Q 1281 3584 2069 3584 
Q 2775 3584 3186 3129 
Q 3597 2675 3597 1894 
z
M 3022 2063 
Q 3016 2534 2758 2815 
Q 2500 3097 2075 3097 
Q 1594 3097 1305 2825 
Q 1016 2553 972 2059 
L 3022 2063 
z
" transform="scale(0.015625)"/>
       <path id="DejaVuSans-20" transform="scale(0.015625)"/>
       <path id="DejaVuSans-49" d="M 628 4666 
L 1259 4666 
L 1259 0 
L 628 0 
L 628 4666 
z
" transform="scale(0.015625)"/>
       <path id="DejaVuSans-6e" d="M 3513 2113 
L 3513 0 
L 2938 0 
L 2938 2094 
Q 2938 2591 2744 2837 
Q 2550 3084 2163 3084 
Q 1697 3084 1428 2787 
Q 1159 2491 1159 1978 
L 1159 0 
L 581 0 
L 581 3500 
L 1159 3500 
L 1159 2956 
Q 1366 3272 1645 3428 
Q 1925 3584 2291 3584 
Q 2894 3584 3203 3211 
Q 3513 2838 3513 2113 
z
" transform="scale(0.015625)"/>
       <path id="DejaVuSans-78" d="M 3513 3500 
L 2247 1797 
L 3578 0 
L 2900 0 
L 1881 1375 
L 863 0 
L 184 0 
L 1544 1831 
L 300 3500 
L 978 3500 
L 1906 2253 
L 2834 3500 
L 3513 3500 
z
" transform="scale(0.015625)"/>
      </defs>
      <use xlink:href="#DejaVuSans-4f"/>
      <use xlink:href="#DejaVuSans-72" x="78.710938"/>
      <use xlink:href="#DejaVuSans-64" x="118.074219"/>
      <use xlink:href="#DejaVuSans-65" x="181.550781"/>
      <use xlink:href="#DejaVuSans-72" x="243.074219"/>
      <use xlink:href="#DejaVuSans-20" x="284.1875"/>
      <use xlink:href="#DejaVuSans-49" x="315.974609"/>
      <use xlink:href="#DejaVuSans-6e" x="345.466797"/>
      <use xlink:href="#DejaVuSans-64" x="408.845703"/>
      <use xlink:href="#DejaVuSans-65" x="472.322266"/>
      <use xlink:href="#DejaVuSans-78" x="532.095703"/>
     </g>
    </g>
   </g>
   <g id="matplotlib.axis_2">
    <g id="ytick_1">
     <g id="line2d_7">
      <defs>
       <path id="m19347505f1" d="M 0 0 
L -3.5 0 
" style="stroke: #000000; stroke-width: 0.8"/>
      </defs>
      <g>
       <use xlink:href="#m19347505f1" x="57.6" y="297.401776" style="stroke: #000000; stroke-width: 0.8"/>
      </g>
     </g>
     <g id="text_8">
      <!-- 0 -->
      <g transform="translate(44.2375 301.200995)scale(0.1 -0.1)">
       <use xlink:href="#DejaVuSans-30"/>
      </g>
     </g>
    </g>
    <g id="ytick_2">
     <g id="line2d_8">
      <g>
       <use xlink:href="#m19347505f1" x="57.6" y="266.534421" style="stroke: #000000; stroke-width: 0.8"/>
      </g>
     </g>
     <g id="text_9">
      <!-- 500 -->
      <g transform="translate(31.5125 270.33364)scale(0.1 -0.1)">
       <defs>
        <path id="DejaVuSans-35" d="M 691 4666 
L 3169 4666 
L 3169 4134 
L 1269 4134 
L 1269 2991 
Q 1406 3038 1543 3061 
Q 1681 3084 1819 3084 
Q 2600 3084 3056 2656 
Q 3513 2228 3513 1497 
Q 3513 744 3044 326 
Q 2575 -91 1722 -91 
Q 1428 -91 1123 -41 
Q 819 9 494 109 
L 494 744 
Q 775 591 1075 516 
Q 1375 441 1709 441 
Q 2250 441 2565 725 
Q 2881 1009 2881 1497 
Q 2881 1984 2565 2268 
Q 2250 2553 1709 2553 
Q 1456 2553 1204 2497 
Q 953 2441 691 2322 
L 691 4666 
z
" transform="scale(0.015625)"/>
       </defs>
       <use xlink:href="#DejaVuSans-35"/>
       <use xlink:href="#DejaVuSans-30" x="63.623047"/>
       <use xlink:href="#DejaVuSans-30" x="127.246094"/>
      </g>
     </g>
    </g>
    <g id="ytick_3">
     <g id="line2d_9">
      <g>
       <use xlink:href="#m19347505f1" x="57.6" y="235.667066" style="stroke: #000000; stroke-width: 0.8"/>
      </g>
     </g>
     <g id="text_10">
      <!-- 1000 -->
      <g transform="translate(25.15 239.466285)scale(0.1 -0.1)">
       <use xlink:href="#DejaVuSans-31"/>
       <use xlink:href="#DejaVuSans-30" x="63.623047"/>
       <use xlink:href="#DejaVuSans-30" x="127.246094"/>
       <use xlink:href="#DejaVuSans-30" x="190.869141"/>
      </g>
     </g>
    </g>
    <g id="ytick_4">
     <g id="line2d_10">
      <g>
       <use xlink:href="#m19347505f1" x="57.6" y="204.799712" style="stroke: #000000; stroke-width: 0.8"/>
      </g>
     </g>
     <g id="text_11">
      <!-- 1500 -->
      <g transform="translate(25.15 208.59893)scale(0.1 -0.1)">
       <use xlink:href="#DejaVuSans-31"/>
       <use xlink:href="#DejaVuSans-35" x="63.623047"/>
       <use xlink:href="#DejaVuSans-30" x="127.246094"/>
       <use xlink:href="#DejaVuSans-30" x="190.869141"/>
      </g>
     </g>
    </g>
    <g id="ytick_5">
     <g id="line2d_11">
      <g>
       <use xlink:href="#m19347505f1" x="57.6" y="173.932357" style="stroke: #000000; stroke-width: 0.8"/>
      </g>
     </g>
     <g id="text_12">
      <!-- 2000 -->
      <g transform="translate(25.15 177.731575)scale(0.1 -0.1)">
       <use xlink:href="#DejaVuSans-32"/>
       <use xlink:href="#DejaVuSans-30" x="63.623047"/>
       <use xlink:href="#DejaVuSans-30" x="127.246094"/>
       <use xlink:href="#DejaVuSans-30" x="190.869141"/>
      </g>
     </g>
    </g>
    <g id="ytick_6">
     <g id="line2d_12">
      <g>
       <use xlink:href="#m19347505f1" x="57.6" y="143.065002" style="stroke: #000000; stroke-width: 0.8"/>
      </g>
     </g>
     <g id="text_13">
      <!-- 2500 -->
      <g transform="translate(25.15 146.864221)scale(0.1 -0.1)">
       <use xlink:href="#DejaVuSans-32"/>
       <use xlink:href="#DejaVuSans-35" x="63.623047"/>
       <use xlink:href="#DejaVuSans-30" x="127.246094"/>
       <use xlink:href="#DejaVuSans-30" x="190.869141"/>
      </g>
     </g>
    </g>
    <g id="ytick_7">
     <g id="line2d_13">
      <g>
       <use xlink:href="#m19347505f1" x="57.6" y="112.197647" style="stroke: #000000; stroke-width: 0.8"/>
      </g>
     </g>
     <g id="text_14">
      <!-- 3000 -->
      <g transform="translate(25.15 115.996866)scale(0.1 -0.1)">
       <defs>
        <path id="DejaVuSans-33" d="M 2597 2516 
Q 3050 2419 3304 2112 
Q 3559 1806 3559 1356 
Q 3559 666 3084 287 
Q 2609 -91 1734 -91 
Q 1441 -91 1130 -33 
Q 819 25 488 141 
L 488 750 
Q 750 597 1062 519 
Q 1375 441 1716 441 
Q 2309 441 2620 675 
Q 2931 909 2931 1356 
Q 2931 1769 2642 2001 
Q 2353 2234 1838 2234 
L 1294 2234 
L 1294 2753 
L 1863 2753 
Q 2328 2753 2575 2939 
Q 2822 3125 2822 3475 
Q 2822 3834 2567 4026 
Q 2313 4219 1838 4219 
Q 1578 4219 1281 4162 
Q 984 4106 628 3988 
L 628 4550 
Q 988 4650 1302 4700 
Q 1616 4750 1894 4750 
Q 2613 4750 3031 4423 
Q 3450 4097 3450 3541 
Q 3450 3153 3228 2886 
Q 3006 2619 2597 2516 
z
" transform="scale(0.015625)"/>
       </defs>
       <use xlink:href="#DejaVuSans-33"/>
       <use xlink:href="#DejaVuSans-30" x="63.623047"/>
       <use xlink:href="#DejaVuSans-30" x="127.246094"/>
       <use xlink:href="#DejaVuSans-30" x="190.869141"/>
      </g>
     </g>
    </g>
    <g id="ytick_8">
     <g id="line2d_14">
      <g>
       <use xlink:href="#m19347505f1" x="57.6" y="81.330292" style="stroke: #000000; stroke-width: 0.8"/>
      </g>
     </g>
     <g id="text_15">
      <!-- 3500 -->
      <g transform="translate(25.15 85.129511)scale(0.1 -0.1)">
       <use xlink:href="#DejaVuSans-33"/>
       <use xlink:href="#DejaVuSans-35" x="63.623047"/>
       <use xlink:href="#DejaVuSans-30" x="127.246094"/>
       <use xlink:href="#DejaVuSans-30" x="190.869141"/>
      </g>
     </g>
    </g>
    <g id="ytick_9">
     <g id="line2d_15">
      <g>
       <use xlink:href="#m19347505f1" x="57.6" y="50.462937" style="stroke: #000000; stroke-width: 0.8"/>
      </g>
     </g>
     <g id="text_16">
      <!-- 4000 -->
      <g transform="translate(25.15 54.262156)scale(0.1 -0.1)">
       <use xlink:href="#DejaVuSans-34"/>
       <use xlink:href="#DejaVuSans-30" x="63.623047"/>
       <use xlink:href="#DejaVuSans-30" x="127.246094"/>
       <use xlink:href="#DejaVuSans-30" x="190.869141"/>
      </g>
     </g>
    </g>
    <g id="text_17">
     <!-- Order Delivered Time -->
     <g transform="translate(19.070312 228.08425)rotate(-90)scale(0.1 -0.1)">
      <defs>
       <path id="DejaVuSans-44" d="M 1259 4147 
L 1259 519 
L 2022 519 
Q 2988 519 3436 956 
Q 3884 1394 3884 2338 
Q 3884 3275 3436 3711 
Q 2988 4147 2022 4147 
L 1259 4147 
z
M 628 4666 
L 1925 4666 
Q 3281 4666 3915 4102 
Q 4550 3538 4550 2338 
Q 4550 1131 3912 565 
Q 3275 0 1925 0 
L 628 0 
L 628 4666 
z
" transform="scale(0.015625)"/>
       <path id="DejaVuSans-6c" d="M 603 4863 
L 1178 4863 
L 1178 0 
L 603 0 
L 603 4863 
z
" transform="scale(0.015625)"/>
       <path id="DejaVuSans-69" d="M 603 3500 
L 1178 3500 
L 1178 0 
L 603 0 
L 603 3500 
z
M 603 4863 
L 1178 4863 
L 1178 4134 
L 603 4134 
L 603 4863 
z
" transform="scale(0.015625)"/>
       <path id="DejaVuSans-76" d="M 191 3500 
L 800 3500 
L 1894 563 
L 2988 3500 
L 3597 3500 
L 2284 0 
L 1503 0 
L 191 3500 
z
" transform="scale(0.015625)"/>
       <path id="DejaVuSans-54" d="M -19 4666 
L 3928 4666 
L 3928 4134 
L 2272 4134 
L 2272 0 
L 1638 0 
L 1638 4134 
L -19 4134 
L -19 4666 
z
" transform="scale(0.015625)"/>
       <path id="DejaVuSans-6d" d="M 3328 2828 
Q 3544 3216 3844 3400 
Q 4144 3584 4550 3584 
Q 5097 3584 5394 3201 
Q 5691 2819 5691 2113 
L 5691 0 
L 5113 0 
L 5113 2094 
Q 5113 2597 4934 2840 
Q 4756 3084 4391 3084 
Q 3944 3084 3684 2787 
Q 3425 2491 3425 1978 
L 3425 0 
L 2847 0 
L 2847 2094 
Q 2847 2600 2669 2842 
Q 2491 3084 2119 3084 
Q 1678 3084 1418 2786 
Q 1159 2488 1159 1978 
L 1159 0 
L 581 0 
L 581 3500 
L 1159 3500 
L 1159 2956 
Q 1356 3278 1631 3431 
Q 1906 3584 2284 3584 
Q 2666 3584 2933 3390 
Q 3200 3197 3328 2828 
z
" transform="scale(0.015625)"/>
      </defs>
      <use xlink:href="#DejaVuSans-4f"/>
      <use xlink:href="#DejaVuSans-72" x="78.710938"/>
      <use xlink:href="#DejaVuSans-64" x="118.074219"/>
      <use xlink:href="#DejaVuSans-65" x="181.550781"/>
      <use xlink:href="#DejaVuSans-72" x="243.074219"/>
      <use xlink:href="#DejaVuSans-20" x="284.1875"/>
      <use xlink:href="#DejaVuSans-44" x="315.974609"/>
      <use xlink:href="#DejaVuSans-65" x="392.976562"/>
      <use xlink:href="#DejaVuSans-6c" x="454.5"/>
      <use xlink:href="#DejaVuSans-69" x="482.283203"/>
      <use xlink:href="#DejaVuSans-76" x="510.066406"/>
      <use xlink:href="#DejaVuSans-65" x="569.246094"/>
      <use xlink:href="#DejaVuSans-72" x="630.769531"/>
      <use xlink:href="#DejaVuSans-65" x="669.632812"/>
      <use xlink:href="#DejaVuSans-64" x="731.15625"/>
      <use xlink:href="#DejaVuSans-20" x="794.632812"/>
      <use xlink:href="#DejaVuSans-54" x="826.419922"/>
      <use xlink:href="#DejaVuSans-69" x="884.378906"/>
      <use xlink:href="#DejaVuSans-6d" x="912.162109"/>
      <use xlink:href="#DejaVuSans-65" x="1009.574219"/>
     </g>
    </g>
   </g>
   <g id="line2d_16">
    <path d="M 73.832727 295.488 
L 77.112066 293.821163 
L 80.391405 291.783917 
L 83.670744 290.549223 
L 86.950083 288.326774 
L 90.229421 286.845141 
L 93.50876 284.993099 
L 96.788099 282.338507 
L 100.067438 280.486466 
L 103.346777 278.202281 
L 106.626116 276.844118 
L 109.905455 275.362485 
L 113.184793 273.633913 
L 116.464132 271.596667 
L 119.743471 269.92983 
L 123.02281 268.201258 
L 126.302149 266.164013 
L 129.581488 264.311972 
L 132.860826 262.212992 
L 136.140165 260.237481 
L 139.419504 258.879317 
L 142.698843 257.089011 
L 145.978182 255.483908 
L 149.257521 253.137989 
L 152.53686 251.409417 
L 155.816198 249.495641 
L 159.095537 247.087988 
L 162.374876 245.050742 
L 165.654215 244.001252 
L 168.933554 241.655333 
L 172.212893 240.482374 
L 175.492231 238.815537 
L 178.77157 237.766046 
L 182.050909 235.111454 
L 185.330248 233.321147 
L 188.609587 231.222167 
L 191.888926 230.049208 
L 195.168264 228.320636 
L 198.447603 226.40686 
L 201.726942 224.986962 
L 205.006281 222.579308 
L 208.28562 220.912471 
L 211.564959 219.369103 
L 214.844298 217.825735 
L 218.123636 215.973694 
L 221.402975 214.430326 
L 224.682314 212.51655 
L 227.961653 211.220121 
L 231.240992 209.121141 
L 234.520331 206.590018 
L 237.799669 203.750221 
L 241.079008 202.02165 
L 244.358347 200.107874 
L 247.637686 198.132363 
L 250.917025 195.539505 
L 254.196364 193.810933 
L 257.475702 191.773688 
L 260.755041 190.106851 
L 264.03438 188.316544 
L 267.313719 186.649707 
L 270.593058 184.735931 
L 273.872397 183.192563 
L 277.151736 181.031848 
L 280.431074 179.673685 
L 283.710413 178.192052 
L 286.989752 176.895623 
L 290.269091 175.475724 
L 293.54843 173.685418 
L 296.827769 171.709907 
L 300.107107 169.796131 
L 303.386446 168.191029 
L 306.665785 166.709396 
L 309.945124 164.363477 
L 313.224463 163.190517 
L 316.503802 161.647149 
L 319.78314 159.671639 
L 323.062479 158.313475 
L 326.341818 156.646638 
L 329.621157 154.979801 
L 332.900496 153.436433 
L 336.179835 151.646127 
L 339.459174 149.361942 
L 342.738512 148.374187 
L 346.017851 146.645615 
L 349.29719 144.361431 
L 352.576529 142.818063 
L 355.855868 140.966022 
L 359.135207 139.669593 
L 362.414545 138.18796 
L 365.693884 136.521123 
L 368.973223 134.422143 
L 372.252562 132.508367 
L 375.531901 130.409386 
L 378.81124 128.61908 
L 382.090579 126.5201 
L 385.369917 123.927242 
L 388.649256 122.075201 
L 391.928595 119.97622 
L 395.207934 118.371118 
L 398.487273 116.95122 
" clip-path="url(#pf06ff2c5be)" style="fill: none; stroke: #32cd32; stroke-linecap: square"/>
   </g>
   <g id="line2d_17">
    <path d="M 73.832727 221.979449 
L 77.112066 229.633042 
L 80.391405 235.025616 
L 83.670744 243.861114 
L 86.950083 226.219632 
L 90.229421 231.5171 
L 93.50876 224.183027 
L 96.788099 205.357551 
L 100.067438 238.69535 
L 103.346777 220.058872 
L 106.626116 235.903424 
L 109.905455 208.70339 
L 113.184793 220.459106 
L 116.464132 199.413863 
L 119.743471 209.868967 
L 123.02281 193.560988 
L 126.302149 205.977605 
L 129.581488 210.653468 
L 132.860826 203.841751 
L 136.140165 192.806862 
L 139.419504 211.58996 
L 142.698843 200.754773 
L 145.978182 208.605884 
L 149.257521 214.093756 
L 152.53686 184.875411 
L 155.816198 169.646468 
L 159.095537 182.938818 
L 162.374876 164.896472 
L 165.654215 171.397479 
L 168.933554 184.76336 
L 172.212893 185.846046 
L 175.492231 161.169973 
L 178.77157 165.424787 
L 182.050909 170.123439 
L 185.330248 177.431959 
L 188.609587 183.92809 
L 191.888926 155.891222 
L 195.168264 176.328647 
L 198.447603 168.341706 
L 201.726942 138.076831 
L 205.006281 183.89786 
L 208.28562 161.445046 
L 211.564959 177.163319 
L 214.844298 162.936657 
L 218.123636 145.087232 
L 221.402975 160.523308 
L 224.682314 160.30347 
L 227.961653 149.058569 
L 231.240992 164.236089 
L 234.520331 156.278868 
L 237.799669 139.564821 
L 241.079008 155.007503 
L 244.358347 132.786688 
L 247.637686 133.811444 
L 250.917025 153.593853 
L 254.196364 139.588743 
L 257.475702 150.317859 
L 260.755041 137.104998 
L 264.03438 114.263375 
L 267.313719 123.33049 
L 270.593058 130.771728 
L 273.872397 113.459806 
L 277.151736 123.14358 
L 280.431074 127.940346 
L 283.710413 122.98169 
L 286.989752 129.119956 
L 290.269091 104.779593 
L 293.54843 120.484109 
L 296.827769 122.740676 
L 300.107107 101.443097 
L 303.386446 91.545327 
L 306.665785 79.360667 
L 309.945124 121.052531 
L 313.224463 113.332489 
L 316.503802 105.931874 
L 319.78314 107.833071 
L 323.062479 89.434465 
L 326.341818 82.75807 
L 329.621157 85.261666 
L 332.900496 88.229559 
L 336.179835 87.680299 
L 339.459174 92.266331 
L 342.738512 83.03284 
L 346.017851 84.106537 
L 349.29719 90.653341 
L 352.576529 77.79182 
L 355.855868 90.811029 
L 359.135207 60.109189 
L 362.414545 84.657234 
L 365.693884 54.504739 
L 368.973223 75.124668 
L 372.252562 66.267019 
L 375.531901 67.213522 
L 378.81124 87.38387 
L 382.090579 68.297115 
L 385.369917 56.533077 
L 388.649256 56.85371 
L 391.928595 54.394044 
L 395.207934 74.401534 
L 398.487273 53.568 
" clip-path="url(#pf06ff2c5be)" style="fill: none; stroke-dasharray: 3.7,1.6; stroke-dashoffset: 0; stroke: #4169e1"/>
   </g>
   <g id="line2d_18">
    <path d="M 73.832727 221.979449 
L 77.112066 229.633042 
L 80.391405 235.025616 
L 83.670744 243.861114 
L 86.950083 226.219632 
L 90.229421 231.5171 
L 93.50876 224.183027 
L 96.788099 205.357551 
L 100.067438 238.69535 
L 103.346777 220.058872 
L 106.626116 235.903424 
L 109.905455 208.70339 
L 113.184793 220.459106 
L 116.464132 199.413863 
L 119.743471 209.868967 
L 123.02281 193.560988 
L 126.302149 205.977605 
L 129.581488 210.653468 
L 132.860826 203.841751 
L 136.140165 192.806862 
L 139.419504 211.58996 
L 142.698843 200.754773 
L 145.978182 208.605884 
L 149.257521 214.093756 
L 152.53686 184.875411 
L 155.816198 169.646468 
L 159.095537 182.938818 
L 162.374876 164.896472 
L 165.654215 171.397479 
L 168.933554 184.76336 
L 172.212893 185.846046 
L 175.492231 161.169973 
L 178.77157 165.424787 
L 182.050909 170.123439 
L 185.330248 177.431959 
L 188.609587 186.608012 
L 191.888926 155.891222 
L 195.168264 176.328647 
L 198.447603 168.341706 
L 201.726942 138.076831 
L 205.006281 183.89786 
L 208.28562 161.445046 
L 211.564959 177.163319 
L 214.844298 162.936657 
L 218.123636 145.087232 
L 221.402975 160.523308 
L 224.682314 160.30347 
L 227.961653 149.058569 
L 231.240992 164.236089 
L 234.520331 156.278868 
L 237.799669 139.564821 
L 241.079008 155.007503 
L 244.358347 132.786688 
L 247.637686 133.811444 
L 250.917025 153.593853 
L 254.196364 139.588743 
L 257.475702 150.317859 
L 260.755041 137.104998 
L 264.03438 114.263375 
L 267.313719 135.820767 
L 270.593058 130.771728 
L 273.872397 113.459806 
L 277.151736 123.14358 
L 280.431074 132.481616 
L 283.710413 122.98169 
L 286.989752 129.119956 
L 290.269091 104.779593 
L 293.54843 120.484109 
L 296.827769 122.740676 
L 300.107107 101.443097 
L 303.386446 91.545327 
L 306.665785 79.360667 
L 309.945124 121.052531 
L 313.224463 113.332489 
L 316.503802 105.931874 
L 319.78314 107.833071 
L 323.062479 89.434465 
L 326.341818 82.75807 
L 329.621157 85.261666 
L 332.900496 96.279515 
L 336.179835 90.216652 
L 339.459174 92.266331 
L 342.738512 83.03284 
L 346.017851 84.106537 
L 349.29719 90.653341 
L 352.576529 80.38062 
L 355.855868 90.811029 
L 359.135207 71.608807 
L 362.414545 84.657234 
L 365.693884 54.504739 
L 368.973223 79.758247 
L 372.252562 66.267019 
L 375.531901 67.213522 
L 378.81124 87.38387 
L 382.090579 68.297115 
L 385.369917 56.533077 
L 388.649256 56.85371 
L 391.928595 56.669448 
L 395.207934 74.401534 
L 398.487273 53.568 
" clip-path="url(#pf06ff2c5be)" style="fill: none; stroke-dasharray: 1,1.65; stroke-dashoffset: 0; stroke: #ffa500"/>
   </g>
   <g id="line2d_19">
    <path d="M 73.832727 235.313087 
L 77.112066 233.500984 
L 80.391405 231.688881 
L 83.670744 229.876778 
L 86.950083 228.064676 
L 90.229421 226.252573 
L 93.50876 224.44047 
L 96.788099 222.628367 
L 100.067438 220.816264 
L 103.346777 219.004161 
L 106.626116 217.192059 
L 109.905455 215.379956 
L 113.184793 213.567853 
L 116.464132 211.75575 
L 119.743471 209.943647 
L 123.02281 208.131544 
L 126.302149 206.319442 
L 129.581488 204.507339 
L 132.860826 202.695236 
L 136.140165 200.883133 
L 139.419504 199.07103 
L 142.698843 197.258927 
L 145.978182 195.446825 
L 149.257521 193.634722 
L 152.53686 191.822619 
L 155.816198 190.010516 
L 159.095537 188.198413 
L 162.374876 186.38631 
L 165.654215 184.574208 
L 168.933554 182.762105 
L 172.212893 180.950002 
L 175.492231 179.137899 
L 178.77157 177.325796 
L 182.050909 175.513693 
L 185.330248 173.701591 
L 188.609587 171.889488 
L 191.888926 170.077385 
L 195.168264 168.265282 
L 198.447603 166.453179 
L 201.726942 164.641076 
L 205.006281 162.828974 
L 208.28562 161.016871 
L 211.564959 159.204768 
L 214.844298 157.392665 
L 218.123636 155.580562 
L 221.402975 153.768459 
L 224.682314 151.956357 
L 227.961653 150.144254 
L 231.240992 148.332151 
L 234.520331 146.520048 
L 237.799669 144.707945 
L 241.079008 142.895842 
L 244.358347 141.08374 
L 247.637686 139.271637 
L 250.917025 137.459534 
L 254.196364 135.647431 
L 257.475702 133.835328 
L 260.755041 132.023225 
L 264.03438 130.211123 
L 267.313719 128.39902 
L 270.593058 126.586917 
L 273.872397 124.774814 
L 277.151736 122.962711 
L 280.431074 121.150608 
L 283.710413 119.338506 
L 286.989752 117.526403 
L 290.269091 115.7143 
L 293.54843 113.902197 
L 296.827769 112.090094 
L 300.107107 110.277992 
L 303.386446 108.465889 
L 306.665785 106.653786 
L 309.945124 104.841683 
L 313.224463 103.02958 
L 316.503802 101.217477 
L 319.78314 99.405375 
L 323.062479 97.593272 
L 326.341818 95.781169 
L 329.621157 93.969066 
L 332.900496 92.156963 
L 336.179835 90.34486 
L 339.459174 88.532758 
L 342.738512 86.720655 
L 346.017851 84.908552 
L 349.29719 83.096449 
L 352.576529 81.284346 
L 355.855868 79.472243 
L 359.135207 77.660141 
L 362.414545 75.848038 
L 365.693884 74.035935 
L 368.973223 72.223832 
L 372.252562 70.411729 
L 375.531901 68.599626 
L 378.81124 66.787524 
L 382.090579 64.975421 
L 385.369917 63.163318 
L 388.649256 61.351215 
L 391.928595 59.539112 
L 395.207934 57.727009 
L 398.487273 55.914907 
" clip-path="url(#pf06ff2c5be)" style="fill: none; stroke-dasharray: 1.85,0.8; stroke-dashoffset: 0; stroke: #191970; stroke-width: 0.5"/>
   </g>
   <g id="line2d_20">
    <path d="M 73.832727 235.068721 
L 77.112066 233.271917 
L 80.391405 231.475114 
L 83.670744 229.67831 
L 86.950083 227.881507 
L 90.229421 226.084704 
L 93.50876 224.2879 
L 96.788099 222.491097 
L 100.067438 220.694293 
L 103.346777 218.89749 
L 106.626116 217.100686 
L 109.905455 215.303883 
L 113.184793 213.507079 
L 116.464132 211.710276 
L 119.743471 209.913472 
L 123.02281 208.116669 
L 126.302149 206.319865 
L 129.581488 204.523062 
L 132.860826 202.726258 
L 136.140165 200.929455 
L 139.419504 199.132651 
L 142.698843 197.335848 
L 145.978182 195.539044 
L 149.257521 193.742241 
L 152.53686 191.945437 
L 155.816198 190.148634 
L 159.095537 188.35183 
L 162.374876 186.555027 
L 165.654215 184.758223 
L 168.933554 182.96142 
L 172.212893 181.164616 
L 175.492231 179.367813 
L 178.77157 177.571009 
L 182.050909 175.774206 
L 185.330248 173.977403 
L 188.609587 172.180599 
L 191.888926 170.383796 
L 195.168264 168.586992 
L 198.447603 166.790189 
L 201.726942 164.993385 
L 205.006281 163.196582 
L 208.28562 161.399778 
L 211.564959 159.602975 
L 214.844298 157.806171 
L 218.123636 156.009368 
L 221.402975 154.212564 
L 224.682314 152.415761 
L 227.961653 150.618957 
L 231.240992 148.822154 
L 234.520331 147.02535 
L 237.799669 145.228547 
L 241.079008 143.431743 
L 244.358347 141.63494 
L 247.637686 139.838136 
L 250.917025 138.041333 
L 254.196364 136.244529 
L 257.475702 134.447726 
L 260.755041 132.650922 
L 264.03438 130.854119 
L 267.313719 129.057315 
L 270.593058 127.260512 
L 273.872397 125.463708 
L 277.151736 123.666905 
L 280.431074 121.870101 
L 283.710413 120.073298 
L 286.989752 118.276495 
L 290.269091 116.479691 
L 293.54843 114.682888 
L 296.827769 112.886084 
L 300.107107 111.089281 
L 303.386446 109.292477 
L 306.665785 107.495674 
L 309.945124 105.69887 
L 313.224463 103.902067 
L 316.503802 102.105263 
L 319.78314 100.30846 
L 323.062479 98.511656 
L 326.341818 96.714853 
L 329.621157 94.918049 
L 332.900496 93.121246 
L 336.179835 91.324442 
L 339.459174 89.527639 
L 342.738512 87.730835 
L 346.017851 85.934032 
L 349.29719 84.137228 
L 352.576529 82.340425 
L 355.855868 80.543621 
L 359.135207 78.746818 
L 362.414545 76.950014 
L 365.693884 75.153211 
L 368.973223 73.356407 
L 372.252562 71.559604 
L 375.531901 69.7628 
L 378.81124 67.965997 
L 382.090579 66.169193 
L 385.369917 64.37239 
L 388.649256 62.575587 
L 391.928595 60.778783 
L 395.207934 58.98198 
L 398.487273 57.185176 
" clip-path="url(#pf06ff2c5be)" style="fill: none; stroke-dasharray: 0.5,0.825; stroke-dashoffset: 0; stroke: #ff0000; stroke-width: 0.5"/>
   </g>
   <g id="patch_3">
    <path d="M 57.6 307.584 
L 57.6 41.472 
" style="fill: none; stroke: #000000; stroke-width: 0.8; stroke-linejoin: miter; stroke-linecap: square"/>
   </g>
   <g id="patch_4">
    <path d="M 414.72 307.584 
L 414.72 41.472 
" style="fill: none; stroke: #000000; stroke-width: 0.8; stroke-linejoin: miter; stroke-linecap: square"/>
   </g>
   <g id="patch_5">
    <path d="M 57.6 307.584 
L 414.72 307.584 
" style="fill: none; stroke: #000000; stroke-width: 0.8; stroke-linejoin: miter; stroke-linecap: square"/>
   </g>
   <g id="patch_6">
    <path d="M 57.6 41.472 
L 414.72 41.472 
" style="fill: none; stroke: #000000; stroke-width: 0.8; stroke-linejoin: miter; stroke-linecap: square"/>
   </g>
   <g id="text_18">
    <!-- numRider30 -->
    <g transform="translate(199.272188 22.034625)scale(0.12 -0.12)">
     <defs>
      <path id="DejaVuSans-75" d="M 544 1381 
L 544 3500 
L 1119 3500 
L 1119 1403 
Q 1119 906 1312 657 
Q 1506 409 1894 409 
Q 2359 409 2629 706 
Q 2900 1003 2900 1516 
L 2900 3500 
L 3475 3500 
L 3475 0 
L 2900 0 
L 2900 538 
Q 2691 219 2414 64 
Q 2138 -91 1772 -91 
Q 1169 -91 856 284 
Q 544 659 544 1381 
z
M 1991 3584 
L 1991 3584 
z
" transform="scale(0.015625)"/>
      <path id="DejaVuSans-52" d="M 2841 2188 
Q 3044 2119 3236 1894 
Q 3428 1669 3622 1275 
L 4263 0 
L 3584 0 
L 2988 1197 
Q 2756 1666 2539 1819 
Q 2322 1972 1947 1972 
L 1259 1972 
L 1259 0 
L 628 0 
L 628 4666 
L 2053 4666 
Q 2853 4666 3247 4331 
Q 3641 3997 3641 3322 
Q 3641 2881 3436 2590 
Q 3231 2300 2841 2188 
z
M 1259 4147 
L 1259 2491 
L 2053 2491 
Q 2509 2491 2742 2702 
Q 2975 2913 2975 3322 
Q 2975 3731 2742 3939 
Q 2509 4147 2053 4147 
L 1259 4147 
z
" transform="scale(0.015625)"/>
     </defs>
     <use xlink:href="#DejaVuSans-6e"/>
     <use xlink:href="#DejaVuSans-75" x="63.378906"/>
     <use xlink:href="#DejaVuSans-6d" x="126.757812"/>
     <use xlink:href="#DejaVuSans-52" x="224.169922"/>
     <use xlink:href="#DejaVuSans-69" x="293.652344"/>
     <use xlink:href="#DejaVuSans-64" x="321.435547"/>
     <use xlink:href="#DejaVuSans-65" x="384.912109"/>
     <use xlink:href="#DejaVuSans-72" x="446.435547"/>
     <use xlink:href="#DejaVuSans-33" x="487.548828"/>
     <use xlink:href="#DejaVuSans-30" x="551.171875"/>
    </g>
    <!--  grid3000 -->
    <g transform="translate(207.231562 35.472)scale(0.12 -0.12)">
     <defs>
      <path id="DejaVuSans-67" d="M 2906 1791 
Q 2906 2416 2648 2759 
Q 2391 3103 1925 3103 
Q 1463 3103 1205 2759 
Q 947 2416 947 1791 
Q 947 1169 1205 825 
Q 1463 481 1925 481 
Q 2391 481 2648 825 
Q 2906 1169 2906 1791 
z
M 3481 434 
Q 3481 -459 3084 -895 
Q 2688 -1331 1869 -1331 
Q 1566 -1331 1297 -1286 
Q 1028 -1241 775 -1147 
L 775 -588 
Q 1028 -725 1275 -790 
Q 1522 -856 1778 -856 
Q 2344 -856 2625 -561 
Q 2906 -266 2906 331 
L 2906 616 
Q 2728 306 2450 153 
Q 2172 0 1784 0 
Q 1141 0 747 490 
Q 353 981 353 1791 
Q 353 2603 747 3093 
Q 1141 3584 1784 3584 
Q 2172 3584 2450 3431 
Q 2728 3278 2906 2969 
L 2906 3500 
L 3481 3500 
L 3481 434 
z
" transform="scale(0.015625)"/>
     </defs>
     <use xlink:href="#DejaVuSans-20"/>
     <use xlink:href="#DejaVuSans-67" x="31.787109"/>
     <use xlink:href="#DejaVuSans-72" x="95.263672"/>
     <use xlink:href="#DejaVuSans-69" x="136.376953"/>
     <use xlink:href="#DejaVuSans-64" x="164.160156"/>
     <use xlink:href="#DejaVuSans-33" x="227.636719"/>
     <use xlink:href="#DejaVuSans-30" x="291.259766"/>
     <use xlink:href="#DejaVuSans-30" x="354.882812"/>
     <use xlink:href="#DejaVuSans-30" x="418.505859"/>
    </g>
   </g>
   <g id="legend_1">
    <g id="patch_7">
     <path d="M 64.6 122.862625 
L 241.8625 122.862625 
Q 243.8625 122.862625 243.8625 120.862625 
L 243.8625 48.472 
Q 243.8625 46.472 241.8625 46.472 
L 64.6 46.472 
Q 62.6 46.472 62.6 48.472 
L 62.6 120.862625 
Q 62.6 122.862625 64.6 122.862625 
z
" style="fill: #ffffff; opacity: 0.8; stroke: #cccccc; stroke-linejoin: miter"/>
    </g>
    <g id="line2d_21">
     <path d="M 66.6 54.570438 
L 76.6 54.570438 
L 86.6 54.570438 
" style="fill: none; stroke: #32cd32; stroke-linecap: square"/>
    </g>
    <g id="text_19">
     <!-- Time In -->
     <g transform="translate(94.6 58.070438)scale(0.1 -0.1)">
      <use xlink:href="#DejaVuSans-54"/>
      <use xlink:href="#DejaVuSans-69" x="57.958984"/>
      <use xlink:href="#DejaVuSans-6d" x="85.742188"/>
      <use xlink:href="#DejaVuSans-65" x="183.154297"/>
      <use xlink:href="#DejaVuSans-20" x="244.677734"/>
      <use xlink:href="#DejaVuSans-49" x="276.464844"/>
      <use xlink:href="#DejaVuSans-6e" x="305.957031"/>
     </g>
    </g>
    <g id="line2d_22">
     <path d="M 66.6 69.248563 
L 76.6 69.248563 
L 86.6 69.248563 
" style="fill: none; stroke-dasharray: 3.7,1.6; stroke-dashoffset: 0; stroke: #4169e1"/>
    </g>
    <g id="text_20">
     <!-- Time Delivered - Default -->
     <g transform="translate(94.6 72.748563)scale(0.1 -0.1)">
      <defs>
       <path id="DejaVuSans-2d" d="M 313 2009 
L 1997 2009 
L 1997 1497 
L 313 1497 
L 313 2009 
z
" transform="scale(0.015625)"/>
       <path id="DejaVuSans-66" d="M 2375 4863 
L 2375 4384 
L 1825 4384 
Q 1516 4384 1395 4259 
Q 1275 4134 1275 3809 
L 1275 3500 
L 2222 3500 
L 2222 3053 
L 1275 3053 
L 1275 0 
L 697 0 
L 697 3053 
L 147 3053 
L 147 3500 
L 697 3500 
L 697 3744 
Q 697 4328 969 4595 
Q 1241 4863 1831 4863 
L 2375 4863 
z
" transform="scale(0.015625)"/>
       <path id="DejaVuSans-61" d="M 2194 1759 
Q 1497 1759 1228 1600 
Q 959 1441 959 1056 
Q 959 750 1161 570 
Q 1363 391 1709 391 
Q 2188 391 2477 730 
Q 2766 1069 2766 1631 
L 2766 1759 
L 2194 1759 
z
M 3341 1997 
L 3341 0 
L 2766 0 
L 2766 531 
Q 2569 213 2275 61 
Q 1981 -91 1556 -91 
Q 1019 -91 701 211 
Q 384 513 384 1019 
Q 384 1609 779 1909 
Q 1175 2209 1959 2209 
L 2766 2209 
L 2766 2266 
Q 2766 2663 2505 2880 
Q 2244 3097 1772 3097 
Q 1472 3097 1187 3025 
Q 903 2953 641 2809 
L 641 3341 
Q 956 3463 1253 3523 
Q 1550 3584 1831 3584 
Q 2591 3584 2966 3190 
Q 3341 2797 3341 1997 
z
" transform="scale(0.015625)"/>
       <path id="DejaVuSans-74" d="M 1172 4494 
L 1172 3500 
L 2356 3500 
L 2356 3053 
L 1172 3053 
L 1172 1153 
Q 1172 725 1289 603 
Q 1406 481 1766 481 
L 2356 481 
L 2356 0 
L 1766 0 
Q 1100 0 847 248 
Q 594 497 594 1153 
L 594 3053 
L 172 3053 
L 172 3500 
L 594 3500 
L 594 4494 
L 1172 4494 
z
" transform="scale(0.015625)"/>
      </defs>
      <use xlink:href="#DejaVuSans-54"/>
      <use xlink:href="#DejaVuSans-69" x="57.958984"/>
      <use xlink:href="#DejaVuSans-6d" x="85.742188"/>
      <use xlink:href="#DejaVuSans-65" x="183.154297"/>
      <use xlink:href="#DejaVuSans-20" x="244.677734"/>
      <use xlink:href="#DejaVuSans-44" x="276.464844"/>
      <use xlink:href="#DejaVuSans-65" x="353.466797"/>
      <use xlink:href="#DejaVuSans-6c" x="414.990234"/>
      <use xlink:href="#DejaVuSans-69" x="442.773438"/>
      <use xlink:href="#DejaVuSans-76" x="470.556641"/>
      <use xlink:href="#DejaVuSans-65" x="529.736328"/>
      <use xlink:href="#DejaVuSans-72" x="591.259766"/>
      <use xlink:href="#DejaVuSans-65" x="630.123047"/>
      <use xlink:href="#DejaVuSans-64" x="691.646484"/>
      <use xlink:href="#DejaVuSans-20" x="755.123047"/>
      <use xlink:href="#DejaVuSans-2d" x="786.910156"/>
      <use xlink:href="#DejaVuSans-20" x="822.994141"/>
      <use xlink:href="#DejaVuSans-44" x="854.78125"/>
      <use xlink:href="#DejaVuSans-65" x="931.783203"/>
      <use xlink:href="#DejaVuSans-66" x="993.306641"/>
      <use xlink:href="#DejaVuSans-61" x="1028.511719"/>
      <use xlink:href="#DejaVuSans-75" x="1089.791016"/>
      <use xlink:href="#DejaVuSans-6c" x="1153.169922"/>
      <use xlink:href="#DejaVuSans-74" x="1180.953125"/>
     </g>
    </g>
    <g id="line2d_23">
     <path d="M 66.6 83.926688 
L 76.6 83.926688 
L 86.6 83.926688 
" style="fill: none; stroke-dasharray: 1,1.65; stroke-dashoffset: 0; stroke: #ffa500"/>
    </g>
    <g id="text_21">
     <!-- Time Delivered - Anticipation -->
     <g transform="translate(94.6 87.426688)scale(0.1 -0.1)">
      <defs>
       <path id="DejaVuSans-41" d="M 2188 4044 
L 1331 1722 
L 3047 1722 
L 2188 4044 
z
M 1831 4666 
L 2547 4666 
L 4325 0 
L 3669 0 
L 3244 1197 
L 1141 1197 
L 716 0 
L 50 0 
L 1831 4666 
z
" transform="scale(0.015625)"/>
       <path id="DejaVuSans-63" d="M 3122 3366 
L 3122 2828 
Q 2878 2963 2633 3030 
Q 2388 3097 2138 3097 
Q 1578 3097 1268 2742 
Q 959 2388 959 1747 
Q 959 1106 1268 751 
Q 1578 397 2138 397 
Q 2388 397 2633 464 
Q 2878 531 3122 666 
L 3122 134 
Q 2881 22 2623 -34 
Q 2366 -91 2075 -91 
Q 1284 -91 818 406 
Q 353 903 353 1747 
Q 353 2603 823 3093 
Q 1294 3584 2113 3584 
Q 2378 3584 2631 3529 
Q 2884 3475 3122 3366 
z
" transform="scale(0.015625)"/>
       <path id="DejaVuSans-70" d="M 1159 525 
L 1159 -1331 
L 581 -1331 
L 581 3500 
L 1159 3500 
L 1159 2969 
Q 1341 3281 1617 3432 
Q 1894 3584 2278 3584 
Q 2916 3584 3314 3078 
Q 3713 2572 3713 1747 
Q 3713 922 3314 415 
Q 2916 -91 2278 -91 
Q 1894 -91 1617 61 
Q 1341 213 1159 525 
z
M 3116 1747 
Q 3116 2381 2855 2742 
Q 2594 3103 2138 3103 
Q 1681 3103 1420 2742 
Q 1159 2381 1159 1747 
Q 1159 1113 1420 752 
Q 1681 391 2138 391 
Q 2594 391 2855 752 
Q 3116 1113 3116 1747 
z
" transform="scale(0.015625)"/>
       <path id="DejaVuSans-6f" d="M 1959 3097 
Q 1497 3097 1228 2736 
Q 959 2375 959 1747 
Q 959 1119 1226 758 
Q 1494 397 1959 397 
Q 2419 397 2687 759 
Q 2956 1122 2956 1747 
Q 2956 2369 2687 2733 
Q 2419 3097 1959 3097 
z
M 1959 3584 
Q 2709 3584 3137 3096 
Q 3566 2609 3566 1747 
Q 3566 888 3137 398 
Q 2709 -91 1959 -91 
Q 1206 -91 779 398 
Q 353 888 353 1747 
Q 353 2609 779 3096 
Q 1206 3584 1959 3584 
z
" transform="scale(0.015625)"/>
      </defs>
      <use xlink:href="#DejaVuSans-54"/>
      <use xlink:href="#DejaVuSans-69" x="57.958984"/>
      <use xlink:href="#DejaVuSans-6d" x="85.742188"/>
      <use xlink:href="#DejaVuSans-65" x="183.154297"/>
      <use xlink:href="#DejaVuSans-20" x="244.677734"/>
      <use xlink:href="#DejaVuSans-44" x="276.464844"/>
      <use xlink:href="#DejaVuSans-65" x="353.466797"/>
      <use xlink:href="#DejaVuSans-6c" x="414.990234"/>
      <use xlink:href="#DejaVuSans-69" x="442.773438"/>
      <use xlink:href="#DejaVuSans-76" x="470.556641"/>
      <use xlink:href="#DejaVuSans-65" x="529.736328"/>
      <use xlink:href="#DejaVuSans-72" x="591.259766"/>
      <use xlink:href="#DejaVuSans-65" x="630.123047"/>
      <use xlink:href="#DejaVuSans-64" x="691.646484"/>
      <use xlink:href="#DejaVuSans-20" x="755.123047"/>
      <use xlink:href="#DejaVuSans-2d" x="786.910156"/>
      <use xlink:href="#DejaVuSans-20" x="822.994141"/>
      <use xlink:href="#DejaVuSans-41" x="854.78125"/>
      <use xlink:href="#DejaVuSans-6e" x="923.189453"/>
      <use xlink:href="#DejaVuSans-74" x="986.568359"/>
      <use xlink:href="#DejaVuSans-69" x="1025.777344"/>
      <use xlink:href="#DejaVuSans-63" x="1053.560547"/>
      <use xlink:href="#DejaVuSans-69" x="1108.541016"/>
      <use xlink:href="#DejaVuSans-70" x="1136.324219"/>
      <use xlink:href="#DejaVuSans-61" x="1199.800781"/>
      <use xlink:href="#DejaVuSans-74" x="1261.080078"/>
      <use xlink:href="#DejaVuSans-69" x="1300.289062"/>
      <use xlink:href="#DejaVuSans-6f" x="1328.072266"/>
      <use xlink:href="#DejaVuSans-6e" x="1389.253906"/>
     </g>
    </g>
    <g id="line2d_24">
     <path d="M 66.6 98.604813 
L 76.6 98.604813 
L 86.6 98.604813 
" style="fill: none; stroke-dasharray: 1.85,0.8; stroke-dashoffset: 0; stroke: #191970; stroke-width: 0.5"/>
    </g>
    <g id="text_22">
     <!-- best fit line for default -->
     <g transform="translate(94.6 102.104813)scale(0.1 -0.1)">
      <defs>
       <path id="DejaVuSans-62" d="M 3116 1747 
Q 3116 2381 2855 2742 
Q 2594 3103 2138 3103 
Q 1681 3103 1420 2742 
Q 1159 2381 1159 1747 
Q 1159 1113 1420 752 
Q 1681 391 2138 391 
Q 2594 391 2855 752 
Q 3116 1113 3116 1747 
z
M 1159 2969 
Q 1341 3281 1617 3432 
Q 1894 3584 2278 3584 
Q 2916 3584 3314 3078 
Q 3713 2572 3713 1747 
Q 3713 922 3314 415 
Q 2916 -91 2278 -91 
Q 1894 -91 1617 61 
Q 1341 213 1159 525 
L 1159 0 
L 581 0 
L 581 4863 
L 1159 4863 
L 1159 2969 
z
" transform="scale(0.015625)"/>
       <path id="DejaVuSans-73" d="M 2834 3397 
L 2834 2853 
Q 2591 2978 2328 3040 
Q 2066 3103 1784 3103 
Q 1356 3103 1142 2972 
Q 928 2841 928 2578 
Q 928 2378 1081 2264 
Q 1234 2150 1697 2047 
L 1894 2003 
Q 2506 1872 2764 1633 
Q 3022 1394 3022 966 
Q 3022 478 2636 193 
Q 2250 -91 1575 -91 
Q 1294 -91 989 -36 
Q 684 19 347 128 
L 347 722 
Q 666 556 975 473 
Q 1284 391 1588 391 
Q 1994 391 2212 530 
Q 2431 669 2431 922 
Q 2431 1156 2273 1281 
Q 2116 1406 1581 1522 
L 1381 1569 
Q 847 1681 609 1914 
Q 372 2147 372 2553 
Q 372 3047 722 3315 
Q 1072 3584 1716 3584 
Q 2034 3584 2315 3537 
Q 2597 3491 2834 3397 
z
" transform="scale(0.015625)"/>
      </defs>
      <use xlink:href="#DejaVuSans-62"/>
      <use xlink:href="#DejaVuSans-65" x="63.476562"/>
      <use xlink:href="#DejaVuSans-73" x="125"/>
      <use xlink:href="#DejaVuSans-74" x="177.099609"/>
      <use xlink:href="#DejaVuSans-20" x="216.308594"/>
      <use xlink:href="#DejaVuSans-66" x="248.095703"/>
      <use xlink:href="#DejaVuSans-69" x="283.300781"/>
      <use xlink:href="#DejaVuSans-74" x="311.083984"/>
      <use xlink:href="#DejaVuSans-20" x="350.292969"/>
      <use xlink:href="#DejaVuSans-6c" x="382.080078"/>
      <use xlink:href="#DejaVuSans-69" x="409.863281"/>
      <use xlink:href="#DejaVuSans-6e" x="437.646484"/>
      <use xlink:href="#DejaVuSans-65" x="501.025391"/>
      <use xlink:href="#DejaVuSans-20" x="562.548828"/>
      <use xlink:href="#DejaVuSans-66" x="594.335938"/>
      <use xlink:href="#DejaVuSans-6f" x="629.541016"/>
      <use xlink:href="#DejaVuSans-72" x="690.722656"/>
      <use xlink:href="#DejaVuSans-20" x="731.835938"/>
      <use xlink:href="#DejaVuSans-64" x="763.623047"/>
      <use xlink:href="#DejaVuSans-65" x="827.099609"/>
      <use xlink:href="#DejaVuSans-66" x="888.623047"/>
      <use xlink:href="#DejaVuSans-61" x="923.828125"/>
      <use xlink:href="#DejaVuSans-75" x="985.107422"/>
      <use xlink:href="#DejaVuSans-6c" x="1048.486328"/>
      <use xlink:href="#DejaVuSans-74" x="1076.269531"/>
     </g>
    </g>
    <g id="line2d_25">
     <path d="M 66.6 113.282938 
L 76.6 113.282938 
L 86.6 113.282938 
" style="fill: none; stroke-dasharray: 0.5,0.825; stroke-dashoffset: 0; stroke: #ff0000; stroke-width: 0.5"/>
    </g>
    <g id="text_23">
     <!-- best fit line for anticipation -->
     <g transform="translate(94.6 116.782938)scale(0.1 -0.1)">
      <use xlink:href="#DejaVuSans-62"/>
      <use xlink:href="#DejaVuSans-65" x="63.476562"/>
      <use xlink:href="#DejaVuSans-73" x="125"/>
      <use xlink:href="#DejaVuSans-74" x="177.099609"/>
      <use xlink:href="#DejaVuSans-20" x="216.308594"/>
      <use xlink:href="#DejaVuSans-66" x="248.095703"/>
      <use xlink:href="#DejaVuSans-69" x="283.300781"/>
      <use xlink:href="#DejaVuSans-74" x="311.083984"/>
      <use xlink:href="#DejaVuSans-20" x="350.292969"/>
      <use xlink:href="#DejaVuSans-6c" x="382.080078"/>
      <use xlink:href="#DejaVuSans-69" x="409.863281"/>
      <use xlink:href="#DejaVuSans-6e" x="437.646484"/>
      <use xlink:href="#DejaVuSans-65" x="501.025391"/>
      <use xlink:href="#DejaVuSans-20" x="562.548828"/>
      <use xlink:href="#DejaVuSans-66" x="594.335938"/>
      <use xlink:href="#DejaVuSans-6f" x="629.541016"/>
      <use xlink:href="#DejaVuSans-72" x="690.722656"/>
      <use xlink:href="#DejaVuSans-20" x="731.835938"/>
      <use xlink:href="#DejaVuSans-61" x="763.623047"/>
      <use xlink:href="#DejaVuSans-6e" x="824.902344"/>
      <use xlink:href="#DejaVuSans-74" x="888.28125"/>
      <use xlink:href="#DejaVuSans-69" x="927.490234"/>
      <use xlink:href="#DejaVuSans-63" x="955.273438"/>
      <use xlink:href="#DejaVuSans-69" x="1010.253906"/>
      <use xlink:href="#DejaVuSans-70" x="1038.037109"/>
      <use xlink:href="#DejaVuSans-61" x="1101.513672"/>
      <use xlink:href="#DejaVuSans-74" x="1162.792969"/>
      <use xlink:href="#DejaVuSans-69" x="1202.001953"/>
      <use xlink:href="#DejaVuSans-6f" x="1229.785156"/>
      <use xlink:href="#DejaVuSans-6e" x="1290.966797"/>
     </g>
    </g>
   </g>
  </g>
 </g>
 <defs>
  <clipPath id="pf06ff2c5be">
   <rect x="57.6" y="41.472" width="357.12" height="266.112"/>
  </clipPath>
 </defs>
</svg>
