<?xml version="1.0" encoding="utf-8" standalone="no"?>
<!DOCTYPE svg PUBLIC "-//W3C//DTD SVG 1.1//EN"
  "http://www.w3.org/Graphics/SVG/1.1/DTD/svg11.dtd">
<svg xmlns:xlink="http://www.w3.org/1999/xlink" width="460.8pt" height="345.6pt" viewBox="0 0 460.8 345.6" xmlns="http://www.w3.org/2000/svg" version="1.1">
 <metadata>
  <rdf:RDF xmlns:dc="http://purl.org/dc/elements/1.1/" xmlns:cc="http://creativecommons.org/ns#" xmlns:rdf="http://www.w3.org/1999/02/22-rdf-syntax-ns#">
   <cc:Work>
    <dc:type rdf:resource="http://purl.org/dc/dcmitype/StillImage"/>
    <dc:date>2022-10-04T09:09:03.341354</dc:date>
    <dc:format>image/svg+xml</dc:format>
    <dc:creator>
     <cc:Agent>
      <dc:title>Matplotlib v3.5.3, https://matplotlib.org/</dc:title>
     </cc:Agent>
    </dc:creator>
   </cc:Work>
  </rdf:RDF>
 </metadata>
 <defs>
  <style type="text/css">*{stroke-linejoin: round; stroke-linecap: butt}</style>
 </defs>
 <g id="figure_1">
  <g id="patch_1">
   <path d="M 0 345.6 
L 460.8 345.6 
L 460.8 0 
L 0 0 
z
" style="fill: #ffffff"/>
  </g>
  <g id="axes_1">
   <g id="patch_2">
    <path d="M 57.6 307.584 
L 414.72 307.584 
L 414.72 41.472 
L 57.6 41.472 
z
" style="fill: #ffffff"/>
   </g>
   <g id="matplotlib.axis_1">
    <g id="xtick_1">
     <g id="line2d_1">
      <defs>
       <path id="m5d16a5b075" d="M 0 0 
L 0 3.5 
" style="stroke: #000000; stroke-width: 0.8"/>
      </defs>
      <g>
       <use xlink:href="#m5d16a5b075" x="73.832727" y="307.584" style="stroke: #000000; stroke-width: 0.8"/>
      </g>
     </g>
     <g id="text_1">
      <!-- 0 -->
      <g transform="translate(70.651477 322.182437)scale(0.1 -0.1)">
       <defs>
        <path id="DejaVuSans-30" d="M 2034 4250 
Q 1547 4250 1301 3770 
Q 1056 3291 1056 2328 
Q 1056 1369 1301 889 
Q 1547 409 2034 409 
Q 2525 409 2770 889 
Q 3016 1369 3016 2328 
Q 3016 3291 2770 3770 
Q 2525 4250 2034 4250 
z
M 2034 4750 
Q 2819 4750 3233 4129 
Q 3647 3509 3647 2328 
Q 3647 1150 3233 529 
Q 2819 -91 2034 -91 
Q 1250 -91 836 529 
Q 422 1150 422 2328 
Q 422 3509 836 4129 
Q 1250 4750 2034 4750 
z
" transform="scale(0.015625)"/>
       </defs>
       <use xlink:href="#DejaVuSans-30"/>
      </g>
     </g>
    </g>
    <g id="xtick_2">
     <g id="line2d_2">
      <g>
       <use xlink:href="#m5d16a5b075" x="139.419504" y="307.584" style="stroke: #000000; stroke-width: 0.8"/>
      </g>
     </g>
     <g id="text_2">
      <!-- 20 -->
      <g transform="translate(133.057004 322.182437)scale(0.1 -0.1)">
       <defs>
        <path id="DejaVuSans-32" d="M 1228 531 
L 3431 531 
L 3431 0 
L 469 0 
L 469 531 
Q 828 903 1448 1529 
Q 2069 2156 2228 2338 
Q 2531 2678 2651 2914 
Q 2772 3150 2772 3378 
Q 2772 3750 2511 3984 
Q 2250 4219 1831 4219 
Q 1534 4219 1204 4116 
Q 875 4013 500 3803 
L 500 4441 
Q 881 4594 1212 4672 
Q 1544 4750 1819 4750 
Q 2544 4750 2975 4387 
Q 3406 4025 3406 3419 
Q 3406 3131 3298 2873 
Q 3191 2616 2906 2266 
Q 2828 2175 2409 1742 
Q 1991 1309 1228 531 
z
" transform="scale(0.015625)"/>
       </defs>
       <use xlink:href="#DejaVuSans-32"/>
       <use xlink:href="#DejaVuSans-30" x="63.623047"/>
      </g>
     </g>
    </g>
    <g id="xtick_3">
     <g id="line2d_3">
      <g>
       <use xlink:href="#m5d16a5b075" x="205.006281" y="307.584" style="stroke: #000000; stroke-width: 0.8"/>
      </g>
     </g>
     <g id="text_3">
      <!-- 40 -->
      <g transform="translate(198.643781 322.182437)scale(0.1 -0.1)">
       <defs>
        <path id="DejaVuSans-34" d="M 2419 4116 
L 825 1625 
L 2419 1625 
L 2419 4116 
z
M 2253 4666 
L 3047 4666 
L 3047 1625 
L 3713 1625 
L 3713 1100 
L 3047 1100 
L 3047 0 
L 2419 0 
L 2419 1100 
L 313 1100 
L 313 1709 
L 2253 4666 
z
" transform="scale(0.015625)"/>
       </defs>
       <use xlink:href="#DejaVuSans-34"/>
       <use xlink:href="#DejaVuSans-30" x="63.623047"/>
      </g>
     </g>
    </g>
    <g id="xtick_4">
     <g id="line2d_4">
      <g>
       <use xlink:href="#m5d16a5b075" x="270.593058" y="307.584" style="stroke: #000000; stroke-width: 0.8"/>
      </g>
     </g>
     <g id="text_4">
      <!-- 60 -->
      <g transform="translate(264.230558 322.182437)scale(0.1 -0.1)">
       <defs>
        <path id="DejaVuSans-36" d="M 2113 2584 
Q 1688 2584 1439 2293 
Q 1191 2003 1191 1497 
Q 1191 994 1439 701 
Q 1688 409 2113 409 
Q 2538 409 2786 701 
Q 3034 994 3034 1497 
Q 3034 2003 2786 2293 
Q 2538 2584 2113 2584 
z
M 3366 4563 
L 3366 3988 
Q 3128 4100 2886 4159 
Q 2644 4219 2406 4219 
Q 1781 4219 1451 3797 
Q 1122 3375 1075 2522 
Q 1259 2794 1537 2939 
Q 1816 3084 2150 3084 
Q 2853 3084 3261 2657 
Q 3669 2231 3669 1497 
Q 3669 778 3244 343 
Q 2819 -91 2113 -91 
Q 1303 -91 875 529 
Q 447 1150 447 2328 
Q 447 3434 972 4092 
Q 1497 4750 2381 4750 
Q 2619 4750 2861 4703 
Q 3103 4656 3366 4563 
z
" transform="scale(0.015625)"/>
       </defs>
       <use xlink:href="#DejaVuSans-36"/>
       <use xlink:href="#DejaVuSans-30" x="63.623047"/>
      </g>
     </g>
    </g>
    <g id="xtick_5">
     <g id="line2d_5">
      <g>
       <use xlink:href="#m5d16a5b075" x="336.179835" y="307.584" style="stroke: #000000; stroke-width: 0.8"/>
      </g>
     </g>
     <g id="text_5">
      <!-- 80 -->
      <g transform="translate(329.817335 322.182437)scale(0.1 -0.1)">
       <defs>
        <path id="DejaVuSans-38" d="M 2034 2216 
Q 1584 2216 1326 1975 
Q 1069 1734 1069 1313 
Q 1069 891 1326 650 
Q 1584 409 2034 409 
Q 2484 409 2743 651 
Q 3003 894 3003 1313 
Q 3003 1734 2745 1975 
Q 2488 2216 2034 2216 
z
M 1403 2484 
Q 997 2584 770 2862 
Q 544 3141 544 3541 
Q 544 4100 942 4425 
Q 1341 4750 2034 4750 
Q 2731 4750 3128 4425 
Q 3525 4100 3525 3541 
Q 3525 3141 3298 2862 
Q 3072 2584 2669 2484 
Q 3125 2378 3379 2068 
Q 3634 1759 3634 1313 
Q 3634 634 3220 271 
Q 2806 -91 2034 -91 
Q 1263 -91 848 271 
Q 434 634 434 1313 
Q 434 1759 690 2068 
Q 947 2378 1403 2484 
z
M 1172 3481 
Q 1172 3119 1398 2916 
Q 1625 2713 2034 2713 
Q 2441 2713 2670 2916 
Q 2900 3119 2900 3481 
Q 2900 3844 2670 4047 
Q 2441 4250 2034 4250 
Q 1625 4250 1398 4047 
Q 1172 3844 1172 3481 
z
" transform="scale(0.015625)"/>
       </defs>
       <use xlink:href="#DejaVuSans-38"/>
       <use xlink:href="#DejaVuSans-30" x="63.623047"/>
      </g>
     </g>
    </g>
    <g id="xtick_6">
     <g id="line2d_6">
      <g>
       <use xlink:href="#m5d16a5b075" x="401.766612" y="307.584" style="stroke: #000000; stroke-width: 0.8"/>
      </g>
     </g>
     <g id="text_6">
      <!-- 100 -->
      <g transform="translate(392.222862 322.182437)scale(0.1 -0.1)">
       <defs>
        <path id="DejaVuSans-31" d="M 794 531 
L 1825 531 
L 1825 4091 
L 703 3866 
L 703 4441 
L 1819 4666 
L 2450 4666 
L 2450 531 
L 3481 531 
L 3481 0 
L 794 0 
L 794 531 
z
" transform="scale(0.015625)"/>
       </defs>
       <use xlink:href="#DejaVuSans-31"/>
       <use xlink:href="#DejaVuSans-30" x="63.623047"/>
       <use xlink:href="#DejaVuSans-30" x="127.246094"/>
      </g>
     </g>
    </g>
    <g id="text_7">
     <!-- Order Index -->
     <g transform="translate(206.594375 335.860562)scale(0.1 -0.1)">
      <defs>
       <path id="DejaVuSans-4f" d="M 2522 4238 
Q 1834 4238 1429 3725 
Q 1025 3213 1025 2328 
Q 1025 1447 1429 934 
Q 1834 422 2522 422 
Q 3209 422 3611 934 
Q 4013 1447 4013 2328 
Q 4013 3213 3611 3725 
Q 3209 4238 2522 4238 
z
M 2522 4750 
Q 3503 4750 4090 4092 
Q 4678 3434 4678 2328 
Q 4678 1225 4090 567 
Q 3503 -91 2522 -91 
Q 1538 -91 948 565 
Q 359 1222 359 2328 
Q 359 3434 948 4092 
Q 1538 4750 2522 4750 
z
" transform="scale(0.015625)"/>
       <path id="DejaVuSans-72" d="M 2631 2963 
Q 2534 3019 2420 3045 
Q 2306 3072 2169 3072 
Q 1681 3072 1420 2755 
Q 1159 2438 1159 1844 
L 1159 0 
L 581 0 
L 581 3500 
L 1159 3500 
L 1159 2956 
Q 1341 3275 1631 3429 
Q 1922 3584 2338 3584 
Q 2397 3584 2469 3576 
Q 2541 3569 2628 3553 
L 2631 2963 
z
" transform="scale(0.015625)"/>
       <path id="DejaVuSans-64" d="M 2906 2969 
L 2906 4863 
L 3481 4863 
L 3481 0 
L 2906 0 
L 2906 525 
Q 2725 213 2448 61 
Q 2172 -91 1784 -91 
Q 1150 -91 751 415 
Q 353 922 353 1747 
Q 353 2572 751 3078 
Q 1150 3584 1784 3584 
Q 2172 3584 2448 3432 
Q 2725 3281 2906 2969 
z
M 947 1747 
Q 947 1113 1208 752 
Q 1469 391 1925 391 
Q 2381 391 2643 752 
Q 2906 1113 2906 1747 
Q 2906 2381 2643 2742 
Q 2381 3103 1925 3103 
Q 1469 3103 1208 2742 
Q 947 2381 947 1747 
z
" transform="scale(0.015625)"/>
       <path id="DejaVuSans-65" d="M 3597 1894 
L 3597 1613 
L 953 1613 
Q 991 1019 1311 708 
Q 1631 397 2203 397 
Q 2534 397 2845 478 
Q 3156 559 3463 722 
L 3463 178 
Q 3153 47 2828 -22 
Q 2503 -91 2169 -91 
Q 1331 -91 842 396 
Q 353 884 353 1716 
Q 353 2575 817 3079 
Q 1281 3584 2069 3584 
Q 2775 3584 3186 3129 
Q 3597 2675 3597 1894 
z
M 3022 2063 
Q 3016 2534 2758 2815 
Q 2500 3097 2075 3097 
Q 1594 3097 1305 2825 
Q 1016 2553 972 2059 
L 3022 2063 
z
" transform="scale(0.015625)"/>
       <path id="DejaVuSans-20" transform="scale(0.015625)"/>
       <path id="DejaVuSans-49" d="M 628 4666 
L 1259 4666 
L 1259 0 
L 628 0 
L 628 4666 
z
" transform="scale(0.015625)"/>
       <path id="DejaVuSans-6e" d="M 3513 2113 
L 3513 0 
L 2938 0 
L 2938 2094 
Q 2938 2591 2744 2837 
Q 2550 3084 2163 3084 
Q 1697 3084 1428 2787 
Q 1159 2491 1159 1978 
L 1159 0 
L 581 0 
L 581 3500 
L 1159 3500 
L 1159 2956 
Q 1366 3272 1645 3428 
Q 1925 3584 2291 3584 
Q 2894 3584 3203 3211 
Q 3513 2838 3513 2113 
z
" transform="scale(0.015625)"/>
       <path id="DejaVuSans-78" d="M 3513 3500 
L 2247 1797 
L 3578 0 
L 2900 0 
L 1881 1375 
L 863 0 
L 184 0 
L 1544 1831 
L 300 3500 
L 978 3500 
L 1906 2253 
L 2834 3500 
L 3513 3500 
z
" transform="scale(0.015625)"/>
      </defs>
      <use xlink:href="#DejaVuSans-4f"/>
      <use xlink:href="#DejaVuSans-72" x="78.710938"/>
      <use xlink:href="#DejaVuSans-64" x="118.074219"/>
      <use xlink:href="#DejaVuSans-65" x="181.550781"/>
      <use xlink:href="#DejaVuSans-72" x="243.074219"/>
      <use xlink:href="#DejaVuSans-20" x="284.1875"/>
      <use xlink:href="#DejaVuSans-49" x="315.974609"/>
      <use xlink:href="#DejaVuSans-6e" x="345.466797"/>
      <use xlink:href="#DejaVuSans-64" x="408.845703"/>
      <use xlink:href="#DejaVuSans-65" x="472.322266"/>
      <use xlink:href="#DejaVuSans-78" x="532.095703"/>
     </g>
    </g>
   </g>
   <g id="matplotlib.axis_2">
    <g id="ytick_1">
     <g id="line2d_7">
      <defs>
       <path id="m6a279c6fff" d="M 0 0 
L -3.5 0 
" style="stroke: #000000; stroke-width: 0.8"/>
      </defs>
      <g>
       <use xlink:href="#m6a279c6fff" x="57.6" y="297.287025" style="stroke: #000000; stroke-width: 0.8"/>
      </g>
     </g>
     <g id="text_8">
      <!-- 0 -->
      <g transform="translate(44.2375 301.086243)scale(0.1 -0.1)">
       <use xlink:href="#DejaVuSans-30"/>
      </g>
     </g>
    </g>
    <g id="ytick_2">
     <g id="line2d_8">
      <g>
       <use xlink:href="#m6a279c6fff" x="57.6" y="239.253969" style="stroke: #000000; stroke-width: 0.8"/>
      </g>
     </g>
     <g id="text_9">
      <!-- 1000 -->
      <g transform="translate(25.15 243.053188)scale(0.1 -0.1)">
       <use xlink:href="#DejaVuSans-31"/>
       <use xlink:href="#DejaVuSans-30" x="63.623047"/>
       <use xlink:href="#DejaVuSans-30" x="127.246094"/>
       <use xlink:href="#DejaVuSans-30" x="190.869141"/>
      </g>
     </g>
    </g>
    <g id="ytick_3">
     <g id="line2d_9">
      <g>
       <use xlink:href="#m6a279c6fff" x="57.6" y="181.220913" style="stroke: #000000; stroke-width: 0.8"/>
      </g>
     </g>
     <g id="text_10">
      <!-- 2000 -->
      <g transform="translate(25.15 185.020132)scale(0.1 -0.1)">
       <use xlink:href="#DejaVuSans-32"/>
       <use xlink:href="#DejaVuSans-30" x="63.623047"/>
       <use xlink:href="#DejaVuSans-30" x="127.246094"/>
       <use xlink:href="#DejaVuSans-30" x="190.869141"/>
      </g>
     </g>
    </g>
    <g id="ytick_4">
     <g id="line2d_10">
      <g>
       <use xlink:href="#m6a279c6fff" x="57.6" y="123.187858" style="stroke: #000000; stroke-width: 0.8"/>
      </g>
     </g>
     <g id="text_11">
      <!-- 3000 -->
      <g transform="translate(25.15 126.987077)scale(0.1 -0.1)">
       <defs>
        <path id="DejaVuSans-33" d="M 2597 2516 
Q 3050 2419 3304 2112 
Q 3559 1806 3559 1356 
Q 3559 666 3084 287 
Q 2609 -91 1734 -91 
Q 1441 -91 1130 -33 
Q 819 25 488 141 
L 488 750 
Q 750 597 1062 519 
Q 1375 441 1716 441 
Q 2309 441 2620 675 
Q 2931 909 2931 1356 
Q 2931 1769 2642 2001 
Q 2353 2234 1838 2234 
L 1294 2234 
L 1294 2753 
L 1863 2753 
Q 2328 2753 2575 2939 
Q 2822 3125 2822 3475 
Q 2822 3834 2567 4026 
Q 2313 4219 1838 4219 
Q 1578 4219 1281 4162 
Q 984 4106 628 3988 
L 628 4550 
Q 988 4650 1302 4700 
Q 1616 4750 1894 4750 
Q 2613 4750 3031 4423 
Q 3450 4097 3450 3541 
Q 3450 3153 3228 2886 
Q 3006 2619 2597 2516 
z
" transform="scale(0.015625)"/>
       </defs>
       <use xlink:href="#DejaVuSans-33"/>
       <use xlink:href="#DejaVuSans-30" x="63.623047"/>
       <use xlink:href="#DejaVuSans-30" x="127.246094"/>
       <use xlink:href="#DejaVuSans-30" x="190.869141"/>
      </g>
     </g>
    </g>
    <g id="ytick_5">
     <g id="line2d_11">
      <g>
       <use xlink:href="#m6a279c6fff" x="57.6" y="65.154802" style="stroke: #000000; stroke-width: 0.8"/>
      </g>
     </g>
     <g id="text_12">
      <!-- 4000 -->
      <g transform="translate(25.15 68.954021)scale(0.1 -0.1)">
       <use xlink:href="#DejaVuSans-34"/>
       <use xlink:href="#DejaVuSans-30" x="63.623047"/>
       <use xlink:href="#DejaVuSans-30" x="127.246094"/>
       <use xlink:href="#DejaVuSans-30" x="190.869141"/>
      </g>
     </g>
    </g>
    <g id="text_13">
     <!-- Order Delivered Time -->
     <g transform="translate(19.070312 228.08425)rotate(-90)scale(0.1 -0.1)">
      <defs>
       <path id="DejaVuSans-44" d="M 1259 4147 
L 1259 519 
L 2022 519 
Q 2988 519 3436 956 
Q 3884 1394 3884 2338 
Q 3884 3275 3436 3711 
Q 2988 4147 2022 4147 
L 1259 4147 
z
M 628 4666 
L 1925 4666 
Q 3281 4666 3915 4102 
Q 4550 3538 4550 2338 
Q 4550 1131 3912 565 
Q 3275 0 1925 0 
L 628 0 
L 628 4666 
z
" transform="scale(0.015625)"/>
       <path id="DejaVuSans-6c" d="M 603 4863 
L 1178 4863 
L 1178 0 
L 603 0 
L 603 4863 
z
" transform="scale(0.015625)"/>
       <path id="DejaVuSans-69" d="M 603 3500 
L 1178 3500 
L 1178 0 
L 603 0 
L 603 3500 
z
M 603 4863 
L 1178 4863 
L 1178 4134 
L 603 4134 
L 603 4863 
z
" transform="scale(0.015625)"/>
       <path id="DejaVuSans-76" d="M 191 3500 
L 800 3500 
L 1894 563 
L 2988 3500 
L 3597 3500 
L 2284 0 
L 1503 0 
L 191 3500 
z
" transform="scale(0.015625)"/>
       <path id="DejaVuSans-54" d="M -19 4666 
L 3928 4666 
L 3928 4134 
L 2272 4134 
L 2272 0 
L 1638 0 
L 1638 4134 
L -19 4134 
L -19 4666 
z
" transform="scale(0.015625)"/>
       <path id="DejaVuSans-6d" d="M 3328 2828 
Q 3544 3216 3844 3400 
Q 4144 3584 4550 3584 
Q 5097 3584 5394 3201 
Q 5691 2819 5691 2113 
L 5691 0 
L 5113 0 
L 5113 2094 
Q 5113 2597 4934 2840 
Q 4756 3084 4391 3084 
Q 3944 3084 3684 2787 
Q 3425 2491 3425 1978 
L 3425 0 
L 2847 0 
L 2847 2094 
Q 2847 2600 2669 2842 
Q 2491 3084 2119 3084 
Q 1678 3084 1418 2786 
Q 1159 2488 1159 1978 
L 1159 0 
L 581 0 
L 581 3500 
L 1159 3500 
L 1159 2956 
Q 1356 3278 1631 3431 
Q 1906 3584 2284 3584 
Q 2666 3584 2933 3390 
Q 3200 3197 3328 2828 
z
" transform="scale(0.015625)"/>
      </defs>
      <use xlink:href="#DejaVuSans-4f"/>
      <use xlink:href="#DejaVuSans-72" x="78.710938"/>
      <use xlink:href="#DejaVuSans-64" x="118.074219"/>
      <use xlink:href="#DejaVuSans-65" x="181.550781"/>
      <use xlink:href="#DejaVuSans-72" x="243.074219"/>
      <use xlink:href="#DejaVuSans-20" x="284.1875"/>
      <use xlink:href="#DejaVuSans-44" x="315.974609"/>
      <use xlink:href="#DejaVuSans-65" x="392.976562"/>
      <use xlink:href="#DejaVuSans-6c" x="454.5"/>
      <use xlink:href="#DejaVuSans-69" x="482.283203"/>
      <use xlink:href="#DejaVuSans-76" x="510.066406"/>
      <use xlink:href="#DejaVuSans-65" x="569.246094"/>
      <use xlink:href="#DejaVuSans-72" x="630.769531"/>
      <use xlink:href="#DejaVuSans-65" x="669.632812"/>
      <use xlink:href="#DejaVuSans-64" x="731.15625"/>
      <use xlink:href="#DejaVuSans-20" x="794.632812"/>
      <use xlink:href="#DejaVuSans-54" x="826.419922"/>
      <use xlink:href="#DejaVuSans-69" x="884.378906"/>
      <use xlink:href="#DejaVuSans-6d" x="912.162109"/>
      <use xlink:href="#DejaVuSans-65" x="1009.574219"/>
     </g>
    </g>
   </g>
   <g id="line2d_12">
    <path d="M 73.832727 295.488 
L 77.112066 294.15324 
L 80.391405 292.296182 
L 83.670744 290.903389 
L 86.950083 289.278463 
L 90.229421 288.349934 
L 93.50876 286.086645 
L 96.788099 283.939422 
L 100.067438 282.488596 
L 103.346777 280.86367 
L 106.626116 279.180711 
L 109.905455 277.149554 
L 113.184793 275.060364 
L 116.464132 273.609538 
L 119.743471 272.216745 
L 123.02281 270.940017 
L 126.302149 269.257059 
L 129.581488 267.864266 
L 132.860826 265.600976 
L 136.140165 263.918018 
L 139.419504 262.351125 
L 142.698843 260.378001 
L 145.978182 258.346844 
L 149.257521 256.954051 
L 152.53686 255.619291 
L 155.816198 253.472068 
L 159.095537 251.731076 
L 162.374876 249.990084 
L 165.654215 248.597291 
L 168.933554 246.972365 
L 172.212893 244.999242 
L 175.492231 243.316283 
L 178.77157 241.865457 
L 182.050909 239.8343 
L 185.330248 238.093308 
L 188.609587 236.120184 
L 191.888926 234.437225 
L 195.168264 232.8123 
L 198.447603 231.129341 
L 201.726942 229.794581 
L 205.006281 227.821457 
L 208.28562 225.732267 
L 211.564959 223.875209 
L 214.844298 221.960118 
L 218.123636 220.219127 
L 221.402975 218.884367 
L 224.682314 217.317474 
L 227.961653 215.576482 
L 231.240992 214.183689 
L 234.520331 212.094499 
L 237.799669 210.469573 
L 241.079008 208.902681 
L 244.358347 207.335788 
L 247.637686 205.130532 
L 250.917025 203.273475 
L 254.196364 202.05478 
L 257.475702 200.081657 
L 260.755041 197.644268 
L 264.03438 195.729177 
L 267.313719 193.988186 
L 270.593058 192.537359 
L 273.872397 191.318665 
L 277.151736 189.461607 
L 280.431074 188.010781 
L 283.710413 186.037657 
L 286.989752 183.948467 
L 290.269091 182.091409 
L 293.54843 180.756649 
L 296.827769 178.841558 
L 300.107107 177.1586 
L 303.386446 175.417608 
L 306.665785 173.734649 
L 309.945124 172.167757 
L 313.224463 170.484798 
L 316.503802 168.743806 
L 319.78314 166.944782 
L 323.062479 165.145757 
L 326.341818 163.230666 
L 329.621157 161.547708 
L 332.900496 160.096881 
L 336.179835 158.35589 
L 339.459174 156.556865 
L 342.738512 154.75784 
L 346.017851 153.248981 
L 349.29719 151.507989 
L 352.576529 150.057163 
L 355.855868 148.258138 
L 359.135207 146.459113 
L 362.414545 144.544022 
L 365.693884 142.97713 
L 368.973223 141.120072 
L 372.252562 139.495146 
L 375.531901 137.347923 
L 378.81124 135.258733 
L 382.090579 133.343643 
L 385.369917 131.486585 
L 388.649256 129.745593 
L 391.928595 128.178701 
L 395.207934 126.84394 
L 398.487273 124.986883 
" clip-path="url(#p8e9a1c81c7)" style="fill: none; stroke: #32cd32; stroke-linecap: square"/>
   </g>
   <g id="line2d_13">
    <path d="M 73.832727 248.614881 
L 77.112066 240.535371 
L 80.391405 240.886594 
L 83.670744 230.464656 
L 86.950083 233.202592 
L 90.229421 236.481366 
L 93.50876 232.336891 
L 96.788099 226.515969 
L 100.067438 219.792803 
L 103.346777 223.065765 
L 106.626116 225.971489 
L 109.905455 210.335765 
L 113.184793 191.622733 
L 116.464132 201.144045 
L 119.743471 226.122861 
L 123.02281 230.124829 
L 126.302149 209.275863 
L 129.581488 209.648967 
L 132.860826 208.616675 
L 136.140165 215.685485 
L 139.419504 217.448883 
L 142.698843 197.418269 
L 145.978182 207.959914 
L 149.257521 199.694056 
L 152.53686 188.277065 
L 155.816198 191.10294 
L 159.095537 180.978417 
L 162.374876 196.817916 
L 165.654215 172.346476 
L 168.933554 184.56378 
L 172.212893 188.793519 
L 175.492231 175.827276 
L 178.77157 193.263799 
L 182.050909 197.712542 
L 185.330248 177.400293 
L 188.609587 161.946982 
L 191.888926 160.182479 
L 195.168264 168.903426 
L 198.447603 161.945087 
L 201.726942 165.724789 
L 205.006281 178.019149 
L 208.28562 163.335613 
L 211.564959 168.112874 
L 214.844298 183.959665 
L 218.123636 180.350418 
L 221.402975 154.546816 
L 224.682314 170.600962 
L 227.961653 162.679626 
L 231.240992 174.82743 
L 234.520331 172.15294 
L 237.799669 141.391326 
L 241.079008 140.711467 
L 244.358347 142.767992 
L 247.637686 134.982549 
L 250.917025 137.463793 
L 254.196364 135.870959 
L 257.475702 141.673092 
L 260.755041 147.903414 
L 264.03438 146.969779 
L 267.313719 140.787348 
L 270.593058 120.36286 
L 273.872397 132.238381 
L 277.151736 136.225877 
L 280.431074 125.227967 
L 283.710413 127.855275 
L 286.989752 139.666565 
L 290.269091 129.669201 
L 293.54843 118.245937 
L 296.827769 140.358912 
L 300.107107 125.745314 
L 303.386446 119.976509 
L 306.665785 130.68817 
L 309.945124 117.625087 
L 313.224463 114.256905 
L 316.503802 97.555109 
L 319.78314 101.101815 
L 323.062479 122.745379 
L 326.341818 122.931989 
L 329.621157 100.13258 
L 332.900496 89.201906 
L 336.179835 104.813109 
L 339.459174 78.01927 
L 342.738512 95.018662 
L 346.017851 94.891373 
L 349.29719 100.433117 
L 352.576529 102.86104 
L 355.855868 100.564634 
L 359.135207 75.659224 
L 362.414545 90.017432 
L 365.693884 72.134714 
L 368.973223 70.436827 
L 372.252562 89.022402 
L 375.531901 68.566946 
L 378.81124 81.709119 
L 382.090579 56.458044 
L 385.369917 80.225867 
L 388.649256 77.353802 
L 391.928595 70.228481 
L 395.207934 53.568 
L 398.487273 85.664295 
" clip-path="url(#p8e9a1c81c7)" style="fill: none; stroke-dasharray: 3.7,1.6; stroke-dashoffset: 0; stroke: #4169e1"/>
   </g>
   <g id="line2d_14">
    <path d="M 73.832727 248.614881 
L 77.112066 240.535371 
L 80.391405 240.886594 
L 83.670744 230.464656 
L 86.950083 233.202592 
L 90.229421 236.481366 
L 93.50876 232.336891 
L 96.788099 226.515969 
L 100.067438 219.792803 
L 103.346777 223.065765 
L 106.626116 225.971489 
L 109.905455 210.335765 
L 113.184793 191.622733 
L 116.464132 201.144045 
L 119.743471 226.122861 
L 123.02281 230.124829 
L 126.302149 209.275863 
L 129.581488 209.648967 
L 132.860826 208.616675 
L 136.140165 215.685485 
L 139.419504 217.448883 
L 142.698843 197.418269 
L 145.978182 207.959914 
L 149.257521 199.694056 
L 152.53686 178.784352 
L 155.816198 191.10294 
L 159.095537 180.978417 
L 162.374876 196.817916 
L 165.654215 172.346476 
L 168.933554 184.56378 
L 172.212893 188.793519 
L 175.492231 175.827276 
L 178.77157 202.245405 
L 182.050909 197.712542 
L 185.330248 177.400293 
L 188.609587 162.019944 
L 191.888926 160.182479 
L 195.168264 168.903426 
L 198.447603 161.945087 
L 201.726942 165.724789 
L 205.006281 184.275388 
L 208.28562 163.335613 
L 211.564959 168.112874 
L 214.844298 183.959665 
L 218.123636 180.350418 
L 221.402975 156.633454 
L 224.682314 170.600962 
L 227.961653 162.679626 
L 231.240992 174.82743 
L 234.520331 172.15294 
L 237.799669 141.391326 
L 241.079008 149.320713 
L 244.358347 142.767992 
L 247.637686 134.982549 
L 250.917025 137.463793 
L 254.196364 135.870959 
L 257.475702 145.410801 
L 260.755041 147.903414 
L 264.03438 146.969779 
L 267.313719 140.787348 
L 270.593058 120.36286 
L 273.872397 135.749919 
L 277.151736 136.225877 
L 280.431074 123.687391 
L 283.710413 127.855275 
L 286.989752 139.666565 
L 290.269091 129.669201 
L 293.54843 116.674404 
L 296.827769 140.358912 
L 300.107107 120.318436 
L 303.386446 119.976509 
L 306.665785 130.68817 
L 309.945124 113.352342 
L 313.224463 114.256905 
L 316.503802 97.555109 
L 319.78314 101.101815 
L 323.062479 121.356695 
L 326.341818 122.931989 
L 329.621157 100.13258 
L 332.900496 89.201906 
L 336.179835 100.952417 
L 339.459174 84.63946 
L 342.738512 95.018662 
L 346.017851 96.738473 
L 349.29719 100.433117 
L 352.576529 102.86104 
L 355.855868 100.564634 
L 359.135207 71.490547 
L 362.414545 90.017432 
L 365.693884 72.134714 
L 368.973223 67.7041 
L 372.252562 89.022402 
L 375.531901 68.566946 
L 378.81124 81.709119 
L 382.090579 55.044805 
L 385.369917 80.225867 
L 388.649256 77.353802 
L 391.928595 70.228481 
L 395.207934 53.568 
L 398.487273 85.664295 
" clip-path="url(#p8e9a1c81c7)" style="fill: none; stroke-dasharray: 1,1.65; stroke-dashoffset: 0; stroke: #ffa500"/>
   </g>
   <g id="line2d_15">
    <path d="M 73.832727 239.075905 
L 77.112066 237.342517 
L 80.391405 235.609129 
L 83.670744 233.875741 
L 86.950083 232.142353 
L 90.229421 230.408964 
L 93.50876 228.675576 
L 96.788099 226.942188 
L 100.067438 225.2088 
L 103.346777 223.475411 
L 106.626116 221.742023 
L 109.905455 220.008635 
L 113.184793 218.275247 
L 116.464132 216.541858 
L 119.743471 214.80847 
L 123.02281 213.075082 
L 126.302149 211.341694 
L 129.581488 209.608306 
L 132.860826 207.874917 
L 136.140165 206.141529 
L 139.419504 204.408141 
L 142.698843 202.674753 
L 145.978182 200.941364 
L 149.257521 199.207976 
L 152.53686 197.474588 
L 155.816198 195.7412 
L 159.095537 194.007812 
L 162.374876 192.274423 
L 165.654215 190.541035 
L 168.933554 188.807647 
L 172.212893 187.074259 
L 175.492231 185.34087 
L 178.77157 183.607482 
L 182.050909 181.874094 
L 185.330248 180.140706 
L 188.609587 178.407317 
L 191.888926 176.673929 
L 195.168264 174.940541 
L 198.447603 173.207153 
L 201.726942 171.473765 
L 205.006281 169.740376 
L 208.28562 168.006988 
L 211.564959 166.2736 
L 214.844298 164.540212 
L 218.123636 162.806823 
L 221.402975 161.073435 
L 224.682314 159.340047 
L 227.961653 157.606659 
L 231.240992 155.873271 
L 234.520331 154.139882 
L 237.799669 152.406494 
L 241.079008 150.673106 
L 244.358347 148.939718 
L 247.637686 147.206329 
L 250.917025 145.472941 
L 254.196364 143.739553 
L 257.475702 142.006165 
L 260.755041 140.272776 
L 264.03438 138.539388 
L 267.313719 136.806 
L 270.593058 135.072612 
L 273.872397 133.339224 
L 277.151736 131.605835 
L 280.431074 129.872447 
L 283.710413 128.139059 
L 286.989752 126.405671 
L 290.269091 124.672282 
L 293.54843 122.938894 
L 296.827769 121.205506 
L 300.107107 119.472118 
L 303.386446 117.73873 
L 306.665785 116.005341 
L 309.945124 114.271953 
L 313.224463 112.538565 
L 316.503802 110.805177 
L 319.78314 109.071788 
L 323.062479 107.3384 
L 326.341818 105.605012 
L 329.621157 103.871624 
L 332.900496 102.138235 
L 336.179835 100.404847 
L 339.459174 98.671459 
L 342.738512 96.938071 
L 346.017851 95.204683 
L 349.29719 93.471294 
L 352.576529 91.737906 
L 355.855868 90.004518 
L 359.135207 88.27113 
L 362.414545 86.537741 
L 365.693884 84.804353 
L 368.973223 83.070965 
L 372.252562 81.337577 
L 375.531901 79.604189 
L 378.81124 77.8708 
L 382.090579 76.137412 
L 385.369917 74.404024 
L 388.649256 72.670636 
L 391.928595 70.937247 
L 395.207934 69.203859 
L 398.487273 67.470471 
" clip-path="url(#p8e9a1c81c7)" style="fill: none; stroke-dasharray: 1.85,0.8; stroke-dashoffset: 0; stroke: #191970; stroke-width: 0.5"/>
   </g>
   <g id="line2d_16">
    <path d="M 73.832727 239.35526 
L 77.112066 237.617411 
L 80.391405 235.879562 
L 83.670744 234.141713 
L 86.950083 232.403864 
L 90.229421 230.666015 
L 93.50876 228.928166 
L 96.788099 227.190317 
L 100.067438 225.452468 
L 103.346777 223.714619 
L 106.626116 221.97677 
L 109.905455 220.238922 
L 113.184793 218.501073 
L 116.464132 216.763224 
L 119.743471 215.025375 
L 123.02281 213.287526 
L 126.302149 211.549677 
L 129.581488 209.811828 
L 132.860826 208.073979 
L 136.140165 206.33613 
L 139.419504 204.598281 
L 142.698843 202.860432 
L 145.978182 201.122583 
L 149.257521 199.384734 
L 152.53686 197.646885 
L 155.816198 195.909036 
L 159.095537 194.171187 
L 162.374876 192.433338 
L 165.654215 190.695489 
L 168.933554 188.95764 
L 172.212893 187.219791 
L 175.492231 185.481942 
L 178.77157 183.744093 
L 182.050909 182.006244 
L 185.330248 180.268395 
L 188.609587 178.530546 
L 191.888926 176.792697 
L 195.168264 175.054848 
L 198.447603 173.316999 
L 201.726942 171.57915 
L 205.006281 169.841301 
L 208.28562 168.103452 
L 211.564959 166.365603 
L 214.844298 164.627754 
L 218.123636 162.889905 
L 221.402975 161.152056 
L 224.682314 159.414207 
L 227.961653 157.676358 
L 231.240992 155.938509 
L 234.520331 154.20066 
L 237.799669 152.462811 
L 241.079008 150.724962 
L 244.358347 148.987113 
L 247.637686 147.249264 
L 250.917025 145.511415 
L 254.196364 143.773566 
L 257.475702 142.035717 
L 260.755041 140.297868 
L 264.03438 138.560019 
L 267.313719 136.82217 
L 270.593058 135.084321 
L 273.872397 133.346473 
L 277.151736 131.608624 
L 280.431074 129.870775 
L 283.710413 128.132926 
L 286.989752 126.395077 
L 290.269091 124.657228 
L 293.54843 122.919379 
L 296.827769 121.18153 
L 300.107107 119.443681 
L 303.386446 117.705832 
L 306.665785 115.967983 
L 309.945124 114.230134 
L 313.224463 112.492285 
L 316.503802 110.754436 
L 319.78314 109.016587 
L 323.062479 107.278738 
L 326.341818 105.540889 
L 329.621157 103.80304 
L 332.900496 102.065191 
L 336.179835 100.327342 
L 339.459174 98.589493 
L 342.738512 96.851644 
L 346.017851 95.113795 
L 349.29719 93.375946 
L 352.576529 91.638097 
L 355.855868 89.900248 
L 359.135207 88.162399 
L 362.414545 86.42455 
L 365.693884 84.686701 
L 368.973223 82.948852 
L 372.252562 81.211003 
L 375.531901 79.473154 
L 378.81124 77.735305 
L 382.090579 75.997456 
L 385.369917 74.259607 
L 388.649256 72.521758 
L 391.928595 70.783909 
L 395.207934 69.04606 
L 398.487273 67.308211 
" clip-path="url(#p8e9a1c81c7)" style="fill: none; stroke-dasharray: 0.5,0.825; stroke-dashoffset: 0; stroke: #ff0000; stroke-width: 0.5"/>
   </g>
   <g id="patch_3">
    <path d="M 57.6 307.584 
L 57.6 41.472 
" style="fill: none; stroke: #000000; stroke-width: 0.8; stroke-linejoin: miter; stroke-linecap: square"/>
   </g>
   <g id="patch_4">
    <path d="M 414.72 307.584 
L 414.72 41.472 
" style="fill: none; stroke: #000000; stroke-width: 0.8; stroke-linejoin: miter; stroke-linecap: square"/>
   </g>
   <g id="patch_5">
    <path d="M 57.6 307.584 
L 414.72 307.584 
" style="fill: none; stroke: #000000; stroke-width: 0.8; stroke-linejoin: miter; stroke-linecap: square"/>
   </g>
   <g id="patch_6">
    <path d="M 57.6 41.472 
L 414.72 41.472 
" style="fill: none; stroke: #000000; stroke-width: 0.8; stroke-linejoin: miter; stroke-linecap: square"/>
   </g>
   <g id="text_14">
    <!-- numRider20 -->
    <g transform="translate(199.272188 22.034625)scale(0.12 -0.12)">
     <defs>
      <path id="DejaVuSans-75" d="M 544 1381 
L 544 3500 
L 1119 3500 
L 1119 1403 
Q 1119 906 1312 657 
Q 1506 409 1894 409 
Q 2359 409 2629 706 
Q 2900 1003 2900 1516 
L 2900 3500 
L 3475 3500 
L 3475 0 
L 2900 0 
L 2900 538 
Q 2691 219 2414 64 
Q 2138 -91 1772 -91 
Q 1169 -91 856 284 
Q 544 659 544 1381 
z
M 1991 3584 
L 1991 3584 
z
" transform="scale(0.015625)"/>
      <path id="DejaVuSans-52" d="M 2841 2188 
Q 3044 2119 3236 1894 
Q 3428 1669 3622 1275 
L 4263 0 
L 3584 0 
L 2988 1197 
Q 2756 1666 2539 1819 
Q 2322 1972 1947 1972 
L 1259 1972 
L 1259 0 
L 628 0 
L 628 4666 
L 2053 4666 
Q 2853 4666 3247 4331 
Q 3641 3997 3641 3322 
Q 3641 2881 3436 2590 
Q 3231 2300 2841 2188 
z
M 1259 4147 
L 1259 2491 
L 2053 2491 
Q 2509 2491 2742 2702 
Q 2975 2913 2975 3322 
Q 2975 3731 2742 3939 
Q 2509 4147 2053 4147 
L 1259 4147 
z
" transform="scale(0.015625)"/>
     </defs>
     <use xlink:href="#DejaVuSans-6e"/>
     <use xlink:href="#DejaVuSans-75" x="63.378906"/>
     <use xlink:href="#DejaVuSans-6d" x="126.757812"/>
     <use xlink:href="#DejaVuSans-52" x="224.169922"/>
     <use xlink:href="#DejaVuSans-69" x="293.652344"/>
     <use xlink:href="#DejaVuSans-64" x="321.435547"/>
     <use xlink:href="#DejaVuSans-65" x="384.912109"/>
     <use xlink:href="#DejaVuSans-72" x="446.435547"/>
     <use xlink:href="#DejaVuSans-32" x="487.548828"/>
     <use xlink:href="#DejaVuSans-30" x="551.171875"/>
    </g>
    <!--  grid3000 -->
    <g transform="translate(207.231562 35.472)scale(0.12 -0.12)">
     <defs>
      <path id="DejaVuSans-67" d="M 2906 1791 
Q 2906 2416 2648 2759 
Q 2391 3103 1925 3103 
Q 1463 3103 1205 2759 
Q 947 2416 947 1791 
Q 947 1169 1205 825 
Q 1463 481 1925 481 
Q 2391 481 2648 825 
Q 2906 1169 2906 1791 
z
M 3481 434 
Q 3481 -459 3084 -895 
Q 2688 -1331 1869 -1331 
Q 1566 -1331 1297 -1286 
Q 1028 -1241 775 -1147 
L 775 -588 
Q 1028 -725 1275 -790 
Q 1522 -856 1778 -856 
Q 2344 -856 2625 -561 
Q 2906 -266 2906 331 
L 2906 616 
Q 2728 306 2450 153 
Q 2172 0 1784 0 
Q 1141 0 747 490 
Q 353 981 353 1791 
Q 353 2603 747 3093 
Q 1141 3584 1784 3584 
Q 2172 3584 2450 3431 
Q 2728 3278 2906 2969 
L 2906 3500 
L 3481 3500 
L 3481 434 
z
" transform="scale(0.015625)"/>
     </defs>
     <use xlink:href="#DejaVuSans-20"/>
     <use xlink:href="#DejaVuSans-67" x="31.787109"/>
     <use xlink:href="#DejaVuSans-72" x="95.263672"/>
     <use xlink:href="#DejaVuSans-69" x="136.376953"/>
     <use xlink:href="#DejaVuSans-64" x="164.160156"/>
     <use xlink:href="#DejaVuSans-33" x="227.636719"/>
     <use xlink:href="#DejaVuSans-30" x="291.259766"/>
     <use xlink:href="#DejaVuSans-30" x="354.882812"/>
     <use xlink:href="#DejaVuSans-30" x="418.505859"/>
    </g>
   </g>
   <g id="legend_1">
    <g id="patch_7">
     <path d="M 64.6 122.862625 
L 241.8625 122.862625 
Q 243.8625 122.862625 243.8625 120.862625 
L 243.8625 48.472 
Q 243.8625 46.472 241.8625 46.472 
L 64.6 46.472 
Q 62.6 46.472 62.6 48.472 
L 62.6 120.862625 
Q 62.6 122.862625 64.6 122.862625 
z
" style="fill: #ffffff; opacity: 0.8; stroke: #cccccc; stroke-linejoin: miter"/>
    </g>
    <g id="line2d_17">
     <path d="M 66.6 54.570438 
L 76.6 54.570438 
L 86.6 54.570438 
" style="fill: none; stroke: #32cd32; stroke-linecap: square"/>
    </g>
    <g id="text_15">
     <!-- Time In -->
     <g transform="translate(94.6 58.070438)scale(0.1 -0.1)">
      <use xlink:href="#DejaVuSans-54"/>
      <use xlink:href="#DejaVuSans-69" x="57.958984"/>
      <use xlink:href="#DejaVuSans-6d" x="85.742188"/>
      <use xlink:href="#DejaVuSans-65" x="183.154297"/>
      <use xlink:href="#DejaVuSans-20" x="244.677734"/>
      <use xlink:href="#DejaVuSans-49" x="276.464844"/>
      <use xlink:href="#DejaVuSans-6e" x="305.957031"/>
     </g>
    </g>
    <g id="line2d_18">
     <path d="M 66.6 69.248563 
L 76.6 69.248563 
L 86.6 69.248563 
" style="fill: none; stroke-dasharray: 3.7,1.6; stroke-dashoffset: 0; stroke: #4169e1"/>
    </g>
    <g id="text_16">
     <!-- Time Delivered - Default -->
     <g transform="translate(94.6 72.748563)scale(0.1 -0.1)">
      <defs>
       <path id="DejaVuSans-2d" d="M 313 2009 
L 1997 2009 
L 1997 1497 
L 313 1497 
L 313 2009 
z
" transform="scale(0.015625)"/>
       <path id="DejaVuSans-66" d="M 2375 4863 
L 2375 4384 
L 1825 4384 
Q 1516 4384 1395 4259 
Q 1275 4134 1275 3809 
L 1275 3500 
L 2222 3500 
L 2222 3053 
L 1275 3053 
L 1275 0 
L 697 0 
L 697 3053 
L 147 3053 
L 147 3500 
L 697 3500 
L 697 3744 
Q 697 4328 969 4595 
Q 1241 4863 1831 4863 
L 2375 4863 
z
" transform="scale(0.015625)"/>
       <path id="DejaVuSans-61" d="M 2194 1759 
Q 1497 1759 1228 1600 
Q 959 1441 959 1056 
Q 959 750 1161 570 
Q 1363 391 1709 391 
Q 2188 391 2477 730 
Q 2766 1069 2766 1631 
L 2766 1759 
L 2194 1759 
z
M 3341 1997 
L 3341 0 
L 2766 0 
L 2766 531 
Q 2569 213 2275 61 
Q 1981 -91 1556 -91 
Q 1019 -91 701 211 
Q 384 513 384 1019 
Q 384 1609 779 1909 
Q 1175 2209 1959 2209 
L 2766 2209 
L 2766 2266 
Q 2766 2663 2505 2880 
Q 2244 3097 1772 3097 
Q 1472 3097 1187 3025 
Q 903 2953 641 2809 
L 641 3341 
Q 956 3463 1253 3523 
Q 1550 3584 1831 3584 
Q 2591 3584 2966 3190 
Q 3341 2797 3341 1997 
z
" transform="scale(0.015625)"/>
       <path id="DejaVuSans-74" d="M 1172 4494 
L 1172 3500 
L 2356 3500 
L 2356 3053 
L 1172 3053 
L 1172 1153 
Q 1172 725 1289 603 
Q 1406 481 1766 481 
L 2356 481 
L 2356 0 
L 1766 0 
Q 1100 0 847 248 
Q 594 497 594 1153 
L 594 3053 
L 172 3053 
L 172 3500 
L 594 3500 
L 594 4494 
L 1172 4494 
z
" transform="scale(0.015625)"/>
      </defs>
      <use xlink:href="#DejaVuSans-54"/>
      <use xlink:href="#DejaVuSans-69" x="57.958984"/>
      <use xlink:href="#DejaVuSans-6d" x="85.742188"/>
      <use xlink:href="#DejaVuSans-65" x="183.154297"/>
      <use xlink:href="#DejaVuSans-20" x="244.677734"/>
      <use xlink:href="#DejaVuSans-44" x="276.464844"/>
      <use xlink:href="#DejaVuSans-65" x="353.466797"/>
      <use xlink:href="#DejaVuSans-6c" x="414.990234"/>
      <use xlink:href="#DejaVuSans-69" x="442.773438"/>
      <use xlink:href="#DejaVuSans-76" x="470.556641"/>
      <use xlink:href="#DejaVuSans-65" x="529.736328"/>
      <use xlink:href="#DejaVuSans-72" x="591.259766"/>
      <use xlink:href="#DejaVuSans-65" x="630.123047"/>
      <use xlink:href="#DejaVuSans-64" x="691.646484"/>
      <use xlink:href="#DejaVuSans-20" x="755.123047"/>
      <use xlink:href="#DejaVuSans-2d" x="786.910156"/>
      <use xlink:href="#DejaVuSans-20" x="822.994141"/>
      <use xlink:href="#DejaVuSans-44" x="854.78125"/>
      <use xlink:href="#DejaVuSans-65" x="931.783203"/>
      <use xlink:href="#DejaVuSans-66" x="993.306641"/>
      <use xlink:href="#DejaVuSans-61" x="1028.511719"/>
      <use xlink:href="#DejaVuSans-75" x="1089.791016"/>
      <use xlink:href="#DejaVuSans-6c" x="1153.169922"/>
      <use xlink:href="#DejaVuSans-74" x="1180.953125"/>
     </g>
    </g>
    <g id="line2d_19">
     <path d="M 66.6 83.926688 
L 76.6 83.926688 
L 86.6 83.926688 
" style="fill: none; stroke-dasharray: 1,1.65; stroke-dashoffset: 0; stroke: #ffa500"/>
    </g>
    <g id="text_17">
     <!-- Time Delivered - Anticipation -->
     <g transform="translate(94.6 87.426688)scale(0.1 -0.1)">
      <defs>
       <path id="DejaVuSans-41" d="M 2188 4044 
L 1331 1722 
L 3047 1722 
L 2188 4044 
z
M 1831 4666 
L 2547 4666 
L 4325 0 
L 3669 0 
L 3244 1197 
L 1141 1197 
L 716 0 
L 50 0 
L 1831 4666 
z
" transform="scale(0.015625)"/>
       <path id="DejaVuSans-63" d="M 3122 3366 
L 3122 2828 
Q 2878 2963 2633 3030 
Q 2388 3097 2138 3097 
Q 1578 3097 1268 2742 
Q 959 2388 959 1747 
Q 959 1106 1268 751 
Q 1578 397 2138 397 
Q 2388 397 2633 464 
Q 2878 531 3122 666 
L 3122 134 
Q 2881 22 2623 -34 
Q 2366 -91 2075 -91 
Q 1284 -91 818 406 
Q 353 903 353 1747 
Q 353 2603 823 3093 
Q 1294 3584 2113 3584 
Q 2378 3584 2631 3529 
Q 2884 3475 3122 3366 
z
" transform="scale(0.015625)"/>
       <path id="DejaVuSans-70" d="M 1159 525 
L 1159 -1331 
L 581 -1331 
L 581 3500 
L 1159 3500 
L 1159 2969 
Q 1341 3281 1617 3432 
Q 1894 3584 2278 3584 
Q 2916 3584 3314 3078 
Q 3713 2572 3713 1747 
Q 3713 922 3314 415 
Q 2916 -91 2278 -91 
Q 1894 -91 1617 61 
Q 1341 213 1159 525 
z
M 3116 1747 
Q 3116 2381 2855 2742 
Q 2594 3103 2138 3103 
Q 1681 3103 1420 2742 
Q 1159 2381 1159 1747 
Q 1159 1113 1420 752 
Q 1681 391 2138 391 
Q 2594 391 2855 752 
Q 3116 1113 3116 1747 
z
" transform="scale(0.015625)"/>
       <path id="DejaVuSans-6f" d="M 1959 3097 
Q 1497 3097 1228 2736 
Q 959 2375 959 1747 
Q 959 1119 1226 758 
Q 1494 397 1959 397 
Q 2419 397 2687 759 
Q 2956 1122 2956 1747 
Q 2956 2369 2687 2733 
Q 2419 3097 1959 3097 
z
M 1959 3584 
Q 2709 3584 3137 3096 
Q 3566 2609 3566 1747 
Q 3566 888 3137 398 
Q 2709 -91 1959 -91 
Q 1206 -91 779 398 
Q 353 888 353 1747 
Q 353 2609 779 3096 
Q 1206 3584 1959 3584 
z
" transform="scale(0.015625)"/>
      </defs>
      <use xlink:href="#DejaVuSans-54"/>
      <use xlink:href="#DejaVuSans-69" x="57.958984"/>
      <use xlink:href="#DejaVuSans-6d" x="85.742188"/>
      <use xlink:href="#DejaVuSans-65" x="183.154297"/>
      <use xlink:href="#DejaVuSans-20" x="244.677734"/>
      <use xlink:href="#DejaVuSans-44" x="276.464844"/>
      <use xlink:href="#DejaVuSans-65" x="353.466797"/>
      <use xlink:href="#DejaVuSans-6c" x="414.990234"/>
      <use xlink:href="#DejaVuSans-69" x="442.773438"/>
      <use xlink:href="#DejaVuSans-76" x="470.556641"/>
      <use xlink:href="#DejaVuSans-65" x="529.736328"/>
      <use xlink:href="#DejaVuSans-72" x="591.259766"/>
      <use xlink:href="#DejaVuSans-65" x="630.123047"/>
      <use xlink:href="#DejaVuSans-64" x="691.646484"/>
      <use xlink:href="#DejaVuSans-20" x="755.123047"/>
      <use xlink:href="#DejaVuSans-2d" x="786.910156"/>
      <use xlink:href="#DejaVuSans-20" x="822.994141"/>
      <use xlink:href="#DejaVuSans-41" x="854.78125"/>
      <use xlink:href="#DejaVuSans-6e" x="923.189453"/>
      <use xlink:href="#DejaVuSans-74" x="986.568359"/>
      <use xlink:href="#DejaVuSans-69" x="1025.777344"/>
      <use xlink:href="#DejaVuSans-63" x="1053.560547"/>
      <use xlink:href="#DejaVuSans-69" x="1108.541016"/>
      <use xlink:href="#DejaVuSans-70" x="1136.324219"/>
      <use xlink:href="#DejaVuSans-61" x="1199.800781"/>
      <use xlink:href="#DejaVuSans-74" x="1261.080078"/>
      <use xlink:href="#DejaVuSans-69" x="1300.289062"/>
      <use xlink:href="#DejaVuSans-6f" x="1328.072266"/>
      <use xlink:href="#DejaVuSans-6e" x="1389.253906"/>
     </g>
    </g>
    <g id="line2d_20">
     <path d="M 66.6 98.604813 
L 76.6 98.604813 
L 86.6 98.604813 
" style="fill: none; stroke-dasharray: 1.85,0.8; stroke-dashoffset: 0; stroke: #191970; stroke-width: 0.5"/>
    </g>
    <g id="text_18">
     <!-- best fit line for default -->
     <g transform="translate(94.6 102.104813)scale(0.1 -0.1)">
      <defs>
       <path id="DejaVuSans-62" d="M 3116 1747 
Q 3116 2381 2855 2742 
Q 2594 3103 2138 3103 
Q 1681 3103 1420 2742 
Q 1159 2381 1159 1747 
Q 1159 1113 1420 752 
Q 1681 391 2138 391 
Q 2594 391 2855 752 
Q 3116 1113 3116 1747 
z
M 1159 2969 
Q 1341 3281 1617 3432 
Q 1894 3584 2278 3584 
Q 2916 3584 3314 3078 
Q 3713 2572 3713 1747 
Q 3713 922 3314 415 
Q 2916 -91 2278 -91 
Q 1894 -91 1617 61 
Q 1341 213 1159 525 
L 1159 0 
L 581 0 
L 581 4863 
L 1159 4863 
L 1159 2969 
z
" transform="scale(0.015625)"/>
       <path id="DejaVuSans-73" d="M 2834 3397 
L 2834 2853 
Q 2591 2978 2328 3040 
Q 2066 3103 1784 3103 
Q 1356 3103 1142 2972 
Q 928 2841 928 2578 
Q 928 2378 1081 2264 
Q 1234 2150 1697 2047 
L 1894 2003 
Q 2506 1872 2764 1633 
Q 3022 1394 3022 966 
Q 3022 478 2636 193 
Q 2250 -91 1575 -91 
Q 1294 -91 989 -36 
Q 684 19 347 128 
L 347 722 
Q 666 556 975 473 
Q 1284 391 1588 391 
Q 1994 391 2212 530 
Q 2431 669 2431 922 
Q 2431 1156 2273 1281 
Q 2116 1406 1581 1522 
L 1381 1569 
Q 847 1681 609 1914 
Q 372 2147 372 2553 
Q 372 3047 722 3315 
Q 1072 3584 1716 3584 
Q 2034 3584 2315 3537 
Q 2597 3491 2834 3397 
z
" transform="scale(0.015625)"/>
      </defs>
      <use xlink:href="#DejaVuSans-62"/>
      <use xlink:href="#DejaVuSans-65" x="63.476562"/>
      <use xlink:href="#DejaVuSans-73" x="125"/>
      <use xlink:href="#DejaVuSans-74" x="177.099609"/>
      <use xlink:href="#DejaVuSans-20" x="216.308594"/>
      <use xlink:href="#DejaVuSans-66" x="248.095703"/>
      <use xlink:href="#DejaVuSans-69" x="283.300781"/>
      <use xlink:href="#DejaVuSans-74" x="311.083984"/>
      <use xlink:href="#DejaVuSans-20" x="350.292969"/>
      <use xlink:href="#DejaVuSans-6c" x="382.080078"/>
      <use xlink:href="#DejaVuSans-69" x="409.863281"/>
      <use xlink:href="#DejaVuSans-6e" x="437.646484"/>
      <use xlink:href="#DejaVuSans-65" x="501.025391"/>
      <use xlink:href="#DejaVuSans-20" x="562.548828"/>
      <use xlink:href="#DejaVuSans-66" x="594.335938"/>
      <use xlink:href="#DejaVuSans-6f" x="629.541016"/>
      <use xlink:href="#DejaVuSans-72" x="690.722656"/>
      <use xlink:href="#DejaVuSans-20" x="731.835938"/>
      <use xlink:href="#DejaVuSans-64" x="763.623047"/>
      <use xlink:href="#DejaVuSans-65" x="827.099609"/>
      <use xlink:href="#DejaVuSans-66" x="888.623047"/>
      <use xlink:href="#DejaVuSans-61" x="923.828125"/>
      <use xlink:href="#DejaVuSans-75" x="985.107422"/>
      <use xlink:href="#DejaVuSans-6c" x="1048.486328"/>
      <use xlink:href="#DejaVuSans-74" x="1076.269531"/>
     </g>
    </g>
    <g id="line2d_21">
     <path d="M 66.6 113.282938 
L 76.6 113.282938 
L 86.6 113.282938 
" style="fill: none; stroke-dasharray: 0.5,0.825; stroke-dashoffset: 0; stroke: #ff0000; stroke-width: 0.5"/>
    </g>
    <g id="text_19">
     <!-- best fit line for anticipation -->
     <g transform="translate(94.6 116.782938)scale(0.1 -0.1)">
      <use xlink:href="#DejaVuSans-62"/>
      <use xlink:href="#DejaVuSans-65" x="63.476562"/>
      <use xlink:href="#DejaVuSans-73" x="125"/>
      <use xlink:href="#DejaVuSans-74" x="177.099609"/>
      <use xlink:href="#DejaVuSans-20" x="216.308594"/>
      <use xlink:href="#DejaVuSans-66" x="248.095703"/>
      <use xlink:href="#DejaVuSans-69" x="283.300781"/>
      <use xlink:href="#DejaVuSans-74" x="311.083984"/>
      <use xlink:href="#DejaVuSans-20" x="350.292969"/>
      <use xlink:href="#DejaVuSans-6c" x="382.080078"/>
      <use xlink:href="#DejaVuSans-69" x="409.863281"/>
      <use xlink:href="#DejaVuSans-6e" x="437.646484"/>
      <use xlink:href="#DejaVuSans-65" x="501.025391"/>
      <use xlink:href="#DejaVuSans-20" x="562.548828"/>
      <use xlink:href="#DejaVuSans-66" x="594.335938"/>
      <use xlink:href="#DejaVuSans-6f" x="629.541016"/>
      <use xlink:href="#DejaVuSans-72" x="690.722656"/>
      <use xlink:href="#DejaVuSans-20" x="731.835938"/>
      <use xlink:href="#DejaVuSans-61" x="763.623047"/>
      <use xlink:href="#DejaVuSans-6e" x="824.902344"/>
      <use xlink:href="#DejaVuSans-74" x="888.28125"/>
      <use xlink:href="#DejaVuSans-69" x="927.490234"/>
      <use xlink:href="#DejaVuSans-63" x="955.273438"/>
      <use xlink:href="#DejaVuSans-69" x="1010.253906"/>
      <use xlink:href="#DejaVuSans-70" x="1038.037109"/>
      <use xlink:href="#DejaVuSans-61" x="1101.513672"/>
      <use xlink:href="#DejaVuSans-74" x="1162.792969"/>
      <use xlink:href="#DejaVuSans-69" x="1202.001953"/>
      <use xlink:href="#DejaVuSans-6f" x="1229.785156"/>
      <use xlink:href="#DejaVuSans-6e" x="1290.966797"/>
     </g>
    </g>
   </g>
  </g>
 </g>
 <defs>
  <clipPath id="p8e9a1c81c7">
   <rect x="57.6" y="41.472" width="357.12" height="266.112"/>
  </clipPath>
 </defs>
</svg>
