<?xml version="1.0" encoding="utf-8" standalone="no"?>
<!DOCTYPE svg PUBLIC "-//W3C//DTD SVG 1.1//EN"
  "http://www.w3.org/Graphics/SVG/1.1/DTD/svg11.dtd">
<svg xmlns:xlink="http://www.w3.org/1999/xlink" width="460.8pt" height="345.6pt" viewBox="0 0 460.8 345.6" xmlns="http://www.w3.org/2000/svg" version="1.1">
 <metadata>
  <rdf:RDF xmlns:dc="http://purl.org/dc/elements/1.1/" xmlns:cc="http://creativecommons.org/ns#" xmlns:rdf="http://www.w3.org/1999/02/22-rdf-syntax-ns#">
   <cc:Work>
    <dc:type rdf:resource="http://purl.org/dc/dcmitype/StillImage"/>
    <dc:date>2022-10-04T02:26:14.020513</dc:date>
    <dc:format>image/svg+xml</dc:format>
    <dc:creator>
     <cc:Agent>
      <dc:title>Matplotlib v3.5.3, https://matplotlib.org/</dc:title>
     </cc:Agent>
    </dc:creator>
   </cc:Work>
  </rdf:RDF>
 </metadata>
 <defs>
  <style type="text/css">*{stroke-linejoin: round; stroke-linecap: butt}</style>
 </defs>
 <g id="figure_1">
  <g id="patch_1">
   <path d="M 0 345.6 
L 460.8 345.6 
L 460.8 0 
L 0 0 
z
" style="fill: #ffffff"/>
  </g>
  <g id="axes_1">
   <g id="patch_2">
    <path d="M 57.6 307.584 
L 414.72 307.584 
L 414.72 41.472 
L 57.6 41.472 
z
" style="fill: #ffffff"/>
   </g>
   <g id="matplotlib.axis_1">
    <g id="xtick_1">
     <g id="line2d_1">
      <defs>
       <path id="mf458ee449f" d="M 0 0 
L 0 3.5 
" style="stroke: #000000; stroke-width: 0.8"/>
      </defs>
      <g>
       <use xlink:href="#mf458ee449f" x="73.832727" y="307.584" style="stroke: #000000; stroke-width: 0.8"/>
      </g>
     </g>
     <g id="text_1">
      <!-- 0 -->
      <g transform="translate(70.651477 322.182437)scale(0.1 -0.1)">
       <defs>
        <path id="DejaVuSans-30" d="M 2034 4250 
Q 1547 4250 1301 3770 
Q 1056 3291 1056 2328 
Q 1056 1369 1301 889 
Q 1547 409 2034 409 
Q 2525 409 2770 889 
Q 3016 1369 3016 2328 
Q 3016 3291 2770 3770 
Q 2525 4250 2034 4250 
z
M 2034 4750 
Q 2819 4750 3233 4129 
Q 3647 3509 3647 2328 
Q 3647 1150 3233 529 
Q 2819 -91 2034 -91 
Q 1250 -91 836 529 
Q 422 1150 422 2328 
Q 422 3509 836 4129 
Q 1250 4750 2034 4750 
z
" transform="scale(0.015625)"/>
       </defs>
       <use xlink:href="#DejaVuSans-30"/>
      </g>
     </g>
    </g>
    <g id="xtick_2">
     <g id="line2d_2">
      <g>
       <use xlink:href="#mf458ee449f" x="114.434847" y="307.584" style="stroke: #000000; stroke-width: 0.8"/>
      </g>
     </g>
     <g id="text_2">
      <!-- 250 -->
      <g transform="translate(104.891097 322.182437)scale(0.1 -0.1)">
       <defs>
        <path id="DejaVuSans-32" d="M 1228 531 
L 3431 531 
L 3431 0 
L 469 0 
L 469 531 
Q 828 903 1448 1529 
Q 2069 2156 2228 2338 
Q 2531 2678 2651 2914 
Q 2772 3150 2772 3378 
Q 2772 3750 2511 3984 
Q 2250 4219 1831 4219 
Q 1534 4219 1204 4116 
Q 875 4013 500 3803 
L 500 4441 
Q 881 4594 1212 4672 
Q 1544 4750 1819 4750 
Q 2544 4750 2975 4387 
Q 3406 4025 3406 3419 
Q 3406 3131 3298 2873 
Q 3191 2616 2906 2266 
Q 2828 2175 2409 1742 
Q 1991 1309 1228 531 
z
" transform="scale(0.015625)"/>
        <path id="DejaVuSans-35" d="M 691 4666 
L 3169 4666 
L 3169 4134 
L 1269 4134 
L 1269 2991 
Q 1406 3038 1543 3061 
Q 1681 3084 1819 3084 
Q 2600 3084 3056 2656 
Q 3513 2228 3513 1497 
Q 3513 744 3044 326 
Q 2575 -91 1722 -91 
Q 1428 -91 1123 -41 
Q 819 9 494 109 
L 494 744 
Q 775 591 1075 516 
Q 1375 441 1709 441 
Q 2250 441 2565 725 
Q 2881 1009 2881 1497 
Q 2881 1984 2565 2268 
Q 2250 2553 1709 2553 
Q 1456 2553 1204 2497 
Q 953 2441 691 2322 
L 691 4666 
z
" transform="scale(0.015625)"/>
       </defs>
       <use xlink:href="#DejaVuSans-32"/>
       <use xlink:href="#DejaVuSans-35" x="63.623047"/>
       <use xlink:href="#DejaVuSans-30" x="127.246094"/>
      </g>
     </g>
    </g>
    <g id="xtick_3">
     <g id="line2d_3">
      <g>
       <use xlink:href="#mf458ee449f" x="155.036966" y="307.584" style="stroke: #000000; stroke-width: 0.8"/>
      </g>
     </g>
     <g id="text_3">
      <!-- 500 -->
      <g transform="translate(145.493216 322.182437)scale(0.1 -0.1)">
       <use xlink:href="#DejaVuSans-35"/>
       <use xlink:href="#DejaVuSans-30" x="63.623047"/>
       <use xlink:href="#DejaVuSans-30" x="127.246094"/>
      </g>
     </g>
    </g>
    <g id="xtick_4">
     <g id="line2d_4">
      <g>
       <use xlink:href="#mf458ee449f" x="195.639085" y="307.584" style="stroke: #000000; stroke-width: 0.8"/>
      </g>
     </g>
     <g id="text_4">
      <!-- 750 -->
      <g transform="translate(186.095335 322.182437)scale(0.1 -0.1)">
       <defs>
        <path id="DejaVuSans-37" d="M 525 4666 
L 3525 4666 
L 3525 4397 
L 1831 0 
L 1172 0 
L 2766 4134 
L 525 4134 
L 525 4666 
z
" transform="scale(0.015625)"/>
       </defs>
       <use xlink:href="#DejaVuSans-37"/>
       <use xlink:href="#DejaVuSans-35" x="63.623047"/>
       <use xlink:href="#DejaVuSans-30" x="127.246094"/>
      </g>
     </g>
    </g>
    <g id="xtick_5">
     <g id="line2d_5">
      <g>
       <use xlink:href="#mf458ee449f" x="236.241204" y="307.584" style="stroke: #000000; stroke-width: 0.8"/>
      </g>
     </g>
     <g id="text_5">
      <!-- 1000 -->
      <g transform="translate(223.516204 322.182437)scale(0.1 -0.1)">
       <defs>
        <path id="DejaVuSans-31" d="M 794 531 
L 1825 531 
L 1825 4091 
L 703 3866 
L 703 4441 
L 1819 4666 
L 2450 4666 
L 2450 531 
L 3481 531 
L 3481 0 
L 794 0 
L 794 531 
z
" transform="scale(0.015625)"/>
       </defs>
       <use xlink:href="#DejaVuSans-31"/>
       <use xlink:href="#DejaVuSans-30" x="63.623047"/>
       <use xlink:href="#DejaVuSans-30" x="127.246094"/>
       <use xlink:href="#DejaVuSans-30" x="190.869141"/>
      </g>
     </g>
    </g>
    <g id="xtick_6">
     <g id="line2d_6">
      <g>
       <use xlink:href="#mf458ee449f" x="276.843323" y="307.584" style="stroke: #000000; stroke-width: 0.8"/>
      </g>
     </g>
     <g id="text_6">
      <!-- 1250 -->
      <g transform="translate(264.118323 322.182437)scale(0.1 -0.1)">
       <use xlink:href="#DejaVuSans-31"/>
       <use xlink:href="#DejaVuSans-32" x="63.623047"/>
       <use xlink:href="#DejaVuSans-35" x="127.246094"/>
       <use xlink:href="#DejaVuSans-30" x="190.869141"/>
      </g>
     </g>
    </g>
    <g id="xtick_7">
     <g id="line2d_7">
      <g>
       <use xlink:href="#mf458ee449f" x="317.445443" y="307.584" style="stroke: #000000; stroke-width: 0.8"/>
      </g>
     </g>
     <g id="text_7">
      <!-- 1500 -->
      <g transform="translate(304.720443 322.182437)scale(0.1 -0.1)">
       <use xlink:href="#DejaVuSans-31"/>
       <use xlink:href="#DejaVuSans-35" x="63.623047"/>
       <use xlink:href="#DejaVuSans-30" x="127.246094"/>
       <use xlink:href="#DejaVuSans-30" x="190.869141"/>
      </g>
     </g>
    </g>
    <g id="xtick_8">
     <g id="line2d_8">
      <g>
       <use xlink:href="#mf458ee449f" x="358.047562" y="307.584" style="stroke: #000000; stroke-width: 0.8"/>
      </g>
     </g>
     <g id="text_8">
      <!-- 1750 -->
      <g transform="translate(345.322562 322.182437)scale(0.1 -0.1)">
       <use xlink:href="#DejaVuSans-31"/>
       <use xlink:href="#DejaVuSans-37" x="63.623047"/>
       <use xlink:href="#DejaVuSans-35" x="127.246094"/>
       <use xlink:href="#DejaVuSans-30" x="190.869141"/>
      </g>
     </g>
    </g>
    <g id="xtick_9">
     <g id="line2d_9">
      <g>
       <use xlink:href="#mf458ee449f" x="398.649681" y="307.584" style="stroke: #000000; stroke-width: 0.8"/>
      </g>
     </g>
     <g id="text_9">
      <!-- 2000 -->
      <g transform="translate(385.924681 322.182437)scale(0.1 -0.1)">
       <use xlink:href="#DejaVuSans-32"/>
       <use xlink:href="#DejaVuSans-30" x="63.623047"/>
       <use xlink:href="#DejaVuSans-30" x="127.246094"/>
       <use xlink:href="#DejaVuSans-30" x="190.869141"/>
      </g>
     </g>
    </g>
    <g id="text_10">
     <!-- Number of Orders -->
     <g transform="translate(191.261562 335.860562)scale(0.1 -0.1)">
      <defs>
       <path id="DejaVuSans-4e" d="M 628 4666 
L 1478 4666 
L 3547 763 
L 3547 4666 
L 4159 4666 
L 4159 0 
L 3309 0 
L 1241 3903 
L 1241 0 
L 628 0 
L 628 4666 
z
" transform="scale(0.015625)"/>
       <path id="DejaVuSans-75" d="M 544 1381 
L 544 3500 
L 1119 3500 
L 1119 1403 
Q 1119 906 1312 657 
Q 1506 409 1894 409 
Q 2359 409 2629 706 
Q 2900 1003 2900 1516 
L 2900 3500 
L 3475 3500 
L 3475 0 
L 2900 0 
L 2900 538 
Q 2691 219 2414 64 
Q 2138 -91 1772 -91 
Q 1169 -91 856 284 
Q 544 659 544 1381 
z
M 1991 3584 
L 1991 3584 
z
" transform="scale(0.015625)"/>
       <path id="DejaVuSans-6d" d="M 3328 2828 
Q 3544 3216 3844 3400 
Q 4144 3584 4550 3584 
Q 5097 3584 5394 3201 
Q 5691 2819 5691 2113 
L 5691 0 
L 5113 0 
L 5113 2094 
Q 5113 2597 4934 2840 
Q 4756 3084 4391 3084 
Q 3944 3084 3684 2787 
Q 3425 2491 3425 1978 
L 3425 0 
L 2847 0 
L 2847 2094 
Q 2847 2600 2669 2842 
Q 2491 3084 2119 3084 
Q 1678 3084 1418 2786 
Q 1159 2488 1159 1978 
L 1159 0 
L 581 0 
L 581 3500 
L 1159 3500 
L 1159 2956 
Q 1356 3278 1631 3431 
Q 1906 3584 2284 3584 
Q 2666 3584 2933 3390 
Q 3200 3197 3328 2828 
z
" transform="scale(0.015625)"/>
       <path id="DejaVuSans-62" d="M 3116 1747 
Q 3116 2381 2855 2742 
Q 2594 3103 2138 3103 
Q 1681 3103 1420 2742 
Q 1159 2381 1159 1747 
Q 1159 1113 1420 752 
Q 1681 391 2138 391 
Q 2594 391 2855 752 
Q 3116 1113 3116 1747 
z
M 1159 2969 
Q 1341 3281 1617 3432 
Q 1894 3584 2278 3584 
Q 2916 3584 3314 3078 
Q 3713 2572 3713 1747 
Q 3713 922 3314 415 
Q 2916 -91 2278 -91 
Q 1894 -91 1617 61 
Q 1341 213 1159 525 
L 1159 0 
L 581 0 
L 581 4863 
L 1159 4863 
L 1159 2969 
z
" transform="scale(0.015625)"/>
       <path id="DejaVuSans-65" d="M 3597 1894 
L 3597 1613 
L 953 1613 
Q 991 1019 1311 708 
Q 1631 397 2203 397 
Q 2534 397 2845 478 
Q 3156 559 3463 722 
L 3463 178 
Q 3153 47 2828 -22 
Q 2503 -91 2169 -91 
Q 1331 -91 842 396 
Q 353 884 353 1716 
Q 353 2575 817 3079 
Q 1281 3584 2069 3584 
Q 2775 3584 3186 3129 
Q 3597 2675 3597 1894 
z
M 3022 2063 
Q 3016 2534 2758 2815 
Q 2500 3097 2075 3097 
Q 1594 3097 1305 2825 
Q 1016 2553 972 2059 
L 3022 2063 
z
" transform="scale(0.015625)"/>
       <path id="DejaVuSans-72" d="M 2631 2963 
Q 2534 3019 2420 3045 
Q 2306 3072 2169 3072 
Q 1681 3072 1420 2755 
Q 1159 2438 1159 1844 
L 1159 0 
L 581 0 
L 581 3500 
L 1159 3500 
L 1159 2956 
Q 1341 3275 1631 3429 
Q 1922 3584 2338 3584 
Q 2397 3584 2469 3576 
Q 2541 3569 2628 3553 
L 2631 2963 
z
" transform="scale(0.015625)"/>
       <path id="DejaVuSans-20" transform="scale(0.015625)"/>
       <path id="DejaVuSans-6f" d="M 1959 3097 
Q 1497 3097 1228 2736 
Q 959 2375 959 1747 
Q 959 1119 1226 758 
Q 1494 397 1959 397 
Q 2419 397 2687 759 
Q 2956 1122 2956 1747 
Q 2956 2369 2687 2733 
Q 2419 3097 1959 3097 
z
M 1959 3584 
Q 2709 3584 3137 3096 
Q 3566 2609 3566 1747 
Q 3566 888 3137 398 
Q 2709 -91 1959 -91 
Q 1206 -91 779 398 
Q 353 888 353 1747 
Q 353 2609 779 3096 
Q 1206 3584 1959 3584 
z
" transform="scale(0.015625)"/>
       <path id="DejaVuSans-66" d="M 2375 4863 
L 2375 4384 
L 1825 4384 
Q 1516 4384 1395 4259 
Q 1275 4134 1275 3809 
L 1275 3500 
L 2222 3500 
L 2222 3053 
L 1275 3053 
L 1275 0 
L 697 0 
L 697 3053 
L 147 3053 
L 147 3500 
L 697 3500 
L 697 3744 
Q 697 4328 969 4595 
Q 1241 4863 1831 4863 
L 2375 4863 
z
" transform="scale(0.015625)"/>
       <path id="DejaVuSans-4f" d="M 2522 4238 
Q 1834 4238 1429 3725 
Q 1025 3213 1025 2328 
Q 1025 1447 1429 934 
Q 1834 422 2522 422 
Q 3209 422 3611 934 
Q 4013 1447 4013 2328 
Q 4013 3213 3611 3725 
Q 3209 4238 2522 4238 
z
M 2522 4750 
Q 3503 4750 4090 4092 
Q 4678 3434 4678 2328 
Q 4678 1225 4090 567 
Q 3503 -91 2522 -91 
Q 1538 -91 948 565 
Q 359 1222 359 2328 
Q 359 3434 948 4092 
Q 1538 4750 2522 4750 
z
" transform="scale(0.015625)"/>
       <path id="DejaVuSans-64" d="M 2906 2969 
L 2906 4863 
L 3481 4863 
L 3481 0 
L 2906 0 
L 2906 525 
Q 2725 213 2448 61 
Q 2172 -91 1784 -91 
Q 1150 -91 751 415 
Q 353 922 353 1747 
Q 353 2572 751 3078 
Q 1150 3584 1784 3584 
Q 2172 3584 2448 3432 
Q 2725 3281 2906 2969 
z
M 947 1747 
Q 947 1113 1208 752 
Q 1469 391 1925 391 
Q 2381 391 2643 752 
Q 2906 1113 2906 1747 
Q 2906 2381 2643 2742 
Q 2381 3103 1925 3103 
Q 1469 3103 1208 2742 
Q 947 2381 947 1747 
z
" transform="scale(0.015625)"/>
       <path id="DejaVuSans-73" d="M 2834 3397 
L 2834 2853 
Q 2591 2978 2328 3040 
Q 2066 3103 1784 3103 
Q 1356 3103 1142 2972 
Q 928 2841 928 2578 
Q 928 2378 1081 2264 
Q 1234 2150 1697 2047 
L 1894 2003 
Q 2506 1872 2764 1633 
Q 3022 1394 3022 966 
Q 3022 478 2636 193 
Q 2250 -91 1575 -91 
Q 1294 -91 989 -36 
Q 684 19 347 128 
L 347 722 
Q 666 556 975 473 
Q 1284 391 1588 391 
Q 1994 391 2212 530 
Q 2431 669 2431 922 
Q 2431 1156 2273 1281 
Q 2116 1406 1581 1522 
L 1381 1569 
Q 847 1681 609 1914 
Q 372 2147 372 2553 
Q 372 3047 722 3315 
Q 1072 3584 1716 3584 
Q 2034 3584 2315 3537 
Q 2597 3491 2834 3397 
z
" transform="scale(0.015625)"/>
      </defs>
      <use xlink:href="#DejaVuSans-4e"/>
      <use xlink:href="#DejaVuSans-75" x="74.804688"/>
      <use xlink:href="#DejaVuSans-6d" x="138.183594"/>
      <use xlink:href="#DejaVuSans-62" x="235.595703"/>
      <use xlink:href="#DejaVuSans-65" x="299.072266"/>
      <use xlink:href="#DejaVuSans-72" x="360.595703"/>
      <use xlink:href="#DejaVuSans-20" x="401.708984"/>
      <use xlink:href="#DejaVuSans-6f" x="433.496094"/>
      <use xlink:href="#DejaVuSans-66" x="494.677734"/>
      <use xlink:href="#DejaVuSans-20" x="529.882812"/>
      <use xlink:href="#DejaVuSans-4f" x="561.669922"/>
      <use xlink:href="#DejaVuSans-72" x="640.380859"/>
      <use xlink:href="#DejaVuSans-64" x="679.744141"/>
      <use xlink:href="#DejaVuSans-65" x="743.220703"/>
      <use xlink:href="#DejaVuSans-72" x="804.744141"/>
      <use xlink:href="#DejaVuSans-73" x="845.857422"/>
     </g>
    </g>
   </g>
   <g id="matplotlib.axis_2">
    <g id="ytick_1">
     <g id="line2d_10">
      <defs>
       <path id="m0b2a0b4e4e" d="M 0 0 
L -3.5 0 
" style="stroke: #000000; stroke-width: 0.8"/>
      </defs>
      <g>
       <use xlink:href="#m0b2a0b4e4e" x="57.6" y="267.58285" style="stroke: #000000; stroke-width: 0.8"/>
      </g>
     </g>
     <g id="text_11">
      <!-- 850 -->
      <g transform="translate(31.5125 271.382068)scale(0.1 -0.1)">
       <defs>
        <path id="DejaVuSans-38" d="M 2034 2216 
Q 1584 2216 1326 1975 
Q 1069 1734 1069 1313 
Q 1069 891 1326 650 
Q 1584 409 2034 409 
Q 2484 409 2743 651 
Q 3003 894 3003 1313 
Q 3003 1734 2745 1975 
Q 2488 2216 2034 2216 
z
M 1403 2484 
Q 997 2584 770 2862 
Q 544 3141 544 3541 
Q 544 4100 942 4425 
Q 1341 4750 2034 4750 
Q 2731 4750 3128 4425 
Q 3525 4100 3525 3541 
Q 3525 3141 3298 2862 
Q 3072 2584 2669 2484 
Q 3125 2378 3379 2068 
Q 3634 1759 3634 1313 
Q 3634 634 3220 271 
Q 2806 -91 2034 -91 
Q 1263 -91 848 271 
Q 434 634 434 1313 
Q 434 1759 690 2068 
Q 947 2378 1403 2484 
z
M 1172 3481 
Q 1172 3119 1398 2916 
Q 1625 2713 2034 2713 
Q 2441 2713 2670 2916 
Q 2900 3119 2900 3481 
Q 2900 3844 2670 4047 
Q 2441 4250 2034 4250 
Q 1625 4250 1398 4047 
Q 1172 3844 1172 3481 
z
" transform="scale(0.015625)"/>
       </defs>
       <use xlink:href="#DejaVuSans-38"/>
       <use xlink:href="#DejaVuSans-35" x="63.623047"/>
       <use xlink:href="#DejaVuSans-30" x="127.246094"/>
      </g>
     </g>
    </g>
    <g id="ytick_2">
     <g id="line2d_11">
      <g>
       <use xlink:href="#m0b2a0b4e4e" x="57.6" y="211.532211" style="stroke: #000000; stroke-width: 0.8"/>
      </g>
     </g>
     <g id="text_12">
      <!-- 900 -->
      <g transform="translate(31.5125 215.33143)scale(0.1 -0.1)">
       <defs>
        <path id="DejaVuSans-39" d="M 703 97 
L 703 672 
Q 941 559 1184 500 
Q 1428 441 1663 441 
Q 2288 441 2617 861 
Q 2947 1281 2994 2138 
Q 2813 1869 2534 1725 
Q 2256 1581 1919 1581 
Q 1219 1581 811 2004 
Q 403 2428 403 3163 
Q 403 3881 828 4315 
Q 1253 4750 1959 4750 
Q 2769 4750 3195 4129 
Q 3622 3509 3622 2328 
Q 3622 1225 3098 567 
Q 2575 -91 1691 -91 
Q 1453 -91 1209 -44 
Q 966 3 703 97 
z
M 1959 2075 
Q 2384 2075 2632 2365 
Q 2881 2656 2881 3163 
Q 2881 3666 2632 3958 
Q 2384 4250 1959 4250 
Q 1534 4250 1286 3958 
Q 1038 3666 1038 3163 
Q 1038 2656 1286 2365 
Q 1534 2075 1959 2075 
z
" transform="scale(0.015625)"/>
       </defs>
       <use xlink:href="#DejaVuSans-39"/>
       <use xlink:href="#DejaVuSans-30" x="63.623047"/>
       <use xlink:href="#DejaVuSans-30" x="127.246094"/>
      </g>
     </g>
    </g>
    <g id="ytick_3">
     <g id="line2d_12">
      <g>
       <use xlink:href="#m0b2a0b4e4e" x="57.6" y="155.481573" style="stroke: #000000; stroke-width: 0.8"/>
      </g>
     </g>
     <g id="text_13">
      <!-- 950 -->
      <g transform="translate(31.5125 159.280792)scale(0.1 -0.1)">
       <use xlink:href="#DejaVuSans-39"/>
       <use xlink:href="#DejaVuSans-35" x="63.623047"/>
       <use xlink:href="#DejaVuSans-30" x="127.246094"/>
      </g>
     </g>
    </g>
    <g id="ytick_4">
     <g id="line2d_13">
      <g>
       <use xlink:href="#m0b2a0b4e4e" x="57.6" y="99.430934" style="stroke: #000000; stroke-width: 0.8"/>
      </g>
     </g>
     <g id="text_14">
      <!-- 1000 -->
      <g transform="translate(25.15 103.230153)scale(0.1 -0.1)">
       <use xlink:href="#DejaVuSans-31"/>
       <use xlink:href="#DejaVuSans-30" x="63.623047"/>
       <use xlink:href="#DejaVuSans-30" x="127.246094"/>
       <use xlink:href="#DejaVuSans-30" x="190.869141"/>
      </g>
     </g>
    </g>
    <g id="ytick_5">
     <g id="line2d_14">
      <g>
       <use xlink:href="#m0b2a0b4e4e" x="57.6" y="43.380296" style="stroke: #000000; stroke-width: 0.8"/>
      </g>
     </g>
     <g id="text_15">
      <!-- 1050 -->
      <g transform="translate(25.15 47.179515)scale(0.1 -0.1)">
       <use xlink:href="#DejaVuSans-31"/>
       <use xlink:href="#DejaVuSans-30" x="63.623047"/>
       <use xlink:href="#DejaVuSans-35" x="127.246094"/>
       <use xlink:href="#DejaVuSans-30" x="190.869141"/>
      </g>
     </g>
    </g>
    <g id="text_16">
     <!-- Waiting Time/s -->
     <g transform="translate(19.070312 211.410031)rotate(-90)scale(0.1 -0.1)">
      <defs>
       <path id="DejaVuSans-57" d="M 213 4666 
L 850 4666 
L 1831 722 
L 2809 4666 
L 3519 4666 
L 4500 722 
L 5478 4666 
L 6119 4666 
L 4947 0 
L 4153 0 
L 3169 4050 
L 2175 0 
L 1381 0 
L 213 4666 
z
" transform="scale(0.015625)"/>
       <path id="DejaVuSans-61" d="M 2194 1759 
Q 1497 1759 1228 1600 
Q 959 1441 959 1056 
Q 959 750 1161 570 
Q 1363 391 1709 391 
Q 2188 391 2477 730 
Q 2766 1069 2766 1631 
L 2766 1759 
L 2194 1759 
z
M 3341 1997 
L 3341 0 
L 2766 0 
L 2766 531 
Q 2569 213 2275 61 
Q 1981 -91 1556 -91 
Q 1019 -91 701 211 
Q 384 513 384 1019 
Q 384 1609 779 1909 
Q 1175 2209 1959 2209 
L 2766 2209 
L 2766 2266 
Q 2766 2663 2505 2880 
Q 2244 3097 1772 3097 
Q 1472 3097 1187 3025 
Q 903 2953 641 2809 
L 641 3341 
Q 956 3463 1253 3523 
Q 1550 3584 1831 3584 
Q 2591 3584 2966 3190 
Q 3341 2797 3341 1997 
z
" transform="scale(0.015625)"/>
       <path id="DejaVuSans-69" d="M 603 3500 
L 1178 3500 
L 1178 0 
L 603 0 
L 603 3500 
z
M 603 4863 
L 1178 4863 
L 1178 4134 
L 603 4134 
L 603 4863 
z
" transform="scale(0.015625)"/>
       <path id="DejaVuSans-74" d="M 1172 4494 
L 1172 3500 
L 2356 3500 
L 2356 3053 
L 1172 3053 
L 1172 1153 
Q 1172 725 1289 603 
Q 1406 481 1766 481 
L 2356 481 
L 2356 0 
L 1766 0 
Q 1100 0 847 248 
Q 594 497 594 1153 
L 594 3053 
L 172 3053 
L 172 3500 
L 594 3500 
L 594 4494 
L 1172 4494 
z
" transform="scale(0.015625)"/>
       <path id="DejaVuSans-6e" d="M 3513 2113 
L 3513 0 
L 2938 0 
L 2938 2094 
Q 2938 2591 2744 2837 
Q 2550 3084 2163 3084 
Q 1697 3084 1428 2787 
Q 1159 2491 1159 1978 
L 1159 0 
L 581 0 
L 581 3500 
L 1159 3500 
L 1159 2956 
Q 1366 3272 1645 3428 
Q 1925 3584 2291 3584 
Q 2894 3584 3203 3211 
Q 3513 2838 3513 2113 
z
" transform="scale(0.015625)"/>
       <path id="DejaVuSans-67" d="M 2906 1791 
Q 2906 2416 2648 2759 
Q 2391 3103 1925 3103 
Q 1463 3103 1205 2759 
Q 947 2416 947 1791 
Q 947 1169 1205 825 
Q 1463 481 1925 481 
Q 2391 481 2648 825 
Q 2906 1169 2906 1791 
z
M 3481 434 
Q 3481 -459 3084 -895 
Q 2688 -1331 1869 -1331 
Q 1566 -1331 1297 -1286 
Q 1028 -1241 775 -1147 
L 775 -588 
Q 1028 -725 1275 -790 
Q 1522 -856 1778 -856 
Q 2344 -856 2625 -561 
Q 2906 -266 2906 331 
L 2906 616 
Q 2728 306 2450 153 
Q 2172 0 1784 0 
Q 1141 0 747 490 
Q 353 981 353 1791 
Q 353 2603 747 3093 
Q 1141 3584 1784 3584 
Q 2172 3584 2450 3431 
Q 2728 3278 2906 2969 
L 2906 3500 
L 3481 3500 
L 3481 434 
z
" transform="scale(0.015625)"/>
       <path id="DejaVuSans-54" d="M -19 4666 
L 3928 4666 
L 3928 4134 
L 2272 4134 
L 2272 0 
L 1638 0 
L 1638 4134 
L -19 4134 
L -19 4666 
z
" transform="scale(0.015625)"/>
       <path id="DejaVuSans-2f" d="M 1625 4666 
L 2156 4666 
L 531 -594 
L 0 -594 
L 1625 4666 
z
" transform="scale(0.015625)"/>
      </defs>
      <use xlink:href="#DejaVuSans-57"/>
      <use xlink:href="#DejaVuSans-61" x="92.501953"/>
      <use xlink:href="#DejaVuSans-69" x="153.78125"/>
      <use xlink:href="#DejaVuSans-74" x="181.564453"/>
      <use xlink:href="#DejaVuSans-69" x="220.773438"/>
      <use xlink:href="#DejaVuSans-6e" x="248.556641"/>
      <use xlink:href="#DejaVuSans-67" x="311.935547"/>
      <use xlink:href="#DejaVuSans-20" x="375.412109"/>
      <use xlink:href="#DejaVuSans-54" x="407.199219"/>
      <use xlink:href="#DejaVuSans-69" x="465.158203"/>
      <use xlink:href="#DejaVuSans-6d" x="492.941406"/>
      <use xlink:href="#DejaVuSans-65" x="590.353516"/>
      <use xlink:href="#DejaVuSans-2f" x="651.876953"/>
      <use xlink:href="#DejaVuSans-73" x="685.568359"/>
     </g>
    </g>
   </g>
   <g id="line2d_15">
    <path d="M 73.832727 295.488 
L 74.319953 142.80586 
L 74.482361 111.743582 
L 74.64477 163.614828 
L 74.807178 161.618374 
L 74.969587 150.603132 
L 75.131995 167.450541 
L 75.294404 155.989038 
L 75.619221 117.152564 
L 75.781629 118.255803 
L 76.106446 70.109371 
L 76.268854 56.616273 
L 76.75608 77.56131 
L 77.080897 89.47428 
L 77.405714 71.593353 
L 77.568122 74.674855 
L 77.730531 75.595639 
L 77.892939 58.684655 
L 78.217756 77.863765 
L 78.380165 83.034544 
L 78.542573 79.279039 
L 78.704982 85.103825 
L 78.86739 85.287655 
L 79.029799 69.215291 
L 79.192207 67.665333 
L 79.354615 53.568 
L 79.517024 55.812473 
L 79.841841 62.704647 
L 80.004249 59.290367 
L 80.166658 65.119485 
L 80.329066 61.062547 
L 80.491475 67.91156 
L 80.653883 60.864447 
L 80.9787 78.181236 
L 81.141109 76.513378 
L 81.303517 72.884457 
L 81.465926 72.450307 
L 81.628334 72.347091 
L 81.790743 79.729093 
L 81.953151 79.424583 
L 82.11556 75.056437 
L 82.277968 74.877762 
L 82.440377 72.661175 
L 82.602785 73.174857 
L 82.765194 66.398288 
L 83.577236 87.795957 
L 83.739644 87.045513 
L 83.902053 87.117794 
L 84.064461 90.106402 
L 84.22687 86.318384 
L 84.389278 78.896646 
L 84.714095 87.21893 
L 85.201321 94.405608 
L 85.526138 85.43468 
L 85.850955 94.516432 
L 86.013363 89.02426 
L 86.175772 89.664048 
L 86.33818 93.426629 
L 86.500588 91.579086 
L 86.662997 88.434476 
L 86.825405 91.11955 
L 87.150222 85.03144 
L 87.475039 84.644174 
L 87.962265 79.08339 
L 88.124673 83.873746 
L 88.287082 85.047709 
L 88.44949 84.858687 
L 88.774307 87.784995 
L 88.936716 88.054792 
L 89.423941 80.545883 
L 89.58635 82.250368 
L 89.748758 85.731495 
L 90.073575 82.276713 
L 90.235983 81.344232 
L 90.5608 85.289025 
L 90.723209 83.175316 
L 90.885617 83.209233 
L 91.048026 81.896272 
L 91.210434 84.487921 
L 91.372843 82.345896 
L 91.69766 86.86668 
L 91.860068 87.461894 
L 92.022477 87.315073 
L 92.184885 86.76074 
L 92.347294 88.602373 
L 92.509702 86.113393 
L 92.672111 88.723095 
L 92.996928 83.372059 
L 93.159336 83.360905 
L 93.321745 81.928629 
L 93.971378 87.846851 
L 94.133787 87.368344 
L 94.296195 89.244969 
L 94.458604 87.360438 
L 94.783421 90.558585 
L 94.945829 90.589943 
L 95.108238 91.085959 
L 95.270646 93.59795 
L 95.595463 89.181351 
L 95.757872 87.760867 
L 95.92028 87.458101 
L 96.082689 87.552838 
L 96.245097 88.172304 
L 96.569914 90.523377 
L 96.732323 90.829422 
L 96.894731 92.29474 
L 97.381956 87.122286 
L 97.544365 88.24644 
L 97.869182 88.984958 
L 98.03159 89.52274 
L 98.356407 85.730716 
L 98.518816 88.251463 
L 98.681224 84.863783 
L 98.843633 85.21816 
L 99.006041 85.947895 
L 99.16845 84.2229 
L 99.493267 86.81436 
L 99.655675 86.002304 
L 99.818084 86.586408 
L 99.980492 86.707905 
L 100.142901 87.378756 
L 100.305309 86.451957 
L 100.467717 86.456674 
L 100.954943 91.446216 
L 101.117351 89.617192 
L 101.27976 90.091359 
L 101.442168 91.100125 
L 101.604577 91.201217 
L 101.766985 90.854192 
L 101.929394 92.419379 
L 102.091802 89.462022 
L 102.254211 89.281231 
L 102.416619 89.717897 
L 102.741436 93.668443 
L 102.903845 93.314744 
L 103.066253 94.420433 
L 103.228662 94.353167 
L 103.39107 94.482098 
L 103.553479 96.666579 
L 103.715887 96.17716 
L 103.878296 96.309432 
L 104.040704 95.942444 
L 104.203112 97.201283 
L 104.365521 95.711056 
L 104.527929 95.8993 
L 104.690338 96.755363 
L 104.852746 93.969015 
L 105.177563 96.874868 
L 105.339972 96.246134 
L 105.50238 95.045087 
L 105.664789 95.289562 
L 105.827197 96.505404 
L 105.989606 94.581115 
L 106.152014 95.165445 
L 106.314423 94.003743 
L 106.476831 94.185476 
L 106.63924 93.901661 
L 106.801648 92.170387 
L 106.964057 92.985531 
L 107.126465 91.79873 
L 107.451282 93.728996 
L 107.61369 93.300011 
L 107.776099 94.87357 
L 108.100916 94.37181 
L 108.263324 93.129298 
L 108.425733 93.241462 
L 108.588141 93.614986 
L 109.075367 96.93835 
L 109.237775 98.511091 
L 109.400184 97.591539 
L 109.562592 98.103295 
L 109.725001 97.334841 
L 109.887409 97.438056 
L 110.049818 98.405612 
L 110.212226 97.838459 
L 110.374635 96.200032 
L 110.537043 95.746179 
L 111.024268 97.078133 
L 111.511494 100.805105 
L 111.673902 100.962398 
L 111.836311 99.978681 
L 111.998719 99.894362 
L 112.161128 101.477404 
L 112.323536 100.271131 
L 112.485945 100.643968 
L 112.648353 101.919587 
L 112.97317 101.170251 
L 113.135579 101.113911 
L 113.460396 103.558379 
L 113.622804 102.378972 
L 113.785213 102.675361 
L 113.947621 100.943438 
L 114.434847 99.546335 
L 114.597255 99.737552 
L 114.922072 101.304392 
L 115.08448 101.221883 
L 115.246889 99.917731 
L 115.409297 100.116557 
L 115.734114 101.56374 
L 115.896523 100.05774 
L 116.058931 100.03116 
L 116.22134 99.872975 
L 116.546157 98.22019 
L 116.708565 99.062919 
L 116.870974 97.873336 
L 117.195791 97.60346 
L 117.358199 97.199766 
L 117.520608 97.835952 
L 117.845425 100.214966 
L 118.007833 99.970649 
L 118.495058 96.771331 
L 118.657467 96.046392 
L 118.819875 95.913773 
L 119.144692 97.317773 
L 119.307101 96.771189 
L 119.469509 97.508164 
L 119.631918 97.692036 
L 119.794326 96.617965 
L 119.956735 96.550662 
L 120.119143 96.65387 
L 120.281552 95.543787 
L 120.606369 97.349719 
L 120.768777 96.307861 
L 120.931186 96.117448 
L 121.093594 96.324415 
L 121.256003 96.203666 
L 121.418411 96.569967 
L 121.58082 95.845732 
L 121.743228 96.596583 
L 122.068045 94.841614 
L 122.392862 96.483858 
L 122.55527 96.427867 
L 122.717679 95.333755 
L 122.880087 95.62123 
L 123.042496 95.427292 
L 123.204904 96.160391 
L 123.529721 93.654721 
L 123.69213 94.071282 
L 123.854538 94.874966 
L 124.016947 94.180114 
L 124.179355 95.276893 
L 124.504172 94.014449 
L 124.666581 95.098157 
L 124.991398 94.283073 
L 125.316214 94.479915 
L 125.478623 95.560878 
L 125.641031 95.319756 
L 125.965848 94.055711 
L 126.290665 95.000526 
L 126.453074 94.0962 
L 126.615482 94.20681 
L 126.777891 93.671654 
L 127.102708 94.7744 
L 127.265116 94.083574 
L 127.427525 94.643806 
L 127.589933 94.523539 
L 127.752342 95.245945 
L 127.91475 94.507087 
L 128.077159 94.517449 
L 128.401976 96.423743 
L 128.564384 96.172717 
L 128.726792 96.233409 
L 128.889201 95.552616 
L 129.051609 96.626392 
L 129.214018 95.403493 
L 129.376426 96.301852 
L 129.538835 96.300264 
L 129.701243 96.489633 
L 129.863652 96.505637 
L 130.02606 96.909019 
L 130.350877 95.845035 
L 130.513286 96.59103 
L 130.838103 95.057417 
L 131.000511 95.874785 
L 131.16292 95.965469 
L 131.325328 95.516625 
L 131.487737 95.463088 
L 131.650145 94.962822 
L 131.812554 95.141445 
L 131.974962 94.8314 
L 132.137371 94.879959 
L 132.299779 94.603702 
L 132.624596 95.978014 
L 132.787004 96.144566 
L 132.949413 97.060425 
L 133.111821 95.899558 
L 133.436638 95.384745 
L 133.599047 95.574294 
L 133.761455 96.52902 
L 133.923864 96.472778 
L 134.086272 96.845331 
L 134.248681 96.910054 
L 134.411089 97.324866 
L 134.735906 95.630877 
L 134.898315 94.598531 
L 135.060723 95.48484 
L 135.38554 95.2353 
L 135.547949 94.331045 
L 135.710357 94.249267 
L 135.872765 94.566694 
L 136.035174 94.483364 
L 136.197582 94.136784 
L 136.359991 94.090894 
L 136.522399 95.110968 
L 136.684808 94.950099 
L 136.847216 94.430541 
L 137.009625 94.409112 
L 137.172033 93.493447 
L 137.334442 93.906781 
L 137.49685 93.867917 
L 137.821667 94.898528 
L 137.984076 94.805636 
L 138.146484 95.18423 
L 138.63371 93.953138 
L 138.958527 94.308415 
L 139.120935 94.030216 
L 139.283343 94.353377 
L 139.445752 94.319627 
L 139.770569 93.724367 
L 140.095386 94.876954 
L 140.582611 94.163006 
L 140.74502 94.24619 
L 140.907428 94.472776 
L 141.232245 95.918355 
L 141.394654 96.543205 
L 141.557062 96.339289 
L 141.881879 95.05406 
L 142.044288 95.099036 
L 142.206696 94.288443 
L 142.369105 94.426927 
L 142.531513 93.528621 
L 142.693922 93.611691 
L 143.018738 92.28288 
L 143.181147 92.353872 
L 143.343555 93.108748 
L 143.505964 92.467357 
L 143.830781 92.27223 
L 143.993189 91.627274 
L 144.318006 91.952002 
L 144.480415 91.772313 
L 144.642823 91.305112 
L 144.805232 91.512225 
L 145.130049 91.392469 
L 145.779683 89.080618 
L 145.942091 88.859893 
L 146.1045 88.293325 
L 146.266908 88.297793 
L 146.591725 87.558469 
L 146.754133 87.565988 
L 146.916542 87.939624 
L 147.07895 87.892095 
L 147.241359 88.394089 
L 147.403767 87.542862 
L 147.566176 87.446002 
L 147.890993 88.588782 
L 148.053401 88.627683 
L 148.378218 89.015912 
L 148.540627 88.295168 
L 148.703035 89.146334 
L 148.865444 88.432197 
L 149.190261 89.370775 
L 149.352669 88.900177 
L 149.515078 89.115415 
L 149.839894 88.73378 
L 150.164711 87.323606 
L 150.32712 87.478654 
L 150.651937 88.893986 
L 150.814345 88.555243 
L 150.976754 88.836127 
L 151.139162 89.532747 
L 151.301571 89.321109 
L 151.463979 89.353908 
L 151.788796 88.458626 
L 152.113613 88.093866 
L 152.43843 88.753828 
L 152.763247 88.937985 
L 152.925656 88.684861 
L 153.088064 89.350901 
L 153.412881 88.49971 
L 153.900106 88.995517 
L 154.062515 88.929867 
L 154.224923 88.713741 
L 154.54974 89.459711 
L 154.712149 89.53371 
L 154.874557 88.988911 
L 155.036966 89.321387 
L 155.199374 89.186235 
L 155.361783 89.74072 
L 155.524191 89.177321 
L 155.6866 89.637036 
L 155.849008 89.488069 
L 156.011417 89.532217 
L 156.336234 88.594297 
L 156.498642 88.866871 
L 156.661051 88.485915 
L 156.823459 88.802247 
L 157.148276 87.743382 
L 157.310684 88.180055 
L 157.473093 88.249522 
L 157.635501 88.71426 
L 157.960318 88.070174 
L 158.447544 89.416309 
L 158.609952 89.024897 
L 158.772361 89.210801 
L 158.934769 88.497899 
L 159.097178 88.539336 
L 159.259586 88.411106 
L 159.421995 89.058022 
L 159.584403 88.011217 
L 159.746812 88.612102 
L 160.234037 86.216404 
L 160.558854 86.56876 
L 160.721262 86.143406 
L 160.883671 86.088483 
L 161.208488 85.498917 
L 161.533305 86.580649 
L 161.858122 85.889508 
L 162.02053 85.403156 
L 162.182939 85.599436 
L 162.507756 86.468795 
L 162.994981 86.281009 
L 163.15739 85.81868 
L 163.482207 86.189503 
L 163.644615 85.699698 
L 163.807024 85.924466 
L 163.969432 85.71015 
L 164.13184 85.980433 
L 164.294249 85.534301 
L 164.619066 85.963546 
L 164.781474 86.152454 
L 164.943883 86.011525 
L 165.431108 86.901212 
L 165.593517 86.593499 
L 165.755925 86.925154 
L 165.918334 86.414435 
L 166.080742 86.470169 
L 166.243151 86.644236 
L 166.567968 87.668594 
L 166.730376 87.388321 
L 166.892785 87.393751 
L 167.055193 87.975803 
L 167.217602 87.915704 
L 167.38001 88.277384 
L 167.704827 88.16102 
L 167.867235 88.690743 
L 168.192052 87.483987 
L 168.354461 87.287384 
L 168.516869 87.704025 
L 168.679278 87.23741 
L 168.841686 87.344967 
L 169.004095 88.033456 
L 169.166503 87.759819 
L 169.328912 87.786651 
L 169.653729 88.831183 
L 169.978546 88.286818 
L 170.140954 87.708369 
L 170.303363 88.260241 
L 170.952996 87.291537 
L 171.115405 87.379455 
L 171.277813 87.236354 
L 171.440222 86.822561 
L 171.60263 87.266512 
L 171.765039 86.986045 
L 172.089856 87.140032 
L 172.252264 86.96934 
L 172.414673 87.504369 
L 172.73949 86.860908 
L 172.901898 86.632325 
L 173.064307 86.903862 
L 173.226715 87.534182 
L 173.389124 87.536826 
L 173.551532 86.953941 
L 173.713941 87.530956 
L 173.876349 87.543149 
L 174.038758 88.193142 
L 174.201166 87.905035 
L 174.363575 88.031144 
L 174.8508 86.516129 
L 175.175617 87.189686 
L 175.825251 86.219524 
L 176.150068 87.378093 
L 176.312476 87.324828 
L 176.474885 86.911965 
L 176.799702 87.077872 
L 176.96211 86.658415 
L 177.124519 85.872236 
L 177.286927 86.377246 
L 177.611744 85.723998 
L 177.774153 85.95129 
L 177.936561 85.55178 
L 178.098969 85.490988 
L 178.261378 85.724979 
L 178.423786 85.398364 
L 178.586195 85.598485 
L 178.748603 85.601243 
L 178.911012 86.047596 
L 179.07342 85.660175 
L 179.235829 85.63213 
L 179.398237 85.834973 
L 179.723054 86.70944 
L 179.885463 86.170781 
L 180.21028 86.961812 
L 180.372688 87.211206 
L 180.697505 87.290816 
L 180.859914 87.772399 
L 181.022322 87.512404 
L 181.184731 87.552372 
L 181.509548 88.156932 
L 181.671956 88.384144 
L 181.996773 89.137186 
L 182.159181 89.220052 
L 182.32159 88.575564 
L 182.646407 89.704857 
L 182.971224 88.462169 
L 183.296041 88.876844 
L 183.620858 88.293103 
L 183.783266 88.676677 
L 183.945675 88.681258 
L 184.4329 87.627997 
L 184.757717 88.461195 
L 184.920126 88.627526 
L 185.082534 89.046808 
L 185.732168 88.026769 
L 185.894576 88.032138 
L 186.219393 88.612205 
L 186.706619 87.857059 
L 186.869027 87.909916 
L 187.031436 87.745991 
L 187.193844 88.026016 
L 187.356253 87.444302 
L 188.005887 88.542631 
L 188.168295 88.617112 
L 188.493112 89.120463 
L 188.65552 88.798701 
L 188.817929 88.764034 
L 188.980337 89.344496 
L 189.142746 89.06579 
L 189.467563 89.210606 
L 189.954788 89.312362 
L 190.117197 89.4975 
L 190.604422 90.410463 
L 190.929239 89.945925 
L 191.091648 89.291816 
L 191.416465 89.154744 
L 191.741282 89.192665 
L 191.90369 88.806616 
L 192.553324 89.955582 
L 192.878141 89.227574 
L 193.365366 90.00376 
L 193.852592 89.228818 
L 194.015 89.26731 
L 194.339817 89.939273 
L 194.502226 89.394236 
L 194.664634 89.305768 
L 194.827043 89.673212 
L 195.963902 87.61696 
L 196.12631 87.532865 
L 196.451127 87.08581 
L 196.938353 87.018096 
L 197.100761 87.401888 
L 197.26317 87.313889 
L 197.425578 86.975301 
L 197.587987 86.987271 
L 197.750395 87.201773 
L 197.912804 87.065041 
L 198.075212 87.135017 
L 198.237621 86.893368 
L 198.562438 87.204448 
L 198.724846 87.043146 
L 198.887255 87.260289 
L 199.049663 87.032506 
L 199.699297 87.717154 
L 199.861705 87.850498 
L 200.186522 87.056103 
L 200.348931 87.419644 
L 200.673748 86.837086 
L 200.836156 86.814582 
L 200.998565 86.915368 
L 201.323382 87.473553 
L 201.810607 86.783703 
L 201.973016 86.814036 
L 202.135424 87.225037 
L 202.297833 87.084389 
L 202.785058 86.231408 
L 203.109875 86.324317 
L 203.272283 86.532785 
L 203.434692 86.279961 
L 203.5971 86.330843 
L 203.921917 85.954718 
L 204.084326 86.054631 
L 204.409143 86.762006 
L 204.571551 86.358698 
L 205.221185 86.117664 
L 205.383594 86.368509 
L 205.546002 86.350575 
L 205.708411 86.087073 
L 206.358044 87.390922 
L 206.520453 87.47653 
L 207.007678 86.803772 
L 207.170087 86.707172 
L 207.657312 87.152069 
L 207.982129 86.592782 
L 208.469355 86.933261 
L 208.631763 86.51803 
L 208.794172 86.781577 
L 208.95658 86.771699 
L 209.118989 86.639728 
L 209.768622 86.900422 
L 209.931031 86.709322 
L 210.255848 87.074007 
L 210.580665 87.089116 
L 211.06789 87.733396 
L 211.392707 87.919671 
L 211.555116 87.525818 
L 211.717524 87.575743 
L 211.879933 87.773541 
L 212.042341 87.573313 
L 212.20475 87.694559 
L 212.367158 87.635726 
L 212.854384 88.5794 
L 213.016792 88.607881 
L 213.179201 88.992995 
L 213.341609 89.057658 
L 213.666426 88.402217 
L 213.828834 88.52119 
L 214.153651 88.083136 
L 214.803285 89.068464 
L 214.965694 89.26554 
L 215.290511 88.811019 
L 215.452919 89.300784 
L 215.777736 88.839088 
L 215.940145 89.056546 
L 216.102553 88.810004 
L 216.264962 88.790698 
L 216.42737 88.434205 
L 216.752187 88.643912 
L 216.914595 88.561838 
L 217.239412 88.798622 
L 217.401821 88.426518 
L 217.726638 88.880772 
L 217.889046 88.983406 
L 218.051455 88.663941 
L 218.376272 89.318524 
L 218.53868 89.398959 
L 218.701089 89.271562 
L 219.025906 88.535733 
L 219.350723 88.936495 
L 219.513131 88.883072 
L 219.837948 88.222995 
L 220.000357 87.937265 
L 220.162765 87.987463 
L 221.137216 89.489385 
L 221.299624 89.508664 
L 221.462033 89.796825 
L 221.624441 89.852016 
L 221.78685 89.645581 
L 221.949258 89.700086 
L 222.111667 89.87203 
L 222.436484 89.306307 
L 222.761301 89.42745 
L 222.923709 88.928306 
L 223.086118 88.967782 
L 223.410935 89.249357 
L 223.573343 89.248164 
L 223.735752 89.522031 
L 223.89816 89.403335 
L 224.060568 89.546302 
L 224.385385 90.23301 
L 224.547794 90.246146 
L 224.710202 90.642032 
L 225.197428 89.812455 
L 225.359836 90.208702 
L 225.522245 89.591671 
L 225.684653 89.546492 
L 225.847062 89.270414 
L 226.00947 89.633103 
L 226.171879 89.542909 
L 226.496696 90.216569 
L 226.659104 89.704431 
L 226.821513 89.877548 
L 227.14633 89.406028 
L 227.471146 90.064051 
L 227.633555 89.890815 
L 227.795963 89.90849 
L 227.958372 90.098267 
L 228.12078 89.839211 
L 228.608006 90.431346 
L 228.932823 89.80513 
L 229.095231 89.947899 
L 229.420048 90.556626 
L 229.744865 90.920756 
L 229.907274 90.810607 
L 230.394499 91.671606 
L 230.556908 91.780012 
L 230.881724 91.490039 
L 231.36895 92.07348 
L 231.856175 91.527442 
L 232.180992 92.21476 
L 232.505809 92.396413 
L 232.668218 92.240817 
L 232.830626 92.60404 
L 232.993035 92.421655 
L 233.155443 92.438249 
L 233.317852 92.613064 
L 233.48026 92.499947 
L 233.967486 91.624847 
L 234.292303 92.062126 
L 234.617119 91.835407 
L 234.941936 91.070819 
L 235.59157 91.009686 
L 235.753979 91.248283 
L 236.078796 90.719839 
L 236.241204 90.695051 
L 236.403613 91.132517 
L 236.566021 91.190622 
L 236.72843 90.778419 
L 236.890838 90.688785 
L 237.053247 90.916091 
L 237.215655 90.917848 
L 237.540472 90.347054 
L 237.702881 90.419033 
L 237.865289 90.358254 
L 238.190106 90.826511 
L 238.514923 90.215988 
L 239.002148 90.551447 
L 239.164557 90.554564 
L 239.651782 89.43477 
L 239.814191 89.607945 
L 239.976599 89.327678 
L 240.463825 89.828747 
L 240.626233 89.484067 
L 240.788642 89.609312 
L 241.275867 88.905156 
L 241.438276 88.950585 
L 241.600684 88.697076 
L 241.925501 88.969853 
L 242.737543 89.963936 
L 242.899952 89.836251 
L 243.06236 90.157753 
L 243.224769 90.212146 
L 243.387177 89.904211 
L 243.549586 90.066675 
L 243.874403 90.586329 
L 244.036811 90.494376 
L 244.19922 90.672318 
L 244.361628 90.542489 
L 245.17367 91.597089 
L 245.336079 91.39575 
L 245.660896 91.548175 
L 245.823304 91.845852 
L 246.148121 91.534267 
L 246.635347 92.038261 
L 247.122572 91.733101 
L 247.284981 92.137314 
L 247.447389 92.067038 
L 247.772206 92.4516 
L 247.934615 92.446193 
L 248.259432 93.040776 
L 248.584248 92.618764 
L 248.909065 93.317405 
L 249.883516 92.622158 
L 250.045925 92.964118 
L 250.208333 92.857439 
L 250.695559 93.511508 
L 251.182784 93.185141 
L 251.345193 92.906316 
L 251.67001 93.375724 
L 251.832418 93.111914 
L 251.994827 93.241176 
L 252.319643 93.123115 
L 252.482052 93.100984 
L 252.64446 92.806171 
L 253.131686 93.435062 
L 253.294094 93.417816 
L 253.618911 93.749265 
L 253.78132 93.745274 
L 254.106137 93.395948 
L 254.430954 93.499601 
L 254.918179 94.125474 
L 255.242996 93.727039 
L 255.405405 93.901327 
L 255.89263 93.317404 
L 256.055038 93.691861 
L 256.217447 93.403763 
L 256.379855 93.588819 
L 256.704672 93.532028 
L 256.867081 93.320855 
L 257.029489 93.319068 
L 257.191898 93.090374 
L 257.354306 93.056518 
L 257.516715 92.877209 
L 257.679123 92.88868 
L 257.841532 92.712381 
L 258.00394 92.3594 
L 258.166349 92.28336 
L 258.328757 92.052605 
L 258.815983 92.274542 
L 259.140799 91.88178 
L 259.303208 91.972499 
L 259.628025 91.689857 
L 259.952842 91.820955 
L 260.277659 91.536585 
L 260.440067 91.841706 
L 260.927293 91.731023 
L 261.414518 92.043452 
L 261.901744 91.592883 
L 262.226561 91.718632 
L 262.551378 91.254997 
L 262.713786 91.463081 
L 263.201011 91.273326 
L 263.36342 91.515855 
L 263.525828 91.529489 
L 263.688237 91.691648 
L 263.850645 91.507087 
L 264.175462 91.568139 
L 264.337871 91.402964 
L 264.500279 91.451385 
L 264.662688 91.705405 
L 264.987505 91.212477 
L 265.637139 91.73484 
L 265.799547 91.51031 
L 265.961956 91.725337 
L 266.286772 91.397895 
L 266.449181 91.55927 
L 266.611589 91.341265 
L 266.773998 91.381255 
L 267.261223 90.832443 
L 267.910857 90.49047 
L 268.073266 90.79468 
L 268.235674 90.698934 
L 268.398083 90.908935 
L 268.7229 90.86478 
L 268.885308 90.967605 
L 269.210125 90.756718 
L 269.372534 90.762929 
L 269.534942 90.640866 
L 269.69735 90.894984 
L 269.859759 90.722247 
L 270.022167 90.975027 
L 270.184576 90.690241 
L 270.346984 90.843678 
L 270.509393 90.770574 
L 270.671801 90.559955 
L 270.83421 90.579176 
L 270.996618 90.735225 
L 271.321435 91.338456 
L 271.646252 91.029505 
L 271.808661 90.867212 
L 271.971069 90.9404 
L 272.133478 90.721675 
L 272.295886 90.768286 
L 272.458295 90.519701 
L 272.783112 90.558334 
L 272.94552 90.654605 
L 273.107929 90.466284 
L 273.270337 90.755648 
L 273.432745 90.447903 
L 274.082379 90.450763 
L 274.407196 90.767405 
L 274.894422 91.187186 
L 275.05683 90.84797 
L 275.219239 90.905232 
L 275.706464 90.336851 
L 275.868873 90.586907 
L 276.031281 90.232546 
L 276.19369 90.474594 
L 276.356098 90.248812 
L 277.16814 90.424727 
L 277.330549 90.620744 
L 277.655366 90.416192 
L 277.817774 90.207768 
L 278.142591 90.493882 
L 278.792225 90.961238 
L 278.954634 91.305018 
L 279.117042 91.155926 
L 279.279451 90.767692 
L 279.766676 91.072088 
L 279.929085 90.780682 
L 280.091493 91.078782 
L 280.741127 91.231438 
L 281.390761 90.672585 
L 281.553169 90.81987 
L 281.715578 90.734477 
L 281.877986 90.878072 
L 282.040395 90.527633 
L 282.202803 90.535833 
L 282.365212 90.782938 
L 282.52762 90.58143 
L 282.852437 90.785907 
L 283.177254 90.53871 
L 283.339663 90.728147 
L 283.502071 90.544577 
L 283.826888 90.570423 
L 283.989296 90.48737 
L 284.151705 90.128401 
L 284.476522 90.458148 
L 284.63893 90.515517 
L 284.801339 90.443862 
L 284.963747 90.207745 
L 285.126156 90.21229 
L 285.288564 90.101633 
L 285.613381 90.431202 
L 286.425424 89.645923 
L 286.912649 89.788019 
L 287.562283 89.345593 
L 287.8871 89.826094 
L 288.049508 89.847892 
L 288.211917 89.578358 
L 289.186368 89.661438 
L 289.511185 90.015116 
L 289.673593 89.815931 
L 289.836002 90.018076 
L 290.323227 89.871724 
L 290.810452 90.447507 
L 291.135269 90.080306 
L 291.297678 90.241638 
L 291.460086 90.121171 
L 291.784903 90.462896 
L 291.947312 90.383525 
L 292.434537 91.146182 
L 292.596946 91.155492 
L 292.921763 91.488415 
L 293.084171 91.602645 
L 293.24658 91.371186 
L 293.408988 91.572276 
L 293.571397 91.201885 
L 293.733805 91.114937 
L 293.896214 91.192668 
L 294.058622 90.900293 
L 294.383439 91.220931 
L 294.708256 91.235738 
L 294.870664 91.46069 
L 295.033073 91.45449 
L 295.195481 91.109621 
L 295.35789 91.200082 
L 295.520298 90.755894 
L 295.845115 91.085487 
L 296.007524 91.037603 
L 296.169932 91.13048 
L 296.494749 90.746514 
L 296.981975 91.067846 
L 297.306792 90.757071 
L 297.4692 90.74917 
L 297.631609 90.563767 
L 297.956425 90.724925 
L 298.118834 90.633493 
L 298.281242 90.910417 
L 298.443651 90.957759 
L 298.768468 90.607923 
L 299.093285 90.707632 
L 299.255693 90.942088 
L 299.58051 90.547004 
L 299.742919 90.781066 
L 300.067736 90.471734 
L 300.230144 90.678165 
L 300.392553 90.411133 
L 300.554961 90.388922 
L 300.71737 90.239789 
L 300.879778 90.312028 
L 301.204595 89.916867 
L 301.367004 89.687634 
L 302.016637 89.84831 
L 302.179046 89.591778 
L 302.341454 89.590451 
L 302.503863 89.767092 
L 302.666271 89.754681 
L 302.82868 89.465197 
L 302.991088 89.502985 
L 303.153497 89.359889 
L 303.315905 89.00402 
L 303.640722 89.216029 
L 303.965539 89.574585 
L 304.127948 89.478071 
L 304.290356 89.123502 
L 304.615173 89.48791 
L 305.102398 89.017977 
L 305.427215 89.22446 
L 305.589624 89.450237 
L 305.752032 89.327279 
L 305.914441 89.418592 
L 306.239258 89.153488 
L 306.401666 89.216431 
L 306.564075 89.070305 
L 306.726483 88.681599 
L 307.213709 89.253284 
L 307.376117 89.146858 
L 307.538526 89.329833 
L 307.700934 89.273298 
L 308.025751 89.517047 
L 308.512976 89.504765 
L 308.675385 89.310076 
L 309.000202 89.482154 
L 309.16261 89.370174 
L 309.325019 89.098879 
L 309.812244 89.346823 
L 310.137061 89.243484 
L 310.786695 89.923354 
L 310.949104 89.884812 
L 311.111512 90.120593 
L 311.436329 90.009282 
L 311.598738 89.979127 
L 311.761146 90.238149 
L 311.923555 90.144458 
L 312.248371 90.473978 
L 312.41078 90.420627 
L 312.735597 90.581985 
L 312.898005 90.221132 
L 313.060414 90.171476 
L 313.222822 89.989386 
L 313.385231 90.012593 
L 313.547639 89.823713 
L 314.52209 90.515239 
L 315.009316 90.116341 
L 315.171724 90.067838 
L 315.658949 90.492884 
L 315.821358 90.518138 
L 316.308583 90.916317 
L 316.470992 90.911676 
L 316.795809 90.692201 
L 316.958217 90.875523 
L 317.120626 90.769887 
L 317.445443 90.349013 
L 317.607851 90.274488 
L 317.77026 90.461878 
L 317.932668 90.24012 
L 318.095077 90.304471 
L 318.419894 90.02435 
L 318.582302 90.013438 
L 318.744711 90.174383 
L 318.907119 89.996755 
L 319.394344 90.581583 
L 319.88157 90.537169 
L 320.206387 90.164934 
L 320.368795 90.229146 
L 320.531204 90.166683 
L 320.693612 89.835285 
L 321.180838 90.163717 
L 321.343246 90.012169 
L 321.505655 90.270817 
L 321.668063 90.24234 
L 321.830472 90.373167 
L 322.317697 89.567806 
L 322.642514 89.455423 
L 322.804922 89.623809 
L 322.967331 89.350166 
L 323.129739 89.304912 
L 323.454556 88.950159 
L 323.941782 89.234515 
L 324.10419 89.118943 
L 324.266599 89.187186 
L 324.429007 89.428554 
L 324.591416 89.289131 
L 324.753824 89.350226 
L 324.916233 89.112424 
L 325.078641 89.140509 
L 325.24105 89.363253 
L 325.728275 88.908527 
L 325.890684 88.960446 
L 326.2155 88.883729 
L 326.540317 88.378928 
L 326.865134 88.553364 
L 327.189951 88.895847 
L 327.35236 88.737045 
L 327.514768 88.787494 
L 328.001994 88.55651 
L 328.489219 89.006792 
L 328.651628 88.839333 
L 328.814036 88.988853 
L 329.138853 88.930132 
L 329.301262 89.038893 
L 329.46367 88.859584 
L 329.626078 88.899247 
L 329.788487 88.767497 
L 329.950895 88.486036 
L 330.600529 88.753923 
L 331.087755 88.506453 
L 331.57498 88.536495 
L 331.899797 88.162924 
L 332.387023 88.478864 
L 332.549431 88.563563 
L 333.036657 88.065395 
L 333.848699 88.014509 
L 334.011107 88.178216 
L 334.498333 88.09308 
L 334.985558 87.763416 
L 335.310375 88.080867 
L 335.635192 88.414158 
L 336.284826 88.03637 
L 336.447235 87.89303 
L 336.609643 87.926478 
L 336.93446 87.612969 
L 337.259277 87.499913 
L 337.421685 87.673905 
L 337.584094 87.644594 
L 337.908911 87.711617 
L 338.720953 87.245218 
L 338.883362 87.191943 
L 339.208179 87.353078 
L 339.370587 87.383216 
L 339.857813 87.869491 
L 340.020221 87.726673 
L 340.669855 88.040207 
L 340.832263 88.067667 
L 341.481897 88.581808 
L 341.644306 88.352349 
L 342.131531 88.8235 
L 342.29394 88.790731 
L 342.456348 88.618595 
L 342.781165 88.671423 
L 342.943574 88.644973 
L 343.268391 88.840587 
L 343.755616 88.355728 
L 344.080433 88.547767 
L 344.730067 88.574379 
L 344.892475 88.737846 
L 345.217292 88.379433 
L 346.029335 88.479673 
L 346.191743 88.672045 
L 346.678969 88.591468 
L 346.841377 88.779692 
L 347.328602 88.833993 
L 347.491011 89.047315 
L 347.653419 88.940752 
L 347.815828 89.095741 
L 348.140645 88.733183 
L 348.303053 88.723817 
L 348.465462 88.868122 
L 348.62787 88.785282 
L 348.790279 88.88849 
L 349.115096 88.682438 
L 349.277504 88.558097 
L 349.602321 88.601003 
L 349.76473 88.766673 
L 350.089547 88.744769 
L 350.414364 89.056386 
L 350.73918 88.735115 
L 351.063997 88.595887 
L 351.226406 88.422387 
L 351.388814 88.508753 
L 351.551223 88.34369 
L 351.713631 88.492237 
L 352.363265 88.359014 
L 352.525674 88.521807 
L 352.688082 88.436824 
L 353.175308 88.58465 
L 353.337716 88.770823 
L 353.500125 88.678939 
L 353.824942 88.952827 
L 353.98735 88.831894 
L 354.799392 89.302118 
L 354.961801 89.10844 
L 355.449026 89.418441 
L 355.611435 89.047201 
L 355.936252 89.476417 
L 356.261069 89.047845 
L 356.423477 88.850611 
L 356.910703 89.277027 
L 357.397928 89.17037 
L 357.560337 89.378549 
L 357.722745 89.109676 
L 358.047562 89.249641 
L 358.20997 89.476306 
L 358.534787 89.391365 
L 358.697196 89.521596 
L 358.859604 89.345135 
L 359.184421 89.289047 
L 359.34683 89.231018 
L 359.671647 89.248459 
L 359.834055 89.26798 
L 360.321281 89.63586 
L 360.646098 89.652771 
L 360.970915 89.992532 
L 361.133323 90.03939 
L 361.295732 89.943935 
L 361.45814 90.162209 
L 362.107774 90.110895 
L 362.432591 90.101107 
L 362.919816 90.66276 
L 363.56945 90.281155 
L 363.731859 90.377999 
L 364.381493 89.917892 
L 364.543901 90.040831 
L 364.868718 89.797915 
L 365.031126 89.925868 
L 365.193535 89.75225 
L 365.518352 89.856315 
L 365.68076 89.675639 
L 365.843169 89.82155 
L 366.492803 89.771167 
L 366.980028 90.291165 
L 367.792071 89.902366 
L 367.954479 90.099743 
L 368.116888 89.980956 
L 368.279296 90.082868 
L 368.441704 89.973503 
L 368.604113 90.069237 
L 368.766521 90.026182 
L 368.92893 89.814785 
L 369.416155 90.069773 
L 369.578564 89.991045 
L 369.740972 90.217669 
L 370.065789 89.942933 
L 370.390606 90.15411 
L 370.715423 90.025301 
L 370.877832 89.721724 
L 371.04024 89.859402 
L 371.202649 89.780082 
L 371.365057 89.978125 
L 371.689874 89.768423 
L 372.014691 89.727336 
L 373.15155 90.00954 
L 373.313959 89.874662 
L 373.638776 90.152511 
L 373.963593 90.292139 
L 374.126001 90.393542 
L 374.28841 90.627528 
L 374.450818 90.44172 
L 374.613227 90.594867 
L 375.262861 90.290238 
L 375.425269 90.199283 
L 375.587677 90.335568 
L 375.750086 90.216028 
L 375.912494 90.310837 
L 376.074903 90.100847 
L 376.237311 90.103337 
L 376.562128 90.255625 
L 376.724537 90.136344 
L 377.049354 90.402998 
L 377.211762 90.232247 
L 377.861396 90.512269 
L 378.348622 90.822726 
L 378.51103 90.721924 
L 378.673439 90.890766 
L 378.998255 90.725854 
L 379.810298 91.01704 
L 380.135115 90.830005 
L 380.459932 90.955552 
L 380.947157 90.894501 
L 381.271974 91.154229 
L 381.596791 91.157037 
L 381.921608 91.463874 
L 382.408834 91.257466 
L 382.73365 91.184442 
L 382.896059 91.308773 
L 383.058467 91.227667 
L 383.220876 91.405634 
L 383.545693 91.343059 
L 383.708101 91.280466 
L 384.032918 91.498496 
L 384.195327 91.280952 
L 385.007369 91.535665 
L 385.332186 91.37511 
L 385.657003 91.663937 
L 385.819412 91.642166 
L 386.306637 91.99907 
L 386.469045 91.810598 
L 386.956271 91.926443 
L 387.118679 91.791395 
L 387.281088 91.877568 
L 387.443496 91.662296 
L 387.605905 91.714061 
L 387.768313 91.639706 
L 387.930722 91.785956 
L 388.255539 91.592003 
L 388.417947 91.627381 
L 388.580356 91.521594 
L 388.905173 91.634644 
L 389.22999 91.800845 
L 389.554806 91.97943 
L 389.879623 91.697215 
L 390.042032 91.825406 
L 390.529257 91.412143 
L 390.691666 91.497062 
L 391.178891 91.36577 
L 391.828525 91.375498 
L 392.153342 91.472065 
L 392.315751 91.30012 
L 392.478159 91.401528 
L 392.965385 91.192167 
L 393.127793 91.357003 
L 393.615018 91.287238 
L 394.102244 91.071346 
L 394.427061 91.294773 
L 394.589469 91.393323 
L 394.751878 91.219636 
L 394.914286 91.356185 
L 395.401512 91.08288 
L 395.56392 91.133821 
L 395.888737 90.935646 
L 396.538371 91.040532 
L 396.700779 90.840274 
L 397.025596 90.850812 
L 397.188005 90.605386 
L 397.350413 90.643348 
L 397.67523 90.418628 
L 398.000047 90.26489 
L 398.487273 89.632925 
L 398.487273 89.632925 
" clip-path="url(#p910be8b829)" style="fill: none; stroke-dasharray: 2,3.3; stroke-dashoffset: 0; stroke: #0000ff; stroke-width: 2"/>
   </g>
   <g id="line2d_16">
    <path d="M 73.832727 295.488 
L 74.319953 142.80586 
L 74.482361 111.743582 
L 74.64477 163.614828 
L 74.807178 161.618374 
L 74.969587 150.603132 
L 75.131995 167.450541 
L 75.294404 155.989038 
L 75.619221 117.152564 
L 75.781629 118.255803 
L 76.106446 70.109371 
L 76.268854 56.616273 
L 76.75608 77.56131 
L 77.080897 89.47428 
L 77.405714 71.593353 
L 77.568122 74.674855 
L 77.730531 75.595639 
L 77.892939 58.684655 
L 78.217756 77.863765 
L 78.380165 83.034544 
L 78.542573 79.279039 
L 78.704982 85.103825 
L 78.86739 85.287655 
L 79.029799 69.215291 
L 79.192207 67.665333 
L 79.354615 53.568 
L 79.517024 55.812473 
L 79.841841 62.704647 
L 80.004249 59.290367 
L 80.166658 65.119485 
L 80.329066 61.062547 
L 80.491475 67.91156 
L 80.816292 58.174534 
L 81.141109 75.231824 
L 81.303517 73.662206 
L 81.465926 73.211853 
L 81.628334 73.093095 
L 81.790743 80.460177 
L 81.953151 80.141332 
L 82.11556 75.759402 
L 82.277968 75.567464 
L 82.440377 73.338105 
L 82.765194 62.901099 
L 82.927602 63.567986 
L 83.739644 84.848781 
L 83.902053 84.157029 
L 84.064461 84.273314 
L 84.22687 87.259704 
L 84.389278 83.572212 
L 84.714095 91.75698 
L 85.201321 98.751909 
L 85.526138 89.661904 
L 85.688546 95.25356 
L 85.850955 94.21115 
L 86.013363 97.557797 
L 86.175772 92.097454 
L 86.33818 92.68964 
L 86.500588 96.366295 
L 86.662997 93.161845 
L 86.825405 95.788555 
L 87.150222 89.587939 
L 87.475039 89.093461 
L 87.962265 83.380997 
L 88.124673 88.123066 
L 88.287082 89.249814 
L 88.44949 89.014615 
L 88.774307 91.851549 
L 88.936716 92.078085 
L 89.423941 84.444744 
L 89.58635 86.109445 
L 89.748758 89.55159 
L 90.073575 86.021163 
L 90.235983 85.051972 
L 90.5608 88.925462 
L 90.723209 86.77712 
L 90.885617 86.777058 
L 91.048026 85.430753 
L 91.210434 87.989675 
L 91.372843 85.815524 
L 91.535251 88.93174 
L 91.69766 86.982191 
L 92.022477 88.906668 
L 92.184885 88.748461 
L 92.347294 88.186484 
L 92.509702 89.99995 
L 92.672111 87.239452 
L 92.834519 89.817495 
L 92.996928 87.660038 
L 93.159336 87.613152 
L 93.321745 86.145733 
L 93.971378 91.929007 
L 94.133787 91.418103 
L 94.296195 93.26284 
L 94.458604 91.346919 
L 94.783421 94.483735 
L 94.945829 94.485131 
L 95.108238 94.951637 
L 95.270646 97.434563 
L 95.595463 92.961126 
L 95.757872 91.512849 
L 95.92028 91.182696 
L 96.082689 91.250444 
L 96.245097 91.843308 
L 96.569914 94.14231 
L 96.732323 94.422869 
L 96.894731 95.863058 
L 97.381956 90.617283 
L 97.544365 91.717662 
L 97.869182 92.409586 
L 98.03159 92.924537 
L 98.356407 89.087753 
L 98.518816 91.586558 
L 98.681224 88.177222 
L 98.843633 88.510222 
L 99.006041 89.218853 
L 99.16845 87.473025 
L 99.493267 90.023602 
L 99.655675 89.191489 
L 99.818084 89.755784 
L 99.980492 89.857718 
L 100.142901 90.509244 
L 100.305309 89.563357 
L 100.467717 89.549217 
L 100.954943 94.483534 
L 101.117351 92.636538 
L 101.27976 93.092945 
L 101.442168 94.084157 
L 101.604577 94.1679 
L 101.766985 93.803727 
L 101.929394 95.351963 
L 102.091802 92.377848 
L 102.254211 92.180489 
L 102.416619 92.600776 
L 102.741436 96.519111 
L 102.903845 96.149575 
L 103.066253 97.239602 
L 103.228662 97.156846 
L 103.39107 97.270457 
L 103.553479 99.439783 
L 103.715887 98.935373 
L 103.878296 99.052816 
L 104.040704 98.671158 
L 104.203112 99.915482 
L 104.365521 98.410895 
L 104.527929 98.584929 
L 104.690338 95.962907 
L 104.852746 96.81418 
L 105.177563 99.690702 
L 105.339972 99.047527 
L 105.50238 97.832188 
L 105.664789 98.062515 
L 105.827197 99.264352 
L 105.989606 97.326199 
L 106.152014 97.896804 
L 106.314423 96.721513 
L 106.476831 96.889791 
L 106.63924 96.592655 
L 106.801648 94.84819 
L 106.964057 95.650271 
L 107.126465 94.450534 
L 107.451282 96.355302 
L 107.61369 95.913751 
L 107.776099 97.474864 
L 108.100916 96.948563 
L 108.263324 95.693954 
L 108.425733 95.794134 
L 108.588141 96.155784 
L 109.075367 99.444184 
L 109.237775 101.005482 
L 109.400184 100.074592 
L 109.562592 100.575113 
L 109.725001 99.795524 
L 109.887409 99.887705 
L 110.049818 100.844325 
L 110.212226 100.266333 
L 110.374635 98.617164 
L 110.537043 98.152662 
L 111.024268 99.453227 
L 111.511494 103.149619 
L 111.673902 103.296892 
L 111.836311 102.303242 
L 111.998719 102.209073 
L 112.161128 103.782348 
L 112.323536 102.56639 
L 112.485945 102.929623 
L 112.648353 104.195719 
L 112.97317 103.427572 
L 113.135579 103.361942 
L 113.460396 105.78806 
L 113.622804 104.599589 
L 113.785213 104.886987 
L 113.947621 103.146147 
L 114.434847 101.722716 
L 114.597255 101.905297 
L 114.922072 103.455069 
L 115.08448 103.364125 
L 115.246889 102.051605 
L 115.409297 102.242128 
L 115.571706 102.76825 
L 115.734114 103.672897 
L 115.896523 102.158785 
L 116.058931 102.124155 
L 116.22134 101.957982 
L 116.546157 100.289401 
L 116.708565 101.124322 
L 116.870974 99.926989 
L 117.195791 99.641787 
L 117.358199 99.230516 
L 117.520608 99.85918 
L 117.845425 102.223318 
L 118.007833 101.971644 
L 118.495058 98.750577 
L 118.657467 98.018493 
L 118.819875 97.87878 
L 119.144692 99.268743 
L 119.307101 98.715217 
L 119.469509 99.445297 
L 119.631918 99.622325 
L 119.794326 98.541457 
L 119.956735 98.467405 
L 120.119143 98.563911 
L 120.281552 97.447173 
L 120.606369 99.239932 
L 120.768777 98.191557 
L 120.931186 97.99467 
L 121.093594 98.195209 
L 121.256003 98.068074 
L 121.418411 98.428034 
L 121.58082 97.6975 
L 121.743228 98.442096 
L 122.068045 96.674741 
L 122.392862 98.304764 
L 122.55527 98.242724 
L 122.717679 97.142602 
L 122.880087 97.424107 
L 123.042496 97.224238 
L 123.204904 97.951446 
L 123.529721 95.434108 
L 123.69213 95.844892 
L 123.854538 96.642836 
L 124.016947 95.942281 
L 124.179355 97.033394 
L 124.504172 95.759726 
L 124.666581 96.837876 
L 124.991398 96.011781 
L 125.316214 96.19775 
L 125.478623 97.273328 
L 125.641031 97.026855 
L 125.965848 95.752207 
L 126.290665 96.686549 
L 126.453074 95.777036 
L 126.615482 95.88249 
L 126.777891 95.34221 
L 127.102708 96.4348 
L 127.265116 95.738943 
L 127.427525 96.294173 
L 127.589933 96.168935 
L 127.752342 96.886401 
L 127.91475 96.142631 
L 128.077159 96.148111 
L 128.401976 98.044727 
L 128.564384 97.788905 
L 128.726792 97.84483 
L 128.889201 97.159297 
L 129.051609 98.228362 
L 129.214018 97.000779 
L 129.376426 97.894481 
L 129.538835 97.888263 
L 129.701243 98.07303 
L 129.863652 98.084457 
L 130.02606 98.483289 
L 130.350877 97.410284 
L 130.513286 98.151807 
L 130.838103 96.609325 
L 131.000511 97.422297 
L 131.16292 97.50861 
L 131.325328 97.055418 
L 131.487737 97.44473 
L 131.650145 97.385943 
L 131.812554 96.881703 
L 131.974962 97.054484 
L 132.299779 96.458575 
L 132.624596 97.822667 
L 132.787004 97.984152 
L 132.949413 98.894971 
L 133.111821 97.729091 
L 133.436638 97.204336 
L 133.599047 97.388953 
L 133.761455 98.338775 
L 133.923864 98.277655 
L 134.086272 98.645356 
L 134.248681 98.705253 
L 134.411089 99.115265 
L 134.735906 97.411752 
L 134.898315 96.374683 
L 135.060723 97.256293 
L 135.38554 96.99743 
L 135.547949 97.157369 
L 135.710357 96.25045 
L 135.872765 96.562652 
L 136.035174 96.474124 
L 136.197582 96.122373 
L 136.359991 96.071339 
L 136.522399 97.086296 
L 136.684808 96.920335 
L 136.847216 96.395713 
L 137.009625 96.369245 
L 137.172033 95.448567 
L 137.334442 95.856913 
L 137.49685 95.813087 
L 137.821667 96.833849 
L 137.984076 96.73607 
L 138.146484 97.109801 
L 138.63371 95.864267 
L 138.958527 96.210036 
L 139.120935 95.927119 
L 139.283343 96.245584 
L 139.445752 96.207162 
L 139.770569 95.602627 
L 140.095386 96.746029 
L 140.582611 96.018471 
L 140.74502 96.097163 
L 140.907428 96.319278 
L 141.232245 97.755979 
L 141.394654 98.376422 
L 141.557062 98.168121 
L 141.881879 96.874183 
L 142.044288 96.914836 
L 142.206696 96.09994 
L 142.369105 96.234142 
L 142.531513 95.331573 
L 142.693922 95.410401 
L 143.018738 94.073165 
L 143.181147 94.139974 
L 143.343555 94.890686 
L 143.505964 94.245152 
L 143.830781 94.041794 
L 143.993189 93.392752 
L 144.318006 93.709362 
L 144.480415 93.525642 
L 144.642823 93.05443 
L 144.805232 93.257549 
L 145.130049 93.12986 
L 145.779683 90.802357 
L 145.942091 90.577762 
L 146.1045 90.007342 
L 146.266908 90.007976 
L 146.591725 89.261034 
L 146.754133 89.26477 
L 146.916542 89.634639 
L 147.07895 89.58336 
L 147.241359 90.081621 
L 147.403767 89.233606 
L 147.566176 89.133031 
L 147.890993 90.268427 
L 148.053401 90.303661 
L 148.378218 90.684603 
L 148.540627 89.96024 
L 148.703035 90.807802 
L 148.865444 90.090076 
L 149.190261 91.021523 
L 149.352669 90.547383 
L 149.515078 90.759094 
L 149.839894 90.370449 
L 150.164711 88.953325 
L 150.32712 89.10492 
L 150.651937 90.513391 
L 150.814345 90.171238 
L 150.976754 90.448728 
L 151.139162 91.141967 
L 151.301571 90.926962 
L 151.463979 90.956408 
L 151.788796 90.054463 
L 152.113613 89.683096 
L 152.43843 90.336504 
L 152.763247 90.514162 
L 152.925656 90.257807 
L 153.088064 90.920631 
L 153.412881 90.063046 
L 153.900106 90.549358 
L 154.062515 90.48057 
L 154.224923 90.261318 
L 154.54974 91.001073 
L 154.712149 91.071983 
L 154.874557 90.524106 
L 155.036966 90.853518 
L 155.199374 90.715315 
L 155.361783 91.26676 
L 155.524191 90.700332 
L 155.6866 91.157032 
L 155.849008 91.00506 
L 156.011417 91.046216 
L 156.336234 90.102348 
L 156.498642 90.371965 
L 156.661051 89.988063 
L 156.823459 90.301461 
L 157.148276 89.236763 
L 157.310684 89.670537 
L 157.473093 89.737115 
L 157.635501 90.198975 
L 157.960318 89.549168 
L 158.447544 90.886803 
L 158.609952 90.492579 
L 158.772361 90.675682 
L 158.934769 89.959991 
L 159.097178 89.998648 
L 159.259586 89.867649 
L 159.421995 90.511806 
L 159.584403 89.462253 
L 159.746812 90.0604 
L 160.234037 87.65655 
L 160.558854 88.003523 
L 160.721262 88.623206 
L 160.883671 88.194818 
L 161.046079 88.136184 
L 161.370896 87.540126 
L 161.533305 88.153278 
L 161.858122 87.456345 
L 162.02053 86.967113 
L 162.182939 87.160523 
L 162.507756 88.024174 
L 162.994981 87.827904 
L 163.15739 87.362767 
L 163.482207 87.728006 
L 163.644615 87.235424 
L 163.807024 87.457426 
L 163.969432 87.240352 
L 164.13184 87.507888 
L 164.294249 87.059019 
L 164.619066 87.482818 
L 164.781474 87.669018 
L 164.943883 87.52539 
L 165.431108 88.407039 
L 165.593517 88.096665 
L 165.755925 88.425669 
L 165.918334 87.912309 
L 166.080742 87.965411 
L 166.243151 88.136854 
L 166.567968 89.155993 
L 166.730376 88.873124 
L 166.892785 88.875968 
L 167.055193 89.455442 
L 167.217602 89.392774 
L 167.38001 89.751894 
L 167.704827 89.630436 
L 167.867235 90.157626 
L 168.192052 88.945829 
L 168.354461 88.746719 
L 168.516869 89.160861 
L 168.679278 88.691755 
L 168.841686 88.796831 
L 169.004095 89.482847 
L 169.166503 89.206744 
L 169.328912 89.23112 
L 169.653729 90.270764 
L 169.978546 89.721544 
L 170.140954 89.140679 
L 170.303363 89.690144 
L 170.952996 88.711891 
L 171.115405 88.797443 
L 171.277813 88.651982 
L 171.440222 88.235837 
L 171.60263 88.677445 
L 171.765039 88.394642 
L 172.089856 88.54398 
L 172.252264 88.370974 
L 172.414673 88.903699 
L 172.73949 88.255649 
L 172.901898 88.024784 
L 173.064307 88.294046 
L 173.226715 88.922098 
L 173.389124 88.922481 
L 173.551532 88.337343 
L 173.713941 88.912112 
L 173.876349 88.922067 
L 174.038758 89.569829 
L 174.201166 89.279497 
L 174.363575 89.40339 
L 174.8508 87.881767 
L 175.175617 88.550954 
L 175.825251 87.572135 
L 176.150068 88.726417 
L 176.312476 88.671018 
L 176.474885 88.256029 
L 176.799702 88.417703 
L 176.96211 87.996139 
L 177.124519 87.20786 
L 177.286927 87.710777 
L 177.449336 87.528417 
L 177.611744 87.136383 
L 177.774153 87.361471 
L 177.936561 86.959764 
L 178.098969 86.896783 
L 178.261378 87.128591 
L 178.423786 86.7998 
L 178.586195 86.997751 
L 178.748603 86.998347 
L 178.911012 87.442544 
L 179.07342 87.052973 
L 179.235829 87.022785 
L 179.398237 87.223493 
L 179.723054 88.093707 
L 179.885463 87.552931 
L 180.21028 88.339748 
L 180.372688 88.587045 
L 180.697505 88.662479 
L 180.859914 89.141984 
L 181.022322 88.879917 
L 181.184731 88.91782 
L 181.509548 89.518266 
L 181.671956 89.743431 
L 181.996773 90.492398 
L 182.159181 90.573235 
L 182.32159 89.926724 
L 182.646407 91.05199 
L 182.971224 89.805298 
L 183.296041 90.215993 
L 183.620858 89.628296 
L 183.783266 90.009901 
L 183.945675 90.012519 
L 184.4329 88.953401 
L 184.757717 89.782724 
L 184.920126 89.947127 
L 185.082534 90.364485 
L 185.732168 89.336807 
L 185.894576 89.34028 
L 186.219393 89.916571 
L 186.706619 89.155804 
L 186.869027 89.206797 
L 187.031436 89.041014 
L 187.193844 89.319186 
L 187.356253 88.735625 
L 188.005887 89.826617 
L 188.168295 89.899277 
L 188.493112 90.399001 
L 188.65552 90.075433 
L 188.817929 90.038965 
L 188.980337 90.617631 
L 189.142746 90.684094 
L 189.305154 90.403897 
L 189.629971 90.544763 
L 189.954788 90.617278 
L 190.117197 90.800596 
L 190.604422 91.708129 
L 190.929239 91.239997 
L 191.091648 90.584098 
L 191.416465 90.44346 
L 191.741282 90.477836 
L 191.90369 90.090022 
L 192.553324 91.231975 
L 192.878141 90.500489 
L 193.365366 91.271493 
L 193.852592 90.491412 
L 194.015 90.528201 
L 194.339817 91.196769 
L 194.502226 90.650042 
L 194.664634 90.559888 
L 194.827043 90.925651 
L 195.963902 88.857756 
L 196.12631 88.772016 
L 196.451127 88.321683 
L 196.938353 88.249084 
L 197.100761 88.631256 
L 197.26317 88.541641 
L 197.425578 88.201442 
L 197.587987 88.211806 
L 197.750395 88.424705 
L 197.912804 88.286374 
L 198.075212 88.354755 
L 198.237621 88.111516 
L 198.562438 88.419428 
L 198.724846 88.256548 
L 198.887255 88.472118 
L 199.049663 88.242765 
L 199.699297 88.921174 
L 199.861705 89.052969 
L 200.186522 88.255487 
L 200.348931 88.61749 
L 200.673748 88.031868 
L 200.836156 88.007838 
L 200.998565 88.107102 
L 201.323382 88.662255 
L 201.810607 87.967885 
L 201.973016 87.996719 
L 202.135424 88.406225 
L 202.297833 88.264085 
L 202.785058 87.406653 
L 203.109875 87.496612 
L 203.272283 87.703612 
L 203.434692 87.449322 
L 203.5971 87.498742 
L 203.921917 87.119705 
L 204.084326 87.218168 
L 204.409143 87.922652 
L 204.571551 87.517903 
L 205.221185 87.271145 
L 205.383594 87.520568 
L 205.546002 87.501215 
L 205.708411 87.236298 
L 206.358044 88.53452 
L 206.520453 88.61873 
L 207.007678 87.941798 
L 207.170087 87.843814 
L 207.657312 88.284578 
L 207.982129 87.722552 
L 208.306946 87.981988 
L 208.469355 87.64913 
L 208.631763 87.726397 
L 208.794172 87.988492 
L 208.95658 87.977165 
L 209.118989 87.843748 
L 209.768622 88.098696 
L 209.931031 87.906167 
L 210.255848 88.268006 
L 210.580665 88.280283 
L 211.06789 88.920338 
L 211.392707 89.103814 
L 211.555116 88.708566 
L 211.717524 88.7571 
L 211.879933 88.953509 
L 212.042341 88.751897 
L 212.20475 88.87176 
L 212.367158 88.811549 
L 212.854384 89.751107 
L 213.016792 89.778222 
L 213.179201 90.161975 
L 213.341609 90.225278 
L 213.666426 89.567128 
L 213.828834 89.684751 
L 214.153651 89.244007 
L 214.803285 90.223991 
L 214.965694 90.419739 
L 215.290511 89.96257 
L 215.452919 90.451017 
L 215.777736 89.986691 
L 215.940145 90.20284 
L 216.102553 89.95499 
L 216.264962 89.93438 
L 216.42737 89.576586 
L 216.752187 89.7837 
L 216.914595 89.700333 
L 217.239412 89.934542 
L 217.401821 89.561155 
L 217.726638 90.012849 
L 217.889046 90.114209 
L 218.051455 89.793472 
L 218.376272 90.445519 
L 218.53868 90.524691 
L 218.701089 90.396034 
L 219.025906 89.657692 
L 219.350723 90.055952 
L 219.513131 90.001282 
L 219.837948 89.338721 
L 220.000357 89.051752 
L 220.162765 89.100715 
L 221.137216 90.595281 
L 221.299624 90.613343 
L 221.462033 90.90029 
L 221.624441 90.954269 
L 221.78685 90.746626 
L 221.949258 90.799925 
L 222.111667 90.970666 
L 222.436484 90.402544 
L 222.761301 90.521299 
L 222.923709 90.020964 
L 223.086118 90.059253 
L 223.410935 90.33846 
L 223.573343 90.336088 
L 223.735752 90.608776 
L 223.89816 90.488906 
L 224.060568 90.630701 
L 224.385385 91.315072 
L 224.547794 91.327043 
L 224.710202 91.721766 
L 225.197428 90.888718 
L 225.359836 91.283813 
L 225.522245 90.665632 
L 225.684653 90.619305 
L 225.847062 90.342082 
L 226.00947 90.703629 
L 226.171879 90.612294 
L 226.496696 91.283682 
L 226.659104 90.770411 
L 226.821513 90.942397 
L 227.14633 90.468624 
L 227.471146 91.124403 
L 227.633555 90.950048 
L 227.795963 90.966607 
L 227.958372 91.15527 
L 228.12078 90.895103 
L 228.608006 91.483917 
L 228.932823 90.855499 
L 229.095231 90.997171 
L 229.420048 91.603709 
L 229.744865 91.96566 
L 229.907274 91.854425 
L 230.394499 92.712179 
L 230.556908 92.819508 
L 230.881724 92.527387 
L 231.36895 93.107623 
L 231.856175 92.5584 
L 232.180992 93.243605 
L 232.505809 93.423154 
L 232.668218 93.266509 
L 232.830626 93.628686 
L 232.993035 93.445257 
L 233.155443 93.460808 
L 233.317852 93.634583 
L 233.48026 93.520428 
L 233.967486 92.642226 
L 234.292303 93.077448 
L 234.617119 92.84868 
L 234.941936 92.082051 
L 235.59157 92.016861 
L 235.753979 92.254448 
L 236.078796 91.723992 
L 236.241204 91.698201 
L 236.403613 92.134666 
L 236.566021 92.191771 
L 236.72843 91.778572 
L 236.890838 91.687942 
L 237.053247 91.914255 
L 237.215655 91.915021 
L 237.540472 91.34225 
L 237.702881 91.413243 
L 237.865289 91.351482 
L 238.190106 91.817778 
L 238.514923 91.205301 
L 239.002148 91.537845 
L 239.164557 91.539994 
L 239.651782 90.417308 
L 239.814191 90.589522 
L 239.976599 90.308297 
L 240.626233 90.997098 
L 240.95105 90.403957 
L 241.113459 90.260084 
L 241.275867 89.944431 
L 241.438276 89.988854 
L 241.600684 89.734341 
L 241.925501 90.005116 
L 242.737543 90.994226 
L 242.899952 90.865552 
L 243.06236 91.186068 
L 243.224769 91.239475 
L 243.387177 90.930558 
L 243.549586 91.09204 
L 243.874403 91.609738 
L 244.036811 91.516809 
L 244.19922 91.693777 
L 244.361628 91.562976 
L 245.17367 92.612745 
L 245.336079 92.410445 
L 245.660896 92.560953 
L 245.823304 92.857675 
L 246.148121 92.544184 
L 246.472938 92.777313 
L 246.797755 93.135285 
L 247.284981 92.827332 
L 247.609798 93.483406 
L 248.097023 93.972266 
L 248.259432 94.198473 
L 248.584248 93.774311 
L 248.909065 94.47081 
L 249.883516 93.769185 
L 250.045925 94.110089 
L 250.208333 94.002355 
L 250.695559 94.653273 
L 251.182784 94.323772 
L 251.345193 94.043907 
L 251.67001 94.511239 
L 251.832418 94.246394 
L 251.994827 94.374623 
L 252.319643 94.254501 
L 252.482052 94.231342 
L 252.64446 93.935503 
L 253.131686 94.561328 
L 253.294094 94.543064 
L 253.618911 94.872482 
L 253.78132 94.867478 
L 254.106137 94.516132 
L 254.430954 94.617772 
L 254.918179 95.240639 
L 255.242996 94.84021 
L 255.405405 95.013502 
L 255.89263 94.426606 
L 256.055038 94.800075 
L 256.217447 94.510991 
L 256.379855 94.695063 
L 256.704672 94.636308 
L 256.867081 94.424157 
L 257.029489 94.421392 
L 257.191898 94.191723 
L 257.354306 94.156893 
L 257.516715 93.976612 
L 257.679123 93.987113 
L 257.841532 93.809846 
L 258.00394 93.455897 
L 258.166349 93.378892 
L 258.328757 93.147173 
L 258.815983 93.36623 
L 259.140799 92.971556 
L 259.303208 93.061321 
L 259.628025 92.776778 
L 259.952842 92.90598 
L 260.277659 92.619722 
L 260.440067 92.923901 
L 260.927293 92.810402 
L 261.414518 93.12003 
L 261.901744 92.666675 
L 262.226561 92.790573 
L 262.551378 92.325095 
L 262.713786 92.53226 
L 263.201011 92.339756 
L 263.36342 92.581372 
L 263.525828 92.594095 
L 263.688237 92.755344 
L 263.850645 92.569875 
L 264.175462 92.629115 
L 264.337871 92.463036 
L 264.500279 92.510555 
L 264.662688 92.763674 
L 264.987505 92.268949 
L 265.637139 92.787737 
L 265.799547 92.562317 
L 265.961956 92.776456 
L 266.286772 92.447241 
L 266.449181 92.607732 
L 266.611589 92.388845 
L 266.773998 92.427953 
L 267.261223 91.876507 
L 267.910857 91.531042 
L 268.073266 91.834382 
L 268.235674 91.737769 
L 268.398083 91.946904 
L 268.7229 91.90102 
L 268.885308 92.002983 
L 269.210125 91.790376 
L 269.372534 91.795729 
L 269.534942 91.67281 
L 269.69735 91.926073 
L 269.859759 91.752483 
L 270.022167 92.00441 
L 270.184576 91.718774 
L 270.346984 91.871361 
L 270.509393 91.797409 
L 270.671801 91.585944 
L 270.83421 91.604319 
L 270.996618 91.759524 
L 271.321435 92.361072 
L 271.646252 92.050444 
L 271.808661 91.887314 
L 271.971069 91.959666 
L 272.133478 91.740107 
L 272.295886 91.785886 
L 272.458295 91.53647 
L 272.783112 91.573443 
L 272.94552 91.668887 
L 273.107929 91.47974 
L 273.270337 91.76828 
L 273.432745 91.459712 
L 274.082379 91.459292 
L 274.407196 91.774302 
L 274.894422 92.191644 
L 275.05683 91.851618 
L 275.219239 91.908072 
L 275.706464 91.337273 
L 275.868873 91.586525 
L 276.031281 91.231361 
L 276.19369 91.472609 
L 276.356098 91.246027 
L 277.16814 91.417963 
L 277.330549 91.613187 
L 277.655366 91.407055 
L 277.817774 91.197843 
L 278.142591 91.482384 
L 278.792225 91.946609 
L 278.954634 92.28961 
L 279.117042 92.139739 
L 279.279451 91.750729 
L 279.766676 92.052801 
L 279.929085 91.760622 
L 280.091493 92.057951 
L 280.741127 92.207536 
L 281.390761 91.64563 
L 281.553169 91.792154 
L 281.715578 91.706003 
L 281.877986 91.84884 
L 282.040395 91.497644 
L 282.202803 91.505089 
L 282.365212 91.751439 
L 282.52762 91.549178 
L 282.852437 91.752153 
L 283.177254 91.503458 
L 283.339663 91.692147 
L 283.502071 91.507831 
L 283.826888 91.532189 
L 283.989296 91.448392 
L 284.151705 91.088682 
L 284.476522 91.41695 
L 284.63893 91.473581 
L 284.801339 91.401189 
L 284.963747 91.164336 
L 285.126156 91.168146 
L 285.288564 91.056755 
L 285.613381 91.384861 
L 286.425424 90.595942 
L 286.912649 90.735867 
L 287.562283 90.290562 
L 287.8871 90.76963 
L 288.049508 90.790714 
L 288.211917 90.520466 
L 289.186368 90.599286 
L 289.511185 90.951552 
L 289.673593 90.751663 
L 289.836002 90.953106 
L 290.323227 90.804651 
L 290.972861 91.647819 
L 291.297678 91.2791 
L 291.460086 91.439417 
L 291.622495 91.318148 
L 291.784903 91.547201 
L 291.947312 91.467023 
L 292.272129 91.901519 
L 292.434537 91.924296 
L 292.759354 92.49065 
L 293.084171 92.694508 
L 293.24658 92.462242 
L 293.408988 92.662525 
L 293.571397 92.543895 
L 293.733805 92.17306 
L 293.896214 92.085461 
L 294.058622 92.162419 
L 294.221031 91.869545 
L 294.545847 92.188521 
L 294.870664 92.201897 
L 295.033073 92.425975 
L 295.195481 92.419072 
L 295.35789 92.073749 
L 295.682707 92.308669 
L 295.845115 92.490973 
L 296.007524 92.442063 
L 296.169932 92.533915 
L 296.494749 92.147903 
L 296.981975 92.466177 
L 297.306792 92.153371 
L 297.4692 92.144456 
L 297.631609 91.958042 
L 297.956425 92.11718 
L 298.118834 92.024742 
L 298.281242 92.300659 
L 298.443651 92.346997 
L 298.768468 91.995156 
L 299.093285 92.092866 
L 299.255693 92.326325 
L 299.58051 91.92925 
L 299.742919 92.162319 
L 300.067736 91.851005 
L 300.230144 92.056449 
L 300.392553 91.788429 
L 300.554961 91.765232 
L 300.71737 91.615114 
L 300.879778 91.68637 
L 301.204595 91.289248 
L 301.367004 91.059036 
L 302.016637 91.215809 
L 302.179046 90.958306 
L 302.341454 90.956009 
L 302.503863 91.131681 
L 302.666271 91.118301 
L 302.82868 90.827851 
L 302.991088 90.864674 
L 303.153497 90.720614 
L 303.315905 90.363783 
L 303.640722 90.573872 
L 303.965539 90.930513 
L 304.127948 90.833043 
L 304.290356 90.477519 
L 304.615173 90.840023 
L 305.102398 90.367244 
L 305.427215 90.571836 
L 305.589624 90.796669 
L 305.752032 90.672768 
L 305.914441 90.763141 
L 306.239258 90.496159 
L 306.401666 90.558165 
L 306.564075 90.411104 
L 306.726483 90.021463 
L 307.213709 90.590353 
L 307.376117 90.482998 
L 307.538526 90.665045 
L 307.700934 90.607583 
L 308.025751 90.849483 
L 308.512976 90.834437 
L 308.675385 90.638828 
L 309.000202 90.809072 
L 309.16261 90.696178 
L 309.325019 90.423969 
L 309.812244 90.669178 
L 310.137061 90.564023 
L 310.786695 91.240275 
L 310.949104 91.200831 
L 311.111512 91.435712 
L 311.436329 91.322605 
L 311.598738 91.291554 
L 311.761146 91.54968 
L 311.923555 91.455095 
L 312.248371 91.782831 
L 312.41078 91.72859 
L 312.735597 91.88817 
L 312.898005 91.52643 
L 313.060414 91.475889 
L 313.222822 91.292915 
L 313.385231 91.315238 
L 313.547639 91.125477 
L 314.52209 91.811735 
L 315.009316 91.41022 
L 315.171724 91.360847 
L 315.658949 91.78329 
L 315.821358 91.807679 
L 316.308583 92.203268 
L 316.470992 92.197766 
L 316.795809 91.976573 
L 316.958217 92.159038 
L 317.120626 92.052545 
L 317.445443 91.629962 
L 317.607851 91.554585 
L 317.77026 91.741122 
L 317.932668 91.518514 
L 318.095077 91.582016 
L 318.419894 91.300199 
L 318.582302 91.288441 
L 318.744711 91.448541 
L 318.907119 91.270069 
L 319.394344 91.852372 
L 319.88157 91.805444 
L 320.206387 91.431538 
L 320.368795 91.494916 
L 320.531204 91.431621 
L 320.693612 91.099391 
L 321.180838 91.425334 
L 321.343246 91.272959 
L 321.505655 91.530781 
L 321.668063 91.501478 
L 321.830472 91.631482 
L 322.317697 90.852272 
L 322.642514 90.738213 
L 322.804922 90.905763 
L 322.967331 90.631285 
L 323.129739 90.585196 
L 323.454556 90.228778 
L 323.941782 90.510645 
L 324.10419 90.394246 
L 324.266599 90.461662 
L 324.429007 90.702205 
L 324.591416 90.561958 
L 324.753824 90.622229 
L 324.916233 90.383605 
L 325.078641 90.410869 
L 325.24105 90.632793 
L 325.728275 90.175613 
L 325.890684 90.226715 
L 326.2155 90.14837 
L 326.540317 89.641945 
L 326.865134 89.814761 
L 327.189951 90.155627 
L 327.35236 89.996018 
L 327.514768 90.045662 
L 328.001994 89.812268 
L 328.489219 90.260149 
L 328.651628 90.091892 
L 328.814036 90.240614 
L 329.138853 90.180302 
L 329.301262 90.288269 
L 329.46367 90.108166 
L 329.626078 90.147037 
L 329.788487 90.014495 
L 329.950895 89.732245 
L 330.600529 89.996981 
L 331.087755 89.747157 
L 331.57498 89.774856 
L 331.899797 89.399727 
L 332.387023 89.713338 
L 332.549431 89.797262 
L 333.036657 89.296777 
L 333.848699 89.242047 
L 334.011107 89.404989 
L 334.498333 89.317561 
L 334.985558 88.985614 
L 335.310375 89.301547 
L 335.635192 89.633326 
L 336.284826 89.252521 
L 336.447235 89.10843 
L 336.609643 89.141127 
L 336.93446 88.826119 
L 337.259277 88.711569 
L 337.421685 88.884814 
L 337.584094 88.854758 
L 337.908911 88.920294 
L 338.720953 88.450191 
L 338.883362 88.396178 
L 339.208179 88.555841 
L 339.370587 88.585244 
L 339.857813 89.069318 
L 340.020221 88.925769 
L 340.669855 89.236385 
L 340.832263 89.263118 
L 341.481897 89.774359 
L 341.644306 89.544178 
L 342.131531 90.013165 
L 342.29394 89.979677 
L 342.456348 89.806823 
L 342.781165 89.858217 
L 342.943574 89.831051 
L 343.268391 90.025236 
L 343.755616 89.53824 
L 344.080433 89.728858 
L 344.730067 89.75264 
L 344.892475 89.915401 
L 345.217292 89.555579 
L 346.029335 89.652313 
L 346.191743 89.843986 
L 346.678969 89.761318 
L 346.841377 89.948846 
L 347.328602 90.001065 
L 347.491011 90.213696 
L 347.653419 90.106441 
L 347.815828 90.26074 
L 348.140645 89.896803 
L 348.303053 89.886748 
L 348.465462 90.030366 
L 348.62787 89.94684 
L 348.790279 90.049362 
L 349.115096 89.841941 
L 349.277504 89.716916 
L 349.602321 89.758459 
L 349.76473 89.923448 
L 350.089547 89.900185 
L 350.414364 90.210446 
L 350.73918 89.887821 
L 351.063997 89.747243 
L 351.226406 89.57307 
L 351.388814 89.658763 
L 351.551223 89.493028 
L 351.713631 89.640903 
L 352.363265 89.505002 
L 352.525674 89.667129 
L 352.688082 89.581478 
L 353.175308 89.727309 
L 353.337716 89.912818 
L 353.500125 89.820272 
L 353.824942 90.092837 
L 353.98735 89.971244 
L 354.799392 90.438176 
L 354.961801 90.243842 
L 355.449026 90.55188 
L 355.611435 90.179987 
L 355.936252 90.607899 
L 356.261069 90.178027 
L 356.423477 89.980144 
L 356.910703 90.404617 
L 357.397928 90.296024 
L 357.560337 90.503559 
L 357.722745 90.234042 
L 358.047562 90.372723 
L 358.20997 90.598747 
L 358.534787 90.512527 
L 358.697196 90.642118 
L 358.859604 90.465019 
L 359.184421 90.407657 
L 359.34683 90.348993 
L 359.671647 90.365163 
L 359.834055 90.384051 
L 360.321281 90.750033 
L 360.646098 90.765683 
L 360.970915 91.104187 
L 361.133323 91.150416 
L 361.295732 91.054334 
L 361.45814 91.271982 
L 362.107774 91.218168 
L 362.432591 91.207134 
L 362.919816 91.766924 
L 363.56945 91.382845 
L 363.731859 91.479072 
L 364.381493 91.016505 
L 364.543901 91.138831 
L 364.868718 90.89469 
L 365.031126 91.022031 
L 365.193535 90.847803 
L 365.518352 90.950648 
L 365.68076 90.769363 
L 365.843169 90.914666 
L 366.492803 90.861858 
L 366.980028 91.380044 
L 367.792071 90.988239 
L 367.954479 91.185017 
L 368.116888 91.065632 
L 368.279296 91.166946 
L 368.441704 91.056983 
L 368.604113 91.152121 
L 368.766521 91.10847 
L 368.92893 90.896478 
L 369.416155 91.149684 
L 369.578564 91.070362 
L 369.740972 91.296395 
L 370.065789 91.020477 
L 370.390606 91.230474 
L 370.715423 91.100488 
L 370.877832 90.796323 
L 371.04024 90.933414 
L 371.202649 90.853509 
L 371.365057 91.050966 
L 371.689874 90.840094 
L 372.014691 90.797841 
L 373.15155 91.075981 
L 373.313959 90.940525 
L 373.638776 91.217219 
L 373.963593 91.355696 
L 374.126001 91.456524 
L 374.28841 91.689936 
L 374.450818 91.503554 
L 374.613227 91.656128 
L 375.262861 91.349213 
L 375.425269 91.257688 
L 375.587677 91.393404 
L 375.750086 91.273295 
L 375.912494 91.367536 
L 376.074903 91.156979 
L 376.237311 91.158902 
L 376.562128 91.310057 
L 376.724537 91.190212 
L 377.049354 91.455738 
L 377.211762 91.284423 
L 377.861396 91.562198 
L 378.348622 91.870976 
L 378.51103 91.769615 
L 378.673439 91.937899 
L 378.998255 91.771874 
L 379.810298 92.060285 
L 380.135115 91.872144 
L 380.459932 91.996588 
L 380.947157 91.933887 
L 381.271974 92.192517 
L 381.596791 92.19423 
L 381.921608 92.499974 
L 382.408834 92.29193 
L 382.73365 92.217819 
L 382.896059 92.341608 
L 383.058467 92.259959 
L 383.220876 92.437385 
L 383.545693 92.373728 
L 383.708101 92.310595 
L 384.032918 92.527547 
L 384.195327 92.309465 
L 385.007369 92.561495 
L 385.332186 92.399871 
L 385.657003 92.687631 
L 385.819412 92.665327 
L 386.306637 93.020637 
L 386.469045 92.831634 
L 386.956271 92.945892 
L 387.118679 92.810316 
L 387.281088 92.895961 
L 387.443496 92.680162 
L 387.605905 92.7314 
L 387.768313 92.656519 
L 387.930722 92.802243 
L 388.255539 92.607242 
L 388.417947 92.642096 
L 388.580356 92.535785 
L 388.905173 92.64779 
L 389.22999 92.812949 
L 389.554806 92.990492 
L 389.879623 92.762251 
L 390.042032 92.889895 
L 390.529257 92.474995 
L 390.691666 92.55937 
L 391.178891 92.426447 
L 391.828525 92.43401 
L 392.153342 92.529497 
L 392.315751 92.357013 
L 392.478159 92.457883 
L 392.965385 92.24691 
L 393.127793 92.41121 
L 393.615018 92.341124 
L 394.102244 92.12363 
L 394.427061 92.345991 
L 394.589469 92.444009 
L 394.751878 92.271182 
L 394.914286 92.407198 
L 395.401512 92.132302 
L 395.56392 92.182714 
L 395.888737 91.983481 
L 396.538371 92.117005 
L 396.700779 91.916206 
L 397.025596 91.925663 
L 397.188005 91.679698 
L 397.350413 91.71712 
L 397.837639 91.402368 
L 398.000047 91.379337 
L 398.487273 90.770341 
L 398.487273 90.770341 
" clip-path="url(#p910be8b829)" style="fill: none; stroke-dasharray: 2,3.3; stroke-dashoffset: 0; stroke: #ffa500; stroke-width: 2"/>
   </g>
   <g id="patch_3">
    <path d="M 57.6 307.584 
L 57.6 41.472 
" style="fill: none; stroke: #000000; stroke-width: 0.8; stroke-linejoin: miter; stroke-linecap: square"/>
   </g>
   <g id="patch_4">
    <path d="M 414.72 307.584 
L 414.72 41.472 
" style="fill: none; stroke: #000000; stroke-width: 0.8; stroke-linejoin: miter; stroke-linecap: square"/>
   </g>
   <g id="patch_5">
    <path d="M 57.6 307.584 
L 414.72 307.584 
" style="fill: none; stroke: #000000; stroke-width: 0.8; stroke-linejoin: miter; stroke-linecap: square"/>
   </g>
   <g id="patch_6">
    <path d="M 57.6 41.472 
L 414.72 41.472 
" style="fill: none; stroke: #000000; stroke-width: 0.8; stroke-linejoin: miter; stroke-linecap: square"/>
   </g>
   <g id="text_17">
    <!-- Waiting Time Plot -->
    <g transform="translate(183.833438 8.2635)scale(0.12 -0.12)">
     <defs>
      <path id="DejaVuSans-50" d="M 1259 4147 
L 1259 2394 
L 2053 2394 
Q 2494 2394 2734 2622 
Q 2975 2850 2975 3272 
Q 2975 3691 2734 3919 
Q 2494 4147 2053 4147 
L 1259 4147 
z
M 628 4666 
L 2053 4666 
Q 2838 4666 3239 4311 
Q 3641 3956 3641 3272 
Q 3641 2581 3239 2228 
Q 2838 1875 2053 1875 
L 1259 1875 
L 1259 0 
L 628 0 
L 628 4666 
z
" transform="scale(0.015625)"/>
      <path id="DejaVuSans-6c" d="M 603 4863 
L 1178 4863 
L 1178 0 
L 603 0 
L 603 4863 
z
" transform="scale(0.015625)"/>
     </defs>
     <use xlink:href="#DejaVuSans-57"/>
     <use xlink:href="#DejaVuSans-61" x="92.501953"/>
     <use xlink:href="#DejaVuSans-69" x="153.78125"/>
     <use xlink:href="#DejaVuSans-74" x="181.564453"/>
     <use xlink:href="#DejaVuSans-69" x="220.773438"/>
     <use xlink:href="#DejaVuSans-6e" x="248.556641"/>
     <use xlink:href="#DejaVuSans-67" x="311.935547"/>
     <use xlink:href="#DejaVuSans-20" x="375.412109"/>
     <use xlink:href="#DejaVuSans-54" x="407.199219"/>
     <use xlink:href="#DejaVuSans-69" x="465.158203"/>
     <use xlink:href="#DejaVuSans-6d" x="492.941406"/>
     <use xlink:href="#DejaVuSans-65" x="590.353516"/>
     <use xlink:href="#DejaVuSans-20" x="651.876953"/>
     <use xlink:href="#DejaVuSans-50" x="683.664062"/>
     <use xlink:href="#DejaVuSans-6c" x="743.966797"/>
     <use xlink:href="#DejaVuSans-6f" x="771.75"/>
     <use xlink:href="#DejaVuSans-74" x="832.931641"/>
    </g>
    <!--  avg_d = 1008.740319319381  -->
    <g transform="translate(142.671562 21.700875)scale(0.12 -0.12)">
     <defs>
      <path id="DejaVuSans-76" d="M 191 3500 
L 800 3500 
L 1894 563 
L 2988 3500 
L 3597 3500 
L 2284 0 
L 1503 0 
L 191 3500 
z
" transform="scale(0.015625)"/>
      <path id="DejaVuSans-5f" d="M 3263 -1063 
L 3263 -1509 
L -63 -1509 
L -63 -1063 
L 3263 -1063 
z
" transform="scale(0.015625)"/>
      <path id="DejaVuSans-3d" d="M 678 2906 
L 4684 2906 
L 4684 2381 
L 678 2381 
L 678 2906 
z
M 678 1631 
L 4684 1631 
L 4684 1100 
L 678 1100 
L 678 1631 
z
" transform="scale(0.015625)"/>
      <path id="DejaVuSans-2e" d="M 684 794 
L 1344 794 
L 1344 0 
L 684 0 
L 684 794 
z
" transform="scale(0.015625)"/>
      <path id="DejaVuSans-34" d="M 2419 4116 
L 825 1625 
L 2419 1625 
L 2419 4116 
z
M 2253 4666 
L 3047 4666 
L 3047 1625 
L 3713 1625 
L 3713 1100 
L 3047 1100 
L 3047 0 
L 2419 0 
L 2419 1100 
L 313 1100 
L 313 1709 
L 2253 4666 
z
" transform="scale(0.015625)"/>
      <path id="DejaVuSans-33" d="M 2597 2516 
Q 3050 2419 3304 2112 
Q 3559 1806 3559 1356 
Q 3559 666 3084 287 
Q 2609 -91 1734 -91 
Q 1441 -91 1130 -33 
Q 819 25 488 141 
L 488 750 
Q 750 597 1062 519 
Q 1375 441 1716 441 
Q 2309 441 2620 675 
Q 2931 909 2931 1356 
Q 2931 1769 2642 2001 
Q 2353 2234 1838 2234 
L 1294 2234 
L 1294 2753 
L 1863 2753 
Q 2328 2753 2575 2939 
Q 2822 3125 2822 3475 
Q 2822 3834 2567 4026 
Q 2313 4219 1838 4219 
Q 1578 4219 1281 4162 
Q 984 4106 628 3988 
L 628 4550 
Q 988 4650 1302 4700 
Q 1616 4750 1894 4750 
Q 2613 4750 3031 4423 
Q 3450 4097 3450 3541 
Q 3450 3153 3228 2886 
Q 3006 2619 2597 2516 
z
" transform="scale(0.015625)"/>
     </defs>
     <use xlink:href="#DejaVuSans-20"/>
     <use xlink:href="#DejaVuSans-61" x="31.787109"/>
     <use xlink:href="#DejaVuSans-76" x="93.066406"/>
     <use xlink:href="#DejaVuSans-67" x="152.246094"/>
     <use xlink:href="#DejaVuSans-5f" x="215.722656"/>
     <use xlink:href="#DejaVuSans-64" x="265.722656"/>
     <use xlink:href="#DejaVuSans-20" x="329.199219"/>
     <use xlink:href="#DejaVuSans-3d" x="360.986328"/>
     <use xlink:href="#DejaVuSans-20" x="444.775391"/>
     <use xlink:href="#DejaVuSans-31" x="476.5625"/>
     <use xlink:href="#DejaVuSans-30" x="540.185547"/>
     <use xlink:href="#DejaVuSans-30" x="603.808594"/>
     <use xlink:href="#DejaVuSans-38" x="667.431641"/>
     <use xlink:href="#DejaVuSans-2e" x="731.054688"/>
     <use xlink:href="#DejaVuSans-37" x="762.841797"/>
     <use xlink:href="#DejaVuSans-34" x="826.464844"/>
     <use xlink:href="#DejaVuSans-30" x="890.087891"/>
     <use xlink:href="#DejaVuSans-33" x="953.710938"/>
     <use xlink:href="#DejaVuSans-31" x="1017.333984"/>
     <use xlink:href="#DejaVuSans-39" x="1080.957031"/>
     <use xlink:href="#DejaVuSans-33" x="1144.580078"/>
     <use xlink:href="#DejaVuSans-31" x="1208.203125"/>
     <use xlink:href="#DejaVuSans-39" x="1271.826172"/>
     <use xlink:href="#DejaVuSans-33" x="1335.449219"/>
     <use xlink:href="#DejaVuSans-38" x="1399.072266"/>
     <use xlink:href="#DejaVuSans-31" x="1462.695312"/>
     <use xlink:href="#DejaVuSans-20" x="1526.318359"/>
    </g>
    <!--  avg_a = 1007.72568672836diff = 1.0146325910210408 -->
    <g transform="translate(63.181875 35.472)scale(0.12 -0.12)">
     <defs>
      <path id="DejaVuSans-36" d="M 2113 2584 
Q 1688 2584 1439 2293 
Q 1191 2003 1191 1497 
Q 1191 994 1439 701 
Q 1688 409 2113 409 
Q 2538 409 2786 701 
Q 3034 994 3034 1497 
Q 3034 2003 2786 2293 
Q 2538 2584 2113 2584 
z
M 3366 4563 
L 3366 3988 
Q 3128 4100 2886 4159 
Q 2644 4219 2406 4219 
Q 1781 4219 1451 3797 
Q 1122 3375 1075 2522 
Q 1259 2794 1537 2939 
Q 1816 3084 2150 3084 
Q 2853 3084 3261 2657 
Q 3669 2231 3669 1497 
Q 3669 778 3244 343 
Q 2819 -91 2113 -91 
Q 1303 -91 875 529 
Q 447 1150 447 2328 
Q 447 3434 972 4092 
Q 1497 4750 2381 4750 
Q 2619 4750 2861 4703 
Q 3103 4656 3366 4563 
z
" transform="scale(0.015625)"/>
     </defs>
     <use xlink:href="#DejaVuSans-20"/>
     <use xlink:href="#DejaVuSans-61" x="31.787109"/>
     <use xlink:href="#DejaVuSans-76" x="93.066406"/>
     <use xlink:href="#DejaVuSans-67" x="152.246094"/>
     <use xlink:href="#DejaVuSans-5f" x="215.722656"/>
     <use xlink:href="#DejaVuSans-61" x="265.722656"/>
     <use xlink:href="#DejaVuSans-20" x="327.001953"/>
     <use xlink:href="#DejaVuSans-3d" x="358.789062"/>
     <use xlink:href="#DejaVuSans-20" x="442.578125"/>
     <use xlink:href="#DejaVuSans-31" x="474.365234"/>
     <use xlink:href="#DejaVuSans-30" x="537.988281"/>
     <use xlink:href="#DejaVuSans-30" x="601.611328"/>
     <use xlink:href="#DejaVuSans-37" x="665.234375"/>
     <use xlink:href="#DejaVuSans-2e" x="728.857422"/>
     <use xlink:href="#DejaVuSans-37" x="760.644531"/>
     <use xlink:href="#DejaVuSans-32" x="824.267578"/>
     <use xlink:href="#DejaVuSans-35" x="887.890625"/>
     <use xlink:href="#DejaVuSans-36" x="951.513672"/>
     <use xlink:href="#DejaVuSans-38" x="1015.136719"/>
     <use xlink:href="#DejaVuSans-36" x="1078.759766"/>
     <use xlink:href="#DejaVuSans-37" x="1142.382812"/>
     <use xlink:href="#DejaVuSans-32" x="1206.005859"/>
     <use xlink:href="#DejaVuSans-38" x="1269.628906"/>
     <use xlink:href="#DejaVuSans-33" x="1333.251953"/>
     <use xlink:href="#DejaVuSans-36" x="1396.875"/>
     <use xlink:href="#DejaVuSans-64" x="1460.498047"/>
     <use xlink:href="#DejaVuSans-69" x="1523.974609"/>
     <use xlink:href="#DejaVuSans-66" x="1551.757812"/>
     <use xlink:href="#DejaVuSans-66" x="1586.962891"/>
     <use xlink:href="#DejaVuSans-20" x="1622.167969"/>
     <use xlink:href="#DejaVuSans-3d" x="1653.955078"/>
     <use xlink:href="#DejaVuSans-20" x="1737.744141"/>
     <use xlink:href="#DejaVuSans-31" x="1769.53125"/>
     <use xlink:href="#DejaVuSans-2e" x="1833.154297"/>
     <use xlink:href="#DejaVuSans-30" x="1864.941406"/>
     <use xlink:href="#DejaVuSans-31" x="1928.564453"/>
     <use xlink:href="#DejaVuSans-34" x="1992.1875"/>
     <use xlink:href="#DejaVuSans-36" x="2055.810547"/>
     <use xlink:href="#DejaVuSans-33" x="2119.433594"/>
     <use xlink:href="#DejaVuSans-32" x="2183.056641"/>
     <use xlink:href="#DejaVuSans-35" x="2246.679688"/>
     <use xlink:href="#DejaVuSans-39" x="2310.302734"/>
     <use xlink:href="#DejaVuSans-31" x="2373.925781"/>
     <use xlink:href="#DejaVuSans-30" x="2437.548828"/>
     <use xlink:href="#DejaVuSans-32" x="2501.171875"/>
     <use xlink:href="#DejaVuSans-31" x="2564.794922"/>
     <use xlink:href="#DejaVuSans-30" x="2628.417969"/>
     <use xlink:href="#DejaVuSans-34" x="2692.041016"/>
     <use xlink:href="#DejaVuSans-30" x="2755.664062"/>
     <use xlink:href="#DejaVuSans-38" x="2819.287109"/>
    </g>
   </g>
   <g id="legend_1">
    <g id="patch_7">
     <path d="M 263.88875 78.82825 
L 407.72 78.82825 
Q 409.72 78.82825 409.72 76.82825 
L 409.72 48.472 
Q 409.72 46.472 407.72 46.472 
L 263.88875 46.472 
Q 261.88875 46.472 261.88875 48.472 
L 261.88875 76.82825 
Q 261.88875 78.82825 263.88875 78.82825 
z
" style="fill: #ffffff; opacity: 0.8; stroke: #cccccc; stroke-linejoin: miter"/>
    </g>
    <g id="line2d_17">
     <path d="M 265.88875 54.570437 
L 275.88875 54.570437 
L 285.88875 54.570437 
" style="fill: none; stroke-dasharray: 2,3.3; stroke-dashoffset: 0; stroke: #0000ff; stroke-width: 2"/>
    </g>
    <g id="text_18">
     <!-- Average (Default) -->
     <g transform="translate(293.88875 58.070437)scale(0.1 -0.1)">
      <defs>
       <path id="DejaVuSans-41" d="M 2188 4044 
L 1331 1722 
L 3047 1722 
L 2188 4044 
z
M 1831 4666 
L 2547 4666 
L 4325 0 
L 3669 0 
L 3244 1197 
L 1141 1197 
L 716 0 
L 50 0 
L 1831 4666 
z
" transform="scale(0.015625)"/>
       <path id="DejaVuSans-28" d="M 1984 4856 
Q 1566 4138 1362 3434 
Q 1159 2731 1159 2009 
Q 1159 1288 1364 580 
Q 1569 -128 1984 -844 
L 1484 -844 
Q 1016 -109 783 600 
Q 550 1309 550 2009 
Q 550 2706 781 3412 
Q 1013 4119 1484 4856 
L 1984 4856 
z
" transform="scale(0.015625)"/>
       <path id="DejaVuSans-44" d="M 1259 4147 
L 1259 519 
L 2022 519 
Q 2988 519 3436 956 
Q 3884 1394 3884 2338 
Q 3884 3275 3436 3711 
Q 2988 4147 2022 4147 
L 1259 4147 
z
M 628 4666 
L 1925 4666 
Q 3281 4666 3915 4102 
Q 4550 3538 4550 2338 
Q 4550 1131 3912 565 
Q 3275 0 1925 0 
L 628 0 
L 628 4666 
z
" transform="scale(0.015625)"/>
       <path id="DejaVuSans-29" d="M 513 4856 
L 1013 4856 
Q 1481 4119 1714 3412 
Q 1947 2706 1947 2009 
Q 1947 1309 1714 600 
Q 1481 -109 1013 -844 
L 513 -844 
Q 928 -128 1133 580 
Q 1338 1288 1338 2009 
Q 1338 2731 1133 3434 
Q 928 4138 513 4856 
z
" transform="scale(0.015625)"/>
      </defs>
      <use xlink:href="#DejaVuSans-41"/>
      <use xlink:href="#DejaVuSans-76" x="62.533203"/>
      <use xlink:href="#DejaVuSans-65" x="121.712891"/>
      <use xlink:href="#DejaVuSans-72" x="183.236328"/>
      <use xlink:href="#DejaVuSans-61" x="224.349609"/>
      <use xlink:href="#DejaVuSans-67" x="285.628906"/>
      <use xlink:href="#DejaVuSans-65" x="349.105469"/>
      <use xlink:href="#DejaVuSans-20" x="410.628906"/>
      <use xlink:href="#DejaVuSans-28" x="442.416016"/>
      <use xlink:href="#DejaVuSans-44" x="481.429688"/>
      <use xlink:href="#DejaVuSans-65" x="558.431641"/>
      <use xlink:href="#DejaVuSans-66" x="619.955078"/>
      <use xlink:href="#DejaVuSans-61" x="655.160156"/>
      <use xlink:href="#DejaVuSans-75" x="716.439453"/>
      <use xlink:href="#DejaVuSans-6c" x="779.818359"/>
      <use xlink:href="#DejaVuSans-74" x="807.601562"/>
      <use xlink:href="#DejaVuSans-29" x="846.810547"/>
     </g>
    </g>
    <g id="line2d_18">
     <path d="M 265.88875 69.248562 
L 275.88875 69.248562 
L 285.88875 69.248562 
" style="fill: none; stroke-dasharray: 2,3.3; stroke-dashoffset: 0; stroke: #ffa500; stroke-width: 2"/>
    </g>
    <g id="text_19">
     <!-- Average (Anticipation) -->
     <g transform="translate(293.88875 72.748562)scale(0.1 -0.1)">
      <defs>
       <path id="DejaVuSans-63" d="M 3122 3366 
L 3122 2828 
Q 2878 2963 2633 3030 
Q 2388 3097 2138 3097 
Q 1578 3097 1268 2742 
Q 959 2388 959 1747 
Q 959 1106 1268 751 
Q 1578 397 2138 397 
Q 2388 397 2633 464 
Q 2878 531 3122 666 
L 3122 134 
Q 2881 22 2623 -34 
Q 2366 -91 2075 -91 
Q 1284 -91 818 406 
Q 353 903 353 1747 
Q 353 2603 823 3093 
Q 1294 3584 2113 3584 
Q 2378 3584 2631 3529 
Q 2884 3475 3122 3366 
z
" transform="scale(0.015625)"/>
       <path id="DejaVuSans-70" d="M 1159 525 
L 1159 -1331 
L 581 -1331 
L 581 3500 
L 1159 3500 
L 1159 2969 
Q 1341 3281 1617 3432 
Q 1894 3584 2278 3584 
Q 2916 3584 3314 3078 
Q 3713 2572 3713 1747 
Q 3713 922 3314 415 
Q 2916 -91 2278 -91 
Q 1894 -91 1617 61 
Q 1341 213 1159 525 
z
M 3116 1747 
Q 3116 2381 2855 2742 
Q 2594 3103 2138 3103 
Q 1681 3103 1420 2742 
Q 1159 2381 1159 1747 
Q 1159 1113 1420 752 
Q 1681 391 2138 391 
Q 2594 391 2855 752 
Q 3116 1113 3116 1747 
z
" transform="scale(0.015625)"/>
      </defs>
      <use xlink:href="#DejaVuSans-41"/>
      <use xlink:href="#DejaVuSans-76" x="62.533203"/>
      <use xlink:href="#DejaVuSans-65" x="121.712891"/>
      <use xlink:href="#DejaVuSans-72" x="183.236328"/>
      <use xlink:href="#DejaVuSans-61" x="224.349609"/>
      <use xlink:href="#DejaVuSans-67" x="285.628906"/>
      <use xlink:href="#DejaVuSans-65" x="349.105469"/>
      <use xlink:href="#DejaVuSans-20" x="410.628906"/>
      <use xlink:href="#DejaVuSans-28" x="442.416016"/>
      <use xlink:href="#DejaVuSans-41" x="481.429688"/>
      <use xlink:href="#DejaVuSans-6e" x="549.837891"/>
      <use xlink:href="#DejaVuSans-74" x="613.216797"/>
      <use xlink:href="#DejaVuSans-69" x="652.425781"/>
      <use xlink:href="#DejaVuSans-63" x="680.208984"/>
      <use xlink:href="#DejaVuSans-69" x="735.189453"/>
      <use xlink:href="#DejaVuSans-70" x="762.972656"/>
      <use xlink:href="#DejaVuSans-61" x="826.449219"/>
      <use xlink:href="#DejaVuSans-74" x="887.728516"/>
      <use xlink:href="#DejaVuSans-69" x="926.9375"/>
      <use xlink:href="#DejaVuSans-6f" x="954.720703"/>
      <use xlink:href="#DejaVuSans-6e" x="1015.902344"/>
      <use xlink:href="#DejaVuSans-29" x="1079.28125"/>
     </g>
    </g>
   </g>
  </g>
 </g>
 <defs>
  <clipPath id="p910be8b829">
   <rect x="57.6" y="41.472" width="357.12" height="266.112"/>
  </clipPath>
 </defs>
</svg>
