<?xml version="1.0" encoding="utf-8" standalone="no"?>
<!DOCTYPE svg PUBLIC "-//W3C//DTD SVG 1.1//EN"
  "http://www.w3.org/Graphics/SVG/1.1/DTD/svg11.dtd">
<svg xmlns:xlink="http://www.w3.org/1999/xlink" width="460.8pt" height="345.6pt" viewBox="0 0 460.8 345.6" xmlns="http://www.w3.org/2000/svg" version="1.1">
 <metadata>
  <rdf:RDF xmlns:dc="http://purl.org/dc/elements/1.1/" xmlns:cc="http://creativecommons.org/ns#" xmlns:rdf="http://www.w3.org/1999/02/22-rdf-syntax-ns#">
   <cc:Work>
    <dc:type rdf:resource="http://purl.org/dc/dcmitype/StillImage"/>
    <dc:date>2022-10-04T02:24:59.183522</dc:date>
    <dc:format>image/svg+xml</dc:format>
    <dc:creator>
     <cc:Agent>
      <dc:title>Matplotlib v3.5.3, https://matplotlib.org/</dc:title>
     </cc:Agent>
    </dc:creator>
   </cc:Work>
  </rdf:RDF>
 </metadata>
 <defs>
  <style type="text/css">*{stroke-linejoin: round; stroke-linecap: butt}</style>
 </defs>
 <g id="figure_1">
  <g id="patch_1">
   <path d="M 0 345.6 
L 460.8 345.6 
L 460.8 0 
L 0 0 
z
" style="fill: #ffffff"/>
  </g>
  <g id="axes_1">
   <g id="patch_2">
    <path d="M 57.6 307.584 
L 414.72 307.584 
L 414.72 41.472 
L 57.6 41.472 
z
" style="fill: #ffffff"/>
   </g>
   <g id="matplotlib.axis_1">
    <g id="xtick_1">
     <g id="line2d_1">
      <defs>
       <path id="m50b8eb00eb" d="M 0 0 
L 0 3.5 
" style="stroke: #000000; stroke-width: 0.8"/>
      </defs>
      <g>
       <use xlink:href="#m50b8eb00eb" x="73.832727" y="307.584" style="stroke: #000000; stroke-width: 0.8"/>
      </g>
     </g>
     <g id="text_1">
      <!-- 0 -->
      <g transform="translate(70.651477 322.182437)scale(0.1 -0.1)">
       <defs>
        <path id="DejaVuSans-30" d="M 2034 4250 
Q 1547 4250 1301 3770 
Q 1056 3291 1056 2328 
Q 1056 1369 1301 889 
Q 1547 409 2034 409 
Q 2525 409 2770 889 
Q 3016 1369 3016 2328 
Q 3016 3291 2770 3770 
Q 2525 4250 2034 4250 
z
M 2034 4750 
Q 2819 4750 3233 4129 
Q 3647 3509 3647 2328 
Q 3647 1150 3233 529 
Q 2819 -91 2034 -91 
Q 1250 -91 836 529 
Q 422 1150 422 2328 
Q 422 3509 836 4129 
Q 1250 4750 2034 4750 
z
" transform="scale(0.015625)"/>
       </defs>
       <use xlink:href="#DejaVuSans-30"/>
      </g>
     </g>
    </g>
    <g id="xtick_2">
     <g id="line2d_2">
      <g>
       <use xlink:href="#m50b8eb00eb" x="114.434847" y="307.584" style="stroke: #000000; stroke-width: 0.8"/>
      </g>
     </g>
     <g id="text_2">
      <!-- 250 -->
      <g transform="translate(104.891097 322.182437)scale(0.1 -0.1)">
       <defs>
        <path id="DejaVuSans-32" d="M 1228 531 
L 3431 531 
L 3431 0 
L 469 0 
L 469 531 
Q 828 903 1448 1529 
Q 2069 2156 2228 2338 
Q 2531 2678 2651 2914 
Q 2772 3150 2772 3378 
Q 2772 3750 2511 3984 
Q 2250 4219 1831 4219 
Q 1534 4219 1204 4116 
Q 875 4013 500 3803 
L 500 4441 
Q 881 4594 1212 4672 
Q 1544 4750 1819 4750 
Q 2544 4750 2975 4387 
Q 3406 4025 3406 3419 
Q 3406 3131 3298 2873 
Q 3191 2616 2906 2266 
Q 2828 2175 2409 1742 
Q 1991 1309 1228 531 
z
" transform="scale(0.015625)"/>
        <path id="DejaVuSans-35" d="M 691 4666 
L 3169 4666 
L 3169 4134 
L 1269 4134 
L 1269 2991 
Q 1406 3038 1543 3061 
Q 1681 3084 1819 3084 
Q 2600 3084 3056 2656 
Q 3513 2228 3513 1497 
Q 3513 744 3044 326 
Q 2575 -91 1722 -91 
Q 1428 -91 1123 -41 
Q 819 9 494 109 
L 494 744 
Q 775 591 1075 516 
Q 1375 441 1709 441 
Q 2250 441 2565 725 
Q 2881 1009 2881 1497 
Q 2881 1984 2565 2268 
Q 2250 2553 1709 2553 
Q 1456 2553 1204 2497 
Q 953 2441 691 2322 
L 691 4666 
z
" transform="scale(0.015625)"/>
       </defs>
       <use xlink:href="#DejaVuSans-32"/>
       <use xlink:href="#DejaVuSans-35" x="63.623047"/>
       <use xlink:href="#DejaVuSans-30" x="127.246094"/>
      </g>
     </g>
    </g>
    <g id="xtick_3">
     <g id="line2d_3">
      <g>
       <use xlink:href="#m50b8eb00eb" x="155.036966" y="307.584" style="stroke: #000000; stroke-width: 0.8"/>
      </g>
     </g>
     <g id="text_3">
      <!-- 500 -->
      <g transform="translate(145.493216 322.182437)scale(0.1 -0.1)">
       <use xlink:href="#DejaVuSans-35"/>
       <use xlink:href="#DejaVuSans-30" x="63.623047"/>
       <use xlink:href="#DejaVuSans-30" x="127.246094"/>
      </g>
     </g>
    </g>
    <g id="xtick_4">
     <g id="line2d_4">
      <g>
       <use xlink:href="#m50b8eb00eb" x="195.639085" y="307.584" style="stroke: #000000; stroke-width: 0.8"/>
      </g>
     </g>
     <g id="text_4">
      <!-- 750 -->
      <g transform="translate(186.095335 322.182437)scale(0.1 -0.1)">
       <defs>
        <path id="DejaVuSans-37" d="M 525 4666 
L 3525 4666 
L 3525 4397 
L 1831 0 
L 1172 0 
L 2766 4134 
L 525 4134 
L 525 4666 
z
" transform="scale(0.015625)"/>
       </defs>
       <use xlink:href="#DejaVuSans-37"/>
       <use xlink:href="#DejaVuSans-35" x="63.623047"/>
       <use xlink:href="#DejaVuSans-30" x="127.246094"/>
      </g>
     </g>
    </g>
    <g id="xtick_5">
     <g id="line2d_5">
      <g>
       <use xlink:href="#m50b8eb00eb" x="236.241204" y="307.584" style="stroke: #000000; stroke-width: 0.8"/>
      </g>
     </g>
     <g id="text_5">
      <!-- 1000 -->
      <g transform="translate(223.516204 322.182437)scale(0.1 -0.1)">
       <defs>
        <path id="DejaVuSans-31" d="M 794 531 
L 1825 531 
L 1825 4091 
L 703 3866 
L 703 4441 
L 1819 4666 
L 2450 4666 
L 2450 531 
L 3481 531 
L 3481 0 
L 794 0 
L 794 531 
z
" transform="scale(0.015625)"/>
       </defs>
       <use xlink:href="#DejaVuSans-31"/>
       <use xlink:href="#DejaVuSans-30" x="63.623047"/>
       <use xlink:href="#DejaVuSans-30" x="127.246094"/>
       <use xlink:href="#DejaVuSans-30" x="190.869141"/>
      </g>
     </g>
    </g>
    <g id="xtick_6">
     <g id="line2d_6">
      <g>
       <use xlink:href="#m50b8eb00eb" x="276.843323" y="307.584" style="stroke: #000000; stroke-width: 0.8"/>
      </g>
     </g>
     <g id="text_6">
      <!-- 1250 -->
      <g transform="translate(264.118323 322.182437)scale(0.1 -0.1)">
       <use xlink:href="#DejaVuSans-31"/>
       <use xlink:href="#DejaVuSans-32" x="63.623047"/>
       <use xlink:href="#DejaVuSans-35" x="127.246094"/>
       <use xlink:href="#DejaVuSans-30" x="190.869141"/>
      </g>
     </g>
    </g>
    <g id="xtick_7">
     <g id="line2d_7">
      <g>
       <use xlink:href="#m50b8eb00eb" x="317.445443" y="307.584" style="stroke: #000000; stroke-width: 0.8"/>
      </g>
     </g>
     <g id="text_7">
      <!-- 1500 -->
      <g transform="translate(304.720443 322.182437)scale(0.1 -0.1)">
       <use xlink:href="#DejaVuSans-31"/>
       <use xlink:href="#DejaVuSans-35" x="63.623047"/>
       <use xlink:href="#DejaVuSans-30" x="127.246094"/>
       <use xlink:href="#DejaVuSans-30" x="190.869141"/>
      </g>
     </g>
    </g>
    <g id="xtick_8">
     <g id="line2d_8">
      <g>
       <use xlink:href="#m50b8eb00eb" x="358.047562" y="307.584" style="stroke: #000000; stroke-width: 0.8"/>
      </g>
     </g>
     <g id="text_8">
      <!-- 1750 -->
      <g transform="translate(345.322562 322.182437)scale(0.1 -0.1)">
       <use xlink:href="#DejaVuSans-31"/>
       <use xlink:href="#DejaVuSans-37" x="63.623047"/>
       <use xlink:href="#DejaVuSans-35" x="127.246094"/>
       <use xlink:href="#DejaVuSans-30" x="190.869141"/>
      </g>
     </g>
    </g>
    <g id="xtick_9">
     <g id="line2d_9">
      <g>
       <use xlink:href="#m50b8eb00eb" x="398.649681" y="307.584" style="stroke: #000000; stroke-width: 0.8"/>
      </g>
     </g>
     <g id="text_9">
      <!-- 2000 -->
      <g transform="translate(385.924681 322.182437)scale(0.1 -0.1)">
       <use xlink:href="#DejaVuSans-32"/>
       <use xlink:href="#DejaVuSans-30" x="63.623047"/>
       <use xlink:href="#DejaVuSans-30" x="127.246094"/>
       <use xlink:href="#DejaVuSans-30" x="190.869141"/>
      </g>
     </g>
    </g>
    <g id="text_10">
     <!-- Number of Orders -->
     <g transform="translate(191.261562 335.860562)scale(0.1 -0.1)">
      <defs>
       <path id="DejaVuSans-4e" d="M 628 4666 
L 1478 4666 
L 3547 763 
L 3547 4666 
L 4159 4666 
L 4159 0 
L 3309 0 
L 1241 3903 
L 1241 0 
L 628 0 
L 628 4666 
z
" transform="scale(0.015625)"/>
       <path id="DejaVuSans-75" d="M 544 1381 
L 544 3500 
L 1119 3500 
L 1119 1403 
Q 1119 906 1312 657 
Q 1506 409 1894 409 
Q 2359 409 2629 706 
Q 2900 1003 2900 1516 
L 2900 3500 
L 3475 3500 
L 3475 0 
L 2900 0 
L 2900 538 
Q 2691 219 2414 64 
Q 2138 -91 1772 -91 
Q 1169 -91 856 284 
Q 544 659 544 1381 
z
M 1991 3584 
L 1991 3584 
z
" transform="scale(0.015625)"/>
       <path id="DejaVuSans-6d" d="M 3328 2828 
Q 3544 3216 3844 3400 
Q 4144 3584 4550 3584 
Q 5097 3584 5394 3201 
Q 5691 2819 5691 2113 
L 5691 0 
L 5113 0 
L 5113 2094 
Q 5113 2597 4934 2840 
Q 4756 3084 4391 3084 
Q 3944 3084 3684 2787 
Q 3425 2491 3425 1978 
L 3425 0 
L 2847 0 
L 2847 2094 
Q 2847 2600 2669 2842 
Q 2491 3084 2119 3084 
Q 1678 3084 1418 2786 
Q 1159 2488 1159 1978 
L 1159 0 
L 581 0 
L 581 3500 
L 1159 3500 
L 1159 2956 
Q 1356 3278 1631 3431 
Q 1906 3584 2284 3584 
Q 2666 3584 2933 3390 
Q 3200 3197 3328 2828 
z
" transform="scale(0.015625)"/>
       <path id="DejaVuSans-62" d="M 3116 1747 
Q 3116 2381 2855 2742 
Q 2594 3103 2138 3103 
Q 1681 3103 1420 2742 
Q 1159 2381 1159 1747 
Q 1159 1113 1420 752 
Q 1681 391 2138 391 
Q 2594 391 2855 752 
Q 3116 1113 3116 1747 
z
M 1159 2969 
Q 1341 3281 1617 3432 
Q 1894 3584 2278 3584 
Q 2916 3584 3314 3078 
Q 3713 2572 3713 1747 
Q 3713 922 3314 415 
Q 2916 -91 2278 -91 
Q 1894 -91 1617 61 
Q 1341 213 1159 525 
L 1159 0 
L 581 0 
L 581 4863 
L 1159 4863 
L 1159 2969 
z
" transform="scale(0.015625)"/>
       <path id="DejaVuSans-65" d="M 3597 1894 
L 3597 1613 
L 953 1613 
Q 991 1019 1311 708 
Q 1631 397 2203 397 
Q 2534 397 2845 478 
Q 3156 559 3463 722 
L 3463 178 
Q 3153 47 2828 -22 
Q 2503 -91 2169 -91 
Q 1331 -91 842 396 
Q 353 884 353 1716 
Q 353 2575 817 3079 
Q 1281 3584 2069 3584 
Q 2775 3584 3186 3129 
Q 3597 2675 3597 1894 
z
M 3022 2063 
Q 3016 2534 2758 2815 
Q 2500 3097 2075 3097 
Q 1594 3097 1305 2825 
Q 1016 2553 972 2059 
L 3022 2063 
z
" transform="scale(0.015625)"/>
       <path id="DejaVuSans-72" d="M 2631 2963 
Q 2534 3019 2420 3045 
Q 2306 3072 2169 3072 
Q 1681 3072 1420 2755 
Q 1159 2438 1159 1844 
L 1159 0 
L 581 0 
L 581 3500 
L 1159 3500 
L 1159 2956 
Q 1341 3275 1631 3429 
Q 1922 3584 2338 3584 
Q 2397 3584 2469 3576 
Q 2541 3569 2628 3553 
L 2631 2963 
z
" transform="scale(0.015625)"/>
       <path id="DejaVuSans-20" transform="scale(0.015625)"/>
       <path id="DejaVuSans-6f" d="M 1959 3097 
Q 1497 3097 1228 2736 
Q 959 2375 959 1747 
Q 959 1119 1226 758 
Q 1494 397 1959 397 
Q 2419 397 2687 759 
Q 2956 1122 2956 1747 
Q 2956 2369 2687 2733 
Q 2419 3097 1959 3097 
z
M 1959 3584 
Q 2709 3584 3137 3096 
Q 3566 2609 3566 1747 
Q 3566 888 3137 398 
Q 2709 -91 1959 -91 
Q 1206 -91 779 398 
Q 353 888 353 1747 
Q 353 2609 779 3096 
Q 1206 3584 1959 3584 
z
" transform="scale(0.015625)"/>
       <path id="DejaVuSans-66" d="M 2375 4863 
L 2375 4384 
L 1825 4384 
Q 1516 4384 1395 4259 
Q 1275 4134 1275 3809 
L 1275 3500 
L 2222 3500 
L 2222 3053 
L 1275 3053 
L 1275 0 
L 697 0 
L 697 3053 
L 147 3053 
L 147 3500 
L 697 3500 
L 697 3744 
Q 697 4328 969 4595 
Q 1241 4863 1831 4863 
L 2375 4863 
z
" transform="scale(0.015625)"/>
       <path id="DejaVuSans-4f" d="M 2522 4238 
Q 1834 4238 1429 3725 
Q 1025 3213 1025 2328 
Q 1025 1447 1429 934 
Q 1834 422 2522 422 
Q 3209 422 3611 934 
Q 4013 1447 4013 2328 
Q 4013 3213 3611 3725 
Q 3209 4238 2522 4238 
z
M 2522 4750 
Q 3503 4750 4090 4092 
Q 4678 3434 4678 2328 
Q 4678 1225 4090 567 
Q 3503 -91 2522 -91 
Q 1538 -91 948 565 
Q 359 1222 359 2328 
Q 359 3434 948 4092 
Q 1538 4750 2522 4750 
z
" transform="scale(0.015625)"/>
       <path id="DejaVuSans-64" d="M 2906 2969 
L 2906 4863 
L 3481 4863 
L 3481 0 
L 2906 0 
L 2906 525 
Q 2725 213 2448 61 
Q 2172 -91 1784 -91 
Q 1150 -91 751 415 
Q 353 922 353 1747 
Q 353 2572 751 3078 
Q 1150 3584 1784 3584 
Q 2172 3584 2448 3432 
Q 2725 3281 2906 2969 
z
M 947 1747 
Q 947 1113 1208 752 
Q 1469 391 1925 391 
Q 2381 391 2643 752 
Q 2906 1113 2906 1747 
Q 2906 2381 2643 2742 
Q 2381 3103 1925 3103 
Q 1469 3103 1208 2742 
Q 947 2381 947 1747 
z
" transform="scale(0.015625)"/>
       <path id="DejaVuSans-73" d="M 2834 3397 
L 2834 2853 
Q 2591 2978 2328 3040 
Q 2066 3103 1784 3103 
Q 1356 3103 1142 2972 
Q 928 2841 928 2578 
Q 928 2378 1081 2264 
Q 1234 2150 1697 2047 
L 1894 2003 
Q 2506 1872 2764 1633 
Q 3022 1394 3022 966 
Q 3022 478 2636 193 
Q 2250 -91 1575 -91 
Q 1294 -91 989 -36 
Q 684 19 347 128 
L 347 722 
Q 666 556 975 473 
Q 1284 391 1588 391 
Q 1994 391 2212 530 
Q 2431 669 2431 922 
Q 2431 1156 2273 1281 
Q 2116 1406 1581 1522 
L 1381 1569 
Q 847 1681 609 1914 
Q 372 2147 372 2553 
Q 372 3047 722 3315 
Q 1072 3584 1716 3584 
Q 2034 3584 2315 3537 
Q 2597 3491 2834 3397 
z
" transform="scale(0.015625)"/>
      </defs>
      <use xlink:href="#DejaVuSans-4e"/>
      <use xlink:href="#DejaVuSans-75" x="74.804688"/>
      <use xlink:href="#DejaVuSans-6d" x="138.183594"/>
      <use xlink:href="#DejaVuSans-62" x="235.595703"/>
      <use xlink:href="#DejaVuSans-65" x="299.072266"/>
      <use xlink:href="#DejaVuSans-72" x="360.595703"/>
      <use xlink:href="#DejaVuSans-20" x="401.708984"/>
      <use xlink:href="#DejaVuSans-6f" x="433.496094"/>
      <use xlink:href="#DejaVuSans-66" x="494.677734"/>
      <use xlink:href="#DejaVuSans-20" x="529.882812"/>
      <use xlink:href="#DejaVuSans-4f" x="561.669922"/>
      <use xlink:href="#DejaVuSans-72" x="640.380859"/>
      <use xlink:href="#DejaVuSans-64" x="679.744141"/>
      <use xlink:href="#DejaVuSans-65" x="743.220703"/>
      <use xlink:href="#DejaVuSans-72" x="804.744141"/>
      <use xlink:href="#DejaVuSans-73" x="845.857422"/>
     </g>
    </g>
   </g>
   <g id="matplotlib.axis_2">
    <g id="ytick_1">
     <g id="line2d_10">
      <defs>
       <path id="ma60726a22a" d="M 0 0 
L -3.5 0 
" style="stroke: #000000; stroke-width: 0.8"/>
      </defs>
      <g>
       <use xlink:href="#ma60726a22a" x="57.6" y="300.951503" style="stroke: #000000; stroke-width: 0.8"/>
      </g>
     </g>
     <g id="text_11">
      <!-- 700 -->
      <g transform="translate(31.5125 304.750722)scale(0.1 -0.1)">
       <use xlink:href="#DejaVuSans-37"/>
       <use xlink:href="#DejaVuSans-30" x="63.623047"/>
       <use xlink:href="#DejaVuSans-30" x="127.246094"/>
      </g>
     </g>
    </g>
    <g id="ytick_2">
     <g id="line2d_11">
      <g>
       <use xlink:href="#ma60726a22a" x="57.6" y="262.05492" style="stroke: #000000; stroke-width: 0.8"/>
      </g>
     </g>
     <g id="text_12">
      <!-- 750 -->
      <g transform="translate(31.5125 265.854139)scale(0.1 -0.1)">
       <use xlink:href="#DejaVuSans-37"/>
       <use xlink:href="#DejaVuSans-35" x="63.623047"/>
       <use xlink:href="#DejaVuSans-30" x="127.246094"/>
      </g>
     </g>
    </g>
    <g id="ytick_3">
     <g id="line2d_12">
      <g>
       <use xlink:href="#ma60726a22a" x="57.6" y="223.158337" style="stroke: #000000; stroke-width: 0.8"/>
      </g>
     </g>
     <g id="text_13">
      <!-- 800 -->
      <g transform="translate(31.5125 226.957555)scale(0.1 -0.1)">
       <defs>
        <path id="DejaVuSans-38" d="M 2034 2216 
Q 1584 2216 1326 1975 
Q 1069 1734 1069 1313 
Q 1069 891 1326 650 
Q 1584 409 2034 409 
Q 2484 409 2743 651 
Q 3003 894 3003 1313 
Q 3003 1734 2745 1975 
Q 2488 2216 2034 2216 
z
M 1403 2484 
Q 997 2584 770 2862 
Q 544 3141 544 3541 
Q 544 4100 942 4425 
Q 1341 4750 2034 4750 
Q 2731 4750 3128 4425 
Q 3525 4100 3525 3541 
Q 3525 3141 3298 2862 
Q 3072 2584 2669 2484 
Q 3125 2378 3379 2068 
Q 3634 1759 3634 1313 
Q 3634 634 3220 271 
Q 2806 -91 2034 -91 
Q 1263 -91 848 271 
Q 434 634 434 1313 
Q 434 1759 690 2068 
Q 947 2378 1403 2484 
z
M 1172 3481 
Q 1172 3119 1398 2916 
Q 1625 2713 2034 2713 
Q 2441 2713 2670 2916 
Q 2900 3119 2900 3481 
Q 2900 3844 2670 4047 
Q 2441 4250 2034 4250 
Q 1625 4250 1398 4047 
Q 1172 3844 1172 3481 
z
" transform="scale(0.015625)"/>
       </defs>
       <use xlink:href="#DejaVuSans-38"/>
       <use xlink:href="#DejaVuSans-30" x="63.623047"/>
       <use xlink:href="#DejaVuSans-30" x="127.246094"/>
      </g>
     </g>
    </g>
    <g id="ytick_4">
     <g id="line2d_13">
      <g>
       <use xlink:href="#ma60726a22a" x="57.6" y="184.261753" style="stroke: #000000; stroke-width: 0.8"/>
      </g>
     </g>
     <g id="text_14">
      <!-- 850 -->
      <g transform="translate(31.5125 188.060972)scale(0.1 -0.1)">
       <use xlink:href="#DejaVuSans-38"/>
       <use xlink:href="#DejaVuSans-35" x="63.623047"/>
       <use xlink:href="#DejaVuSans-30" x="127.246094"/>
      </g>
     </g>
    </g>
    <g id="ytick_5">
     <g id="line2d_14">
      <g>
       <use xlink:href="#ma60726a22a" x="57.6" y="145.36517" style="stroke: #000000; stroke-width: 0.8"/>
      </g>
     </g>
     <g id="text_15">
      <!-- 900 -->
      <g transform="translate(31.5125 149.164389)scale(0.1 -0.1)">
       <defs>
        <path id="DejaVuSans-39" d="M 703 97 
L 703 672 
Q 941 559 1184 500 
Q 1428 441 1663 441 
Q 2288 441 2617 861 
Q 2947 1281 2994 2138 
Q 2813 1869 2534 1725 
Q 2256 1581 1919 1581 
Q 1219 1581 811 2004 
Q 403 2428 403 3163 
Q 403 3881 828 4315 
Q 1253 4750 1959 4750 
Q 2769 4750 3195 4129 
Q 3622 3509 3622 2328 
Q 3622 1225 3098 567 
Q 2575 -91 1691 -91 
Q 1453 -91 1209 -44 
Q 966 3 703 97 
z
M 1959 2075 
Q 2384 2075 2632 2365 
Q 2881 2656 2881 3163 
Q 2881 3666 2632 3958 
Q 2384 4250 1959 4250 
Q 1534 4250 1286 3958 
Q 1038 3666 1038 3163 
Q 1038 2656 1286 2365 
Q 1534 2075 1959 2075 
z
" transform="scale(0.015625)"/>
       </defs>
       <use xlink:href="#DejaVuSans-39"/>
       <use xlink:href="#DejaVuSans-30" x="63.623047"/>
       <use xlink:href="#DejaVuSans-30" x="127.246094"/>
      </g>
     </g>
    </g>
    <g id="ytick_6">
     <g id="line2d_15">
      <g>
       <use xlink:href="#ma60726a22a" x="57.6" y="106.468587" style="stroke: #000000; stroke-width: 0.8"/>
      </g>
     </g>
     <g id="text_16">
      <!-- 950 -->
      <g transform="translate(31.5125 110.267806)scale(0.1 -0.1)">
       <use xlink:href="#DejaVuSans-39"/>
       <use xlink:href="#DejaVuSans-35" x="63.623047"/>
       <use xlink:href="#DejaVuSans-30" x="127.246094"/>
      </g>
     </g>
    </g>
    <g id="ytick_7">
     <g id="line2d_16">
      <g>
       <use xlink:href="#ma60726a22a" x="57.6" y="67.572003" style="stroke: #000000; stroke-width: 0.8"/>
      </g>
     </g>
     <g id="text_17">
      <!-- 1000 -->
      <g transform="translate(25.15 71.371222)scale(0.1 -0.1)">
       <use xlink:href="#DejaVuSans-31"/>
       <use xlink:href="#DejaVuSans-30" x="63.623047"/>
       <use xlink:href="#DejaVuSans-30" x="127.246094"/>
       <use xlink:href="#DejaVuSans-30" x="190.869141"/>
      </g>
     </g>
    </g>
    <g id="text_18">
     <!-- Waiting Time/s -->
     <g transform="translate(19.070312 211.410031)rotate(-90)scale(0.1 -0.1)">
      <defs>
       <path id="DejaVuSans-57" d="M 213 4666 
L 850 4666 
L 1831 722 
L 2809 4666 
L 3519 4666 
L 4500 722 
L 5478 4666 
L 6119 4666 
L 4947 0 
L 4153 0 
L 3169 4050 
L 2175 0 
L 1381 0 
L 213 4666 
z
" transform="scale(0.015625)"/>
       <path id="DejaVuSans-61" d="M 2194 1759 
Q 1497 1759 1228 1600 
Q 959 1441 959 1056 
Q 959 750 1161 570 
Q 1363 391 1709 391 
Q 2188 391 2477 730 
Q 2766 1069 2766 1631 
L 2766 1759 
L 2194 1759 
z
M 3341 1997 
L 3341 0 
L 2766 0 
L 2766 531 
Q 2569 213 2275 61 
Q 1981 -91 1556 -91 
Q 1019 -91 701 211 
Q 384 513 384 1019 
Q 384 1609 779 1909 
Q 1175 2209 1959 2209 
L 2766 2209 
L 2766 2266 
Q 2766 2663 2505 2880 
Q 2244 3097 1772 3097 
Q 1472 3097 1187 3025 
Q 903 2953 641 2809 
L 641 3341 
Q 956 3463 1253 3523 
Q 1550 3584 1831 3584 
Q 2591 3584 2966 3190 
Q 3341 2797 3341 1997 
z
" transform="scale(0.015625)"/>
       <path id="DejaVuSans-69" d="M 603 3500 
L 1178 3500 
L 1178 0 
L 603 0 
L 603 3500 
z
M 603 4863 
L 1178 4863 
L 1178 4134 
L 603 4134 
L 603 4863 
z
" transform="scale(0.015625)"/>
       <path id="DejaVuSans-74" d="M 1172 4494 
L 1172 3500 
L 2356 3500 
L 2356 3053 
L 1172 3053 
L 1172 1153 
Q 1172 725 1289 603 
Q 1406 481 1766 481 
L 2356 481 
L 2356 0 
L 1766 0 
Q 1100 0 847 248 
Q 594 497 594 1153 
L 594 3053 
L 172 3053 
L 172 3500 
L 594 3500 
L 594 4494 
L 1172 4494 
z
" transform="scale(0.015625)"/>
       <path id="DejaVuSans-6e" d="M 3513 2113 
L 3513 0 
L 2938 0 
L 2938 2094 
Q 2938 2591 2744 2837 
Q 2550 3084 2163 3084 
Q 1697 3084 1428 2787 
Q 1159 2491 1159 1978 
L 1159 0 
L 581 0 
L 581 3500 
L 1159 3500 
L 1159 2956 
Q 1366 3272 1645 3428 
Q 1925 3584 2291 3584 
Q 2894 3584 3203 3211 
Q 3513 2838 3513 2113 
z
" transform="scale(0.015625)"/>
       <path id="DejaVuSans-67" d="M 2906 1791 
Q 2906 2416 2648 2759 
Q 2391 3103 1925 3103 
Q 1463 3103 1205 2759 
Q 947 2416 947 1791 
Q 947 1169 1205 825 
Q 1463 481 1925 481 
Q 2391 481 2648 825 
Q 2906 1169 2906 1791 
z
M 3481 434 
Q 3481 -459 3084 -895 
Q 2688 -1331 1869 -1331 
Q 1566 -1331 1297 -1286 
Q 1028 -1241 775 -1147 
L 775 -588 
Q 1028 -725 1275 -790 
Q 1522 -856 1778 -856 
Q 2344 -856 2625 -561 
Q 2906 -266 2906 331 
L 2906 616 
Q 2728 306 2450 153 
Q 2172 0 1784 0 
Q 1141 0 747 490 
Q 353 981 353 1791 
Q 353 2603 747 3093 
Q 1141 3584 1784 3584 
Q 2172 3584 2450 3431 
Q 2728 3278 2906 2969 
L 2906 3500 
L 3481 3500 
L 3481 434 
z
" transform="scale(0.015625)"/>
       <path id="DejaVuSans-54" d="M -19 4666 
L 3928 4666 
L 3928 4134 
L 2272 4134 
L 2272 0 
L 1638 0 
L 1638 4134 
L -19 4134 
L -19 4666 
z
" transform="scale(0.015625)"/>
       <path id="DejaVuSans-2f" d="M 1625 4666 
L 2156 4666 
L 531 -594 
L 0 -594 
L 1625 4666 
z
" transform="scale(0.015625)"/>
      </defs>
      <use xlink:href="#DejaVuSans-57"/>
      <use xlink:href="#DejaVuSans-61" x="92.501953"/>
      <use xlink:href="#DejaVuSans-69" x="153.78125"/>
      <use xlink:href="#DejaVuSans-74" x="181.564453"/>
      <use xlink:href="#DejaVuSans-69" x="220.773438"/>
      <use xlink:href="#DejaVuSans-6e" x="248.556641"/>
      <use xlink:href="#DejaVuSans-67" x="311.935547"/>
      <use xlink:href="#DejaVuSans-20" x="375.412109"/>
      <use xlink:href="#DejaVuSans-54" x="407.199219"/>
      <use xlink:href="#DejaVuSans-69" x="465.158203"/>
      <use xlink:href="#DejaVuSans-6d" x="492.941406"/>
      <use xlink:href="#DejaVuSans-65" x="590.353516"/>
      <use xlink:href="#DejaVuSans-2f" x="651.876953"/>
      <use xlink:href="#DejaVuSans-73" x="685.568359"/>
     </g>
    </g>
   </g>
   <g id="line2d_17">
    <path d="M 73.832727 280.612475 
L 73.995136 295.488 
L 74.157544 291.242349 
L 74.319953 265.62553 
L 74.482361 278.945022 
L 74.64477 272.1621 
L 74.969587 205.095405 
L 75.131995 209.94133 
L 75.456812 159.295995 
L 75.619221 157.232823 
L 75.781629 169.593375 
L 75.944037 170.182585 
L 76.106446 171.650647 
L 76.593671 152.760833 
L 76.75608 153.116763 
L 76.918488 139.72531 
L 77.243305 152.010441 
L 77.568122 161.633532 
L 77.730531 161.323998 
L 77.892939 165.843893 
L 78.055348 153.087986 
L 78.217756 158.971648 
L 78.380165 144.242688 
L 78.542573 141.070916 
L 78.704982 142.210735 
L 78.86739 137.306985 
L 79.029799 142.089559 
L 79.354615 142.370634 
L 79.517024 142.850341 
L 79.679432 146.183363 
L 79.841841 145.638261 
L 80.004249 137.084285 
L 80.166658 138.540934 
L 80.329066 142.619737 
L 80.653883 131.007457 
L 80.816292 125.214806 
L 81.141109 129.643331 
L 81.303517 131.902065 
L 81.465926 122.553648 
L 81.628334 119.773815 
L 81.790743 121.219499 
L 81.953151 116.758554 
L 82.11556 118.726051 
L 82.277968 114.404149 
L 82.440377 115.531916 
L 82.602785 110.380167 
L 83.09001 106.867584 
L 83.252419 107.497858 
L 83.577236 99.852282 
L 83.739644 99.645314 
L 84.064461 96.361533 
L 84.22687 93.038292 
L 84.714095 102.387111 
L 84.876504 104.278399 
L 85.038912 103.410357 
L 85.201321 105.748604 
L 85.363729 105.816742 
L 85.526138 102.753372 
L 85.688546 105.021798 
L 85.850955 104.776425 
L 86.013363 106.989196 
L 86.175772 105.438692 
L 86.500588 99.495293 
L 86.987814 103.77843 
L 88.124673 90.764271 
L 88.287082 90.761424 
L 88.611899 87.681131 
L 88.774307 90.670595 
L 89.099124 91.529932 
L 89.423941 87.225309 
L 89.58635 87.749034 
L 89.748758 86.568815 
L 89.911166 86.615442 
L 90.073575 82.10908 
L 90.235983 81.40507 
L 90.5608 83.960901 
L 90.723209 83.632841 
L 90.885617 84.582475 
L 91.048026 84.36615 
L 91.210434 83.666194 
L 91.535251 86.404427 
L 91.69766 87.231853 
L 92.022477 85.526333 
L 92.184885 83.514594 
L 92.509702 86.428217 
L 92.834519 84.327127 
L 92.996928 85.22419 
L 93.159336 86.992551 
L 93.646561 83.194383 
L 93.80897 80.134901 
L 93.971378 81.919942 
L 94.133787 81.792729 
L 94.458604 77.967789 
L 94.621012 76.599689 
L 94.783421 77.450112 
L 94.945829 74.475556 
L 95.108238 75.33205 
L 95.433055 75.982692 
L 95.595463 75.76286 
L 95.757872 77.188671 
L 96.245097 72.713997 
L 96.407506 74.002835 
L 96.569914 72.80753 
L 96.732323 73.067174 
L 96.894731 71.844857 
L 97.057139 72.409642 
L 97.219548 70.667406 
L 97.544365 72.974208 
L 97.706773 72.752639 
L 97.869182 73.08073 
L 98.03159 72.567156 
L 98.193999 72.949389 
L 98.518816 71.657712 
L 98.681224 72.179515 
L 98.843633 73.70646 
L 99.006041 71.890918 
L 99.330858 71.785889 
L 99.493267 72.287908 
L 99.655675 70.692533 
L 99.818084 71.526591 
L 99.980492 71.041906 
L 100.142901 69.620001 
L 100.305309 70.272357 
L 100.467717 69.668327 
L 100.630126 69.95713 
L 100.792534 71.268031 
L 100.954943 71.143433 
L 101.117351 70.098914 
L 101.27976 71.652555 
L 101.442168 70.747028 
L 101.604577 71.944427 
L 101.766985 71.010169 
L 101.929394 70.865243 
L 102.091802 70.425015 
L 102.254211 70.544835 
L 102.416619 72.133431 
L 102.579028 71.021127 
L 102.741436 72.528766 
L 103.066253 69.961612 
L 103.228662 69.55527 
L 103.39107 68.644931 
L 103.553479 69.208531 
L 103.715887 68.968466 
L 103.878296 69.942764 
L 104.040704 68.713863 
L 104.203112 68.673135 
L 104.365521 68.292112 
L 104.527929 67.15244 
L 104.690338 67.94036 
L 105.177563 64.806501 
L 105.50238 64.12837 
L 105.827197 60.662865 
L 105.989606 60.566879 
L 106.152014 61.514514 
L 106.314423 61.002885 
L 106.476831 61.496733 
L 106.63924 60.655149 
L 106.801648 60.867798 
L 106.964057 61.366301 
L 107.126465 61.255221 
L 107.288874 61.002908 
L 107.451282 61.083812 
L 107.61369 62.02024 
L 107.938507 61.191386 
L 108.100916 61.089014 
L 108.425733 62.746991 
L 108.75055 60.838475 
L 108.912958 60.346851 
L 109.075367 61.331688 
L 109.562592 60.542027 
L 109.725001 61.148711 
L 109.887409 61.254082 
L 110.049818 60.254866 
L 110.212226 61.035559 
L 110.374635 59.916369 
L 110.699452 61.961997 
L 110.86186 61.888822 
L 111.024268 62.088595 
L 111.511494 63.851963 
L 111.673902 63.838248 
L 111.836311 63.016314 
L 111.998719 63.534342 
L 112.161128 63.465273 
L 112.485945 61.674389 
L 112.648353 62.053376 
L 112.810762 63.036281 
L 112.97317 63.108637 
L 113.135579 62.738145 
L 113.460396 64.130014 
L 113.622804 63.845401 
L 113.785213 64.361803 
L 114.434847 61.071438 
L 114.597255 61.257377 
L 114.759663 60.800075 
L 114.922072 61.099761 
L 115.08448 60.353931 
L 115.246889 60.134822 
L 115.409297 61.015057 
L 115.571706 60.425592 
L 115.734114 60.848069 
L 116.058931 62.281232 
L 116.22134 61.904303 
L 116.383748 62.061083 
L 116.546157 61.94986 
L 116.708565 62.260815 
L 116.870974 61.818029 
L 117.033382 60.710233 
L 117.195791 61.136912 
L 117.358199 60.044999 
L 117.520608 60.3801 
L 117.683016 60.429769 
L 117.845425 60.827303 
L 118.170241 59.945568 
L 118.33265 60.395727 
L 118.495058 60.515035 
L 118.819875 61.294055 
L 119.144692 61.978705 
L 119.307101 61.994576 
L 119.469509 62.147074 
L 119.956735 60.852634 
L 120.119143 60.952853 
L 120.44396 60.785544 
L 120.931186 62.421521 
L 121.093594 61.797031 
L 121.256003 61.691514 
L 121.418411 61.276974 
L 121.743228 62.475786 
L 121.905636 62.546122 
L 122.55527 64.077023 
L 122.717679 64.208421 
L 122.880087 64.797779 
L 123.204904 62.433264 
L 123.367313 62.263507 
L 123.69213 61.336664 
L 124.016947 62.323975 
L 124.341764 60.906268 
L 124.666581 61.006668 
L 124.828989 60.877445 
L 124.991398 61.496691 
L 125.153806 61.375179 
L 125.316214 61.532782 
L 125.478623 62.045927 
L 125.80344 61.429371 
L 125.965848 61.48454 
L 126.290665 62.379658 
L 126.453074 62.128523 
L 126.615482 62.477868 
L 126.940299 62.24879 
L 127.265116 60.864661 
L 127.589933 60.419715 
L 127.91475 60.130363 
L 128.077159 60.39785 
L 128.239567 60.294418 
L 128.401976 60.573823 
L 128.564384 60.438385 
L 128.726792 60.639775 
L 128.889201 60.61098 
L 129.051609 60.161126 
L 129.214018 60.236075 
L 129.376426 60.846547 
L 129.538835 61.023663 
L 129.863652 60.659603 
L 130.02606 61.034811 
L 130.188469 60.875767 
L 130.350877 60.424803 
L 130.513286 60.320852 
L 130.675694 60.403531 
L 131.000511 60.094338 
L 131.16292 59.482406 
L 131.325328 59.726403 
L 131.487737 59.410727 
L 131.812554 60.040647 
L 131.974962 59.879596 
L 132.299779 57.836691 
L 132.624596 57.266087 
L 132.949413 58.140409 
L 133.27423 57.850858 
L 133.436638 56.866672 
L 133.599047 57.095915 
L 133.761455 56.816615 
L 133.923864 56.836874 
L 134.086272 56.170669 
L 134.248681 56.487097 
L 134.898315 54.962543 
L 135.060723 54.922298 
L 135.223132 55.442595 
L 135.38554 54.891378 
L 135.710357 55.849257 
L 135.872765 55.475874 
L 136.197582 56.564708 
L 136.522399 57.263197 
L 136.847216 56.825015 
L 137.009625 56.996679 
L 137.172033 57.600413 
L 137.821667 55.702534 
L 138.146484 55.947366 
L 138.308893 55.874841 
L 138.471301 55.562898 
L 138.63371 54.755297 
L 139.120935 55.334925 
L 139.445752 56.138572 
L 139.770569 54.867813 
L 139.932977 55.022753 
L 140.257794 55.941565 
L 140.420203 55.87127 
L 140.582611 56.39621 
L 140.74502 56.22379 
L 140.907428 56.26845 
L 141.069837 56.494688 
L 141.232245 56.094254 
L 141.557062 56.397063 
L 141.719471 56.208867 
L 141.881879 56.841315 
L 142.044288 56.631919 
L 142.206696 56.69144 
L 142.369105 57.273896 
L 142.531513 57.379411 
L 142.85633 58.412158 
L 143.181147 59.023411 
L 143.343555 58.97901 
L 143.668372 59.454299 
L 143.830781 59.126444 
L 143.993189 59.219886 
L 144.155598 58.777888 
L 144.318006 59.325118 
L 144.480415 59.089026 
L 144.642823 59.543231 
L 144.805232 59.379596 
L 144.96764 59.395825 
L 145.292457 58.939271 
L 145.617274 58.156881 
L 145.779683 58.124884 
L 145.942091 57.528419 
L 146.1045 57.842192 
L 146.266908 56.923234 
L 146.429316 57.423126 
L 146.591725 57.288559 
L 146.754133 57.534055 
L 146.916542 56.893262 
L 147.403767 56.583221 
L 147.566176 56.836644 
L 147.728584 56.750001 
L 148.053401 55.823605 
L 148.21581 56.103974 
L 148.378218 55.785526 
L 148.540627 54.968738 
L 148.865444 54.510695 
L 149.027852 54.813795 
L 149.352669 55.657107 
L 149.515078 56.036537 
L 149.677486 56.041321 
L 149.839894 56.329261 
L 150.002303 56.042033 
L 150.164711 56.140099 
L 150.489528 56.621356 
L 150.814345 55.996405 
L 151.139162 56.175834 
L 151.301571 56.048993 
L 151.463979 56.235383 
L 151.626388 55.9031 
L 152.43843 57.271825 
L 152.600839 57.53599 
L 152.925656 57.237653 
L 153.088064 57.120455 
L 153.250473 57.642971 
L 153.412881 57.3879 
L 153.900106 57.861776 
L 154.224923 58.515905 
L 154.387332 58.33208 
L 154.712149 57.69178 
L 155.361783 57.6615 
L 155.524191 57.127566 
L 155.6866 57.12787 
L 155.849008 56.94555 
L 156.336234 57.830187 
L 156.498642 57.40552 
L 156.823459 57.327579 
L 157.473093 56.237518 
L 157.635501 55.394775 
L 157.79791 55.48585 
L 157.960318 55.274739 
L 158.285135 55.543351 
L 158.447544 55.158779 
L 158.934769 55.458387 
L 159.097178 55.436331 
L 159.259586 54.975081 
L 159.421995 54.875724 
L 159.584403 54.970058 
L 159.746812 55.297889 
L 159.90922 54.785933 
L 160.234037 55.265207 
L 160.396445 55.188794 
L 160.558854 55.377324 
L 160.721262 55.021552 
L 160.883671 55.206356 
L 161.046079 54.725947 
L 161.370896 55.029979 
L 161.533305 55.00609 
L 161.695713 55.174347 
L 161.858122 54.863337 
L 162.02053 54.849499 
L 162.182939 55.024862 
L 162.507756 54.064002 
L 162.670164 53.978413 
L 163.482207 54.838863 
L 163.644615 54.954101 
L 163.969432 55.544671 
L 164.456657 55.981123 
L 164.619066 56.143576 
L 164.943883 55.553162 
L 165.106291 56.072113 
L 165.2687 56.138374 
L 165.431108 56.457202 
L 165.593517 56.377007 
L 165.755925 56.471869 
L 166.080742 56.339081 
L 166.243151 56.831132 
L 166.567968 56.546985 
L 166.892785 56.418822 
L 167.217602 56.861166 
L 167.38001 56.794192 
L 167.542418 56.459461 
L 167.867235 57.044272 
L 168.192052 56.508407 
L 168.354461 56.746018 
L 168.516869 56.497889 
L 168.679278 56.58958 
L 169.328912 55.466938 
L 169.49132 55.261876 
L 169.653729 55.245703 
L 169.816137 55.610687 
L 169.978546 55.568346 
L 170.140954 55.717052 
L 170.303363 55.674743 
L 170.62818 55.430204 
L 170.790588 55.59974 
L 171.115405 55.560692 
L 171.277813 55.369588 
L 171.440222 55.614573 
L 171.765039 55.012357 
L 171.927447 55.073038 
L 172.089856 55.379351 
L 172.577081 55.28064 
L 172.73949 55.343735 
L 173.226715 56.012001 
L 173.389124 55.875594 
L 173.713941 56.431917 
L 173.876349 56.28359 
L 174.038758 56.519869 
L 174.363575 56.006058 
L 174.525983 56.238909 
L 174.688391 56.053586 
L 174.8508 56.232522 
L 175.175617 55.936164 
L 175.500434 56.331874 
L 175.662842 56.127015 
L 175.987659 56.838345 
L 176.312476 56.376039 
L 176.474885 56.613678 
L 176.799702 55.795996 
L 177.124519 56.356287 
L 177.449336 56.735022 
L 177.611744 56.956702 
L 177.774153 56.943552 
L 178.098969 56.596444 
L 178.261378 56.282551 
L 178.423786 56.33466 
L 178.586195 55.999442 
L 178.911012 56.541768 
L 179.07342 56.538386 
L 179.398237 57.204268 
L 179.560646 56.956242 
L 179.723054 57.426406 
L 179.885463 57.529952 
L 180.372688 57.296989 
L 180.535097 57.367196 
L 180.859914 56.802785 
L 181.184731 56.781262 
L 181.509548 57.066734 
L 181.671956 57.214625 
L 181.834364 57.558597 
L 181.996773 57.430029 
L 182.159181 57.474965 
L 182.32159 57.676717 
L 182.646407 57.425209 
L 183.620858 57.248306 
L 183.783266 56.947611 
L 183.945675 57.056059 
L 184.108083 56.986423 
L 184.4329 57.581764 
L 184.920126 57.887232 
L 185.082534 57.620221 
L 185.244942 57.826738 
L 185.569759 57.625175 
L 185.732168 57.95037 
L 185.894576 57.772639 
L 186.056985 57.405713 
L 186.219393 57.515653 
L 186.381802 57.412982 
L 186.54421 57.626491 
L 186.706619 57.458757 
L 187.031436 57.560648 
L 187.193844 57.283583 
L 187.518661 57.63794 
L 187.68107 57.195539 
L 187.843478 57.427354 
L 188.005887 57.463243 
L 188.493112 57.874728 
L 188.65552 57.625958 
L 189.142746 58.21044 
L 189.305154 58.322386 
L 189.467563 58.043404 
L 189.629971 58.197444 
L 189.79238 58.109541 
L 190.117197 58.383615 
L 190.442014 58.21144 
L 190.604422 58.336708 
L 190.766831 58.629458 
L 190.929239 58.335828 
L 191.254056 58.342625 
L 191.416465 58.426225 
L 191.578873 58.245933 
L 191.741282 58.3571 
L 191.90369 58.267183 
L 192.066099 58.464231 
L 192.228507 58.382549 
L 192.390915 58.463786 
L 192.553324 58.207415 
L 192.715732 58.587222 
L 192.878141 58.464609 
L 193.202958 58.723774 
L 193.690183 58.994653 
L 193.852592 58.854565 
L 194.177409 59.447431 
L 194.339817 59.307173 
L 194.664634 59.565081 
L 194.989451 59.854768 
L 195.476677 60.386402 
L 195.801493 59.97607 
L 196.12631 60.387487 
L 196.613536 61.298053 
L 196.775944 61.483109 
L 196.938353 61.338763 
L 197.26317 61.79938 
L 197.425578 61.637807 
L 197.587987 61.31021 
L 197.750395 61.277724 
L 198.075212 61.764247 
L 198.562438 61.587855 
L 198.724846 61.767474 
L 199.049663 61.685878 
L 199.212071 61.738575 
L 199.37448 61.967833 
L 199.536888 61.980343 
L 199.861705 62.210126 
L 200.024114 62.051543 
L 200.186522 61.654257 
L 200.348931 61.841647 
L 200.511339 61.822244 
L 200.673748 62.181927 
L 200.836156 62.19001 
L 201.160973 62.768761 
L 201.810607 62.68388 
L 201.973016 62.424654 
L 202.297833 62.703414 
L 202.62265 62.155396 
L 202.785058 62.435028 
L 202.947466 62.377919 
L 203.109875 62.464762 
L 203.434692 62.414043 
L 203.759509 63.046054 
L 204.409143 62.612661 
L 204.571551 62.781316 
L 204.73396 63.112173 
L 204.896368 63.058223 
L 205.708411 63.887514 
L 205.870819 64.241766 
L 206.195636 64.277505 
L 206.358044 63.898538 
L 207.170087 63.842588 
L 207.494904 64.118081 
L 207.657312 64.201599 
L 207.982129 64.580247 
L 208.469355 65.063335 
L 208.794172 64.997136 
L 209.118989 65.499448 
L 209.281397 65.438644 
L 209.768622 65.016501 
L 210.093439 64.931848 
L 210.255848 65.147028 
L 210.418256 64.957556 
L 210.580665 65.255568 
L 210.905482 65.169933 
L 211.06789 64.87144 
L 211.230299 64.833334 
L 211.555116 65.194817 
L 211.717524 65.117228 
L 212.042341 64.731061 
L 212.20475 64.766453 
L 212.367158 64.924314 
L 213.016792 64.503066 
L 213.179201 64.680604 
L 213.341609 64.649213 
L 213.666426 64.430101 
L 213.828834 64.431691 
L 213.991243 64.701449 
L 214.31606 64.4689 
L 214.478468 64.566358 
L 214.965694 64.192044 
L 215.128102 64.316722 
L 215.452919 64.730734 
L 215.615328 64.701903 
L 215.777736 64.504284 
L 215.940145 64.533887 
L 216.589779 65.289527 
L 216.914595 65.069353 
L 217.077004 65.315183 
L 217.401821 65.013499 
L 217.726638 64.463672 
L 218.213863 64.444333 
L 218.53868 64.732732 
L 218.863497 65.000096 
L 219.025906 64.856775 
L 219.188314 64.56205 
L 219.350723 64.734903 
L 219.513131 64.706996 
L 219.67554 64.879228 
L 219.837948 64.738471 
L 220.325173 65.023376 
L 220.64999 64.637181 
L 220.812399 64.849394 
L 220.974807 64.687938 
L 221.949258 64.744843 
L 222.111667 64.944082 
L 222.598892 64.836209 
L 222.761301 64.667193 
L 223.735752 65.591688 
L 224.547794 65.305549 
L 224.710202 65.479497 
L 225.035019 65.161865 
L 225.522245 65.634355 
L 225.847062 65.343996 
L 226.00947 65.206325 
L 226.171879 65.35457 
L 226.659104 65.186358 
L 226.983921 65.350847 
L 227.14633 65.078869 
L 227.308738 65.168614 
L 227.633555 64.744779 
L 228.283189 64.878793 
L 228.445597 64.781005 
L 228.770414 65.030981 
L 228.932823 64.753215 
L 229.095231 64.742166 
L 229.744865 64.042832 
L 230.069682 64.388273 
L 230.232091 64.324117 
L 230.394499 64.401882 
L 230.556908 64.286701 
L 230.719316 64.397473 
L 230.881724 64.320327 
L 231.531358 64.930304 
L 231.693767 64.861227 
L 231.856175 64.978948 
L 232.018584 64.84508 
L 232.180992 64.98754 
L 232.343401 64.611562 
L 232.505809 64.788658 
L 232.830626 64.683953 
L 233.155443 65.003988 
L 233.642669 64.624112 
L 233.967486 65.095343 
L 234.129894 64.936178 
L 234.292303 65.011708 
L 234.617119 64.698204 
L 234.941936 64.787062 
L 235.104345 64.632032 
L 235.266753 64.853656 
L 235.59157 64.867576 
L 235.753979 64.960494 
L 235.916387 64.721992 
L 236.566021 65.221189 
L 236.890838 65.250273 
L 237.053247 65.405977 
L 237.215655 65.232045 
L 237.378064 65.44558 
L 237.865289 65.006751 
L 238.190106 65.327696 
L 238.352514 65.359167 
L 238.514923 65.564097 
L 239.326965 65.19342 
L 239.976599 65.832793 
L 240.95105 64.966387 
L 241.113459 65.010621 
L 241.438276 65.462444 
L 241.763092 65.175309 
L 241.925501 65.226425 
L 242.250318 65.07468 
L 242.412726 65.130625 
L 242.575135 65.039746 
L 242.737543 64.770645 
L 243.711994 64.612209 
L 243.874403 64.3938 
L 244.19922 64.56405 
L 244.524037 64.938584 
L 245.011262 64.907623 
L 245.17367 65.070769 
L 245.336079 64.927613 
L 245.660896 65.066659 
L 245.985713 65.226857 
L 246.31053 65.230117 
L 246.635347 65.261953 
L 247.284981 65.512207 
L 247.447389 65.633456 
L 247.934615 65.440043 
L 248.097023 65.243239 
L 248.259432 65.316382 
L 248.746657 65.833245 
L 248.909065 65.841745 
L 249.071474 66.085004 
L 249.233882 65.987428 
L 249.721108 66.223318 
L 249.883516 66.087253 
L 250.045925 66.191506 
L 250.208333 65.97448 
L 250.695559 66.352473 
L 250.857967 66.154633 
L 251.182784 66.215111 
L 251.507601 65.793774 
L 251.994827 66.177128 
L 253.131686 66.76832 
L 253.294094 67.029105 
L 253.456503 66.974114 
L 253.618911 67.083455 
L 253.943728 66.914834 
L 254.106137 66.903119 
L 254.430954 67.150439 
L 254.593362 66.977306 
L 254.918179 67.036823 
L 255.080588 67.156371 
L 255.405405 66.97083 
L 255.567813 67.115745 
L 255.730221 67.085946 
L 256.055038 67.298876 
L 256.217447 67.292278 
L 256.379855 67.087745 
L 256.867081 67.50182 
L 257.191898 67.555757 
L 257.679123 67.2615 
L 258.00394 67.401359 
L 258.166349 67.408851 
L 258.815983 67.91013 
L 259.140799 67.658753 
L 259.628025 67.526469 
L 259.952842 67.740869 
L 260.11525 67.619042 
L 260.440067 67.768679 
L 260.927293 67.326263 
L 261.089701 67.400193 
L 261.414518 67.121132 
L 261.739335 67.4663 
L 261.901744 67.441161 
L 262.226561 67.792233 
L 262.388969 67.669696 
L 262.551378 67.821091 
L 262.876194 67.598107 
L 263.038603 67.35079 
L 263.36342 67.701579 
L 263.525828 67.606884 
L 263.688237 67.784373 
L 263.850645 67.752585 
L 264.013054 67.996304 
L 264.175462 67.972334 
L 264.662688 67.317988 
L 264.825096 67.432377 
L 265.47473 67.155238 
L 265.637139 67.306201 
L 265.799547 66.996482 
L 266.286772 67.108791 
L 266.449181 66.932748 
L 266.936406 66.922564 
L 267.098815 66.751385 
L 267.58604 66.841835 
L 267.748449 66.768829 
L 268.560491 66.990851 
L 268.7229 66.905295 
L 268.885308 66.9718 
L 269.047717 66.846043 
L 269.210125 66.994045 
L 269.372534 66.982004 
L 269.534942 67.194763 
L 269.69735 67.099131 
L 270.184576 67.555132 
L 270.346984 67.375289 
L 270.671801 67.445548 
L 270.83421 67.340339 
L 270.996618 67.516629 
L 271.159027 67.433526 
L 271.321435 67.561444 
L 271.483844 67.3931 
L 271.646252 67.435107 
L 271.971069 67.746961 
L 272.94552 67.263263 
L 273.107929 67.325011 
L 273.432745 67.150925 
L 273.757562 67.137949 
L 274.569605 67.0617 
L 274.732013 67.235125 
L 275.05683 67.201597 
L 275.381647 67.340364 
L 275.544056 67.241636 
L 275.706464 67.35665 
L 276.031281 67.35671 
L 276.19369 67.445146 
L 276.356098 67.241804 
L 277.330549 67.332418 
L 277.492957 67.532844 
L 278.142591 67.548587 
L 278.467408 67.264842 
L 278.629817 67.351257 
L 279.117042 67.109137 
L 279.766676 67.479779 
L 280.41631 66.919385 
L 280.741127 66.740736 
L 281.065944 66.726765 
L 281.715578 66.939041 
L 281.877986 66.881358 
L 282.202803 66.590046 
L 282.365212 66.523156 
L 282.852437 66.7593 
L 283.502071 66.715992 
L 283.66448 66.783716 
L 283.989296 66.485357 
L 284.63893 66.304719 
L 284.963747 65.843295 
L 285.288564 65.78291 
L 285.613381 65.914079 
L 285.77579 65.971047 
L 286.100607 65.794164 
L 286.587832 65.99488 
L 286.912649 65.836067 
L 287.075058 65.932557 
L 287.237466 65.839662 
L 287.562283 65.969493 
L 287.724691 65.841295 
L 288.861551 66.080835 
L 289.186368 66.137446 
L 289.511185 66.22441 
L 289.673593 66.16547 
L 289.99841 65.687145 
L 290.485636 65.976188 
L 290.648044 65.894144 
L 291.622495 66.138205 
L 291.947312 66.042252 
L 292.434537 66.248875 
L 292.759354 66.235195 
L 293.084171 66.59654 
L 294.221031 66.75964 
L 294.708256 66.45638 
L 294.870664 66.451025 
L 295.195481 66.778917 
L 296.332341 66.537668 
L 296.494749 66.372405 
L 296.981975 66.553565 
L 297.144383 66.423475 
L 297.4692 66.625072 
L 298.443651 66.28118 
L 298.606059 66.175859 
L 299.093285 66.53983 
L 299.255693 66.536612 
L 299.58051 66.316881 
L 300.067736 66.193913 
L 300.230144 66.07319 
L 300.879778 66.367728 
L 301.042187 66.164917 
L 301.529412 66.574335 
L 302.179046 66.069817 
L 302.82868 66.291512 
L 303.153497 65.90088 
L 303.478314 66.030391 
L 303.640722 65.907549 
L 303.803131 66.014938 
L 303.965539 65.703857 
L 304.127948 65.763977 
L 304.452765 65.551267 
L 304.615173 65.706416 
L 305.102398 65.281156 
L 305.264807 65.488986 
L 305.427215 65.483434 
L 305.589624 65.360124 
L 305.752032 65.428962 
L 306.076849 65.149129 
L 306.239258 65.22957 
L 306.726483 64.863239 
L 306.888892 65.01274 
L 307.213709 64.77365 
L 307.376117 64.793866 
L 307.700934 64.697674 
L 307.863343 64.806246 
L 308.350568 64.598513 
L 308.675385 64.505157 
L 309.16261 64.545498 
L 309.974653 64.473726 
L 310.137061 64.523674 
L 310.29947 64.424619 
L 310.624287 64.637329 
L 310.949104 64.443077 
L 311.436329 64.315785 
L 311.598738 64.176368 
L 311.923555 64.322937 
L 312.085963 64.241495 
L 312.41078 64.431474 
L 312.573188 64.184503 
L 313.060414 64.237657 
L 313.222822 64.079191 
L 313.872456 64.418502 
L 314.034865 64.419021 
L 314.197273 64.138966 
L 314.52209 64.131407 
L 314.684499 64.287528 
L 314.846907 64.201724 
L 315.171724 64.398705 
L 315.334133 64.494036 
L 315.496541 64.34296 
L 316.308583 64.51806 
L 316.470992 64.368326 
L 317.283034 64.49407 
L 317.607851 64.369569 
L 317.77026 64.435106 
L 317.932668 64.28085 
L 318.257485 64.40539 
L 318.744711 64.843109 
L 319.394344 64.863543 
L 319.556753 65.022631 
L 319.88157 64.737121 
L 320.206387 64.926978 
L 320.531204 65.216066 
L 320.693612 65.278249 
L 321.668063 64.86262 
L 321.830472 64.876725 
L 321.99288 65.01652 
L 322.155289 64.959449 
L 322.967331 65.202147 
L 323.616965 65.25139 
L 323.779373 65.061323 
L 323.941782 65.125786 
L 324.10419 64.993252 
L 324.591416 65.0368 
L 325.24105 64.672251 
L 325.565867 64.632868 
L 325.728275 64.684909 
L 326.2155 64.544431 
L 326.377909 64.565817 
L 326.540317 64.406051 
L 326.702726 64.534568 
L 327.027543 64.467042 
L 327.35236 64.550349 
L 327.677177 64.494801 
L 328.001994 64.635263 
L 328.489219 64.395045 
L 328.814036 64.369877 
L 329.301262 63.997929 
L 329.46367 64.017264 
L 329.950895 64.407365 
L 330.438121 64.638229 
L 330.600529 64.778615 
L 330.762938 64.705612 
L 330.925346 64.847652 
L 331.250163 64.665185 
L 331.57498 64.784537 
L 331.737389 64.687624 
L 332.387023 64.876777 
L 332.549431 64.766921 
L 332.874248 64.93336 
L 333.523882 64.807406 
L 333.848699 64.893866 
L 334.335924 65.037439 
L 334.660741 65.00012 
L 334.985558 64.988787 
L 335.310375 65.027465 
L 336.284826 65.00251 
L 336.447235 64.918851 
L 336.609643 65.025992 
L 337.096868 64.925645 
L 337.259277 65.08241 
L 337.584094 65.032725 
L 337.908911 65.069658 
L 338.071319 64.859297 
L 338.396136 64.935769 
L 338.720953 65.040157 
L 339.370587 64.860763 
L 340.182629 65.225363 
L 340.507446 65.03115 
L 340.669855 65.04815 
L 340.832263 64.903456 
L 340.994672 65.03564 
L 341.319489 65.040139 
L 341.481897 65.093125 
L 341.806714 64.967913 
L 342.131531 65.11045 
L 342.456348 64.861544 
L 343.105982 64.983796 
L 343.918024 64.678594 
L 344.242841 64.7779 
L 344.40525 64.848849 
L 344.567658 64.772927 
L 344.892475 65.000162 
L 345.054884 65.008294 
L 345.379701 64.812772 
L 345.704518 64.65023 
L 346.191743 64.65738 
L 346.354152 64.791454 
L 346.678969 64.745132 
L 347.166194 64.85555 
L 347.328602 64.707407 
L 347.491011 64.781953 
L 347.653419 64.661392 
L 347.978236 64.895825 
L 348.465462 64.782889 
L 348.62787 64.630518 
L 348.952687 64.799564 
L 349.277504 64.615463 
L 349.439913 64.470146 
L 350.576772 64.5064 
L 350.73918 64.391287 
L 350.901589 64.473454 
L 351.226406 64.260999 
L 351.388814 64.308434 
L 351.713631 64.09786 
L 351.87604 64.134629 
L 352.038448 64.027578 
L 352.200857 64.188379 
L 352.688082 64.034546 
L 352.850491 64.073845 
L 353.175308 63.727682 
L 353.337716 63.808821 
L 353.98735 63.678065 
L 354.636984 63.844094 
L 355.124209 63.622125 
L 355.286618 63.799004 
L 355.449026 63.652023 
L 355.936252 63.936318 
L 356.09866 63.678769 
L 356.423477 63.712742 
L 356.585886 63.439022 
L 356.748294 63.553645 
L 357.073111 63.329533 
L 357.23552 63.37429 
L 357.397928 63.301658 
L 357.722745 63.526341 
L 358.372379 63.010459 
L 358.534787 63.099431 
L 358.859604 62.930871 
L 359.34683 62.96355 
L 359.671647 63.055578 
L 360.158872 63.192795 
L 360.483689 63.075583 
L 360.970915 62.923918 
L 361.133323 63.091539 
L 361.295732 62.916183 
L 361.945365 62.947245 
L 362.270182 62.892978 
L 362.432591 62.966924 
L 362.594999 62.890778 
L 362.919816 62.945652 
L 363.082225 62.822557 
L 363.407042 63.015424 
L 363.56945 62.935934 
L 363.731859 62.729579 
L 365.193535 62.91796 
L 365.355943 62.746945 
L 365.68076 62.883066 
L 366.330394 62.922347 
L 366.81762 63.179212 
L 367.304845 62.875605 
L 367.629662 62.997344 
L 367.954479 62.928528 
L 370.065789 62.701509 
L 370.390606 62.472586 
L 371.527466 62.6258 
L 371.689874 62.766433 
L 371.852283 62.665497 
L 372.501916 63.027535 
L 372.826733 63.066803 
L 373.15155 62.910867 
L 373.476367 63.095583 
L 374.450818 63.451196 
L 374.613227 63.393434 
L 374.775635 63.541804 
L 375.100452 63.538114 
L 375.750086 63.794813 
L 376.074903 63.631124 
L 376.237311 63.697995 
L 376.39972 63.576465 
L 376.886945 63.758944 
L 377.211762 63.595232 
L 377.698988 63.9598 
L 378.023805 63.756151 
L 378.673439 63.635846 
L 378.835847 63.528351 
L 379.160664 63.744166 
L 379.323072 63.566008 
L 379.647889 63.706181 
L 380.135115 63.508544 
L 381.596791 63.281058 
L 381.7592 63.112758 
L 382.084017 63.03279 
L 382.571242 63.029699 
L 382.73365 62.835798 
L 383.058467 62.823155 
L 383.545693 62.57643 
L 383.87051 62.466938 
L 384.520144 62.712796 
L 385.007369 62.755527 
L 385.332186 62.5669 
L 385.657003 62.735991 
L 386.631454 62.691505 
L 386.793862 62.742172 
L 386.956271 62.591304 
L 387.443496 62.882761 
L 387.768313 62.988403 
L 388.09313 63.038184 
L 388.417947 63.049803 
L 388.742764 62.854651 
L 389.067581 62.865403 
L 389.554806 62.772824 
L 389.717215 62.88544 
L 390.20444 62.803962 
L 390.529257 62.831134 
L 391.503708 62.704327 
L 391.990934 62.822509 
L 392.315751 62.751171 
L 392.478159 62.62774 
L 392.802976 62.680981 
L 392.965385 62.585446 
L 393.290201 62.617796 
L 393.45261 62.591142 
L 393.777427 62.715863 
L 394.264652 62.744852 
L 394.589469 62.850125 
L 394.914286 62.663014 
L 395.401512 62.905779 
L 395.56392 62.775125 
L 395.888737 62.882556 
L 396.213554 62.674909 
L 397.025596 62.52555 
L 397.350413 62.404442 
L 398.000047 62.421081 
L 398.324864 62.299075 
L 398.487273 62.157295 
L 398.487273 62.157295 
" clip-path="url(#p6342cba5c9)" style="fill: none; stroke-dasharray: 2,3.3; stroke-dashoffset: 0; stroke: #0000ff; stroke-width: 2"/>
   </g>
   <g id="line2d_18">
    <path d="M 73.832727 280.612475 
L 73.995136 295.488 
L 74.157544 291.242349 
L 74.319953 265.62553 
L 74.482361 278.945022 
L 74.64477 272.1621 
L 74.969587 205.095405 
L 75.131995 209.94133 
L 75.456812 159.295995 
L 75.619221 173.140799 
L 75.781629 170.171348 
L 76.106446 186.303287 
L 76.268854 185.774476 
L 76.431263 186.152654 
L 76.918488 166.976521 
L 77.080897 166.621616 
L 77.243305 153.83371 
L 77.405714 162.290936 
L 77.568122 164.874224 
L 77.892939 172.767556 
L 78.055348 177.597456 
L 78.217756 176.750946 
L 78.380165 164.498651 
L 78.542573 169.609714 
L 78.86739 150.955562 
L 79.029799 151.726767 
L 79.192207 146.83159 
L 79.354615 151.068742 
L 79.679432 150.849262 
L 79.841841 151.0806 
L 80.004249 154.031665 
L 80.329066 151.712547 
L 80.491475 143.624943 
L 80.653883 143.75572 
L 80.816292 147.437905 
L 81.141109 134.026813 
L 81.303517 135.261519 
L 81.465926 132.111835 
L 81.953151 138.159662 
L 82.11556 135.939038 
L 82.277968 128.538725 
L 82.440377 131.147747 
L 82.765194 124.321991 
L 82.927602 120.205206 
L 83.252419 122.487245 
L 83.414827 117.648888 
L 83.739644 114.526919 
L 83.902053 114.995599 
L 84.22687 107.58982 
L 84.389278 108.129609 
L 84.551687 107.814545 
L 84.714095 109.174294 
L 85.201321 105.206018 
L 85.363729 106.979351 
L 85.526138 107.029696 
L 85.850955 101.69978 
L 86.013363 101.501346 
L 86.33818 105.447545 
L 86.500588 102.544369 
L 86.662997 104.046809 
L 86.987814 99.048381 
L 87.150222 101.168405 
L 87.312631 98.25886 
L 87.475039 101.405241 
L 87.637448 101.993009 
L 87.799856 101.174713 
L 88.124673 95.92145 
L 88.287082 95.767239 
L 88.611899 88.51692 
L 88.774307 88.53833 
L 89.099124 85.266487 
L 89.261533 85.625818 
L 89.423941 83.595193 
L 89.58635 84.120037 
L 89.748758 82.535334 
L 89.911166 83.230133 
L 90.5608 80.194428 
L 90.885617 83.87184 
L 91.048026 83.550744 
L 91.372843 84.979578 
L 91.69766 84.638549 
L 91.860068 83.961159 
L 92.022477 84.65094 
L 92.184885 82.64688 
L 92.347294 84.292897 
L 92.672111 82.378495 
L 92.834519 82.085614 
L 92.996928 83.354396 
L 93.159336 82.469277 
L 93.321745 82.664572 
L 93.484153 84.424925 
L 93.646561 83.076235 
L 93.971378 79.983999 
L 94.133787 80.865695 
L 94.296195 82.61687 
L 94.783421 77.784335 
L 94.945829 77.693546 
L 95.270646 74.068067 
L 95.433055 73.04473 
L 95.595463 73.889988 
L 95.92028 69.789837 
L 96.082689 70.0777 
L 96.245097 69.906676 
L 96.407506 71.33358 
L 96.569914 70.314273 
L 96.732323 71.601858 
L 96.894731 70.440061 
L 97.057139 70.712539 
L 97.219548 71.281238 
L 97.544365 68.885526 
L 97.869182 71.185281 
L 98.03159 70.978593 
L 98.193999 70.158781 
L 98.356407 70.930978 
L 98.518816 72.275871 
L 98.681224 72.596406 
L 98.843633 72.102523 
L 99.006041 72.475484 
L 99.330858 75.12064 
L 99.493267 75.039305 
L 99.655675 72.970158 
L 99.818084 72.920646 
L 99.980492 73.406364 
L 100.142901 71.346057 
L 100.305309 70.868385 
L 100.792534 73.08688 
L 100.954943 72.951455 
L 101.117351 71.896238 
L 101.27976 73.439306 
L 101.929394 70.370307 
L 102.091802 69.943146 
L 102.254211 70.065704 
L 102.579028 73.169542 
L 103.066253 69.370793 
L 103.228662 68.967697 
L 103.39107 68.060569 
L 103.553479 68.627345 
L 103.715887 68.390421 
L 103.878296 69.367826 
L 104.040704 68.142 
L 104.203112 68.21438 
L 104.365521 67.835784 
L 104.690338 65.738139 
L 104.852746 66.529321 
L 105.177563 63.793247 
L 105.50238 65.190901 
L 105.827197 64.515737 
L 106.314423 63.146502 
L 106.476831 61.986605 
L 106.63924 61.88599 
L 106.801648 62.808577 
L 106.964057 60.457964 
L 107.288874 60.232983 
L 107.451282 60.727349 
L 107.776099 60.229159 
L 107.938507 61.160762 
L 108.100916 60.691131 
L 108.263324 60.76583 
L 108.425733 61.652288 
L 108.75055 61.206627 
L 109.237775 63.311322 
L 109.400184 63.192581 
L 109.562592 63.974111 
L 109.725001 63.61281 
L 110.049818 61.145665 
L 110.212226 61.250113 
L 110.537043 59.148915 
L 110.699452 59.439723 
L 111.024268 61.471708 
L 111.349085 61.111263 
L 111.836311 63.048146 
L 111.998719 62.233043 
L 112.161128 62.75219 
L 112.323536 62.686698 
L 112.485945 61.914583 
L 112.648353 62.292569 
L 112.97317 63.705375 
L 113.297987 63.620015 
L 113.785213 59.816771 
L 114.11003 58.805234 
L 114.434847 57.302366 
L 114.597255 58.26122 
L 114.759663 57.91289 
L 114.922072 58.267704 
L 115.08448 57.825713 
L 115.409297 58.360212 
L 115.571706 57.633673 
L 115.734114 56.199727 
L 115.896523 56.538777 
L 116.058931 56.338483 
L 116.22134 56.941321 
L 116.383748 56.378552 
L 116.546157 56.808357 
L 116.870974 58.244955 
L 117.033382 57.890202 
L 117.195791 58.059034 
L 117.358199 58.907719 
L 117.520608 58.810647 
L 117.683016 59.149066 
L 117.845425 59.203078 
L 118.170241 60.025024 
L 118.495058 59.159884 
L 118.657467 59.609629 
L 118.819875 59.730907 
L 118.982284 60.090546 
L 119.144692 60.113217 
L 119.307101 60.272953 
L 119.794326 58.993753 
L 119.956735 58.929159 
L 120.281552 59.733631 
L 120.44396 59.641278 
L 120.931186 61.289052 
L 121.093594 60.66844 
L 121.256003 60.566775 
L 121.418411 60.156061 
L 121.58082 60.620214 
L 121.743228 59.882359 
L 121.905636 59.961428 
L 122.068045 59.343117 
L 122.230453 59.179721 
L 122.717679 60.140441 
L 122.880087 60.284397 
L 123.042496 59.348688 
L 123.529721 60.319483 
L 123.69213 59.981957 
L 124.016947 60.978008 
L 124.504172 59.103921 
L 124.666581 59.094345 
L 124.828989 58.971193 
L 124.991398 59.596471 
L 125.153806 59.584927 
L 125.316214 59.74816 
L 125.478623 60.2669 
L 125.80344 59.661427 
L 125.965848 59.722087 
L 126.453074 61.257385 
L 126.615482 61.010463 
L 126.777891 61.362159 
L 126.940299 61.152373 
L 127.102708 60.461794 
L 127.265116 60.330857 
L 127.427525 60.350743 
L 127.589933 60.888886 
L 127.91475 60.289321 
L 128.077159 60.158191 
L 128.239567 60.424799 
L 128.564384 60.159954 
L 128.889201 60.827967 
L 129.214018 60.990163 
L 129.376426 61.598436 
L 129.538835 61.149635 
L 129.863652 61.396077 
L 130.02606 61.117039 
L 130.188469 60.287743 
L 130.350877 60.205293 
L 130.513286 59.757534 
L 130.675694 59.65578 
L 130.838103 59.740114 
L 131.000511 60.401068 
L 131.325328 60.115066 
L 131.812554 61.169128 
L 132.137371 59.400645 
L 132.299779 59.090244 
L 132.624596 59.695195 
L 132.787004 59.946702 
L 132.949413 59.788555 
L 133.27423 58.88811 
L 133.436638 59.236183 
L 133.761455 58.943058 
L 133.923864 59.538163 
L 134.086272 58.538904 
L 134.248681 58.257982 
L 134.411089 58.427838 
L 134.735906 57.220461 
L 134.898315 57.530748 
L 135.38554 55.777198 
L 135.547949 55.400584 
L 135.710357 55.901317 
L 135.872765 55.79703 
L 136.035174 55.344337 
L 136.359991 55.327223 
L 136.522399 54.874918 
L 136.684808 55.075016 
L 137.009625 56.012304 
L 137.172033 56.137657 
L 137.334442 55.77211 
L 137.984076 57.347507 
L 138.146484 57.153677 
L 138.308893 57.157374 
L 138.471301 56.923087 
L 138.796118 57.137595 
L 138.958527 56.824839 
L 139.120935 56.020119 
L 139.283343 56.17606 
L 139.445752 56.104224 
L 139.60816 56.496592 
L 139.932977 54.826129 
L 140.095386 55.198269 
L 140.420203 55.123622 
L 140.74502 56.176045 
L 140.907428 56.220821 
L 141.069837 56.447174 
L 141.232245 56.046854 
L 141.394654 56.186037 
L 141.557062 56.836892 
L 141.719471 56.791924 
L 141.881879 56.953554 
L 142.044288 56.764931 
L 142.369105 57.973861 
L 142.531513 58.077725 
L 142.693922 57.426102 
L 142.85633 57.842798 
L 143.018738 57.800955 
L 143.505964 58.493711 
L 143.668372 59.145019 
L 143.830781 58.81788 
L 143.993189 58.912034 
L 144.155598 58.470746 
L 144.318006 58.66622 
L 144.480415 59.212451 
L 144.642823 59.229136 
L 144.805232 58.994341 
L 144.96764 59.446693 
L 145.454866 58.829007 
L 145.779683 58.048875 
L 145.942091 58.017192 
L 146.1045 57.248669 
L 146.429316 57.748265 
L 146.591725 57.157953 
L 146.754133 57.655101 
L 146.916542 57.01404 
L 147.403767 56.703201 
L 147.566176 56.220035 
L 147.728584 56.134744 
L 148.053401 55.211035 
L 148.540627 56.044253 
L 148.703035 55.727313 
L 148.865444 54.914178 
L 149.027852 55.195949 
L 149.352669 54.73988 
L 150.164711 55.876982 
L 150.32712 55.631392 
L 150.489528 55.753269 
L 150.651937 56.189703 
L 150.814345 55.905792 
L 150.976754 56.003114 
L 151.301571 56.47991 
L 151.463979 56.096915 
L 151.626388 56.254091 
L 151.951205 55.917104 
L 152.600839 56.77463 
L 152.925656 56.463931 
L 153.088064 56.348315 
L 153.250473 56.872407 
L 153.412881 56.471981 
L 153.737698 56.700757 
L 154.062515 57.360898 
L 154.387332 56.72193 
L 154.874557 56.747789 
L 155.036966 56.974225 
L 155.199374 56.925354 
L 155.361783 56.391823 
L 155.524191 56.393586 
L 155.6866 56.212359 
L 156.173825 57.103068 
L 156.336234 56.678995 
L 156.661051 56.603745 
L 156.823459 56.275064 
L 156.985867 56.365311 
L 157.473093 55.608381 
L 157.635501 54.766854 
L 157.79791 54.556723 
L 158.285135 55.00232 
L 158.447544 54.881741 
L 158.772361 55.303396 
L 158.934769 54.833666 
L 159.097178 54.812797 
L 159.259586 54.304704 
L 159.421995 54.400298 
L 159.746812 54.84364 
L 159.90922 55.002738 
L 160.234037 54.711467 
L 160.396445 54.203485 
L 160.883671 54.878987 
L 161.046079 54.80386 
L 161.208488 54.991705 
L 161.695713 53.85606 
L 161.858122 54.040968 
L 162.02053 53.568 
L 162.182939 53.725267 
L 162.345347 53.639985 
L 162.670164 54.017287 
L 162.832573 53.99559 
L 162.994981 53.690683 
L 163.15739 53.679149 
L 163.807024 54.464496 
L 163.969432 54.579992 
L 164.456657 55.333981 
L 164.781474 55.620288 
L 164.943883 55.215682 
L 165.106291 55.735232 
L 165.2687 55.80209 
L 165.431108 56.121514 
L 165.593517 56.041912 
L 165.755925 56.137365 
L 165.918334 56.057652 
L 166.080742 56.551063 
L 166.892785 55.94199 
L 167.055193 56.127481 
L 167.217602 56.064209 
L 167.38001 56.296104 
L 167.542418 55.962235 
L 167.867235 56.548761 
L 168.029644 56.354322 
L 168.354461 56.684449 
L 168.679278 55.867993 
L 168.841686 55.322837 
L 169.004095 55.234728 
L 169.328912 54.80992 
L 169.49132 54.794485 
L 169.816137 54.466206 
L 169.978546 54.831888 
L 170.303363 54.524672 
L 170.465771 54.484367 
L 170.62818 54.634141 
L 170.790588 54.593856 
L 170.952996 54.67822 
L 171.115405 54.523674 
L 171.440222 54.943599 
L 171.765039 54.906982 
L 171.927447 55.151517 
L 172.089856 54.817688 
L 172.252264 54.87849 
L 172.414673 55.184116 
L 172.73949 55.12215 
L 172.901898 55.185401 
L 173.064307 55.055345 
L 173.226715 55.244888 
L 173.389124 55.196814 
L 173.876349 56.022411 
L 174.038758 55.874987 
L 174.201166 56.111544 
L 174.525983 55.599876 
L 174.688391 55.866723 
L 175.013208 55.502859 
L 175.175617 55.682103 
L 175.338025 55.566841 
L 175.662842 55.963096 
L 175.987659 55.47082 
L 176.150068 55.839664 
L 176.312476 55.678347 
L 176.474885 56.020372 
L 176.637293 55.817727 
L 176.799702 56.016677 
L 176.96211 55.568071 
L 177.124519 55.774966 
L 177.286927 55.558968 
L 177.611744 56.207636 
L 177.774153 56.299053 
L 178.098969 55.953949 
L 178.261378 55.641054 
L 178.586195 55.683063 
L 178.911012 56.226366 
L 179.07342 55.844021 
L 179.235829 55.841718 
L 179.560646 56.251562 
L 179.723054 56.005374 
L 179.885463 56.476273 
L 180.047871 56.581111 
L 180.21028 56.987357 
L 180.697505 56.757572 
L 180.859914 56.828384 
L 181.184731 56.267306 
L 181.671956 56.186449 
L 181.996773 56.472421 
L 182.159181 56.816474 
L 182.32159 56.862259 
L 182.483998 57.064625 
L 182.808815 56.821545 
L 182.971224 56.855625 
L 183.133632 57.034809 
L 183.296041 57.385375 
L 183.458449 57.412254 
L 183.945675 56.742207 
L 184.108083 56.544635 
L 184.270492 56.653356 
L 184.595309 57.248801 
L 185.082534 57.55528 
L 185.244942 57.28914 
L 185.407351 57.495838 
L 185.732168 57.148411 
L 185.894576 57.223801 
L 186.056985 56.857668 
L 186.219393 56.968399 
L 186.54421 56.68412 
L 187.031436 57.241796 
L 187.356253 57.344015 
L 187.68107 56.833637 
L 188.493112 57.788643 
L 188.65552 57.539995 
L 188.817929 57.907108 
L 189.142746 57.715565 
L 189.305154 57.82982 
L 189.467563 57.738751 
L 189.629971 57.851043 
L 189.954788 57.471052 
L 190.279605 57.745194 
L 190.442014 57.622479 
L 190.604422 57.791703 
L 190.929239 57.759705 
L 191.416465 58.453639 
L 191.578873 58.16187 
L 191.90369 58.169108 
L 192.066099 58.252487 
L 192.228507 58.07342 
L 192.390915 58.270194 
L 192.553324 58.189 
L 192.715732 58.270279 
L 192.878141 58.01487 
L 193.040549 58.393906 
L 193.202958 58.271889 
L 193.527775 58.530873 
L 194.015 58.801802 
L 194.177409 58.662352 
L 194.664634 59.166905 
L 194.827043 59.511845 
L 194.989451 59.372252 
L 195.314268 59.979397 
L 195.801493 60.222384 
L 195.963902 60.402837 
L 196.288719 59.994091 
L 196.613536 60.374898 
L 196.775944 60.214352 
L 196.938353 60.400592 
L 197.100761 60.25786 
L 197.26317 60.460726 
L 197.425578 60.134243 
L 197.587987 60.103256 
L 197.750395 60.344292 
L 198.075212 60.340853 
L 198.237621 60.589401 
L 198.400029 60.48437 
L 198.724846 61.067008 
L 198.887255 61.247069 
L 199.212071 61.166926 
L 199.37448 61.220224 
L 199.699297 61.672823 
L 199.861705 61.68568 
L 200.024114 61.8524 
L 200.186522 61.721286 
L 200.348931 61.324933 
L 200.511339 61.512505 
L 200.673748 61.493548 
L 200.836156 61.853191 
L 200.998565 61.805009 
L 201.160973 62.101087 
L 201.323382 62.109242 
L 201.48579 62.391788 
L 201.648199 62.395653 
L 201.810607 62.627291 
L 202.135424 62.548882 
L 202.460241 62.52223 
L 202.62265 62.264513 
L 202.947466 62.542275 
L 203.272283 61.937048 
L 204.084326 62.109632 
L 204.246734 62.38732 
L 204.571551 62.221949 
L 205.058777 63.170717 
L 205.383594 63.165187 
L 205.546002 63.168435 
L 205.708411 63.496374 
L 205.870819 63.44235 
L 207.007678 64.404762 
L 207.170087 64.222951 
L 207.332495 63.846814 
L 207.819721 64.111011 
L 207.982129 64.041843 
L 208.95658 64.981366 
L 209.281397 64.915601 
L 209.606214 65.416308 
L 209.768622 65.355821 
L 209.931031 65.483867 
L 210.418256 65.063568 
L 210.580665 65.361455 
L 211.06789 65.316672 
L 211.230299 65.529874 
L 211.392707 65.341291 
L 211.555116 65.328726 
L 211.717524 65.523012 
L 211.879933 65.484319 
L 212.042341 65.649354 
L 212.20475 65.571504 
L 212.854384 64.87995 
L 213.016792 65.036943 
L 213.828834 64.562108 
L 213.991243 64.738551 
L 214.153651 64.618998 
L 214.31606 64.919084 
L 214.640877 64.724538 
L 214.803285 64.965781 
L 215.128102 64.73396 
L 215.290511 65.004654 
L 215.940145 64.529671 
L 216.264962 64.704677 
L 216.42737 64.791032 
L 216.589779 65.122815 
L 216.914595 64.903019 
L 217.077004 65.207615 
L 217.564229 64.881531 
L 217.726638 64.480114 
L 218.051455 64.686066 
L 218.376272 64.94183 
L 218.701089 65.257147 
L 219.025906 64.859484 
L 219.350723 64.366029 
L 219.513131 64.538907 
L 220.000357 64.470883 
L 220.162765 64.647075 
L 220.325173 64.657028 
L 220.487582 64.34755 
L 220.64999 64.560317 
L 220.812399 64.474817 
L 220.974807 64.665862 
L 221.299624 64.668073 
L 221.624441 64.295779 
L 221.949258 64.504709 
L 222.111667 64.430823 
L 222.274075 64.630187 
L 222.761301 64.619218 
L 223.086118 64.37584 
L 223.89816 65.281671 
L 224.710202 64.838737 
L 225.359836 65.448665 
L 226.00947 64.726889 
L 226.171879 64.875645 
L 227.958372 64.207812 
L 228.445597 64.431367 
L 228.608006 64.334152 
L 228.770414 64.488231 
L 228.932823 64.393714 
L 229.095231 64.490282 
L 229.420048 64.052003 
L 229.582457 64.041718 
L 229.744865 64.186207 
L 229.907274 64.066183 
L 230.069682 64.248407 
L 230.232091 64.07476 
L 230.394499 64.252126 
L 230.719316 64.143218 
L 230.881724 63.796453 
L 231.044133 63.874442 
L 231.206541 63.78354 
L 231.531358 64.032888 
L 231.693767 63.956513 
L 232.668218 64.648487 
L 232.830626 64.515639 
L 232.993035 64.657709 
L 233.155443 64.468021 
L 233.317852 64.094866 
L 233.48026 64.132045 
L 233.642669 63.930147 
L 233.967486 64.186384 
L 234.129894 64.160164 
L 234.454711 64.629813 
L 234.617119 64.4716 
L 234.779528 64.547369 
L 235.104345 64.235746 
L 235.266753 64.158168 
L 235.429162 64.234791 
L 235.59157 64.121739 
L 235.753979 64.215404 
L 235.916387 64.438547 
L 236.078796 64.464575 
L 236.566021 64.979885 
L 236.72843 64.742552 
L 237.215655 64.787302 
L 237.378064 64.943156 
L 237.540472 64.770028 
L 237.702881 64.767526 
L 237.865289 64.881979 
L 238.027697 64.680354 
L 238.352514 64.938718 
L 239.002148 65.304725 
L 239.164557 65.232887 
L 239.326965 65.30456 
L 239.489374 65.081687 
L 239.651782 65.252916 
L 239.976599 65.181258 
L 240.301416 65.417988 
L 240.463825 65.359077 
L 240.626233 65.550232 
L 241.113459 65.220205 
L 241.275867 65.119138 
L 241.438276 65.163139 
L 241.763092 64.876582 
L 242.087909 64.90808 
L 242.250318 64.693039 
L 242.575135 64.635419 
L 242.899952 64.910048 
L 243.387177 64.925438 
L 243.711994 64.961931 
L 244.361628 64.572479 
L 244.524037 64.625174 
L 244.686445 64.803645 
L 244.848854 64.779212 
L 245.17367 65.014783 
L 245.498487 65.013001 
L 245.660896 65.174318 
L 245.823304 65.031469 
L 246.31053 65.203383 
L 246.797755 65.476132 
L 247.447389 65.729422 
L 247.609798 65.850354 
L 247.934615 65.791052 
L 248.259432 66.076329 
L 248.909065 65.851651 
L 249.233882 66.205367 
L 249.558699 66.296102 
L 249.721108 66.344151 
L 250.045925 66.066381 
L 250.370742 66.198913 
L 250.53315 65.982278 
L 250.857967 66.311264 
L 251.182784 66.59945 
L 251.345193 66.423287 
L 251.67001 66.563923 
L 251.832418 66.295793 
L 251.994827 66.318331 
L 252.157235 66.165757 
L 252.64446 66.546707 
L 253.456503 66.901279 
L 253.78132 67.270548 
L 254.106137 67.101742 
L 254.430954 67.170145 
L 254.593362 67.342181 
L 254.755771 67.169032 
L 255.080588 67.228151 
L 255.242996 67.347422 
L 255.567813 67.169633 
L 255.89263 67.356274 
L 256.055038 67.349619 
L 256.217447 67.144853 
L 256.867081 67.723219 
L 257.354306 67.930788 
L 257.679123 67.805399 
L 257.841532 67.684854 
L 258.815983 68.343667 
L 259.140799 68.091531 
L 259.628025 67.958113 
L 259.790433 68.14767 
L 260.277659 67.994441 
L 260.927293 68.132317 
L 261.089701 67.907235 
L 261.25211 68.089827 
L 261.414518 68.035187 
L 261.576927 68.108312 
L 261.901744 67.632247 
L 262.064152 67.828502 
L 262.226561 67.766112 
L 262.388969 67.927368 
L 262.551378 67.901919 
L 262.876194 68.250995 
L 263.201011 67.904768 
L 263.36342 67.72822 
L 263.525828 67.883402 
L 263.850645 67.642492 
L 264.013054 67.865319 
L 264.337871 67.720787 
L 264.500279 67.963911 
L 264.987505 67.904182 
L 265.149913 67.706875 
L 265.312322 67.745697 
L 265.47473 67.656443 
L 265.637139 67.409446 
L 265.961956 67.592344 
L 266.286772 67.373491 
L 266.611589 67.486398 
L 266.936406 67.67829 
L 267.423632 67.337985 
L 267.58604 67.44352 
L 267.748449 67.370011 
L 267.910857 67.436507 
L 268.073266 67.649712 
L 268.235674 67.648865 
L 268.398083 67.777319 
L 268.560491 67.664032 
L 268.7229 67.729961 
L 269.372534 67.320135 
L 269.534942 67.260794 
L 269.69735 67.473145 
L 269.859759 67.292924 
L 270.022167 67.324452 
L 270.346984 67.617897 
L 270.509393 67.601171 
L 270.83421 67.714126 
L 271.159027 67.525603 
L 271.321435 67.653446 
L 271.483844 67.485026 
L 271.971069 67.8806 
L 272.458295 67.58896 
L 272.94552 67.893937 
L 273.107929 67.774722 
L 273.270337 67.854169 
L 273.757562 67.698858 
L 273.919971 67.766822 
L 274.244788 67.478154 
L 274.569605 67.774888 
L 274.894422 67.711261 
L 275.219239 67.769239 
L 275.544056 67.768635 
L 275.706464 67.856954 
L 275.868873 67.652791 
L 276.19369 67.787231 
L 276.518507 67.7824 
L 276.680915 67.778485 
L 277.005732 68.042289 
L 277.16814 67.97472 
L 277.980183 68.361784 
L 278.142591 68.209808 
L 278.305 68.335152 
L 278.629817 68.070447 
L 278.954634 68.173053 
L 279.117042 68.090891 
L 279.279451 68.199108 
L 279.604268 67.990479 
L 279.766676 67.938892 
L 280.091493 68.230763 
L 280.253901 68.189852 
L 280.578718 67.977357 
L 281.553169 67.72312 
L 282.040395 67.725822 
L 282.365212 67.960591 
L 282.52762 67.67363 
L 282.852437 67.6514 
L 283.177254 67.377889 
L 283.66448 67.376909 
L 283.989296 67.429348 
L 284.476522 66.974287 
L 284.63893 66.977111 
L 284.801339 66.808755 
L 285.126156 66.953902 
L 285.288564 66.937892 
L 285.613381 66.697129 
L 285.938198 66.818719 
L 286.100607 66.874909 
L 286.587832 66.613913 
L 287.075058 66.812299 
L 287.399874 66.652606 
L 287.562283 66.745636 
L 287.724691 66.652336 
L 288.049508 66.775284 
L 288.699142 66.882534 
L 288.861551 66.754324 
L 289.186368 66.855048 
L 289.673593 66.830854 
L 289.99841 67.106724 
L 290.323227 67.135045 
L 290.648044 67.130721 
L 290.810452 66.863889 
L 290.972861 66.909693 
L 291.135269 66.827137 
L 291.622495 66.880086 
L 292.272129 67.044591 
L 292.434537 66.837668 
L 292.921763 66.958363 
L 293.24658 67.318371 
L 293.896214 67.424233 
L 294.058622 67.321432 
L 294.383439 67.435274 
L 294.870664 67.130748 
L 295.033073 67.124903 
L 295.682707 67.751018 
L 296.007524 67.757485 
L 296.332341 67.740956 
L 296.981975 67.374281 
L 297.306792 67.012614 
L 297.794017 67.226704 
L 297.956425 67.394862 
L 298.281242 67.209618 
L 298.768468 66.973735 
L 299.255693 67.284315 
L 299.418102 67.280563 
L 299.905327 66.928601 
L 300.067736 66.963099 
L 300.230144 66.841825 
L 300.392553 66.972647 
L 300.71737 66.993638 
L 300.879778 67.057352 
L 301.042187 66.909487 
L 301.204595 66.958691 
L 301.367004 66.755748 
L 301.854229 66.992076 
L 302.179046 66.661719 
L 302.341454 66.70969 
L 302.503863 66.544166 
L 303.153497 66.764204 
L 303.315905 66.83467 
L 303.640722 66.496175 
L 303.803131 66.666922 
L 303.965539 66.543805 
L 304.127948 66.650594 
L 304.452765 66.436637 
L 304.615173 66.591164 
L 305.102398 66.164041 
L 305.589624 66.473551 
L 306.076849 66.261554 
L 306.401666 66.05084 
L 306.564075 66.13054 
L 307.0513 65.737475 
L 307.213709 65.88616 
L 308.675385 65.677883 
L 309.000202 65.774765 
L 309.487427 65.551465 
L 310.137061 65.464261 
L 310.786695 65.791629 
L 311.111512 65.616378 
L 311.598738 65.467338 
L 311.761146 65.327231 
L 311.923555 65.430791 
L 312.248371 65.430807 
L 312.898005 65.553112 
L 313.060414 65.305883 
L 313.547639 65.379806 
L 313.710048 65.46078 
L 313.872456 65.301916 
L 314.52209 65.634724 
L 314.684499 65.584499 
L 314.846907 65.297905 
L 315.496541 65.483626 
L 315.821358 65.716997 
L 315.983766 65.575767 
L 316.795809 65.807583 
L 316.958217 65.786472 
L 317.120626 65.636291 
L 318.095077 65.762198 
L 318.257485 65.633156 
L 318.582302 65.894092 
L 318.744711 65.838068 
L 318.907119 66.012333 
L 319.069527 66.006056 
L 319.231936 65.870428 
L 319.556753 65.918822 
L 319.719161 65.903217 
L 319.88157 66.061408 
L 320.368795 65.692724 
L 320.856021 65.902171 
L 321.018429 65.963823 
L 322.480106 65.335439 
L 322.642514 65.34919 
L 322.804922 65.488221 
L 323.129739 65.455575 
L 323.292148 65.524495 
L 323.616965 65.496996 
L 324.266599 65.76256 
L 324.916233 65.532517 
L 325.24105 65.638577 
L 325.565867 65.66914 
L 325.890684 65.852138 
L 326.053092 65.72016 
L 326.540317 65.852578 
L 326.702726 65.727401 
L 327.027543 65.736941 
L 327.189951 65.62256 
L 327.514768 65.737178 
L 327.839585 65.684386 
L 328.164402 65.82324 
L 328.976445 65.540866 
L 329.788487 65.82099 
L 330.113304 65.672324 
L 330.275712 65.690539 
L 330.438121 65.820958 
L 330.600529 65.602325 
L 331.737389 65.837424 
L 331.899797 65.761759 
L 332.224614 65.878123 
L 332.549431 65.775971 
L 333.036657 66.043423 
L 333.361473 65.833915 
L 333.68629 65.953323 
L 335.147967 65.836906 
L 335.960009 65.905005 
L 336.122418 65.766329 
L 336.609643 65.867474 
L 336.772051 65.667146 
L 337.096868 65.752827 
L 337.259277 65.717435 
L 337.421685 65.873617 
L 337.908911 65.58316 
L 338.233728 65.714401 
L 338.883362 65.893294 
L 339.370587 65.551779 
L 339.695404 65.869246 
L 339.857813 65.852512 
L 340.182629 65.657297 
L 340.507446 65.609375 
L 340.669855 65.453377 
L 340.832263 65.585307 
L 342.29394 65.384131 
L 342.456348 65.436615 
L 342.618757 65.238147 
L 343.105982 65.239738 
L 343.593208 65.546022 
L 343.755616 65.42904 
L 343.918024 65.501738 
L 344.242841 65.318206 
L 344.567658 65.400867 
L 345.054884 65.658194 
L 345.379701 65.575542 
L 345.704518 65.80114 
L 345.866926 65.80877 
L 346.354152 65.465001 
L 347.328602 65.239571 
L 347.491011 65.187156 
L 347.653419 65.32028 
L 348.140645 65.333811 
L 348.62787 65.453184 
L 349.602321 65.389037 
L 349.927138 65.105504 
L 350.576772 65.077394 
L 350.73918 64.932488 
L 351.063997 65.012695 
L 351.551223 65.330987 
L 352.688082 64.82206 
L 353.012899 64.889021 
L 353.337716 64.678996 
L 353.500125 64.715215 
L 353.662533 64.608447 
L 353.98735 64.806695 
L 354.312167 64.93934 
L 354.961801 64.503415 
L 355.286618 64.367047 
L 356.585886 64.693939 
L 356.748294 64.86929 
L 357.073111 64.594342 
L 357.560337 64.896074 
L 357.885153 64.977964 
L 358.372379 64.67481 
L 358.534787 64.509781 
L 358.697196 64.553636 
L 358.859604 64.347332 
L 359.022013 64.358631 
L 359.509238 64.032926 
L 360.483689 63.947067 
L 360.808506 64.06065 
L 360.970915 64.021022 
L 361.133323 64.117024 
L 361.45814 63.999166 
L 361.945365 63.858268 
L 362.107774 63.682974 
L 362.757408 63.712226 
L 362.919816 63.637469 
L 363.244633 63.782584 
L 363.731859 63.565086 
L 363.894267 63.644944 
L 364.056676 63.521872 
L 364.219084 63.577473 
L 364.543901 63.403215 
L 364.70631 63.202469 
L 365.031126 63.322263 
L 365.355943 63.307828 
L 365.518352 63.213835 
L 365.68076 63.313422 
L 366.330394 63.265704 
L 366.655211 63.288149 
L 366.81762 63.179363 
L 367.629662 63.572966 
L 368.279296 63.452187 
L 368.441704 63.486198 
L 368.604113 63.39322 
L 369.091338 63.470908 
L 369.416155 63.439703 
L 370.228198 63.449805 
L 370.390606 63.260444 
L 370.715423 63.301474 
L 371.852283 63.428836 
L 372.014691 63.568879 
L 372.177099 63.467615 
L 372.664325 63.699195 
L 373.313959 63.908387 
L 373.476367 63.794891 
L 373.801184 63.978451 
L 373.963593 64.075077 
L 374.126001 64.0058 
L 374.613227 64.146769 
L 374.775635 64.088663 
L 374.938044 64.236578 
L 375.262861 64.223508 
L 375.912494 64.427121 
L 376.074903 64.470573 
L 376.39972 64.306334 
L 376.724537 64.465637 
L 377.536579 64.227059 
L 377.861396 64.442242 
L 378.186213 64.341059 
L 378.998255 64.348886 
L 379.160664 64.489607 
L 379.485481 64.172699 
L 379.810298 64.308222 
L 380.135115 64.154557 
L 380.297523 64.301598 
L 381.109566 64.18248 
L 381.271974 64.228961 
L 381.434383 64.005714 
L 381.7592 63.883147 
L 382.246425 63.691369 
L 382.896059 63.520524 
L 383.220876 63.169401 
L 384.357735 63.456238 
L 384.520144 63.33582 
L 384.844961 63.414986 
L 385.007369 63.300813 
L 385.169778 63.395469 
L 385.494595 63.206273 
L 385.819412 63.37461 
L 385.98182 63.327214 
L 386.144228 63.41064 
L 386.306637 63.29355 
L 387.281088 63.81642 
L 387.443496 63.610368 
L 387.768313 63.749082 
L 388.417947 63.540216 
L 388.742764 63.587912 
L 390.042032 63.4783 
L 390.20444 63.399286 
L 390.366849 63.511349 
L 390.529257 63.485507 
L 390.691666 63.598762 
L 391.178891 63.51644 
L 391.3413 63.564381 
L 391.666117 63.505904 
L 391.990934 63.538184 
L 392.315751 63.435687 
L 392.640568 63.473853 
L 392.965385 63.401998 
L 393.127793 63.278486 
L 393.45261 63.310117 
L 393.615018 63.283125 
L 393.777427 63.392273 
L 394.102244 63.377848 
L 394.589469 63.546716 
L 395.076695 63.306463 
L 395.401512 63.261996 
L 396.213554 63.486758 
L 396.538371 63.348572 
L 397.350413 63.168927 
L 397.67523 63.198687 
L 398.487273 62.849843 
L 398.487273 62.849843 
" clip-path="url(#p6342cba5c9)" style="fill: none; stroke-dasharray: 2,3.3; stroke-dashoffset: 0; stroke: #ffa500; stroke-width: 2"/>
   </g>
   <g id="patch_3">
    <path d="M 57.6 307.584 
L 57.6 41.472 
" style="fill: none; stroke: #000000; stroke-width: 0.8; stroke-linejoin: miter; stroke-linecap: square"/>
   </g>
   <g id="patch_4">
    <path d="M 414.72 307.584 
L 414.72 41.472 
" style="fill: none; stroke: #000000; stroke-width: 0.8; stroke-linejoin: miter; stroke-linecap: square"/>
   </g>
   <g id="patch_5">
    <path d="M 57.6 307.584 
L 414.72 307.584 
" style="fill: none; stroke: #000000; stroke-width: 0.8; stroke-linejoin: miter; stroke-linecap: square"/>
   </g>
   <g id="patch_6">
    <path d="M 57.6 41.472 
L 414.72 41.472 
" style="fill: none; stroke: #000000; stroke-width: 0.8; stroke-linejoin: miter; stroke-linecap: square"/>
   </g>
   <g id="text_19">
    <!-- Waiting Time Plot -->
    <g transform="translate(183.833438 8.2635)scale(0.12 -0.12)">
     <defs>
      <path id="DejaVuSans-50" d="M 1259 4147 
L 1259 2394 
L 2053 2394 
Q 2494 2394 2734 2622 
Q 2975 2850 2975 3272 
Q 2975 3691 2734 3919 
Q 2494 4147 2053 4147 
L 1259 4147 
z
M 628 4666 
L 2053 4666 
Q 2838 4666 3239 4311 
Q 3641 3956 3641 3272 
Q 3641 2581 3239 2228 
Q 2838 1875 2053 1875 
L 1259 1875 
L 1259 0 
L 628 0 
L 628 4666 
z
" transform="scale(0.015625)"/>
      <path id="DejaVuSans-6c" d="M 603 4863 
L 1178 4863 
L 1178 0 
L 603 0 
L 603 4863 
z
" transform="scale(0.015625)"/>
     </defs>
     <use xlink:href="#DejaVuSans-57"/>
     <use xlink:href="#DejaVuSans-61" x="92.501953"/>
     <use xlink:href="#DejaVuSans-69" x="153.78125"/>
     <use xlink:href="#DejaVuSans-74" x="181.564453"/>
     <use xlink:href="#DejaVuSans-69" x="220.773438"/>
     <use xlink:href="#DejaVuSans-6e" x="248.556641"/>
     <use xlink:href="#DejaVuSans-67" x="311.935547"/>
     <use xlink:href="#DejaVuSans-20" x="375.412109"/>
     <use xlink:href="#DejaVuSans-54" x="407.199219"/>
     <use xlink:href="#DejaVuSans-69" x="465.158203"/>
     <use xlink:href="#DejaVuSans-6d" x="492.941406"/>
     <use xlink:href="#DejaVuSans-65" x="590.353516"/>
     <use xlink:href="#DejaVuSans-20" x="651.876953"/>
     <use xlink:href="#DejaVuSans-50" x="683.664062"/>
     <use xlink:href="#DejaVuSans-6c" x="743.966797"/>
     <use xlink:href="#DejaVuSans-6f" x="771.75"/>
     <use xlink:href="#DejaVuSans-74" x="832.931641"/>
    </g>
    <!--  avg_d = 1006.960391220972  -->
    <g transform="translate(142.671562 21.700875)scale(0.12 -0.12)">
     <defs>
      <path id="DejaVuSans-76" d="M 191 3500 
L 800 3500 
L 1894 563 
L 2988 3500 
L 3597 3500 
L 2284 0 
L 1503 0 
L 191 3500 
z
" transform="scale(0.015625)"/>
      <path id="DejaVuSans-5f" d="M 3263 -1063 
L 3263 -1509 
L -63 -1509 
L -63 -1063 
L 3263 -1063 
z
" transform="scale(0.015625)"/>
      <path id="DejaVuSans-3d" d="M 678 2906 
L 4684 2906 
L 4684 2381 
L 678 2381 
L 678 2906 
z
M 678 1631 
L 4684 1631 
L 4684 1100 
L 678 1100 
L 678 1631 
z
" transform="scale(0.015625)"/>
      <path id="DejaVuSans-36" d="M 2113 2584 
Q 1688 2584 1439 2293 
Q 1191 2003 1191 1497 
Q 1191 994 1439 701 
Q 1688 409 2113 409 
Q 2538 409 2786 701 
Q 3034 994 3034 1497 
Q 3034 2003 2786 2293 
Q 2538 2584 2113 2584 
z
M 3366 4563 
L 3366 3988 
Q 3128 4100 2886 4159 
Q 2644 4219 2406 4219 
Q 1781 4219 1451 3797 
Q 1122 3375 1075 2522 
Q 1259 2794 1537 2939 
Q 1816 3084 2150 3084 
Q 2853 3084 3261 2657 
Q 3669 2231 3669 1497 
Q 3669 778 3244 343 
Q 2819 -91 2113 -91 
Q 1303 -91 875 529 
Q 447 1150 447 2328 
Q 447 3434 972 4092 
Q 1497 4750 2381 4750 
Q 2619 4750 2861 4703 
Q 3103 4656 3366 4563 
z
" transform="scale(0.015625)"/>
      <path id="DejaVuSans-2e" d="M 684 794 
L 1344 794 
L 1344 0 
L 684 0 
L 684 794 
z
" transform="scale(0.015625)"/>
      <path id="DejaVuSans-33" d="M 2597 2516 
Q 3050 2419 3304 2112 
Q 3559 1806 3559 1356 
Q 3559 666 3084 287 
Q 2609 -91 1734 -91 
Q 1441 -91 1130 -33 
Q 819 25 488 141 
L 488 750 
Q 750 597 1062 519 
Q 1375 441 1716 441 
Q 2309 441 2620 675 
Q 2931 909 2931 1356 
Q 2931 1769 2642 2001 
Q 2353 2234 1838 2234 
L 1294 2234 
L 1294 2753 
L 1863 2753 
Q 2328 2753 2575 2939 
Q 2822 3125 2822 3475 
Q 2822 3834 2567 4026 
Q 2313 4219 1838 4219 
Q 1578 4219 1281 4162 
Q 984 4106 628 3988 
L 628 4550 
Q 988 4650 1302 4700 
Q 1616 4750 1894 4750 
Q 2613 4750 3031 4423 
Q 3450 4097 3450 3541 
Q 3450 3153 3228 2886 
Q 3006 2619 2597 2516 
z
" transform="scale(0.015625)"/>
     </defs>
     <use xlink:href="#DejaVuSans-20"/>
     <use xlink:href="#DejaVuSans-61" x="31.787109"/>
     <use xlink:href="#DejaVuSans-76" x="93.066406"/>
     <use xlink:href="#DejaVuSans-67" x="152.246094"/>
     <use xlink:href="#DejaVuSans-5f" x="215.722656"/>
     <use xlink:href="#DejaVuSans-64" x="265.722656"/>
     <use xlink:href="#DejaVuSans-20" x="329.199219"/>
     <use xlink:href="#DejaVuSans-3d" x="360.986328"/>
     <use xlink:href="#DejaVuSans-20" x="444.775391"/>
     <use xlink:href="#DejaVuSans-31" x="476.5625"/>
     <use xlink:href="#DejaVuSans-30" x="540.185547"/>
     <use xlink:href="#DejaVuSans-30" x="603.808594"/>
     <use xlink:href="#DejaVuSans-36" x="667.431641"/>
     <use xlink:href="#DejaVuSans-2e" x="731.054688"/>
     <use xlink:href="#DejaVuSans-39" x="762.841797"/>
     <use xlink:href="#DejaVuSans-36" x="826.464844"/>
     <use xlink:href="#DejaVuSans-30" x="890.087891"/>
     <use xlink:href="#DejaVuSans-33" x="953.710938"/>
     <use xlink:href="#DejaVuSans-39" x="1017.333984"/>
     <use xlink:href="#DejaVuSans-31" x="1080.957031"/>
     <use xlink:href="#DejaVuSans-32" x="1144.580078"/>
     <use xlink:href="#DejaVuSans-32" x="1208.203125"/>
     <use xlink:href="#DejaVuSans-30" x="1271.826172"/>
     <use xlink:href="#DejaVuSans-39" x="1335.449219"/>
     <use xlink:href="#DejaVuSans-37" x="1399.072266"/>
     <use xlink:href="#DejaVuSans-32" x="1462.695312"/>
     <use xlink:href="#DejaVuSans-20" x="1526.318359"/>
    </g>
    <!--  avg_a = 1006.0701476590112diff = 0.8902435619608013 -->
    <g transform="translate(55.546875 35.472)scale(0.12 -0.12)">
     <defs>
      <path id="DejaVuSans-34" d="M 2419 4116 
L 825 1625 
L 2419 1625 
L 2419 4116 
z
M 2253 4666 
L 3047 4666 
L 3047 1625 
L 3713 1625 
L 3713 1100 
L 3047 1100 
L 3047 0 
L 2419 0 
L 2419 1100 
L 313 1100 
L 313 1709 
L 2253 4666 
z
" transform="scale(0.015625)"/>
     </defs>
     <use xlink:href="#DejaVuSans-20"/>
     <use xlink:href="#DejaVuSans-61" x="31.787109"/>
     <use xlink:href="#DejaVuSans-76" x="93.066406"/>
     <use xlink:href="#DejaVuSans-67" x="152.246094"/>
     <use xlink:href="#DejaVuSans-5f" x="215.722656"/>
     <use xlink:href="#DejaVuSans-61" x="265.722656"/>
     <use xlink:href="#DejaVuSans-20" x="327.001953"/>
     <use xlink:href="#DejaVuSans-3d" x="358.789062"/>
     <use xlink:href="#DejaVuSans-20" x="442.578125"/>
     <use xlink:href="#DejaVuSans-31" x="474.365234"/>
     <use xlink:href="#DejaVuSans-30" x="537.988281"/>
     <use xlink:href="#DejaVuSans-30" x="601.611328"/>
     <use xlink:href="#DejaVuSans-36" x="665.234375"/>
     <use xlink:href="#DejaVuSans-2e" x="728.857422"/>
     <use xlink:href="#DejaVuSans-30" x="760.644531"/>
     <use xlink:href="#DejaVuSans-37" x="824.267578"/>
     <use xlink:href="#DejaVuSans-30" x="887.890625"/>
     <use xlink:href="#DejaVuSans-31" x="951.513672"/>
     <use xlink:href="#DejaVuSans-34" x="1015.136719"/>
     <use xlink:href="#DejaVuSans-37" x="1078.759766"/>
     <use xlink:href="#DejaVuSans-36" x="1142.382812"/>
     <use xlink:href="#DejaVuSans-35" x="1206.005859"/>
     <use xlink:href="#DejaVuSans-39" x="1269.628906"/>
     <use xlink:href="#DejaVuSans-30" x="1333.251953"/>
     <use xlink:href="#DejaVuSans-31" x="1396.875"/>
     <use xlink:href="#DejaVuSans-31" x="1460.498047"/>
     <use xlink:href="#DejaVuSans-32" x="1524.121094"/>
     <use xlink:href="#DejaVuSans-64" x="1587.744141"/>
     <use xlink:href="#DejaVuSans-69" x="1651.220703"/>
     <use xlink:href="#DejaVuSans-66" x="1679.003906"/>
     <use xlink:href="#DejaVuSans-66" x="1714.208984"/>
     <use xlink:href="#DejaVuSans-20" x="1749.414062"/>
     <use xlink:href="#DejaVuSans-3d" x="1781.201172"/>
     <use xlink:href="#DejaVuSans-20" x="1864.990234"/>
     <use xlink:href="#DejaVuSans-30" x="1896.777344"/>
     <use xlink:href="#DejaVuSans-2e" x="1960.400391"/>
     <use xlink:href="#DejaVuSans-38" x="1992.1875"/>
     <use xlink:href="#DejaVuSans-39" x="2055.810547"/>
     <use xlink:href="#DejaVuSans-30" x="2119.433594"/>
     <use xlink:href="#DejaVuSans-32" x="2183.056641"/>
     <use xlink:href="#DejaVuSans-34" x="2246.679688"/>
     <use xlink:href="#DejaVuSans-33" x="2310.302734"/>
     <use xlink:href="#DejaVuSans-35" x="2373.925781"/>
     <use xlink:href="#DejaVuSans-36" x="2437.548828"/>
     <use xlink:href="#DejaVuSans-31" x="2501.171875"/>
     <use xlink:href="#DejaVuSans-39" x="2564.794922"/>
     <use xlink:href="#DejaVuSans-36" x="2628.417969"/>
     <use xlink:href="#DejaVuSans-30" x="2692.041016"/>
     <use xlink:href="#DejaVuSans-38" x="2755.664062"/>
     <use xlink:href="#DejaVuSans-30" x="2819.287109"/>
     <use xlink:href="#DejaVuSans-31" x="2882.910156"/>
     <use xlink:href="#DejaVuSans-33" x="2946.533203"/>
    </g>
   </g>
   <g id="legend_1">
    <g id="patch_7">
     <path d="M 263.88875 302.584 
L 407.72 302.584 
Q 409.72 302.584 409.72 300.584 
L 409.72 272.22775 
Q 409.72 270.22775 407.72 270.22775 
L 263.88875 270.22775 
Q 261.88875 270.22775 261.88875 272.22775 
L 261.88875 300.584 
Q 261.88875 302.584 263.88875 302.584 
z
" style="fill: #ffffff; opacity: 0.8; stroke: #cccccc; stroke-linejoin: miter"/>
    </g>
    <g id="line2d_19">
     <path d="M 265.88875 278.326187 
L 275.88875 278.326187 
L 285.88875 278.326187 
" style="fill: none; stroke-dasharray: 2,3.3; stroke-dashoffset: 0; stroke: #0000ff; stroke-width: 2"/>
    </g>
    <g id="text_20">
     <!-- Average (Default) -->
     <g transform="translate(293.88875 281.826187)scale(0.1 -0.1)">
      <defs>
       <path id="DejaVuSans-41" d="M 2188 4044 
L 1331 1722 
L 3047 1722 
L 2188 4044 
z
M 1831 4666 
L 2547 4666 
L 4325 0 
L 3669 0 
L 3244 1197 
L 1141 1197 
L 716 0 
L 50 0 
L 1831 4666 
z
" transform="scale(0.015625)"/>
       <path id="DejaVuSans-28" d="M 1984 4856 
Q 1566 4138 1362 3434 
Q 1159 2731 1159 2009 
Q 1159 1288 1364 580 
Q 1569 -128 1984 -844 
L 1484 -844 
Q 1016 -109 783 600 
Q 550 1309 550 2009 
Q 550 2706 781 3412 
Q 1013 4119 1484 4856 
L 1984 4856 
z
" transform="scale(0.015625)"/>
       <path id="DejaVuSans-44" d="M 1259 4147 
L 1259 519 
L 2022 519 
Q 2988 519 3436 956 
Q 3884 1394 3884 2338 
Q 3884 3275 3436 3711 
Q 2988 4147 2022 4147 
L 1259 4147 
z
M 628 4666 
L 1925 4666 
Q 3281 4666 3915 4102 
Q 4550 3538 4550 2338 
Q 4550 1131 3912 565 
Q 3275 0 1925 0 
L 628 0 
L 628 4666 
z
" transform="scale(0.015625)"/>
       <path id="DejaVuSans-29" d="M 513 4856 
L 1013 4856 
Q 1481 4119 1714 3412 
Q 1947 2706 1947 2009 
Q 1947 1309 1714 600 
Q 1481 -109 1013 -844 
L 513 -844 
Q 928 -128 1133 580 
Q 1338 1288 1338 2009 
Q 1338 2731 1133 3434 
Q 928 4138 513 4856 
z
" transform="scale(0.015625)"/>
      </defs>
      <use xlink:href="#DejaVuSans-41"/>
      <use xlink:href="#DejaVuSans-76" x="62.533203"/>
      <use xlink:href="#DejaVuSans-65" x="121.712891"/>
      <use xlink:href="#DejaVuSans-72" x="183.236328"/>
      <use xlink:href="#DejaVuSans-61" x="224.349609"/>
      <use xlink:href="#DejaVuSans-67" x="285.628906"/>
      <use xlink:href="#DejaVuSans-65" x="349.105469"/>
      <use xlink:href="#DejaVuSans-20" x="410.628906"/>
      <use xlink:href="#DejaVuSans-28" x="442.416016"/>
      <use xlink:href="#DejaVuSans-44" x="481.429688"/>
      <use xlink:href="#DejaVuSans-65" x="558.431641"/>
      <use xlink:href="#DejaVuSans-66" x="619.955078"/>
      <use xlink:href="#DejaVuSans-61" x="655.160156"/>
      <use xlink:href="#DejaVuSans-75" x="716.439453"/>
      <use xlink:href="#DejaVuSans-6c" x="779.818359"/>
      <use xlink:href="#DejaVuSans-74" x="807.601562"/>
      <use xlink:href="#DejaVuSans-29" x="846.810547"/>
     </g>
    </g>
    <g id="line2d_20">
     <path d="M 265.88875 293.004312 
L 275.88875 293.004312 
L 285.88875 293.004312 
" style="fill: none; stroke-dasharray: 2,3.3; stroke-dashoffset: 0; stroke: #ffa500; stroke-width: 2"/>
    </g>
    <g id="text_21">
     <!-- Average (Anticipation) -->
     <g transform="translate(293.88875 296.504312)scale(0.1 -0.1)">
      <defs>
       <path id="DejaVuSans-63" d="M 3122 3366 
L 3122 2828 
Q 2878 2963 2633 3030 
Q 2388 3097 2138 3097 
Q 1578 3097 1268 2742 
Q 959 2388 959 1747 
Q 959 1106 1268 751 
Q 1578 397 2138 397 
Q 2388 397 2633 464 
Q 2878 531 3122 666 
L 3122 134 
Q 2881 22 2623 -34 
Q 2366 -91 2075 -91 
Q 1284 -91 818 406 
Q 353 903 353 1747 
Q 353 2603 823 3093 
Q 1294 3584 2113 3584 
Q 2378 3584 2631 3529 
Q 2884 3475 3122 3366 
z
" transform="scale(0.015625)"/>
       <path id="DejaVuSans-70" d="M 1159 525 
L 1159 -1331 
L 581 -1331 
L 581 3500 
L 1159 3500 
L 1159 2969 
Q 1341 3281 1617 3432 
Q 1894 3584 2278 3584 
Q 2916 3584 3314 3078 
Q 3713 2572 3713 1747 
Q 3713 922 3314 415 
Q 2916 -91 2278 -91 
Q 1894 -91 1617 61 
Q 1341 213 1159 525 
z
M 3116 1747 
Q 3116 2381 2855 2742 
Q 2594 3103 2138 3103 
Q 1681 3103 1420 2742 
Q 1159 2381 1159 1747 
Q 1159 1113 1420 752 
Q 1681 391 2138 391 
Q 2594 391 2855 752 
Q 3116 1113 3116 1747 
z
" transform="scale(0.015625)"/>
      </defs>
      <use xlink:href="#DejaVuSans-41"/>
      <use xlink:href="#DejaVuSans-76" x="62.533203"/>
      <use xlink:href="#DejaVuSans-65" x="121.712891"/>
      <use xlink:href="#DejaVuSans-72" x="183.236328"/>
      <use xlink:href="#DejaVuSans-61" x="224.349609"/>
      <use xlink:href="#DejaVuSans-67" x="285.628906"/>
      <use xlink:href="#DejaVuSans-65" x="349.105469"/>
      <use xlink:href="#DejaVuSans-20" x="410.628906"/>
      <use xlink:href="#DejaVuSans-28" x="442.416016"/>
      <use xlink:href="#DejaVuSans-41" x="481.429688"/>
      <use xlink:href="#DejaVuSans-6e" x="549.837891"/>
      <use xlink:href="#DejaVuSans-74" x="613.216797"/>
      <use xlink:href="#DejaVuSans-69" x="652.425781"/>
      <use xlink:href="#DejaVuSans-63" x="680.208984"/>
      <use xlink:href="#DejaVuSans-69" x="735.189453"/>
      <use xlink:href="#DejaVuSans-70" x="762.972656"/>
      <use xlink:href="#DejaVuSans-61" x="826.449219"/>
      <use xlink:href="#DejaVuSans-74" x="887.728516"/>
      <use xlink:href="#DejaVuSans-69" x="926.9375"/>
      <use xlink:href="#DejaVuSans-6f" x="954.720703"/>
      <use xlink:href="#DejaVuSans-6e" x="1015.902344"/>
      <use xlink:href="#DejaVuSans-29" x="1079.28125"/>
     </g>
    </g>
   </g>
  </g>
 </g>
 <defs>
  <clipPath id="p6342cba5c9">
   <rect x="57.6" y="41.472" width="357.12" height="266.112"/>
  </clipPath>
 </defs>
</svg>
