<?xml version="1.0" encoding="utf-8" standalone="no"?>
<!DOCTYPE svg PUBLIC "-//W3C//DTD SVG 1.1//EN"
  "http://www.w3.org/Graphics/SVG/1.1/DTD/svg11.dtd">
<svg xmlns:xlink="http://www.w3.org/1999/xlink" width="460.8pt" height="345.6pt" viewBox="0 0 460.8 345.6" xmlns="http://www.w3.org/2000/svg" version="1.1">
 <metadata>
  <rdf:RDF xmlns:dc="http://purl.org/dc/elements/1.1/" xmlns:cc="http://creativecommons.org/ns#" xmlns:rdf="http://www.w3.org/1999/02/22-rdf-syntax-ns#">
   <cc:Work>
    <dc:type rdf:resource="http://purl.org/dc/dcmitype/StillImage"/>
    <dc:date>2022-10-04T02:27:08.228212</dc:date>
    <dc:format>image/svg+xml</dc:format>
    <dc:creator>
     <cc:Agent>
      <dc:title>Matplotlib v3.5.3, https://matplotlib.org/</dc:title>
     </cc:Agent>
    </dc:creator>
   </cc:Work>
  </rdf:RDF>
 </metadata>
 <defs>
  <style type="text/css">*{stroke-linejoin: round; stroke-linecap: butt}</style>
 </defs>
 <g id="figure_1">
  <g id="patch_1">
   <path d="M 0 345.6 
L 460.8 345.6 
L 460.8 0 
L 0 0 
z
" style="fill: #ffffff"/>
  </g>
  <g id="axes_1">
   <g id="patch_2">
    <path d="M 57.6 307.584 
L 414.72 307.584 
L 414.72 41.472 
L 57.6 41.472 
z
" style="fill: #ffffff"/>
   </g>
   <g id="matplotlib.axis_1">
    <g id="xtick_1">
     <g id="line2d_1">
      <defs>
       <path id="m5049f11ac1" d="M 0 0 
L 0 3.5 
" style="stroke: #000000; stroke-width: 0.8"/>
      </defs>
      <g>
       <use xlink:href="#m5049f11ac1" x="73.832727" y="307.584" style="stroke: #000000; stroke-width: 0.8"/>
      </g>
     </g>
     <g id="text_1">
      <!-- 0 -->
      <g transform="translate(70.651477 322.182437)scale(0.1 -0.1)">
       <defs>
        <path id="DejaVuSans-30" d="M 2034 4250 
Q 1547 4250 1301 3770 
Q 1056 3291 1056 2328 
Q 1056 1369 1301 889 
Q 1547 409 2034 409 
Q 2525 409 2770 889 
Q 3016 1369 3016 2328 
Q 3016 3291 2770 3770 
Q 2525 4250 2034 4250 
z
M 2034 4750 
Q 2819 4750 3233 4129 
Q 3647 3509 3647 2328 
Q 3647 1150 3233 529 
Q 2819 -91 2034 -91 
Q 1250 -91 836 529 
Q 422 1150 422 2328 
Q 422 3509 836 4129 
Q 1250 4750 2034 4750 
z
" transform="scale(0.015625)"/>
       </defs>
       <use xlink:href="#DejaVuSans-30"/>
      </g>
     </g>
    </g>
    <g id="xtick_2">
     <g id="line2d_2">
      <g>
       <use xlink:href="#m5049f11ac1" x="114.434847" y="307.584" style="stroke: #000000; stroke-width: 0.8"/>
      </g>
     </g>
     <g id="text_2">
      <!-- 250 -->
      <g transform="translate(104.891097 322.182437)scale(0.1 -0.1)">
       <defs>
        <path id="DejaVuSans-32" d="M 1228 531 
L 3431 531 
L 3431 0 
L 469 0 
L 469 531 
Q 828 903 1448 1529 
Q 2069 2156 2228 2338 
Q 2531 2678 2651 2914 
Q 2772 3150 2772 3378 
Q 2772 3750 2511 3984 
Q 2250 4219 1831 4219 
Q 1534 4219 1204 4116 
Q 875 4013 500 3803 
L 500 4441 
Q 881 4594 1212 4672 
Q 1544 4750 1819 4750 
Q 2544 4750 2975 4387 
Q 3406 4025 3406 3419 
Q 3406 3131 3298 2873 
Q 3191 2616 2906 2266 
Q 2828 2175 2409 1742 
Q 1991 1309 1228 531 
z
" transform="scale(0.015625)"/>
        <path id="DejaVuSans-35" d="M 691 4666 
L 3169 4666 
L 3169 4134 
L 1269 4134 
L 1269 2991 
Q 1406 3038 1543 3061 
Q 1681 3084 1819 3084 
Q 2600 3084 3056 2656 
Q 3513 2228 3513 1497 
Q 3513 744 3044 326 
Q 2575 -91 1722 -91 
Q 1428 -91 1123 -41 
Q 819 9 494 109 
L 494 744 
Q 775 591 1075 516 
Q 1375 441 1709 441 
Q 2250 441 2565 725 
Q 2881 1009 2881 1497 
Q 2881 1984 2565 2268 
Q 2250 2553 1709 2553 
Q 1456 2553 1204 2497 
Q 953 2441 691 2322 
L 691 4666 
z
" transform="scale(0.015625)"/>
       </defs>
       <use xlink:href="#DejaVuSans-32"/>
       <use xlink:href="#DejaVuSans-35" x="63.623047"/>
       <use xlink:href="#DejaVuSans-30" x="127.246094"/>
      </g>
     </g>
    </g>
    <g id="xtick_3">
     <g id="line2d_3">
      <g>
       <use xlink:href="#m5049f11ac1" x="155.036966" y="307.584" style="stroke: #000000; stroke-width: 0.8"/>
      </g>
     </g>
     <g id="text_3">
      <!-- 500 -->
      <g transform="translate(145.493216 322.182437)scale(0.1 -0.1)">
       <use xlink:href="#DejaVuSans-35"/>
       <use xlink:href="#DejaVuSans-30" x="63.623047"/>
       <use xlink:href="#DejaVuSans-30" x="127.246094"/>
      </g>
     </g>
    </g>
    <g id="xtick_4">
     <g id="line2d_4">
      <g>
       <use xlink:href="#m5049f11ac1" x="195.639085" y="307.584" style="stroke: #000000; stroke-width: 0.8"/>
      </g>
     </g>
     <g id="text_4">
      <!-- 750 -->
      <g transform="translate(186.095335 322.182437)scale(0.1 -0.1)">
       <defs>
        <path id="DejaVuSans-37" d="M 525 4666 
L 3525 4666 
L 3525 4397 
L 1831 0 
L 1172 0 
L 2766 4134 
L 525 4134 
L 525 4666 
z
" transform="scale(0.015625)"/>
       </defs>
       <use xlink:href="#DejaVuSans-37"/>
       <use xlink:href="#DejaVuSans-35" x="63.623047"/>
       <use xlink:href="#DejaVuSans-30" x="127.246094"/>
      </g>
     </g>
    </g>
    <g id="xtick_5">
     <g id="line2d_5">
      <g>
       <use xlink:href="#m5049f11ac1" x="236.241204" y="307.584" style="stroke: #000000; stroke-width: 0.8"/>
      </g>
     </g>
     <g id="text_5">
      <!-- 1000 -->
      <g transform="translate(223.516204 322.182437)scale(0.1 -0.1)">
       <defs>
        <path id="DejaVuSans-31" d="M 794 531 
L 1825 531 
L 1825 4091 
L 703 3866 
L 703 4441 
L 1819 4666 
L 2450 4666 
L 2450 531 
L 3481 531 
L 3481 0 
L 794 0 
L 794 531 
z
" transform="scale(0.015625)"/>
       </defs>
       <use xlink:href="#DejaVuSans-31"/>
       <use xlink:href="#DejaVuSans-30" x="63.623047"/>
       <use xlink:href="#DejaVuSans-30" x="127.246094"/>
       <use xlink:href="#DejaVuSans-30" x="190.869141"/>
      </g>
     </g>
    </g>
    <g id="xtick_6">
     <g id="line2d_6">
      <g>
       <use xlink:href="#m5049f11ac1" x="276.843323" y="307.584" style="stroke: #000000; stroke-width: 0.8"/>
      </g>
     </g>
     <g id="text_6">
      <!-- 1250 -->
      <g transform="translate(264.118323 322.182437)scale(0.1 -0.1)">
       <use xlink:href="#DejaVuSans-31"/>
       <use xlink:href="#DejaVuSans-32" x="63.623047"/>
       <use xlink:href="#DejaVuSans-35" x="127.246094"/>
       <use xlink:href="#DejaVuSans-30" x="190.869141"/>
      </g>
     </g>
    </g>
    <g id="xtick_7">
     <g id="line2d_7">
      <g>
       <use xlink:href="#m5049f11ac1" x="317.445443" y="307.584" style="stroke: #000000; stroke-width: 0.8"/>
      </g>
     </g>
     <g id="text_7">
      <!-- 1500 -->
      <g transform="translate(304.720443 322.182437)scale(0.1 -0.1)">
       <use xlink:href="#DejaVuSans-31"/>
       <use xlink:href="#DejaVuSans-35" x="63.623047"/>
       <use xlink:href="#DejaVuSans-30" x="127.246094"/>
       <use xlink:href="#DejaVuSans-30" x="190.869141"/>
      </g>
     </g>
    </g>
    <g id="xtick_8">
     <g id="line2d_8">
      <g>
       <use xlink:href="#m5049f11ac1" x="358.047562" y="307.584" style="stroke: #000000; stroke-width: 0.8"/>
      </g>
     </g>
     <g id="text_8">
      <!-- 1750 -->
      <g transform="translate(345.322562 322.182437)scale(0.1 -0.1)">
       <use xlink:href="#DejaVuSans-31"/>
       <use xlink:href="#DejaVuSans-37" x="63.623047"/>
       <use xlink:href="#DejaVuSans-35" x="127.246094"/>
       <use xlink:href="#DejaVuSans-30" x="190.869141"/>
      </g>
     </g>
    </g>
    <g id="xtick_9">
     <g id="line2d_9">
      <g>
       <use xlink:href="#m5049f11ac1" x="398.649681" y="307.584" style="stroke: #000000; stroke-width: 0.8"/>
      </g>
     </g>
     <g id="text_9">
      <!-- 2000 -->
      <g transform="translate(385.924681 322.182437)scale(0.1 -0.1)">
       <use xlink:href="#DejaVuSans-32"/>
       <use xlink:href="#DejaVuSans-30" x="63.623047"/>
       <use xlink:href="#DejaVuSans-30" x="127.246094"/>
       <use xlink:href="#DejaVuSans-30" x="190.869141"/>
      </g>
     </g>
    </g>
    <g id="text_10">
     <!-- Number of Orders -->
     <g transform="translate(191.261562 335.860562)scale(0.1 -0.1)">
      <defs>
       <path id="DejaVuSans-4e" d="M 628 4666 
L 1478 4666 
L 3547 763 
L 3547 4666 
L 4159 4666 
L 4159 0 
L 3309 0 
L 1241 3903 
L 1241 0 
L 628 0 
L 628 4666 
z
" transform="scale(0.015625)"/>
       <path id="DejaVuSans-75" d="M 544 1381 
L 544 3500 
L 1119 3500 
L 1119 1403 
Q 1119 906 1312 657 
Q 1506 409 1894 409 
Q 2359 409 2629 706 
Q 2900 1003 2900 1516 
L 2900 3500 
L 3475 3500 
L 3475 0 
L 2900 0 
L 2900 538 
Q 2691 219 2414 64 
Q 2138 -91 1772 -91 
Q 1169 -91 856 284 
Q 544 659 544 1381 
z
M 1991 3584 
L 1991 3584 
z
" transform="scale(0.015625)"/>
       <path id="DejaVuSans-6d" d="M 3328 2828 
Q 3544 3216 3844 3400 
Q 4144 3584 4550 3584 
Q 5097 3584 5394 3201 
Q 5691 2819 5691 2113 
L 5691 0 
L 5113 0 
L 5113 2094 
Q 5113 2597 4934 2840 
Q 4756 3084 4391 3084 
Q 3944 3084 3684 2787 
Q 3425 2491 3425 1978 
L 3425 0 
L 2847 0 
L 2847 2094 
Q 2847 2600 2669 2842 
Q 2491 3084 2119 3084 
Q 1678 3084 1418 2786 
Q 1159 2488 1159 1978 
L 1159 0 
L 581 0 
L 581 3500 
L 1159 3500 
L 1159 2956 
Q 1356 3278 1631 3431 
Q 1906 3584 2284 3584 
Q 2666 3584 2933 3390 
Q 3200 3197 3328 2828 
z
" transform="scale(0.015625)"/>
       <path id="DejaVuSans-62" d="M 3116 1747 
Q 3116 2381 2855 2742 
Q 2594 3103 2138 3103 
Q 1681 3103 1420 2742 
Q 1159 2381 1159 1747 
Q 1159 1113 1420 752 
Q 1681 391 2138 391 
Q 2594 391 2855 752 
Q 3116 1113 3116 1747 
z
M 1159 2969 
Q 1341 3281 1617 3432 
Q 1894 3584 2278 3584 
Q 2916 3584 3314 3078 
Q 3713 2572 3713 1747 
Q 3713 922 3314 415 
Q 2916 -91 2278 -91 
Q 1894 -91 1617 61 
Q 1341 213 1159 525 
L 1159 0 
L 581 0 
L 581 4863 
L 1159 4863 
L 1159 2969 
z
" transform="scale(0.015625)"/>
       <path id="DejaVuSans-65" d="M 3597 1894 
L 3597 1613 
L 953 1613 
Q 991 1019 1311 708 
Q 1631 397 2203 397 
Q 2534 397 2845 478 
Q 3156 559 3463 722 
L 3463 178 
Q 3153 47 2828 -22 
Q 2503 -91 2169 -91 
Q 1331 -91 842 396 
Q 353 884 353 1716 
Q 353 2575 817 3079 
Q 1281 3584 2069 3584 
Q 2775 3584 3186 3129 
Q 3597 2675 3597 1894 
z
M 3022 2063 
Q 3016 2534 2758 2815 
Q 2500 3097 2075 3097 
Q 1594 3097 1305 2825 
Q 1016 2553 972 2059 
L 3022 2063 
z
" transform="scale(0.015625)"/>
       <path id="DejaVuSans-72" d="M 2631 2963 
Q 2534 3019 2420 3045 
Q 2306 3072 2169 3072 
Q 1681 3072 1420 2755 
Q 1159 2438 1159 1844 
L 1159 0 
L 581 0 
L 581 3500 
L 1159 3500 
L 1159 2956 
Q 1341 3275 1631 3429 
Q 1922 3584 2338 3584 
Q 2397 3584 2469 3576 
Q 2541 3569 2628 3553 
L 2631 2963 
z
" transform="scale(0.015625)"/>
       <path id="DejaVuSans-20" transform="scale(0.015625)"/>
       <path id="DejaVuSans-6f" d="M 1959 3097 
Q 1497 3097 1228 2736 
Q 959 2375 959 1747 
Q 959 1119 1226 758 
Q 1494 397 1959 397 
Q 2419 397 2687 759 
Q 2956 1122 2956 1747 
Q 2956 2369 2687 2733 
Q 2419 3097 1959 3097 
z
M 1959 3584 
Q 2709 3584 3137 3096 
Q 3566 2609 3566 1747 
Q 3566 888 3137 398 
Q 2709 -91 1959 -91 
Q 1206 -91 779 398 
Q 353 888 353 1747 
Q 353 2609 779 3096 
Q 1206 3584 1959 3584 
z
" transform="scale(0.015625)"/>
       <path id="DejaVuSans-66" d="M 2375 4863 
L 2375 4384 
L 1825 4384 
Q 1516 4384 1395 4259 
Q 1275 4134 1275 3809 
L 1275 3500 
L 2222 3500 
L 2222 3053 
L 1275 3053 
L 1275 0 
L 697 0 
L 697 3053 
L 147 3053 
L 147 3500 
L 697 3500 
L 697 3744 
Q 697 4328 969 4595 
Q 1241 4863 1831 4863 
L 2375 4863 
z
" transform="scale(0.015625)"/>
       <path id="DejaVuSans-4f" d="M 2522 4238 
Q 1834 4238 1429 3725 
Q 1025 3213 1025 2328 
Q 1025 1447 1429 934 
Q 1834 422 2522 422 
Q 3209 422 3611 934 
Q 4013 1447 4013 2328 
Q 4013 3213 3611 3725 
Q 3209 4238 2522 4238 
z
M 2522 4750 
Q 3503 4750 4090 4092 
Q 4678 3434 4678 2328 
Q 4678 1225 4090 567 
Q 3503 -91 2522 -91 
Q 1538 -91 948 565 
Q 359 1222 359 2328 
Q 359 3434 948 4092 
Q 1538 4750 2522 4750 
z
" transform="scale(0.015625)"/>
       <path id="DejaVuSans-64" d="M 2906 2969 
L 2906 4863 
L 3481 4863 
L 3481 0 
L 2906 0 
L 2906 525 
Q 2725 213 2448 61 
Q 2172 -91 1784 -91 
Q 1150 -91 751 415 
Q 353 922 353 1747 
Q 353 2572 751 3078 
Q 1150 3584 1784 3584 
Q 2172 3584 2448 3432 
Q 2725 3281 2906 2969 
z
M 947 1747 
Q 947 1113 1208 752 
Q 1469 391 1925 391 
Q 2381 391 2643 752 
Q 2906 1113 2906 1747 
Q 2906 2381 2643 2742 
Q 2381 3103 1925 3103 
Q 1469 3103 1208 2742 
Q 947 2381 947 1747 
z
" transform="scale(0.015625)"/>
       <path id="DejaVuSans-73" d="M 2834 3397 
L 2834 2853 
Q 2591 2978 2328 3040 
Q 2066 3103 1784 3103 
Q 1356 3103 1142 2972 
Q 928 2841 928 2578 
Q 928 2378 1081 2264 
Q 1234 2150 1697 2047 
L 1894 2003 
Q 2506 1872 2764 1633 
Q 3022 1394 3022 966 
Q 3022 478 2636 193 
Q 2250 -91 1575 -91 
Q 1294 -91 989 -36 
Q 684 19 347 128 
L 347 722 
Q 666 556 975 473 
Q 1284 391 1588 391 
Q 1994 391 2212 530 
Q 2431 669 2431 922 
Q 2431 1156 2273 1281 
Q 2116 1406 1581 1522 
L 1381 1569 
Q 847 1681 609 1914 
Q 372 2147 372 2553 
Q 372 3047 722 3315 
Q 1072 3584 1716 3584 
Q 2034 3584 2315 3537 
Q 2597 3491 2834 3397 
z
" transform="scale(0.015625)"/>
      </defs>
      <use xlink:href="#DejaVuSans-4e"/>
      <use xlink:href="#DejaVuSans-75" x="74.804688"/>
      <use xlink:href="#DejaVuSans-6d" x="138.183594"/>
      <use xlink:href="#DejaVuSans-62" x="235.595703"/>
      <use xlink:href="#DejaVuSans-65" x="299.072266"/>
      <use xlink:href="#DejaVuSans-72" x="360.595703"/>
      <use xlink:href="#DejaVuSans-20" x="401.708984"/>
      <use xlink:href="#DejaVuSans-6f" x="433.496094"/>
      <use xlink:href="#DejaVuSans-66" x="494.677734"/>
      <use xlink:href="#DejaVuSans-20" x="529.882812"/>
      <use xlink:href="#DejaVuSans-4f" x="561.669922"/>
      <use xlink:href="#DejaVuSans-72" x="640.380859"/>
      <use xlink:href="#DejaVuSans-64" x="679.744141"/>
      <use xlink:href="#DejaVuSans-65" x="743.220703"/>
      <use xlink:href="#DejaVuSans-72" x="804.744141"/>
      <use xlink:href="#DejaVuSans-73" x="845.857422"/>
     </g>
    </g>
   </g>
   <g id="matplotlib.axis_2">
    <g id="ytick_1">
     <g id="line2d_10">
      <defs>
       <path id="mcaa97f2f08" d="M 0 0 
L -3.5 0 
" style="stroke: #000000; stroke-width: 0.8"/>
      </defs>
      <g>
       <use xlink:href="#mcaa97f2f08" x="57.6" y="290.812386" style="stroke: #000000; stroke-width: 0.8"/>
      </g>
     </g>
     <g id="text_11">
      <!-- 800 -->
      <g transform="translate(31.5125 294.611605)scale(0.1 -0.1)">
       <defs>
        <path id="DejaVuSans-38" d="M 2034 2216 
Q 1584 2216 1326 1975 
Q 1069 1734 1069 1313 
Q 1069 891 1326 650 
Q 1584 409 2034 409 
Q 2484 409 2743 651 
Q 3003 894 3003 1313 
Q 3003 1734 2745 1975 
Q 2488 2216 2034 2216 
z
M 1403 2484 
Q 997 2584 770 2862 
Q 544 3141 544 3541 
Q 544 4100 942 4425 
Q 1341 4750 2034 4750 
Q 2731 4750 3128 4425 
Q 3525 4100 3525 3541 
Q 3525 3141 3298 2862 
Q 3072 2584 2669 2484 
Q 3125 2378 3379 2068 
Q 3634 1759 3634 1313 
Q 3634 634 3220 271 
Q 2806 -91 2034 -91 
Q 1263 -91 848 271 
Q 434 634 434 1313 
Q 434 1759 690 2068 
Q 947 2378 1403 2484 
z
M 1172 3481 
Q 1172 3119 1398 2916 
Q 1625 2713 2034 2713 
Q 2441 2713 2670 2916 
Q 2900 3119 2900 3481 
Q 2900 3844 2670 4047 
Q 2441 4250 2034 4250 
Q 1625 4250 1398 4047 
Q 1172 3844 1172 3481 
z
" transform="scale(0.015625)"/>
       </defs>
       <use xlink:href="#DejaVuSans-38"/>
       <use xlink:href="#DejaVuSans-30" x="63.623047"/>
       <use xlink:href="#DejaVuSans-30" x="127.246094"/>
      </g>
     </g>
    </g>
    <g id="ytick_2">
     <g id="line2d_11">
      <g>
       <use xlink:href="#mcaa97f2f08" x="57.6" y="239.667891" style="stroke: #000000; stroke-width: 0.8"/>
      </g>
     </g>
     <g id="text_12">
      <!-- 850 -->
      <g transform="translate(31.5125 243.46711)scale(0.1 -0.1)">
       <use xlink:href="#DejaVuSans-38"/>
       <use xlink:href="#DejaVuSans-35" x="63.623047"/>
       <use xlink:href="#DejaVuSans-30" x="127.246094"/>
      </g>
     </g>
    </g>
    <g id="ytick_3">
     <g id="line2d_12">
      <g>
       <use xlink:href="#mcaa97f2f08" x="57.6" y="188.523396" style="stroke: #000000; stroke-width: 0.8"/>
      </g>
     </g>
     <g id="text_13">
      <!-- 900 -->
      <g transform="translate(31.5125 192.322615)scale(0.1 -0.1)">
       <defs>
        <path id="DejaVuSans-39" d="M 703 97 
L 703 672 
Q 941 559 1184 500 
Q 1428 441 1663 441 
Q 2288 441 2617 861 
Q 2947 1281 2994 2138 
Q 2813 1869 2534 1725 
Q 2256 1581 1919 1581 
Q 1219 1581 811 2004 
Q 403 2428 403 3163 
Q 403 3881 828 4315 
Q 1253 4750 1959 4750 
Q 2769 4750 3195 4129 
Q 3622 3509 3622 2328 
Q 3622 1225 3098 567 
Q 2575 -91 1691 -91 
Q 1453 -91 1209 -44 
Q 966 3 703 97 
z
M 1959 2075 
Q 2384 2075 2632 2365 
Q 2881 2656 2881 3163 
Q 2881 3666 2632 3958 
Q 2384 4250 1959 4250 
Q 1534 4250 1286 3958 
Q 1038 3666 1038 3163 
Q 1038 2656 1286 2365 
Q 1534 2075 1959 2075 
z
" transform="scale(0.015625)"/>
       </defs>
       <use xlink:href="#DejaVuSans-39"/>
       <use xlink:href="#DejaVuSans-30" x="63.623047"/>
       <use xlink:href="#DejaVuSans-30" x="127.246094"/>
      </g>
     </g>
    </g>
    <g id="ytick_4">
     <g id="line2d_13">
      <g>
       <use xlink:href="#mcaa97f2f08" x="57.6" y="137.378901" style="stroke: #000000; stroke-width: 0.8"/>
      </g>
     </g>
     <g id="text_14">
      <!-- 950 -->
      <g transform="translate(31.5125 141.17812)scale(0.1 -0.1)">
       <use xlink:href="#DejaVuSans-39"/>
       <use xlink:href="#DejaVuSans-35" x="63.623047"/>
       <use xlink:href="#DejaVuSans-30" x="127.246094"/>
      </g>
     </g>
    </g>
    <g id="ytick_5">
     <g id="line2d_14">
      <g>
       <use xlink:href="#mcaa97f2f08" x="57.6" y="86.234406" style="stroke: #000000; stroke-width: 0.8"/>
      </g>
     </g>
     <g id="text_15">
      <!-- 1000 -->
      <g transform="translate(25.15 90.033625)scale(0.1 -0.1)">
       <use xlink:href="#DejaVuSans-31"/>
       <use xlink:href="#DejaVuSans-30" x="63.623047"/>
       <use xlink:href="#DejaVuSans-30" x="127.246094"/>
       <use xlink:href="#DejaVuSans-30" x="190.869141"/>
      </g>
     </g>
    </g>
    <g id="text_16">
     <!-- Waiting Time/s -->
     <g transform="translate(19.070312 211.410031)rotate(-90)scale(0.1 -0.1)">
      <defs>
       <path id="DejaVuSans-57" d="M 213 4666 
L 850 4666 
L 1831 722 
L 2809 4666 
L 3519 4666 
L 4500 722 
L 5478 4666 
L 6119 4666 
L 4947 0 
L 4153 0 
L 3169 4050 
L 2175 0 
L 1381 0 
L 213 4666 
z
" transform="scale(0.015625)"/>
       <path id="DejaVuSans-61" d="M 2194 1759 
Q 1497 1759 1228 1600 
Q 959 1441 959 1056 
Q 959 750 1161 570 
Q 1363 391 1709 391 
Q 2188 391 2477 730 
Q 2766 1069 2766 1631 
L 2766 1759 
L 2194 1759 
z
M 3341 1997 
L 3341 0 
L 2766 0 
L 2766 531 
Q 2569 213 2275 61 
Q 1981 -91 1556 -91 
Q 1019 -91 701 211 
Q 384 513 384 1019 
Q 384 1609 779 1909 
Q 1175 2209 1959 2209 
L 2766 2209 
L 2766 2266 
Q 2766 2663 2505 2880 
Q 2244 3097 1772 3097 
Q 1472 3097 1187 3025 
Q 903 2953 641 2809 
L 641 3341 
Q 956 3463 1253 3523 
Q 1550 3584 1831 3584 
Q 2591 3584 2966 3190 
Q 3341 2797 3341 1997 
z
" transform="scale(0.015625)"/>
       <path id="DejaVuSans-69" d="M 603 3500 
L 1178 3500 
L 1178 0 
L 603 0 
L 603 3500 
z
M 603 4863 
L 1178 4863 
L 1178 4134 
L 603 4134 
L 603 4863 
z
" transform="scale(0.015625)"/>
       <path id="DejaVuSans-74" d="M 1172 4494 
L 1172 3500 
L 2356 3500 
L 2356 3053 
L 1172 3053 
L 1172 1153 
Q 1172 725 1289 603 
Q 1406 481 1766 481 
L 2356 481 
L 2356 0 
L 1766 0 
Q 1100 0 847 248 
Q 594 497 594 1153 
L 594 3053 
L 172 3053 
L 172 3500 
L 594 3500 
L 594 4494 
L 1172 4494 
z
" transform="scale(0.015625)"/>
       <path id="DejaVuSans-6e" d="M 3513 2113 
L 3513 0 
L 2938 0 
L 2938 2094 
Q 2938 2591 2744 2837 
Q 2550 3084 2163 3084 
Q 1697 3084 1428 2787 
Q 1159 2491 1159 1978 
L 1159 0 
L 581 0 
L 581 3500 
L 1159 3500 
L 1159 2956 
Q 1366 3272 1645 3428 
Q 1925 3584 2291 3584 
Q 2894 3584 3203 3211 
Q 3513 2838 3513 2113 
z
" transform="scale(0.015625)"/>
       <path id="DejaVuSans-67" d="M 2906 1791 
Q 2906 2416 2648 2759 
Q 2391 3103 1925 3103 
Q 1463 3103 1205 2759 
Q 947 2416 947 1791 
Q 947 1169 1205 825 
Q 1463 481 1925 481 
Q 2391 481 2648 825 
Q 2906 1169 2906 1791 
z
M 3481 434 
Q 3481 -459 3084 -895 
Q 2688 -1331 1869 -1331 
Q 1566 -1331 1297 -1286 
Q 1028 -1241 775 -1147 
L 775 -588 
Q 1028 -725 1275 -790 
Q 1522 -856 1778 -856 
Q 2344 -856 2625 -561 
Q 2906 -266 2906 331 
L 2906 616 
Q 2728 306 2450 153 
Q 2172 0 1784 0 
Q 1141 0 747 490 
Q 353 981 353 1791 
Q 353 2603 747 3093 
Q 1141 3584 1784 3584 
Q 2172 3584 2450 3431 
Q 2728 3278 2906 2969 
L 2906 3500 
L 3481 3500 
L 3481 434 
z
" transform="scale(0.015625)"/>
       <path id="DejaVuSans-54" d="M -19 4666 
L 3928 4666 
L 3928 4134 
L 2272 4134 
L 2272 0 
L 1638 0 
L 1638 4134 
L -19 4134 
L -19 4666 
z
" transform="scale(0.015625)"/>
       <path id="DejaVuSans-2f" d="M 1625 4666 
L 2156 4666 
L 531 -594 
L 0 -594 
L 1625 4666 
z
" transform="scale(0.015625)"/>
      </defs>
      <use xlink:href="#DejaVuSans-57"/>
      <use xlink:href="#DejaVuSans-61" x="92.501953"/>
      <use xlink:href="#DejaVuSans-69" x="153.78125"/>
      <use xlink:href="#DejaVuSans-74" x="181.564453"/>
      <use xlink:href="#DejaVuSans-69" x="220.773438"/>
      <use xlink:href="#DejaVuSans-6e" x="248.556641"/>
      <use xlink:href="#DejaVuSans-67" x="311.935547"/>
      <use xlink:href="#DejaVuSans-20" x="375.412109"/>
      <use xlink:href="#DejaVuSans-54" x="407.199219"/>
      <use xlink:href="#DejaVuSans-69" x="465.158203"/>
      <use xlink:href="#DejaVuSans-6d" x="492.941406"/>
      <use xlink:href="#DejaVuSans-65" x="590.353516"/>
      <use xlink:href="#DejaVuSans-2f" x="651.876953"/>
      <use xlink:href="#DejaVuSans-73" x="685.568359"/>
     </g>
    </g>
   </g>
   <g id="line2d_15">
    <path d="M 73.832727 295.488 
L 73.995136 213.626078 
L 74.319953 232.32602 
L 74.64477 141.343468 
L 74.807178 145.810151 
L 74.969587 124.825458 
L 75.131995 123.756489 
L 75.294404 147.714367 
L 75.456812 145.726752 
L 75.619221 135.866236 
L 75.781629 135.54177 
L 75.944037 123.965703 
L 76.106446 138.203643 
L 76.268854 118.383202 
L 76.431263 118.960616 
L 76.593671 126.954137 
L 76.75608 127.319037 
L 76.918488 115.506699 
L 77.080897 126.834771 
L 77.243305 119.94805 
L 77.405714 106.794887 
L 77.568122 111.515722 
L 77.730531 99.513145 
L 77.892939 105.220942 
L 78.055348 97.753596 
L 78.704982 111.813435 
L 78.86739 106.025043 
L 79.029799 113.756684 
L 79.517024 88.159913 
L 79.679432 90.697352 
L 79.841841 91.427589 
L 80.329066 78.636568 
L 80.653883 80.175803 
L 80.816292 73.580613 
L 80.9787 75.387635 
L 81.141109 78.947122 
L 81.303517 76.749792 
L 81.465926 71.483481 
L 81.628334 70.97037 
L 81.790743 72.220957 
L 82.11556 77.820195 
L 82.277968 77.534167 
L 82.440377 75.927924 
L 82.602785 77.729218 
L 82.927602 84.845134 
L 83.09001 83.924479 
L 83.252419 85.791372 
L 83.577236 96.389787 
L 84.064461 85.926083 
L 84.22687 87.201805 
L 84.389278 86.257074 
L 84.551687 82.885546 
L 84.714095 82.242829 
L 85.038912 76.648246 
L 85.363729 80.712308 
L 85.526138 79.978808 
L 85.688546 81.609479 
L 85.850955 80.827574 
L 86.013363 82.281988 
L 86.175772 79.248526 
L 86.33818 74.058408 
L 86.500588 76.441528 
L 86.662997 74.929164 
L 86.825405 74.714869 
L 87.150222 72.15572 
L 87.312631 71.511617 
L 87.637448 69.315326 
L 88.124673 72.254208 
L 88.287082 71.446128 
L 88.774307 66.463273 
L 88.936716 65.251467 
L 89.261533 59.561033 
L 89.58635 56.669862 
L 89.748758 59.163185 
L 90.073575 56.868664 
L 90.235983 55.227981 
L 90.398392 55.335313 
L 90.5608 55.141621 
L 90.723209 55.506108 
L 90.885617 59.042222 
L 91.048026 57.434977 
L 91.210434 58.366107 
L 91.69766 56.957008 
L 91.860068 56.640935 
L 92.184885 59.488605 
L 92.347294 57.342219 
L 92.509702 56.950157 
L 92.672111 58.857331 
L 93.159336 56.761109 
L 93.321745 57.332968 
L 93.484153 56.952598 
L 93.646561 55.922592 
L 93.80897 56.276314 
L 93.971378 55.994686 
L 94.133787 58.528137 
L 94.458604 58.71986 
L 94.621012 59.244358 
L 94.783421 61.843991 
L 95.108238 57.698025 
L 95.270646 57.777607 
L 95.433055 59.660189 
L 95.595463 59.707921 
L 95.757872 57.327466 
L 96.082689 59.688908 
L 96.245097 57.74783 
L 96.407506 57.157403 
L 96.732323 53.568 
L 96.894731 54.503171 
L 97.057139 54.655361 
L 97.219548 55.842486 
L 97.381956 58.172198 
L 97.544365 58.308 
L 97.706773 56.994694 
L 97.869182 54.667791 
L 98.03159 55.58416 
L 98.193999 54.965866 
L 98.356407 53.721891 
L 98.518816 55.8849 
L 98.681224 55.007563 
L 98.843633 55.304371 
L 99.006041 55.03259 
L 99.330858 55.276612 
L 99.493267 54.008044 
L 99.655675 55.339257 
L 99.818084 55.714367 
L 99.980492 57.796132 
L 100.142901 57.186735 
L 100.467717 58.275432 
L 100.792534 55.539468 
L 100.954943 55.529602 
L 101.117351 56.746512 
L 101.27976 56.531504 
L 101.604577 58.450782 
L 101.766985 56.522707 
L 102.091802 59.773179 
L 102.416619 57.654341 
L 102.579028 57.778116 
L 102.903845 60.256204 
L 103.066253 61.407245 
L 103.39107 59.389978 
L 103.553479 59.540518 
L 104.203112 64.540336 
L 104.527929 61.977664 
L 104.690338 62.102185 
L 104.852746 62.950619 
L 105.015155 61.799338 
L 105.177563 61.806389 
L 105.339972 61.344817 
L 105.50238 61.999325 
L 106.152014 67.684083 
L 106.314423 66.399638 
L 106.476831 66.254519 
L 106.63924 65.229948 
L 106.801648 65.624821 
L 106.964057 65.134605 
L 107.126465 65.261063 
L 107.288874 66.346958 
L 107.451282 64.492902 
L 107.61369 64.550706 
L 107.776099 63.15514 
L 107.938507 64.464833 
L 108.100916 63.568698 
L 108.263324 63.734835 
L 108.425733 62.873371 
L 108.75055 64.396266 
L 109.237775 63.342562 
L 109.400184 64.330745 
L 109.562592 64.48524 
L 109.725001 65.512443 
L 109.887409 65.299588 
L 110.049818 65.619544 
L 110.212226 64.995612 
L 110.537043 63.419143 
L 110.86186 64.893132 
L 111.024268 64.640046 
L 111.186677 63.322679 
L 111.511494 64.570088 
L 111.673902 65.168315 
L 111.836311 65.024041 
L 111.998719 65.919032 
L 112.161128 65.842477 
L 112.323536 65.11006 
L 112.648353 67.729014 
L 112.810762 67.102234 
L 112.97317 68.271083 
L 113.135579 68.631382 
L 113.297987 68.049798 
L 113.460396 68.901226 
L 113.622804 68.962573 
L 113.785213 68.426494 
L 113.947621 68.996462 
L 114.11003 68.741505 
L 114.272438 69.262316 
L 114.434847 69.086042 
L 114.759663 71.192221 
L 115.246889 70.53203 
L 115.734114 70.868191 
L 115.896523 71.478883 
L 116.058931 72.786572 
L 116.383748 70.815286 
L 116.546157 70.842364 
L 116.708565 70.446914 
L 117.033382 71.090892 
L 117.195791 70.696717 
L 117.358199 71.373065 
L 117.520608 71.222404 
L 117.683016 69.097646 
L 118.007833 71.07122 
L 118.495058 72.325599 
L 118.819875 70.981441 
L 119.307101 73.549308 
L 119.469509 72.961463 
L 119.631918 73.15653 
L 119.794326 73.531829 
L 119.956735 74.228663 
L 120.119143 75.46126 
L 120.281552 75.140981 
L 120.606369 73.329133 
L 120.931186 74.018103 
L 121.256003 74.877124 
L 121.418411 75.756487 
L 121.743228 74.058158 
L 122.068045 75.982335 
L 122.230453 75.74092 
L 122.392862 75.723573 
L 122.55527 75.50002 
L 122.717679 75.52234 
L 123.042496 76.974892 
L 123.204904 76.592349 
L 123.529721 78.056564 
L 123.854538 77.316246 
L 124.016947 77.619487 
L 124.179355 78.760519 
L 124.504172 77.529575 
L 124.666581 77.609194 
L 124.828989 77.527152 
L 124.991398 77.684522 
L 125.153806 78.513339 
L 125.316214 77.87896 
L 125.478623 78.066178 
L 125.641031 78.433424 
L 125.80344 78.38212 
L 125.965848 78.133522 
L 126.453074 79.677472 
L 126.615482 79.603115 
L 126.940299 78.563576 
L 127.265116 80.027086 
L 127.589933 81.314182 
L 127.91475 83.295488 
L 128.077159 83.279455 
L 128.239567 82.273012 
L 128.401976 82.257506 
L 129.214018 78.917635 
L 129.376426 79.05141 
L 129.538835 78.974028 
L 129.863652 80.647797 
L 130.02606 80.99001 
L 130.188469 80.636143 
L 130.350877 80.566335 
L 130.838103 81.795911 
L 131.000511 81.902463 
L 131.325328 81.175562 
L 131.650145 82.913316 
L 131.812554 82.868119 
L 132.137371 80.979826 
L 132.462187 82.266927 
L 132.949413 81.285313 
L 133.27423 79.900252 
L 133.436638 80.046815 
L 133.599047 79.807702 
L 133.923864 80.983033 
L 134.248681 81.242957 
L 134.573498 80.433857 
L 134.735906 80.029651 
L 134.898315 78.701865 
L 135.223132 78.050113 
L 135.38554 76.90366 
L 135.547949 77.283377 
L 135.710357 77.207633 
L 135.872765 77.79493 
L 136.197582 77.533869 
L 136.359991 77.505442 
L 136.522399 76.867086 
L 136.684808 77.179751 
L 136.847216 77.037387 
L 137.009625 77.213484 
L 137.334442 78.619859 
L 137.659259 77.411481 
L 137.821667 77.819201 
L 137.984076 77.393563 
L 138.146484 77.564247 
L 138.308893 77.498165 
L 138.471301 76.264975 
L 138.63371 76.025097 
L 138.796118 75.542693 
L 138.958527 75.486571 
L 139.283343 76.498545 
L 139.445752 76.528819 
L 139.60816 76.817389 
L 139.770569 76.069368 
L 139.932977 76.043312 
L 140.095386 76.382795 
L 140.420203 77.783745 
L 140.907428 76.818669 
L 141.069837 77.487426 
L 141.232245 77.584759 
L 141.394654 77.941135 
L 141.557062 77.445583 
L 141.719471 78.16522 
L 141.881879 78.174774 
L 142.044288 78.768862 
L 142.206696 77.969106 
L 142.531513 79.08306 
L 142.693922 78.553788 
L 142.85633 78.474244 
L 143.018738 79.015327 
L 143.343555 77.953347 
L 143.505964 78.540859 
L 143.668372 78.142444 
L 143.993189 77.86117 
L 144.155598 78.402908 
L 144.480415 76.706212 
L 144.642823 76.82454 
L 144.805232 77.379061 
L 144.96764 77.115844 
L 145.292457 78.300669 
L 145.617274 77.755875 
L 145.942091 77.811671 
L 146.429316 79.453647 
L 146.591725 79.526116 
L 146.754133 79.367662 
L 147.07895 80.19138 
L 147.403767 81.529821 
L 147.728584 80.727551 
L 147.890993 80.803812 
L 148.378218 81.551975 
L 148.540627 81.190119 
L 149.027852 82.512355 
L 149.190261 82.54422 
L 149.515078 83.46819 
L 149.677486 83.655425 
L 150.164711 85.190434 
L 150.32712 85.067354 
L 150.489528 85.427528 
L 150.651937 85.221654 
L 150.976754 85.483488 
L 151.301571 84.973092 
L 151.463979 84.522848 
L 151.788796 85.143837 
L 151.951205 84.403389 
L 152.113613 84.241137 
L 152.43843 83.605911 
L 152.600839 83.457644 
L 152.763247 83.768683 
L 152.925656 83.570299 
L 153.250473 84.133721 
L 153.412881 83.905606 
L 153.575289 83.307081 
L 153.737698 83.421614 
L 154.062515 82.659464 
L 154.224923 82.786493 
L 154.387332 82.835847 
L 154.54974 82.32145 
L 154.712149 82.629402 
L 154.874557 82.377297 
L 155.036966 82.784025 
L 155.199374 82.39947 
L 155.361783 83.042265 
L 155.524191 83.009221 
L 155.6866 83.273105 
L 155.849008 82.973958 
L 156.011417 83.562205 
L 156.173825 83.425592 
L 156.336234 83.053377 
L 156.498642 82.973201 
L 156.985867 83.554024 
L 157.310684 82.410044 
L 157.473093 82.388069 
L 157.79791 83.07991 
L 158.122727 81.832736 
L 158.447544 81.227645 
L 158.772361 82.186853 
L 158.934769 81.934193 
L 159.259586 82.758828 
L 159.584403 83.143766 
L 159.746812 82.654995 
L 159.90922 82.841255 
L 160.234037 81.825137 
L 160.396445 82.112993 
L 160.558854 81.900577 
L 160.883671 81.240261 
L 161.046079 81.931102 
L 161.208488 81.679075 
L 161.370896 81.986228 
L 161.695713 82.07219 
L 162.182939 82.610481 
L 162.345347 82.283246 
L 162.507756 82.261464 
L 162.670164 82.467348 
L 162.832573 82.005617 
L 162.994981 82.180491 
L 163.15739 82.008315 
L 163.319798 82.273447 
L 163.644615 81.844027 
L 163.969432 82.917983 
L 164.13184 82.701768 
L 164.294249 82.767217 
L 164.456657 82.572681 
L 165.106291 81.054201 
L 165.2687 81.285832 
L 165.431108 81.771946 
L 165.755925 81.632903 
L 166.243151 82.730158 
L 166.405559 82.491769 
L 166.567968 81.830739 
L 166.730376 81.704751 
L 166.892785 81.391786 
L 167.055193 81.627179 
L 167.217602 81.331022 
L 167.38001 81.345601 
L 167.867235 80.460756 
L 168.029644 80.808289 
L 168.192052 80.79797 
L 168.354461 81.124807 
L 168.516869 80.873559 
L 168.679278 80.939511 
L 169.004095 81.578117 
L 169.653729 80.465383 
L 169.816137 80.139205 
L 170.140954 80.305447 
L 170.303363 80.432321 
L 170.465771 80.058094 
L 170.952996 81.258517 
L 171.115405 81.076678 
L 171.277813 81.32149 
L 171.440222 81.203359 
L 171.60263 81.629078 
L 171.765039 81.721653 
L 171.927447 81.258345 
L 172.089856 81.836352 
L 172.252264 81.578107 
L 172.414673 81.828382 
L 172.577081 81.439121 
L 173.226715 82.735413 
L 173.389124 82.470748 
L 173.551532 82.573252 
L 173.876349 83.076799 
L 174.038758 83.028905 
L 174.201166 82.481098 
L 174.363575 82.828701 
L 174.525983 82.47795 
L 174.688391 82.737265 
L 175.013208 83.508138 
L 175.175617 83.616842 
L 175.662842 84.721669 
L 175.825251 84.450752 
L 176.150068 85.476197 
L 176.312476 85.551715 
L 176.637293 86.167148 
L 176.799702 86.598956 
L 176.96211 86.217568 
L 177.286927 87.062634 
L 177.449336 87.040064 
L 177.611744 87.159711 
L 177.936561 86.394789 
L 178.261378 85.672549 
L 178.586195 86.063718 
L 179.560646 84.653799 
L 179.723054 84.58132 
L 179.885463 84.695295 
L 180.047871 84.991206 
L 180.21028 85.001329 
L 180.535097 84.338701 
L 180.697505 84.481445 
L 180.859914 84.823992 
L 181.022322 84.406819 
L 181.184731 84.298372 
L 181.671956 83.309112 
L 181.996773 83.328939 
L 182.159181 83.844817 
L 182.32159 83.809345 
L 182.483998 83.919348 
L 182.971224 84.641382 
L 183.133632 84.179451 
L 183.296041 84.099409 
L 184.108083 85.596738 
L 184.595309 84.820315 
L 184.920126 85.596292 
L 185.244942 85.949062 
L 185.569759 86.386411 
L 186.056985 87.532091 
L 186.381802 86.856836 
L 186.54421 87.159313 
L 186.706619 87.051005 
L 186.869027 87.364254 
L 187.031436 87.214797 
L 187.518661 87.36582 
L 187.843478 87.888979 
L 188.168295 88.494142 
L 188.330704 88.220967 
L 188.493112 88.228027 
L 189.142746 89.408081 
L 189.305154 89.098643 
L 189.629971 89.51872 
L 189.954788 90.158849 
L 190.117197 90.380727 
L 190.929239 89.228316 
L 191.091648 89.545249 
L 191.254056 89.472496 
L 191.416465 89.812672 
L 191.578873 89.379565 
L 191.741282 89.322293 
L 191.90369 89.582076 
L 192.228507 89.337728 
L 192.390915 89.422451 
L 192.715732 89.034436 
L 193.040549 88.945979 
L 193.202958 89.19243 
L 193.527775 89.205005 
L 193.690183 89.042719 
L 194.015 89.215197 
L 194.502226 89.618804 
L 194.827043 88.945995 
L 194.989451 89.333969 
L 195.15186 89.353044 
L 195.314268 89.048344 
L 195.801493 89.334166 
L 195.963902 89.087192 
L 196.288719 89.681205 
L 196.451127 89.821457 
L 196.613536 89.704373 
L 196.775944 90.10446 
L 197.26317 89.216829 
L 197.425578 89.204118 
L 197.912804 89.781929 
L 198.075212 89.642179 
L 199.049663 91.43125 
L 199.212071 91.268754 
L 199.37448 90.7532 
L 199.536888 90.61589 
L 199.699297 90.160771 
L 199.861705 90.535151 
L 200.186522 90.585192 
L 200.511339 91.242046 
L 200.673748 91.361041 
L 200.836156 91.330438 
L 200.998565 91.17447 
L 201.160973 90.748583 
L 201.323382 90.763658 
L 201.48579 90.645424 
L 201.648199 91.045679 
L 201.810607 90.864791 
L 201.973016 91.255192 
L 202.135424 91.325399 
L 202.297833 91.172626 
L 202.460241 91.268314 
L 202.62265 91.616533 
L 202.785058 91.465063 
L 202.947466 91.541901 
L 203.434692 91.209302 
L 203.5971 91.667068 
L 204.084326 91.850925 
L 204.246734 91.800922 
L 204.409143 91.544099 
L 204.571551 91.733021 
L 204.73396 91.522332 
L 204.896368 91.793065 
L 205.221185 91.634119 
L 205.383594 91.845512 
L 205.708411 91.770451 
L 206.195636 91.733254 
L 206.358044 92.125012 
L 206.520453 91.762918 
L 206.682861 91.688091 
L 206.84527 92.009931 
L 207.007678 91.980888 
L 207.170087 92.170272 
L 207.494904 91.761531 
L 207.657312 91.750529 
L 207.819721 92.209703 
L 207.982129 92.216961 
L 208.306946 92.713932 
L 208.631763 92.212973 
L 208.794172 92.237658 
L 209.118989 91.683282 
L 209.281397 91.804023 
L 209.443806 91.731312 
L 209.931031 92.251277 
L 210.093439 91.926402 
L 210.255848 92.120462 
L 210.418256 91.907517 
L 210.580665 92.30527 
L 210.743073 92.358824 
L 210.905482 92.78035 
L 211.06789 92.465837 
L 211.230299 92.505546 
L 211.555116 93.038405 
L 211.717524 92.665714 
L 211.879933 92.619135 
L 212.20475 92.205 
L 212.529567 92.16197 
L 212.691975 92.366693 
L 212.854384 92.232663 
L 213.016792 91.940623 
L 213.341609 92.383498 
L 213.504017 92.40522 
L 213.666426 92.570743 
L 213.828834 92.559356 
L 213.991243 92.29627 
L 214.153651 92.420822 
L 214.478468 91.799726 
L 214.640877 91.9684 
L 214.965694 92.558757 
L 215.128102 92.844339 
L 215.290511 92.472178 
L 215.452919 92.767772 
L 215.615328 92.725918 
L 216.42737 91.348757 
L 216.752187 91.246118 
L 216.914595 91.244031 
L 217.077004 91.531907 
L 217.239412 91.204113 
L 217.564229 91.551796 
L 217.889046 90.899864 
L 218.051455 90.886373 
L 218.376272 90.735741 
L 218.53868 90.617409 
L 218.701089 90.347296 
L 218.863497 90.465652 
L 219.025906 90.229755 
L 219.188314 90.345149 
L 219.350723 90.760095 
L 219.513131 90.69786 
L 219.837948 91.044464 
L 220.162765 90.977561 
L 220.64999 91.071592 
L 220.812399 91.185723 
L 220.974807 91.480015 
L 221.137216 91.32022 
L 221.462033 91.626642 
L 221.624441 91.831175 
L 221.78685 91.663966 
L 221.949258 91.765891 
L 222.436484 91.38933 
L 222.761301 91.68789 
L 222.923709 91.540003 
L 223.086118 90.978962 
L 223.248526 91.096701 
L 223.410935 90.913 
L 223.573343 91.286571 
L 223.735752 91.119779 
L 224.060568 91.072728 
L 224.385385 90.637933 
L 224.872611 90.693468 
L 225.035019 90.936176 
L 225.359836 90.373974 
L 225.522245 90.660472 
L 225.847062 90.7845 
L 226.00947 90.546727 
L 226.171879 90.801556 
L 226.334287 90.544981 
L 226.659104 91.002504 
L 226.821513 90.740373 
L 226.983921 90.996362 
L 227.14633 90.923976 
L 227.308738 91.057514 
L 227.471146 90.964551 
L 227.633555 91.192006 
L 227.795963 91.064723 
L 228.12078 90.388873 
L 228.283189 90.534758 
L 228.445597 90.527819 
L 229.420048 91.468379 
L 229.744865 91.170144 
L 230.232091 91.264356 
L 230.394499 91.015068 
L 230.556908 91.290478 
L 230.719316 91.224874 
L 231.36895 91.531666 
L 231.531358 91.340131 
L 231.856175 91.769247 
L 232.018584 91.982952 
L 232.180992 91.811445 
L 232.505809 91.859395 
L 232.830626 91.772777 
L 233.155443 91.887229 
L 233.317852 92.027157 
L 233.48026 91.986381 
L 233.642669 91.69326 
L 233.805077 92.027164 
L 234.129894 92.164958 
L 234.617119 92.421464 
L 234.779528 92.554869 
L 235.104345 92.978066 
L 235.266753 93.108861 
L 235.753979 93.964382 
L 235.916387 94.224 
L 236.078796 94.270402 
L 236.241204 94.19961 
L 236.403613 93.932619 
L 236.890838 93.992523 
L 237.053247 94.267447 
L 237.215655 94.255884 
L 237.702881 94.811214 
L 238.190106 94.750138 
L 238.352514 95.014712 
L 239.002148 94.314863 
L 239.326965 94.30506 
L 239.489374 93.961574 
L 239.814191 94.111518 
L 239.976599 94.199007 
L 240.139008 94.050247 
L 240.301416 94.081758 
L 240.463825 94.291045 
L 241.113459 94.270748 
L 241.438276 94.500577 
L 241.763092 94.653182 
L 242.087909 94.537248 
L 242.250318 94.610641 
L 242.412726 94.322201 
L 242.575135 94.339543 
L 242.737543 94.228849 
L 243.224769 94.780543 
L 243.387177 94.771023 
L 243.549586 94.614605 
L 243.711994 94.250901 
L 244.036811 94.339106 
L 244.19922 94.575492 
L 244.361628 94.473715 
L 244.686445 94.574833 
L 244.848854 94.299309 
L 245.011262 94.339257 
L 245.17367 94.095091 
L 245.336079 94.365666 
L 245.498487 94.050394 
L 245.660896 94.086717 
L 245.985713 94.307324 
L 246.148121 94.341859 
L 246.31053 94.10828 
L 246.472938 94.123281 
L 246.635347 93.913492 
L 246.797755 94.188262 
L 247.284981 94.191025 
L 247.447389 94.403058 
L 247.934615 94.505219 
L 248.097023 94.649066 
L 248.42184 94.086759 
L 248.746657 94.296954 
L 248.909065 94.208829 
L 249.071474 94.453695 
L 249.233882 94.237069 
L 249.558699 94.571532 
L 249.721108 94.371312 
L 250.045925 94.94663 
L 250.208333 94.710622 
L 250.370742 94.703307 
L 250.53315 94.961083 
L 250.695559 94.968322 
L 250.857967 94.61645 
L 251.020376 94.71676 
L 251.345193 94.504947 
L 251.507601 94.500617 
L 251.832418 94.916085 
L 252.157235 94.907861 
L 252.482052 95.400089 
L 252.64446 95.440527 
L 252.806869 95.626348 
L 252.969277 95.601944 
L 253.131686 95.740667 
L 253.294094 95.530442 
L 253.456503 95.711268 
L 253.618911 95.555467 
L 254.106137 95.460408 
L 254.268545 95.806472 
L 254.755771 95.898387 
L 254.918179 95.582879 
L 255.242996 96.138992 
L 255.405405 96.102619 
L 255.567813 96.331807 
L 255.730221 96.337534 
L 255.89263 96.174095 
L 256.055038 96.206268 
L 256.217447 96.362775 
L 256.379855 96.068199 
L 256.542264 96.030599 
L 256.704672 96.205576 
L 256.867081 95.930832 
L 257.516715 96.867709 
L 257.841532 96.220155 
L 258.166349 96.792818 
L 258.815983 96.339005 
L 258.978391 96.570946 
L 259.465616 96.461859 
L 259.628025 96.751566 
L 259.790433 96.683505 
L 259.952842 96.434096 
L 260.11525 96.415462 
L 260.277659 96.523169 
L 260.440067 96.206369 
L 260.927293 96.804722 
L 261.089701 96.705261 
L 261.25211 96.838415 
L 261.414518 96.822037 
L 261.576927 96.566534 
L 261.739335 96.796869 
L 262.064152 96.626512 
L 262.388969 96.631382 
L 262.713786 96.891148 
L 263.038603 96.709022 
L 263.201011 96.822186 
L 263.525828 96.53718 
L 263.688237 96.699339 
L 263.850645 96.615574 
L 264.013054 96.793889 
L 264.337871 96.758028 
L 265.149913 97.569051 
L 265.312322 97.585668 
L 265.637139 98.130451 
L 265.799547 98.189582 
L 265.961956 97.813257 
L 266.124364 97.793709 
L 266.286772 98.077503 
L 266.449181 98.035424 
L 266.773998 97.730792 
L 266.936406 97.708832 
L 267.261223 98.018398 
L 267.423632 97.891905 
L 267.748449 98.039454 
L 268.073266 98.498299 
L 268.235674 97.952341 
L 268.398083 98.076391 
L 268.885308 97.6489 
L 269.210125 97.756858 
L 269.534942 97.397217 
L 269.69735 97.357905 
L 270.022167 97.485268 
L 270.346984 97.390052 
L 270.509393 97.626559 
L 270.671801 97.575232 
L 270.996618 97.992625 
L 271.321435 97.939819 
L 271.483844 98.173839 
L 271.808661 98.135746 
L 271.971069 98.24035 
L 272.133478 98.155845 
L 272.783112 98.909138 
L 272.94552 98.772046 
L 273.270337 98.092832 
L 273.432745 98.17363 
L 273.757562 98.122724 
L 274.082379 98.275089 
L 274.244788 98.00889 
L 275.05683 98.387294 
L 275.544056 98.101018 
L 276.031281 98.35807 
L 276.19369 98.367649 
L 276.356098 98.25863 
L 276.518507 98.317778 
L 276.680915 97.967997 
L 276.843323 98.101212 
L 277.16814 97.885633 
L 277.492957 97.271476 
L 278.142591 97.418633 
L 278.305 97.300351 
L 278.629817 97.455538 
L 278.954634 97.217767 
L 279.117042 97.297035 
L 279.279451 97.027023 
L 279.766676 97.397126 
L 280.091493 97.53849 
L 280.253901 97.44943 
L 280.41631 97.511797 
L 280.741127 97.065292 
L 280.903535 97.211154 
L 281.065944 97.156971 
L 281.553169 97.497528 
L 281.877986 97.715953 
L 282.040395 97.679132 
L 282.202803 97.829469 
L 282.365212 97.809268 
L 282.52762 97.626541 
L 282.690029 97.61198 
L 282.852437 97.762052 
L 283.014846 97.715496 
L 283.339663 97.993772 
L 284.151705 98.3572 
L 284.314113 98.26409 
L 284.476522 98.413325 
L 284.63893 98.285774 
L 284.963747 98.530148 
L 285.126156 98.300609 
L 285.288564 98.549469 
L 285.450973 98.425712 
L 285.77579 98.869479 
L 285.938198 98.883787 
L 286.425424 98.582648 
L 286.587832 98.636888 
L 286.750241 98.490747 
L 287.075058 98.713153 
L 287.399874 98.664281 
L 287.562283 98.439015 
L 287.724691 98.459405 
L 288.049508 98.05745 
L 288.211917 98.178083 
L 288.536734 98.111236 
L 288.861551 98.296783 
L 289.023959 98.339453 
L 289.186368 98.21748 
L 289.348776 98.326986 
L 289.511185 98.192282 
L 289.836002 98.539504 
L 290.648044 98.573579 
L 290.972861 98.913647 
L 291.135269 98.900745 
L 291.297678 99.079624 
L 291.784903 98.717491 
L 292.759354 99.237675 
L 292.921763 99.015582 
L 293.24658 99.463211 
L 293.571397 99.007329 
L 293.896214 99.147359 
L 294.058622 99.110567 
L 294.383439 99.622494 
L 294.545847 99.653509 
L 294.870664 99.440328 
L 295.033073 99.182263 
L 295.195481 99.389815 
L 295.682707 99.316566 
L 295.845115 99.316214 
L 296.007524 99.592752 
L 296.819566 99.535889 
L 296.981975 99.76772 
L 297.144383 99.767526 
L 297.306792 99.898623 
L 297.4692 99.807144 
L 298.118834 99.929307 
L 298.443651 99.637795 
L 298.606059 99.777318 
L 298.930876 99.820255 
L 299.093285 99.97832 
L 299.418102 99.858207 
L 299.58051 99.823852 
L 299.742919 99.964625 
L 300.554961 99.380028 
L 300.71737 99.437393 
L 301.042187 99.686061 
L 301.529412 100.042015 
L 301.69182 99.962315 
L 302.179046 100.321195 
L 302.503863 99.922634 
L 302.666271 99.737436 
L 302.82868 99.809858 
L 303.153497 99.636986 
L 303.478314 99.910577 
L 303.640722 99.776796 
L 303.965539 99.754989 
L 304.290356 99.362626 
L 304.615173 99.231647 
L 304.777582 99.377913 
L 304.93999 99.221343 
L 305.427215 99.249952 
L 305.752032 99.010781 
L 305.914441 99.010042 
L 306.564075 98.43126 
L 306.888892 98.464411 
L 307.0513 98.641008 
L 307.538526 98.240382 
L 307.700934 98.18559 
L 308.025751 97.985504 
L 308.675385 98.094594 
L 308.837793 98.257678 
L 309.16261 97.924725 
L 309.487427 98.165851 
L 309.812244 98.016944 
L 309.974653 97.912326 
L 310.29947 98.234421 
L 310.461878 97.973972 
L 311.273921 98.368767 
L 311.436329 98.31273 
L 311.761146 98.591107 
L 312.085963 98.343171 
L 312.248371 98.468963 
L 312.41078 98.322541 
L 313.222822 98.34382 
L 313.547639 98.272147 
L 314.034865 98.752164 
L 314.359682 98.825935 
L 314.684499 98.427978 
L 314.846907 98.511986 
L 315.496541 98.339936 
L 315.821358 98.429184 
L 316.146175 98.56384 
L 316.470992 98.885844 
L 316.795809 98.700484 
L 316.958217 98.594583 
L 317.120626 98.648272 
L 317.283034 98.532119 
L 317.77026 98.737829 
L 317.932668 98.589292 
L 318.257485 98.670724 
L 318.582302 98.492223 
L 318.744711 98.51459 
L 318.907119 98.693346 
L 319.069527 98.476596 
L 319.231936 98.490959 
L 319.556753 98.242929 
L 319.719161 98.338104 
L 319.88157 98.230352 
L 320.206387 98.471196 
L 320.531204 98.211498 
L 320.856021 98.345785 
L 321.018429 98.460001 
L 321.830472 97.871088 
L 321.99288 97.962058 
L 322.642514 97.511231 
L 323.454556 97.689986 
L 323.779373 97.608264 
L 324.266599 97.105397 
L 324.916233 97.419586 
L 325.078641 97.194597 
L 325.24105 97.162988 
L 325.565867 97.408029 
L 325.728275 97.587184 
L 326.2155 97.659326 
L 326.377909 97.836769 
L 326.540317 97.653818 
L 326.702726 97.702026 
L 327.35236 97.405625 
L 328.001994 97.690021 
L 328.164402 97.522743 
L 328.489219 97.705367 
L 328.651628 97.49659 
L 328.976445 97.481918 
L 329.138853 97.363435 
L 329.301262 97.417817 
L 329.46367 97.265544 
L 329.626078 97.355986 
L 330.113304 96.960906 
L 330.275712 96.943304 
L 330.438121 97.052526 
L 330.600529 96.927263 
L 330.925346 97.110513 
L 331.250163 97.371295 
L 331.57498 96.918239 
L 332.062206 96.883171 
L 332.224614 96.77827 
L 332.387023 96.891322 
L 332.549431 96.719423 
L 332.874248 96.75427 
L 333.036657 96.61727 
L 334.011107 96.880538 
L 334.660741 97.194017 
L 334.985558 96.992998 
L 335.635192 97.207645 
L 336.122418 97.507526 
L 336.284826 97.46461 
L 336.447235 97.672752 
L 336.609643 97.651042 
L 336.93446 97.830475 
L 337.096868 97.783064 
L 337.259277 97.950568 
L 337.421685 97.818612 
L 337.584094 97.866039 
L 337.908911 98.202743 
L 338.233728 98.156942 
L 338.558545 98.338224 
L 338.883362 98.648864 
L 339.04577 98.532182 
L 339.208179 98.599718 
L 339.857813 98.219628 
L 340.020221 98.310127 
L 340.182629 98.265689 
L 340.507446 98.338315 
L 340.832263 98.302035 
L 340.994672 98.300587 
L 341.15708 98.449316 
L 341.481897 98.193165 
L 341.644306 98.371391 
L 341.969123 97.985554 
L 342.131531 97.973189 
L 342.29394 98.096221 
L 342.781165 97.837176 
L 343.430799 98.071846 
L 343.593208 97.822826 
L 343.755616 97.888317 
L 344.242841 97.728078 
L 344.40525 97.766915 
L 344.567658 97.973196 
L 344.730067 97.750813 
L 344.892475 97.915709 
L 345.054884 97.881337 
L 345.217292 97.662164 
L 345.542109 97.950031 
L 345.704518 97.856621 
L 346.029335 98.059565 
L 346.191743 98.090601 
L 346.354152 97.964888 
L 346.51656 98.001489 
L 346.678969 97.852472 
L 347.166194 97.929928 
L 347.328602 97.859904 
L 347.491011 97.668457 
L 347.978236 97.954484 
L 348.303053 97.819185 
L 348.62787 97.910571 
L 348.790279 97.939392 
L 348.952687 97.850065 
L 349.115096 97.942204 
L 349.277504 97.868251 
L 349.602321 98.110501 
L 349.76473 97.895626 
L 349.927138 98.064508 
L 350.089547 98.052229 
L 350.251955 97.917272 
L 350.576772 98.289201 
L 350.73918 98.172327 
L 351.063997 98.255771 
L 351.551223 97.922706 
L 351.713631 98.084912 
L 352.038448 98.185505 
L 352.200857 98.238402 
L 352.363265 98.099867 
L 352.688082 98.270281 
L 353.012899 98.054729 
L 353.337716 98.368103 
L 353.500125 98.532747 
L 353.662533 98.530047 
L 353.824942 98.336961 
L 354.149759 98.554852 
L 354.474575 98.404455 
L 354.799392 98.194539 
L 355.124209 98.355075 
L 355.286618 98.265105 
L 355.449026 98.352401 
L 355.936252 97.940732 
L 356.09866 98.065675 
L 356.423477 98.009728 
L 356.585886 98.225807 
L 356.910703 97.891405 
L 357.23552 97.797919 
L 357.885153 97.871586 
L 358.047562 97.754869 
L 358.20997 97.915646 
L 358.534787 97.841826 
L 358.859604 97.591438 
L 359.34683 97.744653 
L 359.509238 97.820493 
L 359.996464 97.574022 
L 360.321281 97.763043 
L 360.646098 98.007414 
L 361.133323 97.562385 
L 361.295732 97.559442 
L 361.620548 97.426175 
L 361.782957 97.473051 
L 362.107774 97.731692 
L 362.270182 97.536057 
L 363.082225 97.584464 
L 363.244633 97.471784 
L 363.407042 97.57469 
L 363.56945 97.340832 
L 363.894267 97.549129 
L 364.056676 97.364365 
L 364.219084 97.419857 
L 364.543901 97.232523 
L 364.868718 97.502184 
L 366.005577 97.438389 
L 366.167986 97.611311 
L 366.655211 97.455185 
L 367.142437 97.55979 
L 367.304845 97.705421 
L 367.467254 97.618251 
L 367.792071 97.643625 
L 367.954479 97.521882 
L 368.279296 97.64573 
L 368.441704 97.720226 
L 368.604113 97.66408 
L 368.92893 97.709181 
L 369.253747 97.483479 
L 369.903381 97.835662 
L 370.065789 97.950421 
L 370.390606 97.934268 
L 370.553015 98.036901 
L 370.715423 97.94957 
L 370.877832 98.076248 
L 371.689874 97.751647 
L 371.852283 97.766986 
L 372.177099 97.545911 
L 372.826733 97.764101 
L 373.313959 97.651076 
L 374.126001 97.659775 
L 374.450818 97.54797 
L 374.938044 97.269903 
L 375.262861 97.486513 
L 375.425269 97.381597 
L 375.587677 97.43998 
L 375.750086 97.283437 
L 377.049354 97.506053 
L 377.698988 97.295561 
L 378.023805 97.442715 
L 378.186213 97.200947 
L 378.348622 97.228929 
L 378.673439 97.06025 
L 378.835847 97.047727 
L 378.998255 97.175391 
L 379.160664 97.159434 
L 379.323072 96.965958 
L 379.972706 97.016997 
L 380.135115 96.994032 
L 380.297523 97.115112 
L 380.459932 97.056879 
L 380.62234 97.195194 
L 380.784749 97.044219 
L 381.7592 97.18643 
L 382.408834 96.836704 
L 382.571242 96.832979 
L 382.73365 96.650573 
L 383.220876 96.681574 
L 383.708101 96.849487 
L 384.195327 96.683178 
L 384.520144 96.777869 
L 385.007369 96.734655 
L 385.494595 96.400351 
L 385.819412 96.494194 
L 386.631454 96.446695 
L 386.956271 96.662133 
L 387.118679 96.609331 
L 387.443496 96.811661 
L 388.255539 96.520013 
L 388.580356 96.698175 
L 388.742764 96.522073 
L 389.22999 96.436747 
L 389.554806 96.282085 
L 391.016483 96.218074 
L 391.3413 96.119817 
L 391.666117 95.974059 
L 391.828525 96.099185 
L 392.315751 95.785233 
L 392.640568 95.862038 
L 393.939835 95.536673 
L 394.589469 95.574904 
L 394.751878 95.358973 
L 394.914286 95.442498 
L 395.56392 95.218982 
L 395.726329 95.37154 
L 396.051146 95.274624 
L 396.700779 95.148725 
L 396.863188 95.241253 
L 397.188005 95.004249 
L 397.512822 94.97561 
L 397.837639 94.790276 
L 398.000047 94.775645 
L 398.487273 94.331271 
L 398.487273 94.331271 
" clip-path="url(#p312cdd7bcf)" style="fill: none; stroke-dasharray: 2,3.3; stroke-dashoffset: 0; stroke: #0000ff; stroke-width: 2"/>
   </g>
   <g id="line2d_16">
    <path d="M 73.832727 295.488 
L 73.995136 213.626078 
L 74.319953 232.32602 
L 74.64477 141.343468 
L 74.807178 145.810151 
L 74.969587 124.825458 
L 75.131995 123.756489 
L 75.294404 147.714367 
L 75.456812 145.726752 
L 75.619221 135.866236 
L 75.781629 135.54177 
L 75.944037 123.965703 
L 76.106446 138.203643 
L 76.268854 118.383202 
L 76.431263 118.960616 
L 76.593671 126.954137 
L 76.75608 127.319037 
L 76.918488 115.506699 
L 77.080897 126.834771 
L 77.243305 119.94805 
L 77.405714 106.794887 
L 77.568122 111.515722 
L 77.730531 99.513145 
L 77.892939 105.220942 
L 78.055348 97.753596 
L 78.704982 111.813435 
L 78.86739 106.025043 
L 79.029799 113.756684 
L 79.517024 88.159913 
L 79.679432 90.697352 
L 79.841841 91.427589 
L 80.329066 78.636568 
L 80.653883 80.175803 
L 80.816292 73.580613 
L 80.9787 75.387635 
L 81.141109 78.947122 
L 81.303517 76.749792 
L 81.465926 71.483481 
L 81.628334 70.97037 
L 81.790743 72.220957 
L 82.11556 77.820195 
L 82.277968 77.534167 
L 82.440377 75.927924 
L 82.602785 77.729218 
L 82.927602 84.845134 
L 83.09001 83.924479 
L 83.252419 85.791372 
L 83.577236 96.389787 
L 84.064461 85.926083 
L 84.22687 87.201805 
L 84.389278 86.257074 
L 84.551687 82.885546 
L 84.714095 82.242829 
L 85.038912 76.648246 
L 85.363729 80.712308 
L 85.526138 79.978808 
L 85.688546 81.609479 
L 85.850955 80.827574 
L 86.013363 82.281988 
L 86.175772 79.248526 
L 86.33818 74.058408 
L 86.500588 76.441528 
L 86.662997 74.929164 
L 86.825405 74.714869 
L 87.150222 72.15572 
L 87.312631 71.511617 
L 87.637448 69.315326 
L 88.124673 72.254208 
L 88.287082 71.446128 
L 88.774307 66.463273 
L 88.936716 65.251467 
L 89.261533 59.561033 
L 89.58635 56.669862 
L 89.748758 59.163185 
L 90.073575 56.868664 
L 90.235983 55.227981 
L 90.398392 55.335313 
L 90.5608 55.141621 
L 90.723209 55.506108 
L 90.885617 59.042222 
L 91.048026 57.434977 
L 91.210434 58.366107 
L 91.69766 56.957008 
L 91.860068 56.640935 
L 92.184885 59.488605 
L 92.347294 57.342219 
L 92.509702 56.950157 
L 92.672111 58.857331 
L 93.159336 56.761109 
L 93.321745 57.332968 
L 93.484153 56.952598 
L 93.646561 55.922592 
L 93.80897 56.276314 
L 93.971378 55.994686 
L 94.133787 58.528137 
L 94.458604 58.71986 
L 94.621012 59.244358 
L 94.783421 61.843991 
L 95.108238 57.698025 
L 95.270646 57.777607 
L 95.433055 59.660189 
L 95.595463 59.707921 
L 95.757872 57.327466 
L 96.082689 59.688908 
L 96.245097 57.74783 
L 96.407506 57.157403 
L 96.732323 53.568 
L 96.894731 54.503171 
L 97.057139 54.655361 
L 97.219548 55.842486 
L 97.381956 58.172198 
L 97.544365 58.308 
L 97.706773 56.994694 
L 97.869182 54.667791 
L 98.03159 55.58416 
L 98.193999 54.965866 
L 98.356407 53.721891 
L 98.518816 55.8849 
L 98.681224 55.007563 
L 98.843633 55.304371 
L 99.006041 55.03259 
L 99.330858 55.276612 
L 99.493267 54.008044 
L 99.655675 55.339257 
L 99.818084 55.714367 
L 99.980492 57.796132 
L 100.142901 57.186735 
L 100.467717 58.275432 
L 100.792534 55.539468 
L 100.954943 55.529602 
L 101.117351 56.746512 
L 101.27976 56.531504 
L 101.604577 58.450782 
L 101.766985 56.522707 
L 102.091802 59.773179 
L 102.416619 57.654341 
L 102.579028 57.778116 
L 102.903845 60.256204 
L 103.066253 61.407245 
L 103.39107 59.389978 
L 103.553479 59.540518 
L 104.203112 64.540336 
L 104.527929 61.977664 
L 104.690338 62.102185 
L 104.852746 62.950619 
L 105.015155 61.799338 
L 105.177563 61.806389 
L 105.339972 61.344817 
L 105.50238 61.999325 
L 106.152014 67.684083 
L 106.314423 66.399638 
L 106.476831 66.254519 
L 106.63924 65.229948 
L 106.801648 65.624821 
L 106.964057 65.134605 
L 107.126465 65.261063 
L 107.288874 66.346958 
L 107.451282 64.492902 
L 107.61369 64.550706 
L 107.776099 63.15514 
L 107.938507 64.464833 
L 108.100916 63.568698 
L 108.263324 63.734835 
L 108.425733 62.873371 
L 108.75055 64.396266 
L 109.237775 63.342562 
L 109.400184 64.330745 
L 109.562592 64.48524 
L 109.725001 65.512443 
L 109.887409 65.299588 
L 110.049818 65.619544 
L 110.212226 64.995612 
L 110.537043 63.419143 
L 110.86186 64.893132 
L 111.024268 64.640046 
L 111.186677 63.322679 
L 111.511494 64.570088 
L 111.673902 65.168315 
L 111.836311 65.024041 
L 111.998719 65.919032 
L 112.161128 65.842477 
L 112.323536 65.11006 
L 112.648353 67.729014 
L 112.810762 67.102234 
L 112.97317 68.271083 
L 113.135579 68.631382 
L 113.297987 68.049798 
L 113.460396 68.901226 
L 113.622804 68.962573 
L 113.785213 68.426494 
L 113.947621 68.996462 
L 114.11003 68.741505 
L 114.272438 69.262316 
L 114.434847 69.086042 
L 114.759663 71.192221 
L 115.246889 70.53203 
L 115.734114 70.868191 
L 115.896523 71.478883 
L 116.058931 72.786572 
L 116.383748 70.815286 
L 116.546157 70.842364 
L 116.708565 70.446914 
L 117.033382 71.090892 
L 117.195791 70.696717 
L 117.358199 71.373065 
L 117.520608 71.222404 
L 117.683016 69.097646 
L 118.007833 71.07122 
L 118.495058 72.325599 
L 118.819875 70.981441 
L 119.307101 73.549308 
L 119.469509 72.961463 
L 119.631918 73.15653 
L 119.794326 73.531829 
L 119.956735 74.228663 
L 120.119143 75.46126 
L 120.281552 75.140981 
L 120.606369 73.329133 
L 120.931186 74.018103 
L 121.256003 74.877124 
L 121.418411 75.756487 
L 121.743228 74.058158 
L 122.068045 75.982335 
L 122.230453 75.74092 
L 122.392862 75.723573 
L 122.55527 75.50002 
L 122.717679 75.52234 
L 123.042496 76.974892 
L 123.204904 76.592349 
L 123.529721 78.056564 
L 123.854538 77.316246 
L 124.016947 77.619487 
L 124.179355 78.760519 
L 124.504172 77.529575 
L 124.666581 77.609194 
L 124.828989 77.527152 
L 124.991398 77.684522 
L 125.153806 78.513339 
L 125.316214 77.87896 
L 125.478623 78.066178 
L 125.641031 78.433424 
L 125.80344 78.38212 
L 125.965848 78.133522 
L 126.453074 79.677472 
L 126.615482 79.603115 
L 126.940299 78.563576 
L 127.265116 80.027086 
L 127.589933 81.314182 
L 127.91475 83.295488 
L 128.077159 83.279455 
L 128.239567 82.273012 
L 128.401976 82.257506 
L 129.214018 78.917635 
L 129.376426 79.05141 
L 129.538835 78.974028 
L 129.863652 80.647797 
L 130.02606 80.99001 
L 130.188469 80.636143 
L 130.350877 80.566335 
L 130.838103 81.795911 
L 131.000511 81.902463 
L 131.325328 81.175562 
L 131.650145 82.913316 
L 131.812554 82.868119 
L 132.137371 80.979826 
L 132.462187 82.266927 
L 132.949413 81.285313 
L 133.27423 79.900252 
L 133.436638 80.046815 
L 133.599047 79.807702 
L 133.923864 80.983033 
L 134.248681 81.242957 
L 134.573498 80.433857 
L 134.735906 80.029651 
L 134.898315 78.701865 
L 135.223132 78.050113 
L 135.38554 76.90366 
L 135.547949 77.283377 
L 135.710357 77.207633 
L 135.872765 77.79493 
L 136.197582 77.533869 
L 136.359991 77.505442 
L 136.522399 76.867086 
L 136.684808 77.179751 
L 136.847216 77.037387 
L 137.009625 77.213484 
L 137.334442 78.619859 
L 137.659259 77.411481 
L 137.821667 77.819201 
L 137.984076 77.393563 
L 138.146484 77.564247 
L 138.308893 77.498165 
L 138.471301 76.264975 
L 138.63371 76.025097 
L 138.796118 75.542693 
L 138.958527 75.486571 
L 139.283343 76.498545 
L 139.445752 76.528819 
L 139.60816 76.817389 
L 139.770569 76.069368 
L 139.932977 76.043312 
L 140.095386 76.382795 
L 140.420203 77.783745 
L 140.907428 76.818669 
L 141.069837 77.487426 
L 141.232245 77.584759 
L 141.394654 77.941135 
L 141.557062 77.445583 
L 141.719471 78.16522 
L 141.881879 78.174774 
L 142.044288 78.768862 
L 142.206696 77.969106 
L 142.531513 79.08306 
L 142.693922 78.553788 
L 142.85633 78.474244 
L 143.018738 79.015327 
L 143.343555 77.953347 
L 143.505964 78.540859 
L 143.668372 78.142444 
L 143.993189 77.86117 
L 144.155598 78.402908 
L 144.480415 76.706212 
L 144.642823 76.82454 
L 144.805232 77.379061 
L 144.96764 77.115844 
L 145.292457 78.300669 
L 145.617274 77.755875 
L 145.942091 77.811671 
L 146.429316 79.453647 
L 146.591725 79.526116 
L 146.754133 79.367662 
L 147.07895 80.19138 
L 147.403767 81.529821 
L 147.728584 80.727551 
L 147.890993 80.803812 
L 148.378218 81.551975 
L 148.540627 81.190119 
L 149.027852 82.512355 
L 149.190261 82.54422 
L 149.515078 83.46819 
L 149.677486 83.655425 
L 150.164711 85.190434 
L 150.32712 85.067354 
L 150.489528 85.427528 
L 150.651937 85.221654 
L 150.976754 85.483488 
L 151.301571 84.973092 
L 151.463979 84.522848 
L 151.788796 85.143837 
L 151.951205 84.403389 
L 152.113613 84.241137 
L 152.43843 83.605911 
L 152.600839 83.457644 
L 152.763247 83.768683 
L 152.925656 83.570299 
L 153.250473 84.133721 
L 153.412881 83.905606 
L 153.575289 83.307081 
L 153.737698 83.421614 
L 154.062515 82.659464 
L 154.224923 82.786493 
L 154.387332 82.835847 
L 154.54974 82.32145 
L 154.712149 82.629402 
L 154.874557 82.377297 
L 155.036966 82.784025 
L 155.199374 82.39947 
L 155.361783 83.042265 
L 155.524191 83.009221 
L 155.6866 83.273105 
L 155.849008 82.973958 
L 156.011417 83.562205 
L 156.173825 83.425592 
L 156.336234 83.053377 
L 156.498642 82.973201 
L 156.985867 83.554024 
L 157.310684 82.410044 
L 157.473093 82.388069 
L 157.79791 83.07991 
L 158.122727 81.832736 
L 158.447544 81.227645 
L 158.772361 82.186853 
L 158.934769 81.934193 
L 159.259586 82.758828 
L 159.584403 83.143766 
L 159.746812 82.654995 
L 159.90922 82.841255 
L 160.234037 81.825137 
L 160.396445 82.112993 
L 160.558854 81.900577 
L 160.883671 81.240261 
L 161.046079 81.931102 
L 161.208488 81.679075 
L 161.370896 81.986228 
L 161.695713 82.07219 
L 162.182939 82.610481 
L 162.345347 82.283246 
L 162.507756 82.261464 
L 162.670164 82.467348 
L 162.832573 82.005617 
L 162.994981 82.180491 
L 163.15739 82.008315 
L 163.319798 82.273447 
L 163.644615 81.844027 
L 163.969432 82.917983 
L 164.13184 82.701768 
L 164.294249 82.767217 
L 164.456657 82.572681 
L 165.106291 81.054201 
L 165.2687 81.285832 
L 165.431108 81.771946 
L 165.755925 81.632903 
L 166.243151 82.730158 
L 166.405559 82.491769 
L 166.567968 81.830739 
L 166.730376 81.704751 
L 166.892785 81.391786 
L 167.055193 81.627179 
L 167.217602 81.331022 
L 167.38001 81.345601 
L 167.867235 80.460756 
L 168.029644 80.808289 
L 168.192052 80.79797 
L 168.354461 81.124807 
L 168.516869 80.873559 
L 168.679278 80.939511 
L 169.004095 81.578117 
L 169.653729 80.465383 
L 169.816137 80.139205 
L 170.140954 80.305447 
L 170.303363 80.432321 
L 170.465771 80.058094 
L 170.952996 81.258517 
L 171.115405 81.076678 
L 171.277813 81.32149 
L 171.440222 81.203359 
L 171.60263 81.629078 
L 171.765039 81.721653 
L 171.927447 81.258345 
L 172.089856 81.836352 
L 172.252264 81.578107 
L 172.414673 81.828382 
L 172.577081 81.439121 
L 173.226715 82.735413 
L 173.389124 82.470748 
L 173.551532 82.573252 
L 173.876349 83.076799 
L 174.038758 83.028905 
L 174.201166 82.481098 
L 174.363575 82.828701 
L 174.525983 82.47795 
L 174.688391 82.737265 
L 175.013208 83.508138 
L 175.175617 83.616842 
L 175.662842 84.721669 
L 175.825251 84.450752 
L 176.150068 85.476197 
L 176.312476 85.551715 
L 176.637293 86.167148 
L 176.799702 86.598956 
L 176.96211 86.217568 
L 177.286927 87.062634 
L 177.449336 87.040064 
L 177.611744 87.159711 
L 177.936561 86.394789 
L 178.261378 85.672549 
L 178.586195 86.063718 
L 179.560646 84.653799 
L 179.723054 84.58132 
L 179.885463 84.695295 
L 180.047871 84.991206 
L 180.21028 85.001329 
L 180.535097 84.338701 
L 180.697505 84.481445 
L 180.859914 84.823992 
L 181.022322 84.406819 
L 181.184731 84.298372 
L 181.671956 83.309112 
L 181.996773 83.328939 
L 182.159181 83.844817 
L 182.32159 83.809345 
L 182.483998 83.919348 
L 182.971224 84.641382 
L 183.133632 84.179451 
L 183.296041 84.099409 
L 184.108083 85.596738 
L 184.595309 84.820315 
L 184.920126 85.596292 
L 185.244942 85.949062 
L 185.569759 86.386411 
L 186.056985 87.532091 
L 186.381802 86.856836 
L 186.54421 87.159313 
L 186.706619 87.051005 
L 186.869027 87.364254 
L 187.031436 87.214797 
L 187.518661 87.36582 
L 187.843478 87.888979 
L 188.168295 88.494142 
L 188.330704 88.220967 
L 188.493112 88.228027 
L 189.142746 89.408081 
L 189.305154 89.098643 
L 189.629971 89.51872 
L 189.954788 90.158849 
L 190.117197 90.380727 
L 190.929239 89.228316 
L 191.091648 89.545249 
L 191.254056 89.472496 
L 191.416465 89.812672 
L 191.578873 89.379565 
L 191.741282 89.322293 
L 191.90369 89.582076 
L 192.228507 89.337728 
L 192.390915 89.422451 
L 192.715732 89.034436 
L 193.040549 88.945979 
L 193.202958 89.19243 
L 193.527775 89.205005 
L 193.690183 89.042719 
L 194.015 89.215197 
L 194.502226 89.618804 
L 194.827043 88.945995 
L 194.989451 89.333969 
L 195.15186 89.353044 
L 195.314268 89.048344 
L 195.801493 89.334166 
L 195.963902 89.087192 
L 196.288719 89.681205 
L 196.451127 89.821457 
L 196.613536 89.704373 
L 196.775944 90.10446 
L 197.26317 89.216829 
L 197.425578 89.204118 
L 197.912804 89.781929 
L 198.075212 89.642179 
L 199.049663 91.43125 
L 199.212071 91.268754 
L 199.37448 90.7532 
L 199.536888 90.61589 
L 199.699297 90.160771 
L 199.861705 90.535151 
L 200.186522 90.585192 
L 200.511339 91.242046 
L 200.673748 91.361041 
L 200.836156 91.330438 
L 200.998565 91.17447 
L 201.160973 90.748583 
L 201.323382 90.763658 
L 201.48579 90.645424 
L 201.648199 91.045679 
L 201.810607 90.864791 
L 201.973016 91.255192 
L 202.135424 91.325399 
L 202.297833 91.172626 
L 202.460241 91.268314 
L 202.62265 91.616533 
L 202.785058 91.465063 
L 202.947466 91.541901 
L 203.434692 91.209302 
L 203.5971 91.667068 
L 204.084326 91.850925 
L 204.246734 91.800922 
L 204.409143 91.544099 
L 204.571551 91.733021 
L 204.73396 91.522332 
L 204.896368 91.793065 
L 205.221185 91.634119 
L 205.383594 91.845512 
L 205.708411 91.770451 
L 206.195636 91.733254 
L 206.358044 92.125012 
L 206.520453 91.762918 
L 206.682861 91.688091 
L 206.84527 92.009931 
L 207.007678 91.980888 
L 207.170087 92.170272 
L 207.494904 91.761531 
L 207.657312 91.750529 
L 207.819721 92.209703 
L 207.982129 92.216961 
L 208.306946 92.713932 
L 208.631763 92.212973 
L 208.794172 92.237658 
L 209.118989 91.683282 
L 209.281397 91.804023 
L 209.443806 91.731312 
L 209.931031 92.251277 
L 210.093439 91.926402 
L 210.255848 92.120462 
L 210.418256 91.907517 
L 210.580665 92.30527 
L 210.743073 92.358824 
L 210.905482 92.78035 
L 211.06789 92.465837 
L 211.230299 92.505546 
L 211.555116 93.038405 
L 211.717524 92.665714 
L 211.879933 92.619135 
L 212.20475 92.205 
L 212.529567 92.16197 
L 212.691975 92.366693 
L 212.854384 92.232663 
L 213.016792 91.940623 
L 213.341609 92.383498 
L 213.504017 92.40522 
L 213.666426 92.570743 
L 213.828834 92.559356 
L 213.991243 92.29627 
L 214.153651 92.420822 
L 214.478468 91.799726 
L 214.640877 91.9684 
L 214.965694 92.558757 
L 215.128102 92.844339 
L 215.290511 92.472178 
L 215.452919 92.767772 
L 215.615328 92.725918 
L 216.42737 91.348757 
L 216.752187 91.246118 
L 216.914595 91.244031 
L 217.077004 91.531907 
L 217.239412 91.204113 
L 217.564229 91.551796 
L 217.889046 90.899864 
L 218.051455 90.886373 
L 218.376272 90.735741 
L 218.53868 90.617409 
L 218.701089 90.347296 
L 218.863497 90.465652 
L 219.025906 90.229755 
L 219.188314 90.345149 
L 219.350723 90.760095 
L 219.513131 90.69786 
L 219.837948 91.044464 
L 220.162765 90.977561 
L 220.64999 91.071592 
L 220.812399 91.185723 
L 220.974807 91.480015 
L 221.137216 91.32022 
L 221.462033 91.626642 
L 221.624441 91.831175 
L 221.78685 91.663966 
L 221.949258 91.765891 
L 222.436484 91.38933 
L 222.761301 91.68789 
L 222.923709 91.540003 
L 223.086118 90.978962 
L 223.248526 91.096701 
L 223.410935 90.913 
L 223.573343 91.286571 
L 223.735752 91.119779 
L 224.060568 91.072728 
L 224.385385 90.637933 
L 224.872611 90.693468 
L 225.035019 90.936176 
L 225.359836 90.373974 
L 225.522245 90.660472 
L 225.847062 90.7845 
L 226.00947 90.546727 
L 226.171879 90.801556 
L 226.334287 90.544981 
L 226.659104 91.002504 
L 226.821513 90.740373 
L 226.983921 90.996362 
L 227.14633 90.923976 
L 227.308738 91.057514 
L 227.471146 90.964551 
L 227.633555 91.192006 
L 227.795963 91.064723 
L 228.12078 90.388873 
L 228.283189 90.534758 
L 228.445597 90.527819 
L 229.420048 91.468379 
L 229.744865 91.170144 
L 230.232091 91.264356 
L 230.394499 91.015068 
L 230.556908 91.290478 
L 230.719316 91.224874 
L 231.36895 91.531666 
L 231.531358 91.340131 
L 231.856175 91.769247 
L 232.018584 91.982952 
L 232.180992 91.811445 
L 232.505809 91.859395 
L 232.830626 91.772777 
L 233.155443 91.887229 
L 233.317852 92.027157 
L 233.48026 91.986381 
L 233.642669 91.69326 
L 233.805077 92.027164 
L 234.129894 92.164958 
L 234.617119 92.421464 
L 234.779528 92.554869 
L 235.104345 92.978066 
L 235.266753 93.108861 
L 235.753979 93.964382 
L 235.916387 94.224 
L 236.078796 94.270402 
L 236.241204 94.19961 
L 236.403613 93.932619 
L 236.890838 93.992523 
L 237.053247 94.267447 
L 237.215655 94.255884 
L 237.702881 94.811214 
L 238.190106 94.750138 
L 238.352514 95.014712 
L 239.002148 94.314863 
L 239.326965 94.30506 
L 239.489374 93.961574 
L 239.814191 94.111518 
L 239.976599 94.199007 
L 240.139008 94.050247 
L 240.301416 94.081758 
L 240.463825 94.291045 
L 241.113459 94.270748 
L 241.438276 94.500577 
L 241.763092 94.653182 
L 242.087909 94.537248 
L 242.250318 94.610641 
L 242.412726 94.322201 
L 242.575135 94.339543 
L 242.737543 94.228849 
L 243.224769 94.780543 
L 243.387177 94.771023 
L 243.549586 94.614605 
L 243.711994 94.250901 
L 244.036811 94.339106 
L 244.19922 94.575492 
L 244.361628 94.473715 
L 244.686445 94.574833 
L 244.848854 94.299309 
L 245.011262 94.339257 
L 245.17367 94.095091 
L 245.336079 94.365666 
L 245.498487 94.050394 
L 245.660896 94.086717 
L 245.985713 94.307324 
L 246.148121 94.341859 
L 246.31053 94.10828 
L 246.472938 94.123281 
L 246.635347 93.913492 
L 246.797755 94.188262 
L 247.284981 94.191025 
L 247.447389 94.403058 
L 247.934615 94.505219 
L 248.097023 94.649066 
L 248.42184 94.086759 
L 248.746657 94.296954 
L 248.909065 94.208829 
L 249.071474 94.453695 
L 249.233882 94.237069 
L 249.558699 94.571532 
L 249.721108 94.371312 
L 250.045925 94.94663 
L 250.208333 94.710622 
L 250.370742 94.703307 
L 250.53315 94.961083 
L 250.695559 94.968322 
L 250.857967 94.61645 
L 251.020376 94.71676 
L 251.345193 94.504947 
L 251.507601 94.500617 
L 251.832418 94.916085 
L 252.157235 94.907861 
L 252.482052 95.400089 
L 252.64446 95.440527 
L 252.806869 95.626348 
L 252.969277 95.601944 
L 253.131686 95.740667 
L 253.294094 95.530442 
L 253.456503 95.711268 
L 253.618911 95.555467 
L 254.106137 95.460408 
L 254.268545 95.806472 
L 254.755771 95.898387 
L 254.918179 95.582879 
L 255.242996 96.138992 
L 255.405405 96.102619 
L 255.567813 96.331807 
L 255.730221 96.337534 
L 255.89263 96.174095 
L 256.055038 96.206268 
L 256.217447 96.362775 
L 256.379855 96.068199 
L 256.542264 96.030599 
L 256.704672 96.205576 
L 256.867081 95.930832 
L 257.516715 96.867709 
L 257.841532 96.220155 
L 258.166349 96.792818 
L 258.815983 96.339005 
L 258.978391 96.570946 
L 259.465616 96.461859 
L 259.628025 96.751566 
L 259.790433 96.683505 
L 259.952842 96.434096 
L 260.11525 96.415462 
L 260.277659 96.523169 
L 260.440067 96.206369 
L 260.927293 96.804722 
L 261.089701 96.705261 
L 261.25211 96.838415 
L 261.414518 96.822037 
L 261.576927 96.566534 
L 261.739335 96.796869 
L 262.064152 96.626512 
L 262.388969 96.631382 
L 262.713786 96.891148 
L 263.038603 96.709022 
L 263.201011 96.822186 
L 263.525828 96.53718 
L 263.688237 96.699339 
L 263.850645 96.615574 
L 264.013054 96.793889 
L 264.337871 96.758028 
L 265.149913 97.569051 
L 265.312322 97.585668 
L 265.637139 98.130451 
L 265.799547 98.189582 
L 265.961956 97.813257 
L 266.124364 97.793709 
L 266.286772 98.077503 
L 266.449181 98.035424 
L 266.773998 97.730792 
L 266.936406 97.708832 
L 267.261223 98.018398 
L 267.423632 97.891905 
L 267.748449 98.039454 
L 268.073266 98.498299 
L 268.235674 97.952341 
L 268.398083 98.076391 
L 268.885308 97.6489 
L 269.210125 97.756858 
L 269.534942 97.397217 
L 269.69735 97.357905 
L 270.022167 97.485268 
L 270.346984 97.390052 
L 270.509393 97.626559 
L 270.671801 97.575232 
L 270.996618 97.992625 
L 271.321435 97.939819 
L 271.483844 98.173839 
L 271.808661 98.135746 
L 271.971069 98.24035 
L 272.133478 98.155845 
L 272.783112 98.909138 
L 272.94552 98.772046 
L 273.270337 98.092832 
L 273.432745 98.17363 
L 273.757562 98.122724 
L 274.082379 98.275089 
L 274.244788 98.00889 
L 275.05683 98.387294 
L 275.544056 98.101018 
L 276.031281 98.35807 
L 276.19369 98.367649 
L 276.356098 98.25863 
L 276.518507 98.317778 
L 276.680915 97.967997 
L 276.843323 98.101212 
L 277.16814 97.885633 
L 277.492957 97.271476 
L 278.142591 97.418633 
L 278.305 97.300351 
L 278.629817 97.455538 
L 278.954634 97.217767 
L 279.117042 97.297035 
L 279.279451 97.027023 
L 279.766676 97.397126 
L 280.091493 97.53849 
L 280.253901 97.44943 
L 280.41631 97.511797 
L 280.741127 97.065292 
L 280.903535 97.211154 
L 281.065944 97.156971 
L 281.553169 97.497528 
L 281.877986 97.715953 
L 282.040395 97.679132 
L 282.202803 97.829469 
L 282.365212 97.809268 
L 282.52762 97.626541 
L 282.690029 97.61198 
L 282.852437 97.762052 
L 283.014846 97.715496 
L 283.339663 97.993772 
L 284.151705 98.3572 
L 284.314113 98.26409 
L 284.476522 98.413325 
L 284.63893 98.285774 
L 284.963747 98.530148 
L 285.126156 98.300609 
L 285.288564 98.549469 
L 285.450973 98.425712 
L 285.77579 98.869479 
L 285.938198 98.883787 
L 286.425424 98.582648 
L 286.587832 98.636888 
L 286.750241 98.490747 
L 287.075058 98.713153 
L 287.399874 98.664281 
L 287.562283 98.439015 
L 287.724691 98.459405 
L 288.049508 98.05745 
L 288.211917 98.178083 
L 288.536734 98.111236 
L 288.861551 98.296783 
L 289.023959 98.339453 
L 289.186368 98.21748 
L 289.348776 98.326986 
L 289.511185 98.192282 
L 289.836002 98.539504 
L 290.648044 98.573579 
L 290.972861 98.913647 
L 291.135269 98.900745 
L 291.297678 99.079624 
L 291.784903 98.717491 
L 292.759354 99.237675 
L 292.921763 99.015582 
L 293.24658 99.463211 
L 293.571397 99.007329 
L 293.896214 99.147359 
L 294.058622 99.110567 
L 294.383439 99.622494 
L 294.545847 99.653509 
L 294.870664 99.440328 
L 295.033073 99.182263 
L 295.195481 99.389815 
L 295.682707 99.316566 
L 295.845115 99.316214 
L 296.007524 99.592752 
L 296.819566 99.535889 
L 296.981975 99.76772 
L 297.144383 99.767526 
L 297.306792 99.898623 
L 297.4692 99.807144 
L 298.118834 99.929307 
L 298.443651 99.637795 
L 298.606059 99.777318 
L 298.930876 99.820255 
L 299.093285 99.97832 
L 299.418102 99.858207 
L 299.58051 99.823852 
L 299.742919 99.964625 
L 300.554961 99.380028 
L 300.71737 99.437393 
L 301.042187 99.686061 
L 301.529412 100.042015 
L 301.69182 99.962315 
L 302.179046 100.321195 
L 302.503863 99.922634 
L 302.666271 99.737436 
L 302.82868 99.809858 
L 303.153497 99.636986 
L 303.478314 99.910577 
L 303.640722 99.776796 
L 303.965539 99.754989 
L 304.290356 99.362626 
L 304.615173 99.231647 
L 304.777582 99.377913 
L 304.93999 99.221343 
L 305.427215 99.249952 
L 305.752032 99.010781 
L 305.914441 99.010042 
L 306.564075 98.43126 
L 306.888892 98.464411 
L 307.0513 98.641008 
L 307.538526 98.240382 
L 307.700934 98.18559 
L 308.025751 97.985504 
L 308.675385 98.094594 
L 308.837793 98.257678 
L 309.16261 97.924725 
L 309.487427 98.165851 
L 309.812244 98.016944 
L 309.974653 97.912326 
L 310.29947 98.234421 
L 310.461878 97.973972 
L 311.273921 98.368767 
L 311.436329 98.31273 
L 311.761146 98.591107 
L 312.085963 98.343171 
L 312.248371 98.468963 
L 312.41078 98.322541 
L 313.222822 98.34382 
L 313.547639 98.272147 
L 314.034865 98.752164 
L 314.359682 98.825935 
L 314.684499 98.427978 
L 314.846907 98.511986 
L 315.496541 98.339936 
L 315.821358 98.429184 
L 316.146175 98.56384 
L 316.470992 98.885844 
L 316.795809 98.700484 
L 316.958217 98.594583 
L 317.120626 98.648272 
L 317.283034 98.532119 
L 317.77026 98.737829 
L 317.932668 98.589292 
L 318.257485 98.670724 
L 318.582302 98.492223 
L 318.744711 98.51459 
L 318.907119 98.693346 
L 319.069527 98.476596 
L 319.231936 98.490959 
L 319.556753 98.242929 
L 319.719161 98.338104 
L 319.88157 98.230352 
L 320.206387 98.471196 
L 320.531204 98.211498 
L 320.856021 98.345785 
L 321.018429 98.460001 
L 321.830472 97.871088 
L 321.99288 97.962058 
L 322.642514 97.511231 
L 323.454556 97.689986 
L 323.779373 97.608264 
L 324.266599 97.105397 
L 324.916233 97.419586 
L 325.078641 97.194597 
L 325.24105 97.162988 
L 325.565867 97.408029 
L 325.728275 97.587184 
L 326.2155 97.659326 
L 326.377909 97.836769 
L 326.540317 97.653818 
L 326.702726 97.702026 
L 327.35236 97.405625 
L 328.001994 97.690021 
L 328.164402 97.522743 
L 328.489219 97.705367 
L 328.651628 97.49659 
L 328.976445 97.481918 
L 329.138853 97.363435 
L 329.301262 97.417817 
L 329.46367 97.265544 
L 329.626078 97.355986 
L 330.113304 96.960906 
L 330.275712 96.943304 
L 330.438121 97.052526 
L 330.600529 96.927263 
L 330.925346 97.110513 
L 331.250163 97.371295 
L 331.57498 96.918239 
L 332.062206 96.883171 
L 332.224614 96.77827 
L 332.387023 96.891322 
L 332.549431 96.719423 
L 332.874248 96.75427 
L 333.036657 96.61727 
L 334.011107 96.880538 
L 334.660741 97.194017 
L 334.985558 96.992998 
L 335.635192 97.207645 
L 336.122418 97.507526 
L 336.284826 97.46461 
L 336.447235 97.672752 
L 336.609643 97.651042 
L 336.93446 97.830475 
L 337.096868 97.783064 
L 337.259277 97.950568 
L 337.421685 97.818612 
L 337.584094 97.866039 
L 337.908911 98.202743 
L 338.233728 98.156942 
L 338.558545 98.338224 
L 338.883362 98.648864 
L 339.04577 98.532182 
L 339.208179 98.599718 
L 339.857813 98.219628 
L 340.020221 98.310127 
L 340.182629 98.265689 
L 340.507446 98.338315 
L 340.832263 98.302035 
L 340.994672 98.300587 
L 341.15708 98.449316 
L 341.481897 98.193165 
L 341.644306 98.371391 
L 341.969123 97.985554 
L 342.131531 97.973189 
L 342.29394 98.096221 
L 342.781165 97.837176 
L 343.430799 98.071846 
L 343.593208 97.822826 
L 343.755616 97.888317 
L 344.242841 97.728078 
L 344.40525 97.766915 
L 344.567658 97.973196 
L 344.730067 97.750813 
L 344.892475 97.915709 
L 345.054884 97.881337 
L 345.217292 97.662164 
L 345.542109 97.950031 
L 345.704518 97.856621 
L 346.029335 98.059565 
L 346.191743 98.090601 
L 346.354152 97.964888 
L 346.51656 98.001489 
L 346.678969 97.852472 
L 347.166194 97.929928 
L 347.328602 97.859904 
L 347.491011 97.668457 
L 347.978236 97.954484 
L 348.303053 97.819185 
L 348.62787 97.910571 
L 348.790279 97.939392 
L 348.952687 97.850065 
L 349.115096 97.942204 
L 349.277504 97.868251 
L 349.602321 98.110501 
L 349.76473 97.895626 
L 349.927138 98.064508 
L 350.089547 98.052229 
L 350.251955 97.917272 
L 350.576772 98.289201 
L 350.73918 98.172327 
L 351.063997 98.255771 
L 351.551223 97.922706 
L 351.713631 98.084912 
L 352.038448 98.185505 
L 352.200857 98.238402 
L 352.363265 98.099867 
L 352.688082 98.270281 
L 353.012899 98.054729 
L 353.337716 98.368103 
L 353.500125 98.532747 
L 353.662533 98.530047 
L 353.824942 98.336961 
L 354.149759 98.554852 
L 354.474575 98.404455 
L 354.799392 98.194539 
L 355.124209 98.355075 
L 355.286618 98.265105 
L 355.449026 98.352401 
L 355.936252 97.940732 
L 356.09866 98.065675 
L 356.423477 98.009728 
L 356.585886 98.225807 
L 356.910703 97.891405 
L 357.23552 97.797919 
L 357.885153 97.871586 
L 358.047562 97.754869 
L 358.20997 97.915646 
L 358.534787 97.841826 
L 358.859604 97.591438 
L 359.34683 97.744653 
L 359.509238 97.820493 
L 359.996464 97.574022 
L 360.321281 97.763043 
L 360.646098 98.007414 
L 361.133323 97.562385 
L 361.295732 97.559442 
L 361.620548 97.426175 
L 361.782957 97.473051 
L 362.107774 97.731692 
L 362.270182 97.536057 
L 363.082225 97.584464 
L 363.244633 97.471784 
L 363.407042 97.57469 
L 363.56945 97.340832 
L 363.894267 97.549129 
L 364.056676 97.364365 
L 364.219084 97.419857 
L 364.543901 97.232523 
L 364.868718 97.502184 
L 366.005577 97.438389 
L 366.167986 97.611311 
L 366.655211 97.455185 
L 367.142437 97.55979 
L 367.304845 97.705421 
L 367.467254 97.618251 
L 367.792071 97.643625 
L 367.954479 97.521882 
L 368.279296 97.64573 
L 368.441704 97.720226 
L 368.604113 97.66408 
L 368.92893 97.709181 
L 369.253747 97.483479 
L 369.903381 97.835662 
L 370.065789 97.950421 
L 370.390606 97.934268 
L 370.553015 98.036901 
L 370.715423 97.94957 
L 370.877832 98.076248 
L 371.689874 97.751647 
L 371.852283 97.766986 
L 372.177099 97.545911 
L 372.826733 97.764101 
L 373.313959 97.651076 
L 374.126001 97.659775 
L 374.450818 97.54797 
L 374.938044 97.269903 
L 375.262861 97.486513 
L 375.425269 97.381597 
L 375.587677 97.43998 
L 375.750086 97.283437 
L 377.049354 97.506053 
L 377.698988 97.295561 
L 378.023805 97.442715 
L 378.186213 97.200947 
L 378.348622 97.228929 
L 378.673439 97.06025 
L 378.835847 97.047727 
L 378.998255 97.175391 
L 379.160664 97.159434 
L 379.323072 96.965958 
L 379.972706 97.016997 
L 380.135115 96.994032 
L 380.297523 97.115112 
L 380.459932 97.056879 
L 380.62234 97.195194 
L 380.784749 97.044219 
L 381.7592 97.18643 
L 382.408834 96.836704 
L 382.571242 96.832979 
L 382.73365 96.650573 
L 383.220876 96.681574 
L 383.708101 96.849487 
L 384.195327 96.683178 
L 384.520144 96.777869 
L 385.007369 96.734655 
L 385.494595 96.400351 
L 385.819412 96.494194 
L 386.631454 96.446695 
L 386.956271 96.662133 
L 387.118679 96.609331 
L 387.443496 96.811661 
L 388.255539 96.520013 
L 388.580356 96.698175 
L 388.742764 96.522073 
L 389.22999 96.436747 
L 389.554806 96.282085 
L 391.016483 96.218074 
L 391.3413 96.119817 
L 391.666117 95.974059 
L 391.828525 96.099185 
L 392.315751 95.785233 
L 392.640568 95.862038 
L 393.939835 95.536673 
L 394.589469 95.574904 
L 394.751878 95.358973 
L 394.914286 95.442498 
L 395.56392 95.218982 
L 395.726329 95.37154 
L 396.051146 95.274624 
L 396.700779 95.148725 
L 396.863188 95.241253 
L 397.188005 95.004249 
L 397.512822 94.97561 
L 397.837639 94.790276 
L 398.000047 94.775645 
L 398.487273 94.331271 
L 398.487273 94.331271 
" clip-path="url(#p312cdd7bcf)" style="fill: none; stroke-dasharray: 2,3.3; stroke-dashoffset: 0; stroke: #ffa500; stroke-width: 2"/>
   </g>
   <g id="patch_3">
    <path d="M 57.6 307.584 
L 57.6 41.472 
" style="fill: none; stroke: #000000; stroke-width: 0.8; stroke-linejoin: miter; stroke-linecap: square"/>
   </g>
   <g id="patch_4">
    <path d="M 414.72 307.584 
L 414.72 41.472 
" style="fill: none; stroke: #000000; stroke-width: 0.8; stroke-linejoin: miter; stroke-linecap: square"/>
   </g>
   <g id="patch_5">
    <path d="M 57.6 307.584 
L 414.72 307.584 
" style="fill: none; stroke: #000000; stroke-width: 0.8; stroke-linejoin: miter; stroke-linecap: square"/>
   </g>
   <g id="patch_6">
    <path d="M 57.6 41.472 
L 414.72 41.472 
" style="fill: none; stroke: #000000; stroke-width: 0.8; stroke-linejoin: miter; stroke-linecap: square"/>
   </g>
   <g id="text_17">
    <!-- Waiting Time Plot -->
    <g transform="translate(183.833438 8.2635)scale(0.12 -0.12)">
     <defs>
      <path id="DejaVuSans-50" d="M 1259 4147 
L 1259 2394 
L 2053 2394 
Q 2494 2394 2734 2622 
Q 2975 2850 2975 3272 
Q 2975 3691 2734 3919 
Q 2494 4147 2053 4147 
L 1259 4147 
z
M 628 4666 
L 2053 4666 
Q 2838 4666 3239 4311 
Q 3641 3956 3641 3272 
Q 3641 2581 3239 2228 
Q 2838 1875 2053 1875 
L 1259 1875 
L 1259 0 
L 628 0 
L 628 4666 
z
" transform="scale(0.015625)"/>
      <path id="DejaVuSans-6c" d="M 603 4863 
L 1178 4863 
L 1178 0 
L 603 0 
L 603 4863 
z
" transform="scale(0.015625)"/>
     </defs>
     <use xlink:href="#DejaVuSans-57"/>
     <use xlink:href="#DejaVuSans-61" x="92.501953"/>
     <use xlink:href="#DejaVuSans-69" x="153.78125"/>
     <use xlink:href="#DejaVuSans-74" x="181.564453"/>
     <use xlink:href="#DejaVuSans-69" x="220.773438"/>
     <use xlink:href="#DejaVuSans-6e" x="248.556641"/>
     <use xlink:href="#DejaVuSans-67" x="311.935547"/>
     <use xlink:href="#DejaVuSans-20" x="375.412109"/>
     <use xlink:href="#DejaVuSans-54" x="407.199219"/>
     <use xlink:href="#DejaVuSans-69" x="465.158203"/>
     <use xlink:href="#DejaVuSans-6d" x="492.941406"/>
     <use xlink:href="#DejaVuSans-65" x="590.353516"/>
     <use xlink:href="#DejaVuSans-20" x="651.876953"/>
     <use xlink:href="#DejaVuSans-50" x="683.664062"/>
     <use xlink:href="#DejaVuSans-6c" x="743.966797"/>
     <use xlink:href="#DejaVuSans-6f" x="771.75"/>
     <use xlink:href="#DejaVuSans-74" x="832.931641"/>
    </g>
    <!--  avg_d = 992.0843244899388  -->
    <g transform="translate(142.671562 21.700875)scale(0.12 -0.12)">
     <defs>
      <path id="DejaVuSans-76" d="M 191 3500 
L 800 3500 
L 1894 563 
L 2988 3500 
L 3597 3500 
L 2284 0 
L 1503 0 
L 191 3500 
z
" transform="scale(0.015625)"/>
      <path id="DejaVuSans-5f" d="M 3263 -1063 
L 3263 -1509 
L -63 -1509 
L -63 -1063 
L 3263 -1063 
z
" transform="scale(0.015625)"/>
      <path id="DejaVuSans-3d" d="M 678 2906 
L 4684 2906 
L 4684 2381 
L 678 2381 
L 678 2906 
z
M 678 1631 
L 4684 1631 
L 4684 1100 
L 678 1100 
L 678 1631 
z
" transform="scale(0.015625)"/>
      <path id="DejaVuSans-2e" d="M 684 794 
L 1344 794 
L 1344 0 
L 684 0 
L 684 794 
z
" transform="scale(0.015625)"/>
      <path id="DejaVuSans-34" d="M 2419 4116 
L 825 1625 
L 2419 1625 
L 2419 4116 
z
M 2253 4666 
L 3047 4666 
L 3047 1625 
L 3713 1625 
L 3713 1100 
L 3047 1100 
L 3047 0 
L 2419 0 
L 2419 1100 
L 313 1100 
L 313 1709 
L 2253 4666 
z
" transform="scale(0.015625)"/>
      <path id="DejaVuSans-33" d="M 2597 2516 
Q 3050 2419 3304 2112 
Q 3559 1806 3559 1356 
Q 3559 666 3084 287 
Q 2609 -91 1734 -91 
Q 1441 -91 1130 -33 
Q 819 25 488 141 
L 488 750 
Q 750 597 1062 519 
Q 1375 441 1716 441 
Q 2309 441 2620 675 
Q 2931 909 2931 1356 
Q 2931 1769 2642 2001 
Q 2353 2234 1838 2234 
L 1294 2234 
L 1294 2753 
L 1863 2753 
Q 2328 2753 2575 2939 
Q 2822 3125 2822 3475 
Q 2822 3834 2567 4026 
Q 2313 4219 1838 4219 
Q 1578 4219 1281 4162 
Q 984 4106 628 3988 
L 628 4550 
Q 988 4650 1302 4700 
Q 1616 4750 1894 4750 
Q 2613 4750 3031 4423 
Q 3450 4097 3450 3541 
Q 3450 3153 3228 2886 
Q 3006 2619 2597 2516 
z
" transform="scale(0.015625)"/>
     </defs>
     <use xlink:href="#DejaVuSans-20"/>
     <use xlink:href="#DejaVuSans-61" x="31.787109"/>
     <use xlink:href="#DejaVuSans-76" x="93.066406"/>
     <use xlink:href="#DejaVuSans-67" x="152.246094"/>
     <use xlink:href="#DejaVuSans-5f" x="215.722656"/>
     <use xlink:href="#DejaVuSans-64" x="265.722656"/>
     <use xlink:href="#DejaVuSans-20" x="329.199219"/>
     <use xlink:href="#DejaVuSans-3d" x="360.986328"/>
     <use xlink:href="#DejaVuSans-20" x="444.775391"/>
     <use xlink:href="#DejaVuSans-39" x="476.5625"/>
     <use xlink:href="#DejaVuSans-39" x="540.185547"/>
     <use xlink:href="#DejaVuSans-32" x="603.808594"/>
     <use xlink:href="#DejaVuSans-2e" x="667.431641"/>
     <use xlink:href="#DejaVuSans-30" x="699.21875"/>
     <use xlink:href="#DejaVuSans-38" x="762.841797"/>
     <use xlink:href="#DejaVuSans-34" x="826.464844"/>
     <use xlink:href="#DejaVuSans-33" x="890.087891"/>
     <use xlink:href="#DejaVuSans-32" x="953.710938"/>
     <use xlink:href="#DejaVuSans-34" x="1017.333984"/>
     <use xlink:href="#DejaVuSans-34" x="1080.957031"/>
     <use xlink:href="#DejaVuSans-38" x="1144.580078"/>
     <use xlink:href="#DejaVuSans-39" x="1208.203125"/>
     <use xlink:href="#DejaVuSans-39" x="1271.826172"/>
     <use xlink:href="#DejaVuSans-33" x="1335.449219"/>
     <use xlink:href="#DejaVuSans-38" x="1399.072266"/>
     <use xlink:href="#DejaVuSans-38" x="1462.695312"/>
     <use xlink:href="#DejaVuSans-20" x="1526.318359"/>
    </g>
    <!--  avg_a = 992.0843244899388diff = 0.0 -->
    <g transform="translate(116.626875 35.472)scale(0.12 -0.12)">
     <use xlink:href="#DejaVuSans-20"/>
     <use xlink:href="#DejaVuSans-61" x="31.787109"/>
     <use xlink:href="#DejaVuSans-76" x="93.066406"/>
     <use xlink:href="#DejaVuSans-67" x="152.246094"/>
     <use xlink:href="#DejaVuSans-5f" x="215.722656"/>
     <use xlink:href="#DejaVuSans-61" x="265.722656"/>
     <use xlink:href="#DejaVuSans-20" x="327.001953"/>
     <use xlink:href="#DejaVuSans-3d" x="358.789062"/>
     <use xlink:href="#DejaVuSans-20" x="442.578125"/>
     <use xlink:href="#DejaVuSans-39" x="474.365234"/>
     <use xlink:href="#DejaVuSans-39" x="537.988281"/>
     <use xlink:href="#DejaVuSans-32" x="601.611328"/>
     <use xlink:href="#DejaVuSans-2e" x="665.234375"/>
     <use xlink:href="#DejaVuSans-30" x="697.021484"/>
     <use xlink:href="#DejaVuSans-38" x="760.644531"/>
     <use xlink:href="#DejaVuSans-34" x="824.267578"/>
     <use xlink:href="#DejaVuSans-33" x="887.890625"/>
     <use xlink:href="#DejaVuSans-32" x="951.513672"/>
     <use xlink:href="#DejaVuSans-34" x="1015.136719"/>
     <use xlink:href="#DejaVuSans-34" x="1078.759766"/>
     <use xlink:href="#DejaVuSans-38" x="1142.382812"/>
     <use xlink:href="#DejaVuSans-39" x="1206.005859"/>
     <use xlink:href="#DejaVuSans-39" x="1269.628906"/>
     <use xlink:href="#DejaVuSans-33" x="1333.251953"/>
     <use xlink:href="#DejaVuSans-38" x="1396.875"/>
     <use xlink:href="#DejaVuSans-38" x="1460.498047"/>
     <use xlink:href="#DejaVuSans-64" x="1524.121094"/>
     <use xlink:href="#DejaVuSans-69" x="1587.597656"/>
     <use xlink:href="#DejaVuSans-66" x="1615.380859"/>
     <use xlink:href="#DejaVuSans-66" x="1650.585938"/>
     <use xlink:href="#DejaVuSans-20" x="1685.791016"/>
     <use xlink:href="#DejaVuSans-3d" x="1717.578125"/>
     <use xlink:href="#DejaVuSans-20" x="1801.367188"/>
     <use xlink:href="#DejaVuSans-30" x="1833.154297"/>
     <use xlink:href="#DejaVuSans-2e" x="1896.777344"/>
     <use xlink:href="#DejaVuSans-30" x="1928.564453"/>
    </g>
   </g>
   <g id="legend_1">
    <g id="patch_7">
     <path d="M 263.88875 78.82825 
L 407.72 78.82825 
Q 409.72 78.82825 409.72 76.82825 
L 409.72 48.472 
Q 409.72 46.472 407.72 46.472 
L 263.88875 46.472 
Q 261.88875 46.472 261.88875 48.472 
L 261.88875 76.82825 
Q 261.88875 78.82825 263.88875 78.82825 
z
" style="fill: #ffffff; opacity: 0.8; stroke: #cccccc; stroke-linejoin: miter"/>
    </g>
    <g id="line2d_17">
     <path d="M 265.88875 54.570437 
L 275.88875 54.570437 
L 285.88875 54.570437 
" style="fill: none; stroke-dasharray: 2,3.3; stroke-dashoffset: 0; stroke: #0000ff; stroke-width: 2"/>
    </g>
    <g id="text_18">
     <!-- Average (Default) -->
     <g transform="translate(293.88875 58.070437)scale(0.1 -0.1)">
      <defs>
       <path id="DejaVuSans-41" d="M 2188 4044 
L 1331 1722 
L 3047 1722 
L 2188 4044 
z
M 1831 4666 
L 2547 4666 
L 4325 0 
L 3669 0 
L 3244 1197 
L 1141 1197 
L 716 0 
L 50 0 
L 1831 4666 
z
" transform="scale(0.015625)"/>
       <path id="DejaVuSans-28" d="M 1984 4856 
Q 1566 4138 1362 3434 
Q 1159 2731 1159 2009 
Q 1159 1288 1364 580 
Q 1569 -128 1984 -844 
L 1484 -844 
Q 1016 -109 783 600 
Q 550 1309 550 2009 
Q 550 2706 781 3412 
Q 1013 4119 1484 4856 
L 1984 4856 
z
" transform="scale(0.015625)"/>
       <path id="DejaVuSans-44" d="M 1259 4147 
L 1259 519 
L 2022 519 
Q 2988 519 3436 956 
Q 3884 1394 3884 2338 
Q 3884 3275 3436 3711 
Q 2988 4147 2022 4147 
L 1259 4147 
z
M 628 4666 
L 1925 4666 
Q 3281 4666 3915 4102 
Q 4550 3538 4550 2338 
Q 4550 1131 3912 565 
Q 3275 0 1925 0 
L 628 0 
L 628 4666 
z
" transform="scale(0.015625)"/>
       <path id="DejaVuSans-29" d="M 513 4856 
L 1013 4856 
Q 1481 4119 1714 3412 
Q 1947 2706 1947 2009 
Q 1947 1309 1714 600 
Q 1481 -109 1013 -844 
L 513 -844 
Q 928 -128 1133 580 
Q 1338 1288 1338 2009 
Q 1338 2731 1133 3434 
Q 928 4138 513 4856 
z
" transform="scale(0.015625)"/>
      </defs>
      <use xlink:href="#DejaVuSans-41"/>
      <use xlink:href="#DejaVuSans-76" x="62.533203"/>
      <use xlink:href="#DejaVuSans-65" x="121.712891"/>
      <use xlink:href="#DejaVuSans-72" x="183.236328"/>
      <use xlink:href="#DejaVuSans-61" x="224.349609"/>
      <use xlink:href="#DejaVuSans-67" x="285.628906"/>
      <use xlink:href="#DejaVuSans-65" x="349.105469"/>
      <use xlink:href="#DejaVuSans-20" x="410.628906"/>
      <use xlink:href="#DejaVuSans-28" x="442.416016"/>
      <use xlink:href="#DejaVuSans-44" x="481.429688"/>
      <use xlink:href="#DejaVuSans-65" x="558.431641"/>
      <use xlink:href="#DejaVuSans-66" x="619.955078"/>
      <use xlink:href="#DejaVuSans-61" x="655.160156"/>
      <use xlink:href="#DejaVuSans-75" x="716.439453"/>
      <use xlink:href="#DejaVuSans-6c" x="779.818359"/>
      <use xlink:href="#DejaVuSans-74" x="807.601562"/>
      <use xlink:href="#DejaVuSans-29" x="846.810547"/>
     </g>
    </g>
    <g id="line2d_18">
     <path d="M 265.88875 69.248562 
L 275.88875 69.248562 
L 285.88875 69.248562 
" style="fill: none; stroke-dasharray: 2,3.3; stroke-dashoffset: 0; stroke: #ffa500; stroke-width: 2"/>
    </g>
    <g id="text_19">
     <!-- Average (Anticipation) -->
     <g transform="translate(293.88875 72.748562)scale(0.1 -0.1)">
      <defs>
       <path id="DejaVuSans-63" d="M 3122 3366 
L 3122 2828 
Q 2878 2963 2633 3030 
Q 2388 3097 2138 3097 
Q 1578 3097 1268 2742 
Q 959 2388 959 1747 
Q 959 1106 1268 751 
Q 1578 397 2138 397 
Q 2388 397 2633 464 
Q 2878 531 3122 666 
L 3122 134 
Q 2881 22 2623 -34 
Q 2366 -91 2075 -91 
Q 1284 -91 818 406 
Q 353 903 353 1747 
Q 353 2603 823 3093 
Q 1294 3584 2113 3584 
Q 2378 3584 2631 3529 
Q 2884 3475 3122 3366 
z
" transform="scale(0.015625)"/>
       <path id="DejaVuSans-70" d="M 1159 525 
L 1159 -1331 
L 581 -1331 
L 581 3500 
L 1159 3500 
L 1159 2969 
Q 1341 3281 1617 3432 
Q 1894 3584 2278 3584 
Q 2916 3584 3314 3078 
Q 3713 2572 3713 1747 
Q 3713 922 3314 415 
Q 2916 -91 2278 -91 
Q 1894 -91 1617 61 
Q 1341 213 1159 525 
z
M 3116 1747 
Q 3116 2381 2855 2742 
Q 2594 3103 2138 3103 
Q 1681 3103 1420 2742 
Q 1159 2381 1159 1747 
Q 1159 1113 1420 752 
Q 1681 391 2138 391 
Q 2594 391 2855 752 
Q 3116 1113 3116 1747 
z
" transform="scale(0.015625)"/>
      </defs>
      <use xlink:href="#DejaVuSans-41"/>
      <use xlink:href="#DejaVuSans-76" x="62.533203"/>
      <use xlink:href="#DejaVuSans-65" x="121.712891"/>
      <use xlink:href="#DejaVuSans-72" x="183.236328"/>
      <use xlink:href="#DejaVuSans-61" x="224.349609"/>
      <use xlink:href="#DejaVuSans-67" x="285.628906"/>
      <use xlink:href="#DejaVuSans-65" x="349.105469"/>
      <use xlink:href="#DejaVuSans-20" x="410.628906"/>
      <use xlink:href="#DejaVuSans-28" x="442.416016"/>
      <use xlink:href="#DejaVuSans-41" x="481.429688"/>
      <use xlink:href="#DejaVuSans-6e" x="549.837891"/>
      <use xlink:href="#DejaVuSans-74" x="613.216797"/>
      <use xlink:href="#DejaVuSans-69" x="652.425781"/>
      <use xlink:href="#DejaVuSans-63" x="680.208984"/>
      <use xlink:href="#DejaVuSans-69" x="735.189453"/>
      <use xlink:href="#DejaVuSans-70" x="762.972656"/>
      <use xlink:href="#DejaVuSans-61" x="826.449219"/>
      <use xlink:href="#DejaVuSans-74" x="887.728516"/>
      <use xlink:href="#DejaVuSans-69" x="926.9375"/>
      <use xlink:href="#DejaVuSans-6f" x="954.720703"/>
      <use xlink:href="#DejaVuSans-6e" x="1015.902344"/>
      <use xlink:href="#DejaVuSans-29" x="1079.28125"/>
     </g>
    </g>
   </g>
  </g>
 </g>
 <defs>
  <clipPath id="p312cdd7bcf">
   <rect x="57.6" y="41.472" width="357.12" height="266.112"/>
  </clipPath>
 </defs>
</svg>
